<?xml version="1.0" encoding="utf-8" standalone="no"?>
<!DOCTYPE svg PUBLIC "-//W3C//DTD SVG 1.1//EN"
  "http://www.w3.org/Graphics/SVG/1.1/DTD/svg11.dtd">
<svg xmlns:xlink="http://www.w3.org/1999/xlink" width="851.4pt" height="750.900619pt" viewBox="0 0 851.4 750.900619" xmlns="http://www.w3.org/2000/svg" version="1.1">
 <metadata>
  <rdf:RDF xmlns:dc="http://purl.org/dc/elements/1.1/" xmlns:cc="http://creativecommons.org/ns#" xmlns:rdf="http://www.w3.org/1999/02/22-rdf-syntax-ns#">
   <cc:Work>
    <dc:type rdf:resource="http://purl.org/dc/dcmitype/StillImage"/>
    <dc:date>2025-03-16T14:37:53.786401</dc:date>
    <dc:format>image/svg+xml</dc:format>
    <dc:creator>
     <cc:Agent>
      <dc:title>Matplotlib v3.10.1, https://matplotlib.org/</dc:title>
     </cc:Agent>
    </dc:creator>
   </cc:Work>
  </rdf:RDF>
 </metadata>
 <defs>
  <style type="text/css">*{stroke-linejoin: round; stroke-linecap: butt}</style>
 </defs>
 <g id="figure_1">
  <g id="patch_1">
   <path d="M 0 750.900619 
L 851.4 750.900619 
L 851.4 0 
L 0 0 
z
" style="fill: #ffffff"/>
  </g>
  <g id="axes_1">
   <g id="PatchCollection_1">
    <path d="M 770.230943 57.708044 
L 772.551251 59.260011 
L 776.0153 60.115582 
L 781.040458 61.635017 
L 784.979856 62.693537 
L 786.133552 63.577362 
L 787.368233 63.859403 
L 787.631501 65.284526 
L 788.783718 65.85348 
L 788.202027 66.983034 
L 792.298147 68.528136 
L 793.911318 68.755757 
L 793.713632 74.037915 
L 796.967618 74.841555 
L 798.059433 72.853347 
L 798.323507 70.394873 
L 799.269294 71.430512 
L 802.149903 72.511914 
L 803.590275 72.113477 
L 804.885762 68.787692 
L 803.475726 68.251965 
L 803.647852 66.991689 
L 805.664332 65.682764 
L 806.154545 64.41622 
L 799.608232 61.231406 
L 799.77074 59.54414 
L 797.428572 58.834513 
L 796.716727 61.234689 
L 788.778337 60.002766 
L 788.056402 61.532746 
L 782.216015 59.89572 
L 781.178818 60.163335 
L 780.141823 59.821902 
L 780.314622 59.082231 
L 780.48056 57.699687 
L 779.081152 55.528625 
L 774.243254 53.618811 
L 774.265316 52.766921 
L 773.343476 52.198066 
L 773.321682 49.987707 
L 771.096619 49.126067 
L 771.269418 48.215879 
L 770.12191 47.577981 
L 769.137784 49.182973 
L 769.195361 49.97935 
L 768.622817 50.343565 
L 759.170739 46.736934 
L 758.767429 47.021362 
L 757.327125 46.452506 
L 756.520573 45.599223 
L 754.232955 44.878156 
L 753.082824 47.378513 
L 754.949913 49.063889 
L 753.467098 51.970543 
L 753.006144 52.880732 
L 752.314814 52.710115 
L 752.076837 53.40084 
L 753.634179 54.879983 
L 755.253067 53.563398 
L 756.549227 51.441979 
L 761.766287 52.276161 
L 763.591202 53.880954 
L 765.542706 54.815218 
L 766.379728 53.950693 
L 770.478001 55.739733 
L 769.406701 56.612813 
L 770.629141 57.066664 
L 770.230943 57.708044 
" clip-path="url(#pb74f6991ad)" style="fill: #fbd6c9"/>
    <path d="M 769.488897 40.724357 
L 769.269888 40.677301 
L 768.624028 42.615568 
L 768.231952 44.926605 
L 775.211775 48.254877 
L 776.614816 45.774019 
L 777.687595 42.595074 
L 769.488897 40.724357 
" clip-path="url(#pb74f6991ad)" style="fill: #fbd6c9"/>
   </g>
   <g id="PatchCollection_2">
    <path d="M 58.092326 709.345549 
L 58.091519 709.449511 
L 57.543055 709.444935 
L 57.54393 709.341073 
L 58.092326 709.345549 
" clip-path="url(#pb74f6991ad)" style="fill: #e6482f"/>
    <path d="M 53.091113 706.954128 
L 53.071203 706.895531 
L 53.152928 706.867775 
L 53.172636 706.925775 
L 53.151381 706.932938 
L 53.157704 706.951442 
L 53.145193 706.95562 
L 53.139139 706.937713 
L 53.091113 706.954128 
" clip-path="url(#pb74f6991ad)" style="fill: #e6482f"/>
    <path d="M 53.597066 706.720637 
L 53.696414 706.700342 
L 53.705225 706.743717 
L 53.605945 706.764012 
L 53.597066 706.720637 
" clip-path="url(#pb74f6991ad)" style="fill: #e6482f"/>
    <path d="M 52.951004 706.720537 
L 53.014164 706.699049 
L 53.028155 706.740335 
L 52.964995 706.761824 
L 52.951004 706.720537 
" clip-path="url(#pb74f6991ad)" style="fill: #e6482f"/>
    <path d="M 53.868876 706.682832 
L 53.874863 706.754064 
L 53.754126 706.764211 
L 53.748139 706.69298 
L 53.868876 706.682832 
" clip-path="url(#pb74f6991ad)" style="fill: #e6482f"/>
    <path d="M 53.041742 706.573299 
L 53.061652 706.630503 
L 52.990555 706.655275 
L 52.970645 706.598171 
L 53.041742 706.573299 
" clip-path="url(#pb74f6991ad)" style="fill: #e6482f"/>
    <path d="M 49.539219 701.966745 
L 49.581393 702.070209 
L 49.525833 702.092892 
L 49.483659 701.989427 
L 49.539219 701.966745 
" clip-path="url(#pb74f6991ad)" style="fill: #e6482f"/>
    <path d="M 49.378527 702.00435 
L 49.283148 701.77056 
L 49.367967 701.735939 
L 49.463346 701.969829 
L 49.378527 702.00435 
" clip-path="url(#pb74f6991ad)" style="fill: #e6482f"/>
    <path d="M 53.374493 706.633886 
L 53.304001 706.653783 
L 53.283284 706.580363 
L 53.353776 706.560466 
L 53.374493 706.633886 
" clip-path="url(#pb74f6991ad)" style="fill: #e6482f"/>
    <path d="M 53.739328 705.269051 
L 53.874997 705.233932 
L 53.89067 705.29432 
L 53.755 705.329438 
L 53.739328 705.269051 
" clip-path="url(#pb74f6991ad)" style="fill: #e6482f"/>
    <path d="M 53.775179 705.137233 
L 53.848563 705.121315 
L 53.861948 705.182598 
L 53.788497 705.198615 
L 53.775179 705.137233 
" clip-path="url(#pb74f6991ad)" style="fill: #e6482f"/>
    <path d="M 55.916096 701.278109 
L 55.658075 701.33402 
L 55.631035 701.220308 
L 55.88724 701.162607 
L 55.916096 701.278109 
" clip-path="url(#pb74f6991ad)" style="fill: #e6482f"/>
    <path d="M 56.39057 700.306339 
L 56.413775 700.424826 
L 56.240102 700.45875 
L 56.273196 700.628074 
L 56.163759 700.649463 
L 56.107459 700.361653 
L 56.39057 700.306339 
" clip-path="url(#pb74f6991ad)" style="fill: #e6482f"/>
   </g>
   <g id="LineCollection_1">
    <path d="M 58.673354 710.223318 
L 58.688479 710.216143 
L 58.975356 710.15108 
L 59.173176 710.14322 
L 59.786952 710.118648 
" clip-path="url(#pb74f6991ad)" style="fill: none; stroke: #e6482f; stroke-width: 0.2"/>
    <path d="M 63.051297 709.957581 
L 62.699578 709.922861 
L 61.376244 709.91719 
L 61.129187 709.887544 
L 60.938564 709.894607 
L 60.794553 709.914405 
L 59.912129 709.957581 
L 59.786952 710.118648 
" clip-path="url(#pb74f6991ad)" style="fill: none; stroke: #e6482f; stroke-width: 0.2"/>
    <path d="M 59.786952 710.118648 
L 61.770272 710.055574 
L 63.051297 709.957581 
L 63.143986 709.92694 
L 63.260284 709.873715 
L 63.346239 709.799067 
" clip-path="url(#pb74f6991ad)" style="fill: none; stroke: #e6482f; stroke-width: 0.2"/>
    <path d="M 63.349425 708.591053 
L 63.284027 708.529673 
" clip-path="url(#pb74f6991ad)" style="fill: none; stroke: #e6482f; stroke-width: 0.2"/>
    <path d="M 53.598567 708.596433 
L 53.686728 708.490177 
L 54.868742 708.521117 
L 56.742826 708.523007 
L 63.284027 708.529673 
" clip-path="url(#pb74f6991ad)" style="fill: none; stroke: #e6482f; stroke-width: 0.2"/>
    <path d="M 63.37907 707.147527 
L 62.505726 707.134196 
L 60.85926 707.035905 
L 59.173984 707.007154 
L 58.095151 707.068735 
L 57.697357 707.02327 
L 56.399314 706.75665 
" clip-path="url(#pb74f6991ad)" style="fill: none; stroke: #e6482f; stroke-width: 0.2"/>
    <path d="M 63.709803 705.835121 
L 56.292164 706.111788 
" clip-path="url(#pb74f6991ad)" style="fill: none; stroke: #e6482f; stroke-width: 0.2"/>
    <path d="M 63.585501 704.944033 
L 63.673817 704.94851 
L 63.957398 705.032376 
L 64.069257 705.18419 
L 64.11318 705.375898 
L 64.133157 705.59954 
L 64.109144 705.703402 
L 64.005357 705.791248 
L 63.709803 705.835121 
" clip-path="url(#pb74f6991ad)" style="fill: none; stroke: #e6482f; stroke-width: 0.2"/>
    <path d="M 51.753573 705.797864 
L 52.508077 705.626202 
L 53.952686 705.327448 
L 54.885154 705.235524 
L 56.177077 705.234231 
L 57.218309 705.219308 
L 61.052574 705.033271 
L 63.276965 704.928513 
L 63.585501 704.944033 
" clip-path="url(#pb74f6991ad)" style="fill: none; stroke: #e6482f; stroke-width: 0.2"/>
    <path d="M 46.328213 705.170759 
L 46.16167 705.331129 
L 45.835511 705.704994 
L 45.797801 705.747955 
" clip-path="url(#pb74f6991ad)" style="fill: none; stroke: #e6482f; stroke-width: 0.2"/>
    <path d="M 47.468322 705.076761 
L 47.290681 705.066499 
L 46.541975 705.12042 
L 46.328213 705.170759 
" clip-path="url(#pb74f6991ad)" style="fill: none; stroke: #e6482f; stroke-width: 0.2"/>
    <path d="M 49.903919 704.809629 
L 49.083424 705.094305 
" clip-path="url(#pb74f6991ad)" style="fill: none; stroke: #e6482f; stroke-width: 0.2"/>
    <path d="M 45.75998 705.575533 
L 45.835511 705.704994 
L 45.864827 705.741972 
" clip-path="url(#pb74f6991ad)" style="fill: none; stroke: #e6482f; stroke-width: 0.2"/>
    <path d="M 46.178889 704.067968 
L 47.181782 704.049563 
L 47.653296 704.025388 
L 48.107927 703.973059 
L 48.368975 703.911279 
L 48.984769 703.864819 
L 49.724932 703.771701 
" clip-path="url(#pb74f6991ad)" style="fill: none; stroke: #e6482f; stroke-width: 0.2"/>
    <path d="M 48.258395 703.338743 
L 49.111089 703.072521 
L 49.375433 703.117985 
" clip-path="url(#pb74f6991ad)" style="fill: none; stroke: #e6482f; stroke-width: 0.2"/>
    <path d="M 48.368975 703.911279 
L 48.258395 703.338743 
L 48.178621 702.83117 
L 48.119766 702.19954 
L 48.114385 701.902875 
" clip-path="url(#pb74f6991ad)" style="fill: none; stroke: #e6482f; stroke-width: 0.2"/>
    <path d="M 46.864165 701.761706 
L 46.904389 702.481381 
L 47.181782 704.049563 
" clip-path="url(#pb74f6991ad)" style="fill: none; stroke: #e6482f; stroke-width: 0.2"/>
    <path d="M 52.800739 706.875237 
L 52.731323 706.618565 
L 52.508077 705.626202 
L 52.169071 704.167851 
L 51.862418 703.069337 
L 51.589599 702.350458 
L 50.766501 700.287338 
L 50.724125 700.144278 
L 49.843248 697.592189 
" clip-path="url(#pb74f6991ad)" style="fill: none; stroke: #e6482f; stroke-width: 0.2"/>
    <path d="M 49.02701 701.999475 
L 48.874727 701.995794 
L 48.679865 701.988532 
L 48.114385 701.902875 
L 47.419288 701.821496 
L 46.864165 701.761706 
L 45.718002 701.591984 
" clip-path="url(#pb74f6991ad)" style="fill: none; stroke: #e6482f; stroke-width: 0.2"/>
    <path d="M 55.091217 709.943772 
L 55.438259 709.833921 
L 57.452049 709.627589 
L 58.002261 709.627589 
" clip-path="url(#pb74f6991ad)" style="fill: none; stroke: #e6482f; stroke-width: 0.2"/>
    <path d="M 56.366288 706.618963 
L 54.889728 706.561958 
L 54.352296 706.571111 
L 53.847016 706.581557 
L 53.554623 706.637766 
L 52.800739 706.875237 
L 52.225799 707.124837 
" clip-path="url(#pb74f6991ad)" style="fill: none; stroke: #e6482f; stroke-width: 0.2"/>
    <path d="M 52.975286 702.040761 
L 53.952686 705.327448 
L 54.352296 706.571111 
L 54.686392 707.575313 
L 54.823609 708.047767 
L 54.868742 708.521117 
" clip-path="url(#pb74f6991ad)" style="fill: none; stroke: #e6482f; stroke-width: 0.2"/>
    <path d="M 55.878159 701.397292 
L 55.926185 702.092494 
L 55.93345 702.647222 
L 56.030241 703.773592 
L 56.077258 704.525898 
L 56.177077 705.234231 
L 56.292164 706.111788 
L 56.366288 706.618963 
L 56.399314 706.75665 
L 56.742826 708.523007 
" clip-path="url(#pb74f6991ad)" style="fill: none; stroke: #e6482f; stroke-width: 0.2"/>
    <path d="M 57.061923 702.516996 
L 57.168131 703.67341 
L 57.196651 704.439942 
L 57.218309 705.219308 
" clip-path="url(#pb74f6991ad)" style="fill: none; stroke: #e6482f; stroke-width: 0.2"/>
    <path d="M 54.885154 705.235524 
L 54.618187 703.928589 
L 54.389358 702.814258 
L 54.087212 701.806375 
" clip-path="url(#pb74f6991ad)" style="fill: none; stroke: #e6482f; stroke-width: 0.2"/>
    <path d="M 55.146673 702.737555 
L 55.26129 703.857358 
" clip-path="url(#pb74f6991ad)" style="fill: none; stroke: #e6482f; stroke-width: 0.2"/>
    <path d="M 49.04283 698.061953 
L 49.094677 698.309575 
L 49.310457 698.94996 
L 49.901229 700.63653 
L 50.345972 701.686396 
L 50.645226 702.557487 
L 50.88448 703.342225 
L 51.406621 704.936011 
" clip-path="url(#pb74f6991ad)" style="fill: none; stroke: #e6482f; stroke-width: 0.5"/>
    <path d="M 50.645226 702.557487 
L 50.727892 702.537192 
L 51.185214 702.444372 
L 51.589599 702.350458 
L 52.317521 702.202823 
L 52.975286 702.040761 
L 53.955175 701.844676 
L 54.087212 701.806375 
L 54.441891 701.712859 
L 55.232568 701.521847 
L 55.878159 701.397292 
" clip-path="url(#pb74f6991ad)" style="fill: none; stroke: #e6482f; stroke-width: 0.2"/>
    <path d="M 56.556642 701.270847 
L 56.735158 702.556293 
" clip-path="url(#pb74f6991ad)" style="fill: none; stroke: #e6482f; stroke-width: 0.2"/>
    <path d="M 63.273736 704.193717 
L 63.193088 704.149745 
L 61.028494 704.245549 
L 59.227525 704.327027 
L 57.196651 704.439942 
L 56.077258 704.525898 
" clip-path="url(#pb74f6991ad)" style="fill: none; stroke: #e6482f; stroke-width: 0.2"/>
    <path d="M 61.052574 705.033271 
L 61.028494 704.245549 
L 60.958742 703.284523 
L 60.89686 702.8253 
L 60.777065 702.346081 
L 60.764688 702.141739 
" clip-path="url(#pb74f6991ad)" style="fill: none; stroke: #e6482f; stroke-width: 0.2"/>
    <path d="M 62.2923 702.097766 
L 62.368173 702.49312 
L 62.430123 702.578975 
L 62.896256 702.816048 
L 63.23163 703.057996 
L 63.328892 703.304321 
L 63.348802 703.444097 
L 63.402747 703.643764 
L 63.448688 703.87447 
L 63.435706 704.027179 
L 63.338847 704.119004 
L 63.273736 704.193717 
L 63.380819 704.35339 
L 63.412769 704.776799 
L 63.276965 704.928513 
" clip-path="url(#pb74f6991ad)" style="fill: none; stroke: #e6482f; stroke-width: 0.2"/>
    <path d="M 63.23163 703.057996 
L 62.464427 703.1345 
L 60.958742 703.284523 
L 59.224969 703.424001 
L 57.168131 703.67341 
L 56.030241 703.773592 
L 55.26129 703.857358 
L 54.618187 703.928589 
" clip-path="url(#pb74f6991ad)" style="fill: none; stroke: #e6482f; stroke-width: 0.2"/>
    <path d="M 59.158648 702.297632 
L 59.224969 703.424001 
" clip-path="url(#pb74f6991ad)" style="fill: none; stroke: #e6482f; stroke-width: 0.2"/>
    <path d="M 54.389358 702.814258 
L 55.146673 702.737555 
L 55.93345 702.647222 
L 56.735158 702.556293 
L 57.061923 702.516996 
L 57.495231 702.458798 
L 58.33676 702.37135 
L 59.158648 702.297632 
L 59.925985 702.197649 
L 60.764688 702.141739 
L 61.591419 702.101746 
L 61.847019 702.025938 
L 62.146541 702.001962 
L 62.252346 702.045835 
L 62.2923 702.097766 
" clip-path="url(#pb74f6991ad)" style="fill: none; stroke: #e6482f; stroke-width: 0.2"/>
    <path d="M 58.33676 702.37135 
L 58.154342 700.924937 
" clip-path="url(#pb74f6991ad)" style="fill: none; stroke: #e6482f; stroke-width: 0.2"/>
    <path d="M 58.888048 700.776705 
L 59.085533 701.105702 
L 59.158648 702.297632 
" clip-path="url(#pb74f6991ad)" style="fill: none; stroke: #e6482f; stroke-width: 0.2"/>
    <path d="M 59.65478 700.565 
L 59.766639 700.620911 
L 59.810561 700.772626 
L 59.925985 702.197649 
" clip-path="url(#pb74f6991ad)" style="fill: none; stroke: #e6482f; stroke-width: 0.2"/>
    <path d="M 60.764688 702.141739 
L 60.701327 701.759119 
L 60.637225 701.371625 
L 60.537406 700.592956 
L 60.509425 700.493073 
L 60.461534 700.433183 
" clip-path="url(#pb74f6991ad)" style="fill: none; stroke: #e6482f; stroke-width: 0.2"/>
    <path d="M 60.461534 700.433183 
L 60.361715 700.413186 
L 60.193961 700.401248 
L 59.882466 700.469097 
L 59.65478 700.565 
L 58.888048 700.776705 
" clip-path="url(#pb74f6991ad)" style="fill: none; stroke: #e6482f; stroke-width: 0.2"/>
    <path d="M 45.245455 701.510007 
L 45.345096 701.527817 
L 45.718002 701.591984 
" clip-path="url(#pb74f6991ad)" style="fill: none; stroke: #e6482f; stroke-width: 0.2"/>
    <path d="M 46.328213 705.170759 
L 46.178889 704.067968 
L 45.86356 702.420297 
L 45.847484 701.875815 
L 45.834771 701.754046 
L 45.804032 701.67018 
L 45.718002 701.591984 
L 45.725065 701.234236 
L 45.658206 699.637501 
L 45.669573 699.420027 
L 45.694864 699.018406 
L 46.000373 696.194325 
L 45.982817 695.855379 
" clip-path="url(#pb74f6991ad)" style="fill: none; stroke: #e6482f; stroke-width: 0.2"/>
    <path d="M 50.766501 700.287338 
L 50.337901 700.454871 
L 49.988603 700.599323 
L 49.901229 700.63653 
" clip-path="url(#pb74f6991ad)" style="fill: none; stroke: #e6482f; stroke-width: 0.2"/>
    <path d="M 47.115124 695.650838 
L 47.188912 695.730525 
L 47.227521 695.938051 
L 48.160191 699.200862 
L 49.02701 701.999475 
L 49.375433 703.117985 
L 49.605675 703.17111 
L 49.794146 703.635606 
L 49.724932 703.771701 
L 49.96264 704.318272 
L 50.012953 704.422533 
L 49.964254 704.660103 
L 49.95181 704.772222 
L 49.903919 704.809629 
" clip-path="url(#pb74f6991ad)" style="fill: none; stroke: #e6482f; stroke-width: 0.2"/>
    <path d="M 47.273394 700.896982 
L 46.987526 700.929414 
L 46.786342 700.938666 
L 46.700447 700.901956 
L 46.646973 700.816698 
L 46.463143 700.085881 
L 46.346509 699.405602 
" clip-path="url(#pb74f6991ad)" style="fill: none; stroke: #e6482f; stroke-width: 0.2"/>
    <path d="M 51.529802 699.851394 
L 50.724125 700.144278 
" clip-path="url(#pb74f6991ad)" style="fill: none; stroke: #e6482f; stroke-width: 0.2"/>
    <path d="M 52.317521 702.202823 
L 51.621011 700.045888 
L 51.529802 699.851394 
L 50.690426 697.502951 
" clip-path="url(#pb74f6991ad)" style="fill: none; stroke: #e6482f; stroke-width: 0.2"/>
    <path d="M 45.669573 699.420027 
L 46.346509 699.405602 
L 46.960217 699.35387 
L 48.160191 699.200862 
" clip-path="url(#pb74f6991ad)" style="fill: none; stroke: #e6482f; stroke-width: 0.2"/>
    <path d="M 47.419288 701.821496 
L 47.273394 700.896982 
L 46.960217 699.35387 
L 46.684506 697.875522 
L 46.374154 696.393494 
L 46.290546 696.261576 
L 46.173037 696.201985 
L 46.000373 696.194325 
" clip-path="url(#pb74f6991ad)" style="fill: none; stroke: #e6482f; stroke-width: 0.2"/>
    <path d="M 51.482517 697.562642 
L 51.505117 697.773152 
L 51.887306 698.906187 
L 52.244002 699.849106 
" clip-path="url(#pb74f6991ad)" style="fill: none; stroke: #e6482f; stroke-width: 0.2"/>
    <path d="M 57.364539 701.07705 
L 57.476532 701.991516 
L 57.495231 702.458798 
" clip-path="url(#pb74f6991ad)" style="fill: none; stroke: #e6482f; stroke-width: 0.2"/>
    <path d="M 55.878159 701.397292 
L 56.045039 701.347251 
L 56.556642 701.270847 
L 57.364539 701.07705 
L 58.154342 700.924937 
L 58.771212 700.801974 
L 58.888048 700.776705 
" clip-path="url(#pb74f6991ad)" style="fill: none; stroke: #e6482f; stroke-width: 0.2"/>
    <path d="M 52.244002 699.849106 
L 51.621011 700.045888 
" clip-path="url(#pb74f6991ad)" style="fill: none; stroke: #e6482f; stroke-width: 0.2"/>
    <path d="M 52.910108 699.609546 
L 52.244002 699.849106 
" clip-path="url(#pb74f6991ad)" style="fill: none; stroke: #e6482f; stroke-width: 0.2"/>
    <path d="M 55.492271 699.941329 
L 55.374964 699.262244 
" clip-path="url(#pb74f6991ad)" style="fill: none; stroke: #e6482f; stroke-width: 0.2"/>
    <path d="M 52.851522 697.474796 
L 53.215416 698.418312 
L 54.441891 701.712859 
" clip-path="url(#pb74f6991ad)" style="fill: none; stroke: #e6482f; stroke-width: 0.2"/>
    <path d="M 55.799663 699.860149 
L 55.492271 699.941329 
L 55.294585 699.980824 
L 55.19295 699.963912 
L 54.986789 699.351084 
L 55.238084 699.273187 
L 55.374964 699.262244 
L 55.665003 699.193102 
" clip-path="url(#pb74f6991ad)" style="fill: none; stroke: #e6482f; stroke-width: 0.2"/>
    <path d="M 55.232568 701.521847 
L 53.925377 698.177061 
L 53.637155 697.302488 
" clip-path="url(#pb74f6991ad)" style="fill: none; stroke: #e6482f; stroke-width: 0.2"/>
    <path d="M 56.045039 701.347251 
L 55.799663 699.860149 
L 55.731459 699.456538 
L 55.665003 699.193102 
L 55.618053 698.95593 
L 55.546418 698.795759 
L 55.523683 698.652998 
L 55.509894 698.49412 
L 55.455949 698.124931 
L 55.287253 697.11854 
" clip-path="url(#pb74f6991ad)" style="fill: none; stroke: #e6482f; stroke-width: 0.2"/>
    <path d="M 52.110014 697.578261 
L 52.576618 698.673094 
L 52.910108 699.609546 
" clip-path="url(#pb74f6991ad)" style="fill: none; stroke: #e6482f; stroke-width: 0.2"/>
    <path d="M 51.887306 698.906187 
L 52.576618 698.673094 
L 53.215416 698.418312 
L 53.925377 698.177061 
" clip-path="url(#pb74f6991ad)" style="fill: none; stroke: #e6482f; stroke-width: 0.2"/>
    <path d="M 54.495298 697.188081 
L 54.774372 698.659464 
L 54.826434 698.790486 
L 55.006564 698.904993 
L 55.224026 699.012238 
L 55.311535 699.012238 
L 55.618053 698.95593 
" clip-path="url(#pb74f6991ad)" style="fill: none; stroke: #e6482f; stroke-width: 0.2"/>
    <path d="M 55.287253 697.11854 
L 55.110015 697.098047 
L 54.495298 697.188081 
L 53.637155 697.302488 
L 52.851522 697.474796 
L 52.110014 697.578261 
L 51.796097 697.612086 
L 51.482517 697.562642 
L 51.405029 697.497678 
L 50.690426 697.502951 
L 49.843248 697.592189 
L 49.577559 697.606813 
L 49.0625 697.637014 
" clip-path="url(#pb74f6991ad)" style="fill: none; stroke: #e6482f; stroke-width: 0.2"/>
    <path d="M 45.982817 695.855379 
L 46.288662 695.786535 
L 46.595651 695.668546 
L 46.787486 695.674416 
L 47.002996 695.641984 
L 47.115124 695.650838 
" clip-path="url(#pb74f6991ad)" style="fill: none; stroke: #e6482f; stroke-width: 0.2"/>
    <path d="M 45.982817 695.855379 
L 45.963457 695.761509 
" clip-path="url(#pb74f6991ad)" style="fill: none; stroke: #e6482f; stroke-width: 0.2"/>
   </g>
   <g id="LineCollection_2">
    <path d="M 47.245162 695.456928 
L 47.432606 695.987097 
L 47.56572 696.335494 
L 47.681479 696.677026 
L 47.917707 697.331041 
L 48.084385 697.770864 
L 48.297407 698.346186 
L 48.458368 698.772181 
L 48.695672 699.399633 
L 48.914479 699.966896 
L 49.111291 700.477354 
L 49.306959 700.987911 
L 49.609441 701.783991 
L 49.802486 702.282212 
L 49.914816 702.568132 
L 50.137053 703.019595 
L 50.452719 703.840247 
L 50.5494 704.084239 
" clip-path="url(#pb74f6991ad)" style="fill: none; stroke-dasharray: 3.7,1.6; stroke-dashoffset: 0; stroke: #e6482f"/>
    <path d="M 50.590879 704.061446 
L 50.445051 703.672614 
L 50.31187 703.329888 
L 50.253687 703.179069 
L 50.21232 703.071725 
L 50.065283 702.681544 
L 49.942595 702.360904 
L 49.822194 702.028624 
L 49.545474 701.30507 
L 49.26761 700.57465 
L 49.067301 700.038625 
L 48.716524 699.128735 
L 48.496573 698.530233 
L 48.472896 698.47032 
" clip-path="url(#pb74f6991ad)" style="fill: none; stroke-dasharray: 3.7,1.6; stroke-dashoffset: 0; stroke: #e6482f"/>
    <path d="M 47.921568 697.012224 
L 47.706972 696.431596 
L 47.51016 695.909499 
L 47.3372 695.441926 
" clip-path="url(#pb74f6991ad)" style="fill: none; stroke-dasharray: 3.7,1.6; stroke-dashoffset: 0; stroke: #e6482f"/>
    <path d="M 50.229674 703.384307 
L 50.298013 703.674903 
L 50.323439 703.873972 
L 50.329224 704.016435 
L 50.326937 704.157703 
L 50.294516 704.361449 
L 50.257454 704.496848 
L 50.214607 704.628865 
L 50.175326 704.712367 
" clip-path="url(#pb74f6991ad)" style="fill: none; stroke-dasharray: 3.7,1.6; stroke-dashoffset: 0; stroke: #e6482f"/>
    <path d="M 49.927528 702.708206 
L 50.08035 703.089135 
" clip-path="url(#pb74f6991ad)" style="fill: none; stroke-dasharray: 3.7,1.6; stroke-dashoffset: 0; stroke: #e6482f"/>
    <path d="M 50.116201 703.084459 
L 50.015509 702.87952 
L 49.927528 702.708206 
L 49.804773 702.425768 
" clip-path="url(#pb74f6991ad)" style="fill: none; stroke-dasharray: 3.7,1.6; stroke-dashoffset: 0; stroke: #e6482f"/>
    <path d="M 49.639844 701.308054 
L 49.783249 701.572784 
" clip-path="url(#pb74f6991ad)" style="fill: none; stroke-dasharray: 3.7,1.6; stroke-dashoffset: 0; stroke: #e6482f"/>
    <path d="M 47.294359 695.448909 
L 47.345769 695.593534 
L 47.489309 696.002119 
L 47.65491 696.451294 
L 47.837799 696.961752 
L 47.910712 697.156245 
L 48.071672 697.591492 
L 48.290479 698.161044 
L 48.456014 698.624047 
L 48.618118 699.060488 
L 48.898269 699.804835 
L 49.209697 700.617429 
L 49.482919 701.325961 
L 49.651952 701.763596 
L 49.892753 702.367868 
L 50.037504 702.737157 
L 50.095417 702.901506 
L 50.137053 703.019595 
" clip-path="url(#pb74f6991ad)" style="fill: none; stroke-dasharray: 3.7,1.6; stroke-dashoffset: 0; stroke: #e6482f"/>
    <path d="M 48.579622 698.393849 
L 48.59841 698.443482 
L 48.738519 698.820829 
L 48.897125 699.226031 
L 49.014096 699.541996 
L 49.172702 699.959932 
L 49.334739 700.383639 
L 49.502627 700.838584 
L 49.709865 701.366452 
L 49.783249 701.572784 
L 50.081494 702.355134 
L 50.162747 702.56455 
L 50.262095 702.820525 
L 50.309583 702.968658 
" clip-path="url(#pb74f6991ad)" style="fill: none; stroke-dasharray: 3.7,1.6; stroke-dashoffset: 0; stroke: #e6482f"/>
    <path d="M 49.942595 702.205807 
L 50.03979 702.408359 
L 50.072144 702.480784 
L 50.117412 702.582059 
L 50.226244 702.813561 
L 50.309583 702.968658 
L 50.379066 703.140071 
L 50.461261 703.354163 
L 50.5446 703.577606 
L 50.614083 703.782545 
L 50.699208 704.00192 
" clip-path="url(#pb74f6991ad)" style="fill: none; stroke-dasharray: 3.7,1.6; stroke-dashoffset: 0; stroke: #e6482f"/>
    <path d="M 50.162747 702.56455 
L 50.344291 702.911952 
L 50.505251 703.348393 
L 50.649934 703.738573 
L 50.74142 703.978725 
" clip-path="url(#pb74f6991ad)" style="fill: none; stroke-dasharray: 3.7,1.6; stroke-dashoffset: 0; stroke: #e6482f"/>
    <path d="M 49.914816 702.568132 
L 50.116201 703.084459 
L 50.229674 703.384307 
L 50.389424 703.799955 
L 50.505981 704.108097 
" clip-path="url(#pb74f6991ad)" style="fill: none; stroke-dasharray: 3.7,1.6; stroke-dashoffset: 0; stroke: #e6482f"/>
    <path d="M 50.344291 702.911952 
L 50.531887 703.27547 
L 50.644149 703.579994 
L 50.781281 703.956821 
" clip-path="url(#pb74f6991ad)" style="fill: none; stroke-dasharray: 3.7,1.6; stroke-dashoffset: 0; stroke: #e6482f"/>
    <path d="M 50.531887 703.27547 
L 50.644149 703.490855 
L 50.779617 703.820748 
L 50.824096 703.933295 
" clip-path="url(#pb74f6991ad)" style="fill: none; stroke-dasharray: 3.7,1.6; stroke-dashoffset: 0; stroke: #e6482f"/>
    <path d="M 50.649934 703.738573 
L 50.711278 703.977039 
L 50.716334 703.992509 
" clip-path="url(#pb74f6991ad)" style="fill: none; stroke-dasharray: 3.7,1.6; stroke-dashoffset: 0; stroke: #e6482f"/>
    <path d="M 50.452719 703.840247 
L 50.581333 704.066691 
" clip-path="url(#pb74f6991ad)" style="fill: none; stroke-dasharray: 3.7,1.6; stroke-dashoffset: 0; stroke: #e6482f"/>
    <path d="M 50.253687 703.179069 
L 50.174115 702.848281 
L 50.140349 702.756656 
L 50.084991 702.606334 
L 49.942595 702.205807 
" clip-path="url(#pb74f6991ad)" style="fill: none; stroke-dasharray: 3.7,1.6; stroke-dashoffset: 0; stroke: #e6482f"/>
    <path d="M 49.942595 702.205807 
L 49.838405 701.94645 
L 49.695942 701.555175 
L 49.49913 701.036559 
L 49.304672 700.550277 
L 49.100865 700.013157 
L 48.880915 699.428583 
L 48.723452 699.009552 
L 48.541707 698.519887 
L 48.511181 698.442888 
" clip-path="url(#pb74f6991ad)" style="fill: none; stroke-dasharray: 3.7,1.6; stroke-dashoffset: 0; stroke: #e6482f"/>
    <path d="M 50.140349 702.756656 
L 50.072144 702.480784 
L 50.001585 702.259032 
L 49.639844 701.308054 
L 49.580182 701.133756 
L 49.306959 700.44154 
L 49.09508 699.870794 
L 48.892484 699.327904 
L 48.667893 698.742136 
L 48.544837 698.418774 
" clip-path="url(#pb74f6991ad)" style="fill: none; stroke-dasharray: 3.7,1.6; stroke-dashoffset: 0; stroke: #e6482f"/>
   </g>
  </g>
 </g>
 <defs>
  <clipPath id="pb74f6991ad">
   <rect x="7.2" y="7.2" width="837" height="736.500619"/>
  </clipPath>
 </defs>
</svg>
