<?xml version="1.0" encoding="utf-8" standalone="no"?>
<!DOCTYPE svg PUBLIC "-//W3C//DTD SVG 1.1//EN"
  "http://www.w3.org/Graphics/SVG/1.1/DTD/svg11.dtd">
<svg xmlns:xlink="http://www.w3.org/1999/xlink" width="572.548436pt" height="846pt" viewBox="0 0 572.548436 846" xmlns="http://www.w3.org/2000/svg" version="1.1">
 <metadata>
  <rdf:RDF xmlns:dc="http://purl.org/dc/elements/1.1/" xmlns:cc="http://creativecommons.org/ns#" xmlns:rdf="http://www.w3.org/1999/02/22-rdf-syntax-ns#">
   <cc:Work>
    <dc:type rdf:resource="http://purl.org/dc/dcmitype/StillImage"/>
    <dc:date>2025-03-16T14:38:39.266395</dc:date>
    <dc:format>image/svg+xml</dc:format>
    <dc:creator>
     <cc:Agent>
      <dc:title>Matplotlib v3.10.1, https://matplotlib.org/</dc:title>
     </cc:Agent>
    </dc:creator>
   </cc:Work>
  </rdf:RDF>
 </metadata>
 <defs>
  <style type="text/css">*{stroke-linejoin: round; stroke-linecap: butt}</style>
 </defs>
 <g id="figure_1">
  <g id="patch_1">
   <path d="M 0 846 
L 572.548436 846 
L 572.548436 0 
L 0 0 
z
" style="fill: #ffffff"/>
  </g>
  <g id="axes_1">
   <g id="PatchCollection_1">
    <path d="M 32.570383 331.175264 
L 70.882302 457.789185 
L 54.648408 462.494423 
L 85.006796 514.604262 
L 99.617124 517.852221 
L 108.545854 517.526887 
L 163.091666 558.112926 
L 99.779657 610.064131 
L 118.12295 637.338379 
L 94.421359 660.555367 
L 128.351946 801 
L 178.677193 798.077375 
L 185.169691 789.960167 
L 182.247625 763.979187 
L 185.819824 750.01673 
L 182.572692 733.454292 
L 188.416823 711.374627 
L 188.091756 701.956084 
L 199.320685 683.124378 
L 199.320685 666.887273 
L 210.685648 652.599482 
L 213.93278 638.311691 
L 221.400477 621.499203 
L 227.597941 611.628958 
L 236.321738 603.132643 
L 257.214329 599.916949 
L 348.817727 628.618901 
L 405.755605 644.232225 
L 494.656004 665.634336 
L 503.8197 658.151663 
L 508.066765 646.095499 
L 485.796174 606.719379 
L 490.387739 597.077674 
L 497.390803 578.36427 
L 519.848661 583.854611 
L 538.354487 534.178052 
L 539.978053 518.594304 
L 533.808855 504.631846 
L 518.550161 490.346744 
L 509.133831 484.826827 
L 444.846623 462.101872 
L 343.871062 339.706533 
L 332.329434 321.576578 
L 323.60387 306.885481 
L 324.29287 286.685222 
L 330.951434 263.960267 
L 367.22462 194.411472 
L 324.752203 155.624178 
L 296.054481 131.522605 
L 269.194091 122.343358 
L 238.42937 94.802928 
L 215.930879 82.636527 
L 152.795537 74.833898 
L 97.235658 45 
L 82.312631 54.179247 
L 97.235658 99.392551 
L 102.975556 130.145987 
L 108.256121 145.294165 
L 111.24002 164.803426 
L 113.307019 176.050289 
L 108.92392 211.062637 
L 116.615984 222.193886 
L 123.274548 262.4761 
L 122.470715 282.447819 
L 102.230023 292.850428 
L 32.570383 331.175264 
" clip-path="url(#pe62ef29743)" style="fill: #fbd6c9"/>
   </g>
   <g id="PatchCollection_2">
    <path d="M 358.930123 614.331109 
L 359.417723 621.65246 
L 357.714657 621.765385 
L 357.794157 622.964549 
L 356.467391 623.053276 
L 355.902058 614.532762 
L 358.930123 614.331109 
" clip-path="url(#pe62ef29743)" style="fill: #e6482f"/>
    <path d="M 345.782595 611.255228 
L 346.204828 612.941048 
L 343.641396 613.583649 
L 343.220929 611.897829 
L 345.782595 611.255228 
" clip-path="url(#pe62ef29743)" style="fill: #e6482f"/>
    <path d="M 342.715663 604.471619 
L 343.501829 606.2381 
L 341.436597 607.157638 
L 340.65043 605.391157 
L 342.715663 604.471619 
" clip-path="url(#pe62ef29743)" style="fill: #e6482f"/>
    <path d="M 340.685764 600.890261 
L 341.29703 602.355606 
L 339.982631 602.904103 
L 339.371364 601.438757 
L 340.685764 600.890261 
" clip-path="url(#pe62ef29743)" style="fill: #e6482f"/>
    <path d="M 333.175667 599.320056 
L 334.0113 601.554372 
L 331.8277 602.371739 
L 330.992067 600.137423 
L 333.175667 599.320056 
" clip-path="url(#pe62ef29743)" style="fill: #e6482f"/>
    <path d="M 284.539352 603.065425 
L 278.522088 601.215595 
L 279.635087 597.593906 
L 285.652352 599.441048 
L 284.539352 603.065425 
" clip-path="url(#pe62ef29743)" style="fill: #e6482f"/>
    <path d="M 339.707031 596.677056 
L 340.562097 598.389763 
L 338.581664 599.379207 
L 337.724831 597.666501 
L 339.707031 596.677056 
" clip-path="url(#pe62ef29743)" style="fill: #e6482f"/>
    <path d="M 331.7641 596.287194 
L 332.5856 598.150468 
L 330.665234 598.997411 
L 329.843735 597.136825 
L 331.7641 596.287194 
" clip-path="url(#pe62ef29743)" style="fill: #e6482f"/>
    <path d="M 336.984598 590.078968 
L 337.857331 591.778231 
L 336.166632 592.643995 
L 335.295666 590.944732 
L 336.984598 590.078968 
" clip-path="url(#pe62ef29743)" style="fill: #e6482f"/>
    <path d="M 264.99296 585.08335 
L 261.696361 585.760904 
L 259.989762 577.466242 
L 263.28636 576.788688 
L 264.99296 585.08335 
" clip-path="url(#pe62ef29743)" style="fill: #e6482f"/>
    <path d="M 202.308117 568.437562 
L 201.037885 569.636726 
L 199.493819 567.999303 
L 200.762285 566.800139 
L 202.308117 568.437562 
" clip-path="url(#pe62ef29743)" style="fill: #e6482f"/>
    <path d="M 204.560617 566.025792 
L 203.40345 567.077076 
L 202.166784 565.711213 
L 203.32395 564.662617 
L 204.560617 566.025792 
" clip-path="url(#pe62ef29743)" style="fill: #e6482f"/>
    <path d="M 208.752915 563.323641 
L 207.389049 564.649173 
L 205.611783 562.823541 
L 206.975649 561.49532 
L 208.752915 563.323641 
" clip-path="url(#pe62ef29743)" style="fill: #e6482f"/>
    <path d="M 210.102648 558.255427 
L 211.84458 560.535451 
L 210.569048 561.511452 
L 208.825348 559.231428 
L 210.102648 558.255427 
" clip-path="url(#pe62ef29743)" style="fill: #e6482f"/>
    <path d="M 201.368251 557.306313 
L 202.770984 558.690998 
L 201.166851 560.317666 
L 199.764118 558.932981 
L 201.368251 557.306313 
" clip-path="url(#pe62ef29743)" style="fill: #e6482f"/>
    <path d="M 273.896956 554.999403 
L 274.336856 557.083151 
L 272.441224 557.483768 
L 272.001324 555.40002 
L 273.896956 554.999403 
" clip-path="url(#pe62ef29743)" style="fill: #e6482f"/>
    <path d="M 214.461013 554.493926 
L 215.699446 556.333001 
L 214.473379 557.158435 
L 213.236713 555.319359 
L 214.461013 554.493926 
" clip-path="url(#pe62ef29743)" style="fill: #e6482f"/>
    <path d="M 204.86095 553.663115 
L 206.203616 555.184923 
L 204.875083 556.359888 
L 203.532417 554.83808 
L 204.86095 553.663115 
" clip-path="url(#pe62ef29743)" style="fill: #e6482f"/>
    <path d="M 328.259035 587.435969 
L 328.794335 589.328819 
L 326.628402 589.941844 
L 326.093103 588.048994 
L 328.259035 587.435969 
" clip-path="url(#pe62ef29743)" style="fill: #e6482f"/>
    <path d="M 327.336835 583.929894 
L 328.047035 586.005577 
L 325.870503 586.750349 
L 325.158536 584.674666 
L 327.336835 583.929894 
" clip-path="url(#pe62ef29743)" style="fill: #e6482f"/>
    <path d="M 332.870033 580.138817 
L 333.7463 582.225254 
L 331.665167 583.099084 
L 330.788901 581.012647 
L 332.870033 580.138817 
" clip-path="url(#pe62ef29743)" style="fill: #e6482f"/>
    <path d="M 322.692271 574.562438 
L 323.798204 577.052181 
L 321.755938 577.958275 
L 320.648238 575.468532 
L 322.692271 574.562438 
" clip-path="url(#pe62ef29743)" style="fill: #e6482f"/>
    <path d="M 330.566301 574.382294 
L 331.543267 576.47142 
L 329.324335 577.506572 
L 328.347368 575.420135 
L 330.566301 574.382294 
" clip-path="url(#pe62ef29743)" style="fill: #e6482f"/>
    <path d="M 329.644101 570.986457 
L 330.368434 572.868552 
L 328.333235 573.653655 
L 327.608902 571.771559 
L 329.644101 570.986457 
" clip-path="url(#pe62ef29743)" style="fill: #e6482f"/>
    <path d="M 320.098805 567.961661 
L 320.929138 570.386875 
L 318.936339 571.069807 
L 318.107772 568.641904 
L 320.098805 567.961661 
" clip-path="url(#pe62ef29743)" style="fill: #e6482f"/>
    <path d="M 326.229136 563.786098 
L 327.045336 565.380502 
L 325.19917 566.326927 
L 324.38297 564.732523 
L 326.229136 563.786098 
" clip-path="url(#pe62ef29743)" style="fill: #e6482f"/>
    <path d="M 317.982339 563.856005 
L 318.549439 565.53107 
L 316.756273 566.138717 
L 316.189173 564.463653 
L 317.982339 563.856005 
" clip-path="url(#pe62ef29743)" style="fill: #e6482f"/>
    <path d="M 316.83754 560.021908 
L 317.432906 561.594802 
L 315.341173 562.387971 
L 314.745807 560.817765 
L 316.83754 560.021908 
" clip-path="url(#pe62ef29743)" style="fill: #e6482f"/>
    <path d="M 219.497777 551.208325 
L 220.23801 552.783908 
L 218.784044 553.466839 
L 218.043811 551.891257 
L 219.497777 551.208325 
" clip-path="url(#pe62ef29743)" style="fill: #e6482f"/>
    <path d="M 210.471881 549.665007 
L 211.705014 551.146485 
L 210.556681 552.100976 
L 209.325315 550.619498 
L 210.471881 549.665007 
" clip-path="url(#pe62ef29743)" style="fill: #e6482f"/>
    <path d="M 224.896709 548.081358 
L 226.090975 550.364071 
L 224.628175 551.127664 
L 223.433909 548.84764 
L 224.896709 548.081358 
" clip-path="url(#pe62ef29743)" style="fill: #e6482f"/>
    <path d="M 274.275023 547.37154 
L 274.677823 549.226748 
L 272.540157 549.689205 
L 272.137357 547.833997 
L 274.275023 547.37154 
" clip-path="url(#pe62ef29743)" style="fill: #e6482f"/>
    <path d="M 214.363846 546.677853 
L 215.321379 548.065226 
L 213.902746 549.043916 
L 212.943447 547.656543 
L 214.363846 546.677853 
" clip-path="url(#pe62ef29743)" style="fill: #e6482f"/>
    <path d="M 253.926564 545.443736 
L 254.398264 547.089225 
L 252.333031 547.68343 
L 251.861332 546.035252 
L 253.926564 545.443736 
" clip-path="url(#pe62ef29743)" style="fill: #e6482f"/>
    <path d="M 217.482012 544.368253 
L 218.651544 545.954591 
L 217.497912 546.806911 
L 216.328379 545.220574 
L 217.482012 544.368253 
" clip-path="url(#pe62ef29743)" style="fill: #e6482f"/>
    <path d="M 243.678135 540.431986 
L 244.402468 542.185023 
L 242.376102 543.021211 
L 241.653535 541.265485 
L 243.678135 540.431986 
" clip-path="url(#pe62ef29743)" style="fill: #e6482f"/>
    <path d="M 249.361499 538.748855 
L 249.923299 539.931886 
L 248.038266 540.827226 
L 247.229133 539.127963 
L 249.361499 538.748855 
" clip-path="url(#pe62ef29743)" style="fill: #e6482f"/>
    <path d="M 247.1143 533.629556 
L 247.7185 535.205138 
L 246.1444 535.807409 
L 245.540201 534.234515 
L 247.1143 533.629556 
" clip-path="url(#pe62ef29743)" style="fill: #e6482f"/>
    <path d="M 323.918337 558.137124 
L 324.83347 559.925115 
L 323.303537 560.707528 
L 322.388404 558.922227 
L 323.918337 558.137124 
" clip-path="url(#pe62ef29743)" style="fill: #e6482f"/>
    <path d="M 283.502319 552.283808 
L 284.065886 554.082553 
L 282.032453 554.722466 
L 281.46712 552.92372 
L 283.502319 552.283808 
" clip-path="url(#pe62ef29743)" style="fill: #e6482f"/>
    <path d="M 311.643542 551.146485 
L 312.207108 552.181637 
L 310.710742 552.993627 
L 310.148942 551.958474 
L 311.643542 551.146485 
" clip-path="url(#pe62ef29743)" style="fill: #e6482f"/>
    <path d="M 288.567351 550.557658 
L 289.16095 553.079665 
L 287.293584 553.520613 
L 286.699985 550.998606 
L 288.567351 550.557658 
" clip-path="url(#pe62ef29743)" style="fill: #e6482f"/>
    <path d="M 283.565919 545.51902 
L 284.014652 547.586636 
L 281.57842 548.116311 
L 281.12792 546.048695 
L 283.565919 545.51902 
" clip-path="url(#pe62ef29743)" style="fill: #e6482f"/>
    <path d="M 289.111484 544.508066 
L 289.576117 546.282613 
L 287.692851 546.777335 
L 287.228218 545.0001 
L 289.111484 544.508066 
" clip-path="url(#pe62ef29743)" style="fill: #e6482f"/>
    <path d="M 294.990948 542.943238 
L 295.414948 544.846843 
L 293.291415 545.320056 
L 292.867416 543.413762 
L 294.990948 542.943238 
" clip-path="url(#pe62ef29743)" style="fill: #e6482f"/>
    <path d="M 301.554112 540.044812 
L 301.992245 541.96186 
L 300.218513 542.367855 
L 299.78038 540.450807 
L 301.554112 540.044812 
" clip-path="url(#pe62ef29743)" style="fill: #e6482f"/>
    <path d="M 306.31351 538.380502 
L 306.71631 540.370145 
L 304.845411 540.749253 
L 304.442611 538.75961 
L 306.31351 538.380502 
" clip-path="url(#pe62ef29743)" style="fill: #e6482f"/>
    <path d="M 330.394934 520.28819 
L 330.186468 522.234814 
L 328.117702 522.01434 
L 328.326168 520.067716 
L 330.394934 520.28819 
" clip-path="url(#pe62ef29743)" style="fill: #e6482f"/>
    <path d="M 194.101954 575.836885 
L 192.610888 576.944633 
L 191.513788 575.471221 
L 193.004854 574.363473 
L 194.101954 575.836885 
" clip-path="url(#pe62ef29743)" style="fill: #e6482f"/>
    <path d="M 199.479685 570.970325 
L 198.158219 572.215196 
L 196.79612 570.77136 
L 198.117586 569.5238 
L 199.479685 570.970325 
" clip-path="url(#pe62ef29743)" style="fill: #e6482f"/>
    <path d="M 192.298188 564.61422 
L 193.605521 566.187114 
L 192.089721 567.448118 
L 190.782389 565.875224 
L 192.298188 564.61422 
" clip-path="url(#pe62ef29743)" style="fill: #e6482f"/>
    <path d="M 196.237853 561.726548 
L 197.748353 563.587134 
L 196.195453 564.848138 
L 194.684954 562.984864 
L 196.237853 561.726548 
" clip-path="url(#pe62ef29743)" style="fill: #e6482f"/>
    <path d="M 187.895656 500.165903 
L 186.61659 500.165903 
L 186.61659 498.980183 
L 187.895656 498.980183 
L 187.895656 500.165903 
" clip-path="url(#pe62ef29743)" style="fill: #e6482f"/>
    <path d="M 153.915603 497.619697 
L 154.332536 499.359291 
L 152.323837 499.84057 
L 151.906904 498.100976 
L 153.915603 497.619697 
" clip-path="url(#pe62ef29743)" style="fill: #e6482f"/>
    <path d="M 171.432096 499.119996 
L 168.637231 499.73571 
L 168.022431 496.94752 
L 170.819063 496.331806 
L 171.432096 499.119996 
" clip-path="url(#pe62ef29743)" style="fill: #e6482f"/>
    <path d="M 193.367021 490.475802 
L 194.146121 498.915654 
L 190.996155 499.206035 
L 190.814189 497.232523 
L 190.361922 492.352519 
L 190.215289 490.766182 
L 193.367021 490.475802 
" clip-path="url(#pe62ef29743)" style="fill: #e6482f"/>
    <path d="M 153.74777 490.846843 
L 154.178836 492.742382 
L 152.16307 493.199462 
L 151.732004 491.301235 
L 153.74777 490.846843 
" clip-path="url(#pe62ef29743)" style="fill: #e6482f"/>
    <path d="M 151.339804 489.518622 
L 153.348503 489.077674 
L 153.74777 490.846843 
L 151.732004 491.301235 
L 151.339804 489.518622 
" clip-path="url(#pe62ef29743)" style="fill: #e6482f"/>
    <path d="M 240.574103 532.064728 
L 241.271936 533.938757 
L 239.952236 534.430791 
L 239.25617 532.556762 
L 240.574103 532.064728 
" clip-path="url(#pe62ef29743)" style="fill: #e6482f"/>
    <path d="M 245.439501 529.341068 
L 246.073734 530.922027 
L 243.934301 531.779725 
L 243.300068 530.201454 
L 245.439501 529.341068 
" clip-path="url(#pe62ef29743)" style="fill: #e6482f"/>
    <path d="M 235.763471 523.710914 
L 236.509004 525.687114 
L 233.931438 526.663115 
L 233.184139 524.686915 
L 235.763471 523.710914 
" clip-path="url(#pe62ef29743)" style="fill: #e6482f"/>
    <path d="M 241.644702 520.215595 
L 242.259502 522.283211 
L 240.017603 522.95001 
L 239.402803 520.879705 
L 241.644702 520.215595 
" clip-path="url(#pe62ef29743)" style="fill: #e6482f"/>
    <path d="M 239.954003 514.98337 
L 240.558203 516.932683 
L 238.480603 517.575284 
L 237.876404 515.625971 
L 239.954003 514.98337 
" clip-path="url(#pe62ef29743)" style="fill: #e6482f"/>
    <path d="M 206.927949 508.444433 
L 207.426149 509.99044 
L 205.48105 510.61422 
L 204.984616 509.068214 
L 206.927949 508.444433 
" clip-path="url(#pe62ef29743)" style="fill: #e6482f"/>
    <path d="M 239.78617 506.790878 
L 239.975203 508.890759 
L 238.12197 509.057459 
L 237.932937 506.957578 
L 239.78617 506.790878 
" clip-path="url(#pe62ef29743)" style="fill: #e6482f"/>
    <path d="M 268.153525 505.26907 
L 268.457392 507.2856 
L 266.750792 507.543716 
L 266.446926 505.527186 
L 268.153525 505.26907 
" clip-path="url(#pe62ef29743)" style="fill: #e6482f"/>
    <path d="M 258.804329 504.884585 
L 259.265429 507.019418 
L 257.406896 507.420036 
L 256.945796 505.285202 
L 258.804329 504.884585 
" clip-path="url(#pe62ef29743)" style="fill: #e6482f"/>
    <path d="M 253.711031 504.908783 
L 253.885931 506.981777 
L 252.287098 507.116212 
L 252.112198 505.043218 
L 253.711031 504.908783 
" clip-path="url(#pe62ef29743)" style="fill: #e6482f"/>
    <path d="M 294.157082 519.051384 
L 294.330215 520.965744 
L 292.061816 521.172774 
L 291.886916 519.258415 
L 294.157082 519.051384 
" clip-path="url(#pe62ef29743)" style="fill: #e6482f"/>
    <path d="M 330.626368 515.5238 
L 330.251834 517.537642 
L 328.384468 517.190799 
L 328.759002 515.176957 
L 330.626368 515.5238 
" clip-path="url(#pe62ef29743)" style="fill: #e6482f"/>
    <path d="M 293.991015 514.537044 
L 294.008682 516.429894 
L 291.530049 516.454093 
L 291.512383 514.558554 
L 293.991015 514.537044 
" clip-path="url(#pe62ef29743)" style="fill: #e6482f"/>
    <path d="M 286.053385 506.543517 
L 286.184118 508.078769 
L 284.564085 508.218582 
L 284.433352 506.68333 
L 286.053385 506.543517 
" clip-path="url(#pe62ef29743)" style="fill: #e6482f"/>
    <path d="M 277.916121 504.93567 
L 278.181121 506.812388 
L 276.232489 507.089325 
L 275.967489 505.212607 
L 277.916121 504.93567 
" clip-path="url(#pe62ef29743)" style="fill: #e6482f"/>
    <path d="M 328.547002 490.981279 
L 329.716535 492.742382 
L 327.312102 494.339474 
L 326.142569 492.575682 
L 328.547002 490.981279 
" clip-path="url(#pe62ef29743)" style="fill: #e6482f"/>
    <path d="M 283.159586 461.254929 
L 284.281419 462.284704 
L 282.216186 464.537841 
L 281.092587 463.508066 
L 283.159586 461.254929 
" clip-path="url(#pe62ef29743)" style="fill: #e6482f"/>
    <path d="M 273.946423 442.581856 
L 274.999356 443.912766 
L 273.176157 445.353914 
L 272.123224 444.020315 
L 273.946423 442.581856 
" clip-path="url(#pe62ef29743)" style="fill: #e6482f"/>
    <path d="M 257.260263 501.166102 
L 257.269096 502.749751 
L 254.822264 502.760506 
L 254.815197 501.176857 
L 257.260263 501.166102 
" clip-path="url(#pe62ef29743)" style="fill: #e6482f"/>
    <path d="M 246.734467 500.918741 
L 248.0683 501.141904 
L 247.790933 502.795459 
L 246.4571 502.572296 
L 246.734467 500.918741 
" clip-path="url(#pe62ef29743)" style="fill: #e6482f"/>
    <path d="M 205.13655 500.719777 
L 205.419216 502.289982 
L 203.431717 502.64758 
L 203.150817 501.077375 
L 205.13655 500.719777 
" clip-path="url(#pe62ef29743)" style="fill: #e6482f"/>
    <path d="M 203.77975 494.436268 
L 204.163117 495.855905 
L 202.177384 496.393647 
L 201.792251 494.974009 
L 203.77975 494.436268 
" clip-path="url(#pe62ef29743)" style="fill: #e6482f"/>
    <path d="M 243.496168 491.510954 
L 243.183468 493.543617 
L 241.469802 493.280123 
L 241.782502 491.247461 
L 243.496168 491.510954 
" clip-path="url(#pe62ef29743)" style="fill: #e6482f"/>
    <path d="M 201.650918 484.587532 
L 202.016618 486.063633 
L 200.477851 486.44274 
L 200.113918 484.969329 
L 201.650918 484.587532 
" clip-path="url(#pe62ef29743)" style="fill: #e6482f"/>
    <path d="M 248.919833 450.89534 
L 248.612433 452.796256 
L 246.559567 452.465545 
L 246.866967 450.564629 
L 248.919833 450.89534 
" clip-path="url(#pe62ef29743)" style="fill: #e6482f"/>
    <path d="M 270.598591 447.257518 
L 271.63739 448.940649 
L 269.648125 450.169389 
L 268.609325 448.488946 
L 270.598591 447.257518 
" clip-path="url(#pe62ef29743)" style="fill: #e6482f"/>
    <path d="M 269.989091 439.298944 
L 271.103857 440.732025 
L 269.711725 441.812886 
L 268.596958 440.382494 
L 269.989091 439.298944 
" clip-path="url(#pe62ef29743)" style="fill: #e6482f"/>
    <path d="M 251.523898 438.150866 
L 251.511532 440.274945 
L 249.541699 440.26419 
L 249.554066 438.137423 
L 251.523898 438.150866 
" clip-path="url(#pe62ef29743)" style="fill: #e6482f"/>
    <path d="M 132.994744 678.478291 
L 133.840977 680.957279 
L 131.443612 681.774646 
L 130.597379 679.295658 
L 132.994744 678.478291 
" clip-path="url(#pe62ef29743)" style="fill: #e6482f"/>
    <path d="M 128.044546 660.754332 
L 128.830713 662.994025 
L 126.694814 663.744174 
L 125.908647 661.504481 
L 128.044546 660.754332 
" clip-path="url(#pe62ef29743)" style="fill: #e6482f"/>
    <path d="M 131.413578 629.487353 
L 132.683811 631.369448 
L 131.235145 632.345449 
L 129.964912 630.466043 
L 131.413578 629.487353 
" clip-path="url(#pe62ef29743)" style="fill: #e6482f"/>
    <path d="M 123.841648 626.674965 
L 124.984681 628.231727 
L 123.209182 629.53575 
L 122.066149 627.978988 
L 123.841648 626.674965 
" clip-path="url(#pe62ef29743)" style="fill: #e6482f"/>
    <path d="M 135.00521 626.282414 
L 136.386743 627.825732 
L 134.881544 629.172774 
L 133.500011 627.629456 
L 135.00521 626.282414 
" clip-path="url(#pe62ef29743)" style="fill: #e6482f"/>
    <path d="M 129.353646 623.271062 
L 130.357112 624.811691 
L 129.009146 625.690898 
L 128.003913 624.152958 
L 129.353646 623.271062 
" clip-path="url(#pe62ef29743)" style="fill: #e6482f"/>
    <path d="M 139.130375 622.33808 
L 140.347608 623.733519 
L 138.716976 625.155845 
L 137.499743 623.760406 
L 139.130375 622.33808 
" clip-path="url(#pe62ef29743)" style="fill: #e6482f"/>
    <path d="M 131.749245 621.009859 
L 132.802178 622.346146 
L 131.692712 623.219976 
L 130.639779 621.881 
L 131.749245 621.009859 
" clip-path="url(#pe62ef29743)" style="fill: #e6482f"/>
    <path d="M 142.598341 619.151962 
L 143.633607 620.525891 
L 142.402241 621.453495 
L 141.366974 620.079566 
L 142.598341 619.151962 
" clip-path="url(#pe62ef29743)" style="fill: #e6482f"/>
    <path d="M 136.13941 615.57867 
L 137.565109 617.191894 
L 136.17651 618.420633 
L 134.749044 616.807409 
L 136.13941 615.57867 
" clip-path="url(#pe62ef29743)" style="fill: #e6482f"/>
    <path d="M 175.244561 645.361482 
L 177.546527 646.982772 
L 174.633295 650.349034 
L 174.073262 649.848934 
L 172.495629 648.440052 
L 175.244561 645.361482 
" clip-path="url(#pe62ef29743)" style="fill: #e6482f"/>
    <path d="M 149.564305 612.855009 
L 150.619004 614.376817 
L 148.947738 615.53565 
L 147.891272 614.013842 
L 149.564305 612.855009 
" clip-path="url(#pe62ef29743)" style="fill: #e6482f"/>
    <path d="M 152.753137 610.736308 
L 153.749536 612.123681 
L 152.726637 612.857698 
L 151.730237 611.473013 
L 152.753137 610.736308 
" clip-path="url(#pe62ef29743)" style="fill: #e6482f"/>
    <path d="M 157.289935 606.748954 
L 158.326968 607.98576 
L 156.835902 609.236009 
L 155.798869 607.999203 
L 157.289935 606.748954 
" clip-path="url(#pe62ef29743)" style="fill: #e6482f"/>
    <path d="M 159.107834 604.724358 
L 160.372767 606.351026 
L 159.109601 607.332404 
L 157.846435 605.705736 
L 159.107834 604.724358 
" clip-path="url(#pe62ef29743)" style="fill: #e6482f"/>
    <path d="M 151.703737 603.925812 
L 152.371537 604.88568 
L 150.963504 605.86437 
L 150.295704 604.904501 
L 151.703737 603.925812 
" clip-path="url(#pe62ef29743)" style="fill: #e6482f"/>
    <path d="M 154.542769 599.328122 
L 155.832436 600.693985 
L 154.420869 602.024895 
L 153.131203 600.659032 
L 154.542769 599.328122 
" clip-path="url(#pe62ef29743)" style="fill: #e6482f"/>
    <path d="M 157.478968 597.333101 
L 158.630834 598.580661 
L 157.235168 599.868552 
L 156.083302 598.623681 
L 157.478968 597.333101 
" clip-path="url(#pe62ef29743)" style="fill: #e6482f"/>
    <path d="M 169.838563 598.758116 
L 168.84393 599.60237 
L 167.412931 597.911173 
L 168.405797 597.069608 
L 169.838563 598.758116 
" clip-path="url(#pe62ef29743)" style="fill: #e6482f"/>
    <path d="M 171.700629 594.063633 
L 172.815396 595.469827 
L 171.31373 596.660924 
L 170.198963 595.25473 
L 171.700629 594.063633 
" clip-path="url(#pe62ef29743)" style="fill: #e6482f"/>
    <path d="M 160.401034 593.894244 
L 161.6695 595.42143 
L 160.4346 596.448516 
L 159.164368 594.92133 
L 160.401034 593.894244 
" clip-path="url(#pe62ef29743)" style="fill: #e6482f"/>
    <path d="M 175.083795 591.536248 
L 176.452961 593.039235 
L 175.207461 594.176558 
L 173.836529 592.673571 
L 175.083795 591.536248 
" clip-path="url(#pe62ef29743)" style="fill: #e6482f"/>
    <path d="M 165.015565 588.713105 
L 166.773398 590.509162 
L 164.898965 592.34286 
L 163.142899 590.546803 
L 165.015565 588.713105 
" clip-path="url(#pe62ef29743)" style="fill: #e6482f"/>
    <path d="M 177.40166 588.312488 
L 178.617127 589.715993 
L 177.334527 590.826429 
L 176.119061 589.422924 
L 177.40166 588.312488 
" clip-path="url(#pe62ef29743)" style="fill: #e6482f"/>
    <path d="M 168.829797 587.202051 
L 169.863297 588.651265 
L 168.243264 589.807409 
L 167.209764 588.358196 
L 168.829797 587.202051 
" clip-path="url(#pe62ef29743)" style="fill: #e6482f"/>
    <path d="M 181.408459 584.634336 
L 182.869492 586.785302 
L 181.272426 587.87154 
L 179.809626 585.717885 
L 181.408459 584.634336 
" clip-path="url(#pe62ef29743)" style="fill: #e6482f"/>
    <path d="M 184.683858 582.440351 
L 185.500057 583.308803 
L 184.579624 584.171878 
L 183.763425 583.303426 
L 184.683858 582.440351 
" clip-path="url(#pe62ef29743)" style="fill: #e6482f"/>
    <path d="M 173.841829 581.830014 
L 174.945995 583.134037 
L 173.914262 584.005178 
L 172.811862 582.698466 
L 173.841829 581.830014 
" clip-path="url(#pe62ef29743)" style="fill: #e6482f"/>
    <path d="M 176.491827 579.517726 
L 177.998794 581.15246 
L 176.569561 582.469926 
L 175.062595 580.835192 
L 176.491827 579.517726 
" clip-path="url(#pe62ef29743)" style="fill: #e6482f"/>
    <path d="M 181.477359 575.250747 
L 182.588592 576.885481 
L 181.093992 577.901812 
L 179.982759 576.267078 
L 181.477359 575.250747 
" clip-path="url(#pe62ef29743)" style="fill: #e6482f"/>
    <path d="M 120.338349 641.876917 
L 121.036182 643.482075 
L 119.250083 644.259112 
L 118.55225 642.656642 
L 120.338349 641.876917 
" clip-path="url(#pe62ef29743)" style="fill: #e6482f"/>
    <path d="M 101.800723 508.36915 
L 102.37489 511.173471 
L 100.235457 511.574089 
L 99.754924 508.753635 
L 101.800723 508.36915 
" clip-path="url(#pe62ef29743)" style="fill: #e6482f"/>
    <path d="M 108.80202 507.282912 
L 109.171254 509.269867 
L 106.865755 509.697371 
L 106.496521 507.710416 
L 108.80202 507.282912 
" clip-path="url(#pe62ef29743)" style="fill: #e6482f"/>
    <path d="M 99.254958 506.078371 
L 101.300757 505.696574 
L 101.800723 508.36915 
L 99.754924 508.753635 
L 99.254958 506.078371 
" clip-path="url(#pe62ef29743)" style="fill: #e6482f"/>
    <path d="M 106.095488 505.446525 
L 108.339154 505.008265 
L 108.80202 507.282912 
L 106.496521 507.710416 
L 106.095488 505.446525 
" clip-path="url(#pe62ef29743)" style="fill: #e6482f"/>
    <path d="M 120.674016 502.905696 
L 123.071382 502.478192 
L 123.384081 504.868452 
L 121.105082 505.196475 
L 120.674016 502.905696 
" clip-path="url(#pe62ef29743)" style="fill: #e6482f"/>
    <path d="M 100.118857 498.867258 
L 100.86439 501.972715 
L 98.693158 502.478192 
L 97.986491 499.375423 
L 100.118857 498.867258 
" clip-path="url(#pe62ef29743)" style="fill: #e6482f"/>
    <path d="M 106.871055 497.708425 
L 107.190821 499.44533 
L 105.030189 499.84057 
L 104.710422 498.106353 
L 106.871055 497.708425 
" clip-path="url(#pe62ef29743)" style="fill: #e6482f"/>
    <path d="M 97.346958 496.689405 
L 99.479324 496.181239 
L 100.118857 498.867258 
L 97.986491 499.375423 
L 97.346958 496.689405 
" clip-path="url(#pe62ef29743)" style="fill: #e6482f"/>
    <path d="M 104.351789 496.224258 
L 106.526555 495.810197 
L 106.871055 497.708425 
L 104.710422 498.106353 
L 104.351789 496.224258 
" clip-path="url(#pe62ef29743)" style="fill: #e6482f"/>
    <path d="M 140.478342 613.395439 
L 141.460608 614.672575 
L 140.109108 615.710416 
L 139.126842 614.43328 
L 140.478342 613.395439 
" clip-path="url(#pe62ef29743)" style="fill: #e6482f"/>
    <path d="M 147.481405 605.67616 
L 148.979538 607.23561 
L 147.995505 608.179347 
L 146.499139 606.619896 
L 147.481405 605.67616 
" clip-path="url(#pe62ef29743)" style="fill: #e6482f"/>
    <path d="M 123.384081 504.868452 
L 123.613748 506.470922 
L 121.336516 506.798944 
L 121.105082 505.196475 
L 123.384081 504.868452 
" clip-path="url(#pe62ef29743)" style="fill: #e6482f"/>
    <path d="M 130.713979 503.268672 
L 131.146812 505.454591 
L 129.226446 505.820255 
L 128.793613 503.671978 
L 130.713979 503.268672 
" clip-path="url(#pe62ef29743)" style="fill: #e6482f"/>
    <path d="M 128.300713 501.327425 
L 130.221079 500.924119 
L 130.713979 503.268672 
L 128.793613 503.671978 
L 128.300713 501.327425 
" clip-path="url(#pe62ef29743)" style="fill: #e6482f"/>
    <path d="M 146.435539 500.749353 
L 146.870139 503.096594 
L 144.642373 503.516033 
L 144.15654 501.236009 
L 146.435539 500.749353 
" clip-path="url(#pe62ef29743)" style="fill: #e6482f"/>
    <path d="M 143.661874 498.915654 
L 145.940873 498.431687 
L 146.435539 500.749353 
L 144.15654 501.236009 
L 143.661874 498.915654 
" clip-path="url(#pe62ef29743)" style="fill: #e6482f"/>
    <path d="M 129.079813 493.678052 
L 129.509112 496.216192 
L 127.442113 496.554969 
L 127.081713 493.960366 
L 129.079813 493.678052 
" clip-path="url(#pe62ef29743)" style="fill: #e6482f"/>
    <path d="M 126.76548 491.704541 
L 128.763579 491.424915 
L 129.079813 493.678052 
L 127.081713 493.960366 
L 126.76548 491.704541 
" clip-path="url(#pe62ef29743)" style="fill: #e6482f"/>
    <path d="M 143.220207 491.22864 
L 143.587674 493.16182 
L 141.356374 493.540928 
L 141.091375 491.564728 
L 143.220207 491.22864 
" clip-path="url(#pe62ef29743)" style="fill: #e6482f"/>
    <path d="M 121.507882 494.834196 
L 121.933649 496.705537 
L 119.852516 497.178749 
L 119.42675 495.307409 
L 121.507882 494.834196 
" clip-path="url(#pe62ef29743)" style="fill: #e6482f"/>
    <path d="M 118.93385 493.425314 
L 121.083882 492.874129 
L 121.507882 494.834196 
L 119.42675 495.307409 
L 118.93385 493.425314 
" clip-path="url(#pe62ef29743)" style="fill: #e6482f"/>
    <path d="M 98.399891 489.704143 
L 98.956391 492.551484 
L 96.695059 492.99512 
L 96.138559 490.147779 
L 98.399891 489.704143 
" clip-path="url(#pe62ef29743)" style="fill: #e6482f"/>
    <path d="M 105.176822 488.854511 
L 105.484222 490.424716 
L 103.265289 490.860287 
L 102.957889 489.290082 
L 105.176822 488.854511 
" clip-path="url(#pe62ef29743)" style="fill: #e6482f"/>
    <path d="M 95.679226 487.722565 
L 97.915825 487.289683 
L 98.399891 489.704143 
L 96.138559 490.147779 
L 95.679226 487.722565 
" clip-path="url(#pe62ef29743)" style="fill: #e6482f"/>
    <path d="M 102.526823 487.273551 
L 104.800522 486.813782 
L 105.176822 488.854511 
L 102.957889 489.290082 
L 102.526823 487.273551 
" clip-path="url(#pe62ef29743)" style="fill: #e6482f"/>
    <path d="M 119.993849 486.015236 
L 120.278283 487.929596 
L 118.16005 488.303326 
L 117.833217 486.31906 
L 119.993849 486.015236 
" clip-path="url(#pe62ef29743)" style="fill: #e6482f"/>
    <path d="M 117.54525 484.267576 
L 119.705883 483.963752 
L 119.993849 486.015236 
L 117.833217 486.31906 
L 117.54525 484.267576 
" clip-path="url(#pe62ef29743)" style="fill: #e6482f"/>
    <path d="M 104.751055 481.030372 
L 105.183889 483.149074 
L 103.095689 483.57389 
L 102.662856 481.457877 
L 104.751055 481.030372 
" clip-path="url(#pe62ef29743)" style="fill: #e6482f"/>
    <path d="M 118.273117 476.096594 
L 118.707717 478.287891 
L 116.384551 478.74766 
L 115.951718 476.556363 
L 118.273117 476.096594 
" clip-path="url(#pe62ef29743)" style="fill: #e6482f"/>
    <path d="M 140.730975 489.303525 
L 142.859807 488.964748 
L 143.220207 491.22864 
L 141.091375 491.564728 
L 140.730975 489.303525 
" clip-path="url(#pe62ef29743)" style="fill: #e6482f"/>
    <path d="M 127.546347 484.885979 
L 127.965046 487.23322 
L 126.014647 487.582752 
L 125.594181 485.235511 
L 127.546347 484.885979 
" clip-path="url(#pe62ef29743)" style="fill: #e6482f"/>
    <path d="M 125.180781 482.917845 
L 127.127647 482.568313 
L 127.546347 484.885979 
L 125.594181 485.235511 
L 125.180781 482.917845 
" clip-path="url(#pe62ef29743)" style="fill: #e6482f"/>
    <path d="M 141.056041 479.328421 
L 141.425274 481.449811 
L 139.457209 481.815475 
L 139.070309 479.656443 
L 141.056041 479.328421 
" clip-path="url(#pe62ef29743)" style="fill: #e6482f"/>
    <path d="M 138.748776 477.70713 
L 140.736275 477.379108 
L 141.056041 479.328421 
L 139.070309 479.656443 
L 138.748776 477.70713 
" clip-path="url(#pe62ef29743)" style="fill: #e6482f"/>
    <path d="M 150.140238 476.857499 
L 150.451171 478.58096 
L 148.304672 478.973511 
L 147.961939 477.287692 
L 150.140238 476.857499 
" clip-path="url(#pe62ef29743)" style="fill: #e6482f"/>
    <path d="M 125.668381 474.416152 
L 126.20898 477.215097 
L 124.004181 477.642601 
L 123.461815 474.843657 
L 125.668381 474.416152 
" clip-path="url(#pe62ef29743)" style="fill: #e6482f"/>
    <path d="M 147.516739 475.026489 
L 149.695038 474.596296 
L 150.140238 476.857499 
L 147.961939 477.287692 
L 147.516739 475.026489 
" clip-path="url(#pe62ef29743)" style="fill: #e6482f"/>
    <path d="M 139.690408 472.200657 
L 140.158575 474.534455 
L 138.086276 474.897431 
L 137.747076 472.525991 
L 139.690408 472.200657 
" clip-path="url(#pe62ef29743)" style="fill: #e6482f"/>
    <path d="M 123.037815 472.472217 
L 125.157814 472.05009 
L 125.668381 474.416152 
L 123.461815 474.843657 
L 123.037815 472.472217 
" clip-path="url(#pe62ef29743)" style="fill: #e6482f"/>
    <path d="M 166.822865 482.065525 
L 167.960597 487.08803 
L 165.875932 487.655348 
L 164.738199 482.632842 
L 166.822865 482.065525 
" clip-path="url(#pe62ef29743)" style="fill: #e6482f"/>
    <path d="M 193.794554 476.206831 
L 194.197354 477.922227 
L 192.503121 478.320155 
L 192.098555 476.60476 
L 193.794554 476.206831 
" clip-path="url(#pe62ef29743)" style="fill: #e6482f"/>
    <path d="M 164.738199 473.725154 
L 165.591498 478.368552 
L 163.791266 478.653555 
L 163.031599 474.104262 
L 164.738199 473.725154 
" clip-path="url(#pe62ef29743)" style="fill: #e6482f"/>
    <path d="M 199.617485 474.061243 
L 200.062685 475.911073 
L 198.582219 476.265983 
L 198.137019 474.418841 
L 199.617485 474.061243 
" clip-path="url(#pe62ef29743)" style="fill: #e6482f"/>
    <path d="M 192.690388 469.353316 
L 193.068454 471.001494 
L 190.865422 471.504282 
L 190.487355 469.858793 
L 192.690388 469.353316 
" clip-path="url(#pe62ef29743)" style="fill: #e6482f"/>
    <path d="M 199.795918 467.920235 
L 199.638685 470.428799 
L 197.525753 470.297052 
L 197.684753 467.788488 
L 199.795918 467.920235 
" clip-path="url(#pe62ef29743)" style="fill: #e6482f"/>
    <path d="M 150.541271 466.368851 
L 151.168437 470.014738 
L 148.741038 470.434176 
L 148.113872 466.7856 
L 150.541271 466.368851 
" clip-path="url(#pe62ef29743)" style="fill: #e6482f"/>
    <path d="M 192.232821 462.650368 
L 192.462488 464.104959 
L 190.245322 464.45718 
L 190.015656 463.002589 
L 192.232821 462.650368 
" clip-path="url(#pe62ef29743)" style="fill: #e6482f"/>
    <path d="M 162.478633 455.280621 
L 164.875999 469.151663 
L 161.787867 469.705537 
L 159.298634 456.017327 
L 162.478633 455.280621 
" clip-path="url(#pe62ef29743)" style="fill: #e6482f"/>
    <path d="M 147.446072 456.296953 
L 148.043205 458.827026 
L 152.424537 457.794563 
L 153.039337 460.405298 
L 148.802872 461.405497 
L 149.214505 463.153157 
L 147.294139 463.60486 
L 145.670573 456.716391 
L 147.446072 456.296953 
" clip-path="url(#pe62ef29743)" style="fill: #e6482f"/>
    <path d="M 115.524185 474.553276 
L 117.875617 474.055865 
L 118.273117 476.096594 
L 115.951718 476.556363 
L 115.524185 474.553276 
" clip-path="url(#pe62ef29743)" style="fill: #e6482f"/>
    <path d="M 95.506092 473.120195 
L 96.150925 475.929894 
L 94.07156 476.427305 
L 93.401993 473.58803 
L 95.506092 473.120195 
" clip-path="url(#pe62ef29743)" style="fill: #e6482f"/>
    <path d="M 101.671757 469.646385 
L 102.57629 473.830014 
L 100.263724 474.330114 
L 99.359191 470.143796 
L 101.671757 469.646385 
" clip-path="url(#pe62ef29743)" style="fill: #e6482f"/>
    <path d="M 92.765993 470.740689 
L 94.870093 470.270165 
L 95.506092 473.120195 
L 93.401993 473.58803 
L 92.765993 470.740689 
" clip-path="url(#pe62ef29743)" style="fill: #e6482f"/>
    <path d="M 115.949951 463.470424 
L 117.543484 465.589126 
L 112.570319 469.326429 
L 110.976786 467.205039 
L 115.949951 463.470424 
" clip-path="url(#pe62ef29743)" style="fill: #e6482f"/>
    <path d="M 99.938657 460.268174 
L 100.841424 463.897929 
L 98.530624 464.473312 
L 97.629625 460.840868 
L 99.938657 460.268174 
" clip-path="url(#pe62ef29743)" style="fill: #e6482f"/>
    <path d="M 115.861618 452.129456 
L 116.983451 458.267775 
L 114.478318 458.727544 
L 113.356485 452.586537 
L 115.861618 452.129456 
" clip-path="url(#pe62ef29743)" style="fill: #e6482f"/>
    <path d="M 91.124761 451.312089 
L 92.525727 458.052679 
L 90.405728 458.493627 
L 89.006528 451.750349 
L 91.124761 451.312089 
" clip-path="url(#pe62ef29743)" style="fill: #e6482f"/>
    <path d="M 98.615424 452.694085 
L 99.111858 454.850428 
L 96.714492 455.401613 
L 96.218059 453.247959 
L 98.615424 452.694085 
" clip-path="url(#pe62ef29743)" style="fill: #e6482f"/>
    <path d="M 98.122525 450.604959 
L 98.615424 452.694085 
L 96.218059 453.247959 
L 95.709259 451.24756 
L 98.122525 450.604959 
" clip-path="url(#pe62ef29743)" style="fill: #e6482f"/>
    <path d="M 137.342509 470.11422 
L 139.285842 469.786198 
L 139.690408 472.200657 
L 137.747076 472.525991 
L 137.342509 470.11422 
" clip-path="url(#pe62ef29743)" style="fill: #e6482f"/>
    <path d="M 127.498647 465.564927 
L 125.150747 467.371739 
L 123.733881 465.529974 
L 126.08178 463.725851 
L 127.498647 465.564927 
" clip-path="url(#pe62ef29743)" style="fill: #e6482f"/>
    <path d="M 138.384842 463.454292 
L 138.962542 466.750647 
L 136.842543 467.121689 
L 136.264843 463.825334 
L 138.384842 463.454292 
" clip-path="url(#pe62ef29743)" style="fill: #e6482f"/>
    <path d="M 128.39258 462.042721 
L 129.724646 463.854909 
L 127.498647 465.564927 
L 126.08178 463.725851 
L 128.39258 462.042721 
" clip-path="url(#pe62ef29743)" style="fill: #e6482f"/>
    <path d="M 137.920209 460.781717 
L 138.384842 463.454292 
L 136.264843 463.825334 
L 135.819643 461.131249 
L 137.920209 460.781717 
" clip-path="url(#pe62ef29743)" style="fill: #e6482f"/>
    <path d="M 130.010846 450.405995 
L 130.827045 454.272356 
L 126.037614 455.415057 
L 125.221414 451.494921 
L 130.010846 450.405995 
" clip-path="url(#pe62ef29743)" style="fill: #e6482f"/>
    <path d="M 126.292014 440.492731 
L 125.640114 442.641008 
L 122.873515 441.80482 
L 123.534248 439.648476 
L 126.292014 440.492731 
" clip-path="url(#pe62ef29743)" style="fill: #e6482f"/>
    <path d="M 133.697877 439.16182 
L 134.378044 442.167795 
L 132.337545 442.627564 
L 131.660912 439.621589 
L 133.697877 439.16182 
" clip-path="url(#pe62ef29743)" style="fill: #e6482f"/>
    <path d="M 131.660912 439.621589 
L 131.046112 436.89524 
L 133.083078 436.43816 
L 133.697877 439.16182 
L 131.660912 439.621589 
" clip-path="url(#pe62ef29743)" style="fill: #e6482f"/>
    <path d="M 142.444641 434.021012 
L 142.930474 436.005278 
L 140.504841 436.599482 
L 140.019008 434.612527 
L 142.444641 434.021012 
" clip-path="url(#pe62ef29743)" style="fill: #e6482f"/>
    <path d="M 110.75772 443.75951 
L 113.941252 444.641406 
L 113.223985 447.241386 
L 106.855155 445.480283 
L 107.574188 442.880303 
L 110.75772 443.75951 
" clip-path="url(#pe62ef29743)" style="fill: #e6482f"/>
    <path d="M 96.947692 443.189504 
L 97.357558 445.101175 
L 94.953126 445.617407 
L 94.541493 443.705736 
L 96.947692 443.189504 
" clip-path="url(#pe62ef29743)" style="fill: #e6482f"/>
    <path d="M 96.539592 441.210615 
L 96.947692 443.189504 
L 94.541493 443.705736 
L 94.110426 441.708026 
L 96.539592 441.210615 
" clip-path="url(#pe62ef29743)" style="fill: #e6482f"/>
    <path d="M 122.873515 441.80482 
L 120.476149 441.068114 
L 121.138649 438.914459 
L 123.534248 439.648476 
L 122.873515 441.80482 
" clip-path="url(#pe62ef29743)" style="fill: #e6482f"/>
    <path d="M 116.829751 437.500199 
L 116.197284 439.987254 
L 114.040185 439.438757 
L 114.670885 436.951703 
L 116.829751 437.500199 
" clip-path="url(#pe62ef29743)" style="fill: #e6482f"/>
    <path d="M 114.040185 439.438757 
L 112.073886 438.93328 
L 112.722252 436.454292 
L 114.670885 436.951703 
L 114.040185 439.438757 
" clip-path="url(#pe62ef29743)" style="fill: #e6482f"/>
    <path d="M 107.614821 435.021211 
L 106.913455 437.441048 
L 104.834089 436.838777 
L 105.535455 434.41894 
L 107.614821 435.021211 
" clip-path="url(#pe62ef29743)" style="fill: #e6482f"/>
    <path d="M 104.834089 436.838777 
L 102.871323 436.247262 
L 103.611556 433.854312 
L 105.535455 434.41894 
L 104.834089 436.838777 
" clip-path="url(#pe62ef29743)" style="fill: #e6482f"/>
    <path d="M 99.345057 432.563732 
L 98.595991 434.932484 
L 96.094392 434.142004 
L 96.843458 431.773252 
L 99.345057 432.563732 
" clip-path="url(#pe62ef29743)" style="fill: #e6482f"/>
    <path d="M 96.094392 434.142004 
L 93.640493 433.375722 
L 94.408993 430.980084 
L 96.843458 431.773252 
L 96.094392 434.142004 
" clip-path="url(#pe62ef29743)" style="fill: #e6482f"/>
    <path d="M 121.060916 425.893049 
L 118.900283 425.290779 
L 119.614016 422.913961 
L 121.726949 423.556562 
L 121.060916 425.893049 
" clip-path="url(#pe62ef29743)" style="fill: #e6482f"/>
    <path d="M 114.821051 421.453993 
L 114.223918 423.785103 
L 111.662253 423.129058 
L 112.261152 420.797949 
L 114.821051 421.453993 
" clip-path="url(#pe62ef29743)" style="fill: #e6482f"/>
    <path d="M 111.662253 423.129058 
L 109.031687 422.451504 
L 109.662387 420.098885 
L 112.261152 420.797949 
L 111.662253 423.129058 
" clip-path="url(#pe62ef29743)" style="fill: #e6482f"/>
    <path d="M 105.526622 419.055666 
L 104.827022 421.392153 
L 102.27949 420.62856 
L 102.979089 418.292073 
L 105.526622 419.055666 
" clip-path="url(#pe62ef29743)" style="fill: #e6482f"/>
    <path d="M 102.27949 420.62856 
L 99.435157 419.81657 
L 100.208957 417.369847 
L 102.979089 418.292073 
L 102.27949 420.62856 
" clip-path="url(#pe62ef29743)" style="fill: #e6482f"/>
    <path d="M 96.553725 416.111532 
L 96.014892 418.517925 
L 93.034527 417.867258 
L 93.585726 415.425911 
L 96.553725 416.111532 
" clip-path="url(#pe62ef29743)" style="fill: #e6482f"/>
    <path d="M 93.034527 417.867258 
L 90.372161 417.264987 
L 90.923361 414.823641 
L 93.585726 415.425911 
L 93.034527 417.867258 
" clip-path="url(#pe62ef29743)" style="fill: #e6482f"/>
    <path d="M 111.664019 413.686317 
L 111.22412 415.361382 
L 106.616655 414.151464 
L 107.054788 412.479088 
L 111.664019 413.686317 
" clip-path="url(#pe62ef29743)" style="fill: #e6482f"/>
    <path d="M 122.301115 412.756025 
L 121.276449 415.831906 
L 115.391685 413.86915 
L 116.416351 410.795957 
L 122.301115 412.756025 
" clip-path="url(#pe62ef29743)" style="fill: #e6482f"/>
    <path d="M 110.183553 409.284903 
L 111.492653 409.637124 
L 110.828386 412.09998 
L 109.519287 411.747759 
L 110.183553 409.284903 
" clip-path="url(#pe62ef29743)" style="fill: #e6482f"/>
    <path d="M 139.485475 432.461561 
L 141.941141 431.878112 
L 142.444641 434.021012 
L 140.019008 434.612527 
L 139.485475 432.461561 
" clip-path="url(#pe62ef29743)" style="fill: #e6482f"/>
    <path d="M 131.599078 427.90958 
L 132.895811 432.676658 
L 130.853545 433.23322 
L 129.556812 428.466142 
L 131.599078 427.90958 
" clip-path="url(#pe62ef29743)" style="fill: #e6482f"/>
    <path d="M 124.255048 424.274447 
L 123.587248 426.613623 
L 121.060916 425.893049 
L 121.726949 423.556562 
L 124.255048 424.274447 
" clip-path="url(#pe62ef29743)" style="fill: #e6482f"/>
    <path d="M 131.335845 415.124776 
L 130.434845 418.136128 
L 125.882147 416.772954 
L 126.783147 413.761601 
L 131.335845 415.124776 
" clip-path="url(#pe62ef29743)" style="fill: #e6482f"/>
    <path d="M 150.797437 411.548795 
L 148.806405 413.186218 
L 147.486705 411.578371 
L 149.475971 409.943637 
L 150.797437 411.548795 
" clip-path="url(#pe62ef29743)" style="fill: #e6482f"/>
    <path d="M 146.308339 410.10227 
L 148.249905 408.499801 
L 149.475971 409.943637 
L 147.486705 411.578371 
L 146.308339 410.10227 
" clip-path="url(#pe62ef29743)" style="fill: #e6482f"/>
    <path d="M 141.480041 402.61422 
L 140.485408 404.937263 
L 138.172842 403.947819 
L 139.169242 401.624776 
L 141.480041 402.61422 
" clip-path="url(#pe62ef29743)" style="fill: #e6482f"/>
    <path d="M 138.172842 403.947819 
L 136.291343 403.122386 
L 137.227676 400.839673 
L 139.169242 401.624776 
L 138.172842 403.947819 
" clip-path="url(#pe62ef29743)" style="fill: #e6482f"/>
    <path d="M 131.074378 397.960068 
L 132.936444 398.688707 
L 132.123778 400.90958 
L 130.189279 400.178251 
L 131.074378 397.960068 
" clip-path="url(#pe62ef29743)" style="fill: #e6482f"/>
    <path d="M 130.189279 400.178251 
L 128.245946 399.406592 
L 129.131046 397.18572 
L 131.074378 397.960068 
L 130.189279 400.178251 
" clip-path="url(#pe62ef29743)" style="fill: #e6482f"/>
    <path d="M 191.632155 458.227445 
L 191.946621 459.983171 
L 189.897289 460.351524 
L 189.582822 458.595798 
L 191.632155 458.227445 
" clip-path="url(#pe62ef29743)" style="fill: #e6482f"/>
    <path d="M 169.88273 446.727843 
L 171.640563 454.777833 
L 168.782097 455.401613 
L 167.024265 447.351623 
L 169.88273 446.727843 
" clip-path="url(#pe62ef29743)" style="fill: #e6482f"/>
    <path d="M 197.294319 448.042621 
L 199.133419 447.819458 
L 199.795918 453.269468 
L 197.958586 453.492631 
L 197.294319 448.042621 
" clip-path="url(#pe62ef29743)" style="fill: #e6482f"/>
    <path d="M 167.003065 432.999303 
L 168.623097 441.788688 
L 165.646265 442.334495 
L 164.029766 433.547799 
L 167.003065 432.999303 
" clip-path="url(#pe62ef29743)" style="fill: #e6482f"/>
    <path d="M 165.188699 422.70962 
L 166.838765 431.13334 
L 164.003266 431.689902 
L 162.3532 423.266182 
L 165.188699 422.70962 
" clip-path="url(#pe62ef29743)" style="fill: #e6482f"/>
    <path d="M 154.208869 418.297451 
L 155.159336 420.300538 
L 152.790237 421.421729 
L 151.836237 419.437463 
L 154.208869 418.297451 
" clip-path="url(#pe62ef29743)" style="fill: #e6482f"/>
    <path d="M 163.858399 415.15704 
L 164.877765 420.279028 
L 162.058166 420.840968 
L 161.0388 415.71898 
L 163.858399 415.15704 
" clip-path="url(#pe62ef29743)" style="fill: #e6482f"/>
    <path d="M 150.944071 417.587632 
L 153.31847 416.444931 
L 154.208869 418.297451 
L 151.836237 419.437463 
L 150.944071 417.587632 
" clip-path="url(#pe62ef29743)" style="fill: #e6482f"/>
    <path d="M 195.782053 401.952798 
L 196.582353 403.993527 
L 194.165554 404.942641 
L 195.91102 409.392452 
L 198.587519 408.343856 
L 199.608652 410.951902 
L 193.234521 413.449711 
L 189.667622 404.351125 
L 195.782053 401.952798 
" clip-path="url(#pe62ef29743)" style="fill: #e6482f"/>
    <path d="M 158.157368 407.908285 
L 155.699936 409.932882 
L 150.488271 403.603665 
L 152.945703 401.581757 
L 158.157368 407.908285 
" clip-path="url(#pe62ef29743)" style="fill: #e6482f"/>
    <path d="M 263.98066 433.60964 
L 265.420493 435.010456 
L 264.164393 436.301036 
L 262.724561 434.902908 
L 263.98066 433.60964 
" clip-path="url(#pe62ef29743)" style="fill: #e6482f"/>
    <path d="M 247.7344 426.178052 
L 248.790866 427.80472 
L 246.9182 429.020016 
L 245.863501 427.390659 
L 247.7344 426.178052 
" clip-path="url(#pe62ef29743)" style="fill: #e6482f"/>
    <path d="M 244.019101 420.8571 
L 244.953668 422.309002 
L 243.093368 423.505477 
L 242.158802 422.050886 
L 244.019101 420.8571 
" clip-path="url(#pe62ef29743)" style="fill: #e6482f"/>
    <path d="M 239.925736 415.546903 
L 241.224236 417.227345 
L 239.757903 418.36198 
L 238.459403 416.678849 
L 239.925736 415.546903 
" clip-path="url(#pe62ef29743)" style="fill: #e6482f"/>
    <path d="M 236.150371 410.62388 
L 236.964804 412.027385 
L 234.980838 413.178152 
L 234.166405 411.774646 
L 236.150371 410.62388 
" clip-path="url(#pe62ef29743)" style="fill: #e6482f"/>
    <path d="M 243.784135 404.716789 
L 244.858268 406.265485 
L 242.105802 408.174467 
L 241.031669 406.625772 
L 243.784135 404.716789 
" clip-path="url(#pe62ef29743)" style="fill: #e6482f"/>
    <path d="M 233.058705 404.810894 
L 234.187605 406.512846 
L 232.164773 407.854511 
L 231.03764 406.152559 
L 233.058705 404.810894 
" clip-path="url(#pe62ef29743)" style="fill: #e6482f"/>
    <path d="M 227.135074 398.839275 
L 227.915941 400.178251 
L 226.301208 401.119299 
L 225.520342 399.783011 
L 227.135074 398.839275 
" clip-path="url(#pe62ef29743)" style="fill: #e6482f"/>
    <path d="M 226.979608 395.873631 
L 227.767541 397.470723 
L 225.811842 398.435969 
L 225.023909 396.838877 
L 226.979608 395.873631 
" clip-path="url(#pe62ef29743)" style="fill: #e6482f"/>
    <path d="M 210.593781 368.594005 
L 210.023148 368.887074 
L 210.213948 369.263493 
L 208.878348 369.946425 
L 207.834249 367.908385 
L 209.742248 366.932384 
L 210.593781 368.594005 
" clip-path="url(#pe62ef29743)" style="fill: #e6482f"/>
   </g>
   <g id="LineCollection_1">
    <path d="M 499.260262 661.8747 
L 499.037335 659.55248 
L 496.850203 649.768273 
L 492.965304 645.313085 
L 487.008107 642.549094 
" clip-path="url(#pe62ef29743)" style="fill: none; stroke: #e6482f; stroke-width: 0.2"/>
    <path d="M 504.9857 643.855806 
L 507.692942 645.434551 
" clip-path="url(#pe62ef29743)" style="fill: none; stroke: #e6482f; stroke-width: 0.2"/>
    <path d="M 499.314702 632.990739 
L 501.035435 636.287094 
L 504.9857 643.855806 
" clip-path="url(#pe62ef29743)" style="fill: none; stroke: #e6482f; stroke-width: 0.2"/>
    <path d="M 487.008107 642.549094 
L 496.993303 638.395041 
L 501.035435 636.287094 
L 502.18131 635.68956 
" clip-path="url(#pe62ef29743)" style="fill: none; stroke: #e6482f; stroke-width: 0.2"/>
    <path d="M 487.008107 642.549094 
L 405.124905 639.422127 
L 344.583029 623.695877 
" clip-path="url(#pe62ef29743)" style="fill: none; stroke: #e6482f; stroke-width: 0.2"/>
    <path d="M 136.110518 800.549423 
L 136.056377 794.409978 
L 136.15001 782.939952 
L 136.434443 773.177256 
L 139.372409 760.475802 
L 140.130308 753.745967 
L 139.845875 749.005776 
L 137.192343 733.556463 
L 136.718876 722.18323 
L 137.287743 715.5475 
L 141.172641 704.553376 
L 143.259074 697.15943 
L 141.836908 690.617805 
L 138.897175 682.651165 
" clip-path="url(#pe62ef29743)" style="fill: none; stroke: #e6482f; stroke-width: 0.2"/>
    <path d="M 123.871681 635.104063 
L 111.042153 647.27853 
L 94.479754 660.797073 
" clip-path="url(#pe62ef29743)" style="fill: none; stroke: #e6482f; stroke-width: 0.2"/>
    <path d="M 103.088623 515.265684 
L 100.61529 514.897331 
L 82.737859 510.709656 
" clip-path="url(#pe62ef29743)" style="fill: none; stroke: #e6482f; stroke-width: 0.2"/>
    <path d="M 119.338416 466.247859 
L 128.694679 510.122187 
" clip-path="url(#pe62ef29743)" style="fill: none; stroke: #e6482f; stroke-width: 0.2"/>
    <path d="M 106.602521 514.585441 
L 98.703758 479.78819 
L 91.027594 437.954591 
" clip-path="url(#pe62ef29743)" style="fill: none; stroke: #e6482f; stroke-width: 0.2"/>
    <path d="M 98.703758 479.78819 
L 119.338416 466.247859 
L 128.304246 460.407986 
L 129.894246 459.372834 
L 138.992575 455.202649 
L 141.308675 454.433679 
" clip-path="url(#pe62ef29743)" style="fill: none; stroke: #e6482f; stroke-width: 0.2"/>
    <path d="M 149.710938 506.344553 
L 144.508107 480.336686 
L 141.308675 454.433679 
L 139.460742 450.951802 
L 133.825077 424.433081 
L 105.917055 415.447421 
L 102.032156 414.544015 
" clip-path="url(#pe62ef29743)" style="fill: none; stroke: #e6482f; stroke-width: 0.2"/>
    <path d="M 128.304246 460.407986 
L 119.682916 460.402609 
L 114.743318 461.496913 
L 113.211619 458.152161 
" clip-path="url(#pe62ef29743)" style="fill: none; stroke: #e6482f; stroke-width: 0.2"/>
    <path d="M 139.460742 450.951802 
L 144.085873 449.889763 
L 159.212068 446.413264 
L 163.020999 445.536746 
" clip-path="url(#pe62ef29743)" style="fill: none; stroke: #e6482f; stroke-width: 0.2"/>
    <path d="M 121.921282 444.705935 
L 119.525683 446.496614 
L 113.460719 448.298048 
L 105.973588 446.308405 
L 104.470156 439.503286 
" clip-path="url(#pe62ef29743)" style="fill: none; stroke: #e6482f; stroke-width: 0.2"/>
    <path d="M 313.770607 614.691396 
L 311.809608 615.694284 
L 310.972549 616.760929 
" clip-path="url(#pe62ef29743)" style="fill: none; stroke: #e6482f; stroke-width: 0.2"/>
    <path d="M 175.099695 636.402709 
L 172.257129 633.748954 
L 173.868329 630.527883 
L 178.322093 626.451802 
L 178.417493 623.703943 
L 164.485565 602.947122 
L 162.589933 599.535152 
" clip-path="url(#pe62ef29743)" style="fill: none; stroke: #e6482f; stroke-width: 0.2"/>
    <path d="M 138.897175 682.651165 
L 123.871681 635.104063 
L 125.300914 631.778132 
L 128.341346 629.05716 
L 162.589933 599.535152 
L 190.831855 574.134933 
L 212.913413 553.474905 
L 220.21151 548.167397 
L 228.945907 544.454292 
" clip-path="url(#pe62ef29743)" style="fill: none; stroke: #e6482f; stroke-width: 0.2"/>
    <path d="M 344.583029 623.695877 
L 313.770607 614.691396 
L 307.308143 612.803924 
L 271.782257 600.468134 
L 261.362461 565.412766 
L 255.92643 556.661024 
L 247.3316 545.876618 
L 228.945907 544.454292 
L 202.147351 509.412368 
L 201.352351 503.446126 
L 182.729925 502.31418 
L 173.855962 501.776439 
L 170.395063 502.249651 
L 155.039203 505.29058 
L 149.710938 506.344553 
L 128.694679 510.122187 
L 106.602521 514.585441 
L 103.088623 515.265684 
" clip-path="url(#pe62ef29743)" style="fill: none; stroke: #e6482f; stroke-width: 0.2"/>
    <path d="M 255.92643 556.661024 
L 258.922695 555.593607 
L 298.186847 545.849731 
L 313.088674 541.453694 
L 330.525668 535.656841 
L 338.106431 526.179148 
L 341.510797 523.694782 
" clip-path="url(#pe62ef29743)" style="fill: none; stroke: #e6482f; stroke-width: 0.2"/>
    <path d="M 155.039203 505.29058 
L 157.236935 506.51663 
L 157.948901 507.463055 
L 158.943534 510.022705 
L 159.464701 512.913065 
L 160.743767 517.841466 
L 161.8338 520.589325 
L 164.250599 528.313981 
L 165.103899 531.914161 
L 165.434265 535.893448 
L 166.098532 544.376319 
L 166.430665 545.607747 
L 166.999531 546.556861 
L 167.851064 547.551683 
L 169.653063 548.974009 
L 172.022163 550.584545 
L 174.723395 553.426509 
L 181.972025 562.667596 
L 183.915358 564.848138 
L 186.994657 569.303326 
L 190.831855 574.134933 
" clip-path="url(#pe62ef29743)" style="fill: none; stroke: #e6482f; stroke-width: 0.2"/>
    <path d="M 284.087086 503.435371 
L 239.20317 503.77146 
L 234.986138 505.618602 
L 235.000271 507.519518 
L 235.279405 513.052878 
L 237.87817 521.210416 
L 247.3316 545.876618 
" clip-path="url(#pe62ef29743)" style="fill: none; stroke: #e6482f; stroke-width: 0.2"/>
    <path d="M 298.186847 545.849731 
L 297.52788 538.173471 
L 296.100414 522.670384 
L 295.287748 515.171579 
L 294.197715 504.62378 
L 292.434582 504.174766 
L 284.087086 503.435371 
" clip-path="url(#pe62ef29743)" style="fill: none; stroke: #e6482f; stroke-width: 0.2"/>
    <path d="M 153.823736 509.299442 
L 153.235437 505.855208 
" clip-path="url(#pe62ef29743)" style="fill: none; stroke: #e6482f; stroke-width: 0.2"/>
    <path d="M 489.956672 596.763095 
L 490.564523 596.605275 
" clip-path="url(#pe62ef29743)" style="fill: none; stroke: #e6482f; stroke-width: 0.2"/>
    <path d="M 378.434116 555.60705 
L 385.020246 558.451703 
L 393.54971 562.952599 
L 415.205501 573.804222 
L 426.957363 578.875124 
L 436.292426 581.717088 
L 447.284622 584.844055 
L 458.230885 588.116212 
L 468.230214 591.479785 
L 482.858208 595.79516 
L 484.199108 595.886576 
L 485.810307 596.217287 
L 487.751873 596.693189 
L 489.956672 596.763095 
L 488.794206 598.634435 
L 487.988606 600.626768 
L 487.829811 602.448997 
" clip-path="url(#pe62ef29743)" style="fill: none; stroke: #e6482f; stroke-width: 0.2"/>
    <path d="M 491.277321 616.410469 
L 494.007637 622.897331 
L 499.314702 632.990739 
" clip-path="url(#pe62ef29743)" style="fill: none; stroke: #e6482f; stroke-width: 0.2"/>
    <path d="M 313.088674 541.453694 
L 334.1809 594.991237 
L 342.66973 615.691595 
L 344.583029 623.695877 
" clip-path="url(#pe62ef29743)" style="fill: none; stroke: #e6482f; stroke-width: 0.2"/>
    <path d="M 486.549781 605.136899 
L 483.534841 597.68801 
L 482.858208 595.79516 
L 481.188709 590.791476 
L 477.65891 581.386377 
L 474.247478 572.572794 
L 473.489579 570.580462 
L 472.779379 567.074388 
L 472.683979 564.611532 
L 473.062045 557.31438 
L 473.915345 548.215794 
L 473.915345 546.745071 
L 473.726312 545.465246 
L 472.636279 542.101673 
L 471.07278 539.259709 
L 464.771082 531.535053 
L 457.709718 521.86915 
L 453.397286 515.375921 
L 451.595287 513.5476 
" clip-path="url(#pe62ef29743)" style="fill: none; stroke: #e6482f; stroke-width: 0.2"/>
    <path d="M 514.901283 488.207746 
L 514.638763 488.910974 
L 510.006564 497.380402 
L 499.422469 504.930293 
L 491.163305 508.648775 
L 482.080875 511.34286 
L 472.210512 512.533957 
L 462.822449 513.109341 
L 451.595287 513.5476 
L 442.277891 513.910576 
L 420.611499 513.109341 
L 405.043639 510.861581 
L 386.908812 509.576379 
L 373.907917 508.936467 
L 355.864958 514.19289 
L 350.95716 518.244772 
L 341.510797 523.694782 
" clip-path="url(#pe62ef29743)" style="fill: none; stroke: #e6482f; stroke-width: 0.2"/>
    <path d="M 381.427604 385.229881 
L 379.681382 385.471022 
L 371.496418 389.805218 
L 363.309688 391.730333 
L 357.933724 392.475105 
L 353.366892 395.023999 
L 351.914693 398.148277 
L 342.766896 402.643796 
L 335.705532 406.332703 
L 327.520569 407.297949 
L 320.778971 406.813981 
L 309.223209 411.148178 
L 298.951813 411.790779 
L 287.556818 412.592014 
L 279.532621 411.148178 
L 271.393591 414.920434 
" clip-path="url(#pe62ef29743)" style="fill: none; stroke: #e6482f; stroke-width: 0.2"/>
    <path d="M 181.735292 492.110536 
L 182.729925 502.31418 
" clip-path="url(#pe62ef29743)" style="fill: none; stroke: #e6482f; stroke-width: 0.2"/>
    <path d="M 198.350786 485.455985 
L 193.345821 487.418741 
L 189.932622 489.550886 
L 188.08469 491.303924 
L 188.890289 498.461263 
" clip-path="url(#pe62ef29743)" style="fill: none; stroke: #e6482f; stroke-width: 0.2"/>
    <path d="M 173.855962 501.776439 
L 169.142497 479.247759 
L 163.020999 445.536746 
L 159.401101 426.479187 
L 158.743901 423.02151 
L 155.275936 416.05238 
L 146.221773 402.549691 
" clip-path="url(#pe62ef29743)" style="fill: none; stroke: #e6482f; stroke-width: 0.2"/>
    <path d="M 156.431335 430.227246 
L 159.212068 446.413264 
" clip-path="url(#pe62ef29743)" style="fill: none; stroke: #e6482f; stroke-width: 0.2"/>
    <path d="M 195.51352 455.363971 
L 217.842411 456.149074 
L 239.734936 458.614619 
L 245.231034 459.181936 
L 249.817299 457.334794 
L 252.149298 453.401215 
L 254.896464 437.150667 
L 256.041263 431.243577 
L 271.393591 414.920434 
" clip-path="url(#pe62ef29743)" style="fill: none; stroke: #e6482f; stroke-width: 0.2"/>
    <path d="M 201.352351 503.446126 
L 202.924684 502.881498 
L 198.350786 485.455985 
L 195.51352 455.363971 
L 194.001254 441.334296 
L 190.936089 425.82852 
L 189.310756 417.079466 
L 182.993158 400.982175 
L 179.90326 393.346246 
L 171.735963 378.157738 
L 162.402666 366.499502 
L 153.49337 355.225752 
L 150.792137 351.480382 
L 147.571505 345.842163 
L 144.49044 340.298048 
L 142.121341 336.649472 
L 139.847642 331.487154 
L 138.045642 327.128759 
L 137.429076 325.545111 
L 135.53521 320.683928 
L 132.454145 314.381597 
L 129.185813 307.229636 
L 127.715946 303.486955 
L 126.862647 300.123382 
L 126.530514 297.94284 
L 126.009347 299.838379 
L 125.488181 301.497311 
L 125.299147 303.58106 
L 125.678981 305.570703 
L 126.057047 306.850528 
L 126.958047 309.219279 
L 127.35908 309.969428 
L 128.521546 312.147281 
" clip-path="url(#pe62ef29743)" style="fill: none; stroke: #e6482f; stroke-width: 0.2"/>
    <path d="M 177.95816 161.248954 
L 175.119128 199.243079 
L 173.977862 223.403804 
L 174.262295 254.19757 
L 174.537895 270.983171 
L 184.867591 293.251046 
L 217.351278 339.061243 
L 226.916008 355.228441 
L 240.602369 376.149273 
L 263.90646 406.867755 
L 271.393591 414.920434 
L 297.275247 438.597192 
L 315.471907 458.689902 
L 324.93947 469.88568 
L 331.393101 481.527783 
L 340.206997 515.359789 
L 341.510797 523.694782 
L 342.860529 532.325533 
L 349.683393 545.591615 
L 372.040551 583.042621 
L 405.124905 639.422127 
" clip-path="url(#pe62ef29743)" style="fill: none; stroke: #e6482f; stroke-width: 0.2"/>
    <path d="M 211.505381 365.249253 
L 226.916008 355.228441 
" clip-path="url(#pe62ef29743)" style="fill: none; stroke: #e6482f; stroke-width: 0.2"/>
    <path d="M 331.979663 320.987675 
L 330.930234 322.721968 
L 328.038202 327.435272 
L 325.930569 331.202151 
L 324.130337 335.893945 
L 323.939537 338.262697 
L 323.845904 340.109839 
L 323.181637 342.857698 
L 322.234704 345.511452 
L 320.764838 347.880203 
L 318.017672 350.106453 
L 303.564578 358.16182 
L 297.736347 361.052181 
L 294.892015 361.288787 
L 289.206884 360.57628 
L 285.274285 359.441645 
L 278.497354 357.828421 
L 271.579091 356.454491 
L 268.119959 355.793069 
L 264.376393 355.365565 
L 260.300695 354.843955 
L 257.269096 354.276638 
L 254.852297 353.755029 
L 252.151065 353.139315 
L 248.785566 352.050388 
L 246.511867 351.528779 
L 243.953735 351.671281 
L 241.725969 352.71181 
L 237.224504 355.459669 
" clip-path="url(#pe62ef29743)" style="fill: none; stroke: #e6482f; stroke-width: 0.2"/>
    <path d="M 357.933724 392.475105 
L 342.846396 372.471121 
L 334.1279 358.729138 
L 330.052201 352.381099 
L 327.967535 347.643597 
L 323.845904 340.109839 
L 317.637839 331.72376 
L 309.724942 321.49054 
L 305.128077 315.282314 
L 298.02078 305.855706 
L 295.319548 302.20713 
L 292.429282 297.800339 
L 290.818083 295.668194 
L 290.159117 294.861581 
L 280.392987 290.78819 
L 276.601722 289.271759 
L 271.579091 286.193189 
L 266.035293 282.308006 
L 257.979296 277.333898 
L 253.573231 274.774248 
L 248.976366 270.985859 
L 242.720602 265.441745 
L 238.171437 261.462458 
L 234.618672 258.241386 
L 233.528639 257.149771 
" clip-path="url(#pe62ef29743)" style="fill: none; stroke: #e6482f; stroke-width: 0.2"/>
    <path d="M 139.460742 450.951802 
L 136.831943 451.166899 
L 134.256144 448.612627 
L 129.798846 447.053177 
L 121.921282 444.705935 
L 113.934185 442.32374 
L 104.470156 439.503286 
L 92.705927 435.997212 
L 91.027594 437.954591 
" clip-path="url(#pe62ef29743)" style="fill: none; stroke: #e6482f; stroke-width: 0.2"/>
    <path d="M 159.401101 426.479187 
L 156.242302 427.43099 
L 153.825503 428.143497 
L 152.309704 428.804919 
L 151.313304 429.848138 
L 151.030637 431.364569 
L 150.698504 433.071898 
L 149.940604 438.33101 
L 147.380705 443.353515 
L 144.085873 449.889763 
" clip-path="url(#pe62ef29743)" style="fill: none; stroke: #e6482f; stroke-width: 0.2"/>
    <path d="M 133.825077 424.433081 
L 142.529441 407.596395 
L 146.221773 402.549691 
" clip-path="url(#pe62ef29743)" style="fill: none; stroke: #e6482f; stroke-width: 0.2"/>
    <path d="M 64.978104 419.757419 
L 64.218438 418.523302 
L 61.234539 411.417048 
L 58.437907 403.504182 
L 57.91674 400.756323 
L 56.874407 397.39275 
L 55.406308 393.034356 
L 52.277542 384.551484 
L 49.71941 376.875224 
L 48.155911 371.522008 
L 46.544711 366.168791 
L 45.028912 361.097889 
L 44.412346 358.207528 
L 44.412346 357.118602 
L 44.460046 355.177355 
L 44.790412 353.612527 
L 45.217945 352.096096 
L 45.880445 351.00717 
L 46.922778 349.727345 
L 49.102844 348.401812 
L 50.189343 347.982374 
" clip-path="url(#pe62ef29743)" style="fill: none; stroke: #e6482f; stroke-width: 0.2"/>
    <path d="M 91.027594 437.954591 
L 88.948228 440.108245 
L 87.344095 445.106552 
L 83.77543 451.411571 
L 81.277365 455.294065 
L 79.099065 457.377813 
L 76.3254 458.619996 
L 64.263692 459.707526 
" clip-path="url(#pe62ef29743)" style="fill: none; stroke: #e6482f; stroke-width: 0.2"/>
    <path d="M 37.37352 347.048757 
L 44.405279 347.517228 
L 50.189343 347.982374 
L 69.182769 346.670285 
L 74.583467 341.588628 
L 78.182166 334.071002 
L 92.690027 322.635929 
L 100.20719 317.449412 
L 102.431423 310.039335 
L 112.128653 300.889663 
L 116.107184 297.800339 
L 119.647583 293.527982 
L 121.840015 290.409082 
L 123.716215 286.760506 
L 124.730281 283.730333 
L 126.295547 281.205636 
L 129.090413 278.65943 
L 132.454145 277.285501 
L 135.960977 275.817467 
L 138.709909 274.871042 
L 140.829908 273.927305 
" clip-path="url(#pe62ef29743)" style="fill: none; stroke: #e6482f; stroke-width: 0.2"/>
    <path d="M 146.221773 402.549691 
L 144.709507 398.893049 
L 140.686808 394.187811 
L 134.992844 389.329317 
L 131.879978 381.585839 
L 131.044345 375.436766 
L 128.38728 371.793567 
L 126.03408 368.8333 
L 124.288614 363.670982 
L 125.882147 359.191595 
L 128.311313 354.865465 
L 130.056779 352.741386 
L 132.713845 343.707329 
L 132.865778 339.835591 
L 132.349911 337.655049 
L 129.949012 331.492531 
L 128.758279 327.45947 
L 128.756513 325.440251 
L 128.853679 318.836786 
L 128.521546 312.147281 
" clip-path="url(#pe62ef29743)" style="fill: none; stroke: #e6482f; stroke-width: 0.2"/>
    <path d="M 91.027594 437.954591 
L 58.591461 417.170192 
" clip-path="url(#pe62ef29743)" style="fill: none; stroke: #e6482f; stroke-width: 0.2"/>
    <path d="M 128.756513 325.440251 
L 130.037346 325.894643 
L 131.318178 326.701255 
L 132.501845 327.411073 
L 133.924011 327.790181 
L 135.724243 327.838578 
L 136.671176 326.986258 
L 137.429076 325.545111 
" clip-path="url(#pe62ef29743)" style="fill: none; stroke: #e6482f; stroke-width: 0.2"/>
    <path d="M 129.185813 307.229636 
L 128.473846 308.176061 
L 127.35908 309.969428 
" clip-path="url(#pe62ef29743)" style="fill: none; stroke: #e6482f; stroke-width: 0.2"/>
    <path d="M 126.530514 297.94284 
L 126.152447 294.388369 
L 125.726681 288.513543 
L 125.915714 285.765684 
L 126.152447 282.972117 
L 126.295547 281.205636 
L 126.814947 273.448715 
L 126.862647 270.321749 
L 127.19478 266.530671 
L 127.525147 262.744971 
" clip-path="url(#pe62ef29743)" style="fill: none; stroke: #e6482f; stroke-width: 0.2"/>
    <path d="M 120.038016 174.15475 
L 119.753583 190.451006 
L 118.331417 210.441546 
L 120.170516 226.124776 
L 124.246214 245.833001 
L 127.525147 262.744971 
L 131.258112 267.436766 
L 135.20131 271.082653 
L 140.829908 273.927305 
L 142.167274 274.543019 
L 144.716573 275.916949 
L 149.131471 278.807309 
L 156.809402 286.150169 
L 158.989468 289.938558 
L 171.310196 301.309102 
L 174.721628 308.512149 
L 197.087619 341.677355 
L 211.505381 365.249253 
L 228.361141 394.553475 
L 242.605768 414.229436 
L 253.855897 429.380303 
L 256.041263 431.243577 
L 260.618695 434.604461 
L 274.243223 448.706732 
" clip-path="url(#pe62ef29743)" style="fill: none; stroke: #e6482f; stroke-width: 0.2"/>
    <path d="M 328.45938 315.060629 
L 327.119536 314.050886 
L 321.443238 308.017427 
L 298.649713 299.300637 
L 290.159117 294.861581 
L 278.023888 274.680143 
L 267.706559 254.009361 
L 249.036433 217.340769 
L 246.4094 212.993129 
L 227.619141 181.903605 
L 211.024847 155.105258 
L 193.216854 133.961263 
L 183.719258 104.372037 
L 180.991526 95.875722 
" clip-path="url(#pe62ef29743)" style="fill: none; stroke: #e6482f; stroke-width: 0.2"/>
    <path d="M 120.038016 174.15475 
L 118.824317 157.065326 
L 116.343918 148.284007 
L 114.268085 142.476399 
L 112.743452 138.921928 
L 107.022988 125.973113 
L 98.456425 93.197769 
L 87.971262 62.635232 
L 86.213158 51.780008 
" clip-path="url(#pe62ef29743)" style="fill: none; stroke: #e6482f; stroke-width: 0.2"/>
    <path d="M 112.743452 138.921928 
L 114.541918 135.684724 
L 114.732718 127.91436 
L 116.817384 113.513643 
L 117.764317 106.786497 
L 117.101817 101.76668 
L 114.163852 90.587034 
L 112.837086 85.376319 
L 112.031486 77.939355 
L 111.082786 72.255427 
L 112.932486 66.095598 
L 115.822751 60.460068 
L 118.19185 58.137024 
L 119.381029 56.891364 
" clip-path="url(#pe62ef29743)" style="fill: none; stroke: #e6482f; stroke-width: 0.2"/>
    <path d="M 184.072869 78.69933 
L 180.991526 95.875722 
L 179.853793 116.718582 
L 178.518193 151.031866 
L 177.95816 161.248954 
" clip-path="url(#pe62ef29743)" style="fill: none; stroke: #e6482f; stroke-width: 0.2"/>
    <path d="M 499.037335 659.55248 
L 504.9857 643.855806 
L 505.731289 641.966197 
" clip-path="url(#pe62ef29743)" style="fill: none; stroke: #e6482f; stroke-width: 0.2"/>
   </g>
  </g>
 </g>
 <defs>
  <clipPath id="pe62ef29743">
   <rect x="7.2" y="7.2" width="558.148436" height="831.6"/>
  </clipPath>
 </defs>
</svg>
