<?xml version="1.0" encoding="utf-8" standalone="no"?>
<!DOCTYPE svg PUBLIC "-//W3C//DTD SVG 1.1//EN"
  "http://www.w3.org/Graphics/SVG/1.1/DTD/svg11.dtd">
<svg xmlns:xlink="http://www.w3.org/1999/xlink" width="851.4pt" height="685.956139pt" viewBox="0 0 851.4 685.956139" xmlns="http://www.w3.org/2000/svg" version="1.1">
 <metadata>
  <rdf:RDF xmlns:dc="http://purl.org/dc/elements/1.1/" xmlns:cc="http://creativecommons.org/ns#" xmlns:rdf="http://www.w3.org/1999/02/22-rdf-syntax-ns#">
   <cc:Work>
    <dc:type rdf:resource="http://purl.org/dc/dcmitype/StillImage"/>
    <dc:date>2025-03-16T14:29:51.939286</dc:date>
    <dc:format>image/svg+xml</dc:format>
    <dc:creator>
     <cc:Agent>
      <dc:title>Matplotlib v3.10.1, https://matplotlib.org/</dc:title>
     </cc:Agent>
    </dc:creator>
   </cc:Work>
  </rdf:RDF>
 </metadata>
 <defs>
  <style type="text/css">*{stroke-linejoin: round; stroke-linecap: butt}</style>
 </defs>
 <g id="figure_1">
  <g id="patch_1">
   <path d="M 0 685.956139 
L 851.4 685.956139 
L 851.4 0 
L 0 0 
z
" style="fill: #ffffff"/>
  </g>
  <g id="axes_1">
   <g id="PatchCollection_1">
    <path d="M 45.245455 40.185474 
L 47.642436 69.400745 
L 49.815929 95.882057 
L 53.106867 135.970278 
L 61.862236 242.639131 
L 74.581466 324.69494 
L 86.890557 408.189871 
L 95.712236 469.117604 
L 107.201048 495.173468 
L 110.121141 499.879284 
L 121.970974 518.972613 
L 129.972375 562.87876 
L 130.75827 569.423247 
L 140.230769 648.23086 
L 151.262779 646.344094 
L 159.04069 645.459904 
L 251.832865 629.14863 
L 265.782513 619.711102 
L 299.428671 628.123857 
L 366.102094 618.889804 
L 419.236008 611.708996 
L 469.705245 603.29624 
L 491.039856 605.349485 
L 512.170626 614.16919 
L 527.14685 628.327332 
L 606.13182 617.657857 
L 604.284965 590.780695 
L 627.056292 588.3205 
L 630.339862 595.090659 
L 642.442656 595.911957 
L 654.547905 593.244589 
L 653.72517 574.983656 
L 704.808388 566.367427 
L 806.154545 548.927792 
L 786.870631 503.586223 
L 771.688109 471.581498 
L 771.074128 454.963162 
L 789.331466 441.219369 
L 800.410139 433.627912 
L 794.872031 405.933151 
L 790.065788 400.22476 
L 785.023776 394.238903 
L 756.918182 362.644827 
L 750.1472 353.003824 
L 724.70874 321.616922 
L 708.912237 307.873129 
L 686.961189 297.000179 
L 682.85734 298.84625 
L 677.729371 297.410828 
L 657.829019 292.48674 
L 631.98042 285.923755 
L 620.427753 282.771747 
L 610.694927 280.119176 
L 593.616432 275.461454 
L 538.431821 260.692889 
L 513.401044 247.15257 
L 504.250271 236.60148 
L 493.296851 223.971249 
L 482.228001 206.198656 
L 479.757342 202.229049 
L 411.851045 169.203251 
L 389.696155 166.535882 
L 350.71573 157.305528 
L 304.55664 152.792089 
L 208.544749 154.845334 
L 200.339507 152.385139 
L 193.364683 145.61498 
L 181.875871 108.282916 
L 179.618877 89.618734 
L 178.592301 79.977732 
L 120.330417 105.204899 
L 110.892301 106.229671 
L 101.456642 100.487984 
L 82.582866 86.540717 
L 75.831531 37.725279 
L 45.245455 40.185474 
" clip-path="url(#p961d56eddc)" style="fill: #d1d4f2"/>
   </g>
   <g id="PatchCollection_2">
    <path d="M 474.351853 576.748337 
L 481.326677 575.51639 
L 483.478067 587.713776 
L 476.503243 588.945723 
L 474.351853 576.748337 
" clip-path="url(#p961d56eddc)" style="fill: #4d59c1"/>
    <path d="M 482.59639 581.909196 
L 507.113879 577.921092 
L 507.813817 582.231056 
L 483.298784 586.219161 
L 482.59639 581.909196 
" clip-path="url(#p961d56eddc)" style="fill: #4d59c1"/>
    <path d="M 518.504454 576.204505 
L 542.513566 571.924136 
L 543.355948 576.64475 
L 519.346836 580.925119 
L 518.504454 576.204505 
" clip-path="url(#p961d56eddc)" style="fill: #4d59c1"/>
    <path d="M 625.499236 568.946006 
L 557.030533 579.900346 
L 556.15868 576.637351 
L 563.848178 575.693968 
L 563.484701 572.645547 
L 577.40979 570.68849 
L 577.702045 573.518638 
L 625.428014 565.609021 
L 625.499236 568.946006 
" clip-path="url(#p961d56eddc)" style="fill: #4d59c1"/>
    <path d="M 458.520968 560.148499 
L 461.087408 576.748337 
L 454.810066 577.717617 
L 452.246082 561.117778 
L 458.520968 560.148499 
" clip-path="url(#p961d56eddc)" style="fill: #4d59c1"/>
    <path d="M 557.131226 564.203195 
L 589.409434 558.764871 
L 590.283743 563.951627 
L 558.005535 569.389951 
L 557.131226 564.203195 
" clip-path="url(#p961d56eddc)" style="fill: #4d59c1"/>
    <path d="M 472.89549 568.687038 
L 467.207571 569.604525 
L 463.314931 545.505717 
L 469.002851 544.584532 
L 472.89549 568.687038 
" clip-path="url(#p961d56eddc)" style="fill: #4d59c1"/>
    <path d="M 544.913004 565.61272 
L 539.342969 566.326732 
L 536.243593 542.128037 
L 541.813628 541.417725 
L 544.913004 565.61272 
" clip-path="url(#p961d56eddc)" style="fill: #4d59c1"/>
    <path d="M 555.090353 551.310296 
L 587.511005 545.653699 
L 588.323916 550.311421 
L 555.903264 555.971718 
L 555.090353 551.310296 
" clip-path="url(#p961d56eddc)" style="fill: #4d59c1"/>
    <path d="M 481.412635 539.212799 
L 484.895135 561.043788 
L 479.489646 561.905781 
L 476.007146 540.074792 
L 481.412635 539.212799 
" clip-path="url(#p961d56eddc)" style="fill: #4d59c1"/>
    <path d="M 463.007941 588.742248 
L 455.718758 589.966796 
L 454.63324 583.503698 
L 449.389842 584.384189 
L 450.35502 590.136975 
L 435.007952 592.711855 
L 433.612987 584.398987 
L 448.729199 581.857403 
L 448.87901 582.752692 
L 454.350809 581.831506 
L 454.04873 580.02983 
L 461.337912 578.805282 
L 463.007941 588.742248 
" clip-path="url(#p961d56eddc)" style="fill: #4d59c1"/>
    <path d="M 415.93279 569.8006 
L 425.43476 568.058117 
L 428.772361 586.278354 
L 419.270391 588.017138 
L 415.93279 569.8006 
" clip-path="url(#p961d56eddc)" style="fill: #4d59c1"/>
    <path d="M 388.932363 509.435197 
L 390.128398 517.659276 
L 385.712646 518.299296 
L 384.514156 510.075218 
L 388.932363 509.435197 
" clip-path="url(#p961d56eddc)" style="fill: #4d59c1"/>
    <path d="M 410.379946 505.872539 
L 414.876743 505.291712 
L 415.915599 513.349311 
L 411.418802 513.930139 
L 410.379946 505.872539 
" clip-path="url(#p961d56eddc)" style="fill: #4d59c1"/>
    <path d="M 355.377074 504.733081 
L 369.975086 502.339478 
L 370.746246 507.037895 
L 356.148234 509.435197 
L 355.377074 504.733081 
" clip-path="url(#p961d56eddc)" style="fill: #4d59c1"/>
    <path d="M 374.245938 501.99912 
L 388.318382 499.531527 
L 389.15094 504.285437 
L 375.078496 506.749331 
L 374.245938 501.99912 
" clip-path="url(#p961d56eddc)" style="fill: #4d59c1"/>
    <path d="M 391.884383 498.628839 
L 405.809472 496.309227 
L 406.632207 501.237015 
L 392.704662 503.560327 
L 391.884383 498.628839 
" clip-path="url(#p961d56eddc)" style="fill: #4d59c1"/>
    <path d="M 422.588344 494.27448 
L 423.337401 499.350249 
L 409.554756 501.381297 
L 408.808155 496.305528 
L 422.588344 494.27448 
" clip-path="url(#p961d56eddc)" style="fill: #4d59c1"/>
    <path d="M 441.936113 490.819109 
L 447.373529 489.894224 
L 449.775422 504.041267 
L 444.340463 504.966152 
L 441.936113 490.819109 
" clip-path="url(#p961d56eddc)" style="fill: #4d59c1"/>
    <path d="M 426.345908 493.22751 
L 440.054875 491.05218 
L 440.86533 496.161245 
L 427.158819 498.336575 
L 426.345908 493.22751 
" clip-path="url(#p961d56eddc)" style="fill: #4d59c1"/>
    <path d="M 505.181066 548.990685 
L 529.261401 545.217153 
L 529.971163 549.745391 
L 505.890829 553.518922 
L 505.181066 548.990685 
" clip-path="url(#p961d56eddc)" style="fill: #4d59c1"/>
    <path d="M 486.631473 521.902649 
L 491.737339 521.136844 
L 495.212471 544.307066 
L 490.109061 545.072871 
L 486.631473 521.902649 
" clip-path="url(#p961d56eddc)" style="fill: #4d59c1"/>
    <path d="M 475.616654 507.533633 
L 478.951799 529.22034 
L 473.541398 530.052736 
L 470.203798 508.36603 
L 475.616654 507.533633 
" clip-path="url(#p961d56eddc)" style="fill: #4d59c1"/>
    <path d="M 462.001012 502.417169 
L 465.591573 524.214861 
L 460.085391 525.121249 
L 456.49483 503.323556 
L 462.001012 502.417169 
" clip-path="url(#p961d56eddc)" style="fill: #4d59c1"/>
    <path d="M 501.9196 507.748206 
L 526.147289 504.192948 
L 526.798109 508.636096 
L 518.047652 509.919837 
L 502.572875 512.191355 
L 501.9196 507.748206 
" clip-path="url(#p961d56eddc)" style="fill: #4d59c1"/>
    <path d="M 454.203453 488.037054 
L 476.564641 484.703768 
L 477.230196 489.172813 
L 471.679808 490.00151 
L 454.869009 492.506099 
L 454.203453 488.037054 
" clip-path="url(#p961d56eddc)" style="fill: #4d59c1"/>
    <path d="M 481.741728 483.96386 
L 504.660411 480.552884 
L 505.338246 485.103319 
L 482.417107 488.514295 
L 481.741728 483.96386 
" clip-path="url(#p961d56eddc)" style="fill: #4d59c1"/>
    <path d="M 508.960733 479.598402 
L 531.881872 476.409398 
L 532.510588 480.915439 
L 509.58945 484.108142 
L 508.960733 479.598402 
" clip-path="url(#p961d56eddc)" style="fill: #4d59c1"/>
    <path d="M 460.294145 476.723859 
L 474.074334 474.837094 
L 474.739889 479.694591 
L 460.957244 481.581356 
L 460.294145 476.723859 
" clip-path="url(#p961d56eddc)" style="fill: #4d59c1"/>
    <path d="M 454.837082 464.537573 
L 457.759631 481.821826 
L 452.545705 482.706017 
L 449.623155 465.421763 
L 454.837082 464.537573 
" clip-path="url(#p961d56eddc)" style="fill: #4d59c1"/>
    <path d="M 318.793631 538.957531 
L 305.34008 541.062569 
L 304.735922 537.215047 
L 313.3292 535.868414 
L 311.182723 522.176415 
L 300.831003 523.796813 
L 299.806883 517.256026 
L 315.023788 514.873522 
L 318.793631 538.957531 
" clip-path="url(#p961d56eddc)" style="fill: #4d59c1"/>
    <path d="M 288.67418 503.101584 
L 291.734261 502.720531 
L 291.822674 503.419744 
L 296.847495 502.794522 
L 295.909332 495.228961 
L 300.831003 494.618537 
L 302.257895 506.098211 
L 289.248866 507.714911 
L 288.67418 503.101584 
" clip-path="url(#p961d56eddc)" style="fill: #4d59c1"/>
    <path d="M 317.612331 498.824915 
L 320.83696 498.340275 
L 320.954844 499.128277 
L 325.734072 498.410566 
L 325.613732 497.626264 
L 329.722492 497.00844 
L 330.400327 501.529279 
L 318.290166 503.342054 
L 317.612331 498.824915 
" clip-path="url(#p961d56eddc)" style="fill: #4d59c1"/>
    <path d="M 313.299729 492.605987 
L 314.967301 504.503709 
L 309.291661 505.299111 
L 307.624089 493.405088 
L 313.299729 492.605987 
" clip-path="url(#p961d56eddc)" style="fill: #4d59c1"/>
    <path d="M 292.930296 480.116338 
L 298.871176 479.406026 
L 300.452791 492.635583 
L 294.511911 493.345895 
L 292.930296 480.116338 
" clip-path="url(#p961d56eddc)" style="fill: #4d59c1"/>
    <path d="M 310.404195 477.84482 
L 312.147901 488.873151 
L 307.172199 489.661153 
L 305.428493 478.632822 
L 310.404195 477.84482 
" clip-path="url(#p961d56eddc)" style="fill: #4d59c1"/>
    <path d="M 296.245793 463.716275 
L 298.041074 477.053119 
L 292.399816 477.811524 
L 290.604536 464.47838 
L 296.245793 463.716275 
" clip-path="url(#p961d56eddc)" style="fill: #4d59c1"/>
    <path d="M 302.906259 462.880179 
L 308.547516 461.955294 
L 310.504888 473.915908 
L 304.86363 474.837094 
L 302.906259 462.880179 
" clip-path="url(#p961d56eddc)" style="fill: #4d59c1"/>
    <path d="M 306.673646 447.083141 
L 308.520501 459.036356 
L 303.171499 459.861354 
L 301.324644 447.911838 
L 306.673646 447.083141 
" clip-path="url(#p961d56eddc)" style="fill: #4d59c1"/>
    <path d="M 322.04773 444.678439 
L 322.782051 449.628424 
L 311.182723 451.348711 
L 310.448401 446.402425 
L 322.04773 444.678439 
" clip-path="url(#p961d56eddc)" style="fill: #4d59c1"/>
    <path d="M 354.564163 492.74657 
L 357.530919 492.33962 
L 357.670907 493.364393 
L 363.39321 492.576391 
L 363.250766 491.551618 
L 366.67678 491.078077 
L 367.246554 495.217863 
L 355.133937 496.886355 
L 354.564163 492.74657 
" clip-path="url(#p961d56eddc)" style="fill: #4d59c1"/>
    <path d="M 390.032617 487.504321 
L 404.539759 485.473273 
L 405.251977 490.574939 
L 390.74729 492.605987 
L 390.032617 487.504321 
" clip-path="url(#p961d56eddc)" style="fill: #4d59c1"/>
    <path d="M 370.954999 492.247132 
L 371.738439 492.121347 
L 370.807644 486.165087 
L 370.024204 486.287172 
L 369.567402 483.371934 
L 375.211116 482.491443 
L 377.055515 494.289278 
L 371.411801 495.169769 
L 370.954999 492.247132 
" clip-path="url(#p961d56eddc)" style="fill: #4d59c1"/>
    <path d="M 407.474588 483.919466 
L 411.175666 483.338638 
L 412.072078 489.050729 
L 408.371001 489.631556 
L 407.474588 483.919466 
" clip-path="url(#p961d56eddc)" style="fill: #4d59c1"/>
    <path d="M 380.658355 479.768581 
L 385.582482 478.999077 
L 387.770711 493.016636 
L 382.849039 493.78614 
L 380.658355 479.768581 
" clip-path="url(#p961d56eddc)" style="fill: #4d59c1"/>
    <path d="M 438.109784 485.132915 
L 431.798059 486.272374 
L 430.913927 481.374182 
L 437.225651 480.234723 
L 438.109784 485.132915 
" clip-path="url(#p961d56eddc)" style="fill: #4d59c1"/>
    <path d="M 438.964445 470.749101 
L 444.760426 469.87601 
L 446.852873 483.782583 
L 441.056892 484.655674 
L 438.964445 470.749101 
" clip-path="url(#p961d56eddc)" style="fill: #4d59c1"/>
    <path d="M 373.924211 479.679792 
L 369.036923 480.497391 
L 368.459781 477.04202 
L 369.515828 476.868142 
L 368.523635 470.937778 
L 367.467587 471.115356 
L 366.986226 468.240813 
L 371.873515 467.423214 
L 373.924211 479.679792 
" clip-path="url(#p961d56eddc)" style="fill: #4d59c1"/>
    <path d="M 383.566169 467.678483 
L 384.742556 474.444942 
L 380.024727 475.26624 
L 378.848339 468.499781 
L 383.566169 467.678483 
" clip-path="url(#p961d56eddc)" style="fill: #4d59c1"/>
    <path d="M 442.407651 458.333443 
L 443.537376 466.383644 
L 438.696749 467.06066 
L 437.56948 459.010459 
L 442.407651 458.333443 
" clip-path="url(#p961d56eddc)" style="fill: #4d59c1"/>
    <path d="M 509.33649 470.009193 
L 530.951076 466.890481 
L 531.530674 470.91928 
L 509.916088 474.037993 
L 509.33649 470.009193 
" clip-path="url(#p961d56eddc)" style="fill: #4d59c1"/>
    <path d="M 476.70954 461.285677 
L 482.100293 460.601262 
L 484.313081 478.026098 
L 478.922328 478.710513 
L 476.70954 461.285677 
" clip-path="url(#p961d56eddc)" style="fill: #4d59c1"/>
    <path d="M 454.660255 458.433331 
L 473.020742 455.614281 
L 473.676474 459.883551 
L 455.315987 462.702601 
L 454.660255 458.433331 
" clip-path="url(#p961d56eddc)" style="fill: #4d59c1"/>
    <path d="M 550.345508 450.14636 
L 553.086319 453.590632 
L 538.77565 464.977818 
L 536.034839 461.533546 
L 550.345508 450.14636 
" clip-path="url(#p961d56eddc)" style="fill: #4d59c1"/>
    <path d="M 595.696599 457.238379 
L 594.277075 455.70677 
L 593.505915 456.42448 
L 588.004645 450.494117 
L 585.801682 452.539963 
L 581.66345 448.078317 
L 583.574159 446.306237 
L 584.531969 447.334709 
L 587.498725 444.582251 
L 586.636696 443.653666 
L 588.38777 442.025869 
L 587.928512 441.53383 
L 589.527318 440.050314 
L 589.08034 439.569374 
L 590.703706 438.063661 
L 590.153579 437.468035 
L 591.698355 436.036312 
L 591.283304 435.592368 
L 594.559506 432.551345 
L 599.004729 437.34225 
L 595.998678 440.131704 
L 596.359699 440.520156 
L 594.679847 442.077662 
L 595.129281 442.566002 
L 593.695021 443.897836 
L 594.095337 444.326983 
L 592.206731 446.080565 
L 592.592311 446.494914 
L 591.504337 447.504888 
L 600.628095 457.341966 
L 603.715191 454.478522 
L 610.098137 461.359668 
L 607.485034 463.786566 
L 608.428109 464.80024 
L 606.087613 466.971871 
L 605.080685 465.887905 
L 603.815884 467.06066 
L 599.692388 462.617511 
L 585.673974 475.625096 
L 581.142794 470.738003 
L 595.696599 457.238379 
" clip-path="url(#p961d56eddc)" style="fill: #4d59c1"/>
    <path d="M 467.634901 444.51196 
L 468.383958 449.26217 
L 453.714724 451.570683 
L 452.965668 446.820473 
L 467.634901 444.51196 
" clip-path="url(#p961d56eddc)" style="fill: #4d59c1"/>
    <path d="M 514.12063 447.882241 
L 528.32815 436.343374 
L 530.958444 439.580472 
L 516.750924 451.119339 
L 514.12063 447.882241 
" clip-path="url(#p961d56eddc)" style="fill: #4d59c1"/>
    <path d="M 535.229296 430.997538 
L 546.101671 444.386175 
L 542.292533 447.478991 
L 531.420158 434.094054 
L 535.229296 430.997538 
" clip-path="url(#p961d56eddc)" style="fill: #4d59c1"/>
    <path d="M 479.892418 430.66458 
L 481.871892 434.896854 
L 469.356504 440.742128 
L 467.379485 436.509854 
L 479.892418 430.66458 
" clip-path="url(#p961d56eddc)" style="fill: #4d59c1"/>
    <path d="M 512.160802 431.63016 
L 527.188601 420.19118 
L 529.72557 423.528166 
L 514.700228 434.963446 
L 512.160802 431.63016 
" clip-path="url(#p961d56eddc)" style="fill: #4d59c1"/>
    <path d="M 382.249794 456.098921 
L 383.428637 464.204614 
L 378.231902 464.95932 
L 377.053059 456.857327 
L 382.249794 456.098921 
" clip-path="url(#p961d56eddc)" style="fill: #4d59c1"/>
    <path d="M 372.23208 463.934548 
L 366.347686 464.852034 
L 365.873693 461.82211 
L 366.765193 461.685227 
L 365.895796 456.124818 
L 365.004296 456.2654 
L 364.552406 453.36496 
L 370.436799 452.443775 
L 372.23208 463.934548 
" clip-path="url(#p961d56eddc)" style="fill: #4d59c1"/>
    <path d="M 440.543604 446.598501 
L 442.125219 454.770786 
L 437.112679 455.740065 
L 435.531064 447.56778 
L 440.543604 446.598501 
" clip-path="url(#p961d56eddc)" style="fill: #4d59c1"/>
    <path d="M 381.874037 452.443775 
L 376.372768 453.427853 
L 374.987627 445.684714 
L 380.488896 444.700636 
L 381.874037 452.443775 
" clip-path="url(#p961d56eddc)" style="fill: #4d59c1"/>
    <path d="M 370.436799 449.728312 
L 364.277342 450.734587 
L 362.226646 438.167248 
L 368.386103 437.160973 
L 370.436799 449.728312 
" clip-path="url(#p961d56eddc)" style="fill: #4d59c1"/>
    <path d="M 358.336462 439.106931 
L 359.026577 443.823845 
L 356.794142 444.153104 
L 356.683625 443.3836 
L 350.096837 444.345481 
L 350.231913 445.281464 
L 347.272525 445.714311 
L 346.557851 440.827217 
L 358.336462 439.106931 
" clip-path="url(#p961d56eddc)" style="fill: #4d59c1"/>
    <path d="M 438.29889 435.277907 
L 439.725782 443.938531 
L 435.01532 444.715435 
L 433.590884 436.05481 
L 438.29889 435.277907 
" clip-path="url(#p961d56eddc)" style="fill: #4d59c1"/>
    <path d="M 392.10296 433.753696 
L 392.933063 438.625991 
L 374.626606 441.741004 
L 373.796503 436.868709 
L 392.10296 433.753696 
" clip-path="url(#p961d56eddc)" style="fill: #4d59c1"/>
    <path d="M 447.786124 428.459653 
L 450.404139 446.350632 
L 446.199597 446.968455 
L 443.581582 429.073777 
L 447.786124 428.459653 
" clip-path="url(#p961d56eddc)" style="fill: #4d59c1"/>
    <path d="M 412.892357 430.487002 
L 413.688076 435.211315 
L 397.368461 437.967473 
L 396.572742 433.243159 
L 412.892357 430.487002 
" clip-path="url(#p961d56eddc)" style="fill: #4d59c1"/>
    <path d="M 559.422603 406.854337 
L 562.851072 410.3689 
L 559.154907 413.975952 
L 562.433565 417.335135 
L 569.614687 410.324506 
L 573.718536 414.530883 
L 566.537414 421.537813 
L 569.550833 424.626929 
L 570.803354 423.402381 
L 574.347252 427.03533 
L 557.477511 443.501985 
L 554.704773 440.660738 
L 556.782484 438.62969 
L 552.126053 433.860983 
L 557.109122 428.996087 
L 561.765554 433.768494 
L 567.38962 428.278376 
L 566.505487 427.371988 
L 568.322871 425.599909 
L 564.801076 421.992857 
L 563.263668 423.49117 
L 560.680036 420.845999 
L 562.214988 419.343985 
L 558.037462 415.063617 
L 555.728893 417.320337 
L 557.003518 418.626275 
L 554.928262 420.649923 
L 553.653637 419.343985 
L 545.669429 427.138917 
L 542.240959 423.624354 
L 559.422603 406.854337 
" clip-path="url(#p961d56eddc)" style="fill: #4d59c1"/>
    <path d="M 468.713052 414.375503 
L 477.488068 425.255851 
L 472.802165 429.036782 
L 464.027149 418.156433 
L 468.713052 414.375503 
" clip-path="url(#p961d56eddc)" style="fill: #4d59c1"/>
    <path d="M 504.947754 423.298794 
L 519.462264 411.552753 
L 521.930468 414.604874 
L 507.415957 426.347216 
L 504.947754 423.298794 
" clip-path="url(#p961d56eddc)" style="fill: #4d59c1"/>
    <path d="M 447.889273 420.842299 
L 461.055481 410.320806 
L 464.0689 414.094337 
L 448.545004 426.498897 
L 445.531586 422.725366 
L 447.889273 420.842299 
" clip-path="url(#p961d56eddc)" style="fill: #4d59c1"/>
    <path d="M 497.602085 414.220122 
L 512.268863 402.88473 
L 514.904069 406.295706 
L 500.234836 417.631098 
L 497.602085 414.220122 
" clip-path="url(#p961d56eddc)" style="fill: #4d59c1"/>
    <path d="M 574.062365 408.500632 
L 581.037189 401.064556 
L 590.657043 410.087735 
L 583.682219 417.523812 
L 574.062365 408.500632 
" clip-path="url(#p961d56eddc)" style="fill: #4d59c1"/>
    <path d="M 487.510694 399.562542 
L 496.025382 410.12843 
L 491.364038 413.887163 
L 482.84935 403.321275 
L 487.510694 399.562542 
" clip-path="url(#p961d56eddc)" style="fill: #4d59c1"/>
    <path d="M 479.04758 395.641029 
L 482.009424 399.373866 
L 466.335718 411.808021 
L 463.373873 408.075185 
L 479.04758 395.641029 
" clip-path="url(#p961d56eddc)" style="fill: #4d59c1"/>
    <path d="M 505.217905 402.781142 
L 496.425698 391.885996 
L 500.777595 388.375132 
L 509.569803 399.270278 
L 505.217905 402.781142 
" clip-path="url(#p961d56eddc)" style="fill: #4d59c1"/>
    <path d="M 495.288605 382.544656 
L 498.142388 386.12951 
L 484.288522 397.154141 
L 481.434738 393.569286 
L 495.288605 382.544656 
" clip-path="url(#p961d56eddc)" style="fill: #4d59c1"/>
    <path d="M 291.790747 432.447758 
L 293.364994 442.884162 
L 281.905653 444.615547 
L 281.139405 439.543477 
L 287.200625 438.625991 
L 286.39017 433.261657 
L 291.790747 432.447758 
" clip-path="url(#p961d56eddc)" style="fill: #4d59c1"/>
    <path d="M 303.606197 429.366041 
L 304.738378 436.350773 
L 311.821263 435.203916 
L 311.668996 434.267932 
L 316.241926 433.524324 
L 317.148162 439.125429 
L 300.735222 441.781699 
L 298.849073 430.135545 
L 303.606197 429.366041 
" clip-path="url(#p961d56eddc)" style="fill: #4d59c1"/>
    <path d="M 325.309197 432.173992 
L 326.109828 437.431039 
L 319.857046 438.381821 
L 319.056415 433.124774 
L 325.309197 432.173992 
" clip-path="url(#p961d56eddc)" style="fill: #4d59c1"/>
    <path d="M 339.172888 418.944435 
L 342.019304 434.756271 
L 329.778979 436.957498 
L 328.872743 431.922423 
L 335.859846 430.66458 
L 334.619605 423.768636 
L 333.823885 423.909219 
L 333.126403 420.0321 
L 339.172888 418.944435 
" clip-path="url(#p961d56eddc)" style="fill: #4d59c1"/>
    <path d="M 302.228424 415.344782 
L 302.859596 419.06652 
L 301.167465 419.351385 
L 301.747063 422.780859 
L 303.380252 422.503393 
L 304.028616 426.343516 
L 297.969852 427.364589 
L 296.113173 416.376954 
L 302.228424 415.344782 
" clip-path="url(#p961d56eddc)" style="fill: #4d59c1"/>
    <path d="M 310.917483 398.300999 
L 311.737761 403.857709 
L 306.597513 404.616115 
L 306.435422 403.517351 
L 298.853984 404.638312 
L 299.939503 411.985599 
L 295.511472 412.640418 
L 293.767766 400.827785 
L 310.917483 398.300999 
" clip-path="url(#p961d56eddc)" style="fill: #4d59c1"/>
    <path d="M 354.016492 396.466027 
L 355.794581 410.220918 
L 349.097276 411.086611 
L 347.611442 399.588439 
L 346.417863 399.74382 
L 346.125608 397.4871 
L 354.016492 396.466027 
" clip-path="url(#p961d56eddc)" style="fill: #4d59c1"/>
    <path d="M 335.103422 394.616256 
L 337.574081 410.820244 
L 332.62785 411.57495 
L 330.817834 399.688327 
L 324.196664 400.698301 
L 323.538476 396.377238 
L 335.103422 394.616256 
" clip-path="url(#p961d56eddc)" style="fill: #4d59c1"/>
    <path d="M 320.773106 396.995061 
L 321.573737 402.185516 
L 314.569442 403.265782 
L 313.76881 398.075327 
L 320.773106 396.995061 
" clip-path="url(#p961d56eddc)" style="fill: #4d59c1"/>
    <path d="M 306.04493 386.554958 
L 305.224651 386.710338 
L 304.148956 384.194651 
L 304.301224 381.272014 
L 304.969235 381.272014 
L 304.097382 375.271359 
L 314.662767 373.580669 
L 315.431471 378.452964 
L 317.123603 378.811819 
L 318.405595 379.888386 
L 318.715041 381.78625 
L 318.405595 383.273465 
L 317.740039 384.246444 
L 316.561196 385.681866 
L 317.278326 390.043624 
L 307.019931 391.993282 
L 306.04493 386.554958 
" clip-path="url(#p961d56eddc)" style="fill: #4d59c1"/>
    <path d="M 437.481067 426.787461 
L 438.254683 431.585765 
L 419.832798 434.560196 
L 419.056726 429.761892 
L 437.481067 426.787461 
" clip-path="url(#p961d56eddc)" style="fill: #4d59c1"/>
    <path d="M 349.406723 427.464477 
L 358.967635 426.147441 
L 359.559512 430.450006 
L 355.539165 431.001238 
L 349.9986 431.763343 
L 349.406723 427.464477 
" clip-path="url(#p961d56eddc)" style="fill: #4d59c1"/>
    <path d="M 371.163753 422.052049 
L 371.544421 424.811906 
L 370.252605 424.989484 
L 369.871937 422.233327 
L 371.163753 422.052049 
" clip-path="url(#p961d56eddc)" style="fill: #4d59c1"/>
    <path d="M 370.053675 395.618832 
L 370.950088 401.208838 
L 367.317776 401.793365 
L 366.421364 396.19966 
L 370.053675 395.618832 
" clip-path="url(#p961d56eddc)" style="fill: #4d59c1"/>
    <path d="M 371.96684 387.383655 
L 373.118668 394.66805 
L 370.073323 395.145291 
L 368.928862 387.838698 
L 371.96684 387.383655 
" clip-path="url(#p961d56eddc)" style="fill: #4d59c1"/>
    <path d="M 367.877727 380.824369 
L 370.913249 380.369326 
L 371.96684 387.383655 
L 368.928862 387.838698 
L 367.877727 380.824369 
" clip-path="url(#p961d56eddc)" style="fill: #4d59c1"/>
    <path d="M 366.870798 374.087506 
L 369.884217 373.636162 
L 370.913249 380.369326 
L 367.877727 380.824369 
L 366.870798 374.087506 
" clip-path="url(#p961d56eddc)" style="fill: #4d59c1"/>
    <path d="M 364.766071 334.454328 
L 372.202609 333.788411 
L 372.40645 336.056229 
L 364.969913 336.725846 
L 364.766071 334.454328 
" clip-path="url(#p961d56eddc)" style="fill: #4d59c1"/>
    <path d="M 419.867181 278.47658 
L 432.637985 279.142497 
L 432.380113 284.122079 
L 419.609309 283.456162 
L 419.867181 278.47658 
" clip-path="url(#p961d56eddc)" style="fill: #4d59c1"/>
    <path d="M 403.709657 277.951245 
L 415.967173 278.361894 
L 415.81245 282.993719 
L 403.554934 282.58307 
L 403.709657 277.951245 
" clip-path="url(#p961d56eddc)" style="fill: #4d59c1"/>
    <path d="M 268.764004 575.557085 
L 273.840399 574.905966 
L 274.766282 582.116371 
L 269.689888 582.76749 
L 268.764004 575.557085 
" clip-path="url(#p961d56eddc)" style="fill: #4d59c1"/>
    <path d="M 266.524202 564.00712 
L 271.890395 562.989746 
L 273.24361 570.148357 
L 267.877416 571.162031 
L 266.524202 564.00712 
" clip-path="url(#p961d56eddc)" style="fill: #4d59c1"/>
    <path d="M 282.45578 546.356612 
L 277.391665 547.155712 
L 275.360616 534.318307 
L 280.424731 533.515506 
L 282.45578 546.356612 
" clip-path="url(#p961d56eddc)" style="fill: #4d59c1"/>
    <path d="M 267.739884 534.555077 
L 268.827858 541.809876 
L 263.670418 542.58308 
L 262.582444 535.328281 
L 267.739884 534.555077 
" clip-path="url(#p961d56eddc)" style="fill: #4d59c1"/>
    <path d="M 265.617966 519.338867 
L 267.285538 531.306881 
L 261.857946 532.065287 
L 260.187918 520.097273 
L 265.617966 519.338867 
" clip-path="url(#p961d56eddc)" style="fill: #4d59c1"/>
    <path d="M 239.211871 523.356568 
L 246.827692 522.124621 
L 247.566925 526.697253 
L 239.951105 527.9292 
L 239.211871 523.356568 
" clip-path="url(#p961d56eddc)" style="fill: #4d59c1"/>
    <path d="M 249.954083 521.484601 
L 256.845405 520.396936 
L 257.577271 525.02876 
L 250.685948 526.116425 
L 249.954083 521.484601 
" clip-path="url(#p961d56eddc)" style="fill: #4d59c1"/>
    <path d="M 278.757159 527.059808 
L 274.044241 527.862608 
L 272.374212 518.069925 
L 277.089586 517.267124 
L 278.757159 527.059808 
" clip-path="url(#p961d56eddc)" style="fill: #4d59c1"/>
    <path d="M 288.33035 515.165785 
L 289.224307 520.12317 
L 281.969507 521.429107 
L 281.078007 516.468024 
L 288.33035 515.165785 
" clip-path="url(#p961d56eddc)" style="fill: #4d59c1"/>
    <path d="M 256.19213 501.329504 
L 257.024688 507.907287 
L 264.358077 506.978702 
L 264.97697 511.862096 
L 252.645775 513.423302 
L 251.194324 501.962125 
L 256.19213 501.329504 
" clip-path="url(#p961d56eddc)" style="fill: #4d59c1"/>
    <path d="M 218.1425 533.815169 
L 224.960145 541.865369 
L 219.991811 546.075447 
L 213.174166 538.021547 
L 218.1425 533.815169 
" clip-path="url(#p961d56eddc)" style="fill: #4d59c1"/>
    <path d="M 229.351337 524.751295 
L 234.140389 523.955894 
L 235.383086 531.410468 
L 230.59649 532.209569 
L 229.351337 524.751295 
" clip-path="url(#p961d56eddc)" style="fill: #4d59c1"/>
    <path d="M 244.158102 508.055268 
L 240.592101 509.623874 
L 241.301863 511.236873 
L 237.735861 512.805478 
L 236.844361 510.774431 
L 234.945932 511.610527 
L 233.285727 507.833296 
L 235.184156 507.000899 
L 234.363878 505.128932 
L 237.956894 503.549228 
L 238.514389 504.825569 
L 242.055831 503.268063 
L 244.158102 508.055268 
" clip-path="url(#p961d56eddc)" style="fill: #4d59c1"/>
    <path d="M 231.311164 481.884719 
L 233.212049 493.615962 
L 239.585172 492.58379 
L 240.344052 497.278507 
L 228.012858 499.276259 
L 225.353093 482.846599 
L 231.311164 481.884719 
" clip-path="url(#p961d56eddc)" style="fill: #4d59c1"/>
    <path d="M 229.75902 472.658064 
L 230.935408 479.228448 
L 224.967513 480.297616 
L 223.791125 473.727232 
L 229.75902 472.658064 
" clip-path="url(#p961d56eddc)" style="fill: #4d59c1"/>
    <path d="M 190.385648 464.840935 
L 190.957878 468.399893 
L 184.208999 469.487558 
L 183.634313 465.9286 
L 190.385648 464.840935 
" clip-path="url(#p961d56eddc)" style="fill: #4d59c1"/>
    <path d="M 215.711135 461.126596 
L 217.334501 471.699883 
L 212.184429 472.491585 
L 211.307664 466.768396 
L 206.12812 467.563797 
L 205.381519 462.713699 
L 215.711135 461.126596 
" clip-path="url(#p961d56eddc)" style="fill: #4d59c1"/>
    <path d="M 203.706579 462.846883 
L 204.251794 466.41324 
L 195.054359 467.819065 
L 194.509144 464.252708 
L 203.706579 462.846883 
" clip-path="url(#p961d56eddc)" style="fill: #4d59c1"/>
    <path d="M 232.74788 459.08815 
L 233.516584 463.867956 
L 227.757442 464.796541 
L 228.624383 470.179372 
L 223.692888 470.974773 
L 222.054787 460.808436 
L 232.74788 459.08815 
" clip-path="url(#p961d56eddc)" style="fill: #4d59c1"/>
    <path d="M 182.644575 457.260577 
L 183.366617 457.168088 
L 183.204526 455.902845 
L 185.073484 455.666075 
L 185.235575 456.927618 
L 187.097165 456.690847 
L 186.873676 454.940965 
L 188.808944 454.696795 
L 189.435205 459.587588 
L 183.047347 460.401487 
L 182.644575 457.260577 
" clip-path="url(#p961d56eddc)" style="fill: #4d59c1"/>
    <path d="M 268.064066 505.754154 
L 271.271503 505.3879 
L 271.379563 506.334982 
L 282.067744 505.117833 
L 281.959684 504.170751 
L 285.886706 503.723106 
L 286.444201 508.636096 
L 268.621561 510.667144 
L 268.064066 505.754154 
" clip-path="url(#p961d56eddc)" style="fill: #4d59c1"/>
    <path d="M 255.80655 460.567966 
L 256.356677 464.108426 
L 261.334834 463.335222 
L 260.782251 459.791062 
L 264.144411 459.269427 
L 265.080118 465.273781 
L 253.436583 467.086556 
L 252.500876 461.082202 
L 255.80655 460.567966 
" clip-path="url(#p961d56eddc)" style="fill: #4d59c1"/>
    <path d="M 247.562013 456.868425 
L 248.350364 462.032984 
L 244.2195 462.661906 
L 244.069689 461.677828 
L 241.026799 462.14397 
L 241.208538 463.324124 
L 236.780507 463.99744 
L 235.96514 458.633106 
L 247.562013 456.868425 
" clip-path="url(#p961d56eddc)" style="fill: #4d59c1"/>
    <path d="M 274.928373 452.610254 
L 275.763387 457.944992 
L 269.102922 458.988262 
L 268.267908 453.649825 
L 274.928373 452.610254 
" clip-path="url(#p961d56eddc)" style="fill: #4d59c1"/>
    <path d="M 293.730927 449.480443 
L 295.38622 460.786239 
L 290.864864 461.448457 
L 289.828464 454.382334 
L 281.991611 455.532891 
L 282.158613 456.661251 
L 278.199664 457.242079 
L 277.413768 451.874046 
L 293.730927 449.480443 
" clip-path="url(#p961d56eddc)" style="fill: #4d59c1"/>
    <path d="M 259.841633 442.325531 
L 260.750324 447.871143 
L 253.001884 449.140085 
L 252.093193 443.590774 
L 259.841633 442.325531 
" clip-path="url(#p961d56eddc)" style="fill: #4d59c1"/>
    <path d="M 278.870131 439.643364 
L 279.560246 445.177877 
L 267.587617 446.672492 
L 266.897502 441.141678 
L 278.870131 439.643364 
" clip-path="url(#p961d56eddc)" style="fill: #4d59c1"/>
    <path d="M 252.623672 422.336914 
L 253.195902 425.929168 
L 254.986271 425.644303 
L 255.840932 430.997538 
L 242.222834 433.165469 
L 241.38782 427.91952 
L 242.905581 427.675351 
L 242.316159 423.97951 
L 252.623672 422.336914 
" clip-path="url(#p961d56eddc)" style="fill: #4d59c1"/>
    <path d="M 289.19238 421.149361 
L 290.152646 428.692724 
L 284.867498 429.366041 
L 283.907231 421.822678 
L 289.19238 421.149361 
" clip-path="url(#p961d56eddc)" style="fill: #4d59c1"/>
    <path d="M 287.431482 409.074061 
L 288.433499 416.521236 
L 282.954333 417.257445 
L 281.952316 409.810269 
L 287.431482 409.074061 
" clip-path="url(#p961d56eddc)" style="fill: #4d59c1"/>
    <path d="M 150.560385 471.274436 
L 151.063849 475.003573 
L 142.684237 476.135632 
L 142.180772 472.406496 
L 150.560385 471.274436 
" clip-path="url(#p961d56eddc)" style="fill: #4d59c1"/>
    <path d="M 158.760715 470.257063 
L 159.30593 473.475663 
L 153.824308 474.400548 
L 153.279093 471.185647 
L 158.760715 470.257063 
" clip-path="url(#p961d56eddc)" style="fill: #4d59c1"/>
    <path d="M 170.087436 468.192719 
L 170.907715 472.77275 
L 168.083402 473.275888 
L 167.832898 471.870062 
L 166.241459 472.154927 
L 166.604936 474.193374 
L 164.178483 474.629919 
L 163.247688 469.417267 
L 170.087436 468.192719 
" clip-path="url(#p961d56eddc)" style="fill: #4d59c1"/>
    <path d="M 180.23777 466.428038 
L 180.819824 470.009193 
L 176.92964 470.645514 
L 177.38153 473.412771 
L 173.749219 474.004697 
L 172.715275 467.648886 
L 180.23777 466.428038 
" clip-path="url(#p961d56eddc)" style="fill: #4d59c1"/>
    <path d="M 148.296023 462.713699 
L 148.821591 466.305953 
L 142.613015 467.212341 
L 142.089903 463.616387 
L 148.296023 462.713699 
" clip-path="url(#p961d56eddc)" style="fill: #4d59c1"/>
    <path d="M 151.127703 462.158768 
L 157.223307 461.082202 
L 157.856935 464.659658 
L 151.758876 465.736224 
L 151.127703 462.158768 
" clip-path="url(#p961d56eddc)" style="fill: #4d59c1"/>
    <path d="M 168.768605 459.250929 
L 169.365395 463.002264 
L 162.498631 464.093628 
L 161.901842 460.342294 
L 168.768605 459.250929 
" clip-path="url(#p961d56eddc)" style="fill: #4d59c1"/>
    <path d="M 171.281015 458.847679 
L 179.663084 457.626831 
L 180.146901 460.945319 
L 171.764832 462.169867 
L 171.281015 458.847679 
" clip-path="url(#p961d56eddc)" style="fill: #4d59c1"/>
    <path d="M 115.953961 431.119623 
L 116.224112 433.102577 
L 111.823097 433.698203 
L 111.555401 431.71155 
L 115.953961 431.119623 
" clip-path="url(#p961d56eddc)" style="fill: #4d59c1"/>
    <path d="M 114.905281 422.984333 
L 115.953961 431.119623 
L 111.555401 431.71155 
L 110.494442 423.546664 
L 114.905281 422.984333 
" clip-path="url(#p961d56eddc)" style="fill: #4d59c1"/>
    <path d="M 196.19882 453.660924 
L 196.400205 454.985359 
L 199.740262 454.474823 
L 199.538876 453.150387 
L 201.962873 452.780433 
L 202.756136 457.95979 
L 194.128476 459.280526 
L 193.335212 454.097469 
L 196.19882 453.660924 
" clip-path="url(#p961d56eddc)" style="fill: #4d59c1"/>
    <path d="M 213.220828 445.359155 
L 214.640352 455.954639 
L 203.971819 457.382661 
L 203.323455 452.528864 
L 208.915594 451.781557 
L 208.14689 446.03987 
L 213.220828 445.359155 
" clip-path="url(#p961d56eddc)" style="fill: #4d59c1"/>
    <path d="M 224.048997 443.228219 
L 224.802966 448.45937 
L 230.785596 447.597377 
L 231.51255 452.632451 
L 220.817001 454.17146 
L 219.336079 443.908935 
L 224.048997 443.228219 
" clip-path="url(#p961d56eddc)" style="fill: #4d59c1"/>
    <path d="M 245.115913 445.089088 
L 245.896896 450.187055 
L 234.341774 451.951736 
L 233.563246 446.853769 
L 245.115913 445.089088 
" clip-path="url(#p961d56eddc)" style="fill: #4d59c1"/>
    <path d="M 212.319504 440.039215 
L 205.835865 440.812419 
L 204.964012 433.531724 
L 211.447651 432.75482 
L 212.319504 440.039215 
" clip-path="url(#p961d56eddc)" style="fill: #4d59c1"/>
    <path d="M 221.927079 422.222228 
L 224.080924 436.687432 
L 218.115485 437.575321 
L 215.96164 423.113817 
L 221.927079 422.222228 
" clip-path="url(#p961d56eddc)" style="fill: #4d59c1"/>
    <path d="M 204.00129 430.401912 
L 203.099966 422.307317 
L 210.114085 421.526714 
L 211.015409 429.621309 
L 204.00129 430.401912 
" clip-path="url(#p961d56eddc)" style="fill: #4d59c1"/>
    <path d="M 207.252933 404.061183 
L 209.175922 416.661819 
L 203.507649 417.527511 
L 202.375468 410.106233 
L 195.41538 411.168001 
L 194.624572 405.988644 
L 207.252933 404.061183 
" clip-path="url(#p961d56eddc)" style="fill: #4d59c1"/>
    <path d="M 223.808317 404.675307 
L 224.464048 408.84099 
L 218.299679 409.810269 
L 219.269769 415.988502 
L 215.021021 416.65442 
L 213.397655 406.306805 
L 223.808317 404.675307 
" clip-path="url(#p961d56eddc)" style="fill: #4d59c1"/>
    <path d="M 192.220223 406.436289 
L 192.927529 410.435492 
L 187.084886 411.467664 
L 186.380036 407.46846 
L 192.220223 406.436289 
" clip-path="url(#p961d56eddc)" style="fill: #4d59c1"/>
    <path d="M 140.788264 414.708461 
L 141.556968 419.096116 
L 135.004563 420.242974 
L 134.235859 415.855319 
L 140.788264 414.708461 
" clip-path="url(#p961d56eddc)" style="fill: #4d59c1"/>
    <path d="M 151.638536 412.695911 
L 152.311459 416.092089 
L 144.295323 417.682892 
L 143.6224 414.286714 
L 151.638536 412.695911 
" clip-path="url(#p961d56eddc)" style="fill: #4d59c1"/>
    <path d="M 161.418025 411.245691 
L 162.027094 414.80095 
L 154.929474 416.014399 
L 154.32286 412.459141 
L 161.418025 411.245691 
" clip-path="url(#p961d56eddc)" style="fill: #4d59c1"/>
    <path d="M 171.204882 409.673386 
L 172.012881 414.512386 
L 168.758781 415.056218 
L 168.518101 413.602299 
L 166.194797 413.987051 
L 165.629934 410.601971 
L 171.204882 409.673386 
" clip-path="url(#p961d56eddc)" style="fill: #4d59c1"/>
    <path d="M 182.482484 407.812518 
L 183.140672 411.671138 
L 176.293556 412.840193 
L 175.635368 408.985272 
L 182.482484 407.812518 
" clip-path="url(#p961d56eddc)" style="fill: #4d59c1"/>
    <path d="M 139.88694 404.364546 
L 140.444434 407.816217 
L 133.000529 409.022267 
L 132.440578 405.570596 
L 139.88694 404.364546 
" clip-path="url(#p961d56eddc)" style="fill: #4d59c1"/>
    <path d="M 149.121214 403.180693 
L 149.585383 406.354899 
L 143.332601 407.268685 
L 142.868431 404.09078 
L 149.121214 403.180693 
" clip-path="url(#p961d56eddc)" style="fill: #4d59c1"/>
    <path d="M 159.433638 401.501101 
L 159.924823 404.775195 
L 152.571787 405.877658 
L 152.080602 402.603565 
L 159.433638 401.501101 
" clip-path="url(#p961d56eddc)" style="fill: #4d59c1"/>
    <path d="M 169.338379 399.9029 
L 169.819741 403.587642 
L 161.722559 404.642011 
L 161.241198 400.957269 
L 169.338379 399.9029 
" clip-path="url(#p961d56eddc)" style="fill: #4d59c1"/>
    <path d="M 181.283993 398.045731 
L 181.802193 401.586191 
L 173.518362 402.79964 
L 173.000162 399.25918 
L 181.283993 398.045731 
" clip-path="url(#p961d56eddc)" style="fill: #4d59c1"/>
    <path d="M 239.764454 402.07823 
L 240.589645 407.279784 
L 228.287922 409.233141 
L 227.460275 404.035287 
L 239.764454 402.07823 
" clip-path="url(#p961d56eddc)" style="fill: #4d59c1"/>
    <path d="M 191.662728 396.244054 
L 192.207943 399.766017 
L 184.083747 401.023861 
L 183.538532 397.498199 
L 191.662728 396.244054 
" clip-path="url(#p961d56eddc)" style="fill: #4d59c1"/>
    <path d="M 199.607642 393.532291 
L 198.539315 386.05182 
L 205.116279 385.112137 
L 206.985238 398.201111 
L 193.502215 400.124872 
L 192.701584 394.520068 
L 199.607642 393.532291 
" clip-path="url(#p961d56eddc)" style="fill: #4d59c1"/>
    <path d="M 210.254072 384.087364 
L 213.645703 383.624921 
L 214.168815 387.453946 
L 219.940236 386.669643 
L 220.669646 392.019179 
L 211.506593 393.269624 
L 210.254072 384.087364 
" clip-path="url(#p961d56eddc)" style="fill: #4d59c1"/>
    <path d="M 230.218278 377.775948 
L 232.22968 390.106517 
L 225.048558 391.279271 
L 224.545094 388.201253 
L 224.216 386.192403 
L 225.984265 385.900139 
L 224.802966 378.660138 
L 230.218278 377.775948 
" clip-path="url(#p961d56eddc)" style="fill: #4d59c1"/>
    <path d="M 214.718942 372.089754 
L 215.716047 379.070787 
L 208.925417 380.040067 
L 207.928312 373.059034 
L 214.718942 372.089754 
" clip-path="url(#p961d56eddc)" style="fill: #4d59c1"/>
    <path d="M 200.734911 364.424306 
L 203.129437 378.926505 
L 197.539754 379.85139 
L 195.145228 365.345492 
L 200.734911 364.424306 
" clip-path="url(#p961d56eddc)" style="fill: #4d59c1"/>
    <path d="M 212.432477 360.695169 
L 213.613776 366.995487 
L 207.343802 368.171941 
L 206.162503 361.871623 
L 212.432477 360.695169 
" clip-path="url(#p961d56eddc)" style="fill: #4d59c1"/>
    <path d="M 197.964629 346.522229 
L 199.637113 357.017826 
L 194.393715 357.853922 
L 193.485024 352.145531 
L 188.111462 353.003824 
L 187.350126 348.216619 
L 197.964629 346.522229 
" clip-path="url(#p961d56eddc)" style="fill: #4d59c1"/>
    <path d="M 214.429143 343.806767 
L 215.195391 348.164825 
L 209.053125 349.245091 
L 210.06251 354.994177 
L 205.690966 355.759982 
L 203.915333 345.652837 
L 214.429143 343.806767 
" clip-path="url(#p961d56eddc)" style="fill: #4d59c1"/>
    <path d="M 248.902947 400.835184 
L 255.428337 399.773416 
L 255.737784 401.663881 
L 254.75787 401.822961 
L 255.384131 405.688981 
L 252.736645 406.118128 
L 252.63104 405.467009 
L 247.603764 406.284607 
L 247.694633 406.846938 
L 244.860497 407.30938 
L 244.246516 403.535849 
L 243.337824 403.680131 
L 243.030833 401.789666 
L 248.902947 400.835184 
" clip-path="url(#p961d56eddc)" style="fill: #4d59c1"/>
    <path d="M 271.288694 397.050554 
L 272.163003 402.011638 
L 259.996356 404.161071 
L 259.122047 399.199987 
L 271.288694 397.050554 
" clip-path="url(#p961d56eddc)" style="fill: #4d59c1"/>
    <path d="M 279.791103 395.922194 
L 279.663395 395.104596 
L 281.652693 394.797534 
L 281.780401 395.615132 
L 285.587083 395.023206 
L 287.16133 405.148848 
L 281.48569 406.033039 
L 280.64822 400.646508 
L 275.132215 401.504801 
L 274.395438 396.76199 
L 279.791103 395.922194 
" clip-path="url(#p961d56eddc)" style="fill: #4d59c1"/>
    <path d="M 265.949515 372.337623 
L 267.008019 379.68861 
L 268.584722 379.462938 
L 269.321499 384.572004 
L 262.268085 385.589378 
L 260.472805 373.125625 
L 265.949515 372.337623 
" clip-path="url(#p961d56eddc)" style="fill: #4d59c1"/>
    <path d="M 271.814262 378.778523 
L 277.526741 377.861037 
L 276.686815 372.637286 
L 282.156158 371.756795 
L 283.808994 382.048917 
L 272.627173 383.846894 
L 271.814262 378.778523 
" clip-path="url(#p961d56eddc)" style="fill: #4d59c1"/>
    <path d="M 241.807783 372.92955 
L 242.426676 376.555099 
L 247.940225 375.615416 
L 247.338524 372.086054 
L 252.599113 371.187066 
L 254.163536 380.343429 
L 239.017853 382.925708 
L 237.438694 373.673157 
L 241.807783 372.92955 
" clip-path="url(#p961d56eddc)" style="fill: #4d59c1"/>
    <path d="M 281.065727 369.337296 
L 279.029766 369.648057 
L 278.916794 368.893351 
L 275.139583 369.46678 
L 274.184228 363.188659 
L 277.944248 362.61893 
L 277.836187 361.904919 
L 279.886884 361.594157 
L 281.065727 369.337296 
" clip-path="url(#p961d56eddc)" style="fill: #4d59c1"/>
    <path d="M 278.597524 350.29946 
L 279.469377 357.017826 
L 273.064327 357.850222 
L 272.192474 351.131857 
L 278.597524 350.29946 
" clip-path="url(#p961d56eddc)" style="fill: #4d59c1"/>
    <path d="M 245.766732 340.011038 
L 246.54526 345.027615 
L 243.404134 345.515954 
L 243.197836 344.187819 
L 238.008469 344.998019 
L 238.241782 346.507431 
L 235.034345 347.006869 
L 234.226346 341.805315 
L 245.766732 340.011038 
" clip-path="url(#p961d56eddc)" style="fill: #4d59c1"/>
    <path d="M 262.331939 336.215309 
L 263.196425 341.461258 
L 255.052581 342.800491 
L 255.236775 343.925152 
L 250.916805 344.635464 
L 249.868125 338.268554 
L 262.331939 336.215309 
" clip-path="url(#p961d56eddc)" style="fill: #4d59c1"/>
    <path d="M 122.354099 389.322214 
L 123.255423 394.701346 
L 121.192446 395.049103 
L 120.291122 389.669971 
L 122.354099 389.322214 
" clip-path="url(#p961d56eddc)" style="fill: #4d59c1"/>
    <path d="M 128.294979 357.247197 
L 135.188757 356.470294 
L 135.598896 360.114341 
L 128.705118 360.891245 
L 128.294979 357.247197 
" clip-path="url(#p961d56eddc)" style="fill: #4d59c1"/>
    <path d="M 149.754842 354.16548 
L 150.241115 357.983406 
L 142.18814 359.008179 
L 141.701867 355.190253 
L 149.754842 354.16548 
" clip-path="url(#p961d56eddc)" style="fill: #4d59c1"/>
    <path d="M 161.81834 352.119634 
L 162.331628 355.608301 
L 155.396099 356.625675 
L 154.882811 353.140707 
L 161.81834 352.119634 
" clip-path="url(#p961d56eddc)" style="fill: #4d59c1"/>
    <path d="M 172.936308 350.266164 
L 173.761498 355.582404 
L 169.895874 356.18173 
L 169.655194 354.627923 
L 166.904559 355.05337 
L 166.320049 351.294637 
L 172.936308 350.266164 
" clip-path="url(#p961d56eddc)" style="fill: #4d59c1"/>
    <path d="M 177.936569 349.389373 
L 183.319954 348.568075 
L 183.860258 352.115935 
L 178.476872 352.933533 
L 177.936569 349.389373 
" clip-path="url(#p961d56eddc)" style="fill: #4d59c1"/>
    <path d="M 126.121486 347.188147 
L 134.122886 346.266961 
L 134.57232 350.166277 
L 126.573376 351.087462 
L 126.121486 347.188147 
" clip-path="url(#p961d56eddc)" style="fill: #4d59c1"/>
    <path d="M 140.584422 344.972122 
L 148.39426 343.873358 
L 148.934563 347.702383 
L 141.124725 348.804846 
L 140.584422 344.972122 
" clip-path="url(#p961d56eddc)" style="fill: #4d59c1"/>
    <path d="M 152.927896 343.225939 
L 160.202342 342.460134 
L 160.575643 346.011693 
L 153.301196 346.777498 
L 152.927896 343.225939 
" clip-path="url(#p961d56eddc)" style="fill: #4d59c1"/>
    <path d="M 164.124453 341.246684 
L 171.457842 340.170118 
L 172.012881 343.958448 
L 164.679492 345.035014 
L 164.124453 341.246684 
" clip-path="url(#p961d56eddc)" style="fill: #4d59c1"/>
    <path d="M 230.225646 341.44646 
L 231.375018 349.178499 
L 226.642453 349.881412 
L 226.183195 346.792296 
L 218.503521 347.931754 
L 217.813406 343.29253 
L 230.225646 341.44646 
" clip-path="url(#p961d56eddc)" style="fill: #4d59c1"/>
    <path d="M 188.872798 337.606337 
L 196.360911 336.581564 
L 196.83736 340.062831 
L 189.349248 341.087604 
L 188.872798 337.606337 
" clip-path="url(#p961d56eddc)" style="fill: #4d59c1"/>
    <path d="M 206.582466 332.060725 
L 206.781396 333.455452 
L 214.807355 332.308594 
L 215.492558 337.103199 
L 202.797887 338.915974 
L 201.913755 332.726643 
L 206.582466 332.060725 
" clip-path="url(#p961d56eddc)" style="fill: #4d59c1"/>
    <path d="M 223.290117 330.773285 
L 222.410896 325.120387 
L 227.197492 324.37678 
L 228.074256 330.029678 
L 229.014875 329.885395 
L 229.822874 335.090649 
L 218.776128 336.807236 
L 217.968129 331.598283 
L 223.290117 330.773285 
" clip-path="url(#p961d56eddc)" style="fill: #4d59c1"/>
    <path d="M 242.124597 322.112661 
L 242.87611 326.86657 
L 239.400978 327.417802 
L 239.246254 326.430025 
L 236.23038 326.907265 
L 236.365456 327.765559 
L 233.111356 328.279795 
L 232.379491 323.65167 
L 242.124597 322.112661 
" clip-path="url(#p961d56eddc)" style="fill: #4d59c1"/>
    <path d="M 205.727804 317.010994 
L 207.272581 328.47957 
L 200.933841 329.334164 
L 199.391521 317.861889 
L 205.727804 317.010994 
" clip-path="url(#p961d56eddc)" style="fill: #4d59c1"/>
    <path d="M 203.379941 301.816981 
L 204.627551 311.802041 
L 198.706318 312.541949 
L 197.458709 302.556889 
L 203.379941 301.816981 
" clip-path="url(#p961d56eddc)" style="fill: #4d59c1"/>
    <path d="M 235.545177 292.016898 
L 236.444045 297.784482 
L 224.903659 299.578759 
L 224.007246 293.811176 
L 235.545177 292.016898 
" clip-path="url(#p961d56eddc)" style="fill: #4d59c1"/>
    <path d="M 205.182589 286.989223 
L 206.024971 291.917011 
L 200.877355 292.797501 
L 201.837621 298.417104 
L 197.087864 299.227303 
L 195.285216 288.683612 
L 205.182589 286.989223 
" clip-path="url(#p961d56eddc)" style="fill: #4d59c1"/>
    <path d="M 221.543955 284.477235 
L 222.533692 290.870041 
L 217.246088 291.691339 
L 216.988216 290.011747 
L 210.015848 291.092013 
L 209.286438 286.375099 
L 221.543955 284.477235 
" clip-path="url(#p961d56eddc)" style="fill: #4d59c1"/>
    <path d="M 287.31851 360.436201 
L 292.129665 359.600105 
L 293.360083 366.666228 
L 300.474894 365.426882 
L 300.256317 364.172737 
L 305.408845 363.273749 
L 306.374023 368.81936 
L 289.295528 371.793791 
L 287.31851 360.436201 
" clip-path="url(#p961d56eddc)" style="fill: #4d59c1"/>
    <path d="M 308.019493 362.678123 
L 315.146584 361.446176 
L 316.11913 367.073177 
L 308.989582 368.305124 
L 308.019493 362.678123 
" clip-path="url(#p961d56eddc)" style="fill: #4d59c1"/>
    <path d="M 340.317348 357.136211 
L 341.066405 361.823529 
L 334.246304 362.911194 
L 333.499703 358.223876 
L 340.317348 357.136211 
" clip-path="url(#p961d56eddc)" style="fill: #4d59c1"/>
    <path d="M 328.224379 348.716057 
L 330.709774 365.234505 
L 319.464098 366.925195 
L 318.739601 362.123192 
L 325.515495 361.105818 
L 324.356299 353.395976 
L 323.0301 353.595751 
L 322.428398 349.585449 
L 328.224379 348.716057 
" clip-path="url(#p961d56eddc)" style="fill: #4d59c1"/>
    <path d="M 291.537787 346.167073 
L 293.333067 357.554259 
L 287.220273 358.51614 
L 285.424992 347.132653 
L 291.537787 346.167073 
" clip-path="url(#p961d56eddc)" style="fill: #4d59c1"/>
    <path d="M 346.950799 344.431989 
L 347.424792 346.977273 
L 342.318926 347.931754 
L 341.842477 345.38647 
L 346.950799 344.431989 
" clip-path="url(#p961d56eddc)" style="fill: #4d59c1"/>
    <path d="M 300.337362 330.469923 
L 301.091331 335.453204 
L 289.042568 337.277077 
L 290.01757 343.717978 
L 284.958367 344.483782 
L 283.231852 333.059601 
L 300.337362 330.469923 
" clip-path="url(#p961d56eddc)" style="fill: #4d59c1"/>
    <path d="M 324.184384 326.574307 
L 326.804855 342.57482 
L 321.974052 343.366521 
L 320.05352 331.627879 
L 313.599352 332.682248 
L 312.901869 328.420377 
L 324.184384 326.574307 
" clip-path="url(#p961d56eddc)" style="fill: #4d59c1"/>
    <path d="M 310.593301 328.575758 
L 311.551111 334.19536 
L 304.011425 335.479101 
L 303.05607 329.855799 
L 310.593301 328.575758 
" clip-path="url(#p961d56eddc)" style="fill: #4d59c1"/>
    <path d="M 281.579015 321.254367 
L 293.836532 319.304709 
L 294.592956 324.062319 
L 282.33544 326.008277 
L 281.579015 321.254367 
" clip-path="url(#p961d56eddc)" style="fill: #4d59c1"/>
    <path d="M 296.454547 318.879262 
L 308.405073 316.72613 
L 309.311309 321.753805 
L 297.360783 323.906938 
L 296.454547 318.879262 
" clip-path="url(#p961d56eddc)" style="fill: #4d59c1"/>
    <path d="M 311.425859 316.049114 
L 318.400683 314.769073 
L 319.363405 320.007622 
L 312.388581 321.291363 
L 311.425859 316.049114 
" clip-path="url(#p961d56eddc)" style="fill: #4d59c1"/>
    <path d="M 321.556545 314.865261 
L 324.095971 314.450912 
L 324.221223 315.209318 
L 330.120352 314.243738 
L 329.9951 313.485332 
L 333.632323 312.889706 
L 334.415763 317.673212 
L 322.339985 319.648767 
L 321.556545 314.865261 
" clip-path="url(#p961d56eddc)" style="fill: #4d59c1"/>
    <path d="M 349.522151 314.931853 
L 337.333401 316.973999 
L 336.569608 312.408766 
L 339.56338 311.905628 
L 339.686176 312.641837 
L 344.241915 311.879732 
L 343.438828 307.074028 
L 342.402428 307.247907 
L 341.849845 303.933118 
L 347.520573 302.982337 
L 349.522151 314.931853 
" clip-path="url(#p961d56eddc)" style="fill: #4d59c1"/>
    <path d="M 348.073156 287.810521 
L 347.866858 300.004206 
L 341.734416 299.900619 
L 341.790903 296.619127 
L 342.562063 296.633925 
L 342.63574 292.294364 
L 335.788625 292.179678 
L 335.864758 287.607046 
L 348.073156 287.810521 
" clip-path="url(#p961d56eddc)" style="fill: #4d59c1"/>
    <path d="M 315.554267 286.578574 
L 315.465854 292.320261 
L 308.901169 292.216674 
L 308.989582 286.478686 
L 315.554267 286.578574 
" clip-path="url(#p961d56eddc)" style="fill: #4d59c1"/>
    <path d="M 332.173504 286.941129 
L 332.10965 291.987302 
L 328.418397 291.939208 
L 328.430676 291.025421 
L 322.838538 290.95513 
L 322.828714 291.68024 
L 319.955283 291.643245 
L 320.016681 286.785748 
L 332.173504 286.941129 
" clip-path="url(#p961d56eddc)" style="fill: #4d59c1"/>
    <path d="M 305.092031 285.709182 
L 304.959411 291.006924 
L 301.093787 290.910736 
L 301.113434 290.107935 
L 296.135277 289.982151 
L 296.115629 290.784951 
L 292.701895 290.699862 
L 292.834515 285.40212 
L 305.092031 285.709182 
" clip-path="url(#p961d56eddc)" style="fill: #4d59c1"/>
    <path d="M 335.894229 274.381189 
L 339.148328 274.436682 
L 339.133593 275.387464 
L 344.671701 275.479952 
L 344.686437 274.52917 
L 348.254894 274.588363 
L 348.173849 279.453259 
L 335.813184 279.246084 
L 335.894229 274.381189 
" clip-path="url(#p961d56eddc)" style="fill: #4d59c1"/>
    <path d="M 320.802577 273.907647 
L 323.764421 273.981638 
L 323.739862 274.895425 
L 329.535842 275.039707 
L 329.557945 274.12592 
L 333.163242 274.214709 
L 333.045357 278.939023 
L 320.684692 278.631961 
L 320.802577 273.907647 
" clip-path="url(#p961d56eddc)" style="fill: #4d59c1"/>
    <path d="M 492.03205 297.814078 
L 496.966001 304.377063 
L 495.529285 305.457329 
L 494.09257 306.537595 
L 489.161075 299.97461 
L 492.03205 297.814078 
" clip-path="url(#p961d56eddc)" style="fill: #4d59c1"/>
    <path d="M 499.748563 287.681037 
L 501.823818 290.267016 
L 496.300446 294.699065 
L 494.22519 292.113086 
L 499.748563 287.681037 
" clip-path="url(#p961d56eddc)" style="fill: #4d59c1"/>
    <path d="M 387.340924 276.996764 
L 399.650015 277.511 
L 399.451085 282.276008 
L 387.141994 281.761772 
L 387.340924 276.996764 
" clip-path="url(#p961d56eddc)" style="fill: #4d59c1"/>
    <path d="M 370.937808 276.153268 
L 382.991483 276.408537 
L 382.885878 281.351123 
L 370.832203 281.095855 
L 370.937808 276.153268 
" clip-path="url(#p961d56eddc)" style="fill: #4d59c1"/>
    <path d="M 355.070083 275.487351 
L 365.994033 275.794413 
L 365.858957 280.581619 
L 354.935008 280.274557 
L 355.070083 275.487351 
" clip-path="url(#p961d56eddc)" style="fill: #4d59c1"/>
    <path d="M 310.875732 273.134443 
L 317.646714 273.389712 
L 317.452696 278.47658 
L 310.68417 278.221312 
L 310.875732 273.134443 
" clip-path="url(#p961d56eddc)" style="fill: #4d59c1"/>
    <path d="M 296.172115 272.6757 
L 299.178166 272.801485 
L 299.138872 273.707872 
L 304.831703 273.948342 
L 304.870998 273.030856 
L 308.22579 273.175138 
L 308.017037 278.117725 
L 295.963362 277.607188 
L 296.172115 272.6757 
" clip-path="url(#p961d56eddc)" style="fill: #4d59c1"/>
    <path d="M 339.312875 261.595576 
L 339.366906 259.268565 
L 341.729505 259.324059 
L 341.572325 266.201504 
L 339.366906 266.149711 
L 339.332523 267.699818 
L 331.073251 267.511142 
L 331.110089 265.961034 
L 330.338929 265.946236 
L 330.444534 261.392102 
L 339.312875 261.595576 
" clip-path="url(#p961d56eddc)" style="fill: #4d59c1"/>
    <path d="M 276.12932 334.317445 
L 277.747774 344.846337 
L 272.681203 345.62694 
L 271.851101 340.229311 
L 266.251594 341.091304 
L 265.460787 335.960041 
L 276.12932 334.317445 
" clip-path="url(#p961d56eddc)" style="fill: #4d59c1"/>
    <path d="M 251.818129 320.318384 
L 252.658055 325.852896 
L 258.277209 325.002002 
L 259.068017 330.222054 
L 248.370012 331.842452 
L 246.741734 321.087888 
L 251.818129 320.318384 
" clip-path="url(#p961d56eddc)" style="fill: #4d59c1"/>
    <path d="M 273.820752 321.187776 
L 274.908726 327.643474 
L 261.997934 329.818804 
L 261.160464 324.842922 
L 269.198703 323.48889 
L 268.948199 322.009074 
L 273.820752 321.187776 
" clip-path="url(#p961d56eddc)" style="fill: #4d59c1"/>
    <path d="M 272.843294 310.60339 
L 273.754442 317.410545 
L 266.654366 318.361327 
L 265.743218 311.554172 
L 272.843294 310.60339 
" clip-path="url(#p961d56eddc)" style="fill: #4d59c1"/>
    <path d="M 285.81794 308.905301 
L 286.638219 314.646988 
L 280.400172 315.538577 
L 279.579893 309.79689 
L 285.81794 308.905301 
" clip-path="url(#p961d56eddc)" style="fill: #4d59c1"/>
    <path d="M 262.810845 295.087517 
L 269.432016 293.663194 
L 271.838821 304.828407 
L 265.21765 306.25643 
L 262.810845 295.087517 
" clip-path="url(#p961d56eddc)" style="fill: #4d59c1"/>
    <path d="M 282.7333 292.623623 
L 284.47455 304.303073 
L 278.843116 305.139169 
L 277.104322 293.463419 
L 282.7333 292.623623 
" clip-path="url(#p961d56eddc)" style="fill: #4d59c1"/>
    <path d="M 288.526824 285.246739 
L 288.372101 290.207823 
L 285.270269 290.111635 
L 285.294828 289.34953 
L 279.599541 289.175651 
L 279.577437 289.91186 
L 276.83417 289.82677 
L 276.986438 284.887884 
L 288.526824 285.246739 
" clip-path="url(#p961d56eddc)" style="fill: #4d59c1"/>
    <path d="M 267.292906 284.27376 
L 267.039946 289.948855 
L 255.602708 289.434619 
L 255.855668 283.759524 
L 267.292906 284.27376 
" clip-path="url(#p961d56eddc)" style="fill: #4d59c1"/>
    <path d="M 252.009691 282.938226 
L 251.867248 287.73283 
L 244.214589 287.503459 
L 244.163014 289.223745 
L 239.761998 289.094261 
L 239.956016 282.57937 
L 252.009691 282.938226 
" clip-path="url(#p961d56eddc)" style="fill: #4d59c1"/>
    <path d="M 176.718431 339.58929 
L 184.260573 338.394339 
L 184.783685 341.701728 
L 177.241543 342.89668 
L 176.718431 339.58929 
" clip-path="url(#p961d56eddc)" style="fill: #4d59c1"/>
    <path d="M 127.482068 299.452975 
L 128.309714 304.880201 
L 122.607059 305.749593 
L 123.40769 310.991842 
L 118.338663 311.765046 
L 116.710385 301.095571 
L 127.482068 299.452975 
" clip-path="url(#p961d56eddc)" style="fill: #4d59c1"/>
    <path d="M 131.696433 298.602081 
L 139.056837 297.207354 
L 140.228313 303.392986 
L 132.867909 304.787712 
L 131.696433 298.602081 
" clip-path="url(#p961d56eddc)" style="fill: #4d59c1"/>
    <path d="M 145.717303 297.910266 
L 150.631607 297.044574 
L 150.405662 295.764533 
L 155.479601 294.869244 
L 155.705546 296.145586 
L 161.103666 295.194804 
L 161.948504 299.967211 
L 146.562141 302.682674 
L 145.717303 297.910266 
" clip-path="url(#p961d56eddc)" style="fill: #4d59c1"/>
    <path d="M 166.53617 293.104563 
L 173.152429 292.027997 
L 174.102872 297.862172 
L 167.486613 298.938739 
L 166.53617 293.104563 
" clip-path="url(#p961d56eddc)" style="fill: #4d59c1"/>
    <path d="M 189.027522 289.811972 
L 190.655799 300.29647 
L 185.503271 301.095571 
L 184.651065 295.605453 
L 179.238209 296.445248 
L 178.462137 291.450869 
L 189.027522 289.811972 
" clip-path="url(#p961d56eddc)" style="fill: #4d59c1"/>
    <path d="M 119.276826 281.86166 
L 120.075001 286.941129 
L 125.244721 286.12723 
L 126.092015 291.513761 
L 115.384186 293.197052 
L 113.736261 282.734751 
L 119.276826 281.86166 
" clip-path="url(#p961d56eddc)" style="fill: #4d59c1"/>
    <path d="M 129.446807 284.876785 
L 136.473205 283.852012 
L 137.330323 289.708385 
L 130.303924 290.733158 
L 129.446807 284.876785 
" clip-path="url(#p961d56eddc)" style="fill: #4d59c1"/>
    <path d="M 157.793081 280.426238 
L 158.628095 285.672186 
L 144.781596 287.877112 
L 143.946582 282.631164 
L 157.793081 280.426238 
" clip-path="url(#p961d56eddc)" style="fill: #4d59c1"/>
    <path d="M 164.104806 279.734424 
L 171.492225 278.502477 
L 172.41074 284.014792 
L 165.025777 285.246739 
L 164.104806 279.734424 
" clip-path="url(#p961d56eddc)" style="fill: #4d59c1"/>
    <path d="M 176.932096 278.528374 
L 181.53941 277.818062 
L 180.679836 272.242854 
L 186.019015 271.417857 
L 187.642381 281.913453 
L 177.693433 283.452462 
L 176.932096 278.528374 
" clip-path="url(#p961d56eddc)" style="fill: #4d59c1"/>
    <path d="M 142.20042 277.573892 
L 141.510305 273.060453 
L 152.171471 271.428955 
L 152.861586 275.942395 
L 142.20042 277.573892 
" clip-path="url(#p961d56eddc)" style="fill: #4d59c1"/>
    <path d="M 117.511017 275.383764 
L 111.884495 276.090376 
L 111.076496 269.627279 
L 116.703018 268.924366 
L 117.511017 275.383764 
" clip-path="url(#p961d56eddc)" style="fill: #4d59c1"/>
    <path d="M 205.592729 272.886574 
L 206.481773 278.979717 
L 194.172682 280.773995 
L 193.283638 274.680851 
L 205.592729 272.886574 
" clip-path="url(#p961d56eddc)" style="fill: #4d59c1"/>
    <path d="M 209.470633 273.715271 
L 212.174605 273.275026 
L 212.26793 273.855854 
L 217.835509 272.953166 
L 217.717625 272.228056 
L 221.448174 271.621331 
L 222.211966 276.323447 
L 210.209866 278.273105 
L 209.470633 273.715271 
" clip-path="url(#p961d56eddc)" style="fill: #4d59c1"/>
    <path d="M 226.431243 271.199584 
L 236.841905 270.481873 
L 237.136616 274.732645 
L 226.723498 275.450356 
L 226.431243 271.199584 
" clip-path="url(#p961d56eddc)" style="fill: #4d59c1"/>
    <path d="M 281.019065 271.802609 
L 283.988277 271.913595 
L 283.961262 272.660902 
L 289.855479 272.879175 
L 289.889862 272.002384 
L 293.485335 272.135567 
L 293.296228 277.248332 
L 280.832414 276.78589 
L 281.019065 271.802609 
" clip-path="url(#p961d56eddc)" style="fill: #4d59c1"/>
    <path d="M 243.657094 269.982435 
L 246.439656 270.045327 
L 246.415096 271.132992 
L 252.007235 271.258776 
L 252.026883 270.444877 
L 255.241687 270.515169 
L 255.138538 275.246881 
L 243.546577 274.991613 
L 243.657094 269.982435 
" clip-path="url(#p961d56eddc)" style="fill: #4d59c1"/>
    <path d="M 264.272119 266.656548 
L 274.685237 266.911816 
L 274.577176 271.299471 
L 264.164059 271.040503 
L 264.272119 266.656548 
" clip-path="url(#p961d56eddc)" style="fill: #4d59c1"/>
   </g>
   <g id="LineCollection_1">
    <path d="M 541.61961 583.126345 
L 541.371562 585.268379 
L 547.52544 625.574544 
" clip-path="url(#p961d56eddc)" style="fill: none; stroke: #4d59c1; stroke-width: 0.2"/>
    <path d="M 632.604224 559.016439 
L 631.580104 563.633466 
L 629.013663 568.764729 
L 621.731849 571.635572 
L 560.699683 581.380162 
L 553.724859 580.662451 
L 549.004573 578.509319 
" clip-path="url(#p961d56eddc)" style="fill: none; stroke: #4d59c1; stroke-width: 0.2"/>
    <path d="M 548.390592 570.710687 
L 548.491285 565.479537 
L 550.134298 562.301631 
L 556.627761 560.921703 
L 594.247604 553.733496 
L 594.753524 561.273159 
L 593.112967 565.479537 
L 589.932546 567.636369 
L 584.907725 568.864616 
L 551.774856 572.45687 
L 548.665656 574.195654 
" clip-path="url(#p961d56eddc)" style="fill: none; stroke: #4d59c1; stroke-width: 0.2"/>
    <path d="M 553.970452 547.669949 
L 547.467165 549.168263 
L 547.057026 552.146393 
L 548.491285 565.479537 
" clip-path="url(#p961d56eddc)" style="fill: none; stroke: #4d59c1; stroke-width: 0.2"/>
    <path d="M 685.467987 541.946759 
L 687.147839 544.251573 
L 688.736822 547.806832 
L 690.662266 552.501549 
" clip-path="url(#p961d56eddc)" style="fill: none; stroke: #4d59c1; stroke-width: 0.2"/>
    <path d="M 592.49653 533.678286 
L 593.830097 545.372534 
L 594.247604 553.733496 
" clip-path="url(#p961d56eddc)" style="fill: none; stroke: #4d59c1; stroke-width: 0.2"/>
    <path d="M 546.558473 539.601251 
L 553.970452 547.669949 
L 587.012452 542.338911 
L 593.830097 545.372534 
" clip-path="url(#p961d56eddc)" style="fill: none; stroke: #4d59c1; stroke-width: 0.2"/>
    <path d="M 706.193529 531.214392 
L 711.891273 540.315262 
L 714.818734 547.755038 
" clip-path="url(#p961d56eddc)" style="fill: none; stroke: #4d59c1; stroke-width: 0.2"/>
    <path d="M 500.644975 506.009422 
L 501.615065 512.139561 
L 502.884778 514.840226 
L 507.612431 517.674074 
L 509.719614 523.215986 
L 513.410868 526.704652 
L 519.462264 530.703856 
L 529.516817 535.835118 
L 537.825208 538.602375 
L 546.558473 539.601251 
L 549.517861 539.937909 
L 556.389537 541.169856 
L 562.853528 539.834322 
L 579.367161 536.656416 
L 592.49653 533.678286 
L 594.829658 529.401617 
L 601.475388 521.769465 
L 604.228479 518.543466 
" clip-path="url(#p961d56eddc)" style="fill: none; stroke: #4d59c1; stroke-width: 0.2"/>
    <path d="M 633.169087 470.068386 
L 648.400727 490.737719 
L 672.579298 523.82271 
L 676.658588 529.908454 
L 681.04978 535.472563 
L 685.467987 541.946759 
" clip-path="url(#p961d56eddc)" style="fill: none; stroke: #4d59c1; stroke-width: 0.2"/>
    <path d="M 534.566155 627.325115 
L 531.118079 626.644041 
L 525.167376 621.616365 
L 520.859685 615.05338 
L 505.473321 599.970353 
L 499.318776 593.71443 
L 498.127653 588.56097 
" clip-path="url(#p961d56eddc)" style="fill: none; stroke: #4d59c1; stroke-width: 0.2"/>
    <path d="M 549.004573 578.509319 
L 546.030449 581.176687 
L 541.61961 583.126345 
L 532.694782 583.636882 
L 498.127653 588.56097 
L 479.575603 592.275309 
" clip-path="url(#p961d56eddc)" style="fill: none; stroke: #4d59c1; stroke-width: 0.2"/>
    <path d="M 464.965312 574.809778 
L 471.105122 574.743186 
L 476.014514 573.759109 
" clip-path="url(#p961d56eddc)" style="fill: none; stroke: #4d59c1; stroke-width: 0.2"/>
    <path d="M 481.950482 534.248015 
L 477.217917 537.810673 
L 472.789886 541.987454 
L 471.969607 544.965584 
L 476.014514 573.759109 
L 476.176605 574.917065 
L 479.867858 574.199354 
L 484.178005 575.227826 
L 487.04898 576.763135 
L 491.869959 576.866723 
L 531.260523 571.224923 
L 545.723459 569.48244 
L 548.390592 570.710687 
L 548.665656 574.195654 
L 549.004573 578.509319 
" clip-path="url(#p961d56eddc)" style="fill: none; stroke: #4d59c1; stroke-width: 0.2"/>
    <path d="M 481.950482 534.248015 
L 486.353954 560.370471 
" clip-path="url(#p961d56eddc)" style="fill: none; stroke: #4d59c1; stroke-width: 0.2"/>
    <path d="M 459.137404 541.628599 
L 465.967329 540.881292 
L 472.789886 541.987454 
" clip-path="url(#p961d56eddc)" style="fill: none; stroke: #4d59c1; stroke-width: 0.2"/>
    <path d="M 488.502887 517.056251 
L 492.601824 519.830906 
L 497.093709 546.68957 
" clip-path="url(#p961d56eddc)" style="fill: none; stroke: #4d59c1; stroke-width: 0.2"/>
    <path d="M 487.36825 506.930608 
L 488.502887 517.056251 
L 486.152568 520.149066 
L 484.998284 524.240758 
L 483.664717 529.679083 
L 481.950482 534.248015 
" clip-path="url(#p961d56eddc)" style="fill: none; stroke: #4d59c1; stroke-width: 0.2"/>
    <path d="M 462.123808 498.69913 
L 463.354226 501.777148 
L 466.841638 522.498275 
" clip-path="url(#p961d56eddc)" style="fill: none; stroke: #4d59c1; stroke-width: 0.2"/>
    <path d="M 440.000845 422.52559 
L 450.23468 485.09592 
L 452.344319 497.592968 
L 457.204592 528.058684 
L 459.137404 541.628599 
L 461.109511 555.47228 
L 464.965312 574.809778 
L 465.257567 576.274796 
L 467.544032 589.988993 
L 469.950838 592.034839 
L 473.67893 592.878334 
L 479.575603 592.275309 
" clip-path="url(#p961d56eddc)" style="fill: none; stroke: #4d59c1; stroke-width: 0.2"/>
    <path d="M 632.604224 559.016439 
L 624.705973 544.554935 
L 619.064716 535.320882 
L 613.730449 530.91103 
L 609.319609 527.729425 
L 606.480561 523.58224 
L 604.228479 518.543466 
L 595.942192 500.707981 
L 593.341368 497.163821 
L 557.145961 452.280995 
" clip-path="url(#p961d56eddc)" style="fill: none; stroke: #4d59c1; stroke-width: 0.2"/>
    <path d="M 604.228479 518.543466 
L 609.665895 516.963762 
L 648.400727 490.737719 
L 649.532908 488.273825 
L 667.429226 476.749756 
" clip-path="url(#p961d56eddc)" style="fill: none; stroke: #4d59c1; stroke-width: 0.2"/>
    <path d="M 632.604224 559.016439 
L 635.602907 560.370471 
L 643.395554 559.767446 
L 655.957605 558.93505 
L 671.771299 556.360169 
L 689.856723 552.73092 
L 690.662266 552.501549 
L 699.542887 550.004359 
L 712.028804 547.129816 
L 714.818734 547.755038 
L 715.734794 547.962212 
L 721.184489 549.171962 
L 724.8168 551.291799 
L 734.652776 549.627006 
L 747.971251 547.052125 
L 767.947737 544.177582 
L 774.605747 543.193505 
L 788.452246 540.16728 
L 801.540202 538.078253 
" clip-path="url(#p961d56eddc)" style="fill: none; stroke: #4d59c1; stroke-width: 0.2"/>
    <path d="M 688.223534 504.318732 
L 704.022492 495.029186 
L 760.589789 466.986669 
" clip-path="url(#p961d56eddc)" style="fill: none; stroke: #4d59c1; stroke-width: 0.2"/>
    <path d="M 595.942192 500.707981 
L 618.843682 481.451872 
L 633.169087 470.068386 
L 649.972518 455.821455 
" clip-path="url(#p961d56eddc)" style="fill: none; stroke: #4d59c1; stroke-width: 0.2"/>
    <path d="M 667.429226 476.749756 
L 717.186245 445.39615 
L 766.024748 414.95633 
" clip-path="url(#p961d56eddc)" style="fill: none; stroke: #4d59c1; stroke-width: 0.2"/>
    <path d="M 747.826352 394.279598 
L 730.332806 404.749298 
L 698.582621 423.916618 
L 694.230724 426.565489 
L 649.022076 455.114843 
" clip-path="url(#p961d56eddc)" style="fill: none; stroke: #4d59c1; stroke-width: 0.2"/>
    <path d="M 698.582621 423.916618 
L 683.468865 403.28058 
" clip-path="url(#p961d56eddc)" style="fill: none; stroke: #4d59c1; stroke-width: 0.2"/>
    <path d="M 632.039362 433.502127 
L 644.925595 425.696097 
L 657.121713 418.371006 
L 683.468865 403.28058 
L 706.937674 388.204953 
L 725.104144 376.980547 
L 731.946348 372.478206 
" clip-path="url(#p961d56eddc)" style="fill: none; stroke: #4d59c1; stroke-width: 0.2"/>
    <path d="M 657.121713 418.371006 
L 631.074184 385.374804 
" clip-path="url(#p961d56eddc)" style="fill: none; stroke: #4d59c1; stroke-width: 0.2"/>
    <path d="M 452.344319 497.592968 
L 456.276253 497.263709 
L 458.18205 497.729851 
L 462.123808 498.69913 
L 474.739889 504.958753 
L 481.817862 506.701237 
L 487.36825 506.930608 
L 491.76681 507.111886 
L 497.739617 506.371977 
L 500.644975 506.009422 
L 504.17905 505.572877 
L 527.392443 501.914031 
" clip-path="url(#p961d56eddc)" style="fill: none; stroke: #4d59c1; stroke-width: 0.2"/>
    <path d="M 527.392443 501.914031 
L 526.306924 496.401716 
L 520.356221 497.441287 
L 509.898896 500.264036 
L 502.742334 502.905508 
L 497.739617 506.371977 
" clip-path="url(#p961d56eddc)" style="fill: none; stroke: #4d59c1; stroke-width: 0.2"/>
    <path d="M 533.922744 481.596154 
L 537.800648 483.786282 
L 540.096937 485.184709 
L 541.693288 487.482123 
L 542.393226 490.674827 
L 541.845555 492.98704 
L 540.573386 493.978517 
L 533.94976 494.781317 
L 529.14106 495.769094 
L 526.306924 496.401716 
" clip-path="url(#p961d56eddc)" style="fill: none; stroke: #4d59c1; stroke-width: 0.2"/>
    <path d="M 532.829858 471.718381 
L 534.404105 480.094141 
L 533.922744 481.596154 
L 533.505237 482.887294 
L 514.135365 487.182461 
L 460.917949 495.669207 
L 458.18205 497.729851 
" clip-path="url(#p961d56eddc)" style="fill: none; stroke: #4d59c1; stroke-width: 0.2"/>
    <path d="M 607.013497 402.56287 
L 557.145961 452.280995 
L 532.829858 471.718381 
L 453.137582 484.955337 
L 450.23468 485.09592 
L 446.396071 486.002307 
L 379.290405 495.96517 
L 342.512944 501.799345 
L 313.44954 507.07489 
L 304.703995 508.558406 
L 296.552784 509.875442 
L 267.857768 514.662648 
L 247.598852 518.121718 
L 240.29739 519.897498 
L 235.166965 520.015883 
L 231.83182 519.335168 
" clip-path="url(#p961d56eddc)" style="fill: none; stroke: #4d59c1; stroke-width: 0.2"/>
    <path d="M 369.059026 432.540247 
L 435.865069 423.110118 
L 440.000845 422.52559 
L 495.067572 376.22584 
" clip-path="url(#p961d56eddc)" style="fill: none; stroke: #4d59c1; stroke-width: 0.2"/>
    <path d="M 463.835587 349.422669 
L 456.205031 367.909273 
L 447.164775 391.553037 
L 435.865069 423.110118 
" clip-path="url(#p961d56eddc)" style="fill: none; stroke: #4d59c1; stroke-width: 0.2"/>
    <path d="M 512.593045 398.389788 
L 568.735466 351.856967 
" clip-path="url(#p961d56eddc)" style="fill: none; stroke: #4d59c1; stroke-width: 0.2"/>
    <path d="M 359.336023 367.280351 
L 380.926051 363.725093 
L 433.512294 355.064468 
L 463.835587 349.422669 
L 466.146611 346.455638 
" clip-path="url(#p961d56eddc)" style="fill: none; stroke: #4d59c1; stroke-width: 0.2"/>
    <path d="M 495.067572 376.22584 
L 553.162453 330.776985 
" clip-path="url(#p961d56eddc)" style="fill: none; stroke: #4d59c1; stroke-width: 0.2"/>
    <path d="M 469.933646 345.260686 
L 466.146611 346.455638 
L 464.90637 346.344651 
L 462.010835 346.085684 
L 440.975847 349.885112 
" clip-path="url(#p961d56eddc)" style="fill: none; stroke: #4d59c1; stroke-width: 0.2"/>
    <path d="M 434.973569 350.920983 
L 451.892429 330.066673 
" clip-path="url(#p961d56eddc)" style="fill: none; stroke: #4d59c1; stroke-width: 0.2"/>
    <path d="M 480.236247 358.460647 
L 537.714691 311.787243 
" clip-path="url(#p961d56eddc)" style="fill: none; stroke: #4d59c1; stroke-width: 0.2"/>
    <path d="M 464.90637 346.344651 
L 451.892429 330.066673 
L 436.174516 309.497227 
" clip-path="url(#p961d56eddc)" style="fill: none; stroke: #4d59c1; stroke-width: 0.2"/>
    <path d="M 466.920227 341.505652 
L 523.927134 294.232923 
" clip-path="url(#p961d56eddc)" style="fill: none; stroke: #4d59c1; stroke-width: 0.2"/>
    <path d="M 451.322654 321.812998 
L 476.061176 302.138841 
L 477.684542 300.751514 
L 489.087397 291.014323 
" clip-path="url(#p961d56eddc)" style="fill: none; stroke: #4d59c1; stroke-width: 0.2"/>
    <path d="M 489.087397 291.014323 
L 494.839171 286.105033 
L 496.477272 284.706606 
L 500.261851 286.082835 
L 505.424203 292.390552 
L 497.164931 299.73044 
L 489.087397 291.014323 
" clip-path="url(#p961d56eddc)" style="fill: none; stroke: #4d59c1; stroke-width: 0.2"/>
    <path d="M 464.248182 299.845126 
L 470.338874 300.496245 
L 477.684542 300.751514 
" clip-path="url(#p961d56eddc)" style="fill: none; stroke: #4d59c1; stroke-width: 0.2"/>
    <path d="M 458.295023 293.93696 
L 464.400449 294.240322 
" clip-path="url(#p961d56eddc)" style="fill: none; stroke: #4d59c1; stroke-width: 0.2"/>
    <path d="M 434.199953 270.485572 
L 443.603686 270.600258 
L 459.547544 270.82963 
L 464.479039 271.288373 
L 464.938297 274.270202 
L 464.746735 281.306728 
L 464.400449 294.240322 
L 464.248182 299.845126 
L 458.744457 299.959812 
L 453.238275 299.959812 
L 445.897518 298.92764 
L 444.2938 297.666097 
L 444.522201 291.931809 
L 444.86603 283.330377 
" clip-path="url(#p961d56eddc)" style="fill: none; stroke: #4d59c1; stroke-width: 0.2"/>
    <path d="M 456.327827 280.770295 
L 464.746735 281.306728 
" clip-path="url(#p961d56eddc)" style="fill: none; stroke: #4d59c1; stroke-width: 0.2"/>
    <path d="M 494.839171 286.105033 
L 484.767427 273.382313 
L 482.856718 272.512921 
L 480.597268 272.512921 
L 480.248527 276.771092 
L 480.162569 279.290479 
L 478.423775 280.855385 
L 473.730505 280.855385 
L 471.122313 280.422538 
L 469.992588 277.203938 
L 470.252916 271.121893 
L 464.479039 271.288373 
" clip-path="url(#p961d56eddc)" style="fill: none; stroke: #4d59c1; stroke-width: 0.2"/>
    <path d="M 435.128292 240.275124 
L 434.887611 252.135851 
L 434.199953 270.485572 
L 433.740695 284.706606 
L 431.896296 287.540454 
" clip-path="url(#p961d56eddc)" style="fill: none; stroke: #4d59c1; stroke-width: 0.2"/>
    <path d="M 607.104366 349.108208 
L 595.200503 358.301566 
L 591.295584 361.128015 
L 590.070078 366.473851 
L 588.463903 373.939524 
L 557.187712 400.258056 
" clip-path="url(#p961d56eddc)" style="fill: none; stroke: #4d59c1; stroke-width: 0.2"/>
    <path d="M 703.683575 341.276281 
L 681.496758 354.73151 
L 631.074184 385.374804 
L 610.940519 398.05313 
L 607.013497 402.56287 
" clip-path="url(#p961d56eddc)" style="fill: none; stroke: #4d59c1; stroke-width: 0.2"/>
    <path d="M 681.496758 354.73151 
L 706.937674 388.204953 
" clip-path="url(#p961d56eddc)" style="fill: none; stroke: #4d59c1; stroke-width: 0.2"/>
    <path d="M 776.094036 429.010885 
L 770.077023 420.168983 
L 766.024748 414.95633 
L 760.393315 408.91868 
L 747.826352 394.279598 
L 734.043707 374.871809 
L 731.946348 372.478206 
L 714.187562 351.99015 
L 703.683575 341.276281 
L 693.732171 327.417802 
L 689.829708 323.681266 
L 685.379574 320.91401 
L 681.563068 319.608072 
L 661.053647 314.920754 
L 632.87192 307.051831 
L 607.038056 300.037502 
L 577.095431 291.905912 
L 540.843538 281.499105 
L 536.631628 281.806166 
L 533.36525 282.538675 
L 521.896085 291.632146 
" clip-path="url(#p961d56eddc)" style="fill: none; stroke: #4d59c1; stroke-width: 0.2"/>
    <path d="M 661.053647 314.920754 
L 658.504398 327.99863 
L 655.775867 332.116218 
L 650.758414 336.781339 
L 646.870686 338.660706 
L 642.322315 339.282228 
L 633.041379 345.663936 
L 621.022087 352.060441 
L 611.498014 355.171755 
" clip-path="url(#p961d56eddc)" style="fill: none; stroke: #4d59c1; stroke-width: 0.2"/>
    <path d="M 642.322315 339.282228 
L 638.849639 338.568217 
L 621.982353 333.514645 
L 585.4775 323.074541 
" clip-path="url(#p961d56eddc)" style="fill: none; stroke: #4d59c1; stroke-width: 0.2"/>
    <path d="M 577.095431 291.905912 
L 576.923517 306.052955 
L 578.787563 313.522328 
L 582.38058 319.393498 
L 585.4775 323.074541 
L 600.20322 340.577068 
L 607.104366 349.108208 
L 611.498014 355.171755 
L 617.871137 364.117244 
" clip-path="url(#p961d56eddc)" style="fill: none; stroke: #4d59c1; stroke-width: 0.2"/>
    <path d="M 684.331759 298.182999 
L 684.171259 301.42483 
L 683.945314 305.283451 
L 684.927684 314.214142 
L 685.305896 318.675788 
L 685.379574 320.91401 
" clip-path="url(#p961d56eddc)" style="fill: none; stroke: #4d59c1; stroke-width: 0.2"/>
    <path d="M 607.038056 300.037502 
L 609.982709 288.720608 
L 611.529941 281.325226 
L 611.354687 280.298986 
" clip-path="url(#p961d56eddc)" style="fill: none; stroke: #4d59c1; stroke-width: 0.2"/>
    <path d="M 360.372423 609.526267 
L 361.814051 617.702251 
L 361.953308 619.464397 
" clip-path="url(#p961d56eddc)" style="fill: none; stroke: #4d59c1; stroke-width: 0.2"/>
    <path d="M 325.42217 577.421654 
L 337.957205 609.966512 
L 338.416463 613.051929 
L 340.462248 620.432512 
L 340.216365 622.474893 
" clip-path="url(#p961d56eddc)" style="fill: none; stroke: #4d59c1; stroke-width: 0.2"/>
    <path d="M 390.430476 606.126389 
L 360.372423 609.526267 
L 344.789586 611.649803 
L 338.416463 613.051929 
L 303.306574 618.390366 
L 296.631373 618.098102 
L 291.05397 616.607187 
L 271.951794 611.668301 
L 234.798576 595.197946 
L 229.923567 592.101431 
" clip-path="url(#p961d56eddc)" style="fill: none; stroke: #4d59c1; stroke-width: 0.2"/>
    <path d="M 229.923567 592.101431 
L 236.011803 592.397394 
L 270.124586 587.03676 
L 275.250099 585.98979 
L 279.646203 585.283177 
L 325.42217 577.421654 
L 343.711435 574.702491 
L 355.851067 572.749134 
L 425.805605 561.513629 
L 461.109511 555.47228 
" clip-path="url(#p961d56eddc)" style="fill: none; stroke: #4d59c1; stroke-width: 0.2"/>
    <path d="M 267.857768 514.662648 
L 275.277115 557.980568 
L 279.646203 585.283177 
" clip-path="url(#p961d56eddc)" style="fill: none; stroke: #4d59c1; stroke-width: 0.2"/>
    <path d="M 275.277115 557.980568 
L 349.598285 545.076571 
L 457.204592 528.058684 
" clip-path="url(#p961d56eddc)" style="fill: none; stroke: #4d59c1; stroke-width: 0.2"/>
    <path d="M 342.512944 501.799345 
L 349.598285 545.076571 
L 355.851067 572.749134 
" clip-path="url(#p961d56eddc)" style="fill: none; stroke: #4d59c1; stroke-width: 0.2"/>
    <path d="M 369.059026 432.540247 
L 379.290405 495.96517 
" clip-path="url(#p961d56eddc)" style="fill: none; stroke: #4d59c1; stroke-width: 0.2"/>
    <path d="M 304.703995 508.558406 
L 296.690315 445.225971 
L 294.114051 429.602811 
L 291.734261 408.977873 
L 290.024938 398.219609 
" clip-path="url(#p961d56eddc)" style="fill: none; stroke: #4d59c1; stroke-width: 0.2"/>
    <path d="M 158.910526 643.354865 
L 186.760704 638.626853 
L 202.068478 636.026076 
L 230.6628 629.777552 
" clip-path="url(#p961d56eddc)" style="fill: none; stroke: #4d59c1; stroke-width: 0.2"/>
    <path d="M 186.760704 638.626853 
L 178.80351 583.074552 
" clip-path="url(#p961d56eddc)" style="fill: none; stroke: #4d59c1; stroke-width: 0.2"/>
    <path d="M 178.80351 583.074552 
L 230.6628 629.777552 
" clip-path="url(#p961d56eddc)" style="fill: none; stroke: #4d59c1; stroke-width: 0.2"/>
    <path d="M 145.702567 558.746373 
L 147.596085 565.44994 
L 158.910526 643.354865 
L 152.060955 644.553517 
" clip-path="url(#p961d56eddc)" style="fill: none; stroke: #4d59c1; stroke-width: 0.2"/>
    <path d="M 178.80351 583.074552 
L 151.314354 559.064533 
L 145.702567 558.746373 
L 139.614332 558.616889 
" clip-path="url(#p961d56eddc)" style="fill: none; stroke: #4d59c1; stroke-width: 0.2"/>
    <path d="M 129.893785 508.946858 
L 123.238231 512.106265 
L 118.944633 514.096347 
" clip-path="url(#p961d56eddc)" style="fill: none; stroke: #4d59c1; stroke-width: 0.2"/>
    <path d="M 159.050514 505.905835 
L 166.489508 499.609217 
L 170.578621 497.955523 
L 176.642297 496.061358 
L 223.280293 487.822481 
" clip-path="url(#p961d56eddc)" style="fill: none; stroke: #4d59c1; stroke-width: 0.2"/>
    <path d="M 231.83182 519.335168 
L 229.528163 517.330017 
L 227.224507 514.233501 
L 225.706746 509.686766 
L 223.280293 487.822481 
L 218.46177 457.053402 
L 209.077685 403.269482 
" clip-path="url(#p961d56eddc)" style="fill: none; stroke: #4d59c1; stroke-width: 0.2"/>
    <path d="M 128.919175 557.099527 
L 129.989566 557.577318 
L 135.522763 558.761171 
L 138.216911 558.620589 
L 139.614332 558.616889 
" clip-path="url(#p961d56eddc)" style="fill: none; stroke: #4d59c1; stroke-width: 0.2"/>
    <path d="M 160.808956 406.772947 
L 167.05437 436.465459 
L 170.274086 457.168088 
L 171.487313 464.826137 
" clip-path="url(#p961d56eddc)" style="fill: none; stroke: #4d59c1; stroke-width: 0.2"/>
    <path d="M 167.05437 436.465459 
L 195.670796 431.774442 
" clip-path="url(#p961d56eddc)" style="fill: none; stroke: #4d59c1; stroke-width: 0.2"/>
    <path d="M 229.923567 592.101431 
L 206.933663 567.462491 
L 196.920861 554.088651 
L 190.729477 545.461323 
L 159.050514 505.905835 
L 157.859391 504.41862 
L 142.495131 485.591658 
L 139.282782 471.08576 
L 139.152618 470.253363 
L 129.930624 411.467664 
L 127.803794 396.340242 
L 123.505927 368.667679 
L 121.379097 353.159205 
L 112.142367 296.789306 
L 108.009047 267.185582 
L 106.923528 259.412847 
L 102.357966 237.81493 
" clip-path="url(#p961d56eddc)" style="fill: none; stroke: #4d59c1; stroke-width: 0.2"/>
    <path d="M 79.075807 130.302582 
L 82.248861 150.435481 
L 82.838282 154.763944 
L 87.303152 185.207463 
L 88.747235 196.468865 
L 92.364811 225.89871 
L 94.545672 239.98656 
L 102.55444 297.455223 
L 119.163853 413.254542 
L 127.184901 471.895959 
L 131.87326 502.624343 
L 133.118413 512.70929 
L 139.614332 558.616889 
L 146.233047 603.906665 
L 152.060955 644.553517 
L 152.304829 646.225634 
" clip-path="url(#p961d56eddc)" style="fill: none; stroke: #4d59c1; stroke-width: 0.5"/>
    <path d="M 208.250038 399.211086 
L 160.808956 406.772947 
L 129.930624 411.467664 
L 119.163853 413.254542 
" clip-path="url(#p961d56eddc)" style="fill: none; stroke: #4d59c1; stroke-width: 0.2"/>
    <path d="M 209.077685 403.269482 
L 208.250038 399.211086 
L 207.771133 395.39686 
" clip-path="url(#p961d56eddc)" style="fill: none; stroke: #4d59c1; stroke-width: 0.2"/>
    <path d="M 123.505927 368.667679 
L 148.944387 364.527893 
L 151.073673 364.857152 
L 152.321282 365.789436 
L 153.399433 369.474179 
L 155.160331 378.227292 
L 156.678092 389.980732 
L 155.182434 391.775009 
L 151.127703 392.533415 
L 127.803794 396.340242 
" clip-path="url(#p961d56eddc)" style="fill: none; stroke: #4d59c1; stroke-width: 0.2"/>
    <path d="M 155.160331 378.227292 
L 185.815173 374.157797 
" clip-path="url(#p961d56eddc)" style="fill: none; stroke: #4d59c1; stroke-width: 0.2"/>
    <path d="M 61.767243 241.481814 
L 65.66155 242.520745 
L 72.093615 250.245386 
L 76.521646 271.79521 
L 82.609881 316.411669 
L 101.419803 463.416612 
L 129.893785 508.946858 
L 133.118413 512.70929 
" clip-path="url(#p961d56eddc)" style="fill: none; stroke: #4d59c1; stroke-width: 0.2"/>
    <path d="M 207.771133 395.39686 
L 205.187501 378.600945 
L 198.932263 340.987717 
L 189.577649 284.077684 
" clip-path="url(#p961d56eddc)" style="fill: none; stroke: #4d59c1; stroke-width: 0.2"/>
    <path d="M 142.534426 292.301763 
L 147.070517 322.216248 
L 149.946404 348.989823 
" clip-path="url(#p961d56eddc)" style="fill: none; stroke: #4d59c1; stroke-width: 0.2"/>
    <path d="M 127.184901 471.895959 
L 139.152618 470.253363 
L 171.487313 464.826137 
L 218.46177 457.053402 
L 296.690315 445.225971 
L 369.059026 432.540247 
" clip-path="url(#p961d56eddc)" style="fill: none; stroke: #4d59c1; stroke-width: 0.2"/>
    <path d="M 333.649515 390.868622 
L 337.473388 397.442705 
L 343.964395 407.827316 
L 351.651437 419.606653 
L 355.745462 423.702044 
L 361.836154 426.698672 
L 368.395927 428.152592 
" clip-path="url(#p961d56eddc)" style="fill: none; stroke: #4d59c1; stroke-width: 0.2"/>
    <path d="M 362.044907 386.085116 
L 368.395927 428.152592 
L 369.059026 432.540247 
" clip-path="url(#p961d56eddc)" style="fill: none; stroke: #4d59c1; stroke-width: 0.2"/>
    <path d="M 209.077685 403.269482 
L 288.873109 390.983308 
" clip-path="url(#p961d56eddc)" style="fill: none; stroke: #4d59c1; stroke-width: 0.2"/>
    <path d="M 290.024938 398.219609 
L 333.649515 390.868622 
L 362.044907 386.085116 
" clip-path="url(#p961d56eddc)" style="fill: none; stroke: #4d59c1; stroke-width: 0.2"/>
    <path d="M 290.024938 398.219609 
L 288.873109 390.983308 
L 287.374996 382.811023 
" clip-path="url(#p961d56eddc)" style="fill: none; stroke: #4d59c1; stroke-width: 0.2"/>
    <path d="M 287.374996 382.811023 
L 207.771133 395.39686 
" clip-path="url(#p961d56eddc)" style="fill: none; stroke: #4d59c1; stroke-width: 0.2"/>
    <path d="M 706.193529 531.214392 
L 702.558762 524.906676 
L 688.223534 504.318732 
L 683.70709 498.440162 
L 667.429226 476.749756 
L 649.972518 455.821455 
L 649.022076 455.114843 
L 632.039362 433.502127 
L 607.013497 402.56287 
L 600.905614 393.828254 
L 592.155157 380.380424 
L 588.463903 373.939524 
L 568.735466 351.856967 
L 553.162453 330.776985 
L 549.456463 325.98238 
L 537.714691 311.787243 
L 523.927134 294.232923 
L 521.896085 291.632146 
L 491.63419 253.91533 
L 486.879521 244.832958 
L 482.348342 242.579938 
L 448.473783 241.011333 
L 435.128292 240.275124 
L 425.029533 239.820081 
L 415.421958 238.961787 
L 376.421886 236.331414 
L 360.347864 235.406529 
L 285.783557 231.910463 
L 246.058987 231.259344 
L 213.110312 230.012599 
L 186.844205 229.672241 
L 181.821841 229.949707 
L 175.379952 230.40475 
L 142.954389 231.792078 
L 102.357966 237.81493 
" clip-path="url(#p961d56eddc)" style="fill: none; stroke: #4d59c1; stroke-width: 0.2"/>
    <path d="M 287.374996 382.811023 
L 286.272286 374.960598 
" clip-path="url(#p961d56eddc)" style="fill: none; stroke: #4d59c1; stroke-width: 0.2"/>
    <path d="M 358.569775 363.170162 
L 359.336023 367.280351 
L 362.044907 386.085116 
" clip-path="url(#p961d56eddc)" style="fill: none; stroke: #4d59c1; stroke-width: 0.2"/>
    <path d="M 286.272286 374.960598 
L 347.984743 364.535292 
L 358.569775 363.170162 
" clip-path="url(#p961d56eddc)" style="fill: none; stroke: #4d59c1; stroke-width: 0.2"/>
    <path d="M 557.145961 452.280995 
L 512.593045 398.389788 
L 501.909776 385.123235 
L 495.067572 376.22584 
L 480.236247 358.460647 
L 469.933646 345.260686 
L 466.920227 341.505652 
L 459.540176 332.304895 
L 451.322654 321.812998 
L 441.147762 308.820212 
L 435.646492 301.794784 
L 434.376779 299.763736 
L 433.669473 297.055673 
L 433.14145 289.874864 
L 432.615882 288.358053 
L 431.896296 287.540454 
L 431.412479 286.989223 
L 429.452652 286.44909 
L 426.753591 286.253014 
L 350.138588 282.427689 
L 318.980281 280.881281 
L 269.933024 278.927924 
L 254.755414 278.158419 
L 243.362383 277.092952 
L 234.268097 277.037459 
L 224.422298 278.051133 
L 189.577649 284.077684 
L 142.534426 292.301763 
L 112.142367 296.789306 
L 105.091409 297.381232 
L 102.55444 297.455223 
" clip-path="url(#p961d56eddc)" style="fill: none; stroke: #4d59c1; stroke-width: 0.2"/>
    <path d="M 380.218745 359.707392 
L 380.926051 363.725093 
" clip-path="url(#p961d56eddc)" style="fill: none; stroke: #4d59c1; stroke-width: 0.2"/>
    <path d="M 345.202181 349.082311 
L 345.69091 351.797774 
L 347.984743 364.535292 
" clip-path="url(#p961d56eddc)" style="fill: none; stroke: #4d59c1; stroke-width: 0.2"/>
    <path d="M 440.975847 349.885112 
L 434.973569 350.920983 
L 432.507821 351.34643 
L 380.218745 359.707392 
L 358.569775 363.170162 
" clip-path="url(#p961d56eddc)" style="fill: none; stroke: #4d59c1; stroke-width: 0.2"/>
    <path d="M 323.489357 321.968379 
L 326.296478 326.237648 
L 333.006063 336.270802 
L 339.887562 346.19297 
L 341.894051 348.945428 
L 345.69091 351.797774 
" clip-path="url(#p961d56eddc)" style="fill: none; stroke: #4d59c1; stroke-width: 0.2"/>
    <path d="M 121.379097 353.159205 
L 149.946404 348.989823 
L 198.932263 340.987717 
L 208.895946 339.496802 
L 278.062132 328.594256 
L 323.489357 321.968379 
L 351.690732 317.85449 
" clip-path="url(#p961d56eddc)" style="fill: none; stroke: #4d59c1; stroke-width: 0.2"/>
    <path d="M 286.272286 374.960598 
L 278.062132 328.594256 
L 273.398333 299.663849 
L 269.933024 278.927924 
" clip-path="url(#p961d56eddc)" style="fill: none; stroke: #4d59c1; stroke-width: 0.2"/>
    <path d="M 350.138588 282.427689 
L 349.384619 299.952413 
L 351.690732 317.85449 
L 352.248227 321.531833 
L 358.569775 363.170162 
" clip-path="url(#p961d56eddc)" style="fill: none; stroke: #4d59c1; stroke-width: 0.2"/>
    <path d="M 441.147762 308.820212 
L 436.174516 309.497227 
L 417.538965 312.042511 
L 387.490735 316.515256 
L 352.248227 321.531833 
" clip-path="url(#p961d56eddc)" style="fill: none; stroke: #4d59c1; stroke-width: 0.2"/>
    <path d="M 147.070517 322.216248 
L 178.678258 316.951802 
" clip-path="url(#p961d56eddc)" style="fill: none; stroke: #4d59c1; stroke-width: 0.2"/>
    <path d="M 223.994967 259.708811 
L 221.625 259.379552 
L 184.800877 263.926287 
L 181.244699 264.780881 
L 154.632307 267.677621 
L 143.234364 268.928066 
" clip-path="url(#p961d56eddc)" style="fill: none; stroke: #4d59c1; stroke-width: 0.2"/>
    <path d="M 108.009047 267.185582 
L 116.771783 265.961034 
L 115.686265 258.1883 
L 106.923528 259.412847 
" clip-path="url(#p961d56eddc)" style="fill: none; stroke: #4d59c1; stroke-width: 0.2"/>
    <path d="M 189.577649 284.077684 
L 186.777895 268.794882 
L 184.800877 263.926287 
L 184.933496 254.966 
L 183.022788 249.298304 
L 181.836576 239.091271 
L 181.821841 229.949707 
" clip-path="url(#p961d56eddc)" style="fill: none; stroke: #4d59c1; stroke-width: 0.2"/>
    <path d="M 102.357966 237.81493 
L 94.545672 239.98656 
" clip-path="url(#p961d56eddc)" style="fill: none; stroke: #4d59c1; stroke-width: 0.2"/>
    <path d="M 102.357966 237.81493 
L 102.259729 230.134684 
L 98.703551 209.716919 
L 97.632768 195.177725 
" clip-path="url(#p961d56eddc)" style="fill: none; stroke: #4d59c1; stroke-width: 0.2"/>
    <path d="M 180.741234 187.96732 
L 182.875432 192.432666 
L 182.725621 202.118063 
L 183.027699 212.709848 
L 184.086203 225.118107 
L 181.821841 229.949707 
" clip-path="url(#p961d56eddc)" style="fill: none; stroke: #4d59c1; stroke-width: 0.2"/>
    <path d="M 97.632768 195.177725 
L 88.747235 196.468865 
" clip-path="url(#p961d56eddc)" style="fill: none; stroke: #4d59c1; stroke-width: 0.2"/>
    <path d="M 97.632768 195.177725 
L 99.759598 186.59849 
L 94.157636 152.54422 
" clip-path="url(#p961d56eddc)" style="fill: none; stroke: #4d59c1; stroke-width: 0.2"/>
    <path d="M 176.367234 188.840412 
L 173.400478 180.738418 
L 171.214705 177.649302 
L 162.059021 172.91019 
L 158.188485 169.865468 
L 155.285583 166.31391 
L 150.938597 163.420869 
L 124.588989 155.252283 
L 105.619433 152.877178 
L 94.157636 152.54422 
L 82.838282 154.763944 
" clip-path="url(#p961d56eddc)" style="fill: none; stroke: #4d59c1; stroke-width: 0.2"/>
    <path d="M 415.421958 238.961787 
L 415.687198 235.536013 
L 416.47555 219.927651 
L 417.661761 209.454252 
L 417.958928 206.453924 
L 417.592995 204.385881 
L 408.687815 202.284542 
L 399.46582 197.674915 
L 393.141816 197.14588 
L 343.058159 193.549927 
L 337.016586 192.565849 
L 325.358316 189.931776 
L 289.68602 187.231112 
L 286.08318 186.890754 
L 283.408679 186.635486 
L 267.22414 186.113851 
L 201.547822 185.488628 
L 187.563791 186.60219 
L 180.741234 187.96732 
L 176.367234 188.840412 
L 170.04323 190.157448 
L 131.443473 191.99612 
L 97.632768 195.177725 
" clip-path="url(#p961d56eddc)" style="fill: none; stroke: #4d59c1; stroke-width: 0.2"/>
    <path d="M 286.08318 186.890754 
L 285.783557 231.910463 
" clip-path="url(#p961d56eddc)" style="fill: none; stroke: #4d59c1; stroke-width: 0.2"/>
    <path d="M 67.741718 47.166507 
L 59.904865 47.429174 
L 45.758733 46.441489 
" clip-path="url(#p961d56eddc)" style="fill: none; stroke: #4d59c1; stroke-width: 0.5"/>
    <path d="M 66.511123 38.474967 
L 67.741718 47.166507 
L 79.075807 130.302582 
" clip-path="url(#p961d56eddc)" style="fill: none; stroke: #4d59c1; stroke-width: 0.5"/>
   </g>
   <g id="LineCollection_2">
    <path d="M 168.053931 545.971859 
L 176.377057 553.94067 
L 197.186101 569.193876 
L 212.172149 581.71682 
L 233.818662 602.745009 
L 239.548333 607.683895 
L 242.458603 609.929517 
L 245.675863 612.178837 
L 251.44974 615.708199 
L 256.344397 618.175792 
L 264.047348 620.885014 
" clip-path="url(#p961d56eddc)" style="fill: none; stroke-dasharray: 3.7,1.6; stroke-dashoffset: 0; stroke: #4d59c1"/>
    <path d="M 254.899543 627.073892 
L 247.773222 623.225665 
L 238.396505 616.736671 
L 224.606492 605.612153 
L 200.663689 583.903249 
L 192.129354 574.820877 
L 177.317676 557.728999 
L 168.053931 545.971859 
L 131.87326 502.624343 
L 127.192269 495.661808 
L 121.506805 486.975286 
L 117.847478 479.439322 
L 114.178328 469.187895 
L 112.198853 460.242406 
L 65.099144 125.544973 
L 62.00468 106.773504 
L 53.666818 75.738058 
L 49.486835 64.184393 
L 46.699055 57.902471 
" clip-path="url(#p961d56eddc)" style="fill: none; stroke-dasharray: 3.7,1.6; stroke-dashoffset: 0; stroke: #4d59c1"/>
   </g>
  </g>
 </g>
 <defs>
  <clipPath id="p961d56eddc">
   <rect x="7.2" y="7.2" width="837" height="671.556139"/>
  </clipPath>
 </defs>
</svg>
