<?xml version="1.0" encoding="utf-8" standalone="no"?>
<!DOCTYPE svg PUBLIC "-//W3C//DTD SVG 1.1//EN"
  "http://www.w3.org/Graphics/SVG/1.1/DTD/svg11.dtd">
<svg xmlns:xlink="http://www.w3.org/1999/xlink" width="606.05845pt" height="846pt" viewBox="0 0 606.05845 846" xmlns="http://www.w3.org/2000/svg" version="1.1">
 <metadata>
  <rdf:RDF xmlns:dc="http://purl.org/dc/elements/1.1/" xmlns:cc="http://creativecommons.org/ns#" xmlns:rdf="http://www.w3.org/1999/02/22-rdf-syntax-ns#">
   <cc:Work>
    <dc:type rdf:resource="http://purl.org/dc/dcmitype/StillImage"/>
    <dc:date>2025-03-16T14:38:38.554404</dc:date>
    <dc:format>image/svg+xml</dc:format>
    <dc:creator>
     <cc:Agent>
      <dc:title>Matplotlib v3.10.1, https://matplotlib.org/</dc:title>
     </cc:Agent>
    </dc:creator>
   </cc:Work>
  </rdf:RDF>
 </metadata>
 <defs>
  <style type="text/css">*{stroke-linejoin: round; stroke-linecap: butt}</style>
 </defs>
 <g id="figure_1">
  <g id="patch_1">
   <path d="M 0 846 
L 606.05845 846 
L 606.05845 0 
L 0 0 
z
" style="fill: #ffffff"/>
  </g>
  <g id="axes_1">
   <g id="PatchCollection_1">
    <path d="M 270.558938 78.907761 
L 223.37714 62.780613 
L 188.104237 51.399848 
L 173.675848 45 
L 171.493734 49.555824 
L 162.133926 51.08909 
L 112.122877 49.25093 
L 81.310878 52.009637 
L 58.086953 57.181112 
L 34.865 60.81639 
L 35.103731 78.60873 
L 34.093566 145.770488 
L 35.934355 189.229648 
L 43.522428 211.302234 
L 53.410995 223.028937 
L 69.735415 230.15584 
L 72.035908 243.492033 
L 68.816008 257.288499 
L 67.206057 312.014088 
L 79.622009 332.480116 
L 91.580229 346.276582 
L 104.686723 351.333722 
L 117.102674 348.114743 
L 123.080797 397.094248 
L 145.61418 417.560276 
L 149.52265 428.829637 
L 173.437118 446.997231 
L 178.495834 535.765439 
L 185.853069 539.444692 
L 194.820254 532.543527 
L 213.445168 522.654985 
L 221.492945 519.667608 
L 228.390477 518.515459 
L 232.150973 521.581992 
L 242.039539 528.708895 
L 252.299026 530.242162 
L 260.232371 546.45726 
L 261.268184 555.196585 
L 262.416457 573.595782 
L 260.922913 585.439751 
L 255.404493 592.109313 
L 252.299026 597.169386 
L 253.68011 614.530769 
L 263.653515 628.523657 
L 272.160996 629.212601 
L 284.348082 641.862781 
L 298.373983 656.351122 
L 312.62875 676.820082 
L 293.4297 694.530335 
L 293.774971 703.615598 
L 289.750096 714.770624 
L 399.295759 748.912918 
L 571.964884 801 
L 550.82837 731.061945 
L 526.927713 663.894324 
L 494.247304 566.970195 
L 471.64684 507.290073 
L 464.169253 496.393035 
L 438.96643 442.406227 
L 406.516859 359.542414 
L 405.703992 333.201308 
L 399.327327 313.257119 
L 454.592417 292.166644 
L 314.001943 108.907598 
L 305.7253 100.631478 
L 305.380029 97.673417 
L 293.698025 88.177719 
L 282.392861 83.126442 
L 270.558938 78.907761 
" clip-path="url(#pbf8fd95135)" style="fill: #fbd6c9"/>
   </g>
   <g id="PatchCollection_2">
    <path d="M 296.712736 469.84378 
L 297.770252 472.373816 
L 296.274735 472.989468 
L 295.256678 470.397866 
L 296.712736 469.84378 
" clip-path="url(#pbf8fd95135)" style="fill: #e6482f"/>
    <path d="M 257.858878 358.484079 
L 259.084097 361.544749 
L 254.214787 363.344798 
L 253.096109 360.228426 
L 257.858878 358.484079 
" clip-path="url(#pbf8fd95135)" style="fill: #e6482f"/>
    <path d="M 251.866943 347.72483 
L 252.685729 350.363338 
L 254.974384 349.5454 
L 255.698467 352.022666 
L 251.073806 353.772877 
L 249.414532 348.604332 
L 251.866943 347.72483 
" clip-path="url(#pbf8fd95135)" style="fill: #e6482f"/>
    <path d="M 245.271278 323.535574 
L 244.821439 322.066804 
L 247.893366 320.967426 
L 248.345178 322.189935 
L 249.615775 321.753115 
L 250.744319 324.620294 
L 249.430315 325.03366 
L 250.024182 326.921659 
L 246.827957 328.111919 
L 246.20055 326.514156 
L 244.288735 327.2031 
L 243.343678 324.245039 
L 245.271278 323.535574 
" clip-path="url(#pbf8fd95135)" style="fill: #e6482f"/>
    <path d="M 190.319891 81.930318 
L 191.099218 83.868156 
L 188.425832 84.841472 
L 187.711614 82.935883 
L 190.319891 81.930318 
" clip-path="url(#pbf8fd95135)" style="fill: #e6482f"/>
    <path d="M 179.131133 59.605608 
L 179.687512 60.945384 
L 179.117322 61.185781 
L 178.545158 59.860664 
L 179.131133 59.605608 
" clip-path="url(#pbf8fd95135)" style="fill: #e6482f"/>
   </g>
   <g id="LineCollection_1">
    <path d="M 442.459848 761.933726 
L 440.446164 756.042754 
L 426.735939 750.953365 
" clip-path="url(#pbf8fd95135)" style="fill: none; stroke: #e6482f; stroke-width: 0.2"/>
    <path d="M 442.492142 756.517685 
L 435.413097 752.008768 
L 429.184405 746.81677 
" clip-path="url(#pbf8fd95135)" style="fill: none; stroke: #e6482f; stroke-width: 0.2"/>
    <path d="M 409.389515 745.535628 
L 417.034806 747.370857 
L 424.41769 750.622085 
L 426.735939 750.953365 
L 428.401133 749.862781 
L 429.06208 748.382285 
L 429.184405 746.81677 
" clip-path="url(#pbf8fd95135)" style="fill: none; stroke: #e6482f; stroke-width: 0.2"/>
    <path d="M 399.595652 743.817666 
L 409.389515 745.535628 
" clip-path="url(#pbf8fd95135)" style="fill: none; stroke: #e6482f; stroke-width: 0.2"/>
    <path d="M 290.611524 712.383158 
L 310.701151 719.616683 
L 360.402442 734.69136 
L 382.947663 741.533891 
L 399.595652 743.817666 
" clip-path="url(#pbf8fd95135)" style="fill: none; stroke: #e6482f; stroke-width: 0.2"/>
    <path d="M 570.203976 795.173377 
L 544.268218 788.165124 
L 528.340366 782.339884 
L 514.421005 777.312061 
L 502.620623 773.342572 
L 492.513056 769.317381 
L 484.415954 767.675643 
L 459.70243 760.531149 
L 442.492142 756.517685 
L 440.446164 756.042754 
" clip-path="url(#pbf8fd95135)" style="fill: none; stroke: #e6482f; stroke-width: 0.2"/>
    <path d="M 429.184405 746.81677 
L 427.010183 741.396102 
L 424.459122 735.412552 
L 421.570682 729.552132 
L 418.982135 723.674123 
L 406.895671 696.940172 
L 395.910129 676.005076 
L 392.187119 668.916284 
L 382.900311 651.851 
L 378.932652 644.02929 
L 375.57859 632.126686 
L 373.126178 624.489671 
L 371.022983 616.069899 
L 369.201924 606.961182 
" clip-path="url(#pbf8fd95135)" style="fill: none; stroke: #e6482f; stroke-width: 0.2"/>
    <path d="M 343.799831 555.812237 
L 343.920183 558.535764 
L 343.703155 578.254214 
L 342.631828 584.267081 
L 344.563374 609.82543 
L 346.830326 639.67282 
L 348.1976 671.449252 
" clip-path="url(#pbf8fd95135)" style="fill: none; stroke: #e6482f; stroke-width: 0.2"/>
    <path d="M 429.843521 419.109801 
L 429.975569 422.077988 
L 432.587792 429.92022 
L 437.198642 440.392166 
L 439.130187 444.892288 
L 449.320619 468.624203 
L 458.828401 490.550205 
L 463.050574 497.489481 
L 467.473991 501.813703 
L 468.321711 502.444385 
" clip-path="url(#pbf8fd95135)" style="fill: none; stroke: #e6482f; stroke-width: 0.2"/>
    <path d="M 370.527766 588.966557 
L 372.27977 585.428025 
L 374.893966 581.927604 
L 379.368681 578.732077 
L 385.001533 574.636527 
L 389.902411 571.49377 
L 392.944743 569.256902 
L 395.614182 566.114145 
L 398.660461 562.508184 
L 400.546628 559.01949 
" clip-path="url(#pbf8fd95135)" style="fill: none; stroke: #e6482f; stroke-width: 0.2"/>
    <path d="M 185.110612 539.073399 
L 185.434798 538.770406 
L 190.953217 534.261489 
L 195.238526 531.4119 
L 199.762565 528.97861 
L 207.670261 525.193816 
L 219.896806 519.518092 
L 224.17225 518.075708 
L 227.161312 517.934987 
L 229.94913 518.392329 
L 232.839543 520.072179 
L 237.24323 523.895084 
L 240.859699 526.275605 
L 242.820839 527.219604 
L 244.983223 527.468797 
L 247.530338 527.243058 
L 251.312537 525.721518 
" clip-path="url(#pbf8fd95135)" style="fill: none; stroke: #e6482f; stroke-width: 0.2"/>
    <path d="M 216.035688 383.116018 
L 212.210083 376.959499 
L 208.402236 366.921442 
L 205.107362 357.088602 
L 198.718859 339.809305 
L 184.481849 305.027905 
" clip-path="url(#pbf8fd95135)" style="fill: none; stroke: #e6482f; stroke-width: 0.2"/>
    <path d="M 198.718859 339.809305 
L 220.413726 330.533484 
" clip-path="url(#pbf8fd95135)" style="fill: none; stroke: #e6482f; stroke-width: 0.2"/>
    <path d="M 71.759691 229.370151 
L 73.900372 236.658297 
L 74.219995 238.824805 
L 73.497885 242.756182 
L 71.171743 254.145742 
L 70.130011 266.256494 
L 68.847575 292.005402 
L 68.445088 300.668503 
L 68.816925 314.669386 
" clip-path="url(#pbf8fd95135)" style="fill: none; stroke: #e6482f; stroke-width: 0.2"/>
    <path d="M 169.122215 154.448248 
L 177.617858 176.825728 
L 191.519462 213.676891 
L 207.407855 251.530688 
L 222.130217 290.222943 
L 229.607804 308.918239 
L 240.415778 336.775021 
L 252.602864 367.657293 
" clip-path="url(#pbf8fd95135)" style="fill: none; stroke: #e6482f; stroke-width: 0.2"/>
    <path d="M 167.458994 261.554087 
L 165.450502 258.467032 
L 161.332897 247.194739 
L 154.522177 228.03917 
L 148.257971 214.509487 
L 137.390808 191.082467 
" clip-path="url(#pbf8fd95135)" style="fill: none; stroke: #e6482f; stroke-width: 0.2"/>
    <path d="M 346.830326 639.67282 
L 317.030464 644.04688 
" clip-path="url(#pbf8fd95135)" style="fill: none; stroke: #e6482f; stroke-width: 0.2"/>
    <path d="M 369.201924 606.961182 
L 355.610078 608.875567 
L 344.563374 609.82543 
L 313.875672 614.014794 
L 295.092921 617.966693 
" clip-path="url(#pbf8fd95135)" style="fill: none; stroke: #e6482f; stroke-width: 0.2"/>
    <path d="M 342.631828 584.267081 
L 282.396807 589.016396 
" clip-path="url(#pbf8fd95135)" style="fill: none; stroke: #e6482f; stroke-width: 0.2"/>
    <path d="M 338.103844 551.016016 
L 335.102944 552.725183 
L 324.180537 553.815766 
L 279.086149 556.81487 
" clip-path="url(#pbf8fd95135)" style="fill: none; stroke: #e6482f; stroke-width: 0.2"/>
    <path d="M 305.190623 500.491517 
L 312.157208 518.143136 
L 315.33173 524.806835 
L 318.812064 528.626809 
L 321.266448 530.16887 
L 324.048347 531.033714 
L 327.542492 531.590733 
L 331.131339 532.801515 
L 333.277939 534.323054 
L 334.891835 536.993811 
L 335.740216 539.573685 
L 336.257136 541.880914 
L 337.123273 545.736068 
L 338.103844 551.016016 
L 342.359557 553.466896 
L 343.799831 555.812237 
" clip-path="url(#pbf8fd95135)" style="fill: none; stroke: #e6482f; stroke-width: 0.2"/>
    <path d="M 251.312537 525.721518 
L 256.752037 522.713619 
" clip-path="url(#pbf8fd95135)" style="fill: none; stroke: #e6482f; stroke-width: 0.2"/>
    <path d="M 256.752037 522.713619 
L 258.498123 521.951383 
L 260.666426 521.725644 
L 262.67689 521.878091 
L 269.596125 523.965444 
L 272.691727 524.484351 
L 275.146112 524.381742 
L 277.843173 524.006488 
L 280.883532 523.027308 
L 284.555245 520.514862 
L 288.021767 516.782839 
L 291.411344 512.496729 
L 293.887431 509.811314 
L 296.420735 507.850023 
L 301.122342 505.190993 
L 303.487943 503.464236 
L 304.604648 502.068759 
L 305.190623 500.491517 
" clip-path="url(#pbf8fd95135)" style="fill: none; stroke: #e6482f; stroke-width: 0.2"/>
    <path d="M 410.32668 437.630527 
L 372.291608 452.831266 
L 335.002322 467.152501 
L 320.18131 472.795977 
L 297.432873 481.725861 
L 264.576868 493.625533 
" clip-path="url(#pbf8fd95135)" style="fill: none; stroke: #e6482f; stroke-width: 0.2"/>
    <path d="M 305.190623 500.491517 
L 297.432873 481.725861 
L 282.974889 445.103369 
L 267.879634 406.871386 
L 252.602864 367.657293 
" clip-path="url(#pbf8fd95135)" style="fill: none; stroke: #e6482f; stroke-width: 0.2"/>
    <path d="M 249.138315 475.305491 
L 244.726736 459.621027 
L 240.374346 445.850946 
L 237.337933 438.489508 
L 234.277844 429.518581 
L 230.848808 422.054535 
L 217.983017 394.47333 
L 215.615444 388.812264 
L 214.603306 385.443769 
" clip-path="url(#pbf8fd95135)" style="fill: none; stroke: #e6482f; stroke-width: 0.2"/>
    <path d="M 358.69187 535.179104 
L 360.501091 542.420343 
L 360.682605 544.16469 
L 361.306066 550.162898 
L 362.211663 556.32528 
L 365.628861 558.00513 
L 367.33746 562.429029 
L 368.645545 569.769945 
L 369.853007 581.58753 
L 369.951656 585.533565 
L 370.527766 588.966557 
L 369.730683 594.369635 
L 368.856653 598.142702 
L 368.846788 601.70762 
L 369.201924 606.961182 
" clip-path="url(#pbf8fd95135)" style="fill: none; stroke: #e6482f; stroke-width: 0.2"/>
    <path d="M 398.611136 527.503977 
L 399.77322 535.387253 
L 400.205302 538.315997 
L 401.073413 545.120416 
L 402.418984 555.665653 
L 402.679417 557.714895 
L 404.6228 572.660577 
L 406.948942 583.261516 
L 409.728868 588.975352 
L 413.846473 595.718206 
L 417.038752 607.20158 
" clip-path="url(#pbf8fd95135)" style="fill: none; stroke: #e6482f; stroke-width: 0.2"/>
    <path d="M 491.702457 560.250123 
L 470.228268 556.987839 
L 466.010041 557.210646 
L 460.114783 558.081354 
L 453.89201 557.239963 
L 440.696732 554.097207 
L 433.029739 553.469828 
L 420.590112 555.982274 
L 402.418984 555.665653 
" clip-path="url(#pbf8fd95135)" style="fill: none; stroke: #e6482f; stroke-width: 0.2"/>
    <path d="M 343.799831 555.812237 
L 347.130218 556.087815 
L 356.428864 555.71256 
L 362.211663 556.32528 
L 371.502417 555.249355 
L 378.301299 554.507641 
L 385.271831 554.595592 
L 392.325228 556.175765 
L 400.546628 559.01949 
L 402.679417 557.714895 
" clip-path="url(#pbf8fd95135)" style="fill: none; stroke: #e6482f; stroke-width: 0.2"/>
    <path d="M 442.251439 521.142241 
L 445.066879 536.345911 
L 450.654353 547.15793 
L 454.959391 552.915741 
L 466.010041 557.210646 
" clip-path="url(#pbf8fd95135)" style="fill: none; stroke: #e6482f; stroke-width: 0.2"/>
    <path d="M 312.157208 518.143136 
L 349.65563 504.323217 
L 386.542429 490.913733 
L 425.236476 476.56318 
" clip-path="url(#pbf8fd95135)" style="fill: none; stroke: #e6482f; stroke-width: 0.2"/>
    <path d="M 370.056224 255.585195 
L 379.418005 274.221857 
L 388.152379 291.876408 
L 398.897218 312.638535 
L 403.64223 330.190477 
L 404.579395 334.980836 
L 404.741179 341.442249 
L 405.342937 349.788729 
L 405.242316 359.23752 
L 407.454024 368.489888 
L 409.967598 377.839002 
L 413.789257 385.681235 
L 418.413917 391.913977 
L 419.589404 392.9247 
" clip-path="url(#pbf8fd95135)" style="fill: none; stroke: #e6482f; stroke-width: 0.2"/>
    <path d="M 276.051709 83.023833 
L 279.13942 90.719482 
L 282.588186 100.335378 
L 289.669204 118.426749 
L 300.045096 146.814164 
L 308.844578 170.059421 
L 310.22369 173.53932 
L 312.35056 178.904286 
L 322.750128 206.385814 
L 336.420893 244.263064 
L 341.304014 251.606911 
L 352.885395 284.582399 
L 356.908298 294.476804 
L 362.698989 309.437145 
L 368.838896 324.154157 
L 369.957575 328.384565 
L 381.600119 362.060724 
L 395.695074 399.542197 
L 403.304851 419.547952 
L 410.32668 437.630527 
L 425.236476 476.56318 
L 431.368492 491.684763 
L 435.292745 498.635766 
L 436.350261 500.49738 
L 439.603702 506.228806 
L 441.148544 510.605798 
L 442.251439 521.142241 
" clip-path="url(#pbf8fd95135)" style="fill: none; stroke: #e6482f; stroke-width: 0.2"/>
    <path d="M 398.897218 312.638535 
L 437.632697 297.449524 
L 453.756862 291.077502 
" clip-path="url(#pbf8fd95135)" style="fill: none; stroke: #e6482f; stroke-width: 0.2"/>
    <path d="M 379.418005 274.221857 
L 421.73444 258.006759 
" clip-path="url(#pbf8fd95135)" style="fill: none; stroke: #e6482f; stroke-width: 0.2"/>
    <path d="M 395.695074 399.542197 
L 357.464678 415.522761 
L 321.065205 430.140096 
L 282.974889 445.103369 
L 244.726736 459.621027 
" clip-path="url(#pbf8fd95135)" style="fill: none; stroke: #e6482f; stroke-width: 0.2"/>
    <path d="M 381.600119 362.060724 
L 343.221749 377.727598 
L 305.277434 392.415294 
L 267.879634 406.871386 
L 230.848808 422.054535 
" clip-path="url(#pbf8fd95135)" style="fill: none; stroke: #e6482f; stroke-width: 0.2"/>
    <path d="M 252.602864 367.657293 
L 236.899932 373.661364 
L 216.035688 383.116018 
L 214.603306 385.443769 
L 184.458173 395.637205 
" clip-path="url(#pbf8fd95135)" style="fill: none; stroke: #e6482f; stroke-width: 0.2"/>
    <path d="M 252.602864 367.657293 
L 290.821423 352.512256 
L 328.761792 339.038275 
L 368.838896 324.154157 
L 398.897218 312.638535 
" clip-path="url(#pbf8fd95135)" style="fill: none; stroke: #e6482f; stroke-width: 0.2"/>
    <path d="M 236.899932 373.661364 
L 220.413726 330.533484 
L 206.58315 296.338419 
" clip-path="url(#pbf8fd95135)" style="fill: none; stroke: #e6482f; stroke-width: 0.2"/>
    <path d="M 196.736016 112.097261 
L 215.832471 161.560493 
L 230.637699 198.713619 
L 244.77606 236.262521 
L 259.747018 275.432639 
L 275.440086 315.042509 
L 290.821423 352.512256 
L 305.277434 392.415294 
L 321.065205 430.140096 
L 335.002322 467.152501 
L 349.65563 504.323217 
L 358.330815 534.009365 
L 358.69187 535.179104 
" clip-path="url(#pbf8fd95135)" style="fill: none; stroke: #e6482f; stroke-width: 0.2"/>
    <path d="M 275.440086 315.042509 
L 294.822623 307.634165 
L 312.954292 300.703684 
L 352.885395 284.582399 
" clip-path="url(#pbf8fd95135)" style="fill: none; stroke: #e6482f; stroke-width: 0.2"/>
    <path d="M 224.184088 65.48655 
L 234.901305 99.109938 
L 236.400768 102.99734 
L 243.675138 121.874399 
L 253.447299 145.785146 
L 267.978283 184.506718 
L 283.111025 221.715546 
L 298.038577 260.498683 
L 307.347088 286.326746 
L 312.954292 300.703684 
L 328.761792 339.038275 
L 343.221749 377.727598 
L 357.464678 415.522761 
L 372.291608 452.831266 
L 386.542429 490.913733 
L 387.414485 493.543446 
L 389.584761 497.404463 
L 390.855359 502.751839 
L 397.003159 519.837645 
L 398.611136 527.503977 
" clip-path="url(#pbf8fd95135)" style="fill: none; stroke: #e6482f; stroke-width: 0.2"/>
    <path d="M 336.420893 244.263064 
L 298.038577 260.498683 
L 259.747018 275.432639 
L 222.130217 290.222943 
L 206.58315 296.338419 
L 184.481849 305.027905 
L 168.845998 310.621542 
" clip-path="url(#pbf8fd95135)" style="fill: none; stroke: #e6482f; stroke-width: 0.2"/>
    <path d="M 322.750128 206.385814 
L 283.111025 221.715546 
L 244.77606 236.262521 
L 207.407855 251.530688 
L 184.03201 260.783056 
L 177.444236 261.246261 
L 170.751895 262.377888 
L 167.458994 261.554087 
" clip-path="url(#pbf8fd95135)" style="fill: none; stroke: #e6482f; stroke-width: 0.2"/>
    <path d="M 67.334301 227.877928 
L 67.699302 224.040365 
L 63.871724 182.838595 
L 65.724351 155.483129 
" clip-path="url(#pbf8fd95135)" style="fill: none; stroke: #e6482f; stroke-width: 0.2"/>
    <path d="M 253.447299 145.785146 
L 215.832471 161.560493 
L 177.617858 176.825728 
L 137.390808 191.082467 
L 120.241682 197.183284 
L 115.976103 202.606884 
L 109.388329 210.01816 
L 104.599912 215.629387 
L 98.521166 219.505063 
L 86.411026 225.245284 
L 75.249889 229.261679 
L 71.759691 229.370151 
L 67.334301 227.877928 
" clip-path="url(#pbf8fd95135)" style="fill: none; stroke: #e6482f; stroke-width: 0.2"/>
    <path d="M 166.661911 148.177394 
L 169.122215 154.448248 
" clip-path="url(#pbf8fd95135)" style="fill: none; stroke: #e6482f; stroke-width: 0.2"/>
    <path d="M 158.05578 126.242596 
L 160.845571 133.234643 
L 166.661911 148.177394 
" clip-path="url(#pbf8fd95135)" style="fill: none; stroke: #e6482f; stroke-width: 0.2"/>
    <path d="M 158.05578 126.242596 
L 128.263811 138.684628 
" clip-path="url(#pbf8fd95135)" style="fill: none; stroke: #e6482f; stroke-width: 0.2"/>
    <path d="M 196.736016 112.097261 
L 158.05578 126.242596 
" clip-path="url(#pbf8fd95135)" style="fill: none; stroke: #e6482f; stroke-width: 0.2"/>
    <path d="M 78.852547 56.149163 
L 90.8522 79.004506 
L 109.346897 108.028095 
L 128.263811 138.684628 
" clip-path="url(#pbf8fd95135)" style="fill: none; stroke: #e6482f; stroke-width: 0.2"/>
    <path d="M 182.424033 76.169576 
L 139.26711 95.213741 
L 109.346897 108.028095 
" clip-path="url(#pbf8fd95135)" style="fill: none; stroke: #e6482f; stroke-width: 0.2"/>
    <path d="M 114.084017 51.364668 
L 139.26711 95.213741 
L 158.05578 126.242596 
" clip-path="url(#pbf8fd95135)" style="fill: none; stroke: #e6482f; stroke-width: 0.2"/>
    <path d="M 174.210525 47.342409 
L 174.109903 50.795923 
L 182.424033 76.169576 
L 196.736016 112.097261 
" clip-path="url(#pbf8fd95135)" style="fill: none; stroke: #e6482f; stroke-width: 0.2"/>
    <path d="M 308.844578 170.059421 
L 302.242993 171.255544 
L 267.978283 184.506718 
L 230.637699 198.713619 
L 191.519462 213.676891 
L 154.522177 228.03917 
" clip-path="url(#pbf8fd95135)" style="fill: none; stroke: #e6482f; stroke-width: 0.2"/>
    <path d="M 234.901305 99.109938 
L 196.736016 112.097261 
" clip-path="url(#pbf8fd95135)" style="fill: none; stroke: #e6482f; stroke-width: 0.2"/>
    <path d="M 236.400768 102.99734 
L 279.13942 90.719482 
" clip-path="url(#pbf8fd95135)" style="fill: none; stroke: #e6482f; stroke-width: 0.2"/>
    <path d="M 266.265738 79.494096 
L 224.184088 65.48655 
L 187.490641 52.686854 
L 174.210525 47.342409 
" clip-path="url(#pbf8fd95135)" style="fill: none; stroke: #e6482f; stroke-width: 0.5"/>
    <path d="M 266.265738 79.494096 
L 266.744962 77.604111 
" clip-path="url(#pbf8fd95135)" style="fill: none; stroke: #e6482f; stroke-width: 0.2"/>
    <path d="M 341.304014 251.606911 
L 357.488353 244.825945 
L 364.72721 241.005972 
L 366.234565 244.526914 
L 370.056224 255.585195 
" clip-path="url(#pbf8fd95135)" style="fill: none; stroke: #e6482f; stroke-width: 0.2"/>
    <path d="M 305.576066 99.352941 
L 299.516338 94.999729 
L 292.301157 90.036402 
L 281.43202 84.970466 
L 276.051709 83.023833 
L 269.615854 80.681425 
L 266.265738 79.494096 
" clip-path="url(#pbf8fd95135)" style="fill: none; stroke: #e6482f; stroke-width: 0.5"/>
    <path d="M 310.22369 173.53932 
L 316.107111 172.337333 
L 359.054898 174.283965 
L 363.254108 173.107572 
" clip-path="url(#pbf8fd95135)" style="fill: none; stroke: #e6482f; stroke-width: 0.2"/>
    <path d="M 174.109903 50.795923 
L 170.761759 51.640245 
L 162.396332 51.96273 
L 114.084017 51.364668 
L 102.492771 52.179674 
L 82.145448 54.753685 
L 78.852547 56.149163 
L 59.544984 59.256739 
L 56.648652 60.866229 
L 55.265594 62.979967 
L 53.416914 75.524607 
" clip-path="url(#pbf8fd95135)" style="fill: none; stroke: #e6482f; stroke-width: 0.2"/>
    <path d="M 67.334301 227.877928 
L 62.760938 224.245582 
L 57.869925 221.568962 
L 52.053586 216.936915 
L 48.297035 212.460246 
L 44.641107 204.893591 
L 38.10463 186.878444 
L 37.692278 182.349005 
L 37.84617 176.377182 
L 37.331223 169.068514 
L 35.119515 144.929097 
L 34.146141 142.274972 
" clip-path="url(#pbf8fd95135)" style="fill: none; stroke: #e6482f; stroke-width: 0.2"/>
    <path d="M 112.829289 49.276894 
L 114.084017 51.364668 
" clip-path="url(#pbf8fd95135)" style="fill: none; stroke: #e6482f; stroke-width: 0.2"/>
    <path d="M 56.648652 60.866229 
L 43.27186 63.539917 
L 38.664956 62.982899 
L 36.516074 60.557923 
" clip-path="url(#pbf8fd95135)" style="fill: none; stroke: #e6482f; stroke-width: 0.2"/>
    <path d="M 174.210525 47.342409 
L 172.952869 46.509438 
" clip-path="url(#pbf8fd95135)" style="fill: none; stroke: #e6482f; stroke-width: 0.5"/>
   </g>
  </g>
 </g>
 <defs>
  <clipPath id="pbf8fd95135">
   <rect x="7.2" y="7.2" width="591.65845" height="831.6"/>
  </clipPath>
 </defs>
</svg>
