<?xml version="1.0" encoding="utf-8" standalone="no"?>
<!DOCTYPE svg PUBLIC "-//W3C//DTD SVG 1.1//EN"
  "http://www.w3.org/Graphics/SVG/1.1/DTD/svg11.dtd">
<svg xmlns:xlink="http://www.w3.org/1999/xlink" width="847.707873pt" height="846pt" viewBox="0 0 847.707873 846" xmlns="http://www.w3.org/2000/svg" version="1.1">
 <metadata>
  <rdf:RDF xmlns:dc="http://purl.org/dc/elements/1.1/" xmlns:cc="http://creativecommons.org/ns#" xmlns:rdf="http://www.w3.org/1999/02/22-rdf-syntax-ns#">
   <cc:Work>
    <dc:type rdf:resource="http://purl.org/dc/dcmitype/StillImage"/>
    <dc:date>2025-03-16T14:37:54.292888</dc:date>
    <dc:format>image/svg+xml</dc:format>
    <dc:creator>
     <cc:Agent>
      <dc:title>Matplotlib v3.10.1, https://matplotlib.org/</dc:title>
     </cc:Agent>
    </dc:creator>
   </cc:Work>
  </rdf:RDF>
 </metadata>
 <defs>
  <style type="text/css">*{stroke-linejoin: round; stroke-linecap: butt}</style>
 </defs>
 <g id="figure_1">
  <g id="patch_1">
   <path d="M 0 846 
L 847.707873 846 
L 847.707873 0 
L 0 0 
z
" style="fill: #ffffff"/>
  </g>
  <g id="axes_1">
   <g id="PatchCollection_1">
    <path d="M 477.802723 761.50275 
L 490.05367 758.29771 
L 506.262372 764.423599 
L 520.962103 768.760139 
L 535.568731 738.69118 
L 554.698759 748.21157 
L 560.258588 740.575259 
L 571.471349 744.251319 
L 574.958319 748.87205 
L 576.184468 755.28213 
L 614.442767 768.57331 
L 708.01829 801 
L 715.556118 783.182819 
L 719.703592 765.17881 
L 718.667163 756.600459 
L 713.107334 751.98236 
L 707.357786 752.17182 
L 698.593809 755.468959 
L 640.734697 729.923369 
L 642.807556 720.59244 
L 641.771127 716.44536 
L 638.096194 712.393011 
L 630.556609 715.503321 
L 623.867248 718.04788 
L 584.193081 704.19095 
L 579.198896 701.3622 
L 578.822971 699.28866 
L 580.988933 696.367811 
L 585.32437 694.765291 
L 587.397229 691.089231 
L 566.854846 674.9693 
L 563.367876 668.372391 
L 559.975766 658.570442 
L 567.325631 643.205722 
L 575.429104 633.214313 
L 588.81134 634.911563 
L 602.852324 639.529662 
L 619.814633 639.340202 
L 638.661838 637.456123 
L 651.854355 637.740313 
L 662.691191 641.132182 
L 674.659316 643.676742 
L 689.736729 645.655552 
L 701.232312 649.710533 
L 712.824512 648.579032 
L 720.833125 647.542262 
L 734.31022 639.719123 
L 744.864234 634.440543 
L 752.590025 622.941344 
L 766.725868 619.736304 
L 769.176409 612.760473 
L 789.90851 608.331834 
L 790.096473 578.641796 
L 752.590025 573.834236 
L 726.487813 569.592426 
L 716.592547 564.787497 
L 694.730913 557.435378 
L 701.797957 545.088869 
L 707.074963 532.93182 
L 707.830327 523.977181 
L 710.939615 516.814521 
L 714.143763 506.728381 
L 709.054719 496.739603 
L 713.390156 458.005458 
L 714.426586 452.540049 
L 689.359047 449.050818 
L 673.433167 446.035238 
L 674.469596 436.42275 
L 672.020812 431.146801 
L 671.831093 427.660202 
L 672.208775 424.831451 
L 652.23028 397.785966 
L 645.3512 369.135329 
L 650.817926 364.89615 
L 654.963643 364.80142 
L 655.529288 359.241281 
L 656.282895 356.225701 
L 659.864725 348.592022 
L 674.847278 356.130971 
L 682.292004 357.922952 
L 690.773158 362.351591 
L 701.987676 365.27244 
L 729.786821 371.774619 
L 747.219915 378.747818 
L 772.851341 385.628918 
L 786.797465 344.068653 
L 790.94494 336.719165 
L 802.630242 336.437605 
L 792.829836 315.704838 
L 758.056751 311.747219 
L 746.559411 306.18708 
L 731.199175 299.779631 
L 717.911799 296.103571 
L 712.258867 293.182722 
L 711.50526 264.347887 
L 701.232312 264.161058 
L 688.229514 264.537348 
L 683.706115 263.029558 
L 681.160715 259.071939 
L 681.631499 243.712482 
L 684.08204 238.152342 
L 680.501967 234.949934 
L 668.628702 232.971124 
L 656.943399 232.594835 
L 651.005888 228.166196 
L 653.456429 222.700787 
L 650.252281 212.993568 
L 646.670451 203.09952 
L 650.157422 195.092182 
L 640.92266 188.024253 
L 642.148809 183.500884 
L 648.745067 178.038107 
L 657.414184 177.377626 
L 665.517657 183.785075 
L 671.548271 187.742694 
L 678.334249 186.140174 
L 687.191328 181.335245 
L 696.145025 161.73661 
L 703.117208 158.815761 
L 706.038534 151.371542 
L 703.682853 145.906133 
L 697.747099 143.174744 
L 689.641869 139.498684 
L 691.809588 121.692029 
L 677.673744 115.568771 
L 658.733436 112.458462 
L 639.791371 115.7556 
L 601.062287 115.474041 
L 613.501197 94.180787 
L 619.907736 77.410901 
L 625.279602 45.752579 
L 589.659807 45 
L 565.345875 65.822235 
L 539.338524 119.71322 
L 527.275539 138.556645 
L 490.146773 150.429502 
L 458.10705 156.460661 
L 450.38126 207.151869 
L 435.114127 213.935607 
L 413.628418 234.855204 
L 390.069851 162.30236 
L 339.560605 177.753916 
L 339.938287 189.250484 
L 361.987883 184.727115 
L 373.297261 206.209829 
L 368.961824 218.835266 
L 324.10551 240.507442 
L 268.131295 245.220271 
L 263.230213 198.107762 
L 212.720967 177.753916 
L 207.914745 154.858141 
L 177.477097 157.58953 
L 175.404238 146.848173 
L 134.978221 149.958482 
L 133.281287 129.230978 
L 110.66429 134.601657 
L 104.25775 143.551034 
L 112.456083 165.317939 
L 114.716904 168.049328 
L 130.171999 170.499158 
L 131.301532 184.161364 
L 123.858563 203.94946 
L 78.624567 196.221051 
L 74.949634 195.092182 
L 69.01388 196.694702 
L 51.861852 221.098267 
L 45.926097 239.944323 
L 45.077631 257.28259 
L 49.035386 275.749725 
L 57.421681 277.728535 
L 65.056125 284.230714 
L 74.290887 313.444469 
L 83.430789 333.422026 
L 120.088771 334.458796 
L 127.909421 346.426384 
L 141.101938 351.231312 
L 148.170738 308.35535 
L 152.128493 306.84756 
L 200.56488 371.869349 
L 217.620292 395.241406 
L 225.725522 402.590895 
L 230.719706 405.701204 
L 234.582601 406.266954 
L 361.329136 407.822109 
L 378.384548 407.443188 
L 390.25957 401.648855 
L 431.156372 372.811389 
L 438.225172 363.1989 
L 440.108312 354.246892 
L 433.041268 332.290526 
L 428.235047 319.946648 
L 459.803984 302.513651 
L 477.990685 346.707943 
L 487.225447 372.150908 
L 497.120713 419.742332 
L 496.367106 428.978531 
L 482.514085 472.236046 
L 472.996501 476.006836 
L 469.60439 491.932043 
L 468.850783 510.404441 
L 458.013947 529.63205 
L 449.437933 543.581079 
L 451.322829 559.414187 
L 447.835859 574.118427 
L 433.794876 571.479137 
L 391.389102 571.102847 
L 363.496854 569.121406 
L 337.770568 569.029307 
L 327.216555 572.515907 
L 321.939548 579.207546 
L 318.357718 588.443745 
L 313.834319 603.808465 
L 315.060467 613.044664 
L 316.379719 619.360014 
L 334.095636 623.883383 
L 355.486485 625.767463 
L 400.813583 624.259673 
L 485.53027 606.539854 
L 500.324861 613.705144 
L 501.644113 627.369983 
L 505.97955 634.345813 
L 513.517378 638.869182 
L 520.020533 650.086822 
L 522.186495 660.643982 
L 508.711156 679.400571 
L 500.042039 688.26048 
L 494.859892 701.45693 
L 476.671434 747.74055 
L 477.802723 761.50275 
" clip-path="url(#p54c8377cda)" style="fill: #f29888"/>
   </g>
   <g id="PatchCollection_2">
    <path d="M 567.928166 342.279304 
L 564.114457 342.263515 
L 564.105673 344.189697 
L 561.746479 344.179172 
L 561.764046 340.229447 
L 564.140807 340.239972 
L 564.13905 340.847825 
L 568.913652 340.868876 
L 568.897842 344.663348 
L 567.917626 344.658086 
L 567.928166 342.279304 
" clip-path="url(#p54c8377cda)" style="fill: #f29888"/>
    <path d="M 567.650613 329.372308 
L 567.866682 332.106328 
L 566.073133 332.245792 
L 565.85882 329.514403 
L 567.650613 329.372308 
" clip-path="url(#p54c8377cda)" style="fill: #f29888"/>
    <path d="M 549.418239 323.45693 
L 556.660948 322.196491 
L 557.316182 325.972544 
L 550.073473 327.230352 
L 549.418239 323.45693 
" clip-path="url(#p54c8377cda)" style="fill: #f29888"/>
    <path d="M 547.343623 322.335955 
L 546.558396 321.238663 
L 548.620715 319.765082 
L 549.405942 320.862374 
L 547.343623 322.335955 
" clip-path="url(#p54c8377cda)" style="fill: #f29888"/>
    <path d="M 560.50452 320.038747 
L 561.502303 319.996645 
L 561.539193 320.81764 
L 560.539653 320.862374 
L 560.50452 320.038747 
" clip-path="url(#p54c8377cda)" style="fill: #f29888"/>
   </g>
   <g id="LineCollection_1">
    <path d="M 633.590361 756.984643 
L 640.978873 759.839708 
L 656.846783 768.952231 
L 666.083301 772.523035 
L 677.626315 775.588611 
L 693.200862 781.885541 
L 705.038994 785.161629 
L 713.62627 787.744406 
" clip-path="url(#p54c8377cda)" style="fill: none; stroke: #f29888; stroke-width: 0.2"/>
    <path d="M 582.302915 617.35489 
L 580.649898 622.40717 
L 575.54153 629.509307 
L 573.342192 633.372196 
L 565.95368 642.861009 
L 559.111489 659.488799 
L 564.316473 672.211598 
L 566.521756 674.339135 
" clip-path="url(#p54c8377cda)" style="fill: none; stroke: #f29888; stroke-width: 0.2"/>
    <path d="M 568.570217 676.315379 
L 568.975135 676.706022 
L 569.131542 676.755859 
" clip-path="url(#p54c8377cda)" style="fill: none; stroke: #f29888; stroke-width: 0.2"/>
    <path d="M 557.665758 630.469767 
L 572.484942 628.788305 
L 575.54153 629.509307 
L 592.24034 633.440613 
L 600.610825 636.52724 
L 613.968468 636.229892 
L 625.188256 632.430157 
L 633.618467 631.243397 
L 641.337232 634.032677 
L 647.510135 633.616916 
L 656.593824 635.398371 
L 662.471608 635.695719 
L 669.833771 641.337431 
L 685.624388 641.634779 
L 698.982031 645.079276 
L 708.06572 644.247755 
L 714.00323 637.892934 
L 719.998711 629.877703 
L 724.035516 621.088841 
L 727.301147 618.060104 
L 726.983191 614.818225 
L 727.666532 611.676338 
L 731.434568 605.032064 
L 735.534612 595.230115 
L 736.28822 591.50669 
L 735.817435 588.114821 
L 734.921538 583.496721 
L 733.178931 577.699756 
L 730.963783 574.118427 
L 728.397303 572.802729 
L 715.320725 566.105827 
L 707.471968 563.016568 
L 695.301828 558.622137 
L 687.52158 556.398608 
L 681.726359 554.182973 
L 674.957948 550.975301 
L 668.909767 548.528103 
L 662.930097 546.312468 
L 659.675006 545.278329 
L 647.278256 540.28394 
L 644.597593 538.420912 
L 642.124215 535.805305 
L 640.451875 533.897543 
L 638.872638 532.576582 
L 636.824372 531.445082 
L 633.950476 530.455677 
L 617.529218 526.142819 
L 598.643366 522.508862 
" clip-path="url(#p54c8377cda)" style="fill: none; stroke: #f29888; stroke-width: 0.2"/>
    <path d="M 730.963783 574.118427 
L 734.658039 573.37111 
L 745.522981 575.252558 
L 757.538536 575.87883 
L 766.941937 577.236631 
L 788.360893 579.954863 
L 790.08819 579.950162 
" clip-path="url(#p54c8377cda)" style="fill: none; stroke: #f29888; stroke-width: 0.2"/>
    <path d="M 703.795279 575.14204 
L 707.357786 574.399986 
L 712.589119 573.694772 
L 716.546874 573.129022 
L 721.210807 572.797466 
L 725.591917 572.797466 
L 728.397303 572.802729 
" clip-path="url(#p54c8377cda)" style="fill: none; stroke: #f29888; stroke-width: 0.2"/>
    <path d="M 715.320725 566.105827 
L 711.45783 570.584462 
L 708.111393 572.797466 
L 703.795279 575.14204 
L 701.72769 575.978824 
L 693.271129 579.254911 
L 685.670061 580.781121 
" clip-path="url(#p54c8377cda)" style="fill: none; stroke: #f29888; stroke-width: 0.2"/>
    <path d="M 642.101379 566.200557 
L 642.572164 555.643397 
L 642.619593 549.188583 
L 642.760126 546.454563 
L 643.185238 543.815273 
L 643.843985 541.578587 
L 644.31477 539.776081 
L 644.597593 538.420912 
" clip-path="url(#p54c8377cda)" style="fill: none; stroke: #f29888; stroke-width: 0.2"/>
    <path d="M 636.824372 531.445082 
L 639.273156 531.068792 
L 642.148809 530.221483 
L 643.961682 529.53732 
L 645.516326 528.547915 
L 646.682748 527.419046 
" clip-path="url(#p54c8377cda)" style="fill: none; stroke: #f29888; stroke-width: 0.2"/>
    <path d="M 688.635303 449.929704 
L 684.11366 512.130637 
L 681.726359 554.182973 
" clip-path="url(#p54c8377cda)" style="fill: none; stroke: #f29888; stroke-width: 0.2"/>
    <path d="M 481.893984 752.658629 
L 506.253589 686.160627 
L 528.241702 655.339088 
L 533.372906 649.507915 
L 537.160265 645.202952 
L 557.665758 630.469767 
" clip-path="url(#p54c8377cda)" style="fill: none; stroke: #f29888; stroke-width: 0.2"/>
    <path d="M 503.502725 684.72363 
L 506.253589 686.160627 
" clip-path="url(#p54c8377cda)" style="fill: none; stroke: #f29888; stroke-width: 0.2"/>
    <path d="M 317.910168 619.75078 
L 317.412635 618.6548 
" clip-path="url(#p54c8377cda)" style="fill: none; stroke: #f29888; stroke-width: 0.2"/>
    <path d="M 446.546471 611.489509 
L 466.050667 595.472203 
L 469.469127 599.098267 
" clip-path="url(#p54c8377cda)" style="fill: none; stroke: #f29888; stroke-width: 0.2"/>
    <path d="M 485.628643 605.276784 
L 469.469127 599.098267 
L 472.31843 588.706885 
L 485.558377 586.509669 
" clip-path="url(#p54c8377cda)" style="fill: none; stroke: #f29888; stroke-width: 0.2"/>
    <path d="M 230.331484 403.225061 
L 229.939096 405.215051 
" clip-path="url(#p54c8377cda)" style="fill: none; stroke: #f29888; stroke-width: 0.2"/>
    <path d="M 316.165842 618.33617 
L 317.412635 618.6548 
L 334.341568 622.986077 
L 354.738148 624.422819 
L 375.266477 623.457097 
L 386.85165 623.078176 
L 395.248485 623.583404 
L 409.242301 622.496675 
" clip-path="url(#p54c8377cda)" style="fill: none; stroke: #f29888; stroke-width: 0.2"/>
    <path d="M 418.898447 620.476941 
L 432.357928 613.086766 
L 446.546471 611.489509 
L 465.311113 608.089746 
L 485.628643 605.276784 
L 503.009037 613.044664 
L 515.014052 618.083787 
L 520.471995 624.967518 
L 522.613363 635.590463 
L 524.208411 648.271159 
L 526.307619 650.328911 
L 533.372906 649.507915 
" clip-path="url(#p54c8377cda)" style="fill: none; stroke: #f29888; stroke-width: 0.2"/>
    <path d="M 517.194067 323.21221 
L 522.59404 339.790003 
L 525.278217 353.773241 
L 527.856994 360.659603 
L 530.080925 371.148347 
L 530.822236 373.866578 
L 531.38788 379.871424 
L 531.38788 382.379144 
" clip-path="url(#p54c8377cda)" style="fill: none; stroke: #f29888; stroke-width: 0.2"/>
    <path d="M 185.589353 350.30243 
L 222.719876 346.950031 
L 262.856045 344.092336 
" clip-path="url(#p54c8377cda)" style="fill: none; stroke: #f29888; stroke-width: 0.2"/>
    <path d="M 83.314849 305.955517 
L 126.735972 303.813561 
L 139.306631 304.242478 
L 148.941912 300.945339 
" clip-path="url(#p54c8377cda)" style="fill: none; stroke: #f29888; stroke-width: 0.2"/>
    <path d="M 642.189517 718.119472 
L 639.594625 727.673526 
L 638.921824 744.388152 
L 633.590361 756.984643 
L 623.642395 755.26371 
L 610.79594 750.26669 
L 593.290823 745.522283 
L 577.674115 739.725318 
L 570.538562 737.207073 
L 559.413634 730.570693 
L 550.052393 724.189558 
" clip-path="url(#p54c8377cda)" style="fill: none; stroke: #f29888; stroke-width: 0.2"/>
    <path d="M 544.390678 560.848298 
L 551.401508 587.512231 
L 554.633762 603.845305 
L 556.10233 623.496568 
L 557.665758 630.469767 
" clip-path="url(#p54c8377cda)" style="fill: none; stroke: #f29888; stroke-width: 0.2"/>
    <path d="M 586.756048 588.199025 
L 600.953374 590.104156 
L 623.691582 593.903891 
L 636.752349 593.488131 
L 655.274572 588.441114 
L 667.030141 585.946551 
L 685.670061 580.781121 
" clip-path="url(#p54c8377cda)" style="fill: none; stroke: #f29888; stroke-width: 0.2"/>
    <path d="M 598.643366 522.508862 
L 586.756048 588.199025 
L 582.302915 617.35489 
" clip-path="url(#p54c8377cda)" style="fill: none; stroke: #f29888; stroke-width: 0.2"/>
    <path d="M 568.133695 521.16685 
L 565.431952 522.550964 
L 560.919092 525.311298 
L 548.33438 527.955851 
L 533.285073 531.100369 
" clip-path="url(#p54c8377cda)" style="fill: none; stroke: #f29888; stroke-width: 0.2"/>
    <path d="M 533.285073 531.100369 
L 529.425691 521.898378 
L 523.785056 520.858977 
L 516.958675 523.056192 
L 510.931574 524.569245 
L 505.292696 525.37182 
L 501.373587 538.820884 
L 498.362672 570.65551 
L 499.62571 572.121197 
L 505.482415 570.52394 
L 511.296959 569.03457 
L 532.480523 568.597758 
L 544.390678 560.848298 
L 533.285073 531.100369 
" clip-path="url(#p54c8377cda)" style="fill: none; stroke: #f29888; stroke-width: 0.2"/>
    <path d="M 620.225691 333.974619 
L 622.939731 346.307971 
L 629.903131 357.996631 
L 632.638251 365.206655 
L 634.503824 378.88465 
L 637.613112 389.331291 
L 640.595921 409.103599 
L 645.943194 445.911563 
L 648.803037 450.263891 
L 649.67434 470.780884 
L 647.18691 524.753442 
L 646.682748 527.419046 
L 644.597593 538.420912 
" clip-path="url(#p54c8377cda)" style="fill: none; stroke: #f29888; stroke-width: 0.2"/>
    <path d="M 592.814768 263.032189 
L 592.428303 267.82133 
L 586.142973 279.754709 
L 583.458797 288.65409 
L 575.62058 311.676171 
L 572.583315 315.3496 
L 567.144695 318.738837 
L 561.495277 326.225158 
L 559.023656 331.453742 
L 559.164189 369.59056 
L 567.850873 432.380926 
L 567.908842 443.295955 
L 567.921139 445.801044 
" clip-path="url(#p54c8377cda)" style="fill: none; stroke: #f29888; stroke-width: 0.2"/>
    <path d="M 567.921139 445.801044 
L 567.850873 458.655412 
L 569.616316 477.796185 
L 569.263227 499.128911 
L 568.133695 521.16685 
L 583.601086 520.953707 
L 598.643366 522.508862 
L 600.904188 508.241434 
L 601.397809 481.540661 
L 602.386809 448.342973 
L 575.690846 447.000961 
L 567.921139 445.801044 
" clip-path="url(#p54c8377cda)" style="fill: none; stroke: #f29888; stroke-width: 0.2"/>
    <path d="M 535.978033 322.346481 
L 541.99108 327.188249 
L 547.215387 330.740633 
L 550.560068 334.71141 
L 550.876267 337.882242 
L 552.590767 359.16497 
L 556.588925 389.018155 
L 562.874255 428.441726 
L 567.908842 443.295955 
" clip-path="url(#p54c8377cda)" style="fill: none; stroke: #f29888; stroke-width: 0.2"/>
    <path d="M 688.635303 449.929704 
L 670.945736 447.135162 
L 665.737239 446.072078 
L 662.122033 446.179965 
L 652.767818 446.285221 
L 645.943194 445.911563 
L 637.671082 447.243049 
L 625.76444 447.456192 
L 613.964955 447.243049 
L 602.386809 448.342973 
L 603.658631 437.677926 
L 603.305542 429.415343 
L 594.265769 365.564525 
L 590.945682 352.004943 
L 586.002441 341.481991 
L 576.890645 327.427706 
L 575.690846 317.609969 
L 572.583315 315.3496 
" clip-path="url(#p54c8377cda)" style="fill: none; stroke: #f29888; stroke-width: 0.2"/>
    <path d="M 597.937189 325.733087 
L 620.225691 333.974619 
L 636.711946 340.068931 
L 657.75849 346.707943 
L 675.908301 354.760014 
" clip-path="url(#p54c8377cda)" style="fill: none; stroke: #f29888; stroke-width: 0.2"/>
    <path d="M 575.690846 317.609969 
L 597.937189 325.733087 
L 596.384301 336.324455 
" clip-path="url(#p54c8377cda)" style="fill: none; stroke: #f29888; stroke-width: 0.2"/>
    <path d="M 558.004793 315.52064 
L 559.023656 331.453742 
" clip-path="url(#p54c8377cda)" style="fill: none; stroke: #f29888; stroke-width: 0.2"/>
    <path d="M 579.024987 264.600501 
L 581.675787 222.282395 
L 604.840863 221.63244 
L 612.751103 222.548166 
L 617.847174 224.36646 
" clip-path="url(#p54c8377cda)" style="fill: none; stroke: #f29888; stroke-width: 0.2"/>
    <path d="M 526.694085 200.770734 
L 529.933366 207.578155 
L 534.2284 212.92252 
L 542.068373 214.369788 
L 551.357591 221.561392 
L 551.6896 224.96905 
L 552.306188 231.297557 
L 553.254784 246.430714 
L 554.654842 267.366098 
" clip-path="url(#p54c8377cda)" style="fill: none; stroke: #f29888; stroke-width: 0.2"/>
    <path d="M 581.675787 222.282395 
L 580.966096 222.258712 
L 573.340435 222.019255 
L 558.510711 223.327059 
L 551.6896 224.96905 
" clip-path="url(#p54c8377cda)" style="fill: none; stroke: #f29888; stroke-width: 0.2"/>
    <path d="M 580.966096 222.258712 
L 580.263432 207.507108 
" clip-path="url(#p54c8377cda)" style="fill: none; stroke: #f29888; stroke-width: 0.2"/>
    <path d="M 533.652215 196.002645 
L 541.09167 190.460926 
L 546.586503 180.524775 
L 583.592303 110.019158 
L 589.185509 95.63858 
L 594.578455 77.663515 
L 599.47251 64.880195 
L 604.066176 46.705144 
" clip-path="url(#p54c8377cda)" style="fill: none; stroke: #f29888; stroke-width: 0.2"/>
    <path d="M 714.261885 453.408564 
L 713.012474 453.150533 
L 708.206252 452.492684 
L 701.940246 451.408549 
L 693.411662 450.419144 
L 688.635303 449.929704 
" clip-path="url(#p54c8377cda)" style="fill: none; stroke: #f29888; stroke-width: 0.2"/>
    <path d="M 675.908301 354.760014 
L 684.505395 357.175635 
L 688.580846 359.367588 
L 692.02917 361.980564 
L 693.187522 362.980418 
" clip-path="url(#p54c8377cda)" style="fill: none; stroke: #f29888; stroke-width: 0.2"/>
    <path d="M 638.083449 115.743184 
L 635.55782 119.536916 
L 633.456855 125.678594 
L 631.833701 133.580675 
L 631.524529 141.782736 
L 629.846918 162.7918 
L 630.092851 187.197995 
L 620.527837 216.501218 
L 617.847174 224.36646 
L 607.089388 255.935315 
L 604.781136 261.674389 
" clip-path="url(#p54c8377cda)" style="fill: none; stroke: #f29888; stroke-width: 0.2"/>
    <path d="M 486.468327 277.954835 
L 487.812172 280.394139 
L 499.676653 285.196436 
L 503.490362 293.919513 
L 512.635534 317.825743 
L 515.815089 323.19379 
L 517.194067 323.21221 
L 531.563546 323.404302 
L 535.978033 322.346481 
L 548.611932 316.086391 
L 558.004793 315.52064 
L 564.502679 316.086391 
L 567.144695 318.738837 
" clip-path="url(#p54c8377cda)" style="fill: none; stroke: #f29888; stroke-width: 0.2"/>
    <path d="M 143.533155 293.659005 
L 188.830391 298.83496 
L 212.785964 302.118942 
L 230.66525 307.013338 
L 245.147155 309.11056 
L 271.966084 312.057724 
L 286.198543 311.457765 
L 311.568227 308.760585 
L 321.855228 304.266161 
L 325.800687 304.266161 
L 338.18514 308.510602 
L 351.47076 309.460536 
L 364.253975 309.010567 
L 380.734959 306.063404 
L 392.371075 302.968883 
L 412.646445 294.430003 
L 425.231158 288.78566 
L 425.480604 283.193944 
L 432.373738 279.146857 
L 437.715741 275.55237 
L 442.660739 257.874654 
L 429.076487 248.885806 
" clip-path="url(#p54c8377cda)" style="fill: none; stroke: #f29888; stroke-width: 0.2"/>
    <path d="M 49.628601 275.889699 
L 49.63792 275.276074 
L 45.852318 257.922019 
L 46.20892 243.641434 
L 46.709568 238.070769 
L 49.314695 229.476631 
" clip-path="url(#p54c8377cda)" style="fill: none; stroke: #f29888; stroke-width: 0.2"/>
    <path d="M 786.402137 345.246754 
L 665.222538 314.397034 
L 658.815999 311.381455 
L 654.292599 307.610665 
L 649.391518 300.826927 
L 646.377089 292.535399 
L 641.476008 272.557842 
L 638.083897 266.526683 
L 635.443637 263.745298 
L 632.053283 262.003314 
L 626.454808 260.99812 
L 620.253798 260.861288 
L 604.781136 261.674389 
L 592.814768 263.032189 
L 579.024987 264.600501 
L 554.654842 267.366098 
L 499.813673 273.594612 
L 486.468327 277.954835 
L 480.580002 279.878385 
L 475.076386 279.220536 
L 469.112526 278.841615 
L 462.70423 281.54669 
L 455.164645 285.949015 
L 447.711136 292.543293 
L 428.25964 302.73732 
L 424.906176 307.602771 
L 424.096356 312.50243 
L 436.496619 349.076199 
L 436.582695 354.994208 
L 434.197151 363.898851 
L 431.050973 368.7222 
L 426.5346 372.856123 
L 385.629014 401.24362 
L 378.147399 404.646015 
L 367.319347 405.90119 
L 296.76661 404.893366 
L 236.748563 404.035531 
L 230.331484 403.225061 
L 225.298653 400.962061 
L 217.240854 392.933672 
L 185.589353 350.30243 
L 148.941912 300.945339 
L 143.533155 293.659005 
L 129.669594 274.989252 
L 117.371218 262.700633 
L 116.445458 262.016471 
L 101.726403 251.146175 
L 90.042857 244.091403 
L 49.314695 229.476631 
L 49.232317 229.447057 
" clip-path="url(#p54c8377cda)" style="fill: none; stroke: #f29888; stroke-width: 0.5"/>
    <path d="M 442.660739 257.874654 
L 446.456881 239.197007 
L 459.589671 222.419227 
L 465.133691 218.274779 
" clip-path="url(#p54c8377cda)" style="fill: none; stroke: #f29888; stroke-width: 0.2"/>
    <path d="M 465.133691 218.274779 
L 477.268698 213.28039 
L 488.555239 215.377612 
L 501.939232 225.116408 
L 520.168093 205.241476 
L 526.694085 200.770734 
L 533.652215 196.002645 
L 525.011204 189.860968 
L 515.873059 184.916575 
L 508.531977 185.316547 
L 502.23962 190.510922 
L 492.500697 199.149795 
L 475.721081 210.933185 
L 465.133691 218.274779 
" clip-path="url(#p54c8377cda)" style="fill: none; stroke: #f29888; stroke-width: 0.2"/>
    <path d="M 127.411864 130.624743 
L 131.118839 167.178336 
L 134.150834 196.834166 
L 116.445458 262.016471 
" clip-path="url(#p54c8377cda)" style="fill: none; stroke: #f29888; stroke-width: 0.2"/>
   </g>
  </g>
 </g>
 <defs>
  <clipPath id="p54c8377cda">
   <rect x="7.2" y="7.2" width="833.307873" height="831.6"/>
  </clipPath>
 </defs>
</svg>
