<?xml version="1.0" encoding="utf-8" standalone="no"?>
<!DOCTYPE svg PUBLIC "-//W3C//DTD SVG 1.1//EN"
  "http://www.w3.org/Graphics/SVG/1.1/DTD/svg11.dtd">
<svg xmlns:xlink="http://www.w3.org/1999/xlink" width="851.4pt" height="634.288639pt" viewBox="0 0 851.4 634.288639" xmlns="http://www.w3.org/2000/svg" version="1.1">
 <metadata>
  <rdf:RDF xmlns:dc="http://purl.org/dc/elements/1.1/" xmlns:cc="http://creativecommons.org/ns#" xmlns:rdf="http://www.w3.org/1999/02/22-rdf-syntax-ns#">
   <cc:Work>
    <dc:type rdf:resource="http://purl.org/dc/dcmitype/StillImage"/>
    <dc:date>2025-03-16T14:38:40.929096</dc:date>
    <dc:format>image/svg+xml</dc:format>
    <dc:creator>
     <cc:Agent>
      <dc:title>Matplotlib v3.10.1, https://matplotlib.org/</dc:title>
     </cc:Agent>
    </dc:creator>
   </cc:Work>
  </rdf:RDF>
 </metadata>
 <defs>
  <style type="text/css">*{stroke-linejoin: round; stroke-linecap: butt}</style>
 </defs>
 <g id="figure_1">
  <g id="patch_1">
   <path d="M 0 634.288639 
L 851.4 634.288639 
L 851.4 0 
L 0 0 
z
" style="fill: #ffffff"/>
  </g>
  <g id="axes_1">
   <g id="PatchCollection_1">
    <path d="M 806.154545 510.089667 
L 790.395226 334.417546 
L 730.790383 191.815745 
L 695.718945 206.707312 
L 228.405521 35.376756 
L 151.825272 115.559258 
L 45.245455 203.817071 
L 233.02914 400.564388 
L 458.731484 598.911882 
L 580.593318 484.803152 
L 596.917101 436.586972 
L 806.154545 510.089667 
" clip-path="url(#p11a962a420)" style="fill: #f29888"/>
   </g>
   <g id="LineCollection_1">
    <path d="M 220.288668 387.215765 
L 228.31006 382.937635 
L 249.012585 366.154385 
" clip-path="url(#p11a962a420)" style="fill: none; stroke: #f29888; stroke-width: 0.2"/>
    <path d="M 487.61416 571.866782 
L 486.240773 570.617284 
L 478.292631 565.488035 
L 461.620208 551.892734 
L 452.389572 543.432885 
L 444.951937 534.452048 
L 440.336619 528.553722 
L 431.184841 524.49746 
L 254.744379 367.363821 
L 249.012585 366.154385 
L 241.164054 355.145417 
L 219.374107 330.820249 
L 74.294566 197.807104 
" clip-path="url(#p11a962a420)" style="fill: none; stroke: #f29888; stroke-width: 0.2"/>
    <path d="M 254.744379 367.363821 
L 318.952088 289.296282 
" clip-path="url(#p11a962a420)" style="fill: none; stroke: #f29888; stroke-width: 0.2"/>
    <path d="M 162.467067 128.261437 
L 231.999825 211.650494 
L 252.200143 232.117872 
L 318.952088 289.296282 
L 382.354608 338.324954 
L 436.385375 370.216849 
L 485.095244 402.704159 
L 494.487749 411.455514 
L 506.059248 423.363806 
L 513.413874 429.026447 
L 518.9838 431.569364 
" clip-path="url(#p11a962a420)" style="fill: none; stroke: #f29888; stroke-width: 0.2"/>
    <path d="M 697.640611 228.074014 
L 358.763359 110.175718 
L 228.83717 63.429468 
" clip-path="url(#p11a962a420)" style="fill: none; stroke: #f29888; stroke-width: 0.2"/>
    <path d="M 343.896389 180.583496 
L 358.763359 110.175718 
" clip-path="url(#p11a962a420)" style="fill: none; stroke: #f29888; stroke-width: 0.2"/>
    <path d="M 228.83717 63.429468 
L 224.192798 67.367888 
L 222.125866 74.457043 
L 221.831183 87.456929 
L 222.420549 97.796055 
L 224.487481 106.361343 
L 228.625496 115.224337 
L 235.125126 126.444182 
L 242.803488 136.491803 
L 251.075367 145.057091 
L 260.235445 153.033166 
L 265.481634 157.765471 
" clip-path="url(#p11a962a420)" style="fill: none; stroke: #f29888; stroke-width: 0.2"/>
    <path d="M 56.334411 194.634403 
L 65.674048 197.087645 
L 74.294566 197.807104 
" clip-path="url(#p11a962a420)" style="fill: none; stroke: #f29888; stroke-width: 0.2"/>
    <path d="M 440.336619 528.553722 
L 488.573335 472.131985 
L 501.116043 454.102086 
L 510.956798 441.381301 
L 518.9838 431.569364 
L 528.359702 423.766952 
L 538.972444 415.964539 
L 543.201769 413.961217 
L 549.435769 412.844815 
L 561.015569 414.184498 
L 569.030119 415.071417 
L 574.371769 415.294698 
L 578.381119 414.631058 
L 582.199548 412.813803 
L 585.324849 410.450752 
L 588.246777 406.989904 
" clip-path="url(#p11a962a420)" style="fill: none; stroke: #f29888; stroke-width: 0.2"/>
    <path d="M 547.418643 386.094572 
L 588.246777 406.989904 
L 606.496376 415.617214 
L 655.915975 433.374214 
L 763.570764 465.632042 
" clip-path="url(#p11a962a420)" style="fill: none; stroke: #f29888; stroke-width: 0.2"/>
    <path d="M 554.030335 338.076865 
L 669.683071 378.1247 
L 775.856143 415.431147 
" clip-path="url(#p11a962a420)" style="fill: none; stroke: #f29888; stroke-width: 0.2"/>
    <path d="M 547.418643 386.094572 
L 546.584399 383.154713 
L 550.502439 355.319079 
L 552.855753 341.996677 
L 554.030335 338.076865 
" clip-path="url(#p11a962a420)" style="fill: none; stroke: #f29888; stroke-width: 0.2"/>
    <path d="M 655.915975 433.374214 
L 669.683071 378.1247 
L 683.819559 302.252752 
L 697.640611 228.074014 
" clip-path="url(#p11a962a420)" style="fill: none; stroke: #f29888; stroke-width: 0.2"/>
    <path d="M 788.580859 330.076759 
L 779.305181 335.999116 
L 773.382466 336.662755 
" clip-path="url(#p11a962a420)" style="fill: none; stroke: #f29888; stroke-width: 0.2"/>
    <path d="M 773.382466 336.662755 
L 683.819559 302.252752 
L 446.109917 206.713515 
L 343.896389 180.583496 
L 334.337866 177.910333 
L 301.735955 169.617944 
L 265.481634 157.765471 
" clip-path="url(#p11a962a420)" style="fill: none; stroke: #f29888; stroke-width: 0.2"/>
    <path d="M 697.640611 228.074014 
L 696.939182 217.461989 
L 705.953994 218.243471 
L 727.511515 218.634211 
L 741.207119 216.737299 
" clip-path="url(#p11a962a420)" style="fill: none; stroke: #f29888; stroke-width: 0.2"/>
    <path d="M 696.939182 217.461989 
L 694.585868 212.363751 
L 692.732741 205.612484 
" clip-path="url(#p11a962a420)" style="fill: none; stroke: #f29888; stroke-width: 0.2"/>
   </g>
  </g>
 </g>
 <defs>
  <clipPath id="p11a962a420">
   <rect x="7.2" y="7.2" width="837" height="619.888639"/>
  </clipPath>
 </defs>
</svg>
