<?xml version="1.0" encoding="utf-8" standalone="no"?>
<!DOCTYPE svg PUBLIC "-//W3C//DTD SVG 1.1//EN"
  "http://www.w3.org/Graphics/SVG/1.1/DTD/svg11.dtd">
<svg xmlns:xlink="http://www.w3.org/1999/xlink" width="851.4pt" height="523.623592pt" viewBox="0 0 851.4 523.623592" xmlns="http://www.w3.org/2000/svg" version="1.1">
 <metadata>
  <rdf:RDF xmlns:dc="http://purl.org/dc/elements/1.1/" xmlns:cc="http://creativecommons.org/ns#" xmlns:rdf="http://www.w3.org/1999/02/22-rdf-syntax-ns#">
   <cc:Work>
    <dc:type rdf:resource="http://purl.org/dc/dcmitype/StillImage"/>
    <dc:date>2025-03-16T14:30:04.064888</dc:date>
    <dc:format>image/svg+xml</dc:format>
    <dc:creator>
     <cc:Agent>
      <dc:title>Matplotlib v3.10.1, https://matplotlib.org/</dc:title>
     </cc:Agent>
    </dc:creator>
   </cc:Work>
  </rdf:RDF>
 </metadata>
 <defs>
  <style type="text/css">*{stroke-linejoin: round; stroke-linecap: butt}</style>
 </defs>
 <g id="figure_1">
  <g id="patch_1">
   <path d="M 0 523.623592 
L 851.4 523.623592 
L 851.4 0 
L 0 0 
z
" style="fill: #ffffff"/>
  </g>
  <g id="axes_1">
   <g id="PatchCollection_1">
    <path d="M 272.812125 98.741198 
L 243.879701 177.680074 
L 330.571766 194.006789 
L 325.206116 232.049621 
L 290.802833 332.704613 
L 180.649202 310.988497 
L 88.591487 215.722905 
L 45.245455 262.008351 
L 65.129921 338.252526 
L 90.380037 340.947227 
L 113.841603 455.234234 
L 113.841603 485.192964 
L 218.629585 493.277065 
L 222.206685 411.643489 
L 341.408274 392.622073 
L 350.456232 414.338189 
L 433.465989 411.643489 
L 440.725397 357.273942 
L 399.167915 354.579241 
L 390.119956 321.925811 
L 355.821882 319.23111 
L 368.552149 248.376336 
L 389.022628 226.747401 
L 411.950786 254.030452 
L 470.431107 227.547886 
L 556.247834 183.296147 
L 601.484469 169.43746 
L 608.6797 123.378687 
L 650.817936 90.03256 
L 764.730678 93.077571 
L 771.431428 200.279101 
L 806.154545 198.147117 
L 792.142835 97.035611 
L 794.579471 36.132208 
L 722.698704 30.346527 
L 646.553822 55.010963 
L 592.436511 101.435898 
L 446.196256 147.721344 
L 366.65839 136.78403 
L 359.504191 96.046497 
L 314.369608 96.046497 
L 272.812125 98.741198 
" clip-path="url(#p60691ec249)" style="fill: #f29888"/>
   </g>
   <g id="PatchCollection_2">
    <path d="M 95.524748 316.235237 
L 96.52844 315.962597 
L 96.729389 316.699677 
L 96.213866 316.839167 
L 96.123386 316.506292 
L 95.635217 316.639442 
L 95.524748 316.235237 
" clip-path="url(#p60691ec249)" style="fill: #f29888"/>
    <path d="M 94.112846 314.716694 
L 95.510019 314.283957 
L 95.804604 315.231857 
L 95.486873 315.330135 
L 95.645738 315.837373 
L 94.564192 316.173418 
L 94.112846 314.716694 
" clip-path="url(#p60691ec249)" style="fill: #f29888"/>
    <path d="M 64.799565 270.781979 
L 66.267228 270.217677 
L 67.114159 272.08019 
L 65.75907 272.644492 
L 64.799565 270.781979 
" clip-path="url(#p60691ec249)" style="fill: #f29888"/>
    <path d="M 483.835762 147.8006 
L 485.326571 147.085711 
L 485.176122 146.771858 
L 485.833677 146.458005 
L 488.249272 151.503435 
L 486.100908 152.532177 
L 483.835762 147.8006 
" clip-path="url(#p60691ec249)" style="fill: #f29888"/>
    <path d="M 409.839245 146.348632 
L 410.190642 147.529544 
L 406.255833 148.704117 
L 405.903383 147.523204 
L 409.839245 146.348632 
" clip-path="url(#p60691ec249)" style="fill: #f29888"/>
    <path d="M 487.373934 143.129257 
L 488.335543 145.218442 
L 485.077226 146.716379 
L 484.115617 144.627193 
L 487.373934 143.129257 
" clip-path="url(#p60691ec249)" style="fill: #f29888"/>
    <path d="M 570.657234 134.262107 
L 571.842937 133.471133 
L 572.802442 134.713866 
L 571.616738 135.560319 
L 570.657234 134.262107 
" clip-path="url(#p60691ec249)" style="fill: #f29888"/>
    <path d="M 581.427461 133.586847 
L 582.554247 133.059002 
L 583.098177 134.217724 
L 581.97139 134.745568 
L 581.427461 133.586847 
" clip-path="url(#p60691ec249)" style="fill: #f29888"/>
   </g>
   <g id="LineCollection_1">
    <path d="M 399.167915 363.674648 
L 406.372614 366.738681 
L 407.501505 367.92435 
L 406.372614 373.683083 
L 405.018577 377.690262 
L 404.171646 381.924112 
L 405.07539 385.029358 
L 408.348436 388.41517 
L 410.661978 391.690024 
L 412.807186 396.54524 
L 414.443183 406.311152 
L 414.910084 412.245859 
" clip-path="url(#p60691ec249)" style="fill: none; stroke: #f29888; stroke-width: 0.2"/>
    <path d="M 434.618025 371.443312 
L 438.745658 372.101255 
" clip-path="url(#p60691ec249)" style="fill: none; stroke: #f29888; stroke-width: 0.2"/>
    <path d="M 404.171646 381.924112 
L 408.122237 375.601076 
L 411.339523 372.722502 
L 416.362191 373.118781 
L 424.828345 373.568955 
L 432.50438 371.876049 
L 434.618025 371.443312 
L 436.906317 370.972532 
L 438.955724 370.527961 
" clip-path="url(#p60691ec249)" style="fill: none; stroke: #f29888; stroke-width: 0.2"/>
    <path d="M 439.430382 366.972995 
L 438.035208 365.045775 
L 435.381841 361.997593 
L 433.633271 360.078016 
L 432.673766 357.763743 
L 432.002305 356.708313 
" clip-path="url(#p60691ec249)" style="fill: none; stroke: #f29888; stroke-width: 0.2"/>
    <path d="M 651.310041 90.045714 
L 650.694841 84.949086 
L 650.919988 75.920254 
L 649.791098 73.663046 
L 643.774205 70.55146 
" clip-path="url(#p60691ec249)" style="fill: none; stroke: #f29888; stroke-width: 0.2"/>
    <path d="M 421.065026 228.237412 
L 423.02191 232.120951 
L 427.1987 235.281676 
L 431.036717 237.653013 
L 434.874735 240.69961 
L 437.095923 242.643583 
" clip-path="url(#p60691ec249)" style="fill: none; stroke: #f29888; stroke-width: 0.2"/>
    <path d="M 440.723281 241.000949 
L 441.928986 239.571006 
L 447.798586 236.919103 
L 451.467217 234.492288 
L 459.023692 232.713685 
" clip-path="url(#p60691ec249)" style="fill: none; stroke: #f29888; stroke-width: 0.2"/>
    <path d="M 411.283762 197.196046 
L 401.350997 196.969375 
" clip-path="url(#p60691ec249)" style="fill: none; stroke: #f29888; stroke-width: 0.2"/>
    <path d="M 429.343907 189.745992 
L 411.283762 197.196046 
" clip-path="url(#p60691ec249)" style="fill: none; stroke: #f29888; stroke-width: 0.2"/>
    <path d="M 516.992321 196.395562 
L 527.659443 194.02581 
L 534.374921 193.179357 
L 537.987792 191.316844 
L 541.599611 189.623938 
L 545.671976 188.749631 
" clip-path="url(#p60691ec249)" style="fill: none; stroke: #f29888; stroke-width: 0.2"/>
    <path d="M 430.387579 220.720782 
L 438.599127 216.883212 
L 450.11318 212.818969 
L 462.867645 206.047345 
L 478.671061 197.016928 
L 489.393944 191.598995 
L 491.200379 189.793545 
L 492.554417 188.43827 
L 492.554417 184.827371 
L 486.039887 174.565317 
L 484.314462 171.84684 
L 478.557436 163.155638 
L 475.829371 161.091814 
" clip-path="url(#p60691ec249)" style="fill: none; stroke: #f29888; stroke-width: 0.2"/>
    <path d="M 491.200379 189.793545 
L 494.473425 190.470391 
L 503.390925 185.843431 
L 504.914348 183.698767 
L 512.702957 179.127286 
L 518.911329 175.007565 
L 519.983407 174.273655 
" clip-path="url(#p60691ec249)" style="fill: none; stroke: #f29888; stroke-width: 0.2"/>
    <path d="M 469.811427 164.558467 
L 469.18859 168.461028 
L 471.558945 173.991504 
L 471.897718 179.182766 
L 466.593089 184.600699 
L 460.272143 190.695478 
L 453.047454 197.693773 
" clip-path="url(#p60691ec249)" style="fill: none; stroke: #f29888; stroke-width: 0.2"/>
    <path d="M 392.086309 183.782778 
L 395.134208 172.834368 
L 408.566218 158.048387 
L 409.356336 156.468025 
" clip-path="url(#p60691ec249)" style="fill: none; stroke: #f29888; stroke-width: 0.2"/>
    <path d="M 486.039887 174.565317 
L 505.422507 164.736 
L 505.083735 162.930551 
L 502.374608 157.851833 
" clip-path="url(#p60691ec249)" style="fill: none; stroke: #f29888; stroke-width: 0.2"/>
    <path d="M 407.437328 164.707468 
L 411.501544 158.612689 
L 412.855582 154.887662 
L 412.516809 148.116038 
L 411.839264 145.407071 
L 407.437328 145.294528 
" clip-path="url(#p60691ec249)" style="fill: none; stroke: #f29888; stroke-width: 0.2"/>
    <path d="M 550.325789 186.349873 
L 543.969965 187.084579 
L 530.142371 190.075696 
L 526.530552 192.050753 
L 523.313266 193.913267 
L 516.992321 196.395562 
L 509.881257 199.443744 
L 505.365694 199.500808 
L 501.810688 200.629412 
" clip-path="url(#p60691ec249)" style="fill: none; stroke: #f29888; stroke-width: 0.2"/>
    <path d="M 602.941585 160.110039 
L 601.367688 158.416135 
L 594.256624 158.189463 
L 591.096151 157.173402 
L 583.194969 155.59304 
L 569.310561 156.723229 
L 558.474053 158.753765 
L 546.62228 161.91449 
L 544.379228 162.623038 
L 533.754189 165.977148 
L 525.062889 170.830779 
L 519.983407 174.273655 
" clip-path="url(#p60691ec249)" style="fill: none; stroke: #f29888; stroke-width: 0.2"/>
    <path d="M 601.367688 158.416135 
L 596.534395 146.916104 
L 591.342339 134.728132 
L 588.921485 132.573956 
" clip-path="url(#p60691ec249)" style="fill: none; stroke: #f29888; stroke-width: 0.2"/>
    <path d="M 544.379228 162.623038 
L 548.279319 157.95011 
L 548.956863 152.869807 
L 566.565663 141.35868 
L 571.757718 137.972868 
L 582.030307 136.392505 
L 585.754699 134.472928 
L 588.921485 132.573956 
L 590.270262 131.763961 
L 592.75319 129.479806 
L 595.85685 124.456567 
L 593.035149 117.065162 
L 589.423331 106.850662 
L 587.021436 103.149785 
" clip-path="url(#p60691ec249)" style="fill: none; stroke: #f29888; stroke-width: 0.2"/>
    <path d="M 610.392448 122.023302 
L 607.57606 114.793688 
L 608.930097 112.197265 
L 612.880688 107.90952 
L 613.44566 103.620191 
L 611.865423 99.895164 
L 609.929581 95.834092 
" clip-path="url(#p60691ec249)" style="fill: none; stroke: #f29888; stroke-width: 0.2"/>
    <path d="M 794.723207 198.848996 
L 794.253324 190.773148 
L 792.503701 178.865742 
L 789.398989 162.331376 
L 786.352142 144.948972 
L 785.361075 141.436351 
L 785.109626 140.5471 
L 780.482542 121.248288 
L 778.055375 113.798234 
L 775.628207 108.664037 
L 772.467734 104.037077 
L 773.314665 99.57814 
L 774.556129 95.176268 
L 775.515634 86.2045 
L 776.475138 80.56148 
L 778.055375 68.768202 
L 779.635611 54.944388 
L 780.366812 48.573799 
" clip-path="url(#p60691ec249)" style="fill: none; stroke: #f29888; stroke-width: 0.2"/>
    <path d="M 785.361075 141.436351 
L 777.398872 143.348003 
L 770.457194 144.476607 
L 767.944339 144.491125 
" clip-path="url(#p60691ec249)" style="fill: none; stroke: #f29888; stroke-width: 0.2"/>
    <path d="M 744.648611 92.540756 
L 744.954577 88.433176 
" clip-path="url(#p60691ec249)" style="fill: none; stroke: #f29888; stroke-width: 0.2"/>
    <path d="M 744.954577 88.433176 
L 753.074593 91.093004 
L 756.524768 92.858218 
" clip-path="url(#p60691ec249)" style="fill: none; stroke: #f29888; stroke-width: 0.2"/>
    <path d="M 765.015758 97.638401 
L 769.328303 100.686138 
L 772.467734 104.037077 
L 769.893275 104.40958 
L 768.650759 109.71497 
L 766.031924 113.895477 
" clip-path="url(#p60691ec249)" style="fill: none; stroke: #f29888; stroke-width: 0.2"/>
    <path d="M 607.526612 96.523618 
L 602.549183 98.844231 
L 599.158302 100.201092 
L 595.442327 101.266291 
L 590.564451 102.028411 
" clip-path="url(#p60691ec249)" style="fill: none; stroke: #f29888; stroke-width: 0.2"/>
    <path d="M 580.247821 105.293652 
L 574.729867 108.256661 
L 538.608524 128.571533 
L 490.749033 152.498889 
L 475.829371 161.091814 
L 469.811427 164.558467 
L 434.310816 185.004904 
L 430.246599 187.713871 
L 429.343907 189.745992 
L 432.491755 206.670297 
" clip-path="url(#p60691ec249)" style="fill: none; stroke: #f29888; stroke-width: 0.2"/>
    <path d="M 426.576662 145.023438 
L 422.788346 149.469729 
L 420.305418 152.969669 
L 416.693599 157.258999 
L 411.275345 160.869897 
L 407.437328 164.707468 
L 405.293172 167.75565 
L 402.357846 173.511213 
L 394.34409 180.961268 
L 392.086309 183.782778 
L 390.002122 188.425589 
" clip-path="url(#p60691ec249)" style="fill: none; stroke: #f29888; stroke-width: 0.2"/>
    <path d="M 778.055375 68.768202 
L 771.875409 69.021821 
L 760.644368 68.853798 
L 745.913029 68.232432 
L 731.803475 68.73967 
L 722.548255 69.361036 
L 713.461369 70.320032 
L 704.488109 72.125482 
L 700.932051 72.352154 
L 691.338059 71.900395 
L 680.332165 72.238025 
L 674.913911 72.352154 
L 659.732279 73.254086 
L 649.791098 73.663046 
" clip-path="url(#p60691ec249)" style="fill: none; stroke: #f29888; stroke-width: 0.2"/>
    <path d="M 744.954577 88.433176 
L 744.954577 73.64878 
L 745.913029 68.232432 
L 746.308614 58.86597 
L 746.987211 48.039614 
" clip-path="url(#p60691ec249)" style="fill: none; stroke: #f29888; stroke-width: 0.2"/>
    <path d="M 792.615223 48.768768 
L 793.491612 52.010334 
L 792.814067 57.369618 
" clip-path="url(#p60691ec249)" style="fill: none; stroke: #f29888; stroke-width: 0.2"/>
    <path d="M 605.799261 89.972564 
L 606.47768 93.599075 
L 607.526612 96.523618 
L 609.929581 95.834092 
L 611.108972 95.494876 
L 614.202111 94.312378 
L 620.921798 89.726632 
L 634.202307 79.767336 
L 639.635291 75.070631 
L 643.774205 70.55146 
L 649.028334 62.163015 
L 650.504413 59.923243 
L 652.237203 58.384094 
L 653.921596 57.461555 
L 658.709649 55.438945 
L 682.188049 49.119079 
L 691.895666 47.990475 
L 715.825412 47.540302 
L 746.987211 48.039614 
L 780.366812 48.573799 
L 792.615223 48.768768 
L 794.07297 48.792136 
" clip-path="url(#p60691ec249)" style="fill: none; stroke: #f29888; stroke-width: 0.2"/>
    <path d="M 391.645484 386.501932 
L 391.19519 399.544283 
L 388.262578 413.110903 
" clip-path="url(#p60691ec249)" style="fill: none; stroke: #f29888; stroke-width: 0.2"/>
    <path d="M 223.051511 387.901592 
L 223.363982 392.324071 
L 225.56495 397.518502 
L 227.765918 399.832775 
L 236.739178 400.454141 
L 244.133254 402.372134 
L 250.792972 405.364837 
L 251.859435 406.911695 
" clip-path="url(#p60691ec249)" style="fill: none; stroke: #f29888; stroke-width: 0.2"/>
    <path d="M 303.741729 398.632656 
L 300.458898 395.797064 
L 298.652463 392.634754 
L 296.394682 386.990149 
" clip-path="url(#p60691ec249)" style="fill: none; stroke: #f29888; stroke-width: 0.2"/>
    <path d="M 359.001292 347.373295 
L 359.747223 352.68344 
L 359.860848 367.133376 
L 359.747223 378.424171 
L 358.730906 381.020594 
L 356.474177 385.424052 
L 354.555168 389.488295 
L 355.231661 396.600719 
L 349.408186 411.82276 
" clip-path="url(#p60691ec249)" style="fill: none; stroke: #f29888; stroke-width: 0.2"/>
    <path d="M 283.177298 387.668579 
L 296.394682 386.990149 
L 328.948394 382.927491 
L 359.747223 378.424171 
" clip-path="url(#p60691ec249)" style="fill: none; stroke: #f29888; stroke-width: 0.2"/>
    <path d="M 290.783896 359.507373 
L 294.012754 376.379369 
L 296.394682 386.990149 
" clip-path="url(#p60691ec249)" style="fill: none; stroke: #f29888; stroke-width: 0.2"/>
    <path d="M 184.594265 490.651335 
L 185.321525 480.464557 
L 186.205279 462.457616 
L 188.200039 421.808851 
" clip-path="url(#p60691ec249)" style="fill: none; stroke: #f29888; stroke-width: 0.2"/>
    <path d="M 168.087269 423.89011 
L 166.417605 440.365827 
L 165.060411 452.958004 
L 165.513861 458.429831 
L 164.386023 471.415118 
L 163.482279 481.125551 
L 162.579588 487.336043 
L 163.550684 489.027881 
" clip-path="url(#p60691ec249)" style="fill: none; stroke: #f29888; stroke-width: 0.2"/>
    <path d="M 106.287129 418.434547 
L 110.091961 417.839715 
L 114.606471 421.227112 
L 127.285186 422.74724 
L 131.380965 428.469516 
L 138.920229 434.920947 
L 159.486448 449.244073 
L 165.060411 452.958004 
L 175.605491 459.986417 
L 180.030574 461.550929 
L 186.205279 462.457616 
L 214.096137 464.841634 
L 217.618528 467.309662 
L 219.664484 469.659464 
" clip-path="url(#p60691ec249)" style="fill: none; stroke: #f29888; stroke-width: 0.2"/>
    <path d="M 138.121694 422.295482 
L 139.261105 424.078739 
L 141.292688 425.264408 
L 145.01708 425.546559 
L 168.087269 423.89011 
L 181.194184 422.950135 
L 188.200039 421.808851 
" clip-path="url(#p60691ec249)" style="fill: none; stroke: #f29888; stroke-width: 0.2"/>
    <path d="M 188.200039 421.808851 
L 199.782477 419.924145 
L 214.40019 413.883261 
L 217.597486 410.643279 
L 218.669564 407.932728 
L 220.701146 393.764943 
L 222.620155 388.570511 
L 223.051511 387.901592 
L 226.647549 382.326732 
L 230.089981 379.899916 
L 234.924326 378.352841 
L 241.490409 375.158828 
L 255.656776 364.601942 
L 259.192844 363.676233 
L 274.769009 361.983327 
" clip-path="url(#p60691ec249)" style="fill: none; stroke: #f29888; stroke-width: 0.2"/>
    <path d="M 106.299183 371.750824 
L 120.634936 375.306244 
L 144.677255 380.500676 
L 156.303882 384.452375 
L 162.737401 386.145281 
L 162.680588 391.000497 
L 163.132986 396.645102 
L 162.229242 399.241526 
L 157.138188 403.361247 
" clip-path="url(#p60691ec249)" style="fill: none; stroke: #f29888; stroke-width: 0.2"/>
    <path d="M 228.320369 378.634992 
L 225.611242 374.797421 
L 219.45863 374.883018 
L 213.448051 373.725881 
L 208.105547 373.522986 
" clip-path="url(#p60691ec249)" style="fill: none; stroke: #f29888; stroke-width: 0.2"/>
    <path d="M 185.304692 349.814377 
L 188.238966 349.814377 
L 190.045401 351.846498 
L 190.948093 354.782136 
L 191.850785 358.846379 
L 192.303183 362.910621 
L 194.334765 366.523105 
L 200.204365 370.812435 
L 204.267529 372.619469 
L 208.105547 373.522986 
L 209.234437 374.876677 
L 207.654201 376.005281 
L 198.397929 377.13547 
L 191.850785 378.715833 
L 186.207384 385.037283 
L 184.853346 387.972922 
L 184.175801 391.360319 
L 182.820712 393.167354 
L 172.661748 398.585287 
L 169.276129 400.167235 
L 157.138188 403.361247 
L 156.408038 403.553047 
L 151.44113 405.81184 
L 138.121694 422.295482 
L 134.735022 423.875844 
L 127.285186 422.74724 
L 101.301028 394.146034 
" clip-path="url(#p60691ec249)" style="fill: none; stroke: #f29888; stroke-width: 0.2"/>
    <path d="M 282.048407 377.734645 
L 294.012754 376.379369 
L 327.480731 372.202583 
L 350.564597 367.799125 
L 359.860848 367.133376 
L 393.060543 360.834117 
" clip-path="url(#p60691ec249)" style="fill: none; stroke: #f29888; stroke-width: 0.2"/>
    <path d="M 325.289231 353.769246 
L 327.480731 372.202583 
L 328.948394 382.927491 
" clip-path="url(#p60691ec249)" style="fill: none; stroke: #f29888; stroke-width: 0.2"/>
    <path d="M 397.489834 367.165078 
L 396.051629 364.050321 
L 393.060543 360.834117 
L 393.279377 352.513833 
L 392.940605 341.958532 
L 392.977428 339.336747 
" clip-path="url(#p60691ec249)" style="fill: none; stroke: #f29888; stroke-width: 0.2"/>
    <path d="M 401.463876 354.728118 
L 401.237372 359.371053 
L 399.167915 363.674648 
L 397.489834 367.165078 
L 396.591351 374.960688 
L 391.645484 386.501932 
" clip-path="url(#p60691ec249)" style="fill: none; stroke: #f29888; stroke-width: 0.2"/>
    <path d="M 274.769009 361.983327 
L 290.783896 359.507373 
L 293.158459 359.139626 
L 311.657325 356.270562 
L 325.289231 353.769246 
L 346.651881 349.847664 
L 359.001292 347.373295 
L 362.376391 346.698035 
L 390.206227 341.064525 
L 391.95585 340.330616 
L 392.977428 339.336747 
L 393.521357 337.648596 
L 393.794407 335.186638 
" clip-path="url(#p60691ec249)" style="fill: none; stroke: #f29888; stroke-width: 0.2"/>
    <path d="M 407.258914 248.447422 
L 407.326858 248.312931 
L 408.977585 243.208851 
L 409.780328 240.358809 
L 412.85453 235.9395 
L 416.224368 232.265197 
L 421.065026 228.237412 
L 422.240208 227.259394 
L 430.387579 220.720782 
L 432.255035 217.745516 
L 432.969403 214.619663 
L 433.184029 210.786848 
L 432.491755 206.670297 
" clip-path="url(#p60691ec249)" style="fill: none; stroke: #f29888; stroke-width: 0.2"/>
    <path d="M 401.350997 196.969375 
L 394.352507 205.548033 
L 389.611798 208.933845 
L 387.354016 210.514208 
L 385.096235 213.90002 
L 378.323944 236.250183 
L 378.256953 238.122322 
" clip-path="url(#p60691ec249)" style="fill: none; stroke: #f29888; stroke-width: 0.2"/>
    <path d="M 364.594295 270.405162 
L 361.16649 276.436095 
L 357.554671 284.56458 
L 351.458872 292.466393 
L 346.491964 298.561172 
L 340.397217 302.400327 
L 296.66454 315.554794 
" clip-path="url(#p60691ec249)" style="fill: none; stroke: #f29888; stroke-width: 0.2"/>
    <path d="M 259.901985 326.612699 
L 222.553874 337.846736 
L 215.555383 340.330616 
L 205.847766 345.975221 
L 197.043892 346.426979 
L 192.076984 350.266135 
L 190.045401 351.846498 
" clip-path="url(#p60691ec249)" style="fill: none; stroke: #f29888; stroke-width: 0.2"/>
    <path d="M 355.563068 147.965452 
L 365.270686 146.619687 
L 379.110906 145.001281 
L 388.620731 148.521828 
L 390.603917 150.343129 
L 391.535015 157.059274 
L 389.915851 166.528769 
L 386.597565 175.834996 
L 385.950531 180.488903 
L 386.718555 184.171132 
L 390.002122 188.425589 
L 391.778047 190.72718 
L 395.622377 194.28894 
L 398.090576 196.191082 
L 401.350997 196.969375 
" clip-path="url(#p60691ec249)" style="fill: none; stroke: #f29888; stroke-width: 0.2"/>
    <path d="M 284.157844 171.287293 
L 288.11054 172.66159 
L 300.215866 177.941618 
L 300.93339 178.089034 
L 308.320101 179.612333 
L 311.62471 179.561609 
L 317.37332 178.195237 
L 319.082963 177.383657 
L 318.512731 175.017076 
L 312.306463 161.282028 
" clip-path="url(#p60691ec249)" style="fill: none; stroke: #f29888; stroke-width: 0.2"/>
    <path d="M 291.268908 154.542106 
L 290.270477 157.146455 
L 284.157844 171.287293 
L 278.569679 184.213237 
" clip-path="url(#p60691ec249)" style="fill: none; stroke: #f29888; stroke-width: 0.2"/>
    <path d="M 300.93339 178.089034 
L 302.750346 172.450769 
L 306.448436 160.861972 
" clip-path="url(#p60691ec249)" style="fill: none; stroke: #f29888; stroke-width: 0.2"/>
    <path d="M 149.248578 342.34213 
L 153.312795 344.599338 
L 161.89047 347.195762 
L 170.582822 348.099279 
L 173.968442 349.679642 
L 185.304692 349.814377 
" clip-path="url(#p60691ec249)" style="fill: none; stroke: #f29888; stroke-width: 0.2"/>
    <path d="M 173.968442 349.679642 
L 171.37294 346.744003 
L 171.428701 342.736825 
L 169.509692 341.494092 
L 161.834709 339.293949 
L 156.303882 334.044038 
L 150.320656 328.172761 
L 144.225909 324.110103 
L 134.630865 320.158404 
L 121.988974 314.06204 
L 114.59595 308.355616 
" clip-path="url(#p60691ec249)" style="fill: none; stroke: #f29888; stroke-width: 0.2"/>
    <path d="M 81.60457 266.413394 
L 86.294779 272.168957 
L 94.375868 281.235832 
L 99.105004 286.005452 
L 103.954079 291.523248 
L 111.521749 301.851876 
L 113.25559 305.714809 
L 114.59595 308.355616 
L 118.577052 310.603313 
L 124.291995 312.613243 
L 125.474542 312.811382 
" clip-path="url(#p60691ec249)" style="fill: none; stroke: #f29888; stroke-width: 0.2"/>
    <path d="M 63.266604 242.765138 
L 63.748529 243.985559 
L 65.720142 246.114373 
L 67.415056 249.070618 
L 69.10997 252.735411 
L 71.789639 255.022736 
L 74.351474 258.215163 
L 76.953288 264.994713 
L 78.884922 266.137583 
L 81.60457 266.413394 
" clip-path="url(#p60691ec249)" style="fill: none; stroke: #f29888; stroke-width: 0.2"/>
    <path d="M 255.835631 147.862419 
L 255.133888 150.435066 
L 253.503151 154.756097 
L 250.494825 159.631449 
" clip-path="url(#p60691ec249)" style="fill: none; stroke: #f29888; stroke-width: 0.2"/>
    <path d="M 249.206708 163.145933 
L 248.530983 166.021531 
L 247.990317 166.464717 
" clip-path="url(#p60691ec249)" style="fill: none; stroke: #f29888; stroke-width: 0.2"/>
    <path d="M 254.830033 147.803321 
L 255.835631 147.862419 
L 266.89939 148.515488 
L 274.828978 149.911977 
" clip-path="url(#p60691ec249)" style="fill: none; stroke: #f29888; stroke-width: 0.2"/>
    <path d="M 274.828978 149.911977 
L 280.479744 151.051677 
L 285.965332 152.332452 
L 291.268908 154.542106 
L 306.448436 160.861972 
L 307.956079 161.491264 
L 312.306463 161.282028 
L 326.105652 154.32336 
L 326.500185 154.19021 
L 331.6975 152.441825 
L 338.276208 150.587237 
L 355.563068 147.965452 
" clip-path="url(#p60691ec249)" style="fill: none; stroke: #f29888; stroke-width: 0.2"/>
    <path d="M 326.500185 154.19021 
L 323.973069 148.656563 
L 319.336516 135.133922 
" clip-path="url(#p60691ec249)" style="fill: none; stroke: #f29888; stroke-width: 0.2"/>
   </g>
  </g>
 </g>
 <defs>
  <clipPath id="p60691ec249">
   <rect x="7.2" y="7.2" width="837" height="509.223592"/>
  </clipPath>
 </defs>
</svg>
