<?xml version="1.0" encoding="utf-8" standalone="no"?>
<!DOCTYPE svg PUBLIC "-//W3C//DTD SVG 1.1//EN"
  "http://www.w3.org/Graphics/SVG/1.1/DTD/svg11.dtd">
<svg xmlns:xlink="http://www.w3.org/1999/xlink" width="851.4pt" height="605.663752pt" viewBox="0 0 851.4 605.663752" xmlns="http://www.w3.org/2000/svg" version="1.1">
 <metadata>
  <rdf:RDF xmlns:dc="http://purl.org/dc/elements/1.1/" xmlns:cc="http://creativecommons.org/ns#" xmlns:rdf="http://www.w3.org/1999/02/22-rdf-syntax-ns#">
   <cc:Work>
    <dc:type rdf:resource="http://purl.org/dc/dcmitype/StillImage"/>
    <dc:date>2025-03-16T14:29:56.749366</dc:date>
    <dc:format>image/svg+xml</dc:format>
    <dc:creator>
     <cc:Agent>
      <dc:title>Matplotlib v3.10.1, https://matplotlib.org/</dc:title>
     </cc:Agent>
    </dc:creator>
   </cc:Work>
  </rdf:RDF>
 </metadata>
 <defs>
  <style type="text/css">*{stroke-linejoin: round; stroke-linecap: butt}</style>
 </defs>
 <g id="figure_1">
  <g id="patch_1">
   <path d="M 0 605.663752 
L 851.4 605.663752 
L 851.4 0 
L 0 0 
z
" style="fill: #ffffff"/>
  </g>
  <g id="axes_1">
   <g id="PatchCollection_1">
    <path d="M 49.900914 571.588126 
L 111.394831 559.969035 
L 128.268965 568.659138 
L 133.243196 571.22174 
L 136.462795 570.141531 
L 214.859951 543.854335 
L 258.358488 541.982394 
L 293.729721 540.462099 
L 369.208033 534.524108 
L 417.421626 523.620944 
L 436.177902 507.794721 
L 474.278102 508.96758 
L 498.309363 524.793802 
L 527.021031 521.02044 
L 539.187039 490.65456 
L 555.750716 478.483783 
L 585.784595 463.836736 
L 578.317011 435.115385 
L 563.95702 431.005115 
L 555.164453 428.074022 
L 563.95702 399.938047 
L 581.540768 394.663342 
L 637.81098 367.114849 
L 637.81098 360.667285 
L 651.292269 352.461486 
L 653.049674 336.637369 
L 686.723099 306.492585 
L 701.035968 269.453834 
L 702.850198 247.356923 
L 710.880484 243.490912 
L 733.854253 237.321296 
L 773.704928 237.024396 
L 803.127596 237.302345 
L 803.221842 226.468668 
L 790.0025 195.822734 
L 806.154545 196.65658 
L 799.853945 170.314637 
L 790.200693 138.605339 
L 784.401812 123.739303 
L 779.229388 122.619086 
L 777.190632 108.650065 
L 772.877506 97.797437 
L 742.729978 36.480301 
L 738.157677 34.250396 
L 715.486048 34.075625 
L 722.53507 88.361926 
L 643.105369 68.050625 
L 597.512638 70.270002 
L 605.045362 111.656963 
L 575.488255 178.417259 
L 521.183343 95.182194 
L 453.032632 117.746563 
L 438.750254 124.931112 
L 464.347657 210.575064 
L 389.562327 187.673788 
L 349.703337 171.5633 
L 302.070464 189.450974 
L 336.917802 268.213594 
L 292.88151 279.25152 
L 291.186474 308.930951 
L 208.923859 317.412594 
L 212.810107 357.38665 
L 174.152749 353.027911 
L 130.900914 392.886155 
L 100.369473 370.837676 
L 76.623721 394.583326 
L 93.58517 432.746505 
L 80.016565 450.55627 
L 45.245455 442.076733 
L 48.638299 520.104473 
L 49.900914 571.588126 
" clip-path="url(#p51dc3f69fc)" style="fill: #d1d4f2"/>
   </g>
   <g id="PatchCollection_2">
    <path d="M 122.874786 550.636701 
L 123.072979 551.213655 
L 121.828381 551.639 
L 121.630188 551.062047 
L 122.874786 550.636701 
" clip-path="url(#p51dc3f69fc)" style="fill: #4d59c1"/>
    <path d="M 121.211627 547.43187 
L 121.455557 548.160432 
L 120.072363 548.62368 
L 119.829819 547.895118 
L 121.211627 547.43187 
" clip-path="url(#p51dc3f69fc)" style="fill: #4d59c1"/>
    <path d="M 233.850454 439.423588 
L 233.943314 439.191964 
L 233.258647 438.918227 
L 234.815086 435.041687 
L 236.87186 435.86711 
L 236.220456 437.490582 
L 246.09962 441.45556 
L 247.137709 438.869796 
L 250.046851 440.038444 
L 248.831359 443.068504 
L 249.223587 443.226429 
L 248.196586 445.784819 
L 244.89383 444.458247 
L 245.101725 443.940252 
L 233.850454 439.423588 
" clip-path="url(#p51dc3f69fc)" style="fill: #4d59c1"/>
    <path d="M 300.530656 417.149801 
L 296.859232 422.605594 
L 294.525266 421.034764 
L 298.196689 415.578971 
L 300.530656 417.149801 
" clip-path="url(#p51dc3f69fc)" style="fill: #4d59c1"/>
    <path d="M 305.263729 410.1316 
L 301.672691 415.46737 
L 299.327637 413.890222 
L 302.918675 408.554452 
L 305.263729 410.1316 
" clip-path="url(#p51dc3f69fc)" style="fill: #4d59c1"/>
    <path d="M 299.207058 407.347903 
L 297.657548 409.649401 
L 291.219737 405.318036 
L 292.769247 403.014432 
L 299.207058 407.347903 
" clip-path="url(#p51dc3f69fc)" style="fill: #4d59c1"/>
    <path d="M 311.580961 400.860331 
L 307.305256 407.215246 
L 304.979606 405.650732 
L 309.256696 399.297923 
L 311.580961 400.860331 
" clip-path="url(#p51dc3f69fc)" style="fill: #4d59c1"/>
    <path d="M 379.746918 394.155875 
L 378.771198 395.962541 
L 375.866213 394.393816 
L 375.080371 395.848834 
L 378.664478 397.783946 
L 377.651337 399.662204 
L 374.015949 397.699719 
L 373.212089 399.186323 
L 376.168354 400.782421 
L 375.230055 402.5196 
L 370.50114 399.965421 
L 372.336158 396.568974 
L 371.928684 396.349984 
L 372.769966 394.791788 
L 373.17744 395.010777 
L 375.018002 391.601696 
L 379.746918 394.155875 
" clip-path="url(#p51dc3f69fc)" style="fill: #4d59c1"/>
    <path d="M 305.694764 396.630038 
L 304.238114 398.794668 
L 298.616637 395.012883 
L 300.074673 392.848253 
L 305.694764 396.630038 
" clip-path="url(#p51dc3f69fc)" style="fill: #4d59c1"/>
    <path d="M 376.532863 380.207911 
L 381.11348 385.137287 
L 380.212602 385.973238 
L 379.911847 385.648965 
L 378.627057 386.844986 
L 378.992952 387.238746 
L 378.336004 387.849391 
L 377.970109 387.45563 
L 376.579986 388.746406 
L 375.475371 387.556702 
L 378.805847 384.45926 
L 378.225127 383.833876 
L 377.193968 384.791956 
L 376.23488 383.760178 
L 377.266039 382.802098 
L 376.632652 382.11986 
L 376.212705 382.509409 
L 376.724126 383.061095 
L 374.961178 384.699307 
L 374.52044 384.225531 
L 373.263369 385.394178 
L 372.193404 384.242376 
L 376.532863 380.207911 
" clip-path="url(#p51dc3f69fc)" style="fill: #4d59c1"/>
    <path d="M 423.860823 419.084913 
L 424.496982 420.782083 
L 421.384102 421.738058 
L 420.959997 420.005091 
L 423.860823 419.084913 
" clip-path="url(#p51dc3f69fc)" style="fill: #4d59c1"/>
    <path d="M 403.480196 373.273937 
L 405.780899 375.225894 
L 404.580653 377.102046 
L 402.130265 374.950051 
L 403.480196 373.273937 
" clip-path="url(#p51dc3f69fc)" style="fill: #4d59c1"/>
    <path d="M 401.104651 373.575048 
L 400.054089 374.425739 
L 398.853842 373.299205 
L 400.128931 372.273743 
L 401.104651 373.575048 
" clip-path="url(#p51dc3f69fc)" style="fill: #4d59c1"/>
    <path d="M 410.432201 368.272968 
L 411.858359 370.073317 
L 411.007376 370.949276 
L 409.256902 369.224732 
L 410.432201 368.272968 
" clip-path="url(#p51dc3f69fc)" style="fill: #4d59c1"/>
    <path d="M 395.021647 369.826954 
L 394.068102 368.81202 
L 395.76591 367.786558 
L 396.607192 368.628827 
L 395.021647 369.826954 
" clip-path="url(#p51dc3f69fc)" style="fill: #4d59c1"/>
    <path d="M 412.732904 367.647584 
L 413.733571 368.74885 
L 412.908922 369.42477 
L 411.75857 368.348773 
L 412.732904 367.647584 
" clip-path="url(#p51dc3f69fc)" style="fill: #4d59c1"/>
    <path d="M 418.359925 369.42477 
L 416.759135 368.698314 
L 417.759802 367.098004 
L 419.059838 368.2477 
L 418.359925 369.42477 
" clip-path="url(#p51dc3f69fc)" style="fill: #4d59c1"/>
    <path d="M 398.87879 366.862169 
L 399.846194 368.039239 
L 398.626544 369.426876 
L 397.363929 367.997126 
L 398.87879 366.862169 
" clip-path="url(#p51dc3f69fc)" style="fill: #4d59c1"/>
    <path d="M 415.934485 366.247313 
L 414.958765 367.52335 
L 413.033658 365.998844 
L 414.508326 364.722807 
L 415.934485 366.247313 
" clip-path="url(#p51dc3f69fc)" style="fill: #4d59c1"/>
    <path d="M 392.317627 362.981417 
L 390.740398 363.933181 
L 389.670433 362.713997 
L 391.544259 361.852778 
L 392.317627 362.981417 
" clip-path="url(#p51dc3f69fc)" style="fill: #4d59c1"/>
    <path d="M 471.410538 430.632412 
L 471.847118 431.249373 
L 471.069591 431.796848 
L 470.634398 431.179886 
L 471.410538 430.632412 
" clip-path="url(#p51dc3f69fc)" style="fill: #4d59c1"/>
    <path d="M 432.66725 418.095247 
L 433.65683 420.782083 
L 422.268349 424.31961 
L 421.561506 422.127607 
L 432.66725 418.095247 
" clip-path="url(#p51dc3f69fc)" style="fill: #4d59c1"/>
    <path d="M 488.815497 415.477898 
L 489.232673 415.976942 
L 488.06569 416.949762 
L 487.6499 416.450718 
L 488.815497 415.477898 
" clip-path="url(#p51dc3f69fc)" style="fill: #4d59c1"/>
    <path d="M 489.08576 410.439028 
L 489.562533 410.961234 
L 488.466234 411.963534 
L 487.988076 411.441327 
L 489.08576 410.439028 
" clip-path="url(#p51dc3f69fc)" style="fill: #4d59c1"/>
    <path d="M 456.864827 405.897096 
L 458.261881 408.276504 
L 454.812212 410.091592 
L 453.325071 408.247024 
L 456.864827 405.897096 
" clip-path="url(#p51dc3f69fc)" style="fill: #4d59c1"/>
    <path d="M 459.629829 406.076078 
L 461.028269 407.979604 
L 459.541127 408.960847 
L 458.261881 406.909923 
L 459.629829 406.076078 
" clip-path="url(#p51dc3f69fc)" style="fill: #4d59c1"/>
    <path d="M 492.36357 391.359544 
L 491.024727 394.126396 
L 485.314548 391.330065 
L 487.040075 388.415816 
L 492.36357 391.359544 
" clip-path="url(#p51dc3f69fc)" style="fill: #4d59c1"/>
    <path d="M 505.182367 341.446721 
L 503.955788 343.417629 
L 502.117997 342.272144 
L 503.344577 340.303342 
L 505.182367 341.446721 
" clip-path="url(#p51dc3f69fc)" style="fill: #4d59c1"/>
    <path d="M 508.474036 338.258736 
L 506.87186 340.87819 
L 500.366136 336.900578 
L 501.968313 334.281123 
L 508.474036 338.258736 
" clip-path="url(#p51dc3f69fc)" style="fill: #4d59c1"/>
    <path d="M 552.416082 321.691317 
L 551.361362 322.478838 
L 550.768169 321.809235 
L 549.910256 320.661644 
L 551.089713 319.69093 
L 552.416082 321.691317 
" clip-path="url(#p51dc3f69fc)" style="fill: #4d59c1"/>
    <path d="M 207.58363 374.724744 
L 212.862774 378.590756 
L 211.099825 380.997538 
L 205.822068 377.131526 
L 206.494261 376.213453 
L 203.78747 374.232017 
L 201.556065 377.278923 
L 206.189349 380.673264 
L 205.025137 382.263046 
L 200.390468 378.87081 
L 198.982326 377.839031 
L 203.470084 371.711529 
L 207.58363 374.724744 
" clip-path="url(#p51dc3f69fc)" style="fill: #4d59c1"/>
    <path d="M 314.609296 357.327691 
L 312.625979 358.391055 
L 309.3551 352.295138 
L 311.338417 351.231774 
L 314.609296 357.327691 
" clip-path="url(#p51dc3f69fc)" style="fill: #4d59c1"/>
    <path d="M 385.149412 351.473926 
L 382.324814 353.851228 
L 381.016462 352.66363 
L 382.740604 351.027524 
L 383.098183 350.907501 
L 383.454376 350.66956 
L 383.900657 350.046281 
L 385.149412 351.473926 
" clip-path="url(#p51dc3f69fc)" style="fill: #4d59c1"/>
    <path d="M 380.510585 345.88337 
L 382.38441 347.696352 
L 380.778076 348.886057 
L 379.261829 346.953051 
L 380.510585 345.88337 
" clip-path="url(#p51dc3f69fc)" style="fill: #4d59c1"/>
    <path d="M 374.413721 345.316944 
L 376.689477 342.996495 
L 377.803793 344.42414 
L 375.514178 346.44769 
L 374.413721 345.316944 
" clip-path="url(#p51dc3f69fc)" style="fill: #4d59c1"/>
    <path d="M 379.112145 341.242471 
L 380.748971 340.261229 
L 381.878533 341.808897 
L 381.432252 342.223714 
L 380.658883 342.790139 
L 379.112145 341.242471 
" clip-path="url(#p51dc3f69fc)" style="fill: #4d59c1"/>
    <path d="M 390.443802 360.871535 
L 389.075853 362.029654 
L 388.064098 360.989453 
L 389.610836 359.74079 
L 390.443802 360.871535 
" clip-path="url(#p51dc3f69fc)" style="fill: #4d59c1"/>
    <path d="M 392.431277 358.570037 
L 393.230979 359.307022 
L 392.431277 359.957674 
L 391.905996 359.117511 
L 392.431277 358.570037 
" clip-path="url(#p51dc3f69fc)" style="fill: #4d59c1"/>
    <path d="M 390.392521 359.075398 
L 391.333592 358.15522 
L 391.779873 358.885888 
L 390.7501 359.475475 
L 390.392521 359.075398 
" clip-path="url(#p51dc3f69fc)" style="fill: #4d59c1"/>
    <path d="M 388.808362 358.759547 
L 387.440414 360.067169 
L 385.922781 358.610045 
L 387.617817 357.420341 
L 388.808362 358.759547 
" clip-path="url(#p51dc3f69fc)" style="fill: #4d59c1"/>
    <path d="M 388.836081 356.468577 
L 389.886643 357.582477 
L 389.256029 358.401583 
L 388.01559 357.224513 
L 388.836081 356.468577 
" clip-path="url(#p51dc3f69fc)" style="fill: #4d59c1"/>
    <path d="M 385.626184 354.714554 
L 386.786238 356.022175 
L 384.912412 357.123441 
L 383.721867 355.636837 
L 385.626184 354.714554 
" clip-path="url(#p51dc3f69fc)" style="fill: #4d59c1"/>
    <path d="M 680.397551 262.47564 
L 680.721867 262.981001 
L 679.389954 263.831692 
L 679.067024 263.324226 
L 680.397551 262.47564 
" clip-path="url(#p51dc3f69fc)" style="fill: #4d59c1"/>
    <path d="M 677.963795 259.574026 
L 678.369883 260.21415 
L 677.111427 261.010093 
L 676.705339 260.372075 
L 677.963795 259.574026 
" clip-path="url(#p51dc3f69fc)" style="fill: #4d59c1"/>
    <path d="M 681.973395 247.969674 
L 680.990745 248.769829 
L 679.901376 247.432728 
L 680.885411 246.632573 
L 681.973395 247.969674 
" clip-path="url(#p51dc3f69fc)" style="fill: #4d59c1"/>
    <path d="M 684.300431 243.880461 
L 685.892906 245.828206 
L 684.116098 247.281119 
L 682.523623 245.335479 
L 684.300431 243.880461 
" clip-path="url(#p51dc3f69fc)" style="fill: #4d59c1"/>
    <path d="M 677.730953 238.016167 
L 679.119691 240.094465 
L 677.613146 241.100975 
L 676.224408 239.022678 
L 677.730953 238.016167 
" clip-path="url(#p51dc3f69fc)" style="fill: #4d59c1"/>
   </g>
   <g id="LineCollection_1">
    <path d="M 377.056758 529.710544 
L 377.93335 532.550939 
" clip-path="url(#p51dc3f69fc)" style="fill: none; stroke: #4d59c1; stroke-width: 0.2"/>
    <path d="M 500.669465 524.483632 
L 502.575366 522.456508 
L 515.055988 521.178365 
L 521.791782 520.965693 
L 525.337082 519.264311 
L 527.677979 514.511811 
L 527.625312 508.327456 
" clip-path="url(#p51dc3f69fc)" style="fill: none; stroke: #4d59c1; stroke-width: 0.2"/>
    <path d="M 517.71427 504.168756 
L 508.352071 501.675642 
L 467.833361 482.13291 
L 441.210343 479.945118 
L 437.606832 479.955647 
L 407.173795 484.158566 
L 398.453298 486.691688 
L 391.512381 489.528026 
L 389.734187 491.395756 
" clip-path="url(#p51dc3f69fc)" style="fill: none; stroke: #4d59c1; stroke-width: 0.2"/>
    <path d="M 467.833361 482.13291 
L 466.739834 477.635197 
L 466.211781 464.586355 
" clip-path="url(#p51dc3f69fc)" style="fill: none; stroke: #4d59c1; stroke-width: 0.2"/>
    <path d="M 441.210343 479.945118 
L 445.505451 475.081018 
L 449.922525 468.151256 
L 451.341754 462.680723 
" clip-path="url(#p51dc3f69fc)" style="fill: none; stroke: #4d59c1; stroke-width: 0.2"/>
    <path d="M 468.226975 430.485015 
L 470.53045 434.591073 
L 474.139505 446.422838 
L 480.401299 462.887078 
L 487.207777 464.750597 
L 506.005631 475.978034 
L 517.71427 504.168756 
L 521.820887 506.484994 
L 527.625312 508.327456 
" clip-path="url(#p51dc3f69fc)" style="fill: none; stroke: #4d59c1; stroke-width: 0.2"/>
    <path d="M 474.139505 446.422838 
L 461.710164 445.584781 
L 452.147 450.366759 
L 440.765448 459.113716 
" clip-path="url(#p51dc3f69fc)" style="fill: none; stroke: #4d59c1; stroke-width: 0.2"/>
    <path d="M 456.234213 414.452437 
L 462.487691 422.81195 
L 468.226975 430.485015 
" clip-path="url(#p51dc3f69fc)" style="fill: none; stroke: #4d59c1; stroke-width: 0.2"/>
    <path d="M 486.804461 414.2903 
L 487.130163 414.679849 
L 487.46418 415.082032 
L 487.798198 415.48211 
" clip-path="url(#p51dc3f69fc)" style="fill: none; stroke: #4d59c1; stroke-width: 0.2"/>
    <path d="M 420.765962 421.344297 
L 415.294169 413.016369 
L 413.212448 408.674476 
L 411.24992 405.463328 
L 409.406586 402.252179 
L 408.75241 399.097884 
L 408.75241 398.028204 
L 413.866624 398.859944 
L 417.307977 399.329508 
L 419.993979 399.693789 
L 424.57321 400.76347 
L 427.844089 400.76347 
L 432.067127 399.752748 
L 434.548006 398.15665 
" clip-path="url(#p51dc3f69fc)" style="fill: none; stroke: #4d59c1; stroke-width: 0.2"/>
    <path d="M 616.740142 312.213692 
L 628.913079 325.401509 
L 634.824224 333.245133 
" clip-path="url(#p51dc3f69fc)" style="fill: none; stroke: #4d59c1; stroke-width: 0.2"/>
    <path d="M 607.599697 319.764628 
L 616.740142 312.213692 
L 628.053781 302.866619 
L 648.882075 287.469954 
L 662.740347 280.462281 
L 671.36937 274.058936 
L 673.767091 270.163445 
L 675.384513 268.860035 
L 675.98325 268.37573 
L 678.259006 268.266235 
L 679.510533 269.114821 
L 680.495955 270.786723 
L 682.107833 273.854686 
" clip-path="url(#p51dc3f69fc)" style="fill: none; stroke: #4d59c1; stroke-width: 0.2"/>
    <path d="M 645.579318 272.473366 
L 643.212089 276.000365 
L 641.500421 278.550332 
L 624.204954 293.685894 
L 610.023751 305.886151 
L 603.621975 310.484937 
L 599.979657 311.156646 
" clip-path="url(#p51dc3f69fc)" style="fill: none; stroke: #4d59c1; stroke-width: 0.2"/>
    <path d="M 643.212089 276.000365 
L 645.608424 279.438925 
L 656.890185 272.648136 
L 671.320861 264.054894 
" clip-path="url(#p51dc3f69fc)" style="fill: none; stroke: #4d59c1; stroke-width: 0.2"/>
    <path d="M 673.826688 266.514317 
L 675.384513 268.860035 
" clip-path="url(#p51dc3f69fc)" style="fill: none; stroke: #4d59c1; stroke-width: 0.2"/>
    <path d="M 626.059376 263.353705 
L 626.895113 268.601037 
" clip-path="url(#p51dc3f69fc)" style="fill: none; stroke: #4d59c1; stroke-width: 0.2"/>
    <path d="M 667.814368 256.379723 
L 672.169072 263.065228 
L 671.320861 264.054894 
" clip-path="url(#p51dc3f69fc)" style="fill: none; stroke: #4d59c1; stroke-width: 0.2"/>
    <path d="M 527.625312 508.327456 
L 531.795676 509.103112 
" clip-path="url(#p51dc3f69fc)" style="fill: none; stroke: #4d59c1; stroke-width: 0.2"/>
    <path d="M 545.498727 456.72378 
L 551.779924 458.418845 
L 558.682034 458.020873 
L 579.064047 453.278902 
" clip-path="url(#p51dc3f69fc)" style="fill: none; stroke: #4d59c1; stroke-width: 0.2"/>
    <path d="M 485.756671 420.474655 
L 490.660218 425.717776 
L 497.990591 435.803939 
L 505.653596 443.95078 
L 522.674642 430.089149 
L 518.437744 416.768675 
L 515.115584 410.100015 
L 508.95358 401.826834 
" clip-path="url(#p51dc3f69fc)" style="fill: none; stroke: #4d59c1; stroke-width: 0.2"/>
    <path d="M 506.005631 475.978034 
L 522.577624 472.446824 
L 545.498727 456.72378 
L 544.863955 446.229116 
L 545.795324 432.773879 
L 551.427889 413.121653 
L 556.57398 405.42332 
L 560.099877 392.454493 
L 561.720071 379.692022 
L 552.640609 366.790576 
" clip-path="url(#p51dc3f69fc)" style="fill: none; stroke: #4d59c1; stroke-width: 0.2"/>
    <path d="M 470.53045 434.591073 
L 474.336312 429.331107 
L 485.756671 420.474655 
L 508.95358 401.826834 
L 526.80482 387.744107 
L 536.151774 380.020506 
L 552.640609 366.790576 
L 589.923089 335.201301 
L 600.861131 325.489947 
L 605.890801 321.177533 
" clip-path="url(#p51dc3f69fc)" style="fill: none; stroke: #4d59c1; stroke-width: 0.2"/>
    <path d="M 486.054653 386.817612 
L 492.080833 390.597291 
L 493.00943 391.043693 
L 493.958816 391.134237 
L 494.942852 390.597291 
L 495.574852 389.706592 
L 502.399348 380.445852 
L 507.36665 374.891092 
L 515.983199 367.327522 
L 525.797223 359.075398 
L 526.838083 358.555297 
L 528.095154 358.212073 
L 529.366085 358.405795 
L 530.55663 359.222795 
L 532.488666 362.568706 
L 533.54893 363.265683 
L 534.943211 363.312008 
L 536.428967 362.791907 
L 546.267938 356.27275 
" clip-path="url(#p51dc3f69fc)" style="fill: none; stroke: #4d59c1; stroke-width: 0.2"/>
    <path d="M 599.001165 312.272651 
L 598.493902 312.853816 
L 597.220199 315.117413 
L 592.198845 319.573012 
L 582.621821 328.429464 
L 564.795529 344.089338 
L 548.321939 358.755336 
L 526.806206 377.005186 
L 511.634038 390.65625 
L 502.281541 398.131382 
L 491.54585 406.71199 
L 477.752718 418.878557 
L 472.05917 423.936378 
L 462.487691 422.81195 
" clip-path="url(#p51dc3f69fc)" style="fill: none; stroke: #4d59c1; stroke-width: 0.2"/>
    <path d="M 560.099877 392.454493 
L 574.566588 390.064556 
L 584.817191 384.796168 
L 591.18016 381.231267 
L 598.230568 379.447764 
L 606.57824 371.991583 
L 609.657856 368.426682 
L 616.505913 365.388199 
L 629.715554 363.240415 
L 632.106345 360.72835 
L 600.861131 325.489947 
" clip-path="url(#p51dc3f69fc)" style="fill: none; stroke: #4d59c1; stroke-width: 0.2"/>
    <path d="M 525.5131 319.760417 
L 533.418649 334.801224 
L 541.473882 347.553167 
L 546.267938 356.27275 
L 548.321939 358.755336 
" clip-path="url(#p51dc3f69fc)" style="fill: none; stroke: #4d59c1; stroke-width: 0.2"/>
    <path d="M 605.890801 321.177533 
L 607.599697 319.764628 
" clip-path="url(#p51dc3f69fc)" style="fill: none; stroke: #4d59c1; stroke-width: 0.2"/>
    <path d="M 472.035609 355.224126 
L 483.716529 336.026724 
L 485.245249 332.442873 
L 487.375479 322.582016 
L 510.220353 303.291965 
L 515.700462 297.968829 
L 517.389954 297.320282 
L 524.242169 298.196241 
" clip-path="url(#p51dc3f69fc)" style="fill: none; stroke: #4d59c1; stroke-width: 0.2"/>
    <path d="M 464.507043 332.013316 
L 469.790344 326.555417 
L 475.533787 319.358234 
" clip-path="url(#p51dc3f69fc)" style="fill: none; stroke: #4d59c1; stroke-width: 0.2"/>
    <path d="M 449.678595 320.358427 
L 439.276921 326.144811 
L 428.747739 330.823612 
" clip-path="url(#p51dc3f69fc)" style="fill: none; stroke: #4d59c1; stroke-width: 0.2"/>
    <path d="M 470.499959 304.214249 
L 462.274252 311.771502 
L 460.855023 313.64976 
L 460.891058 314.925796 
L 462.841112 318.612826 
L 469.790344 326.555417 
" clip-path="url(#p51dc3f69fc)" style="fill: none; stroke: #4d59c1; stroke-width: 0.2"/>
    <path d="M 455.570335 298.478401 
L 466.170202 301.384227 
L 468.501396 302.462331 
L 469.179134 302.776075 
L 470.499959 304.214249 
L 487.375479 322.582016 
" clip-path="url(#p51dc3f69fc)" style="fill: none; stroke: #4d59c1; stroke-width: 0.2"/>
    <path d="M 468.501396 302.462331 
L 472.107679 301.030474 
L 476.221226 298.627904 
L 481.760931 294.839802 
L 486.891777 290.807442 
L 487.624953 288.731251 
L 488.475936 287.078299 
" clip-path="url(#p51dc3f69fc)" style="fill: none; stroke: #4d59c1; stroke-width: 0.2"/>
    <path d="M 369.813701 347.247845 
L 372.824018 345.127434 
L 378.054653 340.793963 
L 385.667763 334.057922 
L 400.456019 326.372223 
L 411.941517 321.617619 
L 443.332257 307.777044 
L 452.117894 301.904328 
L 455.570335 298.478401 
L 460.74276 289.85989 
L 465.371885 283.066996 
L 468.840958 279.615801 
L 469.845783 274.107366 
L 472.707802 256.501852 
L 475.043155 247.561174 
L 477.388209 241.029382 
L 478.830999 237.52344 
" clip-path="url(#p51dc3f69fc)" style="fill: none; stroke: #4d59c1; stroke-width: 0.2"/>
    <path d="M 474.052189 284.934726 
L 475.310646 289.840939 
L 476.247559 295.583104 
L 476.221226 298.627904 
" clip-path="url(#p51dc3f69fc)" style="fill: none; stroke: #4d59c1; stroke-width: 0.2"/>
    <path d="M 356.872938 307.6865 
L 375.910564 296.40221 
L 398.993825 286.042309 
L 440.272045 268.293609 
" clip-path="url(#p51dc3f69fc)" style="fill: none; stroke: #4d59c1; stroke-width: 0.2"/>
    <path d="M 492.718377 285.903335 
L 493.013588 271.548976 
L 494.046132 260.816372 
L 494.977501 251.717768 
" clip-path="url(#p51dc3f69fc)" style="fill: none; stroke: #4d59c1; stroke-width: 0.2"/>
    <path d="M 569.0449 311.0282 
L 570.993568 312.300025 
L 573.319219 315.100567 
L 576.494466 319.62776 
L 582.621821 328.429464 
" clip-path="url(#p51dc3f69fc)" style="fill: none; stroke: #4d59c1; stroke-width: 0.2"/>
    <path d="M 576.450115 303.498321 
L 569.0449 311.0282 
L 568.817602 311.257718 
L 553.412592 322.253531 
" clip-path="url(#p51dc3f69fc)" style="fill: none; stroke: #4d59c1; stroke-width: 0.2"/>
    <path d="M 599.979657 311.156646 
L 599.001165 312.272651 
" clip-path="url(#p51dc3f69fc)" style="fill: none; stroke: #4d59c1; stroke-width: 0.2"/>
    <path d="M 576.450115 303.498321 
L 577.457713 301.702183 
" clip-path="url(#p51dc3f69fc)" style="fill: none; stroke: #4d59c1; stroke-width: 0.2"/>
    <path d="M 556.540717 289.04289 
L 564.191248 294.368132 
L 571.848709 298.880584 
L 578.174257 301.045214 
" clip-path="url(#p51dc3f69fc)" style="fill: none; stroke: #4d59c1; stroke-width: 0.2"/>
    <path d="M 552.92196 291.121187 
L 563.089405 296.410632 
" clip-path="url(#p51dc3f69fc)" style="fill: none; stroke: #4d59c1; stroke-width: 0.2"/>
    <path d="M 577.457713 301.702183 
L 578.174257 301.045214 
L 582.228207 297.332916 
L 583.641892 296.998115 
L 584.831051 297.033911 
L 586.132473 297.554012 
L 588.176772 298.81952 
L 589.715194 299.190118 
L 591.559915 298.893218 
L 593.641635 297.777213 
L 599.490411 293.538497 
L 634.055013 272.532325 
" clip-path="url(#p51dc3f69fc)" style="fill: none; stroke: #4d59c1; stroke-width: 0.2"/>
    <path d="M 564.724845 286.433964 
L 560.482403 280.342258 
L 557.323787 276.663651 
L 549.814625 267.704021 
L 542.717094 256.080718 
L 541.225794 256.148099 
L 539.254951 255.813298 
L 531.654314 252.705327 
L 529.199769 251.743036 
" clip-path="url(#p51dc3f69fc)" style="fill: none; stroke: #4d59c1; stroke-width: 0.2"/>
    <path d="M 531.249612 314.294095 
L 529.148488 309.867975 
L 524.242169 298.196241 
L 521.412027 288.221678 
L 518.43913 277.96285 
L 518.475166 249.397319 
L 517.769709 243.840453 
L 515.69076 238.426773 
L 510.706827 230.981121 
L 508.029141 227.561511 
L 506.920369 225.605343 
L 505.502526 223.101701 
L 499.218557 209.27376 
" clip-path="url(#p51dc3f69fc)" style="fill: none; stroke: #4d59c1; stroke-width: 0.2"/>
    <path d="M 557.323787 276.663651 
L 573.790447 266.145825 
L 590.616072 256.501852 
L 650.262497 228.673306 
" clip-path="url(#p51dc3f69fc)" style="fill: none; stroke: #4d59c1; stroke-width: 0.2"/>
    <path d="M 656.274816 241.16204 
L 640.857333 249.687901 
L 635.80133 252.347363 
L 631.657292 254.909965 
L 630.314291 256.407097 
L 628.605395 258.839147 
L 626.059376 263.353705 
L 619.507915 269.20747 
" clip-path="url(#p51dc3f69fc)" style="fill: none; stroke: #4d59c1; stroke-width: 0.2"/>
    <path d="M 677.636708 246.329356 
L 684.369729 255.855411 
" clip-path="url(#p51dc3f69fc)" style="fill: none; stroke: #4d59c1; stroke-width: 0.2"/>
    <path d="M 556.540717 289.04289 
L 564.724845 286.433964 
L 615.616123 269.856017 
L 619.507915 269.20747 
L 622.753847 268.666313 
L 626.895113 268.601037 
L 634.055013 272.532325 
L 645.579318 272.473366 
L 661.415364 263.612703 
L 667.088122 257.123025 
L 667.814368 256.379723 
L 677.636708 246.329356 
L 688.702259 235.007164 
L 694.351455 232.031851 
L 713.742503 221.981484 
L 724.449089 217.820678 
L 760.136323 206.222643 
L 790.324481 196.569172 
" clip-path="url(#p51dc3f69fc)" style="fill: none; stroke: #4d59c1; stroke-width: 0.2"/>
    <path d="M 667.088122 257.123025 
L 661.556732 249.487862 
L 658.880432 245.472348 
L 656.274816 241.16204 
L 650.262497 228.673306 
L 642.530194 215.738169 
L 633.75703 199.682429 
L 629.296992 195.96592 
L 624.389287 194.180311 
L 621.861285 193.289612 
" clip-path="url(#p51dc3f69fc)" style="fill: none; stroke: #4d59c1; stroke-width: 0.2"/>
    <path d="M 796.961705 211.956013 
L 798.377891 215.666577 
L 798.351558 217.525884 
L 797.470084 219.58523 
L 796.095206 220.91812 
L 764.596361 231.109567 
L 755.077547 232.697243 
L 739.521467 233.067841 
L 733.225024 233.870101 
" clip-path="url(#p51dc3f69fc)" style="fill: none; stroke: #4d59c1; stroke-width: 0.2"/>
    <path d="M 688.702259 235.007164 
L 689.068154 233.547934 
L 688.80482 231.164314 
L 687.432714 227.10037 
L 684.455659 219.604181 
L 681.93043 214.518986 
L 676.110759 202.301883 
L 672.151055 194.571966 
" clip-path="url(#p51dc3f69fc)" style="fill: none; stroke: #4d59c1; stroke-width: 0.2"/>
    <path d="M 757.913233 177.537088 
L 752.262651 173.671076 
L 740.813187 166.238058 
L 738.075905 164.315581 
L 735.310903 162.374152 
L 719.251717 160.441146 
L 700.06995 160.144247 
L 687.133345 162.374152 
L 670.329896 168.320567 
L 657.393291 173.820579 
L 632.344731 187.722218 
L 621.861285 193.289612 
L 617.920985 195.458453 
L 605.505503 199.383424 
L 595.393496 208.305151 
L 584.761752 217.165814 
L 578.21445 221.766705 
L 573.460587 227.113004 
L 564.162143 239.384853 
L 561.937667 241.844277 
L 559.404122 243.76886 
L 546.398219 253.019072 
L 544.198691 255.366895 
L 542.717094 256.080718 
" clip-path="url(#p51dc3f69fc)" style="fill: none; stroke: #4d59c1; stroke-width: 0.2"/>
    <path d="M 757.020671 189.126701 
L 720.740244 203.925356 
L 684.455659 219.604181 
" clip-path="url(#p51dc3f69fc)" style="fill: none; stroke: #4d59c1; stroke-width: 0.2"/>
    <path d="M 655.684395 206.820653 
L 654.290113 202.510345 
L 654.19864 201.69545 
L 654.477219 201.025847 
L 654.938745 200.594184 
L 659.519362 198.189508 
L 666.953683 195.68376 
L 669.923808 194.875182 
L 672.151055 194.571966 
L 677.560479 193.255921 
L 682.994851 191.371346 
L 685.758467 189.779459 
L 686.917135 189.048791 
L 689.233084 188.423407 
" clip-path="url(#p51dc3f69fc)" style="fill: none; stroke: #4d59c1; stroke-width: 0.2"/>
    <path d="M 792.703279 195.962161 
L 805.297882 193.074989 
" clip-path="url(#p51dc3f69fc)" style="fill: none; stroke: #4d59c1; stroke-width: 0.2"/>
    <path d="M 529.199769 251.743036 
L 525.779205 250.980783 
" clip-path="url(#p51dc3f69fc)" style="fill: none; stroke: #4d59c1; stroke-width: 0.2"/>
    <path d="M 525.779205 250.980783 
L 518.475166 249.397319 
" clip-path="url(#p51dc3f69fc)" style="fill: none; stroke: #4d59c1; stroke-width: 0.2"/>
    <path d="M 549.814625 267.704021 
L 569.812725 250.83128 
L 578.21445 243.844664 
L 582.113172 241.947455 
L 642.530194 215.738169 
" clip-path="url(#p51dc3f69fc)" style="fill: none; stroke: #4d59c1; stroke-width: 0.2"/>
    <path d="M 531.654314 252.705327 
L 531.28149 249.52787 
L 530.617612 245.135441 
L 530.668893 242.391751 
L 533.683368 231.438052 
L 536.356896 225.182103 
L 540.226513 218.279714 
L 546.245763 209.27376 
L 546.726693 208.014569 
L 546.546517 206.536388 
L 544.683779 203.403149 
L 537.472599 193.218019 
L 529.590611 182.215889 
L 526.46803 172.329764 
L 520.152184 159.704161 
L 514.49883 151.44572 
L 508.996545 142.972501 
L 506.839983 140.892098 
L 504.869139 140.186698 
L 502.601699 140.260397 
L 496.24566 140.037195 
L 493.680237 140.371997 
L 491.821657 141.410093 
L 488.904199 144.737053 
L 485.744197 147.821861 
L 482.940388 149.428488 
L 478.402736 151.110919 
" clip-path="url(#p51dc3f69fc)" style="fill: none; stroke: #4d59c1; stroke-width: 0.2"/>
    <path d="M 546.398219 253.019072 
L 546.173692 242.922381 
L 546.321991 234.524965 
L 546.506324 230.199917 
L 547.508377 226.371807 
L 550.783415 220.398019 
L 557.546928 211.467869 
L 565.690863 200.552071 
L 568.591689 195.980659 
L 569.520286 191.482946 
L 569.261111 187.802234 
L 566.318705 181.398889 
L 560.037508 170.582057 
L 552.639223 155.758134 
L 551.304538 150.860344 
L 548.70308 144.987628 
L 544.608937 137.39879 
L 541.561198 133.309577 
L 539.181495 125.653358 
L 536.87615 119.235116 
" clip-path="url(#p51dc3f69fc)" style="fill: none; stroke: #4d59c1; stroke-width: 0.2"/>
    <path d="M 532.707631 112.845879 
L 532.49421 112.72875 
L 530.185191 112.423427 
L 519.036482 117.708661 
L 503.869858 126.851484 
L 501.413926 128.365462 
L 499.628802 131.302873 
L 499.034223 133.755979 
L 499.070258 135.912186 
L 500.295452 138.325285 
L 502.601699 140.260397 
" clip-path="url(#p51dc3f69fc)" style="fill: none; stroke: #4d59c1; stroke-width: 0.2"/>
    <path d="M 633.75703 199.682429 
L 633.34817 196.894521 
L 633.087608 192.411547 
L 632.344731 187.722218 
" clip-path="url(#p51dc3f69fc)" style="fill: none; stroke: #4d59c1; stroke-width: 0.2"/>
    <path d="M 676.110759 202.301883 
L 732.374041 178.821547 
L 733.660218 178.191952 
L 733.919393 177.87189 
L 734.099569 177.52656 
L 734.264499 176.644284 
L 734.326867 174.45228 
L 734.491797 169.638717 
L 735.143201 167.408811 
L 735.926272 165.699006 
L 736.836851 164.694601 
L 738.075905 164.315581 
" clip-path="url(#p51dc3f69fc)" style="fill: none; stroke: #4d59c1; stroke-width: 0.2"/>
    <path d="M 760.136323 206.222643 
L 759.102392 200.573128 
L 757.020671 189.126701 
L 757.913233 177.537088 
L 764.008711 164.231354 
L 764.606062 162.148845 
L 764.017027 154.42735 
L 763.640044 144.532803 
L 764.306694 141.559595 
L 764.978887 139.03279 
L 778.813697 119.770882 
" clip-path="url(#p51dc3f69fc)" style="fill: none; stroke: #4d59c1; stroke-width: 0.2"/>
    <path d="M 734.247867 160.081077 
L 743.560171 158.232298 
L 764.017027 154.42735 
" clip-path="url(#p51dc3f69fc)" style="fill: none; stroke: #4d59c1; stroke-width: 0.2"/>
    <path d="M 719.955788 137.000818 
L 730.034531 129.294063 
L 731.669971 128.700263 
L 733.245814 128.87714 
L 734.719096 130.113169 
L 738.509712 144.235903 
L 743.560171 158.232298 
" clip-path="url(#p51dc3f69fc)" style="fill: none; stroke: #4d59c1; stroke-width: 0.2"/>
    <path d="M 735.310903 162.374152 
L 734.247867 160.081077 
L 727.061634 144.589656 
L 719.955788 137.000818 
L 711.885309 128.382307 
L 696.725615 113.760528 
L 695.070772 112.951951 
L 693.083297 112.421322 
L 647.731723 108.298418 
L 642.722843 107.355078 
L 637.212243 106.314876 
L 626.520902 102.217241 
L 621.578548 102.141436 
L 616.219019 104.223945 
L 610.823454 106.388575 
" clip-path="url(#p51dc3f69fc)" style="fill: none; stroke: #4d59c1; stroke-width: 0.2"/>
    <path d="M 778.486576 117.529532 
L 778.044387 117.557053 
L 759.741322 120.723982 
" clip-path="url(#p51dc3f69fc)" style="fill: none; stroke: #4d59c1; stroke-width: 0.2"/>
    <path d="M 761.337955 127.919059 
L 759.741322 120.723982 
L 756.460741 105.925327 
L 754.866881 101.198096 
L 751.582142 95.73388 
L 742.314188 79.825536 
" clip-path="url(#p51dc3f69fc)" style="fill: none; stroke: #4d59c1; stroke-width: 0.2"/>
    <path d="M 118.896952 563.832593 
L 121.619101 559.088864 
L 121.537329 557.214817 
" clip-path="url(#p51dc3f69fc)" style="fill: none; stroke: #4d59c1; stroke-width: 0.2"/>
    <path d="M 56.796094 566.839839 
L 49.802282 567.566382 
" clip-path="url(#p51dc3f69fc)" style="fill: none; stroke: #4d59c1; stroke-width: 0.2"/>
    <path d="M 121.40982 548.952164 
L 121.527627 549.316446 
L 121.674539 549.775482 
L 121.858873 550.346119 
" clip-path="url(#p51dc3f69fc)" style="fill: none; stroke: #4d59c1; stroke-width: 0.2"/>
    <path d="M 122.514435 543.784848 
L 122.948242 545.338833 
L 123.641225 547.58769 
" clip-path="url(#p51dc3f69fc)" style="fill: none; stroke: #4d59c1; stroke-width: 0.2"/>
    <path d="M 56.796094 566.839839 
L 61.224254 564.407789 
L 66.540819 561.857821 
L 71.056296 559.811109 
L 75.099158 559.128872 
L 78.874529 558.101304 
L 84.252076 556.637863 
L 88.441851 555.195479 
L 91.923397 553.8668 
L 93.621205 553.713086 
L 95.102803 553.39513 
L 97.356383 552.487586 
L 100.024367 551.676903 
L 104.72002 550.274526 
L 109.369935 548.568932 
L 117.01908 545.839983 
L 120.715451 544.65449 
L 122.514435 543.784848 
L 123.653698 542.951002 
L 125.084015 542.420373 
L 128.285596 541.373855 
L 142.023289 537.438356 
L 152.27805 534.513579 
L 161.728951 531.089758 
L 167.975499 529.270459 
L 175.620487 526.954221 
L 176.711242 526.621525 
L 192.149515 521.74058 
L 211.32158 516.006838 
L 233.559401 509.561379 
L 240.75395 507.329368 
L 243.955531 506.516579 
L 248.306078 505.341615 
L 249.50078 505.244754 
L 251.030887 506.579749 
" clip-path="url(#p51dc3f69fc)" style="fill: none; stroke: #4d59c1; stroke-width: 0.2"/>
    <path d="M 137.078163 510.150967 
L 151.931559 511.473328 
" clip-path="url(#p51dc3f69fc)" style="fill: none; stroke: #4d59c1; stroke-width: 0.2"/>
    <path d="M 104.72002 550.274526 
L 104.13237 548.596306 
L 103.209317 544.397598 
L 103.040229 541.411757 
L 103.367317 537.625761 
L 103.831615 535.492716 
L 103.920317 533.772383 
L 103.652826 531.835166 
L 103.061018 528.948291 
L 102.358334 518.965305 
L 101.589123 511.443849 
L 100.625876 499.814229 
L 100.527473 489.595408 
L 99.633525 476.847676 
L 99.912104 472.66792 
L 100.348683 469.528364 
" clip-path="url(#p51dc3f69fc)" style="fill: none; stroke: #4d59c1; stroke-width: 0.2"/>
    <path d="M 85.726744 464.923262 
L 85.094744 469.842109 
L 84.321375 483.019398 
L 84.028936 490.860916 
L 85.789112 518.468367 
L 86.935306 529.405222 
L 88.669149 542.289822 
L 90.749484 551.253663 
L 91.923397 553.8668 
" clip-path="url(#p51dc3f69fc)" style="fill: none; stroke: #4d59c1; stroke-width: 0.2"/>
    <path d="M 71.056296 559.811109 
L 69.860207 554.829092 
L 69.357102 547.838265 
L 67.041153 536.600299 
L 62.639325 521.692149 
L 61.712114 512.422986 
L 59.974113 501.494554 
L 59.70385 490.797746 
L 63.34201 456.78695 
" clip-path="url(#p51dc3f69fc)" style="fill: none; stroke: #4d59c1; stroke-width: 0.2"/>
    <path d="M 139.263831 523.250346 
L 137.078163 510.150967 
L 134.080319 492.189594 
" clip-path="url(#p51dc3f69fc)" style="fill: none; stroke: #4d59c1; stroke-width: 0.2"/>
    <path d="M 253.982994 512.700934 
L 254.748047 519.476983 
L 254.92545 527.952309 
L 255.847118 533.624986 
L 257.655803 538.767034 
L 258.364896 541.982118 
" clip-path="url(#p51dc3f69fc)" style="fill: none; stroke: #4d59c1; stroke-width: 0.2"/>
    <path d="M 355.457867 499.873187 
L 356.174411 501.766186 
L 355.58399 513.859053 
L 355.58399 524.231588 
L 355.716643 535.585495 
" clip-path="url(#p51dc3f69fc)" style="fill: none; stroke: #4d59c1; stroke-width: 0.2"/>
    <path d="M 305.877712 537.063547 
L 308.110503 523.298776 
L 311.375838 518.337815 
L 315.686192 514.101206 
L 329.0372 506.779788 
L 341.932226 504.358266 
L 355.457867 499.873187 
" clip-path="url(#p51dc3f69fc)" style="fill: none; stroke: #4d59c1; stroke-width: 0.2"/>
    <path d="M 251.804255 508.978108 
L 252.139659 511.782862 
L 251.985817 513.261043 
" clip-path="url(#p51dc3f69fc)" style="fill: none; stroke: #4d59c1; stroke-width: 0.2"/>
    <path d="M 480.401299 462.887078 
L 466.211781 464.586355 
L 459.607654 464.706378 
L 451.341754 462.680723 
L 440.765448 459.113716 
L 386.550624 472.381548 
L 375.400529 474.032394 
L 355.463411 479.220767 
L 327.523726 487.573964 
L 315.305051 492.686533 
L 265.626492 509.428722 
L 253.982994 512.700934 
L 251.985817 513.261043 
L 243.912566 515.49516 
L 228.924732 521.403672 
L 164.218146 542.039247 
L 151.589225 546.966517 
L 121.537329 557.214817 
" clip-path="url(#p51dc3f69fc)" style="fill: none; stroke: #4d59c1; stroke-width: 0.2"/>
    <path d="M 251.030887 506.579749 
L 251.804255 508.978108 
" clip-path="url(#p51dc3f69fc)" style="fill: none; stroke: #4d59c1; stroke-width: 0.2"/>
    <path d="M 377.056758 529.710544 
L 380.747585 511.328037 
L 382.385796 506.836641 
L 384.109938 501.014461 
L 387.063431 496.419887 
L 389.734187 491.395756 
L 386.550624 472.381548 
" clip-path="url(#p51dc3f69fc)" style="fill: none; stroke: #4d59c1; stroke-width: 0.2"/>
    <path d="M 327.523726 487.573964 
L 329.0372 506.779788 
" clip-path="url(#p51dc3f69fc)" style="fill: none; stroke: #4d59c1; stroke-width: 0.2"/>
    <path d="M 355.457867 499.873187 
L 360.753642 495.01751 
L 365.432663 491.602112 
L 369.127647 489.450117 
L 371.14007 488.466768 
L 372.12272 486.594827 
L 372.12272 481.402242 
L 373.292475 477.70679 
L 375.400529 474.032394 
" clip-path="url(#p51dc3f69fc)" style="fill: none; stroke: #4d59c1; stroke-width: 0.2"/>
    <path d="M 292.819142 485.495667 
L 294.683266 454.887635 
L 297.622899 441.482934 
" clip-path="url(#p51dc3f69fc)" style="fill: none; stroke: #4d59c1; stroke-width: 0.2"/>
    <path d="M 175.620487 526.954221 
L 170.517361 497.198985 
L 170.105729 494.802732 
L 168.388517 483.156266 
L 167.749587 477.835236 
" clip-path="url(#p51dc3f69fc)" style="fill: none; stroke: #4d59c1; stroke-width: 0.2"/>
    <path d="M 116.840291 492.745491 
L 122.374452 492.61494 
L 127.983456 491.985344 
L 133.363775 492.099051 
L 134.080319 492.189594 
L 143.780694 493.4172 
L 170.517361 497.198985 
L 185.847528 499.369932 
L 189.510636 499.426785 
L 195.805693 498.338153 
L 200.613608 497.365333 
L 208.283543 496.735738 
L 215.551548 496.449367 
" clip-path="url(#p51dc3f69fc)" style="fill: none; stroke: #4d59c1; stroke-width: 0.2"/>
    <path d="M 45.686199 452.212863 
L 63.34201 456.78695 
" clip-path="url(#p51dc3f69fc)" style="fill: none; stroke: #4d59c1; stroke-width: 0.2"/>
    <path d="M 63.34201 456.78695 
L 64.773713 457.309156 
L 78.794143 462.430148 
L 85.726744 464.923262 
L 93.179082 467.603781 
L 100.348683 469.528364 
L 101.410333 469.814736 
L 109.351917 471.598239 
L 116.21522 472.566847 
L 128.03335 474.036606 
L 146.583117 475.944343 
L 167.749587 477.835236 
L 183.131035 479.27762 
L 239.112966 482.193975 
L 256.887978 482.737238 
L 274.81406 482.943594 
L 280.507607 483.836398 
L 287.124208 484.781844 
L 292.819142 485.495667 
L 298.274303 485.316685 
L 303.069745 484.695512 
L 309.841574 483.596351 
L 316.733982 481.897075 
" clip-path="url(#p51dc3f69fc)" style="fill: none; stroke: #4d59c1; stroke-width: 0.2"/>
    <path d="M 123.653698 542.951002 
L 122.902505 540.085184 
L 119.52352 518.47679 
L 117.289343 498.571883 
L 116.840291 492.745491 
L 115.64836 477.321452 
L 116.21522 472.566847 
L 117.26301 468.027021 
L 119.515205 461.015137 
L 119.965643 459.61276 
L 122.881716 452.152368 
L 126.50463 446.16384 
L 130.589071 440.236377 
L 133.876582 436.170326 
L 135.255618 434.464733 
L 140.353201 428.661504 
L 158.868318 406.000274 
L 168.448114 395.099215 
L 185.423423 373.282359 
" clip-path="url(#p51dc3f69fc)" style="fill: none; stroke: #4d59c1; stroke-width: 0.2"/>
    <path d="M 67.534191 447.512227 
L 66.136117 449.535019 
L 64.773713 457.309156 
" clip-path="url(#p51dc3f69fc)" style="fill: none; stroke: #4d59c1; stroke-width: 0.2"/>
    <path d="M 183.131035 479.27762 
L 190.321426 471.863553 
L 202.333592 459.301121 
L 220.39827 433.197119 
L 230.835979 417.114005 
L 236.274508 408.733434 
" clip-path="url(#p51dc3f69fc)" style="fill: none; stroke: #4d59c1; stroke-width: 0.2"/>
    <path d="M 217.562584 393.54523 
L 205.907998 410.11686 
L 198.304589 420.548354 
L 191.413567 431.813693 
L 181.193455 447.68624 
L 180.348016 451.267986 
L 181.273841 454.220137 
L 181.100595 457.803989 
L 180.579472 459.90966 
L 180.166454 462.514375 
L 180.579472 464.316829 
L 181.383332 465.706572 
L 186.702669 468.441838 
L 189.068513 470.15796 
L 190.321426 471.863553 
" clip-path="url(#p51dc3f69fc)" style="fill: none; stroke: #4d59c1; stroke-width: 0.2"/>
    <path d="M 119.515205 461.015137 
L 122.312084 461.897413 
L 125.136682 462.541748 
L 127.225332 462.512269 
L 128.975807 462.112191 
L 130.080422 461.467856 
L 131.830897 460.269729 
L 135.453811 455.049771 
L 139.844551 449.922463 
L 143.805641 446.850289 
L 146.814573 444.302427 
L 149.916365 439.66574 
L 153.354946 433.218176 
L 157.377019 426.553727 
L 162.01446 419.615542 
L 164.86955 416.513888 
L 166.988692 414.978854 
L 169.414132 413.44382 
L 171.531887 411.755072 
L 173.896345 409.727311 
L 176.19982 407.731135 
L 178.379945 405.798129 
L 180.989718 403.709304 
L 184.857949 400.209679 
L 187.805898 396.617404 
L 191.213988 392.102846 
L 193.947113 389.616048 
L 197.263729 387.007122 
L 199.596309 385.716346 
L 201.960767 384.796168 
L 204.839418 383.379051 
" clip-path="url(#p51dc3f69fc)" style="fill: none; stroke: #4d59c1; stroke-width: 0.2"/>
    <path d="M 133.876582 436.170326 
L 129.835106 432.350639 
L 117.906098 420.883155 
L 113.606832 416.966608 
L 108.862671 410.643278 
L 105.332616 404.210453 
L 100.57321 395.981492 
L 97.978682 390.668884 
L 96.443032 387.706205 
" clip-path="url(#p51dc3f69fc)" style="fill: none; stroke: #4d59c1; stroke-width: 0.2"/>
    <path d="M 316.733982 481.897075 
L 307.672537 444.910966 
L 303.255464 419.880856 
" clip-path="url(#p51dc3f69fc)" style="fill: none; stroke: #4d59c1; stroke-width: 0.2"/>
    <path d="M 249.888851 447.105075 
L 252.565151 436.993643 
L 256.084118 424.643884 
" clip-path="url(#p51dc3f69fc)" style="fill: none; stroke: #4d59c1; stroke-width: 0.2"/>
    <path d="M 368.114506 443.047447 
L 370.362543 430.828239 
L 371.523982 423.572097 
L 372.787983 418.924882 
L 376.677003 405.440165 
" clip-path="url(#p51dc3f69fc)" style="fill: none; stroke: #4d59c1; stroke-width: 0.2"/>
    <path d="M 230.835979 417.114005 
L 241.528705 415.793749 
L 245.506427 415.463159 
L 250.57629 411.411848 
L 255.446574 407.381594 
L 255.845732 406.985728 
" clip-path="url(#p51dc3f69fc)" style="fill: none; stroke: #4d59c1; stroke-width: 0.2"/>
    <path d="M 313.106909 408.567086 
L 341.354279 421.504328 
L 344.85107 422.48136 
L 346.245352 422.123396 
L 347.732493 421.192689 
L 356.393394 414.465071 
L 358.141096 412.308864 
L 358.587377 410.449556 
L 359.739115 403.460835 
L 360.556835 400.599228 
L 362.499959 397.247 
" clip-path="url(#p51dc3f69fc)" style="fill: none; stroke: #4d59c1; stroke-width: 0.2"/>
    <path d="M 185.423423 373.282359 
L 189.481531 373.728762 
L 193.779411 376.032366 
L 204.839418 383.379051 
L 212.711704 389.864518 
L 217.562584 393.54523 
L 222.67264 397.188041 
L 231.423628 403.66719 
L 236.274508 408.733434 
L 241.528705 415.793749 
L 244.809286 418.023654 
L 256.084118 424.643884 
L 266.160089 428.920501 
L 273.12041 431.596809 
L 297.622899 441.482934 
L 307.672537 444.910966 
L 312.36126 445.53635 
L 344.846912 444.86043 
L 356.329639 444.616172 
L 368.114506 443.047447 
L 391.886592 437.79801 
L 405.764268 433.990957 
L 412.227026 433.571928 
" clip-path="url(#p51dc3f69fc)" style="fill: none; stroke: #4d59c1; stroke-width: 0.2"/>
    <path d="M 341.354279 421.504328 
L 353.663041 392.138642 
" clip-path="url(#p51dc3f69fc)" style="fill: none; stroke: #4d59c1; stroke-width: 0.2"/>
    <path d="M 255.845732 406.985728 
L 257.258031 405.583351 
" clip-path="url(#p51dc3f69fc)" style="fill: none; stroke: #4d59c1; stroke-width: 0.2"/>
    <path d="M 303.255464 419.880856 
L 302.583271 418.394252 
L 301.475884 417.295092 
L 298.307566 414.71354 
L 298.042847 414.279772 
L 297.949987 413.363805 
L 297.679724 412.801591 
L 269.590355 391.323748 
" clip-path="url(#p51dc3f69fc)" style="fill: none; stroke: #4d59c1; stroke-width: 0.2"/>
    <path d="M 316.14356 370.89874 
L 353.663041 392.138642 
L 362.499959 397.247 
L 376.677003 405.440165 
L 408.063585 424.667046 
L 413.962256 428.326702 
L 416.517976 428.996305 
L 418.793732 429.02789 
" clip-path="url(#p51dc3f69fc)" style="fill: none; stroke: #4d59c1; stroke-width: 0.2"/>
    <path d="M 412.845167 385.215196 
L 415.711344 393.566287 
L 417.435486 397.969245 
L 417.307977 399.329508 
L 417.256696 399.872771 
L 418.030065 403.976724 
L 419.338417 410.161079 
L 420.765962 421.344297 
L 422.056296 428.135086 
" clip-path="url(#p51dc3f69fc)" style="fill: none; stroke: #4d59c1; stroke-width: 0.2"/>
    <path d="M 452.557246 386.204862 
L 455.729721 385.356276 
L 457.330512 387.457736 
L 456.030476 391.159505 
L 454.679159 394.10955 
L 456.429634 398.411436 
L 459.731005 404.162023 
L 462.724691 410.18003 
" clip-path="url(#p51dc3f69fc)" style="fill: none; stroke: #4d59c1; stroke-width: 0.2"/>
    <path d="M 408.75241 398.028204 
L 405.243145 396.421577 
L 402.090072 396.779541 
L 391.264293 392.913529 
L 389.376608 392.10074 
" clip-path="url(#p51dc3f69fc)" style="fill: none; stroke: #4d59c1; stroke-width: 0.2"/>
    <path d="M 502.281541 398.131382 
L 499.262907 396.297342 
L 493.910307 391.805946 
L 493.00943 391.043693 
" clip-path="url(#p51dc3f69fc)" style="fill: none; stroke: #4d59c1; stroke-width: 0.2"/>
    <path d="M 404.343653 379.767826 
L 412.111991 372.145297 
L 414.637221 369.91118 
L 415.96359 369.976456 
L 417.517258 370.622897 
L 421.917699 374.02145 
L 424.151876 376.805147 
L 427.049931 382.012471 
L 429.051265 384.082345 
L 435.17862 390.940515 
L 444.733469 401.635218 
L 456.234213 414.452437 
" clip-path="url(#p51dc3f69fc)" style="fill: none; stroke: #4d59c1; stroke-width: 0.2"/>
    <path d="M 435.17862 390.940515 
L 444.155521 382.934755 
L 445.531785 383.046355 
L 450.141507 385.646859 
L 452.557246 386.204862 
" clip-path="url(#p51dc3f69fc)" style="fill: none; stroke: #4d59c1; stroke-width: 0.2"/>
    <path d="M 316.733982 481.897075 
L 325.798198 479.884054 
L 335.612222 477.452004 
L 349.71581 472.954291 
L 364.912925 467.660634 
L 378.287496 462.644926 
L 387.088378 458.812605 
L 390.780591 456.422669 
L 394.059786 454.083268 
L 398.001473 450.398344 
L 410.016411 436.132424 
L 412.227026 433.571928 
L 416.452836 430.266025 
L 418.793732 429.02789 
L 422.056296 428.135086 
L 429.647231 426.054683 
L 442.830537 421.523279 
L 456.234213 414.452437 
L 462.724691 410.18003 
L 464.019183 409.329339 
L 478.512227 399.668521 
L 480.598106 397.135399 
L 483.939669 392.456599 
L 486.054653 386.817612 
L 488.520286 382.519938 
L 495.839572 364.644897 
L 499.404276 358.182594 
L 502.823454 352.829978 
L 506.618228 347.06044 
L 517.527165 330.688849 
L 522.161835 323.933857 
L 525.5131 319.760417 
L 531.249612 314.294095 
L 552.637837 291.346494 
L 552.92196 291.121187 
L 553.980838 290.28313 
L 556.540717 289.04289 
" clip-path="url(#p51dc3f69fc)" style="fill: none; stroke: #4d59c1; stroke-width: 0.2"/>
    <path d="M 372.824018 345.127434 
L 393.82833 371.416735 
L 396.402069 373.701388 
L 400.594615 377.365255 
L 404.343653 379.767826 
L 412.845167 385.215196 
L 431.225846 396.992214 
L 434.548006 398.15665 
L 435.694199 398.558833 
L 444.733469 401.635218 
" clip-path="url(#p51dc3f69fc)" style="fill: none; stroke: #4d59c1; stroke-width: 0.2"/>
    <path d="M 411.941517 321.617619 
L 414.720379 328.147304 
L 417.24838 331.939617 
L 420.287804 334.514853 
L 431.327021 341.92892 
L 449.681366 355.516814 
L 455.776844 359.456524 
L 459.858513 360.044007 
L 465.829254 362.322342 
L 469.843011 364.267982 
L 473.043206 366.826372 
L 476.954402 371.633619 
L 481.56551 376.466134 
L 488.520286 382.519938 
" clip-path="url(#p51dc3f69fc)" style="fill: none; stroke: #4d59c1; stroke-width: 0.2"/>
    <path d="M 443.332257 307.777044 
L 449.678595 320.358427 
L 453.456737 327.850404 
L 462.160603 344.413612 
L 472.035609 355.224126 
L 473.363364 363.640492 
L 473.043206 366.826372 
" clip-path="url(#p51dc3f69fc)" style="fill: none; stroke: #4d59c1; stroke-width: 0.2"/>
    <path d="M 215.464232 366.721089 
L 215.372758 376.417703 
L 212.711704 389.864518 
" clip-path="url(#p51dc3f69fc)" style="fill: none; stroke: #4d59c1; stroke-width: 0.2"/>
    <path d="M 189.481531 373.728762 
L 212.984739 364.739653 
" clip-path="url(#p51dc3f69fc)" style="fill: none; stroke: #4d59c1; stroke-width: 0.2"/>
    <path d="M 214.897372 363.47625 
L 215.491951 363.781572 
L 215.487793 364.299567 
L 215.464232 366.721089 
" clip-path="url(#p51dc3f69fc)" style="fill: none; stroke: #4d59c1; stroke-width: 0.2"/>
    <path d="M 212.984739 364.739653 
L 214.826688 364.036359 
L 215.491951 363.781572 
L 216.797531 362.916142 
" clip-path="url(#p51dc3f69fc)" style="fill: none; stroke: #4d59c1; stroke-width: 0.2"/>
    <path d="M 185.423423 373.282359 
L 183.91965 372.172671 
L 178.838699 369.134188 
L 172.411976 365.137624 
L 166.376095 362.663461 
L 164.320704 362.088522 
" clip-path="url(#p51dc3f69fc)" style="fill: none; stroke: #4d59c1; stroke-width: 0.2"/>
    <path d="M 257.258031 405.583351 
L 269.590355 391.323748 
L 276.912412 382.067218 
L 282.298275 377.262077 
L 287.187963 373.947751 
L 290.751281 372.12424 
L 295.639582 370.964016 
L 304.588763 369.970139 
L 311.55047 370.467077 
L 316.14356 370.89874 
" clip-path="url(#p51dc3f69fc)" style="fill: none; stroke: #4d59c1; stroke-width: 0.2"/>
    <path d="M 316.14356 370.89874 
L 316.765859 370.488134 
L 318.567615 369.29843 
L 322.898758 367.550723 
L 338.740347 363.415186 
L 347.671511 361.385319 
L 352.764935 359.589182 
L 361.508993 355.727381 
L 370.345911 350.315807 
" clip-path="url(#p51dc3f69fc)" style="fill: none; stroke: #4d59c1; stroke-width: 0.2"/>
    <path d="M 216.797531 362.916142 
L 228.079293 355.432587 
" clip-path="url(#p51dc3f69fc)" style="fill: none; stroke: #4d59c1; stroke-width: 0.2"/>
    <path d="M 366.613505 333.42201 
L 361.560274 332.979819 
L 326.638094 334.167417 
L 317.435281 335.171822 
L 303.197254 337.43963 
L 286.654366 340.303342 
L 274.851481 343.160737 
L 250.520851 349.74517 
L 239.071388 352.122473 
L 233.606524 353.350079 
L 228.079293 355.432587 
" clip-path="url(#p51dc3f69fc)" style="fill: none; stroke: #4d59c1; stroke-width: 0.2"/>
    <path d="M 408.063585 424.667046 
L 402.440722 412.332026 
L 399.215579 405.756016 
L 395.28498 399.914885 
L 389.376608 392.10074 
L 388.495134 390.936304 
L 384.352482 384.547699 
L 381.084375 379.569893 
L 378.011688 373.381326 
L 375.090072 365.034447 
L 372.43179 357.515096 
L 370.345911 350.315807 
L 369.813701 347.247845 
L 369.320297 344.407295 
L 368.400015 340.697102 
L 367.465874 336.407851 
L 366.613505 333.42201 
L 362.526292 322.716779 
L 358.915851 314.056154 
L 356.872938 307.6865 
L 346.616791 281.696204 
L 344.85107 276.640488 
L 339.011996 261.29857 
L 336.040486 252.298933 
" clip-path="url(#p51dc3f69fc)" style="fill: none; stroke: #4d59c1; stroke-width: 0.2"/>
    <path d="M 362.526292 322.716779 
L 377.024881 314.096162 
L 392.183189 306.372561 
" clip-path="url(#p51dc3f69fc)" style="fill: none; stroke: #4d59c1; stroke-width: 0.2"/>
    <path d="M 344.85107 276.640488 
L 303.67957 280.908683 
" clip-path="url(#p51dc3f69fc)" style="fill: none; stroke: #4d59c1; stroke-width: 0.2"/>
    <path d="M 346.616791 281.696204 
L 395.778384 261.144856 
" clip-path="url(#p51dc3f69fc)" style="fill: none; stroke: #4d59c1; stroke-width: 0.2"/>
    <path d="M 336.040486 252.298933 
L 333.547133 246.082993 
L 320.757441 213.148194 
" clip-path="url(#p51dc3f69fc)" style="fill: none; stroke: #4d59c1; stroke-width: 0.2"/>
    <path d="M 360.271326 228.751215 
L 362.749433 229.483989 
L 366.919804 234.668151 
L 369.342472 234.836604 
L 388.033607 229.31343 
" clip-path="url(#p51dc3f69fc)" style="fill: none; stroke: #4d59c1; stroke-width: 0.2"/>
    <path d="M 385.513921 228.245854 
L 388.033607 229.31343 
L 388.838853 229.654548 
L 401.246019 235.285112 
L 408.225743 241.463151 
L 440.272045 268.293609 
L 449.143612 275.067552 
L 456.705441 279.598956 
L 465.371885 283.066996 
L 474.052189 284.934726 
L 476.950244 285.549582 
L 481.88151 286.501345 
L 488.475936 287.078299 
L 492.718377 285.903335 
L 510.751178 279.527363 
L 518.43913 277.96285 
" clip-path="url(#p51dc3f69fc)" style="fill: none; stroke: #4d59c1; stroke-width: 0.2"/>
    <path d="M 320.757441 213.148194 
L 319.615405 209.560131 
L 320.251563 207.298641 
L 324.488461 205.134011 
L 330.722535 202.676693 
L 350.967337 194.070816 
L 354.119024 192.731609 
L 356.852148 192.024104 
L 359.186115 191.655611 
L 362.839521 192.087274 
L 366.984944 193.068517 
L 372.388825 194.72568 
L 379.081654 197.090348 
L 385.836851 200.497324 
L 394.618331 205.409854 
L 402.264704 210.383448 
L 406.041461 212.286975 
L 409.234726 212.992375 
L 423.328612 215.847664 
L 429.776125 216.706778 
L 434.258339 217.658541 
L 438.956763 219.132511 
L 442.73352 220.574895 
L 448.506067 223.215407 
L 455.47609 225.855918 
L 458.577881 228.464844 
L 460.020671 230.338891 
L 461.739269 231.84234 
L 466.008044 233.99223 
L 472.486048 237.152842 
L 474.052189 237.645569 
L 475.526857 237.797178 
L 477.338314 237.921412 
L 478.830999 237.52344 
L 480.10193 237.184427 
L 485.597285 234.636566 
L 491.45992 231.947624 
L 500.456224 228.509063 
L 506.920369 225.605343 
" clip-path="url(#p51dc3f69fc)" style="fill: none; stroke: #4d59c1; stroke-width: 0.2"/>
    <path d="M 499.218557 209.27376 
L 493.271377 199.276034 
" clip-path="url(#p51dc3f69fc)" style="fill: none; stroke: #4d59c1; stroke-width: 0.2"/>
    <path d="M 493.271377 199.276034 
L 486.471829 177.32231 
L 481.747072 159.99685 
L 479.334105 153.757747 
L 478.402736 151.110919 
L 470.186731 133.012677 
L 465.558991 122.810702 
" clip-path="url(#p51dc3f69fc)" style="fill: none; stroke: #4d59c1; stroke-width: 0.2"/>
    <path d="M 501.413926 128.365462 
L 502.676541 125.80286 
L 502.977296 122.168472 
L 502.30926 119.195265 
L 502.00712 116.883238 
L 501.045259 114.289052 
" clip-path="url(#p51dc3f69fc)" style="fill: none; stroke: #4d59c1; stroke-width: 0.2"/>
    <path d="M 350.967337 194.070816 
L 354.18555 206.386885 
L 362.412643 213.202942 
L 375.652774 223.230146 
L 385.513921 228.245854 
" clip-path="url(#p51dc3f69fc)" style="fill: none; stroke: #4d59c1; stroke-width: 0.2"/>
    <path d="M 311.048105 186.079581 
L 312.619049 189.552046 
L 317.666737 201.200618 
L 320.251563 207.298641 
" clip-path="url(#p51dc3f69fc)" style="fill: none; stroke: #4d59c1; stroke-width: 0.2"/>
    <path d="M 450.272477 119.13502 
L 454.109527 119.656407 
L 458.561249 119.881714 
L 462.20634 118.626734 
" clip-path="url(#p51dc3f69fc)" style="fill: none; stroke: #4d59c1; stroke-width: 0.2"/>
    <path d="M 465.558991 122.810702 
L 462.20634 118.626734 
L 460.209326 115.370395 
" clip-path="url(#p51dc3f69fc)" style="fill: none; stroke: #4d59c1; stroke-width: 0.2"/>
   </g>
   <g id="LineCollection_2">
    <path d="M 49.859882 569.915053 
L 49.923089 569.907801 
L 61.707956 567.938999 
L 72.687578 565.079498 
L 82.415672 562.272638 
L 93.075135 559.029905 
L 113.872938 552.479163 
L 121.674539 549.775482 
L 122.830435 549.381721 
L 127.165736 548.042515 
L 251.100185 508.439057 
" clip-path="url(#p51dc3f69fc)" style="fill: none; stroke-dasharray: 3.7,1.6; stroke-dashoffset: 0; stroke: #4d59c1"/>
    <path d="M 250.924167 507.900005 
L 127.169894 547.450821 
L 121.527627 549.316446 
L 113.659499 551.925372 
L 92.903275 558.488748 
L 82.2549 561.72727 
L 72.537893 564.532023 
L 61.588763 567.383102 
L 49.845909 569.345283 
" clip-path="url(#p51dc3f69fc)" style="fill: none; stroke-dasharray: 3.7,1.6; stroke-dashoffset: 0; stroke: #4d59c1"/>
    <path d="M 251.100185 508.439057 
L 253.039151 507.796827 
" clip-path="url(#p51dc3f69fc)" style="fill: none; stroke-dasharray: 3.7,1.6; stroke-dashoffset: 0; stroke: #4d59c1"/>
    <path d="M 252.863133 507.257775 
L 250.924167 507.900005 
" clip-path="url(#p51dc3f69fc)" style="fill: none; stroke-dasharray: 3.7,1.6; stroke-dashoffset: 0; stroke: #4d59c1"/>
    <path d="M 253.039151 507.796827 
L 416.785468 455.702529 
L 427.110913 452.285025 
L 436.832077 448.435859 
L 446.683522 444.030796 
L 455.991669 439.059307 
L 463.646358 434.18889 
L 470.53045 434.591073 
L 475.105523 425.774629 
L 482.783774 419.259683 
L 487.46418 415.082032 
L 488.283286 414.345047 
L 602.252641 316.618756 
" clip-path="url(#p51dc3f69fc)" style="fill: none; stroke-dasharray: 3.7,1.6; stroke-dashoffset: 0; stroke: #4d59c1"/>
    <path d="M 601.875658 316.19341 
L 493.30464 409.413566 
L 487.130163 414.679849 
L 474.746558 425.336649 
L 468.226975 430.485015 
L 463.337288 433.713008 
L 455.704774 438.568685 
L 446.432663 443.521223 
L 436.611709 447.913653 
L 426.916878 451.752291 
L 416.610836 455.163478 
L 252.863133 507.257775 
" clip-path="url(#p51dc3f69fc)" style="fill: none; stroke-dasharray: 3.7,1.6; stroke-dashoffset: 0; stroke: #4d59c1"/>
    <path d="M 602.252641 316.618756 
L 604.38287 314.677327 
" clip-path="url(#p51dc3f69fc)" style="fill: none; stroke-dasharray: 3.7,1.6; stroke-dashoffset: 0; stroke: #4d59c1"/>
    <path d="M 604.011432 314.249876 
L 601.875658 316.19341 
" clip-path="url(#p51dc3f69fc)" style="fill: none; stroke-dasharray: 3.7,1.6; stroke-dashoffset: 0; stroke: #4d59c1"/>
    <path d="M 604.38287 314.677327 
L 620.622232 301.198928 
L 631.098747 293.53218 
L 641.812263 285.970716 
L 672.751178 266.234263 
L 679.511919 261.75129 
L 684.84373 258.447492 
L 691.693173 254.25089 
L 699.75395 250.096401 
L 702.731791 248.799092 
" clip-path="url(#p51dc3f69fc)" style="fill: none; stroke-dasharray: 3.7,1.6; stroke-dashoffset: 0; stroke: #4d59c1"/>
    <path d="M 756.786147 237.150446 
L 755.419881 237.093884 
L 752.67136 237.181103 
" clip-path="url(#p51dc3f69fc)" style="fill: none; stroke-dasharray: 3.7,1.6; stroke-dashoffset: 0; stroke: #4d59c1"/>
    <path d="M 702.784576 248.156177 
L 699.51002 249.582618 
L 691.40905 253.758163 
L 684.60673 257.914757 
L 672.142739 265.760487 
L 641.497649 285.49694 
L 630.767502 293.073144 
L 620.274354 300.752526 
L 604.011432 314.249876 
" clip-path="url(#p51dc3f69fc)" style="fill: none; stroke-dasharray: 3.7,1.6; stroke-dashoffset: 0; stroke: #4d59c1"/>
   </g>
  </g>
 </g>
 <defs>
  <clipPath id="p51dc3f69fc">
   <rect x="7.2" y="7.2" width="837" height="591.263752"/>
  </clipPath>
 </defs>
</svg>
