<?xml version="1.0" encoding="utf-8" standalone="no"?>
<!DOCTYPE svg PUBLIC "-//W3C//DTD SVG 1.1//EN"
  "http://www.w3.org/Graphics/SVG/1.1/DTD/svg11.dtd">
<svg xmlns:xlink="http://www.w3.org/1999/xlink" width="807.470334pt" height="846pt" viewBox="0 0 807.470334 846" xmlns="http://www.w3.org/2000/svg" version="1.1">
 <metadata>
  <rdf:RDF xmlns:dc="http://purl.org/dc/elements/1.1/" xmlns:cc="http://creativecommons.org/ns#" xmlns:rdf="http://www.w3.org/1999/02/22-rdf-syntax-ns#">
   <cc:Work>
    <dc:type rdf:resource="http://purl.org/dc/dcmitype/StillImage"/>
    <dc:date>2025-03-16T14:38:40.218399</dc:date>
    <dc:format>image/svg+xml</dc:format>
    <dc:creator>
     <cc:Agent>
      <dc:title>Matplotlib v3.10.1, https://matplotlib.org/</dc:title>
     </cc:Agent>
    </dc:creator>
   </cc:Work>
  </rdf:RDF>
 </metadata>
 <defs>
  <style type="text/css">*{stroke-linejoin: round; stroke-linecap: butt}</style>
 </defs>
 <g id="figure_1">
  <g id="patch_1">
   <path d="M 0 846 
L 807.470334 846 
L 807.470334 0 
L 0 0 
z
" style="fill: #ffffff"/>
  </g>
  <g id="axes_1">
   <g id="PatchCollection_1">
    <path d="M 43.248652 427.279161 
L 500.719694 801 
L 627.347827 613.990611 
L 764.221683 411.860774 
L 378.456023 45 
L 43.248652 427.279161 
" clip-path="url(#pec21cf10d4)" style="fill: #d1d4f2"/>
   </g>
   <g id="PatchCollection_2">
    <path d="M 268.522449 315.343163 
L 274.687497 320.713528 
L 268.718165 327.878982 
L 262.553117 322.508616 
L 268.522449 315.343163 
" clip-path="url(#pec21cf10d4)" style="fill: #4d59c1"/>
    <path d="M 330.588827 187.378001 
L 326.170543 192.420633 
L 317.529689 184.86041 
L 321.943081 179.810329 
L 330.588827 187.378001 
" clip-path="url(#pec21cf10d4)" style="fill: #4d59c1"/>
    <path d="M 412.725863 186.089412 
L 404.7113 195.072298 
L 381.910407 174.723007 
L 389.92497 165.74012 
L 412.725863 186.089412 
" clip-path="url(#pec21cf10d4)" style="fill: #4d59c1"/>
    <path d="M 358.042863 164.414288 
L 351.554884 172.212863 
L 343.241855 165.293211 
L 349.724941 157.494635 
L 358.042863 164.414288 
" clip-path="url(#pec21cf10d4)" style="fill: #4d59c1"/>
    <path d="M 415.519706 161.554066 
L 409.887983 167.57245 
L 400.141336 158.440594 
L 405.773058 152.429658 
L 415.519706 161.554066 
" clip-path="url(#pec21cf10d4)" style="fill: #4d59c1"/>
    <path d="M 342.889566 150.463255 
L 337.311666 157.092417 
L 313.20437 136.787816 
L 318.787164 130.166103 
L 342.889566 150.463255 
" clip-path="url(#pec21cf10d4)" style="fill: #4d59c1"/>
    <path d="M 374.306848 143.618087 
L 368.826805 149.651369 
L 357.96947 139.804457 
L 363.449513 133.763727 
L 374.306848 143.618087 
" clip-path="url(#pec21cf10d4)" style="fill: #4d59c1"/>
    <path d="M 341.739736 109.526321 
L 347.601425 114.770062 
L 335.741046 128.013488 
L 329.88425 122.762298 
L 341.739736 109.526321 
" clip-path="url(#pec21cf10d4)" style="fill: #4d59c1"/>
    <path d="M 420.715961 107.723785 
L 425.829036 114.464674 
L 413.689763 123.678463 
L 408.571794 116.930126 
L 420.715961 107.723785 
" clip-path="url(#pec21cf10d4)" style="fill: #4d59c1"/>
    <path d="M 373.817558 65.885583 
L 376.99794 69.177818 
L 367.569331 78.272432 
L 364.393842 74.980196 
L 373.817558 65.885583 
" clip-path="url(#pec21cf10d4)" style="fill: #4d59c1"/>
   </g>
   <g id="LineCollection_1">
    <path d="M 378.074377 626.734987 
L 395.018474 640.127383 
L 483.707096 726.61187 
L 524.201425 766.321259 
" clip-path="url(#pec21cf10d4)" style="fill: none; stroke: #4d59c1; stroke-width: 0.2"/>
    <path d="M 579.730169 514.642571 
L 636.859615 567.020395 
L 645.745534 586.821613 
" clip-path="url(#pec21cf10d4)" style="fill: none; stroke: #4d59c1; stroke-width: 0.2"/>
    <path d="M 627.347827 613.990611 
L 617.615858 608.210578 
L 587.138012 578.416594 
L 570.277095 563.176971 
L 560.422803 554.31326 
" clip-path="url(#pec21cf10d4)" style="fill: none; stroke: #4d59c1; stroke-width: 0.2"/>
    <path d="M 383.070023 620.82833 
L 393.305961 612.567948 
L 432.150657 573.314374 
L 458.136825 547.72879 
L 470.339706 535.773954 
L 478.412983 536.623082 
L 483.927277 539.788693 
L 490.884974 546.864764 
L 496.609661 548.913101 
L 503.024247 551.326414 
L 509.321404 554.946383 
L 517.654005 563.400426 
L 523.623337 566.558588 
L 529.201238 566.022296 
L 536.227436 562.744958 
L 541.868944 560.577446 
L 553.876109 556.905337 
L 560.422803 554.31326 
L 563.720615 550.931643 
L 569.753555 540.503749 
L 575.140633 527.245426 
L 579.730169 514.642571 
L 589.77039 490.487098 
L 599.482787 467.128615 
L 606.176268 452.611496 
" clip-path="url(#pec21cf10d4)" style="fill: none; stroke: #4d59c1; stroke-width: 0.2"/>
    <path d="M 579.798669 445.192794 
L 564.704087 457.952068 
L 551.052909 470.81562 
L 531.814044 493.727194 
L 519.033801 510.843838 
L 496.609661 548.913101 
" clip-path="url(#pec21cf10d4)" style="fill: none; stroke: #4d59c1; stroke-width: 0.2"/>
    <path d="M 544.359428 401.365843 
L 503.493965 449.855552 
L 456.580884 504.318955 
" clip-path="url(#pec21cf10d4)" style="fill: none; stroke: #4d59c1; stroke-width: 0.2"/>
    <path d="M 606.176268 452.611496 
L 621.662282 424.277417 
L 635.308568 404.851739 
L 643.709669 394.490882 
L 652.697918 385.560135 
L 663.393787 378.99801 
L 671.985712 378.60324 
L 680.063882 379.98866 
L 688.592199 383.854429 
L 702.634808 392.323369 
L 732.231933 409.641122 
L 753.295847 420.731933 
L 756.777722 422.853717 
" clip-path="url(#pec21cf10d4)" style="fill: none; stroke: #4d59c1; stroke-width: 0.2"/>
    <path d="M 663.393787 378.99801 
L 677.172181 371.832557 
L 702.370592 355.557593 
L 704.04924 354.63715 
" clip-path="url(#pec21cf10d4)" style="fill: none; stroke: #4d59c1; stroke-width: 0.2"/>
    <path d="M 477.429511 178.670709 
L 486.618369 192.323803 
L 498.557034 198.409224 
L 513.260184 211.533474 
L 526.38293 226.7582 
L 545.93494 247.964068 
L 567.458787 271.590697 
L 596.199655 302.352986 
L 618.379149 327.208617 
L 643.054021 350.835246 
L 654.077714 369.210686 
L 652.697918 385.560135 
" clip-path="url(#pec21cf10d4)" style="fill: none; stroke: #4d59c1; stroke-width: 0.2"/>
    <path d="M 477.429511 178.670709 
L 537.538732 220.129038 
L 608.753708 264.011684 
" clip-path="url(#pec21cf10d4)" style="fill: none; stroke: #4d59c1; stroke-width: 0.2"/>
    <path d="M 474.794041 779.820612 
L 481.970118 768.472418 
L 471.910325 751.445156 
L 474.757991 744.599988 
L 483.707096 726.61187 
" clip-path="url(#pec21cf10d4)" style="fill: none; stroke: #4d59c1; stroke-width: 0.2"/>
    <path d="M 378.074377 626.734987 
L 383.070023 620.82833 
" clip-path="url(#pec21cf10d4)" style="fill: none; stroke: #4d59c1; stroke-width: 0.2"/>
    <path d="M 53.528625 421.394849 
L 65.995722 431.830192 
L 121.03101 479.858094 
L 142.770144 499.149699 
L 192.247103 540.891071 
L 246.191274 590.252254 
L 282.672703 621.491246 
L 291.465236 627.658601 
L 298.158717 630.407096 
L 369.027414 624.701548 
L 378.074377 626.734987 
" clip-path="url(#pec21cf10d4)" style="fill: none; stroke: #4d59c1; stroke-width: 0.2"/>
    <path d="M 383.070023 620.82833 
L 323.621344 566.886322 
L 254.323267 505.197878 
L 202.752149 460.313241 
L 142.907145 407.607683 
L 111.935117 380.517503 
L 104.45388 372.249672 
L 101.845967 366.372809 
" clip-path="url(#pec21cf10d4)" style="fill: none; stroke: #4d59c1; stroke-width: 0.2"/>
    <path d="M 143.611722 318.151246 
L 172.562984 344.153945 
L 222.827699 388.524636 
L 265.351853 426.579002 
L 314.300379 468.305477 
L 362.989581 511.752554 
L 415.88178 559.273959 
L 432.150657 573.314374 
" clip-path="url(#pec21cf10d4)" style="fill: none; stroke: #4d59c1; stroke-width: 0.2"/>
    <path d="M 121.03101 479.858094 
L 132.406992 459.717361 
L 138.836256 447.509276 
L 138.836256 443.516882 
L 136.345773 439.435106 
L 104.057556 412.67266 
L 78.683 392.591515 
" clip-path="url(#pec21cf10d4)" style="fill: none; stroke: #4d59c1; stroke-width: 0.2"/>
    <path d="M 189.228186 268.313359 
L 247.894002 320.40814 
L 303.14947 370.141748 
L 353.149968 412.925909 
L 413.122187 466.748741 
L 456.580884 504.318955 
L 478.642949 523.990433 
L 478.775058 525.085362 
L 478.481484 526.329261 
L 476.710256 529.085204 
L 470.339706 535.773954 
" clip-path="url(#pec21cf10d4)" style="fill: none; stroke: #4d59c1; stroke-width: 0.2"/>
    <path d="M 49.743252 419.872551 
L 53.528625 421.394849 
" clip-path="url(#pec21cf10d4)" style="fill: none; stroke: #4d59c1; stroke-width: 0.2"/>
    <path d="M 232.540096 217.387992 
L 248.285434 229.640768 
L 302.621037 276.707814 
L 357.739504 326.158379 
L 422.311045 383.638423 
L 477.170188 430.392632 
L 496.59009 446.794221 
L 503.493965 449.855552 
" clip-path="url(#pec21cf10d4)" style="fill: none; stroke: #4d59c1; stroke-width: 0.2"/>
    <path d="M 278.733922 164.369597 
L 336.088442 215.682286 
L 375.853003 249.803846 
L 438.452707 305.972955 
L 544.359428 401.365843 
L 552.760529 405.313546 
L 557.81489 409.440013 
L 568.510759 421.521474 
L 574.02016 430.757609 
L 576.779753 438.660463 
L 579.798669 445.192794 
L 586.42365 449.527819 
L 599.874219 453.743667 
L 602.961636 453.818152 
L 606.176268 452.611496 
" clip-path="url(#pec21cf10d4)" style="fill: none; stroke: #4d59c1; stroke-width: 0.2"/>
    <path d="M 53.528625 421.394849 
L 78.683 392.591515 
L 101.845967 366.372809 
L 143.611722 318.151246 
L 189.228186 268.313359 
L 232.540096 217.387992 
L 278.733922 164.369597 
L 380.760726 47.191759 
" clip-path="url(#pec21cf10d4)" style="fill: none; stroke: #4d59c1; stroke-width: 0.2"/>
    <path d="M 470.628202 132.655176 
L 470.603922 134.054218 
L 470.344599 145.867533 
L 472.443651 164.764367 
L 477.429511 178.670709 
" clip-path="url(#pec21cf10d4)" style="fill: none; stroke: #4d59c1; stroke-width: 0.2"/>
    <path d="M 477.429511 178.670709 
L 486.486261 174.2612 
L 501.151108 161.682272 
" clip-path="url(#pec21cf10d4)" style="fill: none; stroke: #4d59c1; stroke-width: 0.2"/>
   </g>
  </g>
 </g>
 <defs>
  <clipPath id="pec21cf10d4">
   <rect x="7.2" y="7.2" width="793.070334" height="831.6"/>
  </clipPath>
 </defs>
</svg>
