<?xml version="1.0" encoding="utf-8" standalone="no"?>
<!DOCTYPE svg PUBLIC "-//W3C//DTD SVG 1.1//EN"
  "http://www.w3.org/Graphics/SVG/1.1/DTD/svg11.dtd">
<svg xmlns:xlink="http://www.w3.org/1999/xlink" width="851.4pt" height="665.560157pt" viewBox="0 0 851.4 665.560157" xmlns="http://www.w3.org/2000/svg" version="1.1">
 <metadata>
  <rdf:RDF xmlns:dc="http://purl.org/dc/elements/1.1/" xmlns:cc="http://creativecommons.org/ns#" xmlns:rdf="http://www.w3.org/1999/02/22-rdf-syntax-ns#">
   <cc:Work>
    <dc:type rdf:resource="http://purl.org/dc/dcmitype/StillImage"/>
    <dc:date>2025-03-16T14:37:53.077408</dc:date>
    <dc:format>image/svg+xml</dc:format>
    <dc:creator>
     <cc:Agent>
      <dc:title>Matplotlib v3.10.1, https://matplotlib.org/</dc:title>
     </cc:Agent>
    </dc:creator>
   </cc:Work>
  </rdf:RDF>
 </metadata>
 <defs>
  <style type="text/css">*{stroke-linejoin: round; stroke-linecap: butt}</style>
 </defs>
 <g id="figure_1">
  <g id="patch_1">
   <path d="M 0 665.560157 
L 851.4 665.560157 
L 851.4 0 
L 0 0 
z
" style="fill: #ffffff"/>
  </g>
  <g id="axes_1">
   <g id="PatchCollection_1">
    <path d="M 158.257187 390.269351 
L 182.724776 393.114526 
L 195.891191 430.436529 
L 190.185744 433.281704 
L 192.160707 464.913356 
L 178.884571 467.758531 
L 167.583398 462.068181 
L 156.282225 441.984592 
L 71.578285 453.365292 
L 45.245455 533.867011 
L 75.30877 617.213904 
L 116.782978 625.749429 
L 117.611365 625.771187 
L 229.794711 628.761968 
L 288.165819 574.034188 
L 354.107616 579.891902 
L 514.189284 421.901003 
L 574.425634 413.198115 
L 679.976398 490.854658 
L 798.583857 361.482874 
L 766.545579 312.612808 
L 806.154545 275.290805 
L 774.116268 209.182326 
L 691.277571 197.801625 
L 640.367431 91.358605 
L 497.182664 140.228671 
L 404.908036 36.798189 
L 348.402169 51.191428 
L 372.028205 222.864271 
L 380.440447 283.993694 
L 144.981051 324.160871 
L 158.257187 390.269351 
" clip-path="url(#pcae089e8b5)" style="fill: #d1d4f2"/>
   </g>
   <g id="PatchCollection_2">
    <path d="M 138.080752 624.01722 
L 138.625579 626.33142 
L 129.301652 626.082847 
L 138.080752 624.01722 
" clip-path="url(#pcae089e8b5)" style="fill: #4d59c1"/>
    <path d="M 119.432719 623.453206 
L 119.588522 624.549435 
L 118.353073 624.72684 
L 118.196174 623.630611 
L 119.432719 623.453206 
" clip-path="url(#pcae089e8b5)" style="fill: #4d59c1"/>
    <path d="M 117.623434 608.624823 
L 119.976931 608.449091 
L 120.020819 609.029842 
L 117.666225 609.207247 
L 117.623434 608.624823 
" clip-path="url(#pcae089e8b5)" style="fill: #4d59c1"/>
    <path d="M 117.568574 604.029028 
L 117.21747 604.052459 
L 117.091292 602.161254 
L 117.442396 602.137823 
L 117.254775 599.316079 
L 118.895091 599.207293 
L 119.084907 602.059163 
L 124.16056 601.721089 
L 124.227489 602.733637 
L 124.881421 602.690122 
L 124.928601 603.38468 
L 123.605376 603.473382 
L 123.773248 605.977136 
L 122.561937 606.059144 
L 122.401746 603.655808 
L 119.444789 603.853297 
L 119.60498 606.254959 
L 117.725474 606.380482 
L 117.568574 604.029028 
" clip-path="url(#pcae089e8b5)" style="fill: #4d59c1"/>
    <path d="M 122.38858 599.140348 
L 124.213225 599.081771 
L 124.258211 600.494316 
L 122.434662 600.552894 
L 122.38858 599.140348 
" clip-path="url(#pcae089e8b5)" style="fill: #4d59c1"/>
    <path d="M 111.486788 596.725296 
L 112.43477 596.676761 
L 112.494018 597.794747 
L 111.544939 597.844956 
L 111.486788 596.725296 
" clip-path="url(#pcae089e8b5)" style="fill: #4d59c1"/>
    <path d="M 115.312729 565.289459 
L 118.948854 565.123769 
L 119.419553 575.424977 
L 115.783428 575.59234 
L 115.312729 565.289459 
" clip-path="url(#pcae089e8b5)" style="fill: #4d59c1"/>
    <path d="M 78.99756 545.415074 
L 86.766843 547.828452 
L 86.354295 549.160664 
L 78.585013 546.745612 
L 78.99756 545.415074 
" clip-path="url(#pcae089e8b5)" style="fill: #4d59c1"/>
    <path d="M 77.407716 540.330579 
L 76.357694 543.753157 
L 61.583879 539.219287 
L 62.633901 535.796709 
L 77.407716 540.330579 
" clip-path="url(#pcae089e8b5)" style="fill: #4d59c1"/>
    <path d="M 138.972777 550.574883 
L 134.676137 547.396655 
L 135.853434 545.805031 
L 140.150074 548.983259 
L 138.972777 550.574883 
" clip-path="url(#pcae089e8b5)" style="fill: #4d59c1"/>
    <path d="M 224.044279 542.268645 
L 223.399124 542.29375 
L 223.320126 540.176605 
L 226.022533 540.076187 
L 226.167363 543.979098 
L 236.275879 543.60253 
L 236.325253 544.926374 
L 226.216737 545.302941 
L 226.375831 549.553967 
L 224.318579 549.630954 
L 224.044279 542.268645 
" clip-path="url(#pcae089e8b5)" style="fill: #4d59c1"/>
    <path d="M 159.397179 544.332234 
L 161.58061 541.689569 
L 164.288502 543.925541 
L 162.105072 546.569881 
L 159.397179 544.332234 
" clip-path="url(#pcae089e8b5)" style="fill: #4d59c1"/>
    <path d="M 204.188227 540.50631 
L 211.722708 540.50631 
L 211.722708 542.154838 
L 204.188227 542.154838 
L 204.188227 540.50631 
" clip-path="url(#pcae089e8b5)" style="fill: #4d59c1"/>
    <path d="M 159.279778 532.08794 
L 160.078541 532.765761 
L 159.431192 533.530611 
L 158.63243 532.854463 
L 159.279778 532.08794 
" clip-path="url(#pcae089e8b5)" style="fill: #4d59c1"/>
    <path d="M 177.761037 531.734803 
L 179.749166 530.144852 
L 181.162361 531.910534 
L 179.173135 533.500485 
L 177.761037 531.734803 
" clip-path="url(#pcae089e8b5)" style="fill: #4d59c1"/>
    <path d="M 151.000298 526.805956 
L 151.40297 527.132314 
L 153.911173 524.0294 
L 156.507151 526.128135 
L 154.001143 529.229375 
L 156.702453 531.413466 
L 155.44506 532.969944 
L 154.141585 531.915555 
L 154.422468 531.569113 
L 150.024886 528.012645 
L 151.000298 526.805956 
" clip-path="url(#pcae089e8b5)" style="fill: #4d59c1"/>
    <path d="M 222.83626 527.435241 
L 223.827033 526.303866 
L 224.858402 527.205954 
L 223.868726 528.337329 
L 222.83626 527.435241 
" clip-path="url(#pcae089e8b5)" style="fill: #4d59c1"/>
    <path d="M 227.939343 524.005969 
L 232.606838 528.461178 
L 231.236433 529.898828 
L 226.567842 525.441945 
L 227.939343 524.005969 
" clip-path="url(#pcae089e8b5)" style="fill: #4d59c1"/>
    <path d="M 274.023992 504.590159 
L 274.68341 503.905644 
L 275.693932 504.77928 
L 275.090471 505.435344 
L 274.023992 504.590159 
" clip-path="url(#pcae089e8b5)" style="fill: #4d59c1"/>
    <path d="M 72.124692 524.101366 
L 75.949535 522.511415 
L 76.407068 523.612665 
L 72.581127 525.200942 
L 72.124692 524.101366 
" clip-path="url(#pcae089e8b5)" style="fill: #4d59c1"/>
    <path d="M 88.514684 511.88887 
L 90.839654 509.445367 
L 91.621958 510.190133 
L 89.296989 512.633637 
L 88.514684 511.88887 
" clip-path="url(#pcae089e8b5)" style="fill: #4d59c1"/>
    <path d="M 91.934661 508.196837 
L 93.877804 505.959191 
L 94.682053 506.658769 
L 92.740007 508.896415 
L 91.934661 508.196837 
" clip-path="url(#pcae089e8b5)" style="fill: #4d59c1"/>
    <path d="M 95.083628 504.549992 
L 97.378974 502.195191 
L 98.213944 503.008577 
L 95.918599 505.363377 
L 95.083628 504.549992 
" clip-path="url(#pcae089e8b5)" style="fill: #4d59c1"/>
    <path d="M 178.061125 467.343911 
L 178.884571 467.758531 
L 181.17396 467.267898 
L 181.973193 467.905811 
L 180.589622 469.494088 
L 178.061125 467.343911 
" clip-path="url(#pcae089e8b5)" style="fill: #4d59c1"/>
    <path d="M 340.446363 431.875852 
L 341.007033 432.83317 
L 339.800111 433.539443 
L 339.239442 432.582125 
L 340.446363 431.875852 
" clip-path="url(#pcae089e8b5)" style="fill: #4d59c1"/>
    <path d="M 336.169472 422.372968 
L 337.406018 421.785523 
L 337.768095 422.545352 
L 336.531549 423.13447 
L 336.169472 422.372968 
" clip-path="url(#pcae089e8b5)" style="fill: #4d59c1"/>
    <path d="M 330.536441 416.910232 
L 331.88929 416.557095 
L 332.323782 418.220686 
L 330.969835 418.573822 
L 330.536441 416.910232 
" clip-path="url(#pcae089e8b5)" style="fill: #4d59c1"/>
    <path d="M 359.219477 559.56731 
L 357.581355 558.492838 
L 358.848623 556.561466 
L 360.486744 557.637612 
L 359.219477 559.56731 
" clip-path="url(#pcae089e8b5)" style="fill: #4d59c1"/>
    <path d="M 342.418034 435.112658 
L 343.090618 436.2842 
L 341.913321 436.960348 
L 341.240737 435.788805 
L 342.418034 435.112658 
" clip-path="url(#pcae089e8b5)" style="fill: #4d59c1"/>
    <path d="M 343.520721 425.176302 
L 342.637474 423.911036 
L 343.623858 423.223173 
L 344.507105 424.488439 
L 343.520721 425.176302 
" clip-path="url(#pcae089e8b5)" style="fill: #4d59c1"/>
    <path d="M 347.375189 422.701 
L 346.344917 421.1713 
L 347.449799 420.426533 
L 348.480071 421.957907 
L 347.375189 422.701 
" clip-path="url(#pcae089e8b5)" style="fill: #4d59c1"/>
    <path d="M 351.629038 418.19056 
L 352.559465 417.631567 
L 353.353839 418.957084 
L 352.423412 419.514404 
L 351.629038 418.19056 
" clip-path="url(#pcae089e8b5)" style="fill: #4d59c1"/>
    <path d="M 341.711436 417.984704 
L 342.983092 417.348723 
L 343.688593 418.761269 
L 342.418034 419.397249 
L 341.711436 417.984704 
" clip-path="url(#pcae089e8b5)" style="fill: #4d59c1"/>
    <path d="M 344.743003 415.983039 
L 345.785344 415.365469 
L 346.638967 416.80814 
L 345.595529 417.42571 
L 344.743003 415.983039 
" clip-path="url(#pcae089e8b5)" style="fill: #4d59c1"/>
    <path d="M 522.554346 327.421107 
L 523.474898 329.319006 
L 517.605968 332.164182 
L 516.685417 330.266282 
L 522.554346 327.421107 
" clip-path="url(#pcae089e8b5)" style="fill: #4d59c1"/>
    <path d="M 513.410271 310.398592 
L 513.228135 310.095665 
L 515.440093 308.765127 
L 515.062656 308.137515 
L 516.520836 307.262205 
L 519.036719 311.446286 
L 515.988694 313.278914 
L 516.791845 314.614472 
L 515.05717 315.657145 
L 514.01812 313.928283 
L 513.561684 314.201085 
L 511.841273 311.340847 
L 513.410271 310.398592 
" clip-path="url(#pcae089e8b5)" style="fill: #4d59c1"/>
    <path d="M 563.9715 294.649711 
L 562.083217 295.702426 
L 560.305751 292.512483 
L 562.194034 291.459768 
L 563.9715 294.649711 
" clip-path="url(#pcae089e8b5)" style="fill: #4d59c1"/>
    <path d="M 421.942086 258.674983 
L 428.033747 254.879185 
L 431.882729 261.054888 
L 425.791068 264.850687 
L 421.942086 258.674983 
" clip-path="url(#pcae089e8b5)" style="fill: #4d59c1"/>
    <path d="M 432.268944 256.795494 
L 435.358663 254.765378 
L 436.59082 256.64152 
L 433.501101 258.671636 
L 432.268944 256.795494 
" clip-path="url(#pcae089e8b5)" style="fill: #4d59c1"/>
    <path d="M 428.709623 248.188002 
L 430.681294 251.453259 
L 429.057436 252.434008 
L 427.085765 249.167077 
L 428.709623 248.188002 
" clip-path="url(#pcae089e8b5)" style="fill: #4d59c1"/>
    <path d="M 485.620357 222.318666 
L 488.682645 226.79898 
L 483.567493 230.293525 
L 480.505204 225.813211 
L 485.620357 222.318666 
" clip-path="url(#pcae089e8b5)" style="fill: #4d59c1"/>
   </g>
   <g id="LineCollection_1">
    <path d="M 262.429866 549.341416 
L 256.293219 544.944784 
L 230.097538 522.461206 
" clip-path="url(#pcae089e8b5)" style="fill: none; stroke-dasharray: 3.7,1.6; stroke-dashoffset: 0; stroke: #4d59c1"/>
    <path d="M 146.96918 449.043974 
L 157.723947 459.370286 
L 175.323056 474.432977 
L 262.429866 549.341416 
L 266.617883 552.881148 
L 272.237748 556.735524 
" clip-path="url(#pcae089e8b5)" style="fill: none; stroke-dasharray: 3.7,1.6; stroke-dashoffset: 0; stroke: #4d59c1"/>
    <path d="M 268.463375 552.533033 
L 261.005698 544.750642 
L 176.907414 472.700768 
L 157.64056 455.957749 
L 153.361475 452.520108 
L 147.432199 448.478286 
" clip-path="url(#pcae089e8b5)" style="fill: none; stroke-dasharray: 3.7,1.6; stroke-dashoffset: 0; stroke: #4d59c1"/>
    <path d="M 141.084517 444.026534 
L 144.728695 447.151095 
L 146.96918 449.043974 
L 175.801435 473.90913 
L 178.036434 475.862259 
L 272.237748 556.735524 
L 282.641411 565.359752 
L 293.245488 574.485423 
" clip-path="url(#pcae089e8b5)" style="fill: none; stroke-dasharray: 3.7,1.6; stroke-dashoffset: 0; stroke: #4d59c1"/>
    <path d="M 294.340298 574.582677 
L 283.069319 564.897829 
L 268.463375 552.533033 
L 235.659251 524.280444 
L 176.357716 473.303275 
L 147.432199 448.478286 
L 145.21695 446.583734 
L 142.073324 443.89368 
" clip-path="url(#pcae089e8b5)" style="fill: none; stroke-dasharray: 3.7,1.6; stroke-dashoffset: 0; stroke: #4d59c1"/>
   </g>
  </g>
 </g>
 <defs>
  <clipPath id="pcae089e8b5">
   <rect x="7.2" y="7.2" width="837" height="651.160157"/>
  </clipPath>
 </defs>
</svg>
