<?xml version="1.0" encoding="utf-8" standalone="no"?>
<!DOCTYPE svg PUBLIC "-//W3C//DTD SVG 1.1//EN"
  "http://www.w3.org/Graphics/SVG/1.1/DTD/svg11.dtd">
<svg xmlns:xlink="http://www.w3.org/1999/xlink" width="712.628235pt" height="846pt" viewBox="0 0 712.628235 846" xmlns="http://www.w3.org/2000/svg" version="1.1">
 <metadata>
  <rdf:RDF xmlns:dc="http://purl.org/dc/elements/1.1/" xmlns:cc="http://creativecommons.org/ns#" xmlns:rdf="http://www.w3.org/1999/02/22-rdf-syntax-ns#">
   <cc:Work>
    <dc:type rdf:resource="http://purl.org/dc/dcmitype/StillImage"/>
    <dc:date>2025-03-16T14:37:54.986935</dc:date>
    <dc:format>image/svg+xml</dc:format>
    <dc:creator>
     <cc:Agent>
      <dc:title>Matplotlib v3.10.1, https://matplotlib.org/</dc:title>
     </cc:Agent>
    </dc:creator>
   </cc:Work>
  </rdf:RDF>
 </metadata>
 <defs>
  <style type="text/css">*{stroke-linejoin: round; stroke-linecap: butt}</style>
 </defs>
 <g id="figure_1">
  <g id="patch_1">
   <path d="M 0 846 
L 712.628235 846 
L 712.628235 0 
L 0 0 
z
" style="fill: #ffffff"/>
  </g>
  <g id="axes_1">
   <g id="PatchCollection_1">
    <path d="M 666.165878 293.055636 
L 671.809073 288.281909 
L 673.690588 284.953662 
L 671.230457 269.616192 
L 662.837147 249.21347 
L 663.850063 245.306222 
L 664.140046 240.097231 
L 659.508417 229.970776 
L 656.325353 219.552796 
L 651.695073 186.707612 
L 610.454158 198.137833 
L 594.391822 199.585338 
L 596.417654 189.746359 
L 594.536139 177.160159 
L 590.050176 164.861436 
L 588.168661 148.367987 
L 584.261315 139.10801 
L 555.031073 142.146756 
L 532.312625 144.750239 
L 498.017804 146.920483 
L 486.874381 142.725758 
L 481.521169 138.38527 
L 480.508253 112.633869 
L 479.205354 86.303466 
L 478.771055 80.877856 
L 473.562159 76.320749 
L 467.340347 67.133653 
L 465.16885 59.756444 
L 458.874205 45 
L 439.990271 67.641798 
L 426.098083 85.578702 
L 415.534626 100.191407 
L 407.575616 100.335145 
L 403.958252 87.171968 
L 397.590774 82.396217 
L 388.908831 82.831481 
L 388.837347 71.257522 
L 383.555619 70.028661 
L 375.450943 67.785536 
L 352.805328 60.914447 
L 349.549431 61.420567 
L 348.825149 75.162746 
L 345.207785 76.247868 
L 336.960142 75.162746 
L 315.326094 66.989915 
L 311.997364 69.520517 
L 310.405832 112.344368 
L 306.282685 149.959229 
L 288.91745 151.985735 
L 265.330403 150.681969 
L 238.27031 145.908242 
L 238.560292 135.925525 
L 237.257394 126.665548 
L 231.324216 108.437119 
L 209.328702 106.266875 
L 185.597338 115.960091 
L 189.504685 148.224249 
L 186.754571 152.129473 
L 181.255692 157.048962 
L 160.707393 167.175418 
L 156.945713 176.145894 
L 173.152366 172.819671 
L 190.661917 173.25291 
L 203.975489 173.25291 
L 220.905075 168.189683 
L 232.048498 166.452678 
L 234.218647 188.734118 
L 239.427543 227.944271 
L 244.926421 274.825182 
L 244.347805 283.939397 
L 241.743357 290.016889 
L 228.141152 303.329878 
L 223.728022 306.368624 
L 222.859423 306.441506 
L 217.794844 302.823758 
L 200.429609 304.271262 
L 194.786413 308.178511 
L 190.590433 317.511369 
L 194.207797 318.379871 
L 208.461451 317.655107 
L 215.26188 316.426247 
L 220.905075 314.253979 
L 221.412207 319.898232 
L 224.668105 325.469605 
L 235.087245 340.879956 
L 239.283226 348.115452 
L 231.831348 357.594073 
L 225.971003 366.493692 
L 215.406197 365.552308 
L 207.665685 385.667554 
L 199.923825 401.513169 
L 193.556348 412.006055 
L 218.15631 429.951056 
L 217.070562 434.870546 
L 214.031814 436.390931 
L 211.788833 441.31042 
L 215.769012 446.086172 
L 206.362787 464.031173 
L 192.181965 485.523066 
L 180.677076 515.0481 
L 174.672414 513.744334 
L 168.016303 526.98849 
L 165.917638 527.277991 
L 166.930554 513.094476 
L 158.754394 510.488968 
L 159.261527 503.251448 
L 131.549984 510.343206 
L 123.590974 514.396217 
L 122.650891 517.617167 
L 122.795208 522.789716 
L 121.528726 525.142164 
L 118.019263 527.059347 
L 105.792789 529.591973 
L 108.03577 538.928881 
L 109.55447 549.276004 
L 115.776282 559.191913 
L 115.776282 564.400904 
L 112.593217 571.782162 
L 108.03577 575.618554 
L 98.701029 578.3678 
L 87.270322 577.572178 
L 84.737358 585.172081 
L 83.797275 598.703713 
L 93.63645 602.902487 
L 92.98635 607.894858 
L 89.730453 634.166551 
L 89.079004 646.036085 
L 105.647123 652.25934 
L 116.427731 652.115602 
L 126.485405 646.325585 
L 133.358666 648.78533 
L 136.97603 653.127842 
L 140.014777 661.090127 
L 141.317676 666.734381 
L 135.528815 673.538662 
L 128.14977 680.197181 
L 121.203676 690.473447 
L 112.810367 696.119726 
L 102.825526 697.133991 
L 91.249152 694.672221 
L 80.830011 690.473447 
L 70.122237 691.34195 
L 55.941415 694.817984 
L 51.455452 700.535119 
L 43.857909 703.646747 
L 47.186639 710.81341 
L 38.937647 715.01016 
L 39.950563 720.800176 
L 56.085732 741.862879 
L 61.440294 744.830768 
L 69.615104 744.251767 
L 72.003751 746.857274 
L 85.967423 758.439331 
L 116.644881 780.081035 
L 136.97603 772.624871 
L 146.382255 762.636081 
L 154.558414 751.41843 
L 177.132545 762.781843 
L 176.336779 769.296624 
L 186.465937 774.291019 
L 187.044553 779.356271 
L 188.491769 785.510694 
L 194.134964 793.400097 
L 206.072804 800.420998 
L 214.17748 801 
L 222.063657 796.367987 
L 226.838253 789.345062 
L 238.27031 774.58052 
L 248.038001 758.004068 
L 251.872515 750.331284 
L 259.108591 737.230866 
L 273.868029 737.376628 
L 286.891618 730.861848 
L 295.863544 722.176823 
L 311.635897 713.779275 
L 330.158365 711.609031 
L 344.773486 700.028999 
L 353.601095 687.288938 
L 359.24429 676.93979 
L 371.18213 682.729807 
L 385.942917 690.692091 
L 392.960495 679.90768 
L 395.276309 672.234896 
L 397.302141 667.459145 
L 400.196571 663.912254 
L 409.239981 655.51673 
L 420.816354 632.646166 
L 424.650868 625.192026 
L 426.605216 608.184359 
L 442.667552 610.862748 
L 455.184008 608.692504 
L 469.727645 604.856112 
L 473.923625 600.875982 
L 474.575075 598.776595 
L 466.977532 591.901457 
L 452.57956 582.13131 
L 454.316758 579.525803 
L 458.005606 573.013047 
L 451.493812 568.237295 
L 456.55974 559.770915 
L 465.675982 562.52016 
L 467.990447 562.593042 
L 470.233429 561.072656 
L 475.370841 545.006373 
L 479.929636 536.829494 
L 490.854561 522.71886 
L 497.437839 512.007329 
L 508.07413 502.382946 
L 496.714906 495.65357 
L 494.183291 492.469061 
L 516.901738 491.746321 
L 520.374785 486.681069 
L 520.01197 481.832437 
L 540.777419 464.683056 
L 544.033316 461.571429 
L 539.764503 457.807918 
L 527.175213 445.217669 
L 551.848009 451.224305 
L 556.189655 443.120307 
L 549.387878 431.107035 
L 546.204813 422.424035 
L 546.059148 418.227286 
L 562.121484 419.024931 
L 572.323475 418.806287 
L 585.129914 418.010666 
L 588.747278 415.117682 
L 585.854196 410.920933 
L 582.235483 409.833786 
L 569.79186 406.145182 
L 557.491204 397.533038 
L 556.839755 391.382664 
L 567.331729 346.740829 
L 570.65911 333.284102 
L 575.579372 323.00986 
L 580.643951 312.012878 
L 584.116998 310.275873 
L 593.233241 311.867115 
L 613.927205 315.484863 
L 624.056364 314.616361 
L 637.079952 309.11787 
L 666.165878 293.055636 
" clip-path="url(#pfb294fbd17)" style="fill: #f29888"/>
   </g>
   <g id="PatchCollection_2">
    <path d="M 383.407255 353.822464 
L 384.217858 355.857068 
L 382.430756 356.606126 
L 381.620154 354.466249 
L 383.407255 353.822464 
" clip-path="url(#pfb294fbd17)" style="fill: #f29888"/>
    <path d="M 373.86076 347.427128 
L 375.151519 347.080942 
L 374.741498 345.947232 
L 376.19141 345.536263 
L 376.50567 346.544454 
L 377.513191 346.293419 
L 377.985256 347.364369 
L 376.788909 347.773314 
L 377.198931 348.844265 
L 375.906823 349.190451 
L 375.529171 348.087109 
L 373.042065 348.907024 
L 372.663064 347.678164 
L 373.86076 347.427128 
" clip-path="url(#pfb294fbd17)" style="fill: #f29888"/>
    <path d="M 386.793982 344.096856 
L 387.770481 348.232872 
L 385.298211 348.751139 
L 384.321712 344.657638 
L 386.793982 344.096856 
" clip-path="url(#pfb294fbd17)" style="fill: #f29888"/>
    <path d="M 384.200324 335.859242 
L 384.336548 336.379534 
L 385.214589 336.215551 
L 386.146579 339.531651 
L 383.404558 340.189608 
L 382.363318 336.351191 
L 384.200324 335.859242 
" clip-path="url(#pfb294fbd17)" style="fill: #f29888"/>
   </g>
   <g id="LineCollection_1">
    <path d="M 435.28581 540.712449 
L 438.425714 552.839091 
L 436.815299 562.933155 
L 443.182777 577.408195 
L 457.942215 586.670197 
L 470.965803 595.934223 
L 474.2452 599.839661 
" clip-path="url(#pfb294fbd17)" style="fill: none; stroke: #f29888; stroke-width: 0.2"/>
    <path d="M 434.83739 609.557071 
L 426.923522 607.417081 
" clip-path="url(#pfb294fbd17)" style="fill: none; stroke: #f29888; stroke-width: 0.2"/>
    <path d="M 476.745223 474.716385 
L 483.996136 469.005324 
L 494.136084 461.024819 
L 502.529393 453.461357 
L 508.264304 448.807074 
L 511.506714 443.652745 
L 512.341594 439.81028 
" clip-path="url(#pfb294fbd17)" style="fill: none; stroke: #f29888; stroke-width: 0.2"/>
    <path d="M 70.215917 744.907125 
L 70.49854 742.810336 
" clip-path="url(#pfb294fbd17)" style="fill: none; stroke: #f29888; stroke-width: 0.2"/>
    <path d="M 70.49854 742.810336 
L 68.513171 743.227379 
L 63.827592 743.776014 
L 59.883829 743.233453 
L 57.228353 742.496203 
" clip-path="url(#pfb294fbd17)" style="fill: none; stroke: #f29888; stroke-width: 0.2"/>
    <path d="M 225.462522 720.322399 
L 224.580436 719.692785 
L 222.060959 719.504508 
L 218.596005 720.134122 
L 213.242792 722.213264 
L 207.57397 724.417924 
L 205.243319 725.237839 
L 203.417104 725.237839 
L 200.897627 723.033179 
L 195.920717 720.5127 
L 192.645938 719.314207 
L 188.552463 717.235065 
L 186.347247 714.779369 
L 182.631424 713.32984 
L 178.347774 709.610868 
L 176.710384 708.539918 
L 173.875299 706.586294 
L 171.104954 704.885729 
L 168.269869 703.877538 
L 166.31687 700.915722 
L 165.120523 698.899338 
L 166.115905 694.469773 
" clip-path="url(#pfb294fbd17)" style="fill: none; stroke: #f29888; stroke-width: 0.2"/>
    <path d="M 329.594585 662.045682 
L 322.398971 666.576471 
L 315.40702 673.382777 
L 307.786548 679.557445 
L 301.611942 682.956549 
L 297.140816 685.416293 
L 283.599305 693.419068 
L 267.095925 702.428009 
L 255.002978 708.351641 
L 238.751816 714.779369 
L 229.933648 719.188689 
L 227.666389 720.134122 
L 225.462522 720.322399 
" clip-path="url(#pfb294fbd17)" style="fill: none; stroke: #f29888; stroke-width: 0.2"/>
    <path d="M 301.611942 682.956549 
L 301.046813 680.879431 
L 298.96838 677.792097 
L 294.495905 672.247043 
L 290.212256 667.017808 
L 286.307607 663.049825 
L 282.087349 658.701239 
L 278.49696 654.668472 
L 275.788658 651.330103 
L 272.575921 646.542205 
L 271.159727 645.005624 
L 267.348142 640.871633 
L 261.238277 635.767916 
L 256.38815 630.980018 
L 251.853632 627.829925 
L 248.199852 624.615049 
L 245.425461 623.44085 
" clip-path="url(#pfb294fbd17)" style="fill: none; stroke: #f29888; stroke-width: 0.2"/>
    <path d="M 196.16754 603.056348 
L 193.965021 604.501828 
L 192.43688 606.985866 
L 188.332616 612.905449 
L 183.272083 618.158978 
L 178.355867 623.839672 
L 171.052353 632.86481 
" clip-path="url(#pfb294fbd17)" style="fill: none; stroke: #f29888; stroke-width: 0.2"/>
    <path d="M 254.087173 609.581251 
L 248.812187 606.36435 
L 242.798084 602.926781 
L 240.316373 601.780925 
L 237.451615 600.683656 
L 235.351602 600.39618 
L 231.914971 600.588505 
L 226.091042 601.398298 
L 219.981177 602.641329 
L 215.445311 604.264963 
L 209.860112 605.41082 
L 205.517117 605.791422 
L 202.223455 605.171931 
L 196.16754 603.056348 
L 195.110115 602.687892 
L 191.338993 601.398298 
L 188.475584 599.776688 
L 185.133366 597.436388 
L 180.837578 593.616192 
L 176.446028 589.366806 
L 173.343889 586.597316 
L 171.099559 585.54661 
L 167.376992 584.927119 
L 160.263653 584.68823 
L 156.302356 584.973682 
L 153.341836 585.451459 
L 147.280526 586.024388 
L 144.940435 585.929237 
L 122.839717 581.775001 
" clip-path="url(#pfb294fbd17)" style="fill: none; stroke: #f29888; stroke-width: 0.2"/>
    <path d="M 400.301774 380.45249 
L 389.95142 392.226873 
L 366.19443 408.293156 
L 342.081369 424.602377 
L 309.828564 448.859711 
L 298.467992 465.76008 
L 292.644063 478.172175 
L 291.211684 485.237614 
L 291.689144 488.389731 
L 293.121523 495.262845 
L 293.693395 505.480402 
L 291.211684 528.49268 
L 290.542701 540.906799 
L 287.679292 551.792434 
L 286.349418 556.250342 
L 285.769453 558.189795 
L 282.961343 566.61771 
L 282.142648 569.075431 
L 276.604656 578.529758 
L 258.465235 603.070519 
L 254.087173 609.581251 
L 248.059582 618.541605 
L 245.425461 623.44085 
L 243.284985 627.42098 
L 233.930013 648.813673 
L 229.824399 654.160328 
L 217.317384 661.610419 
L 166.115905 694.469773 
L 164.045565 695.799858 
L 144.318658 708.155266 
L 125.800237 723.278141 
L 114.462593 731.090614 
L 80.324228 739.534725 
L 70.49854 742.810336 
" clip-path="url(#pfb294fbd17)" style="fill: none; stroke: #f29888; stroke-width: 0.2"/>
    <path d="M 216.512177 516.914672 
L 215.906585 518.611187 
L 215.740688 520.771309 
L 215.367083 522.018389 
L 214.742609 523.099462 
L 213.704066 524.927569 
L 213.080941 525.925638 
L 212.873233 526.964197 
L 212.416004 528.709299 
L 211.916965 530.205391 
L 211.252028 531.660993 
L 210.129863 533.531614 
L 208.925424 535.402234 
L 206.557008 538.602939 
L 205.434843 540.056517 
L 204.187243 541.220593 
L 202.609199 542.259152 
L 200.364869 544.046769 
L 198.120539 545.751382 
L 196.666579 546.789941 
L 195.752123 547.911504 
L 194.963101 548.992577 
L 194.172729 550.156654 
L 193.507793 551.695259 
L 192.095645 555.144975 
L 191.223 556.392056 
L 189.102755 559.592761 
L 187.898316 562.084897 
L 187.315653 563.500009 
L 186.568443 565.992146 
L 185.446278 568.694828 
L 184.074593 570.856974 
L 182.702908 572.10203 
L 180.418115 573.225617 
L 179.212327 574.055654 
L 178.381493 575.053724 
L 177.384762 576.675333 
L 176.013077 578.877969 
L 174.184164 581.580651 
L 173.187433 583.534276 
L 172.854291 585.113371 
L 173.343889 586.597316 
" clip-path="url(#pfb294fbd17)" style="fill: none; stroke: #f29888; stroke-width: 0.2"/>
    <path d="M 251.922419 535.944795 
L 251.811821 536.369936 
L 251.828006 536.920595 
L 251.969625 537.48745 
L 252.000647 537.912591 
L 252.047853 538.732506 
L 252.064038 539.329728 
L 252.300071 539.754869 
L 252.488897 540.275161 
L 252.677722 540.874407 
L 252.804506 541.629539 
L 253.213179 543.267344 
L 253.481581 544.245168 
L 253.607015 544.795827 
L 253.781005 545.567155 
L 253.969831 546.22916 
L 253.922624 546.812211 
L 253.781005 547.174593 
L 253.512602 547.929724 
L 253.307592 548.812398 
L 253.27657 549.630288 
L 253.6232 550.371249 
L 254.501241 551.209384 
L 255.145946 551.758018 
L 255.742096 552.426097 
L 256.243834 553.071907 
L 256.64846 553.571953 
L 257.102991 554.242057 
L 257.556173 554.695541 
L 258.080839 555.124731 
L 258.845584 555.529627 
L 259.488941 555.817103 
L 260.44386 556.175436 
L 261.661787 556.556039 
L 262.520944 556.819221 
L 263.331547 557.272705 
L 264.096292 557.845633 
L 264.692442 558.347705 
L 265.432909 558.681744 
L 266.912494 559.015783 
L 268.106143 559.374117 
L 269.322721 559.851894 
L 270.038911 559.947045 
L 271.161076 560.16164 
L 271.661464 560.639417 
L 272.091718 561.33179 
L 272.473416 561.904718 
L 272.807907 562.263051 
L 273.61851 562.811686 
L 274.334699 563.289463 
L 275.313896 563.718653 
L 275.86284 563.838098 
L 276.507545 564.004105 
L 277.199457 564.43532 
L 277.867091 565.079105 
L 278.654765 565.771477 
L 279.085018 566.12981 
L 279.656891 566.415262 
L 280.230112 566.488144 
L 280.754778 566.488144 
L 281.185031 566.344405 
L 281.733975 566.344405 
L 282.307196 566.392993 
L 282.961343 566.61771 
" clip-path="url(#pfb294fbd17)" style="fill: none; stroke: #f29888; stroke-width: 0.2"/>
    <path d="M 352.986907 688.175338 
L 352.953692 687.606782 
L 352.291452 685.930512 
L 347.469649 681.626464 
L 338.257645 671.919077 
L 332.281307 663.416256 
L 329.594585 662.045682 
L 335.680172 661.60637 
L 340.944367 660.290457 
L 343.795638 661.387726 
L 345.988715 663.582263 
L 350.814564 666.214089 
L 360.026569 662.703638 
L 370.335111 654.806137 
L 380.205308 647.12728 
L 386.784541 644.932742 
L 391.830237 641.861604 
L 397.312931 641.422292 
L 408.937859 636.156616 
L 422.572156 629.232958 
" clip-path="url(#pfb294fbd17)" style="fill: none; stroke: #f29888; stroke-width: 0.2"/>
    <path d="M 426.857006 608.226345 
L 426.923522 607.417081 
L 400.384048 606.099143 
" clip-path="url(#pfb294fbd17)" style="fill: none; stroke: #f29888; stroke-width: 0.2"/>
    <path d="M 338.257645 671.919077 
L 353.301671 677.288001 
L 358.349952 678.579932 
" clip-path="url(#pfb294fbd17)" style="fill: none; stroke: #f29888; stroke-width: 0.2"/>
    <path d="M 384.752751 690.05009 
L 386.031958 690.555256 
" clip-path="url(#pfb294fbd17)" style="fill: none; stroke: #f29888; stroke-width: 0.2"/>
    <path d="M 411.305837 651.435374 
L 407.03565 657.563139 
" clip-path="url(#pfb294fbd17)" style="fill: none; stroke: #f29888; stroke-width: 0.2"/>
    <path d="M 398.245091 666.303636 
L 397.291351 667.155473 
L 396.51051 669.325358 
" clip-path="url(#pfb294fbd17)" style="fill: none; stroke: #f29888; stroke-width: 0.2"/>
    <path d="M 394.302724 675.46059 
L 392.383135 680.794949 
" clip-path="url(#pfb294fbd17)" style="fill: none; stroke: #f29888; stroke-width: 0.2"/>
    <path d="M 329.594585 662.045682 
L 329.233118 660.118376 
L 329.013271 658.581795 
L 328.793424 657.265882 
L 328.355078 655.840647 
L 327.696885 654.413388 
L 327.20324 652.82417 
L 327.093991 651.67224 
L 326.984742 650.080998 
L 327.367789 648.599078 
L 327.696885 647.064521 
L 328.245829 645.363957 
L 328.628875 643.718053 
L 329.233118 642.292819 
L 329.726763 640.756237 
L 330.548155 638.837029 
L 331.426196 637.245787 
L 332.467435 635.217257 
L 334.495964 632.528746 
L 335.7584 630.445555 
L 337.073437 628.524322 
L 337.786929 627.099087 
L 338.554372 625.070557 
L 339.65091 622.657375 
L 340.199854 620.187508 
L 340.582901 617.610344 
L 340.856698 615.745796 
L 341.131844 613.881249 
L 341.21277 612.23737 
" clip-path="url(#pfb294fbd17)" style="fill: none; stroke: #f29888; stroke-width: 0.2"/>
    <path d="M 271.159727 645.005624 
L 272.407327 645.710143 
L 273.174769 646.230435 
L 274.05146 647.026056 
L 274.709653 647.712355 
L 275.505419 648.507976 
L 276.217563 649.165932 
L 276.904079 649.631563 
L 277.451674 649.795546 
L 278.109867 649.823889 
L 278.850334 649.686224 
L 279.864599 649.246912 
L 289.81707 640.47281 
L 292.421518 638.496916 
L 294.093976 637.318668 
L 295.766433 636.304403 
L 297.383592 635.316456 
L 298.617704 634.767822 
L 300.043339 634.302191 
L 301.277451 634.026862 
L 303.003858 633.808218 
L 304.703291 633.698896 
L 306.348774 633.50657 
L 308.926246 633.451909 
L 310.160358 633.532888 
L 311.668268 633.753557 
L 312.709507 633.91754 
L 313.861345 633.834536 
L 314.601812 633.561231 
L 315.451528 633.17658 
L 316.163672 632.573284 
L 317.946727 629.967777 
L 320.522851 626.594991 
L 322.359857 624.758787 
L 324.142913 623.193863 
L 325.787046 622.070276 
L 327.185706 621.412319 
L 329.434083 620.699702 
L 331.873983 619.875738 
L 333.190369 619.355446 
L 334.258583 618.231859 
L 335.657243 616.666935 
L 337.02758 615.324704 
L 338.782311 614.03511 
L 341.21277 612.23737 
" clip-path="url(#pfb294fbd17)" style="fill: none; stroke: #f29888; stroke-width: 0.2"/>
    <path d="M 348.881797 575.314882 
L 349.422648 578.91036 
L 348.850776 582.157628 
L 346.940937 586.358427 
L 345.700081 589.127917 
L 347.418397 592.660637 
L 349.51841 595.144675 
L 350.187393 598.772546 
L 349.04095 603.355971 
L 345.508558 607.176167 
L 341.21277 612.23737 
" clip-path="url(#pfb294fbd17)" style="fill: none; stroke: #f29888; stroke-width: 0.2"/>
    <path d="M 436.815299 562.933155 
L 430.159188 574.223686 
L 428.423339 597.960729 
L 426.923522 607.417081 
" clip-path="url(#pfb294fbd17)" style="fill: none; stroke: #f29888; stroke-width: 0.2"/>
    <path d="M 286.349418 556.250342 
L 289.181806 557.614842 
L 292.331152 557.902319 
L 296.628288 556.373835 
L 301.974758 553.223743 
L 305.793086 553.796671 
L 310.662096 555.896058 
L 316.676199 555.896058 
L 323.64657 556.468986 
L 326.891678 559.143326 
L 347.704333 574.709562 
L 348.881797 575.314882 
L 357.156416 579.578439 
L 393.243734 603.548297 
L 400.384048 606.099143 
" clip-path="url(#pfb294fbd17)" style="fill: none; stroke: #f29888; stroke-width: 0.2"/>
    <path d="M 443.499734 453.866253 
L 459.524305 462.921758 
L 462.345903 465.092001 
L 468.134764 468.059891 
L 473.416493 471.604758 
L 476.745223 474.716385 
L 475.152342 476.742891 
L 469.58198 482.241382 
L 465.023184 486.946276 
L 460.320072 493.240388 
L 456.268408 498.595141 
L 456.919857 502.069151 
L 457.788456 504.818397 
L 454.532559 509.23379 
L 448.165082 518.279172 
L 443.534802 527.976437 
L 439.048839 538.106941 
L 437.023008 540.639567 
L 435.28581 540.712449 
L 415.750426 533.114571 
L 399.978073 527.541174 
L 392.597679 522.475922 
L 384.855819 513.286802 
L 377.259625 506.195044 
L 376.098346 504.447916 
" clip-path="url(#pfb294fbd17)" style="fill: none; stroke: #f29888; stroke-width: 0.2"/>
    <path d="M 199.613902 402.023888 
L 200.058701 402.043583 
L 202.652359 402.450503 
L 205.781473 404.132847 
L 208.422338 405.815191 
L 211.641818 408.003655 
L 214.807349 410.319662 
L 217.593879 412.70855 
L 222.802775 416.795977 
L 225.335739 418.877144 
L 227.776987 421.13849 
L 231.142134 423.616455 
" clip-path="url(#pfb294fbd17)" style="fill: none; stroke: #f29888; stroke-width: 0.2"/>
    <path d="M 217.454957 515.388213 
L 217.728755 516.088684 
L 218.063246 516.637318 
L 218.469222 517.115096 
L 218.707952 517.519992 
L 218.970959 517.997769 
L 219.424141 518.641554 
L 219.997362 519.645697 
L 220.497751 520.242919 
L 220.832242 520.696403 
L 221.09525 521.006148 
L 221.381186 521.459632 
L 221.834368 521.842259 
L 222.16886 522.437457 
L 222.479074 522.89094 
L 222.836494 523.344424 
L 223.170985 523.846496 
L 223.672723 524.634019 
L 224.197389 525.279828 
L 225.080824 526.567398 
L 225.438244 527.277991 
L 225.548842 527.545223 
L 225.910309 527.798283 
L 226.053277 528.08171 
L 226.320331 528.616173 
L 226.714168 529.452284 
L 227.108004 530.160853 
L 227.580069 530.962547 
L 227.799916 531.26217 
L 228.037297 531.812829 
L 228.493177 532.695503 
L 228.903199 533.310945 
L 229.170253 533.736086 
L 229.438655 534.082273 
L 229.721894 534.679495 
L 229.988947 535.325304 
L 230.193958 535.782837 
L 230.351763 536.365887 
L 230.556774 536.774833 
L 230.807642 537.137215 
L 231.012653 537.453034 
L 231.233849 537.971301 
L 231.469882 538.254728 
L 231.75312 538.728457 
L 231.878555 539.058448 
L 231.989153 539.671865 
L 232.194164 540.254916 
L 232.399175 540.900725 
L 232.666228 541.311695 
L 233.107272 541.908917 
L 233.421532 542.161977 
L 233.815368 542.224736 
L 234.383195 542.224736 
L 234.744661 542.192344 
L 235.532335 542.334058 
L 236.209411 542.382646 
L 236.728682 542.334058 
L 237.374736 542.271299 
L 237.783409 542.066827 
L 238.224452 541.925113 
L 238.587268 541.767203 
L 238.964919 541.751008 
L 239.610973 541.846158 
L 240.224657 541.971676 
L 240.917918 542.050631 
L 241.531602 542.192344 
L 242.161471 542.255103 
L 242.633536 542.287495 
L 243.248569 542.303691 
L 243.59385 542.334058 
L 243.878438 542.538531 
L 244.161676 542.996064 
L 244.287111 543.358446 
L 244.664762 543.751195 
L 244.902144 543.909105 
L 245.216404 544.176336 
L 245.532013 544.57111 
L 245.846273 544.9011 
L 246.365544 545.042814 
L 246.853794 545.184528 
L 247.24763 545.405196 
L 247.814108 545.767578 
L 248.176923 546.099593 
L 248.585596 546.192719 
L 248.948412 546.241307 
L 249.295042 546.28787 
L 249.656509 546.538906 
L 250.003139 547.02883 
L 250.239171 547.437775 
L 250.570965 547.972238 
L 250.806998 548.383208 
L 251.215671 548.871108 
L 251.687735 549.280053 
L 252.302768 549.767953 
L 252.664235 549.988622 
L 253.6232 550.371249 
" clip-path="url(#pfb294fbd17)" style="fill: none; stroke: #f29888; stroke-width: 0.2"/>
    <path d="M 107.276421 533.373704 
L 114.006714 532.345268 
L 118.918883 531.399835 
L 122.603685 530.203367 
L 126.194074 528.502802 
L 130.162114 526.674696 
L 133.941329 525.099649 
L 140.964302 522.957748 
L 145.059125 521.730913 
L 149.84586 520.060716 
L 153.15301 518.736705 
L 154.915835 517.665754 
L 157.015848 516.548241 
" clip-path="url(#pfb294fbd17)" style="fill: none; stroke: #f29888; stroke-width: 0.2"/>
    <path d="M 122.839717 581.775001 
L 121.973816 580.536019 
L 120.997316 578.298967 
L 119.957425 576.723921 
L 118.761079 575.116483 
L 117.784579 572.628395 
L 117.911362 569.573453 
L 118.7921 565.540686 
L 118.828517 564.694453 
L 118.886513 563.336026 
L 117.784579 560.878306 
L 116.713667 558.201942 
L 115.989385 556.910323 
L 115.642755 556.090408 
L 115.486299 553.948507 
L 115.737168 550.830806 
L 115.328495 546.389094 
L 115.076277 544.058916 
L 113.974343 541.821864 
L 112.148128 539.584813 
L 110.572781 537.475303 
L 108.053304 534.07215 
L 107.276421 533.373704 
L 106.54329 532.716099 
" clip-path="url(#pfb294fbd17)" style="fill: none; stroke: #f29888; stroke-width: 0.2"/>
    <path d="M 118.828517 564.694453 
L 122.17478 560.072563 
L 124.634912 556.236171 
L 126.733576 553.053686 
L 127.963642 550.808537 
L 129.265191 547.480289 
L 130.640922 545.453784 
L 133.028221 544.29578 
L 137.731333 543.06692 
L 141.565847 541.836036 
L 143.157379 540.967533 
L 144.531761 539.230528 
L 145.40036 536.914522 
L 146.340443 534.165276 
L 147.716175 531.416031 
L 150.826406 525.842634 
L 153.14222 521.862504 
L 156.108135 518.171875 
L 157.015848 516.548241 
L 157.483866 515.71213 
L 158.496782 511.659119 
L 158.825097 509.479938 
" clip-path="url(#pfb294fbd17)" style="fill: none; stroke: #f29888; stroke-width: 0.2"/>
    <path d="M 201.245963 471.786029 
L 202.188387 470.924532 
L 205.179928 466.671097 
L 209.147968 460.593604 
L 212.360705 455.710555 
L 214.47016 451.112959 
L 219.824722 441.033067 
L 223.835922 434.797664 
" clip-path="url(#pfb294fbd17)" style="fill: none; stroke: #f29888; stroke-width: 0.2"/>
    <path d="M 263.247924 443.838998 
L 264.165078 446.454627 
L 264.599378 447.57619 
L 266.389177 450.724258 
L 266.859893 451.248599 
L 268.270692 453.238664 
L 268.994974 454.271149 
L 269.754323 454.850151 
L 270.079374 455.338051 
L 270.947972 457.688474 
L 271.074756 458.069076 
L 271.165122 459.931599 
L 271.363389 461.308246 
L 271.455105 462.464225 
L 271.363389 463.47849 
L 271.490172 463.73155 
L 271.580539 464.23767 
L 271.509055 465.594073 
L 271.455105 467.242 
L 271.165122 467.982961 
L 270.676872 468.345343 
L 270.296523 469.213845 
L 270.007889 469.357583 
L 269.120408 470.424485 
L 268.208649 471.663467 
L 267.508644 473.102874 
L 266.947562 474.062478 
L 266.783014 474.335783 
L 266.275881 474.91276 
L 265.45314 475.995857 
L 262.984916 479.162146 
L 262.60187 480.285733 
L 260.833651 483.824526 
L 260.558504 484.330647 
L 260.244244 484.672784 
L 259.80455 485.510919 
L 258.721498 487.49896 
L 257.597985 489.650983 
L 258.503 491.116708 
L 259.819386 492.515624 
L 260.229408 493.270756 
L 260.915925 494.997638 
L 261.025174 495.532101 
L 260.998199 496.931018 
L 261.052149 497.738786 
L 260.737889 499.301685 
L 260.669102 500.330122 
L 260.558504 502.004368 
L 260.600316 503.634075 
L 260.380468 504.690854 
L 260.284707 507.089864 
L 260.133646 507.844996 
L 260.175458 508.762086 
L 260.202433 509.462556 
L 259.997422 510.161002 
L 259.846361 510.982942 
L 259.80455 511.999231 
L 259.997422 512.313026 
L 260.257732 513.863779 
L 260.366981 515.274842 
L 260.133646 516.001631 
L 260.120159 517.852007 
L 259.942123 518.30549 
L 259.708788 519.018108 
L 259.065431 520.910998 
L 258.543463 522.376722 
L 257.995868 523.022532 
L 257.749045 523.324179 
L 256.049613 526.435807 
L 255.665217 527.039102 
L 255.39142 527.300261 
L 255.075811 528.395505 
L 254.757504 529.895645 
L 253.323777 531.723752 
L 252.58331 532.369562 
L 252.332441 532.952612 
L 252.347277 533.754307 
L 252.521267 534.462875 
L 252.363462 535.015559 
L 251.922419 535.944795 
L 251.922419 535.944795 
" clip-path="url(#pfb294fbd17)" style="fill: none; stroke: #f29888; stroke-width: 0.2"/>
    <path d="M 234.291479 418.798189 
L 234.77838 421.917915 
L 236.918856 425.950681 
L 244.729503 429.477328 
L 260.728448 437.287776 
L 263.500141 440.059291 
L 263.247924 443.838998 
L 244.98172 469.163233 
L 230.999166 493.479277 
L 217.454957 515.388213 
L 216.512177 516.914672 
" clip-path="url(#pfb294fbd17)" style="fill: none; stroke: #f29888; stroke-width: 0.2"/>
    <path d="M 193.592021 412.032077 
L 193.68448 411.898757 
L 196.676021 407.647347 
L 198.912258 403.930399 
L 200.058701 402.043583 
" clip-path="url(#pfb294fbd17)" style="fill: none; stroke: #f29888; stroke-width: 0.2"/>
    <path d="M 370.302741 302.380396 
L 348.550003 309.702945 
L 335.700404 314.112265 
L 334.719858 315.383639 
L 332.298841 318.521585 
L 320.802044 327.805856 
L 319.197024 329.101524 
L 308.238381 340.062065 
L 278.885402 358.328959 
L 265.658151 369.287476 
L 261.052149 376.541193 
L 254.699508 386.546179 
L 234.291479 418.798189 
L 231.142134 423.616455 
L 223.835922 434.797664 
" clip-path="url(#pfb294fbd17)" style="fill: none; stroke: #f29888; stroke-width: 0.2"/>
    <path d="M 200.058701 402.043583 
L 202.880299 396.49448 
L 206.445061 389.366281 
L 207.294777 387.611056 
L 208.911936 383.910304 
L 210.315945 378.78033 
" clip-path="url(#pfb294fbd17)" style="fill: none; stroke: #f29888; stroke-width: 0.2"/>
    <path d="M 215.680382 316.26515 
L 216.404276 314.922057 
" clip-path="url(#pfb294fbd17)" style="fill: none; stroke: #f29888; stroke-width: 0.2"/>
    <path d="M 518.518897 390.196318 
L 521.049163 390.265151 
L 522.264393 390.767222 
L 523.545711 391.295612 
L 526.891975 392.850413 
L 533.655987 394.69674 
L 538.522298 395.129979 
L 543.948344 395.818303 
L 552.09618 398.097869 
L 558.53649 400.25799 
L 562.068882 402.211615 
L 565.517652 404.788779 
L 576.073017 408.694003 
L 581.600219 410.398617 
L 584.84128 411.062646 
L 586.713316 412.167185 
" clip-path="url(#pfb294fbd17)" style="fill: none; stroke: #f29888; stroke-width: 0.2"/>
    <path d="M 521.309473 386.260727 
L 522.264393 390.767222 
" clip-path="url(#pfb294fbd17)" style="fill: none; stroke: #f29888; stroke-width: 0.2"/>
    <path d="M 543.070304 352.188708 
L 538.297056 356.559563 
L 535.77758 361.851557 
L 533.005886 366.386395 
L 529.54228 372.559038 
L 523.621241 379.865391 
L 522.424895 383.266519 
L 521.309473 386.260727 
L 521.038373 386.983467 
L 518.518897 390.196318 
L 515.873986 390.070801 
L 509.323078 388.370236 
L 502.962344 388.684031 
L 496.159218 388.179935 
L 491.120266 389.629464 
L 487.529877 392.147918 
L 484.380531 393.597447 
L 481.294578 394.668397 
L 476.947537 393.913266 
L 472.349627 392.779556 
L 466.933023 392.526496 
L 462.673651 392.639867 
L 460.445506 392.779556 
L 460.046274 390.362326 
" clip-path="url(#pfb294fbd17)" style="fill: none; stroke: #f29888; stroke-width: 0.2"/>
    <path d="M 533.01263 315.701483 
L 537.168147 317.531614 
L 542.321744 321.187827 
L 544.731972 324.595029 
L 548.472072 329.498322 
L 551.131819 331.658444 
L 554.12336 334.069601 
L 556.61721 336.312726 
L 555.952273 338.059853 
L 551.62951 343.295162 
L 543.070304 352.188708 
" clip-path="url(#pfb294fbd17)" style="fill: none; stroke: #f29888; stroke-width: 0.2"/>
    <path d="M 400.301774 380.45249 
L 403.001984 378.859224 
L 406.201233 374.121938 
L 411.313019 364.35584 
L 414.385485 358.673121 
L 420.662596 347.068795 
L 428.268232 337.630663 
L 445.053501 325.040415 
L 464.950351 312.235571 
L 476.020941 307.45982 
L 487.741632 297.764579 
L 492.428559 292.756013 
L 495.122025 289.879225 
L 500.259437 286.840478 
L 503.427665 286.020563 
L 508.94138 284.597353 
L 524.20795 280.038221 
L 568.631929 270.994864 
" clip-path="url(#pfb294fbd17)" style="fill: none; stroke: #f29888; stroke-width: 0.2"/>
    <path d="M 568.631929 270.994864 
L 568.993396 270.93008 
L 605.829274 264.431496 
L 624.911475 258.947176 
L 645.528561 252.039646 
L 657.591835 247.215307 
L 658.166405 246.917709 
L 660.772202 245.569404 
L 661.97799 241.184378 
L 660.762761 234.15133 
L 657.153489 233.507545 
L 637.962039 239.647797 
L 609.886332 248.749864 
L 590.365785 254.122837 
L 574.574549 259.058523 
L 567.884719 260.593079 
L 568.631929 270.994864 
" clip-path="url(#pfb294fbd17)" style="fill: none; stroke: #f29888; stroke-width: 0.2"/>
    <path d="M 555.952273 338.059853 
L 557.50604 337.679251 
L 558.626857 337.38975 
L 559.676189 337.38975 
L 560.761938 337.535513 
L 561.774854 338.185371 
L 563.11282 339.199636 
L 565.500118 341.296999 
L 566.151567 341.730238 
L 566.803016 341.83956 
L 567.888765 341.912441 
L 568.587981 341.660242 
" clip-path="url(#pfb294fbd17)" style="fill: none; stroke: #f29888; stroke-width: 0.2"/>
    <path d="M 581.569067 311.550192 
L 581.713515 311.02898 
L 582.180184 309.933736 
L 582.253017 309.634113 
L 582.563231 308.370836 
L 582.563231 307.822202 
L 582.289434 306.753276 
L 581.411393 304.477759 
L 580.534702 302.584869 
L 579.711961 300.720322 
L 578.862244 298.746452 
L 578.039503 296.938591 
L 577.052214 294.551727 
L 575.654902 291.838923 
L 574.803837 290.413688 
L 574.47609 289.644385 
L 574.283218 288.49448 
L 574.229267 287.397211 
L 574.036395 286.164302 
L 573.515775 284.299754 
L 571.623471 279.639399 
L 570.417683 276.404278 
L 569.430393 273.33314 
L 568.993396 270.93008 
" clip-path="url(#pfb294fbd17)" style="fill: none; stroke: #f29888; stroke-width: 0.2"/>
    <path d="M 582.253017 309.634113 
L 582.827587 309.328416 
L 583.44262 309.020695 
L 584.075187 308.876957 
L 585.414502 308.895177 
L 587.911049 309.346636 
L 591.709146 310.03496 
L 594.78431 310.79414 
L 599.649273 311.842822 
L 603.158737 312.476484 
L 606.812517 313.144563 
L 609.706948 313.506945 
L 611.533163 313.616267 
L 614.663626 313.741785 
L 617.122409 313.778226 
L 618.38889 313.723565 
L 619.872522 313.652708 
L 622.115504 313.144563 
L 631.46643 309.184678 
L 637.291707 306.508313 
L 642.066304 304.101205 
L 647.674432 301.60502 
L 651.689678 299.361895 
L 655.704925 297.426491 
L 659.756589 295.545748 
L 662.433869 294.405965 
L 664.423285 293.302622 
L 668.022825 291.484795 
" clip-path="url(#pfb294fbd17)" style="fill: none; stroke: #f29888; stroke-width: 0.2"/>
    <path d="M 500.38622 259.552496 
L 502.471397 262.232909 
L 504.445976 265.962003 
L 506.8589 269.470429 
L 507.735592 274.076124 
L 509.81942 277.365906 
L 510.257766 279.997732 
L 503.427665 286.020563 
" clip-path="url(#pfb294fbd17)" style="fill: none; stroke: #f29888; stroke-width: 0.2"/>
    <path d="M 673.356556 285.544536 
L 671.067257 282.807712 
L 669.663202 269.725514 
L 667.773595 262.797739 
L 664.183206 253.91634 
L 658.166405 246.917709 
" clip-path="url(#pfb294fbd17)" style="fill: none; stroke: #f29888; stroke-width: 0.2"/>
    <path d="M 301.974758 553.223743 
L 316.788146 547.802182 
L 326.362965 548.306278 
L 333.41696 547.298086 
L 340.723171 540.997901 
L 346.266559 530.918009 
L 354.580291 522.60144 
L 360.878982 518.570698 
L 368.689629 514.286895 
L 374.849398 507.780213 
L 376.098346 504.447916 
L 377.116657 501.733087 
L 381.525741 494.928806 
L 391.099211 488.252067 
L 398.909858 481.322267 
L 407.475808 472.376085 
L 411.759457 468.345343 
L 413.774499 468.470861 
L 417.050627 470.234184 
L 419.947755 472.503627 
L 424.609056 472.250567 
L 429.270358 468.974956 
L 439.851349 458.769547 
L 443.499734 453.866253 
L 447.536561 448.438619 
L 456.73238 435.210659 
L 464.146493 423.602283 
" clip-path="url(#pfb294fbd17)" style="fill: none; stroke: #f29888; stroke-width: 0.2"/>
    <path d="M 411.759457 468.345343 
L 411.068894 464.438094 
L 404.959029 457.038615 
L 396.318897 447.873789 
L 392.643537 444.770259 
L 389.540049 439.565318 
L 385.482991 433.121394 
L 379.038634 425.578177 
L 373.167499 417.27173 
L 366.19443 408.293156 
" clip-path="url(#pfb294fbd17)" style="fill: none; stroke: #f29888; stroke-width: 0.2"/>
    <path d="M 263.500141 440.059291 
L 271.305393 434.13161 
L 286.867341 426.873845 
L 294.981457 424.20153 
L 305.196936 421.814666 
L 313.843811 414.674321 
L 322.436736 415.293812 
L 325.348701 413.289576 
L 330.074742 404.2199 
L 333.654341 401.928187 
L 339.668444 395.625977 
L 343.106423 393.143963 
L 350.361382 390.040433 
L 357.091675 386.031961 
L 362.105002 383.215907 
L 367.594439 380.875607 
L 372.653623 379.683187 
L 379.289503 376.723396 
L 383.346561 373.334414 
L 388.215571 369.37048 
L 392.023109 367.586912 
" clip-path="url(#pfb294fbd17)" style="fill: none; stroke: #f29888; stroke-width: 0.2"/>
    <path d="M 379.851934 333.385326 
L 380.23633 335.239751 
L 380.619377 337.980899 
L 381.003772 341.052037 
L 381.386819 344.724446 
L 381.826513 346.918983 
L 382.20956 349.275479 
L 382.264859 350.921383 
L 382.100311 352.073312 
L 381.27757 353.279903 
L 371.188874 360.187433 
L 343.265577 377.049337 
" clip-path="url(#pfb294fbd17)" style="fill: none; stroke: #f29888; stroke-width: 0.2"/>
    <path d="M 414.385485 358.673121 
L 414.648493 360.37571 
L 414.287026 362.981217 
L 414.106293 365.187902 
L 414.974892 366.852025 
L 417.90439 368.443268 
L 421.55817 369.238889 
L 424.777651 371.192513 
L 433.893893 379.442274 
L 444.964483 388.594954 
L 448.473947 390.585019 
L 454.189975 391.923201 
L 459.254554 391.12758 
L 460.046274 390.362326 
L 463.306218 387.220331 
L 475.084904 375.709131 
L 488.714085 363.242375 
L 497.607782 351.937672 
L 512.899979 336.563762 
L 533.01263 315.701483 
L 526.862302 310.715185 
L 515.559726 306.809961 
L 510.655649 302.570698 
L 504.672567 298.831481 
L 498.438616 296.171312 
L 492.428559 292.756013 
" clip-path="url(#pfb294fbd17)" style="fill: none; stroke: #f29888; stroke-width: 0.2"/>
    <path d="M 334.719858 315.383639 
L 332.020997 312.523047 
L 329.81713 310.854875 
L 327.17087 308.838491 
L 325.155829 307.233078 
L 323.391656 306.257278 
L 321.56544 305.028418 
L 319.89568 303.894708 
L 318.60492 302.289295 
L 317.94403 300.619098 
L 317.849617 298.855774 
L 318.416094 296.209777 
L 319.360224 293.786473 
L 320.084506 291.802482 
L 320.369093 290.320562 
L 320.116876 288.810299 
L 318.888159 285.755356 
L 316.651921 278.702064 
L 315.486596 273.883799 
L 313.22743 267.484413 
" clip-path="url(#pfb294fbd17)" style="fill: none; stroke: #f29888; stroke-width: 0.2"/>
    <path d="M 567.884719 260.593079 
L 565.80089 253.683525 
L 558.234369 245.241438 
L 554.28656 240.087109 
L 548.802517 241.073031 
L 517.109447 253.136915 
L 500.38622 259.552496 
L 498.247093 260.372411 
L 478.177602 267.063321 
L 459.973441 276.054042 
L 443.961009 286.03271 
L 429.046464 296.450691 
L 424.111365 297.217969 
L 415.043678 295.723902 
L 414.131919 295.57409 
L 404.261722 295.464768 
L 395.707911 296.122725 
L 382.767945 299.631151 
L 370.924518 304.064765 
" clip-path="url(#pfb294fbd17)" style="fill: none; stroke: #f29888; stroke-width: 0.2"/>
    <path d="M 350.937301 68.319999 
L 350.842888 77.695372 
L 351.515918 106.738579 
L 351.399925 129.246762 
L 349.759837 163.687236 
L 350.718803 183.085816 
L 351.55638 212.066264 
L 351.436341 233.742385 
L 358.742553 268.58978 
L 370.302741 302.380396 
L 370.924518 304.064765 
L 377.225906 324.467486 
L 379.851934 333.385326 
L 389.341782 335.393612 
L 395.892691 338.778544 
L 396.603485 345.15566 
L 394.177073 354.383246 
L 392.023109 367.586912 
L 391.727732 371.459745 
L 400.301774 380.45249 
L 409.987192 386.048156 
L 423.198258 399.598009 
L 436.917805 408.406527 
L 463.002747 423.142726 
L 464.146493 423.602283 
L 490.441841 434.153879 
L 512.341594 439.81028 
L 516.016954 440.759762 
L 517.994231 441.452134 
L 532.360059 446.479929 
" clip-path="url(#pfb294fbd17)" style="fill: none; stroke: #f29888; stroke-width: 0.2"/>
    <path d="M 358.742553 268.58978 
L 348.045568 270.778244 
L 334.5661 272.165014 
L 320.205894 270.276173 
L 313.22743 267.484413 
L 312.017595 267.000562 
L 306.599642 260.827919 
L 304.584601 253.145013 
L 306.369005 250.873545 
L 307.356294 249.616342 
L 314.410289 245.83866 
L 324.740412 241.052786 
L 335.825838 237.902694 
L 351.436341 233.742385 
" clip-path="url(#pfb294fbd17)" style="fill: none; stroke: #f29888; stroke-width: 0.2"/>
    <path d="M 495.72357 198.903087 
L 491.271326 196.325923 
L 489.81467 195.783362 
L 487.831998 195.639624 
L 478.536371 196.3158 
L 465.650356 199.769565 
L 448.707282 207.665042 
L 436.314911 212.983354 
L 414.734813 236.995726 
L 408.834005 243.727126 
L 406.755572 252.620672 
L 409.415319 264.087334 
L 411.576026 277.552159 
L 413.570837 287.441749 
L 415.043678 295.723902 
" clip-path="url(#pfb294fbd17)" style="fill: none; stroke: #f29888; stroke-width: 0.2"/>
    <path d="M 554.28656 240.087109 
L 552.47518 222.391119 
L 551.788663 219.645922 
L 549.668419 210.547903 
L 549.455315 208.144844 
L 549.300208 206.349129 
L 548.934696 204.563537 
L 548.454538 193.321593 
L 548.563788 185.875551 
L 547.888061 147.319306 
" clip-path="url(#pfb294fbd17)" style="fill: none; stroke: #f29888; stroke-width: 0.2"/>
    <path d="M 487.831998 195.639624 
L 489.222566 195.196262 
L 490.50793 194.653701 
L 491.48443 194.127336 
L 492.207363 193.550359 
L 492.858812 192.807374 
L 493.744945 190.999513 
L 495.099096 188.428421 
" clip-path="url(#pfb294fbd17)" style="fill: none; stroke: #f29888; stroke-width: 0.2"/>
    <path d="M 551.788663 219.645922 
L 540.046393 215.117157 
L 525.811621 211.590511 
L 508.30207 204.411701 
L 495.72357 198.903087 
L 495.099096 188.428421 
L 492.800816 149.847883 
" clip-path="url(#pfb294fbd17)" style="fill: none; stroke: #f29888; stroke-width: 0.2"/>
    <path d="M 492.800816 149.847883 
L 493.274229 149.5847 
L 495.60488 149.333664 
L 507.256784 148.483382 
L 511.162781 147.821377 
L 513.996518 147.224155 
L 516.515994 147.066246 
L 518.657819 146.940728 
L 520.106383 146.973119 
L 521.776143 147.098637 
L 523.538967 147.129004 
L 527.350552 147.475191 
L 534.341155 147.728251 
L 538.81363 147.695859 
L 547.888061 147.319306 
" clip-path="url(#pfb294fbd17)" style="fill: none; stroke: #f29888; stroke-width: 0.2"/>
    <path d="M 547.888061 147.319306 
L 554.753307 142.178588 
" clip-path="url(#pfb294fbd17)" style="fill: none; stroke: #f29888; stroke-width: 0.2"/>
    <path d="M 261.052149 376.541193 
L 258.693175 374.421561 
L 256.425916 372.028624 
L 253.465396 368.374435 
L 251.071354 364.847789 
L 248.488486 360.942565 
L 246.851096 357.982773 
L 244.899446 355.336776 
L 242.37997 350.927456 
L 240.930057 347.14775 
L 238.978407 344.817572 
L 236.836582 341.85778 
L 234.821541 338.960748 
L 232.741759 336.063715 
L 231.104369 333.480477 
L 229.473723 330.761599 
L 227.801265 328.018427 
L 226.457904 326.593192 
L 224.538624 324.510001 
L 222.89449 322.398467 
L 221.687354 320.205953 
L 221.317416 318.84323 
" clip-path="url(#pfb294fbd17)" style="fill: none; stroke: #f29888; stroke-width: 0.2"/>
    <path d="M 221.036737 315.71934 
L 221.166734 314.640655 
L 221.998916 311.978462 
" clip-path="url(#pfb294fbd17)" style="fill: none; stroke: #f29888; stroke-width: 0.2"/>
    <path d="M 197.934556 318.190375 
L 199.076807 317.979024 
L 203.779919 317.616642 
L 209.494599 317.03764 
L 216.404276 314.922057 
L 217.162277 314.529308 
L 218.919706 313.620316 
L 221.998916 311.978462 
L 222.175603 311.883311 
L 224.726101 309.381052 
L 232.787616 300.815472 
L 236.158158 296.847489 
L 240.881502 291.429977 
L 247.557844 284.123625 
L 253.164623 278.329559 
L 257.384881 273.794721 
L 260.848487 271.181116 
L 265.509788 267.812379 
L 269.88785 265.324292 
L 274.106759 263.969914 
L 276.280954 263.182391 
L 280.940906 262.457626 
L 285.979859 259.497835 
L 292.846376 255.65537 
L 297.349873 253.011397 
L 301.002304 251.782537 
L 304.15165 251.248074 
L 305.117359 251.084091 
L 306.369005 250.873545 
" clip-path="url(#pfb294fbd17)" style="fill: none; stroke: #f29888; stroke-width: 0.2"/>
    <path d="M 218.868647 315.037873 
L 218.342439 314.749977 
L 217.162277 314.529308 
" clip-path="url(#pfb294fbd17)" style="fill: none; stroke: #f29888; stroke-width: 0.2"/>
    <path d="M 320.802044 327.805856 
L 315.181777 323.05035 
L 309.732803 317.916265 
L 305.513894 314.264101 
L 300.694788 310.138208 
L 289.987013 301.036141 
L 282.838606 295.651021 
L 279.059392 291.936098 
L 275.058981 288.723246 
L 270.713289 284.850413 
L 267.153922 281.890622 
L 264.572402 279.49566 
" clip-path="url(#pfb294fbd17)" style="fill: none; stroke: #f29888; stroke-width: 0.2"/>
    <path d="M 305.117359 251.084091 
L 305.356089 243.067145 
L 305.451851 231.278591 
L 306.166692 220.777607 
L 306.311008 213.953081 
L 306.215247 210.420361 
L 305.805225 208.86151 
L 305.499057 207.699458 
L 303.493457 205.980674 
L 301.489205 205.122294 
L 298.624447 204.836842 
L 286.786415 204.931992 
L 251.272319 204.310477 
" clip-path="url(#pfb294fbd17)" style="fill: none; stroke: #f29888; stroke-width: 0.2"/>
    <path d="M 317.250769 69.324142 
L 314.331849 67.74577 
" clip-path="url(#pfb294fbd17)" style="fill: none; stroke: #f29888; stroke-width: 0.2"/>
    <path d="M 436.314911 212.983354 
L 440.269463 177.352485 
L 444.341358 134.307965 
L 447.79822 113.941684 
L 453.719259 99.90798 
L 463.041861 82.805162 
" clip-path="url(#pfb294fbd17)" style="fill: none; stroke: #f29888; stroke-width: 0.2"/>
    <path d="M 305.805225 208.86151 
L 306.758795 207.383639 
L 307.917377 205.466455 
L 308.53241 204.308452 
L 308.930293 202.680769 
L 309.038193 200.510525 
L 308.966709 198.99014 
L 308.784627 196.676158 
L 308.42316 192.951113 
L 308.278844 190.309165 
L 308.495993 187.922301 
L 308.821044 185.788498 
L 309.038193 183.328753 
L 309.218927 180.290007 
L 309.111026 177.216844 
L 309.328176 172.912797 
L 309.436076 167.847545 
L 309.762475 164.808799 
L 309.979625 161.482576 
L 309.870376 159.16657 
L 309.870376 156.237145 
L 309.61681 154.718785 
L 308.893876 152.874482 
L 308.134527 150.957298 
L 307.483077 148.677733 
L 307.373828 145.025568 
L 307.446661 141.733762 
L 307.736644 139.417755 
L 308.31526 136.055092 
L 309.183859 130.846102 
L 310.087525 122.60039 
L 311.824723 102.381896 
L 312.29409 97.608169 
L 312.330507 94.172625 
L 312.330507 82.489343 
L 312.40334 78.114439 
L 312.655557 74.533132 
L 313.27059 71.71303 
L 313.958455 70.445705 
L 314.898538 69.795846 
L 316.020704 69.360583 
L 317.250769 69.324142 
L 319.891634 70.229085 
L 325.173362 72.47221 
L 336.017361 76.043395 
L 339.507942 77.146737 
L 341.117008 77.616417 
L 342.54669 77.76218 
L 345.458654 77.79862 
L 347.991618 77.689298 
L 350.842888 77.695372 
" clip-path="url(#pfb294fbd17)" style="fill: none; stroke: #f29888; stroke-width: 0.2"/>
    <path d="M 492.800816 149.847883 
L 492.115648 149.333664 
L 487.102321 145.920389 
L 484.50192 143.86959 
L 483.188231 142.484845 
L 481.708646 139.812529 
L 480.969527 136.806175 
L 480.657965 132.485932 
L 480.037537 121.677226 
L 479.894569 113.516543 
L 479.059689 103.351622 
L 478.820959 98.745928 
L 478.845236 93.830487 
L 478.939649 87.983785 
L 478.892443 85.240613 
L 478.653713 83.665567 
L 478.009008 81.922489 
L 476.79243 79.752245 
L 475.00263 77.60427 
L 474.743955 77.354667 
" clip-path="url(#pfb294fbd17)" style="fill: none; stroke: #f29888; stroke-width: 0.2"/>
    <path d="M 473.354153 76.013608 
L 472.925546 75.600034 
L 471.193913 72.823809 
" clip-path="url(#pfb294fbd17)" style="fill: none; stroke: #f29888; stroke-width: 0.2"/>
    <path d="M 465.449216 60.708929 
L 464.840812 58.98743 
" clip-path="url(#pfb294fbd17)" style="fill: none; stroke: #f29888; stroke-width: 0.2"/>
    <path d="M 463.041861 82.805162 
L 464.270578 81.070182 
L 465.381953 79.543723 
L 466.015869 78.130635 
L 466.336872 75.664817 
L 465.903922 72.909498 
L 465.704306 70.704838 
L 465.369814 66.661949 
L 465.310469 62.193919 
L 464.750735 59.59651 
L 464.619623 58.468899 
" clip-path="url(#pfb294fbd17)" style="fill: none; stroke: #f29888; stroke-width: 0.2"/>
    <path d="M 459.049419 45.410751 
L 458.824641 45.059427 
" clip-path="url(#pfb294fbd17)" style="fill: none; stroke: #f29888; stroke-width: 0.2"/>
    <path d="M 350.937301 68.319999 
L 351.193565 64.2184 
L 352.170064 62.078524 
L 353.576212 61.148347 
" clip-path="url(#pfb294fbd17)" style="fill: none; stroke: #f29888; stroke-width: 0.2"/>
    <path d="M 350.787734 61.228076 
L 350.937301 68.319999 
" clip-path="url(#pfb294fbd17)" style="fill: none; stroke: #f29888; stroke-width: 0.2"/>
   </g>
  </g>
 </g>
 <defs>
  <clipPath id="pfb294fbd17">
   <rect x="7.2" y="7.2" width="698.228235" height="831.6"/>
  </clipPath>
 </defs>
</svg>
