<?xml version="1.0" encoding="utf-8" standalone="no"?>
<!DOCTYPE svg PUBLIC "-//W3C//DTD SVG 1.1//EN"
  "http://www.w3.org/Graphics/SVG/1.1/DTD/svg11.dtd">
<svg xmlns:xlink="http://www.w3.org/1999/xlink" width="826.593043pt" height="846pt" viewBox="0 0 826.593043 846" xmlns="http://www.w3.org/2000/svg" version="1.1">
 <metadata>
  <rdf:RDF xmlns:dc="http://purl.org/dc/elements/1.1/" xmlns:cc="http://creativecommons.org/ns#" xmlns:rdf="http://www.w3.org/1999/02/22-rdf-syntax-ns#">
   <cc:Work>
    <dc:type rdf:resource="http://purl.org/dc/dcmitype/StillImage"/>
    <dc:date>2025-03-16T14:38:40.621799</dc:date>
    <dc:format>image/svg+xml</dc:format>
    <dc:creator>
     <cc:Agent>
      <dc:title>Matplotlib v3.10.1, https://matplotlib.org/</dc:title>
     </cc:Agent>
    </dc:creator>
   </cc:Work>
  </rdf:RDF>
 </metadata>
 <defs>
  <style type="text/css">*{stroke-linejoin: round; stroke-linecap: butt}</style>
 </defs>
 <g id="figure_1">
  <g id="patch_1">
   <path d="M 0 846 
L 826.593043 846 
L 826.593043 0 
L 0 0 
z
" style="fill: #ffffff"/>
  </g>
  <g id="axes_1">
   <g id="PatchCollection_1">
    <path d="M 481.699476 269.526537 
L 477.553843 194.081947 
L 467.896356 120.591759 
L 467.896356 81.533171 
L 461.59374 55.914035 
L 435.557282 45 
L 403.214294 74.392543 
L 378.015574 105.892543 
L 361.217733 124.789011 
L 342.317715 133.189404 
L 270.495298 120.591759 
L 259.158419 120.591759 
L 269.234775 242.800691 
L 165.914937 283.119043 
L 72.256501 315.037002 
L 56.296398 323.855354 
L 44.117866 359.976453 
L 46.216128 412.056531 
L 45.797258 430.117081 
L 49.997697 453.216688 
L 60.077968 502.777238 
L 67.218323 530.497944 
L 97.45522 556.117081 
L 126.435508 567.460848 
L 275.95626 627.941319 
L 385.155929 682.128854 
L 427.156404 701.449168 
L 484.694197 745.5527 
L 569.955671 787.560549 
L 648.914528 801 
L 674.113247 797.220706 
L 695.115442 782.097645 
L 707.712844 720.769482 
L 712.754937 671.203046 
L 755.593151 623.744067 
L 782.475178 596.441319 
L 771.976037 548.558494 
L 731.236086 504.878808 
L 652.273313 493.958886 
L 569.114017 483.874883 
L 445.637553 419.615119 
L 340.215538 396.515511 
L 328.455875 385.59559 
L 332.656314 365.015511 
L 405.73534 335.617081 
L 458.234955 296.976453 
L 481.699476 269.526537 
" clip-path="url(#p15aff95446)" style="fill: #f29888"/>
   </g>
   <g id="LineCollection_1">
    <path d="M 69.105193 515.056999 
L 64.72067 520.80141 
" clip-path="url(#p15aff95446)" style="fill: none; stroke: #f29888; stroke-width: 0.2"/>
    <path d="M 378.223052 670.149318 
L 370.45635 663.208839 
L 302.415502 627.081854 
L 179.776777 580.458793 
L 123.914462 563.658008 
L 102.497312 553.997851 
L 83.385902 539.522332 
" clip-path="url(#p15aff95446)" style="fill: none; stroke: #f29888; stroke-width: 0.2"/>
    <path d="M 359.444389 545.444403 
L 350.714679 545.509157 
L 329.086137 544.667352 
L 300.943587 536.796767 
L 270.283906 530.074098 
L 260.309331 529.026257 
L 246.490553 531.569333 
L 123.2842 537.844608 
" clip-path="url(#p15aff95446)" style="fill: none; stroke: #f29888; stroke-width: 0.2"/>
    <path d="M 47.914087 441.758227 
L 51.08989 439.376939 
" clip-path="url(#p15aff95446)" style="fill: none; stroke: #f29888; stroke-width: 0.2"/>
    <path d="M 295.016779 462.794431 
L 285.511965 461.929079 
L 252.781424 459.562605 
L 233.576062 458.173332 
L 171.794769 451.427116 
L 154.304031 446.72949 
L 114.362672 432.424687 
L 63.749927 421.498879 
L 58.269391 420.239114 
" clip-path="url(#p15aff95446)" style="fill: none; stroke: #f29888; stroke-width: 0.2"/>
    <path d="M 123.2842 537.844608 
L 97.772308 541.517941 
L 83.385902 539.522332 
L 73.62272 529.762101 
L 69.105193 515.056999 
L 67.320104 487.024295 
L 52.55789 452.504392 
L 51.08989 439.376939 
L 57.596068 424.153803 
L 58.269391 420.239114 
L 51.297367 375.54102 
L 48.106912 362.072136 
L 56.402094 330.3661 
L 63.898684 322.725098 
L 70.471412 318.916371 
L 157.619755 287.104373 
L 214.265004 268.784807 
L 217.995683 267.578023 
L 240.086155 260.042983 
L 276.574778 242.936087 
" clip-path="url(#p15aff95446)" style="fill: none; stroke: #f29888; stroke-width: 0.2"/>
    <path d="M 252.781424 459.562605 
L 262.818634 450.608858 
L 262.834292 434.885349 
L 262.618985 408.483274 
L 259.048808 399.558961 
L 255.208519 375.747057 
L 257.72565 354.013175 
L 257.7922 344.435433 
L 256.25765 331.437488 
L 256.363346 312.752943 
L 262.09442 298.760138 
L 273.329518 288.152215 
L 280.512934 287.233882 
" clip-path="url(#p15aff95446)" style="fill: none; stroke: #f29888; stroke-width: 0.2"/>
    <path d="M 58.269391 420.239114 
L 48.529697 417.307513 
L 46.121643 416.130449 
" clip-path="url(#p15aff95446)" style="fill: none; stroke: #f29888; stroke-width: 0.2"/>
    <path d="M 273.329518 288.152215 
L 268.710209 286.368529 
L 247.962468 278.309568 
L 234.480351 272.823117 
L 214.265004 268.784807 
" clip-path="url(#p15aff95446)" style="fill: none; stroke: #f29888; stroke-width: 0.2"/>
    <path d="M 676.258485 610.198654 
L 675.479466 616.49159 
L 674.532117 626.993553 
L 676.422902 651.146888 
L 678.838252 657.33975 
L 692.700092 667.529714 
L 695.534312 670.891048 
L 697.843966 677.60783 
L 698.998793 719.615679 
L 695.847485 733.99701 
L 687.133434 755.000934 
L 681.359298 761.299757 
L 674.532117 759.616147 
" clip-path="url(#p15aff95446)" style="fill: none; stroke: #f29888; stroke-width: 0.2"/>
    <path d="M 628.389923 603.817417 
L 628.123725 607.255279 
L 623.7667 639.526444 
L 620.983371 646.10783 
L 605.023268 660.913007 
L 601.453091 666.475986 
L 585.179815 703.756774 
L 573.525848 721.605401 
L 570.750348 731.736498 
" clip-path="url(#p15aff95446)" style="fill: none; stroke: #f29888; stroke-width: 0.2"/>
    <path d="M 674.532117 759.616147 
L 639.464519 751.845636 
L 575.205241 732.731359 
L 570.750348 731.736498 
L 501.327623 716.17193 
L 458.278016 692.648477 
L 443.742853 693.672771 
L 417.913873 694.090731 
L 378.223052 670.149318 
L 382.846275 627.517473 
L 375.53759 600.662119 
L 392.503761 576.903196 
L 419.056956 563.32835 
" clip-path="url(#p15aff95446)" style="fill: none; stroke: #f29888; stroke-width: 0.2"/>
    <path d="M 523.159727 586.533919 
L 522.59993 590.030648 
L 518.755725 607.802747 
L 535.725812 618.069239 
L 562.603924 628.359279 
L 577.197807 626.157634 
L 596.520609 636.129789 
L 623.7667 639.526444 
" clip-path="url(#p15aff95446)" style="fill: none; stroke: #f29888; stroke-width: 0.2"/>
    <path d="M 295.016779 462.794431 
L 296.641367 463.188843 
L 320.685259 470.853392 
L 353.76029 478.517941 
L 390.656038 484.322276 
L 402.90112 486.288451 
L 425.473097 483.556999 
L 462.642871 487.654177 
L 480.102292 489.655672 
L 491.940248 491.015511 
L 526.588976 498.256214 
" clip-path="url(#p15aff95446)" style="fill: none; stroke: #f29888; stroke-width: 0.2"/>
    <path d="M 311.485789 280.623061 
L 321.797025 280.004952 
L 332.049541 281.252943 
L 343.55475 279.10428 
L 405.351702 294.091945 
" clip-path="url(#p15aff95446)" style="fill: none; stroke: #f29888; stroke-width: 0.2"/>
    <path d="M 476.607483 186.880471 
L 462.427565 106.345823 
L 464.752878 80.856195 
L 463.31228 65.892076 
L 460.900844 60.646982 
L 454.202847 56.561577 
L 443.535376 55.825734 
L 423.688008 64.973743 
" clip-path="url(#p15aff95446)" style="fill: none; stroke: #f29888; stroke-width: 0.2"/>
    <path d="M 280.512934 287.233882 
L 292.585771 285.450196 
L 311.485789 280.623061 
L 325.304567 271.563353 
L 330.385807 263.192394 
L 333.325722 234.635769 
L 350.75774 188.018595 
L 367.136712 170.587927 
L 375.283136 151.23818 
L 391.8735 115.75285 
L 406.784471 78.58391 
" clip-path="url(#p15aff95446)" style="fill: none; stroke: #f29888; stroke-width: 0.2"/>
    <path d="M 477.413451 193.013618 
L 472.727057 191.273967 
L 441.578042 195.930387 
L 437.365859 227.077182 
L 444.791985 239.933844 
L 448.452199 262.768548 
L 446.788465 273.411792 
L 440.247055 282.942441 
L 432.155436 287.269202 
L 405.351702 294.091945 
L 354.347491 312.399738 
L 326.635554 330.136517 
L 309.23094 353.306765 
L 286.909502 366.13988 
" clip-path="url(#p15aff95446)" style="fill: none; stroke: #f29888; stroke-width: 0.2"/>
    <path d="M 353.024333 135.909082 
L 360.665765 129.857503 
L 372.8717 123.105401 
L 381.879352 112.191366 
L 385.864484 102.495889 
L 406.784471 78.58391 
L 415.827355 73.745001 
L 423.688008 64.973743 
L 439.730319 47.072136 
L 439.84935 46.799161 
" clip-path="url(#p15aff95446)" style="fill: none; stroke: #f29888; stroke-width: 0.2"/>
    <path d="M 266.471019 122.510839 
L 269.446167 122.893478 
L 313.756296 131.917866 
L 345.046239 136.332928 
L 353.024333 135.909082 
L 364.576519 139.058494 
L 372.554612 146.199122 
L 375.283136 151.23818 
" clip-path="url(#p15aff95446)" style="fill: none; stroke: #f29888; stroke-width: 0.2"/>
    <path d="M 266.310005 120.591759 
L 266.471019 122.510839 
L 276.574778 242.936087 
L 280.512934 287.233882 
L 286.909502 366.13988 
L 295.016779 462.794431 
L 295.607894 469.840871 
L 309.04695 501.75883 
L 334.245669 528.643618 
L 359.444389 545.444403 
L 419.056956 563.32835 
L 460.247095 575.684638 
L 523.159727 586.533919 
L 606.405146 600.885816 
L 628.389923 603.817417 
L 676.258485 610.198654 
L 707.203938 614.325266 
L 764.866813 614.325266 
" clip-path="url(#p15aff95446)" style="fill: none; stroke: #f29888; stroke-width: 0.5"/>
   </g>
  </g>
 </g>
 <defs>
  <clipPath id="p15aff95446">
   <rect x="7.2" y="7.2" width="812.193043" height="831.6"/>
  </clipPath>
 </defs>
</svg>
