<?xml version="1.0" encoding="utf-8" standalone="no"?>
<!DOCTYPE svg PUBLIC "-//W3C//DTD SVG 1.1//EN"
  "http://www.w3.org/Graphics/SVG/1.1/DTD/svg11.dtd">
<svg xmlns:xlink="http://www.w3.org/1999/xlink" width="674.564809pt" height="846pt" viewBox="0 0 674.564809 846" xmlns="http://www.w3.org/2000/svg" version="1.1">
 <metadata>
  <rdf:RDF xmlns:dc="http://purl.org/dc/elements/1.1/" xmlns:cc="http://creativecommons.org/ns#" xmlns:rdf="http://www.w3.org/1999/02/22-rdf-syntax-ns#">
   <cc:Work>
    <dc:type rdf:resource="http://purl.org/dc/dcmitype/StillImage"/>
    <dc:date>2025-03-16T14:38:40.990707</dc:date>
    <dc:format>image/svg+xml</dc:format>
    <dc:creator>
     <cc:Agent>
      <dc:title>Matplotlib v3.10.1, https://matplotlib.org/</dc:title>
     </cc:Agent>
    </dc:creator>
   </cc:Work>
  </rdf:RDF>
 </metadata>
 <defs>
  <style type="text/css">*{stroke-linejoin: round; stroke-linecap: butt}</style>
 </defs>
 <g id="figure_1">
  <g id="patch_1">
   <path d="M 0 846 
L 674.564809 846 
L 674.564809 0 
L 0 0 
z
" style="fill: #ffffff"/>
  </g>
  <g id="axes_1">
   <g id="PatchCollection_1">
    <path d="M 558.464296 768.632136 
L 637.357318 783.906026 
L 634.448156 720.629945 
L 602.454149 635.535849 
L 585.366845 639.173463 
L 572.642437 661.717468 
L 504.293222 665.355082 
L 446.850399 566.812295 
L 407.948615 551.177967 
L 387.225282 557.722094 
L 375.227741 542.087766 
L 432.670563 517.726233 
L 377.045755 495.908217 
L 360.05164 475.235423 
L 436.764061 437.059647 
L 413.495847 395.248813 
L 359.324773 392.705295 
L 364.414536 361.439197 
L 405.134335 309.814729 
L 402.589453 285.458308 
L 373.504609 273.461595 
L 332.422223 241.472063 
L 327.330766 169.85989 
L 348.780966 172.766403 
L 398.533231 46.403408 
L 294.61328 45 
L 258.254683 316.358856 
L 288.793262 360.710651 
L 269.887943 406.156543 
L 223.715795 470.145831 
L 152.093136 486.871698 
L 119.009676 490.86975 
L 96.468328 448.695922 
L 43.752683 485.417164 
L 37.207491 507.595618 
L 121.554558 509.778698 
L 150.276816 502.506026 
L 158.274047 541.047352 
L 111.737618 586.135362 
L 107.012135 625.407791 
L 143.731625 658.133536 
L 178.634794 731.228363 
L 290.819679 668.775411 
L 316.912339 642.445526 
L 332.689927 619.535971 
L 381.044371 627.537188 
L 383.589252 634.80986 
L 362.865919 657.353865 
L 365.775082 675.899817 
L 375.954608 688.264638 
L 397.769088 693.719781 
L 423.582185 672.990749 
L 434.852858 678.808886 
L 419.581875 688.990627 
L 425.035919 698.083384 
L 458.84794 683.901035 
L 463.573423 698.446379 
L 389.770163 741.358977 
L 414.129525 774.087279 
L 416.674407 801 
L 429.398815 792.272794 
L 443.576956 759.541935 
L 517.380216 736.992818 
L 547.556208 743.902495 
L 534.469214 763.905539 
L 512.290453 774.087279 
L 505.746956 757.358856 
L 478.480126 783.180037 
L 510.836719 787.906634 
L 523.925407 774.45283 
L 558.464296 768.632136 
" clip-path="url(#pd420c83d23)" style="fill: #f29888"/>
   </g>
   <g id="PatchCollection_2">
    <path d="M 180.488389 669.575533 
L 181.623589 667.71199 
L 182.89603 668.394522 
L 181.804882 670.347535 
L 180.488389 669.575533 
" clip-path="url(#pd420c83d23)" style="fill: #f29888"/>
    <path d="M 176.942159 666.029945 
L 177.579227 665.076446 
L 178.897415 665.802435 
L 178.397588 666.893974 
L 176.942159 666.029945 
" clip-path="url(#pd420c83d23)" style="fill: #f29888"/>
    <path d="M 175.307132 663.440414 
L 176.488079 664.212416 
L 175.942506 665.211929 
L 176.488079 665.531467 
L 175.806959 666.712477 
L 174.307478 665.894461 
L 174.942852 665.122459 
L 174.488772 664.756908 
L 175.307132 663.440414 
" clip-path="url(#pd420c83d23)" style="fill: #f29888"/>
    <path d="M 185.713699 656.395253 
L 187.031886 653.21266 
L 188.25858 653.803165 
L 187.031886 657.029215 
L 185.713699 656.395253 
" clip-path="url(#pd420c83d23)" style="fill: #f29888"/>
    <path d="M 187.396167 652.348631 
L 188.03154 650.848083 
L 191.167742 652.213147 
L 190.349382 653.711138 
L 187.396167 652.348631 
" clip-path="url(#pd420c83d23)" style="fill: #f29888"/>
    <path d="M 179.260001 650.349604 
L 179.942815 648.667559 
L 182.714737 649.802556 
L 182.077669 651.438588 
L 179.260001 650.349604 
" clip-path="url(#pd420c83d23)" style="fill: #f29888"/>
    <path d="M 180.259655 647.939014 
L 180.896722 646.348996 
L 183.895684 647.576019 
L 183.306058 649.166038 
L 180.259655 647.939014 
" clip-path="url(#pd420c83d23)" style="fill: #f29888"/>
    <path d="M 184.009204 642.09787 
L 184.919058 640.006817 
L 186.737073 640.735362 
L 185.737419 642.734388 
L 184.009204 642.09787 
" clip-path="url(#pd420c83d23)" style="fill: #f29888"/>
    <path d="M 186.123726 635.985758 
L 186.986139 633.984175 
L 189.212487 635.029702 
L 188.350074 636.985271 
L 186.123726 635.985758 
" clip-path="url(#pd420c83d23)" style="fill: #f29888"/>
    <path d="M 195.491669 634.037858 
L 196.377803 631.637492 
L 198.158542 632.297018 
L 197.272408 634.697383 
L 195.491669 634.037858 
" clip-path="url(#pd420c83d23)" style="fill: #f29888"/>
    <path d="M 187.479189 633.176385 
L 188.23486 631.458551 
L 190.4934 632.452952 
L 189.737729 634.170785 
L 187.479189 633.176385 
" clip-path="url(#pd420c83d23)" style="fill: #f29888"/>
    <path d="M 189.024417 629.710043 
L 189.778393 627.992209 
L 192.038627 628.98661 
L 191.282957 630.704443 
L 189.024417 629.710043 
" clip-path="url(#pd420c83d23)" style="fill: #f29888"/>
    <path d="M 197.165666 629.393061 
L 197.938279 627.667559 
L 198.665146 628.030554 
L 197.984026 629.758612 
L 197.165666 629.393061 
" clip-path="url(#pd420c83d23)" style="fill: #f29888"/>
    <path d="M 200.301868 628.485575 
L 201.709855 627.212538 
L 202.528216 627.98454 
L 201.028735 629.257578 
L 200.301868 628.485575 
" clip-path="url(#pd420c83d23)" style="fill: #f29888"/>
    <path d="M 190.894955 626.660377 
L 191.682818 625.190505 
L 193.348343 626.082654 
L 192.56048 627.552526 
L 190.894955 626.660377 
" clip-path="url(#pd420c83d23)" style="fill: #f29888"/>
    <path d="M 199.507228 625.372002 
L 200.007055 624.280463 
L 201.914869 625.098478 
L 201.552282 626.279489 
L 199.507228 625.372002 
" clip-path="url(#pd420c83d23)" style="fill: #f29888"/>
    <path d="M 192.507956 623.206817 
L 193.295819 621.734388 
L 194.961344 622.629093 
L 194.173481 624.098965 
L 192.507956 623.206817 
" clip-path="url(#pd420c83d23)" style="fill: #f29888"/>
    <path d="M 195.088419 619.95776 
L 196.140597 617.677541 
L 197.311378 618.21692 
L 196.260894 620.499696 
L 195.088419 619.95776 
" clip-path="url(#pd420c83d23)" style="fill: #f29888"/>
    <path d="M 203.346576 617.166281 
L 203.846403 616.120755 
L 206.164245 617.212295 
L 205.572924 618.211808 
L 203.346576 617.166281 
" clip-path="url(#pd420c83d23)" style="fill: #f29888"/>
    <path d="M 195.203633 616.120755 
L 195.959304 614.402921 
L 198.219538 615.397322 
L 197.463867 617.115155 
L 195.203633 616.120755 
" clip-path="url(#pd420c83d23)" style="fill: #f29888"/>
    <path d="M 245.133802 655.55423 
L 247.043311 656.553743 
L 246.360496 657.82678 
L 244.542482 657.008764 
L 245.133802 655.55423 
" clip-path="url(#pd420c83d23)" style="fill: #f29888"/>
    <path d="M 241.951853 656.599757 
L 243.270041 654.370663 
L 244.315442 655.145222 
L 243.134495 657.233719 
L 241.951853 656.599757 
" clip-path="url(#pd420c83d23)" style="fill: #f29888"/>
    <path d="M 244.361189 654.007669 
L 244.861016 652.916129 
L 247.178857 654.053682 
L 246.587536 655.099209 
L 244.361189 654.007669 
" clip-path="url(#pd420c83d23)" style="fill: #f29888"/>
    <path d="M 247.543138 648.506512 
L 248.951125 645.68947 
L 250.360806 646.507486 
L 248.815579 649.235058 
L 247.543138 648.506512 
" clip-path="url(#pd420c83d23)" style="fill: #f29888"/>
    <path d="M 247.936222 644.595374 
L 248.332695 642.86476 
L 251.148669 643.511503 
L 250.750502 645.242118 
L 247.936222 644.595374 
" clip-path="url(#pd420c83d23)" style="fill: #f29888"/>
    <path d="M 255.904649 625.098478 
L 256.858556 623.007425 
L 258.176744 623.597931 
L 257.085596 625.688984 
L 255.904649 625.098478 
" clip-path="url(#pd420c83d23)" style="fill: #f29888"/>
    <path d="M 251.81454 623.871455 
L 252.405861 622.18941 
L 253.678302 622.690444 
L 253.041234 624.372489 
L 251.81454 623.871455 
" clip-path="url(#pd420c83d23)" style="fill: #f29888"/>
    <path d="M 254.064608 587.441631 
L 254.791475 585.89507 
L 255.926676 586.396105 
L 255.245556 587.896652 
L 254.064608 587.441631 
" clip-path="url(#pd420c83d23)" style="fill: #f29888"/>
    <path d="M 249.237466 585.762142 
L 250.352335 583.778454 
L 251.482452 584.414973 
L 250.367583 586.398661 
L 249.237466 585.762142 
" clip-path="url(#pd420c83d23)" style="fill: #f29888"/>
    <path d="M 242.680415 582.6 
L 243.996908 579.826415 
L 245.406589 580.55496 
L 244.088402 583.236519 
L 242.680415 582.6 
" clip-path="url(#pd420c83d23)" style="fill: #f29888"/>
    <path d="M 204.391977 613.940231 
L 205.345884 612.350213 
L 206.528525 613.076202 
L 205.710165 614.712234 
L 204.391977 613.940231 
" clip-path="url(#pd420c83d23)" style="fill: #f29888"/>
    <path d="M 198.168708 613.380402 
L 199.219192 611.097626 
L 200.389973 611.637005 
L 199.339489 613.919781 
L 198.168708 613.380402 
" clip-path="url(#pd420c83d23)" style="fill: #f29888"/>
    <path d="M 205.428906 611.256117 
L 206.184577 609.538284 
L 208.444811 610.532684 
L 207.68914 612.250517 
L 205.428906 611.256117 
" clip-path="url(#pd420c83d23)" style="fill: #f29888"/>
    <path d="M 198.248342 609.438588 
L 199.004012 607.720755 
L 201.264246 608.715155 
L 200.508576 610.432988 
L 198.248342 609.438588 
" clip-path="url(#pd420c83d23)" style="fill: #f29888"/>
    <path d="M 207.57562 607.196713 
L 208.626104 604.916494 
L 209.79858 605.455873 
L 208.746402 607.738649 
L 207.57562 607.196713 
" clip-path="url(#pd420c83d23)" style="fill: #f29888"/>
    <path d="M 199.688521 604.325989 
L 200.234095 602.917468 
L 203.233056 604.279976 
L 202.597683 605.463542 
L 199.688521 604.325989 
" clip-path="url(#pd420c83d23)" style="fill: #f29888"/>
    <path d="M 208.776899 603.507973 
L 209.459714 602.280949 
L 211.594568 603.280463 
L 211.140488 604.464029 
L 208.776899 603.507973 
" clip-path="url(#pd420c83d23)" style="fill: #f29888"/>
    <path d="M 203.687136 600.327937 
L 204.551244 598.781376 
L 205.550898 599.463907 
L 204.91383 600.961899 
L 203.687136 600.327937 
" clip-path="url(#pd420c83d23)" style="fill: #f29888"/>
    <path d="M 205.267945 593.30067 
L 205.81013 592.170785 
L 206.8945 592.69227 
L 207.628145 591.163603 
L 208.87517 591.761777 
L 207.601035 594.417772 
L 205.267945 593.30067 
" clip-path="url(#pd420c83d23)" style="fill: #f29888"/>
    <path d="M 206.884334 589.256604 
L 207.640005 587.538771 
L 209.898545 588.533171 
L 209.142874 590.251004 
L 206.884334 589.256604 
" clip-path="url(#pd420c83d23)" style="fill: #f29888"/>
    <path d="M 257.03985 615.59927 
L 257.768411 614.190749 
L 260.403092 615.417772 
L 259.857518 616.826293 
L 257.03985 615.59927 
" clip-path="url(#pd420c83d23)" style="fill: #f29888"/>
    <path d="M 258.713846 613.835423 
L 260.037117 610.550578 
L 260.509834 610.739744 
L 262.000844 611.340475 
L 260.679267 614.62532 
L 258.713846 613.835423 
" clip-path="url(#pd420c83d23)" style="fill: #f29888"/>
    <path d="M 258.812117 609.599635 
L 259.267892 608.280584 
L 261.085906 608.827632 
L 260.675879 610.19014 
L 258.812117 609.599635 
" clip-path="url(#pd420c83d23)" style="fill: #f29888"/>
    <path d="M 280.740118 600.984906 
L 283.376493 601.122946 
L 283.466293 602.531467 
L 280.740118 602.395983 
L 280.740118 600.984906 
" clip-path="url(#pd420c83d23)" style="fill: #f29888"/>
    <path d="M 283.330746 594.75776 
L 285.967122 594.941814 
L 285.967122 596.350335 
L 283.330746 596.122824 
L 283.330746 594.75776 
" clip-path="url(#pd420c83d23)" style="fill: #f29888"/>
    <path d="M 263.637565 591.892149 
L 264.034038 590.161534 
L 266.850012 590.808278 
L 266.451845 592.538892 
L 263.637565 591.892149 
" clip-path="url(#pd420c83d23)" style="fill: #f29888"/>
    <path d="M 271.787286 589.576141 
L 274.105127 589.803652 
L 274.105127 591.258186 
L 271.787286 590.987219 
L 271.787286 589.576141 
" clip-path="url(#pd420c83d23)" style="fill: #f29888"/>
    <path d="M 272.863184 587.162995 
L 273.259657 585.434936 
L 276.075631 586.08168 
L 275.677464 587.812295 
L 272.863184 587.162995 
" clip-path="url(#pd420c83d23)" style="fill: #f29888"/>
    <path d="M 266.243442 582.487523 
L 266.789016 579.941449 
L 268.834071 580.577967 
L 268.107204 583.032015 
L 266.243442 582.487523 
" clip-path="url(#pd420c83d23)" style="fill: #f29888"/>
    <path d="M 273.923834 580.894948 
L 274.242368 579.805965 
L 276.695756 580.667438 
L 276.241676 581.623494 
L 273.923834 580.894948 
" clip-path="url(#pd420c83d23)" style="fill: #f29888"/>
    <path d="M 209.59526 585.644553 
L 210.095087 584.463542 
L 211.594568 585.054047 
L 211.094741 586.281071 
L 209.59526 585.644553 
" clip-path="url(#pd420c83d23)" style="fill: #f29888"/>
    <path d="M 209.564762 583.348996 
L 210.320433 581.631163 
L 212.580667 582.625563 
L 211.824997 584.343396 
L 209.564762 583.348996 
" clip-path="url(#pd420c83d23)" style="fill: #f29888"/>
    <path d="M 158.096142 578.46902 
L 159.460077 579.013512 
L 158.73321 580.831041 
L 157.369275 580.013025 
L 158.096142 578.46902 
" clip-path="url(#pd420c83d23)" style="fill: #f29888"/>
    <path d="M 157.460769 576.651491 
L 158.27913 574.923433 
L 160.551225 576.104443 
L 159.914157 577.740475 
L 157.460769 576.651491 
" clip-path="url(#pd420c83d23)" style="fill: #f29888"/>
    <path d="M 196.711585 575.168837 
L 197.211412 574.123311 
L 199.120921 574.941327 
L 198.621094 575.94084 
L 196.711585 575.168837 
" clip-path="url(#pd420c83d23)" style="fill: #f29888"/>
    <path d="M 199.393708 573.259282 
L 200.256121 571.669264 
L 202.438416 572.942301 
L 201.482815 574.486306 
L 199.393708 573.259282 
" clip-path="url(#pd420c83d23)" style="fill: #f29888"/>
    <path d="M 199.347961 570.851248 
L 199.802041 569.759708 
L 202.711203 570.986732 
L 202.301176 572.078271 
L 199.347961 570.851248 
" clip-path="url(#pd420c83d23)" style="fill: #f29888"/>
    <path d="M 200.301868 567.760682 
L 201.028735 566.533658 
L 203.89215 568.443214 
L 203.255083 569.532197 
L 200.301868 567.760682 
" clip-path="url(#pd420c83d23)" style="fill: #f29888"/>
    <path d="M 218.866626 559.739014 
L 219.366453 558.782958 
L 220.820187 559.330006 
L 220.274613 560.41899 
L 218.866626 559.739014 
" clip-path="url(#pd420c83d23)" style="fill: #f29888"/>
    <path d="M 219.229213 557.964942 
L 220.274613 556.1014 
L 221.638548 556.783932 
L 220.865934 558.647474 
L 219.229213 557.964942 
" clip-path="url(#pd420c83d23)" style="fill: #f29888"/>
    <path d="M 274.786247 578.714425 
L 275.242022 576.623372 
L 277.287076 577.25989 
L 276.877049 579.258917 
L 274.786247 578.714425 
" clip-path="url(#pd420c83d23)" style="fill: #f29888"/>
    <path d="M 266.95506 577.574315 
L 267.351533 575.843701 
L 270.167507 576.490444 
L 269.76934 578.221059 
L 266.95506 577.574315 
" clip-path="url(#pd420c83d23)" style="fill: #f29888"/>
    <path d="M 275.286074 575.894827 
L 275.604608 574.805843 
L 277.603916 575.260864 
L 276.968542 576.395861 
L 275.286074 575.894827 
" clip-path="url(#pd420c83d23)" style="fill: #f29888"/>
    <path d="M 268.69683 575.442362 
L 269.288151 572.80426 
L 270.924872 573.351309 
L 270.287805 575.851369 
L 268.69683 575.442362 
" clip-path="url(#pd420c83d23)" style="fill: #f29888"/>
    <path d="M 276.287422 572.579306 
L 276.514462 571.306269 
L 279.42193 571.986245 
L 279.013597 573.213268 
L 276.287422 572.579306 
" clip-path="url(#pd420c83d23)" style="fill: #f29888"/>
    <path d="M 279.740464 567.668655 
L 277.195583 567.213634 
L 277.514116 565.943153 
L 279.831958 566.487645 
L 279.740464 567.668655 
" clip-path="url(#pd420c83d23)" style="fill: #f29888"/>
    <path d="M 271.605992 564.350578 
L 272.151566 562.579063 
L 274.150874 563.123554 
L 273.513806 564.897626 
L 271.605992 564.350578 
" clip-path="url(#pd420c83d23)" style="fill: #f29888"/>
    <path d="M 277.929227 564.143518 
L 278.327394 562.412903 
L 281.141674 563.059647 
L 280.745201 564.790262 
L 277.929227 564.143518 
" clip-path="url(#pd420c83d23)" style="fill: #f29888"/>
    <path d="M 279.105091 560.079002 
L 279.740464 557.987949 
L 281.921065 558.532441 
L 281.377185 560.669507 
L 279.105091 560.079002 
" clip-path="url(#pd420c83d23)" style="fill: #f29888"/>
    <path d="M 272.605646 559.762021 
L 273.332513 557.169933 
L 275.604608 557.852465 
L 275.014982 560.48801 
L 272.605646 559.762021 
" clip-path="url(#pd420c83d23)" style="fill: #f29888"/>
    <path d="M 237.158598 579.621911 
L 238.566585 576.715399 
L 239.657732 577.25989 
L 238.339545 580.214973 
L 237.158598 579.621911 
" clip-path="url(#pd420c83d23)" style="fill: #f29888"/>
    <path d="M 246.314749 577.827389 
L 247.043311 576.418868 
L 248.315752 576.96336 
L 247.678684 578.463907 
L 246.314749 577.827389 
" clip-path="url(#pd420c83d23)" style="fill: #f29888"/>
    <path d="M 245.269349 575.191844 
L 245.952163 573.691296 
L 247.497391 574.463299 
L 246.724777 575.828363 
L 245.269349 575.191844 
" clip-path="url(#pd420c83d23)" style="fill: #f29888"/>
    <path d="M 229.523953 573.66829 
L 230.296567 572.170298 
L 231.750301 573.031771 
L 231.023434 574.624346 
L 229.523953 573.66829 
" clip-path="url(#pd420c83d23)" style="fill: #f29888"/>
    <path d="M 241.043693 566.237127 
L 241.680761 565.283628 
L 243.315788 566.237127 
L 242.724467 567.193183 
L 241.043693 566.237127 
" clip-path="url(#pd420c83d23)" style="fill: #f29888"/>
    <path d="M 243.952855 566.009617 
L 244.679722 564.555082 
L 246.133456 565.329641 
L 245.360842 566.784175 
L 243.952855 566.009617 
" clip-path="url(#pd420c83d23)" style="fill: #f29888"/>
    <path d="M 246.22495 563.192575 
L 247.224604 561.329032 
L 248.178511 561.73804 
L 247.178857 563.691053 
L 246.22495 563.192575 
" clip-path="url(#pd420c83d23)" style="fill: #f29888"/>
    <path d="M 225.11531 562.533049 
L 225.660884 561.352039 
L 227.433152 562.259525 
L 226.614791 563.397079 
L 225.11531 562.533049 
" clip-path="url(#pd420c83d23)" style="fill: #f29888"/>
    <path d="M 249.815232 555.965916 
L 250.315059 554.874376 
L 252.360114 555.919903 
L 251.860287 556.919416 
L 249.815232 555.965916 
" clip-path="url(#pd420c83d23)" style="fill: #f29888"/>
    <path d="M 221.616522 550.579793 
L 222.206148 549.171272 
L 225.069563 550.487766 
L 224.478243 551.898844 
L 221.616522 550.579793 
" clip-path="url(#pd420c83d23)" style="fill: #f29888"/>
    <path d="M 231.136954 549.692757 
L 231.591034 548.693244 
L 234.090169 549.874254 
L 233.727582 550.919781 
L 231.136954 549.692757 
" clip-path="url(#pd420c83d23)" style="fill: #f29888"/>
    <path d="M 233.431075 544.672185 
L 234.157942 543.399148 
L 236.158944 544.534145 
L 235.430383 545.761169 
L 233.431075 544.672185 
" clip-path="url(#pd420c83d23)" style="fill: #f29888"/>
    <path d="M 225.728657 543.284114 
L 226.274231 542.195131 
L 228.637819 543.647109 
L 228.227792 544.557152 
L 225.728657 543.284114 
" clip-path="url(#pd420c83d23)" style="fill: #f29888"/>
    <path d="M 227.455178 539.467559 
L 227.865205 538.468046 
L 230.318593 539.738527 
L 229.818766 540.740596 
L 227.455178 539.467559 
" clip-path="url(#pd420c83d23)" style="fill: #f29888"/>
    <path d="M 236.702823 538.580523 
L 237.748224 536.26196 
L 239.249399 537.079976 
L 238.203998 539.352526 
L 236.702823 538.580523 
" clip-path="url(#pd420c83d23)" style="fill: #f29888"/>
    <path d="M 237.385638 535.852952 
L 238.203998 534.398418 
L 241.384253 536.080463 
L 240.476093 537.445526 
L 237.385638 535.852952 
" clip-path="url(#pd420c83d23)" style="fill: #f29888"/>
    <path d="M 229.818766 535.466951 
L 230.318593 534.421424 
L 232.909222 535.648448 
L 232.455142 536.875472 
L 229.818766 535.466951 
" clip-path="url(#pd420c83d23)" style="fill: #f29888"/>
    <path d="M 240.703133 534.945466 
L 241.20296 533.807912 
L 243.839335 534.988923 
L 243.156521 536.126476 
L 240.703133 534.945466 
" clip-path="url(#pd420c83d23)" style="fill: #f29888"/>
    <path d="M 231.014962 533.306878 
L 231.770633 531.589044 
L 234.030867 532.583445 
L 233.275197 534.301278 
L 231.014962 533.306878 
" clip-path="url(#pd420c83d23)" style="fill: #f29888"/>
    <path d="M 240.240581 531.397322 
L 240.996252 529.679489 
L 243.254792 530.673889 
L 242.500816 532.391722 
L 240.240581 531.397322 
" clip-path="url(#pd420c83d23)" style="fill: #f29888"/>
    <path d="M 273.749318 555.234814 
L 274.145791 553.5042 
L 276.961765 554.150943 
L 276.563598 555.881558 
L 273.749318 555.234814 
" clip-path="url(#pd420c83d23)" style="fill: #f29888"/>
    <path d="M 272.969927 552.532806 
L 273.513806 551.124285 
L 275.469062 551.898844 
L 274.877741 553.215338 
L 272.969927 552.532806 
" clip-path="url(#pd420c83d23)" style="fill: #f29888"/>
    <path d="M 280.877359 552.941814 
L 281.649972 550.352282 
L 283.376493 550.988801 
L 282.693679 553.488862 
L 280.877359 552.941814 
" clip-path="url(#pd420c83d23)" style="fill: #f29888"/>
    <path d="M 274.657478 551.142179 
L 275.055645 549.414121 
L 277.869925 550.060864 
L 277.471758 551.791479 
L 274.657478 551.142179 
" clip-path="url(#pd420c83d23)" style="fill: #f29888"/>
    <path d="M 283.466293 545.715155 
L 284.3304 543.217651 
L 285.784134 543.808156 
L 285.057267 546.21619 
L 283.466293 545.715155 
" clip-path="url(#pd420c83d23)" style="fill: #f29888"/>
    <path d="M 277.241329 540.57955 
L 277.695409 539.580037 
L 279.467677 540.127085 
L 278.96785 541.126598 
L 277.241329 540.57955 
" clip-path="url(#pd420c83d23)" style="fill: #f29888"/>
    <path d="M 274.809968 539.467559 
L 275.128502 538.376019 
L 277.127809 538.966525 
L 276.855022 540.058065 
L 274.809968 539.467559 
" clip-path="url(#pd420c83d23)" style="fill: #f29888"/>
    <path d="M 278.081716 538.194522 
L 278.49005 536.875472 
L 280.308064 537.51199 
L 279.853984 538.693001 
L 278.081716 538.194522 
" clip-path="url(#pd420c83d23)" style="fill: #f29888"/>
    <path d="M 280.519855 527.28168 
L 280.918022 525.551065 
L 283.732302 526.200365 
L 283.335829 527.928424 
L 280.519855 527.28168 
" clip-path="url(#pd420c83d23)" style="fill: #f29888"/>
    <path d="M 269.266125 517.378576 
L 269.855751 515.604504 
L 271.538219 516.013512 
L 271.128192 517.787584 
L 269.266125 517.378576 
" clip-path="url(#pd420c83d23)" style="fill: #f29888"/>
    <path d="M 172.275978 553.107973 
L 173.002845 551.469385 
L 174.548073 552.379428 
L 173.911006 553.833962 
L 172.275978 553.107973 
" clip-path="url(#pd420c83d23)" style="fill: #f29888"/>
    <path d="M 201.709855 547.034206 
L 202.665456 545.306147 
L 203.800656 545.899209 
L 202.938243 547.624711 
L 201.709855 547.034206 
" clip-path="url(#pd420c83d23)" style="fill: #f29888"/>
    <path d="M 205.710165 540.536093 
L 206.255738 539.125015 
L 208.57358 540.035058 
L 208.028006 541.443579 
L 205.710165 540.536093 
" clip-path="url(#pd420c83d23)" style="fill: #f29888"/>
    <path d="M 223.237994 505.023981 
L 223.964861 505.251491 
L 223.327793 507.023007 
L 222.600926 506.752039 
L 223.237994 505.023981 
" clip-path="url(#pd420c83d23)" style="fill: #f29888"/>
    <path d="M 218.056737 505.343518 
L 218.421018 504.297991 
L 219.647712 504.750456 
L 219.193632 505.795983 
L 218.056737 505.343518 
" clip-path="url(#pd420c83d23)" style="fill: #f29888"/>
    <path d="M 216.830043 504.977967 
L 217.284123 503.84297 
L 217.965243 504.070481 
L 217.511163 505.251491 
L 216.830043 504.977967 
" clip-path="url(#pd420c83d23)" style="fill: #f29888"/>
    <path d="M 220.239032 503.61546 
L 220.693112 502.52392 
L 223.283741 503.523433 
L 222.69242 504.525502 
L 220.239032 503.61546 
" clip-path="url(#pd420c83d23)" style="fill: #f29888"/>
    <path d="M 231.931594 530.126841 
L 232.658461 528.764334 
L 235.022049 529.89933 
L 234.476476 531.218381 
L 231.931594 530.126841 
" clip-path="url(#pd420c83d23)" style="fill: #f29888"/>
    <path d="M 234.476476 528.490809 
L 235.430383 526.990262 
L 236.97561 527.900304 
L 236.113197 529.444309 
L 234.476476 528.490809 
" clip-path="url(#pd420c83d23)" style="fill: #f29888"/>
    <path d="M 234.703516 525.535727 
L 235.340583 524.219233 
L 237.658425 525.581741 
L 236.97561 526.854778 
L 234.703516 525.535727 
" clip-path="url(#pd420c83d23)" style="fill: #f29888"/>
    <path d="M 242.748188 526.172246 
L 243.929135 523.810225 
L 245.747149 524.717712 
L 244.520456 527.082288 
L 242.748188 526.172246 
" clip-path="url(#pd420c83d23)" style="fill: #f29888"/>
    <path d="M 232.614408 524.037736 
L 233.022742 522.992209 
L 234.567969 523.810225 
L 234.113889 524.855752 
L 232.614408 524.037736 
" clip-path="url(#pd420c83d23)" style="fill: #f29888"/>
    <path d="M 230.340619 523.899696 
L 231.431767 521.854656 
L 232.431421 522.445161 
L 231.431767 524.446744 
L 230.340619 523.899696 
" clip-path="url(#pd420c83d23)" style="fill: #f29888"/>
    <path d="M 236.113197 523.127693 
L 236.794317 521.765186 
L 238.747878 522.808156 
L 238.112505 524.17322 
L 236.113197 523.127693 
" clip-path="url(#pd420c83d23)" style="fill: #f29888"/>
    <path d="M 236.794317 520.581619 
L 237.475437 519.446622 
L 239.749226 520.763116 
L 239.020665 521.90067 
L 236.794317 520.581619 
" clip-path="url(#pd420c83d23)" style="fill: #f29888"/>
    <path d="M 247.056865 518.398539 
L 247.812536 516.680706 
L 250.07277 517.675107 
L 249.3171 519.39294 
L 247.056865 518.398539 
" clip-path="url(#pd420c83d23)" style="fill: #f29888"/>
    <path d="M 239.611986 516.264029 
L 240.249053 515.172489 
L 242.475401 516.49154 
L 241.794281 517.67255 
L 239.611986 516.264029 
" clip-path="url(#pd420c83d23)" style="fill: #f29888"/>
    <path d="M 240.022013 512.355447 
L 240.384599 510.99294 
L 244.656002 512.628971 
L 244.201922 514.037492 
L 240.022013 512.355447 
" clip-path="url(#pd420c83d23)" style="fill: #f29888"/>
    <path d="M 253.768101 504.515277 
L 254.904995 502.334753 
L 256.131689 502.971272 
L 255.404822 504.152282 
L 256.49597 504.924285 
L 255.994449 505.969811 
L 253.768101 504.515277 
" clip-path="url(#pd420c83d23)" style="fill: #f29888"/>
    <path d="M 244.815269 503.651248 
L 245.498083 502.651735 
L 247.58719 504.060256 
L 246.951817 504.970298 
L 244.815269 503.651248 
" clip-path="url(#pd420c83d23)" style="fill: #f29888"/>
    <path d="M 248.178511 500.517225 
L 248.586844 499.561169 
L 250.769139 500.606695 
L 250.360806 501.562751 
L 248.178511 500.517225 
" clip-path="url(#pd420c83d23)" style="fill: #f29888"/>
    <path d="M 248.005689 497.822885 
L 248.813884 496.588192 
L 252.105965 498.743153 
L 251.760322 499.26975 
L 251.29777 499.977845 
L 248.005689 497.822885 
" clip-path="url(#pd420c83d23)" style="fill: #f29888"/>
    <path d="M 250.904686 496.516616 
L 251.496006 495.335606 
L 253.359768 496.335119 
L 252.814194 497.516129 
L 250.904686 496.516616 
" clip-path="url(#pd420c83d23)" style="fill: #f29888"/>
    <path d="M 253.469899 486.444796 
L 254.638986 484.351187 
L 255.923287 485.069507 
L 254.964297 486.78734 
L 254.7542 487.163116 
L 253.469899 486.444796 
" clip-path="url(#pd420c83d23)" style="fill: #f29888"/>
    <path d="M 283.671306 505.560803 
L 286.261935 505.923798 
L 286.034895 507.378332 
L 283.579813 506.925867 
L 283.671306 505.560803 
" clip-path="url(#pd420c83d23)" style="fill: #f29888"/>
    <path d="M 255.950396 500.289714 
L 256.585769 499.106147 
L 259.357691 500.652708 
L 258.722318 501.833719 
L 255.950396 500.289714 
" clip-path="url(#pd420c83d23)" style="fill: #f29888"/>
    <path d="M 261.539986 489.200487 
L 262.358347 487.564455 
L 264.220414 488.471942 
L 263.493547 490.018503 
L 261.539986 489.200487 
" clip-path="url(#pd420c83d23)" style="fill: #f29888"/>
    <path d="M 255.828405 487.129884 
L 256.584075 485.412051 
L 258.842615 486.406452 
L 258.086945 488.124285 
L 255.828405 487.129884 
" clip-path="url(#pd420c83d23)" style="fill: #f29888"/>
    <path d="M 264.674494 483.47182 
L 265.220068 482.426293 
L 267.810696 484.064881 
L 267.22107 484.972368 
L 264.674494 483.47182 
" clip-path="url(#pd420c83d23)" style="fill: #f29888"/>
    <path d="M 265.811389 481.291296 
L 266.538256 479.882775 
L 268.764603 481.017772 
L 267.993684 482.382836 
L 265.811389 481.291296 
" clip-path="url(#pd420c83d23)" style="fill: #f29888"/>
    <path d="M 259.554233 479.17468 
L 260.309904 477.459404 
L 262.570138 478.453804 
L 261.814467 480.169081 
L 259.554233 479.17468 
" clip-path="url(#pd420c83d23)" style="fill: #f29888"/>
    <path d="M 269.03739 475.70067 
L 269.674458 474.519659 
L 271.582272 475.519172 
L 270.992646 476.700183 
L 269.03739 475.70067 
" clip-path="url(#pd420c83d23)" style="fill: #f29888"/>
    <path d="M 261.494239 475.519172 
L 262.08556 474.473646 
L 264.130615 475.654656 
L 263.630788 476.746196 
L 261.494239 475.519172 
" clip-path="url(#pd420c83d23)" style="fill: #f29888"/>
    <path d="M 264.372904 470.813025 
L 265.128574 469.095192 
L 267.387114 470.089592 
L 266.631444 471.807425 
L 264.372904 470.813025 
" clip-path="url(#pd420c83d23)" style="fill: #f29888"/>
    <path d="M 262.448146 468.883019 
L 262.99372 467.794035 
L 264.403402 468.701522 
L 263.812081 469.747048 
L 262.448146 468.883019 
" clip-path="url(#pd420c83d23)" style="fill: #f29888"/>
    <path d="M 266.265469 468.2465 
L 266.856789 467.157517 
L 268.402017 467.929519 
L 267.90219 469.064516 
L 266.265469 468.2465 
" clip-path="url(#pd420c83d23)" style="fill: #f29888"/>
    <path d="M 266.084176 465.293974 
L 267.083829 463.657943 
L 269.720205 465.247961 
L 268.674804 466.930006 
L 266.084176 465.293974 
" clip-path="url(#pd420c83d23)" style="fill: #f29888"/>
    <path d="M 263.358001 462.612416 
L 263.947627 461.612903 
L 265.584349 462.7479 
L 264.993028 463.657943 
L 263.358001 462.612416 
" clip-path="url(#pd420c83d23)" style="fill: #f29888"/>
    <path d="M 270.037044 460.247839 
L 270.855405 458.793305 
L 272.310833 459.611321 
L 271.492472 461.157882 
L 270.037044 460.247839 
" clip-path="url(#pd420c83d23)" style="fill: #f29888"/>
    <path d="M 270.924872 457.681315 
L 271.741539 456.180767 
L 274.013633 457.589288 
L 273.15122 458.997809 
L 270.924872 457.681315 
" clip-path="url(#pd420c83d23)" style="fill: #f29888"/>
    <path d="M 275.377568 450.999148 
L 276.104435 449.864151 
L 278.013943 451.091175 
L 277.376876 452.226172 
L 275.377568 450.999148 
" clip-path="url(#pd420c83d23)" style="fill: #f29888"/>
    <path d="M 289.80647 620.008886 
L 291.578738 618.96336 
L 292.351352 620.14437 
L 290.624831 621.281923 
L 289.80647 620.008886 
" clip-path="url(#pd420c83d23)" style="fill: #f29888"/>
    <path d="M 285.103014 553.033841 
L 285.694335 551.579306 
L 287.556402 552.351309 
L 286.921029 553.716372 
L 285.103014 553.033841 
" clip-path="url(#pd420c83d23)" style="fill: #f29888"/>
    <path d="M 284.603187 549.44224 
L 285.375801 547.716738 
L 286.556748 548.171759 
L 285.829881 549.943274 
L 284.603187 549.44224 
" clip-path="url(#pd420c83d23)" style="fill: #f29888"/>
    <path d="M 284.581161 542.238588 
L 285.080988 540.239562 
L 286.626215 540.64857 
L 286.261935 542.693609 
L 284.581161 542.238588 
" clip-path="url(#pd420c83d23)" style="fill: #f29888"/>
    <path d="M 285.740082 534.262934 
L 286.466949 531.172368 
L 288.420509 531.716859 
L 287.739389 534.717955 
L 285.740082 534.262934 
" clip-path="url(#pd420c83d23)" style="fill: #f29888"/>
    <path d="M 286.79226 528.439684 
L 287.188733 526.711625 
L 290.004707 527.358369 
L 289.606539 529.088984 
L 286.79226 528.439684 
" clip-path="url(#pd420c83d23)" style="fill: #f29888"/>
    <path d="M 299.289627 520.055021 
L 299.6861 518.324407 
L 302.502074 518.973707 
L 302.103907 520.701765 
L 299.289627 520.055021 
" clip-path="url(#pd420c83d23)" style="fill: #f29888"/>
    <path d="M 284.489667 511.583445 
L 284.489667 509.9014 
L 286.488975 509.993427 
L 286.488975 511.672915 
L 284.489667 511.583445 
" clip-path="url(#pd420c83d23)" style="fill: #f29888"/>
    <path d="M 292.259858 507.288862 
L 294.03382 507.516372 
L 293.715286 510.333414 
L 291.897272 510.151917 
L 292.259858 507.288862 
" clip-path="url(#pd420c83d23)" style="fill: #f29888"/>
    <path d="M 292.488592 506.355813 
L 292.488592 504.673767 
L 294.4879 504.765794 
L 294.4879 506.447839 
L 292.488592 506.355813 
" clip-path="url(#pd420c83d23)" style="fill: #f29888"/>
    <path d="M 405.080116 650.4493 
L 407.891008 648.120511 
L 409.063483 649.539257 
L 406.252592 651.86549 
L 405.080116 650.4493 
" clip-path="url(#pd420c83d23)" style="fill: #f29888"/>
    <path d="M 411.457569 644.81266 
L 412.435197 643.833597 
L 413.683917 645.083628 
L 412.707984 646.06269 
L 411.457569 644.81266 
" clip-path="url(#pd420c83d23)" style="fill: #f29888"/>
    <path d="M 415.43077 640.924528 
L 418.343321 638.202069 
L 419.527656 639.469994 
L 416.615105 642.195009 
L 415.43077 640.924528 
" clip-path="url(#pd420c83d23)" style="fill: #f29888"/>
    <path d="M 407.74699 636.916251 
L 408.960129 635.875837 
L 409.849651 636.913694 
L 408.638206 637.954108 
L 407.74699 636.916251 
" clip-path="url(#pd420c83d23)" style="fill: #f29888"/>
    <path d="M 415.403661 628.608278 
L 417.116627 627.227876 
L 418.372124 628.787219 
L 416.659158 630.16762 
L 415.403661 628.608278 
" clip-path="url(#pd420c83d23)" style="fill: #f29888"/>
    <path d="M 428.078933 617.570177 
L 430.325612 615.755204 
L 431.557389 617.281315 
L 429.309015 619.096287 
L 428.078933 617.570177 
" clip-path="url(#pd420c83d23)" style="fill: #f29888"/>
    <path d="M 356.761253 477.152648 
L 357.730409 476.597931 
L 358.448805 477.858186 
L 357.479649 478.410347 
L 356.761253 477.152648 
" clip-path="url(#pd420c83d23)" style="fill: #f29888"/>
    <path d="M 359.423044 476.406208 
L 360.504058 475.785776 
L 361.337246 476.799321 
L 360.066889 477.528424 
L 359.423044 476.406208 
" clip-path="url(#pd420c83d23)" style="fill: #f29888"/>
    <path d="M 358.909662 473.504808 
L 360.080443 475.199635 
L 358.54877 476.255386 
L 357.379683 474.56056 
L 358.909662 473.504808 
" clip-path="url(#pd420c83d23)" style="fill: #f29888"/>
    <path d="M 361.269862 464.089957 
L 362.413534 463.74997 
L 363.165816 466.288375 
L 362.022144 466.625806 
L 361.269862 464.089957 
" clip-path="url(#pd420c83d23)" style="fill: #f29888"/>
    <path d="M 303.757572 638.73378 
L 304.713173 637.961777 
L 306.12116 639.689836 
L 305.213 640.507851 
L 303.757572 638.73378 
" clip-path="url(#pd420c83d23)" style="fill: #f29888"/>
    <path d="M 301.531224 635.916738 
L 302.349585 635.280219 
L 303.167946 636.371759 
L 302.485131 636.870237 
L 301.531224 635.916738 
" clip-path="url(#pd420c83d23)" style="fill: #f29888"/>
    <path d="M 308.166215 516.696044 
L 308.803282 514.14997 
L 310.711096 514.651004 
L 309.938483 517.240536 
L 308.166215 516.696044 
" clip-path="url(#pd420c83d23)" style="fill: #f29888"/>
    <path d="M 305.599307 515.809008 
L 306.46172 513.35496 
L 307.734161 513.945466 
L 306.917495 516.174559 
L 305.599307 515.809008 
" clip-path="url(#pd420c83d23)" style="fill: #f29888"/>
    <path d="M 336.888473 433.935849 
L 338.433701 433.207304 
L 339.387608 435.116859 
L 337.84238 435.888862 
L 336.888473 433.935849 
" clip-path="url(#pd420c83d23)" style="fill: #f29888"/>
    <path d="M 339.047048 432.184784 
L 340.592276 431.458795 
L 341.546183 433.365794 
L 340.000955 434.140353 
L 339.047048 432.184784 
" clip-path="url(#pd420c83d23)" style="fill: #f29888"/>
    <path d="M 343.721701 430.714912 
L 344.960255 430.144857 
L 346.051402 432.519659 
L 344.811154 433.087158 
L 343.721701 430.714912 
" clip-path="url(#pd420c83d23)" style="fill: #f29888"/>
    <path d="M 323.981078 429.981254 
L 325.936333 428.889714 
L 326.617453 430.298235 
L 324.799439 431.389775 
L 323.981078 429.981254 
" clip-path="url(#pd420c83d23)" style="fill: #f29888"/>
    <path d="M 346.635946 429.275715 
L 348.181173 428.549726 
L 349.13508 430.459282 
L 347.589853 431.231284 
L 346.635946 429.275715 
" clip-path="url(#pd420c83d23)" style="fill: #f29888"/>
    <path d="M 302.144571 418.776993 
L 305.18928 419.278028 
L 304.916493 421.095557 
L 301.917531 420.551065 
L 302.144571 418.776993 
" clip-path="url(#pd420c83d23)" style="fill: #f29888"/>
    <path d="M 285.170787 504.993305 
L 285.170787 503.31126 
L 287.170095 503.403287 
L 287.170095 505.082775 
L 285.170787 504.993305 
" clip-path="url(#pd420c83d23)" style="fill: #f29888"/>
    <path d="M 297.986689 498.92465 
L 297.986689 497.245161 
L 299.985996 497.334632 
L 299.985996 499.016677 
L 297.986689 498.92465 
" clip-path="url(#pd420c83d23)" style="fill: #f29888"/>
    <path d="M 285.831575 497.06622 
L 288.469645 497.150578 
L 288.418815 498.694583 
L 285.780746 498.610225 
L 285.831575 497.06622 
" clip-path="url(#pd420c83d23)" style="fill: #f29888"/>
    <path d="M 293.171407 496.951187 
L 295.809476 497.038101 
L 295.758647 498.582106 
L 293.120577 498.495192 
L 293.171407 496.951187 
" clip-path="url(#pd420c83d23)" style="fill: #f29888"/>
    <path d="M 286.261935 494.972611 
L 288.261243 495.154108 
L 288.171443 496.516616 
L 286.034895 496.289105 
L 286.261935 494.972611 
" clip-path="url(#pd420c83d23)" style="fill: #f29888"/>
    <path d="M 285.897654 490.28947 
L 288.352736 490.470968 
L 288.215496 491.790018 
L 287.126042 491.697991 
L 287.034549 493.472063 
L 285.716361 493.290566 
L 285.897654 490.28947 
" clip-path="url(#pd420c83d23)" style="fill: #f29888"/>
    <path d="M 285.511347 485.450396 
L 288.647549 485.81339 
L 288.512003 487.403408 
L 285.511347 486.950943 
L 285.511347 485.450396 
" clip-path="url(#pd420c83d23)" style="fill: #f29888"/>
    <path d="M 294.896233 482.653804 
L 297.078529 482.927328 
L 296.987035 484.289836 
L 294.806434 483.926841 
L 294.896233 482.653804 
" clip-path="url(#pd420c83d23)" style="fill: #f29888"/>
    <path d="M 295.328287 474.450639 
L 297.827422 474.951674 
L 297.646129 476.406208 
L 295.101247 475.85916 
L 295.328287 474.450639 
" clip-path="url(#pd420c83d23)" style="fill: #f29888"/>
    <path d="M 296.146648 466.679489 
L 298.464489 467.088497 
L 298.327249 468.635058 
L 295.919608 468.180037 
L 296.146648 466.679489 
" clip-path="url(#pd420c83d23)" style="fill: #f29888"/>
    <path d="M 361.020796 461.127206 
L 363.892682 460.715642 
L 364.096002 462.142057 
L 361.761217 462.476932 
L 361.224115 462.553621 
L 361.020796 461.127206 
" clip-path="url(#pd420c83d23)" style="fill: #f29888"/>
    <path d="M 348.572563 440.280584 
L 349.812812 439.713086 
L 350.902265 442.085332 
L 349.663711 442.655386 
L 348.572563 440.280584 
" clip-path="url(#pd420c83d23)" style="fill: #f29888"/>
    <path d="M 357.111979 435.387827 
L 358.657207 434.707851 
L 359.700914 436.614851 
L 358.15738 437.38941 
L 357.111979 435.387827 
" clip-path="url(#pd420c83d23)" style="fill: #f29888"/>
    <path d="M 364.109557 431.890809 
L 365.292198 431.525259 
L 366.200358 433.570298 
L 364.973664 434.02532 
L 364.109557 431.890809 
" clip-path="url(#pd420c83d23)" style="fill: #f29888"/>
    <path d="M 370.381961 428.61619 
L 372.699803 427.481193 
L 373.745203 429.526233 
L 371.427362 430.571759 
L 370.381961 428.61619 
" clip-path="url(#pd420c83d23)" style="fill: #f29888"/>
    <path d="M 350.407521 427.322702 
L 351.952749 426.594157 
L 352.90835 428.503713 
L 351.363123 429.275715 
L 350.407521 427.322702 
" clip-path="url(#pd420c83d23)" style="fill: #f29888"/>
    <path d="M 373.516469 427.118198 
L 375.017644 426.346196 
L 375.653017 427.57322 
L 374.153536 428.299209 
L 373.516469 427.118198 
" clip-path="url(#pd420c83d23)" style="fill: #f29888"/>
    <path d="M 376.852602 425.487279 
L 378.091156 424.919781 
L 379.180609 427.292027 
L 377.942055 427.862082 
L 376.852602 425.487279 
" clip-path="url(#pd420c83d23)" style="fill: #f29888"/>
    <path d="M 354.407831 425.45916 
L 355.953059 424.730615 
L 356.906966 426.64017 
L 355.361738 427.412173 
L 354.407831 425.45916 
" clip-path="url(#pd420c83d23)" style="fill: #f29888"/>
    <path d="M 379.89731 423.488253 
L 381.135865 422.920755 
L 382.225318 425.293001 
L 380.986764 425.863055 
L 379.89731 423.488253 
" clip-path="url(#pd420c83d23)" style="fill: #f29888"/>
    <path d="M 361.405408 422.141083 
L 362.950636 421.415094 
L 363.906237 423.322094 
L 362.361009 424.096652 
L 361.405408 422.141083 
" clip-path="url(#pd420c83d23)" style="fill: #f29888"/>
    <path d="M 387.167674 420.034693 
L 388.406229 419.464638 
L 389.497376 421.83944 
L 388.257128 422.409495 
L 387.167674 420.034693 
" clip-path="url(#pd420c83d23)" style="fill: #f29888"/>
    <path d="M 391.649174 420.300548 
L 393.194401 419.393061 
L 394.422789 421.527572 
L 392.967361 422.437614 
L 391.649174 420.300548 
" clip-path="url(#pd420c83d23)" style="fill: #f29888"/>
    <path d="M 365.126154 419.26269 
L 366.366402 418.692635 
L 367.455856 421.067438 
L 366.217301 421.634936 
L 365.126154 419.26269 
" clip-path="url(#pd420c83d23)" style="fill: #f29888"/>
    <path d="M 367.267785 418.143031 
L 368.585973 417.506512 
L 369.67712 419.868533 
L 368.496173 420.551065 
L 367.267785 418.143031 
" clip-path="url(#pd420c83d23)" style="fill: #f29888"/>
    <path d="M 369.040053 416.414973 
L 370.58528 415.688984 
L 371.540882 417.595983 
L 369.995654 418.367985 
L 369.040053 416.414973 
" clip-path="url(#pd420c83d23)" style="fill: #f29888"/>
    <path d="M 398.206225 413.513573 
L 399.576937 412.823372 
L 400.681639 415.021789 
L 399.310927 415.71199 
L 398.206225 413.513573 
" clip-path="url(#pd420c83d23)" style="fill: #f29888"/>
    <path d="M 381.351044 411.445526 
L 382.589599 410.875472 
L 383.679052 413.250274 
L 382.440498 413.817772 
L 381.351044 411.445526 
" clip-path="url(#pd420c83d23)" style="fill: #f29888"/>
    <path d="M 402.07946 411.506878 
L 403.124861 411.005843 
L 404.216009 412.915399 
L 403.170608 413.505904 
L 402.07946 411.506878 
" clip-path="url(#pd420c83d23)" style="fill: #f29888"/>
    <path d="M 409.390488 407.764455 
L 410.629043 407.1944 
L 411.72019 409.569203 
L 410.479942 410.136701 
L 409.390488 407.764455 
" clip-path="url(#pd420c83d23)" style="fill: #f29888"/>
    <path d="M 301.781985 405.507243 
L 304.780946 406.235788 
L 304.508159 407.370785 
L 301.509198 406.690809 
L 301.781985 405.507243 
" clip-path="url(#pd420c83d23)" style="fill: #f29888"/>
    <path d="M 300.819606 404.006695 
L 301.575277 402.288862 
L 303.833817 403.283262 
L 303.078146 405.001096 
L 300.819606 404.006695 
" clip-path="url(#pd420c83d23)" style="fill: #f29888"/>
    <path d="M 300.963624 397.600609 
L 304.189626 397.963603 
L 304.008333 400.463664 
L 300.826383 400.10067 
L 300.963624 397.600609 
" clip-path="url(#pd420c83d23)" style="fill: #f29888"/>
    <path d="M 330.229762 396.373585 
L 331.866483 395.374072 
L 332.59335 396.690566 
L 330.821083 397.600609 
L 330.229762 396.373585 
" clip-path="url(#pd420c83d23)" style="fill: #f29888"/>
    <path d="M 333.184671 394.464029 
L 334.184325 393.646013 
L 335.002686 394.69154 
L 333.911538 395.509556 
L 333.184671 394.464029 
" clip-path="url(#pd420c83d23)" style="fill: #f29888"/>
    <path d="M 302.144571 392.781984 
L 304.462413 393.147535 
L 304.054079 394.783567 
L 301.736238 394.374559 
L 302.144571 392.781984 
" clip-path="url(#pd420c83d23)" style="fill: #f29888"/>
    <path d="M 324.164066 379.489227 
L 327.7984 377.127206 
L 329.616415 379.489227 
L 325.526306 381.943274 
L 324.164066 379.489227 
" clip-path="url(#pd420c83d23)" style="fill: #f29888"/>
    <path d="M 336.774953 370.105052 
L 338.137193 369.105539 
L 339.501128 370.74157 
L 338.40998 371.741083 
L 336.774953 370.105052 
" clip-path="url(#pd420c83d23)" style="fill: #f29888"/>
    <path d="M 339.319835 368.287523 
L 340.773569 367.469507 
L 342.04601 369.379063 
L 340.865063 370.378576 
L 339.319835 368.287523 
" clip-path="url(#pd420c83d23)" style="fill: #f29888"/>
    <path d="M 342.227303 366.380523 
L 344.045317 365.651978 
L 345.136465 367.651004 
L 343.591237 368.742544 
L 342.227303 366.380523 
" clip-path="url(#pd420c83d23)" style="fill: #f29888"/>
    <path d="M 296.782021 463.542909 
L 299.82673 463.90846 
L 299.645436 465.679976 
L 296.554981 465.270968 
L 296.782021 463.542909 
" clip-path="url(#pd420c83d23)" style="fill: #f29888"/>
    <path d="M 289.162625 434.477785 
L 289.918296 432.759951 
L 292.176836 433.754352 
L 291.421165 435.472185 
L 289.162625 434.477785 
" clip-path="url(#pd420c83d23)" style="fill: #f29888"/>
    <path d="M 296.554981 427.821181 
L 298.645783 428.68521 
L 298.191702 430.00426 
L 295.919608 429.140231 
L 296.554981 427.821181 
" clip-path="url(#pd420c83d23)" style="fill: #f29888"/>
    <path d="M 297.002284 425.638101 
L 297.757954 423.920268 
L 300.016494 424.914668 
L 299.260824 426.632502 
L 297.002284 425.638101 
" clip-path="url(#pd420c83d23)" style="fill: #f29888"/>
    <path d="M 300.963624 408.188801 
L 303.281466 408.597809 
L 303.054426 410.461351 
L 300.64509 410.052343 
L 300.963624 408.188801 
" clip-path="url(#pd420c83d23)" style="fill: #f29888"/>
    <path d="M 284.899695 289.101035 
L 285.938318 289.410347 
L 285.45374 291.031041 
L 284.415117 290.721729 
L 284.899695 289.101035 
" clip-path="url(#pd420c83d23)" style="fill: #f29888"/>
    <path d="M 286.551665 277.411077 
L 288.527252 277.500548 
L 288.481505 278.523068 
L 286.505918 278.433597 
L 286.551665 277.411077 
" clip-path="url(#pd420c83d23)" style="fill: #f29888"/>
    <path d="M 288.62044 269.269264 
L 290.031816 269.558125 
L 289.570959 271.805113 
L 288.159583 271.516251 
L 288.62044 269.269264 
" clip-path="url(#pd420c83d23)" style="fill: #f29888"/>
    <path d="M 287.141291 269.496774 
L 288.088421 269.742179 
L 287.744472 271.068898 
L 286.797343 270.820937 
L 287.141291 269.496774 
" clip-path="url(#pd420c83d23)" style="fill: #f29888"/>
    <path d="M 292.258164 268.607182 
L 294.41335 268.944614 
L 294.228668 270.12818 
L 292.071788 269.790749 
L 292.258164 268.607182 
" clip-path="url(#pd420c83d23)" style="fill: #f29888"/>
    <path d="M 414.480251 407.444918 
L 415.718806 406.877419 
L 416.809953 409.249665 
L 415.569705 409.81972 
L 414.480251 407.444918 
" clip-path="url(#pd420c83d23)" style="fill: #f29888"/>
    <path d="M 391.035827 407.143274 
L 392.264215 406.598783 
L 393.035134 408.09933 
L 391.80844 408.689836 
L 391.035827 407.143274 
" clip-path="url(#pd420c83d23)" style="fill: #f29888"/>
    <path d="M 395.763003 405.279732 
L 397.308231 404.553743 
L 398.262138 406.463299 
L 396.71691 407.235301 
L 395.763003 405.279732 
" clip-path="url(#pd420c83d23)" style="fill: #f29888"/>
    <path d="M 401.671127 401.644674 
L 403.216355 400.918685 
L 404.170262 402.825685 
L 402.625034 403.600243 
L 401.671127 401.644674 
" clip-path="url(#pd420c83d23)" style="fill: #f29888"/>
    <path d="M 405.254632 400.765307 
L 406.494881 400.195253 
L 407.584334 402.570055 
L 406.34578 403.14011 
L 405.254632 400.765307 
" clip-path="url(#pd420c83d23)" style="fill: #f29888"/>
    <path d="M 408.260371 399.464151 
L 410.486719 398.464638 
L 411.259333 400.144127 
L 409.078732 401.146196 
L 408.260371 399.464151 
" clip-path="url(#pd420c83d23)" style="fill: #f29888"/>
    <path d="M 386.744092 309.901643 
L 387.542121 309.472185 
L 387.908096 310.152161 
L 387.110067 310.581619 
L 386.744092 309.901643 
" clip-path="url(#pd420c83d23)" style="fill: #f29888"/>
    <path d="M 384.534688 307.521729 
L 385.912177 306.79574 
L 386.300178 307.531954 
L 384.922689 308.257943 
L 384.534688 307.521729 
" clip-path="url(#pd420c83d23)" style="fill: #f29888"/>
    <path d="M 388.079223 305.361656 
L 388.738317 306.241023 
L 387.801353 306.944005 
L 387.140565 306.064638 
L 388.079223 305.361656 
" clip-path="url(#pd420c83d23)" style="fill: #f29888"/>
    <path d="M 384.458443 302.061473 
L 386.040946 301.874863 
L 386.239182 303.54157 
L 384.656679 303.72818 
L 384.458443 302.061473 
" clip-path="url(#pd420c83d23)" style="fill: #f29888"/>
    <path d="M 326.0956 361.699939 
L 326.458186 357.47182 
L 328.321948 357.69933 
L 327.776374 361.881436 
L 326.0956 361.699939 
" clip-path="url(#pd420c83d23)" style="fill: #f29888"/>
    <path d="M 334.230072 354.018259 
L 337.229033 354.064273 
L 337.183286 355.654291 
L 334.230072 355.608278 
L 334.230072 354.018259 
" clip-path="url(#pd420c83d23)" style="fill: #f29888"/>
    <path d="M 327.137612 349.066707 
L 329.526616 349.432258 
L 329.30127 350.904687 
L 326.912267 350.539136 
L 327.137612 349.066707 
" clip-path="url(#pd420c83d23)" style="fill: #f29888"/>
    <path d="M 326.163373 339.864029 
L 326.481907 338.544979 
L 330.799056 339.498478 
L 330.480523 340.817529 
L 326.163373 339.864029 
" clip-path="url(#pd420c83d23)" style="fill: #f29888"/>
    <path d="M 335.578757 334.899696 
L 337.967761 335.265247 
L 337.742415 336.737675 
L 335.353412 336.372124 
L 335.578757 334.899696 
" clip-path="url(#pd420c83d23)" style="fill: #f29888"/>
    <path d="M 335.943038 332.535119 
L 338.332041 332.90067 
L 338.106696 334.375654 
L 335.717692 334.010103 
L 335.943038 332.535119 
" clip-path="url(#pd420c83d23)" style="fill: #f29888"/>
    <path d="M 336.53097 328.785027 
L 339.433355 329.347413 
L 339.197843 330.559099 
L 336.297153 329.996713 
L 336.53097 328.785027 
" clip-path="url(#pd420c83d23)" style="fill: #f29888"/>
    <path d="M 329.214859 327.637249 
L 332.11555 328.199635 
L 331.881732 329.411321 
L 328.981042 328.848935 
L 329.214859 327.637249 
" clip-path="url(#pd420c83d23)" style="fill: #f29888"/>
    <path d="M 336.896945 325.35703 
L 339.285948 325.720024 
L 339.060603 327.195009 
L 336.671599 326.829458 
L 336.896945 325.35703 
" clip-path="url(#pd420c83d23)" style="fill: #f29888"/>
    <path d="M 330.229762 312.209982 
L 333.957285 312.348022 
L 333.957285 313.618503 
L 330.185709 313.390992 
L 330.229762 312.209982 
" clip-path="url(#pd420c83d23)" style="fill: #f29888"/>
    <path d="M 339.16904 307.542179 
L 341.558043 307.90773 
L 341.332697 309.380158 
L 338.943694 309.017164 
L 339.16904 307.542179 
" clip-path="url(#pd420c83d23)" style="fill: #f29888"/>
    <path d="M 330.958323 307.529397 
L 331.185363 306.258917 
L 334.457112 306.757395 
L 334.275819 307.984419 
L 330.958323 307.529397 
" clip-path="url(#pd420c83d23)" style="fill: #f29888"/>
    <path d="M 332.806836 299.909069 
L 335.195839 300.272063 
L 334.970493 301.747048 
L 332.58149 301.381497 
L 332.806836 299.909069 
" clip-path="url(#pd420c83d23)" style="fill: #f29888"/>
    <path d="M 333.542174 295.305173 
L 335.841378 295.471333 
L 335.734636 296.943761 
L 333.437126 296.777602 
L 333.542174 295.305173 
" clip-path="url(#pd420c83d23)" style="fill: #f29888"/>
    <path d="M 334.485915 289.929276 
L 336.783425 290.095435 
L 336.676682 291.57042 
L 334.379173 291.40426 
L 334.485915 289.929276 
" clip-path="url(#pd420c83d23)" style="fill: #f29888"/>
    <path d="M 341.432663 287.513573 
L 344.023291 288.150091 
L 343.704757 289.602069 
L 341.114129 288.830067 
L 341.432663 287.513573 
" clip-path="url(#pd420c83d23)" style="fill: #f29888"/>
    <path d="M 335.478792 284.558491 
L 337.296807 284.832015 
L 337.16126 286.194522 
L 335.297499 285.785514 
L 335.478792 284.558491 
" clip-path="url(#pd420c83d23)" style="fill: #f29888"/>
    <path d="M 334.843419 283.060499 
L 335.297499 281.695435 
L 337.61534 282.469994 
L 337.069766 283.740475 
L 334.843419 283.060499 
" clip-path="url(#pd420c83d23)" style="fill: #f29888"/>
    <path d="M 336.132803 275.76482 
L 338.430312 275.93098 
L 338.325264 277.403408 
L 336.02606 277.237249 
L 336.132803 275.76482 
" clip-path="url(#pd420c83d23)" style="fill: #f29888"/>
    <path d="M 342.27305 273.993305 
L 342.41029 272.676811 
L 345.182212 273.085819 
L 344.909425 274.402313 
L 342.27305 273.993305 
" clip-path="url(#pd420c83d23)" style="fill: #f29888"/>
    <path d="M 387.309998 302.294096 
L 388.557024 302.145831 
L 388.682404 303.219477 
L 387.437073 303.365186 
L 387.309998 302.294096 
" clip-path="url(#pd420c83d23)" style="fill: #f29888"/>
    <path d="M 375.624214 281.204626 
L 377.770928 280.488862 
L 378.260589 281.953621 
L 376.11218 282.669385 
L 375.624214 281.204626 
" clip-path="url(#pd420c83d23)" style="fill: #f29888"/>
    <path d="M 372.155923 278.236762 
L 373.43853 277.868655 
L 374.094235 280.15143 
L 372.809934 280.519537 
L 372.155923 278.236762 
" clip-path="url(#pd420c83d23)" style="fill: #f29888"/>
    <path d="M 293.347617 265.20986 
L 295.550244 265.434814 
L 295.409615 266.822885 
L 293.206988 266.597931 
L 293.347617 265.20986 
" clip-path="url(#pd420c83d23)" style="fill: #f29888"/>
    <path d="M 286.246686 263.619842 
L 287.226008 263.826902 
L 286.876976 265.470603 
L 285.897654 265.263542 
L 286.246686 263.619842 
" clip-path="url(#pd420c83d23)" style="fill: #f29888"/>
    <path d="M 293.259512 260.317103 
L 296.324552 260.240414 
L 296.361828 261.694948 
L 293.296787 261.774194 
L 293.259512 260.317103 
" clip-path="url(#pd420c83d23)" style="fill: #f29888"/>
    <path d="M 295.753564 257.180523 
L 296.802353 257.267438 
L 296.639697 259.22045 
L 295.590908 259.133536 
L 295.753564 257.180523 
" clip-path="url(#pd420c83d23)" style="fill: #f29888"/>
    <path d="M 296.954843 240.873889 
L 298.342498 241.014486 
L 298.120541 243.218016 
L 296.731191 243.077419 
L 296.954843 240.873889 
" clip-path="url(#pd420c83d23)" style="fill: #f29888"/>
    <path d="M 293.633959 235.285819 
L 294.911482 235.428971 
L 294.645473 237.788436 
L 293.369643 237.645283 
L 293.633959 235.285819 
" clip-path="url(#pd420c83d23)" style="fill: #f29888"/>
    <path d="M 294.94198 231.740231 
L 297.12597 232.156908 
L 296.748135 234.130371 
L 294.564145 233.713694 
L 294.94198 231.740231 
" clip-path="url(#pd420c83d23)" style="fill: #f29888"/>
    <path d="M 295.352008 227.619477 
L 296.627837 227.918564 
L 296.200866 229.733536 
L 294.925037 229.431893 
L 295.352008 227.619477 
" clip-path="url(#pd420c83d23)" style="fill: #f29888"/>
    <path d="M 297.802007 218.521607 
L 299.128666 218.813025 
L 299.29471 218.051248 
L 300.146958 218.237858 
L 299.706432 220.236884 
L 297.52922 219.758856 
L 297.802007 218.521607 
" clip-path="url(#pd420c83d23)" style="fill: #f29888"/>
    <path d="M 297.595299 210.545953 
L 299.287933 210.804139 
L 298.842325 213.725989 
L 297.14969 213.465247 
L 297.595299 210.545953 
" clip-path="url(#pd420c83d23)" style="fill: #f29888"/>
    <path d="M 298.43738 208.605721 
L 299.914835 208.669629 
L 299.864005 209.894096 
L 298.38655 209.832745 
L 298.43738 208.605721 
" clip-path="url(#pd420c83d23)" style="fill: #f29888"/>
    <path d="M 298.855879 203.567255 
L 300.589177 203.718077 
L 300.377386 206.164455 
L 298.642394 206.013634 
L 298.855879 203.567255 
" clip-path="url(#pd420c83d23)" style="fill: #f29888"/>
    <path d="M 298.366218 196.80073 
L 301.094087 196.80073 
L 301.094087 198.390749 
L 298.366218 198.390749 
L 298.366218 196.80073 
" clip-path="url(#pd420c83d23)" style="fill: #f29888"/>
    <path d="M 297.525831 190.586366 
L 298.730499 190.586366 
L 298.730499 193.449422 
L 297.525831 193.449422 
L 297.525831 190.586366 
" clip-path="url(#pd420c83d23)" style="fill: #f29888"/>
    <path d="M 299.418396 189.530615 
L 301.055118 189.551065 
L 301.039869 190.72185 
L 299.404842 190.7014 
L 299.418396 189.530615 
" clip-path="url(#pd420c83d23)" style="fill: #f29888"/>
    <path d="M 298.15951 187.079124 
L 300.228285 187.074011 
L 300.231674 188.492757 
L 298.164593 188.500426 
L 298.15951 187.079124 
" clip-path="url(#pd420c83d23)" style="fill: #f29888"/>
    <path d="M 297.671544 181.889836 
L 299.308265 181.85916 
L 299.33368 183.231893 
L 297.698653 183.262568 
L 297.671544 181.889836 
" clip-path="url(#pd420c83d23)" style="fill: #f29888"/>
    <path d="M 343.496355 269.128667 
L 345.793864 269.294827 
L 345.687122 270.769811 
L 343.389612 270.603652 
L 343.496355 269.128667 
" clip-path="url(#pd420c83d23)" style="fill: #f29888"/>
    <path d="M 339.909461 263.361656 
L 340.546529 262.270116 
L 342.454343 263.451126 
L 341.81897 264.496652 
L 339.909461 263.361656 
" clip-path="url(#pd420c83d23)" style="fill: #f29888"/>
    <path d="M 324.27928 154.447961 
L 326.20912 155.000122 
L 325.829591 156.319172 
L 323.901445 155.767012 
L 324.27928 154.447961 
" clip-path="url(#pd420c83d23)" style="fill: #f29888"/>
    <path d="M 326.610676 152.671333 
L 328.430385 153.532806 
L 327.861091 154.734267 
L 326.041382 153.872794 
L 326.610676 152.671333 
" clip-path="url(#pd420c83d23)" style="fill: #f29888"/>
    <path d="M 331.258219 143.379184 
L 332.691621 143.99014 
L 332.256179 145.010103 
L 330.824471 144.399148 
L 331.258219 143.379184 
" clip-path="url(#pd420c83d23)" style="fill: #f29888"/>
    <path d="M 332.913578 137.816677 
L 334.704484 138.552891 
L 333.918315 140.465003 
L 332.12741 139.728789 
L 332.913578 137.816677 
" clip-path="url(#pd420c83d23)" style="fill: #f29888"/>
    <path d="M 344.201196 110.269994 
L 346.034459 111.090566 
L 345.012779 113.370785 
L 343.18121 112.552769 
L 344.201196 110.269994 
" clip-path="url(#pd420c83d23)" style="fill: #f29888"/>
   </g>
   <g id="LineCollection_1">
    <path d="M 247.741374 658.187219 
L 242.470318 665.6465 
L 238.742795 671.375167 
L 234.290099 679.192331 
L 233.380245 685.646987 
L 233.290446 690.920633 
L 232.932942 693.379793 
L 231.745218 701.557395 
L 231.747261 701.660829 
" clip-path="url(#pd420c83d23)" style="fill: none; stroke: #f29888; stroke-width: 0.2"/>
    <path d="M 234.495508 700.130889 
L 234.589996 699.918807 
L 232.932942 693.379793 
L 230.703206 689.241144 
L 229.157978 683.241509 
L 226.702896 679.240901 
L 223.522641 676.331832 
L 219.613825 674.422276 
L 214.615556 674.332806 
L 210.161166 676.605356 
L 203.344882 675.424346 
L 192.165702 671.423737 
L 186.166084 668.151674 
L 180.076667 664.877054 
L 179.392159 662.187827 
" clip-path="url(#pd420c83d23)" style="fill: none; stroke: #f29888; stroke-width: 0.2"/>
    <path d="M 263.556237 623.825441 
L 263.010663 638.373341 
L 262.668409 640.195983 
L 261.92121 644.191479 
L 259.830409 649.010103 
L 254.012084 659.283871 
L 250.013469 670.283628 
L 248.559735 677.011808 
L 248.832522 681.738405 
L 243.559771 692.464638 
L 241.712051 696.113464 
" clip-path="url(#pd420c83d23)" style="fill: none; stroke: #f29888; stroke-width: 0.2"/>
    <path d="M 251.633247 646.489592 
L 259.830409 649.010103 
" clip-path="url(#pd420c83d23)" style="fill: none; stroke: #f29888; stroke-width: 0.2"/>
    <path d="M 198.976903 494.752769 
L 192.797686 514.387705 
L 189.34295 524.748387 
L 186.974279 530.244431 
L 184.798761 535.293122 
L 176.254262 555.656604 
L 169.529472 568.018868 
L 155.168343 588.926841 
L 147.714991 601.836153 
L 138.081039 624.017164 
L 133.101407 633.467803 
L 125.326105 641.729867 
" clip-path="url(#pd420c83d23)" style="fill: none; stroke: #f29888; stroke-width: 0.2"/>
    <path d="M 266.634832 609.00913 
L 237.521184 596.439805 
L 213.066939 585.854169 
" clip-path="url(#pd420c83d23)" style="fill: none; stroke: #f29888; stroke-width: 0.2"/>
    <path d="M 221.020118 566.646135 
L 225.29152 568.10067 
L 241.475747 576.600365 
L 247.741374 580.007912 
L 261.55693 587.643579 
L 269.737148 589.27961 
" clip-path="url(#pd420c83d23)" style="fill: none; stroke: #f29888; stroke-width: 0.2"/>
    <path d="M 214.798543 581.93025 
L 210.027314 578.987949 
L 207.118152 575.485819 
L 205.755912 571.942788 
L 205.210338 568.895679 
" clip-path="url(#pd420c83d23)" style="fill: none; stroke: #f29888; stroke-width: 0.2"/>
    <path d="M 321.712372 446.001582 
L 323.998021 451.479732 
L 334.269041 463.113451 
L 337.45099 468.476567 
L 346.812156 490.928545 
L 352.811773 507.199391 
L 356.175016 514.927085 
L 363.455546 526.172246 
L 365.354888 529.106878 
L 377.715015 547.650274 
L 389.895543 564.286671 
L 404.619259 578.647961 
L 439.339441 606.01059 
L 443.858215 609.574072 
L 450.518621 614.829823 
L 461.062428 626.100548 
L 475.332063 648.647109 
L 482.966708 658.91832 
L 499.599931 673.647718 
L 512.869913 683.466464 
L 525.231735 696.010225 
L 526.488926 697.656482 
L 537.591862 712.194157 
L 540.567103 717.411564 
L 554.225085 741.376872 
L 559.377539 754.618503 
L 562.042718 761.469385 
L 562.728921 763.660134 
L 562.405304 766.469507 
L 562.118439 769.339588 
" clip-path="url(#pd420c83d23)" style="fill: none; stroke: #f29888; stroke-width: 0.2"/>
    <path d="M 245.706224 693.889921 
L 252.314367 689.282045 
L 260.403092 682.098844 
L 273.94586 668.73451 
L 280.763839 658.189775 
L 284.489667 650.099087 
L 284.398173 646.5535 
L 283.749246 643.774802 
" clip-path="url(#pd420c83d23)" style="fill: none; stroke: #f29888; stroke-width: 0.2"/>
    <path d="M 262.668409 640.195983 
L 267.092301 641.208278 
L 273.613772 642.0493 
L 279.886176 642.821302 
L 283.749246 643.774802 
" clip-path="url(#pd420c83d23)" style="fill: none; stroke: #f29888; stroke-width: 0.2"/>
    <path d="M 408.207847 641.152039 
L 431.113475 620.788558 
L 443.858215 609.574072 
" clip-path="url(#pd420c83d23)" style="fill: none; stroke: #f29888; stroke-width: 0.2"/>
    <path d="M 269.355924 595.920876 
L 272.73611 598.1014 
L 277.64458 600.647474 
L 283.098623 606.739136 
L 286.643159 615.466342 
L 288.915253 622.283993 
L 291.551629 627.828606 
L 298.095126 633.554717 
L 301.094087 638.646865 
L 304.730117 641.918929 
L 308.001865 643.55496 
" clip-path="url(#pd420c83d23)" style="fill: none; stroke: #f29888; stroke-width: 0.2"/>
    <path d="M 289.733614 448.568107 
L 291.368641 455.475228 
L 293.005363 471.835545 
L 288.074866 516.046744 
L 287.9156 517.468046 
L 269.737148 589.27961 
L 269.355924 595.920876 
L 266.634832 609.00913 
L 263.556237 623.825441 
L 256.467166 633.823128 
L 251.633247 646.489592 
L 247.741374 658.187219 
" clip-path="url(#pd420c83d23)" style="fill: none; stroke: #f29888; stroke-width: 0.2"/>
    <path d="M 381.593333 533.235301 
L 384.683789 535.326354 
L 387.955537 536.688862 
L 390.227632 535.507851 
L 389.954845 532.690809 
L 388.59091 529.41619 
L 387.22867 528.327206 
L 385.319162 529.41619 
L 384.683789 531.417772 
L 383.773934 532.054291 
L 380.761418 532.542544 
" clip-path="url(#pd420c83d23)" style="fill: none; stroke: #f29888; stroke-width: 0.2"/>
    <path d="M 363.455546 526.172246 
L 368.413151 527.417164 
L 372.686248 530.052708 
" clip-path="url(#pd420c83d23)" style="fill: none; stroke: #f29888; stroke-width: 0.2"/>
    <path d="M 372.686248 530.052708 
L 374.775355 532.506756 
L 376.95765 535.781376 
L 379.138251 536.870359 
L 381.410346 535.326354 
L 381.593333 533.235301 
L 380.761418 532.542544 
L 379.956612 531.872794 
L 377.230437 530.418259 
L 372.686248 530.052708 
" clip-path="url(#pd420c83d23)" style="fill: none; stroke: #f29888; stroke-width: 0.2"/>
    <path d="M 293.049415 518.751309 
L 298.896543 523.104687 
L 309.030323 525.694218 
L 312.574858 527.422276 
L 318.210195 527.603774 
L 330.934603 526.877785 
L 347.022253 527.240779 
L 365.354888 529.106878 
" clip-path="url(#pd420c83d23)" style="fill: none; stroke: #f29888; stroke-width: 0.2"/>
    <path d="M 563.864121 760.988801 
L 570.404229 765.464881 
L 579.675595 771.467072 
L 580.548234 772.907643 
" clip-path="url(#pd420c83d23)" style="fill: none; stroke: #f29888; stroke-width: 0.2"/>
    <path d="M 559.377539 754.618503 
L 549.043829 758.197322 
L 538.501716 763.378941 
" clip-path="url(#pd420c83d23)" style="fill: none; stroke: #f29888; stroke-width: 0.2"/>
    <path d="M 526.488926 697.656482 
L 535.50106 700.552769 
L 547.317308 705.09787 
L 557.523943 706.171516 
L 566.222626 708.006939 
L 576.039566 714.188071 
L 589.855122 720.371759 
L 598.580914 724.553865 
L 612.213482 731.463542 
L 617.848819 738.191722 
L 620.031114 744.554352 
L 630.756214 751.282532 
L 635.11911 758.918198 
L 635.615548 771.221668 
" clip-path="url(#pd420c83d23)" style="fill: none; stroke: #f29888; stroke-width: 0.2"/>
    <path d="M 527.957909 720.466342 
L 522.868146 724.466951 
L 518.413756 726.28448 
L 512.143046 725.558491 
" clip-path="url(#pd420c83d23)" style="fill: none; stroke: #f29888; stroke-width: 0.2"/>
    <path d="M 540.567103 717.411564 
L 533.866033 712.920146 
L 527.957909 720.466342 
L 525.048747 724.740475 
L 524.504868 729.193548 
L 525.048747 732.649665 
" clip-path="url(#pd420c83d23)" style="fill: none; stroke: #f29888; stroke-width: 0.2"/>
    <path d="M 562.728921 763.660134 
L 563.864121 760.988801 
L 564.860386 758.652343 
L 565.768546 739.012295 
L 562.224011 717.194279 
L 557.523943 706.171516 
L 556.952955 704.829458 
L 556.315887 700.82885 
L 558.952262 692.919659 
L 560.860076 685.102495 
L 560.041716 679.465855 
L 561.40565 668.829093 
" clip-path="url(#pd420c83d23)" style="fill: none; stroke: #f29888; stroke-width: 0.2"/>
    <path d="M 560.860076 685.102495 
L 562.405304 683.466464 
L 569.404575 680.191844 
L 572.767818 676.738284 
L 576.674939 670.10213 
L 578.038874 665.009982 
L 579.402808 661.282897 
" clip-path="url(#pd420c83d23)" style="fill: none; stroke: #f29888; stroke-width: 0.2"/>
    <path d="M 576.674939 670.10213 
L 579.130022 667.556056 
L 582.40177 663.555447 
L 585.127945 661.464394 
" clip-path="url(#pd420c83d23)" style="fill: none; stroke: #f29888; stroke-width: 0.2"/>
    <path d="M 416.332731 400.346433 
L 414.980078 400.939136 
L 412.145467 402.168716 
L 332.476442 441.535727 
L 323.726929 445.840536 
L 321.712372 446.001582 
L 289.733614 448.568107 
L 285.552011 450.204139 
" clip-path="url(#pd420c83d23)" style="fill: none; stroke: #f29888; stroke-width: 0.2"/>
    <path d="M 332.39161 241.04148 
L 331.927479 241.267559 
" clip-path="url(#pd420c83d23)" style="fill: none; stroke: #f29888; stroke-width: 0.2"/>
    <path d="M 241.475747 576.600365 
L 250.428579 558.624467 
" clip-path="url(#pd420c83d23)" style="fill: none; stroke: #f29888; stroke-width: 0.2"/>
    <path d="M 285.552011 450.204139 
L 273.55447 461.837858 
L 248.563124 510.318077 
L 222.292559 561.280463 
L 222.18751 561.822398 
L 221.020118 566.646135 
L 214.798543 581.93025 
L 213.066939 585.854169 
L 179.392159 662.187827 
" clip-path="url(#pd420c83d23)" style="fill: none; stroke: #f29888; stroke-width: 0.2"/>
    <path d="M 157.472311 537.183517 
L 166.815157 529.919781 
L 179.175284 526.282167 
L 185.720476 527.736701 
L 186.974279 530.244431 
L 188.992224 534.280828 
L 197.353736 546.280097 
L 207.351969 554.825806 
L 222.18751 561.822398 
" clip-path="url(#pd420c83d23)" style="fill: none; stroke: #f29888; stroke-width: 0.2"/>
    <path d="M 305.59253 517.112721 
L 298.049379 518.296287 
L 293.049415 518.751309 
L 288.074866 516.046744 
L 283.23417 515.476689 
L 268.327467 513.388192 
L 254.147631 511.568107 
L 248.563124 510.318077 
L 243.514024 509.842605 
L 228.607321 503.569446 
L 213.883606 497.480341 
L 208.975136 494.660743 
L 201.340491 494.479245 
L 198.976903 494.752769 
L 189.34295 495.93378 
L 174.619235 498.024833 
L 168.619617 498.024833 
L 147.714991 502.114912 
L 142.260947 503.750943 
L 141.612808 504.699811 
" clip-path="url(#pd420c83d23)" style="fill: none; stroke: #f29888; stroke-width: 0.2"/>
    <path d="M 142.260947 503.750943 
L 133.596151 504.228971 
L 129.597535 507.13804 
L 127.983671 508.150802 
" clip-path="url(#pd420c83d23)" style="fill: none; stroke: #f29888; stroke-width: 0.2"/>
    <path d="M 319.297954 424.221911 
L 324.179315 432.990018 
L 327.40701 437.898113 
L 332.476442 441.535727 
L 335.995562 445.940231 
L 339.177511 451.167864 
L 345.539715 461.165551 
L 350.446491 465.621181 
" clip-path="url(#pd420c83d23)" style="fill: none; stroke: #f29888; stroke-width: 0.2"/>
    <path d="M 350.446491 465.621181 
L 355.900535 470.89227 
L 359.263777 471.347292 
L 360.717511 468.711747 
L 359.626363 465.710651 
L 358.445416 463.619598 
L 355.627748 464.07462 
L 353.082866 465.25563 
L 350.446491 465.621181 
" clip-path="url(#pd420c83d23)" style="fill: none; stroke: #f29888; stroke-width: 0.2"/>
    <path d="M 289.733614 448.568107 
L 295.368951 441.65843 
L 302.639315 428.207182 
" clip-path="url(#pd420c83d23)" style="fill: none; stroke: #f29888; stroke-width: 0.2"/>
    <path d="M 335.238197 319.497991 
L 343.35742 320.967864 
L 349.992411 325.602435 
L 358.809697 330.329032 
L 367.625288 330.237005 
L 372.169478 328.237979 
L 384.622793 323.240414 
L 390.71221 319.968351 
" clip-path="url(#pd420c83d23)" style="fill: none; stroke: #f29888; stroke-width: 0.2"/>
    <path d="M 383.667192 299.382471 
L 381.759378 295.473889 
L 379.304295 290.565794 
L 374.39752 284.295192 
L 366.217301 275.752039 
L 358.037083 268.026902 
L 353.582693 266.027876 
L 344.584114 263.527815 
L 342.766099 265.345344 
L 340.995526 269.151674 
" clip-path="url(#pd420c83d23)" style="fill: none; stroke: #f29888; stroke-width: 0.2"/>
    <path d="M 321.712372 446.001582 
L 319.726619 438.749361 
L 319.297954 424.221911 
L 318.818459 408.027754 
L 321.182047 379.30773 
L 326.088823 370.399026 
L 330.270426 362.947413 
L 335.238197 319.497991 
L 340.995526 269.151674 
L 338.086364 263.880584 
L 334.087748 259.156543 
L 332.269734 254.066951 
L 331.927479 241.267559 
L 331.638622 230.45058 
" clip-path="url(#pd420c83d23)" style="fill: none; stroke: #f29888; stroke-width: 0.2"/>
    <path d="M 330.731432 217.690811 
L 328.816692 210.443701 
L 326.634397 195.903469 
L 327.597303 173.608787 
" clip-path="url(#pd420c83d23)" style="fill: none; stroke: #f29888; stroke-width: 0.2"/>
    <path d="M 327.654708 169.903785 
L 326.81569 161.188923 
L 350.993759 105.02958 
" clip-path="url(#pd420c83d23)" style="fill: none; stroke: #f29888; stroke-width: 0.2"/>
    <path d="M 331.927479 241.267559 
L 323.998021 243.345831 
L 316.182084 245.255386 
L 308.91172 248.708947 
L 299.730153 247.346439 
L 294.367603 242.619842 
L 291.732922 236.893731 
L 292.551283 227.351065 
L 296.641392 198.907121 
L 296.458404 181.731345 
" clip-path="url(#pd420c83d23)" style="fill: none; stroke: #f29888; stroke-width: 0.2"/>
    <path d="M 350.993759 105.02958 
L 355.537948 70.31759 
L 357.893119 45.854576 
" clip-path="url(#pd420c83d23)" style="fill: none; stroke: #f29888; stroke-width: 0.2"/>
   </g>
  </g>
 </g>
 <defs>
  <clipPath id="pd420c83d23">
   <rect x="7.2" y="7.2" width="660.164809" height="831.6"/>
  </clipPath>
 </defs>
</svg>
