<?xml version="1.0" encoding="utf-8" standalone="no"?>
<!DOCTYPE svg PUBLIC "-//W3C//DTD SVG 1.1//EN"
  "http://www.w3.org/Graphics/SVG/1.1/DTD/svg11.dtd">
<svg xmlns:xlink="http://www.w3.org/1999/xlink" width="540.242958pt" height="846pt" viewBox="0 0 540.242958 846" xmlns="http://www.w3.org/2000/svg" version="1.1">
 <metadata>
  <rdf:RDF xmlns:dc="http://purl.org/dc/elements/1.1/" xmlns:cc="http://creativecommons.org/ns#" xmlns:rdf="http://www.w3.org/1999/02/22-rdf-syntax-ns#">
   <cc:Work>
    <dc:type rdf:resource="http://purl.org/dc/dcmitype/StillImage"/>
    <dc:date>2025-03-16T14:38:38.710609</dc:date>
    <dc:format>image/svg+xml</dc:format>
    <dc:creator>
     <cc:Agent>
      <dc:title>Matplotlib v3.10.1, https://matplotlib.org/</dc:title>
     </cc:Agent>
    </dc:creator>
   </cc:Work>
  </rdf:RDF>
 </metadata>
 <defs>
  <style type="text/css">*{stroke-linejoin: round; stroke-linecap: butt}</style>
 </defs>
 <g id="figure_1">
  <g id="patch_1">
   <path d="M 0 846 
L 540.242958 846 
L 540.242958 0 
L 0 0 
z
" style="fill: #ffffff"/>
  </g>
  <g id="axes_1">
   <g id="PatchCollection_1">
    <path d="M 482.952293 113.090319 
L 436.370528 45 
L 327.940658 83.712005 
L 276.376514 96.882882 
L 174.203068 95.85825 
L 31.101953 93.979066 
L 197.646614 306.27285 
L 281.719733 323.314097 
L 289.214118 430.572735 
L 238.335572 441.321 
L 233.897231 495.738498 
L 171.863154 495.630642 
L 210.775666 581.853212 
L 225.184315 713.429229 
L 279.624081 753.642922 
L 318.811387 801 
L 395.551112 792.836131 
L 405.349326 694.853108 
L 489.564006 646.288873 
L 508.255557 604.635717 
L 509.141005 333.825908 
L 466.003881 203.199854 
L 482.952293 113.090319 
" clip-path="url(#p6bfb2cc60d)" style="fill: #f29888"/>
   </g>
   <g id="PatchCollection_2">
    <path d="M 334.044418 549.612567 
L 333.858446 557.676876 
L 333.006307 557.660283 
L 332.836989 564.998639 
L 327.577041 564.878338 
L 327.726929 558.245195 
L 326.769313 558.224453 
L 326.971939 549.450783 
L 334.044418 549.612567 
" clip-path="url(#p6bfb2cc60d)" style="fill: #f29888"/>
    <path d="M 336.917266 508.826408 
L 341.402794 509.071158 
L 343.440156 509.179014 
L 343.034904 516.654264 
L 336.512014 516.301658 
L 336.917266 508.826408 
" clip-path="url(#p6bfb2cc60d)" style="fill: #f29888"/>
    <path d="M 319.169452 506.988707 
L 326.477865 507.12975 
L 326.325202 515.028127 
L 319.014013 514.882937 
L 319.169452 506.988707 
" clip-path="url(#p6bfb2cc60d)" style="fill: #f29888"/>
    <path d="M 321.972907 491.088245 
L 327.776892 491.465741 
L 327.041332 502.711802 
L 321.237347 502.330158 
L 321.972907 491.088245 
" clip-path="url(#p6bfb2cc60d)" style="fill: #f29888"/>
    <path d="M 338.477208 490.992834 
L 344.064688 491.411813 
L 343.370764 500.641797 
L 337.783283 500.222818 
L 338.477208 490.992834 
" clip-path="url(#p6bfb2cc60d)" style="fill: #f29888"/>
    <path d="M 328.309826 479.26142 
L 328.082218 486.51681 
L 323.127597 486.359174 
L 323.355205 479.103785 
L 328.309826 479.26142 
" clip-path="url(#p6bfb2cc60d)" style="fill: #f29888"/>
    <path d="M 330.322207 455.470877 
L 330.091824 463.28214 
L 324.432175 463.132801 
L 324.731951 455.53725 
L 330.322207 455.470877 
" clip-path="url(#p6bfb2cc60d)" style="fill: #f29888"/>
    <path d="M 295.292897 542.017016 
L 295.181869 548.986172 
L 282.44419 548.758015 
L 282.294303 542.20369 
L 295.292897 542.017016 
" clip-path="url(#p6bfb2cc60d)" style="fill: #f29888"/>
    <path d="M 318.675378 530.567687 
L 318.805835 528.335898 
L 325.958809 528.754877 
L 325.520249 536.255017 
L 310.051284 535.350686 
L 310.362162 530.078187 
L 318.675378 530.567687 
" clip-path="url(#p6bfb2cc60d)" style="fill: #f29888"/>
    <path d="M 273.956106 519.421185 
L 274.083788 522.532416 
L 276.93443 522.549009 
L 277.528429 518.823829 
L 283.568348 518.906795 
L 283.485077 527.315414 
L 267.702458 526.867397 
L 267.985579 519.570524 
L 273.956106 519.421185 
" clip-path="url(#p6bfb2cc60d)" style="fill: #f29888"/>
    <path d="M 194.376841 174.94988 
L 194.29357 180.077188 
L 175.382739 179.334641 
L 175.32445 174.398155 
L 194.376841 174.94988 
" clip-path="url(#p6bfb2cc60d)" style="fill: #f29888"/>
    <path d="M 238.416067 164.363399 
L 238.307815 168.918241 
L 227.316051 168.710826 
L 227.502022 164.081315 
L 238.416067 164.363399 
" clip-path="url(#p6bfb2cc60d)" style="fill: #f29888"/>
    <path d="M 257.646104 159.352244 
L 258.162384 163.770191 
L 245.405275 165.259434 
L 244.888995 160.837338 
L 257.646104 159.352244 
" clip-path="url(#p6bfb2cc60d)" style="fill: #f29888"/>
    <path d="M 145.752162 135.561701 
L 147.6896 130.944634 
L 153.943247 133.923119 
L 151.858698 138.092168 
L 145.752162 135.561701 
" clip-path="url(#p6bfb2cc60d)" style="fill: #f29888"/>
   </g>
   <g id="LineCollection_1">
    <path d="M 216.798931 582.774137 
L 248.347515 702.344952 
" clip-path="url(#p6bfb2cc60d)" style="fill: none; stroke: #f29888; stroke-width: 0.2"/>
    <path d="M 307.628099 537.872857 
L 297.857642 552.408526 
L 294.432431 560.597285 
L 293.166712 565.089902 
L 290.785163 578.244185 
L 288.178783 580.256114 
L 284.88958 581.504755 
L 221.717468 580.911547 
L 216.798931 582.774137 
L 211.263583 586.308744 
" clip-path="url(#p6bfb2cc60d)" style="fill: none; stroke: #f29888; stroke-width: 0.2"/>
    <path d="M 179.687037 512.966848 
L 182.505181 512.576478 
L 189.844126 512.841969 
L 199.2815 515.725043 
L 211.339132 520.968504 
L 215.535988 522.018025 
" clip-path="url(#p6bfb2cc60d)" style="fill: none; stroke: #f29888; stroke-width: 0.2"/>
    <path d="M 404.619959 702.146849 
L 398.260193 697.806703 
L 383.671124 689.306821 
L 380.881548 687.527197 
" clip-path="url(#p6bfb2cc60d)" style="fill: none; stroke: #f29888; stroke-width: 0.2"/>
    <path d="M 487.4517 615.292719 
L 445.311052 607.676427 
" clip-path="url(#p6bfb2cc60d)" style="fill: none; stroke: #f29888; stroke-width: 0.2"/>
    <path d="M 448.838964 597.098242 
L 410.498246 592.837931 
L 371.891061 588.225013 
" clip-path="url(#p6bfb2cc60d)" style="fill: none; stroke: #f29888; stroke-width: 0.2"/>
    <path d="M 420.17433 358.155732 
L 416.493754 543.195135 
L 410.498246 592.837931 
L 380.881548 687.527197 
" clip-path="url(#p6bfb2cc60d)" style="fill: none; stroke: #f29888; stroke-width: 0.2"/>
    <path d="M 460.072214 365.444308 
L 455.833723 544.663636 
L 448.838964 597.098242 
L 445.311052 607.676427 
L 419.871779 679.052205 
" clip-path="url(#p6bfb2cc60d)" style="fill: none; stroke: #f29888; stroke-width: 0.2"/>
    <path d="M 381.594902 356.674786 
L 383.224237 447.186707 
L 378.04756 542.112427 
L 371.891061 588.225013 
L 369.920316 592.194943 
L 349.721561 663.218115 
" clip-path="url(#p6bfb2cc60d)" style="fill: none; stroke: #f29888; stroke-width: 0.2"/>
    <path d="M 494.62688 359.715495 
L 497.249914 553.503679 
L 487.4517 615.292719 
" clip-path="url(#p6bfb2cc60d)" style="fill: none; stroke: #f29888; stroke-width: 0.2"/>
    <path d="M 361.018652 356.683082 
L 381.594902 356.674786 
L 420.17433 358.155732 
L 446.462966 362.109069 
L 460.072214 365.444308 
" clip-path="url(#p6bfb2cc60d)" style="fill: none; stroke: #f29888; stroke-width: 0.2"/>
    <path d="M 440.309244 319.107713 
L 396.972269 306.111066 
" clip-path="url(#p6bfb2cc60d)" style="fill: none; stroke: #f29888; stroke-width: 0.2"/>
    <path d="M 433.65312 251.399039 
L 417.581828 275.986057 
L 396.972269 306.111066 
L 361.018652 356.683082 
" clip-path="url(#p6bfb2cc60d)" style="fill: none; stroke: #f29888; stroke-width: 0.2"/>
    <path d="M 369.920316 592.194943 
L 355.331247 593.808635 
L 348.114432 592.750816 
L 343.120951 590.531472 
L 339.229422 585.993223 
L 334.455221 575.61001 
L 325.209371 565.761928 
L 324.17126 538.432878 
" clip-path="url(#p6bfb2cc60d)" style="fill: none; stroke: #f29888; stroke-width: 0.2"/>
    <path d="M 330.411029 538.710815 
L 324.17126 538.432878 
L 307.628099 537.872857 
L 290.499266 536.935339 
L 246.088097 534.964893 
" clip-path="url(#p6bfb2cc60d)" style="fill: none; stroke: #f29888; stroke-width: 0.2"/>
    <path d="M 293.588618 447.991478 
L 290.499266 536.935339 
" clip-path="url(#p6bfb2cc60d)" style="fill: none; stroke: #f29888; stroke-width: 0.2"/>
    <path d="M 361.018652 356.683082 
L 347.884049 377.113497 
L 342.568587 384.277624 
L 339.912244 388.554529 
L 338.660404 392.781654 
L 337.766629 410.652563 
L 330.411029 538.710815 
" clip-path="url(#p6bfb2cc60d)" style="fill: none; stroke: #f29888; stroke-width: 0.2"/>
    <path d="M 291.34863 310.313301 
L 289.036473 315.312012 
L 287.315541 319.485209 
L 286.455074 322.554957 
L 285.830542 327.089057 
L 285.533542 331.187585 
L 285.375328 335.667757 
L 287.876232 362.275001 
L 295.376168 386.920096 
L 297.696651 403.347393 
L 296.447587 418.347673 
L 293.946683 432.27769 
L 293.588618 447.991478 
" clip-path="url(#p6bfb2cc60d)" style="fill: none; stroke: #f29888; stroke-width: 0.2"/>
    <path d="M 291.34863 310.313301 
L 354.517967 352.335656 
L 361.018652 356.683082 
" clip-path="url(#p6bfb2cc60d)" style="fill: none; stroke: #f29888; stroke-width: 0.2"/>
    <path d="M 378.386195 275.753752 
L 377.670065 279.113881 
L 374.527975 294.537288 
L 370.886259 306.24796 
L 369.101485 310.607831 
L 365.60133 316.390572 
L 363.103201 321.675516 
L 360.3164 328.462147 
L 357.318646 335.958138 
L 356.102891 339.957107 
L 355.175808 344.673732 
L 354.517967 352.335656 
" clip-path="url(#p6bfb2cc60d)" style="fill: none; stroke: #f29888; stroke-width: 0.2"/>
    <path d="M 202.670627 285.70969 
L 251.425764 286.742618 
L 290.868434 287.588873 
L 295.598224 287.717471 
L 303.950299 287.850216 
L 323.41627 287.514204 
L 325.953258 287.422941 
L 328.273742 286.784101 
" clip-path="url(#p6bfb2cc60d)" style="fill: none; stroke: #f29888; stroke-width: 0.2"/>
    <path d="M 328.273742 286.784101 
L 329.661591 284.958846 
L 331.857168 279.864725 
L 338.163554 266.378577 
L 339.390413 264.051376 
L 341.008644 262.134858 
L 344.333931 259.040221 
L 349.416234 254.688646 
L 351.717288 252.124992 
L 354.770556 248.300253 
L 357.107693 244.931827 
L 358.134702 242.845229 
L 359.433728 240.68396 
L 360.963138 239.103455 
L 364.25234 237.269903 
L 368.737868 235.432203 
L 372.929173 233.760435 
L 375.646581 233.217007 
L 396.022981 223.57634 
" clip-path="url(#p6bfb2cc60d)" style="fill: none; stroke: #f29888; stroke-width: 0.2"/>
    <path d="M 286.008187 173.838134 
L 286.790934 189.958457 
L 290.868434 287.588873 
L 291.34863 310.313301 
" clip-path="url(#p6bfb2cc60d)" style="fill: none; stroke: #f29888; stroke-width: 0.2"/>
    <path d="M 477.09557 322.679406 
L 448.167245 308.396783 
L 441.380663 296.072162 
L 439.415469 280.179996 
" clip-path="url(#p6bfb2cc60d)" style="fill: none; stroke: #f29888; stroke-width: 0.2"/>
    <path d="M 417.581828 275.986057 
L 439.415469 280.179996 
L 481.203604 291.430206 
" clip-path="url(#p6bfb2cc60d)" style="fill: none; stroke: #f29888; stroke-width: 0.2"/>
    <path d="M 375.646581 233.217007 
L 376.751309 235.606432 
L 377.409149 237.581026 
L 377.819953 239.717405 
L 378.561064 248.84783 
L 379.218904 260.778362 
L 379.218904 263.387647 
L 378.386195 275.753752 
" clip-path="url(#p6bfb2cc60d)" style="fill: none; stroke: #f29888; stroke-width: 0.2"/>
    <path d="M 391.26821 173.543604 
L 386.227542 191.916458 
L 384.292881 198.690644 
L 384.212385 200.271149 
L 384.387254 201.656684 
L 388.128895 213.96886 
L 388.578558 215.736039 
L 389.314118 217.216985 
L 390.563183 218.681338 
L 396.022981 223.57634 
L 401.629891 228.579199 
L 417.051669 237.775997 
L 426.730529 242.538254 
L 431.346515 246.487443 
L 433.65312 251.399039 
L 435.365725 261.07704 
L 437.078331 270.90438 
L 439.415469 280.179996 
" clip-path="url(#p6bfb2cc60d)" style="fill: none; stroke: #f29888; stroke-width: 0.2"/>
    <path d="M 401.621564 173.178553 
L 406.562306 172.543862 
L 409.507322 171.448709 
L 411.944385 169.540487 
L 414.242663 167.308698 
L 416.280025 164.462959 
L 418.195257 161.949084 
L 422.791813 156.668289 
L 425.34268 154.000927 
L 431.002328 149.035403 
L 439.16288 142.049653 
L 446.590648 135.648815 
L 451.406485 131.44658 
L 455.225845 128.310459 
L 460.496896 125.543538 
L 465.892853 123.029664 
L 469.134868 121.988439 
L 472.879285 121.20026 
L 476.471038 120.752243 
L 481.586078 120.354068 
" clip-path="url(#p6bfb2cc60d)" style="fill: none; stroke: #f29888; stroke-width: 0.2"/>
    <path d="M 356.588638 173.954286 
L 356.968909 184.499284 
L 357.346403 187.266205 
L 358.101393 189.842304 
L 359.861186 194.932277 
L 366.778226 215.051569 
L 372.929173 233.760435 
" clip-path="url(#p6bfb2cc60d)" style="fill: none; stroke: #f29888; stroke-width: 0.2"/>
    <path d="M 203.647673 196.981541 
L 247.192825 193.301992 
L 286.790934 189.958457 
L 303.236945 188.568774 
" clip-path="url(#p6bfb2cc60d)" style="fill: none; stroke: #f29888; stroke-width: 0.2"/>
    <path d="M 286.008187 173.838134 
L 351.708961 173.892062 
L 356.588638 173.954286 
L 391.26821 173.543604 
L 401.621564 173.178553 
" clip-path="url(#p6bfb2cc60d)" style="fill: none; stroke: #f29888; stroke-width: 0.2"/>
    <path d="M 351.708961 173.892062 
L 346.040985 134.520475 
L 342.113372 108.572812 
" clip-path="url(#p6bfb2cc60d)" style="fill: none; stroke: #f29888; stroke-width: 0.2"/>
    <path d="M 310.525928 136.967977 
L 346.040985 134.520475 
L 413.026907 130.002969 
" clip-path="url(#p6bfb2cc60d)" style="fill: none; stroke: #f29888; stroke-width: 0.2"/>
    <path d="M 303.347973 111.513962 
L 342.113372 108.572812 
L 380.456866 105.324687 
" clip-path="url(#p6bfb2cc60d)" style="fill: none; stroke: #f29888; stroke-width: 0.2"/>
    <path d="M 203.273361 307.413367 
L 202.876029 299.992312 
" clip-path="url(#p6bfb2cc60d)" style="fill: none; stroke: #f29888; stroke-width: 0.2"/>
    <path d="M 246.268517 172.900616 
L 247.192825 193.301992 
L 251.425764 286.742618 
L 252.519389 310.885768 
" clip-path="url(#p6bfb2cc60d)" style="fill: none; stroke: #f29888; stroke-width: 0.2"/>
    <path d="M 202.876029 299.992312 
L 202.670627 285.70969 
L 202.52074 275.172989 
L 206.687062 259.247636 
L 206.131923 234.502982 
L 203.647673 196.981541 
L 201.782404 168.818682 
" clip-path="url(#p6bfb2cc60d)" style="fill: none; stroke: #f29888; stroke-width: 0.2"/>
    <path d="M 201.782404 168.818682 
L 207.289389 170.627344 
L 212.391122 171.651976 
L 220.3546 172.265925 
L 246.268517 172.900616 
L 257.032674 173.294705 
L 286.008187 173.838134 
" clip-path="url(#p6bfb2cc60d)" style="fill: none; stroke: #f29888; stroke-width: 0.2"/>
    <path d="M 144.513028 95.468364 
L 167.224963 152.130041 
" clip-path="url(#p6bfb2cc60d)" style="fill: none; stroke: #f29888; stroke-width: 0.2"/>
    <path d="M 45.679472 94.170496 
L 167.224963 152.130041 
L 201.782404 168.818682 
" clip-path="url(#p6bfb2cc60d)" style="fill: none; stroke: #f29888; stroke-width: 0.2"/>
   </g>
  </g>
 </g>
 <defs>
  <clipPath id="p6bfb2cc60d">
   <rect x="7.2" y="7.2" width="525.842958" height="831.6"/>
  </clipPath>
 </defs>
</svg>
