<?xml version="1.0" encoding="utf-8" standalone="no"?>
<!DOCTYPE svg PUBLIC "-//W3C//DTD SVG 1.1//EN"
  "http://www.w3.org/Graphics/SVG/1.1/DTD/svg11.dtd">
<svg xmlns:xlink="http://www.w3.org/1999/xlink" width="851.4pt" height="43.254071pt" viewBox="0 0 851.4 43.254071" xmlns="http://www.w3.org/2000/svg" version="1.1">
 <metadata>
  <rdf:RDF xmlns:dc="http://purl.org/dc/elements/1.1/" xmlns:cc="http://creativecommons.org/ns#" xmlns:rdf="http://www.w3.org/1999/02/22-rdf-syntax-ns#">
   <cc:Work>
    <dc:type rdf:resource="http://purl.org/dc/dcmitype/StillImage"/>
    <dc:date>2025-03-16T14:29:47.825799</dc:date>
    <dc:format>image/svg+xml</dc:format>
    <dc:creator>
     <cc:Agent>
      <dc:title>Matplotlib v3.10.1, https://matplotlib.org/</dc:title>
     </cc:Agent>
    </dc:creator>
   </cc:Work>
  </rdf:RDF>
 </metadata>
 <defs>
  <style type="text/css">*{stroke-linejoin: round; stroke-linecap: butt}</style>
 </defs>
 <g id="figure_1">
  <g id="patch_1">
   <path d="M 0 43.254071 
L 851.4 43.254071 
L 851.4 -0 
L 0 -0 
z
" style="fill: #ffffff"/>
  </g>
  <g id="axes_1">
   <g id="PatchCollection_1">
    <path d="M 798.299334 24.140007 
L 801.518596 23.554373 
L 802.642433 16.893224 
L 803.264545 16.18785 
L 806.154545 15.220545 
L 805.890685 14.74729 
L 803.146905 14.62301 
L 805.572904 12.057557 
L 804.763527 11.408618 
L 803.406132 10.749067 
L 803.260281 10.173002 
L 803.568138 10.058292 
L 803.430693 8.832614 
L 803.302843 8.511549 
L 800.821201 8.85574 
L 800.452657 9.333595 
L 800.51404 9.650244 
L 800.649681 9.986154 
L 800.779951 10.209623 
L 800.808121 10.555103 
L 800.961762 10.751275 
L 800.987431 10.872426 
L 800.983864 11.050318 
L 801.049101 11.060194 
L 801.040531 11.129572 
L 801.122949 11.222322 
L 801.282167 11.486645 
L 801.615653 12.009526 
L 801.696595 12.530751 
L 801.654032 12.653619 
L 801.6241 12.935916 
L 801.642428 12.975482 
L 801.211149 14.762318 
L 801.160345 14.894388 
L 801.12463 15.100007 
L 800.87303 15.899787 
L 800.56632 16.020631 
L 800.596089 16.465791 
L 800.460489 16.834519 
L 799.704991 18.041979 
L 799.388809 18.776858 
L 798.952363 19.339612 
L 798.881754 19.477938 
L 798.83378 19.619025 
L 798.968314 19.929049 
L 798.876711 19.922976 
L 798.755995 20.085655 
L 798.628104 20.274405 
L 798.510669 20.565229 
L 798.672101 20.78146 
L 798.421608 20.920277 
L 798.491807 21.16718 
L 798.62019 21.404697 
L 798.565573 21.747293 
L 798.537362 21.851759 
L 798.461136 22.018303 
L 798.356699 22.091668 
L 798.400327 22.632767 
L 798.320943 22.73024 
L 798.282071 22.91672 
L 798.25382 22.998612 
L 798.389338 23.097373 
L 798.440142 23.230056 
L 798.386509 23.354274 
L 798.313111 23.486958 
L 798.194528 23.616819 
L 798.299334 24.140007 
" clip-path="url(#p56f11153ed)" style="fill: #fbd6c9"/>
   </g>
   <g id="PatchCollection_2">
    <path d="M 47.016755 33.22546 
L 47.052306 33.189698 
L 47.080844 33.218038 
L 47.045253 33.253862 
L 47.016755 33.22546 
" clip-path="url(#p56f11153ed)" style="fill: #e6482f"/>
    <path d="M 47.49806 33.096028 
L 47.309728 33.282631 
L 47.251298 33.22362 
L 47.439629 33.037017 
L 47.49806 33.096028 
" clip-path="url(#p56f11153ed)" style="fill: #e6482f"/>
    <path d="M 47.251626 33.097807 
L 47.214435 33.056769 
L 47.289227 32.991317 
L 47.329164 33.027509 
L 47.251626 33.097807 
" clip-path="url(#p56f11153ed)" style="fill: #e6482f"/>
    <path d="M 47.279017 32.981503 
L 47.230796 33.026896 
L 47.200166 32.993894 
L 47.221406 32.973405 
L 47.246172 32.951261 
L 47.279017 32.981503 
" clip-path="url(#p56f11153ed)" style="fill: #e6482f"/>
    <path d="M 47.378943 32.973283 
L 47.329164 33.027509 
L 47.289227 32.991317 
L 47.279017 32.981503 
L 47.246172 32.951261 
L 47.205414 32.913842 
L 47.255193 32.859677 
L 47.378943 32.973283 
" clip-path="url(#p56f11153ed)" style="fill: #e6482f"/>
    <path d="M 46.846999 32.874706 
L 46.797999 32.919792 
L 46.7278 32.84336 
L 46.776841 32.798335 
L 46.846999 32.874706 
" clip-path="url(#p56f11153ed)" style="fill: #e6482f"/>
    <path d="M 47.394607 32.803917 
L 47.426262 32.774718 
L 47.476943 32.829558 
L 47.445288 32.858818 
L 47.394607 32.803917 
" clip-path="url(#p56f11153ed)" style="fill: #e6482f"/>
    <path d="M 46.954511 32.696997 
L 46.970134 32.712456 
L 47.221406 32.973405 
L 47.200166 32.993894 
L 46.951395 32.736563 
L 46.936756 32.721902 
L 46.878572 32.659763 
L 46.899812 32.639274 
L 46.954511 32.696997 
" clip-path="url(#p56f11153ed)" style="fill: #e6482f"/>
    <path d="M 46.951395 32.736563 
L 46.893661 32.794286 
L 46.878982 32.779625 
L 46.936756 32.721902 
L 46.951395 32.736563 
" clip-path="url(#p56f11153ed)" style="fill: #e6482f"/>
    <path d="M 46.640995 32.636575 
L 46.769091 32.756438 
L 46.779178 32.764719 
L 46.704879 32.844893 
L 46.566696 32.716688 
L 46.640995 32.636575 
" clip-path="url(#p56f11153ed)" style="fill: #e6482f"/>
    <path d="M 46.769091 32.756438 
L 46.853067 32.654365 
L 46.863195 32.662646 
L 46.779178 32.764719 
L 46.769091 32.756438 
" clip-path="url(#p56f11153ed)" style="fill: #e6482f"/>
    <path d="M 47.241047 32.630257 
L 47.099788 32.772448 
L 47.068625 32.741471 
L 47.209884 32.599279 
L 47.241047 32.630257 
" clip-path="url(#p56f11153ed)" style="fill: #e6482f"/>
    <path d="M 46.899812 32.639274 
L 46.867747 32.668964 
L 46.863195 32.662646 
L 46.853067 32.654365 
L 46.845564 32.644979 
L 46.877629 32.61529 
L 46.899812 32.639274 
" clip-path="url(#p56f11153ed)" style="fill: #e6482f"/>
    <path d="M 47.092202 32.557505 
L 47.107825 32.572902 
L 46.970134 32.712456 
L 46.954511 32.696997 
L 47.092202 32.557505 
" clip-path="url(#p56f11153ed)" style="fill: #e6482f"/>
    <path d="M 47.446559 32.526834 
L 47.286643 32.679638 
L 47.241047 32.630257 
L 47.209884 32.599279 
L 47.369799 32.446476 
L 47.446559 32.526834 
" clip-path="url(#p56f11153ed)" style="fill: #e6482f"/>
    <path d="M 47.176589 32.558364 
L 47.132632 32.599586 
L 47.107825 32.572902 
L 47.092202 32.557505 
L 47.066862 32.529411 
L 47.110859 32.488189 
L 47.176589 32.558364 
" clip-path="url(#p56f11153ed)" style="fill: #e6482f"/>
    <path d="M 46.873487 32.610198 
L 46.85725 32.625227 
L 46.693439 32.438011 
L 46.708856 32.420589 
L 46.873487 32.610198 
" clip-path="url(#p56f11153ed)" style="fill: #e6482f"/>
    <path d="M 46.410881 32.50015 
L 46.469475 32.445985 
L 46.528644 32.510088 
L 46.470049 32.564253 
L 46.410881 32.50015 
" clip-path="url(#p56f11153ed)" style="fill: #e6482f"/>
    <path d="M 46.62935 32.448562 
L 46.660267 32.419976 
L 46.645341 32.403843 
L 46.672445 32.378815 
L 46.7041 32.413044 
L 46.700861 32.415927 
L 46.646079 32.466657 
L 46.62935 32.448562 
" clip-path="url(#p56f11153ed)" style="fill: #e6482f"/>
    <path d="M 47.72514 32.24742 
L 47.458614 32.514014 
L 47.348477 32.403782 
L 47.614962 32.13725 
L 47.72514 32.24742 
" clip-path="url(#p56f11153ed)" style="fill: #e6482f"/>
    <path d="M 46.745104 32.452549 
L 47.137881 32.077257 
L 47.1836 32.125165 
L 46.790823 32.500457 
L 46.745104 32.452549 
" clip-path="url(#p56f11153ed)" style="fill: #e6482f"/>
    <path d="M 50.0221 26.873476 
L 50.053837 26.921016 
L 49.728716 27.138168 
L 49.696979 27.090627 
L 50.0221 26.873476 
" clip-path="url(#p56f11153ed)" style="fill: #e6482f"/>
    <path d="M 53.665097 25.934266 
L 53.644431 25.993461 
L 53.584524 25.972543 
L 53.55291 26.063207 
L 53.612038 26.083879 
L 53.589486 26.148534 
L 53.504402 26.118844 
L 53.491445 26.155956 
L 53.578414 26.186321 
L 53.554468 26.254901 
L 53.39771 26.200184 
L 53.421656 26.131542 
L 53.468483 26.147859 
L 53.481399 26.110809 
L 53.441215 26.096761 
L 53.516047 25.882248 
L 53.665097 25.934266 
" clip-path="url(#p56f11153ed)" style="fill: #e6482f"/>
    <path d="M 54.710247 23.881081 
L 54.733455 23.937823 
L 54.689171 23.955919 
L 54.666004 23.899177 
L 54.710247 23.881081 
" clip-path="url(#p56f11153ed)" style="fill: #e6482f"/>
    <path d="M 54.53967 23.820598 
L 54.474925 23.81612 
L 54.480051 23.741344 
L 54.544837 23.745822 
L 54.53967 23.820598 
" clip-path="url(#p56f11153ed)" style="fill: #e6482f"/>
    <path d="M 54.681462 23.756127 
L 54.640868 23.769684 
L 54.606056 23.665279 
L 54.64665 23.651723 
L 54.681462 23.756127 
" clip-path="url(#p56f11153ed)" style="fill: #e6482f"/>
    <path d="M 54.404439 23.568175 
L 54.500143 23.571119 
L 54.497559 23.655833 
L 54.401815 23.652888 
L 54.402758 23.622646 
L 54.318372 23.62007 
L 54.319274 23.591178 
L 54.40366 23.593754 
L 54.404439 23.568175 
" clip-path="url(#p56f11153ed)" style="fill: #e6482f"/>
    <path d="M 54.848717 22.272566 
L 54.877543 22.251955 
L 54.930561 22.320536 
L 54.909444 22.345073 
L 54.848717 22.272566 
" clip-path="url(#p56f11153ed)" style="fill: #e6482f"/>
    <path d="M 55.638536 22.179939 
L 55.655511 22.165892 
L 55.634189 22.140251 
L 55.668633 22.111665 
L 55.688683 22.135773 
L 55.717919 22.11142 
L 55.743957 22.142766 
L 55.663343 22.209752 
L 55.638536 22.179939 
" clip-path="url(#p56f11153ed)" style="fill: #e6482f"/>
    <path d="M 57.994705 25.573083 
L 58.144985 25.744718 
L 58.104268 25.780358 
L 57.954029 25.608723 
L 57.994705 25.573083 
" clip-path="url(#p56f11153ed)" style="fill: #e6482f"/>
    <path d="M 58.411634 24.065353 
L 58.366529 24.105164 
L 58.113084 23.818267 
L 58.158188 23.778456 
L 58.411634 24.065353 
" clip-path="url(#p56f11153ed)" style="fill: #e6482f"/>
    <path d="M 58.768737 23.564371 
L 58.810643 23.613506 
L 58.52177 23.859918 
L 58.479864 23.810722 
L 58.768737 23.564371 
" clip-path="url(#p56f11153ed)" style="fill: #e6482f"/>
    <path d="M 58.254671 23.283976 
L 57.860171 23.630376 
L 57.819741 23.584369 
L 58.214282 23.23797 
L 58.254671 23.283976 
" clip-path="url(#p56f11153ed)" style="fill: #e6482f"/>
    <path d="M 57.859802 23.419174 
L 57.812484 23.458556 
L 57.569166 23.166199 
L 57.616485 23.126817 
L 57.859802 23.419174 
" clip-path="url(#p56f11153ed)" style="fill: #e6482f"/>
    <path d="M 58.61038 23.415371 
L 58.562651 23.455734 
L 58.224984 23.056458 
L 58.272712 23.016095 
L 58.61038 23.415371 
" clip-path="url(#p56f11153ed)" style="fill: #e6482f"/>
    <path d="M 58.291943 22.872799 
L 58.006597 23.119334 
L 57.967602 23.074247 
L 58.252948 22.827713 
L 58.291943 22.872799 
" clip-path="url(#p56f11153ed)" style="fill: #e6482f"/>
    <path d="M 57.903636 22.68086 
L 57.512622 23.023947 
L 57.470839 22.976345 
L 57.861853 22.633197 
L 57.903636 22.68086 
" clip-path="url(#p56f11153ed)" style="fill: #e6482f"/>
    <path d="M 58.526404 22.816119 
L 58.476092 22.859611 
L 58.380963 22.749502 
L 58.431316 22.70601 
L 58.526404 22.816119 
" clip-path="url(#p56f11153ed)" style="fill: #e6482f"/>
    <path d="M 58.197101 22.751587 
L 58.148388 22.793239 
L 57.899863 22.503029 
L 57.948576 22.461316 
L 58.197101 22.751587 
" clip-path="url(#p56f11153ed)" style="fill: #e6482f"/>
    <path d="M 55.767944 22.807715 
L 55.832853 22.752201 
L 55.874841 22.801336 
L 55.809932 22.856789 
L 55.767944 22.807715 
" clip-path="url(#p56f11153ed)" style="fill: #e6482f"/>
    <path d="M 55.902232 22.685706 
L 55.970299 22.628105 
L 56.014091 22.679878 
L 55.946024 22.737479 
L 55.902232 22.685706 
" clip-path="url(#p56f11153ed)" style="fill: #e6482f"/>
    <path d="M 56.059195 22.555967 
L 56.127221 22.503642 
L 56.166995 22.555292 
L 56.098928 22.607617 
L 56.059195 22.555967 
" clip-path="url(#p56f11153ed)" style="fill: #e6482f"/>
    <path d="M 56.199183 22.435552 
L 56.264092 22.374824 
L 56.311493 22.425431 
L 56.246542 22.48616 
L 56.199183 22.435552 
" clip-path="url(#p56f11153ed)" style="fill: #e6482f"/>
    <path d="M 56.547306 21.909788 
L 56.584456 21.953219 
L 56.499455 22.02597 
L 56.462305 21.982602 
L 56.547306 21.909788 
" clip-path="url(#p56f11153ed)" style="fill: #e6482f"/>
    <path d="M 56.17089 21.673437 
L 56.337243 21.866051 
L 56.417242 21.79698 
L 56.457631 21.843723 
L 56.377632 21.912794 
L 56.486457 22.038852 
L 56.424664 22.09222 
L 56.109097 21.726805 
L 56.17089 21.673437 
" clip-path="url(#p56f11153ed)" style="fill: #e6482f"/>
    <path d="M 56.266347 21.579338 
L 56.309237 21.629025 
L 56.225015 21.701716 
L 56.182125 21.652028 
L 56.266347 21.579338 
" clip-path="url(#p56f11153ed)" style="fill: #e6482f"/>
    <path d="M 57.421265 21.510389 
L 57.496712 21.596268 
L 57.592621 21.511984 
L 57.642399 21.568603 
L 57.489168 21.703249 
L 57.3639 21.560751 
L 57.421265 21.510389 
" clip-path="url(#p56f11153ed)" style="fill: #e6482f"/>
    <path d="M 57.066417 20.89114 
L 57.114432 20.945918 
L 57.0159 21.032288 
L 57.095775 21.123381 
L 57.036648 21.175216 
L 56.908797 21.029344 
L 57.066417 20.89114 
" clip-path="url(#p56f11153ed)" style="fill: #e6482f"/>
    <path d="M 56.118815 20.639207 
L 56.156498 20.684049 
L 55.756422 21.019897 
L 55.738872 20.998979 
L 55.71878 20.975056 
L 56.118815 20.639207 
" clip-path="url(#p56f11153ed)" style="fill: #e6482f"/>
    <path d="M 56.670523 20.63062 
L 56.744618 20.717603 
L 56.837327 20.638594 
L 56.886409 20.696133 
L 56.732029 20.827651 
L 56.608853 20.683128 
L 56.670523 20.63062 
" clip-path="url(#p56f11153ed)" style="fill: #e6482f"/>
    <path d="M 57.428605 20.581484 
L 57.470798 20.630804 
L 57.253477 20.816548 
L 57.211284 20.767229 
L 57.428605 20.581484 
" clip-path="url(#p56f11153ed)" style="fill: #e6482f"/>
    <path d="M 57.186517 20.440643 
L 57.044028 20.571608 
L 56.99183 20.514867 
L 57.029308 20.480392 
L 57.03919 20.491127 
L 57.144242 20.394636 
L 57.186517 20.440643 
" clip-path="url(#p56f11153ed)" style="fill: #e6482f"/>
    <path d="M 56.5446 20.213431 
L 56.583677 20.258334 
L 56.449471 20.375129 
L 56.552637 20.493642 
L 56.571622 20.477141 
L 56.607869 20.518793 
L 56.52742 20.588784 
L 56.348929 20.383656 
L 56.5446 20.213431 
" clip-path="url(#p56f11153ed)" style="fill: #e6482f"/>
    <path d="M 55.959556 20.173375 
L 56.000806 20.221283 
L 55.855488 20.34636 
L 55.848025 20.337649 
L 55.814238 20.29839 
L 55.959556 20.173375 
" clip-path="url(#p56f11153ed)" style="fill: #e6482f"/>
    <path d="M 57.45292 20.114486 
L 57.342127 19.987447 
L 57.397811 19.938925 
L 57.523037 20.082588 
L 57.51541 20.159941 
L 57.305429 20.342986 
L 57.255937 20.286183 
L 57.45292 20.114486 
" clip-path="url(#p56f11153ed)" style="fill: #e6482f"/>
    <path d="M 56.476493 19.992845 
L 56.278977 20.166811 
L 56.389318 20.292072 
L 56.333471 20.341268 
L 56.205415 20.195887 
L 56.215543 20.116879 
L 56.424008 19.933343 
L 56.476493 19.992845 
" clip-path="url(#p56f11153ed)" style="fill: #e6482f"/>
    <path d="M 56.159286 19.87243 
L 56.20968 19.927761 
L 56.130296 20.000022 
L 56.079902 19.944691 
L 56.159286 19.87243 
" clip-path="url(#p56f11153ed)" style="fill: #e6482f"/>
    <path d="M 56.04222 19.893777 
L 55.958285 19.968737 
L 55.797467 19.788575 
L 55.881402 19.713615 
L 56.04222 19.893777 
" clip-path="url(#p56f11153ed)" style="fill: #e6482f"/>
    <path d="M 56.674583 19.710119 
L 56.724977 19.766308 
L 56.509747 19.959168 
L 56.459353 19.902978 
L 56.674583 19.710119 
" clip-path="url(#p56f11153ed)" style="fill: #e6482f"/>
    <path d="M 55.738872 20.998979 
L 55.718206 21.016339 
L 55.761424 21.067867 
L 55.767329 21.062898 
L 55.778769 21.076516 
L 55.734649 21.113505 
L 55.725915 21.103077 
L 55.69877 21.125835 
L 55.612621 21.023271 
L 55.635009 21.004439 
L 55.623897 20.991189 
L 55.663302 20.958126 
L 55.694588 20.99536 
L 55.71878 20.975056 
L 55.738872 20.998979 
" clip-path="url(#p56f11153ed)" style="fill: #e6482f"/>
    <path d="M 55.573298 20.808144 
L 55.54275 20.834398 
L 55.574282 20.87102 
L 55.489322 20.944139 
L 55.392184 20.83127 
L 55.396325 20.827712 
L 55.367622 20.794342 
L 55.448441 20.724841 
L 55.508389 20.794465 
L 55.538896 20.76821 
L 55.573298 20.808144 
" clip-path="url(#p56f11153ed)" style="fill: #e6482f"/>
    <path d="M 55.686633 20.64117 
L 55.69467 20.650494 
L 55.728457 20.689815 
L 55.580761 20.816854 
L 55.573298 20.808144 
L 55.538896 20.76821 
L 55.686633 20.64117 
" clip-path="url(#p56f11153ed)" style="fill: #e6482f"/>
    <path d="M 55.839988 20.525479 
L 55.881238 20.573449 
L 55.73592 20.698464 
L 55.728457 20.689815 
L 55.69467 20.650494 
L 55.839988 20.525479 
" clip-path="url(#p56f11153ed)" style="fill: #e6482f"/>
    <path d="M 55.806201 20.289005 
L 55.814238 20.29839 
L 55.848025 20.337649 
L 55.700329 20.46475 
L 55.658464 20.416106 
L 55.806201 20.289005 
" clip-path="url(#p56f11153ed)" style="fill: #e6482f"/>
    <path d="M 55.330473 20.208401 
L 55.364998 20.248948 
L 55.312554 20.293544 
L 55.367704 20.358322 
L 55.328341 20.391814 
L 55.2736 20.327405 
L 55.25277 20.345133 
L 55.26339 20.357647 
L 55.234155 20.38249 
L 55.223781 20.370283 
L 55.201474 20.389238 
L 55.256502 20.453954 
L 55.21599 20.488428 
L 55.16129 20.424142 
L 55.109748 20.468001 
L 55.075223 20.427454 
L 55.127298 20.383165 
L 55.074157 20.32078 
L 55.11471 20.286244 
L 55.167482 20.348261 
L 55.189624 20.329429 
L 55.180644 20.31894 
L 55.20988 20.294096 
L 55.218614 20.30434 
L 55.238993 20.286981 
L 55.187328 20.226252 
L 55.226651 20.192759 
L 55.277988 20.253058 
L 55.330473 20.208401 
" clip-path="url(#p56f11153ed)" style="fill: #e6482f"/>
    <path d="M 55.887266 20.119516 
L 55.84007 20.161597 
L 55.712384 20.01867 
L 55.720913 20.011063 
L 55.759538 19.976528 
L 55.887266 20.119516 
" clip-path="url(#p56f11153ed)" style="fill: #e6482f"/>
    <path d="M 55.768764 19.968308 
L 55.759538 19.976528 
L 55.720913 20.011063 
L 55.591094 19.865744 
L 55.638946 19.822988 
L 55.768764 19.968308 
" clip-path="url(#p56f11153ed)" style="fill: #e6482f"/>
    <path d="M 55.714885 19.463094 
L 55.745187 19.497997 
L 55.675972 19.558051 
L 55.64567 19.523148 
L 55.714885 19.463094 
" clip-path="url(#p56f11153ed)" style="fill: #e6482f"/>
    <path d="M 55.79964 19.121049 
L 55.840439 19.166995 
L 55.55948 19.416351 
L 55.518681 19.370405 
L 55.79964 19.121049 
" clip-path="url(#p56f11153ed)" style="fill: #e6482f"/>
    <path d="M 57.357053 19.883717 
L 57.297679 19.935674 
L 57.120583 19.73349 
L 57.179998 19.681472 
L 57.357053 19.883717 
" clip-path="url(#p56f11153ed)" style="fill: #e6482f"/>
    <path d="M 56.961611 19.553573 
L 56.759584 19.727662 
L 56.71325 19.673927 
L 56.932252 19.485238 
L 57.014178 19.489409 
L 57.134114 19.628595 
L 57.072198 19.681901 
L 56.961611 19.553573 
" clip-path="url(#p56f11153ed)" style="fill: #e6482f"/>
    <path d="M 57.549894 19.635526 
L 57.495892 19.682576 
L 57.398016 19.57032 
L 57.451977 19.52327 
L 57.549894 19.635526 
" clip-path="url(#p56f11153ed)" style="fill: #e6482f"/>
    <path d="M 57.4268 19.46383 
L 57.361358 19.521246 
L 57.292143 19.44236 
L 57.357586 19.385005 
L 57.4268 19.46383 
" clip-path="url(#p56f11153ed)" style="fill: #e6482f"/>
    <path d="M 56.109097 19.438373 
L 56.075679 19.46886 
L 56.028155 19.416657 
L 56.061615 19.386232 
L 56.109097 19.438373 
" clip-path="url(#p56f11153ed)" style="fill: #e6482f"/>
    <path d="M 56.158425 19.342863 
L 56.133371 19.363228 
L 56.09737 19.319001 
L 56.122423 19.298635 
L 56.158425 19.342863 
" clip-path="url(#p56f11153ed)" style="fill: #e6482f"/>
    <path d="M 57.283779 19.16767 
L 57.331138 19.221283 
L 57.260734 19.283484 
L 57.323511 19.354456 
L 57.262703 19.408192 
L 57.152566 19.283729 
L 57.283779 19.16767 
" clip-path="url(#p56f11153ed)" style="fill: #e6482f"/>
    <path d="M 56.041769 19.211161 
L 56.06633 19.238949 
L 55.960458 19.332557 
L 55.935896 19.304769 
L 56.041769 19.211161 
" clip-path="url(#p56f11153ed)" style="fill: #e6482f"/>
    <path d="M 56.864226 19.32489 
L 56.815226 19.369853 
L 56.629519 19.16767 
L 56.678519 19.122644 
L 56.864226 19.32489 
" clip-path="url(#p56f11153ed)" style="fill: #e6482f"/>
    <path d="M 57.398754 19.064676 
L 57.455339 19.128288 
L 57.367796 19.206131 
L 57.31121 19.142519 
L 57.398754 19.064676 
" clip-path="url(#p56f11153ed)" style="fill: #e6482f"/>
    <path d="M 55.641857 18.950089 
L 55.686715 18.99996 
L 55.403706 19.254346 
L 55.358889 19.204536 
L 55.641857 18.950089 
" clip-path="url(#p56f11153ed)" style="fill: #e6482f"/>
    <path d="M 55.498835 18.590255 
L 55.543078 18.627981 
L 55.209634 19.019099 
L 55.165391 18.981435 
L 55.498835 18.590255 
" clip-path="url(#p56f11153ed)" style="fill: #e6482f"/>
    <path d="M 56.965137 19.012903 
L 57.042757 19.099273 
L 57.139896 19.012044 
L 57.189675 19.067375 
L 57.036484 19.205027 
L 56.909084 19.063265 
L 56.965137 19.012903 
" clip-path="url(#p56f11153ed)" style="fill: #e6482f"/>
    <path d="M 56.616439 19.093998 
L 56.562847 19.139636 
L 56.443361 18.999285 
L 56.496954 18.953708 
L 56.616439 19.093998 
" clip-path="url(#p56f11153ed)" style="fill: #e6482f"/>
    <path d="M 57.179834 18.982968 
L 57.269427 18.910707 
L 57.316213 18.968675 
L 57.226619 19.040937 
L 57.179834 18.982968 
" clip-path="url(#p56f11153ed)" style="fill: #e6482f"/>
    <path d="M 56.81006 18.833355 
L 56.933769 18.977325 
L 56.87907 19.024251 
L 56.755402 18.880281 
L 56.81006 18.833355 
" clip-path="url(#p56f11153ed)" style="fill: #e6482f"/>
    <path d="M 57.387314 18.785324 
L 57.445375 18.851757 
L 57.353977 18.931625 
L 57.295875 18.865191 
L 57.387314 18.785324 
" clip-path="url(#p56f11153ed)" style="fill: #e6482f"/>
    <path d="M 57.501756 18.802561 
L 57.453453 18.747475 
L 57.59955 18.619393 
L 57.647853 18.674478 
L 57.501756 18.802561 
" clip-path="url(#p56f11153ed)" style="fill: #e6482f"/>
    <path d="M 56.752162 18.56578 
L 56.801121 18.621111 
L 56.701153 18.709443 
L 56.778897 18.797347 
L 56.722803 18.846911 
L 56.596142 18.703738 
L 56.752162 18.56578 
" clip-path="url(#p56f11153ed)" style="fill: #e6482f"/>
    <path d="M 55.964968 18.307223 
L 56.300832 18.708523 
L 56.278197 18.727478 
L 56.262288 18.708462 
L 56.086053 18.855928 
L 56.070102 18.836851 
L 56.246337 18.689384 
L 56.178435 18.60829 
L 56.102618 18.671718 
L 55.866518 18.389605 
L 55.964968 18.307223 
" clip-path="url(#p56f11153ed)" style="fill: #e6482f"/>
    <path d="M 56.857788 18.590255 
L 56.79944 18.527625 
L 56.881366 18.451315 
L 56.939755 18.513946 
L 56.857788 18.590255 
" clip-path="url(#p56f11153ed)" style="fill: #e6482f"/>
    <path d="M 57.07675 18.281766 
L 57.129276 18.341022 
L 56.981169 18.472356 
L 56.928643 18.413099 
L 57.07675 18.281766 
" clip-path="url(#p56f11153ed)" style="fill: #e6482f"/>
    <path d="M 60.50054 25.104797 
L 60.447973 25.148656 
L 60.327298 25.004011 
L 60.379906 24.960152 
L 60.50054 25.104797 
" clip-path="url(#p56f11153ed)" style="fill: #e6482f"/>
    <path d="M 60.995744 24.738952 
L 61.023258 24.773978 
L 60.666524 25.071549 
L 60.640691 25.036523 
L 60.995744 24.738952 
" clip-path="url(#p56f11153ed)" style="fill: #e6482f"/>
    <path d="M 60.698876 24.670801 
L 60.748942 24.729812 
L 60.546505 24.901509 
L 60.496439 24.842497 
L 60.698876 24.670801 
" clip-path="url(#p56f11153ed)" style="fill: #e6482f"/>
    <path d="M 60.549006 24.656385 
L 60.409593 24.489964 
L 60.48504 24.426781 
L 60.624454 24.593141 
L 60.549006 24.656385 
" clip-path="url(#p56f11153ed)" style="fill: #e6482f"/>
    <path d="M 61.328738 24.332498 
L 61.369578 24.383351 
L 60.977826 24.712575 
L 60.929482 24.652582 
L 61.328738 24.332498 
" clip-path="url(#p56f11153ed)" style="fill: #e6482f"/>
    <path d="M 61.144507 24.440031 
L 60.90447 24.620071 
L 60.875316 24.587559 
L 61.118674 24.401692 
L 61.144507 24.440031 
" clip-path="url(#p56f11153ed)" style="fill: #e6482f"/>
    <path d="M 60.179151 24.277474 
L 60.240533 24.34949 
L 60.109485 24.461133 
L 60.265997 24.644791 
L 60.369696 24.556459 
L 60.401925 24.594307 
L 60.253983 24.720365 
L 60.003818 24.426781 
L 60.179151 24.277474 
" clip-path="url(#p56f11153ed)" style="fill: #e6482f"/>
    <path d="M 60.85219 24.207483 
L 60.57939 24.444325 
L 60.513661 24.368568 
L 60.78646 24.131725 
L 60.85219 24.207483 
" clip-path="url(#p56f11153ed)" style="fill: #e6482f"/>
    <path d="M 60.08439 23.928683 
L 60.125927 23.976223 
L 59.839761 24.226315 
L 59.798224 24.178775 
L 60.08439 23.928683 
" clip-path="url(#p56f11153ed)" style="fill: #e6482f"/>
    <path d="M 60.274362 23.854397 
L 60.222492 23.899913 
L 59.969169 23.611421 
L 60.021039 23.565844 
L 60.274362 23.854397 
" clip-path="url(#p56f11153ed)" style="fill: #e6482f"/>
    <path d="M 59.78338 24.273119 
L 59.73516 24.315323 
L 59.503036 24.050386 
L 59.551257 24.008182 
L 59.78338 24.273119 
" clip-path="url(#p56f11153ed)" style="fill: #e6482f"/>
    <path d="M 59.46888 23.907765 
L 59.41988 23.949723 
L 59.192062 23.683682 
L 59.241021 23.641724 
L 59.46888 23.907765 
" clip-path="url(#p56f11153ed)" style="fill: #e6482f"/>
    <path d="M 59.639169 23.389976 
L 59.352101 23.638779 
L 59.303675 23.582897 
L 59.590703 23.334093 
L 59.639169 23.389976 
" clip-path="url(#p56f11153ed)" style="fill: #e6482f"/>
    <path d="M 58.98204 23.38789 
L 59.0376 23.458004 
L 59.06167 23.438988 
L 59.097466 23.484197 
L 59.027923 23.539282 
L 58.936607 23.423836 
L 58.98204 23.38789 
" clip-path="url(#p56f11153ed)" style="fill: #e6482f"/>
    <path d="M 58.804698 23.152459 
L 58.973224 23.357771 
L 58.928079 23.394822 
L 58.759593 23.189509 
L 58.804698 23.152459 
" clip-path="url(#p56f11153ed)" style="fill: #e6482f"/>
    <path d="M 59.332583 23.119947 
L 59.383879 23.178038 
L 59.233066 23.311151 
L 59.18177 23.252998 
L 59.332583 23.119947 
" clip-path="url(#p56f11153ed)" style="fill: #e6482f"/>
    <path d="M 59.130556 23.164911 
L 59.052608 23.232755 
L 59.030342 23.207237 
L 59.064745 23.177302 
L 58.999384 23.102219 
L 59.042972 23.06431 
L 59.130556 23.164911 
" clip-path="url(#p56f11153ed)" style="fill: #e6482f"/>
    <path d="M 59.528459 22.950029 
L 59.577089 23.004624 
L 59.454569 23.11369 
L 59.40598 23.059034 
L 59.528459 22.950029 
" clip-path="url(#p56f11153ed)" style="fill: #e6482f"/>
    <path d="M 59.327047 22.935123 
L 59.385806 22.996711 
L 59.341604 23.038914 
L 59.282845 22.977327 
L 59.327047 22.935123 
" clip-path="url(#p56f11153ed)" style="fill: #e6482f"/>
    <path d="M 59.727779 22.78005 
L 59.777025 22.836792 
L 59.621989 22.971315 
L 59.572743 22.914512 
L 59.727779 22.78005 
" clip-path="url(#p56f11153ed)" style="fill: #e6482f"/>
    <path d="M 60.343617 23.564985 
L 60.391223 23.618905 
L 60.450105 23.566948 
L 60.40254 23.513028 
L 60.455025 23.466715 
L 60.555485 23.580566 
L 60.501606 23.628106 
L 60.464538 23.586025 
L 60.403975 23.639454 
L 60.441084 23.681474 
L 60.389829 23.726683 
L 60.28941 23.612832 
L 60.343617 23.564985 
" clip-path="url(#p56f11153ed)" style="fill: #e6482f"/>
    <path d="M 59.968759 23.512292 
L 59.913773 23.560507 
L 59.666478 23.278762 
L 59.721464 23.230486 
L 59.968759 23.512292 
" clip-path="url(#p56f11153ed)" style="fill: #e6482f"/>
    <path d="M 60.135563 23.371512 
L 60.087589 23.412979 
L 59.834266 23.119947 
L 59.882241 23.07848 
L 60.135563 23.371512 
" clip-path="url(#p56f11153ed)" style="fill: #e6482f"/>
    <path d="M 61.056143 23.002354 
L 61.096532 23.049342 
L 60.806265 23.298576 
L 60.765876 23.251526 
L 61.056143 23.002354 
" clip-path="url(#p56f11153ed)" style="fill: #e6482f"/>
    <path d="M 60.295971 23.229872 
L 60.247299 23.271217 
L 60.002218 22.982663 
L 60.05089 22.94138 
L 60.295971 23.229872 
" clip-path="url(#p56f11153ed)" style="fill: #e6482f"/>
    <path d="M 60.709045 23.376174 
L 60.663161 23.414574 
L 60.177469 22.834031 
L 60.223353 22.795631 
L 60.709045 23.376174 
" clip-path="url(#p56f11153ed)" style="fill: #e6482f"/>
    <path d="M 60.811186 23.05333 
L 60.764564 23.090748 
L 60.526659 22.794834 
L 60.573281 22.757353 
L 60.811186 23.05333 
" clip-path="url(#p56f11153ed)" style="fill: #e6482f"/>
    <path d="M 61.348174 22.633258 
L 61.191005 22.981559 
L 61.128597 22.953403 
L 61.285766 22.605102 
L 61.348174 22.633258 
" clip-path="url(#p56f11153ed)" style="fill: #e6482f"/>
    <path d="M 60.167423 22.842435 
L 60.10194 22.764162 
L 60.157869 22.71742 
L 60.223353 22.795631 
L 60.177469 22.834031 
L 60.167423 22.842435 
" clip-path="url(#p56f11153ed)" style="fill: #e6482f"/>
    <path d="M 59.877033 22.75036 
L 59.816963 22.800354 
L 59.689522 22.64749 
L 59.749552 22.597434 
L 59.877033 22.75036 
" clip-path="url(#p56f11153ed)" style="fill: #e6482f"/>
    <path d="M 59.475318 22.887951 
L 59.421438 22.933344 
L 59.345827 22.843785 
L 59.399706 22.79833 
L 59.475318 22.887951 
" clip-path="url(#p56f11153ed)" style="fill: #e6482f"/>
    <path d="M 59.025709 22.760973 
L 58.889043 22.881326 
L 58.839797 22.825382 
L 58.976422 22.705029 
L 59.025709 22.760973 
" clip-path="url(#p56f11153ed)" style="fill: #e6482f"/>
    <path d="M 59.350624 22.744778 
L 59.306914 22.785203 
L 59.219822 22.691104 
L 59.263532 22.650679 
L 59.350624 22.744778 
" clip-path="url(#p56f11153ed)" style="fill: #e6482f"/>
    <path d="M 58.785344 22.626449 
L 58.825159 22.673008 
L 58.711537 22.770174 
L 58.671681 22.723554 
L 58.785344 22.626449 
" clip-path="url(#p56f11153ed)" style="fill: #e6482f"/>
    <path d="M 59.098819 22.699324 
L 59.051337 22.64749 
L 59.168157 22.54057 
L 59.215639 22.592404 
L 59.098819 22.699324 
" clip-path="url(#p56f11153ed)" style="fill: #e6482f"/>
    <path d="M 59.712156 22.558298 
L 59.660245 22.602096 
L 59.584142 22.511985 
L 59.636053 22.468186 
L 59.712156 22.558298 
" clip-path="url(#p56f11153ed)" style="fill: #e6482f"/>
    <path d="M 58.983475 22.456715 
L 59.025012 22.504746 
L 58.910365 22.603875 
L 58.868828 22.555844 
L 58.983475 22.456715 
" clip-path="url(#p56f11153ed)" style="fill: #e6482f"/>
    <path d="M 59.416682 22.424265 
L 59.265459 22.556887 
L 59.216008 22.500575 
L 59.36719 22.367892 
L 59.416682 22.424265 
" clip-path="url(#p56f11153ed)" style="fill: #e6482f"/>
    <path d="M 59.603414 22.427087 
L 59.544778 22.479903 
L 59.422996 22.344643 
L 59.481632 22.291828 
L 59.603414 22.427087 
" clip-path="url(#p56f11153ed)" style="fill: #e6482f"/>
    <path d="M 59.165205 22.295569 
L 59.209202 22.343723 
L 59.101033 22.442361 
L 59.057077 22.394146 
L 59.165205 22.295569 
" clip-path="url(#p56f11153ed)" style="fill: #e6482f"/>
    <path d="M 61.056348 22.525848 
L 61.095097 22.56983 
L 60.810489 22.820413 
L 60.77174 22.776431 
L 61.056348 22.525848 
" clip-path="url(#p56f11153ed)" style="fill: #e6482f"/>
    <path d="M 60.477536 22.696993 
L 60.455312 22.753857 
L 60.102022 22.615776 
L 60.124205 22.558911 
L 60.477536 22.696993 
" clip-path="url(#p56f11153ed)" style="fill: #e6482f"/>
    <path d="M 60.111576 22.471867 
L 60.047979 22.638104 
L 59.945223 22.598784 
L 60.008779 22.432547 
L 60.111576 22.471867 
" clip-path="url(#p56f11153ed)" style="fill: #e6482f"/>
    <path d="M 61.353463 22.525112 
L 61.289948 22.533209 
L 61.241891 22.157795 
L 61.305406 22.149636 
L 61.353463 22.525112 
" clip-path="url(#p56f11153ed)" style="fill: #e6482f"/>
    <path d="M 61.131755 22.132215 
L 61.17362 22.180675 
L 60.884706 22.4304 
L 60.8428 22.381939 
L 61.131755 22.132215 
" clip-path="url(#p56f11153ed)" style="fill: #e6482f"/>
    <path d="M 60.12195 22.312929 
L 60.100054 22.368689 
L 59.750577 22.231528 
L 59.772473 22.175768 
L 60.12195 22.312929 
" clip-path="url(#p56f11153ed)" style="fill: #e6482f"/>
    <path d="M 60.445758 22.35685 
L 60.473764 22.27821 
L 60.4107 22.255758 
L 60.428988 22.204415 
L 60.492052 22.226927 
L 60.518663 22.152274 
L 60.568688 22.170063 
L 60.495742 22.374639 
L 60.445758 22.35685 
" clip-path="url(#p56f11153ed)" style="fill: #e6482f"/>
    <path d="M 59.734135 22.273486 
L 59.62777 22.231712 
L 59.662419 22.143502 
L 59.693869 22.155832 
L 59.6976 22.146385 
L 59.772473 22.175768 
L 59.750577 22.231528 
L 59.734135 22.273486 
" clip-path="url(#p56f11153ed)" style="fill: #e6482f"/>
    <path d="M 60.899836 21.906353 
L 60.892579 21.936595 
L 60.840503 21.924081 
L 60.847761 21.893839 
L 60.899836 21.906353 
" clip-path="url(#p56f11153ed)" style="fill: #e6482f"/>
    <path d="M 61.252593 22.023885 
L 61.20343 22.065598 
L 60.954207 21.771768 
L 61.003371 21.730056 
L 61.252593 22.023885 
" clip-path="url(#p56f11153ed)" style="fill: #e6482f"/>
    <path d="M 58.246798 22.579277 
L 58.171022 22.489349 
L 58.216127 22.451379 
L 58.291861 22.541245 
L 58.246798 22.579277 
" clip-path="url(#p56f11153ed)" style="fill: #e6482f"/>
    <path d="M 58.128337 22.340901 
L 58.188982 22.28876 
L 58.258361 22.369487 
L 58.197716 22.421628 
L 58.128337 22.340901 
" clip-path="url(#p56f11153ed)" style="fill: #e6482f"/>
    <path d="M 58.38166 22.15804 
L 58.424632 22.20374 
L 58.341763 22.281645 
L 58.298791 22.235945 
L 58.38166 22.15804 
" clip-path="url(#p56f11153ed)" style="fill: #e6482f"/>
    <path d="M 58.202103 22.071854 
L 58.04838 22.202145 
L 58.005325 22.151354 
L 58.159049 22.021063 
L 58.202103 22.071854 
" clip-path="url(#p56f11153ed)" style="fill: #e6482f"/>
    <path d="M 58.580652 21.989963 
L 58.622353 22.037994 
L 58.509223 22.136141 
L 58.467522 22.088049 
L 58.580652 21.989963 
" clip-path="url(#p56f11153ed)" style="fill: #e6482f"/>
    <path d="M 58.400276 21.360162 
L 58.451285 21.419971 
L 58.333972 21.52002 
L 58.282963 21.460211 
L 58.400276 21.360162 
" clip-path="url(#p56f11153ed)" style="fill: #e6482f"/>
    <path d="M 58.330364 21.217174 
L 58.405934 21.304218 
L 58.334423 21.366296 
L 58.30408 21.331393 
L 58.219325 21.405003 
L 58.254178 21.445121 
L 58.193616 21.497691 
L 58.113535 21.405494 
L 58.330364 21.217174 
" clip-path="url(#p56f11153ed)" style="fill: #e6482f"/>
    <path d="M 57.95977 21.210303 
L 58.001184 21.257905 
L 57.783822 21.447145 
L 57.742408 21.399605 
L 57.95977 21.210303 
" clip-path="url(#p56f11153ed)" style="fill: #e6482f"/>
    <path d="M 58.31101 20.991557 
L 58.160361 21.127737 
L 58.100332 21.061364 
L 58.138834 21.026522 
L 58.146256 21.034742 
L 58.199725 20.986404 
L 58.116323 20.894207 
L 58.174959 20.841146 
L 58.31101 20.991557 
" clip-path="url(#p56f11153ed)" style="fill: #e6482f"/>
    <path d="M 58.416267 20.632705 
L 58.450792 20.671473 
L 58.441895 20.679387 
L 58.492617 20.736189 
L 58.542272 20.691962 
L 58.537885 20.686993 
L 58.575937 20.653071 
L 58.628955 20.712511 
L 58.482735 20.842864 
L 58.348939 20.692759 
L 58.416267 20.632705 
" clip-path="url(#p56f11153ed)" style="fill: #e6482f"/>
    <path d="M 59.333608 22.121112 
L 59.290472 22.158163 
L 59.197844 22.050569 
L 59.24098 22.013457 
L 59.333608 22.121112 
" clip-path="url(#p56f11153ed)" style="fill: #e6482f"/>
    <path d="M 58.768163 21.83127 
L 58.80765 21.875805 
L 58.70145 21.969965 
L 58.661963 21.925431 
L 58.768163 21.83127 
" clip-path="url(#p56f11153ed)" style="fill: #e6482f"/>
    <path d="M 59.528131 21.982663 
L 59.495614 21.943649 
L 59.539694 21.906967 
L 59.490448 21.847833 
L 59.498157 21.841392 
L 59.466953 21.803912 
L 59.432878 21.832313 
L 59.404258 21.797962 
L 59.474948 21.739073 
L 59.616576 21.908991 
L 59.528131 21.982663 
" clip-path="url(#p56f11153ed)" style="fill: #e6482f"/>
    <path d="M 59.100008 21.846299 
L 59.051911 21.889361 
L 58.957806 21.784221 
L 59.005904 21.741159 
L 59.100008 21.846299 
" clip-path="url(#p56f11153ed)" style="fill: #e6482f"/>
    <path d="M 59.213835 21.611359 
L 59.266279 21.564616 
L 59.364402 21.674725 
L 59.311958 21.721468 
L 59.213835 21.611359 
" clip-path="url(#p56f11153ed)" style="fill: #e6482f"/>
    <path d="M 58.933983 21.180552 
L 59.041127 21.309678 
L 58.957314 21.379178 
L 58.850171 21.250053 
L 58.933983 21.180552 
" clip-path="url(#p56f11153ed)" style="fill: #e6482f"/>
    <path d="M 59.479418 21.312745 
L 59.525383 21.273854 
L 59.553922 21.307592 
L 59.767348 21.127062 
L 59.7409 21.095777 
L 59.784528 21.058911 
L 59.85809 21.145833 
L 59.555029 21.40212 
L 59.479418 21.312745 
" clip-path="url(#p56f11153ed)" style="fill: #e6482f"/>
    <path d="M 59.320774 21.078847 
L 59.361532 21.127859 
L 59.183328 21.276062 
L 59.142529 21.226988 
L 59.320774 21.078847 
" clip-path="url(#p56f11153ed)" style="fill: #e6482f"/>
    <path d="M 58.722321 20.919296 
L 58.832744 21.046765 
L 58.750818 21.117738 
L 58.640354 20.99033 
L 58.722321 20.919296 
" clip-path="url(#p56f11153ed)" style="fill: #e6482f"/>
    <path d="M 59.669676 20.763119 
L 59.678902 20.774406 
L 59.385765 21.014376 
L 59.342916 20.96199 
L 59.636012 20.722019 
L 59.669676 20.763119 
" clip-path="url(#p56f11153ed)" style="fill: #e6482f"/>
    <path d="M 60.233358 21.642582 
L 60.274895 21.689815 
L 59.848372 22.064984 
L 59.806835 22.017812 
L 60.233358 21.642582 
" clip-path="url(#p56f11153ed)" style="fill: #e6482f"/>
    <path d="M 60.745005 21.963401 
L 60.694119 22.00677 
L 60.323649 21.572222 
L 60.374534 21.528853 
L 60.745005 21.963401 
" clip-path="url(#p56f11153ed)" style="fill: #e6482f"/>
    <path d="M 60.842349 21.65025 
L 60.888068 21.700795 
L 60.803969 21.776921 
L 60.75825 21.726314 
L 60.842349 21.65025 
" clip-path="url(#p56f11153ed)" style="fill: #e6482f"/>
    <path d="M 59.724458 21.652703 
L 59.761771 21.692576 
L 59.695181 21.754838 
L 59.657908 21.715027 
L 59.724458 21.652703 
" clip-path="url(#p56f11153ed)" style="fill: #e6482f"/>
    <path d="M 60.179807 21.468186 
L 60.129167 21.514254 
L 60.021572 21.395986 
L 60.072171 21.349979 
L 60.179807 21.468186 
" clip-path="url(#p56f11153ed)" style="fill: #e6482f"/>
    <path d="M 60.642454 21.411506 
L 60.648482 21.405985 
L 60.67292 21.432791 
L 60.60838 21.491557 
L 60.581522 21.462052 
L 60.590953 21.453525 
L 60.474625 21.325811 
L 60.523666 21.281154 
L 60.642454 21.411506 
" clip-path="url(#p56f11153ed)" style="fill: #e6482f"/>
    <path d="M 60.266776 21.137981 
L 60.316842 21.192882 
L 60.158649 21.337036 
L 60.108583 21.282135 
L 60.266776 21.137981 
" clip-path="url(#p56f11153ed)" style="fill: #e6482f"/>
    <path d="M 59.962937 20.522964 
L 59.999881 20.568112 
L 59.706621 20.808205 
L 59.678902 20.774406 
L 59.669676 20.763119 
L 59.962937 20.522964 
" clip-path="url(#p56f11153ed)" style="fill: #e6482f"/>
    <path d="M 58.97347 20.682147 
L 59.015335 20.731159 
L 58.836189 20.884085 
L 58.794324 20.835012 
L 58.97347 20.682147 
" clip-path="url(#p56f11153ed)" style="fill: #e6482f"/>
    <path d="M 59.352634 20.357892 
L 59.360342 20.366971 
L 59.39413 20.406598 
L 59.104724 20.652887 
L 59.063269 20.604181 
L 59.352634 20.357892 
" clip-path="url(#p56f11153ed)" style="fill: #e6482f"/>
    <path d="M 59.783544 20.286919 
L 59.826639 20.338937 
L 59.419101 20.676319 
L 59.376006 20.624363 
L 59.783544 20.286919 
" clip-path="url(#p56f11153ed)" style="fill: #e6482f"/>
    <path d="M 58.948868 20.355132 
L 58.995325 20.408561 
L 58.766892 20.607003 
L 58.720435 20.553512 
L 58.948868 20.355132 
" clip-path="url(#p56f11153ed)" style="fill: #e6482f"/>
    <path d="M 59.179146 20.156751 
L 59.224865 20.207972 
L 59.105626 20.314339 
L 59.059906 20.263118 
L 59.179146 20.156751 
" clip-path="url(#p56f11153ed)" style="fill: #e6482f"/>
    <path d="M 59.352634 20.357892 
L 59.321922 20.321762 
L 59.611902 20.074982 
L 59.650363 20.12013 
L 59.360342 20.366971 
L 59.352634 20.357892 
" clip-path="url(#p56f11153ed)" style="fill: #e6482f"/>
    <path d="M 59.308267 20.02738 
L 59.351732 19.98941 
L 59.357062 19.995482 
L 59.412007 19.947513 
L 59.339143 19.864087 
L 59.398476 19.812253 
L 59.524317 19.956346 
L 59.366534 20.094059 
L 59.308267 20.02738 
" clip-path="url(#p56f11153ed)" style="fill: #e6482f"/>
    <path d="M 58.712152 19.613443 
L 58.756354 19.667854 
L 58.63978 19.762505 
L 58.595577 19.708094 
L 58.712152 19.613443 
" clip-path="url(#p56f11153ed)" style="fill: #e6482f"/>
    <path d="M 59.287068 19.671289 
L 59.230934 19.720424 
L 59.129449 19.604549 
L 59.185583 19.555414 
L 59.287068 19.671289 
" clip-path="url(#p56f11153ed)" style="fill: #e6482f"/>
    <path d="M 59.14216 19.504806 
L 59.072618 19.565535 
L 59.036001 19.523638 
L 59.058184 19.504254 
L 59.01554 19.455426 
L 58.945874 19.516277 
L 58.949524 19.520448 
L 58.911718 19.553451 
L 58.858454 19.492476 
L 59.013326 19.357278 
L 59.14216 19.504806 
" clip-path="url(#p56f11153ed)" style="fill: #e6482f"/>
    <path d="M 58.098117 20.751586 
L 58.055473 20.788698 
L 57.880591 20.587925 
L 57.923194 20.550813 
L 58.098117 20.751586 
" clip-path="url(#p56f11153ed)" style="fill: #e6482f"/>
    <path d="M 58.1791 20.407518 
L 58.278248 20.51867 
L 58.234579 20.557622 
L 58.135431 20.44647 
L 58.1791 20.407518 
" clip-path="url(#p56f11153ed)" style="fill: #e6482f"/>
    <path d="M 57.801167 20.407579 
L 57.749092 20.454445 
L 57.67631 20.373534 
L 57.728385 20.326669 
L 57.801167 20.407579 
" clip-path="url(#p56f11153ed)" style="fill: #e6482f"/>
    <path d="M 58.412946 19.913652 
L 58.458296 19.965915 
L 58.34328 20.065658 
L 58.297889 20.013394 
L 58.412946 19.913652 
" clip-path="url(#p56f11153ed)" style="fill: #e6482f"/>
    <path d="M 58.541247 19.761217 
L 58.597382 19.826055 
L 58.502703 19.908008 
L 58.446569 19.84317 
L 58.541247 19.761217 
" clip-path="url(#p56f11153ed)" style="fill: #e6482f"/>
    <path d="M 58.217808 19.651169 
L 58.173934 19.598844 
L 58.229371 19.552346 
L 58.273286 19.604733 
L 58.3441 19.545353 
L 58.299939 19.49266 
L 58.357426 19.444507 
L 58.401588 19.4972 
L 58.457886 19.449966 
L 58.524969 19.530018 
L 58.475928 19.571117 
L 58.430003 19.516277 
L 58.357016 19.577435 
L 58.402982 19.632214 
L 58.348324 19.678037 
L 58.302604 19.623503 
L 58.232446 19.682269 
L 58.278166 19.736802 
L 58.226993 19.779742 
L 58.15991 19.69969 
L 58.217808 19.651169 
" clip-path="url(#p56f11153ed)" style="fill: #e6482f"/>
    <path d="M 57.97937 19.442667 
L 58.028657 19.498733 
L 57.916347 19.597372 
L 57.86706 19.541243 
L 57.97937 19.442667 
" clip-path="url(#p56f11153ed)" style="fill: #e6482f"/>
    <path d="M 58.167947 19.333968 
L 58.222564 19.399604 
L 58.12395 19.481619 
L 58.069333 19.416044 
L 58.167947 19.333968 
" clip-path="url(#p56f11153ed)" style="fill: #e6482f"/>
    <path d="M 58.356893 19.199261 
L 58.401711 19.251156 
L 58.285834 19.351205 
L 58.241016 19.29931 
L 58.356893 19.199261 
" clip-path="url(#p56f11153ed)" style="fill: #e6482f"/>
    <path d="M 58.547685 19.124301 
L 58.494421 19.061732 
L 58.52911 19.032226 
L 58.534646 19.038728 
L 58.596972 18.985729 
L 58.549161 18.929478 
L 58.536327 18.940397 
L 58.506681 18.905554 
L 58.576511 18.846114 
L 58.701737 18.993335 
L 58.547685 19.124301 
" clip-path="url(#p56f11153ed)" style="fill: #e6482f"/>
    <path d="M 58.680456 18.263854 
L 58.873215 18.498856 
L 58.976873 18.413835 
L 58.920739 18.345377 
L 58.978021 18.298451 
L 59.171888 18.534802 
L 59.11477 18.581668 
L 59.024397 18.471497 
L 58.920575 18.55664 
L 58.975561 18.623687 
L 58.913481 18.674601 
L 58.618335 18.314768 
L 58.680456 18.263854 
" clip-path="url(#p56f11153ed)" style="fill: #e6482f"/>
    <path d="M 58.900647 18.201591 
L 58.840986 18.253793 
L 58.690338 18.081851 
L 58.749998 18.029588 
L 58.900647 18.201591 
" clip-path="url(#p56f11153ed)" style="fill: #e6482f"/>
    <path d="M 57.6743 18.823294 
L 57.71838 18.87427 
L 57.472233 19.087127 
L 57.428154 19.036152 
L 57.6743 18.823294 
" clip-path="url(#p56f11153ed)" style="fill: #e6482f"/>
    <path d="M 58.526117 18.794034 
L 58.479249 18.837035 
L 58.376329 18.724779 
L 58.423197 18.681778 
L 58.526117 18.794034 
" clip-path="url(#p56f11153ed)" style="fill: #e6482f"/>
    <path d="M 57.881657 18.645095 
L 57.925204 18.695887 
L 57.803586 18.80023 
L 57.759999 18.7495 
L 57.881657 18.645095 
" clip-path="url(#p56f11153ed)" style="fill: #e6482f"/>
    <path d="M 58.327043 18.549647 
L 58.401219 18.635281 
L 58.334587 18.692942 
L 58.260452 18.607309 
L 58.327043 18.549647 
" clip-path="url(#p56f11153ed)" style="fill: #e6482f"/>
    <path d="M 58.01775 18.524803 
L 58.079707 18.593997 
L 57.983265 18.680306 
L 57.921308 18.611173 
L 58.01775 18.524803 
" clip-path="url(#p56f11153ed)" style="fill: #e6482f"/>
    <path d="M 57.74249 18.475361 
L 57.801864 18.542224 
L 57.705381 18.627858 
L 57.646049 18.560995 
L 57.74249 18.475361 
" clip-path="url(#p56f11153ed)" style="fill: #e6482f"/>
    <path d="M 58.184718 18.38298 
L 58.294403 18.514191 
L 58.246142 18.554493 
L 58.181519 18.47714 
L 58.124647 18.524619 
L 58.079666 18.470761 
L 58.184718 18.38298 
" clip-path="url(#p56f11153ed)" style="fill: #e6482f"/>
    <path d="M 57.872965 18.366172 
L 57.930493 18.431686 
L 57.839095 18.511921 
L 57.781526 18.446469 
L 57.872965 18.366172 
" clip-path="url(#p56f11153ed)" style="fill: #e6482f"/>
    <path d="M 58.097953 18.282931 
L 57.962886 18.400095 
L 57.908392 18.337342 
L 57.984741 18.271092 
L 57.930575 18.208646 
L 57.989252 18.157732 
L 58.097953 18.282931 
" clip-path="url(#p56f11153ed)" style="fill: #e6482f"/>
    <path d="M 57.952184 18.111112 
L 57.890309 18.164357 
L 57.765083 18.018792 
L 57.826999 17.965547 
L 57.952184 18.111112 
" clip-path="url(#p56f11153ed)" style="fill: #e6482f"/>
    <path d="M 57.263933 18.117307 
L 57.31363 18.173926 
L 57.172125 18.298083 
L 57.122428 18.241525 
L 57.263933 18.117307 
" clip-path="url(#p56f11153ed)" style="fill: #e6482f"/>
    <path d="M 57.451239 17.949843 
L 57.501756 18.007075 
L 57.362793 18.129698 
L 57.312276 18.072466 
L 57.451239 17.949843 
" clip-path="url(#p56f11153ed)" style="fill: #e6482f"/>
    <path d="M 57.655521 18.00775 
L 57.617961 18.04799 
L 57.473422 17.91316 
L 57.510941 17.87292 
L 57.655521 18.00775 
" clip-path="url(#p56f11153ed)" style="fill: #e6482f"/>
    <path d="M 57.779148 17.826422 
L 57.720594 17.878318 
L 57.695212 17.849732 
L 57.753725 17.797837 
L 57.779148 17.826422 
" clip-path="url(#p56f11153ed)" style="fill: #e6482f"/>
   </g>
   <g id="LineCollection_1">
    <path d="M 45.245455 33.807407 
L 45.321487 33.711781 
L 45.331697 33.658598 
L 45.331697 33.60799 
L 45.30607 33.445848 
" clip-path="url(#p56f11153ed)" style="fill: none; stroke: #e6482f; stroke-width: 0.2"/>
    <path d="M 47.780337 32.856803 
L 47.74314 32.750672 
L 47.530453 32.519166 
" clip-path="url(#p56f11153ed)" style="fill: none; stroke: #e6482f; stroke-width: 0.2"/>
    <path d="M 51.207407 34.574873 
L 51.215151 34.511684 
L 51.141754 33.890901 
L 50.98557 32.570448 
L 50.945427 32.230735 
L 50.88839 31.748647 
L 50.846033 31.390531 
L 50.780468 30.835814 
L 50.740776 30.500333 
L 50.716707 30.331765 
L 50.695016 30.257112 
L 50.622767 30.21135 
L 50.531287 30.225766 
L 50.447475 30.276925 
" clip-path="url(#p56f11153ed)" style="fill: none; stroke: #e6482f; stroke-width: 0.2"/>
    <path d="M 47.530453 32.519166 
L 48.360496 31.702088 
L 48.710096 31.395745 
L 49.04965 31.126024 
L 50.447475 30.276925 
" clip-path="url(#p56f11153ed)" style="fill: none; stroke: #e6482f; stroke-width: 0.2"/>
    <path d="M 49.680578 30.063148 
L 49.612511 30.276005 
L 49.583808 30.368938 
L 49.451119 30.594248 
L 49.04965 31.126024 
" clip-path="url(#p56f11153ed)" style="fill: none; stroke: #e6482f; stroke-width: 0.2"/>
    <path d="M 48.242036 30.000456 
L 48.169418 30.008124 
L 48.119926 29.996039 
L 48.073755 29.969662 
L 48.026478 29.936108 
L 47.624721 29.460031 
L 47.598642 29.429544 
L 47.569817 29.416724 
L 47.543123 29.424085 
L 47.513887 29.443346 
L 46.856143 29.92341 
L 46.797958 29.95813 
L 46.757077 29.973649 
" clip-path="url(#p56f11153ed)" style="fill: none; stroke: #e6482f; stroke-width: 0.2"/>
    <path d="M 49.385841 29.129274 
L 49.571712 29.394395 
L 49.69046 29.597867 
L 49.712479 29.680372 
L 49.705344 29.789561 
L 49.705262 29.868693 
L 49.680578 30.063148 
" clip-path="url(#p56f11153ed)" style="fill: none; stroke: #e6482f; stroke-width: 0.2"/>
    <path d="M 48.064939 29.05505 
L 48.12296 29.13547 
L 48.218171 29.463834 
L 48.22506 29.608909 
" clip-path="url(#p56f11153ed)" style="fill: none; stroke: #e6482f; stroke-width: 0.2"/>
    <path d="M 49.87588 28.735518 
L 50.150196 28.951075 
L 50.300886 28.941199 
L 50.30966 28.893352 
L 50.314048 28.693744 
L 50.340454 28.637616 
L 50.402042 28.583697 
L 50.437265 28.547443 
L 50.482041 28.438131 
" clip-path="url(#p56f11153ed)" style="fill: none; stroke: #e6482f; stroke-width: 0.2"/>
    <path d="M 51.141754 33.890901 
L 52.010874 33.835938 
L 52.12617 34.742523 
" clip-path="url(#p56f11153ed)" style="fill: none; stroke: #e6482f; stroke-width: 0.2"/>
    <path d="M 50.98557 32.570448 
L 51.632817 32.49923 
" clip-path="url(#p56f11153ed)" style="fill: none; stroke: #e6482f; stroke-width: 0.2"/>
    <path d="M 50.945427 32.230735 
L 51.931408 32.174055 
" clip-path="url(#p56f11153ed)" style="fill: none; stroke: #e6482f; stroke-width: 0.2"/>
    <path d="M 50.88839 31.748647 
L 51.907339 31.673073 
" clip-path="url(#p56f11153ed)" style="fill: none; stroke: #e6482f; stroke-width: 0.2"/>
    <path d="M 50.846033 31.390531 
L 51.895284 31.338329 
" clip-path="url(#p56f11153ed)" style="fill: none; stroke: #e6482f; stroke-width: 0.2"/>
    <path d="M 50.780468 30.835814 
L 51.909758 30.885562 
" clip-path="url(#p56f11153ed)" style="fill: none; stroke: #e6482f; stroke-width: 0.2"/>
    <path d="M 53.173992 28.47874 
L 52.892869 28.497081 
L 52.789211 28.533151 
L 52.68912 28.567195 
L 52.639055 28.574925 
L 52.52248 28.595842 
L 52.459252 28.594186 
L 52.260178 28.563944 
L 52.177145 28.534255 
L 52.046834 28.467146 
L 51.908815 28.407767 
L 51.798801 28.363723 
L 51.710274 28.346118 
L 51.599727 28.352743 
L 51.55245 28.367588 
L 51.467202 28.462178 
L 51.353375 28.529286 
L 51.283546 28.560632 
L 51.193378 28.591978 
L 51.088326 28.645897 
L 51.065774 28.654117 
L 51.038301 28.643137 
L 50.951947 28.544683 
L 50.849683 28.493523 
" clip-path="url(#p56f11153ed)" style="fill: none; stroke: #e6482f; stroke-width: 0.2"/>
    <path d="M 52.521947 27.363968 
L 52.553274 27.646633 
L 52.507104 27.754411 
L 52.498862 27.883107 
L 52.608999 28.487205 
L 52.639055 28.574925 
" clip-path="url(#p56f11153ed)" style="fill: none; stroke: #e6482f; stroke-width: 0.2"/>
    <path d="M 52.892869 28.497081 
L 52.755711 27.177427 
" clip-path="url(#p56f11153ed)" style="fill: none; stroke: #e6482f; stroke-width: 0.2"/>
    <path d="M 53.005179 26.977267 
L 52.755711 27.177427 
L 52.521947 27.363968 
L 51.909881 27.852314 
L 51.887329 27.90838 
L 51.838657 27.969845 
L 51.687722 28.1113 
L 51.629455 28.250424 
L 51.55245 28.367588 
" clip-path="url(#p56f11153ed)" style="fill: none; stroke: #e6482f; stroke-width: 0.2"/>
    <path d="M 50.420535 28.298149 
L 50.482041 28.438131 
L 50.504347 28.483647 
L 50.560441 28.535298 
L 50.635232 28.56284 
L 50.730894 28.550756 
L 50.849683 28.493523 
" clip-path="url(#p56f11153ed)" style="fill: none; stroke: #e6482f; stroke-width: 0.2"/>
    <path d="M 48.956899 28.765208 
L 49.212066 28.539714 
L 49.194476 28.501805 
L 49.194476 28.468803 
L 49.228017 28.428623 
L 49.543665 28.175648 
L 49.655934 28.08523 
" clip-path="url(#p56f11153ed)" style="fill: none; stroke: #e6482f; stroke-width: 0.2"/>
    <path d="M 46.757077 29.973649 
L 46.70861 29.969846 
L 46.667571 29.961472 
" clip-path="url(#p56f11153ed)" style="fill: none; stroke: #e6482f; stroke-width: 0.2"/>
    <path d="M 49.543665 28.175648 
L 49.403432 27.923225 
" clip-path="url(#p56f11153ed)" style="fill: none; stroke: #e6482f; stroke-width: 0.2"/>
    <path d="M 49.902491 27.127985 
L 49.948949 27.220428 
L 50.067163 27.406846 
L 50.283828 27.480518 
" clip-path="url(#p56f11153ed)" style="fill: none; stroke: #e6482f; stroke-width: 0.2"/>
    <path d="M 47.569817 29.416724 
L 47.709148 29.302504 
L 48.00778 29.082531 
L 48.064939 29.05505 
L 49.04354 28.172581 
L 49.238883 28.006528 
L 49.295632 27.972728 
L 49.403432 27.923225 
L 50.283828 27.480518 
L 51.546955 26.507693 
L 52.449042 25.779499 
L 52.595549 25.678591 
L 52.620931 25.64651 
L 52.657383 25.561367 
L 53.040483 24.517568 
L 53.616261 22.923529 
" clip-path="url(#p56f11153ed)" style="fill: none; stroke: #e6482f; stroke-width: 0.2"/>
    <path d="M 50.409751 28.306552 
L 50.283828 27.480518 
L 50.267877 27.290787 
L 50.178776 26.668286 
L 50.116081 26.224476 
L 50.006108 25.292933 
L 49.752048 23.583326 
L 49.737204 23.54376 
L 49.689704 23.516917 
" clip-path="url(#p56f11153ed)" style="fill: none; stroke: #e6482f; stroke-width: 0.2"/>
    <path d="M 50.734749 26.231101 
L 50.53182 24.845319 
L 50.344842 23.401324 
" clip-path="url(#p56f11153ed)" style="fill: none; stroke: #e6482f; stroke-width: 0.2"/>
    <path d="M 50.796337 23.337528 
L 50.834265 23.560814 
L 51.038834 25.053208 
L 51.115552 25.8225 
L 51.16037 25.892369 
" clip-path="url(#p56f11153ed)" style="fill: none; stroke: #e6482f; stroke-width: 0.2"/>
    <path d="M 51.275509 26.189143 
L 51.546955 26.507693 
L 52.008865 27.060386 
" clip-path="url(#p56f11153ed)" style="fill: none; stroke: #e6482f; stroke-width: 0.2"/>
    <path d="M 54.738048 22.777228 
L 54.58092 22.843662 
L 54.504366 22.886111 
L 54.472793 22.910954 
L 54.444951 22.932853 
L 54.395459 22.991129 
L 54.239603 23.306243 
L 53.791143 24.590749 
L 53.725127 24.762814 
L 53.416654 25.617372 
L 53.296758 25.910465 
L 53.254278 26.018121 
L 53.176002 26.13786 
L 52.932725 26.3444 
L 52.008865 27.060386 
L 51.0889 27.777476 
L 50.420535 28.298149 
L 50.409751 28.306552 
L 49.87588 28.735518 
L 49.385841 29.129274 
L 48.242036 30.000456 
" clip-path="url(#p56f11153ed)" style="fill: none; stroke: #e6482f; stroke-width: 0.2"/>
    <path d="M 52.620931 25.64651 
L 53.296758 25.910465 
" clip-path="url(#p56f11153ed)" style="fill: none; stroke: #e6482f; stroke-width: 0.2"/>
    <path d="M 51.963801 25.588234 
L 52.231598 25.674604 
L 52.449042 25.779499 
" clip-path="url(#p56f11153ed)" style="fill: none; stroke: #e6482f; stroke-width: 0.2"/>
    <path d="M 50.178776 26.668286 
L 50.626416 26.333358 
L 50.734749 26.231101 
L 51.078034 25.957392 
L 51.16037 25.892369 
L 51.223598 25.879671 
L 51.268702 25.859919 
L 51.632735 25.572285 
L 51.684441 25.543148 
L 51.72401 25.531063 
L 51.773871 25.532781 
L 51.963801 25.588234 
L 52.426244 24.284958 
L 52.847478 23.030204 
" clip-path="url(#p56f11153ed)" style="fill: none; stroke: #e6482f; stroke-width: 0.2"/>
    <path d="M 53.725127 24.762814 
L 53.040483 24.517568 
L 52.673703 24.388381 
L 52.426244 24.284958 
L 51.893398 24.074922 
" clip-path="url(#p56f11153ed)" style="fill: none; stroke: #e6482f; stroke-width: 0.2"/>
    <path d="M 51.632735 25.572285 
L 51.622033 25.522537 
L 51.578856 25.405128 
L 51.530471 25.156017 
L 51.405409 24.091914 
L 51.312699 23.254532 
" clip-path="url(#p56f11153ed)" style="fill: none; stroke: #e6482f; stroke-width: 0.2"/>
    <path d="M 52.147991 23.139577 
L 52.173865 23.219874 
L 52.169436 23.284222 
L 51.893398 24.074922 
L 51.598087 24.878873 
L 51.530471 25.156017 
" clip-path="url(#p56f11153ed)" style="fill: none; stroke: #e6482f; stroke-width: 0.2"/>
    <path d="M 51.663775 23.206194 
L 51.405409 24.091914 
" clip-path="url(#p56f11153ed)" style="fill: none; stroke: #e6482f; stroke-width: 0.2"/>
    <path d="M 49.68839 23.507811 
L 49.891174 23.461807 
L 50.016031 23.453035 
L 50.344842 23.401324 
L 50.384452 23.39476 
L 50.796337 23.337528 
L 51.087219 23.298514 
L 51.312699 23.254532 
L 51.663775 23.206194 
L 52.147991 23.139577 
L 52.847478 23.030204 
L 52.901111 23.019714 
L 53.240132 22.967512 
L 53.444126 22.939478 
L 53.616261 22.923529 
L 54.237635 22.95647 
L 54.395459 22.991129 
" clip-path="url(#p56f11153ed)" style="fill: none; stroke: #e6482f; stroke-width: 0.2"/>
    <path d="M 50.765543 22.845993 
L 50.741883 22.863046 
L 50.729254 22.88059 
L 50.725933 22.903716 
L 50.796337 23.337528 
" clip-path="url(#p56f11153ed)" style="fill: none; stroke: #e6482f; stroke-width: 0.2"/>
    <path d="M 51.066881 22.172946 
L 50.987702 22.171842 
L 50.923367 22.175155 
L 50.563188 22.227909 
L 50.190872 22.283485 
L 49.824666 22.351084 
L 49.507337 22.393775 
" clip-path="url(#p56f11153ed)" style="fill: none; stroke: #e6482f; stroke-width: 0.2"/>
    <path d="M 49.57938 20.891263 
L 49.824666 22.351084 
L 50.016031 23.453035 
" clip-path="url(#p56f11153ed)" style="fill: none; stroke: #e6482f; stroke-width: 0.2"/>
    <path d="M 50.384452 23.39476 
L 50.190872 22.283485 
L 49.951696 20.835196 
" clip-path="url(#p56f11153ed)" style="fill: none; stroke: #e6482f; stroke-width: 0.2"/>
    <path d="M 50.903562 21.731957 
L 50.981633 21.935429 
" clip-path="url(#p56f11153ed)" style="fill: none; stroke: #e6482f; stroke-width: 0.2"/>
    <path d="M 50.319583 20.786245 
L 50.398762 21.316303 
L 50.563188 22.227909 
L 50.657743 22.83716 
L 50.675908 22.853661 
L 50.765543 22.845993 
" clip-path="url(#p56f11153ed)" style="fill: none; stroke: #e6482f; stroke-width: 0.2"/>
    <path d="M 50.679188 20.736803 
L 50.319583 20.786245 
L 49.951696 20.835196 
L 49.57938 20.891263 
L 49.447511 20.908438 
" clip-path="url(#p56f11153ed)" style="fill: none; stroke: #e6482f; stroke-width: 0.2"/>
    <path d="M 52.901111 23.019714 
L 52.795239 22.539711 
" clip-path="url(#p56f11153ed)" style="fill: none; stroke: #e6482f; stroke-width: 0.2"/>
    <path d="M 50.765543 22.845993 
L 51.25882 22.7668 
L 52.269527 22.597434 
L 52.668783 22.540263 
L 52.795239 22.539711 
L 53.270844 22.444692 
" clip-path="url(#p56f11153ed)" style="fill: none; stroke: #e6482f; stroke-width: 0.2"/>
    <path d="M 51.0791 22.205458 
L 51.190713 22.097066 
L 51.255335 22.057194 
L 52.707244 21.875498 
" clip-path="url(#p56f11153ed)" style="fill: none; stroke: #e6482f; stroke-width: 0.2"/>
    <path d="M 51.312699 23.254532 
L 51.25882 22.7668 
L 51.20326 22.480332 
L 51.124081 22.325259 
L 51.0791 22.205458 
L 51.066881 22.172946 
L 50.981633 21.935429 
L 50.990449 21.873842 
L 51.026738 21.755083 
L 51.042688 21.706991 
L 51.046256 21.682515 
L 51.040474 21.612647 
L 50.918979 20.842373 
L 50.870554 20.433834 
L 50.871661 20.381632 
L 50.887201 20.338508 
" clip-path="url(#p56f11153ed)" style="fill: none; stroke: #e6482f; stroke-width: 0.2"/>
    <path d="M 51.026738 21.755083 
L 51.218103 21.727602 
L 51.306098 21.708893 
L 51.461175 21.662702 
L 51.958266 21.61099 
L 52.63315 21.536214 
" clip-path="url(#p56f11153ed)" style="fill: none; stroke: #e6482f; stroke-width: 0.2"/>
    <path d="M 52.65886 21.570321 
L 52.63315 21.536214 
L 52.45101 21.29471 
L 52.275062 21.207543 
L 51.633063 21.077559 
L 51.083938 20.945734 
L 50.918979 20.842373 
" clip-path="url(#p56f11153ed)" style="fill: none; stroke: #e6482f; stroke-width: 0.2"/>
    <path d="M 49.318718 20.57075 
L 50.887201 20.338508 
L 51.667384 20.216682 
L 52.446049 20.095164 
L 52.994846 20.005236 
L 53.054794 20.01045 
" clip-path="url(#p56f11153ed)" style="fill: none; stroke: #e6482f; stroke-width: 0.2"/>
    <path d="M 52.769939 19.632766 
L 52.386101 19.708094 
L 51.612397 19.821884 
L 50.848576 19.931319 
L 49.389121 20.157855 
" clip-path="url(#p56f11153ed)" style="fill: none; stroke: #e6482f; stroke-width: 0.2"/>
    <path d="M 51.667384 20.216682 
L 51.612397 19.821884 
L 51.551343 19.460149 
" clip-path="url(#p56f11153ed)" style="fill: none; stroke: #e6482f; stroke-width: 0.2"/>
    <path d="M 52.446049 20.095164 
L 52.386101 19.708094 
L 52.330008 19.316056 
" clip-path="url(#p56f11153ed)" style="fill: none; stroke: #e6482f; stroke-width: 0.2"/>
    <path d="M 54.618193 22.389607 
L 54.801645 22.442055 
L 54.993297 22.486221 
" clip-path="url(#p56f11153ed)" style="fill: none; stroke: #e6482f; stroke-width: 0.2"/>
    <path d="M 53.603058 22.548483 
L 53.389673 22.505053 
L 53.34461 22.490208 
L 53.291797 22.460519 
L 53.270844 22.444692 
L 53.256082 22.433589 
L 53.141148 22.280173 
L 52.983324 22.135589 
L 52.802906 22.014254 
L 52.744107 21.94917 
L 52.707244 21.875498 
L 52.65886 21.570321 
" clip-path="url(#p56f11153ed)" style="fill: none; stroke: #e6482f; stroke-width: 0.2"/>
    <path d="M 53.616261 22.923529 
L 53.603058 22.548483 
L 53.609085 21.42954 
L 53.644308 21.30201 
L 53.687198 21.182147 
L 53.670673 21.040815 
L 53.650909 20.922056 
" clip-path="url(#p56f11153ed)" style="fill: none; stroke: #e6482f; stroke-width: 0.2"/>
    <path d="M 54.352569 21.524682 
L 54.416166 21.29471 
L 54.421538 21.160677 
L 54.370898 21.017995 
L 54.201962 20.835932 
L 54.083132 20.769253 
" clip-path="url(#p56f11153ed)" style="fill: none; stroke: #e6482f; stroke-width: 0.2"/>
    <path d="M 53.054794 20.01045 
L 53.093461 20.043268 
L 53.361544 20.466161 
L 53.542167 20.687484 
L 53.62725 20.851145 
L 53.650909 20.922056 
" clip-path="url(#p56f11153ed)" style="fill: none; stroke: #e6482f; stroke-width: 0.2"/>
    <path d="M 54.401405 19.811763 
L 55.160675 19.125834 
" clip-path="url(#p56f11153ed)" style="fill: none; stroke: #e6482f; stroke-width: 0.2"/>
    <path d="M 52.344277 18.088722 
L 53.295651 19.332005 
L 54.170553 20.498182 
" clip-path="url(#p56f11153ed)" style="fill: none; stroke: #e6482f; stroke-width: 0.2"/>
    <path d="M 54.05607 19.398316 
L 54.816611 18.735636 
" clip-path="url(#p56f11153ed)" style="fill: none; stroke: #e6482f; stroke-width: 0.2"/>
    <path d="M 53.168621 19.432606 
L 53.295651 19.332005 
L 53.699827 18.984563 
L 54.460574 18.32403 
L 55.036925 17.819552 
L 55.43368 17.475422 
" clip-path="url(#p56f11153ed)" style="fill: none; stroke: #e6482f; stroke-width: 0.2"/>
    <path d="M 53.332514 18.561731 
L 54.091374 17.895432 
L 54.657803 17.3839 
" clip-path="url(#p56f11153ed)" style="fill: none; stroke: #e6482f; stroke-width: 0.2"/>
    <path d="M 51.959373 18.374822 
L 52.050689 18.301702 
L 52.160661 18.221466 
L 52.344277 18.088722 
L 52.706711 17.826729 
L 53.498006 17.201652 
L 54.082558 16.738703 
L 54.46697 16.415491 
L 54.515355 16.394021 
L 54.558778 16.40451 
" clip-path="url(#p56f11153ed)" style="fill: none; stroke: #e6482f; stroke-width: 0.2"/>
    <path d="M 54.717423 16.609516 
L 54.294836 16.966896 
L 53.721272 17.469902 
L 52.970121 18.138409 
" clip-path="url(#p56f11153ed)" style="fill: none; stroke: #e6482f; stroke-width: 0.2"/>
    <path d="M 54.082558 16.738703 
L 54.294836 16.966896 
L 54.657803 17.3839 
L 55.036925 17.819552 
" clip-path="url(#p56f11153ed)" style="fill: none; stroke: #e6482f; stroke-width: 0.2"/>
    <path d="M 52.769939 19.632766 
L 52.82468 19.629454 
L 52.877985 19.620682 
L 52.950316 19.581239 
L 53.168621 19.432606 
" clip-path="url(#p56f11153ed)" style="fill: none; stroke: #e6482f; stroke-width: 0.2"/>
    <path d="M 51.081724 19.519528 
L 51.551343 19.460149 
L 52.330008 19.316056 
" clip-path="url(#p56f11153ed)" style="fill: none; stroke: #e6482f; stroke-width: 0.2"/>
    <path d="M 52.310465 17.938495 
L 52.303068 17.97622 
L 52.283263 18.016399 
L 52.228851 18.075226 
L 52.19531 18.11148 
L 52.160661 18.221466 
" clip-path="url(#p56f11153ed)" style="fill: none; stroke: #e6482f; stroke-width: 0.2"/>
    <path d="M 50.887201 20.338508 
L 50.89368 20.301335 
L 50.848576 19.931319 
" clip-path="url(#p56f11153ed)" style="fill: none; stroke: #e6482f; stroke-width: 0.2"/>
    <path d="M 51.842128 18.296673 
L 51.959373 18.374822 
" clip-path="url(#p56f11153ed)" style="fill: none; stroke: #e6482f; stroke-width: 0.2"/>
    <path d="M 54.921696 31.682537 
L 54.935728 31.620135 
L 54.902637 31.558486 
L 54.695157 31.405131 
L 54.54783 31.398383 
L 54.49627 31.481878 
" clip-path="url(#p56f11153ed)" style="fill: none; stroke: #e6482f; stroke-width: 0.2"/>
    <path d="M 53.34092 29.783611 
L 53.212044 28.772814 
" clip-path="url(#p56f11153ed)" style="fill: none; stroke: #e6482f; stroke-width: 0.2"/>
    <path d="M 53.212044 28.772814 
L 55.051769 28.752019 
" clip-path="url(#p56f11153ed)" style="fill: none; stroke: #e6482f; stroke-width: 0.2"/>
    <path d="M 54.962462 28.074924 
L 55.079447 28.263674 
L 55.051769 28.752019 
" clip-path="url(#p56f11153ed)" style="fill: none; stroke: #e6482f; stroke-width: 0.2"/>
    <path d="M 53.145003 28.254289 
L 53.505714 28.210307 
L 53.853264 28.196566 
L 54.294303 28.14099 
L 54.676419 28.098848 
L 54.962462 28.074924 
" clip-path="url(#p56f11153ed)" style="fill: none; stroke: #e6482f; stroke-width: 0.2"/>
    <path d="M 53.212044 28.772814 
L 53.173992 28.47874 
L 53.145003 28.254289 
L 53.005179 26.977267 
L 52.932725 26.3444 
" clip-path="url(#p56f11153ed)" style="fill: none; stroke: #e6482f; stroke-width: 0.2"/>
    <path d="M 56.012205 27.49702 
L 56.145837 28.491867 
L 56.34159 29.781035 
L 56.448916 30.49897 
" clip-path="url(#p56f11153ed)" style="fill: none; stroke: #e6482f; stroke-width: 0.2"/>
    <path d="M 55.23358 29.415987 
L 55.316285 28.749075 
L 55.051769 28.752019 
" clip-path="url(#p56f11153ed)" style="fill: none; stroke: #e6482f; stroke-width: 0.2"/>
    <path d="M 56.145837 28.491867 
L 56.460911 28.452302 
L 56.87501 28.388506 
L 57.504626 28.297167 
L 58.474124 28.161355 
" clip-path="url(#p56f11153ed)" style="fill: none; stroke: #e6482f; stroke-width: 0.2"/>
    <path d="M 56.87501 28.388506 
L 56.878865 28.291156 
L 56.860044 28.19767 
L 56.808461 28.028795 
L 56.82109 27.993646 
L 56.854631 27.97052 
L 56.935491 27.933531 
L 56.983343 27.901203 
L 57.009175 27.856117 
L 57.019672 27.807288 
L 57.285255 27.625899 
L 57.511638 27.50254 
" clip-path="url(#p56f11153ed)" style="fill: none; stroke: #e6482f; stroke-width: 0.2"/>
    <path d="M 55.599746 27.388689 
L 55.558537 27.427703 
L 55.506544 27.464324 
L 55.430933 27.547075 
L 55.379801 27.620195 
L 55.230792 27.754963 
L 55.066366 28.012846 
L 55.030611 28.042045 
L 54.962462 28.074924 
" clip-path="url(#p56f11153ed)" style="fill: none; stroke: #e6482f; stroke-width: 0.2"/>
    <path d="M 56.460911 28.452302 
L 56.463412 28.28312 
L 56.510977 27.631236 
L 56.51315 27.47555 
L 56.502161 27.452485 
L 56.323958 27.259809 
L 56.011098 26.904209 
" clip-path="url(#p56f11153ed)" style="fill: none; stroke: #e6482f; stroke-width: 0.2"/>
    <path d="M 55.819732 25.000944 
L 56.172776 25.43537 
L 56.503268 25.806551 
L 56.838722 26.20687 
L 57.186804 26.62596 
L 57.537101 27.035604 
L 58.192344 27.799007 
L 58.383956 28.0464 
L 58.474124 28.161355 
" clip-path="url(#p56f11153ed)" style="fill: none; stroke: #e6482f; stroke-width: 0.2"/>
    <path d="M 55.917609 25.648166 
L 55.898337 25.736683 
L 56.203734 26.157919 
" clip-path="url(#p56f11153ed)" style="fill: none; stroke: #e6482f; stroke-width: 0.2"/>
    <path d="M 58.474124 28.161355 
L 58.587548 28.146266 
" clip-path="url(#p56f11153ed)" style="fill: none; stroke: #e6482f; stroke-width: 0.2"/>
    <path d="M 57.498598 28.198774 
L 57.504626 28.297167 
" clip-path="url(#p56f11153ed)" style="fill: none; stroke: #e6482f; stroke-width: 0.2"/>
    <path d="M 56.878865 28.291156 
L 57.498598 28.198774 
L 58.271195 28.097008 
L 58.329503 28.080506 
L 58.383956 28.0464 
" clip-path="url(#p56f11153ed)" style="fill: none; stroke: #e6482f; stroke-width: 0.2"/>
    <path d="M 58.65737 27.41341 
L 57.98876 26.641725 
" clip-path="url(#p56f11153ed)" style="fill: none; stroke: #e6482f; stroke-width: 0.2"/>
    <path d="M 58.192344 27.799007 
L 58.65737 27.41341 
L 59.069665 27.059282 
L 59.699855 26.541799 
L 59.809828 26.473586 
L 59.936325 26.378997 
L 60.003982 26.294897 
L 60.075862 26.232511 
L 60.371787 25.949847 
L 60.688871 25.64792 
L 60.697933 25.61682 
" clip-path="url(#p56f11153ed)" style="fill: none; stroke: #e6482f; stroke-width: 0.2"/>
    <path d="M 60.085497 24.845012 
L 59.688907 25.189756 
L 59.310277 25.524623 
L 58.415406 26.270298 
L 57.98876 26.641725 
L 57.537101 27.035604 
L 56.764463 27.696075 
L 56.680323 27.712576 
L 56.62259 27.69448 
L 56.510977 27.631236 
" clip-path="url(#p56f11153ed)" style="fill: none; stroke: #e6482f; stroke-width: 0.2"/>
    <path d="M 58.736795 26.643013 
L 59.629492 25.885744 
" clip-path="url(#p56f11153ed)" style="fill: none; stroke: #e6482f; stroke-width: 0.2"/>
    <path d="M 59.688907 25.189756 
L 60.371787 25.949847 
" clip-path="url(#p56f11153ed)" style="fill: none; stroke: #e6482f; stroke-width: 0.2"/>
    <path d="M 54.872869 23.997386 
L 54.926666 24.143687 
L 54.986081 24.215151 
L 55.36057 25.332008 
L 55.359463 25.37323 
L 55.29402 25.549773 
L 55.414449 25.590443 
L 55.607455 26.245945 
L 55.667935 26.427948 
L 55.693235 26.515974 
L 55.712507 26.610563 
L 55.731738 26.65289 
L 55.762532 26.706748 
L 55.765853 26.76398 
L 55.764746 26.839861 
L 55.744941 26.921262 
L 55.740799 26.950399 
L 55.75429 27.090075 
L 55.750435 27.173685 
L 55.735059 27.214907 
L 55.688847 27.285818 
L 55.599746 27.388689 
" clip-path="url(#p56f11153ed)" style="fill: none; stroke: #e6482f; stroke-width: 0.2"/>
    <path d="M 56.156252 24.699325 
L 56.50987 25.113139 
L 56.849793 25.506711 
" clip-path="url(#p56f11153ed)" style="fill: none; stroke: #e6482f; stroke-width: 0.2"/>
    <path d="M 55.819732 25.000944 
L 55.716361 25.016341 
L 55.64157 25.015237 
L 55.564564 24.992172 
L 55.459553 24.947577 
" clip-path="url(#p56f11153ed)" style="fill: none; stroke: #e6482f; stroke-width: 0.2"/>
    <path d="M 57.917618 23.914942 
L 57.027832 24.660066 
L 56.50987 25.113139 
L 56.172776 25.43537 
L 55.917609 25.648166 
L 55.663015 25.559097 
" clip-path="url(#p56f11153ed)" style="fill: none; stroke: #e6482f; stroke-width: 0.2"/>
    <path d="M 59.069665 27.059282 
L 58.736795 26.643013 
L 58.415406 26.270298 
L 58.077123 25.877708 
L 57.721127 25.464569 
L 57.360702 25.046337 
L 57.027832 24.660066 
L 56.675936 24.251465 
L 56.30034 23.81201 
L 56.26971 23.773732 
L 55.892432 23.332007 
L 55.537625 22.926781 
L 55.086171 22.410463 
" clip-path="url(#p56f11153ed)" style="fill: none; stroke: #e6482f; stroke-width: 0.2"/>
    <path d="M 57.557972 23.493582 
L 56.675936 24.251465 
L 56.156252 24.699325 
L 55.819732 25.000944 
" clip-path="url(#p56f11153ed)" style="fill: none; stroke: #e6482f; stroke-width: 0.2"/>
    <path d="M 55.349007 24.601177 
L 56.251094 23.820414 
" clip-path="url(#p56f11153ed)" style="fill: none; stroke: #e6482f; stroke-width: 0.2"/>
    <path d="M 56.251094 23.820414 
L 56.30034 23.81201 
L 57.176348 23.048852 
L 57.797189 22.510574 
L 57.809285 22.463279 
" clip-path="url(#p56f11153ed)" style="fill: none; stroke: #e6482f; stroke-width: 0.2"/>
    <path d="M 57.809285 22.463279 
L 57.768035 22.474811 
L 57.146743 23.013089 
L 56.26971 23.773732 
L 56.251094 23.820414 
" clip-path="url(#p56f11153ed)" style="fill: none; stroke: #e6482f; stroke-width: 0.2"/>
    <path d="M 55.892432 23.332007 
L 56.755648 22.561672 
L 57.529392 21.897459 
" clip-path="url(#p56f11153ed)" style="fill: none; stroke: #e6482f; stroke-width: 0.2"/>
    <path d="M 55.928598 26.900896 
L 56.011098 26.904209 
L 56.838722 26.20687 
L 57.721127 25.464569 
L 58.607756 24.707299 
L 59.386831 24.038301 
" clip-path="url(#p56f11153ed)" style="fill: none; stroke: #e6482f; stroke-width: 0.2"/>
    <path d="M 60.697933 25.61682 
L 60.762842 25.61682 
L 60.803518 25.602527 
L 61.504112 24.980763 
" clip-path="url(#p56f11153ed)" style="fill: none; stroke: #e6482f; stroke-width: 0.2"/>
    <path d="M 56.012205 27.49702 
L 56.323958 27.259809 
L 57.186804 26.62596 
L 58.077123 25.877708 
L 58.963957 25.127984 
L 59.750413 24.448926 
L 60.706174 23.591055 
L 61.296222 23.087927 
" clip-path="url(#p56f11153ed)" style="fill: none; stroke: #e6482f; stroke-width: 0.2"/>
    <path d="M 60.706174 23.591055 
L 60.819468 23.601483 
L 60.872282 23.582774 
L 60.999271 23.498122 
L 61.068618 23.474393 
" clip-path="url(#p56f11153ed)" style="fill: none; stroke: #e6482f; stroke-width: 0.2"/>
    <path d="M 56.503268 25.806551 
L 56.849793 25.506711 
L 57.360702 25.046337 
L 58.253604 24.295448 
L 59.038338 23.636632 
L 60.016611 22.788761 
" clip-path="url(#p56f11153ed)" style="fill: none; stroke: #e6482f; stroke-width: 0.2"/>
    <path d="M 58.510207 23.021248 
L 59.473841 22.172394 
" clip-path="url(#p56f11153ed)" style="fill: none; stroke: #e6482f; stroke-width: 0.2"/>
    <path d="M 59.799085 22.541797 
L 59.938539 22.422609 
L 59.973147 22.404452 
L 60.0023 22.404452 
L 60.101858 22.443465 
" clip-path="url(#p56f11153ed)" style="fill: none; stroke: #e6482f; stroke-width: 0.2"/>
    <path d="M 57.928935 22.359243 
L 57.809285 22.463279 
" clip-path="url(#p56f11153ed)" style="fill: none; stroke: #e6482f; stroke-width: 0.2"/>
    <path d="M 59.238479 21.863966 
L 58.239499 22.715211 
" clip-path="url(#p56f11153ed)" style="fill: none; stroke: #e6482f; stroke-width: 0.2"/>
    <path d="M 59.473841 22.172394 
L 60.417548 21.377583 
L 60.693012 21.659389 
" clip-path="url(#p56f11153ed)" style="fill: none; stroke: #e6482f; stroke-width: 0.2"/>
    <path d="M 53.853264 28.196566 
L 53.845555 28.102528 
L 53.469959 26.564864 
L 53.469426 26.537382 
L 53.490871 26.511557 
L 53.874709 26.408686 
" clip-path="url(#p56f11153ed)" style="fill: none; stroke: #e6482f; stroke-width: 0.2"/>
    <path d="M 53.697654 25.697117 
L 53.874709 26.408686 
L 53.952248 26.691903 
L 54.294303 28.14099 
" clip-path="url(#p56f11153ed)" style="fill: none; stroke: #e6482f; stroke-width: 0.2"/>
    <path d="M 54.055086 25.665771 
L 54.392179 26.918501 
L 54.676419 28.098848 
" clip-path="url(#p56f11153ed)" style="fill: none; stroke: #e6482f; stroke-width: 0.2"/>
    <path d="M 54.908542 25.583266 
L 55.357822 27.515177 
L 55.369919 27.537444 
L 55.394931 27.546523 
L 55.430933 27.547075 
" clip-path="url(#p56f11153ed)" style="fill: none; stroke: #e6482f; stroke-width: 0.2"/>
    <path d="M 55.066366 28.012846 
L 54.99707 27.649884 
L 54.460369 25.630008 
L 54.239685 24.753981 
L 54.203889 24.698589 
L 54.180681 24.69135 
L 54.249198 24.623138 
L 54.403701 24.515359 
L 54.506539 24.461501 
L 54.576369 24.385069 
L 54.575836 24.353171 
L 54.469431 24.117862 
" clip-path="url(#p56f11153ed)" style="fill: none; stroke: #e6482f; stroke-width: 0.2"/>
    <path d="M 53.416654 25.617372 
L 53.574478 25.683376 
L 53.628357 25.693252 
L 53.697654 25.697117 
L 54.055086 25.665771 
L 54.460369 25.630008 
L 54.908542 25.583266 
L 55.29402 25.549773 
" clip-path="url(#p56f11153ed)" style="fill: none; stroke: #e6482f; stroke-width: 0.2"/>
    <path d="M 54.180681 24.69135 
L 53.970945 24.651232 
L 53.791143 24.590749 
" clip-path="url(#p56f11153ed)" style="fill: none; stroke: #e6482f; stroke-width: 0.2"/>
    <path d="M 54.469431 24.117862 
L 54.872869 23.997386 
" clip-path="url(#p56f11153ed)" style="fill: none; stroke: #e6482f; stroke-width: 0.2"/>
    <path d="M 54.472793 22.910954 
L 54.466396 23.054372 
L 54.477959 23.085718 
L 54.57969 23.187424 
L 54.682528 23.281461 
L 54.728166 23.378811 
L 54.874673 23.860961 
L 54.884883 23.927579 
L 54.872869 23.997386 
" clip-path="url(#p56f11153ed)" style="fill: none; stroke: #e6482f; stroke-width: 0.2"/>
    <path d="M 51.959373 18.374822 
L 52.250829 18.600806 
L 52.743 19.01505 
L 53.168621 19.432606 
L 53.441379 19.742201 
L 53.677849 20.032472 
L 53.798278 20.222142 
L 54.030893 20.658162 
L 54.083132 20.769253 
L 54.352569 21.524682 
L 54.618193 22.389607 
L 54.721564 22.72613 
L 54.738048 22.777228 
L 55.349007 24.601177 
L 55.459553 24.947577 
L 55.663015 25.559097 
L 55.707545 25.677855 
L 55.823587 26.097436 
L 55.928598 26.900896 
L 56.012205 27.49702 
" clip-path="url(#p56f11153ed)" style="fill: none; stroke: #e6482f; stroke-width: 0.2"/>
    <path d="M 55.537625 22.926781 
L 56.411419 22.166383 
L 57.192299 21.502722 
" clip-path="url(#p56f11153ed)" style="fill: none; stroke: #e6482f; stroke-width: 0.2"/>
    <path d="M 52.706711 17.826729 
L 52.970121 18.138409 
L 53.332514 18.561731 
L 53.699827 18.984563 
L 54.05607 19.398316 
L 54.401405 19.811763 
L 54.75777 20.221099 
L 55.970955 21.650618 
L 56.411419 22.166383 
L 56.755648 22.561672 
L 57.146743 23.013089 
L 57.176348 23.048852 
L 57.557972 23.493582 
L 57.917618 23.914942 
L 58.253604 24.295448 
L 58.607756 24.707299 
L 58.963957 25.127984 
L 59.310277 25.524623 
L 59.629492 25.885744 
L 60.003982 26.294897 
" clip-path="url(#p56f11153ed)" style="fill: none; stroke: #e6482f; stroke-width: 0.2"/>
    <path d="M 57.722726 20.15258 
L 56.754007 20.981988 
L 55.970955 21.650618 
L 55.086171 22.410463 
L 54.993297 22.486221 
L 54.721564 22.72613 
" clip-path="url(#p56f11153ed)" style="fill: none; stroke: #e6482f; stroke-width: 0.2"/>
    <path d="M 60.697933 25.61682 
L 60.695185 25.592651 
L 60.683089 25.564618 
L 60.085497 24.845012 
L 59.750413 24.448926 
L 59.386831 24.038301 
L 59.038338 23.636632 
L 58.510207 23.021248 
L 58.239499 22.715211 
L 57.972071 22.406231 
L 57.928935 22.359243 
L 57.529392 21.897459 
L 57.449312 21.803728 
L 57.192299 21.502722 
L 56.754007 20.981988 
L 56.038652 20.141109 
L 55.999535 20.095164 
L 55.520034 19.534373 
L 55.169737 19.13571 
L 55.160675 19.125834 
L 54.987188 18.929539 
L 54.816611 18.735636 
L 54.731446 18.640372 
L 54.460574 18.32403 
L 54.091374 17.895432 
L 53.721272 17.469902 
L 53.498006 17.201652 
" clip-path="url(#p56f11153ed)" style="fill: none; stroke: #e6482f; stroke-width: 0.2"/>
    <path d="M 55.999535 20.095164 
L 55.839373 20.224657 
L 55.646572 20.392612 
" clip-path="url(#p56f11153ed)" style="fill: none; stroke: #e6482f; stroke-width: 0.2"/>
    <path d="M 55.839373 20.224657 
L 55.549885 19.870896 
" clip-path="url(#p56f11153ed)" style="fill: none; stroke: #e6482f; stroke-width: 0.2"/>
    <path d="M 56.038652 20.141109 
L 57.005321 19.315504 
L 58.238761 18.226374 
" clip-path="url(#p56f11153ed)" style="fill: none; stroke: #e6482f; stroke-width: 0.2"/>
    <path d="M 57.80047 17.534188 
L 56.474237 18.701898 
L 56.015772 19.092832 
L 55.520034 19.534373 
L 54.75777 20.221099 
L 54.458729 20.484441 
L 54.083132 20.769253 
" clip-path="url(#p56f11153ed)" style="fill: none; stroke: #e6482f; stroke-width: 0.2"/>
    <path d="M 55.169737 19.13571 
L 55.255518 19.054923 
L 55.338018 19.139575 
L 55.658587 18.852064 
L 55.831254 19.030754 
L 55.48108 19.350224 
" clip-path="url(#p56f11153ed)" style="fill: none; stroke: #e6482f; stroke-width: 0.2"/>
    <path d="M 56.015772 19.092832 
L 55.742604 18.716436 
" clip-path="url(#p56f11153ed)" style="fill: none; stroke: #e6482f; stroke-width: 0.2"/>
    <path d="M 55.255518 19.054923 
L 55.569608 18.674969 
" clip-path="url(#p56f11153ed)" style="fill: none; stroke: #e6482f; stroke-width: 0.2"/>
    <path d="M 54.987188 18.929539 
L 55.955004 18.10602 
" clip-path="url(#p56f11153ed)" style="fill: none; stroke: #e6482f; stroke-width: 0.2"/>
    <path d="M 54.731446 18.640372 
L 55.690242 17.791273 
" clip-path="url(#p56f11153ed)" style="fill: none; stroke: #e6482f; stroke-width: 0.2"/>
    <path d="M 58.387769 22.058604 
L 57.866896 21.442299 
" clip-path="url(#p56f11153ed)" style="fill: none; stroke: #e6482f; stroke-width: 0.2"/>
    <path d="M 57.972071 22.406231 
L 58.387769 22.058604 
L 58.956371 21.571241 
L 60.039696 20.62105 
L 60.052899 20.580626 
L 60.052899 20.513027 
" clip-path="url(#p56f11153ed)" style="fill: none; stroke: #e6482f; stroke-width: 0.2"/>
    <path d="M 59.611328 19.997813 
L 58.436195 20.973216 
L 57.866896 21.442299 
L 57.449312 21.803728 
" clip-path="url(#p56f11153ed)" style="fill: none; stroke: #e6482f; stroke-width: 0.2"/>
    <path d="M 61.296222 23.087927 
L 61.344647 23.031798 
L 61.383683 22.965303 
L 61.495296 22.705213 
L 61.518422 22.591361 
L 61.527197 22.382982 
L 61.50079 22.257108 
L 61.42358 22.04971 
L 61.331977 21.849121 
L 61.21651 21.714413 
L 60.052899 20.513027 
L 59.611328 19.997813 
L 59.522226 19.872491 
L 59.037723 19.288391 
L 59.024561 19.240728 
L 59.009184 19.196746 
L 58.902205 18.979472 
L 58.814908 18.876233 
L 58.291246 18.256983 
L 58.264593 18.234103 
L 58.238761 18.226374 
" clip-path="url(#p56f11153ed)" style="fill: none; stroke: #e6482f; stroke-width: 0.2"/>
    <path d="M 54.558778 16.40451 
L 54.617045 16.471619 
L 54.717423 16.609516 
L 55.43368 17.475422 
L 55.690242 17.791273 
L 55.955004 18.10602 
L 56.474237 18.701898 
L 57.005321 19.315504 
L 57.571708 19.970332 
L 57.605783 20.011431 
L 57.722726 20.15258 
L 57.863411 20.30569 
L 58.436195 20.973216 
L 58.956371 21.571241 
L 59.238479 21.863966 
L 59.473841 22.172394 
L 59.799085 22.541797 
L 60.016611 22.788761 
L 60.706174 23.591055 
L 61.411976 24.36458 
" clip-path="url(#p56f11153ed)" style="fill: none; stroke: #e6482f; stroke-width: 0.2"/>
    <path d="M 57.863411 20.30569 
L 59.037723 19.288391 
" clip-path="url(#p56f11153ed)" style="fill: none; stroke: #e6482f; stroke-width: 0.2"/>
    <path d="M 57.605783 20.011431 
L 58.226132 19.489839 
L 58.268243 19.539894 
" clip-path="url(#p56f11153ed)" style="fill: none; stroke: #e6482f; stroke-width: 0.2"/>
    <path d="M 57.571708 19.970332 
L 58.671599 19.03971 
L 58.814908 18.876233 
" clip-path="url(#p56f11153ed)" style="fill: none; stroke: #e6482f; stroke-width: 0.2"/>
    <path d="M 58.238761 18.226374 
L 58.058385 17.917945 
L 57.912082 17.704106 
L 57.907736 17.653008 
L 57.943778 17.406719 
" clip-path="url(#p56f11153ed)" style="fill: none; stroke: #e6482f; stroke-width: 0.2"/>
    <path d="M 58.423585 16.976281 
L 57.943778 17.406719 
L 57.80047 17.534188 
" clip-path="url(#p56f11153ed)" style="fill: none; stroke: #e6482f; stroke-width: 0.2"/>
   </g>
  </g>
 </g>
 <defs>
  <clipPath id="p56f11153ed">
   <rect x="7.2" y="7.2" width="837" height="28.854071"/>
  </clipPath>
 </defs>
</svg>
