<?xml version="1.0" encoding="utf-8" standalone="no"?>
<!DOCTYPE svg PUBLIC "-//W3C//DTD SVG 1.1//EN"
  "http://www.w3.org/Graphics/SVG/1.1/DTD/svg11.dtd">
<svg xmlns:xlink="http://www.w3.org/1999/xlink" width="526.488101pt" height="846pt" viewBox="0 0 526.488101 846" xmlns="http://www.w3.org/2000/svg" version="1.1">
 <metadata>
  <rdf:RDF xmlns:dc="http://purl.org/dc/elements/1.1/" xmlns:cc="http://creativecommons.org/ns#" xmlns:rdf="http://www.w3.org/1999/02/22-rdf-syntax-ns#">
   <cc:Work>
    <dc:type rdf:resource="http://purl.org/dc/dcmitype/StillImage"/>
    <dc:date>2025-03-16T14:38:39.415485</dc:date>
    <dc:format>image/svg+xml</dc:format>
    <dc:creator>
     <cc:Agent>
      <dc:title>Matplotlib v3.10.1, https://matplotlib.org/</dc:title>
     </cc:Agent>
    </dc:creator>
   </cc:Work>
  </rdf:RDF>
 </metadata>
 <defs>
  <style type="text/css">*{stroke-linejoin: round; stroke-linecap: butt}</style>
 </defs>
 <g id="figure_1">
  <g id="patch_1">
   <path d="M 0 846 
L 526.488101 846 
L 526.488101 0 
L 0 0 
z
" style="fill: #ffffff"/>
  </g>
  <g id="axes_1">
   <g id="PatchCollection_1">
    <path d="M 38.896042 801 
L 46.165966 799.186856 
L 122.212181 745.697165 
L 162.188983 712.465206 
L 199.778801 713.64433 
L 213.43391 726.73067 
L 246.999583 734.126289 
L 260.844093 729.954897 
L 261.9831 707.574742 
L 272.981391 684.054124 
L 307.688665 655.414948 
L 354.821232 679.121134 
L 396.497464 663.375 
L 407.197382 631.206186 
L 337.225005 618.916237 
L 291.239228 546.618557 
L 289.495692 429.282216 
L 292.982765 408.630155 
L 287.35 396.293814 
L 290.032763 383.957474 
L 334.018143 365.184278 
L 320.606922 345.340206 
L 321.411232 330.054124 
L 332.676761 277.759021 
L 340.185384 247.990979 
L 496.011369 179.609536 
L 482.600148 107.744845 
L 465.434616 83.609536 
L 418.769068 58.673969 
L 401.870774 45 
L 340.93002 69.765464 
L 256.653897 116.988402 
L 233.500147 155.880155 
L 185.342734 195.695876 
L 70.502831 220.697165 
L 52.558934 258.042526 
L 72.962463 265.395619 
L 96.463882 284.60567 
L 111.4474 309.351804 
L 119.210288 333.065722 
L 119.568336 360.893041 
L 117.593885 390.606959 
L 92.315199 401.435567 
L 120.450483 473.342784 
L 133.690463 479.168814 
L 137.971468 517.117268 
L 128.571419 551.551546 
L 113.209098 579.173969 
L 89.557194 603.80799 
L 86.669462 616.983247 
L 69.226313 621.630155 
L 75.67636 714.375 
L 65.194385 730.747423 
L 30.476732 760.140464 
L 38.896042 801 
" clip-path="url(#p3cfe6f92f8)" style="fill: #f29888"/>
   </g>
   <g id="LineCollection_1">
    <path d="M 146.205446 725.752018 
L 142.488577 724.449742 
L 136.995918 726.970361 
L 133.763111 729.943299 
L 119.66174 739.063144 
L 118.906726 742.627577 
L 51.658625 790.619845 
L 39.831059 800.766803 
" clip-path="url(#p3cfe6f92f8)" style="fill: none; stroke: #f29888; stroke-width: 0.2"/>
    <path d="M 119.66174 739.063144 
L 115.157604 679.847938 
L 103.6897 619.619845 
L 110.936273 613.673969 
L 142.877759 607.960052 
L 135.654536 557.764175 
" clip-path="url(#p3cfe6f92f8)" style="fill: none; stroke: #f29888; stroke-width: 0.2"/>
    <path d="M 229.727674 590.292526 
L 211.760426 596.984536 
L 189.247529 599.911082 
L 161.506617 608.60567 
L 150.285195 607.766753 
L 146.35186 607.646907 
L 142.877759 607.960052 
" clip-path="url(#p3cfe6f92f8)" style="fill: none; stroke: #f29888; stroke-width: 0.2"/>
    <path d="M 242.394259 567.583763 
L 229.727674 590.292526 
" clip-path="url(#p3cfe6f92f8)" style="fill: none; stroke: #f29888; stroke-width: 0.2"/>
    <path d="M 184.193349 541.407216 
L 176.269598 549.529639 
L 170.704291 555.78866 
L 165.668273 562.770619 
L 161.470293 575.385309 
L 158.06884 593.222938 
L 153.30006 601.136598 
L 150.285195 607.766753 
" clip-path="url(#p3cfe6f92f8)" style="fill: none; stroke: #f29888; stroke-width: 0.2"/>
    <path d="M 184.193349 541.407216 
L 207.020186 546.417526 
L 224.83695 545.304124 
L 246.994394 544.716495 
L 268.7886 547.488402 
L 287.887072 544.469072 
" clip-path="url(#p3cfe6f92f8)" style="fill: none; stroke: #f29888; stroke-width: 0.2"/>
    <path d="M 184.193349 541.407216 
L 173.246949 533.787371 
L 171.189472 530.385309 
L 167.95407 528.541237 
L 162.943997 525.375 
L 158.372403 519.889175 
L 154.906086 516.885309 
L 151.323014 515.528351 
L 149.543154 513.378866 
L 146.766987 504.201031 
L 142.58717 498.603093 
L 138.544863 509.095361 
L 137.393623 511.995032 
" clip-path="url(#p3cfe6f92f8)" style="fill: none; stroke: #f29888; stroke-width: 0.2"/>
    <path d="M 135.443178 526.378904 
L 135.540376 530.381443 
L 136.220148 540.514175 
L 135.750535 547.515464 
L 135.524809 552.552835 
L 135.654536 557.764175 
" clip-path="url(#p3cfe6f92f8)" style="fill: none; stroke: #f29888; stroke-width: 0.2"/>
    <path d="M 148.168044 469.252577 
L 145.993812 471.31701 
L 143.624989 472.871134 
L 141.909993 474.742268 
L 141.75432 478.639175 
L 144.250275 492.208763 
L 142.58717 498.603093 
" clip-path="url(#p3cfe6f92f8)" style="fill: none; stroke: #f29888; stroke-width: 0.2"/>
    <path d="M 247.056663 474.054124 
L 148.611711 473.965206 
L 148.168044 469.252577 
L 139.377713 375.780928 
L 145.096098 366.359536 
L 154.431284 358.256443 
" clip-path="url(#p3cfe6f92f8)" style="fill: none; stroke: #f29888; stroke-width: 0.2"/>
    <path d="M 152.760394 348.514175 
L 229.107577 347.570876 
L 259.100557 344.373711 
L 303.890246 339.595361 
L 316.842232 344.617268 
" clip-path="url(#p3cfe6f92f8)" style="fill: none; stroke: #f29888; stroke-width: 0.2"/>
    <path d="M 328.757401 367.429591 
L 324.913872 361.179124 
" clip-path="url(#p3cfe6f92f8)" style="fill: none; stroke: #f29888; stroke-width: 0.2"/>
    <path d="M 229.727674 590.292526 
L 272.283457 604.036082 
L 319.211055 656.219072 
L 346.487543 665.091495 
L 359.063319 664.10567 
L 398.578292 641.570876 
L 404.054376 640.655488 
" clip-path="url(#p3cfe6f92f8)" style="fill: none; stroke: #f29888; stroke-width: 0.2"/>
    <path d="M 242.394259 567.583763 
L 257.909659 577.619845 
L 263.24405 581.315722 
L 263.653989 584.597938 
L 265.706277 593.829897 
L 272.283457 604.036082 
" clip-path="url(#p3cfe6f92f8)" style="fill: none; stroke: #f29888; stroke-width: 0.2"/>
    <path d="M 263.24405 581.315722 
L 270.835699 576.595361 
L 282.326954 566.130155 
L 287.887072 544.469072 
L 291.148274 540.497541 
" clip-path="url(#p3cfe6f92f8)" style="fill: none; stroke: #f29888; stroke-width: 0.2"/>
    <path d="M 290.815455 518.099495 
L 289.918603 504.158505 
L 289.713634 464.764175 
L 288.481223 430.496134 
L 290.478052 423.464224 
" clip-path="url(#p3cfe6f92f8)" style="fill: none; stroke: #f29888; stroke-width: 0.2"/>
    <path d="M 292.494523 411.52175 
L 289.032401 399.978447 
" clip-path="url(#p3cfe6f92f8)" style="fill: none; stroke: #f29888; stroke-width: 0.2"/>
    <path d="M 287.592643 395.178051 
L 286.43153 391.306701 
L 275.350213 370.990979 
L 259.100557 344.373711 
" clip-path="url(#p3cfe6f92f8)" style="fill: none; stroke: #f29888; stroke-width: 0.2"/>
    <path d="M 242.394259 567.583763 
L 246.994394 544.716495 
L 247.056663 474.054124 
L 243.229704 444.548969 
L 229.107577 347.570876 
L 225.342887 307.878866 
L 233.417122 269.188144 
L 235.651028 242.899485 
" clip-path="url(#p3cfe6f92f8)" style="fill: none; stroke: #f29888; stroke-width: 0.2"/>
    <path d="M 324.913872 361.179124 
L 316.842232 344.617268 
L 317.065363 328.751289 
L 329.7553 277.623711 
L 332.251255 251.590206 
L 328.673373 247.476804 
L 293.460162 245.458763 
L 260.151349 244.252577 
L 235.651028 242.899485 
L 187.926904 240.266753 
L 147.192493 238.016753 
L 152.760394 348.514175 
L 154.431284 358.256443 
L 204.186939 441.765464 
L 211.215571 446.775773 
L 243.229704 444.548969 
" clip-path="url(#p3cfe6f92f8)" style="fill: none; stroke: #f29888; stroke-width: 0.2"/>
    <path d="M 187.926904 240.266753 
L 188.064415 263.28866 
L 233.417122 269.188144 
L 280.759847 272.474227 
L 302.053306 273.030928 
L 329.7553 277.623711 
" clip-path="url(#p3cfe6f92f8)" style="fill: none; stroke: #f29888; stroke-width: 0.2"/>
    <path d="M 328.673373 247.476804 
L 334.902884 245.195876 
L 353.677036 236.930412 
L 491.239995 176.358247 
" clip-path="url(#p3cfe6f92f8)" style="fill: none; stroke: #f29888; stroke-width: 0.2"/>
    <path d="M 353.677036 236.930412 
L 373.483819 197.64433 
L 444.436935 78.761598 
" clip-path="url(#p3cfe6f92f8)" style="fill: none; stroke: #f29888; stroke-width: 0.2"/>
    <path d="M 119.30858 340.704902 
L 124.718515 343.782216 
L 129.977664 346.271907 
L 135.594862 348.688144 
L 141.354759 350.443299 
L 145.37112 350.323454 
L 149.387481 349.569588 
L 152.760394 348.514175 
" clip-path="url(#p3cfe6f92f8)" style="fill: none; stroke: #f29888; stroke-width: 0.2"/>
    <path d="M 149.8526 203.422277 
L 159.913564 217.875 
L 187.926904 240.266753 
" clip-path="url(#p3cfe6f92f8)" style="fill: none; stroke: #f29888; stroke-width: 0.2"/>
    <path d="M 260.151349 244.252577 
L 262.413795 211.840206 
L 285.533816 169.867268 
L 329.895405 98.416237 
L 330.393559 94.380155 
L 331.641536 86.802835 
L 333.885821 81.67268 
L 336.620475 76.929124 
L 340.836616 73.701031 
L 346.75997 70.759021 
L 351.845285 70.132732 
L 358.751973 70.384021 
L 365.298019 73.391753 
L 377.640286 80.161082 
L 385.154098 83.427835 
" clip-path="url(#p3cfe6f92f8)" style="fill: none; stroke: #f29888; stroke-width: 0.2"/>
    <path d="M 293.460162 245.458763 
L 311.692053 210.738402 
L 374.324453 103.028351 
L 385.154098 83.427835 
L 402.488276 49.42268 
" clip-path="url(#p3cfe6f92f8)" style="fill: none; stroke: #f29888; stroke-width: 0.2"/>
    <path d="M 491.239995 176.358247 
L 495.146868 174.977063 
" clip-path="url(#p3cfe6f92f8)" style="fill: none; stroke: #f29888; stroke-width: 0.2"/>
    <path d="M 402.488276 49.42268 
L 413.538458 59.280928 
L 444.436935 78.761598 
L 462.559856 87.154639 
L 478.259469 108.819588 
L 486.499755 144.765464 
L 491.239995 176.358247 
" clip-path="url(#p3cfe6f92f8)" style="fill: none; stroke: #f29888; stroke-width: 0.2"/>
    <path d="M 402.488276 49.42268 
L 403.554635 47.713918 
" clip-path="url(#p3cfe6f92f8)" style="fill: none; stroke: #f29888; stroke-width: 0.2"/>
    <path d="M 403.554635 47.713918 
L 404.070857 46.780291 
" clip-path="url(#p3cfe6f92f8)" style="fill: none; stroke: #f29888; stroke-width: 0.2"/>
   </g>
   <g id="LineCollection_2">
    <path d="M 56.516547 249.805826 
L 64.602827 253.534794 
L 71.130711 257.029639 
L 76.420996 259.886598 
L 81.527067 263.389175 
L 86.739515 267.568299 
L 93.37637 273.367268 
L 98.111421 278.292526 
L 103.274572 284.141753 
L 107.399904 289.693299 
L 111.64718 296.733247 
L 115.819214 304.523196 
L 119.194721 313.51933 
L 121.143227 320.365979 
L 122.746658 327.448454 
L 124.417547 335.539948 
L 124.718515 343.782216 
L 124.783379 352.229381 
L 124.412358 361.565722 
L 121.197713 390.541237 
L 120.689181 397.886598 
L 120.655452 401.988402 
L 120.987554 407.972938 
L 121.794459 415.546392 
L 123.379728 423.765464 
L 125.076562 430.755155 
L 129.183733 443.802835 
L 135.410649 462.591495 
L 137.569313 469.271907 
L 138.926262 474.630155 
L 140.386993 482.354381 
L 141.847724 491.539948 
L 142.309553 494.543814 
L 142.58717 498.603093 
L 142.963379 511.295103 
L 146.35186 607.646907 
L 147.534974 626.072165 
L 150.023146 702.069588 
L 151.209904 721.591907 
" clip-path="url(#p3cfe6f92f8)" style="fill: none; stroke-dasharray: 3.7,1.6; stroke-dashoffset: 0; stroke: #f29888"/>
   </g>
  </g>
 </g>
 <defs>
  <clipPath id="p3cfe6f92f8">
   <rect x="7.2" y="7.2" width="512.088101" height="831.6"/>
  </clipPath>
 </defs>
</svg>
