<?xml version="1.0" encoding="utf-8" standalone="no"?>
<!DOCTYPE svg PUBLIC "-//W3C//DTD SVG 1.1//EN"
  "http://www.w3.org/Graphics/SVG/1.1/DTD/svg11.dtd">
<svg xmlns:xlink="http://www.w3.org/1999/xlink" width="773.216606pt" height="846pt" viewBox="0 0 773.216606 846" xmlns="http://www.w3.org/2000/svg" version="1.1">
 <metadata>
  <rdf:RDF xmlns:dc="http://purl.org/dc/elements/1.1/" xmlns:cc="http://creativecommons.org/ns#" xmlns:rdf="http://www.w3.org/1999/02/22-rdf-syntax-ns#">
   <cc:Work>
    <dc:type rdf:resource="http://purl.org/dc/dcmitype/StillImage"/>
    <dc:date>2025-03-16T14:37:54.810788</dc:date>
    <dc:format>image/svg+xml</dc:format>
    <dc:creator>
     <cc:Agent>
      <dc:title>Matplotlib v3.10.1, https://matplotlib.org/</dc:title>
     </cc:Agent>
    </dc:creator>
   </cc:Work>
  </rdf:RDF>
 </metadata>
 <defs>
  <style type="text/css">*{stroke-linejoin: round; stroke-linecap: butt}</style>
 </defs>
 <g id="figure_1">
  <g id="patch_1">
   <path d="M 0 846 
L 773.216606 846 
L 773.216606 0 
L 0 0 
z
" style="fill: #ffffff"/>
  </g>
  <g id="axes_1">
   <g id="PatchCollection_1">
    <path d="M 684.209214 730.030876 
L 686.33717 623.294821 
L 731.524942 613.694223 
L 729.271812 565.126494 
L 697.102124 558.726096 
L 690.593082 487.568725 
L 574.556891 494.157371 
L 527.366336 381.020916 
L 600.342711 351.842629 
L 576.810021 280.873506 
L 671.316304 235.505976 
L 645.530483 132.158367 
L 477.922652 157.948207 
L 460.77383 232.305777 
L 445.62779 242.094622 
L 411.330145 242.094622 
L 409.202189 235.505976 
L 293.165998 242.094622 
L 278.145132 187.126494 
L 272.181848 132.433207 
L 262.999092 48.200199 
L 187.894761 45 
L 175.001851 138.558765 
L 99.772346 132.158367 
L 78.242438 222.705179 
L 177.129807 248.49502 
L 170.620765 297.062749 
L 41.691664 332.453187 
L 63.221572 403.610558 
L 94.94439 399.934094 
L 202.915627 387.421315 
L 301.677822 442.389442 
L 265.252222 506.958167 
L 361.886461 555.525896 
L 327.463642 620.094622 
L 252.359312 620.094622 
L 252.359312 688.051793 
L 327.463642 730.030876 
L 327.463642 788.199203 
L 419.841969 801 
L 430.606923 752.620518 
L 462.901786 752.620518 
L 462.901786 801 
L 516.601382 801 
L 497.19943 662.073705 
L 462.901786 633.083665 
L 465.029742 594.304781 
L 452.136832 558.726096 
L 514.473426 542.536853 
L 527.366336 558.726096 
L 535.87816 594.304781 
L 525.23838 645.884462 
L 673.44426 784.999004 
L 684.209214 765.609562 
L 684.209214 752.620518 
L 671.316304 742.831673 
L 684.209214 730.030876 
" clip-path="url(#p3cf31ffcf2)" style="fill: #f29888"/>
   </g>
   <g id="PatchCollection_2">
    <path d="M 627.651897 651.85001 
L 639.066504 649.566574 
L 639.537158 651.582699 
L 628.053706 653.932022 
L 627.651897 651.85001 
" clip-path="url(#p3cf31ffcf2)" style="fill: #f29888"/>
    <path d="M 648.265533 643.723386 
L 645.982361 644.463197 
L 645.379023 642.381185 
L 647.728537 641.709143 
L 646.117549 636.268805 
L 648.265533 635.798187 
L 651.69029 647.416793 
L 649.676242 648.022948 
L 648.265533 643.723386 
" clip-path="url(#p3cf31ffcf2)" style="fill: #f29888"/>
    <path d="M 656.122697 633.313327 
L 658.069151 632.77494 
L 659.412267 637.746544 
L 661.158443 637.142271 
L 661.829375 639.156514 
L 660.218387 639.693018 
L 661.359973 644.463197 
L 659.479861 645.06747 
L 656.122697 633.313327 
" clip-path="url(#p3cf31ffcf2)" style="fill: #f29888"/>
    <path d="M 643.766783 626.511962 
L 645.277632 626.109114 
L 646.520609 630.911295 
L 645.00976 631.415797 
L 643.766783 626.511962 
" clip-path="url(#p3cf31ffcf2)" style="fill: #f29888"/>
    <path d="M 646.720887 608.479781 
L 649.474712 607.606315 
L 651.28723 613.180309 
L 648.40072 613.986006 
L 646.720887 608.479781 
" clip-path="url(#p3cf31ffcf2)" style="fill: #f29888"/>
    <path d="M 591.802097 227.381235 
L 596.1957 223.524054 
L 597.172056 224.636594 
L 592.779705 228.493775 
L 591.802097 227.381235 
" clip-path="url(#p3cf31ffcf2)" style="fill: #f29888"/>
    <path d="M 598.193475 223.053436 
L 601.34285 220.325737 
L 601.04744 219.983127 
L 602.358011 218.84988 
L 603.946467 220.683406 
L 599.486522 224.544353 
L 598.193475 223.053436 
" clip-path="url(#p3cf31ffcf2)" style="fill: #f29888"/>
    <path d="M 589.074558 213.942281 
L 591.197507 211.901683 
L 595.937842 216.828108 
L 593.816145 218.868705 
L 589.074558 213.942281 
" clip-path="url(#p3cf31ffcf2)" style="fill: #f29888"/>
    <path d="M 603.644798 212.027809 
L 606.976927 209.11751 
L 611.518235 214.311245 
L 608.186107 217.223426 
L 603.644798 212.027809 
" clip-path="url(#p3cf31ffcf2)" style="fill: #f29888"/>
    <path d="M 611.026302 211.003745 
L 612.549668 209.541066 
L 614.34341 211.408476 
L 612.818792 212.871155 
L 611.026302 211.003745 
" clip-path="url(#p3cf31ffcf2)" style="fill: #f29888"/>
    <path d="M 475.556865 440.964412 
L 478.780093 441.339024 
L 479.071748 438.833456 
L 484.402904 439.456554 
L 484.092473 442.112719 
L 482.781902 441.958357 
L 481.795532 450.41253 
L 474.457839 449.556006 
L 474.744487 447.093735 
L 479.927937 447.69989 
L 480.357284 444.017779 
L 475.270217 443.422918 
L 475.556865 440.964412 
" clip-path="url(#p3cf31ffcf2)" style="fill: #f29888"/>
    <path d="M 490.692892 431.328048 
L 494.315424 433.826086 
L 494.898734 432.980857 
L 496.221822 433.891972 
L 493.52808 437.79998 
L 492.330166 436.975458 
L 492.813337 436.275179 
L 490.333642 434.565896 
L 490.088302 434.921683 
L 488.819038 434.046335 
L 490.692892 431.328048 
" clip-path="url(#p3cf31ffcf2)" style="fill: #f29888"/>
    <path d="M 485.783572 432.092331 
L 487.19303 430.145857 
L 486.186632 429.340159 
L 487.328218 427.660996 
L 488.402209 428.333038 
L 490.013197 426.115488 
L 491.759373 427.258147 
L 487.328218 433.368645 
L 485.783572 432.092331 
" clip-path="url(#p3cf31ffcf2)" style="fill: #f29888"/>
    <path d="M 529.430454 301.627739 
L 531.847561 301.360428 
L 532.652429 309.618825 
L 530.101386 309.886135 
L 529.430454 301.627739 
" clip-path="url(#p3cf31ffcf2)" style="fill: #f29888"/>
    <path d="M 535.607785 299.210647 
L 538.158829 299.009223 
L 538.897354 306.731116 
L 536.413905 307.000309 
L 535.607785 299.210647 
" clip-path="url(#p3cf31ffcf2)" style="fill: #f29888"/>
    <path d="M 452.814022 274.367689 
L 465.283845 273.243855 
L 465.470354 275.310807 
L 453.000531 276.434641 
L 452.814022 274.367689 
" clip-path="url(#p3cf31ffcf2)" style="fill: #f29888"/>
    <path d="M 505.793869 271.549631 
L 512.709726 268.998884 
L 513.649782 271.818825 
L 506.867861 274.437341 
L 505.793869 271.549631 
" clip-path="url(#p3cf31ffcf2)" style="fill: #f29888"/>
    <path d="M 452.275775 263.223466 
L 464.430159 261.949034 
L 464.631689 263.895508 
L 452.612492 265.305478 
L 452.275775 263.223466 
" clip-path="url(#p3cf31ffcf2)" style="fill: #f29888"/>
    <path d="M 526.234764 257.306863 
L 525.602636 255.369801 
L 529.630732 254.227141 
L 530.638382 257.384044 
L 526.676628 258.658476 
L 526.234764 257.306863 
" clip-path="url(#p3cf31ffcf2)" style="fill: #f29888"/>
    <path d="M 451.507207 254.178197 
L 462.068128 252.977181 
L 462.293441 254.95754 
L 451.73252 256.158556 
L 451.507207 254.178197 
" clip-path="url(#p3cf31ffcf2)" style="fill: #f29888"/>
    <path d="M 448.883562 246.938217 
L 453.811658 246.439363 
L 453.737806 245.705199 
L 455.25992 245.550837 
L 455.183564 244.799731 
L 456.362702 244.681135 
L 456.634329 247.376833 
L 449.006233 248.146763 
L 448.883562 246.938217 
" clip-path="url(#p3cf31ffcf2)" style="fill: #f29888"/>
    <path d="M 492.40527 230.054343 
L 501.133645 229.600667 
L 501.268833 232.522261 
L 492.471612 232.942052 
L 492.40527 230.054343 
" clip-path="url(#p3cf31ffcf2)" style="fill: #f29888"/>
    <path d="M 584.942568 191.275458 
L 594.797508 182.717749 
L 596.881653 185.116016 
L 587.026713 193.673725 
L 584.942568 191.275458 
" clip-path="url(#p3cf31ffcf2)" style="fill: #f29888"/>
    <path d="M 578.824068 184.447739 
L 590.570386 174.318167 
L 592.659538 176.737141 
L 580.911969 186.868596 
L 578.824068 184.447739 
" clip-path="url(#p3cf31ffcf2)" style="fill: #f29888"/>
    <path d="M 560.249516 174.850906 
L 562.187207 173.132211 
L 571.581508 183.715458 
L 569.643816 185.434153 
L 560.249516 174.850906 
" clip-path="url(#p3cf31ffcf2)" style="fill: #f29888"/>
    <path d="M 573.307655 178.207351 
L 582.683179 170.065667 
L 584.746045 172.439462 
L 575.370521 180.581145 
L 573.307655 178.207351 
" clip-path="url(#p3cf31ffcf2)" style="fill: #f29888"/>
    <path d="M 612.043966 206.60253 
L 615.282214 203.673406 
L 618.730755 207.485408 
L 615.492506 210.414532 
L 612.043966 206.60253 
" clip-path="url(#p3cf31ffcf2)" style="fill: #f29888"/>
    <path d="M 609.764549 190.846255 
L 622.06789 179.954283 
L 624.165805 182.32243 
L 611.862464 193.216285 
L 609.764549 190.846255 
" clip-path="url(#p3cf31ffcf2)" style="fill: #f29888"/>
    <path d="M 599.019623 178.583845 
L 602.305437 175.788376 
L 601.329081 174.641952 
L 602.307941 173.808018 
L 603.27929 174.950677 
L 608.48402 170.523108 
L 610.54939 172.951494 
L 601.078733 181.002819 
L 599.019623 178.583845 
" clip-path="url(#p3cf31ffcf2)" style="fill: #f29888"/>
    <path d="M 592.705852 171.496345 
L 595.949108 168.693347 
L 595.283183 167.921534 
L 596.457314 166.908765 
L 597.344796 167.934711 
L 602.481933 163.495847 
L 604.568581 165.911056 
L 595.014059 174.16757 
L 592.705852 171.496345 
" clip-path="url(#p3cf31ffcf2)" style="fill: #f29888"/>
    <path d="M 588.124488 166.110598 
L 598.886939 156.526942 
L 600.783323 158.656016 
L 590.020872 168.239671 
L 588.124488 166.110598 
" clip-path="url(#p3cf31ffcf2)" style="fill: #f29888"/>
   </g>
   <g id="LineCollection_1">
    <path d="M 327.463642 753.178468 
L 328.950708 754.580169 
L 330.783254 756.157679 
L 332.513157 757.737072 
L 333.784924 759.060448 
L 334.752518 760.180518 
L 335.922894 760.942918 
L 340.094939 762.471484 
L 343.149182 763.845687 
L 345.294662 764.939402 
L 346.23597 765.246245 
L 347.763091 765.703685 
L 348.857111 765.831693 
L 350.180199 765.780867 
L 351.451966 765.805339 
L 352.494664 766.035 
L 353.309546 766.543267 
L 353.691327 767.077888 
L 354.073107 767.815817 
L 354.632634 768.88506 
L 355.52262 770.15761 
L 356.490215 770.948247 
L 357.177419 771.379333 
L 358.016084 771.838655 
L 359.136391 772.397749 
L 359.772274 772.881544 
L 360.535835 773.568645 
L 361.196753 774.56259 
L 362.011635 775.859612 
L 362.723874 776.928855 
L 363.461148 777.693137 
L 364.27603 778.583546 
L 365.471441 779.372301 
L 367.12624 780.366245 
L 368.372971 781.205827 
L 369.644738 782.096235 
L 370.713723 782.681683 
L 372.036811 783.293486 
L 373.818035 784.15754 
L 374.860734 784.515209 
L 375.828328 784.769343 
L 378.499539 785.584452 
L 380.128051 786.092719 
L 381.044324 786.499333 
L 382.239734 787.060309 
L 383.385075 787.619402 
L 384.580486 788.078725 
L 385.750862 788.255677 
L 386.997594 788.332859 
L 388.753783 788.231205 
L 392.112199 787.89989 
L 394.402881 787.74741 
L 396.106497 787.670229 
L 397.557263 787.59493 
L 398.931672 787.544104 
L 400.610254 787.186434 
L 402.417765 786.651813 
L 403.511784 785.991066 
L 404.73223 785.151484 
L 406.335707 784.183894 
L 406.895234 783.801753 
L 407.663802 783.05253 
L 408.150729 781.811982 
L 408.417349 780.349303 
L 408.859213 779.240528 
L 409.258517 778.310588 
L 409.480075 777.201813 
L 409.436264 775.562181 
L 409.08077 772.01749 
L 408.46116 768.117012 
L 407.929171 764.128058 
L 407.220687 760.892092 
L 406.955318 758.898556 
L 406.512202 757.125269 
L 406.024024 755.9299 
L 405.31554 754.467221 
L 404.474372 753.446922 
L 404.186472 753.004542 
L 403.893565 752.20261 
" clip-path="url(#p3cf31ffcf2)" style="fill: none; stroke: #f29888; stroke-width: 0.2"/>
    <path d="M 381.190777 684.362151 
L 381.61011 685.019133 
L 382.384936 685.751414 
L 383.027078 685.994253 
L 383.758094 686.216384 
L 388.144187 686.991962 
L 393.371448 687.679064 
L 397.092868 687.790129 
L 398.687583 687.856016 
L 400.238487 687.989671 
L 401.080908 688.121444 
L 401.878265 688.298396 
L 402.476596 688.565707 
L 403.118738 688.919612 
L 403.516791 689.252809 
L 403.871033 689.783665 
L 403.959907 690.359701 
L 403.937376 691.157869 
L 403.007334 693.128815 
L 402.476596 694.260179 
L 402.321381 695.035757 
L 402.099823 695.566614 
L 401.988418 696.829751 
L 401.922076 698.623745 
L 401.922076 701.970777 
L 401.855734 705.005319 
L 401.922076 705.980438 
L 402.033481 706.801195 
L 402.476596 707.776315 
L 404.380491 710.434363 
L 405.421938 712.18506 
L 406.684942 714.622859 
L 407.592453 716.416853 
L 408.035569 717.414562 
L 408.6339 719.829771 
L 409.099547 721.78001 
L 409.364915 722.487819 
L 409.762968 722.909492 
L 409.874373 723.285986 
L 409.696626 723.574004 
L 409.187168 723.862022 
L 408.877989 724.394761 
L 408.478684 725.302112 
L 406.397042 731.152829 
L 405.865053 733.391086 
L 404.668391 737.888307 
L 403.871033 741.301225 
L 403.583133 742.696135 
L 403.495512 743.870797 
L 403.406638 745.467131 
L 403.47298 746.884631 
L 403.893565 752.20261 
" clip-path="url(#p3cf31ffcf2)" style="fill: none; stroke: #f29888; stroke-width: 0.2"/>
    <path d="M 360.694805 671.248865 
L 360.28048 672.387759 
L 359.624569 674.008566 
L 358.929854 675.608665 
L 357.986043 677.287829 
L 357.020952 678.908635 
L 355.883121 680.585916 
L 355.343622 681.416086 
L 355.132078 682.225548 
L 354.322203 687.876723 
L 353.80148 689.941793 
L 353.087988 692.449243 
L 352.547237 694.454074 
L 351.583398 698.717869 
L 351.195359 700.481743 
L 350.695915 702.748237 
L 350.31038 704.619412 
L 350.060032 705.971026 
L 349.867264 707.533476 
L 349.906068 709.306763 
L 350.021228 710.946394 
L 350.19522 713.474552 
L 350.175192 714.302839 
L 350.117612 715.402201 
L 350.060032 716.695458 
L 350.002452 718.065896 
L 350.078808 719.24244 
L 350.330408 719.993546 
L 350.658363 720.629821 
L 351.564622 722.019084 
L 352.721229 723.735896 
L 353.820256 725.665428 
L 354.572551 727.073516 
L 355.05447 728.268884 
L 355.53639 729.330598 
L 355.845569 730.256773 
L 355.960729 730.970229 
L 356.057113 734.769054 
L 356.192301 741.867849 
L 356.192301 745.822918 
L 356.075889 749.392082 
L 356.075889 752.806882 
L 355.729157 756.296982 
L 355.208434 759.171514 
L 355.035694 760.368765 
L 354.611355 763.395777 
" clip-path="url(#p3cf31ffcf2)" style="fill: none; stroke: #f29888; stroke-width: 0.2"/>
    <path d="M 377.188968 695.901693 
L 376.53556 694.907749 
L 375.898425 694.369363 
L 374.808161 693.825329 
L 374.191054 693.691673 
L 373.438759 693.652141 
L 372.608856 693.670966 
L 371.626241 693.923217 
L 369.311776 694.751504 
L 363.333471 697.626036 
L 357.491606 699.941474 
L 355.640284 700.461036 
L 354.213302 700.558924 
L 351.195359 700.481743 
" clip-path="url(#p3cf31ffcf2)" style="fill: none; stroke: #f29888; stroke-width: 0.2"/>
    <path d="M 385.156286 640.159871 
L 384.133615 640.643665 
L 383.38132 641.308177 
L 382.362405 643.124761 
L 379.349469 649.683287 
L 376.558092 654.779133 
L 375.893418 656.064861 
L 374.963376 657.439064 
L 373.63403 658.856564 
L 370.400788 662.090647 
L 366.768242 665.546863 
L 362.603707 669.889721 
L 360.694805 671.248865 
L 353.698837 676.227998 
L 347.45266 680.303546 
L 343.907736 682.430737 
L 341.515663 683.36256 
L 338.458917 684.78006 
L 326.4973 691.293406 
L 323.794796 692.978217 
" clip-path="url(#p3cf31ffcf2)" style="fill: none; stroke: #f29888; stroke-width: 0.2"/>
    <path d="M 328.040694 650.338386 
L 330.585479 652.075906 
L 337.180891 655.547181 
L 346.896888 661.443078 
L 347.670463 661.911813 
L 355.500089 667.003894 
L 360.694805 671.248865 
" clip-path="url(#p3cf31ffcf2)" style="fill: none; stroke: #f29888; stroke-width: 0.2"/>
    <path d="M 346.896888 661.443078 
L 351.057668 655.838964 
L 353.676306 651.910249 
L 356.496473 648.651693 
L 357.504123 647.477032 
L 362.002872 641.532191 
" clip-path="url(#p3cf31ffcf2)" style="fill: none; stroke: #f29888; stroke-width: 0.2"/>
    <path d="M 393.332644 588.719492 
L 394.187582 590.037221 
L 395.117624 591.543197 
L 395.960044 593.226125 
L 397.089112 595.375906 
L 398.352117 597.968068 
L 399.393564 599.784651 
L 400.234732 601.46758 
L 401.58661 603.129801 
L 404.531952 606.719671 
L 406.547251 609.776803 
L 409.64906 614.607221 
L 412.262691 618.771245 
L 413.747253 621.76249 
L 415.054068 625.218705 
L 415.740021 626.681384 
L 416.37966 628.379373 
L 416.939187 630.314552 
L 417.244611 631.485448 
L 417.600105 633.062958 
L 417.727782 634.461633 
L 417.829173 635.429223 
L 418.15087 636.214213 
L 418.767977 637.563944 
L 420.040996 639.531125 
L 421.621942 642.27012 
L 422.007478 643.273476 
L 422.123889 644.391663 
L 422.085085 645.820458 
L 421.81471 647.093008 
L 421.777158 648.51992 
L 421.69955 651.104552 
L 421.69955 653.574353 
L 421.506782 655.502002 
L 421.16005 656.928914 
L 420.542943 658.47254 
L 420.0798 659.436365 
L 419.577852 660.053815 
L 419.423889 660.710797 
L 419.347533 662.677978 
L 419.501496 663.99006 
L 420.157408 665.300259 
L 421.236406 666.766703 
L 422.085085 667.498984 
L 422.702193 668.310329 
L 423.550872 669.351335 
L 424.129175 670.160797 
L 424.707478 671.935966 
L 425.055462 673.016504 
L 425.055462 674.637311 
L 424.206783 680.237659 
L 424.105392 681.128068 
L 423.977714 682.221783 
L 424.105392 682.959711 
L 424.512207 683.595986 
L 425.224446 684.079781 
L 425.911651 684.43745 
L 426.344753 685.022898 
L 426.547534 685.632819 
L 426.726533 686.726534 
L 426.776603 687.43999 
L 426.955601 688.381225 
L 426.955601 689.0175 
L 427.28606 689.806255 
L 427.744197 690.698546 
L 427.921944 691.308466 
L 427.946978 692.505717 
" clip-path="url(#p3cf31ffcf2)" style="fill: none; stroke: #f29888; stroke-width: 0.2"/>
    <path d="M 274.841793 644.352131 
L 276.415229 642.85745 
L 278.060014 641.748675 
L 279.872532 640.707669 
L 282.726496 639.162161 
L 284.169751 638.32258 
L 285.143604 637.686305 
L 285.815788 637.281574 
L 286.386581 636.846723 
L 287.125106 636.208566 
L 288.155288 635.141205 
L 288.926359 634.100199 
L 289.793814 632.846474 
L 290.333313 632.074661 
L 290.854036 631.398855 
L 291.43234 630.898118 
L 292.145831 630.376673 
L 293.168502 629.721574 
L 293.900769 629.392141 
L 295.116207 628.949761 
L 296.48561 628.486673 
L 299.628726 627.541673 
L 301.267252 627.174592 
L 302.347503 626.98258 
L 303.696877 626.732211 
L 304.795904 626.423486 
L 305.89493 626.075229 
L 307.091593 625.612141 
L 308.287003 625.130229 
L 309.096878 624.629492 
L 310.138325 623.934861 
L 310.985752 623.240229 
L 311.795627 622.487241 
L 312.62553 621.677779 
L 313.300217 620.905966 
L 313.608145 620.501235 
L 313.858243 620.094622 
" clip-path="url(#p3cf31ffcf2)" style="fill: none; stroke: #f29888; stroke-width: 0.2"/>
    <path d="M 335.767658 604.518335 
L 336.20829 604.261165 
L 336.999389 603.991972 
L 337.790488 603.83761 
L 338.831935 603.683247 
L 339.718166 603.683247 
L 340.181309 603.606066 
L 341.165176 603.257809 
L 343.246818 602.485996 
L 344.808988 601.830896 
L 346.891881 600.963078 
L 347.759336 600.577171 
L 348.415247 600.191265 
L 349.109962 599.709353 
L 349.84223 599.014721 
L 350.362953 598.340797 
L 351.963927 595.658277 
L 352.464622 594.82999 
L 353.02415 594.058177 
L 353.872829 593.440727 
L 354.431104 593.054821 
L 354.894248 592.591733 
L 355.203427 592.207709 
L 355.588963 591.821803 
L 356.167266 591.338008 
L 357.034721 590.914452 
L 357.94098 590.682908 
L 358.963651 590.586902 
L 359.638338 590.72244 
L 360.679785 591.164821 
L 361.566016 591.878277 
L 362.703846 593.054821 
L 363.494945 593.807809 
L 364.112052 594.308546 
L 364.960731 595.042709 
L 365.674223 595.505797 
L 366.792025 596.025359 
L 368.142652 596.507271 
L 369.356838 596.932709 
L 370.455865 597.105896 
L 372.056839 597.33744 
L 373.965741 597.37509 
L 378.960179 597.568984 
L 381.158232 597.723347 
L 381.756563 597.704522 
L 382.527634 597.568984 
L 383.337509 597.356265 
L 384.16616 596.893177 
L 384.879652 596.296434 
L 385.397872 595.257311 
" clip-path="url(#p3cf31ffcf2)" style="fill: none; stroke: #f29888; stroke-width: 0.2"/>
    <path d="M 403.280213 519.868147 
L 404.066305 522.108287 
L 404.951284 524.723038 
L 405.882578 527.29261 
L 406.502188 529.109193 
L 406.81262 530.748825 
L 406.901493 532.653884 
L 407.166862 534.781076 
L 407.077988 536.198576 
L 406.723746 538.237291 
L 406.191757 543.154303 
L 405.3944 545.680578 
L 404.021242 548.782888 
L 401.585358 554.144163 
L 400.078265 558.353367 
L 397.996623 562.916474 
L 396.623465 566.32751 
L 395.294119 569.695249 
L 394.18633 572.398476 
L 393.256288 574.70262 
L 392.945857 576.385548 
L 392.724299 579.354203 
L 392.591615 582.944074 
L 392.637929 584.785129 
L 393.216232 586.906673 
L 393.409 587.640837 
L 393.332644 588.719492 
L 393.255036 589.530837 
L 393.101072 590.765737 
L 392.985912 591.806743 
L 393.023465 593.116942 
L 393.062268 594.159831 
L 392.791893 595.008825 
L 392.522769 596.127012 
L 391.828054 597.284731 
L 390.903019 598.788825 
L 390.285912 600.253386 
L 389.822768 600.98755 
L 389.322073 602.800369 
L 389.322073 603.609831 
L 389.128053 604.999094 
L 388.087858 610.669094 
L 387.547107 613.871175 
L 387.315535 616.570637 
L 387.277983 618.153795 
L 387.315535 619.463994 
L 387.585911 621.045269 
L 388.01025 622.935269 
L 388.203018 624.441245 
L 388.203018 625.442719 
L 388.12541 626.871514 
L 387.277983 631.732052 
L 386.312893 635.781245 
L 385.541821 638.674602 
L 385.156286 640.159871 
L 385.13751 640.468596 
L 385.156286 641.027689 
L 385.638205 646.217659 
L 386.312893 654.086384 
L 386.468108 655.590478 
L 386.429304 656.401823 
L 386.429304 658.425478 
L 386.351697 662.361723 
L 386.216509 665.119542 
L 386.101349 666.894711 
L 385.484241 671.060618 
L 385.156286 672.623068 
L 385.156286 673.106863 
L 385.28897 673.771375 
L 385.57687 674.481066 
L 385.843491 675.411006 
L 385.887301 676.098108 
L 385.798428 676.741912 
L 385.466717 677.118406 
L 385.067412 677.317948 
L 384.802044 677.317948 
L 384.270055 677.250179 
L 383.982155 677.161703 
L 383.650444 677.206882 
L 383.074644 677.626673 
L 382.874366 678.202709 
L 381.855451 681.393496 
L 381.190777 684.362151 
L 380.991751 687.509641 
L 380.902877 688.496056 
L 380.648774 689.233984 
L 380.140568 690.124392 
L 379.682432 691.193635 
L 379.020262 692.262878 
L 378.384379 693.077988 
L 377.798565 694.019223 
L 377.366715 694.885159 
L 377.188968 695.901693 
L 376.399121 699.796524 
L 376.017341 701.018247 
L 375.636812 702.010309 
L 375.152389 703.282859 
L 374.745574 704.557291 
L 374.542792 705.447699 
L 374.338759 706.771076 
L 374.363794 708.52742 
L 374.516506 710.613197 
" clip-path="url(#p3cf31ffcf2)" style="fill: none; stroke: #f29888; stroke-width: 0.2"/>
    <path d="M 400.397714 798.305624 
L 402.451562 794.612779 
L 406.166722 787.943187 
L 406.777571 786.060717 
L 407.663802 783.05253 
" clip-path="url(#p3cf31ffcf2)" style="fill: none; stroke: #f29888; stroke-width: 0.2"/>
    <path d="M 297.821448 713.462562 
L 302.274902 709.63243 
L 308.0329 704.719183 
L 311.422609 701.678994 
L 314.287839 699.310847 
L 317.502305 697.059412 
L 321.623029 694.399482 
L 323.794796 692.978217 
" clip-path="url(#p3cf31ffcf2)" style="fill: none; stroke: #f29888; stroke-width: 0.2"/>
    <path d="M 310.143332 513.057371 
L 305.827337 520.15993 
L 303.109812 524.476434 
L 302.283209 525.569696 
" clip-path="url(#p3cf31ffcf2)" style="fill: none; stroke: #f29888; stroke-width: 0.2"/>
    <path d="M 252.359312 648.492543 
L 254.146795 648.448386 
L 256.537616 648.371205 
L 258.388938 648.139661 
L 261.55083 647.484562 
L 264.404795 646.712749 
L 267.065991 646.018118 
L 269.302849 645.400667 
L 271.154171 645.014761 
L 272.581153 644.707918 
L 274.586438 644.359661 
L 274.841793 644.352131 
L 277.093671 644.28248 
L 281.60619 644.167649 
L 289.395761 643.858924 
L 293.214816 643.587849 
L 296.222744 643.356305 
L 299.925388 643.201942 
L 303.434012 643.164293 
L 307.021495 643.395837 
L 310.724139 643.704562 
L 313.153764 643.896574 
L 317.125531 644.89993 
L 320.365032 645.980468 
L 323.14264 646.906643 
L 324.838746 647.599392 
L 326.304532 648.796643 
L 328.040694 650.338386 
" clip-path="url(#p3cf31ffcf2)" style="fill: none; stroke: #f29888; stroke-width: 0.2"/>
    <path d="M 351.857529 405.717042 
L 344.916637 410.251912 
L 340.877276 413.487878 
L 335.081725 416.068745 
L 323.963781 425.955478 
L 314.618298 434.315528 
L 303.212454 443.225259 
L 299.978997 445.400813 
" clip-path="url(#p3cf31ffcf2)" style="fill: none; stroke: #f29888; stroke-width: 0.2"/>
    <path d="M 389.322073 602.800369 
L 391.217205 602.41258 
L 392.5453 602.324104 
L 393.741963 602.324104 
L 396.709835 602.723187 
L 401.58661 603.129801 
" clip-path="url(#p3cf31ffcf2)" style="fill: none; stroke: #f29888; stroke-width: 0.2"/>
    <path d="M 392.724299 579.354203 
L 392.149751 581.311972 
L 391.447525 582.716295 
L 391.18466 583.885309 
L 391.15587 585.287749 
L 391.15587 586.692072 
L 391.097038 587.655896 
L 390.628888 588.766554 
L 389.899124 590.140757 
L 389.255731 591.193058 
L 388.642379 591.923456 
L 388.057817 592.595498 
L 387.414423 593.034114 
L 386.683407 593.444492 
L 385.952392 594.263367 
L 385.397872 595.257311 
" clip-path="url(#p3cf31ffcf2)" style="fill: none; stroke: #f29888; stroke-width: 0.2"/>
    <path d="M 356.167266 591.338008 
L 356.515249 590.351594 
L 356.850715 589.66261 
L 357.387711 588.924681 
L 357.840841 588.587719 
L 358.395361 588.252639 
L 359.419284 587.748137 
L 360.241676 587.43 
L 360.963929 586.993267 
L 361.634861 586.372052 
L 362.239451 585.566355 
L 363.313443 583.617998 
L 363.918033 582.125199 
L 364.472553 580.664402 
L 364.95948 578.951355 
L 365.412609 577.204422 
L 365.999675 575.224064 
L 366.570468 573.511016 
L 367.175057 571.831853 
L 367.981177 570.303287 
L 368.518173 569.363934 
L 369.390635 568.272102 
L 370.515948 566.963785 
L 371.556143 566.325627 
L 372.916783 565.502988 
L 374.242375 564.746235 
L 375.68563 563.889711 
L 376.743349 563.100956 
L 378.052668 561.977122 
L 379.445853 560.766693 
L 380.705103 559.742629 
L 381.780346 558.567968 
L 382.720402 557.577789 
L 383.207329 557.17494 
L 384.12986 556.083108 
L 384.616786 555.428008 
L 385.255173 554.505598 
L 385.993699 553.581305 
L 386.546968 552.96009 
L 387.067691 552.591125 
L 388.057817 551.751544 
L 388.594813 551.314811 
L 389.568665 550.40746 
L 390.476176 549.451165 
L 390.811642 548.929721 
L 391.734174 547.839771 
L 393.22875 546.143665 
L 394.152533 545.287141 
L 394.672005 545.017948 
L 395.242798 544.833466 
L 395.645857 544.816524 
L 396.26672 544.969004 
L 397.240573 545.102659 
L 398.365886 545.236315 
L 399.456151 545.187371 
L 400.531394 545.102659 
L 402.377709 544.581215 
L 403.586889 543.976942 
L 405.231674 543.323725 
L 406.191757 543.154303 
" clip-path="url(#p3cf31ffcf2)" style="fill: none; stroke: #f29888; stroke-width: 0.2"/>
    <path d="M 325.260521 537.117941 
L 326.051681 536.032918 
L 326.899108 534.718954 
L 328.155854 532.934373 
L 328.710374 531.998785 
L 329.93833 530.010896 
L 331.400361 528.111484 
L 332.83235 526.240309 
L 335.25822 523.055169 
L 337.859334 519.634721 
L 339.759473 517.938616 
L 341.863646 516.477819 
L 346.949461 513.584462 
L 350.573245 511.508098 
L 353.817752 509.725398 
L 355.775472 508.262719 
L 357.266293 506.890398 
L 358.61066 505.544432 
L 359.926238 504.230468 
L 360.686043 503.206404 
L 361.563512 501.071683 
L 362.176864 499.027321 
L 362.527351 497.417809 
L 363.492442 495.254851 
L 364.486322 493.735697 
L 366.064765 492.478207 
L 368.168938 491.36755 
L 370.478396 490.345369 
L 372.085629 489.438018 
L 373.342375 488.621026 
L 374.365045 488.152291 
L 375.650581 487.627082 
L 377.141402 487.13011 
L 378.778676 486.427948 
L 380.473531 485.755906 
L 381.233336 485.053745 
L 382.520124 484.293227 
L 382.987023 484.001444 
L 384.010945 483.798137 
L 384.986049 484.185926 
" clip-path="url(#p3cf31ffcf2)" style="fill: none; stroke: #f29888; stroke-width: 0.2"/>
    <path d="M 439.262698 523.286713 
L 437.60164 524.811514 
L 432.152821 528.444681 
L 414.166585 538.148815 
L 407.521104 542.135886 
L 406.723746 542.711922 
L 406.191757 543.154303 
" clip-path="url(#p3cf31ffcf2)" style="fill: none; stroke: #f29888; stroke-width: 0.2"/>
    <path d="M 351.459476 413.030438 
L 352.989101 415.191514 
L 354.280896 416.964801 
L 355.726654 418.544193 
L 360.008853 423.406614 
L 362.514834 426.761175 
L 364.328603 429.460637 
L 366.873388 432.931912 
L 368.956282 436.094462 
L 370.422068 439.411375 
L 372.658925 443.037012 
L 373.661568 444.88748 
L 374.432639 446.894193 
L 375.422765 450.241225 
L 376.052389 452.370299 
L 376.669497 455.301305 
L 377.826103 459.39003 
L 379.137926 463.17003 
L 380.603712 469.803855 
L 382.223462 475.665867 
L 384.15114 482.299691 
L 384.986049 484.185926 
L 386.85114 488.393247 
L 388.934034 495.412978 
L 391.401211 501.431235 
L 393.561712 504.593785 
L 397.264356 509.375259 
L 400.811784 515.547878 
L 403.280213 519.868147 
" clip-path="url(#p3cf31ffcf2)" style="fill: none; stroke: #f29888; stroke-width: 0.2"/>
    <path d="M 375.422765 450.241225 
L 377.612056 452.037102 
L 379.850165 452.903038 
L 384.176174 454.785508 
L 385.397872 455.803924 
L 387.53459 459.213078 
L 389.773951 461.351564 
L 391.351141 461.605697 
L 393.030975 461.044721 
L 394.09996 459.467211 
L 395.371727 457.330608 
L 396.38939 456.210538 
L 398.57743 454.937988 
" clip-path="url(#p3cf31ffcf2)" style="fill: none; stroke: #f29888; stroke-width: 0.2"/>
    <path d="M 421.553096 426.91742 
L 417.555042 434.8125 
L 417.07062 436.646026 
L 416.944194 438.76004 
L 416.841551 442.910886 
L 416.994263 446.858426 
L 416.816517 449.055269 
L 416.459771 451.340588 
L 415.9766 452.869153 
L 415.186753 454.753506 
L 413.173957 459.822998 
L 411.773261 462.471633 
L 409.328615 467.335936 
" clip-path="url(#p3cf31ffcf2)" style="fill: none; stroke: #f29888; stroke-width: 0.2"/>
    <path d="M 422.317909 425.618516 
L 421.553096 426.91742 
" clip-path="url(#p3cf31ffcf2)" style="fill: none; stroke: #f29888; stroke-width: 0.2"/>
    <path d="M 424.04656 420.884104 
L 419.552818 421.704861 
" clip-path="url(#p3cf31ffcf2)" style="fill: none; stroke: #f29888; stroke-width: 0.2"/>
    <path d="M 54.351751 355.176484 
L 53.216423 355.829701 
L 49.386042 357.883473 
" clip-path="url(#p3cf31ffcf2)" style="fill: none; stroke: #f29888; stroke-width: 0.2"/>
    <path d="M 295.583106 357.655697 
L 292.705358 360.60741 
L 282.581294 364.952151 
L 281.720098 366.550369 
L 282.756538 371.145478 
L 282.921767 374.989482 
L 282.372254 379.162918 
L 278.967524 384.381125 
L 275.232336 389.360259 
L 273.474894 393.535578 
L 269.227744 399.173576 
L 264.613835 405.984353 
L 261.757367 410.451454 
L 258.828298 415.650837 
L 257.03452 417.542296 
" clip-path="url(#p3cf31ffcf2)" style="fill: none; stroke: #f29888; stroke-width: 0.2"/>
    <path d="M 183.628835 268.490618 
L 199.333151 276.884552 
L 215.228982 283.091056 
L 231.167373 289.717351 
L 238.000615 297.550309 
L 237.333439 302.881464 
L 235.667374 306.215319 
L 235.792548 309.58494 
L 235.833855 310.714422 
L 240.167375 316.881394 
L 248.666682 323.381564 
L 258.668076 332.880508 
L 264.436088 338.142012 
L 268.167522 341.5474 
L 277.334005 353.045528 
L 282.193255 355.953944 
L 287.081296 357.512629 
L 295.583106 357.655697 
L 300.683942 357.725349 
L 306.706057 360.276096 
L 313.600635 364.526713 
L 314.206476 364.922032 
L 325.880193 372.555448 
L 340.912325 382.941036 
L 348.83458 389.367789 
L 352.336945 392.133137 
L 353.302036 393.989253 
L 353.650019 397.001205 
L 353.25447 400.385886 
L 351.857529 405.717042 
L 351.395637 409.350209 
L 351.459476 413.030438 
L 351.484511 414.406524 
L 351.115248 418.698556 
L 350.230269 425.618516 
L 349.437918 429.31757 
L 348.238752 433.016624 
L 345.180754 440.890996 
L 342.041393 449.12492 
L 338.953353 457.257191 
L 333.270459 470.25 
L 326.099247 484.274402 
L 316.798828 501.947032 
L 310.143332 513.057371 
" clip-path="url(#p3cf31ffcf2)" style="fill: none; stroke: #f29888; stroke-width: 0.2"/>
    <path d="M 314.206476 364.922032 
L 311.630398 370.132709 
L 307.066558 376.685588 
L 304.84347 380.429821 
L 302.502718 383.705319 
L 299.109254 388.270309 
L 296.534427 391.545807 
L 287.992561 402.078227 
" clip-path="url(#p3cf31ffcf2)" style="fill: none; stroke: #f29888; stroke-width: 0.2"/>
    <path d="M 264.436088 338.142012 
L 268.501736 333.127112 
L 276.300069 324.307739 
" clip-path="url(#p3cf31ffcf2)" style="fill: none; stroke: #f29888; stroke-width: 0.2"/>
    <path d="M 232.325231 306.403566 
L 230.891991 307.489751 
L 223.10242 315.145757 
L 221.826898 317.16 
L 214.702 322.543865 
L 207.993932 323.940657 
L 199.130369 323.872888 
L 195.773205 324.746355 
L 192.214512 329.913735 
L 190.669866 332.061633 
L 187.715762 332.396713 
L 181.135371 332.263058 
L 177.300044 331.877151 
L 174.413534 331.071454 
L 164.95164 332.195289 
L 160.520484 332.330827 
L 150.17987 328.906614 
L 133.593078 330.785319 
L 125.200169 330.450239 
L 120.432296 330.316584 
L 103.30976 334.478725 
L 82.023941 342.535697 
L 62.684576 351.196942 
L 54.351751 355.176484 
" clip-path="url(#p3cf31ffcf2)" style="fill: none; stroke: #f29888; stroke-width: 0.2"/>
    <path d="M 276.300069 324.307739 
L 278.79854 322.801763 
" clip-path="url(#p3cf31ffcf2)" style="fill: none; stroke: #f29888; stroke-width: 0.2"/>
    <path d="M 291.677681 314.125458 
L 291.92928 310.923376 
L 292.13081 308.909133 
L 293.143467 307.800359 
" clip-path="url(#p3cf31ffcf2)" style="fill: none; stroke: #f29888; stroke-width: 0.2"/>
    <path d="M 235.792548 309.58494 
L 232.325231 306.403566 
L 235.667374 306.215319 
" clip-path="url(#p3cf31ffcf2)" style="fill: none; stroke: #f29888; stroke-width: 0.2"/>
    <path d="M 297.771145 321.297669 
L 296.768503 319.524382 
L 296.305359 317.210827 
L 295.76586 313.276464 
L 295.380324 311.348815 
L 294.14611 309.266803 
L 293.143467 307.800359 
L 293.60661 305.641165 
L 295.534288 300.859691 
L 296.229003 298.854861 
L 297.000074 296.618486 
L 297.154038 294.459293 
L 297.07643 291.914193 
L 297.154038 289.369094 
L 298.002717 287.439562 
" clip-path="url(#p3cf31ffcf2)" style="fill: none; stroke: #f29888; stroke-width: 0.2"/>
    <path d="M 391.497595 351.443546 
L 385.957399 353.502968 
L 378.102738 357.874064 
L 362.021649 367.886922 
L 345.707736 377.743536 
L 340.912325 382.941036 
" clip-path="url(#p3cf31ffcf2)" style="fill: none; stroke: #f29888; stroke-width: 0.2"/>
    <path d="M 345.707736 377.743536 
L 342.206623 372.581803 
L 338.219834 366.734851 
L 334.763783 361.861135 
L 333.353074 359.272739 
L 332.246537 356.784114 
L 331.426648 354.833875 
" clip-path="url(#p3cf31ffcf2)" style="fill: none; stroke: #f29888; stroke-width: 0.2"/>
    <path d="M 314.206476 364.922032 
L 315.359328 363.544064 
L 317.397159 361.861135 
L 319.878105 360.178207 
L 323.599525 358.139492 
L 327.055576 356.810468 
L 331.426648 354.833875 
" clip-path="url(#p3cf31ffcf2)" style="fill: none; stroke: #f29888; stroke-width: 0.2"/>
    <path d="M 397.081602 350.09758 
L 391.497595 351.443546 
" clip-path="url(#p3cf31ffcf2)" style="fill: none; stroke: #f29888; stroke-width: 0.2"/>
    <path d="M 432.323057 325.390159 
L 431.61207 326.408576 
L 431.07257 327.319691 
L 430.46798 329.057211 
L 429.436548 332.413655 
L 428.388842 334.371424 
L 427.676603 335.630797 
L 426.195796 337.031355 
L 420.066031 340.677699 
L 416.603721 343.160677 
L 413.773539 344.634651 
L 411.084804 345.905319 
L 397.081602 350.09758 
" clip-path="url(#p3cf31ffcf2)" style="fill: none; stroke: #f29888; stroke-width: 0.2"/>
    <path d="M 278.79854 322.801763 
L 279.860014 322.38762 
L 281.186857 322.32738 
L 282.171976 322.637988 
L 286.014814 325.141673 
L 287.597012 326.003845 
L 289.223021 326.487639 
L 290.622465 326.61 
L 292.020657 326.421753 
L 293.385052 326.058436 
L 294.52789 325.518167 
L 297.323023 324.437629 
L 298.801326 323.554751 
L 300.593816 322.485508 
L 303.996043 319.97994 
L 310.3361 313.632251 
L 311.587839 312.77761 
L 316.915239 310.151564 
L 323.272821 306.5824 
L 325.445839 305.665637 
L 329.455159 304.543685 
L 330.265034 304.157779 
L 330.8521 303.641982 
L 334.921503 297.215229 
L 336.984368 294.798137 
L 338.33875 293.576414 
L 339.56295 292.552351 
L 341.87366 291.134851 
L 344.18437 290.069373 
L 351.619699 287.930886 
L 354.538754 287.006594 
L 357.237503 285.991942 
L 361.253081 284.640329 
L 361.637365 284.482201 
L 364.735418 283.220946 
L 365.980899 282.961165 
L 367.182568 283.032699 
L 368.428048 283.237888 
L 369.806212 283.508964 
L 371.821512 283.968287 
L 374.057118 284.604562 
L 378.021374 286.189602 
L 382.581459 288.290438 
L 386.965049 290.969193 
L 389.956704 293.154741 
L 390.502463 293.676185 
L 397.433341 300.296833 
L 406.245582 310.829253 
L 408.120687 313.08257 
L 409.955736 314.757968 
L 412.634457 316.403247 
L 415.736266 317.16 
L 419.855738 318.315837 
L 421.506782 319.010468 
L 423.12528 319.763456 
L 426.82542 321.58004 
L 428.705532 322.628576 
L 431.041277 324.127022 
L 432.323057 325.390159 
" clip-path="url(#p3cf31ffcf2)" style="fill: none; stroke: #f29888; stroke-width: 0.2"/>
    <path d="M 423.12528 319.763456 
L 423.595934 317.267301 
L 424.53599 314.245936 
L 425.14058 311.695189 
L 425.476046 309.814602 
L 425.206922 307.868127 
L 424.53599 305.65246 
L 422.655878 298.937689 
L 421.111233 292.829074 
L 420.472846 289.606285 
L 419.969647 286.383496 
L 419.498993 279.399532 
L 419.029591 274.028845 
" clip-path="url(#p3cf31ffcf2)" style="fill: none; stroke: #f29888; stroke-width: 0.2"/>
    <path d="M 390.502463 293.676185 
L 393.039737 291.541464 
L 396.602186 288.945538 
L 400.367416 286.351494 
L 404.183968 284.263835 
L 406.982856 282.635498 
L 409.47632 281.415657 
L 413.395514 280.092281 
L 415.532233 279.380707 
L 417.466169 279.380707 
L 419.498993 279.399532 
" clip-path="url(#p3cf31ffcf2)" style="fill: none; stroke: #f29888; stroke-width: 0.2"/>
    <path d="M 310.3361 313.632251 
L 309.75279 310.641006 
L 310.770453 303.721046 
L 313.212596 291.916076 
L 314.841108 281.739442 
L 315.350566 274.311215 
L 316.062805 265.559612 
L 316.673654 254.771175 
" clip-path="url(#p3cf31ffcf2)" style="fill: none; stroke: #f29888; stroke-width: 0.2"/>
    <path d="M 359.84863 279.82497 
L 360.177837 281.489074 
L 360.731106 282.927281 
L 361.637365 284.482201 
" clip-path="url(#p3cf31ffcf2)" style="fill: none; stroke: #f29888; stroke-width: 0.2"/>
    <path d="M 365.980899 282.961165 
L 360.983957 280.621255 
L 359.84863 279.82497 
L 359.58201 278.693606 
L 359.63959 277.407878 
L 359.951273 276.36499 
L 360.416919 275.24492 
L 361.568519 273.548815 
L 363.615112 271.446096 
L 364.550161 269.92506 
L 365.075891 267.353606 
L 365.075891 264.898865 
" clip-path="url(#p3cf31ffcf2)" style="fill: none; stroke: #f29888; stroke-width: 0.2"/>
    <path d="M 419.029591 274.028845 
L 417.438631 269.60504 
L 416.497323 264.767092 
L 415.422079 260.465647 
L 412.733344 256.299741 
L 408.566306 251.326255 
L 405.743635 246.7575 
L 401.980908 242.3224 
L 398.619989 239.231384 
" clip-path="url(#p3cf31ffcf2)" style="fill: none; stroke: #f29888; stroke-width: 0.2"/>
    <path d="M 298.801326 323.554751 
L 297.771145 321.297669 
L 296.151395 320.682102 
L 294.223717 319.447201 
L 292.911895 318.214183 
L 292.294788 316.284651 
L 291.677681 314.125458 
L 290.443466 312.429353 
L 289.132896 310.422639 
L 288.592144 308.49499 
L 288.901324 306.490159 
L 289.826359 304.794054 
L 290.906609 303.481972 
L 291.755288 300.859691 
L 292.21718 298.005867 
L 291.909252 295.383586 
L 291.446109 292.145737 
L 291.446109 290.061843 
L 291.292145 287.593924 
L 290.906609 285.203187 
L 287.589502 279.188695 
L 285.430252 275.254333 
L 281.805216 268.00494 
L 280.87893 265.845747 
L 279.876287 264.765209 
L 270.543322 259.676892 
L 268.692 258.982261 
L 266.532751 258.827898 
L 264.526213 258.90508 
L 259.666963 258.519173 
L 255.578784 256.900249 
L 252.107712 255.588167 
" clip-path="url(#p3cf31ffcf2)" style="fill: none; stroke: #f29888; stroke-width: 0.2"/>
    <path d="M 231.167373 289.717351 
L 228.857915 281.007161 
L 227.896579 272.987839 
" clip-path="url(#p3cf31ffcf2)" style="fill: none; stroke: #f29888; stroke-width: 0.2"/>
    <path d="M 227.896579 272.987839 
L 227.47224 269.834701 
" clip-path="url(#p3cf31ffcf2)" style="fill: none; stroke: #f29888; stroke-width: 0.2"/>
    <path d="M 144.602121 196.232002 
L 146.054138 199.221365 
L 151.376532 206.113088 
L 156.085574 212.389243 
L 162.841208 221.600169 
L 163.796285 223.578645 
L 166.8668 233.745867 
L 167.617844 237.63505 
L 168.982239 242.137918 
L 170.551919 244.52489 
L 171.217015 246.952963 
" clip-path="url(#p3cf31ffcf2)" style="fill: none; stroke: #f29888; stroke-width: 0.2"/>
    <path d="M 175.638169 259.624993 
L 178.193785 265.341245 
" clip-path="url(#p3cf31ffcf2)" style="fill: none; stroke: #f29888; stroke-width: 0.2"/>
    <path d="M 175.033896 264.133823 
L 178.193785 265.341245 
L 183.628835 268.490618 
" clip-path="url(#p3cf31ffcf2)" style="fill: none; stroke: #f29888; stroke-width: 0.2"/>
    <path d="M 118.033964 221.018486 
L 120.114354 217.76746 
L 124.727012 215.348486 
L 144.602121 196.232002 
L 153.833695 186.194671 
L 149.264849 180.620677 
L 145.742455 174.59489 
L 145.877643 168.704641 
L 146.080425 165.385847 
" clip-path="url(#p3cf31ffcf2)" style="fill: none; stroke: #f29888; stroke-width: 0.2"/>
    <path d="M 214.117438 217.276135 
L 216.525784 211.818855 
L 225.838721 207.163506 
L 243.66223 198.976643 
L 258.042206 191.286753 
L 268.550554 182.281016 
L 272.885325 173.612241 
L 275.887161 166.417125 
" clip-path="url(#p3cf31ffcf2)" style="fill: none; stroke: #f29888; stroke-width: 0.2"/>
    <path d="M 205.366532 127.743974 
L 206.623278 131.676454 
L 206.623278 136.565229 
L 207.600886 141.779671 
L 208.253042 150.578337 
L 210.372236 155.630886 
L 211.839274 161.170996 
L 216.240387 170.948546 
L 219.989345 183.497092 
L 220.314797 196.371305 
L 221.944561 202.888416 
L 217.544699 207.940966 
L 216.525784 211.818855 
" clip-path="url(#p3cf31ffcf2)" style="fill: none; stroke: #f29888; stroke-width: 0.2"/>
    <path d="M 227.47224 269.834701 
L 225.234131 262.924153 
L 220.510069 250.642918 
L 219.944283 243.27493 
L 214.117438 217.276135 
L 206.148869 206.621355 
L 205.205058 201.143367 
L 194.05582 171.861544 
L 188.76472 166.003297 
L 181.961519 161.282062 
L 175.442463 150.444681 
L 173.844075 138.460263 
" clip-path="url(#p3cf31ffcf2)" style="fill: none; stroke: #f29888; stroke-width: 0.2"/>
    <path d="M 184.784574 67.569403 
L 185.754288 65.695876 
L 197.325362 56.443536 
L 199.746225 53.860787 
L 203.621608 53.376992 
" clip-path="url(#p3cf31ffcf2)" style="fill: none; stroke: #f29888; stroke-width: 0.2"/>
    <path d="M 272.195307 132.556644 
L 270.493252 132.43509 
L 268.384072 132.645926 
L 262.056533 130.959233 
L 246.265847 127.423954 
L 233.165148 129.340309 
L 223.579332 129.182181 
L 205.366532 127.743974 
" clip-path="url(#p3cf31ffcf2)" style="fill: none; stroke: #f29888; stroke-width: 0.2"/>
    <path d="M 182.770766 82.18281 
L 191.974178 86.606355 
L 198.768617 91.156285 
L 201.781552 103.844133 
L 204.66681 119.415926 
L 205.366532 127.743974 
" clip-path="url(#p3cf31ffcf2)" style="fill: none; stroke: #f29888; stroke-width: 0.2"/>
    <path d="M 198.768617 91.156285 
L 201.34094 85.958785 
L 208.783779 79.590388 
L 225.896301 69.848606 
L 239.172243 62.02506 
" clip-path="url(#p3cf31ffcf2)" style="fill: none; stroke: #f29888; stroke-width: 0.2"/>
    <path d="M 680.504067 730.951404 
L 679.487314 734.71904 
" clip-path="url(#p3cf31ffcf2)" style="fill: none; stroke: #f29888; stroke-width: 0.2"/>
    <path d="M 681.500451 726.766673 
L 680.504067 730.951404 
" clip-path="url(#p3cf31ffcf2)" style="fill: none; stroke: #f29888; stroke-width: 0.2"/>
    <path d="M 681.576807 722.429462 
L 677.975554 721.333865 
L 673.391687 720.722062 
L 670.182228 721.30751 
L 667.279446 722.250627 
L 664.987512 723.01491 
L 663.052324 723.779193 
L 661.57402 724.212161 
L 660.046899 724.340169 
L 655.106285 724.110508 
L 650.165672 723.779193 
L 644.307534 723.319871 
L 641.200719 722.86243 
L 639.672346 722.429462 
L 638.042582 721.892958 
L 636.425335 721.027022 
L 635.062191 719.829771 
L 630.657322 715.473735 
L 628.873594 713.995996 
L 627.549255 713.231713 
" clip-path="url(#p3cf31ffcf2)" style="fill: none; stroke: #f29888; stroke-width: 0.2"/>
    <path d="M 627.549255 713.231713 
L 628.265249 709.839502 
L 628.7334 708.083157 
L 629.786112 706.678835 
L 631.424638 704.92249 
L 632.595014 701.059661 
L 633.998213 696.494671 
L 634.466364 694.154761 
L 634.584027 691.812968 
L 635.988478 689.823197 
L 637.157602 687.833426 
L 638.679717 681.161952 
L 640.434654 676.830388 
L 642.189592 672.148685 
L 642.891818 669.573466 
L 645.494183 668.302799 
" clip-path="url(#p3cf31ffcf2)" style="fill: none; stroke: #f29888; stroke-width: 0.2"/>
    <path d="M 627.549255 713.231713 
L 624.663997 713.09994 
L 616.732979 712.898516 
L 614.111838 712.898516 
L 612.432005 712.360129 
L 610.684577 711.283357 
L 608.600432 709.536424 
L 607.256065 707.855378 
L 605.979291 704.830249 
L 604.837705 701.737351 
L 603.55968 699.384263 
L 601.678316 696.89752 
L 601.052447 695.888516 
L 600.603073 694.879512 
L 600.300152 693.509074 
L 599.998483 691.786614 
L 599.326299 689.030677 
L 599.208636 687.720478 
L 599.326299 686.408396 
L 599.413921 685.086902 
L 599.326299 684.055309 
L 598.720457 680.559562 
L 598.049525 676.12258 
L 597.040624 671.350518 
L 595.831444 667.316384 
L 595.76385 663.080827 
L 596.503628 657.030568 
L 596.503628 654.139094 
L 596.36844 651.516813 
L 596.234504 649.568456 
L 595.733809 647.46762 
L 595.602376 646.916056 
" clip-path="url(#p3cf31ffcf2)" style="fill: none; stroke: #f29888; stroke-width: 0.2"/>
    <path d="M 575.496947 634.218795 
L 574.699589 635.783127 
L 572.969686 638.12492 
L 571.900701 640.21258 
L 571.646598 641.993396 
L 571.850631 643.21512 
L 574.292774 651.818008 
L 576.786238 656.755727 
L 575.921286 659.504133 
" clip-path="url(#p3cf31ffcf2)" style="fill: none; stroke: #f29888; stroke-width: 0.2"/>
    <path d="M 409.480075 777.201813 
L 411.192454 775.959382 
L 414.751147 774.011026 
L 416.765195 772.599173 
L 418.309841 771.524283 
L 423.61471 767.561683 
L 425.830288 765.613327 
L 426.837938 764.807629 
L 428.317323 762.910361 
" clip-path="url(#p3cf31ffcf2)" style="fill: none; stroke: #f29888; stroke-width: 0.2"/>
    <path d="M 438.090989 752.620518 
L 441.00637 750.433088 
L 443.557414 748.416962 
L 445.135856 747.089821 
L 445.672852 746.385777 
L 445.975773 745.410657 
L 446.445175 742.824143 
L 446.646705 739.936434 
L 447.049765 736.677878 
L 447.251295 734.86506 
L 447.720697 733.387321 
L 448.057415 732.244661 
L 448.29149 729.793685 
L 448.678277 724.146275 
" clip-path="url(#p3cf31ffcf2)" style="fill: none; stroke: #f29888; stroke-width: 0.2"/>
    <path d="M 445.672852 746.385777 
L 448.515551 743.929153 
L 452.141839 740.84002 
L 455.766874 738.151853 
L 459.594692 736.002072 
L 463.087043 734.458446 
L 465.302621 733.114363 
L 467.787322 731.435199 
L 470.80902 728.748914 
L 473.763124 726.060747 
L 476.650885 723.442231 
L 479.337117 720.889602 
L 481.754224 717.866355 
L 484.775922 714.978645 
L 487.730026 712.828865 
L 490.416257 711.686205 
L 492.296369 710.880508 
L 493.639485 709.873386 
L 494.645883 708.463416 
L 495.250473 706.917908 
L 496.124186 703.96243 
L 497.332114 699.798406 
L 497.66758 697.178008 
L 498.138234 695.095996 
L 498.742824 693.147639 
L 499.212226 691.6699 
L 499.48135 690.730548 
L 499.88441 690.192161 
L 501.077052 689.83914 
" clip-path="url(#p3cf31ffcf2)" style="fill: none; stroke: #f29888; stroke-width: 0.2"/>
    <path d="M 427.921944 691.308466 
L 430.474239 693.051633 
L 433.213044 694.478546 
L 435.333489 695.673914 
L 437.994686 696.408078 
L 441.504562 697.025528 
L 445.283561 697.872639 
L 448.137526 698.529622 
L 449.719724 698.875996 
L 449.912492 699.339084 
L 449.719724 700.419622 
L 449.102617 705.125797 
L 448.754633 713.459492 
L 448.793437 715.311843 
L 448.639473 717.356205 
L 448.678277 724.146275 
" clip-path="url(#p3cf31ffcf2)" style="fill: none; stroke: #f29888; stroke-width: 0.2"/>
    <path d="M 427.946978 692.505717 
L 428.153515 693.126932 
L 428.61791 694.235707 
L 428.861999 694.789153 
L 428.994684 695.3426 
L 428.928342 696.274422 
L 428.174795 699.574392 
" clip-path="url(#p3cf31ffcf2)" style="fill: none; stroke: #f29888; stroke-width: 0.2"/>
    <path d="M 449.719724 698.875996 
L 450.351852 697.486733 
L 450.527095 696.201006 
L 450.703591 694.271474 
L 450.703591 692.283586 
L 451.520976 689.241514 
L 451.989126 687.078556 
L 452.280782 684.563576 
L 452.573688 683.394562 
L 453.217082 681.523386 
L 453.683981 679.710568 
L 454.327375 677.489253 
L 454.502618 675.851504 
L 454.794273 673.921972 
L 455.321255 672.402819 
L 455.671742 670.473287 
L 456.197472 669.068964 
L 456.547959 668.133376 
L 457.132521 667.314502 
L 457.717083 666.67258 
L 458.594552 666.087131 
L 460.231827 665.326614 
L 461.283287 664.332669 
L 462.336 663.397082 
L 462.978142 662.753277 
L 463.739199 662.111355 
L 464.440173 661.175767 
L 464.849491 659.771444 
L 465.492885 658.427361 
L 465.959784 656.906325 
L 466.544346 655.620598 
L 467.187739 654.334871 
L 467.71347 653.340926 
L 468.298032 652.522052 
L 469.000257 651.644821 
L 469.876475 650.650876 
L 470.695112 649.423506 
L 471.923068 647.785757 
L 473.267435 645.856225 
L 474.494139 644.218476 
L 475.107559 643.400579 
" clip-path="url(#p3cf31ffcf2)" style="fill: none; stroke: #f29888; stroke-width: 0.2"/>
    <path d="M 520.309033 545.799173 
L 521.368004 548.807361 
" clip-path="url(#p3cf31ffcf2)" style="fill: none; stroke: #f29888; stroke-width: 0.2"/>
    <path d="M 520.309033 545.799173 
L 522.013901 531.876424 
" clip-path="url(#p3cf31ffcf2)" style="fill: none; stroke: #f29888; stroke-width: 0.2"/>
    <path d="M 443.061725 519.491653 
L 446.142254 520.594781 
L 453.182034 521.490837 
L 475.273972 527.40744 
L 483.476617 528.830588 
L 490.911946 530.251853 
L 522.013901 531.876424 
L 540.231708 533.478406 
L 569.561201 536.249402 
" clip-path="url(#p3cf31ffcf2)" style="fill: none; stroke: #f29888; stroke-width: 0.2"/>
    <path d="M 439.262698 523.286713 
L 443.061725 519.491653 
" clip-path="url(#p3cf31ffcf2)" style="fill: none; stroke: #f29888; stroke-width: 0.2"/>
    <path d="M 443.061725 519.491653 
L 459.585929 492.660807 
L 463.826821 489.980169 
" clip-path="url(#p3cf31ffcf2)" style="fill: none; stroke: #f29888; stroke-width: 0.2"/>
    <path d="M 585.364404 640.485538 
L 589.423793 642.213645 
L 591.908495 644.363426 
L 593.65467 646.04259 
L 595.602376 646.916056 
" clip-path="url(#p3cf31ffcf2)" style="fill: none; stroke: #f29888; stroke-width: 0.2"/>
    <path d="M 595.733809 647.46762 
L 597.474977 645.566325 
L 600.563017 643.713974 
L 603.574701 643.019343 
L 605.968025 643.019343 
L 609.056065 642.014104 
L 612.144105 640.933566 
L 614.846609 639.467122 
L 617.162326 638.30752 
L 619.478043 637.07262 
L 621.331868 636.609532 
L 623.647585 636.300807 
L 626.040909 635.837719 
L 628.125055 635.451813 
L 629.6697 635.9149 
L 633.143276 636.377988 
L 635.5366 636.223625 
L 636.92603 635.374631 
L 638.002526 634.196205 
" clip-path="url(#p3cf31ffcf2)" style="fill: none; stroke: #f29888; stroke-width: 0.2"/>
    <path d="M 581.527824 640.317998 
L 585.364404 640.485538 
" clip-path="url(#p3cf31ffcf2)" style="fill: none; stroke: #f29888; stroke-width: 0.2"/>
    <path d="M 569.561201 536.249402 
L 571.162175 539.747032 
L 572.983455 543.643745 
L 572.629213 551.292221 
L 571.933246 557.602261 
L 571.680395 561.254253 
L 572.274971 564.930717 
L 573.402788 568.607181 
L 584.23158 577.029353 
L 592.125045 581.605637 
L 596.38972 583.250916 
L 600.865938 584.295687 
L 601.540625 584.453815 
L 604.926579 585.366813 
L 607.287358 586.509472 
L 608.423937 587.458237 
L 609.560516 588.67243 
L 613.264411 594.148536 
L 616.562743 598.220319 
L 619.067472 601.411106 
L 625.873176 611.548207 
L 627.50294 614.098954 
L 635.798214 627.091763 
L 637.663305 632.948127 
L 638.002526 634.196205 
L 639.117825 638.30752 
L 642.560107 653.305159 
L 645.494183 668.302799 
L 649.395853 688.797251 
L 653.552878 709.395239 
L 654.69196 712.618028 
L 656.375549 714.611564 
L 658.467204 715.688337 
L 663.734521 716.846056 
L 675.328127 718.17508 
L 678.592661 718.752998 
L 680.640506 720.001076 
L 681.412829 721.501404 
L 681.576807 722.429462 
L 681.798365 723.686952 
L 681.500451 726.766673 
" clip-path="url(#p3cf31ffcf2)" style="fill: none; stroke: #f29888; stroke-width: 0.2"/>
    <path d="M 625.873176 611.548207 
L 621.948975 614.138486 
L 618.4754 617.84507 
L 615.000573 621.088566 
L 612.144105 624.098635 
L 610.291531 626.261594 
L 608.746886 627.650857 
L 606.199597 629.042002 
L 604.191808 630.12254 
L 602.185271 630.894353 
L 600.331445 631.668048 
L 599.173587 632.594223 
L 598.093336 634.21503 
L 597.861765 636.532351 
L 597.938121 639.38994 
L 598.015728 642.24753 
L 597.706549 644.09988 
L 597.474977 645.566325 
" clip-path="url(#p3cf31ffcf2)" style="fill: none; stroke: #f29888; stroke-width: 0.2"/>
    <path d="M 559.455913 609.055817 
L 560.178167 607.604432 
" clip-path="url(#p3cf31ffcf2)" style="fill: none; stroke: #f29888; stroke-width: 0.2"/>
    <path d="M 560.178167 607.604432 
L 560.968014 605.556305 
" clip-path="url(#p3cf31ffcf2)" style="fill: none; stroke: #f29888; stroke-width: 0.2"/>
    <path d="M 521.368004 548.807361 
L 524.090536 551.254572 
L 526.776767 552.261693 
L 529.261469 553.270697 
L 536.109732 555.889213 
L 539.803613 557.83757 
L 543.899303 562.268904 
L 545.645479 566.971315 
L 546.853407 574.491783 
L 547.256467 583.290448 
L 545.852016 595.594273 
L 545.659248 599.411922 
L 546.161195 602.536823 
L 547.356606 604.27246 
L 548.822392 605.315349 
L 550.442142 605.622191 
L 552.562587 605.006624 
L 554.067178 605.238167 
L 557.075106 607.668436 
L 560.931713 611.331723 
L 565.019892 614.648635 
L 567.334358 617.850717 
L 570.38109 622.40253 
L 573.029769 628.204303 
L 574.963706 633.751942 
L 575.496947 634.218795 
L 577.405848 635.888546 
L 579.899312 638.484472 
L 581.527824 640.317998 
" clip-path="url(#p3cf31ffcf2)" style="fill: none; stroke: #f29888; stroke-width: 0.2"/>
    <path d="M 560.968014 605.556305 
L 561.670239 604.121863 
L 562.840615 602.747659 
L 564.4491 601.751833 
L 567.286792 600.932958 
L 569.656333 600.844482 
L 571.938253 600.582819 
L 573.255082 600.025608 
L 574.04493 599.381803 
L 574.425458 598.065956 
L 574.494304 597.228257 
L 574.688323 594.877052 
L 574.804735 592.945637 
L 575.03881 591.541315 
L 575.390549 590.457012 
L 576.151606 589.404711 
L 577.32073 588.497361 
L 579.836725 586.712779 
L 581.768158 585.483526 
L 583.172609 583.668825 
L 584.664682 581.650817 
L 585.102791 580.568396 
L 585.074001 579.164074 
L 584.752304 578.168247 
L 584.23158 577.029353 
" clip-path="url(#p3cf31ffcf2)" style="fill: none; stroke: #f29888; stroke-width: 0.2"/>
    <path d="M 600.865938 584.295687 
L 599.635479 587.1401 
L 598.694171 588.954801 
L 595.939094 590.09746 
L 593.250359 591.24012 
L 588.747854 592.988934 
L 582.026016 595.072829 
L 578.531162 596.281375 
L 574.494304 597.228257 
" clip-path="url(#p3cf31ffcf2)" style="fill: none; stroke: #f29888; stroke-width: 0.2"/>
    <path d="M 502.609445 492.43491 
L 492.860903 491.019293 
" clip-path="url(#p3cf31ffcf2)" style="fill: none; stroke: #f29888; stroke-width: 0.2"/>
    <path d="M 487.311945 450.939622 
L 489.076897 459.354263 
L 494.927524 470.863685 
L 495.813755 475.662102 
L 495.813755 487.180936 
L 492.860903 491.019293 
L 490.572725 492.495149 
L 483.959788 514.213207 
L 483.476617 528.830588 
" clip-path="url(#p3cf31ffcf2)" style="fill: none; stroke: #f29888; stroke-width: 0.2"/>
    <path d="M 495.813755 487.180936 
L 498.981906 489.859691 
L 502.609445 492.43491 
L 507.875511 493.253785 
L 512.322939 493.487211 
L 516.06689 493.020359 
L 518.055903 491.499323 
L 520.864805 489.626265 
L 523.907782 487.753207 
L 526.715432 484.944562 
" clip-path="url(#p3cf31ffcf2)" style="fill: none; stroke: #f29888; stroke-width: 0.2"/>
    <path d="M 462.860478 483.380229 
L 466.680785 481.88743 
L 467.120146 481.716125 
L 471.357282 479.84495 
" clip-path="url(#p3cf31ffcf2)" style="fill: none; stroke: #f29888; stroke-width: 0.2"/>
    <path d="M 467.981342 484.946444 
L 466.680785 481.88743 
L 464.985931 477.902241 
" clip-path="url(#p3cf31ffcf2)" style="fill: none; stroke: #f29888; stroke-width: 0.2"/>
    <path d="M 460.503454 476.870647 
L 463.204706 476.471564 
L 467.19525 475.052181 
L 470.388436 472.480727 
L 474.378979 470.263177 
L 479.876616 465.739602 
L 482.569106 463.721594 
L 489.076897 459.354263 
" clip-path="url(#p3cf31ffcf2)" style="fill: none; stroke: #f29888; stroke-width: 0.2"/>
    <path d="M 490.624046 447.489054 
L 488.491083 446.924313 
L 484.167577 445.457869 
" clip-path="url(#p3cf31ffcf2)" style="fill: none; stroke: #f29888; stroke-width: 0.2"/>
    <path d="M 467.247823 442.423327 
L 470.424736 448.082032 
L 472.586489 451.402709 
L 473.590384 452.174522 
L 477.682318 453.023516 
L 481.233501 453.332241 
L 483.086075 452.869153 
L 486.097758 451.865797 
L 487.311945 450.939622 
L 487.71876 450.630896 
L 489.958121 448.313576 
L 490.624046 447.489054 
L 491.888302 445.920956 
L 492.736981 443.526454 
L 491.964658 442.137191 
L 489.494977 439.976116 
L 484.167577 435.883625 
L 482.231137 433.901384 
" clip-path="url(#p3cf31ffcf2)" style="fill: none; stroke: #f29888; stroke-width: 0.2"/>
    <path d="M 413.773539 344.634651 
L 413.758519 347.371763 
L 414.109005 350.626554 
L 415.1492 354.751046 
L 429.1862 394.879661 
L 437.097189 415.630129 
L 450.058945 449.633187 
L 460.503454 476.870647 
L 462.177029 481.296335 
L 462.860478 483.380229 
L 463.366181 484.921972 
L 463.826821 489.980169 
L 467.489409 495.59746 
L 483.959788 514.213207 
" clip-path="url(#p3cf31ffcf2)" style="fill: none; stroke: #f29888; stroke-width: 0.2"/>
    <path d="M 424.8314 420.62997 
L 424.176741 421.390488 
L 423.18286 423.325667 
L 422.317909 425.618516 
" clip-path="url(#p3cf31ffcf2)" style="fill: none; stroke: #f29888; stroke-width: 0.2"/>
    <path d="M 437.097189 415.630129 
L 435.797884 416.494183 
L 432.604699 417.82509 
L 427.328619 419.820508 
L 424.8314 420.62997 
L 424.04656 420.884104 
" clip-path="url(#p3cf31ffcf2)" style="fill: none; stroke: #f29888; stroke-width: 0.2"/>
    <path d="M 426.195796 337.031355 
L 433.883976 338.373556 
L 438.383977 339.247022 
L 440.406787 339.885179 
L 441.789958 340.577928 
L 442.949068 341.39492 
L 444.208318 342.808655 
L 445.417497 345.003616 
L 447.350182 349.12999 
L 461.052967 375.196554 
L 471.328492 390.38244 
L 479.400955 405.828108 
L 483.282598 418.403008 
L 483.748244 424.148307 
L 482.828216 432.948855 
L 482.231137 433.901384 
L 481.347409 435.309472 
L 467.247823 442.423327 
L 466.720841 442.688755 
L 450.058945 449.633187 
" clip-path="url(#p3cf31ffcf2)" style="fill: none; stroke: #f29888; stroke-width: 0.2"/>
    <path d="M 429.1862 394.879661 
L 461.052967 375.196554 
" clip-path="url(#p3cf31ffcf2)" style="fill: none; stroke: #f29888; stroke-width: 0.2"/>
    <path d="M 503.167721 355.426853 
L 507.044356 357.138018 
L 511.425442 357.851474 
L 516.518767 358.56493 
L 521.204026 359.174851 
L 528.640606 360.601763 
" clip-path="url(#p3cf31ffcf2)" style="fill: none; stroke: #f29888; stroke-width: 0.2"/>
    <path d="M 447.350182 349.12999 
L 451.752548 348.84009 
L 455.247403 349.175169 
L 460.288155 349.645787 
L 464.724317 350.317829 
L 472.856865 351.125408 
L 478.703737 351.863337 
L 488.516118 352.872341 
L 492.078566 353.209303 
L 496.782601 353.881345 
L 500.614174 354.888466 
L 503.167721 355.426853 
" clip-path="url(#p3cf31ffcf2)" style="fill: none; stroke: #f29888; stroke-width: 0.2"/>
    <path d="M 442.949068 341.39492 
L 446.400112 341.413745 
L 449.65964 340.903596 
L 453.938084 340.190139 
L 474.618061 336.624741 
L 477.164098 336.624741 
" clip-path="url(#p3cf31ffcf2)" style="fill: none; stroke: #f29888; stroke-width: 0.2"/>
    <path d="M 507.053118 334.292361 
L 512.373008 335.702331 
L 518.847002 336.588974 
L 526.207226 337.831404 
L 533.213208 338.273785 
L 538.800971 339.248904 
L 544.830597 339.781643 
L 549.975243 340.225906 
L 554.586649 341.201026 
L 557.02003 340.882888 
" clip-path="url(#p3cf31ffcf2)" style="fill: none; stroke: #f29888; stroke-width: 0.2"/>
    <path d="M 503.938792 293.427699 
L 504.948945 297.569133 
L 505.102909 301.042291 
L 504.176622 303.745518 
L 503.791087 306.060956 
L 504.717374 308.530757 
L 505.798876 311.232102 
L 506.030448 317.717211 
L 506.338375 322.270906 
L 506.879127 328.292928 
L 507.188306 333.002869 
L 507.053118 334.292361 
L 506.647555 338.174014 
L 506.262019 342.266504 
L 505.412089 347.823556 
L 504.639766 351.916046 
L 503.167721 355.426853 
" clip-path="url(#p3cf31ffcf2)" style="fill: none; stroke: #f29888; stroke-width: 0.2"/>
    <path d="M 543.418635 277.291165 
L 544.533935 282.162998 
L 544.800555 288.19255 
L 545.24367 293.866315 
L 546.041028 300.340129 
L 546.041028 303.975179 
L 545.864533 305.838825 
L 544.533935 307.079373 
L 542.760221 307.433277 
L 538.858551 309.208446 
L 535.311123 310.802898 
L 532.916546 311.691424 
L 527.949647 312.75502 
L 525.111955 313.108924 
" clip-path="url(#p3cf31ffcf2)" style="fill: none; stroke: #f29888; stroke-width: 0.2"/>
    <path d="M 476.346713 304.784641 
L 473.293722 287.226843 
L 471.01055 275.544233 
L 470.272024 269.836584 
L 468.391912 260.505179 
L 465.907211 246.876096 
L 465.370215 242.311106 
L 465.773275 239.491165 
" clip-path="url(#p3cf31ffcf2)" style="fill: none; stroke: #f29888; stroke-width: 0.2"/>
    <path d="M 531.27802 282.183705 
L 527.132261 265.958695 
L 524.25952 254.966952 
" clip-path="url(#p3cf31ffcf2)" style="fill: none; stroke: #f29888; stroke-width: 0.2"/>
    <path d="M 354.658283 238.603031 
L 353.160589 243.402938 
L 347.614134 253.316026 
L 344.912882 259.701365 
L 341.043757 265.734681 
L 338.561559 268.857699 
L 336.946816 279.056922 
L 337.12957 284.589502 
L 337.96448 286.803287 
L 339.376441 288.264084 
L 341.249042 289.299442 
L 344.18437 290.069373 
" clip-path="url(#p3cf31ffcf2)" style="fill: none; stroke: #f29888; stroke-width: 0.2"/>
    <path d="M 616.562743 598.220319 
L 622.245637 595.357082 
L 641.487367 591.498018 
L 652.537717 589.054572 
L 676.54732 583.136086 
L 700.3604 577.641155 
" clip-path="url(#p3cf31ffcf2)" style="fill: none; stroke: #f29888; stroke-width: 0.2"/>
    <path d="M 608.416427 544.556743 
L 609.74327 544.697928 
L 611.249112 544.697928 
L 613.110447 545.008536 
L 614.527416 545.228785 
L 615.413647 545.450916 
L 618.691951 546.249084 
L 621.704886 546.956892 
L 623.875401 547.401155 
L 625.381243 547.75506 
L 626.843274 548.020488 
L 628.571925 548.285916 
L 630.254262 548.285916 
L 631.937851 547.888715 
L 637.032428 547.179024 
L 643.323668 546.115428 
L 646.24773 545.450916 
L 649.482223 545.008536 
L 653.114769 544.210369 
L 655.639526 543.545857 
L 657.323115 543.103476 
L 659.936746 542.393785 
L 661.885703 541.906225 
L 663.126176 541.375369 
L 664.05747 540.710857 
L 665.430627 540.001165 
L 666.40448 539.37995 
L 667.690016 538.894273 
L 669.595163 538.184582 
L 671.854551 537.742201 
L 674.511993 537.209462 
L 677.479866 536.633426 
L 678.941897 536.145867 
L 680.979727 535.791962 
L 683.239116 535.349582 
L 685.409631 535.082271 
L 689.890856 534.741544 
L 692.726045 534.741544 
L 694.906767 534.726276 
" clip-path="url(#p3cf31ffcf2)" style="fill: none; stroke: #f29888; stroke-width: 0.2"/>
    <path d="M 573.271355 535.690309 
L 574.57066 537.732789 
L 576.076502 539.327241 
L 577.362037 539.903277 
L 579.488742 541.012052 
L 581.259952 541.411135 
L 582.63311 541.676564 
L 583.918646 541.987171 
L 585.557172 542.828635 
L 587.551192 543.581624 
L 589.102096 543.6701 
L 590.651749 543.935528 
L 592.556895 544.291315 
L 595.437146 544.910647 
L 597.429915 544.955827 
L 599.29125 545.0876 
L 600.575534 545.221255 
L 602.834923 545.309731 
L 604.74007 545.35491 
L 606.245911 545.176076 
L 607.707942 544.822171 
L 608.416427 544.556743 
" clip-path="url(#p3cf31ffcf2)" style="fill: none; stroke: #f29888; stroke-width: 0.2"/>
    <path d="M 569.561201 536.249402 
L 573.271355 535.690309 
L 576.050215 535.270518 
L 583.336587 533.406873 
L 586.651191 528.683755 
L 594.772473 527.10248 
L 601.475535 527.439442 
L 612.283048 527.629572 
L 617.146053 527.379203 
L 622.007807 526.509502 
L 635.847032 523.478725 
L 647.514489 521.14258 
L 650.889177 520.35006 
L 665.340502 517.712719 
" clip-path="url(#p3cf31ffcf2)" style="fill: none; stroke: #f29888; stroke-width: 0.2"/>
    <path d="M 526.715432 484.944562 
L 527.537824 484.925737 
L 528.504167 485.332351 
L 529.395405 485.663665 
L 530.158966 486.019452 
L 530.972596 486.350767 
L 531.761191 486.350767 
L 532.881498 486.375239 
L 533.593737 486.198287 
L 535.094572 485.942271 
L 536.468981 485.917799 
L 537.969816 485.738964 
L 539.776075 485.663665 
L 540.921416 485.663665 
L 542.091792 485.663665 
L 543.974407 485.866972 
L 545.144783 486.094751 
L 545.93463 486.070279 
L 547.181362 485.840618 
L 548.071348 485.535657 
L 549.115299 484.976564 
L 550.209318 484.035329 
L 550.971627 483.2974 
L 552.218359 482.736424 
L 553.770515 482.380637 
L 554.8395 482.177331 
L 555.730738 482.252629 
L 556.849793 482.482291 
L 557.918778 482.864432 
L 558.936442 483.246574 
L 559.852715 483.474353 
L 561.531296 483.474353 
L 565.78095 483.474353 
L 567.052716 483.399054 
L 568.631159 483.399054 
L 570.120667 483.521796 
" clip-path="url(#p3cf31ffcf2)" style="fill: none; stroke: #f29888; stroke-width: 0.2"/>
    <path d="M 557.02003 340.882888 
L 558.142839 339.86259 
L 559.020308 337.756106 
L 560.074272 332.25741 
L 561.595135 328.80496 
L 563.760643 326.231624 
L 566.451882 323.714761 
L 568.147988 321.491564 
L 570.371076 319.38508 
L 573.531717 317.688974 
L 577.334499 313.944741 
L 579.850494 311.313048 
L 581.487769 309.61506 
L 581.839507 308.504402 
L 581.487769 307.333506 
L 579.616419 303.999651 
L 576.573442 298.676026 
L 575.930048 296.919681 
L 575.98888 295.106863 
L 577.100424 293.117092 
L 577.568574 290.954133 
L 577.86023 288.087131 
L 577.626154 285.980647 
L 576.04646 282.411484 
L 575.403066 278.725608 
L 574.818504 275.625179 
L 574.23269 273.812361 
L 572.829491 272.291325 
L 571.307377 271.178785 
L 569.14312 269.893058 
L 567.201673 267.705627 
" clip-path="url(#p3cf31ffcf2)" style="fill: none; stroke: #f29888; stroke-width: 0.2"/>
    <path d="M 622.761354 244.773376 
L 621.831312 241.992968 
L 620.813648 240.161325 
L 604.936593 219.911594 
" clip-path="url(#p3cf31ffcf2)" style="fill: none; stroke: #f29888; stroke-width: 0.2"/>
    <path d="M 668.49006 224.178605 
L 666.006427 225.615478 
L 662.241197 227.488536 
L 658.210598 229.359711 
L 649.884031 233.103944 
L 633.215877 240.319452 
L 622.761354 244.773376 
L 599.34132 254.752351 
L 567.201673 267.705627 
L 543.418635 277.291165 
L 531.27802 282.183705 
L 509.351311 291.200737 
L 503.938792 293.427699 
L 476.346713 304.784641 
L 436.168399 323.059661 
L 433.448371 324.558108 
L 432.323057 325.390159 
" clip-path="url(#p3cf31ffcf2)" style="fill: none; stroke: #f29888; stroke-width: 0.2"/>
   </g>
  </g>
 </g>
 <defs>
  <clipPath id="p3cf31ffcf2">
   <rect x="7.2" y="7.2" width="758.816606" height="831.6"/>
  </clipPath>
 </defs>
</svg>
