<?xml version="1.0" encoding="utf-8" standalone="no"?>
<!DOCTYPE svg PUBLIC "-//W3C//DTD SVG 1.1//EN"
  "http://www.w3.org/Graphics/SVG/1.1/DTD/svg11.dtd">
<svg xmlns:xlink="http://www.w3.org/1999/xlink" width="851.4pt" height="500.335344pt" viewBox="0 0 851.4 500.335344" xmlns="http://www.w3.org/2000/svg" version="1.1">
 <metadata>
  <rdf:RDF xmlns:dc="http://purl.org/dc/elements/1.1/" xmlns:cc="http://creativecommons.org/ns#" xmlns:rdf="http://www.w3.org/1999/02/22-rdf-syntax-ns#">
   <cc:Work>
    <dc:type rdf:resource="http://purl.org/dc/dcmitype/StillImage"/>
    <dc:date>2025-03-16T14:38:40.591032</dc:date>
    <dc:format>image/svg+xml</dc:format>
    <dc:creator>
     <cc:Agent>
      <dc:title>Matplotlib v3.10.1, https://matplotlib.org/</dc:title>
     </cc:Agent>
    </dc:creator>
   </cc:Work>
  </rdf:RDF>
 </metadata>
 <defs>
  <style type="text/css">*{stroke-linejoin: round; stroke-linecap: butt}</style>
 </defs>
 <g id="figure_1">
  <g id="patch_1">
   <path d="M 0 500.335344 
L 851.4 500.335344 
L 851.4 0 
L 0 0 
z
" style="fill: #ffffff"/>
  </g>
  <g id="axes_1">
   <g id="PatchCollection_1">
    <path d="M 115.44289 51.893084 
L 45.245455 58.090387 
L 46.967271 89.480028 
L 61.041599 278.076594 
L 77.753345 276.716798 
L 79.155106 294.015095 
L 95.5549 292.685382 
L 94.213909 276.145202 
L 168.077801 270.15247 
L 172.30334 322.239899 
L 116.921627 326.734448 
L 130.246459 471.047373 
L 188.87329 468.448116 
L 179.154143 322.023294 
L 303.534098 310.844082 
L 299.041171 252.87824 
L 258.422512 255.844522 
L 253.917431 229.003581 
L 246.110513 228.913329 
L 240.179363 176.952253 
L 239.243505 168.733305 
L 214.068526 170.526311 
L 208.947641 106.591804 
L 190.757159 107.31382 
L 188.767955 81.634122 
L 176.180465 82.951801 
L 179.372915 52.103672 
L 148.509865 55.148172 
L 147.209388 41.237333 
L 154.594966 29.28797 
L 99.440128 32.795764 
L 115.44289 51.893084 
" clip-path="url(#p76e047e7f2)" style="fill: #fbd6c9"/>
    <path d="M 797.792595 44.745127 
L 618.176775 58.180639 
L 620.749371 92.91562 
L 656.700894 91.291084 
L 659.532776 131.001958 
L 651.474676 131.579571 
L 652.171505 141.747961 
L 596.720919 145.18957 
L 596.182092 137.638488 
L 577.967301 138.769646 
L 578.441307 146.344796 
L 496.600342 151.802032 
L 499.221554 198.167486 
L 501.903536 245.597913 
L 616.422548 238.786896 
L 618.063338 267.57728 
L 655.007438 266.277651 
L 653.370699 237.481251 
L 733.348052 234.220146 
L 739.591155 236.133488 
L 747.394021 210.856915 
L 757.036192 192.060435 
L 766.816108 162.939128 
L 790.941792 175.105095 
L 806.154545 126.429191 
L 779.857347 111.651932 
L 797.792595 44.745127 
" clip-path="url(#p76e047e7f2)" style="fill: #fbd6c9"/>
   </g>
   <g id="PatchCollection_2">
    <path d="M 178.027873 445.259373 
L 178.542392 452.010221 
L 179.060963 458.791154 
L 173.3972 459.224363 
L 172.890783 452.587834 
L 172.36411 445.692582 
L 178.027873 445.259373 
" clip-path="url(#p76e047e7f2)" style="fill: #e6482f"/>
    <path d="M 176.419494 429.158418 
L 176.763857 435.253436 
L 171.691589 435.542242 
L 171.383688 430.127123 
L 171.019068 423.719232 
L 176.091336 423.430426 
L 176.419494 429.158418 
" clip-path="url(#p76e047e7f2)" style="fill: #e6482f"/>
    <path d="M 175.228402 400.710992 
L 175.410712 406.565338 
L 175.61733 413.183817 
L 170.002183 413.358304 
L 169.609204 400.88548 
L 175.228402 400.710992 
" clip-path="url(#p76e047e7f2)" style="fill: #e6482f"/>
    <path d="M 173.543048 383.400662 
L 173.940078 390.915644 
L 168.462677 391.210467 
L 168.077801 383.93014 
L 167.705078 376.80625 
L 173.178428 376.517443 
L 173.543048 383.400662 
" clip-path="url(#p76e047e7f2)" style="fill: #e6482f"/>
    <path d="M 166.789477 360.807581 
L 166.420806 354.165035 
L 171.687538 353.870212 
L 172.064312 360.627077 
L 172.380316 366.331003 
L 167.109532 366.619809 
L 166.789477 360.807581 
" clip-path="url(#p76e047e7f2)" style="fill: #e6482f"/>
    <path d="M 165.420127 337.011141 
L 165.083866 330.446813 
L 170.277674 330.176057 
L 170.609883 336.668183 
L 170.982606 343.978594 
L 165.788798 344.243333 
L 165.420127 337.011141 
" clip-path="url(#p76e047e7f2)" style="fill: #e6482f"/>
    <path d="M 185.737558 302.992159 
L 197.652527 302.733437 
L 197.757861 307.522809 
L 185.842893 307.781531 
L 185.737558 302.992159 
" clip-path="url(#p76e047e7f2)" style="fill: #e6482f"/>
    <path d="M 208.82205 301.349573 
L 220.068549 301.102884 
L 220.177935 306.07276 
L 208.931436 306.319449 
L 208.82205 301.349573 
" clip-path="url(#p76e047e7f2)" style="fill: #e6482f"/>
    <path d="M 245.336709 299.430214 
L 245.442043 304.201536 
L 233.539229 304.460258 
L 233.433894 299.688936 
L 245.336709 299.430214 
" clip-path="url(#p76e047e7f2)" style="fill: #e6482f"/>
    <path d="M 181.670021 272.156064 
L 193.787556 272.318517 
L 193.714632 277.468897 
L 181.601148 277.306444 
L 181.670021 272.156064 
" clip-path="url(#p76e047e7f2)" style="fill: #e6482f"/>
    <path d="M 226.161753 270.615763 
L 226.096931 275.405135 
L 214.352119 275.248699 
L 214.41694 270.459327 
L 226.161753 270.615763 
" clip-path="url(#p76e047e7f2)" style="fill: #e6482f"/>
    <path d="M 197.186624 270.068235 
L 201.85781 269.959932 
L 201.975298 274.971926 
L 197.304112 275.080228 
L 197.186624 270.068235 
" clip-path="url(#p76e047e7f2)" style="fill: #e6482f"/>
    <path d="M 241.167888 269.526723 
L 241.094964 274.863623 
L 229.504102 274.707187 
L 229.577026 269.376303 
L 241.167888 269.526723 
" clip-path="url(#p76e047e7f2)" style="fill: #e6482f"/>
    <path d="M 206.727511 269.671126 
L 210.969256 269.454521 
L 211.212336 274.207792 
L 206.974643 274.424397 
L 206.727511 269.671126 
" clip-path="url(#p76e047e7f2)" style="fill: #e6482f"/>
    <path d="M 251.559555 266.578491 
L 251.790481 270.363058 
L 249.015319 270.531528 
L 249.084191 271.680737 
L 244.8546 271.939459 
L 244.781676 270.724066 
L 242.606111 270.856435 
L 242.379236 267.14407 
L 251.559555 266.578491 
" clip-path="url(#p76e047e7f2)" style="fill: #e6482f"/>
    <path d="M 274.850665 271.253544 
L 263.794579 271.608535 
L 263.640628 266.873314 
L 274.696714 266.52434 
L 274.850665 271.253544 
" clip-path="url(#p76e047e7f2)" style="fill: #e6482f"/>
    <path d="M 257.539322 270.008067 
L 251.790481 270.363058 
L 251.559555 266.578491 
L 257.308396 266.229517 
L 257.539322 270.008067 
" clip-path="url(#p76e047e7f2)" style="fill: #e6482f"/>
    <path d="M 217.747135 249.442647 
L 222.811301 248.612329 
L 227.198894 247.89633 
L 228.102341 253.413735 
L 218.654634 254.960052 
L 217.747135 249.442647 
" clip-path="url(#p76e047e7f2)" style="fill: #e6482f"/>
    <path d="M 247.366426 236.410261 
L 247.726995 238.841048 
L 250.911342 238.371737 
L 251.636531 243.311529 
L 248.452183 243.78084 
L 249.533889 251.103284 
L 245.976819 251.626746 
L 243.809356 236.939739 
L 247.366426 236.410261 
" clip-path="url(#p76e047e7f2)" style="fill: #e6482f"/>
    <path d="M 179.077168 247.649641 
L 178.351979 241.512506 
L 191.61199 239.936105 
L 192.34123 246.079257 
L 179.077168 247.649641 
" clip-path="url(#p76e047e7f2)" style="fill: #e6482f"/>
    <path d="M 279.939138 301.042716 
L 267.882373 301.548127 
L 267.667653 296.439865 
L 279.724418 295.934454 
L 279.939138 301.042716 
" clip-path="url(#p76e047e7f2)" style="fill: #e6482f"/>
    <path d="M 287.717697 266.837214 
L 287.656927 271.22346 
L 278.144398 271.09109 
L 278.205168 266.710861 
L 287.717697 266.837214 
" clip-path="url(#p76e047e7f2)" style="fill: #e6482f"/>
    <path d="M 624.176798 241.211666 
L 636.509054 240.555835 
L 636.80075 246.013072 
L 624.464443 246.662886 
L 624.176798 241.211666 
" clip-path="url(#p76e047e7f2)" style="fill: #e6482f"/>
    <path d="M 525.741576 235.200884 
L 525.539009 229.845933 
L 541.185255 229.25027 
L 541.391873 234.599204 
L 525.741576 235.200884 
" clip-path="url(#p76e047e7f2)" style="fill: #e6482f"/>
    <path d="M 556.600574 228.052927 
L 568.989549 227.565566 
L 569.208321 233.131105 
L 556.819346 233.624483 
L 556.600574 228.052927 
" clip-path="url(#p76e047e7f2)" style="fill: #e6482f"/>
    <path d="M 579.093572 226.795416 
L 590.664177 226.308055 
L 590.887 231.560721 
L 579.316395 232.048081 
L 579.093572 226.795416 
" clip-path="url(#p76e047e7f2)" style="fill: #e6482f"/>
    <path d="M 602.793866 224.214209 
L 615.235508 223.961504 
L 615.33274 228.853161 
L 602.891098 229.105867 
L 602.793866 224.214209 
" clip-path="url(#p76e047e7f2)" style="fill: #e6482f"/>
    <path d="M 623.670382 223.624563 
L 636.148485 223.413975 
L 636.237615 228.684691 
L 623.759511 228.895279 
L 623.670382 223.624563 
" clip-path="url(#p76e047e7f2)" style="fill: #e6482f"/>
    <path d="M 663.478774 211.416477 
L 664.199911 223.419992 
L 658.973692 223.738882 
L 658.252555 211.729351 
L 663.478774 211.416477 
" clip-path="url(#p76e047e7f2)" style="fill: #e6482f"/>
    <path d="M 654.889949 190.688605 
L 661.58275 190.273446 
L 662.077013 198.21562 
L 655.38016 198.630779 
L 654.889949 190.688605 
" clip-path="url(#p76e047e7f2)" style="fill: #e6482f"/>
    <path d="M 220.607376 235.164783 
L 222.811301 248.612329 
L 217.747135 249.442647 
L 215.543211 235.995102 
L 220.607376 235.164783 
" clip-path="url(#p76e047e7f2)" style="fill: #e6482f"/>
    <path d="M 195.95907 241.566658 
L 195.570142 236.09137 
L 200.391227 235.748413 
L 200.780155 241.2237 
L 195.95907 241.566658 
" clip-path="url(#p76e047e7f2)" style="fill: #e6482f"/>
    <path d="M 227.972698 233.552281 
L 237.967335 232.733997 
L 238.37652 237.752007 
L 228.381883 238.564275 
L 227.972698 233.552281 
" clip-path="url(#p76e047e7f2)" style="fill: #e6482f"/>
    <path d="M 200.391227 235.748413 
L 195.570142 236.09137 
L 194.188638 236.187639 
L 193.89289 232.024014 
L 200.09548 231.578771 
L 200.391227 235.748413 
" clip-path="url(#p76e047e7f2)" style="fill: #e6482f"/>
    <path d="M 167.575435 216.169749 
L 176.265543 215.79069 
L 176.71119 225.90493 
L 168.017031 226.290005 
L 167.575435 216.169749 
" clip-path="url(#p76e047e7f2)" style="fill: #e6482f"/>
    <path d="M 202.627563 225.038511 
L 202.627563 221.885708 
L 195.185265 221.885708 
L 195.185265 225.796627 
L 190.94352 225.796627 
L 190.94352 217.974788 
L 187.524196 217.974788 
L 187.524196 213.684811 
L 194.966493 213.684811 
L 194.966493 216.07348 
L 197.409447 216.07348 
L 197.409447 214.713683 
L 199.694398 214.713683 
L 199.694398 216.07348 
L 205.451342 216.07348 
L 205.451342 225.038511 
L 202.627563 225.038511 
" clip-path="url(#p76e047e7f2)" style="fill: #e6482f"/>
    <path d="M 193.463449 200.736659 
L 201.177186 200.086845 
L 201.43242 203.089228 
L 193.714632 203.739042 
L 193.463449 200.736659 
" clip-path="url(#p76e047e7f2)" style="fill: #e6482f"/>
    <path d="M 195.071828 185.983468 
L 196.076559 193.684971 
L 178.716599 195.953304 
L 177.711869 188.251801 
L 195.071828 185.983468 
" clip-path="url(#p76e047e7f2)" style="fill: #e6482f"/>
    <path d="M 220.728916 184.286731 
L 223.670183 184.034025 
L 223.536489 182.481691 
L 227.271818 182.168817 
L 227.405512 183.721151 
L 230.994992 183.414295 
L 231.298842 186.99429 
L 221.032766 187.866726 
L 220.728916 184.286731 
" clip-path="url(#p76e047e7f2)" style="fill: #e6482f"/>
    <path d="M 102.478627 263.377554 
L 101.947902 255.633934 
L 130.315332 253.690508 
L 130.846056 261.434128 
L 102.478627 263.377554 
" clip-path="url(#p76e047e7f2)" style="fill: #e6482f"/>
    <path d="M 139.329546 253.070777 
L 139.860271 260.820415 
L 130.846056 261.434128 
L 130.315332 253.690508 
L 139.329546 253.070777 
" clip-path="url(#p76e047e7f2)" style="fill: #e6482f"/>
    <path d="M 166.659834 254.430574 
L 166.850247 259.466635 
L 155.384976 259.899844 
L 155.194564 254.8698 
L 166.659834 254.430574 
" clip-path="url(#p76e047e7f2)" style="fill: #e6482f"/>
    <path d="M 129.30655 241.933682 
L 129.590143 250.050344 
L 125.74948 250.182714 
L 125.465887 242.072069 
L 129.30655 241.933682 
" clip-path="url(#p76e047e7f2)" style="fill: #e6482f"/>
    <path d="M 123.448323 219.924231 
L 124.517875 242.421043 
L 117.541481 242.751967 
L 116.471929 220.255155 
L 123.448323 219.924231 
" clip-path="url(#p76e047e7f2)" style="fill: #e6482f"/>
    <path d="M 78.616279 220.880902 
L 78.907975 225.417569 
L 80.277326 225.327317 
L 80.68651 231.687073 
L 79.313108 231.777325 
L 79.568342 235.748413 
L 73.248264 236.151538 
L 72.296201 221.284028 
L 78.616279 220.880902 
" clip-path="url(#p76e047e7f2)" style="fill: #e6482f"/>
    <path d="M 82.533918 210.483874 
L 110.176158 208.847304 
L 110.674472 217.240739 
L 83.02818 218.871292 
L 82.533918 210.483874 
" clip-path="url(#p76e047e7f2)" style="fill: #e6482f"/>
    <path d="M 73.69391 206.621089 
L 70.598692 206.67524 
L 70.546025 203.63074 
L 73.641243 203.576588 
L 73.69391 206.621089 
" clip-path="url(#p76e047e7f2)" style="fill: #e6482f"/>
    <path d="M 166.882657 194.413003 
L 167.056865 193.823357 
L 167.543025 193.444299 
L 168.158827 193.426248 
L 168.669295 193.769206 
L 168.875913 194.352835 
L 168.705757 194.942482 
L 168.219597 195.32154 
L 167.603795 195.33959 
L 167.093327 194.990616 
L 166.882657 194.413003 
" clip-path="url(#p76e047e7f2)" style="fill: #e6482f"/>
    <path d="M 106.809501 166.146081 
L 109.134966 197.872663 
L 99.411768 198.582645 
L 97.086303 166.856064 
L 106.809501 166.146081 
" clip-path="url(#p76e047e7f2)" style="fill: #e6482f"/>
    <path d="M 676.054109 175.947447 
L 676.888684 186.898021 
L 671.293794 187.325214 
L 670.463271 176.37464 
L 676.054109 175.947447 
" clip-path="url(#p76e047e7f2)" style="fill: #e6482f"/>
    <path d="M 748.670191 189.557447 
L 745.088813 188.685011 
L 746.616165 182.415506 
L 741.616821 181.200113 
L 744.019261 171.356629 
L 749.018605 172.572023 
L 749.435892 170.863252 
L 753.01727 171.741705 
L 748.670191 189.557447 
" clip-path="url(#p76e047e7f2)" style="fill: #e6482f"/>
    <path d="M 726.995562 168.510683 
L 737.334563 169.539556 
L 736.787633 175.068994 
L 726.444581 174.040122 
L 726.995562 168.510683 
" clip-path="url(#p76e047e7f2)" style="fill: #e6482f"/>
    <path d="M 691.858357 168.34823 
L 710.117712 167.150887 
L 710.563358 173.973937 
L 692.308055 175.165263 
L 691.858357 168.34823 
" clip-path="url(#p76e047e7f2)" style="fill: #e6482f"/>
    <path d="M 672.501091 133.553081 
L 672.744171 140.652904 
L 672.865711 144.208832 
L 673.120945 151.621529 
L 667.696211 151.808049 
L 667.440977 144.395353 
L 667.319437 140.839425 
L 667.076357 133.739602 
L 672.501091 133.553081 
" clip-path="url(#p76e047e7f2)" style="fill: #e6482f"/>
    <path d="M 732.104292 154.581794 
L 729.807187 121.531516 
L 734.972636 121.170508 
L 737.269741 154.226802 
L 732.104292 154.581794 
" clip-path="url(#p76e047e7f2)" style="fill: #e6482f"/>
    <path d="M 721.3318 132.837082 
L 725.512775 132.530225 
L 725.812573 136.627665 
L 721.631598 136.928505 
L 722.992846 155.694901 
L 716.903693 156.134128 
L 713.966477 115.695221 
L 720.05563 115.255995 
L 720.525585 121.742104 
L 721.3318 132.837082 
" clip-path="url(#p76e047e7f2)" style="fill: #e6482f"/>
    <path d="M 729.414208 114.576097 
L 729.888214 121.062206 
L 720.525585 121.742104 
L 720.05563 115.255995 
L 729.414208 114.576097 
" clip-path="url(#p76e047e7f2)" style="fill: #e6482f"/>
    <path d="M 671.19251 114.690416 
L 665.395054 115.057441 
L 664.904843 107.343904 
L 670.702299 106.97688 
L 671.19251 114.690416 
" clip-path="url(#p76e047e7f2)" style="fill: #e6482f"/>
    <path d="M 691.112912 105.562932 
L 703.720658 105.075571 
L 703.955635 111.104404 
L 698.356694 111.321008 
L 698.445823 113.625442 
L 695.512659 113.739762 
L 695.423529 111.435328 
L 691.347889 111.597781 
L 691.112912 105.562932 
" clip-path="url(#p76e047e7f2)" style="fill: #e6482f"/>
    <path d="M 88.343528 138.679394 
L 90.713558 138.631259 
L 90.754071 140.779257 
L 94.140985 140.713072 
L 94.234166 145.550578 
L 88.473171 145.658881 
L 88.343528 138.679394 
" clip-path="url(#p76e047e7f2)" style="fill: #e6482f"/>
    <path d="M 167.672667 132.776914 
L 168.426215 149.726237 
L 158.204704 150.183514 
L 158.135831 148.571011 
L 156.584171 148.637196 
L 155.980522 135.051264 
L 157.532182 134.985079 
L 157.455207 133.234191 
L 167.672667 132.776914 
" clip-path="url(#p76e047e7f2)" style="fill: #e6482f"/>
    <path d="M 71.182084 139.082519 
L 71.429216 142.307524 
L 53.011859 143.715455 
L 52.764727 140.496467 
L 71.182084 139.082519 
" clip-path="url(#p76e047e7f2)" style="fill: #e6482f"/>
    <path d="M 82.173349 146.531317 
L 76.61087 147.187148 
L 75.930246 141.405004 
L 74.24084 141.603558 
L 73.673654 136.790119 
L 75.363059 136.591564 
L 74.273251 127.355778 
L 79.83573 126.699947 
L 82.173349 146.531317 
" clip-path="url(#p76e047e7f2)" style="fill: #e6482f"/>
    <path d="M 111.355096 129.491742 
L 116.151874 129.305221 
L 116.690701 143.432665 
L 107.255148 143.793673 
L 107.068786 138.932099 
L 111.711613 138.757612 
L 111.355096 129.491742 
" clip-path="url(#p76e047e7f2)" style="fill: #e6482f"/>
    <path d="M 141.971015 141.67576 
L 135.29847 142.054818 
L 134.480101 127.722803 
L 141.152646 127.343744 
L 141.971015 141.67576 
" clip-path="url(#p76e047e7f2)" style="fill: #e6482f"/>
    <path d="M 97.685901 127.193324 
L 93.132203 127.391879 
L 92.646043 115.965977 
L 97.199741 115.77344 
L 97.685901 127.193324 
" clip-path="url(#p76e047e7f2)" style="fill: #e6482f"/>
    <path d="M 72.012607 109.257246 
L 67.264446 109.636305 
L 66.664849 102.139373 
L 71.41301 101.760315 
L 72.012607 109.257246 
" clip-path="url(#p76e047e7f2)" style="fill: #e6482f"/>
    <path d="M 152.314066 102.349961 
L 150.430197 102.452247 
L 150.272195 99.618334 
L 152.160116 99.516049 
L 152.314066 102.349961 
" clip-path="url(#p76e047e7f2)" style="fill: #e6482f"/>
    <path d="M 712.710564 88.902415 
L 713.379034 100.665257 
L 708.959031 100.911946 
L 708.294612 89.155121 
L 712.710564 88.902415 
" clip-path="url(#p76e047e7f2)" style="fill: #e6482f"/>
    <path d="M 635.4314 66.201032 
L 635.921611 73.661863 
L 625.619073 74.341761 
L 625.128861 66.880931 
L 635.4314 66.201032 
" clip-path="url(#p76e047e7f2)" style="fill: #e6482f"/>
    <path d="M 671.613849 65.268428 
L 671.909596 73.282805 
L 666.298501 73.487376 
L 666.002754 65.473 
L 671.613849 65.268428 
" clip-path="url(#p76e047e7f2)" style="fill: #e6482f"/>
    <path d="M 723.134643 72.524688 
L 722.158272 56.935162 
L 729.000972 56.501952 
L 729.977343 72.097495 
L 723.134643 72.524688 
" clip-path="url(#p76e047e7f2)" style="fill: #e6482f"/>
    <path d="M 679.137173 62.422483 
L 680.583499 62.290113 
L 680.421445 60.563292 
L 684.768525 60.148133 
L 684.930578 61.880971 
L 691.797587 61.231156 
L 692.218925 65.683588 
L 679.558512 66.880931 
L 679.137173 62.422483 
" clip-path="url(#p76e047e7f2)" style="fill: #e6482f"/>
    <path d="M 698.308078 59.510352 
L 711.021159 58.529614 
L 711.397933 63.403221 
L 698.684852 64.383959 
L 698.308078 59.510352 
" clip-path="url(#p76e047e7f2)" style="fill: #e6482f"/>
    <path d="M 759.989613 54.973685 
L 760.086845 58.950789 
L 752.77419 59.131293 
L 752.68101 55.148172 
L 759.989613 54.973685 
" clip-path="url(#p76e047e7f2)" style="fill: #e6482f"/>
    <path d="M 748.289365 60.196267 
L 748.261006 59.004941 
L 746.259648 59.053075 
L 746.1138 53.000175 
L 752.624291 52.843738 
L 752.68101 55.148172 
L 752.77419 59.131293 
L 752.798498 60.087965 
L 748.289365 60.196267 
" clip-path="url(#p76e047e7f2)" style="fill: #e6482f"/>
    <path d="M 93.047125 94.455921 
L 93.355026 105.009386 
L 89.234821 105.129722 
L 88.92692 94.576257 
L 93.047125 94.455921 
" clip-path="url(#p76e047e7f2)" style="fill: #e6482f"/>
    <path d="M 127.353808 95.460726 
L 127.515861 102.716986 
L 124.116793 102.795204 
L 123.95474 95.538945 
L 127.353808 95.460726 
" clip-path="url(#p76e047e7f2)" style="fill: #e6482f"/>
    <path d="M 98.909403 93.571451 
L 102.42596 93.36688 
L 103.078224 104.239236 
L 99.557616 104.449824 
L 98.909403 93.571451 
" clip-path="url(#p76e047e7f2)" style="fill: #e6482f"/>
    <path d="M 116.41521 92.253772 
L 120.061409 92.253772 
L 120.061409 103.156212 
L 116.41521 103.156212 
L 116.41521 92.253772 
" clip-path="url(#p76e047e7f2)" style="fill: #e6482f"/>
    <path d="M 137.12157 91.646076 
L 137.324137 95.990204 
L 139.090517 95.905969 
L 139.378162 101.99497 
L 132.385562 102.319877 
L 132.199201 98.354806 
L 134.05066 98.270571 
L 133.74681 91.802512 
L 137.12157 91.646076 
" clip-path="url(#p76e047e7f2)" style="fill: #e6482f"/>
    <path d="M 128.856852 95.388525 
L 123.156627 95.520894 
L 122.994574 88.697844 
L 128.694799 88.565474 
L 128.856852 95.388525 
" clip-path="url(#p76e047e7f2)" style="fill: #e6482f"/>
    <path d="M 66.008533 72.253932 
L 66.770183 83.613649 
L 61.851866 83.938556 
L 61.090215 72.584856 
L 66.008533 72.253932 
" clip-path="url(#p76e047e7f2)" style="fill: #e6482f"/>
    <path d="M 124.400386 75.671474 
L 119.554993 76.008415 
L 119.238989 71.405564 
L 124.084382 71.068623 
L 124.400386 75.671474 
" clip-path="url(#p76e047e7f2)" style="fill: #e6482f"/>
   </g>
   <g id="LineCollection_1">
    <path d="M 129.915739 467.46555 
L 184.692315 465.638271 
" clip-path="url(#p76e047e7f2)" style="fill: none; stroke: #e6482f; stroke-width: 0.2"/>
    <path d="M 135.428113 192.698216 
L 134.127635 192.776434 
L 134.362613 196.819723 
" clip-path="url(#p76e047e7f2)" style="fill: none; stroke: #e6482f; stroke-width: 0.2"/>
    <path d="M 136.748847 196.681337 
L 136.51387 192.638048 
L 135.428113 192.698216 
L 134.613795 181.326465 
" clip-path="url(#p76e047e7f2)" style="fill: none; stroke: #e6482f; stroke-width: 0.2"/>
    <path d="M 54.114414 185.25203 
L 57.670891 185.183234 
L 91.070075 183.245824 
" clip-path="url(#p76e047e7f2)" style="fill: none; stroke: #e6482f; stroke-width: 0.2"/>
    <path d="M 89.336105 157.933151 
L 91.070075 183.245824 
L 92.488041 204.713763 
" clip-path="url(#p76e047e7f2)" style="fill: none; stroke: #e6482f; stroke-width: 0.2"/>
    <path d="M 113.575226 179.972686 
L 131.854838 178.913729 
" clip-path="url(#p76e047e7f2)" style="fill: none; stroke: #e6482f; stroke-width: 0.2"/>
    <path d="M 184.108923 455.638351 
L 186.871931 461.93794 
L 188.552705 463.618321 
" clip-path="url(#p76e047e7f2)" style="fill: none; stroke: #e6482f; stroke-width: 0.2"/>
    <path d="M 184.692315 465.638271 
L 184.108923 455.638351 
L 176.34657 322.474554 
" clip-path="url(#p76e047e7f2)" style="fill: none; stroke: #e6482f; stroke-width: 0.2"/>
    <path d="M 173.737512 267.324574 
L 175.066349 295.790051 
L 176.34657 322.474554 
" clip-path="url(#p76e047e7f2)" style="fill: none; stroke: #e6482f; stroke-width: 0.2"/>
    <path d="M 175.066349 295.790051 
L 291.278818 284.424317 
" clip-path="url(#p76e047e7f2)" style="fill: none; stroke: #e6482f; stroke-width: 0.2"/>
    <path d="M 289.330127 259.075543 
L 291.278818 284.424317 
L 291.841953 306.722574 
" clip-path="url(#p76e047e7f2)" style="fill: none; stroke: #e6482f; stroke-width: 0.2"/>
    <path d="M 60.638448 272.674346 
L 80.487995 273.449676 
L 173.737512 267.324574 
L 289.330127 259.075543 
" clip-path="url(#p76e047e7f2)" style="fill: none; stroke: #e6482f; stroke-width: 0.2"/>
    <path d="M 289.330127 259.075543 
L 299.446983 258.113862 
" clip-path="url(#p76e047e7f2)" style="fill: none; stroke: #e6482f; stroke-width: 0.2"/>
    <path d="M 501.789537 243.581863 
L 528.083246 242.005884 
" clip-path="url(#p76e047e7f2)" style="fill: none; stroke: #e6482f; stroke-width: 0.2"/>
    <path d="M 738.509449 229.581194 
L 736.818768 235.283827 
" clip-path="url(#p76e047e7f2)" style="fill: none; stroke: #e6482f; stroke-width: 0.2"/>
    <path d="M 750.464931 195.92322 
L 749.865334 201.512826 
L 750.709443 204.39382 
" clip-path="url(#p76e047e7f2)" style="fill: none; stroke: #e6482f; stroke-width: 0.2"/>
    <path d="M 738.509449 229.581194 
L 670.321474 233.462029 
L 528.083246 242.005884 
" clip-path="url(#p76e047e7f2)" style="fill: none; stroke: #e6482f; stroke-width: 0.2"/>
    <path d="M 755.15576 195.726156 
L 754.212413 194.232499 
L 753.033475 187.27708 
" clip-path="url(#p76e047e7f2)" style="fill: none; stroke: #e6482f; stroke-width: 0.2"/>
    <path d="M 738.509449 229.581194 
L 750.464931 195.92322 
" clip-path="url(#p76e047e7f2)" style="fill: none; stroke: #e6482f; stroke-width: 0.2"/>
    <path d="M 137.024338 178.612889 
L 145.357929 178.125528 
" clip-path="url(#p76e047e7f2)" style="fill: none; stroke: #e6482f; stroke-width: 0.2"/>
    <path d="M 112.03572 157.156984 
L 113.575226 179.972686 
L 114.786575 197.956898 
L 134.362613 196.819723 
L 136.748847 196.681337 
L 152.095294 195.79085 
" clip-path="url(#p76e047e7f2)" style="fill: none; stroke: #e6482f; stroke-width: 0.2"/>
    <path d="M 133.066186 176.549127 
L 132.43823 164.85247 
L 135.051339 164.732134 
L 135.703604 176.482942 
" clip-path="url(#p76e047e7f2)" style="fill: none; stroke: #e6482f; stroke-width: 0.2"/>
    <path d="M 149.948088 155.785153 
L 112.03572 157.156984 
L 89.336105 157.933151 
" clip-path="url(#p76e047e7f2)" style="fill: none; stroke: #e6482f; stroke-width: 0.2"/>
    <path d="M 145.977782 80.978291 
L 147.578059 107.307803 
L 149.948088 155.785153 
" clip-path="url(#p76e047e7f2)" style="fill: none; stroke: #e6482f; stroke-width: 0.2"/>
    <path d="M 147.578059 107.307803 
L 95.145715 110.02138 
" clip-path="url(#p76e047e7f2)" style="fill: none; stroke: #e6482f; stroke-width: 0.2"/>
    <path d="M 104.762098 32.457292 
L 115.479352 47.212015 
L 145.977782 80.978291 
" clip-path="url(#p76e047e7f2)" style="fill: none; stroke: #e6482f; stroke-width: 0.2"/>
    <path d="M 185.263552 211.536813 
L 157.856289 212.758224 
L 154.594966 211.729351 
L 152.75161 209.232379 
L 152.095294 195.79085 
L 151.147283 177.788588 
L 149.992653 156.54327 
L 149.948088 155.785153 
" clip-path="url(#p76e047e7f2)" style="fill: none; stroke: #e6482f; stroke-width: 0.2"/>
    <path d="M 210.58438 173.751315 
L 151.147283 177.788588 
L 147.841395 177.981125 
" clip-path="url(#p76e047e7f2)" style="fill: none; stroke: #e6482f; stroke-width: 0.2"/>
    <path d="M 239.600346 171.867175 
L 210.58438 173.751315 
" clip-path="url(#p76e047e7f2)" style="fill: none; stroke: #e6482f; stroke-width: 0.2"/>
    <path d="M 496.783725 155.045813 
L 582.731668 149.317094 
" clip-path="url(#p76e047e7f2)" style="fill: none; stroke: #e6482f; stroke-width: 0.2"/>
    <path d="M 153.399823 111.321008 
L 166.842144 104.076782 
L 178.287158 97.903547 
" clip-path="url(#p76e047e7f2)" style="fill: none; stroke: #e6482f; stroke-width: 0.2"/>
    <path d="M 145.977782 80.978291 
L 155.401182 91.41142 
L 166.842144 104.076782 
" clip-path="url(#p76e047e7f2)" style="fill: none; stroke: #e6482f; stroke-width: 0.2"/>
    <path d="M 792.152718 45.166998 
L 793.247001 46.724654 
" clip-path="url(#p76e047e7f2)" style="fill: none; stroke: #e6482f; stroke-width: 0.2"/>
    <path d="M 592.945077 148.679314 
L 655.047951 144.816529 
L 663.004768 144.323151 
" clip-path="url(#p76e047e7f2)" style="fill: none; stroke: #e6482f; stroke-width: 0.2"/>
    <path d="M 759.009191 167.31334 
L 730.086729 161.52518 
L 727.449312 123.589262 
" clip-path="url(#p76e047e7f2)" style="fill: none; stroke: #e6482f; stroke-width: 0.2"/>
    <path d="M 663.519287 151.519243 
L 661.509826 151.410941 
L 659.589494 150.803244 
L 657.879832 149.732254 
L 656.542893 148.342373 
L 655.578675 146.669703 
L 655.047951 144.816529 
L 655.513854 142.909203 
L 656.360583 141.134248 
L 657.555726 139.575897 
L 658.993949 138.324403 
L 660.654995 137.379765 
L 662.469992 136.790119 
" clip-path="url(#p76e047e7f2)" style="fill: none; stroke: #e6482f; stroke-width: 0.2"/>
    <path d="M 656.655419 55.302383 
L 662.469992 136.790119 
L 663.004768 144.323151 
L 663.519287 151.519243 
L 670.321474 233.462029 
" clip-path="url(#p76e047e7f2)" style="fill: none; stroke: #e6482f; stroke-width: 0.2"/>
    <path d="M 793.247001 46.724654 
L 792.878329 54.155401 
L 759.009191 167.31334 
L 753.033475 187.27708 
L 750.464931 195.92322 
" clip-path="url(#p76e047e7f2)" style="fill: none; stroke: #e6482f; stroke-width: 0.2"/>
    <path d="M 715.805449 50.877879 
L 720.525585 103.174263 
" clip-path="url(#p76e047e7f2)" style="fill: none; stroke: #e6482f; stroke-width: 0.2"/>
    <path d="M 793.247001 46.724654 
L 793.789433 45.044569 
" clip-path="url(#p76e047e7f2)" style="fill: none; stroke: #e6482f; stroke-width: 0.2"/>
   </g>
  </g>
 </g>
 <defs>
  <clipPath id="p76e047e7f2">
   <rect x="7.2" y="7.2" width="837" height="485.935344"/>
  </clipPath>
 </defs>
</svg>
