<?xml version="1.0" encoding="utf-8" standalone="no"?>
<!DOCTYPE svg PUBLIC "-//W3C//DTD SVG 1.1//EN"
  "http://www.w3.org/Graphics/SVG/1.1/DTD/svg11.dtd">
<svg xmlns:xlink="http://www.w3.org/1999/xlink" width="851.4pt" height="653.909823pt" viewBox="0 0 851.4 653.909823" xmlns="http://www.w3.org/2000/svg" version="1.1">
 <metadata>
  <rdf:RDF xmlns:dc="http://purl.org/dc/elements/1.1/" xmlns:cc="http://creativecommons.org/ns#" xmlns:rdf="http://www.w3.org/1999/02/22-rdf-syntax-ns#">
   <cc:Work>
    <dc:type rdf:resource="http://purl.org/dc/dcmitype/StillImage"/>
    <dc:date>2025-03-16T14:37:54.753500</dc:date>
    <dc:format>image/svg+xml</dc:format>
    <dc:creator>
     <cc:Agent>
      <dc:title>Matplotlib v3.10.1, https://matplotlib.org/</dc:title>
     </cc:Agent>
    </dc:creator>
   </cc:Work>
  </rdf:RDF>
 </metadata>
 <defs>
  <style type="text/css">*{stroke-linejoin: round; stroke-linecap: butt}</style>
 </defs>
 <g id="figure_1">
  <g id="patch_1">
   <path d="M 0 653.909823 
L 851.4 653.909823 
L 851.4 0 
L 0 0 
z
" style="fill: #ffffff"/>
  </g>
  <g id="axes_1">
   <g id="PatchCollection_1">
    <path d="M 45.245455 473.98125 
L 60.096138 512.631805 
L 135.285307 599.095453 
L 136.69692 600.719284 
L 205.498699 555.024129 
L 236.100688 569.509093 
L 249.263503 563.997179 
L 292.426295 586.042435 
L 314.157795 589.913727 
L 361.218493 598.183996 
L 400.39715 592.554552 
L 421.3941 574.368595 
L 446.726492 547.737274 
L 473.968713 482.728834 
L 513.332605 501.82145 
L 557.849524 513.605624 
L 573.792451 517.023586 
L 583.28092 507.911419 
L 711.352893 584.917506 
L 755.58238 599.519999 
L 788.151685 617.641195 
L 804.687042 578.139147 
L 806.154545 520.264054 
L 776.909877 499.058298 
L 718.032507 431.989487 
L 751.815416 409.973014 
L 721.069711 356.069952 
L 705.126784 366.698015 
L 685.389747 330.637916 
L 698.673923 315.075994 
L 648.283798 244.649185 
L 616.782784 176.004513 
L 573.356512 114.800205 
L 571.135296 84.319179 
L 564.575446 59.347668 
L 517.993803 36.882662 
L 495.850316 36.268628 
L 484.763403 54.696841 
L 470.482794 84.237628 
L 469.026469 92.668601 
L 428.517638 165.016665 
L 402.350095 190.914024 
L 392.730685 175.023498 
L 376.327865 172.624928 
L 324.406364 198.932443 
L 322.887761 173.505203 
L 259.4977 180.33633 
L 248.489032 194.758931 
L 245.520492 216.06063 
L 206.736256 260.040808 
L 175.33265 359.569466 
L 119.958763 354.417338 
L 80.859948 410.78373 
L 58.698896 447.172434 
L 45.245455 473.98125 
" clip-path="url(#pf7fc06d5c5)" style="fill: #fbd6c9"/>
   </g>
   <g id="PatchCollection_2">
    <path d="M 72.645764 522.391586 
L 73.96955 525.032411 
L 71.818198 526.111566 
L 69.817151 523.810466 
L 72.645764 522.391586 
" clip-path="url(#pf7fc06d5c5)" style="fill: #e6482f"/>
    <path d="M 486.443287 402.580621 
L 480.477464 418.811744 
L 478.538891 418.099368 
L 479.160065 416.408377 
L 477.347642 415.741574 
L 478.700172 412.059769 
L 480.354507 412.669006 
L 484.345029 401.81068 
L 486.443287 402.580621 
" clip-path="url(#pf7fc06d5c5)" style="fill: #e6482f"/>
    <path d="M 495.037521 371.732614 
L 493.563631 375.987677 
L 489.00463 374.409418 
L 490.478521 370.154355 
L 495.037521 371.732614 
" clip-path="url(#pf7fc06d5c5)" style="fill: #e6482f"/>
    <path d="M 485.961039 359.852497 
L 481.654341 368.590487 
L 478.171616 366.87551 
L 479.08661 365.019017 
L 480.332151 365.63305 
L 481.144946 363.980436 
L 479.936133 363.38559 
L 480.924581 361.377987 
L 482.103055 361.96084 
L 482.944594 360.253058 
L 481.73578 359.655814 
L 482.484701 358.13752 
L 485.961039 359.852497 
" clip-path="url(#pf7fc06d5c5)" style="fill: #e6482f"/>
    <path d="M 467.619647 350.721141 
L 466.484288 353.455511 
L 461.744844 351.486285 
L 462.881799 348.751916 
L 467.619647 350.721141 
" clip-path="url(#pf7fc06d5c5)" style="fill: #e6482f"/>
    <path d="M 487.891628 337.291549 
L 488.367488 336.356106 
L 491.749612 338.07828 
L 488.91361 343.642962 
L 489.614626 344.000349 
L 488.463299 346.259801 
L 482.499073 343.220813 
L 483.584929 341.093282 
L 485.127484 341.877614 
L 486.88721 338.426072 
L 485.367011 337.648936 
L 486.032897 336.344113 
L 487.891628 337.291549 
" clip-path="url(#pf7fc06d5c5)" style="fill: #e6482f"/>
    <path d="M 730.519856 493.680704 
L 732.186965 494.788844 
L 730.874356 496.762867 
L 729.208844 495.654727 
L 730.519856 493.680704 
" clip-path="url(#pf7fc06d5c5)" style="fill: #e6482f"/>
    <path d="M 725.14806 493.378484 
L 723.932859 492.505405 
L 724.542855 491.656311 
L 723.888147 491.186192 
L 724.96602 489.687085 
L 726.835928 491.032683 
L 725.14806 493.378484 
" clip-path="url(#pf7fc06d5c5)" style="fill: #e6482f"/>
    <path d="M 668.095887 450.192233 
L 670.312311 452.485266 
L 670.794559 452.024741 
L 671.83251 453.020147 
L 670.248437 454.466485 
L 668.988525 455.620197 
L 668.014448 454.579218 
L 669.215277 453.281592 
L 667.110632 451.125277 
L 668.095887 450.192233 
" clip-path="url(#pf7fc06d5c5)" style="fill: #e6482f"/>
    <path d="M 664.71536 449.868427 
L 665.160881 450.405706 
L 665.858703 449.825252 
L 666.438359 450.523236 
L 664.7457 451.931197 
L 663.718927 450.695933 
L 664.71536 449.868427 
" clip-path="url(#pf7fc06d5c5)" style="fill: #e6482f"/>
    <path d="M 613.01103 192.163679 
L 613.807857 193.641198 
L 612.230171 194.490291 
L 611.433344 193.012772 
L 613.01103 192.163679 
" clip-path="url(#pf7fc06d5c5)" style="fill: #e6482f"/>
   </g>
   <g id="LineCollection_1">
    <path d="M 288.349543 578.85632 
L 285.76265 582.015236 
L 285.328969 582.417499 
" clip-path="url(#pf7fc06d5c5)" style="fill: none; stroke: #e6482f; stroke-width: 0.2"/>
    <path d="M 248.921778 558.219024 
L 273.791083 572.387377 
L 288.349543 578.85632 
" clip-path="url(#pf7fc06d5c5)" style="fill: none; stroke: #e6482f; stroke-width: 0.2"/>
    <path d="M 214.390425 559.232886 
L 217.050295 558.14227 
L 220.384513 557.97437 
L 224.114749 558.538034 
L 228.296893 561.082917 
L 237.564997 565.604221 
L 240.535134 566.618816 
L 243.331214 565.117311 
L 248.921778 558.219024 
L 250.100251 555.59259 
" clip-path="url(#pf7fc06d5c5)" style="fill: none; stroke: #e6482f; stroke-width: 0.2"/>
    <path d="M 105.552004 549.836023 
L 103.674111 549.963147 
L 101.071249 549.063683 
L 98.324671 546.696295 
L 95.673904 543.191984 
L 91.554037 537.792803 
L 88.270918 532.175352 
" clip-path="url(#pf7fc06d5c5)" style="fill: none; stroke: #e6482f; stroke-width: 0.2"/>
    <path d="M 74.893757 529.6483 
L 76.32011 528.769383 
L 77.123325 527.344633 
L 77.155261 525.47135 
L 76.620317 523.456551 
L 75.4642 521.636036 
L 73.397879 517.472119 
L 71.845743 515.469313 
L 70.453292 514.761735 
L 68.923512 514.449921 
L 68.021293 514.382761 
L 67.444831 514.461914 
" clip-path="url(#pf7fc06d5c5)" style="fill: none; stroke: #e6482f; stroke-width: 0.2"/>
    <path d="M 76.32011 528.769383 
L 78.76169 529.133966 
L 81.931433 529.79837 
L 84.11592 530.438788 
L 86.488836 531.527739 
L 88.270918 532.175352 
L 91.697753 532.902119 
L 94.246322 532.539935 
L 106.058204 529.405004 
" clip-path="url(#pf7fc06d5c5)" style="fill: none; stroke: #e6482f; stroke-width: 0.2"/>
    <path d="M 278.134509 497.820636 
L 274.027417 500.367917 
L 272.310805 502.075699 
L 271.544318 503.538827 
L 270.683618 518.491511 
L 267.275945 526.5603 
L 250.100251 555.59259 
" clip-path="url(#pf7fc06d5c5)" style="fill: none; stroke: #e6482f; stroke-width: 0.2"/>
    <path d="M 64.494736 517.689965 
L 65.119821 517.203479 
L 66.041202 515.874671 
L 66.663972 514.968012 
L 67.444831 514.461914 
" clip-path="url(#pf7fc06d5c5)" style="fill: none; stroke: #e6482f; stroke-width: 0.2"/>
    <path d="M 105.552004 549.836023 
L 223.870431 494.448247 
L 227.769933 493.858198 
L 246.167215 493.424057 
L 269.945874 495.688307 
L 278.134509 497.820636 
L 285.813749 501.305758 
L 293.036291 504.416703 
L 319.179881 516.450328 
L 351.126416 530.0838 
L 381.768325 543.13202 
L 411.757125 557.034131 
" clip-path="url(#pf7fc06d5c5)" style="fill: none; stroke: #e6482f; stroke-width: 0.2"/>
    <path d="M 57.381497 502.588993 
L 54.501792 498.071898 
" clip-path="url(#pf7fc06d5c5)" style="fill: none; stroke: #e6482f; stroke-width: 0.2"/>
    <path d="M 802.866636 544.988513 
L 797.228167 578.292656 
L 790.479889 602.237579 
L 785.33145 616.072048 
" clip-path="url(#pf7fc06d5c5)" style="fill: none; stroke: #e6482f; stroke-width: 0.2"/>
    <path d="M 720.282465 564.966201 
L 726.251482 554.443675 
L 730.974957 551.589377 
" clip-path="url(#pf7fc06d5c5)" style="fill: none; stroke: #e6482f; stroke-width: 0.2"/>
    <path d="M 802.866636 544.988513 
L 805.490187 546.464896 
" clip-path="url(#pf7fc06d5c5)" style="fill: none; stroke: #e6482f; stroke-width: 0.2"/>
    <path d="M 790.479889 602.237579 
L 783.971138 599.752661 
L 781.144717 598.124032 
L 775.833602 593.667489 
L 771.378397 591.525566 
L 767.438974 591.09862 
L 764.353864 590.755625 
L 760.928626 589.469992 
L 746.232837 580.974257 
L 720.282465 564.966201 
L 691.777138 545.902368 
L 636.736992 512.116112 
L 609.30794 495.654727 
" clip-path="url(#pf7fc06d5c5)" style="fill: none; stroke: #e6482f; stroke-width: 0.2"/>
    <path d="M 691.777138 545.902368 
L 723.327654 495.573176 
" clip-path="url(#pf7fc06d5c5)" style="fill: none; stroke: #e6482f; stroke-width: 0.2"/>
    <path d="M 656.830126 486.043658 
L 665.370068 491.716276 
L 672.252481 498.46825 
L 679.588399 505.675952 
" clip-path="url(#pf7fc06d5c5)" style="fill: none; stroke: #e6482f; stroke-width: 0.2"/>
    <path d="M 636.736992 512.116112 
L 656.830126 486.043658 
L 673.236139 464.75635 
" clip-path="url(#pf7fc06d5c5)" style="fill: none; stroke: #e6482f; stroke-width: 0.2"/>
    <path d="M 600.606717 511.873857 
L 609.30794 495.654727 
L 611.109184 492.299128 
L 640.582201 444.550797 
" clip-path="url(#pf7fc06d5c5)" style="fill: none; stroke: #e6482f; stroke-width: 0.2"/>
    <path d="M 553.496517 441.382286 
L 554.092141 448.235 
L 554.764414 455.843264 
L 558.044339 466.358595 
L 561.400913 477.096992 
L 563.146268 480.277496 
L 564.308773 482.393034 
L 570.424699 491.342099 
L 580.416175 504.246405 
L 584.36997 507.786694 
L 593.412918 512.931626 
L 600.606717 511.873857 
" clip-path="url(#pf7fc06d5c5)" style="fill: none; stroke: #e6482f; stroke-width: 0.2"/>
    <path d="M 689.955134 475.041418 
L 694.09576 471.717 
L 701.105922 467.092557 
L 710.576825 461.424736 
L 730.786529 451.655361 
" clip-path="url(#pf7fc06d5c5)" style="fill: none; stroke: #e6482f; stroke-width: 0.2"/>
    <path d="M 517.200992 502.84546 
L 515.954629 492.378281 
" clip-path="url(#pf7fc06d5c5)" style="fill: none; stroke: #e6482f; stroke-width: 0.2"/>
    <path d="M 369.173988 576.678418 
L 356.012769 573.447545 
L 335.585894 564.241833 
L 303.850144 548.130639 
L 286.577042 541.630515 
L 267.275945 526.5603 
" clip-path="url(#pf7fc06d5c5)" style="fill: none; stroke: #e6482f; stroke-width: 0.2"/>
    <path d="M 563.146268 480.277496 
L 557.437537 482.261113 
L 543.591271 485.765424 
L 530.537041 489.552765 
L 518.102389 492.774045 
L 515.954629 492.378281 
L 508.382377 446.030715 
L 514.760186 441.207191 
" clip-path="url(#pf7fc06d5c5)" style="fill: none; stroke: #e6482f; stroke-width: 0.2"/>
    <path d="M 411.857726 301.763931 
L 399.753621 329.983106 
L 384.055011 366.151142 
L 364.923179 414.659819 
L 340.98803 469.769361 
L 319.179881 516.450328 
L 303.850144 548.130639 
L 289.7899 576.448156 
L 288.349543 578.85632 
" clip-path="url(#pf7fc06d5c5)" style="fill: none; stroke: #e6482f; stroke-width: 0.2"/>
    <path d="M 335.585894 564.241833 
L 351.126416 530.0838 
L 370.611151 482.29949 
L 394.340307 424.88972 
L 412.549161 378.055244 
L 438.304717 314.176531 
" clip-path="url(#pf7fc06d5c5)" style="fill: none; stroke: #e6482f; stroke-width: 0.2"/>
    <path d="M 434.528172 507.40772 
L 402.599203 494.844011 
L 370.611151 482.29949 
L 340.98803 469.769361 
L 316.535501 459.062145 
L 311.800848 453.886031 
L 334.535168 402.849261 
L 354.813537 353.297205 
" clip-path="url(#pf7fc06d5c5)" style="fill: none; stroke: #e6482f; stroke-width: 0.2"/>
    <path d="M 455.585802 449.822854 
L 424.728318 437.460625 
L 394.340307 424.88972 
L 364.923179 414.659819 
L 334.535168 402.849261 
L 310.948131 394.396701 
L 305.047779 393.605173 
L 301.695996 393.370113 
L 299.426876 391.827832 
L 298.012068 390.374299 
" clip-path="url(#pf7fc06d5c5)" style="fill: none; stroke: #e6482f; stroke-width: 0.2"/>
    <path d="M 369.173988 576.678418 
L 381.768325 543.13202 
L 402.599203 494.844011 
L 424.728318 437.460625 
L 442.807827 390.683714 
L 461.308905 340.879809 
L 475.00347 309.83272 
L 494.695796 262.005237 
L 514.467963 212.944888 
" clip-path="url(#pf7fc06d5c5)" style="fill: none; stroke: #e6482f; stroke-width: 0.2"/>
    <path d="M 424.282798 528.608679 
L 434.528172 507.40772 
L 455.585802 449.822854 
L 473.416204 403.417722 
L 486.850483 364.565687 
L 487.410976 361.28924 
L 487.711184 355.292816 
L 488.867302 350.709149 
L 523.621094 274.489793 
L 539.607136 238.297772 
" clip-path="url(#pf7fc06d5c5)" style="fill: none; stroke: #e6482f; stroke-width: 0.2"/>
    <path d="M 515.841252 369.384414 
L 512.620411 374.047234 
L 504.714418 390.899586 
" clip-path="url(#pf7fc06d5c5)" style="fill: none; stroke: #e6482f; stroke-width: 0.2"/>
    <path d="M 60.672186 443.932269 
L 73.642197 436.918548 
L 103.824214 427.077215 
L 131.644494 419.351422 
L 153.385575 418.065788 
L 169.441879 417.101563 
L 179.286444 415.470536 
L 190.207286 412.534686 
L 195.312408 412.767347 
L 207.810934 416.413174 
L 211.959545 419.190718 
L 220.633621 428.84736 
" clip-path="url(#pf7fc06d5c5)" style="fill: none; stroke: #e6482f; stroke-width: 0.2"/>
    <path d="M 295.140936 387.337709 
L 290.561177 393.027117 
L 289.11603 396.166845 
L 288.590667 398.253601 
L 285.769037 453.490267 
L 284.992969 455.819278 
L 283.107092 458.133898 
L 281.717835 459.764926 
L 279.702613 460.184676 
L 276.940067 460.019174 
L 270.480818 458.481691 
L 268.214891 459.088529 
L 266.918251 460.189473 
L 263.039508 469.493525 
" clip-path="url(#pf7fc06d5c5)" style="fill: none; stroke: #e6482f; stroke-width: 0.2"/>
    <path d="M 269.945874 495.688307 
L 263.191208 488.331893 
L 261.971217 486.875961 
L 261.46821 484.964301 
L 261.500147 482.035647 
L 261.777998 478.094797 
L 263.039508 469.493525 
L 262.020719 464.830706 
L 259.636625 462.331396 
L 251.840815 457.620604 
L 240.619767 452.993763 
L 232.646706 448.597185 
L 228.627441 444.855415 
L 224.844508 438.688692 
L 220.633621 428.84736 
L 217.641129 413.671608 
L 214.15042 405.876256 
L 208.668442 396.538624 
L 206.097517 392.77047 
L 202.150109 389.153427 
L 194.379849 378.822786 
L 190.940239 372.622483 
L 189.295486 369.317254 
L 185.542894 343.235205 
L 185.501376 339.798054 
L 199.326883 294.438699 
" clip-path="url(#pf7fc06d5c5)" style="fill: none; stroke: #e6482f; stroke-width: 0.2"/>
    <path d="M 144.344224 363.198502 
L 135.074523 395.603181 
L 133.971101 401.165465 
L 132.296008 410.891666 
L 131.644494 419.351422 
" clip-path="url(#pf7fc06d5c5)" style="fill: none; stroke: #e6482f; stroke-width: 0.2"/>
    <path d="M 298.012068 390.374299 
L 296.47111 388.529799 
" clip-path="url(#pf7fc06d5c5)" style="fill: none; stroke: #e6482f; stroke-width: 0.2"/>
    <path d="M 144.344224 363.198502 
L 175.945839 371.183341 
L 179.588249 371.475967 
L 183.826282 370.840346 
L 189.295486 369.317254 
" clip-path="url(#pf7fc06d5c5)" style="fill: none; stroke: #e6482f; stroke-width: 0.2"/>
    <path d="M 276.706927 341.462662 
L 281.50226 347.981975 
L 283.985359 352.138696 
L 282.797304 359.854896 
L 281.395272 364.22509 
L 279.290626 368.489747 
L 278.750892 372.859942 
L 278.942514 376.390636 
L 283.360991 368.710416 
L 291.305308 361.17171 
" clip-path="url(#pf7fc06d5c5)" style="fill: none; stroke: #e6482f; stroke-width: 0.2"/>
    <path d="M 185.542894 343.235205 
L 196.219417 347.128084 
L 236.346602 359.046578 
" clip-path="url(#pf7fc06d5c5)" style="fill: none; stroke: #e6482f; stroke-width: 0.2"/>
    <path d="M 296.47111 388.529799 
L 295.140936 387.337709 
L 278.942514 376.390636 
L 254.282395 374.008857 
L 246.491375 371.478365 
L 243.232209 369.127767 
L 236.346602 359.046578 
L 241.818999 337.00372 
L 244.998323 327.920336 
L 252.433246 306.47952 
" clip-path="url(#pf7fc06d5c5)" style="fill: none; stroke: #e6482f; stroke-width: 0.2"/>
    <path d="M 594.208148 472.477346 
L 580.694027 460.460511 
L 568.145998 450.90221 
L 556.190399 443.836023 
L 553.496517 441.382286 
L 527.375283 417.586074 
" clip-path="url(#pf7fc06d5c5)" style="fill: none; stroke: #e6482f; stroke-width: 0.2"/>
    <path d="M 657.222951 346.713131 
L 638.48075 363.145733 
L 621.988507 379.73904 
L 605.261528 422.34004 
L 601.18797 434.227352 
L 596.823785 455.69935 
L 596.435751 467.593858 
L 594.208148 472.477346 
L 597.831396 481.738225 
L 611.109184 492.299128 
" clip-path="url(#pf7fc06d5c5)" style="fill: none; stroke: #e6482f; stroke-width: 0.2"/>
    <path d="M 388.950946 291.063911 
L 395.472472 293.117087 
L 410.088419 300.833286 
L 411.857726 301.763931 
L 434.366891 311.801946 
L 438.304717 314.176531 
L 441.067264 316.531926 
L 456.058469 335.977132 
L 458.286072 338.502826 
L 461.308905 340.879809 
L 487.711184 355.292816 
L 515.841252 369.384414 
L 517.819747 370.339045 
L 544.675531 385.061467 
L 577.321484 405.490086 
L 605.261528 422.34004 
L 640.582201 444.550797 
L 665.309388 459.853673 
L 673.236139 464.75635 
L 689.955134 475.041418 
L 723.327654 495.573176 
L 802.866636 544.988513 
" clip-path="url(#pf7fc06d5c5)" style="fill: none; stroke: #e6482f; stroke-width: 0.2"/>
    <path d="M 665.309388 459.853673 
L 655.942279 439.326712 
L 649.500596 419.329835 
L 635.54255 394.770878 
L 621.988507 379.73904 
L 607.763788 363.903682 
L 597.810637 356.031575 
" clip-path="url(#pf7fc06d5c5)" style="fill: none; stroke: #e6482f; stroke-width: 0.2"/>
    <path d="M 556.190399 443.836023 
L 577.321484 405.490086 
L 597.810637 356.031575 
L 611.305596 323.833173 
" clip-path="url(#pf7fc06d5c5)" style="fill: none; stroke: #e6482f; stroke-width: 0.2"/>
    <path d="M 517.578623 451.13727 
L 514.760186 441.207191 
L 527.375283 417.586074 
L 544.675531 385.061467 
L 556.6966 364.416976 
L 574.507839 324.466395 
L 582.543176 305.805522 
" clip-path="url(#pf7fc06d5c5)" style="fill: none; stroke: #e6482f; stroke-width: 0.2"/>
    <path d="M 657.222951 346.713131 
L 657.727555 345.206829 
" clip-path="url(#pf7fc06d5c5)" style="fill: none; stroke: #e6482f; stroke-width: 0.2"/>
    <path d="M 657.727555 345.206829 
L 659.033776 343.642962 
" clip-path="url(#pf7fc06d5c5)" style="fill: none; stroke: #e6482f; stroke-width: 0.2"/>
    <path d="M 659.033776 343.642962 
L 663.166418 340.836635 
L 671.861254 335.504614 
L 684.83085 327.77882 
" clip-path="url(#pf7fc06d5c5)" style="fill: none; stroke: #e6482f; stroke-width: 0.2"/>
    <path d="M 592.673578 235.376314 
L 601.51213 245.608613 
L 604.681872 247.621013 
L 606.976542 248.059951 
L 610.436911 247.479497 
L 612.476086 247.621013 
L 614.459371 248.357374 
L 618.903398 251.218868 
L 642.98386 267.675456 
L 648.826726 272.544553 
L 664.017538 296.043342 
L 681.285848 321.945498 
L 684.83085 327.77882 
L 686.100478 329.80532 
" clip-path="url(#pf7fc06d5c5)" style="fill: none; stroke: #e6482f; stroke-width: 0.2"/>
    <path d="M 707.294298 365.253081 
L 722.200279 391.897391 
L 738.04669 418.946154 
" clip-path="url(#pf7fc06d5c5)" style="fill: none; stroke: #e6482f; stroke-width: 0.2"/>
    <path d="M 473.416204 403.417722 
L 442.807827 390.683714 
L 412.549161 378.055244 
L 384.055011 366.151142 
L 354.813537 353.297205 
L 345.186142 348.404123 
L 343.81445 348.092309 
L 342.385271 348.14028 
L 334.161506 350.965796 
L 330.833675 352.227443 
L 328.379321 353.623411 
L 322.494937 357.612233 
L 312.244772 380.067644 
L 308.763644 388.700097 
L 307.564411 390.971543 
L 305.047779 393.605173 
" clip-path="url(#pf7fc06d5c5)" style="fill: none; stroke: #e6482f; stroke-width: 0.2"/>
    <path d="M 343.81445 348.092309 
L 347.281206 338.900989 
L 350.909244 330.793823 
L 353.949642 325.185966 
L 356.857502 321.348255 
L 366.071313 311.605264 
L 367.272142 310.643437 
L 368.297319 310.158926 
" clip-path="url(#pf7fc06d5c5)" style="fill: none; stroke: #e6482f; stroke-width: 0.2"/>
    <path d="M 368.297319 310.158926 
L 369.582781 310.149332 
L 370.954473 310.921671 
L 372.634357 312.41598 
L 376.485953 316.126568 
L 388.473489 324.816587 
L 399.753621 329.983106 
" clip-path="url(#pf7fc06d5c5)" style="fill: none; stroke: #e6482f; stroke-width: 0.2"/>
    <path d="M 475.00347 309.83272 
L 445.501709 297.508868 
" clip-path="url(#pf7fc06d5c5)" style="fill: none; stroke: #e6482f; stroke-width: 0.2"/>
    <path d="M 372.634357 312.41598 
L 381.920026 301.840686 
L 387.101797 296.959596 
L 390.228424 295.059928 
L 395.472472 293.117087 
" clip-path="url(#pf7fc06d5c5)" style="fill: none; stroke: #e6482f; stroke-width: 0.2"/>
    <path d="M 385.172805 290.807264 
L 388.950946 291.063911 
" clip-path="url(#pf7fc06d5c5)" style="fill: none; stroke: #e6482f; stroke-width: 0.2"/>
    <path d="M 611.305596 323.833173 
L 582.543176 305.805522 
L 554.302925 289.423289 
L 523.621094 274.489793 
L 494.695796 262.005237 
L 465.138145 249.218461 
L 435.575704 237.47986 
L 422.058389 232.147839 
L 417.710173 231.044497 
L 410.308784 230.329723 
L 407.062392 231.562588 
L 403.752127 235.393104 
L 399.92129 239.806472 
L 398.298892 244.351762 
L 392.975002 258.177119 
L 391.416479 266.291481 
" clip-path="url(#pf7fc06d5c5)" style="fill: none; stroke: #e6482f; stroke-width: 0.2"/>
    <path d="M 438.304717 314.176531 
L 445.501709 297.508868 
L 465.138145 249.218461 
L 483.584929 204.362805 
" clip-path="url(#pf7fc06d5c5)" style="fill: none; stroke: #e6482f; stroke-width: 0.2"/>
    <path d="M 343.801675 303.306212 
L 342.803646 298.050945 
L 337.040622 269.826973 
L 335.252153 255.692201 
L 333.342323 243.23163 
L 332.511962 238.73671 
L 332.246886 234.96376 
L 331.635293 233.231992 
L 330.180565 231.298745 
L 302.400206 211.563312 
L 299.073972 207.821543 
L 290.4989 204.391588 
" clip-path="url(#pf7fc06d5c5)" style="fill: none; stroke: #e6482f; stroke-width: 0.2"/>
    <path d="M 433.914983 170.449425 
L 430.788355 170.406251 
L 429.598704 170.770834 
L 428.517638 171.691885 
L 408.644869 193.789909 
L 386.609968 213.323862 
L 356.475855 232.771467 
L 353.093732 233.788461 
L 343.499871 236.143856 
L 340.836329 236.302162 
L 337.331249 235.930383 
L 336.232617 236.11987 
L 332.511962 238.73671 
L 314.668786 251.557066 
L 274.311655 265.315263 
L 216.044281 279.222171 
L 214.193534 280.212781 
L 212.472133 281.898975 
L 209.707989 288.317548 
L 208.061639 294.438699 
" clip-path="url(#pf7fc06d5c5)" style="fill: none; stroke: #e6482f; stroke-width: 0.2"/>
    <path d="M 577.120282 249.141706 
L 569.308503 256.920269 
L 567.504065 259.270867 
L 564.63453 263.852136 
L 554.302925 289.423289 
L 517.819747 370.339045 
" clip-path="url(#pf7fc06d5c5)" style="fill: none; stroke: #e6482f; stroke-width: 0.2"/>
    <path d="M 579.090792 247.513077 
L 577.120282 249.141706 
" clip-path="url(#pf7fc06d5c5)" style="fill: none; stroke: #e6482f; stroke-width: 0.2"/>
    <path d="M 592.673578 235.376314 
L 579.090792 247.513077 
" clip-path="url(#pf7fc06d5c5)" style="fill: none; stroke: #e6482f; stroke-width: 0.2"/>
    <path d="M 592.673578 235.376314 
L 594.318331 231.953555 
L 595.499998 228.794638 
L 595.153482 225.75565 
L 591.266755 218.080226 
L 586.24946 208.241293 
L 586.203151 203.631241 
" clip-path="url(#pf7fc06d5c5)" style="fill: none; stroke: #e6482f; stroke-width: 0.2"/>
    <path d="M 572.067856 120.316916 
L 573.329365 117.390661 
L 573.830966 115.468893 
" clip-path="url(#pf7fc06d5c5)" style="fill: none; stroke: #e6482f; stroke-width: 0.2"/>
    <path d="M 540.668117 47.817841 
L 539.31651 50.005238 
" clip-path="url(#pf7fc06d5c5)" style="fill: none; stroke: #e6482f; stroke-width: 0.2"/>
    <path d="M 303.690459 345.146865 
L 286.216155 343.177639 
L 276.706927 341.462662 
L 263.472253 334.482823 
L 254.41174 330.964121 
L 244.998323 327.920336 
" clip-path="url(#pf7fc06d5c5)" style="fill: none; stroke: #e6482f; stroke-width: 0.2"/>
    <path d="M 146.028838 356.842964 
L 144.344224 363.198502 
" clip-path="url(#pf7fc06d5c5)" style="fill: none; stroke: #e6482f; stroke-width: 0.2"/>
    <path d="M 252.433246 306.47952 
L 255.371445 298.046148 
" clip-path="url(#pf7fc06d5c5)" style="fill: none; stroke: #e6482f; stroke-width: 0.2"/>
    <path d="M 199.326883 294.438699 
L 208.061639 294.438699 
L 255.371445 298.046148 
L 273.716031 299.8043 
L 274.710867 299.866663 
L 340.243899 303.169493 
L 343.801675 303.306212 
L 347.268432 303.039971 
L 351.466544 302.397154 
L 358.293068 300.471102 
L 381.790681 291.13347 
L 385.172805 290.807264 
" clip-path="url(#pf7fc06d5c5)" style="fill: none; stroke: #e6482f; stroke-width: 0.2"/>
    <path d="M 274.311655 265.315263 
L 276.79156 270.474587 
L 277.882207 273.616714 
L 278.385214 279.008699 
L 277.864641 287.360519 
L 274.710867 299.866663 
" clip-path="url(#pf7fc06d5c5)" style="fill: none; stroke: #e6482f; stroke-width: 0.2"/>
    <path d="M 195.931997 294.283162 
L 199.326883 294.438699 
" clip-path="url(#pf7fc06d5c5)" style="fill: none; stroke: #e6482f; stroke-width: 0.2"/>
    <path d="M 514.467963 212.944888 
L 516.192559 209.378215 
" clip-path="url(#pf7fc06d5c5)" style="fill: none; stroke: #e6482f; stroke-width: 0.2"/>
    <path d="M 410.088419 300.833286 
L 435.575704 237.47986 
L 453.38375 189.129488 
L 458.88489 178.971544 
L 464.368465 169.036668 
L 478.074208 145.226064 
L 484.519085 135.096904 
L 490.922445 126.469248 
L 498.901892 117.371472 
" clip-path="url(#pf7fc06d5c5)" style="fill: none; stroke: #e6482f; stroke-width: 0.2"/>
    <path d="M 453.38375 189.129488 
L 452.481531 185.35174 
L 450.188457 182.730103 
L 447.984808 180.748884 
L 435.6284 171.735059 
" clip-path="url(#pf7fc06d5c5)" style="fill: none; stroke: #e6482f; stroke-width: 0.2"/>
    <path d="M 435.6284 171.735059 
L 433.914983 170.449425 
" clip-path="url(#pf7fc06d5c5)" style="fill: none; stroke: #e6482f; stroke-width: 0.2"/>
    <path d="M 516.192559 209.378215 
L 529.074329 185.917803 
L 572.067856 120.316916 
" clip-path="url(#pf7fc06d5c5)" style="fill: none; stroke: #e6482f; stroke-width: 0.2"/>
    <path d="M 508.775201 101.301054 
L 513.794094 101.461758 
L 532.702367 107.489364 
L 539.688575 109.259509 
" clip-path="url(#pf7fc06d5c5)" style="fill: none; stroke: #e6482f; stroke-width: 0.2"/>
    <path d="M 539.31651 50.005238 
L 510.330531 98.341219 
L 508.775201 101.301054 
L 498.901892 117.371472 
" clip-path="url(#pf7fc06d5c5)" style="fill: none; stroke: #e6482f; stroke-width: 0.2"/>
   </g>
  </g>
 </g>
 <defs>
  <clipPath id="pf7fc06d5c5">
   <rect x="7.2" y="7.2" width="837" height="639.509823"/>
  </clipPath>
 </defs>
</svg>
