<?xml version="1.0" encoding="utf-8" standalone="no"?>
<!DOCTYPE svg PUBLIC "-//W3C//DTD SVG 1.1//EN"
  "http://www.w3.org/Graphics/SVG/1.1/DTD/svg11.dtd">
<svg xmlns:xlink="http://www.w3.org/1999/xlink" width="851.4pt" height="622.336056pt" viewBox="0 0 851.4 622.336056" xmlns="http://www.w3.org/2000/svg" version="1.1">
 <metadata>
  <rdf:RDF xmlns:dc="http://purl.org/dc/elements/1.1/" xmlns:cc="http://creativecommons.org/ns#" xmlns:rdf="http://www.w3.org/1999/02/22-rdf-syntax-ns#">
   <cc:Work>
    <dc:type rdf:resource="http://purl.org/dc/dcmitype/StillImage"/>
    <dc:date>2025-03-16T14:38:39.557326</dc:date>
    <dc:format>image/svg+xml</dc:format>
    <dc:creator>
     <cc:Agent>
      <dc:title>Matplotlib v3.10.1, https://matplotlib.org/</dc:title>
     </cc:Agent>
    </dc:creator>
   </cc:Work>
  </rdf:RDF>
 </metadata>
 <defs>
  <style type="text/css">*{stroke-linejoin: round; stroke-linecap: butt}</style>
 </defs>
 <g id="figure_1">
  <g id="patch_1">
   <path d="M 0 622.336056 
L 851.4 622.336056 
L 851.4 0 
L 0 0 
z
" style="fill: #ffffff"/>
  </g>
  <g id="axes_1">
   <g id="PatchCollection_1">
    <path d="M 231.387375 59.015996 
L 197.939531 38.949711 
L 168.0914 34.833457 
L 72.892028 167.58353 
L 46.231119 257.10754 
L 45.245455 271.505424 
L 56.039801 282.273226 
L 353.348381 431.052558 
L 418.188804 459.354951 
L 481.482381 501.554652 
L 513.40976 536.627436 
L 513.956552 549.995356 
L 520.12475 557.691273 
L 533.456404 559.715188 
L 610.647612 587.502599 
L 667.789778 578.416591 
L 731.188877 510.917958 
L 761.324793 465.088176 
L 798.477873 414.583943 
L 806.154545 342.104752 
L 796.41781 312.693167 
L 771.203023 265.865832 
L 717.684552 188.679779 
L 664.681697 154.204806 
L 620.940732 215.437227 
L 593.665882 220.068462 
L 425.906246 134.653503 
L 406.89563 163.622131 
L 258.14661 94.517331 
L 231.387375 59.015996 
" clip-path="url(#pa164c7b9b1)" style="fill: #f29888"/>
   </g>
   <g id="LineCollection_1">
    <path d="M 381.667413 443.413619 
L 390.182499 415.685932 
L 390.909157 412.009034 
L 391.424773 371.869261 
L 403.50456 346.311037 
L 413.553063 345.111813 
L 419.726057 324.011963 
" clip-path="url(#pa164c7b9b1)" style="fill: none; stroke: #f29888; stroke-width: 0.2"/>
    <path d="M 527.794228 540.668062 
L 522.413119 558.038676 
" clip-path="url(#pa164c7b9b1)" style="fill: none; stroke: #f29888; stroke-width: 0.2"/>
    <path d="M 527.794228 540.668062 
L 535.51167 480.454802 
" clip-path="url(#pa164c7b9b1)" style="fill: none; stroke: #f29888; stroke-width: 0.2"/>
    <path d="M 618.362656 538.323635 
L 604.469821 540.668062 
L 556.611128 492.292181 
L 535.51167 480.454802 
L 523.6765 434.65383 
L 495.372818 425.391359 
L 488.161398 409.945505 
L 506.905813 390.484234 
" clip-path="url(#pa164c7b9b1)" style="fill: none; stroke: #f29888; stroke-width: 0.2"/>
    <path d="M 366.723202 406.347835 
L 390.182499 415.685932 
L 424.364197 418.617367 
" clip-path="url(#pa164c7b9b1)" style="fill: none; stroke: #f29888; stroke-width: 0.2"/>
    <path d="M 424.364197 418.617367 
L 458.836077 378.560424 
" clip-path="url(#pa164c7b9b1)" style="fill: none; stroke: #f29888; stroke-width: 0.2"/>
    <path d="M 387.307045 339.450614 
L 403.50456 346.311037 
L 458.836077 369.748112 
L 479.295213 378.416373 
L 506.905813 390.484234 
" clip-path="url(#pa164c7b9b1)" style="fill: none; stroke: #f29888; stroke-width: 0.2"/>
    <path d="M 458.836077 378.560424 
L 458.836077 369.748112 
L 458.836077 355.404247 
L 470.15803 329.673162 
L 422.814953 309.603276 
L 419.726057 324.011963 
" clip-path="url(#pa164c7b9b1)" style="fill: none; stroke: #f29888; stroke-width: 0.2"/>
    <path d="M 271.504644 372.892022 
L 255.036131 355.397045 
L 251.949634 343.044683 
L 242.172129 335.84214 
L 236.512352 326.576069 
L 219.015006 322.974797 
L 214.384061 314.227308 
L 214.280938 307.892672 
L 214.384061 279.237354 
L 217.986174 272.031209 
L 224.137584 267.126277 
L 231.399366 248.478893 
L 228.792511 241.157508 
" clip-path="url(#pa164c7b9b1)" style="fill: none; stroke: #f29888; stroke-width: 0.2"/>
    <path d="M 214.280938 307.892672 
L 192.255771 285.409933 
L 167.369539 249.577281 
" clip-path="url(#pa164c7b9b1)" style="fill: none; stroke: #f29888; stroke-width: 0.2"/>
    <path d="M 653.354948 505.159525 
L 629.684608 519.568212 
L 618.362656 531.405592 
L 618.362656 538.323635 
L 618.362656 552.505442 
L 609.100766 578.240129 
L 601.896541 583.386346 
L 597.784007 582.871939 
" clip-path="url(#pa164c7b9b1)" style="fill: none; stroke: #f29888; stroke-width: 0.2"/>
    <path d="M 580.074355 576.49679 
L 559.184408 557.651659 
L 527.794228 540.668062 
" clip-path="url(#pa164c7b9b1)" style="fill: none; stroke: #f29888; stroke-width: 0.2"/>
    <path d="M 651.064657 495.529724 
L 631.229056 495.378471 
L 606.134179 484.009257 
L 565.359801 465.531132 
L 561.750494 459.628648 
L 564.16789 453.589316 
" clip-path="url(#pa164c7b9b1)" style="fill: none; stroke: #f29888; stroke-width: 0.2"/>
    <path d="M 606.134179 484.009257 
L 616.719881 463.323553 
" clip-path="url(#pa164c7b9b1)" style="fill: none; stroke: #f29888; stroke-width: 0.2"/>
    <path d="M 653.354948 505.159525 
L 651.064657 495.529724 
L 646.193891 481.920519 
L 616.719881 463.323553 
L 533.996001 411.11952 
L 506.905813 390.484234 
" clip-path="url(#pa164c7b9b1)" style="fill: none; stroke: #f29888; stroke-width: 0.2"/>
    <path d="M 733.119436 470.162367 
L 633.286721 422.81645 
L 588.001308 392.454129 
L 532.828072 370.464765 
L 519.558773 365.1817 
L 526.24978 348.713085 
L 491.375 335.766514 
" clip-path="url(#pa164c7b9b1)" style="fill: none; stroke: #f29888; stroke-width: 0.2"/>
    <path d="M 549.92012 334.304397 
L 687.066596 386.998203 
L 721.281868 400.175256 
L 757.818609 412.009034 
L 774.800339 421.786486 
" clip-path="url(#pa164c7b9b1)" style="fill: none; stroke: #f29888; stroke-width: 0.2"/>
    <path d="M 732.920385 327.256709 
L 719.224204 332.24447 
L 687.066596 386.998203 
" clip-path="url(#pa164c7b9b1)" style="fill: none; stroke: #f29888; stroke-width: 0.2"/>
    <path d="M 637.402051 344.08185 
L 574.621691 321.440655 
L 556.095513 319.89571 
L 549.92012 334.304397 
L 532.828072 370.464765 
" clip-path="url(#pa164c7b9b1)" style="fill: none; stroke: #f29888; stroke-width: 0.2"/>
    <path d="M 574.621691 321.440655 
L 604.995029 313.543067 
L 617.945367 308.494084 
L 623.725055 300.628907 
" clip-path="url(#pa164c7b9b1)" style="fill: none; stroke: #f29888; stroke-width: 0.2"/>
    <path d="M 749.585551 351.284393 
L 732.920385 327.256709 
L 704.815754 286.962081 
L 741.131858 235.521518 
" clip-path="url(#pa164c7b9b1)" style="fill: none; stroke: #f29888; stroke-width: 0.2"/>
    <path d="M 603.43859 302.915714 
L 593.147868 294.679606 
L 542.583994 277.598775 
L 440.825515 243.224638 
L 435.165738 260.204633 
" clip-path="url(#pa164c7b9b1)" style="fill: none; stroke: #f29888; stroke-width: 0.2"/>
    <path d="M 318.847722 300.333603 
L 296.532371 293.775687 
L 217.986174 272.031209 
L 167.369539 249.577281 
L 152.116918 244.75878 
L 107.152866 234.722036 
" clip-path="url(#pa164c7b9b1)" style="fill: none; stroke: #f29888; stroke-width: 0.2"/>
    <path d="M 296.532371 293.775687 
L 278.193254 266.884992 
L 231.399366 248.478893 
L 175.274041 225.718857 
L 152.116918 244.75878 
" clip-path="url(#pa164c7b9b1)" style="fill: none; stroke: #f29888; stroke-width: 0.2"/>
    <path d="M 571.947686 262.934397 
L 569.458343 251.964924 
L 560.194055 238.582599 
L 543.72794 222.117585 
L 424.340215 169.117672 
" clip-path="url(#pa164c7b9b1)" style="fill: none; stroke: #f29888; stroke-width: 0.2"/>
    <path d="M 213.120204 118.260514 
L 270.257575 152.886741 
L 287.215322 163.16477 
L 431.537245 250.632454 
L 435.165738 260.204633 
L 427.961513 289.533389 
L 508.265598 297.909947 
" clip-path="url(#pa164c7b9b1)" style="fill: none; stroke: #f29888; stroke-width: 0.2"/>
    <path d="M 287.215322 163.16477 
L 299.280721 193.966445 
L 283.255877 224.256741 
L 270.965047 240.062722 
" clip-path="url(#pa164c7b9b1)" style="fill: none; stroke: #f29888; stroke-width: 0.2"/>
    <path d="M 228.792511 241.157508 
L 237.356522 228.837558 
L 270.257575 152.886741 
" clip-path="url(#pa164c7b9b1)" style="fill: none; stroke: #f29888; stroke-width: 0.2"/>
    <path d="M 152.116918 244.75878 
L 196.186439 128.455714 
L 204.596963 120.604942 
L 213.120204 118.260514 
" clip-path="url(#pa164c7b9b1)" style="fill: none; stroke: #f29888; stroke-width: 0.2"/>
    <path d="M 107.152866 234.722036 
L 143.387431 157.806078 
L 163.366925 118.721477 
L 170.396081 116.5211 
L 196.186439 128.455714 
" clip-path="url(#pa164c7b9b1)" style="fill: none; stroke: #f29888; stroke-width: 0.2"/>
    <path d="M 657.906752 287.206968 
L 683.138327 284.351159 
L 693.673667 287.862399 
L 704.815754 286.962081 
" clip-path="url(#pa164c7b9b1)" style="fill: none; stroke: #f29888; stroke-width: 0.2"/>
    <path d="M 479.295213 378.416373 
L 491.375 335.766514 
L 508.265598 297.909947 
L 542.583994 277.598775 
L 558.695173 268.062608 
L 571.947686 262.934397 
L 624.564429 242.335124 
L 646.987699 223.734556 
L 661.036417 212.783089 
L 677.939006 189.317204 
L 687.910766 172.131936 
" clip-path="url(#pa164c7b9b1)" style="fill: none; stroke: #f29888; stroke-width: 0.2"/>
    <path d="M 687.910766 172.131936 
L 689.005236 170.025715 
" clip-path="url(#pa164c7b9b1)" style="fill: none; stroke: #f29888; stroke-width: 0.2"/>
    <path d="M 508.265598 297.909947 
L 603.43859 302.915714 
L 613.731711 303.427095 
L 623.725055 300.628907 
L 639.462114 296.224552 
L 657.906752 287.206968 
L 662.619236 284.902154 
L 741.131858 235.521518 
L 747.470099 231.637449 
" clip-path="url(#pa164c7b9b1)" style="fill: none; stroke: #f29888; stroke-width: 0.2"/>
   </g>
  </g>
 </g>
 <defs>
  <clipPath id="pa164c7b9b1">
   <rect x="7.2" y="7.2" width="837" height="607.936056"/>
  </clipPath>
 </defs>
</svg>
