<?xml version="1.0" encoding="utf-8" standalone="no"?>
<!DOCTYPE svg PUBLIC "-//W3C//DTD SVG 1.1//EN"
  "http://www.w3.org/Graphics/SVG/1.1/DTD/svg11.dtd">
<svg xmlns:xlink="http://www.w3.org/1999/xlink" width="644.41465pt" height="846pt" viewBox="0 0 644.41465 846" xmlns="http://www.w3.org/2000/svg" version="1.1">
 <metadata>
  <rdf:RDF xmlns:dc="http://purl.org/dc/elements/1.1/" xmlns:cc="http://creativecommons.org/ns#" xmlns:rdf="http://www.w3.org/1999/02/22-rdf-syntax-ns#">
   <cc:Work>
    <dc:type rdf:resource="http://purl.org/dc/dcmitype/StillImage"/>
    <dc:date>2025-03-16T14:38:40.330430</dc:date>
    <dc:format>image/svg+xml</dc:format>
    <dc:creator>
     <cc:Agent>
      <dc:title>Matplotlib v3.10.1, https://matplotlib.org/</dc:title>
     </cc:Agent>
    </dc:creator>
   </cc:Work>
  </rdf:RDF>
 </metadata>
 <defs>
  <style type="text/css">*{stroke-linejoin: round; stroke-linecap: butt}</style>
 </defs>
 <g id="figure_1">
  <g id="patch_1">
   <path d="M 0 846 
L 644.41465 846 
L 644.41465 0 
L 0 0 
z
" style="fill: #ffffff"/>
  </g>
  <g id="axes_1">
   <g id="PatchCollection_1">
    <path d="M 237.634987 45 
L 202.468447 77.231929 
L 180.353288 173.714013 
L 171.087075 279.245655 
L 120.040782 316.438315 
L 129.339462 343.792144 
L 90.888114 371.721543 
L 132.586074 442.188996 
L 178.342299 437.060153 
L 176.547113 487.072071 
L 85.863504 586.848012 
L 47.790292 585.523061 
L 35.83703 638.199127 
L 186.164724 662.318936 
L 211.757577 749.00208 
L 246.698764 774.857148 
L 283.891572 769.830882 
L 280.876042 749.722968 
L 386.608653 721.551373 
L 422.416876 738.49935 
L 539.216615 770.836705 
L 553.673589 800.837587 
L 588.473452 801 
L 608.577621 689.396377 
L 592.102019 660.30729 
L 570.378363 639.128018 
L 317.190354 647.969573 
L 265.613145 562.354937 
L 251.723374 505.419082 
L 211.515036 504.413259 
L 199.756571 388.398831 
L 321.525537 282.277371 
L 297.261885 243.588799 
L 261.776413 247.084961 
L 243.683234 192.810405 
L 279.869592 114.41604 
L 284.859826 70.587228 
L 237.634987 45 
" clip-path="url(#p52c894adc6)" style="fill: #f29888"/>
   </g>
   <g id="PatchCollection_2">
    <path d="M 568.466682 777.717902 
L 568.107645 780.11991 
L 566.675316 779.906209 
L 566.591286 780.470381 
L 565.577197 780.319365 
L 566.020264 777.353185 
L 568.466682 777.717902 
" clip-path="url(#p52c894adc6)" style="fill: #f29888"/>
    <path d="M 589.260278 776.57531 
L 588.731271 778.65819 
L 587.184356 778.264979 
L 587.713363 776.182099 
L 589.260278 776.57531 
" clip-path="url(#p52c894adc6)" style="fill: #f29888"/>
    <path d="M 556.733043 775.620775 
L 556.733043 779.051401 
L 555.197587 779.051401 
L 555.197587 775.620775 
L 556.733043 775.620775 
" clip-path="url(#p52c894adc6)" style="fill: #f29888"/>
    <path d="M 592.722695 775.654968 
L 592.124936 779.293597 
L 590.306833 778.994414 
L 590.902682 775.358635 
L 592.722695 775.654968 
" clip-path="url(#p52c894adc6)" style="fill: #f29888"/>
    <path d="M 586.378432 775.586583 
L 585.933455 777.931604 
L 584.237578 777.609627 
L 584.682555 775.261756 
L 586.378432 775.586583 
" clip-path="url(#p52c894adc6)" style="fill: #f29888"/>
    <path d="M 582.066167 774.660542 
L 581.856092 776.934329 
L 579.961599 776.760518 
L 580.171674 774.486731 
L 582.066167 774.660542 
" clip-path="url(#p52c894adc6)" style="fill: #f29888"/>
    <path d="M 578.941781 773.745898 
L 578.911224 775.720503 
L 577.656504 775.700557 
L 577.68706 773.725953 
L 578.941781 773.745898 
" clip-path="url(#p52c894adc6)" style="fill: #f29888"/>
    <path d="M 567.846006 770.23549 
L 567.429676 773.566389 
L 565.432054 773.315645 
L 565.848384 769.984747 
L 567.846006 770.23549 
" clip-path="url(#p52c894adc6)" style="fill: #f29888"/>
    <path d="M 571.638813 770.36941 
L 571.058242 773.013614 
L 569.165658 772.594758 
L 569.748139 769.953404 
L 571.638813 770.36941 
" clip-path="url(#p52c894adc6)" style="fill: #f29888"/>
    <path d="M 565.069198 769.734003 
L 564.734987 773.062053 
L 563.224358 772.911037 
L 563.558568 769.582988 
L 565.069198 769.734003 
" clip-path="url(#p52c894adc6)" style="fill: #f29888"/>
    <path d="M 556.729224 767.169582 
L 556.84572 770.54607 
L 555.023797 770.608756 
L 554.907301 767.232268 
L 556.729224 767.169582 
" clip-path="url(#p52c894adc6)" style="fill: #f29888"/>
    <path d="M 517.269517 722.873475 
L 517.091908 726.640325 
L 515.615654 726.571941 
L 515.686316 725.06748 
L 514.907129 725.030438 
L 514.968242 723.731131 
L 515.562181 723.759625 
L 515.608015 722.793693 
L 517.269517 722.873475 
" clip-path="url(#p52c894adc6)" style="fill: #f29888"/>
    <path d="M 508.312687 721.987325 
L 508.515122 726.312649 
L 506.882267 726.389582 
L 506.679832 722.064258 
L 508.312687 721.987325 
" clip-path="url(#p52c894adc6)" style="fill: #f29888"/>
    <path d="M 514.187145 723.488936 
L 514.162318 724.84523 
L 512.55238 724.819586 
L 512.577207 723.460443 
L 514.187145 723.488936 
" clip-path="url(#p52c894adc6)" style="fill: #f29888"/>
    <path d="M 500.385223 720.029816 
L 500.465434 722.617033 
L 499.766457 722.639828 
L 499.890593 726.606133 
L 498.796293 726.640325 
L 498.591948 720.086804 
L 500.385223 720.029816 
" clip-path="url(#p52c894adc6)" style="fill: #f29888"/>
    <path d="M 492.606722 720.63388 
L 492.79197 725.398005 
L 491.000604 725.469239 
L 490.813447 720.705114 
L 492.606722 720.63388 
" clip-path="url(#p52c894adc6)" style="fill: #f29888"/>
    <path d="M 489.394486 720.773499 
L 488.905585 723.104273 
L 487.087482 722.722459 
L 487.576383 720.391685 
L 489.394486 720.773499 
" clip-path="url(#p52c894adc6)" style="fill: #f29888"/>
    <path d="M 502.814453 720.061159 
L 502.8431 721.571319 
L 503.364468 721.559921 
L 503.396934 723.343619 
L 500.874125 723.389209 
L 500.814922 720.095352 
L 502.814453 720.061159 
" clip-path="url(#p52c894adc6)" style="fill: #f29888"/>
    <path d="M 496.548492 719.972829 
L 496.594326 722.431825 
L 494.929005 722.463168 
L 494.883171 720.004172 
L 496.548492 719.972829 
" clip-path="url(#p52c894adc6)" style="fill: #f29888"/>
    <path d="M 594.51597 686.498581 
L 594.473955 689.128538 
L 592.42668 689.094345 
L 592.468695 686.464389 
L 594.51597 686.498581 
" clip-path="url(#p52c894adc6)" style="fill: #f29888"/>
    <path d="M 460.236089 736.311044 
L 459.945804 739.821452 
L 457.591055 739.624846 
L 457.88134 736.114438 
L 460.236089 736.311044 
" clip-path="url(#p52c894adc6)" style="fill: #f29888"/>
    <path d="M 441.902279 734.256657 
L 441.652099 737.482129 
L 439.604823 737.322565 
L 439.855003 734.097093 
L 441.902279 734.256657 
" clip-path="url(#p52c894adc6)" style="fill: #f29888"/>
    <path d="M 433.382786 733.279327 
L 433.168892 736.322441 
L 431.488293 736.202768 
L 431.702187 733.162504 
L 433.382786 733.279327 
" clip-path="url(#p52c894adc6)" style="fill: #f29888"/>
    <path d="M 459.298391 733.561414 
L 459.212451 735.649993 
L 456.298139 735.53032 
L 456.384079 733.441741 
L 459.298391 733.561414 
" clip-path="url(#p52c894adc6)" style="fill: #f29888"/>
    <path d="M 429.91846 733.085571 
L 429.769498 735.877941 
L 428.239771 735.79531 
L 428.386823 733.00294 
L 429.91846 733.085571 
" clip-path="url(#p52c894adc6)" style="fill: #f29888"/>
    <path d="M 426.964043 733.077023 
L 426.780705 735.570211 
L 425.090557 735.447688 
L 425.273895 732.951651 
L 426.964043 733.077023 
" clip-path="url(#p52c894adc6)" style="fill: #f29888"/>
    <path d="M 442.902999 732.330492 
L 442.744488 734.040106 
L 439.21523 733.71243 
L 439.37565 731.999966 
L 442.902999 732.330492 
" clip-path="url(#p52c894adc6)" style="fill: #f29888"/>
    <path d="M 476.839646 715.909646 
L 476.63721 719.656551 
L 475.193422 719.576769 
L 475.395858 715.832713 
L 476.839646 715.909646 
" clip-path="url(#p52c894adc6)" style="fill: #f29888"/>
    <path d="M 484.92753 715.792822 
L 485.120417 719.106625 
L 483.16863 719.220599 
L 482.975743 715.903947 
L 484.92753 715.792822 
" clip-path="url(#p52c894adc6)" style="fill: #f29888"/>
    <path d="M 481.32761 715.827015 
L 481.688557 718.687769 
L 480.093897 718.890074 
L 479.73295 716.029319 
L 481.32761 715.827015 
" clip-path="url(#p52c894adc6)" style="fill: #f29888"/>
    <path d="M 471.039668 714.852534 
L 470.976646 717.405559 
L 469.977835 717.379914 
L 469.93964 718.884375 
L 468.776589 718.855881 
L 468.875897 714.798397 
L 471.039668 714.852534 
" clip-path="url(#p52c894adc6)" style="fill: #f29888"/>
    <path d="M 466.307254 713.949288 
L 466.290066 716.767302 
L 464.779436 716.758754 
L 464.796624 713.94074 
L 466.307254 713.949288 
" clip-path="url(#p52c894adc6)" style="fill: #f29888"/>
    <path d="M 450.200238 710.701021 
L 450.393125 713.416458 
L 448.427969 713.556077 
L 448.235082 710.84064 
L 450.200238 710.701021 
" clip-path="url(#p52c894adc6)" style="fill: #f29888"/>
    <path d="M 441.623452 709.840515 
L 441.717031 714.222827 
L 440.13001 714.257019 
L 440.036432 709.874707 
L 441.623452 709.840515 
" clip-path="url(#p52c894adc6)" style="fill: #f29888"/>
    <path d="M 434.009191 708.450029 
L 433.873598 713.749833 
L 430.92682 713.672901 
L 430.976474 711.678351 
L 432.078412 711.706844 
L 432.162442 708.404439 
L 434.009191 708.450029 
" clip-path="url(#p52c894adc6)" style="fill: #f29888"/>
    <path d="M 484.612417 707.541084 
L 484.211365 710.911873 
L 482.190827 710.672527 
L 482.589969 707.301738 
L 484.612417 707.541084 
" clip-path="url(#p52c894adc6)" style="fill: #f29888"/>
    <path d="M 410.920049 707.404315 
L 410.857027 710.404688 
L 408.48318 710.353399 
L 408.509917 708.997105 
L 409.06948 709.008503 
L 409.101946 707.367273 
L 410.920049 707.404315 
" clip-path="url(#p52c894adc6)" style="fill: #f29888"/>
    <path d="M 477.250247 706.643536 
L 477.620742 709.592621 
L 475.88667 709.812022 
L 475.516174 706.860088 
L 477.250247 706.643536 
" clip-path="url(#p52c894adc6)" style="fill: #f29888"/>
    <path d="M 430.216384 706.654934 
L 430.122806 708.418686 
L 428.488041 708.333205 
L 428.57971 706.569453 
L 430.216384 706.654934 
" clip-path="url(#p52c894adc6)" style="fill: #f29888"/>
    <path d="M 454.86772 704.281419 
L 454.821886 707.093735 
L 453.11073 707.065241 
L 453.158474 704.252926 
L 454.86772 704.281419 
" clip-path="url(#p52c894adc6)" style="fill: #f29888"/>
    <path d="M 431.599059 702.551859 
L 431.583781 704.392544 
L 430.382535 704.383996 
L 430.397813 702.540462 
L 431.599059 702.551859 
" clip-path="url(#p52c894adc6)" style="fill: #f29888"/>
    <path d="M 442.183015 701.79678 
L 442.034053 704.039224 
L 439.652567 703.882509 
L 439.79962 701.640065 
L 442.183015 701.79678 
" clip-path="url(#p52c894adc6)" style="fill: #f29888"/>
    <path d="M 437.460149 701.044549 
L 437.383758 704.133253 
L 435.382317 704.081964 
L 435.460618 700.993261 
L 437.460149 701.044549 
" clip-path="url(#p52c894adc6)" style="fill: #f29888"/>
    <path d="M 475.447422 673.667926 
L 475.283182 678.226897 
L 473.465079 678.161362 
L 473.631229 673.60239 
L 475.447422 673.667926 
" clip-path="url(#p52c894adc6)" style="fill: #f29888"/>
    <path d="M 461.968252 674.388813 
L 461.968252 676.847808 
L 460.686795 676.847808 
L 460.686795 674.388813 
L 461.968252 674.388813 
" clip-path="url(#p52c894adc6)" style="fill: #f29888"/>
    <path d="M 460.482449 673.314605 
L 460.406059 677.59149 
L 458.952722 677.565846 
L 459.029113 673.288961 
L 460.482449 673.314605 
" clip-path="url(#p52c894adc6)" style="fill: #f29888"/>
    <path d="M 453.888007 673.357346 
L 453.739045 677.531654 
L 452.180671 677.474667 
L 452.329633 673.300358 
L 453.888007 673.357346 
" clip-path="url(#p52c894adc6)" style="fill: #f29888"/>
    <path d="M 424.39158 673.066711 
L 424.746798 677.186882 
L 422.932514 677.343596 
L 422.577297 673.220576 
L 424.39158 673.066711 
" clip-path="url(#p52c894adc6)" style="fill: #f29888"/>
    <path d="M 432.187269 673.585294 
L 432.324773 676.243744 
L 431.043316 676.30928 
L 430.903902 673.650829 
L 432.187269 673.585294 
" clip-path="url(#p52c894adc6)" style="fill: #f29888"/>
    <path d="M 488.685961 673.3374 
L 488.754713 676.431802 
L 487.192519 676.465994 
L 487.123767 673.371592 
L 488.685961 673.3374 
" clip-path="url(#p52c894adc6)" style="fill: #f29888"/>
    <path d="M 575.110778 685.877421 
L 574.982823 689.464762 
L 573.525667 689.413473 
L 573.653622 685.826133 
L 575.110778 685.877421 
" clip-path="url(#p52c894adc6)" style="fill: #f29888"/>
    <path d="M 570.166379 685.903065 
L 570.114815 689.102893 
L 568.527794 689.080099 
L 568.579358 685.877421 
L 570.166379 685.903065 
" clip-path="url(#p52c894adc6)" style="fill: #f29888"/>
    <path d="M 579.999794 685.090999 
L 579.61211 688.339266 
L 577.879947 688.131263 
L 578.267631 684.885845 
L 579.999794 685.090999 
" clip-path="url(#p52c894adc6)" style="fill: #f29888"/>
    <path d="M 562.718268 684.025339 
L 562.429893 687.444568 
L 560.986105 687.322045 
L 561.274481 683.902817 
L 562.718268 684.025339 
" clip-path="url(#p52c894adc6)" style="fill: #f29888"/>
    <path d="M 566.717331 683.825884 
L 566.459511 686.692337 
L 564.769363 686.541321 
L 565.027183 683.674868 
L 566.717331 683.825884 
" clip-path="url(#p52c894adc6)" style="fill: #f29888"/>
    <path d="M 555.776247 682.694689 
L 555.279707 685.866024 
L 553.228612 685.544046 
L 553.727062 682.372712 
L 555.776247 682.694689 
" clip-path="url(#p52c894adc6)" style="fill: #f29888"/>
    <path d="M 550.849036 682.281532 
L 550.957893 681.535001 
L 552.558282 681.765799 
L 552.178237 684.395755 
L 549.315489 683.982599 
L 549.586677 682.099173 
L 550.849036 682.281532 
" clip-path="url(#p52c894adc6)" style="fill: #f29888"/>
    <path d="M 548.429355 680.799867 
L 548.286122 683.771746 
L 546.469929 683.686265 
L 546.613162 680.714386 
L 548.429355 680.799867 
" clip-path="url(#p52c894adc6)" style="fill: #f29888"/>
    <path d="M 540.721516 680.221447 
L 540.440779 684.162108 
L 538.979804 684.056682 
L 539.26054 680.116021 
L 540.721516 680.221447 
" clip-path="url(#p52c894adc6)" style="fill: #f29888"/>
    <path d="M 545.230487 680.822661 
L 545.008954 683.461166 
L 542.78025 683.273109 
L 543.003693 680.634604 
L 545.230487 680.822661 
" clip-path="url(#p52c894adc6)" style="fill: #f29888"/>
    <path d="M 528.271713 677.141292 
L 528.231607 682.361314 
L 526.694241 682.349917 
L 526.734346 677.129895 
L 528.271713 677.141292 
" clip-path="url(#p52c894adc6)" style="fill: #f29888"/>
    <path d="M 535.517387 677.577244 
L 535.334049 680.190104 
L 533.924637 680.090377 
L 534.107976 677.477516 
L 535.517387 677.577244 
" clip-path="url(#p52c894adc6)" style="fill: #f29888"/>
    <path d="M 533.090067 677.090004 
L 532.927737 680.443697 
L 531.012235 680.352517 
L 531.176476 676.995975 
L 533.090067 677.090004 
" clip-path="url(#p52c894adc6)" style="fill: #f29888"/>
    <path d="M 530.382011 677.178334 
L 530.297981 679.660124 
L 529.016524 679.617383 
L 529.100554 677.132744 
L 530.382011 677.178334 
" clip-path="url(#p52c894adc6)" style="fill: #f29888"/>
    <path d="M 520.363347 675.987302 
L 520.050145 680.059034 
L 518.466944 679.936511 
L 518.780146 675.86478 
L 520.363347 675.987302 
" clip-path="url(#p52c894adc6)" style="fill: #f29888"/>
    <path d="M 522.708547 676.144017 
L 522.632156 678.905044 
L 520.76249 678.853756 
L 520.83888 676.089879 
L 522.708547 676.144017 
" clip-path="url(#p52c894adc6)" style="fill: #f29888"/>
    <path d="M 515.766526 675.505761 
L 515.846737 678.52323 
L 514.022905 678.571669 
L 513.944604 675.5542 
L 515.766526 675.505761 
" clip-path="url(#p52c894adc6)" style="fill: #f29888"/>
    <path d="M 590.543645 675.559899 
L 590.134954 678.654301 
L 587.801212 678.34657 
L 588.211813 675.252168 
L 590.543645 675.559899 
" clip-path="url(#p52c894adc6)" style="fill: #f29888"/>
    <path d="M 512.317478 675.522857 
L 512.178065 678.395009 
L 510.310308 678.30383 
L 510.449721 675.431678 
L 512.317478 675.522857 
" clip-path="url(#p52c894adc6)" style="fill: #f29888"/>
    <path d="M 508.255393 675.480117 
L 508.140807 677.317952 
L 505.883457 677.178334 
L 505.998043 675.340498 
L 508.255393 675.480117 
" clip-path="url(#p52c894adc6)" style="fill: #f29888"/>
    <path d="M 464.485331 673.511211 
L 464.470053 676.018645 
L 462.959424 676.010097 
L 462.974702 673.499813 
L 464.485331 673.511211 
" clip-path="url(#p52c894adc6)" style="fill: #f29888"/>
    <path d="M 468.322063 673.571047 
L 468.291507 675.950261 
L 466.576532 675.927466 
L 466.605178 673.548253 
L 468.322063 673.571047 
" clip-path="url(#p52c894adc6)" style="fill: #f29888"/>
    <path d="M 441.176565 673.149342 
L 441.4764 676.215251 
L 440.122371 676.346321 
L 440.059349 675.710915 
L 439.822537 673.280413 
L 441.176565 673.149342 
" clip-path="url(#p52c894adc6)" style="fill: #f29888"/>
    <path d="M 457.604423 673.323153 
L 457.62734 676.089879 
L 455.898997 676.104126 
L 455.887538 674.730736 
L 454.02933 674.747832 
L 454.015962 673.354496 
L 457.604423 673.323153 
" clip-path="url(#p52c894adc6)" style="fill: #f29888"/>
    <path d="M 482.206105 673.411483 
L 482.144992 676.021495 
L 480.351716 675.981604 
L 480.412829 673.368743 
L 482.206105 673.411483 
" clip-path="url(#p52c894adc6)" style="fill: #f29888"/>
    <path d="M 479.765416 673.243371 
L 479.671837 676.112674 
L 477.036352 676.027193 
L 477.129931 673.157891 
L 479.765416 673.243371 
" clip-path="url(#p52c894adc6)" style="fill: #f29888"/>
    <path d="M 440.059349 675.710915 
L 438.46087 675.861931 
L 438.229787 673.437128 
L 439.822537 673.280413 
L 440.059349 675.710915 
" clip-path="url(#p52c894adc6)" style="fill: #f29888"/>
    <path d="M 471.496104 673.82749 
L 471.419713 675.440226 
L 468.726935 675.312005 
L 468.805235 673.699268 
L 471.496104 673.82749 
" clip-path="url(#p52c894adc6)" style="fill: #f29888"/>
    <path d="M 449.132675 673.095205 
L 449.117397 675.870479 
L 447.528467 675.859081 
L 447.543745 673.086657 
L 449.132675 673.095205 
" clip-path="url(#p52c894adc6)" style="fill: #f29888"/>
    <path d="M 435.995354 673.063862 
L 436.159595 675.42313 
L 434.448439 675.542803 
L 434.286108 673.180685 
L 435.995354 673.063862 
" clip-path="url(#p52c894adc6)" style="fill: #f29888"/>
    <path d="M 495.396899 674.206454 
L 495.360614 677.662724 
L 493.80224 677.648478 
L 493.836616 674.189358 
L 495.396899 674.206454 
" clip-path="url(#p52c894adc6)" style="fill: #f29888"/>
    <path d="M 574.749831 673.850284 
L 574.400343 677.617135 
L 572.91645 677.477516 
L 573.264029 673.713515 
L 574.749831 673.850284 
" clip-path="url(#p52c894adc6)" style="fill: #f29888"/>
    <path d="M 499.529646 674.374566 
L 499.500999 676.88485 
L 497.656159 676.864904 
L 497.686716 674.351771 
L 499.529646 674.374566 
" clip-path="url(#p52c894adc6)" style="fill: #f29888"/>
    <path d="M 566.978969 673.881627 
L 566.614203 676.850658 
L 564.792281 676.625558 
L 565.157047 673.659377 
L 566.978969 673.881627 
" clip-path="url(#p52c894adc6)" style="fill: #f29888"/>
    <path d="M 557.945748 672.243247 
L 557.267779 675.434527 
L 555.644473 675.089755 
L 556.324352 671.898475 
L 557.945748 672.243247 
" clip-path="url(#p52c894adc6)" style="fill: #f29888"/>
    <path d="M 567.538533 672.018148 
L 567.301721 673.616637 
L 564.939333 673.266166 
L 565.176145 671.667677 
L 567.538533 672.018148 
" clip-path="url(#p52c894adc6)" style="fill: #f29888"/>
    <path d="M 546.005854 668.929444 
L 545.681193 672.667801 
L 543.52888 672.479744 
L 543.853542 668.741387 
L 546.005854 668.929444 
" clip-path="url(#p52c894adc6)" style="fill: #f29888"/>
    <path d="M 529.138749 668.841114 
L 529.031802 671.78735 
L 527.087654 671.716116 
L 527.196511 668.76988 
L 529.138749 668.841114 
" clip-path="url(#p52c894adc6)" style="fill: #f29888"/>
    <path d="M 524.102681 666.151321 
L 523.68826 671.659129 
L 522.387705 671.562251 
L 522.802126 666.054443 
L 524.102681 666.151321 
" clip-path="url(#p52c894adc6)" style="fill: #f29888"/>
    <path d="M 507.172553 666.932045 
L 507.065606 669.952364 
L 505.043157 669.88113 
L 505.150104 666.860811 
L 507.172553 666.932045 
" clip-path="url(#p52c894adc6)" style="fill: #f29888"/>
    <path d="M 409.693976 672.417058 
L 409.693976 675.799245 
L 406.621153 675.799245 
L 406.621153 672.417058 
L 409.693976 672.417058 
" clip-path="url(#p52c894adc6)" style="fill: #f29888"/>
    <path d="M 485.855679 672.989778 
L 485.870957 675.189482 
L 484.515019 675.19803 
L 484.497831 672.998327 
L 485.855679 672.989778 
" clip-path="url(#p52c894adc6)" style="fill: #f29888"/>
    <path d="M 447.954346 665.26802 
L 448.181609 668.28264 
L 446.103777 668.439355 
L 445.876514 665.424735 
L 447.954346 665.26802 
" clip-path="url(#p52c894adc6)" style="fill: #f29888"/>
    <path d="M 442.467571 665.3592 
L 442.534413 668.276942 
L 440.998957 668.311134 
L 440.932115 665.396242 
L 442.467571 665.3592 
" clip-path="url(#p52c894adc6)" style="fill: #f29888"/>
    <path d="M 424.926316 665.584299 
L 424.912948 668.066089 
L 422.558199 668.054692 
L 422.571568 665.572902 
L 424.926316 665.584299 
" clip-path="url(#p52c894adc6)" style="fill: #f29888"/>
    <path d="M 419.756564 665.530161 
L 419.712639 667.835291 
L 418.053047 667.803948 
L 418.096972 665.498818 
L 419.756564 665.530161 
" clip-path="url(#p52c894adc6)" style="fill: #f29888"/>
    <path d="M 451.567634 665.176841 
L 451.680311 667.940718 
L 450.068463 668.009102 
L 449.955787 665.245226 
L 451.567634 665.176841 
" clip-path="url(#p52c894adc6)" style="fill: #f29888"/>
    <path d="M 475.3844 664.87196 
L 475.271723 668.123076 
L 472.689711 668.031897 
L 472.804298 664.78078 
L 475.3844 664.87196 
" clip-path="url(#p52c894adc6)" style="fill: #f29888"/>
    <path d="M 465.33518 664.823521 
L 465.4173 667.895128 
L 463.702325 667.940718 
L 463.620205 664.86911 
L 465.33518 664.823521 
" clip-path="url(#p52c894adc6)" style="fill: #f29888"/>
    <path d="M 417.732206 664.017153 
L 417.60807 667.835291 
L 415.917922 667.778304 
L 416.042057 663.963015 
L 417.732206 664.017153 
" clip-path="url(#p52c894adc6)" style="fill: #f29888"/>
    <path d="M 396.084941 672.625061 
L 396.908053 674.283387 
L 395.420341 675.02422 
L 394.597229 673.363044 
L 396.084941 672.625061 
" clip-path="url(#p52c894adc6)" style="fill: #f29888"/>
    <path d="M 385.275632 672.14067 
L 385.71297 674.782024 
L 384.179423 675.035617 
L 383.742085 672.394263 
L 385.275632 672.14067 
" clip-path="url(#p52c894adc6)" style="fill: #f29888"/>
    <path d="M 402.570527 672.422756 
L 402.62591 674.62246 
L 400.78298 674.670899 
L 400.725687 672.468346 
L 402.570527 672.422756 
" clip-path="url(#p52c894adc6)" style="fill: #f29888"/>
    <path d="M 389.276604 672.266042 
L 389.803701 674.354621 
L 388.537523 674.673749 
L 388.010426 672.58517 
L 389.276604 672.266042 
" clip-path="url(#p52c894adc6)" style="fill: #f29888"/>
    <path d="M 310.490875 672.58232 
L 314.971199 672.260343 
L 315.104884 674.132371 
L 310.624559 674.454348 
L 310.490875 672.58232 
" clip-path="url(#p52c894adc6)" style="fill: #f29888"/>
    <path d="M 382.819666 672.029545 
L 382.972447 674.442951 
L 381.339592 674.545528 
L 381.186811 672.132122 
L 382.819666 672.029545 
" clip-path="url(#p52c894adc6)" style="fill: #f29888"/>
    <path d="M 318.131872 671.767404 
L 325.879817 671.220328 
L 326.036418 673.422881 
L 318.288473 673.972807 
L 318.131872 671.767404 
" clip-path="url(#p52c894adc6)" style="fill: #f29888"/>
    <path d="M 296.29363 668.712893 
L 296.38339 670.479495 
L 292.157064 670.696046 
L 292.067305 668.929444 
L 296.29363 668.712893 
" clip-path="url(#p52c894adc6)" style="fill: #f29888"/>
    <path d="M 318.072669 665.125553 
L 322.184408 664.991633 
L 322.155761 664.076989 
L 323.647293 664.02855 
L 323.679759 665.028674 
L 325.192299 664.980235 
L 325.253411 666.835167 
L 323.935669 666.877907 
L 323.977684 668.188612 
L 322.125205 668.248448 
L 322.094649 667.293913 
L 318.14906 667.424984 
L 318.072669 665.125553 
" clip-path="url(#p52c894adc6)" style="fill: #f29888"/>
    <path d="M 404.195742 664.806425 
L 404.153727 667.387942 
L 402.753865 667.367997 
L 402.79588 664.78363 
L 404.195742 664.806425 
" clip-path="url(#p52c894adc6)" style="fill: #f29888"/>
    <path d="M 513.150139 665.26802 
L 512.877041 669.465124 
L 511.544021 669.379643 
L 511.815208 665.17969 
L 513.150139 665.26802 
" clip-path="url(#p52c894adc6)" style="fill: #f29888"/>
    <path d="M 496.624883 665.592847 
L 496.290672 668.99213 
L 494.749487 668.838265 
L 495.083697 665.441831 
L 496.624883 665.592847 
" clip-path="url(#p52c894adc6)" style="fill: #f29888"/>
    <path d="M 499.758818 664.492995 
L 499.569751 666.094334 
L 500.450156 666.196911 
L 500.282096 667.62159 
L 499.525826 667.53041 
L 499.395962 668.635961 
L 497.812761 668.450752 
L 498.299753 664.322034 
L 499.758818 664.492995 
" clip-path="url(#p52c894adc6)" style="fill: #f29888"/>
    <path d="M 492.990587 664.165319 
L 492.690752 668.898102 
L 490.920394 668.786977 
L 491.218318 664.054194 
L 492.990587 664.165319 
" clip-path="url(#p52c894adc6)" style="fill: #f29888"/>
    <path d="M 444.499568 663.27347 
L 444.493839 664.91755 
L 445.208094 664.920399 
L 445.192816 668.527685 
L 443.552322 668.521986 
L 443.573329 663.267772 
L 444.499568 663.27347 
" clip-path="url(#p52c894adc6)" style="fill: #f29888"/>
    <path d="M 437.542269 662.239154 
L 437.502164 668.362422 
L 435.684061 668.351025 
L 435.724167 662.227756 
L 437.542269 662.239154 
" clip-path="url(#p52c894adc6)" style="fill: #f29888"/>
    <path d="M 412.243521 663.005631 
L 412.16713 667.447779 
L 410.677508 667.422135 
L 410.753899 662.979987 
L 412.243521 663.005631 
" clip-path="url(#p52c894adc6)" style="fill: #f29888"/>
    <path d="M 467.393914 664.236553 
L 467.479854 661.615145 
L 468.654363 661.655036 
L 468.450018 667.900827 
L 466.374096 667.835291 
L 466.492502 664.20806 
L 467.393914 664.236553 
" clip-path="url(#p52c894adc6)" style="fill: #f29888"/>
    <path d="M 401.919294 664.823521 
L 401.947941 667.231228 
L 400.108831 667.254022 
L 400.078274 664.846316 
L 401.919294 664.823521 
" clip-path="url(#p52c894adc6)" style="fill: #f29888"/>
    <path d="M 399.717327 664.87196 
L 399.717327 667.202734 
L 397.899224 667.202734 
L 397.899224 664.87196 
L 399.717327 664.87196 
" clip-path="url(#p52c894adc6)" style="fill: #f29888"/>
    <path d="M 407.304851 664.609819 
L 407.241829 667.456327 
L 405.374072 667.413586 
L 405.437094 664.569928 
L 407.304851 664.609819 
" clip-path="url(#p52c894adc6)" style="fill: #f29888"/>
    <path d="M 382.315486 663.683778 
L 382.315486 667.006128 
L 380.163173 667.006128 
L 380.163173 663.683778 
L 382.315486 663.683778 
" clip-path="url(#p52c894adc6)" style="fill: #f29888"/>
    <path d="M 392.215743 663.415938 
L 392.082059 667.202734 
L 390.034784 667.1315 
L 390.166558 663.341855 
L 392.215743 663.415938 
" clip-path="url(#p52c894adc6)" style="fill: #f29888"/>
    <path d="M 387.64184 663.225031 
L 387.538712 667.114404 
L 385.590745 667.063116 
L 385.693872 663.173743 
L 387.64184 663.225031 
" clip-path="url(#p52c894adc6)" style="fill: #f29888"/>
    <path d="M 369.741548 663.686627 
L 370.047111 666.122828 
L 368.223279 666.350776 
L 367.917715 663.914576 
L 369.741548 663.686627 
" clip-path="url(#p52c894adc6)" style="fill: #f29888"/>
    <path d="M 372.90413 661.974164 
L 373.121844 666.840866 
L 371.716252 666.903552 
L 371.496628 662.036849 
L 372.90413 661.974164 
" clip-path="url(#p52c894adc6)" style="fill: #f29888"/>
    <path d="M 395.714445 661.655036 
L 395.655242 666.826619 
L 393.938358 666.809523 
L 393.99756 661.63509 
L 395.714445 661.655036 
" clip-path="url(#p52c894adc6)" style="fill: #f29888"/>
    <path d="M 365.308967 660.897107 
L 366.042319 663.928823 
L 363.878548 664.450255 
L 363.147105 661.418539 
L 365.308967 660.897107 
" clip-path="url(#p52c894adc6)" style="fill: #f29888"/>
    <path d="M 259.030161 764.397157 
L 259.431213 766.631053 
L 258.233786 766.844755 
L 257.832734 764.610859 
L 259.030161 764.397157 
" clip-path="url(#p52c894adc6)" style="fill: #f29888"/>
    <path d="M 254.372227 759.014722 
L 254.924152 761.211576 
L 253.564394 761.553499 
L 253.01056 759.356645 
L 254.372227 759.014722 
" clip-path="url(#p52c894adc6)" style="fill: #f29888"/>
    <path d="M 257.52908 756.641207 
L 258.159305 758.84376 
L 255.26982 759.672923 
L 254.637686 757.47037 
L 257.52908 756.641207 
" clip-path="url(#p52c894adc6)" style="fill: #f29888"/>
    <path d="M 255.487534 749.942368 
L 256.154045 752.495392 
L 253.520469 753.184937 
L 252.853959 750.631913 
L 255.487534 749.942368 
" clip-path="url(#p52c894adc6)" style="fill: #f29888"/>
    <path d="M 253.086951 744.827772 
L 253.363868 745.89913 
L 251.463645 746.38922 
L 251.186728 745.320711 
L 253.086951 744.827772 
" clip-path="url(#p52c894adc6)" style="fill: #f29888"/>
    <path d="M 255.025369 744.078391 
L 255.35958 745.10416 
L 253.797386 745.614195 
L 253.463176 744.591276 
L 255.025369 744.078391 
" clip-path="url(#p52c894adc6)" style="fill: #f29888"/>
    <path d="M 253.041116 741.975566 
L 253.656063 744.252202 
L 250.741751 745.041474 
L 250.124895 742.764838 
L 253.041116 741.975566 
" clip-path="url(#p52c894adc6)" style="fill: #f29888"/>
    <path d="M 252.011749 738.524994 
L 252.431899 740.103538 
L 250.451466 740.630669 
L 250.031316 739.052125 
L 252.011749 738.524994 
" clip-path="url(#p52c894adc6)" style="fill: #f29888"/>
    <path d="M 261.682834 736.664364 
L 262.13545 738.373978 
L 258.827725 739.25158 
L 258.3732 737.541966 
L 261.682834 736.664364 
" clip-path="url(#p52c894adc6)" style="fill: #f29888"/>
    <path d="M 251.194367 734.450413 
L 251.58969 736.63872 
L 248.963753 737.111713 
L 248.568431 734.926256 
L 251.194367 734.450413 
" clip-path="url(#p52c894adc6)" style="fill: #f29888"/>
    <path d="M 315.855424 733.575661 
L 316.235468 734.866419 
L 313.888359 735.558813 
L 313.508314 734.270904 
L 315.855424 733.575661 
" clip-path="url(#p52c894adc6)" style="fill: #f29888"/>
    <path d="M 315.018944 730.481259 
L 315.589966 732.316245 
L 313.412826 732.994392 
L 312.839894 731.162255 
L 315.018944 730.481259 
" clip-path="url(#p52c894adc6)" style="fill: #f29888"/>
    <path d="M 305.217994 724.152836 
L 305.450987 725.24699 
L 303.550764 725.654448 
L 303.315862 724.557445 
L 305.217994 724.152836 
" clip-path="url(#p52c894adc6)" style="fill: #f29888"/>
    <path d="M 312.494225 722.58569 
L 312.950661 724.748352 
L 310.248334 725.315374 
L 309.791898 723.152712 
L 312.494225 722.58569 
" clip-path="url(#p52c894adc6)" style="fill: #f29888"/>
    <path d="M 309.841552 717.986827 
L 310.168123 719.989925 
L 309.301087 720.132393 
L 309.150215 719.212051 
L 308.138036 719.377314 
L 307.960427 718.294558 
L 309.841552 717.986827 
" clip-path="url(#p52c894adc6)" style="fill: #f29888"/>
    <path d="M 304.658431 719.411506 
L 301.746029 720.061159 
L 301.396541 718.496862 
L 304.310853 717.847209 
L 304.658431 719.411506 
" clip-path="url(#p52c894adc6)" style="fill: #f29888"/>
    <path d="M 310.502333 714.177237 
L 311.11919 716.399735 
L 308.456968 717.140568 
L 307.840111 714.91807 
L 310.502333 714.177237 
" clip-path="url(#p52c894adc6)" style="fill: #f29888"/>
    <path d="M 303.191726 713.618763 
L 303.671079 715.972332 
L 300.634542 716.590642 
L 300.155189 714.237073 
L 303.191726 713.618763 
" clip-path="url(#p52c894adc6)" style="fill: #f29888"/>
    <path d="M 302.15472 711.584322 
L 302.559592 713.214154 
L 298.117463 714.319705 
L 297.712591 712.692722 
L 302.15472 711.584322 
" clip-path="url(#p52c894adc6)" style="fill: #f29888"/>
    <path d="M 310.380108 712.855135 
L 307.442879 713.393664 
L 307.110578 711.572924 
L 310.047808 711.037245 
L 310.380108 712.855135 
" clip-path="url(#p52c894adc6)" style="fill: #f29888"/>
    <path d="M 259.805529 734.10849 
L 260.300159 736.01471 
L 257.571095 736.721351 
L 257.076464 734.815131 
L 259.805529 734.10849 
" clip-path="url(#p52c894adc6)" style="fill: #f29888"/>
    <path d="M 261.153827 731.871745 
L 261.413556 733.102667 
L 257.068825 734.02016 
L 256.809096 732.789238 
L 261.153827 731.871745 
" clip-path="url(#p52c894adc6)" style="fill: #f29888"/>
    <path d="M 250.745571 731.381656 
L 251.049224 733.852048 
L 248.092897 734.216766 
L 247.789244 731.746373 
L 250.745571 731.381656 
" clip-path="url(#p52c894adc6)" style="fill: #f29888"/>
    <path d="M 256.663954 718.967006 
L 257.009622 721.186656 
L 254.137326 721.634005 
L 253.789747 719.414355 
L 256.663954 718.967006 
" clip-path="url(#p52c894adc6)" style="fill: #f29888"/>
    <path d="M 254.366498 712.601542 
L 254.971896 716.285761 
L 253.201537 716.576396 
L 252.59614 712.892177 
L 254.366498 712.601542 
" clip-path="url(#p52c894adc6)" style="fill: #f29888"/>
    <path d="M 255.115129 708.250574 
L 255.405414 710.162493 
L 252.074772 710.666829 
L 251.784487 708.75491 
L 255.115129 708.250574 
" clip-path="url(#p52c894adc6)" style="fill: #f29888"/>
    <path d="M 279.369232 706.446931 
L 279.628961 707.874459 
L 277.549219 708.256273 
L 277.28949 706.825895 
L 279.369232 706.446931 
" clip-path="url(#p52c894adc6)" style="fill: #f29888"/>
    <path d="M 267.123774 699.480252 
L 267.377774 702.469228 
L 265.221642 702.651587 
L 264.969552 699.662611 
L 267.123774 699.480252 
" clip-path="url(#p52c894adc6)" style="fill: #f29888"/>
    <path d="M 263.804591 699.93615 
L 263.850425 702.135853 
L 262.335976 702.167196 
L 262.292052 699.967492 
L 263.804591 699.93615 
" clip-path="url(#p52c894adc6)" style="fill: #f29888"/>
    <path d="M 252.966635 699.716749 
L 253.207267 700.981864 
L 251.50375 701.303841 
L 251.265029 700.041576 
L 252.966635 699.716749 
" clip-path="url(#p52c894adc6)" style="fill: #f29888"/>
    <path d="M 248.786145 728.916962 
L 249.038235 730.259009 
L 246.418028 730.749098 
L 246.167847 729.407051 
L 248.786145 728.916962 
" clip-path="url(#p52c894adc6)" style="fill: #f29888"/>
    <path d="M 248.450025 724.7569 
L 248.914099 727.01644 
L 244.794721 727.85985 
L 244.332557 725.60031 
L 248.450025 724.7569 
" clip-path="url(#p52c894adc6)" style="fill: #f29888"/>
    <path d="M 247.523785 720.508508 
L 247.961123 722.448921 
L 245.342826 723.038738 
L 244.905488 721.098325 
L 247.523785 720.508508 
" clip-path="url(#p52c894adc6)" style="fill: #f29888"/>
    <path d="M 246.536433 716.656178 
L 246.948944 718.502561 
L 243.981159 719.163612 
L 243.568648 717.320078 
L 246.536433 716.656178 
" clip-path="url(#p52c894adc6)" style="fill: #f29888"/>
    <path d="M 245.959682 713.017548 
L 246.160208 714.379541 
L 244.038452 714.690121 
L 243.837926 713.330978 
L 245.959682 713.017548 
" clip-path="url(#p52c894adc6)" style="fill: #f29888"/>
    <path d="M 245.772525 711.393415 
L 243.614482 711.846463 
L 243.020543 709.0199 
L 245.178586 708.566852 
L 245.772525 711.393415 
" clip-path="url(#p52c894adc6)" style="fill: #f29888"/>
    <path d="M 244.800451 704.554958 
L 245.163307 706.80595 
L 241.563387 707.387219 
L 241.200531 705.136226 
L 244.800451 704.554958 
" clip-path="url(#p52c894adc6)" style="fill: #f29888"/>
    <path d="M 243.746257 701.873712 
L 243.990707 702.882385 
L 243.259265 703.059045 
L 243.480798 703.970839 
L 242.006454 704.329858 
L 241.54047 702.406542 
L 243.746257 701.873712 
" clip-path="url(#p52c894adc6)" style="fill: #f29888"/>
    <path d="M 241.37814 688.837903 
L 241.718079 690.593107 
L 239.796848 690.963524 
L 239.936262 691.69011 
L 238.10479 692.04343 
L 237.625438 689.564489 
L 241.37814 688.837903 
" clip-path="url(#p52c894adc6)" style="fill: #f29888"/>
    <path d="M 249.383903 676.266539 
L 249.893812 678.61156 
L 247.078809 679.227021 
L 246.5689 676.882 
L 249.383903 676.266539 
" clip-path="url(#p52c894adc6)" style="fill: #f29888"/>
    <path d="M 402.599173 710.695322 
L 401.686302 713.046042 
L 400.015252 712.396389 
L 400.928123 710.048518 
L 402.599173 710.695322 
" clip-path="url(#p52c894adc6)" style="fill: #f29888"/>
    <path d="M 312.943022 708.153696 
L 313.487307 710.723816 
L 310.857551 711.28229 
L 310.313266 708.71217 
L 312.943022 708.153696 
" clip-path="url(#p52c894adc6)" style="fill: #f29888"/>
    <path d="M 397.60321 707.46985 
L 396.60058 709.350426 
L 393.772207 707.843116 
L 394.772928 705.96254 
L 397.60321 707.46985 
" clip-path="url(#p52c894adc6)" style="fill: #f29888"/>
    <path d="M 301.073789 706.389944 
L 301.423278 708.353151 
L 300.095986 708.589647 
L 299.746498 706.62644 
L 301.073789 706.389944 
" clip-path="url(#p52c894adc6)" style="fill: #f29888"/>
    <path d="M 283.645211 705.084938 
L 284.15894 707.60092 
L 282.170867 708.005529 
L 281.657139 705.492396 
L 283.645211 705.084938 
" clip-path="url(#p52c894adc6)" style="fill: #f29888"/>
    <path d="M 300.802602 703.797029 
L 301.085248 705.358476 
L 297.840546 705.945444 
L 297.557899 704.383996 
L 300.802602 703.797029 
" clip-path="url(#p52c894adc6)" style="fill: #f29888"/>
    <path d="M 324.130465 689.188374 
L 324.754961 691.433668 
L 323.234782 691.858222 
L 322.608377 689.612928 
L 324.130465 689.188374 
" clip-path="url(#p52c894adc6)" style="fill: #f29888"/>
    <path d="M 329.317406 687.373334 
L 330.360141 690.160005 
L 328.563046 690.832453 
L 327.520311 688.045782 
L 329.317406 687.373334 
" clip-path="url(#p52c894adc6)" style="fill: #f29888"/>
    <path d="M 285.656201 686.957327 
L 285.986591 689.413473 
L 284.842638 689.567339 
L 284.512248 687.111193 
L 285.656201 686.957327 
" clip-path="url(#p52c894adc6)" style="fill: #f29888"/>
    <path d="M 333.226709 686.008492 
L 334.120482 688.991769 
L 332.493357 689.479009 
L 331.599583 686.498581 
L 333.226709 686.008492 
" clip-path="url(#p52c894adc6)" style="fill: #f29888"/>
    <path d="M 288.614438 686.125315 
L 288.960106 688.997467 
L 286.941477 689.239663 
L 286.595809 686.367511 
L 288.614438 686.125315 
" clip-path="url(#p52c894adc6)" style="fill: #f29888"/>
    <path d="M 336.055081 684.982723 
L 336.971772 688.265182 
L 335.207142 688.758121 
L 334.290452 685.475662 
L 336.055081 684.982723 
" clip-path="url(#p52c894adc6)" style="fill: #f29888"/>
    <path d="M 339.635903 684.099422 
L 340.579331 687.119741 
L 338.761228 687.689612 
L 337.817801 684.666444 
L 339.635903 684.099422 
" clip-path="url(#p52c894adc6)" style="fill: #f29888"/>
    <path d="M 341.76148 682.51233 
L 342.718275 685.683665 
L 341.051044 686.188001 
L 340.094249 683.013817 
L 341.76148 682.51233 
" clip-path="url(#p52c894adc6)" style="fill: #f29888"/>
    <path d="M 345.178062 681.466616 
L 346.520631 685.279056 
L 345.031009 685.803338 
L 343.68653 681.993747 
L 345.178062 681.466616 
" clip-path="url(#p52c894adc6)" style="fill: #f29888"/>
    <path d="M 295.101933 681.617632 
L 295.407496 683.612182 
L 293.906415 683.840131 
L 293.600852 681.84843 
L 295.101933 681.617632 
" clip-path="url(#p52c894adc6)" style="fill: #f29888"/>
    <path d="M 298.510876 678.979127 
L 298.839356 680.720085 
L 296.100743 681.235818 
L 295.772263 679.494861 
L 298.510876 678.979127 
" clip-path="url(#p52c894adc6)" style="fill: #f29888"/>
    <path d="M 405.194553 676.354869 
L 405.358793 677.862179 
L 402.154196 678.209801 
L 401.989956 676.702491 
L 405.194553 676.354869 
" clip-path="url(#p52c894adc6)" style="fill: #f29888"/>
    <path d="M 365.140907 674.032643 
L 366.353612 677.922016 
L 363.918653 678.682794 
L 362.705948 674.793422 
L 365.140907 674.032643 
" clip-path="url(#p52c894adc6)" style="fill: #f29888"/>
    <path d="M 297.403208 674.830463 
L 297.796621 677.315103 
L 295.422774 677.691218 
L 295.031271 675.203729 
L 297.403208 674.830463 
" clip-path="url(#p52c894adc6)" style="fill: #f29888"/>
    <path d="M 274.984396 699.069945 
L 275.242215 701.494748 
L 272.623917 701.773985 
L 272.366098 699.349182 
L 274.984396 699.069945 
" clip-path="url(#p52c894adc6)" style="fill: #f29888"/>
    <path d="M 281.286643 695.482604 
L 281.487169 697.366029 
L 282.338927 697.27485 
L 282.762896 701.275347 
L 280.186614 701.548886 
L 279.560209 695.664963 
L 281.286643 695.482604 
" clip-path="url(#p52c894adc6)" style="fill: #f29888"/>
    <path d="M 253.68089 697.035504 
L 253.946348 698.765064 
L 252.309674 699.015807 
L 252.216095 698.408894 
L 251.391074 698.537115 
L 251.219194 697.414468 
L 253.68089 697.035504 
" clip-path="url(#p52c894adc6)" style="fill: #f29888"/>
    <path d="M 254.125867 694.565111 
L 254.387506 695.864418 
L 251.774938 696.391549 
L 251.513299 695.095092 
L 254.125867 694.565111 
" clip-path="url(#p52c894adc6)" style="fill: #f29888"/>
    <path d="M 253.18053 691.299748 
L 253.579672 693.678961 
L 250.172639 694.251682 
L 249.771587 691.872469 
L 253.18053 691.299748 
" clip-path="url(#p52c894adc6)" style="fill: #f29888"/>
    <path d="M 283.251798 690.724178 
L 283.375933 692.992266 
L 281.454703 693.097692 
L 281.330568 690.826755 
L 283.251798 690.724178 
" clip-path="url(#p52c894adc6)" style="fill: #f29888"/>
    <path d="M 252.223734 688.290827 
L 249.257858 688.877794 
L 248.950385 687.322045 
L 251.916261 686.735078 
L 252.223734 688.290827 
" clip-path="url(#p52c894adc6)" style="fill: #f29888"/>
    <path d="M 251.543855 683.686265 
L 251.83605 685.210672 
L 248.805242 685.789091 
L 248.514957 684.264685 
L 251.543855 683.686265 
" clip-path="url(#p52c894adc6)" style="fill: #f29888"/>
    <path d="M 250.287225 681.250065 
L 250.768488 683.352891 
L 247.955394 683.999695 
L 247.474131 681.89402 
L 250.287225 681.250065 
" clip-path="url(#p52c894adc6)" style="fill: #f29888"/>
    <path d="M 264.438635 647.721679 
L 265.108965 649.947027 
L 261.986488 650.887315 
L 261.316158 648.661967 
L 264.438635 647.721679 
" clip-path="url(#p52c894adc6)" style="fill: #f29888"/>
    <path d="M 294.525182 660.412716 
L 289.922631 661.053821 
L 289.718286 659.586402 
L 294.320836 658.945297 
L 294.525182 660.412716 
" clip-path="url(#p52c894adc6)" style="fill: #f29888"/>
    <path d="M 293.245634 652.249307 
L 293.549288 654.223912 
L 290.866059 654.637069 
L 290.560495 652.659615 
L 293.245634 652.249307 
" clip-path="url(#p52c894adc6)" style="fill: #f29888"/>
    <path d="M 291.727366 645.892392 
L 291.93935 647.784365 
L 289.508211 648.057903 
L 289.296226 646.16593 
L 291.727366 645.892392 
" clip-path="url(#p52c894adc6)" style="fill: #f29888"/>
    <path d="M 286.903282 633.791172 
L 286.232952 630.055664 
L 288.522769 629.645357 
L 289.76794 636.600638 
L 283.754068 637.677695 
L 283.175407 634.457921 
L 286.903282 633.791172 
" clip-path="url(#p52c894adc6)" style="fill: #f29888"/>
    <path d="M 246.992869 604.092321 
L 248.711664 615.80033 
L 245.232059 616.310365 
L 243.515174 604.602356 
L 246.992869 604.092321 
" clip-path="url(#p52c894adc6)" style="fill: #f29888"/>
    <path d="M 239.556217 599.453568 
L 240.61996 609.59443 
L 237.086882 609.964847 
L 236.023139 599.823984 
L 239.556217 599.453568 
" clip-path="url(#p52c894adc6)" style="fill: #f29888"/>
    <path d="M 245.650299 601.801438 
L 243.119851 602.023688 
L 242.726438 597.5388 
L 245.256886 597.31655 
L 245.650299 601.801438 
" clip-path="url(#p52c894adc6)" style="fill: #f29888"/>
    <path d="M 247.537154 572.552787 
L 249.962564 572.416017 
L 250.08097 574.493199 
L 247.65556 574.629968 
L 247.537154 572.552787 
" clip-path="url(#p52c894adc6)" style="fill: #f29888"/>
    <path d="M 248.929378 566.238611 
L 249.196746 568.572235 
L 247.073079 568.817279 
L 246.805711 566.483656 
L 248.929378 566.238611 
" clip-path="url(#p52c894adc6)" style="fill: #f29888"/>
    <path d="M 249.895722 560.898916 
L 250.155451 563.642847 
L 248.165469 563.830904 
L 248.096717 563.107167 
L 246.372193 563.269581 
L 246.181216 561.249387 
L 249.895722 560.898916 
" clip-path="url(#p52c894adc6)" style="fill: #f29888"/>
    <path d="M 238.60706 552.957757 
L 236.695379 553.125869 
L 236.452838 550.379089 
L 238.366429 550.210977 
L 238.60706 552.957757 
" clip-path="url(#p52c894adc6)" style="fill: #f29888"/>
    <path d="M 250.365526 541.856662 
L 250.758939 544.74591 
L 244.63812 545.580771 
L 244.244707 542.691523 
L 250.365526 541.856662 
" clip-path="url(#p52c894adc6)" style="fill: #f29888"/>
    <path d="M 244.936045 533.656211 
L 243.068288 533.875612 
L 242.802829 531.62462 
L 244.670586 531.40237 
L 244.936045 533.656211 
" clip-path="url(#p52c894adc6)" style="fill: #f29888"/>
    <path d="M 243.687054 524.210592 
L 243.868482 526.410296 
L 242.052289 526.561312 
L 241.870861 524.361608 
L 243.687054 524.210592 
" clip-path="url(#p52c894adc6)" style="fill: #f29888"/>
    <path d="M 269.235982 646.812734 
L 269.522448 648.935505 
L 266.90797 649.288825 
L 266.621504 647.166054 
L 269.235982 646.812734 
" clip-path="url(#p52c894adc6)" style="fill: #f29888"/>
    <path d="M 281.720161 645.262684 
L 281.876762 647.314221 
L 279.269924 647.513676 
L 279.111413 645.462139 
L 281.720161 645.262684 
" clip-path="url(#p52c894adc6)" style="fill: #f29888"/>
    <path d="M 282.974881 633.728486 
L 283.175407 634.457921 
L 283.754068 637.677695 
L 280.329847 638.36439 
L 279.615592 634.321152 
L 282.974881 633.728486 
" clip-path="url(#p52c894adc6)" style="fill: #f29888"/>
    <path d="M 257.727697 611.053301 
L 259.314717 619.071392 
L 256.728886 619.584277 
L 255.141866 611.566185 
L 257.727697 611.053301 
" clip-path="url(#p52c894adc6)" style="fill: #f29888"/>
    <path d="M 253.071673 596.000147 
L 253.277928 598.077328 
L 250.74748 598.330921 
L 250.539315 596.25374 
L 253.071673 596.000147 
" clip-path="url(#p52c894adc6)" style="fill: #f29888"/>
    <path d="M 252.086231 588.791273 
L 252.311584 590.817166 
L 249.733392 591.104951 
L 249.508038 589.076209 
L 252.086231 588.791273 
" clip-path="url(#p52c894adc6)" style="fill: #f29888"/>
    <path d="M 251.234472 583.491469 
L 251.408262 585.48317 
L 249.254039 585.671227 
L 249.08025 583.679526 
L 251.234472 583.491469 
" clip-path="url(#p52c894adc6)" style="fill: #f29888"/>
    <path d="M 251.163811 577.690178 
L 251.50757 579.716071 
L 248.543604 580.217557 
L 248.201754 578.191664 
L 251.163811 577.690178 
" clip-path="url(#p52c894adc6)" style="fill: #f29888"/>
    <path d="M 251.286036 306.474113 
L 252.720275 309.343415 
L 250.875435 310.263758 
L 249.441196 307.397304 
L 251.286036 306.474113 
" clip-path="url(#p52c894adc6)" style="fill: #f29888"/>
    <path d="M 253.938709 304.9782 
L 255.302286 307.471388 
L 253.726725 308.334743 
L 252.361238 305.841555 
L 253.938709 304.9782 
" clip-path="url(#p52c894adc6)" style="fill: #f29888"/>
    <path d="M 218.716786 717.855757 
L 219.469236 721.180957 
L 217.559464 721.614059 
L 216.807014 718.288859 
L 218.716786 717.855757 
" clip-path="url(#p52c894adc6)" style="fill: #f29888"/>
    <path d="M 230.903041 715.767178 
L 231.082559 717.094979 
L 228.445164 717.451148 
L 228.265646 716.123348 
L 230.903041 715.767178 
" clip-path="url(#p52c894adc6)" style="fill: #f29888"/>
    <path d="M 230.475252 712.706968 
L 230.946965 714.710067 
L 228.055571 715.391063 
L 227.585767 713.387965 
L 230.475252 712.706968 
" clip-path="url(#p52c894adc6)" style="fill: #f29888"/>
    <path d="M 215.145513 710.780803 
L 216.046925 713.425007 
L 213.953815 714.140195 
L 213.052403 711.493142 
L 215.145513 710.780803 
" clip-path="url(#p52c894adc6)" style="fill: #f29888"/>
    <path d="M 227.05485 708.176491 
L 227.841676 710.718117 
L 226.012115 711.287989 
L 225.223379 708.743513 
L 227.05485 708.176491 
" clip-path="url(#p52c894adc6)" style="fill: #f29888"/>
    <path d="M 237.014311 668.19716 
L 234.581261 668.541932 
L 234.233683 666.085786 
L 236.666732 665.741014 
L 237.014311 668.19716 
" clip-path="url(#p52c894adc6)" style="fill: #f29888"/>
    <path d="M 235.824523 661.364401 
L 236.195019 663.472925 
L 233.213865 663.997207 
L 232.843369 661.888683 
L 235.824523 661.364401 
" clip-path="url(#p52c894adc6)" style="fill: #f29888"/>
    <path d="M 234.789426 657.589003 
L 235.389095 659.623444 
L 232.564542 660.455456 
L 231.964874 658.421015 
L 234.789426 657.589003 
" clip-path="url(#p52c894adc6)" style="fill: #f29888"/>
    <path d="M 233.017158 647.519374 
L 234.602269 655.939225 
L 232.675309 656.303943 
L 231.092108 647.881243 
L 233.017158 647.519374 
" clip-path="url(#p52c894adc6)" style="fill: #f29888"/>
    <path d="M 236.238943 627.226253 
L 236.691559 630.366244 
L 230.431327 631.26949 
L 229.976801 628.132348 
L 236.238943 627.226253 
" clip-path="url(#p52c894adc6)" style="fill: #f29888"/>
    <path d="M 239.70136 674.271989 
L 239.844593 675.978754 
L 237.266401 676.195305 
L 237.123168 674.485691 
L 239.70136 674.271989 
" clip-path="url(#p52c894adc6)" style="fill: #f29888"/>
    <path d="M 248.979032 670.909748 
L 249.385813 672.884352 
L 246.261426 673.528307 
L 245.854645 671.553702 
L 248.979032 670.909748 
" clip-path="url(#p52c894adc6)" style="fill: #f29888"/>
    <path d="M 237.831693 670.180312 
L 238.123888 672.277439 
L 236.668642 672.479744 
L 236.865349 673.884477 
L 235.329892 674.101028 
L 234.84099 670.596318 
L 237.831693 670.180312 
" clip-path="url(#p52c894adc6)" style="fill: #f29888"/>
    <path d="M 247.970672 666.889305 
L 248.144461 668.120227 
L 245.386751 668.50774 
L 245.212961 667.276817 
L 247.970672 666.889305 
" clip-path="url(#p52c894adc6)" style="fill: #f29888"/>
    <path d="M 248.218942 664.886207 
L 248.482491 666.518888 
L 245.044902 667.071664 
L 244.781353 665.441831 
L 248.218942 664.886207 
" clip-path="url(#p52c894adc6)" style="fill: #f29888"/>
    <path d="M 246.81908 660.74894 
L 247.395831 663.259224 
L 244.462421 663.934521 
L 243.88567 661.424238 
L 246.81908 660.74894 
" clip-path="url(#p52c894adc6)" style="fill: #f29888"/>
    <path d="M 243.343295 646.16308 
L 243.820738 650.499802 
L 241.884229 650.713504 
L 241.404876 646.376782 
L 243.343295 646.16308 
" clip-path="url(#p52c894adc6)" style="fill: #f29888"/>
    <path d="M 247.680387 637.458294 
L 248.054702 639.60386 
L 245.358104 640.074004 
L 244.983789 637.928438 
L 247.680387 637.458294 
" clip-path="url(#p52c894adc6)" style="fill: #f29888"/>
    <path d="M 247.434026 618.521466 
L 248.530235 625.009453 
L 245.466961 625.528036 
L 244.370752 619.0372 
L 247.434026 618.521466 
" clip-path="url(#p52c894adc6)" style="fill: #f29888"/>
    <path d="M 240.386968 621.060244 
L 240.398427 620.248177 
L 241.884229 620.1456 
L 241.973988 620.960516 
L 242.833386 621.006106 
L 242.907867 622.399441 
L 242.067567 622.550457 
L 242.231808 623.4708 
L 240.585584 623.573377 
L 240.44999 622.655884 
L 236.760311 622.809749 
L 236.710657 621.271096 
L 240.386968 621.060244 
" clip-path="url(#p52c894adc6)" style="fill: #f29888"/>
    <path d="M 211.681187 719.001199 
L 212.112795 720.836185 
L 208.38874 721.710937 
L 207.959041 719.875951 
L 211.681187 719.001199 
" clip-path="url(#p52c894adc6)" style="fill: #f29888"/>
    <path d="M 208.97504 712.977657 
L 209.874542 716.043566 
L 207.794801 716.653328 
L 206.895298 713.58742 
L 208.97504 712.977657 
" clip-path="url(#p52c894adc6)" style="fill: #f29888"/>
    <path d="M 204.662775 712.83519 
L 205.144037 715.111826 
L 203.788099 715.399611 
L 203.306837 713.120125 
L 204.662775 712.83519 
" clip-path="url(#p52c894adc6)" style="fill: #f29888"/>
    <path d="M 205.3713 662.923 
L 206.410216 665.456078 
L 204.509993 666.233953 
L 203.472987 663.703723 
L 205.3713 662.923 
" clip-path="url(#p52c894adc6)" style="fill: #f29888"/>
    <path d="M 201.851591 663.304813 
L 202.334763 665.515915 
L 201.27293 665.746712 
L 200.789757 663.538461 
L 201.851591 663.304813 
" clip-path="url(#p52c894adc6)" style="fill: #f29888"/>
    <path d="M 157.974581 565.999265 
L 156.920387 567.734524 
L 154.739428 566.412422 
L 155.793622 564.674314 
L 157.974581 565.999265 
" clip-path="url(#p52c894adc6)" style="fill: #f29888"/>
    <path d="M 155.772614 563.446241 
L 155.102284 564.680013 
L 153.095114 563.588709 
L 153.767354 562.354937 
L 155.772614 563.446241 
" clip-path="url(#p52c894adc6)" style="fill: #f29888"/>
    <path d="M 137.776834 547.908696 
L 136.745557 549.62116 
L 135.110792 548.635282 
L 136.142069 546.922819 
L 137.776834 547.908696 
" clip-path="url(#p52c894adc6)" style="fill: #f29888"/>
    <path d="M 135.559589 545.415509 
L 134.383169 547.529732 
L 133.141817 546.837338 
L 134.320147 544.723115 
L 135.559589 545.415509 
" clip-path="url(#p52c894adc6)" style="fill: #f29888"/>
    <path d="M 131.10791 542.329655 
L 129.807356 544.241573 
L 128.522079 543.366821 
L 129.822634 541.454902 
L 131.10791 542.329655 
" clip-path="url(#p52c894adc6)" style="fill: #f29888"/>
    <path d="M 230.652861 614.361405 
L 231.701325 625.533734 
L 228.401239 625.844314 
L 227.354684 614.669135 
L 230.652861 614.361405 
" clip-path="url(#p52c894adc6)" style="fill: #f29888"/>
    <path d="M 230.534455 600.408103 
L 231.644032 610.671487 
L 228.179706 611.047602 
L 227.070128 600.781368 
L 230.534455 600.408103 
" clip-path="url(#p52c894adc6)" style="fill: #f29888"/>
    <path d="M 227.792022 585.109904 
L 228.746908 596.661198 
L 225.443003 596.934736 
L 224.486207 585.383442 
L 227.792022 585.109904 
" clip-path="url(#p52c894adc6)" style="fill: #f29888"/>
    <path d="M 231.466423 575.920727 
L 232.854828 575.795355 
L 232.957955 576.932249 
L 236.43756 576.61597 
L 236.26759 574.647064 
L 231.254439 575.094413 
L 231.052003 572.829174 
L 236.065154 572.381825 
L 235.807335 569.555263 
L 238.572685 569.30167 
L 240.165434 586.719791 
L 237.333243 586.916396 
L 232.570272 587.363745 
L 232.182588 583.243575 
L 236.945559 582.796226 
L 236.752672 580.069391 
L 233.467864 580.368573 
L 233.59009 581.716319 
L 232.006889 581.861637 
L 231.781536 579.784455 
L 231.053913 579.830045 
L 230.939326 578.023552 
L 231.666949 577.977963 
L 231.466423 575.920727 
" clip-path="url(#p52c894adc6)" style="fill: #f29888"/>
    <path d="M 237.098341 540.677028 
L 237.459288 543.389616 
L 235.564794 543.643208 
L 235.203847 540.927771 
L 237.098341 540.677028 
" clip-path="url(#p52c894adc6)" style="fill: #f29888"/>
    <path d="M 235.746222 532.180244 
L 236.149184 534.77316 
L 234.132465 535.086589 
L 233.729503 532.493674 
L 235.746222 532.180244 
" clip-path="url(#p52c894adc6)" style="fill: #f29888"/>
    <path d="M 234.737863 525.093893 
L 235.192388 527.803632 
L 233.173759 528.142705 
L 232.719234 525.432967 
L 234.737863 525.093893 
" clip-path="url(#p52c894adc6)" style="fill: #f29888"/>
    <path d="M 233.427759 516.372011 
L 233.882285 518.930733 
L 231.835009 519.295451 
L 231.378574 516.736728 
L 233.427759 516.372011 
" clip-path="url(#p52c894adc6)" style="fill: #f29888"/>
    <path d="M 232.484332 509.123246 
L 233.164211 514.474339 
L 231.061552 514.742178 
L 230.381673 509.391086 
L 232.484332 509.123246 
" clip-path="url(#p52c894adc6)" style="fill: #f29888"/>
    <path d="M 211.39854 328.496794 
L 212.261757 329.941419 
L 209.889821 331.357549 
L 209.026604 329.912925 
L 211.39854 328.496794 
" clip-path="url(#p52c894adc6)" style="fill: #f29888"/>
    <path d="M 128.535448 540.571601 
L 127.265449 542.258421 
L 126.745595 541.866905 
L 128.171504 540.298029 
L 128.535448 540.571601 
" clip-path="url(#p52c894adc6)" style="fill: #f29888"/>
    <path d="M 140.395131 420.901448 
L 137.780653 422.767777 
L 136.965181 421.625185 
L 139.579658 419.758856 
L 140.395131 420.901448 
" clip-path="url(#p52c894adc6)" style="fill: #f29888"/>
    <path d="M 131.27979 407.529415 
L 132.469578 409.153549 
L 131.226316 410.062494 
L 130.036528 408.43836 
L 131.27979 407.529415 
" clip-path="url(#p52c894adc6)" style="fill: #f29888"/>
    <path d="M 134.570327 406.472304 
L 135.945363 408.324386 
L 134.415635 409.45843 
L 133.040599 407.609197 
L 134.570327 406.472304 
" clip-path="url(#p52c894adc6)" style="fill: #f29888"/>
    <path d="M 159.74685 405.261327 
L 159.271316 406.828473 
L 157.458943 406.278547 
L 157.934476 404.711401 
L 159.74685 405.261327 
" clip-path="url(#p52c894adc6)" style="fill: #f29888"/>
    <path d="M 153.482798 404.859567 
L 149.586863 407.190342 
L 148.639616 405.606099 
L 152.535551 403.275325 
L 153.482798 404.859567 
" clip-path="url(#p52c894adc6)" style="fill: #f29888"/>
    <path d="M 130.827174 401.189595 
L 132.502044 403.640043 
L 130.911204 404.725648 
L 129.238244 402.27805 
L 130.827174 401.189595 
" clip-path="url(#p52c894adc6)" style="fill: #f29888"/>
    <path d="M 161.060773 402.480354 
L 160.293044 403.682783 
L 158.091077 402.2752 
L 158.858806 401.072772 
L 161.060773 402.480354 
" clip-path="url(#p52c894adc6)" style="fill: #f29888"/>
    <path d="M 161.198276 398.950001 
L 160.363706 400.756493 
L 158.847347 400.055551 
L 159.681917 398.249059 
L 161.198276 398.950001 
" clip-path="url(#p52c894adc6)" style="fill: #f29888"/>
    <path d="M 144.41902 396.718954 
L 143.017248 397.659242 
L 142.194136 396.431169 
L 143.595909 395.490881 
L 144.41902 396.718954 
" clip-path="url(#p52c894adc6)" style="fill: #f29888"/>
    <path d="M 163.050755 395.687487 
L 162.323132 397.300223 
L 159.628444 396.083547 
L 160.356067 394.470811 
L 163.050755 395.687487 
" clip-path="url(#p52c894adc6)" style="fill: #f29888"/>
    <path d="M 147.51667 394.009215 
L 145.786417 395.27433 
L 143.853728 392.627277 
L 145.583981 391.362162 
L 147.51667 394.009215 
" clip-path="url(#p52c894adc6)" style="fill: #f29888"/>
    <path d="M 163.801295 392.430671 
L 162.834951 394.379632 
L 161.532486 393.732828 
L 162.498831 391.783867 
L 163.801295 392.430671 
" clip-path="url(#p52c894adc6)" style="fill: #f29888"/>
    <path d="M 144.071442 389.763673 
L 145.030147 391.191201 
L 142.388933 392.9692 
L 141.430227 391.541672 
L 144.071442 389.763673 
" clip-path="url(#p52c894adc6)" style="fill: #f29888"/>
    <path d="M 164.842121 391.336518 
L 161.981283 389.965977 
L 162.867417 388.116744 
L 165.726345 389.484436 
L 164.842121 391.336518 
" clip-path="url(#p52c894adc6)" style="fill: #f29888"/>
    <path d="M 143.278887 388.09395 
L 141.367205 389.307776 
L 140.790454 388.40453 
L 142.702135 387.187854 
L 143.278887 388.09395 
" clip-path="url(#p52c894adc6)" style="fill: #f29888"/>
    <path d="M 158.48449 387.732081 
L 157.434116 389.615506 
L 155.503336 388.538449 
L 156.551801 386.655024 
L 158.48449 387.732081 
" clip-path="url(#p52c894adc6)" style="fill: #f29888"/>
    <path d="M 159.611256 384.609186 
L 158.998219 386.048111 
L 156.521245 384.993849 
L 157.132372 383.554924 
L 159.611256 384.609186 
" clip-path="url(#p52c894adc6)" style="fill: #f29888"/>
    <path d="M 140.715973 383.603363 
L 141.65749 384.968205 
L 140.391311 385.842957 
L 139.447884 384.475266 
L 140.715973 383.603363 
" clip-path="url(#p52c894adc6)" style="fill: #f29888"/>
    <path d="M 166.803457 382.973655 
L 168.310267 383.908244 
L 167.552087 385.127769 
L 164.983444 383.534978 
L 166.501713 381.08738 
L 167.565456 381.748431 
L 166.803457 382.973655 
" clip-path="url(#p52c894adc6)" style="fill: #f29888"/>
    <path d="M 139.083118 381.432153 
L 140.15259 383.264289 
L 137.55721 384.780147 
L 136.485828 382.948011 
L 139.083118 381.432153 
" clip-path="url(#p52c894adc6)" style="fill: #f29888"/>
    <path d="M 160.619615 382.802693 
L 159.83088 384.338497 
L 157.783604 383.287084 
L 158.57425 381.748431 
L 160.619615 382.802693 
" clip-path="url(#p52c894adc6)" style="fill: #f29888"/>
    <path d="M 113.049107 384.275811 
L 111.666432 382.916668 
L 113.356581 381.201355 
L 114.737346 382.557649 
L 113.049107 384.275811 
" clip-path="url(#p52c894adc6)" style="fill: #f29888"/>
    <path d="M 162.771928 378.736661 
L 161.58787 380.731211 
L 160.178458 379.8935 
L 161.362517 377.89895 
L 162.771928 378.736661 
" clip-path="url(#p52c894adc6)" style="fill: #f29888"/>
    <path d="M 170.808248 377.217953 
L 170.286881 378.494465 
L 167.672403 377.428806 
L 168.193771 376.152294 
L 170.808248 377.217953 
" clip-path="url(#p52c894adc6)" style="fill: #f29888"/>
    <path d="M 135.175724 375.388666 
L 136.527843 377.850511 
L 134.558868 378.933266 
L 133.20675 376.471422 
L 135.175724 375.388666 
" clip-path="url(#p52c894adc6)" style="fill: #f29888"/>
    <path d="M 171.864352 373.533734 
L 171.281872 375.166416 
L 168.613921 374.211881 
L 169.196401 372.582049 
L 171.864352 373.533734 
" clip-path="url(#p52c894adc6)" style="fill: #f29888"/>
    <path d="M 132.542149 371.299838 
L 134.161636 373.667654 
L 132.643367 374.70767 
L 131.02388 372.339854 
L 132.542149 371.299838 
" clip-path="url(#p52c894adc6)" style="fill: #f29888"/>
    <path d="M 174.114064 369.524689 
L 173.518215 370.889531 
L 170.605813 369.615868 
L 171.201661 368.253875 
L 174.114064 369.524689 
" clip-path="url(#p52c894adc6)" style="fill: #f29888"/>
    <path d="M 126.799465 364.86314 
L 128.480064 367.108434 
L 127.070653 368.162696 
L 125.390053 365.917403 
L 126.799465 364.86314 
" clip-path="url(#p52c894adc6)" style="fill: #f29888"/>
    <path d="M 178.995441 362.934126 
L 178.069201 364.50982 
L 175.554032 363.031004 
L 176.480271 361.455309 
L 178.995441 362.934126 
" clip-path="url(#p52c894adc6)" style="fill: #f29888"/>
    <path d="M 183.450938 362.258828 
L 181.015979 360.859794 
L 181.812354 359.475006 
L 184.245404 360.87689 
L 183.450938 362.258828 
" clip-path="url(#p52c894adc6)" style="fill: #f29888"/>
    <path d="M 188.563398 342.113873 
L 189.407517 343.390385 
L 187.975188 344.333522 
L 187.132979 343.05701 
L 188.563398 342.113873 
" clip-path="url(#p52c894adc6)" style="fill: #f29888"/>
    <path d="M 191.154958 340.170611 
L 192.551001 342.464343 
L 191.189334 343.293506 
L 189.791381 340.996925 
L 191.154958 340.170611 
" clip-path="url(#p52c894adc6)" style="fill: #f29888"/>
    <path d="M 185.607071 337.341199 
L 186.382438 338.965333 
L 184.583433 339.822989 
L 183.808066 338.198856 
L 185.607071 337.341199 
" clip-path="url(#p52c894adc6)" style="fill: #f29888"/>
    <path d="M 204.683782 332.15252 
L 206.095104 334.950589 
L 204.529091 335.73986 
L 203.117769 332.944641 
L 204.683782 332.15252 
" clip-path="url(#p52c894adc6)" style="fill: #f29888"/>
    <path d="M 187.839594 331.542757 
L 189.554569 333.591445 
L 188.456451 334.511788 
L 186.741475 332.4631 
L 187.839594 331.542757 
" clip-path="url(#p52c894adc6)" style="fill: #f29888"/>
    <path d="M 208.711491 330.055393 
L 210.537233 333.491718 
L 209.06098 334.27814 
L 207.233328 330.838966 
L 208.711491 330.055393 
" clip-path="url(#p52c894adc6)" style="fill: #f29888"/>
    <path d="M 201.620508 324.898056 
L 202.886687 327.476725 
L 201.450539 328.183365 
L 200.18627 325.601848 
L 201.620508 324.898056 
" clip-path="url(#p52c894adc6)" style="fill: #f29888"/>
    <path d="M 194.48751 291.375369 
L 191.191244 294.56095 
L 191.825288 295.216302 
L 189.363592 297.595516 
L 186.470288 294.603691 
L 192.22634 289.038896 
L 194.48751 291.375369 
" clip-path="url(#p52c894adc6)" style="fill: #f29888"/>
    <path d="M 214.349138 326.829921 
L 215.472084 328.682003 
L 214.091319 329.516864 
L 212.968373 327.667632 
L 214.349138 326.829921 
" clip-path="url(#p52c894adc6)" style="fill: #f29888"/>
    <path d="M 225.439183 324.949345 
L 226.443723 326.929648 
L 224.789861 327.767359 
L 223.785321 325.787056 
L 225.439183 324.949345 
" clip-path="url(#p52c894adc6)" style="fill: #f29888"/>
    <path d="M 220.387837 323.356554 
L 221.675023 325.886783 
L 219.931401 326.772933 
L 218.644215 324.242704 
L 220.387837 323.356554 
" clip-path="url(#p52c894adc6)" style="fill: #f29888"/>
    <path d="M 223.695562 321.42469 
L 225.223379 324.180018 
L 223.269682 325.262774 
L 221.741865 322.507446 
L 223.695562 321.42469 
" clip-path="url(#p52c894adc6)" style="fill: #f29888"/>
    <path d="M 209.135461 321.307866 
L 209.484949 321.994561 
L 211.48448 320.977341 
L 212.273216 322.524542 
L 209.370363 324.000509 
L 208.234048 321.766613 
L 209.135461 321.307866 
" clip-path="url(#p52c894adc6)" style="fill: #f29888"/>
    <path d="M 226.745467 320.019957 
L 227.484549 321.484526 
L 226.164897 322.151276 
L 225.425815 320.686706 
L 226.745467 320.019957 
" clip-path="url(#p52c894adc6)" style="fill: #f29888"/>
    <path d="M 230.664319 317.466933 
L 232.069911 319.96012 
L 230.339658 320.9346 
L 228.934066 318.441413 
L 230.664319 317.466933 
" clip-path="url(#p52c894adc6)" style="fill: #f29888"/>
    <path d="M 235.494132 315.167501 
L 236.785138 317.555263 
L 235.385275 318.310342 
L 234.09427 315.922581 
L 235.494132 315.167501 
" clip-path="url(#p52c894adc6)" style="fill: #f29888"/>
    <path d="M 220.177762 314.834127 
L 221.590993 317.267478 
L 220.11092 318.127984 
L 218.695779 315.694633 
L 220.177762 314.834127 
" clip-path="url(#p52c894adc6)" style="fill: #f29888"/>
    <path d="M 225.570958 311.810959 
L 226.986099 314.255707 
L 225.540401 315.093418 
L 224.12526 312.64867 
L 225.570958 311.810959 
" clip-path="url(#p52c894adc6)" style="fill: #f29888"/>
    <path d="M 207.027072 274.800658 
L 209.759956 282.781708 
L 207.857823 283.431361 
L 205.126849 275.450312 
L 207.027072 274.800658 
" clip-path="url(#p52c894adc6)" style="fill: #f29888"/>
    <path d="M 195.757508 268.646047 
L 195.593268 257.866928 
L 198.918181 257.821339 
L 199.133985 272.831752 
L 195.810982 272.880191 
L 195.835809 271.284551 
L 191.80619 271.270304 
L 191.544552 271.617926 
L 190.618312 272.145057 
L 189.72072 272.213442 
L 188.970179 271.982644 
L 188.334225 271.498253 
L 187.912166 270.837202 
L 187.742196 270.070725 
L 187.915985 269.099094 
L 188.341864 268.440893 
L 189.111502 267.896666 
L 189.873501 267.720005 
L 190.538102 267.779842 
L 191.256176 268.09897 
L 191.821469 268.640348 
L 195.757508 268.646047 
" clip-path="url(#p52c894adc6)" style="fill: #f29888"/>
    <path d="M 205.134488 261.799041 
L 205.033271 266.688538 
L 202.44553 266.6344 
L 202.544838 261.744903 
L 205.134488 261.799041 
" clip-path="url(#p52c894adc6)" style="fill: #f29888"/>
    <path d="M 190.983079 263.950306 
L 191.061379 261.562545 
L 193.120114 261.630929 
L 193.011257 264.964677 
L 190.562929 264.882046 
L 190.593485 263.938908 
L 190.983079 263.950306 
" clip-path="url(#p52c894adc6)" style="fill: #f29888"/>
    <path d="M 245.31036 514.528477 
L 245.652209 516.748126 
L 241.215809 517.431972 
L 240.87396 515.209473 
L 245.31036 514.528477 
" clip-path="url(#p52c894adc6)" style="fill: #f29888"/>
    <path d="M 248.814791 513.921564 
L 249.339979 517.477561 
L 247.189575 517.796689 
L 246.662478 514.237842 
L 248.814791 513.921564 
" clip-path="url(#p52c894adc6)" style="fill: #f29888"/>
    <path d="M 241.689432 508.054737 
L 242.180244 513.203526 
L 240.083314 513.402981 
L 239.590593 508.254192 
L 241.689432 508.054737 
" clip-path="url(#p52c894adc6)" style="fill: #f29888"/>
    <path d="M 248.247589 301.482039 
L 247.103636 302.114596 
L 246.223231 300.518956 
L 247.367184 299.886399 
L 248.247589 301.482039 
" clip-path="url(#p52c894adc6)" style="fill: #f29888"/>
    <path d="M 240.860591 269.475209 
L 242.493446 272.897287 
L 240.921704 273.646668 
L 239.288849 270.22459 
L 240.860591 269.475209 
" clip-path="url(#p52c894adc6)" style="fill: #f29888"/>
    <path d="M 248.965663 265.808087 
L 250.296774 268.532072 
L 248.514957 269.403976 
L 247.183846 266.677141 
L 248.965663 265.808087 
" clip-path="url(#p52c894adc6)" style="fill: #f29888"/>
    <path d="M 238.660534 122.958413 
L 238.1067 124.363146 
L 234.955577 123.126525 
L 235.50941 121.718943 
L 238.660534 122.958413 
" clip-path="url(#p52c894adc6)" style="fill: #f29888"/>
    <path d="M 240.144427 118.781255 
L 239.636428 120.550706 
L 236.156823 119.550582 
L 236.666732 117.781131 
L 240.144427 118.781255 
" clip-path="url(#p52c894adc6)" style="fill: #f29888"/>
    <path d="M 239.401526 115.396219 
L 238.687271 117.105833 
L 235.927651 115.954693 
L 236.641905 114.245079 
L 239.401526 115.396219 
" clip-path="url(#p52c894adc6)" style="fill: #f29888"/>
    <path d="M 242.617581 104.879242 
L 242.191702 105.913558 
L 244.216061 106.74557 
L 243.698512 107.999288 
L 240.348772 106.620199 
L 240.805208 105.511799 
L 240.176893 105.252507 
L 240.661975 104.075723 
L 242.617581 104.879242 
" clip-path="url(#p52c894adc6)" style="fill: #f29888"/>
    <path d="M 258.417124 302.573343 
L 259.564897 304.659072 
L 258.12111 305.454043 
L 256.973337 303.368313 
L 258.417124 302.573343 
" clip-path="url(#p52c894adc6)" style="fill: #f29888"/>
    <path d="M 265.013476 299.379213 
L 265.830859 301.242693 
L 262.324518 302.781346 
L 261.507135 300.915017 
L 265.013476 299.379213 
" clip-path="url(#p52c894adc6)" style="fill: #f29888"/>
    <path d="M 251.710005 296.085356 
L 253.566304 299.550175 
L 252.061403 300.356543 
L 250.205105 296.891724 
L 251.710005 296.085356 
" clip-path="url(#p52c894adc6)" style="fill: #f29888"/>
    <path d="M 271.676671 295.808969 
L 272.511241 297.467295 
L 269.83947 298.809342 
L 269.00681 297.151016 
L 271.676671 295.808969 
" clip-path="url(#p52c894adc6)" style="fill: #f29888"/>
    <path d="M 258.36938 292.911172 
L 260.20849 296.353196 
L 258.818176 297.096878 
L 256.977156 293.654855 
L 258.36938 292.911172 
" clip-path="url(#p52c894adc6)" style="fill: #f29888"/>
    <path d="M 277.409806 292.492317 
L 278.38379 294.387139 
L 276.487386 295.35877 
L 275.515312 293.466797 
L 277.409806 292.492317 
" clip-path="url(#p52c894adc6)" style="fill: #f29888"/>
    <path d="M 264.675447 289.292489 
L 266.732271 292.455275 
L 265.48901 293.264493 
L 263.430276 290.104556 
L 264.675447 289.292489 
" clip-path="url(#p52c894adc6)" style="fill: #f29888"/>
    <path d="M 255.35767 261.844631 
L 256.812916 264.916238 
L 255.508542 265.534548 
L 254.053296 262.462941 
L 255.35767 261.844631 
" clip-path="url(#p52c894adc6)" style="fill: #f29888"/>
    <path d="M 262.13545 257.792845 
L 263.802681 260.96418 
L 262.546051 261.62523 
L 260.876911 258.453896 
L 262.13545 257.792845 
" clip-path="url(#p52c894adc6)" style="fill: #f29888"/>
    <path d="M 252.580861 84.195758 
L 251.981193 85.768603 
L 247.921018 84.218552 
L 248.520686 82.645707 
L 252.580861 84.195758 
" clip-path="url(#p52c894adc6)" style="fill: #f29888"/>
    <path d="M 253.144244 76.132077 
L 252.573222 77.699223 
L 249.635993 76.630714 
L 250.205105 75.063568 
L 253.144244 76.132077 
" clip-path="url(#p52c894adc6)" style="fill: #f29888"/>
    <path d="M 256.704059 69.125507 
L 256.304917 70.413417 
L 253.134695 69.427539 
L 253.533838 68.142479 
L 256.704059 69.125507 
" clip-path="url(#p52c894adc6)" style="fill: #f29888"/>
    <path d="M 257.084104 65.948474 
L 256.490165 67.794858 
L 254.125867 67.036929 
L 254.719806 65.187696 
L 257.084104 65.948474 
" clip-path="url(#p52c894adc6)" style="fill: #f29888"/>
    <path d="M 259.897198 61.814057 
L 259.179123 63.478081 
L 255.802647 62.02206 
L 256.520721 60.358035 
L 259.897198 61.814057 
" clip-path="url(#p52c894adc6)" style="fill: #f29888"/>
    <path d="M 248.684927 66.224862 
L 247.959213 68.159575 
L 244.491068 66.860268 
L 245.214871 64.928404 
L 248.684927 66.224862 
" clip-path="url(#p52c894adc6)" style="fill: #f29888"/>
    <path d="M 242.571747 63.894088 
L 242.172605 65.609401 
L 240.692531 65.267478 
L 241.091674 63.549315 
L 242.571747 63.894088 
" clip-path="url(#p52c894adc6)" style="fill: #f29888"/>
    <path d="M 250.632894 61.682986 
L 250.07715 63.025034 
L 247.145651 61.816906 
L 247.701394 60.47201 
L 250.632894 61.682986 
" clip-path="url(#p52c894adc6)" style="fill: #f29888"/>
    <path d="M 249.83079 56.021314 
L 249.234941 57.54572 
L 246.303441 56.400278 
L 246.89929 54.875872 
L 249.83079 56.021314 
" clip-path="url(#p52c894adc6)" style="fill: #f29888"/>
    <path d="M 227.679346 287.82222 
L 228.641871 289.078787 
L 227.261106 290.138748 
L 226.298581 288.882181 
L 227.679346 287.82222 
" clip-path="url(#p52c894adc6)" style="fill: #f29888"/>
    <path d="M 217.59575 177.104748 
L 217.198518 178.064981 
L 215.806294 177.49226 
L 216.205436 176.529178 
L 217.59575 177.104748 
" clip-path="url(#p52c894adc6)" style="fill: #f29888"/>
    <path d="M 219.511251 174.38931 
L 218.892485 176.435149 
L 216.551105 175.728508 
L 217.169871 173.67982 
L 219.511251 174.38931 
" clip-path="url(#p52c894adc6)" style="fill: #f29888"/>
    <path d="M 222.429383 164.003403 
L 221.963398 165.419534 
L 219.488334 164.604618 
L 219.952409 163.188487 
L 222.429383 164.003403 
" clip-path="url(#p52c894adc6)" style="fill: #f29888"/>
    <path d="M 216.125226 154.876912 
L 215.710805 156.700501 
L 213.361786 156.167671 
L 213.776206 154.344082 
L 216.125226 154.876912 
" clip-path="url(#p52c894adc6)" style="fill: #f29888"/>
    <path d="M 226.776024 155.250178 
L 226.361603 156.637815 
L 223.3709 155.745966 
L 223.785321 154.358329 
L 226.776024 155.250178 
" clip-path="url(#p52c894adc6)" style="fill: #f29888"/>
    <path d="M 227.06058 151.999062 
L 224.755485 151.29812 
L 225.282582 149.560012 
L 227.589586 150.260954 
L 227.06058 151.999062 
" clip-path="url(#p52c894adc6)" style="fill: #f29888"/>
    <path d="M 230.146771 145.986918 
L 229.529915 147.821904 
L 226.268024 146.722052 
L 226.88679 144.887066 
L 230.146771 145.986918 
" clip-path="url(#p52c894adc6)" style="fill: #f29888"/>
    <path d="M 221.090633 141.761321 
L 220.35728 143.62765 
L 217.926141 142.673115 
L 218.659493 140.806786 
L 221.090633 141.761321 
" clip-path="url(#p52c894adc6)" style="fill: #f29888"/>
    <path d="M 231.132213 140.396479 
L 230.553552 142.391029 
L 228.141511 141.690087 
L 228.720171 139.695537 
L 231.132213 140.396479 
" clip-path="url(#p52c894adc6)" style="fill: #f29888"/>
    <path d="M 219.982965 138.191077 
L 219.601011 139.541672 
L 217.59957 138.97465 
L 217.981524 137.626904 
L 219.982965 138.191077 
" clip-path="url(#p52c894adc6)" style="fill: #f29888"/>
    <path d="M 235.112178 135.307527 
L 234.84481 136.31335 
L 232.782256 135.763424 
L 233.049624 134.757601 
L 235.112178 135.307527 
" clip-path="url(#p52c894adc6)" style="fill: #f29888"/>
    <path d="M 232.759339 134.221922 
L 232.377385 136.008469 
L 229.864125 135.46994 
L 230.246079 133.683393 
L 232.759339 134.221922 
" clip-path="url(#p52c894adc6)" style="fill: #f29888"/>
    <path d="M 233.527067 130.24137 
L 233.047715 131.757228 
L 230.601297 130.982203 
L 231.080649 129.466345 
L 233.527067 130.24137 
" clip-path="url(#p52c894adc6)" style="fill: #f29888"/>
    <path d="M 225.767664 129.611662 
L 225.366612 130.893873 
L 222.7063 130.06471 
L 223.107352 128.782499 
L 225.767664 129.611662 
" clip-path="url(#p52c894adc6)" style="fill: #f29888"/>
    <path d="M 236.561695 128.620086 
L 236.042237 130.06186 
L 234.287156 129.432153 
L 234.806614 127.987528 
L 236.561695 128.620086 
" clip-path="url(#p52c894adc6)" style="fill: #f29888"/>
    <path d="M 227.438714 126.240872 
L 226.80849 128.241121 
L 224.176824 127.414808 
L 224.807049 125.41171 
L 227.438714 126.240872 
" clip-path="url(#p52c894adc6)" style="fill: #f29888"/>
    <path d="M 237.167092 126.215228 
L 236.611349 127.779525 
L 233.649293 126.725263 
L 234.206946 125.160966 
L 237.167092 126.215228 
" clip-path="url(#p52c894adc6)" style="fill: #f29888"/>
    <path d="M 229.035284 121.778779 
L 228.487179 123.354474 
L 225.198552 122.211881 
L 225.744747 120.636187 
L 229.035284 121.778779 
" clip-path="url(#p52c894adc6)" style="fill: #f29888"/>
    <path d="M 230.956514 112.113759 
L 230.209793 114.153899 
L 227.270655 113.079692 
L 227.446354 112.601 
L 225.597694 111.922853 
L 226.168716 110.364254 
L 230.956514 112.113759 
" clip-path="url(#p52c894adc6)" style="fill: #f29888"/>
    <path d="M 234.856268 103.20097 
L 234.054164 105.258206 
L 230.328199 103.807883 
L 231.128394 101.750647 
L 234.856268 103.20097 
" clip-path="url(#p52c894adc6)" style="fill: #f29888"/>
    <path d="M 237.338972 96.220045 
L 236.445199 98.448242 
L 234.117187 97.513653 
L 234.392194 96.829807 
L 232.142483 95.926561 
L 232.763158 94.38221 
L 237.338972 96.220045 
" clip-path="url(#p52c894adc6)" style="fill: #f29888"/>
    <path d="M 227.702263 93.322249 
L 226.905888 95.083151 
L 225.391439 94.396456 
L 226.189724 92.635554 
L 227.702263 93.322249 
" clip-path="url(#p52c894adc6)" style="fill: #f29888"/>
    <path d="M 217.836381 83.03322 
L 216.610308 85.298459 
L 213.518387 83.628736 
L 214.744461 81.363497 
L 217.836381 83.03322 
" clip-path="url(#p52c894adc6)" style="fill: #f29888"/>
    <path d="M 243.845565 102.04983 
L 243.6374 103.297848 
L 241.513733 102.944528 
L 241.721898 101.69366 
L 243.845565 102.04983 
" clip-path="url(#p52c894adc6)" style="fill: #f29888"/>
    <path d="M 246.018885 99.095046 
L 245.304631 100.679289 
L 241.383869 98.909838 
L 242.098124 97.325596 
L 246.018885 99.095046 
" clip-path="url(#p52c894adc6)" style="fill: #f29888"/>
    <path d="M 248.211303 92.176807 
L 247.592537 93.58439 
L 243.992617 92.002996 
L 244.609474 90.595414 
L 248.211303 92.176807 
" clip-path="url(#p52c894adc6)" style="fill: #f29888"/>
    <path d="M 240.364051 89.794745 
L 239.768202 91.430276 
L 236.261861 90.156613 
L 236.8558 88.521082 
L 240.364051 89.794745 
" clip-path="url(#p52c894adc6)" style="fill: #f29888"/>
    <path d="M 248.176927 88.905745 
L 247.90192 89.68077 
L 249.145182 90.119571 
L 248.768957 91.19093 
L 244.997157 89.86028 
L 245.648389 88.013896 
L 248.176927 88.905745 
" clip-path="url(#p52c894adc6)" style="fill: #f29888"/>
    <path d="M 239.157075 81.736762 
L 237.52422 86.025045 
L 236.026959 85.455174 
L 237.659814 81.166891 
L 239.157075 81.736762 
" clip-path="url(#p52c894adc6)" style="fill: #f29888"/>
    <path d="M 243.585836 80.277891 
L 242.823837 82.175563 
L 240.20172 81.121301 
L 240.421344 80.574225 
L 239.210548 80.086985 
L 239.752924 78.739239 
L 243.585836 80.277891 
" clip-path="url(#p52c894adc6)" style="fill: #f29888"/>
    <path d="M 244.861563 76.719044 
L 244.185504 78.33463 
L 241.467899 77.197736 
L 242.143958 75.582151 
L 244.861563 76.719044 
" clip-path="url(#p52c894adc6)" style="fill: #f29888"/>
    <path d="M 243.320378 71.966317 
L 246.089547 73.083265 
L 244.955142 75.892731 
L 242.185973 74.775783 
L 243.320378 71.966317 
" clip-path="url(#p52c894adc6)" style="fill: #f29888"/>
    <path d="M 246.962313 70.515994 
L 246.374103 72.316787 
L 243.772993 71.470528 
L 244.359293 69.669735 
L 246.962313 70.515994 
" clip-path="url(#p52c894adc6)" style="fill: #f29888"/>
   </g>
   <g id="LineCollection_1">
    <path d="M 397.135316 703.720096 
L 403.282871 708.581099 
L 409.634773 717.599315 
L 415.064254 727.332719 
L 420.596863 737.373854 
L 420.919561 737.790673 
" clip-path="url(#p52c894adc6)" style="fill: none; stroke: #f29888; stroke-width: 0.2"/>
    <path d="M 537.182708 765.861727 
L 527.889758 759.841035 
L 517.133923 755.435929 
L 499.000639 751.848588 
L 466.185028 745.574304 
" clip-path="url(#p52c894adc6)" style="fill: none; stroke: #f29888; stroke-width: 0.2"/>
    <path d="M 420.596863 737.373854 
L 443.258217 740.567983 
L 466.185028 745.574304 
" clip-path="url(#p52c894adc6)" style="fill: none; stroke: #f29888; stroke-width: 0.2"/>
    <path d="M 391.220752 699.998835 
L 397.135316 703.720096 
L 413.42567 704.891182 
L 431.045225 704.791454 
L 473.459349 711.142671 
L 511.364502 717.701892 
L 524.305116 724.386484 
L 527.347383 727.024988 
L 536.802664 730.43282 
L 539.128766 734.709705 
L 538.002 752.95129 
L 536.875235 758.997626 
L 537.182708 765.861727 
L 542.61219 769.346491 
L 582.770873 779.592779 
L 589.122775 782.667236 
" clip-path="url(#p52c894adc6)" style="fill: none; stroke: #f29888; stroke-width: 0.2"/>
    <path d="M 605.16917 683.378466 
L 601.975539 683.079352 
L 587.785934 682.307177 
" clip-path="url(#p52c894adc6)" style="fill: none; stroke: #f29888; stroke-width: 0.2"/>
    <path d="M 387.993238 697.898859 
L 391.220752 699.998835 
" clip-path="url(#p52c894adc6)" style="fill: none; stroke: #f29888; stroke-width: 0.2"/>
    <path d="M 369.863773 669.433781 
L 373.597377 677.714013 
L 376.236682 687.498705 
L 377.159102 689.444816 
L 378.59716 691.470709 
L 387.993238 697.898859 
" clip-path="url(#p52c894adc6)" style="fill: none; stroke: #f29888; stroke-width: 0.2"/>
    <path d="M 587.785934 682.307177 
L 577.293647 681.418177 
L 559.414363 679.212775 
L 531.906009 674.289085 
L 526.377219 673.511211 
L 508.843603 672.129273 
L 493.252225 670.790075 
L 466.952757 670.228751 
L 450.593651 670.308533 
L 415.503502 669.983707 
L 377.153372 669.522111 
L 369.863773 669.433781 
L 365.923914 669.382492 
L 360.332102 669.713018 
L 355.166169 671.277315 
L 349.751965 672.682048 
" clip-path="url(#p52c894adc6)" style="fill: none; stroke: #f29888; stroke-width: 0.2"/>
    <path d="M 376.11965 645.911708 
L 375.738231 648.018012 
L 375.738231 652.078346 
L 377.445567 659.495223 
L 376.444847 666.615766 
L 377.153372 669.522111 
" clip-path="url(#p52c894adc6)" style="fill: none; stroke: #f29888; stroke-width: 0.2"/>
    <path d="M 95.016898 647.694431 
L 96.810317 632.756855 
L 98.089864 623.049095 
L 99.734178 614.620696 
L 101.409048 608.306521 
L 103.754247 604.348764 
L 105.620095 601.710259 
" clip-path="url(#p52c894adc6)" style="fill: none; stroke: #f29888; stroke-width: 0.2"/>
    <path d="M 105.620095 601.710259 
L 107.310243 599.53335 
" clip-path="url(#p52c894adc6)" style="fill: none; stroke: #f29888; stroke-width: 0.2"/>
    <path d="M 107.310243 599.53335 
L 111.232914 595.076955 
L 115.946231 593.028267 
L 120.863894 592.925691 
L 134.740296 595.438824 
L 138.254277 596.07423 
L 143.786886 595.564195 
L 149.344322 591.489615 
L 158.641092 582.576825 
L 166.243894 575.211237 
L 168.579545 572.997286 
L 173.311959 568.540892 
" clip-path="url(#p52c894adc6)" style="fill: none; stroke: #f29888; stroke-width: 0.2"/>
    <path d="M 173.311959 568.540892 
L 176.161339 565.514874 
" clip-path="url(#p52c894adc6)" style="fill: none; stroke: #f29888; stroke-width: 0.2"/>
    <path d="M 176.161339 565.514874 
L 179.024087 563.315171 
L 182.047256 561.827806 
L 184.281689 561.474486 
L 228.512006 558.961353 
L 243.205791 557.938434 
L 255.264091 557.100723 
L 264.196295 556.547098 
" clip-path="url(#p52c894adc6)" style="fill: none; stroke: #f29888; stroke-width: 0.2"/>
    <path d="M 126.110037 407.814351 
L 124.318671 408.122081 
L 114.491103 411.609406 
" clip-path="url(#p52c894adc6)" style="fill: none; stroke: #f29888; stroke-width: 0.2"/>
    <path d="M 140.065329 527.211676 
L 140.40277 528.604301 
L 147.778309 545.050791 
L 159.913 558.533949 
L 162.120696 566.258557 
L 166.243894 575.211237 
" clip-path="url(#p52c894adc6)" style="fill: none; stroke: #f29888; stroke-width: 0.2"/>
    <path d="M 214.906692 375.195524 
L 212.418358 372.707421 
L 209.078167 371.091835 
" clip-path="url(#p52c894adc6)" style="fill: none; stroke: #f29888; stroke-width: 0.2"/>
    <path d="M 126.110037 407.814351 
L 133.180013 405.20149 
L 150.144517 394.7415 
" clip-path="url(#p52c894adc6)" style="fill: none; stroke: #f29888; stroke-width: 0.2"/>
    <path d="M 197.881175 332.434606 
L 197.327341 338.646205 
L 196.685658 342.954433 
L 196.868996 351.664918 
L 199.489203 357.614376 
L 202.460808 362.392748 
L 209.078167 371.091835 
" clip-path="url(#p52c894adc6)" style="fill: none; stroke: #f29888; stroke-width: 0.2"/>
    <path d="M 263.548681 767.739453 
L 251.433089 721.816363 
L 248.839618 706.98261 
L 247.877093 701.48335 
L 240.7059 659.455332 
L 241.477448 656.255504 
L 243.373851 654.357832 
L 245.684675 652.639669 
L 249.418279 651.038331 
L 259.169574 646.228616 
" clip-path="url(#p52c894adc6)" style="fill: none; stroke: #f29888; stroke-width: 0.2"/>
    <path d="M 302.166179 694.644893 
L 292.409154 699.391922 
L 280.448253 702.426488 
L 248.839618 706.98261 
L 229.15178 711.783777 
L 204.332384 718.41708 
" clip-path="url(#p52c894adc6)" style="fill: none; stroke: #f29888; stroke-width: 0.2"/>
    <path d="M 349.751965 672.682048 
L 329.886518 674.62531 
L 309.587553 676.625558 
" clip-path="url(#p52c894adc6)" style="fill: none; stroke: #f29888; stroke-width: 0.2"/>
    <path d="M 243.205791 557.938434 
L 249.878534 617.578329 
L 250.466744 622.838242 
L 252.838681 640.621081 
L 253.84513 643.704085 
L 255.407324 645.208546 
L 257.173863 646.000667 
L 259.169574 646.228616 
L 263.386351 645.362411 
L 270.379936 643.820909 
L 289.819504 641.273584 
L 294.265453 640.908866 
L 295.917405 641.028539 
L 297.542621 641.73233 
L 298.757236 643.359313 
L 299.364544 645.399453 
L 301.436646 667.715618 
L 301.868255 672.305933 
L 302.515667 673.924368 
L 303.596598 675.383239 
L 305.216085 676.300732 
L 309.587553 676.625558 
L 307.303465 678.736932 
L 304.937258 681.452369 
L 303.4992 684.381509 
L 303.394162 688.909137 
L 302.166179 694.644893 
L 305.649603 714.935166 
L 309.133027 733.686786 
" clip-path="url(#p52c894adc6)" style="fill: none; stroke: #f29888; stroke-width: 0.2"/>
    <path d="M 235.018599 618.914678 
L 235.224854 624.858437 
" clip-path="url(#p52c894adc6)" style="fill: none; stroke: #f29888; stroke-width: 0.2"/>
    <path d="M 244.38985 618.102611 
L 241.884229 597.960505 
L 241.166155 587.970658 
" clip-path="url(#p52c894adc6)" style="fill: none; stroke: #f29888; stroke-width: 0.2"/>
    <path d="M 249.878534 617.578329 
L 249.183377 617.689454 
L 244.38985 618.102611 
L 235.018599 618.914678 
L 231.689867 589.663177 
L 228.720171 561.200948 
L 228.512006 558.961353 
" clip-path="url(#p52c894adc6)" style="fill: none; stroke: #f29888; stroke-width: 0.2"/>
    <path d="M 237.290701 505.058044 
L 243.205791 557.938434 
" clip-path="url(#p52c894adc6)" style="fill: none; stroke: #f29888; stroke-width: 0.2"/>
    <path d="M 296.324187 279.088941 
L 232.732602 312.55749 
L 197.881175 332.434606 
L 179.381214 344.242342 
L 175.592227 350.54797 
L 173.235569 352.650795 
L 171.54542 355.312095 
L 170.525602 357.865119 
L 169.395017 360.691681 
L 168.008523 365.139528 
L 155.971231 400.790685 
L 155.549171 407.267274 
L 150.144517 394.7415 
L 149.004383 391.159858 
L 129.129387 359.606076 
" clip-path="url(#p52c894adc6)" style="fill: none; stroke: #f29888; stroke-width: 0.2"/>
    <path d="M 134.740296 595.438824 
L 126.258999 579.844292 
L 125.029106 565.910935 
L 116.004139 553.685346 
" clip-path="url(#p52c894adc6)" style="fill: none; stroke: #f29888; stroke-width: 0.2"/>
    <path d="M 101.409048 608.306521 
L 92.297526 600.259936 
L 87.127773 596.433249 
L 83.415177 594.281985 
L 79.62428 592.566672 
L 74.706617 591.15624 
L 70.812592 591.005224 
L 68.765317 590.056388 
L 67.304341 588.569023 
L 64.724239 586.930643 
L 62.783786 586.044835 
" clip-path="url(#p52c894adc6)" style="fill: none; stroke: #f29888; stroke-width: 0.2"/>
    <path d="M 254.320664 56.813435 
L 208.272244 185.105743 
L 204.072655 193.511347 
L 202.535289 197.557434 
L 202.178162 202.731866 
L 202.485635 207.441854 
L 200.999832 214.767551 
L 200.43645 219.477539 
L 201.834403 229.567113 
L 204.636038 248.979783 
L 208.195853 268.289877 
L 211.423367 279.276998 
L 215.819662 290.415136 
L 217.391405 294.512511 
L 220.4394 298.99455 
L 225.150808 304.604934 
L 229.608215 308.21507 
L 232.732602 312.55749 
" clip-path="url(#p52c894adc6)" style="fill: none; stroke: #f29888; stroke-width: 0.2"/>
    <path d="M 253.410982 53.547705 
L 254.320664 56.813435 
" clip-path="url(#p52c894adc6)" style="fill: none; stroke: #f29888; stroke-width: 0.2"/>
    <path d="M 215.819662 290.415136 
L 219.234334 288.674178 
L 240.929343 275.535792 
L 265.4871 261.408679 
" clip-path="url(#p52c894adc6)" style="fill: none; stroke: #f29888; stroke-width: 0.2"/>
    <path d="M 261.679841 58.027914 
L 254.320664 56.813435 
" clip-path="url(#p52c894adc6)" style="fill: none; stroke: #f29888; stroke-width: 0.2"/>
   </g>
   <g id="LineCollection_2">
    <path d="M 366.285611 726.966283 
L 366.20465 726.420925 
" clip-path="url(#p52c894adc6)" style="fill: none; stroke-dasharray: 3.7,1.6; stroke-dashoffset: 0; stroke: #f29888"/>
    <path d="M 366.20465 726.420925 
L 362.35837 699.916204 
L 361.208687 693.564987 
L 358.67251 682.908391 
L 355.166169 671.277315 
L 352.654819 663.925973 
L 349.249695 656.369478 
L 345.216257 648.453964 
L 344.376567 647.020206 
" clip-path="url(#p52c894adc6)" style="fill: none; stroke-dasharray: 3.7,1.6; stroke-dashoffset: 0; stroke: #f29888"/>
   </g>
  </g>
 </g>
 <defs>
  <clipPath id="p52c894adc6">
   <rect x="7.2" y="7.2" width="630.01465" height="831.6"/>
  </clipPath>
 </defs>
</svg>
