<?xml version="1.0" encoding="utf-8" standalone="no"?>
<!DOCTYPE svg PUBLIC "-//W3C//DTD SVG 1.1//EN"
  "http://www.w3.org/Graphics/SVG/1.1/DTD/svg11.dtd">
<svg xmlns:xlink="http://www.w3.org/1999/xlink" width="851.4pt" height="729.847239pt" viewBox="0 0 851.4 729.847239" xmlns="http://www.w3.org/2000/svg" version="1.1">
 <metadata>
  <rdf:RDF xmlns:dc="http://purl.org/dc/elements/1.1/" xmlns:cc="http://creativecommons.org/ns#" xmlns:rdf="http://www.w3.org/1999/02/22-rdf-syntax-ns#">
   <cc:Work>
    <dc:type rdf:resource="http://purl.org/dc/dcmitype/StillImage"/>
    <dc:date>2025-03-16T14:38:48.765408</dc:date>
    <dc:format>image/svg+xml</dc:format>
    <dc:creator>
     <cc:Agent>
      <dc:title>Matplotlib v3.10.1, https://matplotlib.org/</dc:title>
     </cc:Agent>
    </dc:creator>
   </cc:Work>
  </rdf:RDF>
 </metadata>
 <defs>
  <style type="text/css">*{stroke-linejoin: round; stroke-linecap: butt}</style>
 </defs>
 <g id="figure_1">
  <g id="patch_1">
   <path d="M 0 729.847239 
L 851.4 729.847239 
L 851.4 0 
L 0 0 
z
" style="fill: #ffffff"/>
  </g>
  <g id="axes_1">
   <g id="PatchCollection_1">
    <path d="M 54.931129 121.193315 
L 55.889099 123.247647 
L 57.811878 125.5255 
L 59.995299 127.57854 
L 63.31615 130.9417 
L 65.129544 133.821641 
L 65.84909 137.6228 
L 66.373795 142.164295 
L 66.286629 148.802758 
L 65.559391 150.407462 
L 65.651685 152.724076 
L 65.531191 153.773207 
L 66.114861 155.348194 
L 66.856626 164.61336 
L 66.145625 166.650895 
L 65.188509 167.237478 
L 62.810246 166.959691 
L 60.461893 166.033303 
L 58.052866 166.342099 
L 56.508661 167.454539 
L 55.098624 169.263385 
L 54.593574 171.282831 
L 54.902073 173.630454 
L 56.013866 175.545247 
L 59.288571 177.830852 
L 62.192393 180.672032 
L 69.216943 192.340377 
L 61.247241 198.454275 
L 53.617658 203.18053 
L 51.362453 203.643078 
L 46.080368 205.804648 
L 45.245455 207.366715 
L 45.308693 209.994709 
L 45.745377 211.785466 
L 47.099867 214.361779 
L 47.6673 216.807597 
L 47.580134 217.812798 
L 46.750349 218.948495 
L 46.182061 221.918877 
L 47.842487 224.975826 
L 48.103985 226.636088 
L 50.288261 228.338987 
L 51.528239 228.782154 
L 54.350877 227.789873 
L 57.321356 229.124543 
L 58.675846 230.348098 
L 62.476964 235.37152 
L 63.568248 238.909105 
L 63.35717 242.124974 
L 71.612297 249.921098 
L 74.206765 252.94833 
L 78.222381 255.758501 
L 82.237996 256.900658 
L 87.648266 257.656497 
L 88.731858 250.664017 
L 91.046883 250.904335 
L 95.735898 253.892806 
L 98.924291 257.457524 
L 98.53119 267.07283 
L 100.503533 267.964332 
L 134.637544 294.646095 
L 134.297426 298.905927 
L 134.646944 303.055935 
L 135.563896 306.376459 
L 137.895158 311.425722 
L 142.990092 318.039636 
L 146.746773 322.538493 
L 148.581531 324.154826 
L 147.838911 327.649774 
L 148.975487 332.629267 
L 150.717096 337.475681 
L 152.38265 340.668293 
L 154.130241 341.235496 
L 160.289113 352.899965 
L 159.311487 355.769569 
L 160.420717 357.574539 
L 161.142827 365.930113 
L 164.257727 366.998624 
L 171.804417 372.248152 
L 175.973 375.784445 
L 199.111285 388.434735 
L 207.178407 395.654613 
L 212.702335 404.005019 
L 217.584482 413.586732 
L 223.946741 428.967087 
L 231.607089 438.482907 
L 242.232788 449.109874 
L 251.005783 456.154035 
L 261.261454 463.198196 
L 271.570109 470.929719 
L 279.233875 476.705104 
L 278.657041 479.358939 
L 281.600174 481.333165 
L 277.948604 486.391472 
L 281.198527 489.917429 
L 284.225407 491.709478 
L 290.280021 496.468034 
L 301.146708 502.106463 
L 300.236593 503.594885 
L 300.082771 505.407606 
L 300.519455 506.229339 
L 305.374256 510.566692 
L 312.335568 518.096658 
L 329.25516 531.803831 
L 331.51122 535.112726 
L 333.674986 540.342873 
L 336.148961 545.314615 
L 336.9514 548.863828 
L 336.9514 554.807177 
L 337.173588 557.246535 
L 339.850095 559.490795 
L 344.416052 564.320413 
L 346.145698 566.668036 
L 349.358019 568.460085 
L 354.547811 570.067373 
L 359.242807 572.292253 
L 366.965539 576.433218 
L 370.239389 578.966893 
L 373.884122 582.921805 
L 380.124177 587.619635 
L 382.410147 588.299244 
L 384.813192 588.114483 
L 388.402378 590.400089 
L 393.159758 593.923462 
L 396.310551 596.827951 
L 398.59652 600.227288 
L 400.944018 601.215693 
L 404.527222 603.255812 
L 412.805423 609.868435 
L 417.006479 612.403403 
L 420.775124 615.183857 
L 424.481386 616.791145 
L 428.682442 618.336416 
L 435.71981 621.256409 
L 436.862368 621.326179 
L 442.105143 623.511006 
L 443.124642 623.501962 
L 445.400357 625.308223 
L 446.043847 624.406385 
L 449.216003 626.514982 
L 468.017355 642.400521 
L 519.675138 684.183561 
L 524.569249 690.12691 
L 671.642972 361.193522 
L 685.166512 310.886944 
L 676.791745 210.162674 
L 679.469107 192.76158 
L 694.769293 189.893268 
L 731.297804 171.729875 
L 763.618421 166.375692 
L 789.437485 183.966715 
L 806.154545 182.225055 
L 805.596513 179.440725 
L 804.400972 177.710693 
L 801.421093 171.207893 
L 798.871062 164.451855 
L 799.848688 162.423364 
L 802.905478 159.900025 
L 801.547569 156.473555 
L 800.491323 155.266796 
L 800.732311 152.669811 
L 798.900117 148.081804 
L 793.859875 140.243042 
L 792.925832 136.901846 
L 792.039645 130.110923 
L 792.145612 127.064311 
L 790.709937 126.696082 
L 788.397476 126.795568 
L 794.184611 94.381056 
L 725.600398 102.31672 
L 722.449606 103.603584 
L 720.576393 105.606235 
L 720.04827 106.169561 
L 718.301533 108.530104 
L 716.850476 110.490118 
L 715.53786 112.262786 
L 714.732002 113.926924 
L 714.372229 115.412762 
L 714.249171 116.879218 
L 714.463668 119.026577 
L 715.924125 123.910459 
L 715.094339 124.121061 
L 713.154469 128.141866 
L 697.438963 146.528781 
L 633.265176 132.26991 
L 625.369822 131.472726 
L 611.469419 112.596131 
L 603.572355 102.650064 
L 602.660531 94.111022 
L 602.12899 91.492072 
L 602.508418 88.530733 
L 604.103042 87.278754 
L 604.292756 86.442809 
L 602.546874 85.380758 
L 601.293222 83.823859 
L 601.333387 80.073088 
L 598.766265 80.082133 
L 582.763624 83.034427 
L 572.292601 92.964989 
L 568.641032 97.045227 
L 566.170476 96.883723 
L 557.524811 93.609713 
L 551.725712 92.750511 
L 552.450386 90.720728 
L 523.54804 88.684485 
L 521.559461 92.090283 
L 514.68617 92.413291 
L 502.286388 90.263349 
L 502.113765 89.042378 
L 497.292292 87.687036 
L 478.35421 84.848441 
L 479.313035 85.602988 
L 480.28297 86.981586 
L 479.727501 88.953228 
L 478.059384 90.497207 
L 476.964682 94.763498 
L 467.676382 95.405638 
L 467.336264 96.316521 
L 466.03903 96.842378 
L 457.822358 94.943091 
L 455.910689 94.674348 
L 455.134742 95.005108 
L 452.633421 94.139446 
L 448.277688 91.977876 
L 430.337741 86.761941 
L 429.156728 86.790365 
L 427.488611 85.894987 
L 426.229832 84.623627 
L 422.987601 83.942726 
L 418.01487 82.055066 
L 411.744049 78.9361 
L 402.507878 74.921755 
L 393.723773 72.158097 
L 391.400203 70.795003 
L 387.599084 69.223891 
L 384.279087 68.306548 
L 377.639093 66.778074 
L 373.638006 65.320661 
L 365.928093 63.377444 
L 363.023416 61.566015 
L 362.767046 61.292104 
L 361.319408 63.246949 
L 360.264871 62.836083 
L 360.205051 62.307641 
L 359.265881 61.325697 
L 357.562727 60.255894 
L 355.70575 59.578869 
L 352.66947 58.989702 
L 351.206449 58.945773 
L 342.753062 57.439263 
L 341.180657 57.550378 
L 326.229989 53.01276 
L 321.557211 51.409347 
L 317.766348 50.109562 
L 310.418772 48.357566 
L 303.166053 48.694787 
L 298.230068 46.860101 
L 290.839763 44.663645 
L 289.689515 41.140273 
L 282.43765 39.720329 
L 273.320264 41.897404 
L 265.442856 57.766147 
L 266.317933 60.43161 
L 264.369518 62.966578 
L 255.976806 77.894722 
L 255.738381 84.459539 
L 224.085181 98.219685 
L 219.588444 104.115229 
L 217.861362 106.973205 
L 214.24483 106.400835 
L 206.058923 103.157833 
L 187.018292 91.366745 
L 185.733022 93.777677 
L 169.757727 88.783972 
L 154.972845 114.758993 
L 150.982867 121.723048 
L 142.872162 132.148459 
L 139.184701 138.449701 
L 132.198607 137.169297 
L 130.160462 135.605938 
L 129.384515 135.191195 
L 126.74219 133.412066 
L 125.627833 131.751805 
L 125.780801 129.896446 
L 119.675767 126.871798 
L 119.435633 127.035886 
L 115.19783 128.650927 
L 112.850332 129.852517 
L 111.769304 126.991957 
L 111.46935 125.727057 
L 110.643837 125.699924 
L 109.966165 126.041021 
L 109.273965 125.463482 
L 106.178719 111.619354 
L 105.695888 109.941004 
L 104.778937 108.062389 
L 102.944179 106.185065 
L 100.191616 105.311651 
L 97.833008 105.311651 
L 95.823064 106.621772 
L 94.119055 111.119338 
L 92.30908 115.452815 
L 90.914425 120.252715 
L 89.887234 120.734644 
L 88.726731 120.98659 
L 86.426234 120.813457 
L 83.523266 119.743655 
L 80.354528 116.336565 
L 78.892362 115.615611 
L 76.708941 115.332656 
L 75.319413 114.62979 
L 74.375115 114.62333 
L 70.133894 115.156939 
L 68.323064 115.704761 
L 66.286629 115.438602 
L 63.534065 112.381653 
L 62.657278 111.855796 
L 61.325007 111.85838 
L 60.08161 112.141335 
L 58.268217 114.224092 
L 55.319957 119.176452 
L 54.931129 121.193315 
" clip-path="url(#p611163f68a)" style="fill: #f29888"/>
   </g>
   <g id="PatchCollection_2">
    <path d="M 782.582995 143.309036 
L 782.548813 146.10241 
L 779.579189 146.067525 
L 779.612517 143.274151 
L 782.582995 143.309036 
" clip-path="url(#p611163f68a)" style="fill: #f29888"/>
    <path d="M 783.14701 138.898037 
L 783.160683 140.218494 
L 780.573051 140.244334 
L 780.560233 138.922585 
L 783.14701 138.898037 
" clip-path="url(#p611163f68a)" style="fill: #f29888"/>
    <path d="M 784.596358 137.2985 
L 784.579266 138.965222 
L 783.14701 138.898037 
L 780.560233 138.922585 
L 779.683446 138.913541 
L 779.701392 137.246819 
L 784.596358 137.2985 
" clip-path="url(#p611163f68a)" style="fill: #f29888"/>
    <path d="M 347.897562 526.170569 
L 348.745294 524.93151 
L 349.983563 525.780375 
L 349.134977 527.018142 
L 347.897562 526.170569 
" clip-path="url(#p611163f68a)" style="fill: #f29888"/>
    <path d="M 337.112913 503.322266 
L 337.502596 502.863594 
L 338.052938 503.345523 
L 337.709402 503.757681 
L 337.112913 503.322266 
" clip-path="url(#p611163f68a)" style="fill: #f29888"/>
    <path d="M 255.031653 394.954331 
L 258.218337 394.83934 
L 258.195264 395.526702 
L 256.475873 395.573215 
L 256.567312 396.215355 
L 255.146165 396.215355 
L 255.0778 395.688206 
L 255.031653 394.954331 
" clip-path="url(#p611163f68a)" style="fill: #f29888"/>
    <path d="M 261.323838 371.996206 
L 262.057057 370.965164 
L 262.44674 371.285588 
L 261.781886 372.271409 
L 261.323838 371.996206 
" clip-path="url(#p611163f68a)" style="fill: #f29888"/>
    <path d="M 308.478902 252.704136 
L 311.229757 253.804948 
L 310.17522 256.370924 
L 307.379073 255.40836 
L 308.478902 252.704136 
" clip-path="url(#p611163f68a)" style="fill: #f29888"/>
    <path d="M 319.985661 251.741572 
L 324.065369 253.117586 
L 323.561173 254.629264 
L 319.435319 253.254542 
L 319.985661 251.741572 
" clip-path="url(#p611163f68a)" style="fill: #f29888"/>
    <path d="M 306.55356 249.105826 
L 307.791829 243.789112 
L 309.854757 244.431252 
L 308.571195 249.564497 
L 306.55356 249.105826 
" clip-path="url(#p611163f68a)" style="fill: #f29888"/>
    <path d="M 314.025903 239.343228 
L 315.218026 239.801899 
L 314.392513 242.551345 
L 317.3271 243.560422 
L 317.876587 242.002231 
L 319.023417 242.414389 
L 318.885832 243.055237 
L 320.627441 243.560422 
L 321.177783 241.543559 
L 322.506636 242.047452 
L 320.994051 245.805974 
L 316.501587 244.156049 
L 315.951245 245.48555 
L 312.467171 244.293004 
L 314.025903 239.343228 
" clip-path="url(#p611163f68a)" style="fill: #f29888"/>
    <path d="M 617.320646 390.45935 
L 618.283744 389.266804 
L 619.06311 389.863723 
L 618.191451 391.10149 
L 617.320646 390.45935 
" clip-path="url(#p611163f68a)" style="fill: #f29888"/>
    <path d="M 582.668767 335.266305 
L 582.914882 334.135777 
L 585.042757 334.599617 
L 584.43345 337.392991 
L 582.30643 336.929151 
L 582.668767 335.266305 
" clip-path="url(#p611163f68a)" style="fill: #f29888"/>
    <path d="M 350.929569 253.96516 
L 356.751741 255.890288 
L 356.109961 257.494993 
L 350.379228 255.752041 
L 350.929569 253.96516 
" clip-path="url(#p611163f68a)" style="fill: #f29888"/>
    <path d="M 334.930347 246.608327 
L 349.783594 251.374635 
L 348.407739 255.134449 
L 333.646785 250.275115 
L 334.930347 246.608327 
" clip-path="url(#p611163f68a)" style="fill: #f29888"/>
    <path d="M 355.651058 252.406969 
L 358.172888 244.889923 
L 360.327254 245.71424 
L 357.484961 253.047817 
L 355.651058 252.406969 
" clip-path="url(#p611163f68a)" style="fill: #f29888"/>
    <path d="M 352.488302 251.260936 
L 354.322205 245.71424 
L 355.83479 246.309867 
L 354.092326 251.764828 
L 352.488302 251.260936 
" clip-path="url(#p611163f68a)" style="fill: #f29888"/>
    <path d="M 340.248324 241.291613 
L 351.342326 244.683198 
L 349.966471 248.625189 
L 338.964762 245.233604 
L 340.248324 241.291613 
" clip-path="url(#p611163f68a)" style="fill: #f29888"/>
    <path d="M 329.200468 240.282536 
L 327.320418 239.641687 
L 327.549442 238.587389 
L 331.308687 239.50344 
L 331.217248 240.512517 
L 337.359884 242.207664 
L 336.993274 242.941538 
L 338.001664 243.308476 
L 337.40603 245.187091 
L 328.557833 242.207664 
L 329.200468 240.282536 
" clip-path="url(#p611163f68a)" style="fill: #f29888"/>
    <path d="M 328.192078 235.544652 
L 332.631559 236.710066 
L 332.898184 235.69582 
L 339.09893 237.322489 
L 338.521242 239.52282 
L 327.88016 236.730738 
L 328.192078 235.544652 
" clip-path="url(#p611163f68a)" style="fill: #f29888"/>
    <path d="M 308.713908 240.821313 
L 311.620294 241.503506 
L 311.178483 243.38729 
L 308.272097 242.706388 
L 308.713908 240.821313 
" clip-path="url(#p611163f68a)" style="fill: #f29888"/>
    <path d="M 316.660537 237.832842 
L 320.982087 239.266998 
L 321.324769 238.234664 
L 325.61641 239.658484 
L 324.745605 242.282602 
L 316.131559 239.424626 
L 316.660537 237.832842 
" clip-path="url(#p611163f68a)" style="fill: #f29888"/>
    <path d="M 285.830285 234.522655 
L 288.712743 235.450334 
L 287.944487 237.83801 
L 285.061174 236.910331 
L 285.830285 234.522655 
" clip-path="url(#p611163f68a)" style="fill: #f29888"/>
    <path d="M 300.301541 229.832577 
L 303.779632 230.671106 
L 303.35833 232.420518 
L 311.416907 234.363735 
L 310.546102 237.969797 
L 299.009434 235.186759 
L 300.301541 229.832577 
" clip-path="url(#p611163f68a)" style="fill: #f29888"/>
    <path d="M 102.404947 233.025189 
L 103.184313 232.796499 
L 103.596215 234.079487 
L 102.839922 234.331434 
L 102.404947 233.025189 
" clip-path="url(#p611163f68a)" style="fill: #f29888"/>
    <path d="M 312.69705 230.107779 
L 315.676074 230.795141 
L 315.218026 232.812004 
L 312.284294 232.169863 
L 312.69705 230.107779 
" clip-path="url(#p611163f68a)" style="fill: #f29888"/>
    <path d="M 295.668073 226.280779 
L 299.230767 227.137397 
L 298.781264 229.006968 
L 295.21857 228.15035 
L 295.668073 226.280779 
" clip-path="url(#p611163f68a)" style="fill: #f29888"/>
    <path d="M 304.929881 224.960322 
L 311.41178 226.585699 
L 310.99646 228.240793 
L 304.515416 226.615416 
L 304.929881 224.960322 
" clip-path="url(#p611163f68a)" style="fill: #f29888"/>
    <path d="M 291.37985 216.883827 
L 294.313582 217.571188 
L 293.809387 219.725006 
L 290.875655 218.992424 
L 291.37985 216.883827 
" clip-path="url(#p611163f68a)" style="fill: #f29888"/>
    <path d="M 306.92017 213.010313 
L 314.576245 214.798486 
L 314.07205 217.182286 
L 306.370683 215.394113 
L 306.92017 213.010313 
" clip-path="url(#p611163f68a)" style="fill: #f29888"/>
    <path d="M 441.791516 167.405442 
L 439.063735 174.918611 
L 437.296488 174.277763 
L 440.024269 166.764594 
L 441.791516 167.405442 
" clip-path="url(#p611163f68a)" style="fill: #f29888"/>
    <path d="M 437.126429 166.826611 
L 430.095043 164.06037 
L 430.72486 162.459541 
L 437.756246 165.224491 
L 437.126429 166.826611 
" clip-path="url(#p611163f68a)" style="fill: #f29888"/>
    <path d="M 439.397871 162.73216 
L 438.893676 163.935042 
L 438.128838 163.614618 
L 438.632178 162.411736 
L 439.397871 162.73216 
" clip-path="url(#p611163f68a)" style="fill: #f29888"/>
    <path d="M 429.019142 161.880711 
L 430.371923 158.27594 
L 432.10926 158.927124 
L 430.72486 162.459541 
L 429.019142 161.880711 
" clip-path="url(#p611163f68a)" style="fill: #f29888"/>
    <path d="M 444.39453 160.254042 
L 443.676693 162.246356 
L 430.772716 157.601499 
L 431.490553 155.609185 
L 444.39453 160.254042 
" clip-path="url(#p611163f68a)" style="fill: #f29888"/>
    <path d="M 107.814363 210.016674 
L 109.051777 210.061895 
L 109.235509 212.949588 
L 107.905801 213.041322 
L 107.814363 210.016674 
" clip-path="url(#p611163f68a)" style="fill: #f29888"/>
    <path d="M 252.414111 205.883462 
L 254.155721 206.525602 
L 253.926697 207.396432 
L 252.963599 207.029495 
L 252.780721 207.716856 
L 251.817623 207.441653 
L 252.414111 205.883462 
" clip-path="url(#p611163f68a)" style="fill: #f29888"/>
    <path d="M 100.857324 199.76052 
L 101.774276 199.852254 
L 101.522178 201.892374 
L 100.651373 201.800639 
L 100.857324 199.76052 
" clip-path="url(#p611163f68a)" style="fill: #f29888"/>
    <path d="M 133.623172 197.912913 
L 131.593573 199.667494 
L 130.49118 198.39355 
L 132.520779 196.637677 
L 133.226652 197.454242 
L 133.623172 197.912913 
" clip-path="url(#p611163f68a)" style="fill: #f29888"/>
   </g>
   <g id="LineCollection_1">
    <path d="M 510.489386 594.923495 
L 513.676925 589.361295 
L 516.204737 584.936084 
L 519.206835 580.932075 
L 524.524812 575.928033 
L 527.526909 573.293579 
L 529.159134 571.29222 
L 530.10685 570.396842 
L 532.21336 569.080261 
L 534.846284 569.342543 
L 537.216002 570.02732 
L 541.376039 571.713423 
L 546.483792 574.926708 
L 559.701396 583.934758 
L 568.495756 589.624869 
L 569.14376 590.435105 
" clip-path="url(#p611163f68a)" style="fill: none; stroke: #f29888; stroke-width: 0.2"/>
    <path d="M 597.486048 527.046999 
L 596.141032 526.542674 
L 593.390177 525.350128 
L 591.189664 524.616254 
L 586.147713 518.563081 
L 580.141809 512.097751 
L 578.491638 510.217843 
L 574.732393 505.999357 
L 571.339758 503.110373 
L 565.288562 497.654119 
L 560.567073 492.701759 
L 556.166048 488.620228 
L 554.837195 488.024601 
L 553.959553 488.299804 
L 553.232316 488.528494 
L 551.627437 489.033678 
L 550.390023 488.941944 
L 549.610656 488.20807 
L 549.610656 486.328162 
L 550.06956 483.255709 
L 552.361511 475.827814 
L 553.82795 471.471081 
L 555.845585 464.640105 
L 556.900122 459.59601 
L 559.467244 448.591769 
L 560.383341 444.923689 
L 561.759196 434.606809 
L 562.723148 430.01751 
L 562.905171 429.151848 
L 564.005001 422.96172 
L 566.343099 417.185043 
L 567.947977 411.086649 
" clip-path="url(#p611163f68a)" style="fill: none; stroke: #f29888; stroke-width: 0.2"/>
    <path d="M 556.875339 431.759169 
L 558.066607 430.566623 
L 562.723148 430.01751 
" clip-path="url(#p611163f68a)" style="fill: none; stroke: #f29888; stroke-width: 0.2"/>
    <path d="M 437.674207 449.52074 
L 438.138238 454.231491 
L 439.666205 463.822248 
L 439.388471 467.574311 
L 436.88715 474.593923 
L 432.370758 484.18468 
L 432.022949 487.730018 
L 432.996302 501.143899 
L 433.204817 510.3871 
L 432.996302 519.214266 
L 431.404242 527.520743 
" clip-path="url(#p611163f68a)" style="fill: none; stroke: #f29888; stroke-width: 0.2"/>
    <path d="M 516.294467 381.297548 
L 510.801304 384.421682 
L 506.895928 393.557644 
L 506.163563 397.206344 
L 504.667214 406.051599 
L 502.063345 411.498808 
L 502.791437 416.200514 
L 503.704116 416.275452 
" clip-path="url(#p611163f68a)" style="fill: none; stroke: #f29888; stroke-width: 0.2"/>
    <path d="M 460.779163 382.810518 
L 455.186016 392.438744 
L 444.367184 412.931672 
" clip-path="url(#p611163f68a)" style="fill: none; stroke: #f29888; stroke-width: 0.2"/>
    <path d="M 537.611667 399.039738 
L 518.448833 398.39889 
L 506.163563 397.206344 
L 490.289962 394.574474 
L 487.917681 394.180404 
L 460.779163 382.810518 
L 437.857939 372.541443 
L 421.538254 366.122626 
L 407.510519 359.887277 
L 396.507956 355.853551 
L 390.914808 353.928423 
L 378.629538 351.819826 
L 359.375265 349.98514 
L 355.066533 349.069089 
" clip-path="url(#p611163f68a)" style="fill: none; stroke: #f29888; stroke-width: 0.2"/>
    <path d="M 495.527609 382.123156 
L 472.881556 373.412273 
L 444.000575 362.592793 
L 428.59784 356.357444 
L 417.045789 352.323719 
L 411.91069 350.535546 
L 402.467713 345.63099 
L 393.390492 340.404719 
" clip-path="url(#p611163f68a)" style="fill: none; stroke: #f29888; stroke-width: 0.2"/>
    <path d="M 503.25034 328.463754 
L 491.760673 362.007502 
" clip-path="url(#p611163f68a)" style="fill: none; stroke: #f29888; stroke-width: 0.2"/>
    <path d="M 492.000807 330.66667 
L 487.897171 342.251033 
L 488.890179 343.840233 
L 488.227889 346.554793 
L 483.812336 359.190871 
" clip-path="url(#p611163f68a)" style="fill: none; stroke: #f29888; stroke-width: 0.2"/>
    <path d="M 453.352967 331.281677 
L 458.637616 333.910963 
L 464.131634 334.572484 
L 468.301926 336.558338 
L 470.4204 338.675979 
L 475.5837 339.802632 
L 476.643364 334.241724 
L 482.683451 321.166355 
L 483.4876 319.497049 
" clip-path="url(#p611163f68a)" style="fill: none; stroke: #f29888; stroke-width: 0.2"/>
    <path d="M 598.23216 368.319081 
L 594.839525 365.293141 
L 579.786309 346.516033 
L 577.785765 344.021118 
L 574.46235 340.836258 
L 570.610811 338.681147 
L 561.099469 335.494995 
L 540.570181 329.648548 
L 524.424827 324.767249 
L 513.423118 321.100461 
L 498.203262 315.598987 
L 486.651211 311.565261 
L 468.496767 305.331204 
L 462.311404 303.169634 
L 454.057986 300.285817 
L 453.277765 300.013198 
L 438.97486 294.696485 
L 421.9211 288.644604 
L 408.168537 284.243942 
L 405.601414 283.236156 
" clip-path="url(#p611163f68a)" style="fill: none; stroke: #f29888; stroke-width: 0.2"/>
    <path d="M 483.4876 319.497049 
L 486.651211 311.565261 
L 489.355919 305.057293 
L 491.372699 297.860672 
" clip-path="url(#p611163f68a)" style="fill: none; stroke: #f29888; stroke-width: 0.2"/>
    <path d="M 503.704116 416.275452 
L 523.507876 421.503015 
L 535.742726 423.058622 
" clip-path="url(#p611163f68a)" style="fill: none; stroke: #f29888; stroke-width: 0.2"/>
    <path d="M 562.586418 403.101888 
L 562.634273 405.209193 
L 559.787707 411.631887 
L 556.875339 431.759169 
L 554.426147 431.825063 
L 544.739619 430.698411 
" clip-path="url(#p611163f68a)" style="fill: none; stroke: #f29888; stroke-width: 0.2"/>
    <path d="M 504.667214 406.051599 
L 536.55713 411.098277 
" clip-path="url(#p611163f68a)" style="fill: none; stroke: #f29888; stroke-width: 0.2"/>
    <path d="M 576.410765 422.23689 
L 580.81179 401.008796 
L 582.159444 394.238545 
L 583.572899 387.134951 
" clip-path="url(#p611163f68a)" style="fill: none; stroke: #f29888; stroke-width: 0.2"/>
    <path d="M 570.11858 398.773579 
L 580.81179 401.008796 
L 587.045864 402.705234 
" clip-path="url(#p611163f68a)" style="fill: none; stroke: #f29888; stroke-width: 0.2"/>
    <path d="M 552.969109 363.875781 
L 549.90121 375.086747 
L 546.375262 387.972188 
" clip-path="url(#p611163f68a)" style="fill: none; stroke: #f29888; stroke-width: 0.2"/>
    <path d="M 546.375262 387.972188 
L 545.542058 391.017508 
L 544.075619 392.575699 
L 540.041204 392.392231 
L 538.757642 393.309574 
L 537.611667 399.039738 
L 536.55713 411.098277 
L 535.742726 423.058622 
L 535.365007 428.61307 
L 536.1213 429.964536 
L 544.739619 430.698411 
L 546.02318 428.589814 
L 547.765644 421.574077 
L 550.103742 406.994782 
L 550.739541 404.317691 
L 550.974547 403.326702 
L 551.432596 396.999619 
L 550.699376 394.891022 
L 548.727888 392.598956 
L 548.498863 389.66475 
L 546.375262 387.972188 
" clip-path="url(#p611163f68a)" style="fill: none; stroke: #f29888; stroke-width: 0.2"/>
    <path d="M 572.009739 391.839241 
L 582.159444 394.238545 
L 588.650743 395.782524 
" clip-path="url(#p611163f68a)" style="fill: none; stroke: #f29888; stroke-width: 0.2"/>
    <path d="M 561.053323 382.991402 
L 573.40354 384.672337 
L 583.572899 387.134951 
L 601.478664 391.344392 
" clip-path="url(#p611163f68a)" style="fill: none; stroke: #f29888; stroke-width: 0.2"/>
    <path d="M 579.786309 346.516033 
L 577.601178 361.259415 
L 576.462893 368.941841 
L 573.40354 384.672337 
L 572.009739 391.839241 
L 570.11858 398.773579 
L 569.121299 402.383518 
L 567.930032 403.117393 
L 565.087738 402.888703 
L 562.586418 403.101888 
L 561.328493 403.209127 
L 557.523957 404.446894 
L 554.497931 404.9973 
L 550.739541 404.317691 
" clip-path="url(#p611163f68a)" style="fill: none; stroke: #f29888; stroke-width: 0.2"/>
    <path d="M 529.389868 367.497348 
L 549.90121 375.086747 
" clip-path="url(#p611163f68a)" style="fill: none; stroke: #f29888; stroke-width: 0.2"/>
    <path d="M 620.588514 395.906559 
L 625.801379 389.58852 
L 630.202405 382.115404 
L 634.190674 372.71716 
L 637.032967 362.997199 
L 638.359256 354.294068 
L 638.50026 353.370265 
L 642.992724 343.835065 
L 643.267895 341.542999 
" clip-path="url(#p611163f68a)" style="fill: none; stroke: #f29888; stroke-width: 0.2"/>
    <path d="M 634.190674 372.71716 
L 620.988452 368.590408 
L 614.386914 367.123951 
L 597.773257 363.688437 
" clip-path="url(#p611163f68a)" style="fill: none; stroke: #f29888; stroke-width: 0.2"/>
    <path d="M 540.570181 329.648548 
L 537.978276 338.524811 
L 536.038407 344.961717 
L 535.090691 348.106525 
L 532.545787 356.839372 
L 530.230763 365.755689 
L 529.389868 367.497348 
L 528.259274 369.835927 
L 525.554566 373.091849 
L 521.566297 376.942106 
L 516.294467 381.297548 
L 513.86493 380.977124 
L 503.458855 380.106294 
L 498.369902 380.747142 
L 495.527609 382.123156 
L 490.289962 394.574474 
" clip-path="url(#p611163f68a)" style="fill: none; stroke: #f29888; stroke-width: 0.2"/>
    <path d="M 576.462893 368.941841 
L 565.002281 366.741509 
L 552.969109 363.875781 
L 532.545787 356.839372 
L 520.904007 352.753965 
L 516.867882 351.337898 
L 516.056897 351.029102 
L 507.165971 347.637517 
" clip-path="url(#p611163f68a)" style="fill: none; stroke: #f29888; stroke-width: 0.2"/>
    <path d="M 536.038407 344.961717 
L 549.042369 350.94512 
L 563.391421 356.675284 
L 577.601178 361.259415 
" clip-path="url(#p611163f68a)" style="fill: none; stroke: #f29888; stroke-width: 0.2"/>
    <path d="M 638.359256 354.294068 
L 624.930574 350.894731 
L 608.060547 347.593588 
L 601.289804 346.278299 
" clip-path="url(#p611163f68a)" style="fill: none; stroke: #f29888; stroke-width: 0.2"/>
    <path d="M 517.777997 361.718087 
L 520.904007 352.753965 
L 526.075853 338.15529 
" clip-path="url(#p611163f68a)" style="fill: none; stroke: #f29888; stroke-width: 0.2"/>
    <path d="M 512.368581 363.139323 
L 516.056897 351.029102 
L 522.225169 334.808926 
" clip-path="url(#p611163f68a)" style="fill: none; stroke: #f29888; stroke-width: 0.2"/>
    <path d="M 495.651521 176.461298 
L 507.923973 180.984703 
L 515.486046 183.77291 
L 523.600169 186.660602 
L 528.367804 188.81442 
L 534.969342 192.29774 
L 539.186636 195.13892 
L 543.6791 198.852221 
L 546.750417 201.464711 
L 551.471906 205.772347 
L 555.919078 209.851294 
L 564.456212 217.471702 
L 570.451007 222.8233 
L 582.782424 233.777152 
L 594.884817 244.687074 
L 597.773257 247.574767 
L 599.882331 250.187257 
L 602.036697 253.120171 
L 603.595429 255.458749 
L 605.199453 258.071239 
L 606.6206 260.72895 
L 608.454503 265.404816 
L 609.371454 268.200774 
L 610.746454 273.060108 
L 611.618113 277.002099 
L 612.076162 279.936305 
L 612.397479 283.144422 
L 612.397479 286.352539 
L 612.167601 290.020619 
L 611.663405 294.054344 
L 611.067772 297.767646 
L 610.425991 301.389213 
L 609.600478 305.009488 
L 608.867259 308.355852 
L 605.612209 324.997231 
L 603.136526 337.374903 
L 601.945258 343.105067 
L 601.289804 346.278299 
L 600.524111 349.981264 
L 599.378135 355.436225 
L 598.415037 360.113383 
L 597.773257 363.688437 
L 597.819403 365.980502 
L 598.23216 368.319081 
L 599.652452 371.116331 
L 602.220429 374.370961 
L 605.978819 379.138561 
L 609.829502 383.906161 
L 613.543455 388.675053 
L 616.660919 392.432284 
L 620.588514 395.906559 
L 635.73146 409.303644 
L 646.012894 418.515716 
" clip-path="url(#p611163f68a)" style="fill: none; stroke: #f29888; stroke-width: 0.5"/>
    <path d="M 648.328647 313.151877 
L 650.161696 317.919477 
L 652.729673 325.986928 
L 650.89577 329.104602 
L 650.345428 332.587922 
L 654.562721 334.23914 
L 661.897479 335.338659 
L 670.33292 334.422608 
L 675.283432 332.220985 
L 680.462484 328.385582 
" clip-path="url(#p611163f68a)" style="fill: none; stroke: #f29888; stroke-width: 0.2"/>
    <path d="M 686.338841 191.473717 
L 686.285996 190.537992 
L 684.493112 188.469448 
" clip-path="url(#p611163f68a)" style="fill: none; stroke: #f29888; stroke-width: 0.2"/>
    <path d="M 467.58067 259.538988 
L 480.370136 263.342732 
L 494.90292 267.331236 
L 511.08502 273.610514 
L 523.141266 279.387191 
L 542.322046 289.122656 
" clip-path="url(#p611163f68a)" style="fill: none; stroke: #f29888; stroke-width: 0.2"/>
    <path d="M 477.207379 230.707283 
L 473.993349 240.347137 
L 470.857939 249.753134 
L 469.345353 254.290752 
L 467.58067 259.538988 
L 465.463905 264.86087 
L 462.262694 272.969666 
L 461.896084 278.538326 
L 459.007644 285.207798 
L 462.400279 285.483001 
L 475.832379 291.213165 
L 491.372699 297.860672 
" clip-path="url(#p611163f68a)" style="fill: none; stroke: #f29888; stroke-width: 0.2"/>
    <path d="M 494.90292 267.331236 
L 497.423895 255.688731 
L 498.936481 249.408161 
L 501.458311 243.358865 
L 502.007798 239.782519 
" clip-path="url(#p611163f68a)" style="fill: none; stroke: #f29888; stroke-width: 0.2"/>
    <path d="M 470.857939 249.753134 
L 482.47921 252.297146 
L 497.423895 255.688731 
" clip-path="url(#p611163f68a)" style="fill: none; stroke: #f29888; stroke-width: 0.2"/>
    <path d="M 435.893288 241.901452 
L 451.994204 248.125173 
L 457.454039 250.065806 
L 462.866873 251.98835 
L 469.345353 254.290752 
" clip-path="url(#p611163f68a)" style="fill: none; stroke: #f29888; stroke-width: 0.2"/>
    <path d="M 502.007798 239.782519 
L 517.915583 244.321429 
" clip-path="url(#p611163f68a)" style="fill: none; stroke: #f29888; stroke-width: 0.2"/>
    <path d="M 462.866873 251.98835 
L 468.079738 238.246292 
L 471.771472 228.549588 
" clip-path="url(#p611163f68a)" style="fill: none; stroke: #f29888; stroke-width: 0.2"/>
    <path d="M 420.781961 233.857258 
L 426.459711 233.778444 
L 431.887073 235.822439 
L 437.416128 237.903904 
L 439.009043 238.433637 
L 442.741796 239.584838 
L 448.346053 241.312285 
L 453.644375 242.945415 
" clip-path="url(#p611163f68a)" style="fill: none; stroke: #f29888; stroke-width: 0.2"/>
    <path d="M 457.454039 250.065806 
L 462.474626 236.256562 
L 466.03903 226.318248 
" clip-path="url(#p611163f68a)" style="fill: none; stroke: #f29888; stroke-width: 0.2"/>
    <path d="M 451.994204 248.125173 
L 453.644375 242.945415 
L 457.173741 234.374071 
L 460.890257 224.420252 
" clip-path="url(#p611163f68a)" style="fill: none; stroke: #f29888; stroke-width: 0.2"/>
    <path d="M 525.187102 682.512963 
L 523.217323 683.107298 
L 521.567152 684.346357 
L 520.689252 685.415088 
" clip-path="url(#p611163f68a)" style="fill: none; stroke: #f29888; stroke-width: 0.2"/>
    <path d="M 448.87674 619.138768 
L 452.140335 621.134958 
L 504.070726 652.894409 
L 506.930965 654.265256 
L 509.022093 656.380313 
L 509.572435 659.49928 
L 510.781649 662.291362 
L 519.107705 671.973854 
L 519.675138 674.720715 
L 520.757876 676.744038 
L 525.187102 682.512963 
L 525.617804 683.073705 
L 526.799658 685.138556 
" clip-path="url(#p611163f68a)" style="fill: none; stroke: #f29888; stroke-width: 0.2"/>
    <path d="M 452.140335 621.134958 
L 456.161078 615.101167 
L 459.960487 609.02603 
" clip-path="url(#p611163f68a)" style="fill: none; stroke: #f29888; stroke-width: 0.2"/>
    <path d="M 495.269529 604.829508 
L 510.691064 594.981636 
" clip-path="url(#p611163f68a)" style="fill: none; stroke: #f29888; stroke-width: 0.2"/>
    <path d="M 548.887539 635.738559 
L 546.888003 637.34609 
L 541.93749 645.877381 
L 537.783435 649.998965 
L 533.684927 652.802675 
L 528.75236 652.614038 
L 527.908901 651.793598 
L 507.848771 624.251341 
L 504.089526 618.563814 
L 497.855452 611.501564 
L 495.269529 604.829508 
L 482.406571 606.090532 
L 475.235891 607.67198 
L 465.283592 607.947183 
L 459.960487 609.02603 
L 458.962352 608.31412 
L 448.693008 596.207775 
L 433.562026 586.85346 
L 416.053636 576.028811 
L 416.786855 569.608702 
L 411.973074 566.35278 
L 422.74234 550.782496 
L 428.705516 545.211252 
L 429.393443 542.138799 
L 447.696581 537.730384 
" clip-path="url(#p611163f68a)" style="fill: none; stroke: #f29888; stroke-width: 0.2"/>
    <path d="M 337.753839 502.656869 
L 343.988768 507.242293 
L 347.562571 514.51902 
L 349.123013 517.69742 
L 353.340306 520.449449 
L 374.061872 516.413139 
L 388.010986 519.614796 
L 394.048509 520.999855 
L 398.412788 521.762154 
L 431.404242 527.520743 
L 432.923664 527.78561 
L 435.490786 532.187564 
L 441.72486 535.489999 
L 447.696581 537.730384 
L 451.994204 539.341548 
L 458.594888 542.460515 
L 481.699844 569.79217 
L 498.936481 583.91667 
L 502.604287 585.751356 
L 510.489386 594.923495 
L 510.691064 594.981636 
L 522.591779 598.408106 
L 523.141266 602.811353 
L 528.642975 609.5984 
L 534.070337 618.078009 
L 536.087117 621.93085 
L 539.479752 627.663599 
L 542.94588 631.613342 
L 545.347217 633.075923 
L 547.689588 633.313657 
L 550.033685 633.175178 
" clip-path="url(#p611163f68a)" style="fill: none; stroke: #f29888; stroke-width: 0.2"/>
    <path d="M 445.016422 625.00349 
L 448.87674 619.138768 
" clip-path="url(#p611163f68a)" style="fill: none; stroke: #f29888; stroke-width: 0.2"/>
    <path d="M 424.051538 601.993497 
L 433.562026 586.85346 
" clip-path="url(#p611163f68a)" style="fill: none; stroke: #f29888; stroke-width: 0.2"/>
    <path d="M 411.973074 566.35278 
L 400.444951 586.292718 
" clip-path="url(#p611163f68a)" style="fill: none; stroke: #f29888; stroke-width: 0.2"/>
    <path d="M 368.968646 541.565136 
L 370.847841 544.133697 
L 373.323525 545.554933 
L 376.394842 546.930947 
L 379.054258 547.573087 
L 382.951088 549.636463 
L 386.571893 549.728198 
L 390.285846 551.562884 
L 392.165041 552.433714 
L 395.420091 554.635337 
L 399.821116 557.202606 
L 404.129848 561.33065 
L 406.834556 563.394025 
L 408.988922 564.586571 
L 411.973074 566.35278 
" clip-path="url(#p611163f68a)" style="fill: none; stroke: #f29888; stroke-width: 0.2"/>
    <path d="M 429.393443 542.138799 
L 424.438658 540.235635 
L 417.790973 536.659289 
L 411.835488 534.939594 
L 404.088829 535.444778 
" clip-path="url(#p611163f68a)" style="fill: none; stroke: #f29888; stroke-width: 0.2"/>
    <path d="M 349.646008 541.152978 
L 348.683765 536.521041 
L 348.3163 533.081651 
L 348.287245 528.073733 
L 346.178171 526.605984 
L 345.307366 525.229969 
L 345.491098 522.799656 
L 346.132879 518.856373 
L 347.562571 514.51902 
" clip-path="url(#p611163f68a)" style="fill: none; stroke: #f29888; stroke-width: 0.2"/>
    <path d="M 301.247547 503.103912 
L 301.06467 505.21251 
L 303.08145 507.368912 
L 307.115866 510.80701 
L 314.175453 518.419666 
" clip-path="url(#p611163f68a)" style="fill: none; stroke: #f29888; stroke-width: 0.2"/>
    <path d="M 398.412788 521.762154 
L 400.228745 514.619798 
L 401.966082 509.685526 
L 405.996225 499.050807 
L 408.845355 487.235169 
L 409.470044 478.339525 
L 409.261529 471.319913 
L 407.942076 466.733197 
L 405.71849 463.884266 
L 402.313891 461.868695 
L 399.742496 459.991372 
L 399.673276 456.517096 
L 399.395541 454.084199 
L 398.352968 450.540154 
L 402.80014 435.946647 
L 403.911933 433.646829 
" clip-path="url(#p611163f68a)" style="fill: none; stroke: #f29888; stroke-width: 0.2"/>
    <path d="M 249.76495 112.120663 
L 246.710724 128.776254 
L 246.160382 132.443042 
L 245.839065 134.551639 
L 246.344115 136.842413 
L 246.644923 137.405739 
L 247.810553 139.591858 
L 252.210724 144.283228 
L 253.312262 145.457686 
L 260.188117 152.424325 
L 268.164655 160.582218 
L 271.282119 163.790335 
L 274.308145 167.090186 
L 275.225096 169.015314 
L 275.958315 171.214354 
L 275.958315 173.506419 
L 275.576323 174.383709 
L 275.041364 175.615016 
L 273.207461 178.364462 
L 271.099242 181.205641 
L 269.448216 182.306453 
L 266.331606 182.855567 
L 262.02202 183.222504 
L 257.804727 183.497707 
L 253.12853 183.864644 
L 248.911237 184.964164 
L 245.151992 186.522355 
L 241.576479 188.630952 
L 239.027303 190.558664 
L 238.183844 191.196928 
L 235.250112 193.488994 
L 232.499258 195.78106 
L 229.932135 198.713974 
L 227.089842 202.380762 
L 226.03616 203.906652 
L 224.431281 206.231019 
L 221.405256 209.622604 
L 218.655256 212.922455 
L 217.005085 215.764927 
L 215.99584 219.431715 
L 216.046259 221.601037 
L 216.088133 223.372414 
L 216.912791 228.689128 
L 218.562962 235.932262 
L 219.938817 241.432444 
L 222.139329 248.215615 
L 224.52272 254.449672 
L 227.365013 261.59978 
L 228.557135 264.717454 
L 229.015184 266.642583 
L 228.923745 268.75118 
L 227.823916 271.226714 
L 225.073062 275.168705 
L 223.514329 277.91815 
L 222.4145 280.760622 
L 221.680426 283.419625 
L 221.405256 285.986894 
L 221.588988 289.011542 
L 222.139329 291.57881 
L 222.78111 293.870876 
L 223.880939 296.438144 
L 225.348232 298.179804 
L 227.182135 299.737996 
L 230.023574 301.57139 
L 233.0496 302.672201 
L 237.633503 303.49781 
L 243.501821 304.322127 
L 247.810553 304.964267 
L 247.261066 307.164598 
L 245.977505 310.00707 
L 244.876821 312.666073 
L 243.95987 315.87419 
L 243.318089 318.716661 
L 243.22665 322.108246 
L 239.834015 322.199981 
L 235.800454 322.383449 
L 232.31638 322.842121 
L 229.107477 324.126401 
L 225.89772 326.785404 
L 225.259357 327.280253 
L 222.230768 329.626584 
L 217.921182 333.569867 
L 214.162791 336.686249 
L 210.953034 339.712189 
L 208.844814 341.453849 
L 206.277692 343.013332 
L 204.077179 343.929383 
L 201.143447 344.112852 
L 196.742422 343.837649 
L 191.791055 343.472004 
L 186.106468 342.829864 
L 181.889175 342.921598 
L 179.046882 343.929383 
L 176.846369 345.672335 
L 171.088289 353.456831 
L 167.58627 358.600413 
L 166.027537 362.542404 
L 165.294318 365.293141 
L 164.468567 367.145286 
" clip-path="url(#p611163f68a)" style="fill: none; stroke: #f29888; stroke-width: 0.2"/>
    <path d="M 87.118434 225.470675 
L 85.064052 235.46713 
L 84.44449 237.889691 
L 84.404326 239.044768 
L 84.670951 239.89105 
L 85.264021 241.254144 
L 86.094661 242.767114 
L 87.945656 245.302082 
L 88.670329 246.405478 
L 89.158288 247.741439 
L 89.322365 249.392657 
L 89.115313 250.703822 
" clip-path="url(#p611163f68a)" style="fill: none; stroke: #f29888; stroke-width: 0.2"/>
    <path d="M 165.068712 355.96079 
L 163.372395 359.720605 
L 162.272565 362.333094 
L 161.76837 364.39647 
L 161.180763 365.943126 
" clip-path="url(#p611163f68a)" style="fill: none; stroke: #f29888; stroke-width: 0.2"/>
    <path d="M 125.745764 200.813526 
L 126.540512 201.50218 
L 128.688896 202.472496 
L 130.270702 203.274848 
L 133.776994 204.260669 
L 137.857557 205.47518 
L 141.822752 206.551443 
L 145.880241 207.857688 
L 150.051388 209.163933 
L 153.626901 210.126497 
L 157.936487 211.204052 
L 162.108488 212.281607 
L 166.325782 213.587852 
L 169.740636 214.779106 
L 174.096369 216.429031 
L 177.717174 217.781789 
L 181.201248 218.949787 
L 184.983566 220.394279 
L 188.169395 221.632046 
L 193.555738 223.670874 
L 194.241956 223.952537 
L 198.071275 225.527524 
L 201.028081 226.833769 
L 202.960259 227.696847 
L 204.466862 228.368704 
L 206.873326 229.469515 
L 209.99079 230.912716 
L 209.005473 233.868886 
L 207.836424 236.207465 
L 206.506716 239.003423 
L 205.131716 241.844603 
L 203.802008 243.816244 
L 202.793618 245.419657 
L 198.231934 243.517785 
L 193.830909 240.836817 
L 189.430738 238.177815 
L 185.419395 235.955519 
L 179.963833 232.380465 
L 176.3191 229.973408 
L 172.376978 228.04828 
L 168.571587 226.627044 
L 163.070732 224.56496 
L 161.077025 223.647617 
L 157.478439 222.341372 
L 152.573218 220.874915 
L 148.653315 219.637148 
L 145.398265 218.606106 
L 139.026606 216.727491 
L 134.396556 215.214521 
L 126.602896 212.945712 
L 119.634748 210.928849 
L 116.654869 209.921064 
L 114.959406 209.026977 
L 113.833085 208.554093 
" clip-path="url(#p611163f68a)" style="fill: none; stroke: #f29888; stroke-width: 0.2"/>
    <path d="M 198.276372 215.750714 
L 197.983255 216.356678 
L 197.06203 218.42393 
L 195.320421 221.998983 
L 194.241956 223.952537 
" clip-path="url(#p611163f68a)" style="fill: none; stroke: #f29888; stroke-width: 0.2"/>
    <path d="M 47.62058 217.346374 
L 48.595361 217.346374 
" clip-path="url(#p611163f68a)" style="fill: none; stroke: #f29888; stroke-width: 0.2"/>
    <path d="M 180.556049 205.937727 
L 180.297115 206.638009 
L 179.825393 207.973971 
L 181.337978 208.8448 
L 185.785151 210.723416 
L 190.140029 212.373341 
L 195.503298 214.665407 
L 198.276372 215.750714 
L 198.666909 215.903174 
L 201.69208 216.865738 
L 204.351496 217.277897 
L 206.734886 217.506586 
L 209.072984 217.5531 
L 210.631716 216.817933 
" clip-path="url(#p611163f68a)" style="fill: none; stroke: #f29888; stroke-width: 0.2"/>
    <path d="M 368.571272 422.530181 
L 380.462586 425.952775 
L 401.00042 432.279858 
L 403.911933 433.646829 
L 405.492884 434.389748 
L 418.329351 440.074691 
L 424.662554 443.130347 
L 426.122157 443.834505 
L 437.674207 449.52074 
L 438.433918 449.178352 
L 439.50811 448.695131 
L 441.800062 445.669191 
L 443.083623 439.982956 
L 443.817697 432.555061 
L 443.175916 421.001707 
L 443.175916 416.416283 
L 444.367184 412.931672 
" clip-path="url(#p611163f68a)" style="fill: none; stroke: #f29888; stroke-width: 0.2"/>
    <path d="M 327.922034 494.678569 
L 324.43796 491.102223 
L 326.363302 485.415987 
L 328.838131 478.951949 
L 330.534449 476.338167 
L 333.789498 473.953075 
L 337.777767 470.606711 
L 341.124256 466.663428 
L 343.737525 461.894536 
L 351.667916 445.662731 
L 354.372624 440.389947 
L 358.453186 433.925908 
L 360.882723 430.578252 
L 366.979212 424.29639 
L 368.571272 422.530181 
L 375.323214 415.035101 
L 379.036312 410.909641 
L 379.036312 409.671874 
L 377.523727 408.799752 
L 364.183065 403.618701 
L 351.943087 399.446728 
L 347.634355 397.5216 
L 330.763473 389.819794 
L 310.868274 381.475848 
L 293.310319 374.369669 
L 286.388318 372.25978 
L 272.13156 368.638213 
L 266.675997 367.446959 
" clip-path="url(#p611163f68a)" style="fill: none; stroke: #f29888; stroke-width: 0.2"/>
    <path d="M 258.401215 363.755622 
L 260.235118 368.706691 
L 260.281265 372.283037 
L 260.143679 378.977057 
L 259.501899 387.457959 
L 258.997704 393.418105 
L 258.218337 399.333029 
L 257.53041 404.604522 
L 256.017825 415.378781 
L 254.137775 426.749959 
L 253.175531 434.039607 
L 253.358409 434.911729 
L 269.816535 448.29977 
L 272.887852 449.904474 
L 281.735195 452.700432 
L 288.932367 455.177259 
L 290.078343 456.918918 
L 289.986904 459.074029 
L 288.199148 462.466906 
L 281.414732 473.839376 
L 279.626121 474.251535 
L 277.058999 473.28897 
L 255.238459 457.424103 
L 242.264407 447.244179 
L 236.672114 441.42228 
L 227.457306 431.06018 
L 224.798745 427.300365 
L 222.598232 423.220126 
L 219.6645 415.287047 
L 215.905256 406.484429 
L 213.016816 401.395113 
L 208.203888 394.747606 
L 203.298668 390.255209 
L 199.310399 387.0458 
L 191.562885 382.50689 
L 182.348078 377.417574 
L 176.159296 373.20038 
L 169.879076 368.341046 
L 165.294318 365.293141 
" clip-path="url(#p611163f68a)" style="fill: none; stroke: #f29888; stroke-width: 0.2"/>
    <path d="M 455.186016 392.438744 
L 434.373866 384.186532 
L 414.936716 375.842586 
L 407.143055 372.816646 
L 405.492884 370.98196 
L 406.043226 365.205283 
L 407.510519 359.887277 
L 411.91069 350.535546 
" clip-path="url(#p611163f68a)" style="fill: none; stroke: #f29888; stroke-width: 0.2"/>
    <path d="M 266.675997 367.446959 
L 263.810631 366.828076 
L 260.78546 365.63553 
L 258.401215 363.755622 
L 256.384434 360.547506 
L 253.954898 355.182987 
L 252.808922 350.552342 
L 251.214298 343.390606 
" clip-path="url(#p611163f68a)" style="fill: none; stroke: #f29888; stroke-width: 0.2"/>
    <path d="M 422.707303 336.550586 
L 420.07096 343.337633 
L 413.011374 343.70457 
L 393.390492 340.404719 
L 376.704196 337.011841 
L 366.343413 335.820587 
L 358.091704 333.710698 
L 354.997313 333.733955 
L 352.567776 332.954859 
L 352.157584 331.332066 
" clip-path="url(#p611163f68a)" style="fill: none; stroke: #f29888; stroke-width: 0.2"/>
    <path d="M 402.222452 291.660208 
L 457.947125 311.744854 
L 458.239387 313.111824 
L 460.842401 313.418036 
L 482.683451 321.166355 
L 503.25034 328.463754 
L 512.923196 331.511659 
L 507.165971 347.637517 
L 501.254069 364.196205 
L 491.760673 362.007502 
L 490.891577 361.807237 
L 483.812336 359.190871 
L 463.622311 351.730676 
L 433.34582 339.64888 
L 422.707303 336.550586 
L 393.994671 328.187259 
L 374.749799 328.139454 
L 364.53002 325.512752 
L 355.504072 321.596601 
" clip-path="url(#p611163f68a)" style="fill: none; stroke: #f29888; stroke-width: 0.2"/>
    <path d="M 355.981776 319.256731 
L 339.267279 318.969899 
L 320.929104 321.167647 
L 302.303793 322.218069 
L 294.567389 323.888667 
L 290.938039 326.515369 
L 288.550375 329.667929 
L 283.393057 330.957377 
L 282.103514 334.108644 
" clip-path="url(#p611163f68a)" style="fill: none; stroke: #f29888; stroke-width: 0.2"/>
    <path d="M 342.596676 300.889196 
L 350.161313 303.363439 
L 363.252441 307.552208 
L 369.13956 309.644009 
L 382.57166 313.173842 
L 389.219345 314.87028 
L 406.868739 318.3536 
L 437.399891 327.797066 
L 453.352967 331.281677 
L 456.066221 321.13147 
L 458.239387 313.111824 
L 462.311404 303.169634 
" clip-path="url(#p611163f68a)" style="fill: none; stroke: #f29888; stroke-width: 0.2"/>
    <path d="M 376.146163 282.785237 
L 371.499022 294.740414 
L 363.252441 307.552208 
L 359.858096 312.826285 
L 355.981776 319.256731 
L 355.620293 319.870446 
L 355.504072 321.596601 
L 352.157584 331.332066 
L 349.232397 333.122824 
L 331.563349 336.584179 
L 308.998479 335.868393 
L 283.393057 330.957377 
L 275.390028 332.107286 
L 251.214298 343.390606 
" clip-path="url(#p611163f68a)" style="fill: none; stroke: #f29888; stroke-width: 0.2"/>
    <path d="M 467.563579 325.780203 
L 456.066221 321.13147 
L 445.6516 317.25408 
L 428.322669 311.936074 
L 409.068397 305.610283 
L 397.516346 302.035229 
L 371.499022 294.740414 
L 363.225949 292.316561 
L 340.579896 287.732429 
L 337.187261 285.99077 
" clip-path="url(#p611163f68a)" style="fill: none; stroke: #f29888; stroke-width: 0.2"/>
    <path d="M 396.079817 289.356514 
L 401.643055 291.974172 
L 402.222452 291.660208 
L 403.31459 291.067165 
L 405.601414 283.236156 
" clip-path="url(#p611163f68a)" style="fill: none; stroke: #f29888; stroke-width: 0.2"/>
    <path d="M 411.133033 268.67495 
L 457.677936 283.69612 
L 459.007644 285.207798 
L 454.057986 300.285817 
" clip-path="url(#p611163f68a)" style="fill: none; stroke: #f29888; stroke-width: 0.2"/>
    <path d="M 405.601414 283.236156 
L 411.133033 268.67495 
" clip-path="url(#p611163f68a)" style="fill: none; stroke: #f29888; stroke-width: 0.2"/>
    <path d="M 399.733096 280.715401 
L 396.079817 289.356514 
L 376.146163 282.785237 
L 316.344346 261.466701 
" clip-path="url(#p611163f68a)" style="fill: none; stroke: #f29888; stroke-width: 0.2"/>
    <path d="M 411.133033 268.67495 
L 410.64422 268.52249 
L 404.775902 266.550848 
L 399.733096 280.715401 
L 405.601414 283.236156 
" clip-path="url(#p611163f68a)" style="fill: none; stroke: #f29888; stroke-width: 0.2"/>
    <path d="M 411.133033 268.67495 
L 413.359183 261.757408 
" clip-path="url(#p611163f68a)" style="fill: none; stroke: #f29888; stroke-width: 0.2"/>
    <path d="M 430.952175 252.158898 
L 435.07803 242.808459 
L 435.893288 241.901452 
L 439.009043 238.433637 
" clip-path="url(#p611163f68a)" style="fill: none; stroke: #f29888; stroke-width: 0.2"/>
    <path d="M 316.344346 261.466701 
L 260.096678 235.597626 
L 224.419317 222.371089 
L 216.046259 221.601037 
" clip-path="url(#p611163f68a)" style="fill: none; stroke: #f29888; stroke-width: 0.2"/>
    <path d="M 386.530874 225.940975 
L 402.48395 232.083297 
L 419.358251 237.923284 
" clip-path="url(#p611163f68a)" style="fill: none; stroke: #f29888; stroke-width: 0.2"/>
    <path d="M 424.789885 222.386593 
L 435.628371 226.169664 
L 441.633421 228.003059 
L 446.997545 230.202098 
L 452.063424 232.279686 
L 457.173741 234.374071 
L 462.474626 236.256562 
L 468.079738 238.246292 
L 473.993349 240.347137 
L 484.771161 244.641853 
L 498.936481 249.408161 
" clip-path="url(#p611163f68a)" style="fill: none; stroke: #f29888; stroke-width: 0.2"/>
    <path d="M 448.346053 241.312285 
L 452.063424 232.279686 
L 455.487678 222.430522 
" clip-path="url(#p611163f68a)" style="fill: none; stroke: #f29888; stroke-width: 0.2"/>
    <path d="M 442.741796 239.584838 
L 446.997545 230.202098 
L 450.35087 220.486013 
" clip-path="url(#p611163f68a)" style="fill: none; stroke: #f29888; stroke-width: 0.2"/>
    <path d="M 437.416128 237.903904 
L 441.633421 228.003059 
L 445.071348 218.469151 
" clip-path="url(#p611163f68a)" style="fill: none; stroke: #f29888; stroke-width: 0.2"/>
    <path d="M 428.359416 212.419854 
L 439.386762 216.361846 
L 445.071348 218.469151 
L 450.35087 220.486013 
L 454.194717 221.953762 
L 455.487678 222.430522 
L 460.890257 224.420252 
L 464.303402 225.678692 
L 466.03903 226.318248 
L 467.625963 226.903539 
L 471.771472 228.549588 
L 477.207379 230.707283 
L 487.934772 234.741008 
L 502.007798 239.782519 
" clip-path="url(#p611163f68a)" style="fill: none; stroke: #f29888; stroke-width: 0.2"/>
    <path d="M 431.887073 235.822439 
L 435.628371 226.169664 
L 439.386762 216.361846 
" clip-path="url(#p611163f68a)" style="fill: none; stroke: #f29888; stroke-width: 0.2"/>
    <path d="M 502.007798 239.782519 
L 503.154629 233.549754 
L 503.750263 229.836453 
L 507.922264 218.974335 
L 510.901288 210.311257 
" clip-path="url(#p611163f68a)" style="fill: none; stroke: #f29888; stroke-width: 0.2"/>
    <path d="M 467.973772 215.388945 
L 473.402842 217.855435 
L 483.533747 222.457655 
L 484.561792 223.010645 
L 490.998398 226.475876 
" clip-path="url(#p611163f68a)" style="fill: none; stroke: #f29888; stroke-width: 0.2"/>
    <path d="M 482.47921 252.297146 
L 484.771161 244.641853 
L 487.934772 234.741008 
L 490.998398 226.475876 
L 498.707457 205.681905 
L 507.923973 180.984703 
" clip-path="url(#p611163f68a)" style="fill: none; stroke: #f29888; stroke-width: 0.2"/>
    <path d="M 473.402842 217.855435 
L 476.198989 209.577383 
L 477.115941 208.981756 
L 487.292991 212.878526 
L 487.842479 214.023267 
L 484.561792 223.010645 
" clip-path="url(#p611163f68a)" style="fill: none; stroke: #f29888; stroke-width: 0.2"/>
    <path d="M 211.502521 222.088134 
L 211.210259 222.778079 
L 210.723155 223.921528 
L 209.943789 225.251029 
L 208.797813 226.260107 
L 207.69713 227.039202 
L 206.046959 227.726564 
L 204.213056 227.818298 
L 202.960259 227.696847 
" clip-path="url(#p611163f68a)" style="fill: none; stroke: #f29888; stroke-width: 0.2"/>
    <path d="M 214.00726 215.518148 
L 212.648497 218.239169 
L 212.052863 219.889094 
L 211.502521 222.088134 
L 211.364936 224.288465 
L 211.089765 226.488796 
L 210.539423 228.872596 
L 209.99079 230.912716 
" clip-path="url(#p611163f68a)" style="fill: none; stroke: #f29888; stroke-width: 0.2"/>
    <path d="M 413.359183 261.757408 
L 414.190678 256.852852 
L 415.211032 252.94833 
L 416.236514 246.840893 
L 419.358251 237.923284 
L 419.812026 236.481376 
L 420.781961 233.857258 
L 423.204661 226.947468 
L 423.723384 225.45517 
L 424.789885 222.386593 
L 426.963906 216.130572 
L 428.359416 212.419854 
L 431.324767 204.139218 
L 432.098151 202.013825 
L 438.648415 183.876272 
L 439.166283 182.4447 
L 439.249176 182.214718 
L 441.182209 176.975527 
L 444.414185 168.212962 
L 445.301227 165.807198 
L 445.657582 164.747731 
L 447.494049 159.283725 
" clip-path="url(#p611163f68a)" style="fill: none; stroke: #f29888; stroke-width: 0.2"/>
    <path d="M 278.936485 195.414123 
L 277.168384 196.396067 
L 275.977116 198.41293 
L 274.967871 205.012632 
L 276.710335 207.855104 
L 280.10297 208.862889 
L 287.712899 209.138092 
L 292.11307 208.954623 
L 294.680192 204.920898 
L 295.610817 202.314868 
" clip-path="url(#p611163f68a)" style="fill: none; stroke: #f29888; stroke-width: 0.2"/>
    <path d="M 241.576479 188.630952 
L 248.195964 189.796365 
L 257.823527 191.262822 
L 265.432601 192.729279 
L 277.168384 196.396067 
" clip-path="url(#p611163f68a)" style="fill: none; stroke: #f29888; stroke-width: 0.2"/>
    <path d="M 229.932135 198.713974 
L 225.641349 193.554888 
L 213.722689 189.245959 
L 195.110197 184.02098 
" clip-path="url(#p611163f68a)" style="fill: none; stroke: #f29888; stroke-width: 0.2"/>
    <path d="M 251.574926 112.355813 
L 251.052784 115.247381 
L 248.72665 127.950645 
L 248.267747 131.158762 
L 248.267747 134.687303 
L 249.09326 137.071103 
L 249.964065 138.857984 
L 251.293773 140.55313 
L 254.548822 144.266432 
L 257.711579 147.428035 
L 261.241799 151.094823 
L 267.980068 158.060171 
L 273.298045 163.468619 
L 277.241022 167.731034 
L 279.211656 170.297011 
L 280.495217 172.680811 
L 281.414732 174.626612 
L 281.595901 175.018097 
L 282.282973 177.767543 
L 282.375267 179.188778 
L 282.191535 181.38911 
L 281.641193 183.588149 
L 279.028778 192.983809 
L 278.891193 194.359824 
L 278.936485 195.414123 
L 279.486827 196.284952 
L 280.449925 196.834066 
L 289.343415 200.225652 
L 293.469269 201.600374 
L 295.610817 202.314868 
L 297.457538 202.929876 
L 302.225173 204.855004 
L 319.919859 211.362972 
L 349.946816 222.226381 
L 373.280796 230.981193 
L 377.253683 232.432146 
L 401.519997 241.294197 
L 416.236514 246.840893 
L 430.952175 252.158898 
L 459.374254 262.610149 
L 465.463905 264.86087 
" clip-path="url(#p611163f68a)" style="fill: none; stroke: #f29888; stroke-width: 0.2"/>
    <path d="M 239.027303 190.558664 
L 236.002132 186.955186 
L 233.343571 183.929246 
L 212.530566 176.505227 
L 204.829199 173.662755 
L 200.794784 172.838439 
L 182.457463 167.42999 
" clip-path="url(#p611163f68a)" style="fill: none; stroke: #f29888; stroke-width: 0.2"/>
    <path d="M 281.414732 174.626612 
L 279.44068 173.092969 
L 278.43229 172.817766 
L 277.286314 173.139482 
L 275.576323 174.383709 
" clip-path="url(#p611163f68a)" style="fill: none; stroke: #f29888; stroke-width: 0.2"/>
    <path d="M 275.958315 173.506419 
L 271.851261 172.518014 
L 265.570186 171.188513 
L 260.802551 169.905525 
L 258.006405 169.492074 
L 254.018136 170.317683 
L 251.404867 171.096779 
L 246.912402 170.409417 
L 238.844425 168.347334 
L 233.205986 166.902841 
L 223.808301 165.504862 
L 218.2613 163.993184 
L 208.221834 161.9311 
" clip-path="url(#p611163f68a)" style="fill: none; stroke: #f29888; stroke-width: 0.2"/>
    <path d="M 106.339378 207.008822 
L 104.017517 206.650929 
L 103.666289 206.631549 
L 102.99289 206.59408 
L 102.606625 206.572115 
L 101.823841 206.467461 
L 101.630708 209.13034 
L 101.237607 210.047683 
L 100.74794 210.424956 
L 97.905646 211.869449 
L 96.729761 212.273855 
L 96.030724 212.789376 
L 94.900985 214.2287 
L 94.424136 214.839831 
" clip-path="url(#p611163f68a)" style="fill: none; stroke: #f29888; stroke-width: 0.2"/>
    <path d="M 120.190217 205.349853 
L 119.862917 205.588879 
L 118.625503 206.551443 
L 117.295795 207.284025 
L 116.058381 207.879652 
L 114.453502 208.430058 
L 113.833085 208.554093 
L 113.078502 208.705261 
L 112.513632 208.665208 
L 111.840233 208.521792 
L 110.556671 208.201368 
L 107.760525 207.100557 
L 106.339378 207.008822 
" clip-path="url(#p611163f68a)" style="fill: none; stroke: #f29888; stroke-width: 0.2"/>
    <path d="M 218.655256 212.922455 
L 214.00726 215.518148 
L 212.281887 216.405775 
L 210.631716 216.817933 
L 209.484886 216.863154 
L 200.31708 213.518082 
L 193.486518 210.859079 
L 191.744053 210.171718 
L 186.563662 207.697476 
L 180.556049 205.937727 
L 180.145856 205.817568 
L 171.756562 203.572016 
L 164.467951 202.289028 
L 155.757339 200.363899 
L 151.173436 199.263087 
L 148.017516 198.363833 
L 141.362995 196.467129 
L 136.916677 195.414123 
L 135.174213 195.367609 
L 132.102895 196.101484 
L 131.420096 196.600208 
L 129.719505 197.843144 
L 125.745764 200.813526 
L 124.080211 202.059046 
L 122.502678 203.689591 
L 120.190217 205.349853 
" clip-path="url(#p611163f68a)" style="fill: none; stroke: #f29888; stroke-width: 0.2"/>
    <path d="M 125.550922 189.774401 
L 125.467175 190.171055 
L 124.653626 193.421808 
L 123.828968 197.180331 
L 122.502678 203.689591 
" clip-path="url(#p611163f68a)" style="fill: none; stroke: #f29888; stroke-width: 0.2"/>
    <path d="M 121.375503 150.040525 
L 117.891429 153.477331 
L 114.224478 157.281075 
L 112.574307 159.940078 
L 111.107013 161.084819 
L 106.981159 162.506055 
L 105.055817 163.789043 
L 103.039036 165.851127 
L 101.25128 168.097971 
L 99.73784 171.306088 
L 100.242035 174.514205 
L 100.753922 177.752038 
L 100.929963 178.868354 
L 101.938353 181.617799 
L 101.893061 183.039035 
L 101.525596 184.597226 
L 98.684158 192.296448 
L 97.537327 199.034398 
L 96.575084 203.068123 
L 95.887157 207.008822 
L 95.933303 208.613527 
L 95.016352 211.042548 
L 94.424136 214.839831 
L 94.073763 215.943227 
L 93.682371 216.759792 
L 91.710883 219.219822 
L 89.788104 221.956346 
L 87.929419 224.502942 
L 87.118434 225.470675 
" clip-path="url(#p611163f68a)" style="fill: none; stroke: #f29888; stroke-width: 0.2"/>
    <path d="M 130.727895 163.604282 
L 130.267283 163.623663 
L 126.716553 165.677994 
L 122.641118 168.400307 
L 118.831454 171.819025 
L 116.172893 174.660204 
L 113.909142 178.316656 
L 113.788648 178.510461 
L 111.863306 183.093301 
L 110.763477 188.31828 
L 110.213135 193.543259 
L 110.304574 197.760454 
L 110.946355 202.159824 
L 111.863306 205.918347 
L 112.513632 208.665208 
" clip-path="url(#p611163f68a)" style="fill: none; stroke: #f29888; stroke-width: 0.2"/>
    <path d="M 149.88902 172.42628 
L 149.748016 172.9095 
L 148.468728 176.532359 
L 149.385679 179.648742 
L 150.02746 181.115199 
L 150.256484 182.811637 
L 150.256484 185.102411 
L 150.165046 189.089623 
L 149.477973 192.527722 
L 148.28585 197.432277 
L 148.017516 198.363833 
" clip-path="url(#p611163f68a)" style="fill: none; stroke: #f29888; stroke-width: 0.2"/>
    <path d="M 130.727895 163.604282 
L 132.068713 164.130139 
L 138.429263 166.62893 
L 149.88902 172.42628 
L 153.649119 174.328152 
L 168.868976 180.744385 
L 182.712978 186.336302 
L 195.916055 191.561282 
L 209.85235 196.877995 
L 221.49584 201.552569 
L 226.03616 203.906652 
" clip-path="url(#p611163f68a)" style="fill: none; stroke: #f29888; stroke-width: 0.2"/>
    <path d="M 131.420096 196.600208 
L 131.067159 196.197094 
L 130.385214 195.597591 
L 129.445189 194.68154 
L 128.413725 193.787454 
L 127.244676 192.756412 
L 126.259359 191.839069 
L 125.685944 190.968239 
L 125.550922 189.774401 
L 125.846603 188.058581 
L 126.694334 184.552005 
L 127.267749 182.283196 
L 127.672815 180.757306 
L 128.070189 179.258548 
L 128.91792 176.394112 
L 129.674213 173.437942 
L 130.339067 171.054142 
L 131.187653 167.82406 
L 131.668775 165.73872 
L 132.068713 164.130139 
" clip-path="url(#p611163f68a)" style="fill: none; stroke: #f29888; stroke-width: 0.2"/>
    <path d="M 113.909142 178.316656 
L 114.243278 178.301152 
L 116.883893 178.135772 
L 120.917454 178.686178 
L 127.672815 180.757306 
" clip-path="url(#p611163f68a)" style="fill: none; stroke: #f29888; stroke-width: 0.2"/>
    <path d="M 464.303402 225.678692 
L 467.973772 215.388945 
L 472.990086 201.327755 
L 475.098305 196.928385 
" clip-path="url(#p611163f68a)" style="fill: none; stroke: #f29888; stroke-width: 0.2"/>
    <path d="M 475.098305 196.928385 
L 498.707457 205.681905 
L 510.901288 210.311257 
" clip-path="url(#p611163f68a)" style="fill: none; stroke: #f29888; stroke-width: 0.2"/>
    <path d="M 438.648415 183.876272 
L 449.105764 187.394477 
L 475.098305 196.928385 
" clip-path="url(#p611163f68a)" style="fill: none; stroke: #f29888; stroke-width: 0.2"/>
    <path d="M 444.414185 168.212962 
L 443.970665 168.007529 
L 439.569639 166.082401 
L 436.589761 175.065903 
L 441.182209 176.975527 
" clip-path="url(#p611163f68a)" style="fill: none; stroke: #f29888; stroke-width: 0.2"/>
    <path d="M 445.657582 164.747731 
L 444.887616 164.387254 
L 441.632567 163.057752 
L 438.057054 161.591296 
L 434.93959 160.400042 
L 433.472296 159.896149 
L 432.647638 162.32517 
L 438.423664 164.845925 
" clip-path="url(#p611163f68a)" style="fill: none; stroke: #f29888; stroke-width: 0.2"/>
    <path d="M 468.332562 95.360274 
L 468.210487 97.087865 
L 469.173585 99.655133 
L 475.270074 108.957767 
" clip-path="url(#p611163f68a)" style="fill: none; stroke: #f29888; stroke-width: 0.2"/>
    <path d="M 523.141266 279.387191 
L 520.592944 258.227575 
L 517.915583 244.321429 
" clip-path="url(#p611163f68a)" style="fill: none; stroke: #f29888; stroke-width: 0.2"/>
    <path d="M 552.223926 239.434962 
L 537.187801 236.500756 
L 534.620679 237.051162 
L 534.52924 241.084888 
L 536.454582 256.027244 
L 540.213826 278.212734 
L 541.588826 279.863951 
" clip-path="url(#p611163f68a)" style="fill: none; stroke: #f29888; stroke-width: 0.2"/>
    <path d="M 536.454582 256.027244 
L 520.592944 258.227575 
" clip-path="url(#p611163f68a)" style="fill: none; stroke: #f29888; stroke-width: 0.2"/>
    <path d="M 564.456212 217.471702 
L 562.584708 223.209618 
L 561.576318 226.050797 
L 553.416048 238.792822 
L 552.223926 239.434962 
L 552.865706 247.685882 
L 553.507487 254.377318 
L 557.175293 275.738492 
L 552.865706 277.02148 
L 544.247387 278.212734 
L 541.588826 279.863951 
L 540.671875 281.605611 
L 542.322046 289.122656 
L 548.832145 294.807599 
" clip-path="url(#p611163f68a)" style="fill: none; stroke: #f29888; stroke-width: 0.2"/>
    <path d="M 686.982469 188.081838 
L 688.652295 181.203057 
L 689.935856 176.618926 
L 693.327636 172.127821 
L 696.353662 162.962142 
L 699.471126 156.911554 
L 705.613761 151.13746 
L 714.415812 143.988645 
L 717.899886 139.130602 
L 718.815983 133.63042 
L 717.807592 129.689721 
L 716.682126 128.072096 
L 716.341154 127.581124 
L 714.045009 126.296028 
" clip-path="url(#p611163f68a)" style="fill: none; stroke: #f29888; stroke-width: 0.2"/>
    <path d="M 714.266347 116.674543 
L 715.36011 119.500752 
L 716.827403 124.587484 
L 716.682126 128.072096 
" clip-path="url(#p611163f68a)" style="fill: none; stroke: #f29888; stroke-width: 0.2"/>
    <path d="M 483.373942 93.990863 
L 485.849626 88.583707 
L 487.049025 86.151691 
" clip-path="url(#p611163f68a)" style="fill: none; stroke: #f29888; stroke-width: 0.2"/>
    <path d="M 743.613838 167.166416 
L 744.860355 169.483124 
" clip-path="url(#p611163f68a)" style="fill: none; stroke: #f29888; stroke-width: 0.2"/>
    <path d="M 507.923973 180.984703 
L 508.470897 179.648742 
L 511.405483 172.132989 
L 513.605141 165.990666 
L 515.805654 159.574433 
L 516.355996 157.741039 
L 531.117804 163.332955 
L 544.411465 168.007529 
L 554.95598 171.490849 
L 562.932518 174.423762 
L 572.008885 177.448411 
L 581.910765 180.656527 
L 584.786386 181.523481 
L 595.296718 184.690253 
L 603.090379 186.982318 
L 609.379145 188.845429 
L 612.992259 189.915232 
L 617.209552 191.289955 
L 632.429409 190.923018 
L 644.990704 190.190435 
L 665.711416 189.456561 
L 682.856614 188.723978 
L 684.493112 188.469448 
L 686.982469 188.081838 
L 696.242568 186.523647 
L 700.001813 185.148924 
L 713.112596 178.090551 
L 722.831598 172.865571 
L 729.157111 169.749189 
L 732.458307 167.915795 
L 736.950771 166.999744 
L 743.613838 167.166416 
L 744.285529 167.183212 
L 750.794773 167.365389 
L 753.72936 166.541072 
L 758.588434 163.699893 
L 759.688263 163.149487 
L 766.38124 163.42469 
L 770.415656 163.699893 
L 772.982778 164.524209 
L 798.104515 181.390402 
L 799.846979 182.21601 
L 806.131374 182.109438 
" clip-path="url(#p611163f68a)" style="fill: none; stroke: #f29888; stroke-width: 0.2"/>
    <path d="M 722.449606 103.603584 
L 720.576393 105.606235 
" clip-path="url(#p611163f68a)" style="fill: none; stroke: #f29888; stroke-width: 0.2"/>
    <path d="M 720.576393 105.606235 
L 718.301533 108.530104 
" clip-path="url(#p611163f68a)" style="fill: none; stroke: #f29888; stroke-width: 0.2"/>
    <path d="M 718.301533 108.530104 
L 716.850476 110.490118 
" clip-path="url(#p611163f68a)" style="fill: none; stroke: #f29888; stroke-width: 0.2"/>
    <path d="M 716.850476 110.490118 
L 715.53786 112.262786 
" clip-path="url(#p611163f68a)" style="fill: none; stroke: #f29888; stroke-width: 0.2"/>
    <path d="M 715.53786 112.262786 
L 714.372229 115.412762 
" clip-path="url(#p611163f68a)" style="fill: none; stroke: #f29888; stroke-width: 0.2"/>
    <path d="M 246.644923 137.405739 
L 244.666598 140.184901 
L 243.408673 141.838703 
L 238.982011 149.854472 
L 236.048279 153.154323 
L 235.039034 157.828897 
L 233.205986 166.902841 
" clip-path="url(#p611163f68a)" style="fill: none; stroke: #f29888; stroke-width: 0.2"/>
    <path d="M 219.226216 104.714644 
L 220.492577 105.236714 
L 227.106079 107.311718 
L 237.135289 109.718774 
L 248.039578 111.902309 
L 249.76495 112.120663 
L 251.574926 112.355813 
L 253.872004 112.636184 
L 257.065525 112.873918 
L 260.546181 112.932059 
L 265.643679 112.854537 
L 274.351727 112.319636 
L 285.922579 111.727885 
L 298.115556 110.975922 
L 303.432678 110.598648 
L 308.495139 110.527587 
L 312.5193 111.05732 
L 318.551696 112.554786 
L 324.799443 114.968302 
L 328.035692 116.21899 
L 345.91411 122.543489 
L 356.182599 126.210277 
L 368.193553 130.242711 
L 370.254771 131.01147 
L 382.422965 135.55038 
L 394.96546 140.417467 
L 401.933608 142.799975 
L 408.168537 145.000306 
L 417.428636 148.390599 
L 424.257489 150.851921 
L 425.313735 151.233071 
L 431.77427 153.606535 
L 442.275202 157.465836 
L 447.494049 159.283725 
L 452.26852 160.949155 
L 462.537864 164.522917 
L 478.318318 170.196232 
L 481.149502 171.214354 
L 491.000962 174.788116 
L 495.651521 176.461298 
" clip-path="url(#p611163f68a)" style="fill: none; stroke: #f29888; stroke-width: 0.5"/>
    <path d="M 252.210724 144.283228 
L 251.339919 144.084255 
L 243.408673 141.838703 
L 239.375112 140.647449 
L 236.395233 139.546637 
L 231.856623 137.988446 
L 227.27272 137.164129 
L 219.570498 138.034959 
L 214.253376 137.714535 
L 207.285228 137.806269 
L 197.337201 138.126693 
L 187.848078 137.85149 
L 177.99149 136.705457 
L 168.915123 135.514203 
L 163.550999 134.735108 
L 161.212901 134.459905 
L 161.396633 130.702674 
L 164.605536 124.469909 
L 167.172659 117.411536 
L 169.281733 112.050893 
L 177.120685 101.602226 
L 181.655878 94.378472 
" clip-path="url(#p611163f68a)" style="fill: none; stroke: #f29888; stroke-width: 0.2"/>
    <path d="M 251.052784 115.247381 
L 254.7317 115.623363 
L 260.546181 112.932059 
" clip-path="url(#p611163f68a)" style="fill: none; stroke: #f29888; stroke-width: 0.2"/>
    <path d="M 246.344115 136.842413 
L 245.242576 136.156344 
L 241.575625 132.764758 
L 237.312185 128.86928 
L 233.323916 125.385961 
L 230.344037 123.278656 
L 224.705597 120.390963 
L 218.01262 117.27458 
L 211.823839 114.296446 
L 205.084715 111.225284 
L 201.371617 109.483624 
L 197.42864 107.925433 
L 193.348932 106.322021 
L 191.744053 105.496412 
L 187.114004 101.463979 
L 185.005784 99.218426 
L 182.346369 95.736399 
L 181.655878 94.378472 
L 181.017515 93.123909 
L 180.253685 92.064895 
" clip-path="url(#p611163f68a)" style="fill: none; stroke: #f29888; stroke-width: 0.2"/>
    <path d="M 220.695527 102.663765 
L 224.430426 104.443406 
L 236.120063 107.284585 
L 244.096601 107.376319 
L 249.918773 109.575359 
L 251.202334 110.170986 
L 251.574926 112.355813 
" clip-path="url(#p611163f68a)" style="fill: none; stroke: #f29888; stroke-width: 0.2"/>
    <path d="M 324.799443 114.968302 
L 331.068554 106.315561 
L 356.778233 69.710988 
L 361.214821 63.2062 
" clip-path="url(#p611163f68a)" style="fill: none; stroke: #f29888; stroke-width: 0.2"/>
    <path d="M 370.254771 131.01147 
L 374.383189 128.181919 
L 382.148649 106.638569 
L 385.8156 95.73123 
L 390.858406 82.167473 
L 392.875187 78.13504 
L 395.2948 72.652374 
" clip-path="url(#p611163f68a)" style="fill: none; stroke: #f29888; stroke-width: 0.2"/>
   </g>
   <g id="LineCollection_2">
    <path d="M 173.972528 90.101473 
L 165.95319 105.054537 
L 161.735897 113.004413 
L 157.586114 120.407759 
L 154.571198 125.424722 
L 151.547737 129.614783 
L 147.559468 134.542595 
L 140.92802 141.628101 
L 130.435633 152.346803 
L 121.912172 161.325137 
L 119.256174 164.309732 
L 116.792454 167.511388 
L 114.683381 170.609682 
L 112.526451 174.105922 
L 110.872007 177.239101 
L 109.348312 180.184935 
L 106.708552 186.720036 
L 105.333552 190.981159 
L 104.291833 195.55237 
L 103.580833 200.124873 
L 103.267206 202.604283 
L 103.073219 205.128915 
L 102.99289 206.59408 
L 102.905724 208.193616 
L 102.869832 211.683396 
L 102.945889 215.204185 
L 103.250115 219.151344 
L 103.53554 221.706984 
L 104.084173 224.714836 
L 104.815683 228.331235 
L 106.152228 232.89857 
L 107.519537 236.968472 
L 109.185944 241.398852 
L 110.974555 245.605709 
L 112.661473 249.994744 
L 114.145003 253.693833 
L 115.629387 258.144885 
L 116.543775 261.315533 
L 117.316305 264.566287 
L 117.852119 268.054774 
L 118.291367 272.33011 
L 118.555428 276.739817 
L 118.515264 280.98802 
L 118.471492 282.009468 
" clip-path="url(#p611163f68a)" style="fill: none; stroke-dasharray: 3.7,1.6; stroke-dashoffset: 0; stroke: #f29888"/>
    <path d="M 336.46686 235.318547 
L 342.118118 237.306985 
L 355.610893 240.645597 
L 378.066378 246.066965 
L 391.668537 249.288002 
" clip-path="url(#p611163f68a)" style="fill: none; stroke-dasharray: 3.7,1.6; stroke-dashoffset: 0; stroke: #f29888"/>
    <path d="M 270.277147 219.690121 
L 292.41815 225.027508 
L 318.84994 231.234432 
L 336.46686 235.318547 
L 377.81428 245.247816 
" clip-path="url(#p611163f68a)" style="fill: none; stroke-dasharray: 3.7,1.6; stroke-dashoffset: 0; stroke: #f29888"/>
    <path d="M 254.549677 215.816608 
L 260.005239 216.544022 
L 262.274972 216.727491 
L 266.125656 216.797261 
L 268.555192 217.140941 
L 271.970046 217.873524 
L 278.846755 218.148727 
L 283.61439 218.332195 
L 288.702489 219.111291 
L 317.674909 226.581823 
L 320.792373 227.5909 
L 332.894766 232.540677 
L 352.057599 237.124808 
L 354.006014 237.697178 
L 358.612991 239.416874 
" clip-path="url(#p611163f68a)" style="fill: none; stroke-dasharray: 3.7,1.6; stroke-dashoffset: 0; stroke: #f29888"/>
    <path d="M 239.129851 211.968935 
L 254.549677 215.816608 
L 270.277147 219.690121 
L 283.407585 221.563569 
L 285.883269 222.135939 
L 321.251276 230.20339 
L 323.772252 230.937264 
L 329.273106 232.999348 
L 368.606309 242.533256 
" clip-path="url(#p611163f68a)" style="fill: none; stroke-dasharray: 3.7,1.6; stroke-dashoffset: 0; stroke: #f29888"/>
    <path d="M 133.665046 149.810543 
L 145.163259 138.027207 
L 147.114238 135.821707 
L 149.181438 133.498633 
L 151.252056 130.798285 
L 153.573917 127.82015 
L 155.730847 124.720564 
L 158.14842 120.909068 
L 161.836736 114.066464 
L 165.628454 106.763896 
L 174.550472 90.282132 
" clip-path="url(#p611163f68a)" style="fill: none; stroke-dasharray: 3.7,1.6; stroke-dashoffset: 0; stroke: #f29888"/>
    <path d="M 271.970046 217.873524 
L 321.617886 229.607763 
L 327.669082 231.808094 
L 329.548277 232.403721 
L 358.612991 239.416874 
L 363.380626 240.631384 
L 365.099162 241.203755 
L 368.606309 242.533256 
L 377.81428 245.247816 
L 386.610349 247.596732 
L 391.668537 249.288002 
L 399.398105 251.113644 
L 404.405874 252.600773 
L 409.184618 254.568539 
L 414.190678 256.852852 
L 438.149347 268.384243 
L 461.005624 279.596501 
L 468.336109 283.13667 
L 476.572435 286.432645 
L 484.218256 288.524445 
L 491.725636 290.678264 
L 498.588672 292.624065 
L 505.214138 294.36314 
L 507.937646 295.351545 
L 510.283435 296.369667 
L 512.344653 297.297346 
L 514.416981 298.302547 
L 521.097139 301.933159 
L 529.742804 306.797661 
L 536.749408 309.904999 
L 543.591934 311.775862 
L 553.21437 313.031718 
L 558.865628 313.930973 
L 564.265644 315.356084 
L 587.747464 321.156018 
L 611.622386 327.642022 
L 618.95458 329.430195 
L 626.303011 330.722227 
L 654.666978 337.080319 
L 659.659365 338.249609 
L 664.978196 339.243182 
L 669.787705 339.89695 
L 674.292133 340.343993 
L 677.184651 340.578883 
" clip-path="url(#p611163f68a)" style="fill: none; stroke-dasharray: 3.7,1.6; stroke-dashoffset: 0; stroke: #f29888"/>
   </g>
  </g>
 </g>
 <defs>
  <clipPath id="p611163f68a">
   <rect x="7.2" y="7.2" width="837" height="715.447239"/>
  </clipPath>
 </defs>
</svg>
