<?xml version="1.0" encoding="utf-8" standalone="no"?>
<!DOCTYPE svg PUBLIC "-//W3C//DTD SVG 1.1//EN"
  "http://www.w3.org/Graphics/SVG/1.1/DTD/svg11.dtd">
<svg xmlns:xlink="http://www.w3.org/1999/xlink" width="766.431404pt" height="846pt" viewBox="0 0 766.431404 846" xmlns="http://www.w3.org/2000/svg" version="1.1">
 <metadata>
  <rdf:RDF xmlns:dc="http://purl.org/dc/elements/1.1/" xmlns:cc="http://creativecommons.org/ns#" xmlns:rdf="http://www.w3.org/1999/02/22-rdf-syntax-ns#">
   <cc:Work>
    <dc:type rdf:resource="http://purl.org/dc/dcmitype/StillImage"/>
    <dc:date>2025-03-16T14:29:54.765841</dc:date>
    <dc:format>image/svg+xml</dc:format>
    <dc:creator>
     <cc:Agent>
      <dc:title>Matplotlib v3.10.1, https://matplotlib.org/</dc:title>
     </cc:Agent>
    </dc:creator>
   </cc:Work>
  </rdf:RDF>
 </metadata>
 <defs>
  <style type="text/css">*{stroke-linejoin: round; stroke-linecap: butt}</style>
 </defs>
 <g id="figure_1">
  <g id="patch_1">
   <path d="M 0 846 
L 766.431404 846 
L 766.431404 0 
L 0 0 
z
" style="fill: #ffffff"/>
  </g>
  <g id="axes_1">
   <g id="PatchCollection_1">
    <path d="M 344.586036 493.364337 
L 351.567423 493.937713 
L 346.531949 503.781209 
L 342.068299 509.734393 
L 339.435343 517.518218 
L 332.796411 534.23102 
L 328.21861 545.334982 
L 319.140886 554.058952 
L 294.337973 572.466257 
L 261.603119 587.35002 
L 227.264809 597.537861 
L 205.059645 604.978942 
L 199.222975 618.717553 
L 199.680649 636.349679 
L 204.945494 641.729487 
L 205.976059 646.768152 
L 250.157016 660.162417 
L 247.639278 670.467177 
L 292.507279 685.579969 
L 294.795646 695.426668 
L 273.850418 697.71697 
L 267.325638 703.442727 
L 260.916076 711.228153 
L 261.717271 720.387761 
L 270.416267 725.311111 
L 277.055199 737.677142 
L 286.55539 740.425505 
L 310.247726 742.371461 
L 337.375279 747.067382 
L 356.603965 755.081839 
L 372.743088 756.914081 
L 386.706929 752.677822 
L 422.761782 752.791536 
L 445.310467 747.639157 
L 501.395201 716.838593 
L 519.594388 707.563669 
L 525.889798 706.075774 
L 537.564205 737.105367 
L 534.130054 749.242369 
L 537.564205 761.494686 
L 541.456029 777.182456 
L 551.184524 794.358123 
L 564.004715 793.212972 
L 569.26956 801 
L 576.480317 800.657255 
L 577.16736 795.045214 
L 575.56497 784.167078 
L 580.943966 769.739774 
L 587.239377 758.746323 
L 587.468747 748.555278 
L 584.492269 738.021488 
L 569.383711 722.562748 
L 543.516093 698.061317 
L 541.341878 695.197638 
L 535.504141 678.023573 
L 545.919679 678.710664 
L 551.299743 683.634013 
L 558.396348 682.259832 
L 584.263966 678.138889 
L 626.155489 662.223689 
L 625.583663 653.637458 
L 627.873097 642.187547 
L 630.734357 637.379514 
L 629.703791 631.88439 
L 655.113736 622.382037 
L 675.488205 613.108715 
L 684.415505 635.776302 
L 699.638214 630.281178 
L 705.475951 630.052148 
L 709.596079 627.532815 
L 720.584509 621.236886 
L 723.78929 619.97802 
L 725.048159 613.90952 
L 723.331616 606.9265 
L 723.78929 602.574925 
L 719.897465 593.187888 
L 710.283122 581.625865 
L 716.692684 577.389606 
L 720.356206 574.527529 
L 715.433816 559.645368 
L 702.157018 562.163099 
L 684.186134 569.948526 
L 678.349464 557.699412 
L 655.914931 566.628388 
L 636.342723 574.069469 
L 622.607186 575.21462 
L 617.571711 568.2316 
L 606.125608 568.46063 
L 605.782086 561.476009 
L 621.120014 555.524426 
L 640.692221 547.396254 
L 644.698198 542.13016 
L 640.692221 536.406006 
L 614.251712 545.564012 
L 590.215854 551.975258 
L 572.932014 557.012321 
L 498.762245 573.726724 
L 487.659663 536.750352 
L 463.623806 470.928983 
L 463.967328 466.007235 
L 452.635376 433.957415 
L 462.021415 429.609044 
L 458.129591 418.849427 
L 470.033368 414.042996 
L 475.069909 425.717132 
L 490.636141 422.054249 
L 496.130356 438.879163 
L 500.823376 444.488002 
L 508.262436 444.603318 
L 515.473193 439.337224 
L 518.449671 434.530792 
L 510.437718 412.097039 
L 505.171807 399.506782 
L 508.491806 383.024613 
L 510.3225 362.767449 
L 476.786451 315.156386 
L 512.497782 306.001583 
L 542.485528 293.984702 
L 545.347854 284.714583 
L 546.033831 278.535571 
L 545.232636 267.663842 
L 553.58811 246.836504 
L 558.396348 231.044629 
L 562.745846 210.332607 
L 527.83571 194.313303 
L 492.009161 194.542334 
L 485.599599 200.492315 
L 481.135949 194.542334 
L 476.6723 195.114108 
L 461.105002 196.372974 
L 443.364555 199.46248 
L 437.297448 197.173779 
L 429.629017 199.347164 
L 413.147439 203.468107 
L 404.448443 208.844712 
L 376.863216 209.531802 
L 360.953463 207.814876 
L 355.688618 202.209241 
L 352.71214 198.661675 
L 359.580443 192.367347 
L 361.296985 185.273816 
L 352.597989 178.979488 
L 348.935534 176.234329 
L 352.597989 166.736781 
L 365.074658 150.374732 
L 374.116109 148.886837 
L 383.044475 145.912647 
L 368.851264 123.371586 
L 363.586419 119.367561 
L 362.555853 95.224891 
L 338.519996 87.330555 
L 283.235391 80.466054 
L 276.596459 88.246675 
L 253.475948 83.440244 
L 241.114498 84.814425 
L 237.452044 73.143492 
L 225.548267 60.559642 
L 215.933924 51.864501 
L 205.174864 52.093531 
L 145.426609 45 
L 143.366545 72.687034 
L 142.451198 94.424086 
L 134.667549 113.87564 
L 121.161382 124.973196 
L 114.637668 131.265922 
L 41.383246 101.061158 
L 44.702178 111.471623 
L 45.618592 118.22241 
L 45.618592 130.236087 
L 68.052059 140.53444 
L 81.444075 149.229581 
L 94.034895 155.752939 
L 98.612696 156.095683 
L 101.473956 159.298904 
L 101.473956 165.82066 
L 99.413892 172.114988 
L 80.642879 179.780293 
L 71.028536 188.706066 
L 69.769668 197.631839 
L 72.974449 206.557612 
L 82.932313 209.302772 
L 92.432505 207.129387 
L 109.82943 207.129387 
L 122.076728 211.133412 
L 139.017047 210.676954 
L 152.293844 207.129387 
L 173.469509 205.298747 
L 194.873477 202.89473 
L 200.939518 205.641491 
L 206.433733 232.875269 
L 201.970083 235.851061 
L 197.047693 254.274382 
L 190.523979 258.509039 
L 180.108441 267.892872 
L 159.848123 282.999259 
L 141.650003 252.100997 
L 118.185971 264.116276 
L 144.281892 311.266075 
L 158.704473 334.04097 
L 163.739948 346.858656 
L 167.517621 352.810239 
L 146.914848 361.736012 
L 151.150194 374.441585 
L 193.72876 369.061776 
L 207.921971 367.002106 
L 220.969399 365.398894 
L 223.258833 368.260971 
L 224.861223 369.977897 
L 198.535932 444.832348 
L 208.723167 450.32587 
L 242.488585 468.297537 
L 260.344251 477.111198 
L 283.121239 490.388545 
L 304.067534 495.311894 
L 344.586036 493.364337 
" clip-path="url(#p6e90a49176)" style="fill: #f29888"/>
   </g>
   <g id="PatchCollection_2">
    <path d="M 407.481463 699.749414 
L 421.101782 695.684527 
L 421.502913 697.574427 
L 423.84889 696.773622 
L 424.192411 698.032488 
L 423.161846 698.43289 
L 423.391216 699.520383 
L 419.613543 700.55182 
L 420.014674 701.523998 
L 417.153415 702.384062 
L 416.408762 700.32279 
L 413.26159 701.352625 
L 413.490961 702.097374 
L 408.39681 703.069551 
L 407.481463 699.749414 
" clip-path="url(#p6e90a49176)" style="fill: #f29888"/>
    <path d="M 462.765001 677.909859 
L 469.118021 673.6736 
L 470.776954 676.077617 
L 464.367392 680.429191 
L 462.765001 677.909859 
" clip-path="url(#p6e90a49176)" style="fill: #f29888"/>
    <path d="M 473.524061 670.811523 
L 483.253623 664.055931 
L 484.970165 666.403892 
L 474.954691 673.215539 
L 473.524061 670.811523 
" clip-path="url(#p6e90a49176)" style="fill: #f29888"/>
    <path d="M 475.871105 664.685364 
L 489.720794 654.724951 
L 491.323184 657.128968 
L 477.415886 666.975667 
L 475.871105 664.685364 
" clip-path="url(#p6e90a49176)" style="fill: #f29888"/>
    <path d="M 441.278887 640.584336 
L 442.508951 642.248408 
L 441.304491 643.138904 
L 440.074427 641.473229 
L 441.278887 640.584336 
" clip-path="url(#p6e90a49176)" style="fill: #f29888"/>
    <path d="M 401.186053 569.748325 
L 405.993224 567.860026 
L 406.622658 569.347922 
L 401.873096 571.293879 
L 401.186053 569.748325 
" clip-path="url(#p6e90a49176)" style="fill: #f29888"/>
    <path d="M 386.706929 569.290264 
L 397.465989 564.768919 
L 398.153033 566.485845 
L 387.393973 570.949532 
L 386.706929 569.290264 
" clip-path="url(#p6e90a49176)" style="fill: #f29888"/>
    <path d="M 399.354292 564.02417 
L 403.70379 562.420959 
L 404.390834 564.02417 
L 399.927184 565.741096 
L 399.354292 564.02417 
" clip-path="url(#p6e90a49176)" style="fill: #f29888"/>
    <path d="M 388.976093 626.783261 
L 389.158522 630.567866 
L 392.839113 630.390087 
L 392.919126 632.049355 
L 389.238535 632.227134 
L 389.320682 633.94406 
L 393.004473 633.767883 
L 393.094087 635.627352 
L 389.410296 635.805131 
L 389.583124 639.411957 
L 387.305425 639.520866 
L 386.698394 626.892171 
L 388.976093 626.783261 
" clip-path="url(#p6e90a49176)" style="fill: #f29888"/>
    <path d="M 337.661192 313.554776 
L 343.727232 314.299524 
L 345.558992 299.764913 
L 347.561447 299.993943 
L 345.558992 316.072507 
L 337.54704 315.100329 
L 337.661192 313.554776 
" clip-path="url(#p6e90a49176)" style="fill: #f29888"/>
    <path d="M 330.506977 298.390731 
L 339.034212 299.535883 
L 338.118865 305.085462 
L 338.97767 305.14312 
L 338.519996 308.519314 
L 334.856475 308.061253 
L 335.829431 301.252809 
L 330.221064 300.50806 
L 330.506977 298.390731 
" clip-path="url(#p6e90a49176)" style="fill: #f29888"/>
    <path d="M 312.880682 298.047987 
L 316.428984 298.277017 
L 317.917223 287.062543 
L 315.857159 286.718197 
L 316.199614 284.658527 
L 322.495024 285.574648 
L 320.320809 302.282644 
L 312.651311 301.137493 
L 312.880682 298.047987 
" clip-path="url(#p6e90a49176)" style="fill: #f29888"/>
    <path d="M 324.784459 285.574648 
L 340.35069 287.176258 
L 339.205973 297.818957 
L 323.983263 296.102031 
L 324.784459 285.574648 
" clip-path="url(#p6e90a49176)" style="fill: #f29888"/>
    <path d="M 342.296602 287.748032 
L 347.790817 288.206093 
L 347.790817 291.410915 
L 342.068299 290.952854 
L 342.296602 287.748032 
" clip-path="url(#p6e90a49176)" style="fill: #f29888"/>
    <path d="M 199.838541 168.953409 
L 199.299788 170.053715 
L 197.473361 169.160017 
L 198.012114 168.059711 
L 199.838541 168.953409 
" clip-path="url(#p6e90a49176)" style="fill: #f29888"/>
    <path d="M 220.266352 149.703658 
L 221.881545 150.848809 
L 221.246776 151.742507 
L 219.632651 150.598958 
L 220.266352 149.703658 
" clip-path="url(#p6e90a49176)" style="fill: #f29888"/>
   </g>
   <g id="LineCollection_1">
    <path d="M 266.541512 720.072244 
L 263.161208 721.204983 
" clip-path="url(#p6e90a49176)" style="fill: none; stroke: #f29888; stroke-width: 0.2"/>
    <path d="M 335.755819 706.972675 
L 334.245177 722.68447 
L 332.130704 742.326616 
" clip-path="url(#p6e90a49176)" style="fill: none; stroke: #f29888; stroke-width: 0.2"/>
    <path d="M 280.176767 702.062139 
L 323.90005 703.647733 
L 335.755819 706.972675 
L 359.165443 710.22074 
L 361.652242 710.430551 
L 373.4376 711.428354 
L 387.408908 711.556483 
L 389.97572 711.580507 
L 399.927184 709.109223 
" clip-path="url(#p6e90a49176)" style="fill: none; stroke: #f29888; stroke-width: 0.2"/>
    <path d="M 361.144427 678.739493 
L 359.941034 647.727517 
L 359.721265 642.501463 
L 358.624556 629.662956 
L 357.725211 627.201282 
L 356.693579 626.366843 
L 348.839519 623.317377 
L 339.45988 617.228056 
L 333.597606 611.963563 
L 328.103391 611.734533 
L 318.217005 612.703507 
" clip-path="url(#p6e90a49176)" style="fill: none; stroke: #f29888; stroke-width: 0.2"/>
    <path d="M 280.661111 668.290588 
L 278.613849 613.320127 
L 277.798785 593.416919 
" clip-path="url(#p6e90a49176)" style="fill: none; stroke: #f29888; stroke-width: 0.2"/>
    <path d="M 264.159263 663.290362 
L 262.35204 611.329326 
L 261.985047 590.577264 
" clip-path="url(#p6e90a49176)" style="fill: none; stroke: #f29888; stroke-width: 0.2"/>
    <path d="M 299.624154 674.059588 
L 297.423268 615.331749 
L 296.055582 575.844053 
" clip-path="url(#p6e90a49176)" style="fill: none; stroke: #f29888; stroke-width: 0.2"/>
    <path d="M 320.896901 678.444796 
L 318.33329 617.421851 
L 318.217005 612.703507 
L 317.315527 563.308251 
" clip-path="url(#p6e90a49176)" style="fill: none; stroke: #f29888; stroke-width: 0.2"/>
    <path d="M 341.344983 678.547299 
L 338.480523 619.894737 
L 339.45988 617.228056 
L 340.344289 614.372385 
L 338.514662 593.18949 
L 334.898082 555.043943 
L 334.742323 553.921214 
L 332.224586 553.692184 
L 317.315527 563.308251 
" clip-path="url(#p6e90a49176)" style="fill: none; stroke: #f29888; stroke-width: 0.2"/>
    <path d="M 318.33329 617.421851 
L 297.423268 615.331749 
L 278.613849 613.320127 
L 262.35204 611.329326 
L 243.041207 610.39879 
L 222.74355 611.792191 
" clip-path="url(#p6e90a49176)" style="fill: none; stroke: #f29888; stroke-width: 0.2"/>
    <path d="M 277.798785 593.416919 
L 272.934004 591.813707 
L 266.582052 589.810093 
L 264.350227 589.581062 
L 262.588878 589.854938 
L 261.985047 590.577264 
" clip-path="url(#p6e90a49176)" style="fill: none; stroke: #f29888; stroke-width: 0.2"/>
    <path d="M 222.74355 611.792191 
L 222.401095 626.96104 
L 223.374051 649.743944 
" clip-path="url(#p6e90a49176)" style="fill: none; stroke: #f29888; stroke-width: 0.2"/>
    <path d="M 243.698379 656.835873 
L 243.041207 610.39879 
L 242.430976 598.726256 
" clip-path="url(#p6e90a49176)" style="fill: none; stroke: #f29888; stroke-width: 0.2"/>
    <path d="M 205.529479 644.584724 
L 223.374051 649.743944 
" clip-path="url(#p6e90a49176)" style="fill: none; stroke: #f29888; stroke-width: 0.2"/>
    <path d="M 147.353615 363.052264 
L 157.513882 357.474127 
L 169.06987 352.938368 
L 185.618659 346.442237 
L 192.035689 343.924506 
L 224.53157 338.991547 
L 234.368882 339.71067 
" clip-path="url(#p6e90a49176)" style="fill: none; stroke: #f29888; stroke-width: 0.2"/>
    <path d="M 184.172027 332.562684 
L 161.653213 335.650588 
" clip-path="url(#p6e90a49176)" style="fill: none; stroke: #f29888; stroke-width: 0.2"/>
    <path d="M 183.92452 321.60607 
L 230.622148 316.343179 
" clip-path="url(#p6e90a49176)" style="fill: none; stroke: #f29888; stroke-width: 0.2"/>
    <path d="M 145.112959 307.953945 
L 183.475382 301.776535 
L 225.268755 294.867189 
" clip-path="url(#p6e90a49176)" style="fill: none; stroke: #f29888; stroke-width: 0.2"/>
    <path d="M 82.436234 203.950191 
L 84.333071 207.893355 
L 84.538046 208.935424 
" clip-path="url(#p6e90a49176)" style="fill: none; stroke: #f29888; stroke-width: 0.2"/>
    <path d="M 165.040166 348.907101 
L 167.416271 351.283904 
L 169.06987 352.938368 
" clip-path="url(#p6e90a49176)" style="fill: none; stroke: #f29888; stroke-width: 0.2"/>
    <path d="M 317.315527 563.308251 
L 307.959358 569.061234 
L 296.055582 575.844053 
L 289.931932 578.933559 
L 285.353064 581.910952 
L 280.48935 588.035509 
L 277.798785 593.416919 
" clip-path="url(#p6e90a49176)" style="fill: none; stroke: #f29888; stroke-width: 0.2"/>
    <path d="M 314.968483 480.927834 
L 305.82995 481.387496 
L 290.447215 482.83375 
L 284.990339 483.229348 
L 277.299505 480.402506 
" clip-path="url(#p6e90a49176)" style="fill: none; stroke: #f29888; stroke-width: 0.2"/>
    <path d="M 249.79109 461.195998 
L 267.767309 462.717528 
L 283.675995 463.83385 
L 310.103703 464.820442 
L 317.006144 463.439854 
" clip-path="url(#p6e90a49176)" style="fill: none; stroke: #f29888; stroke-width: 0.2"/>
    <path d="M 317.268586 483.557678 
L 314.968483 480.927834 
L 313.193265 475.405483 
L 310.103703 464.820442 
L 307.341659 453.644407 
L 308.170592 443.000106 
L 309.453998 426.508327 
L 309.848728 421.432825 
L 311.116132 406.933448 
L 312.320592 404.410913 
" clip-path="url(#p6e90a49176)" style="fill: none; stroke: #f29888; stroke-width: 0.2"/>
    <path d="M 207.35548 428.167595 
L 214.217382 429.895732 
L 229.782546 436.19006 
L 238.940282 438.823107 
L 255.078339 440.311003 
L 268.419147 441.353651 
L 269.729223 441.456154 
L 308.170592 443.000106 
" clip-path="url(#p6e90a49176)" style="fill: none; stroke: #f29888; stroke-width: 0.2"/>
    <path d="M 309.453998 426.508327 
L 270.06421 423.452455 
L 269.043247 423.370773 
L 235.796311 420.518305 
" clip-path="url(#p6e90a49176)" style="fill: none; stroke: #f29888; stroke-width: 0.2"/>
    <path d="M 276.576189 382.909297 
L 274.932192 387.051061 
L 273.091896 391.521155 
L 271.711408 395.004657 
L 271.514043 400.921004 
L 270.72565 412.359703 
L 270.06421 423.452455 
L 268.419147 441.353651 
L 267.701165 448.977315 
L 268.227116 457.195176 
L 267.767309 462.717528 
" clip-path="url(#p6e90a49176)" style="fill: none; stroke: #f29888; stroke-width: 0.2"/>
    <path d="M 290.381071 414.199953 
L 270.72565 412.359703 
" clip-path="url(#p6e90a49176)" style="fill: none; stroke: #f29888; stroke-width: 0.2"/>
    <path d="M 259.600665 372.918453 
L 246.181978 395.781437 
L 239.394755 409.696226 
L 235.796311 420.518305 
L 229.782546 436.19006 
" clip-path="url(#p6e90a49176)" style="fill: none; stroke: #f29888; stroke-width: 0.2"/>
    <path d="M 294.047793 342.67525 
L 296.448178 380.430005 
L 296.448178 387.901516 
L 294.554541 388.998619 
L 288.864027 390.376003 
" clip-path="url(#p6e90a49176)" style="fill: none; stroke: #f29888; stroke-width: 0.2"/>
    <path d="M 238.206298 358.310168 
L 261.248929 362.250129 
L 280.65471 364.537228 
" clip-path="url(#p6e90a49176)" style="fill: none; stroke: #f29888; stroke-width: 0.2"/>
    <path d="M 264.467579 341.422791 
L 261.248929 362.250129 
L 259.600665 372.918453 
" clip-path="url(#p6e90a49176)" style="fill: none; stroke: #f29888; stroke-width: 0.2"/>
    <path d="M 234.234461 338.293245 
L 237.795565 337.759909 
L 254.620665 339.763523 
L 263.369803 341.237004 
L 264.467579 341.422791 
L 274.995135 343.195774 
L 282.721175 343.882864 
L 286.955454 343.311089 
L 294.047793 342.67525 
L 302.922817 341.880852 
L 315.627789 344.054237 
L 351.782925 350.779397 
L 365.532331 352.981611 
L 382.714822 355.315157 
" clip-path="url(#p6e90a49176)" style="fill: none; stroke: #f29888; stroke-width: 0.2"/>
    <path d="M 270.78646 311.234043 
L 267.750239 315.65769 
L 266.014494 324.504984 
L 263.369803 341.237004 
" clip-path="url(#p6e90a49176)" style="fill: none; stroke: #f29888; stroke-width: 0.2"/>
    <path d="M 355.777166 323.101973 
L 331.940807 324.850932 
L 316.759704 324.243921 
L 300.625915 320.167824 
L 284.57854 314.791219 
L 270.78646 311.234043 
" clip-path="url(#p6e90a49176)" style="fill: none; stroke: #f29888; stroke-width: 0.2"/>
    <path d="M 435.950031 198.720934 
L 436.525057 202.125957 
L 437.280378 204.262505 
L 438.725944 208.191255 
L 440.925763 217.187499 
L 439.225224 220.004731 
L 428.666729 226.31027 
L 420.969494 234.488091 
L 411.663467 243.088737 
L 407.806848 246.299965 
L 386.582109 264.273233 
L 384.367354 268.091472 
L 383.236505 271.304302 
L 381.302328 280.769817 
L 372.673744 283.822486 
L 361.694915 285.473746 
L 306.316428 281.782035 
L 281.930648 279.353994 
L 272.532873 278.460296 
L 258.418608 277.119748 
L 230.437585 272.845051 
L 228.176955 272.710515 
L 219.617715 272.199602 
L 191.54601 277.866098 
L 186.265163 279.659901 
L 183.673813 280.755403 
L 181.581744 283.146607 
L 183.475382 301.776535 
L 183.92452 321.60607 
L 184.172027 332.562684 
L 184.571024 341.329898 
L 185.618659 346.442237 
" clip-path="url(#p6e90a49176)" style="fill: none; stroke: #f29888; stroke-width: 0.2"/>
    <path d="M 274.823374 266.659632 
L 272.532873 278.460296 
" clip-path="url(#p6e90a49176)" style="fill: none; stroke: #f29888; stroke-width: 0.2"/>
    <path d="M 241.321465 263.376332 
L 259.65614 265.368735 
L 272.9084 266.613186 
L 274.823374 266.659632 
L 325.412826 267.894474 
L 359.404414 269.388776 
L 379.323344 269.954144 
L 383.236505 271.304302 
" clip-path="url(#p6e90a49176)" style="fill: none; stroke: #f29888; stroke-width: 0.2"/>
    <path d="M 267.282964 229.899478 
L 263.591705 245.891554 
L 259.705215 261.134078 
L 259.65614 265.368735 
" clip-path="url(#p6e90a49176)" style="fill: none; stroke: #f29888; stroke-width: 0.2"/>
    <path d="M 332.305666 215.52823 
L 332.043223 223.020562 
L 331.582349 229.659236 
L 330.414162 236.070481 
L 325.534446 262.258408 
" clip-path="url(#p6e90a49176)" style="fill: none; stroke: #f29888; stroke-width: 0.2"/>
    <path d="M 243.231104 228.664636 
L 238.252172 237.475093 
L 233.730913 245.085945 
L 232.186132 253.210913 
L 230.296762 260.019357 
L 228.179089 265.283849 
L 228.751981 267.457234 
L 228.176955 272.710515 
" clip-path="url(#p6e90a49176)" style="fill: none; stroke: #f29888; stroke-width: 0.2"/>
    <path d="M 209.319529 230.887671 
L 223.875465 228.520491 
L 231.499088 228.32029 
" clip-path="url(#p6e90a49176)" style="fill: none; stroke: #f29888; stroke-width: 0.2"/>
    <path d="M 82.436234 203.950191 
L 81.689447 202.603237 
" clip-path="url(#p6e90a49176)" style="fill: none; stroke: #f29888; stroke-width: 0.2"/>
    <path d="M 82.82883 190.837809 
L 108.514019 187.807563 
L 126.2598 185.768714 
L 148.193986 183.688222 
L 171.568404 182.14427 
L 191.504403 179.351062 
L 195.733349 179.200511 
L 200.27061 180.595513 
" clip-path="url(#p6e90a49176)" style="fill: none; stroke: #f29888; stroke-width: 0.2"/>
    <path d="M 204.19764 169.360218 
L 218.714103 177.549251 
L 219.882291 178.302007 
L 228.22923 183.683417 
L 232.764358 185.771917 
L 238.188162 187.772328 
L 241.47829 188.438598 
L 245.569613 188.794155 
L 252.816643 189.194557 
L 259.663608 190.083451 
L 269.222475 191.994172 
L 271.836228 192.657238 
L 284.117666 195.77237 
" clip-path="url(#p6e90a49176)" style="fill: none; stroke: #f29888; stroke-width: 0.2"/>
    <path d="M 200.27061 180.595513 
L 205.553591 180.082998 
L 211.333719 178.97148 
L 215.468782 178.482989 
L 219.882291 178.302007 
" clip-path="url(#p6e90a49176)" style="fill: none; stroke: #f29888; stroke-width: 0.2"/>
    <path d="M 81.689447 202.603237 
L 82.407429 201.885716 
L 82.935514 200.753377 
L 83.124344 199.507325 
L 82.595193 195.130124 
L 82.82883 190.837809 
L 82.859768 190.259628 
L 81.70545 185.843989 
L 81.856941 180.257573 
L 82.041968 179.208963 
" clip-path="url(#p6e90a49176)" style="fill: none; stroke: #f29888; stroke-width: 0.2"/>
    <path d="M 99.891896 157.527765 
L 102.698685 155.949937 
L 110.728774 155.299683 
" clip-path="url(#p6e90a49176)" style="fill: none; stroke: #f29888; stroke-width: 0.2"/>
    <path d="M 206.56602 165.484322 
L 204.912422 166.017658 
L 202.445893 166.615059 
L 201.10061 167.063509 
L 199.930289 167.76021 
L 198.484724 170.649514 
L 198.883721 171.945217 
L 199.805469 173.588469 
L 200.428502 174.707994 
L 201.328913 176.455351 
" clip-path="url(#p6e90a49176)" style="fill: none; stroke: #f29888; stroke-width: 0.2"/>
    <path d="M 147.596557 171.147615 
L 124.08025 168.746802 
" clip-path="url(#p6e90a49176)" style="fill: none; stroke: #f29888; stroke-width: 0.2"/>
    <path d="M 41.582744 101.636136 
L 41.572513 101.65483 
" clip-path="url(#p6e90a49176)" style="fill: none; stroke: #f29888; stroke-width: 0.2"/>
    <path d="M 44.010395 109.301712 
L 45.780751 110.440186 
L 47.064157 113.30867 
L 47.366072 115.648622 
L 46.158412 118.44183 
L 45.618592 118.847961 
" clip-path="url(#p6e90a49176)" style="fill: none; stroke: #f29888; stroke-width: 0.2"/>
    <path d="M 264.74069 229.825804 
L 267.282964 229.899478 
L 276.179325 230.155735 
L 293.403423 231.600388 
L 318.187133 234.427229 
L 330.414162 236.070481 
L 351.319917 238.830056 
L 361.246843 241.656897 
" clip-path="url(#p6e90a49176)" style="fill: none; stroke: #f29888; stroke-width: 0.2"/>
    <path d="M 238.194563 226.890052 
L 243.231104 228.664636 
L 252.673686 229.923502 
" clip-path="url(#p6e90a49176)" style="fill: none; stroke: #f29888; stroke-width: 0.2"/>
    <path d="M 271.836228 192.657238 
L 273.535701 194.750543 
L 274.869248 198.350962 
L 276.337217 200.929555 
L 279.049119 203.240678 
L 282.29444 204.930377 
L 283.334607 205.816067 
L 284.029118 206.440695 
L 284.339568 207.99746 
" clip-path="url(#p6e90a49176)" style="fill: none; stroke: #f29888; stroke-width: 0.2"/>
    <path d="M 340.105317 200.979204 
L 333.761899 197.431638 
L 324.398263 192.827009 
L 314.203561 186.031378 
L 301.970131 179.615328 
L 282.637962 167.310157 
L 258.774932 151.758523 
L 226.826338 132.249311 
" clip-path="url(#p6e90a49176)" style="fill: none; stroke: #f29888; stroke-width: 0.2"/>
    <path d="M 234.504371 119.719915 
L 248.706116 126.771804 
L 269.774031 136.812298 
L 285.406406 145.342473 
L 294.996212 151.382145 
L 301.365234 155.68407 
L 314.6559 165.423461 
L 328.551463 176.368864 
L 342.672129 186.636786 
" clip-path="url(#p6e90a49176)" style="fill: none; stroke: #f29888; stroke-width: 0.2"/>
    <path d="M 254.287812 87.439464 
L 261.305472 86.728349 
L 266.743144 88.312342 
L 276.10678 90.804447 
L 312.80707 108.467003 
L 347.83029 126.321752 
L 361.966959 133.528997 
" clip-path="url(#p6e90a49176)" style="fill: none; stroke: #f29888; stroke-width: 0.2"/>
    <path d="M 149.421917 139.611913 
L 148.09477 150.618177 
L 146.998061 158.586187 
L 147.596557 171.147615 
L 148.193986 183.688222 
" clip-path="url(#p6e90a49176)" style="fill: none; stroke: #f29888; stroke-width: 0.2"/>
    <path d="M 110.728774 155.299683 
L 122.785109 156.196585 
L 146.998061 158.586187 
L 157.660039 158.687089 
L 163.638598 157.490686 
L 175.097504 157.988787 
L 188.94826 161.574792 
L 200.369826 162.029649 
L 208.483128 162.551774 
" clip-path="url(#p6e90a49176)" style="fill: none; stroke: #f29888; stroke-width: 0.2"/>
    <path d="M 218.814386 145.323254 
L 216.981559 140.113216 
L 215.394104 136.700185 
L 214.601443 134.898374 
L 214.14377 132.374237 
L 214.072292 128.024264 
L 214.120299 124.875498 
L 213.711701 118.553943 
L 212.292806 107.78792 
L 212.076238 101.226124 
L 212.196791 96.972247 
L 212.413359 95.002267 
L 213.495132 92.574226 
" clip-path="url(#p6e90a49176)" style="fill: none; stroke: #f29888; stroke-width: 0.2"/>
    <path d="M 183.538325 141.530641 
L 183.177734 132.878744 
L 181.998878 118.891883 
L 180.941642 99.472361 
L 180.845626 93.320576 
" clip-path="url(#p6e90a49176)" style="fill: none; stroke: #f29888; stroke-width: 0.2"/>
    <path d="M 41.627557 101.161894 
L 41.582744 101.636136 
" clip-path="url(#p6e90a49176)" style="fill: none; stroke: #f29888; stroke-width: 0.2"/>
    <path d="M 41.582744 101.636136 
L 41.837894 101.248622 
" clip-path="url(#p6e90a49176)" style="fill: none; stroke: #f29888; stroke-width: 0.2"/>
    <path d="M 218.814386 145.323254 
L 215.634142 144.033958 
L 213.162279 143.302022 
L 183.538325 141.530641 
L 149.421917 139.611913 
L 130.934683 138.542037 
L 125.98989 137.901393 
L 41.582744 101.636136 
L 41.563983 101.628075 
" clip-path="url(#p6e90a49176)" style="fill: none; stroke: #f29888; stroke-width: 0.5"/>
    <path d="M 625.241634 662.570876 
L 624.381337 658.990039 
L 624.095425 655.239068 
L 624.922224 649.835235 
L 625.784229 645.707886 
L 627.271401 641.128883 
L 628.84392 638.385325 
L 629.188509 636.77891 
L 629.131966 635.462387 
L 627.300206 631.713017 
L 626.241902 628.677966 
L 623.702828 618.200233 
" clip-path="url(#p6e90a49176)" style="fill: none; stroke: #f29888; stroke-width: 0.2"/>
    <path d="M 451.822445 710.915839 
L 464.362058 734.799049 
" clip-path="url(#p6e90a49176)" style="fill: none; stroke: #f29888; stroke-width: 0.2"/>
    <path d="M 700.788265 584.228482 
L 623.702828 618.200233 
L 529.20553 661.320381 
L 524.144451 661.422884 
L 514.64426 666.88918 
L 496.677644 679.1447 
L 451.822445 710.915839 
L 451.076726 711.444371 
L 432.833798 719.357926 
L 431.217539 719.928099 
L 413.375742 726.227232 
L 411.869367 726.505912 
L 396.863226 729.284705 
L 386.714397 728.350967 
L 360.246149 725.913316 
L 334.245177 722.68447 
L 300.792342 721.150128 
L 274.460649 719.454023 
L 266.541512 720.072244 
" clip-path="url(#p6e90a49176)" style="fill: none; stroke: #f29888; stroke-width: 0.2"/>
    <path d="M 713.247083 585.190267 
L 710.925359 586.137601 
L 707.621362 583.805656 
L 700.788265 584.228482 
" clip-path="url(#p6e90a49176)" style="fill: none; stroke: #f29888; stroke-width: 0.2"/>
    <path d="M 478.459253 634.61033 
L 470.954049 621.118367 
L 464.923214 609.780569 
L 459.571956 598.921652 
L 454.602625 585.274333 
" clip-path="url(#p6e90a49176)" style="fill: none; stroke: #f29888; stroke-width: 0.2"/>
    <path d="M 504.781344 575.132938 
L 513.909209 598.420348 
L 517.205738 606.229799 
" clip-path="url(#p6e90a49176)" style="fill: none; stroke: #f29888; stroke-width: 0.2"/>
    <path d="M 502.059841 614.196208 
L 494.586641 604.328688 
L 482.575114 579.441269 
L 467.783407 542.440873 
L 462.511094 531.633208 
L 459.711711 525.897842 
L 450.743872 510.053114 
L 441.078321 492.31368 
L 431.852307 474.167438 
L 416.167657 444.284597 
" clip-path="url(#p6e90a49176)" style="fill: none; stroke: #f29888; stroke-width: 0.2"/>
    <path d="M 452.897818 449.925468 
L 462.36067 473.212879 
L 462.494025 473.586054 
L 483.860653 533.026609 
L 484.859214 536.074473 
L 491.683775 556.893802 
" clip-path="url(#p6e90a49176)" style="fill: none; stroke: #f29888; stroke-width: 0.2"/>
    <path d="M 642.488069 538.9721 
L 580.779673 560.806536 
L 504.781344 575.132938 
L 482.575114 579.441269 
L 454.602625 585.274333 
" clip-path="url(#p6e90a49176)" style="fill: none; stroke: #f29888; stroke-width: 0.2"/>
    <path d="M 411.869367 726.505912 
L 423.35281 751.920261 
" clip-path="url(#p6e90a49176)" style="fill: none; stroke: #f29888; stroke-width: 0.2"/>
    <path d="M 432.833798 719.357926 
L 444.160416 744.418319 
" clip-path="url(#p6e90a49176)" style="fill: none; stroke: #f29888; stroke-width: 0.2"/>
    <path d="M 384.689539 751.542281 
L 386.714397 728.350967 
L 387.408908 711.556483 
" clip-path="url(#p6e90a49176)" style="fill: none; stroke: #f29888; stroke-width: 0.2"/>
    <path d="M 361.652242 710.430551 
L 360.246149 725.913316 
L 357.126715 752.524068 
" clip-path="url(#p6e90a49176)" style="fill: none; stroke: #f29888; stroke-width: 0.2"/>
    <path d="M 425.958028 704.964256 
L 431.217539 719.928099 
" clip-path="url(#p6e90a49176)" style="fill: none; stroke: #f29888; stroke-width: 0.2"/>
    <path d="M 425.958028 704.964256 
L 410.114419 707.678985 
L 403.417877 708.937851 
L 399.927184 709.109223 
L 397.809511 705.331025 
L 396.698933 700.17384 
L 396.565578 699.682146 
L 395.865732 696.554202 
L 393.975295 689.215624 
" clip-path="url(#p6e90a49176)" style="fill: none; stroke: #f29888; stroke-width: 0.2"/>
    <path d="M 425.958028 704.964256 
L 444.565814 696.458105 
L 451.490659 692.735963 
L 454.69544 690.274288 
L 458.1872 687.011809 
L 458.358961 685.237225 
" clip-path="url(#p6e90a49176)" style="fill: none; stroke: #f29888; stroke-width: 0.2"/>
    <path d="M 388.195168 676.306647 
L 393.975295 689.215624 
L 402.960204 685.924315 
L 419.38524 678.194945 
L 432.719646 670.124432 
L 458.957457 651.078085 
L 462.193176 648.714108 
L 477.129973 638.180319 
L 478.459253 634.61033 
" clip-path="url(#p6e90a49176)" style="fill: none; stroke: #f29888; stroke-width: 0.2"/>
    <path d="M 223.374051 649.743944 
L 243.698379 656.835873 
L 264.159263 663.290362 
L 280.661111 668.290588 
L 299.624154 674.059588 
L 307.558227 676.822365 
L 315.284267 678.367919 
L 320.896901 678.444796 
L 341.344983 678.547299 
L 361.144427 678.739493 
L 388.195168 676.306647 
L 387.509191 672.928851 
L 442.347858 638.044182 
L 465.054435 624.843712 
L 470.954049 621.118367 
" clip-path="url(#p6e90a49176)" style="fill: none; stroke: #f29888; stroke-width: 0.2"/>
    <path d="M 383.044475 625.473144 
L 368.451199 625.072742 
L 359.941034 647.727517 
" clip-path="url(#p6e90a49176)" style="fill: none; stroke: #f29888; stroke-width: 0.2"/>
    <path d="M 458.957457 651.078085 
L 453.093049 645.222598 
L 447.42814 639.725873 
L 442.347858 638.044182 
L 441.818707 638.008947 
L 438.09971 633.429943 
L 435.638515 629.823117 
L 432.490276 624.156621 
L 430.659582 613.794204 
" clip-path="url(#p6e90a49176)" style="fill: none; stroke: #f29888; stroke-width: 0.2"/>
    <path d="M 416.924045 621.3506 
L 430.659582 613.794204 
L 459.571956 598.921652 
" clip-path="url(#p6e90a49176)" style="fill: none; stroke: #f29888; stroke-width: 0.2"/>
    <path d="M 371.556764 592.588886 
L 374.063833 593.740444 
L 381.537033 586.06713 
L 388.375463 582.561205 
L 393.345861 578.534758 
L 401.815487 595.705619 
L 430.887886 584.715371 
L 421.960586 558.615533 
L 421.677874 557.869183 
L 412.345177 533.201184 
L 402.502531 504.354585 
L 391.056427 505.727165 
L 395.634228 532.743124 
L 399.526053 551.517197 
" clip-path="url(#p6e90a49176)" style="fill: none; stroke: #f29888; stroke-width: 0.2"/>
    <path d="M 484.859214 536.074473 
L 467.783407 542.440873 
L 441.67575 551.405084 
L 421.677874 557.869183 
" clip-path="url(#p6e90a49176)" style="fill: none; stroke: #f29888; stroke-width: 0.2"/>
    <path d="M 391.056427 505.727165 
L 383.743253 503.837265 
L 377.220607 502.80743 
L 370.008783 501.090504 
L 363.827524 500.461071 
L 361.366329 501.662278 
L 360.16507 510.533597 
L 359.326535 519.364875 
L 356.376728 535.241636 
L 367.306482 576.364576 
L 371.556764 592.588886 
" clip-path="url(#p6e90a49176)" style="fill: none; stroke: #f29888; stroke-width: 0.2"/>
    <path d="M 388.375463 582.561205 
L 383.730451 563.423567 
L 378.694977 531.597973 
L 377.220607 502.80743 
" clip-path="url(#p6e90a49176)" style="fill: none; stroke: #f29888; stroke-width: 0.2"/>
    <path d="M 442.723385 468.017255 
L 443.368822 472.601064 
L 446.195942 484.172696 
L 450.403551 496.860651 
L 456.320234 510.272534 
L 463.616338 526.512861 
L 463.616338 528.353111 
L 462.511094 531.633208 
" clip-path="url(#p6e90a49176)" style="fill: none; stroke: #f29888; stroke-width: 0.2"/>
    <path d="M 454.602625 585.274333 
L 442.113154 552.401286 
L 441.67575 551.405084 
L 417.74231 494.44222 
L 412.462529 484.919047 
L 404.606335 473.659728 
L 400.636631 469.21526 
L 389.76662 457.043023 
L 382.288087 442.348251 
L 381.618112 441.888589 
L 375.842252 437.9214 
L 364.939169 432.873125 
L 352.143516 426.94877 
L 321.566876 409.952483 
L 315.164781 406.283195 
L 312.320592 404.410913 
L 311.619679 403.949649 
L 288.864027 390.376003 
L 276.576189 382.909297 
L 259.600665 372.918453 
L 232.462443 358.696156 
" clip-path="url(#p6e90a49176)" style="fill: none; stroke: #f29888; stroke-width: 0.2"/>
    <path d="M 400.636631 469.21526 
L 404.125191 466.566197 
L 414.370035 461.471475 
" clip-path="url(#p6e90a49176)" style="fill: none; stroke: #f29888; stroke-width: 0.2"/>
    <path d="M 444.451662 425.372785 
L 448.80116 428.121148 
L 453.49098 438.738221 
L 461.829385 461.598002 
L 463.099988 465.020643 
L 463.39977 468.217457 
L 463.124526 471.46392 
L 462.494025 473.586054 
" clip-path="url(#p6e90a49176)" style="fill: none; stroke: #f29888; stroke-width: 0.2"/>
    <path d="M 381.618112 441.888589 
L 384.350284 441.074971 
L 386.387945 439.366053 
L 386.321801 432.200449 
L 387.373703 425.100512 
L 387.571068 421.94534 
L 387.373703 415.963326 
L 385.533407 412.937885 
L 381.720529 404.063363 
L 375.737702 406.430543 
L 369.821019 407.220137 
L 362.396894 408.362085 
" clip-path="url(#p6e90a49176)" style="fill: none; stroke: #f29888; stroke-width: 0.2"/>
    <path d="M 364.939169 432.873125 
L 365.73183 425.547361 
L 362.396894 408.362085 
L 360.093592 396.489349 
" clip-path="url(#p6e90a49176)" style="fill: none; stroke: #f29888; stroke-width: 0.2"/>
    <path d="M 431.788297 319.911566 
L 432.875405 324.88937 
L 432.703644 332.386507 
L 432.24597 338.507861 
L 430.185906 347.377577 
L 429.097732 362.314193 
L 429.327102 375.533883 
L 431.902449 393.38703 
L 435.655584 401.681769 
L 436.255147 403.007902 
L 444.451662 425.372785 
L 448.053307 434.937601 
L 446.648282 438.827912 
L 447.787664 455.678451 
L 444.232961 465.42585 
L 442.723385 468.017255 
L 431.852307 474.167438 
L 419.059854 481.648559 
L 412.462529 484.919047 
" clip-path="url(#p6e90a49176)" style="fill: none; stroke: #f29888; stroke-width: 0.2"/>
    <path d="M 373.451469 386.946956 
L 368.507742 389.202023 
L 366.164966 391.370603 
L 360.093592 396.489349 
L 347.862295 397.182846 
L 323.833906 402.04053 
L 318.109254 403.775073 
L 315.164781 406.283195 
" clip-path="url(#p6e90a49176)" style="fill: none; stroke: #f29888; stroke-width: 0.2"/>
    <path d="M 380.254694 368.590903 
L 382.714822 355.315157 
L 381.643717 354.126762 
L 386.019885 328.71882 
L 387.508124 314.528555 
L 382.471583 304.685059 
L 379.266802 295.072195 
L 380.718768 286.140016 
L 381.302328 280.769817 
" clip-path="url(#p6e90a49176)" style="fill: none; stroke: #f29888; stroke-width: 0.2"/>
    <path d="M 361.694915 285.473746 
L 359.236921 299.420567 
L 356.965623 314.868096 
L 355.777166 323.101973 
L 351.782925 350.779397 
" clip-path="url(#p6e90a49176)" style="fill: none; stroke: #f29888; stroke-width: 0.2"/>
    <path d="M 435.483823 272.700906 
L 432.468939 266.145516 
" clip-path="url(#p6e90a49176)" style="fill: none; stroke: #f29888; stroke-width: 0.2"/>
    <path d="M 422.779918 245.899563 
L 411.378622 284.551219 
L 410.266977 289.831727 
L 408.390409 290.387486 
L 402.20595 289.761256 
L 380.718768 286.140016 
" clip-path="url(#p6e90a49176)" style="fill: none; stroke: #f29888; stroke-width: 0.2"/>
    <path d="M 432.468939 266.145516 
L 431.391433 260.373313 
L 431.8075 255.858374 
L 432.989556 250.438526 
L 430.557166 247.659732 
L 425.762797 245.992456 
L 422.779918 245.899563 
L 421.31515 245.853116 
L 417.70177 245.367828 
L 411.663467 243.088737 
" clip-path="url(#p6e90a49176)" style="fill: none; stroke: #f29888; stroke-width: 0.2"/>
    <path d="M 394.766889 232.084074 
L 392.611877 238.730756 
L 388.232507 245.865929 
L 383.512816 253.906011 
L 381.66292 254.924635 
L 375.847586 254.585094 
L 375.733435 253.218921 
L 376.982702 245.529591 
" clip-path="url(#p6e90a49176)" style="fill: none; stroke: #f29888; stroke-width: 0.2"/>
    <path d="M 509.335675 364.082371 
L 509.345276 366.718621 
L 507.493246 383.572364 
L 502.082244 385.084284 
L 497.96105 382.795583 
L 479.357531 387.690103 
L 440.273925 394.698749 
L 436.782165 396.931393 
L 435.655584 401.681769 
" clip-path="url(#p6e90a49176)" style="fill: none; stroke: #f29888; stroke-width: 0.2"/>
    <path d="M 507.493246 383.572364 
L 508.345465 383.751127 
" clip-path="url(#p6e90a49176)" style="fill: none; stroke: #f29888; stroke-width: 0.2"/>
    <path d="M 436.390636 298.124864 
L 438.127448 307.563152 
L 439.713835 314.131355 
L 443.18746 322.965837 
L 447.868744 331.648165 
L 457.535362 347.430431 
L 467.427083 364.268157 
L 475.507313 378.916483 
L 479.357531 387.690103 
L 487.061167 408.592716 
L 497.935445 438.12 
" clip-path="url(#p6e90a49176)" style="fill: none; stroke: #f29888; stroke-width: 0.2"/>
    <path d="M 509.335675 364.082371 
L 491.405331 337.431579 
L 475.317416 315.433464 
L 465.625194 300.801155 
L 460.585452 300.317468 
L 452.153165 296.150079 
L 441.880583 285.685159 
L 438.100777 277.448078 
L 435.483823 272.700906 
" clip-path="url(#p6e90a49176)" style="fill: none; stroke: #f29888; stroke-width: 0.2"/>
    <path d="M 556.630731 232.48768 
L 554.886451 241.596036 
L 550.130488 252.802502 
L 545.195296 262.913466 
L 541.221325 268.825009 
L 527.749297 274.057469 
L 501.969159 284.037102 
L 465.625194 300.801155 
" clip-path="url(#p6e90a49176)" style="fill: none; stroke: #f29888; stroke-width: 0.2"/>
    <path d="M 486.656835 245.761824 
L 473.087725 255.355468 
L 462.426814 265.141306 
L 455.158447 272.700906 
L 450.215787 276.672899 
L 438.100777 277.448078 
" clip-path="url(#p6e90a49176)" style="fill: none; stroke: #f29888; stroke-width: 0.2"/>
    <path d="M 501.969159 284.037102 
L 486.656835 245.761824 
L 481.520011 227.449014 
L 479.097222 216.40271 
" clip-path="url(#p6e90a49176)" style="fill: none; stroke: #f29888; stroke-width: 0.2"/>
    <path d="M 550.130488 252.802502 
L 526.191713 239.914346 
L 497.601525 226.154913 
L 488.393647 221.503838 
L 484.266052 214.418315 
L 480.230204 207.147005 
L 479.035346 205.452501 
" clip-path="url(#p6e90a49176)" style="fill: none; stroke: #f29888; stroke-width: 0.2"/>
    <path d="M 562.561618 210.24807 
L 562.2519 210.590467 
L 556.630731 232.48768 
" clip-path="url(#p6e90a49176)" style="fill: none; stroke: #f29888; stroke-width: 0.2"/>
    <path d="M 556.630731 232.48768 
L 529.106314 217.856972 
L 508.560084 207.779641 
L 491.308249 208.652518 
" clip-path="url(#p6e90a49176)" style="fill: none; stroke: #f29888; stroke-width: 0.2"/>
    <path d="M 359.404414 269.388776 
L 361.246843 241.656897 
L 363.546946 216.35306 
L 364.731136 215.762066 
L 377.024309 220.558888 
L 383.991827 222.070808 
L 384.758883 222.612152 
L 383.927816 226.801964 
L 384.494307 227.745312 
L 392.347301 229.8226 
L 394.766889 232.084074 
L 396.992313 234.162964 
L 400.579022 237.598417 
L 405.713713 243.562813 
L 407.806848 246.299965 
" clip-path="url(#p6e90a49176)" style="fill: none; stroke: #f29888; stroke-width: 0.2"/>
    <path d="M 435.685212 197.630718 
L 435.950031 198.720934 
" clip-path="url(#p6e90a49176)" style="fill: none; stroke: #f29888; stroke-width: 0.2"/>
    <path d="M 367.989189 122.715961 
L 362.888707 124.604826 
L 356.910147 126.198428 
L 347.83029 126.321752 
" clip-path="url(#p6e90a49176)" style="fill: none; stroke: #f29888; stroke-width: 0.2"/>
    <path d="M 200.749708 446.026139 
L 207.35548 428.167595 
L 230.916595 364.474765 
L 232.462443 358.696156 
L 233.778921 351.770794 
L 234.319808 346.677674 
L 234.368882 339.71067 
L 234.234461 338.293245 
L 233.091877 326.249137 
L 230.622148 316.343179 
L 225.268755 294.867189 
L 219.617715 272.199602 
L 209.319529 230.887671 
L 201.963682 201.38281 
L 200.299415 194.705698 
L 199.612371 190.815387 
L 199.49822 186.524673 
L 200.012435 181.602926 
L 200.27061 180.595513 
L 201.031266 177.61812 
L 201.328913 176.455351 
L 202.759543 172.278352 
L 204.19764 169.360218 
L 204.705455 168.330383 
L 206.56602 165.484322 
L 206.70791 165.268104 
L 208.483128 162.551774 
L 218.814386 145.323254 
L 226.826338 132.249311 
L 234.504371 119.719915 
L 254.287812 87.439464 
L 256.370075 84.041892 
" clip-path="url(#p6e90a49176)" style="fill: none; stroke: #f29888; stroke-width: 0.5"/>
   </g>
   <g id="LineCollection_2">
    <path d="M 615.648514 568.270082 
L 603.95886 572.927521 
" clip-path="url(#p6e90a49176)" style="fill: none; stroke-dasharray: 3.7,1.6; stroke-dashoffset: 0; stroke: #f29888"/>
    <path d="M 294.015914 692.071529 
L 296.935723 692.005629 
L 303.011364 692.455681 
L 308.311415 693.306136 
L 320.537377 696.557405 
L 337.312336 701.30778 
L 343.788042 702.85974 
L 349.212912 703.73422 
L 354.313464 704.410099 
L 359.538836 704.834526 
L 362.788424 704.935427 
L 367.639336 704.459749 
L 373.039669 703.759845 
L 388.815001 701.083555 
L 396.565578 699.682146 
L 402.963405 698.029284 
" clip-path="url(#p6e90a49176)" style="fill: none; stroke-dasharray: 3.7,1.6; stroke-dashoffset: 0; stroke: #f29888"/>
    <path d="M 420.284584 691.579601 
L 411.645331 695.037477 
L 402.963405 698.029284 
L 396.698933 700.17384 
L 390.663831 702.159837 
L 385.096004 703.481165 
L 376.877085 704.48057 
L 367.56359 705.419113 
L 360.970532 705.668965 
L 356.126021 705.419113 
L 351.313516 704.981874 
L 346.156422 704.293182 
L 337.375279 702.230308 
L 318.281015 696.884133 
L 306.968266 693.977211 
L 300.498961 693.008237 
L 294.226917 692.979463 
" clip-path="url(#p6e90a49176)" style="fill: none; stroke-dasharray: 3.7,1.6; stroke-dashoffset: 0; stroke: #f29888"/>
    <path d="M 420.284584 691.579601 
L 395.865732 696.554202 
L 377.459578 700.305172 
L 365.1312 700.265132 
L 348.534403 698.890951 
L 316.259357 690.846063 
" clip-path="url(#p6e90a49176)" style="fill: none; stroke-dasharray: 3.7,1.6; stroke-dashoffset: 0; stroke: #f29888"/>
    <path d="M 612.087191 568.341342 
L 611.380851 568.611182 
L 595.98318 575.349155 
L 586.729428 579.181808 
L 577.43407 583.326775 
L 567.851732 588.378253 
L 563.112838 591.599091 
L 432.24597 685.663253 
L 420.284584 691.579601 
" clip-path="url(#p6e90a49176)" style="fill: none; stroke-dasharray: 3.7,1.6; stroke-dashoffset: 0; stroke: #f29888"/>
    <path d="M 597.888552 596.447165 
L 592.108425 593.152653 
L 589.853129 592.470367 
L 587.625572 591.555848 
L 584.80912 590.968057 
L 580.907694 590.764652 
L 577.380728 591.009699 
L 573.447297 591.860154 
L 568.013891 593.969474 
L 561.48271 597.409733 
" clip-path="url(#p6e90a49176)" style="fill: none; stroke-dasharray: 3.7,1.6; stroke-dashoffset: 0; stroke: #f29888"/>
    <path d="M 613.787637 572.794587 
L 605.602857 575.944954 
L 598.660943 577.685904 
L 589.214094 579.98902 
" clip-path="url(#p6e90a49176)" style="fill: none; stroke-dasharray: 3.7,1.6; stroke-dashoffset: 0; stroke: #f29888"/>
    <path d="M 316.259357 690.846063 
L 307.967893 688.573379 
L 269.689005 677.894139 
" clip-path="url(#p6e90a49176)" style="fill: none; stroke-dasharray: 3.7,1.6; stroke-dashoffset: 0; stroke: #f29888"/>
   </g>
  </g>
 </g>
 <defs>
  <clipPath id="p6e90a49176">
   <rect x="7.2" y="7.2" width="752.031404" height="831.6"/>
  </clipPath>
 </defs>
</svg>
