<?xml version="1.0" encoding="utf-8" standalone="no"?>
<!DOCTYPE svg PUBLIC "-//W3C//DTD SVG 1.1//EN"
  "http://www.w3.org/Graphics/SVG/1.1/DTD/svg11.dtd">
<svg xmlns:xlink="http://www.w3.org/1999/xlink" width="851.4pt" height="696.452091pt" viewBox="0 0 851.4 696.452091" xmlns="http://www.w3.org/2000/svg" version="1.1">
 <metadata>
  <rdf:RDF xmlns:dc="http://purl.org/dc/elements/1.1/" xmlns:cc="http://creativecommons.org/ns#" xmlns:rdf="http://www.w3.org/1999/02/22-rdf-syntax-ns#">
   <cc:Work>
    <dc:type rdf:resource="http://purl.org/dc/dcmitype/StillImage"/>
    <dc:date>2025-03-16T14:38:37.010447</dc:date>
    <dc:format>image/svg+xml</dc:format>
    <dc:creator>
     <cc:Agent>
      <dc:title>Matplotlib v3.10.1, https://matplotlib.org/</dc:title>
     </cc:Agent>
    </dc:creator>
   </cc:Work>
  </rdf:RDF>
 </metadata>
 <defs>
  <style type="text/css">*{stroke-linejoin: round; stroke-linecap: butt}</style>
 </defs>
 <g id="figure_1">
  <g id="patch_1">
   <path d="M 0 696.452091 
L 851.4 696.452091 
L 851.4 0 
L 0 0 
z
" style="fill: #ffffff"/>
  </g>
  <g id="axes_1">
   <g id="PatchCollection_1">
    <path d="M 45.245455 397.913547 
L 56.413631 399.283178 
L 62.209847 401.074915 
L 81.069648 409.714808 
L 94.767654 422.676123 
L 107.09468 453.973965 
L 114.259912 465.778178 
L 136.596264 488.329863 
L 156.194586 498.655229 
L 178.532903 503.505022 
L 190.333536 510.459442 
L 198.761719 513.411233 
L 201.501712 515.306283 
L 205.92695 520.57523 
L 209.509566 533.011127 
L 214.777425 535.540812 
L 225.525272 538.914709 
L 232.268211 543.971127 
L 237.628386 557.980328 
L 256.081607 568.420814 
L 299.913653 578.539554 
L 296.816184 596.964635 
L 339.54634 617.810184 
L 383.346961 658.249724 
L 450.717422 643.195589 
L 497.126438 619.897101 
L 503.875269 612.337563 
L 506.008339 599.405766 
L 513.910128 587.285711 
L 520.653067 575.481498 
L 522.424733 568.922618 
L 565.357198 566.277813 
L 602.943237 552.823549 
L 613.926783 541.639212 
L 627.178925 531.219389 
L 632.405538 530.581802 
L 632.446785 529.427652 
L 630.339248 517.835968 
L 631.814327 511.303654 
L 634.764486 508.351863 
L 644.037254 503.505022 
L 650.147735 494.440071 
L 659.420503 486.009755 
L 651.832979 482.007126 
L 654.362808 472.942176 
L 649.937571 472.100915 
L 644.037254 473.576811 
L 633.7117 467.885757 
L 634.97465 461.563021 
L 643.614961 457.979546 
L 651.41265 446.387862 
L 650.990357 440.696809 
L 647.197577 431.63481 
L 640.454638 426.57544 
L 633.921864 427.629229 
L 624.438931 422.782388 
L 623.981284 421.740406 
L 585.654759 404.986039 
L 558.690861 354.079448 
L 528.766984 362.087657 
L 515.701436 347.966288 
L 494.840163 318.463135 
L 493.152955 306.661874 
L 535.932216 312.562504 
L 535.509923 294.438506 
L 524.129618 292.753034 
L 530.874521 233.746728 
L 546.25777 232.061255 
L 564.591178 233.956305 
L 564.168885 212.67389 
L 578.709512 222.157995 
L 598.940292 223.421362 
L 597.887506 236.063884 
L 618.430586 237.775923 
L 631.604163 205.087787 
L 650.357899 210.144205 
L 672.696216 211.410524 
L 686.288157 219.206204 
L 696.82584 236.908096 
L 704.095172 250.185253 
L 739.039424 249.922543 
L 768.187461 250.208867 
L 791.126808 245.547989 
L 769.210785 218.574521 
L 756.777694 214.571892 
L 754.247864 210.566311 
L 754.300896 206.035312 
L 760.992767 205.194051 
L 793.02418 194.44658 
L 806.154545 193.183213 
L 791.054134 97.303131 
L 790.857719 96.04862 
L 789.182296 94.947602 
L 772.740368 84.138142 
L 753.831464 105.219835 
L 753.220612 98.235897 
L 750.847915 71.303754 
L 732.669675 73.355249 
L 733.256957 89.625522 
L 702.828293 91.792137 
L 692.062768 92.556651 
L 688.690317 73.942656 
L 680.627467 75.994151 
L 683.852607 96.222776 
L 644.563647 100.033538 
L 647.203469 117.623262 
L 649.077271 123.402869 
L 623.384181 116.374654 
L 623.806474 96.358558 
L 622.753688 79.291301 
L 612.663832 77.039085 
L 603.192684 74.845904 
L 590.089817 68.756358 
L 597.465213 64.541201 
L 608.000932 62.011516 
L 614.955999 58.008887 
L 619.803529 52.530362 
L 618.958943 38.202368 
L 581.449506 42.839632 
L 581.449506 60.116466 
L 554.685952 60.116466 
L 551.794719 77.157156 
L 502.557322 84.173564 
L 479.244785 83.716036 
L 476.504791 77.3933 
L 471.121047 74.16404 
L 465.969073 71.073515 
L 435.622903 66.436251 
L 385.364146 64.647465 
L 383.995131 101.205399 
L 374.270608 102.023045 
L 370.703705 81.924299 
L 362.25981 74.842952 
L 355.617043 71.979714 
L 299.029784 67.141729 
L 291.994187 85.758676 
L 266.526974 80.587138 
L 252.997886 77.841972 
L 258.422877 63.770783 
L 254.025138 49.847184 
L 238.044786 47.50051 
L 221.77374 89.129621 
L 202.568248 88.837394 
L 198.025161 101.736722 
L 217.961318 101.296905 
L 233.647047 114.636049 
L 229.836589 129.586872 
L 211.803697 131.053912 
L 214.657612 153.239574 
L 216.348748 166.380949 
L 207.993239 179.867683 
L 171.66033 178.244198 
L 163.968706 178.365221 
L 194.167564 282.011466 
L 319.525725 359.693755 
L 321.397563 381.265445 
L 317.991721 400.165764 
L 150.29427 392.857129 
L 85.178657 390.114915 
L 66.106728 392.012916 
L 54.201994 394.542601 
L 45.245455 397.913547 
" clip-path="url(#p2bb292a5ab)" style="fill: #fbd6c9"/>
   </g>
   <g id="PatchCollection_2">
    <path d="M 432.059929 420.536075 
L 434.868668 420.701375 
L 434.705643 423.473107 
L 431.898868 423.307807 
L 432.059929 420.536075 
" clip-path="url(#p2bb292a5ab)" style="fill: #e6482f"/>
    <path d="M 426.955094 395.065068 
L 435.933239 396.325483 
L 435.524695 399.230046 
L 426.54655 397.966679 
L 426.955094 395.065068 
" clip-path="url(#p2bb292a5ab)" style="fill: #e6482f"/>
    <path d="M 441.189314 280.550329 
L 446.050593 281.075748 
L 445.757934 283.773685 
L 440.896655 283.248266 
L 441.189314 280.550329 
" clip-path="url(#p2bb292a5ab)" style="fill: #e6482f"/>
    <path d="M 430.704663 279.103951 
L 435.565942 279.62937 
L 435.275248 282.324355 
L 430.413968 281.798937 
L 430.704663 279.103951 
" clip-path="url(#p2bb292a5ab)" style="fill: #e6482f"/>
    <path d="M 420.300542 277.837633 
L 425.161822 278.363052 
L 424.869163 281.060989 
L 420.007884 280.53557 
L 420.300542 277.837633 
" clip-path="url(#p2bb292a5ab)" style="fill: #e6482f"/>
    <path d="M 411.155444 275.87174 
L 411.080806 276.473905 
L 412.606954 276.66282 
L 412.713018 275.821559 
L 414.412011 276.034088 
L 413.871868 280.376173 
L 411.725049 280.10756 
L 411.819328 279.351902 
L 410.847072 279.230878 
L 410.756721 279.954067 
L 409.291463 279.771056 
L 409.798214 275.700536 
L 411.155444 275.87174 
" clip-path="url(#p2bb292a5ab)" style="fill: #e6482f"/>
    <path d="M 396.406616 275.124937 
L 401.267896 275.650355 
L 400.975237 278.348293 
L 396.115922 277.822874 
L 396.406616 275.124937 
" clip-path="url(#p2bb292a5ab)" style="fill: #e6482f"/>
    <path d="M 385.387716 273.256453 
L 391.354814 274.130183 
L 390.961983 276.801554 
L 384.994885 275.927824 
L 385.387716 273.256453 
" clip-path="url(#p2bb292a5ab)" style="fill: #e6482f"/>
    <path d="M 443.42452 266.443719 
L 448.268122 267.113775 
L 447.894933 269.802857 
L 443.053295 269.129849 
L 443.42452 266.443719 
" clip-path="url(#p2bb292a5ab)" style="fill: #e6482f"/>
    <path d="M 433.183424 265.035714 
L 438.027027 265.705771 
L 437.655802 268.391901 
L 432.812199 267.721844 
L 433.183424 265.035714 
" clip-path="url(#p2bb292a5ab)" style="fill: #e6482f"/>
    <path d="M 456.835759 282.71104 
L 461.697039 283.236459 
L 461.40438 285.934396 
L 456.545065 285.408977 
L 456.835759 282.71104 
" clip-path="url(#p2bb292a5ab)" style="fill: #e6482f"/>
    <path d="M 479.963665 271.252187 
L 484.824945 271.777605 
L 484.532286 274.475543 
L 479.671007 273.950124 
L 479.963665 271.252187 
" clip-path="url(#p2bb292a5ab)" style="fill: #e6482f"/>
    <path d="M 469.638111 270.015386 
L 474.499391 270.540805 
L 474.206732 273.238742 
L 469.345452 272.713323 
L 469.638111 270.015386 
" clip-path="url(#p2bb292a5ab)" style="fill: #e6482f"/>
    <path d="M 459.074894 268.619189 
L 463.936174 269.144608 
L 463.643515 271.842545 
L 458.782235 271.317126 
L 459.074894 268.619189 
" clip-path="url(#p2bb292a5ab)" style="fill: #e6482f"/>
    <path d="M 505.261961 232.403663 
L 510.802838 233.05896 
L 510.486609 235.74509 
L 504.943768 235.089793 
L 505.261961 232.403663 
" clip-path="url(#p2bb292a5ab)" style="fill: #e6482f"/>
    <path d="M 506.469915 227.052065 
L 512.010792 227.707363 
L 511.692599 230.393493 
L 506.151722 229.738195 
L 506.469915 227.052065 
" clip-path="url(#p2bb292a5ab)" style="fill: #e6482f"/>
    <path d="M 498.501345 212.077628 
L 498.159582 213.58009 
L 497.000732 213.317381 
L 497.342495 211.814919 
L 498.501345 212.077628 
" clip-path="url(#p2bb292a5ab)" style="fill: #e6482f"/>
    <path d="M 525.231508 204.16978 
L 525.205974 205.229473 
L 523.783927 205.194051 
L 523.809461 204.134358 
L 525.231508 204.16978 
" clip-path="url(#p2bb292a5ab)" style="fill: #e6482f"/>
    <path d="M 528.030427 194.177967 
L 532.412453 194.535133 
L 532.190504 197.244878 
L 527.808478 196.887711 
L 528.030427 194.177967 
" clip-path="url(#p2bb292a5ab)" style="fill: #e6482f"/>
    <path d="M 519.140669 193.124177 
L 523.520731 193.481344 
L 523.300746 196.191088 
L 518.918719 195.833921 
L 519.140669 193.124177 
" clip-path="url(#p2bb292a5ab)" style="fill: #e6482f"/>
    <path d="M 422.298086 263.571626 
L 427.141689 264.244634 
L 426.770464 266.930764 
L 421.926861 266.260708 
L 422.298086 263.571626 
" clip-path="url(#p2bb292a5ab)" style="fill: #e6482f"/>
    <path d="M 354.839239 263.184941 
L 361.505575 263.447651 
L 361.401475 266.054082 
L 354.737103 265.791373 
L 354.839239 263.184941 
" clip-path="url(#p2bb292a5ab)" style="fill: #e6482f"/>
    <path d="M 411.6072 262.349584 
L 416.468479 262.875003 
L 416.177784 265.57294 
L 411.316505 265.047521 
L 411.6072 262.349584 
" clip-path="url(#p2bb292a5ab)" style="fill: #e6482f"/>
    <path d="M 400.130651 259.908453 
L 400.030479 260.923869 
L 402.138016 261.133446 
L 402.238188 260.120982 
L 404.714985 260.368932 
L 404.326083 264.277104 
L 397.412263 263.592288 
L 397.799201 259.678213 
L 400.130651 259.908453 
" clip-path="url(#p2bb292a5ab)" style="fill: #e6482f"/>
    <path d="M 390.665396 259.663454 
L 395.526676 260.188873 
L 395.235981 262.88681 
L 390.374701 262.35844 
L 390.665396 259.663454 
" clip-path="url(#p2bb292a5ab)" style="fill: #e6482f"/>
    <path d="M 426.927596 156.040824 
L 433.906233 156.09986 
L 434.02801 158.58822 
L 432.329018 158.58822 
L 432.268129 164.291081 
L 434.998302 164.353068 
L 434.937413 169.813882 
L 425.591972 169.630871 
L 425.65286 164.111021 
L 428.26322 164.170057 
L 428.324109 158.526232 
L 426.866707 158.526232 
L 426.927596 156.040824 
" clip-path="url(#p2bb292a5ab)" style="fill: #e6482f"/>
    <path d="M 392.061909 152.599036 
L 398.916805 153.106744 
L 398.673249 156.38028 
L 391.820318 155.872572 
L 392.061909 152.599036 
" clip-path="url(#p2bb292a5ab)" style="fill: #e6482f"/>
    <path d="M 387.986291 152.02934 
L 387.805589 155.043119 
L 381.123539 154.641675 
L 381.304241 151.630848 
L 387.986291 152.02934 
" clip-path="url(#p2bb292a5ab)" style="fill: #e6482f"/>
    <path d="M 393.462351 147.430449 
L 398.080075 147.743339 
L 397.919015 150.090013 
L 393.30129 149.777123 
L 393.462351 147.430449 
" clip-path="url(#p2bb292a5ab)" style="fill: #e6482f"/>
    <path d="M 382.67522 146.172986 
L 387.296873 146.444551 
L 387.159382 148.791225 
L 382.537729 148.522612 
L 382.67522 146.172986 
" clip-path="url(#p2bb292a5ab)" style="fill: #e6482f"/>
    <path d="M 510.592673 192.158941 
L 514.958986 192.663698 
L 514.646686 195.364587 
L 510.280373 194.85983 
L 510.592673 192.158941 
" clip-path="url(#p2bb292a5ab)" style="fill: #e6482f"/>
    <path d="M 502.372691 191.158284 
L 506.740968 191.66304 
L 506.428668 194.363929 
L 502.062355 193.859173 
L 502.372691 191.158284 
" clip-path="url(#p2bb292a5ab)" style="fill: #e6482f"/>
    <path d="M 493.337586 189.894918 
L 497.705863 190.396722 
L 497.393563 193.100563 
L 493.02725 192.595806 
L 493.337586 189.894918 
" clip-path="url(#p2bb292a5ab)" style="fill: #e6482f"/>
    <path d="M 529.189277 185.204521 
L 533.55559 185.709278 
L 533.245254 188.410167 
L 528.876977 187.908362 
L 529.189277 185.204521 
" clip-path="url(#p2bb292a5ab)" style="fill: #e6482f"/>
    <path d="M 520.048108 184.150732 
L 524.416385 184.655488 
L 524.104084 187.356377 
L 519.737771 186.854573 
L 520.048108 184.150732 
" clip-path="url(#p2bb292a5ab)" style="fill: #e6482f"/>
    <path d="M 512.01472 183.362604 
L 516.381033 183.864408 
L 516.070697 186.568249 
L 511.70242 186.063493 
L 512.01472 183.362604 
" clip-path="url(#p2bb292a5ab)" style="fill: #e6482f"/>
    <path d="M 502.87355 182.096285 
L 507.241828 182.601041 
L 506.929527 185.30193 
L 502.563214 184.800126 
L 502.87355 182.096285 
" clip-path="url(#p2bb292a5ab)" style="fill: #e6482f"/>
    <path d="M 494.602501 181.122194 
L 498.970778 181.62695 
L 498.658477 184.327839 
L 494.292164 183.823083 
L 494.602501 181.122194 
" clip-path="url(#p2bb292a5ab)" style="fill: #e6482f"/>
    <path d="M 536.342724 172.116279 
L 535.991141 175.558068 
L 527.40779 174.684337 
L 527.759374 171.242549 
L 536.342724 172.116279 
" clip-path="url(#p2bb292a5ab)" style="fill: #e6482f"/>
    <path d="M 510.559283 169.276656 
L 510.195914 172.718445 
L 501.616492 171.812245 
L 501.979861 168.370456 
L 510.559283 169.276656 
" clip-path="url(#p2bb292a5ab)" style="fill: #e6482f"/>
    <path d="M 383.470702 140.092296 
L 389.243349 140.570487 
L 389.048898 142.917161 
L 383.276251 142.436019 
L 383.470702 140.092296 
" clip-path="url(#p2bb292a5ab)" style="fill: #e6482f"/>
    <path d="M 431.89494 137.987669 
L 431.309622 137.937489 
L 431.456934 136.148703 
L 436.143404 136.535388 
L 435.870386 139.853201 
L 431.76727 139.513745 
L 431.89494 137.987669 
" clip-path="url(#p2bb292a5ab)" style="fill: #e6482f"/>
    <path d="M 425.558581 135.971596 
L 429.944535 136.296293 
L 429.791331 138.371402 
L 429.390644 138.341884 
L 429.304221 139.528504 
L 425.31699 139.233325 
L 425.558581 135.971596 
" clip-path="url(#p2bb292a5ab)" style="fill: #e6482f"/>
    <path d="M 418.982595 135.192323 
L 423.0425 135.546538 
L 422.916795 136.978157 
L 422.380581 136.93388 
L 422.247018 138.457004 
L 418.725291 138.150018 
L 418.982595 135.192323 
" clip-path="url(#p2bb292a5ab)" style="fill: #e6482f"/>
    <path d="M 415.894946 134.852867 
L 415.651391 137.701346 
L 412.218051 137.406166 
L 412.46357 134.557688 
L 415.894946 134.852867 
" clip-path="url(#p2bb292a5ab)" style="fill: #e6482f"/>
    <path d="M 389.099966 132.326134 
L 393.698049 132.854504 
L 393.430924 135.192323 
L 388.830877 134.663952 
L 389.099966 132.326134 
" clip-path="url(#p2bb292a5ab)" style="fill: #e6482f"/>
    <path d="M 382.928596 131.774149 
L 387.538464 132.190351 
L 387.326335 134.534074 
L 382.716467 134.114919 
L 382.928596 131.774149 
" clip-path="url(#p2bb292a5ab)" style="fill: #e6482f"/>
    <path d="M 374.899137 131.254634 
L 379.516862 131.599993 
L 379.340088 133.946667 
L 374.724327 133.601308 
L 374.899137 131.254634 
" clip-path="url(#p2bb292a5ab)" style="fill: #e6482f"/>
    <path d="M 362.450333 129.731509 
L 367.068057 130.068014 
L 366.897176 132.414688 
L 362.279452 132.078183 
L 362.450333 129.731509 
" clip-path="url(#p2bb292a5ab)" style="fill: #e6482f"/>
    <path d="M 356.251465 129.300548 
L 360.849548 129.823015 
L 360.584387 132.160833 
L 355.98434 131.638366 
L 356.251465 129.300548 
" clip-path="url(#p2bb292a5ab)" style="fill: #e6482f"/>
    <path d="M 501.979861 168.370456 
L 501.616492 171.812245 
L 496.063831 171.174658 
L 496.46059 167.738773 
L 501.979861 168.370456 
" clip-path="url(#p2bb292a5ab)" style="fill: #e6482f"/>
    <path d="M 524.547983 163.133979 
L 524.1964 166.575767 
L 515.615013 165.702037 
L 515.964633 162.260248 
L 524.547983 163.133979 
" clip-path="url(#p2bb292a5ab)" style="fill: #e6482f"/>
    <path d="M 655.38024 159.388155 
L 654.419769 159.535745 
L 654.221389 158.239909 
L 655.537372 158.036235 
L 655.431308 157.35142 
L 658.469853 156.882085 
L 658.921608 159.822069 
L 655.527551 160.344536 
L 655.38024 159.388155 
" clip-path="url(#p2bb292a5ab)" style="fill: #e6482f"/>
    <path d="M 536.882866 156.371425 
L 536.761089 158.543943 
L 532.398704 158.295993 
L 532.522446 156.123474 
L 536.882866 156.371425 
" clip-path="url(#p2bb292a5ab)" style="fill: #e6482f"/>
    <path d="M 530.29706 156.238594 
L 530.175282 158.411113 
L 525.814862 158.163162 
L 525.936639 155.993596 
L 530.29706 156.238594 
" clip-path="url(#p2bb292a5ab)" style="fill: #e6482f"/>
    <path d="M 523.632688 155.949319 
L 523.51091 158.121837 
L 519.150489 157.873887 
L 519.272267 155.70432 
L 523.632688 155.949319 
" clip-path="url(#p2bb292a5ab)" style="fill: #e6482f"/>
    <path d="M 502.111459 155.344202 
L 501.989681 157.513768 
L 497.629261 157.268769 
L 497.751038 155.096251 
L 502.111459 155.344202 
" clip-path="url(#p2bb292a5ab)" style="fill: #e6482f"/>
    <path d="M 509.1392 155.317635 
L 509.015458 157.490154 
L 504.655038 157.242203 
L 504.778779 155.069685 
L 509.1392 155.317635 
" clip-path="url(#p2bb292a5ab)" style="fill: #e6482f"/>
    <path d="M 466.391366 88.834442 
L 467.884122 88.852153 
L 467.860552 91.145695 
L 466.367796 91.127984 
L 466.391366 88.834442 
" clip-path="url(#p2bb292a5ab)" style="fill: #e6482f"/>
    <path d="M 453.017445 86.045 
L 460.25535 86.785899 
L 460.508726 84.318202 
L 464.71005 84.746211 
L 464.077593 90.927262 
L 452.636399 89.758353 
L 453.017445 86.045 
" clip-path="url(#p2bb292a5ab)" style="fill: #e6482f"/>
    <path d="M 341.557633 127.88664 
L 346.206784 128.347119 
L 346.075186 129.678377 
L 346.962983 129.766931 
L 346.744962 131.954208 
L 345.692176 131.847944 
L 345.749137 131.278248 
L 344.886873 131.192646 
L 344.963475 130.434036 
L 341.339612 130.073917 
L 341.557633 127.88664 
" clip-path="url(#p2bb292a5ab)" style="fill: #e6482f"/>
    <path d="M 349.22176 128.429769 
L 353.806094 129.067356 
L 353.482009 131.39632 
L 348.897675 130.758733 
L 349.22176 128.429769 
" clip-path="url(#p2bb292a5ab)" style="fill: #e6482f"/>
    <path d="M 390.755747 76.369028 
L 397.877767 76.605171 
L 398.113466 69.423463 
L 401.299323 69.526776 
L 401.08523 76.062042 
L 404.204305 76.165354 
L 404.247517 74.831145 
L 420.834792 75.380178 
L 420.738549 78.275885 
L 411.715228 77.977754 
L 411.497207 84.560249 
L 408.014763 84.445129 
L 408.167967 79.804913 
L 402.238188 79.610095 
L 402.102661 83.704229 
L 398.598612 83.589109 
L 398.718425 79.987924 
L 390.64379 79.719311 
L 390.755747 76.369028 
" clip-path="url(#p2bb292a5ab)" style="fill: #e6482f"/>
    <path d="M 444.017694 77.514323 
L 444.343744 75.132227 
L 446.775366 75.46578 
L 446.449316 77.844924 
L 444.017694 77.514323 
" clip-path="url(#p2bb292a5ab)" style="fill: #e6482f"/>
    <path d="M 460.381056 80.693402 
L 462.639833 80.902979 
L 462.514127 82.260803 
L 460.25535 82.051226 
L 460.381056 80.693402 
" clip-path="url(#p2bb292a5ab)" style="fill: #e6482f"/>
    <path d="M 453.310104 78.913472 
L 455.885109 79.205699 
L 455.635662 81.401832 
L 453.062621 81.112556 
L 453.310104 78.913472 
" clip-path="url(#p2bb292a5ab)" style="fill: #e6482f"/>
    <path d="M 452.610865 73.777355 
L 456.906469 74.243738 
L 456.653093 76.575653 
L 452.35749 76.10927 
L 452.610865 73.777355 
" clip-path="url(#p2bb292a5ab)" style="fill: #e6482f"/>
    <path d="M 718.221363 238.755917 
L 728.195334 239.157361 
L 728.085341 241.914334 
L 721.682201 241.657528 
L 721.654703 242.33644 
L 719.517704 242.250838 
L 719.541274 241.681142 
L 718.105478 241.622107 
L 718.221363 238.755917 
" clip-path="url(#p2bb292a5ab)" style="fill: #e6482f"/>
    <path d="M 700.041159 188.622696 
L 703.38022 187.660412 
L 704.132491 190.275699 
L 700.791466 191.235031 
L 700.041159 188.622696 
" clip-path="url(#p2bb292a5ab)" style="fill: #e6482f"/>
    <path d="M 706.515009 191.730932 
L 705.483828 191.984786 
L 705.39937 191.642378 
L 705.010467 191.739787 
L 704.511572 189.720762 
L 705.754881 189.413776 
L 705.599713 188.787996 
L 704.706023 189.006428 
L 704.352476 187.568906 
L 707.557974 186.777826 
L 707.402806 186.140239 
L 709.048767 185.735844 
L 709.932636 189.32227 
L 706.15164 190.255036 
L 706.515009 191.730932 
" clip-path="url(#p2bb292a5ab)" style="fill: #e6482f"/>
    <path d="M 674.069159 185.718133 
L 677.461252 184.862114 
L 678.223343 187.884748 
L 674.833215 188.740767 
L 674.069159 185.718133 
" clip-path="url(#p2bb292a5ab)" style="fill: #e6482f"/>
    <path d="M 680.360342 184.746994 
L 681.772569 184.419345 
L 682.96481 184.144828 
L 683.516737 186.535779 
L 680.912269 187.134993 
L 680.360342 184.746994 
" clip-path="url(#p2bb292a5ab)" style="fill: #e6482f"/>
    <path d="M 690.670183 182.420982 
L 692.911282 181.93984 
L 693.068415 182.671884 
L 693.838363 182.506584 
L 694.032814 183.409832 
L 693.335539 183.560374 
L 693.486779 184.265852 
L 691.180863 184.717476 
L 690.670183 182.420982 
" clip-path="url(#p2bb292a5ab)" style="fill: #e6482f"/>
    <path d="M 675.161228 183.492482 
L 674.709473 183.60465 
L 674.259682 181.792251 
L 676.298473 181.284543 
L 677.125382 184.602356 
L 675.534417 184.997896 
L 675.161228 183.492482 
" clip-path="url(#p2bb292a5ab)" style="fill: #e6482f"/>
    <path d="M 687.841802 182.863751 
L 689.786314 182.429838 
L 689.648824 181.809961 
L 687.470577 182.294055 
L 687.160241 180.903762 
L 690.183073 180.230753 
L 690.670183 182.420982 
L 691.180863 184.717476 
L 688.391765 185.337352 
L 687.841802 182.863751 
" clip-path="url(#p2bb292a5ab)" style="fill: #e6482f"/>
    <path d="M 699.952772 180.035935 
L 701.732295 179.542986 
L 702.003348 180.520029 
L 702.86954 180.280934 
L 703.117023 181.175326 
L 702.339219 181.390807 
L 702.455104 181.80701 
L 700.589158 182.326525 
L 699.952772 180.035935 
" clip-path="url(#p2bb292a5ab)" style="fill: #e6482f"/>
    <path d="M 694.855794 181.216651 
L 696.515504 180.794545 
L 696.216952 179.619732 
L 695.122919 179.897201 
L 694.751694 178.430161 
L 696.694242 177.937211 
L 697.149925 179.7319 
L 697.963085 179.525275 
L 698.200747 180.463945 
L 698.640718 182.193694 
L 697.99844 182.356043 
L 698.173249 183.040858 
L 695.49218 183.722722 
L 694.855794 181.216651 
" clip-path="url(#p2bb292a5ab)" style="fill: #e6482f"/>
    <path d="M 732.017576 238.912362 
L 741.131248 238.90941 
L 741.131248 241.59554 
L 739.379223 241.598492 
L 739.379223 242.295115 
L 737.254009 242.295115 
L 737.254009 241.477469 
L 735.207361 241.477469 
L 735.207361 241.946804 
L 733.767637 241.946804 
L 733.767637 241.34759 
L 732.017576 241.34759 
L 732.017576 238.912362 
" clip-path="url(#p2bb292a5ab)" style="fill: #e6482f"/>
    <path d="M 758.869517 228.480732 
L 763.487242 228.554527 
L 763.499027 227.822483 
L 766.702561 227.872663 
L 766.688812 228.749345 
L 768.798312 228.784767 
L 768.755101 231.379391 
L 758.824341 231.217043 
L 758.869517 228.480732 
" clip-path="url(#p2bb292a5ab)" style="fill: #e6482f"/>
    <path d="M 742.213496 196.5394 
L 742.246887 194.526278 
L 743.034512 194.538085 
L 743.018799 195.488562 
L 743.886955 195.503321 
L 743.894812 195.063504 
L 744.865103 195.078263 
L 744.878852 194.121883 
L 747.455822 194.166159 
L 747.410646 196.917229 
L 744.988845 196.875904 
L 744.990809 196.681086 
L 742.213496 196.636809 
L 742.213496 196.5394 
" clip-path="url(#p2bb292a5ab)" style="fill: #e6482f"/>
    <path d="M 757.91101 191.792919 
L 757.614423 194.721096 
L 755.353682 194.490856 
L 755.65027 191.56268 
L 757.91101 191.792919 
" clip-path="url(#p2bb292a5ab)" style="fill: #e6482f"/>
    <path d="M 788.699114 188.091373 
L 789.471027 187.896555 
L 789.308002 187.256016 
L 790.227226 187.022825 
L 790.352932 187.518726 
L 792.089243 187.078909 
L 792.58421 189.030043 
L 789.158726 189.897869 
L 788.699114 188.091373 
" clip-path="url(#p2bb292a5ab)" style="fill: #e6482f"/>
    <path d="M 756.44968 186.379334 
L 758.869517 186.571201 
L 758.708456 188.575467 
L 759.898733 188.672876 
L 759.792669 189.986423 
L 758.074035 189.847689 
L 758.113318 189.363595 
L 757.461219 189.313415 
L 757.516215 188.622696 
L 756.276835 188.525286 
L 756.44968 186.379334 
" clip-path="url(#p2bb292a5ab)" style="fill: #e6482f"/>
    <path d="M 786.025902 186.033975 
L 788.009697 185.824397 
L 788.168793 187.318004 
L 786.183034 187.527581 
L 786.025902 186.033975 
" clip-path="url(#p2bb292a5ab)" style="fill: #e6482f"/>
    <path d="M 759.939981 179.421962 
L 759.776956 182.246827 
L 758.097605 182.149417 
L 758.168314 180.953942 
L 757.048747 180.889003 
L 757.143026 179.259614 
L 759.939981 179.421962 
" clip-path="url(#p2bb292a5ab)" style="fill: #e6482f"/>
    <path d="M 786.23803 177.311432 
L 788.740362 176.709266 
L 789.272647 178.920158 
L 786.768352 179.522323 
L 786.23803 177.311432 
" clip-path="url(#p2bb292a5ab)" style="fill: #e6482f"/>
    <path d="M 757.12142 177.216974 
L 756.687343 177.196312 
L 756.815013 174.799457 
L 761.715575 175.059215 
L 761.662543 176.03921 
L 759.488225 175.92409 
L 759.386089 177.878176 
L 758.912728 177.854561 
L 758.86166 178.837508 
L 757.04089 178.740099 
L 757.12142 177.216974 
" clip-path="url(#p2bb292a5ab)" style="fill: #e6482f"/>
    <path d="M 705.939512 178.754858 
L 708.995734 178.108415 
L 709.467131 180.334066 
L 706.412873 180.980508 
L 705.939512 178.754858 
" clip-path="url(#p2bb292a5ab)" style="fill: #e6482f"/>
    <path d="M 709.63212 177.399985 
L 712.452644 176.780109 
L 713.071353 179.596118 
L 710.250828 180.215994 
L 709.63212 177.399985 
" clip-path="url(#p2bb292a5ab)" style="fill: #e6482f"/>
    <path d="M 712.65888 175.723368 
L 715.334057 175.071022 
L 716.157038 178.453775 
L 713.481861 179.106121 
L 712.65888 175.723368 
" clip-path="url(#p2bb292a5ab)" style="fill: #e6482f"/>
    <path d="M 704.081423 175.909331 
L 706.566077 175.587586 
L 706.762492 177.104806 
L 705.876659 177.219926 
L 705.998436 178.158596 
L 704.397651 178.365221 
L 704.081423 175.909331 
" clip-path="url(#p2bb292a5ab)" style="fill: #e6482f"/>
    <path d="M 719.82804 175.327828 
L 722.56607 174.817168 
L 723.078714 177.55643 
L 720.342648 178.070042 
L 719.82804 175.327828 
" clip-path="url(#p2bb292a5ab)" style="fill: #e6482f"/>
    <path d="M 662.233171 173.199587 
L 663.639505 172.733204 
L 663.388093 171.974593 
L 666.130051 171.059538 
L 667.074809 173.896209 
L 662.926517 175.277648 
L 662.233171 173.199587 
" clip-path="url(#p2bb292a5ab)" style="fill: #e6482f"/>
    <path d="M 669.844265 170.230085 
L 670.997223 169.902436 
L 670.547432 168.308469 
L 673.049763 167.60299 
L 674.00827 170.99755 
L 670.352981 172.027725 
L 669.844265 170.230085 
" clip-path="url(#p2bb292a5ab)" style="fill: #e6482f"/>
    <path d="M 688.134461 164.730898 
L 688.761026 168.184493 
L 685.258941 168.819128 
L 684.632376 165.368484 
L 688.134461 164.730898 
" clip-path="url(#p2bb292a5ab)" style="fill: #e6482f"/>
    <path d="M 696.317124 161.055918 
L 699.750464 160.601342 
L 700.072586 163.027714 
L 696.639245 163.48229 
L 696.317124 161.055918 
" clip-path="url(#p2bb292a5ab)" style="fill: #e6482f"/>
    <path d="M 702.728121 159.866346 
L 704.906367 159.574118 
L 704.973148 160.072971 
L 707.341917 159.754178 
L 707.640469 161.991635 
L 703.091489 162.599704 
L 702.728121 159.866346 
" clip-path="url(#p2bb292a5ab)" style="fill: #e6482f"/>
    <path d="M 787.304565 169.441956 
L 789.767614 169.459667 
L 789.747972 172.252062 
L 787.28296 172.231399 
L 787.304565 169.441956 
" clip-path="url(#p2bb292a5ab)" style="fill: #e6482f"/>
    <path d="M 757.781376 166.437033 
L 760.297457 166.865043 
L 759.804454 169.751894 
L 757.288374 169.320933 
L 757.781376 166.437033 
" clip-path="url(#p2bb292a5ab)" style="fill: #e6482f"/>
    <path d="M 758.981474 162.224827 
L 761.301139 162.623319 
L 760.829742 165.362581 
L 758.510077 164.964089 
L 758.981474 162.224827 
" clip-path="url(#p2bb292a5ab)" style="fill: #e6482f"/>
    <path d="M 779.420454 161.489831 
L 781.649768 161.410132 
L 781.732262 163.786324 
L 780.606802 163.824698 
L 780.598946 163.576747 
L 779.495092 163.61512 
L 779.420454 161.489831 
" clip-path="url(#p2bb292a5ab)" style="fill: #e6482f"/>
    <path d="M 788.41824 153.490477 
L 788.467344 155.27631 
L 787.361526 155.30878 
L 787.406701 156.991301 
L 785.762705 157.03853 
L 785.666462 153.567223 
L 788.41824 153.490477 
" clip-path="url(#p2bb292a5ab)" style="fill: #e6482f"/>
    <path d="M 735.281999 150.816154 
L 738.265548 149.880436 
L 738.9805 152.162171 
L 735.996951 153.097888 
L 735.281999 150.816154 
" clip-path="url(#p2bb292a5ab)" style="fill: #e6482f"/>
    <path d="M 762.179115 143.368785 
L 762.071087 144.673476 
L 763.371357 144.779741 
L 762.954956 149.85387 
L 760.774746 149.673811 
L 760.894559 148.209722 
L 761.827532 148.286469 
L 761.957166 146.704309 
L 760.684395 146.598044 
L 760.839563 144.71185 
L 760.319062 144.667573 
L 760.436911 143.227099 
L 762.179115 143.368785 
" clip-path="url(#p2bb292a5ab)" style="fill: #e6482f"/>
    <path d="M 784.33673 142.728246 
L 785.83145 142.678066 
L 785.864841 143.696433 
L 787.807389 143.631494 
L 787.887919 146.14642 
L 784.450651 146.258588 
L 784.33673 142.728246 
" clip-path="url(#p2bb292a5ab)" style="fill: #e6482f"/>
    <path d="M 764.528243 138.489474 
L 764.274867 142.961437 
L 762.163402 142.843366 
L 762.295 140.520306 
L 761.06544 140.452415 
L 761.187218 138.300559 
L 764.528243 138.489474 
" clip-path="url(#p2bb292a5ab)" style="fill: #e6482f"/>
    <path d="M 733.852095 138.232668 
L 734.531692 138.023091 
L 735.079691 139.800069 
L 734.39813 140.009646 
L 733.852095 138.232668 
" clip-path="url(#p2bb292a5ab)" style="fill: #e6482f"/>
    <path d="M 709.131261 158.963098 
L 711.957678 158.667918 
L 712.240516 161.377663 
L 709.414099 161.672842 
L 709.131261 158.963098 
" clip-path="url(#p2bb292a5ab)" style="fill: #e6482f"/>
    <path d="M 715.730816 157.794188 
L 719.048271 157.375034 
L 719.452887 160.548209 
L 716.133468 160.967364 
L 715.730816 157.794188 
" clip-path="url(#p2bb292a5ab)" style="fill: #e6482f"/>
    <path d="M 721.40722 156.430461 
L 724.174712 155.972933 
L 724.765922 159.553456 
L 723.595286 159.745322 
L 723.664032 160.167428 
L 722.069139 160.43309 
L 721.40722 156.430461 
" clip-path="url(#p2bb292a5ab)" style="fill: #e6482f"/>
    <path d="M 662.537614 158.053946 
L 662.050504 155.509502 
L 664.778714 154.987035 
L 665.318856 157.808947 
L 662.590647 158.331414 
L 662.537614 158.053946 
" clip-path="url(#p2bb292a5ab)" style="fill: #e6482f"/>
    <path d="M 682.992308 149.650196 
L 682.206646 149.723991 
L 682.114331 148.732189 
L 685.691055 148.392733 
L 685.971928 151.379946 
L 683.180867 151.645607 
L 682.992308 149.650196 
" clip-path="url(#p2bb292a5ab)" style="fill: #e6482f"/>
    <path d="M 690.403058 147.823038 
L 692.518452 147.468823 
L 692.622552 148.082795 
L 694.08781 147.837797 
L 694.380469 149.582305 
L 692.944673 149.824352 
L 693.027167 150.314349 
L 690.884276 150.674468 
L 690.403058 147.823038 
" clip-path="url(#p2bb292a5ab)" style="fill: #e6482f"/>
    <path d="M 704.66674 146.987681 
L 707.186749 146.456358 
L 707.768139 149.216283 
L 705.24813 149.747605 
L 704.66674 146.987681 
" clip-path="url(#p2bb292a5ab)" style="fill: #e6482f"/>
    <path d="M 695.458789 149.363873 
L 694.954002 146.226119 
L 696.464436 145.984072 
L 696.652995 147.161836 
L 697.853092 146.967018 
L 698.20664 149.154295 
L 695.496108 149.591161 
L 695.458789 149.363873 
" clip-path="url(#p2bb292a5ab)" style="fill: #e6482f"/>
    <path d="M 700.985917 146.364853 
L 703.936075 145.786302 
L 704.332834 147.799423 
L 701.382676 148.377974 
L 700.985917 146.364853 
" clip-path="url(#p2bb292a5ab)" style="fill: #e6482f"/>
    <path d="M 707.750461 144.322213 
L 711.439141 143.637398 
L 711.918395 146.217263 
L 708.229715 146.902079 
L 707.750461 144.322213 
" clip-path="url(#p2bb292a5ab)" style="fill: #e6482f"/>
    <path d="M 712.819941 143.678723 
L 714.507149 143.253665 
L 714.330375 142.559994 
L 717.084118 141.866323 
L 717.757823 144.537694 
L 714.998187 145.231365 
L 715.10818 145.66823 
L 713.426864 146.093288 
L 712.819941 143.678723 
" clip-path="url(#p2bb292a5ab)" style="fill: #e6482f"/>
    <path d="M 719.309504 142.099514 
L 719.971423 141.901744 
L 719.505919 140.357958 
L 720.823866 139.959466 
L 721.149915 141.042773 
L 722.226272 140.718076 
L 722.954972 143.135593 
L 719.900714 144.059504 
L 719.309504 142.099514 
" clip-path="url(#p2bb292a5ab)" style="fill: #e6482f"/>
    <path d="M 724.318095 139.696756 
L 725.166609 139.478324 
L 724.606825 137.299902 
L 726.074048 136.922073 
L 725.887453 136.198884 
L 726.726147 135.986355 
L 728.177656 141.636083 
L 725.02519 142.444874 
L 724.318095 139.696756 
" clip-path="url(#p2bb292a5ab)" style="fill: #e6482f"/>
    <path d="M 729.075274 137.415022 
L 731.70724 136.724303 
L 731.442079 135.71479 
L 732.70503 135.384189 
L 734.011192 140.357958 
L 730.116276 141.382229 
L 729.075274 137.415022 
" clip-path="url(#p2bb292a5ab)" style="fill: #e6482f"/>
    <path d="M 764.528243 134.410098 
L 764.217907 135.921415 
L 760.788495 135.215937 
L 761.098831 133.70462 
L 764.528243 134.410098 
" clip-path="url(#p2bb292a5ab)" style="fill: #e6482f"/>
    <path d="M 780.889641 132.934203 
L 781.51817 135.726597 
L 778.224284 136.467497 
L 777.595755 133.675102 
L 780.889641 132.934203 
" clip-path="url(#p2bb292a5ab)" style="fill: #e6482f"/>
    <path d="M 761.144007 131.774149 
L 762.393208 131.966015 
L 762.695688 130.000122 
L 765.594778 130.445843 
L 765.089991 133.725283 
L 760.941699 133.084744 
L 761.144007 131.774149 
" clip-path="url(#p2bb292a5ab)" style="fill: #e6482f"/>
    <path d="M 756.422182 126.136228 
L 756.85626 126.950922 
L 756.593063 127.325799 
L 756.17077 127.925013 
L 755.829008 126.844658 
L 756.047029 126.5849 
L 756.422182 126.136228 
" clip-path="url(#p2bb292a5ab)" style="fill: #e6482f"/>
    <path d="M 741.363018 122.231008 
L 743.08558 120.86728 
L 743.70036 121.643601 
L 741.977798 123.007329 
L 741.363018 122.231008 
" clip-path="url(#p2bb292a5ab)" style="fill: #e6482f"/>
    <path d="M 762.93335 113.405152 
L 758.21349 117.998139 
L 756.231659 115.961403 
L 760.953484 111.368416 
L 762.93335 113.405152 
" clip-path="url(#p2bb292a5ab)" style="fill: #e6482f"/>
    <path d="M 753.892352 112.708529 
L 755.880076 110.86366 
L 757.103743 112.180159 
L 755.11602 114.025028 
L 753.892352 112.708529 
" clip-path="url(#p2bb292a5ab)" style="fill: #e6482f"/>
    <path d="M 772.981959 112.08275 
L 768.28174 106.985006 
L 763.701334 102.017142 
L 768.713854 97.397589 
L 773.355148 102.430393 
L 777.974837 107.442534 
L 780.881784 110.595047 
L 782.081882 111.896787 
L 777.069362 116.51634 
L 775.749451 115.084721 
L 772.981959 112.08275 
" clip-path="url(#p2bb292a5ab)" style="fill: #e6482f"/>
    <path d="M 791.289833 100.116188 
L 791.466566 99.921867 
L 791.531811 100.336139 
L 791.289833 100.116188 
" clip-path="url(#p2bb292a5ab)" style="fill: #e6482f"/>
    <path d="M 791.831939 102.454007 
L 791.860431 102.422716 
L 791.870951 102.489513 
L 791.831939 102.454007 
" clip-path="url(#p2bb292a5ab)" style="fill: #e6482f"/>
    <path d="M 785.053646 93.291647 
L 783.356617 91.308043 
L 783.482598 91.200435 
L 785.753803 92.693599 
L 785.053646 93.291647 
" clip-path="url(#p2bb292a5ab)" style="fill: #e6482f"/>
   </g>
   <g id="LineCollection_1">
    <path d="M 298.273493 597.675571 
L 299.589568 595.739641 
L 301.716746 592.19454 
L 302.850063 589.219135 
L 303.417703 586.665835 
L 303.985343 581.987246 
L 304.242647 579.584488 
" clip-path="url(#p2bb292a5ab)" style="fill: none; stroke: #e6482f; stroke-width: 0.2"/>
    <path d="M 367.364645 500.296425 
L 357.098015 512.493226 
L 356.139508 513.632617 
L 354.22053 515.9114 
L 324.991964 548.212851 
L 306.047704 565.897032 
L 295.799545 577.589802 
" clip-path="url(#p2bb292a5ab)" style="fill: none; stroke: #e6482f; stroke-width: 0.2"/>
    <path d="M 384.429127 658.00791 
L 385.882683 651.664277 
L 387.399009 648.629836 
L 388.699279 644.512087 
L 389.999548 637.144417 
L 392.166009 623.707863 
L 391.515875 612.871838 
L 393.955353 603.617972 
L 397.697065 591.849181 
L 398.663429 588.814739 
L 398.665393 585.78325 
L 399.101435 582.976096 
L 400.26225 581.134179 
L 403.216336 578.634011 
L 408.631507 571.915735 
L 420.331969 556.74648 
L 429.28458 545.839611 
" clip-path="url(#p2bb292a5ab)" style="fill: none; stroke: #e6482f; stroke-width: 0.2"/>
    <path d="M 299.77924 579.3391 
L 302.714536 579.63762 
L 304.242647 579.584488 
L 313.605767 579.250936 
L 318.936479 579.63762 
L 339.181008 581.883933 
L 354.063398 584.933134 
L 367.415713 585.113193 
L 376.075665 586.016441 
L 384.554915 587.459867 
L 392.494023 590.16666 
L 397.697065 591.849181 
L 404.221983 593.95676 
L 412.819082 596.675359 
L 416.336881 597.802943 
L 422.205771 598.650108 
L 426.517088 599.497272 
L 428.528381 600.81377 
L 435.97645 603.340504 
L 443.670039 605.040735 
L 448.735591 606.16832 
L 453.374921 606.445788 
L 459.613072 606.047296 
L 472.242578 604.78393 
L 489.923887 601.534008 
L 501.651847 598.827215 
L 506.365815 596.943972 
L 507.620909 595.414944 
L 515.412706 582.545135 
L 516.964387 580.077437 
" clip-path="url(#p2bb292a5ab)" style="fill: none; stroke: #e6482f; stroke-width: 0.2"/>
    <path d="M 431.5355 536.606408 
L 429.28458 545.839611 
L 427.6013 551.952771 
L 422.355047 567.405398 
L 421.080311 572.511996 
L 420.938892 577.615643 
L 421.22173 590.092865 
L 422.072209 593.637966 
L 423.348908 596.33 
L 426.517088 599.497272 
" clip-path="url(#p2bb292a5ab)" style="fill: none; stroke: #e6482f; stroke-width: 0.2"/>
    <path d="M 356.139508 513.632617 
L 357.726544 516.923865 
L 359.449107 518.892709 
L 361.786449 520.247581 
L 364.495017 520.861554 
L 371.509008 520.861554 
L 397.351374 522.092451 
L 402.890287 522.461425 
L 405.227629 523.447323 
L 407.197675 525.047194 
L 409.289499 528.61591 
L 414.498433 536.302374 
L 415.729957 537.246947 
L 417.287531 537.356163 
L 418.888316 537.356163 
L 420.365359 536.49424 
L 422.826444 535.880268 
L 425.656789 535.756292 
L 431.5355 536.606408 
" clip-path="url(#p2bb292a5ab)" style="fill: none; stroke: #e6482f; stroke-width: 0.2"/>
    <path d="M 460.779779 502.852676 
L 457.737306 519.128853 
" clip-path="url(#p2bb292a5ab)" style="fill: none; stroke: #e6482f; stroke-width: 0.2"/>
    <path d="M 455.011061 421.41866 
L 451.748602 451.267173 
L 449.67642 462.120909 
L 440.122778 501.663104 
L 431.5355 536.606408 
" clip-path="url(#p2bb292a5ab)" style="fill: none; stroke: #e6482f; stroke-width: 0.2"/>
    <path d="M 416.943804 501.568647 
L 426.218536 444.197633 
" clip-path="url(#p2bb292a5ab)" style="fill: none; stroke: #e6482f; stroke-width: 0.2"/>
    <path d="M 415.026791 441.000843 
L 409.925884 446.107442 
L 401.554663 454.437397 
L 398.076147 457.861474 
L 394.083023 462.209463 
L 389.567434 468.18684 
L 387.444185 471.123872 
L 382.146863 477.99269 
L 379.200633 482.196041 
L 377.167734 484.592896 
L 375.423566 486.921859 
L 373.889562 489.894313 
L 372.722855 492.698514 
L 371.892018 495.842172 
L 371.497223 500.709676 
" clip-path="url(#p2bb292a5ab)" style="fill: none; stroke: #e6482f; stroke-width: 0.2"/>
    <path d="M 532.561729 470.412491 
L 526.535706 468.544007 
L 524.249432 466.879197 
L 521.546757 465.423964 
L 517.805044 464.178308 
L 513.648896 463.139277 
L 493.074389 459.812608 
L 482.279402 458.076955 
L 480.27793 457.282923 
L 478.286278 456.925757 
L 451.748602 451.267173 
L 445.897389 449.212726 
L 442.155677 448.173696 
L 438.207729 447.547916 
L 432.387942 445.886058 
L 426.218536 444.197633 
L 421.871865 442.763062 
L 415.026791 441.000843 
L 405.162812 437.780439 
L 393.73144 433.830942 
L 387.497217 432.166132 
L 378.352119 430.713851 
L 369.20702 428.842415 
L 364.428235 428.01001 
L 358.816649 427.803385 
L 350.502388 427.177605 
L 344.84759 426.42785 
L 340.235758 426.017551 
L 337.572366 426.017551 
L 336.034434 425.813877 
L 332.550026 423.969008 
L 329.986806 422.941785 
L 327.836058 422.634798 
L 325.58121 422.634798 
L 320.55887 423.251723 
L 312.771001 424.993279 
L 307.970611 425.48918 
" clip-path="url(#p2bb292a5ab)" style="fill: none; stroke: #e6482f; stroke-width: 0.2"/>
    <path d="M 421.871865 442.763062 
L 424.0069 438.72206 
L 425.529119 436.528879 
L 427.62487 433.857508 
L 429.97989 431.761737 
L 438.229334 425.385868 
L 445.249219 419.417346 
" clip-path="url(#p2bb292a5ab)" style="fill: none; stroke: #e6482f; stroke-width: 0.2"/>
    <path d="M 285.290532 517.384344 
L 297.044025 518.066208 
L 315.613131 517.782836 
L 333.75798 516.649348 
L 338.719432 515.229536 
L 344.248524 513.529305 
L 349.492813 512.820875 
L 357.098015 512.493226 
" clip-path="url(#p2bb292a5ab)" style="fill: none; stroke: #e6482f; stroke-width: 0.2"/>
    <path d="M 319.61804 398.477339 
L 318.971834 401.352384 
L 318.186172 404.481282 
L 316.82305 407.636747 
L 316.400757 408.371743 
L 312.788679 414.647251 
L 311.90481 416.627903 
L 307.970611 425.48918 
L 306.265725 430.702044 
L 302.696859 442.612521 
L 296.725832 463.071386 
L 293.027332 492.550925 
L 290.957114 497.129153 
L 288.427284 504.449595 
L 286.712579 510.680826 
L 285.290532 517.384344 
L 279.928393 531.366979 
L 275.923484 540.178076 
L 271.128986 549.488025 
L 267.558155 555.397511 
L 264.896727 560.825855 
L 263.185949 565.032158 
L 262.182058 569.829119 
" clip-path="url(#p2bb292a5ab)" style="fill: none; stroke: #e6482f; stroke-width: 0.2"/>
    <path d="M 474.403147 503.956646 
L 464.517563 503.404661 
L 460.779779 502.852676 
L 455.781009 502.259366 
L 440.122778 501.663104 
L 416.943804 501.568647 
L 371.497223 500.709676 
L 367.364645 500.296425 
L 328.659038 496.438434 
L 293.027332 492.550925 
" clip-path="url(#p2bb292a5ab)" style="fill: none; stroke: #e6482f; stroke-width: 0.2"/>
    <path d="M 296.725832 463.071386 
L 319.92052 465.282278 
L 353.175601 469.940204 
L 371.110285 472.461034 
L 375.403924 472.177662 
L 379.226167 471.578448 
L 383.115191 471.008752 
L 387.444185 471.123872 
" clip-path="url(#p2bb292a5ab)" style="fill: none; stroke: #e6482f; stroke-width: 0.2"/>
    <path d="M 318.313885 398.377954 
L 319.61804 398.477339 
" clip-path="url(#p2bb292a5ab)" style="fill: none; stroke: #e6482f; stroke-width: 0.2"/>
    <path d="M 327.836058 422.634798 
L 323.613128 418.334038 
L 319.307704 413.620028 
L 317.873872 411.264499 
L 316.400757 408.371743 
" clip-path="url(#p2bb292a5ab)" style="fill: none; stroke: #e6482f; stroke-width: 0.2"/>
    <path d="M 319.61804 398.477339 
L 320.173896 394.811214 
L 321.582194 385.088014 
L 321.984845 383.612119 
L 322.990491 382.540618 
L 324.062919 381.935501 
L 325.404436 381.534058 
L 327.48251 381.064723 
L 329.157933 380.92894 
L 331.840967 380.92894 
L 338.613367 381.935501 
" clip-path="url(#p2bb292a5ab)" style="fill: none; stroke: #e6482f; stroke-width: 0.2"/>
    <path d="M 348.43217 360.508449 
L 356.811249 350.180131 
L 358.706657 347.650446 
L 361.44665 340.802291 
L 362.815665 335.95545 
L 365.765824 331.105657 
L 374.512199 321.727816 
L 379.13778 316.355556 
L 381.54976 312.462144 
L 383.513914 307.284702 
L 384.937925 300.959013 
" clip-path="url(#p2bb292a5ab)" style="fill: none; stroke: #e6482f; stroke-width: 0.2"/>
    <path d="M 359.940145 297.60873 
L 363.027794 303.394241 
L 364.290745 306.977715 
L 367.979425 310.980344 
L 370.193025 314.0384 
L 374.512199 321.727816 
L 376.093342 323.309976 
L 379.463829 324.47003 
L 385.996604 326.996763 
L 393.267899 328.472659 
L 395.031709 328.330973 
L 401.169688 327.840976 
" clip-path="url(#p2bb292a5ab)" style="fill: none; stroke: #e6482f; stroke-width: 0.2"/>
    <path d="M 227.56255 302.705762 
L 239.959836 303.394241 
L 246.777412 303.090206 
L 257.346521 300.445402 
L 269.251255 298.863241 
L 283.265489 299.285348 
L 298.754803 299.07577 
L 304.162117 297.29584 
L 307.108347 294.267303 
L 308.11203 290.087566 
" clip-path="url(#p2bb292a5ab)" style="fill: none; stroke: #e6482f; stroke-width: 0.2"/>
    <path d="M 319.61804 398.477339 
L 325.090171 399.330407 
L 329.576298 400.251366 
L 333.836546 401.249071 
L 346.263745 404.383873 
L 366.651657 409.933241 
L 374.125261 411.586244 
L 382.508267 412.967682 
L 389.536008 413.549185 
L 404.553925 413.416354 
L 409.116653 413.386836 
L 414.315767 413.7381 
L 419.719153 414.502614 
L 426.424773 415.618391 
L 445.249219 419.417346 
L 455.011061 421.41866 
L 464.967354 423.018531 
L 472.401675 423.608889 
L 479.527623 424.039851 
L 488.368278 424.470812 
L 521.951372 425.382916 
L 536.562709 425.825685 
L 540.514586 425.654481 
" clip-path="url(#p2bb292a5ab)" style="fill: none; stroke: #e6482f; stroke-width: 0.2"/>
    <path d="M 402.299077 291.507378 
L 401.910174 304.59562 
L 402.60352 316.801277 
L 403.868435 324.706173 
L 406.084 343.22276 
L 410.862785 350.180131 
L 411.601307 355.868233 
L 411.07295 369.042077 
L 409.597871 377.68197 
L 408.967377 379.261178 
" clip-path="url(#p2bb292a5ab)" style="fill: none; stroke: #e6482f; stroke-width: 0.2"/>
    <path d="M 475.87037 333.219139 
L 468.972263 330.161084 
L 461.828637 327.265376 
L 454.188081 325.683216 
L 444.895671 324.047924 
L 420.872111 322.88787 
L 414.971794 322.256187 
L 409.914099 322.256187 
L 403.868435 324.706173 
L 401.169688 327.840976 
L 397.376908 331.211921 
L 396.111993 336.587133 
L 394.953143 342.065657 
" clip-path="url(#p2bb292a5ab)" style="fill: none; stroke: #e6482f; stroke-width: 0.2"/>
    <path d="M 411.601307 355.868233 
L 413.708844 348.704236 
L 414.235237 339.748501 
L 415.814416 333.003658 
L 420.872111 322.88787 
L 424.454727 316.143027 
L 425.403413 308.453611 
L 427.194721 305.292243 
L 428.119837 301.165639 
" clip-path="url(#p2bb292a5ab)" style="fill: none; stroke: #e6482f; stroke-width: 0.2"/>
    <path d="M 487.08765 316.09875 
L 484.414437 315.384417 
L 483.080777 315.201406 
L 477.194209 314.838335 
L 467.848767 314.413278 
L 456.621667 312.470999 
L 450.978654 311.015766 
L 449.328765 310.664503 
L 442.118358 309.132523 
L 436.491059 307.414581 
L 432.688458 305.743867 
L 429.720622 303.149242 
L 428.119837 301.165639 
L 426.381561 299.161372 
L 424.804346 297.027227 
L 422.763591 294.893082 
L 421.09406 293.780257 
L 418.49745 292.481469 
L 415.808524 291.554606 
L 411.913607 290.905212 
L 402.412998 289.331908 
" clip-path="url(#p2bb292a5ab)" style="fill: none; stroke: #e6482f; stroke-width: 0.2"/>
    <path d="M 446.659481 287.767458 
L 443.391129 296.439821 
L 442.464049 297.461141 
L 441.857126 297.924572 
L 440.531322 298.517882 
L 439.022852 298.426376 
L 429.738299 296.782229 
L 422.763591 294.893082 
" clip-path="url(#p2bb292a5ab)" style="fill: none; stroke: #e6482f; stroke-width: 0.2"/>
    <path d="M 450.978654 311.015766 
L 449.973007 308.409334 
L 448.967361 305.383748 
L 448.617742 304.055442 
L 447.989213 296.78518 
L 447.429429 292.800262 
L 446.940355 290.004916 
L 446.659481 287.767458 
L 446.959996 285.99048 
L 448.674702 279.393227 
L 449.151991 276.836976 
L 454.168439 258.279064 
" clip-path="url(#p2bb292a5ab)" style="fill: none; stroke: #e6482f; stroke-width: 0.2"/>
    <path d="M 491.102379 287.498845 
L 487.14461 286.938005 
L 486.339307 286.211864 
L 485.695065 285.08428 
L 484.809232 284.119044 
L 483.118096 283.153809 
L 481.024308 282.590017 
L 479.172112 282.268271 
L 477.561506 282.507366 
L 475.628779 282.507366 
L 467.723062 281.17906 
L 454.999276 278.549014 
L 453.003696 278.064921 
L 449.151991 276.836976 
L 442.947231 275.299092 
L 416.613826 271.255138 
L 405.011572 269.433883 
" clip-path="url(#p2bb292a5ab)" style="fill: none; stroke: #e6482f; stroke-width: 0.2"/>
    <path d="M 387.357762 250.391878 
L 384.784721 266.201672 
L 385.271831 267.081306 
L 388.958547 267.680519 
L 394.029991 268.321058 
L 394.772441 269.061958 
L 391.804605 287.056077 
L 392.17583 288.44637 
L 393.195226 290.674973 
" clip-path="url(#p2bb292a5ab)" style="fill: none; stroke: #e6482f; stroke-width: 0.2"/>
    <path d="M 493.583105 261.84778 
L 454.168439 258.279064 
L 448.452753 257.57949 
L 407.018937 251.962231 
L 387.357762 250.391878 
L 383.496236 249.922543 
L 381.217818 249.565377 
L 376.52742 247.16557 
L 374.398278 246.29184 
L 371.342055 245.973047 
L 368.195482 246.451237 
L 363.852738 248.886465 
L 362.603537 249.987483 
L 355.230105 258.509304 
L 350.594703 263.987828 
L 347.222252 267.25251 
L 340.269149 270.307613 
L 328.633504 273.649041 
" clip-path="url(#p2bb292a5ab)" style="fill: none; stroke: #e6482f; stroke-width: 0.2"/>
    <path d="M 402.299077 291.507378 
L 396.070746 290.394553 
L 394.493531 290.303047 
L 393.195226 290.674973 
L 391.89692 291.601835 
L 390.135075 293.550017 
L 388.186635 296.516567 
L 387.07296 299.391612 
L 386.35408 300.802568 
L 384.937925 300.959013 
L 359.940145 297.60873 
L 337.949484 293.700559 
L 335.376443 293.083634 
L 333.019459 291.474908 
L 331.872393 289.641846 
L 331.738831 287.29222 
L 331.420638 280.491293 
L 330.67426 278.002933 
L 330.008412 276.240714 
L 329.036156 274.640843 
L 328.633504 273.649041 
L 325.903331 274.195122 
L 325.296408 274.983251 
L 323.292971 276.866493 
L 319.046471 280.506052 
L 313.766827 285.845842 
L 311.278245 288.213179 
L 309.640141 289.426365 
L 308.11203 290.087566 
L 306.460177 290.14365 
L 304.17783 290.09347 
L 286.822571 288.576249 
L 250.593762 285.966866 
" clip-path="url(#p2bb292a5ab)" style="fill: none; stroke: #e6482f; stroke-width: 0.2"/>
    <path d="M 242.489665 242.779209 
L 242.489665 245.547989 
L 242.666439 249.96682 
L 243.122123 251.658197 
L 244.002063 253.08096 
L 245.860152 254.081617 
L 253.868006 255.76709 
L 257.76685 256.770699 
L 262.632058 257.564731 
L 272.307478 262.196091 
L 275.750639 263.669035 
L 279.333254 264.306622 
L 287.665193 264.238731 
L 306.130199 263.775299 
L 307.848833 263.896323 
L 309.704958 264.268249 
L 311.398058 264.619512 
" clip-path="url(#p2bb292a5ab)" style="fill: none; stroke: #e6482f; stroke-width: 0.2"/>
    <path d="M 325.903331 274.195122 
L 325.007677 274.192171 
L 322.318751 273.914702 
L 319.814455 272.893382 
L 317.681385 271.131163 
L 314.990495 268.628044 
L 311.398058 264.619512 
L 309.170708 258.828097 
L 307.314583 254.190833 
L 305.089198 250.7579 
L 302.584902 247.699845 
L 299.709381 244.175406 
L 297.112771 239.81561 
L 295.072015 237.032071 
L 292.10418 234.806421 
L 289.320974 233.32167 
L 287.003273 232.766733 
L 283.014078 232.766733 
L 276.801461 232.766733 
L 271.620024 231.733606 
L 266.281455 230.783129 
L 259.736896 230.759515 
L 256.64139 231.036983 
L 254.370829 231.240657 
L 250.735181 232.149809 
L 247.170243 233.478115 
L 245.492856 234.735578 
L 244.443998 236.20557 
L 243.534595 238.510919 
L 242.906066 240.467956 
L 242.489665 242.779209 
" clip-path="url(#p2bb292a5ab)" style="fill: none; stroke: #e6482f; stroke-width: 0.2"/>
    <path d="M 242.489665 242.779209 
L 232.018764 240.851689 
" clip-path="url(#p2bb292a5ab)" style="fill: none; stroke: #e6482f; stroke-width: 0.2"/>
    <path d="M 405.783485 223.312146 
L 392.073694 223.208833 
L 388.38305 223.179315 
L 384.690442 223.796239 
L 380.876056 225.765084 
L 377.552708 226.993029 
L 374.722363 226.872006 
L 369.430934 225.272135 
" clip-path="url(#p2bb292a5ab)" style="fill: none; stroke: #e6482f; stroke-width: 0.2"/>
    <path d="M 407.238922 207.708977 
L 395.426504 206.51055 
L 389.685284 206.616815 
L 378.411043 207.511207 
L 370.136065 209.116982 
L 362.395337 210.619444 
L 352.753308 212.304916 
L 344.378158 212.464313 
L 333.524246 211.83263 
L 324.463607 211.094682 
L 318.036897 210.462999 
L 314.664445 212.042207 
L 307.921507 216.360677 
L 298.858903 222.789679 
L 292.748422 225.528941 
L 289.155985 226.352491 
L 273.627389 228.135373 
L 270.343324 228.991392 
L 266.281455 230.783129 
" clip-path="url(#p2bb292a5ab)" style="fill: none; stroke: #e6482f; stroke-width: 0.2"/>
    <path d="M 256.64139 231.036983 
L 254.704735 228.341998 
L 253.323935 225.644061 
L 252.956639 221.945466 
L 253.797296 217.331817 
L 255.555214 213.411838 
L 257.849345 209.270475 
L 266.196997 197.079577 
L 270.924714 190.662383 
" clip-path="url(#p2bb292a5ab)" style="fill: none; stroke: #e6482f; stroke-width: 0.2"/>
    <path d="M 214.70868 200.258656 
L 212.082607 201.017267 
L 209.106914 201.017267 
L 204.56972 200.167151 
L 201.876866 200.025465 
L 194.931619 201.158953 
L 192.521603 201.158953 
L 191.103485 200.167151 
L 190.820646 197.755538 
L 192.521603 187.267823 
" clip-path="url(#p2bb292a5ab)" style="fill: none; stroke: #e6482f; stroke-width: 0.2"/>
    <path d="M 270.924714 190.662383 
L 273.069569 189.88311 
L 276.037405 188.306854 
L 279.189871 186.544635 
L 282.157707 185.526267 
L 286.087978 185.1691 
L 287.445208 185.617772 
L 289.723626 186.140239 
L 291.897943 186.639092 
L 297.592024 188.064807 
L 305.075449 189.07432 
L 315.296903 188.968055 
L 330.786216 190.759792 
L 339.530627 191.916895 
L 351.121096 194.340315 
L 362.079108 196.025788 
L 365.080334 195.84868 
L 366.828431 195.358683 
L 368.898648 194.54694 
L 372.163071 194.074654 
L 376.093342 194.024473 
L 391.370527 194.44658 
L 408.633471 195.892957 
" clip-path="url(#p2bb292a5ab)" style="fill: none; stroke: #e6482f; stroke-width: 0.2"/>
    <path d="M 368.898648 194.54694 
L 369.747163 177.11071 
" clip-path="url(#p2bb292a5ab)" style="fill: none; stroke: #e6482f; stroke-width: 0.2"/>
    <path d="M 448.452753 257.57949 
L 448.19152 251.115067 
L 448.19152 242.008791 
L 447.698518 238.685074 
L 446.345216 235.854307 
L 442.53083 232.533541 
L 436.25536 228.347902 
L 432.808271 226.379057 
L 431.578711 224.903161 
L 430.961967 223.179315 
L 431.085709 219.486624 
" clip-path="url(#p2bb292a5ab)" style="fill: none; stroke: #e6482f; stroke-width: 0.2"/>
    <path d="M 410.664406 178.270764 
L 410.603517 182.592186 
L 410.17926 189.962809 
L 409.61162 193.221586 
L 408.633471 195.892957 
L 407.238922 207.708977 
L 406.755741 210.917574 
L 405.663671 219.445299 
L 405.571356 221.561734 
L 405.783485 223.312146 
L 406.209706 224.548946 
L 408.215107 227.952361 
L 409.258072 230.006808 
L 409.633225 231.39415 
L 409.729469 233.002876 
L 409.584122 234.853649 
L 407.018937 251.962231 
L 405.011572 269.433883 
L 402.511205 288.089204 
L 402.412998 289.331908 
L 402.326575 290.421119 
L 402.299077 291.507378 
" clip-path="url(#p2bb292a5ab)" style="fill: none; stroke: #e6482f; stroke-width: 0.2"/>
    <path d="M 497.362136 236.99665 
L 479.392097 234.366604 
L 448.101169 229.788376 
" clip-path="url(#p2bb292a5ab)" style="fill: none; stroke: #e6482f; stroke-width: 0.2"/>
    <path d="M 409.258072 230.006808 
L 413.486894 226.993029 
L 419.025807 224.534187 
L 427.147581 221.824443 
L 429.854184 220.717521 
L 431.085709 219.486624 
L 432.069749 216.410858 
L 434.369773 210.92643 
" clip-path="url(#p2bb292a5ab)" style="fill: none; stroke: #e6482f; stroke-width: 0.2"/>
    <path d="M 392.073694 223.208833 
L 400.073691 216.286883 
L 406.755741 210.917574 
" clip-path="url(#p2bb292a5ab)" style="fill: none; stroke: #e6482f; stroke-width: 0.2"/>
    <path d="M 406.755741 210.917574 
L 410.161583 210.92643 
L 412.573563 210.371493 
L 415.077859 209.444631 
L 417.210929 209.072705 
L 419.344 208.886742 
L 431.307658 210.462999 
L 434.369773 210.92643 
L 435.668078 210.92643 
L 436.573553 210.551552 
L 437.343501 209.843122 
L 438.188087 209.105175 
L 445.873819 209.586317 
L 447.081774 209.863785 
L 448.193485 210.519083 
L 448.44686 211.053357 
L 448.653096 211.484318 
L 448.930042 213.432501 
L 449.487862 215.008757 
L 450.507257 216.030077 
L 452.640328 217.142902 
L 479.073904 220.667341 
L 480.651119 220.386921 
L 481.485884 218.255727 
L 482.691874 215.749657 
L 483.803585 214.636831 
L 485.19617 214.1734 
L 487.329241 214.081895 
L 500.451749 218.152415 
" clip-path="url(#p2bb292a5ab)" style="fill: none; stroke: #e6482f; stroke-width: 0.2"/>
    <path d="M 494.245025 201.873286 
L 487.050331 204.435441 
L 485.184385 204.819174 
L 484.445863 204.972667 
L 483.897865 205.084835 
L 476.569608 205.548266 
L 455.608164 205.920192 
L 452.679611 205.91724 
L 448.635419 206.050071 
L 445.06066 206.360009 
L 442.153713 206.973981 
L 439.957789 207.827049 
L 438.188087 209.105175 
" clip-path="url(#p2bb292a5ab)" style="fill: none; stroke: #e6482f; stroke-width: 0.2"/>
    <path d="M 448.44686 211.053357 
L 451.836989 207.272112 
L 452.679611 205.91724 
L 453.174577 204.184539 
L 453.416168 202.425271 
L 454.376639 187.521677 
" clip-path="url(#p2bb292a5ab)" style="fill: none; stroke: #e6482f; stroke-width: 0.2"/>
    <path d="M 438.188087 209.105175 
L 438.502352 205.810976 
L 438.408072 204.048756 
L 438.036847 202.006117 
L 437.944532 199.966429 
L 438.594667 195.701091 
L 440.093316 190.257988 
L 441.307163 186.887042 
L 442.2421 184.256996 
" clip-path="url(#p2bb292a5ab)" style="fill: none; stroke: #e6482f; stroke-width: 0.2"/>
    <path d="M 289.723626 186.140239 
L 293.659789 172.691878 
L 295.058266 171.012309 
L 296.177834 170.802732 
L 297.715766 171.083152 
L 303.722147 172.562 
L 311.563047 174.640061 
L 318.82845 176.074631 
L 321.829677 176.322582 
L 328.362451 176.325533 
L 341.848328 176.009692 
L 351.989252 175.434092 
L 353.682352 175.655477 
L 356.744467 176.679748 
L 358.844147 176.96312 
L 365.113725 177.039867 
L 369.747163 177.11071 
L 375.598376 176.803724 
L 392.625621 174.926384 
L 399.095542 174.793554 
L 402.411033 175.21566 
L 405.056748 176.068728 
L 408.018691 177.373419 
L 409.670544 178.102512 
L 410.664406 178.270764 
L 411.870396 178.477389 
L 418.255859 178.430161 
L 419.198652 178.424257 
L 424.042255 178.459678 
L 426.473876 178.958531 
L 430.105596 180.410812 
L 442.2421 184.256996 
L 454.376639 187.521677 
L 455.745654 187.8877 
L 475.725022 193.552187 
L 481.346429 195.588923 
L 484.832802 197.218312 
L 486.891234 198.342944 
L 489.034126 199.514805 
L 494.245025 201.873286 
L 504.431124 205.887722 
" clip-path="url(#p2bb292a5ab)" style="fill: none; stroke: #e6482f; stroke-width: 0.2"/>
    <path d="M 455.745654 187.8877 
L 458.053534 171.980497 
" clip-path="url(#p2bb292a5ab)" style="fill: none; stroke: #e6482f; stroke-width: 0.2"/>
    <path d="M 486.881414 178.371125 
L 467.212382 176.6827 
L 464.796473 175.876861 
L 462.944276 174.58988 
L 461.333671 173.462296 
L 459.803595 172.576759 
L 458.053534 171.980497 
L 455.53549 171.691221 
L 453.121545 171.449174 
L 449.980864 171.369476 
L 421.718661 171.608571 
L 419.946995 171.77092 
L 419.302752 172.49706 
L 418.65851 174.185485 
L 418.416919 175.876861 
L 418.356031 176.833241 
L 418.255859 178.430161 
" clip-path="url(#p2bb292a5ab)" style="fill: none; stroke: #e6482f; stroke-width: 0.2"/>
    <path d="M 402.715477 142.624933 
L 404.970325 145.039498 
L 406.741992 147.294667 
L 408.030476 149.549835 
L 409.882673 153.735475 
L 413.585102 163.96048 
L 416.323132 172.656457 
L 418.356031 176.833241 
" clip-path="url(#p2bb292a5ab)" style="fill: none; stroke: #e6482f; stroke-width: 0.2"/>
    <path d="M 400.246536 140.24579 
L 402.715477 142.624933 
L 403.923431 144.717753 
L 404.406613 147.374365 
L 404.406613 149.871581 
L 403.923431 153.815174 
L 403.44025 157.035578 
L 402.957068 159.453095 
L 403.842901 160.740076 
L 404.728734 161.947358 
L 405.695098 163.718433 
L 406.741992 166.215649 
L 407.305704 168.712864 
L 407.708355 171.449174 
L 408.018691 177.373419 
" clip-path="url(#p2bb292a5ab)" style="fill: none; stroke: #e6482f; stroke-width: 0.2"/>
    <path d="M 402.957068 159.453095 
L 378.96297 158.163162 
L 377.916077 157.841417 
L 377.271834 156.876181 
L 376.547062 154.136919 
L 376.06388 150.757118 
L 376.06388 144.31631 
L 376.627592 138.920435 
L 376.715979 137.069662 
" clip-path="url(#p2bb292a5ab)" style="fill: none; stroke: #e6482f; stroke-width: 0.2"/>
    <path d="M 444.449808 142.264815 
L 435.430416 142.698728 
L 429.473139 142.486199 
L 421.261013 141.497349 
L 412.929075 140.912894 
L 400.246536 140.24579 
L 398.305953 139.873864 
L 395.235981 139.501938 
L 391.891028 139.165434 
L 383.362674 137.763333 
L 376.715979 137.069662 
L 330.786216 132.284809 
" clip-path="url(#p2bb292a5ab)" style="fill: none; stroke: #e6482f; stroke-width: 0.2"/>
    <path d="M 444.449808 142.264815 
L 444.278927 139.3573 
L 443.852706 136.378943 
L 443.852706 134.395339 
L 444.561765 132.411736 
L 445.451526 130.746925 
" clip-path="url(#p2bb292a5ab)" style="fill: none; stroke: #e6482f; stroke-width: 0.2"/>
    <path d="M 492.2848 148.310083 
L 459.558076 136.1428 
L 445.451526 130.746925 
L 413.901331 118.671148 
L 407.625861 116.454352 
L 401.963206 114.854482 
L 399.871383 114.733458 
" clip-path="url(#p2bb292a5ab)" style="fill: none; stroke: #e6482f; stroke-width: 0.2"/>
    <path d="M 398.305953 139.873864 
L 397.035146 137.113939 
L 396.874085 134.858771 
L 398.16257 123.58588 
L 399.871383 114.733458 
L 400.727754 104.673754 
" clip-path="url(#p2bb292a5ab)" style="fill: none; stroke: #e6482f; stroke-width: 0.2"/>
    <path d="M 286.087978 185.1691 
L 283.874377 183.876215 
L 279.33129 182.477066 
L 276.883955 181.567915 
L 268.139544 178.453775 
L 262.854007 175.670236 
L 261.092162 173.725005 
L 259.958845 172.476398 
" clip-path="url(#p2bb292a5ab)" style="fill: none; stroke: #e6482f; stroke-width: 0.2"/>
    <path d="M 259.73886 175.127106 
L 252.330074 174.008377 
L 245.759981 172.916215 
L 240.810314 171.862425 
L 234.672335 169.970327 
L 228.852548 167.546906 
" clip-path="url(#p2bb292a5ab)" style="fill: none; stroke: #e6482f; stroke-width: 0.2"/>
    <path d="M 288.563817 85.062083 
L 289.456501 87.240475 
L 289.430967 89.690462 
L 284.119896 107.35398 
L 276.542192 127.96929 
L 259.958845 172.476398 
L 259.73886 175.127106 
L 260.298644 178.371125 
L 260.927173 182.984774 
L 261.626412 189.623353 
L 260.856463 190.742082 
L 259.389241 191.722076 
L 256.244631 194.44658 
L 254.775445 197.593189 
L 247.714313 212.529252 
L 240.877095 223.639795 
L 237.779625 228.235733 
L 232.018764 240.851689 
L 231.048472 242.976979 
L 229.545894 246.330213 
L 225.837573 250.338746 
L 221.284665 252.676565 
L 212.669889 254.769385 
L 208.3625 255.876306 
L 204.793634 256.490279 
L 201.102989 256.490279 
L 198.148903 255.383357 
" clip-path="url(#p2bb292a5ab)" style="fill: none; stroke: #e6482f; stroke-width: 0.2"/>
    <path d="M 265.637549 80.406666 
L 267.489409 82.786222 
L 267.913667 84.772778 
L 267.489409 86.331323 
L 266.071291 87.889869 
L 263.802694 90.865275 
L 261.1668 95.304769 
L 257.925947 101.943347 
L 245.569458 129.102778 
L 228.852548 167.546906 
L 215.981451 197.920838 
L 214.70868 200.258656 
L 212.683638 203.921829 
L 210.515212 209.568606 
L 207.158474 221.709323 
L 201.169771 243.620469 
L 198.148903 255.383357 
" clip-path="url(#p2bb292a5ab)" style="fill: none; stroke: #e6482f; stroke-width: 0.2"/>
    <path d="M 279.33129 182.477066 
L 284.013832 173.249767 
L 285.551764 171.363572 
L 289.187412 168.845695 
L 291.302805 167.151366 
L 293.907272 164.630537 
L 300.017754 153.989329 
L 307.078885 146.190697 
L 316.03346 139.0267 
L 323.094592 134.392388 
L 330.786216 132.284809 
L 328.829919 127.685918 
L 327.2036 123.854493 
" clip-path="url(#p2bb292a5ab)" style="fill: none; stroke: #e6482f; stroke-width: 0.2"/>
    <path d="M 245.569458 129.102778 
L 249.650968 129.619341 
L 254.936505 129.229705 
L 262.728302 128.096217 
L 268.813249 127.346462 
L 272.771018 127.378932 
L 276.542192 127.96929 
L 291.063178 129.967653 
L 308.341836 130.808913 
L 317.720668 128.701334 
L 327.2036 123.854493 
L 339.004234 115.427129 
" clip-path="url(#p2bb292a5ab)" style="fill: none; stroke: #e6482f; stroke-width: 0.2"/>
    <path d="M 495.995085 118.437956 
L 492.153201 116.690496 
L 484.518537 114.500267 
L 481.142157 113.532079 
L 471.026768 112.056184 
L 454.378603 111.265104 
L 437.414211 109.00108 
L 400.727754 104.673754 
L 396.322158 104.154239 
L 383.995131 103.100449 
L 373.773677 104.047974 
L 365.345495 106.787236 
L 359.445178 110.370711 
L 352.279947 111.949919 
L 339.004234 115.427129 
L 332.681624 114.90171 
L 311.087722 112.209677 
L 284.119896 107.35398 
L 257.925947 101.943347 
" clip-path="url(#p2bb292a5ab)" style="fill: none; stroke: #e6482f; stroke-width: 0.2"/>
    <path d="M 495.995085 118.437956 
L 492.420326 111.173598 
L 483.988216 96.650785 
L 477.661678 84.95874 
L 475.976434 81.844601 
L 473.556597 76.991856 
L 471.645922 74.478869 
" clip-path="url(#p2bb292a5ab)" style="fill: none; stroke: #e6482f; stroke-width: 0.2"/>
    <path d="M 506.365815 596.943972 
L 503.98919 604.140439 
L 502.378584 609.77836 
L 500.526387 614.690141 
L 498.59366 617.267055 
L 494.698993 621.115738 
" clip-path="url(#p2bb292a5ab)" style="fill: none; stroke: #e6482f; stroke-width: 0.2"/>
    <path d="M 516.964387 580.077437 
L 517.055249 581.779851 
" clip-path="url(#p2bb292a5ab)" style="fill: none; stroke: #e6482f; stroke-width: 0.2"/>
    <path d="M 507.573595 597.00492 
L 506.365815 596.943972 
" clip-path="url(#p2bb292a5ab)" style="fill: none; stroke: #e6482f; stroke-width: 0.2"/>
    <path d="M 516.964387 580.077437 
L 518.048599 578.539554 
L 518.971752 577.568415 
L 519.69402 577.16041 
" clip-path="url(#p2bb292a5ab)" style="fill: none; stroke: #e6482f; stroke-width: 0.2"/>
    <path d="M 559.553125 431.531497 
L 561.95332 433.928351 
L 564.298519 437.376044 
L 566.227318 441.694514 
L 567.733823 446.6978 
L 570.462032 459.721103 
L 571.375364 465.066797 
L 571.53446 469.512194 
L 571.143594 473.148801 
L 569.807969 479.149793 
L 566.765496 491.745086 
L 564.288698 501.45943 
L 563.23002 506.096694 
L 562.086882 512.047505 
L 561.770654 515.991099 
L 562.031886 519.27349 
L 562.39329 520.519146 
L 562.988429 522.567689 
L 564.534217 525.97996 
L 566.317669 528.553922 
L 568.220933 530.419454 
L 570.801831 531.750712 
L 574.091788 532.845826 
L 579.043418 533.937989 
L 583.28599 534.91208 
L 587.497135 536.317133 
L 591.372409 538.200376 
L 594.8961 540.673977 
L 597.897327 543.504744 
L 599.580606 546.347319 
L 600.541077 548.829776 
L 601.081219 551.725483 
L 601.186798 553.452282 
" clip-path="url(#p2bb292a5ab)" style="fill: none; stroke: #e6482f; stroke-width: 0.2"/>
    <path d="M 521.226553 573.358397 
L 521.487832 569.887854 
L 521.731387 566.974436 
L 522.579901 562.785844 
L 524.400671 557.809124 
L 527.739732 552.129878 
L 530.799883 549.349291 
L 538.59168 542.946856 
L 548.051042 535.803521 
L 554.079029 529.681506 
L 562.39329 520.519146 
" clip-path="url(#p2bb292a5ab)" style="fill: none; stroke: #e6482f; stroke-width: 0.2"/>
    <path d="M 474.403147 503.956646 
L 474.253872 515.123272 
" clip-path="url(#p2bb292a5ab)" style="fill: none; stroke: #e6482f; stroke-width: 0.2"/>
    <path d="M 474.652595 502.530931 
L 488.721825 503.915321 
L 490.54456 504.334475 
L 497.045907 504.983869 
L 501.58703 505.683444 
" clip-path="url(#p2bb292a5ab)" style="fill: none; stroke: #e6482f; stroke-width: 0.2"/>
    <path d="M 488.721825 503.915321 
L 490.006382 499.419743 
" clip-path="url(#p2bb292a5ab)" style="fill: none; stroke: #e6482f; stroke-width: 0.2"/>
    <path d="M 737.617377 204.181587 
L 739.840799 207.92741 
L 741.871734 210.3833 
L 743.686611 211.986123 
L 746.35786 213.2672 
L 749.777451 214.335749 
L 753.729328 215.298033 
L 755.760262 216.1511 
L 756.934826 218.075668 
L 757.469076 221.709323 
L 757.67924 235.703765 
" clip-path="url(#p2bb292a5ab)" style="fill: none; stroke: #e6482f; stroke-width: 0.2"/>
    <path d="M 770.263571 235.644729 
L 757.67924 235.703765 
L 726.431524 235.854307 
L 717.581049 236.48599 
L 710.732046 237.752308 
L 705.570251 238.277727 
L 699.880099 235.748042 
L 696.403547 231.639149 
L 693.243224 223.843468 
L 687.553072 218.680785 
L 682.705541 215.835259 
L 675.856539 211.935942 
L 671.957694 206.985789 
L 667.300686 196.42428 
" clip-path="url(#p2bb292a5ab)" style="fill: none; stroke: #e6482f; stroke-width: 0.2"/>
    <path d="M 663.839848 191.276356 
L 667.300686 196.42428 
L 671.678784 201.728648 
L 675.20444 204.721765 
L 678.195845 206.324587 
L 681.187251 207.177655 
L 684.500778 207.4994 
L 687.918404 206.643381 
L 693.046809 205.468568 
L 700.09812 204.721765 
L 708.21793 204.6155 
L 737.617377 204.181587 
L 752.267997 204.695199 
" clip-path="url(#p2bb292a5ab)" style="fill: none; stroke: #e6482f; stroke-width: 0.2"/>
    <path d="M 645.669465 183.226821 
L 663.839848 191.276356 
L 666.114338 191.940509 
L 668.791479 192.279965 
L 671.680748 192.135327 
L 691.155329 187.884748 
L 703.543245 185.151389 
L 729.540779 178.506907 
" clip-path="url(#p2bb292a5ab)" style="fill: none; stroke: #e6482f; stroke-width: 0.2"/>
    <path d="M 482.279402 458.076955 
L 481.737296 462.150427 
L 474.652595 502.530931 
L 474.403147 503.956646 
" clip-path="url(#p2bb292a5ab)" style="fill: none; stroke: #e6482f; stroke-width: 0.2"/>
    <path d="M 478.286278 456.925757 
L 479.590476 458.236352 
L 480.680581 459.868692 
L 481.737296 462.150427 
" clip-path="url(#p2bb292a5ab)" style="fill: none; stroke: #e6482f; stroke-width: 0.2"/>
    <path d="M 480.27793 457.282923 
L 488.368278 424.470812 
" clip-path="url(#p2bb292a5ab)" style="fill: none; stroke: #e6482f; stroke-width: 0.2"/>
    <path d="M 558.26464 430.690236 
L 560.981064 429.589218 
L 563.086636 429.167112 
L 564.247451 429.167112 
L 565.773598 429.536086 
L 568.250396 430.69614 
L 570.094736 431.434088 
L 573.99358 432.59119 
L 581.315944 434.382927 
L 607.498108 441.180902 
" clip-path="url(#p2bb292a5ab)" style="fill: none; stroke: #e6482f; stroke-width: 0.2"/>
    <path d="M 540.514586 425.654481 
L 547.125926 426.941462 
L 552.800365 428.618079 
L 557.039008 429.887349 
L 558.26464 430.690236 
L 559.553125 431.531497 
" clip-path="url(#p2bb292a5ab)" style="fill: none; stroke: #e6482f; stroke-width: 0.2"/>
    <path d="M 557.039008 429.887349 
L 551.054233 421.902754 
L 549.384702 419.804031 
L 548.210139 418.17169 
" clip-path="url(#p2bb292a5ab)" style="fill: none; stroke: #e6482f; stroke-width: 0.2"/>
    <path d="M 540.514586 425.654481 
L 543.574737 424.154971 
L 545.430862 422.475402 
L 547.32627 420.001801 
L 548.210139 418.17169 
L 549.105793 415.686282 
L 549.606652 413.655449 
L 550.058407 411.329438 
" clip-path="url(#p2bb292a5ab)" style="fill: none; stroke: #e6482f; stroke-width: 0.2"/>
    <path d="M 550.058407 411.329438 
L 550.618191 405.815492 
" clip-path="url(#p2bb292a5ab)" style="fill: none; stroke: #e6482f; stroke-width: 0.2"/>
    <path d="M 536.099169 382.986339 
L 529.576216 384.270368 
" clip-path="url(#p2bb292a5ab)" style="fill: none; stroke: #e6482f; stroke-width: 0.2"/>
    <path d="M 545.707807 385.353675 
L 543.629733 385.501265 
L 541.365064 385.185423 
L 538.772382 384.258561 
L 536.099169 382.986339 
L 534.881394 382.407788 
L 527.564923 378.295943 
L 520.446831 374.018797 
L 514.037798 369.357919 
L 508.190514 364.254272 
L 503.983297 359.445804 
L 500.053026 354.173905 
L 496.647184 347.526471 
L 493.365084 339.772116 
L 490.992387 332.755708 
L 487.875275 321.47101 
L 487.158359 317.158443 
L 487.08765 316.09875 
L 486.73803 310.803237 
L 486.873557 306.809463 
L 487.39995 298.485412 
L 488.786642 291.554606 
L 489.316964 289.877989 
L 489.890497 288.853718 
L 491.102379 287.498845 
" clip-path="url(#p2bb292a5ab)" style="fill: none; stroke: #e6482f; stroke-width: 0.2"/>
    <path d="M 496.647184 347.526471 
L 494.85784 348.01942 
L 488.808248 342.747521 
L 481.646945 337.47267 
L 475.87037 333.219139 
L 464.731656 324.818341 
L 458.638852 320.886556 
L 451.675928 315.393272 
L 449.721596 313.055454 
L 449.328765 310.664503 
" clip-path="url(#p2bb292a5ab)" style="fill: none; stroke: #e6482f; stroke-width: 0.2"/>
    <path d="M 494.638766 317.05445 
L 491.514851 317.143684 
L 487.158359 317.158443 
" clip-path="url(#p2bb292a5ab)" style="fill: none; stroke: #e6482f; stroke-width: 0.2"/>
    <path d="M 550.618191 405.815492 
L 550.75961 403.654781 
L 550.716398 401.765634 
L 550.525876 399.728899 
L 550.243037 397.963727 
L 549.755927 395.6938 
L 549.266853 393.701341 
L 547.878197 389.77841 
L 545.707807 385.353675 
L 541.600763 379.208046 
L 536.474322 372.504528 
L 529.929763 364.274934 
L 523.549626 356.448686 
" clip-path="url(#p2bb292a5ab)" style="fill: none; stroke: #e6482f; stroke-width: 0.2"/>
    <path d="M 494.319445 314.820944 
L 493.659707 313.223706 
L 492.646204 309.427702 
L 492.053029 305.63465 
L 491.668055 301.218771 
L 491.302723 297.375539 
L 491.074881 291.153163 
L 491.102379 287.498845 
L 491.125949 284.653319 
L 491.70341 276.169871 
L 492.610849 268.663466 
L 493.583105 261.84778 
L 497.362136 236.99665 
L 498.251898 231.143248 
L 500.451749 218.152415 
L 500.954573 215.177009 
L 501.742198 211.478415 
L 502.633924 208.76867 
L 503.525649 207.213077 
L 504.431124 205.887722 
L 505.792282 204.583031 
L 507.430386 203.455446 
L 509.844331 202.445934 
L 512.521472 201.643047 
L 514.955058 201.312446 
L 517.755941 201.398048 
L 534.08984 202.676173 
L 542.56909 202.986112 
L 549.392559 203.00087 
L 555.377334 202.596475 
L 561.54674 201.578107 
L 567.804533 200.078597 
L 572.210129 199.379023 
L 575.983268 199.131072 
L 579.200551 199.066133 
L 585.244251 199.216674 
L 598.307835 200.240946 
L 615.187769 202.009069 
L 620.750251 201.823106 
L 625.320836 200.993652 
L 628.864169 199.609262 
L 631.405783 197.637466 
L 645.669465 183.226821 
L 651.997967 176.833241 
L 654.826348 173.993618 
L 661.661602 166.918175 
L 669.740165 160.825678 
L 677.934613 159.007374 
L 687.258449 156.72564 
L 702.781153 153.124455 
L 712.749231 151.255971 
L 722.750701 149.349114 
L 725.421949 148.295324 
" clip-path="url(#p2bb292a5ab)" style="fill: none; stroke: #e6482f; stroke-width: 0.2"/>
    <path d="M 493.583105 261.84778 
L 499.762331 262.249223 
L 503.101392 262.157718 
L 505.049832 261.785792 
L 506.348138 261.044893 
L 507.461813 259.468636 
L 508.017668 257.611959 
L 508.852433 251.212476 
L 509.687199 248.428937 
L 512.099179 243.700168 
L 512.933944 241.102591 
L 513.252137 238.242306 
L 514.788105 224.40726 
" clip-path="url(#p2bb292a5ab)" style="fill: none; stroke: #e6482f; stroke-width: 0.2"/>
    <path d="M 513.252137 238.242306 
L 497.362136 236.99665 
" clip-path="url(#p2bb292a5ab)" style="fill: none; stroke: #e6482f; stroke-width: 0.2"/>
    <path d="M 480.651119 220.386921 
L 479.392097 234.366604 
" clip-path="url(#p2bb292a5ab)" style="fill: none; stroke: #e6482f; stroke-width: 0.2"/>
    <path d="M 625.320836 200.993652 
L 625.85705 211.351488 
L 625.542786 214.834601 
L 625.197095 217.588623 
L 624.073599 221.80378 
L 622.072127 227.258691 
L 618.398633 237.77326 
" clip-path="url(#p2bb292a5ab)" style="fill: none; stroke: #e6482f; stroke-width: 0.2"/>
    <path d="M 622.072127 227.258691 
L 619.766211 227.441702 
L 600.823915 225.275087 
L 598.803074 225.069168 
" clip-path="url(#p2bb292a5ab)" style="fill: none; stroke: #e6482f; stroke-width: 0.2"/>
    <path d="M 580.335714 222.259548 
L 579.082702 221.570589 
L 569.157835 215.348213 
L 567.480448 213.671596 
L 567.199574 212.484976 
L 567.804533 200.078597 
" clip-path="url(#p2bb292a5ab)" style="fill: none; stroke: #e6482f; stroke-width: 0.2"/>
    <path d="M 484.445863 204.972667 
L 483.803585 214.636831 
" clip-path="url(#p2bb292a5ab)" style="fill: none; stroke: #e6482f; stroke-width: 0.2"/>
    <path d="M 486.891234 198.342944 
L 485.184385 204.819174 
" clip-path="url(#p2bb292a5ab)" style="fill: none; stroke: #e6482f; stroke-width: 0.2"/>
    <path d="M 663.839848 191.276356 
L 660.182595 186.128432 
L 658.994282 182.860799 
L 658.20862 179.51642 
L 657.0262 176.729929 
L 654.826348 173.993618 
" clip-path="url(#p2bb292a5ab)" style="fill: none; stroke: #e6482f; stroke-width: 0.2"/>
    <path d="M 738.177161 154.989987 
L 737.617377 204.181587 
" clip-path="url(#p2bb292a5ab)" style="fill: none; stroke: #e6482f; stroke-width: 0.2"/>
    <path d="M 633.709735 174.486567 
L 645.669465 183.226821 
" clip-path="url(#p2bb292a5ab)" style="fill: none; stroke: #e6482f; stroke-width: 0.2"/>
    <path d="M 754.968708 152.917829 
L 755.359575 157.968344 
L 755.520635 163.683012 
L 755.117984 168.432444 
L 753.587909 183.088087 
L 752.267997 204.695199 
" clip-path="url(#p2bb292a5ab)" style="fill: none; stroke: #e6482f; stroke-width: 0.2"/>
    <path d="M 623.001171 167.892266 
L 631.062057 173.152358 
L 633.709735 174.486567 
" clip-path="url(#p2bb292a5ab)" style="fill: none; stroke: #e6482f; stroke-width: 0.2"/>
    <path d="M 624.75516 165.719748 
L 630.887247 171.723691 
L 633.709735 174.486567 
" clip-path="url(#p2bb292a5ab)" style="fill: none; stroke: #e6482f; stroke-width: 0.2"/>
    <path d="M 728.73744 146.990632 
L 733.262849 152.318616 
L 734.810602 153.682343 
L 736.360319 154.561977 
L 738.177161 154.989987 
L 740.740381 154.989987 
L 746.403035 153.921438 
L 754.968708 152.917829 
L 765.526033 151.678077 
L 784.971151 150.181519 
L 787.38706 150.273024 
L 788.518412 150.721697 
L 789.967957 151.828618 
L 790.863611 153.251382 
L 791.837831 155.199564 
L 792.313157 157.386841 
L 792.179594 160.704654 
L 792.15406 167.579376 
L 793.365943 178.669256 
L 794.023934 182.96116 
L 794.236063 188.123843 
" clip-path="url(#p2bb292a5ab)" style="fill: none; stroke: #e6482f; stroke-width: 0.2"/>
    <path d="M 623.001171 167.892266 
L 624.75516 165.719748 
" clip-path="url(#p2bb292a5ab)" style="fill: none; stroke: #e6482f; stroke-width: 0.2"/>
    <path d="M 729.540779 178.506907 
L 729.994498 176.405232 
L 731.041392 170.365867 
L 732.168816 166.983114 
L 733.29624 164.568549 
L 734.826315 161.911937 
L 738.177161 154.989987 
" clip-path="url(#p2bb292a5ab)" style="fill: none; stroke: #e6482f; stroke-width: 0.2"/>
    <path d="M 606.631917 140.293018 
L 619.224104 141.293675 
L 623.333113 142.2412 
L 626.809665 143.504567 
L 630.023019 145.874855 
L 643.774057 162.260248 
L 654.826348 173.993618 
" clip-path="url(#p2bb292a5ab)" style="fill: none; stroke: #e6482f; stroke-width: 0.2"/>
    <path d="M 725.421949 148.295324 
L 728.73744 146.990632 
L 732.306307 145.58558 
L 738.927468 141.978491 
L 745.411138 137.347131 
L 750.460976 133.134925 
" clip-path="url(#p2bb292a5ab)" style="fill: none; stroke: #e6482f; stroke-width: 0.2"/>
    <path d="M 750.460976 133.134925 
L 757.235341 127.910254 
" clip-path="url(#p2bb292a5ab)" style="fill: none; stroke: #e6482f; stroke-width: 0.2"/>
    <path d="M 755.281009 125.962072 
L 750.460976 133.134925 
" clip-path="url(#p2bb292a5ab)" style="fill: none; stroke: #e6482f; stroke-width: 0.2"/>
    <path d="M 757.235341 127.910254 
L 772.981959 112.08275 
" clip-path="url(#p2bb292a5ab)" style="fill: none; stroke: #e6482f; stroke-width: 0.2"/>
    <path d="M 555.762308 115.335624 
L 558.940309 117.029952 
L 561.69798 118.033561 
L 566.333382 118.910243 
L 574.853879 116.280197 
L 583.74953 114.025028 
L 585.880636 113.647199 
L 588.510638 114.526833 
L 592.647145 115.902368 
L 596.655982 115.902368 
L 601.794207 114.399906 
L 608.558751 112.897444 
L 614.323541 113.399249 
L 621.115584 115.985018 
L 626.845845 117.321575 
" clip-path="url(#p2bb292a5ab)" style="fill: none; stroke: #e6482f; stroke-width: 0.2"/>
    <path d="M 648.737662 122.355368 
L 651.061066 122.688536 
L 656.352496 122.76233 
L 687.166134 123.320219 
L 704.444791 122.688536 
L 710.134943 121.634746 
L 718.985418 119.31759 
L 733.526046 113.626537 
" clip-path="url(#p2bb292a5ab)" style="fill: none; stroke: #e6482f; stroke-width: 0.2"/>
    <path d="M 768.28174 106.985006 
L 766.572927 109.393668 
L 766.03082 111.099803 
L 765.702807 112.876782 
L 765.453359 114.656712 
L 764.913217 116.31857 
L 764.188444 117.705912 
L 755.281009 125.962072 
" clip-path="url(#p2bb292a5ab)" style="fill: none; stroke: #e6482f; stroke-width: 0.2"/>
    <path d="M 772.981959 112.08275 
L 774.631848 110.46812 
L 777.974837 107.442534 
" clip-path="url(#p2bb292a5ab)" style="fill: none; stroke: #e6482f; stroke-width: 0.2"/>
    <path d="M 773.355148 102.430393 
L 769.94145 105.482545 
L 768.28174 106.985006 
" clip-path="url(#p2bb292a5ab)" style="fill: none; stroke: #e6482f; stroke-width: 0.2"/>
    <path d="M 777.974837 107.442534 
L 787.913453 100.166369 
L 791.054134 97.303131 
" clip-path="url(#p2bb292a5ab)" style="fill: none; stroke: #e6482f; stroke-width: 0.2"/>
    <path d="M 789.182296 94.947602 
L 784.48797 98.728846 
L 781.775474 99.912515 
L 779.978273 100.127995 
L 778.055367 100.228356 
L 776.454582 100.579619 
L 774.855761 101.249676 
L 773.355148 102.430393 
" clip-path="url(#p2bb292a5ab)" style="fill: none; stroke: #e6482f; stroke-width: 0.2"/>
    <path d="M 623.484767 111.607004 
L 621.115584 115.985018 
L 615.767194 125.867615 
L 599.329195 129.554402 
" clip-path="url(#p2bb292a5ab)" style="fill: none; stroke: #e6482f; stroke-width: 0.2"/>
    <path d="M 702.618933 91.807005 
L 702.830257 93.223756 
L 695.511821 93.92333 
" clip-path="url(#p2bb292a5ab)" style="fill: none; stroke: #e6482f; stroke-width: 0.2"/>
    <path d="M 545.393543 184.425248 
L 532.927061 182.329477 
L 518.504283 180.407861 
L 492.756196 178.911302 
L 486.881414 178.371125 
" clip-path="url(#p2bb292a5ab)" style="fill: none; stroke: #e6482f; stroke-width: 0.2"/>
    <path d="M 549.600759 164.795837 
L 588.404573 166.738116 
L 614.411928 167.278293 
L 623.001171 167.892266 
" clip-path="url(#p2bb292a5ab)" style="fill: none; stroke: #e6482f; stroke-width: 0.2"/>
    <path d="M 554.053495 122.275285 
L 552.446818 140.709221 
L 551.841858 146.190697 
L 551.073874 152.135605 
L 549.640042 162.767956 
L 549.600759 164.795837 
L 545.393543 184.425248 
L 542.56909 202.986112 
" clip-path="url(#p2bb292a5ab)" style="fill: none; stroke: #e6482f; stroke-width: 0.2"/>
    <path d="M 491.186838 159.243518 
L 515.385207 160.521643 
L 549.640042 162.767956 
" clip-path="url(#p2bb292a5ab)" style="fill: none; stroke: #e6482f; stroke-width: 0.2"/>
    <path d="M 583.504011 154.621013 
L 600.784632 155.831247 
L 608.739453 156.991301 
L 614.429606 159.09888 
L 620.750251 161.891274 
L 624.75516 165.719748 
" clip-path="url(#p2bb292a5ab)" style="fill: none; stroke: #e6482f; stroke-width: 0.2"/>
    <path d="M 484.832802 197.218312 
L 484.805303 191.311777 
L 486.881414 178.371125 
L 490.151729 166.295347 
L 491.186838 159.243518 
L 492.2848 148.310083 
L 494.174315 142.855173 
L 499.08077 131.59409 
L 499.726977 129.619341 
L 500.056954 127.860074 
L 500.03142 126.127372 
L 499.607163 124.447803 
L 498.118335 121.705589 
L 495.995085 118.437956 
" clip-path="url(#p2bb292a5ab)" style="fill: none; stroke: #e6482f; stroke-width: 0.2"/>
    <path d="M 554.053495 122.275285 
L 555.919441 116.492726 
L 555.762308 115.335624 
L 555.391083 112.59341 
L 553.495675 106.376937 
L 552.863218 99.738359 
L 552.757154 91.733101 
L 552.126661 86.779996 
L 551.348856 84.161757 
L 550.506234 83.001703 
L 549.031155 82.054178 
L 546.291161 81.841649 
L 541.44363 82.157491 
L 528.906439 84.371334 
L 525.427924 84.265069 
L 515.840891 84.265069 
L 480.688438 84.501213 
L 477.661678 84.95874 
" clip-path="url(#p2bb292a5ab)" style="fill: none; stroke: #e6482f; stroke-width: 0.2"/>
    <path d="M 484.518537 114.500267 
L 492.420326 111.173598 
L 495.967587 109.736076 
L 503.547255 107.365787 
L 525.05277 105.007306 
L 547.55804 89.147332 
L 552.126661 86.779996 
L 565.985727 79.403469 
L 575.378308 76.835411 
L 580.695271 76.124029 
L 587.579629 73.154527 
L 589.111669 72.493326 
L 596.243038 71.616062 
" clip-path="url(#p2bb292a5ab)" style="fill: none; stroke: #e6482f; stroke-width: 0.2"/>
    <path d="M 683.544159 94.28814 
L 687.464685 94.369051 
L 695.511821 93.92333 
" clip-path="url(#p2bb292a5ab)" style="fill: none; stroke: #e6482f; stroke-width: 0.2"/>
    <path d="M 587.579629 73.154527 
L 590.089817 68.756358 
" clip-path="url(#p2bb292a5ab)" style="fill: none; stroke: #e6482f; stroke-width: 0.2"/>
    <path d="M 590.089817 68.756358 
L 597.465213 64.541201 
" clip-path="url(#p2bb292a5ab)" style="fill: none; stroke: #e6482f; stroke-width: 0.2"/>
    <path d="M 597.465213 64.541201 
L 608.000932 62.011516 
" clip-path="url(#p2bb292a5ab)" style="fill: none; stroke: #e6482f; stroke-width: 0.2"/>
    <path d="M 608.000932 62.011516 
L 614.955999 58.008887 
" clip-path="url(#p2bb292a5ab)" style="fill: none; stroke: #e6482f; stroke-width: 0.2"/>
    <path d="M 614.955999 58.008887 
L 619.803529 52.530362 
" clip-path="url(#p2bb292a5ab)" style="fill: none; stroke: #e6482f; stroke-width: 0.2"/>
   </g>
   <g id="LineCollection_2">
    <path d="M 554.073137 407.598374 
L 571.061099 410.594442 
L 593.927773 413.354367 
" clip-path="url(#p2bb292a5ab)" style="fill: none; stroke-dasharray: 3.7,1.6; stroke-dashoffset: 0; stroke: #e6482f"/>
    <path d="M 553.085167 409.080173 
L 561.780474 409.812217 
L 571.061099 410.594442 
" clip-path="url(#p2bb292a5ab)" style="fill: none; stroke-dasharray: 3.7,1.6; stroke-dashoffset: 0; stroke: #e6482f"/>
    <path d="M 531.125933 408.345177 
L 551.94203 410.110348 
" clip-path="url(#p2bb292a5ab)" style="fill: none; stroke-dasharray: 3.7,1.6; stroke-dashoffset: 0; stroke: #e6482f"/>
    <path d="M 510.272516 404.735136 
L 551.94203 410.110348 
L 561.780474 409.812217 
" clip-path="url(#p2bb292a5ab)" style="fill: none; stroke-dasharray: 3.7,1.6; stroke-dashoffset: 0; stroke: #e6482f"/>
    <path d="M 357.691189 378.467147 
L 369.032211 381.265445 
L 376.619735 382.897785 
L 395.059207 385.849576 
L 420.661947 389.483231 
L 447.529601 393.751521 
L 481.984779 398.861072 
L 506.850961 402.603943 
L 533.561483 406.819101 
L 553.085167 409.080173 
" clip-path="url(#p2bb292a5ab)" style="fill: none; stroke-dasharray: 3.7,1.6; stroke-dashoffset: 0; stroke: #e6482f"/>
    <path d="M 523.377348 400.528834 
L 508.589237 396.387471 
L 491.204515 392.907309 
L 455.906715 387.797759 
L 414.814662 381.106048 
L 400.85346 380.052258 
L 385.47021 378.050944 
" clip-path="url(#p2bb292a5ab)" style="fill: none; stroke-dasharray: 3.7,1.6; stroke-dashoffset: 0; stroke: #e6482f"/>
    <path d="M 347.381348 376.985347 
L 359.814439 377.94468 
L 367.663196 378.47305 
L 376.409571 379.683285 
L 391.317495 381.95026 
L 421.979893 386.587524 
L 461.543835 392.222494 
L 493.416152 397.122467 
L 526.869612 402.341234 
L 535.140662 403.598697 
L 542.38446 405.906998 
" clip-path="url(#p2bb292a5ab)" style="fill: none; stroke-dasharray: 3.7,1.6; stroke-dashoffset: 0; stroke: #e6482f"/>
    <path d="M 535.140662 403.598697 
L 523.377348 400.528834 
L 408.33492 383.0867 
L 394.737086 381.017494 
L 370.807806 377.741006 
L 354.709604 376.454025 
L 338.399275 375.692463 
" clip-path="url(#p2bb292a5ab)" style="fill: none; stroke-dasharray: 3.7,1.6; stroke-dashoffset: 0; stroke: #e6482f"/>
    <path d="M 385.47021 378.050944 
L 394.737086 381.017494 
" clip-path="url(#p2bb292a5ab)" style="fill: none; stroke-dasharray: 3.7,1.6; stroke-dashoffset: 0; stroke: #e6482f"/>
    <path d="M 385.47021 378.050944 
L 378.279445 377.144744 
L 367.926392 375.837101 
L 357.337642 375.048972 
L 346.220533 374.414337 
L 340.87018 374.077833 
L 323.558132 373.428439 
" clip-path="url(#p2bb292a5ab)" style="fill: none; stroke-dasharray: 3.7,1.6; stroke-dashoffset: 0; stroke: #e6482f"/>
    <path d="M 340.87018 374.077833 
L 320.543023 371.417433 
" clip-path="url(#p2bb292a5ab)" style="fill: none; stroke-dasharray: 3.7,1.6; stroke-dashoffset: 0; stroke: #e6482f"/>
    <path d="M 320.676607 372.956909 
L 323.558132 373.428439 
L 330.202863 374.514698 
L 338.399275 375.692463 
L 347.381348 376.985347 
L 357.691189 378.467147 
L 432.256344 389.188052 
L 461.013514 393.323512 
L 542.38446 405.906998 
L 554.073137 407.598374 
" clip-path="url(#p2bb292a5ab)" style="fill: none; stroke-dasharray: 3.7,1.6; stroke-dashoffset: 0; stroke: #e6482f"/>
   </g>
  </g>
 </g>
 <defs>
  <clipPath id="p2bb292a5ab">
   <rect x="7.2" y="7.2" width="837" height="682.052091"/>
  </clipPath>
 </defs>
</svg>
