<?xml version="1.0" encoding="utf-8" standalone="no"?>
<!DOCTYPE svg PUBLIC "-//W3C//DTD SVG 1.1//EN"
  "http://www.w3.org/Graphics/SVG/1.1/DTD/svg11.dtd">
<svg xmlns:xlink="http://www.w3.org/1999/xlink" width="851.4pt" height="823.552676pt" viewBox="0 0 851.4 823.552676" xmlns="http://www.w3.org/2000/svg" version="1.1">
 <metadata>
  <rdf:RDF xmlns:dc="http://purl.org/dc/elements/1.1/" xmlns:cc="http://creativecommons.org/ns#" xmlns:rdf="http://www.w3.org/1999/02/22-rdf-syntax-ns#">
   <cc:Work>
    <dc:type rdf:resource="http://purl.org/dc/dcmitype/StillImage"/>
    <dc:date>2025-03-16T14:37:54.076168</dc:date>
    <dc:format>image/svg+xml</dc:format>
    <dc:creator>
     <cc:Agent>
      <dc:title>Matplotlib v3.10.1, https://matplotlib.org/</dc:title>
     </cc:Agent>
    </dc:creator>
   </cc:Work>
  </rdf:RDF>
 </metadata>
 <defs>
  <style type="text/css">*{stroke-linejoin: round; stroke-linecap: butt}</style>
 </defs>
 <g id="figure_1">
  <g id="patch_1">
   <path d="M 0 823.552676 
L 851.4 823.552676 
L 851.4 0 
L 0 0 
z
" style="fill: #ffffff"/>
  </g>
  <g id="axes_1">
   <g id="PatchCollection_1">
    <path d="M 45.245455 175.916298 
L 100.327037 204.391811 
L 137.269458 219.429383 
L 144.975798 223.188119 
L 145.070419 239.917253 
L 168.005455 259.183731 
L 204.946123 275.534627 
L 218.107179 284.276119 
L 236.624823 294.333562 
L 261.909609 305.893448 
L 280.896854 321.776801 
L 288.697814 333.431247 
L 315.769882 343.205012 
L 328.834564 322.811701 
L 354.403212 330.142682 
L 365.305634 303.918208 
L 382.037748 309.746744 
L 395.761272 292.263761 
L 431.85561 302.602256 
L 435.803401 295.084784 
L 479.043363 307.67957 
L 468.8909 342.078179 
L 487.503165 362.755168 
L 524.464861 381.582996 
L 524.913434 390.576645 
L 532.809016 405.052114 
L 548.789421 445.657497 
L 554.617362 456.374229 
L 544.84163 480.812581 
L 519.649713 497.357849 
L 513.070061 544.732109 
L 516.641121 569.362207 
L 511.002421 582.521723 
L 517.394583 607.340939 
L 514.385992 620.689575 
L 517.205341 635.7324 
L 485.997993 643.62811 
L 483.930353 656.414642 
L 494.457796 689.694298 
L 510.06147 701.540489 
L 538.261978 721.282391 
L 560.256062 761.898281 
L 573.227876 779.573009 
L 593.720292 774.684813 
L 621.919049 778.632668 
L 647.862675 778.257057 
L 659.706048 769.983109 
L 665.721479 758.512529 
L 684.521234 750.614192 
L 727.007734 743.845315 
L 749.75528 740.837801 
L 755.583222 735.949605 
L 755.019001 711.316881 
L 750.132011 696.087564 
L 728.887885 659.608648 
L 707.833 645.695283 
L 702.756769 629.903863 
L 685.837164 606.21148 
L 666.84992 555.824452 
L 644.854084 506.191273 
L 628.686189 443.214712 
L 732.083966 408.999969 
L 727.195224 386.62879 
L 690.536665 389.260694 
L 624.174178 406.368065 
L 630.615403 381.267798 
L 642.786444 340.011006 
L 651.622977 332.304414 
L 656.886698 324.219586 
L 665.157259 314.821432 
L 710.83984 300.34859 
L 769.306745 264.0693 
L 802.394244 218.394483 
L 806.154545 200.162905 
L 774.006246 172.344054 
L 779.269967 164.07536 
L 738.851107 121.410683 
L 692.793547 90.211334 
L 626.525681 57.414982 
L 585.5426 43.979667 
L 569.187216 54.034483 
L 558.377664 57.22849 
L 550.574951 65.027014 
L 540.893839 77.243563 
L 534.314187 87.955042 
L 529.802176 134.567573 
L 528.861225 150.729351 
L 520.213933 152.420914 
L 509.686491 153.550373 
L 497.843118 152.420914 
L 457.611748 139.077532 
L 421.517409 140.769094 
L 376.774027 113.141989 
L 365.118144 136.634747 
L 348.19854 132.311281 
L 337.671098 157.873839 
L 283.903693 136.445628 
L 256.269157 126.860982 
L 261.720367 110.134475 
L 259.277748 96.601974 
L 246.680914 83.634203 
L 229.761309 82.504743 
L 203.255214 96.226363 
L 191.786821 100.92544 
L 177.311587 120.845954 
L 171.014046 123.948027 
L 158.324343 117.746507 
L 149.677051 111.261308 
L 135.482176 115.584774 
L 123.920914 123.477857 
L 111.043721 123.948027 
L 78.143712 132.124789 
L 74.385163 142.741708 
L 70.71773 146.032901 
L 66.86456 151.575132 
L 62.399859 156.22693 
L 56.242496 161.209685 
L 45.245455 175.916298 
" clip-path="url(#pc1761bad90)" style="fill: #f29888"/>
   </g>
   <g id="PatchCollection_2">
    <path d="M 641.267254 763.240499 
L 642.504333 765.835629 
L 639.912774 767.072781 
L 638.675695 764.477651 
L 641.267254 763.240499 
" clip-path="url(#pc1761bad90)" style="fill: #f29888"/>
    <path d="M 626.749967 762.300158 
L 627.312435 764.714049 
L 624.932897 765.268273 
L 624.370429 762.851755 
L 626.749967 762.300158 
" clip-path="url(#pc1761bad90)" style="fill: #f29888"/>
    <path d="M 638.428629 757.409336 
L 639.267951 759.565815 
L 636.779774 760.535049 
L 635.940452 758.381196 
L 638.428629 757.409336 
" clip-path="url(#pc1761bad90)" style="fill: #f29888"/>
    <path d="M 636.327697 751.893371 
L 637.17578 754.170676 
L 634.840047 755.042724 
L 633.991964 752.762792 
L 636.327697 751.893371 
" clip-path="url(#pc1761bad90)" style="fill: #f29888"/>
    <path d="M 634.88911 746.68735 
L 635.740697 748.88323 
L 633.199953 749.87085 
L 632.348366 747.674971 
L 634.88911 746.68735 
" clip-path="url(#pc1761bad90)" style="fill: #f29888"/>
    <path d="M 633.362911 742.684336 
L 634.316128 744.783029 
L 631.771879 745.941382 
L 630.818662 743.840062 
L 633.362911 742.684336 
" clip-path="url(#pc1761bad90)" style="fill: #f29888"/>
    <path d="M 631.694781 737.890699 
L 632.693556 740.086579 
L 630.243928 741.200278 
L 629.245153 739.004399 
L 631.694781 737.890699 
" clip-path="url(#pc1761bad90)" style="fill: #f29888"/>
    <path d="M 629.57983 733.141716 
L 630.58211 735.550354 
L 628.135987 736.569494 
L 627.133707 734.15823 
L 629.57983 733.141716 
" clip-path="url(#pc1761bad90)" style="fill: #f29888"/>
    <path d="M 627.73122 728.671158 
L 628.782562 730.659532 
L 626.667612 731.778485 
L 625.616269 729.790111 
L 627.73122 728.671158 
" clip-path="url(#pc1761bad90)" style="fill: #f29888"/>
    <path d="M 625.928168 723.856508 
L 627.002289 726.020868 
L 624.73139 727.150327 
L 623.657268 724.985968 
L 625.928168 723.856508 
" clip-path="url(#pc1761bad90)" style="fill: #f29888"/>
    <path d="M 624.274056 719.509402 
L 625.244795 721.915414 
L 623.096552 722.782208 
L 622.125813 720.376197 
L 624.274056 719.509402 
" clip-path="url(#pc1761bad90)" style="fill: #f29888"/>
    <path d="M 621.885756 714.928525 
L 622.867009 716.79082 
L 620.899246 717.828346 
L 619.917993 715.966051 
L 621.885756 714.928525 
" clip-path="url(#pc1761bad90)" style="fill: #f29888"/>
    <path d="M 619.748026 709.441453 
L 621.01139 712.519887 
L 619.17154 713.276362 
L 617.909929 710.195301 
L 619.748026 709.441453 
" clip-path="url(#pc1761bad90)" style="fill: #f29888"/>
    <path d="M 616.990005 707.954769 
L 618.828102 707.20092 
L 619.748026 709.441453 
L 617.909929 710.195301 
L 616.990005 707.954769 
" clip-path="url(#pc1761bad90)" style="fill: #f29888"/>
    <path d="M 616.439802 702.336364 
L 617.587518 705.207293 
L 615.798483 705.921742 
L 614.650768 703.050813 
L 616.439802 702.336364 
" clip-path="url(#pc1761bad90)" style="fill: #f29888"/>
    <path d="M 613.792171 700.899587 
L 615.579454 700.185138 
L 616.439802 702.336364 
L 614.650768 703.050813 
L 613.792171 700.899587 
" clip-path="url(#pc1761bad90)" style="fill: #f29888"/>
    <path d="M 613.560876 694.868798 
L 614.854027 697.865806 
L 613.029948 698.653801 
L 611.736797 695.654167 
L 613.560876 694.868798 
" clip-path="url(#pc1761bad90)" style="fill: #f29888"/>
    <path d="M 610.685455 693.219262 
L 612.511286 692.431267 
L 613.560876 694.868798 
L 611.736797 695.654167 
L 610.685455 693.219262 
" clip-path="url(#pc1761bad90)" style="fill: #f29888"/>
    <path d="M 609.558766 687.477405 
L 610.608356 689.591858 
L 609.197805 690.293174 
L 608.148215 688.178721 
L 609.558766 687.477405 
" clip-path="url(#pc1761bad90)" style="fill: #f29888"/>
    <path d="M 608.624823 683.750189 
L 609.649882 686.24288 
L 608.099152 686.883782 
L 607.074093 684.391091 
L 608.624823 683.750189 
" clip-path="url(#pc1761bad90)" style="fill: #f29888"/>
    <path d="M 607.414027 679.86012 
L 608.149967 681.756561 
L 606.585219 682.360691 
L 605.851032 680.46425 
L 607.414027 679.86012 
" clip-path="url(#pc1761bad90)" style="fill: #f29888"/>
    <path d="M 606.196222 676.558421 
L 606.94618 678.412836 
L 605.167659 679.132538 
L 604.415949 677.278123 
L 606.196222 676.558421 
" clip-path="url(#pc1761bad90)" style="fill: #f29888"/>
    <path d="M 603.958615 668.691604 
L 604.536854 670.711498 
L 603.068479 671.131762 
L 602.491992 669.111868 
L 603.958615 668.691604 
" clip-path="url(#pc1761bad90)" style="fill: #f29888"/>
    <path d="M 601.992605 667.365146 
L 603.459228 666.944882 
L 603.958615 668.691604 
L 602.491992 669.111868 
L 601.992605 667.365146 
" clip-path="url(#pc1761bad90)" style="fill: #f29888"/>
    <path d="M 601.230382 660.123472 
L 602.050429 662.589896 
L 600.443627 663.123106 
L 599.62358 660.659308 
L 601.230382 660.123472 
" clip-path="url(#pc1761bad90)" style="fill: #f29888"/>
    <path d="M 599.080386 659.022905 
L 600.687188 658.489695 
L 601.230382 660.123472 
L 599.62358 660.659308 
L 599.080386 659.022905 
" clip-path="url(#pc1761bad90)" style="fill: #f29888"/>
    <path d="M 598.447829 651.250648 
L 599.222317 653.732832 
L 597.61902 654.234522 
L 596.842779 651.749711 
L 598.447829 651.250648 
" clip-path="url(#pc1761bad90)" style="fill: #f29888"/>
    <path d="M 596.124362 649.446139 
L 597.729411 648.947076 
L 598.447829 651.250648 
L 596.842779 651.749711 
L 596.124362 649.446139 
" clip-path="url(#pc1761bad90)" style="fill: #f29888"/>
    <path d="M 595.723099 642.716662 
L 596.564173 644.993968 
L 595.141357 645.519298 
L 594.300283 643.241992 
L 595.723099 642.716662 
" clip-path="url(#pc1761bad90)" style="fill: #f29888"/>
    <path d="M 593.471474 640.998833 
L 594.894291 640.473503 
L 595.723099 642.716662 
L 594.300283 643.241992 
L 593.471474 640.998833 
" clip-path="url(#pc1761bad90)" style="fill: #f29888"/>
    <path d="M 593.008884 633.962037 
L 593.755337 636.168423 
L 591.982073 636.7673 
L 591.235619 634.560914 
L 593.008884 633.962037 
" clip-path="url(#pc1761bad90)" style="fill: #f29888"/>
    <path d="M 590.527715 632.464847 
L 592.30098 631.865971 
L 593.008884 633.962037 
L 591.235619 634.560914 
L 590.527715 632.464847 
" clip-path="url(#pc1761bad90)" style="fill: #f29888"/>
    <path d="M 590.352492 625.183773 
L 590.971032 627.077588 
L 589.062845 627.700104 
L 588.444305 625.806289 
L 590.352492 625.183773 
" clip-path="url(#pc1761bad90)" style="fill: #f29888"/>
    <path d="M 587.795977 623.825795 
L 589.704164 623.200652 
L 590.352492 625.183773 
L 588.444305 625.806289 
L 587.795977 623.825795 
" clip-path="url(#pc1761bad90)" style="fill: #f29888"/>
    <path d="M 508.479199 278.712874 
L 508.034131 280.622448 
L 506.429081 280.249464 
L 506.87415 278.33989 
L 508.479199 278.712874 
" clip-path="url(#pc1761bad90)" style="fill: #f29888"/>
    <path d="M 504.643552 277.583414 
L 504.208997 279.240831 
L 502.733613 278.854713 
L 503.168168 277.197297 
L 504.643552 277.583414 
" clip-path="url(#pc1761bad90)" style="fill: #f29888"/>
    <path d="M 497.708196 274.557514 
L 497.112435 276.535381 
L 495.177965 275.952265 
L 495.773726 273.974397 
L 497.708196 274.557514 
" clip-path="url(#pc1761bad90)" style="fill: #f29888"/>
    <path d="M 487.983278 272.083209 
L 487.666123 273.756385 
L 486.12065 273.4622 
L 486.437805 271.789024 
L 487.983278 272.083209 
" clip-path="url(#pc1761bad90)" style="fill: #f29888"/>
    <path d="M 483.588667 270.588645 
L 482.931578 272.577019 
L 481.156561 271.993903 
L 481.81365 270.002902 
L 483.588667 270.588645 
" clip-path="url(#pc1761bad90)" style="fill: #f29888"/>
    <path d="M 476.588479 267.589011 
L 475.936646 269.90309 
L 473.854988 269.31472 
L 474.506821 267.000641 
L 476.588479 267.589011 
" clip-path="url(#pc1761bad90)" style="fill: #f29888"/>
    <path d="M 315.51756 298.746334 
L 317.786707 299.560595 
L 316.511079 301.527956 
L 314.746576 300.894933 
L 315.51756 298.746334 
" clip-path="url(#pc1761bad90)" style="fill: #f29888"/>
    <path d="M 311.343731 296.897172 
L 313.392096 297.82438 
L 312.480933 299.836393 
L 310.434319 298.909186 
L 311.343731 296.897172 
" clip-path="url(#pc1761bad90)" style="fill: #f29888"/>
    <path d="M 306.903561 295.029624 
L 308.820509 295.864899 
L 307.94439 297.876913 
L 306.027442 297.044264 
L 306.903561 295.029624 
" clip-path="url(#pc1761bad90)" style="fill: #f29888"/>
    <path d="M 302.636863 293.154196 
L 304.653688 294.055137 
L 303.728507 296.132817 
L 301.709929 295.231876 
L 302.636863 293.154196 
" clip-path="url(#pc1761bad90)" style="fill: #f29888"/>
    <path d="M 298.363156 291.305034 
L 300.164456 292.032616 
L 299.309364 294.149696 
L 297.508064 293.422114 
L 298.363156 291.305034 
" clip-path="url(#pc1761bad90)" style="fill: #f29888"/>
    <path d="M 294.075431 289.193208 
L 295.943316 290.025856 
L 295.026896 292.077269 
L 293.159011 291.244621 
L 294.075431 289.193208 
" clip-path="url(#pc1761bad90)" style="fill: #f29888"/>
    <path d="M 289.714112 287.386072 
L 291.706406 288.244987 
L 290.768959 290.42248 
L 288.776665 289.563565 
L 289.714112 287.386072 
" clip-path="url(#pc1761bad90)" style="fill: #f29888"/>
    <path d="M 318.506877 285.886255 
L 319.200763 287.323033 
L 323.604136 285.195446 
L 324.744842 287.554178 
L 317.572935 291.021356 
L 315.73659 287.225847 
L 318.506877 285.886255 
" clip-path="url(#pc1761bad90)" style="fill: #f29888"/>
    <path d="M 285.622638 285.324152 
L 287.381884 286.114774 
L 286.43918 288.208214 
L 284.679934 287.417592 
L 285.622638 285.324152 
" clip-path="url(#pc1761bad90)" style="fill: #f29888"/>
    <path d="M 280.973952 283.201819 
L 282.876882 283.945161 
L 281.986745 286.22772 
L 280.083815 285.484378 
L 280.973952 283.201819 
" clip-path="url(#pc1761bad90)" style="fill: #f29888"/>
    <path d="M 337.960217 307.16212 
L 339.775535 308.073568 
L 338.888902 309.841303 
L 337.073585 308.929856 
L 337.960217 307.16212 
" clip-path="url(#pc1761bad90)" style="fill: #f29888"/>
    <path d="M 333.644456 304.918961 
L 335.265276 305.764743 
L 334.298041 307.616531 
L 332.677221 306.77075 
L 333.644456 304.918961 
" clip-path="url(#pc1761bad90)" style="fill: #f29888"/>
    <path d="M 324.935836 301.010506 
L 326.609223 301.837901 
L 325.6122 303.852541 
L 323.937061 303.025147 
L 324.935836 301.010506 
" clip-path="url(#pc1761bad90)" style="fill: #f29888"/>
    <path d="M 320.644607 298.896053 
L 322.55805 299.736581 
L 321.578549 301.966607 
L 319.665106 301.126079 
L 320.644607 298.896053 
" clip-path="url(#pc1761bad90)" style="fill: #f29888"/>
    <path d="M 372.137607 284.236719 
L 372.75089 285.768056 
L 359.777325 291.38646 
L 358.909967 289.90503 
L 372.137607 284.236719 
" clip-path="url(#pc1761bad90)" style="fill: #f29888"/>
    <path d="M 367.919972 279.666348 
L 369.169317 282.41645 
L 357.594037 287.67763 
L 356.342939 284.927528 
L 367.919972 279.666348 
" clip-path="url(#pc1761bad90)" style="fill: #f29888"/>
    <path d="M 331.953547 281.641589 
L 330.010316 277.614934 
L 332.957579 276.193916 
L 336.377946 283.283245 
L 329.971766 286.372185 
L 328.49463 283.309511 
L 331.953547 281.641589 
" clip-path="url(#pc1761bad90)" style="fill: #f29888"/>
    <path d="M 378.300226 275.190536 
L 379.645944 278.211184 
L 372.349628 281.46035 
L 371.00391 278.442329 
L 378.300226 275.190536 
" clip-path="url(#pc1761bad90)" style="fill: #f29888"/>
    <path d="M 353.591927 267.996142 
L 355.079576 271.363507 
L 359.150024 269.566878 
L 360.595619 272.837058 
L 353.637485 275.912865 
L 350.702487 269.272694 
L 353.591927 267.996142 
" clip-path="url(#pc1761bad90)" style="fill: #f29888"/>
    <path d="M 328.517409 264.988627 
L 331.662675 272.860698 
L 328.480612 274.131996 
L 325.335346 266.259926 
L 328.517409 264.988627 
" clip-path="url(#pc1761bad90)" style="fill: #f29888"/>
    <path d="M 472.449694 267.005895 
L 471.934536 268.857683 
L 470.462657 268.445299 
L 470.977814 266.596137 
L 472.449694 267.005895 
" clip-path="url(#pc1761bad90)" style="fill: #f29888"/>
    <path d="M 469.821338 265.905328 
L 469.202798 267.877942 
L 467.624032 267.381506 
L 468.242572 265.408891 
L 469.821338 265.905328 
" clip-path="url(#pc1761bad90)" style="fill: #f29888"/>
    <path d="M 463.944333 264.01414 
L 463.399388 265.973621 
L 461.806604 265.529717 
L 462.35155 263.570236 
L 463.944333 264.01414 
" clip-path="url(#pc1761bad90)" style="fill: #f29888"/>
    <path d="M 458.04455 262.073046 
L 457.273566 264.0299 
L 455.969901 263.515077 
L 456.740886 261.560849 
L 458.04455 262.073046 
" clip-path="url(#pc1761bad90)" style="fill: #f29888"/>
    <path d="M 383.090843 264.134966 
L 385.726208 264.794255 
L 383.427273 273.956011 
L 380.791908 273.294095 
L 383.090843 264.134966 
" clip-path="url(#pc1761bad90)" style="fill: #f29888"/>
    <path d="M 370.553585 264.576243 
L 371.916825 267.775503 
L 364.445285 270.959003 
L 363.082044 267.757117 
L 370.553585 264.576243 
" clip-path="url(#pc1761bad90)" style="fill: #f29888"/>
    <path d="M 455.269006 261.214131 
L 454.57512 263.157852 
L 452.857927 262.545843 
L 453.550061 260.602122 
L 455.269006 261.214131 
" clip-path="url(#pc1761bad90)" style="fill: #f29888"/>
    <path d="M 451.813594 260.189738 
L 451.394809 261.802501 
L 449.370975 261.277171 
L 449.78976 259.664408 
L 451.813594 260.189738 
" clip-path="url(#pc1761bad90)" style="fill: #f29888"/>
    <path d="M 348.9117 256.357455 
L 352.092011 263.874928 
L 349.348008 265.035907 
L 346.165944 257.518435 
L 348.9117 256.357455 
" clip-path="url(#pc1761bad90)" style="fill: #f29888"/>
    <path d="M 384.548705 256.72256 
L 388.114508 257.523688 
L 387.0509 262.254285 
L 383.485097 261.453157 
L 384.548705 256.72256 
" clip-path="url(#pc1761bad90)" style="fill: #f29888"/>
    <path d="M 449.192247 258.353709 
L 448.519388 260.546962 
L 447.008959 260.084672 
L 447.681818 257.891419 
L 449.192247 258.353709 
" clip-path="url(#pc1761bad90)" style="fill: #f29888"/>
    <path d="M 422.386519 258.272283 
L 421.526171 260.441896 
L 419.92813 259.808874 
L 420.788479 257.639261 
L 422.386519 258.272283 
" clip-path="url(#pc1761bad90)" style="fill: #f29888"/>
    <path d="M 418.657758 256.575467 
L 417.723815 259.123318 
L 416.085473 258.521815 
L 417.019416 255.973965 
L 418.657758 256.575467 
" clip-path="url(#pc1761bad90)" style="fill: #f29888"/>
    <path d="M 441.739981 256.507175 
L 441.266877 258.343203 
L 439.358691 257.852019 
L 439.831795 256.015991 
L 441.739981 256.507175 
" clip-path="url(#pc1761bad90)" style="fill: #f29888"/>
    <path d="M 413.257362 255.038877 
L 412.630061 256.740946 
L 410.737645 256.042257 
L 411.364946 254.340188 
L 413.257362 255.038877 
" clip-path="url(#pc1761bad90)" style="fill: #f29888"/>
    <path d="M 434.993867 254.306042 
L 434.490975 256.331189 
L 432.538983 255.847885 
L 433.041875 253.822738 
L 434.993867 254.306042 
" clip-path="url(#pc1761bad90)" style="fill: #f29888"/>
    <path d="M 408.20391 253.142436 
L 407.453952 255.296289 
L 405.675431 254.676399 
L 406.425389 252.522546 
L 408.20391 253.142436 
" clip-path="url(#pc1761bad90)" style="fill: #f29888"/>
    <path d="M 430.567715 253.105663 
L 429.935158 254.983717 
L 428.321347 254.440001 
L 428.953905 252.561946 
L 430.567715 253.105663 
" clip-path="url(#pc1761bad90)" style="fill: #f29888"/>
    <path d="M 425.477466 251.561192 
L 424.865935 253.397221 
L 422.852614 252.724798 
L 423.464145 250.891397 
L 425.477466 251.561192 
" clip-path="url(#pc1761bad90)" style="fill: #f29888"/>
    <path d="M 387.140264 247.437352 
L 394.215798 249.467752 
L 393.26959 252.758945 
L 389.428686 251.655752 
L 388.401875 255.230623 
L 385.168997 254.300788 
L 387.140264 247.437352 
" clip-path="url(#pc1761bad90)" style="fill: #f29888"/>
    <path d="M 418.196919 248.939796 
L 417.53983 250.670758 
L 415.742035 249.987829 
L 416.399124 248.256867 
L 418.196919 248.939796 
" clip-path="url(#pc1761bad90)" style="fill: #f29888"/>
    <path d="M 349.481178 245.821962 
L 352.777136 246.801703 
L 351.406886 251.419353 
L 348.110928 250.44224 
L 349.481178 245.821962 
" clip-path="url(#pc1761bad90)" style="fill: #f29888"/>
    <path d="M 378.231889 245.196819 
L 376.686415 251.863257 
L 373.176684 251.051622 
L 374.042289 247.313899 
L 370.043683 246.386692 
L 370.723552 243.45535 
L 378.231889 245.196819 
" clip-path="url(#pc1761bad90)" style="fill: #f29888"/>
    <path d="M 409.905332 246.229093 
L 411.510382 246.657237 
L 411.018003 248.503772 
L 409.412953 248.075628 
L 409.905332 246.229093 
" clip-path="url(#pc1761bad90)" style="fill: #f29888"/>
    <path d="M 312.142751 238.82982 
L 311.625841 240.295491 
L 309.465332 239.531135 
L 309.982242 238.068091 
L 312.142751 238.82982 
" clip-path="url(#pc1761bad90)" style="fill: #f29888"/>
    <path d="M 281.587235 237.17503 
L 283.894932 238.133758 
L 283.059114 240.145771 
L 280.751418 239.187044 
L 281.587235 237.17503 
" clip-path="url(#pc1761bad90)" style="fill: #f29888"/>
    <path d="M 275.372049 234.600913 
L 276.833415 235.155136 
L 276.176326 236.888725 
L 274.71496 236.334502 
L 275.372049 234.600913 
" clip-path="url(#pc1761bad90)" style="fill: #f29888"/>
    <path d="M 314.276976 232.691339 
L 313.511248 234.54838 
L 311.320951 233.644813 
L 312.086679 231.787771 
L 314.276976 232.691339 
" clip-path="url(#pc1761bad90)" style="fill: #f29888"/>
    <path d="M 288.158125 228.281193 
L 287.583391 230.127728 
L 285.571823 229.502586 
L 286.146557 227.656051 
L 288.158125 228.281193 
" clip-path="url(#pc1761bad90)" style="fill: #f29888"/>
    <path d="M 316.16764 225.313079 
L 317.557164 225.846289 
L 316.901828 227.548358 
L 315.512303 227.015148 
L 316.16764 225.313079 
" clip-path="url(#pc1761bad90)" style="fill: #f29888"/>
    <path d="M 281.242044 225.56261 
L 280.548158 227.417025 
L 278.238709 226.550231 
L 278.932595 224.698443 
L 281.242044 225.56261 
" clip-path="url(#pc1761bad90)" style="fill: #f29888"/>
    <path d="M 309.474093 222.909694 
L 311.063373 223.450784 
L 310.430815 225.302572 
L 308.841536 224.761482 
L 309.474093 222.909694 
" clip-path="url(#pc1761bad90)" style="fill: #f29888"/>
    <path d="M 306.314809 221.696182 
L 307.734122 222.313444 
L 306.905313 224.209886 
L 305.487753 223.592623 
L 306.314809 221.696182 
" clip-path="url(#pc1761bad90)" style="fill: #f29888"/>
    <path d="M 290.931917 222.142712 
L 290.39398 223.970861 
L 287.881272 223.232772 
L 288.419209 221.401997 
L 290.931917 222.142712 
" clip-path="url(#pc1761bad90)" style="fill: #f29888"/>
    <path d="M 269.982167 278.423942 
L 269.139341 280.575169 
L 267.255685 279.83708 
L 268.100264 277.685854 
L 269.982167 278.423942 
" clip-path="url(#pc1761bad90)" style="fill: #f29888"/>
    <path d="M 265.305445 276.267463 
L 264.445097 278.492235 
L 262.218003 277.630694 
L 263.078351 275.405921 
L 265.305445 276.267463 
" clip-path="url(#pc1761bad90)" style="fill: #f29888"/>
    <path d="M 259.056967 273.819425 
L 258.236919 275.566147 
L 255.766265 274.402541 
L 256.593321 272.661072 
L 259.056967 273.819425 
" clip-path="url(#pc1761bad90)" style="fill: #f29888"/>
    <path d="M 255.766265 274.402541 
L 253.674093 273.409667 
L 254.501149 271.668198 
L 256.593321 272.661072 
L 255.766265 274.402541 
" clip-path="url(#pc1761bad90)" style="fill: #f29888"/>
    <path d="M 251.730862 270.599152 
L 250.86 272.393154 
L 248.378832 271.187522 
L 249.249694 269.39352 
L 251.730862 270.599152 
" clip-path="url(#pc1761bad90)" style="fill: #f29888"/>
    <path d="M 248.378832 271.187522 
L 246.267386 270.160501 
L 247.14 268.369126 
L 249.249694 269.39352 
L 248.378832 271.187522 
" clip-path="url(#pc1761bad90)" style="fill: #f29888"/>
    <path d="M 269.857758 268.23254 
L 268.981639 270.399527 
L 266.857927 269.540612 
L 267.734046 267.373626 
L 269.857758 268.23254 
" clip-path="url(#pc1761bad90)" style="fill: #f29888"/>
    <path d="M 244.36796 267.079441 
L 243.542657 268.918096 
L 241.315563 267.919969 
L 242.140867 266.081314 
L 244.36796 267.079441 
" clip-path="url(#pc1761bad90)" style="fill: #f29888"/>
    <path d="M 241.315563 267.919969 
L 239.318012 267.026908 
L 240.143316 265.185626 
L 242.140867 266.081314 
L 241.315563 267.919969 
" clip-path="url(#pc1761bad90)" style="fill: #f29888"/>
    <path d="M 262.780471 265.230279 
L 262.000725 267.105707 
L 259.875261 266.223153 
L 260.656759 264.345098 
L 262.780471 265.230279 
" clip-path="url(#pc1761bad90)" style="fill: #f29888"/>
    <path d="M 276.885982 281.49187 
L 278.862506 282.44797 
L 277.495761 285.268992 
L 275.519237 284.312892 
L 276.885982 281.49187 
" clip-path="url(#pc1761bad90)" style="fill: #f29888"/>
    <path d="M 272.45983 279.634828 
L 274.275148 280.383423 
L 273.442836 282.398064 
L 271.627518 281.646842 
L 272.45983 279.634828 
" clip-path="url(#pc1761bad90)" style="fill: #f29888"/>
    <path d="M 292.559746 278.437076 
L 291.6626 280.546276 
L 289.945407 279.816067 
L 290.842553 277.706867 
L 292.559746 278.437076 
" clip-path="url(#pc1761bad90)" style="fill: #f29888"/>
    <path d="M 288.815214 276.847952 
L 287.85674 279.143644 
L 285.69448 278.242704 
L 286.651201 275.947011 
L 288.815214 276.847952 
" clip-path="url(#pc1761bad90)" style="fill: #f29888"/>
    <path d="M 283.849374 274.554887 
L 282.98552 276.530128 
L 281.263071 275.776279 
L 282.126924 273.801038 
L 283.849374 274.554887 
" clip-path="url(#pc1761bad90)" style="fill: #f29888"/>
    <path d="M 279.593189 272.519233 
L 278.710061 274.715113 
L 276.642421 273.885091 
L 277.523797 271.689212 
L 279.593189 272.519233 
" clip-path="url(#pc1761bad90)" style="fill: #f29888"/>
    <path d="M 275.172294 270.407406 
L 274.217325 272.779271 
L 272.14618 271.943997 
L 273.099397 269.572132 
L 275.172294 270.407406 
" clip-path="url(#pc1761bad90)" style="fill: #f29888"/>
    <path d="M 303.046886 255.931938 
L 302.317956 258.064778 
L 300.337927 257.387102 
L 301.066858 255.256889 
L 303.046886 255.931938 
" clip-path="url(#pc1761bad90)" style="fill: #f29888"/>
    <path d="M 298.536627 253.754445 
L 297.634225 255.960831 
L 295.526284 255.09929 
L 296.428686 252.892904 
L 298.536627 253.754445 
" clip-path="url(#pc1761bad90)" style="fill: #f29888"/>
    <path d="M 293.623354 252.039243 
L 292.831342 254.08015 
L 291.119407 253.418234 
L 291.911418 251.3747 
L 293.623354 252.039243 
" clip-path="url(#pc1761bad90)" style="fill: #f29888"/>
    <path d="M 234.474828 264.536844 
L 232.128582 263.467797 
L 232.939868 261.684302 
L 235.287866 262.750722 
L 234.474828 264.536844 
" clip-path="url(#pc1761bad90)" style="fill: #f29888"/>
    <path d="M 230.583109 260.673041 
L 229.778832 262.488057 
L 227.418568 261.44265 
L 228.222845 259.627635 
L 230.583109 260.673041 
" clip-path="url(#pc1761bad90)" style="fill: #f29888"/>
    <path d="M 227.418568 261.44265 
L 225.040782 260.389363 
L 225.845059 258.574348 
L 228.222845 259.627635 
L 227.418568 261.44265 
" clip-path="url(#pc1761bad90)" style="fill: #f29888"/>
    <path d="M 223.062506 257.179597 
L 222.188139 259.207371 
L 220.290466 258.387856 
L 221.166585 256.362709 
L 223.062506 257.179597 
" clip-path="url(#pc1761bad90)" style="fill: #f29888"/>
    <path d="M 220.290466 258.387856 
L 218.482157 257.607741 
L 219.356524 255.579967 
L 221.166585 256.362709 
L 220.290466 258.387856 
" clip-path="url(#pc1761bad90)" style="fill: #f29888"/>
    <path d="M 215.971201 254.101163 
L 215.237014 255.861019 
L 213.179887 255.002104 
L 213.914074 253.242249 
L 215.971201 254.101163 
" clip-path="url(#pc1761bad90)" style="fill: #f29888"/>
    <path d="M 213.179887 255.002104 
L 210.893217 254.046003 
L 211.627405 252.288775 
L 213.914074 253.242249 
L 213.179887 255.002104 
" clip-path="url(#pc1761bad90)" style="fill: #f29888"/>
    <path d="M 234.005228 252.039243 
L 233.197447 254.08803 
L 230.597127 253.06101 
L 231.404908 251.014849 
L 234.005228 252.039243 
" clip-path="url(#pc1761bad90)" style="fill: #f29888"/>
    <path d="M 208.315676 250.455373 
L 210.064409 251.193461 
L 209.270645 253.06889 
L 207.521912 252.330801 
L 208.315676 250.455373 
" clip-path="url(#pc1761bad90)" style="fill: #f29888"/>
    <path d="M 230.597127 253.06101 
L 228.83788 252.367574 
L 229.645662 250.321414 
L 231.404908 251.014849 
L 230.597127 253.06101 
" clip-path="url(#pc1761bad90)" style="fill: #f29888"/>
    <path d="M 259.875261 266.223153 
L 257.401102 265.193506 
L 258.180848 263.315451 
L 260.656759 264.345098 
L 259.875261 266.223153 
" clip-path="url(#pc1761bad90)" style="fill: #f29888"/>
    <path d="M 237.551757 263.780368 
L 236.740471 265.56649 
L 234.474828 264.536844 
L 235.287866 262.750722 
L 237.551757 263.780368 
" clip-path="url(#pc1761bad90)" style="fill: #f29888"/>
    <path d="M 255.326453 261.752595 
L 254.558973 263.746222 
L 252.685831 263.02652 
L 253.453311 261.032893 
L 255.326453 261.752595 
" clip-path="url(#pc1761bad90)" style="fill: #f29888"/>
    <path d="M 252.685831 263.02652 
L 250.753114 262.280551 
L 251.520593 260.286924 
L 253.453311 261.032893 
L 252.685831 263.02652 
" clip-path="url(#pc1761bad90)" style="fill: #f29888"/>
    <path d="M 248.618888 258.78448 
L 247.798841 260.686175 
L 245.498154 259.695928 
L 246.318201 257.794233 
L 248.618888 258.78448 
" clip-path="url(#pc1761bad90)" style="fill: #f29888"/>
    <path d="M 245.498154 259.695928 
L 243.430513 258.80812 
L 244.250561 256.903799 
L 246.318201 257.794233 
L 245.498154 259.695928 
" clip-path="url(#pc1761bad90)" style="fill: #f29888"/>
    <path d="M 241.122817 255.419741 
L 240.255459 257.437009 
L 238.249147 256.575467 
L 239.116505 254.5582 
L 241.122817 255.419741 
" clip-path="url(#pc1761bad90)" style="fill: #f29888"/>
    <path d="M 238.249147 256.575467 
L 236.421564 255.790099 
L 237.287169 253.772832 
L 239.116505 254.5582 
L 238.249147 256.575467 
" clip-path="url(#pc1761bad90)" style="fill: #f29888"/>
    <path d="M 268.610165 241.826827 
L 270.24325 242.44409 
L 269.542355 244.293252 
L 267.90927 243.675989 
L 268.610165 241.826827 
" clip-path="url(#pc1761bad90)" style="fill: #f29888"/>
    <path d="M 264.012294 239.470722 
L 266.186821 240.460969 
L 265.188045 242.651596 
L 263.013519 241.661349 
L 264.012294 239.470722 
" clip-path="url(#pc1761bad90)" style="fill: #f29888"/>
    <path d="M 289.365417 250.392333 
L 288.452501 252.617106 
L 286.2587 251.718791 
L 287.171616 249.494019 
L 289.365417 250.392333 
" clip-path="url(#pc1761bad90)" style="fill: #f29888"/>
    <path d="M 284.774555 248.511652 
L 283.979039 250.352933 
L 282.039312 249.512405 
L 282.834828 247.67375 
L 284.774555 248.511652 
" clip-path="url(#pc1761bad90)" style="fill: #f29888"/>
    <path d="M 306.467254 247.455738 
L 308.314112 248.204334 
L 307.56065 250.056122 
L 305.713792 249.307527 
L 306.467254 247.455738 
" clip-path="url(#pc1761bad90)" style="fill: #f29888"/>
    <path d="M 280.041762 246.454985 
L 279.344371 248.624598 
L 277.069967 247.891762 
L 277.767358 245.724776 
L 280.041762 246.454985 
" clip-path="url(#pc1761bad90)" style="fill: #f29888"/>
    <path d="M 300.078596 244.590063 
L 301.592529 245.317645 
L 300.691879 247.190447 
L 299.177946 246.465491 
L 300.078596 244.590063 
" clip-path="url(#pc1761bad90)" style="fill: #f29888"/>
    <path d="M 296.504032 243.58143 
L 298.196693 244.251225 
L 297.548366 245.892882 
L 295.853952 245.223086 
L 296.504032 243.58143 
" clip-path="url(#pc1761bad90)" style="fill: #f29888"/>
    <path d="M 271.818512 243.326645 
L 273.51643 244.017454 
L 272.670099 246.103014 
L 270.972181 245.412205 
L 271.818512 243.326645 
" clip-path="url(#pc1761bad90)" style="fill: #f29888"/>
    <path d="M 293.304447 242.197185 
L 295.042666 242.830208 
L 294.375064 244.660983 
L 292.636844 244.02796 
L 293.304447 242.197185 
" clip-path="url(#pc1761bad90)" style="fill: #f29888"/>
    <path d="M 291.506651 241.42495 
L 290.875846 243.113886 
L 289.232247 242.501877 
L 289.864805 240.812941 
L 291.506651 241.42495 
" clip-path="url(#pc1761bad90)" style="fill: #f29888"/>
    <path d="M 287.017419 239.410309 
L 288.401686 240.061719 
L 287.553603 241.863601 
L 286.169336 241.209565 
L 287.017419 239.410309 
" clip-path="url(#pc1761bad90)" style="fill: #f29888"/>
    <path d="M 204.611446 248.855743 
L 206.23577 249.604338 
L 205.364908 251.490273 
L 203.740584 250.739051 
L 204.611446 248.855743 
" clip-path="url(#pc1761bad90)" style="fill: #f29888"/>
    <path d="M 227.146971 249.013342 
L 226.347951 251.012223 
L 224.09983 250.111282 
L 224.900603 248.115028 
L 227.146971 249.013342 
" clip-path="url(#pc1761bad90)" style="fill: #f29888"/>
    <path d="M 224.09983 250.111282 
L 222.023429 249.28126 
L 222.822449 247.28238 
L 224.900603 248.115028 
L 224.09983 250.111282 
" clip-path="url(#pc1761bad90)" style="fill: #f29888"/>
    <path d="M 200.003062 246.993448 
L 201.653669 247.765683 
L 200.856401 249.470379 
L 199.204041 248.698144 
L 200.003062 246.993448 
" clip-path="url(#pc1761bad90)" style="fill: #f29888"/>
    <path d="M 195.538361 245.146913 
L 197.076825 245.808829 
L 196.395205 247.397952 
L 194.85674 246.736036 
L 195.538361 245.146913 
" clip-path="url(#pc1761bad90)" style="fill: #f29888"/>
    <path d="M 219.360028 245.435845 
L 218.489166 247.426845 
L 216.58098 246.596824 
L 217.451842 244.603197 
L 219.360028 245.435845 
" clip-path="url(#pc1761bad90)" style="fill: #f29888"/>
    <path d="M 216.58098 246.596824 
L 214.611465 245.735283 
L 215.480575 243.741655 
L 217.451842 244.603197 
L 216.58098 246.596824 
" clip-path="url(#pc1761bad90)" style="fill: #f29888"/>
    <path d="M 191.294442 242.9773 
L 192.913509 243.807322 
L 192.02162 245.546164 
L 190.400801 244.713516 
L 191.294442 242.9773 
" clip-path="url(#pc1761bad90)" style="fill: #f29888"/>
    <path d="M 186.736872 241.020446 
L 188.518898 241.876734 
L 187.600725 243.786308 
L 185.820452 242.93002 
L 186.736872 241.020446 
" clip-path="url(#pc1761bad90)" style="fill: #f29888"/>
    <path d="M 207.670853 240.158905 
L 209.424842 240.881233 
L 208.632831 242.803941 
L 206.878841 242.081613 
L 207.670853 240.158905 
" clip-path="url(#pc1761bad90)" style="fill: #f29888"/>
    <path d="M 182.689204 239.081978 
L 184.062958 239.759654 
L 183.171069 241.566789 
L 181.797315 240.889113 
L 182.689204 239.081978 
" clip-path="url(#pc1761bad90)" style="fill: #f29888"/>
    <path d="M 202.252935 237.878972 
L 204.006924 238.448956 
L 203.367358 240.41369 
L 201.613368 239.843707 
L 202.252935 237.878972 
" clip-path="url(#pc1761bad90)" style="fill: #f29888"/>
    <path d="M 179.783994 238.186291 
L 178.928902 240.006559 
L 177.188931 239.189671 
L 178.044023 237.369402 
L 179.783994 238.186291 
" clip-path="url(#pc1761bad90)" style="fill: #f29888"/>
    <path d="M 175.506783 235.948385 
L 174.865464 237.671467 
L 172.922233 236.949138 
L 173.565304 235.226056 
L 175.506783 235.948385 
" clip-path="url(#pc1761bad90)" style="fill: #f29888"/>
    <path d="M 169.733161 233.55288 
L 171.166491 234.135996 
L 170.53919 235.67784 
L 169.104107 235.094723 
L 169.733161 233.55288 
" clip-path="url(#pc1761bad90)" style="fill: #f29888"/>
    <path d="M 165.871229 231.808784 
L 167.013688 232.412914 
L 166.265483 233.823425 
L 165.124776 233.219295 
L 165.871229 231.808784 
" clip-path="url(#pc1761bad90)" style="fill: #f29888"/>
    <path d="M 213.155356 231.141615 
L 212.643702 232.675579 
L 210.54277 231.974263 
L 211.054423 230.442926 
L 213.155356 231.141615 
" clip-path="url(#pc1761bad90)" style="fill: #f29888"/>
    <path d="M 161.010523 229.917596 
L 162.359746 230.540112 
L 161.562478 232.268448 
L 160.215007 231.645932 
L 161.010523 229.917596 
" clip-path="url(#pc1761bad90)" style="fill: #f29888"/>
    <path d="M 221.874489 227.926595 
L 223.78618 228.648924 
L 222.906557 230.97351 
L 220.996618 230.253807 
L 221.874489 227.926595 
" clip-path="url(#pc1761bad90)" style="fill: #f29888"/>
    <path d="M 156.428422 228.029035 
L 157.607678 228.472939 
L 157.083759 229.85981 
L 155.904503 229.415906 
L 156.428422 228.029035 
" clip-path="url(#pc1761bad90)" style="fill: #f29888"/>
    <path d="M 259.521309 237.789666 
L 261.53463 238.475222 
L 260.812708 240.592302 
L 258.80114 239.906746 
L 259.521309 237.789666 
" clip-path="url(#pc1761bad90)" style="fill: #f29888"/>
    <path d="M 255.284399 235.982531 
L 256.947273 236.668087 
L 256.206076 238.462089 
L 254.543203 237.776533 
L 255.284399 235.982531 
" clip-path="url(#pc1761bad90)" style="fill: #f29888"/>
    <path d="M 250.817946 233.986277 
L 252.477315 234.57202 
L 251.743128 236.652327 
L 250.083759 236.066584 
L 250.817946 233.986277 
" clip-path="url(#pc1761bad90)" style="fill: #f29888"/>
    <path d="M 246.318201 232.391901 
L 247.865426 232.985523 
L 247.117221 234.939751 
L 245.569995 234.348755 
L 246.318201 232.391901 
" clip-path="url(#pc1761bad90)" style="fill: #f29888"/>
    <path d="M 268.962365 232.068823 
L 270.570919 232.659819 
L 269.936609 234.382901 
L 268.328055 233.791905 
L 268.962365 232.068823 
" clip-path="url(#pc1761bad90)" style="fill: #f29888"/>
    <path d="M 242.040989 230.456059 
L 243.647791 231.068069 
L 242.852275 233.158882 
L 241.245473 232.546873 
L 242.040989 230.456059 
" clip-path="url(#pc1761bad90)" style="fill: #f29888"/>
    <path d="M 265.277409 230.658312 
L 266.810617 231.141615 
L 266.334008 232.646686 
L 264.800801 232.163382 
L 265.277409 230.658312 
" clip-path="url(#pc1761bad90)" style="fill: #f29888"/>
    <path d="M 261.093066 229.019282 
L 262.720895 229.528852 
L 262.268818 230.968256 
L 260.642741 230.458686 
L 261.093066 229.019282 
" clip-path="url(#pc1761bad90)" style="fill: #f29888"/>
    <path d="M 237.458888 228.457179 
L 239.021884 228.958869 
L 238.398088 230.897337 
L 236.835092 230.395647 
L 237.458888 228.457179 
" clip-path="url(#pc1761bad90)" style="fill: #f29888"/>
    <path d="M 258.107254 227.464305 
L 259.188384 227.963369 
L 258.46471 229.531479 
L 257.38358 229.032415 
L 258.107254 227.464305 
" clip-path="url(#pc1761bad90)" style="fill: #f29888"/>
    <path d="M 215.222996 227.414399 
L 214.420471 229.492079 
L 211.632661 228.415152 
L 212.435186 226.337472 
L 215.222996 227.414399 
" clip-path="url(#pc1761bad90)" style="fill: #f29888"/>
    <path d="M 216.691371 223.784368 
L 216.149929 225.150226 
L 214.292558 224.414764 
L 214.833999 223.048906 
L 216.691371 223.784368 
" clip-path="url(#pc1761bad90)" style="fill: #f29888"/>
    <path d="M 223.777419 222.518323 
L 225.319388 223.177612 
L 224.592209 224.879681 
L 223.051992 224.220392 
L 223.777419 222.518323 
" clip-path="url(#pc1761bad90)" style="fill: #f29888"/>
    <path d="M 218.447113 219.510809 
L 217.875883 221.136705 
L 215.436769 220.280417 
L 216.007998 218.654521 
L 218.447113 219.510809 
" clip-path="url(#pc1761bad90)" style="fill: #f29888"/>
    <path d="M 228.843137 215.124303 
L 228.1878 216.852639 
L 226.474112 216.203856 
L 227.129449 214.475521 
L 228.843137 215.124303 
" clip-path="url(#pc1761bad90)" style="fill: #f29888"/>
    <path d="M 222.494781 210.396333 
L 221.692256 212.358441 
L 219.848902 211.604592 
L 220.651427 209.642485 
L 222.494781 210.396333 
" clip-path="url(#pc1761bad90)" style="fill: #f29888"/>
    <path d="M 199.302167 206.782063 
L 201.248902 207.66987 
L 197.837296 215.15845 
L 195.890561 214.273269 
L 199.302167 206.782063 
" clip-path="url(#pc1761bad90)" style="fill: #f29888"/>
    <path d="M 194.85674 209.311527 
L 193.95609 211.809471 
L 187.586707 209.513779 
L 188.485605 207.015835 
L 194.85674 209.311527 
" clip-path="url(#pc1761bad90)" style="fill: #f29888"/>
    <path d="M 224.60097 206.280373 
L 223.910589 208.024468 
L 221.722044 207.157674 
L 222.412426 205.413578 
L 224.60097 206.280373 
" clip-path="url(#pc1761bad90)" style="fill: #f29888"/>
    <path d="M 232.743618 206.122774 
L 232.186406 207.71715 
L 230.542807 207.14454 
L 231.100019 205.547537 
L 232.743618 206.122774 
" clip-path="url(#pc1761bad90)" style="fill: #f29888"/>
    <path d="M 233.195695 226.321712 
L 235.315902 227.220027 
L 234.464315 229.229414 
L 232.342355 228.3311 
L 233.195695 226.321712 
" clip-path="url(#pc1761bad90)" style="fill: #f29888"/>
    <path d="M 254.417042 225.69657 
L 255.95025 226.305952 
L 255.272134 228.013275 
L 253.738926 227.403892 
L 254.417042 225.69657 
" clip-path="url(#pc1761bad90)" style="fill: #f29888"/>
    <path d="M 250.129317 224.230899 
L 251.977927 225.003134 
L 251.326095 226.563364 
L 249.477485 225.791129 
L 250.129317 224.230899 
" clip-path="url(#pc1761bad90)" style="fill: #f29888"/>
    <path d="M 246.570523 222.384364 
L 248.054668 223.090933 
L 247.24163 224.798255 
L 245.757485 224.091686 
L 246.570523 222.384364 
" clip-path="url(#pc1761bad90)" style="fill: #f29888"/>
    <path d="M 242.952153 221.191865 
L 244.360951 221.832767 
L 243.558427 223.60313 
L 242.149628 222.962227 
L 242.952153 221.191865 
" clip-path="url(#pc1761bad90)" style="fill: #f29888"/>
    <path d="M 239.188347 219.852273 
L 240.693519 220.466909 
L 240.050447 222.045526 
L 238.545276 221.43089 
L 239.188347 219.852273 
" clip-path="url(#pc1761bad90)" style="fill: #f29888"/>
    <path d="M 235.387744 218.013618 
L 237.101432 218.71756 
L 236.361988 220.519442 
L 234.6483 219.818127 
L 235.387744 218.013618 
" clip-path="url(#pc1761bad90)" style="fill: #f29888"/>
    <path d="M 272.319651 208.182067 
L 271.618756 209.886763 
L 270.159143 209.28526 
L 270.860038 207.583191 
L 272.319651 208.182067 
" clip-path="url(#pc1761bad90)" style="fill: #f29888"/>
    <path d="M 268.932577 206.863489 
L 268.352586 208.368559 
L 266.835148 207.785443 
L 267.413387 206.280373 
L 268.932577 206.863489 
" clip-path="url(#pc1761bad90)" style="fill: #f29888"/>
    <path d="M 264.976024 205.358418 
L 264.375007 207.089381 
L 263.160707 206.669117 
L 263.761724 204.938154 
L 264.976024 205.358418 
" clip-path="url(#pc1761bad90)" style="fill: #f29888"/>
    <path d="M 368.128488 242.549156 
L 367.364512 245.70639 
L 362.099039 244.429838 
L 362.863015 241.272604 
L 368.128488 242.549156 
" clip-path="url(#pc1761bad90)" style="fill: #f29888"/>
    <path d="M 359.40585 239.969786 
L 358.736496 242.819701 
L 350.299472 240.833954 
L 350.970579 237.984038 
L 359.40585 239.969786 
" clip-path="url(#pc1761bad90)" style="fill: #f29888"/>
    <path d="M 377.82537 211.352434 
L 381.832737 212.794465 
L 379.072963 220.464283 
L 375.065596 219.022252 
L 377.82537 211.352434 
" clip-path="url(#pc1761bad90)" style="fill: #f29888"/>
    <path d="M 363.034734 198.765527 
L 362.006171 201.615442 
L 360.00862 200.89574 
L 361.037183 198.045825 
L 363.034734 198.765527 
" clip-path="url(#pc1761bad90)" style="fill: #f29888"/>
    <path d="M 362.228705 194.736246 
L 364.226255 195.455948 
L 363.034734 198.765527 
L 361.037183 198.045825 
L 362.228705 194.736246 
" clip-path="url(#pc1761bad90)" style="fill: #f29888"/>
    <path d="M 366.001272 189.464559 
L 364.969204 192.965884 
L 362.887546 192.351247 
L 363.917862 188.849923 
L 366.001272 189.464559 
" clip-path="url(#pc1761bad90)" style="fill: #f29888"/>
    <path d="M 364.937664 185.390625 
L 367.021074 186.002634 
L 366.001272 189.464559 
L 363.917862 188.849923 
L 364.937664 185.390625 
" clip-path="url(#pc1761bad90)" style="fill: #f29888"/>
    <path d="M 368.775064 180.39999 
L 367.651879 183.680676 
L 365.522911 182.953094 
L 366.646095 179.669781 
L 368.775064 180.39999 
" clip-path="url(#pc1761bad90)" style="fill: #f29888"/>
    <path d="M 367.893688 176.021364 
L 370.024409 176.748946 
L 368.775064 180.39999 
L 366.646095 179.669781 
L 367.893688 176.021364 
" clip-path="url(#pc1761bad90)" style="fill: #f29888"/>
    <path d="M 340.819868 173.917418 
L 340.18731 176.565081 
L 337.676354 175.963578 
L 338.30716 173.318541 
L 340.819868 173.917418 
" clip-path="url(#pc1761bad90)" style="fill: #f29888"/>
    <path d="M 380.07349 170.752304 
L 381.441988 171.41422 
L 380.699039 172.948184 
L 379.330542 172.286268 
L 380.07349 170.752304 
" clip-path="url(#pc1761bad90)" style="fill: #f29888"/>
    <path d="M 374.569713 168.144041 
L 375.859359 168.853236 
L 374.911399 170.571065 
L 373.621752 169.86187 
L 374.569713 168.144041 
" clip-path="url(#pc1761bad90)" style="fill: #f29888"/>
    <path d="M 370.364343 166.394692 
L 372.042986 167.145914 
L 371.175629 169.081755 
L 369.496985 168.327906 
L 370.364343 166.394692 
" clip-path="url(#pc1761bad90)" style="fill: #f29888"/>
    <path d="M 350.511493 166.807076 
L 349.894706 168.566931 
L 347.038559 167.563551 
L 347.655346 165.803696 
L 350.511493 166.807076 
" clip-path="url(#pc1761bad90)" style="fill: #f29888"/>
    <path d="M 365.421281 165.131273 
L 367.557259 165.945535 
L 366.465615 168.81121 
L 364.329637 167.996948 
L 365.421281 165.131273 
" clip-path="url(#pc1761bad90)" style="fill: #f29888"/>
    <path d="M 359.128997 163.45547 
L 360.513264 164.03596 
L 359.703731 165.963921 
L 358.319463 165.383432 
L 359.128997 163.45547 
" clip-path="url(#pc1761bad90)" style="fill: #f29888"/>
    <path d="M 351.391116 161.35415 
L 352.985652 162.042333 
L 352.268987 163.705002 
L 350.672699 163.01682 
L 351.391116 161.35415 
" clip-path="url(#pc1761bad90)" style="fill: #f29888"/>
    <path d="M 303.038125 220.33295 
L 304.641423 221.152465 
L 303.812614 222.770481 
L 302.209317 221.950967 
L 303.038125 220.33295 
" clip-path="url(#pc1761bad90)" style="fill: #f29888"/>
    <path d="M 299.90162 219.182478 
L 301.119425 219.663154 
L 300.374724 221.541209 
L 299.158672 221.060532 
L 299.90162 219.182478 
" clip-path="url(#pc1761bad90)" style="fill: #f29888"/>
    <path d="M 282.615798 218.355083 
L 284.280424 219.187731 
L 283.325455 221.097305 
L 281.660829 220.264657 
L 282.615798 218.355083 
" clip-path="url(#pc1761bad90)" style="fill: #f29888"/>
    <path d="M 296.814178 217.653767 
L 298.478804 218.510055 
L 297.26976 220.855654 
L 295.605134 219.996739 
L 296.814178 217.653767 
" clip-path="url(#pc1761bad90)" style="fill: #f29888"/>
    <path d="M 291.522421 215.851885 
L 292.964512 216.382469 
L 292.270626 218.26315 
L 290.828535 217.732567 
L 291.522421 215.851885 
" clip-path="url(#pc1761bad90)" style="fill: #f29888"/>
    <path d="M 279.89983 210.995209 
L 279.276034 212.747185 
L 277.758596 212.208722 
L 278.380641 210.456746 
L 279.89983 210.995209 
" clip-path="url(#pc1761bad90)" style="fill: #f29888"/>
    <path d="M 276.213123 209.610965 
L 275.387819 211.40234 
L 274.017569 210.771944 
L 274.842873 208.977942 
L 276.213123 209.610965 
" clip-path="url(#pc1761bad90)" style="fill: #f29888"/>
    <path d="M 261.425992 203.729895 
L 260.658512 205.534404 
L 259.069232 204.859355 
L 259.836712 203.054846 
L 261.425992 203.729895 
" clip-path="url(#pc1761bad90)" style="fill: #f29888"/>
    <path d="M 257.684965 202.269478 
L 256.912228 204.073987 
L 255.461375 203.45147 
L 256.234112 201.646962 
L 257.684965 202.269478 
" clip-path="url(#pc1761bad90)" style="fill: #f29888"/>
    <path d="M 254.000009 200.809061 
L 253.377965 202.563663 
L 251.813217 202.00944 
L 252.435261 200.254837 
L 254.000009 200.809061 
" clip-path="url(#pc1761bad90)" style="fill: #f29888"/>
    <path d="M 235.508648 200.451836 
L 234.893613 202.093492 
L 233.311342 201.49987 
L 233.926378 199.858213 
L 235.508648 200.451836 
" clip-path="url(#pc1761bad90)" style="fill: #f29888"/>
    <path d="M 250.125813 199.34339 
L 249.50552 201.273978 
L 247.965304 200.780167 
L 248.585596 198.846953 
L 250.125813 199.34339 
" clip-path="url(#pc1761bad90)" style="fill: #f29888"/>
    <path d="M 246.523212 197.982785 
L 245.960744 199.437949 
L 244.127904 198.728754 
L 244.690372 197.276216 
L 246.523212 197.982785 
" clip-path="url(#pc1761bad90)" style="fill: #f29888"/>
    <path d="M 237.714715 194.570767 
L 237.057626 196.322742 
L 235.338681 195.679213 
L 235.994018 193.927237 
L 237.714715 194.570767 
" clip-path="url(#pc1761bad90)" style="fill: #f29888"/>
    <path d="M 186.137607 205.602697 
L 185.077504 208.153174 
L 178.553924 205.445098 
L 179.614027 202.891994 
L 186.137607 205.602697 
" clip-path="url(#pc1761bad90)" style="fill: #f29888"/>
    <path d="M 226.530184 201.917507 
L 225.776722 203.719389 
L 223.858022 202.915634 
L 224.611484 201.113752 
L 226.530184 201.917507 
" clip-path="url(#pc1761bad90)" style="fill: #f29888"/>
    <path d="M 203.724814 196.291223 
L 205.573424 197.066084 
L 202.542054 204.297252 
L 200.693443 203.52239 
L 203.724814 196.291223 
" clip-path="url(#pc1761bad90)" style="fill: #f29888"/>
    <path d="M 228.561027 197.073964 
L 227.774272 198.8023 
L 225.936175 197.964399 
L 226.721178 196.23869 
L 228.561027 197.073964 
" clip-path="url(#pc1761bad90)" style="fill: #f29888"/>
    <path d="M 230.684739 192.062316 
L 230.025897 193.630426 
L 228.243872 192.881831 
L 228.902713 191.313721 
L 230.684739 192.062316 
" clip-path="url(#pc1761bad90)" style="fill: #f29888"/>
    <path d="M 208.06861 185.498318 
L 209.918973 186.20226 
L 207.252068 193.210162 
L 205.401705 192.50622 
L 208.06861 185.498318 
" clip-path="url(#pc1761bad90)" style="fill: #f29888"/>
    <path d="M 217.539454 177.074651 
L 216.817532 179.194357 
L 212.999407 177.896792 
L 213.721328 175.774459 
L 217.539454 177.074651 
" clip-path="url(#pc1761bad90)" style="fill: #f29888"/>
   </g>
   <g id="LineCollection_1">
    <path d="M 145.030243 232.814104 
L 150.861564 222.187365 
" clip-path="url(#pc1761bad90)" style="fill: none; stroke: #f29888; stroke-width: 0.2"/>
    <path d="M 331.941281 289.80259 
L 351.809901 281.171418 
L 373.772445 271.266321 
L 375.610542 267.996142 
L 382.799972 242.916887 
" clip-path="url(#pc1761bad90)" style="fill: none; stroke: #f29888; stroke-width: 0.2"/>
    <path d="M 351.809901 281.171418 
L 342.039425 257.544701 
L 349.754527 230.981389 
" clip-path="url(#pc1761bad90)" style="fill: none; stroke: #f29888; stroke-width: 0.2"/>
    <path d="M 277.306519 239.972413 
L 263.766981 271.970263 
" clip-path="url(#pc1761bad90)" style="fill: none; stroke: #f29888; stroke-width: 0.2"/>
    <path d="M 222.825954 217.446262 
L 277.306519 239.972413 
L 330.090919 261.797248 
L 342.039425 257.544701 
" clip-path="url(#pc1761bad90)" style="fill: none; stroke: #f29888; stroke-width: 0.2"/>
    <path d="M 554.995846 674.538527 
L 593.948083 773.660419 
L 593.892176 774.708877 
" clip-path="url(#pc1761bad90)" style="fill: none; stroke: #f29888; stroke-width: 0.2"/>
    <path d="M 538.614178 542.788388 
L 568.519614 627.510985 
" clip-path="url(#pc1761bad90)" style="fill: none; stroke: #f29888; stroke-width: 0.2"/>
    <path d="M 529.090774 398.235226 
L 525.800066 384.577377 
L 529.164362 377.004745 
" clip-path="url(#pc1761bad90)" style="fill: none; stroke: #f29888; stroke-width: 0.2"/>
    <path d="M 555.737042 454.409495 
L 547.180867 432.306235 
L 535.682685 407.19546 
L 529.501604 398.988427 
" clip-path="url(#pc1761bad90)" style="fill: none; stroke: #f29888; stroke-width: 0.2"/>
    <path d="M 529.164362 377.004745 
L 553.189289 335.398608 
L 558.82098 331.763325 
L 568.207715 331.293154 
L 574.543806 329.063128 
L 580.077372 302.946347 
" clip-path="url(#pc1761bad90)" style="fill: none; stroke: #f29888; stroke-width: 0.2"/>
    <path d="M 526.946029 288.962062 
L 540.413726 235.782906 
" clip-path="url(#pc1761bad90)" style="fill: none; stroke: #f29888; stroke-width: 0.2"/>
    <path d="M 209.353 248.77169 
L 222.825954 217.446262 
L 234.853311 189.488199 
L 291.047565 209.781697 
L 349.754527 230.981389 
L 355.589477 233.087963 
L 382.799972 242.916887 
L 406.397353 248.78745 
L 492.551361 278.263717 
L 526.946029 288.962062 
L 538.477504 292.550066 
L 580.077372 302.946347 
L 583.383844 303.773742 
L 619.614856 303.773742 
L 651.251503 297.651021 
" clip-path="url(#pc1761bad90)" style="fill: none; stroke: #f29888; stroke-width: 0.2"/>
    <path d="M 567.345615 236.964898 
L 554.165285 240.597555 
L 540.413726 235.782906 
L 523.248808 229.77313 
L 472.596882 213.248875 
L 459.491898 208.975316 
L 414.471663 192.309221 
L 404.7117 189.175628 
L 373.225747 174.857758 
L 354.944654 167.190567 
L 341.809882 161.682482 
" clip-path="url(#pc1761bad90)" style="fill: none; stroke: #f29888; stroke-width: 0.2"/>
    <path d="M 426.86699 160.471596 
L 461.629628 173.221355 
L 486.245059 182.577483 
L 504.158182 189.388386 
L 530.657268 201.639082 
L 539.420207 208.189947 
L 561.218041 221.580609 
L 560.007244 230.697711 
L 566.062977 233.902224 
L 567.345615 236.964898 
" clip-path="url(#pc1761bad90)" style="fill: none; stroke: #f29888; stroke-width: 0.2"/>
    <path d="M 657.477202 768.449146 
L 640.44195 774.984251 
L 635.730184 773.318955 
L 602.886246 687.661271 
L 582.654913 622.105339 
" clip-path="url(#pc1761bad90)" style="fill: none; stroke: #f29888; stroke-width: 0.2"/>
    <path d="M 657.564529 771.479205 
L 657.477202 768.449146 
L 657.016364 752.284741 
L 655.469138 722.125546 
L 651.023712 708.981789 
L 613.722082 608.654264 
L 555.737042 454.409495 
" clip-path="url(#pc1761bad90)" style="fill: none; stroke: #f29888; stroke-width: 0.2"/>
    <path d="M 613.722082 608.654264 
L 582.654913 622.105339 
L 568.519614 627.510985 
" clip-path="url(#pc1761bad90)" style="fill: none; stroke: #f29888; stroke-width: 0.2"/>
    <path d="M 654.456345 319.990679 
L 659.440493 321.317611 
" clip-path="url(#pc1761bad90)" style="fill: none; stroke: #f29888; stroke-width: 0.2"/>
    <path d="M 567.345615 236.964898 
L 608.733462 249.714658 
L 640.646962 262.393497 
L 678.663504 279.117378 
" clip-path="url(#pc1761bad90)" style="fill: none; stroke: #f29888; stroke-width: 0.2"/>
    <path d="M 778.027631 163.741775 
L 766.99204 179.593608 
L 723.310513 233.122109 
L 716.655516 241.824201 
L 715.772388 242.979927 
L 710.554225 254.960078 
L 702.823354 268.29558 
L 698.957918 272.931617 
L 692.77252 276.989791 
L 678.663504 279.117378 
L 668.999915 293.030743 
L 662.234527 296.7028 
L 651.251503 297.651021 
" clip-path="url(#pc1761bad90)" style="fill: none; stroke: #f29888; stroke-width: 0.2"/>
    <path d="M 694.358295 227.222653 
L 693.732746 215.762579 
L 723.604889 162.478357 
" clip-path="url(#pc1761bad90)" style="fill: none; stroke: #f29888; stroke-width: 0.2"/>
    <path d="M 716.655516 241.824201 
L 694.358295 227.222653 
L 688.87204 223.629396 
L 657.829402 203.955787 
L 631.750853 177.599981 
L 605.171163 151.861437 
L 593.946331 142.439644 
" clip-path="url(#pc1761bad90)" style="fill: none; stroke: #f29888; stroke-width: 0.2"/>
    <path d="M 578.563439 160.174785 
L 587.09333 165.714389 
L 600.208827 175.548567 
L 628.922741 201.972667 
L 648.992869 218.959212 
" clip-path="url(#pc1761bad90)" style="fill: none; stroke: #f29888; stroke-width: 0.2"/>
    <path d="M 725.98618 163.45547 
L 723.604889 162.478357 
L 712.185558 157.647947 
L 694.770071 149.741731 
L 676.515261 143.01488 
L 662.541168 136.067391 
" clip-path="url(#pc1761bad90)" style="fill: none; stroke: #f29888; stroke-width: 0.2"/>
    <path d="M 291.047565 209.781697 
L 277.306519 239.972413 
" clip-path="url(#pc1761bad90)" style="fill: none; stroke: #f29888; stroke-width: 0.2"/>
    <path d="M 152.562986 223.072546 
L 161.727188 206.435345 
L 163.071154 203.995187 
" clip-path="url(#pc1761bad90)" style="fill: none; stroke: #f29888; stroke-width: 0.2"/>
    <path d="M 48.14607 172.037234 
L 82.787141 188.466432 
L 110.612671 202.051466 
L 141.46081 217.112677 
L 150.861564 222.187365 
L 152.562986 223.072546 
L 159.885586 226.886442 
L 209.353 248.77169 
L 263.766981 271.970263 
L 344.056251 308.365126 
" clip-path="url(#pc1761bad90)" style="fill: none; stroke: #f29888; stroke-width: 0.2"/>
    <path d="M 355.589477 233.087963 
L 365.246057 203.845468 
L 373.225747 174.857758 
" clip-path="url(#pc1761bad90)" style="fill: none; stroke: #f29888; stroke-width: 0.2"/>
    <path d="M 128.432925 175.165076 
L 123.368959 183.134332 
L 110.612671 202.051466 
" clip-path="url(#pc1761bad90)" style="fill: none; stroke: #f29888; stroke-width: 0.2"/>
    <path d="M 161.727188 206.435345 
L 148.8535 199.114871 
L 123.368959 183.134332 
L 119.74358 180.86228 
L 93.747386 165.049847 
L 78.184013 155.546627 
L 75.970937 153.555626 
" clip-path="url(#pc1761bad90)" style="fill: none; stroke: #f29888; stroke-width: 0.2"/>
    <path d="M 681.803514 89.378686 
L 670.440254 118.610674 
L 662.541168 136.067391 
L 656.741262 144.259912 
L 636.301413 172.344054 
L 631.750853 177.599981 
" clip-path="url(#pc1761bad90)" style="fill: none; stroke: #f29888; stroke-width: 0.2"/>
    <path d="M 694.770071 149.741731 
L 715.129317 107.436905 
" clip-path="url(#pc1761bad90)" style="fill: none; stroke: #f29888; stroke-width: 0.2"/>
    <path d="M 578.563439 160.174785 
L 587.016232 152.00065 
L 591.717485 145.515451 
L 593.946331 142.439644 
L 602.814404 124.013694 
L 609.742751 106.002754 
L 627.620829 61.115932 
" clip-path="url(#pc1761bad90)" style="fill: none; stroke: #f29888; stroke-width: 0.2"/>
    <path d="M 571.692916 55.458128 
L 580.580264 48.3294 
L 590.557504 47.635964 
L 627.620829 61.115932 
L 657.829402 75.525734 
L 681.803514 89.378686 
L 715.129317 107.436905 
L 739.527471 125.219326 
L 778.027631 163.741775 
" clip-path="url(#pc1761bad90)" style="fill: none; stroke: #f29888; stroke-width: 0.2"/>
    <path d="M 657.829402 75.525734 
L 635.518163 123.320258 
" clip-path="url(#pc1761bad90)" style="fill: none; stroke: #f29888; stroke-width: 0.2"/>
    <path d="M 778.027631 163.741775 
L 778.461696 163.222178 
" clip-path="url(#pc1761bad90)" style="fill: none; stroke: #f29888; stroke-width: 0.2"/>
    <path d="M 486.245059 182.577483 
L 472.596882 213.248875 
" clip-path="url(#pc1761bad90)" style="fill: none; stroke: #f29888; stroke-width: 0.2"/>
    <path d="M 378.748799 208.245107 
L 385.421319 210.031229 
L 393.411521 208.996329 
L 399.709063 195.744879 
L 404.7117 189.175628 
L 409.954395 186.816896 
L 418.622713 167.660737 
" clip-path="url(#pc1761bad90)" style="fill: none; stroke: #f29888; stroke-width: 0.2"/>
    <path d="M 354.944654 167.190567 
L 363.323853 145.943595 
L 388.754074 156.342502 
L 418.622713 167.660737 
L 422.022054 168.947796 
" clip-path="url(#pc1761bad90)" style="fill: none; stroke: #f29888; stroke-width: 0.2"/>
    <path d="M 533.301394 124.791182 
L 556.872492 132.40584 
L 566.178625 134.191962 
L 591.717485 145.515451 
" clip-path="url(#pc1761bad90)" style="fill: none; stroke: #f29888; stroke-width: 0.2"/>
    <path d="M 531.850542 150.716218 
L 532.84406 134.02911 
L 533.301394 124.791182 
L 533.937456 111.975756 
L 535.724739 87.739657 
L 542.381488 77.309229 
L 550.827273 67.078427 
L 558.975177 58.636374 
L 571.692916 55.458128 
" clip-path="url(#pc1761bad90)" style="fill: none; stroke: #f29888; stroke-width: 0.2"/>
    <path d="M 571.692916 55.458128 
L 566.625445 81.582789 
L 566.327565 100.155831 
L 564.140772 112.472193 
" clip-path="url(#pc1761bad90)" style="fill: none; stroke: #f29888; stroke-width: 0.2"/>
    <path d="M 590.557504 47.635964 
L 589.074654 45.137566 
" clip-path="url(#pc1761bad90)" style="fill: none; stroke: #f29888; stroke-width: 0.2"/>
   </g>
  </g>
 </g>
 <defs>
  <clipPath id="pc1761bad90">
   <rect x="7.2" y="7.2" width="837" height="809.152676"/>
  </clipPath>
 </defs>
</svg>
