<?xml version="1.0" encoding="utf-8" standalone="no"?>
<!DOCTYPE svg PUBLIC "-//W3C//DTD SVG 1.1//EN"
  "http://www.w3.org/Graphics/SVG/1.1/DTD/svg11.dtd">
<svg xmlns:xlink="http://www.w3.org/1999/xlink" width="772.80777pt" height="846pt" viewBox="0 0 772.80777 846" xmlns="http://www.w3.org/2000/svg" version="1.1">
 <metadata>
  <rdf:RDF xmlns:dc="http://purl.org/dc/elements/1.1/" xmlns:cc="http://creativecommons.org/ns#" xmlns:rdf="http://www.w3.org/1999/02/22-rdf-syntax-ns#">
   <cc:Work>
    <dc:type rdf:resource="http://purl.org/dc/dcmitype/StillImage"/>
    <dc:date>2025-03-16T14:38:48.700718</dc:date>
    <dc:format>image/svg+xml</dc:format>
    <dc:creator>
     <cc:Agent>
      <dc:title>Matplotlib v3.10.1, https://matplotlib.org/</dc:title>
     </cc:Agent>
    </dc:creator>
   </cc:Work>
  </rdf:RDF>
 </metadata>
 <defs>
  <style type="text/css">*{stroke-linejoin: round; stroke-linecap: butt}</style>
 </defs>
 <g id="figure_1">
  <g id="patch_1">
   <path d="M 0 846 
L 772.80777 846 
L 772.80777 0 
L 0 0 
z
" style="fill: #ffffff"/>
  </g>
  <g id="axes_1">
   <g id="PatchCollection_1">
    <path d="M 41.67308 617.727273 
L 44.507391 632.224501 
L 118.243982 678.669903 
L 184.427358 602.602824 
L 201.385735 611.290485 
L 571.733661 801 
L 627.529512 732.050309 
L 688.667518 594.595763 
L 686.159673 535.686037 
L 678.392771 492.754846 
L 684.114814 459.636752 
L 680.028065 436.327308 
L 673.893489 417.928861 
L 664.90086 391.763566 
L 671.442033 352.101924 
L 672.053413 343.974757 
L 660.60636 341.114457 
L 658.766284 334.161659 
L 649.36409 331.096734 
L 655.290915 287.756293 
L 663.672164 267.725296 
L 731.13469 260.363248 
L 647.319231 214.166955 
L 575.360391 175.328261 
L 518.706828 152.210097 
L 514.516203 138.767132 
L 465.077518 112.174793 
L 456.693301 132.121271 
L 404.654767 111.885649 
L 388.177184 139.634563 
L 310.552691 121.440741 
L 289.715315 145.977935 
L 216.118214 136.983336 
L 209.167475 117.35714 
L 203.035867 93.238094 
L 223.068952 70.756046 
L 224.704245 56.036399 
L 200.581444 45 
L 143.767616 75.471315 
L 72.242084 220.488085 
L 67.196714 266.306267 
L 108.153243 350.380406 
L 41.67308 617.727273 
" clip-path="url(#p2ef4b35300)" style="fill: #f29888"/>
   </g>
   <g id="PatchCollection_2">
    <path d="M 284.572006 514.778711 
L 286.842422 515.432621 
L 285.925352 518.608756 
L 283.654936 517.954846 
L 284.572006 514.778711 
" clip-path="url(#p2ef4b35300)" style="fill: #f29888"/>
    <path d="M 277.21467 514.267149 
L 279.253593 514.671951 
L 278.716409 517.358764 
L 276.677487 516.949515 
L 277.21467 514.267149 
" clip-path="url(#p2ef4b35300)" style="fill: #f29888"/>
    <path d="M 270.379678 512.768049 
L 273.121985 513.390821 
L 272.415633 516.486884 
L 269.673327 515.859665 
L 270.379678 512.768049 
" clip-path="url(#p2ef4b35300)" style="fill: #f29888"/>
    <path d="M 192.517756 494.027079 
L 191.716433 497.501253 
L 188.365714 496.727237 
L 189.167037 493.253063 
L 192.517756 494.027079 
" clip-path="url(#p2ef4b35300)" style="fill: #f29888"/>
    <path d="M 291.095372 491.246849 
L 290.593803 494.351809 
L 287.732782 493.889179 
L 288.234351 490.784219 
L 291.095372 491.246849 
" clip-path="url(#p2ef4b35300)" style="fill: #f29888"/>
    <path d="M 172.214596 488.671244 
L 174.769927 489.253981 
L 173.591685 494.40519 
L 171.039321 493.822454 
L 172.214596 488.671244 
" clip-path="url(#p2ef4b35300)" style="fill: #f29888"/>
    <path d="M 165.281665 489.578711 
L 164.590152 492.483495 
L 161.224594 491.682789 
L 161.916106 488.778005 
L 165.281665 489.578711 
" clip-path="url(#p2ef4b35300)" style="fill: #f29888"/>
    <path d="M 165.973177 455.811156 
L 165.16295 459.934793 
L 160.832836 459.080706 
L 161.643063 454.95707 
L 165.973177 455.811156 
" clip-path="url(#p2ef4b35300)" style="fill: #f29888"/>
    <path d="M 153.78119 452.635022 
L 153.21136 456.416134 
L 149.646955 455.877882 
L 150.216785 452.09677 
L 153.78119 452.635022 
" clip-path="url(#p2ef4b35300)" style="fill: #f29888"/>
    <path d="M 285.408944 341.27015 
L 282.194747 349.023654 
L 283.643064 349.628632 
L 282.429208 352.551209 
L 280.903726 351.919541 
L 279.075521 356.327873 
L 273.970794 354.21045 
L 275.736674 349.953363 
L 265.898203 345.87421 
L 267.50085 342.008579 
L 277.374935 346.101077 
L 280.262667 339.134934 
L 285.408944 341.27015 
" clip-path="url(#p2ef4b35300)" style="fill: #f29888"/>
    <path d="M 332.324944 497.496805 
L 334.565682 498.155163 
L 333.645644 501.286814 
L 331.404906 500.628455 
L 332.324944 497.496805 
" clip-path="url(#p2ef4b35300)" style="fill: #f29888"/>
    <path d="M 327.335964 497.034175 
L 329.826002 497.879365 
L 329.027647 500.228102 
L 326.540576 499.382913 
L 327.335964 497.034175 
" clip-path="url(#p2ef4b35300)" style="fill: #f29888"/>
    <path d="M 321.165774 494.053769 
L 323.744848 495.014616 
L 322.807003 497.532392 
L 320.227929 496.571545 
L 321.165774 494.053769 
" clip-path="url(#p2ef4b35300)" style="fill: #f29888"/>
    <path d="M 313.066472 492.056452 
L 312.179081 495.192551 
L 310.152029 494.618711 
L 311.039421 491.482613 
L 313.066472 492.056452 
" clip-path="url(#p2ef4b35300)" style="fill: #f29888"/>
    <path d="M 303.999646 488.871421 
L 303.456527 491.687237 
L 300.512406 491.117846 
L 301.058493 488.297582 
L 303.999646 488.871421 
" clip-path="url(#p2ef4b35300)" style="fill: #f29888"/>
    <path d="M 307.650119 476.620618 
L 307.000157 479.409744 
L 304.358758 478.795869 
L 305.00872 476.006743 
L 307.650119 476.620618 
" clip-path="url(#p2ef4b35300)" style="fill: #f29888"/>
    <path d="M 323.456965 292.391492 
L 322.631899 297.65391 
L 315.847361 296.59075 
L 316.672427 291.328332 
L 323.456965 292.391492 
" clip-path="url(#p2ef4b35300)" style="fill: #f29888"/>
    <path d="M 392.729888 205.559365 
L 392.584463 207.31647 
L 394.96469 207.512198 
L 394.442346 213.846673 
L 392.07399 213.650944 
L 391.931532 215.399153 
L 388.165313 215.087767 
L 388.310738 213.33511 
L 381.232381 212.752374 
L 381.754725 206.413451 
L 388.821211 206.996187 
L 388.963668 205.247979 
L 392.729888 205.559365 
" clip-path="url(#p2ef4b35300)" style="fill: #f29888"/>
    <path d="M 380.686294 197.587891 
L 381.903119 200.172392 
L 382.155387 200.710644 
L 376.575802 203.335181 
L 376.371019 202.899241 
L 375.106709 200.212427 
L 380.686294 197.587891 
" clip-path="url(#p2ef4b35300)" style="fill: #f29888"/>
    <path d="M 384.713686 199.202648 
L 384.310057 198.014934 
L 389.429623 196.862807 
L 394.101041 197.183089 
L 393.934841 198.410838 
L 393.652894 200.510468 
L 389.557241 200.381465 
L 385.399263 201.21331 
L 384.713686 199.202648 
" clip-path="url(#p2ef4b35300)" style="fill: #f29888"/>
   </g>
   <g id="LineCollection_1">
    <path d="M 608.879452 702.860124 
L 637.02098 710.710955 
" clip-path="url(#p2ef4b35300)" style="fill: none; stroke: #f29888; stroke-width: 0.2"/>
    <path d="M 508.11452 476.442683 
L 543.417267 488.488861 
L 600.192513 508.292992 
L 668.0557 528.56865 
" clip-path="url(#p2ef4b35300)" style="fill: none; stroke: #f29888; stroke-width: 0.2"/>
    <path d="M 663.523771 434.934969 
L 679.378102 442.190256 
L 681.187157 442.93838 
" clip-path="url(#p2ef4b35300)" style="fill: none; stroke: #f29888; stroke-width: 0.2"/>
    <path d="M 468.395591 376.728085 
L 486.644989 380.66489 
L 505.490928 385.673751 
L 519.086714 390.802718 
L 531.848531 394.023336 
L 547.711767 395.931686 
L 561.666665 396.888085 
L 573.018746 398.814228 
L 582.65837 402.137158 
L 609.4938 415.375499 
L 623.689095 421.456417 
L 650.284128 429.685896 
L 663.523771 434.934969 
L 670.560577 435.891368 
L 676.644699 434.699206 
L 679.280858 434.086332 
" clip-path="url(#p2ef4b35300)" style="fill: none; stroke: #f29888; stroke-width: 0.2"/>
    <path d="M 591.072265 323.565649 
L 584.198691 347.057476 
L 580.738162 360.046708 
L 575.488009 368.89451 
L 571.754436 380.411333 
L 572.434077 390.135463 
L 573.018746 398.814228 
L 569.780806 428.689462 
L 560.592298 466.545066 
L 557.612562 473.101959 
L 551.291011 478.591244 
L 545.922144 481.811862 
L 544.013808 484.912374 
L 543.417267 488.488861 
" clip-path="url(#p2ef4b35300)" style="fill: none; stroke: #f29888; stroke-width: 0.2"/>
    <path d="M 659.570393 337.200017 
L 649.108854 334.593151 
" clip-path="url(#p2ef4b35300)" style="fill: none; stroke: #f29888; stroke-width: 0.5"/>
    <path d="M 290.878718 519.769779 
L 288.038472 532.283036 
L 286.130135 548.741995 
L 286.607961 558.523954 
L 289.231553 567.589726 
L 293.763482 577.847661 
L 303.782992 587.153645 
L 326.205208 598.36353 
L 366.758107 614.346514 
L 608.879452 702.860124 
" clip-path="url(#p2ef4b35300)" style="fill: none; stroke: #f29888; stroke-width: 0.2"/>
    <path d="M 297.173558 482.256699 
L 331.27432 492.207696 
L 402.360608 510.099029 
L 439.812089 517.492215 
L 460.088538 519.164801 
L 503.739888 534.667361 
L 518.053898 543.49737 
L 552.641389 555.899417 
L 563.616552 564.489214 
L 575.066573 580.71241 
L 586.991452 590.730132 
L 610.13189 596.935605 
" clip-path="url(#p2ef4b35300)" style="fill: none; stroke: #f29888; stroke-width: 0.2"/>
    <path d="M 289.863708 377.359753 
L 276.466768 375.402471 
L 275.959263 388.053628 
L 277.309642 405.086425 
L 281.188641 429.717034 
L 286.587186 452.488226 
L 292.3211 468.511244 
L 295.274125 473.546796 
L 297.173558 482.256699 
L 296.348492 485.993327 
L 290.878718 519.769779 
" clip-path="url(#p2ef4b35300)" style="fill: none; stroke: #f29888; stroke-width: 0.2"/>
    <path d="M 249.845025 437.773027 
L 258.350924 439.801483 
L 266.343383 440.281906 
L 271.949679 439.445613 
L 275.885067 437.893133 
L 278.986485 434.19654 
L 281.188641 429.717034 
" clip-path="url(#p2ef4b35300)" style="fill: none; stroke: #f29888; stroke-width: 0.2"/>
    <path d="M 231.684662 431.865596 
L 242.366006 386.456664 
" clip-path="url(#p2ef4b35300)" style="fill: none; stroke: #f29888; stroke-width: 0.2"/>
    <path d="M 231.447233 325.816523 
L 222.519897 355.455993 
L 196.545148 412.132639 
L 196.880517 417.697546 
L 201.605357 422.083636 
L 231.684662 431.865596 
L 249.845025 437.773027 
L 282.904066 458.520212 
L 292.3211 468.511244 
" clip-path="url(#p2ef4b35300)" style="fill: none; stroke: #f29888; stroke-width: 0.2"/>
    <path d="M 293.442953 334.304007 
L 295.757887 340.665172 
L 299.933672 346.866196 
L 309.353674 359.152586 
L 320.088439 372.866902 
L 335.473848 387.777829 
L 352.41145 402.092674 
L 369.467767 415.090803 
L 386.642798 424.992868 
L 412.285146 434.294404 
" clip-path="url(#p2ef4b35300)" style="fill: none; stroke: #f29888; stroke-width: 0.2"/>
    <path d="M 314.268457 282.324837 
L 301.01991 314.882436 
L 293.442953 334.304007 
L 291.534616 342.41338 
L 289.863708 377.359753 
" clip-path="url(#p2ef4b35300)" style="fill: none; stroke: #f29888; stroke-width: 0.2"/>
    <path d="M 487.550187 309.321977 
L 420.556585 301.119188 
L 343.810579 287.54722 
L 314.268457 282.324837 
L 199.237001 260.434422 
L 191.010081 262.173733 
L 183.77146 266.155022 
" clip-path="url(#p2ef4b35300)" style="fill: none; stroke: #f29888; stroke-width: 0.5"/>
    <path d="M 148.780339 494.996823 
L 162.610587 494.827785 
L 280.684104 524.387184 
L 286.563443 522.714598 
L 290.878718 519.769779 
" clip-path="url(#p2ef4b35300)" style="fill: none; stroke: #f29888; stroke-width: 0.2"/>
    <path d="M 109.551107 354.641942 
L 105.575208 360.747853 
" clip-path="url(#p2ef4b35300)" style="fill: none; stroke: #f29888; stroke-width: 0.2"/>
    <path d="M 179.132688 313.04526 
L 165.809944 356.074316 
L 161.993271 370.624925 
" clip-path="url(#p2ef4b35300)" style="fill: none; stroke: #f29888; stroke-width: 0.2"/>
    <path d="M 147.848429 303.765966 
L 145.284194 305.683213 
L 140.790848 309.046178 
L 135.009448 315.683142 
L 109.551107 354.641942 
" clip-path="url(#p2ef4b35300)" style="fill: none; stroke: #f29888; stroke-width: 0.2"/>
    <path d="M 147.848429 303.765966 
L 133.25544 303.281094 
L 127.215836 304.339806 
L 121.855873 306.537299 
L 117.896742 309.588879 
L 115.519482 314.050591 
L 113.890125 325.723107 
L 111.901656 335.585137 
L 110.022997 339.539735 
L 106.289424 343.005013 
L 104.971647 343.849336 
" clip-path="url(#p2ef4b35300)" style="fill: none; stroke: #f29888; stroke-width: 0.2"/>
    <path d="M 173.77866 301.163672 
L 173.081212 304.402083 
L 172.953594 307.440318 
L 173.502649 311.65737 
L 179.132688 313.04526 
L 218.664641 322.813875 
L 231.447233 325.816523 
L 239.715703 327.760459 
L 251.581225 327.40459 
L 266.491776 325.078094 
L 282.533083 321.73737 
L 293.327206 318.516752 
L 301.01991 314.882436 
" clip-path="url(#p2ef4b35300)" style="fill: none; stroke: #f29888; stroke-width: 0.2"/>
    <path d="M 343.810579 287.54722 
L 358.19285 240.176558 
L 366.17047 216.33331 
L 370.093986 207.801342 
L 373.602002 207.85917 
" clip-path="url(#p2ef4b35300)" style="fill: none; stroke: #f29888; stroke-width: 0.2"/>
    <path d="M 487.550187 309.321977 
L 497.85758 265.203071 
L 498.21966 261.101677 
L 496.771342 257.725366 
L 495.738525 253.348173 
L 495.20431 248.321518 
L 495.685104 242.534192 
L 497.133422 236.382101 
L 500.629566 225.772745 
L 506.660266 213.232798 
L 510.037696 205.875199 
L 510.758887 197.556752 
L 511.120966 190.924237 
L 510.037696 183.20632 
L 508.589378 174.643213 
" clip-path="url(#p2ef4b35300)" style="fill: none; stroke: #f29888; stroke-width: 0.2"/>
    <path d="M 208.677778 159.861289 
L 217.358781 162.343477 
L 252.934572 171.751774 
L 259.686463 171.87188 
L 266.560037 171.02669 
L 276.448961 170.301606 
L 283.322535 171.511562 
L 290.077394 174.643213 
L 299.24216 179.225031 
L 309.493163 183.20632 
L 316.847531 187.307714 
L 320.827437 190.079047 
L 328.063091 195.385949 
L 335.058347 200.328085 
L 341.810239 203.704395 
L 351.218369 207.320918 
L 357.97026 211.302207 
L 363.158087 214.433857 
L 366.17047 216.33331 
" clip-path="url(#p2ef4b35300)" style="fill: none; stroke: #f29888; stroke-width: 0.2"/>
    <path d="M 670.396463 226.886358 
L 648.420309 219.393786 
L 621.890569 214.456099 
L 606.888015 208.784431 
L 532.341197 181.604907 
L 522.140647 177.405649 
L 517.935183 175.675234 
L 511.423689 174.229515 
L 508.589378 174.643213 
L 500.810606 171.938605 
L 489.354649 169.162824 
L 470.422642 165.546302 
L 454.503017 162.530309 
L 436.657249 158.913786 
L 421.583466 154.936946 
L 404.337206 149.630044 
L 393.002932 147.219029 
L 379.85826 143.357846 
L 358.994173 137.210203 
L 348.864852 133.34902 
L 330.657004 127.441589 
L 324.974703 124.821008 
" clip-path="url(#p2ef4b35300)" style="fill: none; stroke: #f29888; stroke-width: 0.2"/>
    <path d="M 251.321042 141.285616 
L 250.017161 141.19594 
L 249.558693 141.070232 
" clip-path="url(#p2ef4b35300)" style="fill: none; stroke: #f29888; stroke-width: 0.2"/>
    <path d="M 212.850477 127.756512 
L 209.511748 126.787679 
L 203.62944 125.933592 
L 198.940215 125.44872 
" clip-path="url(#p2ef4b35300)" style="fill: none; stroke: #f29888; stroke-width: 0.2"/>
    <path d="M 205.356299 102.365649 
L 203.715508 102.744254 
L 201.83685 103.851898 
L 200.278721 106.213981 
" clip-path="url(#p2ef4b35300)" style="fill: none; stroke: #f29888; stroke-width: 0.2"/>
    <path d="M 203.715508 102.744254 
L 204.897574 100.561227 
" clip-path="url(#p2ef4b35300)" style="fill: none; stroke: #f29888; stroke-width: 0.2"/>
    <path d="M 649.108854 334.593151 
L 623.867167 328.027361 
L 591.072265 323.565649 
L 575.850089 320.923319 
L 518.341781 313.089744 
L 487.550187 309.321977 
" clip-path="url(#p2ef4b35300)" style="fill: none; stroke: #f29888; stroke-width: 0.5"/>
    <path d="M 366.17047 216.33331 
L 371.108996 220.416911 
L 376.777617 223.30835 
L 383.677902 223.713151 
L 398.431155 227.231809 
L 417.107926 230.883919 
L 495.738525 253.348173 
L 505.211948 257.952233 
L 628.773047 305.180547 
L 636.352972 309.104007 
L 642.576584 312.894016 
L 649.209761 316.412674 
L 651.251542 317.294571 
" clip-path="url(#p2ef4b35300)" style="fill: none; stroke: #f29888; stroke-width: 0.2"/>
    <path d="M 510.037696 205.875199 
L 514.257999 199.122577 
L 516.789587 192.730274 
L 517.99454 186.942948 
L 520.769494 180.675199 
L 522.140647 177.405649 
" clip-path="url(#p2ef4b35300)" style="fill: none; stroke: #f29888; stroke-width: 0.2"/>
    <path d="M 535.400318 159.022075 
L 535.231897 159.443142 
L 533.270138 162.686002 
L 531.394448 166.863019 
L 530.284467 169.674387 
L 527.812236 172.232198 
L 522.140647 177.405649 
" clip-path="url(#p2ef4b35300)" style="fill: none; stroke: #f29888; stroke-width: 0.2"/>
    <path d="M 173.502649 311.65737 
L 163.403006 307.364695 
" clip-path="url(#p2ef4b35300)" style="fill: none; stroke: #f29888; stroke-width: 0.2"/>
    <path d="M 176.351799 279.909373 
L 175.930362 289.086355 
L 173.77866 301.163672 
L 171.273783 304.02842 
L 168.05365 306.056876 
L 163.403006 307.364695 
L 155.529262 307.128932 
L 145.284194 305.683213 
" clip-path="url(#p2ef4b35300)" style="fill: none; stroke: #f29888; stroke-width: 0.2"/>
    <path d="M 183.77146 266.155022 
L 179.830136 271.359612 
L 176.351799 279.909373 
L 173.467035 285.194034 
L 168.570058 290.67887 
L 147.848429 303.765966 
" clip-path="url(#p2ef4b35300)" style="fill: none; stroke: #f29888; stroke-width: 0.5"/>
    <path d="M 76.551599 285.509649 
L 77.352746 279.23767 
L 78.545828 272.929885 
L 80.166282 268.156787 
L 83.148985 262.10256 
L 86.64513 257.836575 
L 90.39651 253.659559 
L 92.444337 247.858888 
L 93.892654 241.720141 
L 96.109649 236.862524 
L 99.522693 231.404378 
L 102.882316 227.187326 
L 104.449348 225.074351 
L 107.464698 223.690909 
L 111.14485 223.148208 
L 113.495399 222.485402 
L 115.845947 219.829726 
L 117.629634 216.351103 
L 121.891487 202.196399 
L 121.467083 199.300512 
L 118.908783 194.950009 
L 115.581807 190.857511 
L 113.706117 188.9803 
L 113.278745 187.107538 
L 114.899199 183.949197 
" clip-path="url(#p2ef4b35300)" style="fill: none; stroke: #f29888; stroke-width: 0.2"/>
    <path d="M 184.083085 254.922895 
L 140.452511 248.059064 
L 129.106365 235.986196 
" clip-path="url(#p2ef4b35300)" style="fill: none; stroke: #f29888; stroke-width: 0.2"/>
    <path d="M 179.830136 271.359612 
L 184.083085 254.922895 
L 208.677778 159.861289 
" clip-path="url(#p2ef4b35300)" style="fill: none; stroke: #f29888; stroke-width: 0.2"/>
    <path d="M 195.399552 92.819947 
L 195.589496 96.454263 
L 196.833031 100.093027 
L 198.747303 103.05564 
L 200.278721 106.213981 
L 200.471633 111.476399 
L 200.661576 116.930097 
L 200.471633 120.853557 
L 198.940215 125.44872 
L 196.260233 129.1809 
L 194.440932 132.530521 
L 192.719571 136.453981 
L 192.719571 139.897017 
L 195.11167 142.001094 
L 198.940215 143.531333 
L 202.003051 145.733274 
L 203.819384 149.656734 
L 206.499365 155.973416 
L 208.677778 159.861289 
" clip-path="url(#p2ef4b35300)" style="fill: none; stroke: #f29888; stroke-width: 0.2"/>
   </g>
  </g>
 </g>
 <defs>
  <clipPath id="p2ef4b35300">
   <rect x="7.2" y="7.2" width="758.40777" height="831.6"/>
  </clipPath>
 </defs>
</svg>
