<?xml version="1.0" encoding="utf-8" standalone="no"?>
<!DOCTYPE svg PUBLIC "-//W3C//DTD SVG 1.1//EN"
  "http://www.w3.org/Graphics/SVG/1.1/DTD/svg11.dtd">
<svg xmlns:xlink="http://www.w3.org/1999/xlink" width="851.4pt" height="722.456826pt" viewBox="0 0 851.4 722.456826" xmlns="http://www.w3.org/2000/svg" version="1.1">
 <metadata>
  <rdf:RDF xmlns:dc="http://purl.org/dc/elements/1.1/" xmlns:cc="http://creativecommons.org/ns#" xmlns:rdf="http://www.w3.org/1999/02/22-rdf-syntax-ns#">
   <cc:Work>
    <dc:type rdf:resource="http://purl.org/dc/dcmitype/StillImage"/>
    <dc:date>2025-03-16T14:37:55.541103</dc:date>
    <dc:format>image/svg+xml</dc:format>
    <dc:creator>
     <cc:Agent>
      <dc:title>Matplotlib v3.10.1, https://matplotlib.org/</dc:title>
     </cc:Agent>
    </dc:creator>
   </cc:Work>
  </rdf:RDF>
 </metadata>
 <defs>
  <style type="text/css">*{stroke-linejoin: round; stroke-linecap: butt}</style>
 </defs>
 <g id="figure_1">
  <g id="patch_1">
   <path d="M 0 722.456826 
L 851.4 722.456826 
L 851.4 0 
L 0 0 
z
" style="fill: #ffffff"/>
  </g>
  <g id="axes_1">
   <g id="PatchCollection_1">
    <path d="M 750.779625 682.273913 
L 806.154545 491.028084 
L 788.505561 103.929984 
L 266.726651 39.384401 
L 45.245455 319.634268 
L 288.849504 537.517151 
L 533.260823 552.379621 
L 527.859519 683.072425 
L 750.779625 682.273913 
" clip-path="url(#p1e78c192b9)" style="fill: #f29888"/>
   </g>
   <g id="PatchCollection_2">
    <path d="M 525.185057 248.294414 
L 524.744448 251.714628 
L 521.798843 251.331527 
L 522.239451 247.911313 
L 525.185057 248.294414 
" clip-path="url(#p1e78c192b9)" style="fill: #f29888"/>
    <path d="M 530.423058 247.10357 
L 530.419977 251.096128 
L 527.649999 251.091512 
L 527.649999 247.10357 
L 530.423058 247.10357 
" clip-path="url(#p1e78c192b9)" style="fill: #f29888"/>
    <path d="M 519.712886 247.689761 
L 519.084326 250.763799 
L 516.335915 250.200687 
L 516.964475 247.131264 
L 519.712886 247.689761 
" clip-path="url(#p1e78c192b9)" style="fill: #f29888"/>
    <path d="M 523.462679 234.25815 
L 523.302457 237.701442 
L 520.292147 237.562972 
L 520.455449 234.115064 
L 523.462679 234.25815 
" clip-path="url(#p1e78c192b9)" style="fill: #f29888"/>
    <path d="M 472.888232 233.191929 
L 472.937531 237.669133 
L 468.978218 237.715289 
L 468.928919 233.23347 
L 472.888232 233.191929 
" clip-path="url(#p1e78c192b9)" style="fill: #f29888"/>
    <path d="M 464.963444 232.970377 
L 464.963444 237.078326 
L 462.313631 237.082942 
L 462.313631 232.970377 
L 464.963444 232.970377 
" clip-path="url(#p1e78c192b9)" style="fill: #f29888"/>
    <path d="M 518.714584 232.416496 
L 518.736152 237.166024 
L 516.573166 237.179871 
L 516.554679 232.430343 
L 518.714584 232.416496 
" clip-path="url(#p1e78c192b9)" style="fill: #f29888"/>
    <path d="M 484.550489 232.762671 
L 484.661411 236.547524 
L 481.287522 236.649069 
L 481.1766 232.864216 
L 484.550489 232.762671 
" clip-path="url(#p1e78c192b9)" style="fill: #f29888"/>
    <path d="M 492.164078 232.056473 
L 492.164078 236.685994 
L 489.363288 236.685994 
L 489.360207 232.056473 
L 492.164078 232.056473 
" clip-path="url(#p1e78c192b9)" style="fill: #f29888"/>
    <path d="M 428.602469 245.386539 
L 428.827395 249.808355 
L 424.901975 250.006829 
L 424.677049 245.585013 
L 428.602469 245.386539 
" clip-path="url(#p1e78c192b9)" style="fill: #f29888"/>
    <path d="M 410.032213 245.234222 
L 409.742582 248.409806 
L 407.22526 248.183638 
L 407.51181 245.003438 
L 410.032213 245.234222 
" clip-path="url(#p1e78c192b9)" style="fill: #f29888"/>
    <path d="M 397.051212 244.121845 
L 396.807799 247.731302 
L 393.489371 247.505134 
L 393.732784 243.900292 
L 397.051212 244.121845 
" clip-path="url(#p1e78c192b9)" style="fill: #f29888"/>
    <path d="M 456.200575 235.144359 
L 456.065004 238.583036 
L 452.404565 238.43995 
L 452.540137 235.001273 
L 456.200575 235.144359 
" clip-path="url(#p1e78c192b9)" style="fill: #f29888"/>
    <path d="M 447.511655 234.507396 
L 447.570197 238.223014 
L 445.345587 238.255323 
L 445.287045 234.539706 
L 447.511655 234.507396 
" clip-path="url(#p1e78c192b9)" style="fill: #f29888"/>
    <path d="M 438.791923 233.828892 
L 438.865871 238.001461 
L 436.154435 238.052234 
L 436.080487 233.875049 
L 438.791923 233.828892 
" clip-path="url(#p1e78c192b9)" style="fill: #f29888"/>
    <path d="M 429.819534 233.007302 
L 429.683962 237.881454 
L 426.913984 237.802987 
L 427.049556 232.933451 
L 429.819534 233.007302 
" clip-path="url(#p1e78c192b9)" style="fill: #f29888"/>
    <path d="M 399.146413 232.656511 
L 399.251173 237.378345 
L 395.689332 237.456812 
L 395.587653 232.734977 
L 399.146413 232.656511 
" clip-path="url(#p1e78c192b9)" style="fill: #f29888"/>
    <path d="M 406.877087 232.13494 
L 409.650147 232.162634 
L 409.588523 237.826066 
L 406.815464 237.798372 
L 406.877087 232.13494 
" clip-path="url(#p1e78c192b9)" style="fill: #f29888"/>
   </g>
   <g id="LineCollection_1">
    <path d="M 657.07468 682.609569 
L 658.449062 654.833732 
" clip-path="url(#p1e78c192b9)" style="fill: none; stroke: #f29888; stroke-width: 0.2"/>
    <path d="M 781.736567 575.359337 
L 781.277119 569.39761 
L 784.946801 562.404864 
L 785.593448 562.039006 
" clip-path="url(#p1e78c192b9)" style="fill: none; stroke: #f29888; stroke-width: 0.2"/>
    <path d="M 678.680073 241.823239 
L 676.021017 292.706427 
L 672.736482 343.049582 
L 670.308514 375.793172 
L 667.963738 409.939927 
L 666.999329 481.529027 
L 658.449062 654.833732 
" clip-path="url(#p1e78c192b9)" style="fill: none; stroke: #f29888; stroke-width: 0.2"/>
    <path d="M 717.761727 593.860681 
L 729.522582 376.896318 
L 730.767377 353.914878 
L 733.802337 288.427698 
" clip-path="url(#p1e78c192b9)" style="fill: none; stroke: #f29888; stroke-width: 0.2"/>
    <path d="M 332.793257 360.146037 
L 447.326784 365.09404 
L 560.082472 370.115893 
L 670.308514 375.793172 
L 716.939053 376.490138 
L 729.522582 376.896318 
" clip-path="url(#p1e78c192b9)" style="fill: none; stroke: #f29888; stroke-width: 0.2"/>
    <path d="M 565.2835 240.655474 
L 563.018834 286.83529 
L 561.607655 336.776881 
L 560.082472 370.115893 
L 558.591183 404.387271 
L 554.314508 474.647058 
" clip-path="url(#p1e78c192b9)" style="fill: none; stroke: #f29888; stroke-width: 0.2"/>
    <path d="M 337.294857 278.979413 
L 341.996734 278.591697 
L 418.141872 280.317959 
L 450.053626 281.587269 
L 563.018834 286.83529 
L 676.021017 292.706427 
L 694.276993 293.17261 
L 716.057836 290.892467 
L 733.802337 288.427698 
L 786.650692 280.373347 
L 796.477592 278.781865 
" clip-path="url(#p1e78c192b9)" style="fill: none; stroke: #f29888; stroke-width: 0.2"/>
    <path d="M 747.673798 234.359695 
L 692.622401 240.540082 
L 678.680073 241.823239 
L 565.2835 240.655474 
L 450.830083 243.189479 
L 393.880681 241.080116 
L 385.090081 240.535466 
L 357.023636 235.952102 
L 337.544433 234.133527 
L 331.425214 234.410467 
L 327.12389 236.136729 
" clip-path="url(#p1e78c192b9)" style="fill: none; stroke: #f29888; stroke-width: 0.2"/>
    <path d="M 678.680073 241.823239 
L 684.777723 170.372608 
L 682.044719 166.200039 
L 645.597471 154.651623 
L 635.709972 151.522197 
L 625.206239 204.902464 
" clip-path="url(#p1e78c192b9)" style="fill: none; stroke: #f29888; stroke-width: 0.2"/>
    <path d="M 638.732607 204.902464 
L 645.597471 154.651623 
" clip-path="url(#p1e78c192b9)" style="fill: none; stroke: #f29888; stroke-width: 0.2"/>
    <path d="M 658.449062 654.833732 
L 529.315478 647.843259 
" clip-path="url(#p1e78c192b9)" style="fill: none; stroke: #f29888; stroke-width: 0.2"/>
    <path d="M 260.440412 512.10766 
L 302.468309 470.691425 
L 307.543008 465.692651 
" clip-path="url(#p1e78c192b9)" style="fill: none; stroke: #f29888; stroke-width: 0.2"/>
    <path d="M 302.468309 470.691425 
L 306.957584 479.101183 
L 514.092818 486.098545 
L 523.613656 473.63161 
" clip-path="url(#p1e78c192b9)" style="fill: none; stroke: #f29888; stroke-width: 0.2"/>
    <path d="M 666.999329 481.529027 
L 554.314508 474.647058 
L 523.613656 473.63161 
L 441.928562 470.922209 
L 326.997562 466.463468 
" clip-path="url(#p1e78c192b9)" style="fill: none; stroke: #f29888; stroke-width: 0.2"/>
    <path d="M 331.308129 392.848086 
L 444.871086 398.34997 
L 558.591183 404.387271 
L 667.963738 409.939927 
" clip-path="url(#p1e78c192b9)" style="fill: none; stroke: #f29888; stroke-width: 0.2"/>
    <path d="M 326.997562 466.463468 
L 331.308129 392.848086 
L 332.793257 360.146037 
L 335.766593 323.728371 
L 337.516702 289.207747 
L 337.985041 282.847348 
L 337.985041 280.511817 
L 337.294857 278.979413 
L 332.759364 277.063909 
L 330.198906 273.283672 
L 325.084151 262.27529 
L 323.528156 258.273501 
L 323.084467 253.265495 
L 324.529539 243.591042 
L 327.12389 236.136729 
" clip-path="url(#p1e78c192b9)" style="fill: none; stroke: #f29888; stroke-width: 0.2"/>
    <path d="M 450.830083 243.189479 
L 450.053626 281.587269 
L 448.291193 330.047228 
L 447.976913 337.01228 
L 447.326784 365.09404 
L 444.871086 398.34997 
L 444.30723 423.842336 
" clip-path="url(#p1e78c192b9)" style="fill: none; stroke: #f29888; stroke-width: 0.2"/>
    <path d="M 335.766593 323.728371 
L 415.766284 328.34866 
L 448.291193 330.047228 
L 561.607655 336.776881 
L 672.736482 343.049582 
" clip-path="url(#p1e78c192b9)" style="fill: none; stroke: #f29888; stroke-width: 0.2"/>
    <path d="M 418.141872 280.317959 
L 415.766284 328.34866 
" clip-path="url(#p1e78c192b9)" style="fill: none; stroke: #f29888; stroke-width: 0.2"/>
    <path d="M 376.274833 99.397392 
L 545.345201 126.075987 
L 549.87145 126.652946 
L 615.861027 135.062704 
L 647.71424 144.31713 
L 697.946675 160.471988 
L 709.516497 164.192221 
L 792.510639 191.774027 
" clip-path="url(#p1e78c192b9)" style="fill: none; stroke: #f29888; stroke-width: 0.2"/>
    <path d="M 385.090081 240.535466 
L 389.493084 195.172624 
L 390.013803 190.755424 
L 392.611236 185.562791 
L 394.69103 181.662547 
L 398.06492 179.843971 
L 404.560042 179.585493 
L 447.68112 177.50844 
L 496.77352 178.030011 
L 544.830644 179.843971 
" clip-path="url(#p1e78c192b9)" style="fill: none; stroke: #f29888; stroke-width: 0.2"/>
    <path d="M 326.997562 466.463468 
L 307.543008 465.692651 
L 283.931945 464.760284 
L 233.394473 461.044667 
L 208.871382 450.640938 
L 184.34521 420.16826 
L 142.727746 355.507285 
L 95.909255 284.162815 
L 86.943449 266.871968 
" clip-path="url(#p1e78c192b9)" style="fill: none; stroke: #f29888; stroke-width: 0.2"/>
   </g>
   <g id="LineCollection_2">
    <path d="M 289.0467 96.277197 
L 351.237185 104.183846 
L 428.938317 115.552251 
L 483.185527 122.74347 
L 556.425115 132.385613 
L 619.305784 141.880054 
L 659.453526 153.53463 
L 715.712744 173.105087 
L 765.005421 189.896909 
L 792.7944 197.997807 
" clip-path="url(#p1e78c192b9)" style="fill: none; stroke-dasharray: 3.7,1.6; stroke-dashoffset: 0; stroke: #f29888"/>
    <path d="M 229.703052 86.231984 
L 244.942726 88.481324 
L 289.0467 96.277197 
" clip-path="url(#p1e78c192b9)" style="fill: none; stroke-dasharray: 3.7,1.6; stroke-dashoffset: 0; stroke: #f29888"/>
   </g>
  </g>
 </g>
 <defs>
  <clipPath id="p1e78c192b9">
   <rect x="7.2" y="7.2" width="837" height="708.056826"/>
  </clipPath>
 </defs>
</svg>
