<?xml version="1.0" encoding="utf-8" standalone="no"?>
<!DOCTYPE svg PUBLIC "-//W3C//DTD SVG 1.1//EN"
  "http://www.w3.org/Graphics/SVG/1.1/DTD/svg11.dtd">
<svg xmlns:xlink="http://www.w3.org/1999/xlink" width="851.4pt" height="538.35474pt" viewBox="0 0 851.4 538.35474" xmlns="http://www.w3.org/2000/svg" version="1.1">
 <metadata>
  <rdf:RDF xmlns:dc="http://purl.org/dc/elements/1.1/" xmlns:cc="http://creativecommons.org/ns#" xmlns:rdf="http://www.w3.org/1999/02/22-rdf-syntax-ns#">
   <cc:Work>
    <dc:type rdf:resource="http://purl.org/dc/dcmitype/StillImage"/>
    <dc:date>2025-03-16T14:38:40.408556</dc:date>
    <dc:format>image/svg+xml</dc:format>
    <dc:creator>
     <cc:Agent>
      <dc:title>Matplotlib v3.10.1, https://matplotlib.org/</dc:title>
     </cc:Agent>
    </dc:creator>
   </cc:Work>
  </rdf:RDF>
 </metadata>
 <defs>
  <style type="text/css">*{stroke-linejoin: round; stroke-linecap: butt}</style>
 </defs>
 <g id="figure_1">
  <g id="patch_1">
   <path d="M 0 538.35474 
L 851.4 538.35474 
L 851.4 0 
L 0 0 
z
" style="fill: #ffffff"/>
  </g>
  <g id="axes_1">
   <g id="PatchCollection_1">
    <path d="M 787.560685 416.371938 
L 584.732977 339.05859 
L 510.927215 217.120442 
L 494.886209 31.016125 
L 45.245455 483.837716 
L 126.208632 507.338616 
L 648.914135 444.953594 
L 806.154545 477.039882 
L 787.560685 416.371938 
" clip-path="url(#pb8fd147c87)" style="fill: #f29888"/>
   </g>
   <g id="PatchCollection_2">
    <path d="M 502.801771 434.177009 
L 503.902582 440.129118 
L 499.370837 440.968436 
L 498.270026 435.016327 
L 502.801771 434.177009 
" clip-path="url(#pb8fd147c87)" style="fill: #f29888"/>
    <path d="M 511.094264 432.267721 
L 512.344992 439.039927 
L 508.657059 439.719069 
L 507.406332 432.946863 
L 511.094264 432.267721 
" clip-path="url(#pb8fd147c87)" style="fill: #f29888"/>
    <path d="M 521.785413 431.00554 
L 522.856241 436.797474 
L 518.87276 437.53428 
L 517.801932 431.742346 
L 521.785413 431.00554 
" clip-path="url(#pb8fd147c87)" style="fill: #f29888"/>
    <path d="M 530.827486 429.653662 
L 531.932581 435.65062 
L 527.469369 436.477124 
L 526.359991 430.480166 
L 530.827486 429.653662 
" clip-path="url(#pb8fd147c87)" style="fill: #f29888"/>
    <path d="M 541.762784 428.628541 
L 542.735096 433.869472 
L 538.935797 434.567836 
L 537.963485 429.333312 
L 541.762784 428.628541 
" clip-path="url(#pb8fd147c87)" style="fill: #f29888"/>
    <path d="M 551.503037 426.623148 
L 552.556732 432.318977 
L 548.783133 433.01734 
L 547.729438 427.321512 
L 551.503037 426.623148 
" clip-path="url(#pb8fd147c87)" style="fill: #f29888"/>
    <path d="M 561.25614 425.232828 
L 562.207035 430.36484 
L 555.572184 431.588578 
L 554.625572 426.456566 
L 561.25614 425.232828 
" clip-path="url(#pb8fd147c87)" style="fill: #f29888"/>
    <path d="M 570.550928 424.630569 
L 571.399024 429.217986 
L 565.869268 430.2367 
L 565.021172 425.65569 
L 570.550928 424.630569 
" clip-path="url(#pb8fd147c87)" style="fill: #f29888"/>
    <path d="M 580.162682 421.798672 
L 581.276344 427.834072 
L 576.881665 428.647762 
L 575.76372 422.605955 
L 580.162682 421.798672 
" clip-path="url(#pb8fd147c87)" style="fill: #f29888"/>
    <path d="M 590.464049 420.799179 
L 591.444928 426.110587 
L 587.255848 426.885835 
L 586.274969 421.574427 
L 590.464049 420.799179 
" clip-path="url(#pb8fd147c87)" style="fill: #f29888"/>
    <path d="M 449.384578 442.877723 
L 450.074191 447.862375 
L 439.096061 449.329579 
L 438.359331 444.633243 
L 449.384578 442.877723 
" clip-path="url(#pb8fd147c87)" style="fill: #f29888"/>
    <path d="M 464.093474 439.879244 
L 465.010103 444.838267 
L 458.692216 446.01075 
L 457.775587 441.051727 
L 464.093474 439.879244 
" clip-path="url(#pb8fd147c87)" style="fill: #f29888"/>
    <path d="M 473.024181 439.462789 
L 473.743777 443.345435 
L 468.256854 444.357742 
L 467.54154 440.475096 
L 473.024181 439.462789 
" clip-path="url(#pb8fd147c87)" style="fill: #f29888"/>
    <path d="M 483.316981 436.84873 
L 484.199344 441.62195 
L 478.875186 442.608629 
L 477.992824 437.829002 
L 483.316981 436.84873 
" clip-path="url(#pb8fd147c87)" style="fill: #f29888"/>
    <path d="M 493.061518 435.484038 
L 493.965297 440.35977 
L 488.088592 441.442554 
L 487.184813 436.566822 
L 493.061518 435.484038 
" clip-path="url(#pb8fd147c87)" style="fill: #f29888"/>
    <path d="M 454.353221 388.796182 
L 455.359799 395.6709 
L 449.247512 396.56788 
L 448.23665 389.693163 
L 454.353221 388.796182 
" clip-path="url(#pb8fd147c87)" style="fill: #f29888"/>
    <path d="M 464.513238 386.496066 
L 465.4727 393.024806 
L 460.915256 393.691135 
L 459.955794 387.168802 
L 464.513238 386.496066 
" clip-path="url(#pb8fd147c87)" style="fill: #f29888"/>
    <path d="M 475.127287 384.490673 
L 476.039633 390.724691 
L 471.901953 391.333356 
L 470.985324 385.099339 
L 475.127287 384.490673 
" clip-path="url(#pb8fd147c87)" style="fill: #f29888"/>
    <path d="M 481.385207 384.381754 
L 482.130504 389.46251 
L 478.048507 390.064769 
L 477.30321 384.984013 
L 481.385207 384.381754 
" clip-path="url(#pb8fd147c87)" style="fill: #f29888"/>
    <path d="M 492.389038 382.267442 
L 493.733998 391.416647 
L 488.529773 392.179081 
L 487.184813 383.029876 
L 492.389038 382.267442 
" clip-path="url(#pb8fd147c87)" style="fill: #f29888"/>
    <path d="M 502.227807 380.646469 
L 503.268652 387.739026 
L 497.991611 388.514273 
L 496.950766 381.421717 
L 502.227807 380.646469 
" clip-path="url(#pb8fd147c87)" style="fill: #f29888"/>
    <path d="M 508.858375 386.592171 
L 507.864647 379.813558 
L 514.910696 378.78203 
L 515.908708 385.560643 
L 508.858375 386.592171 
" clip-path="url(#pb8fd147c87)" style="fill: #f29888"/>
    <path d="M 519.258258 384.490673 
L 518.320213 378.090074 
L 523.584404 377.314826 
L 524.52245 383.721832 
L 519.258258 384.490673 
" clip-path="url(#pb8fd147c87)" style="fill: #f29888"/>
    <path d="M 526.295741 383.766681 
L 525.327713 377.173872 
L 530.334905 376.437066 
L 531.302934 383.029876 
L 526.295741 383.766681 
" clip-path="url(#pb8fd147c87)" style="fill: #f29888"/>
    <path d="M 536.207327 381.338426 
L 535.209315 374.527778 
L 541.677117 373.579541 
L 542.675129 380.390189 
L 536.207327 381.338426 
" clip-path="url(#pb8fd147c87)" style="fill: #f29888"/>
    <path d="M 547.635205 379.204893 
L 546.812809 373.611576 
L 552.081284 372.836328 
L 552.899397 378.436052 
L 547.635205 379.204893 
" clip-path="url(#pb8fd147c87)" style="fill: #f29888"/>
    <path d="M 562.164202 370.869377 
L 563.860394 378.288691 
L 557.251242 379.800744 
L 555.555051 372.375024 
L 562.164202 370.869377 
" clip-path="url(#pb8fd147c87)" style="fill: #f29888"/>
    <path d="M 502.420556 361.880347 
L 503.6156 368.902426 
L 498.835423 369.709709 
L 497.640379 362.694037 
L 502.420556 361.880347 
" clip-path="url(#pb8fd147c87)" style="fill: #f29888"/>
    <path d="M 520.688885 360.688644 
L 521.536981 365.679702 
L 515.146278 366.768893 
L 514.298182 361.777835 
L 520.688885 360.688644 
" clip-path="url(#pb8fd147c87)" style="fill: #f29888"/>
    <path d="M 552.106984 356.126855 
L 552.899397 361.547183 
L 548.06782 362.258361 
L 547.271124 356.838033 
L 552.106984 356.126855 
" clip-path="url(#pb8fd147c87)" style="fill: #f29888"/>
    <path d="M 448.956246 373.771751 
L 449.847176 379.006276 
L 443.383657 380.108281 
L 442.492728 374.873756 
L 448.956246 373.771751 
" clip-path="url(#pb8fd147c87)" style="fill: #f29888"/>
    <path d="M 465.806799 368.518006 
L 466.963293 375.335061 
L 462.0332 376.174379 
L 460.876706 369.357324 
L 465.806799 368.518006 
" clip-path="url(#pb8fd147c87)" style="fill: #f29888"/>
    <path d="M 487.236212 366.666381 
L 488.105725 371.772765 
L 481.046826 372.970876 
L 480.177313 367.864491 
L 487.236212 366.666381 
" clip-path="url(#pb8fd147c87)" style="fill: #f29888"/>
    <path d="M 447.191522 355.358015 
L 448.009634 360.169677 
L 440.668036 361.419043 
L 439.849924 356.607381 
L 447.191522 355.358015 
" clip-path="url(#pb8fd147c87)" style="fill: #f29888"/>
    <path d="M 465.982415 352.532525 
L 466.851927 357.638909 
L 459.103414 358.958752 
L 458.233902 353.852368 
L 465.982415 352.532525 
" clip-path="url(#pb8fd147c87)" style="fill: #f29888"/>
    <path d="M 483.719613 349.809547 
L 484.542009 354.653244 
L 477.671575 355.825726 
L 476.844896 350.975622 
L 483.719613 349.809547 
" clip-path="url(#pb8fd147c87)" style="fill: #f29888"/>
    <path d="M 499.953368 345.234944 
L 501.088446 351.898231 
L 496.359669 352.699107 
L 495.228874 346.03582 
L 499.953368 345.234944 
" clip-path="url(#pb8fd147c87)" style="fill: #f29888"/>
    <path d="M 457.698488 335.733354 
L 458.923515 342.934829 
L 454.40462 343.70367 
L 453.179593 336.502195 
L 457.698488 335.733354 
" clip-path="url(#pb8fd147c87)" style="fill: #f29888"/>
    <path d="M 483.946628 332.568293 
L 484.888957 338.110353 
L 475.949683 339.628814 
L 475.007355 334.086753 
L 483.946628 332.568293 
" clip-path="url(#pb8fd147c87)" style="fill: #f29888"/>
    <path d="M 459.814444 319.19687 
L 460.645407 324.091823 
L 454.815818 325.084909 
L 453.984856 320.189956 
L 459.814444 319.19687 
" clip-path="url(#pb8fd147c87)" style="fill: #f29888"/>
    <path d="M 517.249385 341.82001 
L 518.435862 348.79724 
L 514.568031 349.450755 
L 513.381553 342.473525 
L 517.249385 341.82001 
" clip-path="url(#pb8fd147c87)" style="fill: #f29888"/>
    <path d="M 509.410922 328.429366 
L 510.276152 333.51653 
L 503.328618 334.695419 
L 502.463389 329.608256 
L 509.410922 328.429366 
" clip-path="url(#pb8fd147c87)" style="fill: #f29888"/>
    <path d="M 522.080962 326.321461 
L 522.916208 331.216414 
L 517.771949 332.094174 
L 516.940986 327.192814 
L 522.080962 326.321461 
" clip-path="url(#pb8fd147c87)" style="fill: #f29888"/>
    <path d="M 468.248287 316.43545 
L 469.379082 323.060295 
L 464.187707 323.944462 
L 463.056912 317.31321 
L 468.248287 316.43545 
" clip-path="url(#pb8fd147c87)" style="fill: #f29888"/>
    <path d="M 479.967431 315.154049 
L 481.098225 321.798115 
L 476.480814 322.579769 
L 475.35002 315.935704 
L 479.967431 315.154049 
" clip-path="url(#pb8fd147c87)" style="fill: #f29888"/>
    <path d="M 498.492758 310.739621 
L 499.59357 317.197884 
L 494.029546 318.146121 
L 492.928735 311.687858 
L 498.492758 310.739621 
" clip-path="url(#pb8fd147c87)" style="fill: #f29888"/>
    <path d="M 137.508011 491.827253 
L 138.274724 496.594066 
L 132.145303 497.580745 
L 131.37859 492.807525 
L 137.508011 491.827253 
" clip-path="url(#pb8fd147c87)" style="fill: #f29888"/>
    <path d="M 163.764718 487.758804 
L 164.475748 492.596094 
L 153.471917 494.21066 
L 152.765171 489.37337 
L 163.764718 487.758804 
" clip-path="url(#pb8fd147c87)" style="fill: #f29888"/>
    <path d="M 96.615224 485.368991 
L 88.918111 494.146589 
L 85.928359 491.526124 
L 93.625472 482.748525 
L 96.615224 485.368991 
" clip-path="url(#pb8fd147c87)" style="fill: #f29888"/>
    <path d="M 186.397742 483.965856 
L 187.108772 488.803146 
L 176.104942 490.417712 
L 175.393912 485.580422 
L 186.397742 483.965856 
" clip-path="url(#pb8fd147c87)" style="fill: #f29888"/>
    <path d="M 207.998489 480.634213 
L 208.705235 485.471503 
L 197.705688 487.086068 
L 196.994658 482.248778 
L 207.998489 480.634213 
" clip-path="url(#pb8fd147c87)" style="fill: #f29888"/>
    <path d="M 233.270034 476.610613 
L 233.981064 481.45431 
L 222.981517 483.068875 
L 222.270487 478.225178 
L 233.270034 476.610613 
" clip-path="url(#pb8fd147c87)" style="fill: #f29888"/>
    <path d="M 135.207872 473.554471 
L 135.974585 478.32769 
L 129.845164 479.314369 
L 129.078451 474.54115 
L 135.207872 473.554471 
" clip-path="url(#pb8fd147c87)" style="fill: #f29888"/>
    <path d="M 254.0955 473.407109 
L 254.875063 478.065003 
L 246.736769 479.436103 
L 245.952923 474.778209 
L 254.0955 473.407109 
" clip-path="url(#pb8fd147c87)" style="fill: #f29888"/>
    <path d="M 160.607916 469.370695 
L 161.318946 474.214392 
L 150.315116 475.828958 
L 149.604086 470.985261 
L 160.607916 469.370695 
" clip-path="url(#pb8fd147c87)" style="fill: #f29888"/>
    <path d="M 183.180975 465.699481 
L 183.892004 470.536771 
L 172.888174 472.151336 
L 172.177144 467.314046 
L 183.180975 465.699481 
" clip-path="url(#pb8fd147c87)" style="fill: #f29888"/>
    <path d="M 311.526157 463.770972 
L 312.310004 468.428865 
L 304.167426 469.793558 
L 303.38358 465.142071 
L 311.526157 463.770972 
" clip-path="url(#pb8fd147c87)" style="fill: #f29888"/>
    <path d="M 206.846277 462.367837 
L 207.557307 467.205127 
L 196.55776 468.819693 
L 195.84673 463.982403 
L 206.846277 462.367837 
" clip-path="url(#pb8fd147c87)" style="fill: #f29888"/>
    <path d="M 133.730129 459.266846 
L 134.492559 464.040066 
L 128.363138 465.020338 
L 127.596425 460.253525 
L 133.730129 459.266846 
" clip-path="url(#pb8fd147c87)" style="fill: #f29888"/>
    <path d="M 230.284565 458.690216 
L 230.995595 463.527505 
L 219.991764 465.142071 
L 219.285018 460.304781 
L 230.284565 458.690216 
" clip-path="url(#pb8fd147c87)" style="fill: #f29888"/>
    <path d="M 158.020796 455.589224 
L 158.731825 460.426514 
L 147.727995 462.04108 
L 147.016965 457.20379 
L 158.020796 455.589224 
" clip-path="url(#pb8fd147c87)" style="fill: #f29888"/>
    <path d="M 180.422521 451.796277 
L 181.133551 456.633566 
L 170.134004 458.248132 
L 169.422974 453.410842 
L 180.422521 451.796277 
" clip-path="url(#pb8fd147c87)" style="fill: #f29888"/>
    <path d="M 204.550422 447.542024 
L 205.261452 452.385721 
L 194.257621 454.000287 
L 193.546591 449.15659 
L 204.550422 447.542024 
" clip-path="url(#pb8fd147c87)" style="fill: #f29888"/>
    <path d="M 130.037913 440.238037 
L 130.804626 445.011257 
L 124.675206 445.991529 
L 123.908493 441.224716 
L 130.037913 440.238037 
" clip-path="url(#pb8fd147c87)" style="fill: #f29888"/>
    <path d="M 155.60929 436.746218 
L 156.32032 441.583508 
L 145.31649 443.198074 
L 144.60546 438.360784 
L 155.60929 436.746218 
" clip-path="url(#pb8fd147c87)" style="fill: #f29888"/>
    <path d="M 178.011016 432.722618 
L 178.722046 437.566315 
L 167.718216 439.180881 
L 167.007186 434.337184 
L 178.011016 432.722618 
" clip-path="url(#pb8fd147c87)" style="fill: #f29888"/>
    <path d="M 329.905852 461.701509 
L 330.689699 466.359402 
L 322.547121 467.730502 
L 321.767558 463.072608 
L 329.905852 461.701509 
" clip-path="url(#pb8fd147c87)" style="fill: #f29888"/>
    <path d="M 347.677317 457.351151 
L 348.769562 463.264818 
L 341.483647 464.61029 
L 340.391402 458.696623 
L 347.677317 457.351151 
" clip-path="url(#pb8fd147c87)" style="fill: #f29888"/>
    <path d="M 366.318294 454.769128 
L 367.410539 460.682795 
L 360.124624 462.028266 
L 359.032379 456.114599 
L 366.318294 454.769128 
" clip-path="url(#pb8fd147c87)" style="fill: #f29888"/>
    <path d="M 385.044937 451.322158 
L 386.137182 457.235825 
L 378.851267 458.581296 
L 377.759022 452.667629 
L 385.044937 451.322158 
" clip-path="url(#pb8fd147c87)" style="fill: #f29888"/>
    <path d="M 402.850668 448.330086 
L 403.942913 454.25016 
L 396.661281 455.595631 
L 395.569037 449.681964 
L 402.850668 448.330086 
" clip-path="url(#pb8fd147c87)" style="fill: #f29888"/>
    <path d="M 426.408888 445.978715 
L 427.098502 450.963366 
L 416.120371 452.43057 
L 415.379358 447.734234 
L 426.408888 445.978715 
" clip-path="url(#pb8fd147c87)" style="fill: #f29888"/>
    <path d="M 342.301759 407.792956 
L 343.008506 412.630246 
L 332.008959 414.244811 
L 331.297929 409.407522 
L 342.301759 407.792956 
" clip-path="url(#pb8fd147c87)" style="fill: #f29888"/>
    <path d="M 360.338789 404.922617 
L 361.045536 409.759907 
L 350.045989 411.374473 
L 349.334959 406.537183 
L 360.338789 404.922617 
" clip-path="url(#pb8fd147c87)" style="fill: #f29888"/>
    <path d="M 378.718484 401.475647 
L 379.429514 406.312937 
L 368.425684 407.927503 
L 367.718937 403.090213 
L 378.718484 401.475647 
" clip-path="url(#pb8fd147c87)" style="fill: #f29888"/>
    <path d="M 395.406271 398.701414 
L 396.070184 403.641216 
L 387.126627 404.845733 
L 386.462714 399.899524 
L 395.406271 398.701414 
" clip-path="url(#pb8fd147c87)" style="fill: #f29888"/>
    <path d="M 418.026445 393.857717 
L 418.690359 398.803926 
L 409.746802 400.002036 
L 409.082888 395.062234 
L 418.026445 393.857717 
" clip-path="url(#pb8fd147c87)" style="fill: #f29888"/>
    <path d="M 441.092084 390.372305 
L 441.803114 395.209595 
L 430.799284 396.824161 
L 430.088254 391.986871 
L 441.092084 390.372305 
" clip-path="url(#pb8fd147c87)" style="fill: #f29888"/>
    <path d="M 390.887376 378.410424 
L 392.395102 386.214158 
L 367.80032 390.968157 
L 366.292594 383.17083 
L 390.887376 378.410424 
" clip-path="url(#pb8fd147c87)" style="fill: #f29888"/>
    <path d="M 413.340501 379.40351 
L 414.23143 384.638034 
L 408.457525 385.618306 
L 407.566596 380.390189 
L 413.340501 379.40351 
" clip-path="url(#pb8fd147c87)" style="fill: #f29888"/>
    <path d="M 429.248725 375.725888 
L 430.315269 381.998348 
L 425.179578 382.869701 
L 424.113033 376.597241 
L 429.248725 375.725888 
" clip-path="url(#pb8fd147c87)" style="fill: #f29888"/>
    <path d="M 409.892434 360.759121 
L 410.671997 365.340131 
L 405.360689 366.243519 
L 404.581127 361.662509 
L 409.892434 360.759121 
" clip-path="url(#pb8fd147c87)" style="fill: #f29888"/>
    <path d="M 427.706732 358.074585 
L 428.593378 363.270668 
L 422.352591 364.334231 
L 421.470229 359.131742 
L 427.706732 358.074585 
" clip-path="url(#pb8fd147c87)" style="fill: #f29888"/>
    <path d="M 406.864132 347.977143 
L 407.566596 352.128883 
L 402.071105 353.064306 
L 401.364359 348.906159 
L 406.864132 347.977143 
" clip-path="url(#pb8fd147c87)" style="fill: #f29888"/>
    <path d="M 428.970309 341.871266 
L 429.856955 347.073755 
L 423.616168 348.130911 
L 422.733806 342.934829 
L 428.970309 341.871266 
" clip-path="url(#pb8fd147c87)" style="fill: #f29888"/>
    <path d="M 445.936511 337.873294 
L 446.973073 343.966357 
L 439.511542 345.241351 
L 438.47498 339.141881 
L 445.936511 337.873294 
" clip-path="url(#pb8fd147c87)" style="fill: #f29888"/>
    <path d="M 405.065141 327.109523 
L 405.960353 332.363268 
L 399.385468 333.484494 
L 398.490256 328.230749 
L 405.065141 327.109523 
" clip-path="url(#pb8fd147c87)" style="fill: #f29888"/>
    <path d="M 442.518427 324.91192 
L 443.29799 329.492929 
L 437.301353 330.511643 
L 436.52179 325.930634 
L 442.518427 324.91192 
" clip-path="url(#pb8fd147c87)" style="fill: #f29888"/>
    <path d="M 423.260653 324.040567 
L 424.113033 329.031625 
L 417.032717 330.236142 
L 416.184621 325.245084 
L 423.260653 324.040567 
" clip-path="url(#pb8fd147c87)" style="fill: #f29888"/>
    <path d="M 304.959839 413.879612 
L 305.670869 418.723309 
L 294.671322 420.337875 
L 293.960292 415.494178 
L 304.959839 413.879612 
" clip-path="url(#pb8fd147c87)" style="fill: #f29888"/>
    <path d="M 324.264729 410.432643 
L 324.971476 415.276339 
L 313.971929 416.890905 
L 313.260899 412.047208 
L 324.264729 410.432643 
" clip-path="url(#pb8fd147c87)" style="fill: #f29888"/>
   </g>
   <g id="LineCollection_1">
    <path d="M 98.93841 499.422983 
L 98.546998 499.015914 
L 94.531645 498.143847 
" clip-path="url(#pb8fd147c87)" style="fill: none; stroke: #f29888; stroke-width: 0.2"/>
    <path d="M 116.378429 438.431261 
L 120.99584 469.63979 
L 126.058716 503.846797 
" clip-path="url(#pb8fd147c87)" style="fill: none; stroke: #f29888; stroke-width: 0.2"/>
    <path d="M 677.37916 450.762132 
L 729.61603 442.768804 
L 752.882985 439.296207 
L 792.763503 433.347663 
" clip-path="url(#pb8fd147c87)" style="fill: none; stroke: #f29888; stroke-width: 0.5"/>
    <path d="M 604.466199 427.661083 
L 410.864746 458.863205 
L 279.795377 481.313355 
L 126.058716 503.846797 
" clip-path="url(#pb8fd147c87)" style="fill: none; stroke: #f29888; stroke-width: 0.2"/>
    <path d="M 281.678796 488.783216 
L 279.795377 481.313355 
L 278.090618 474.553964 
L 240.166167 451.29653 
L 195.30275 423.426052 
" clip-path="url(#pb8fd147c87)" style="fill: none; stroke: #f29888; stroke-width: 0.2"/>
    <path d="M 240.166167 451.29653 
L 120.99584 469.63979 
" clip-path="url(#pb8fd147c87)" style="fill: none; stroke: #f29888; stroke-width: 0.2"/>
    <path d="M 790.621858 426.359917 
L 784.536666 427.315105 
L 752.219071 432.158802 
L 691.177582 441.3016 
L 657.234566 446.651451 
" clip-path="url(#pb8fd147c87)" style="fill: none; stroke: #f29888; stroke-width: 0.5"/>
    <path d="M 195.30275 423.426052 
L 116.378429 438.431261 
" clip-path="url(#pb8fd147c87)" style="fill: none; stroke: #f29888; stroke-width: 0.2"/>
    <path d="M 108.384144 420.252372 
L 108.745566 420.485236 
L 112.574847 426.059331 
L 116.378429 438.431261 
" clip-path="url(#pb8fd147c87)" style="fill: none; stroke: #f29888; stroke-width: 0.2"/>
    <path d="M 382.050902 286.392997 
L 235.775772 348.380785 
L 205.676933 358.945938 
L 201.997567 379.397103 
L 202.91848 395.709342 
L 200.160026 410.650481 
L 195.30275 423.426052 
" clip-path="url(#pb8fd147c87)" style="fill: none; stroke: #f29888; stroke-width: 0.2"/>
    <path d="M 413.926609 472.999409 
L 410.864746 458.863205 
" clip-path="url(#pb8fd147c87)" style="fill: none; stroke: #f29888; stroke-width: 0.2"/>
    <path d="M 195.30275 423.426052 
L 303.165131 406.191204 
L 399.916599 391.333356 
L 548.894499 368.447529 
L 567.899558 371.349903 
L 604.466199 427.661083 
L 618.08153 448.633472 
" clip-path="url(#pb8fd147c87)" style="fill: none; stroke: #f29888; stroke-width: 0.2"/>
    <path d="M 410.864746 458.863205 
L 399.916599 391.333356 
L 393.812878 355.473341 
L 388.00899 321.394473 
L 382.050902 286.392997 
" clip-path="url(#pb8fd147c87)" style="fill: none; stroke: #f29888; stroke-width: 0.2"/>
    <path d="M 541.145987 332.292791 
L 393.812878 355.473341 
" clip-path="url(#pb8fd147c87)" style="fill: none; stroke: #f29888; stroke-width: 0.2"/>
    <path d="M 388.00899 321.394473 
L 521.532697 298.688042 
" clip-path="url(#pb8fd147c87)" style="fill: none; stroke: #f29888; stroke-width: 0.2"/>
    <path d="M 567.899558 371.349903 
L 541.145987 332.292791 
L 521.532697 298.688042 
L 487.377562 240.160038 
L 448.994796 257.010465 
L 410.928996 273.719938 
L 382.050902 286.392997 
" clip-path="url(#pb8fd147c87)" style="fill: none; stroke: #f29888; stroke-width: 0.2"/>
    <path d="M 478.322639 206.004286 
L 435.677977 223.322425 
L 396.554198 239.205394 
L 273.892972 293.286936 
" clip-path="url(#pb8fd147c87)" style="fill: none; stroke: #f29888; stroke-width: 0.2"/>
    <path d="M 410.928996 273.719938 
L 396.554198 239.205394 
L 383.228813 207.208803 
" clip-path="url(#pb8fd147c87)" style="fill: none; stroke: #f29888; stroke-width: 0.2"/>
    <path d="M 472.398817 170.579947 
L 422.819472 190.947821 
L 383.228813 207.208803 
L 313.230916 237.148745 
" clip-path="url(#pb8fd147c87)" style="fill: none; stroke: #f29888; stroke-width: 0.2"/>
    <path d="M 448.994796 257.010465 
L 435.677977 223.322425 
L 422.819472 190.947821 
L 404.53401 149.648257 
" clip-path="url(#pb8fd147c87)" style="fill: none; stroke: #f29888; stroke-width: 0.2"/>
    <path d="M 487.377562 240.160038 
L 490.898445 236.123624 
L 478.322639 206.004286 
L 472.398817 170.579947 
L 471.447922 164.916153 
L 461.215088 127.33906 
L 404.53401 149.648257 
" clip-path="url(#pb8fd147c87)" style="fill: none; stroke: #f29888; stroke-width: 0.2"/>
   </g>
   <g id="LineCollection_2">
    <path d="M 496.827891 53.543102 
L 494.543544 58.944266 
L 490.641446 70.259039 
L 486.388116 83.931591 
L 482.828684 98.693334 
L 480.010264 115.293888 
L 478.806653 128.671718 
L 478.099906 142.85683 
L 478.322639 157.484026 
L 479.123618 171.252683 
L 482.271853 192.844295 
L 488.050042 212.93026 
L 493.331366 227.551049 
L 500.570165 243.459646 
L 507.521982 256.645266 
L 514.15255 267.863934 
L 621.608016 431.620613 
L 631.854581 446.989655 
" clip-path="url(#pb8fd147c87)" style="fill: none; stroke-dasharray: 3.7,1.6; stroke-dashoffset: 0; stroke: #f29888"/>
   </g>
  </g>
 </g>
 <defs>
  <clipPath id="pb8fd147c87">
   <rect x="7.2" y="7.2" width="837" height="523.95474"/>
  </clipPath>
 </defs>
</svg>
