<?xml version="1.0" encoding="utf-8" standalone="no"?>
<!DOCTYPE svg PUBLIC "-//W3C//DTD SVG 1.1//EN"
  "http://www.w3.org/Graphics/SVG/1.1/DTD/svg11.dtd">
<svg xmlns:xlink="http://www.w3.org/1999/xlink" width="851.4pt" height="407.116119pt" viewBox="0 0 851.4 407.116119" xmlns="http://www.w3.org/2000/svg" version="1.1">
 <metadata>
  <rdf:RDF xmlns:dc="http://purl.org/dc/elements/1.1/" xmlns:cc="http://creativecommons.org/ns#" xmlns:rdf="http://www.w3.org/1999/02/22-rdf-syntax-ns#">
   <cc:Work>
    <dc:type rdf:resource="http://purl.org/dc/dcmitype/StillImage"/>
    <dc:date>2025-03-16T14:38:40.545628</dc:date>
    <dc:format>image/svg+xml</dc:format>
    <dc:creator>
     <cc:Agent>
      <dc:title>Matplotlib v3.10.1, https://matplotlib.org/</dc:title>
     </cc:Agent>
    </dc:creator>
   </cc:Work>
  </rdf:RDF>
 </metadata>
 <defs>
  <style type="text/css">*{stroke-linejoin: round; stroke-linecap: butt}</style>
 </defs>
 <g id="figure_1">
  <g id="patch_1">
   <path d="M 0 407.116119 
L 851.4 407.116119 
L 851.4 -0 
L 0 -0 
z
" style="fill: #ffffff"/>
  </g>
  <g id="axes_1">
   <g id="PatchCollection_1">
    <path d="M 806.154545 333.1603 
L 680.273829 25.050733 
L 45.245455 89.387088 
L 60.328498 382.065387 
L 806.154545 333.1603 
" clip-path="url(#p5717e805e0)" style="fill: #fbd6c9"/>
   </g>
   <g id="PatchCollection_2">
    <path d="M 531.406698 338.608527 
L 530.804809 327.658344 
L 558.054602 326.164648 
L 558.656491 337.104085 
L 531.406698 338.608527 
" clip-path="url(#p5717e805e0)" style="fill: #e6482f"/>
    <path d="M 545.945175 280.687539 
L 555.317442 279.881588 
L 557.1661 301.287638 
L 547.793833 302.093588 
L 545.945175 280.687539 
" clip-path="url(#p5717e805e0)" style="fill: #e6482f"/>
    <path d="M 581.571252 298.848294 
L 564.202465 299.61126 
L 563.306797 279.054145 
L 580.675585 278.301925 
L 581.571252 298.848294 
" clip-path="url(#p5717e805e0)" style="fill: #e6482f"/>
    <path d="M 607.187348 272.98265 
L 693.902308 268.275898 
L 694.862464 285.963829 
L 675.731003 286.995446 
L 676.003286 291.895626 
L 655.560567 293.002465 
L 655.281119 287.930349 
L 620.944803 289.800154 
L 621.489369 299.793943 
L 608.677739 300.481687 
L 607.187348 272.98265 
" clip-path="url(#p5717e805e0)" style="fill: #e6482f"/>
    <path d="M 618.522918 226.312734 
L 620.070631 269.414975 
L 606.886403 269.8878 
L 605.331524 226.785558 
L 618.522918 226.312734 
" clip-path="url(#p5717e805e0)" style="fill: #e6482f"/>
    <path d="M 577.680472 235.672507 
L 578.654959 255.036815 
L 562.776562 255.83202 
L 561.802076 236.478458 
L 577.680472 235.672507 
" clip-path="url(#p5717e805e0)" style="fill: #e6482f"/>
    <path d="M 664.280787 216.920722 
L 664.481417 221.777918 
L 653.661751 222.218504 
L 653.461122 217.350562 
L 664.280787 216.920722 
" clip-path="url(#p5717e805e0)" style="fill: #e6482f"/>
    <path d="M 650.17223 215.792391 
L 650.430183 222.057314 
L 644.662083 222.304472 
L 644.396965 216.028803 
L 650.17223 215.792391 
" clip-path="url(#p5717e805e0)" style="fill: #e6482f"/>
    <path d="M 650.501836 173.915194 
L 650.752623 178.149122 
L 631.449193 179.288199 
L 631.198406 175.054271 
L 650.501836 173.915194 
" clip-path="url(#p5717e805e0)" style="fill: #e6482f"/>
    <path d="M 667.806135 164.361992 
L 668.458181 176.891839 
L 653.267658 177.687043 
L 652.615612 165.157197 
L 667.806135 164.361992 
" clip-path="url(#p5717e805e0)" style="fill: #e6482f"/>
    <path d="M 710.325271 326.927615 
L 710.554562 330.667226 
L 704.370872 331.03259 
L 704.148746 327.292979 
L 710.325271 326.927615 
" clip-path="url(#p5717e805e0)" style="fill: #e6482f"/>
    <path d="M 731.183579 331.666605 
L 730.502872 318.556474 
L 765.20462 316.751145 
L 765.885327 329.861275 
L 731.183579 331.666605 
" clip-path="url(#p5717e805e0)" style="fill: #e6482f"/>
    <path d="M 727.851695 318.481252 
L 728.05949 324.928857 
L 716.265339 325.304968 
L 716.057544 318.857362 
L 727.851695 318.481252 
" clip-path="url(#p5717e805e0)" style="fill: #e6482f"/>
    <path d="M 720.664858 266.169681 
L 720.765173 274.218441 
L 716.731086 274.272171 
L 716.623606 266.223411 
L 720.664858 266.169681 
" clip-path="url(#p5717e805e0)" style="fill: #e6482f"/>
    <path d="M 671.36731 235.253413 
L 672.864866 264.160177 
L 655.259623 265.073588 
L 653.769232 236.166824 
L 671.36731 235.253413 
" clip-path="url(#p5717e805e0)" style="fill: #e6482f"/>
    <path d="M 675.157775 211.977558 
L 675.028799 221.4233 
L 670.457312 221.358823 
L 670.586288 211.923828 
L 675.157775 211.977558 
" clip-path="url(#p5717e805e0)" style="fill: #e6482f"/>
    <path d="M 683.347761 189.754811 
L 684.264924 202.112722 
L 647.993966 204.788478 
L 647.076803 192.441314 
L 683.347761 189.754811 
" clip-path="url(#p5717e805e0)" style="fill: #e6482f"/>
    <path d="M 694.102938 164.888547 
L 694.547189 175.537841 
L 679.535799 176.16111 
L 679.084382 165.522561 
L 694.102938 164.888547 
" clip-path="url(#p5717e805e0)" style="fill: #e6482f"/>
    <path d="M 735.267824 170.487217 
L 722.943437 171.325406 
L 721.75399 153.981348 
L 732.646828 153.240519 
L 734.375169 157.470858 
L 735.267824 170.487217 
" clip-path="url(#p5717e805e0)" style="fill: #e6482f"/>
    <path d="M 687.969406 137.056384 
L 689.137356 155.421313 
L 679.614618 156.033835 
L 678.453832 137.668906 
L 687.969406 137.056384 
" clip-path="url(#p5717e805e0)" style="fill: #e6482f"/>
   </g>
   <g id="LineCollection_1">
    <path d="M 249.077919 114.984081 
L 246.856663 104.474485 
L 240.458013 99.037004 
L 230.362048 97.403611 
L 135.750881 88.591883 
L 98.074998 84.034791 
" clip-path="url(#p5717e805e0)" style="fill: none; stroke: #e6482f; stroke-width: 0.2"/>
    <path d="M 254.881846 367.837671 
L 254.92406 369.305424 
" clip-path="url(#p5717e805e0)" style="fill: none; stroke: #e6482f; stroke-width: 0.2"/>
    <path d="M 336.2228 359.799656 
L 336.20847 336.362611 
L 334.868551 306.9078 
L 334.245166 288.865251 
L 333.865403 277.796862 
L 331.185565 242.668159 
L 330.540685 207.829598 
L 329.372734 192.387583 
L 330.246906 172.292547 
L 329.08612 155.980105 
L 325.001876 130.63027 
" clip-path="url(#p5717e805e0)" style="fill: none; stroke: #e6482f; stroke-width: 0.2"/>
    <path d="M 249.077919 114.984081 
L 261.280495 361.390066 
L 266.117101 362.819285 
L 273.253781 363.163157 
" clip-path="url(#p5717e805e0)" style="fill: none; stroke: #e6482f; stroke-width: 0.2"/>
    <path d="M 135.750881 88.591883 
L 122.838936 132.016505 
L 129.366562 202.488832 
L 130.69215 278.871463 
L 132.899075 353.932335 
L 134.224663 365.419819 
L 139.527016 370.277015 
L 146.147791 373.36112 
L 254.881846 367.837671 
L 258.994751 365.645485 
L 261.280495 361.390066 
" clip-path="url(#p5717e805e0)" style="fill: none; stroke: #e6482f; stroke-width: 0.2"/>
    <path d="M 325.001876 130.63027 
L 329.08612 126.267391 
L 336.659886 123.06508 
L 344.814044 119.561881 
L 348.60451 118.981597 
L 348.891124 109.954949 
L 351.513639 99.466844 
L 350.059074 83.154403 
" clip-path="url(#p5717e805e0)" style="fill: none; stroke: #e6482f; stroke-width: 0.2"/>
    <path d="M 230.362048 97.403611 
L 246.885325 91.557782 
L 350.059074 83.154403 
L 439.210251 78.608841 
L 494.426371 75.793387 
" clip-path="url(#p5717e805e0)" style="fill: none; stroke: #e6482f; stroke-width: 0.2"/>
    <path d="M 273.253781 363.163157 
L 336.2228 359.799656 
L 385.900112 357.39255 
L 456.908644 353.953827 
L 521.532857 350.826739 
L 579.459393 348.025088 
" clip-path="url(#p5717e805e0)" style="fill: none; stroke: #e6482f; stroke-width: 0.2"/>
    <path d="M 715.580516 339.099394 
L 714.810774 326.282854 
L 708.885037 223.271613 
L 706.94323 182.447525 
L 704.464021 141.80612 
" clip-path="url(#p5717e805e0)" style="fill: none; stroke: #e6482f; stroke-width: 0.2"/>
    <path d="M 385.900112 357.39255 
L 384.137438 327.88401 
L 376.183909 135.36926 
L 374.865486 130.52281 
L 371.770059 125.665614 
L 366.474871 123.01135 
L 348.60451 118.981597 
" clip-path="url(#p5717e805e0)" style="fill: none; stroke: #e6482f; stroke-width: 0.2"/>
    <path d="M 439.210251 78.608841 
L 443.215677 86.109555 
L 456.908644 353.953827 
" clip-path="url(#p5717e805e0)" style="fill: none; stroke: #e6482f; stroke-width: 0.2"/>
    <path d="M 494.426371 75.793387 
L 503.777142 78.952713 
L 510.877995 89.096946 
L 515.442317 105.828482 
L 517.470109 190.023462 
L 524.069388 324.939603 
L 521.532857 350.826739 
" clip-path="url(#p5717e805e0)" style="fill: none; stroke: #e6482f; stroke-width: 0.2"/>
    <path d="M 708.885037 223.271613 
L 626.397628 226.065575 
L 623.373854 186.165644 
L 706.94323 182.447525 
" clip-path="url(#p5717e805e0)" style="fill: none; stroke: #e6482f; stroke-width: 0.2"/>
    <path d="M 788.234751 334.335332 
L 799.636955 317.207644 
" clip-path="url(#p5717e805e0)" style="fill: none; stroke: #e6482f; stroke-width: 0.2"/>
    <path d="M 503.777142 78.952713 
L 513.256888 56.858919 
L 561.845068 41.406158 
L 569.59744 36.263642 
" clip-path="url(#p5717e805e0)" style="fill: none; stroke: #e6482f; stroke-width: 0.2"/>
   </g>
  </g>
 </g>
 <defs>
  <clipPath id="p5717e805e0">
   <rect x="7.2" y="7.2" width="837" height="392.716119"/>
  </clipPath>
 </defs>
</svg>
