<?xml version="1.0" encoding="utf-8" standalone="no"?>
<!DOCTYPE svg PUBLIC "-//W3C//DTD SVG 1.1//EN"
  "http://www.w3.org/Graphics/SVG/1.1/DTD/svg11.dtd">
<svg xmlns:xlink="http://www.w3.org/1999/xlink" width="851.4pt" height="689.887263pt" viewBox="0 0 851.4 689.887263" xmlns="http://www.w3.org/2000/svg" version="1.1">
 <metadata>
  <rdf:RDF xmlns:dc="http://purl.org/dc/elements/1.1/" xmlns:cc="http://creativecommons.org/ns#" xmlns:rdf="http://www.w3.org/1999/02/22-rdf-syntax-ns#">
   <cc:Work>
    <dc:type rdf:resource="http://purl.org/dc/dcmitype/StillImage"/>
    <dc:date>2025-03-16T14:38:37.710953</dc:date>
    <dc:format>image/svg+xml</dc:format>
    <dc:creator>
     <cc:Agent>
      <dc:title>Matplotlib v3.10.1, https://matplotlib.org/</dc:title>
     </cc:Agent>
    </dc:creator>
   </cc:Work>
  </rdf:RDF>
 </metadata>
 <defs>
  <style type="text/css">*{stroke-linejoin: round; stroke-linecap: butt}</style>
 </defs>
 <g id="figure_1">
  <g id="patch_1">
   <path d="M 0 689.887263 
L 851.4 689.887263 
L 851.4 0 
L 0 0 
z
" style="fill: #ffffff"/>
  </g>
  <g id="axes_1">
   <g id="PatchCollection_1">
    <path d="M 254.893066 37.903967 
L 124.242012 157.378645 
L 45.245455 180.518626 
L 59.386677 239.334682 
L 202.699624 341.436115 
L 441.244033 494.943498 
L 804.038685 651.983297 
L 806.154545 587.520023 
L 757.030654 568.473527 
L 771.613235 438.776754 
L 676.514847 420.234889 
L 695.187204 262.610781 
L 625.401515 203.53245 
L 520.280513 97.061976 
L 451.557189 65.525867 
L 254.893066 37.903967 
" clip-path="url(#p542fea7620)" style="fill: #f29888"/>
   </g>
   <g id="PatchCollection_2">
    <path d="M 777.461793 617.53228 
L 777.291016 613.564952 
L 787.360205 613.13004 
L 787.530982 617.097368 
L 777.461793 617.53228 
" clip-path="url(#p542fea7620)" style="fill: #f29888"/>
    <path d="M 769.260061 602.549391 
L 777.404128 602.370114 
L 777.488407 606.281003 
L 770.577484 606.430401 
L 770.637367 609.099632 
L 761.127084 609.308789 
L 761.071637 606.725875 
L 754.626469 606.865313 
L 754.54219 602.954424 
L 763.052207 602.771827 
L 763.096564 604.846789 
L 769.306637 604.713992 
L 769.260061 602.549391 
" clip-path="url(#p542fea7620)" style="fill: #f29888"/>
    <path d="M 752.821112 589.770942 
L 752.009367 592.742288 
L 750.150781 592.234338 
L 748.700286 597.542922 
L 751.177661 598.220189 
L 750.439106 600.92262 
L 745.180505 599.485086 
L 748.181301 588.506045 
L 752.821112 589.770942 
" clip-path="url(#p542fea7620)" style="fill: #f29888"/>
    <path d="M 771.351525 590.517929 
L 774.955585 590.332012 
L 775.101965 593.134041 
L 771.495687 593.323278 
L 771.351525 590.517929 
" clip-path="url(#p542fea7620)" style="fill: #f29888"/>
    <path d="M 770.772658 581.089299 
L 777.982995 583.635693 
L 777.151289 585.986211 
L 769.940951 583.439817 
L 770.772658 581.089299 
" clip-path="url(#p542fea7620)" style="fill: #f29888"/>
    <path d="M 759.816315 576.61734 
L 766.902452 579.352971 
L 765.902186 581.945844 
L 758.81605 579.210213 
L 759.816315 576.61734 
" clip-path="url(#p542fea7620)" style="fill: #f29888"/>
    <path d="M 753.781456 581.295135 
L 751.379488 580.568069 
L 753.368929 573.981308 
L 755.770897 574.705055 
L 753.781456 581.295135 
" clip-path="url(#p542fea7620)" style="fill: #f29888"/>
    <path d="M 747.200997 550.373215 
L 746.690884 554.161266 
L 731.043719 552.053105 
L 731.55605 548.261733 
L 747.200997 550.373215 
" clip-path="url(#p542fea7620)" style="fill: #f29888"/>
    <path d="M 755.025688 539.646489 
L 754.429078 543.783134 
L 744.056039 542.289161 
L 744.652649 538.152516 
L 755.025688 539.646489 
" clip-path="url(#p542fea7620)" style="fill: #f29888"/>
    <path d="M 748.114765 526.064615 
L 756.201166 532.568377 
L 753.617332 535.778759 
L 745.530931 529.274997 
L 748.114765 526.064615 
" clip-path="url(#p542fea7620)" style="fill: #f29888"/>
    <path d="M 694.262347 539.865605 
L 699.405617 540.566112 
L 698.891069 544.317644 
L 693.750016 543.613817 
L 694.262347 539.865605 
" clip-path="url(#p542fea7620)" style="fill: #f29888"/>
    <path d="M 675.115363 537.790643 
L 674.578635 542.528197 
L 667.590085 541.738051 
L 668.126813 537.000497 
L 675.115363 537.790643 
" clip-path="url(#p542fea7620)" style="fill: #f29888"/>
    <path d="M 729.327077 536.050994 
L 739.258758 537.458649 
L 738.675454 541.582014 
L 728.741556 540.174359 
L 729.327077 536.050994 
" clip-path="url(#p542fea7620)" style="fill: #f29888"/>
    <path d="M 722.83977 536.920818 
L 723.793459 537.073536 
L 723.407548 539.517011 
L 718.96291 538.813184 
L 720.575311 528.601049 
L 724.80925 529.268357 
L 724.407813 531.804791 
L 723.66704 531.688593 
L 722.83977 536.920818 
" clip-path="url(#p542fea7620)" style="fill: #f29888"/>
    <path d="M 678.322421 528.604369 
L 677.940946 531.588995 
L 669.679331 530.536574 
L 670.060807 527.548628 
L 678.322421 528.604369 
" clip-path="url(#p542fea7620)" style="fill: #f29888"/>
    <path d="M 684.257476 528.999442 
L 685.792251 529.188678 
L 686.331197 524.819637 
L 685.601514 524.729999 
L 685.943068 521.981089 
L 690.773617 522.578678 
L 689.398529 533.697157 
L 683.760671 532.999969 
L 684.257476 528.999442 
" clip-path="url(#p542fea7620)" style="fill: #f29888"/>
    <path d="M 724.820339 522.316403 
L 725.774029 522.4658 
L 725.388117 524.909276 
L 720.94348 524.208768 
L 722.558098 513.993313 
L 726.789819 514.663941 
L 726.388382 517.200375 
L 725.647609 517.084177 
L 724.820339 522.316403 
" clip-path="url(#p542fea7620)" style="fill: #f29888"/>
    <path d="M 691.181707 519.882887 
L 687.10302 519.447974 
L 688.220833 508.943684 
L 692.301738 509.378597 
L 691.181707 519.882887 
" clip-path="url(#p542fea7620)" style="fill: #f29888"/>
    <path d="M 728.269147 499.671092 
L 726.907367 510.175382 
L 722.855295 509.650832 
L 724.219293 499.146542 
L 728.269147 499.671092 
" clip-path="url(#p542fea7620)" style="fill: #f29888"/>
    <path d="M 689.485027 500.3384 
L 689.857631 497.450052 
L 688.96826 497.337174 
L 689.385222 494.100233 
L 694.488571 494.757581 
L 693.22216 504.611163 
L 688.274063 503.973734 
L 688.753125 500.245442 
L 689.485027 500.3384 
" clip-path="url(#p542fea7620)" style="fill: #f29888"/>
    <path d="M 715.452001 495.38837 
L 716.946854 495.607486 
L 716.767206 496.819264 
L 715.272353 496.600148 
L 715.452001 495.38837 
" clip-path="url(#p542fea7620)" style="fill: #f29888"/>
    <path d="M 730.172091 485.033477 
L 728.899026 495.451449 
L 724.614076 494.926898 
L 725.889359 484.508927 
L 730.172091 485.033477 
" clip-path="url(#p542fea7620)" style="fill: #f29888"/>
    <path d="M 667.084408 486.570609 
L 672.802111 484.830961 
L 674.139494 489.223241 
L 668.421792 490.96621 
L 667.084408 486.570609 
" clip-path="url(#p542fea7620)" style="fill: #f29888"/>
    <path d="M 696.100972 480.777314 
L 694.84565 491.069128 
L 690.70708 490.564497 
L 691.489993 484.140413 
L 690.106034 483.971096 
L 690.576225 480.103366 
L 696.100972 480.777314 
" clip-path="url(#p542fea7620)" style="fill: #f29888"/>
    <path d="M 683.773978 485.139715 
L 677.189083 487.005521 
L 676.199907 483.519584 
L 686.142677 480.697635 
L 687.446792 485.292432 
L 684.086699 486.241935 
L 683.773978 485.139715 
" clip-path="url(#p542fea7620)" style="fill: #f29888"/>
    <path d="M 724.880222 472.862577 
L 735.164546 474.35655 
L 734.590114 478.313919 
L 724.30579 476.819946 
L 724.880222 472.862577 
" clip-path="url(#p542fea7620)" style="fill: #f29888"/>
    <path d="M 710.650284 470.033988 
L 720.273679 471.308845 
L 719.79018 474.964099 
L 710.164568 473.692562 
L 710.650284 470.033988 
" clip-path="url(#p542fea7620)" style="fill: #f29888"/>
    <path d="M 749.323511 515.590204 
L 757.937768 522.402721 
L 755.422689 525.583223 
L 746.808431 518.770707 
L 749.323511 515.590204 
" clip-path="url(#p542fea7620)" style="fill: #f29888"/>
    <path d="M 759.42375 512.266944 
L 756.870967 515.404288 
L 748.607135 508.678089 
L 751.159918 505.540746 
L 759.42375 512.266944 
" clip-path="url(#p542fea7620)" style="fill: #f29888"/>
    <path d="M 761.180313 501.892132 
L 758.645273 505.049395 
L 750.161871 498.236878 
L 752.699129 495.079615 
L 761.180313 501.892132 
" clip-path="url(#p542fea7620)" style="fill: #f29888"/>
    <path d="M 750.632062 487.440433 
L 763.025592 489.067204 
L 762.499954 493.081011 
L 750.106423 491.454241 
L 750.632062 487.440433 
" clip-path="url(#p542fea7620)" style="fill: #f29888"/>
    <path d="M 754.409117 476.670548 
L 764.340797 478.25416 
L 763.730879 482.09201 
L 753.796981 480.511719 
L 754.409117 476.670548 
" clip-path="url(#p542fea7620)" style="fill: #f29888"/>
    <path d="M 739.51825 474.854541 
L 749.186002 476.172557 
L 748.655928 480.070167 
L 738.985958 478.752151 
L 739.51825 474.854541 
" clip-path="url(#p542fea7620)" style="fill: #f29888"/>
    <path d="M 749.986604 434.560089 
L 764.684749 437.425868 
L 764.287568 440.048291 
L 749.494288 437.810651 
L 749.986604 434.560089 
" clip-path="url(#p542fea7620)" style="fill: #f29888"/>
    <path d="M 662.162926 537.554927 
L 661.62398 542.153044 
L 658.767347 541.82105 
L 658.825012 541.333018 
L 654.032167 540.771949 
L 653.983373 541.186941 
L 651.275338 540.868227 
L 651.805412 536.343149 
L 662.162926 537.554927 
" clip-path="url(#p542fea7620)" style="fill: #f29888"/>
    <path d="M 638.433795 537.598086 
L 638.316247 538.391552 
L 635.397513 537.959959 
L 636.082839 533.328643 
L 646.981516 534.938814 
L 646.200822 540.220839 
L 642.363884 539.653129 
L 642.576801 538.208955 
L 638.433795 537.598086 
" clip-path="url(#p542fea7620)" style="fill: #f29888"/>
    <path d="M 655.21208 525.802339 
L 663.034554 526.678804 
L 662.637553 530.21454 
L 654.815079 529.334756 
L 655.21208 525.802339 
" clip-path="url(#p542fea7620)" style="fill: #f29888"/>
    <path d="M 648.749169 523.797096 
L 648.110419 528.54793 
L 641.252725 527.624986 
L 641.891475 522.874152 
L 648.749169 523.797096 
" clip-path="url(#p542fea7620)" style="fill: #f29888"/>
    <path d="M 645.51106 492.523262 
L 655.178812 489.83743 
L 656.482927 494.531825 
L 653.539797 495.34853 
L 653.269215 494.372468 
L 650.022234 495.275492 
L 650.326084 496.367752 
L 646.848443 497.337174 
L 645.51106 492.523262 
" clip-path="url(#p542fea7620)" style="fill: #f29888"/>
    <path d="M 658.831665 488.638932 
L 664.425166 487.208038 
L 665.625041 491.895793 
L 660.029322 493.326687 
L 658.831665 488.638932 
" clip-path="url(#p542fea7620)" style="fill: #f29888"/>
    <path d="M 528.934692 394.691272 
L 528.196137 398.904275 
L 515.081795 396.603557 
L 515.82035 392.390553 
L 528.934692 394.691272 
" clip-path="url(#p542fea7620)" style="fill: #f29888"/>
    <path d="M 549.010969 391.895882 
L 549.887033 394.568434 
L 542.490393 396.99199 
L 541.61433 394.319438 
L 549.010969 391.895882 
" clip-path="url(#p542fea7620)" style="fill: #f29888"/>
    <path d="M 564.673659 386.922612 
L 565.580774 389.644963 
L 558.496855 392.00544 
L 557.587523 389.283089 
L 564.673659 386.922612 
" clip-path="url(#p542fea7620)" style="fill: #f29888"/>
    <path d="M 473.31684 385.495038 
L 486.743903 387.669599 
L 486.109589 391.583808 
L 472.684743 389.409247 
L 473.31684 385.495038 
" clip-path="url(#p542fea7620)" style="fill: #f29888"/>
    <path d="M 454.42713 382.424093 
L 467.665674 384.535575 
L 467.026923 388.539423 
L 453.78838 386.424621 
L 454.42713 382.424093 
" clip-path="url(#p542fea7620)" style="fill: #f29888"/>
    <path d="M 581.828985 381.391592 
L 582.660691 384.110623 
L 575.139849 386.408021 
L 574.308143 383.688991 
L 581.828985 381.391592 
" clip-path="url(#p542fea7620)" style="fill: #f29888"/>
    <path d="M 434.985167 379.124073 
L 448.596315 381.547629 
L 447.884375 385.554797 
L 434.271009 383.131241 
L 434.985167 379.124073 
" clip-path="url(#p542fea7620)" style="fill: #f29888"/>
    <path d="M 598.177 376.106248 
L 599.073025 379.004555 
L 592.051207 381.179116 
L 591.152965 378.284128 
L 598.177 376.106248 
" clip-path="url(#p542fea7620)" style="fill: #f29888"/>
    <path d="M 610.084814 356.704519 
L 609.228712 353.547256 
L 612.473474 352.667472 
L 613.278566 355.635498 
L 626.157813 352.142921 
L 627.257883 356.203208 
L 606.731375 361.770747 
L 606.793476 361.996503 
L 603.817077 362.806568 
L 601.849815 355.5525 
L 604.883879 354.729155 
L 605.739982 357.883097 
L 610.084814 356.704519 
" clip-path="url(#p542fea7620)" style="fill: #f29888"/>
    <path d="M 632.653992 348.617145 
L 633.782895 352.023403 
L 627.277844 354.174725 
L 626.151159 350.771786 
L 632.653992 348.617145 
" clip-path="url(#p542fea7620)" style="fill: #f29888"/>
    <path d="M 275.095762 296.39449 
L 250.974066 292.51016 
L 251.956588 286.398151 
L 276.080502 290.279161 
L 275.095762 296.39449 
" clip-path="url(#p542fea7620)" style="fill: #f29888"/>
   </g>
   <g id="LineCollection_1">
    <path d="M 547.78448 127.887619 
L 553.141281 130.344589 
" clip-path="url(#p542fea7620)" style="fill: none; stroke: #f29888; stroke-width: 0.2"/>
    <path d="M 765.051542 497.136133 
L 758.432356 543.308383 
L 757.888975 546.127012 
L 757.374426 548.799563 
L 755.744282 554.307344 
L 753.44212 558.988459 
L 749.556388 565.044029 
L 748.04601 568.168093 
L 746.606604 572.102222 
L 733.171247 621.307519 
" clip-path="url(#p542fea7620)" style="fill: none; stroke: #f29888; stroke-width: 0.2"/>
    <path d="M 637.005479 530.539894 
L 684.339538 536.781381 
L 715.021732 541.2301 
L 724.554193 542.611195 
L 741.82263 544.699438 
L 757.888975 546.127012 
" clip-path="url(#p542fea7620)" style="fill: none; stroke: #f29888; stroke-width: 0.2"/>
    <path d="M 727.64814 526.071255 
L 744.118139 528.030019 
" clip-path="url(#p542fea7620)" style="fill: none; stroke: #f29888; stroke-width: 0.2"/>
    <path d="M 640.556309 512.5093 
L 637.005479 530.539894 
" clip-path="url(#p542fea7620)" style="fill: none; stroke: #f29888; stroke-width: 0.2"/>
    <path d="M 660.306558 515.603484 
L 640.556309 512.5093 
" clip-path="url(#p542fea7620)" style="fill: none; stroke: #f29888; stroke-width: 0.2"/>
    <path d="M 751.536958 474.144074 
L 744.118139 528.030019 
L 741.82263 544.699438 
" clip-path="url(#p542fea7620)" style="fill: none; stroke: #f29888; stroke-width: 0.2"/>
    <path d="M 723.9598 470.389222 
L 715.021732 541.2301 
" clip-path="url(#p542fea7620)" style="fill: none; stroke: #f29888; stroke-width: 0.2"/>
    <path d="M 732.287951 482.762638 
L 728.836925 514.889697 
L 727.64814 526.071255 
" clip-path="url(#p542fea7620)" style="fill: none; stroke: #f29888; stroke-width: 0.2"/>
    <path d="M 640.556309 512.5093 
L 639.97966 510.550535 
L 639.028188 509.361997 
L 637.225049 507.748506 
L 632.942317 504.893358 
L 627.843404 500.677034 
L 626.297539 498.177119 
L 625.088793 494.541785 
L 623.423163 490.498098 
L 621.300649 480.568158 
" clip-path="url(#p542fea7620)" style="fill: none; stroke: #f29888; stroke-width: 0.2"/>
    <path d="M 616.403563 499.422097 
L 618.188959 498.588792 
L 620.686295 495.969359 
L 622.014807 493.655361 
L 623.423163 490.498098 
" clip-path="url(#p542fea7620)" style="fill: none; stroke: #f29888; stroke-width: 0.2"/>
    <path d="M 511.703959 473.24437 
L 558.241799 485.328952 
L 600.581186 496.208395 
L 616.403563 499.422097 
L 621.657728 500.793232 
L 626.326372 502.097968 
L 632.942317 504.893358 
" clip-path="url(#p542fea7620)" style="fill: none; stroke: #f29888; stroke-width: 0.2"/>
    <path d="M 315.41244 345.05153 
L 312.675572 346.764619 
L 310.344577 348.022876 
L 307.654285 349.367452 
L 302.992295 350.53275 
L 301.018379 351.429134 
L 298.627501 352.567874 
L 296.114639 354.324122 
L 283.579165 358.31801 
L 279.221024 361.412194 
L 276.147039 366.259306 
L 274.838488 371.199377 
L 276.958784 375.571737 
L 283.335197 381.803265 
L 315.383607 396.480719 
L 364.800259 416.539796 
L 393.668224 424.368215 
L 408.102207 424.61389 
L 414.463096 429.749837 
L 429.143263 441.73814 
L 454.340632 452.25903 
L 477.337862 470.362662 
L 493.237865 476.477992 
L 511.703959 473.24437 
" clip-path="url(#p542fea7620)" style="fill: none; stroke: #f29888; stroke-width: 0.2"/>
    <path d="M 599.325864 371.508131 
L 564.039345 382.792607 
L 545.373641 388.16427 
L 540.075119 388.931176 
L 535.253441 388.987615 
L 528.464501 388.263868 
L 503.435691 385.3556 
L 492.998334 384.074104 
L 468.912124 380.40889 
L 448.250326 376.584319 
L 438.141215 374.164083 
L 434.659138 373.529974 
L 433.925019 373.742451 
L 433.113274 375.4323 
L 432.086394 379.655264 
L 430.979671 383.254078 
L 430.014891 385.163044 
" clip-path="url(#p542fea7620)" style="fill: none; stroke: #f29888; stroke-width: 0.2"/>
    <path d="M 492.998334 384.074104 
L 492.714445 387.374124 
L 492.357365 389.664882 
L 491.900482 391.142256 
L 491.186323 392.516711 
L 490.423371 393.436334 
L 489.201318 393.994084 
L 480.644725 393.436334 
L 473.665047 392.619629 
L 454.209777 389.615083 
L 435.619482 385.896751 
L 430.014891 385.163044 
L 429.404974 385.083365 
L 421.673433 384.060824 
L 415.487758 383.204279 
L 410.863471 382.453973 
L 400.102303 380.209694 
L 393.7148 378.310688 
L 392.679049 378.094892 
L 383.066744 376.086328 
L 373.050784 373.480175 
L 365.490021 371.514771 
L 357.452412 369.35349 
L 355.837794 368.998256 
L 354.436092 368.915258 
L 353.78847 369.316971 
L 352.48879 370.618387 
L 350.24651 373.128262 
L 348.454461 374.293561 
L 346.032533 375.010668 
L 344.060835 375.369221 
L 341.459258 375.189944 
L 338.768966 374.652114 
L 332.940369 373.307538 
L 330.34101 372.948985 
L 325.408438 372.769708 
L 316.88955 370.887302 
L 313.214518 369.629045 
L 311.240602 368.284469 
L 310.255862 366.939894 
L 309.00054 366.670978 
L 303.799604 366.133148 
" clip-path="url(#p542fea7620)" style="fill: none; stroke: #f29888; stroke-width: 0.2"/>
    <path d="M 415.487758 383.204279 
L 415.343595 380.803963 
L 415.150639 379.8445 
L 414.766946 379.153953 
L 414.230218 378.655962 
L 413.232171 378.231009 
L 411.176193 377.573661 
L 396.298634 372.912466 
" clip-path="url(#p542fea7620)" style="fill: none; stroke: #f29888; stroke-width: 0.2"/>
    <path d="M 374.700889 366.651059 
L 373.050784 373.480175 
" clip-path="url(#p542fea7620)" style="fill: none; stroke: #f29888; stroke-width: 0.2"/>
    <path d="M 564.039345 382.792607 
L 561.655121 374.29688 
L 561.346835 370.681466 
L 561.346835 367.275208 
L 561.036331 365.001049 
L 559.486031 360.973962 
L 557.008656 354.672716 
L 556.112631 352.690711 
" clip-path="url(#p542fea7620)" style="fill: none; stroke: #f29888; stroke-width: 0.2"/>
    <path d="M 356.911249 360.890963 
L 354.436092 368.915258 
" clip-path="url(#p542fea7620)" style="fill: none; stroke: #f29888; stroke-width: 0.2"/>
    <path d="M 298.627501 352.567874 
L 299.226329 350.53275 
L 298.778317 348.91926 
L 296.895334 346.854257 
L 295.460364 345.061489 
L 293.124933 340.320615 
" clip-path="url(#p542fea7620)" style="fill: none; stroke: #f29888; stroke-width: 0.2"/>
    <path d="M 392.335277 372.182079 
L 382.399161 369.091215 
L 374.700889 366.651059 
L 362.038995 362.637251 
L 358.423845 361.564911 
L 356.911249 360.890963 
L 356.021878 360.399612 
L 355.219004 359.689145 
L 354.220957 358.779481 
L 352.912406 357.912977 
L 350.541489 356.887115 
L 346.43397 355.774936 
L 344.850401 354.835393 
L 339.922265 349.672886 
L 337.515862 346.386145 
L 336.167389 344.742775 
L 335.169342 343.92275 
L 330.826727 341.987225 
L 328.129781 341.223639 
L 325.60583 341.343157 
L 320.855125 342.691052 
L 317.64363 344.238144 
L 315.41244 345.05153 
L 312.979422 345.117928 
L 308.993886 344.510379 
L 294.801653 340.861765 
L 293.124933 340.320615 
L 288.720217 338.899681 
L 282.636564 336.130851 
L 274.392693 331.602453 
L 268.579622 327.953839 
L 263.174641 323.156526 
L 259.794587 319.912944 
L 249.048944 310.856148 
" clip-path="url(#p542fea7620)" style="fill: none; stroke: #f29888; stroke-width: 0.2"/>
    <path d="M 168.140571 196.769732 
L 166.357393 197.393881 
L 164.365734 198.844695 
L 159.222463 204.07692 
L 154.817748 208.52564 
L 151.92341 212.492968 
L 148.940358 218.558498 
L 146.048238 224.803305 
L 143.852534 232.986957 
L 142.905498 237.741111 
L 142.317759 242.677862 
L 142.488536 246.821147 
L 143.28032 249.93525 
L 145.59579 257.245758 
L 148.614329 267.507693 
L 149.35732 273.022113 
L 152.289361 276.863283 
L 159.43538 280.179903 
L 168.233722 287.0057 
L 178.600107 298.519251 
L 189.744969 317.668665 
L 213.920675 348.657052 
" clip-path="url(#p542fea7620)" style="fill: none; stroke: #f29888; stroke-width: 0.2"/>
    <path d="M 330.22568 311.181502 
L 323.760551 311.706053 
L 312.087833 313.462301 
L 307.235105 313.873974 
L 303.619956 313.873974 
L 300.211069 313.771056 
L 296.183394 312.841472 
L 290.088651 310.673552 
L 271.908664 302.928132 
" clip-path="url(#p542fea7620)" style="fill: none; stroke: #f29888; stroke-width: 0.2"/>
    <path d="M 401.067082 331.283739 
L 398.840328 328.44519 
L 396.771043 326.549504 
L 394.535417 325.274647 
L 380.298826 321.79203 
L 337.39166 312.685435 
L 330.22568 311.181502 
L 321.618076 309.375455 
L 309.909872 306.686304 
L 303.160854 304.511743 
L 299.059988 302.572898 
L 296.183394 300.780131 
L 289.070643 295.368628 
L 285.626271 292.642958 
L 283.013604 290.192842 
L 278.679861 285.35569 
" clip-path="url(#p542fea7620)" style="fill: none; stroke: #f29888; stroke-width: 0.2"/>
    <path d="M 278.679861 285.35569 
L 277.253762 285.837081 
L 275.541557 286.225514 
L 273.829351 286.46123 
L 253.045569 283.191089 
" clip-path="url(#p542fea7620)" style="fill: none; stroke: #f29888; stroke-width: 0.2"/>
    <path d="M 245.112201 266.139877 
L 238.620458 283.469964 
L 237.813148 284.545624 
L 236.198529 285.173093 
" clip-path="url(#p542fea7620)" style="fill: none; stroke: #f29888; stroke-width: 0.2"/>
    <path d="M 326.896638 233.050036 
L 325.379606 234.354772 
L 323.9402 235.662829 
L 321.726753 238.624215 
L 318.643895 244.470629 
L 303.866141 276.717206 
L 302.677355 278.410375 
L 301.180284 279.379798 
L 298.873686 280.242982 
L 295.535772 281.106166 
L 285.517594 283.247528 
L 278.679861 285.35569 
" clip-path="url(#p542fea7620)" style="fill: none; stroke: #f29888; stroke-width: 0.2"/>
    <path d="M 278.679861 285.35569 
L 276.601705 283.66916 
L 274.523548 282.258186 
L 269.697435 279.180601 
L 258.315259 272.726638 
L 245.112201 266.139877 
L 230.123748 258.062463 
L 225.758954 255.160836 
L 223.576557 253.115753 
L 220.917315 250.356883 
L 218.575231 246.698309 
L 216.709991 242.8007 
L 213.090406 233.524787 
L 209.351055 226.74547 
L 204.105762 218.707895 
L 199.133268 211.682902 
L 196.147998 208.024329 
L 192.825609 205.17582 
L 189.221549 202.317352 
L 187.012538 201.059095 
L 184.084932 199.757678 
L 180.09496 198.678698 
L 176.038452 197.865312 
L 171.196814 197.098406 
L 168.140571 196.769732 
" clip-path="url(#p542fea7620)" style="fill: none; stroke: #f29888; stroke-width: 0.2"/>
    <path d="M 561.036331 365.001049 
L 572.088042 361.488552 
" clip-path="url(#p542fea7620)" style="fill: none; stroke: #f29888; stroke-width: 0.2"/>
    <path d="M 394.42674 371.856725 
L 394.708412 369.021496 
L 400.297477 334.142207 
L 401.067082 331.283739 
" clip-path="url(#p542fea7620)" style="fill: none; stroke: #f29888; stroke-width: 0.2"/>
    <path d="M 630.010275 357.564383 
L 633.698615 356.253007 
L 635.124714 354.589717 
L 635.244479 352.328838 
L 633.104222 346.024272 
L 633.341536 344.384222 
L 635.87214 341.18048 
L 639.635888 337.551785 
L 639.119121 335.941614 
L 636.222566 334.354683 
L 630.788752 332.907189 
L 627.477453 332.538676 
L 624.166154 333.122985 
L 613.114443 338.746964 
L 578.657412 347.441886 
L 561.566405 350.453072 
L 556.112631 352.690711 
L 495.930375 354.158125 
L 466.32829 354.891832 
L 447.822274 352.76375 
L 441.492436 351.578532 
L 435.79913 349.563328 
L 414.953248 339.972021 
L 406.509767 335.07511 
L 401.067082 331.283739 
" clip-path="url(#p542fea7620)" style="fill: none; stroke: #f29888; stroke-width: 0.2"/>
    <path d="M 385.728203 240.735697 
L 366.583437 241.977354 
L 353.817302 239.948871 
L 330.212373 233.893301 
" clip-path="url(#p542fea7620)" style="fill: none; stroke: #f29888; stroke-width: 0.2"/>
    <path d="M 544.262482 126.313967 
L 537.5179 131.1312 
L 529.220799 134.919251 
L 521.91731 140.148157 
L 515.06627 146.097489 
L 505.598127 152.319057 
L 499.376965 156.193426 
L 491.89161 164.128083 
L 485.4908 172.421293 
L 484.357461 173.284477 
L 478.637541 177.650198 
L 468.178005 188.197647 
L 459.61254 195.139642 
L 449.964749 202.353871 
L 445.185211 207.041626 
L 444.014169 210.73672 
L 443.923236 217.499437 
L 445.096496 224.982582 
L 443.020557 230.480402 
L 440.13731 237.24312 
L 438.784401 244.095476 
L 435.446487 252.299048 
L 431.299046 260.233704 
L 423.63626 268.799149 
L 415.159511 277.002721 
L 407.676374 282.772776 
L 403.528932 287.191616 
L 401.63486 291.96901 
L 402.08509 299.541793 
L 402.446605 315.500744 
L 401.067082 331.283739 
" clip-path="url(#p542fea7620)" style="fill: none; stroke: #f29888; stroke-width: 0.2"/>
    <path d="M 633.06269 210.018156 
L 596.524678 218.405781 
" clip-path="url(#p542fea7620)" style="fill: none; stroke: #f29888; stroke-width: 0.2"/>
    <path d="M 227.899211 145.310663 
L 229.999546 144.533797 
L 232.283966 143.929568 
L 235.861411 143.590934 
L 240.115311 143.929568 
L 341.113268 173.533473 
L 368.448676 176.816893 
L 414.87784 185.803971 
L 419.322477 187.291304 
L 422.480743 188.556201 
L 425.164381 189.817778 
L 426.743514 190.448567 
L 429.109995 190.763961 
L 433.847393 189.658421 
L 437.160911 188.081449 
L 442.530405 186.345121 
L 446.001392 185.714332 
L 452.475393 184.449435 
L 458.472549 183.187858 
L 462.42038 181.926281 
L 466.365994 180.189952 
L 472.050428 177.032689 
L 475.838573 175.927149 
L 479.943874 174.821609 
L 484.357461 173.284477 
" clip-path="url(#p542fea7620)" style="fill: none; stroke: #f29888; stroke-width: 0.2"/>
    <path d="M 524.844476 101.684529 
L 415.722853 133.777192 
L 401.166887 138.534666 
L 367.783312 148.494486 
L 352.637388 153.119162 
L 349.148658 154.692814 
L 347.704817 155.602477 
L 346.664629 156.442422 
L 345.493587 157.999474 
L 344.7262 159.556526 
L 343.608387 162.879785 
L 341.113268 173.533473 
L 336.945866 197.118326 
L 332.450217 228.896791 
L 331.727187 230.985033 
L 330.212373 233.893301 
" clip-path="url(#p542fea7620)" style="fill: none; stroke: #f29888; stroke-width: 0.2"/>
    <path d="M 346.664629 156.442422 
L 345.231877 154.496937 
" clip-path="url(#p542fea7620)" style="fill: none; stroke: #f29888; stroke-width: 0.2"/>
    <path d="M 345.231877 154.496937 
L 343.581772 145.878373 
L 342.896446 140.918383 
L 342.812167 136.054671 
L 343.067223 129.703626 
L 343.422084 125.311345 
L 343.776946 120.988783 
" clip-path="url(#p542fea7620)" style="fill: none; stroke: #f29888; stroke-width: 0.2"/>
    <path d="M 236.198529 285.173093 
L 234.854492 285.173093 
L 232.523497 284.366348 
L 226.963265 282.03575 
L 221.762329 279.346598 
L 214.589695 274.861359 
L 194.952559 261.322644 
L 177.646418 249.311102 
L 163.567296 239.537199 
L 159.921096 236.784968 
L 158.969625 235.815546 
L 158.193366 234.846123 
L 157.862901 233.229313 
L 158.066946 231.366826 
L 160.340276 223.847162 
L 163.387648 215.597112 
L 164.194957 212.549407 
L 166.346304 203.675207 
L 168.140571 196.769732 
" clip-path="url(#p542fea7620)" style="fill: none; stroke: #f29888; stroke-width: 0.2"/>
    <path d="M 330.212373 233.893301 
L 326.896638 233.050036 
" clip-path="url(#p542fea7620)" style="fill: none; stroke: #f29888; stroke-width: 0.2"/>
    <path d="M 318.643895 244.470629 
L 307.428061 240.636099 
L 301.213553 238.521297 
L 295.001262 235.868665 
L 269.839379 223.392331 
L 265.35482 220.988694 
L 252.098533 214.743887 
L 245.427141 212.061376 
L 242.739067 211.330989 
L 240.228423 211.420627 
L 238.254507 212.227373 
L 236.194094 213.840863 
L 227.854854 222.539106 
" clip-path="url(#p542fea7620)" style="fill: none; stroke: #f29888; stroke-width: 0.2"/>
    <path d="M 326.896638 233.050036 
L 284.572776 220.756298 
L 275.151209 218.917052 
L 270.475912 218.070467 
L 252.098533 214.743887 
" clip-path="url(#p542fea7620)" style="fill: none; stroke: #f29888; stroke-width: 0.2"/>
    <path d="M 269.839379 223.392331 
L 270.475912 218.070467 
" clip-path="url(#p542fea7620)" style="fill: none; stroke: #f29888; stroke-width: 0.2"/>
    <path d="M 51.998908 195.730591 
L 50.242345 196.660174 
L 49.256167 197.19995 
" clip-path="url(#p542fea7620)" style="fill: none; stroke: #f29888; stroke-width: 0.2"/>
    <path d="M 390.454512 206.128643 
L 336.945866 197.118326 
L 248.758401 171.677626 
L 239.336834 168.606682 
L 227.468942 163.965406 
L 219.473474 159.559846 
L 217.956442 159.002096 
L 216.874115 159.058535 
L 215.864978 159.649484 
L 214.977825 160.788223 
L 205.922208 176.315582 
L 205.099374 177.643558 
L 204.629182 178.579781 
L 204.571518 179.343368 
L 204.864278 180.163393 
L 205.392134 180.810781 
L 215.073194 185.85377 
" clip-path="url(#p542fea7620)" style="fill: none; stroke: #f29888; stroke-width: 0.2"/>
    <path d="M 168.140571 196.769732 
L 169.125311 185.203062 
L 169.799547 178.267707 
L 170.136666 174.280459 
L 170.566935 172.703488 
L 171.403077 171.123196 
L 174.3329 167.633939 
L 176.182615 165.618736 
" clip-path="url(#p542fea7620)" style="fill: none; stroke: #f29888; stroke-width: 0.2"/>
    <path d="M 51.998908 195.730591 
L 54.786787 193.456432 
L 57.060117 191.806422 
L 59.537493 190.667683 
L 98.479083 180.030595 
L 118.619679 173.938505 
L 128.019067 171.252674 
L 131.840479 169.705582 
L 140.412597 165.469339 
L 144.23401 163.507254 
L 147.849159 162.371835 
L 151.981075 161.133497 
L 155.341168 160.811463 
L 160.140667 160.110956 
L 162.103493 159.480167 
L 169.644296 155.761834 
L 174.499242 153.079323 
L 176.976617 152.252658 
L 178.526917 152.252658 
L 179.766714 153.079323 
L 180.798029 154.420578 
L 181.115187 155.821593 
L 180.642778 157.511443 
L 177.803887 161.701207 
L 176.925606 163.118821 
L 176.453197 164.403638 
L 176.182615 165.618736 
L 177.364746 165.618736 
L 179.629205 164.606154 
L 186.792967 158.998776 
L 208.889736 142.644752 
L 214.432225 138.727222 
L 217.608234 135.55004 
L 219.364797 133.32236 
L 220.582415 131.293877 
L 223.21726 128.996478 
" clip-path="url(#p542fea7620)" style="fill: none; stroke: #f29888; stroke-width: 0.2"/>
    <path d="M 227.899211 145.310663 
L 226.045061 147.023752 
L 222.230302 152.65437 
L 219.62429 156.180147 
L 217.956442 159.002096 
" clip-path="url(#p542fea7620)" style="fill: none; stroke: #f29888; stroke-width: 0.2"/>
    <path d="M 294.653055 113.080686 
L 343.776946 120.988783 
L 344.564294 121.091701 
L 401.466301 128.91348 
L 406.585175 129.836423 
L 410.271297 130.669728 
L 412.637778 131.728789 
L 415.722853 133.777192 
" clip-path="url(#p542fea7620)" style="fill: none; stroke: #f29888; stroke-width: 0.2"/>
    <path d="M 344.564294 121.091701 
L 347.059413 101.606974 
L 348.208276 92.012348 
" clip-path="url(#p542fea7620)" style="fill: none; stroke: #f29888; stroke-width: 0.2"/>
    <path d="M 620.686295 495.969359 
L 625.088793 494.541785 
L 693.204417 476.155958 
" clip-path="url(#p542fea7620)" style="fill: none; stroke: #f29888; stroke-width: 0.2"/>
    <path d="M 694.810164 466.345535 
L 693.204417 476.155958 
" clip-path="url(#p542fea7620)" style="fill: none; stroke: #f29888; stroke-width: 0.2"/>
    <path d="M 693.204417 476.155958 
L 691.359138 469.081166 
L 689.948564 466.292416 
L 687.670798 463.370869 
" clip-path="url(#p542fea7620)" style="fill: none; stroke: #f29888; stroke-width: 0.2"/>
    <path d="M 767.444443 475.85379 
L 751.536958 474.144074 
L 723.9598 470.389222 
L 694.810164 466.345535 
L 692.193062 465.51223 
L 687.670798 463.370869 
" clip-path="url(#p542fea7620)" style="fill: none; stroke: #f29888; stroke-width: 0.2"/>
    <path d="M 669.770186 241.093547 
L 668.743385 242.555024 
L 665.53189 246.123959 
L 662.557709 248.740072 
L 659.226449 250.5262 
L 653.992245 252.428525 
L 647.209958 254.450369 
L 640.904517 256.59173 
L 631.979756 257.660751 
L 611.040722 260.515899 
L 603.42673 261.173247 
L 592.241945 261.349204 
L 586.530897 261.707757 
L 580.819848 262.541062 
" clip-path="url(#p542fea7620)" style="fill: none; stroke: #f29888; stroke-width: 0.2"/>
    <path d="M 549.636351 126.794665 
L 547.78448 127.887619 
" clip-path="url(#p542fea7620)" style="fill: none; stroke: #f29888; stroke-width: 0.2"/>
    <path d="M 345.231877 154.496937 
L 341.412682 156.057309 
L 337.484812 157.196048 
L 334.115847 157.786998 
L 331.174934 157.956315 
L 326.838973 157.786998 
L 323.674054 157.11637 
L 320.626683 156.034069 
L 265.146339 132.724771 
L 262.946199 132.064103 
L 259.603849 131.300517 
L 257.607754 131.068121 
L 255.318899 130.832405 
" clip-path="url(#p542fea7620)" style="fill: none; stroke: #f29888; stroke-width: 0.2"/>
    <path d="M 547.78448 127.887619 
L 544.262482 126.313967 
L 542.093392 123.833972 
L 539.039367 116.75586 
L 538.505906 115.521335 
" clip-path="url(#p542fea7620)" style="fill: none; stroke: #f29888; stroke-width: 0.2"/>
    <path d="M 539.039367 116.75586 
L 539.3842 116.410903 
" clip-path="url(#p542fea7620)" style="fill: none; stroke: #f29888; stroke-width: 0.2"/>
   </g>
  </g>
 </g>
 <defs>
  <clipPath id="p542fea7620">
   <rect x="7.2" y="7.2" width="837" height="675.487263"/>
  </clipPath>
 </defs>
</svg>
