<?xml version="1.0" encoding="utf-8" standalone="no"?>
<!DOCTYPE svg PUBLIC "-//W3C//DTD SVG 1.1//EN"
  "http://www.w3.org/Graphics/SVG/1.1/DTD/svg11.dtd">
<svg xmlns:xlink="http://www.w3.org/1999/xlink" width="540.099372pt" height="846pt" viewBox="0 0 540.099372 846" xmlns="http://www.w3.org/2000/svg" version="1.1">
 <metadata>
  <rdf:RDF xmlns:dc="http://purl.org/dc/elements/1.1/" xmlns:cc="http://creativecommons.org/ns#" xmlns:rdf="http://www.w3.org/1999/02/22-rdf-syntax-ns#">
   <cc:Work>
    <dc:type rdf:resource="http://purl.org/dc/dcmitype/StillImage"/>
    <dc:date>2025-03-16T14:37:53.731195</dc:date>
    <dc:format>image/svg+xml</dc:format>
    <dc:creator>
     <cc:Agent>
      <dc:title>Matplotlib v3.10.1, https://matplotlib.org/</dc:title>
     </cc:Agent>
    </dc:creator>
   </cc:Work>
  </rdf:RDF>
 </metadata>
 <defs>
  <style type="text/css">*{stroke-linejoin: round; stroke-linecap: butt}</style>
 </defs>
 <g id="figure_1">
  <g id="patch_1">
   <path d="M 0 846 
L 540.099372 846 
L 540.099372 0 
L 0 0 
z
" style="fill: #ffffff"/>
  </g>
  <g id="axes_1">
   <g id="PatchCollection_1">
    <path d="M 93.079332 740.046278 
L 106.319881 745.655433 
L 117.648249 801 
L 200.255034 798.223556 
L 249.541435 714.89142 
L 332.018863 766.186763 
L 384.783823 708.857358 
L 318.824422 645.606424 
L 426.536764 475.643791 
L 419.135222 457.308781 
L 410.796161 457.407732 
L 393.156184 446.280612 
L 456.17751 328.707603 
L 457.833539 312.987999 
L 449.704523 291.232394 
L 436.252648 280.813452 
L 428.674361 261.302673 
L 431.516378 246.337813 
L 449.135863 236.109011 
L 482.480582 230.426128 
L 501.046552 221.522492 
L 509.003946 203.907301 
L 501.615212 176.819991 
L 497.068496 168.108436 
L 487.406404 150.303104 
L 473.575422 128.143935 
L 460.692207 45 
L 350.018736 86.169373 
L 331.798572 165.855849 
L 325.872472 169.119287 
L 293.403797 301.560147 
L 268.8003 420.122665 
L 249.90133 470.15881 
L 166.257125 489.743317 
L 31.095426 695.295272 
L 40.269546 725.966154 
L 81.812442 728.775582 
L 93.079332 740.046278 
" clip-path="url(#p2c4d91f856)" style="fill: #d1d4f2"/>
   </g>
   <g id="PatchCollection_2">
    <path d="M 245.957855 535.064746 
L 243.825381 543.304829 
L 241.225428 542.631575 
L 241.986202 539.690213 
L 241.441877 539.548577 
L 242.060486 537.154355 
L 242.606092 537.29599 
L 243.357901 534.391492 
L 245.957855 535.064746 
" clip-path="url(#p2c4d91f856)" style="fill: #4d59c1"/>
    <path d="M 363.297708 276.261713 
L 363.45268 275.642785 
L 364.893541 276.003665 
L 364.560542 277.334651 
L 362.301273 276.770049 
L 362.479299 276.057991 
L 363.297708 276.261713 
" clip-path="url(#p2c4d91f856)" style="fill: #4d59c1"/>
    <path d="M 362.433191 273.04096 
L 362.310238 273.50079 
L 363.637111 273.855849 
L 363.396327 274.756108 
L 361.598133 274.274935 
L 361.96187 272.916786 
L 362.433191 273.04096 
" clip-path="url(#p2c4d91f856)" style="fill: #4d59c1"/>
    <path d="M 331.201735 266.075596 
L 330.840559 267.961483 
L 329.269061 267.66075 
L 329.631517 265.772923 
L 331.201735 266.075596 
" clip-path="url(#p2c4d91f856)" style="fill: #4d59c1"/>
   </g>
   <g id="LineCollection_1">
    <path d="M 126.226813 732.570638 
L 122.486979 734.801883 
L 118.873941 738.996623 
L 117.912086 747.312374 
L 116.400783 750.542828 
L 112.278001 757.415062 
L 109.230001 759.872778 
" clip-path="url(#p2c4d91f856)" style="fill: none; stroke: #4d59c1; stroke-width: 0.2"/>
    <path d="M 92.541411 720.758623 
L 87.525935 722.819129 
L 71.579255 728.083541 
" clip-path="url(#p2c4d91f856)" style="fill: none; stroke: #4d59c1; stroke-width: 0.2"/>
    <path d="M 41.244512 726.032088 
L 41.476027 725.776013 
L 42.815707 714.400546 
L 43.05521 712.79599 
" clip-path="url(#p2c4d91f856)" style="fill: none; stroke: #4d59c1; stroke-width: 0.2"/>
    <path d="M 85.740548 719.400474 
L 90.515241 720.776085 
L 92.541411 720.758623 
L 95.584509 720.426847 
L 103.878743 719.520767 
L 105.562949 719.968957 
L 107.667246 720.463711 
" clip-path="url(#p2c4d91f856)" style="fill: none; stroke: #4d59c1; stroke-width: 0.2"/>
    <path d="M 99.962164 686.395516 
L 120.937253 693.750862 
" clip-path="url(#p2c4d91f856)" style="fill: none; stroke: #4d59c1; stroke-width: 0.2"/>
    <path d="M 88.350748 680.947399 
L 99.549757 685.365263 
" clip-path="url(#p2c4d91f856)" style="fill: none; stroke: #4d59c1; stroke-width: 0.2"/>
    <path d="M 180.013823 786.200057 
L 178.377005 786.419302 
L 157.600434 788.710693 
L 139.386674 791.273714 
L 138.350535 791.110736 
L 137.096666 790.291966 
L 134.64272 785.383228 
L 134.405779 784.275366 
" clip-path="url(#p2c4d91f856)" style="fill: none; stroke: #4d59c1; stroke-width: 0.2"/>
    <path d="M 180.013823 786.200057 
L 180.939816 785.001006 
L 216.440062 723.304182 
L 226.801451 711.738574 
L 230.492616 709.538373 
L 231.982146 708.302458 
L 235.199428 704.156223 
" clip-path="url(#p2c4d91f856)" style="fill: none; stroke: #4d59c1; stroke-width: 0.2"/>
    <path d="M 203.935953 783.107358 
L 203.490246 782.591262 
L 219.603552 744.142067 
L 233.563891 715.174691 
L 234.528307 710.902343 
L 235.199428 707.702932 
L 235.199428 704.156223 
" clip-path="url(#p2c4d91f856)" style="fill: none; stroke: #4d59c1; stroke-width: 0.2"/>
    <path d="M 157.600434 788.710693 
L 160.05438 782.709615 
L 207.46318 698.419014 
" clip-path="url(#p2c4d91f856)" style="fill: none; stroke: #4d59c1; stroke-width: 0.2"/>
    <path d="M 134.405779 784.275366 
L 134.544101 783.415852 
L 157.218766 740.814602 
L 180.777159 698.428715 
L 183.067167 693.029103 
L 184.509308 689.35046 
" clip-path="url(#p2c4d91f856)" style="fill: none; stroke: #4d59c1; stroke-width: 0.2"/>
    <path d="M 184.509308 689.35046 
L 207.46318 698.419014 
L 227.427746 707.181015 
L 230.492616 709.538373 
" clip-path="url(#p2c4d91f856)" style="fill: none; stroke: #4d59c1; stroke-width: 0.2"/>
    <path d="M 126.226813 732.570638 
L 139.349532 724.357718 
L 149.002658 715.766456 
L 159.03361 704.323081 
L 167.174153 691.057847 
L 170.678326 684.598879 
L 173.907135 670.476071 
L 174.801109 658.586447 
L 175.350557 656.954728 
L 175.565726 656.194165 
" clip-path="url(#p2c4d91f856)" style="fill: none; stroke: #4d59c1; stroke-width: 0.2"/>
    <path d="M 184.509308 689.35046 
L 183.511592 687.064889 
L 183.830503 685.8833 
L 185.777266 681.003665 
L 191.544551 675.491521 
L 194.633756 672.144654 
" clip-path="url(#p2c4d91f856)" style="fill: none; stroke: #4d59c1; stroke-width: 0.2"/>
    <path d="M 194.633756 672.144654 
L 181.024346 661.834363 
" clip-path="url(#p2c4d91f856)" style="fill: none; stroke: #4d59c1; stroke-width: 0.2"/>
    <path d="M 185.775985 573.96601 
L 178.973842 585.510276 
L 161.10973 618.909097 
L 151.560346 636.844424 
L 144.071713 651.345573 
L 138.228862 662.003162 
L 120.937253 693.750862 
L 106.891103 718.182021 
L 106.067571 719.384953 
L 105.562949 719.968957 
" clip-path="url(#p2c4d91f856)" style="fill: none; stroke: #4d59c1; stroke-width: 0.2"/>
    <path d="M 206.985454 658.167361 
L 222.184293 662.381503 
L 237.138506 667.024432 
L 250.487921 671.157085 
L 264.535352 677.786792 
L 277.830974 682.998204 
L 286.791206 687.89142 
" clip-path="url(#p2c4d91f856)" style="fill: none; stroke: #4d59c1; stroke-width: 0.2"/>
    <path d="M 277.830974 682.998204 
L 290.034104 661.244539 
" clip-path="url(#p2c4d91f856)" style="fill: none; stroke: #4d59c1; stroke-width: 0.2"/>
    <path d="M 274.950533 640.429937 
L 276.896016 653.900834 
L 289.50899 659.98146 
L 290.034104 661.244539 
" clip-path="url(#p2c4d91f856)" style="fill: none; stroke: #4d59c1; stroke-width: 0.2"/>
    <path d="M 219.036173 642.624317 
L 231.941162 649.300589 
L 239.70516 652.944309 
L 241.208778 654.001725 
L 243.140171 656.172823 
" clip-path="url(#p2c4d91f856)" style="fill: none; stroke: #4d59c1; stroke-width: 0.2"/>
    <path d="M 237.415152 620.449626 
L 238.743305 620.810506 
L 257.674293 631.200345 
" clip-path="url(#p2c4d91f856)" style="fill: none; stroke: #4d59c1; stroke-width: 0.2"/>
    <path d="M 278.30998 628.140629 
L 279.606114 625.088675 
L 282.446851 622.385959 
L 287.85168 620.127551 
" clip-path="url(#p2c4d91f856)" style="fill: none; stroke: #4d59c1; stroke-width: 0.2"/>
    <path d="M 300.801496 609.574734 
L 285.59113 597.671529 
" clip-path="url(#p2c4d91f856)" style="fill: none; stroke: #4d59c1; stroke-width: 0.2"/>
    <path d="M 294.031371 588.030612 
L 277.298176 575.882941 
" clip-path="url(#p2c4d91f856)" style="fill: none; stroke: #4d59c1; stroke-width: 0.2"/>
    <path d="M 277.298176 575.882941 
L 276.56942 575.289235 
" clip-path="url(#p2c4d91f856)" style="fill: none; stroke: #4d59c1; stroke-width: 0.2"/>
    <path d="M 276.56942 575.289235 
L 264.703132 565.535786 
" clip-path="url(#p2c4d91f856)" style="fill: none; stroke: #4d59c1; stroke-width: 0.2"/>
    <path d="M 194.633756 672.144654 
L 203.24434 661.064099 
L 206.985454 658.167361 
L 219.036173 642.624317 
L 236.235567 620.75618 
L 237.415152 620.449626 
" clip-path="url(#p2c4d91f856)" style="fill: none; stroke: #4d59c1; stroke-width: 0.2"/>
    <path d="M 224.952027 544.373886 
L 224.256571 545.099526 
L 223.155113 546.993173 
L 218.089687 557.35973 
L 217.489009 557.982538 
L 216.698777 558.190141 
L 215.601161 558.050446 
L 214.05912 557.524648 
L 213.37263 557.095861 
L 208.093316 554.290313 
L 206.767724 554.195243 
L 205.926262 554.971328 
L 201.566537 562.295631 
L 197.182478 568.312231 
L 190.689 576.558135 
L 182.613776 586.994539 
L 164.498635 620.397241 
L 141.164376 663.601897 
L 136.880217 671.783774 
L 132.224636 680.082064 
L 122.989039 695.46019 
L 107.667246 720.463711 
L 106.766869 721.899468 
L 100.620477 731.472478 
L 95.243177 740.962957 
" clip-path="url(#p2c4d91f856)" style="fill: none; stroke: #4d59c1; stroke-width: 0.2"/>
    <path d="M 263.085526 565.341765 
L 263.185425 566.911397 
L 263.09193 568.205519 
L 251.310172 584.920451 
L 244.851274 592.93547 
L 222.071586 614.341837 
L 201.11955 639.314314 
L 192.909846 649.019258 
L 184.706546 658.297356 
L 180.404456 664.379922 
L 177.518892 668.778385 
L 175.856459 670.159816 
L 173.907135 670.476071 
" clip-path="url(#p2c4d91f856)" style="fill: none; stroke: #4d59c1; stroke-width: 0.2"/>
    <path d="M 164.498635 620.397241 
L 161.10973 618.909097 
L 139.056237 607.913912 
" clip-path="url(#p2c4d91f856)" style="fill: none; stroke: #4d59c1; stroke-width: 0.2"/>
    <path d="M 169.423176 579.610089 
L 167.053761 578.131647 
L 170.213408 571.672679 
L 172.595631 566.556338 
" clip-path="url(#p2c4d91f856)" style="fill: none; stroke: #4d59c1; stroke-width: 0.2"/>
    <path d="M 190.689 576.558135 
L 188.935632 575.547284 
L 185.775985 573.96601 
L 180.691347 571.562087 
L 181.653202 569.361886 
" clip-path="url(#p2c4d91f856)" style="fill: none; stroke: #4d59c1; stroke-width: 0.2"/>
    <path d="M 197.182478 568.312231 
L 191.083475 564.003018 
L 187.579302 563.65766 
L 181.324045 564.237784 
L 180.278941 564.742239 
L 172.595631 566.556338 
L 169.131162 567.76315 
L 159.340994 572.041319 
" clip-path="url(#p2c4d91f856)" style="fill: none; stroke: #4d59c1; stroke-width: 0.2"/>
    <path d="M 204.463628 510.026301 
L 189.875714 540.588531 
L 184.236505 553.53363 
L 182.142454 560.429146 
L 181.324045 564.237784 
" clip-path="url(#p2c4d91f856)" style="fill: none; stroke: #4d59c1; stroke-width: 0.2"/>
    <path d="M 192.09656 506.935542 
L 182.705991 531.785786 
L 175.263465 554.497916 
L 172.595631 566.556338 
" clip-path="url(#p2c4d91f856)" style="fill: none; stroke: #4d59c1; stroke-width: 0.2"/>
    <path d="M 173.031092 497.744754 
L 171.382747 502.005461 
L 169.870163 508.945602 
L 170.144247 518.565177 
L 170.076367 523.510779 
L 166.572193 537.804326 
L 159.220602 551.89027 
L 158.532831 555.875467 
L 159.08356 569.757689 
L 159.340994 572.041319 
" clip-path="url(#p2c4d91f856)" style="fill: none; stroke: #4d59c1; stroke-width: 0.2"/>
    <path d="M 116.039608 652.926847 
L 138.228862 662.003162 
" clip-path="url(#p2c4d91f856)" style="fill: none; stroke: #4d59c1; stroke-width: 0.2"/>
    <path d="M 42.249609 712.665996 
L 43.05521 712.79599 
L 71.415191 717.372952 
L 82.820404 718.781546 
L 85.740548 719.400474 
L 99.962164 686.395516 
L 99.549757 685.365263 
L 116.039608 652.926847 
L 122.97367 639.213423 
L 139.056237 607.913912 
L 144.414958 597.743317 
L 150.392288 584.753593 
L 151.971472 581.730742 
L 152.590081 579.532481 
L 153.500705 576.371874 
" clip-path="url(#p2c4d91f856)" style="fill: none; stroke: #4d59c1; stroke-width: 0.2"/>
    <path d="M 81.789388 698.19783 
L 88.350748 680.947399 
L 96.698774 660.15996 
L 99.454981 652.765809 
L 103.397176 644.11246 
L 108.447232 633.974849 
L 110.060996 631.15766 
L 116.554475 622.876832 
L 126.383066 603.402918 
L 132.01331 593.602903 
" clip-path="url(#p2c4d91f856)" style="fill: none; stroke: #4d59c1; stroke-width: 0.2"/>
    <path d="M 110.060996 631.15766 
L 115.627201 635.007042 
L 120.677258 637.275151 
L 122.97367 639.213423 
" clip-path="url(#p2c4d91f856)" style="fill: none; stroke: #4d59c1; stroke-width: 0.2"/>
    <path d="M 96.733355 616.297571 
L 97.127831 617.397672 
L 97.025369 620.969603 
L 96.819166 623.959471 
L 100.769046 625.95207 
L 105.990725 628.323009 
L 109.082492 630.282624 
L 110.060996 631.15766 
" clip-path="url(#p2c4d91f856)" style="fill: none; stroke: #4d59c1; stroke-width: 0.2"/>
    <path d="M 126.383066 603.402918 
L 139.056237 607.913912 
" clip-path="url(#p2c4d91f856)" style="fill: none; stroke: #4d59c1; stroke-width: 0.2"/>
    <path d="M 159.340994 572.041319 
L 153.500705 576.371874 
L 151.702511 578.277163 
L 148.193215 580.632581 
L 138.094382 583.587525 
L 127.635655 585.00194 
L 126.413805 585.166858 
L 110.95497 589.28981 
L 107.107552 595.131791 
L 96.733355 616.297571 
" clip-path="url(#p2c4d91f856)" style="fill: none; stroke: #4d59c1; stroke-width: 0.2"/>
    <path d="M 127.635655 585.00194 
L 128.291406 588.785355 
L 128.990704 589.479951 
L 129.848817 589.9262 
L 131.607307 590.401552 
L 132.493596 590.906007 
L 132.6998 591.678212 
L 132.01331 593.602903 
" clip-path="url(#p2c4d91f856)" style="fill: none; stroke: #4d59c1; stroke-width: 0.2"/>
    <path d="M 129.196907 563.890486 
L 144.311216 568.632366 
L 149.773679 577.634953 
L 151.702511 578.277163 
" clip-path="url(#p2c4d91f856)" style="fill: none; stroke: #4d59c1; stroke-width: 0.2"/>
    <path d="M 238.327056 553.355131 
L 237.029641 559.414415 
L 234.178658 579.555763 
" clip-path="url(#p2c4d91f856)" style="fill: none; stroke: #4d59c1; stroke-width: 0.2"/>
    <path d="M 264.703132 565.535786 
L 264.171615 565.159385 
L 263.085526 565.341765 
" clip-path="url(#p2c4d91f856)" style="fill: none; stroke: #4d59c1; stroke-width: 0.2"/>
    <path d="M 220.701167 556.692297 
L 237.029641 559.414415 
L 249.540154 561.727149 
L 260.381831 564.29017 
L 263.085526 565.341765 
" clip-path="url(#p2c4d91f856)" style="fill: none; stroke: #4d59c1; stroke-width: 0.2"/>
    <path d="M 219.355083 523.448692 
L 228.224381 529.45365 
L 229.257959 530.210333 
L 231.072803 531.795487 
" clip-path="url(#p2c4d91f856)" style="fill: none; stroke: #4d59c1; stroke-width: 0.2"/>
    <path d="M 241.370154 509.997197 
L 251.330664 513.3072 
L 255.981122 514.418942 
L 261.065759 515.352185 
L 276.374744 519.519761 
L 293.462712 524.383875 
" clip-path="url(#p2c4d91f856)" style="fill: none; stroke: #4d59c1; stroke-width: 0.2"/>
    <path d="M 261.065759 515.352185 
L 263.669555 508.062805 
" clip-path="url(#p2c4d91f856)" style="fill: none; stroke: #4d59c1; stroke-width: 0.2"/>
    <path d="M 276.374744 519.519761 
L 287.271493 485.597082 
" clip-path="url(#p2c4d91f856)" style="fill: none; stroke: #4d59c1; stroke-width: 0.2"/>
    <path d="M 259.245792 464.373096 
L 309.666951 476.970897 
" clip-path="url(#p2c4d91f856)" style="fill: none; stroke: #4d59c1; stroke-width: 0.2"/>
    <path d="M 181.024346 661.834363 
L 178.68695 659.808781 
L 176.901564 658.122736 
L 175.565726 656.194165 
L 174.840813 654.41305 
L 174.153042 652.214789 
L 174.118461 649.292828 
L 174.462987 646.646378 
L 175.458141 644.172607 
L 181.194688 635.274792 
L 187.104138 627.746766 
L 204.795346 606.548002 
L 206.959839 603.800661 
L 208.815668 600.77587 
L 212.181518 591.635527 
L 214.928759 582.772636 
L 217.437778 570.642426 
L 220.701167 556.692297 
L 224.952027 544.373886 
L 231.072803 531.795487 
L 241.370154 509.997197 
L 250.307333 490.086735 
L 259.245792 464.373096 
L 266.648614 440.597729 
L 270.864893 427.384881 
L 272.730968 420.788158 
L 277.17138 404.709615 
L 280.306693 391.919733 
L 283.440725 379.141492 
L 293.584384 337.770336 
L 295.508094 329.437123 
L 303.525683 296.03054 
L 307.793192 278.248491 
" clip-path="url(#p2c4d91f856)" style="fill: none; stroke: #4d59c1; stroke-width: 0.2"/>
    <path d="M 206.767724 554.195243 
L 219.355083 523.448692 
L 219.373014 522.292325 
L 218.330471 520.687769 
L 204.463628 510.026301 
L 192.09656 506.935542 
L 185.672243 505.887827 
L 173.031092 497.744754 
" clip-path="url(#p2c4d91f856)" style="fill: none; stroke: #4d59c1; stroke-width: 0.2"/>
    <path d="M 197.752731 482.368916 
L 201.154131 483.788804 
L 202.195393 484.982035 
L 203.145721 487.019258 
L 205.490801 506.710477 
L 204.463628 510.026301 
" clip-path="url(#p2c4d91f856)" style="fill: none; stroke: #4d59c1; stroke-width: 0.2"/>
    <path d="M 173.031092 497.744754 
L 165.501894 490.891862 
" clip-path="url(#p2c4d91f856)" style="fill: none; stroke: #4d59c1; stroke-width: 0.2"/>
    <path d="M 209.495712 782.599663 
L 204.619881 783.322722 
L 203.935953 783.107358 
" clip-path="url(#p2c4d91f856)" style="fill: none; stroke: #4d59c1; stroke-width: 0.2"/>
    <path d="M 234.528307 710.902343 
L 239.669298 712.058709 
L 247.799137 717.837252 
" clip-path="url(#p2c4d91f856)" style="fill: none; stroke: #4d59c1; stroke-width: 0.2"/>
    <path d="M 194.633756 672.144654 
L 199.230422 675.237353 
L 205.534347 677.784852 
L 242.700869 690.014013 
L 260.525276 695.640629 
L 266.904767 698.467519 
L 284.90464 710.24267 
L 297.061662 719.608077 
L 314.326375 733.090615 
L 326.123502 743.268971 
L 335.816332 751.970825 
L 338.771057 753.105849 
" clip-path="url(#p2c4d91f856)" style="fill: none; stroke: #4d59c1; stroke-width: 0.2"/>
    <path d="M 242.700869 690.014013 
L 240.979521 693.192081 
L 238.361637 696.519546 
L 236.29064 700.229233 
L 235.199428 704.156223 
" clip-path="url(#p2c4d91f856)" style="fill: none; stroke: #4d59c1; stroke-width: 0.2"/>
    <path d="M 326.123502 743.268971 
L 345.150548 713.461483 
L 348.930085 707.539954 
" clip-path="url(#p2c4d91f856)" style="fill: none; stroke: #4d59c1; stroke-width: 0.2"/>
    <path d="M 344.375685 709.553895 
L 342.782413 705.673469 
L 339.766211 699.83731 
" clip-path="url(#p2c4d91f856)" style="fill: none; stroke: #4d59c1; stroke-width: 0.2"/>
    <path d="M 297.061662 719.608077 
L 305.282893 709.674188 
L 316.772636 689.43971 
L 318.674572 686.090903 
" clip-path="url(#p2c4d91f856)" style="fill: none; stroke: #4d59c1; stroke-width: 0.2"/>
    <path d="M 318.674572 686.090903 
L 321.16566 687.730382 
L 322.000719 688.281403 
L 333.500708 697.774863 
L 336.271003 701.793044 
L 342.298284 706.851178 
L 344.375685 709.553895 
L 345.13774 711.771558 
L 345.150548 713.461483 
" clip-path="url(#p2c4d91f856)" style="fill: none; stroke: #4d59c1; stroke-width: 0.2"/>
    <path d="M 316.772636 689.43971 
L 318.814175 688.143648 
L 321.16566 687.730382 
L 327.611751 687.381144 
L 329.690432 687.588747 
L 330.976321 687.959327 
" clip-path="url(#p2c4d91f856)" style="fill: none; stroke: #4d59c1; stroke-width: 0.2"/>
    <path d="M 367.118574 728.050743 
L 364.363304 725.968094 
L 363.127366 717.033415 
L 355.43253 709.885671 
L 348.930085 707.539954 
L 339.766211 699.83731 
L 330.976321 687.959327 
L 325.613757 677.996335 
L 323.82709 662.740443 
L 321.8355 658.539882 
L 321.357775 654.358724 
L 320.334444 652.598951 
L 317.510357 651.116628 
L 315.449606 648.097657 
L 315.23956 646.070135 
L 315.376602 643.142354 
L 318.650238 640.018612 
L 323.002277 633.189063 
L 312.421877 618.070926 
L 309.332672 614.716298 
L 307.612604 612.847873 
L 300.801496 609.574734 
" clip-path="url(#p2c4d91f856)" style="fill: none; stroke: #4d59c1; stroke-width: 0.2"/>
    <path d="M 290.034104 661.244539 
L 291.432699 660.668295 
L 293.42557 660.392785 
L 297.479191 662.317476 
L 318.778314 684.377695 
L 318.674572 686.090903 
" clip-path="url(#p2c4d91f856)" style="fill: none; stroke: #4d59c1; stroke-width: 0.2"/>
    <path d="M 318.778314 684.377695 
L 319.161263 667.424116 
L 320.754535 662.505677 
L 321.8355 658.539882 
" clip-path="url(#p2c4d91f856)" style="fill: none; stroke: #4d59c1; stroke-width: 0.2"/>
    <path d="M 338.771057 753.105849 
L 340.598709 753.167936 
L 344.3014 752.211411 
L 344.990992 752.092478 
" clip-path="url(#p2c4d91f856)" style="fill: none; stroke: #4d59c1; stroke-width: 0.2"/>
    <path d="M 339.646073 612.751297 
L 333.864446 611.287942 
L 327.283875 609.984119 
L 324.616041 610.226646 
L 321.644666 611.743892 
L 319.037029 613.926631 
L 317.278538 615.321644 
L 309.332672 614.716298 
" clip-path="url(#p2c4d91f856)" style="fill: none; stroke: #4d59c1; stroke-width: 0.2"/>
    <path d="M 388.859217 511.650259 
L 393.709474 510.220322 
L 396.807645 508.774863 
L 402.590299 507.329405 
L 406.273953 507.617106 
" clip-path="url(#p2c4d91f856)" style="fill: none; stroke: #4d59c1; stroke-width: 0.2"/>
    <path d="M 393.722282 474.105203 
L 383.526111 465.700201 
" clip-path="url(#p2c4d91f856)" style="fill: none; stroke: #4d59c1; stroke-width: 0.2"/>
    <path d="M 407.773556 457.227292 
L 409.135009 457.246694 
L 410.571532 457.266038 
" clip-path="url(#p2c4d91f856)" style="fill: none; stroke: #4d59c1; stroke-width: 0.2"/>
    <path d="M 415.051549 457.357238 
L 419.545006 458.323892 
" clip-path="url(#p2c4d91f856)" style="fill: none; stroke: #4d59c1; stroke-width: 0.2"/>
    <path d="M 250.487921 671.157085 
L 254.139382 668.611526 
L 264.149842 655.870149 
L 271.238876 647.901696 
L 274.950533 640.429937 
L 276.382429 637.54484 
L 278.30998 628.140629 
L 277.80792 623.043691 
L 278.859428 621.151983 
L 281.484997 620.082926 
L 287.85168 620.127551 
L 292.644303 620.160535 
L 294.068514 619.39027 
L 295.474794 617.92735 
L 300.801496 609.574734 
L 308.816523 597.793763 
L 311.848094 593.824087 
L 324.680079 580.227077 
L 350.086616 551.544912 
L 356.808071 543.083645 
L 363.775433 536.312302 
L 373.54639 526.399756 
L 382.710264 516.86555 
L 388.859217 511.650259 
L 389.447088 511.151624 
L 417.02196 474.918152 
L 423.6179 468.655145 
L 423.678864 468.564235 
" clip-path="url(#p2c4d91f856)" style="fill: none; stroke: #4d59c1; stroke-width: 0.2"/>
    <path d="M 237.138506 667.024432 
L 243.140171 656.172823 
L 257.674293 631.200345 
L 264.993866 618.346436 
L 267.700122 614.865694 
L 285.59113 597.671529 
L 294.031371 588.030612 
L 319.120278 561.112101 
L 346.873177 532.701567 
L 372.406509 502.554542 
L 393.722282 474.105203 
L 407.773556 457.227292 
" clip-path="url(#p2c4d91f856)" style="fill: none; stroke: #4d59c1; stroke-width: 0.2"/>
    <path d="M 290.565621 530.45286 
L 300.969276 535.421745 
L 302.288464 535.530397 
L 303.593563 535.0143 
L 304.620737 533.960765 
" clip-path="url(#p2c4d91f856)" style="fill: none; stroke: #4d59c1; stroke-width: 0.2"/>
    <path d="M 290.565621 530.45286 
L 293.462712 524.383875 
L 307.551127 486.699123 
L 309.433852 481.041463 
L 309.829609 479.661972 
L 309.666951 476.970897 
L 319.120278 453.335226 
" clip-path="url(#p2c4d91f856)" style="fill: none; stroke: #4d59c1; stroke-width: 0.2"/>
    <path d="M 307.551127 486.699123 
L 323.035577 490.874461 
L 335.49614 494.384306 
" clip-path="url(#p2c4d91f856)" style="fill: none; stroke: #4d59c1; stroke-width: 0.2"/>
    <path d="M 341.920458 422.2666 
L 338.317666 436.744467 
L 334.331925 456.755821 
L 330.939178 480.765953 
L 330.261654 481.829189 
L 329.650729 482.174547 
L 327.297963 481.968885 
L 326.337389 482.267677 
L 325.613757 482.981676 
L 323.035577 490.874461 
L 319.361062 502.696177 
L 304.620737 533.960765 
" clip-path="url(#p2c4d91f856)" style="fill: none; stroke: #4d59c1; stroke-width: 0.2"/>
    <path d="M 266.648614 440.597729 
L 319.120278 453.335226 
L 334.331925 456.755821 
" clip-path="url(#p2c4d91f856)" style="fill: none; stroke: #4d59c1; stroke-width: 0.2"/>
    <path d="M 272.730968 420.788158 
L 338.317666 436.744467 
" clip-path="url(#p2c4d91f856)" style="fill: none; stroke: #4d59c1; stroke-width: 0.2"/>
    <path d="M 277.17138 404.709615 
L 334.511232 417.829333 
L 337.159854 418.570494 
L 339.807196 418.386174 
L 340.396348 418.970178 
L 340.35024 419.686117 
L 341.090522 421.459471 
L 341.920458 422.2666 
" clip-path="url(#p2c4d91f856)" style="fill: none; stroke: #4d59c1; stroke-width: 0.2"/>
    <path d="M 280.306693 391.919733 
L 322.221011 402.101969 
" clip-path="url(#p2c4d91f856)" style="fill: none; stroke: #4d59c1; stroke-width: 0.2"/>
    <path d="M 399.468979 450.26266 
L 400.530829 451.084579 
L 407.773556 457.227292 
" clip-path="url(#p2c4d91f856)" style="fill: none; stroke: #4d59c1; stroke-width: 0.2"/>
    <path d="M 391.487347 445.242598 
L 393.179023 446.238004 
" clip-path="url(#p2c4d91f856)" style="fill: none; stroke: #4d59c1; stroke-width: 0.2"/>
    <path d="M 341.920458 422.2666 
L 362.905794 430.815177 
L 374.112488 442.180943 
L 385.635531 442.021845 
L 391.487347 445.242598 
" clip-path="url(#p2c4d91f856)" style="fill: none; stroke: #4d59c1; stroke-width: 0.2"/>
    <path d="M 409.135009 457.246694 
L 409.529634 456.60882 
" clip-path="url(#p2c4d91f856)" style="fill: none; stroke: #4d59c1; stroke-width: 0.2"/>
    <path d="M 326.014637 386.935326 
L 332.930768 387.080842 
L 335.493579 389.222837 
" clip-path="url(#p2c4d91f856)" style="fill: none; stroke: #4d59c1; stroke-width: 0.2"/>
    <path d="M 283.440725 379.141492 
L 299.172362 382.567907 
L 315.503398 386.126258 
L 326.014637 386.935326 
" clip-path="url(#p2c4d91f856)" style="fill: none; stroke: #4d59c1; stroke-width: 0.2"/>
    <path d="M 331.217104 344.392282 
L 333.229186 347.904067 
L 334.8929 351.926128 
L 334.8929 368.887468 
L 336.326076 372.538948 
L 338.728792 375.680152 
L 335.493579 389.222837 
L 336.464399 395.138546 
L 336.464399 397.402774 
L 334.662362 404.474849 
L 334.846793 406.785642 
L 337.296896 413.997413 
L 339.807196 418.386174 
" clip-path="url(#p2c4d91f856)" style="fill: none; stroke: #4d59c1; stroke-width: 0.2"/>
    <path d="M 299.172362 382.567907 
L 307.913584 340.663193 
" clip-path="url(#p2c4d91f856)" style="fill: none; stroke: #4d59c1; stroke-width: 0.2"/>
    <path d="M 293.584384 337.770336 
L 307.913584 340.663193 
L 318.422261 342.356999 
L 325.773853 343.526947 
L 331.217104 344.392282 
L 339.227009 345.665062 
" clip-path="url(#p2c4d91f856)" style="fill: none; stroke: #4d59c1; stroke-width: 0.2"/>
    <path d="M 325.773853 343.526947 
L 336.260757 301.121659 
" clip-path="url(#p2c4d91f856)" style="fill: none; stroke: #4d59c1; stroke-width: 0.2"/>
    <path d="M 318.422261 342.356999 
L 323.964132 322.269977 
L 330.744502 293.890486 
L 329.43556 292.786505 
L 327.262102 292.169517 
" clip-path="url(#p2c4d91f856)" style="fill: none; stroke: #4d59c1; stroke-width: 0.2"/>
    <path d="M 327.262102 292.169517 
L 323.578622 291.459399 
L 322.205641 292.431446 
L 318.506792 309.460693 
L 318.248077 310.653924 
L 316.373037 315.964286 
L 315.228033 322.421314 
L 308.666674 330.96019 
L 301.690347 329.710693 
L 295.508094 329.437123 
" clip-path="url(#p2c4d91f856)" style="fill: none; stroke: #4d59c1; stroke-width: 0.2"/>
    <path d="M 318.506792 309.460693 
L 318.058524 306.889911 
L 315.923489 302.920236 
L 313.267182 299.757689 
L 315.564874 287.870006 
" clip-path="url(#p2c4d91f856)" style="fill: none; stroke: #4d59c1; stroke-width: 0.2"/>
    <path d="M 306.231939 296.073225 
L 306.585431 299.753809 
L 311.540711 300.667649 
L 313.267182 299.757689 
" clip-path="url(#p2c4d91f856)" style="fill: none; stroke: #4d59c1; stroke-width: 0.2"/>
    <path d="M 400.530829 451.084579 
L 400.632571 450.996642 
" clip-path="url(#p2c4d91f856)" style="fill: none; stroke: #4d59c1; stroke-width: 0.2"/>
    <path d="M 357.413873 300.347514 
L 360.00358 294.272708 
L 361.596852 289.81992 
L 364.978072 278.087453 
" clip-path="url(#p2c4d91f856)" style="fill: none; stroke: #4d59c1; stroke-width: 0.2"/>
    <path d="M 349.024862 199.132437 
L 361.119126 201.156079 
L 364.443993 202.71407 
L 369.983301 207.906079 
L 378.570831 210.884306 
L 380.924877 213.618066 
L 393.459725 226.739724 
L 397.891172 242.352616 
L 405.578324 269.459327 
" clip-path="url(#p2c4d91f856)" style="fill: none; stroke: #4d59c1; stroke-width: 0.2"/>
    <path d="M 344.230958 224.458034 
L 349.024862 199.132437 
L 356.247096 165.980023 
L 358.22844 163.221041 
L 359.861415 155.760923 
L 359.977965 152.885527 
L 360.094514 150.010132 
" clip-path="url(#p2c4d91f856)" style="fill: none; stroke: #4d59c1; stroke-width: 0.2"/>
    <path d="M 338.788987 283.424978 
L 345.577042 285.743533 
L 349.237469 287.835082 
L 352.047467 290.481532 
L 354.858747 294.010779 
L 357.413873 300.347514 
L 358.060659 301.95207 
" clip-path="url(#p2c4d91f856)" style="fill: none; stroke: #4d59c1; stroke-width: 0.2"/>
    <path d="M 336.260757 301.121659 
L 339.22829 286.282912 
L 338.788987 283.424978 
L 329.275465 280.184823 
L 328.642767 279.96946 
L 324.795348 277.831345 
L 320.481732 276.975711 
L 317.79981 276.122018 
L 314.846365 274.144941 
" clip-path="url(#p2c4d91f856)" style="fill: none; stroke: #4d59c1; stroke-width: 0.2"/>
    <path d="M 303.525683 296.03054 
L 306.231939 296.073225 
L 307.825211 293.857502 
L 316.180922 257.290313 
" clip-path="url(#p2c4d91f856)" style="fill: none; stroke: #4d59c1; stroke-width: 0.2"/>
    <path d="M 313.031521 256.426919 
L 316.180922 257.290313 
L 318.952498 257.62403 
" clip-path="url(#p2c4d91f856)" style="fill: none; stroke: #4d59c1; stroke-width: 0.2"/>
    <path d="M 329.275465 280.184823 
L 331.254247 278.921745 
L 344.230958 224.458034 
" clip-path="url(#p2c4d91f856)" style="fill: none; stroke: #4d59c1; stroke-width: 0.2"/>
    <path d="M 335.409048 197.78593 
L 333.814496 198.33889 
L 331.272177 201.759485 
L 329.682748 208.330986 
L 324.947759 234.265809 
L 322.484848 243.860161 
L 318.952498 257.62403 
L 317.866409 261.857574 
L 314.846365 274.144941 
" clip-path="url(#p2c4d91f856)" style="fill: none; stroke: #4d59c1; stroke-width: 0.2"/>
    <path d="M 318.742453 232.63215 
L 324.947759 234.265809 
" clip-path="url(#p2c4d91f856)" style="fill: none; stroke: #4d59c1; stroke-width: 0.2"/>
    <path d="M 335.409048 197.78593 
L 340.816439 197.993533 
L 345.183847 198.177853 
L 349.024862 199.132437 
" clip-path="url(#p2c4d91f856)" style="fill: none; stroke: #4d59c1; stroke-width: 0.2"/>
    <path d="M 336.591195 151.81259 
L 339.27952 157.241305 
L 341.766766 161.709615 
L 341.728343 163.845789 
" clip-path="url(#p2c4d91f856)" style="fill: none; stroke: #4d59c1; stroke-width: 0.2"/>
    <path d="M 378.570831 210.884306 
L 376.285946 207.110592 
L 377.428389 192.085585 
L 374.623513 187.031331 
L 375.523891 180.316255 
L 374.588933 174.396666 
L 373.962639 170.244611 
L 375.796694 164.152343 
L 376.385846 154.701567 
L 372.168287 149.691937 
" clip-path="url(#p2c4d91f856)" style="fill: none; stroke: #4d59c1; stroke-width: 0.2"/>
    <path d="M 376.700914 149.796709 
L 374.11633 150.039235 
L 372.168287 149.691937 
L 363.013378 148.060218 
L 360.094514 150.010132 
L 357.736626 148.995401 
L 353.613843 147.400546 
L 351.41605 145.642713 
L 346.139298 143.828615 
L 344.325735 141.68662 
L 344.82011 134.926919 
L 344.875183 127.398893 
L 342.47631 125.251078 
" clip-path="url(#p2c4d91f856)" style="fill: none; stroke: #4d59c1; stroke-width: 0.2"/>
    <path d="M 345.95871 111.888833 
L 366.504744 116.811153 
L 371.846815 118.88136 
L 386.117099 121.240658 
L 390.55495 122.591046 
L 390.928933 124.550661 
L 376.700914 149.796709 
" clip-path="url(#p2c4d91f856)" style="fill: none; stroke: #4d59c1; stroke-width: 0.2"/>
    <path d="M 366.504744 116.811153 
L 368.104419 111.700632 
L 372.298925 105.210621 
" clip-path="url(#p2c4d91f856)" style="fill: none; stroke: #4d59c1; stroke-width: 0.2"/>
    <path d="M 368.824529 79.173815 
L 368.610321 80.928859 
L 367.899497 82.323872 
L 365.978349 83.482179 
L 363.4514 84.21946 
L 353.841601 84.747307 
" clip-path="url(#p2c4d91f856)" style="fill: none; stroke: #4d59c1; stroke-width: 0.2"/>
    <path d="M 455.035067 63.779319 
L 446.637091 52.927709 
L 443.80805 51.28073 
" clip-path="url(#p2c4d91f856)" style="fill: none; stroke: #4d59c1; stroke-width: 0.2"/>
    <path d="M 336.910436 143.498948 
L 338.353527 143.832495 
" clip-path="url(#p2c4d91f856)" style="fill: none; stroke: #4d59c1; stroke-width: 0.2"/>
    <path d="M 307.793192 278.248491 
L 313.031521 256.426919 
L 318.742453 232.63215 
L 336.591195 151.81259 
L 338.353527 143.832495 
L 338.394512 143.655936 
L 342.47631 125.251078 
L 345.95871 111.888833 
L 351.976532 85.441094 
" clip-path="url(#p2c4d91f856)" style="fill: none; stroke: #4d59c1; stroke-width: 0.2"/>
   </g>
   <g id="LineCollection_2">
    <path d="M 321.540205 186.790754 
L 274.742492 391.487657 
" clip-path="url(#p2c4d91f856)" style="fill: none; stroke-dasharray: 3.7,1.6; stroke-dashoffset: 0; stroke: #4d59c1"/>
    <path d="M 267.269251 424.176208 
L 263.52739 440.543403 
L 260.239666 452.37288 
L 256.621505 464.163553 
L 252.908567 475.339178 
L 248.658988 486.902846 
L 243.863804 498.511138 
L 228.224381 529.45365 
L 226.722044 532.72873 
L 225.940777 534.2809 
L 224.401298 537.175697 
L 213.37263 557.095861 
L 196.990364 585.991449 
L 120.377559 722.712417 
L 115.479913 731.641276 
L 110.674483 740.329549 
L 106.796462 747.983758 
" clip-path="url(#p2c4d91f856)" style="fill: none; stroke-dasharray: 3.7,1.6; stroke-dashoffset: 0; stroke: #4d59c1"/>
    <path d="M 107.049649 749.220699 
L 111.367377 740.698189 
L 116.166403 732.019618 
L 121.064049 723.092699 
L 197.674292 586.375611 
L 214.05912 557.524648 
L 228.353739 531.917721 
L 229.257959 530.210333 
L 234.23245 520.823584 
L 239.456691 510.043763 
L 240.900113 507.10434 
L 244.583594 498.823513 
L 249.390305 487.188057 
L 253.65013 475.597226 
L 257.369471 464.404139 
L 260.992756 452.594064 
L 264.288164 440.737425 
L 326.358468 168.851654 
" clip-path="url(#p2c4d91f856)" style="fill: none; stroke-dasharray: 3.7,1.6; stroke-dashoffset: 0; stroke: #4d59c1"/>
   </g>
  </g>
 </g>
 <defs>
  <clipPath id="p2c4d91f856">
   <rect x="7.2" y="7.2" width="525.699372" height="831.6"/>
  </clipPath>
 </defs>
</svg>
