<?xml version="1.0" encoding="utf-8" standalone="no"?>
<!DOCTYPE svg PUBLIC "-//W3C//DTD SVG 1.1//EN"
  "http://www.w3.org/Graphics/SVG/1.1/DTD/svg11.dtd">
<svg xmlns:xlink="http://www.w3.org/1999/xlink" width="487.69347pt" height="846pt" viewBox="0 0 487.69347 846" xmlns="http://www.w3.org/2000/svg" version="1.1">
 <metadata>
  <rdf:RDF xmlns:dc="http://purl.org/dc/elements/1.1/" xmlns:cc="http://creativecommons.org/ns#" xmlns:rdf="http://www.w3.org/1999/02/22-rdf-syntax-ns#">
   <cc:Work>
    <dc:type rdf:resource="http://purl.org/dc/dcmitype/StillImage"/>
    <dc:date>2025-03-16T14:38:40.171767</dc:date>
    <dc:format>image/svg+xml</dc:format>
    <dc:creator>
     <cc:Agent>
      <dc:title>Matplotlib v3.10.1, https://matplotlib.org/</dc:title>
     </cc:Agent>
    </dc:creator>
   </cc:Work>
  </rdf:RDF>
 </metadata>
 <defs>
  <style type="text/css">*{stroke-linejoin: round; stroke-linecap: butt}</style>
 </defs>
 <g id="figure_1">
  <g id="patch_1">
   <path d="M 0 846 
L 487.69347 846 
L 487.69347 0 
L 0 0 
z
" style="fill: #ffffff"/>
  </g>
  <g id="axes_1">
   <g id="PatchCollection_1">
    <path d="M 163.190544 647.893474 
L 177.972934 737.933159 
L 187.296119 793.002966 
L 238.731193 801 
L 242.677891 663.568495 
L 261.917054 638.745487 
L 285.902495 578.597772 
L 300.757753 562.487416 
L 305.411468 538.857105 
L 318.297316 489.45261 
L 344.60863 494.822728 
L 363.044275 454.011615 
L 377.361883 437.185641 
L 416.023366 428.234449 
L 421.620428 422.494595 
L 433.685032 369.84 
L 458.980131 285.146579 
L 418.985358 271.224822 
L 357.563407 283.974754 
L 340.250326 277.933743 
L 436.479625 88.518535 
L 324.914533 45 
L 291.320341 56.196444 
L 272.303721 66.760759 
L 263.640288 59.366037 
L 200.609329 66.304552 
L 128.186256 194.093101 
L 101.760716 244.234087 
L 51.168549 300.869308 
L 54.106909 328.900672 
L 28.71334 344.402752 
L 40.126069 365.361422 
L 43.162899 561.583948 
L 163.190544 647.893474 
" clip-path="url(#pebae5cbb11)" style="fill: #fbd6c9"/>
   </g>
   <g id="PatchCollection_2">
    <path d="M 102.536663 552.862351 
L 108.781662 553.643567 
L 108.403535 556.661091 
L 102.160506 555.879874 
L 102.536663 552.862351 
" clip-path="url(#pebae5cbb11)" style="fill: #e6482f"/>
    <path d="M 126.03763 546.362152 
L 123.808258 561.396098 
L 120.682805 560.930947 
L 122.910207 545.899981 
L 126.03763 546.362152 
" clip-path="url(#pebae5cbb11)" style="fill: #e6482f"/>
    <path d="M 121.484354 545.953653 
L 120.651294 550.885455 
L 85.207827 546.213064 
L 86.019224 540.392703 
L 121.484354 545.953653 
" clip-path="url(#pebae5cbb11)" style="fill: #e6482f"/>
    <path d="M 131.528344 543.317792 
L 132.690296 535.657695 
L 134.961025 536.081103 
L 133.852248 543.636839 
L 131.528344 543.317792 
" clip-path="url(#pebae5cbb11)" style="fill: #e6482f"/>
    <path d="M 113.921821 536.638689 
L 112.795319 543.618948 
L 88.144217 539.525015 
L 89.028482 532.965181 
L 113.921821 536.638689 
" clip-path="url(#pebae5cbb11)" style="fill: #e6482f"/>
    <path d="M 113.921821 536.638689 
L 116.176795 525.737437 
L 128.727843 527.535428 
L 126.03763 546.362152 
L 122.910207 545.899981 
L 112.795319 543.618948 
L 113.921821 536.638689 
" clip-path="url(#pebae5cbb11)" style="fill: #e6482f"/>
    <path d="M 115.221631 521.029265 
L 114.555971 525.591332 
L 109.799846 524.896586 
L 110.467476 520.334519 
L 115.221631 521.029265 
" clip-path="url(#pebae5cbb11)" style="fill: #e6482f"/>
    <path d="M 76.703916 508.007995 
L 76.016592 512.865254 
L 70.628287 512.060183 
L 71.41802 507.196961 
L 76.703916 508.007995 
" clip-path="url(#pebae5cbb11)" style="fill: #e6482f"/>
    <path d="M 72.375153 500.980027 
L 77.65908 501.794043 
L 76.703916 508.007995 
L 71.41802 507.196961 
L 72.375153 500.980027 
" clip-path="url(#pebae5cbb11)" style="fill: #e6482f"/>
    <path d="M 144.101056 501.373617 
L 146.214232 501.794043 
L 145.473734 506.075825 
L 143.466906 505.756779 
L 144.101056 501.373617 
" clip-path="url(#pebae5cbb11)" style="fill: #e6482f"/>
    <path d="M 138.659577 502.005747 
L 142.622029 502.482825 
L 142.358128 504.435867 
L 138.500054 503.96177 
L 138.659577 502.005747 
" clip-path="url(#pebae5cbb11)" style="fill: #e6482f"/>
    <path d="M 118.272247 498.087737 
L 117.59477 502.706456 
L 105.58334 500.941264 
L 106.260817 496.322545 
L 118.272247 498.087737 
" clip-path="url(#pebae5cbb11)" style="fill: #e6482f"/>
    <path d="M 106.260817 496.322545 
L 105.58334 500.941264 
L 92.910189 499.34305 
L 93.528583 494.557353 
L 106.260817 496.322545 
" clip-path="url(#pebae5cbb11)" style="fill: #e6482f"/>
    <path d="M 130.972971 466.645259 
L 134.77787 467.032886 
L 133.582438 478.858478 
L 129.7736 478.473833 
L 130.972971 466.645259 
" clip-path="url(#pebae5cbb11)" style="fill: #e6482f"/>
    <path d="M 153.302138 435.175946 
L 152.088982 441.932576 
L 148.995039 441.377971 
L 150.208195 434.621342 
L 153.302138 435.175946 
" clip-path="url(#pebae5cbb11)" style="fill: #e6482f"/>
    <path d="M 122.242577 414.944822 
L 121.029421 421.701451 
L 117.933509 421.143865 
L 119.148634 414.387236 
L 122.242577 414.944822 
" clip-path="url(#pebae5cbb11)" style="fill: #e6482f"/>
    <path d="M 146.619931 383.558998 
L 146.267406 386.484088 
L 148.307715 386.731572 
L 150.247584 386.964148 
L 149.973836 389.239218 
L 149.75917 391.019318 
L 151.933398 391.281712 
L 151.673436 393.449439 
L 148.69175 393.091629 
L 148.914293 391.22804 
L 146.371785 390.923902 
L 146.133487 392.894834 
L 142.820939 392.495281 
L 143.21876 389.188528 
L 145.249222 389.433031 
L 145.536755 387.056582 
L 143.470845 386.809097 
L 143.902145 383.231006 
L 146.619931 383.558998 
" clip-path="url(#pebae5cbb11)" style="fill: #e6482f"/>
    <path d="M 141.377362 348.132912 
L 144.605225 348.571229 
L 141.363576 372.419207 
L 138.135714 371.980891 
L 141.377362 348.132912 
" clip-path="url(#pebae5cbb11)" style="fill: #e6482f"/>
    <path d="M 147.104406 336.092635 
L 146.298917 341.280868 
L 142.811092 340.744154 
L 143.705204 335.555921 
L 147.104406 336.092635 
" clip-path="url(#pebae5cbb11)" style="fill: #e6482f"/>
    <path d="M 148.813853 326.261829 
L 147.919741 332.168662 
L 144.077423 331.587222 
L 144.971535 325.68039 
L 148.813853 326.261829 
" clip-path="url(#pebae5cbb11)" style="fill: #e6482f"/>
    <path d="M 174.327556 458.048895 
L 173.1144 464.805524 
L 170.018488 464.25092 
L 171.231644 457.494291 
L 174.327556 458.048895 
" clip-path="url(#pebae5cbb11)" style="fill: #e6482f"/>
    <path d="M 158.426542 456.519261 
L 157.213386 463.27589 
L 154.117474 462.718304 
L 155.332599 455.961675 
L 158.426542 456.519261 
" clip-path="url(#pebae5cbb11)" style="fill: #e6482f"/>
    <path d="M 176.281211 445.424196 
L 175.068054 452.180825 
L 171.972142 451.626221 
L 173.187268 444.869592 
L 176.281211 445.424196 
" clip-path="url(#pebae5cbb11)" style="fill: #e6482f"/>
    <path d="M 160.539719 442.728701 
L 159.326562 449.488312 
L 156.23065 448.930726 
L 157.445776 442.174097 
L 160.539719 442.728701 
" clip-path="url(#pebae5cbb11)" style="fill: #e6482f"/>
    <path d="M 162.282646 429.999641 
L 161.06949 436.75627 
L 157.973578 436.198684 
L 159.188704 429.442055 
L 162.282646 429.999641 
" clip-path="url(#pebae5cbb11)" style="fill: #e6482f"/>
    <path d="M 154.517264 423.025345 
L 153.304107 429.781974 
L 150.210165 429.22737 
L 151.423321 422.470741 
L 154.517264 423.025345 
" clip-path="url(#pebae5cbb11)" style="fill: #e6482f"/>
    <path d="M 164.60655 417.213928 
L 163.393394 423.970557 
L 160.299451 423.415953 
L 161.512607 416.659324 
L 164.60655 417.213928 
" clip-path="url(#pebae5cbb11)" style="fill: #e6482f"/>
    <path d="M 157.079466 389.090131 
L 152.534068 388.511673 
L 152.402118 389.549319 
L 149.973836 389.239218 
L 150.247584 386.964148 
L 148.307715 386.731572 
L 148.565708 384.703987 
L 151.222441 385.040924 
L 150.942785 387.247414 
L 152.723132 387.474026 
L 152.977185 385.467313 
L 157.46744 386.039808 
L 157.079466 389.090131 
" clip-path="url(#pebae5cbb11)" style="fill: #e6482f"/>
    <path d="M 176.308783 334.45864 
L 175.733715 336.259613 
L 173.141972 335.43367 
L 173.717039 333.632697 
L 176.308783 334.45864 
" clip-path="url(#pebae5cbb11)" style="fill: #e6482f"/>
    <path d="M 176.515571 328.140327 
L 175.952319 330.257365 
L 173.220748 329.532801 
L 173.78203 327.415764 
L 176.515571 328.140327 
" clip-path="url(#pebae5cbb11)" style="fill: #e6482f"/>
    <path d="M 146.432837 316.815668 
L 149.940356 317.307656 
L 149.178194 322.743373 
L 145.672645 322.251385 
L 146.432837 316.815668 
" clip-path="url(#pebae5cbb11)" style="fill: #e6482f"/>
    <path d="M 151.614354 308.541332 
L 150.891581 313.649058 
L 147.45693 313.163033 
L 148.179703 308.055308 
L 151.614354 308.541332 
" clip-path="url(#pebae5cbb11)" style="fill: #e6482f"/>
    <path d="M 149.908845 295.645295 
L 149.221521 297.338925 
L 147.005935 296.438438 
L 147.693259 294.74779 
L 149.908845 295.645295 
" clip-path="url(#pebae5cbb11)" style="fill: #e6482f"/>
    <path d="M 152.144125 290.135034 
L 151.578905 291.846555 
L 149.29045 291.092174 
L 149.855671 289.380653 
L 152.144125 290.135034 
" clip-path="url(#pebae5cbb11)" style="fill: #e6482f"/>
    <path d="M 161.613047 304.026974 
L 161.392473 305.568535 
L 157.296101 304.97815 
L 158.060232 299.667666 
L 160.97102 300.088092 
L 161.045857 299.560323 
L 162.194023 299.727301 
L 162.034501 300.842472 
L 163.836511 301.101884 
L 163.745918 301.72805 
L 166.698063 302.154439 
L 167.237681 298.397443 
L 170.940172 298.931175 
L 170.371012 302.89093 
L 168.687167 302.649409 
L 168.484318 304.062755 
L 168.70883 304.095554 
L 167.269192 314.111228 
L 163.363852 313.55066 
L 164.669571 304.468272 
L 161.613047 304.026974 
" clip-path="url(#pebae5cbb11)" style="fill: #e6482f"/>
    <path d="M 164.770011 303.76458 
L 167.472041 304.152207 
L 167.737911 302.303526 
L 166.698063 302.154439 
L 167.237681 298.397443 
L 170.940172 298.931175 
L 170.371012 302.89093 
L 168.687167 302.649409 
L 168.484318 304.062755 
L 168.70883 304.095554 
L 167.269192 314.111228 
L 163.363852 313.55066 
L 164.669571 304.468272 
L 164.770011 303.76458 
" clip-path="url(#pebae5cbb11)" style="fill: #e6482f"/>
    <path d="M 172.98245 289.76828 
L 172.415259 292.36836 
L 170.506901 291.953897 
L 171.074091 289.350836 
L 172.98245 289.76828 
" clip-path="url(#pebae5cbb11)" style="fill: #e6482f"/>
    <path d="M 166.47355 285.432826 
L 166.095424 287.162237 
L 164.33871 286.777592 
L 164.714867 285.048181 
L 166.47355 285.432826 
" clip-path="url(#pebae5cbb11)" style="fill: #e6482f"/>
    <path d="M 156.624532 284.049297 
L 155.783594 285.79958 
L 153.510895 284.708263 
L 154.351833 282.95798 
L 156.624532 284.049297 
" clip-path="url(#pebae5cbb11)" style="fill: #e6482f"/>
    <path d="M 158.942528 280.235648 
L 158.190213 281.860698 
L 156.238528 280.95723 
L 156.990842 279.33218 
L 158.942528 280.235648 
" clip-path="url(#pebae5cbb11)" style="fill: #e6482f"/>
    <path d="M 160.941478 276.427963 
L 160.019795 278.044067 
L 157.591512 276.663521 
L 158.511227 275.044434 
L 160.941478 276.427963 
" clip-path="url(#pebae5cbb11)" style="fill: #e6482f"/>
    <path d="M 163.708499 272.566606 
L 162.548517 274.203583 
L 160.364441 272.656058 
L 161.522454 271.019082 
L 163.708499 272.566606 
" clip-path="url(#pebae5cbb11)" style="fill: #e6482f"/>
    <path d="M 166.520816 267.688475 
L 165.585347 269.25389 
L 163.483986 268.001558 
L 164.421425 266.433161 
L 166.520816 267.688475 
" clip-path="url(#pebae5cbb11)" style="fill: #e6482f"/>
    <path d="M 168.819117 264.000059 
L 167.791085 265.535657 
L 165.681848 264.125292 
L 166.70988 262.589695 
L 168.819117 264.000059 
" clip-path="url(#pebae5cbb11)" style="fill: #e6482f"/>
    <path d="M 170.739292 259.983652 
L 169.715199 261.653428 
L 167.336152 260.195355 
L 168.360245 258.525579 
L 170.739292 259.983652 
" clip-path="url(#pebae5cbb11)" style="fill: #e6482f"/>
    <path d="M 174.437843 254.449537 
L 173.48071 255.922518 
L 171.497515 254.634405 
L 172.454648 253.161424 
L 174.437843 254.449537 
" clip-path="url(#pebae5cbb11)" style="fill: #e6482f"/>
    <path d="M 157.177936 185.33274 
L 160.793773 178.173576 
L 163.67305 179.628667 
L 160.057213 186.784849 
L 157.177936 185.33274 
" clip-path="url(#pebae5cbb11)" style="fill: #e6482f"/>
    <path d="M 165.843339 178.048343 
L 166.735482 176.283151 
L 167.852137 176.846701 
L 166.959995 178.611892 
L 165.843339 178.048343 
" clip-path="url(#pebae5cbb11)" style="fill: #e6482f"/>
    <path d="M 178.51846 432.405907 
L 177.305304 439.165518 
L 174.211361 438.607932 
L 175.424518 431.851303 
L 178.51846 432.405907 
" clip-path="url(#pebae5cbb11)" style="fill: #e6482f"/>
    <path d="M 178.205324 322.94315 
L 177.724788 324.803757 
L 175.196066 324.150755 
L 175.678571 322.290148 
L 178.205324 322.94315 
" clip-path="url(#pebae5cbb11)" style="fill: #e6482f"/>
    <path d="M 180.048692 320.173111 
L 179.609513 322.150006 
L 177.590868 321.699763 
L 178.032016 319.722868 
L 180.048692 320.173111 
" clip-path="url(#pebae5cbb11)" style="fill: #e6482f"/>
    <path d="M 180.350011 310.971453 
L 179.999456 312.524941 
L 177.78584 312.02699 
L 178.138364 310.47052 
L 180.350011 310.971453 
" clip-path="url(#pebae5cbb11)" style="fill: #e6482f"/>
    <path d="M 181.738445 305.666932 
L 181.326839 307.697499 
L 179.077773 307.241292 
L 179.491349 305.210726 
L 181.738445 305.666932 
" clip-path="url(#pebae5cbb11)" style="fill: #e6482f"/>
    <path d="M 182.927969 300.22227 
L 182.494699 302.154439 
L 180.375614 301.67736 
L 180.808884 299.745191 
L 182.927969 300.22227 
" clip-path="url(#pebae5cbb11)" style="fill: #e6482f"/>
    <path d="M 195.922134 294.40489 
L 195.459323 296.527891 
L 193.582475 296.119392 
L 194.043317 293.996391 
L 195.922134 294.40489 
" clip-path="url(#pebae5cbb11)" style="fill: #e6482f"/>
    <path d="M 190.118284 293.668399 
L 189.570788 295.958378 
L 187.455642 295.451482 
L 188.003138 293.161503 
L 190.118284 293.668399 
" clip-path="url(#pebae5cbb11)" style="fill: #e6482f"/>
    <path d="M 184.65711 292.705297 
L 184.288831 294.81637 
L 182.55575 294.512233 
L 182.92403 292.404141 
L 184.65711 292.705297 
" clip-path="url(#pebae5cbb11)" style="fill: #e6482f"/>
    <path d="M 181.060968 291.989678 
L 180.793129 293.790651 
L 178.973394 293.519312 
L 179.239264 291.71834 
L 181.060968 291.989678 
" clip-path="url(#pebae5cbb11)" style="fill: #e6482f"/>
    <path d="M 236.834652 311.195083 
L 236.47228 313.631167 
L 234.329563 313.312121 
L 234.691934 310.876037 
L 236.834652 311.195083 
" clip-path="url(#pebae5cbb11)" style="fill: #e6482f"/>
    <path d="M 231.485735 309.540216 
L 231.210018 311.937537 
L 229.327262 311.71987 
L 229.602979 309.322549 
L 231.485735 309.540216 
" clip-path="url(#pebae5cbb11)" style="fill: #e6482f"/>
    <path d="M 227.645386 308.866342 
L 227.351944 311.111594 
L 225.242706 310.837274 
L 225.536148 308.592022 
L 227.645386 308.866342 
" clip-path="url(#pebae5cbb11)" style="fill: #e6482f"/>
    <path d="M 223.830639 308.097053 
L 223.342226 310.157437 
L 221.335397 309.680358 
L 221.823811 307.622955 
L 223.830639 308.097053 
" clip-path="url(#pebae5cbb11)" style="fill: #e6482f"/>
    <path d="M 217.79046 307.20253 
L 217.477324 309.245024 
L 215.090399 308.878269 
L 215.405505 306.835775 
L 217.79046 307.20253 
" clip-path="url(#pebae5cbb11)" style="fill: #e6482f"/>
    <path d="M 254.734617 306.817885 
L 254.319071 309.084009 
L 252.205895 308.696383 
L 252.62341 306.427277 
L 254.734617 306.817885 
" clip-path="url(#pebae5cbb11)" style="fill: #e6482f"/>
    <path d="M 212.309592 306.573382 
L 211.870414 308.636748 
L 209.946301 308.228249 
L 210.385479 306.161902 
L 212.309592 306.573382 
" clip-path="url(#pebae5cbb11)" style="fill: #e6482f"/>
    <path d="M 250.62052 305.863727 
L 250.167556 307.87044 
L 248.306464 307.450014 
L 248.757458 305.443302 
L 250.62052 305.863727 
" clip-path="url(#pebae5cbb11)" style="fill: #e6482f"/>
    <path d="M 246.472943 304.930442 
L 246.069214 307.175694 
L 244.334164 306.862611 
L 244.737893 304.620341 
L 246.472943 304.930442 
" clip-path="url(#pebae5cbb11)" style="fill: #e6482f"/>
    <path d="M 202.712659 304.435472 
L 202.336502 306.531638 
L 200.73931 306.24539 
L 201.115468 304.149225 
L 202.712659 304.435472 
" clip-path="url(#pebae5cbb11)" style="fill: #e6482f"/>
    <path d="M 242.098884 303.854033 
L 241.699094 306.322916 
L 239.897084 306.030705 
L 240.298844 303.561822 
L 242.098884 303.854033 
" clip-path="url(#pebae5cbb11)" style="fill: #e6482f"/>
    <path d="M 198.431162 303.418698 
L 199.841259 303.725818 
L 199.390265 305.798129 
L 197.980167 305.491009 
L 198.431162 303.418698 
" clip-path="url(#pebae5cbb11)" style="fill: #e6482f"/>
    <path d="M 238.288076 303.212958 
L 237.864653 305.383667 
L 235.920846 305.002004 
L 236.344269 302.834277 
L 238.288076 303.212958 
" clip-path="url(#pebae5cbb11)" style="fill: #e6482f"/>
    <path d="M 231.176538 301.671397 
L 230.90082 303.707927 
L 228.957013 303.445534 
L 229.23273 301.409004 
L 231.176538 301.671397 
" clip-path="url(#pebae5cbb11)" style="fill: #e6482f"/>
    <path d="M 228.624183 300.517463 
L 228.163341 302.425778 
L 226.36527 301.993425 
L 226.826112 300.082128 
L 228.624183 300.517463 
" clip-path="url(#pebae5cbb11)" style="fill: #e6482f"/>
    <path d="M 222.72777 299.909187 
L 222.389031 302.109713 
L 220.951362 301.889064 
L 221.288131 299.688538 
L 222.72777 299.909187 
" clip-path="url(#pebae5cbb11)" style="fill: #e6482f"/>
    <path d="M 217.481262 299.107098 
L 217.116922 300.720221 
L 215.263707 300.299795 
L 215.628048 298.689654 
L 217.481262 299.107098 
" clip-path="url(#pebae5cbb11)" style="fill: #e6482f"/>
    <path d="M 211.762097 297.055659 
L 211.474563 299.318802 
L 209.491367 299.068336 
L 209.776932 296.805193 
L 211.762097 297.055659 
" clip-path="url(#pebae5cbb11)" style="fill: #e6482f"/>
    <path d="M 204.526485 296.053794 
L 204.099123 298.296064 
L 202.47436 297.985963 
L 202.901722 295.743692 
L 204.526485 296.053794 
" clip-path="url(#pebae5cbb11)" style="fill: #e6482f"/>
    <path d="M 201.621606 295.856999 
L 201.30847 298.093306 
L 199.520246 297.646044 
L 199.876709 295.499189 
L 201.621606 295.856999 
" clip-path="url(#pebae5cbb11)" style="fill: #e6482f"/>
    <path d="M 209.099455 273.997843 
L 208.78238 276.052263 
L 206.87796 275.760053 
L 207.195035 273.705632 
L 209.099455 273.997843 
" clip-path="url(#pebae5cbb11)" style="fill: #e6482f"/>
    <path d="M 211.630146 268.991497 
L 211.122038 270.771597 
L 209.010831 270.172267 
L 209.518939 268.389184 
L 211.630146 268.991497 
" clip-path="url(#pebae5cbb11)" style="fill: #e6482f"/>
    <path d="M 213.806344 263.66014 
L 213.187949 265.720525 
L 210.836474 265.013852 
L 211.454869 262.953467 
L 213.806344 263.66014 
" clip-path="url(#pebae5cbb11)" style="fill: #e6482f"/>
    <path d="M 219.182832 248.727573 
L 218.471875 250.802866 
L 215.915582 249.926233 
L 216.626539 247.85094 
L 219.182832 248.727573 
" clip-path="url(#pebae5cbb11)" style="fill: #e6482f"/>
    <path d="M 176.011402 291.22337 
L 175.540713 292.979617 
L 173.892317 292.538319 
L 174.363006 290.782072 
L 176.011402 291.22337 
" clip-path="url(#pebae5cbb11)" style="fill: #e6482f"/>
    <path d="M 193.659282 272.831981 
L 195.412057 273.44622 
L 194.63611 275.65271 
L 192.883335 275.035489 
L 193.659282 272.831981 
" clip-path="url(#pebae5cbb11)" style="fill: #e6482f"/>
    <path d="M 188.267038 271.785389 
L 190.021783 272.375775 
L 189.310826 274.486848 
L 187.556082 273.893482 
L 188.267038 271.785389 
" clip-path="url(#pebae5cbb11)" style="fill: #e6482f"/>
    <path d="M 179.042323 245.653396 
L 178.205324 247.099541 
L 176.523448 246.127493 
L 177.362417 244.681348 
L 179.042323 245.653396 
" clip-path="url(#pebae5cbb11)" style="fill: #e6482f"/>
    <path d="M 181.009764 242.233337 
L 179.973854 243.664574 
L 178.238804 242.40926 
L 179.274714 240.975042 
L 181.009764 242.233337 
" clip-path="url(#pebae5cbb11)" style="fill: #e6482f"/>
    <path d="M 184.2908 235.539325 
L 183.621201 236.785693 
L 182.049612 235.938878 
L 182.719211 234.695491 
L 184.2908 235.539325 
" clip-path="url(#pebae5cbb11)" style="fill: #e6482f"/>
    <path d="M 185.874206 232.599326 
L 185.285352 233.732389 
L 183.445923 232.778231 
L 184.032808 231.645169 
L 185.874206 232.599326 
" clip-path="url(#pebae5cbb11)" style="fill: #e6482f"/>
    <path d="M 187.881034 229.42377 
L 187.010555 231.123364 
L 185.090381 230.139389 
L 185.96086 228.439795 
L 187.881034 229.42377 
" clip-path="url(#pebae5cbb11)" style="fill: #e6482f"/>
    <path d="M 190.908017 223.466248 
L 189.852413 225.374564 
L 187.591531 224.125213 
L 188.645165 222.216898 
L 190.908017 223.466248 
" clip-path="url(#pebae5cbb11)" style="fill: #e6482f"/>
    <path d="M 193.495821 218.382377 
L 192.438248 220.266838 
L 190.4649 219.15763 
L 191.522473 217.273169 
L 193.495821 218.382377 
" clip-path="url(#pebae5cbb11)" style="fill: #e6482f"/>
    <path d="M 195.945767 214.175138 
L 194.93349 215.943311 
L 192.33387 214.455422 
L 193.346146 212.687248 
L 195.945767 214.175138 
" clip-path="url(#pebae5cbb11)" style="fill: #e6482f"/>
    <path d="M 196.995462 208.166926 
L 195.839419 210.433051 
L 193.671099 209.329806 
L 194.827142 207.0607 
L 196.995462 208.166926 
" clip-path="url(#pebae5cbb11)" style="fill: #e6482f"/>
    <path d="M 183.877224 163.888047 
L 185.72453 160.560422 
L 188.525031 162.039366 
L 186.728929 165.31332 
L 183.877224 163.888047 
" clip-path="url(#pebae5cbb11)" style="fill: #e6482f"/>
    <path d="M 191.325532 150.207811 
L 195.392363 152.214524 
L 194.494312 154.167565 
L 190.321133 152.426228 
L 191.325532 150.207811 
" clip-path="url(#pebae5cbb11)" style="fill: #e6482f"/>
   </g>
   <g id="LineCollection_1">
    <path d="M 196.225412 794.391276 
L 191.022243 783.073763 
L 183.961909 756.56607 
L 181.464697 744.17991 
L 177.336814 713.324836 
L 169.299653 672.799971 
L 167.887587 658.678437 
L 164.58625 656.394731 
" clip-path="url(#pebae5cbb11)" style="fill: none; stroke: #e6482f; stroke-width: 0.2"/>
    <path d="M 127.811483 622.453084 
L 110.768796 605.555708 
L 106.965866 599.636949 
L 107.176593 592.134884 
L 110.558069 585.795699 
L 115.62733 581.567588 
" clip-path="url(#pebae5cbb11)" style="fill: none; stroke: #e6482f; stroke-width: 0.2"/>
    <path d="M 217.552933 797.707242 
L 220.990751 793.569497 
L 222.601728 784.621287 
L 223.49584 764.399108 
L 220.275855 754.374489 
L 217.949982 747.039402 
L 219.738206 740.595856 
L 226.715825 728.964077 
L 229.220914 719.300249 
L 232.261682 706.058329 
L 231.726003 694.426551 
L 234.410308 682.079154 
L 236.377749 674.383276 
L 242.56127 667.629445 
" clip-path="url(#pebae5cbb11)" style="fill: none; stroke: #e6482f; stroke-width: 0.2"/>
    <path d="M 293.908475 569.91538 
L 292.677265 567.842626 
" clip-path="url(#pebae5cbb11)" style="fill: none; stroke: #e6482f; stroke-width: 0.2"/>
    <path d="M 142.350251 575.502723 
L 146.265437 567.938042 
L 152.023991 553.303649 
L 153.081564 546.12063 
L 153.818123 538.722927 
L 159.261572 538.457552 
L 167.290855 538.880959 
L 177.326967 540.255542 
L 194.441138 547.3342 
" clip-path="url(#pebae5cbb11)" style="fill: none; stroke: #e6482f; stroke-width: 0.2"/>
    <path d="M 158.06811 585.90006 
L 178.593298 564.980153 
L 194.441138 547.3342 
L 209.127026 530.535061 
L 209.971903 524.195876 
L 207.435303 521.765756 
" clip-path="url(#pebae5cbb11)" style="fill: none; stroke: #e6482f; stroke-width: 0.2"/>
    <path d="M 279.259676 516.595414 
L 247.036194 503.600979 
" clip-path="url(#pebae5cbb11)" style="fill: none; stroke: #e6482f; stroke-width: 0.2"/>
    <path d="M 218.511264 487.541313 
L 238.479109 491.662081 
L 249.679142 494.936035 
L 247.036194 503.600979 
L 242.705462 519.872349 
L 237.74058 523.993118 
" clip-path="url(#pebae5cbb11)" style="fill: none; stroke: #e6482f; stroke-width: 0.2"/>
    <path d="M 171.816559 414.321638 
L 176.042912 416.116647 
L 181.007794 423.830415 
L 185.338526 428.374591 
L 188.29658 434.818137 
L 193.578536 442.424563 
L 210.060527 461.021693 
L 212.067355 465.562887 
L 214.92103 476.657952 
L 218.511264 487.541313 
L 223.16104 506.558868 
L 225.908367 509.412396 
L 228.653724 511.946877 
L 231.718125 516.279349 
L 234.993254 519.660645 
L 237.74058 523.993118 
L 238.162034 531.38784 
L 240.170832 534.557432 
L 248.621569 540.896617 
L 257.074276 546.499312 
L 268.693793 553.470626 
L 275.350398 557.379691 
L 277.886998 560.444923 
L 281.266505 566.256339 
L 283.48603 567.946987 
L 292.677265 567.842626 
" clip-path="url(#pebae5cbb11)" style="fill: none; stroke: #e6482f; stroke-width: 0.2"/>
    <path d="M 244.501564 455.633683 
L 242.81181 464.823415 
L 240.698634 476.341887 
L 238.479109 491.662081 
" clip-path="url(#pebae5cbb11)" style="fill: none; stroke: #e6482f; stroke-width: 0.2"/>
    <path d="M 219.251762 428.162888 
L 210.060527 461.021693 
" clip-path="url(#pebae5cbb11)" style="fill: none; stroke: #e6482f; stroke-width: 0.2"/>
    <path d="M 267.321114 423.937758 
L 266.582586 431.648545 
L 265.207938 439.890082 
L 262.884034 452.884517 
L 263.939638 455.842405 
L 264.680136 463.451813 
" clip-path="url(#pebae5cbb11)" style="fill: none; stroke: #e6482f; stroke-width: 0.2"/>
    <path d="M 242.705462 519.872349 
L 293.205067 539.205969 
L 300.493852 542.587265 
L 301.551425 544.489617 
L 298.804098 550.301034 
L 292.677265 567.842626 
" clip-path="url(#pebae5cbb11)" style="fill: none; stroke: #e6482f; stroke-width: 0.2"/>
    <path d="M 263.939638 455.842405 
L 347.316568 475.378784 
" clip-path="url(#pebae5cbb11)" style="fill: none; stroke: #e6482f; stroke-width: 0.2"/>
    <path d="M 232.880077 433.866961 
L 265.207938 439.890082 
L 355.345852 461.009766 
" clip-path="url(#pebae5cbb11)" style="fill: none; stroke: #e6482f; stroke-width: 0.2"/>
    <path d="M 339.969235 493.875831 
L 340.768281 490.806321 
L 347.316568 475.378784 
L 355.345852 461.009766 
L 360.714463 452.356748 
L 361.15758 449.386932 
L 362.213184 446.74809 
L 361.55934 438.727202 
L 363.566168 419.286239 
L 366.207147 405.447971 
L 365.99642 402.594444 
L 368.637398 389.07224 
L 372.060232 373.307766 
L 375.624864 357.924956 
L 379.201312 342.059102 
L 382.899863 325.999436 
" clip-path="url(#pebae5cbb11)" style="fill: none; stroke: #e6482f; stroke-width: 0.2"/>
    <path d="M 273.871371 396.89037 
L 284.435285 399.32049 
L 293.839217 402.490083 
L 309.47436 407.982453 
L 325.532927 412.63099 
L 345.183698 416.116647 
L 363.566168 419.286239 
" clip-path="url(#pebae5cbb11)" style="fill: none; stroke: #e6482f; stroke-width: 0.2"/>
    <path d="M 276.723077 388.121064 
L 281.266505 384.951472 
L 285.175783 385.055833 
L 301.23435 389.70437 
L 320.312022 394.329053 
L 366.207147 405.447971 
L 389.660847 410.412573 
L 421.777981 417.070805 
" clip-path="url(#pebae5cbb11)" style="fill: none; stroke: #e6482f; stroke-width: 0.2"/>
    <path d="M 320.312022 394.329053 
L 325.322201 378.716648 
L 368.637398 389.07224 
L 425.370184 402.487101 
" clip-path="url(#pebae5cbb11)" style="fill: none; stroke: #e6482f; stroke-width: 0.2"/>
    <path d="M 273.871371 396.89037 
L 276.723077 388.121064 
L 275.561125 379.98687 
L 275.8782 369.526917 
L 279.787478 362.764324 
L 282.641153 354.314065 
" clip-path="url(#pebae5cbb11)" style="fill: none; stroke: #e6482f; stroke-width: 0.2"/>
    <path d="M 289.096878 354.844815 
L 372.060232 373.307766 
L 428.249461 386.731572 
" clip-path="url(#pebae5cbb11)" style="fill: none; stroke: #e6482f; stroke-width: 0.2"/>
    <path d="M 135.723641 628.142562 
L 138.025427 621.403671 
L 142.990309 614.325014 
L 149.329839 606.715606 
L 150.068367 602.174412 
L 147.850812 599.532588 
L 142.990309 597.522894 
" clip-path="url(#pebae5cbb11)" style="fill: none; stroke: #e6482f; stroke-width: 0.2"/>
    <path d="M 213.98556 660.079856 
L 197.716266 646.023921 
L 187.680154 632.814801 
L 182.081122 617.598967 
L 171.093786 597.418533 
L 158.06811 585.90006 
L 153.766919 582.098338 
L 142.350251 575.502723 
L 135.2781 572.270514 
L 129.996143 569.733051 
L 115.522951 563.921635 
L 108.127818 560.331616 
L 87.208747 550.187728 
L 73.68678 542.366616 
L 70.728727 536.874246 
L 74.108234 529.056117 
L 76.644834 521.446709 
L 79.573346 510.390407 
" clip-path="url(#pebae5cbb11)" style="fill: none; stroke: #e6482f; stroke-width: 0.2"/>
    <path d="M 153.818123 538.722927 
L 149.276665 536.608871 
L 141.493557 531.372931 
L 138.078601 526.572325 
L 136.652748 521.026284 
L 135.91225 517.114237 
L 134.539572 503.272987 
L 134.838922 497.68222 
" clip-path="url(#pebae5cbb11)" style="fill: none; stroke: #e6482f; stroke-width: 0.2"/>
    <path d="M 141.493557 531.372931 
L 143.360558 526.521635 
L 144.78641 513.100811 
L 145.526908 510.989737 
L 147.031537 509.06055 
L 148.167887 506.233858 
L 149.85764 499.152219 
L 151.549363 496.409015 
L 153.660571 494.399321 
L 154.611796 492.392608 
L 154.294721 489.53908 
L 155.56302 487.213321 
L 159.048876 478.232312 
L 159.66727 473.804424 
" clip-path="url(#pebae5cbb11)" style="fill: none; stroke: #e6482f; stroke-width: 0.2"/>
    <path d="M 42.343528 508.640891 
L 46.66254 506.961403 
L 50.315795 503.219316 
L 50.577726 497.825343 
L 51.09962 490.427639 
" clip-path="url(#pebae5cbb11)" style="fill: none; stroke: #e6482f; stroke-width: 0.2"/>
    <path d="M 104.153549 475.93637 
L 93.601451 475.662049 
L 88.782306 475.536816 
L 85.540657 480.253933 
L 82.151303 494.178672 
L 79.573346 510.390407 
" clip-path="url(#pebae5cbb11)" style="fill: none; stroke: #e6482f; stroke-width: 0.2"/>
    <path d="M 106.026457 457.32135 
L 122.689633 459.223702 
L 128.698302 459.882667 
L 126.598911 479.61584 
" clip-path="url(#pebae5cbb11)" style="fill: none; stroke: #e6482f; stroke-width: 0.2"/>
    <path d="M 141.2848 460.702646 
L 128.698302 459.882667 
" clip-path="url(#pebae5cbb11)" style="fill: none; stroke: #e6482f; stroke-width: 0.2"/>
    <path d="M 134.838922 497.68222 
L 137.375522 483.101498 
L 141.2848 460.702646 
L 145.192109 435.029841 
L 145.298457 424.885952 
L 143.291628 416.540054 
L 141.621569 410.096508 
" clip-path="url(#pebae5cbb11)" style="fill: none; stroke: #e6482f; stroke-width: 0.2"/>
    <path d="M 103.038863 480.250952 
L 104.153549 475.93637 
L 105.469114 470.846535 
L 106.209613 459.435405 
L 106.026457 457.32135 
L 105.364736 449.610563 
L 105.892538 431.544184 
L 108.405504 406.748011 
" clip-path="url(#pebae5cbb11)" style="fill: none; stroke: #e6482f; stroke-width: 0.2"/>
    <path d="M 100.449089 406.273914 
L 96.094724 426.669034 
L 92.500551 454.998572 
L 87.848806 460.70861 
L 83.620483 461.552443 
L 73.895538 461.132017 
" clip-path="url(#pebae5cbb11)" style="fill: none; stroke: #e6482f; stroke-width: 0.2"/>
    <path d="M 122.689633 459.223702 
L 122.585254 449.714924 
L 122.902329 437.883369 
L 124.397111 432.90684 
L 125.015506 429.957897 
L 125.119885 425.30936 
L 124.909158 422.139767 
L 126.492563 411.46811 
L 126.732831 407.102839 
" clip-path="url(#pebae5cbb11)" style="fill: none; stroke: #e6482f; stroke-width: 0.2"/>
    <path d="M 169.404032 409.598557 
L 165.650337 408.659308 
L 163.787275 408.194156 
L 159.243847 408.40586 
L 149.735537 410.412573 
L 141.621569 410.096508 
L 131.611059 408.113649 
" clip-path="url(#pebae5cbb11)" style="fill: none; stroke: #e6482f; stroke-width: 0.2"/>
    <path d="M 147.519951 384.754677 
L 147.204846 380.917174 
L 144.792319 377.446425 
L 133.641521 376.235838 
" clip-path="url(#pebae5cbb11)" style="fill: none; stroke: #e6482f; stroke-width: 0.2"/>
    <path d="M 37.965626 353.043843 
L 41.095019 352.533965 
L 43.349993 353.043843 
L 44.880224 354.573477 
L 74.614372 390.333517 
L 88.004389 401.616432 
L 92.016077 404.434179 
L 95.647668 405.835598 
L 100.449089 406.273914 
L 103.288978 406.563143 
L 103.913281 406.586997 
L 108.405504 406.748011 
L 116.048784 405.874361 
L 122.742807 406.309695 
L 126.732831 407.102839 
L 131.611059 408.113649 
" clip-path="url(#pebae5cbb11)" style="fill: none; stroke: #e6482f; stroke-width: 0.2"/>
    <path d="M 34.581149 355.178569 
L 37.965626 353.043843 
" clip-path="url(#pebae5cbb11)" style="fill: none; stroke: #e6482f; stroke-width: 0.2"/>
    <path d="M 169.44342 345.011028 
L 163.350067 346.677822 
L 152.36273 344.405734 
L 146.078343 346.677822 
L 137.812731 346.594333 
" clip-path="url(#pebae5cbb11)" style="fill: none; stroke: #e6482f; stroke-width: 0.2"/>
    <path d="M 44.880224 354.573477 
L 49.76633 353.374816 
L 92.841259 328.715804 
L 112.85834 324.070248 
L 116.907446 319.8809 
L 117.502208 319.266661 
L 119.103338 314.624087 
L 121.025482 312.381817 
L 131.914348 311.740742 
L 143.713082 314.272242 
L 154.172617 316.225283 
L 162.178268 315.423194 
" clip-path="url(#pebae5cbb11)" style="fill: none; stroke: #e6482f; stroke-width: 0.2"/>
    <path d="M 169.404032 409.598557 
L 171.816559 414.321638 
L 167.696554 430.697369 
L 165.266302 440.313489 
L 163.998002 452.884517 
L 162.201901 465.142461 
L 159.66727 473.804424 
" clip-path="url(#pebae5cbb11)" style="fill: none; stroke: #e6482f; stroke-width: 0.2"/>
    <path d="M 361.15758 449.386932 
L 350.591697 443.366794 
L 267.321114 423.937758 
L 222.103467 414.42898 
L 208.5815 413.582166 
L 189.458531 412.207582 
L 178.788269 412.738332 
L 175.196066 411.047684 
L 169.404032 409.598557 
" clip-path="url(#pebae5cbb11)" style="fill: none; stroke: #e6482f; stroke-width: 0.2"/>
    <path d="M 167.564603 394.406578 
L 174.457537 393.613434 
L 189.775606 392.981305 
L 209.21565 393.401731 
L 248.832296 395.623129 
L 273.871371 396.89037 
" clip-path="url(#pebae5cbb11)" style="fill: none; stroke: #e6482f; stroke-width: 0.2"/>
    <path d="M 165.650337 408.659308 
L 166.638981 400.271666 
L 167.564603 394.406578 
L 168.858506 386.218712 
L 173.717039 365.933917 
L 176.887789 358.434834 
L 179.211692 346.495936 
" clip-path="url(#pebae5cbb11)" style="fill: none; stroke: #e6482f; stroke-width: 0.2"/>
    <path d="M 209.21565 393.401731 
L 220.451132 348.699443 
" clip-path="url(#pebae5cbb11)" style="fill: none; stroke: #e6482f; stroke-width: 0.2"/>
    <path d="M 169.44342 345.011028 
L 179.211692 346.495936 
L 190.620483 347.867537 
L 220.451132 348.699443 
L 260.453783 350.193297 
L 270.385516 350.616704 
L 275.667473 351.248834 
L 282.641153 354.314065 
L 288.767986 356.004713 
" clip-path="url(#pebae5cbb11)" style="fill: none; stroke: #e6482f; stroke-width: 0.2"/>
    <path d="M 173.717039 365.933917 
L 173.929736 359.913778 
L 173.189238 355.265241 
L 171.182409 349.558185 
L 169.44342 345.011028 
L 168.435082 342.375167 
L 168.013629 334.768741 
L 170.337532 320.930473 
L 176.253639 294.571867 
" clip-path="url(#pebae5cbb11)" style="fill: none; stroke: #e6482f; stroke-width: 0.2"/>
    <path d="M 256.123051 312.688936 
L 205.463924 300.908071 
L 176.253639 294.571867 
L 164.683357 292.29978 
L 160.742568 293.626655 
L 158.239448 294.467506 
L 151.718733 296.632252 
" clip-path="url(#pebae5cbb11)" style="fill: none; stroke: #e6482f; stroke-width: 0.2"/>
    <path d="M 131.611059 408.113649 
L 132.568192 394.352907 
L 133.519417 376.97531 
L 133.641521 376.235838 
L 137.812731 346.594333 
L 143.713082 314.272242 
L 145.826259 305.505918 
L 148.354981 301.307624 
L 148.943834 300.329613 
L 151.718733 296.632252 
L 154.405007 291.1369 
L 158.351705 283.88232 
L 160.691363 279.585628 
L 166.530663 271.600521 
L 171.129235 262.878924 
L 180.901446 246.714896 
L 187.558051 235.569142 
L 206.0449 202.716301 
L 208.634674 196.484458 
L 209.8498 191.573528 
" clip-path="url(#pebae5cbb11)" style="fill: none; stroke: #e6482f; stroke-width: 0.2"/>
    <path d="M 166.530663 271.600521 
L 177.309243 274.129039 
L 209.04825 279.740679 
L 213.747262 272.38472 
L 218.300537 260.502475 
L 234.798282 216.870633 
" clip-path="url(#pebae5cbb11)" style="fill: none; stroke: #e6482f; stroke-width: 0.2"/>
    <path d="M 160.742568 293.626655 
L 158.351705 283.88232 
" clip-path="url(#pebae5cbb11)" style="fill: none; stroke: #e6482f; stroke-width: 0.2"/>
    <path d="M 152.096859 171.416947 
L 128.536811 215.677936 
L 130.43926 224.235538 
L 129.909489 229.304501 
L 132.446089 237.966463 
L 133.247639 242.430132 
L 133.086147 243.932931 
L 130.17339 251.673535 
L 130.685437 253.641485 
L 129.728304 258.397365 
L 128.853886 262.58075 
L 125.36803 272.828999 
L 125.36803 280.963194 
L 123.889004 287.514082 
L 125.578757 291.950916 
L 130.122185 293.42986 
L 148.354981 301.307624 
" clip-path="url(#pebae5cbb11)" style="fill: none; stroke: #e6482f; stroke-width: 0.2"/>
    <path d="M 441.4537 343.828832 
L 439.949725 338.433303 
" clip-path="url(#pebae5cbb11)" style="fill: none; stroke: #e6482f; stroke-width: 0.2"/>
    <path d="M 362.213184 446.74809 
L 369.1652 436.404424 
L 372.229602 434.713776 
L 379.54005 433.330248 
L 395.576954 430.697369 
L 410.896992 427.423415 
L 415.966253 425.521063 
L 418.819928 421.71636 
L 421.777981 417.070805 
L 425.370184 402.487101 
L 428.249461 386.731572 
L 432.119351 370.686814 
L 435.512644 355.053537 
L 439.949725 338.433303 
L 443.599041 322.814935 
L 447.23851 307.405288 
L 451.464863 297.476085 
L 453.895115 290.713492 
L 449.267002 287.007186 
L 441.978217 282.358649 
L 434.370387 278.026177 
L 427.503055 276.442872 
" clip-path="url(#pebae5cbb11)" style="fill: none; stroke: #e6482f; stroke-width: 0.2"/>
    <path d="M 293.732868 338.570463 
L 375.624864 357.924956 
L 432.119351 370.686814 
" clip-path="url(#pebae5cbb11)" style="fill: none; stroke: #e6482f; stroke-width: 0.2"/>
    <path d="M 435.512644 355.053537 
L 379.201312 342.059102 
L 297.642147 323.253251 
L 256.123051 312.688936 
" clip-path="url(#pebae5cbb11)" style="fill: none; stroke: #e6482f; stroke-width: 0.2"/>
    <path d="M 288.767986 356.004713 
L 289.096878 354.844815 
L 293.732868 338.570463 
L 297.642147 323.253251 
L 301.762152 307.405288 
L 307.467532 289.341891 
L 323.266137 299.16077 
L 358.884881 303.278556 
L 381.436592 307.214457 
L 443.599041 322.814935 
" clip-path="url(#pebae5cbb11)" style="fill: none; stroke: #e6482f; stroke-width: 0.2"/>
    <path d="M 260.623152 295.761583 
L 301.762152 307.405288 
L 382.899863 325.999436 
L 439.949725 338.433303 
" clip-path="url(#pebae5cbb11)" style="fill: none; stroke: #e6482f; stroke-width: 0.2"/>
    <path d="M 389.767195 294.941604 
L 447.23851 307.405288 
" clip-path="url(#pebae5cbb11)" style="fill: none; stroke: #e6482f; stroke-width: 0.2"/>
    <path d="M 339.917496 258.910224 
L 333.473587 257.004891 
L 329.775036 254.154345 
L 325.337956 250.140919 
L 316.253069 236.407012 
L 304.10378 220.982457 
L 298.715475 214.222846 
L 291.109615 202.811716 
L 284.768115 187.709189 
L 276.951528 171.333458 
L 269.767121 166.896625 
L 263.429561 162.459792 
L 264.274438 155.700181 
L 270.824694 142.389681 
L 225.39632 121.287888 
" clip-path="url(#pebae5cbb11)" style="fill: none; stroke: #e6482f; stroke-width: 0.2"/>
    <path d="M 238.321556 92.17117 
L 248.091798 85.095495 
L 257.285003 78.386573 
L 267.480637 73.001546 
L 283.696756 63.442079 
L 289.207165 60.844981 
L 295.371417 57.579973 
L 298.433849 55.465917 
L 299.135798 53.591669 
" clip-path="url(#pebae5cbb11)" style="fill: none; stroke: #e6482f; stroke-width: 0.2"/>
    <path d="M 238.321556 92.17117 
L 233.124284 85.158111 
L 231.375448 79.480873 
L 231.893403 76.162193 
L 234.124744 72.724244 
L 234.164132 66.23299 
L 235.77314 62.997799 
L 236.091831 62.3986 
" clip-path="url(#pebae5cbb11)" style="fill: none; stroke: #e6482f; stroke-width: 0.2"/>
    <path d="M 209.8498 191.573528 
L 210.324427 177.574246 
L 211.645901 154.915983 
L 218.003156 139.062057 
L 224.216644 123.333364 
L 225.39632 121.287888 
" clip-path="url(#pebae5cbb11)" style="fill: none; stroke: #e6482f; stroke-width: 0.2"/>
    <path d="M 225.39632 121.287888 
L 226.806417 118.842859 
L 235.257155 98.933763 
L 236.911459 94.538674 
L 238.321556 92.17117 
" clip-path="url(#pebae5cbb11)" style="fill: none; stroke: #e6482f; stroke-width: 0.2"/>
   </g>
  </g>
 </g>
 <defs>
  <clipPath id="pebae5cbb11">
   <rect x="7.2" y="7.2" width="473.29347" height="831.6"/>
  </clipPath>
 </defs>
</svg>
