<?xml version="1.0" encoding="utf-8" standalone="no"?>
<!DOCTYPE svg PUBLIC "-//W3C//DTD SVG 1.1//EN"
  "http://www.w3.org/Graphics/SVG/1.1/DTD/svg11.dtd">
<svg xmlns:xlink="http://www.w3.org/1999/xlink" width="621.094931pt" height="846pt" viewBox="0 0 621.094931 846" xmlns="http://www.w3.org/2000/svg" version="1.1">
 <metadata>
  <rdf:RDF xmlns:dc="http://purl.org/dc/elements/1.1/" xmlns:cc="http://creativecommons.org/ns#" xmlns:rdf="http://www.w3.org/1999/02/22-rdf-syntax-ns#">
   <cc:Work>
    <dc:type rdf:resource="http://purl.org/dc/dcmitype/StillImage"/>
    <dc:date>2025-03-16T14:37:54.934315</dc:date>
    <dc:format>image/svg+xml</dc:format>
    <dc:creator>
     <cc:Agent>
      <dc:title>Matplotlib v3.10.1, https://matplotlib.org/</dc:title>
     </cc:Agent>
    </dc:creator>
   </cc:Work>
  </rdf:RDF>
 </metadata>
 <defs>
  <style type="text/css">*{stroke-linejoin: round; stroke-linecap: butt}</style>
 </defs>
 <g id="figure_1">
  <g id="patch_1">
   <path d="M 0 846 
L 621.094931 846 
L 621.094931 0 
L 0 0 
z
" style="fill: #ffffff"/>
  </g>
  <g id="axes_1">
   <g id="PatchCollection_1">
    <path d="M 60.803834 793.444237 
L 58.236311 794.538358 
L 59.354953 798.506769 
L 60.828945 800.643824 
L 64.234621 801 
L 67.233776 797.234915 
L 72.419046 796.268051 
L 86.34735 797.133252 
L 89.397201 780.241558 
L 90.261413 774.085616 
L 89.295808 771.337872 
L 90.617237 770.498975 
L 91.989836 770.142799 
L 93.260568 768.158594 
L 86.75387 764.368627 
L 81.569075 762.028245 
L 74.147469 753.913692 
L 71.452967 752.667432 
L 56.787904 749.665886 
L 55.288326 749.767548 
L 52.365453 752.387325 
L 49.442579 754.295461 
L 44.028465 755.363278 
L 38.182718 753.888098 
L 34.777042 757.195344 
L 37.649219 760.400216 
L 43.088445 764.08852 
L 47.943002 765.742143 
L 52.644995 767.522312 
L 54.906917 769.430447 
L 55.212044 771.745235 
L 58.033051 773.093158 
L 60.320558 774.950107 
L 60.473122 778.918518 
L 57.041861 780.063115 
L 58.134918 784.209969 
L 60.092186 787.567691 
L 66.623996 784.490075 
L 72.596721 788.02553 
L 79.103419 789.755933 
L 82.662132 790.238654 
L 85.432442 789.653559 
L 84.822187 795.734142 
L 79.76437 794.94501 
L 70.99575 794.385508 
L 67.157968 794.767278 
L 63.01506 793.418644 
L 60.803834 793.444237 
" clip-path="url(#pc251671860)" style="fill: #f29888"/>
    <path d="M 215.692431 138.868339 
L 212.769558 151.43829 
L 215.336607 151.412697 
L 221.055376 149.279907 
L 223.800574 147.375326 
L 225.732257 144.023291 
L 227.765334 143.514977 
L 230.967749 147.070337 
L 232.289652 152.250883 
L 238.694483 154.079395 
L 248.149639 155.755056 
L 253.690259 160.986789 
L 254.605167 165.304267 
L 252.419526 167.945371 
L 259.383442 177.900522 
L 265.73805 184.401976 
L 281.241739 189.430383 
L 283.580417 193.900711 
L 285.359537 199.691234 
L 289.2736 203.399445 
L 294.051875 204.821305 
L 300.914397 208.936167 
L 306.150363 212.74604 
L 310.826771 220.619589 
L 315.808779 224.17566 
L 319.824236 227.934346 
L 322.264307 234.386035 
L 325.416026 236.824524 
L 329.78778 240.990574 
L 331.719463 247.340599 
L 339.496894 256.485291 
L 345.190077 261.667258 
L 351.442818 265.782121 
L 367.251635 279.144048 
L 377.87613 287.628996 
L 383.213489 292.252884 
L 396.175715 299.467401 
L 397.599484 304.904592 
L 397.955308 313.796193 
L 399.4293 321.468548 
L 400.293512 330.158244 
L 397.955308 340.930965 
L 394.803589 344.487747 
L 394.803589 351.246557 
L 392.312822 355.718306 
L 389.008539 356.734936 
L 384.077701 358.716298 
L 378.791038 361.968802 
L 371.87782 362.121652 
L 362.829184 359.021287 
L 357.542521 355.006665 
L 349.968351 355.108328 
L 343.055133 358.157507 
L 337.463343 364.611328 
L 347.376191 371.421326 
L 352.154465 372.437955 
L 368.67493 377.367543 
L 374.673241 378.891777 
L 376.503531 380.823373 
L 379.451989 379.247953 
L 387.43268 385.9051 
L 391.041616 383.364237 
L 394.345898 388.345012 
L 397.599484 396.018789 
L 399.988385 399.982934 
L 397.650181 400.847425 
L 397.751574 403.134486 
L 392.261651 404.81157 
L 391.6007 408.165737 
L 383.416749 411.0123 
L 375.385362 414.773119 
L 364.71017 422.040956 
L 356.780177 429.817818 
L 365.828339 433.274359 
L 371.775953 430.631121 
L 377.926827 434.443127 
L 377.367742 440.18673 
L 388.550848 442.677828 
L 396.836666 444.914414 
L 395.565934 449.183548 
L 398.361829 451.674646 
L 406.241126 454.368359 
L 410.899055 457.456639 
L 416.204196 458.181076 
L 417.068407 460.112673 
L 421.440162 460.620988 
L 431.505099 476.481123 
L 438.316451 489.444218 
L 442.790072 495.493521 
L 445.331536 505.203401 
L 445.839924 509.42277 
L 444.772452 517.506754 
L 443.755677 524.065082 
L 444.315235 529.606781 
L 442.942636 532.402868 
L 441.214213 536.877461 
L 440.400698 541.809181 
L 441.773297 548.571546 
L 442.790072 553.757069 
L 445.585967 560.723471 
L 445.077579 566.469206 
L 442.942636 571.095938 
L 438.876009 577.655688 
L 436.689895 582.180757 
L 432.11488 589.096683 
L 428.404077 582.841922 
L 426.31983 583.706412 
L 427.539865 587.164375 
L 426.879388 589.757847 
L 424.947705 590.825664 
L 423.778366 597.029238 
L 425.100268 599.9277 
L 424.947705 601.707868 
L 423.117414 608.928783 
L 421.135034 613.454563 
L 420.270823 619.505998 
L 419.050787 625.405294 
L 417.322364 629.372283 
L 414.475773 631.45744 
L 406.749039 635.525381 
L 399.327433 639.111311 
L 393.939378 641.83204 
L 391.117898 643.281626 
L 388.017349 643.917197 
L 384.840045 645.391666 
L 382.578123 648.366908 
L 380.26503 649.994937 
L 379.350122 651.546186 
L 378.66406 652.868516 
L 376.376552 654.928079 
L 374.393699 658.513299 
L 373.351812 662.582662 
L 373.07227 663.929874 
L 370.25079 666.701789 
L 368.217713 667.210815 
L 367.099545 664.718295 
L 363.947826 665.633973 
L 363.083614 667.71913 
L 359.220248 668.278632 
L 355.763401 669.804998 
L 353.730325 672.042295 
L 348.95205 674.789328 
L 346.054288 675.908331 
L 343.614217 675.399306 
L 341.174146 675.908331 
L 340.564365 677.942302 
L 338.835942 678.196815 
L 337.311253 675.704295 
L 335.735394 676.314983 
L 336.751695 679.010829 
L 336.650302 681.605013 
L 335.887484 683.435657 
L 334.159534 681.605013 
L 330.092907 680.994324 
L 330.041737 678.451328 
L 328.00866 676.772822 
L 325.77185 678.501804 
L 323.840166 678.146339 
L 321.976236 679.198515 
L 319.814286 672.687108 
L 312.60589 674.789328 
L 308.3867 676.671159 
L 300.761833 680.536485 
L 305.03172 686.284353 
L 308.285306 692.286023 
L 303.862855 690.200866 
L 301.016264 690.505855 
L 288.409389 694.829019 
L 288.155432 700.170236 
L 290.239679 706.985921 
L 292.679276 713.344478 
L 310.470947 710.190793 
L 324.704378 707.189957 
L 333.092063 707.088294 
L 336.497738 709.784141 
L 338.581985 713.44614 
L 338.886639 717.108851 
L 342.435402 720.296661 
L 344.757971 719.855884 
L 347.350605 720.568236 
L 350.629303 722.297218 
L 353.221937 723.518595 
L 359.525375 723.721921 
L 368.573537 724.968181 
L 373.936481 725.34924 
L 375.05465 722.6278 
L 373.326227 715.709741 
L 374.85139 715.303089 
L 377.444024 715.888185 
L 385.729842 715.811404 
L 390.863941 714.514668 
L 392.541193 713.344478 
L 393.837511 710.521375 
L 399.479997 704.442924 
L 403.292667 700.373562 
L 399.683257 696.914888 
L 397.39575 695.948023 
L 394.091941 693.252177 
L 397.091096 691.218207 
L 397.19249 689.285188 
L 397.497617 686.284353 
L 397.497617 683.079481 
L 395.260806 679.926507 
L 390.076011 678.298478 
L 383.366053 676.619972 
L 377.87613 675.500969 
L 372.378153 674.57676 
L 372.894121 672.856309 
L 374.927671 671.279467 
L 375.588623 669.143123 
L 374.825804 666.3968 
L 375.003953 662.811581 
L 375.969558 660.725713 
L 376.630509 658.157834 
L 379.528271 654.470241 
L 388.093631 646.078424 
L 389.999729 644.349443 
L 392.261651 644.375036 
L 400.166533 640.255197 
L 408.833286 646.155205 
L 411.273357 644.476699 
L 413.764125 642.493205 
L 416.102329 642.086553 
L 420.016866 641.730377 
L 424.744444 638.475029 
L 426.421697 637.203886 
L 429.674809 633.338561 
L 435.521029 622.09947 
L 456.413249 628.100429 
L 463.326467 628.711118 
L 470.544813 630.541762 
L 474.510047 630.999601 
L 476.695687 631.559103 
L 478.576674 631.812905 
L 482.287477 631.762429 
L 492.403111 631.965755 
L 496.724168 632.525257 
L 503.840647 631.507916 
L 505.924894 627.490451 
L 506.992366 624.337477 
L 506.483978 620.879514 
L 505.518374 617.42084 
L 502.823872 614.37024 
L 494.589225 614.878555 
L 480.40649 615.997559 
L 474.764004 615.641383 
L 468.714997 613.607412 
L 466.986574 613.251237 
L 468.359173 605.114644 
L 468.6643 600.741714 
L 470.188989 592.554646 
L 471.307631 582.180757 
L 471.561588 574.197725 
L 476.543123 573.943212 
L 476.543123 571.452114 
L 471.663455 570.842136 
L 471.917412 566.26588 
L 476.695687 566.418019 
L 477.000814 562.299602 
L 472.527667 560.926797 
L 470.64668 557.418358 
L 469.070821 553.706593 
L 470.544813 552.689963 
L 473.340708 554.011582 
L 477.763159 554.266095 
L 482.846561 554.214908 
L 485.388499 552.079274 
L 489.099302 551.317157 
L 491.081682 547.402067 
L 490.776555 541.96132 
L 488.03183 541.096829 
L 488.641611 537.0296 
L 495.199006 536.01297 
L 495.453436 531.894553 
L 488.387654 530.62341 
L 489.658386 523.353441 
L 490.115603 514.201641 
L 490.522598 510.185598 
L 497.079992 509.626096 
L 496.876732 501.898999 
L 514.363276 501.949475 
L 516.244262 497.120128 
L 517.514994 495.442334 
L 517.870818 487.105259 
L 533.044269 493.155272 
L 546.312096 498.391271 
L 546.794898 499.407901 
L 548.345172 500.221205 
L 549.717772 499.585633 
L 560.265511 504.212365 
L 560.697617 502.712303 
L 560.164118 500.8063 
L 559.477582 500.069066 
L 559.808294 497.831769 
L 561.079026 498.213539 
L 567.204315 500.882369 
L 569.695083 495.086869 
L 571.626766 494.222378 
L 579.455366 493.663587 
L 585.377395 494.146309 
L 586.317888 492.011386 
L 582.454522 491.80806 
L 581.234486 490.917976 
L 581.285183 488.935903 
L 580.903774 487.563098 
L 576.532493 485.428175 
L 576.532493 483.623124 
L 574.143119 481.640341 
L 569.923928 479.048291 
L 564.662851 476.836588 
L 559.45247 474.091687 
L 554.394653 471.855102 
L 549.971728 470.202901 
L 546.616749 470.736809 
L 545.295321 472.058428 
L 545.371602 475.159504 
L 544.380412 476.786112 
L 537.339742 474.676072 
L 532.917291 474.600002 
L 531.51958 476.429936 
L 530.731651 479.327686 
L 532.967987 484.665348 
L 535.052234 488.020226 
L 536.27227 490.740244 
L 536.399248 492.74862 
L 525.419403 488.325215 
L 496.165084 476.429936 
L 486.709928 472.566743 
L 480.40649 468.652363 
L 482.338173 465.8058 
L 495.96135 450.658016 
L 499.418196 446.031996 
L 503.128999 449.081885 
L 505.16255 451.369657 
L 508.670093 454.266697 
L 513.854888 457.672762 
L 520.361586 458.434878 
L 523.004917 456.351143 
L 523.055614 451.521796 
L 519.548071 448.421431 
L 508.974746 445.82867 
L 501.197316 443.541608 
L 496.571605 436.984702 
L 505.36581 434.849779 
L 509.585001 432.104879 
L 511.16086 427.022441 
L 513.397197 421.83763 
L 516.345656 420.465535 
L 521.073234 418.838927 
L 525.902205 418.127287 
L 531.341431 415.636899 
L 533.578242 411.87608 
L 536.628094 410.452798 
L 537.695566 408.2674 
L 534.239193 407.911935 
L 531.697255 408.115261 
L 527.833889 407.047444 
L 526.156636 406.895305 
L 521.12393 408.927854 
L 517.972212 410.046146 
L 506.280718 409.334506 
L 503.53552 412.486058 
L 500.536365 418.026334 
L 496.774865 417.721346 
L 490.929118 414.519317 
L 483.100992 423.464237 
L 479.389715 428.394536 
L 465.156757 420.567198 
L 457.175593 416.856855 
L 459.920791 403.439475 
L 452.143361 404.099929 
L 451.126586 395.815463 
L 449.347467 388.700477 
L 439.129966 390.022095 
L 438.723445 380.365535 
L 438.469014 372.132966 
L 455.956031 367.508368 
L 454.684826 357.192064 
L 447.365087 350.48444 
L 443.145896 347.790727 
L 435.622423 348.959496 
L 424.591881 351.856535 
L 419.609872 353.279106 
L 418.74566 349.518287 
L 415.339984 347.282412 
L 413.255737 343.471828 
L 412.951084 338.491764 
L 414.119949 333.461224 
L 415.543245 329.802068 
L 426.726824 335.595436 
L 426.523564 338.237251 
L 426.624957 340.625976 
L 428.861768 342.607337 
L 434.199127 342.86185 
L 437.808537 340.625976 
L 439.282529 333.003385 
L 431.708359 331.174163 
L 427.94686 334.52833 
L 421.541555 331.682478 
L 426.218437 321.214746 
L 420.423387 318.216755 
L 424.236057 309.172305 
L 426.065873 305.463383 
L 429.776676 289.509406 
L 429.624112 286.308088 
L 426.065873 279.042385 
L 421.846682 270.304346 
L 420.829907 267.052552 
L 419.406611 261.565596 
L 418.949394 257.094557 
L 419.864302 255.469372 
L 421.948549 251.20166 
L 421.643422 249.016972 
L 423.371845 245.562564 
L 425.964006 240.837724 
L 427.082648 236.926187 
L 426.777521 235.503617 
L 424.744444 235.910269 
L 423.168585 232.100395 
L 421.135034 226.004172 
L 423.727669 219.502007 
L 403.851751 207.411933 
L 385.958214 194.713303 
L 384.027004 186.078349 
L 384.534918 163.67837 
L 381.84089 151.793755 
L 380.06177 143.362838 
L 380.468291 135.947839 
L 382.146017 129.599946 
L 403.902448 140.06199 
L 419.762435 144.226617 
L 422.761591 136.201641 
L 401.767504 123.099203 
L 393.023996 122.083284 
L 386.212644 119.848831 
L 392.516082 97.809294 
L 395.260806 93.442052 
L 397.997476 89.590944 
L 422.914154 95.574841 
L 434.046563 102.582477 
L 439.536486 93.137063 
L 429.268288 88.821007 
L 402.479152 83.285707 
L 399.937688 79.223454 
L 394.345898 77.395653 
L 389.161103 80.340325 
L 384.992609 74.450271 
L 386.721032 63.279429 
L 380.620854 58.100305 
L 381.84089 50.280787 
L 376.2491 48.147998 
L 364.659474 45 
L 362.72779 55.967515 
L 350.324175 47.031127 
L 348.189232 47.233742 
L 344.427732 56.780108 
L 346.867803 65.310556 
L 345.952421 71.504888 
L 367.099071 76.684723 
L 382.24741 81.051255 
L 375.791883 112.48502 
L 374.317417 113.500939 
L 355.051754 105.324534 
L 330.550125 92.375657 
L 324.094597 96.336247 
L 321.501962 100.449688 
L 323.230386 106.797581 
L 343.614217 114.821135 
L 356.322486 123.606807 
L 374.368587 127.97476 
L 369.946136 143.718302 
L 366.895811 150.066906 
L 367.251635 157.99022 
L 354.390802 173.988986 
L 351.442818 176.731754 
L 351.035823 184.859104 
L 353.882415 191.258895 
L 353.781022 199.18292 
L 337.921034 201.519746 
L 326.203956 205.710678 
L 320.561469 204.135968 
L 315.757609 197.811536 
L 310.115123 193.697385 
L 307.115967 190.446302 
L 304.879631 188.008524 
L 308.691827 182.116337 
L 312.148673 176.579615 
L 308.183439 175.716546 
L 302.795384 175.106568 
L 299.338537 173.988986 
L 294.560263 173.024254 
L 291.154587 173.024254 
L 285.30884 175.614883 
L 281.648734 173.964104 
L 280.276135 171.754534 
L 281.013368 169.418418 
L 280.555677 166.700533 
L 282.080839 163.75515 
L 284.901846 161.012383 
L 286.30003 159.920395 
L 286.274445 158.371278 
L 284.52091 154.790325 
L 283.809263 151.565547 
L 278.141191 144.556489 
L 272.117295 138.512874 
L 267.92369 134.653235 
L 263.628217 132.748654 
L 259.943 132.519735 
L 257.858753 130.768004 
L 256.816392 127.593702 
L 255.393096 124.622726 
L 251.936724 122.032808 
L 250.157604 122.438749 
L 248.124054 122.057691 
L 246.9803 122.692551 
L 246.471913 124.038341 
L 245.58259 127.060504 
L 242.862977 128.254156 
L 241.363399 132.0882 
L 237.627011 135.643561 
L 235.797195 136.697159 
L 234.60227 134.094445 
L 233.039204 133.141799 
L 231.438233 132.887997 
L 230.599607 133.243462 
L 230.002144 132.469259 
L 224.6392 123.454668 
L 223.855061 122.398226 
L 236.406975 111.114347 
L 242.507153 109.793439 
L 252.36883 107.153046 
L 258.417837 104.004337 
L 261.670949 101.821071 
L 271.93962 93.543715 
L 274.430388 93.0354 
L 292.476016 96.184108 
L 306.760144 99.179967 
L 307.827615 95.219376 
L 309.302082 89.125285 
L 306.556883 86.535368 
L 293.08627 82.219312 
L 280.937086 81.254581 
L 274.074564 76.989001 
L 258.671794 67.645961 
L 251.504618 67.24002 
L 246.9803 71.149423 
L 244.74349 76.786386 
L 253.893519 80.340325 
L 266.347831 86.890833 
L 263.551936 96.590049 
L 257.960146 102.074873 
L 247.030997 107.101859 
L 240.575469 107.965638 
L 236.96606 108.727044 
L 222.922148 121.142013 
L 222.377278 120.407622 
L 219.454405 117.893774 
L 215.844995 117.055588 
L 213.83703 127.26383 
L 213.430509 131.301201 
L 215.692431 138.868339 
" clip-path="url(#pc251671860)" style="fill: #f29888"/>
   </g>
   <g id="PatchCollection_2">
    <path d="M 59.969472 794.913018 
L 60.503445 795.090751 
L 60.935551 793.844491 
L 61.316486 793.997341 
L 60.68112 795.803103 
L 59.766212 795.47252 
L 59.969472 794.913018 
" clip-path="url(#pc251671860)" style="fill: #f29888"/>
    <path d="M 62.600484 793.95895 
L 63.362829 794.060613 
L 63.210265 795.027478 
L 62.447921 794.874628 
L 62.600484 793.95895 
" clip-path="url(#pc251671860)" style="fill: #f29888"/>
    <path d="M 63.238693 765.578629 
L 62.152269 765.328382 
L 62.352687 764.458204 
L 63.438637 764.708451 
L 63.238693 765.578629 
" clip-path="url(#pc251671860)" style="fill: #f29888"/>
    <path d="M 62.203914 764.328814 
L 61.999706 765.290703 
L 61.430672 765.169845 
L 61.63488 764.207956 
L 62.203914 764.328814 
" clip-path="url(#pc251671860)" style="fill: #f29888"/>
    <path d="M 61.120806 760.174851 
L 60.920863 760.99171 
L 59.933463 760.749993 
L 60.133881 759.932424 
L 61.120806 760.174851 
" clip-path="url(#pc251671860)" style="fill: #f29888"/>
    <path d="M 59.905035 760.275803 
L 59.661028 761.147403 
L 57.356464 760.501879 
L 57.600471 759.629568 
L 59.905035 760.275803 
" clip-path="url(#pc251671860)" style="fill: #f29888"/>
    <path d="M 63.960765 758.656305 
L 64.192927 758.716023 
L 63.476067 761.483673 
L 63.243905 761.423955 
L 63.960765 758.656305 
" clip-path="url(#pc251671860)" style="fill: #f29888"/>
    <path d="M 64.555384 758.653461 
L 64.198612 758.558197 
L 64.40282 757.793947 
L 64.759118 757.889212 
L 64.555384 758.653461 
" clip-path="url(#pc251671860)" style="fill: #f29888"/>
    <path d="M 57.778146 756.009513 
L 58.138234 754.594052 
L 63.734288 756.019466 
L 63.3742 757.434927 
L 57.778146 756.009513 
" clip-path="url(#pc251671860)" style="fill: #f29888"/>
    <path d="M 57.215271 754.396413 
L 56.405073 757.638964 
L 56.03693 757.547254 
L 56.847129 754.303992 
L 57.215271 754.396413 
" clip-path="url(#pc251671860)" style="fill: #f29888"/>
    <path d="M 552.440227 491.901903 
L 554.149225 492.547427 
L 554.417869 491.837208 
L 551.026881 490.556113 
L 551.614868 488.999887 
L 556.359503 490.792852 
L 555.801366 492.269454 
L 555.381105 492.110205 
L 555.120041 492.801229 
L 555.951087 493.11546 
L 555.626534 493.975685 
L 557.032773 494.507461 
L 556.573186 495.723862 
L 554.642451 494.994448 
L 555.010593 494.019763 
L 552.061187 492.904314 
L 552.440227 491.901903 
" clip-path="url(#pc251671860)" style="fill: #f29888"/>
    <path d="M 546.675501 486.680834 
L 547.056436 485.750227 
L 549.913451 486.920417 
L 549.532516 487.850314 
L 546.675501 486.680834 
" clip-path="url(#pc251671860)" style="fill: #f29888"/>
    <path d="M 552.422697 483.097747 
L 553.541813 483.537102 
L 553.279328 484.206087 
L 554.514525 484.690941 
L 554.824864 483.898965 
L 559.9836 485.922983 
L 558.67449 489.260087 
L 553.511963 487.235359 
L 553.285961 487.811212 
L 552.126572 487.356928 
L 552.456337 486.515898 
L 551.265203 486.048817 
L 552.422697 483.097747 
" clip-path="url(#pc251671860)" style="fill: #f29888"/>
    <path d="M 541.262807 485.460878 
L 542.183401 483.392072 
L 543.456502 483.958683 
L 542.535908 486.027489 
L 541.262807 485.460878 
" clip-path="url(#pc251671860)" style="fill: #f29888"/>
    <path d="M 548.217246 483.652983 
L 548.502 482.975467 
L 550.84968 483.962238 
L 550.564926 484.639043 
L 548.217246 483.652983 
" clip-path="url(#pc251671860)" style="fill: #f29888"/>
    <path d="M 563.052404 481.441281 
L 566.966941 482.971202 
L 566.540047 484.063901 
L 562.62551 482.53398 
L 563.052404 481.441281 
" clip-path="url(#pc251671860)" style="fill: #f29888"/>
    <path d="M 544.593623 482.470707 
L 545.94111 478.993549 
L 547.153565 479.463474 
L 545.806077 482.940632 
L 544.593623 482.470707 
" clip-path="url(#pc251671860)" style="fill: #f29888"/>
    <path d="M 547.421262 477.713164 
L 547.810726 476.680183 
L 554.123639 479.061087 
L 553.734176 480.094068 
L 547.421262 477.713164 
" clip-path="url(#pc251671860)" style="fill: #f29888"/>
    <path d="M 65.960675 765.011307 
L 65.676395 766.108983 
L 64.609397 765.832431 
L 64.894151 764.734755 
L 65.960675 765.011307 
" clip-path="url(#pc251671860)" style="fill: #f29888"/>
    <path d="M 64.367759 763.432332 
L 65.075617 762.06237 
L 65.227233 762.141283 
L 64.519375 763.511245 
L 64.367759 763.432332 
" clip-path="url(#pc251671860)" style="fill: #f29888"/>
    <path d="M 64.491421 760.603542 
L 65.636596 760.920617 
L 65.469345 761.526329 
L 64.324169 761.209254 
L 64.491421 760.603542 
" clip-path="url(#pc251671860)" style="fill: #f29888"/>
    <path d="M 66.838153 757.975945 
L 66.578985 759.273392 
L 65.647493 759.086417 
L 65.907136 757.78897 
L 66.838153 757.975945 
" clip-path="url(#pc251671860)" style="fill: #f29888"/>
    <path d="M 66.428316 756.074918 
L 66.306076 756.511429 
L 65.775419 756.362134 
L 65.89766 755.925623 
L 66.428316 756.074918 
" clip-path="url(#pc251671860)" style="fill: #f29888"/>
    <path d="M 68.522513 754.504474 
L 71.521668 755.16635 
L 71.165844 757.048181 
L 68.166689 756.285354 
L 68.522513 754.504474 
" clip-path="url(#pc251671860)" style="fill: #f29888"/>
    <path d="M 66.524024 755.016344 
L 66.455796 755.30427 
L 66.093813 755.218248 
L 66.161567 754.930321 
L 66.524024 755.016344 
" clip-path="url(#pc251671860)" style="fill: #f29888"/>
    <path d="M 66.583249 754.522248 
L 66.524971 754.732683 
L 66.21558 754.64666 
L 66.273857 754.436225 
L 66.583249 754.522248 
" clip-path="url(#pc251671860)" style="fill: #f29888"/>
    <path d="M 65.515777 754.192376 
L 65.363687 754.77605 
L 64.078741 754.440491 
L 64.230831 753.856817 
L 65.515777 754.192376 
" clip-path="url(#pc251671860)" style="fill: #f29888"/>
    <path d="M 434.15459 454.106026 
L 435.030173 455.098484 
L 433.336811 455.97435 
L 432.694811 454.718848 
L 434.15459 454.106026 
" clip-path="url(#pc251671860)" style="fill: #f29888"/>
    <path d="M 262.289258 163.048486 
L 261.743914 163.511302 
L 261.425994 163.136641 
L 261.971338 162.673826 
L 262.289258 163.048486 
" clip-path="url(#pc251671860)" style="fill: #f29888"/>
    <path d="M 264.103913 161.512167 
L 263.93524 161.675681 
L 264.353606 162.107215 
L 263.995413 162.45486 
L 263.290398 161.728289 
L 263.817738 161.217131 
L 264.103913 161.512167 
" clip-path="url(#pc251671860)" style="fill: #f29888"/>
    <path d="M 263.049234 159.916129 
L 263.646222 160.541747 
L 262.878666 161.273294 
L 262.281677 160.647676 
L 263.049234 159.916129 
" clip-path="url(#pc251671860)" style="fill: #f29888"/>
    <path d="M 268.065356 144.456959 
L 267.633724 145.225474 
L 267.208252 144.986601 
L 267.639884 144.218086 
L 268.065356 144.456959 
" clip-path="url(#pc251671860)" style="fill: #f29888"/>
    <path d="M 261.487588 141.164642 
L 261.165878 140.946387 
L 261.60746 140.29873 
L 261.928696 140.517696 
L 261.487588 141.164642 
" clip-path="url(#pc251671860)" style="fill: #f29888"/>
    <path d="M 260.564625 160.823276 
L 260.018808 161.339411 
L 259.56775 160.863088 
L 260.113094 160.346953 
L 260.564625 160.823276 
" clip-path="url(#pc251671860)" style="fill: #f29888"/>
    <path d="M 259.376808 156.758179 
L 259.055572 157.080941 
L 258.662791 156.692062 
L 258.984028 156.368589 
L 259.376808 156.758179 
" clip-path="url(#pc251671860)" style="fill: #f29888"/>
    <path d="M 246.957084 145.934271 
L 246.670909 146.270541 
L 246.099506 145.784265 
L 246.386155 145.448706 
L 246.957084 145.934271 
" clip-path="url(#pc251671860)" style="fill: #f29888"/>
   </g>
   <g id="LineCollection_1">
    <path d="M 368.114861 724.905005 
L 368.040038 723.242754 
L 369.503607 719.78408 
L 372.235539 715.43319 
L 372.056916 713.901847 
L 369.468546 712.627149 
L 363.644594 711.206711 
L 358.831258 711.206711 
L 356.008356 712.210544 
" clip-path="url(#pc251671860)" style="fill: none; stroke: #f29888; stroke-width: 0.2"/>
    <path d="M 346.828951 714.772736 
L 348.761109 715.073459 
L 352.376204 714.651878 
L 353.418091 714.159203 
" clip-path="url(#pc251671860)" style="fill: none; stroke: #f29888; stroke-width: 0.2"/>
    <path d="M 356.008356 712.210544 
L 353.418091 714.159203 
" clip-path="url(#pc251671860)" style="fill: none; stroke: #f29888; stroke-width: 0.2"/>
    <path d="M 329.015486 696.482642 
L 334.365638 702.957081 
L 346.415324 713.393532 
" clip-path="url(#pc251671860)" style="fill: none; stroke: #f29888; stroke-width: 0.2"/>
    <path d="M 333.836877 698.375849 
L 335.343561 697.42889 
L 338.091128 698.045977 
L 341.509597 698.447653 
L 344.478429 698.390067 
L 347.304647 697.640747 
L 351.493514 696.507525 
L 354.039716 695.126899 
L 357.447287 693.446972 
L 365.145593 688.877114 
L 368.106844 687.348615 
L 369.88549 686.823949 
L 373.586817 685.308957 
L 374.483721 685.702102 
L 377.040346 685.768929 
L 373.255157 688.265715 
L 368.124375 691.071044 
L 367.283379 692.137439 
L 363.946878 694.970495 
L 361.956444 696.176943 
L 359.713 698.926819 
L 357.344947 701.629064 
L 353.005884 705.840613 
L 351.083203 707.290199 
L 347.884104 711.952477 
L 346.828951 714.772736 
" clip-path="url(#pc251671860)" style="fill: none; stroke: #f29888; stroke-width: 0.2"/>
    <path d="M 363.946878 694.970495 
L 369.88549 686.823949 
L 370.324703 683.324752 
L 370.308593 679.578862 
L 372.868062 671.861718 
L 373.605769 664.871145 
L 373.789603 663.03979 
L 374.885029 658.73582 
L 375.849687 657.768955 
L 389.653381 643.941369 
L 392.382944 643.448695 
L 400.84928 639.060835 
" clip-path="url(#pc251671860)" style="fill: none; stroke: #f29888; stroke-width: 0.2"/>
    <path d="M 401.379936 702.23762 
L 401.994455 701.162694 
L 403.062179 700.152699 
" clip-path="url(#pc251671860)" style="fill: none; stroke: #f29888; stroke-width: 0.2"/>
    <path d="M 459.168088 628.343782 
L 459.201563 627.058206 
L 459.453151 625.363349 
L 459.55028 624.864987 
" clip-path="url(#pc251671860)" style="fill: none; stroke: #f29888; stroke-width: 0.2"/>
    <path d="M 401.790476 701.976889 
L 401.379936 702.23762 
L 398.912858 703.931766 
L 397.762471 705.038684 
L 396.512113 706.278545 
L 394.565268 708.769644 
L 393.204514 711.028268 
L 392.418953 712.002242 
L 392.086819 712.400363 
L 391.40123 712.910099 
L 388.624287 713.397086 
L 385.769641 713.540694 
L 382.152177 713.762504 
L 377.782318 714.183375 
L 374.883608 714.548082 
L 373.533751 714.825344 
L 372.593732 715.268254 
L 372.235539 715.43319 
" clip-path="url(#pc251671860)" style="fill: none; stroke: #f29888; stroke-width: 0.2"/>
    <path d="M 457.689666 626.052951 
L 455.20648 626.035178 
L 454.318104 625.871664 
L 452.197848 625.091774 
L 451.780904 624.221596 
L 451.146486 623.042874 
L 450.65705 622.662526 
L 449.932136 622.299952 
L 449.315722 621.864152 
" clip-path="url(#pc251671860)" style="fill: none; stroke: #f29888; stroke-width: 0.2"/>
    <path d="M 467.711488 550.688695 
L 467.803405 550.918326 
L 467.857892 551.226869 
L 467.930384 551.570959 
L 467.948388 551.91576 
L 468.020879 552.40488 
L 468.111375 552.858453 
L 468.165862 553.257285 
L 468.292841 553.692374 
L 468.437824 554.072722 
L 468.564802 554.725355 
L 468.709785 555.251443 
L 468.890777 555.813078 
L 469.108251 556.339166 
L 469.271238 556.755771 
L 469.470708 557.281859 
L 469.670178 557.843494 
L 469.887652 558.369582 
L 469.978148 558.913443 
L 470.087122 559.747364 
L 470.2141 560.562801 
L 470.594562 564.551828 
L 470.830041 566.237443 
L 470.703536 572.546946 
L 470.540075 578.421359 
L 469.597686 592.001542 
L 468.419345 597.422383 
L 467.803405 600.957837 
L 467.640418 604.511775 
L 467.368457 605.944299 
L 467.1145 606.959507 
L 465.936632 611.891939 
L 465.610658 613.094832 
L 465.465201 613.632295 
L 464.975766 614.538731 
L 464.015373 617.041204 
L 462.601553 620.214084 
L 461.151251 622.843814 
L 460.136371 624.402883 
L 459.55028 624.864987 
L 459.193982 625.146516 
L 458.160624 625.926406 
L 457.689666 626.052951 
" clip-path="url(#pc251671860)" style="fill: none; stroke: #f29888; stroke-width: 0.2"/>
    <path d="M 505.596551 618.772318 
L 504.989634 616.822224 
" clip-path="url(#pc251671860)" style="fill: none; stroke: #f29888; stroke-width: 0.2"/>
    <path d="M 474.458153 554.075891 
L 473.551549 553.319847 
L 472.854115 552.065056 
" clip-path="url(#pc251671860)" style="fill: none; stroke: #f29888; stroke-width: 0.2"/>
    <path d="M 462.918051 550.022554 
L 461.193893 550.17256 
L 460.526308 550.414987 
L 458.311766 551.689685 
L 454.762529 554.268227 
L 454.034772 554.753793 
L 453.306541 555.08793 
L 453.047846 555.188882 
" clip-path="url(#pc251671860)" style="fill: none; stroke: #f29888; stroke-width: 0.2"/>
    <path d="M 472.854115 552.065056 
L 472.536669 551.561717 
L 470.288961 550.691539 
L 467.711488 550.688695 
" clip-path="url(#pc251671860)" style="fill: none; stroke: #f29888; stroke-width: 0.2"/>
    <path d="M 389.653381 643.941369 
L 389.530551 643.607011 
" clip-path="url(#pc251671860)" style="fill: none; stroke: #f29888; stroke-width: 0.2"/>
    <path d="M 421.355825 618.969957 
L 421.423105 620.802734 
L 421.358668 622.218906 
L 421.551979 623.184349 
L 421.444426 623.913763 
L 420.865442 625.223296 
L 420.00739 626.596102 
L 418.504022 628.560401 
" clip-path="url(#pc251671860)" style="fill: none; stroke: #f29888; stroke-width: 0.2"/>
    <path d="M 449.315722 621.864152 
L 449.098248 621.429063 
L 449.098248 620.848944 
L 449.261235 620.051281 
L 450.095123 615.60868 
" clip-path="url(#pc251671860)" style="fill: none; stroke: #f29888; stroke-width: 0.2"/>
    <path d="M 375.849687 657.768955 
L 376.054368 657.055182 
L 376.253364 656.302307 
L 376.518692 655.748493 
L 377.082988 654.996329 
L 377.281985 654.586833 
L 377.42602 654.165963 
L 377.366627 654.036663 
" clip-path="url(#pc251671860)" style="fill: none; stroke: #f29888; stroke-width: 0.2"/>
    <path d="M 447.049536 512.52669 
L 445.502104 518.807045 
L 445.532427 525.784821 
L 445.411135 527.999368 
L 444.834994 531.337184 
L 444.925963 531.943607 
L 445.198872 532.490312 
L 445.502104 533.278733 
L 445.562751 534.158865 
L 445.411135 535.099425 
L 444.622731 538.527529 
L 444.349348 539.347231 
L 444.319025 541.167211 
L 444.653054 542.502338 
L 444.622731 543.806894 
L 444.713701 544.869023 
L 445.016933 545.718585 
L 445.320165 546.811284 
L 445.229195 548.176269 
L 445.016933 549.238398 
L 445.138226 550.11853 
L 445.350488 551.787082 
L 446.479554 557.69491 
L 446.493768 559.213456 
L 446.578104 559.746653 
L 445.878302 565.11133 
L 445.361386 567.262604 
L 444.137086 569.992575 
L 441.012847 575.30251 
L 437.069409 582.554706 
L 433.459525 587.925781 
L 430.941751 591.263597 
L 430.486429 592.052729 
L 430.183197 593.054429 
L 429.819318 594.722982 
L 429.485289 595.603113 
L 427.877685 597.666943 
L 426.906868 598.91107 
L 426.270081 600.701191 
L 424.480064 605.73884 
L 424.237478 607.408104 
L 424.085862 608.894658 
L 424.085862 609.562221 
L 422.78149 611.565622 
L 421.659057 614.235875 
L 421.416472 615.267434 
L 421.477118 616.147565 
L 421.507441 617.361833 
L 421.355825 618.969957 
L 420.02113 624.61474 
L 419.535485 626.253433 
L 418.504022 628.560401 
L 417.927881 629.56139 
L 417.017711 630.56309 
L 415.319137 631.777359 
L 413.589767 632.748489 
L 410.162296 634.59975 
L 404.944335 637.118575 
L 400.84928 639.060835 
" clip-path="url(#pc251671860)" style="fill: none; stroke: #f29888; stroke-width: 0.2"/>
    <path d="M 444.651723 567.392099 
L 444.954391 567.440336 
L 445.361386 567.262604 
" clip-path="url(#pc251671860)" style="fill: none; stroke: #f29888; stroke-width: 0.2"/>
    <path d="M 452.475495 555.412825 
L 448.725841 556.878051 
L 446.479554 557.69491 
" clip-path="url(#pc251671860)" style="fill: none; stroke: #f29888; stroke-width: 0.2"/>
    <path d="M 453.047846 555.188882 
L 452.475495 555.412825 
" clip-path="url(#pc251671860)" style="fill: none; stroke: #f29888; stroke-width: 0.2"/>
    <path d="M 472.234384 548.00138 
L 472.342885 549.306648 
L 472.536669 551.561717 
" clip-path="url(#pc251671860)" style="fill: none; stroke: #f29888; stroke-width: 0.2"/>
    <path d="M 488.090108 508.524866 
L 488.883249 509.110672 
L 489.055712 509.766149 
L 489.159001 510.766428 
L 489.006911 513.512039 
L 488.901727 515.343394 
L 488.736845 518.150145 
L 488.631661 520.82182 
L 488.496628 523.013617 
L 488.361595 525.475567 
L 487.956022 528.747977 
L 487.656107 530.518904 
L 487.310706 533.025642 
L 487.055802 536.312982 
L 486.755413 538.369702 
L 486.425174 541.146594 
L 486.200119 543.218244 
L 486.035236 545.335393 
L 485.885042 547.211537 
L 485.828186 548.708045 
L 485.665198 549.669222 
L 485.066789 550.88349 
L 484.43237 551.95344 
L 484.033904 552.569816 
L 483.471977 552.968648 
L 482.801076 553.403737 
L 482.221145 553.56654 
L 481.296761 553.657539 
L 478.197634 553.820342 
L 476.892314 553.657539 
L 475.116037 553.167708 
L 473.756704 552.678588 
L 472.854115 552.065056 
" clip-path="url(#pc251671860)" style="fill: none; stroke: #f29888; stroke-width: 0.2"/>
    <path d="M 458.940499 511.149619 
L 459.627035 511.092744 
L 460.250083 511.069995 
L 461.501389 510.978996 
L 463.048346 510.933496 
L 464.663531 510.933496 
L 467.029216 510.819747 
L 476.970491 510.478501 
L 476.492427 512.753477 
L 476.128548 515.597196 
L 475.851849 518.635 
L 475.6936 520.411613 
L 475.598366 522.44274 
L 474.456034 532.946729 
L 474.202077 535.230947 
L 473.78987 537.38933 
L 473.599403 539.420457 
L 473.408935 541.546137 
L 473.194777 543.885807 
L 472.886807 545.734936 
L 472.596842 546.931431 
L 472.234384 548.00138 
L 470.288961 550.691539 
" clip-path="url(#pc251671860)" style="fill: none; stroke: #f29888; stroke-width: 0.2"/>
    <path d="M 458.902121 509.876343 
L 458.913966 510.349112 
L 458.944763 510.942027 
L 458.940499 511.149619 
L 458.655745 512.097999 
L 458.597941 512.444222 
L 458.520712 513.022208 
L 458.462908 513.677685 
L 458.42453 514.775361 
L 458.482334 515.912138 
L 458.617367 517.722877 
L 459.478262 525.736478 
L 460.427758 535.080941 
L 461.409945 542.337402 
L 461.867163 544.561191 
L 462.200244 546.15083 
L 462.4054 547.176702 
L 462.533799 548.022708 
L 462.918051 550.022554 
L 467.711488 550.688695 
" clip-path="url(#pc251671860)" style="fill: none; stroke: #f29888; stroke-width: 0.2"/>
    <path d="M 478.008587 507.277895 
L 479.021572 507.421502 
L 480.573268 507.559423 
L 482.607766 507.628383 
L 484.848841 507.800428 
L 486.676288 508.145229 
L 488.090108 508.524866 
" clip-path="url(#pc251671860)" style="fill: none; stroke: #f29888; stroke-width: 0.2"/>
    <path d="M 479.242363 501.86914 
L 481.047542 501.795203 
L 484.56456 501.561307 
L 490.677057 501.101336 
L 496.663996 500.221915 
L 498.401421 500.054136 
L 500.452502 500.054136 
L 502.985438 500.096081 
L 505.706946 500.221915 
L 513.005364 500.821229 
" clip-path="url(#pc251671860)" style="fill: none; stroke: #f29888; stroke-width: 0.2"/>
    <path d="M 476.970491 510.478501 
L 477.283199 510.061185 
L 477.70346 508.552592 
L 478.008587 507.277895 
L 478.27202 506.179508 
L 478.692281 505.140839 
L 478.98888 504.053117 
L 479.137179 503.13815 
L 479.242363 501.86914 
L 479.310116 500.542545 
L 479.532803 499.454111 
L 479.730377 495.622199 
L 479.730377 494.732115 
L 479.631353 493.61951 
L 479.310116 491.567766 
L 479.038155 489.317673 
L 478.964242 488.303887 
L 479.018729 487.410959 
L 479.55744 486.128441 
" clip-path="url(#pc251671860)" style="fill: none; stroke: #f29888; stroke-width: 0.2"/>
    <path d="M 468.977482 485.161577 
L 468.777065 487.517598 
L 468.837237 488.823577 
L 468.792226 490.128844 
L 468.716892 491.345245 
L 468.806914 492.004988 
L 468.912098 492.275141 
L 469.932663 494.031849 
L 471.0731 495.952781 
L 471.493361 496.793101 
L 471.778589 497.693849 
L 472.048655 498.774462 
L 472.499239 499.525204 
L 473.266795 500.246798 
L 473.941013 500.238267 
L 474.807593 500.213384 
" clip-path="url(#pc251671860)" style="fill: none; stroke: #f29888; stroke-width: 0.2"/>
    <path d="M 499.861199 489.871487 
L 503.712247 491.077935 
L 505.192399 491.742655 
L 507.659003 493.158827 
L 509.417749 494.016919 
L 509.975412 494.252948 
L 511.240932 494.810317 
L 513.021473 495.432381 
L 514.522946 496.011789 
L 515.295241 496.33384 
L 516.174614 496.226489 
L 516.560761 495.88311 
L 516.925587 495.303702 
L 517.011345 494.702967 
L 517.053987 494.145598 
L 517.375697 491.120591 
L 517.354376 489.983814 
L 517.354376 489.14705 
L 517.333055 488.332324 
L 517.204181 487.60291 
L 517.139745 487.023502 
L 517.139745 486.530117 
L 517.211762 485.910186 
" clip-path="url(#pc251671860)" style="fill: none; stroke: #f29888; stroke-width: 0.2"/>
    <path d="M 499.861199 489.871487 
L 495.523559 488.716226 
L 492.506873 487.800548 
L 488.499945 487.005018 
L 486.638858 486.434852 
L 485.618292 486.044552 
L 484.147143 485.743828 
L 480.620648 485.658517 
" clip-path="url(#pc251671860)" style="fill: none; stroke: #f29888; stroke-width: 0.2"/>
    <path d="M 445.532427 525.784821 
L 459.478262 525.736478 
" clip-path="url(#pc251671860)" style="fill: none; stroke: #f29888; stroke-width: 0.2"/>
    <path d="M 445.39929 479.907094 
L 446.515563 482.015001 
L 446.821164 482.632088 
L 449.828374 488.699164 
L 452.794837 494.69017 
L 452.935082 494.992315 
L 454.933097 499.294152 
L 457.359901 505.40104 
L 458.863269 509.763305 
L 458.902121 509.876343 
" clip-path="url(#pc251671860)" style="fill: none; stroke: #f29888; stroke-width: 0.2"/>
    <path d="M 430.844148 452.187938 
L 432.500553 455.867 
L 434.388647 459.369751 
L 435.662696 461.735726 
L 436.595135 463.555706 
L 439.81745 469.660461 
L 441.757188 473.291891 
L 441.968976 473.650911 
L 443.284246 475.901715 
L 444.979503 479.137868 
L 445.39929 479.907094 
" clip-path="url(#pc251671860)" style="fill: none; stroke: #f29888; stroke-width: 0.2"/>
    <path d="M 458.560511 469.276559 
L 455.995357 466.016946 
L 455.387945 465.436827 
L 454.697618 464.469962 
L 453.537282 462.978431 
L 452.045759 461.514627 
L 450.60967 459.857449 
L 449.256023 458.006899 
L 448.113217 456.919176 
L 447.215839 455.736189 
L 446.331728 454.723824 
L 444.063173 452.750283 
L 442.589181 451.314916 
L 439.615611 449.27668 
L 438.744292 449.956329 
L 438.282811 450.14828 
L 437.706196 450.366535 
L 436.911633 450.712047 
L 436.027048 451.173441 
L 435.322507 451.609241 
L 434.719833 451.96826 
L 433.82293 452.544824 
L 433.187564 452.803603 
" clip-path="url(#pc251671860)" style="fill: none; stroke: #f29888; stroke-width: 0.2"/>
    <path d="M 429.048445 451.747161 
L 427.140926 450.667969 
L 424.609885 449.853244 
L 422.574913 449.385452 
L 421.43495 449.12383 
L 416.75333 448.730685 
" clip-path="url(#pc251671860)" style="fill: none; stroke: #f29888; stroke-width: 0.2"/>
    <path d="M 422.574913 449.385452 
L 421.982663 448.274979 
L 420.647968 446.045503 
L 419.571494 444.45302 
L 418.888748 443.073105 
L 418.524869 441.950547 
L 417.766315 439.545471 
L 416.43162 438.271485 
L 414.368694 436.239647 
L 412.215272 434.449526 
L 409.454438 431.750125 
L 407.361663 429.596718 
L 405.662616 428.231733 
" clip-path="url(#pc251671860)" style="fill: none; stroke: #f29888; stroke-width: 0.2"/>
    <path d="M 439.615611 449.27668 
L 442.525218 446.022043 
L 443.601692 444.470794 
L 443.934773 443.638295 
L 444.191099 442.54915 
L 444.357877 441.497685 
L 444.460218 440.382947 
L 444.42184 439.53694 
L 444.216684 438.806815 
L 444.139929 437.832841 
L 444.101551 436.999631 
L 444.178306 436.2951 
L 444.47301 435.218752 
L 444.55024 434.385542 
L 444.60141 433.590723 
L 444.896114 424.620209 
" clip-path="url(#pc251671860)" style="fill: none; stroke: #f29888; stroke-width: 0.2"/>
    <path d="M 430.844148 452.187938 
L 430.644204 447.378497 
L 430.75839 444.372685 
L 430.877314 442.822147 
L 430.980129 441.377538 
L 431.584224 434.249755 
L 431.892194 430.697238 
L 432.396791 427.195197 
L 433.883102 422.151861 
L 434.870028 418.80267 
L 435.319664 416.817043 
L 435.513922 415.828139 
L 435.604892 415.350394 
L 435.627635 414.827861 
L 435.484547 413.943464 
L 435.357568 413.257417 
L 435.078026 412.571369 
L 434.887085 412.22799 
L 434.441239 411.458053 
" clip-path="url(#pc251671860)" style="fill: none; stroke: #f29888; stroke-width: 0.2"/>
    <path d="M 444.896114 424.620209 
L 445.216403 422.493107 
L 445.434351 421.122434 
L 445.562751 419.827831 
L 445.575543 418.046951 
L 445.626714 416.278158 
L 445.562751 414.932368 
L 445.542851 413.982565 
" clip-path="url(#pc251671860)" style="fill: none; stroke: #f29888; stroke-width: 0.2"/>
    <path d="M 479.018729 487.410959 
L 477.070463 486.99933 
L 473.909268 486.518031 
L 470.371876 485.638611 
L 468.977482 485.161577 
L 468.307529 484.781229 
L 467.252849 484.571505 
L 464.196364 483.943043 
" clip-path="url(#pc251671860)" style="fill: none; stroke: #f29888; stroke-width: 0.2"/>
    <path d="M 493.070695 477.68686 
L 493.926378 479.484802 
L 495.343515 481.737027 
L 496.484426 483.883325 
L 497.309785 485.939334 
L 498.3602 487.920696 
L 499.366078 489.496116 
L 499.861199 489.871487 
" clip-path="url(#pc251671860)" style="fill: none; stroke: #f29888; stroke-width: 0.2"/>
    <path d="M 464.196364 483.943043 
L 454.531788 481.54792 
" clip-path="url(#pc251671860)" style="fill: none; stroke: #f29888; stroke-width: 0.2"/>
    <path d="M 458.560511 469.276559 
L 457.373168 471.292756 
L 456.953855 472.215543 
L 456.568181 473.154682 
L 456.30001 474.059696 
L 456.132285 474.948358 
L 455.662749 476.742745 
L 455.059128 479.023408 
L 454.531788 481.54792 
L 453.902108 484.037597 
L 453.415989 485.613728 
L 453.046898 487.123032 
L 452.812367 488.766702 
L 452.644642 490.946413 
L 452.711448 492.338414 
L 452.792941 493.824968 
L 452.935082 494.992315 
" clip-path="url(#pc251671860)" style="fill: none; stroke: #f29888; stroke-width: 0.2"/>
    <path d="M 479.55744 486.128441 
L 480.620648 485.658517 
L 481.609469 485.288122 
L 482.251942 484.892134 
L 489.866385 480.170138 
L 492.041601 478.662256 
L 492.955562 477.887342 
L 493.070695 477.68686 
L 493.438364 477.048445 
L 493.733542 476.530177 
" clip-path="url(#pc251671860)" style="fill: none; stroke: #f29888; stroke-width: 0.2"/>
    <path d="M 479.55744 486.128441 
L 482.647565 477.797054 
L 483.000072 476.021151 
L 483.224654 475.338658 
L 483.698454 474.975373 
L 484.203999 474.818258 
L 484.857843 474.777735 
L 485.641035 474.77418 
L 486.265029 474.686736 
L 486.789526 474.494074 
L 487.390779 473.957322 
" clip-path="url(#pc251671860)" style="fill: none; stroke: #f29888; stroke-width: 0.2"/>
    <path d="M 468.307529 484.781229 
L 468.773748 483.761045 
L 470.071487 481.710012 
L 471.955316 478.967245 
L 473.588032 476.790377 
L 475.257703 474.762094 
L 475.722501 474.135765 
L 476.409038 473.437632 
L 477.324894 472.412471 
L 478.294289 471.053173 
L 478.801255 470.131808 
L 479.137179 469.641266 
" clip-path="url(#pc251671860)" style="fill: none; stroke: #f29888; stroke-width: 0.2"/>
    <path d="M 487.390779 473.957322 
L 481.862952 470.887526 
" clip-path="url(#pc251671860)" style="fill: none; stroke: #f29888; stroke-width: 0.2"/>
    <path d="M 445.39929 479.907094 
L 448.555273 477.43448 
L 452.29782 474.127234 
L 453.937169 472.710351 
L 455.743769 471.393708 
L 457.704354 470.067113 
L 458.560511 469.276559 
L 459.783863 468.146181 
L 462.19977 466.363879 
L 462.714791 465.769542 
L 464.398203 464.561672 
L 465.546695 463.690072 
L 466.663916 462.811363 
" clip-path="url(#pc251671860)" style="fill: none; stroke: #f29888; stroke-width: 0.2"/>
    <path d="M 479.137179 469.641266 
L 481.862952 470.887526 
" clip-path="url(#pc251671860)" style="fill: none; stroke: #f29888; stroke-width: 0.2"/>
    <path d="M 560.535132 503.276371 
L 560.180701 503.133884 
L 555.664438 501.362958 
L 552.081087 499.877825 
L 550.135663 499.098646 
L 517.211762 485.910186 
L 506.520461 481.628255 
L 493.733542 476.530177 
L 487.390779 473.957322 
" clip-path="url(#pc251671860)" style="fill: none; stroke: #f29888; stroke-width: 0.2"/>
    <path d="M 513.005364 500.821229 
L 514.140194 501.948831 
" clip-path="url(#pc251671860)" style="fill: none; stroke: #f29888; stroke-width: 0.2"/>
    <path d="M 560.180701 503.133884 
L 559.964648 502.231003 
L 559.758545 501.437606 
L 559.536333 501.183804 
L 559.234996 501.008915 
L 557.870451 500.390406 
L 556.744228 499.946075 
L 556.366136 500.114565 
L 556.061008 500.356281 
" clip-path="url(#pc251671860)" style="fill: none; stroke: #f29888; stroke-width: 0.2"/>
    <path d="M 557.266356 477.115983 
L 558.41011 476.37946 
L 559.65573 476.786112 
L 560.799484 477.649891 
L 562.172083 479.91207 
L 563.544209 480.547642 
L 573.736598 484.614161 
L 576.837147 486.291955 
L 581.005641 488.478065 
" clip-path="url(#pc251671860)" style="fill: none; stroke: #f29888; stroke-width: 0.2"/>
    <path d="M 555.664438 501.362958 
L 556.061008 500.356281 
L 559.426885 491.198082 
L 562.349758 491.73128 
L 566.467082 491.274152 
L 567.788984 489.901346 
L 569.41554 488.935193 
L 570.9914 489.342555 
L 577.498098 492.189119 
L 578.921394 492.239595 
L 579.734909 491.375815 
L 581.005641 488.478065 
L 581.09813 488.262645 
" clip-path="url(#pc251671860)" style="fill: none; stroke: #f29888; stroke-width: 0.2"/>
    <path d="M 503.083515 423.438644 
L 503.319467 422.98507 
L 503.862916 422.659465 
L 504.58783 422.115603 
L 505.29474 421.680514 
L 505.965641 421.281682 
L 508.877617 419.470944 
L 512.43633 417.25853 
L 513.578189 416.43243 
L 514.846552 415.816053 
L 516.006888 415.345418 
L 517.674191 415.671735 
L 519.088011 415.417933 
L 520.936779 414.765299 
L 521.988142 413.858863 
L 522.966539 412.880624 
L 523.800428 411.721097 
L 524.887799 410.488345 
L 525.939162 409.691392 
L 528.259361 408.059808 
" clip-path="url(#pc251671860)" style="fill: none; stroke: #f29888; stroke-width: 0.2"/>
    <path d="M 455.619633 417.179617 
L 453.006625 416.136683 
L 450.257637 415.470542 
L 447.829885 414.795869 
L 446.347364 414.394194 
L 445.542851 413.982565 
" clip-path="url(#pc251671860)" style="fill: none; stroke: #f29888; stroke-width: 0.2"/>
    <path d="M 445.542851 413.982565 
L 445.213086 413.853887 
L 444.289176 412.652415 
L 442.783913 411.461608 
L 441.558191 410.897841 
L 440.21023 410.120083 
L 439.207669 409.913203 
L 438.470436 409.46816 
L 437.911825 409.434036 
L 437.310573 409.576933 
L 436.784655 410.097333 
L 436.36771 411.352836 
L 436.005253 411.824182 
L 434.887085 412.22799 
" clip-path="url(#pc251671860)" style="fill: none; stroke: #f29888; stroke-width: 0.2"/>
    <path d="M 448.444877 389.993658 
L 428.246775 392.734293 
L 423.774101 395.282265 
L 422.716106 395.041971 
L 420.98484 397.206042 
L 411.41455 400.234603 
L 404.670952 404.85778 
" clip-path="url(#pc251671860)" style="fill: none; stroke: #f29888; stroke-width: 0.2"/>
    <path d="M 433.883102 422.151861 
L 431.963264 421.13452 
L 430.628569 420.345388 
L 429.657752 419.738965 
L 428.383704 419.19297 
L 427.242793 419.076378 
L 426.181006 418.878739 
L 425.604865 418.909309 
L 424.497594 419.076378 
L 423.617747 419.273306 
L 422.025305 420.016227 
L 420.69061 420.304154 
L 417.323312 422.124134 
L 417.171696 422.185274 
L 412.614212 416.353516 
L 411.112739 413.651272 
L 408.024036 409.790923 
L 405.192606 405.673217 
L 404.670952 404.85778 
L 403.820007 403.529052 
L 402.661565 403.014339 
L 402.146544 402.499626 
L 401.54624 401.169476 
L 400.688187 399.325324 
L 399.959009 398.338553 
L 398.972083 397.095137 
L 394.896454 387.315585 
L 394.510307 386.028802 
L 392.23654 383.19859 
L 386.059133 377.108054 
L 380.222388 372.405964 
" clip-path="url(#pc251671860)" style="fill: none; stroke: #f29888; stroke-width: 0.2"/>
    <path d="M 413.528646 382.5488 
L 413.96928 382.424388 
L 414.323683 382.32699 
L 414.580483 382.335521 
L 414.926357 382.406614 
L 415.156624 382.512543 
L 415.436166 382.691697 
" clip-path="url(#pc251671860)" style="fill: none; stroke: #f29888; stroke-width: 0.2"/>
    <path d="M 394.896454 387.315585 
L 395.454117 385.300099 
L 395.196843 382.597854 
L 394.424549 380.410323 
L 393.480739 378.008802 
L 392.536929 376.464662 
L 391.507361 375.435236 
L 390.710429 374.875023 
L 390.485374 373.663599 
L 390.324756 373.127557 
L 390.302961 372.590805 
L 389.841954 371.529387 
L 388.032511 367.672592 
L 387.131817 367.029201 
L 385.801386 365.452358 
L 386.059133 364.927692 
L 387.131817 363.469575 
L 388.093157 363.211507 
L 389.401319 363.232835 
L 392.651115 363.382841 
L 393.916635 363.404169 
L 395.160835 363.243499 
L 399.525956 362.096058 
L 401.166726 361.86003 
L 402.239409 361.731351 
L 403.397851 361.388683 
L 404.159248 361.184646 
L 405.285471 361.023976 
L 406.347257 360.991984 
L 408.191761 360.895298 
L 409.4895 360.87397 
L 410.916112 360.852642 
L 412.518978 360.841267 
" clip-path="url(#pc251671860)" style="fill: none; stroke: #f29888; stroke-width: 0.2"/>
    <path d="M 412.67012 362.396071 
L 411.666138 362.695372 
L 411.762319 364.562274 
L 411.824387 365.138127 
L 411.975055 365.900244 
L 412.081661 366.555721 
L 412.17879 367.113801 
L 412.143255 367.681123 
L 412.276392 368.309586 
L 412.311927 368.912454 
L 412.391526 369.84235 
L 412.471598 370.62224 
L 412.577729 371.570621 
L 412.617529 372.404542 
L 412.604262 373.23633 
L 412.524664 374.653924 
L 412.437958 375.617234 
L 412.317613 376.419163 
L 412.219063 377.108765 
L 412.134726 377.648361 
L 412.258862 378.729685 
L 412.293923 379.456255 
L 412.657328 380.580946 
L 412.914601 381.635255 
L 413.212148 382.108735 
L 413.528646 382.5488 
" clip-path="url(#pc251671860)" style="fill: none; stroke: #f29888; stroke-width: 0.2"/>
    <path d="M 434.441239 411.458053 
L 426.018493 398.701127 
L 423.062927 395.290797 
L 422.716106 395.041971 
L 420.309201 392.168393 
L 418.855108 390.414529 
L 417.703774 388.677016 
L 416.594607 386.918886 
L 415.775881 385.101039 
L 415.436166 382.691697 
L 415.407264 382.488371 
L 415.401578 380.102491 
L 415.400631 379.737783 
L 415.527135 377.145733 
L 415.443273 374.613401 
L 415.024433 372.332738 
L 414.522205 370.093309 
L 413.298379 365.768722 
L 412.67012 362.396071 
L 412.488655 361.420675 
L 412.518978 360.841267 
L 412.700917 357.357 
L 412.434168 348.455447 
L 412.197268 343.904784 
L 412.134726 339.790633 
L 412.647852 336.807571 
L 413.370397 334.202013 
L 414.471035 330.526506 
L 415.461751 328.244421 
L 416.015623 326.967591 
" clip-path="url(#pc251671860)" style="fill: none; stroke: #f29888; stroke-width: 0.2"/>
    <path d="M 415.401578 380.102491 
L 416.127914 379.883524 
L 417.164115 379.358147 
L 418.259067 378.497211 
L 419.368707 377.811163 
L 420.200701 377.256638 
L 420.945041 376.74548 
L 421.485173 376.409921 
L 422.025305 376.249251 
L 422.667778 376.190954 
L 423.382743 375.957769 
L 424.244111 375.504907 
L 424.944862 375.037826 
L 427.134766 374.279264 
L 428.988746 373.856261 
L 430.506802 373.403398 
L 430.944594 373.126136 
L 431.499414 372.73228 
L 431.776587 372.294348 
L 431.893615 371.929641 
L 431.645344 370.003021 
L 431.382859 368.87904 
L 430.886316 366.587713 
L 430.71101 365.026511 
L 430.725698 363.946609 
L 430.725698 363.348006 
L 430.594455 362.399625 
L 430.316808 361.451245 
L 430.346184 360.779416 
L 430.66742 359.904261 
L 431.689407 358.9701 
L 432.536088 358.824359 
L 433.426359 358.605393 
L 434.170699 358.32813 
L 434.856762 358.080015 
L 435.265651 358.050867 
L 435.864061 358.196608 
L 436.68184 358.561315 
L 437.440868 358.780281 
L 438.754716 359.014177 
L 440.316835 359.393103 
" clip-path="url(#pc251671860)" style="fill: none; stroke: #f29888; stroke-width: 0.2"/>
    <path d="M 385.801386 365.452358 
L 383.04529 368.845627 
L 382.241251 369.785476 
L 381.57414 370.862535 
L 381.422524 371.453317 
L 381.058172 371.878454 
L 380.222388 372.405964 
" clip-path="url(#pc251671860)" style="fill: none; stroke: #f29888; stroke-width: 0.2"/>
    <path d="M 481.862952 470.887526 
L 477.574113 468.180305 
L 473.869469 466.09657 
L 471.9122 465.162408 
L 469.402481 464.196254 
" clip-path="url(#pc251671860)" style="fill: none; stroke: #f29888; stroke-width: 0.2"/>
    <path d="M 469.402481 464.196254 
L 473.388562 466.737118 
L 477.249559 468.775354 
L 479.137179 469.641266 
" clip-path="url(#pc251671860)" style="fill: none; stroke: #f29888; stroke-width: 0.2"/>
    <path d="M 469.402481 464.196254 
L 468.100004 463.542199 
L 466.663916 462.811363 
L 460.92051 460.525723 
L 457.882029 459.574499 
L 454.786693 458.680149 
L 449.902287 457.37346 
L 448.113217 456.919176 
L 443.768469 455.825766 
L 441.581881 455.215788 
L 439.437936 454.519788 
" clip-path="url(#pc251671860)" style="fill: none; stroke: #f29888; stroke-width: 0.2"/>
    <path d="M 466.663916 462.811363 
L 469.225279 461.267223 
L 473.155926 458.715696 
L 477.259035 455.992123 
L 479.258946 454.337079 
L 479.776336 453.578516 
L 482.603502 450.337387 
L 486.327571 446.16565 
L 488.878985 442.924521 
L 489.70624 441.166391 
L 490.430681 438.85658 
L 490.878896 437.37358 
L 491.602862 435.925416 
L 491.635554 435.240791 
L 491.672037 434.477963 
L 491.34322 434.0706 
L 491.067468 433.784806 
L 490.687006 433.567262 
L 489.900972 433.27507 
L 489.898129 433.269382 
L 489.494451 433.179805 
L 488.866192 433.135016 
L 488.267783 433.071744 
L 487.368984 432.948042 
L 486.47587 432.827184 
L 485.089057 432.484516 
L 484.166568 432.156066 
L 483.071616 431.732352 
L 482.638089 431.589455 
L 482.194612 431.457222 
L 481.402892 431.053414 
L 480.232132 430.242243 
L 479.249944 429.564727 
L 478.279127 428.848109 
L 477.236767 428.073196 
" clip-path="url(#pc251671860)" style="fill: none; stroke: #f29888; stroke-width: 0.2"/>
    <path d="M 491.635554 435.240791 
L 493.621725 434.936513 
L 495.082925 434.962106 
L 496.62088 435.038887 
L 498.210006 434.5519 
L 499.901946 434.782241 
L 505.002879 433.782674 
L 507.540079 433.116532 
L 508.052731 432.757513 
L 508.950108 431.347739 
L 509.590686 430.092237 
L 509.744671 428.656869 
L 510.077753 426.55536 
L 510.180568 424.530632 
L 510.000997 423.197639 
L 509.616745 421.711084 
L 508.987065 419.652942 
L 508.877617 419.470944 
" clip-path="url(#pc251671860)" style="fill: none; stroke: #f29888; stroke-width: 0.2"/>
    <path d="M 489.900972 433.27507 
L 489.985308 432.875527 
L 489.985308 432.439727 
L 490.087649 431.978334 
L 490.216049 431.568127 
L 490.44679 431.106734 
L 490.625886 430.594153 
L 490.907797 430.133471 
L 491.548849 429.517805 
L 492.035916 428.928444 
L 492.625323 428.646916 
L 493.137975 428.287897 
L 493.779026 428.185523 
L 494.470775 427.698536 
L 495.111826 427.109175 
L 496.034315 426.467916 
L 497.059619 425.750588 
L 497.597856 425.238007 
L 497.614439 424.473758 
L 497.188019 423.981794 
L 497.085204 423.341246 
L 496.700952 422.598325 
L 496.598611 422.033846 
L 496.624197 421.367705 
L 496.649782 420.67597 
L 496.675367 420.16339 
L 496.754018 419.29179 
" clip-path="url(#pc251671860)" style="fill: none; stroke: #f29888; stroke-width: 0.2"/>
    <path d="M 477.236767 428.073196 
L 475.959875 427.468905 
L 472.98062 425.594183 
L 467.738494 422.613254 
L 463.650547 420.401551 
L 459.418563 418.333456 
L 455.619633 417.179617 
" clip-path="url(#pc251671860)" style="fill: none; stroke: #f29888; stroke-width: 0.2"/>
    <path d="M 439.157351 333.65073 
L 437.946886 333.390131 
" clip-path="url(#pc251671860)" style="fill: none; stroke: #f29888; stroke-width: 0.2"/>
    <path d="M 416.015623 326.967591 
L 419.146969 319.84905 
L 425.087949 306.167915 
L 425.448038 305.338971 
L 427.727016 295.406569 
L 428.284679 292.705036 
L 428.928574 290.475559 
L 429.478182 287.903415 
L 429.326566 286.645069 
L 428.806333 285.137898 
L 427.565451 282.8615 
L 420.774946 270.403876 
L 421.233173 268.342256 
" clip-path="url(#pc251671860)" style="fill: none; stroke: #f29888; stroke-width: 0.2"/>
    <path d="M 343.700923 719.890009 
L 343.784184 720.040689 
" clip-path="url(#pc251671860)" style="fill: none; stroke: #f29888; stroke-width: 0.2"/>
    <path d="M 288.851508 702.44647 
L 293.194297 699.295081 
L 301.1006 694.581616 
L 306.708499 692.505701 
L 310.689842 694.861722 
L 313.140811 695.197281 
L 324.365137 695.060072 
L 329.015486 696.482642 
L 330.147868 696.601368 
L 333.836877 698.375849 
L 337.381376 700.079948 
L 341.072753 702.917269 
L 344.390776 706.645385 
L 345.647768 709.173452 
L 346.415324 713.393532 
L 346.828951 714.772736 
L 344.795875 718.628819 
L 343.700923 719.890009 
L 343.527823 720.089341 
" clip-path="url(#pc251671860)" style="fill: none; stroke: #f29888; stroke-width: 0.2"/>
    <path d="M 290.518265 707.712028 
L 296.390553 706.252241 
L 302.502575 703.840056 
L 309.792465 703.109931 
L 311.418547 702.549007 
L 309.736556 707.037818 
L 310.577552 710.067802 
L 312.811303 709.697375 
" clip-path="url(#pc251671860)" style="fill: none; stroke: #f29888; stroke-width: 0.2"/>
    <path d="M 322.06488 707.746443 
L 323.474866 706.926202 
L 324.708168 704.681086 
L 324.702483 704.061866 
L 325.263462 702.686928 
L 325.936258 701.90135 
" clip-path="url(#pc251671860)" style="fill: none; stroke: #f29888; stroke-width: 0.2"/>
    <path d="M 322.540208 678.880157 
L 325.367224 687.891766 
L 327.324967 692.318015 
L 329.015486 696.482642 
" clip-path="url(#pc251671860)" style="fill: none; stroke: #f29888; stroke-width: 0.2"/>
    <path d="M 56.490831 749.995757 
L 59.48667 750.656922 
L 72.350818 753.478603 
L 74.773833 755.330575 
L 83.091395 764.808692 
L 89.003947 772.481758 
L 89.488645 774.73043 
L 87.637981 784.298835 
L 85.446621 797.077301 
" clip-path="url(#pc251671860)" style="fill: none; stroke: #f29888; stroke-width: 0.2"/>
    <path d="M 88.420265 785.652349 
L 88.356262 785.574954 
L 87.637981 784.298835 
L 88.885497 781.763659 
L 89.180209 781.44338 
" clip-path="url(#pc251671860)" style="fill: none; stroke: #f29888; stroke-width: 0.2"/>
    <path d="M 90.071738 770.84528 
L 85.553734 766.785077 
L 83.091395 764.808692 
L 77.832687 762.49817 
L 72.861575 760.275092 
L 67.626083 760.010626 
" clip-path="url(#pc251671860)" style="fill: none; stroke: #f29888; stroke-width: 0.2"/>
    <path d="M 56.439149 749.689529 
L 56.490831 749.995757 
" clip-path="url(#pc251671860)" style="fill: none; stroke: #f29888; stroke-width: 0.2"/>
    <path d="M 368.944119 377.435947 
L 373.745066 375.802787 
L 376.308799 376.879845 
L 380.222388 372.405964 
" clip-path="url(#pc251671860)" style="fill: none; stroke: #f29888; stroke-width: 0.2"/>
    <path d="M 331.179243 245.564733 
L 333.491476 248.078545 
L 338.77956 254.051067 
L 339.427719 254.819582 
L 341.397306 253.062163 
L 345.99838 250.710407 
L 347.26769 248.160302 
L 348.373066 248.387088 
" clip-path="url(#pc251671860)" style="fill: none; stroke: #f29888; stroke-width: 0.2"/>
    <path d="M 319.55417 214.725269 
L 319.465569 209.946398 
L 317.423964 205.294073 
L 312.929496 198.532419 
L 304.076065 190.968125 
L 293.565756 182.332459 
L 289.448906 179.269773 
L 284.463581 175.710147 
L 283.669491 175.47483 
L 282.930363 175.47483 
" clip-path="url(#pc251671860)" style="fill: none; stroke: #f29888; stroke-width: 0.2"/>
    <path d="M 281.049376 175.931958 
L 280.013649 176.22415 
L 278.43163 176.6372 
L 277.154265 176.59881 
" clip-path="url(#pc251671860)" style="fill: none; stroke: #f29888; stroke-width: 0.2"/>
    <path d="M 282.930363 175.47483 
L 281.049376 175.931958 
" clip-path="url(#pc251671860)" style="fill: none; stroke: #f29888; stroke-width: 0.2"/>
    <path d="M 278.788876 160.732988 
L 274.140896 165.813293 
L 269.859637 169.989295 
" clip-path="url(#pc251671860)" style="fill: none; stroke: #f29888; stroke-width: 0.2"/>
    <path d="M 252.035748 145.362683 
L 255.133454 145.007218 
L 256.810233 146.080012 
L 259.291998 148.894583 
L 265.865502 154.959526 
L 265.953155 155.0619 
L 266.799836 156.051514 
L 267.642726 157.036863 
L 269.487231 160.253821 
L 271.331735 162.465524 
L 274.140896 165.813293 
L 276.899361 169.100632 
L 280.487449 172.953872 
L 280.013649 176.22415 
" clip-path="url(#pc251671860)" style="fill: none; stroke: #f29888; stroke-width: 0.2"/>
    <path d="M 277.154265 176.59881 
L 275.267119 175.570094 
L 269.859637 169.989295 
L 265.53242 165.094542 
L 261.211836 160.45999 
L 256.458673 155.393904 
L 250.733272 149.541529 
L 250.100748 148.796475 
L 247.918898 146.060816 
L 245.735627 143.656452 
L 241.630149 141.040941 
L 238.947966 139.383052 
L 238.291753 138.936588 
" clip-path="url(#pc251671860)" style="fill: none; stroke: #f29888; stroke-width: 0.2"/>
    <path d="M 264.165981 159.334588 
L 265.173754 158.811344 
L 266.194319 157.737129 
L 266.369152 157.079519 
L 266.799836 156.051514 
" clip-path="url(#pc251671860)" style="fill: none; stroke: #f29888; stroke-width: 0.2"/>
    <path d="M 256.624503 139.843024 
L 260.466549 140.871739 
L 267.121072 145.487807 
L 271.840596 148.761639 
L 272.762137 149.115682 
L 275.811042 152.728628 
L 278.788876 160.732988 
" clip-path="url(#pc251671860)" style="fill: none; stroke: #f29888; stroke-width: 0.2"/>
    <path d="M 267.121072 145.487807 
L 267.255632 146.020293 
L 267.013994 147.68458 
L 266.597523 149.362375 
L 266.301872 150.423082 
L 266.342145 151.724795 
L 266.288605 153.040015 
L 266.61079 153.711133 
L 265.953155 155.0619 
" clip-path="url(#pc251671860)" style="fill: none; stroke: #f29888; stroke-width: 0.2"/>
    <path d="M 256.624503 139.843024 
L 254.67908 142.265162 
L 253.560911 143.890348 
L 252.035748 145.362683 
L 250.100748 148.796475 
" clip-path="url(#pc251671860)" style="fill: none; stroke: #f29888; stroke-width: 0.2"/>
    <path d="M 238.291753 138.936588 
L 236.274785 137.563072 
L 235.055223 136.731284 
L 230.915157 134.393035 
L 229.892223 133.236352 
" clip-path="url(#pc251671860)" style="fill: none; stroke: #f29888; stroke-width: 0.2"/>
    <path d="M 439.437936 454.519788 
L 433.187564 452.803603 
L 430.844148 452.187938 
L 429.048445 451.747161 
L 427.790032 451.438617 
L 416.75333 448.730685 
L 377.474097 439.094119 
" clip-path="url(#pc251671860)" style="fill: none; stroke: #f29888; stroke-width: 0.2"/>
    <path d="M 215.76909 117.44148 
L 218.648944 118.175303 
L 220.087402 118.852108 
L 223.09935 122.242532 
L 225.429973 126.043164 
L 229.892223 133.236352 
" clip-path="url(#pc251671860)" style="fill: none; stroke: #f29888; stroke-width: 0.2"/>
    <path d="M 238.947966 139.383052 
L 251.216548 140.3293 
L 256.624503 139.843024 
L 258.287542 138.507897 
L 259.116218 137.073241 
L 258.839993 135.417485 
L 258.729597 133.430436 
L 257.34847 130.891705 
L 256.575228 127.911487 
L 256.15888 126.221216 
" clip-path="url(#pc251671860)" style="fill: none; stroke: #f29888; stroke-width: 0.2"/>
    <path d="M 272.796477 93.368848 
L 273.385658 92.69913 
L 272.955922 90.953086 
" clip-path="url(#pc251671860)" style="fill: none; stroke: #f29888; stroke-width: 0.2"/>
    <path d="M 272.955922 90.953086 
L 278.66095 92.00313 
L 283.134097 93.221663 
L 287.099331 94.643523 
L 294.724197 96.065383 
L 296.648774 96.01704 
L 297.919506 95.15326 
L 298.587564 93.323326 
L 298.384304 90.073666 
L 296.757748 86.214028 
" clip-path="url(#pc251671860)" style="fill: none; stroke: #f29888; stroke-width: 0.2"/>
    <path d="M 298.587564 93.323326 
L 302.079945 90.989344 
L 303.401374 90.430553 
L 305.841445 88.247287 
" clip-path="url(#pc251671860)" style="fill: none; stroke: #f29888; stroke-width: 0.2"/>
    <path d="M 238.06916 108.494345 
L 237.736933 108.936769 
" clip-path="url(#pc251671860)" style="fill: none; stroke: #f29888; stroke-width: 0.2"/>
    <path d="M 223.09935 122.242532 
L 232.550716 112.692611 
L 237.736933 108.936769 
L 242.42945 109.012838 
L 247.284954 108.092895 
L 257.665916 103.075152 
L 263.525877 97.80645 
L 265.033983 96.403786 
L 272.955922 90.953086 
L 282.740983 81.397823 
" clip-path="url(#pc251671860)" style="fill: none; stroke: #f29888; stroke-width: 0.2"/>
    <path d="M 418.19084 306.957758 
L 417.651182 307.463229 
L 417.316679 307.975099 
L 417.316679 308.38886 
L 417.316679 308.959026 
L 417.277353 309.490801 
L 416.942377 312.935256 
L 416.8244 314.21493 
L 416.548649 316.517632 
L 416.528749 317.737588 
L 416.450098 319.174377 
L 416.371447 319.981283 
L 416.509323 320.906913 
L 416.430672 321.654812 
L 416.135021 323.760586 
L 415.819944 325.256382 
L 415.524766 327.047926 
L 415.461751 328.244421 
" clip-path="url(#pc251671860)" style="fill: none; stroke: #f29888; stroke-width: 0.2"/>
    <path d="M 425.087949 306.167915 
L 423.440546 306.223367 
L 422.495315 306.341382 
L 421.88506 306.322187 
L 421.195681 306.578121 
L 420.289775 306.833345 
L 419.502319 307.011078 
L 418.419212 306.991172 
L 418.19084 306.957758 
L 417.336105 306.833345 
L 416.450098 306.735237 
L 415.623317 306.597317 
L 414.815961 306.597317 
L 414.835387 307.247106 
L 414.993163 308.093113 
L 414.796062 308.290041 
" clip-path="url(#pc251671860)" style="fill: none; stroke: #f29888; stroke-width: 0.2"/>
    <path d="M 421.433055 283.374081 
L 427.565451 282.8615 
" clip-path="url(#pc251671860)" style="fill: none; stroke: #f29888; stroke-width: 0.2"/>
    <path d="M 421.433055 283.374081 
L 414.283884 286.11045 
L 412.54409 286.994136 
L 406.894022 288.16717 
L 403.877337 288.187787 
L 402.514687 287.756964 
L 401.00516 287.171868 
L 399.497054 287.172579 
L 392.87238 282.875719 
L 386.66465 277.420043 
L 376.513007 268.942204 
L 375.664431 268.214923 
L 371.979213 265.782121 
L 371.922831 264.714304 
L 368.420973 262.383165 
L 365.040883 260.214829 
L 363.052344 258.431817 
L 360.961937 257.224658 
L 356.858828 254.48189 
L 352.53777 252.312132 
L 350.455418 251.152605 
L 348.373066 248.387088 
L 346.201166 247.138695 
L 345.531686 245.915896 
L 344.407832 243.664381 
L 340.814058 238.458241 
L 336.990017 233.988625 
L 333.814608 230.06287 
L 328.463035 223.59483 
L 324.025896 218.785389 
L 321.359822 216.843129 
L 319.55417 214.725269 
" clip-path="url(#pc251671860)" style="fill: none; stroke: #f29888; stroke-width: 0.2"/>
    <path d="M 385.258884 254.387336 
L 380.391535 249.156314 
L 378.5494 247.565964 
L 371.515836 240.035084 
L 359.735742 234.756429 
L 354.468032 232.421025 
L 349.714868 228.54148 
L 344.843255 225.018823 
L 342.347749 222.72323 
L 339.773593 221.179801 
L 334.901979 218.25077 
L 333.63409 216.351166 
L 332.604522 215.915365 
L 330.663837 215.757539 
L 328.010082 215.876264 
L 323.256918 213.10506 
L 320.167741 207.999872 
L 317.423964 205.294073 
" clip-path="url(#pc251671860)" style="fill: none; stroke: #f29888; stroke-width: 0.2"/>
    <path d="M 385.751835 75.523052 
L 385.405762 77.077868 
L 383.814741 78.748553 
L 382.142227 89.751615 
L 380.265978 98.798908 
L 376.471786 113.551415 
L 376.145338 119.786981 
L 376.308799 121.417143 
L 376.349546 123.658705 
L 374.636284 127.489906 
L 374.595537 129.771991 
L 372.188633 138.004559 
L 370.801346 143.344353 
L 369.047337 147.134321 
L 367.782765 149.294837 
L 367.456316 152.474115 
L 367.945752 156.223559 
L 371.586432 162.761981 
L 376.073794 169.120538 
L 379.418823 173.767176 
L 381.37704 182.16468 
L 382.682359 195.127065 
L 382.087266 199.831288 
L 381.798722 215.800195 
L 381.683588 226.984544 
L 383.413907 231.769813 
L 383.702451 237.189942 
L 384.163932 245.088373 
L 385.258884 254.387336 
L 385.433243 255.870336 
L 388.77922 261.001828 
L 391.837126 263.827063 
L 394.548685 265.326415 
L 398.586884 270.861715 
L 402.394816 274.378685 
L 411.683195 278.876738 
L 421.433055 283.374081 
" clip-path="url(#pc251671860)" style="fill: none; stroke: #f29888; stroke-width: 0.2"/>
   </g>
   <g id="LineCollection_2">
    <path d="M 40.669221 759.165331 
L 37.487179 755.336973 
L 37.192377 754.849816 
" clip-path="url(#pc251671860)" style="fill: none; stroke-dasharray: 3.7,1.6; stroke-dashoffset: 0; stroke: #f29888"/>
   </g>
  </g>
 </g>
 <defs>
  <clipPath id="pc251671860">
   <rect x="7.2" y="7.2" width="606.694931" height="831.6"/>
  </clipPath>
 </defs>
</svg>
