<?xml version="1.0" encoding="utf-8" standalone="no"?>
<!DOCTYPE svg PUBLIC "-//W3C//DTD SVG 1.1//EN"
  "http://www.w3.org/Graphics/SVG/1.1/DTD/svg11.dtd">
<svg xmlns:xlink="http://www.w3.org/1999/xlink" width="408.437197pt" height="846pt" viewBox="0 0 408.437197 846" xmlns="http://www.w3.org/2000/svg" version="1.1">
 <metadata>
  <rdf:RDF xmlns:dc="http://purl.org/dc/elements/1.1/" xmlns:cc="http://creativecommons.org/ns#" xmlns:rdf="http://www.w3.org/1999/02/22-rdf-syntax-ns#">
   <cc:Work>
    <dc:type rdf:resource="http://purl.org/dc/dcmitype/StillImage"/>
    <dc:date>2025-03-16T14:30:04.371725</dc:date>
    <dc:format>image/svg+xml</dc:format>
    <dc:creator>
     <cc:Agent>
      <dc:title>Matplotlib v3.10.1, https://matplotlib.org/</dc:title>
     </cc:Agent>
    </dc:creator>
   </cc:Work>
  </rdf:RDF>
 </metadata>
 <defs>
  <style type="text/css">*{stroke-linejoin: round; stroke-linecap: butt}</style>
 </defs>
 <g id="figure_1">
  <g id="patch_1">
   <path d="M 0 846 
L 408.437197 846 
L 408.437197 0 
L 0 0 
z
" style="fill: #ffffff"/>
  </g>
  <g id="axes_1">
   <g id="PatchCollection_1">
    <path d="M 31.03805 184.032829 
L 37.016167 226.438931 
L 25.110782 242.589625 
L 36.389496 358.098216 
L 54.49838 362.290532 
L 60.150792 373.233711 
L 73.429083 409.59589 
L 70.188531 438.323533 
L 94.983287 698.723921 
L 99.320513 766.610675 
L 113.367027 795.03828 
L 140.208084 798.963438 
L 208.754409 801 
L 243.279065 793.125021 
L 247.965359 783.408712 
L 309.013613 771.793529 
L 277.956265 731.83089 
L 315.182755 701.732525 
L 307.872961 721.646027 
L 333.253159 741.945881 
L 362.705348 676.858114 
L 379.608989 678.191846 
L 380.851338 647.014576 
L 380.032267 606.573108 
L 374.471931 584.127775 
L 362.627014 583.258486 
L 355.959009 527.626037 
L 359.872958 474.626116 
L 366.393915 453.313119 
L 360.227522 404.332889 
L 343.453063 383.262389 
L 329.869682 366.914411 
L 349.113722 322.39571 
L 373.243325 280.729428 
L 375.487524 271.812536 
L 381.901288 246.325718 
L 383.326416 240.664036 
L 366.98623 233.880293 
L 367.952348 228.613182 
L 364.821739 227.750058 
L 366.117685 212.684435 
L 326.495826 170.609197 
L 299.004734 155.288746 
L 239.971173 102.09154 
L 217.020702 106.123562 
L 207.784168 45 
L 179.955003 51.555632 
L 180.65726 100.141291 
L 155.756685 85.209246 
L 90.705154 54.539575 
L 105.790622 180.407709 
L 55.658272 188.426541 
L 31.03805 184.032829 
" clip-path="url(#p06505f69e3)" style="fill: #fbd6c9"/>
   </g>
   <g id="PatchCollection_2">
    <path d="M 207.815776 455.620948 
L 209.040259 455.49559 
L 209.137833 456.440916 
L 207.91335 456.566274 
L 207.815776 455.620948 
" clip-path="url(#p06505f69e3)" style="fill: #e6482f"/>
    <path d="M 210.821326 440.337489 
L 211.590922 446.987653 
L 209.242278 447.260976 
L 208.472682 440.610811 
L 210.821326 440.337489 
" clip-path="url(#p06505f69e3)" style="fill: #e6482f"/>
    <path d="M 209.941787 431.71858 
L 210.884543 438.315313 
L 208.434202 438.664672 
L 207.49282 432.069994 
L 209.941787 431.71858 
" clip-path="url(#p06505f69e3)" style="fill: #e6482f"/>
    <path d="M 217.438483 388.391812 
L 215.47876 388.6713 
L 214.424687 381.297755 
L 216.385784 381.018267 
L 217.438483 388.391812 
" clip-path="url(#p06505f69e3)" style="fill: #e6482f"/>
    <path d="M 223.350634 380.212685 
L 224.319501 387.134117 
L 222.568669 387.378669 
L 221.599802 380.457237 
L 223.350634 380.212685 
" clip-path="url(#p06505f69e3)" style="fill: #e6482f"/>
    <path d="M 215.790721 375.802532 
L 214.269394 376.055304 
L 213.848864 373.535804 
L 215.370192 373.283032 
L 215.790721 375.802532 
" clip-path="url(#p06505f69e3)" style="fill: #e6482f"/>
    <path d="M 222.403755 368.301574 
L 223.383617 375.021611 
L 221.389537 375.311374 
L 220.409675 368.591337 
L 222.403755 368.301574 
" clip-path="url(#p06505f69e3)" style="fill: #e6482f"/>
    <path d="M 221.467871 362.637837 
L 221.958489 367.152797 
L 219.99052 367.366523 
L 219.499902 362.851563 
L 221.467871 362.637837 
" clip-path="url(#p06505f69e3)" style="fill: #e6482f"/>
    <path d="M 226.900399 344.740345 
L 229.137726 364.526434 
L 227.839032 364.674399 
L 225.601704 344.888309 
L 226.900399 344.740345 
" clip-path="url(#p06505f69e3)" style="fill: #e6482f"/>
    <path d="M 212.045809 345.247944 
L 212.485579 349.762905 
L 211.05083 349.902648 
L 210.611061 345.387688 
L 212.045809 345.247944 
" clip-path="url(#p06505f69e3)" style="fill: #e6482f"/>
    <path d="M 201.55868 435.14847 
L 199.247142 435.464949 
L 198.195818 427.76465 
L 200.507356 427.448171 
L 201.55868 435.14847 
" clip-path="url(#p06505f69e3)" style="fill: #e6482f"/>
    <path d="M 208.698064 422.89211 
L 209.46766 429.544329 
L 207.002202 429.829982 
L 206.232606 423.177762 
L 208.698064 422.89211 
" clip-path="url(#p06505f69e3)" style="fill: #e6482f"/>
    <path d="M 183.195554 418.194249 
L 183.398948 419.971873 
L 181.683847 420.169159 
L 182.122242 423.995675 
L 183.863454 423.796335 
L 184.077842 425.660271 
L 180.746588 426.042512 
L 179.889037 418.574435 
L 183.195554 418.194249 
" clip-path="url(#p06505f69e3)" style="fill: #e6482f"/>
    <path d="M 207.771799 416.24811 
L 208.23768 420.436316 
L 206.348045 420.645932 
L 205.882164 416.457726 
L 207.771799 416.24811 
" clip-path="url(#p06505f69e3)" style="fill: #e6482f"/>
    <path d="M 189.57771 409.984296 
L 189.860811 412.209923 
L 178.36771 413.675179 
L 178.084608 411.449552 
L 179.036984 411.328304 
L 178.561483 407.968285 
L 181.358142 407.571659 
L 181.840515 410.970724 
L 189.57771 409.984296 
" clip-path="url(#p06505f69e3)" style="fill: #e6482f"/>
    <path d="M 189.322094 403.956814 
L 191.336788 403.712262 
L 191.646001 406.256423 
L 189.629932 406.500975 
L 189.322094 403.956814 
" clip-path="url(#p06505f69e3)" style="fill: #e6482f"/>
    <path d="M 199.843579 383.854246 
L 197.58976 384.17278 
L 195.353807 368.352951 
L 197.606252 368.034417 
L 199.843579 383.854246 
" clip-path="url(#p06505f69e3)" style="fill: #e6482f"/>
    <path d="M 207.781419 376.78896 
L 205.506986 377.140375 
L 204.520253 370.726541 
L 206.79606 370.377182 
L 207.781419 376.78896 
" clip-path="url(#p06505f69e3)" style="fill: #e6482f"/>
    <path d="M 197.233822 360.05052 
L 197.736808 363.883202 
L 194.094967 364.359975 
L 193.591981 360.529348 
L 197.233822 360.05052 
" clip-path="url(#p06505f69e3)" style="fill: #e6482f"/>
    <path d="M 205.255493 358.757889 
L 205.776345 363.09406 
L 203.151471 363.410538 
L 202.630619 359.072313 
L 205.255493 358.757889 
" clip-path="url(#p06505f69e3)" style="fill: #e6482f"/>
    <path d="M 235.985762 368.815338 
L 232.031959 369.22224 
L 231.82032 367.158962 
L 235.772749 366.750006 
L 235.985762 368.815338 
" clip-path="url(#p06505f69e3)" style="fill: #e6482f"/>
    <path d="M 234.86435 359.212057 
L 235.44567 363.486576 
L 232.610531 363.870871 
L 232.030585 359.596353 
L 234.86435 359.212057 
" clip-path="url(#p06505f69e3)" style="fill: #e6482f"/>
    <path d="M 234.164841 352.526956 
L 234.638968 356.737768 
L 231.838186 357.052192 
L 231.365434 352.84138 
L 234.164841 352.526956 
" clip-path="url(#p06505f69e3)" style="fill: #e6482f"/>
    <path d="M 233.884488 349.797841 
L 230.83771 350.235568 
L 230.278378 346.35151 
L 233.325156 345.911728 
L 233.884488 349.797841 
" clip-path="url(#p06505f69e3)" style="fill: #e6482f"/>
    <path d="M 235.069117 324.863833 
L 237.629401 322.860153 
L 239.539649 321.197612 
L 241.840194 323.959608 
L 235.89506 328.006016 
L 233.990308 325.82149 
L 235.069117 324.863833 
" clip-path="url(#p06505f69e3)" style="fill: #e6482f"/>
    <path d="M 241.760486 319.487804 
L 243.413744 321.721651 
L 243.986819 322.379269 
L 241.840194 323.959608 
L 239.539649 321.197612 
L 241.760486 319.487804 
" clip-path="url(#p06505f69e3)" style="fill: #e6482f"/>
    <path d="M 233.465333 317.806768 
L 235.404442 320.135147 
L 237.629401 322.860153 
L 235.069117 324.863833 
L 231.109818 319.944027 
L 233.465333 317.806768 
" clip-path="url(#p06505f69e3)" style="fill: #e6482f"/>
    <path d="M 247.954364 314.902972 
L 249.607623 316.810065 
L 243.413744 321.721651 
L 241.760486 319.487804 
L 247.954364 314.902972 
" clip-path="url(#p06505f69e3)" style="fill: #e6482f"/>
    <path d="M 239.437953 312.829419 
L 239.657838 313.102742 
L 241.377061 315.157799 
L 235.404442 320.135147 
L 233.465333 317.806768 
L 239.437953 312.829419 
" clip-path="url(#p06505f69e3)" style="fill: #e6482f"/>
    <path d="M 251.629188 311.717634 
L 253.282447 313.624726 
L 249.607623 316.810065 
L 247.954364 314.902972 
L 251.629188 311.717634 
" clip-path="url(#p06505f69e3)" style="fill: #e6482f"/>
    <path d="M 204.380077 352.84138 
L 204.848706 356.585694 
L 202.328277 356.900118 
L 201.861022 353.157859 
L 204.380077 352.84138 
" clip-path="url(#p06505f69e3)" style="fill: #e6482f"/>
    <path d="M 203.506035 346.086408 
L 204.125835 350.264339 
L 201.536692 350.648634 
L 200.915517 346.472758 
L 203.506035 346.086408 
" clip-path="url(#p06505f69e3)" style="fill: #e6482f"/>
    <path d="M 209.034762 343.28331 
L 209.196927 344.36838 
L 206.31094 344.797887 
L 206.150149 343.712817 
L 209.034762 343.28331 
" clip-path="url(#p06505f69e3)" style="fill: #e6482f"/>
    <path d="M 202.805152 340.802856 
L 203.342495 344.415646 
L 200.753352 344.801997 
L 200.216009 341.187152 
L 202.805152 340.802856 
" clip-path="url(#p06505f69e3)" style="fill: #e6482f"/>
    <path d="M 207.852882 340.210999 
L 208.133235 342.765435 
L 204.97514 343.11274 
L 204.696161 340.556249 
L 207.852882 340.210999 
" clip-path="url(#p06505f69e3)" style="fill: #e6482f"/>
    <path d="M 136.89607 329.78775 
L 137.552976 333.250521 
L 134.429238 333.842378 
L 133.772332 330.379607 
L 136.89607 329.78775 
" clip-path="url(#p06505f69e3)" style="fill: #e6482f"/>
    <path d="M 209.21067 324.107572 
L 209.353595 325.130991 
L 205.364061 325.692021 
L 205.221136 324.666548 
L 209.21067 324.107572 
" clip-path="url(#p06505f69e3)" style="fill: #e6482f"/>
    <path d="M 209.140582 323.092374 
L 207.305918 323.338981 
L 206.991208 320.994161 
L 208.825872 320.747554 
L 209.140582 323.092374 
" clip-path="url(#p06505f69e3)" style="fill: #e6482f"/>
    <path d="M 138.788453 310.071533 
L 141.148092 309.617365 
L 141.656575 312.270444 
L 139.296937 312.722556 
L 138.788453 310.071533 
" clip-path="url(#p06505f69e3)" style="fill: #e6482f"/>
    <path d="M 135.615241 311.366219 
L 137.565344 310.992198 
L 137.947394 312.987659 
L 135.998665 313.361679 
L 132.788348 313.976141 
L 132.406298 311.980681 
L 131.415442 306.812212 
L 134.624386 306.19775 
L 136.432938 305.850446 
L 136.788876 307.708217 
L 134.980324 308.053467 
L 135.615241 311.366219 
" clip-path="url(#p06505f69e3)" style="fill: #e6482f"/>
    <path d="M 211.391652 339.635583 
L 211.889141 342.903124 
L 209.650439 343.244264 
L 209.15295 339.976723 
L 211.391652 339.635583 
" clip-path="url(#p06505f69e3)" style="fill: #e6482f"/>
    <path d="M 210.819951 335.307633 
L 208.728298 335.644663 
L 208.134609 331.970221 
L 210.224888 331.631136 
L 210.819951 335.307633 
" clip-path="url(#p06505f69e3)" style="fill: #e6482f"/>
    <path d="M 217.854889 330.897481 
L 218.198459 334.033498 
L 215.958383 334.27805 
L 215.614813 331.142033 
L 217.854889 330.897481 
" clip-path="url(#p06505f69e3)" style="fill: #e6482f"/>
    <path d="M 210.015998 329.146572 
L 208.083761 329.508262 
L 207.593143 326.881899 
L 209.52538 326.522264 
L 210.015998 329.146572 
" clip-path="url(#p06505f69e3)" style="fill: #e6482f"/>
    <path d="M 216.875028 325.087835 
L 217.111404 328.579377 
L 215.047236 328.71912 
L 214.81086 325.227579 
L 216.875028 325.087835 
" clip-path="url(#p06505f69e3)" style="fill: #e6482f"/>
    <path d="M 215.650545 319.487804 
L 215.999612 322.706024 
L 214.39033 322.880703 
L 214.039889 319.662484 
L 215.650545 319.487804 
" clip-path="url(#p06505f69e3)" style="fill: #e6482f"/>
    <path d="M 231.109818 319.944027 
L 230.20829 320.696178 
L 226.997973 316.845001 
L 227.8995 316.09285 
L 231.109818 319.944027 
" clip-path="url(#p06505f69e3)" style="fill: #e6482f"/>
    <path d="M 233.465333 317.806768 
L 231.109818 319.944027 
L 227.8995 316.09285 
L 227.263209 315.147524 
L 229.614601 313.186999 
L 233.465333 317.806768 
" clip-path="url(#p06505f69e3)" style="fill: #e6482f"/>
    <path d="M 214.70504 310.14346 
L 215.335835 313.421276 
L 213.516288 313.770636 
L 212.885494 310.49282 
L 214.70504 310.14346 
" clip-path="url(#p06505f69e3)" style="fill: #e6482f"/>
    <path d="M 214.530507 304.822917 
L 214.977148 308.394606 
L 212.737072 308.674094 
L 212.290431 305.102405 
L 214.530507 304.822917 
" clip-path="url(#p06505f69e3)" style="fill: #e6482f"/>
    <path d="M 240.956532 309.136482 
L 238.247827 311.39499 
L 239.437953 312.829419 
L 233.465333 317.806768 
L 229.614601 313.186999 
L 235.591344 308.207596 
L 236.110822 308.830278 
L 237.644518 307.591079 
L 238.819527 306.573826 
L 240.956532 309.136482 
" clip-path="url(#p06505f69e3)" style="fill: #e6482f"/>
    <path d="M 242.377537 310.842179 
L 239.657838 313.102742 
L 239.437953 312.829419 
L 238.247827 311.39499 
L 240.956532 309.136482 
L 242.377537 310.842179 
" clip-path="url(#p06505f69e3)" style="fill: #e6482f"/>
    <path d="M 250.96816 309.311162 
L 247.617666 312.12248 
L 244.363371 307.991815 
L 247.674011 305.381893 
L 250.96816 309.311162 
" clip-path="url(#p06505f69e3)" style="fill: #e6482f"/>
    <path d="M 243.159502 306.257347 
L 241.426536 307.473941 
L 240.272141 305.829895 
L 242.005107 304.613301 
L 243.159502 306.257347 
" clip-path="url(#p06505f69e3)" style="fill: #e6482f"/>
    <path d="M 248.054687 304.92156 
L 255.374101 298.908463 
L 255.899075 298.487176 
L 259.193224 302.416445 
L 250.96816 309.311162 
L 247.674011 305.381893 
L 248.054687 304.92156 
" clip-path="url(#p06505f69e3)" style="fill: #e6482f"/>
    <path d="M 245.23329 301.528661 
L 238.819527 306.573826 
L 237.644518 307.591079 
L 236.439274 306.082667 
L 244.029421 300.022304 
L 245.23329 301.528661 
" clip-path="url(#p06505f69e3)" style="fill: #e6482f"/>
    <path d="M 236.840564 299.759257 
L 239.301899 298.106991 
L 240.632202 299.927771 
L 233.884488 304.857853 
L 232.55556 303.037073 
L 236.840564 299.759257 
" clip-path="url(#p06505f69e3)" style="fill: #e6482f"/>
    <path d="M 230.670048 299.130409 
L 234.12911 296.27388 
L 235.376956 298.059724 
L 236.840564 299.759257 
L 232.55556 303.037073 
L 229.930686 299.607182 
L 230.670048 299.130409 
" clip-path="url(#p06505f69e3)" style="fill: #e6482f"/>
    <path d="M 248.054687 304.92156 
L 245.23329 301.528661 
L 244.029421 300.022304 
L 251.35021 294.009207 
L 255.374101 298.908463 
L 248.054687 304.92156 
" clip-path="url(#p06505f69e3)" style="fill: #e6482f"/>
    <path d="M 246.764238 297.474033 
L 244.01293 299.448943 
L 243.033069 298.084385 
L 245.784377 296.10742 
L 246.764238 297.474033 
" clip-path="url(#p06505f69e3)" style="fill: #e6482f"/>
    <path d="M 242.145284 297.683649 
L 240.076993 299.140684 
L 239.301899 298.106991 
L 238.992686 297.599392 
L 241.059603 296.142356 
L 242.145284 297.683649 
" clip-path="url(#p06505f69e3)" style="fill: #e6482f"/>
    <path d="M 233.955951 292.552172 
L 237.174514 296.633515 
L 235.376956 298.059724 
L 234.12911 296.27388 
L 233.011821 294.919597 
L 231.876666 293.649572 
L 233.675598 292.223362 
L 233.955951 292.552172 
" clip-path="url(#p06505f69e3)" style="fill: #e6482f"/>
    <path d="M 250.61497 293.308433 
L 247.18889 296.064264 
L 246.034496 294.629834 
L 249.459201 291.874003 
L 250.61497 293.308433 
" clip-path="url(#p06505f69e3)" style="fill: #e6482f"/>
    <path d="M 237.44937 289.716193 
L 233.955951 292.552172 
L 233.675598 292.223362 
L 232.940358 291.362294 
L 236.404917 288.409177 
L 237.44937 289.716193 
" clip-path="url(#p06505f69e3)" style="fill: #e6482f"/>
    <path d="M 237.44937 289.716193 
L 244.595625 284.159319 
L 247.814188 288.240662 
L 237.174514 296.633515 
L 233.955951 292.552172 
L 237.44937 289.716193 
" clip-path="url(#p06505f69e3)" style="fill: #e6482f"/>
    <path d="M 213.888718 299.348245 
L 214.343605 302.708263 
L 211.905632 303.037073 
L 211.450746 299.679109 
L 213.888718 299.348245 
" clip-path="url(#p06505f69e3)" style="fill: #e6482f"/>
    <path d="M 225.97276 297.876824 
L 226.580192 302.660997 
L 224.517398 302.921989 
L 223.909966 298.137817 
L 225.97276 297.876824 
" clip-path="url(#p06505f69e3)" style="fill: #e6482f"/>
    <path d="M 234.12911 296.27388 
L 230.670048 299.130409 
L 229.551384 297.776127 
L 233.011821 294.919597 
L 234.12911 296.27388 
" clip-path="url(#p06505f69e3)" style="fill: #e6482f"/>
    <path d="M 218.239688 288.863344 
L 218.422467 290.749887 
L 215.168173 291.06431 
L 214.985393 289.177768 
L 218.239688 288.863344 
" clip-path="url(#p06505f69e3)" style="fill: #e6482f"/>
    <path d="M 223.945697 288.304369 
L 224.063885 290.205296 
L 221.264477 290.379976 
L 221.144915 288.479048 
L 223.945697 288.304369 
" clip-path="url(#p06505f69e3)" style="fill: #e6482f"/>
    <path d="M 228.986555 277.260492 
L 230.443292 277.751651 
L 229.471676 280.622565 
L 228.01494 280.131407 
L 228.986555 277.260492 
" clip-path="url(#p06505f69e3)" style="fill: #e6482f"/>
    <path d="M 227.940728 269.854066 
L 230.031008 269.938324 
L 229.819369 275.090352 
L 227.730464 275.004039 
L 227.940728 269.854066 
" clip-path="url(#p06505f69e3)" style="fill: #e6482f"/>
    <path d="M 209.699913 289.738798 
L 209.901933 291.851397 
L 205.878042 292.235693 
L 205.676022 290.123094 
L 209.699913 289.738798 
" clip-path="url(#p06505f69e3)" style="fill: #e6482f"/>
    <path d="M 64.093601 264.948645 
L 67.97869 264.356789 
L 68.336002 266.705719 
L 64.450914 267.297576 
L 64.093601 264.948645 
" clip-path="url(#p06505f69e3)" style="fill: #e6482f"/>
    <path d="M 185.762709 227.585653 
L 185.661012 230.933341 
L 184.268867 230.890185 
L 184.370564 227.542497 
L 185.762709 227.585653 
" clip-path="url(#p06505f69e3)" style="fill: #e6482f"/>
    <path d="M 186.239584 223.387172 
L 186.185987 225.162741 
L 184.840567 225.12164 
L 184.894164 223.346071 
L 186.239584 223.387172 
" clip-path="url(#p06505f69e3)" style="fill: #e6482f"/>
    <path d="M 185.735223 217.914555 
L 185.702241 219.030451 
L 183.892314 218.974964 
L 183.926671 217.859068 
L 185.735223 217.914555 
" clip-path="url(#p06505f69e3)" style="fill: #e6482f"/>
    <path d="M 183.245028 210.871874 
L 183.297251 209.108635 
L 181.483202 209.053149 
L 181.54367 207.047413 
L 183.308245 207.100845 
L 183.321988 206.636402 
L 185.49335 206.700108 
L 185.364168 210.980792 
L 185.850663 210.995178 
L 185.805312 212.499479 
L 182.333881 212.396727 
L 182.380607 210.845159 
L 183.245028 210.871874 
" clip-path="url(#p06505f69e3)" style="fill: #e6482f"/>
    <path d="M 188.801241 202.466691 
L 188.728405 204.908099 
L 188.089365 204.889603 
L 188.163576 202.44614 
L 188.801241 202.466691 
" clip-path="url(#p06505f69e3)" style="fill: #e6482f"/>
   </g>
   <g id="LineCollection_1">
    <path d="M 165.813664 674.55234 
L 167.548005 675.925118 
L 175.366283 676.695765 
L 180.28483 678.931667 
L 182.633474 684.077529 
L 183.415439 692.688218 
L 185.204751 705.213791 
L 186.881373 716.621413 
L 188.335361 728.477037 
L 189.722009 739.966861 
L 191.622638 751.859476 
L 193.589232 763.932936 
L 128.288956 777.023649 
" clip-path="url(#p06505f69e3)" style="fill: none; stroke: #e6482f; stroke-width: 0.2"/>
    <path d="M 161.356875 676.473818 
L 158.417291 676.420387 
L 154.479979 674.383825 
L 152.72365 673.107635 
L 152.654936 670.549089 
L 154.064947 667.996708 
L 156.923449 663.38516 
L 158.960131 659.038714 
L 160.954211 651.091809 
L 161.546526 640.352081 
L 162.335362 638.309354 
L 166.705572 635.81246 
L 168.592458 635.705597 
" clip-path="url(#p06505f69e3)" style="fill: none; stroke: #e6482f; stroke-width: 0.2"/>
    <path d="M 147.414807 593.184411 
L 139.597904 599.781145 
L 134.994067 603.457642 
L 134.096662 606.412814 
L 134.607894 609.916686 
L 140.15861 618.371191 
L 147.265011 640.010941 
L 148.29572 646.324077 
L 150.068541 655.304676 
L 151.254545 662.731652 
L 152.281132 667.337035 
L 152.654936 670.549089 
L 146.231552 684.237824 
" clip-path="url(#p06505f69e3)" style="fill: none; stroke: #e6482f; stroke-width: 0.2"/>
    <path d="M 168.592458 635.705597 
L 169.928258 636.819438 
L 179.390174 636.276903 
" clip-path="url(#p06505f69e3)" style="fill: none; stroke: #e6482f; stroke-width: 0.2"/>
    <path d="M 157.150205 546.994949 
L 158.690772 564.765028 
L 160.770058 590.897133 
L 168.592458 635.705597 
" clip-path="url(#p06505f69e3)" style="fill: none; stroke: #e6482f; stroke-width: 0.2"/>
    <path d="M 169.887029 544.302825 
L 167.504028 544.921397 
L 164.660644 545.659162 
L 157.150205 546.994949 
L 146.877464 548.172497 
L 145.655729 554.282182 
L 145.927836 567.044086 
L 146.13123 571.187081 
L 147.149571 575.938373 
L 149.235728 586.320521 
L 149.16564 589.625053 
L 147.414807 593.184411 
" clip-path="url(#p06505f69e3)" style="fill: none; stroke: #e6482f; stroke-width: 0.2"/>
    <path d="M 176.155119 498.557255 
L 180.802933 541.164753 
L 187.503921 606.694356 
L 188.206178 612.875968 
L 190.246984 618.823303 
L 192.11463 621.60585 
" clip-path="url(#p06505f69e3)" style="fill: none; stroke: #e6482f; stroke-width: 0.2"/>
    <path d="M 146.877464 548.172497 
L 145.724443 536.495663 
L 144.909495 528.078149 
L 143.84168 518.686539 
L 141.990525 496.374784 
L 140.973558 487.957271 
" clip-path="url(#p06505f69e3)" style="fill: none; stroke: #e6482f; stroke-width: 0.2"/>
    <path d="M 129.670107 519.724342 
L 143.84168 518.686539 
L 145.384996 518.57351 
L 164.475116 516.366379 
" clip-path="url(#p06505f69e3)" style="fill: none; stroke: #e6482f; stroke-width: 0.2"/>
    <path d="M 185.152529 483.062125 
L 174.199519 485.041145 
L 160.914357 486.426253 
L 146.002048 487.57092 
L 140.973558 487.957271 
L 125.611859 489.282782 
L 129.638499 517.757653 
L 129.670107 519.724342 
L 129.705838 521.898593 
L 128.211996 524.954463 
L 125.565134 526.380672 
L 123.393772 525.157913 
L 122.37543 523.935154 
" clip-path="url(#p06505f69e3)" style="fill: none; stroke: #e6482f; stroke-width: 0.2"/>
    <path d="M 94.997149 698.940896 
L 95.809229 698.923262 
L 116.876937 697.147692 
L 122.092329 696.007136 
L 126.621955 693.884262 
L 146.231552 684.237824 
L 161.356875 676.473818 
L 165.813664 674.55234 
L 196.187995 659.120917 
L 213.820004 649.429268 
" clip-path="url(#p06505f69e3)" style="fill: none; stroke: #e6482f; stroke-width: 0.2"/>
    <path d="M 88.22183 542.019656 
L 108.750821 576.569275 
L 119.159616 594.376345 
L 134.607894 609.916686 
" clip-path="url(#p06505f69e3)" style="fill: none; stroke: #e6482f; stroke-width: 0.2"/>
    <path d="M 79.945918 526.321075 
L 82.209356 521.79173 
L 84.125102 519.802435 
L 87.890629 517.537762 
L 96.17891 515.229933 
L 98.611385 514.198294 
L 100.307246 512.833736 
L 101.266493 511.064332 
L 103.814408 509.095587 
L 108.864886 504.782023 
L 114.614873 496.561794 
" clip-path="url(#p06505f69e3)" style="fill: none; stroke: #e6482f; stroke-width: 0.2"/>
    <path d="M 78.323636 523.760331 
L 79.945918 526.321075 
L 80.998616 530.147592 
L 88.22183 542.019656 
" clip-path="url(#p06505f69e3)" style="fill: none; stroke: #e6482f; stroke-width: 0.2"/>
    <path d="M 71.441272 427.217931 
L 74.066749 425.59451 
" clip-path="url(#p06505f69e3)" style="fill: none; stroke: #e6482f; stroke-width: 0.2"/>
    <path d="M 116.387693 429.059336 
L 94.954427 431.7268 
" clip-path="url(#p06505f69e3)" style="fill: none; stroke: #e6482f; stroke-width: 0.2"/>
    <path d="M 95.593467 451.352595 
L 94.954427 431.7268 
L 90.746382 405.208344 
L 87.012464 379.48314 
L 84.908442 367.469276 
" clip-path="url(#p06505f69e3)" style="fill: none; stroke: #e6482f; stroke-width: 0.2"/>
    <path d="M 61.872765 367.697387 
L 58.781593 370.582915 
" clip-path="url(#p06505f69e3)" style="fill: none; stroke: #e6482f; stroke-width: 0.2"/>
    <path d="M 61.339544 361.388362 
L 61.872765 367.697387 
L 65.526975 369.296222 
L 84.908442 367.469276 
L 108.852518 359.808023 
L 118.465604 355.829433 
L 123.825295 352.399543 
L 125.539022 350.979498 
L 127.087835 350.167751 
L 128.779574 349.592335 
L 130.092011 349.540958 
L 134.796171 349.549179 
L 145.805526 349.168993 
L 148.574699 349.07446 
L 155.158873 348.055152 
L 157.738397 349.142277 
L 159.366918 359.051762 
" clip-path="url(#p06505f69e3)" style="fill: none; stroke: #e6482f; stroke-width: 0.2"/>
    <path d="M 167.579614 546.47502 
L 167.504028 544.921397 
L 167.240167 539.549478 
L 165.339538 523.528253 
L 164.475116 516.366379 
L 162.013781 495.967883 
L 160.914357 486.426253 
L 159.245981 476.159188 
L 156.9207 461.798449 
L 156.720055 455.304469 
L 154.276586 435.415627 
L 152.443297 420.752795 
L 152.362214 417.12973 
L 152.308617 414.712982 
L 151.086883 407.855257 
L 147.895805 387.627331 
L 146.06389 369.777105 
L 145.112889 360.95269 
L 159.366918 359.051762 
" clip-path="url(#p06505f69e3)" style="fill: none; stroke: #e6482f; stroke-width: 0.2"/>
    <path d="M 180.543195 446.079318 
L 169.936503 447.57129 
" clip-path="url(#p06505f69e3)" style="fill: none; stroke: #e6482f; stroke-width: 0.2"/>
    <path d="M 159.366918 359.051762 
L 160.001835 364.446287 
L 162.353228 384.437882 
L 166.290539 415.526785 
L 166.392236 416.420735 
L 169.936503 447.57129 
L 174.199519 485.041145 
L 175.617776 496.304912 
L 176.155119 498.557255 
" clip-path="url(#p06505f69e3)" style="fill: none; stroke: #e6482f; stroke-width: 0.2"/>
    <path d="M 125.611859 489.282782 
L 122.34657 469.500803 
L 121.17431 459.788604 
L 118.766572 442.343224 
L 117.191647 434.492907 
L 116.387693 429.059336 
L 116.156814 425.987025 
L 115.196193 421.256284 
L 111.819588 399.50556 
L 108.08567 373.114518 
L 107.643151 367.586414 
L 108.852518 359.808023 
" clip-path="url(#p06505f69e3)" style="fill: none; stroke: #e6482f; stroke-width: 0.2"/>
    <path d="M 118.465604 355.829433 
L 121.649811 357.374836 
L 126.847337 360.839662 
L 127.463014 362.03776 
L 130.994913 382.808222 
L 136.090742 419.361522 
L 138.833804 441.496541 
L 141.855846 459.920127 
L 143.959868 476.483887 
L 144.482094 480.750186 
L 146.002048 487.57092 
" clip-path="url(#p06505f69e3)" style="fill: none; stroke: #e6482f; stroke-width: 0.2"/>
    <path d="M 166.290539 415.526785 
L 152.362214 417.12973 
L 136.090742 419.361522 
L 115.196193 421.256284 
" clip-path="url(#p06505f69e3)" style="fill: none; stroke: #e6482f; stroke-width: 0.2"/>
    <path d="M 166.392236 416.420735 
L 177.128109 414.893827 
" clip-path="url(#p06505f69e3)" style="fill: none; stroke: #e6482f; stroke-width: 0.2"/>
    <path d="M 183.54737 359.764867 
L 173.975512 359.304534 
L 164.835177 363.716742 
L 160.001835 364.446287 
" clip-path="url(#p06505f69e3)" style="fill: none; stroke: #e6482f; stroke-width: 0.2"/>
    <path d="M 145.112889 360.95269 
L 146.3786 358.235905 
L 146.889832 353.570925 
L 145.805526 349.168993 
" clip-path="url(#p06505f69e3)" style="fill: none; stroke: #e6482f; stroke-width: 0.2"/>
    <path d="M 175.748333 317.872529 
L 173.858698 319.341895 
L 172.319505 321.929212 
L 168.751874 323.747937 
L 164.905265 324.588456 
L 163.085719 326.057822 
L 160.007332 330.044632 
L 152.033761 341.3084 
L 148.574699 349.07446 
" clip-path="url(#p06505f69e3)" style="fill: none; stroke: #e6482f; stroke-width: 0.2"/>
    <path d="M 52.541405 359.931327 
L 36.172479 355.875685 
" clip-path="url(#p06505f69e3)" style="fill: none; stroke: #e6482f; stroke-width: 0.2"/>
    <path d="M 78.372367 349.497802 
L 93.408362 346.762521 
L 104.486431 344.623207 
L 121.181181 341.571447 
L 131.297254 339.645859 
" clip-path="url(#p06505f69e3)" style="fill: none; stroke: #e6482f; stroke-width: 0.2"/>
    <path d="M 73.346626 324.594621 
L 88.673968 322.149103 
" clip-path="url(#p06505f69e3)" style="fill: none; stroke: #e6482f; stroke-width: 0.2"/>
    <path d="M 89.800878 264.132788 
L 95.314488 292.687805 
L 99.386479 313.76858 
L 100.604091 320.264616 
L 104.486431 344.623207 
L 106.02425 354.10113 
" clip-path="url(#p06505f69e3)" style="fill: none; stroke: #e6482f; stroke-width: 0.2"/>
    <path d="M 78.265173 266.36047 
L 82.319299 287.375483 
L 83.71007 294.954533 
L 87.516825 315.942831 
L 88.673968 322.149103 
L 92.087679 340.455551 
L 93.408362 346.762521 
" clip-path="url(#p06505f69e3)" style="fill: none; stroke: #e6482f; stroke-width: 0.2"/>
    <path d="M 40.214116 244.552204 
L 56.566671 351.150068 
L 52.541405 359.931327 
" clip-path="url(#p06505f69e3)" style="fill: none; stroke: #e6482f; stroke-width: 0.2"/>
    <path d="M 121.181181 341.571447 
L 116.11696 317.36493 
L 112.803572 301.530716 
L 110.729784 290.065553 
L 105.447052 260.873467 
" clip-path="url(#p06505f69e3)" style="fill: none; stroke: #e6482f; stroke-width: 0.2"/>
    <path d="M 80.622063 360.297127 
L 78.372367 349.497802 
L 75.425912 335.663158 
L 73.346626 324.594621 
L 68.340125 297.956972 
L 62.958446 269.317697 
L 62.819643 268.577876 
L 59.500758 254.613763 
L 57.194717 239.73104 
" clip-path="url(#p06505f69e3)" style="fill: none; stroke: #e6482f; stroke-width: 0.2"/>
    <path d="M 68.340125 297.956972 
L 83.71007 294.954533 
L 95.314488 292.687805 
L 106.869432 290.657409 
L 110.729784 290.065553 
L 122.615929 288.002275 
" clip-path="url(#p06505f69e3)" style="fill: none; stroke: #e6482f; stroke-width: 0.2"/>
    <path d="M 62.958446 269.317697 
L 78.265173 266.36047 
L 89.800878 264.132788 
L 97.322311 262.679862 
L 105.447052 260.873467 
L 116.698281 258.372463 
" clip-path="url(#p06505f69e3)" style="fill: none; stroke: #e6482f; stroke-width: 0.2"/>
    <path d="M 181.675601 341.205647 
L 178.285253 321.263374 
L 175.748333 317.872529 
L 173.78861 314.025463 
" clip-path="url(#p06505f69e3)" style="fill: none; stroke: #e6482f; stroke-width: 0.2"/>
    <path d="M 100.604091 320.264616 
L 116.11696 317.36493 
L 127.615559 315.54826 
" clip-path="url(#p06505f69e3)" style="fill: none; stroke: #e6482f; stroke-width: 0.2"/>
    <path d="M 139.791677 281.987123 
L 148.955375 327.245645 
" clip-path="url(#p06505f69e3)" style="fill: none; stroke: #e6482f; stroke-width: 0.2"/>
    <path d="M 159.101682 300.43948 
L 154.758958 300.95119 
" clip-path="url(#p06505f69e3)" style="fill: none; stroke: #e6482f; stroke-width: 0.2"/>
    <path d="M 122.12806 285.312206 
L 139.791677 281.987123 
L 143.708375 280.378014 
L 144.912244 275.932925 
" clip-path="url(#p06505f69e3)" style="fill: none; stroke: #e6482f; stroke-width: 0.2"/>
    <path d="M 169.31258 277.860569 
L 159.0206 276.074724 
L 154.341177 275.201325 
L 149.79506 274.572477 
L 144.912244 275.932925 
" clip-path="url(#p06505f69e3)" style="fill: none; stroke: #e6482f; stroke-width: 0.2"/>
    <path d="M 52.541405 359.931327 
L 61.339544 361.388362 
L 70.473007 361.47673 
L 80.622063 360.297127 
L 92.717099 357.849554 
L 106.02425 354.10113 
L 124.120766 348.667559 
L 129.279812 345.545928 
L 131.316494 340.387734 
L 131.297254 339.645859 
L 131.177692 335.182275 
L 127.615559 315.54826 
L 122.615929 288.002275 
L 122.12806 285.312206 
L 116.698281 258.372463 
L 113.91399 244.100092 
L 111.169553 229.724968 
L 110.783381 224.435251 
L 111.488386 222.293881 
L 114.158612 217.125413 
L 127.457517 194.519785 
L 141.143969 170.933896 
L 148.695636 168.556195 
L 164.571315 166.840222 
L 189.148934 164.43786 
L 209.161196 157.352024 
L 216.01198 154.766762 
L 218.392233 153.576884 
L 222.152262 152.754861 
" clip-path="url(#p06505f69e3)" style="fill: none; stroke: #e6482f; stroke-width: 0.2"/>
    <path d="M 159.101682 300.43948 
L 159.0206 276.074724 
L 161.645474 264.319798 
L 165.412375 247.542312 
L 167.580988 229.62427 
L 169.177901 204.632721 
L 164.571315 166.840222 
L 158.061352 102.874516 
L 155.213845 85.120879 
" clip-path="url(#p06505f69e3)" style="fill: none; stroke: #e6482f; stroke-width: 0.2"/>
    <path d="M 154.758958 300.95119 
L 148.867421 281.421983 
L 144.912244 275.932925 
L 144.491714 262.661367 
L 146.888458 232.762342 
L 149.627398 189.281445 
L 148.695636 168.556195 
L 138.248361 81.045701 
" clip-path="url(#p06505f69e3)" style="fill: none; stroke: #e6482f; stroke-width: 0.2"/>
    <path d="M 135.234566 172.314894 
L 132.084717 156.246403 
L 122.383676 72.601471 
" clip-path="url(#p06505f69e3)" style="fill: none; stroke: #e6482f; stroke-width: 0.2"/>
    <path d="M 113.91399 244.100092 
L 59.500758 254.613763 
" clip-path="url(#p06505f69e3)" style="fill: none; stroke: #e6482f; stroke-width: 0.2"/>
    <path d="M 111.169553 229.724968 
L 57.194717 239.73104 
L 50.334312 242.417 
L 40.214116 244.552204 
" clip-path="url(#p06505f69e3)" style="fill: none; stroke: #e6482f; stroke-width: 0.2"/>
    <path d="M 50.334312 242.417 
L 47.284785 238.070554 
L 45.421262 233.989211 
L 46.038314 232.622598 
L 49.204654 230.978552 
L 57.277173 230.201741 
L 85.378445 225.195622 
L 99.202325 222.468561 
L 105.873079 221.656814 
L 108.785178 221.510905 
L 111.488386 222.293881 
" clip-path="url(#p06505f69e3)" style="fill: none; stroke: #e6482f; stroke-width: 0.2"/>
    <path d="M 61.55368 187.483551 
L 61.757325 189.084159 
" clip-path="url(#p06505f69e3)" style="fill: none; stroke: #e6482f; stroke-width: 0.2"/>
    <path d="M 141.143969 170.933896 
L 135.234566 172.314894 
L 106.095712 181.53799 
L 69.269138 187.805914 
L 61.757325 189.084159 
L 55.573066 189.293775 
L 31.148541 184.816598 
" clip-path="url(#p06505f69e3)" style="fill: none; stroke: #e6482f; stroke-width: 0.2"/>
    <path d="M 155.213845 85.120879 
L 155.247924 84.969382 
" clip-path="url(#p06505f69e3)" style="fill: none; stroke: #e6482f; stroke-width: 0.2"/>
    <path d="M 140.989455 78.24698 
L 140.601128 78.87556 
L 138.248361 81.045701 
" clip-path="url(#p06505f69e3)" style="fill: none; stroke: #e6482f; stroke-width: 0.2"/>
    <path d="M 272.094962 723.475028 
L 265.928569 725.34102 
L 257.175781 730.02244 
L 246.639179 731.588393 
L 241.974873 733.010493 
L 237.310568 733.407119 
L 239.498421 768.74999 
L 233.491444 769.177442 
" clip-path="url(#p06505f69e3)" style="fill: none; stroke: #e6482f; stroke-width: 0.2"/>
    <path d="M 278.377344 731.490439 
L 272.094962 723.475028 
L 265.583625 715.341112 
L 236.326583 677.589714 
L 213.820004 649.429268 
L 203.901827 636.827658 
L 192.11463 621.60585 
" clip-path="url(#p06505f69e3)" style="fill: none; stroke: #e6482f; stroke-width: 0.2"/>
    <path d="M 211.971598 688.861702 
L 210.656412 704.478081 
L 211.710485 722.443389 
L 190.315698 724.44296 
L 195.46375 772.17988 
L 207.986187 770.807102 
L 233.491444 769.177442 
" clip-path="url(#p06505f69e3)" style="fill: none; stroke: #e6482f; stroke-width: 0.2"/>
    <path d="M 236.112196 784.682847 
L 233.491444 769.177442 
L 225.981006 721.393255 
L 222.060185 709.393777 
L 211.971598 688.861702 
L 196.187995 659.120917 
" clip-path="url(#p06505f69e3)" style="fill: none; stroke: #e6482f; stroke-width: 0.2"/>
    <path d="M 236.326583 677.589714 
L 249.099139 670.649787 
L 255.224304 664.203073 
L 257.777716 661.517113 
L 259.586268 655.004637 
L 262.929891 653.6483 
" clip-path="url(#p06505f69e3)" style="fill: none; stroke: #e6482f; stroke-width: 0.2"/>
    <path d="M 255.224304 664.203073 
L 264.195602 664.048944 
L 266.999133 662.150071 
L 262.929891 653.6483 
" clip-path="url(#p06505f69e3)" style="fill: none; stroke: #e6482f; stroke-width: 0.2"/>
    <path d="M 203.901827 636.827658 
L 201.602657 637.277715 
L 183.972022 639.077945 
L 181.134135 638.537465 
L 179.390174 636.276903 
L 178.748385 633.138831 
L 175.113415 603.299402 
L 174.071711 594.109187 
L 172.792257 584.923082 
L 169.766093 571.043227 
L 168.51275 556.785241 
L 167.579614 546.47502 
L 169.887029 544.302825 
L 174.231128 542.876615 
L 180.802933 541.164753 
" clip-path="url(#p06505f69e3)" style="fill: none; stroke: #e6482f; stroke-width: 0.2"/>
    <path d="M 245.600223 592.865878 
L 257.302215 576.032905 
L 270.456821 560.749446 
L 277.032749 550.011773 
L 280.805147 535.501015 
L 282.642559 526.021037 
L 285.931211 509.962821 
" clip-path="url(#p06505f69e3)" style="fill: none; stroke: #e6482f; stroke-width: 0.2"/>
    <path d="M 216.391282 506.286324 
L 232.253218 503.094821 
L 250.942048 489.667078 
L 253.917364 486.650254 
L 269.489328 479.29726 
L 287.47865 474.848062 
" clip-path="url(#p06505f69e3)" style="fill: none; stroke: #e6482f; stroke-width: 0.2"/>
    <path d="M 229.3315 479.603464 
L 237.379282 485.197329 
L 250.942048 489.667078 
L 269.393128 498.257216 
" clip-path="url(#p06505f69e3)" style="fill: none; stroke: #e6482f; stroke-width: 0.2"/>
    <path d="M 320.036711 684.209053 
L 316.716451 696.307174 
L 315.452114 700.577582 
L 312.741762 703.706116 
" clip-path="url(#p06505f69e3)" style="fill: none; stroke: #e6482f; stroke-width: 0.2"/>
    <path d="M 286.990844 724.526252 
L 277.028626 723.581891 
L 272.094962 723.475028 
" clip-path="url(#p06505f69e3)" style="fill: none; stroke: #e6482f; stroke-width: 0.2"/>
    <path d="M 324.108702 673.370682 
L 337.099768 683.403471 
L 340.656404 683.74461 
L 356.560944 682.31018 
" clip-path="url(#p06505f69e3)" style="fill: none; stroke: #e6482f; stroke-width: 0.2"/>
    <path d="M 335.344813 587.707684 
L 338.449311 643.37096 
L 340.022861 679.858497 
L 337.099768 683.403471 
" clip-path="url(#p06505f69e3)" style="fill: none; stroke: #e6482f; stroke-width: 0.2"/>
    <path d="M 320.604288 586.018428 
L 323.989139 643.373015 
L 324.272241 647.384486 
L 326.043688 656.052717 
L 326.047811 668.033699 
L 324.108702 673.370682 
L 320.036711 684.209053 
" clip-path="url(#p06505f69e3)" style="fill: none; stroke: #e6482f; stroke-width: 0.2"/>
    <path d="M 324.272241 647.384486 
L 314.901028 638.88888 
L 306.489061 624.386343 
L 297.392704 601.675907 
" clip-path="url(#p06505f69e3)" style="fill: none; stroke: #e6482f; stroke-width: 0.2"/>
    <path d="M 356.560944 682.31018 
L 362.490961 673.533032 
L 363.156112 656.928171 
L 362.337041 643.282592 
L 362.137771 604.053608 
L 360.594455 588.133081 
L 360.146439 583.846232 
L 354.656192 531.284038 
L 354.333236 528.193232 
L 353.815133 522.979553 
L 353.494925 515.5012 
" clip-path="url(#p06505f69e3)" style="fill: none; stroke: #e6482f; stroke-width: 0.2"/>
    <path d="M 360.594455 588.133081 
L 335.344813 587.707684 
L 320.604288 586.018428 
" clip-path="url(#p06505f69e3)" style="fill: none; stroke: #e6482f; stroke-width: 0.2"/>
    <path d="M 277.032749 550.011773 
L 289.897382 589.189381 
L 297.392704 601.675907 
" clip-path="url(#p06505f69e3)" style="fill: none; stroke: #e6482f; stroke-width: 0.2"/>
    <path d="M 354.656192 531.284038 
L 312.335247 542.755367 
L 313.30274 558.716995 
L 312.856099 567.054361 
L 317.087507 580.893115 
L 320.604288 586.018428 
" clip-path="url(#p06505f69e3)" style="fill: none; stroke: #e6482f; stroke-width: 0.2"/>
    <path d="M 312.335247 542.755367 
L 310.787808 530.856586 
L 306.435464 519.732563 
L 299.682254 514.613415 
L 294.055952 510.349172 
L 285.931211 509.962821 
L 269.393128 498.257216 
" clip-path="url(#p06505f69e3)" style="fill: none; stroke: #e6482f; stroke-width: 0.2"/>
    <path d="M 307.112984 510.155997 
L 312.021911 513.246803 
L 318.33123 516.637647 
L 324.038614 522.441128 
L 341.060442 526.697151 
L 354.333236 528.193232 
" clip-path="url(#p06505f69e3)" style="fill: none; stroke: #e6482f; stroke-width: 0.2"/>
    <path d="M 311.465328 517.120585 
L 312.021911 513.246803 
L 313.39894 503.674347 
" clip-path="url(#p06505f69e3)" style="fill: none; stroke: #e6482f; stroke-width: 0.2"/>
    <path d="M 299.682254 514.613415 
L 307.112984 510.155997 
L 313.39894 503.674347 
L 318.71328 494.153268 
" clip-path="url(#p06505f69e3)" style="fill: none; stroke: #e6482f; stroke-width: 0.2"/>
    <path d="M 310.787808 530.856586 
L 313.205166 524.85993 
L 311.465328 517.120585 
L 307.112984 510.155997 
L 293.668406 489.938346 
L 287.47865 474.848062 
" clip-path="url(#p06505f69e3)" style="fill: none; stroke: #e6482f; stroke-width: 0.2"/>
    <path d="M 328.47204 491.154939 
L 330.062082 493.368236 
L 331.764814 494.116277 
L 334.560099 494.325892 
L 337.932582 493.990918 
L 359.795787 475.671107 
" clip-path="url(#p06505f69e3)" style="fill: none; stroke: #e6482f; stroke-width: 0.2"/>
    <path d="M 308.931156 469.928255 
L 312.321504 477.788848 
L 313.470402 481.913348 
L 314.800705 486.183756 
L 316.792036 491.302903 
L 317.553387 492.877077 
L 318.71328 494.153268 
L 320.866776 494.253965 
L 326.645622 492.381808 
L 328.47204 491.154939 
" clip-path="url(#p06505f69e3)" style="fill: none; stroke: #e6482f; stroke-width: 0.2"/>
    <path d="M 283.230751 458.600781 
L 287.47865 474.848062 
" clip-path="url(#p06505f69e3)" style="fill: none; stroke: #e6482f; stroke-width: 0.2"/>
    <path d="M 328.47204 491.154939 
L 329.113829 489.808877 
L 328.19581 476.111922 
L 327.716186 465.717443 
L 326.939718 453.680974 
L 326.74457 444.188666 
L 326.910858 433.88872 
L 327.424839 421.29944 
L 326.286935 419.040933 
L 322.640971 414.147842 
L 320.400895 410.857695 
L 318.300996 405.257665 
L 315.990831 403.436884 
" clip-path="url(#p06505f69e3)" style="fill: none; stroke: #e6482f; stroke-width: 0.2"/>
    <path d="M 302.970905 403.227269 
L 304.853668 407.314777 
L 307.100616 414.567073 
L 310.250465 428.288689 
L 314.099822 447.889823 
L 315.028836 460.735985 
L 314.727868 466.971028 
L 313.831838 468.506156 
L 311.675593 469.827557 
L 308.931156 469.928255 
" clip-path="url(#p06505f69e3)" style="fill: none; stroke: #e6482f; stroke-width: 0.2"/>
    <path d="M 308.931156 469.928255 
L 305.892624 465.877738 
L 300.398253 459.576933 
L 299.051459 451.110098 
L 297.370715 442.780952 
L 295.060551 423.948409 
L 293.730248 415.759007 
L 290.441597 407.497677 
L 286.80113 401.546232 
L 285.33065 398.747244 
L 280.781784 389.787196 
L 277.935651 385.042069 
L 276.540757 380.340098 
L 274.866884 373.599511 
L 274.034071 368.911926 
L 273.360674 367.105531 
" clip-path="url(#p06505f69e3)" style="fill: none; stroke: #e6482f; stroke-width: 0.2"/>
    <path d="M 269.393128 498.257216 
L 253.917364 486.650254 
L 240.63495 458.582285 
" clip-path="url(#p06505f69e3)" style="fill: none; stroke: #e6482f; stroke-width: 0.2"/>
    <path d="M 220.24751 390.84144 
L 196.293815 393.237636 
L 195.243865 395.418052 
L 195.324947 407.212024 
L 180.543195 446.079318 
L 185.152529 483.062125 
L 185.909757 489.430746 
L 182.311893 495.238338 
L 176.155119 498.557255 
" clip-path="url(#p06505f69e3)" style="fill: none; stroke: #e6482f; stroke-width: 0.2"/>
    <path d="M 242.322566 413.568316 
L 247.041843 416.387854 
L 251.31173 420.658262 
L 255.231176 426.118549 
L 260.342122 433.469488 
L 266.850711 441.449275 
L 274.690977 448.450854 
L 278.401532 452.160232 
" clip-path="url(#p06505f69e3)" style="fill: none; stroke: #e6482f; stroke-width: 0.2"/>
    <path d="M 278.401532 452.160232 
L 281.271028 455.662049 
L 283.230751 458.600781 
L 283.441016 453.701525 
L 284.631142 451.601256 
L 281.060763 452.581519 
L 278.401532 452.160232 
" clip-path="url(#p06505f69e3)" style="fill: none; stroke: #e6482f; stroke-width: 0.2"/>
    <path d="M 220.24751 390.84144 
L 225.412054 427.587915 
" clip-path="url(#p06505f69e3)" style="fill: none; stroke: #e6482f; stroke-width: 0.2"/>
    <path d="M 225.412054 427.587915 
L 205.603186 430.878061 
L 206.512959 442.429537 
L 207.703085 449.500988 
L 212.952834 467.141598 
L 215.541977 468.191732 
L 219.811864 472.322397 
L 227.441865 479.044488 
L 229.3315 479.603464 
L 232.901878 478.483458 
L 237.101677 474.492537 
L 240.041262 470.082384 
L 240.63495 458.582285 
L 239.990413 449.015995 
L 241.175042 438.74482 
L 242.259349 421.876911 
L 242.322566 413.568316 
L 241.643672 406.558516 
L 241.581829 402.107263 
L 240.946912 395.050197 
L 240.742144 392.777304 
L 238.991312 373.336464 
L 236.945009 359.939547 
L 234.553763 343.423054 
L 231.292597 341.485135 
L 224.92281 339.105379 
L 221.492608 336.585879 
L 213.344503 337.229112 
L 196.923235 339.314995 
L 181.675601 341.205647 
L 183.54737 359.764867 
L 199.135825 357.931756 
" clip-path="url(#p06505f69e3)" style="fill: none; stroke: #e6482f; stroke-width: 0.2"/>
    <path d="M 240.946912 395.050197 
L 263.46586 397.822469 
L 271.121972 398.328013 
L 286.80113 401.546232 
L 302.970905 403.227269 
" clip-path="url(#p06505f69e3)" style="fill: none; stroke: #e6482f; stroke-width: 0.2"/>
    <path d="M 240.742144 392.777304 
L 229.681941 390.627714 
L 226.111562 390.627714 
L 220.24751 390.84144 
" clip-path="url(#p06505f69e3)" style="fill: none; stroke: #e6482f; stroke-width: 0.2"/>
    <path d="M 273.360674 367.105531 
L 271.471039 365.845781 
L 269.020698 365.4471 
L 264.121391 366.195141 
L 257.681516 365.356677 
L 252.291591 362.555635 
L 245.558995 361.008177 
" clip-path="url(#p06505f69e3)" style="fill: none; stroke: #e6482f; stroke-width: 0.2"/>
    <path d="M 236.945009 359.939547 
L 245.558995 361.008177 
L 245.909436 355.163595 
L 246.166426 354.168947 
L 246.602073 353.248281 
L 247.531086 352.989344 
L 249.078525 352.730407 
L 259.480448 352.705746 
L 267.955632 351.004159 
" clip-path="url(#p06505f69e3)" style="fill: none; stroke: #e6482f; stroke-width: 0.2"/>
    <path d="M 234.553763 343.423054 
L 242.406397 339.571877 
L 247.286464 338.371723 
L 252.801449 337.728491 
L 261.574851 337.580526 
L 265.086136 338.071685 
L 269.876875 340.06509 
L 276.047391 341.972183 
L 281.927934 345.040384 
L 287.936285 350.601368 
" clip-path="url(#p06505f69e3)" style="fill: none; stroke: #e6482f; stroke-width: 0.2"/>
    <path d="M 245.558995 361.008177 
L 253.621894 376.906098 
L 263.46586 397.822469 
L 266.221291 403.716372 
L 273.781203 418.208635 
L 278.750599 433.679104 
L 283.651281 448.870086 
L 284.631142 451.601256 
L 290.441597 453.491909 
L 297.230539 458.111677 
L 300.398253 459.576933 
" clip-path="url(#p06505f69e3)" style="fill: none; stroke: #e6482f; stroke-width: 0.2"/>
    <path d="M 315.990831 403.436884 
L 312.981159 403.436884 
L 310.949973 404.067787 
L 307.800124 403.506756 
L 302.970905 403.227269 
" clip-path="url(#p06505f69e3)" style="fill: none; stroke: #e6482f; stroke-width: 0.2"/>
    <path d="M 381.901288 246.325718 
L 379.442701 252.916286 
L 377.895262 258.224499 
L 376.346449 264.858223 
L 375.487524 271.812536 
" clip-path="url(#p06505f69e3)" style="fill: none; stroke: #e6482f; stroke-width: 0.2"/>
    <path d="M 299.933747 224.474297 
L 319.693141 223.212492 
L 336.815292 222.07399 
L 342.052672 222.836416 
L 345.981738 223.709816 
L 367.341643 231.942641 
" clip-path="url(#p06505f69e3)" style="fill: none; stroke: #e6482f; stroke-width: 0.2"/>
    <path d="M 201.091425 383.486391 
L 198.554505 364.431902 
L 199.135825 357.931756 
L 196.923235 339.314995 
L 194.292863 319.111729 
L 191.584158 300.118892 
L 208.251423 297.669264 
" clip-path="url(#p06505f69e3)" style="fill: none; stroke: #e6482f; stroke-width: 0.2"/>
    <path d="M 237.548318 270.68431 
L 232.804304 280.378014 
L 226.338318 293.596141 
L 209.100728 295.949181 
L 208.251423 297.669264 
L 210.729249 316.918983 
L 213.344503 337.229112 
L 220.24751 390.84144 
" clip-path="url(#p06505f69e3)" style="fill: none; stroke: #e6482f; stroke-width: 0.2"/>
    <path d="M 221.492608 336.585879 
L 251.524743 321.316805 
L 264.796163 327.461426 
L 273.745472 328.421137 
L 279.370399 329.763089 
" clip-path="url(#p06505f69e3)" style="fill: none; stroke: #e6482f; stroke-width: 0.2"/>
    <path d="M 178.285253 321.263374 
L 194.292863 319.111729 
L 210.729249 316.918983 
L 219.190689 315.231781 
L 217.51132 300.209314 
" clip-path="url(#p06505f69e3)" style="fill: none; stroke: #e6482f; stroke-width: 0.2"/>
    <path d="M 237.548318 270.68431 
L 234.313264 270.392491 
L 231.744735 271.442626 
L 230.576597 274.362862 
L 231.218386 277.689999 
L 232.804304 280.378014 
" clip-path="url(#p06505f69e3)" style="fill: none; stroke: #e6482f; stroke-width: 0.2"/>
    <path d="M 194.537485 251.083175 
L 218.05416 260.79332 
L 226.202265 265.943293 
L 237.548318 270.68431 
" clip-path="url(#p06505f69e3)" style="fill: none; stroke: #e6482f; stroke-width: 0.2"/>
    <path d="M 235.275259 234.689985 
L 264.251948 229.801005 
L 299.933747 224.474297 
" clip-path="url(#p06505f69e3)" style="fill: none; stroke: #e6482f; stroke-width: 0.2"/>
    <path d="M 222.152262 152.754861 
L 235.275259 234.689985 
L 239.149354 261.253653 
L 238.944586 266.654343 
L 237.548318 270.68431 
" clip-path="url(#p06505f69e3)" style="fill: none; stroke: #e6482f; stroke-width: 0.2"/>
    <path d="M 209.161196 157.352024 
L 210.476382 167.923237 
L 213.836495 183.531395 
L 217.056433 200.539047 
L 216.846168 204.108682 
L 208.726923 204.737529 
" clip-path="url(#p06505f69e3)" style="fill: none; stroke: #e6482f; stroke-width: 0.2"/>
    <path d="M 312.182702 185.609058 
L 274.684105 163.389781 
L 270.568137 161.54434 
L 267.914403 159.555045 
L 265.998657 157.343803 
L 263.948232 155.923759 
L 245.671686 147.343896 
L 238.32616 144.754524 
L 236.413163 144.875772 
L 235.122714 145.580657 
L 228.916467 151.8157 
L 227.385519 152.590456 
L 222.152262 152.754861 
" clip-path="url(#p06505f69e3)" style="fill: none; stroke: #e6482f; stroke-width: 0.2"/>
    <path d="M 206.433902 45.318078 
L 216.051834 109.627434 
L 222.152262 152.754861 
" clip-path="url(#p06505f69e3)" style="fill: none; stroke: #e6482f; stroke-width: 0.2"/>
   </g>
  </g>
 </g>
 <defs>
  <clipPath id="p06505f69e3">
   <rect x="7.2" y="7.2" width="394.037197" height="831.6"/>
  </clipPath>
 </defs>
</svg>
