<?xml version="1.0" encoding="utf-8" standalone="no"?>
<!DOCTYPE svg PUBLIC "-//W3C//DTD SVG 1.1//EN"
  "http://www.w3.org/Graphics/SVG/1.1/DTD/svg11.dtd">
<svg xmlns:xlink="http://www.w3.org/1999/xlink" width="431.875212pt" height="846pt" viewBox="0 0 431.875212 846" xmlns="http://www.w3.org/2000/svg" version="1.1">
 <metadata>
  <rdf:RDF xmlns:dc="http://purl.org/dc/elements/1.1/" xmlns:cc="http://creativecommons.org/ns#" xmlns:rdf="http://www.w3.org/1999/02/22-rdf-syntax-ns#">
   <cc:Work>
    <dc:type rdf:resource="http://purl.org/dc/dcmitype/StillImage"/>
    <dc:date>2025-03-16T14:38:39.373507</dc:date>
    <dc:format>image/svg+xml</dc:format>
    <dc:creator>
     <cc:Agent>
      <dc:title>Matplotlib v3.10.1, https://matplotlib.org/</dc:title>
     </cc:Agent>
    </dc:creator>
   </cc:Work>
  </rdf:RDF>
 </metadata>
 <defs>
  <style type="text/css">*{stroke-linejoin: round; stroke-linecap: butt}</style>
 </defs>
 <g id="figure_1">
  <g id="patch_1">
   <path d="M 0 846 
L 431.875212 846 
L 431.875212 0 
L 0 0 
z
" style="fill: #ffffff"/>
  </g>
  <g id="axes_1">
   <g id="PatchCollection_1">
    <path d="M 402.395904 799.736657 
L 393.00224 664.416233 
L 388.941906 623.539601 
L 390.72126 611.605651 
L 372.440293 611.355838 
L 367.618055 608.557926 
L 357.211674 592.56986 
L 356.44977 578.858666 
L 353.402153 575.81094 
L 355.687866 547.888925 
L 355.687866 515.134801 
L 356.44977 453.195319 
L 355.43232 381.605897 
L 395.543498 359.265429 
L 405.699066 350.885969 
L 400.365737 237.670475 
L 386.149835 111.507501 
L 385.89429 49.82497 
L 333.091019 52.10898 
L 333.091019 56.93395 
L 246.271803 54.143175 
L 223.424142 50.081921 
L 144.219236 45 
L 131.782688 49.318205 
L 106.39377 46.27048 
L 82.784206 151.870231 
L 76.944518 187.15104 
L 67.044496 273.97195 
L 39.374598 273.208235 
L 26.176146 270.160509 
L 72.884184 371.706143 
L 81.515943 410.798393 
L 114.263625 520.9733 
L 132.795406 601.962849 
L 171.889134 694.115494 
L 208.446337 772.314268 
L 205.909811 786.275276 
L 211.493954 801 
L 372.440293 799.986471 
L 402.395904 799.736657 
" clip-path="url(#pb6041c5f2c)" style="fill: #fbd6c9"/>
   </g>
   <g id="PatchCollection_2">
    <path d="M 363.491468 786.696391 
L 359.577836 786.717803 
L 359.587301 789.351552 
L 357.06024 789.365827 
L 357.036578 783.955579 
L 358.849058 783.948442 
L 358.834861 780.722278 
L 363.463074 780.700866 
L 363.491468 786.696391 
" clip-path="url(#pb6041c5f2c)" style="fill: #e6482f"/>
    <path d="M 373.552389 786.696391 
L 369.638757 786.717803 
L 369.648222 789.351552 
L 367.12116 789.365827 
L 367.097499 783.955579 
L 368.909979 783.948442 
L 368.895782 780.722278 
L 373.523995 780.700866 
L 373.552389 786.696391 
" clip-path="url(#pb6041c5f2c)" style="fill: #e6482f"/>
    <path d="M 385.506239 786.55364 
L 381.592607 786.575053 
L 381.602072 789.208801 
L 379.075011 789.223076 
L 379.051349 783.812829 
L 380.863829 783.805691 
L 380.849632 780.579528 
L 385.477845 780.558115 
L 385.506239 786.55364 
" clip-path="url(#pb6041c5f2c)" style="fill: #e6482f"/>
    <path d="M 351.679587 786.111113 
L 347.765955 786.132526 
L 347.77542 788.766274 
L 345.248359 788.780549 
L 345.224697 783.370302 
L 347.037177 783.363164 
L 347.02298 780.137001 
L 351.651193 780.115588 
L 351.679587 786.111113 
" clip-path="url(#pb6041c5f2c)" style="fill: #e6482f"/>
    <path d="M 391.615669 779.794399 
L 391.681922 782.720787 
L 394.663286 782.649411 
L 394.582837 779.201985 
L 399.045418 779.102059 
L 399.215782 786.532227 
L 388.383492 786.782041 
L 388.222593 779.88005 
L 391.615669 779.794399 
" clip-path="url(#pb6041c5f2c)" style="fill: #e6482f"/>
    <path d="M 363.4962 762.871317 
L 363.444145 770.222972 
L 358.517795 770.180147 
L 358.541457 767.539261 
L 356.440305 767.517849 
L 356.478164 762.814217 
L 363.4962 762.871317 
" clip-path="url(#pb6041c5f2c)" style="fill: #e6482f"/>
    <path d="M 373.978298 762.778529 
L 373.926242 770.130184 
L 368.999893 770.087359 
L 369.023555 767.446473 
L 366.922403 767.425061 
L 366.960261 762.721429 
L 373.978298 762.778529 
" clip-path="url(#pb6041c5f2c)" style="fill: #e6482f"/>
    <path d="M 384.7538 762.585816 
L 384.701744 769.937471 
L 379.775395 769.894646 
L 379.799056 767.25376 
L 377.697905 767.232347 
L 377.735763 762.528715 
L 384.7538 762.585816 
" clip-path="url(#pb6041c5f2c)" style="fill: #e6482f"/>
    <path d="M 352.33738 762.300314 
L 352.285325 769.65197 
L 347.358975 769.609145 
L 347.382637 766.968259 
L 345.281485 766.946846 
L 345.319344 762.243214 
L 352.33738 762.300314 
" clip-path="url(#pb6041c5f2c)" style="fill: #e6482f"/>
    <path d="M 397.261332 761.914888 
L 397.209276 769.266543 
L 392.282927 769.223718 
L 392.306589 766.582832 
L 390.205437 766.56142 
L 390.243296 761.857788 
L 397.261332 761.914888 
" clip-path="url(#pb6041c5f2c)" style="fill: #e6482f"/>
    <path d="M 306.481161 785.968363 
L 302.567529 785.989775 
L 302.576994 788.623524 
L 300.049933 788.637799 
L 300.026271 783.227551 
L 301.838751 783.220414 
L 301.824554 779.99425 
L 306.452767 779.972838 
L 306.481161 785.968363 
" clip-path="url(#pb6041c5f2c)" style="fill: #e6482f"/>
    <path d="M 329.664816 785.825612 
L 325.751184 785.847025 
L 325.760649 788.480773 
L 323.233588 788.495048 
L 323.209926 783.084801 
L 325.022406 783.077663 
L 325.008209 779.8515 
L 329.636422 779.830087 
L 329.664816 785.825612 
" clip-path="url(#pb6041c5f2c)" style="fill: #e6482f"/>
    <path d="M 340.889889 785.825612 
L 336.976257 785.847025 
L 336.985721 788.480773 
L 334.45866 788.495048 
L 334.434999 783.084801 
L 336.247479 783.077663 
L 336.233282 779.8515 
L 340.861495 779.830087 
L 340.889889 785.825612 
" clip-path="url(#pb6041c5f2c)" style="fill: #e6482f"/>
    <path d="M 318.435011 785.675724 
L 314.521379 785.697136 
L 314.530844 788.330885 
L 312.003783 788.34516 
L 311.980121 782.934913 
L 313.792601 782.927775 
L 313.778404 779.701612 
L 318.406617 779.680199 
L 318.435011 785.675724 
" clip-path="url(#pb6041c5f2c)" style="fill: #e6482f"/>
    <path d="M 296.566942 785.383085 
L 292.65331 785.404498 
L 292.662775 788.038246 
L 290.135714 788.052521 
L 290.112052 782.642274 
L 291.924532 782.635136 
L 291.910335 779.408973 
L 296.538548 779.38756 
L 296.566942 785.383085 
" clip-path="url(#pb6041c5f2c)" style="fill: #e6482f"/>
    <path d="M 340.695863 762.585816 
L 340.643808 769.937471 
L 335.717458 769.894646 
L 335.74112 767.25376 
L 333.639968 767.232347 
L 333.677827 762.528715 
L 340.695863 762.585816 
" clip-path="url(#pb6041c5f2c)" style="fill: #e6482f"/>
    <path d="M 297.120624 762.48589 
L 297.068568 769.837546 
L 292.142219 769.79472 
L 292.165881 767.153835 
L 290.064729 767.132422 
L 290.102587 762.42879 
L 297.120624 762.48589 
" clip-path="url(#pb6041c5f2c)" style="fill: #e6482f"/>
    <path d="M 307.7021 762.48589 
L 307.650045 769.837546 
L 302.723696 769.79472 
L 302.747357 767.153835 
L 300.646205 767.132422 
L 300.684064 762.42879 
L 307.7021 762.48589 
" clip-path="url(#pb6041c5f2c)" style="fill: #e6482f"/>
    <path d="M 318.955567 762.393102 
L 318.903511 769.744758 
L 313.977162 769.701933 
L 314.000824 767.061047 
L 311.899672 767.039634 
L 311.93753 762.336002 
L 318.955567 762.393102 
" clip-path="url(#pb6041c5f2c)" style="fill: #e6482f"/>
    <path d="M 330.01974 762.200389 
L 329.967685 769.552044 
L 325.041336 769.509219 
L 325.064997 766.868333 
L 322.963845 766.846921 
L 323.001704 762.143289 
L 330.01974 762.200389 
" clip-path="url(#pb6041c5f2c)" style="fill: #e6482f"/>
    <path d="M 237.767816 763.06403 
L 237.715761 770.415686 
L 232.789412 770.37286 
L 232.813073 767.731974 
L 230.711921 767.710562 
L 230.74978 763.00693 
L 237.767816 763.06403 
" clip-path="url(#pb6041c5f2c)" style="fill: #e6482f"/>
    <path d="M 253.446006 762.971242 
L 253.39395 770.322898 
L 248.467601 770.280073 
L 248.491263 767.639187 
L 246.390111 767.617774 
L 246.427969 762.914142 
L 253.446006 762.971242 
" clip-path="url(#pb6041c5f2c)" style="fill: #e6482f"/>
    <path d="M 273.359625 762.871317 
L 273.30757 770.222972 
L 268.38122 770.180147 
L 268.404882 767.539261 
L 266.30373 767.517849 
L 266.341589 762.814217 
L 273.359625 762.871317 
" clip-path="url(#pb6041c5f2c)" style="fill: #e6482f"/>
    <path d="M 263.932836 762.585816 
L 263.88078 769.937471 
L 258.954431 769.894646 
L 258.978093 767.25376 
L 256.876941 767.232347 
L 256.914799 762.528715 
L 263.932836 762.585816 
" clip-path="url(#pb6041c5f2c)" style="fill: #e6482f"/>
    <path d="M 231.062113 717.683617 
L 227.143749 717.697892 
L 227.157946 720.338778 
L 224.630885 720.353053 
L 224.602491 714.942805 
L 226.414971 714.935668 
L 226.400774 711.709504 
L 231.033719 711.688092 
L 231.062113 717.683617 
" clip-path="url(#pb6041c5f2c)" style="fill: #e6482f"/>
    <path d="M 275.238358 717.426666 
L 271.324726 717.448078 
L 271.334191 720.081827 
L 268.80713 720.096102 
L 268.783468 714.685854 
L 270.595948 714.678717 
L 270.577019 711.452553 
L 275.209964 711.431141 
L 275.238358 717.426666 
" clip-path="url(#pb6041c5f2c)" style="fill: #e6482f"/>
    <path d="M 242.433888 717.205402 
L 238.515524 717.226815 
L 238.529721 719.867701 
L 235.997927 719.874838 
L 235.974266 714.464591 
L 237.786746 714.457453 
L 237.772549 711.23129 
L 242.405494 711.209877 
L 242.433888 717.205402 
" clip-path="url(#pb6041c5f2c)" style="fill: #e6482f"/>
    <path d="M 220.343399 717.134027 
L 216.425035 717.15544 
L 216.439232 719.789188 
L 213.912171 719.803463 
L 213.883777 714.393216 
L 215.70099 714.386078 
L 215.68206 711.159915 
L 220.315006 711.138502 
L 220.343399 717.134027 
" clip-path="url(#pb6041c5f2c)" style="fill: #e6482f"/>
    <path d="M 252.641511 717.134027 
L 248.723146 717.15544 
L 248.737343 719.789188 
L 246.20555 719.803463 
L 246.181888 714.393216 
L 247.994369 714.386078 
L 247.980172 711.159915 
L 252.608384 711.138502 
L 252.641511 717.134027 
" clip-path="url(#pb6041c5f2c)" style="fill: #e6482f"/>
    <path d="M 263.866583 716.919901 
L 259.948219 716.934176 
L 259.962416 719.575062 
L 257.435355 719.5822 
L 257.406961 714.171952 
L 259.224173 714.164815 
L 259.205244 710.945789 
L 263.838189 710.917239 
L 263.866583 716.919901 
" clip-path="url(#pb6041c5f2c)" style="fill: #e6482f"/>
    <path d="M 350.037471 718.226069 
L 346.119107 718.247482 
L 346.133304 720.888368 
L 343.606243 720.895505 
L 343.577849 715.485258 
L 345.395061 715.47812 
L 345.376132 712.251957 
L 350.009077 712.230544 
L 350.037471 718.226069 
" clip-path="url(#pb6041c5f2c)" style="fill: #e6482f"/>
    <path d="M 371.545883 718.154694 
L 367.627519 718.176106 
L 367.641716 720.809855 
L 365.109923 720.82413 
L 365.086261 715.413882 
L 366.898741 715.406745 
L 366.884544 712.180581 
L 371.512757 712.159169 
L 371.545883 718.154694 
" clip-path="url(#pb6041c5f2c)" style="fill: #e6482f"/>
    <path d="M 360.245094 718.083318 
L 356.326729 718.104731 
L 356.340926 720.738479 
L 353.809133 720.752754 
L 353.785471 715.342507 
L 355.597952 715.335369 
L 355.583755 712.109206 
L 360.2167 712.087794 
L 360.245094 718.083318 
" clip-path="url(#pb6041c5f2c)" style="fill: #e6482f"/>
    <path d="M 382.477552 718.011943 
L 378.56392 718.026218 
L 378.573385 720.667104 
L 376.046324 720.681379 
L 376.022662 715.271132 
L 377.835142 715.256857 
L 377.820945 712.037831 
L 382.449158 712.016418 
L 382.477552 718.011943 
" clip-path="url(#pb6041c5f2c)" style="fill: #e6482f"/>
    <path d="M 394.436135 717.569416 
L 390.51777 717.590829 
L 390.531967 720.231715 
L 388.000174 720.238852 
L 387.976512 714.828605 
L 389.788992 714.821467 
L 389.774795 711.595304 
L 394.407741 711.573891 
L 394.436135 717.569416 
" clip-path="url(#pb6041c5f2c)" style="fill: #e6482f"/>
    <path d="M 383.580183 693.958468 
L 383.523395 701.310124 
L 378.601779 701.274436 
L 378.620708 698.626413 
L 376.524288 698.612138 
L 376.562147 693.908506 
L 383.580183 693.958468 
" clip-path="url(#pb6041c5f2c)" style="fill: #e6482f"/>
    <path d="M 361.707382 693.815718 
L 361.655326 701.167373 
L 356.728977 701.124548 
L 356.752639 698.483662 
L 354.651487 698.462249 
L 354.689345 693.758617 
L 361.707382 693.815718 
" clip-path="url(#pb6041c5f2c)" style="fill: #e6482f"/>
    <path d="M 351.064385 693.744342 
L 351.007597 701.08886 
L 346.08598 701.053173 
L 346.109642 698.405149 
L 344.00849 698.390874 
L 344.046349 693.687242 
L 351.064385 693.744342 
" clip-path="url(#pb6041c5f2c)" style="fill: #e6482f"/>
    <path d="M 368.171736 609.435842 
L 368.332635 643.753085 
L 359.724538 643.788773 
L 359.568371 609.47153 
L 368.171736 609.435842 
" clip-path="url(#pb6041c5f2c)" style="fill: #e6482f"/>
    <path d="M 348.840193 591.584881 
L 348.698223 610.470784 
L 340.885156 610.413684 
L 341.027126 591.527781 
L 348.840193 591.584881 
" clip-path="url(#pb6041c5f2c)" style="fill: #e6482f"/>
    <path d="M 339.318757 718.226069 
L 335.405125 718.247482 
L 335.41459 720.888368 
L 332.887529 720.895505 
L 332.863867 715.485258 
L 334.676347 715.47812 
L 334.66215 712.251957 
L 339.290363 712.230544 
L 339.318757 718.226069 
" clip-path="url(#pb6041c5f2c)" style="fill: #e6482f"/>
    <path d="M 328.311371 718.154694 
L 324.397739 718.176106 
L 324.407204 720.809855 
L 321.880143 720.82413 
L 321.856481 715.413882 
L 323.668962 715.406745 
L 323.654765 712.180581 
L 328.282977 712.159169 
L 328.311371 718.154694 
" clip-path="url(#pb6041c5f2c)" style="fill: #e6482f"/>
    <path d="M 317.961779 718.011943 
L 314.043415 718.026218 
L 314.057612 720.667104 
L 311.525818 720.681379 
L 311.502157 715.271132 
L 313.314637 715.256857 
L 313.30044 712.037831 
L 317.928653 712.016418 
L 317.961779 718.011943 
" clip-path="url(#pb6041c5f2c)" style="fill: #e6482f"/>
    <path d="M 305.856494 717.719304 
L 301.942862 717.740717 
L 301.952327 720.374465 
L 299.425266 720.38874 
L 299.401604 714.978493 
L 301.214084 714.971355 
L 301.199887 711.745192 
L 305.8281 711.723779 
L 305.856494 717.719304 
" clip-path="url(#pb6041c5f2c)" style="fill: #e6482f"/>
    <path d="M 296.235679 716.991276 
L 292.317315 717.005551 
L 292.331512 719.646437 
L 289.804451 719.660712 
L 289.776057 714.250465 
L 291.588537 714.23619 
L 291.57434 711.017164 
L 296.207285 710.995751 
L 296.235679 716.991276 
" clip-path="url(#pb6041c5f2c)" style="fill: #e6482f"/>
    <path d="M 339.910298 693.958468 
L 339.85351 701.310124 
L 334.931893 701.274436 
L 334.955554 698.626413 
L 332.854402 698.612138 
L 332.892261 693.908506 
L 339.910298 693.958468 
" clip-path="url(#pb6041c5f2c)" style="fill: #e6482f"/>
    <path d="M 317.195142 693.465979 
L 317.138354 700.817634 
L 312.216738 700.781947 
L 312.235667 698.133923 
L 310.139247 698.119648 
L 310.172374 693.416016 
L 317.195142 693.465979 
" clip-path="url(#pb6041c5f2c)" style="fill: #e6482f"/>
    <path d="M 306.665721 693.451704 
L 306.613666 700.796222 
L 301.687317 700.760534 
L 301.710978 698.112511 
L 299.609826 698.098235 
L 299.647685 693.394603 
L 306.665721 693.451704 
" clip-path="url(#pb6041c5f2c)" style="fill: #e6482f"/>
    <path d="M 328.75621 693.451704 
L 328.699422 700.796222 
L 323.777805 700.760534 
L 323.796734 698.112511 
L 321.700315 698.098235 
L 321.738173 693.394603 
L 328.75621 693.451704 
" clip-path="url(#pb6041c5f2c)" style="fill: #e6482f"/>
    <path d="M 328.704154 564.241005 
L 328.779871 592.726886 
L 319.381476 592.748298 
L 319.305759 564.269555 
L 328.704154 564.241005 
" clip-path="url(#pb6041c5f2c)" style="fill: #e6482f"/>
    <path d="M 263.435942 693.451704 
L 263.379154 700.796222 
L 258.457537 700.760534 
L 258.476466 698.112511 
L 256.380047 698.098235 
L 256.417905 693.394603 
L 263.435942 693.451704 
" clip-path="url(#pb6041c5f2c)" style="fill: #e6482f"/>
    <path d="M 296.316129 693.301816 
L 296.259341 700.653471 
L 291.337724 700.617783 
L 291.356653 697.96976 
L 289.260234 697.955485 
L 289.29336 693.251853 
L 296.316129 693.301816 
" clip-path="url(#pb6041c5f2c)" style="fill: #e6482f"/>
    <path d="M 250.09552 693.23044 
L 250.038733 700.582096 
L 245.117116 700.546408 
L 245.136045 697.898385 
L 243.039625 697.88411 
L 243.077484 693.180478 
L 250.09552 693.23044 
" clip-path="url(#pb6041c5f2c)" style="fill: #e6482f"/>
    <path d="M 236.097306 693.08769 
L 236.040518 700.432208 
L 231.118901 700.39652 
L 231.137831 697.748496 
L 229.041411 697.734221 
L 229.07927 693.030589 
L 236.097306 693.08769 
" clip-path="url(#pb6041c5f2c)" style="fill: #e6482f"/>
    <path d="M 275.318807 693.009177 
L 275.262019 700.360832 
L 270.340402 700.325145 
L 270.359332 697.677121 
L 268.262912 697.662846 
L 268.300771 692.959214 
L 275.318807 693.009177 
" clip-path="url(#pb6041c5f2c)" style="fill: #e6482f"/>
    <path d="M 217.783212 690.767993 
L 217.570258 700.767672 
L 211.919863 700.646334 
L 212.0571 694.086944 
L 210.627938 694.058394 
L 210.698923 690.618104 
L 217.783212 690.767993 
" clip-path="url(#pb6041c5f2c)" style="fill: #e6482f"/>
    <path d="M 202.062432 595.938774 
L 202.034038 606.423805 
L 175.83116 606.35243 
L 175.859554 595.867399 
L 202.062432 595.938774 
" clip-path="url(#pb6041c5f2c)" style="fill: #e6482f"/>
    <path d="M 271.873675 595.760336 
L 271.873675 606.238229 
L 245.367929 606.238229 
L 245.367929 595.760336 
L 271.873675 595.760336 
" clip-path="url(#pb6041c5f2c)" style="fill: #e6482f"/>
    <path d="M 236.523215 595.895949 
L 236.409639 606.181129 
L 211.285731 605.902765 
L 211.404039 595.617585 
L 236.523215 595.895949 
" clip-path="url(#pb6041c5f2c)" style="fill: #e6482f"/>
    <path d="M 295.913881 581.999179 
L 295.994331 616.716123 
L 287.689102 616.730398 
L 287.608653 582.020591 
L 295.913881 581.999179 
" clip-path="url(#pb6041c5f2c)" style="fill: #e6482f"/>
    <path d="M 349.469592 536.354677 
L 349.550042 563.848441 
L 341.732242 563.869853 
L 341.656525 536.376089 
L 349.469592 536.354677 
" clip-path="url(#pb6041c5f2c)" style="fill: #e6482f"/>
    <path d="M 329.787857 505.798912 
L 329.574902 533.985017 
L 318.496531 533.899366 
L 318.709486 505.713262 
L 329.787857 505.798912 
" clip-path="url(#pb6041c5f2c)" style="fill: #e6482f"/>
    <path d="M 348.717152 488.640291 
L 348.32437 507.040843 
L 340.411924 506.840992 
L 340.610681 488.247727 
L 348.717152 488.640291 
" clip-path="url(#pb6041c5f2c)" style="fill: #e6482f"/>
    <path d="M 226.102638 537.21118 
L 225.951203 546.975321 
L 228.634431 547.018146 
L 228.577643 550.672561 
L 228.511391 554.969354 
L 226.102638 554.926529 
L 225.989062 562.321009 
L 211.162691 562.092609 
L 211.318858 552.014417 
L 216.746833 552.09293 
L 216.832015 546.754057 
L 211.574403 546.668407 
L 211.725837 536.989917 
L 226.102638 537.21118 
" clip-path="url(#pb6041c5f2c)" style="fill: #e6482f"/>
    <path d="M 180.317403 52.151805 
L 179.612287 59.275059 
L 165.382189 57.861828 
L 166.087305 50.745711 
L 180.317403 52.151805 
" clip-path="url(#pb6041c5f2c)" style="fill: #e6482f"/>
   </g>
   <g id="LineCollection_1">
    <path d="M 400.607393 773.972261 
L 279.634687 776.418348 
L 211.858343 776.860875 
L 200.708987 752.157885 
" clip-path="url(#pb6041c5f2c)" style="fill: none; stroke: #e6482f; stroke-width: 0.2"/>
    <path d="M 182.650439 709.275607 
L 187.11302 707.805276 
L 195.92934 706.270707 
L 280.022737 705.999481 
L 395.869778 705.724543 
" clip-path="url(#pb6041c5f2c)" style="fill: none; stroke: #e6482f; stroke-width: 0.2"/>
    <path d="M 278.494197 642.132866 
L 306.987519 645.401854 
L 358.602977 646.865048 
L 391.417598 648.463148 
" clip-path="url(#pb6041c5f2c)" style="fill: none; stroke: #e6482f; stroke-width: 0.2"/>
    <path d="M 394.989816 348.509172 
L 399.239443 353.162841 
L 401.527065 354.328329 
" clip-path="url(#pb6041c5f2c)" style="fill: none; stroke: #e6482f; stroke-width: 0.2"/>
    <path d="M 394.623184 359.778011 
L 394.989816 348.509172 
L 394.459796 327.631898 
" clip-path="url(#pb6041c5f2c)" style="fill: none; stroke: #e6482f; stroke-width: 0.2"/>
    <path d="M 129.27715 586.586995 
L 135.625335 587.116787 
L 154.521505 589.800498 
" clip-path="url(#pb6041c5f2c)" style="fill: none; stroke: #e6482f; stroke-width: 0.2"/>
    <path d="M 98.547577 445.165598 
L 90.591504 441.331826 
" clip-path="url(#pb6041c5f2c)" style="fill: none; stroke: #e6482f; stroke-width: 0.2"/>
    <path d="M 51.062502 273.530832 
L 53.708807 307.753878 
L 57.939505 319.302401 
L 64.479576 326.611231 
L 78.719139 330.45836 
L 87.951903 334.690915 
L 93.337288 343.156025 
L 92.187333 357.395396 
L 86.082635 385.188937 
L 83.583968 401.790831 
L 89.385798 418.49265 
L 94.411526 427.750026 
L 98.547577 445.165598 
" clip-path="url(#pb6041c5f2c)" style="fill: none; stroke: #e6482f; stroke-width: 0.2"/>
    <path d="M 64.93388 274.178939 
L 64.750032 273.908621 
" clip-path="url(#pb6041c5f2c)" style="fill: none; stroke: #e6482f; stroke-width: 0.2"/>
    <path d="M 79.250688 173.218183 
L 209.875499 186.715651 
L 217.754818 187.465091 
" clip-path="url(#pb6041c5f2c)" style="fill: none; stroke: #e6482f; stroke-width: 0.2"/>
    <path d="M 205.996316 786.503379 
L 211.858343 776.860875 
" clip-path="url(#pb6041c5f2c)" style="fill: none; stroke: #e6482f; stroke-width: 0.2"/>
    <path d="M 195.820497 626.430301 
L 191.944723 638.642614 
L 191.310592 644.102824 
L 195.811032 673.566546 
L 195.886749 693.958468 
L 195.92934 706.270707 
" clip-path="url(#pb6041c5f2c)" style="fill: none; stroke: #e6482f; stroke-width: 0.2"/>
    <path d="M 278.096682 628.014832 
L 195.820497 626.430301 
L 180.970464 629.792077 
" clip-path="url(#pb6041c5f2c)" style="fill: none; stroke: #e6482f; stroke-width: 0.2"/>
    <path d="M 278.0115 590.185925 
L 172.608447 589.857599 
L 154.521505 589.800498 
" clip-path="url(#pb6041c5f2c)" style="fill: none; stroke: #e6482f; stroke-width: 0.2"/>
    <path d="M 277.916853 550.172934 
L 228.577643 550.672561 
" clip-path="url(#pb6041c5f2c)" style="fill: none; stroke: #e6482f; stroke-width: 0.2"/>
    <path d="M 280.122116 299.017542 
L 279.062076 385.631464 
L 277.978373 453.138219 
L 277.888459 485.678216 
L 277.822207 508.632512 
L 277.916853 550.172934 
L 278.0115 590.185925 
L 278.096682 628.014832 
L 278.494197 642.132866 
L 278.574646 645.087803 
L 280.022737 705.999481 
L 279.634687 776.418348 
" clip-path="url(#pb6041c5f2c)" style="fill: none; stroke: #e6482f; stroke-width: 0.2"/>
    <path d="M 277.822207 508.632512 
L 201.480356 509.47474 
L 116.028782 512.244102 
" clip-path="url(#pb6041c5f2c)" style="fill: none; stroke: #e6482f; stroke-width: 0.2"/>
    <path d="M 201.726437 452.031902 
L 201.480356 509.47474 
" clip-path="url(#pb6041c5f2c)" style="fill: none; stroke: #e6482f; stroke-width: 0.2"/>
    <path d="M 98.547577 445.165598 
L 104.680669 450.140456 
L 123.344955 450.50447 
L 201.726437 452.031902 
L 277.978373 453.138219 
L 356.415236 450.765471 
" clip-path="url(#pb6041c5f2c)" style="fill: none; stroke: #e6482f; stroke-width: 0.2"/>
    <path d="M 355.474344 384.562793 
L 279.062076 385.631464 
L 202.071897 384.824923 
L 86.082635 385.188937 
" clip-path="url(#pb6041c5f2c)" style="fill: none; stroke: #e6482f; stroke-width: 0.2"/>
    <path d="M 405.100651 338.182868 
L 402.992176 334.483926 
L 394.459796 327.631898 
L 389.410407 316.304638 
L 377.073238 310.423314 
L 280.122116 299.017542 
L 270.458711 297.939775 
L 253.834056 295.877029 
L 207.234862 290.09563 
L 64.93388 274.178939 
L 61.187325 273.810287 
" clip-path="url(#pb6041c5f2c)" style="fill: none; stroke: #e6482f; stroke-width: 0.2"/>
    <path d="M 232.254659 55.113879 
L 225.695658 108.495464 
L 223.897375 124.312229 
L 217.754818 187.465091 
L 216.178954 204.730775 
L 207.234862 290.09563 
L 202.071897 384.824923 
L 201.726437 452.031902 
" clip-path="url(#pb6041c5f2c)" style="fill: none; stroke: #e6482f; stroke-width: 0.2"/>
    <path d="M 301.800892 63.05795 
L 292.729027 132.020761 
L 280.817768 215.872459 
L 275.626408 257.006042 
L 270.458711 297.939775 
" clip-path="url(#pb6041c5f2c)" style="fill: none; stroke: #e6482f; stroke-width: 0.2"/>
    <path d="M 151.82408 108.067212 
L 169.153851 115.740056 
L 178.760469 119.994024 
L 193.000031 122.684872 
L 223.897375 124.312229 
" clip-path="url(#pb6041c5f2c)" style="fill: none; stroke: #e6482f; stroke-width: 0.2"/>
    <path d="M 387.791952 232.074651 
L 378.27998 230.63287 
L 280.817768 215.872459 
L 216.178954 204.730775 
" clip-path="url(#pb6041c5f2c)" style="fill: none; stroke: #e6482f; stroke-width: 0.2"/>
    <path d="M 364.990206 50.729178 
L 374.200717 83.235746 
L 377.778354 136.938519 
L 387.791952 232.074651 
L 388.870922 252.716387 
L 391.691387 306.747486 
L 389.410407 316.304638 
" clip-path="url(#pb6041c5f2c)" style="fill: none; stroke: #e6482f; stroke-width: 0.2"/>
    <path d="M 377.778354 136.938519 
L 369.29803 136.453167 
L 292.729027 132.020761 
L 223.897375 124.312229 
" clip-path="url(#pb6041c5f2c)" style="fill: none; stroke: #e6482f; stroke-width: 0.2"/>
    <path d="M 176.067776 63.436239 
L 169.527704 72.672202 
L 160.290208 79.595606 
L 152.212131 88.446143 
L 150.286075 95.754973 
L 151.82408 108.067212 
" clip-path="url(#pb6041c5f2c)" style="fill: none; stroke: #e6482f; stroke-width: 0.2"/>
    <path d="M 209.875499 186.715651 
L 166.499017 127.930957 
L 158.368884 116.917748 
L 151.82408 108.067212 
L 146.822014 103.063803 
L 130.661127 98.445822 
L 121.811682 92.293271 
L 113.350286 78.824753 
L 109.114856 64.207092 
L 108.34822 52.28028 
L 109.136031 46.599666 
" clip-path="url(#pb6041c5f2c)" style="fill: none; stroke: #e6482f; stroke-width: 0.2"/>
   </g>
  </g>
 </g>
 <defs>
  <clipPath id="pb6041c5f2c">
   <rect x="7.2" y="7.2" width="417.475212" height="831.6"/>
  </clipPath>
 </defs>
</svg>
