<?xml version="1.0" encoding="utf-8" standalone="no"?>
<!DOCTYPE svg PUBLIC "-//W3C//DTD SVG 1.1//EN"
  "http://www.w3.org/Graphics/SVG/1.1/DTD/svg11.dtd">
<svg xmlns:xlink="http://www.w3.org/1999/xlink" width="851.4pt" height="708.146553pt" viewBox="0 0 851.4 708.146553" xmlns="http://www.w3.org/2000/svg" version="1.1">
 <metadata>
  <rdf:RDF xmlns:dc="http://purl.org/dc/elements/1.1/" xmlns:cc="http://creativecommons.org/ns#" xmlns:rdf="http://www.w3.org/1999/02/22-rdf-syntax-ns#">
   <cc:Work>
    <dc:type rdf:resource="http://purl.org/dc/dcmitype/StillImage"/>
    <dc:date>2025-03-16T14:37:54.011272</dc:date>
    <dc:format>image/svg+xml</dc:format>
    <dc:creator>
     <cc:Agent>
      <dc:title>Matplotlib v3.10.1, https://matplotlib.org/</dc:title>
     </cc:Agent>
    </dc:creator>
   </cc:Work>
  </rdf:RDF>
 </metadata>
 <defs>
  <style type="text/css">*{stroke-linejoin: round; stroke-linecap: butt}</style>
 </defs>
 <g id="figure_1">
  <g id="patch_1">
   <path d="M 0 708.146553 
L 851.4 708.146553 
L 851.4 0 
L 0 0 
z
" style="fill: #ffffff"/>
  </g>
  <g id="axes_1">
   <g id="PatchCollection_1">
    <path d="M 568.015323 669.412619 
L 729.880641 408.48293 
L 568.550553 343.741654 
L 459.812369 273.6575 
L 420.712382 243.151669 
L 464.755699 203.508704 
L 454.737117 197.308606 
L 442.813194 197.308606 
L 367.760516 230.973508 
L 318.658907 236.586198 
L 318.907676 244.568192 
L 298.209013 253.368059 
L 437.259251 471.150013 
L 490.510769 550.126782 
L 525.070733 648.707215 
L 563.158686 640.106898 
L 568.015323 669.412619 
" clip-path="url(#p10366997ff)" style="fill: #f29888"/>
    <path d="M 806.154545 303.918812 
L 629.393277 242.898719 
L 610.454839 278.668731 
L 781.605626 347.403815 
L 806.154545 303.918812 
" clip-path="url(#p10366997ff)" style="fill: #f29888"/>
    <path d="M 118.895983 38.733934 
L 45.245455 127.097977 
L 80.059841 167.519468 
L 115.311456 161.347476 
L 121.702166 191.61722 
L 109.578475 211.30239 
L 180.622589 174.787579 
L 214.291133 130.602747 
L 223.408872 91.330776 
L 212.888984 82.915956 
L 197.455919 108.160416 
L 118.895983 38.733934 
" clip-path="url(#p10366997ff)" style="fill: #f29888"/>
   </g>
   <g id="PatchCollection_2">
    <path d="M 575.289915 544.916001 
L 574.243957 547.257199 
L 566.939212 543.991327 
L 567.987054 541.647319 
L 575.289915 544.916001 
" clip-path="url(#p10366997ff)" style="fill: #f29888"/>
    <path d="M 594.126584 537.892409 
L 593.029742 540.10151 
L 591.280824 539.233047 
L 592.377667 537.023946 
L 594.126584 537.892409 
" clip-path="url(#p10366997ff)" style="fill: #f29888"/>
    <path d="M 577.960406 537.088588 
L 577.146255 539.022255 
L 571.669581 536.714784 
L 572.483732 534.781118 
L 577.960406 537.088588 
" clip-path="url(#p10366997ff)" style="fill: #f29888"/>
    <path d="M 593.293587 535.031258 
L 595.100927 535.829457 
L 594.126584 537.892409 
L 592.377667 537.023946 
L 593.293587 535.031258 
" clip-path="url(#p10366997ff)" style="fill: #f29888"/>
    <path d="M 518.6461 513.974533 
L 515.847455 515.722702 
L 507.506175 502.375347 
L 510.30482 500.627178 
L 518.6461 513.974533 
" clip-path="url(#p10366997ff)" style="fill: #f29888"/>
    <path d="M 601.303176 482.215192 
L 590.351712 501.439431 
L 588.399257 500.329259 
L 599.346952 481.10221 
L 601.303176 482.215192 
" clip-path="url(#p10366997ff)" style="fill: #f29888"/>
    <path d="M 595.967848 478.187658 
L 597.893918 479.29783 
L 586.28661 499.415826 
L 584.366193 498.305655 
L 595.967848 478.187658 
" clip-path="url(#p10366997ff)" style="fill: #f29888"/>
    <path d="M 594.840851 477.333247 
L 582.792544 498.850904 
L 581.322549 498.027409 
L 593.365202 476.509753 
L 594.840851 477.333247 
" clip-path="url(#p10366997ff)" style="fill: #f29888"/>
    <path d="M 589.972906 474.356863 
L 591.612516 475.287159 
L 578.203521 498.949273 
L 576.560142 498.016167 
L 589.972906 474.356863 
" clip-path="url(#p10366997ff)" style="fill: #f29888"/>
    <path d="M 618.777273 478.943699 
L 620.869189 479.969554 
L 618.179852 485.464201 
L 616.084166 484.438346 
L 618.777273 478.943699 
" clip-path="url(#p10366997ff)" style="fill: #f29888"/>
    <path d="M 605.012087 477.212393 
L 603.832322 479.606991 
L 601.225907 478.319754 
L 602.407557 475.925156 
L 605.012087 477.212393 
" clip-path="url(#p10366997ff)" style="fill: #f29888"/>
    <path d="M 619.968346 474.24163 
L 619.186233 475.74528 
L 617.015163 474.612624 
L 617.797276 473.111784 
L 619.968346 474.24163 
" clip-path="url(#p10366997ff)" style="fill: #f29888"/>
    <path d="M 606.321891 452.420433 
L 608.174462 453.465962 
L 596.276923 474.564845 
L 594.428122 473.522126 
L 606.321891 452.420433 
" clip-path="url(#p10366997ff)" style="fill: #f29888"/>
    <path d="M 603.027594 450.64978 
L 604.799126 451.65596 
L 592.639628 473.052763 
L 590.871864 472.049392 
L 603.027594 450.64978 
" clip-path="url(#p10366997ff)" style="fill: #f29888"/>
    <path d="M 467.428075 461.596915 
L 465.762081 462.780162 
L 464.422123 460.894275 
L 466.088118 459.711029 
L 467.428075 461.596915 
" clip-path="url(#p10366997ff)" style="fill: #f29888"/>
    <path d="M 599.322452 448.567154 
L 601.171254 449.595819 
L 588.830832 471.773957 
L 586.9858 470.748103 
L 599.322452 448.567154 
" clip-path="url(#p10366997ff)" style="fill: #f29888"/>
    <path d="M 595.581503 446.422696 
L 597.564112 447.504762 
L 585.283998 470.006114 
L 583.29762 468.921238 
L 595.581503 446.422696 
" clip-path="url(#p10366997ff)" style="fill: #f29888"/>
    <path d="M 465.360659 454.902159 
L 464.162047 455.722842 
L 463.117974 454.199518 
L 464.316585 453.376024 
L 465.360659 454.902159 
" clip-path="url(#p10366997ff)" style="fill: #f29888"/>
    <path d="M 565.062141 411.223227 
L 565.391947 411.464936 
L 566.820481 409.522838 
L 566.492559 409.28113 
L 568.335707 406.77973 
L 572.351809 409.736441 
L 567.120134 416.838729 
L 563.104032 413.882018 
L 565.062141 411.223227 
" clip-path="url(#p10366997ff)" style="fill: #f29888"/>
    <path d="M 547.280853 398.969181 
L 543.871595 403.704976 
L 546.012511 405.245164 
L 549.244616 400.756698 
L 552.269413 402.934883 
L 549.035424 407.426159 
L 551.087763 408.904514 
L 554.498906 404.165908 
L 556.406131 405.540273 
L 552.906411 410.402544 
L 553.907139 411.122047 
L 556.223324 407.903955 
L 557.985433 409.174328 
L 557.56705 409.753304 
L 558.956007 410.751053 
L 558.505585 411.374998 
L 561.35323 413.426707 
L 558.320894 417.639739 
L 552.324067 413.319906 
L 552.755643 412.721257 
L 551.754915 412.001753 
L 551.32334 412.600402 
L 539.949723 404.410427 
L 545.032514 397.350298 
L 547.280853 398.969181 
" clip-path="url(#p10366997ff)" style="fill: #f29888"/>
    <path d="M 407.540848 345.264978 
L 405.366009 347.004715 
L 403.847014 345.104776 
L 406.021853 343.365039 
L 407.540848 345.264978 
" clip-path="url(#p10366997ff)" style="fill: #f29888"/>
    <path d="M 395.975001 331.577545 
L 393.183895 333.811941 
L 391.451939 331.647809 
L 394.24493 329.413413 
L 395.975001 331.577545 
" clip-path="url(#p10366997ff)" style="fill: #f29888"/>
    <path d="M 391.169247 326.819265 
L 389.190408 328.404421 
L 387.665759 326.498861 
L 389.644599 324.916515 
L 391.169247 326.819265 
" clip-path="url(#p10366997ff)" style="fill: #f29888"/>
    <path d="M 387.066453 322.083469 
L 389.088639 320.467397 
L 390.302327 321.982289 
L 388.280141 323.601172 
L 387.066453 322.083469 
" clip-path="url(#p10366997ff)" style="fill: #f29888"/>
    <path d="M 411.023606 308.761409 
L 409.408496 310.054268 
L 408.300345 308.668661 
L 409.915455 307.375803 
L 411.023606 308.761409 
" clip-path="url(#p10366997ff)" style="fill: #f29888"/>
    <path d="M 407.567232 304.390987 
L 405.921968 305.706329 
L 404.83078 304.346018 
L 406.477928 303.027865 
L 407.567232 304.390987 
" clip-path="url(#p10366997ff)" style="fill: #f29888"/>
    <path d="M 405.810777 302.460131 
L 403.394707 304.393797 
L 402.392095 303.143098 
L 404.810049 301.209432 
L 405.810777 302.460131 
" clip-path="url(#p10366997ff)" style="fill: #f29888"/>
    <path d="M 427.960589 427.428923 
L 431.503654 433.075341 
L 428.723856 434.820699 
L 425.18079 429.171471 
L 427.960589 427.428923 
" clip-path="url(#p10366997ff)" style="fill: #f29888"/>
    <path d="M 451.75378 431.313119 
L 448.47456 433.291754 
L 446.763335 430.453087 
L 450.04067 428.474452 
L 451.75378 431.313119 
" clip-path="url(#p10366997ff)" style="fill: #f29888"/>
    <path d="M 451.964856 367.128333 
L 449.950209 368.741595 
L 448.489637 366.914731 
L 450.506169 365.304279 
L 451.964856 367.128333 
" clip-path="url(#p10366997ff)" style="fill: #f29888"/>
    <path d="M 446.584297 354.337469 
L 444.439612 356.051912 
L 443.508615 354.888339 
L 445.6533 353.171086 
L 446.584297 354.337469 
" clip-path="url(#p10366997ff)" style="fill: #f29888"/>
    <path d="M 460.694366 349.073288 
L 462.030554 350.745572 
L 460.132753 352.263275 
L 458.796565 350.593802 
L 460.694366 349.073288 
" clip-path="url(#p10366997ff)" style="fill: #f29888"/>
    <path d="M 441.130238 347.569638 
L 438.423939 349.73377 
L 435.26345 345.782121 
L 437.969748 343.617989 
L 441.130238 347.569638 
" clip-path="url(#p10366997ff)" style="fill: #f29888"/>
    <path d="M 454.501541 338.795066 
L 455.813229 340.433623 
L 452.878892 342.780442 
L 451.567204 341.141885 
L 454.501541 338.795066 
" clip-path="url(#p10366997ff)" style="fill: #f29888"/>
    <path d="M 449.520518 335.548868 
L 450.557053 336.844537 
L 449.064443 338.039025 
L 448.029792 336.743356 
L 449.520518 335.548868 
" clip-path="url(#p10366997ff)" style="fill: #f29888"/>
    <path d="M 429.260969 332.732686 
L 426.647016 334.823743 
L 423.627872 331.049159 
L 426.241825 328.958102 
L 429.260969 332.732686 
" clip-path="url(#p10366997ff)" style="fill: #f29888"/>
    <path d="M 443.399308 327.305492 
L 444.439612 328.603971 
L 442.498464 330.158212 
L 441.45816 328.856922 
L 443.399308 327.305492 
" clip-path="url(#p10366997ff)" style="fill: #f29888"/>
    <path d="M 464.46547 352.951863 
L 465.771504 354.587609 
L 463.540126 356.372316 
L 462.234092 354.73938 
L 464.46547 352.951863 
" clip-path="url(#p10366997ff)" style="fill: #f29888"/>
    <path d="M 477.36185 334.801259 
L 478.969422 336.66185 
L 477.62758 337.822612 
L 476.018124 335.96202 
L 477.36185 334.801259 
" clip-path="url(#p10366997ff)" style="fill: #f29888"/>
    <path d="M 472.793558 329.109872 
L 474.68759 331.476365 
L 472.993326 332.831055 
L 471.099294 330.464563 
L 472.793558 329.109872 
" clip-path="url(#p10366997ff)" style="fill: #f29888"/>
    <path d="M 468.935763 324.781608 
L 470.339796 326.538209 
L 468.460841 328.041859 
L 467.054923 326.285258 
L 468.935763 324.781608 
" clip-path="url(#p10366997ff)" style="fill: #f29888"/>
    <path d="M 464.976199 320.428049 
L 466.34631 322.139681 
L 464.331662 323.752943 
L 462.959667 322.0385 
L 464.976199 320.428049 
" clip-path="url(#p10366997ff)" style="fill: #f29888"/>
    <path d="M 460.858327 316.482021 
L 461.983439 317.811416 
L 460.145945 319.368467 
L 459.018949 318.039072 
L 460.858327 316.482021 
" clip-path="url(#p10366997ff)" style="fill: #f29888"/>
    <path d="M 420.957381 321.521357 
L 418.609158 323.398812 
L 417.120316 321.53822 
L 419.46854 319.657955 
L 420.957381 321.521357 
" clip-path="url(#p10366997ff)" style="fill: #f29888"/>
    <path d="M 416.95824 320.059865 
L 415.373284 321.327428 
L 413.841096 319.410626 
L 415.424168 318.143063 
L 416.95824 320.059865 
" clip-path="url(#p10366997ff)" style="fill: #f29888"/>
    <path d="M 434.064838 315.118899 
L 435.391603 316.77713 
L 433.38261 318.384771 
L 432.055845 316.72654 
L 434.064838 315.118899 
" clip-path="url(#p10366997ff)" style="fill: #f29888"/>
    <path d="M 430.53308 312.080682 
L 431.499885 313.289223 
L 429.735891 314.700125 
L 428.769086 313.491584 
L 430.53308 312.080682 
" clip-path="url(#p10366997ff)" style="fill: #f29888"/>
    <path d="M 456.682033 311.493275 
L 458.278297 313.488773 
L 456.28815 315.082361 
L 454.690001 313.084052 
L 456.682033 311.493275 
" clip-path="url(#p10366997ff)" style="fill: #f29888"/>
    <path d="M 427.540321 307.266191 
L 428.516548 308.488785 
L 426.106133 310.41683 
L 425.129906 309.194236 
L 427.540321 307.266191 
" clip-path="url(#p10366997ff)" style="fill: #f29888"/>
    <path d="M 452.415278 306.895197 
L 453.775966 308.598397 
L 451.902664 310.096426 
L 450.540092 308.396036 
L 452.415278 306.895197 
" clip-path="url(#p10366997ff)" style="fill: #f29888"/>
    <path d="M 425.599173 305.422463 
L 423.411142 307.173442 
L 422.184261 305.638876 
L 424.372293 303.887896 
L 425.599173 305.422463 
" clip-path="url(#p10366997ff)" style="fill: #f29888"/>
    <path d="M 426.232402 300.844059 
L 423.816333 302.774914 
L 422.410415 301.018313 
L 424.826484 299.087458 
L 426.232402 300.844059 
" clip-path="url(#p10366997ff)" style="fill: #f29888"/>
    <path d="M 441.196199 295.163914 
L 447.078065 300.332536 
L 445.755069 301.841808 
L 439.871319 296.673186 
L 441.196199 295.163914 
" clip-path="url(#p10366997ff)" style="fill: #f29888"/>
    <path d="M 418.801388 295.079598 
L 420.024499 296.608543 
L 416.850817 299.14929 
L 415.627706 297.620345 
L 418.801388 295.079598 
" clip-path="url(#p10366997ff)" style="fill: #f29888"/>
    <path d="M 414.685401 292.145372 
L 416.031012 293.828898 
L 413.989981 295.461834 
L 412.64437 293.778308 
L 414.685401 292.145372 
" clip-path="url(#p10366997ff)" style="fill: #f29888"/>
    <path d="M 459.778446 286.822169 
L 461.823247 285.034652 
L 464.407047 288.089732 
L 454.921808 296.262844 
L 452.283355 293.202143 
L 459.778446 286.822169 
" clip-path="url(#p10366997ff)" style="fill: #f29888"/>
    <path d="M 456.723495 279.039725 
L 459.058526 281.86996 
L 457.013725 283.657477 
L 449.228404 290.023398 
L 446.893373 287.212837 
L 456.723495 279.039725 
" clip-path="url(#p10366997ff)" style="fill: #f29888"/>
    <path d="M 461.823247 285.034652 
L 459.778446 286.822169 
L 457.013725 283.657477 
L 459.058526 281.86996 
L 461.823247 285.034652 
" clip-path="url(#p10366997ff)" style="fill: #f29888"/>
    <path d="M 437.492942 279.067831 
L 433.065995 282.609138 
L 431.5715 280.740115 
L 435.998447 277.198807 
L 437.492942 279.067831 
" clip-path="url(#p10366997ff)" style="fill: #f29888"/>
    <path d="M 433.310994 276.215111 
L 429.771698 279.045346 
L 428.416664 277.350578 
L 431.954076 274.520343 
L 433.310994 276.215111 
" clip-path="url(#p10366997ff)" style="fill: #f29888"/>
    <path d="M 401.133176 295.818775 
L 398.692607 297.772115 
L 397.66738 296.490499 
L 400.107949 294.537159 
L 401.133176 295.818775 
" clip-path="url(#p10366997ff)" style="fill: #f29888"/>
    <path d="M 397.793649 291.364036 
L 395.912809 292.867686 
L 394.891351 291.591691 
L 396.772191 290.088041 
L 397.793649 291.364036 
" clip-path="url(#p10366997ff)" style="fill: #f29888"/>
    <path d="M 411.385451 287.921098 
L 412.593485 289.43318 
L 410.264108 291.296582 
L 409.056074 289.7845 
L 411.385451 287.921098 
" clip-path="url(#p10366997ff)" style="fill: #f29888"/>
    <path d="M 393.830316 286.386532 
L 391.919322 287.915477 
L 390.918594 286.664777 
L 392.829588 285.135832 
L 393.830316 286.386532 
" clip-path="url(#p10366997ff)" style="fill: #f29888"/>
    <path d="M 410.211339 285.546174 
L 407.437194 287.763707 
L 405.776854 285.686702 
L 408.549114 283.466359 
L 410.211339 285.546174 
" clip-path="url(#p10366997ff)" style="fill: #f29888"/>
    <path d="M 390.373942 282.82274 
L 388.178373 284.579341 
L 386.793185 282.848035 
L 388.98687 281.091435 
L 390.373942 282.82274 
" clip-path="url(#p10366997ff)" style="fill: #f29888"/>
    <path d="M 403.176093 277.699087 
L 404.960818 279.930673 
L 403.055478 281.453997 
L 401.270753 279.222411 
L 403.176093 277.699087 
" clip-path="url(#p10366997ff)" style="fill: #f29888"/>
    <path d="M 386.812031 278.272442 
L 384.488308 280.130223 
L 383.630811 279.059399 
L 385.954534 277.198807 
L 386.812031 278.272442 
" clip-path="url(#p10366997ff)" style="fill: #f29888"/>
    <path d="M 377.055409 267.364654 
L 374.682686 269.264593 
L 372.764154 266.867185 
L 375.136877 264.967245 
L 377.055409 267.364654 
" clip-path="url(#p10366997ff)" style="fill: #f29888"/>
    <path d="M 393.436432 246.164591 
L 395.194773 247.971782 
L 391.504708 251.560868 
L 389.746367 249.753678 
L 393.436432 246.164591 
" clip-path="url(#p10366997ff)" style="fill: #f29888"/>
    <path d="M 382.366238 244.447338 
L 383.687349 246.383815 
L 379.39044 249.31523 
L 378.069329 247.378753 
L 382.366238 244.447338 
" clip-path="url(#p10366997ff)" style="fill: #f29888"/>
    <path d="M 327.916108 245.138736 
L 329.357834 246.985275 
L 328.285491 247.822822 
L 326.843765 245.976283 
L 327.916108 245.138736 
" clip-path="url(#p10366997ff)" style="fill: #f29888"/>
    <path d="M 367.69267 245.045988 
L 369.075973 244.124124 
L 368.308938 242.974604 
L 370.089893 241.785737 
L 372.556847 245.487246 
L 369.394472 247.595167 
L 367.69267 245.045988 
" clip-path="url(#p10366997ff)" style="fill: #f29888"/>
    <path d="M 399.248567 244.042617 
L 397.022844 246.066221 
L 395.000658 243.843067 
L 397.226381 241.819463 
L 399.248567 244.042617 
" clip-path="url(#p10366997ff)" style="fill: #f29888"/>
    <path d="M 381.386241 236.406323 
L 383.559195 234.838029 
L 385.34769 237.319755 
L 383.174735 238.888048 
L 381.386241 236.406323 
" clip-path="url(#p10366997ff)" style="fill: #f29888"/>
    <path d="M 387.769412 231.678959 
L 389.846252 229.790262 
L 392.126629 232.297282 
L 390.04979 234.185979 
L 387.769412 231.678959 
" clip-path="url(#p10366997ff)" style="fill: #f29888"/>
    <path d="M 411.108413 229.301224 
L 412.746138 231.102794 
L 408.873267 234.624427 
L 407.235541 232.822857 
L 411.108413 229.301224 
" clip-path="url(#p10366997ff)" style="fill: #f29888"/>
   </g>
   <g id="LineCollection_1">
    <path d="M 428.203703 386.327277 
L 447.413525 417.558232 
L 469.307031 453.15399 
L 500.68389 505.169045 
L 506.565755 514.921692 
L 511.086933 521.262318 
L 519.149291 534.188089 
L 524.156698 545.317912 
L 534.265741 573.628694 
L 544.778092 599.00244 
L 560.65431 640.672389 
" clip-path="url(#p10366997ff)" style="fill: none; stroke: #f29888; stroke-width: 0.2"/>
    <path d="M 565.252456 652.741039 
L 570.238742 665.82843 
" clip-path="url(#p10366997ff)" style="fill: none; stroke: #f29888; stroke-width: 0.2"/>
    <path d="M 687.808849 476.303386 
L 694.24268 463.72451 
L 697.776323 456.81334 
L 698.980588 454.803789 
L 722.342204 415.818495 
L 727.929505 411.628194 
" clip-path="url(#p10366997ff)" style="fill: none; stroke: #f29888; stroke-width: 0.2"/>
    <path d="M 539.981761 512.898088 
L 541.990755 517.366881 
L 542.916098 519.421401 
L 555.399749 537.771555 
L 563.76176 547.934544 
L 572.47054 554.72767 
L 589.658176 563.148112 
" clip-path="url(#p10366997ff)" style="fill: none; stroke: #f29888; stroke-width: 0.2"/>
    <path d="M 541.990755 517.366881 
L 545.801435 518.420841 
L 570.533161 530.919407 
L 582.943313 536.903091 
L 585.934188 535.056553 
L 590.070905 532.943011 
L 592.624551 529.511316 
L 592.632089 524.196544 
" clip-path="url(#p10366997ff)" style="fill: none; stroke: #f29888; stroke-width: 0.2"/>
    <path d="M 511.086933 521.262318 
L 520.010557 517.51303 
L 539.981761 512.898088 
L 542.529753 512.307871 
L 555.559941 509.29776 
L 562.77611 508.817154 
L 566.616943 510.132496 
L 578.951711 518.825562 
L 584.712961 521.860968 
L 590.09729 524.008237 
L 592.632089 524.196544 
L 593.838239 524.286482 
L 597.023229 523.679401 
L 599.980181 521.860968 
L 607.056888 513.569813 
L 608.777536 510.790168 
L 614.408749 496.419768 
L 615.731745 490.073521 
L 615.145631 486.332664 
L 614.418172 481.681185 
L 612.699408 479.356851 
L 605.117625 474.806553 
" clip-path="url(#p10366997ff)" style="fill: none; stroke: #f29888; stroke-width: 0.2"/>
    <path d="M 557.717819 473.423757 
L 561.918613 479.29783 
L 562.973994 483.60923 
L 562.798725 486.866671 
L 559.278275 490.826752 
L 550.916264 499.893622 
L 546.9567 503.853703 
L 544.227786 507.549591 
L 542.529753 512.307871 
" clip-path="url(#p10366997ff)" style="fill: none; stroke: #f29888; stroke-width: 0.2"/>
    <path d="M 557.717819 473.423757 
L 563.151147 471.110665 
L 568.959513 466.358006 
L 573.448652 461.782412 
L 580.225707 453.420993 
L 581.456357 448.578396 
L 580.840089 441.625068 
L 580.840089 437.226539 
L 581.720202 429.303567 
L 583.65758 417.423325 
L 585.240652 413.98882 
L 587.089453 405.101825 
L 586.297918 396.650468 
L 580.576244 391.108041 
L 547.953658 366.827603 
" clip-path="url(#p10366997ff)" style="fill: none; stroke: #f29888; stroke-width: 0.2"/>
    <path d="M 506.565755 514.921692 
L 503.427881 521.400036 
L 497.628938 523.108857 
L 491.411612 523.412398 
L 482.604833 528.786191 
L 480.122803 532.549532 
L 479.402504 533.65223 
" clip-path="url(#p10366997ff)" style="fill: none; stroke: #f29888; stroke-width: 0.2"/>
    <path d="M 546.336664 461.863919 
L 533.608013 474.517065 
L 510.204935 498.100484 
L 500.68389 505.169045 
" clip-path="url(#p10366997ff)" style="fill: none; stroke: #f29888; stroke-width: 0.2"/>
    <path d="M 533.608013 474.517065 
L 523.237008 460.301247 
L 495.797098 428.61498 
" clip-path="url(#p10366997ff)" style="fill: none; stroke: #f29888; stroke-width: 0.2"/>
    <path d="M 469.307031 453.15399 
L 495.797098 428.61498 
L 510.201166 413.674037 
" clip-path="url(#p10366997ff)" style="fill: none; stroke: #f29888; stroke-width: 0.2"/>
    <path d="M 447.413525 417.558232 
L 430.037428 427.985414 
" clip-path="url(#p10366997ff)" style="fill: none; stroke: #f29888; stroke-width: 0.2"/>
    <path d="M 464.456046 361.406031 
L 465.843119 362.991187 
L 510.201166 413.674037 
L 512.23466 415.062454 
L 544.778092 460.281573 
L 546.336664 461.863919 
L 557.717819 473.423757 
" clip-path="url(#p10366997ff)" style="fill: none; stroke: #f29888; stroke-width: 0.2"/>
    <path d="M 528.753259 390.309842 
L 504.223186 369.26436 
" clip-path="url(#p10366997ff)" style="fill: none; stroke: #f29888; stroke-width: 0.2"/>
    <path d="M 428.203703 386.327277 
L 461.52171 362.271684 
" clip-path="url(#p10366997ff)" style="fill: none; stroke: #f29888; stroke-width: 0.2"/>
    <path d="M 504.223186 369.26436 
L 497.779707 362.873144 
L 495.090369 362.268873 
L 492.310571 362.932165 
L 488.062662 367.423442 
L 485.401593 368.190725 
L 471.559139 361.442568 
L 468.915032 361.175565 
L 465.843119 362.991187 
" clip-path="url(#p10366997ff)" style="fill: none; stroke: #f29888; stroke-width: 0.2"/>
    <path d="M 461.52171 362.271684 
L 464.456046 361.406031 
L 466.176695 357.316664 
L 476.347931 344.309387 
L 484.031482 335.363371 
L 488.073969 333.747298 
" clip-path="url(#p10366997ff)" style="fill: none; stroke: #f29888; stroke-width: 0.2"/>
    <path d="M 488.073969 333.747298 
L 503.128228 314.857517 
L 506.413102 312.479782 
L 509.775245 306.21223 
" clip-path="url(#p10366997ff)" style="fill: none; stroke: #f29888; stroke-width: 0.2"/>
    <path d="M 400.978638 256.029661 
L 414.969977 274.267392 
L 428.011473 288.623739 
L 434.986412 294.99247 
L 446.107491 305.50678 
L 447.522833 310.357808 
L 463.800202 328.151471 
L 473.605824 339.371231 
L 476.347931 344.309387 
" clip-path="url(#p10366997ff)" style="fill: none; stroke: #f29888; stroke-width: 0.2"/>
    <path d="M 446.107491 305.50678 
L 449.343365 303.887896 
L 468.653071 286.296594 
L 473.62844 283.514138 
" clip-path="url(#p10366997ff)" style="fill: none; stroke: #f29888; stroke-width: 0.2"/>
    <path d="M 517.905923 311.100075 
L 509.775245 306.21223 
L 473.62844 283.514138 
L 464.861237 278.008249 
L 461.158111 274.524861 
" clip-path="url(#p10366997ff)" style="fill: none; stroke: #f29888; stroke-width: 0.2"/>
    <path d="M 422.408044 241.62542 
L 421.829955 241.442848 
" clip-path="url(#p10366997ff)" style="fill: none; stroke: #f29888; stroke-width: 0.2"/>
    <path d="M 403.008363 254.610327 
L 417.193816 253.747485 
L 424.270524 254.658107 
L 437.008598 266.990849 
L 441.254622 268.708102 
L 451.567204 275.987456 
L 464.861237 278.008249 
" clip-path="url(#p10366997ff)" style="fill: none; stroke: #f29888; stroke-width: 0.2"/>
    <path d="M 512.23466 415.062454 
L 535.326776 407.814017 
" clip-path="url(#p10366997ff)" style="fill: none; stroke: #f29888; stroke-width: 0.2"/>
    <path d="M 535.326776 407.814017 
L 554.536598 421.765642 
L 556.255362 421.537987 
L 564.191451 410.242342 
L 564.038798 409.129359 
L 546.246202 396.442486 
L 544.374785 396.692626 
L 535.326776 407.814017 
" clip-path="url(#p10366997ff)" style="fill: none; stroke: #f29888; stroke-width: 0.2"/>
    <path d="M 655.670383 441.240021 
L 648.139485 433.409797 
L 643.541038 430.953367 
L 637.399097 426.543596 
L 634.934028 424.446918 
L 628.390665 421.478965 
L 616.221743 413.373307 
L 585.834304 391.313212 
L 552.167645 365.203099 
L 550.392343 364.095738 
" clip-path="url(#p10366997ff)" style="fill: none; stroke: #f29888; stroke-width: 0.2"/>
    <path d="M 781.549087 343.814728 
L 780.491468 346.956363 
" clip-path="url(#p10366997ff)" style="fill: none; stroke: #f29888; stroke-width: 0.2"/>
    <path d="M 510.201166 413.674037 
L 519.533751 401.122071 
L 528.753259 390.309842 
L 547.953658 366.827603 
L 550.392343 364.095738 
L 568.706811 343.80436 
" clip-path="url(#p10366997ff)" style="fill: none; stroke: #f29888; stroke-width: 0.2"/>
    <path d="M 612.181399 279.362127 
L 613.261022 277.749677 
L 634.606501 244.698386 
" clip-path="url(#p10366997ff)" style="fill: none; stroke: #f29888; stroke-width: 0.2"/>
    <path d="M 805.515395 303.69817 
L 803.590612 308.460464 
" clip-path="url(#p10366997ff)" style="fill: none; stroke: #f29888; stroke-width: 0.2"/>
    <path d="M 796.939524 320.241944 
L 781.549087 343.814728 
" clip-path="url(#p10366997ff)" style="fill: none; stroke: #f29888; stroke-width: 0.2"/>
    <path d="M 613.261022 277.749677 
L 696.313866 309.947466 
L 781.549087 343.814728 
" clip-path="url(#p10366997ff)" style="fill: none; stroke: #f29888; stroke-width: 0.2"/>
    <path d="M 696.313866 309.947466 
L 710.177051 292.302763 
L 719.880904 274.666492 
" clip-path="url(#p10366997ff)" style="fill: none; stroke: #f29888; stroke-width: 0.2"/>
    <path d="M 665.43382 255.340343 
L 674.623898 259.405145 
L 679.987496 261.777258 
L 719.880904 274.666492 
L 756.881437 288.618117 
L 776.091259 295.897471 
L 791.147889 298.738336 
" clip-path="url(#p10366997ff)" style="fill: none; stroke: #f29888; stroke-width: 0.2"/>
    <path d="M 675.624831 258.858402 
L 674.623898 259.405145 
" clip-path="url(#p10366997ff)" style="fill: none; stroke: #f29888; stroke-width: 0.2"/>
    <path d="M 424.898099 239.295579 
L 433.951762 230.875138 
L 463.844462 202.944776 
" clip-path="url(#p10366997ff)" style="fill: none; stroke: #f29888; stroke-width: 0.2"/>
    <path d="M 434.331458 230.89327 
L 433.951762 230.875138 
" clip-path="url(#p10366997ff)" style="fill: none; stroke: #f29888; stroke-width: 0.2"/>
    <path d="M 325.707346 237.137068 
L 348.699578 263.598502 
L 353.652332 269.458522 
L 360.071311 282.904247 
L 367.45144 292.406754 
L 372.051771 297.49668 
L 378.319982 307.825493 
L 383.22185 324.607353 
L 389.693598 338.356619 
L 428.203703 386.327277 
" clip-path="url(#p10366997ff)" style="fill: none; stroke: #f29888; stroke-width: 0.2"/>
    <path d="M 348.10261 233.220557 
L 355.088404 239.511993 
L 367.080172 250.360759 
L 386.467147 266.321936 
L 461.52171 362.271684 
" clip-path="url(#p10366997ff)" style="fill: none; stroke: #f29888; stroke-width: 0.2"/>
    <path d="M 386.467147 266.321936 
L 400.978638 256.029661 
L 403.008363 254.610327 
L 421.829955 241.442848 
L 424.898099 239.295579 
" clip-path="url(#p10366997ff)" style="fill: none; stroke: #f29888; stroke-width: 0.2"/>
    <path d="M 348.699578 263.598502 
L 359.718889 255.161197 
L 367.080172 250.360759 
L 377.865791 245.25678 
L 386.813916 239.542909 
L 390.705634 236.358543 
L 396.519653 235.400142 
" clip-path="url(#p10366997ff)" style="fill: none; stroke: #f29888; stroke-width: 0.2"/>
    <path d="M 319.982825 236.434865 
L 325.707346 237.137068 
L 338.234343 235.447921 
L 355.088404 239.511993 
" clip-path="url(#p10366997ff)" style="fill: none; stroke: #f29888; stroke-width: 0.2"/>
    <path d="M 151.394284 67.453951 
L 139.234686 82.43816 
L 131.684941 92.019363 
L 122.569087 105.487573 
L 113.882923 118.584788 
L 101.299387 134.4223 
L 92.16657 145.684219 
L 88.201353 149.104671 
L 78.439077 158.716791 
L 77.272504 158.879803 
" clip-path="url(#p10366997ff)" style="fill: none; stroke: #f29888; stroke-width: 0.2"/>
   </g>
   <g id="LineCollection_2">
    <path d="M 520.732363 623.473997 
L 528.621333 647.905484 
" clip-path="url(#p10366997ff)" style="fill: none; stroke-dasharray: 3.7,1.6; stroke-dashoffset: 0; stroke: #f29888"/>
    <path d="M 396.100502 406.686746 
L 425.22979 451.197839 
L 467.066499 515.356831 
" clip-path="url(#p10366997ff)" style="fill: none; stroke-dasharray: 3.7,1.6; stroke-dashoffset: 0; stroke: #f29888"/>
    <path d="M 492.311455 555.263142 
L 497.327401 564.699541 
L 504.20057 578.401027 
L 508.397595 588.184591 
L 511.682469 596.779287 
L 516.333685 609.393085 
L 520.732363 623.473997 
" clip-path="url(#p10366997ff)" style="fill: none; stroke-dasharray: 3.7,1.6; stroke-dashoffset: 0; stroke: #f29888"/>
    <path d="M 377.921601 378.214759 
L 386.8648 389.612823 
L 390.831902 395.399768 
L 416.119589 434.219239 
L 426.633824 450.360292 
L 480.122803 532.549532 
L 487.847816 544.972213 
L 493.283029 553.971629 
L 497.88336 562.335859 
L 502.129385 570.778785 
L 505.491528 577.681523 
L 509.609399 587.487571 
L 511.201894 591.405494 
L 512.960234 596.503852 
L 516.333685 609.393085 
" clip-path="url(#p10366997ff)" style="fill: none; stroke-dasharray: 3.7,1.6; stroke-dashoffset: 0; stroke: #f29888"/>
    <path d="M 495.193176 563.483095 
L 498.362051 569.896269 
L 502.709845 579.123341 
L 506.8296 589.055864 
L 512.971542 604.474603 
L 520.732363 623.473997 
" clip-path="url(#p10366997ff)" style="fill: none; stroke-dasharray: 3.7,1.6; stroke-dashoffset: 0; stroke: #f29888"/>
    <path d="M 301.162894 252.112241 
L 305.018106 262.673827 
L 306.738391 266.726861 
" clip-path="url(#p10366997ff)" style="fill: none; stroke-dasharray: 3.7,1.6; stroke-dashoffset: 0; stroke: #f29888"/>
   </g>
  </g>
 </g>
 <defs>
  <clipPath id="p10366997ff">
   <rect x="7.2" y="7.2" width="837" height="693.746553"/>
  </clipPath>
 </defs>
</svg>
