<?xml version="1.0" encoding="utf-8" standalone="no"?>
<!DOCTYPE svg PUBLIC "-//W3C//DTD SVG 1.1//EN"
  "http://www.w3.org/Graphics/SVG/1.1/DTD/svg11.dtd">
<svg xmlns:xlink="http://www.w3.org/1999/xlink" width="643.594017pt" height="846pt" viewBox="0 0 643.594017 846" xmlns="http://www.w3.org/2000/svg" version="1.1">
 <metadata>
  <rdf:RDF xmlns:dc="http://purl.org/dc/elements/1.1/" xmlns:cc="http://creativecommons.org/ns#" xmlns:rdf="http://www.w3.org/1999/02/22-rdf-syntax-ns#">
   <cc:Work>
    <dc:type rdf:resource="http://purl.org/dc/dcmitype/StillImage"/>
    <dc:date>2025-03-16T14:38:39.521505</dc:date>
    <dc:format>image/svg+xml</dc:format>
    <dc:creator>
     <cc:Agent>
      <dc:title>Matplotlib v3.10.1, https://matplotlib.org/</dc:title>
     </cc:Agent>
    </dc:creator>
   </cc:Work>
  </rdf:RDF>
 </metadata>
 <defs>
  <style type="text/css">*{stroke-linejoin: round; stroke-linecap: butt}</style>
 </defs>
 <g id="figure_1">
  <g id="patch_1">
   <path d="M 0 846 
L 643.594017 846 
L 643.594017 0 
L 0 0 
z
" style="fill: #ffffff"/>
  </g>
  <g id="axes_1">
   <g id="PatchCollection_1">
    <path d="M 499.168547 45 
L 498.407429 68.921922 
L 415.799543 75.378146 
L 383.705132 97.778758 
L 353.320581 176.003417 
L 386.744295 265.621883 
L 411.052289 303.598568 
L 397.741569 319.292075 
L 441.190803 375.116121 
L 436.657725 390.67618 
L 395.479455 397.407306 
L 366.286143 397.588796 
L 332.811098 461.972209 
L 312.301615 534.898975 
L 178.265143 468.225591 
L 35.799728 545.153134 
L 224.74646 801 
L 371.100659 735.151326 
L 383.705132 696.339255 
L 447.893955 648.474059 
L 477.897946 645.055116 
L 505.245103 674.306959 
L 569.053367 597.192589 
L 607.794289 495.398311 
L 576.64862 479.064253 
L 583.486294 428.930437 
L 569.812715 372.340399 
L 534.110957 277.015689 
L 529.553098 227.268873 
L 540.946862 219.673003 
L 581.587039 60.947058 
L 499.168547 45 
" clip-path="url(#p35101b8759)" style="fill: #f29888"/>
   </g>
   <g id="PatchCollection_2">
    <path d="M 511.514594 629.294885 
L 514.458175 624.26122 
L 517.116779 626.065439 
L 513.982033 630.909608 
L 511.514594 629.294885 
" clip-path="url(#p35101b8759)" style="fill: #f29888"/>
    <path d="M 509.709151 614.765046 
L 514.458175 608.877312 
L 516.546825 610.774946 
L 512.273942 617.044342 
L 509.709151 614.765046 
" clip-path="url(#p35101b8759)" style="fill: #f29888"/>
    <path d="M 483.790418 394.716991 
L 486.102093 396.000763 
L 485.13034 397.748934 
L 482.818664 396.465162 
L 483.790418 394.716991 
" clip-path="url(#p35101b8759)" style="fill: #f29888"/>
    <path d="M 496.145315 387.705623 
L 498.625144 388.869291 
L 497.771984 390.686856 
L 495.292154 389.520519 
L 496.145315 387.705623 
" clip-path="url(#p35101b8759)" style="fill: #f29888"/>
    <path d="M 517.320334 356.911119 
L 519.361193 357.338153 
L 519.113387 358.523173 
L 520.755986 358.86747 
L 520.49225 360.124552 
L 516.808791 359.353221 
L 517.320334 356.911119 
" clip-path="url(#p35101b8759)" style="fill: #f29888"/>
    <path d="M 509.151587 325.508092 
L 509.767562 325.067713 
L 508.202844 322.873824 
L 510.052539 321.555356 
L 512.535909 325.038354 
L 510.070239 326.797201 
L 509.151587 325.508092 
" clip-path="url(#p35101b8759)" style="fill: #f29888"/>
    <path d="M 491.39098 318.795648 
L 493.520341 317.050145 
L 495.024878 318.883724 
L 492.895516 320.631895 
L 491.39098 318.795648 
" clip-path="url(#p35101b8759)" style="fill: #f29888"/>
    <path d="M 496.182485 314.263747 
L 497.697642 313.113424 
L 499.088895 314.944333 
L 497.571969 316.094656 
L 496.182485 314.263747 
" clip-path="url(#p35101b8759)" style="fill: #f29888"/>
    <path d="M 477.23418 312.29939 
L 483.508981 314.637402 
L 482.689451 316.836628 
L 476.41465 314.498616 
L 477.23418 312.29939 
" clip-path="url(#p35101b8759)" style="fill: #f29888"/>
    <path d="M 519.837334 311.770935 
L 520.699345 311.130384 
L 521.414442 312.096549 
L 520.552431 312.734431 
L 519.837334 311.770935 
" clip-path="url(#p35101b8759)" style="fill: #f29888"/>
    <path d="M 538.578545 567.535064 
L 541.001733 569.478069 
L 538.187365 572.990426 
L 535.764177 571.04742 
L 538.578545 567.535064 
" clip-path="url(#p35101b8759)" style="fill: #f29888"/>
    <path d="M 539.157349 566.141865 
L 542.52928 561.583274 
L 545.092301 563.528949 
L 541.815952 568.135581 
L 539.157349 566.141865 
" clip-path="url(#p35101b8759)" style="fill: #f29888"/>
    <path d="M 562.373227 552.94117 
L 564.083088 550.472378 
L 571.108387 555.599458 
L 569.304713 558.068249 
L 562.373227 552.94117 
" clip-path="url(#p35101b8759)" style="fill: #f29888"/>
    <path d="M 580.509083 548.574745 
L 584.877548 542.022439 
L 587.725546 544.205651 
L 583.452663 550.661875 
L 580.509083 548.574745 
" clip-path="url(#p35101b8759)" style="fill: #f29888"/>
    <path d="M 588.484894 537.653345 
L 593.612708 530.911543 
L 594.121018 531.325715 
L 591.0262 539.457548 
L 588.484894 537.653345 
" clip-path="url(#p35101b8759)" style="fill: #f29888"/>
    <path d="M 572.011108 523.267631 
L 573.34041 520.702757 
L 579.227572 523.646624 
L 577.993852 526.304911 
L 572.011108 523.267631 
" clip-path="url(#p35101b8759)" style="fill: #f29888"/>
    <path d="M 576.307002 521.439391 
L 580.627675 512.514376 
L 583.523465 513.984975 
L 579.061188 522.768534 
L 576.307002 521.439391 
" clip-path="url(#p35101b8759)" style="fill: #f29888"/>
    <path d="M 533.498523 361.832688 
L 535.574782 362.732129 
L 534.765873 364.597735 
L 532.689613 363.698294 
L 533.498523 361.832688 
" clip-path="url(#p35101b8759)" style="fill: #f29888"/>
    <path d="M 541.461944 352.200398 
L 543.270927 352.752874 
L 542.778856 354.362259 
L 540.969872 353.809783 
L 541.461944 352.200398 
" clip-path="url(#p35101b8759)" style="fill: #f29888"/>
    <path d="M 545.956082 341.076157 
L 547.623462 340.521013 
L 548.207576 342.271853 
L 546.540196 342.826997 
L 545.956082 341.076157 
" clip-path="url(#p35101b8759)" style="fill: #f29888"/>
    <path d="M 467.858265 375.620555 
L 468.937991 376.031576 
L 468.210503 377.942554 
L 467.130777 377.531533 
L 467.858265 375.620555 
" clip-path="url(#p35101b8759)" style="fill: #f29888"/>
    <path d="M 464.893443 374.849225 
L 466.778539 375.729983 
L 466.118313 377.144534 
L 464.233217 376.263776 
L 464.893443 374.849225 
" clip-path="url(#p35101b8759)" style="fill: #f29888"/>
    <path d="M 471.40543 307.652724 
L 475.526089 309.107309 
L 474.75081 311.301198 
L 470.630151 309.846612 
L 471.40543 307.652724 
" clip-path="url(#p35101b8759)" style="fill: #f29888"/>
    <path d="M 463.332266 304.917036 
L 467.582138 306.344932 
L 466.84757 308.528144 
L 462.599468 307.102918 
L 463.332266 304.917036 
" clip-path="url(#p35101b8759)" style="fill: #f29888"/>
    <path d="M 456.510522 301.5835 
L 462.086156 303.98023 
L 460.898457 306.737269 
L 455.324593 304.34054 
L 456.510522 301.5835 
" clip-path="url(#p35101b8759)" style="fill: #f29888"/>
    <path d="M 450.407415 288.26804 
L 453.446578 289.290253 
L 452.593418 291.828438 
L 449.554255 290.808894 
L 450.407415 288.26804 
" clip-path="url(#p35101b8759)" style="fill: #f29888"/>
    <path d="M 468.291925 284.240574 
L 470.867337 285.067953 
L 468.890199 291.227921 
L 466.316557 290.403211 
L 468.291925 284.240574 
" clip-path="url(#p35101b8759)" style="fill: #f29888"/>
    <path d="M 458.560231 281.323397 
L 461.645415 282.062699 
L 459.940864 289.162143 
L 456.85568 288.420171 
L 458.560231 281.323397 
" clip-path="url(#p35101b8759)" style="fill: #f29888"/>
    <path d="M 472.885185 277.306606 
L 478.529851 279.025419 
L 476.878401 284.443415 
L 471.235506 282.724602 
L 472.885185 277.306606 
" clip-path="url(#p35101b8759)" style="fill: #f29888"/>
    <path d="M 461.227685 277.341303 
L 462.379983 277.669585 
L 461.606474 280.375914 
L 460.454177 280.044963 
L 461.227685 277.341303 
" clip-path="url(#p35101b8759)" style="fill: #f29888"/>
    <path d="M 539.419315 331.518598 
L 542.607161 330.699226 
L 542.876208 331.74546 
L 541.870824 332.00168 
L 542.166421 333.157342 
L 539.983958 333.717824 
L 539.419315 331.518598 
" clip-path="url(#p35101b8759)" style="fill: #f29888"/>
    <path d="M 543.963014 329.543565 
L 545.525962 329.354068 
L 545.690576 330.709902 
L 544.127628 330.899398 
L 543.963014 329.543565 
" clip-path="url(#p35101b8759)" style="fill: #f29888"/>
    <path d="M 529.24688 319.340116 
L 530.776197 318.373951 
L 531.611657 319.69242 
L 530.08234 320.661253 
L 529.24688 319.340116 
" clip-path="url(#p35101b8759)" style="fill: #f29888"/>
    <path d="M 498.203874 311.39728 
L 499.970377 309.710495 
L 500.93505 310.722032 
L 501.935124 309.766543 
L 503.44143 311.343901 
L 501.664307 313.038693 
L 500.756275 312.088542 
L 499.765052 313.033355 
L 498.203874 311.39728 
" clip-path="url(#p35101b8759)" style="fill: #f29888"/>
    <path d="M 497.849866 307.292414 
L 498.941982 306.224828 
L 500.173931 307.48191 
L 499.083585 308.552165 
L 497.849866 307.292414 
" clip-path="url(#p35101b8759)" style="fill: #f29888"/>
    <path d="M 500.414657 271.400189 
L 504.70524 274.109187 
L 503.591884 275.870704 
L 499.3013 273.161705 
L 500.414657 271.400189 
" clip-path="url(#p35101b8759)" style="fill: #f29888"/>
    <path d="M 503.529932 266.201048 
L 507.965659 268.680515 
L 507.075327 270.273887 
L 502.639601 267.794419 
L 503.529932 266.201048 
" clip-path="url(#p35101b8759)" style="fill: #f29888"/>
    <path d="M 462.064915 274.111856 
L 463.217213 274.442808 
L 462.441934 277.146468 
L 461.291407 276.818186 
L 462.064915 274.111856 
" clip-path="url(#p35101b8759)" style="fill: #f29888"/>
    <path d="M 474.039253 270.751631 
L 475.842926 271.416203 
L 474.846393 274.122532 
L 473.042719 273.45796 
L 474.039253 270.751631 
" clip-path="url(#p35101b8759)" style="fill: #f29888"/>
    <path d="M 465.727133 268.026619 
L 469.32032 269.403804 
L 468.51318 271.506948 
L 464.919994 270.129762 
L 465.727133 268.026619 
" clip-path="url(#p35101b8759)" style="fill: #f29888"/>
    <path d="M 476.365089 264.127263 
L 477.710321 264.613014 
L 479.30513 260.203886 
L 481.40617 260.964541 
L 479.855613 265.248228 
L 481.009681 265.667255 
L 480.239712 267.794419 
L 475.639372 266.131655 
L 476.365089 264.127263 
" clip-path="url(#p35101b8759)" style="fill: #f29888"/>
   </g>
   <g id="LineCollection_1">
    <path d="M 233.567681 797.031096 
L 231.706268 792.768916 
L 231.159324 791.762716 
L 224.31457 777.467746 
L 221.089552 773.197404 
L 209.099106 779.812407 
" clip-path="url(#p35101b8759)" style="fill: none; stroke: #f29888; stroke-width: 0.2"/>
    <path d="M 392.663317 687.718502 
L 386.443387 684.691897 
L 371.56264 685.359138 
L 355.568535 686.359999 
L 350.127424 685.359138 
L 345.461592 683.247988 
L 340.241737 678.027495 
L 336.133468 670.362231 
L 332.690735 665.808978 
L 326.470806 659.144576 
L 315.254046 644.593385 
" clip-path="url(#p35101b8759)" style="fill: none; stroke: #f29888; stroke-width: 0.2"/>
    <path d="M 315.254046 644.593385 
L 308.742059 632.868628 
L 307.478249 630.59734 
L 241.508763 577.057926 
L 236.621676 577.057926 
L 232.401894 581.944799 
L 229.513185 589.943683 
L 229.957466 596.608086 
L 231.40182 623.265696 
L 233.623224 635.150592 
L 250.836887 663.142684 
L 259.499476 672.251857 
L 263.942282 676.249965 
L 267.052247 681.36103 
L 289.264511 665.808978 
L 294.737483 661.341133 
L 315.254046 644.593385 
" clip-path="url(#p35101b8759)" style="fill: none; stroke: #f29888; stroke-width: 0.2"/>
    <path d="M 294.737483 661.341133 
L 229.957466 596.608086 
" clip-path="url(#p35101b8759)" style="fill: none; stroke: #f29888; stroke-width: 0.2"/>
    <path d="M 94.81169 625.059388 
L 103.378183 622.368924 
L 111.780575 619.566512 
L 134.854849 615.768577 
L 142.450102 614.249936 
L 149.85773 609.312353 
L 175.780003 587.469554 
" clip-path="url(#p35101b8759)" style="fill: none; stroke: #f29888; stroke-width: 0.2"/>
    <path d="M 362.399129 579.003601 
L 359.637863 582.53464 
L 356.078307 586.380617 
L 348.955656 592.172268 
L 344.445588 595.780707 
L 339.839937 601.33749 
L 332.434079 610.73758 
L 324.58217 618.045203 
" clip-path="url(#p35101b8759)" style="fill: none; stroke: #f29888; stroke-width: 0.2"/>
    <path d="M 308.742059 632.868628 
L 312.698105 628.376762 
L 324.58217 618.045203 
L 307.92253 602.605248 
L 307.033968 599.938953 
L 316.808143 586.1671 
L 260.611062 540.626571 
" clip-path="url(#p35101b8759)" style="fill: none; stroke: #f29888; stroke-width: 0.2"/>
    <path d="M 87.996513 525.699057 
L 91.081697 527.169656 
L 95.735139 531.063674 
L 103.045415 541.413915 
L 111.876157 543.97879 
L 119.566992 544.453865 
L 127.247206 543.941424 
L 145.953016 541.283136 
L 160.527546 538.766303 
L 163.566709 539.574999 
L 167.839592 540.808061 
L 176.194193 542.185246 
" clip-path="url(#p35101b8759)" style="fill: none; stroke: #f29888; stroke-width: 0.2"/>
    <path d="M 124.553202 514.967153 
L 134.672535 512.335555 
L 140.844673 505.49767 
L 145.377752 499.919536 
L 151.264914 493.890347 
L 160.950587 492.038086 
L 164.557933 492.702658 
L 171.110631 492.227582 
L 182.504395 490.281908 
L 203.964391 486.766882 
L 214.767842 486.383026 
" clip-path="url(#p35101b8759)" style="fill: none; stroke: #f29888; stroke-width: 0.2"/>
    <path d="M 417.261598 670.773251 
L 417.096984 664.365069 
L 415.987168 657.25495 
L 412.877203 652.480173 
L 397.661917 639.594416 
L 385.222058 627.597424 
L 360.34411 647.702728 
L 336.133468 670.362231 
" clip-path="url(#p35101b8759)" style="fill: none; stroke: #f29888; stroke-width: 0.2"/>
    <path d="M 385.222058 627.597424 
L 381.761625 619.758678 
L 381.002277 612.5418 
L 383.471486 602.477137 
L 383.66088 597.157893 
L 386.248683 597.37141 
L 390.236589 598.89005 
L 394.272286 600.742311 
L 397.975215 601.265428 
L 401.915329 600.979849 
L 405.239469 599.698746 
L 412.645327 596.706838 
L 416.49163 596.754879 
L 420.098976 597.419451 
L 425.178999 599.319753 
L 428.311974 600.931807 
L 431.565312 602.370379 
" clip-path="url(#p35101b8759)" style="fill: none; stroke: #f29888; stroke-width: 0.2"/>
    <path d="M 221.089552 773.197404 
L 253.291936 760.282289 
L 321.334142 726.653345 
L 367.535793 703.326602 
L 384.195433 695.327718 
L 387.993945 692.25574 
L 392.663317 687.718502 
L 417.261598 670.773251 
L 419.346708 669.33468 
L 465.548359 634.456661 
L 472.433825 626.903494 
L 484.650658 609.798105 
L 502.643141 586.249838 
L 507.19038 573.889866 
L 507.751484 572.365888 
L 520.966621 553.995411 
L 529.963748 541.488646 
L 570.056981 489.174288 
L 572.722665 484.287415 
L 575.055582 476.181772 
L 578.989654 461.899791 
" clip-path="url(#p35101b8759)" style="fill: none; stroke: #f29888; stroke-width: 0.2"/>
    <path d="M 581.133779 446.179078 
L 578.997466 412.847262 
L 571.412834 384.425467 
" clip-path="url(#p35101b8759)" style="fill: none; stroke: #f29888; stroke-width: 0.2"/>
    <path d="M 440.530578 533.908789 
L 402.818051 573.203943 
L 388.385124 589.916994 
L 383.66088 597.157893 
L 373.762803 589.916994 
L 366.286143 584.445618 
" clip-path="url(#p35101b8759)" style="fill: none; stroke: #f29888; stroke-width: 0.2"/>
    <path d="M 362.574364 577.388878 
L 358.736911 573.276005 
L 355.460563 569.667566 
L 352.754167 568.573291 
L 349.288424 566.675657 
L 345.204936 562.258522 
L 342.356938 557.702601 
L 338.891194 554.662651 
L 334.95108 552.572853 
L 329.15773 551.243709 
L 327.021289 551.433205 
" clip-path="url(#p35101b8759)" style="fill: none; stroke: #f29888; stroke-width: 0.2"/>
    <path d="M 492.61939 483.983153 
L 502.503307 491.312128 
L 503.282126 494.867187 
L 503.836149 501.753114 
L 503.503381 509.418378 
L 503.059101 514.081057 
L 501.170465 518.636979 
L 493.897361 528.632248 
L 479.402482 546.180685 
L 473.405578 554.900189 
L 463.633173 567.505705 
L 453.858998 579.169077 
L 432.868063 600.939814 
L 431.565312 602.370379 
L 397.661917 639.594416 
" clip-path="url(#p35101b8759)" style="fill: none; stroke: #f29888; stroke-width: 0.2"/>
    <path d="M 507.19038 573.889866 
L 473.405578 554.900189 
L 440.530578 533.908789 
L 403.770334 511.804431 
" clip-path="url(#p35101b8759)" style="fill: none; stroke: #f29888; stroke-width: 0.2"/>
    <path d="M 375.616037 465.268379 
L 396.716714 473.931836 
L 405.880225 477.540275 
L 412.266538 482.816816 
L 414.987094 486.425255 
L 414.987094 490.426032 
L 412.76569 495.366284 
L 403.770334 511.804431 
L 388.332023 533.575169 
L 383.22368 538.571469 
L 364.231123 572.115006 
L 362.677026 576.446734 
L 362.574364 577.388878 
L 362.399129 579.003601 
L 364.287765 582.446564 
L 366.286143 584.445618 
" clip-path="url(#p35101b8759)" style="fill: none; stroke: #f29888; stroke-width: 0.2"/>
    <path d="M 522.908358 614.004392 
L 527.940589 619.513133 
L 532.213472 628.155238 
L 534.493286 636.036688 
L 535.094581 638.232891 
" clip-path="url(#p35101b8759)" style="fill: none; stroke: #f29888; stroke-width: 0.2"/>
    <path d="M 607.029973 497.4066 
L 588.065394 488.467012 
" clip-path="url(#p35101b8759)" style="fill: none; stroke: #f29888; stroke-width: 0.2"/>
    <path d="M 479.467974 471.612506 
L 487.822574 479.208377 
L 492.61939 483.983153 
" clip-path="url(#p35101b8759)" style="fill: none; stroke: #f29888; stroke-width: 0.2"/>
    <path d="M 563.75563 437.081453 
L 558.277348 439.803796 
L 553.436282 446.641681 
L 550.207724 453.001822 
L 542.13633 457.749908 
L 528.937123 466.771006 
L 521.531265 470.283362 
L 518.01773 475.220945 
L 512.985499 481.677168 
L 507.763874 485.192194 
L 503.282126 494.867187 
" clip-path="url(#p35101b8759)" style="fill: none; stroke: #f29888; stroke-width: 0.2"/>
    <path d="M 547.54027 419.789237 
L 554.20271 427.673356 
L 563.75563 437.081453 
L 568.863973 442.11245 
L 580.137021 453.487302 
" clip-path="url(#p35101b8759)" style="fill: none; stroke: #f29888; stroke-width: 0.2"/>
    <path d="M 578.997466 412.847262 
L 572.140321 416.567797 
L 564.58755 419.789237 
L 558.75703 421.676194 
L 555.647065 422.287387 
L 551.538796 421.45467 
L 547.54027 419.789237 
L 540.598163 414.624792 
L 536.932405 412.56969 
L 512.555379 402.686517 
L 497.561349 397.522072 
L 491.953854 395.354873 
L 488.45448 392.912771 
L 487.121638 389.691332 
L 486.050762 386.891589 
" clip-path="url(#p35101b8759)" style="fill: none; stroke: #f29888; stroke-width: 0.2"/>
    <path d="M 565.906232 368.283574 
L 558.309209 365.054128 
L 537.13596 356.889768 
L 530.963822 355.939616 
L 518.43015 355.75012 
L 510.454339 354.324893 
L 506.085874 352.616757 
L 506.940804 348.154249 
L 505.707084 339.418731 
L 505.611502 332.015025 
L 504.660989 324.229658 
L 506.655827 316.158712 
L 512.732383 305.429477 
L 517.100848 297.169034 
L 519.378893 291.852459 
" clip-path="url(#p35101b8759)" style="fill: none; stroke: #f29888; stroke-width: 0.2"/>
    <path d="M 506.655827 316.158712 
L 500.95806 320.050061 
L 494.31155 323.6585 
L 491.748529 323.99212 
L 488.234994 322.900514 
L 483.154972 320.525136 
" clip-path="url(#p35101b8759)" style="fill: none; stroke: #f29888; stroke-width: 0.2"/>
    <path d="M 156.224425 480.126994 
L 124.553202 514.967153 
L 116.196831 518.957254 
L 87.996513 525.699057 
L 61.314891 533.201514 
L 55.70211 534.406376 
" clip-path="url(#p35101b8759)" style="fill: none; stroke: #f29888; stroke-width: 0.2"/>
    <path d="M 520.966621 553.995411 
L 493.897361 528.632248 
L 487.898686 529.408916 
L 477.458975 524.078996 
L 445.918587 502.975499 
L 429.480202 487.64764 
L 419.4299 478.650563 
L 418.042187 477.097227 
L 417.289919 470.302045 
" clip-path="url(#p35101b8759)" style="fill: none; stroke: #f29888; stroke-width: 0.2"/>
    <path d="M 417.289919 470.302045 
L 413.840106 452.016974 
L 408.333504 414.227116 
L 406.623642 411.568828 
L 394.089971 398.27472 
L 385.73537 400.364518 
" clip-path="url(#p35101b8759)" style="fill: none; stroke: #f29888; stroke-width: 0.2"/>
    <path d="M 506.085874 352.616757 
L 502.19355 360.116545 
L 496.210806 373.125074 
L 489.468714 383.189736 
L 486.050762 386.891589 
L 480.354765 381.575013 
L 470.384115 373.125074 
L 465.256302 367.429505 
L 464.877513 362.681419 
L 469.150396 354.799969 
L 475.035787 342.648177 
L 477.504996 337.235518 
" clip-path="url(#p35101b8759)" style="fill: none; stroke: #f29888; stroke-width: 0.2"/>
    <path d="M 464.877513 362.681419 
L 461.742768 360.212627 
" clip-path="url(#p35101b8759)" style="fill: none; stroke: #f29888; stroke-width: 0.2"/>
    <path d="M 439.334029 253.875773 
L 449.890563 258.789335 
L 459.100094 263.630836 
L 470.208881 266.099627 
" clip-path="url(#p35101b8759)" style="fill: none; stroke: #f29888; stroke-width: 0.2"/>
    <path d="M 481.535383 207.812128 
L 483.107181 221.882905 
L 485.765785 236.503488 
L 483.866529 246.947143 
L 464.877513 242.00956 
L 457.469885 241.059409 
L 447.493925 241.558505 
" clip-path="url(#p35101b8759)" style="fill: none; stroke: #f29888; stroke-width: 0.2"/>
    <path d="M 440.61731 249.883003 
L 435.061146 244.1474 
L 417.020872 226.486867 
L 411.323105 215.664219 
L 410.484105 208.474031 
L 413.032967 202.372779 
L 424.996684 191.550131 
L 430.313892 184.904412 
L 436.960402 172.18413 
L 436.390448 159.082187 
L 430.503287 146.172409 
L 421.008778 141.995481 
L 408.664502 136.868402 
" clip-path="url(#p35101b8759)" style="fill: none; stroke: #f29888; stroke-width: 0.2"/>
    <path d="M 436.960402 172.18413 
L 444.936214 140.287344 
L 449.494073 115.036278 
L 452.343842 99.086551 
L 458.799187 90.924859 
L 465.636861 89.40355 
L 470.194721 87.321758 
L 472.283371 78.962564 
L 474.75258 73.645988 
L 481.310886 70.258103 
" clip-path="url(#p35101b8759)" style="fill: none; stroke: #f29888; stroke-width: 0.2"/>
    <path d="M 490.779097 69.518115 
L 490.989181 69.565142 
L 494.596527 72.50901 
L 496.970154 76.541814 
L 499.106596 79.912715 
L 500.430588 82.090589 
" clip-path="url(#p35101b8759)" style="fill: none; stroke: #f29888; stroke-width: 0.2"/>
    <path d="M 502.985982 45.738631 
L 501.197016 63.626698 
L 500.430588 82.090589 
L 500.342085 84.22576 
L 503.096272 109.28733 
L 503.754727 127.743215 
L 503.714017 129.149759 
L 503.475061 137.290098 
L 501.892643 156.218389 
L 501.292598 163.397902 
L 496.449762 184.757619 
L 493.125622 192.825896 
L 484.675439 204.409199 
L 481.535383 207.812128 
L 475.655302 214.185613 
L 452.29605 236.212571 
L 447.493925 241.558505 
L 440.61731 249.883003 
L 439.334029 253.875773 
L 436.296636 267.359378 
L 436.675425 273.43394 
L 454.147515 280.079659 
L 454.432492 284.35267 
L 455.285652 287.534075 
L 457.091096 289.669246 
L 480.829136 296.314966 
L 485.006437 296.693959 
L 488.139412 295.081905 
L 495.832017 284.256588 
L 519.378893 291.852459 
L 534.951727 296.600545 
L 538.180285 300.587977 
L 558.504985 342.148437 
" clip-path="url(#p35101b8759)" style="fill: none; stroke: #f29888; stroke-width: 0.2"/>
    <path d="M 562.460721 352.710363 
L 564.387535 363.345991 
L 565.906232 368.283574 
L 571.412834 384.425467 
" clip-path="url(#p35101b8759)" style="fill: none; stroke: #f29888; stroke-width: 0.2"/>
    <path d="M 483.866529 246.947143 
L 485.765785 252.642712 
L 486.431321 260.1425 
L 489.849273 267.263295 
L 494.502715 272.958864 
L 495.230203 281.147245 
L 495.832017 284.256588 
" clip-path="url(#p35101b8759)" style="fill: none; stroke: #f29888; stroke-width: 0.2"/>
    <path d="M 503.714017 129.149759 
L 506.983285 132.299136 
L 518.619545 146.695526 
L 527.538789 156.584037 
L 529.064566 158.27616 
L 536.091635 166.251024 
L 539.129028 173.275736 
L 538.36968 187.706824 
L 537.990891 199.476954 
" clip-path="url(#p35101b8759)" style="fill: none; stroke: #f29888; stroke-width: 0.2"/>
    <path d="M 530.381478 145.686658 
L 534.096797 142.422515 
L 541.123866 138.720663 
L 541.217678 133.593583 
L 539.698982 129.133745 
L 536.944795 115.652809 
L 533.907402 106.538298 
" clip-path="url(#p35101b8759)" style="fill: none; stroke: #f29888; stroke-width: 0.2"/>
    <path d="M 501.892643 156.218389 
L 508.571013 154.075211 
L 514.26701 154.550287 
L 521.389661 156.733499 
L 527.538789 156.584037 
L 530.108891 148.878739 
L 530.381478 145.686658 
L 530.774427 141.093371 
L 527.639682 126.664953 
L 528.875171 122.867018 
L 533.241866 111.000805 
L 533.907402 106.538298 
L 529.445125 92.395459 
L 528.590195 86.793304 
L 529.823914 82.712458 
" clip-path="url(#p35101b8759)" style="fill: none; stroke: #f29888; stroke-width: 0.2"/>
    <path d="M 522.239344 49.463942 
L 525.124451 54.223939 
" clip-path="url(#p35101b8759)" style="fill: none; stroke: #f29888; stroke-width: 0.2"/>
    <path d="M 511.748057 666.447927 
L 508.355068 669.457452 
L 504.086063 673.067193 
" clip-path="url(#p35101b8759)" style="fill: none; stroke: #f29888; stroke-width: 0.5"/>
   </g>
   <g id="LineCollection_2">
    <path d="M 222.121444 797.445548 
L 223.325116 796.820403 
L 231.706268 792.768916 
L 271.457883 773.552377 
L 311.68387 754.047589 
L 343.153457 738.519558 
L 361.413216 729.570523 
L 369.09697 725.676505 
L 375.350866 722.063959 
" clip-path="url(#p35101b8759)" style="fill: none; stroke-dasharray: 3.7,1.6; stroke-dashoffset: 0; stroke: #f29888"/>
    <path d="M 477.083873 645.14788 
L 481.363689 639.685161 
L 488.325267 629.908747 
L 501.834231 611.829186 
L 543.155875 555.087017 
L 565.939862 523.774734 
L 571.391593 515.887946 
L 576.496396 507.173779 
L 581.033015 497.61622 
L 584.341225 489.243681 
" clip-path="url(#p35101b8759)" style="fill: none; stroke-dasharray: 3.7,1.6; stroke-dashoffset: 0; stroke: #f29888"/>
    <path d="M 389.067122 692.340853 
L 387.993945 692.25574 
L 377.839211 690.963962 
L 370.196167 690.486217 
L 364.714345 690.157935 
L 357.607624 690.336755 
L 329.13649 690.440845 
L 301.183978 689.626811 
L 216.42018 690.328749 
" clip-path="url(#p35101b8759)" style="fill: none; stroke-dasharray: 3.7,1.6; stroke-dashoffset: 0; stroke: #f29888"/>
    <path d="M 472.746446 645.642128 
L 474.635757 643.437724 
L 569.745454 514.041023 
L 573.680258 508.222682 
L 579.955059 497.757675 
" clip-path="url(#p35101b8759)" style="fill: none; stroke-dasharray: 3.7,1.6; stroke-dashoffset: 0; stroke: #f29888"/>
    <path d="M 467.971485 646.186232 
L 471.447911 641.654856 
L 477.64483 633.976248 
L 489.29702 618.616361 
L 565.950483 514.267885 
L 569.99149 508.206668 
L 573.225358 502.2789 
L 575.986624 497.293275 
L 578.951445 491.298783 
L 582.721833 482.249294 
" clip-path="url(#p35101b8759)" style="fill: none; stroke-dasharray: 3.7,1.6; stroke-dashoffset: 0; stroke: #f29888"/>
    <path d="M 221.423516 796.500505 
L 222.825964 795.792852 
L 231.159324 791.762716 
L 270.712695 772.631584 
L 311.232509 753.0921 
L 342.47907 737.630793 
L 361.029116 728.748482 
L 369.645684 724.14185 
L 375.893453 720.39321 
" clip-path="url(#p35101b8759)" style="fill: none; stroke-dasharray: 3.7,1.6; stroke-dashoffset: 0; stroke: #f29888"/>
    <path d="M 475.380719 645.341953 
L 480.363615 639.092651 
L 487.325193 629.390968 
L 500.834157 611.145932 
L 542.302714 554.286328 
L 564.867217 523.296989 
L 570.087072 515.805208 
L 572.738596 511.636287 
L 575.349409 507.088372 
L 576.866335 503.749499 
L 579.955059 497.757675 
L 583.403102 488.552419 
L 584.976769 483.431874 
" clip-path="url(#p35101b8759)" style="fill: none; stroke-dasharray: 3.7,1.6; stroke-dashoffset: 0; stroke: #f29888"/>
    <path d="M 585.976075 483.95595 
L 584.341225 489.243681 
" clip-path="url(#p35101b8759)" style="fill: none; stroke-dasharray: 3.7,1.6; stroke-dashoffset: 0; stroke: #f29888"/>
   </g>
  </g>
 </g>
 <defs>
  <clipPath id="p35101b8759">
   <rect x="7.2" y="7.2" width="629.194017" height="831.6"/>
  </clipPath>
 </defs>
</svg>
