<?xml version="1.0" encoding="utf-8" standalone="no"?>
<!DOCTYPE svg PUBLIC "-//W3C//DTD SVG 1.1//EN"
  "http://www.w3.org/Graphics/SVG/1.1/DTD/svg11.dtd">
<svg xmlns:xlink="http://www.w3.org/1999/xlink" width="851.4pt" height="364.326751pt" viewBox="0 0 851.4 364.326751" xmlns="http://www.w3.org/2000/svg" version="1.1">
 <metadata>
  <rdf:RDF xmlns:dc="http://purl.org/dc/elements/1.1/" xmlns:cc="http://creativecommons.org/ns#" xmlns:rdf="http://www.w3.org/1999/02/22-rdf-syntax-ns#">
   <cc:Work>
    <dc:type rdf:resource="http://purl.org/dc/dcmitype/StillImage"/>
    <dc:date>2025-03-16T14:38:39.190703</dc:date>
    <dc:format>image/svg+xml</dc:format>
    <dc:creator>
     <cc:Agent>
      <dc:title>Matplotlib v3.10.1, https://matplotlib.org/</dc:title>
     </cc:Agent>
    </dc:creator>
   </cc:Work>
  </rdf:RDF>
 </metadata>
 <defs>
  <style type="text/css">*{stroke-linejoin: round; stroke-linecap: butt}</style>
 </defs>
 <g id="figure_1">
  <g id="patch_1">
   <path d="M 0 364.326751 
L 851.4 364.326751 
L 851.4 0 
L 0 0 
z
" style="fill: #ffffff"/>
  </g>
  <g id="axes_1">
   <g id="PatchCollection_1">
    <path d="M 56.539096 23.105761 
L 50.045252 55.646906 
L 45.245455 83.226621 
L 155.076117 110.806336 
L 172.863603 135.759411 
L 329.562877 143.347481 
L 319.869168 256.00113 
L 287.588177 256.00113 
L 221.332147 180.850056 
L 184.157244 175.888626 
L 127.594923 208.42977 
L 72.726649 218.498555 
L 75.926514 258.62777 
L 182.557312 263.5892 
L 192.25102 318.602705 
L 311.775392 308.679845 
L 384.525266 341.22099 
L 423.300101 256.00113 
L 536.330629 298.61106 
L 575.105465 203.46834 
L 735.098718 195.880271 
L 752.886203 236.009485 
L 806.154545 120.729196 
L 691.429971 58.127621 
L 636.561697 63.234976 
L 528.236853 105.698981 
L 387.725131 33.174546 
L 281.094333 73.157836 
L 221.332147 40.616691 
L 56.539096 23.105761 
" clip-path="url(#pd58d8dc97a)" style="fill: #fbd6c9"/>
   </g>
   <g id="PatchCollection_2">
    <path d="M 382.933803 317.474709 
L 369.302378 321.261448 
L 368.604996 318.748629 
L 382.236421 314.961891 
L 382.933803 317.474709 
" clip-path="url(#pd58d8dc97a)" style="fill: #e6482f"/>
    <path d="M 372.498479 311.306484 
L 378.758921 309.588954 
L 379.206902 311.224766 
L 372.94646 312.940838 
L 372.498479 311.306484 
" clip-path="url(#pd58d8dc97a)" style="fill: #e6482f"/>
    <path d="M 435.094427 138.674981 
L 436.65295 137.938063 
L 437.260924 139.337478 
L 435.707107 140.036456 
L 435.094427 138.674981 
" clip-path="url(#pd58d8dc97a)" style="fill: #e6482f"/>
    <path d="M 447.039335 123.179267 
L 448.080233 125.395859 
L 446.621471 126.081704 
L 445.579632 123.865112 
L 447.039335 123.179267 
" clip-path="url(#pd58d8dc97a)" style="fill: #e6482f"/>
    <path d="M 209.2056 101.821769 
L 209.200894 102.773197 
L 208.08 102.76736 
L 208.084706 101.815932 
L 209.2056 101.821769 
" clip-path="url(#pd58d8dc97a)" style="fill: #e6482f"/>
    <path d="M 452.144061 99.704406 
L 452.16759 100.851372 
L 452.182648 101.586831 
L 450.162027 101.626231 
L 450.124382 99.745265 
L 452.144061 99.704406 
" clip-path="url(#pd58d8dc97a)" style="fill: #e6482f"/>
    <path d="M 381.550332 88.46093 
L 381.827026 89.082568 
L 381.082587 89.413816 
L 380.805893 88.790719 
L 381.550332 88.46093 
" clip-path="url(#pd58d8dc97a)" style="fill: #e6482f"/>
    <path d="M 384.083872 87.470103 
L 384.345509 88.101956 
L 382.914039 88.69295 
L 382.652403 88.059638 
L 384.083872 87.470103 
" clip-path="url(#pd58d8dc97a)" style="fill: #e6482f"/>
    <path d="M 386.736937 86.648549 
L 387.07857 87.36066 
L 386.164726 87.798433 
L 385.823093 87.086322 
L 386.736937 86.648549 
" clip-path="url(#pd58d8dc97a)" style="fill: #e6482f"/>
    <path d="M 475.85412 214.059534 
L 476.965603 213.458326 
L 478.215433 212.782696 
L 478.97493 214.186489 
L 476.613618 215.463327 
L 475.85412 214.059534 
" clip-path="url(#pd58d8dc97a)" style="fill: #e6482f"/>
    <path d="M 464.850349 203.60405 
L 465.659727 205.47626 
L 464.002385 206.19129 
L 463.193948 204.31908 
L 464.850349 203.60405 
" clip-path="url(#pd58d8dc97a)" style="fill: #e6482f"/>
    <path d="M 469.936252 203.170654 
L 475.136033 200.414142 
L 473.153058 196.67264 
L 472.646726 196.941141 
L 470.7701 193.402474 
L 472.896128 192.275938 
L 474.771813 195.814605 
L 474.001022 196.223193 
L 474.683346 197.510246 
L 479.880304 194.756653 
L 480.732032 196.36474 
L 475.536016 199.118333 
L 475.983997 199.964695 
L 476.696438 199.58821 
L 477.539696 201.178786 
L 470.779511 204.761231 
L 469.936252 203.170654 
" clip-path="url(#pd58d8dc97a)" style="fill: #e6482f"/>
    <path d="M 471.616181 191.047254 
L 470.899035 191.428117 
L 470.708926 191.069143 
L 471.426072 190.68828 
L 471.616181 191.047254 
" clip-path="url(#pd58d8dc97a)" style="fill: #e6482f"/>
    <path d="M 477.566989 189.793763 
L 475.25744 191.018069 
L 474.880044 190.304499 
L 477.188652 189.081652 
L 477.566989 189.793763 
" clip-path="url(#pd58d8dc97a)" style="fill: #e6482f"/>
    <path d="M 484.041069 166.365598 
L 484.543636 167.477542 
L 483.562031 167.922612 
L 483.059464 166.809208 
L 484.041069 166.365598 
" clip-path="url(#pd58d8dc97a)" style="fill: #e6482f"/>
    <path d="M 483.100874 164.076044 
L 483.656144 165.26241 
L 482.471253 165.816922 
L 481.915982 164.630557 
L 483.100874 164.076044 
" clip-path="url(#pd58d8dc97a)" style="fill: #e6482f"/>
    <path d="M 482.186089 161.480049 
L 482.773358 162.737917 
L 481.696698 163.239897 
L 481.109428 161.983488 
L 482.186089 161.480049 
" clip-path="url(#pd58d8dc97a)" style="fill: #e6482f"/>
    <path d="M 481.200719 158.907401 
L 481.65717 159.927413 
L 480.496748 160.446904 
L 480.040297 159.426892 
L 481.200719 158.907401 
" clip-path="url(#pd58d8dc97a)" style="fill: #e6482f"/>
    <path d="M 480.301933 156.861541 
L 480.819558 157.922411 
L 479.864304 158.38791 
L 479.346679 157.328499 
L 480.301933 156.861541 
" clip-path="url(#pd58d8dc97a)" style="fill: #e6482f"/>
    <path d="M 488.068194 176.567174 
L 488.526527 177.549245 
L 487.500688 178.027878 
L 487.042355 177.045806 
L 488.068194 176.567174 
" clip-path="url(#pd58d8dc97a)" style="fill: #e6482f"/>
    <path d="M 486.056984 171.030802 
L 486.466379 171.893215 
L 485.5403 172.333907 
L 485.129965 171.472953 
L 486.056984 171.030802 
" clip-path="url(#pd58d8dc97a)" style="fill: #e6482f"/>
    <path d="M 500.816833 169.685379 
L 501.362692 170.677665 
L 500.270973 171.277414 
L 499.725114 170.286587 
L 500.816833 169.685379 
" clip-path="url(#pd58d8dc97a)" style="fill: #e6482f"/>
    <path d="M 484.813743 168.54425 
L 485.191138 169.307434 
L 484.219885 169.787526 
L 483.841548 169.024341 
L 484.813743 168.54425 
" clip-path="url(#pd58d8dc97a)" style="fill: #e6482f"/>
    <path d="M 504.135281 167.801494 
L 504.659494 168.624508 
L 503.846352 169.14254 
L 503.322139 168.320985 
L 504.135281 167.801494 
" clip-path="url(#pd58d8dc97a)" style="fill: #e6482f"/>
    <path d="M 507.540314 165.660783 
L 508.029705 166.397702 
L 507.225974 166.931785 
L 506.737524 166.194867 
L 507.540314 165.660783 
" clip-path="url(#pd58d8dc97a)" style="fill: #e6482f"/>
    <path d="M 511.021579 162.807961 
L 511.868602 164.127118 
L 510.983933 164.694764 
L 510.13691 163.375607 
L 511.021579 162.807961 
" clip-path="url(#pd58d8dc97a)" style="fill: #e6482f"/>
    <path d="M 514.090626 161.585114 
L 514.649661 162.42272 
L 513.843107 162.961181 
L 513.28313 162.122116 
L 514.090626 161.585114 
" clip-path="url(#pd58d8dc97a)" style="fill: #e6482f"/>
    <path d="M 523.08507 159.998916 
L 523.385293 160.909484 
L 522.517565 161.195496 
L 522.217342 160.284928 
L 523.08507 159.998916 
" clip-path="url(#pd58d8dc97a)" style="fill: #e6482f"/>
    <path d="M 525.028517 159.329123 
L 525.393679 160.136085 
L 524.420543 160.578236 
L 524.054441 159.772733 
L 525.028517 159.329123 
" clip-path="url(#pd58d8dc97a)" style="fill: #e6482f"/>
    <path d="M 478.123201 151.405427 
L 478.622004 152.329129 
L 477.630987 152.863212 
L 477.133125 151.94097 
L 478.123201 151.405427 
" clip-path="url(#pd58d8dc97a)" style="fill: #e6482f"/>
    <path d="M 475.758124 146.175496 
L 476.212694 146.92117 
L 475.469195 147.373535 
L 475.014626 146.627862 
L 475.758124 146.175496 
" clip-path="url(#pd58d8dc97a)" style="fill: #e6482f"/>
    <path d="M 475.234852 141.829867 
L 475.935058 143.017691 
L 474.932748 143.608685 
L 474.232542 142.420861 
L 475.234852 141.829867 
" clip-path="url(#pd58d8dc97a)" style="fill: #e6482f"/>
    <path d="M 474.356772 137.249299 
L 474.950629 138.546567 
L 472.93095 139.471728 
L 472.336151 138.17446 
L 474.356772 137.249299 
" clip-path="url(#pd58d8dc97a)" style="fill: #e6482f"/>
    <path d="M 459.512221 134.676652 
L 460.524884 137.472564 
L 457.225259 138.667685 
L 456.211655 135.873232 
L 459.512221 134.676652 
" clip-path="url(#pd58d8dc97a)" style="fill: #e6482f"/>
    <path d="M 472.951655 133.878445 
L 471.575713 134.532187 
L 472.327681 136.114007 
L 473.714917 135.454429 
L 474.019845 136.097956 
L 471.808173 137.148611 
L 471.269843 136.016238 
L 470.986561 136.150488 
L 470.556461 135.247216 
L 470.86986 135.096914 
L 470.428467 134.167376 
L 472.598728 133.13569 
L 472.951655 133.878445 
" clip-path="url(#pd58d8dc97a)" style="fill: #e6482f"/>
    <path d="M 466.243232 133.304962 
L 467.041316 135.343526 
L 465.575024 135.918469 
L 464.775999 133.879905 
L 466.243232 133.304962 
" clip-path="url(#pd58d8dc97a)" style="fill: #e6482f"/>
    <path d="M 456.691634 129.920975 
L 457.029502 130.743989 
L 455.764615 131.26348 
L 455.426747 130.440466 
L 456.691634 129.920975 
" clip-path="url(#pd58d8dc97a)" style="fill: #e6482f"/>
    <path d="M 454.30397 130.061063 
L 454.750069 129.91076 
L 454.911945 130.389392 
L 454.465846 130.539695 
L 454.30397 130.061063 
" clip-path="url(#pd58d8dc97a)" style="fill: #e6482f"/>
    <path d="M 462.434451 127.616829 
L 462.509742 127.799234 
L 463.215595 127.505926 
L 463.737925 127.592021 
L 463.99862 127.853226 
L 464.840938 129.883035 
L 462.16905 130.99206 
L 461.410494 129.165087 
L 461.013334 128.207822 
L 462.434451 127.616829 
" clip-path="url(#pd58d8dc97a)" style="fill: #e6482f"/>
    <path d="M 468.097271 127.214077 
L 468.888767 128.884912 
L 467.588116 129.500713 
L 466.79662 127.828419 
L 468.097271 127.214077 
" clip-path="url(#pd58d8dc97a)" style="fill: #e6482f"/>
    <path d="M 467.637996 124.809243 
L 467.594704 124.577223 
L 468.746655 124.060651 
L 468.85771 124.310181 
L 470.210123 123.704595 
L 470.74563 124.898257 
L 468.297733 125.997068 
L 468.464314 126.367716 
L 466.447458 127.273906 
L 465.726547 125.667278 
L 467.637996 124.809243 
" clip-path="url(#pd58d8dc97a)" style="fill: #e6482f"/>
    <path d="M 453.733641 124.710014 
L 453.819285 124.936197 
L 453.581177 125.02667 
L 453.495534 124.800487 
L 453.733641 124.710014 
" clip-path="url(#pd58d8dc97a)" style="fill: #e6482f"/>
    <path d="M 454.33691 125.430881 
L 454.229621 125.111306 
L 453.510592 125.352082 
L 453.378833 124.956626 
L 453.255544 124.588897 
L 454.012218 124.336448 
L 453.913399 124.040221 
L 454.749128 123.761505 
L 454.814066 123.954126 
L 454.877123 123.933696 
L 454.91665 123.94537 
L 454.928885 124.00374 
L 454.947708 124.000822 
L 455.07382 123.973096 
L 455.200874 123.994985 
L 455.314751 124.053354 
L 455.4051 124.146746 
L 455.460627 124.262026 
L 455.478509 124.38898 
L 455.455922 124.513016 
L 455.39663 124.623919 
L 455.307222 124.711473 
L 455.200874 124.765465 
L 455.199933 124.835509 
L 455.17264 124.87199 
L 455.119936 124.889501 
L 455.203697 125.140491 
L 454.33691 125.430881 
" clip-path="url(#pd58d8dc97a)" style="fill: #e6482f"/>
    <path d="M 454.713365 124.6604 
L 454.680425 124.708555 
L 454.633368 124.743577 
L 454.578782 124.761088 
L 454.521373 124.761088 
L 454.465846 124.743577 
L 454.415966 124.704177 
L 454.383026 124.651644 
L 454.368909 124.590356 
L 454.377379 124.529068 
L 454.405613 124.472157 
L 454.451729 124.429839 
L 454.509138 124.405032 
L 454.567489 124.402114 
L 454.623016 124.416706 
L 454.671955 124.448809 
L 454.707718 124.494046 
L 454.728423 124.548038 
L 454.730305 124.604949 
L 454.713365 124.6604 
" clip-path="url(#pd58d8dc97a)" style="fill: #e6482f"/>
    <path d="M 454.84983 124.562631 
L 454.834771 124.658941 
L 454.789597 124.746495 
L 454.719953 124.81508 
L 454.630545 124.857398 
L 454.533608 124.870531 
L 454.431965 124.848642 
L 454.344439 124.79611 
L 454.27856 124.715851 
L 454.243738 124.618082 
L 454.242796 124.514475 
L 454.275736 124.418165 
L 454.340675 124.336448 
L 454.4282 124.282456 
L 454.528902 124.259108 
L 454.625839 124.269322 
L 454.715247 124.311641 
L 454.786773 124.378766 
L 454.83383 124.464861 
L 454.84983 124.562631 
" clip-path="url(#pd58d8dc97a)" style="fill: #e6482f"/>
    <path d="M 482.026095 115.81738 
L 482.875942 115.99103 
L 482.589836 117.397742 
L 481.73999 117.225551 
L 482.026095 115.81738 
" clip-path="url(#pd58d8dc97a)" style="fill: #e6482f"/>
    <path d="M 461.170504 112.431934 
L 462.151169 115.223468 
L 463.432997 114.774021 
L 464.121909 116.733786 
L 462.186932 117.413793 
L 462.318691 117.78736 
L 461.744598 117.988736 
L 460.128666 118.556382 
L 459.267526 118.859904 
L 458.623788 117.028553 
L 458.908953 116.830096 
L 458.271803 115.016255 
L 457.485954 115.292052 
L 456.996563 113.898474 
L 461.170504 112.431934 
" clip-path="url(#pd58d8dc97a)" style="fill: #e6482f"/>
    <path d="M 473.632096 114.928701 
L 473.401518 116.052319 
L 472.288153 115.824676 
L 472.518732 114.699599 
L 473.632096 114.928701 
" clip-path="url(#pd58d8dc97a)" style="fill: #e6482f"/>
    <path d="M 461.418023 110.011048 
L 461.554488 110.775692 
L 460.619939 110.979986 
L 460.450535 110.266415 
L 461.418023 110.011048 
" clip-path="url(#pd58d8dc97a)" style="fill: #e6482f"/>
    <path d="M 483.821784 109.342714 
L 484.841036 109.579111 
L 484.552107 110.825306 
L 483.531914 110.588908 
L 483.821784 109.342714 
" clip-path="url(#pd58d8dc97a)" style="fill: #e6482f"/>
    <path d="M 475.115328 104.158019 
L 475.056036 104.397335 
L 475.064507 105.955808 
L 475.046625 106.463625 
L 472.541319 106.387744 
L 472.610022 104.082139 
L 475.115328 104.158019 
" clip-path="url(#pd58d8dc97a)" style="fill: #e6482f"/>
    <path d="M 475.056036 104.397335 
L 476.568443 104.38858 
L 476.576913 105.948512 
L 475.064507 105.955808 
L 475.056036 104.397335 
" clip-path="url(#pd58d8dc97a)" style="fill: #e6482f"/>
    <path d="M 453.619764 100.879098 
L 453.652704 103.578699 
L 452.914852 103.587455 
L 452.902618 100.883475 
L 453.619764 100.879098 
" clip-path="url(#pd58d8dc97a)" style="fill: #e6482f"/>
    <path d="M 474.350184 100.714203 
L 474.309715 102.436111 
L 472.405795 102.390875 
L 472.446264 100.668967 
L 474.350184 100.714203 
" clip-path="url(#pd58d8dc97a)" style="fill: #e6482f"/>
    <path d="M 513.950396 156.703943 
L 514.525431 157.242404 
L 513.793227 158.026018 
L 513.217251 157.487557 
L 513.950396 156.703943 
" clip-path="url(#pd58d8dc97a)" style="fill: #e6482f"/>
    <path d="M 509.029192 152.323292 
L 509.90539 152.927419 
L 509.11013 154.081681 
L 508.234873 153.479013 
L 509.029192 152.323292 
" clip-path="url(#pd58d8dc97a)" style="fill: #e6482f"/>
    <path d="M 505.148885 149.077933 
L 505.917794 149.708326 
L 505.183707 150.602843 
L 504.414798 149.972449 
L 505.148885 149.077933 
" clip-path="url(#pd58d8dc97a)" style="fill: #e6482f"/>
    <path d="M 497.519089 139.363744 
L 498.144945 140.183839 
L 497.151105 140.939728 
L 496.52619 140.119633 
L 497.519089 139.363744 
" clip-path="url(#pd58d8dc97a)" style="fill: #e6482f"/>
    <path d="M 488.812633 124.612245 
L 489.350963 125.327274 
L 488.461589 125.997068 
L 487.923259 125.282038 
L 488.812633 124.612245 
" clip-path="url(#pd58d8dc97a)" style="fill: #e6482f"/>
    <path d="M 486.13604 122.185522 
L 485.932754 121.695216 
L 486.661194 121.391693 
L 487.111999 122.474452 
L 485.494185 123.148623 
L 485.247607 122.554711 
L 486.13604 122.185522 
" clip-path="url(#pd58d8dc97a)" style="fill: #e6482f"/>
    <path d="M 389.402236 84.698998 
L 389.997035 85.466561 
L 388.971196 86.261849 
L 388.375456 85.494286 
L 389.402236 84.698998 
" clip-path="url(#pd58d8dc97a)" style="fill: #e6482f"/>
    <path d="M 394.077804 81.288745 
L 394.699895 82.123432 
L 393.657116 82.89975 
L 393.035024 82.065063 
L 394.077804 81.288745 
" clip-path="url(#pd58d8dc97a)" style="fill: #e6482f"/>
    <path d="M 397.403781 78.847429 
L 397.939288 79.658769 
L 397.198614 80.147616 
L 396.663107 79.336276 
L 397.403781 78.847429 
" clip-path="url(#pd58d8dc97a)" style="fill: #e6482f"/>
    <path d="M 401.529725 76.25873 
L 401.927826 77.03067 
L 400.861518 77.579346 
L 400.464358 76.807406 
L 401.529725 76.25873 
" clip-path="url(#pd58d8dc97a)" style="fill: #e6482f"/>
    <path d="M 165.323215 73.814496 
L 165.262041 74.843263 
L 164.099737 74.774679 
L 164.160911 73.744452 
L 165.323215 73.814496 
" clip-path="url(#pd58d8dc97a)" style="fill: #e6482f"/>
    <path d="M 161.299855 73.254146 
L 161.145509 74.59811 
L 160.113081 74.478452 
L 160.267428 73.135948 
L 161.299855 73.254146 
" clip-path="url(#pd58d8dc97a)" style="fill: #e6482f"/>
    <path d="M 155.511864 73.130111 
L 155.465748 74.303343 
L 154.303444 74.258106 
L 154.34956 73.084874 
L 155.511864 73.130111 
" clip-path="url(#pd58d8dc97a)" style="fill: #e6482f"/>
    <path d="M 158.346568 73.000238 
L 158.269395 74.293128 
L 157.368727 74.239136 
L 157.4459 72.947705 
L 158.346568 73.000238 
" clip-path="url(#pd58d8dc97a)" style="fill: #e6482f"/>
    <path d="M 152.919973 73.09217 
L 152.827742 74.112182 
L 151.846136 74.023168 
L 151.939308 73.003156 
L 152.919973 73.09217 
" clip-path="url(#pd58d8dc97a)" style="fill: #e6482f"/>
    <path d="M 143.467195 72.451562 
L 143.564132 73.44093 
L 142.606055 73.535781 
L 142.509118 72.546413 
L 143.467195 72.451562 
" clip-path="url(#pd58d8dc97a)" style="fill: #e6482f"/>
    <path d="M 403.036485 72.238512 
L 403.75269 72.867447 
L 403.038367 73.680246 
L 402.322162 73.051311 
L 403.036485 72.238512 
" clip-path="url(#pd58d8dc97a)" style="fill: #e6482f"/>
    <path d="M 140.803778 72.131988 
L 140.750133 73.413204 
L 139.647121 73.366508 
L 139.700766 72.085292 
L 140.803778 72.131988 
" clip-path="url(#pd58d8dc97a)" style="fill: #e6482f"/>
    <path d="M 136.958293 71.809495 
L 136.968646 72.991482 
L 135.907043 73.001697 
L 135.89575 71.819709 
L 136.958293 71.809495 
" clip-path="url(#pd58d8dc97a)" style="fill: #e6482f"/>
    <path d="M 135.244483 71.829924 
L 135.274599 72.936031 
L 134.143353 72.966675 
L 134.113237 71.862027 
L 135.244483 71.829924 
" clip-path="url(#pd58d8dc97a)" style="fill: #e6482f"/>
    <path d="M 130.814552 71.562882 
L 130.959487 72.588731 
L 130.197166 72.696715 
L 130.052231 71.669407 
L 130.814552 71.562882 
" clip-path="url(#pd58d8dc97a)" style="fill: #e6482f"/>
    <path d="M 128.295129 71.424254 
L 128.551118 72.563924 
L 127.577042 72.782811 
L 127.321052 71.6446 
L 128.295129 71.424254 
" clip-path="url(#pd58d8dc97a)" style="fill: #e6482f"/>
    <path d="M 123.409688 71.241849 
L 123.495331 72.244349 
L 122.487374 72.330445 
L 122.40173 71.327944 
L 123.409688 71.241849 
" clip-path="url(#pd58d8dc97a)" style="fill: #e6482f"/>
    <path d="M 118.238141 70.998155 
L 118.272022 71.929153 
L 117.25183 71.965634 
L 117.217949 71.036095 
L 118.238141 70.998155 
" clip-path="url(#pd58d8dc97a)" style="fill: #e6482f"/>
    <path d="M 111.105266 70.299177 
L 111.161734 71.271034 
L 110.394707 71.31627 
L 110.33918 70.344414 
L 111.105266 70.299177 
" clip-path="url(#pd58d8dc97a)" style="fill: #e6482f"/>
    <path d="M 404.29855 69.538911 
L 404.854761 70.045268 
L 404.238317 70.722358 
L 403.682105 70.216 
L 404.29855 69.538911 
" clip-path="url(#pd58d8dc97a)" style="fill: #e6482f"/>
    <path d="M 99.070008 68.146792 
L 99.414464 69.197448 
L 98.215456 69.589984 
L 97.871 68.539329 
L 99.070008 68.146792 
" clip-path="url(#pd58d8dc97a)" style="fill: #e6482f"/>
    <path d="M 68.482122 66.477417 
L 68.716465 67.76447 
L 67.476988 67.989193 
L 67.243586 66.703599 
L 68.482122 66.477417 
" clip-path="url(#pd58d8dc97a)" style="fill: #e6482f"/>
    <path d="M 81.603451 66.388403 
L 81.766267 67.586442 
L 80.574788 67.748418 
L 80.411972 66.550379 
L 81.603451 66.388403 
" clip-path="url(#pd58d8dc97a)" style="fill: #e6482f"/>
    <path d="M 411.56789 62.646901 
L 412.136337 63.503477 
L 411.255433 64.087175 
L 410.686986 63.230598 
L 411.56789 62.646901 
" clip-path="url(#pd58d8dc97a)" style="fill: #e6482f"/>
    <path d="M 91.07411 47.326296 
L 91.409155 48.212057 
L 90.511311 48.552061 
L 90.176266 47.6663 
L 91.07411 47.326296 
" clip-path="url(#pd58d8dc97a)" style="fill: #e6482f"/>
    <path d="M 505.102769 211.647404 
L 505.804857 212.798747 
L 504.513618 213.58528 
L 503.812471 212.433936 
L 505.102769 211.647404 
" clip-path="url(#pd58d8dc97a)" style="fill: #e6482f"/>
    <path d="M 507.448082 210.307818 
L 508.136053 211.483968 
L 506.872107 212.223805 
L 506.184136 211.049114 
L 507.448082 210.307818 
" clip-path="url(#pd58d8dc97a)" style="fill: #e6482f"/>
    <path d="M 509.877156 209.293643 
L 510.461602 210.534001 
L 509.128953 211.161476 
L 508.544507 209.921118 
L 509.877156 209.293643 
" clip-path="url(#pd58d8dc97a)" style="fill: #e6482f"/>
    <path d="M 512.271408 208.094144 
L 512.887853 209.173985 
L 511.778253 209.807297 
L 511.162749 208.727456 
L 512.271408 208.094144 
" clip-path="url(#pd58d8dc97a)" style="fill: #e6482f"/>
    <path d="M 503.294846 207.024518 
L 503.932936 208.216721 
L 502.545701 208.958017 
L 501.90761 207.767274 
L 503.294846 207.024518 
" clip-path="url(#pd58d8dc97a)" style="fill: #e6482f"/>
    <path d="M 514.819066 206.706403 
L 515.548447 207.881095 
L 514.211091 208.711405 
L 513.48171 207.538172 
L 514.819066 206.706403 
" clip-path="url(#pd58d8dc97a)" style="fill: #e6482f"/>
    <path d="M 505.944146 205.724332 
L 506.54365 206.94426 
L 505.068889 207.668045 
L 504.469384 206.449576 
L 505.944146 205.724332 
" clip-path="url(#pd58d8dc97a)" style="fill: #e6482f"/>
    <path d="M 508.379808 204.616765 
L 509.021663 205.951974 
L 507.667367 206.602797 
L 507.024571 205.267588 
L 508.379808 204.616765 
" clip-path="url(#pd58d8dc97a)" style="fill: #e6482f"/>
    <path d="M 510.721356 203.396837 
L 511.383916 204.656165 
L 510.070089 205.346388 
L 509.407529 204.08706 
L 510.721356 203.396837 
" clip-path="url(#pd58d8dc97a)" style="fill: #e6482f"/>
    <path d="M 512.99326 202.029526 
L 513.718877 203.21881 
L 512.469047 203.980535 
L 511.744372 202.791251 
L 512.99326 202.029526 
" clip-path="url(#pd58d8dc97a)" style="fill: #e6482f"/>
    <path d="M 552.670646 189.077274 
L 552.695116 189.353071 
L 556.836117 188.982423 
L 556.806001 188.652634 
L 557.801724 188.56362 
L 557.977716 190.526304 
L 551.959147 191.064765 
L 551.78786 189.157533 
L 552.670646 189.077274 
" clip-path="url(#pd58d8dc97a)" style="fill: #e6482f"/>
    <path d="M 559.496711 185.709339 
L 559.586119 186.545486 
L 558.251587 186.688492 
L 558.162179 185.852345 
L 559.496711 185.709339 
" clip-path="url(#pd58d8dc97a)" style="fill: #e6482f"/>
    <path d="M 556.489779 176.349747 
L 556.651655 177.442721 
L 555.661579 177.563838 
L 555.519467 176.491293 
L 556.489779 176.349747 
" clip-path="url(#pd58d8dc97a)" style="fill: #e6482f"/>
    <path d="M 558.795564 176.066653 
L 558.876502 177.118768 
L 557.885485 177.280744 
L 557.723609 176.187771 
L 558.795564 176.066653 
" clip-path="url(#pd58d8dc97a)" style="fill: #e6482f"/>
    <path d="M 561.181346 175.803989 
L 561.302753 177.018081 
L 560.352204 177.018081 
L 560.251503 175.925107 
L 561.181346 175.803989 
" clip-path="url(#pd58d8dc97a)" style="fill: #e6482f"/>
    <path d="M 566.015024 175.399779 
L 566.095021 176.552582 
L 565.08424 176.573011 
L 564.881896 175.500467 
L 566.015024 175.399779 
" clip-path="url(#pd58d8dc97a)" style="fill: #e6482f"/>
    <path d="M 568.238931 175.157544 
L 568.360337 176.046224 
L 567.511432 176.2082 
L 567.390025 175.31952 
L 568.238931 175.157544 
" clip-path="url(#pd58d8dc97a)" style="fill: #e6482f"/>
    <path d="M 570.604949 174.591358 
L 570.807293 175.682872 
L 569.694869 175.865278 
L 569.492525 174.854021 
L 570.604949 174.591358 
" clip-path="url(#pd58d8dc97a)" style="fill: #e6482f"/>
    <path d="M 573.294717 174.388523 
L 573.416124 175.420208 
L 572.282995 175.440638 
L 572.080651 174.530069 
L 573.294717 174.388523 
" clip-path="url(#pd58d8dc97a)" style="fill: #e6482f"/>
    <path d="M 539.297092 192.391218 
L 539.106983 193.735182 
L 537.883505 193.562991 
L 538.074556 192.217568 
L 539.297092 192.391218 
" clip-path="url(#pd58d8dc97a)" style="fill: #e6482f"/>
    <path d="M 526.224702 191.200475 
L 526.170116 192.019111 
L 529.061289 192.211731 
L 529.158226 190.764161 
L 530.65181 190.864848 
L 530.459818 193.741019 
L 524.595595 193.348482 
L 524.746176 191.101246 
L 526.224702 191.200475 
" clip-path="url(#pd58d8dc97a)" style="fill: #e6482f"/>
    <path d="M 543.893604 181.350576 
L 543.966072 182.268441 
L 543.08705 182.338485 
L 543.014583 181.419161 
L 543.893604 181.350576 
" clip-path="url(#pd58d8dc97a)" style="fill: #e6482f"/>
    <path d="M 548.603994 177.522979 
L 548.725401 178.534235 
L 547.754147 178.675782 
L 547.612977 177.806072 
L 548.603994 177.522979 
" clip-path="url(#pd58d8dc97a)" style="fill: #e6482f"/>
    <path d="M 551.778448 177.05748 
L 551.961029 178.068736 
L 550.989776 178.292001 
L 550.767667 177.280744 
L 551.778448 177.05748 
" clip-path="url(#pd58d8dc97a)" style="fill: #e6482f"/>
    <path d="M 554.265873 176.734987 
L 554.427748 177.684955 
L 553.255092 177.867361 
L 553.153449 176.936363 
L 554.265873 176.734987 
" clip-path="url(#pd58d8dc97a)" style="fill: #e6482f"/>
    <path d="M 541.716755 168.850691 
L 541.982156 169.771474 
L 541.111604 170.021005 
L 540.847145 169.101681 
L 541.716755 168.850691 
" clip-path="url(#pd58d8dc97a)" style="fill: #e6482f"/>
    <path d="M 541.575584 165.376231 
L 541.895571 166.454612 
L 540.557274 166.850067 
L 540.238229 165.773145 
L 541.575584 165.376231 
" clip-path="url(#pd58d8dc97a)" style="fill: #e6482f"/>
    <path d="M 530.012778 157.489016 
L 530.313001 158.479843 
L 529.506446 158.724996 
L 529.206224 157.73271 
L 530.012778 157.489016 
" clip-path="url(#pd58d8dc97a)" style="fill: #e6482f"/>
    <path d="M 534.938688 155.767108 
L 535.294438 156.823601 
L 534.400358 157.124205 
L 534.044608 156.067712 
L 534.938688 155.767108 
" clip-path="url(#pd58d8dc97a)" style="fill: #e6482f"/>
    <path d="M 576.469172 173.680789 
L 576.69128 174.772304 
L 575.559093 174.954709 
L 575.356748 173.923024 
L 576.469172 173.680789 
" clip-path="url(#pd58d8dc97a)" style="fill: #e6482f"/>
    <path d="M 580.007846 172.81108 
L 579.947613 174.308264 
L 578.895422 174.246976 
L 579.037534 172.81108 
L 580.007846 172.81108 
" clip-path="url(#pd58d8dc97a)" style="fill: #e6482f"/>
    <path d="M 583.445819 172.81108 
L 583.586989 173.863195 
L 582.555503 173.943453 
L 582.414333 172.851938 
L 583.445819 172.81108 
" clip-path="url(#pd58d8dc97a)" style="fill: #e6482f"/>
    <path d="M 586.579804 172.427298 
L 586.74168 173.458984 
L 585.710194 173.63993 
L 585.588787 172.568845 
L 586.579804 172.427298 
" clip-path="url(#pd58d8dc97a)" style="fill: #e6482f"/>
    <path d="M 591.756998 171.356213 
L 592.04028 172.488587 
L 590.765981 172.730821 
L 590.44223 171.719565 
L 591.756998 171.356213 
" clip-path="url(#pd58d8dc97a)" style="fill: #e6482f"/>
    <path d="M 594.061842 170.870285 
L 594.385593 171.901971 
L 593.334343 172.185064 
L 593.051061 171.173808 
L 594.061842 170.870285 
" clip-path="url(#pd58d8dc97a)" style="fill: #e6482f"/>
    <path d="M 598.005205 168.363303 
L 598.308251 169.35413 
L 597.237237 169.575935 
L 596.973719 168.585109 
L 598.005205 168.363303 
" clip-path="url(#pd58d8dc97a)" style="fill: #e6482f"/>
    <path d="M 556.56507 147.887189 
L 556.808824 148.743766 
L 555.982506 148.978704 
L 555.738752 148.122128 
L 556.56507 147.887189 
" clip-path="url(#pd58d8dc97a)" style="fill: #e6482f"/>
    <path d="M 558.300526 146.864259 
L 558.578162 147.860923 
L 557.82337 148.071054 
L 557.545735 147.07439 
L 558.300526 146.864259 
" clip-path="url(#pd58d8dc97a)" style="fill: #e6482f"/>
    <path d="M 571.183748 143.575123 
L 571.262803 144.611186 
L 570.045913 144.704578 
L 569.966858 143.667055 
L 571.183748 143.575123 
" clip-path="url(#pd58d8dc97a)" style="fill: #e6482f"/>
    <path d="M 538.77382 154.659541 
L 539.189803 156.077927 
L 538.254313 156.352265 
L 537.839271 154.933879 
L 538.77382 154.659541 
" clip-path="url(#pd58d8dc97a)" style="fill: #e6482f"/>
    <path d="M 541.475824 153.873009 
L 541.822162 154.910531 
L 540.857497 155.233024 
L 540.5121 154.195502 
L 541.475824 153.873009 
" clip-path="url(#pd58d8dc97a)" style="fill: #e6482f"/>
    <path d="M 529.296573 151.993502 
L 529.693733 152.96244 
L 528.570015 153.423562 
L 528.172855 152.454624 
L 529.296573 151.993502 
" clip-path="url(#pd58d8dc97a)" style="fill: #e6482f"/>
    <path d="M 536.158401 148.854668 
L 536.600735 149.881976 
L 535.705714 150.267217 
L 535.26338 149.241368 
L 536.158401 148.854668 
" clip-path="url(#pd58d8dc97a)" style="fill: #e6482f"/>
    <path d="M 539.480614 147.545726 
L 539.895655 148.478183 
L 538.857581 148.940764 
L 538.441599 148.008307 
L 539.480614 147.545726 
" clip-path="url(#pd58d8dc97a)" style="fill: #e6482f"/>
    <path d="M 542.052741 146.794215 
L 542.349199 147.713539 
L 541.448531 148.003929 
L 541.153014 147.084605 
L 542.052741 146.794215 
" clip-path="url(#pd58d8dc97a)" style="fill: #e6482f"/>
    <path d="M 544.532636 146.207599 
L 544.801801 147.218855 
L 544.024422 147.426068 
L 543.755257 146.413353 
L 544.532636 146.207599 
" clip-path="url(#pd58d8dc97a)" style="fill: #e6482f"/>
    <path d="M 547.075588 145.977039 
L 547.228993 146.856963 
L 546.368794 147.005806 
L 546.215389 146.127341 
L 547.075588 145.977039 
" clip-path="url(#pd58d8dc97a)" style="fill: #e6482f"/>
    <path d="M 549.202557 145.170077 
L 549.48678 146.185711 
L 548.340476 146.506744 
L 548.056252 145.49111 
L 549.202557 145.170077 
" clip-path="url(#pd58d8dc97a)" style="fill: #e6482f"/>
    <path d="M 552.02785 144.420025 
L 552.356306 145.386045 
L 551.512107 145.673516 
L 551.182709 144.707496 
L 552.02785 144.420025 
" clip-path="url(#pd58d8dc97a)" style="fill: #e6482f"/>
    <path d="M 576.396704 143.36791 
L 576.358118 144.268264 
L 575.419804 144.227405 
L 575.458391 143.327051 
L 576.396704 143.36791 
" clip-path="url(#pd58d8dc97a)" style="fill: #e6482f"/>
    <path d="M 574.81183 143.353318 
L 574.776067 144.185087 
L 573.706935 144.13985 
L 573.742699 143.308081 
L 574.81183 143.353318 
" clip-path="url(#pd58d8dc97a)" style="fill: #e6482f"/>
    <path d="M 586.176998 143.15632 
L 586.195821 144.176331 
L 585.073985 144.19822 
L 585.054222 143.176749 
L 586.176998 143.15632 
" clip-path="url(#pd58d8dc97a)" style="fill: #e6482f"/>
    <path d="M 580.875574 143.179668 
L 580.891574 143.885942 
L 579.798914 143.910749 
L 579.782914 143.204475 
L 580.875574 143.179668 
" clip-path="url(#pd58d8dc97a)" style="fill: #e6482f"/>
    <path d="M 591.502891 142.451505 
L 591.595122 143.433576 
L 590.434701 143.543019 
L 590.342469 142.559489 
L 591.502891 142.451505 
" clip-path="url(#pd58d8dc97a)" style="fill: #e6482f"/>
    <path d="M 560.130096 140.732515 
L 560.753129 143.003099 
L 559.820462 143.258467 
L 559.19743 140.987883 
L 560.130096 140.732515 
" clip-path="url(#pd58d8dc97a)" style="fill: #e6482f"/>
    <path d="M 562.37659 140.99372 
L 562.788808 142.129012 
L 561.860847 142.466097 
L 561.44957 141.330805 
L 562.37659 140.99372 
" clip-path="url(#pd58d8dc97a)" style="fill: #e6482f"/>
    <path d="M 600.049354 141.038956 
L 600.313813 141.891155 
L 599.357618 142.187382 
L 599.093159 141.336642 
L 600.049354 141.038956 
" clip-path="url(#pd58d8dc97a)" style="fill: #e6482f"/>
    <path d="M 604.004952 140.119633 
L 604.151769 140.957239 
L 603.190869 141.126511 
L 603.044051 140.288905 
L 604.004952 140.119633 
" clip-path="url(#pd58d8dc97a)" style="fill: #e6482f"/>
    <path d="M 571.777605 138.431287 
L 571.875483 139.537394 
L 570.827998 139.630786 
L 570.729179 138.524679 
L 571.777605 138.431287 
" clip-path="url(#pd58d8dc97a)" style="fill: #e6482f"/>
    <path d="M 597.896974 136.394182 
L 598.012734 137.312047 
L 596.919133 137.449216 
L 596.803373 136.53281 
L 597.896974 136.394182 
" clip-path="url(#pd58d8dc97a)" style="fill: #e6482f"/>
    <path d="M 603.823313 134.806525 
L 604.173415 135.810485 
L 603.298158 136.116926 
L 602.948055 135.111507 
L 603.823313 134.806525 
" clip-path="url(#pd58d8dc97a)" style="fill: #e6482f"/>
    <path d="M 588.367023 134.672274 
L 588.66254 135.826536 
L 587.747755 136.060015 
L 587.452238 134.907212 
L 588.367023 134.672274 
" clip-path="url(#pd58d8dc97a)" style="fill: #e6482f"/>
    <path d="M 614.597446 128.216578 
L 614.978607 129.041051 
L 614.081703 129.455476 
L 613.699602 128.631003 
L 614.597446 128.216578 
" clip-path="url(#pd58d8dc97a)" style="fill: #e6482f"/>
    <path d="M 555.129836 143.597011 
L 555.418765 144.64183 
L 554.311047 144.948272 
L 554.022118 143.903453 
L 555.129836 143.597011 
" clip-path="url(#pd58d8dc97a)" style="fill: #e6482f"/>
   </g>
   <g id="LineCollection_1">
    <path d="M 221.889607 316.142123 
L 223.000783 311.12116 
L 225.866544 303.286478 
L 230.73975 298.237493 
" clip-path="url(#pd58d8dc97a)" style="fill: none; stroke: #e6482f; stroke-width: 0.2"/>
    <path d="M 355.126976 272.846645 
L 360.972376 296.40906 
L 371.532872 332.91789 
L 368.727175 334.154476 
" clip-path="url(#pd58d8dc97a)" style="fill: none; stroke: #e6482f; stroke-width: 0.2"/>
    <path d="M 189.468655 302.812291 
L 193.328622 302.266467 
L 209.343947 300.106785 
L 230.73975 298.237493 
L 237.786983 297.621692 
L 239.975126 297.43345 
L 293.056181 292.879149 
L 317.331864 290.223324 
L 319.670589 289.808899 
L 322.630464 289.069062 
L 325.205414 288.35841 
L 328.017531 287.293162 
L 335.476981 283.503505 
L 355.126976 272.846645 
L 355.994704 272.375309 
L 391.171574 253.297151 
L 427.826969 233.433919 
L 455.179228 218.612376 
L 467.959865 211.686803 
L 473.207644 208.81647 
L 484.902209 202.422062 
L 492.34566 198.350771 
L 499.874755 212.48501 
L 506.934222 226.883372 
L 509.272005 230.700755 
L 513.458182 236.526058 
L 518.892306 243.62528 
L 520.272012 245.353026 
L 525.705195 252.154563 
L 527.525353 254.858542 
L 529.527151 258.446823 
L 531.445188 262.450989 
L 534.43518 269.798284 
L 534.69211 270.621298 
L 536.1904 275.420752 
L 539.917514 289.809838 
" clip-path="url(#pd58d8dc97a)" style="fill: none; stroke: #e6482f; stroke-width: 0.5"/>
    <path d="M 239.975126 297.43345 
L 227.799639 252.33259 
" clip-path="url(#pd58d8dc97a)" style="fill: none; stroke: #e6482f; stroke-width: 0.2"/>
    <path d="M 391.171574 253.297151 
L 400.534943 276.128485 
L 405.891894 291.740938 
" clip-path="url(#pd58d8dc97a)" style="fill: none; stroke: #e6482f; stroke-width: 0.2"/>
    <path d="M 427.3145 257.514467 
L 427.642506 242.109126 
L 427.826969 233.433919 
" clip-path="url(#pd58d8dc97a)" style="fill: none; stroke: #e6482f; stroke-width: 0.2"/>
    <path d="M 355.994704 272.375309 
L 355.382024 250.906909 
L 354.834282 223.782478 
L 352.636728 201.385999 
" clip-path="url(#pd58d8dc97a)" style="fill: none; stroke: #e6482f; stroke-width: 0.2"/>
    <path d="M 544.073318 279.612644 
L 542.842355 277.732194 
L 537.355527 270.927739 
L 536.702378 270.853317 
L 534.69211 270.621298 
" clip-path="url(#pd58d8dc97a)" style="fill: none; stroke: #e6482f; stroke-width: 0.2"/>
    <path d="M 591.148082 180.927396 
L 591.784291 186.023076 
L 593.542334 194.412271 
L 593.735267 195.595718 
L 594.866757 202.531113 
" clip-path="url(#pd58d8dc97a)" style="fill: none; stroke: #e6482f; stroke-width: 0.2"/>
    <path d="M 496.497589 283.594913 
L 500.885536 283.373632 
L 510.04562 281.575844 
L 514.775773 280.042178 
L 521.270558 277.278369 
L 524.168318 275.378434 
L 528.565309 273.246478 
L 532.462557 271.848522 
L 534.69211 270.621298 
" clip-path="url(#pd58d8dc97a)" style="fill: none; stroke: #e6482f; stroke-width: 0.2"/>
    <path d="M 520.272012 245.353026 
L 521.915237 244.646751 
L 522.736849 244.293614 
L 533.021592 239.870645 
L 535.984291 238.280069 
L 537.592694 236.642797 
L 539.057102 235.152909 
L 546.439379 228.560044 
L 559.028025 217.319486 
L 571.427502 208.870462 
L 573.338178 207.804774 
" clip-path="url(#pd58d8dc97a)" style="fill: none; stroke: #e6482f; stroke-width: 0.2"/>
    <path d="M 579.142551 203.276872 
L 580.973453 201.079558 
L 582.959251 198.495236 
L 587.173662 193.014315 
L 591.784291 186.023076 
" clip-path="url(#pd58d8dc97a)" style="fill: none; stroke: #e6482f; stroke-width: 0.2"/>
    <path d="M 476.965603 213.458326 
L 475.832474 211.23006 
" clip-path="url(#pd58d8dc97a)" style="fill: none; stroke: #e6482f; stroke-width: 0.2"/>
    <path d="M 499.874755 212.48501 
L 515.670794 204.340968 
" clip-path="url(#pd58d8dc97a)" style="fill: none; stroke: #e6482f; stroke-width: 0.2"/>
    <path d="M 484.902209 202.422062 
L 484.277295 201.130631 
L 480.306639 192.934057 
L 480.156998 192.694741 
L 479.9603 192.493365 
L 479.725016 192.338685 
L 479.461498 192.237997 
L 479.182921 192.195679 
L 471.781822 191.879023 
L 471.600182 191.883401 
L 471.420425 191.914045 
L 471.246315 191.968037 
L 471.081616 192.046836 
L 465.661609 195.103953 
L 465.470558 195.173996 
L 465.299271 195.236744 
L 464.933169 195.327217 
L 464.529421 195.410394 
" clip-path="url(#pd58d8dc97a)" style="fill: none; stroke: #e6482f; stroke-width: 0.2"/>
    <path d="M 438.164827 261.604792 
L 434.118469 252.040742 
L 427.642506 242.109126 
" clip-path="url(#pd58d8dc97a)" style="fill: none; stroke: #e6482f; stroke-width: 0.2"/>
    <path d="M 473.207644 208.81647 
L 473.70927 209.783949 
" clip-path="url(#pd58d8dc97a)" style="fill: none; stroke: #e6482f; stroke-width: 0.2"/>
    <path d="M 461.642955 183.634294 
L 450.267435 187.765414 
L 441.828261 189.885696 
L 436.477898 191.562367 
L 433.146274 191.762284 
L 430.615557 190.030161 
L 413.585687 190.643043 
" clip-path="url(#pd58d8dc97a)" style="fill: none; stroke: #e6482f; stroke-width: 0.2"/>
    <path d="M 455.179228 218.612376 
L 441.828261 189.885696 
L 438.025127 174.089378 
L 429.917234 139.318508 
L 426.008693 124.253271 
" clip-path="url(#pd58d8dc97a)" style="fill: none; stroke: #e6482f; stroke-width: 0.2"/>
    <path d="M 451.524793 130.135484 
L 452.642864 136.045423 
L 453.480476 140.47277 
L 461.642955 183.634294 
L 464.529421 195.410394 
L 467.959865 211.686803 
" clip-path="url(#pd58d8dc97a)" style="fill: none; stroke: #e6482f; stroke-width: 0.2"/>
    <path d="M 453.480476 140.47277 
L 461.119683 137.764412 
L 460.992629 137.379172 
L 460.113608 134.720429 
L 459.829384 133.858016 
" clip-path="url(#pd58d8dc97a)" style="fill: none; stroke: #e6482f; stroke-width: 0.2"/>
    <path d="M 460.992629 137.379172 
L 465.410326 136.439419 
L 468.637484 134.972878 
" clip-path="url(#pd58d8dc97a)" style="fill: none; stroke: #e6482f; stroke-width: 0.2"/>
    <path d="M 452.642864 136.045423 
L 459.829384 133.858016 
" clip-path="url(#pd58d8dc97a)" style="fill: none; stroke: #e6482f; stroke-width: 0.2"/>
    <path d="M 460.113608 134.720429 
L 463.376529 133.379384 
" clip-path="url(#pd58d8dc97a)" style="fill: none; stroke: #e6482f; stroke-width: 0.2"/>
    <path d="M 451.524793 130.135484 
L 449.858981 128.914097 
" clip-path="url(#pd58d8dc97a)" style="fill: none; stroke: #e6482f; stroke-width: 0.2"/>
    <path d="M 418.256549 201.454583 
L 427.826969 233.433919 
" clip-path="url(#pd58d8dc97a)" style="fill: none; stroke: #e6482f; stroke-width: 0.2"/>
    <path d="M 336.146129 199.967614 
L 352.231098 201.337844 
L 352.636728 201.385999 
L 363.738377 202.686185 
L 373.326679 202.550476 
L 389.353297 202.960523 
L 400.038023 202.686185 
L 418.256549 201.454583 
" clip-path="url(#pd58d8dc97a)" style="fill: none; stroke: #e6482f; stroke-width: 0.2"/>
    <path d="M 418.256549 201.454583 
L 418.835348 200.408305 
L 420.839029 199.694735 
L 420.974552 198.064759 
L 422.005097 196.932386 
L 422.287438 196.61427 
L 422.565073 196.319503 
L 423.045994 195.924048 
L 426.035045 195.414772 
L 428.310713 193.581961 
L 433.146274 191.762284 
" clip-path="url(#pd58d8dc97a)" style="fill: none; stroke: #e6482f; stroke-width: 0.2"/>
    <path d="M 426.008693 124.253271 
L 425.674589 122.919522 
L 426.446321 119.150294 
L 425.110848 115.41317 
" clip-path="url(#pd58d8dc97a)" style="fill: none; stroke: #e6482f; stroke-width: 0.2"/>
    <path d="M 425.110848 115.41317 
L 420.991493 113.354176 
L 417.163889 111.182821 
" clip-path="url(#pd58d8dc97a)" style="fill: none; stroke: #e6482f; stroke-width: 0.2"/>
    <path d="M 417.163889 111.182821 
L 414.593645 108.869919 
" clip-path="url(#pd58d8dc97a)" style="fill: none; stroke: #e6482f; stroke-width: 0.2"/>
    <path d="M 213.588474 111.862829 
L 202.782341 109.23473 
L 196.600013 107.730249 
L 175.479963 103.90557 
L 163.006136 99.008347 
" clip-path="url(#pd58d8dc97a)" style="fill: none; stroke: #e6482f; stroke-width: 0.2"/>
    <path d="M 202.782341 109.23473 
L 211.006935 103.069423 
L 218.082402 97.445496 
L 223.655814 94.38692 
" clip-path="url(#pd58d8dc97a)" style="fill: none; stroke: #e6482f; stroke-width: 0.2"/>
    <path d="M 379.800759 87.446755 
L 373.466908 89.727554 
L 369.670363 92.224321 
L 364.373645 94.556193 
L 357.346176 97.852625 
L 352.449442 98.752979 
" clip-path="url(#pd58d8dc97a)" style="fill: none; stroke: #e6482f; stroke-width: 0.2"/>
    <path d="M 414.593645 108.869919 
L 406.454694 101.845117 
L 404.483953 98.189711 
L 403.540934 94.192841 
L 403.25577 90.508249 
L 402.227107 84.140108 
L 400.228133 78.829918 
L 398.837133 75.441553 
" clip-path="url(#pd58d8dc97a)" style="fill: none; stroke: #e6482f; stroke-width: 0.2"/>
    <path d="M 663.782196 177.073532 
L 613.535844 179.768756 
L 591.148082 180.927396 
L 552.828757 182.909049 
L 545.292134 183.33223 
L 535.891118 183.860476 
L 522.427215 185.383927 
L 516.575227 186.811068 
L 510.676181 188.808773 
L 504.10987 191.663055 
L 492.34566 198.350771 
" clip-path="url(#pd58d8dc97a)" style="fill: none; stroke: #e6482f; stroke-width: 0.2"/>
    <path d="M 545.292134 183.33223 
L 544.710511 177.989937 
L 542.567543 166.740624 
L 542.644716 164.216131 
" clip-path="url(#pd58d8dc97a)" style="fill: none; stroke: #e6482f; stroke-width: 0.2"/>
    <path d="M 518.73043 161.935333 
L 486.129452 180.78293 
" clip-path="url(#pd58d8dc97a)" style="fill: none; stroke: #e6482f; stroke-width: 0.2"/>
    <path d="M 784.188891 168.266004 
L 782.068973 168.240727 
L 770.769685 168.961594 
L 768.709536 169.125029 
L 758.037986 169.975768 
L 736.630889 172.679748 
L 722.659713 173.018292 
L 696.181771 174.144829 
L 663.782196 177.073532 
" clip-path="url(#pd58d8dc97a)" style="fill: none; stroke: #e6482f; stroke-width: 0.2"/>
    <path d="M 464.730825 124.701259 
L 467.294481 131.441508 
L 468.637484 134.972878 
L 482.175736 170.569681 
L 486.129452 180.78293 
L 492.34566 198.350771 
" clip-path="url(#pd58d8dc97a)" style="fill: none; stroke: #e6482f; stroke-width: 0.2"/>
    <path d="M 692.862382 137.077108 
L 694.260911 136.111089 
L 699.75715 136.510922 
L 713.147644 138.942023 
L 728.26983 140.941187 
L 747.621484 144.471099 
L 765.008986 147.302032 
L 767.407003 157.061457 
L 768.709536 169.125029 
" clip-path="url(#pd58d8dc97a)" style="fill: none; stroke: #e6482f; stroke-width: 0.2"/>
    <path d="M 518.191159 159.626809 
L 522.600385 157.275966 
L 535.465724 153.150683 
L 550.491914 147.945559 
L 566.500651 143.132972 
L 572.098533 141.856133 
L 592.428969 139.009148 
L 607.553038 138.027076 
" clip-path="url(#pd58d8dc97a)" style="fill: none; stroke: #e6482f; stroke-width: 0.2"/>
    <path d="M 796.18413 142.306597 
L 791.488811 131.448804 
L 791.379639 128.705425 
L 792.477005 126.182392 
L 793.958354 122.944329 
L 793.903768 117.842811 
L 792.97016 115.319778 
L 791.325053 113.508856 
L 783.314097 113.673751 
L 780.296812 110.930372 
" clip-path="url(#pd58d8dc97a)" style="fill: none; stroke: #e6482f; stroke-width: 0.2"/>
    <path d="M 490.210221 93.724424 
L 488.217834 101.540135 
L 485.363367 114.051695 
L 485.315369 116.0494 
L 485.791584 117.810708 
L 487.694562 119.998115 
L 494.021825 129.465691 
L 503.917878 145.688108 
L 505.7738 147.82882 
L 509.389647 150.112537 
L 511.95801 152.158397 
L 516.763454 157.010384 
L 518.191159 159.626809 
L 518.73043 161.935333 
L 519.047593 163.290971 
L 522.427215 185.383927 
" clip-path="url(#pd58d8dc97a)" style="fill: none; stroke: #e6482f; stroke-width: 0.2"/>
    <path d="M 637.370133 98.976243 
L 641.966645 97.24412 
L 648.794593 94.512415 
L 650.860388 93.180125 
L 654.324712 90.915379 
L 657.088831 90.117172 
L 661.652403 90.483442 
L 667.348163 92.281231 
L 670.878367 91.982086 
L 674.209992 91.681482 
L 676.274846 92.481148 
L 677.473854 94.846582 
L 678.639922 99.974366 
L 679.272366 107.734627 
L 679.77211 114.129035 
L 680.737716 118.026676 
L 683.769118 123.387939 
L 686.367597 128.451516 
L 689.631459 132.61474 
L 694.260911 136.111089 
" clip-path="url(#pd58d8dc97a)" style="fill: none; stroke: #e6482f; stroke-width: 0.2"/>
    <path d="M 429.917234 139.318508 
L 451.524793 130.135484 
L 464.730825 124.701259 
L 471.653827 122.07316 
L 473.088119 121.568261 
L 485.791584 117.810708 
" clip-path="url(#pd58d8dc97a)" style="fill: none; stroke: #e6482f; stroke-width: 0.2"/>
    <path d="M 450.742709 125.632256 
L 451.412798 125.481954 
L 453.378833 124.956626 
" clip-path="url(#pd58d8dc97a)" style="fill: none; stroke: #e6482f; stroke-width: 0.2"/>
    <path d="M 448.733382 125.31706 
L 449.706517 123.303303 
L 450.317315 123.185104 
" clip-path="url(#pd58d8dc97a)" style="fill: none; stroke: #e6482f; stroke-width: 0.2"/>
    <path d="M 448.167758 125.360837 
L 447.019572 122.799864 
" clip-path="url(#pd58d8dc97a)" style="fill: none; stroke: #e6482f; stroke-width: 0.2"/>
    <path d="M 450.036856 121.572639 
L 447.019572 122.799864 
L 445.249293 123.580559 
" clip-path="url(#pd58d8dc97a)" style="fill: none; stroke: #e6482f; stroke-width: 0.2"/>
    <path d="M 458.320742 119.096302 
L 460.278307 118.989777 
" clip-path="url(#pd58d8dc97a)" style="fill: none; stroke: #e6482f; stroke-width: 0.2"/>
    <path d="M 450.110265 121.992902 
L 458.320742 119.096302 
L 456.58905 114.129035 
" clip-path="url(#pd58d8dc97a)" style="fill: none; stroke: #e6482f; stroke-width: 0.2"/>
    <path d="M 449.5437 118.728572 
L 444.737315 115.845106 
L 439.91493 113.603707 
L 436.28026 113.400872 
L 428.095193 115.742959 
L 427.195466 115.541583 
L 426.452909 115.912231 
L 425.110848 115.41317 
" clip-path="url(#pd58d8dc97a)" style="fill: none; stroke: #e6482f; stroke-width: 0.2"/>
    <path d="M 451.524793 130.135484 
L 450.742709 125.632256 
L 450.317315 123.185104 
L 450.110265 121.992902 
L 450.036856 121.572639 
L 449.5437 118.728572 
L 448.994077 115.56639 
L 447.428025 104.954767 
L 447.20874 100.08381 
L 448.00306 98.274347 
L 449.81663 97.464466 
L 451.843839 97.638116 
L 457.403134 101.24245 
L 470.162125 104.606007 
L 470.421879 107.642694 
L 471.653827 122.07316 
" clip-path="url(#pd58d8dc97a)" style="fill: none; stroke: #e6482f; stroke-width: 0.2"/>
    <path d="M 470.162125 104.606007 
L 472.394502 103.46196 
L 474.737932 103.545137 
L 476.93831 103.623936 
L 476.816903 107.40046 
L 470.421879 107.642694 
" clip-path="url(#pd58d8dc97a)" style="fill: none; stroke: #e6482f; stroke-width: 0.2"/>
    <path d="M 474.737932 103.545137 
L 474.812282 101.130088 
L 475.508723 100.337718 
L 476.061171 91.164909 
L 472.626962 88.882651 
L 466.716623 87.074648 
L 463.837686 86.193264 
L 458.746136 84.920804 
L 454.879946 84.585177 
L 449.187951 85.473857 
" clip-path="url(#pd58d8dc97a)" style="fill: none; stroke: #e6482f; stroke-width: 0.2"/>
    <path d="M 466.716623 87.074648 
L 466.832383 86.60769 
L 466.973554 85.996266 
" clip-path="url(#pd58d8dc97a)" style="fill: none; stroke: #e6482f; stroke-width: 0.2"/>
    <path d="M 466.973554 85.996266 
L 467.131665 85.268104 
" clip-path="url(#pd58d8dc97a)" style="fill: none; stroke: #e6482f; stroke-width: 0.2"/>
    <path d="M 467.131665 85.268104 
L 467.419653 83.683364 
" clip-path="url(#pd58d8dc97a)" style="fill: none; stroke: #e6482f; stroke-width: 0.2"/>
    <path d="M 354.528413 93.358153 
L 382.693813 72.998779 
L 386.790582 70.188274 
L 415.42561 50.546848 
L 417.979552 48.790217 
" clip-path="url(#pd58d8dc97a)" style="fill: none; stroke: #e6482f; stroke-width: 0.2"/>
    <path d="M 97.931233 71.735073 
L 101.267563 71.775932 
L 105.817018 71.85619 
L 112.288275 72.180143 
L 119.12281 72.625212 
L 126.483441 73.191399 
L 134.835089 73.837844 
L 143.753301 74.525148 
L 152.630103 75.515975 
L 162.559096 77.173676 
L 171.03215 79.903922 
L 180.010595 82.815114 
L 192.709354 87.28332 
L 205.695159 91.417359 
L 207.12757 91.872643 
L 218.55297 93.67335 
L 223.655814 94.38692 
L 231.71665 95.513457 
L 250.583619 97.97958 
L 266.235665 100.285185 
L 278.570204 101.699193 
L 298.310548 104.636651 
L 320.928889 103.729002 
L 339.00342 99.184915 
L 354.528413 93.358153 
" clip-path="url(#pd58d8dc97a)" style="fill: none; stroke: #e6482f; stroke-width: 0.2"/>
    <path d="M 386.790582 70.188274 
L 392.458108 80.573715 
" clip-path="url(#pd58d8dc97a)" style="fill: none; stroke: #e6482f; stroke-width: 0.2"/>
    <path d="M 379.800759 87.446755 
L 386.343542 84.967499 
L 388.509098 83.867229 
L 392.458108 80.573715 
L 395.337045 78.173258 
L 398.837133 75.441553 
L 399.734036 74.742575 
L 402.099113 71.446143 
L 404.730531 67.04944 
L 411.125556 59.189951 
L 413.05771 55.759268 
L 415.42561 50.546848 
" clip-path="url(#pd58d8dc97a)" style="fill: none; stroke: #e6482f; stroke-width: 0.2"/>
    <path d="M 151.064992 45.540181 
L 157.882587 50.974406 
L 173.359582 62.78261 
L 196.164267 75.407991 
L 197.54115 77.167839 
L 197.311513 81.069858 
L 197.770788 84.358995 
L 205.695159 91.417359 
" clip-path="url(#pd58d8dc97a)" style="fill: none; stroke: #e6482f; stroke-width: 0.2"/>
    <path d="M 133.834815 31.319214 
L 151.064992 45.540181 
" clip-path="url(#pd58d8dc97a)" style="fill: none; stroke: #e6482f; stroke-width: 0.2"/>
    <path d="M 158.582868 33.948945 
L 156.722166 42.973371 
L 157.882587 50.974406 
" clip-path="url(#pd58d8dc97a)" style="fill: none; stroke: #e6482f; stroke-width: 0.2"/>
    <path d="M 491.195591 89.032954 
L 490.210221 93.724424 
" clip-path="url(#pd58d8dc97a)" style="fill: none; stroke: #e6482f; stroke-width: 0.2"/>
    <path d="M 491.65434 86.817097 
L 491.195591 89.032954 
" clip-path="url(#pd58d8dc97a)" style="fill: none; stroke: #e6482f; stroke-width: 0.2"/>
   </g>
  </g>
 </g>
 <defs>
  <clipPath id="pd58d8dc97a">
   <rect x="7.2" y="7.2" width="837" height="349.926751"/>
  </clipPath>
 </defs>
</svg>
