<?xml version="1.0" encoding="utf-8" standalone="no"?>
<!DOCTYPE svg PUBLIC "-//W3C//DTD SVG 1.1//EN"
  "http://www.w3.org/Graphics/SVG/1.1/DTD/svg11.dtd">
<svg xmlns:xlink="http://www.w3.org/1999/xlink" width="776.23378pt" height="846pt" viewBox="0 0 776.23378 846" xmlns="http://www.w3.org/2000/svg" version="1.1">
 <metadata>
  <rdf:RDF xmlns:dc="http://purl.org/dc/elements/1.1/" xmlns:cc="http://creativecommons.org/ns#" xmlns:rdf="http://www.w3.org/1999/02/22-rdf-syntax-ns#">
   <cc:Work>
    <dc:type rdf:resource="http://purl.org/dc/dcmitype/StillImage"/>
    <dc:date>2025-03-16T14:38:36.869740</dc:date>
    <dc:format>image/svg+xml</dc:format>
    <dc:creator>
     <cc:Agent>
      <dc:title>Matplotlib v3.10.1, https://matplotlib.org/</dc:title>
     </cc:Agent>
    </dc:creator>
   </cc:Work>
  </rdf:RDF>
 </metadata>
 <defs>
  <style type="text/css">*{stroke-linejoin: round; stroke-linecap: butt}</style>
 </defs>
 <g id="figure_1">
  <g id="patch_1">
   <path d="M 0 846 
L 776.23378 846 
L 776.23378 0 
L 0 0 
z
" style="fill: #ffffff"/>
  </g>
  <g id="axes_1">
   <g id="PatchCollection_1">
    <path d="M 45.634328 206.662244 
L 60.020029 301.485448 
L 56.455386 434.26057 
L 61.058811 449.037395 
L 41.828808 494.210465 
L 43.714004 498.249884 
L 75.298982 499.238359 
L 174.938363 517.28998 
L 301.231437 573.630558 
L 338.277963 801 
L 413.102009 800.471807 
L 433.379157 729.070186 
L 496.442056 685.808671 
L 734.404971 767.469811 
L 694.663636 677.256977 
L 694.663636 655.626219 
L 724.251343 601.939183 
L 493.598371 478.555834 
L 571.214247 456.925076 
L 587.913369 269.142435 
L 541.236787 265.648816 
L 511.294456 263.405254 
L 325.355923 249.486113 
L 450.608543 85.680915 
L 304.075122 51.222616 
L 275.944385 45 
L 45.634328 206.662244 
" clip-path="url(#p7b05170c82)" style="fill: #f29888"/>
   </g>
   <g id="PatchCollection_2">
    <path d="M 326.674055 449.985627 
L 334.005744 451.524932 
L 333.380133 454.51048 
L 326.048444 452.971175 
L 326.674055 449.985627 
" clip-path="url(#p7b05170c82)" style="fill: #f29888"/>
    <path d="M 318.137981 447.596183 
L 317.587644 450.317634 
L 311.251245 449.037395 
L 311.801582 446.315944 
L 318.137981 447.596183 
" clip-path="url(#p7b05170c82)" style="fill: #f29888"/>
    <path d="M 335.777193 445.556353 
L 343.063717 447.085597 
L 342.478253 449.882504 
L 335.190055 448.35326 
L 335.777193 445.556353 
" clip-path="url(#p7b05170c82)" style="fill: #f29888"/>
    <path d="M 322.605912 439.665744 
L 329.935929 441.202534 
L 329.310318 444.188081 
L 321.978629 442.648776 
L 322.605912 439.665744 
" clip-path="url(#p7b05170c82)" style="fill: #f29888"/>
    <path d="M 334.099418 432.512503 
L 341.431108 434.051808 
L 340.805497 437.037355 
L 333.473808 435.49805 
L 334.099418 432.512503 
" clip-path="url(#p7b05170c82)" style="fill: #f29888"/>
    <path d="M 311.928711 431.531573 
L 314.068166 430.203545 
L 318.035943 436.60474 
L 315.898161 437.932768 
L 311.928711 431.531573 
" clip-path="url(#p7b05170c82)" style="fill: #f29888"/>
    <path d="M 320.18878 426.003154 
L 324.409143 432.811812 
L 322.102413 434.242963 
L 317.882049 427.434305 
L 320.18878 426.003154 
" clip-path="url(#p7b05170c82)" style="fill: #f29888"/>
    <path d="M 330.909473 428.96858 
L 326.585399 421.993918 
L 328.853656 420.587919 
L 333.17773 427.562581 
L 330.909473 428.96858 
" clip-path="url(#p7b05170c82)" style="fill: #f29888"/>
    <path d="M 348.21246 422.406412 
L 348.419882 423.533223 
L 346.52465 423.709288 
L 346.584869 422.642841 
L 348.21246 422.406412 
" clip-path="url(#p7b05170c82)" style="fill: #f29888"/>
    <path d="M 314.876107 417.448944 
L 319.161708 424.360726 
L 317.303276 425.515204 
L 313.017675 418.600908 
L 314.876107 417.448944 
" clip-path="url(#p7b05170c82)" style="fill: #f29888"/>
    <path d="M 297.775523 448.277804 
L 304.687351 449.686318 
L 304.121959 452.463104 
L 297.208459 451.054589 
L 297.775523 448.277804 
" clip-path="url(#p7b05170c82)" style="fill: #f29888"/>
    <path d="M 287.570039 445.636839 
L 294.353064 447.49306 
L 293.625415 450.156661 
L 286.840717 448.30044 
L 287.570039 445.636839 
" clip-path="url(#p7b05170c82)" style="fill: #f29888"/>
    <path d="M 276.437848 443.466218 
L 283.950195 445.005523 
L 283.470114 447.349693 
L 275.957767 445.812903 
L 276.437848 443.466218 
" clip-path="url(#p7b05170c82)" style="fill: #f29888"/>
    <path d="M 268.152688 435.43517 
L 270.216869 434.117203 
L 274.055844 440.136087 
L 271.993336 441.451539 
L 268.152688 435.43517 
" clip-path="url(#p7b05170c82)" style="fill: #f29888"/>
    <path d="M 298.217131 435.933181 
L 295.97731 432.349015 
L 297.593193 431.337902 
L 299.833013 434.922069 
L 298.217131 435.933181 
" clip-path="url(#p7b05170c82)" style="fill: #f29888"/>
    <path d="M 308.272067 421.455665 
L 312.057513 427.562581 
L 310.466722 428.548541 
L 306.681276 422.441625 
L 308.272067 421.455665 
" clip-path="url(#p7b05170c82)" style="fill: #f29888"/>
    <path d="M 295.286462 418.243749 
L 288.312743 422.5699 
L 286.905955 420.301186 
L 293.881347 415.977549 
L 295.286462 418.243749 
" clip-path="url(#p7b05170c82)" style="fill: #f29888"/>
    <path d="M 303.621805 412.187137 
L 296.888962 416.359861 
L 295.468792 414.071025 
L 302.201635 409.895785 
L 303.621805 412.187137 
" clip-path="url(#p7b05170c82)" style="fill: #f29888"/>
    <path d="M 295.027185 408.208083 
L 295.992365 409.76751 
L 293.376175 411.389817 
L 292.409322 409.83039 
L 295.027185 408.208083 
" clip-path="url(#p7b05170c82)" style="fill: #f29888"/>
    <path d="M 260.432919 317.301053 
L 259.169988 319.17488 
L 255.548472 316.730101 
L 256.813075 314.856274 
L 260.432919 317.301053 
" clip-path="url(#p7b05170c82)" style="fill: #f29888"/>
    <path d="M 334.060945 418.014865 
L 336.314147 416.616411 
L 340.487673 423.349613 
L 338.234471 424.745552 
L 334.060945 418.014865 
" clip-path="url(#p7b05170c82)" style="fill: #f29888"/>
    <path d="M 334.395496 403.942297 
L 338.681097 410.856593 
L 336.822665 412.008557 
L 332.537064 405.09426 
L 334.395496 403.942297 
" clip-path="url(#p7b05170c82)" style="fill: #f29888"/>
    <path d="M 314.04642 403.698322 
L 315.705794 406.374499 
L 308.084718 411.100568 
L 306.425344 408.424391 
L 314.04642 403.698322 
" clip-path="url(#p7b05170c82)" style="fill: #f29888"/>
    <path d="M 317.78503 401.303847 
L 321.786262 398.821341 
L 322.907008 400.629773 
L 318.905776 403.109764 
L 317.78503 401.303847 
" clip-path="url(#p7b05170c82)" style="fill: #f29888"/>
    <path d="M 328.694744 394.324155 
L 329.658251 395.878552 
L 325.501453 398.456636 
L 324.537945 396.90224 
L 328.694744 394.324155 
" clip-path="url(#p7b05170c82)" style="fill: #f29888"/>
    <path d="M 359.229231 358.01215 
L 359.110465 359.315026 
L 360.057245 359.433241 
L 359.821387 361.151125 
L 358.933153 361.387554 
L 358.814387 363.517932 
L 353.841284 363.578297 
L 353.841284 361.208975 
L 352.953051 361.030395 
L 353.01327 357.951785 
L 359.229231 358.01215 
" clip-path="url(#p7b05170c82)" style="fill: #f29888"/>
    <path d="M 328.254809 72.850858 
L 332.257714 74.17134 
L 325.447925 94.803561 
L 321.443347 93.483079 
L 328.254809 72.850858 
" clip-path="url(#p7b05170c82)" style="fill: #f29888"/>
    <path d="M 318.285184 69.910584 
L 322.288089 71.231066 
L 315.478299 91.863287 
L 311.473721 90.54029 
L 318.285184 69.910584 
" clip-path="url(#p7b05170c82)" style="fill: #f29888"/>
    <path d="M 252.378599 312.142369 
L 251.113996 314.013681 
L 247.492479 311.571417 
L 248.757083 309.69759 
L 252.378599 312.142369 
" clip-path="url(#p7b05170c82)" style="fill: #f29888"/>
    <path d="M 241.790054 305.519836 
L 240.525451 307.393663 
L 236.905607 304.948884 
L 238.168538 303.075057 
L 241.790054 305.519836 
" clip-path="url(#p7b05170c82)" style="fill: #f29888"/>
    <path d="M 256.814748 292.304952 
L 257.937167 294.548514 
L 254.134993 296.450009 
L 253.012574 294.206446 
L 256.814748 292.304952 
" clip-path="url(#p7b05170c82)" style="fill: #f29888"/>
    <path d="M 84.857109 266.297739 
L 73.231456 270.410098 
L 67.343355 253.769506 
L 78.969008 249.657147 
L 84.857109 266.297739 
" clip-path="url(#p7b05170c82)" style="fill: #f29888"/>
    <path d="M 67.769907 238.713493 
L 64.123299 241.25888 
L 63.648237 240.604927 
L 60.941718 242.581877 
L 57.169653 237.413132 
L 59.876172 235.436182 
L 58.939429 234.153427 
L 62.584364 231.608041 
L 67.769907 238.713493 
" clip-path="url(#p7b05170c82)" style="fill: #f29888"/>
    <path d="M 304.157087 70.798451 
L 308.161665 72.118933 
L 302.947684 87.914417 
L 298.943107 86.591419 
L 304.157087 70.798451 
" clip-path="url(#p7b05170c82)" style="fill: #f29888"/>
    <path d="M 293.854583 67.765115 
L 297.859161 69.088112 
L 292.64518 84.88108 
L 288.642275 83.560598 
L 293.854583 67.765115 
" clip-path="url(#p7b05170c82)" style="fill: #f29888"/>
    <path d="M 284.861847 61.43686 
L 288.866425 62.759858 
L 282.653809 81.581132 
L 278.649231 80.26065 
L 284.861847 61.43686 
" clip-path="url(#p7b05170c82)" style="fill: #f29888"/>
   </g>
   <g id="LineCollection_1">
    <path d="M 130.677061 509.27118 
L 157.429626 492.882437 
L 164.789752 488.10858 
L 190.63885 471.344743 
L 216.758934 454.402326 
L 249.795864 432.977816 
L 267.291219 421.631729 
L 298.13182 401.630824 
L 318.255074 388.581944 
L 329.382247 379.607695 
L 335.124818 371.171699 
L 337.816282 365.786647 
L 339.970792 359.503666 
L 340.469273 349.623944 
L 338.71957 338.19737 
L 332.169058 313.94074 
" clip-path="url(#p7b05170c82)" style="fill: none; stroke: #f29888; stroke-width: 0.5"/>
    <path d="M 348.316171 773.352874 
L 340.532838 764.760936 
L 332.36737 764.724311 
" clip-path="url(#p7b05170c82)" style="fill: none; stroke: #f29888; stroke-width: 0.2"/>
    <path d="M 157.429626 492.882437 
L 172.067913 496.423845 
L 199.534566 501.165005 
L 209.256624 498.247368 
L 219.100792 495.085756 
L 232.215199 496.899219 
" clip-path="url(#p7b05170c82)" style="fill: none; stroke: #f29888; stroke-width: 0.2"/>
    <path d="M 249.795864 432.977816 
L 253.830551 436.906565 
L 267.261109 448.677721 
L 271.028155 449.125428 
L 273.702892 458.969937 
L 292.417686 466.020055 
L 294.433357 478.334496 
L 307.244994 518.532491 
L 315.265859 552.324262 
" clip-path="url(#p7b05170c82)" style="fill: none; stroke: #f29888; stroke-width: 0.2"/>
    <path d="M 220.184738 486.242298 
L 232.215199 496.899219 
" clip-path="url(#p7b05170c82)" style="fill: none; stroke: #f29888; stroke-width: 0.2"/>
    <path d="M 53.323115 467.209267 
L 72.950433 483.022836 
L 95.06637 502.819608 
" clip-path="url(#p7b05170c82)" style="fill: none; stroke: #f29888; stroke-width: 0.2"/>
    <path d="M 301.910576 407.083787 
L 286.355618 415.67824 
L 269.770243 426.164127 
L 253.830551 436.906565 
L 250.004959 439.484649 
L 255.245703 453.753404 
L 243.730451 463.379091 
L 237.715221 472.660195 
L 220.184738 486.242298 
" clip-path="url(#p7b05170c82)" style="fill: none; stroke: #f29888; stroke-width: 0.2"/>
    <path d="M 190.63885 471.344743 
L 174.95509 442.492834 
L 167.419325 419.033523 
L 164.62415 411.621216 
" clip-path="url(#p7b05170c82)" style="fill: none; stroke: #f29888; stroke-width: 0.2"/>
    <path d="M 164.789752 488.10858 
L 149.433853 456.957774 
L 157.090057 442.616079 
L 164.62415 411.621216 
L 170.2145 395.576727 
L 162.56666 391.36376 
" clip-path="url(#p7b05170c82)" style="fill: none; stroke: #f29888; stroke-width: 0.2"/>
    <path d="M 321.073668 457.3426 
L 315.742595 456.776679 
L 303.452857 448.612326 
L 293.471522 446.436674 
L 283.344657 444.228325 
L 275.609834 438.126439 
L 271.657112 432.882238 
L 273.977224 430.304153 
L 269.770243 426.164127 
L 267.291219 421.631729 
" clip-path="url(#p7b05170c82)" style="fill: none; stroke: #f29888; stroke-width: 0.2"/>
    <path d="M 622.0677 705.210958 
L 637.997355 711.903917 
L 640.846059 724.369269 
L 640.006199 735.07522 
" clip-path="url(#p7b05170c82)" style="fill: none; stroke: #f29888; stroke-width: 0.2"/>
    <path d="M 407.272248 800.51296 
L 403.890142 796.25884 
L 399.469048 790.317927 
L 396.327612 789.457727 
" clip-path="url(#p7b05170c82)" style="fill: none; stroke: #f29888; stroke-width: 0.2"/>
    <path d="M 451.264263 648.684255 
L 448.564435 656.106623 
L 446.348033 659.902067 
L 444.800734 665.679491 
L 441.14409 673.544535 
L 435.356354 682.664666 
L 432.781983 688.429514 
L 428.401035 691.855223 
L 425.257926 695.552573 
L 424.861483 717.102844 
L 425.888555 725.249591 
L 424.679153 732.395286 
L 418.889745 751.998789 
L 411.357325 767.107621 
L 403.63421 773.005776 
L 398.968894 780.724938 
L 396.327612 789.457727 
L 390.25049 783.338235 
L 385.090038 775.742318 
L 382.460466 762.10488 
L 381.292882 754.702634 
L 384.226896 743.75898 
L 385.57681 738.728571 
L 388.594462 719.736263 
L 389.081234 709.607535 
" clip-path="url(#p7b05170c82)" style="fill: none; stroke: #f29888; stroke-width: 0.2"/>
    <path d="M 595.067746 628.43183 
L 499.881242 598.908361 
L 489.050147 593.095724 
L 482.710402 593.095724 
L 453.917254 585.301106 
L 445.483219 570.941804 
" clip-path="url(#p7b05170c82)" style="fill: none; stroke: #f29888; stroke-width: 0.2"/>
    <path d="M 435.145587 643.316809 
L 434.608632 617.28696 
L 424.242564 589.262553 
L 426.390382 580.575037 
L 430.592345 578.799303 
L 445.483219 570.941804 
L 440.595426 559.44732 
L 428.181904 550.797533 
" clip-path="url(#p7b05170c82)" style="fill: none; stroke: #f29888; stroke-width: 0.2"/>
    <path d="M 630.29486 551.678978 
L 626.179334 558.899006 
L 595.067746 628.43183 
L 604.269577 641.634138 
L 616.214727 649.343239 
L 630.391334 670.850751 
L 632.985778 683.625474 
L 629.852706 696.704537 
L 622.0677 705.210958 
" clip-path="url(#p7b05170c82)" style="fill: none; stroke: #f29888; stroke-width: 0.2"/>
    <path d="M 394.932534 486.370573 
L 401.60683 493.496147 
L 415.614488 501.574984 
L 437.872179 536.299895 
" clip-path="url(#p7b05170c82)" style="fill: none; stroke: #f29888; stroke-width: 0.2"/>
    <path d="M 423.058252 445.913512 
L 442.308328 447.254115 
L 458.472169 445.065888 
L 466.979805 440.689432 
L 491.164511 438.868424 
L 512.43193 435.342108 
L 523.492192 430.844922 
L 528.353221 431.453602 
L 533.943571 426.833171 
" clip-path="url(#p7b05170c82)" style="fill: none; stroke: #f29888; stroke-width: 0.2"/>
    <path d="M 396.327612 789.457727 
L 396.376127 800.589877 
" clip-path="url(#p7b05170c82)" style="fill: none; stroke: #f29888; stroke-width: 0.2"/>
    <path d="M 390.25049 783.338235 
L 380.426394 788.024061 
L 370.164037 789.075416 
L 365.947019 788.894321 
L 361.495815 787.802723 
L 353.923249 784.193405 
L 352.441187 783.104321 
L 351.005963 780.322505 
L 348.316171 773.352874 
" clip-path="url(#p7b05170c82)" style="fill: none; stroke: #f29888; stroke-width: 0.2"/>
    <path d="M 382.460466 762.10488 
L 354.80981 758.405014 
" clip-path="url(#p7b05170c82)" style="fill: none; stroke: #f29888; stroke-width: 0.2"/>
    <path d="M 384.226896 743.75898 
L 367.571265 737.880947 
" clip-path="url(#p7b05170c82)" style="fill: none; stroke: #f29888; stroke-width: 0.2"/>
    <path d="M 622.0677 705.210958 
L 590.936039 701.131296 
L 451.264263 648.684255 
L 435.145587 643.316809 
L 409.020484 635.32349 
L 385.732376 626.555488 
L 378.410723 625.255127 
L 354.881738 620.020987 
L 310.769491 616.997711 
L 308.303369 617.033852 
" clip-path="url(#p7b05170c82)" style="fill: none; stroke: #f29888; stroke-width: 0.2"/>
    <path d="M 310.769491 616.997711 
L 308.581526 587.94207 
L 315.265859 552.324262 
L 327.420104 554.027055 
L 345.040915 550.623984 
L 349.947108 544.929561 
" clip-path="url(#p7b05170c82)" style="fill: none; stroke: #f29888; stroke-width: 0.2"/>
    <path d="M 232.215199 496.899219 
L 250.605478 495.867985 
L 258.683216 492.429701 
L 294.433357 478.334496 
L 324.854096 464.410324 
L 343.244375 457.533756 
L 357.355744 454.120623 
L 365.605777 474.574265 
L 368.872669 496.836339 
L 368.528081 530.358982 
L 381.075424 550.900656 
L 381.590632 558.121808 
L 388.035761 587.69055 
L 382.965638 604.881972 
L 382.020531 621.130192 
L 378.410723 625.255127 
L 378.153119 629.898194 
L 384.188422 670.048401 
L 396.285793 681.646008 
" clip-path="url(#p7b05170c82)" style="fill: none; stroke: #f29888; stroke-width: 0.2"/>
    <path d="M 320.282454 437.331634 
L 318.495951 445.053312 
L 321.073668 457.3426 
L 324.854096 464.410324 
L 335.596535 481.066007 
L 338.948738 495.67683 
L 343.244375 515.101753 
L 346.854182 536.332593 
L 349.947108 544.929561 
" clip-path="url(#p7b05170c82)" style="fill: none; stroke: #f29888; stroke-width: 0.2"/>
    <path d="M 389.53455 471.058009 
L 376.692803 472.856381 
L 365.605777 474.574265 
" clip-path="url(#p7b05170c82)" style="fill: none; stroke: #f29888; stroke-width: 0.2"/>
    <path d="M 412.680475 378.470822 
L 393.423708 431.79567 
L 389.290328 457.807913 
L 389.53455 471.058009 
L 391.692406 475.650773 
L 394.932534 486.370573 
L 397.797965 495.852894 
L 418.093513 541.923892 
L 428.181904 550.797533 
" clip-path="url(#p7b05170c82)" style="fill: none; stroke: #f29888; stroke-width: 0.2"/>
    <path d="M 303.956356 438.984124 
L 309.886276 441.046591 
L 317.878704 439.155157 
L 320.282454 437.331634 
" clip-path="url(#p7b05170c82)" style="fill: none; stroke: #f29888; stroke-width: 0.2"/>
    <path d="M 298.13182 401.630824 
L 301.910576 407.083787 
L 308.691928 418.248779 
L 320.282454 437.331634 
L 341.767332 426.07358 
" clip-path="url(#p7b05170c82)" style="fill: none; stroke: #f29888; stroke-width: 0.2"/>
    <path d="M 334.405533 376.745392 
L 334.651428 384.71859 
L 340.409054 395.116445 
L 340.23676 417.290486 
L 341.767332 426.07358 
L 342.814477 429.496773 
L 342.556872 437.145509 
L 345.564488 442.560744 
L 344.448759 449.693864 
L 343.244375 457.533756 
" clip-path="url(#p7b05170c82)" style="fill: none; stroke: #f29888; stroke-width: 0.2"/>
    <path d="M 343.94526 366.000439 
L 334.405533 376.745392 
L 329.382247 379.607695 
" clip-path="url(#p7b05170c82)" style="fill: none; stroke: #f29888; stroke-width: 0.2"/>
    <path d="M 339.970792 359.503666 
L 347.394483 356.198688 
L 369.152019 354.453136 
L 390.827591 352.712615 
L 397.266028 355.833983 
L 406.324002 357.657506 
L 411.509545 365.786647 
L 412.680475 378.470822 
L 443.119614 375.349454 
" clip-path="url(#p7b05170c82)" style="fill: none; stroke: #f29888; stroke-width: 0.2"/>
    <path d="M 339.970792 359.503666 
L 343.94526 366.000439 
L 347.598559 365.781616 
L 363.968149 364.798171 
L 369.152019 354.453136 
" clip-path="url(#p7b05170c82)" style="fill: none; stroke: #f29888; stroke-width: 0.2"/>
    <path d="M 332.169058 313.94074 
L 329.531122 304.174201 
" clip-path="url(#p7b05170c82)" style="fill: none; stroke: #f29888; stroke-width: 0.5"/>
    <path d="M 379.166809 298.406838 
L 383.052621 318.317195 
" clip-path="url(#p7b05170c82)" style="fill: none; stroke: #f29888; stroke-width: 0.2"/>
    <path d="M 477.69548 286.341402 
L 431.575926 292.41059 
L 379.166809 298.406838 
L 338.952083 302.936721 
" clip-path="url(#p7b05170c82)" style="fill: none; stroke: #f29888; stroke-width: 0.2"/>
    <path d="M 423.564486 121.049095 
L 401.374317 119.087859 
L 343.476888 109.977789 
L 311.214444 105.357359 
L 296.574484 102.467389 
L 300.331494 89.179564 
" clip-path="url(#p7b05170c82)" style="fill: none; stroke: #f29888; stroke-width: 0.2"/>
    <path d="M 308.691928 418.248779 
L 300.86343 428.239171 
L 303.956356 438.984124 
L 293.471522 446.436674 
" clip-path="url(#p7b05170c82)" style="fill: none; stroke: #f29888; stroke-width: 0.2"/>
    <path d="M 56.887206 418.176228 
L 162.56666 391.36376 
L 170.463741 385.080779 
L 183.026138 381.670162 
L 189.486321 381.851257 
L 193.076055 383.284923 
L 196.306147 383.284923 
L 262.385025 370.985574 
L 279.221314 367.85163 
L 339.970792 359.503666 
" clip-path="url(#p7b05170c82)" style="fill: none; stroke: #f29888; stroke-width: 0.2"/>
    <path d="M 256.155682 348.841715 
L 262.385025 370.985574 
" clip-path="url(#p7b05170c82)" style="fill: none; stroke: #f29888; stroke-width: 0.2"/>
    <path d="M 216.758934 454.402326 
L 207.42161 423.409978 
L 201.749295 403.471953 
L 190.991802 385.435423 
L 189.486321 381.851257 
L 185.645674 376.076348 
L 184.42958 362.099357 
L 173.233824 350.874 
L 170.610943 340.805637 
L 170.712981 333.008504 
L 164.911864 323.470849 
L 153.107225 318.362469 
L 150.758675 313.953316 
L 153.803091 300.9648 
L 152.466559 292.09116 
L 155.261734 280.667101 
L 161.287001 274.283513 
L 185.888223 248.21845 
L 181.269744 242.385691 
L 179.971685 232.636759 
" clip-path="url(#p7b05170c82)" style="fill: none; stroke: #f29888; stroke-width: 0.2"/>
    <path d="M 161.287001 274.283513 
L 236.410471 335.820502 
L 239.675691 341.147705 
L 249.471349 347.382897 
L 256.155682 348.841715 
L 269.159687 343.129686 
L 286.295399 329.029451 
L 285.201416 323.682126 
L 286.66006 316.511278 
L 295.895345 315.661139 
L 303.431111 322.346553 
L 312.181297 320.643759 
" clip-path="url(#p7b05170c82)" style="fill: none; stroke: #f29888; stroke-width: 0.2"/>
    <path d="M 52.81202 253.973928 
L 59.777479 252.569754 
L 76.187215 237.57159 
L 86.603467 233.348562 
L 99.274593 236.404535 
L 107.78223 242.725244 
L 146.550022 240.416286 
L 179.971685 232.636759 
L 192.35677 231.421916 
L 199.036085 231.721225 
L 204.955968 238.072116 
L 212.894868 242.420904 
L 226.472628 238.98262 
L 229.453479 230.259891 
" clip-path="url(#p7b05170c82)" style="fill: none; stroke: #f29888; stroke-width: 0.2"/>
    <path d="M 347.598559 365.781616 
L 347.394483 356.198688 
L 348.070276 333.94416 
L 341.367543 317.099836 
L 338.952083 302.936721 
L 333.728067 272.673782 
L 324.613219 268.055867 
L 320.570168 265.706666 
L 309.620308 259.433746 
L 301.035724 254.808286 
L 276.486358 248.610822 
L 260.809289 239.495721 
L 229.453479 230.259891 
L 194.459425 186.598459 
L 186.878495 182.030848 
L 181.830117 162.437406 
L 183.88928 159.273279 
L 202.756294 163.451033 
L 232.896011 174.266412 
" clip-path="url(#p7b05170c82)" style="fill: none; stroke: #f29888; stroke-width: 0.2"/>
    <path d="M 226.472628 238.98262 
L 252.940645 270.264216 
L 272.018427 266.996966 
L 297.971235 259.006162 
L 309.620308 259.433746 
" clip-path="url(#p7b05170c82)" style="fill: none; stroke: #f29888; stroke-width: 0.2"/>
    <path d="M 123.29264 152.151307 
L 123.424171 154.225264 
L 123.872469 158.083587 
L 127.19289 167.236416 
L 134.639999 178.092038 
L 138.678032 187.78312 
L 139.934272 196.219116 
L 152.677327 213.267171 
L 171.341937 225.649522 
L 179.971685 232.636759 
" clip-path="url(#p7b05170c82)" style="fill: none; stroke: #f29888; stroke-width: 0.2"/>
    <path d="M 280.419007 81.908109 
L 300.331494 89.179564 
L 322.370054 96.071224 
" clip-path="url(#p7b05170c82)" style="fill: none; stroke: #f29888; stroke-width: 0.2"/>
    <path d="M 391.692406 475.650773 
L 407.677261 478.57344 
L 418.247406 468.346619 
L 423.058252 445.913512 
L 423.40284 433.27964 
L 429.762658 395.11896 
L 445.267433 394.082696 
L 497.559457 395.644638 
L 506.535465 401.107661 
L 570.431397 409.050677 
L 575.4165 409.67048 
" clip-path="url(#p7b05170c82)" style="fill: none; stroke: #f29888; stroke-width: 0.2"/>
    <path d="M 526.613555 347.327562 
L 539.107369 362.084266 
L 551.375361 382.339207 
L 568.512746 400.061336 
L 570.431397 409.050677 
" clip-path="url(#p7b05170c82)" style="fill: none; stroke: #f29888; stroke-width: 0.2"/>
    <path d="M 431.575926 292.41059 
L 435.488502 318.586322 
L 441.042052 346.404482 
L 443.119614 375.349454 
L 445.267433 394.082696 
" clip-path="url(#p7b05170c82)" style="fill: none; stroke: #f29888; stroke-width: 0.2"/>
    <path d="M 406.324002 357.657506 
L 413.102009 348.665651 
L 441.042052 346.404482 
L 526.613555 347.327562 
L 539.373337 348.665651 
L 551.162921 338.091732 
L 549.190742 323.646913 
" clip-path="url(#p7b05170c82)" style="fill: none; stroke: #f29888; stroke-width: 0.2"/>
    <path d="M 405.551189 322.381765 
L 435.488502 318.586322 
L 549.190742 323.646913 
" clip-path="url(#p7b05170c82)" style="fill: none; stroke: #f29888; stroke-width: 0.2"/>
    <path d="M 549.190742 323.646913 
L 560.916761 325.960901 
L 569.387597 322.942656 
L 583.393948 319.963596 
" clip-path="url(#p7b05170c82)" style="fill: none; stroke: #f29888; stroke-width: 0.2"/>
    <path d="M 329.531122 304.174201 
L 320.570168 265.706666 
L 317.716447 254.871166 
L 317.159419 247.219914 
L 318.434059 237.463436 
L 320.228926 229.027441 
L 323.81866 219.336359 
L 326.869767 213.234473 
L 332.433353 206.415754 
L 338.982193 200.560358 
L 346.611633 195.469585 
L 381.378887 176.219361 
" clip-path="url(#p7b05170c82)" style="fill: none; stroke: #f29888; stroke-width: 0.5"/>
   </g>
  </g>
 </g>
 <defs>
  <clipPath id="p7b05170c82">
   <rect x="7.2" y="7.2" width="761.83378" height="831.6"/>
  </clipPath>
 </defs>
</svg>
