<?xml version="1.0" encoding="utf-8" standalone="no"?>
<!DOCTYPE svg PUBLIC "-//W3C//DTD SVG 1.1//EN"
  "http://www.w3.org/Graphics/SVG/1.1/DTD/svg11.dtd">
<svg xmlns:xlink="http://www.w3.org/1999/xlink" width="721.926807pt" height="846pt" viewBox="0 0 721.926807 846" xmlns="http://www.w3.org/2000/svg" version="1.1">
 <metadata>
  <rdf:RDF xmlns:dc="http://purl.org/dc/elements/1.1/" xmlns:cc="http://creativecommons.org/ns#" xmlns:rdf="http://www.w3.org/1999/02/22-rdf-syntax-ns#">
   <cc:Work>
    <dc:type rdf:resource="http://purl.org/dc/dcmitype/StillImage"/>
    <dc:date>2025-03-16T14:38:48.642213</dc:date>
    <dc:format>image/svg+xml</dc:format>
    <dc:creator>
     <cc:Agent>
      <dc:title>Matplotlib v3.10.1, https://matplotlib.org/</dc:title>
     </cc:Agent>
    </dc:creator>
   </cc:Work>
  </rdf:RDF>
 </metadata>
 <defs>
  <style type="text/css">*{stroke-linejoin: round; stroke-linecap: butt}</style>
 </defs>
 <g id="figure_1">
  <g id="patch_1">
   <path d="M 0 846 
L 721.926807 846 
L 721.926807 0 
L 0 0 
z
" style="fill: #ffffff"/>
  </g>
  <g id="axes_1">
   <g id="PatchCollection_1">
    <path d="M 362.705611 294.015018 
L 369.843751 321.179478 
L 359.607522 369.195412 
L 354.453393 387.193512 
L 345.009459 401.936413 
L 348.636057 419.210668 
L 359.690773 432.857302 
L 371.089722 439.766725 
L 404.425051 456.004917 
L 424.632787 476.562373 
L 445.186627 487.446638 
L 471.95816 491.246471 
L 468.503678 502.648767 
L 478.694072 513.013601 
L 468.676729 533.918278 
L 455.377021 549.121807 
L 431.886919 591.970026 
L 476.178745 718.879382 
L 517.167627 734.39933 
L 558.81504 740.387496 
L 588.370363 801 
L 622.708455 788.939663 
L 625.253715 788.046408 
L 600.583121 729.144809 
L 589.102792 700.795876 
L 591.514288 654.527249 
L 570.783655 638.479468 
L 552.250308 638.384262 
L 532.718876 631.213024 
L 520.348033 615.43686 
L 570.539512 587.164932 
L 583.649332 574.579563 
L 614.106393 552.755029 
L 625.995498 496.570996 
L 632.218804 451.703854 
L 621.324044 447.033169 
L 642.271692 390.753929 
L 662.505621 376.649467 
L 638.25035 341.1895 
L 653.368502 317.900477 
L 663.694531 243.264716 
L 668.558681 224.931996 
L 674.54065 219.047436 
L 674.637933 213.601103 
L 672.255435 209.12643 
L 675.756687 202.999656 
L 680.864045 191.328542 
L 682.566497 179.51322 
L 679.696649 175.476774 
L 673.71468 174.358105 
L 669.288303 189.724044 
L 664.910568 180.972109 
L 660.825618 175.622382 
L 652.168367 170.710882 
L 647.790632 170.17605 
L 642.072449 167.041258 
L 641.283896 162.019151 
L 633.2964 159.041169 
L 617.246576 154.373284 
L 613.16069 148.295513 
L 610.085051 135.266316 
L 601.481118 134.417864 
L 598.785257 143.34761 
L 596.848015 143.284606 
L 575.878852 152.921395 
L 544.090697 151.472307 
L 526.048442 151.351899 
L 500.89611 150.362039 
L 486.191411 147.588469 
L 430.286426 126.924607 
L 372.161705 107.786837 
L 345.803625 94.196206 
L 338.452211 81.022801 
L 336.370916 88.787676 
L 329.654648 93.255349 
L 318.429686 112.436521 
L 292.799358 138.898138 
L 289.525411 167.739901 
L 277.220982 195.845218 
L 288.69757 206.918495 
L 304.024319 201.341954 
L 363.070422 176.826456 
L 392.996169 182.671813 
L 406.236011 194.89176 
L 412.232947 210.43971 
L 413.187068 230.183717 
L 403.55231 235.084016 
L 390.536032 237.675575 
L 402.676763 259.246693 
L 414.777271 283.106951 
L 390.796077 281.925279 
L 372.522775 274.41942 
L 362.705611 294.015018 
" clip-path="url(#pd521a99dd2)" style="fill: #f29888"/>
    <path d="M 295.979764 107.67623 
L 304.971893 100.649201 
L 298.449255 86.473334 
L 236.902792 71.933446 
L 218.709 89.945547 
L 202.812584 76.454322 
L 96.123068 45 
L 83.792448 76.343715 
L 144.921717 96.076521 
L 72.118488 148.429921 
L 39.360309 180.127858 
L 58.028356 199.757057 
L 95.689972 169.557212 
L 203.393476 198.593586 
L 244.504897 172.869814 
L 262.118732 148.483124 
L 263.772543 133.877431 
L 276.710247 126.857402 
L 295.979764 107.67623 
" clip-path="url(#pd521a99dd2)" style="fill: #f29888"/>
   </g>
   <g id="PatchCollection_2">
    <path d="M 325.262881 174.646523 
L 325.947604 177.285684 
L 318.048038 179.334009 
L 314.04821 180.371473 
L 305.336704 182.629811 
L 303.522002 183.100239 
L 299.728901 184.0845 
L 299.044178 181.443938 
L 325.262881 174.646523 
" clip-path="url(#pd521a99dd2)" style="fill: #f29888"/>
    <path d="M 208.025643 161.681731 
L 212.191975 162.887204 
L 211.791618 164.270489 
L 207.625286 163.065015 
L 208.025643 161.681731 
" clip-path="url(#pd521a99dd2)" style="fill: #f29888"/>
    <path d="M 216.116034 154.734506 
L 217.388197 155.812572 
L 213.876654 159.952625 
L 212.604492 158.873159 
L 216.116034 154.734506 
" clip-path="url(#pd521a99dd2)" style="fill: #f29888"/>
    <path d="M 207.016332 155.531155 
L 211.445515 156.868236 
L 210.927296 158.586141 
L 206.498113 157.24906 
L 207.016332 155.531155 
" clip-path="url(#pd521a99dd2)" style="fill: #f29888"/>
    <path d="M 201.281312 154.233275 
L 205.736687 155.568957 
L 205.318557 156.960642 
L 200.863183 155.62496 
L 201.281312 154.233275 
" clip-path="url(#pd521a99dd2)" style="fill: #f29888"/>
    <path d="M 214.725074 153.702643 
L 213.498747 154.891316 
L 210.196738 151.486307 
L 211.423065 150.297635 
L 214.725074 153.702643 
" clip-path="url(#pd521a99dd2)" style="fill: #f29888"/>
    <path d="M 217.608954 151.545111 
L 217.094477 152.072943 
L 214.765297 149.807605 
L 215.276033 149.282573 
L 217.086058 151.04248 
L 217.435903 150.682658 
L 217.708108 150.947275 
L 217.36107 151.304296 
L 217.608954 151.545111 
" clip-path="url(#pd521a99dd2)" style="fill: #f29888"/>
    <path d="M 206.443859 149.143964 
L 205.567377 149.940613 
L 204.780694 149.07676 
L 205.657177 148.280112 
L 206.443859 149.143964 
" clip-path="url(#pd521a99dd2)" style="fill: #f29888"/>
    <path d="M 213.630641 148.393518 
L 214.233047 147.882487 
L 214.602535 148.319314 
L 214.000129 148.828945 
L 213.630641 148.393518 
" clip-path="url(#pd521a99dd2)" style="fill: #f29888"/>
    <path d="M 554.658063 588.025985 
L 556.464346 586.820511 
L 557.317443 587.975582 
L 555.661761 589.330865 
L 554.658063 588.025985 
" clip-path="url(#pd521a99dd2)" style="fill: #f29888"/>
    <path d="M 464.610487 400.665135 
L 463.562824 402.495047 
L 460.847319 401.06696 
L 459.899745 402.696659 
L 458.137426 401.643795 
L 460.119567 398.507603 
L 464.610487 400.665135 
" clip-path="url(#pd521a99dd2)" style="fill: #f29888"/>
    <path d="M 470.055529 396.32487 
L 469.427866 398.105779 
L 466.617884 397.278328 
L 467.220291 395.445616 
L 470.055529 396.32487 
" clip-path="url(#pd521a99dd2)" style="fill: #f29888"/>
    <path d="M 465.570221 394.942985 
L 464.861178 395.973448 
L 462.854716 394.718972 
L 463.582468 393.71511 
L 465.570221 394.942985 
" clip-path="url(#pd521a99dd2)" style="fill: #f29888"/>
    <path d="M 461.976363 391.229958 
L 461.731285 391.756391 
L 463.878994 392.88906 
L 462.954805 394.342349 
L 460.044734 392.610443 
L 460.270169 392.334626 
L 459.994222 392.183417 
L 460.244913 391.682186 
L 460.546116 391.9076 
L 461.09801 390.879937 
L 461.976363 391.229958 
" clip-path="url(#pd521a99dd2)" style="fill: #f29888"/>
    <path d="M 469.907734 257.460184 
L 470.097622 258.790265 
L 467.435436 259.151487 
L 467.168843 257.89701 
L 469.907734 257.460184 
" clip-path="url(#pd521a99dd2)" style="fill: #f29888"/>
    <path d="M 451.942183 159.097173 
L 451.806548 159.926023 
L 451.174208 159.822417 
L 451.308908 158.993566 
L 451.942183 159.097173 
" clip-path="url(#pd521a99dd2)" style="fill: #f29888"/>
    <path d="M 210.583999 149.510787 
L 209.618652 150.439043 
L 206.421409 147.11104 
L 207.386756 146.184183 
L 210.583999 149.510787 
" clip-path="url(#pd521a99dd2)" style="fill: #f29888"/>
    <path d="M 213.869171 147.309852 
L 214.165697 147.658474 
L 213.732601 148.025296 
L 213.43701 147.676675 
L 213.869171 147.309852 
" clip-path="url(#pd521a99dd2)" style="fill: #f29888"/>
    <path d="M 216.083295 146.065176 
L 216.402271 146.567807 
L 215.615588 147.066237 
L 215.297547 146.563607 
L 216.083295 146.065176 
" clip-path="url(#pd521a99dd2)" style="fill: #f29888"/>
    <path d="M 214.108637 146.12398 
L 213.15358 147.017234 
L 209.317449 142.923384 
L 210.272506 142.02873 
L 214.108637 146.12398 
" clip-path="url(#pd521a99dd2)" style="fill: #f29888"/>
    <path d="M 206.077177 144.716894 
L 205.133345 145.660551 
L 203.246616 143.773236 
L 204.189513 142.830979 
L 206.077177 144.716894 
" clip-path="url(#pd521a99dd2)" style="fill: #f29888"/>
    <path d="M 404.275384 142.077733 
L 403.547633 143.51282 
L 402.036005 142.748374 
L 402.763756 141.311886 
L 404.275384 142.077733 
" clip-path="url(#pd521a99dd2)" style="fill: #f29888"/>
    <path d="M 234.813078 138.948541 
L 235.493124 141.625505 
L 241.762265 140.033608 
L 242.218746 141.829917 
L 242.292644 142.116935 
L 240.599546 142.518759 
L 240.52939 142.265344 
L 235.154504 143.67243 
L 234.878557 143.735434 
L 234.527777 143.659829 
L 234.326663 143.472218 
L 234.198512 143.136197 
L 233.235036 139.350366 
L 234.813078 138.948541 
" clip-path="url(#pd521a99dd2)" style="fill: #f29888"/>
    <path d="M 218.964368 142.325548 
L 217.774522 143.01439 
L 215.050598 138.308702 
L 216.239509 137.61986 
L 218.964368 142.325548 
" clip-path="url(#pd521a99dd2)" style="fill: #f29888"/>
    <path d="M 223.960411 139.703187 
L 222.736891 140.420031 
L 219.938134 135.640139 
L 221.16259 134.923295 
L 223.960411 139.703187 
" clip-path="url(#pd521a99dd2)" style="fill: #f29888"/>
    <path d="M 208.105154 140.214219 
L 207.216511 139.187956 
L 212.201329 134.871492 
L 213.089972 135.897755 
L 208.105154 140.214219 
" clip-path="url(#pd521a99dd2)" style="fill: #f29888"/>
    <path d="M 200.02131 159.462595 
L 204.529068 160.85148 
L 204.112809 162.201162 
L 199.605987 160.812277 
L 200.02131 159.462595 
" clip-path="url(#pd521a99dd2)" style="fill: #f29888"/>
    <path d="M 192.045975 157.08805 
L 196.448031 158.39853 
L 196.041126 159.765013 
L 191.639071 158.454533 
L 192.045975 157.08805 
" clip-path="url(#pd521a99dd2)" style="fill: #f29888"/>
    <path d="M 183.496297 154.604298 
L 188.396928 156.149992 
L 187.917061 157.669085 
L 183.016429 156.121991 
L 183.496297 154.604298 
" clip-path="url(#pd521a99dd2)" style="fill: #f29888"/>
    <path d="M 195.085134 152.582574 
L 199.933382 153.970059 
L 199.527412 155.388346 
L 194.679164 154.000861 
L 195.085134 152.582574 
" clip-path="url(#pd521a99dd2)" style="fill: #f29888"/>
    <path d="M 186.598128 150.307435 
L 191.52495 151.721522 
L 191.140495 153.057203 
L 186.213673 151.643117 
L 186.598128 150.307435 
" clip-path="url(#pd521a99dd2)" style="fill: #f29888"/>
    <path d="M 177.743504 147.910489 
L 182.486985 149.246171 
L 182.099724 150.621055 
L 177.356243 149.283973 
L 177.743504 147.910489 
" clip-path="url(#pd521a99dd2)" style="fill: #f29888"/>
    <path d="M 199.079349 150.769464 
L 198.037299 149.964414 
L 200.421667 146.873026 
L 201.464653 147.676675 
L 199.079349 150.769464 
" clip-path="url(#pd521a99dd2)" style="fill: #f29888"/>
    <path d="M 197.831508 144.677691 
L 196.04861 146.930429 
L 194.939209 146.052575 
L 196.721172 143.799838 
L 197.831508 144.677691 
" clip-path="url(#pd521a99dd2)" style="fill: #f29888"/>
    <path d="M 180.46088 145.870564 
L 184.601955 142.85758 
L 185.478438 144.061654 
L 181.337362 147.074638 
L 180.46088 145.870564 
" clip-path="url(#pd521a99dd2)" style="fill: #f29888"/>
    <path d="M 189.225704 141.022068 
L 188.307128 139.850196 
L 190.481964 138.146292 
L 191.401476 139.319564 
L 189.225704 141.022068 
" clip-path="url(#pd521a99dd2)" style="fill: #f29888"/>
    <path d="M 175.01958 152.203151 
L 179.841636 153.723644 
L 179.373929 155.204935 
L 174.551873 153.685842 
L 175.01958 152.203151 
" clip-path="url(#pd521a99dd2)" style="fill: #f29888"/>
    <path d="M 169.246208 150.534249 
L 173.675391 151.923134 
L 173.162784 153.555634 
L 168.734537 152.166749 
L 169.246208 150.534249 
" clip-path="url(#pd521a99dd2)" style="fill: #f29888"/>
    <path d="M 168.94594 146.637811 
L 168.396853 146.4516 
L 168.992711 144.702893 
L 172.428485 145.873364 
L 171.830755 147.629072 
L 171.296634 147.447061 
L 171.141356 147.903489 
L 168.787856 147.10124 
L 168.94594 146.637811 
" clip-path="url(#pd521a99dd2)" style="fill: #f29888"/>
    <path d="M 178.874419 140.655246 
L 177.720119 141.881721 
L 175.465772 139.759191 
L 176.620072 138.534116 
L 178.874419 140.655246 
" clip-path="url(#pd521a99dd2)" style="fill: #f29888"/>
    <path d="M 164.554174 140.200218 
L 163.921835 141.813116 
L 158.366414 139.638783 
L 158.997818 138.025885 
L 164.554174 140.200218 
" clip-path="url(#pd521a99dd2)" style="fill: #f29888"/>
    <path d="M 157.320622 137.502253 
L 156.683606 139.192156 
L 151.259143 137.148031 
L 151.896159 135.458128 
L 157.320622 137.502253 
" clip-path="url(#pd521a99dd2)" style="fill: #f29888"/>
    <path d="M 164.737515 134.384262 
L 163.614084 135.375523 
L 161.046374 132.467545 
L 162.16887 131.476285 
L 164.737515 134.384262 
" clip-path="url(#pd521a99dd2)" style="fill: #f29888"/>
    <path d="M 147.510941 131.595292 
L 145.88987 132.664957 
L 144.265057 130.202207 
L 145.886128 129.132541 
L 147.510941 131.595292 
" clip-path="url(#pd521a99dd2)" style="fill: #f29888"/>
    <path d="M 138.47017 130.888249 
L 137.692842 132.247732 
L 130.303075 128.030674 
L 131.079469 126.669791 
L 138.47017 130.888249 
" clip-path="url(#pd521a99dd2)" style="fill: #f29888"/>
    <path d="M 175.434903 131.823506 
L 171.739085 127.500042 
L 173.030891 126.396774 
L 176.726709 130.718838 
L 175.434903 131.823506 
" clip-path="url(#pd521a99dd2)" style="fill: #f29888"/>
    <path d="M 201.621803 140.471834 
L 200.331868 141.499497 
L 194.357382 134.007639 
L 195.646382 132.979977 
L 201.621803 140.471834 
" clip-path="url(#pd521a99dd2)" style="fill: #f29888"/>
    <path d="M 203.713387 135.526732 
L 202.771426 136.223975 
L 201.288796 134.223253 
L 202.230757 133.52601 
L 203.713387 135.526732 
" clip-path="url(#pd521a99dd2)" style="fill: #f29888"/>
    <path d="M 184.464449 131.375479 
L 186.429753 133.995039 
L 185.059372 135.022701 
L 183.093133 132.403141 
L 184.464449 131.375479 
" clip-path="url(#pd521a99dd2)" style="fill: #f29888"/>
    <path d="M 188.823476 127.879465 
L 186.817014 129.43216 
L 186.013494 128.394696 
L 189.146194 125.969748 
L 192.697023 130.556428 
L 189.60174 132.950575 
L 188.914211 132.06152 
L 190.882321 130.539627 
L 188.823476 127.879465 
" clip-path="url(#pd521a99dd2)" style="fill: #f29888"/>
    <path d="M 196.710882 125.334109 
L 197.386251 126.182561 
L 196.734268 126.700593 
L 200.552625 131.491686 
L 199.649951 132.21133 
L 195.156225 126.573185 
L 196.710882 125.334109 
" clip-path="url(#pd521a99dd2)" style="fill: #f29888"/>
    <path d="M 181.178342 125.1801 
L 181.622663 124.772675 
L 181.987475 125.170299 
L 181.543153 125.577724 
L 181.178342 125.1801 
" clip-path="url(#pd521a99dd2)" style="fill: #f29888"/>
    <path d="M 188.431538 123.292785 
L 187.873096 123.745012 
L 187.375456 123.128975 
L 187.933898 122.676747 
L 188.431538 123.292785 
" clip-path="url(#pd521a99dd2)" style="fill: #f29888"/>
    <path d="M 191.311676 121.25146 
L 195.31431 119.12053 
L 195.903621 120.226597 
L 191.900986 122.357527 
L 191.311676 121.25146 
" clip-path="url(#pd521a99dd2)" style="fill: #f29888"/>
    <path d="M 199.258013 120.653623 
L 201.054942 119.800971 
L 201.388885 120.505214 
L 199.59102 121.356466 
L 199.258013 120.653623 
" clip-path="url(#pd521a99dd2)" style="fill: #f29888"/>
    <path d="M 204.625415 120.10199 
L 203.245681 121.031646 
L 201.751825 118.818111 
L 203.13156 117.888454 
L 204.625415 120.10199 
" clip-path="url(#pd521a99dd2)" style="fill: #f29888"/>
    <path d="M 228.982646 137.628261 
L 227.571107 138.056687 
L 226.236272 133.666018 
L 227.647811 133.237592 
L 228.982646 137.628261 
" clip-path="url(#pd521a99dd2)" style="fill: #f29888"/>
    <path d="M 245.284096 138.044086 
L 243.141064 138.510315 
L 241.909125 132.852569 
L 244.052157 132.38634 
L 245.284096 138.044086 
" clip-path="url(#pd521a99dd2)" style="fill: #f29888"/>
    <path d="M 209.860925 132.531949 
L 205.097799 136.627199 
L 204.342921 135.749346 
L 209.10511 131.654096 
L 209.860925 132.531949 
" clip-path="url(#pd521a99dd2)" style="fill: #f29888"/>
    <path d="M 219.675282 130.515826 
L 225.772307 128.071277 
L 226.202597 129.143742 
L 220.105573 131.589692 
L 219.675282 130.515826 
" clip-path="url(#pd521a99dd2)" style="fill: #f29888"/>
    <path d="M 231.175255 125.917945 
L 232.528799 131.015657 
L 231.009687 131.418881 
L 229.655208 126.32117 
L 231.175255 125.917945 
" clip-path="url(#pd521a99dd2)" style="fill: #f29888"/>
    <path d="M 223.7303 124.142636 
L 224.122238 125.1885 
L 218.285258 127.375434 
L 217.89332 126.32957 
L 223.7303 124.142636 
" clip-path="url(#pd521a99dd2)" style="fill: #f29888"/>
    <path d="M 206.504661 127.166821 
L 205.479448 125.730334 
L 205.264303 125.884343 
L 205.506575 126.223164 
L 203.61704 127.571446 
L 202.896771 126.563384 
L 204.769469 125.226303 
L 205.017354 125.573524 
L 205.252142 125.406914 
L 204.471072 124.312047 
L 205.249336 123.757613 
L 203.984657 121.985105 
L 205.220338 121.104451 
L 206.712323 123.193378 
L 206.079048 123.645606 
L 207.595353 125.769536 
L 208.185599 125.34811 
L 209.571882 127.290029 
L 208.355844 128.158082 
L 207.262346 126.626388 
L 206.504661 127.166821 
" clip-path="url(#pd521a99dd2)" style="fill: #f29888"/>
    <path d="M 228.863849 122.531138 
L 229.958282 124.428254 
L 228.881622 125.048492 
L 227.787188 123.151376 
L 228.863849 122.531138 
" clip-path="url(#pd521a99dd2)" style="fill: #f29888"/>
    <path d="M 210.249121 117.437627 
L 211.426807 119.082727 
L 212.269614 118.48069 
L 214.248949 121.24866 
L 213.382756 121.867497 
L 214.471577 123.390791 
L 213.149838 124.335848 
L 211.766362 122.40093 
L 212.427699 121.927701 
L 210.931038 119.835973 
L 210.281861 120.300802 
L 208.916157 118.391085 
L 210.249121 117.437627 
" clip-path="url(#pd521a99dd2)" style="fill: #f29888"/>
    <path d="M 225.630124 117.81005 
L 226.975249 119.490152 
L 225.935069 120.321803 
L 224.589945 118.6417 
L 225.630124 117.81005 
" clip-path="url(#pd521a99dd2)" style="fill: #f29888"/>
    <path d="M 168.641931 129.615571 
L 167.811284 130.312814 
L 165.767405 127.875265 
L 166.598053 127.179422 
L 168.641931 129.615571 
" clip-path="url(#pd521a99dd2)" style="fill: #f29888"/>
    <path d="M 155.390864 128.281289 
L 154.187922 126.991811 
L 155.653715 125.625327 
L 159.28499 129.517565 
L 157.793941 130.90785 
L 156.500264 129.521765 
L 156.745343 129.293551 
L 155.609751 128.076877 
L 155.390864 128.281289 
" clip-path="url(#pd521a99dd2)" style="fill: #f29888"/>
    <path d="M 144.18274 126.722994 
L 142.628083 127.747857 
L 141.00327 125.285106 
L 142.557927 124.260244 
L 144.18274 126.722994 
" clip-path="url(#pd521a99dd2)" style="fill: #f29888"/>
    <path d="M 139.936899 123.735212 
L 139.037966 125.278106 
L 134.451634 122.606743 
L 135.351502 121.063848 
L 139.936899 123.735212 
" clip-path="url(#pd521a99dd2)" style="fill: #f29888"/>
    <path d="M 154.141152 124.180439 
L 152.658521 125.535722 
L 149.041278 121.58048 
L 150.524843 120.225197 
L 154.141152 124.180439 
" clip-path="url(#pd521a99dd2)" style="fill: #f29888"/>
    <path d="M 176.520918 123.595203 
L 175.149602 124.750274 
L 172.480868 121.58188 
L 173.852184 120.42821 
L 176.520918 123.595203 
" clip-path="url(#pd521a99dd2)" style="fill: #f29888"/>
    <path d="M 175.652855 120.226597 
L 177.635931 118.79991 
L 178.44787 119.928379 
L 176.464794 121.353666 
L 175.652855 120.226597 
" clip-path="url(#pd521a99dd2)" style="fill: #f29888"/>
    <path d="M 130.817553 120.43521 
L 129.989712 121.828295 
L 125.796254 119.338943 
L 126.624094 117.945858 
L 130.817553 120.43521 
" clip-path="url(#pd521a99dd2)" style="fill: #f29888"/>
    <path d="M 144.549422 120.355405 
L 143.512049 121.388668 
L 137.510436 115.3627 
L 138.548745 114.330837 
L 144.549422 120.355405 
" clip-path="url(#pd521a99dd2)" style="fill: #f29888"/>
    <path d="M 136.189632 114.042419 
L 137.306516 115.151287 
L 133.611633 118.871314 
L 132.494749 117.762447 
L 136.189632 114.042419 
" clip-path="url(#pd521a99dd2)" style="fill: #f29888"/>
    <path d="M 220.635952 120.197195 
L 219.502231 121.062448 
L 216.685701 117.376023 
L 217.818487 116.51077 
L 220.635952 120.197195 
" clip-path="url(#pd521a99dd2)" style="fill: #f29888"/>
    <path d="M 222.572258 113.718999 
L 223.936091 115.578313 
L 222.965132 116.260155 
L 221.58072 114.483446 
L 222.572258 113.718999 
" clip-path="url(#pd521a99dd2)" style="fill: #f29888"/>
    <path d="M 216.929844 115.380901 
L 215.647392 116.332959 
L 214.090864 114.239831 
L 215.372381 113.287773 
L 216.929844 115.380901 
" clip-path="url(#pd521a99dd2)" style="fill: #f29888"/>
    <path d="M 218.834346 108.862103 
L 220.503123 110.753618 
L 219.596708 111.553067 
L 217.92793 109.661552 
L 218.834346 108.862103 
" clip-path="url(#pd521a99dd2)" style="fill: #f29888"/>
    <path d="M 203.926662 109.462739 
L 208.329653 108.283867 
L 208.728139 109.770758 
L 204.325148 110.94963 
L 203.926662 109.462739 
" clip-path="url(#pd521a99dd2)" style="fill: #f29888"/>
    <path d="M 180.274733 115.121885 
L 181.256917 116.419765 
L 180.850012 116.727783 
L 181.17273 117.154809 
L 181.713399 116.744584 
L 182.945338 118.371484 
L 182.38409 118.79711 
L 182.699324 119.212935 
L 183.303601 118.756507 
L 184.957412 120.939241 
L 183.189481 122.276322 
L 181.379456 123.647006 
L 180.531971 122.526938 
L 182.378477 121.131052 
L 178.720075 116.297957 
L 180.274733 115.121885 
" clip-path="url(#pd521a99dd2)" style="fill: #f29888"/>
    <path d="M 188.360446 117.468429 
L 192.422012 115.294096 
L 192.991678 116.356761 
L 188.930113 118.531094 
L 188.360446 117.468429 
" clip-path="url(#pd521a99dd2)" style="fill: #f29888"/>
    <path d="M 197.737031 117.82405 
L 199.673337 116.822989 
L 199.252401 116.009539 
L 201.380466 114.909072 
L 202.355167 116.790787 
L 198.290796 118.893716 
L 197.737031 117.82405 
" clip-path="url(#pd521a99dd2)" style="fill: #f29888"/>
    <path d="M 194.262905 114.321036 
L 198.299214 112.146703 
L 198.888525 113.24017 
L 194.852216 115.414503 
L 194.262905 114.321036 
" clip-path="url(#pd521a99dd2)" style="fill: #f29888"/>
    <path d="M 186.749665 114.336437 
L 185.714162 115.347299 
L 182.412152 111.967492 
L 183.447655 110.956631 
L 186.749665 114.336437 
" clip-path="url(#pd521a99dd2)" style="fill: #f29888"/>
    <path d="M 194.511725 109.912167 
L 193.585666 111.10224 
L 189.916974 108.246065 
L 190.843034 107.057392 
L 194.511725 109.912167 
" clip-path="url(#pd521a99dd2)" style="fill: #f29888"/>
    <path d="M 199.846388 106.780175 
L 201.890267 108.377673 
L 200.944564 109.587347 
L 198.900685 107.988449 
L 199.846388 106.780175 
" clip-path="url(#pd521a99dd2)" style="fill: #f29888"/>
    <path d="M 185.140753 106.176739 
L 182.18017 108.404275 
L 181.225113 107.135797 
L 184.186632 104.908261 
L 185.140753 106.176739 
" clip-path="url(#pd521a99dd2)" style="fill: #f29888"/>
    <path d="M 189.899202 106.297146 
L 188.901115 107.66643 
L 186.778662 106.120735 
L 187.776748 104.751451 
L 189.899202 106.297146 
" clip-path="url(#pd521a99dd2)" style="fill: #f29888"/>
    <path d="M 198.691153 105.762313 
L 197.835249 106.843179 
L 194.192749 103.961803 
L 195.048653 102.880937 
L 198.691153 105.762313 
" clip-path="url(#pd521a99dd2)" style="fill: #f29888"/>
    <path d="M 143.370801 115.142887 
L 144.617707 113.972415 
L 147.841142 117.404025 
L 146.594236 118.574496 
L 143.370801 115.142887 
" clip-path="url(#pd521a99dd2)" style="fill: #f29888"/>
    <path d="M 162.590741 111.117641 
L 164.172526 106.907583 
L 166.518542 107.788237 
L 164.971369 111.910089 
L 168.753245 113.329776 
L 167.811284 115.837329 
L 164.06963 114.433043 
L 161.87515 120.277 
L 159.462719 119.371145 
L 161.660005 113.522988 
L 157.310333 111.890488 
L 158.216748 109.47674 
L 162.590741 111.117641 
" clip-path="url(#pd521a99dd2)" style="fill: #f29888"/>
    <path d="M 176.678068 112.192906 
L 174.176772 114.694859 
L 173.185234 113.703599 
L 175.68653 111.203046 
L 176.678068 112.192906 
" clip-path="url(#pd521a99dd2)" style="fill: #f29888"/>
    <path d="M 142.636502 112.103301 
L 141.4663 113.263972 
L 138.085715 109.858964 
L 139.255918 108.696893 
L 142.636502 112.103301 
" clip-path="url(#pd521a99dd2)" style="fill: #f29888"/>
    <path d="M 160.756396 105.746912 
L 159.626416 108.670291 
L 157.894966 108.00105 
L 159.024945 105.077671 
L 160.756396 105.746912 
" clip-path="url(#pd521a99dd2)" style="fill: #f29888"/>
    <path d="M 180.306537 103.485774 
L 177.345018 105.686709 
L 176.376865 104.384629 
L 179.338384 102.183695 
L 180.306537 103.485774 
" clip-path="url(#pd521a99dd2)" style="fill: #f29888"/>
    <path d="M 171.345276 101.94848 
L 170.814896 103.074149 
L 167.250971 101.396846 
L 167.781351 100.271178 
L 171.345276 101.94848 
" clip-path="url(#pd521a99dd2)" style="fill: #f29888"/>
    <path d="M 178.001678 98.882293 
L 177.286087 100.240376 
L 173.853119 98.432865 
L 174.568711 97.074782 
L 178.001678 98.882293 
" clip-path="url(#pd521a99dd2)" style="fill: #f29888"/>
    <path d="M 164.617782 97.961037 
L 167.291194 95.39328 
L 168.252799 96.394341 
L 165.579387 98.962098 
L 164.617782 97.961037 
" clip-path="url(#pd521a99dd2)" style="fill: #f29888"/>
    <path d="M 170.852313 95.152465 
L 173.105724 96.278134 
L 172.419131 97.651618 
L 170.16572 96.524549 
L 170.852313 95.152465 
" clip-path="url(#pd521a99dd2)" style="fill: #f29888"/>
    <path d="M 204.902298 104.138214 
L 204.038911 105.310086 
L 200.37022 102.612121 
L 201.232671 101.438849 
L 204.902298 104.138214 
" clip-path="url(#pd521a99dd2)" style="fill: #f29888"/>
    <path d="M 190.969315 99.600537 
L 194.927049 97.451405 
L 195.598676 98.689081 
L 191.640941 100.836812 
L 190.969315 99.600537 
" clip-path="url(#pd521a99dd2)" style="fill: #f29888"/>
    <path d="M 187.476481 96.012117 
L 190.77849 94.204607 
L 191.483792 95.492686 
L 188.181783 97.300196 
L 187.476481 96.012117 
" clip-path="url(#pd521a99dd2)" style="fill: #f29888"/>
    <path d="M 182.233488 94.654034 
L 181.536605 95.936513 
L 177.578871 93.788782 
L 178.275754 92.506303 
L 182.233488 94.654034 
" clip-path="url(#pd521a99dd2)" style="fill: #f29888"/>
    <path d="M 186.845077 91.352633 
L 186.078038 92.586108 
L 182.749837 90.516782 
L 183.516876 89.283306 
L 186.845077 91.352633 
" clip-path="url(#pd521a99dd2)" style="fill: #f29888"/>
    <path d="M 159.852786 95.811905 
L 162.604773 93.27075 
L 163.456934 94.193406 
L 160.704948 96.734562 
L 159.852786 95.811905 
" clip-path="url(#pd521a99dd2)" style="fill: #f29888"/>
    <path d="M 175.523768 91.510842 
L 174.797887 92.915128 
L 172.465901 91.709654 
L 173.191782 90.305369 
L 175.523768 91.510842 
" clip-path="url(#pd521a99dd2)" style="fill: #f29888"/>
    <path d="M 174.593031 88.898283 
L 177.502167 86.410331 
L 178.459095 87.528999 
L 175.550895 90.016951 
L 174.593031 88.898283 
" clip-path="url(#pd521a99dd2)" style="fill: #f29888"/>
    <path d="M 162.742278 86.445333 
L 166.541928 87.020768 
L 166.325847 88.444655 
L 162.525262 87.86922 
L 162.742278 86.445333 
" clip-path="url(#pd521a99dd2)" style="fill: #f29888"/>
    <path d="M 169.318235 86.663746 
L 172.174988 84.306002 
L 173.191782 85.536677 
L 170.335029 87.894421 
L 169.318235 86.663746 
" clip-path="url(#pd521a99dd2)" style="fill: #f29888"/>
   </g>
   <g id="LineCollection_1">
    <path d="M 481.13363 712.696604 
L 479.70806 717.228681 
L 480.057569 720.348052 
" clip-path="url(#pd521a99dd2)" style="fill: none; stroke: #f29888; stroke-width: 0.2"/>
    <path d="M 492.794494 583.418303 
L 483.610605 583.642317 
L 480.967127 585.703243 
L 474.741015 604.212374 
L 473.051658 610.865581 
L 472.035799 615.751879 
L 471.055486 620.698382 
L 470.17152 630.928807 
L 468.955483 634.928851 
L 468.647732 635.941113 
L 468.181896 637.69542 
L 467.482206 639.900555 
L 464.712447 643.245359 
L 464.001533 645.072471 
L 463.523537 647.094195 
L 464.135297 649.114518 
L 465.426168 651.073238 
L 468.299758 654.469845 
L 472.153661 657.863653 
L 475.012285 659.916178 
L 479.288995 662.863358 
L 482.360893 665.778336 
L 487.683395 671.832306 
L 488.538363 673.891832 
L 488.84892 675.408125 
L 489.077161 676.522593 
L 489.108965 678.962942 
L 489.045357 680.515637 
L 488.158585 688.787343 
L 487.176401 692.84339 
L 481.13363 712.696604 
" clip-path="url(#pd521a99dd2)" style="fill: none; stroke: #f29888; stroke-width: 0.2"/>
    <path d="M 468.955483 634.928851 
L 473.707383 637.272594 
L 483.143834 638.846291 
L 488.822729 642.167294 
L 494.238773 648.897505 
L 502.189787 653.967215 
L 509.091267 656.326359 
L 517.828029 658.511892 
L 529.972502 659.648762 
L 536.525073 659.473751 
L 542.167487 659.29594 
" clip-path="url(#pd521a99dd2)" style="fill: none; stroke: #f29888; stroke-width: 0.2"/>
    <path d="M 439.291296 613.185785 
L 441.301855 615.130241 
L 445.320391 623.957781 
L 448.203335 629.901144 
L 452.484723 634.534027 
L 460.696717 640.914217 
L 464.001533 645.072471 
" clip-path="url(#pd521a99dd2)" style="fill: none; stroke: #f29888; stroke-width: 0.2"/>
    <path d="M 490.069635 605.886876 
L 491.280995 599.470284 
L 491.138813 597.046736 
L 494.842114 583.20689 
" clip-path="url(#pd521a99dd2)" style="fill: none; stroke: #f29888; stroke-width: 0.2"/>
    <path d="M 483.610605 583.642317 
L 481.453542 581.88661 
" clip-path="url(#pd521a99dd2)" style="fill: none; stroke: #f29888; stroke-width: 0.2"/>
    <path d="M 438.925905 591.922423 
L 449.301511 572.443033 
L 457.907314 557.315108 
" clip-path="url(#pd521a99dd2)" style="fill: none; stroke: #f29888; stroke-width: 0.2"/>
    <path d="M 485.452434 560.886726 
L 483.490872 561.182144 
L 464.19797 559.696654 
L 457.907314 557.315108 
" clip-path="url(#pd521a99dd2)" style="fill: none; stroke: #f29888; stroke-width: 0.2"/>
    <path d="M 501.412458 478.889315 
L 499.559404 488.815922 
L 496.773743 502.68937 
L 494.552136 513.254416 
L 492.288436 524.746318 
L 489.083709 539.632028 
L 485.452434 560.886726 
L 485.084817 563.877309 
L 481.826772 578.95063 
L 481.453542 581.88661 
L 480.967127 585.703243 
" clip-path="url(#pd521a99dd2)" style="fill: none; stroke: #f29888; stroke-width: 0.2"/>
    <path d="M 471.944568 491.291333 
L 476.98133 489.041336 
L 487.906024 483.5446 
L 501.412458 478.889315 
" clip-path="url(#pd521a99dd2)" style="fill: none; stroke: #f29888; stroke-width: 0.2"/>
    <path d="M 369.004555 317.985887 
L 376.097925 322.502558 
L 383.719674 326.61321 
" clip-path="url(#pd521a99dd2)" style="fill: none; stroke: #f29888; stroke-width: 0.2"/>
    <path d="M 41.828607 182.72324 
L 67.718303 158.084911 
L 69.174742 156.872437 
" clip-path="url(#pd521a99dd2)" style="fill: none; stroke: #f29888; stroke-width: 0.5"/>
    <path d="M 53.250264 191.77657 
L 52.170751 193.597865 
" clip-path="url(#pd521a99dd2)" style="fill: none; stroke: #f29888; stroke-width: 0.2"/>
    <path d="M 229.080865 151.920334 
L 226.661885 162.16476 
L 225.561839 168.54075 
L 225.307407 171.781948 
L 225.08852 174.577919 
L 225.203576 181.106518 
L 225.203576 182.78242 
L 225.832174 183.619671 
L 226.511097 184.128691 
" clip-path="url(#pd521a99dd2)" style="fill: none; stroke: #f29888; stroke-width: 0.2"/>
    <path d="M 464.736031 686.092576 
L 467.916238 685.107918 
L 473.682127 682.843979 
L 482.755637 678.92374 
L 488.84892 675.408125 
" clip-path="url(#pd521a99dd2)" style="fill: none; stroke: #f29888; stroke-width: 0.2"/>
    <path d="M 436.319908 583.883824 
L 436.677171 584.356361 
L 437.75009 587.065526 
L 438.925905 591.922423 
" clip-path="url(#pd521a99dd2)" style="fill: none; stroke: #f29888; stroke-width: 0.2"/>
    <path d="M 444.805199 568.405834 
L 449.301511 572.443033 
" clip-path="url(#pd521a99dd2)" style="fill: none; stroke: #f29888; stroke-width: 0.2"/>
    <path d="M 420.173671 460.126769 
L 416.595715 466.922784 
L 416.016092 467.796555 
" clip-path="url(#pd521a99dd2)" style="fill: none; stroke: #f29888; stroke-width: 0.2"/>
    <path d="M 421.474831 458.138647 
L 420.173671 460.126769 
" clip-path="url(#pd521a99dd2)" style="fill: none; stroke: #f29888; stroke-width: 0.2"/>
    <path d="M 434.706255 434.096378 
L 436.057927 435.723278 
L 437.641582 436.847546 
L 437.372183 438.352638 
L 436.691202 438.922473 
L 433.328391 438.618654 
" clip-path="url(#pd521a99dd2)" style="fill: none; stroke: #f29888; stroke-width: 0.2"/>
    <path d="M 446.789926 393.943324 
L 432.446296 406.416687 
L 418.470284 418.799043 
L 417.489035 420.978976 
L 417.281373 422.527471 
L 418.263557 423.849152 
L 433.098279 436.850346 
" clip-path="url(#pd521a99dd2)" style="fill: none; stroke: #f29888; stroke-width: 0.2"/>
    <path d="M 362.429664 403.125085 
L 364.296749 404.915795 
L 367.824193 410.094711 
L 370.319876 412.425854 
L 372.609768 415.066415 
" clip-path="url(#pd521a99dd2)" style="fill: none; stroke: #f29888; stroke-width: 0.2"/>
    <path d="M 522.568704 481.935902 
L 506.599326 478.6429 
L 501.412458 478.889315 
L 496.990759 478.018462 
L 483.314079 476.770986 
L 476.871887 476.121346 
L 471.396912 475.389102 
L 469.508312 476.383162 
L 467.777797 478.46649 
L 466.628174 481.291862 
L 464.298059 482.911761 
L 461.611552 484.324448 
" clip-path="url(#pd521a99dd2)" style="fill: none; stroke: #f29888; stroke-width: 0.2"/>
    <path d="M 467.605681 463.771192 
L 467.260513 464.615443 
L 467.863855 465.735512 
L 470.137845 466.648367 
L 471.343593 470.990033 
L 471.396912 475.389102 
" clip-path="url(#pd521a99dd2)" style="fill: none; stroke: #f29888; stroke-width: 0.2"/>
    <path d="M 442.1166 444.122391 
L 433.328391 438.618654 
" clip-path="url(#pd521a99dd2)" style="fill: none; stroke: #f29888; stroke-width: 0.2"/>
    <path d="M 456.560319 427.527177 
L 448.937635 436.526927 
L 442.1166 444.122391 
L 435.984965 454.449422 
" clip-path="url(#pd521a99dd2)" style="fill: none; stroke: #f29888; stroke-width: 0.2"/>
    <path d="M 456.560319 427.527177 
L 457.713684 428.322425 
L 482.329089 430.969987 
L 507.003425 432.790098 
L 510.900357 431.775036 
L 514.85435 431.332609 
" clip-path="url(#pd521a99dd2)" style="fill: none; stroke: #f29888; stroke-width: 0.2"/>
    <path d="M 459.944645 396.182061 
L 439.395482 427.864597 
L 434.706255 434.096378 
L 433.098279 436.850346 
L 433.328391 438.618654 
L 428.806602 446.530538 
L 421.474831 458.138647 
" clip-path="url(#pd521a99dd2)" style="fill: none; stroke: #f29888; stroke-width: 0.2"/>
    <path d="M 473.366892 401.792204 
L 474.065646 404.313758 
L 467.685191 413.940746 
L 456.560319 427.527177 
" clip-path="url(#pd521a99dd2)" style="fill: none; stroke: #f29888; stroke-width: 0.2"/>
    <path d="M 510.81617 403.833529 
L 483.125126 402.476846 
L 473.366892 401.792204 
" clip-path="url(#pd521a99dd2)" style="fill: none; stroke: #f29888; stroke-width: 0.2"/>
    <path d="M 500.553749 351.680342 
L 501.695889 353.706265 
L 485.6021 379.829062 
L 477.872779 392.107812 
L 473.366892 401.792204 
" clip-path="url(#pd521a99dd2)" style="fill: none; stroke: #f29888; stroke-width: 0.2"/>
    <path d="M 420.62267 357.280684 
L 423.227796 360.729095 
L 425.795506 366.892271 
L 431.921529 378.337971 
L 439.23272 387.281717 
L 444.96774 392.852658 
L 446.789926 393.943324 
L 457.130921 394.564962 
" clip-path="url(#pd521a99dd2)" style="fill: none; stroke: #f29888; stroke-width: 0.2"/>
    <path d="M 464.468304 357.776314 
L 455.335863 364.185906 
L 447.225828 371.392146 
L 443.812505 373.696687 
L 437.773475 376.03063 
L 431.921529 378.337971 
L 426.162188 382.275011 
L 419.598392 390.851935 
L 414.959677 397.708154 
L 400.684332 418.41542 
L 399.157737 420.932774 
L 398.786378 422.685681 
L 399.756402 424.130569 
L 406.398773 429.205879 
L 428.806602 446.530538 
" clip-path="url(#pd521a99dd2)" style="fill: none; stroke: #f29888; stroke-width: 0.2"/>
    <path d="M 369.937292 393.689909 
L 371.875469 394.867381 
L 373.479703 399.039636 
" clip-path="url(#pd521a99dd2)" style="fill: none; stroke: #f29888; stroke-width: 0.2"/>
    <path d="M 394.752876 397.288129 
L 396.679827 392.784053 
L 398.407536 390.375906 
L 399.512259 387.259316 
L 401.183843 383.519687 
L 401.268966 381.847985 
L 399.908874 380.771319 
" clip-path="url(#pd521a99dd2)" style="fill: none; stroke: #f29888; stroke-width: 0.2"/>
    <path d="M 381.778691 363.886287 
L 386.113397 367.427104 
L 388.050638 368.390363 
L 389.79612 369.411025 
L 397.50112 377.796138 
L 399.908874 380.771319 
" clip-path="url(#pd521a99dd2)" style="fill: none; stroke: #f29888; stroke-width: 0.2"/>
    <path d="M 400.961215 335.197134 
L 399.658184 341.101295 
L 400.298942 345.308552 
L 400.179209 348.553951 
L 399.269052 351.846952 
L 397.654528 357.087472 
L 395.331896 360.345471 
L 392.073851 361.875765 
L 389.014114 366.067621 
L 388.050638 368.390363 
L 384.271568 374.736951 
L 380.503723 380.998133 
L 377.38786 383.292873 
L 374.696676 384.425543 
L 372.316984 387.400724 
L 370.305845 391.848796 
L 369.937292 393.689909 
L 363.988063 401.169166 
L 362.429664 403.125085 
L 360.135095 406.070865 
L 358.661819 409.300863 
" clip-path="url(#pd521a99dd2)" style="fill: none; stroke: #f29888; stroke-width: 0.2"/>
    <path d="M 424.821741 359.618827 
L 423.227796 360.729095 
" clip-path="url(#pd521a99dd2)" style="fill: none; stroke: #f29888; stroke-width: 0.2"/>
    <path d="M 425.979783 358.810977 
L 424.821741 359.618827 
" clip-path="url(#pd521a99dd2)" style="fill: none; stroke: #f29888; stroke-width: 0.2"/>
    <path d="M 428.913239 356.766852 
L 435.031779 355.946402 
L 438.084033 354.126291 
" clip-path="url(#pd521a99dd2)" style="fill: none; stroke: #f29888; stroke-width: 0.2"/>
    <path d="M 432.765272 350.053442 
L 432.728791 352.915217 
L 428.913239 356.766852 
L 425.979783 358.810977 
" clip-path="url(#pd521a99dd2)" style="fill: none; stroke: #f29888; stroke-width: 0.2"/>
    <path d="M 372.203799 342.355772 
L 376.849062 343.319031 
L 381.580383 351.902955 
L 383.535398 355.302363 
L 387.699858 359.127397 
L 392.073851 361.875765 
" clip-path="url(#pd521a99dd2)" style="fill: none; stroke: #f29888; stroke-width: 0.2"/>
    <path d="M 383.719674 326.61321 
L 387.277051 328.384318 
L 400.961215 335.197134 
L 418.532021 342.424376 
L 432.765272 350.053442 
L 438.084033 354.126291 
" clip-path="url(#pd521a99dd2)" style="fill: none; stroke: #f29888; stroke-width: 0.2"/>
    <path d="M 409.688622 286.999189 
L 408.97116 294.894271 
L 407.157393 299.352144 
L 405.495164 301.165255 
L 400.471058 301.165255 
L 399.157737 301.921301 
L 397.977246 302.601742 
L 396.768692 305.396313 
L 396.012877 309.891988 
L 394.728555 312.87697 
L 392.877372 316.351983 
L 390.308726 320.847657 
L 387.814914 325.494541 
L 387.277051 328.384318 
" clip-path="url(#pd521a99dd2)" style="fill: none; stroke: #f29888; stroke-width: 0.2"/>
    <path d="M 392.348863 290.314591 
L 397.909896 298.216674 
L 399.157737 301.921301 
" clip-path="url(#pd521a99dd2)" style="fill: none; stroke: #f29888; stroke-width: 0.2"/>
    <path d="M 382.6012 278.559188 
L 387.180704 285.947725 
L 392.348863 290.314591 
L 401.843309 295.762324 
L 403.366163 298.045864 
L 402.187542 299.94438 
L 400.471058 301.165255 
" clip-path="url(#pd521a99dd2)" style="fill: none; stroke: #f29888; stroke-width: 0.2"/>
    <path d="M 414.211346 154.520293 
L 415.939055 157.485674 
L 423.22499 162.254366 
L 428.03208 168.074521 
L 428.633551 169.425604 
L 427.91983 170.852291 
L 425.553234 173.105029 
L 423.075324 176.447033 
L 422.587038 178.925184 
L 424.689848 186.096423 
L 429.684955 209.640261 
L 430.623175 213.906322 
L 441.17651 261.871853 
L 446.397052 286.055531 
L 447.073356 291.200846 
L 447.110772 296.232753 
L 446.386762 306.199962 
L 445.238075 309.481763 
L 444.937807 317.850074 
L 444.663731 321.487496 
L 443.806892 325.551945 
" clip-path="url(#pd521a99dd2)" style="fill: none; stroke: #f29888; stroke-width: 0.2"/>
    <path d="M 416.013888 208.786209 
L 416.374022 229.006245 
L 416.035402 235.417237 
L 415.258074 236.990933 
L 413.486401 237.608371 
L 402.002373 235.392611 
" clip-path="url(#pd521a99dd2)" style="fill: none; stroke: #f29888; stroke-width: 0.2"/>
    <path d="M 429.684955 209.640261 
L 423.528064 208.549595 
L 416.013888 208.786209 
" clip-path="url(#pd521a99dd2)" style="fill: none; stroke: #f29888; stroke-width: 0.2"/>
    <path d="M 416.013888 208.786209 
L 413.469563 204.893971 
L 410.709158 202.810644 
L 409.920605 197.572924 
L 408.962741 190.30788 
L 406.822515 186.253232 
L 404.598102 184.169905 
L 401.302641 181.551745 
L 396.796754 178.876181 
L 387.559546 174.484113 
" clip-path="url(#pd521a99dd2)" style="fill: none; stroke: #f29888; stroke-width: 0.2"/>
    <path d="M 415.685558 153.293818 
L 414.211346 154.520293 
L 406.287459 158.199718 
L 400.240946 160.03943 
L 388.22369 163.230225 
L 387.021683 164.094078 
L 386.157361 166.722039 
L 387.559546 174.484113 
" clip-path="url(#pd521a99dd2)" style="fill: none; stroke: #f29888; stroke-width: 0.2"/>
    <path d="M 404.199616 146.860425 
L 404.31093 143.294407 
L 401.438275 141.751513 
L 398.464596 143.640228 
" clip-path="url(#pd521a99dd2)" style="fill: none; stroke: #f29888; stroke-width: 0.2"/>
    <path d="M 367.893414 135.990161 
L 371.383441 135.052103 
" clip-path="url(#pd521a99dd2)" style="fill: none; stroke: #f29888; stroke-width: 0.5"/>
    <path d="M 230.467179 181.653336 
L 227.40741 177.065871 
L 225.307407 171.781948 
" clip-path="url(#pd521a99dd2)" style="fill: none; stroke: #f29888; stroke-width: 0.2"/>
    <path d="M 53.250264 191.77657 
L 83.687682 160.088433 
" clip-path="url(#pd521a99dd2)" style="fill: none; stroke: #f29888; stroke-width: 0.2"/>
    <path d="M 139.945317 156.488813 
L 148.259272 174.813133 
L 151.190858 176.217419 
L 157.358039 175.363367 
L 165.724376 171.699343 
L 169.632534 166.632433 
L 196.622953 182.750218 
L 205.72172 182.628411 
" clip-path="url(#pd521a99dd2)" style="fill: none; stroke: #f29888; stroke-width: 0.2"/>
    <path d="M 239.492016 158.852158 
L 243.453492 161.66913 
L 247.740492 163.853263 
L 250.242016 164.926663 
" clip-path="url(#pd521a99dd2)" style="fill: none; stroke: #f29888; stroke-width: 0.5"/>
    <path d="M 165.665445 147.032635 
L 161.249359 146.831023 
L 157.034386 148.285712 
L 139.945317 156.488813 
L 127.682047 162.376173 
L 124.116251 164.088478 
L 117.592678 167.650295 
" clip-path="url(#pd521a99dd2)" style="fill: none; stroke: #f29888; stroke-width: 0.2"/>
    <path d="M 290.667615 157.677679 
L 291.44675 157.230859 
L 292.89477 156.705826 
L 319.326748 149.113162 
L 367.893414 135.990161 
" clip-path="url(#pd521a99dd2)" style="fill: none; stroke: #f29888; stroke-width: 0.5"/>
    <path d="M 225.391594 148.600731 
L 219.452654 155.701965 
L 214.91777 160.578463 
L 214.150731 160.785676 
L 212.944983 160.602265 
L 204.949069 158.362128 
L 191.893503 154.562295 
L 165.665445 147.032635 
" clip-path="url(#pd521a99dd2)" style="fill: none; stroke: #f29888; stroke-width: 0.2"/>
    <path d="M 119.22778 143.958047 
L 127.682047 162.376173 
" clip-path="url(#pd521a99dd2)" style="fill: none; stroke: #f29888; stroke-width: 0.2"/>
    <path d="M 67.718303 158.084911 
L 64.736205 156.540616 
L 63.997642 156.28793 
" clip-path="url(#pd521a99dd2)" style="fill: none; stroke: #f29888; stroke-width: 0.2"/>
    <path d="M 196.004645 149.332976 
L 183.198835 140.190417 
" clip-path="url(#pd521a99dd2)" style="fill: none; stroke: #f29888; stroke-width: 0.2"/>
    <path d="M 100.008776 132.851169 
L 106.219921 140.267422 
L 110.012087 148.124702 
" clip-path="url(#pd521a99dd2)" style="fill: none; stroke: #f29888; stroke-width: 0.2"/>
    <path d="M 227.105271 125.548322 
L 214.741912 130.844846 
L 203.66194 139.592581 
L 196.004645 149.332976 
L 191.893503 154.562295 
" clip-path="url(#pd521a99dd2)" style="fill: none; stroke: #f29888; stroke-width: 0.2"/>
    <path d="M 196.155247 130.163004 
L 183.198835 140.190417 
L 176.703324 145.692753 
" clip-path="url(#pd521a99dd2)" style="fill: none; stroke: #f29888; stroke-width: 0.2"/>
    <path d="M 69.174742 156.872437 
L 83.687682 160.088433 
L 86.906439 158.57074 
L 110.012087 148.124702 
L 119.22778 143.958047 
L 127.569797 140.186217 
L 141.230575 134.01044 
L 157.146635 132.064321 
L 161.10624 128.211285 
L 172.614632 116.906994 
L 178.939898 110.559006 
" clip-path="url(#pd521a99dd2)" style="fill: none; stroke: #f29888; stroke-width: 0.2"/>
    <path d="M 113.24207 123.05757 
L 127.569797 140.186217 
" clip-path="url(#pd521a99dd2)" style="fill: none; stroke: #f29888; stroke-width: 0.2"/>
    <path d="M 150.748407 95.302274 
L 174.491071 106.344749 
L 178.939898 110.559006 
L 188.498888 120.545817 
L 196.155247 130.163004 
L 203.66194 139.592581 
L 219.452654 155.701965 
" clip-path="url(#pd521a99dd2)" style="fill: none; stroke: #f29888; stroke-width: 0.2"/>
    <path d="M 168.659704 91.80766 
L 171.160064 92.566507 
L 184.934962 99.750346 
L 188.978755 102.465112 
L 202.531025 113.010556 
L 211.670014 125.661729 
L 214.741912 130.844846 
L 220.177599 139.694787 
L 225.391594 148.600731 
L 226.913512 150.254232 
L 229.080865 151.920334 
L 239.492016 158.852158 
" clip-path="url(#pd521a99dd2)" style="fill: none; stroke: #f29888; stroke-width: 0.5"/>
    <path d="M 69.174742 156.872437 
L 76.663662 150.126824 
L 100.008776 132.851169 
L 113.24207 123.05757 
L 138.700282 104.218019 
L 150.748407 95.302274 
L 155.114917 92.007873 
L 157.222404 90.716994 
L 158.819154 90.441177 
L 168.659704 91.80766 
" clip-path="url(#pd521a99dd2)" style="fill: none; stroke: #f29888; stroke-width: 0.5"/>
    <path d="M 239.492016 158.852158 
L 237.316245 156.063187 
L 235.719494 152.847191 
L 232.960024 143.694831 
L 228.40269 129.202546 
L 227.105271 125.548322 
L 220.330072 116.171949 
L 214.260174 108.500881 
L 212.380928 106.68357 
L 210.543776 105.21208 
L 203.365414 100.117168 
L 195.737117 94.670835 
L 189.594257 90.733795 
L 185.418571 88.220641 
L 179.840701 85.24966 
L 177.884751 84.825434 
L 176.520918 85.25386 
L 175.079446 86.294124 
L 168.659704 91.80766 
" clip-path="url(#pd521a99dd2)" style="fill: none; stroke: #f29888; stroke-width: 0.5"/>
    <path d="M 138.700282 104.218019 
L 161.10624 128.211285 
" clip-path="url(#pd521a99dd2)" style="fill: none; stroke: #f29888; stroke-width: 0.2"/>
    <path d="M 188.498888 120.545817 
L 202.531025 113.010556 
L 214.260174 108.500881 
" clip-path="url(#pd521a99dd2)" style="fill: none; stroke: #f29888; stroke-width: 0.2"/>
    <path d="M 96.132422 63.098906 
L 101.924502 67.245959 
L 110.191686 71.523221 
L 145.667241 84.77083 
L 157.222404 90.716994 
" clip-path="url(#pd521a99dd2)" style="fill: none; stroke: #f29888; stroke-width: 0.2"/>
    <path d="M 96.132422 63.098906 
L 90.526782 59.225432 
" clip-path="url(#pd521a99dd2)" style="fill: none; stroke: #f29888; stroke-width: 0.2"/>
    <path d="M 569.446014 573.469295 
L 573.37475 573.469295 
L 577.238943 573.669508 
L 579.547544 574.473157 
L 582.103382 576.063668 
" clip-path="url(#pd521a99dd2)" style="fill: none; stroke: #f29888; stroke-width: 0.2"/>
    <path d="M 561.28451 592.378103 
L 555.209957 594.250765 
L 552.851779 594.250765 
L 551.446788 593.396713 
L 549.941708 591.589203 
L 547.983888 590.385129 
L 543.755819 590.446733 
" clip-path="url(#pd521a99dd2)" style="fill: none; stroke: #f29888; stroke-width: 0.2"/>
    <path d="M 573.764069 584.069372 
L 571.86967 582.102223 
L 570.665793 579.090639 
L 569.446014 573.469295 
" clip-path="url(#pd521a99dd2)" style="fill: none; stroke: #f29888; stroke-width: 0.2"/>
    <path d="M 597.847972 527.161465 
L 592.446895 525.465962 
L 573.471098 519.741012 
" clip-path="url(#pd521a99dd2)" style="fill: none; stroke: #f29888; stroke-width: 0.2"/>
    <path d="M 598.23804 518.633544 
L 601.582143 520.011228 
L 606.140412 519.659807 
L 609.151508 519.508598 
L 610.255296 520.261844 
L 611.359084 521.66753 
L 613.065278 522.069354 
L 614.528265 521.617127 
L 616.076374 521.768336 
" clip-path="url(#pd521a99dd2)" style="fill: none; stroke: #f29888; stroke-width: 0.2"/>
    <path d="M 492.716855 717.281884 
L 499.717489 722.992833 
L 508.443026 728.691181 
L 518.502885 734.591317 
" clip-path="url(#pd521a99dd2)" style="fill: none; stroke: #f29888; stroke-width: 0.2"/>
    <path d="M 481.13363 712.696604 
L 485.498269 714.882137 
L 492.716855 717.281884 
L 509.246546 723.534666 
L 518.182551 727.971537 
L 535.584982 732.677225 
L 549.157832 734.526738 
L 555.944256 734.56034 
" clip-path="url(#pd521a99dd2)" style="fill: none; stroke: #f29888; stroke-width: 0.2"/>
    <path d="M 549.486162 677.954881 
L 556.498956 676.292979 
" clip-path="url(#pd521a99dd2)" style="fill: none; stroke: #f29888; stroke-width: 0.2"/>
    <path d="M 542.167487 659.29594 
L 545.411501 661.547278 
L 547.199076 665.058692 
L 549.486162 677.954881 
L 552.298014 693.808049 
" clip-path="url(#pd521a99dd2)" style="fill: none; stroke: #f29888; stroke-width: 0.2"/>
    <path d="M 542.167487 659.29594 
L 544.15337 658.6337 
L 545.94188 656.977399 
L 548.067139 656.049142 
L 549.702242 655.820928 
L 550.805095 655.86013 
L 551.718058 656.277356 
L 552.59267 657.076805 
L 553.468217 658.941719 
L 556.498956 676.292979 
L 556.624302 677.012623 
" clip-path="url(#pd521a99dd2)" style="fill: none; stroke: #f29888; stroke-width: 0.2"/>
    <path d="M 537.063871 584.67138 
L 538.062893 586.425687 
" clip-path="url(#pd521a99dd2)" style="fill: none; stroke: #f29888; stroke-width: 0.2"/>
    <path d="M 522.553738 574.286945 
L 517.550211 583.652118 
" clip-path="url(#pd521a99dd2)" style="fill: none; stroke: #f29888; stroke-width: 0.2"/>
    <path d="M 500.572457 561.560168 
L 502.481636 562.932251 
L 513.492388 568.293179 
L 522.553738 574.286945 
L 528.448713 577.698954 
L 534.519547 579.555467 
L 537.063871 584.67138 
" clip-path="url(#pd521a99dd2)" style="fill: none; stroke: #f29888; stroke-width: 0.2"/>
    <path d="M 555.732853 490.508626 
L 549.301885 507.75908 
L 543.455551 535.146153 
L 534.519547 579.555467 
" clip-path="url(#pd521a99dd2)" style="fill: none; stroke: #f29888; stroke-width: 0.2"/>
    <path d="M 518.39676 445.784292 
L 522.18612 462.483113 
L 523.042959 469.427537 
L 522.921355 473.025757 
L 522.876455 475.804927 
L 522.786656 478.269078 
L 522.568704 481.935902 
L 521.714672 485.02169 
L 519.256405 494.251054 
L 505.894024 542.199784 
L 500.572457 561.560168 
L 499.939182 563.303274 
L 494.842114 583.20689 
L 492.794494 583.418303 
" clip-path="url(#pd521a99dd2)" style="fill: none; stroke: #f29888; stroke-width: 0.2"/>
    <path d="M 570.889357 518.352127 
L 569.555457 517.838296 
L 561.838296 512.635578 
L 549.301885 507.75908 
" clip-path="url(#pd521a99dd2)" style="fill: none; stroke: #f29888; stroke-width: 0.2"/>
    <path d="M 519.256405 494.251054 
L 522.627635 495.0015 
L 537.24347 501.773714 
L 549.301885 507.75908 
" clip-path="url(#pd521a99dd2)" style="fill: none; stroke: #f29888; stroke-width: 0.2"/>
    <path d="M 522.786656 478.269078 
L 544.356354 483.06157 
L 555.732853 490.508626 
" clip-path="url(#pd521a99dd2)" style="fill: none; stroke: #f29888; stroke-width: 0.2"/>
    <path d="M 544.356354 483.06157 
L 553.730132 465.479296 
L 556.407286 460.555195 
L 559.084439 447.857819 
" clip-path="url(#pd521a99dd2)" style="fill: none; stroke: #f29888; stroke-width: 0.2"/>
    <path d="M 517.232171 439.825528 
L 518.39676 445.784292 
" clip-path="url(#pd521a99dd2)" style="fill: none; stroke: #f29888; stroke-width: 0.2"/>
    <path d="M 514.85435 431.332609 
L 515.640097 432.790098 
L 517.232171 439.825528 
" clip-path="url(#pd521a99dd2)" style="fill: none; stroke: #f29888; stroke-width: 0.2"/>
    <path d="M 514.85435 431.332609 
L 520.170304 431.140797 
L 537.80846 429.348688 
L 573.724595 432.606687 
L 580.644784 430.68717 
" clip-path="url(#pd521a99dd2)" style="fill: none; stroke: #f29888; stroke-width: 0.2"/>
    <path d="M 512.777732 390.524315 
L 543.830652 390.308702 
L 567.983027 404.67218 
L 584.997262 410.804555 
" clip-path="url(#pd521a99dd2)" style="fill: none; stroke: #f29888; stroke-width: 0.2"/>
    <path d="M 538.062893 586.425687 
L 541.163788 590.515337 
L 543.755819 590.446733 
L 546.069096 589.174055 
L 551.199839 583.449105 
L 564.670728 574.652368 
L 566.497591 573.823517 
L 569.446014 573.469295 
L 571.807933 570.729328 
L 579.602733 559.545444 
L 583.281714 555.695209 
L 586.691296 553.233859 
L 590.199097 549.919856 
L 592.440347 546.313236 
L 595.70494 539.930246 
L 597.847972 527.161465 
L 598.23804 518.633544 
L 599.177195 493.455806 
L 600.866551 462.516715 
L 599.600002 461.533855 
L 594.398167 457.089983 
L 589.506891 446.993966 
L 580.644784 430.68717 
" clip-path="url(#pd521a99dd2)" style="fill: none; stroke: #f29888; stroke-width: 0.2"/>
    <path d="M 589.205687 364.720738 
L 587.501364 385.304796 
L 586.464926 403.095684 
L 584.997262 410.804555 
L 581.887948 420.453944 
L 580.644784 430.68717 
" clip-path="url(#pd521a99dd2)" style="fill: none; stroke: #f29888; stroke-width: 0.2"/>
    <path d="M 617.861143 403.294496 
L 618.495353 394.128136 
L 617.919139 387.383923 
L 619.705778 373.08765 
L 619.87883 369.111407 
" clip-path="url(#pd521a99dd2)" style="fill: none; stroke: #f29888; stroke-width: 0.2"/>
    <path d="M 637.22233 371.915778 
L 619.87883 369.111407 
L 604.921569 364.600331 
L 589.205687 364.720738 
L 555.852586 365.870209 
L 542.476173 359.160999 
L 533.876917 358.425954 
L 515.119072 356.824256 
" clip-path="url(#pd521a99dd2)" style="fill: none; stroke: #f29888; stroke-width: 0.2"/>
    <path d="M 637.22233 371.915778 
L 649.566982 374.491936 
L 661.613383 377.271419 
" clip-path="url(#pd521a99dd2)" style="fill: none; stroke: #f29888; stroke-width: 0.2"/>
    <path d="M 614.262607 329.853008 
L 608.821307 330.457845 
L 587.404081 326.658012 
L 572.550651 328.643334 
L 554.500913 333.221614 
L 539.890691 324.920506 
" clip-path="url(#pd521a99dd2)" style="fill: none; stroke: #f29888; stroke-width: 0.2"/>
    <path d="M 614.262607 329.853008 
L 627.831715 326.469001 
L 636.76959 323.157799 
L 643.987241 320.311425 
L 652.726808 317.067426 
L 653.523729 316.778508 
" clip-path="url(#pd521a99dd2)" style="fill: none; stroke: #f29888; stroke-width: 0.2"/>
    <path d="M 600.221116 195.786415 
L 600.792654 201.683575 
L 600.880583 215.369411 
L 602.33328 225.0076 
L 602.201386 229.541078 
L 602.266865 234.809599 
L 598.885346 241.790426 
L 588.183281 256.827345 
L 566.991489 281.880476 
L 555.966706 295.643317 
L 539.890691 324.920506 
" clip-path="url(#pd521a99dd2)" style="fill: none; stroke: #f29888; stroke-width: 0.2"/>
    <path d="M 568.451669 223.3597 
L 570.996929 223.627116 
L 588.687468 230.802555 
L 592.223331 231.70981 
L 600.106996 233.732934 
L 602.266865 234.809599 
" clip-path="url(#pd521a99dd2)" style="fill: none; stroke: #f29888; stroke-width: 0.2"/>
    <path d="M 600.880583 215.369411 
L 603.025486 216.462878 
L 612.238373 217.987571 
L 615.132542 219.916889 
L 623.847789 216.307469 
" clip-path="url(#pd521a99dd2)" style="fill: none; stroke: #f29888; stroke-width: 0.2"/>
    <path d="M 507.370107 342.378173 
L 512.007887 349.871431 
L 515.119072 356.824256 
L 512.777732 390.524315 
L 510.81617 403.833529 
L 508.682492 427.213557 
L 510.900357 431.775036 
" clip-path="url(#pd521a99dd2)" style="fill: none; stroke: #f29888; stroke-width: 0.2"/>
    <path d="M 535.052732 348.180128 
L 533.876917 358.425954 
L 533.208097 362.418998 
L 532.343775 383.169666 
" clip-path="url(#pd521a99dd2)" style="fill: none; stroke: #f29888; stroke-width: 0.2"/>
    <path d="M 539.890691 324.920506 
L 536.326765 328.133703 
L 533.035045 330.820467 
L 526.417931 334.448088 
L 519.633377 339.318986 
L 508.547792 340.997689 
L 507.370107 342.378173 
L 501.863328 348.824167 
L 500.553749 351.680342 
L 496.95989 353.45985 
L 492.995608 354.165493 
" clip-path="url(#pd521a99dd2)" style="fill: none; stroke: #f29888; stroke-width: 0.2"/>
    <path d="M 543.479872 264.775631 
L 526.079311 259.892132 
L 519.225537 264.907239 
L 511.219333 267.587003 
" clip-path="url(#pd521a99dd2)" style="fill: none; stroke: #f29888; stroke-width: 0.2"/>
    <path d="M 536.387567 243.929757 
L 531.635667 241.776425 
L 522.071064 240.002517 
L 520.882154 240.247532 
L 509.242804 238.293012 
L 491.728123 234.935607 
" clip-path="url(#pd521a99dd2)" style="fill: none; stroke: #f29888; stroke-width: 0.2"/>
    <path d="M 575.602905 155.591358 
L 576.001391 157.064248 
L 575.782504 163.216224 
L 575.602905 165.705576 
L 574.129629 172.459589 
L 571.933278 183.017634 
L 571.877153 186.923873 
L 571.080181 202.652434 
L 570.403877 205.958036 
L 568.451669 223.3597 
L 565.62485 228.047186 
L 543.479872 264.775631 
L 529.022122 285.324687 
L 526.951116 289.984171 
L 526.233654 296.277556 
L 524.880111 303.325587 
L 524.839888 313.680619 
" clip-path="url(#pd521a99dd2)" style="fill: none; stroke: #f29888; stroke-width: 0.2"/>
    <path d="M 544.72023 233.50612 
L 522.212312 230.113713 
L 498.315304 225.534033 
L 494.082559 224.817189 
L 490.947053 222.824867 
" clip-path="url(#pd521a99dd2)" style="fill: none; stroke: #f29888; stroke-width: 0.2"/>
    <path d="M 539.918753 222.162627 
L 543.485484 222.689059 
L 547.517116 222.004417 
L 550.33084 222.157026 
L 556.263232 223.601915 
L 565.62485 228.047186 
" clip-path="url(#pd521a99dd2)" style="fill: none; stroke: #f29888; stroke-width: 0.2"/>
    <path d="M 539.918753 222.162627 
L 528.389782 220.073699 
L 524.239353 219.663474 
" clip-path="url(#pd521a99dd2)" style="fill: none; stroke: #f29888; stroke-width: 0.2"/>
    <path d="M 519.89997 250.064932 
L 520.882154 240.247532 
L 522.212312 230.113713 
L 523.352581 224.160549 
L 524.239353 219.663474 
L 525.823008 209.150231 
L 527.216774 198.446577 
L 528.864037 187.742923 
L 531.193216 169.674819 
" clip-path="url(#pd521a99dd2)" style="fill: none; stroke: #f29888; stroke-width: 0.2"/>
    <path d="M 455.672612 314.872092 
L 455.698803 316.109768 
L 456.600542 320.364628 
L 457.899831 326.320592 
L 459.182283 332.202351 
L 461.201841 347.524888 
L 461.441306 349.941435 
L 461.892176 351.827351 
L 464.468304 357.776314 
L 467.629066 363.326253 
L 468.61125 365.212169 
L 468.850716 366.699059 
L 468.345593 368.001139 
L 458.088785 388.594997 
L 456.973772 391.330765 
L 456.840943 393.349688 
L 457.130921 394.564962 
L 459.944645 396.182061 
L 473.366892 401.792204 
" clip-path="url(#pd521a99dd2)" style="fill: none; stroke: #f29888; stroke-width: 0.2"/>
    <path d="M 500.56778 308.533905 
L 499.869962 310.58643 
L 490.978857 324.714694 
L 488.909722 326.564207 
L 488.24932 330.504047 
L 487.699297 331.649317 
L 486.114707 333.057804 
L 481.669622 335.367945 
" clip-path="url(#pd521a99dd2)" style="fill: none; stroke: #f29888; stroke-width: 0.2"/>
    <path d="M 469.210851 305.768736 
L 469.259492 308.435899 
L 467.371828 317.019823 
L 466.124922 319.941802 
L 467.086527 323.386012 
L 466.018284 324.258266 
L 459.302951 325.523943 
L 457.899831 326.320592 
" clip-path="url(#pd521a99dd2)" style="fill: none; stroke: #f29888; stroke-width: 0.2"/>
    <path d="M 447.110772 296.232753 
L 451.884187 304.916084 
L 455.672612 314.872092 
" clip-path="url(#pd521a99dd2)" style="fill: none; stroke: #f29888; stroke-width: 0.2"/>
    <path d="M 446.397052 286.055531 
L 454.547309 284.970465 
L 460.722909 284.526638 
L 472.303327 286.392952 
L 477.256342 288.16966 
L 481.976438 290.925029 
L 487.107181 297.448027 
L 491.572844 301.565679 
L 500.56778 308.533905 
L 505.16066 310.529027 
L 522.549061 313.633016 
L 524.839888 313.680619 
L 528.115706 319.080749 
L 539.890691 324.920506 
" clip-path="url(#pd521a99dd2)" style="fill: none; stroke: #f29888; stroke-width: 0.2"/>
    <path d="M 472.303327 286.392952 
L 471.480164 300.456811 
L 471.145286 302.261522 
L 469.959181 304.917484 
L 469.210851 305.768736 
L 467.096816 307.110018 
L 459.154221 311.107262 
L 457.632303 312.008917 
L 456.291855 313.504209 
L 455.672612 314.872092 
" clip-path="url(#pd521a99dd2)" style="fill: none; stroke: #f29888; stroke-width: 0.2"/>
    <path d="M 524.880111 303.325587 
L 521.898013 292.74374 
L 515.334217 286.52596 
L 514.643882 271.328031 
L 511.219333 267.587003 
L 505.201818 266.542539 
L 500.313348 264.789632 
L 495.452939 264.162393 
L 483.829492 260.467567 
L 477.894294 259.414703 
L 473.210678 259.911733 
" clip-path="url(#pd521a99dd2)" style="fill: none; stroke: #f29888; stroke-width: 0.2"/>
    <path d="M 441.17651 261.871853 
L 472.360388 256.158104 
" clip-path="url(#pd521a99dd2)" style="fill: none; stroke: #f29888; stroke-width: 0.2"/>
    <path d="M 456.738983 162.138158 
L 457.983083 169.477407 
L 464.835922 210.792532 
L 472.360388 256.158104 
L 473.210678 259.911733 
L 473.210678 262.426287 
L 471.616734 268.977288 
L 471.510097 270.8184 
L 472.303327 286.392952 
" clip-path="url(#pd521a99dd2)" style="fill: none; stroke: #f29888; stroke-width: 0.2"/>
    <path d="M 523.352581 224.160549 
L 521.48456 224.285156 
L 503.906271 217.951169 
L 502.606981 216.65329 
L 496.684879 214.372551 
L 492.250084 213.454094 
L 489.52616 211.205557 
" clip-path="url(#pd521a99dd2)" style="fill: none; stroke: #f29888; stroke-width: 0.2"/>
    <path d="M 593.882755 179.635028 
L 595.392512 182.28959 
L 600.745883 186.677458 
L 602.021787 187.922134 
L 600.684146 191.811572 
L 600.221116 195.786415 
" clip-path="url(#pd521a99dd2)" style="fill: none; stroke: #f29888; stroke-width: 0.2"/>
    <path d="M 592.223331 231.70981 
L 602.201386 229.541078 
L 609.934449 224.83119 
L 615.6835 223.02928 
L 620.165066 220.349516 
L 626.060042 219.667674 
L 627.253629 218.669413 
L 629.300314 217.013112 
L 632.491009 214.674969 
L 638.094136 208.733006 
L 644.548489 206.931096 
L 649.932728 206.905894 
L 653.926944 207.758546 
L 659.724636 208.245776 
L 669.249016 206.882093 
L 670.686747 203.496686 
L 671.953296 198.113357 
L 671.295701 195.971226 
L 672.87842 194.387729 
L 674.852143 190.393285 
L 676.143013 186.789465 
L 679.358029 180.407875 
L 681.343117 177.792533 
" clip-path="url(#pd521a99dd2)" style="fill: none; stroke: #f29888; stroke-width: 0.2"/>
    <path d="M 574.129629 172.459589 
L 581.910398 174.2671 
L 586.796062 177.743512 
L 593.882755 179.635028 
L 597.802137 180.046653 
L 603.064773 179.856241 
L 607.982242 180.921706 
L 610.388125 182.187384 
L 620.071525 184.036897 
L 621.696338 183.867486 
L 630.539737 186.569651 
L 637.974403 190.454889 
L 642.649599 193.778692 
L 644.396016 197.326509 
L 646.310808 197.945347 
" clip-path="url(#pd521a99dd2)" style="fill: none; stroke: #f29888; stroke-width: 0.2"/>
    <path d="M 638.619838 168.312536 
L 647.611032 171.090306 
L 652.308679 171.742745 
L 659.516975 176.797054 
L 663.496223 181.200323 
L 663.659921 184.069099 
L 662.322279 187.819928 
L 662.094039 189.515431 
L 661.506599 191.895577 
L 661.017378 198.842802 
L 660.878937 201.180944 
" clip-path="url(#pd521a99dd2)" style="fill: none; stroke: #f29888; stroke-width: 0.2"/>
    <path d="M 531.193216 169.674819 
L 546.074709 178.629766 
L 555.875036 181.163921 
L 559.593304 182.965831 
L 566.914785 184.0915 
L 571.877153 186.923873 
L 573.67876 186.897272 
L 585.827909 191.209535 
L 598.151982 194.774153 
L 600.221116 195.786415 
" clip-path="url(#pd521a99dd2)" style="fill: none; stroke: #f29888; stroke-width: 0.2"/>
    <path d="M 631.42838 165.59217 
L 632.341343 166.048597 
L 632.830564 166.701037 
L 632.683704 168.803966 
L 633.678984 169.422804 
" clip-path="url(#pd521a99dd2)" style="fill: none; stroke: #f29888; stroke-width: 0.2"/>
    <path d="M 614.690091 153.800649 
L 619.230588 156.200396 
L 633.253371 159.797215 
L 638.413112 161.83014 
L 639.988348 163.164421 
L 640.184785 164.145881 
L 638.619838 168.312536 
L 635.7846 171.401125 
L 634.004508 174.037486 
L 630.384458 175.830995 
L 627.415456 176.613643 
L 624.382846 176.287423 
L 620.041592 175.919201 
L 614.59655 175.146353 
L 610.879217 174.939141 
" clip-path="url(#pd521a99dd2)" style="fill: none; stroke: #f29888; stroke-width: 0.2"/>
    <path d="M 617.879851 164.325092 
L 620.76186 163.830862 
L 631.42838 165.59217 
" clip-path="url(#pd521a99dd2)" style="fill: none; stroke: #f29888; stroke-width: 0.2"/>
    <path d="M 609.385362 138.074888 
L 609.104738 147.493263 
L 608.332086 155.333743 
L 610.857702 157.708288 
L 614.734991 160.988688 
L 614.221449 164.070277 
L 610.879217 174.939141 
L 610.137434 177.953525 
L 607.982242 180.921706 
L 605.989811 183.819883 
L 602.021787 187.922134 
" clip-path="url(#pd521a99dd2)" style="fill: none; stroke: #f29888; stroke-width: 0.2"/>
    <path d="M 633.253371 159.797215 
L 631.42838 165.59217 
" clip-path="url(#pd521a99dd2)" style="fill: none; stroke: #f29888; stroke-width: 0.2"/>
    <path d="M 430.623175 213.906322 
L 447.760885 211.622783 
L 464.835922 210.792532 
L 477.899906 210.068688 
L 485.327089 210.240898 
L 488.471949 208.234575 
" clip-path="url(#pd521a99dd2)" style="fill: none; stroke: #f29888; stroke-width: 0.2"/>
    <path d="M 457.983083 169.477407 
L 463.198013 172.193573 
L 470.23887 174.727728 
L 495.247148 181.541944 
" clip-path="url(#pd521a99dd2)" style="fill: none; stroke: #f29888; stroke-width: 0.2"/>
    <path d="M 615.809781 157.445072 
L 614.734991 160.988688 
" clip-path="url(#pd521a99dd2)" style="fill: none; stroke: #f29888; stroke-width: 0.2"/>
    <path d="M 609.623367 135.220789 
L 609.385362 138.074888 
L 612.337527 148.543328 
L 614.137262 150.941674 
L 614.690091 153.800649 
L 615.809781 157.445072 
L 617.879851 164.325092 
L 620.041592 175.919201 
L 621.696338 183.867486 
" clip-path="url(#pd521a99dd2)" style="fill: none; stroke: #f29888; stroke-width: 0.2"/>
    <path d="M 499.628625 166.757041 
L 498.702566 169.442405 
L 497.78399 171.437527 
L 495.247148 181.541944 
L 494.996458 184.990355 
L 494.61668 188.252554 
L 493.526923 191.962781 
L 491.829148 195.757013 
L 490.300682 202.156804 
L 488.471949 208.234575 
L 489.52616 211.205557 
L 490.214624 213.427493 
L 490.947053 222.824867 
L 491.728123 234.935607 
L 491.58594 240.38614 
L 494.024563 243.64834 
L 505.5685 246.893738 
L 519.89997 250.064932 
L 524.739799 252.134258 
" clip-path="url(#pd521a99dd2)" style="fill: none; stroke: #f29888; stroke-width: 0.2"/>
    <path d="M 544.620141 212.164616 
L 536.797278 211.055748 
L 525.823008 209.150231 
L 511.679556 206.33746 
L 490.300682 202.156804 
" clip-path="url(#pd521a99dd2)" style="fill: none; stroke: #f29888; stroke-width: 0.2"/>
    <path d="M 548.163487 201.970593 
L 527.216774 198.446577 
L 505.910862 194.687348 
L 497.770894 193.42027 
L 493.526923 191.962781 
" clip-path="url(#pd521a99dd2)" style="fill: none; stroke: #f29888; stroke-width: 0.2"/>
    <path d="M 540.1947 189.799649 
L 536.140618 189.194812 
L 528.864037 187.742923 
L 502.107471 183.248649 
L 495.247148 181.541944 
" clip-path="url(#pd521a99dd2)" style="fill: none; stroke: #f29888; stroke-width: 0.2"/>
    <path d="M 594.801471 144.225136 
L 594.780752 144.268866 
L 593.050237 146.12538 
L 591.114866 147.731278 
L 580.98808 152.862592 
L 575.602905 155.591358 
L 551.818147 167.06786 
L 547.231815 169.146987 
L 540.582896 170.67588 
L 531.193216 169.674819 
L 521.550039 168.645756 
L 499.628625 166.757041 
L 484.023122 165.412959 
L 456.738983 162.138158 
L 452.308865 161.572524 
L 451.355679 161.450716 
L 432.396719 159.403791 
L 427.157468 158.514737 
L 422.352249 157.032046 
L 415.685558 153.293818 
L 414.380656 152.562973 
L 405.071421 147.349055 
L 404.199616 146.860425 
L 398.464596 143.640228 
L 396.767756 142.68817 
L 389.21897 138.203696 
L 384.702793 135.717144 
L 381.708535 134.494869 
L 379.136148 133.936235 
L 376.534763 133.932035 
L 373.823 134.422065 
L 371.383441 135.052103 
" clip-path="url(#pd521a99dd2)" style="fill: none; stroke: #f29888; stroke-width: 0.5"/>
   </g>
  </g>
 </g>
 <defs>
  <clipPath id="pd521a99dd2">
   <rect x="7.2" y="7.2" width="707.526807" height="831.6"/>
  </clipPath>
 </defs>
</svg>
