<?xml version="1.0" encoding="utf-8" standalone="no"?>
<!DOCTYPE svg PUBLIC "-//W3C//DTD SVG 1.1//EN"
  "http://www.w3.org/Graphics/SVG/1.1/DTD/svg11.dtd">
<svg xmlns:xlink="http://www.w3.org/1999/xlink" width="757.992994pt" height="846pt" viewBox="0 0 757.992994 846" xmlns="http://www.w3.org/2000/svg" version="1.1">
 <metadata>
  <rdf:RDF xmlns:dc="http://purl.org/dc/elements/1.1/" xmlns:cc="http://creativecommons.org/ns#" xmlns:rdf="http://www.w3.org/1999/02/22-rdf-syntax-ns#">
   <cc:Work>
    <dc:type rdf:resource="http://purl.org/dc/dcmitype/StillImage"/>
    <dc:date>2025-03-16T14:37:53.845955</dc:date>
    <dc:format>image/svg+xml</dc:format>
    <dc:creator>
     <cc:Agent>
      <dc:title>Matplotlib v3.10.1, https://matplotlib.org/</dc:title>
     </cc:Agent>
    </dc:creator>
   </cc:Work>
  </rdf:RDF>
 </metadata>
 <defs>
  <style type="text/css">*{stroke-linejoin: round; stroke-linecap: butt}</style>
 </defs>
 <g id="figure_1">
  <g id="patch_1">
   <path d="M 0 846 
L 757.992994 846 
L 757.992994 0 
L 0 0 
z
" style="fill: #ffffff"/>
  </g>
  <g id="axes_1">
   <g id="PatchCollection_1">
    <path d="M 647.948189 526.854633 
L 660.888681 521.302342 
L 664.42635 517.692144 
L 662.043673 506.784995 
L 683.058343 497.68496 
L 683.635839 491.038731 
L 667.748636 486.272141 
L 663.488087 449.809547 
L 683.412379 428.986441 
L 708.487022 407.492468 
L 715.426399 396.968097 
L 716.993312 374.130372 
L 713.339875 345.450251 
L 684.934869 309.18106 
L 685.026407 293.612082 
L 688.745806 228.751413 
L 696.824022 188.583933 
L 523.746122 84.69203 
L 481.517553 125.270492 
L 386.933368 144.080992 
L 330.029127 157.659527 
L 338.038689 105.871723 
L 344.164995 66.266321 
L 243.828732 45 
L 152.013567 46.267196 
L 134.917525 89.315581 
L 150.096656 123.515759 
L 146.315335 167.506986 
L 132.621002 210.901886 
L 135.233869 226.706574 
L 123.83606 258.682612 
L 108.955773 302.373661 
L 48.019828 370.951303 
L 44.051392 393.24508 
L 45.952149 413.510136 
L 52.917103 428.392129 
L 73.495622 451.507871 
L 120.466659 515.933382 
L 104.953684 518.784068 
L 87.539952 533.35178 
L 88.806675 555.202341 
L 122.049725 587.504747 
L 164.474831 594.789611 
L 173.022852 620.760068 
L 170.490753 662.249139 
L 164.158487 689.805102 
L 119.199936 689.805102 
L 40.999682 727.178304 
L 134.781565 754.82694 
L 139.21442 736.771922 
L 212.350478 757.045036 
L 247.809283 764.96249 
L 315.463838 781.758371 
L 325.46031 792.040988 
L 339.787332 801 
L 364.413708 757.101445 
L 341.579051 755.308434 
L 326.803763 744.109165 
L 318.296127 729.327903 
L 329.489322 702.900127 
L 320.983032 692.597364 
L 298.595295 693.044609 
L 274.733529 678.837514 
L 435.682662 559.058323 
L 460.562114 549.513056 
L 499.780702 548.455381 
L 520.434605 546.223183 
L 545.491748 542.393392 
L 559.501079 533.581447 
L 562.173177 528.309188 
L 582.971117 518.197814 
L 594.018929 516.3907 
L 602.829448 519.930386 
L 607.956914 527.587954 
L 614.527448 533.871552 
L 624.456613 534.810365 
L 634.747891 532.896476 
L 647.948189 526.854633 
" clip-path="url(#pfccd00baa7)" style="fill: #f29888"/>
   </g>
   <g id="PatchCollection_2">
    <path d="M 337.67523 491.17774 
L 337.774845 490.627748 
L 339.201759 490.88562 
L 338.709069 493.589239 
L 337.354848 493.343455 
L 337.432924 492.912327 
L 334.925056 492.455008 
L 334.515828 494.703323 
L 333.290836 494.479701 
L 333.691987 492.275707 
L 331.447963 491.866739 
L 331.408925 492.080289 
L 329.878358 491.802272 
L 330.346817 489.223559 
L 332.013344 489.527766 
L 331.904307 490.128123 
L 337.67523 491.17774 
" clip-path="url(#pfccd00baa7)" style="fill: #f29888"/>
    <path d="M 324.53147 480.468023 
L 324.293203 481.082482 
L 327.024531 482.144187 
L 326.549342 483.369075 
L 322.424754 481.765438 
L 323.139556 479.926091 
L 324.53147 480.468023 
" clip-path="url(#pfccd00baa7)" style="fill: #f29888"/>
    <path d="M 325.485887 478.898635 
L 324.911083 480.621134 
L 324.53147 480.468023 
L 323.139556 479.926091 
L 321.599567 479.517123 
L 322.173024 477.792609 
L 325.485887 478.898635 
" clip-path="url(#pfccd00baa7)" style="fill: #f29888"/>
    <path d="M 319.62208 467.745702 
L 319.369004 468.599901 
L 320.593996 468.962532 
L 320.210345 470.261962 
L 318.985353 469.89933 
L 318.737662 470.733383 
L 316.744022 470.143099 
L 317.060366 469.071322 
L 316.259409 468.835611 
L 316.474793 468.108334 
L 317.270364 468.344044 
L 317.623054 467.153404 
L 319.62208 467.745702 
" clip-path="url(#pfccd00baa7)" style="fill: #f29888"/>
    <path d="M 314.913264 466.277045 
L 315.89595 466.569165 
L 315.163647 469.033044 
L 314.180962 468.73891 
L 314.913264 466.277045 
" clip-path="url(#pfccd00baa7)" style="fill: #f29888"/>
    <path d="M 231.835926 396.786781 
L 230.989201 399.38161 
L 227.668261 398.297745 
L 228.51364 395.702916 
L 231.835926 396.786781 
" clip-path="url(#pfccd00baa7)" style="fill: #f29888"/>
    <path d="M 241.512016 396.605465 
L 239.829335 396.123971 
L 240.33414 394.355135 
L 242.018167 394.836629 
L 241.512016 396.605465 
" clip-path="url(#pfccd00baa7)" style="fill: #f29888"/>
    <path d="M 255.711154 392.989223 
L 255.205003 395.517571 
L 253.246362 395.12472 
L 253.752513 392.598387 
L 255.711154 392.989223 
" clip-path="url(#pfccd00baa7)" style="fill: #f29888"/>
    <path d="M 247.004288 389.278295 
L 245.954295 392.739411 
L 246.918135 393.03153 
L 246.631406 393.976387 
L 244.111422 393.210832 
L 245.448144 388.806874 
L 247.004288 389.278295 
" clip-path="url(#pfccd00baa7)" style="fill: #f29888"/>
    <path d="M 234.841868 386.895 
L 234.264372 389.566385 
L 231.582851 388.986175 
L 232.160347 386.31479 
L 234.841868 386.895 
" clip-path="url(#pfccd00baa7)" style="fill: #f29888"/>
    <path d="M 207.49224 381.18154 
L 206.698015 384.394857 
L 205.549753 384.110796 
L 206.345325 380.897478 
L 207.49224 381.18154 
" clip-path="url(#pfccd00baa7)" style="fill: #f29888"/>
    <path d="M 214.7695 378.866742 
L 214.082966 381.068721 
L 212.952204 380.718177 
L 213.638738 378.514184 
L 214.7695 378.866742 
" clip-path="url(#pfccd00baa7)" style="fill: #f29888"/>
    <path d="M 211.700289 367.300813 
L 210.94241 370.22604 
L 209.485881 369.847291 
L 210.243761 366.924079 
L 211.700289 367.300813 
" clip-path="url(#pfccd00baa7)" style="fill: #f29888"/>
    <path d="M 212.623745 117.075021 
L 212.380093 118.642394 
L 210.23703 118.309982 
L 210.479336 116.742608 
L 212.623745 117.075021 
" clip-path="url(#pfccd00baa7)" style="fill: #f29888"/>
    <path d="M 213.177011 113.406399 
L 213.121819 114.512425 
L 211.492983 114.43184 
L 211.548175 113.325814 
L 213.177011 113.406399 
" clip-path="url(#pfccd00baa7)" style="fill: #f29888"/>
    <path d="M 197.020578 113.021607 
L 196.741926 114.639346 
L 195.251744 114.385504 
L 195.530396 112.76575 
L 197.020578 113.021607 
" clip-path="url(#pfccd00baa7)" style="fill: #f29888"/>
    <path d="M 191.02081 111.820893 
L 192.450416 111.988107 
L 192.335994 112.969226 
L 190.906388 112.802013 
L 191.02081 111.820893 
" clip-path="url(#pfccd00baa7)" style="fill: #f29888"/>
    <path d="M 214.166427 109.675324 
L 214.017005 110.884095 
L 212.35317 110.67659 
L 212.503938 109.467818 
L 214.166427 109.675324 
" clip-path="url(#pfccd00baa7)" style="fill: #f29888"/>
    <path d="M 196.610004 107.636529 
L 197.966918 107.852093 
L 197.725958 109.369102 
L 196.369044 109.153537 
L 196.610004 107.636529 
" clip-path="url(#pfccd00baa7)" style="fill: #f29888"/>
    <path d="M 193.158488 107.646602 
L 192.968682 108.728453 
L 191.599652 108.498786 
L 191.767921 107.416936 
L 193.158488 107.646602 
" clip-path="url(#pfccd00baa7)" style="fill: #f29888"/>
    <path d="M 258.392675 383.748165 
L 257.562103 385.879632 
L 255.991152 385.267188 
L 256.821723 383.13572 
L 258.392675 383.748165 
" clip-path="url(#pfccd00baa7)" style="fill: #f29888"/>
    <path d="M 218.074286 380.33137 
L 221.107151 381.270183 
L 220.462347 383.353299 
L 217.429483 382.414487 
L 218.074286 380.33137 
" clip-path="url(#pfccd00baa7)" style="fill: #f29888"/>
    <path d="M 217.171023 379.85592 
L 216.520835 382.059914 
L 215.154498 381.65699 
L 215.804686 379.452996 
L 217.171023 379.85592 
" clip-path="url(#pfccd00baa7)" style="fill: #f29888"/>
    <path d="M 217.30833 370.840499 
L 216.441412 372.933688 
L 214.830077 372.266849 
L 215.695648 370.17366 
L 217.30833 370.840499 
" clip-path="url(#pfccd00baa7)" style="fill: #f29888"/>
    <path d="M 219.987158 114.115545 
L 219.791967 115.505632 
L 217.819865 115.229629 
L 218.015056 113.839542 
L 219.987158 114.115545 
" clip-path="url(#pfccd00baa7)" style="fill: #f29888"/>
    <path d="M 220.256387 110.652414 
L 220.008696 112.18151 
L 218.536014 111.941771 
L 218.785051 110.412675 
L 220.256387 110.652414 
" clip-path="url(#pfccd00baa7)" style="fill: #f29888"/>
    <path d="M 221.136766 106.99588 
L 220.836576 108.464538 
L 219.149856 108.120038 
L 219.450046 106.65138 
L 221.136766 106.99588 
" clip-path="url(#pfccd00baa7)" style="fill: #f29888"/>
    <path d="M 221.891953 103.454179 
L 221.614647 104.989319 
L 219.93062 104.687126 
L 220.207926 103.149972 
L 221.891953 103.454179 
" clip-path="url(#pfccd00baa7)" style="fill: #f29888"/>
    <path d="M 222.314643 100.071634 
L 221.995606 101.824352 
L 220.291387 101.514101 
L 220.609077 99.761382 
L 222.314643 100.071634 
" clip-path="url(#pfccd00baa7)" style="fill: #f29888"/>
    <path d="M 223.155983 96.44129 
L 222.917716 97.988517 
L 221.007536 97.692368 
L 221.245804 96.145141 
L 223.155983 96.44129 
" clip-path="url(#pfccd00baa7)" style="fill: #f29888"/>
    <path d="M 191.933496 106.405597 
L 193.324064 106.633249 
L 193.158488 107.646602 
L 191.767921 107.416936 
L 191.933496 106.405597 
" clip-path="url(#pfccd00baa7)" style="fill: #f29888"/>
    <path d="M 213.627969 102.334051 
L 215.295843 102.636244 
L 214.762769 105.577588 
L 213.096242 105.275395 
L 213.627969 102.334051 
" clip-path="url(#pfccd00baa7)" style="fill: #f29888"/>
    <path d="M 197.214423 101.876732 
L 198.784028 102.080209 
L 198.579414 103.653627 
L 197.009809 103.45015 
L 197.214423 101.876732 
" clip-path="url(#pfccd00baa7)" style="fill: #f29888"/>
    <path d="M 193.831561 101.109163 
L 193.574447 103.05327 
L 192.195995 102.871954 
L 192.454455 100.927847 
L 193.831561 101.109163 
" clip-path="url(#pfccd00baa7)" style="fill: #f29888"/>
    <path d="M 215.9918 100.3839 
L 215.660648 101.717578 
L 213.574123 101.201835 
L 213.905275 99.866142 
L 215.9918 100.3839 
" clip-path="url(#pfccd00baa7)" style="fill: #f29888"/>
    <path d="M 198.46903 96.600444 
L 199.753253 96.75557 
L 199.531139 98.611035 
L 198.24557 98.457924 
L 198.46903 96.600444 
" clip-path="url(#pfccd00baa7)" style="fill: #f29888"/>
    <path d="M 194.947515 96.658868 
L 194.802131 97.54933 
L 193.604062 97.359956 
L 193.754831 96.459421 
L 194.947515 96.658868 
" clip-path="url(#pfccd00baa7)" style="fill: #f29888"/>
    <path d="M 193.908291 95.550828 
L 195.100976 95.75229 
L 194.947515 96.658868 
L 193.754831 96.459421 
L 193.908291 95.550828 
" clip-path="url(#pfccd00baa7)" style="fill: #f29888"/>
    <path d="M 216.810256 95.170065 
L 216.493912 96.630664 
L 214.738539 96.249901 
L 215.056229 94.789302 
L 216.810256 95.170065 
" clip-path="url(#pfccd00baa7)" style="fill: #f29888"/>
    <path d="M 200.687477 91.279835 
L 200.499017 92.885486 
L 198.755759 92.679995 
L 198.94422 91.076358 
L 200.687477 91.279835 
" clip-path="url(#pfccd00baa7)" style="fill: #f29888"/>
    <path d="M 223.860017 92.94391 
L 223.640596 94.311837 
L 221.679262 93.997556 
L 221.898684 92.62963 
L 223.860017 92.94391 
" clip-path="url(#pfccd00baa7)" style="fill: #f29888"/>
    <path d="M 217.717558 90.387359 
L 217.40929 91.956747 
L 215.776417 91.636423 
L 216.084684 90.067034 
L 217.717558 90.387359 
" clip-path="url(#pfccd00baa7)" style="fill: #f29888"/>
    <path d="M 224.036362 89.21485 
L 223.745595 90.824531 
L 222.132913 90.532411 
L 222.422334 88.924745 
L 224.036362 89.21485 
" clip-path="url(#pfccd00baa7)" style="fill: #f29888"/>
    <path d="M 225.044625 85.818202 
L 224.795588 87.075324 
L 222.878678 86.696576 
L 223.127714 85.439453 
L 225.044625 85.818202 
" clip-path="url(#pfccd00baa7)" style="fill: #f29888"/>
    <path d="M 218.463322 85.673149 
L 218.305823 86.752985 
L 216.310836 86.458851 
L 216.468335 85.38103 
L 218.463322 85.673149 
" clip-path="url(#pfccd00baa7)" style="fill: #f29888"/>
    <path d="M 225.478083 82.026688 
L 225.202124 83.259635 
L 223.558481 82.89096 
L 223.83444 81.658013 
L 225.478083 82.026688 
" clip-path="url(#pfccd00baa7)" style="fill: #f29888"/>
    <path d="M 219.231971 81.245016 
L 219.009857 82.496095 
L 217.333906 82.199946 
L 217.55602 80.946852 
L 219.231971 81.245016 
" clip-path="url(#pfccd00baa7)" style="fill: #f29888"/>
    <path d="M 226.044811 78.386271 
L 225.813274 79.7683 
L 224.098285 79.48021 
L 224.329822 78.100195 
L 226.044811 78.386271 
" clip-path="url(#pfccd00baa7)" style="fill: #f29888"/>
    <path d="M 219.809467 77.81009 
L 219.606199 79.05714 
L 217.918133 78.783151 
L 218.121401 77.534087 
L 219.809467 77.81009 
" clip-path="url(#pfccd00baa7)" style="fill: #f29888"/>
    <path d="M 226.824228 74.324799 
L 226.257501 75.644374 
L 224.726935 75.420752 
L 224.928856 74.046781 
L 226.824228 74.324799 
" clip-path="url(#pfccd00baa7)" style="fill: #f29888"/>
    <path d="M 196.085008 91.229469 
L 195.928855 92.242823 
L 194.558479 92.047405 
L 194.707901 91.01592 
L 196.085008 91.229469 
" clip-path="url(#pfccd00baa7)" style="fill: #f29888"/>
    <path d="M 194.853285 90.083151 
L 196.229045 90.296701 
L 196.085008 91.229469 
L 194.707901 91.01592 
L 194.853285 90.083151 
" clip-path="url(#pfccd00baa7)" style="fill: #f29888"/>
    <path d="M 200.260749 85.709412 
L 201.616317 85.862524 
L 201.422472 87.580994 
L 200.066904 87.429897 
L 200.260749 85.709412 
" clip-path="url(#pfccd00baa7)" style="fill: #f29888"/>
    <path d="M 196.996348 85.82626 
L 196.841541 86.712693 
L 195.491358 86.476982 
L 195.646164 85.588535 
L 196.996348 85.82626 
" clip-path="url(#pfccd00baa7)" style="fill: #f29888"/>
    <path d="M 195.819817 84.655767 
L 197.159231 84.931769 
L 196.996348 85.82626 
L 195.646164 85.588535 
L 195.819817 84.655767 
" clip-path="url(#pfccd00baa7)" style="fill: #f29888"/>
    <path d="M 201.197666 80.310233 
L 202.546504 80.437154 
L 202.421312 81.758744 
L 201.072475 81.631823 
L 201.197666 80.310233 
" clip-path="url(#pfccd00baa7)" style="fill: #f29888"/>
    <path d="M 197.89288 80.284043 
L 197.760958 81.249045 
L 196.36366 81.057656 
L 196.495582 80.092654 
L 197.89288 80.284043 
" clip-path="url(#pfccd00baa7)" style="fill: #f29888"/>
    <path d="M 196.62885 79.198163 
L 198.008649 79.411713 
L 197.89288 80.284043 
L 196.495582 80.092654 
L 196.62885 79.198163 
" clip-path="url(#pfccd00baa7)" style="fill: #f29888"/>
    <path d="M 202.239582 74.68743 
L 203.615343 74.888892 
L 203.390536 76.420003 
L 202.016122 76.220556 
L 202.239582 74.68743 
" clip-path="url(#pfccd00baa7)" style="fill: #f29888"/>
    <path d="M 198.894412 74.826439 
L 198.792105 75.789427 
L 197.519998 75.654447 
L 197.622305 74.691459 
L 198.894412 74.826439 
" clip-path="url(#pfccd00baa7)" style="fill: #f29888"/>
    <path d="M 197.744804 73.768764 
L 198.984604 73.940006 
L 198.894412 74.826439 
L 197.622305 74.691459 
L 197.744804 73.768764 
" clip-path="url(#pfccd00baa7)" style="fill: #f29888"/>
    <path d="M 206.809745 67.664467 
L 206.5809 69.322499 
L 204.906296 69.092832 
L 205.13514 67.432786 
L 206.809745 67.664467 
" clip-path="url(#pfccd00baa7)" style="fill: #f29888"/>
    <path d="M 204.906296 69.092832 
L 203.087654 68.873239 
L 203.31246 67.162827 
L 205.13514 67.432786 
L 204.906296 69.092832 
" clip-path="url(#pfccd00baa7)" style="fill: #f29888"/>
    <path d="M 200.109981 66.558441 
L 199.870367 68.28497 
L 198.361339 68.07545 
L 198.599606 66.348921 
L 200.109981 66.558441 
" clip-path="url(#pfccd00baa7)" style="fill: #f29888"/>
    <path d="M 198.361339 68.07545 
L 196.785003 67.849812 
L 197.023271 66.137386 
L 198.599606 66.348921 
L 198.361339 68.07545 
" clip-path="url(#pfccd00baa7)" style="fill: #f29888"/>
    <path d="M 220.505424 73.502834 
L 220.292733 74.657211 
L 218.63159 74.348974 
L 218.844281 73.196612 
L 220.505424 73.502834 
" clip-path="url(#pfccd00baa7)" style="fill: #f29888"/>
    <path d="M 227.269802 71.19408 
L 227.135188 72.662738 
L 225.495583 72.513656 
L 225.628852 71.044998 
L 227.269802 71.19408 
" clip-path="url(#pfccd00baa7)" style="fill: #f29888"/>
    <path d="M 221.587724 69.830183 
L 221.410033 71.298841 
L 219.495815 71.067159 
L 219.673506 69.598502 
L 221.587724 69.830183 
" clip-path="url(#pfccd00baa7)" style="fill: #f29888"/>
    <path d="M 228.804408 67.747067 
L 228.684601 68.851078 
L 226.332886 68.595221 
L 226.454039 67.49121 
L 228.804408 67.747067 
" clip-path="url(#pfccd00baa7)" style="fill: #f29888"/>
    <path d="M 222.120798 65.887573 
L 221.815223 67.388464 
L 220.299464 67.080228 
L 220.605039 65.579336 
L 222.120798 65.887573 
" clip-path="url(#pfccd00baa7)" style="fill: #f29888"/>
    <path d="M 147.039561 425.100241 
L 145.99226 428.025468 
L 144.674384 427.554047 
L 145.721685 424.62882 
L 147.039561 425.100241 
" clip-path="url(#pfccd00baa7)" style="fill: #f29888"/>
    <path d="M 121.602805 423.833045 
L 121.312038 424.91691 
L 119.832625 424.52003 
L 120.122046 423.436165 
L 121.602805 423.833045 
" clip-path="url(#pfccd00baa7)" style="fill: #f29888"/>
    <path d="M 99.103338 421.576671 
L 98.9943 423.057417 
L 97.267196 422.930496 
L 97.374888 421.44975 
L 99.103338 421.576671 
" clip-path="url(#pfccd00baa7)" style="fill: #f29888"/>
    <path d="M 112.004791 421.131441 
L 111.498641 422.793502 
L 110.40961 422.461089 
L 110.91576 420.801043 
L 112.004791 421.131441 
" clip-path="url(#pfccd00baa7)" style="fill: #f29888"/>
    <path d="M 110.141727 420.357827 
L 109.744614 421.874835 
L 107.84655 421.377224 
L 108.243662 419.86223 
L 110.141727 420.357827 
" clip-path="url(#pfccd00baa7)" style="fill: #f29888"/>
    <path d="M 164.525984 418.276725 
L 163.659067 420.66002 
L 160.670625 419.572125 
L 161.536196 417.188831 
L 164.525984 418.276725 
" clip-path="url(#pfccd00baa7)" style="fill: #f29888"/>
    <path d="M 156.337384 415.853138 
L 155.846041 417.374176 
L 153.498365 416.616679 
L 153.989708 415.093627 
L 156.337384 415.853138 
" clip-path="url(#pfccd00baa7)" style="fill: #f29888"/>
    <path d="M 149.667236 413.586691 
L 148.502821 417.803289 
L 144.160157 416.602576 
L 145.324572 412.385978 
L 149.667236 413.586691 
" clip-path="url(#pfccd00baa7)" style="fill: #f29888"/>
    <path d="M 129.690444 406.356223 
L 128.842373 409.170646 
L 121.295884 406.896141 
L 122.143955 404.081717 
L 129.690444 406.356223 
" clip-path="url(#pfccd00baa7)" style="fill: #f29888"/>
    <path d="M 164.657907 404.583358 
L 164.497715 405.163568 
L 163.073494 404.770717 
L 163.233685 404.188492 
L 164.657907 404.583358 
" clip-path="url(#pfccd00baa7)" style="fill: #f29888"/>
    <path d="M 184.092202 408.00821 
L 190.581967 409.801222 
L 191.494653 406.499261 
L 193.888099 407.160056 
L 191.973881 414.084302 
L 183.092016 411.628481 
L 184.092202 408.00821 
" clip-path="url(#pfccd00baa7)" style="fill: #f29888"/>
    <path d="M 192.335994 112.969226 
L 192.216187 113.998697 
L 190.787927 113.839542 
L 190.906388 112.802013 
L 192.335994 112.969226 
" clip-path="url(#pfccd00baa7)" style="fill: #f29888"/>
    <path d="M 181.819909 111.33537 
L 181.657026 112.733516 
L 180.442803 112.592493 
L 180.605686 111.192332 
L 181.819909 111.33537 
" clip-path="url(#pfccd00baa7)" style="fill: #f29888"/>
    <path d="M 180.730878 109.866713 
L 181.959908 109.969458 
L 181.819909 111.33537 
L 180.605686 111.192332 
L 180.730878 109.866713 
" clip-path="url(#pfccd00baa7)" style="fill: #f29888"/>
    <path d="M 182.933171 105.837474 
L 182.785095 107.106684 
L 181.307028 106.933427 
L 181.45645 105.664217 
L 182.933171 105.837474 
" clip-path="url(#pfccd00baa7)" style="fill: #f29888"/>
    <path d="M 181.600487 104.423211 
L 183.059709 104.56222 
L 182.933171 105.837474 
L 181.45645 105.664217 
L 181.600487 104.423211 
" clip-path="url(#pfccd00baa7)" style="fill: #f29888"/>
    <path d="M 174.840147 103.117738 
L 176.373406 103.311141 
L 176.214561 104.64079 
L 174.681302 104.465518 
L 174.840147 103.117738 
" clip-path="url(#pfccd00baa7)" style="fill: #f29888"/>
    <path d="M 183.463552 100.543054 
L 183.285861 101.878747 
L 182.033946 101.713548 
L 182.211637 100.375841 
L 183.463552 100.543054 
" clip-path="url(#pfccd00baa7)" style="fill: #f29888"/>
    <path d="M 176.890326 99.249669 
L 176.715327 100.790853 
L 175.175337 100.601478 
L 175.393413 99.054251 
L 176.890326 99.249669 
" clip-path="url(#pfccd00baa7)" style="fill: #f29888"/>
    <path d="M 182.392021 99.11066 
L 183.641243 99.302049 
L 183.463552 100.543054 
L 182.211637 100.375841 
L 182.392021 99.11066 
" clip-path="url(#pfccd00baa7)" style="fill: #f29888"/>
    <path d="M 166.915392 403.638501 
L 166.663663 404.551124 
L 165.652708 404.271092 
L 165.905783 403.358469 
L 166.915392 403.638501 
" clip-path="url(#pfccd00baa7)" style="fill: #f29888"/>
    <path d="M 119.508204 403.14089 
L 118.766478 405.435542 
L 112.411327 403.376601 
L 113.154399 401.083964 
L 119.508204 403.14089 
" clip-path="url(#pfccd00baa7)" style="fill: #f29888"/>
    <path d="M 165.091365 401.909958 
L 164.749444 403.14089 
L 163.723682 402.858843 
L 164.064257 401.625896 
L 165.091365 401.909958 
" clip-path="url(#pfccd00baa7)" style="fill: #f29888"/>
    <path d="M 164.215025 399.671716 
L 163.774835 401.263265 
L 160.915624 400.473534 
L 161.355813 398.87997 
L 164.215025 399.671716 
" clip-path="url(#pfccd00baa7)" style="fill: #f29888"/>
    <path d="M 146.962831 393.621814 
L 146.408219 395.630389 
L 143.614968 394.85879 
L 144.16958 392.850215 
L 146.962831 393.621814 
" clip-path="url(#pfccd00baa7)" style="fill: #f29888"/>
    <path d="M 167.615387 115.431091 
L 167.811924 116.764769 
L 166.494048 116.960187 
L 166.296165 115.626509 
L 167.615387 115.431091 
" clip-path="url(#pfccd00baa7)" style="fill: #f29888"/>
    <path d="M 175.402836 110.01378 
L 175.16053 112.020341 
L 173.601694 111.83701 
L 173.854769 109.812318 
L 175.402836 110.01378 
" clip-path="url(#pfccd00baa7)" style="fill: #f29888"/>
    <path d="M 174.048614 108.339631 
L 175.595335 108.543108 
L 175.402836 110.01378 
L 173.854769 109.812318 
L 174.048614 108.339631 
" clip-path="url(#pfccd00baa7)" style="fill: #f29888"/>
    <path d="M 176.214561 104.64079 
L 176.024755 106.298822 
L 174.491496 106.12355 
L 174.681302 104.465518 
L 176.214561 104.64079 
" clip-path="url(#pfccd00baa7)" style="fill: #f29888"/>
    <path d="M 165.795399 103.446121 
L 165.468286 105.59572 
L 163.758682 105.345907 
L 164.057526 103.196308 
L 165.795399 103.446121 
" clip-path="url(#pfccd00baa7)" style="fill: #f29888"/>
    <path d="M 175.57245 97.688339 
L 177.069363 97.883757 
L 176.890326 99.249669 
L 175.393413 99.054251 
L 175.57245 97.688339 
" clip-path="url(#pfccd00baa7)" style="fill: #f29888"/>
    <path d="M 184.452969 94.759082 
L 184.311623 96.072614 
L 183.148554 95.945693 
L 183.289899 94.632161 
L 184.452969 94.759082 
" clip-path="url(#pfccd00baa7)" style="fill: #f29888"/>
    <path d="M 177.796282 93.636939 
L 177.44763 95.321161 
L 175.867256 94.992778 
L 176.2011 93.320644 
L 177.796282 93.636939 
" clip-path="url(#pfccd00baa7)" style="fill: #f29888"/>
    <path d="M 183.398937 93.47577 
L 184.602391 93.614779 
L 184.452969 94.759082 
L 183.289899 94.632161 
L 183.398937 93.47577 
" clip-path="url(#pfccd00baa7)" style="fill: #f29888"/>
    <path d="M 176.544367 91.586057 
L 178.139549 91.902352 
L 177.796282 93.636939 
L 176.2011 93.320644 
L 176.544367 91.586057 
" clip-path="url(#pfccd00baa7)" style="fill: #f29888"/>
    <path d="M 185.725076 89.369976 
L 185.543346 90.69761 
L 184.051818 90.471973 
L 184.230855 89.180602 
L 185.725076 89.369976 
" clip-path="url(#pfccd00baa7)" style="fill: #f29888"/>
    <path d="M 178.714353 88.195453 
L 178.415508 90.089195 
L 176.645328 89.811177 
L 176.944172 87.915421 
L 178.714353 88.195453 
" clip-path="url(#pfccd00baa7)" style="fill: #f29888"/>
    <path d="M 184.388354 87.935567 
L 185.882575 88.124941 
L 185.725076 89.369976 
L 184.230855 89.180602 
L 184.388354 87.935567 
" clip-path="url(#pfccd00baa7)" style="fill: #f29888"/>
    <path d="M 177.186478 86.547494 
L 178.912236 86.83357 
L 178.714353 88.195453 
L 176.944172 87.915421 
L 177.186478 86.547494 
" clip-path="url(#pfccd00baa7)" style="fill: #f29888"/>
    <path d="M 186.310649 83.63234 
L 186.126227 85.082866 
L 184.842005 84.919682 
L 185.026426 83.469156 
L 186.310649 83.63234 
" clip-path="url(#pfccd00baa7)" style="fill: #f29888"/>
    <path d="M 164.336178 101.262274 
L 166.072705 101.512086 
L 165.795399 103.446121 
L 164.057526 103.196308 
L 164.336178 101.262274 
" clip-path="url(#pfccd00baa7)" style="fill: #f29888"/>
    <path d="M 166.751162 97.837421 
L 166.327126 100.033356 
L 164.660599 99.711017 
L 165.084635 97.515082 
L 166.751162 97.837421 
" clip-path="url(#pfccd00baa7)" style="fill: #f29888"/>
    <path d="M 165.430594 95.794597 
L 167.062122 96.09679 
L 166.751162 97.837421 
L 165.084635 97.515082 
L 165.430594 95.794597 
" clip-path="url(#pfccd00baa7)" style="fill: #f29888"/>
    <path d="M 167.623464 92.047405 
L 167.27212 93.963308 
L 165.640592 93.665144 
L 165.991936 91.747227 
L 167.623464 92.047405 
" clip-path="url(#pfccd00baa7)" style="fill: #f29888"/>
    <path d="M 166.340588 89.964288 
L 167.950577 90.278569 
L 167.623464 92.047405 
L 165.991936 91.747227 
L 166.340588 89.964288 
" clip-path="url(#pfccd00baa7)" style="fill: #f29888"/>
    <path d="M 168.363844 86.654269 
L 168.15923 88.398929 
L 166.480587 88.187394 
L 166.745777 86.426617 
L 168.363844 86.654269 
" clip-path="url(#pfccd00baa7)" style="fill: #f29888"/>
    <path d="M 166.949045 84.990193 
L 168.567112 85.21986 
L 168.363844 86.654269 
L 166.745777 86.426617 
L 166.949045 84.990193 
" clip-path="url(#pfccd00baa7)" style="fill: #f29888"/>
    <path d="M 169.154031 80.928721 
L 168.857879 82.790229 
L 167.285582 82.540416 
L 167.581734 80.678908 
L 169.154031 80.928721 
" clip-path="url(#pfccd00baa7)" style="fill: #f29888"/>
    <path d="M 167.837501 79.190104 
L 169.378837 79.443946 
L 169.154031 80.928721 
L 167.581734 80.678908 
L 167.837501 79.190104 
" clip-path="url(#pfccd00baa7)" style="fill: #f29888"/>
    <path d="M 169.855372 75.61214 
L 169.595566 77.086842 
L 168.044807 76.812854 
L 168.304613 75.340167 
L 169.855372 75.61214 
" clip-path="url(#pfccd00baa7)" style="fill: #f29888"/>
    <path d="M 179.373964 82.576679 
L 179.146465 84.309252 
L 177.593014 84.097717 
L 177.816474 82.385291 
L 179.373964 82.576679 
" clip-path="url(#pfccd00baa7)" style="fill: #f29888"/>
    <path d="M 185.175849 82.347013 
L 186.439879 82.498109 
L 186.310649 83.63234 
L 185.026426 83.469156 
L 185.175849 82.347013 
" clip-path="url(#pfccd00baa7)" style="fill: #f29888"/>
    <path d="M 177.995511 80.93275 
L 179.553001 81.124139 
L 179.373964 82.576679 
L 177.816474 82.385291 
L 177.995511 80.93275 
" clip-path="url(#pfccd00baa7)" style="fill: #f29888"/>
    <path d="M 187.207181 78.329862 
L 187.048336 79.750169 
L 185.646999 79.582955 
L 185.834113 78.158619 
L 187.207181 78.329862 
" clip-path="url(#pfccd00baa7)" style="fill: #f29888"/>
    <path d="M 180.271842 77.0949 
L 180.01069 79.041023 
L 178.381855 78.821429 
L 178.643007 76.877321 
L 180.271842 77.0949 
" clip-path="url(#pfccd00baa7)" style="fill: #f29888"/>
    <path d="M 185.972766 77.04252 
L 187.345834 77.213763 
L 187.207181 78.329862 
L 185.834113 78.158619 
L 185.972766 77.04252 
" clip-path="url(#pfccd00baa7)" style="fill: #f29888"/>
    <path d="M 178.831467 75.404635 
L 180.467033 75.610126 
L 180.271842 77.0949 
L 178.643007 76.877321 
L 178.831467 75.404635 
" clip-path="url(#pfccd00baa7)" style="fill: #f29888"/>
    <path d="M 188.290828 73.09991 
L 188.091599 74.465822 
L 186.443917 74.226082 
L 186.644493 72.858156 
L 188.290828 73.09991 
" clip-path="url(#pfccd00baa7)" style="fill: #f29888"/>
    <path d="M 181.056645 71.66953 
L 180.764531 73.462542 
L 179.173388 73.202656 
L 179.45204 71.419718 
L 181.056645 71.66953 
" clip-path="url(#pfccd00baa7)" style="fill: #f29888"/>
    <path d="M 186.850453 71.457995 
L 188.500827 71.709823 
L 188.290828 73.09991 
L 186.644493 72.858156 
L 186.850453 71.457995 
" clip-path="url(#pfccd00baa7)" style="fill: #f29888"/>
    <path d="M 168.544227 73.990372 
L 170.086909 74.256302 
L 169.855372 75.61214 
L 168.304613 75.340167 
L 168.544227 73.990372 
" clip-path="url(#pfccd00baa7)" style="fill: #f29888"/>
    <path d="M 170.729021 70.202888 
L 170.474599 71.957621 
L 168.818841 71.707808 
L 169.097493 69.953075 
L 170.729021 70.202888 
" clip-path="url(#pfccd00baa7)" style="fill: #f29888"/>
    <path d="M 169.323645 68.476359 
L 170.955173 68.724157 
L 170.729021 70.202888 
L 169.097493 69.953075 
L 169.323645 68.476359 
" clip-path="url(#pfccd00baa7)" style="fill: #f29888"/>
    <path d="M 173.69727 61.743501 
L 173.515541 63.272597 
L 171.737283 63.059048 
L 171.941897 61.517864 
L 173.69727 61.743501 
" clip-path="url(#pfccd00baa7)" style="fill: #f29888"/>
    <path d="M 171.737283 63.059048 
L 170.224216 62.8596 
L 170.427484 61.316402 
L 171.941897 61.517864 
L 171.737283 63.059048 
" clip-path="url(#pfccd00baa7)" style="fill: #f29888"/>
    <path d="M 179.691654 69.87249 
L 181.296259 70.122303 
L 181.056645 71.66953 
L 179.45204 71.419718 
L 179.691654 69.87249 
" clip-path="url(#pfccd00baa7)" style="fill: #f29888"/>
    <path d="M 190.800042 65.095828 
L 190.52139 66.665216 
L 189.179284 66.427491 
L 189.460628 64.856088 
L 190.800042 65.095828 
" clip-path="url(#pfccd00baa7)" style="fill: #f29888"/>
    <path d="M 189.179284 66.427491 
L 187.558525 66.1394 
L 187.83987 64.565983 
L 189.460628 64.856088 
L 189.179284 66.427491 
" clip-path="url(#pfccd00baa7)" style="fill: #f29888"/>
    <path d="M 182.300483 63.49622 
L 181.9976 64.950775 
L 180.566648 64.652611 
L 180.869531 63.198056 
L 182.300483 63.49622 
" clip-path="url(#pfccd00baa7)" style="fill: #f29888"/>
    <path d="M 180.566648 64.652611 
L 178.890698 64.296024 
L 179.200311 62.845498 
L 180.869531 63.198056 
L 180.566648 64.652611 
" clip-path="url(#pfccd00baa7)" style="fill: #f29888"/>
   </g>
   <g id="LineCollection_1">
    <path d="M 130.130538 753.455731 
L 138.783176 738.528378 
" clip-path="url(#pfccd00baa7)" style="fill: none; stroke: #f29888; stroke-width: 0.2"/>
    <path d="M 139.720061 736.912084 
L 146.604756 725.03475 
L 152.848177 704.278127 
L 164.733291 695.008863 
L 165.990364 681.833369 
" clip-path="url(#pfccd00baa7)" style="fill: none; stroke: #f29888; stroke-width: 0.2"/>
    <path d="M 172.088272 617.920644 
L 174.000153 597.882052 
L 174.36092 577.286598 
L 178.325317 563.426017 
" clip-path="url(#pfccd00baa7)" style="fill: none; stroke: #f29888; stroke-width: 0.2"/>
    <path d="M 174.36092 577.286598 
L 185.865075 577.048873 
L 201.029398 577.16975 
L 221.574263 577.048873 
L 231.846695 577.538426 
L 250.434265 582.309044 
L 265.47609 589.525411 
" clip-path="url(#pfccd00baa7)" style="fill: none; stroke: #f29888; stroke-width: 0.2"/>
    <path d="M 178.325317 563.426017 
L 203.254576 561.757913 
L 219.631776 559.443115 
L 238.352614 558.601004 
L 241.448748 558.609063 
L 271.346628 564.080769 
L 286.388452 568.974279 
" clip-path="url(#pfccd00baa7)" style="fill: none; stroke: #f29888; stroke-width: 0.2"/>
    <path d="M 203.764765 507.826554 
L 209.413189 519.0641 
L 211.954711 525.164367 
L 214.107197 530.331866 
L 219.090626 544.994265 
L 219.631776 559.443115 
" clip-path="url(#pfccd00baa7)" style="fill: none; stroke: #f29888; stroke-width: 0.2"/>
    <path d="M 211.954711 525.164367 
L 244.897571 532.570108 
L 259.667474 530.2815 
" clip-path="url(#pfccd00baa7)" style="fill: none; stroke: #f29888; stroke-width: 0.2"/>
    <path d="M 155.470467 458.031208 
L 157.416993 464.623042 
L 159.656978 472.754046 
L 166.873661 487.190808 
L 172.099396 495.654224 
L 182.799903 508.513539 
L 187.69314 513.906675 
L 194.057713 519.311898 
" clip-path="url(#pfccd00baa7)" style="fill: none; stroke: #f29888; stroke-width: 0.2"/>
    <path d="M 97.98873 445.248448 
L 141.38979 455.142244 
L 155.470467 458.031208 
L 195.259821 465.831814 
L 208.691655 460.053886 
L 228.694024 451.820137 
L 244.22046 441.56371 
" clip-path="url(#pfccd00baa7)" style="fill: none; stroke: #f29888; stroke-width: 0.2"/>
    <path d="M 155.470467 458.031208 
L 155.342583 456.161641 
L 158.578716 442.554902 
L 156.338731 437.161766 
L 153.020483 433.263478 
" clip-path="url(#pfccd00baa7)" style="fill: none; stroke: #f29888; stroke-width: 0.2"/>
    <path d="M 158.578716 442.554902 
L 184.956427 447.118015 
L 194.080598 447.698225 
" clip-path="url(#pfccd00baa7)" style="fill: none; stroke: #f29888; stroke-width: 0.2"/>
    <path d="M 105.812524 395.299992 
L 100.10487 402.663425 
L 95.075672 409.642067 
L 94.125294 413.570574 
L 93.629912 415.615413 
L 93.629912 418.570859 
L 92.937994 421.085104 
L 91.303774 424.542191 
L 92.220498 429.197976 
L 94.792982 433.19901 
L 95.5549 436.200793 
L 95.697591 438.775477 
L 96.316818 442.206373 
L 97.98873 445.248448 
" clip-path="url(#pfccd00baa7)" style="fill: none; stroke: #f29888; stroke-width: 0.2"/>
    <path d="M 251.167915 605.428815 
L 265.47609 589.525411 
L 277.338319 578.148855 
L 286.388452 568.974279 
L 295.438585 559.678825 
L 305.588518 545.733631 
L 312.558857 535.213288 
L 320.507843 529.342688 
" clip-path="url(#pfccd00baa7)" style="fill: none; stroke: #f29888; stroke-width: 0.2"/>
    <path d="M 320.507843 529.342688 
L 318.08882 510.753795 
L 296.014735 507.274548 
L 266.497814 500.745167 
L 261.479385 499.635111 
L 238.804919 493.278987 
L 223.711941 489.521722 
L 220.396386 488.151781 
" clip-path="url(#pfccd00baa7)" style="fill: none; stroke: #f29888; stroke-width: 0.2"/>
    <path d="M 266.497814 500.745167 
L 270.447403 491.407406 
L 273.305269 489.882339 
L 313.039431 498.649963 
" clip-path="url(#pfccd00baa7)" style="fill: none; stroke: #f29888; stroke-width: 0.2"/>
    <path d="M 328.897019 493.508654 
L 329.980665 489.318246 
L 331.135658 487.513147 
L 335.790627 488.570822 
L 339.873485 489.499562 
" clip-path="url(#pfccd00baa7)" style="fill: none; stroke: #f29888; stroke-width: 0.2"/>
    <path d="M 335.790627 488.570822 
L 338.721185 472.433721 
L 339.38618 469.29293 
" clip-path="url(#pfccd00baa7)" style="fill: none; stroke: #f29888; stroke-width: 0.2"/>
    <path d="M 276.094481 409.742798 
L 292.136491 415.216518 
L 321.310145 425.110314 
L 354.31089 433.19901 
L 365.43274 438.183178 
L 371.859236 440.060804 
L 382.546281 442.010955 
L 392.151026 442.444098 
L 402.983454 442.156008 
L 411.287823 441.287707 
L 418.435853 439.915751 
L 424.430236 440.060804 
L 431.362883 441.722865 
" clip-path="url(#pfccd00baa7)" style="fill: none; stroke: #f29888; stroke-width: 0.2"/>
    <path d="M 505.631048 347.748932 
L 512.707733 380.248771 
L 517.257703 402.8528 
L 524.478424 420.402148 
L 529.243778 430.946666 
L 535.888349 448.352977 
L 542.965034 474.716285 
L 545.637131 481.650605 
L 551.242479 483.238125 
" clip-path="url(#pfccd00baa7)" style="fill: none; stroke: #f29888; stroke-width: 0.2"/>
    <path d="M 339.38618 469.29293 
L 348.261314 450.377669 
L 349.164578 448.54638 
L 351.164949 444.486922 
L 351.081488 439.343599 
L 354.31089 433.19901 
L 356.694913 428.14433 
L 356.044725 424.098975 
L 348.751311 412.40008 
L 340.294828 396.956009 
L 338.567724 395.293948 
L 297.036459 383.397621 
L 283.479433 380.005002 
L 256.634609 372.975995 
L 208.835693 359.377315 
" clip-path="url(#pfccd00baa7)" style="fill: none; stroke: #f29888; stroke-width: 0.2"/>
    <path d="M 399.74463 451.540105 
L 389.359121 451.540105 
L 380.782831 452.398332 
L 368.395605 452.208958 
L 362.297568 451.636806 
L 349.164578 448.54638 
L 340.286751 446.870217 
L 319.799771 442.677794 
L 303.125073 436.768916 
L 293.311676 433.624095 
L 288.069787 431.623578 
L 282.924821 426.667614 
L 271.294128 421.02668 
L 265.488205 418.186067 
L 251.194837 413.135417 
L 241.836437 408.834204 
L 232.328615 404.46248 
L 219.656006 399.031067 
L 199.930944 391.883197 
L 165.056366 379.11454 
L 151.33511 373.969202 
" clip-path="url(#pfccd00baa7)" style="fill: none; stroke: #f29888; stroke-width: 0.2"/>
    <path d="M 194.057713 519.311898 
L 203.764765 507.826554 
L 220.396386 488.151781 
L 256.669609 441.902166 
L 258.505751 439.561178 
L 266.143778 428.656044 
L 271.294128 421.02668 
L 273.890842 415.786656 
L 276.094481 409.742798 
L 276.282942 408.991345 
L 279.637535 395.479293 
L 283.479433 380.005002 
L 291.736686 346.298406 
L 295.924543 336.628233 
L 299.703172 330.072662 
L 301.918927 326.228769 
L 309.108687 318.555084 
L 311.595017 315.90183 
L 323.582438 306.731283 
L 336.868889 300.520211 
L 353.775124 297.409639 
" clip-path="url(#pfccd00baa7)" style="fill: none; stroke: #f29888; stroke-width: 0.2"/>
    <path d="M 502.71126 513.086725 
L 520.211145 514.329745 
L 542.267731 516.594177 
L 546.32905 515.866899 
L 556.13437 513.900631 
L 572.924837 510.858556 
L 586.239557 506.778951 
L 614.803407 500.408725 
L 619.4853 497.18332 
L 629.250235 494.028426 
" clip-path="url(#pfccd00baa7)" style="fill: none; stroke: #f29888; stroke-width: 0.2"/>
    <path d="M 662.413572 508.478273 
L 661.808098 508.235521 
L 660.457915 507.967577 
L 658.232737 507.780217 
L 655.697946 507.826554 
L 652.958541 508.16501 
L 649.473372 509.178363 
L 645.817242 510.185673 
L 635.670001 512.05121 
L 628.939276 510.70343 
L 622.104898 508.424895 
L 614.803407 500.408725 
L 615.069944 496.347253 
L 613.408801 484.503306 
L 612.905343 483.385192 
" clip-path="url(#pfccd00baa7)" style="fill: none; stroke: #f29888; stroke-width: 0.2"/>
    <path d="M 577.418269 480.363263 
L 596.618335 480.242386 
L 609.083637 482.692163 
L 612.905343 483.385192 
L 619.364147 481.588152 
L 630.456381 480.187991 
L 632.938673 479.875725 
" clip-path="url(#pfccd00baa7)" style="fill: none; stroke: #f29888; stroke-width: 0.2"/>
    <path d="M 680.58365 498.756583 
L 682.918344 497.177276 
L 683.1115 497.073194 
" clip-path="url(#pfccd00baa7)" style="fill: none; stroke: #f29888; stroke-width: 0.2"/>
    <path d="M 546.32905 515.866899 
L 545.261557 502.912897 
L 546.746355 495.190861 
L 551.242479 483.238125 
L 554.763995 473.878203 
L 560.703186 454.497566 
L 562.337406 446.181217 
L 561.37222 438.978953 
L 560.299343 422.747165 
L 560.258958 422.122633 
L 556.174754 408.904716 
L 553.872847 393.684267 
L 552.833623 376.531798 
L 551.868437 365.691132 
" clip-path="url(#pfccd00baa7)" style="fill: none; stroke: #f29888; stroke-width: 0.2"/>
    <path d="M 630.615226 390.098245 
L 628.046782 403.430995 
L 627.190633 414.0702 
L 631.226376 453.822668 
L 629.51408 465.320101 
L 630.456381 480.187991 
" clip-path="url(#pfccd00baa7)" style="fill: none; stroke: #f29888; stroke-width: 0.2"/>
    <path d="M 560.299343 422.747165 
L 587.32455 425.446755 
" clip-path="url(#pfccd00baa7)" style="fill: none; stroke: #f29888; stroke-width: 0.2"/>
    <path d="M 559.587232 263.124848 
L 559.476848 270.647436 
L 559.429733 273.800316 
L 560.657417 281.455869 
L 564.051049 293.587906 
L 569.900049 302.685927 
L 572.716184 310.629571 
L 577.3375 332.079223 
L 586.075327 362.769934 
L 586.345902 374.934205 
L 586.589554 405.02053 
L 587.32455 425.446755 
L 588.42435 438.533722 
L 590.502798 464.340996 
L 596.618335 480.242386 
" clip-path="url(#pfccd00baa7)" style="fill: none; stroke: #f29888; stroke-width: 0.2"/>
    <path d="M 256.669609 441.902166 
L 244.22046 441.56371 
L 232.305731 437.808459 
L 204.141685 428.49286 
L 159.080828 412.531031 
L 143.359201 407.006945 
L 111.998061 395.991006 
L 107.810204 395.775442 
L 105.812524 395.299992 
L 104.940222 395.092486 
" clip-path="url(#pfccd00baa7)" style="fill: none; stroke: #f29888; stroke-width: 0.2"/>
    <path d="M 143.359201 407.006945 
L 139.728648 418.308959 
L 136.767129 420.907818 
L 130.267941 421.919157 
L 118.06379 419.463336 
L 94.125294 413.570574 
" clip-path="url(#pfccd00baa7)" style="fill: none; stroke: #f29888; stroke-width: 0.2"/>
    <path d="M 104.940222 395.092486 
L 122.110302 383.145793 
L 136.378093 374.186781 
L 152.387795 364.149948 
L 155.871618 362.157489 
" clip-path="url(#pfccd00baa7)" style="fill: none; stroke: #f29888; stroke-width: 0.2"/>
    <path d="M 208.835693 359.377315 
L 205.001872 373.191559 
L 199.930944 391.883197 
" clip-path="url(#pfccd00baa7)" style="fill: none; stroke: #f29888; stroke-width: 0.2"/>
    <path d="M 169.75845 360.056241 
L 189.459282 365.199565 
L 205.001872 373.191559 
L 252.528867 387.956704 
" clip-path="url(#pfccd00baa7)" style="fill: none; stroke: #f29888; stroke-width: 0.2"/>
    <path d="M 155.871618 362.157489 
L 152.802408 360.997069 
L 145.336688 361.329481 
L 123.188564 364.977956 
L 109.418847 369.126058 
L 105.852909 371.283715 
L 96.39624 377.339661 
L 91.501657 381.320548 
" clip-path="url(#pfccd00baa7)" style="fill: none; stroke: #f29888; stroke-width: 0.2"/>
    <path d="M 169.75845 360.056241 
L 162.922726 362.739714 
L 155.871618 362.157489 
" clip-path="url(#pfccd00baa7)" style="fill: none; stroke: #f29888; stroke-width: 0.2"/>
    <path d="M 158.250256 325.287941 
L 160.028514 329.355458 
L 160.356973 337.456242 
L 158.714676 344.789456 
L 156.634882 350.919943 
" clip-path="url(#pfccd00baa7)" style="fill: none; stroke: #f29888; stroke-width: 0.2"/>
    <path d="M 101.456399 349.7978 
L 111.575371 334.285231 
L 120.617427 326.238842 
L 128.746797 321.012919 
L 134.636181 319.10306 
L 143.760352 321.758328 
L 157.198917 325.408818 
L 158.250256 325.287941 
L 170.803059 323.833386 
L 175.116107 321.840928 
" clip-path="url(#pfccd00baa7)" style="fill: none; stroke: #f29888; stroke-width: 0.2"/>
    <path d="M 130.737745 309.316039 
L 141.521713 315.869596 
L 157.61353 319.435472 
L 169.392299 321.675729 
L 175.116107 321.840928 
L 180.259727 322.75355 
L 198.259032 327.481862 
L 200.583824 328.481113 
L 204.810719 330.2983 
L 212.471631 328.984768 
L 229.84767 328.311885 
" clip-path="url(#pfccd00baa7)" style="fill: none; stroke: #f29888; stroke-width: 0.2"/>
    <path d="M 279.637535 395.479293 
L 339.146567 410.23235 
L 348.751311 412.40008 
" clip-path="url(#pfccd00baa7)" style="fill: none; stroke: #f29888; stroke-width: 0.2"/>
    <path d="M 256.634609 372.975995 
L 252.528867 387.956704 
L 248.906391 401.180666 
L 247.22371 405.759895 
L 245.891026 407.0835 
L 241.836437 408.834204 
" clip-path="url(#pfccd00baa7)" style="fill: none; stroke: #f29888; stroke-width: 0.2"/>
    <path d="M 229.84767 328.311885 
L 251.081761 334.551161 
L 291.736686 346.298406 
" clip-path="url(#pfccd00baa7)" style="fill: none; stroke: #f29888; stroke-width: 0.2"/>
    <path d="M 299.703172 330.072662 
L 286.124608 324.002614 
L 260.698621 315.605681 
" clip-path="url(#pfccd00baa7)" style="fill: none; stroke: #f29888; stroke-width: 0.2"/>
    <path d="M 488.229432 274.894254 
L 487.721935 288.748791 
L 490.682108 299.148256 
L 496.964567 319.512028 
L 505.631048 347.748932 
" clip-path="url(#pfccd00baa7)" style="fill: none; stroke: #f29888; stroke-width: 0.2"/>
    <path d="M 264.465135 301.402615 
L 302.056234 314.272003 
L 309.108687 318.555084 
" clip-path="url(#pfccd00baa7)" style="fill: none; stroke: #f29888; stroke-width: 0.2"/>
    <path d="M 277.728701 288.295501 
L 307.156777 298.968955 
L 307.392352 305.87507 
L 309.108687 318.555084 
" clip-path="url(#pfccd00baa7)" style="fill: none; stroke: #f29888; stroke-width: 0.2"/>
    <path d="M 688.141014 239.298052 
L 634.43424 250.968635 
L 590.272607 258.132621 
L 563.447976 262.484199 
L 559.587232 263.124848 
L 528.566667 268.264142 
L 488.229432 274.894254 
L 431.185192 284.272307 
L 366.306388 295.793915 
L 353.775124 297.409639 
L 352.188019 293.928377 
L 336.642737 277.9323 
L 315.582299 254.405575 
L 264.903978 237.529109 
L 246.459099 231.386535 
L 239.390492 229.03346 
L 207.669931 219.220249 
L 204.633028 230.024652 
L 178.725122 223.984824 
L 172.749584 224.359543 
L 168.408267 224.633531 
L 160.708317 229.472647 
L 155.354699 235.437935 
L 129.417177 276.181596 
L 120.212237 283.160237 
L 114.99552 284.639938 
" clip-path="url(#pfccd00baa7)" style="fill: none; stroke: #f29888; stroke-width: 0.2"/>
    <path d="M 272.63085 210.77698 
L 254.125395 204.894291 
" clip-path="url(#pfccd00baa7)" style="fill: none; stroke: #f29888; stroke-width: 0.2"/>
    <path d="M 246.459099 231.386535 
L 254.125395 204.894291 
L 260.009395 178.627684 
" clip-path="url(#pfccd00baa7)" style="fill: none; stroke: #f29888; stroke-width: 0.2"/>
    <path d="M 551.868437 365.691132 
L 545.99386 344.265655 
L 536.778151 316.927271 
" clip-path="url(#pfccd00baa7)" style="fill: none; stroke: #f29888; stroke-width: 0.2"/>
    <path d="M 590.272607 258.132621 
L 590.501452 262.353249 
L 592.933936 266.928449 
L 596.958909 272.202722 
L 600.570616 278.715987 
L 604.949626 284.133298 
L 610.421705 287.910709 
L 613.815337 288.184697 
" clip-path="url(#pfccd00baa7)" style="fill: none; stroke: #f29888; stroke-width: 0.2"/>
    <path d="M 545.863284 271.693024 
L 559.476848 270.647436 
L 592.933936 266.928449 
" clip-path="url(#pfccd00baa7)" style="fill: none; stroke: #f29888; stroke-width: 0.2"/>
    <path d="M 599.337547 142.022052 
L 594.753924 151.043517 
L 588.428388 163.495879 
L 586.981283 167.285378 
L 580.724401 183.672291 
L 573.631563 218.033638 
L 564.58143 247.259721 
L 563.447976 262.484199 
" clip-path="url(#pfccd00baa7)" style="fill: none; stroke: #f29888; stroke-width: 0.2"/>
    <path d="M 527.142445 103.919556 
L 530.787806 108.752628 
L 550.4496 118.29588 
L 561.886448 123.846156 
L 596.524104 140.65614 
L 599.337547 142.022052 
L 614.682254 149.470099 
L 648.185111 166.042358 
L 652.671603 162.080961 
" clip-path="url(#pfccd00baa7)" style="fill: none; stroke: #f29888; stroke-width: 0.2"/>
    <path d="M 216.216606 188.136688 
L 186.706415 181.119769 
" clip-path="url(#pfccd00baa7)" style="fill: none; stroke: #f29888; stroke-width: 0.2"/>
    <path d="M 172.749584 224.359543 
L 161.746195 219.955585 
L 151.707992 217.141162 
L 150.841074 213.168333 
L 151.057804 204.070312 
L 153.008368 182.048508 
L 155.247007 168.183898 
L 160.01236 141.973701 
" clip-path="url(#pfccd00baa7)" style="fill: none; stroke: #f29888; stroke-width: 0.2"/>
    <path d="M 178.725122 223.984824 
L 182.999132 207.622086 
L 185.558154 191.93223 
L 186.706415 181.119769 
L 187.604294 172.658367 
L 191.613114 152.705578 
L 193.139642 139.598465 
L 194.085982 131.473505 
L 194.683671 121.239239 
L 194.378096 119.613441 
L 194.170789 118.511444 
L 193.745408 115.441164 
L 201.079206 70.847566 
" clip-path="url(#pfccd00baa7)" style="fill: none; stroke: #f29888; stroke-width: 0.2"/>
    <path d="M 172.594777 114.417738 
L 177.19994 114.760223 
L 194.378096 119.613441 
L 204.063609 120.558297 
L 210.375683 121.154625 
L 213.531047 120.898768 
L 214.419502 119.959955 
L 215.065652 119.279014 
L 216.174875 112.542127 
L 224.873664 65.561205 
" clip-path="url(#pfccd00baa7)" style="fill: none; stroke: #f29888; stroke-width: 0.2"/>
    <path d="M 183.937395 67.8619 
L 177.19994 114.760223 
" clip-path="url(#pfccd00baa7)" style="fill: none; stroke: #f29888; stroke-width: 0.2"/>
    <path d="M 155.435467 104.241896 
L 155.761234 95.973898 
L 156.229693 94.132536 
L 160.599279 93.699393 
L 162.440806 93.302513 
L 163.198685 87.816704 
L 164.402139 87.252611 
L 167.879232 65.676038 
L 169.58749 65.385933 
" clip-path="url(#pfccd00baa7)" style="fill: none; stroke: #f29888; stroke-width: 0.2"/>
    <path d="M 169.58749 65.385933 
L 183.937395 67.8619 
L 201.079206 70.847566 
" clip-path="url(#pfccd00baa7)" style="fill: none; stroke: #f29888; stroke-width: 0.2"/>
    <path d="M 201.079206 70.847566 
L 203.005539 58.600695 
L 207.134166 49.615493 
L 208.689474 45.484978 
" clip-path="url(#pfccd00baa7)" style="fill: none; stroke: #f29888; stroke-width: 0.2"/>
    <path d="M 290.710924 190.822175 
L 260.009395 178.627684 
L 218.988318 163.449543 
L 191.613114 152.705578 
" clip-path="url(#pfccd00baa7)" style="fill: none; stroke: #f29888; stroke-width: 0.2"/>
    <path d="M 193.139642 139.598465 
L 214.183927 144.270367 
L 247.187364 152.115294 
L 265.638973 155.55022 
L 266.888196 155.781901 
L 294.520514 161.835833 
L 322.066679 167.635922 
" clip-path="url(#pfccd00baa7)" style="fill: none; stroke: #f29888; stroke-width: 0.2"/>
    <path d="M 270.818939 135.406042 
L 265.638973 155.55022 
" clip-path="url(#pfccd00baa7)" style="fill: none; stroke: #f29888; stroke-width: 0.2"/>
    <path d="M 270.818939 135.406042 
L 284.467503 136.848509 
L 309.959451 141.975715 
L 317.396902 143.059581 
L 329.817782 144.213957 
" clip-path="url(#pfccd00baa7)" style="fill: none; stroke: #f29888; stroke-width: 0.2"/>
    <path d="M 270.818939 135.406042 
L 254.426932 129.412549 
L 231.969195 123.491583 
L 220.775999 122.409733 
L 214.419502 119.959955 
" clip-path="url(#pfccd00baa7)" style="fill: none; stroke: #f29888; stroke-width: 0.2"/>
    <path d="M 238.514809 45.073341 
L 242.924123 48.600125 
L 343.566042 70.138438 
" clip-path="url(#pfccd00baa7)" style="fill: none; stroke: #f29888; stroke-width: 0.2"/>
    <path d="M 484.398303 136.187714 
L 491.329604 136.649062 
L 495.26304 136.910962 
L 497.614755 134.789568 
L 500.539928 132.152432 
L 509.65333 124.09194 
L 511.301011 122.63537 
L 516.991166 114.256568 
L 522.348823 108.800979 
L 527.142445 103.919556 
L 528.269169 102.773238 
L 529.395892 101.504028 
L 533.540673 96.83817 
L 537.171015 92.750469 
" clip-path="url(#pfccd00baa7)" style="fill: none; stroke: #f29888; stroke-width: 0.2"/>
   </g>
  </g>
 </g>
 <defs>
  <clipPath id="pfccd00baa7">
   <rect x="7.2" y="7.2" width="743.592994" height="831.6"/>
  </clipPath>
 </defs>
</svg>
