<?xml version="1.0" encoding="utf-8" standalone="no"?>
<!DOCTYPE svg PUBLIC "-//W3C//DTD SVG 1.1//EN"
  "http://www.w3.org/Graphics/SVG/1.1/DTD/svg11.dtd">
<svg xmlns:xlink="http://www.w3.org/1999/xlink" width="851.4pt" height="602.923475pt" viewBox="0 0 851.4 602.923475" xmlns="http://www.w3.org/2000/svg" version="1.1">
 <metadata>
  <rdf:RDF xmlns:dc="http://purl.org/dc/elements/1.1/" xmlns:cc="http://creativecommons.org/ns#" xmlns:rdf="http://www.w3.org/1999/02/22-rdf-syntax-ns#">
   <cc:Work>
    <dc:type rdf:resource="http://purl.org/dc/dcmitype/StillImage"/>
    <dc:date>2025-03-16T14:38:40.861546</dc:date>
    <dc:format>image/svg+xml</dc:format>
    <dc:creator>
     <cc:Agent>
      <dc:title>Matplotlib v3.10.1, https://matplotlib.org/</dc:title>
     </cc:Agent>
    </dc:creator>
   </cc:Work>
  </rdf:RDF>
 </metadata>
 <defs>
  <style type="text/css">*{stroke-linejoin: round; stroke-linecap: butt}</style>
 </defs>
 <g id="figure_1">
  <g id="patch_1">
   <path d="M 0 602.923475 
L 851.4 602.923475 
L 851.4 0 
L 0 0 
z
" style="fill: #ffffff"/>
  </g>
  <g id="axes_1">
   <g id="PatchCollection_1">
    <path d="M 293.515087 76.469319 
L 357.449185 283.037161 
L 225.38094 270.990323 
L 189.447177 441.417651 
L 45.245455 459.487908 
L 53.178883 544.878731 
L 493.717479 568.972408 
L 501.650907 502.00616 
L 685.986443 398.899399 
L 661.952823 301.461737 
L 806.154545 252.920066 
L 782.120925 161.505824 
L 641.885916 204.024076 
L 589.851961 106.940733 
L 481.817337 118.987571 
L 441.683524 33.951067 
L 293.515087 76.469319 
" clip-path="url(#p04c399e45c)" style="fill: #fbd6c9"/>
   </g>
   <g id="PatchCollection_2">
    <path d="M 353.160467 470.56037 
L 354.992155 470.234396 
L 355.514828 473.189415 
L 353.680806 473.515388 
L 353.160467 470.56037 
" clip-path="url(#p04c399e45c)" style="fill: #e6482f"/>
    <path d="M 349.716426 470.372581 
L 351.550447 470.046607 
L 352.07312 473.001626 
L 350.239098 473.327599 
L 349.716426 470.372581 
" clip-path="url(#p04c399e45c)" style="fill: #e6482f"/>
    <path d="M 373.876048 469.557647 
L 375.710069 469.235217 
L 376.230409 472.190236 
L 374.396387 472.512666 
L 373.876048 469.557647 
" clip-path="url(#p04c399e45c)" style="fill: #e6482f"/>
    <path d="M 360.470887 467.743535 
L 362.974584 467.491969 
L 363.662925 472.186693 
L 361.159229 472.374482 
L 360.470887 467.743535 
" clip-path="url(#p04c399e45c)" style="fill: #e6482f"/>
    <path d="M 369.682997 467.615981 
L 371.514686 467.293551 
L 372.037359 470.248569 
L 370.203337 470.570999 
L 369.682997 467.615981 
" clip-path="url(#p04c399e45c)" style="fill: #e6482f"/>
    <path d="M 170.649619 445.283269 
L 163.763871 446.034424 
L 163.613758 444.654897 
L 170.48659 443.793647 
L 170.649619 445.283269 
" clip-path="url(#p04c399e45c)" style="fill: #e6482f"/>
    <path d="M 407.593117 432.69078 
L 409.427139 432.36835 
L 409.947478 435.323368 
L 408.11579 435.645798 
L 407.593117 432.69078 
" clip-path="url(#p04c399e45c)" style="fill: #e6482f"/>
    <path d="M 412.427841 431.688057 
L 414.261863 431.365627 
L 414.782203 434.320646 
L 412.950514 434.643076 
L 412.427841 431.688057 
" clip-path="url(#p04c399e45c)" style="fill: #e6482f"/>
    <path d="M 430.954729 430.81289 
L 432.786418 430.49046 
L 433.309091 433.445479 
L 431.475069 433.767909 
L 430.954729 430.81289 
" clip-path="url(#p04c399e45c)" style="fill: #e6482f"/>
    <path d="M 524.524847 429.718045 
L 527.667885 429.012951 
L 528.120557 431.032568 
L 524.977519 431.737662 
L 524.524847 429.718045 
" clip-path="url(#p04c399e45c)" style="fill: #e6482f"/>
    <path d="M 509.750004 421.738786 
L 511.581693 421.412813 
L 512.104366 424.367832 
L 510.270344 424.693805 
L 509.750004 421.738786 
" clip-path="url(#p04c399e45c)" style="fill: #e6482f"/>
    <path d="M 512.634039 416.009452 
L 515.777076 415.307901 
L 516.229748 417.327518 
L 513.086711 418.032612 
L 512.634039 416.009452 
" clip-path="url(#p04c399e45c)" style="fill: #e6482f"/>
    <path d="M 521.036472 414.319351 
L 524.177177 413.6178 
L 524.632182 415.637417 
L 521.489144 416.342512 
L 521.036472 414.319351 
" clip-path="url(#p04c399e45c)" style="fill: #e6482f"/>
    <path d="M 466.006482 412.756806 
L 469.149519 412.051711 
L 469.602191 414.071328 
L 466.459154 414.776423 
L 466.006482 412.756806 
" clip-path="url(#p04c399e45c)" style="fill: #e6482f"/>
    <path d="M 511.815029 409.344716 
L 513.646717 409.022286 
L 514.16939 411.977304 
L 512.335368 412.299734 
L 511.815029 409.344716 
" clip-path="url(#p04c399e45c)" style="fill: #e6482f"/>
    <path d="M 510.443012 405.433037 
L 513.58605 404.727942 
L 514.038722 406.747559 
L 510.895685 407.452654 
L 510.443012 405.433037 
" clip-path="url(#p04c399e45c)" style="fill: #e6482f"/>
    <path d="M 520.070461 392.638586 
L 521.976817 391.968924 
L 522.560157 393.630679 
L 520.653801 394.300341 
L 520.070461 392.638586 
" clip-path="url(#p04c399e45c)" style="fill: #e6482f"/>
    <path d="M 505.874291 386.406119 
L 509.017329 385.701025 
L 509.470001 387.720642 
L 506.326963 388.425736 
L 505.874291 386.406119 
" clip-path="url(#p04c399e45c)" style="fill: #e6482f"/>
    <path d="M 504.112603 378.178837 
L 506.016626 377.512718 
L 506.599967 379.174473 
L 504.695944 379.840592 
L 504.112603 378.178837 
" clip-path="url(#p04c399e45c)" style="fill: #e6482f"/>
    <path d="M 509.628669 371.13498 
L 512.771707 370.429886 
L 513.224379 372.449503 
L 510.081341 373.154597 
L 509.628669 371.13498 
" clip-path="url(#p04c399e45c)" style="fill: #e6482f"/>
    <path d="M 505.556954 356.395319 
L 507.388643 356.069346 
L 507.911316 359.024364 
L 506.077294 359.346795 
L 505.556954 356.395319 
" clip-path="url(#p04c399e45c)" style="fill: #e6482f"/>
    <path d="M 494.975161 348.511727 
L 496.879184 347.845607 
L 497.462524 349.507362 
L 495.558501 350.173482 
L 494.975161 348.511727 
" clip-path="url(#p04c399e45c)" style="fill: #e6482f"/>
    <path d="M 545.919436 344.883502 
L 547.823459 344.21384 
L 548.406799 345.875595 
L 546.502777 346.545257 
L 545.919436 344.883502 
" clip-path="url(#p04c399e45c)" style="fill: #e6482f"/>
    <path d="M 503.986602 344.755948 
L 505.892958 344.089828 
L 506.476298 345.751583 
L 504.569942 346.421246 
L 503.986602 344.755948 
" clip-path="url(#p04c399e45c)" style="fill: #e6482f"/>
    <path d="M 492.973137 343.629214 
L 494.87716 342.963095 
L 495.4605 344.62485 
L 493.554144 345.294512 
L 492.973137 343.629214 
" clip-path="url(#p04c399e45c)" style="fill: #e6482f"/>
    <path d="M 490.343439 338.1231 
L 492.247462 337.453438 
L 492.830802 339.118736 
L 490.926779 339.784855 
L 490.343439 338.1231 
" clip-path="url(#p04c399e45c)" style="fill: #e6482f"/>
    <path d="M 540.170034 328.198632 
L 543.313072 327.493537 
L 543.765744 329.513154 
L 540.62504 330.218249 
L 540.170034 328.198632 
" clip-path="url(#p04c399e45c)" style="fill: #e6482f"/>
    <path d="M 536.030652 324.226718 
L 537.934674 323.560599 
L 538.518015 325.222354 
L 536.613992 325.892016 
L 536.030652 324.226718 
" clip-path="url(#p04c399e45c)" style="fill: #e6482f"/>
    <path d="M 546.983449 319.15996 
L 548.887472 318.490297 
L 549.470812 320.152052 
L 547.566789 320.821715 
L 546.983449 319.15996 
" clip-path="url(#p04c399e45c)" style="fill: #e6482f"/>
    <path d="M 607.513172 361.118388 
L 610.65621 360.413294 
L 611.108882 362.436454 
L 607.965844 363.141549 
L 607.513172 361.118388 
" clip-path="url(#p04c399e45c)" style="fill: #e6482f"/>
    <path d="M 617.705294 349.953804 
L 619.609317 349.284141 
L 620.192657 350.945897 
L 618.288634 351.615559 
L 617.705294 349.953804 
" clip-path="url(#p04c399e45c)" style="fill: #e6482f"/>
    <path d="M 615.273932 346.474394 
L 618.416969 345.769299 
L 618.869641 347.788916 
L 615.726604 348.494011 
L 615.273932 346.474394 
" clip-path="url(#p04c399e45c)" style="fill: #e6482f"/>
    <path d="M 604.750473 343.817003 
L 606.654495 343.150884 
L 607.237836 344.812639 
L 605.333813 345.482301 
L 604.750473 343.817003 
" clip-path="url(#p04c399e45c)" style="fill: #e6482f"/>
    <path d="M 603.247788 338.310889 
L 605.151811 337.641227 
L 605.735151 339.306525 
L 603.831128 339.972644 
L 603.247788 338.310889 
" clip-path="url(#p04c399e45c)" style="fill: #e6482f"/>
    <path d="M 553.054855 337.184156 
L 554.958878 336.514493 
L 555.542218 338.179791 
L 553.638195 338.845911 
L 553.054855 337.184156 
" clip-path="url(#p04c399e45c)" style="fill: #e6482f"/>
    <path d="M 600.002082 333.892534 
L 603.14512 333.18744 
L 603.597792 335.2106 
L 600.454755 335.915694 
L 600.002082 333.892534 
" clip-path="url(#p04c399e45c)" style="fill: #e6482f"/>
    <path d="M 610.257205 331.865831 
L 612.161228 331.196168 
L 612.744568 332.857923 
L 610.840545 333.527586 
L 610.257205 331.865831 
" clip-path="url(#p04c399e45c)" style="fill: #e6482f"/>
    <path d="M 600.244752 330.739097 
L 602.148775 330.069435 
L 602.732115 331.73119 
L 600.828092 332.400852 
L 600.244752 330.739097 
" clip-path="url(#p04c399e45c)" style="fill: #e6482f"/>
    <path d="M 549.048474 325.353452 
L 550.952496 324.687333 
L 551.535837 326.349088 
L 549.631814 327.01875 
L 549.048474 325.353452 
" clip-path="url(#p04c399e45c)" style="fill: #e6482f"/>
    <path d="M 606.941499 319.407983 
L 608.845521 318.741864 
L 609.428862 320.403619 
L 607.524839 321.073281 
L 606.941499 319.407983 
" clip-path="url(#p04c399e45c)" style="fill: #e6482f"/>
    <path d="M 595.9257 314.653025 
L 597.829723 313.983363 
L 598.413063 315.645118 
L 596.509041 316.31478 
L 595.9257 314.653025 
" clip-path="url(#p04c399e45c)" style="fill: #e6482f"/>
    <path d="M 605.126144 313.40228 
L 607.030166 312.732617 
L 607.613507 314.394372 
L 605.709484 315.064035 
L 605.126144 313.40228 
" clip-path="url(#p04c399e45c)" style="fill: #e6482f"/>
    <path d="M 594.047345 310.397657 
L 595.953701 309.727994 
L 596.537041 311.389749 
L 594.630685 312.059412 
L 594.047345 310.397657 
" clip-path="url(#p04c399e45c)" style="fill: #e6482f"/>
    <path d="M 651.511031 310.110658 
L 654.654069 309.405564 
L 655.106741 311.425181 
L 651.963703 312.130275 
L 651.511031 310.110658 
" clip-path="url(#p04c399e45c)" style="fill: #e6482f"/>
    <path d="M 603.294455 306.783605 
L 605.200811 306.113943 
L 605.784152 307.775698 
L 603.877795 308.44536 
L 603.294455 306.783605 
" clip-path="url(#p04c399e45c)" style="fill: #e6482f"/>
    <path d="M 592.983332 305.702933 
L 594.889688 305.03327 
L 595.473028 306.695026 
L 593.566672 307.364688 
L 592.983332 305.702933 
" clip-path="url(#p04c399e45c)" style="fill: #e6482f"/>
    <path d="M 649.037668 301.95424 
L 651.44103 301.270405 
L 652.948382 306.567471 
L 650.54502 307.247763 
L 649.037668 301.95424 
" clip-path="url(#p04c399e45c)" style="fill: #e6482f"/>
    <path d="M 601.934106 301.383787 
L 603.838128 300.714125 
L 604.421469 302.379423 
L 602.517446 303.045542 
L 601.934106 301.383787 
" clip-path="url(#p04c399e45c)" style="fill: #e6482f"/>
    <path d="M 637.45953 295.757205 
L 639.862892 295.07337 
L 641.370243 300.370435 
L 638.966881 301.054271 
L 637.45953 295.757205 
" clip-path="url(#p04c399e45c)" style="fill: #e6482f"/>
    <path d="M 438.087815 428.183845 
L 439.921837 427.861415 
L 440.442176 430.816433 
L 438.610488 431.138863 
L 438.087815 428.183845 
" clip-path="url(#p04c399e45c)" style="fill: #e6482f"/>
    <path d="M 447.852931 426.245721 
L 449.68462 425.919748 
L 450.207293 428.874766 
L 448.373271 429.197197 
L 447.852931 426.245721 
" clip-path="url(#p04c399e45c)" style="fill: #e6482f"/>
    <path d="M 453.109994 425.5548 
L 454.941683 425.23237 
L 455.464356 428.187388 
L 453.630334 428.509818 
L 453.109994 425.5548 
" clip-path="url(#p04c399e45c)" style="fill: #e6482f"/>
    <path d="M 454.241674 399.987157 
L 457.384712 399.282063 
L 457.837384 401.305223 
L 454.694346 402.006774 
L 454.241674 399.987157 
" clip-path="url(#p04c399e45c)" style="fill: #e6482f"/>
    <path d="M 449.850289 381.810604 
L 451.754311 381.140942 
L 452.337652 382.802697 
L 450.433629 383.472359 
L 449.850289 381.810604 
" clip-path="url(#p04c399e45c)" style="fill: #e6482f"/>
    <path d="M 457.048708 378.430403 
L 458.952731 377.760741 
L 459.536071 379.422496 
L 457.632048 380.092158 
L 457.048708 378.430403 
" clip-path="url(#p04c399e45c)" style="fill: #e6482f"/>
    <path d="M 377.259421 374.387626 
L 380.402459 373.682532 
L 380.857464 375.705692 
L 377.714427 376.410786 
L 377.259421 374.387626 
" clip-path="url(#p04c399e45c)" style="fill: #e6482f"/>
    <path d="M 441.650857 362.719909 
L 443.557213 362.050247 
L 444.140554 363.715545 
L 442.234198 364.381664 
L 441.650857 362.719909 
" clip-path="url(#p04c399e45c)" style="fill: #e6482f"/>
    <path d="M 401.272041 272.304846 
L 404.296078 272.255241 
L 404.20041 266.263711 
L 407.728452 266.20702 
L 407.901121 277.013742 
L 401.349042 277.120038 
L 401.272041 272.304846 
" clip-path="url(#p04c399e45c)" style="fill: #e6482f"/>
    <path d="M 455.613691 170.013017 
L 457.445379 169.690587 
L 457.968052 172.645606 
L 456.13403 172.968036 
L 455.613691 170.013017 
" clip-path="url(#p04c399e45c)" style="fill: #e6482f"/>
    <path d="M 544.167082 316.591149 
L 546.071105 315.925029 
L 546.654445 317.586784 
L 544.750422 318.256447 
L 544.167082 316.591149 
" clip-path="url(#p04c399e45c)" style="fill: #e6482f"/>
    <path d="M 536.406323 313.650303 
L 538.310345 312.984184 
L 538.893686 314.645939 
L 536.989663 315.312058 
L 536.406323 313.650303 
" clip-path="url(#p04c399e45c)" style="fill: #e6482f"/>
    <path d="M 545.417764 309.207146 
L 547.32412 308.537483 
L 547.90746 310.202781 
L 546.001104 310.868901 
L 545.417764 309.207146 
" clip-path="url(#p04c399e45c)" style="fill: #e6482f"/>
    <path d="M 541.546717 304.416756 
L 544.689755 303.711661 
L 545.14476 305.731278 
L 542.001723 306.436373 
L 541.546717 304.416756 
" clip-path="url(#p04c399e45c)" style="fill: #e6482f"/>
    <path d="M 532.651944 303.261677 
L 534.555967 302.592014 
L 535.139308 304.257312 
L 533.235285 304.923432 
L 532.651944 303.261677 
" clip-path="url(#p04c399e45c)" style="fill: #e6482f"/>
    <path d="M 500.988233 212.51001 
L 502.819921 212.184037 
L 503.342594 215.139056 
L 501.508572 215.461486 
L 500.988233 212.51001 
" clip-path="url(#p04c399e45c)" style="fill: #e6482f"/>
    <path d="M 490.159103 203.807941 
L 491.993125 203.485511 
L 492.513465 206.44053 
L 490.681776 206.76296 
L 490.159103 203.807941 
" clip-path="url(#p04c399e45c)" style="fill: #e6482f"/>
    <path d="M 543.97108 202.744985 
L 546.976449 201.618252 
L 548.101129 204.622875 
L 544.848424 205.625597 
L 543.97108 202.744985 
" clip-path="url(#p04c399e45c)" style="fill: #e6482f"/>
    <path d="M 463.024446 191.516623 
L 465.964481 190.815072 
L 466.951493 194.949972 
L 464.013791 195.651523 
L 463.024446 191.516623 
" clip-path="url(#p04c399e45c)" style="fill: #e6482f"/>
    <path d="M 489.284093 169.201627 
L 491.118115 168.879197 
L 491.638454 171.830673 
L 489.804433 172.156646 
L 489.284093 169.201627 
" clip-path="url(#p04c399e45c)" style="fill: #e6482f"/>
    <path d="M 585.535243 295.56233 
L 587.441599 294.896211 
L 588.024939 296.557966 
L 586.118583 297.227628 
L 585.535243 295.56233 
" clip-path="url(#p04c399e45c)" style="fill: #e6482f"/>
    <path d="M 648.872 288.114549 
L 650.778356 287.44843 
L 651.361696 289.110185 
L 649.45534 289.779847 
L 648.872 288.114549 
" clip-path="url(#p04c399e45c)" style="fill: #e6482f"/>
    <path d="M 634.972167 286.102019 
L 637.375529 285.418183 
L 638.880547 290.715249 
L 636.479518 291.399084 
L 634.972167 286.102019 
" clip-path="url(#p04c399e45c)" style="fill: #e6482f"/>
    <path d="M 643.593937 283.930045 
L 645.994965 283.246209 
L 647.502317 288.539732 
L 645.101288 289.223567 
L 643.593937 283.930045 
" clip-path="url(#p04c399e45c)" style="fill: #e6482f"/>
    <path d="M 635.107502 261.101286 
L 640.28523 259.779677 
L 641.279242 263.677184 
L 636.103847 264.998793 
L 635.107502 261.101286 
" clip-path="url(#p04c399e45c)" style="fill: #e6482f"/>
    <path d="M 612.690901 240.171677 
L 616.195609 239.796099 
L 618.699306 255.318804 
L 615.068596 255.942405 
L 612.690901 240.171677 
" clip-path="url(#p04c399e45c)" style="fill: #e6482f"/>
    <path d="M 635.116835 224.145839 
L 641.37491 222.795884 
L 643.344267 231.930222 
L 646.911976 231.16135 
L 647.880321 235.647026 
L 644.384946 236.398182 
L 644.839951 238.509922 
L 647.091645 238.024505 
L 651.261362 237.124535 
L 652.600711 243.339286 
L 646.139634 244.735302 
L 646.38697 245.876209 
L 640.093895 247.23325 
L 635.116835 224.145839 
" clip-path="url(#p04c399e45c)" style="fill: #e6482f"/>
    <path d="M 608.059179 184.348755 
L 611.813557 183.470044 
L 613.565911 188.228545 
L 609.685531 189.355279 
L 608.059179 184.348755 
" clip-path="url(#p04c399e45c)" style="fill: #e6482f"/>
    <path d="M 445.036564 169.325639 
L 446.868253 169.003209 
L 447.390926 171.958227 
L 445.556904 172.280657 
L 445.036564 169.325639 
" clip-path="url(#p04c399e45c)" style="fill: #e6482f"/>
    <path d="M 453.546333 159.188579 
L 455.380355 158.866149 
L 455.903028 161.817624 
L 454.069006 162.143597 
L 453.546333 159.188579 
" clip-path="url(#p04c399e45c)" style="fill: #e6482f"/>
    <path d="M 451.735644 139.389246 
L 454.673346 138.687695 
L 455.662691 142.822595 
L 452.722656 143.524146 
L 451.735644 139.389246 
" clip-path="url(#p04c399e45c)" style="fill: #e6482f"/>
    <path d="M 450.221293 129.943108 
L 453.158995 129.241557 
L 454.146007 133.376457 
L 451.208305 134.078008 
L 450.221293 129.943108 
" clip-path="url(#p04c399e45c)" style="fill: #e6482f"/>
    <path d="M 449.045279 120.762709 
L 451.982981 120.061157 
L 452.972326 124.192514 
L 450.032291 124.894065 
L 449.045279 120.762709 
" clip-path="url(#p04c399e45c)" style="fill: #e6482f"/>
    <path d="M 447.593928 111.011856 
L 450.53163 110.310305 
L 451.520975 114.445205 
L 448.583273 115.146756 
L 447.593928 111.011856 
" clip-path="url(#p04c399e45c)" style="fill: #e6482f"/>
    <path d="M 445.178899 102.228294 
L 448.118935 101.526743 
L 449.105946 105.658099 
L 446.168245 106.359651 
L 445.178899 102.228294 
" clip-path="url(#p04c399e45c)" style="fill: #e6482f"/>
    <path d="M 388.709225 101.863345 
L 390.540913 101.540915 
L 391.063586 104.495934 
L 389.229564 104.818364 
L 388.709225 101.863345 
" clip-path="url(#p04c399e45c)" style="fill: #e6482f"/>
    <path d="M 430.72606 75.129994 
L 431.358401 78.134617 
L 428.908372 78.64838 
L 428.276031 75.6473 
L 430.72606 75.129994 
" clip-path="url(#p04c399e45c)" style="fill: #e6482f"/>
    <path d="M 372.812035 67.572375 
L 374.646057 67.246402 
L 375.166396 70.20142 
L 373.332374 70.52385 
L 372.812035 67.572375 
" clip-path="url(#p04c399e45c)" style="fill: #e6482f"/>
   </g>
   <g id="LineCollection_1">
    <path d="M 478.578582 568.14444 
L 474.481249 524.686105 
L 470.724538 468.34942 
L 468.834515 463.530685 
" clip-path="url(#p04c399e45c)" style="fill: none; stroke: #e6482f; stroke-width: 0.2"/>
    <path d="M 278.859246 535.59558 
L 286.995676 518.694574 
L 291.877068 505.800914 
L 298.886485 493.65841 
L 302.304859 492.35806 
L 307.774258 490.278209 
L 327.801497 489.651065 
L 352.334457 490.026643 
L 375.367065 486.394875 
L 390.26091 482.139507 
L 404.655415 477.884139 
L 418.550581 479.510462 
L 430.817061 478.00815 
L 440.955516 475.255093 
L 454.850682 470.496592 
L 468.834515 463.530685 
" clip-path="url(#p04c399e45c)" style="fill: none; stroke: #e6482f; stroke-width: 0.2"/>
    <path d="M 232.10802 482.578862 
L 246.565526 475.003527 
L 253.073271 472.75006 
L 258.769006 471.623326 
L 263.713398 469.685202 
L 273.725851 462.485445 
L 276.98089 461.358711 
L 281.675613 462.485445 
L 286.370335 458.793443 
L 287.590683 454.630198 
L 287.215012 451.877141 
L 286.620005 446.587162 
" clip-path="url(#p04c399e45c)" style="fill: none; stroke: #e6482f; stroke-width: 0.2"/>
    <path d="M 464.802467 422.86552 
L 449.10128 425.253629 
L 410.288149 430.437312 
L 390.020574 435.27022 
L 384.576842 436.08161 
" clip-path="url(#p04c399e45c)" style="fill: none; stroke: #e6482f; stroke-width: 0.2"/>
    <path d="M 286.620005 446.587162 
L 299.262156 418.422363 
L 312.403646 384.999473 
L 315.266681 377.236349 
" clip-path="url(#p04c399e45c)" style="fill: none; stroke: #e6482f; stroke-width: 0.2"/>
    <path d="M 436.123125 340.089569 
L 445.008564 357.394498 
L 457.060375 383.447557 
L 461.199757 399.519456 
L 464.802467 422.86552 
L 466.102149 431.298307 
L 468.659513 455.983695 
L 468.834515 463.530685 
" clip-path="url(#p04c399e45c)" style="fill: none; stroke: #e6482f; stroke-width: 0.2"/>
    <path d="M 736.793511 276.268612 
L 714.012445 275.398049 
L 689.535485 274.072896 
L 665.730534 273.289852 
L 659.79913 273.374889 
L 654.5024 273.867392 
L 651.280028 274.359895 
L 639.515221 276.971224 
L 636.712854 277.594825 
L 621.54834 281.067149 
L 613.621912 282.597806 
L 606.026821 283.752885 
L 598.98707 284.546559 
L 595.195358 284.801669 
L 593.151334 284.939853 
L 563.79765 284.44735 
L 549.391478 284.766237 
L 541.20138 285.566997 
L 534.4883 286.874434 
L 531.96127 287.650392 
L 517.382429 292.136067 
L 511.173355 294.499373 
L 508.090984 295.95208 
L 505.379619 297.511083 
L 495.579502 303.693946 
L 485.233378 311.152356 
L 466.860492 323.014948 
L 439.795835 339.249834 
L 438.083148 339.891151 
L 436.123125 340.089569 
L 433.458426 339.830917 
L 431.297734 338.902602 
L 420.130267 330.200533 
L 411.699833 324.481828 
L 405.990098 321.353193 
L 400.317697 319.319403 
L 394.43996 317.746228 
L 388.776892 316.64784 
L 368.252647 310.326793 
L 359.003203 308.236312 
L 354.723819 308.087498 
L 349.718759 308.52331 
L 345.64471 309.774056 
L 341.892665 313.207404 
L 339.643305 317.597414 
L 317.905712 374.628563 
L 316.778699 376.2478 
L 315.266681 377.236349 
L 312.531981 378.285133 
L 310.261621 378.692599 
L 306.973915 378.51544 
L 303.977879 378.922906 
L 284.403312 385.038448 
L 254.66229 393.538556 
L 251.946257 394.385378 
L 237.838756 398.78956 
L 232.157021 400.607215 
L 226.302618 401.914651 
L 214.859814 403.650813 
L 196.924075 405.956078 
" clip-path="url(#p04c399e45c)" style="fill: none; stroke: #e6482f; stroke-width: 0.2"/>
    <path d="M 385.764523 338.714813 
L 378.955775 339.324241 
L 374.678724 342.204852 
L 373.717379 346.920835 
L 375.726403 353.202907 
L 375.201397 361.497509 
L 372.931036 368.916944 
L 373.194706 372.059752 
L 376.162741 376.336379 
L 377.908096 382.012566 
L 378.344434 391.178793 
L 378.780773 398.860424 
L 381.748808 406.630634 
L 385.939525 417.455073 
L 385.589521 428.279511 
L 384.576842 436.08161 
" clip-path="url(#p04c399e45c)" style="fill: none; stroke: #e6482f; stroke-width: 0.2"/>
    <path d="M 251.946257 394.385378 
L 250.070235 378.363083 
L 248.191879 371.227103 
L 246.689195 361.589632 
L 247.440537 348.823527 
L 250.193903 343.437882 
L 256.827649 335.178711 
L 267.218107 324.035386 
L 279.108915 313.023159 
L 288.496027 305.136023 
" clip-path="url(#p04c399e45c)" style="fill: none; stroke: #e6482f; stroke-width: 0.2"/>
    <path d="M 645.23429 388.25212 
L 647.243314 397.907306 
L 648.734331 405.064545 
L 650.483315 418.757819 
" clip-path="url(#p04c399e45c)" style="fill: none; stroke: #e6482f; stroke-width: 0.2"/>
    <path d="M 470.724538 468.34942 
L 476.254604 464.862924 
L 501.412905 458.106065 
L 516.059413 453.347564 
L 525.360191 445.921042 
L 535.083307 441.329071 
L 553.234524 442.455805 
L 566.378347 443.082949 
L 574.888116 443.582539 
L 578.768495 441.580638 
L 579.769507 438.076425 
L 599.171406 435.319825 
L 625.247536 432.873271 
" clip-path="url(#p04c399e45c)" style="fill: none; stroke: #e6482f; stroke-width: 0.2"/>
    <path d="M 628.21242 397.517555 
L 590.661638 400.019046 
L 580.772853 400.64619 
L 574.888116 399.895034 
L 569.757054 394.512932 
L 565.993343 383.575112 
" clip-path="url(#p04c399e45c)" style="fill: none; stroke: #e6482f; stroke-width: 0.2"/>
    <path d="M 525.360191 445.921042 
L 522.739826 430.731397 
L 517.067425 405.677517 
L 507.638312 369.012611 
L 497.513858 339.855719 
L 485.233378 311.152356 
" clip-path="url(#p04c399e45c)" style="fill: none; stroke: #e6482f; stroke-width: 0.2"/>
    <path d="M 622.829355 388.627698 
L 617.07062 367.0674 
" clip-path="url(#p04c399e45c)" style="fill: none; stroke: #e6482f; stroke-width: 0.2"/>
    <path d="M 694.052873 275.84449 
L 695.679226 285.481961 
L 694.832149 290.393787 
" clip-path="url(#p04c399e45c)" style="fill: none; stroke: #e6482f; stroke-width: 0.2"/>
    <path d="M 668.827723 329.334116 
L 662.419495 336.245211 
L 660.506139 338.307346 
L 648.991001 360.462899 
L 646.911976 365.657212 
L 644.482947 371.730235 
L 643.232266 379.741383 
L 645.23429 388.25212 
L 643.983608 395.512111 
L 637.223861 397.517555 
L 628.21242 397.517555 
" clip-path="url(#p04c399e45c)" style="fill: none; stroke: #e6482f; stroke-width: 0.2"/>
    <path d="M 531.96127 287.650392 
L 541.868721 314.883332 
L 553.075855 346.467307 
L 565.993343 383.575112 
" clip-path="url(#p04c399e45c)" style="fill: none; stroke: #e6482f; stroke-width: 0.2"/>
    <path d="M 617.07062 367.0674 
L 610.884879 341.294253 
L 600.473421 307.272565 
L 595.195358 284.801669 
" clip-path="url(#p04c399e45c)" style="fill: none; stroke: #e6482f; stroke-width: 0.2"/>
    <path d="M 639.515221 276.971224 
L 646.932976 304.55494 
L 650.570687 320.896122 
" clip-path="url(#p04c399e45c)" style="fill: none; stroke: #e6482f; stroke-width: 0.2"/>
    <path d="M 592.196989 274.820509 
L 597.419052 269.835244 
L 604.428469 264.704708 
L 611.939558 257.944306 
L 613.066572 265.080286 
L 616.946952 267.209742 
L 622.078013 268.336476 
L 630.347445 268.205378 
" clip-path="url(#p04c399e45c)" style="fill: none; stroke: #e6482f; stroke-width: 0.2"/>
    <path d="M 633.924488 273.622912 
L 636.59852 269.587221 
L 644.359279 264.32913 
L 644.858618 257.19315 
L 646.361303 251.811048 
L 652.120038 249.561124 
L 655.249076 247.05609 
L 652.120038 230.158628 
" clip-path="url(#p04c399e45c)" style="fill: none; stroke: #e6482f; stroke-width: 0.2"/>
    <path d="M 636.712854 277.594825 
L 633.924488 273.622912 
L 630.347445 268.205378 
L 626.959405 263.078385 
L 623.331028 252.438192 
L 622.584352 248.93398 
L 622.078013 246.556501 
L 617.446291 228.656317 
L 617.196621 222.399047 
L 619.826319 219.642447 
L 625.20705 217.892113 
L 630.590115 218.643268 
L 635.847177 220.896736 
" clip-path="url(#p04c399e45c)" style="fill: none; stroke: #e6482f; stroke-width: 0.2"/>
    <path d="M 557.114903 210.004977 
L 549.200142 215.075278 
L 546.850447 219.894014 
L 546.724446 225.90326 
L 548.852471 235.54073 
L 551.482169 246.180923 
L 552.10751 258.57145 
L 552.10751 264.82872 
L 551.608171 271.213544 
L 549.354144 279.975847 
L 549.391478 284.766237 
" clip-path="url(#p04c399e45c)" style="fill: none; stroke: #e6482f; stroke-width: 0.2"/>
    <path d="M 595.195358 284.801669 
L 592.196989 274.820509 
L 588.407611 262.203218 
L 585.152572 253.189348 
L 585.402241 243.675889 
L 583.526219 240.423243 
L 580.02151 230.909784 
L 577.643815 226.654416 
L 568.756042 223.150203 
L 561.244953 219.394424 
L 551.2325 215.387079 
L 549.200142 215.075278 
L 544.722422 214.3879 
L 537.463335 212.258444 
L 531.328929 208.878243 
L 526.697207 204.750429 
L 509.423334 207.127908 
L 491.400452 211.507288 
L 471.121209 214.3879 
L 462.023434 216.450035 
" clip-path="url(#p04c399e45c)" style="fill: none; stroke: #e6482f; stroke-width: 0.2"/>
    <path d="M 622.584352 248.93398 
L 627.211408 243.675889 
L 631.966798 237.666643 
L 632.592138 232.660119 
L 631.215455 228.029173 
L 632.092799 224.276937 
L 635.847177 220.896736 
" clip-path="url(#p04c399e45c)" style="fill: none; stroke: #e6482f; stroke-width: 0.2"/>
    <path d="M 570.884068 170.076795 
L 569.381383 183.222021 
L 565.627005 196.987305 
L 559.6186 204.247297 
L 557.114903 210.004977 
L 559.6186 214.260345 
L 561.244953 219.394424 
" clip-path="url(#p04c399e45c)" style="fill: none; stroke: #e6482f; stroke-width: 0.2"/>
    <path d="M 635.847177 220.896736 
L 638.101204 212.51001 
L 643.760268 203.455786 
" clip-path="url(#p04c399e45c)" style="fill: none; stroke: #e6482f; stroke-width: 0.2"/>
    <path d="M 448.963611 149.171987 
L 490.772777 144.544584 
L 496.405511 145.171728 
L 506.92197 153.430899 
L 515.683742 155.4328 
L 527.072878 157.186678 
L 543.219737 158.937013 
L 554.986878 160.315313 
L 566.751685 163.195924 
L 569.600719 165.757649 
" clip-path="url(#p04c399e45c)" style="fill: none; stroke: #e6482f; stroke-width: 0.2"/>
    <path d="M 630.590115 218.643268 
L 623.454696 214.635923 
L 616.946952 211.507288 
L 613.691913 206.628319 
L 606.057155 189.97888 
L 599.423409 187.725413 
L 589.658292 182.219299 
L 575.639458 175.710463 
L 570.884068 170.076795 
L 569.600719 165.757649 
L 568.504039 162.069191 
L 565.627005 144.668596 
L 566.628017 136.785003 
L 576.200244 108.463023 
" clip-path="url(#p04c399e45c)" style="fill: none; stroke: #e6482f; stroke-width: 0.2"/>
    <path d="M 339.643305 317.597414 
L 327.176156 314.022338 
L 310.527624 309.139825 
L 295.757448 308.140646 
L 290.750054 306.138745 
L 288.496027 305.136023 
" clip-path="url(#p04c399e45c)" style="fill: none; stroke: #e6482f; stroke-width: 0.2"/>
    <path d="M 466.860492 323.014948 
L 453.954671 308.080412 
L 434.751108 286.169339 
L 413.452187 282.767879 
" clip-path="url(#p04c399e45c)" style="fill: none; stroke: #e6482f; stroke-width: 0.2"/>
    <path d="M 405.990098 321.353193 
L 399.274684 315.02506 
L 399.022681 309.515403 
L 402.403722 302.506978 
L 404.156076 294.244264 
L 405.782429 289.23774 
L 413.452187 282.767879 
L 412.665844 272.088711 
L 416.672225 258.319884 
L 425.433997 241.549977 
L 427.688024 233.914407 
L 427.186351 230.658218 
L 424.558986 223.773804 
L 419.539926 219.929445 
" clip-path="url(#p04c399e45c)" style="fill: none; stroke: #e6482f; stroke-width: 0.2"/>
    <path d="M 511.173355 294.499373 
L 500.78523 278.92352 
L 480.475654 248.306836 
L 462.744443 219.957791 
L 462.023434 216.450035 
L 452.533654 166.197004 
L 448.963611 149.171987 
L 437.385473 85.125327 
L 434.807109 61.311562 
" clip-path="url(#p04c399e45c)" style="fill: none; stroke: #e6482f; stroke-width: 0.2"/>
    <path d="M 452.533654 166.197004 
L 484.106364 162.767199 
" clip-path="url(#p04c399e45c)" style="fill: none; stroke: #e6482f; stroke-width: 0.2"/>
    <path d="M 506.92197 153.430899 
L 502.539918 156.123722 
L 495.280831 160.814902 
L 484.106364 162.767199 
" clip-path="url(#p04c399e45c)" style="fill: none; stroke: #e6482f; stroke-width: 0.2"/>
    <path d="M 462.023434 216.450035 
L 431.703738 221.683323 
L 423.662976 221.577028 
L 419.539926 219.929445 
L 413.251518 210.033322 
L 407.847453 200.68285 
L 402.529723 187.147873 
L 395.930978 161.686526 
L 389.024228 130.658832 
L 382.838488 90.560577 
L 377.073782 52.491408 
" clip-path="url(#p04c399e45c)" style="fill: none; stroke: #e6482f; stroke-width: 0.2"/>
    <path d="M 399.436537 46.074216 
L 412.166505 48.549 
L 422.9303 51.55008 
L 429.564046 54.80627 
L 434.0721 58.310482 
L 434.807109 61.311562 
" clip-path="url(#p04c399e45c)" style="fill: none; stroke: #e6482f; stroke-width: 0.2"/>
    <path d="M 429.564046 54.80627 
L 425.946485 38.46695 
" clip-path="url(#p04c399e45c)" style="fill: none; stroke: #e6482f; stroke-width: 0.2"/>
   </g>
  </g>
 </g>
 <defs>
  <clipPath id="p04c399e45c">
   <rect x="7.2" y="7.2" width="837" height="588.523475"/>
  </clipPath>
 </defs>
</svg>
