<?xml version="1.0" encoding="utf-8" standalone="no"?>
<!DOCTYPE svg PUBLIC "-//W3C//DTD SVG 1.1//EN"
  "http://www.w3.org/Graphics/SVG/1.1/DTD/svg11.dtd">
<svg xmlns:xlink="http://www.w3.org/1999/xlink" width="844.306082pt" height="846pt" viewBox="0 0 844.306082 846" xmlns="http://www.w3.org/2000/svg" version="1.1">
 <metadata>
  <rdf:RDF xmlns:dc="http://purl.org/dc/elements/1.1/" xmlns:cc="http://creativecommons.org/ns#" xmlns:rdf="http://www.w3.org/1999/02/22-rdf-syntax-ns#">
   <cc:Work>
    <dc:type rdf:resource="http://purl.org/dc/dcmitype/StillImage"/>
    <dc:date>2025-03-16T14:38:40.675683</dc:date>
    <dc:format>image/svg+xml</dc:format>
    <dc:creator>
     <cc:Agent>
      <dc:title>Matplotlib v3.10.1, https://matplotlib.org/</dc:title>
     </cc:Agent>
    </dc:creator>
   </cc:Work>
  </rdf:RDF>
 </metadata>
 <defs>
  <style type="text/css">*{stroke-linejoin: round; stroke-linecap: butt}</style>
 </defs>
 <g id="figure_1">
  <g id="patch_1">
   <path d="M 0 846 
L 844.306082 846 
L 844.306082 0 
L 0 0 
z
" style="fill: #ffffff"/>
  </g>
  <g id="axes_1">
   <g id="PatchCollection_1">
    <path d="M 413.105699 45 
L 369.275648 355.027258 
L 337.058165 490.484192 
L 222.22304 473.708191 
L 100.781143 492.846129 
L 63.017687 533.49129 
L 44.923004 574.665408 
L 163.456259 639.705013 
L 224.031775 649.6707 
L 252.091611 672.224815 
L 264.940963 732.018935 
L 272.808961 751.953982 
L 289.593534 764.968514 
L 346.75934 801 
L 387.668529 745.132647 
L 476.567859 666.193242 
L 506.72485 629.607087 
L 585.003972 737.003615 
L 583.429884 739.494118 
L 574.777286 751.167894 
L 573.464731 761.919668 
L 581.071196 767.297392 
L 597.06628 773.58977 
L 616.079997 775.294185 
L 633.255648 775.426425 
L 655.544641 741.463012 
L 615.948008 707.892643 
L 609.654099 696.483346 
L 639.288024 659.504147 
L 637.452402 648.620133 
L 568.219399 569.026879 
L 581.071196 553.815708 
L 607.950466 534.148813 
L 694.488663 589.351297 
L 752.967025 582.533636 
L 784.959638 569.419923 
L 799.383078 479.996895 
L 748.733607 464.32656 
L 715.900176 427.97917 
L 781.567037 398.662493 
L 745.21635 323.620468 
L 607.424955 320.038992 
L 587.494649 307.454237 
L 565.728722 268.12412 
L 549.733638 231.152267 
L 609.786087 70.169512 
L 413.105699 45 
" clip-path="url(#p4ed26a67ac)" style="fill: #f29888"/>
   </g>
   <g id="LineCollection_1">
    <path d="M 440.662023 524.491684 
L 428.638823 523.679883 
L 406.479374 519.940454 
L 395.448534 518.11482 
L 381.059313 512.648937 
" clip-path="url(#p4ed26a67ac)" style="fill: none; stroke: #f29888; stroke-width: 0.2"/>
    <path d="M 393.957549 458.761497 
L 395.270104 441.97815 
L 395.531638 423.883431 
L 395.531638 408.675933 
L 397.105726 403.169643 
L 400.251459 398.184963 
L 407.095321 396.520954 
" clip-path="url(#p4ed26a67ac)" style="fill: none; stroke: #f29888; stroke-width: 0.2"/>
    <path d="M 425.952607 358.590368 
L 412.577744 355.70682 
L 408.642523 356.232104 
L 405.235257 357.278997 
L 404.448213 362.524481 
L 403.688055 386.033657 
L 404.4751 391.275469 
L 404.709746 394.515327 
L 407.095321 396.520954 
L 427.788228 398.184963 
L 452.988308 401.241156 
L 474.465815 405.006297 
" clip-path="url(#p4ed26a67ac)" style="fill: none; stroke: #f29888; stroke-width: 0.2"/>
    <path d="M 411.003656 635.513768 
L 413.364788 618.205137 
L 416.742723 600.859773 
L 417.297565 598.012959 
L 419.920231 579.392957 
L 422.278919 571.260251 
L 422.679774 569.721135 
L 424.116985 564.181785 
L 428.311295 551.332551 
L 432.796469 539.177572 
L 436.467713 531.309345 
L 440.662023 524.491684 
L 452.699888 507.535691 
L 461.616463 494.950935 
L 464.762196 488.654884 
L 467.411748 481.484585 
L 468.697417 471.349926 
L 471.056105 450.89327 
L 473.940304 421.260688 
L 474.465815 405.006297 
L 476.824504 386.386295 
L 478.398592 368.295249 
L 481.021258 360.427022 
L 483.905457 347.052505 
L 488.102211 320.046339 
L 488.363745 289.56155 
L 489.73985 277.961241 
L 491.445927 271.470504 
L 494.291019 266.397665 
L 499.53635 260.891375 
L 510.943603 253.61455 
L 531.396975 242.601971 
L 541.027267 233.977042 
L 543.461727 228.378919 
L 582.249318 124.832019 
L 602.338098 69.21638 
" clip-path="url(#p4ed26a67ac)" style="fill: none; stroke: #f29888; stroke-width: 0.2"/>
    <path d="M 541.027267 233.977042 
L 535.762381 290.615789 
L 532.682643 344.694241 
L 531.04256 366.928779 
L 528.749866 383.175823 
L 526.41562 405.700552 
" clip-path="url(#p4ed26a67ac)" style="fill: none; stroke: #f29888; stroke-width: 0.2"/>
    <path d="M 589.161619 333.057199 
L 584.542012 320.865487 
L 580.213269 313.327857 
L 572.665466 298.024853 
L 570.050133 294.120126 
L 568.018972 292.680189 
L 564.741251 291.857368 
L 535.762381 290.615789 
" clip-path="url(#p4ed26a67ac)" style="fill: none; stroke: #f29888; stroke-width: 0.2"/>
    <path d="M 111.396463 559.590149 
L 123.722748 560.90152 
L 136.5721 562.47737 
L 154.009284 565.625395 
L 175.9072 568.115899 
L 204.226126 572.027973 
L 213.946855 571.484323 
L 222.73633 573.831567 
L 238.037251 574.033599 
" clip-path="url(#p4ed26a67ac)" style="fill: none; stroke: #f29888; stroke-width: 0.2"/>
    <path d="M 213.946855 571.484323 
L 215.112756 564.707068 
L 219.333952 545.602189 
L 221.274676 540.544043 
L 223.740911 535.651196 
L 227.260612 531.841975 
L 231.134727 529.60493 
L 238.056805 527.860108 
L 244.350714 527.467064 
L 251.693201 526.941781 
L 261.264832 527.860108 
" clip-path="url(#p4ed26a67ac)" style="fill: none; stroke: #f29888; stroke-width: 0.2"/>
    <path d="M 261.264832 527.860108 
L 274.901228 531.533417 
L 300.995898 538.876361 
L 336.134244 549.756702 
L 372.4556 560.37991 
L 385.043418 564.967873 
L 396.844193 566.933093 
L 407.200423 569.295031 
L 417.691087 570.213358 
L 422.679774 569.721135 
" clip-path="url(#p4ed26a67ac)" style="fill: none; stroke: #f29888; stroke-width: 0.2"/>
    <path d="M 416.742723 600.859773 
L 401.500464 597.939492 
L 391.850617 598.953326 
L 379.240801 597.711747 
L 350.609013 602.431949 
L 339.055106 604.356763 
L 330.732481 604.915106 
L 323.216453 604.294317 
L 314.087229 602.431949 
L 306.453878 603.574348 
L 289.143794 592.502995 
L 283.184746 590.427576 
L 244.824896 557.136379 
L 231.120061 546.127473 
L 221.274676 540.544043 
L 210.229171 535.926694 
L 197.458034 532.481131 
L 165.125672 525.964681 
L 143.088435 518.64745 
L 126.1181 507.829556 
L 111.318247 494.106074 
L 108.441096 491.639003 
" clip-path="url(#p4ed26a67ac)" style="fill: none; stroke: #f29888; stroke-width: 0.2"/>
   </g>
   <g id="LineCollection_2">
    <path d="M 773.458424 381.923146 
L 773.241967 381.930572 
L 762.866183 382.59544 
L 754.230695 383.668047 
L 746.871099 385.045537 
L 737.355685 387.09157 
L 728.624872 389.185356 
L 720.654217 391.793406 
L 709.59649 395.547527 
L 672.275441 408.04045 
L 663.290427 411.430914 
L 653.828787 415.655219 
L 643.724313 420.467254 
L 629.513521 428.680772 
L 621.975496 433.599332 
L 615.459161 438.326881 
L 603.450626 448.035436 
L 593.825222 457.130548 
L 588.05438 463.430273 
L 581.09075 471.482166 
L 573.168979 481.76743 
L 565.376752 493.393452 
L 557.582082 507.318966 
L 551.513042 520.733889 
L 541.286356 545.550763 
L 532.157132 570.242744 
L 512.256158 617.66516 
L 507.350575 627.682273 
L 505.459822 631.141807 
" clip-path="url(#p4ed26a67ac)" style="fill: none; stroke-dasharray: 3.7,1.6; stroke-dashoffset: 0; stroke: #f29888"/>
   </g>
  </g>
 </g>
 <defs>
  <clipPath id="p4ed26a67ac">
   <rect x="7.2" y="7.2" width="829.906082" height="831.6"/>
  </clipPath>
 </defs>
</svg>
