<?xml version="1.0" encoding="utf-8" standalone="no"?>
<!DOCTYPE svg PUBLIC "-//W3C//DTD SVG 1.1//EN"
  "http://www.w3.org/Graphics/SVG/1.1/DTD/svg11.dtd">
<svg xmlns:xlink="http://www.w3.org/1999/xlink" width="851.4pt" height="673.621666pt" viewBox="0 0 851.4 673.621666" xmlns="http://www.w3.org/2000/svg" version="1.1">
 <metadata>
  <rdf:RDF xmlns:dc="http://purl.org/dc/elements/1.1/" xmlns:cc="http://creativecommons.org/ns#" xmlns:rdf="http://www.w3.org/1999/02/22-rdf-syntax-ns#">
   <cc:Work>
    <dc:type rdf:resource="http://purl.org/dc/dcmitype/StillImage"/>
    <dc:date>2025-03-16T14:38:36.445869</dc:date>
    <dc:format>image/svg+xml</dc:format>
    <dc:creator>
     <cc:Agent>
      <dc:title>Matplotlib v3.10.1, https://matplotlib.org/</dc:title>
     </cc:Agent>
    </dc:creator>
   </cc:Work>
  </rdf:RDF>
 </metadata>
 <defs>
  <style type="text/css">*{stroke-linejoin: round; stroke-linecap: butt}</style>
 </defs>
 <g id="figure_1">
  <g id="patch_1">
   <path d="M 0 673.621666 
L 851.4 673.621666 
L 851.4 0 
L 0 0 
z
" style="fill: #ffffff"/>
  </g>
  <g id="axes_1">
   <g id="PatchCollection_1">
    <path d="M 806.154545 125.916645 
L 794.078178 121.44715 
L 764.278305 110.078992 
L 745.614828 106.157807 
L 737.771987 109.294755 
L 723.10814 113.058655 
L 717.618882 115.175439 
L 716.127792 118.860697 
L 717.85424 122.858339 
L 719.500287 128.269355 
L 717.069225 132.502924 
L 712.913177 133.051234 
L 699.816437 131.091734 
L 688.525084 131.48276 
L 678.64442 134.69835 
L 670.095504 137.284803 
L 626.258919 127.954787 
L 617.555046 133.835471 
L 588.06801 126.543597 
L 553.878192 119.800034 
L 554.976044 110.863228 
L 552.936759 107.568997 
L 546.193231 103.41407 
L 536.781822 98.317623 
L 532.940072 100.043381 
L 527.842591 103.178144 
L 525.019753 104.510691 
L 523.372245 99.964739 
L 523.215826 92.672865 
L 524.626514 78.794712 
L 528.548666 68.837743 
L 534.115402 61.154843 
L 537.408957 55.038232 
L 536.311105 41.162263 
L 531.371504 37.164621 
L 526.352963 45.631758 
L 520.470466 49.238374 
L 515.216567 49.08109 
L 506.041978 51.510258 
L 503.217678 59.743653 
L 499.21951 62.48739 
L 493.80773 71.424195 
L 491.768445 80.599112 
L 490.670594 94.084054 
L 484.476722 96.906433 
L 472.321415 95.259317 
L 456.245418 99.807454 
L 434.522283 99.180502 
L 430.758011 95.102033 
L 430.130876 88.046085 
L 429.503741 84.282185 
L 421.504482 85.380991 
L 420.909508 95.165384 
L 419.544137 100.827618 
L 410.525966 102.551191 
L 398.370659 103.571354 
L 386.294291 101.140002 
L 365.512589 99.807454 
L 356.965135 97.297459 
L 341.438795 90.947107 
L 321.676004 92.436938 
L 308.893562 94.396438 
L 295.013268 98.708649 
L 276.976926 97.533386 
L 274.075148 96.200838 
L 277.604061 86.322512 
L 277.683001 73.228596 
L 232.042489 64.213148 
L 220.278958 70.954527 
L 227.023948 86.165228 
L 229.846786 94.632365 
L 221.691108 97.14236 
L 217.299702 101.533212 
L 216.514687 110.312733 
L 220.12254 135.089376 
L 214.318984 148.261935 
L 214.633282 173.822815 
L 195.341209 172.568909 
L 175.423462 148.261935 
L 169.619905 143.558698 
L 152.995713 141.205987 
L 138.251464 139.010561 
L 98.258091 133.992755 
L 79.436734 147.165314 
L 59.989704 159.866019 
L 65.948216 171.784672 
L 64.537528 192.485031 
L 72.693206 223.692854 
L 57.165404 235.141838 
L 45.245455 240.786596 
L 46.814023 255.215244 
L 55.283999 268.075419 
L 85.554588 263.684566 
L 88.690263 279.054735 
L 100.297376 274.976267 
L 123.03796 263.057613 
L 130.880802 267.448466 
L 129.626532 276.54474 
L 134.330775 287.052204 
L 137.624329 286.73982 
L 143.113587 281.877114 
L 152.681415 279.367119 
L 163.347094 277.95593 
L 170.404921 273.407793 
L 169.307069 294.582189 
L 166.326351 323.282201 
L 167.580621 336.928796 
L 165.855634 344.456597 
L 156.758523 352.141681 
L 152.837833 349.474402 
L 142.957169 347.905928 
L 136.840776 350.258639 
L 134.017938 355.435913 
L 131.03722 365.630993 
L 121.312974 375.668788 
L 109.942682 384.68642 
L 100.924511 394.805042 
L 96.297746 405.548432 
L 89.004561 413.154875 
L 88.848143 416.291822 
L 90.49419 419.507412 
L 105.707694 439.742471 
L 126.332977 464.447026 
L 134.566133 466.40871 
L 138.409345 476.60379 
L 150.64213 490.643596 
L 151.504623 493.310875 
L 128.606158 515.114408 
L 128.135442 534.643873 
L 128.52868 547.744343 
L 121.783691 551.038575 
L 114.334088 558.647202 
L 105.943052 579.59004 
L 103.041274 587.589694 
L 103.982707 595.903915 
L 113.863371 614.887254 
L 125.156185 617.004038 
L 133.70364 614.181659 
L 134.330775 611.905406 
L 133.547222 609.316769 
L 134.017938 605.631511 
L 137.624329 598.492552 
L 144.840036 584.61003 
L 147.348575 579.74514 
L 150.72107 578.255308 
L 155.660671 579.039545 
L 179.65845 590.962567 
L 195.028372 599.827284 
L 197.85121 603.669827 
L 196.518 608.768459 
L 190.087309 620.219628 
L 188.441263 623.280118 
L 189.851951 626.731634 
L 204.125483 635.360424 
L 210.633652 636.457045 
L 213.848267 631.830266 
L 221.770048 611.826764 
L 229.532488 594.256799 
L 232.669624 590.256973 
L 240.825302 590.569357 
L 249.372756 587.589694 
L 268.66483 567.509734 
L 268.350532 562.253818 
L 250.31419 552.842975 
L 241.766735 550.724006 
L 242.864587 541.155879 
L 245.687425 529.85981 
L 248.589203 524.918462 
L 257.842732 514.408814 
L 258.940584 515.507619 
L 258.155569 518.565925 
L 257.293076 521.466946 
L 256.195224 524.212867 
L 255.803447 527.821668 
L 260.117376 529.390141 
L 288.661517 529.390141 
L 293.52364 525.23303 
L 294.700431 516.761524 
L 300.973243 519.192877 
L 307.952129 524.370151 
L 321.363168 529.468783 
L 333.595953 534.331489 
L 342.06593 543.50859 
L 343.399139 555.274328 
L 347.790546 561.548223 
L 357.435852 564.763813 
L 368.336889 569.550061 
L 376.805404 574.255482 
L 384.882141 573.862271 
L 388.411054 568.372613 
L 387.627501 557.784323 
L 385.040021 543.899616 
L 384.177528 535.430294 
L 378.765748 522.723035 
L 370.924369 507.114755 
L 367.943651 503.272213 
L 365.747948 502.409334 
L 360.102272 501.310528 
L 347.319829 499.348844 
L 339.870226 496.054612 
L 337.281285 493.546802 
L 334.537387 489.075122 
L 332.73346 485.23258 
L 334.223088 481.232753 
L 334.14561 475.507169 
L 344.418051 466.799736 
L 339.164151 460.292099 
L 333.439535 460.683125 
L 324.577782 463.507689 
L 319.480301 467.977184 
L 314.853536 476.761074 
L 314.5407 479.506995 
L 309.991413 480.603616 
L 292.034012 478.486832 
L 288.817935 491.191907 
L 270.781593 488.290885 
L 261.91984 486.801054 
L 253.607744 486.565127 
L 238.943897 476.291406 
L 245.531007 462.79991 
L 242.158512 461.152794 
L 235.414984 459.350578 
L 222.161825 458.251773 
L 210.477234 457.467536 
L 202.163676 446.800603 
L 258.548807 399.431821 
L 265.763052 392.686073 
L 266.390187 389.000815 
L 257.057717 361.94355 
L 252.666311 346.103713 
L 273.638054 334.226565 
L 275.494607 330.687669 
L 273.839789 325.556269 
L 273.369073 320.617106 
L 274.781223 315.597116 
L 277.212284 313.558974 
L 308.658204 294.346262 
L 367.160098 262.509303 
L 393.587476 247.687444 
L 397.429225 244.15947 
L 398.997794 240.081002 
L 398.762435 233.966575 
L 397.587105 227.456754 
L 397.116389 223.144543 
L 393.587476 219.695211 
L 393.352117 212.873006 
L 393.431057 208.794537 
L 390.999996 201.188095 
L 388.019278 195.30741 
L 386.294291 192.249105 
L 389.587846 193.738936 
L 395.156044 197.581479 
L 402.449228 199.07131 
L 417.583792 196.327574 
L 446.991889 186.918915 
L 456.950031 178.921447 
L 465.498947 170.373483 
L 471.301042 163.396178 
L 476.477463 156.338046 
L 484.633141 151.398882 
L 491.768445 149.046172 
L 506.198396 152.419046 
L 523.686543 154.457188 
L 542.741796 161.277209 
L 552.387102 162.924325 
L 576.070582 167.865673 
L 578.187345 187.858252 
L 593.088013 198.365716 
L 614.41791 209.109106 
L 632.141415 215.774027 
L 637.551733 215.225717 
L 643.511707 211.852843 
L 654.254865 209.030464 
L 656.764866 203.934016 
L 665.233381 201.73859 
L 678.957256 205.187921 
L 686.721158 204.796895 
L 697.699673 202.756568 
L 715.971374 203.540805 
L 728.518458 206.677753 
L 738.007345 207.46199 
L 745.692306 199.855547 
L 747.260875 192.485031 
L 747.339815 187.62451 
L 749.691936 177.743999 
L 749.143741 168.571267 
L 752.201938 159.474993 
L 761.220109 153.358382 
L 759.337242 136.736492 
L 767.415442 135.794971 
L 768.98401 130.93445 
L 774.708626 125.446976 
L 784.51035 125.602076 
L 802.311334 134.071398 
L 806.154545 125.916645 
" clip-path="url(#pcc9095c095)" style="fill: #f29888"/>
   </g>
   <g id="LineCollection_1">
    <path d="M 384.191756 573.895882 
L 385.720851 572.557555 
" clip-path="url(#pcc9095c095)" style="fill: none; stroke: #f29888; stroke-width: 0.2"/>
    <path d="M 256.511757 528.079197 
L 256.458358 527.972398 
L 256.566535 525.724544 
L 257.850042 521.659182 
L 259.026833 518.450146 
L 259.346979 516.202291 
L 259.561871 514.063662 
L 259.143782 512.132561 
" clip-path="url(#pcc9095c095)" style="fill: none; stroke: #f29888; stroke-width: 0.2"/>
    <path d="M 372.353819 509.960078 
L 371.302989 509.12013 
L 369.858678 506.802371 
L 368.627798 505.050399 
L 367.51679 503.654501 
L 365.837121 502.920508 
L 362.949961 502.542589 
L 359.779202 502.256419 
L 354.978477 501.570484 
L 348.851851 500.552506 
L 344.852221 499.088888 
L 341.139115 497.360945 
L 336.478728 494.89901 
L 333.078457 492.764749 
L 331.188282 491.17443 
L 329.602171 489.48144 
L 325.975314 485.38768 
L 324.827759 484.352225 
L 323.335207 483.375752 
L 321.892359 482.499766 
L 319.978793 481.551691 
L 318.288891 480.970613 
L 316.600451 480.592694 
L 315.045039 480.417933 
L 313.058381 480.701919 
L 310.503062 481.26989 
L 307.664144 481.411883 
L 304.116226 480.843912 
L 296.556371 479.019919 
" clip-path="url(#pcc9095c095)" style="fill: none; stroke: #f29888; stroke-width: 0.2"/>
    <path d="M 245.179888 462.628425 
L 242.513742 461.537266 
L 239.249424 460.545502 
L 235.983645 459.977531 
L 229.31321 459.267567 
L 223.209974 458.983581 
L 217.673936 458.41561 
L 210.582488 457.965603 
" clip-path="url(#pcc9095c095)" style="fill: none; stroke: #f29888; stroke-width: 0.2"/>
    <path d="M 315.045039 480.417933 
L 314.407293 479.539154 
" clip-path="url(#pcc9095c095)" style="fill: none; stroke: #f29888; stroke-width: 0.2"/>
    <path d="M 392.720583 195.900798 
L 391.619822 193.179703 
" clip-path="url(#pcc9095c095)" style="fill: none; stroke: #f29888; stroke-width: 0.2"/>
    <path d="M 260.018017 398.058023 
L 259.076536 397.922329 
" clip-path="url(#pcc9095c095)" style="fill: none; stroke: #f29888; stroke-width: 0.2"/>
    <path d="M 653.46737 209.23735 
L 653.301737 208.624146 
" clip-path="url(#pcc9095c095)" style="fill: none; stroke: #f29888; stroke-width: 0.2"/>
    <path d="M 653.163068 209.317294 
L 653.301737 208.624146 
" clip-path="url(#pcc9095c095)" style="fill: none; stroke: #f29888; stroke-width: 0.2"/>
    <path d="M 241.255087 295.637304 
L 245.971024 293.852564 
L 250.790754 293.590424 
L 260.821989 293.461538 
L 269.601878 291.910541 
L 275.025352 290.001284 
L 279.880166 286.661178 
L 284.142929 284.081279 
L 307.332303 268.446784 
L 333.248032 254.583923 
L 359.444438 240.57033 
L 375.46927 228.974984 
L 385.146737 223.347702 
L 386.991595 222.004232 
" clip-path="url(#pcc9095c095)" style="fill: none; stroke: #f29888; stroke-width: 0.2"/>
    <path d="M 287.702541 216.641275 
L 289.607336 217.08036 
L 291.197832 217.08036 
L 292.707926 216.842249 
L 294.219482 216.923076 
L 296.524824 217.87552 
L 299.467534 220.101529 
L 303.284432 223.520278 
L 305.987398 226.622273 
L 310.361262 231.152934 
L 312.428322 232.585969 
L 314.971947 234.25493 
L 316.881127 235.565632 
L 318.312281 237.037988 
L 320.459743 240.37591 
L 324.753205 247.929924 
L 327.217889 250.872451 
L 329.125607 252.622238 
L 330.716103 253.49604 
L 333.248032 254.583923 
" clip-path="url(#pcc9095c095)" style="fill: none; stroke: #f29888; stroke-width: 0.2"/>
    <path d="M 386.991595 222.004232 
L 391.036542 217.98256 
L 392.197254 215.45072 
L 392.090538 213.34049 
L 390.71932 210.282184 
L 388.504613 203.32017 
L 385.760715 195.196001 
L 384.389497 190.765827 
L 381.992058 186.123756 
" clip-path="url(#pcc9095c095)" style="fill: none; stroke: #f29888; stroke-width: 0.2"/>
    <path d="M 386.991595 222.004232 
L 391.564271 221.569516 
L 395.889894 221.991125 
L 395.945709 222.000263 
" clip-path="url(#pcc9095c095)" style="fill: none; stroke: #f29888; stroke-width: 0.2"/>
    <path d="M 470.283597 164.619705 
L 470.302596 164.409787 
" clip-path="url(#pcc9095c095)" style="fill: none; stroke: #f29888; stroke-width: 0.2"/>
    <path d="M 343.808458 172.424732 
L 344.195849 172.951198 
L 344.799595 173.106297 
L 346.686847 173.13688 
L 348.623802 172.861633 
L 361.46618 167.269303 
L 362.83886 166.784343 
L 364.188151 166.869539 
L 365.158821 167.295517 
L 366.196737 168.440197 
L 368.339813 171.655787 
L 377.597728 182.03218 
L 381.992058 186.123756 
L 391.619822 193.179703 
L 394.692637 195.434111 
" clip-path="url(#pcc9095c095)" style="fill: none; stroke: #f29888; stroke-width: 0.2"/>
    <path d="M 344.195849 172.951198 
L 342.843635 175.043952 
L 342.014765 176.562182 
L 341.669767 178.010509 
L 341.669767 179.528739 
L 342.153641 181.254497 
L 343.327509 183.878086 
L 345.260078 186.569395 
" clip-path="url(#pcc9095c095)" style="fill: none; stroke: #f29888; stroke-width: 0.2"/>
    <path d="M 342.052773 170.495815 
L 343.808458 172.424732 
" clip-path="url(#pcc9095c095)" style="fill: none; stroke: #f29888; stroke-width: 0.2"/>
    <path d="M 377.597728 182.03218 
L 381.818097 177.075541 
L 385.249066 173.551936 
L 387.782458 171.339034 
L 389.798353 170.465232 
L 392.365367 169.936582 
L 395.290534 169.842649 
L 404.82474 170.028331 
L 407.796687 169.912553 
L 411.667673 169.106471 
L 417.434683 166.66638 
L 421.337831 165.261744 
L 426.081544 164.525566 
L 432.314885 164.005654 
L 443.37965 162.382568 
L 457.841761 157.685884 
L 463.737414 156.303094 
L 465.696297 156.281248 
L 467.364272 157.030533 
L 468.482589 158.330313 
L 470.302596 164.409787 
" clip-path="url(#pcc9095c095)" style="fill: none; stroke: #f29888; stroke-width: 0.2"/>
    <path d="M 323.143705 152.829732 
L 325.542605 155.50575 
L 330.605002 160.121606 
L 342.052773 170.495815 
" clip-path="url(#pcc9095c095)" style="fill: none; stroke: #f29888; stroke-width: 0.2"/>
    <path d="M 616.600557 209.92989 
L 619.54609 209.989461 
" clip-path="url(#pcc9095c095)" style="fill: none; stroke: #f29888; stroke-width: 0.2"/>
    <path d="M 591.315804 197.116012 
L 593.019306 196.030481 
" clip-path="url(#pcc9095c095)" style="fill: none; stroke: #f29888; stroke-width: 0.2"/>
    <path d="M 579.43723 187.137366 
L 593.019306 196.030481 
L 595.046896 197.358659 
L 613.703063 207.652042 
L 619.54609 209.989461 
L 621.994693 210.968118 
L 631.021636 214.836875 
L 637.285676 214.836875 
L 641.339394 211.704296 
L 651.104572 209.31008 
L 653.301737 208.624146 
" clip-path="url(#pcc9095c095)" style="fill: none; stroke: #f29888; stroke-width: 0.2"/>
    <path d="M 653.301737 208.624146 
L 656.358471 201.815047 
L 657.269206 193.736752 
L 658.311507 182.665686 
L 659.87569 172.634444 
L 661.568515 166.122438 
L 662.872488 162.474317 
L 663.39437 160.72016 
" clip-path="url(#pcc9095c095)" style="fill: none; stroke: #f29888; stroke-width: 0.2"/>
    <path d="M 656.358471 201.815047 
L 659.573086 202.57307 
L 664.78313 200.749009 
L 670.776727 201.791018 
L 677.160639 203.743964 
L 685.107272 204.00392 
L 694.487982 202.050974 
L 702.82493 201.919903 
L 711.685221 201.268921 
L 716.635055 202.182044 
L 723.018967 205.048113 
L 729.142669 206.219007 
L 737.349512 206.478963 
L 744.38541 199.707001 
L 746.470012 193.06174 
L 746.078236 189.544689 
L 747.642418 179.906658 
L 748.554615 168.182426 
L 750.639217 161.930376 
L 751.672747 159.263096 
" clip-path="url(#pcc9095c095)" style="fill: none; stroke: #f29888; stroke-width: 0.2"/>
    <path d="M 617.821103 134.873111 
L 624.924247 139.84941 
L 634.695272 146.883513 
L 653.847008 158.998771 
L 660.49113 160.691762 
L 663.39437 160.72016 
L 673.91094 160.820648 
L 677.036382 161.6027 
L 685.114581 159.518683 
L 700.097112 158.345605 
L 717.294351 158.867701 
L 729.149978 160.951718 
L 736.05431 161.73377 
L 743.870838 161.211674 
L 751.672747 159.263096 
" clip-path="url(#pcc9095c095)" style="fill: none; stroke: #f29888; stroke-width: 0.2"/>
    <path d="M 617.821103 134.873111 
L 608.921342 132.159957 
L 601.560913 130.07594 
L 583.517261 126.687774 
L 559.544334 121.868759 
L 552.444115 120.566795 
L 540.133851 118.937155 
L 521.178003 115.160148 
L 514.402315 113.141666 
L 510.369062 111.560085 
L 507.844442 110.570505 
L 504.436863 109.233589 
L 498.751717 106.966074 
" clip-path="url(#pcc9095c095)" style="fill: none; stroke: #f29888; stroke-width: 0.2"/>
    <path d="M 498.751717 106.966074 
L 495.167253 105.919696 
" clip-path="url(#pcc9095c095)" style="fill: none; stroke: #f29888; stroke-width: 0.2"/>
    <path d="M 510.369062 111.560085 
L 512.681714 105.419445 
L 514.918349 100.685625 
" clip-path="url(#pcc9095c095)" style="fill: none; stroke: #f29888; stroke-width: 0.2"/>
    <path d="M 484.321766 106.114117 
L 484.675534 104.449525 
L 485.21642 103.095133 
L 486.165163 101.469862 
L 487.384348 100.159159 
L 489.733546 98.488014 
L 491.992109 96.954492 
L 493.617689 95.779229 
L 494.385162 95.012468 
L 494.836874 94.018519 
L 495.018144 92.799566 
L 495.379222 89.909467 
L 495.515174 86.523486 
L 495.560492 81.149607 
L 495.649665 75.865292 
L 495.830935 73.879578 
L 496.282647 71.574926 
L 497.456515 67.918067 
L 498.405258 65.751039 
L 499.354 64.125768 
L 500.482551 62.500497 
L 501.334811 61.753397 
L 503.219139 60.792215 
L 505.789077 59.91186 
L 509.89396 59.035874 
L 512.235849 58.72349 
L 513.952064 58.620818 
" clip-path="url(#pcc9095c095)" style="fill: none; stroke: #f29888; stroke-width: 0.2"/>
    <path d="M 531.377351 51.425062 
L 529.991515 54.122925 
L 528.187588 58.081246 
L 525.756527 62.941767 
L 523.208517 67.607867 
L 522.346024 68.665167 
L 521.050822 69.724651 
L 518.306924 71.99872 
L 517.052654 73.370588 
L 515.620038 75.218679 
L 515.422688 75.472081 
L 513.380479 78.178681 
L 511.611637 80.623141 
L 510.570798 82.337977 
L 509.739004 84.419809 
L 508.698164 86.344357 
L 507.709952 87.696565 
L 501.934171 94.457604 
L 500.321747 95.914668 
L 498.709323 97.00692 
L 497.355647 97.474404 
L 496.107225 97.526832 
L 493.663007 97.57926 
L 492.569541 97.631688 
L 491.962872 97.668825 
" clip-path="url(#pcc9095c095)" style="fill: none; stroke: #f29888; stroke-width: 0.2"/>
    <path d="M 513.952064 58.620818 
L 515.564488 74.056523 
L 515.590801 74.744641 
L 515.620038 75.218679 
" clip-path="url(#pcc9095c095)" style="fill: none; stroke: #f29888; stroke-width: 0.2"/>
    <path d="M 751.672747 159.263096 
L 753.007025 158.92894 
" clip-path="url(#pcc9095c095)" style="fill: none; stroke: #f29888; stroke-width: 0.2"/>
    <path d="M 532.656947 38.204937 
L 532.850899 46.63663 
L 533.258756 47.899273 
L 533.19882 49.004632 
L 532.869903 49.655614 
L 531.377351 51.425062 
" clip-path="url(#pcc9095c095)" style="fill: none; stroke: #f29888; stroke-width: 0.2"/>
    <path d="M 617.821103 134.873111 
L 619.204016 133.793966 
L 622.018083 131.491499 
L 626.338406 127.971705 
" clip-path="url(#pcc9095c095)" style="fill: none; stroke: #f29888; stroke-width: 0.2"/>
    <path d="M 495.167253 105.919696 
L 493.872052 105.535223 
L 492.280094 105.240315 
L 489.803715 105.109245 
L 487.303946 105.522116 
L 484.321766 106.114117 
L 477.793131 107.409528 
L 465.873182 109.624615 
L 450.564657 113.010596 
L 447.633642 113.923718 
L 437.896239 116.328857 
L 436.560106 116.658717 
L 427.831382 118.677199 
L 418.842448 121.412198 
L 409.721947 123.69282 
L 399.123513 125.296246 
L 397.670431 125.51688 
L 384.578076 128.771791 
L 373.829071 132.485448 
L 369.269552 135.805894 
L 356.177196 141.212541 
L 349.459982 142.488291 
L 344.515995 143.427628 
L 338.849853 144.664057 
L 334.649949 146.195394 
L 329.992486 148.21606 
L 325.425657 150.780668 
L 323.143705 152.829732 
L 319.456911 155.697986 
L 312.011694 161.598331 
L 303.971503 167.120757 
L 293.64205 172.540511 
L 277.421329 181.138718 
L 263.13464 188.911183 
L 258.791475 190.842284 
L 251.401808 193.385047 
L 241.668791 196.819087 
" clip-path="url(#pcc9095c095)" style="fill: none; stroke: #f29888; stroke-width: 0.2"/>
    <path d="M 470.302596 164.409787 
L 473.053803 159.481547 
L 475.530182 156.211344 
L 479.674535 152.62002 
L 484.372931 149.67094 
L 489.439713 147.829403 
L 491.651497 147.001476 
L 503.166513 119.275753 
L 506.483457 113.104529 
L 507.844442 110.570505 
" clip-path="url(#pcc9095c095)" style="fill: none; stroke: #f29888; stroke-width: 0.2"/>
    <path d="M 437.896239 116.328857 
L 443.872294 137.752287 
" clip-path="url(#pcc9095c095)" style="fill: none; stroke: #f29888; stroke-width: 0.2"/>
    <path d="M 365.476043 100.00406 
L 358.646266 105.52867 
L 357.725299 112.530005 
L 354.868838 117.779368 
L 351.828184 122.109054 
L 350.630926 127.633665 
L 351.459797 135.648609 
L 350.078346 139.609115 
L 349.459982 142.488291 
" clip-path="url(#pcc9095c095)" style="fill: none; stroke: #f29888; stroke-width: 0.2"/>
    <path d="M 243.667144 118.644431 
L 248.748545 116.82037 
L 259.431767 114.216442 
L 263.861181 107.702251 
L 272.069486 107.182339 
L 272.19959 98.975158 
L 273.61905 98.798214 
L 281.426307 97.823311 
" clip-path="url(#pcc9095c095)" style="fill: none; stroke: #f29888; stroke-width: 0.2"/>
    <path d="M 281.972622 97.858909 
L 286.269925 98.455246 
L 291.349864 101.841227 
L 298.906182 102.752166 
L 305.159989 104.576226 
L 308.808774 104.967252 
L 314.5407 108.353233 
L 316.546362 106.173099 
L 318.664587 96.318802 
L 318.756684 93.832836 
L 325.751553 92.1297 
" clip-path="url(#pcc9095c095)" style="fill: none; stroke: #f29888; stroke-width: 0.2"/>
    <path d="M 327.171998 92.022619 
L 340.957845 91.344686 
L 351.3677 96.227052 
L 359.65933 99.173948 
L 365.476043 100.00406 
L 371.91112 100.923736 
L 386.74308 101.753847 
L 388.585015 102.765273 
L 390.244218 107.739388 
L 394.20584 112.530005 
L 395.679387 116.304828 
L 398.442289 123.214413 
L 399.123513 125.296246 
" clip-path="url(#pcc9095c095)" style="fill: none; stroke: #f29888; stroke-width: 0.2"/>
    <path d="M 491.992109 96.954492 
L 491.962872 97.668825 
L 491.894164 99.398952 
L 491.894164 102.053124 
L 491.945329 103.04052 
L 492.101748 104.0301 
L 492.280094 105.240315 
" clip-path="url(#pcc9095c095)" style="fill: none; stroke: #f29888; stroke-width: 0.2"/>
    <path d="M 351.231044 94.952187 
L 351.3677 96.227052 
" clip-path="url(#pcc9095c095)" style="fill: none; stroke: #f29888; stroke-width: 0.2"/>
    <path d="M 151.040881 491.876743 
L 168.029409 476.311066 
L 189.616592 455.33546 
L 201.007351 446.344042 
L 229.995895 420.774424 
L 251.892991 403.134555 
L 259.076536 397.922329 
L 262.813032 395.21136 
L 263.931312 394.398859 
" clip-path="url(#pcc9095c095)" style="fill: none; stroke: #f29888; stroke-width: 0.2"/>
    <path d="M 241.236083 552.759964 
L 241.253625 555.191317 
L 240.92617 558.077046 
L 240.597253 560.141402 
L 239.610502 561.969832 
L 236.549382 564.851193 
L 227.946377 574.504515 
L 221.207235 582.729172 
L 210.351515 597.856862 
L 208.788794 599.860052 
L 206.967325 600.157144 
L 204.07578 599.375092 
L 190.502475 592.260163 
L 172.493908 581.449053 
L 146.334049 563.523014 
L 136.698977 555.733074 
L 135.596739 554.356836 
L 134.066179 551.1478 
L 133.235847 550.110161 
L 131.844163 549.601171 
L 129.236217 549.227621 
L 126.996658 548.598484 
L 126.893274 548.54307 
" clip-path="url(#pcc9095c095)" style="fill: none; stroke: #f29888; stroke-width: 0.2"/>
    <path d="M 133.235847 550.110161 
L 130.845717 540.756115 
" clip-path="url(#pcc9095c095)" style="fill: none; stroke: #f29888; stroke-width: 0.2"/>
    <path d="M 168.029409 476.311066 
L 166.63334 473.748643 
L 164.387934 470.965585 
L 158.289083 464.11935 
L 156.150392 462.299658 
" clip-path="url(#pcc9095c095)" style="fill: none; stroke: #f29888; stroke-width: 0.2"/>
    <path d="M 88.874983 415.75355 
L 89.785191 416.427261 
" clip-path="url(#pcc9095c095)" style="fill: none; stroke: #f29888; stroke-width: 0.2"/>
    <path d="M 163.810502 429.407583 
L 166.602641 432.240885 
L 170.932649 439.70315 
L 176.091529 448.087276 
L 178.950913 452.198512 
L 181.066214 453.338823 
L 183.432954 453.978883 
L 189.616592 455.33546 
" clip-path="url(#pcc9095c095)" style="fill: none; stroke: #f29888; stroke-width: 0.2"/>
    <path d="M 89.785191 416.427261 
L 102.544244 431.895733 
" clip-path="url(#pcc9095c095)" style="fill: none; stroke: #f29888; stroke-width: 0.2"/>
    <path d="M 169.247133 339.910644 
L 167.032426 346.295949 
L 161.430605 352.156973 
L 153.744182 357.109243 
L 150.096859 363.361293 
L 140.976358 376.260789 
L 132.632102 390.132388 
L 121.232572 407.188995 
L 111.533178 420.689228 
L 102.544244 431.895733 
" clip-path="url(#pcc9095c095)" style="fill: none; stroke: #f29888; stroke-width: 0.2"/>
    <path d="M 89.785191 416.427261 
L 89.593688 414.688396 
L 90.811412 412.776955 
L 94.5099 409.382236 
L 97.363437 406.293348 
L 98.788743 403.558349 
L 100.453794 399.160943 
L 102.355665 395.949722 
L 106.634508 390.007872 
L 109.843276 386.560724 
L 111.67077 383.315895 
" clip-path="url(#pcc9095c095)" style="fill: none; stroke: #f29888; stroke-width: 0.2"/>
    <path d="M 241.236083 552.759964 
L 244.062543 551.293151 
" clip-path="url(#pcc9095c095)" style="fill: none; stroke: #f29888; stroke-width: 0.2"/>
    <path d="M 246.627396 525.722359 
L 238.571125 531.074394 
L 232.282233 536.236376 
L 228.734316 538.816276 
" clip-path="url(#pcc9095c095)" style="fill: none; stroke: #f29888; stroke-width: 0.2"/>
    <path d="M 201.007351 446.344042 
L 203.836036 449.865462 
L 206.724658 453.502661 
L 210.582488 457.965603 
L 212.180293 459.813693 
L 217.529213 464.949461 
L 222.556525 469.121864 
L 228.013622 473.722429 
L 232.185751 476.398446 
L 236.464595 478.858198 
L 243.310452 482.495397 
L 249.301125 486.027739 
L 253.153108 488.166369 
L 254.54333 489.236776 
L 256.468591 491.056467 
L 257.431952 492.873975 
L 258.287136 495.121829 
L 259.570643 500.899842 
L 260.105681 504.965203 
L 260.131994 506.828585 
L 260.01797 509.2512 
L 259.649583 511.158272 
L 259.143782 512.132561 
L 257.110344 514.059293 
L 254.115007 517.161289 
L 248.337764 523.688586 
L 246.627396 525.722359 
L 244.824932 530.526083 
L 243.424477 534.960626 
L 242.025483 541.754433 
L 241.424662 548.873731 
L 241.236083 552.759964 
" clip-path="url(#pcc9095c095)" style="fill: none; stroke: #f29888; stroke-width: 0.2"/>
    <path d="M 209.4247 508.093413 
L 191.772825 493.435392 
L 187.065659 490.117131 
L 182.145062 486.694013 
L 175.192489 482.735692 
L 171.98226 480.594878 
L 169.950284 478.67033 
L 168.029409 476.311066 
" clip-path="url(#pcc9095c095)" style="fill: none; stroke: #f29888; stroke-width: 0.2"/>
    <path d="M 256.468591 491.056467 
L 256.670326 487.685778 
L 256.81543 486.656173 
" clip-path="url(#pcc9095c095)" style="fill: none; stroke: #f29888; stroke-width: 0.2"/>
    <path d="M 262.656302 395.591069 
L 262.813032 395.21136 
" clip-path="url(#pcc9095c095)" style="fill: none; stroke: #f29888; stroke-width: 0.2"/>
    <path d="M 201.007351 446.344042 
L 198.118729 441.031329 
L 194.712612 435.069817 
L 192.015493 429.392292 
L 189.601974 423.712582 
L 187.757115 418.319042 
L 186.621256 413.209487 
L 185.485396 408.381734 
L 184.397777 403.132371 
L 183.171283 398.188839 
L 182.922768 394.933928 
L 183.661003 391.432168 
L 184.70769 385.540561 
L 185.934185 381.298255 
L 187.770272 378.74457 
L 189.607821 376.929247 
L 192.283012 374.373377 
L 193.708319 372.649804 
L 194.481639 368.667453 
L 195.431843 362.070251 
L 197.631932 352.443143 
L 200.067379 339.545832 
L 202.86098 331.166075 
" clip-path="url(#pcc9095c095)" style="fill: none; stroke: #f29888; stroke-width: 0.2"/>
    <path d="M 184.397777 403.132371 
L 190.563873 400.513151 
L 195.86309 397.802181 
L 198.820419 395.829574 
L 203.010089 392.749424 
L 210.157088 385.848576 
L 219.644514 376.481424 
L 222.109198 373.401273 
L 224.573882 369.458244 
L 226.053278 366.500425 
L 228.023855 360.584789 
L 232.583375 346.044731 
L 233.568664 343.580611 
L 234.432619 342.101702 
L 235.417908 341.238823 
L 236.895841 341.114306 
L 239.114934 341.361155 
L 244.289893 341.854853 
L 246.380343 341.850484 
L 249.254346 341.216978 
" clip-path="url(#pcc9095c095)" style="fill: none; stroke: #f29888; stroke-width: 0.2"/>
    <path d="M 264.238873 394.111271 
L 263.827558 389.446454 
L 262.742864 383.773297 
L 252.030405 348.017338 
L 249.254346 341.216978 
L 247.925522 333.680439 
L 244.650971 314.111653 
L 243.395239 304.477991 
L 242.567831 299.814076 
L 241.255087 295.637304 
L 240.426216 293.516151 
L 238.923431 291.047662 
L 236.568386 288.454655 
L 232.080497 286.215539 
L 226.196539 284.354342 
L 225.77114 284.218902 
L 219.954427 281.929542 
L 217.339172 280.085821 
L 216.463522 278.63968 
" clip-path="url(#pcc9095c095)" style="fill: none; stroke: #f29888; stroke-width: 0.2"/>
    <path d="M 204.227813 325.63928 
L 202.86098 331.166075 
" clip-path="url(#pcc9095c095)" style="fill: none; stroke: #f29888; stroke-width: 0.2"/>
    <path d="M 171.331735 287.412647 
L 170.440005 303.728707 
L 166.976875 317.705162 
L 167.725344 327.074499 
L 169.464949 334.372927 
L 169.247133 339.910644 
L 178.367634 344.86073 
L 188.659079 357.500269 
" clip-path="url(#pcc9095c095)" style="fill: none; stroke: #f29888; stroke-width: 0.2"/>
    <path d="M 136.182373 286.876585 
L 137.061516 285.271833 
L 140.574349 281.667402 
L 151.17863 277.962483 
L 157.780358 276.173375 
L 166.427219 272.750257 
L 172.25855 271.677666 
" clip-path="url(#pcc9095c095)" style="fill: none; stroke: #f29888; stroke-width: 0.2"/>
    <path d="M 74.728105 249.096449 
L 72.147935 251.768097 
L 68.032819 254.090225 
L 64.762654 256.515024 
L 62.862245 259.575514 
L 60.647537 264.322441 
L 59.088681 267.523537 
" clip-path="url(#pcc9095c095)" style="fill: none; stroke: #f29888; stroke-width: 0.2"/>
    <path d="M 88.493327 278.089411 
L 89.536676 277.71345 
L 98.397104 275.643978 
" clip-path="url(#pcc9095c095)" style="fill: none; stroke: #f29888; stroke-width: 0.2"/>
    <path d="M 99.015347 275.426741 
L 102.165624 272.866036 
L 106.808469 269.930063 
L 115.342766 264.265644 
L 119.028098 263.308831 
L 121.619963 261.829922 
" clip-path="url(#pcc9095c095)" style="fill: none; stroke: #f29888; stroke-width: 0.2"/>
    <path d="M 114.845736 239.100159 
L 117.383513 248.104684 
L 119.041254 257.961166 
L 121.619963 261.829922 
" clip-path="url(#pcc9095c095)" style="fill: none; stroke: #f29888; stroke-width: 0.2"/>
    <path d="M 78.982097 147.792266 
L 85.633528 156.453824 
L 89.887521 162.022125 
L 91.589117 163.645211 
L 93.483679 164.844504 
L 95.919126 165.423397 
L 98.046122 166.31249 
L 100.30907 167.994558 
L 104.890518 172.459684 
L 107.53501 175.061428 
L 110.023083 177.973372 
L 111.476165 180.330452 
L 113.227465 185.536124 
L 116.977118 188.96798 
L 120.261902 191.008307 
L 123.722108 193.638449 
L 125.723384 195.495278 
L 127.724661 197.660121 
L 132.395281 204.836216 
L 140.586044 217.582796 
L 153.874287 231.391045 
L 164.297299 251.451344 
L 170.102317 260.460238 
L 171.853617 263.177761 
L 172.482214 265.866885 
L 172.512913 268.772276 
L 172.25855 271.677666 
L 170.891718 281.643372 
L 170.944344 285.079597 
L 171.331735 287.412647 
L 175.892717 293.271486 
L 180.972656 300.045633 
L 185.271965 305.906657 
L 189.571275 309.685849 
L 195.955187 312.682988 
L 199.156645 314.961425 
L 201.254404 316.551744 
L 202.22215 317.761959 
L 203.027631 319.69743 
L 203.67377 322.196502 
L 204.156182 323.647013 
L 204.227813 325.63928 
" clip-path="url(#pcc9095c095)" style="fill: none; stroke: #f29888; stroke-width: 0.2"/>
    <path d="M 65.022863 253.015449 
L 74.728105 249.096449 
L 78.572779 247.543267 
L 101.241733 243.375233 
L 114.845736 239.100159 
L 128.600311 234.777026 
L 153.874287 231.391045 
L 177.177685 217.062884 
L 192.737648 207.232617 
L 196.59694 204.855877 
L 200.814386 202.835211 
L 208.487652 199.481997 
" clip-path="url(#pcc9095c095)" style="fill: none; stroke: #f29888; stroke-width: 0.2"/>
    <path d="M 113.227465 185.536124 
L 109.91783 187.849514 
L 106.669593 190.866314 
L 103.962241 193.959571 
L 101.64228 196.742629 
L 99.167363 198.986115 
L 94.064035 202.852687 
L 93.135758 203.702459 
L 93.213236 205.01753 
L 93.676644 206.177501 
L 97.775679 213.987103 
L 99.167363 215.765289 
L 100.714004 216.462146 
L 104.659545 217.314102 
L 108.681102 218.705631 
L 111.386992 219.247388 
L 121.674052 220.020703 
" clip-path="url(#pcc9095c095)" style="fill: none; stroke: #f29888; stroke-width: 0.2"/>
    <path d="M 216.463522 278.63968 
L 215.258955 276.30226 
" clip-path="url(#pcc9095c095)" style="fill: none; stroke: #f29888; stroke-width: 0.2"/>
    <path d="M 279.880166 286.661178 
L 279.041062 283.664038 
L 277.602599 278.689923 
L 275.864456 273.416531 
L 271.550528 264.907888 
L 270.831296 262.930912 
L 269.872321 261.251029 
L 268.493793 259.874791 
L 264.837699 258.435203 
L 260.946246 256.654833 
" clip-path="url(#pcc9095c095)" style="fill: none; stroke: #f29888; stroke-width: 0.2"/>
    <path d="M 226.196539 284.354342 
L 227.563372 280.607918 
L 228.402475 279.408625 
L 230.020747 277.971221 
L 247.938678 266.465439 
L 253.751006 261.851767 
L 258.426012 257.537372 
L 259.804539 256.877652 
L 260.946246 256.654833 
L 262.260452 256.399246 
" clip-path="url(#pcc9095c095)" style="fill: none; stroke: #f29888; stroke-width: 0.2"/>
    <path d="M 170.102317 260.460238 
L 176.500847 254.328336 
L 189.398776 238.564956 
L 200.342208 227.622776 
L 205.553713 221.239656 
L 208.829726 218.13766 
" clip-path="url(#pcc9095c095)" style="fill: none; stroke: #f29888; stroke-width: 0.2"/>
    <path d="M 215.258955 276.30226 
L 214.798472 275.406614 
L 211.341189 253.902358 
L 209.535801 240.004544 
L 208.816569 231.498086 
L 208.829726 218.13766 
L 208.83265 215.321835 
L 208.841421 208.809829 
L 208.487652 199.481997 
L 208.227442 197.487545 
L 207.603231 194.577786 
L 207.017028 192.707851 
L 206.351885 190.586697 
" clip-path="url(#pcc9095c095)" style="fill: none; stroke: #f29888; stroke-width: 0.2"/>
    <path d="M 285.107752 216.232773 
L 287.702541 216.641275 
" clip-path="url(#pcc9095c095)" style="fill: none; stroke: #f29888; stroke-width: 0.2"/>
    <path d="M 263.13464 188.911183 
L 268.123944 199.538794 
L 269.505395 201.633733 
L 271.363411 203.569204 
L 278.155179 209.919557 
L 283.757 215.651695 
L 285.107752 216.232773 
" clip-path="url(#pcc9095c095)" style="fill: none; stroke: #f29888; stroke-width: 0.2"/>
    <path d="M 208.83265 215.321835 
L 211.392354 213.006261 
L 214.59966 209.264205 
L 217.182754 205.70128 
L 219.945656 199.82278 
L 222.350404 194.477299 
L 224.531489 188.295153 
" clip-path="url(#pcc9095c095)" style="fill: none; stroke: #f29888; stroke-width: 0.2"/>
    <path d="M 208.487652 199.481997 
L 211.392354 198.485863 
L 213.531045 197.507206 
L 215.579101 196.259854 
L 217.681246 194.853033 
" clip-path="url(#pcc9095c095)" style="fill: none; stroke: #f29888; stroke-width: 0.2"/>
    <path d="M 163.285697 185.125438 
L 172.283402 190.381354 
L 175.490707 191.716086 
L 178.162974 192.340854 
L 180.480011 193.053002 
L 183.508971 194.477299 
L 185.557027 194.922938 
L 187.517371 194.835557 
L 189.388543 194.121225 
L 193.931982 192.161725 
L 196.425903 191.716086 
L 198.475421 191.98478 
L 200.701823 192.873873 
L 203.286379 194.210789 
L 204.977743 194.745993 
L 207.603231 194.577786 
" clip-path="url(#pcc9095c095)" style="fill: none; stroke: #f29888; stroke-width: 0.2"/>
    <path d="M 251.401808 193.385047 
L 248.282214 190.925295 
L 245.168467 186.43614 
L 240.680578 179.384561 
L 238.940973 177.186951 
L 237.382638 175.212159 
" clip-path="url(#pcc9095c095)" style="fill: none; stroke: #f29888; stroke-width: 0.2"/>
    <path d="M 207.017028 192.707851 
L 208.440873 192.388913 
L 209.44809 192.388913 
L 211.004963 192.939408 
L 212.928762 194.038213 
L 215.218023 194.678273 
L 217.681246 194.853033 
L 219.720531 193.30422 
L 222.544831 190.741797 
L 224.531489 188.295153 
L 227.674473 184.422027 
L 233.6286 178.377505 
L 237.382638 175.212159 
L 238.193967 174.528409 
L 243.504878 171.092185 
L 248.871341 168.300389 
L 261.782426 162.3498 
L 266.217688 161.034729 
L 279.771989 157.015242 
L 280.673952 156.748732 
L 290.575082 154.59918 
L 301.350401 150.247649 
L 305.556152 148.6333 
L 308.878943 147.849064 
L 313.308358 147.434008 
L 316.911825 147.180605 
L 320.082585 147.042982 
L 329.007197 146.848561 
L 334.649949 146.195394 
" clip-path="url(#pcc9095c095)" style="fill: none; stroke: #f29888; stroke-width: 0.2"/>
    <path d="M 243.636445 148.032562 
L 245.506155 149.605405 
L 252.020172 150.647413 
L 255.667495 152.209333 
L 261.987086 155.857455 
L 265.178311 158.98348 
L 266.217688 161.034729 
" clip-path="url(#pcc9095c095)" style="fill: none; stroke: #f29888; stroke-width: 0.2"/>
    <path d="M 272.069486 107.182339 
L 273.617588 115.293402 
L 272.695159 127.727598 
L 272.418868 133.990571 
L 275.551619 140.253544 
L 278.96066 146.793948 
L 279.605338 155.359388 
L 279.771989 157.015242 
" clip-path="url(#pcc9095c095)" style="fill: none; stroke: #f29888; stroke-width: 0.2"/>
    <path d="M 276.828731 88.492859 
L 264.824542 84.826127 
L 250.638721 81.693548 
L 244.558874 80.773872 
L 236.083051 82.615409 
L 228.554508 84.646997 
L 234.548105 96.37123 
L 238.774322 105.509009 
L 240.149926 108.484304 
L 243.667144 118.644431 
L 241.974318 127.240454 
L 242.364633 136.358573 
L 243.636445 148.032562 
L 243.798711 149.51584 
L 245.231327 160.32695 
L 248.871341 168.300389 
" clip-path="url(#pcc9095c095)" style="fill: none; stroke: #f29888; stroke-width: 0.2"/>
    <path d="M 238.774322 105.509009 
L 246.336488 102.64294 
L 252.416334 98.682435 
L 258.405546 95.366358 
L 263.288135 93.708319 
L 267.892972 93.524821 
L 272.867657 95.827288 
L 273.69799 97.116146 
L 273.61905 98.798214 
" clip-path="url(#pcc9095c095)" style="fill: none; stroke: #f29888; stroke-width: 0.2"/>
    <path d="M 177.177685 217.062884 
L 173.441189 209.443335 
L 172.461748 207.038196 
L 172.372575 204.899567 
L 172.640094 202.317483 
L 172.550921 200.534928 
L 171.837536 199.110631 
L 170.590576 197.773715 
L 169.611134 196.438983 
L 169.076096 194.745993 
L 168.541058 192.430419 
L 167.38327 191.270447 
L 165.957964 189.490076 
L 164.443484 186.862118 
L 163.285697 185.125438 
L 158.296392 179.959086 
L 156.248336 178.755424 
L 153.66378 177.730892 
L 148.941995 176.39616 
L 145.179186 175.472115 
L 142.616557 174.257531 
L 140.925193 172.920614 
L 137.985407 170.159402 
L 135.222505 166.775605 
L 132.0152 163.123115 
" clip-path="url(#pcc9095c095)" style="fill: none; stroke: #f29888; stroke-width: 0.2"/>
    <path d="M 116.977118 188.96798 
L 129.967144 181.472947 
L 133.975544 179.690392 
L 140.033463 177.464383 
L 145.179186 175.472115 
" clip-path="url(#pcc9095c095)" style="fill: none; stroke: #f29888; stroke-width: 0.2"/>
    <path d="M 156.248336 178.755424 
L 156.752676 177.770213 
L 158.028873 176.39616 
L 159.365007 175.415318 
L 161.236179 174.613605 
L 164.086792 173.991021 
L 170.501403 173.099744 
L 173.901673 172.837603 
L 175.134015 172.74367 
L 177.538763 172.833234 
L 181.191934 173.634947 
L 186.627103 175.148808 
L 190.992196 176.127466 
L 193.486117 176.217031 
L 195.42161 175.917754 
" clip-path="url(#pcc9095c095)" style="fill: none; stroke: #f29888; stroke-width: 0.2"/>
    <path d="M 173.901673 172.837603 
L 182.884759 163.568753 
L 184.937201 162.251498 
" clip-path="url(#pcc9095c095)" style="fill: none; stroke: #f29888; stroke-width: 0.2"/>
    <path d="M 149.570165 140.695921 
L 149.209514 143.082476 
L 147.962554 146.020634 
L 146.091382 148.604902 
L 144.487729 150.118763 
L 143.824048 150.538188 
L 142.794903 151.186985 
L 141.45877 151.811754 
L 140.300982 153.415179 
L 138.340637 157.42156 
L 136.203408 161.253179 
L 134.688929 162.231837 
L 132.996103 162.856605 
L 132.0152 163.123115 
L 130.323836 163.747883 
L 127.73928 164.99305 
L 124.888666 166.86517 
L 124.087571 167.754263 
L 123.017495 170.60504 
L 121.859707 172.298031 
L 115.623442 175.950521 
L 113.664559 177.018744 
L 112.594483 178.445225 
L 111.476165 180.330452 
" clip-path="url(#pcc9095c095)" style="fill: none; stroke: #f29888; stroke-width: 0.2"/>
    <path d="M 143.824048 150.538188 
L 147.338342 150.295708 
L 149.566206 150.385273 
L 151.704897 150.920476 
L 153.931299 150.830911 
L 155.534952 150.653967 
L 157.673643 149.406615 
L 160.435083 147.35755 
L 162.572312 146.645402 
L 165.601272 146.822347 
L 168.275001 147.803189 
L 170.233884 149.050541 
L 170.947268 150.653967 
L 172.194229 152.078263 
L 173.708708 151.632624 
L 175.508249 150.282601 
" clip-path="url(#pcc9095c095)" style="fill: none; stroke: #f29888; stroke-width: 0.2"/>
    <path d="M 206.351885 190.586697 
L 195.42161 175.917754 
L 184.937201 162.251498 
L 181.469686 157.729575 
L 175.508249 150.282601 
L 171.286418 145.009208 
L 171.01849 144.692119 
" clip-path="url(#pcc9095c095)" style="fill: none; stroke: #f29888; stroke-width: 0.2"/>
   </g>
  </g>
 </g>
 <defs>
  <clipPath id="pcc9095c095">
   <rect x="7.2" y="7.2" width="837" height="659.221666"/>
  </clipPath>
 </defs>
</svg>
