<?xml version="1.0" encoding="utf-8" standalone="no"?>
<!DOCTYPE svg PUBLIC "-//W3C//DTD SVG 1.1//EN"
  "http://www.w3.org/Graphics/SVG/1.1/DTD/svg11.dtd">
<svg xmlns:xlink="http://www.w3.org/1999/xlink" width="851.4pt" height="695.294713pt" viewBox="0 0 851.4 695.294713" xmlns="http://www.w3.org/2000/svg" version="1.1">
 <metadata>
  <rdf:RDF xmlns:dc="http://purl.org/dc/elements/1.1/" xmlns:cc="http://creativecommons.org/ns#" xmlns:rdf="http://www.w3.org/1999/02/22-rdf-syntax-ns#">
   <cc:Work>
    <dc:type rdf:resource="http://purl.org/dc/dcmitype/StillImage"/>
    <dc:date>2025-03-16T14:38:38.754142</dc:date>
    <dc:format>image/svg+xml</dc:format>
    <dc:creator>
     <cc:Agent>
      <dc:title>Matplotlib v3.10.1, https://matplotlib.org/</dc:title>
     </cc:Agent>
    </dc:creator>
   </cc:Work>
  </rdf:RDF>
 </metadata>
 <defs>
  <style type="text/css">*{stroke-linejoin: round; stroke-linecap: butt}</style>
 </defs>
 <g id="figure_1">
  <g id="patch_1">
   <path d="M 0 695.294713 
L 851.4 695.294713 
L 851.4 0 
L 0 0 
z
" style="fill: #ffffff"/>
  </g>
  <g id="axes_1">
   <g id="PatchCollection_1">
    <path d="M 553.927539 465.588432 
L 552.674489 462.03957 
L 572.768049 439.806482 
L 564.366384 433.440785 
L 557.320894 428.899297 
L 534.357381 434.901908 
L 513.586706 448.991942 
L 487.126716 413.242728 
L 477.837798 402.177425 
L 463.328484 383.598609 
L 459.310551 377.648703 
L 453.881962 367.734146 
L 448.819171 356.408242 
L 446.367551 348.842023 
L 440.783304 337.153034 
L 434.051076 322.12308 
L 424.186222 298.534279 
L 420.429016 290.915354 
L 419.2285 287.940401 
L 416.985073 281.521998 
L 409.365591 263.93581 
L 403.989538 252.507422 
L 401.380313 244.106694 
L 397.465503 237.738069 
L 394.282288 231.319666 
L 393.186841 226.781106 
L 390.733275 221.876533 
L 390.682686 215.718732 
L 387.707664 212.743779 
L 385.462291 196.305406 
L 382.539803 194.009773 
L 375.338654 191.400833 
L 369.649338 190.094899 
L 367.874832 189.992415 
L 355.768496 190.094899 
L 347.051623 189.157906 
L 342.30404 190.253017 
L 333.587167 189.365801 
L 326.386018 189.679108 
L 324.453907 190.094899 
L 321.218157 192.288049 
L 319.132334 198.601039 
L 315.73898 204.966736 
L 335.780005 260.542138 
L 340.319395 273.431649 
L 361.300208 329.220802 
L 372.62436 359.59109 
L 380.191307 379.736441 
L 398.61543 416.059563 
L 418.601975 463.761295 
L 436.868494 506.924467 
L 449.758959 539.127747 
L 464.320807 568.985617 
L 486.760918 576.657248 
L 501.791687 576.917849 
L 529.921115 578.69228 
L 532.008884 574.150792 
L 535.76609 572.689668 
L 556.43364 573.735001 
L 574.698214 584.173689 
L 584.039666 587.303832 
L 583.101824 592.105921 
L 591.137692 605.522491 
L 633.618828 612.046305 
L 654.86037 624.259424 
L 696.24606 627.079188 
L 742.433813 630.367448 
L 742.536937 626.818587 
L 752.401791 626.713175 
L 751.201276 594.091176 
L 774.112254 592.993137 
L 804.066776 592.471934 
L 806.154545 572.587185 
L 792.116099 565.433828 
L 774.42357 557.970093 
L 780.060352 541.00759 
L 783.140444 525.611622 
L 786.115466 525.506211 
L 788.1507 524.463806 
L 789.088542 522.376068 
L 791.176311 512.927079 
L 792.481896 509.170322 
L 797.17889 504.628834 
L 798.013609 493.824132 
L 793.890605 490.535872 
L 783.975162 485.162803 
L 776.668944 483.596267 
L 767.901481 482.656346 
L 760.803456 480.776504 
L 758.715687 481.142517 
L 751.722731 487.197834 
L 746.243554 489.388056 
L 743.895057 490.120082 
L 733.977668 491.112709 
L 719.051968 491.267898 
L 712.946266 493.14774 
L 700.73486 499.150352 
L 699.795073 507.811682 
L 691.235804 506.403264 
L 668.585553 500.400652 
L 621.302354 484.691378 
L 591.242761 475.766519 
L 553.927539 465.588432 
" clip-path="url(#p01b973d7a8)" style="fill: #fbd6c9"/>
    <path d="M 79.064198 42.219823 
L 61.842537 46.445076 
L 45.245455 66.168781 
L 56.205755 102.380635 
L 59.544629 113.548421 
L 62.572186 124.192077 
L 69.251879 146.419309 
L 72.174366 156.333867 
L 74.99373 165.413916 
L 95.972598 189.418507 
L 102.86243 197.453223 
L 109.960455 209.768826 
L 114.865642 229.182151 
L 122.901509 240.452421 
L 137.829155 261.429353 
L 151.188541 280.113581 
L 173.733722 311.944992 
L 192.10531 337.621531 
L 227.280228 387.305588 
L 257.339821 429.786512 
L 270.177751 447.949537 
L 275.188008 454.733952 
L 279.468615 460.997166 
L 302.013796 496.383295 
L 311.721046 511.726556 
L 294.394315 539.704584 
L 289.697321 557.554302 
L 292.619808 569.767421 
L 308.066964 578.537091 
L 338.023433 590.331491 
L 342.928619 602.442126 
L 338.544888 615.595167 
L 317.044565 650.984224 
L 370.484056 657.144953 
L 428.414294 616.013885 
L 441.252225 578.952881 
L 448.871706 574.256203 
L 439.269525 542.834726 
L 423.925494 506.61116 
L 408.999794 472.270363 
L 394.179164 438.137463 
L 371.528914 384.799132 
L 354.723638 342.212797 
L 350.339907 330.62922 
L 341.62498 312.363711 
L 335.83254 300.777206 
L 318.766537 265.344227 
L 317.721679 264.196411 
L 309.633277 254.697643 
L 297.00354 239.983924 
L 292.185911 230.862882 
L 249.512147 159.777317 
L 235.629359 169.32879 
L 216.475586 183.834614 
L 206.457019 189.471213 
L 201.602421 192.340754 
L 196.802304 194.375786 
L 189.912472 196.671419 
L 183.909893 200.846895 
L 180.205222 189.887004 
L 177.282734 180.704472 
L 158.442225 187.017462 
L 153.223775 188.165279 
L 146.439013 185.81694 
L 142.681807 182.268079 
L 141.533826 179.032525 
L 134.488335 148.820354 
L 114.344186 70.657563 
L 107.662547 46.184475 
L 107.715082 41.540503 
L 109.647192 38.14976 
L 98.112901 38.621184 
L 89.553632 41.279902 
L 79.064198 42.219823 
" clip-path="url(#p01b973d7a8)" style="fill: #fbd6c9"/>
   </g>
   <g id="LineCollection_1">
    <path d="M 774.752846 558.109 
L 772.577072 566.730978 
L 770.547675 572.959054 
L 769.426934 581.468122 
L 768.515877 593.261351 
" clip-path="url(#p01b973d7a8)" style="fill: none; stroke: #e6482f; stroke-width: 0.2"/>
    <path d="M 804.236136 590.85889 
L 775.486243 592.96923 
" clip-path="url(#p01b973d7a8)" style="fill: none; stroke: #e6482f; stroke-width: 0.2"/>
    <path d="M 764.629696 593.447601 
L 754.390328 593.356222 
L 747.12497 593.332797 
L 738.155152 592.533425 
L 729.61534 590.779491 
L 665.40623 570.967943 
L 660.648918 569.500964 
L 653.068352 567.058925 
L 530.395873 527.538314 
L 525.321408 525.216328 
L 515.277546 523.111022 
" clip-path="url(#p01b973d7a8)" style="fill: none; stroke: #e6482f; stroke-width: 0.2"/>
    <path d="M 659.771394 530.592326 
L 661.853325 533.022652 
L 662.58492 534.559906 
L 665.552159 548.676292 
" clip-path="url(#p01b973d7a8)" style="fill: none; stroke: #e6482f; stroke-width: 0.2"/>
    <path d="M 677.923115 502.95103 
L 675.592129 511.509877 
L 674.035545 516.880018 
L 669.138141 532.357972 
L 667.229379 539.859773 
L 665.552159 548.676292 
L 660.648918 569.500964 
" clip-path="url(#p01b973d7a8)" style="fill: none; stroke: #e6482f; stroke-width: 0.2"/>
    <path d="M 782.941979 524.870812 
L 785.311879 525.052355 
L 786.727709 525.192632 
" clip-path="url(#p01b973d7a8)" style="fill: none; stroke: #e6482f; stroke-width: 0.2"/>
    <path d="M 377.708554 576.086268 
L 384.917486 572.019132 
L 435.018104 543.768791 
L 436.205 542.433576 
L 436.294503 541.739616 
" clip-path="url(#p01b973d7a8)" style="fill: none; stroke: #e6482f; stroke-width: 0.2"/>
    <path d="M 376.986688 527.415334 
L 410.830727 513.834791 
L 415.558852 512.686974 
L 418.759579 513.03249 
L 421.456362 515.512594 
L 422.27746 515.486241 
" clip-path="url(#p01b973d7a8)" style="fill: none; stroke: #e6482f; stroke-width: 0.2"/>
    <path d="M 329.102258 418.762203 
L 329.004971 421.956763 
L 335.100945 439.285279 
L 335.441448 441.252965 
L 334.770171 442.626245 
L 332.59679 444.400676 
L 317.918198 452.859966 
L 315.923824 455.998893 
L 315.375128 459.948905 
L 320.183028 473.924742 
L 340.270751 505.202742 
L 349.904064 525.195832 
L 370.984109 573.360204 
L 374.254882 575.720255 
L 377.708554 576.086268 
" clip-path="url(#p01b973d7a8)" style="fill: none; stroke: #e6482f; stroke-width: 0.2"/>
    <path d="M 414.72246 485.436975 
L 382.732431 498.371477 
" clip-path="url(#p01b973d7a8)" style="fill: none; stroke: #e6482f; stroke-width: 0.2"/>
    <path d="M 299.900732 486.284266 
L 296.755764 488.130471 
" clip-path="url(#p01b973d7a8)" style="fill: none; stroke: #e6482f; stroke-width: 0.2"/>
    <path d="M 320.183028 473.924742 
L 317.982407 473.104873 
L 316.157312 473.41818 
L 314.799192 474.018441 
L 311.265745 477.195433 
L 308.800504 479.13091 
L 307.415144 479.915641 
L 304.936283 480.908268 
L 302.562492 482.656346 
L 299.900732 486.284266 
" clip-path="url(#p01b973d7a8)" style="fill: none; stroke: #e6482f; stroke-width: 0.2"/>
    <path d="M 402.93106 458.555127 
L 381.79848 468.847411 
L 387.9645 483.982777 
" clip-path="url(#p01b973d7a8)" style="fill: none; stroke: #e6482f; stroke-width: 0.2"/>
    <path d="M 487.187033 489.019115 
L 480.688293 492.46842 
L 449.437914 509.047342 
L 445.211787 511.290269 
L 441.82427 510.508465 
L 437.086416 500.51192 
L 412.483407 449.158158 
" clip-path="url(#p01b973d7a8)" style="fill: none; stroke: #e6482f; stroke-width: 0.2"/>
    <path d="M 373.017398 466.232614 
L 364.609896 447.735785 
L 393.607119 437.399581 
" clip-path="url(#p01b973d7a8)" style="fill: none; stroke: #e6482f; stroke-width: 0.2"/>
    <path d="M 320.183028 473.924742 
L 296.209681 437.259032 
L 257.36317 384.889903 
L 208.214014 320.503838 
L 197.267334 306.768105 
L 196.409266 302.048003 
L 197.911371 297.541652 
L 238.656915 272.509296 
" clip-path="url(#p01b973d7a8)" style="fill: none; stroke: #e6482f; stroke-width: 0.2"/>
    <path d="M 216.586493 184.332392 
L 213.181991 185.687641 
" clip-path="url(#p01b973d7a8)" style="fill: none; stroke: #e6482f; stroke-width: 0.2"/>
    <path d="M 184.739607 200.269734 
L 184.694022 200.609718 
L 184.771852 202.202606 
L 185.984042 204.436749 
L 190.251029 209.139283 
L 202.184195 227.240818 
L 207.774279 233.539169 
L 224.530911 253.827997 
L 229.889453 261.116046 
L 233.753674 265.493561 
L 238.656915 272.509296 
L 241.756464 276.36268 
L 255.551694 293.146569 
L 260.309006 298.935429 
L 265.399037 308.929046 
L 274.3027 318.925591 
L 280.624379 328.77573 
L 297.091097 354.446412 
L 299.019316 357.450647 
L 327.368612 417.415275 
L 329.102258 418.762203 
L 331.657002 418.721209 
L 367.349484 404.774653 
L 369.38861 403.170052 
L 372.350012 398.707623 
L 373.908542 394.658056 
L 374.387192 392.754789 
" clip-path="url(#p01b973d7a8)" style="fill: none; stroke: #e6482f; stroke-width: 0.2"/>
    <path d="M 238.656915 272.509296 
L 243.383095 267.96488 
L 247.381572 260.334242 
L 252.833509 255.974297 
L 257.892408 247.813672 
L 259.271931 244.680602 
L 260.596974 241.872551 
L 262.194419 240.297231 
L 264.412552 239.093781 
L 272.658558 236.74837 
" clip-path="url(#p01b973d7a8)" style="fill: none; stroke: #e6482f; stroke-width: 0.2"/>
    <path d="M 176.474152 180.975408 
L 177.539132 181.510081 
" clip-path="url(#p01b973d7a8)" style="fill: none; stroke: #e6482f; stroke-width: 0.2"/>
    <path d="M 181.19079 192.802707 
L 181.250079 193.541277 
L 181.594535 193.997146 
" clip-path="url(#p01b973d7a8)" style="fill: none; stroke: #e6482f; stroke-width: 0.2"/>
    <path d="M 83.303945 171.009521 
L 104.020139 191.35984 
L 109.110171 198.808935 
L 111.108436 200.741483 
L 114.186582 201.73411 
L 118.076097 201.321247 
L 121.023879 200.688777 
L 122.841192 199.379915 
L 127.129582 195.052178 
L 129.050018 193.816518 
L 130.783664 193.435865 
L 133.86181 193.749172 
L 135.823106 193.359734 
L 137.829155 192.39346 
L 142.89 189.157906 
L 147.186153 186.07554 
" clip-path="url(#p01b973d7a8)" style="fill: none; stroke: #e6482f; stroke-width: 0.2"/>
    <path d="M 659.771394 530.592326 
L 663.106376 529.734392 
L 665.937414 527.567595 
L 674.035545 516.880018 
" clip-path="url(#p01b973d7a8)" style="fill: none; stroke: #e6482f; stroke-width: 0.2"/>
    <path d="M 531.409599 485.540528 
L 535.225177 489.101102 
L 539.143878 491.338173 
L 632.003872 522.677663 
L 651.873673 528.495804 
L 659.771394 530.592326 
L 669.138141 532.357972 
L 674.272924 533.02558 
L 680.088713 533.889371 
L 695.382155 537.449944 
L 701.367223 539.675303 
L 709.955678 542.869864 
L 740.970624 550.345311 
L 766.568656 553.894173 
L 771.541943 555.273309 
L 774.958451 556.360502 
" clip-path="url(#p01b973d7a8)" style="fill: none; stroke: #e6482f; stroke-width: 0.2"/>
    <path d="M 776.387912 552.058891 
L 780.288003 537.985787 
L 780.850421 537.058395 
" clip-path="url(#p01b973d7a8)" style="fill: none; stroke: #e6482f; stroke-width: 0.2"/>
    <path d="M 517.034541 501.876417 
L 523.05074 501.173672 
L 535.225177 489.101102 
L 550.327938 469.781476 
L 554.166864 465.813896 
" clip-path="url(#p01b973d7a8)" style="fill: none; stroke: #e6482f; stroke-width: 0.2"/>
    <path d="M 533.705564 435.344076 
L 535.413913 440.954298 
L 549.259732 459.52433 
L 551.724972 462.631047 
L 553.87097 465.428216 
" clip-path="url(#p01b973d7a8)" style="fill: none; stroke: #e6482f; stroke-width: 0.2"/>
    <path d="M 554.011446 465.611318 
L 554.166864 465.813896 
L 614.362929 482.631024 
" clip-path="url(#p01b973d7a8)" style="fill: none; stroke: #e6482f; stroke-width: 0.2"/>
    <path d="M 676.751597 502.564761 
L 677.923115 502.95103 
L 681.611054 503.85258 
" clip-path="url(#p01b973d7a8)" style="fill: none; stroke: #e6482f; stroke-width: 0.2"/>
    <path d="M 699.8161 507.617883 
L 700.884682 507.823394 
L 708.943898 509.747158 
L 771.096371 522.179885 
L 782.941979 524.870812 
" clip-path="url(#p01b973d7a8)" style="fill: none; stroke: #e6482f; stroke-width: 0.2"/>
    <path d="M 547.413233 467.231098 
L 554.166864 465.813896 
" clip-path="url(#p01b973d7a8)" style="fill: none; stroke: #e6482f; stroke-width: 0.2"/>
    <path d="M 571.677086 438.979891 
L 570.802861 439.958743 
L 551.724972 462.631047 
L 547.413233 467.231098 
L 536.772032 479.649184 
L 531.409599 485.540528 
L 527.453929 490.521232 
L 517.034541 501.876417 
L 513.18394 507.568649 
L 511.835549 511.916883 
L 511.537852 515.550659 
L 513.220909 519.42454 
L 515.277546 523.111022 
L 517.081239 529.072641 
L 517.987949 547.639744 
L 519.17421 578.014355 
" clip-path="url(#p01b973d7a8)" style="fill: none; stroke: #e6482f; stroke-width: 0.2"/>
    <path d="M 402.921817 249.069762 
L 401.06705 244.23553 
L 398.418698 239.288729 
" clip-path="url(#p01b973d7a8)" style="fill: none; stroke: #e6482f; stroke-width: 0.2"/>
    <path d="M 395.917543 234.616875 
L 394.758992 232.452842 
L 394.614847 231.990214 
" clip-path="url(#p01b973d7a8)" style="fill: none; stroke: #e6482f; stroke-width: 0.2"/>
    <path d="M 393.8573 229.558895 
L 392.926113 226.570283 
L 391.3598 223.337657 
L 391.273025 222.95547 
" clip-path="url(#p01b973d7a8)" style="fill: none; stroke: #e6482f; stroke-width: 0.2"/>
    <path d="M 390.722208 220.529492 
L 390.696306 220.415409 
L 390.717606 219.969286 
" clip-path="url(#p01b973d7a8)" style="fill: none; stroke: #e6482f; stroke-width: 0.2"/>
    <path d="M 502.480476 510.76321 
L 487.187033 489.019115 
L 433.745596 413.043617 
L 425.40814 403.922575 
L 414.132631 394.508723 
L 400.129208 382.813878 
L 388.29722 370.876 
L 388.12405 368.77655 
L 388.557948 367.227584 
L 389.649503 365.251114 
L 392.821044 363.192657 
L 403.530345 358.97326 
L 435.673815 347.840611 
L 437.96394 347.483383 
L 440.991497 348.153918 
L 445.575638 349.562336 
" clip-path="url(#p01b973d7a8)" style="fill: none; stroke: #e6482f; stroke-width: 0.2"/>
    <path d="M 364.236315 429.423427 
L 387.028604 421.385783 
" clip-path="url(#p01b973d7a8)" style="fill: none; stroke: #e6482f; stroke-width: 0.2"/>
    <path d="M 367.349484 404.774653 
L 370.507405 404.259307 
L 373.612791 404.323725 
L 377.943988 405.579881 
L 381.005711 407.11573 
" clip-path="url(#p01b973d7a8)" style="fill: none; stroke: #e6482f; stroke-width: 0.2"/>
    <path d="M 388.29722 370.876 
L 379.198684 377.093798 
" clip-path="url(#p01b973d7a8)" style="fill: none; stroke: #e6482f; stroke-width: 0.2"/>
    <path d="M 406.890733 258.674768 
L 412.537132 271.812408 
L 418.46065 285.743598 
" clip-path="url(#p01b973d7a8)" style="fill: none; stroke: #e6482f; stroke-width: 0.2"/>
    <path d="M 422.103157 294.310207 
L 442.030517 341.176248 
L 445.575638 349.562336 
L 449.110833 357.060715 
" clip-path="url(#p01b973d7a8)" style="fill: none; stroke: #e6482f; stroke-width: 0.2"/>
    <path d="M 455.428156 370.558051 
L 456.677977 373.432235 
L 460.065494 379.165461 
L 462.116958 381.804536 
" clip-path="url(#p01b973d7a8)" style="fill: none; stroke: #e6482f; stroke-width: 0.2"/>
    <path d="M 479.403479 404.042523 
L 498.502517 428.612195 
" clip-path="url(#p01b973d7a8)" style="fill: none; stroke: #e6482f; stroke-width: 0.2"/>
    <path d="M 514.070113 448.664017 
L 516.771867 452.350476 
L 536.772032 479.649184 
" clip-path="url(#p01b973d7a8)" style="fill: none; stroke: #e6482f; stroke-width: 0.2"/>
    <path d="M 352.692296 342.91847 
L 341.809824 332.26603 
L 339.276483 330.784409 
L 333.861515 327.563496 
L 306.062861 298.531351 
L 297.898576 292.918177 
" clip-path="url(#p01b973d7a8)" style="fill: none; stroke: #e6482f; stroke-width: 0.2"/>
    <path d="M 358.173419 244.704027 
L 360.012134 249.359711 
L 400.9075 352.876949 
L 402.448519 356.777183 
L 403.530345 358.97326 
" clip-path="url(#p01b973d7a8)" style="fill: none; stroke: #e6482f; stroke-width: 0.2"/>
    <path d="M 306.062861 298.531351 
L 312.649159 296.935534 
L 323.078276 291.603458 
" clip-path="url(#p01b973d7a8)" style="fill: none; stroke: #e6482f; stroke-width: 0.2"/>
    <path d="M 511.835549 511.916883 
L 502.480476 510.76321 
L 498.14928 510.230295 
L 489.858521 514.60781 
L 486.465167 516.399809 
L 448.557098 536.125229 
" clip-path="url(#p01b973d7a8)" style="fill: none; stroke: #e6482f; stroke-width: 0.2"/>
    <path d="M 438.649026 541.369878 
L 438.292769 541.555145 
L 436.294503 541.739616 
L 434.399362 541.449733 
L 433.266946 540.591799 
L 432.379693 539.49376 
L 430.609078 535.818991 
L 423.337883 518.619312 
L 422.27746 515.486241 
L 421.316269 508.698897 
L 420.847348 504.338951 
L 419.90756 499.809176 
L 419.265469 496.520915 
L 415.821622 487.965909 
" clip-path="url(#p01b973d7a8)" style="fill: none; stroke: #e6482f; stroke-width: 0.2"/>
    <path d="M 409.661572 473.79297 
L 402.93106 458.555127 
L 393.607119 437.399581 
L 387.028604 421.385783 
L 386.498332 420.050124 
" clip-path="url(#p01b973d7a8)" style="fill: none; stroke: #e6482f; stroke-width: 0.2"/>
    <path d="M 378.603826 401.45961 
L 374.387192 392.754789 
L 361.397494 362.413782 
L 352.692296 342.91847 
L 345.04752 321.654583 
L 338.517648 310.703476 
L 331.291205 301.195925 
L 323.078276 291.603458 
L 314.925664 280.734339 
L 310.121655 274.957191 
L 290.45421 250.015606 
L 283.786191 243.465439 
L 280.772255 240.713022 
L 278.414029 238.666278 
L 276.18033 237.582879 
L 272.658558 236.74837 
L 260.272037 232.016555 
L 241.73117 219.718521 
L 238.112111 216.260431 
L 235.421165 212.796484 
L 220.900178 190.323291 
L 216.586493 184.332392 
L 216.302988 183.931721 
" clip-path="url(#p01b973d7a8)" style="fill: none; stroke: #e6482f; stroke-width: 0.2"/>
    <path d="M 278.414029 238.666278 
L 283.753114 235.152554 
L 290.637109 231.477784 
L 292.325678 231.127499 
" clip-path="url(#p01b973d7a8)" style="fill: none; stroke: #e6482f; stroke-width: 0.2"/>
    <path d="M 316.222233 206.306837 
L 317.737245 203.716436 
L 321.735721 193.541277 
L 323.619189 190.826925 
L 326.384072 189.772808 
L 327.320337 189.638458 
" clip-path="url(#p01b973d7a8)" style="fill: none; stroke: #e6482f; stroke-width: 0.2"/>
    <path d="M 342.17173 190.24716 
L 342.198005 190.242224 
" clip-path="url(#p01b973d7a8)" style="fill: none; stroke: #e6482f; stroke-width: 0.2"/>
    <path d="M 343.021527 190.087516 
L 346.582702 189.418507 
L 350.876929 189.725958 
L 352.336227 189.725958 
" clip-path="url(#p01b973d7a8)" style="fill: none; stroke: #e6482f; stroke-width: 0.2"/>
    <path d="M 358.173419 244.704027 
L 348.32413 223.54848 
L 341.75729 212.653007 
L 340.714378 208.486316 
L 340.371929 204.966736 
L 341.75729 202.75309 
L 343.868407 200.428176 
L 345.458069 198.062268 
L 345.851107 195.83691 
L 344.880187 193.579342 
L 342.17173 190.24716 
L 342.12138 190.234425 
" clip-path="url(#p01b973d7a8)" style="fill: none; stroke: #e6482f; stroke-width: 0.2"/>
   </g>
  </g>
 </g>
 <defs>
  <clipPath id="p01b973d7a8">
   <rect x="7.2" y="7.2" width="837" height="680.894713"/>
  </clipPath>
 </defs>
</svg>
