<?xml version="1.0" encoding="utf-8" standalone="no"?>
<!DOCTYPE svg PUBLIC "-//W3C//DTD SVG 1.1//EN"
  "http://www.w3.org/Graphics/SVG/1.1/DTD/svg11.dtd">
<svg xmlns:xlink="http://www.w3.org/1999/xlink" width="562.974399pt" height="846pt" viewBox="0 0 562.974399 846" xmlns="http://www.w3.org/2000/svg" version="1.1">
 <metadata>
  <rdf:RDF xmlns:dc="http://purl.org/dc/elements/1.1/" xmlns:cc="http://creativecommons.org/ns#" xmlns:rdf="http://www.w3.org/1999/02/22-rdf-syntax-ns#">
   <cc:Work>
    <dc:type rdf:resource="http://purl.org/dc/dcmitype/StillImage"/>
    <dc:date>2025-03-16T14:38:38.226568</dc:date>
    <dc:format>image/svg+xml</dc:format>
    <dc:creator>
     <cc:Agent>
      <dc:title>Matplotlib v3.10.1, https://matplotlib.org/</dc:title>
     </cc:Agent>
    </dc:creator>
   </cc:Work>
  </rdf:RDF>
 </metadata>
 <defs>
  <style type="text/css">*{stroke-linejoin: round; stroke-linecap: butt}</style>
 </defs>
 <g id="figure_1">
  <g id="patch_1">
   <path d="M 0 846 
L 562.974399 846 
L 562.974399 0 
L 0 0 
z
" style="fill: #ffffff"/>
  </g>
  <g id="axes_1">
   <g id="PatchCollection_1">
    <path d="M 455.814695 342.054239 
L 527.456131 201.424267 
L 506.95872 170.139413 
L 524.073063 123.060265 
L 530.839199 117.896746 
L 493.426449 50.163519 
L 388.328462 47.924982 
L 250.840585 45 
L 97.010501 227.545601 
L 100.393569 300.442346 
L 32.1352 686.187626 
L 79.896158 665.229811 
L 97.010501 795.836481 
L 124.473051 801 
L 319.098954 654.902772 
L 455.814695 342.054239 
" clip-path="url(#pf4ecc48832)" style="fill: #d1d4f2"/>
   </g>
   <g id="PatchCollection_2">
    <path d="M 189.065766 745.458755 
L 204.331363 729.764693 
L 206.440805 731.814914 
L 191.175209 747.512013 
L 189.065766 745.458755 
" clip-path="url(#pf4ecc48832)" style="fill: #4d59c1"/>
    <path d="M 180.206109 736.650398 
L 195.471705 720.956336 
L 197.581147 723.006557 
L 182.315551 738.703656 
L 180.206109 736.650398 
" clip-path="url(#pf4ecc48832)" style="fill: #4d59c1"/>
    <path d="M 169.489744 726.174528 
L 184.75534 710.480466 
L 186.864782 712.533724 
L 171.599186 728.227786 
L 169.489744 726.174528 
" clip-path="url(#pf4ecc48832)" style="fill: #4d59c1"/>
    <path d="M 210.030837 710.398457 
L 207.497516 712.879984 
L 194.367233 699.48217 
L 196.900554 696.997605 
L 210.030837 710.398457 
" clip-path="url(#pf4ecc48832)" style="fill: #4d59c1"/>
    <path d="M 233.969027 389.90184 
L 241.141131 387.429425 
L 242.432666 391.171458 
L 235.258573 393.643873 
L 233.969027 389.90184 
" clip-path="url(#pf4ecc48832)" style="fill: #4d59c1"/>
    <path d="M 229.336214 387.748349 
L 230.842674 387.26237 
L 231.463567 389.185022 
L 229.959096 389.671 
L 229.336214 387.748349 
" clip-path="url(#pf4ecc48832)" style="fill: #4d59c1"/>
    <path d="M 227.083489 387.760498 
L 228.591939 387.241109 
L 229.220792 389.066565 
L 227.712341 389.585954 
L 227.083489 387.760498 
" clip-path="url(#pf4ecc48832)" style="fill: #4d59c1"/>
    <path d="M 260.898247 377.111499 
L 264.581811 377.539767 
L 263.620621 384.905376 
L 259.885316 384.3708 
L 260.898247 377.111499 
" clip-path="url(#pf4ecc48832)" style="fill: #4d59c1"/>
    <path d="M 260.239544 368.193797 
L 265.119121 368.646364 
L 265.369866 365.933998 
L 267.499209 366.131426 
L 266.850456 373.120402 
L 264.725093 372.922973 
L 264.814645 371.951016 
L 259.956958 371.237236 
L 260.239544 368.193797 
" clip-path="url(#pf4ecc48832)" style="fill: #4d59c1"/>
    <path d="M 252.142071 349.471483 
L 255.481358 350.267272 
L 253.823655 357.216762 
L 257.06742 357.99129 
L 257.702243 355.333596 
L 260.464418 355.992704 
L 258.926117 362.447103 
L 249.5789 360.220715 
L 252.142071 349.471483 
" clip-path="url(#pf4ecc48832)" style="fill: #4d59c1"/>
   </g>
   <g id="LineCollection_1">
    <path d="M 246.371939 709.495789 
L 245.632651 707.834922 
L 246.11424 704.150599 
L 247.929157 700.308333 
L 252.448537 693.957204 
L 249.744073 690.698112 
" clip-path="url(#pf4ecc48832)" style="fill: none; stroke: #4d59c1; stroke-width: 0.2"/>
    <path d="M 130.851549 796.211939 
L 125.161605 794.077847 
L 120.817348 794.94957 
L 115.169615 797.121286 
L 108.963822 798.083949 
" clip-path="url(#pf4ecc48832)" style="fill: none; stroke: #4d59c1; stroke-width: 0.2"/>
    <path d="M 56.744033 557.716223 
L 96.540851 590.261583 
L 107.999501 601.320627 
L 118.980541 601.797493 
L 123.675045 608.321752 
L 130.835209 617.950197 
L 133.462062 634.582804 
L 135.927721 640.232302 
L 138.277958 643.992559 
" clip-path="url(#pf4ecc48832)" style="fill: none; stroke: #4d59c1; stroke-width: 0.2"/>
    <path d="M 48.308413 594.788717 
L 49.142081 595.734914 
L 65.727073 600.497501 
L 82.564801 600.75264 
L 89.368748 598.2863 
L 96.540851 590.261583 
" clip-path="url(#pf4ecc48832)" style="fill: none; stroke: #4d59c1; stroke-width: 0.2"/>
    <path d="M 137.225227 572.784588 
L 140.960532 569.902129 
L 143.416241 567.338594 
L 146.725678 565.309634 
L 151.897791 565.267111 
L 156.013194 565.203327 
L 159.535564 563.815251 
L 163.80619 562.108252 
L 167.115626 560.507561 
" clip-path="url(#pf4ecc48832)" style="fill: none; stroke: #4d59c1; stroke-width: 0.2"/>
    <path d="M 162.632066 577.799277 
L 159.002234 576.198586 
L 155.479863 572.462628 
L 154.411212 569.045593 
L 152.596295 566.272479 
L 151.897791 565.267111 
L 150.888841 563.815251 
L 150.248048 559.119486 
L 149.82218 555.702451 
L 149.927652 551.325609 
L 149.82218 548.336842 
L 146.892841 543.428461 
" clip-path="url(#pf4ecc48832)" style="fill: none; stroke: #4d59c1; stroke-width: 0.2"/>
    <path d="M 96.540851 590.261583 
L 118.226316 568.158682 
L 146.892841 543.428461 
L 148.500793 542.040386 
L 164.669867 527.530896 
" clip-path="url(#pf4ecc48832)" style="fill: none; stroke: #4d59c1; stroke-width: 0.2"/>
    <path d="M 56.744033 557.716223 
L 54.464788 559.997486 
" clip-path="url(#pf4ecc48832)" style="fill: none; stroke: #4d59c1; stroke-width: 0.2"/>
    <path d="M 245.471837 710.171457 
L 245.632651 707.834922 
" clip-path="url(#pf4ecc48832)" style="fill: none; stroke: #4d59c1; stroke-width: 0.2"/>
    <path d="M 220.302834 729.064736 
L 240.989888 702.230984 
L 249.744073 690.698112 
L 264.261414 671.429072 
L 277.986719 653.059092 
" clip-path="url(#pf4ecc48832)" style="fill: none; stroke: #4d59c1; stroke-width: 0.2"/>
    <path d="M 207.340303 671.125335 
L 201.453765 676.975299 
L 191.921474 676.34049 
L 177.995175 675.945633 
L 166.741499 670.147304 
L 138.277958 643.992559 
" clip-path="url(#pf4ecc48832)" style="fill: none; stroke: #4d59c1; stroke-width: 0.2"/>
    <path d="M 240.989888 702.230984 
L 207.340303 671.125335 
L 168.922583 621.789425 
L 140.8869 590.097565 
L 122.845199 572.161928 
L 118.226316 568.158682 
L 110.321878 561.306388 
L 95.808517 551.08262 
L 77.414578 538.331764 
" clip-path="url(#pf4ecc48832)" style="fill: none; stroke: #4d59c1; stroke-width: 0.2"/>
    <path d="M 188.572237 547.264652 
L 182.594157 550.791033 
L 178.430993 553.673491 
L 174.375292 556.877911 
L 170.745459 558.691217 
L 167.115626 560.507561 
L 166.474834 564.990711 
L 165.941503 567.87317 
L 164.126586 572.034359 
L 162.952463 574.491587 
L 162.632066 577.799277 
L 166.261899 581.003696 
L 169.356411 586.234038 
L 172.665848 591.358072 
L 177.043935 596.697758 
L 179.071786 601.499831 
L 183.129477 606.517557 
L 185.583197 607.905633 
L 189.533426 609.506324 
L 192.416994 611.322668 
L 197.006026 612.282475 
L 201.489586 615.271241 
L 203.091568 619.651121 
L 205.119418 623.065119 
L 205.654739 628.404805 
L 207.362193 634.488646 
L 208.962185 637.586758 
L 213.019877 638.865488 
L 218.14423 641.641639 
L 219.105419 645.699558 
L 220.17208 649.116593 
L 223.481517 652.958859 
L 227.431746 656.482202 
L 231.594909 659.899237 
L 233.409826 663.313234 
L 234.263553 666.945922 
" clip-path="url(#pf4ecc48832)" style="fill: none; stroke: #4d59c1; stroke-width: 0.2"/>
    <path d="M 277.986719 653.059092 
L 255.849516 628.246862 
L 230.952126 596.895187 
L 204.623898 564.905665 
L 189.921484 548.534271 
L 188.572237 547.264652 
L 180.661828 539.813998 
L 177.055876 536.418224 
L 165.233049 527.868043 
L 164.669867 527.530896 
L 135.981452 510.348526 
L 120.755657 499.757236 
L 71.147265 465.720591 
" clip-path="url(#pf4ecc48832)" style="fill: none; stroke: #4d59c1; stroke-width: 0.2"/>
    <path d="M 180.661828 539.813998 
L 182.488685 534.67174 
L 184.944394 530.723166 
L 187.398113 526.558939 
L 190.815012 523.35452 
L 193.270721 520.153138 
L 198.71547 518.124178 
L 202.237841 517.483294 
L 205.545287 517.562266 
L 206.7214 517.59264 
L 212.16615 517.483294 
L 214.406935 518.658755 
L 217.823833 517.698947 
L 221.025807 513.215798 
L 223.481517 508.838955 
L 225.296433 503.392961 
" clip-path="url(#pf4ecc48832)" style="fill: none; stroke: #4d59c1; stroke-width: 0.2"/>
    <path d="M 256.329115 499.277332 
L 256.148021 503.499269 
L 255.614691 511.399454 
L 255.614691 520.153138 
L 254.333105 529.547706 
L 252.838585 539.47685 
" clip-path="url(#pf4ecc48832)" style="fill: none; stroke: #4d59c1; stroke-width: 0.2"/>
    <path d="M 205.545287 517.562266 
L 201.169189 515.457372 
L 197.541346 512.893837 
L 193.270721 513.322105 
L 189.320492 513.747336 
L 185.2628 510.333339 
L 182.594157 508.091764 
L 178.538455 504.674729 
L 174.480764 504.993652 
L 169.891732 506.27542 
L 167.008164 506.703688 
L 163.057935 508.091764 
L 159.430092 511.721414 
L 157.400252 514.710181 
" clip-path="url(#pf4ecc48832)" style="fill: none; stroke: #4d59c1; stroke-width: 0.2"/>
    <path d="M 274.243454 426.875677 
L 272.456398 436.649916 
L 263.437538 471.66769 
L 256.329115 499.277332 
" clip-path="url(#pf4ecc48832)" style="fill: none; stroke: #4d59c1; stroke-width: 0.2"/>
    <path d="M 277.986719 653.059092 
L 281.875257 651.677091 
L 289.242385 643.670599 
L 298.102043 640.894448 
L 321.055163 618.688276 
L 336.533693 606.092326 
L 342.420967 601.534685 
" clip-path="url(#pf4ecc48832)" style="fill: none; stroke: #4d59c1; stroke-width: 0.2"/>
    <path d="M 277.986719 653.059092 
L 285.811556 621.558586 
L 292.764756 596.804066 
L 298.356768 575.612374 
L 303.493061 554.153395 
L 306.96369 538.674986 
L 310.730836 524.031852 
L 319.134774 491.355886 
L 319.40144 486.8454 
L 318.812388 483.589345 
L 317.164635 480.977212 
" clip-path="url(#pf4ecc48832)" style="fill: none; stroke: #4d59c1; stroke-width: 0.2"/>
    <path d="M 310.730836 524.031852 
L 323.723806 539.048582 
L 329.594424 546.736151 
L 334.505843 558.691217 
L 352.602487 578.23617 
" clip-path="url(#pf4ecc48832)" style="fill: none; stroke: #4d59c1; stroke-width: 0.2"/>
    <path d="M 317.164635 480.977212 
L 328.955621 483.325094 
L 336.267028 486.474841 
L 344.971462 491.693033 
L 363.102716 502.542499 
L 382.8204 509.0881 
" clip-path="url(#pf4ecc48832)" style="fill: none; stroke: #4d59c1; stroke-width: 0.2"/>
    <path d="M 386.612917 500.409631 
L 384.839922 496.29464 
L 381.530485 486.793765 
L 385.160318 474.732391 
L 392.099587 456.210542 
L 405.765191 440.786806 
L 408.433835 436.567907 
L 411.795012 424.719148 
L 417.775082 414.258465 
L 418.413885 398.515806 
" clip-path="url(#pf4ecc48832)" style="fill: none; stroke: #4d59c1; stroke-width: 0.2"/>
    <path d="M 317.164635 480.977212 
L 313.100973 478.146388 
L 308.030352 472.970719 
L 302.318937 466.671225 
L 299.063232 459.68225 
L 296.711005 451.885335 
L 294.633403 446.709667 
L 293.031421 443.456649 
L 289.721985 438.812519 
L 274.243454 426.875677 
" clip-path="url(#pf4ecc48832)" style="fill: none; stroke: #4d59c1; stroke-width: 0.2"/>
    <path d="M 276.864337 398.986597 
L 302.159734 403.797782 
L 325.325789 413.939542 
L 353.401271 428.883375 
L 353.721668 435.289176 
L 347.636126 451.192816 
L 336.267028 486.474841 
" clip-path="url(#pf4ecc48832)" style="fill: none; stroke: #4d59c1; stroke-width: 0.2"/>
    <path d="M 278.904128 372.637461 
L 294.366738 374.551 
L 341.658046 383.304685 
L 353.508734 384.477107 
L 365.464893 383.5173 
L 376.672798 386.718682 
L 392.045856 401.878168 
L 400.159249 415.111965 
L 406.885584 422.583881 
L 411.795012 424.719148 
" clip-path="url(#pf4ecc48832)" style="fill: none; stroke: #4d59c1; stroke-width: 0.2"/>
    <path d="M 274.243454 426.875677 
L 276.599662 402.403632 
L 276.864337 398.986597 
L 278.904128 372.637461 
L 281.50113 339.111033 
L 282.305106 325.50364 
" clip-path="url(#pf4ecc48832)" style="fill: none; stroke: #4d59c1; stroke-width: 0.2"/>
    <path d="M 77.414578 538.331764 
L 56.744033 557.716223 
L 55.106835 556.369112 
" clip-path="url(#pf4ecc48832)" style="fill: none; stroke: #4d59c1; stroke-width: 0.2"/>
    <path d="M 77.414578 538.331764 
L 120.755657 499.757236 
" clip-path="url(#pf4ecc48832)" style="fill: none; stroke: #4d59c1; stroke-width: 0.2"/>
    <path d="M 60.594727 525.35565 
L 77.414578 538.331764 
" clip-path="url(#pf4ecc48832)" style="fill: none; stroke: #4d59c1; stroke-width: 0.2"/>
    <path d="M 153.694797 472.794552 
L 145.696827 475.516031 
L 137.724727 482.881639 
L 120.755657 499.757236 
" clip-path="url(#pf4ecc48832)" style="fill: none; stroke: #4d59c1; stroke-width: 0.2"/>
    <path d="M 145.696827 475.516031 
L 117.846218 469.322845 
L 88.761785 462.853258 
L 71.780111 462.144219 
" clip-path="url(#pf4ecc48832)" style="fill: none; stroke: #4d59c1; stroke-width: 0.2"/>
    <path d="M 117.846218 469.322845 
L 136.500853 402.573724 
" clip-path="url(#pf4ecc48832)" style="fill: none; stroke: #4d59c1; stroke-width: 0.2"/>
    <path d="M 106.309957 393.288501 
L 99.665214 424.084339 
L 88.761785 462.853258 
" clip-path="url(#pf4ecc48832)" style="fill: none; stroke: #4d59c1; stroke-width: 0.2"/>
    <path d="M 99.665214 424.084339 
L 80.327595 413.840232 
" clip-path="url(#pf4ecc48832)" style="fill: none; stroke: #4d59c1; stroke-width: 0.2"/>
    <path d="M 169.688748 412.976697 
L 150.005263 406.728839 
L 136.500853 402.573724 
L 106.309957 393.288501 
L 113.957681 367.887023 
L 119.42631 348.879196 
L 129.296908 324.38589 
L 140.35755 302.814528 
L 142.518733 297.945633 
L 143.923701 295.403359 
L 145.217227 294.24916 
L 145.561504 294.215749 
L 150.045064 293.79963 
L 154.759469 293.823929 
L 160.924612 293.626501 
L 164.126586 292.362957 
" clip-path="url(#pf4ecc48832)" style="fill: none; stroke: #4d59c1; stroke-width: 0.2"/>
    <path d="M 263.437538 471.66769 
L 246.647571 467.418417 
L 246.860505 461.012616 
L 207.362193 450.445625 
" clip-path="url(#pf4ecc48832)" style="fill: none; stroke: #4d59c1; stroke-width: 0.2"/>
    <path d="M 256.329115 499.277332 
L 153.694797 472.794552 
L 169.688748 412.976697 
L 176.450904 392.374255 
L 186.568266 358.516754 
L 193.376193 336.125303 
L 197.845823 319.313491 
" clip-path="url(#pf4ecc48832)" style="fill: none; stroke: #4d59c1; stroke-width: 0.2"/>
    <path d="M 267.690253 401.528871 
L 266.854436 414.711033 
L 266.201703 417.869892 
L 265.107181 420.208662 
L 261.773864 422.520096 
L 256.522149 422.374303 
L 185.221009 395.660683 
L 176.450904 392.374255 
" clip-path="url(#pf4ecc48832)" style="fill: none; stroke: #4d59c1; stroke-width: 0.2"/>
    <path d="M 276.599662 402.403632 
L 267.690253 401.528871 
" clip-path="url(#pf4ecc48832)" style="fill: none; stroke: #4d59c1; stroke-width: 0.2"/>
    <path d="M 185.221009 395.660683 
L 201.489586 389.920064 
L 214.406935 385.117991 
L 227.111349 379.675034 
L 243.230672 374.763616 
L 252.625651 372.203118 
L 256.788814 371.455926 
" clip-path="url(#pf4ecc48832)" style="fill: none; stroke: #4d59c1; stroke-width: 0.2"/>
    <path d="M 268.965868 375.650526 
L 262.979828 374.338385 
L 256.788814 371.455926 
" clip-path="url(#pf4ecc48832)" style="fill: none; stroke: #4d59c1; stroke-width: 0.2"/>
    <path d="M 267.690253 401.528871 
L 268.965868 375.650526 
L 270.846456 337.519454 
" clip-path="url(#pf4ecc48832)" style="fill: none; stroke: #4d59c1; stroke-width: 0.2"/>
    <path d="M 287.773736 319.419799 
L 284.277235 317.819108 
L 278.408608 314.553941 
L 269.214623 307.613564 
L 261.974858 300.123423 
L 260.418647 278.8072 
L 259.787804 276.623335 
L 258.816665 273.254898 
L 252.412717 266.639518 
L 234.371015 256.285143 
L 227.533238 249.572567 
L 222.627789 244.758345 
L 206.880604 237.01914 
" clip-path="url(#pf4ecc48832)" style="fill: none; stroke: #4d59c1; stroke-width: 0.2"/>
    <path d="M 181.73844 306.775251 
L 206.880604 237.01914 
" clip-path="url(#pf4ecc48832)" style="fill: none; stroke: #4d59c1; stroke-width: 0.2"/>
    <path d="M 297.343837 266.928067 
L 299.170694 261.621792 
L 300.770686 256.926027 
L 301.091083 252.442877 
L 300.131883 247.959727 
L 296.502051 244.330076 
L 290.736905 240.703463 
L 285.932949 237.821004 
L 280.062331 235.685737 
L 272.802665 238.887119 
L 264.368876 244.545729 
L 257.429607 249.666726 
L 253.053509 253.190068 
L 246.327175 253.508992 
L 239.921236 251.801993 
L 227.533238 249.572567 
" clip-path="url(#pf4ecc48832)" style="fill: none; stroke: #4d59c1; stroke-width: 0.2"/>
    <path d="M 206.880604 237.01914 
L 210.351233 227.466629 
L 215.047727 215.620908 
L 216.970106 207.082877 
L 215.047727 202.706035 
" clip-path="url(#pf4ecc48832)" style="fill: none; stroke: #4d59c1; stroke-width: 0.2"/>
    <path d="M 454.387836 331.797059 
L 452.5769 337.458706 
L 434.481467 360.515339 
L 425.247682 368.998698 
L 418.413885 398.515806 
" clip-path="url(#pf4ecc48832)" style="fill: none; stroke: #4d59c1; stroke-width: 0.2"/>
    <path d="M 281.50113 339.111033 
L 356.81817 349.893676 
L 406.67265 362.273973 
L 425.247682 368.998698 
" clip-path="url(#pf4ecc48832)" style="fill: none; stroke: #4d59c1; stroke-width: 0.2"/>
    <path d="M 270.846456 337.519454 
L 281.50113 339.111033 
" clip-path="url(#pf4ecc48832)" style="fill: none; stroke: #4d59c1; stroke-width: 0.2"/>
    <path d="M 287.773736 319.419799 
L 292.177694 317.39084 
L 295.274196 316.777292 
L 299.304027 316.698321 
L 335.471012 316.078698 
L 342.939632 315.951129 
L 353.721668 316.592013 
L 373.204159 319.313491 
L 394.447834 322.353893 
L 436.240662 328.431659 
L 451.454517 331.320193 
L 454.387836 331.797059 
L 457.327125 331.748461 
L 460.369896 330.788654 
L 462.151165 329.615939 
" clip-path="url(#pf4ecc48832)" style="fill: none; stroke: #4d59c1; stroke-width: 0.2"/>
    <path d="M 335.471012 316.078698 
L 333.652115 312.108863 
L 328.740697 307.519405 
L 323.40341 304.743254 
L 318.066123 301.754488 
L 315.290017 297.593299 
L 313.262167 289.267883 
L 311.234316 281.689658 
L 309.739796 276.990856 
L 303.120923 267.280402 
L 297.343837 266.928067 
L 294.366738 266.745826 
L 286.253345 268.452824 
L 278.886217 270.481784 
L 269.385767 272.935974 
L 259.787804 276.623335 
" clip-path="url(#pf4ecc48832)" style="fill: none; stroke: #4d59c1; stroke-width: 0.2"/>
    <path d="M 507.790805 240.026707 
L 505.46221 238.556047 
" clip-path="url(#pf4ecc48832)" style="fill: none; stroke: #4d59c1; stroke-width: 0.2"/>
    <path d="M 483.693164 232.484355 
L 470.51114 241.769578 
L 458.767914 245.077268 
L 448.411746 244.011153 
L 433.679481 238.674504 
L 375.926533 209.108799 
L 356.81817 205.694801 
" clip-path="url(#pf4ecc48832)" style="fill: none; stroke: #4d59c1; stroke-width: 0.2"/>
    <path d="M 505.46221 238.556047 
L 491.171734 234.853499 
L 483.693164 232.484355 
L 479.03647 230.206332 
L 473.872317 225.762668 
L 468.823586 220.708493 
L 430.463577 187.707529 
L 411.554217 172.137999 
L 401.594068 162.096472 
L 394.656789 154.266147 
L 383.564306 141.050575 
L 371.970334 128.187336 
L 356.571405 112.098417 
L 354.623156 105.604532 
L 354.591315 97.725609 
" clip-path="url(#pf4ecc48832)" style="fill: none; stroke: #4d59c1; stroke-width: 0.2"/>
    <path d="M 520.163717 215.739055 
L 514.813408 209.749683 
L 504.138834 199.182692 
L 491.434419 191.391852 
L 478.409608 182.212937 
L 469.442488 172.927714 
L 465.173853 164.924259 
L 463.679333 160.015878 
L 466.453448 153.291153 
L 471.364867 143.793315 
L 480.01159 131.519325 
L 483.961819 114.977838 
L 483.854357 107.827883 
L 479.691194 93.953202 
L 473.605652 84.239711 
L 469.657412 77.305408 
L 469.657412 71.968759 
L 470.831536 66.203841 
L 477.983739 54.999004 
L 480.219936 49.882227 
" clip-path="url(#pf4ecc48832)" style="fill: none; stroke: #4d59c1; stroke-width: 0.2"/>
    <path d="M 98.429893 258.129993 
L 100.928889 258.58139 
L 110.108943 259.592832 
L 117.848209 261.88908 
L 126.122794 265.892326 
L 147.740598 280.08593 
L 164.126586 292.362957 
L 176.136477 302.073411 
L 181.73844 306.775251 
L 190.066757 313.761189 
L 197.845823 319.313491 
L 203.999026 321.980297 
L 217.503437 326.357139 
L 258.434577 337.410108 
L 265.722103 338.315243 
L 270.846456 337.519454 
L 275.01758 334.576247 
L 282.305106 325.50364 
L 286.092152 320.965818 
L 287.773736 319.419799 
" clip-path="url(#pf4ecc48832)" style="fill: none; stroke: #4d59c1; stroke-width: 0.2"/>
   </g>
  </g>
 </g>
 <defs>
  <clipPath id="pf4ecc48832">
   <rect x="7.2" y="7.2" width="548.574399" height="831.6"/>
  </clipPath>
 </defs>
</svg>
