<?xml version="1.0" encoding="utf-8" standalone="no"?>
<!DOCTYPE svg PUBLIC "-//W3C//DTD SVG 1.1//EN"
  "http://www.w3.org/Graphics/SVG/1.1/DTD/svg11.dtd">
<svg xmlns:xlink="http://www.w3.org/1999/xlink" width="851.4pt" height="618.040915pt" viewBox="0 0 851.4 618.040915" xmlns="http://www.w3.org/2000/svg" version="1.1">
 <metadata>
  <rdf:RDF xmlns:dc="http://purl.org/dc/elements/1.1/" xmlns:cc="http://creativecommons.org/ns#" xmlns:rdf="http://www.w3.org/1999/02/22-rdf-syntax-ns#">
   <cc:Work>
    <dc:type rdf:resource="http://purl.org/dc/dcmitype/StillImage"/>
    <dc:date>2025-03-16T14:38:40.731310</dc:date>
    <dc:format>image/svg+xml</dc:format>
    <dc:creator>
     <cc:Agent>
      <dc:title>Matplotlib v3.10.1, https://matplotlib.org/</dc:title>
     </cc:Agent>
    </dc:creator>
   </cc:Work>
  </rdf:RDF>
 </metadata>
 <defs>
  <style type="text/css">*{stroke-linejoin: round; stroke-linecap: butt}</style>
 </defs>
 <g id="figure_1">
  <g id="patch_1">
   <path d="M 0 618.040915 
L 851.4 618.040915 
L 851.4 0 
L 0 0 
z
" style="fill: #ffffff"/>
  </g>
  <g id="axes_1">
   <g id="PatchCollection_1">
    <path d="M 178.344643 227.431284 
L 109.92161 231.347869 
L 73.177014 266.973087 
L 71.054833 329.195867 
L 45.245455 334.497295 
L 51.256203 386.469378 
L 124.792623 385.408141 
L 125.497917 403.43966 
L 188.782375 419.700863 
L 217.837998 420.352834 
L 176.84904 533.767235 
L 173.933402 549.809529 
L 201.861813 558.299429 
L 231.203963 559.355907 
L 249.941502 568.902286 
L 290.599853 583.402692 
L 306.5477 571.572036 
L 324.957781 464.268078 
L 346.497608 353.81848 
L 398.994834 328.072764 
L 385.493478 239.076342 
L 511.30672 175.797084 
L 549.666566 159.892798 
L 560.979619 179.156876 
L 584.31102 184.458304 
L 595.803546 176.154002 
L 642.822144 170.671735 
L 664.387159 214.862996 
L 696.912581 248.270561 
L 717.772302 238.548103 
L 728.376911 245.262928 
L 742.873237 238.015105 
L 774.866538 211.679283 
L 806.154545 211.327124 
L 805.446102 196.479317 
L 762.492395 158.831561 
L 750.294574 147.338787 
L 692.554867 125.124184 
L 622.060031 87.633472 
L 593.061083 65.133334 
L 530.563785 76.635626 
L 506.064239 34.638223 
L 457.874348 45.055483 
L 310.2442 157.96068 
L 230.602573 178.067085 
L 238.436382 223.562288 
L 178.344643 227.431284 
" clip-path="url(#p59cfc1f632)" style="fill: #d1d4f2"/>
   </g>
   <g id="PatchCollection_2">
    <path d="M 244.113375 543.070909 
L 242.819285 546.440219 
L 240.596347 545.583615 
L 241.890437 542.214305 
L 244.113375 543.070909 
" clip-path="url(#p59cfc1f632)" style="fill: #4d59c1"/>
    <path d="M 247.872847 539.558832 
L 246.786568 542.385626 
L 242.491827 540.734283 
L 243.578106 537.907489 
L 247.872847 539.558832 
" clip-path="url(#p59cfc1f632)" style="fill: #4d59c1"/>
    <path d="M 247.485565 532.834489 
L 246.704703 534.866544 
L 244.739953 534.114636 
L 245.520815 532.08258 
L 247.485565 532.834489 
" clip-path="url(#p59cfc1f632)" style="fill: #4d59c1"/>
    <path d="M 252.482452 529.246269 
L 251.685847 531.321154 
L 247.850807 529.845892 
L 248.647412 527.771006 
L 252.482452 529.246269 
" clip-path="url(#p59cfc1f632)" style="fill: #4d59c1"/>
    <path d="M 236.792793 524.363624 
L 240.256294 526.476582 
L 238.511949 529.336688 
L 235.048448 527.223731 
L 236.792793 524.363624 
" clip-path="url(#p59cfc1f632)" style="fill: #4d59c1"/>
    <path d="M 245.41691 513.798839 
L 244.17005 517.044417 
L 240.306672 515.564395 
L 241.550384 512.318817 
L 245.41691 513.798839 
" clip-path="url(#p59cfc1f632)" style="fill: #4d59c1"/>
    <path d="M 268.449191 498.846336 
L 267.816315 500.49292 
L 261.103421 497.913589 
L 261.736297 496.271764 
L 268.449191 498.846336 
" clip-path="url(#p59cfc1f632)" style="fill: #4d59c1"/>
    <path d="M 252.816208 493.887549 
L 252.192778 495.510338 
L 246.081273 493.164195 
L 246.704703 491.541405 
L 252.816208 493.887549 
" clip-path="url(#p59cfc1f632)" style="fill: #4d59c1"/>
    <path d="M 271.941029 480.567353 
L 271.068857 482.842114 
L 267.536086 481.485823 
L 268.408259 479.211063 
L 271.941029 480.567353 
" clip-path="url(#p59cfc1f632)" style="fill: #4d59c1"/>
    <path d="M 258.115364 479.596535 
L 256.837017 482.923015 
L 255.391793 482.370981 
L 256.670139 479.039742 
L 258.115364 479.596535 
" clip-path="url(#p59cfc1f632)" style="fill: #4d59c1"/>
    <path d="M 220.86069 546.268898 
L 218.946318 548.724497 
L 215.863802 546.316487 
L 217.778174 543.860889 
L 220.86069 546.268898 
" clip-path="url(#p59cfc1f632)" style="fill: #4d59c1"/>
    <path d="M 222.787655 546.730513 
L 225.996117 543.142293 
L 227.702678 544.665145 
L 224.491068 548.253365 
L 222.787655 546.730513 
" clip-path="url(#p59cfc1f632)" style="fill: #4d59c1"/>
    <path d="M 223.732247 544.412922 
L 222.494832 545.931016 
L 219.752369 543.689568 
L 220.986635 542.171475 
L 223.732247 544.412922 
" clip-path="url(#p59cfc1f632)" style="fill: #4d59c1"/>
    <path d="M 230.967815 538.112122 
L 232.529539 535.827844 
L 234.330559 537.065162 
L 232.768835 539.344681 
L 230.967815 538.112122 
" clip-path="url(#p59cfc1f632)" style="fill: #4d59c1"/>
    <path d="M 236.780199 532.291973 
L 235.25311 534.466796 
L 232.970348 532.858283 
L 234.500586 530.688219 
L 236.780199 532.291973 
" clip-path="url(#p59cfc1f632)" style="fill: #4d59c1"/>
    <path d="M 166.804888 350.782294 
L 166.726172 355.098627 
L 162.762038 355.027244 
L 162.840753 350.706151 
L 166.804888 350.782294 
" clip-path="url(#p59cfc1f632)" style="fill: #4d59c1"/>
    <path d="M 177.252066 350.27309 
L 177.198539 353.156991 
L 173.177729 353.085607 
L 173.228107 350.201706 
L 177.252066 350.27309 
" clip-path="url(#p59cfc1f632)" style="fill: #4d59c1"/>
    <path d="M 190.051275 347.917428 
L 189.950519 353.328312 
L 185.545576 353.24741 
L 185.643183 347.836527 
L 190.051275 347.917428 
" clip-path="url(#p59cfc1f632)" style="fill: #4d59c1"/>
    <path d="M 165.34392 345.794953 
L 165.290393 348.683613 
L 161.436461 348.61223 
L 161.489988 345.72357 
L 165.34392 345.794953 
" clip-path="url(#p59cfc1f632)" style="fill: #4d59c1"/>
    <path d="M 178.344643 343.848558 
L 178.297413 346.399335 
L 174.786683 346.337469 
L 174.833912 343.781934 
L 178.344643 343.848558 
" clip-path="url(#p59cfc1f632)" style="fill: #4d59c1"/>
    <path d="M 286.35549 440.820917 
L 285.562034 443.095677 
L 281.210617 441.572825 
L 282.004074 439.302824 
L 286.35549 440.820917 
" clip-path="url(#p59cfc1f632)" style="fill: #4d59c1"/>
    <path d="M 274.318251 434.700955 
L 273.313835 437.275527 
L 267.907625 435.16257 
L 268.915189 432.587998 
L 274.318251 434.700955 
" clip-path="url(#p59cfc1f632)" style="fill: #4d59c1"/>
    <path d="M 284.642632 429.942043 
L 288.402104 431.041352 
L 287.791269 433.135273 
L 284.031796 432.040723 
L 284.642632 429.942043 
" clip-path="url(#p59cfc1f632)" style="fill: #4d59c1"/>
    <path d="M 279.302543 418.35885 
L 276.515999 417.468934 
L 278.751532 410.459056 
L 281.541224 411.348972 
L 279.302543 418.35885 
" clip-path="url(#p59cfc1f632)" style="fill: #4d59c1"/>
    <path d="M 246.112759 409.402577 
L 246.027746 411.253794 
L 244.210982 411.168133 
L 244.295996 409.321675 
L 246.112759 409.402577 
" clip-path="url(#p59cfc1f632)" style="fill: #4d59c1"/>
    <path d="M 245.571194 346.332711 
L 245.646761 349.568771 
L 240.908062 349.678226 
L 240.835643 346.442166 
L 245.571194 346.332711 
" clip-path="url(#p59cfc1f632)" style="fill: #4d59c1"/>
    <path d="M 243.669417 339.622644 
L 243.704052 341.207362 
L 240.955292 341.269228 
L 240.917508 339.689269 
L 243.669417 339.622644 
" clip-path="url(#p59cfc1f632)" style="fill: #4d59c1"/>
    <path d="M 286.881313 337.010001 
L 286.988366 342.473233 
L 281.774223 342.57317 
L 281.66717 337.109938 
L 286.881313 337.010001 
" clip-path="url(#p59cfc1f632)" style="fill: #4d59c1"/>
    <path d="M 242.318652 327.002008 
L 242.353287 328.539137 
L 237.998721 328.639074 
L 237.964086 327.101945 
L 242.318652 327.002008 
" clip-path="url(#p59cfc1f632)" style="fill: #4d59c1"/>
    <path d="M 242.904298 316.917873 
L 242.94523 318.659635 
L 237.158035 318.792884 
L 237.117103 317.055881 
L 242.904298 316.917873 
" clip-path="url(#p59cfc1f632)" style="fill: #4d59c1"/>
    <path d="M 72.966056 375.157443 
L 72.899934 378.831324 
L 70.551051 378.788493 
L 70.620321 375.114613 
L 72.966056 375.157443 
" clip-path="url(#p59cfc1f632)" style="fill: #4d59c1"/>
    <path d="M 81.78224 367.276684 
L 81.681483 372.749433 
L 76.262679 372.654255 
L 76.360287 367.176747 
L 81.78224 367.276684 
" clip-path="url(#p59cfc1f632)" style="fill: #4d59c1"/>
    <path d="M 121.048893 366.439116 
L 120.954434 371.735785 
L 117.519271 371.673919 
L 117.616879 366.372491 
L 121.048893 366.439116 
" clip-path="url(#p59cfc1f632)" style="fill: #4d59c1"/>
    <path d="M 97.525425 366.439116 
L 97.434115 371.526393 
L 93.79429 371.459768 
L 93.885601 366.372491 
L 97.525425 366.439116 
" clip-path="url(#p59cfc1f632)" style="fill: #4d59c1"/>
    <path d="M 94.222505 354.594183 
L 97.317615 354.651289 
L 97.223156 359.828986 
L 95.069488 359.790915 
L 95.069488 359.871816 
L 92.774132 359.828986 
L 92.830807 356.702381 
L 94.184721 356.730934 
L 94.222505 354.594183 
" clip-path="url(#p59cfc1f632)" style="fill: #4d59c1"/>
    <path d="M 81.709821 354.032631 
L 81.59647 360.166869 
L 75.406249 360.052655 
L 75.516452 353.918417 
L 81.709821 354.032631 
" clip-path="url(#p59cfc1f632)" style="fill: #4d59c1"/>
    <path d="M 121.089825 353.856551 
L 120.995366 358.943829 
L 117.355542 358.877204 
L 117.446852 353.789926 
L 121.089825 353.856551 
" clip-path="url(#p59cfc1f632)" style="fill: #4d59c1"/>
    <path d="M 136.798376 353.456802 
L 136.744849 356.369257 
L 134.244831 356.321668 
L 134.295209 353.409213 
L 136.798376 353.456802 
" clip-path="url(#p59cfc1f632)" style="fill: #4d59c1"/>
    <path d="M 150.835 352.195691 
L 150.76573 356.031374 
L 148.076794 355.979026 
L 148.146064 352.143343 
L 150.835 352.195691 
" clip-path="url(#p59cfc1f632)" style="fill: #4d59c1"/>
    <path d="M 142.525747 347.136967 
L 142.487963 349.188058 
L 139.241718 349.130951 
L 139.279502 347.075101 
L 142.525747 347.136967 
" clip-path="url(#p59cfc1f632)" style="fill: #4d59c1"/>
    <path d="M 137.276969 345.685498 
L 137.25178 346.994199 
L 134.865113 346.94661 
L 134.887153 345.642668 
L 137.276969 345.685498 
" clip-path="url(#p59cfc1f632)" style="fill: #4d59c1"/>
    <path d="M 121.237811 341.107425 
L 121.121312 347.498644 
L 117.415366 347.432019 
L 117.531865 341.0408 
L 121.237811 341.107425 
" clip-path="url(#p59cfc1f632)" style="fill: #4d59c1"/>
    <path d="M 95.998336 346.737218 
L 94.046181 346.703906 
L 94.14064 341.673735 
L 95.299339 341.692771 
L 95.302487 341.56428 
L 98.825812 341.630905 
L 98.76284 345.157259 
L 96.026674 345.104911 
L 95.998336 346.737218 
" clip-path="url(#p59cfc1f632)" style="fill: #4d59c1"/>
    <path d="M 136.993591 335.815514 
L 136.914875 340.065223 
L 133.797725 340.008116 
L 133.873292 335.758407 
L 136.993591 335.815514 
" clip-path="url(#p59cfc1f632)" style="fill: #4d59c1"/>
    <path d="M 147.04719 332.098804 
L 146.965325 336.691154 
L 144.093768 336.638806 
L 144.178781 332.046455 
L 147.04719 332.098804 
" clip-path="url(#p59cfc1f632)" style="fill: #4d59c1"/>
    <path d="M 121.445621 330.042953 
L 121.33227 336.224781 
L 117.629473 336.158156 
L 117.742824 329.976329 
L 121.445621 330.042953 
" clip-path="url(#p59cfc1f632)" style="fill: #4d59c1"/>
    <path d="M 103.810105 329.333875 
L 103.766024 331.746644 
L 99.625566 331.670501 
L 99.587782 333.73111 
L 94.27918 333.635932 
L 94.351599 329.762178 
L 99.534256 329.857356 
L 99.543702 329.257733 
L 103.810105 329.333875 
" clip-path="url(#p59cfc1f632)" style="fill: #4d59c1"/>
    <path d="M 151.565484 325.750414 
L 151.524552 327.906202 
L 149.374033 327.86813 
L 149.414965 325.712343 
L 151.565484 325.750414 
" clip-path="url(#p59cfc1f632)" style="fill: #4d59c1"/>
    <path d="M 97.739533 324.227562 
L 97.686006 327.144776 
L 95.648837 327.106704 
L 95.702364 324.189491 
L 97.739533 324.227562 
" clip-path="url(#p59cfc1f632)" style="fill: #4d59c1"/>
    <path d="M 121.91162 317.293827 
L 121.798269 323.556556 
L 118.010458 323.485172 
L 118.123809 317.222443 
L 121.91162 317.293827 
" clip-path="url(#p59cfc1f632)" style="fill: #4d59c1"/>
    <path d="M 173.432769 338.271113 
L 173.398134 340.236544 
L 170.070024 340.174678 
L 170.104659 338.209247 
L 173.432769 338.271113 
" clip-path="url(#p59cfc1f632)" style="fill: #4d59c1"/>
    <path d="M 208.325965 333.878637 
L 208.489694 340.869479 
L 205.61184 340.936104 
L 205.448111 333.945262 
L 208.325965 333.878637 
" clip-path="url(#p59cfc1f632)" style="fill: #4d59c1"/>
    <path d="M 207.290064 320.030202 
L 207.39082 324.317982 
L 204.620019 324.379848 
L 204.519263 320.092067 
L 207.290064 320.030202 
" clip-path="url(#p59cfc1f632)" style="fill: #4d59c1"/>
    <path d="M 175.312505 305.401305 
L 175.079506 297.820357 
L 173.464255 297.872705 
L 173.398134 295.774025 
L 175.013385 295.721677 
L 174.79298 288.507166 
L 179.493895 288.364398 
L 180.211784 311.587891 
L 175.510869 311.735417 
L 175.381775 307.633235 
L 174.015267 307.676065 
L 173.945997 305.439376 
L 175.312505 305.401305 
" clip-path="url(#p59cfc1f632)" style="fill: #4d59c1"/>
    <path d="M 205.3568 289.487502 
L 205.580354 292.276224 
L 201.56899 292.595071 
L 201.348585 289.806349 
L 205.3568 289.487502 
" clip-path="url(#p59cfc1f632)" style="fill: #4d59c1"/>
    <path d="M 227.850664 287.588696 
L 227.913637 290.19658 
L 224.594973 290.272722 
L 224.535149 287.664838 
L 227.850664 287.588696 
" clip-path="url(#p59cfc1f632)" style="fill: #4d59c1"/>
    <path d="M 204.122535 278.798984 
L 204.349237 281.668609 
L 201.200599 281.920831 
L 200.970749 279.051207 
L 204.122535 278.798984 
" clip-path="url(#p59cfc1f632)" style="fill: #4d59c1"/>
    <path d="M 226.569169 278.085147 
L 226.647885 281.273619 
L 222.75302 281.368797 
L 222.674305 278.180326 
L 226.569169 278.085147 
" clip-path="url(#p59cfc1f632)" style="fill: #4d59c1"/>
    <path d="M 179.745786 270.356674 
L 185.444819 270.275772 
L 185.517238 275.125104 
L 179.818205 275.206005 
L 179.745786 270.356674 
" clip-path="url(#p59cfc1f632)" style="fill: #4d59c1"/>
    <path d="M 202.337257 270.580343 
L 202.491541 272.545773 
L 200.032455 272.740889 
L 199.875023 270.775458 
L 202.337257 270.580343 
" clip-path="url(#p59cfc1f632)" style="fill: #4d59c1"/>
    <path d="M 97.774168 317.617433 
L 97.686006 322.500077 
L 94.515328 322.44297 
L 94.60349 317.560326 
L 97.774168 317.617433 
" clip-path="url(#p59cfc1f632)" style="fill: #4d59c1"/>
    <path d="M 103.252796 317.807789 
L 103.218161 319.797015 
L 101.237668 319.763703 
L 101.275452 317.769718 
L 103.252796 317.807789 
" clip-path="url(#p59cfc1f632)" style="fill: #4d59c1"/>
    <path d="M 122.087943 302.683966 
L 121.924214 311.692587 
L 117.96008 311.616444 
L 118.123809 302.612582 
L 122.087943 302.683966 
" clip-path="url(#p59cfc1f632)" style="fill: #4d59c1"/>
    <path d="M 94.773516 301.389542 
L 98.473165 301.456166 
L 98.318882 309.917513 
L 94.616084 309.850888 
L 94.713692 304.563736 
L 93.205495 304.535183 
L 93.252725 301.893986 
L 94.76407 301.92254 
L 94.773516 301.389542 
" clip-path="url(#p59cfc1f632)" style="fill: #4d59c1"/>
    <path d="M 103.580254 302.189039 
L 103.470052 308.142438 
L 101.335276 308.104367 
L 101.445478 302.146209 
L 103.580254 302.189039 
" clip-path="url(#p59cfc1f632)" style="fill: #4d59c1"/>
    <path d="M 96.757158 298.082097 
L 96.716225 300.375893 
L 92.87174 300.30451 
L 92.91582 298.010714 
L 96.757158 298.082097 
" clip-path="url(#p59cfc1f632)" style="fill: #4d59c1"/>
    <path d="M 116.66599 297.401573 
L 116.728963 293.82763 
L 118.454416 293.860942 
L 118.504794 291.086496 
L 121.927363 291.148362 
L 121.798269 298.220106 
L 118.3757 298.15824 
L 118.388295 297.434885 
L 116.66599 297.401573 
" clip-path="url(#p59cfc1f632)" style="fill: #4d59c1"/>
    <path d="M 103.577106 288.326327 
L 103.470052 294.122682 
L 102.012233 294.098888 
L 102.119287 288.297774 
L 103.577106 288.326327 
" clip-path="url(#p59cfc1f632)" style="fill: #4d59c1"/>
    <path d="M 95.110421 285.342489 
L 98.394449 285.399596 
L 98.290544 291.086496 
L 98.233869 294.041781 
L 93.621115 293.95612 
L 93.674642 291.000836 
L 95.006515 291.02463 
L 95.110421 285.342489 
" clip-path="url(#p59cfc1f632)" style="fill: #4d59c1"/>
    <path d="M 122.163511 276.452841 
L 122.009227 284.833285 
L 118.602402 284.771419 
L 118.756685 276.390975 
L 122.163511 276.452841 
" clip-path="url(#p59cfc1f632)" style="fill: #4d59c1"/>
    <path d="M 226.880884 268.253234 
L 226.8431 271.489295 
L 222.356292 271.436947 
L 222.397224 268.200886 
L 226.880884 268.253234 
" clip-path="url(#p59cfc1f632)" style="fill: #4d59c1"/>
    <path d="M 239.15742 266.17359 
L 239.229839 269.252606 
L 233.811034 269.381097 
L 233.738615 266.297321 
L 239.15742 266.17359 
" clip-path="url(#p59cfc1f632)" style="fill: #4d59c1"/>
    <path d="M 201.720125 262.071407 
L 201.96257 265.212289 
L 198.788743 265.459753 
L 198.546298 262.318871 
L 201.720125 262.071407 
" clip-path="url(#p59cfc1f632)" style="fill: #4d59c1"/>
    <path d="M 226.729749 259.120881 
L 226.811614 262.580611 
L 223.178087 262.661512 
L 223.099371 259.201783 
L 226.729749 259.120881 
" clip-path="url(#p59cfc1f632)" style="fill: #4d59c1"/>
    <path d="M 184.462445 256.270293 
L 184.626174 262.009541 
L 180.070096 262.138032 
L 179.903218 256.398784 
L 184.462445 256.270293 
" clip-path="url(#p59cfc1f632)" style="fill: #4d59c1"/>
    <path d="M 236.799091 257.602788 
L 236.865212 260.386752 
L 233.382819 260.467654 
L 233.316698 257.68369 
L 236.799091 257.602788 
" clip-path="url(#p59cfc1f632)" style="fill: #4d59c1"/>
    <path d="M 201.905894 252.853394 
L 202.343555 259.349309 
L 198.01103 259.639603 
L 197.573369 253.148446 
L 201.905894 252.853394 
" clip-path="url(#p59cfc1f632)" style="fill: #4d59c1"/>
    <path d="M 178.28167 253.771864 
L 178.253332 255.31851 
L 175.18656 255.261403 
L 175.214897 253.714757 
L 178.28167 253.771864 
" clip-path="url(#p59cfc1f632)" style="fill: #4d59c1"/>
    <path d="M 225.892212 249.921904 
L 225.970928 253.291214 
L 222.671156 253.367356 
L 222.59244 249.998046 
L 225.892212 249.921904 
" clip-path="url(#p59cfc1f632)" style="fill: #4d59c1"/>
    <path d="M 184.51912 246.557353 
L 184.689146 252.130039 
L 181.209902 252.234735 
L 181.043025 246.662049 
L 184.51912 246.557353 
" clip-path="url(#p59cfc1f632)" style="fill: #4d59c1"/>
    <path d="M 103.583403 270.175835 
L 103.470052 276.305314 
L 101.417141 276.267243 
L 101.527343 270.142523 
L 103.583403 270.175835 
" clip-path="url(#p59cfc1f632)" style="fill: #4d59c1"/>
    <path d="M 139.44638 269.814158 
L 139.364515 274.363678 
L 134.043318 274.263741 
L 134.128332 269.718979 
L 139.44638 269.814158 
" clip-path="url(#p59cfc1f632)" style="fill: #4d59c1"/>
    <path d="M 99.099744 266.735141 
L 98.910826 276.98108 
L 95.683472 276.923973 
L 95.869242 266.678034 
L 99.099744 266.735141 
" clip-path="url(#p59cfc1f632)" style="fill: #4d59c1"/>
    <path d="M 122.21074 265.174218 
L 122.094241 271.617785 
L 119.018022 271.560679 
L 119.13767 265.117111 
L 122.21074 265.174218 
" clip-path="url(#p59cfc1f632)" style="fill: #4d59c1"/>
    <path d="M 137.500522 258.140546 
L 137.421806 262.537781 
L 133.202632 262.461638 
L 133.284497 258.064403 
L 137.500522 258.140546 
" clip-path="url(#p59cfc1f632)" style="fill: #4d59c1"/>
    <path d="M 122.657847 250.145573 
L 122.516158 257.978742 
L 119.121927 257.916877 
L 119.263616 250.083707 
L 122.657847 250.145573 
" clip-path="url(#p59cfc1f632)" style="fill: #4d59c1"/>
    <path d="M 112.846693 257.388637 
L 108.762911 257.312495 
L 108.917194 248.903496 
L 113.000977 248.97488 
L 112.94745 251.844504 
L 115.485251 251.892093 
L 115.422279 255.447001 
L 112.881328 255.399412 
L 112.846693 257.388637 
" clip-path="url(#p59cfc1f632)" style="fill: #4d59c1"/>
    <path d="M 134.367628 240.570641 
L 134.436898 243.050034 
L 131.606273 243.130936 
L 131.537003 240.646783 
L 134.367628 240.570641 
" clip-path="url(#p59cfc1f632)" style="fill: #4d59c1"/>
    <path d="M 158.580647 238.529067 
L 158.744377 244.173138 
L 148.567981 244.46819 
L 148.404252 238.82412 
L 152.154279 238.714665 
L 152.116495 237.415482 
L 155.195863 237.325063 
L 155.233646 238.629005 
L 158.580647 238.529067 
" clip-path="url(#p59cfc1f632)" style="fill: #4d59c1"/>
    <path d="M 138.300276 237.534455 
L 138.426221 243.278462 
L 136.156054 243.326051 
L 136.02696 237.586803 
L 138.300276 237.534455 
" clip-path="url(#p59cfc1f632)" style="fill: #4d59c1"/>
    <path d="M 235.379055 248.046892 
L 235.429434 250.250269 
L 231.427516 250.345447 
L 231.373989 248.14207 
L 235.379055 248.046892 
" clip-path="url(#p59cfc1f632)" style="fill: #4d59c1"/>
    <path d="M 200.249711 243.459301 
L 200.416589 247.609072 
L 196.710643 247.756599 
L 196.546914 243.606827 
L 200.249711 243.459301 
" clip-path="url(#p59cfc1f632)" style="fill: #4d59c1"/>
    <path d="M 168.999488 242.469447 
L 169.056163 244.772761 
L 163.398062 244.90601 
L 163.341387 242.602696 
L 168.999488 242.469447 
" clip-path="url(#p59cfc1f632)" style="fill: #4d59c1"/>
    <path d="M 224.651649 240.213722 
L 224.711473 242.754982 
L 218.004876 242.907267 
L 217.9482 240.370767 
L 224.651649 240.213722 
" clip-path="url(#p59cfc1f632)" style="fill: #4d59c1"/>
    <path d="M 170.510833 237.129947 
L 170.517131 240.308901 
L 164.125397 240.318418 
L 164.1191 237.144224 
L 170.510833 237.129947 
" clip-path="url(#p59cfc1f632)" style="fill: #4d59c1"/>
    <path d="M 180.558135 236.430387 
L 180.56758 235.645166 
L 184.462445 235.697515 
L 184.421512 238.790808 
L 180.529797 238.743218 
L 180.536094 238.229256 
L 179.071978 238.21022 
L 179.094018 236.411351 
L 180.558135 236.430387 
" clip-path="url(#p59cfc1f632)" style="fill: #4d59c1"/>
    <path d="M 200.426035 234.155627 
L 200.567723 237.781918 
L 195.690484 237.972275 
L 195.548796 234.350742 
L 200.426035 234.155627 
" clip-path="url(#p59cfc1f632)" style="fill: #4d59c1"/>
    <path d="M 223.206424 231.576296 
L 223.269397 234.207975 
L 221.792686 234.241287 
L 221.811578 235.154998 
L 219.213952 235.216864 
L 219.128939 231.671475 
L 223.206424 231.576296 
" clip-path="url(#p59cfc1f632)" style="fill: #4d59c1"/>
    <path d="M 271.497072 475.399174 
L 270.180941 478.83035 
L 268.442894 478.159344 
L 269.759024 474.732927 
L 271.497072 475.399174 
" clip-path="url(#p59cfc1f632)" style="fill: #4d59c1"/>
    <path d="M 259.075698 476.29385 
L 258.442822 477.940434 
L 254.601485 476.465171 
L 255.234361 474.818587 
L 259.075698 476.29385 
" clip-path="url(#p59cfc1f632)" style="fill: #4d59c1"/>
    <path d="M 261.116015 471.606321 
L 259.83452 474.942319 
L 257.416366 474.014331 
L 258.694713 470.678333 
L 261.116015 471.606321 
" clip-path="url(#p59cfc1f632)" style="fill: #4d59c1"/>
    <path d="M 277.649509 472.191668 
L 276.430986 475.365862 
L 270.187239 472.96737 
L 271.405761 469.793176 
L 277.649509 472.191668 
" clip-path="url(#p59cfc1f632)" style="fill: #4d59c1"/>
    <path d="M 262.161363 467.918164 
L 261.229366 470.340451 
L 257.425812 468.879464 
L 258.357809 466.457178 
L 262.161363 467.918164 
" clip-path="url(#p59cfc1f632)" style="fill: #4d59c1"/>
    <path d="M 274.831478 466.704641 
L 273.644442 469.793176 
L 271.572639 468.993678 
L 272.756526 465.905144 
L 274.831478 466.704641 
" clip-path="url(#p59cfc1f632)" style="fill: #4d59c1"/>
    <path d="M 279.337178 463.401956 
L 278.458708 465.695752 
L 273.102877 463.639902 
L 273.981346 461.346106 
L 279.337178 463.401956 
" clip-path="url(#p59cfc1f632)" style="fill: #4d59c1"/>
    <path d="M 282.123722 455.654447 
L 281.415279 457.500905 
L 278.635032 456.434908 
L 279.343475 454.58845 
L 282.123722 455.654447 
" clip-path="url(#p59cfc1f632)" style="fill: #4d59c1"/>
    <path d="M 285.467575 446.988467 
L 284.444267 449.653458 
L 279.167152 447.626162 
L 280.190459 444.961171 
L 285.467575 446.988467 
" clip-path="url(#p59cfc1f632)" style="fill: #4d59c1"/>
    <path d="M 270.3919 442.933874 
L 269.447309 445.636936 
L 264.378003 443.861862 
L 265.325743 441.1588 
L 270.3919 442.933874 
" clip-path="url(#p59cfc1f632)" style="fill: #4d59c1"/>
    <path d="M 294.885148 415.317905 
L 294.120029 417.497487 
L 289.305763 415.808073 
L 290.070882 413.628491 
L 294.885148 415.317905 
" clip-path="url(#p59cfc1f632)" style="fill: #4d59c1"/>
    <path d="M 298.244744 393.431667 
L 297.967664 395.892025 
L 295.829739 395.64932 
L 296.109968 393.188962 
L 298.244744 393.431667 
" clip-path="url(#p59cfc1f632)" style="fill: #4d59c1"/>
    <path d="M 303.628913 389.629296 
L 303.370725 391.923092 
L 297.539449 391.261603 
L 297.800786 388.963048 
L 303.628913 389.629296 
" clip-path="url(#p59cfc1f632)" style="fill: #4d59c1"/>
    <path d="M 289.186115 383.09055 
L 289.227047 385.079776 
L 284.535578 385.174954 
L 284.497794 383.180969 
L 289.186115 383.09055 
" clip-path="url(#p59cfc1f632)" style="fill: #4d59c1"/>
    <path d="M 303.896548 378.241218 
L 303.962669 381.705707 
L 299.63959 381.786608 
L 299.57032 378.326879 
L 303.896548 378.241218 
" clip-path="url(#p59cfc1f632)" style="fill: #4d59c1"/>
    <path d="M 304.69945 374.105723 
L 304.72149 375.285934 
L 300.606222 375.366835 
L 300.584181 374.186625 
L 304.69945 374.105723 
" clip-path="url(#p59cfc1f632)" style="fill: #4d59c1"/>
    <path d="M 304.771869 367.700227 
L 304.806504 369.541926 
L 301.21076 369.61331 
L 301.176125 367.766852 
L 304.771869 367.700227 
" clip-path="url(#p59cfc1f632)" style="fill: #4d59c1"/>
    <path d="M 316.522582 358.220474 
L 316.547771 359.405443 
L 314.035159 359.457791 
L 314.013119 358.268063 
L 316.522582 358.220474 
" clip-path="url(#p59cfc1f632)" style="fill: #4d59c1"/>
    <path d="M 294.293204 350.763258 
L 294.334137 352.861938 
L 290.659677 352.933322 
L 290.618745 350.834642 
L 294.293204 350.763258 
" clip-path="url(#p59cfc1f632)" style="fill: #4d59c1"/>
    <path d="M 307.936249 350.27309 
L 307.974033 352.186173 
L 303.027524 352.281351 
L 302.992889 350.373027 
L 307.936249 350.27309 
" clip-path="url(#p59cfc1f632)" style="fill: #4d59c1"/>
    <path d="M 294.120029 346.494514 
L 294.167259 348.893005 
L 290.32907 348.969148 
L 290.281841 346.570656 
L 294.120029 346.494514 
" clip-path="url(#p59cfc1f632)" style="fill: #4d59c1"/>
    <path d="M 307.766223 340.136607 
L 307.804006 342.17818 
L 302.693768 342.278117 
L 302.652836 340.236544 
L 307.766223 340.136607 
" clip-path="url(#p59cfc1f632)" style="fill: #4d59c1"/>
    <path d="M 303.033821 330.67113 
L 312.662353 330.333247 
L 312.747366 332.717462 
L 303.118834 333.055345 
L 303.033821 330.67113 
" clip-path="url(#p59cfc1f632)" style="fill: #4d59c1"/>
    <path d="M 293.669774 326.773581 
L 293.745342 330.609264 
L 289.765464 330.685407 
L 289.689897 326.849723 
L 293.669774 326.773581 
" clip-path="url(#p59cfc1f632)" style="fill: #4d59c1"/>
    <path d="M 356.261531 326.29293 
L 360.487002 324.774837 
L 361.264716 326.935384 
L 357.042393 328.453477 
L 356.261531 326.29293 
" clip-path="url(#p59cfc1f632)" style="fill: #4d59c1"/>
    <path d="M 308.606909 321.752928 
L 308.65099 323.980099 
L 302.866943 324.089554 
L 302.822862 321.867142 
L 308.606909 321.752928 
" clip-path="url(#p59cfc1f632)" style="fill: #4d59c1"/>
    <path d="M 289.828437 320.967707 
L 289.77491 318.278922 
L 293.521788 318.207538 
L 293.575315 320.896324 
L 289.828437 320.967707 
" clip-path="url(#p59cfc1f632)" style="fill: #4d59c1"/>
    <path d="M 356.066316 313.505733 
L 362.404522 311.226214 
L 363.210574 313.462902 
L 356.872367 315.742422 
L 356.066316 313.505733 
" clip-path="url(#p59cfc1f632)" style="fill: #4d59c1"/>
    <path d="M 303.704481 312.049505 
L 309.072907 311.944809 
L 309.116988 314.290953 
L 303.75171 314.395649 
L 303.704481 312.049505 
" clip-path="url(#p59cfc1f632)" style="fill: #4d59c1"/>
    <path d="M 303.975263 307.338182 
L 304.047682 311.097723 
L 301.755474 311.145312 
L 301.683056 307.385771 
L 303.975263 307.338182 
" clip-path="url(#p59cfc1f632)" style="fill: #4d59c1"/>
    <path d="M 293.184884 306.595792 
L 293.238411 309.327408 
L 287.548824 309.436863 
L 287.495297 306.710006 
L 293.184884 306.595792 
" clip-path="url(#p59cfc1f632)" style="fill: #4d59c1"/>
    <path d="M 306.966469 303.236 
L 307.004252 305.187154 
L 302.057743 305.282332 
L 302.01996 303.331178 
L 306.966469 303.236 
" clip-path="url(#p59cfc1f632)" style="fill: #4d59c1"/>
    <path d="M 352.583923 299.538325 
L 359.40702 297.082726 
L 360.316976 299.609708 
L 353.493879 302.065307 
L 352.583923 299.538325 
" clip-path="url(#p59cfc1f632)" style="fill: #4d59c1"/>
    <path d="M 290.32907 287.255572 
L 290.366854 289.225761 
L 284.57651 289.339975 
L 284.538727 287.369786 
L 290.32907 287.255572 
" clip-path="url(#p59cfc1f632)" style="fill: #4d59c1"/>
    <path d="M 359.362939 285.428149 
L 359.447952 287.326955 
L 352.905084 287.622008 
L 352.820071 285.723202 
L 359.362939 285.428149 
" clip-path="url(#p59cfc1f632)" style="fill: #4d59c1"/>
    <path d="M 289.160926 284.704795 
L 289.182966 285.846934 
L 286.84038 285.894523 
L 286.81834 284.752384 
L 289.160926 284.704795 
" clip-path="url(#p59cfc1f632)" style="fill: #4d59c1"/>
    <path d="M 307.067225 283.619763 
L 307.086117 284.666723 
L 300.943126 284.785696 
L 300.921085 283.738735 
L 307.067225 283.619763 
" clip-path="url(#p59cfc1f632)" style="fill: #4d59c1"/>
    <path d="M 339.277783 281.616261 
L 339.432066 285.004606 
L 337.388601 285.095025 
L 337.234317 281.711439 
L 339.277783 281.616261 
" clip-path="url(#p59cfc1f632)" style="fill: #4d59c1"/>
    <path d="M 344.561196 281.782822 
L 344.671398 284.205109 
L 341.610923 284.338358 
L 341.503869 281.920831 
L 344.561196 281.782822 
" clip-path="url(#p59cfc1f632)" style="fill: #4d59c1"/>
    <path d="M 354.973739 277.866238 
L 358.497064 277.709193 
L 358.632455 280.707308 
L 358.679685 280.707308 
L 358.774144 282.767917 
L 352.404451 283.053452 
L 352.31314 280.992843 
L 355.105982 280.864352 
L 354.973739 277.866238 
" clip-path="url(#p59cfc1f632)" style="fill: #4d59c1"/>
    <path d="M 290.39834 297.929812 
L 290.281841 300.799436 
L 282.224478 300.699499 
L 282.1741 298.091615 
L 290.39834 297.929812 
" clip-path="url(#p59cfc1f632)" style="fill: #4d59c1"/>
    <path d="M 238.238018 285.480497 
L 238.300991 288.169283 
L 235.237367 288.240667 
L 235.174394 285.551881 
L 238.238018 285.480497 
" clip-path="url(#p59cfc1f632)" style="fill: #4d59c1"/>
    <path d="M 289.554506 276.100681 
L 289.604884 278.665735 
L 283.405217 278.789467 
L 283.354839 276.219654 
L 289.554506 276.100681 
" clip-path="url(#p59cfc1f632)" style="fill: #4d59c1"/>
    <path d="M 281.220063 276.433805 
L 281.245252 277.656845 
L 274.85037 277.780577 
L 274.825181 276.562296 
L 281.220063 276.433805 
" clip-path="url(#p59cfc1f632)" style="fill: #4d59c1"/>
    <path d="M 287.967592 265.117111 
L 288.002227 266.844596 
L 281.616791 266.968328 
L 281.582156 265.240843 
L 287.967592 265.117111 
" clip-path="url(#p59cfc1f632)" style="fill: #4d59c1"/>
    <path d="M 289.724532 254.804548 
L 289.77491 257.302977 
L 282.72826 257.440985 
L 282.681031 254.937797 
L 289.724532 254.804548 
" clip-path="url(#p59cfc1f632)" style="fill: #4d59c1"/>
    <path d="M 282.473221 231.657198 
L 282.511004 233.655941 
L 279.42534 233.717807 
L 279.387556 231.714305 
L 282.473221 231.657198 
" clip-path="url(#p59cfc1f632)" style="fill: #4d59c1"/>
    <path d="M 250.438987 230.415122 
L 250.505108 233.827262 
L 248.795398 233.860574 
L 248.729277 230.448434 
L 250.438987 230.415122 
" clip-path="url(#p59cfc1f632)" style="fill: #4d59c1"/>
    <path d="M 286.695543 230.81487 
L 286.733327 232.727953 
L 283.732675 232.78506 
L 283.694892 230.871977 
L 286.695543 230.81487 
" clip-path="url(#p59cfc1f632)" style="fill: #4d59c1"/>
    <path d="M 256.197844 229.972543 
L 256.248222 232.475731 
L 253.508908 232.528079 
L 253.45853 230.024891 
L 256.197844 229.972543 
" clip-path="url(#p59cfc1f632)" style="fill: #4d59c1"/>
    <path d="M 306.116337 274.159045 
L 306.157269 276.305314 
L 300.118183 276.424287 
L 300.077251 274.278018 
L 306.116337 274.159045 
" clip-path="url(#p59cfc1f632)" style="fill: #4d59c1"/>
    <path d="M 288.187997 269.747533 
L 288.254118 273.097807 
L 285.36367 273.154914 
L 285.297548 269.80464 
L 288.187997 269.747533 
" clip-path="url(#p59cfc1f632)" style="fill: #4d59c1"/>
    <path d="M 349.400651 266.525749 
L 354.088972 266.311598 
L 354.296782 270.94202 
L 349.608461 271.156171 
L 349.400651 266.525749 
" clip-path="url(#p59cfc1f632)" style="fill: #4d59c1"/>
    <path d="M 339.844537 262.994636 
L 339.983078 266.087929 
L 336.913156 266.225938 
L 336.774616 263.132645 
L 339.844537 262.994636 
" clip-path="url(#p59cfc1f632)" style="fill: #4d59c1"/>
    <path d="M 288.213186 260.453377 
L 288.254118 262.537781 
L 285.33848 262.594888 
L 285.297548 260.510484 
L 288.213186 260.453377 
" clip-path="url(#p59cfc1f632)" style="fill: #4d59c1"/>
    <path d="M 298.373838 257.840734 
L 298.458851 260.329645 
L 295.603037 260.429582 
L 295.518024 257.935912 
L 298.373838 257.840734 
" clip-path="url(#p59cfc1f632)" style="fill: #4d59c1"/>
    <path d="M 304.598694 252.867671 
L 304.639626 254.937797 
L 298.005448 255.066288 
L 297.967664 252.996161 
L 304.598694 252.867671 
" clip-path="url(#p59cfc1f632)" style="fill: #4d59c1"/>
    <path d="M 345.250747 245.024983 
L 351.034794 243.249909 
L 352.017169 246.452657 
L 346.229974 248.227731 
L 345.250747 245.024983 
" clip-path="url(#p59cfc1f632)" style="fill: #4d59c1"/>
    <path d="M 304.42237 237.986551 
L 304.4696 240.327936 
L 296.831006 240.475463 
L 296.783776 238.134078 
L 304.42237 237.986551 
" clip-path="url(#p59cfc1f632)" style="fill: #4d59c1"/>
    <path d="M 341.806138 231.833278 
L 347.212348 230.143864 
L 348.046737 232.813614 
L 342.643676 234.503027 
L 341.806138 231.833278 
" clip-path="url(#p59cfc1f632)" style="fill: #4d59c1"/>
    <path d="M 362.854778 277.219025 
L 362.996466 280.317077 
L 360.811312 280.417015 
L 360.672772 277.318963 
L 362.854778 277.219025 
" clip-path="url(#p59cfc1f632)" style="fill: #4d59c1"/>
    <path d="M 781.925783 189.364743 
L 780.625396 192.17726 
L 774.964146 189.5551 
L 776.267682 186.747341 
L 781.925783 189.364743 
" clip-path="url(#p59cfc1f632)" style="fill: #4d59c1"/>
    <path d="M 773.141085 185.057927 
L 771.884779 187.556356 
L 766.26761 184.724804 
L 767.523917 182.226374 
L 773.141085 185.057927 
" clip-path="url(#p59cfc1f632)" style="fill: #4d59c1"/>
    <path d="M 364.293705 185.019856 
L 360.291787 186.871073 
L 359.079562 184.248912 
L 363.078331 182.397695 
L 364.293705 185.019856 
" clip-path="url(#p59cfc1f632)" style="fill: #4d59c1"/>
    <path d="M 371.79061 184.591554 
L 369.413389 185.690863 
L 366.951154 180.375158 
L 369.328375 179.27109 
L 371.79061 184.591554 
" clip-path="url(#p59cfc1f632)" style="fill: #4d59c1"/>
    <path d="M 380.86813 181.812349 
L 378.871895 182.735578 
L 375.273002 174.959515 
L 377.269238 174.036286 
L 380.86813 181.812349 
" clip-path="url(#p59cfc1f632)" style="fill: #4d59c1"/>
    <path d="M 716.238915 176.825009 
L 716.179091 178.595324 
L 711.301852 178.424003 
L 711.364825 176.653688 
L 716.238915 176.825009 
" clip-path="url(#p59cfc1f632)" style="fill: #4d59c1"/>
    <path d="M 742.325374 167.188211 
L 742.104969 173.446181 
L 737.577229 173.284378 
L 737.797634 167.026408 
L 742.325374 167.188211 
" clip-path="url(#p59cfc1f632)" style="fill: #4d59c1"/>
    <path d="M 391.201957 171.756767 
L 387.993496 173.241548 
L 385.883909 168.68251 
L 389.092371 167.197729 
L 391.201957 171.756767 
" clip-path="url(#p59cfc1f632)" style="fill: #4d59c1"/>
    <path d="M 704.516539 167.611754 
L 704.355959 172.18031 
L 702.167656 172.104168 
L 702.328237 167.535612 
L 704.516539 167.611754 
" clip-path="url(#p59cfc1f632)" style="fill: #4d59c1"/>
    <path d="M 717.895099 164.727853 
L 717.781748 167.954396 
L 713.531087 167.80687 
L 713.644438 164.580327 
L 717.895099 164.727853 
" clip-path="url(#p59cfc1f632)" style="fill: #4d59c1"/>
    <path d="M 698.030347 162.453093 
L 697.935888 165.084772 
L 695.983733 165.018147 
L 696.078192 162.38171 
L 698.030347 162.453093 
" clip-path="url(#p59cfc1f632)" style="fill: #4d59c1"/>
    <path d="M 702.145616 160.268753 
L 701.991332 164.661229 
L 699.639301 164.580327 
L 699.793584 160.187851 
L 702.145616 160.268753 
" clip-path="url(#p59cfc1f632)" style="fill: #4d59c1"/>
    <path d="M 688.92134 160.639948 
L 688.814286 163.64758 
L 685.498771 163.533366 
L 685.605825 160.525734 
L 688.92134 160.639948 
" clip-path="url(#p59cfc1f632)" style="fill: #4d59c1"/>
    <path d="M 694.768359 160.145021 
L 694.636116 163.918838 
L 691.04667 163.790348 
L 691.178913 160.01653 
L 694.768359 160.145021 
" clip-path="url(#p59cfc1f632)" style="fill: #4d59c1"/>
    <path d="M 634.30508 156.309337 
L 638.190499 156.052356 
L 638.39516 159.217033 
L 634.51289 159.469255 
L 634.30508 156.309337 
" clip-path="url(#p59cfc1f632)" style="fill: #4d59c1"/>
    <path d="M 672.305982 158.83632 
L 670.064152 158.860114 
L 670.020071 154.934012 
L 672.261901 154.910217 
L 672.305982 158.83632 
" clip-path="url(#p59cfc1f632)" style="fill: #4d59c1"/>
    <path d="M 630.879363 142.665535 
L 630.976971 145.88256 
L 625.403883 146.053881 
L 625.306276 142.832097 
L 630.879363 142.665535 
" clip-path="url(#p59cfc1f632)" style="fill: #4d59c1"/>
    <path d="M 440.330142 139.324779 
L 443.226888 145.57799 
L 440.295507 146.93428 
L 437.398761 140.681069 
L 440.330142 139.324779 
" clip-path="url(#p59cfc1f632)" style="fill: #4d59c1"/>
    <path d="M 623.026662 135.232114 
L 631.55632 135.232114 
L 631.55632 139.120146 
L 623.026662 139.120146 
L 623.026662 135.232114 
" clip-path="url(#p59cfc1f632)" style="fill: #4d59c1"/>
    <path d="M 344.035373 226.765036 
L 345.090167 229.72032 
L 342.347704 230.700656 
L 341.289762 227.745372 
L 344.035373 226.765036 
" clip-path="url(#p59cfc1f632)" style="fill: #4d59c1"/>
    <path d="M 322.794668 225.423023 
L 320.15611 227.75489 
L 317.920577 225.223148 
L 320.559135 222.891281 
L 322.794668 225.423023 
" clip-path="url(#p59cfc1f632)" style="fill: #4d59c1"/>
    <path d="M 339.636727 223.338619 
L 342.804256 221.606375 
L 343.783483 223.395726 
L 340.615954 225.12797 
L 339.636727 223.338619 
" clip-path="url(#p59cfc1f632)" style="fill: #4d59c1"/>
    <path d="M 299.922968 212.750039 
L 299.992238 216.428678 
L 297.574084 216.476267 
L 297.501666 212.797628 
L 299.922968 212.750039 
" clip-path="url(#p59cfc1f632)" style="fill: #4d59c1"/>
    <path d="M 364.599122 147.096083 
L 361.680336 148.50948 
L 357.879931 140.657274 
L 360.798717 139.243877 
L 364.599122 147.096083 
" clip-path="url(#p59cfc1f632)" style="fill: #4d59c1"/>
    <path d="M 379.04507 132.852658 
L 380.395835 135.384399 
L 377.436116 136.964358 
L 376.085351 134.432617 
L 379.04507 132.852658 
" clip-path="url(#p59cfc1f632)" style="fill: #4d59c1"/>
    <path d="M 457.165905 130.782531 
L 458.935439 134.599179 
L 454.703671 136.559851 
L 452.937285 132.743203 
L 457.165905 130.782531 
" clip-path="url(#p59cfc1f632)" style="fill: #4d59c1"/>
    <path d="M 416.060447 129.383411 
L 417.889806 133.333308 
L 413.554132 135.341569 
L 411.724774 131.391672 
L 416.060447 129.383411 
" clip-path="url(#p59cfc1f632)" style="fill: #4d59c1"/>
    <path d="M 630.457446 122.311667 
L 630.753418 125.904646 
L 625.602247 126.328189 
L 625.306276 122.73521 
L 630.457446 122.311667 
" clip-path="url(#p59cfc1f632)" style="fill: #4d59c1"/>
    <path d="M 427.858391 121.245671 
L 430.049842 125.985547 
L 428.02212 126.927812 
L 425.82752 122.187935 
L 427.858391 121.245671 
" clip-path="url(#p59cfc1f632)" style="fill: #4d59c1"/>
    <path d="M 480.69567 121.036279 
L 476.753576 122.863701 
L 475.68304 120.550869 
L 479.625134 118.723447 
L 480.69567 121.036279 
" clip-path="url(#p59cfc1f632)" style="fill: #4d59c1"/>
    <path d="M 490.692593 111.675498 
L 492.04021 114.587952 
L 487.392821 116.738981 
L 486.042056 113.826526 
L 490.692593 111.675498 
" clip-path="url(#p59cfc1f632)" style="fill: #4d59c1"/>
    <path d="M 622.86923 112.84619 
L 629.286153 112.589209 
L 629.36172 114.459462 
L 622.941649 114.711684 
L 622.86923 112.84619 
" clip-path="url(#p59cfc1f632)" style="fill: #4d59c1"/>
    <path d="M 452.990812 109.319836 
L 454.879994 113.402983 
L 451.532993 114.954388 
L 449.643811 110.871242 
L 452.990812 109.319836 
" clip-path="url(#p59cfc1f632)" style="fill: #4d59c1"/>
    <path d="M 495.670588 109.34839 
L 498.309146 108.130108 
L 500.906772 113.740866 
L 498.268214 114.963906 
L 498.063552 114.516568 
L 496.249937 115.354137 
L 494.99678 112.646316 
L 496.807246 111.803988 
L 495.670588 109.34839 
" clip-path="url(#p59cfc1f632)" style="fill: #4d59c1"/>
    <path d="M 268.833325 228.944618 
L 268.915189 233.065836 
L 265.363527 233.13722 
L 265.281662 229.011243 
L 268.833325 228.944618 
" clip-path="url(#p59cfc1f632)" style="fill: #4d59c1"/>
    <path d="M 238.779583 219.883649 
L 238.722908 216.895052 
L 244.70217 216.776079 
L 244.733656 218.394109 
L 244.755697 218.38935 
L 244.802926 220.906815 
L 241.430736 220.973439 
L 241.408695 219.8313 
L 238.779583 219.883649 
" clip-path="url(#p59cfc1f632)" style="fill: #4d59c1"/>
    <path d="M 267.479411 215.391235 
L 267.564424 219.721845 
L 264.100923 219.793229 
L 264.01591 215.45786 
L 267.479411 215.391235 
" clip-path="url(#p59cfc1f632)" style="fill: #4d59c1"/>
    <path d="M 254.89116 213.497188 
L 255.023402 220.188219 
L 251.899954 220.250085 
L 251.77086 213.559054 
L 254.89116 213.497188 
" clip-path="url(#p59cfc1f632)" style="fill: #4d59c1"/>
    <path d="M 282.857354 214.482283 
L 282.932922 218.413145 
L 280.391972 218.465493 
L 280.316404 214.529872 
L 282.857354 214.482283 
" clip-path="url(#p59cfc1f632)" style="fill: #4d59c1"/>
    <path d="M 272.595946 216.176456 
L 269.437863 216.238322 
L 269.343404 211.369954 
L 272.501487 211.308088 
L 272.595946 216.176456 
" clip-path="url(#p59cfc1f632)" style="fill: #4d59c1"/>
    <path d="M 459.253451 106.178954 
L 460.875 109.686272 
L 458.954331 110.576189 
L 457.329634 107.068871 
L 459.253451 106.178954 
" clip-path="url(#p59cfc1f632)" style="fill: #4d59c1"/>
    <path d="M 464.262933 102.866751 
L 466.366223 107.406753 
L 463.48522 108.739249 
L 461.38193 104.199246 
L 464.262933 102.866751 
" clip-path="url(#p59cfc1f632)" style="fill: #4d59c1"/>
    <path d="M 601.574998 100.101823 
L 601.647416 103.199875 
L 598.017038 103.280776 
L 597.944619 100.187483 
L 601.574998 100.101823 
" clip-path="url(#p59cfc1f632)" style="fill: #4d59c1"/>
    <path d="M 527.399404 97.774715 
L 529.200425 101.667505 
L 526.269044 103.023795 
L 524.468023 99.131005 
L 527.399404 97.774715 
" clip-path="url(#p59cfc1f632)" style="fill: #4d59c1"/>
    <path d="M 520.900617 96.275657 
L 522.103397 98.878782 
L 519.763959 99.963814 
L 518.558031 97.360689 
L 520.900617 96.275657 
" clip-path="url(#p59cfc1f632)" style="fill: #4d59c1"/>
    <path d="M 534.134339 93.786746 
L 536.883099 99.725869 
L 534.820742 100.677651 
L 532.068833 94.743287 
L 534.134339 93.786746 
" clip-path="url(#p59cfc1f632)" style="fill: #4d59c1"/>
    <path d="M 482.691906 93.567836 
L 484.524413 97.527251 
L 481.627667 98.869264 
L 479.79516 94.909849 
L 482.691906 93.567836 
" clip-path="url(#p59cfc1f632)" style="fill: #4d59c1"/>
    <path d="M 598.013889 94.272155 
L 598.788454 91.531021 
L 605.967346 93.558318 
L 605.192782 96.299452 
L 601.974875 95.390499 
L 601.143634 98.336266 
L 597.689579 97.360689 
L 598.52082 94.414922 
L 598.013889 94.272155 
" clip-path="url(#p59cfc1f632)" style="fill: #4d59c1"/>
    <path d="M 488.62079 91.607164 
L 490.267527 95.162072 
L 487.688793 96.356559 
L 486.042056 92.801651 
L 488.62079 91.607164 
" clip-path="url(#p59cfc1f632)" style="fill: #4d59c1"/>
    <path d="M 529.140601 91.335906 
L 530.718068 94.743287 
L 527.736309 96.123372 
L 526.158841 92.715991 
L 529.140601 91.335906 
" clip-path="url(#p59cfc1f632)" style="fill: #4d59c1"/>
    <path d="M 541.014111 89.208672 
L 543.303171 94.148423 
L 541.199881 95.124 
L 538.910822 90.17949 
L 541.014111 89.208672 
" clip-path="url(#p59cfc1f632)" style="fill: #4d59c1"/>
    <path d="M 492.603816 88.280684 
L 494.656727 92.715991 
L 492.742356 93.601148 
L 490.689444 89.165842 
L 492.603816 88.280684 
" clip-path="url(#p59cfc1f632)" style="fill: #4d59c1"/>
    <path d="M 534.31696 88.090328 
L 535.617347 90.898086 
L 533.835219 91.726137 
L 532.534832 88.91362 
L 534.31696 88.090328 
" clip-path="url(#p59cfc1f632)" style="fill: #4d59c1"/>
   </g>
   <g id="LineCollection_1">
    <path d="M 228.08996 552.0367 
L 222.806547 554.154416 
L 204.522412 554.435192 
L 193.924099 553.140768 
L 182.897572 549.300326 
L 174.826559 544.895243 
" clip-path="url(#p59cfc1f632)" style="fill: none; stroke: #4d59c1; stroke-width: 0.2"/>
    <path d="M 250.473622 510.472359 
L 246.068678 508.725838 
L 237.202116 503.743257 
L 224.113232 497.913589 
L 217.693161 492.08868 
L 216.090504 488.286309 
L 215.920478 476.546072 
L 213.892756 469.364874 
L 207.825045 448.058174 
" clip-path="url(#p59cfc1f632)" style="fill: none; stroke: #4d59c1; stroke-width: 0.2"/>
    <path d="M 196.013553 419.863122 
L 195.40081 416.831239 
L 196.326509 410.244904 
" clip-path="url(#p59cfc1f632)" style="fill: none; stroke: #4d59c1; stroke-width: 0.2"/>
    <path d="M 216.090504 488.286309 
L 210.936185 483.722512 
L 203.505402 472.577139 
L 200.449947 468.464704 
" clip-path="url(#p59cfc1f632)" style="fill: none; stroke: #4d59c1; stroke-width: 0.2"/>
    <path d="M 137.694709 406.573676 
L 130.538885 401.126828 
" clip-path="url(#p59cfc1f632)" style="fill: none; stroke: #4d59c1; stroke-width: 0.2"/>
    <path d="M 128.132491 404.116624 
L 130.538885 401.126828 
L 131.38272 391.751771 
L 125.781295 379.835454 
" clip-path="url(#p59cfc1f632)" style="fill: none; stroke: #4d59c1; stroke-width: 0.2"/>
    <path d="M 190.828989 229.525205 
L 194.446773 274.868123 
L 197.674126 315.323637 
L 198.483326 356.35498 
L 199.232701 388.196863 
L 198.568339 393.85521 
L 196.288726 402.635403 
L 195.781795 407.703645 
L 196.326509 410.244904 
L 198.231435 412.348344 
L 200.825912 413.999686 
L 238.093181 416.402937 
L 260.533517 419.515266 
L 281.66717 425.283068 
" clip-path="url(#p59cfc1f632)" style="fill: none; stroke: #4d59c1; stroke-width: 0.2"/>
    <path d="M 106.807607 383.390362 
L 106.722594 378.493441 
L 106.13065 348.345731 
L 105.371829 310.845501 
L 106.722594 270.223424 
L 106.974485 259.330274 
" clip-path="url(#p59cfc1f632)" style="fill: none; stroke: #4d59c1; stroke-width: 0.2"/>
    <path d="M 125.781295 379.835454 
L 123.108102 382.543275 
L 119.474575 383.30946 
L 106.807607 383.390362 
L 92.112918 383.980467 
L 87.934677 382.957301 
L 84.978106 380.330381 
L 83.205424 377.298954 
L 82.783506 372.906478 
L 84.934025 310.788394 
L 85.655063 271.227555 
L 87.134923 265.502583 
L 89.877386 258.730651 
L 98.998987 248.256284 
L 113.133219 235.507158 
" clip-path="url(#p59cfc1f632)" style="fill: none; stroke: #4d59c1; stroke-width: 0.2"/>
    <path d="M 125.781295 379.835454 
L 127.412289 325.707584 
L 127.881436 235.507158 
" clip-path="url(#p59cfc1f632)" style="fill: none; stroke: #4d59c1; stroke-width: 0.2"/>
    <path d="M 172.428353 289.397082 
L 172.258327 309.917513 
L 175.044871 314.309989 
L 181.124889 316.165965 
L 197.674126 315.323637 
" clip-path="url(#p59cfc1f632)" style="fill: none; stroke: #4d59c1; stroke-width: 0.2"/>
    <path d="M 228.08996 552.0367 
L 233.811034 553.464374 
L 238.212829 558.16142 
L 243.807957 561.997104 
L 248.307359 564.733479 
L 256.027818 568.454948 
L 264.828258 572.195453 
L 275.237653 575.598076 
L 286.157126 577.81097 
L 293.67922 578.639021 
L 297.121359 578.564817 
" clip-path="url(#p59cfc1f632)" style="fill: none; stroke: #4d59c1; stroke-width: 0.2"/>
    <path d="M 291.494066 224.566418 
L 295.266133 290.144232 
L 296.786925 316.156447 
L 297.312747 340.56015 
L 296.368156 362.617709 
L 294.967013 375.43346 
L 292.303266 386.81202 
L 288.206889 403.430142 
L 281.66717 425.283068 
L 265.300554 472.010829 
L 250.473622 510.472359 
L 235.048448 544.836466 
L 232.265053 548.748292 
L 228.08996 552.0367 
" clip-path="url(#p59cfc1f632)" style="fill: none; stroke: #4d59c1; stroke-width: 0.2"/>
    <path d="M 317.835564 209.63771 
L 318.830533 211.522239 
L 319.759381 213.716098 
L 321.447051 214.729746 
L 328.326823 214.572702 
L 349.101531 211.279535 
L 351.973088 211.9553 
L 385.754815 228.506798 
L 394.33536 234.629213 
" clip-path="url(#p59cfc1f632)" style="fill: none; stroke: #4d59c1; stroke-width: 0.2"/>
    <path d="M 226.499899 228.421137 
L 231.037085 303.49774 
L 235.089381 344.372039 
L 235.596311 362.108505 
L 235.936364 368.866161 
L 237.33121 373.753564 
L 239.686391 376.123502 
L 245.272073 378.14604 
L 294.967013 375.43346 
" clip-path="url(#p59cfc1f632)" style="fill: none; stroke: #4d59c1; stroke-width: 0.2"/>
    <path d="M 352.854706 339.065851 
L 343.575672 263.965454 
L 340.027158 247.413957 
L 336.988724 235.67372 
L 333.723587 228.397343 
L 321.447051 214.729746 
L 313.566012 215.867126 
" clip-path="url(#p59cfc1f632)" style="fill: none; stroke: #4d59c1; stroke-width: 0.2"/>
    <path d="M 317.835564 209.63771 
L 313.566012 215.867126 
L 309.457041 219.626667 
L 304.394032 222.658094 
L 298.13769 224.104804 
L 291.494066 224.566418 
" clip-path="url(#p59cfc1f632)" style="fill: none; stroke: #4d59c1; stroke-width: 0.2"/>
    <path d="M 799.236057 191.036381 
L 793.777253 190.354597 
L 785.068123 185.65755 
L 768.915614 169.876997 
L 761.113292 160.249717 
L 752.737917 151.859754 
" clip-path="url(#p59cfc1f632)" style="fill: none; stroke: #4d59c1; stroke-width: 0.2"/>
    <path d="M 752.737917 151.859754 
L 696.648095 136.926287 
L 685.791594 133.438004 
L 614.985043 94.881296 
L 597.43454 81.47544 
L 581.590598 72.94271 
L 573.763086 71.971891 
L 567.821608 71.23426 
L 553.312688 72.94271 
L 459.706855 119.008982 
L 371.693002 162.167559 
L 352.344627 172.423015 
L 331.393595 191.929797 
L 317.835564 209.63771 
" clip-path="url(#p59cfc1f632)" style="fill: none; stroke: #4d59c1; stroke-width: 0.2"/>
    <path d="M 127.412289 325.707584 
L 132.818499 323.680287 
L 144.641631 317.769718 
L 155.450902 307.295352 
L 167.359048 295.812096 
L 172.428353 289.397082 
L 175.803692 284.918946 
L 182.982585 279.598482 
L 186.78299 275.543888 
L 194.446773 274.868123 
" clip-path="url(#p59cfc1f632)" style="fill: none; stroke: #4d59c1; stroke-width: 0.2"/>
    <path d="M 71.672555 311.084148 
L 80.897473 310.360092 
L 84.934025 310.788394 
" clip-path="url(#p59cfc1f632)" style="fill: none; stroke: #4d59c1; stroke-width: 0.2"/>
    <path d="M 291.494066 224.566418 
L 226.499899 228.421137 
L 221.657295 227.835791 
L 190.828989 229.525205 
L 171.556181 230.581684 
L 127.881436 235.507158 
L 113.133219 235.507158 
" clip-path="url(#p59cfc1f632)" style="fill: none; stroke: #4d59c1; stroke-width: 0.2"/>
    <path d="M 113.133219 235.507158 
L 113.568785 231.139102 
" clip-path="url(#p59cfc1f632)" style="fill: none; stroke: #4d59c1; stroke-width: 0.2"/>
    <path d="M 221.519174 224.651499 
L 221.657295 227.835791 
" clip-path="url(#p59cfc1f632)" style="fill: none; stroke: #4d59c1; stroke-width: 0.2"/>
    <path d="M 105.59448 235.543178 
L 106.552568 235.554747 
L 113.133219 235.507158 
" clip-path="url(#p59cfc1f632)" style="fill: none; stroke: #4d59c1; stroke-width: 0.2"/>
    <path d="M 171.556181 230.581684 
L 168.472543 227.99637 
" clip-path="url(#p59cfc1f632)" style="fill: none; stroke: #4d59c1; stroke-width: 0.2"/>
    <path d="M 352.344627 172.423015 
L 346.65504 159.726237 
L 339.728038 139.286708 
L 338.884676 136.056898 
" clip-path="url(#p59cfc1f632)" style="fill: none; stroke: #4d59c1; stroke-width: 0.2"/>
    <path d="M 752.645 149.553356 
L 752.737917 151.859754 
" clip-path="url(#p59cfc1f632)" style="fill: none; stroke: #4d59c1; stroke-width: 0.2"/>
    <path d="M 573.763086 71.971891 
L 575.058754 68.446566 
" clip-path="url(#p59cfc1f632)" style="fill: none; stroke: #4d59c1; stroke-width: 0.2"/>
   </g>
  </g>
 </g>
 <defs>
  <clipPath id="p59cfc1f632">
   <rect x="7.2" y="7.2" width="837" height="603.640915"/>
  </clipPath>
 </defs>
</svg>
