<?xml version="1.0" encoding="utf-8" standalone="no"?>
<!DOCTYPE svg PUBLIC "-//W3C//DTD SVG 1.1//EN"
  "http://www.w3.org/Graphics/SVG/1.1/DTD/svg11.dtd">
<svg xmlns:xlink="http://www.w3.org/1999/xlink" width="851.4pt" height="633.832482pt" viewBox="0 0 851.4 633.832482" xmlns="http://www.w3.org/2000/svg" version="1.1">
 <metadata>
  <rdf:RDF xmlns:dc="http://purl.org/dc/elements/1.1/" xmlns:cc="http://creativecommons.org/ns#" xmlns:rdf="http://www.w3.org/1999/02/22-rdf-syntax-ns#">
   <cc:Work>
    <dc:type rdf:resource="http://purl.org/dc/dcmitype/StillImage"/>
    <dc:date>2025-03-16T14:37:55.114393</dc:date>
    <dc:format>image/svg+xml</dc:format>
    <dc:creator>
     <cc:Agent>
      <dc:title>Matplotlib v3.10.1, https://matplotlib.org/</dc:title>
     </cc:Agent>
    </dc:creator>
   </cc:Work>
  </rdf:RDF>
 </metadata>
 <defs>
  <style type="text/css">*{stroke-linejoin: round; stroke-linecap: butt}</style>
 </defs>
 <g id="figure_1">
  <g id="patch_1">
   <path d="M 0 633.832482 
L 851.4 633.832482 
L 851.4 -0 
L 0 -0 
z
" style="fill: #ffffff"/>
  </g>
  <g id="axes_1">
   <g id="PatchCollection_1">
    <path d="M 45.245455 193.840003 
L 78.916768 556.740855 
L 749.989542 596.770173 
L 759.842946 598.47646 
L 772.110042 506.127081 
L 790.835723 432.510363 
L 806.154545 397.499538 
L 805.047016 356.950121 
L 796.325218 353.720037 
L 790.835723 339.513142 
L 792.7739 253.623931 
L 770.171865 242.64712 
L 767.589635 169.66912 
L 774.162584 130.296768 
L 460.039443 62.73874 
L 425.320791 59.891886 
L 416.92403 72.812222 
L 352.350227 64.417654 
L 296.811219 66.352054 
L 266.456475 59.891886 
L 267.106547 74.746623 
L 218.026123 61.18757 
L 168.295627 35.356022 
L 129.363547 41.086227 
L 109.530337 61.506928 
L 77.243435 78.943907 
L 52.378187 102.512571 
L 52.059171 121.883951 
L 61.744037 174.842729 
L 50.765046 181.941614 
L 45.245455 193.840003 
" clip-path="url(#p34c4e15cd8)" style="fill: #fbd6c9"/>
   </g>
   <g id="PatchCollection_2">
    <path d="M 574.464126 519.029168 
L 588.59115 518.919673 
L 588.645323 526.757645 
L 574.518298 526.858015 
L 574.464126 519.029168 
" clip-path="url(#p34c4e15cd8)" style="fill: #e6482f"/>
    <path d="M 607.039948 516.611167 
L 617.531385 516.73891 
L 617.42304 525.379841 
L 606.931603 525.242973 
L 607.039948 516.611167 
" clip-path="url(#p34c4e15cd8)" style="fill: #e6482f"/>
    <path d="M 635.540783 516.209687 
L 646.923059 516.164065 
L 646.959174 524.239275 
L 635.576898 524.284898 
L 635.540783 516.209687 
" clip-path="url(#p34c4e15cd8)" style="fill: #e6482f"/>
    <path d="M 538.860654 497.705138 
L 553.27058 497.28541 
L 553.577558 507.860741 
L 550.291084 507.961111 
L 550.573985 517.642239 
L 553.679884 517.550994 
L 553.950748 526.839766 
L 539.727416 527.25037 
L 538.860654 497.705138 
" clip-path="url(#p34c4e15cd8)" style="fill: #e6482f"/>
    <path d="M 539.342189 474.683946 
L 552.09082 474.12735 
L 552.82516 490.916487 
L 540.076529 491.473084 
L 539.342189 474.683946 
" clip-path="url(#p34c4e15cd8)" style="fill: #e6482f"/>
    <path d="M 633.434069 471.435613 
L 647.555074 471.335243 
L 647.615265 479.164091 
L 633.488241 479.273585 
L 633.434069 471.435613 
" clip-path="url(#p34c4e15cd8)" style="fill: #e6482f"/>
    <path d="M 600.858246 471.316994 
L 614.98527 471.216625 
L 615.039443 479.045472 
L 600.918438 479.145842 
L 600.858246 471.316994 
" clip-path="url(#p34c4e15cd8)" style="fill: #e6482f"/>
    <path d="M 664.733824 470.203802 
L 676.916652 470.304171 
L 676.85646 477.977902 
L 664.667613 477.877532 
L 664.733824 470.203802 
" clip-path="url(#p34c4e15cd8)" style="fill: #e6482f"/>
    <path d="M 582.553909 452.848943 
L 593.689398 452.13723 
L 594.116761 458.76164 
L 582.975251 459.473353 
L 582.553909 452.848943 
" clip-path="url(#p34c4e15cd8)" style="fill: #e6482f"/>
    <path d="M 632.182078 450.978414 
L 646.303083 450.86892 
L 646.363275 458.706892 
L 632.236251 458.807262 
L 632.182078 450.978414 
" clip-path="url(#p34c4e15cd8)" style="fill: #e6482f"/>
    <path d="M 690.357489 516.15494 
L 699.133459 515.716963 
L 699.500629 523.089584 
L 690.730678 523.527561 
L 690.357489 516.15494 
" clip-path="url(#p34c4e15cd8)" style="fill: #e6482f"/>
    <path d="M 665.137109 515.461476 
L 678.054278 515.315483 
L 678.150584 523.46369 
L 665.227397 523.609682 
L 665.137109 515.461476 
" clip-path="url(#p34c4e15cd8)" style="fill: #e6482f"/>
    <path d="M 748.147672 492.23042 
L 757.826519 491.874563 
L 758.037191 497.613893 
L 748.358343 497.960625 
L 748.147672 492.23042 
" clip-path="url(#p34c4e15cd8)" style="fill: #e6482f"/>
    <path d="M 728.260289 460.367557 
L 729.87343 492.011431 
L 718.924535 492.577152 
L 717.311394 460.924153 
L 728.260289 460.367557 
" clip-path="url(#p34c4e15cd8)" style="fill: #e6482f"/>
    <path d="M 692.680894 469.638081 
L 699.295977 469.15448 
L 699.621013 478.032649 
L 693.487465 478.196891 
L 692.680894 469.638081 
" clip-path="url(#p34c4e15cd8)" style="fill: #e6482f"/>
    <path d="M 749.243163 468.351522 
L 756.357839 468.451892 
L 756.291628 472.968534 
L 749.182972 472.868165 
L 749.243163 468.351522 
" clip-path="url(#p34c4e15cd8)" style="fill: #e6482f"/>
    <path d="M 748.924147 463.022796 
L 756.032803 463.123165 
L 755.966592 467.639808 
L 748.857936 467.539438 
L 748.924147 463.022796 
" clip-path="url(#p34c4e15cd8)" style="fill: #e6482f"/>
    <path d="M 748.599111 457.694069 
L 755.707767 457.794439 
L 755.647575 462.311082 
L 748.538919 462.210712 
L 748.599111 457.694069 
" clip-path="url(#p34c4e15cd8)" style="fill: #e6482f"/>
    <path d="M 690.158856 450.905418 
L 696.286385 450.686429 
L 696.551229 457.958681 
L 690.4237 458.186794 
L 690.158856 450.905418 
" clip-path="url(#p34c4e15cd8)" style="fill: #e6482f"/>
    <path d="M 749.730717 449.947342 
L 756.839373 450.047712 
L 756.779181 454.564355 
L 749.664506 454.463985 
L 749.730717 449.947342 
" clip-path="url(#p34c4e15cd8)" style="fill: #e6482f"/>
    <path d="M 663.180875 450.978414 
L 677.30188 450.86892 
L 677.362071 458.706892 
L 663.235047 458.807262 
L 663.180875 450.978414 
" clip-path="url(#p34c4e15cd8)" style="fill: #e6482f"/>
    <path d="M 603.121459 450.330573 
L 617.242464 450.221078 
L 617.302656 458.059051 
L 603.175632 458.15942 
L 603.121459 450.330573 
" clip-path="url(#p34c4e15cd8)" style="fill: #e6482f"/>
    <path d="M 537.500318 435.056108 
L 551.904225 434.636379 
L 552.217223 445.220835 
L 548.930748 445.312081 
L 549.21365 454.993208 
L 552.319549 454.901963 
L 552.590412 464.190736 
L 538.361062 464.601339 
L 537.500318 435.056108 
" clip-path="url(#p34c4e15cd8)" style="fill: #e6482f"/>
    <path d="M 561.45065 440.585574 
L 574.686835 440.996177 
L 574.530337 445.923424 
L 561.300171 445.51282 
L 561.45065 440.585574 
" clip-path="url(#p34c4e15cd8)" style="fill: #e6482f"/>
    <path d="M 604.523929 405.957978 
L 609.212873 405.866733 
L 609.38141 414.589784 
L 606.275512 414.644532 
L 606.474145 425.17424 
L 595.019638 425.384105 
L 594.827024 415.337996 
L 590.739998 415.16463 
L 590.661749 412.892622 
L 588.573092 412.965618 
L 588.410574 408.284733 
L 590.50525 408.211737 
L 590.427001 405.930604 
L 595.96465 406.113095 
L 595.898439 402.727894 
L 604.457718 402.563652 
L 604.523929 405.957978 
" clip-path="url(#p34c4e15cd8)" style="fill: #e6482f"/>
    <path d="M 537.259551 399.543433 
L 577.443622 398.795221 
L 577.67837 411.651685 
L 548.03389 412.199157 
L 548.334849 428.623313 
L 537.801278 428.814928 
L 537.259551 399.543433 
" clip-path="url(#p34c4e15cd8)" style="fill: #e6482f"/>
    <path d="M 552.066743 365.034456 
L 598.721436 364.039882 
L 599.028414 378.420143 
L 552.373721 379.405592 
L 552.066743 365.034456 
" clip-path="url(#p34c4e15cd8)" style="fill: #e6482f"/>
    <path d="M 611.626566 338.3817 
L 619.92702 338.226583 
L 620.119634 348.418685 
L 630.942127 348.20882 
L 630.749513 337.989346 
L 639.952845 337.81598 
L 640.470494 365.34469 
L 631.682486 365.508931 
L 631.447738 352.98095 
L 620.96232 353.172565 
L 621.18503 365.098328 
L 612.132177 365.271694 
L 611.626566 338.3817 
" clip-path="url(#p34c4e15cd8)" style="fill: #e6482f"/>
    <path d="M 552.572354 335.689964 
L 562.907293 336.009322 
L 563.232329 354.741985 
L 553.866479 355.061343 
L 552.572354 335.689964 
" clip-path="url(#p34c4e15cd8)" style="fill: #e6482f"/>
    <path d="M 588.476785 335.324983 
L 598.805705 335.324983 
L 598.805705 353.400679 
L 588.476785 353.400679 
L 588.476785 335.324983 
" clip-path="url(#p34c4e15cd8)" style="fill: #e6482f"/>
    <path d="M 749.893235 436.306168 
L 757.001891 436.406538 
L 756.93568 440.923181 
L 749.827024 440.822811 
L 749.893235 436.306168 
" clip-path="url(#p34c4e15cd8)" style="fill: #e6482f"/>
    <path d="M 663.776774 396.587084 
L 695.907176 395.939243 
L 696.226193 407.399654 
L 664.426846 408.375979 
L 663.776774 396.587084 
" clip-path="url(#p34c4e15cd8)" style="fill: #e6482f"/>
    <path d="M 651.521716 362.771572 
L 698.176409 361.786123 
L 698.477368 376.157259 
L 651.822675 377.142709 
L 651.521716 362.771572 
" clip-path="url(#p34c4e15cd8)" style="fill: #e6482f"/>
    <path d="M 694.932069 332.523751 
L 692.476242 351.566648 
L 683.874828 351.566648 
L 684.488785 344.194027 
L 683.874828 333.135095 
L 694.932069 332.523751 
" clip-path="url(#p34c4e15cd8)" style="fill: #e6482f"/>
    <path d="M 742.874867 311.829315 
L 752.559734 311.92056 
L 752.493523 319.51217 
L 742.802637 319.420925 
L 742.874867 311.829315 
" clip-path="url(#p34c4e15cd8)" style="fill: #e6482f"/>
    <path d="M 687.763221 306.500589 
L 698.417176 306.500589 
L 698.417176 324.266051 
L 687.763221 324.266051 
L 687.763221 306.500589 
" clip-path="url(#p34c4e15cd8)" style="fill: #e6482f"/>
    <path d="M 693.74027 273.004435 
L 694.281997 290.468788 
L 683.953078 290.797271 
L 683.405332 273.323794 
L 693.74027 273.004435 
" clip-path="url(#p34c4e15cd8)" style="fill: #e6482f"/>
    <path d="M 712.736814 269.40937 
L 724.829354 268.761528 
L 725.316908 277.822187 
L 713.224368 278.460905 
L 712.736814 269.40937 
" clip-path="url(#p34c4e15cd8)" style="fill: #e6482f"/>
    <path d="M 747.684195 254.481637 
L 754.305297 254.645878 
L 754.94935 267.07349 
L 748.653283 267.07349 
L 747.684195 254.481637 
" clip-path="url(#p34c4e15cd8)" style="fill: #e6482f"/>
    <path d="M 734.604509 253.998037 
L 740.41904 253.514436 
L 741.225611 267.07349 
L 735.736115 267.237731 
L 734.604509 253.998037 
" clip-path="url(#p34c4e15cd8)" style="fill: #e6482f"/>
    <path d="M 657.480708 334.996499 
L 668.3032 334.996499 
L 668.3032 352.424354 
L 657.805743 352.588595 
L 657.480708 334.996499 
" clip-path="url(#p34c4e15cd8)" style="fill: #e6482f"/>
    <path d="M 505.77922 331.647796 
L 513.176797 331.383185 
L 513.279123 334.120544 
L 539.962165 333.14422 
L 540.73262 354.231011 
L 506.645983 355.471947 
L 505.77922 331.647796 
" clip-path="url(#p34c4e15cd8)" style="fill: #e6482f"/>
    <path d="M 501.770444 301.281357 
L 522.205573 299.629817 
L 523.138546 311.163224 
L 502.703417 312.814764 
L 501.770444 301.281357 
" clip-path="url(#p34c4e15cd8)" style="fill: #e6482f"/>
    <path d="M 590.956689 302.586165 
L 589.662565 281.919102 
L 599.293259 281.316883 
L 600.581364 301.983946 
L 590.956689 302.586165 
" clip-path="url(#p34c4e15cd8)" style="fill: #e6482f"/>
    <path d="M 556.725591 298.717364 
L 555.756503 282.895427 
L 565.712233 282.284083 
L 566.681321 298.10602 
L 556.725591 298.717364 
" clip-path="url(#p34c4e15cd8)" style="fill: #e6482f"/>
    <path d="M 651.702291 292.357565 
L 650.654953 274.874964 
L 661.044064 274.254496 
L 662.091402 291.727973 
L 651.702291 292.357565 
" clip-path="url(#p34c4e15cd8)" style="fill: #e6482f"/>
    <path d="M 551.555112 254.518135 
L 584.395779 253.523561 
L 584.768968 265.80518 
L 551.928302 266.808878 
L 551.555112 254.518135 
" clip-path="url(#p34c4e15cd8)" style="fill: #e6482f"/>
    <path d="M 636.07649 252.802723 
L 654.314617 252.510738 
L 654.507231 264.783232 
L 636.269104 265.075217 
L 636.07649 252.802723 
" clip-path="url(#p34c4e15cd8)" style="fill: #e6482f"/>
    <path d="M 595.531269 252.300874 
L 624.266852 251.078187 
L 624.820617 264.15364 
L 596.091053 265.376327 
L 595.531269 252.300874 
" clip-path="url(#p34c4e15cd8)" style="fill: #e6482f"/>
    <path d="M 549.340053 215.948742 
L 626.505988 214.452319 
L 626.782871 228.823455 
L 549.616935 230.319878 
L 549.340053 215.948742 
" clip-path="url(#p34c4e15cd8)" style="fill: #e6482f"/>
    <path d="M 641.656274 214.23333 
L 677.506532 213.275254 
L 677.831568 225.5295 
L 641.981309 226.4967 
L 641.656274 214.23333 
" clip-path="url(#p34c4e15cd8)" style="fill: #e6482f"/>
    <path d="M 710.311083 255.366716 
L 717.732737 255.366716 
L 718.057773 260.695442 
L 710.467582 261.179043 
L 710.311083 255.366716 
" clip-path="url(#p34c4e15cd8)" style="fill: #e6482f"/>
    <path d="M 665.27555 251.653032 
L 694.011134 250.430345 
L 694.564898 263.514923 
L 665.835335 264.728485 
L 665.27555 251.653032 
" clip-path="url(#p34c4e15cd8)" style="fill: #e6482f"/>
    <path d="M 710.545831 213.038016 
L 718.906477 212.590914 
L 719.598684 225.702866 
L 711.232018 226.140843 
L 710.545831 213.038016 
" clip-path="url(#p34c4e15cd8)" style="fill: #e6482f"/>
    <path d="M 752.842635 211.742333 
L 761.209301 211.304356 
L 761.895488 224.407182 
L 753.534841 224.854284 
L 752.842635 211.742333 
" clip-path="url(#p34c4e15cd8)" style="fill: #e6482f"/>
    <path d="M 681.003678 192.471323 
L 691.988688 191.75961 
L 693.379119 213.229632 
L 682.394109 213.941345 
L 681.003678 192.471323 
" clip-path="url(#p34c4e15cd8)" style="fill: #e6482f"/>
    <path d="M 712.158972 186.558627 
L 720.519619 186.12065 
L 721.211825 199.223476 
L 712.851179 199.661454 
L 712.158972 186.558627 
" clip-path="url(#p34c4e15cd8)" style="fill: #e6482f"/>
    <path d="M 751.873547 183.976385 
L 760.240212 183.538407 
L 760.926399 196.641234 
L 752.565753 197.079212 
L 751.873547 183.976385 
" clip-path="url(#p34c4e15cd8)" style="fill: #e6482f"/>
    <path d="M 709.576743 156.611916 
L 717.937389 156.173938 
L 718.629595 169.276765 
L 710.26293 169.714743 
L 709.576743 156.611916 
" clip-path="url(#p34c4e15cd8)" style="fill: #e6482f"/>
    <path d="M 750.585441 154.914753 
L 758.946088 154.476776 
L 759.638294 167.579602 
L 751.271628 168.026704 
L 750.585441 154.914753 
" clip-path="url(#p34c4e15cd8)" style="fill: #e6482f"/>
    <path d="M 374.861974 520.352225 
L 388.104178 519.941621 
L 388.344946 527.852589 
L 375.102742 528.254069 
L 374.861974 520.352225 
" clip-path="url(#p34c4e15cd8)" style="fill: #e6482f"/>
    <path d="M 402.953505 518.737183 
L 416.195709 518.326579 
L 416.436476 526.237547 
L 403.194272 526.648151 
L 402.953505 518.737183 
" clip-path="url(#p34c4e15cd8)" style="fill: #e6482f"/>
    <path d="M 432.658176 518.089341 
L 445.900381 517.687862 
L 446.141148 525.589705 
L 432.898944 526.000309 
L 432.658176 518.089341 
" clip-path="url(#p34c4e15cd8)" style="fill: #e6482f"/>
    <path d="M 464.626061 517.122141 
L 477.868265 516.711537 
L 478.109033 524.622505 
L 464.866828 525.033109 
L 464.626061 517.122141 
" clip-path="url(#p34c4e15cd8)" style="fill: #e6482f"/>
    <path d="M 498.429797 518.381326 
L 501.758405 518.344828 
L 501.668118 509.384538 
L 498.050588 509.421036 
L 497.954281 499.867652 
L 512.538764 499.72166 
L 512.839723 529.184771 
L 498.544161 529.330763 
L 498.429797 518.381326 
" clip-path="url(#p34c4e15cd8)" style="fill: #e6482f"/>
    <path d="M 374.494804 480.414152 
L 382.801278 480.113042 
L 383.060103 487.221052 
L 374.753629 487.522162 
L 374.494804 480.414152 
" clip-path="url(#p34c4e15cd8)" style="fill: #e6482f"/>
    <path d="M 510.600586 475.19492 
L 511.635886 491.363589 
L 498.821044 492.184797 
L 497.785744 476.016128 
L 510.600586 475.19492 
" clip-path="url(#p34c4e15cd8)" style="fill: #e6482f"/>
    <path d="M 351.363081 479.775435 
L 359.675574 479.465201 
L 359.934399 486.57321 
L 351.627925 486.883444 
L 351.363081 479.775435 
" clip-path="url(#p34c4e15cd8)" style="fill: #e6482f"/>
    <path d="M 401.340363 478.288136 
L 414.576548 477.886657 
L 414.823335 485.797625 
L 401.581131 486.199105 
L 401.340363 478.288136 
" clip-path="url(#p34c4e15cd8)" style="fill: #e6482f"/>
    <path d="M 458.167477 477.722415 
L 471.409681 477.320936 
L 471.650449 485.231904 
L 458.408244 485.633384 
L 458.167477 477.722415 
" clip-path="url(#p34c4e15cd8)" style="fill: #e6482f"/>
    <path d="M 351.080179 522.39612 
L 359.392672 522.085886 
L 359.651497 529.20302 
L 351.345023 529.504129 
L 351.080179 522.39612 
" clip-path="url(#p34c4e15cd8)" style="fill: #e6482f"/>
    <path d="M 315.711456 521.109561 
L 316.084645 519.166036 
L 317.192175 517.52362 
L 318.859489 516.446925 
L 320.815724 516.109318 
L 322.68769 516.547295 
L 324.252678 517.660488 
L 325.275939 519.284654 
L 325.594956 521.182557 
L 325.173613 523.053086 
L 324.096179 524.604256 
L 322.513133 525.635328 
L 320.653206 525.991185 
L 318.799297 525.635328 
L 317.216252 524.604256 
L 316.132799 523.053086 
L 315.711456 521.109561 
" clip-path="url(#p34c4e15cd8)" style="fill: #e6482f"/>
    <path d="M 176.46366 483.936221 
L 223.118353 482.950772 
L 223.419312 497.321908 
L 176.764619 498.316482 
L 176.46366 483.936221 
" clip-path="url(#p34c4e15cd8)" style="fill: #e6482f"/>
    <path d="M 244.67305 483.534742 
L 291.327743 482.549292 
L 291.628702 496.920429 
L 244.974009 497.905878 
L 244.67305 483.534742 
" clip-path="url(#p34c4e15cd8)" style="fill: #e6482f"/>
    <path d="M 310.878051 448.304927 
L 323.464164 447.866949 
L 325.041191 492.99688 
L 312.455077 493.434858 
L 310.878051 448.304927 
" clip-path="url(#p34c4e15cd8)" style="fill: #e6482f"/>
    <path d="M 175.57282 451.890868 
L 222.227513 450.905418 
L 222.534492 465.276555 
L 175.879799 466.262004 
L 175.57282 451.890868 
" clip-path="url(#p34c4e15cd8)" style="fill: #e6482f"/>
    <path d="M 237.88341 409.680787 
L 273.065539 408.686213 
L 307.513328 407.709888 
L 306.736853 380.153804 
L 321.128721 379.752325 
L 321.893158 406.68794 
L 317.125964 406.824808 
L 317.499153 420.01888 
L 238.238542 422.254391 
L 237.88341 409.680787 
" clip-path="url(#p34c4e15cd8)" style="fill: #e6482f"/>
    <path d="M 272.271007 405.145895 
L 272.271007 386.741715 
L 281.630838 386.741715 
L 281.630838 405.145895 
L 272.271007 405.145895 
" clip-path="url(#p34c4e15cd8)" style="fill: #e6482f"/>
    <path d="M 113.731727 354.459124 
L 123.254076 353.327682 
L 123.898128 358.327925 
L 114.700816 359.623609 
L 113.731727 354.459124 
" clip-path="url(#p34c4e15cd8)" style="fill: #e6482f"/>
    <path d="M 346.523657 340.197482 
L 356.407157 339.604388 
L 357.749435 362.014236 
L 347.871954 362.607331 
L 346.523657 340.197482 
" clip-path="url(#p34c4e15cd8)" style="fill: #e6482f"/>
    <path d="M 432.658176 477.403057 
L 445.900381 477.001577 
L 446.141148 484.903421 
L 432.898944 485.314025 
L 432.658176 477.403057 
" clip-path="url(#p34c4e15cd8)" style="fill: #e6482f"/>
    <path d="M 456.873352 456.416635 
L 470.115557 456.006031 
L 470.356324 463.917 
L 457.120139 464.318479 
L 456.873352 456.416635 
" clip-path="url(#p34c4e15cd8)" style="fill: #e6482f"/>
    <path d="M 434.391701 455.230446 
L 442.698175 454.929336 
L 442.957 462.037346 
L 434.650526 462.338456 
L 434.391701 455.230446 
" clip-path="url(#p34c4e15cd8)" style="fill: #e6482f"/>
    <path d="M 496.949078 454.728597 
L 500.277686 454.692099 
L 500.187399 445.731809 
L 496.569869 445.768307 
L 496.473562 436.214923 
L 511.058044 436.068931 
L 511.359004 465.532042 
L 497.057423 465.678034 
L 496.949078 454.728597 
" clip-path="url(#p34c4e15cd8)" style="fill: #e6482f"/>
    <path d="M 349.689748 429.280279 
L 361.631808 429.106913 
L 362.107324 462.703437 
L 350.165263 462.867679 
L 349.689748 429.280279 
" clip-path="url(#p34c4e15cd8)" style="fill: #e6482f"/>
    <path d="M 469.435389 401.669448 
L 508.758716 399.88104 
L 510.076917 428.997419 
L 500.109149 429.444521 
L 499.386847 413.503965 
L 470.031288 414.836147 
L 469.435389 401.669448 
" clip-path="url(#p34c4e15cd8)" style="fill: #e6482f"/>
    <path d="M 350.014784 405.967102 
L 380.694563 405.62037 
L 380.833005 417.719499 
L 350.153225 418.066231 
L 350.014784 405.967102 
" clip-path="url(#p34c4e15cd8)" style="fill: #e6482f"/>
    <path d="M 442.343043 402.180422 
L 458.323976 401.642075 
L 458.829587 416.414691 
L 442.848654 416.962162 
L 442.343043 402.180422 
" clip-path="url(#p34c4e15cd8)" style="fill: #e6482f"/>
    <path d="M 346.385216 369.870457 
L 393.039909 368.885008 
L 393.340868 383.256145 
L 346.686175 384.250718 
L 346.385216 369.870457 
" clip-path="url(#p34c4e15cd8)" style="fill: #e6482f"/>
    <path d="M 446.484241 367.616698 
L 493.138934 366.622124 
L 493.439894 381.002385 
L 446.785201 381.987835 
L 446.484241 367.616698 
" clip-path="url(#p34c4e15cd8)" style="fill: #e6482f"/>
    <path d="M 155.540977 340.562463 
L 210.435933 339.595263 
L 209.79188 354.45 
L 155.866013 354.769358 
L 155.540977 340.562463 
" clip-path="url(#p34c4e15cd8)" style="fill: #e6482f"/>
    <path d="M 113.081655 337.186387 
L 124.867217 336.210062 
L 125.029735 341.70303 
L 113.406691 342.67023 
L 113.081655 337.186387 
" clip-path="url(#p34c4e15cd8)" style="fill: #e6482f"/>
    <path d="M 346.589868 314.612297 
L 356.569675 314.110448 
L 357.526725 333.354084 
L 347.546919 333.855933 
L 346.589868 314.612297 
" clip-path="url(#p34c4e15cd8)" style="fill: #e6482f"/>
    <path d="M 319.058122 273.752647 
L 321.375508 361.421142 
L 311.209106 361.685753 
L 308.891721 274.017258 
L 319.058122 273.752647 
" clip-path="url(#p34c4e15cd8)" style="fill: #e6482f"/>
    <path d="M 115.988921 308.608355 
L 127.611965 307.476914 
L 128.418535 314.092199 
L 116.632973 314.74004 
L 115.988921 308.608355 
" clip-path="url(#p34c4e15cd8)" style="fill: #e6482f"/>
    <path d="M 153.927836 329.905011 
L 151.670642 267.265105 
L 164.581791 267.593588 
L 166.519968 328.618452 
L 153.927836 329.905011 
" clip-path="url(#p34c4e15cd8)" style="fill: #e6482f"/>
    <path d="M 115.669904 292.302818 
L 127.937001 291.819218 
L 128.581053 300.049545 
L 116.151439 300.533145 
L 115.669904 292.302818 
" clip-path="url(#p34c4e15cd8)" style="fill: #e6482f"/>
    <path d="M 356.960922 285.276929 
L 356.960922 304.000467 
L 345.981931 304.000467 
L 345.981931 285.276929 
L 356.960922 285.276929 
" clip-path="url(#p34c4e15cd8)" style="fill: #e6482f"/>
    <path d="M 276.628896 267.265105 
L 303.751338 265.978546 
L 304.076374 277.603199 
L 277.917001 279.537599 
L 276.628896 267.265105 
" clip-path="url(#p34c4e15cd8)" style="fill: #e6482f"/>
    <path d="M 180.406225 267.265105 
L 260.804462 265.978546 
L 260.804462 277.922557 
L 181.375314 279.218241 
L 180.406225 267.265105 
" clip-path="url(#p34c4e15cd8)" style="fill: #e6482f"/>
    <path d="M 431.869663 360.180205 
L 431.984028 368.903257 
L 407.768852 369.222616 
L 407.654487 360.508688 
L 431.869663 360.180205 
" clip-path="url(#p34c4e15cd8)" style="fill: #e6482f"/>
    <path d="M 379.701398 339.631761 
L 389.584898 339.038667 
L 390.927176 361.448515 
L 381.049695 362.04161 
L 379.701398 339.631761 
" clip-path="url(#p34c4e15cd8)" style="fill: #e6482f"/>
    <path d="M 477.988649 338.272206 
L 488.961621 338.272206 
L 490.580781 356.028544 
L 478.951718 356.357027 
L 477.988649 338.272206 
" clip-path="url(#p34c4e15cd8)" style="fill: #e6482f"/>
    <path d="M 391.830053 303.681109 
L 382.229455 304.566188 
L 380.291278 283.579767 
L 389.891876 282.685562 
L 391.830053 303.681109 
" clip-path="url(#p34c4e15cd8)" style="fill: #e6482f"/>
    <path d="M 442.14441 280.796785 
L 452.154312 280.148943 
L 451.829277 304.693932 
L 442.469446 305.661132 
L 442.14441 280.796785 
" clip-path="url(#p34c4e15cd8)" style="fill: #e6482f"/>
    <path d="M 477.338577 280.477426 
L 487.34848 280.477426 
L 487.029463 302.750406 
L 477.663613 302.750406 
L 477.338577 280.477426 
" clip-path="url(#p34c4e15cd8)" style="fill: #e6482f"/>
    <path d="M 345.452243 262.867081 
L 374.187826 261.653518 
L 374.741591 274.728971 
L 346.006008 275.951659 
L 345.452243 262.867081 
" clip-path="url(#p34c4e15cd8)" style="fill: #e6482f"/>
    <path d="M 384.901973 261.023926 
L 402.32751 259.938106 
L 403.097965 272.301846 
L 385.672428 273.387665 
L 384.901973 261.023926 
" clip-path="url(#p34c4e15cd8)" style="fill: #e6482f"/>
    <path d="M 412.776813 257.948959 
L 441.506376 256.726271 
L 442.066161 269.810849 
L 413.330577 271.024412 
L 412.776813 257.948959 
" clip-path="url(#p34c4e15cd8)" style="fill: #e6482f"/>
    <path d="M 453.568821 257.228121 
L 486.638216 256.133177 
L 486.999367 267.137361 
L 453.929972 268.232305 
L 453.568821 257.228121 
" clip-path="url(#p34c4e15cd8)" style="fill: #e6482f"/>
    <path d="M 106.948107 256.46166 
L 124.223164 257.109502 
L 123.741629 263.405428 
L 106.948107 262.273986 
L 106.948107 256.46166 
" clip-path="url(#p34c4e15cd8)" style="fill: #e6482f"/>
    <path d="M 135.039637 230.949471 
L 142.142274 229.818029 
L 143.273881 234.827397 
L 136.171244 236.113956 
L 135.039637 230.949471 
" clip-path="url(#p34c4e15cd8)" style="fill: #e6482f"/>
    <path d="M 89.67305 229.662912 
L 99.201417 230.146512 
L 99.357916 234.343797 
L 89.835568 234.663155 
L 89.67305 229.662912 
" clip-path="url(#p34c4e15cd8)" style="fill: #e6482f"/>
    <path d="M 106.785589 227.719387 
L 118.571151 226.916428 
L 118.896187 232.564513 
L 107.273143 233.531713 
L 106.785589 227.719387 
" clip-path="url(#p34c4e15cd8)" style="fill: #e6482f"/>
    <path d="M 88.384944 210.44665 
L 101.296093 209.798808 
L 101.296093 213.840975 
L 89.028997 213.840975 
L 88.384944 210.44665 
" clip-path="url(#p34c4e15cd8)" style="fill: #e6482f"/>
    <path d="M 317.643614 201.823968 
L 325.390303 201.714473 
L 325.606994 216.888569 
L 317.860304 216.998063 
L 317.643614 201.823968 
" clip-path="url(#p34c4e15cd8)" style="fill: #e6482f"/>
    <path d="M 275.34681 201.659726 
L 283.093499 201.550232 
L 283.304171 216.733452 
L 275.557481 216.842946 
L 275.34681 201.659726 
" clip-path="url(#p34c4e15cd8)" style="fill: #e6482f"/>
    <path d="M 275.990862 173.410178 
L 283.737552 173.300683 
L 283.954243 188.474779 
L 276.201534 188.584273 
L 275.990862 173.410178 
" clip-path="url(#p34c4e15cd8)" style="fill: #e6482f"/>
    <path d="M 314.736348 169.212893 
L 322.483038 169.103399 
L 322.699728 184.277494 
L 314.953039 184.386989 
L 314.736348 169.212893 
" clip-path="url(#p34c4e15cd8)" style="fill: #e6482f"/>
    <path d="M 274.052685 143.381346 
L 281.799375 143.271851 
L 282.016065 158.455071 
L 274.269376 158.555441 
L 274.052685 143.381346 
" clip-path="url(#p34c4e15cd8)" style="fill: #e6482f"/>
    <path d="M 461.225222 148.856065 
L 461.249299 149.741144 
L 485.970087 149.056804 
L 486.271046 160.033615 
L 461.556277 160.717955 
L 461.580354 161.548287 
L 455.958437 161.703404 
L 455.603305 149.011182 
L 461.225222 148.856065 
" clip-path="url(#p34c4e15cd8)" style="fill: #e6482f"/>
    <path d="M 314.736348 142.094787 
L 322.483038 141.985293 
L 322.699728 157.159388 
L 314.953039 157.268882 
L 314.736348 142.094787 
" clip-path="url(#p34c4e15cd8)" style="fill: #e6482f"/>
   </g>
   <g id="LineCollection_1">
    <path d="M 236.023483 448.396172 
L 236.920341 501.975419 
L 239.297919 506.154454 
L 244.552666 515.397604 
L 254.99595 526.48391 
L 266.49861 536.703384 
L 278.639303 542.032111 
L 296.534337 544.158126 
L 320.821743 542.460964 
L 344.693825 541.101408 
" clip-path="url(#p34c4e15cd8)" style="fill: none; stroke: #e6482f; stroke-width: 0.2"/>
    <path d="M 239.297919 506.154454 
L 172.527114 506.665428 
L 151.863256 505.369744 
L 146.698796 498.590218 
L 143.79153 423.358459 
L 147.017813 388.803859 
" clip-path="url(#p34c4e15cd8)" style="fill: none; stroke: #e6482f; stroke-width: 0.2"/>
    <path d="M 345.638837 444.235386 
L 236.023483 448.396172 
L 228.017968 448.53304 
L 224.09346 448.606036 
L 175.620974 449.436369 
" clip-path="url(#p34c4e15cd8)" style="fill: none; stroke: #e6482f; stroke-width: 0.2"/>
    <path d="M 345.775891 572.658933 
L 344.693825 541.101408 
L 346.276871 475.851886 
L 345.638837 444.235386 
L 345.452243 398.539734 
L 342.514881 386.303738 
L 338.668623 252.839221 
" clip-path="url(#p34c4e15cd8)" style="fill: none; stroke: #e6482f; stroke-width: 0.2"/>
    <path d="M 228.017968 448.53304 
L 224.695379 360.709428 
L 225.429719 340.252229 
L 233.098159 331.848536 
L 249.53655 308.097382 
L 259.034822 289.839195 
L 270.362926 286.91022 
L 271.091247 282.530445 
L 271.458417 258.779291 
" clip-path="url(#p34c4e15cd8)" style="fill: none; stroke: #e6482f; stroke-width: 0.2"/>
    <path d="M 143.809588 257.100377 
L 145.278269 354.979223 
L 152.134119 357.433721 
L 164.3651 402.946883 
L 170.239824 448.460044 
L 175.620974 449.436369 
" clip-path="url(#p34c4e15cd8)" style="fill: none; stroke: #e6482f; stroke-width: 0.2"/>
    <path d="M 103.914438 219.607679 
L 103.83017 239.225421 
L 107.544006 253.432316 
" clip-path="url(#p34c4e15cd8)" style="fill: none; stroke: #e6482f; stroke-width: 0.2"/>
    <path d="M 515.102936 103.069167 
L 478.115052 94.364365 
L 443.889973 77.246744 
L 425.483309 71.762901 
L 418.248648 70.773994 
" clip-path="url(#p34c4e15cd8)" style="fill: none; stroke: #e6482f; stroke-width: 0.2"/>
    <path d="M 70.375579 464.686086 
L 72.56051 471.818844 
L 75.884606 524.06098 
" clip-path="url(#p34c4e15cd8)" style="fill: none; stroke: #e6482f; stroke-width: 0.2"/>
    <path d="M 77.815095 544.867296 
L 82.23569 556.938828 
" clip-path="url(#p34c4e15cd8)" style="fill: none; stroke: #e6482f; stroke-width: 0.2"/>
    <path d="M 709.96197 533.099195 
L 561.119595 533.97515 
L 524.414613 533.19044 
L 364.695573 537.050117 
L 344.693825 541.101408 
" clip-path="url(#p34c4e15cd8)" style="fill: none; stroke: #e6482f; stroke-width: 0.2"/>
    <path d="M 559.325879 466.572238 
L 561.119595 533.97515 
" clip-path="url(#p34c4e15cd8)" style="fill: none; stroke: #e6482f; stroke-width: 0.2"/>
    <path d="M 523.415429 393.265755 
L 525.076723 472.421063 
L 524.414613 533.19044 
L 528.249992 583.543466 
" clip-path="url(#p34c4e15cd8)" style="fill: none; stroke: #e6482f; stroke-width: 0.2"/>
    <path d="M 708.168254 462.128592 
L 559.325879 466.572238 
L 551.494921 470.979387 
L 525.076723 472.421063 
L 346.276871 475.851886 
" clip-path="url(#p34c4e15cd8)" style="fill: none; stroke: #e6482f; stroke-width: 0.2"/>
    <path d="M 805.879339 387.423537 
L 783.089033 392.143438 
L 762.726135 396.559711 
L 754.028414 398.439364 
L 724.967795 399.890165 
L 706.290268 387.754538 
" clip-path="url(#p34c4e15cd8)" style="fill: none; stroke: #e6482f; stroke-width: 0.2"/>
    <path d="M 741.111246 422.65587 
L 744.825083 423.787312 
L 747.56983 423.787312 
L 751.771221 421.524428 
L 755.160021 418.942186 
L 758.386303 416.359943 
L 759.999445 412.491142 
L 760.649517 406.678816 
L 761.456087 401.669448 
L 762.726135 396.559711 
L 765.169923 393.439121 
L 768.88376 389.725437 
L 772.597596 387.143195 
L 780.988338 384.068228 
L 785.027211 382.298069 
L 791.967329 381.166627 
L 802.783803 382.46231 
L 805.768408 383.362076 
" clip-path="url(#p34c4e15cd8)" style="fill: none; stroke: #e6482f; stroke-width: 0.2"/>
    <path d="M 345.452243 398.539734 
L 523.415429 393.265755 
L 706.290268 387.754538 
" clip-path="url(#p34c4e15cd8)" style="fill: none; stroke: #e6482f; stroke-width: 0.2"/>
    <path d="M 700.439622 162.296499 
L 702.726912 246.762283 
L 706.290268 387.754538 
L 708.168254 462.128592 
L 709.96197 533.099195 
L 711.702144 594.486339 
" clip-path="url(#p34c4e15cd8)" style="fill: none; stroke: #e6482f; stroke-width: 0.2"/>
    <path d="M 143.809588 257.100377 
L 267.612159 254.390391 
L 338.668623 252.839221 
L 519.358499 249.882873 
L 635.257881 247.911974 
L 698.808423 246.826155 
L 702.726912 246.762283 
L 765.86213 245.840706 
" clip-path="url(#p34c4e15cd8)" style="fill: none; stroke: #e6482f; stroke-width: 0.2"/>
    <path d="M 267.774677 212.709533 
L 249.83149 221.423461 
L 243.691923 229.818029 
L 222.709048 233.695955 
L 192.679341 235.310997 
L 150.376517 235.958839 
" clip-path="url(#p34c4e15cd8)" style="fill: none; stroke: #e6482f; stroke-width: 0.2"/>
    <path d="M 369.011328 234.298174 
L 359.320442 220.091279 
L 357.707301 169.723867 
L 362.552744 150.352488 
L 385.798831 148.737446 
L 430.683884 152.286888 
L 440.206233 152.45113 
" clip-path="url(#p34c4e15cd8)" style="fill: none; stroke: #e6482f; stroke-width: 0.2"/>
    <path d="M 330.57884 130.716497 
L 333.811141 196.522615 
L 334.461213 239.791142 
L 267.666331 241.077701 
" clip-path="url(#p34c4e15cd8)" style="fill: none; stroke: #e6482f; stroke-width: 0.2"/>
    <path d="M 267.612159 254.390391 
L 267.666331 241.077701 
L 267.774677 212.709533 
L 267.943214 168.437308 
L 269.237338 128.070383 
L 268.26825 90.623307 
L 268.912302 61.561675 
L 269.211504 60.478218 
" clip-path="url(#p34c4e15cd8)" style="fill: none; stroke: #e6482f; stroke-width: 0.2"/>
    <path d="M 143.809588 257.100377 
L 134.106664 251.415794 
L 126.353955 240.5941 
L 126.353955 229.297931 
L 118.444748 215.091036 
L 111.017075 214.762553 
L 103.914438 219.607679 
L 94.873624 217.35392 
L 78.730174 220.903362 
L 68.395235 225.748488 
L 49.106159 235.449691 
" clip-path="url(#p34c4e15cd8)" style="fill: none; stroke: #e6482f; stroke-width: 0.2"/>
    <path d="M 269.237338 128.070383 
L 283.767648 130.981108 
L 330.57884 130.716497 
L 341.56385 130.652625 
L 362.227708 123.873098 
L 407.756813 125.48814 
L 421.962087 127.751024 
L 432.622061 132.59615 
L 440.850285 134.046951 
" clip-path="url(#p34c4e15cd8)" style="fill: none; stroke: #e6482f; stroke-width: 0.2"/>
    <path d="M 635.257881 247.911974 
L 634.264716 210.975872 
L 671.078044 208.39363 
" clip-path="url(#p34c4e15cd8)" style="fill: none; stroke: #e6482f; stroke-width: 0.2"/>
    <path d="M 634.264716 210.975872 
L 518.353295 215.136659 
" clip-path="url(#p34c4e15cd8)" style="fill: none; stroke: #e6482f; stroke-width: 0.2"/>
    <path d="M 770.10667 240.80459 
L 765.86213 245.840706 
" clip-path="url(#p34c4e15cd8)" style="fill: none; stroke: #e6482f; stroke-width: 0.2"/>
    <path d="M 515.795142 126.929816 
L 457.318772 129.201824 
L 440.850285 134.046951 
L 439.887216 144.704403 
L 440.206233 152.45113 
" clip-path="url(#p34c4e15cd8)" style="fill: none; stroke: #e6482f; stroke-width: 0.2"/>
    <path d="M 514.261491 74.400201 
L 514.464902 81.042549 
L 515.102936 103.069167 
L 515.795142 126.929816 
L 518.353295 215.136659 
L 519.358499 249.882873 
" clip-path="url(#p34c4e15cd8)" style="fill: none; stroke: #e6482f; stroke-width: 0.2"/>
   </g>
  </g>
 </g>
 <defs>
  <clipPath id="p34c4e15cd8">
   <rect x="7.2" y="7.2" width="837" height="619.432482"/>
  </clipPath>
 </defs>
</svg>
