<?xml version="1.0" encoding="utf-8" standalone="no"?>
<!DOCTYPE svg PUBLIC "-//W3C//DTD SVG 1.1//EN"
  "http://www.w3.org/Graphics/SVG/1.1/DTD/svg11.dtd">
<svg xmlns:xlink="http://www.w3.org/1999/xlink" width="851.4pt" height="504.743145pt" viewBox="0 0 851.4 504.743145" xmlns="http://www.w3.org/2000/svg" version="1.1">
 <metadata>
  <rdf:RDF xmlns:dc="http://purl.org/dc/elements/1.1/" xmlns:cc="http://creativecommons.org/ns#" xmlns:rdf="http://www.w3.org/1999/02/22-rdf-syntax-ns#">
   <cc:Work>
    <dc:type rdf:resource="http://purl.org/dc/dcmitype/StillImage"/>
    <dc:date>2025-03-16T14:38:41.155289</dc:date>
    <dc:format>image/svg+xml</dc:format>
    <dc:creator>
     <cc:Agent>
      <dc:title>Matplotlib v3.10.1, https://matplotlib.org/</dc:title>
     </cc:Agent>
    </dc:creator>
   </cc:Work>
  </rdf:RDF>
 </metadata>
 <defs>
  <style type="text/css">*{stroke-linejoin: round; stroke-linecap: butt}</style>
 </defs>
 <g id="figure_1">
  <g id="patch_1">
   <path d="M 0 504.743145 
L 851.4 504.743145 
L 851.4 -0 
L 0 -0 
z
" style="fill: #ffffff"/>
  </g>
  <g id="axes_1">
   <g id="PatchCollection_1">
    <path d="M 45.801194 377.078463 
L 55.481244 393.411636 
L 61.062994 390.383877 
L 65.934016 396.26208 
L 87.680918 430.81534 
L 92.425737 448.352926 
L 111.422725 450.78517 
L 126.033579 473.535186 
L 136.127667 475.25482 
L 148.65948 458.567014 
L 157.389681 450.370317 
L 192.24849 440.035787 
L 192.427832 427.265668 
L 173.364421 411.109811 
L 176.213969 389.433729 
L 196.466353 370.842282 
L 194.684001 342.930019 
L 208.165664 329.50751 
L 221.636255 329.825341 
L 234.759233 330.082951 
L 276.025651 369.089193 
L 291.0439 371.146731 
L 313.249121 367.757647 
L 317.796885 380.390598 
L 312.744306 395.164726 
L 295.987988 412.384481 
L 296.326745 423.224195 
L 305.063589 432.227179 
L 323.073088 432.170304 
L 349.460746 423.043533 
L 380.695072 426.251954 
L 421.204268 420.092722 
L 453.578855 405.228263 
L 499.731795 380.082803 
L 521.182007 329.119421 
L 529.090777 322.913351 
L 539.866808 314.679852 
L 553.379467 315.549706 
L 560.863129 322.675814 
L 567.751198 320.420886 
L 574.641481 329.684826 
L 580.460139 329.684826 
L 589.723938 322.321181 
L 595.068779 319.470738 
L 603.265381 326.951479 
L 615.854761 334.315124 
L 617.637112 337.643986 
L 631.295903 326.121772 
L 635.451771 321.013055 
L 642.698524 298.801679 
L 651.605853 287.87498 
L 659.089515 283.0038 
L 671.798456 277.065377 
L 704.697786 278.61104 
L 720.851868 281.461483 
L 762.815728 266.125295 
L 806.154545 251.270873 
L 781.022283 144.727194 
L 753.83312 29.488325 
L 590.122477 76.768212 
L 605.025592 124.212032 
L 612.201494 181.772919 
L 612.921077 215.590149 
L 472.746329 253.462235 
L 468.898222 254.502714 
L 368.172115 276.570229 
L 300.952003 287.972002 
L 295.492029 288.089098 
L 259.302545 288.868621 
L 169.669086 272.896771 
L 148.0661 283.318286 
L 73.09442 350.467635 
L 45.245455 363.508747 
L 45.801194 377.078463 
" clip-path="url(#pf971bd00ad)" style="fill: #d1d4f2"/>
   </g>
   <g id="PatchCollection_2">
    <path d="M 79.969204 384.686336 
L 82.464496 383.675968 
L 82.960454 384.900454 
L 80.465162 385.910822 
L 79.969204 384.686336 
" clip-path="url(#pf971bd00ad)" style="fill: #4d59c1"/>
    <path d="M 88.088313 382.49832 
L 90.552608 381.521407 
L 90.977715 382.585305 
L 88.51342 383.565563 
L 88.088313 382.49832 
" clip-path="url(#pf971bd00ad)" style="fill: #4d59c1"/>
    <path d="M 94.002177 378.59067 
L 96.940289 377.402985 
L 97.332185 378.369861 
L 94.391859 379.557546 
L 94.002177 378.59067 
" clip-path="url(#pf971bd00ad)" style="fill: #4d59c1"/>
    <path d="M 67.02114 378.433427 
L 69.33709 377.332728 
L 69.554072 377.791074 
L 67.238122 378.888428 
L 67.02114 378.433427 
" clip-path="url(#pf971bd00ad)" style="fill: #4d59c1"/>
    <path d="M 66.697881 376.516404 
L 68.626363 375.566256 
L 69.020473 376.365852 
L 67.089777 377.316 
L 66.697881 376.516404 
" clip-path="url(#pf971bd00ad)" style="fill: #4d59c1"/>
    <path d="M 100.068815 375.87405 
L 102.94936 374.656255 
L 103.389966 375.696734 
L 100.509421 376.914529 
L 100.068815 375.87405 
" clip-path="url(#pf971bd00ad)" style="fill: #4d59c1"/>
    <path d="M 78.538894 372.16379 
L 79.727867 374.867028 
L 78.445902 375.429087 
L 77.259144 372.72585 
L 78.538894 372.16379 
" clip-path="url(#pf971bd00ad)" style="fill: #4d59c1"/>
    <path d="M 81.910971 370.457539 
L 83.21729 372.655592 
L 81.14932 373.883424 
L 79.843 371.685371 
L 81.910971 370.457539 
" clip-path="url(#pf971bd00ad)" style="fill: #4d59c1"/>
    <path d="M 77.329995 370.835591 
L 81.51686 368.844964 
L 81.950824 369.758311 
L 77.763959 371.745592 
L 77.329995 370.835591 
" clip-path="url(#pf971bd00ad)" style="fill: #4d59c1"/>
    <path d="M 187.689656 353.274586 
L 186.602532 353.471976 
L 186.857154 354.880469 
L 185.402489 355.144771 
L 185.145653 353.736277 
L 185.130155 353.739623 
L 184.536776 350.474326 
L 187.094062 350.009289 
L 187.689656 353.274586 
" clip-path="url(#pf971bd00ad)" style="fill: #4d59c1"/>
    <path d="M 185.373706 340.256893 
L 187.187055 347.827964 
L 184.15595 348.553957 
L 182.344815 340.982886 
L 185.373706 340.256893 
" clip-path="url(#pf971bd00ad)" style="fill: #4d59c1"/>
    <path d="M 334.677192 341.160202 
L 335.270571 343.358255 
L 333.957609 343.712888 
L 333.36423 341.514835 
L 334.677192 341.160202 
" clip-path="url(#pf971bd00ad)" style="fill: #4d59c1"/>
    <path d="M 312.770875 340.588106 
L 312.852797 339.239833 
L 317.134869 339.494098 
L 317.050733 340.902592 
L 315.244026 340.792187 
L 315.137749 342.598806 
L 314.601937 342.56535 
L 314.714856 340.705202 
L 312.770875 340.588106 
" clip-path="url(#pf971bd00ad)" style="fill: #4d59c1"/>
    <path d="M 327.866617 339.975863 
L 329.945658 339.500789 
L 330.217993 340.685128 
L 328.138952 341.160202 
L 327.866617 339.975863 
" clip-path="url(#pf971bd00ad)" style="fill: #4d59c1"/>
    <path d="M 181.857713 339.029061 
L 184.264441 338.34656 
L 184.585486 339.480716 
L 182.180972 340.166562 
L 181.857713 339.029061 
" clip-path="url(#pf971bd00ad)" style="fill: #4d59c1"/>
    <path d="M 338.95705 338.022038 
L 341.866379 337.429868 
L 342.094431 338.547296 
L 339.185102 339.139465 
L 338.95705 338.022038 
" clip-path="url(#pf971bd00ad)" style="fill: #4d59c1"/>
    <path d="M 346.923386 335.914316 
L 348.942646 335.318801 
L 349.27919 336.466338 
L 347.25993 337.061853 
L 346.923386 335.914316 
" clip-path="url(#pf971bd00ad)" style="fill: #4d59c1"/>
    <path d="M 298.74233 337.061853 
L 296.402025 336.92803 
L 296.579153 333.84005 
L 298.919458 333.973873 
L 298.74233 337.061853 
" clip-path="url(#pf971bd00ad)" style="fill: #4d59c1"/>
    <path d="M 363.759412 333.880197 
L 367.797932 332.635637 
L 368.28282 334.21141 
L 364.246514 335.459316 
L 363.759412 333.880197 
" clip-path="url(#pf971bd00ad)" style="fill: #4d59c1"/>
    <path d="M 167.348708 334.388727 
L 166.153093 334.934058 
L 165.234241 332.913321 
L 166.427642 332.371335 
L 167.348708 334.388727 
" clip-path="url(#pf971bd00ad)" style="fill: #4d59c1"/>
    <path d="M 360.444902 332.190674 
L 360.867796 333.518873 
L 358.255156 334.351925 
L 357.832263 333.023726 
L 360.444902 332.190674 
" clip-path="url(#pf971bd00ad)" style="fill: #4d59c1"/>
    <path d="M 357.595354 334.21141 
L 356.003415 334.669756 
L 355.230694 331.996629 
L 356.822633 331.538283 
L 357.595354 334.21141 
" clip-path="url(#pf971bd00ad)" style="fill: #4d59c1"/>
    <path d="M 283.1617 332.194019 
L 287.379562 332.133798 
L 287.399489 333.55902 
L 283.181627 333.615895 
L 283.1617 332.194019 
" clip-path="url(#pf971bd00ad)" style="fill: #4d59c1"/>
    <path d="M 374.920696 330.892584 
L 378.959216 329.467363 
L 379.627875 331.360967 
L 375.589354 332.786189 
L 374.920696 330.892584 
" clip-path="url(#pf971bd00ad)" style="fill: #4d59c1"/>
    <path d="M 279.35566 332.705894 
L 277.221266 332.712586 
L 277.21241 329.146186 
L 279.349017 329.14284 
L 279.35566 332.705894 
" clip-path="url(#pf971bd00ad)" style="fill: #4d59c1"/>
    <path d="M 368.794278 330.581444 
L 371.406917 329.631297 
L 371.668181 330.350599 
L 369.055542 331.300746 
L 368.794278 330.581444 
" clip-path="url(#pf971bd00ad)" style="fill: #4d59c1"/>
    <path d="M 268.572987 328.865156 
L 268.42907 330.808945 
L 264.45033 330.511187 
L 264.594247 328.567399 
L 268.572987 328.865156 
" clip-path="url(#pf971bd00ad)" style="fill: #4d59c1"/>
    <path d="M 271.593021 328.54398 
L 274.590914 328.597509 
L 274.562131 330.176628 
L 271.564238 330.123099 
L 271.593021 328.54398 
" clip-path="url(#pf971bd00ad)" style="fill: #4d59c1"/>
    <path d="M 263.369849 328.567399 
L 263.217076 329.985929 
L 261.479007 329.798576 
L 261.631779 328.380046 
L 263.369849 328.567399 
" clip-path="url(#pf971bd00ad)" style="fill: #4d59c1"/>
    <path d="M 384.490041 326.630302 
L 387.935183 325.502838 
L 388.298295 326.610228 
L 384.853154 327.737692 
L 384.490041 326.630302 
" clip-path="url(#pf971bd00ad)" style="fill: #4d59c1"/>
    <path d="M 400.234515 324.351955 
L 398.728926 324.914014 
L 397.422606 321.407835 
L 398.928195 320.849121 
L 400.234515 324.351955 
" clip-path="url(#pf971bd00ad)" style="fill: #4d59c1"/>
    <path d="M 370.390645 314.01408 
L 372.053435 313.418565 
L 372.500683 314.673161 
L 370.837893 315.265331 
L 370.390645 314.01408 
" clip-path="url(#pf971bd00ad)" style="fill: #4d59c1"/>
    <path d="M 321.948325 307.961906 
L 321.919541 308.631024 
L 320.865629 308.584186 
L 320.892198 307.915068 
L 321.948325 307.961906 
" clip-path="url(#pf971bd00ad)" style="fill: #4d59c1"/>
    <path d="M 316.098669 306.951538 
L 316.087599 307.573818 
L 315.093467 307.55709 
L 315.102324 306.93481 
L 316.098669 306.951538 
" clip-path="url(#pf971bd00ad)" style="fill: #4d59c1"/>
    <path d="M 317.360707 306.831097 
L 317.349636 307.393156 
L 316.561416 307.379773 
L 316.572487 306.817714 
L 317.360707 306.831097 
" clip-path="url(#pf971bd00ad)" style="fill: #4d59c1"/>
    <path d="M 391.679228 306.16867 
L 394.172306 305.275397 
L 394.473424 306.118486 
L 391.980346 307.011758 
L 391.679228 306.16867 
" clip-path="url(#pf971bd00ad)" style="fill: #4d59c1"/>
    <path d="M 400.958526 325.198389 
L 404.226539 324.248241 
L 404.687073 325.837397 
L 401.421273 326.787545 
L 400.958526 325.198389 
" clip-path="url(#pf971bd00ad)" style="fill: #4d59c1"/>
    <path d="M 410.040769 322.873204 
L 413.246788 322.160593 
L 413.417274 322.926733 
L 410.211255 323.639344 
L 410.040769 322.873204 
" clip-path="url(#pf971bd00ad)" style="fill: #4d59c1"/>
    <path d="M 448.977953 310.430952 
L 451.116775 309.363709 
L 451.840786 310.812349 
L 449.704178 311.879593 
L 448.977953 310.430952 
" clip-path="url(#pf971bd00ad)" style="fill: #4d59c1"/>
    <path d="M 454.02389 309.801981 
L 455.210648 309.149591 
L 455.702178 310.039518 
L 454.513206 310.691908 
L 454.02389 309.801981 
" clip-path="url(#pf971bd00ad)" style="fill: #4d59c1"/>
    <path d="M 455.943515 308.744774 
L 457.843214 308.032164 
L 458.195256 308.968929 
L 456.295558 309.68154 
L 455.943515 308.744774 
" clip-path="url(#pf971bd00ad)" style="fill: #4d59c1"/>
    <path d="M 461.37692 305.981317 
L 466.72176 304.024146 
L 467.162366 305.228559 
L 461.817526 307.189075 
L 461.37692 305.981317 
" clip-path="url(#pf971bd00ad)" style="fill: #4d59c1"/>
    <path d="M 456.452759 304.629698 
L 458.828489 303.559109 
L 459.740699 305.586537 
L 457.364968 306.65378 
L 456.452759 304.629698 
" clip-path="url(#pf971bd00ad)" style="fill: #4d59c1"/>
    <path d="M 469.763935 304.15797 
L 471.960324 303.324918 
L 472.389859 304.455727 
L 470.191257 305.288779 
L 469.763935 304.15797 
" clip-path="url(#pf971bd00ad)" style="fill: #4d59c1"/>
    <path d="M 467.372706 301.859549 
L 471.530788 300.317232 
L 471.854047 301.190431 
L 467.698179 302.736094 
L 467.372706 301.859549 
" clip-path="url(#pf971bd00ad)" style="fill: #4d59c1"/>
    <path d="M 480.07279 298.530686 
L 481.142201 298.172708 
L 481.356969 298.815061 
L 480.287558 299.169694 
L 480.07279 298.530686 
" clip-path="url(#pf971bd00ad)" style="fill: #4d59c1"/>
    <path d="M 483.458151 295.074691 
L 484.34822 297.38984 
L 482.959978 297.925134 
L 482.06991 295.60664 
L 483.458151 295.074691 
" clip-path="url(#pf971bd00ad)" style="fill: #4d59c1"/>
    <path d="M 503.68618 292.401564 
L 502.928957 292.742814 
L 502.335578 291.438034 
L 503.092801 291.093438 
L 503.68618 292.401564 
" clip-path="url(#pf971bd00ad)" style="fill: #4d59c1"/>
    <path d="M 469.867998 288.711378 
L 470.521158 290.313916 
L 469.478316 290.738806 
L 468.825156 289.132922 
L 469.867998 288.711378 
" clip-path="url(#pf971bd00ad)" style="fill: #4d59c1"/>
    <path d="M 471.885044 287.945237 
L 475.033496 286.700678 
L 475.715439 288.420311 
L 472.566987 289.668217 
L 471.885044 287.945237 
" clip-path="url(#pf971bd00ad)" style="fill: #4d59c1"/>
    <path d="M 515.68218 283.375161 
L 516.452687 285.399243 
L 513.483578 286.526707 
L 512.71307 284.502625 
L 515.68218 283.375161 
" clip-path="url(#pf971bd00ad)" style="fill: #4d59c1"/>
    <path d="M 469.29676 283.371815 
L 470.839988 283.492256 
L 470.784636 284.204867 
L 469.241407 284.087771 
L 469.29676 283.371815 
" clip-path="url(#pf971bd00ad)" style="fill: #4d59c1"/>
    <path d="M 527.182222 279.34707 
L 528.074505 281.545123 
L 526.788112 282.067035 
L 525.895829 279.868982 
L 527.182222 279.34707 
" clip-path="url(#pf971bd00ad)" style="fill: #4d59c1"/>
    <path d="M 577.265191 264.666618 
L 577.477745 265.623457 
L 575.341137 266.098531 
L 575.128583 265.141692 
L 577.265191 264.666618 
" clip-path="url(#pf971bd00ad)" style="fill: #4d59c1"/>
    <path d="M 582.373122 262.706102 
L 582.627744 263.341764 
L 580.548703 264.17147 
L 580.294081 263.539154 
L 582.373122 262.706102 
" clip-path="url(#pf971bd00ad)" style="fill: #4d59c1"/>
    <path d="M 589.084063 262.053712 
L 588.433117 262.033638 
L 588.492898 259.956026 
L 589.143844 259.9761 
L 589.084063 262.053712 
" clip-path="url(#pf971bd00ad)" style="fill: #4d59c1"/>
    <path d="M 593.775744 259.501026 
L 594.107859 260.350806 
L 592.741758 260.8861 
L 592.409643 260.032975 
L 593.775744 259.501026 
" clip-path="url(#pf971bd00ad)" style="fill: #4d59c1"/>
    <path d="M 624.359124 253.294955 
L 624.359124 254.214993 
L 622.399644 254.214993 
L 622.399644 253.294955 
L 624.359124 253.294955 
" clip-path="url(#pf971bd00ad)" style="fill: #4d59c1"/>
    <path d="M 617.6194 251.689072 
L 617.6194 252.582345 
L 615.896829 252.582345 
L 615.896829 251.689072 
L 617.6194 251.689072 
" clip-path="url(#pf971bd00ad)" style="fill: #4d59c1"/>
    <path d="M 609.185888 251.213998 
L 609.413941 251.973447 
L 607.337114 252.599073 
L 607.109061 251.839623 
L 609.185888 251.213998 
" clip-path="url(#pf971bd00ad)" style="fill: #4d59c1"/>
    <path d="M 623.141368 249.58135 
L 623.584188 250.638556 
L 621.74427 251.408042 
L 621.30145 250.354181 
L 623.141368 249.58135 
" clip-path="url(#pf971bd00ad)" style="fill: #4d59c1"/>
    <path d="M 630.26856 248.601092 
L 630.520967 249.578004 
L 628.798397 250.022968 
L 628.545989 249.046055 
L 630.26856 248.601092 
" clip-path="url(#pf971bd00ad)" style="fill: #4d59c1"/>
    <path d="M 626.052911 247.741275 
L 626.491303 249.474291 
L 624.383479 250.00624 
L 623.945087 248.276569 
L 626.052911 247.741275 
" clip-path="url(#pf971bd00ad)" style="fill: #4d59c1"/>
    <path d="M 643.00407 114.871143 
L 643.185626 116.262909 
L 640.694762 116.584086 
L 640.513206 115.19232 
L 643.00407 114.871143 
" clip-path="url(#pf971bd00ad)" style="fill: #4d59c1"/>
    <path d="M 631.778577 115.081915 
L 631.902566 116.025372 
L 630.124643 116.256218 
L 630.000654 115.312761 
L 631.778577 115.081915 
" clip-path="url(#pf971bd00ad)" style="fill: #4d59c1"/>
    <path d="M 641.877092 111.237832 
L 641.998868 112.16456 
L 640.336078 112.378678 
L 640.216516 111.45195 
L 641.877092 111.237832 
" clip-path="url(#pf971bd00ad)" style="fill: #4d59c1"/>
    <path d="M 630.567463 108.283675 
L 630.833156 110.324485 
L 628.840464 110.582096 
L 628.576986 108.541286 
L 630.567463 108.283675 
" clip-path="url(#pf971bd00ad)" style="fill: #4d59c1"/>
    <path d="M 640.566344 107.631285 
L 640.750115 109.04647 
L 639.003189 109.27397 
L 638.821633 107.858785 
L 640.566344 107.631285 
" clip-path="url(#pf971bd00ad)" style="fill: #4d59c1"/>
    <path d="M 640.187733 102.39209 
L 640.437927 104.322496 
L 637.869569 104.657055 
L 637.617162 102.726649 
L 640.187733 102.39209 
" clip-path="url(#pf971bd00ad)" style="fill: #4d59c1"/>
    <path d="M 630.899579 101.65606 
L 631.129845 103.435914 
L 629.312068 103.670106 
L 629.081802 101.890252 
L 630.899579 101.65606 
" clip-path="url(#pf971bd00ad)" style="fill: #4d59c1"/>
    <path d="M 639.206886 97.169623 
L 639.696203 99.742382 
L 637.203125 100.217456 
L 636.711594 97.644697 
L 639.206886 97.169623 
" clip-path="url(#pf971bd00ad)" style="fill: #4d59c1"/>
    <path d="M 635.188293 92.275024 
L 639.523503 90.849802 
L 640.156736 92.776863 
L 635.821526 94.202084 
L 635.188293 92.275024 
" clip-path="url(#pf971bd00ad)" style="fill: #4d59c1"/>
    <path d="M 700.938242 236.456598 
L 699.158105 236.456598 
L 699.158105 231.943396 
L 700.938242 231.943396 
L 700.938242 236.456598 
" clip-path="url(#pf971bd00ad)" style="fill: #4d59c1"/>
    <path d="M 705.00776 228.721592 
L 708.68981 227.637621 
L 708.9865 228.651335 
L 712.396216 227.647658 
L 713.173365 230.280637 
L 706.01739 232.38836 
L 705.240241 229.75538 
L 705.306664 229.735306 
L 705.00776 228.721592 
" clip-path="url(#pf971bd00ad)" style="fill: #4d59c1"/>
    <path d="M 730.751115 229.745343 
L 729.710487 229.762071 
L 729.681704 227.594128 
L 730.722331 227.5774 
L 730.751115 229.745343 
" clip-path="url(#pf971bd00ad)" style="fill: #4d59c1"/>
    <path d="M 718.148451 227.343209 
L 720.955931 226.540267 
L 721.20391 227.416812 
L 718.398644 228.216408 
L 718.148451 227.343209 
" clip-path="url(#pf971bd00ad)" style="fill: #4d59c1"/>
    <path d="M 727.405608 225.90795 
L 729.692774 225.493097 
L 729.801265 226.095304 
L 727.514099 226.510157 
L 727.405608 225.90795 
" clip-path="url(#pf971bd00ad)" style="fill: #4d59c1"/>
    <path d="M 740.442236 225.161884 
L 740.462163 225.499788 
L 738.639957 225.600156 
L 738.62003 225.262251 
L 740.442236 225.161884 
" clip-path="url(#pf971bd00ad)" style="fill: #4d59c1"/>
    <path d="M 751.390966 222.267948 
L 749.843309 222.351588 
L 749.783529 221.250888 
L 751.328971 221.163903 
L 751.390966 222.267948 
" clip-path="url(#pf971bd00ad)" style="fill: #4d59c1"/>
    <path d="M 759.580927 219.872505 
L 759.642921 220.986587 
L 757.745437 221.093646 
L 757.683442 219.976218 
L 759.580927 219.872505 
" clip-path="url(#pf971bd00ad)" style="fill: #4d59c1"/>
    <path d="M 762.197994 218.805262 
L 764.930195 218.65471 
L 765.016545 220.273976 
L 762.286558 220.421182 
L 762.197994 218.805262 
" clip-path="url(#pf971bd00ad)" style="fill: #4d59c1"/>
    <path d="M 774.043436 217.567393 
L 774.134214 219.233497 
L 772.976239 219.297063 
L 772.885461 217.630959 
L 774.043436 217.567393 
" clip-path="url(#pf971bd00ad)" style="fill: #4d59c1"/>
    <path d="M 740.699072 217.423533 
L 739.952919 217.46368 
L 739.833358 215.325847 
L 740.57951 215.2857 
L 740.699072 217.423533 
" clip-path="url(#pf971bd00ad)" style="fill: #4d59c1"/>
    <path d="M 782.59208 215.161913 
L 782.685073 216.858128 
L 782.065124 216.894929 
L 781.972132 215.195369 
L 782.59208 215.161913 
" clip-path="url(#pf971bd00ad)" style="fill: #4d59c1"/>
    <path d="M 780.229634 214.409155 
L 780.369123 216.978569 
L 778.965383 217.055518 
L 778.825894 214.482758 
L 780.229634 214.409155 
" clip-path="url(#pf971bd00ad)" style="fill: #4d59c1"/>
    <path d="M 744.128714 216.112061 
L 742.955241 216.175627 
L 742.851178 214.282023 
L 744.024652 214.218457 
L 744.128714 216.112061 
" clip-path="url(#pf971bd00ad)" style="fill: #4d59c1"/>
    <path d="M 747.142106 215.218788 
L 745.92435 215.2857 
L 745.835786 213.689854 
L 747.053542 213.622942 
L 747.142106 215.218788 
" clip-path="url(#pf971bd00ad)" style="fill: #4d59c1"/>
    <path d="M 750.534109 214.144854 
L 749.24993 214.218457 
L 749.154724 212.505514 
L 750.438903 212.435257 
L 750.534109 214.144854 
" clip-path="url(#pf971bd00ad)" style="fill: #4d59c1"/>
    <path d="M 756.631744 213.151213 
L 755.604401 213.208088 
L 755.529121 211.839742 
L 756.55425 211.782867 
L 756.631744 213.151213 
" clip-path="url(#pf971bd00ad)" style="fill: #4d59c1"/>
    <path d="M 763.683656 210.785881 
L 763.801003 212.940441 
L 761.303497 213.074265 
L 761.18615 210.919704 
L 763.683656 210.785881 
" clip-path="url(#pf971bd00ad)" style="fill: #4d59c1"/>
    <path d="M 772.314223 209.61827 
L 774.548251 209.494483 
L 774.645671 211.274337 
L 772.411643 211.394778 
L 772.314223 209.61827 
" clip-path="url(#pf971bd00ad)" style="fill: #4d59c1"/>
    <path d="M 778.573487 207.681173 
L 778.646552 209.019409 
L 776.937266 209.113086 
L 776.864201 207.774849 
L 778.573487 207.681173 
" clip-path="url(#pf971bd00ad)" style="fill: #4d59c1"/>
    <path d="M 643.779005 245.543222 
L 644.281606 247.704473 
L 643.00407 247.998885 
L 642.501469 245.840979 
L 643.779005 245.543222 
" clip-path="url(#pf971bd00ad)" style="fill: #4d59c1"/>
    <path d="M 650.213183 243.743294 
L 650.253037 244.08789 
L 648.807229 244.255169 
L 648.767375 243.910574 
L 650.213183 243.743294 
" clip-path="url(#pf971bd00ad)" style="fill: #4d59c1"/>
    <path d="M 647.483197 243.274911 
L 647.580617 244.118 
L 645.153962 244.39903 
L 645.056542 243.552595 
L 647.483197 243.274911 
" clip-path="url(#pf971bd00ad)" style="fill: #4d59c1"/>
    <path d="M 653.811098 242.271234 
L 653.90409 243.077522 
L 652.037603 243.294985 
L 651.944611 242.485352 
L 653.811098 242.271234 
" clip-path="url(#pf971bd00ad)" style="fill: #4d59c1"/>
    <path d="M 672.611031 237.91193 
L 672.974144 239.430828 
L 670.361504 240.053108 
L 669.998392 238.53421 
L 672.611031 237.91193 
" clip-path="url(#pf971bd00ad)" style="fill: #4d59c1"/>
    <path d="M 680.063696 236.633914 
L 680.278464 237.975496 
L 678.228206 238.300018 
L 678.015652 236.961782 
L 680.063696 236.633914 
" clip-path="url(#pf971bd00ad)" style="fill: #4d59c1"/>
    <path d="M 683.821026 236.730936 
L 686.196756 236.198987 
L 686.508944 237.584062 
L 684.133214 238.119356 
L 683.821026 236.730936 
" clip-path="url(#pf971bd00ad)" style="fill: #4d59c1"/>
    <path d="M 654.796373 224.402435 
L 654.971287 225.921333 
L 651.109894 226.366296 
L 650.93498 224.847398 
L 654.796373 224.402435 
" clip-path="url(#pf971bd00ad)" style="fill: #4d59c1"/>
    <path d="M 693.766768 178.055968 
L 694.384502 183.174721 
L 686.19897 184.165016 
L 685.579022 179.042917 
L 693.766768 178.055968 
" clip-path="url(#pf971bd00ad)" style="fill: #4d59c1"/>
    <path d="M 652.963097 172.304897 
L 653.102585 173.388869 
L 652.055316 173.526038 
L 651.915827 172.438721 
L 652.963097 172.304897 
" clip-path="url(#pf971bd00ad)" style="fill: #4d59c1"/>
    <path d="M 652.139451 169.056329 
L 652.332078 170.538426 
L 650.979262 170.715742 
L 650.786636 169.233645 
L 652.139451 169.056329 
" clip-path="url(#pf971bd00ad)" style="fill: #4d59c1"/>
    <path d="M 651.236098 166.333018 
L 651.380015 167.450445 
L 649.626447 167.677946 
L 649.480316 166.560518 
L 651.236098 166.333018 
" clip-path="url(#pf971bd00ad)" style="fill: #4d59c1"/>
    <path d="M 651.949039 160.742536 
L 652.033175 161.394926 
L 650.217612 161.629118 
L 650.133476 160.976728 
L 651.949039 160.742536 
" clip-path="url(#pf971bd00ad)" style="fill: #4d59c1"/>
    <path d="M 651.05897 157.493968 
L 651.202887 158.601358 
L 647.248502 159.116579 
L 647.104585 158.009189 
L 651.05897 157.493968 
" clip-path="url(#pf971bd00ad)" style="fill: #4d59c1"/>
    <path d="M 693.824335 150.732529 
L 695.555762 160.387904 
L 693.089253 160.829522 
L 691.357826 151.174147 
L 693.824335 150.732529 
" clip-path="url(#pf971bd00ad)" style="fill: #4d59c1"/>
    <path d="M 648.707595 152.649553 
L 648.886937 154.031281 
L 647.403489 154.22198 
L 647.224147 152.843597 
L 648.707595 152.649553 
" clip-path="url(#pf971bd00ad)" style="fill: #4d59c1"/>
    <path d="M 648.849297 150.036646 
L 649.006498 151.237713 
L 646.608627 151.548853 
L 646.451425 150.347786 
L 648.849297 150.036646 
" clip-path="url(#pf971bd00ad)" style="fill: #4d59c1"/>
    <path d="M 648.149641 147.229696 
L 648.293558 148.330395 
L 646.238872 148.594697 
L 646.094955 147.497343 
L 648.149641 147.229696 
" clip-path="url(#pf971bd00ad)" style="fill: #4d59c1"/>
    <path d="M 648.847083 145.252452 
L 648.946718 146.011901 
L 645.838119 146.416717 
L 645.738485 145.657268 
L 648.847083 145.252452 
" clip-path="url(#pf971bd00ad)" style="fill: #4d59c1"/>
    <path d="M 647.932659 142.094214 
L 648.054435 143.044362 
L 644.852844 143.459215 
L 644.728855 142.509067 
L 647.932659 142.094214 
" clip-path="url(#pf971bd00ad)" style="fill: #4d59c1"/>
    <path d="M 749.212291 182.532368 
L 749.80567 184.60998 
L 748.2403 185.058289 
L 747.646921 182.980677 
L 749.212291 182.532368 
" clip-path="url(#pf971bd00ad)" style="fill: #4d59c1"/>
    <path d="M 718.013391 177.340011 
L 715.803718 177.805048 
L 715.090777 174.419311 
L 717.30045 173.954274 
L 718.013391 177.340011 
" clip-path="url(#pf971bd00ad)" style="fill: #4d59c1"/>
    <path d="M 711.459651 146.135688 
L 711.718701 147.169475 
L 706.630696 148.444145 
L 706.373861 147.407012 
L 711.459651 146.135688 
" clip-path="url(#pf971bd00ad)" style="fill: #4d59c1"/>
    <path d="M 708.944432 136.731232 
L 709.402751 138.56127 
L 705.167175 139.618477 
L 704.711071 137.788439 
L 708.944432 136.731232 
" clip-path="url(#pf971bd00ad)" style="fill: #4d59c1"/>
    <path d="M 711.827192 136.082188 
L 712.01539 136.838291 
L 709.94742 137.356858 
L 709.759221 136.600754 
L 711.827192 136.082188 
" clip-path="url(#pf971bd00ad)" style="fill: #4d59c1"/>
    <path d="M 708.789445 133.740274 
L 709.046281 134.760679 
L 706.865391 135.306011 
L 706.610769 134.285606 
L 708.789445 133.740274 
" clip-path="url(#pf971bd00ad)" style="fill: #4d59c1"/>
    <path d="M 701.199506 122.378649 
L 701.622399 124.071517 
L 699.372872 124.633577 
L 698.949979 122.944053 
L 701.199506 122.378649 
" clip-path="url(#pf971bd00ad)" style="fill: #4d59c1"/>
    <path d="M 701.890306 116.594122 
L 702.33534 118.370631 
L 700.225301 118.899234 
L 699.780267 117.122726 
L 701.890306 116.594122 
" clip-path="url(#pf971bd00ad)" style="fill: #4d59c1"/>
    <path d="M 688.665479 140.65561 
L 689.150367 142.599398 
L 685.895638 143.412377 
L 685.408536 141.471934 
L 688.665479 140.65561 
" clip-path="url(#pf971bd00ad)" style="fill: #4d59c1"/>
    <path d="M 691.75415 140.357853 
L 692.298819 142.539178 
L 689.991726 143.114619 
L 689.447057 140.93664 
L 691.75415 140.357853 
" clip-path="url(#pf971bd00ad)" style="fill: #4d59c1"/>
    <path d="M 646.493493 136.674357 
L 646.688334 138.173182 
L 644.270536 138.487667 
L 644.075695 136.985497 
L 646.493493 136.674357 
" clip-path="url(#pf971bd00ad)" style="fill: #4d59c1"/>
    <path d="M 645.997535 131.113986 
L 646.274297 133.245127 
L 643.58195 133.596414 
L 643.305188 131.465273 
L 645.997535 131.113986 
" clip-path="url(#pf971bd00ad)" style="fill: #4d59c1"/>
    <path d="M 644.259465 125.754349 
L 644.491946 127.54424 
L 642.587819 127.791814 
L 642.353124 126.001923 
L 644.259465 125.754349 
" clip-path="url(#pf971bd00ad)" style="fill: #4d59c1"/>
    <path d="M 688.47728 124.165194 
L 688.973239 126.149129 
L 686.736997 126.707843 
L 686.241038 124.723908 
L 688.47728 124.165194 
" clip-path="url(#pf971bd00ad)" style="fill: #4d59c1"/>
    <path d="M 643.761293 120.839677 
L 643.898567 121.903575 
L 641.66011 122.194641 
L 641.522836 121.130743 
L 643.761293 120.839677 
" clip-path="url(#pf971bd00ad)" style="fill: #4d59c1"/>
    <path d="M 686.5333 117.624564 
L 686.657289 118.578058 
L 684.345768 118.879161 
L 684.221778 117.925667 
L 686.5333 117.624564 
" clip-path="url(#pf971bd00ad)" style="fill: #4d59c1"/>
    <path d="M 687.075754 114.355922 
L 687.190888 115.25254 
L 684.396692 115.613864 
L 684.281559 114.717246 
L 687.075754 114.355922 
" clip-path="url(#pf971bd00ad)" style="fill: #4d59c1"/>
    <path d="M 687.323734 105.955144 
L 687.7267 107.561028 
L 684.385621 108.397425 
L 683.984869 106.791542 
L 687.323734 105.955144 
" clip-path="url(#pf971bd00ad)" style="fill: #4d59c1"/>
    <path d="M 701.409846 113.716914 
L 701.799527 115.282651 
L 699.102752 115.955115 
L 698.71307 114.392724 
L 701.409846 113.716914 
" clip-path="url(#pf971bd00ad)" style="fill: #4d59c1"/>
    <path d="M 700.836393 109.999963 
L 701.146368 111.244523 
L 698.310104 111.953788 
L 698.00013 110.709228 
L 700.836393 109.999963 
" clip-path="url(#pf971bd00ad)" style="fill: #4d59c1"/>
    <path d="M 697.570594 104.242202 
L 697.761007 105.008342 
L 695.637684 105.540291 
L 695.445057 104.770805 
L 697.570594 104.242202 
" clip-path="url(#pf971bd00ad)" style="fill: #4d59c1"/>
    <path d="M 696.399335 98.668448 
L 696.870938 100.555361 
L 695.026592 101.017052 
L 694.554988 99.130139 
L 696.399335 98.668448 
" clip-path="url(#pf971bd00ad)" style="fill: #4d59c1"/>
    <path d="M 695.728462 95.570431 
L 696.04065 96.814991 
L 693.678204 97.403814 
L 693.36823 96.1626 
L 695.728462 95.570431 
" clip-path="url(#pf971bd00ad)" style="fill: #4d59c1"/>
    <path d="M 695.854666 86.27638 
L 696.33734 88.20344 
L 695.274571 88.467742 
L 694.791897 86.540682 
L 695.854666 86.27638 
" clip-path="url(#pf971bd00ad)" style="fill: #4d59c1"/>
    <path d="M 686.11262 101.642678 
L 686.181258 101.920362 
L 684.350196 102.378708 
L 684.281559 102.097678 
L 686.11262 101.642678 
" clip-path="url(#pf971bd00ad)" style="fill: #4d59c1"/>
    <path d="M 685.419607 97.567748 
L 685.824787 99.19036 
L 683.617328 99.742382 
L 683.212148 98.119771 
L 685.419607 97.567748 
" clip-path="url(#pf971bd00ad)" style="fill: #4d59c1"/>
    <path d="M 695.026592 93.35565 
L 695.208148 94.081643 
L 693.013974 94.63032 
L 692.832418 93.904327 
L 695.026592 93.35565 
" clip-path="url(#pf971bd00ad)" style="fill: #4d59c1"/>
    <path d="M 694.047959 88.434286 
L 694.614769 90.699251 
L 692.449378 91.237891 
L 691.882568 88.976272 
L 694.047959 88.434286 
" clip-path="url(#pf971bd00ad)" style="fill: #4d59c1"/>
    <path d="M 683.282999 87.09605 
L 683.449057 87.758477 
L 681.270381 88.303808 
L 681.104323 87.641381 
L 683.282999 87.09605 
" clip-path="url(#pf971bd00ad)" style="fill: #4d59c1"/>
    <path d="M 679.915351 73.208503 
L 680.522015 75.634056 
L 678.265846 76.199461 
L 677.659182 73.773908 
L 679.915351 73.208503 
" clip-path="url(#pf971bd00ad)" style="fill: #4d59c1"/>
   </g>
   <g id="LineCollection_1">
    <path d="M 705.038757 223.636294 
L 712.595485 223.793537 
L 720.267346 223.087618 
L 779.82224 211.739374 
" clip-path="url(#pf971bd00ad)" style="fill: none; stroke: #4d59c1; stroke-width: 0.2"/>
    <path d="M 705.038757 223.636294 
L 704.553869 198.882269 
L 703.871926 187.350019 
" clip-path="url(#pf971bd00ad)" style="fill: none; stroke: #4d59c1; stroke-width: 0.2"/>
    <path d="M 655.363183 178.862255 
L 658.137452 182.907074 
L 665.97537 189.67855 
L 669.896543 195.85451 
L 672.389621 207.018746 
L 674.408881 210.936432 
L 677.617114 212.482095 
L 681.299164 211.769484 
L 704.553869 198.882269 
" clip-path="url(#pf971bd00ad)" style="fill: none; stroke: #4d59c1; stroke-width: 0.2"/>
    <path d="M 641.872664 172.104162 
L 642.636529 165.596988 
L 641.806241 159.180145 
L 639.7272 144.516422 
L 635.155081 120.167213 
L 633.07604 108.293712 
L 630.286273 94.158592 
" clip-path="url(#pf971bd00ad)" style="fill: none; stroke: #4d59c1; stroke-width: 0.2"/>
    <path d="M 703.871926 187.350019 
L 701.312425 170.347727 
L 699.069541 150.956684 
L 690.445616 111.676104 
L 682.488137 70.240964 
" clip-path="url(#pf971bd00ad)" style="fill: none; stroke: #4d59c1; stroke-width: 0.2"/>
    <path d="M 630.286273 94.158592 
L 629.216862 88.310499 
L 628.324579 81.539024 
L 629.216862 73.700305 
L 630.76009 68.949566 
L 632.779351 66.457101 
L 638.183972 63.636768 
L 655.493815 58.618382 
L 665.798242 56.808418 
L 676.932957 57.815441 
L 679.337471 59.033236 
L 681.270381 61.823458 
L 682.30658 66.132579 
L 682.488137 70.240964 
" clip-path="url(#pf971bd00ad)" style="fill: none; stroke: #4d59c1; stroke-width: 0.2"/>
    <path d="M 630.76009 68.949566 
L 628.606883 65.653856 
" clip-path="url(#pf971bd00ad)" style="fill: none; stroke: #4d59c1; stroke-width: 0.2"/>
    <path d="M 388.5817 318.162612 
L 391.112418 322.615593 
L 393.605496 337.346229 
L 394.258656 351.775761 
L 394.615126 372.565261 
L 395.150939 374.88041 
L 398.653647 374.167799 
L 409.166199 369.477281 
L 415.401108 368.289596 
L 419.85588 366.743934 
L 425.49741 361.872754 
L 444.14457 350.648297 
L 454.537561 345.124727 
" clip-path="url(#pf971bd00ad)" style="fill: none; stroke: #4d59c1; stroke-width: 0.2"/>
    <path d="M 50.949263 385.764813 
L 52.166735 386.211925 
L 56.610436 385.572918 
L 82.446783 377.714125 
L 114.154926 362.943343 
L 145.298474 348.858406 
L 190.441783 327.460008 
L 202.245157 317.637354 
L 206.56044 315.134853 
L 210.517039 313.803307 
L 217.057494 313.525623 
L 234.664027 316.178677 
L 241.693798 317.001692 
L 255.230813 317.991987 
L 293.089729 325.626625 
L 309.314663 332.946777 
L 318.221992 335.332183 
L 328.561845 335.967845 
L 337.469174 334.057513 
L 353.00995 327.991957 
L 358.235229 326.268978 
L 367.678371 323.328204 
L 388.5817 318.162612 
L 396.778303 316.262317 
L 407.051733 313.559079 
L 435.556072 307.011758 
L 440.931909 305.185066 
L 446.394097 303.107454 
L 458.837346 298.8619 
L 499.71851 285.215236 
L 510.266489 279.203209 
L 528.200708 273.027249 
L 558.60696 263.763308 
L 664.113311 229.8156 
L 672.985214 227.062179 
L 681.99882 225.750708 
L 705.038757 223.636294 
" clip-path="url(#pf971bd00ad)" style="fill: none; stroke: #4d59c1; stroke-width: 0.2"/>
    <path d="M 558.60696 263.763308 
L 561.514075 269.55118 
L 563.652897 273.76997 
L 566.444878 275.07475 
L 570.897436 274.42236 
L 572.856915 276.975046 
L 573.273167 277.808098 
L 562.822609 287.724429 
L 556.705047 293.187778 
L 546.371837 299.721716 
" clip-path="url(#pf971bd00ad)" style="fill: none; stroke: #4d59c1; stroke-width: 0.2"/>
    <path d="M 407.051733 313.559079 
L 409.070993 307.530325 
L 410.020842 302.247637 
L 407.591973 288.350054 
L 401.48661 269.271544 
" clip-path="url(#pf971bd00ad)" style="fill: none; stroke: #4d59c1; stroke-width: 0.2"/>
    <path d="M 358.235229 326.268978 
L 355.086777 324.01405 
L 350.574439 319.825371 
L 346.507135 315.014411 
L 343.385252 311.611946 
L 335.784243 309.949187 
L 332.638005 308.942164 
L 310.129452 297.41995 
L 304.665051 292.906748 
L 298.766049 288.018883 
" clip-path="url(#pf971bd00ad)" style="fill: none; stroke: #4d59c1; stroke-width: 0.2"/>
    <path d="M 785.555154 163.943481 
L 744.25049 174.860929 
L 703.871926 187.350019 
L 697.265048 189.123182 
L 689.002022 189.946197 
L 681.795123 189.009431 
L 669.422725 184.897701 
L 655.363183 178.862255 
L 647.310497 174.961296 
L 641.872664 172.104162 
L 623.409274 161.425037 
L 608.912175 155.387927 
" clip-path="url(#pf971bd00ad)" style="fill: none; stroke: #4d59c1; stroke-width: 0.2"/>
   </g>
  </g>
 </g>
 <defs>
  <clipPath id="pf971bd00ad">
   <rect x="7.2" y="7.2" width="837" height="490.343145"/>
  </clipPath>
 </defs>
</svg>
