<?xml version="1.0" encoding="utf-8" standalone="no"?>
<!DOCTYPE svg PUBLIC "-//W3C//DTD SVG 1.1//EN"
  "http://www.w3.org/Graphics/SVG/1.1/DTD/svg11.dtd">
<svg xmlns:xlink="http://www.w3.org/1999/xlink" width="601.942093pt" height="846pt" viewBox="0 0 601.942093 846" xmlns="http://www.w3.org/2000/svg" version="1.1">
 <metadata>
  <rdf:RDF xmlns:dc="http://purl.org/dc/elements/1.1/" xmlns:cc="http://creativecommons.org/ns#" xmlns:rdf="http://www.w3.org/1999/02/22-rdf-syntax-ns#">
   <cc:Work>
    <dc:type rdf:resource="http://purl.org/dc/dcmitype/StillImage"/>
    <dc:date>2025-03-16T14:30:04.491269</dc:date>
    <dc:format>image/svg+xml</dc:format>
    <dc:creator>
     <cc:Agent>
      <dc:title>Matplotlib v3.10.1, https://matplotlib.org/</dc:title>
     </cc:Agent>
    </dc:creator>
   </cc:Work>
  </rdf:RDF>
 </metadata>
 <defs>
  <style type="text/css">*{stroke-linejoin: round; stroke-linecap: butt}</style>
 </defs>
 <g id="figure_1">
  <g id="patch_1">
   <path d="M 0 846 
L 601.942093 846 
L 601.942093 0 
L 0 0 
z
" style="fill: #ffffff"/>
  </g>
  <g id="axes_1">
   <g id="PatchCollection_1">
    <path d="M 511.06516 750.808323 
L 539.152039 780.874081 
L 568.035634 757.097889 
L 495.872189 694.845574 
L 437.382072 540.578651 
L 445.055232 503.300788 
L 412.741486 360.022832 
L 318.287252 209.04549 
L 265.505598 171.164161 
L 281.746639 112.992174 
L 200.745512 45 
L 100.662373 133.345259 
L 127.152357 193.04672 
L 34.676657 203.891757 
L 33.906459 226.904946 
L 119.297025 255.862616 
L 173.711316 285.957854 
L 173.70901 332.447236 
L 192.488939 428.465871 
L 253.325393 429.601704 
L 250.619322 479.675463 
L 223.551688 479.675463 
L 240.43264 577.067501 
L 296.387328 561.694739 
L 303.018183 579.049573 
L 249.023581 613.076007 
L 312.018436 801 
L 381.478116 746.202564 
L 468.366418 771.334818 
L 511.06516 750.808323 
" clip-path="url(#p0b32c10621)" style="fill: #d1d4f2"/>
   </g>
   <g id="PatchCollection_2">
    <path d="M 375.098613 492.774824 
L 376.009476 494.730885 
L 372.831831 496.210069 
L 371.920968 494.255742 
L 375.098613 492.774824 
" clip-path="url(#p0b32c10621)" style="fill: #4d59c1"/>
    <path d="M 387.795358 489.539001 
L 389.522539 493.511815 
L 388.535578 493.941871 
L 387.505957 491.571362 
L 385.012036 492.656906 
L 384.314476 491.052867 
L 387.795358 489.539001 
" clip-path="url(#p0b32c10621)" style="fill: #4d59c1"/>
    <path d="M 347.08322 482.006088 
L 352.62911 485.510696 
L 352.249776 486.110693 
L 354.422013 487.482363 
L 355.403209 485.930347 
L 357.101565 487.002019 
L 355.585381 489.402008 
L 351.423081 486.773118 
L 350.733592 487.863864 
L 345.479409 484.544804 
L 347.08322 482.006088 
" clip-path="url(#p0b32c10621)" style="fill: #4d59c1"/>
    <path d="M 368.678755 484.595093 
L 370.480881 485.049426 
L 373.899502 483.729779 
L 374.442561 485.136131 
L 370.501635 486.656933 
L 368.299421 486.102023 
L 368.678755 484.595093 
" clip-path="url(#p0b32c10621)" style="fill: #4d59c1"/>
    <path d="M 308.654007 480.686441 
L 308.678219 481.336727 
L 307.796181 481.36794 
L 307.773121 480.734995 
L 307.555205 480.743666 
L 308.176668 479.392805 
L 308.97915 480.674302 
L 308.654007 480.686441 
" clip-path="url(#p0b32c10621)" style="fill: #4d59c1"/>
    <path d="M 372.84682 479.137893 
L 372.458262 477.920557 
L 376.173201 476.734436 
L 376.554841 477.927494 
L 377.750494 477.545993 
L 378.398475 479.573151 
L 377.319275 479.916502 
L 377.566015 480.686441 
L 373.717329 481.917649 
L 373.446376 481.069676 
L 370.410549 482.039036 
L 369.794851 480.112455 
L 372.84682 479.137893 
" clip-path="url(#p0b32c10621)" style="fill: #4d59c1"/>
    <path d="M 399.809531 469.335048 
L 401.598974 473.828091 
L 398.123857 475.211899 
L 396.334414 470.72059 
L 399.809531 469.335048 
" clip-path="url(#p0b32c10621)" style="fill: #4d59c1"/>
    <path d="M 359.163114 467.495172 
L 360.647015 471.044866 
L 361.1036 470.854116 
L 360.924886 470.425794 
L 364.268562 469.026378 
L 364.62253 469.872617 
L 365.313172 469.584757 
L 365.787052 470.715388 
L 360.355308 472.98532 
L 358.224579 467.887077 
L 359.163114 467.495172 
" clip-path="url(#p0b32c10621)" style="fill: #4d59c1"/>
   </g>
   <g id="LineCollection_1">
    <path d="M 522.456719 761.150472 
L 521.4502 761.925047 
" clip-path="url(#p0b32c10621)" style="fill: none; stroke: #4d59c1; stroke-width: 0.2"/>
    <path d="M 507.605032 741.983508 
L 503.039089 754.666683 
" clip-path="url(#p0b32c10621)" style="fill: none; stroke: #4d59c1; stroke-width: 0.2"/>
    <path d="M 507.605032 741.983508 
L 464.145316 767.379345 
" clip-path="url(#p0b32c10621)" style="fill: none; stroke: #4d59c1; stroke-width: 0.2"/>
    <path d="M 496.988285 725.341388 
L 503.142954 734.745391 
L 505.492752 738.071387 
L 506.652661 740.004904 
L 507.605032 741.983508 
L 515.636773 752.440107 
L 522.456719 761.150472 
L 530.82052 770.970658 
L 533.294841 773.693189 
L 535.274527 775.890289 
L 537.469824 778.364844 
L 538.614744 779.540561 
L 539.309998 780.119749 
L 539.738556 780.391275 
" clip-path="url(#p0b32c10621)" style="fill: none; stroke: #4d59c1; stroke-width: 0.2"/>
    <path d="M 495.457112 722.898046 
L 496.988285 725.341388 
" clip-path="url(#p0b32c10621)" style="fill: none; stroke: #4d59c1; stroke-width: 0.2"/>
    <path d="M 398.318713 554.30749 
L 394.825148 554.933499 
L 391.889631 556.563549 
L 372.321056 561.292429 
L 366.993081 562.435198 
L 358.622361 564.228254 
L 306.929131 576.297563 
L 304.156186 577.275593 
L 302.469244 577.612844 
" clip-path="url(#p0b32c10621)" style="fill: none; stroke: #4d59c1; stroke-width: 0.2"/>
    <path d="M 346.898742 507.193833 
L 331.803774 515.023277 
L 330.947101 516.712287 
L 335.09326 529.3209 
L 323.263565 534.686193 
L 318.013993 535.742257 
L 302.209936 541.719687 
" clip-path="url(#p0b32c10621)" style="fill: none; stroke: #4d59c1; stroke-width: 0.2"/>
    <path d="M 331.803774 515.023277 
L 328.706838 507.944697 
L 319.814966 511.414623 
L 322.224719 521.487987 
" clip-path="url(#p0b32c10621)" style="fill: none; stroke: #4d59c1; stroke-width: 0.2"/>
    <path d="M 295.841963 478.007262 
L 318.013993 535.742257 
" clip-path="url(#p0b32c10621)" style="fill: none; stroke: #4d59c1; stroke-width: 0.2"/>
    <path d="M 304.990952 477.317092 
L 307.819241 478.900322 
L 310.363893 478.921131 
L 313.493113 476.765649 
" clip-path="url(#p0b32c10621)" style="fill: none; stroke: #4d59c1; stroke-width: 0.2"/>
    <path d="M 412.197274 743.211248 
L 409.303265 742.368477 
L 405.856973 738.491038 
L 402.410681 711.13047 
L 404.564469 708.759961 
L 407.365086 705.09755 
L 410.16455 702.081957 
L 416.194696 700.790055 
L 437.732582 696.912616 
L 444.193947 693.250205 
L 446.133279 688.079131 
L 441.825702 680.969337 
L 438.163801 664.16768 
L 409.087656 591.788243 
L 405.856973 581.017772 
L 402.195071 566.58489 
L 398.318713 554.30749 
L 401.980615 547.414458 
L 408.44198 542.245118 
L 411.265657 540.890789 
L 417.4872 538.584441 
L 426.317964 532.338227 
L 428.040533 523.07642 
L 427.069714 520.260247 
L 423.732956 510.583991 
L 416.625915 496.367872 
L 407.795152 477.414201 
L 402.841899 469.231002 
L 401.384518 465.410788 
L 396.596143 452.862869 
L 378.368497 418.342218 
L 370.535072 402.466568 
L 339.950814 342.168579 
L 320.997936 306.63695 
L 307.38341 280.112216 
L 288.54929 244.447062 
L 287.096521 241.632624 
L 286.229471 241.046499 
L 284.83781 241.107193 
L 274.045807 244.837234 
L 260.907467 248.067855 
L 252.643975 250.91524 
L 249.459412 251.402521 
L 246.058087 251.650497 
L 242.903501 251.187493 
L 239.532154 249.888655 
L 229.461924 240.961529 
L 226.337316 237.821081 
L 189.401227 200.697552 
L 183.58669 196.821847 
L 181.762657 196.587744 
L 180.000885 197.081961 
L 178.847894 198.113748 
L 175.617211 204.143201 
L 172.386528 214.261651 
L 165.565429 233.111276 
L 152.785669 266.614012 
" clip-path="url(#p0b32c10621)" style="fill: none; stroke: #4d59c1; stroke-width: 0.2"/>
    <path d="M 315.876347 476.628656 
L 315.269873 472.860465 
L 314.757945 469.12002 
L 312.54766 462.162826 
L 310.787041 455.722393 
L 308.898441 447.596419 
L 308.560614 444.950188 
L 308.775071 443.42245 
L 309.733207 442.154825 
L 311.959634 441.133443 
L 319.011331 439.217267 
L 321.551372 439.049059 
L 323.309684 438.660622 
L 329.61309 436.277974 
L 331.968652 435.783756 
L 336.374233 435.114395 
L 353.089154 427.879746 
L 355.209506 427.69073 
L 357.327552 427.744487 
L 359.925242 426.877439 
L 362.925326 424.713287 
L 366.142173 422.609828 
L 368.76177 421.392493 
L 378.368497 418.342218 
L 384.534697 414.742234 
L 400.587801 407.812786 
L 416.064408 399.759644 
" clip-path="url(#p0b32c10621)" style="fill: none; stroke: #4d59c1; stroke-width: 0.2"/>
    <path d="M 377.93382 471.615384 
L 379.73364 473.836761 
L 381.450444 476.141375 
L 387.086268 487.012423 
L 389.89265 492.717599 
L 397.159956 508.457989 
L 403.685889 522.93249 
L 407.241716 531.159041 
L 409.530404 536.973466 
L 410.396301 539.106404 
L 411.265657 540.890789 
L 412.747251 544.272276 
L 414.942547 549.158959 
L 419.735534 559.1803 
L 423.849408 568.582569 
L 427.807629 578.199866 
L 436.497728 599.44948 
L 446.208224 622.089838 
L 454.063556 640.89611 
L 463.711791 663.723751 
L 467.485533 673.12602 
L 472.43302 684.385506 
L 477.010397 696.017823 
L 479.299086 700.781385 
L 480.845248 704.183681 
L 482.821475 707.688289 
L 486.132868 710.958795 
L 488.174816 713.15416 
L 490.432374 715.907905 
L 492.38093 718.196912 
L 494.112723 720.640253 
L 495.457112 722.898046 
" clip-path="url(#p0b32c10621)" style="fill: none; stroke: #4d59c1; stroke-width: 0.2"/>
    <path d="M 402.410681 711.13047 
L 403.305402 705.310844 
L 401.347622 699.113184 
L 398.738402 690.794725 
L 395.314017 684.923076 
L 393.194818 678.234667 
L 389.933004 661.597749 
L 379.169827 607.448865 
L 366.993081 562.435198 
L 361.202757 539.839926 
L 359.763823 534.221455 
L 350.244724 514.086865 
L 346.898742 507.193833 
L 341.74141 496.700818 
L 339.177156 492.077718 
L 332.181955 476.756979 
" clip-path="url(#p0b32c10621)" style="fill: none; stroke: #4d59c1; stroke-width: 0.2"/>
    <path d="M 361.202757 539.839926 
L 364.245502 538.891376 
L 374.759633 534.809314 
L 378.347744 532.83071 
L 379.831644 530.602397 
L 376.73932 524.170634 
L 364.454193 497.630293 
L 363.626345 495.840706 
L 362.017922 491.883499 
L 363.626345 490.274258 
L 367.337826 488.295654 
L 364.120979 480.996844 
L 361.480628 474.863346 
" clip-path="url(#p0b32c10621)" style="fill: none; stroke: #4d59c1; stroke-width: 0.2"/>
    <path d="M 364.454193 497.630293 
L 366.843192 494.481175 
L 369.119198 493.570775 
L 376.373822 492.004886 
L 382.145698 489.36906 
L 384.492036 488.236695 
L 387.086268 487.012423 
" clip-path="url(#p0b32c10621)" style="fill: none; stroke: #4d59c1; stroke-width: 0.2"/>
    <path d="M 423.632646 454.895229 
L 426.096589 459.721219 
L 427.127364 462.471495 
L 429.044789 466.770319 
L 433.683275 476.170854 
L 442.902455 493.755453 
" clip-path="url(#p0b32c10621)" style="fill: none; stroke: #4d59c1; stroke-width: 0.2"/>
    <path d="M 443.092497 512.836179 
L 435.744824 516.871824 
L 427.069714 520.260247 
" clip-path="url(#p0b32c10621)" style="fill: none; stroke: #4d59c1; stroke-width: 0.2"/>
    <path d="M 482.821475 707.688289 
L 481.742275 709.009671 
L 480.929416 710.752437 
L 479.787954 713.523523 
L 479.144585 714.607333 
L 478.185296 715.597502 
L 476.31399 717.036801 
L 465.947442 721.470885 
L 412.197274 743.211248 
L 406.288192 745.600832 
L 394.441929 749.952318 
" clip-path="url(#p0b32c10621)" style="fill: none; stroke: #4d59c1; stroke-width: 0.2"/>
    <path d="M 370.600945 754.783672 
L 365.796276 755.296163 
L 362.967987 758.249329 
L 359.607291 763.456676 
" clip-path="url(#p0b32c10621)" style="fill: none; stroke: #4d59c1; stroke-width: 0.2"/>
    <path d="M 323.282314 792.113815 
L 321.741615 791.831834 
L 316.104639 789.874039 
L 312.164866 789.825485 
L 308.58211 790.748874 
" clip-path="url(#p0b32c10621)" style="fill: none; stroke: #4d59c1; stroke-width: 0.2"/>
    <path d="M 250.657466 478.96964 
L 251.411427 478.983558 
L 295.841963 478.007262 
L 304.990952 477.317092 
L 313.493113 476.765649 
L 315.876347 476.628656 
L 332.181955 476.756979 
L 347.713907 475.832706 
L 356.821388 475.19109 
L 361.480628 474.863346 
L 376.396882 471.922319 
L 377.93382 471.615384 
L 396.57539 467.205578 
L 401.384518 465.410788 
L 408.790184 462.648373 
L 423.632646 454.895229 
L 433.194059 450.708783 
" clip-path="url(#p0b32c10621)" style="fill: none; stroke: #4d59c1; stroke-width: 0.5"/>
    <path d="M 42.719927 228.639042 
L 46.15469 228.678926 
L 50.11291 227.751185 
L 62.327704 228.689331 
L 100.019003 226.105528 
L 114.018629 224.511893 
L 126.208057 222.779531 
L 131.909601 222.668549 
L 132.325831 222.659879 
L 138.357131 223.089934 
L 146.756675 225.45871 
L 156.899544 229.54424 
L 162.341664 231.802033 
L 165.565429 233.111276 
L 171.955309 236.223978 
L 193.924413 249.574784 
L 205.452025 256.041228 
L 214.358885 262.068946 
L 225.863437 270.602433 
L 235.264931 278.518582 
L 239.369582 283.811043 
L 250.999809 295.008102 
L 263.276865 307.713824 
L 268.573709 312.168717 
L 276.845271 319.12591 
L 283.737856 327.30911 
L 292.351857 340.659915 
L 301.613839 358.103188 
L 310.444603 374.469587 
L 313.244067 382.22273 
L 315.829074 393.421523 
L 320.136651 405.265399 
L 332.843773 427.447956 
L 336.374233 435.114395 
L 341.458927 444.892963 
L 345.982113 454.584826 
L 352.01226 463.199816 
L 356.821388 475.19109 
" clip-path="url(#p0b32c10621)" style="fill: none; stroke: #4d59c1; stroke-width: 0.2"/>
    <path d="M 251.411427 478.983558 
L 254.726278 431.037535 
L 250.600874 426.804607 
L 247.182254 425.682647 
L 191.794353 424.914569 
" clip-path="url(#p0b32c10621)" style="fill: none; stroke: #4d59c1; stroke-width: 0.2"/>
    <path d="M 226.337316 237.821081 
L 222.946368 240.231474 
L 213.215118 247.910052 
L 208.389847 252.855694 
L 205.452025 256.041228 
L 202.390832 259.904794 
L 197.01789 266.315748 
L 192.288318 273.326698 
L 184.623229 284.738785 
L 175.33934 299.917328 
" clip-path="url(#p0b32c10621)" style="fill: none; stroke: #4d59c1; stroke-width: 0.2"/>
    <path d="M 42.719927 228.639042 
L 40.14818 229.02164 
" clip-path="url(#p0b32c10621)" style="fill: none; stroke: #4d59c1; stroke-width: 0.2"/>
    <path d="M 121.586866 176.548529 
L 121.034583 176.88321 
L 122.6211 181.31556 
L 125.375597 185.328258 
L 127.381803 189.106853 
L 129.575946 198.951317 
L 130.836166 206.836252 
L 131.44264 216.401526 
L 131.909601 222.668549 
" clip-path="url(#p0b32c10621)" style="fill: none; stroke: #4d59c1; stroke-width: 0.2"/>
    <path d="M 122.829791 175.795932 
L 121.586866 176.548529 
" clip-path="url(#p0b32c10621)" style="fill: none; stroke: #4d59c1; stroke-width: 0.2"/>
    <path d="M 376.396882 471.922319 
L 376.23431 468.337942 
L 374.277683 466.381882 
L 370.853297 459.532202 
L 359.864133 437.576812 
L 355.209506 427.69073 
L 352.099887 420.723132 
L 336.281994 384.523876 
L 330.41096 371.96902 
L 313.940474 332.346659 
L 310.353516 323.379648 
L 302.852152 314.738647 
L 283.749386 296.754336 
L 280.510632 293.705795 
L 267.628256 279.685629 
L 246.918218 256.859722 
L 239.532154 249.888655 
" clip-path="url(#p0b32c10621)" style="fill: none; stroke: #4d59c1; stroke-width: 0.2"/>
    <path d="M 423.632646 454.895229 
L 400.587801 407.812786 
L 377.587922 363.033223 
L 364.719382 337.047793 
L 344.758789 300.678596 
L 325.102586 266.742335 
L 303.418271 230.478918 
L 303.100046 230.012446 
L 291.387956 212.805011 
L 281.792759 199.027617 
" clip-path="url(#p0b32c10621)" style="fill: none; stroke: #4d59c1; stroke-width: 0.2"/>
    <path d="M 307.38341 280.112216 
L 301.384394 282.945729 
L 287.685699 291.749735 
L 285.240204 294.683826 
L 283.749386 296.754336 
L 282.304687 298.760686 
L 278.716577 302.346796 
L 270.726344 310.172772 
L 268.573709 312.168717 
" clip-path="url(#p0b32c10621)" style="fill: none; stroke: #4d59c1; stroke-width: 0.2"/>
    <path d="M 286.229471 241.046499 
L 303.100046 230.012446 
" clip-path="url(#p0b32c10621)" style="fill: none; stroke: #4d59c1; stroke-width: 0.2"/>
    <path d="M 281.792759 199.027617 
L 280.010234 197.076759 
" clip-path="url(#p0b32c10621)" style="fill: none; stroke: #4d59c1; stroke-width: 0.2"/>
    <path d="M 226.710886 125.944137 
L 226.203569 127.154536 
L 226.017938 127.849909 
L 226.233547 128.888632 
" clip-path="url(#p0b32c10621)" style="fill: none; stroke: #4d59c1; stroke-width: 0.2"/>
    <path d="M 249.095067 119.756882 
L 226.710886 125.944137 
L 225.213149 126.566678 
L 224.595146 126.906561 
L 224.184681 127.771875 
" clip-path="url(#p0b32c10621)" style="fill: none; stroke: #4d59c1; stroke-width: 0.2"/>
    <path d="M 217.518083 116.267881 
L 215.514183 117.476546 
L 214.245892 118.990412 
L 213.627889 119.732605 
L 212.69973 120.258036 
L 211.030198 120.722774 
L 210.381064 121.185778 
L 210.009801 122.051092 
L 210.040932 123.164381 
L 210.247317 124.071314 
" clip-path="url(#p0b32c10621)" style="fill: none; stroke: #4d59c1; stroke-width: 0.2"/>
    <path d="M 201.590655 113.685812 
L 202.717128 117.07597 
L 203.390475 120.140118 
L 203.983113 121.787509 
L 205.831359 123.025654 
" clip-path="url(#p0b32c10621)" style="fill: none; stroke: #4d59c1; stroke-width: 0.2"/>
    <path d="M 224.184681 127.771875 
L 222.938297 125.605989 
L 217.518083 116.267881 
L 211.762348 106.751162 
L 210.235787 104.415334 
L 204.267902 95.285318 
L 202.526885 92.620013 
" clip-path="url(#p0b32c10621)" style="fill: none; stroke: #4d59c1; stroke-width: 0.2"/>
    <path d="M 123.977018 171.325432 
L 124.20877 173.338718 
L 123.88132 175.157784 
L 122.829791 175.795932 
" clip-path="url(#p0b32c10621)" style="fill: none; stroke: #4d59c1; stroke-width: 0.2"/>
    <path d="M 134.36778 145.638267 
L 148.792859 158.39948 
L 161.783616 166.652043 
L 167.24995 172.553172 
L 172.963024 176.390727 
L 179.77144 187.877379 
L 183.58669 196.821847 
" clip-path="url(#p0b32c10621)" style="fill: none; stroke: #4d59c1; stroke-width: 0.2"/>
    <path d="M 200.507996 121.751093 
L 195.834921 122.781146 
L 184.479105 121.204853 
L 179.410554 120.674219 
L 171.279656 122.826233 
L 159.942289 126.83026 
L 154.532452 130.114638 
L 144.930337 136.180507 
L 134.36778 145.638267 
L 122.871299 158.864218 
L 121.797864 161.777499 
L 121.318219 165.287309 
L 121.612232 167.961286 
L 123.977018 171.325432 
" clip-path="url(#p0b32c10621)" style="fill: none; stroke: #4d59c1; stroke-width: 0.2"/>
    <path d="M 110.462329 124.694655 
L 134.36778 145.638267 
" clip-path="url(#p0b32c10621)" style="fill: none; stroke: #4d59c1; stroke-width: 0.2"/>
    <path d="M 169.682763 115.709502 
L 168.043208 116.827994 
L 158.271604 123.998482 
L 156.354178 125.730844 
L 154.962517 128.07881 
L 154.532452 130.114638 
" clip-path="url(#p0b32c10621)" style="fill: none; stroke: #4d59c1; stroke-width: 0.2"/>
    <path d="M 196.141616 119.408329 
L 197.753499 121.067859 
" clip-path="url(#p0b32c10621)" style="fill: none; stroke: #4d59c1; stroke-width: 0.2"/>
    <path d="M 202.496907 122.234906 
L 201.131765 121.100807 
L 200.516067 120.485203 
L 199.708973 119.169024 
L 199.093275 118.310646 
L 197.951813 117.712383 
L 197.504453 117.684638 
L 196.77115 118.02452 
L 196.314565 118.686945 
L 196.141616 119.408329 
L 196.749243 120.819883 
" clip-path="url(#p0b32c10621)" style="fill: none; stroke: #4d59c1; stroke-width: 0.2"/>
    <path d="M 202.040322 101.29743 
L 202.649102 106.223997 
L 202.525732 109.407797 
L 201.590655 113.685812 
" clip-path="url(#p0b32c10621)" style="fill: none; stroke: #4d59c1; stroke-width: 0.2"/>
    <path d="M 204.175663 107.611273 
L 205.525816 105.946541 
L 207.195348 105.265041 
L 210.235787 104.415334 
" clip-path="url(#p0b32c10621)" style="fill: none; stroke: #4d59c1; stroke-width: 0.2"/>
    <path d="M 268.98648 185.886637 
L 266.93646 179.02135 
L 265.747297 171.337628 
" clip-path="url(#p0b32c10621)" style="fill: none; stroke: #4d59c1; stroke-width: 0.2"/>
    <path d="M 265.643826 170.669057 
L 265.394911 169.060703 
L 249.095067 119.756882 
L 244.476182 105.780068 
L 236.934463 93.289374 
L 230.658729 85.640276 
L 223.668141 79.312559 
L 207.868695 70.838032 
L 203.574954 66.986604 
L 196.735407 59.569875 
L 195.15235 57.85312 
L 194.594302 57.499365 
L 189.929989 54.547065 
" clip-path="url(#p0b32c10621)" style="fill: none; stroke: #4d59c1; stroke-width: 0.2"/>
    <path d="M 192.734664 52.071326 
L 194.594302 57.499365 
" clip-path="url(#p0b32c10621)" style="fill: none; stroke: #4d59c1; stroke-width: 0.2"/>
    <path d="M 204.267902 95.285318 
L 202.502672 95.897454 
L 201.383117 97.37317 
L 201.325467 99.868534 
L 202.040322 101.29743 
L 204.229853 106.133824 
L 204.175663 107.611273 
L 203.449278 109.941899 
L 201.590655 113.685812 
L 200.087154 115.849964 
L 197.951813 117.712383 
" clip-path="url(#p0b32c10621)" style="fill: none; stroke: #4d59c1; stroke-width: 0.2"/>
    <path d="M 196.735407 59.569875 
L 198.041747 67.720127 
L 199.072521 70.203353 
L 200.385779 74.327033 
L 201.369281 77.980774 
L 201.369281 82.57266 
L 200.948439 84.024098 
L 198.650526 86.085939 
L 189.932756 90.818287 
L 186.838126 95.878379 
L 179.947848 101.26795 
L 176.620314 103.047133 
L 171.276197 103.610714 
L 162.557274 106.093939 
L 154.96367 109.654039 
L 146.761287 112.745932 
L 140.273403 114.464421 
" clip-path="url(#p0b32c10621)" style="fill: none; stroke: #4d59c1; stroke-width: 0.2"/>
    <path d="M 280.010234 197.076759 
L 268.98648 185.886637 
L 267.145152 184.036356 
L 263.902939 180.491864 
L 261.767599 177.112111 
L 251.844952 161.347443 
L 244.014985 151.390263 
L 228.564896 131.016368 
L 226.233547 128.888632 
L 224.184681 127.771875 
L 222.889871 127.066098 
L 210.247317 124.071314 
L 205.831359 123.025654 
L 202.496907 122.234906 
L 201.848925 122.082305 
L 200.507996 121.751093 
L 197.753499 121.067859 
L 196.749243 120.819883 
L 188.505352 118.777118 
L 181.518223 116.215858 
L 177.97162 115.709502 
L 169.682763 115.709502 
L 156.897238 115.709502 
L 146.663283 115.000257 
L 140.273403 114.464421 
L 128.526724 113.481189 
L 123.743577 112.971049 
" clip-path="url(#p0b32c10621)" style="fill: none; stroke: #4d59c1; stroke-width: 0.2"/>
   </g>
  </g>
 </g>
 <defs>
  <clipPath id="p0b32c10621">
   <rect x="7.2" y="7.2" width="587.542093" height="831.6"/>
  </clipPath>
 </defs>
</svg>
