<?xml version="1.0" encoding="utf-8" standalone="no"?>
<!DOCTYPE svg PUBLIC "-//W3C//DTD SVG 1.1//EN"
  "http://www.w3.org/Graphics/SVG/1.1/DTD/svg11.dtd">
<svg xmlns:xlink="http://www.w3.org/1999/xlink" width="851.4pt" height="460.301283pt" viewBox="0 0 851.4 460.301283" xmlns="http://www.w3.org/2000/svg" version="1.1">
 <metadata>
  <rdf:RDF xmlns:dc="http://purl.org/dc/elements/1.1/" xmlns:cc="http://creativecommons.org/ns#" xmlns:rdf="http://www.w3.org/1999/02/22-rdf-syntax-ns#">
   <cc:Work>
    <dc:type rdf:resource="http://purl.org/dc/dcmitype/StillImage"/>
    <dc:date>2025-03-16T14:38:37.440789</dc:date>
    <dc:format>image/svg+xml</dc:format>
    <dc:creator>
     <cc:Agent>
      <dc:title>Matplotlib v3.10.1, https://matplotlib.org/</dc:title>
     </cc:Agent>
    </dc:creator>
   </cc:Work>
  </rdf:RDF>
 </metadata>
 <defs>
  <style type="text/css">*{stroke-linejoin: round; stroke-linecap: butt}</style>
 </defs>
 <g id="figure_1">
  <g id="patch_1">
   <path d="M 0 460.301283 
L 851.4 460.301283 
L 851.4 0 
L 0 0 
z
" style="fill: #ffffff"/>
  </g>
  <g id="axes_1">
   <g id="PatchCollection_1">
    <path d="M 45.245455 154.082402 
L 67.56864 183.418607 
L 77.954696 209.471681 
L 84.175392 214.223841 
L 91.920907 241.568477 
L 93.269618 254.244189 
L 84.702625 257.413939 
L 83.52893 270.206319 
L 107.646021 269.97134 
L 107.176761 254.538324 
L 108.11528 248.082157 
L 111.167107 238.165392 
L 119.557991 233.824035 
L 151.127446 227.427023 
L 155.527984 238.341215 
L 185.277282 230.71344 
L 183.634327 218.80182 
L 206.871967 213.167258 
L 214.675456 211.818183 
L 214.206196 230.478462 
L 212.563241 244.151601 
L 215.144715 247.027217 
L 225.825016 249.490386 
L 258.684115 253.774232 
L 260.972438 246.84975 
L 287.613029 252.425157 
L 286.087115 262.928547 
L 303.515345 266.744078 
L 326.281537 270.263831 
L 331.093361 293.562888 
L 329.392432 295.439432 
L 322.350259 294.560315 
L 320.64933 297.493443 
L 320.883413 304.536235 
L 332.443165 308.760925 
L 332.678342 312.811435 
L 340.423857 317.154435 
L 337.900357 325.487147 
L 337.431098 336.697117 
L 324.580609 339.572732 
L 324.580609 349.372829 
L 313.079924 363.81006 
L 302.692774 359.174569 
L 300.228341 361.521071 
L 303.573319 379.773833 
L 291.134115 387.99152 
L 289.96042 406.538417 
L 297.001499 408.884919 
L 302.751841 430.601565 
L 308.620319 432.833043 
L 311.084751 427.901773 
L 324.932827 431.071523 
L 328.100601 420.272355 
L 331.26947 399.142334 
L 341.831635 376.839062 
L 342.066812 369.914581 
L 341.010158 354.655745 
L 356.267106 350.547723 
L 372.813696 360.406975 
L 377.390343 358.410477 
L 376.451824 346.673037 
L 383.023644 345.029828 
L 381.732907 332.940741 
L 391.356554 333.292388 
L 408.255363 331.76749 
L 408.959799 349.13785 
L 435.365213 350.312744 
L 435.951514 344.794849 
L 461.887668 343.210796 
L 465.995056 334.289816 
L 467.168751 329.478501 
L 494.219534 329.654324 
L 497.681553 322.84651 
L 508.067609 323.022334 
L 510.88426 307.998476 
L 498.738207 302.952182 
L 502.376335 270.263831 
L 505.779286 252.835959 
L 511.705737 247.438019 
L 510.767219 234.762307 
L 505.520045 213.254348 
L 486.749668 183.152407 
L 488.875008 168.633015 
L 504.457922 159.426116 
L 515.989234 158.773763 
L 532.789596 175.007022 
L 549.434633 170.402751 
L 558.942333 172.034457 
L 569.62154 183.770254 
L 579.362228 199.495761 
L 592.287098 203.339226 
L 618.559063 177.197419 
L 632.876398 175.789189 
L 645.550778 176.729104 
L 646.724474 139.176855 
L 623.370887 138.706898 
L 621.61089 111.600527 
L 633.228616 116.060195 
L 652.122598 117.115135 
L 688.386836 119.579948 
L 695.663092 128.615953 
L 710.449686 134.717187 
L 710.332645 141.641668 
L 731.574017 143.518213 
L 763.494597 151.264299 
L 778.282285 152.789196 
L 787.083361 143.166566 
L 796.471831 134.952166 
L 806.154545 133.427268 
L 805.802327 90.830368 
L 803.514004 88.835513 
L 791.073707 83.790862 
L 782.858932 76.749713 
L 717.725942 87.897241 
L 685.335009 86.958969 
L 653.765553 88.953824 
L 622.08015 85.432428 
L 616.916108 70.648479 
L 616.211672 59.852598 
L 613.864281 49.996632 
L 598.139168 47.885108 
L 585.229611 27.46824 
L 568.095626 41.313917 
L 579.362228 71.351772 
L 587.107743 76.04642 
L 592.270691 82.617611 
L 597.199555 94.5851 
L 598.139168 103.269458 
L 595.733803 110.662254 
L 562.638434 108.608244 
L 535.880802 112.538799 
L 526.08214 122.278097 
L 493.574166 124.74291 
L 466.113191 126.15114 
L 454.611413 125.799493 
L 449.448465 131.256589 
L 427.736739 150.911009 
L 401.214283 177.491553 
L 397.400047 179.486409 
L 394.407287 177.432398 
L 391.590637 158.422116 
L 378.56732 134.789488 
L 369.880005 128.497642 
L 358.613403 117.115135 
L 335.376857 114.533654 
L 310.849574 115.47357 
L 290.312638 105.029335 
L 268.072585 99.338903 
L 262.498351 89.599605 
L 235.506636 80.622756 
L 222.480038 82.617611 
L 213.20861 78.157943 
L 206.225504 77.512162 
L 205.522162 67.95033 
L 177.004533 76.984692 
L 173.131229 88.778001 
L 172.19271 97.049913 
L 171.781424 105.61596 
L 168.545831 112.351473 
L 170.755398 124.010039 
L 171.928 132.224439 
L 165.209605 132.400263 
L 154.237247 132.51693 
L 153.503277 146.218005 
L 99.079028 153.494133 
L 96.380513 136.830353 
L 81.006524 139.822636 
L 68.625294 144.633952 
L 62.111448 150.442694 
L 45.245455 154.082402 
" clip-path="url(#p045b3aefbd)" style="fill: #f29888"/>
   </g>
   <g id="PatchCollection_2">
    <path d="M 316.481781 243.537041 
L 316.493814 242.676 
L 317.727671 242.694075 
L 317.715638 243.553473 
L 318.478048 243.564976 
L 318.457265 245.032361 
L 317.627037 245.020859 
L 317.617192 245.729082 
L 316.267388 245.711006 
L 316.277233 245.002783 
L 314.232837 244.973206 
L 314.252526 243.50582 
L 316.481781 243.537041 
" clip-path="url(#p045b3aefbd)" style="fill: #f29888"/>
    <path d="M 313.079924 240.483959 
L 314.066572 241.402513 
L 312.481591 243.104877 
L 311.494943 242.18468 
L 313.079924 240.483959 
" clip-path="url(#p045b3aefbd)" style="fill: #f29888"/>
    <path d="M 319.3575 234.468172 
L 319.015126 236.183682 
L 317.54828 235.891191 
L 317.890654 234.175681 
L 319.3575 234.468172 
" clip-path="url(#p045b3aefbd)" style="fill: #f29888"/>
    <path d="M 310.614398 232.414161 
L 313.137898 232.769095 
L 312.668638 236.113024 
L 310.145138 235.759734 
L 310.614398 232.414161 
" clip-path="url(#p045b3aefbd)" style="fill: #f29888"/>
    <path d="M 312.903815 230.156393 
L 313.043827 228.876333 
L 315.185575 229.111312 
L 315.045563 230.389728 
L 312.903815 230.156393 
" clip-path="url(#p045b3aefbd)" style="fill: #f29888"/>
    <path d="M 314.076417 225.256344 
L 314.01188 227.20026 
L 312.251884 227.141105 
L 312.31642 225.197189 
L 314.076417 225.256344 
" clip-path="url(#p045b3aefbd)" style="fill: #f29888"/>
    <path d="M 341.356907 180.577499 
L 341.122824 182.072819 
L 339.773019 181.896996 
L 340.036636 180.166697 
L 341.356907 180.577499 
" clip-path="url(#p045b3aefbd)" style="fill: #f29888"/>
    <path d="M 317.402799 168.314232 
L 316.886504 174.716174 
L 315.593579 174.611008 
L 315.348558 177.655874 
L 313.314007 177.491553 
L 314.076417 168.044746 
L 317.402799 168.314232 
" clip-path="url(#p045b3aefbd)" style="fill: #f29888"/>
    <path d="M 315.38028 163.524279 
L 317.081208 163.465124 
L 317.128244 164.817484 
L 315.426221 164.87664 
L 315.38028 163.524279 
" clip-path="url(#p045b3aefbd)" style="fill: #f29888"/>
    <path d="M 309.015197 162.696102 
L 310.482043 160.347957 
L 311.906229 161.238576 
L 310.439383 163.585078 
L 309.015197 162.696102 
" clip-path="url(#p045b3aefbd)" style="fill: #f29888"/>
   </g>
   <g id="LineCollection_1">
    <path d="M 311.859193 181.591359 
L 254.864408 200.738027 
L 249.047342 210.843761 
L 243.13511 212.52312 
L 236.768933 212.595421 
L 235.297712 212.306216 
L 218.699711 209.049377 
L 208.774163 212.606924 
L 208.683878 212.854013 
" clip-path="url(#p045b3aefbd)" style="fill: none; stroke: #f29888; stroke-width: 0.2"/>
    <path d="M 308.320605 234.754091 
L 309.089578 236.551761 
L 309.470236 237.930413 
L 309.323661 239.954846 
L 309.294127 243.300419 
" clip-path="url(#p045b3aefbd)" style="fill: none; stroke: #f29888; stroke-width: 0.2"/>
    <path d="M 235.297712 212.306216 
L 228.025832 247.748585 
" clip-path="url(#p045b3aefbd)" style="fill: none; stroke: #f29888; stroke-width: 0.2"/>
    <path d="M 311.859193 181.591359 
L 312.063742 187.309725 
L 313.059141 197.862412 
L 312.007956 208.669795 
L 310.409849 224.779814 
L 308.320605 234.754091 
L 306.566078 243.136098 
L 303.39721 255.593264 
L 301.342005 266.268273 
" clip-path="url(#p045b3aefbd)" style="fill: none; stroke: #f29888; stroke-width: 0.2"/>
    <path d="M 261.861734 220.757239 
L 264.578844 223.419237 
L 268.405114 224.582629 
L 282.655724 222.975571 
L 298.101907 219.667791 
L 300.756668 221.26499 
L 304.394796 223.378157 
L 307.211447 224.493895 
L 310.409849 224.779814 
" clip-path="url(#p045b3aefbd)" style="fill: none; stroke: #f29888; stroke-width: 0.2"/>
    <path d="M 381.627898 206.806397 
L 381.216612 205.633146 
L 380.454202 203.109177 
L 379.397548 201.760103 
L 377.168293 199.354445 
L 375.642379 197.357947 
L 373.177947 197.0063 
L 371.534992 197.476258 
L 370.185187 198.41453 
L 368.6013 199.530269 
L 366.958345 200.585209 
L 365.960758 200.996011 
L 363.671341 199.941071 
L 361.501153 198.884487 
L 358.625435 196.771321 
L 357.510807 195.716381 
L 352.698984 190.84591 
L 347.065683 184.626365 
L 345.07051 181.691595 
L 342.782187 177.994375 
L 342.019777 175.061247 
L 341.432382 168.782547 
L 341.02219 164.265366 
L 340.317754 162.973804 
L 338.733867 162.270511 
L 335.505931 161.09726 
L 330.929284 159.159917 
L 328.464852 157.92751 
L 326.528746 157.635019 
L 325.413025 157.751687 
L 324.064314 157.224217 
L 323.183769 156.392753 
" clip-path="url(#p045b3aefbd)" style="fill: none; stroke: #f29888; stroke-width: 0.2"/>
    <path d="M 311.859193 181.591359 
L 311.213825 176.572999 
L 311.154757 172.524133 
L 311.859193 168.767758 
L 312.973821 164.485556 
L 315.203077 161.258294 
L 317.433426 159.966732 
L 320.191009 158.558502 
L 324.064314 157.224217 
" clip-path="url(#p045b3aefbd)" style="fill: none; stroke: #f29888; stroke-width: 0.2"/>
    <path d="M 323.183769 156.392753 
L 324.469036 154.031462 
" clip-path="url(#p045b3aefbd)" style="fill: none; stroke: #f29888; stroke-width: 0.2"/>
    <path d="M 224.702731 116.852222 
L 227.054497 122.509789 
L 229.754107 133.775628 
L 231.631144 142.458343 
L 233.274099 148.677888 
L 234.56593 152.199285 
L 236.208885 154.897433 
L 239.142577 158.300518 
L 240.902573 167.806481 
L 241.371832 172.852775 
L 240.902573 178.602362 
L 239.259618 185.996801 
L 241.841092 188.226636 
L 242.780705 188.69495 
L 244.775878 188.578282 
L 247.494082 190.114683 
" clip-path="url(#p045b3aefbd)" style="fill: none; stroke: #f29888; stroke-width: 0.2"/>
    <path d="M 325.821029 149.241509 
L 324.469036 154.031462 
" clip-path="url(#p045b3aefbd)" style="fill: none; stroke: #f29888; stroke-width: 0.2"/>
    <path d="M 381.627898 206.806397 
L 382.371712 206.960858 
L 383.241319 206.84912 
" clip-path="url(#p045b3aefbd)" style="fill: none; stroke: #f29888; stroke-width: 0.2"/>
    <path d="M 383.241319 206.84912 
L 385.735285 205.705447 
" clip-path="url(#p045b3aefbd)" style="fill: none; stroke: #f29888; stroke-width: 0.2"/>
    <path d="M 385.735285 205.705447 
L 388.503807 204.261066 
L 389.064949 203.833832 
L 389.959714 203.153544 
" clip-path="url(#p045b3aefbd)" style="fill: none; stroke: #f29888; stroke-width: 0.2"/>
    <path d="M 385.95843 197.611001 
L 385.804198 198.863126 
L 386.45066 199.830976 
L 387.535754 201.09296 
L 388.210656 202.001654 
L 388.767423 202.852837 
L 388.915092 203.263639 
L 389.064949 203.833832 
" clip-path="url(#p045b3aefbd)" style="fill: none; stroke: #f29888; stroke-width: 0.2"/>
    <path d="M 393.9074 195.619432 
L 392.424146 198.928854 
L 389.959714 203.153544 
" clip-path="url(#p045b3aefbd)" style="fill: none; stroke: #f29888; stroke-width: 0.2"/>
    <path d="M 585.19789 135.504284 
L 588.210339 159.85828 
" clip-path="url(#p045b3aefbd)" style="fill: none; stroke: #f29888; stroke-width: 0.2"/>
    <path d="M 604.247198 129.016896 
L 607.529826 152.105622 
" clip-path="url(#p045b3aefbd)" style="fill: none; stroke: #f29888; stroke-width: 0.2"/>
    <path d="M 797.597559 86.436342 
L 796.953123 86.804507 
L 790.888847 93.102926 
L 785.302581 97.570811 
L 777.792243 101.596672 
L 769.430893 104.771351 
L 765.636345 105.003044 
L 740.395876 100.126 
L 728.471873 99.352049 
L 715.154313 100.74549 
L 709.502416 102.758421 
L 706.637637 104.306323 
L 704.160078 105.699764 
L 702.611194 107.481002 
L 701.372962 110.654038 
L 699.359193 118.62853 
L 697.887972 121.338182 
L 694.404076 123.196651 
L 691.394361 123.314838 
" clip-path="url(#p045b3aefbd)" style="fill: none; stroke: #f29888; stroke-width: 0.2"/>
    <path d="M 622.439879 124.368098 
L 621.54526 124.358399 
L 613.6477 125.829071 
L 604.247198 129.016896 
L 587.167904 134.809207 
L 585.19789 135.504284 
L 573.773775 139.531788 
L 562.624214 140.847999 
L 540.712315 143.325957 
L 521.89709 143.945447 
L 504.863738 144.099909 
L 488.062281 144.022678 
L 469.634278 144.25437 
L 454.535937 144.642168 
L 443.928924 145.49335 
L 440.13547 147.50628 
L 437.193028 149.44198 
L 420.236245 168.332308 
L 400.338114 188.773824 
L 394.685124 195.432106 
L 393.9074 195.619432 
L 389.342786 198.064526 
L 385.95843 197.611001 
L 378.658109 190.01116 
L 373.161539 186.06253 
L 370.450992 180.100969 
L 370.06377 173.984946 
L 373.200917 154.889217 
" clip-path="url(#p045b3aefbd)" style="fill: none; stroke: #f29888; stroke-width: 0.2"/>
    <path d="M 328.395939 136.419551 
L 331.139302 139.710898 
L 348.329074 144.64874 
L 363.233803 148.488919 
L 371.921119 153.791554 
L 373.200917 154.889217 
" clip-path="url(#p045b3aefbd)" style="fill: none; stroke: #f29888; stroke-width: 0.2"/>
    <path d="M 328.395939 136.419551 
L 325.821029 149.241509 
" clip-path="url(#p045b3aefbd)" style="fill: none; stroke: #f29888; stroke-width: 0.2"/>
    <path d="M 95.496686 137.425195 
L 96.442131 137.210854 
" clip-path="url(#p045b3aefbd)" style="fill: none; stroke: #f29888; stroke-width: 0.2"/>
    <path d="M 170.934373 125.263807 
L 173.861917 125.263807 
L 183.279921 124.716619 
L 195.350499 122.246876 
L 216.107298 118.773133 
L 224.702731 116.852222 
L 238.875679 114.201726 
L 250.030708 113.286459 
L 259.083368 114.292103 
L 269.690381 115.572162 
L 289.899164 120.602024 
L 302.152414 125.263807 
L 314.221898 128.007966 
L 318.976842 130.201649 
L 325.743366 134.316244 
L 328.395939 136.419551 
" clip-path="url(#p045b3aefbd)" style="fill: none; stroke: #f29888; stroke-width: 0.2"/>
   </g>
   <g id="LineCollection_2">
    <path d="M 375.174213 202.859409 
L 326.877683 249.396724 
L 322.519805 253.902402 
L 318.513051 258.421226 
L 316.061745 261.605764 
L 313.536057 265.39336 
L 312.003842 268.056437 
" clip-path="url(#p045b3aefbd)" style="fill: none; stroke-dasharray: 3.7,1.6; stroke-dashoffset: 0; stroke: #f29888"/>
    <path d="M 385.96718 192.383954 
L 375.174213 202.859409 
" clip-path="url(#p045b3aefbd)" style="fill: none; stroke-dasharray: 3.7,1.6; stroke-dashoffset: 0; stroke: #f29888"/>
    <path d="M 455.642001 125.831002 
L 454.508591 126.859363 
L 385.96718 192.383954 
" clip-path="url(#p045b3aefbd)" style="fill: none; stroke-dasharray: 3.7,1.6; stroke-dashoffset: 0; stroke: #f29888"/>
   </g>
  </g>
 </g>
 <defs>
  <clipPath id="p045b3aefbd">
   <rect x="7.2" y="7.2" width="837" height="445.901283"/>
  </clipPath>
 </defs>
</svg>
