<?xml version="1.0" encoding="utf-8" standalone="no"?>
<!DOCTYPE svg PUBLIC "-//W3C//DTD SVG 1.1//EN"
  "http://www.w3.org/Graphics/SVG/1.1/DTD/svg11.dtd">
<svg xmlns:xlink="http://www.w3.org/1999/xlink" width="851.4pt" height="722.618186pt" viewBox="0 0 851.4 722.618186" xmlns="http://www.w3.org/2000/svg" version="1.1">
 <metadata>
  <rdf:RDF xmlns:dc="http://purl.org/dc/elements/1.1/" xmlns:cc="http://creativecommons.org/ns#" xmlns:rdf="http://www.w3.org/1999/02/22-rdf-syntax-ns#">
   <cc:Work>
    <dc:type rdf:resource="http://purl.org/dc/dcmitype/StillImage"/>
    <dc:date>2025-03-16T14:38:40.810495</dc:date>
    <dc:format>image/svg+xml</dc:format>
    <dc:creator>
     <cc:Agent>
      <dc:title>Matplotlib v3.10.1, https://matplotlib.org/</dc:title>
     </cc:Agent>
    </dc:creator>
   </cc:Work>
  </rdf:RDF>
 </metadata>
 <defs>
  <style type="text/css">*{stroke-linejoin: round; stroke-linecap: butt}</style>
 </defs>
 <g id="figure_1">
  <g id="patch_1">
   <path d="M 0 722.618186 
L 851.4 722.618186 
L 851.4 0 
L 0 0 
z
" style="fill: #ffffff"/>
  </g>
  <g id="axes_1">
   <g id="PatchCollection_1">
    <path d="M 45.245455 402.127899 
L 89.067397 601.407676 
L 253.576998 541.375482 
L 266.649063 611.452182 
L 607.76621 598.207122 
L 610.104997 674.772157 
L 805.983962 683.226451 
L 806.154545 102.409772 
L 729.19456 39.391736 
L 670.262531 51.41562 
L 601.059595 234.155847 
L 539.501482 255.801522 
L 537.337768 286.673113 
L 45.245455 402.127899 
" clip-path="url(#p78d55e4e9f)" style="fill: #f29888"/>
   </g>
   <g id="LineCollection_1">
    <path d="M 733.351404 662.748273 
L 733.427718 668.109368 
L 733.548922 676.858891 
L 733.594082 680.102045 
" clip-path="url(#p78d55e4e9f)" style="fill: none; stroke: #f29888; stroke-width: 0.2"/>
    <path d="M 733.427718 668.109368 
L 691.271207 665.921988 
L 636.886569 662.27188 
L 624.869427 660.762185 
L 618.638649 646.940086 
L 623.078303 576.568156 
" clip-path="url(#p78d55e4e9f)" style="fill: none; stroke: #f29888; stroke-width: 0.2"/>
    <path d="M 377.739169 584.525928 
L 458.074908 583.103459 
L 623.078303 576.568156 
L 625.461979 388.426575 
" clip-path="url(#p78d55e4e9f)" style="fill: none; stroke: #f29888; stroke-width: 0.2"/>
    <path d="M 733.122464 387.279207 
L 806.071481 385.235382 
" clip-path="url(#p78d55e4e9f)" style="fill: none; stroke: #f29888; stroke-width: 0.2"/>
    <path d="M 733.351404 662.748273 
L 733.122464 387.279207 
L 726.40687 71.350307 
" clip-path="url(#p78d55e4e9f)" style="fill: none; stroke: #f29888; stroke-width: 0.2"/>
    <path d="M 542.787454 267.919343 
L 554.83153 262.081855 
L 569.452312 255.284871 
L 582.659047 248.789826 
L 599.008106 237.678469 
L 608.013107 226.962987 
L 630.718637 182.987241 
L 649.330169 135.415065 
L 676.785096 57.400723 
L 680.373395 49.352703 
" clip-path="url(#p78d55e4e9f)" style="fill: none; stroke: #f29888; stroke-width: 0.2"/>
    <path d="M 724.913698 40.265159 
L 726.40687 71.350307 
" clip-path="url(#p78d55e4e9f)" style="fill: none; stroke: #f29888; stroke-width: 0.2"/>
    <path d="M 58.737874 463.484521 
L 62.038928 464.575605 
L 68.691675 465.83704 
" clip-path="url(#p78d55e4e9f)" style="fill: none; stroke: #f29888; stroke-width: 0.2"/>
    <path d="M 233.596311 506.464617 
L 229.93326 500.056799 
L 227.253307 495.843072 
L 222.885478 490.710108 
L 219.972095 487.952398 
L 217.368456 485.650951 
L 213.691938 482.893241 
L 206.639667 478.598997 
L 202.572603 475.707092 
L 201.257316 473.83507 
L 195.650513 455.873051 
L 193.01994 448.136701 
L 190.007799 441.118296 
L 186.838541 435.019127 
" clip-path="url(#p78d55e4e9f)" style="fill: none; stroke: #f29888; stroke-width: 0.2"/>
    <path d="M 107.4859 556.150366 
L 156.223334 539.597396 
L 189.63072 524.58096 
L 221.965226 510.175113 
L 230.853512 506.491456 
L 233.596311 506.464617 
L 238.022498 507.658954 
L 241.007705 507.303337 
L 248.288917 505.874158 
L 446.035321 465.206322 
L 450.605156 463.810693 
L 456.086266 460.730915 
L 460.98829 455.953568 
L 487.469097 422.572528 
L 491.702256 416.064064 
L 493.026521 409.683085 
L 493.744766 370.102229 
" clip-path="url(#p78d55e4e9f)" style="fill: none; stroke: #f29888; stroke-width: 0.2"/>
    <path d="M 68.691675 465.83704 
L 76.23774 464.72322 
L 92.250122 460.885239 
L 186.838541 435.019127 
L 260.49011 417.956215 
L 483.797068 371.598505 
L 493.744766 370.102229 
L 502.431045 369.102476 
L 509.137661 369.867388 
L 515.175411 372.108447 
L 533.625337 381.636301 
L 540.843703 384.15917 
L 547.756814 385.487702 
L 555.48244 386.272743 
L 598.1103 387.74889 
L 625.461979 388.426575 
L 733.122464 387.279207 
" clip-path="url(#p78d55e4e9f)" style="fill: none; stroke: #f29888; stroke-width: 0.2"/>
    <path d="M 260.49011 417.956215 
L 259.88409 414.876437 
L 259.529456 411.615495 
L 258.640628 408.005646 
L 256.31082 402.678099 
L 249.150812 385.400475 
L 247.364176 380.321189 
L 246.399034 375.268742 
L 245.963598 371.799798 
L 246.165604 368.538856 
" clip-path="url(#p78d55e4e9f)" style="fill: none; stroke: #f29888; stroke-width: 0.2"/>
    <path d="M 46.306184 406.951552 
L 49.272117 407.468865 
L 54.021515 408.233777 
L 58.923539 408.233777 
L 63.524798 407.777514 
L 68.274195 407.314541 
L 73.63859 406.24098 
L 77.315108 405.939041 
L 84.520006 405.288194 
L 90.301881 404.449475 
L 246.165604 368.538856 
L 316.140655 351.026391 
L 317.728593 338.197857 
" clip-path="url(#p78d55e4e9f)" style="fill: none; stroke: #f29888; stroke-width: 0.2"/>
    <path d="M 316.140655 351.026391 
L 322.079646 354.649659 
L 332.139569 352.556215 
L 337.80024 347.107893 
L 341.575517 344.799736 
L 354.993237 341.444858 
L 401.948525 329.709493 
L 441.990702 321.5303 
L 471.340001 312.727099 
L 490.629377 304.97062 
L 503.414144 298.260863 
L 509.901618 293.110188 
" clip-path="url(#p78d55e4e9f)" style="fill: none; stroke: #f29888; stroke-width: 0.2"/>
    <path d="M 538.380482 271.795801 
L 542.787454 267.919343 
" clip-path="url(#p78d55e4e9f)" style="fill: none; stroke: #f29888; stroke-width: 0.2"/>
   </g>
  </g>
 </g>
 <defs>
  <clipPath id="p78d55e4e9f">
   <rect x="7.2" y="7.2" width="837" height="708.218186"/>
  </clipPath>
 </defs>
</svg>
