<?xml version="1.0" encoding="utf-8" standalone="no"?>
<!DOCTYPE svg PUBLIC "-//W3C//DTD SVG 1.1//EN"
  "http://www.w3.org/Graphics/SVG/1.1/DTD/svg11.dtd">
<svg xmlns:xlink="http://www.w3.org/1999/xlink" width="793.033895pt" height="846pt" viewBox="0 0 793.033895 846" xmlns="http://www.w3.org/2000/svg" version="1.1">
 <metadata>
  <rdf:RDF xmlns:dc="http://purl.org/dc/elements/1.1/" xmlns:cc="http://creativecommons.org/ns#" xmlns:rdf="http://www.w3.org/1999/02/22-rdf-syntax-ns#">
   <cc:Work>
    <dc:type rdf:resource="http://purl.org/dc/dcmitype/StillImage"/>
    <dc:date>2025-03-16T14:38:37.218554</dc:date>
    <dc:format>image/svg+xml</dc:format>
    <dc:creator>
     <cc:Agent>
      <dc:title>Matplotlib v3.10.1, https://matplotlib.org/</dc:title>
     </cc:Agent>
    </dc:creator>
   </cc:Work>
  </rdf:RDF>
 </metadata>
 <defs>
  <style type="text/css">*{stroke-linejoin: round; stroke-linecap: butt}</style>
 </defs>
 <g id="figure_1">
  <g id="patch_1">
   <path d="M 0 846 
L 793.033895 846 
L 793.033895 0 
L 0 0 
z
" style="fill: #ffffff"/>
  </g>
  <g id="axes_1">
   <g id="PatchCollection_1">
    <path d="M 750.441446 658.376661 
L 739.793924 488.452508 
L 661.095483 504.656846 
L 603.695323 429.118063 
L 576.020506 375.160061 
L 534.265518 395.968977 
L 449.072397 270.408948 
L 431.94476 245.414053 
L 424.537296 231.989883 
L 405.558197 219.030284 
L 369.448225 162.560694 
L 303.248768 60.734928 
L 251.401373 45 
L 170.446868 171.668224 
L 95.352628 117.710222 
L 42.59245 208.930701 
L 45.343747 528.807286 
L 200.015226 545.398767 
L 389.354673 782.477646 
L 521.290722 801 
L 528.814712 796.315574 
L 750.441446 658.376661 
" clip-path="url(#p0030e16105)" style="fill: #f29888"/>
   </g>
   <g id="PatchCollection_2">
    <path d="M 451.317132 540.803868 
L 457.815049 533.985319 
L 460.394796 536.443675 
L 453.896878 543.262224 
L 451.317132 540.803868 
" clip-path="url(#p0030e16105)" style="fill: #f29888"/>
    <path d="M 431.085384 538.372129 
L 422.546651 529.818697 
L 424.600414 527.76926 
L 424.006457 527.174029 
L 428.86978 522.320228 
L 431.808813 525.264932 
L 426.937398 530.13083 
L 431.452763 534.65314 
L 435.176725 530.936571 
L 436.850162 532.615802 
L 431.085384 538.372129 
" clip-path="url(#p0030e16105)" style="fill: #f29888"/>
    <path d="M 456.258139 531.691499 
L 462.675136 524.957637 
L 465.112462 527.280493 
L 458.695465 534.014355 
L 456.258139 531.691499 
" clip-path="url(#p0030e16105)" style="fill: #f29888"/>
    <path d="M 465.161014 522.564612 
L 469.41096 518.107632 
L 471.414552 520.016729 
L 467.164606 524.473709 
L 465.161014 522.564612 
" clip-path="url(#p0030e16105)" style="fill: #f29888"/>
    <path d="M 85.069248 258.826125 
L 82.099465 263.106471 
L 74.666106 257.952635 
L 77.635889 253.669869 
L 85.069248 258.826125 
" clip-path="url(#p0030e16105)" style="fill: #f29888"/>
    <path d="M 87.084169 217.534946 
L 91.483008 218.708472 
L 89.824138 224.92695 
L 85.42368 223.753424 
L 87.084169 217.534946 
" clip-path="url(#p0030e16105)" style="fill: #f29888"/>
    <path d="M 90.21903 218.018874 
L 86.81875 215.14192 
L 90.214175 211.127735 
L 93.614455 214.004689 
L 90.21903 218.018874 
" clip-path="url(#p0030e16105)" style="fill: #f29888"/>
    <path d="M 107.877505 200.418403 
L 99.801638 206.774801 
L 93.614455 214.004689 
L 91.151234 211.70119 
L 96.880407 204.943132 
L 98.769092 202.823526 
L 105.700744 197.783413 
L 107.877505 200.418403 
" clip-path="url(#p0030e16105)" style="fill: #f29888"/>
   </g>
   <g id="LineCollection_1">
    <path d="M 552.393333 762.172015 
L 559.377831 777.293305 
" clip-path="url(#p0030e16105)" style="fill: none; stroke: #f29888; stroke-width: 0.2"/>
    <path d="M 672.167028 691.566881 
L 662.522921 682.369824 
L 649.292416 668.689172 
L 644.087609 662.146462 
L 642.30412 660.213168 
L 639.612704 658.875107 
" clip-path="url(#p0030e16105)" style="fill: none; stroke: #f29888; stroke-width: 0.2"/>
    <path d="M 625.320522 644.829089 
L 628.092859 642.724001 
L 629.709651 642.298144 
L 633.064616 643.20067 
L 637.840545 646.041329 
L 639.426587 647.669748 
L 641.294232 647.967364 
L 642.485382 646.946275 
L 643.260601 645.654187 
L 644.034201 642.685287 
L 645.066747 640.490672 
L 646.487711 639.588146 
L 648.293857 639.329244 
L 652.42404 640.618913 
L 656.167424 640.877815 
L 660.425461 640.490672 
L 668.943155 640.103529 
L 673.95699 640.485833 
L 677.323284 640.84394 
L 681.194521 640.778609 
L 686.239107 639.975288 
L 704.823313 637.26287 
L 720.3115 634.552872 
L 734.508196 634.552872 
L 737.037771 634.722247 
L 739.065639 633.877792 
L 741.430137 632.019508 
L 743.033981 629.994268 
L 744.807759 627.122153 
L 745.820884 623.490272 
L 746.495761 618.929248 
L 746.159132 616.226509 
L 744.891917 614.622286 
L 740.415393 611.665485 
L 733.237743 607.694853 
L 722.514156 603.218517 
L 711.452322 598.657493 
L 708.243014 597.897725 
L 702.753366 597.476708 
L 698.700866 597.137958 
L 696.082278 596.71694 
L 691.861464 594.604593 
L 683.669071 590.297632 
L 679.954819 589.36849 
L 677.758636 589.36849 
L 675.562453 589.70482 
L 673.620361 590.972712 
L 669.483704 595.025611 
" clip-path="url(#p0030e16105)" style="fill: none; stroke: #f29888; stroke-width: 0.2"/>
    <path d="M 617.649257 694.816459 
L 621.227562 695.225379 
L 632.55158 700.795393 
L 634.142477 701.431759 
L 636.434146 701.049455 
L 639.233996 699.585572 
L 643.880452 698.121689 
L 652.726683 696.592476 
L 658.964037 695.319745 
L 662.336804 693.345317 
L 665.136654 691.690283 
L 667.936504 691.37331 
L 672.167028 691.566881 
L 673.473086 691.627372 
L 679.470914 691.951604 
L 682.621959 692.096782 
L 688.634354 694.443835 
L 691.375677 695.138778 
" clip-path="url(#p0030e16105)" style="fill: none; stroke: #f29888; stroke-width: 0.2"/>
    <path d="M 609.597665 560.589275 
L 612.36191 558.827777 
L 621.285825 549.722666 
L 630.123964 543.250126 
L 640.457514 537.895459 
L 649.295653 532.042347 
L 653.903267 523.951066 
L 660.927136 504.435302 
" clip-path="url(#p0030e16105)" style="fill: none; stroke: #f29888; stroke-width: 0.2"/>
    <path d="M 518.904386 373.329307 
L 512.716384 383.689297 
L 512.259992 384.357118 
L 506.768726 392.36855 
L 499.13954 402.211651 
L 485.582116 418.038525 
L 479.480709 425.154691 
L 476.836226 427.954216 
" clip-path="url(#p0030e16105)" style="fill: none; stroke: #f29888; stroke-width: 0.2"/>
    <path d="M 543.924073 786.911615 
L 544.487398 783.878618 
L 544.660568 778.635255 
L 544.715594 769.614832 
L 544.67837 761.550168 
L 546.691673 754.395288 
L 548.073795 748.101801 
" clip-path="url(#p0030e16105)" style="fill: none; stroke: #f29888; stroke-width: 0.2"/>
    <path d="M 540.832757 788.835628 
L 541.035329 788.11299 
L 541.800837 781.693682 
L 543.289774 766.880637 
L 544.67837 761.550168 
" clip-path="url(#p0030e16105)" style="fill: none; stroke: #f29888; stroke-width: 0.2"/>
    <path d="M 544.67837 761.550168 
L 551.464365 759.805606 
" clip-path="url(#p0030e16105)" style="fill: none; stroke: #f29888; stroke-width: 0.2"/>
    <path d="M 546.691673 754.395288 
L 540.415478 758.194125 
L 531.307064 761.310623 
L 525.076184 762.109105 
L 516.448438 759.072455 
L 512.023705 757.535983 
L 509.885784 757.052054 
L 507.675036 756.860903 
L 505.244184 757.221429 
L 499.14925 759.195857 
L 496.307322 760.350025 
L 494.491465 760.18549 
L 492.271006 759.766892 
L 482.868042 757.073831 
" clip-path="url(#p0030e16105)" style="fill: none; stroke: #f29888; stroke-width: 0.2"/>
    <path d="M 485.850772 765.305451 
L 482.868042 757.073831 
L 480.01964 740.293618 
L 480.338466 731.503061 
L 480.777056 729.584286 
L 481.36292 728.224447 
L 482.461821 727.689707 
L 484.588412 727.300144 
L 496.919081 726.596029 
L 500.196362 726.366163 
L 503.764956 725.84352 
L 506.28644 724.725646 
L 508.540885 723.223049 
L 511.750193 720.017024 
L 521.996349 712.482261 
L 526.917935 707.773639 
" clip-path="url(#p0030e16105)" style="fill: none; stroke: #f29888; stroke-width: 0.2"/>
    <path d="M 569.741073 717.786115 
L 538.423214 721.505103 
" clip-path="url(#p0030e16105)" style="fill: none; stroke: #f29888; stroke-width: 0.2"/>
    <path d="M 492.183612 668.377038 
L 489.124816 668.902101 
L 484.730832 666.104995 
L 480.655675 665.785602 
L 469.472459 677.852354 
L 448.939687 699.66784 
L 434.081061 712.053984 
" clip-path="url(#p0030e16105)" style="fill: none; stroke: #f29888; stroke-width: 0.2"/>
    <path d="M 543.893441 733.929962 
L 546.065348 733.891247 
L 547.274301 733.891247 
L 552.621529 732.173302 
L 554.594371 730.963481 
L 569.741073 717.786115 
L 574.259675 714.793018 
L 576.232517 713.200894 
L 577.69556 711.037735 
L 578.778277 709.254459 
L 580.623265 707.345362 
L 582.787079 705.818569 
L 584.696804 704.991051 
L 587.81548 704.161114 
L 592.14311 703.144865 
L 594.243806 702.825472 
L 603.980163 697.669216 
L 605.826769 697.158672 
L 609.325772 696.90461 
L 611.617441 697.415154 
L 612.763276 697.224002 
L 617.649257 694.816459 
L 621.251838 692.832353 
L 623.197168 691.470095 
L 626.796512 688.259231 
L 632.925432 684.951582 
L 635.453389 683.298967 
L 636.913195 681.450361 
L 638.664315 677.94672 
L 640.413817 674.832641 
L 642.554974 672.400902 
L 643.331811 670.065948 
L 643.527639 667.634208 
L 642.262042 663.061086 
L 641.289377 660.726132 
L 639.612704 658.875107 
L 637.495823 656.542573 
L 633.830124 652.816325 
L 625.320522 644.829089 
L 623.21497 643.60959 
L 619.181892 640.657627 
" clip-path="url(#p0030e16105)" style="fill: none; stroke: #f29888; stroke-width: 0.2"/>
    <path d="M 504.133954 684.615251 
L 521.993112 671.612099 
L 534.560069 669.064217 
L 550.483608 664.711282 
L 554.100756 664.132987 
L 556.426411 663.813595 
L 561.33505 662.659426 
L 563.667179 661.122954 
L 565.494365 659.342098 
L 576.871789 653.818056 
L 581.278721 652.424343 
L 600.545896 645.075892 
L 607.283339 642.86676 
L 612.457396 641.760984 
L 619.181892 640.657627 
" clip-path="url(#p0030e16105)" style="fill: none; stroke: #f29888; stroke-width: 0.2"/>
    <path d="M 593.763138 570.052493 
L 592.53962 574.269928 
L 590.861329 580.59487 
L 587.893164 589.760472 
L 587.376891 591.178381 
L 582.730435 594.406183 
L 579.76227 597.116181 
L 578.083979 600.343983 
L 578.213452 602.538597 
L 579.245997 606.153542 
L 581.311089 610.283869 
L 583.504035 613.770573 
L 585.569127 615.188482 
L 589.053564 616.35233 
L 591.377601 615.188482 
L 593.70002 612.865627 
L 596.024058 608.348156 
L 597.572876 606.281783 
L 599.121695 605.638158 
L 600.961828 606.240649 
L 627.251286 641.24318 
L 628.092859 642.724001 
L 633.830124 652.816325 
" clip-path="url(#p0030e16105)" style="fill: none; stroke: #f29888; stroke-width: 0.2"/>
    <path d="M 492.237019 633.790685 
L 495.643773 633.901989 
L 503.918705 631.027455 
L 508.52632 628.961081 
L 520.992935 619.035712 
L 530.954251 614.157715 
L 546.149505 608.418326 
L 551.443326 605.822051 
L 555.228788 601.7135 
L 579.757415 580.943298 
L 593.763138 570.052493 
L 603.630586 562.38223 
L 609.597665 560.589275 
" clip-path="url(#p0030e16105)" style="fill: none; stroke: #f29888; stroke-width: 0.2"/>
    <path d="M 457.29554 570.962278 
L 477.64705 556.299251 
" clip-path="url(#p0030e16105)" style="fill: none; stroke: #f29888; stroke-width: 0.2"/>
    <path d="M 471.608761 547.520793 
L 468.44315 547.370775 
L 465.712892 547.523212 
L 461.314053 548.205551 
L 454.563663 549.190345 
L 452.440309 549.570229 
L 448.382954 550.540505 
" clip-path="url(#p0030e16105)" style="fill: none; stroke: #f29888; stroke-width: 0.2"/>
    <path d="M 461.950088 534.251479 
L 471.608761 547.520793 
L 474.293704 551.210746 
L 477.64705 556.299251 
L 479.365802 558.905205 
L 488.501728 571.709947 
L 489.466301 573.515 
L 491.426196 574.107812 
L 494.798963 572.97058 
L 497.205539 571.320385 
L 500.45207 570.652564 
L 504.197072 571.182465 
L 507.155526 572.02692 
L 510.384255 572.595536 
L 512.667832 572.847179 
L 515.448261 572.283402 
L 519.550931 569.324181 
L 550.682673 542.161287 
L 553.600667 541.137779 
L 568.931868 539.015753 
L 575.352102 536.680799 
L 577.834744 534.766863 
L 579.534074 533.457837 
L 586.439831 528.456438 
L 600.393766 518.589141 
L 605.634178 514.88467 
" clip-path="url(#p0030e16105)" style="fill: none; stroke: #f29888; stroke-width: 0.2"/>
    <path d="M 609.597665 560.589275 
L 610.759684 557.271947 
L 611.826216 554.665993 
L 612.416936 552.297165 
L 612.416936 549.335524 
L 611.470166 543.177536 
L 609.575008 536.661442 
L 608.746382 530.975285 
L 607.797993 528.016064 
L 606.495173 525.172985 
L 603.416956 521.381407 
L 600.393766 518.589141 
" clip-path="url(#p0030e16105)" style="fill: none; stroke: #f29888; stroke-width: 0.2"/>
    <path d="M 550.682673 542.161287 
L 551.881915 539.700512 
L 557.067302 534.827354 
L 557.696863 532.470623 
L 556.75333 529.799339 
L 553.453391 526.813502 
L 550.310439 523.670388 
L 548.221071 522.208925 
L 546.578384 521.940344 
L 544.539187 522.254898 
L 542.053309 523.283245 
L 539.939665 524.768905 
L 530.981764 534.355524 
L 528.154401 536.242844 
L 525.011448 537.813192 
L 521.397537 540.486895 
L 518.835594 543.651786 
L 517.000316 545.171321 
L 515.661891 545.616535 
L 513.876784 546.240802 
L 512.894409 546.153695 
L 512.002665 545.616535 
L 495.399393 528.209635 
L 492.186849 531.512445 
L 489.866048 534.904783 
L 483.975035 541.065189 
L 477.815365 547.936971 
L 474.293704 551.210746 
" clip-path="url(#p0030e16105)" style="fill: none; stroke: #f29888; stroke-width: 0.2"/>
    <path d="M 460.354335 520.836988 
L 452.844911 514.059572 
" clip-path="url(#p0030e16105)" style="fill: none; stroke: #f29888; stroke-width: 0.2"/>
    <path d="M 577.834744 534.766863 
L 577.480312 532.037508 
L 577.03363 529.003277 
L 576.140268 526.056154 
L 575.606192 523.200977 
L 575.070499 521.236229 
L 574.355161 519.094846 
L 573.374405 517.219624 
L 572.927723 515.792036 
L 573.105748 514.272501 
L 573.910098 512.755386 
L 577.569324 508.470201 
L 581.22855 504.453596 
L 583.102669 501.061259 
L 584.26307 498.206082 
" clip-path="url(#p0030e16105)" style="fill: none; stroke: #f29888; stroke-width: 0.2"/>
    <path d="M 445.824247 536.017818 
L 448.200073 534.817676 
L 449.758603 533.460257 
L 458.036772 523.409067 
L 460.354335 520.836988 
L 462.888766 518.025365 
L 476.22123 502.375124 
L 478.430361 499.846599 
L 482.301598 496.084057 
L 488.22498 489.819605 
L 491.638208 486.710366 
L 496.747529 482.529226 
" clip-path="url(#p0030e16105)" style="fill: none; stroke: #f29888; stroke-width: 0.2"/>
    <path d="M 495.399393 528.209635 
L 502.293821 518.523811 
L 514.164861 503.6164 
L 518.628437 499.241689 
L 519.699825 497.01078 
L 519.788837 495.849352 
L 518.895475 494.598397 
L 516.218624 492.098908 
L 511.308367 489.154204 
L 504.167941 485.67234 
L 497.658694 482.916369 
L 496.747529 482.529226 
" clip-path="url(#p0030e16105)" style="fill: none; stroke: #f29888; stroke-width: 0.2"/>
    <path d="M 454.317665 356.061832 
L 457.693669 357.167608 
L 466.145008 360.085696 
L 474.900608 362.200462 
L 484.057573 362.904578 
L 490.396887 362.904578 
L 496.7362 364.211184 
L 503.679181 366.928441 
L 505.993508 368.639128 
L 507.302802 369.846529 
L 508.81116 373.468732 
L 510.321137 377.093355 
L 512.259992 384.357118 
L 514.145441 391.582167 
L 515.252433 396.615021 
L 517.767443 403.356142 
L 524.509741 421.873657 
L 528.131743 430.223839 
L 532.056388 439.885467 
L 533.566365 445.823267 
L 533.666706 449.547095 
L 532.559714 453.975039 
L 530.245387 458.502188 
L 527.125092 462.729301 
L 521.289104 466.351504 
L 516.357808 470.276162 
L 512.836147 473.095045 
L 505.289499 477.723818 
L 500.761187 480.944361 
L 497.658694 482.916369 
" clip-path="url(#p0030e16105)" style="fill: none; stroke: #f29888; stroke-width: 0.2"/>
    <path d="M 476.836226 427.954216 
L 469.94018 419.865355 
L 460.542071 416.364134 
L 438.826241 405.19023 
" clip-path="url(#p0030e16105)" style="fill: none; stroke: #f29888; stroke-width: 0.2"/>
    <path d="M 447.060713 388.441473 
L 451.255632 390.461873 
L 453.493894 391.538613 
L 456.102771 392.622613 
L 457.772971 393.31705 
L 467.151659 397.519967 
L 471.176645 400.135599 
L 473.693274 402.550401 
L 474.900608 405.267658 
L 476.0076 409.596397 
L 477.515959 415.735027 
L 478.825253 421.469577 
L 479.480709 425.154691 
" clip-path="url(#p0030e16105)" style="fill: none; stroke: #f29888; stroke-width: 0.2"/>
    <path d="M 456.102771 392.622613 
L 460.611663 391.884622 
L 463.126672 392.286283 
L 475.101291 395.00354 
L 484.661241 395.910905 
L 489.993903 395.506825 
L 494.925199 394.703504 
L 498.749503 393.092023 
L 503.578839 392.789568 
L 506.768726 392.36855 
L 514.145441 391.582167 
" clip-path="url(#p0030e16105)" style="fill: none; stroke: #f29888; stroke-width: 0.2"/>
    <path d="M 285.561161 309.73054 
L 293.501082 305.81556 
L 304.525693 300.521385 
L 315.030795 293.923023 
L 322.931875 290.622632 
L 331.787816 288.019098 
L 340.983624 287.564205 
L 346.215944 287.421446 
L 348.565876 287.051241 
L 349.462476 286.460849 
L 350.511206 282.078878 
L 355.324358 271.884929 
L 362.260865 259.718973 
L 363.388897 250.168648 
L 367.729473 248.085337 
L 378.928873 247.131998 
L 397.595618 250.863085 
L 412.528691 253.640834 
L 428.329231 261.107847 
L 439.789195 264.667139 
L 447.319456 267.850827 
" clip-path="url(#p0030e16105)" style="fill: none; stroke: #f29888; stroke-width: 0.2"/>
    <path d="M 44.04425 377.722608 
L 46.360109 366.013817 
L 47.348958 363.049756 
" clip-path="url(#p0030e16105)" style="fill: none; stroke: #f29888; stroke-width: 0.2"/>
    <path d="M 80.74463 532.60471 
L 78.550291 512.615047 
L 67.982072 490.235784 
L 75.132209 458.528804 
L 89.118511 433.66215 
L 99.686731 415.323688 
L 109.942597 394.185701 
L 110.94763 386.237179 
L 112.318423 381.753584 
L 113.741006 377.845863 
L 115.16197 375.830302 
L 116.937367 375.002785 
L 119.66277 373.935723 
L 122.728039 372.735581 
" clip-path="url(#p0030e16105)" style="fill: none; stroke: #f29888; stroke-width: 0.2"/>
    <path d="M 44.951416 483.19329 
L 67.982072 490.235784 
" clip-path="url(#p0030e16105)" style="fill: none; stroke: #f29888; stroke-width: 0.2"/>
    <path d="M 310.615772 445.917633 
L 308.026315 449.423693 
L 305.16011 453.791146 
L 301.204715 460.612115 
L 297.385267 466.206326 
L 294.758587 469.700288 
" clip-path="url(#p0030e16105)" style="fill: none; stroke: #f29888; stroke-width: 0.2"/>
    <path d="M 400.565401 512.411797 
L 398.883873 511.264887 
L 374.810019 493.381318 
L 353.335332 477.254408 
L 328.727402 459.215982 
L 310.615772 445.917633 
L 307.100584 443.318938 
L 288.835205 430.098018 
L 284.708259 427.039591 
L 283.48474 425.435369 
L 282.56872 423.678709 
L 281.803212 421.155023 
L 281.345202 419.091069 
L 281.193071 417.33441 
L 281.421267 414.965581 
L 282.109092 412.062011 
L 283.178861 409.920629 
L 284.632193 407.246925 
L 295.25382 391.579747 
L 302.157959 382.213316 
L 303.324833 380.551022 
L 304.098433 379.48396 
L 304.261893 378.598372 
L 303.803882 377.845863 
L 302.868441 377.361935 
L 299.47949 375.590757 
L 288.526089 367.383334 
L 283.742068 363.734515 
L 282.913441 363.465935 
L 276.496444 363.915988 
L 256.50584 365.633933 
L 248.894456 365.670228 
L 243.912989 364.825773 
L 238.384499 363.289301 
L 225.442071 361.852034 
L 218.128475 361.438275 
L 214.012857 361.377784 
L 211.256704 361.960918 
L 208.197909 363.240908 
L 205.73307 364.995148 
L 203.480242 367.059102 
L 201.11089 369.239199 
L 196.195777 375.728677 
L 174.992983 362.193203 
L 167.485178 357.247456 
L 155.950767 348.038301 
L 152.856366 344.873411 
L 145.832465 335.640059 
L 142.36583 330.483803 
L 139.37339 325.090423 
" clip-path="url(#p0030e16105)" style="fill: none; stroke: #f29888; stroke-width: 0.2"/>
    <path d="M 294.758587 469.700288 
L 291.109072 470.706859 
L 288.380432 471.253697 
L 286.470707 471.389197 
L 284.970441 471.115778 
L 282.92477 470.02452 
L 280.741535 468.662262 
L 275.967224 465.250567 
L 274.329393 464.568228 
L 272.010211 464.703728 
L 267.2359 463.88589 
L 260.715325 460.929088 
L 258.739246 460.070115 
L 256.081816 457.984384 
L 253.495596 454.359762 
L 243.285045 438.661129 
L 235.997343 428.902715 
L 232.838206 423.644834 
L 230.167829 419.197534 
L 229.777792 417.842534 
L 229.900792 415.234161 
L 230.378223 411.711163 
L 230.219618 408.76404 
L 229.965528 407.087229 
L 229.408795 405.311212 
L 227.097705 401.27525 
L 225.547268 399.11451 
L 223.979028 397.851458 
L 222.410788 397.398985 
L 221.059416 397.423181 
L 219.756595 397.90469 
L 217.154192 400.285617 
L 213.818648 402.935124 
L 210.533275 404.972462 
L 205.585794 407.326773 
L 202.478446 408.464005 
L 200.90697 408.839049 
L 199.997423 408.795495 
L 199.464966 408.333344 
L 199.235152 406.6033 
L 198.817602 406.259711 
L 198.108738 406.361336 
L 195.015956 406.615399 
L 192.277606 406.818649 
L 187.156955 407.476791 
L 176.813695 408.727746 
L 173.450638 409.332656 
L 170.153936 410.140816 
L 167.935096 410.542477 
L 166.387895 410.745726 
L 164.772722 410.677976 
L 163.157548 410.206146 
L 161.005062 409.468156 
L 159.391507 408.727746 
L 158.583921 407.919585 
L 157.844307 407.450175 
L 156.363462 406.642015 
L 154.615578 405.497524 
L 152.866077 404.152204 
L 151.587533 402.874633 
L 150.579263 401.393813 
L 149.703703 399.644412 
L 148.761788 397.962761 
L 147.551217 396.08028 
L 145.735361 393.590469 
L 141.09376 388.276937 
L 137.191772 383.969975 
L 135.133154 381.661637 
L 133.19268 379.934014 
L 131.998293 379.169407 
L 130.237463 378.233006 
L 128.379528 376.974792 
L 126.225424 375.225392 
L 124.072938 373.679241 
L 123.200615 373.067071 
L 122.728039 372.735581 
L 121.31193 372.217777 
L 119.178865 371.72659 
L 110.421647 371.102323 
L 106.851433 370.836162 
L 102.745526 370.657109 
L 99.532982 370.567582 
L 96.7655 370.209475 
L 93.998018 369.22952 
L 89.625073 367.622878 
L 85.608179 365.568603 
L 79.806178 362.534373 
L 71.327326 357.35634 
L 70.166926 356.465912 
L 69.453207 355.394011 
L 69.050222 354.099503 
L 68.470832 350.215979 
L 68.470832 347.360802 
L 68.917513 343.612777 
L 69.631232 338.969486 
" clip-path="url(#p0030e16105)" style="fill: none; stroke: #f29888; stroke-width: 0.2"/>
    <path d="M 383.078477 540.232833 
L 383.717749 542.282269 
L 384.721164 543.731634 
L 392.450692 551.849531 
L 401.450672 559.667392 
" clip-path="url(#p0030e16105)" style="fill: none; stroke: #f29888; stroke-width: 0.2"/>
    <path d="M 291.931224 316.40875 
L 294.366932 319.203436 
L 305.770251 330.786259 
L 316.414536 342.216644 
L 319.996078 346.388106 
L 321.40895 348.057659 
L 322.2133 349.422336 
L 322.706915 350.874121 
L 322.357339 352.342843 
L 321.39924 354.041432 
L 314.89323 364.903202 
L 311.957434 370.458698 
L 310.280761 373.916366 
L 309.748304 375.380249 
L 309.696515 376.802998 
L 310.138341 377.908774 
L 311.332727 379.329103 
L 313.252162 381.274495 
L 338.627218 405.028114 
L 341.113097 407.355809 
L 371.419449 437.608585 
L 392.887662 459.513598 
L 413.820182 480.811281 
L 419.046029 486.511956 
L 437.099397 508.446005 
L 439.174199 511.097931 
L 440.972253 513.846644 
L 442.407783 516.380009 
L 443.395013 518.915793 
L 444.026193 521.178157 
L 444.658992 523.621995 
L 445.083015 526.179556 
L 445.330632 528.391108 
L 445.824247 536.017818 
L 446.230468 539.640021 
L 447.34879 547.368355 
L 447.981588 549.613782 
L 448.382954 550.540505 
L 449.245567 552.534289 
L 457.29554 570.962278 
L 466.256678 591.841363 
L 470.39819 598.863162 
L 482.461821 610.119334 
L 490.472952 616.693499 
L 492.903805 620.472979 
L 493.714628 624.254878 
L 492.237019 633.790685 
L 491.283776 657.84192 
L 492.183612 668.377038 
L 504.133954 684.615251 
L 506.496833 687.826115 
L 526.917935 707.773639 
L 530.020428 711.221628 
L 533.637575 715.182581 
L 536.617068 718.947542 
L 538.423214 721.505103 
L 540.232597 724.42561 
L 541.643851 727.353376 
L 542.90783 730.794106 
L 543.893441 733.929962 
L 544.456648 735.725336 
L 546.736988 743.223804 
L 548.073795 748.101801 
L 549.499615 754.107351 
L 550.758738 758.010232 
L 551.464365 759.805606 
L 552.393333 762.172015 
" clip-path="url(#p0030e16105)" style="fill: none; stroke: #f29888; stroke-width: 0.2"/>
    <path d="M 445.083015 526.179556 
L 442.757359 527.360341 
L 438.206389 531.914106 
" clip-path="url(#p0030e16105)" style="fill: none; stroke: #f29888; stroke-width: 0.2"/>
    <path d="M 383.078477 540.232833 
L 383.934616 538.756852 
L 398.883873 511.264887 
" clip-path="url(#p0030e16105)" style="fill: none; stroke: #f29888; stroke-width: 0.2"/>
    <path d="M 408.513415 518.756096 
L 400.565401 512.411797 
" clip-path="url(#p0030e16105)" style="fill: none; stroke: #f29888; stroke-width: 0.2"/>
    <path d="M 294.758587 469.700288 
L 297.297873 472.001367 
L 314.700639 484.147966 
L 331.637304 492.793345 
L 333.155373 493.611183 
L 333.739619 495.012156 
L 333.506568 496.413128 
L 327.549199 508.68071 
L 326.539311 510.865646 
L 326.984374 512.682797 
L 343.976064 518.937569 
L 348.902506 517.98907 
L 352.124761 518.306043 
L 360.713664 525.192342 
L 363.774078 528.843581 
L 378.956386 539.586789 
L 380.57156 539.998128 
L 383.078477 540.232833 
" clip-path="url(#p0030e16105)" style="fill: none; stroke: #f29888; stroke-width: 0.2"/>
    <path d="M 419.046029 486.511956 
L 400.565401 512.411797 
" clip-path="url(#p0030e16105)" style="fill: none; stroke: #f29888; stroke-width: 0.2"/>
    <path d="M 314.700639 484.147966 
L 328.727402 459.215982 
" clip-path="url(#p0030e16105)" style="fill: none; stroke: #f29888; stroke-width: 0.2"/>
    <path d="M 413.820182 480.811281 
L 434.694439 464.807773 
L 459.726392 445.13125 
L 475.167645 431.29816 
L 476.836226 427.954216 
" clip-path="url(#p0030e16105)" style="fill: none; stroke: #f29888; stroke-width: 0.2"/>
    <path d="M 392.887662 459.513598 
L 438.826241 405.19023 
L 446.555769 394.763995 
" clip-path="url(#p0030e16105)" style="fill: none; stroke: #f29888; stroke-width: 0.2"/>
    <path d="M 307.100584 443.318938 
L 309.662528 438.511111 
L 316.07467 429.369706 
L 322.758705 420.77514 
L 330.671113 412.316074 
L 333.263806 409.586718 
L 338.627218 405.028114 
" clip-path="url(#p0030e16105)" style="fill: none; stroke: #f29888; stroke-width: 0.2"/>
    <path d="M 341.113097 407.355809 
L 367.917209 384.093377 
" clip-path="url(#p0030e16105)" style="fill: none; stroke: #f29888; stroke-width: 0.2"/>
    <path d="M 446.555769 394.763995 
L 451.255632 390.461873 
" clip-path="url(#p0030e16105)" style="fill: none; stroke: #f29888; stroke-width: 0.2"/>
    <path d="M 371.419449 437.608585 
L 374.366574 434.017837 
L 388.613441 414.709099 
L 390.877597 410.936878 
L 392.230588 408.434969 
L 392.520283 406.588783 
L 393.098056 405.599149 
L 394.637164 403.588427 
L 398.811044 398.814475 
L 417.851642 379.099237 
L 419.023371 377.916033 
L 439.047963 357.678152 
L 440.345928 355.778734 
L 444.62015 349.5288 
L 445.898694 344.585473 
L 445.835576 343.622456 
L 445.727142 341.998877 
" clip-path="url(#p0030e16105)" style="fill: none; stroke: #f29888; stroke-width: 0.2"/>
    <path d="M 419.023371 377.916033 
L 430.818346 381.695512 
L 435.892063 383.832056 
L 441.632564 385.835519 
L 444.569979 387.171161 
L 447.060713 388.441473 
" clip-path="url(#p0030e16105)" style="fill: none; stroke: #f29888; stroke-width: 0.2"/>
    <path d="M 392.520283 406.588783 
L 367.917209 384.093377 
L 335.212372 352.853388 
L 332.621297 350.975746 
L 330.71481 349.770765 
" clip-path="url(#p0030e16105)" style="fill: none; stroke: #f29888; stroke-width: 0.2"/>
    <path d="M 351.857723 336.605496 
L 375.675868 353.523628 
L 381.384002 357.080501 
L 399.841972 368.612512 
L 402.779387 369.277913 
L 405.449764 370.613555 
L 407.453356 372.483938 
L 408.921254 374.351901 
L 410.790518 375.687543 
L 417.851642 379.099237 
" clip-path="url(#p0030e16105)" style="fill: none; stroke: #f29888; stroke-width: 0.2"/>
    <path d="M 404.601717 324.596816 
L 394.663059 336.489353 
L 391.918235 339.465512 
L 381.384002 357.080501 
L 374.335824 368.868994 
L 372.464942 373.875232 
L 371.662211 378.349148 
L 371.393554 380.086451 
L 367.917209 384.093377 
" clip-path="url(#p0030e16105)" style="fill: none; stroke: #f29888; stroke-width: 0.2"/>
    <path d="M 330.71481 349.770765 
L 327.992644 350.462782 
L 325.877381 350.852344 
L 322.706915 350.874121 
" clip-path="url(#p0030e16105)" style="fill: none; stroke: #f29888; stroke-width: 0.2"/>
    <path d="M 455.785563 344.178973 
L 451.647288 348.18348 
L 449.706814 350.436166 
L 447.641722 351.788745 
L 444.837017 353.257468 
L 440.345928 355.778734 
" clip-path="url(#p0030e16105)" style="fill: none; stroke: #f29888; stroke-width: 0.2"/>
    <path d="M 454.317665 356.061832 
L 451.245922 352.456566 
L 449.706814 350.436166 
L 449.10962 349.652202 
L 447.507394 347.116418 
L 445.835576 343.622456 
" clip-path="url(#p0030e16105)" style="fill: none; stroke: #f29888; stroke-width: 0.2"/>
    <path d="M 330.71481 349.770765 
L 333.836724 347.435811 
L 337.338964 345.100857 
L 350.70056 337.191049 
L 351.857723 336.605496 
L 355.083215 334.969818 
L 357.795671 333.051043 
L 360.035551 331.340356 
L 367.02061 326.32444 
" clip-path="url(#p0030e16105)" style="fill: none; stroke: #f29888; stroke-width: 0.2"/>
    <path d="M 460.173853 286.770588 
L 460.592242 290.373409 
L 462.061758 300.385885 
L 462.061758 307.061675 
L 462.194468 318.409793 
L 461.527683 326.955966 
L 460.72657 332.027535 
L 459.391381 337.101523 
L 457.522117 341.241529 
L 455.785563 344.178973 
L 454.450374 347.249498 
L 454.050627 350.721684 
L 454.183337 354.058369 
L 454.317665 356.061832 
L 453.783589 359.265437 
L 449.778024 375.288302 
L 447.107646 387.838982 
L 447.060713 388.441473 
L 446.840609 391.308748 
L 446.555769 394.763995 
" clip-path="url(#p0030e16105)" style="fill: none; stroke: #f29888; stroke-width: 0.2"/>
    <path d="M 445.727142 341.998877 
L 445.091107 336.975701 
L 444.689741 335.349702 
L 443.458131 333.464802 
L 440.441414 329.397384 
L 438.774452 327.413279 
L 436.808083 325.78728 
L 434.726807 325.121878 
L 431.933431 324.737155 
L 428.494309 324.253227 
L 423.611565 323.273272 
L 418.531375 321.647273 
L 414.520954 319.588158 
L 411.46054 317.703258 
L 408.644506 320.618926 
L 404.601717 324.596816 
" clip-path="url(#p0030e16105)" style="fill: none; stroke: #f29888; stroke-width: 0.2"/>
    <path d="M 367.02061 326.32444 
L 369.01611 326.532529 
L 370.252575 325.830833 
L 371.210674 324.427441 
L 371.762552 323.062763 
L 371.780355 321.298845 
L 370.1053 304.576704 
L 368.404351 299.887439 
L 366.394285 296.737066 
L 362.068274 292.280086 
L 353.773921 288.270741 
" clip-path="url(#p0030e16105)" style="fill: none; stroke: #f29888; stroke-width: 0.2"/>
    <path d="M 411.46054 317.703258 
L 403.959208 314.102832 
L 399.560368 312.510708 
L 395.918945 310.766146 
L 389.548882 306.367238 
L 383.330949 302.273205 
L 372.560428 297.039521 
L 362.068274 292.280086 
" clip-path="url(#p0030e16105)" style="fill: none; stroke: #f29888; stroke-width: 0.2"/>
    <path d="M 353.773921 288.270741 
L 318.984572 303.952436 
L 313.876869 306.718086 
L 296.723337 317.037857 
L 294.366932 319.203436 
" clip-path="url(#p0030e16105)" style="fill: none; stroke: #f29888; stroke-width: 0.2"/>
    <path d="M 198.108738 406.361336 
L 197.802859 397.205413 
L 196.195777 375.728677 
" clip-path="url(#p0030e16105)" style="fill: none; stroke: #f29888; stroke-width: 0.2"/>
    <path d="M 248.894456 365.670228 
L 247.717871 367.695468 
L 246.091369 370.098172 
L 243.843397 372.730741 
L 242.370643 374.514017 
L 241.286309 375.830302 
L 240.51109 377.691006 
L 239.891239 380.403424 
L 238.962271 386.060545 
L 238.496169 389.46982 
L 238.187053 391.949952 
" clip-path="url(#p0030e16105)" style="fill: none; stroke: #f29888; stroke-width: 0.2"/>
    <path d="M 304.261893 378.598372 
L 309.696515 376.802998 
" clip-path="url(#p0030e16105)" style="fill: none; stroke: #f29888; stroke-width: 0.2"/>
    <path d="M 123.200615 373.067071 
L 125.370903 371.992751 
L 127.232075 371.141037 
L 128.547843 370.676466 
L 129.942912 370.289323 
L 132.888419 369.590047 
L 153.578177 365.79363 
" clip-path="url(#p0030e16105)" style="fill: none; stroke: #f29888; stroke-width: 0.2"/>
    <path d="M 256.662825 336.015104 
L 257.739068 337.691915 
L 258.606536 338.662191 
L 274.865087 355.902136 
L 282.913441 363.465935 
" clip-path="url(#p0030e16105)" style="fill: none; stroke: #f29888; stroke-width: 0.2"/>
    <path d="M 291.931224 316.40875 
L 256.662825 336.015104 
L 241.561438 342.325528 
L 235.50211 344.805661 
L 225.150757 348.156864 
L 223.388308 348.628694 
" clip-path="url(#p0030e16105)" style="fill: none; stroke: #f29888; stroke-width: 0.2"/>
    <path d="M 223.388308 348.628694 
L 222.291026 348.58514 
L 219.824569 347.651159 
L 217.0846 345.141991 
L 212.266592 341.089091 
L 203.816872 335.352122 
L 199.824253 333.351078 
L 164.180384 302.159482 
L 144.829051 288.481249 
L 142.674947 285.909171 
" clip-path="url(#p0030e16105)" style="fill: none; stroke: #f29888; stroke-width: 0.2"/>
    <path d="M 256.662825 336.015104 
L 211.331151 294.01013 
L 156.847366 243.473501 
" clip-path="url(#p0030e16105)" style="fill: none; stroke: #f29888; stroke-width: 0.2"/>
    <path d="M 202.331171 213.719171 
L 200.55092 214.677349 
L 199.131574 214.880599 
L 197.307625 214.778974 
L 193.554532 214.372474 
L 189.803056 213.866769 
L 187.470927 213.561894 
L 185.74732 213.866769 
L 184.023713 214.677349 
L 182.198146 216.300928 
L 171.348323 225.527021 
L 160.194239 235.157193 
L 157.86211 237.489728 
L 156.747025 238.910057 
L 156.442764 240.531217 
L 156.847366 243.473501 
L 156.340804 245.29791 
L 155.32606 246.817445 
L 154.515237 248.644274 
L 153.298192 253.713423 
L 152.79163 258.985821 
L 151.676545 264.25822 
L 150.966063 269.733868 
L 149.952938 272.673732 
L 148.025411 276.020096 
L 144.578197 281.59495 
L 143.056892 284.537234 
L 142.674947 285.909171 
L 140.789499 288.895008 
L 139.842729 290.789587 
L 138.895958 294.581165 
L 137.711282 302.752294 
L 136.408462 308.317469 
L 135.579836 311.160548 
L 135.223785 313.173689 
L 135.105641 314.831144 
L 135.69798 316.488598 
L 139.37339 325.090423 
" clip-path="url(#p0030e16105)" style="fill: none; stroke: #f29888; stroke-width: 0.2"/>
    <path d="M 227.769345 244.030018 
L 230.517406 241.402288 
L 234.13779 237.431656 
L 236.824351 234.044158 
L 239.743963 229.139545 
L 243.131296 220.029596 
L 247.335926 208.468549 
L 258.899468 179.972433 
L 261.937225 172.732866 
" clip-path="url(#p0030e16105)" style="fill: none; stroke: #f29888; stroke-width: 0.2"/>
    <path d="M 155.883993 161.204257 
L 145.403587 169.171154 
L 126.659158 187.156349 
L 113.206931 199.549751 
L 102.149951 208.780683 
L 98.13953 213.934519 
L 96.30749 216.281571 
" clip-path="url(#p0030e16105)" style="fill: none; stroke: #f29888; stroke-width: 0.2"/>
    <path d="M 68.043571 257.877626 
L 54.421411 254.763547 
L 42.95115 250.634639 
" clip-path="url(#p0030e16105)" style="fill: none; stroke: #f29888; stroke-width: 0.2"/>
    <path d="M 183.846735 150.701667 
L 184.001055 152.458692 
L 184.539986 163.574524 
L 186.19562 180.052282 
L 186.830037 182.670333 
L 188.532604 188.112107 
L 191.461927 194.860487 
L 193.45419 199.380377 
L 196.122949 204.633418 
L 198.689748 208.623407 
L 201.381164 212.555324 
L 202.331171 213.719171 
L 210.763089 224.055879 
L 227.769345 244.030018 
L 243.977725 263.629113 
L 285.561161 309.73054 
L 291.931224 316.40875 
" clip-path="url(#p0030e16105)" style="fill: none; stroke: #f29888; stroke-width: 0.2"/>
   </g>
  </g>
 </g>
 <defs>
  <clipPath id="p0030e16105">
   <rect x="7.2" y="7.2" width="778.633895" height="831.6"/>
  </clipPath>
 </defs>
</svg>
