<?xml version="1.0" encoding="utf-8" standalone="no"?>
<!DOCTYPE svg PUBLIC "-//W3C//DTD SVG 1.1//EN"
  "http://www.w3.org/Graphics/SVG/1.1/DTD/svg11.dtd">
<svg xmlns:xlink="http://www.w3.org/1999/xlink" width="851.4pt" height="541.783318pt" viewBox="0 0 851.4 541.783318" xmlns="http://www.w3.org/2000/svg" version="1.1">
 <metadata>
  <rdf:RDF xmlns:dc="http://purl.org/dc/elements/1.1/" xmlns:cc="http://creativecommons.org/ns#" xmlns:rdf="http://www.w3.org/1999/02/22-rdf-syntax-ns#">
   <cc:Work>
    <dc:type rdf:resource="http://purl.org/dc/dcmitype/StillImage"/>
    <dc:date>2025-03-16T14:29:45.915960</dc:date>
    <dc:format>image/svg+xml</dc:format>
    <dc:creator>
     <cc:Agent>
      <dc:title>Matplotlib v3.10.1, https://matplotlib.org/</dc:title>
     </cc:Agent>
    </dc:creator>
   </cc:Work>
  </rdf:RDF>
 </metadata>
 <defs>
  <style type="text/css">*{stroke-linejoin: round; stroke-linecap: butt}</style>
 </defs>
 <g id="figure_1">
  <g id="patch_1">
   <path d="M 0 541.783318 
L 851.4 541.783318 
L 851.4 -0 
L 0 -0 
z
" style="fill: #ffffff"/>
  </g>
  <g id="axes_1">
   <g id="PatchCollection_1">
    <path d="M 45.245455 493.580089 
L 52.249343 510.611349 
L 100.424665 499.532296 
L 168.762426 460.282928 
L 277.85324 455.677434 
L 346.307614 454.440058 
L 350.17898 490.325309 
L 375.809758 477.870208 
L 381.440108 457.222821 
L 447.792781 428.900501 
L 387.807522 396.07269 
L 415.378879 374.506604 
L 408.175591 324.463527 
L 358.235944 263.16539 
L 381.614582 202.184597 
L 353.512682 170.196815 
L 256.756118 182.658583 
L 281.391681 239.629903 
L 207.42357 245.523441 
L 217.833264 278.376587 
L 141.083359 285.419499 
L 129.244046 383.46825 
L 160.066317 398.86212 
L 175.288291 417.129424 
L 115.735656 453.797368 
L 45.245455 493.580089 
" clip-path="url(#p156534ebee)" style="fill: #f29888"/>
    <path d="M 499.773597 31.171969 
L 438.291065 78.990969 
L 462.130813 137.577012 
L 459.281366 182.730586 
L 484.985138 176.529036 
L 568.709555 199.68051 
L 682.473782 119.265707 
L 752.767255 179.083792 
L 774.733187 179.274465 
L 806.154545 179.083792 
L 804.022579 79.052305 
L 742.361122 78.168274 
L 649.159913 50.653981 
L 558.274046 64.510465 
L 499.773597 31.171969 
" clip-path="url(#p156534ebee)" style="fill: #f29888"/>
   </g>
   <g id="PatchCollection_2">
    <path d="M 148.393467 462.420336 
L 147.43831 463.10836 
L 146.832102 462.266997 
L 147.787258 461.578973 
L 148.393467 462.420336 
" clip-path="url(#p156534ebee)" style="fill: #f29888"/>
    <path d="M 150.364312 461.234961 
L 150.86726 461.998988 
L 149.940589 462.609676 
L 149.437641 461.844316 
L 150.364312 461.234961 
" clip-path="url(#p156534ebee)" style="fill: #f29888"/>
    <path d="M 152.086798 461.006953 
L 151.195734 461.633642 
L 150.665191 460.878949 
L 151.556255 460.25226 
L 152.086798 461.006953 
" clip-path="url(#p156534ebee)" style="fill: #f29888"/>
    <path d="M 152.546128 459.157555 
L 153.130082 459.95625 
L 152.564822 460.370931 
L 151.980868 459.572236 
L 152.546128 459.157555 
" clip-path="url(#p156534ebee)" style="fill: #f29888"/>
    <path d="M 156.181598 457.776174 
L 156.523425 458.72154 
L 155.535332 459.078886 
L 155.193505 458.134853 
L 156.181598 457.776174 
" clip-path="url(#p156534ebee)" style="fill: #f29888"/>
    <path d="M 164.640921 453.484024 
L 165.500829 453.516025 
L 165.45632 454.698733 
L 164.596412 454.666732 
L 164.640921 453.484024 
" clip-path="url(#p156534ebee)" style="fill: #f29888"/>
    <path d="M 158.021588 428.771163 
L 157.590101 428.026612 
L 159.239497 427.01104 
L 159.696005 427.797795 
L 158.021588 428.771163 
" clip-path="url(#p156534ebee)" style="fill: #f29888"/>
    <path d="M 164.43173 425.060367 
L 163.999996 425.34171 
L 163.700898 424.883027 
L 162.724377 425.520383 
L 162.419485 425.053048 
L 163.851247 424.171478 
L 164.43173 425.060367 
" clip-path="url(#p156534ebee)" style="fill: #f29888"/>
    <path d="M 166.267269 424.168336 
L 165.112713 424.725688 
L 164.700563 423.872325 
L 165.855118 423.314973 
L 166.267269 424.168336 
" clip-path="url(#p156534ebee)" style="fill: #f29888"/>
    <path d="M 166.186263 423.52298 
L 166.040275 422.949626 
L 167.644368 422.541612 
L 167.790356 423.114966 
L 166.186263 423.52298 
" clip-path="url(#p156534ebee)" style="fill: #f29888"/>
    <path d="M 183.041706 453.922706 
L 183.086215 455.041412 
L 182.433717 455.068079 
L 182.390099 453.94804 
L 183.041706 453.922706 
" clip-path="url(#p156534ebee)" style="fill: #f29888"/>
    <path d="M 176.856778 453.220015 
L 176.978732 454.828071 
L 175.89539 454.910741 
L 175.773436 453.302685 
L 176.856778 453.220015 
" clip-path="url(#p156534ebee)" style="fill: #f29888"/>
    <path d="M 179.464987 454.196049 
L 178.640686 454.23605 
L 178.570363 452.776 
L 179.393773 452.735998 
L 179.464987 454.196049 
" clip-path="url(#p156534ebee)" style="fill: #f29888"/>
    <path d="M 171.928775 452.250648 
L 173.826626 451.989305 
L 174.067863 453.741367 
L 173.596961 453.806702 
L 173.505273 453.140012 
L 172.82251 453.234682 
L 172.913307 453.897372 
L 172.169122 454.000042 
L 171.928775 452.250648 
" clip-path="url(#p156534ebee)" style="fill: #f29888"/>
    <path d="M 187.10268 454.272052 
L 186.246332 454.404056 
L 185.741604 451.119942 
L 186.597951 450.989271 
L 187.10268 454.272052 
" clip-path="url(#p156534ebee)" style="fill: #f29888"/>
    <path d="M 171.182809 452.263982 
L 171.08222 451.469287 
L 171.613653 451.401285 
L 171.822844 453.044009 
L 170.585503 453.201348 
L 170.477792 452.353318 
L 171.182809 452.263982 
" clip-path="url(#p156534ebee)" style="fill: #f29888"/>
    <path d="M 168.684981 450.970603 
L 168.799814 452.177312 
L 168.177582 452.235981 
L 168.06275 451.030605 
L 168.684981 450.970603 
" clip-path="url(#p156534ebee)" style="fill: #f29888"/>
    <path d="M 178.96827 445.698419 
L 181.824838 445.665085 
L 181.838191 446.831792 
L 178.981623 446.863793 
L 178.96827 445.698419 
" clip-path="url(#p156534ebee)" style="fill: #f29888"/>
    <path d="M 186.895269 420.265533 
L 186.855211 421.065561 
L 185.078424 420.977558 
L 185.118482 420.176196 
L 186.895269 420.265533 
" clip-path="url(#p156534ebee)" style="fill: #f29888"/>
    <path d="M 183.032804 419.768182 
L 182.979394 420.521542 
L 181.36996 420.406871 
L 181.42337 419.653512 
L 183.032804 419.768182 
" clip-path="url(#p156534ebee)" style="fill: #f29888"/>
    <path d="M 207.655905 452.453322 
L 207.717327 454.50806 
L 206.45061 454.546728 
L 206.389188 452.490656 
L 207.655905 452.453322 
" clip-path="url(#p156534ebee)" style="fill: #f29888"/>
    <path d="M 203.811244 451.975972 
L 203.827267 452.529324 
L 204.464632 452.510657 
L 204.529614 454.706734 
L 203.696412 454.732068 
L 203.683059 454.272052 
L 202.648677 454.302719 
L 202.581914 452.011973 
L 203.811244 451.975972 
" clip-path="url(#p156534ebee)" style="fill: #f29888"/>
    <path d="M 200.235415 452.633328 
L 200.223843 452.202646 
L 201.265347 452.174645 
L 201.288491 453.026675 
L 200.682283 453.042675 
L 200.72056 454.393389 
L 199.49034 454.428057 
L 199.468085 453.624029 
L 199.197473 453.632029 
L 199.170767 452.662662 
L 200.235415 452.633328 
" clip-path="url(#p156534ebee)" style="fill: #f29888"/>
    <path d="M 197.261344 453.276017 
L 197.729576 453.220015 
L 197.603171 452.169312 
L 198.388304 452.074642 
L 198.521831 453.17468 
L 198.301067 453.201348 
L 198.439044 454.344054 
L 197.405552 454.468059 
L 197.261344 453.276017 
" clip-path="url(#p156534ebee)" style="fill: #f29888"/>
    <path d="M 190.312647 451.254613 
L 190.564566 453.973375 
L 189.821271 454.04271 
L 189.569352 451.323949 
L 190.312647 451.254613 
" clip-path="url(#p156534ebee)" style="fill: #f29888"/>
    <path d="M 195.34302 450.647925 
L 195.571794 452.809334 
L 194.602395 452.912004 
L 194.37273 450.750596 
L 195.34302 450.647925 
" clip-path="url(#p156534ebee)" style="fill: #f29888"/>
    <path d="M 200.426803 419.688179 
L 200.569231 422.121598 
L 199.682617 422.173599 
L 199.589149 420.57221 
L 199.112906 420.600211 
L 199.063946 419.768182 
L 200.426803 419.688179 
" clip-path="url(#p156534ebee)" style="fill: #f29888"/>
    <path d="M 204.438817 419.825518 
L 204.465522 421.264234 
L 202.481324 421.301569 
L 202.454619 419.862852 
L 204.438817 419.825518 
" clip-path="url(#p156534ebee)" style="fill: #f29888"/>
    <path d="M 192.43037 420.172196 
L 192.37429 420.997558 
L 190.364277 420.861554 
L 190.420358 420.036192 
L 192.43037 420.172196 
" clip-path="url(#p156534ebee)" style="fill: #f29888"/>
    <path d="M 208.010194 419.614844 
L 208.116125 420.777551 
L 207.512587 420.833553 
L 207.485882 420.540209 
L 206.96335 420.586877 
L 206.884124 419.717514 
L 208.010194 419.614844 
" clip-path="url(#p156534ebee)" style="fill: #f29888"/>
    <path d="M 158.59753 378.186733 
L 154.227667 379.808123 
L 153.666857 378.29607 
L 158.035831 376.67468 
L 158.59753 378.186733 
" clip-path="url(#p156534ebee)" style="fill: #f29888"/>
    <path d="M 149.874716 376.222664 
L 147.724946 380.840159 
L 146.276633 380.164135 
L 148.426403 375.547974 
L 149.874716 376.222664 
" clip-path="url(#p156534ebee)" style="fill: #f29888"/>
    <path d="M 159.834872 372.533202 
L 161.454099 376.953356 
L 159.970179 377.496042 
L 158.351842 373.075888 
L 159.834872 372.533202 
" clip-path="url(#p156534ebee)" style="fill: #f29888"/>
    <path d="M 155.313679 372.222525 
L 153.229782 376.813351 
L 151.730729 376.133328 
L 153.814626 371.542501 
L 155.313679 372.222525 
" clip-path="url(#p156534ebee)" style="fill: #f29888"/>
    <path d="M 147.069778 371.661172 
L 145.027719 376.28 
L 143.534898 375.619977 
L 145.577847 371.001149 
L 147.069778 371.661172 
" clip-path="url(#p156534ebee)" style="fill: #f29888"/>
    <path d="M 149.162577 369.743772 
L 153.971297 368.129049 
L 154.504511 369.718437 
L 149.696681 371.334494 
L 149.162577 369.743772 
" clip-path="url(#p156534ebee)" style="fill: #f29888"/>
    <path d="M 157.734952 366.36232 
L 159.359519 370.707805 
L 157.831091 371.279825 
L 156.206523 366.93434 
L 157.734952 366.36232 
" clip-path="url(#p156534ebee)" style="fill: #f29888"/>
    <path d="M 161.951706 364.704929 
L 163.710689 369.271755 
L 162.141313 369.875776 
L 160.382329 365.30895 
L 161.951706 364.704929 
" clip-path="url(#p156534ebee)" style="fill: #f29888"/>
    <path d="M 167.547339 362.603523 
L 168.147316 364.111575 
L 163.782794 365.851636 
L 163.181926 364.343583 
L 167.547339 362.603523 
" clip-path="url(#p156534ebee)" style="fill: #f29888"/>
    <path d="M 156.181598 362.134173 
L 155.725829 363.8689 
L 147.818415 361.788828 
L 148.274184 360.055434 
L 156.181598 362.134173 
" clip-path="url(#p156534ebee)" style="fill: #f29888"/>
    <path d="M 189.828392 374.794614 
L 179.913635 378.598747 
L 179.694652 378.026727 
L 177.448743 378.88809 
L 179.383982 383.936266 
L 177.936559 384.490952 
L 175.439621 377.981392 
L 176.942235 377.404039 
L 177.184362 378.036061 
L 179.440063 377.170697 
L 179.264698 376.714681 
L 183.071082 375.25463 
L 182.042041 372.57187 
L 183.990632 371.823844 
L 185.021453 374.511938 
L 189.117143 372.941216 
L 189.828392 374.794614 
" clip-path="url(#p156534ebee)" style="fill: #f29888"/>
    <path d="M 179.066189 371.447831 
L 179.9893 373.666575 
L 175.710234 375.447971 
L 174.807597 373.278562 
L 175.930107 372.811879 
L 176.362731 373.851915 
L 178.296189 373.047887 
L 177.8422 371.957182 
L 179.066189 371.447831 
" clip-path="url(#p156534ebee)" style="fill: #f29888"/>
    <path d="M 171.091121 361.686157 
L 172.903515 366.564994 
L 171.041272 367.186349 
L 169.224427 362.446184 
L 171.091121 361.686157 
" clip-path="url(#p156534ebee)" style="fill: #f29888"/>
    <path d="M 175.581159 359.787425 
L 177.443402 364.53959 
L 175.89717 365.146278 
L 174.058961 360.394112 
L 175.581159 359.787425 
" clip-path="url(#p156534ebee)" style="fill: #f29888"/>
    <path d="M 190.138173 360.0381 
L 191.063063 362.554188 
L 189.295178 363.203544 
L 188.370287 360.687456 
L 190.138173 360.0381 
" clip-path="url(#p156534ebee)" style="fill: #f29888"/>
    <path d="M 177.046385 359.163403 
L 181.483902 357.487344 
L 182.060735 358.99673 
L 177.695322 360.70079 
L 177.046385 359.163403 
" clip-path="url(#p156534ebee)" style="fill: #f29888"/>
    <path d="M 184.44462 356.455308 
L 186.051384 361.056802 
L 184.593279 361.566153 
L 182.986515 356.96466 
L 184.44462 356.455308 
" clip-path="url(#p156534ebee)" style="fill: #f29888"/>
    <path d="M 170.157329 356.932658 
L 169.474566 358.603383 
L 165.0958 356.812654 
L 165.778563 355.141929 
L 170.157329 356.932658 
" clip-path="url(#p156534ebee)" style="fill: #f29888"/>
    <path d="M 190.42926 354.159228 
L 190.987399 355.712616 
L 188.899051 356.461975 
L 189.719791 358.747388 
L 187.942114 359.386077 
L 186.564124 355.547277 
L 190.42926 354.159228 
" clip-path="url(#p156534ebee)" style="fill: #f29888"/>
    <path d="M 172.085446 352.605841 
L 176.590616 354.469906 
L 175.882928 356.181966 
L 171.385769 354.320567 
L 172.085446 352.605841 
" clip-path="url(#p156534ebee)" style="fill: #f29888"/>
    <path d="M 162.236561 358.727388 
L 161.544896 360.668789 
L 158.004675 359.408745 
L 158.69545 357.467344 
L 162.236561 358.727388 
" clip-path="url(#p156534ebee)" style="fill: #f29888"/>
    <path d="M 154.445759 356.977993 
L 154.017586 358.694053 
L 145.926795 356.669983 
L 146.354969 354.955256 
L 154.445759 356.977993 
" clip-path="url(#p156534ebee)" style="fill: #f29888"/>
    <path d="M 160.729497 353.688545 
L 160.020028 355.397938 
L 155.520199 353.52854 
L 156.229668 351.82048 
L 160.729497 353.688545 
" clip-path="url(#p156534ebee)" style="fill: #f29888"/>
    <path d="M 167.526865 351.4178 
L 166.956264 352.915185 
L 162.679868 351.284462 
L 163.25136 349.787076 
L 167.526865 351.4178 
" clip-path="url(#p156534ebee)" style="fill: #f29888"/>
    <path d="M 152.670753 351.211126 
L 152.220325 352.86985 
L 143.841117 350.597771 
L 144.290655 348.939046 
L 152.670753 351.211126 
" clip-path="url(#p156534ebee)" style="fill: #f29888"/>
    <path d="M 158.765773 347.89101 
L 158.110605 349.669739 
L 153.466568 347.960346 
L 154.121736 346.181617 
L 158.765773 347.89101 
" clip-path="url(#p156534ebee)" style="fill: #f29888"/>
    <path d="M 150.308231 347.260321 
L 142.034064 345.342921 
L 142.42307 343.662862 
L 150.697237 345.580263 
L 150.308231 347.260321 
" clip-path="url(#p156534ebee)" style="fill: #f29888"/>
    <path d="M 156.807391 342.188144 
L 156.072107 343.966873 
L 151.761885 342.186811 
L 152.496278 340.408082 
L 156.807391 342.188144 
" clip-path="url(#p156534ebee)" style="fill: #f29888"/>
    <path d="M 163.266493 339.889398 
L 162.669186 341.416118 
L 158.398131 339.748059 
L 158.994548 338.220006 
L 163.266493 339.889398 
" clip-path="url(#p156534ebee)" style="fill: #f29888"/>
    <path d="M 165.14921 325.404893 
L 165.739396 327.000948 
L 163.76232 327.73164 
L 163.172134 326.136918 
L 165.14921 325.404893 
" clip-path="url(#p156534ebee)" style="fill: #f29888"/>
    <path d="M 178.534756 350.37243 
L 183.207279 352.341832 
L 182.538758 353.917887 
L 177.859114 351.864482 
L 178.534756 350.37243 
" clip-path="url(#p156534ebee)" style="fill: #f29888"/>
    <path d="M 185.588494 348.379027 
L 186.44039 350.661773 
L 188.622206 349.848411 
L 189.196369 351.387132 
L 185.462979 352.780514 
L 184.036921 348.959047 
L 185.588494 348.379027 
" clip-path="url(#p156534ebee)" style="fill: #f29888"/>
    <path d="M 180.535867 346.840307 
L 179.88604 348.515032 
L 175.512615 346.816306 
L 176.162442 345.141581 
L 180.535867 346.840307 
" clip-path="url(#p156534ebee)" style="fill: #f29888"/>
    <path d="M 184.422366 344.684231 
L 185.321442 347.354991 
L 183.606967 347.932345 
L 182.707891 345.260252 
L 184.422366 344.684231 
" clip-path="url(#p156534ebee)" style="fill: #f29888"/>
    <path d="M 167.559801 341.458786 
L 171.970613 343.248181 
L 171.349272 344.781568 
L 166.93846 342.992172 
L 167.559801 341.458786 
" clip-path="url(#p156534ebee)" style="fill: #f29888"/>
    <path d="M 178.283727 340.901433 
L 177.731819 342.449487 
L 173.33614 340.881432 
L 173.888048 339.333378 
L 178.283727 340.901433 
" clip-path="url(#p156534ebee)" style="fill: #f29888"/>
    <path d="M 169.634797 337.366643 
L 169.031259 339.013367 
L 164.83943 337.477314 
L 165.442968 335.830589 
L 169.634797 337.366643 
" clip-path="url(#p156534ebee)" style="fill: #f29888"/>
    <path d="M 181.107358 335.805255 
L 181.873798 338.128003 
L 180.03915 338.733357 
L 179.27271 336.411943 
L 181.107358 335.805255 
" clip-path="url(#p156534ebee)" style="fill: #f29888"/>
    <path d="M 176.124165 334.939892 
L 175.505494 336.545281 
L 171.233549 334.89989 
L 171.85222 333.294501 
L 176.124165 334.939892 
" clip-path="url(#p156534ebee)" style="fill: #f29888"/>
    <path d="M 181.041485 329.61704 
L 181.644133 331.319766 
L 179.333242 332.138461 
L 180.191369 334.563879 
L 178.595287 335.127898 
L 177.134512 330.999754 
L 181.041485 329.61704 
" clip-path="url(#p156534ebee)" style="fill: #f29888"/>
    <path d="M 193.551099 324.919542 
L 194.233863 326.690271 
L 190.187132 328.251659 
L 189.504369 326.48093 
L 193.551099 324.919542 
" clip-path="url(#p156534ebee)" style="fill: #f29888"/>
    <path d="M 199.222397 322.898139 
L 200.661809 326.879611 
L 198.990062 327.483632 
L 198.175553 325.232887 
L 195.893147 326.058249 
L 195.267355 324.327522 
L 199.222397 322.898139 
" clip-path="url(#p156534ebee)" style="fill: #f29888"/>
    <path d="M 204.1504 321.578093 
L 204.622192 322.872804 
L 202.085197 323.796837 
L 201.613405 322.503458 
L 204.1504 321.578093 
" clip-path="url(#p156534ebee)" style="fill: #f29888"/>
    <path d="M 208.60216 319.811364 
L 209.075733 321.078075 
L 205.997511 322.228782 
L 205.523939 320.962071 
L 208.60216 319.811364 
" clip-path="url(#p156534ebee)" style="fill: #f29888"/>
    <path d="M 177.608085 327.516966 
L 172.793134 329.222359 
L 171.789018 326.384927 
L 173.23466 325.872909 
L 173.54266 326.742273 
L 175.17702 326.162252 
L 174.845875 325.227553 
L 176.579044 324.612865 
L 177.608085 327.516966 
" clip-path="url(#p156534ebee)" style="fill: #f29888"/>
    <path d="M 186.524067 319.562022 
L 187.059061 321.03274 
L 178.918421 323.99551 
L 178.383426 322.523459 
L 186.524067 319.562022 
" clip-path="url(#p156534ebee)" style="fill: #f29888"/>
    <path d="M 179.672398 310.943055 
L 180.273265 312.635114 
L 172.424602 315.423211 
L 171.823734 313.729819 
L 179.672398 310.943055 
" clip-path="url(#p156534ebee)" style="fill: #f29888"/>
    <path d="M 174.651817 295.707857 
L 175.207286 297.361248 
L 167.028368 300.110678 
L 166.472899 298.457287 
L 174.651817 295.707857 
" clip-path="url(#p156534ebee)" style="fill: #f29888"/>
    <path d="M 156.670304 319.290013 
L 157.278293 320.964738 
L 143.883846 325.823574 
L 143.275857 324.148849 
L 156.670304 319.290013 
" clip-path="url(#p156534ebee)" style="fill: #f29888"/>
    <path d="M 166.68209 310.653712 
L 167.290079 312.419107 
L 153.965956 317.007267 
L 153.357967 315.241872 
L 166.68209 310.653712 
" clip-path="url(#p156534ebee)" style="fill: #f29888"/>
    <path d="M 161.635694 298.830633 
L 161.46211 300.508025 
L 154.70747 299.809334 
L 154.881054 298.130609 
L 161.635694 298.830633 
" clip-path="url(#p156534ebee)" style="fill: #f29888"/>
    <path d="M 153.099816 295.765193 
L 152.932464 297.570589 
L 144.845234 296.823896 
L 145.012586 295.017167 
L 153.099816 295.765193 
" clip-path="url(#p156534ebee)" style="fill: #f29888"/>
    <path d="M 369.970217 373.437234 
L 370.474055 375.881319 
L 369.315939 376.119994 
L 368.812101 373.675909 
L 369.970217 373.437234 
" clip-path="url(#p156534ebee)" style="fill: #f29888"/>
    <path d="M 374.870624 365.21028 
L 375.136786 366.359654 
L 373.5683 366.722333 
L 374.121988 369.114416 
L 375.834683 368.717069 
L 376.07681 369.765106 
L 372.75201 370.534466 
L 371.690033 365.946306 
L 374.870624 365.21028 
" clip-path="url(#p156534ebee)" style="fill: #f29888"/>
    <path d="M 363.504884 361.719492 
L 363.661554 363.882234 
L 362.080606 363.996905 
L 361.924825 361.834163 
L 363.504884 361.719492 
" clip-path="url(#p156534ebee)" style="fill: #f29888"/>
    <path d="M 235.774719 357.702019 
L 237.184754 361.658156 
L 235.562857 362.236843 
L 234.153712 358.279372 
L 235.774719 357.702019 
" clip-path="url(#p156534ebee)" style="fill: #f29888"/>
    <path d="M 243.391047 355.116595 
L 244.809094 358.954062 
L 243.083047 359.592751 
L 241.665 355.753951 
L 243.391047 355.116595 
" clip-path="url(#p156534ebee)" style="fill: #f29888"/>
    <path d="M 234.099411 352.87385 
L 235.649204 356.837988 
L 233.894671 357.523346 
L 232.345769 353.559207 
L 234.099411 352.87385 
" clip-path="url(#p156534ebee)" style="fill: #f29888"/>
    <path d="M 347.477302 348.667037 
L 347.196898 351.976486 
L 344.023428 351.707143 
L 344.145381 350.264426 
L 345.619509 350.389764 
L 345.77796 348.523032 
L 347.477302 348.667037 
" clip-path="url(#p156534ebee)" style="fill: #f29888"/>
    <path d="M 213.627192 452.331984 
L 213.763388 453.621362 
L 212.686278 453.7347 
L 212.550081 452.445321 
L 213.627192 452.331984 
" clip-path="url(#p156534ebee)" style="fill: #f29888"/>
    <path d="M 211.786312 451.93597 
L 211.909156 453.937373 
L 210.559652 454.020043 
L 210.49645 452.988007 
L 211.016312 452.956006 
L 210.95667 451.986639 
L 211.786312 451.93597 
" clip-path="url(#p156534ebee)" style="fill: #f29888"/>
    <path d="M 211.635873 419.240164 
L 211.786312 419.985523 
L 209.920508 420.364203 
L 209.770068 419.618844 
L 211.635873 419.240164 
" clip-path="url(#p156534ebee)" style="fill: #f29888"/>
    <path d="M 218.151946 417.582773 
L 218.32909 418.672144 
L 216.508685 418.968154 
L 216.33154 417.87745 
L 218.151946 417.582773 
" clip-path="url(#p156534ebee)" style="fill: #f29888"/>
    <path d="M 219.940305 417.445435 
L 220.043565 418.464137 
L 218.620177 418.609475 
L 218.516917 417.590773 
L 219.940305 417.445435 
" clip-path="url(#p156534ebee)" style="fill: #f29888"/>
    <path d="M 222.170191 416.822746 
L 222.264549 417.741445 
L 220.933739 417.878783 
L 220.838491 416.960084 
L 222.170191 416.822746 
" clip-path="url(#p156534ebee)" style="fill: #f29888"/>
    <path d="M 225.324967 416.517402 
L 225.427337 417.446768 
L 224.401857 417.558772 
L 224.300377 416.629406 
L 225.324967 416.517402 
" clip-path="url(#p156534ebee)" style="fill: #f29888"/>
    <path d="M 218.330871 364.115575 
L 219.801438 368.122382 
L 218.131472 368.735737 
L 216.660904 364.72893 
L 218.330871 364.115575 
" clip-path="url(#p156534ebee)" style="fill: #f29888"/>
    <path d="M 223.014966 364.868935 
L 223.633637 366.623663 
L 221.534607 367.362355 
L 220.916826 365.608961 
L 223.014966 364.868935 
" clip-path="url(#p156534ebee)" style="fill: #f29888"/>
    <path d="M 225.426447 361.582154 
L 226.864968 365.440955 
L 225.170077 366.072977 
L 223.731556 362.214176 
L 225.426447 361.582154 
" clip-path="url(#p156534ebee)" style="fill: #f29888"/>
    <path d="M 206.176436 419.664179 
L 206.293939 420.653546 
L 205.409106 420.758883 
L 205.290713 419.770849 
L 206.176436 419.664179 
" clip-path="url(#p156534ebee)" style="fill: #f29888"/>
    <path d="M 201.830607 384.013602 
L 199.781427 384.828298 
L 199.278478 383.56292 
L 201.328549 382.749558 
L 201.830607 384.013602 
" clip-path="url(#p156534ebee)" style="fill: #f29888"/>
    <path d="M 205.661916 382.88823 
L 203.340342 383.564253 
L 202.957567 382.246874 
L 205.278251 381.570851 
L 205.661916 382.88823 
" clip-path="url(#p156534ebee)" style="fill: #f29888"/>
    <path d="M 208.467744 380.396143 
L 208.886125 381.569517 
L 206.889465 382.218873 
L 206.465743 381.112168 
L 208.467744 380.396143 
" clip-path="url(#p156534ebee)" style="fill: #f29888"/>
    <path d="M 191.55889 363.58489 
L 192.404555 365.916972 
L 194.603285 365.11961 
L 195.201482 366.767668 
L 191.228636 368.209052 
L 189.784774 364.228913 
L 191.55889 363.58489 
" clip-path="url(#p156534ebee)" style="fill: #f29888"/>
    <path d="M 201.423798 362.698193 
L 202.070954 364.296915 
L 196.478881 366.559661 
L 195.831725 364.960938 
L 201.423798 362.698193 
" clip-path="url(#p156534ebee)" style="fill: #f29888"/>
    <path d="M 207.638102 360.182105 
L 208.312853 361.9635 
L 203.241533 363.887568 
L 202.565891 362.106172 
L 207.638102 360.182105 
" clip-path="url(#p156534ebee)" style="fill: #f29888"/>
    <path d="M 201.646341 353.877885 
L 202.271243 355.55261 
L 196.381852 357.75402 
L 195.75606 356.079295 
L 201.646341 353.877885 
" clip-path="url(#p156534ebee)" style="fill: #f29888"/>
    <path d="M 195.471205 352.208494 
L 196.172662 354.043224 
L 192.244324 355.545943 
L 191.541977 353.711213 
L 195.471205 352.208494 
" clip-path="url(#p156534ebee)" style="fill: #f29888"/>
    <path d="M 203.411556 349.317726 
L 204.007082 350.904448 
L 200.149068 352.355166 
L 199.552652 350.768444 
L 203.411556 349.317726 
" clip-path="url(#p156534ebee)" style="fill: #f29888"/>
    <path d="M 216.668026 359.131402 
L 218.044235 363.031538 
L 216.268338 363.658226 
L 214.892129 359.75809 
L 216.668026 359.131402 
" clip-path="url(#p156534ebee)" style="fill: #f29888"/>
    <path d="M 210.840947 359.130068 
L 209.969467 356.836655 
L 211.594035 356.2193 
L 213.10822 360.206106 
L 209.057929 361.744826 
L 208.414333 360.052767 
L 210.840947 359.130068 
" clip-path="url(#p156534ebee)" style="fill: #f29888"/>
    <path d="M 223.529486 356.51131 
L 225.041002 360.474115 
L 223.333648 361.124805 
L 221.821243 357.163333 
L 223.529486 356.51131 
" clip-path="url(#p156534ebee)" style="fill: #f29888"/>
    <path d="M 214.474637 353.53254 
L 216.060037 357.871358 
L 214.433689 358.464712 
L 212.84829 354.127227 
L 214.474637 353.53254 
" clip-path="url(#p156534ebee)" style="fill: #f29888"/>
    <path d="M 210.205363 352.669843 
L 211.069722 355.028592 
L 209.31964 355.669948 
L 208.455281 353.311199 
L 210.205363 352.669843 
" clip-path="url(#p156534ebee)" style="fill: #f29888"/>
    <path d="M 221.537277 351.067121 
L 223.053243 355.331269 
L 221.533716 355.871288 
L 220.01775 351.607139 
L 221.537277 351.067121 
" clip-path="url(#p156534ebee)" style="fill: #f29888"/>
    <path d="M 213.699296 349.788409 
L 214.466626 352.00982 
L 212.74948 352.603174 
L 211.98126 350.381763 
L 213.699296 349.788409 
" clip-path="url(#p156534ebee)" style="fill: #f29888"/>
    <path d="M 220.180652 347.422994 
L 221.158063 349.927081 
L 219.40086 350.612438 
L 218.423449 348.108351 
L 220.180652 347.422994 
" clip-path="url(#p156534ebee)" style="fill: #f29888"/>
    <path d="M 213.482093 346.148282 
L 213.979701 347.436327 
L 210.964682 348.601701 
L 210.467074 347.313656 
L 213.482093 346.148282 
" clip-path="url(#p156534ebee)" style="fill: #f29888"/>
    <path d="M 227.544171 344.681565 
L 228.607929 347.672336 
L 226.914818 348.275023 
L 227.041222 348.987048 
L 226.848945 349.480399 
L 226.05402 349.809743 
L 225.313395 349.591069 
L 224.92973 348.987048 
L 223.210804 349.599069 
L 222.145266 346.602965 
L 227.544171 344.681565 
" clip-path="url(#p156534ebee)" style="fill: #f29888"/>
    <path d="M 232.108983 347.194986 
L 232.484636 348.207021 
L 232.19889 348.312358 
L 232.911919 350.233758 
L 233.243064 350.109754 
L 233.633851 351.163124 
L 231.779618 351.851148 
L 230.300149 347.865676 
L 232.108983 347.194986 
" clip-path="url(#p156534ebee)" style="fill: #f29888"/>
    <path d="M 241.008051 348.231022 
L 239.400397 348.937713 
L 237.83013 345.362922 
L 239.438675 344.65623 
L 241.008051 348.231022 
" clip-path="url(#p156534ebee)" style="fill: #f29888"/>
    <path d="M 245.335187 344.038876 
L 246.250285 346.461627 
L 251.129329 344.618896 
L 251.621595 345.925608 
L 244.116539 348.75904 
L 243.579764 347.336324 
L 244.385371 347.03098 
L 243.514781 344.7269 
L 245.335187 344.038876 
" clip-path="url(#p156534ebee)" style="fill: #f29888"/>
    <path d="M 230.783514 343.617528 
L 231.642531 345.97761 
L 229.949421 346.593631 
L 229.090403 344.233549 
L 230.783514 343.617528 
" clip-path="url(#p156534ebee)" style="fill: #f29888"/>
    <path d="M 231.94252 339.518718 
L 232.530035 341.073439 
L 230.180866 341.96147 
L 230.371363 342.464154 
L 228.574992 343.144178 
L 227.79698 341.088106 
L 231.94252 339.518718 
" clip-path="url(#p156534ebee)" style="fill: #f29888"/>
    <path d="M 236.630176 337.934663 
L 237.078824 339.145372 
L 233.831469 340.349414 
L 233.382821 339.138705 
L 236.630176 337.934663 
" clip-path="url(#p156534ebee)" style="fill: #f29888"/>
    <path d="M 241.529693 336.1306 
L 241.990803 337.430645 
L 239.330964 338.376012 
L 238.868963 337.075966 
L 241.529693 336.1306 
" clip-path="url(#p156534ebee)" style="fill: #f29888"/>
    <path d="M 250.864947 333.737183 
L 251.947398 336.533281 
L 248.302136 337.943996 
L 247.219685 335.147899 
L 250.864947 333.737183 
" clip-path="url(#p156534ebee)" style="fill: #f29888"/>
    <path d="M 231.12356 334.226534 
L 231.741341 335.913259 
L 229.201675 336.843958 
L 228.583894 335.155899 
L 231.12356 334.226534 
" clip-path="url(#p156534ebee)" style="fill: #f29888"/>
    <path d="M 235.253967 333.285167 
L 235.671459 334.471875 
L 232.692047 335.519912 
L 232.275445 334.333204 
L 235.253967 333.285167 
" clip-path="url(#p156534ebee)" style="fill: #f29888"/>
    <path d="M 208.511362 347.497663 
L 209.907155 351.33113 
L 208.199801 351.952485 
L 207.450275 349.893746 
L 205.002297 350.785777 
L 204.35603 349.009716 
L 208.511362 347.497663 
" clip-path="url(#p156534ebee)" style="fill: #f29888"/>
    <path d="M 193.784325 347.681669 
L 194.407447 349.360394 
L 190.599283 350.773777 
L 189.976161 349.095052 
L 193.784325 347.681669 
" clip-path="url(#p156534ebee)" style="fill: #f29888"/>
    <path d="M 201.636549 344.885572 
L 202.244538 346.642966 
L 198.410559 347.968346 
L 197.80346 346.210951 
L 201.636549 344.885572 
" clip-path="url(#p156534ebee)" style="fill: #f29888"/>
    <path d="M 197.337899 342.141476 
L 197.912061 343.694864 
L 192.27548 345.78027 
L 191.700428 344.226882 
L 197.337899 342.141476 
" clip-path="url(#p156534ebee)" style="fill: #f29888"/>
    <path d="M 205.187453 343.40952 
L 204.361371 341.10144 
L 206.090979 340.482752 
L 207.533951 344.516226 
L 203.142723 346.086947 
L 202.524943 344.362887 
L 205.187453 343.40952 
" clip-path="url(#p156534ebee)" style="fill: #f29888"/>
    <path d="M 208.073397 335.675917 
L 209.21816 338.848028 
L 207.806345 339.358712 
L 206.662471 336.185268 
L 208.073397 335.675917 
" clip-path="url(#p156534ebee)" style="fill: #f29888"/>
    <path d="M 203.621637 335.011894 
L 205.091314 339.08937 
L 203.515706 339.65739 
L 202.046919 335.578581 
L 203.621637 335.011894 
" clip-path="url(#p156534ebee)" style="fill: #f29888"/>
    <path d="M 198.499576 332.951822 
L 200.334225 337.621319 
L 198.508478 338.338677 
L 196.67383 333.669181 
L 198.499576 332.951822 
" clip-path="url(#p156534ebee)" style="fill: #f29888"/>
    <path d="M 201.07752 328.610338 
L 202.743035 332.675813 
L 201.174549 333.318502 
L 199.509924 329.253027 
L 201.07752 328.610338 
" clip-path="url(#p156534ebee)" style="fill: #f29888"/>
    <path d="M 204.871441 326.542266 
L 206.065164 329.854381 
L 204.71121 330.342398 
L 203.516596 327.030283 
L 204.871441 326.542266 
" clip-path="url(#p156534ebee)" style="fill: #f29888"/>
    <path d="M 219.063484 344.045543 
L 219.794317 346.124282 
L 218.391403 346.616299 
L 218.203576 346.081613 
L 215.518811 347.025646 
L 214.976695 345.481593 
L 219.063484 344.045543 
" clip-path="url(#p156534ebee)" style="fill: #f29888"/>
    <path d="M 211.456948 341.836132 
L 211.92785 343.01484 
L 208.845177 344.248216 
L 208.373385 343.069508 
L 211.456948 341.836132 
" clip-path="url(#p156534ebee)" style="fill: #f29888"/>
    <path d="M 214.878776 340.089405 
L 215.51169 341.734795 
L 213.10555 342.660161 
L 212.472636 341.01477 
L 214.878776 340.089405 
" clip-path="url(#p156534ebee)" style="fill: #f29888"/>
    <path d="M 218.627299 338.846695 
L 218.416327 338.264008 
L 220.054247 337.671987 
L 220.806444 339.752059 
L 216.747251 341.218777 
L 216.206916 339.721392 
L 218.627299 338.846695 
" clip-path="url(#p156534ebee)" style="fill: #f29888"/>
    <path d="M 224.618169 335.869257 
L 224.859406 336.551948 
L 227.281569 335.695918 
L 227.837038 337.267973 
L 223.923833 338.652021 
L 223.126238 336.397276 
L 224.618169 335.869257 
" clip-path="url(#p156534ebee)" style="fill: #f29888"/>
    <path d="M 218.208917 333.055826 
L 219.320744 335.999929 
L 218.055807 336.478612 
L 216.94398 333.534509 
L 218.208917 333.055826 
" clip-path="url(#p156534ebee)" style="fill: #f29888"/>
    <path d="M 222.72655 331.498438 
L 223.912261 334.459875 
L 222.746133 334.926558 
L 221.561312 331.966455 
L 222.72655 331.498438 
" clip-path="url(#p156534ebee)" style="fill: #f29888"/>
    <path d="M 215.088857 327.996983 
L 216.121459 331.095758 
L 214.856522 331.518439 
L 213.82392 328.418331 
L 215.088857 327.996983 
" clip-path="url(#p156534ebee)" style="fill: #f29888"/>
    <path d="M 214.262776 322.060776 
L 215.351459 325.015546 
L 214.034001 325.500896 
L 212.945319 322.546126 
L 214.262776 322.060776 
" clip-path="url(#p156534ebee)" style="fill: #f29888"/>
    <path d="M 218.469738 320.508722 
L 219.650108 323.388822 
L 218.488432 323.864839 
L 217.308061 320.984739 
L 218.469738 320.508722 
" clip-path="url(#p156534ebee)" style="fill: #f29888"/>
    <path d="M 209.67571 319.410017 
L 212.85185 318.267311 
L 213.331654 319.60069 
L 210.155513 320.743397 
L 209.67571 319.410017 
" clip-path="url(#p156534ebee)" style="fill: #f29888"/>
    <path d="M 219.337657 316.101902 
L 219.735565 317.264609 
L 216.582569 318.344647 
L 216.184661 317.181939 
L 219.337657 316.101902 
" clip-path="url(#p156534ebee)" style="fill: #f29888"/>
    <path d="M 223.634527 314.483179 
L 224.123232 315.705888 
L 221.049462 316.935264 
L 220.560756 315.712555 
L 223.634527 314.483179 
" clip-path="url(#p156534ebee)" style="fill: #f29888"/>
    <path d="M 227.84861 312.880456 
L 228.36135 314.175168 
L 225.466505 315.321875 
L 224.953765 314.027163 
L 227.84861 312.880456 
" clip-path="url(#p156534ebee)" style="fill: #f29888"/>
    <path d="M 243.61181 329.62104 
L 244.245614 331.355767 
L 239.476062 333.098494 
L 238.842258 331.362434 
L 243.61181 329.62104 
" clip-path="url(#p156534ebee)" style="fill: #f29888"/>
    <path d="M 242.932607 320.212712 
L 243.289567 321.190079 
L 244.397833 320.784732 
L 244.025741 319.767363 
L 245.255961 319.318014 
L 246.226251 321.974106 
L 242.836468 323.212816 
L 241.880422 320.598058 
L 242.932607 320.212712 
" clip-path="url(#p156534ebee)" style="fill: #f29888"/>
    <path d="M 762.674891 170.023476 
L 762.654417 170.438157 
L 761.957411 170.407489 
L 761.957411 169.991475 
L 762.674891 170.023476 
" clip-path="url(#p156534ebee)" style="fill: #f29888"/>
    <path d="M 758.580091 164.931299 
L 758.497305 165.451317 
L 755.638956 164.972633 
L 755.701268 164.473949 
L 758.580091 164.931299 
" clip-path="url(#p156534ebee)" style="fill: #f29888"/>
    <path d="M 685.762974 112.544139 
L 684.098349 113.16016 
L 683.066637 110.246726 
L 684.749066 109.686706 
L 685.762974 112.544139 
" clip-path="url(#p156534ebee)" style="fill: #f29888"/>
    <path d="M 659.473468 106.013245 
L 659.757433 107.446628 
L 658.701687 107.634635 
L 658.418612 106.170583 
L 659.473468 106.013245 
" clip-path="url(#p156534ebee)" style="fill: #f29888"/>
    <path d="M 630.897105 99.422348 
L 630.987903 101.339748 
L 626.246836 101.449086 
L 626.138235 99.549019 
L 630.897105 99.422348 
" clip-path="url(#p156534ebee)" style="fill: #f29888"/>
    <path d="M 656.321362 99.962367 
L 654.709257 100.965069 
L 654.136875 100.010369 
L 654.589974 99.723692 
L 654.829431 100.093038 
L 655.986657 99.401014 
L 656.321362 99.962367 
" clip-path="url(#p156534ebee)" style="fill: #f29888"/>
    <path d="M 639.400046 99.154339 
L 639.47215 101.10774 
L 635.165489 101.181076 
L 635.111188 99.227675 
L 639.400046 99.154339 
" clip-path="url(#p156534ebee)" style="fill: #f29888"/>
    <path d="M 645.15413 98.919664 
L 645.244928 100.909067 
L 640.95607 100.963735 
L 640.883966 98.991667 
L 645.15413 98.919664 
" clip-path="url(#p156534ebee)" style="fill: #f29888"/>
    <path d="M 661.466567 98.516983 
L 661.617897 100.217043 
L 660.369873 100.257044 
L 660.219434 98.598319 
L 661.466567 98.516983 
" clip-path="url(#p156534ebee)" style="fill: #f29888"/>
    <path d="M 656.691674 98.303643 
L 656.751316 99.114337 
L 655.986657 99.17434 
L 655.903871 98.363645 
L 656.691674 98.303643 
" clip-path="url(#p156534ebee)" style="fill: #f29888"/>
    <path d="M 655.366206 97.062266 
L 655.449882 98.648988 
L 654.483153 98.684989 
L 654.399477 97.110268 
L 655.366206 97.062266 
" clip-path="url(#p156534ebee)" style="fill: #f29888"/>
   </g>
   <g id="LineCollection_1">
    <path d="M 343.804445 419.053491 
L 347.049129 432.015276 
L 347.82447 437.340795 
L 348.136031 440.45957 
L 348.864193 447.742491 
L 349.373373 452.829335 
L 350.085512 464.800419 
L 349.25765 470.345945 
L 348.416885 473.991743 
" clip-path="url(#p156534ebee)" style="fill: none; stroke: #f29888; stroke-width: 0.5"/>
    <path d="M 127.016457 484.259466 
L 137.080247 475.16878 
L 155.469459 462.55234 
L 160.452653 459.122887 
L 166.434622 457.85751 
" clip-path="url(#p156534ebee)" style="fill: none; stroke: #f29888; stroke-width: 0.2"/>
    <path d="M 57.79095 486.499758 
L 55.739715 491.394679 
" clip-path="url(#p156534ebee)" style="fill: none; stroke: #f29888; stroke-width: 0.2"/>
    <path d="M 108.110427 461.994988 
L 103.097857 465.291102 
L 98.036328 473.506056 
L 92.783412 477.710202 
L 70.339457 485.734482 
L 55.739715 491.394679 
L 51.953805 492.861397 
L 45.914997 495.208206 
" clip-path="url(#p156534ebee)" style="fill: none; stroke: #f29888; stroke-width: 0.2"/>
    <path d="M 160.452653 459.122887 
L 161.669521 457.76284 
L 160.666295 452.365319 
L 160.543451 449.346547 
" clip-path="url(#p156534ebee)" style="fill: none; stroke: #f29888; stroke-width: 0.2"/>
    <path d="M 100.318778 462.498228 
L 108.110427 461.994988 
L 127.683571 451.25328 
L 137.020605 443.79702 
L 137.172785 440.598029 
" clip-path="url(#p156534ebee)" style="fill: none; stroke: #f29888; stroke-width: 0.2"/>
    <path d="M 166.434622 457.85751 
L 164.243904 455.893442 
L 162.711024 454.077378 
L 160.543451 449.346547 
L 159.916768 447.106469 
L 158.833427 444.938393 
L 156.742408 442.284967 
L 155.725829 441.176929 
L 149.407375 435.272723 
L 147.45515 434.266937 
" clip-path="url(#p156534ebee)" style="fill: none; stroke: #f29888; stroke-width: 0.2"/>
    <path d="M 192.015876 459.301236 
L 191.731584 456.218786 
" clip-path="url(#p156534ebee)" style="fill: none; stroke: #f29888; stroke-width: 0.2"/>
    <path d="M 270.271629 454.853405 
L 270.352521 455.994092 
" clip-path="url(#p156534ebee)" style="fill: none; stroke: #f29888; stroke-width: 0.2"/>
    <path d="M 166.434622 457.85751 
L 172.275053 457.534832 
L 176.376974 456.380125 
L 191.731584 456.218786 
L 270.271629 454.853405 
L 274.320139 454.626731 
L 291.31623 454.149381 
L 333.246982 453.357353 
L 349.373373 452.829335 
" clip-path="url(#p156534ebee)" style="fill: none; stroke: #f29888; stroke-width: 0.2"/>
    <path d="M 288.215754 431.032575 
L 289.206518 437.931482 
L 289.567038 440.803582 
L 290.268495 445.102399 
L 290.616553 447.409146 
L 291.31623 454.149381 
" clip-path="url(#p156534ebee)" style="fill: none; stroke: #f29888; stroke-width: 0.2"/>
    <path d="M 287.865916 429.881868 
L 288.215754 431.032575 
" clip-path="url(#p156534ebee)" style="fill: none; stroke: #f29888; stroke-width: 0.2"/>
    <path d="M 285.88973 415.712041 
L 284.926562 419.598843 
L 286.104262 425.005698 
L 287.059418 428.468486 
L 287.865916 429.881868 
" clip-path="url(#p156534ebee)" style="fill: none; stroke: #f29888; stroke-width: 0.2"/>
    <path d="M 267.571731 409.497157 
L 270.89475 410.223849 
L 272.27719 413.39596 
L 273.333827 418.357466 
L 274.757215 419.537508 
L 279.839218 418.64281 
L 284.556249 417.544105 
L 285.88973 415.712041 
" clip-path="url(#p156534ebee)" style="fill: none; stroke: #f29888; stroke-width: 0.2"/>
    <path d="M 293.66985 406.198376 
L 281.733508 407.707762 
L 267.571731 409.497157 
L 266.33795 409.653163 
L 248.225581 410.953208 
L 236.083609 411.825239 
L 219.630525 414.439996 
L 204.769961 416.802745 
L 198.735472 417.761446 
L 178.212513 416.838747 
L 174.56894 416.266158 
" clip-path="url(#p156534ebee)" style="fill: none; stroke: #f29888; stroke-width: 0.2"/>
    <path d="M 206.569003 395.755345 
L 213.2097 397.411403 
L 217.393518 397.776749 
L 225.518135 400.114164 
L 225.861742 400.212834 
L 231.316728 400.679517 
L 239.499206 405.270343 
L 248.225581 410.953208 
" clip-path="url(#p156534ebee)" style="fill: none; stroke: #f29888; stroke-width: 0.2"/>
    <path d="M 137.020605 443.79702 
L 140.462017 441.124927 
L 143.141441 438.070154 
L 146.007801 436.263424 
L 149.407375 435.272723 
" clip-path="url(#p156534ebee)" style="fill: none; stroke: #f29888; stroke-width: 0.2"/>
    <path d="M 152.01362 431.460181 
L 149.407375 435.272723 
" clip-path="url(#p156534ebee)" style="fill: none; stroke: #f29888; stroke-width: 0.2"/>
    <path d="M 180.174456 406.241044 
L 179.075091 406.674392 
L 178.45464 407.343749 
L 176.734824 408.537124 
L 175.922985 409.206481 
L 174.177354 410.426523 
L 171.840648 412.358591 
L 171.527847 412.616659 
" clip-path="url(#p156534ebee)" style="fill: none; stroke: #f29888; stroke-width: 0.2"/>
    <path d="M 198.881461 404.948999 
L 200.327993 407.313081 
L 200.985832 408.387785 
L 202.467081 410.537194 
L 203.542411 412.42526 
L 204.529614 415.650705 
L 204.769961 416.802745 
" clip-path="url(#p156534ebee)" style="fill: none; stroke: #f29888; stroke-width: 0.2"/>
    <path d="M 213.2097 397.411403 
L 209.518149 399.755485 
L 205.717997 401.495545 
L 200.594155 403.448947 
L 199.684398 404.296976 
L 198.881461 404.948999 
L 197.812362 405.815696 
L 194.394984 407.998439 
L 192.210498 408.739798 
L 179.692872 412.989279 
L 174.252869 415.886854 
" clip-path="url(#p156534ebee)" style="fill: none; stroke: #f29888; stroke-width: 0.2"/>
    <path d="M 199.84997 394.823313 
L 197.554212 402.655586 
L 197.812362 405.815696 
L 197.623645 407.669094 
L 197.213275 411.698568 
L 198.735472 417.761446 
" clip-path="url(#p156534ebee)" style="fill: none; stroke: #f29888; stroke-width: 0.2"/>
    <path d="M 181.956584 395.111323 
L 180.818942 397.326067 
L 179.518398 400.623515 
L 178.682525 402.435578 
L 177.057067 404.711657 
L 176.035147 406.151708 
L 174.177354 410.426523 
" clip-path="url(#p156534ebee)" style="fill: none; stroke: #f29888; stroke-width: 0.2"/>
    <path d="M 197.644119 388.107078 
L 196.005309 389.508461 
L 194.052267 393.105919 
L 194.042475 394.231292 
L 193.40066 395.196659 
L 192.206937 395.918017 
L 190.849422 397.259398 
L 189.491906 398.600778 
L 189.070854 398.75545 
L 188.415686 399.370138 
L 187.607408 399.502142 
L 187.134726 399.843488 
L 187.018113 400.355505 
L 186.28639 401.06353 
L 184.624435 402.751589 
L 183.665718 403.006265 
L 182.933105 403.190271 
L 181.734931 404.579653 
L 180.174456 406.241044 
L 179.610976 407.94377 
L 178.288177 409.990508 
L 174.098068 415.701083 
" clip-path="url(#p156534ebee)" style="fill: none; stroke: #f29888; stroke-width: 0.2"/>
    <path d="M 197.644119 388.107078 
L 199.84997 394.823313 
L 206.569003 395.755345 
L 209.518149 399.755485 
L 209.895583 401.144866 
L 212.713873 404.454315 
L 212.956001 404.738325 
L 217.6125 410.127846 
L 219.941195 411.923909 
L 219.630525 414.439996 
" clip-path="url(#p156534ebee)" style="fill: none; stroke: #f29888; stroke-width: 0.2"/>
    <path d="M 130.370259 374.141374 
L 140.585751 370.501131 
L 157.745634 364.323583 
L 167.614992 360.656788 
L 184.619094 354.464572 
L 208.746368 345.677599 
L 219.292259 341.836132 
L 222.777289 340.566755 
L 226.037106 339.430715 
L 237.012951 335.341239 
L 250.21601 330.574406 
L 259.141784 327.084951 
L 268.631038 323.352821 
L 269.237246 323.136814 
L 279.74664 319.996704 
L 287.996772 319.083339 
L 292.549121 318.717993 
L 302.836861 318.309979 
L 304.00833 318.936667 
L 305.068527 320.227379 
L 306.119822 322.932807 
L 308.72002 337.235972 
L 309.240772 339.050702 
L 310.380195 340.302745 
L 330.06105 347.162985 
L 338.165193 350.695108 
L 344.220156 352.979187 
L 348.161846 354.181896 
L 351.708299 354.953923 
L 361.434339 355.969958 
L 364.073705 356.932658 
L 365.68403 357.895359 
L 366.013394 359.352743 
L 366.243949 361.638156 
L 367.828458 374.661276 
L 368.174736 375.923987 
L 368.829014 377.718716 
" clip-path="url(#p156534ebee)" style="fill: none; stroke: #f29888; stroke-width: 0.2"/>
    <path d="M 194.394984 407.998439 
L 197.623645 407.669094 
L 200.327993 407.313081 
L 204.9658 406.835731 
L 208.517593 405.901032 
L 211.664358 404.935665 
L 212.713873 404.454315 
L 214.374938 403.502282 
L 216.245193 403.034266 
L 218.831148 401.943561 
L 223.847278 400.728852 
L 225.518135 400.114164 
L 226.682482 399.014125 
L 228.209131 398.079426 
L 231.355895 396.023354 
L 234.845377 392.688572 
" clip-path="url(#p156534ebee)" style="fill: none; stroke: #f29888; stroke-width: 0.2"/>
    <path d="M 192.210498 408.739798 
L 190.322439 406.075705 
L 188.936438 404.868996 
L 188.295513 403.868961 
L 187.089327 403.124935 
L 186.730587 402.406244 
L 186.28639 401.06353 
L 186.370957 400.071496 
L 185.191476 398.454106 
L 183.241105 397.196729 
L 181.956584 395.111323 
L 181.265809 393.98995 
L 180.240329 391.527198 
L 180.265254 389.371123 
L 176.300419 385.841666 
" clip-path="url(#p156534ebee)" style="fill: none; stroke: #f29888; stroke-width: 0.2"/>
    <path d="M 181.956584 395.111323 
L 183.473441 393.467265 
L 184.345811 391.691203 
L 185.560898 387.608394 
L 187.391986 384.333614 
L 186.495581 381.53885 
" clip-path="url(#p156534ebee)" style="fill: none; stroke: #f29888; stroke-width: 0.2"/>
    <path d="M 193.792337 378.460076 
L 186.495581 381.53885 
L 176.300419 385.841666 
" clip-path="url(#p156534ebee)" style="fill: none; stroke: #f29888; stroke-width: 0.2"/>
    <path d="M 167.614992 360.656788 
L 170.576601 369.181085 
L 176.300419 385.841666 
" clip-path="url(#p156534ebee)" style="fill: none; stroke: #f29888; stroke-width: 0.2"/>
    <path d="M 197.644119 388.107078 
L 193.792337 378.460076 
L 190.589491 369.581099 
L 187.690194 362.81553 
L 184.619094 354.464572 
" clip-path="url(#p156534ebee)" style="fill: none; stroke: #f29888; stroke-width: 0.2"/>
    <path d="M 274.037954 370.221122 
L 277.178488 380.049464 
L 277.368985 394.139289 
L 278.802165 401.494212 
L 281.733508 407.707762 
L 285.88973 415.712041 
L 287.7315 413.147951 
L 290.5489 410.663865 
L 294.512845 409.183813 
L 296.917204 408.586459 
" clip-path="url(#p156534ebee)" style="fill: none; stroke: #f29888; stroke-width: 0.2"/>
    <path d="M 250.921918 370.575801 
L 252.611468 373.195892 
L 255.197423 379.402775 
L 255.475158 380.554815 
L 255.64162 381.244173 
L 259.504975 387.976407 
L 263.873058 399.239467 
L 267.571731 409.497157 
" clip-path="url(#p156534ebee)" style="fill: none; stroke: #f29888; stroke-width: 0.2"/>
    <path d="M 217.393518 397.776749 
L 219.046571 397.274065 
L 221.80878 396.559373 
L 222.67848 396.615375 
L 224.529152 396.208694 
L 225.846609 395.41 
L 227.977685 395.255328 
L 231.17519 393.839278 
L 233.460267 393.292593 
L 234.845377 392.688572 
L 236.573205 391.931212 
L 239.167172 390.655167 
L 244.410296 387.584394 
L 246.781719 384.622957 
L 247.651419 383.441583 
L 250.853375 382.494883 
L 255.475158 380.554815 
" clip-path="url(#p156534ebee)" style="fill: none; stroke: #f29888; stroke-width: 0.2"/>
    <path d="M 280.688444 359.122068 
L 271.520543 361.86883 
L 259.488062 366.580995 
L 258.649518 366.971675 
L 250.921918 370.575801 
L 221.14293 380.468146 
L 197.644119 388.107078 
" clip-path="url(#p156534ebee)" style="fill: none; stroke: #f29888; stroke-width: 0.2"/>
    <path d="M 274.037954 370.221122 
L 270.191513 371.122486 
L 262.218225 371.371828 
L 260.866051 371.087819 
L 259.797842 369.98378 
L 258.649518 366.971675 
" clip-path="url(#p156534ebee)" style="fill: none; stroke: #f29888; stroke-width: 0.2"/>
    <path d="M 267.953616 351.82048 
L 247.184968 359.471414 
L 246.055337 359.488748 
L 244.778828 359.443413 
L 235.057239 363.328881 
L 227.872645 365.854303 
L 217.519032 369.489096 
L 193.792337 378.460076 
" clip-path="url(#p156534ebee)" style="fill: none; stroke: #f29888; stroke-width: 0.2"/>
    <path d="M 219.292259 341.836132 
L 227.872645 365.854303 
" clip-path="url(#p156534ebee)" style="fill: none; stroke: #f29888; stroke-width: 0.2"/>
    <path d="M 226.037106 339.430715 
L 235.057239 363.328881 
" clip-path="url(#p156534ebee)" style="fill: none; stroke: #f29888; stroke-width: 0.2"/>
    <path d="M 271.55793 330.623741 
L 277.990327 339.741392 
L 279.087911 345.664266 
L 279.040732 351.633807 
L 280.902976 354.545909 
L 280.688444 359.122068 
L 280.56827 360.516783 
L 286.25114 368.53973 
L 290.518634 370.187787 
" clip-path="url(#p156534ebee)" style="fill: none; stroke: #f29888; stroke-width: 0.2"/>
    <path d="M 274.037954 370.221122 
L 271.520543 361.86883 
L 267.953616 351.82048 
L 264.624365 342.732163 
L 259.141784 327.084951 
" clip-path="url(#p156534ebee)" style="fill: none; stroke: #f29888; stroke-width: 0.2"/>
    <path d="M 160.775786 372.825212 
L 170.576601 369.181085 
L 187.690194 362.81553 
" clip-path="url(#p156534ebee)" style="fill: none; stroke: #f29888; stroke-width: 0.2"/>
    <path d="M 214.214707 361.018134 
L 190.589491 369.581099 
" clip-path="url(#p156534ebee)" style="fill: none; stroke: #f29888; stroke-width: 0.2"/>
    <path d="M 221.14293 380.468146 
L 217.519032 369.489096 
L 214.214707 361.018134 
L 208.746368 345.677599 
" clip-path="url(#p156534ebee)" style="fill: none; stroke: #f29888; stroke-width: 0.2"/>
    <path d="M 184.619094 354.464572 
L 175.493031 330.573073 
L 149.677098 339.67739 
L 157.745634 364.323583 
L 160.775786 372.825212 
L 162.58907 377.569378 
" clip-path="url(#p156534ebee)" style="fill: none; stroke: #f29888; stroke-width: 0.2"/>
    <path d="M 140.585751 370.501131 
L 133.051198 351.938845 
" clip-path="url(#p156534ebee)" style="fill: none; stroke: #f29888; stroke-width: 0.2"/>
    <path d="M 208.746368 345.677599 
L 199.671045 321.704764 
" clip-path="url(#p156534ebee)" style="fill: none; stroke: #f29888; stroke-width: 0.2"/>
    <path d="M 214.02955 316.437913 
L 222.777289 340.566755 
" clip-path="url(#p156534ebee)" style="fill: none; stroke: #f29888; stroke-width: 0.2"/>
    <path d="M 175.493031 330.573073 
L 195.266465 323.319487 
L 199.671045 321.704764 
L 214.02955 316.437913 
" clip-path="url(#p156534ebee)" style="fill: none; stroke: #f29888; stroke-width: 0.2"/>
    <path d="M 242.783948 350.568437 
L 264.624365 342.732163 
" clip-path="url(#p156534ebee)" style="fill: none; stroke: #f29888; stroke-width: 0.2"/>
    <path d="M 250.921918 370.575801 
L 246.055337 359.488748 
L 242.783948 350.568437 
L 237.012951 335.341239 
L 237.130454 332.775816 
L 232.642197 318.513986 
L 252.889202 310.873719 
L 250.279213 302.760103 
" clip-path="url(#p156534ebee)" style="fill: none; stroke: #f29888; stroke-width: 0.2"/>
    <path d="M 302.180803 337.995998 
L 295.438625 336.735954 
L 276.724499 330.938419 
L 271.55793 330.623741 
L 268.631038 323.352821 
" clip-path="url(#p156534ebee)" style="fill: none; stroke: #f29888; stroke-width: 0.2"/>
    <path d="M 252.889202 310.873719 
L 254.406949 314.809857 
L 259.141784 327.084951 
" clip-path="url(#p156534ebee)" style="fill: none; stroke: #f29888; stroke-width: 0.2"/>
    <path d="M 254.406949 314.809857 
L 265.081915 311.460407 
L 274.748313 307.83628 
L 283.097254 304.720172 
" clip-path="url(#p156534ebee)" style="fill: none; stroke: #f29888; stroke-width: 0.2"/>
    <path d="M 279.74664 319.996704 
L 274.748313 307.83628 
L 270.248484 295.657189 
L 260.624814 298.934637 
" clip-path="url(#p156534ebee)" style="fill: none; stroke: #f29888; stroke-width: 0.2"/>
    <path d="M 276.432522 285.110155 
L 283.097254 304.720172 
L 287.996772 319.083339 
" clip-path="url(#p156534ebee)" style="fill: none; stroke: #f29888; stroke-width: 0.2"/>
    <path d="M 269.237246 323.136814 
L 265.081915 311.460407 
L 260.624814 298.934637 
L 250.279213 302.760103 
L 229.401964 310.637711 
L 214.02955 316.437913 
L 212.409434 310.620377 
L 215.381069 278.601611 
" clip-path="url(#p156534ebee)" style="fill: none; stroke: #f29888; stroke-width: 0.2"/>
    <path d="M 219.322524 276.008504 
L 221.965451 277.891236 
L 226.880101 295.913198 
L 229.401964 310.637711 
" clip-path="url(#p156534ebee)" style="fill: none; stroke: #f29888; stroke-width: 0.2"/>
    <path d="M 297.108592 264.457435 
L 293.289746 265.877484 
L 286.868921 268.449574 
L 287.01847 282.747406 
L 287.088794 283.699439 
L 287.637141 287.64891 
L 292.356843 303.104115 
L 292.549121 318.717993 
" clip-path="url(#p156534ebee)" style="fill: none; stroke: #f29888; stroke-width: 0.2"/>
    <path d="M 370.074367 284.322127 
L 373.165051 285.17549 
L 376.241492 286.922218 
L 378.480496 288.01445 
" clip-path="url(#p156534ebee)" style="fill: none; stroke: #f29888; stroke-width: 0.2"/>
    <path d="M 358.150488 272.895062 
L 362.911138 272.957731 
L 370.074367 284.322127 
L 348.504563 288.271598 
L 338.270234 289.783651 
" clip-path="url(#p156534ebee)" style="fill: none; stroke: #f29888; stroke-width: 0.2"/>
    <path d="M 308.697766 262.437364 
L 332.181444 258.109213 
" clip-path="url(#p156534ebee)" style="fill: none; stroke: #f29888; stroke-width: 0.2"/>
    <path d="M 335.777747 276.815199 
L 343.619289 275.727161 
L 358.150488 272.895062 
L 354.602254 262.833378 
L 352.398184 250.926296 
L 351.069154 231.986969 
" clip-path="url(#p156534ebee)" style="fill: none; stroke: #f29888; stroke-width: 0.2"/>
    <path d="M 352.398184 250.926296 
L 342.251091 251.760992 
L 331.983825 253.241044 
" clip-path="url(#p156534ebee)" style="fill: none; stroke: #f29888; stroke-width: 0.2"/>
    <path d="M 295.902406 253.369048 
L 329.793107 249.390243 
L 331.589478 250.922296 
" clip-path="url(#p156534ebee)" style="fill: none; stroke: #f29888; stroke-width: 0.2"/>
    <path d="M 352.398184 250.926296 
L 359.1368 250.074267 
L 363.936036 248.297282 
" clip-path="url(#p156534ebee)" style="fill: none; stroke: #f29888; stroke-width: 0.2"/>
    <path d="M 330.928079 234.288383 
L 337.043574 232.880334 
L 348.217927 233.453687 
L 351.069154 231.986969 
L 351.942415 209.006168 
L 352.322519 197.792444 
" clip-path="url(#p156534ebee)" style="fill: none; stroke: #f29888; stroke-width: 0.2"/>
    <path d="M 351.069154 231.986969 
L 355.356232 231.865632 
L 362.304929 228.753523 
L 371.690761 228.069873 
" clip-path="url(#p156534ebee)" style="fill: none; stroke: #f29888; stroke-width: 0.2"/>
    <path d="M 373.634571 222.999642 
L 373.821109 197.776444 
" clip-path="url(#p156534ebee)" style="fill: none; stroke: #f29888; stroke-width: 0.2"/>
    <path d="M 377.560767 197.570228 
L 373.821109 197.776444 
L 369.324841 198.024452 
L 352.322519 197.792444 
L 348.313176 197.737776 
L 336.812129 197.361762 
" clip-path="url(#p156534ebee)" style="fill: none; stroke: #f29888; stroke-width: 0.2"/>
    <path d="M 267.893974 287.571574 
L 276.432522 285.110155 
L 283.804943 282.684737 
L 287.01847 282.747406 
" clip-path="url(#p156534ebee)" style="fill: none; stroke: #f29888; stroke-width: 0.2"/>
    <path d="M 286.868921 268.449574 
L 284.726273 265.212128 
L 274.16703 265.669477 
L 271.215213 266.584176 
L 261.331612 268.453574 
L 243.376804 271.127001 
L 231.343433 271.891027 
L 220.360467 275.520487 
L 219.322524 276.008504 
L 217.373222 276.924689 
" clip-path="url(#p156534ebee)" style="fill: none; stroke: #f29888; stroke-width: 0.2"/>
    <path d="M 300.06931 237.049813 
L 290.102033 239.500565 
L 290.580056 243.416701 
L 287.046066 248.382208 
L 279.787588 255.162444 
L 273.580405 262.229357 
L 271.215213 266.584176 
L 269.473143 269.774953 
L 265.557267 278.083243 
L 267.341176 285.674174 
L 267.893974 287.571574 
L 270.248484 295.657189 
" clip-path="url(#p156534ebee)" style="fill: none; stroke: #f29888; stroke-width: 0.2"/>
    <path d="M 290.580056 243.416701 
L 292.39156 245.470106 
L 294.366856 250.900962 
L 295.902406 253.369048 
L 298.535541 262.090686 
L 297.108592 264.457435 
" clip-path="url(#p156534ebee)" style="fill: none; stroke: #f29888; stroke-width: 0.2"/>
    <path d="M 278.62413 181.955892 
L 286.522644 180.037158 
L 290.0975 178.364378 
" clip-path="url(#p156534ebee)" style="fill: none; stroke: #f29888; stroke-width: 0.2"/>
    <path d="M 290.315418 178.336311 
L 294.052625 178.415769 
" clip-path="url(#p156534ebee)" style="fill: none; stroke: #f29888; stroke-width: 0.2"/>
    <path d="M 278.62413 181.955892 
L 278.964915 179.7982 
" clip-path="url(#p156534ebee)" style="fill: none; stroke: #f29888; stroke-width: 0.2"/>
    <path d="M 302.171901 177.934419 
L 301.947119 176.838205 
" clip-path="url(#p156534ebee)" style="fill: none; stroke: #f29888; stroke-width: 0.2"/>
    <path d="M 195.266465 323.319487 
L 187.964368 303.924144 
L 187.163211 302.228085 
L 186.266806 300.330685 
L 184.18736 297.935935 
" clip-path="url(#p156534ebee)" style="fill: none; stroke: #f29888; stroke-width: 0.2"/>
    <path d="M 164.598193 291.066362 
L 164.310667 299.974673 
L 165.474124 304.921512 
L 171.252243 324.128848 
" clip-path="url(#p156534ebee)" style="fill: none; stroke: #f29888; stroke-width: 0.2"/>
    <path d="M 187.163211 302.228085 
L 180.09256 309.576341 
L 176.142858 297.837265 
L 174.77021 295.442515 
L 170.273052 292.681085 
L 164.598193 291.066362 
" clip-path="url(#p156534ebee)" style="fill: none; stroke: #f29888; stroke-width: 0.2"/>
    <path d="M 211.360875 278.970522 
L 181.487463 287.316898 
L 169.132739 290.769019 
L 164.598193 291.066362 
L 164.02314 291.103697 
L 157.576501 291.246369 
L 148.694346 288.811617 
L 140.958078 286.457027 
" clip-path="url(#p156534ebee)" style="fill: none; stroke: #f29888; stroke-width: 0.2"/>
    <path d="M 218.074199 244.674834 
L 215.893536 272.254778 
" clip-path="url(#p156534ebee)" style="fill: none; stroke: #f29888; stroke-width: 0.2"/>
    <path d="M 290.616553 447.409146 
L 291.453317 446.87046 
L 292.837537 446.607785 
L 295.058521 446.499781 
L 307.020678 446.433112 
L 310.864449 446.685121 
L 315.401666 445.046397 
L 331.721224 443.407673 
L 333.246982 453.357353 
" clip-path="url(#p156534ebee)" style="fill: none; stroke: #f29888; stroke-width: 0.2"/>
    <path d="M 412.091466 438.208825 
L 380.551714 449.325213 
L 349.373373 452.829335 
" clip-path="url(#p156534ebee)" style="fill: none; stroke: #f29888; stroke-width: 0.2"/>
    <path d="M 400.214766 429.417852 
L 396.022937 430.532557 
L 381.697368 438.811513 
L 370.44913 442.896988 
L 361.004385 444.065029 
L 348.864193 447.742491 
" clip-path="url(#p156534ebee)" style="fill: none; stroke: #f29888; stroke-width: 0.2"/>
    <path d="M 343.102988 416.572071 
L 343.804445 419.053491 
" clip-path="url(#p156534ebee)" style="fill: none; stroke: #f29888; stroke-width: 0.5"/>
    <path d="M 368.829014 377.718716 
L 357.361794 380.378809 
L 348.94965 382.381546 
L 344.551301 383.790928 
L 342.334768 384.758962 
L 340.105772 385.985671 
L 338.954777 387.597727 
L 338.134927 389.427125 
L 338.005852 393.013916 
L 339.170199 402.076899 
L 341.139264 409.794501 
L 343.102988 416.572071 
" clip-path="url(#p156534ebee)" style="fill: none; stroke: #f29888; stroke-width: 0.5"/>
    <path d="M 380.551714 449.325213 
L 382.455464 456.789421 
" clip-path="url(#p156534ebee)" style="fill: none; stroke: #f29888; stroke-width: 0.2"/>
    <path d="M 348.558591 475.305273 
L 356.429781 472.879367 
L 378.013828 466.192467 
L 379.041898 466.017437 
" clip-path="url(#p156534ebee)" style="fill: none; stroke: #f29888; stroke-width: 0.2"/>
    <path d="M 413.415007 443.574489 
L 412.091466 438.208825 
" clip-path="url(#p156534ebee)" style="fill: none; stroke: #f29888; stroke-width: 0.2"/>
    <path d="M 400.214766 429.417852 
L 404.870375 428.460485 
L 408.471129 427.549787 
" clip-path="url(#p156534ebee)" style="fill: none; stroke: #f29888; stroke-width: 0.2"/>
    <path d="M 348.136031 440.45957 
L 383.187519 423.924327 
L 398.726395 414.127986 
L 404.186722 412.677268 
L 406.113948 413.065282 
L 407.778574 420.797551 
L 408.471129 427.549787 
L 412.091466 438.208825 
L 429.713349 433.264653 
L 437.19259 432.345954 
L 439.222888 432.558518 
" clip-path="url(#p156534ebee)" style="fill: none; stroke: #f29888; stroke-width: 0.2"/>
    <path d="M 441.702162 431.500252 
L 437.800579 426.551085 
L 433.079987 421.574912 
L 429.879812 420.524209 
L 423.484802 417.390766 
L 406.113948 413.065282 
" clip-path="url(#p156534ebee)" style="fill: none; stroke: #f29888; stroke-width: 0.2"/>
    <path d="M 402.394099 404.055408 
L 403.04908 404.595653 
L 403.701577 405.382347 
L 404.985208 408.60646 
L 406.113948 413.065282 
" clip-path="url(#p156534ebee)" style="fill: none; stroke: #f29888; stroke-width: 0.2"/>
    <path d="M 392.09763 392.717003 
L 387.373117 381.938863 
L 386.21322 374.327931 
" clip-path="url(#p156534ebee)" style="fill: none; stroke: #f29888; stroke-width: 0.2"/>
    <path d="M 291.661618 399.616813 
L 309.33335 394.64064 
L 340.105772 385.985671 
" clip-path="url(#p156534ebee)" style="fill: none; stroke: #f29888; stroke-width: 0.2"/>
    <path d="M 339.170199 402.076899 
L 332.075513 407.129075 
L 326.906273 408.299782 
L 306.945014 408.109109 
L 296.917204 408.586459 
L 293.66985 406.198376 
L 291.661618 399.616813 
L 290.900519 397.124726 
L 290.518634 370.187787 
L 294.830637 371.081152 
L 306.579152 369.043747 
L 316.319435 367.355688 
L 338.175875 363.023537 
L 346.580007 363.119541 
L 348.161846 354.181896 
" clip-path="url(#p156534ebee)" style="fill: none; stroke: #f29888; stroke-width: 0.2"/>
    <path d="M 346.580007 363.119541 
L 346.484758 370.187787 
L 348.94965 382.381546 
" clip-path="url(#p156534ebee)" style="fill: none; stroke: #f29888; stroke-width: 0.2"/>
    <path d="M 310.380195 340.302745 
L 302.180803 337.995998 
L 306.579152 369.043747 
" clip-path="url(#p156534ebee)" style="fill: none; stroke: #f29888; stroke-width: 0.2"/>
    <path d="M 337.507355 341.8668 
L 338.165193 350.695108 
" clip-path="url(#p156534ebee)" style="fill: none; stroke: #f29888; stroke-width: 0.2"/>
    <path d="M 366.243949 361.638156 
L 388.856147 359.330075 
L 411.619674 357.007328 
L 407.732285 342.254813 
L 399.417978 313.714043 
" clip-path="url(#p156534ebee)" style="fill: none; stroke: #f29888; stroke-width: 0.2"/>
    <path d="M 396.870994 310.587763 
L 376.855712 309.44167 
L 358.98013 308.572306 
L 344.525486 307.869615 
L 343.514248 308.574973 
L 342.468294 308.86965 
L 330.72601 310.015023 
L 329.187789 310.656379 
L 315.540533 315.935229 
L 305.068527 320.227379 
" clip-path="url(#p156534ebee)" style="fill: none; stroke: #f29888; stroke-width: 0.2"/>
    <path d="M 358.98013 308.572306 
L 358.31784 314.751188 
L 358.900014 320.987405 
L 361.311495 329.135689 
L 364.221474 340.194742 
L 357.534487 342.962838 
L 352.454265 344.992242 
L 348.862413 347.89101 
L 348.161846 354.181896 
" clip-path="url(#p156534ebee)" style="fill: none; stroke: #f29888; stroke-width: 0.2"/>
    <path d="M 329.187789 310.656379 
L 331.776415 317.176606 
L 335.453723 329.402365 
L 336.794325 335.75592 
L 337.507355 341.8668 
L 345.639093 340.516086 
L 354.540832 337.225305 
" clip-path="url(#p156534ebee)" style="fill: none; stroke: #f29888; stroke-width: 0.2"/>
    <path d="M 328.817477 236.429791 
L 330.543524 238.69387 
L 331.054484 242.824681 
L 331.589478 250.922296 
L 331.983825 253.241044 
L 332.181444 258.109213 
L 335.777747 276.815199 
L 338.270234 289.783651 
L 340.123576 300.158679 
L 343.234734 307.524269 
L 343.514248 308.574973 
L 346.39129 319.023337 
L 348.395962 324.242185 
L 354.540832 337.225305 
L 357.534487 342.962838 
L 365.68403 357.895359 
" clip-path="url(#p156534ebee)" style="fill: none; stroke: #f29888; stroke-width: 0.2"/>
    <path d="M 315.540533 315.935229 
L 308.697766 262.437364 
L 297.108592 264.457435 
L 302.836861 318.309979 
" clip-path="url(#p156534ebee)" style="fill: none; stroke: #f29888; stroke-width: 0.2"/>
    <path d="M 414.85219 370.847566 
L 413.532658 371.001149 
L 399.684222 372.719875 
L 386.21322 374.327931 
L 382.087264 374.893285 
L 375.621041 376.078659 
L 368.829014 377.718716 
" clip-path="url(#p156534ebee)" style="fill: none; stroke: #f29888; stroke-width: 0.5"/>
    <path d="M 376.855712 309.44167 
L 381.243379 333.982525 
L 388.856147 359.330075 
" clip-path="url(#p156534ebee)" style="fill: none; stroke: #f29888; stroke-width: 0.2"/>
    <path d="M 411.619674 357.007328 
L 411.28942 358.990063 
L 413.026149 361.234142 
L 413.463069 361.196987 
" clip-path="url(#p156534ebee)" style="fill: none; stroke: #f29888; stroke-width: 0.2"/>
    <path d="M 557.646474 176.015685 
L 553.390552 189.506822 
L 556.013705 196.169854 
" clip-path="url(#p156534ebee)" style="fill: none; stroke: #f29888; stroke-width: 0.2"/>
    <path d="M 806.109022 176.947818 
L 798.442969 175.729008 
L 775.688343 171.612865 
L 768.731634 170.270151 
L 762.576081 169.355453 
L 760.599005 169.391454 
L 758.856045 169.55946 
L 757.132668 170.012809 
L 755.513442 170.776836 
L 753.889764 172.160884 
L 752.63907 173.940946 
L 752.122769 175.718341 
L 751.643856 178.071757 
L 751.64272 178.126839 
" clip-path="url(#p156534ebee)" style="fill: none; stroke: #f29888; stroke-width: 0.5"/>
    <path d="M 798.442969 175.729008 
L 794.361521 169.46879 
L 791.293982 164.765959 
L 789.195842 163.173904 
L 781.740636 162.595217 
L 747.843703 161.871192 
L 732.295839 161.663101 
" clip-path="url(#p156534ebee)" style="fill: none; stroke: #f29888; stroke-width: 0.2"/>
    <path d="M 475.753001 178.756474 
L 475.99082 176.617039 
L 493.973224 163.449914 
L 495.675236 160.615148 
L 509.033186 151.417494 
L 512.561835 151.228154 
L 518.358648 146.441321 
L 524.848016 143.731893 
L 530.392909 139.699752 
L 535.195397 138.11303 
" clip-path="url(#p156534ebee)" style="fill: none; stroke: #f29888; stroke-width: 0.2"/>
    <path d="M 512.751924 184.207107 
L 516.11541 182.279903 
L 519.219446 181.707883 
L 525.809404 181.13453 
L 530.584297 179.941155 
L 535.598646 178.507772 
L 542.42717 178.030422 
L 548.447417 177.330397 
" clip-path="url(#p156534ebee)" style="fill: none; stroke: #f29888; stroke-width: 0.2"/>
    <path d="M 589.320642 159.171098 
L 576.395317 160.273803 
L 555.797583 162.323208 
L 557.646474 176.015685 
" clip-path="url(#p156534ebee)" style="fill: none; stroke: #f29888; stroke-width: 0.2"/>
    <path d="M 555.797583 162.323208 
L 552.795916 161.092498 
L 548.901405 159.064427 
L 545.390559 157.473705 
L 540.508846 152.15352 
L 535.627132 146.010639 
L 533.158679 142.77586 
L 530.392909 139.699752 
" clip-path="url(#p156534ebee)" style="fill: none; stroke: #f29888; stroke-width: 0.2"/>
    <path d="M 576.033016 113.782849 
L 576.574242 130.963448 
L 576.569791 139.591749 
L 573.972263 144.290579 
L 574.807246 150.800139 
L 576.395317 160.273803 
L 577.472427 176.099688 
" clip-path="url(#p156534ebee)" style="fill: none; stroke: #f29888; stroke-width: 0.2"/>
    <path d="M 453.483544 116.326399 
L 457.502798 119.791058 
L 458.298614 122.323147 
L 460.253436 130.211422 
L 463.871993 138.315704 
L 468.070053 163.137903 
L 470.45839 166.611357 
L 472.413211 167.624726 
L 474.367143 173.340925 
L 475.99082 176.617039 
" clip-path="url(#p156534ebee)" style="fill: none; stroke: #f29888; stroke-width: 0.2"/>
    <path d="M 573.972263 144.290579 
L 561.11014 143.301211 
L 530.392909 139.699752 
" clip-path="url(#p156534ebee)" style="fill: none; stroke: #f29888; stroke-width: 0.2"/>
    <path d="M 488.690932 104.63453 
L 493.829906 106.577264 
L 507.804746 116.716284 
L 510.402274 116.59228 
L 524.006801 135.015589 
L 530.392909 139.699752 
" clip-path="url(#p156534ebee)" style="fill: none; stroke: #f29888; stroke-width: 0.2"/>
    <path d="M 614.54194 97.656953 
L 614.785847 108.92668 
L 576.033016 113.782849 
L 572.364609 114.242865 
L 571.570574 114.482873 
L 554.303871 119.511049 
" clip-path="url(#p156534ebee)" style="fill: none; stroke: #f29888; stroke-width: 0.2"/>
    <path d="M 548.447417 177.330397 
L 557.646474 176.015685 
L 558.831295 175.846346 
L 564.532859 175.428998 
L 567.592387 175.661006 
L 569.539197 176.35703 
L 575.890588 176.310362 
L 577.472427 176.099688 
L 583.910165 175.243658 
L 588.221277 174.178288 
L 597.90993 169.960807 
L 609.127902 164.676623 
L 612.465164 163.471248 
L 616.173628 163.100568 
L 618.630508 162.591217 
L 622.525019 160.689817 
L 627.68051 157.996601 
" clip-path="url(#p156534ebee)" style="fill: none; stroke: #f29888; stroke-width: 0.2"/>
    <path d="M 762.598336 99.835696 
L 763.175168 104.490525 
L 765.040083 119.404378 
L 764.753447 121.552453 
L 764.163262 122.349814 
L 754.025961 122.99117 
L 748.44368 123.004504 
L 748.424096 128.778038 
L 748.511334 133.762212 
L 747.896223 134.851583 
L 747.843703 161.871192 
L 747.821449 165.347313 
L 750.330849 176.033019 
L 751.643856 178.071757 
" clip-path="url(#p156534ebee)" style="fill: none; stroke: #f29888; stroke-width: 0.2"/>
    <path d="M 794.361521 169.46879 
L 796.430286 167.248713 
L 805.697552 157.641757 
" clip-path="url(#p156534ebee)" style="fill: none; stroke: #f29888; stroke-width: 0.2"/>
    <path d="M 699.035486 133.359326 
L 700.412566 132.798178 
" clip-path="url(#p156534ebee)" style="fill: none; stroke: #f29888; stroke-width: 0.2"/>
    <path d="M 614.785847 108.92668 
L 618.715965 110.648073 
L 621.70962 115.636247 
L 624.303587 122.705827 
L 626.698155 138.139698 
L 630.142058 156.256643 
" clip-path="url(#p156534ebee)" style="fill: none; stroke: #f29888; stroke-width: 0.2"/>
    <path d="M 572.632552 151.200153 
L 574.807246 150.800139 
L 576.66771 150.458794 
L 589.819139 146.89067 
L 613.866298 141.603819 
L 626.698155 138.139698 
L 659.38267 126.772635 
L 677.406022 120.724424 
L 678.978959 119.833726 
L 679.780115 118.617684 
L 681.191041 115.948258 
L 681.694879 112.754813 
" clip-path="url(#p156534ebee)" style="fill: none; stroke: #f29888; stroke-width: 0.2"/>
    <path d="M 700.412566 132.798178 
L 704.852754 130.288758 
" clip-path="url(#p156534ebee)" style="fill: none; stroke: #f29888; stroke-width: 0.2"/>
    <path d="M 764.163262 122.349814 
L 775.306459 121.887131 
L 776.522436 121.849797 
L 776.896309 133.428867 
L 748.511334 133.762212 
" clip-path="url(#p156534ebee)" style="fill: none; stroke: #f29888; stroke-width: 0.2"/>
    <path d="M 685.817686 122.11129 
L 683.964823 116.940292 
L 682.510279 114.598877 
L 681.694879 112.754813 
L 680.937341 111.040087 
L 679.488138 107.566632 
L 678.912196 106.187917 
L 676.123281 96.216903 
L 675.101361 95.027528 
L 672.770886 94.624848 
L 661.484371 95.350206 
L 658.591306 95.535546 
L 647.281646 96.263571 
L 616.037432 97.607618 
L 614.54194 97.656953 
L 593.646887 98.348977 
L 592.061488 98.14897 
L 591.230955 97.524949 
L 590.696851 96.427577 
L 590.429799 94.144831 
L 589.782642 86.543233 
L 586.513924 86.877911 
L 580.134937 86.788574 
L 570.582481 87.589936 
L 564.38153 89.072654 
L 557.854774 91.178061 
L 556.418034 91.324733 
L 555.243894 91.444737 
L 553.078101 90.911385 
L 550.97106 89.280661 
L 549.873475 87.144587 
L 547.715694 82.487091 
L 545.007784 76.645554 
L 542.100476 71.454707 
L 540.112718 70.20933 
L 538.066208 69.674645 
L 534.772565 69.615976 
L 522.800616 70.270665 
L 515.029398 70.526674 
L 512.3295 70.081325 
L 510.667545 68.717278 
L 509.71862 66.551869 
L 509.273533 64.713138 
L 508.59077 56.794196 
L 507.879521 55.638155 
L 506.662653 55.192806 
L 504.289449 55.192806 
L 496.041098 55.696824 
L 475.392624 57.002203 
" clip-path="url(#p156534ebee)" style="fill: none; stroke: #f29888; stroke-width: 0.2"/>
    <path d="M 535.195397 138.11303 
L 547.851 135.980956 
L 574.922969 131.254125 
L 576.574242 130.963448 
L 589.896585 128.612699 
L 600.280463 127.221984 
L 624.303587 122.705827 
L 634.537916 120.825761 
L 657.202634 114.673547 
L 672.154886 110.638739 
L 675.161893 109.338694 
L 677.163004 109.133353 
L 678.914866 110.565403 
L 681.694879 112.754813 
" clip-path="url(#p156534ebee)" style="fill: none; stroke: #f29888; stroke-width: 0.2"/>
    <path d="M 696.933767 112.141458 
L 703.991065 111.413433 
L 717.664137 109.145354 
L 729.19545 108.893345 
L 729.510571 114.184196 
" clip-path="url(#p156534ebee)" style="fill: none; stroke: #f29888; stroke-width: 0.2"/>
    <path d="M 679.488138 107.566632 
L 677.163004 109.133353 
" clip-path="url(#p156534ebee)" style="fill: none; stroke: #f29888; stroke-width: 0.2"/>
    <path d="M 748.424096 128.778038 
L 704.852754 130.288758 
L 696.933767 112.141458 
L 692.577256 102.159777 
L 691.924758 100.661058 
L 686.628223 84.401825 
L 739.859733 80.840367 
L 800.475236 79.830999 
L 804.037914 79.771832 
" clip-path="url(#p156534ebee)" style="fill: none; stroke: #f29888; stroke-width: 0.2"/>
    <path d="M 804.468563 99.977781 
L 799.992762 99.934366 
L 769.712606 99.639689 
L 762.598336 99.835696 
L 709.397092 101.126408 
L 704.285713 100.197042 
L 692.577256 102.159777 
" clip-path="url(#p156534ebee)" style="fill: none; stroke: #f29888; stroke-width: 0.2"/>
    <path d="M 800.475236 79.830999 
L 799.992762 99.934366 
L 799.536993 113.608176 
L 799.146206 121.312445 
L 777.505188 120.80576 
L 776.522436 121.849797 
" clip-path="url(#p156534ebee)" style="fill: none; stroke: #f29888; stroke-width: 0.2"/>
    <path d="M 661.484371 95.350206 
L 659.712035 97.432946 
L 657.866704 98.771659 
L 657.069998 100.037036 
L 656.454888 101.991771 
L 656.202079 105.283886 
" clip-path="url(#p156534ebee)" style="fill: none; stroke: #f29888; stroke-width: 0.2"/>
    <path d="M 658.591306 95.535546 
L 657.866704 98.771659 
" clip-path="url(#p156534ebee)" style="fill: none; stroke: #f29888; stroke-width: 0.2"/>
    <path d="M 799.536993 113.608176 
L 804.76437 113.857023 
" clip-path="url(#p156534ebee)" style="fill: none; stroke: #f29888; stroke-width: 0.2"/>
    <path d="M 671.474793 73.762787 
L 673.283626 76.656221 
L 674.514737 80.419019 
L 675.166344 87.365928 
L 675.599859 92.50344 
L 675.101361 95.027528 
" clip-path="url(#p156534ebee)" style="fill: none; stroke: #f29888; stroke-width: 0.2"/>
    <path d="M 302.171901 177.934419 
L 303.360283 181.206533 
L 313.279491 208.522151 
L 313.823387 210.02087 
L 317.031574 218.458498 
L 324.848191 230.161572 
L 328.817477 236.429791 
L 327.09499 237.82584 
L 316.428926 237.961844 
L 303.34515 236.720468 
L 300.06931 237.049813 
L 291.21564 217.334459 
L 279.917553 191.593561 
L 278.62413 181.955892 
" clip-path="url(#p156534ebee)" style="fill: none; stroke: #f29888; stroke-width: 0.2"/>
    <path d="M 328.817477 236.429791 
L 330.928079 234.288383 
L 335.212486 229.436214 
L 336.742695 220.145223 
L 336.571782 205.090032 
L 336.552198 203.337971 
L 336.812129 197.361762 
L 337.315967 185.768025 
L 335.215157 179.178462 
L 322.622757 179.979823 
L 303.360283 181.206533 
" clip-path="url(#p156534ebee)" style="fill: none; stroke: #f29888; stroke-width: 0.2"/>
    <path d="M 324.99596 206.298074 
L 313.279491 208.522151 
" clip-path="url(#p156534ebee)" style="fill: none; stroke: #f29888; stroke-width: 0.2"/>
    <path d="M 322.622757 179.979823 
L 324.99596 206.298074 
L 336.571782 205.090032 
" clip-path="url(#p156534ebee)" style="fill: none; stroke: #f29888; stroke-width: 0.2"/>
    <path d="M 367.782169 186.913398 
L 341.054698 184.081299 
L 337.315967 185.768025 
" clip-path="url(#p156534ebee)" style="fill: none; stroke: #f29888; stroke-width: 0.2"/>
    <path d="M 302.171901 177.934419 
L 300.289183 177.609074 
L 294.052625 178.415769 
" clip-path="url(#p156534ebee)" style="fill: none; stroke: #f29888; stroke-width: 0.2"/>
    <path d="M 556.418034 91.324733 
L 559.723249 95.636883 
L 562.243332 98.975666 
L 566.402224 103.825168 
L 568.859995 106.534596 
L 570.245995 111.385432 
L 572.364609 114.242865 
" clip-path="url(#p156534ebee)" style="fill: none; stroke: #f29888; stroke-width: 0.2"/>
    <path d="M 512.3295 70.081325 
L 509.41329 73.06943 
L 512.133662 91.368734 
L 507.3107 100.518386 
L 495.561294 102.497122 
L 488.690932 104.63453 
" clip-path="url(#p156534ebee)" style="fill: none; stroke: #f29888; stroke-width: 0.2"/>
    <path d="M 448.81114 90.627375 
L 475.277791 94.459509 
L 484.800872 91.492738 
L 493.334969 87.412596 
L 498.4054 81.107043 
L 506.073358 77.521585 
L 507.3107 73.812122 
L 509.41329 73.06943 
" clip-path="url(#p156534ebee)" style="fill: none; stroke: #f29888; stroke-width: 0.2"/>
    <path d="M 589.468411 79.694994 
L 582.721783 80.581691 
L 547.715694 82.487091 
" clip-path="url(#p156534ebee)" style="fill: none; stroke: #f29888; stroke-width: 0.2"/>
    <path d="M 506.662653 55.192806 
L 505.882861 49.995292 
L 496.045549 46.653842 
L 486.825532 41.242529 
" clip-path="url(#p156534ebee)" style="fill: none; stroke: #f29888; stroke-width: 0.2"/>
    <path d="M 592.146944 67.322563 
L 594.460506 61.523694 
L 595.097767 58.89631 
" clip-path="url(#p156534ebee)" style="fill: none; stroke: #f29888; stroke-width: 0.2"/>
    <path d="M 589.782642 86.543233 
L 589.468411 79.694994 
" clip-path="url(#p156534ebee)" style="fill: none; stroke: #f29888; stroke-width: 0.2"/>
    <path d="M 589.468411 79.694994 
L 649.76078 76.656221 
L 671.474793 73.762787 
L 663.295875 64.28379 
L 650.122191 59.796967 
L 630.51255 61.186349 
L 622.546383 61.750368 
L 603.220708 63.631767 
L 592.146944 67.322563 
L 589.251208 70.289333 
L 589.468411 79.694994 
" clip-path="url(#p156534ebee)" style="fill: none; stroke: #f29888; stroke-width: 0.2"/>
    <path d="M 686.628223 84.401825 
L 683.28041 60.726827 
" clip-path="url(#p156534ebee)" style="fill: none; stroke: #f29888; stroke-width: 0.2"/>
    <path d="M 635.662097 52.711862 
L 635.573189 53.100733 
L 631.266527 57.912901 
L 630.325613 59.287616 
L 630.51255 61.186349 
" clip-path="url(#p156534ebee)" style="fill: none; stroke: #f29888; stroke-width: 0.2"/>
    <path d="M 739.870094 77.432888 
L 739.859733 80.840367 
L 740.134797 86.544566 
L 740.279895 88.325961 
L 740.827352 89.987353 
L 741.73533 91.411402 
L 742.920151 91.903419 
L 746.860061 92.068759 
L 755.211673 92.668779 
L 758.867617 93.456807 
L 760.564288 94.484843 
L 761.557722 96.50358 
L 762.598336 99.835696 
" clip-path="url(#p156534ebee)" style="fill: none; stroke: #f29888; stroke-width: 0.2"/>
   </g>
   <g id="LineCollection_2">
    <path d="M 697.76786 131.683473 
L 698.119459 132.579808 
" clip-path="url(#p156534ebee)" style="fill: none; stroke-dasharray: 3.7,1.6; stroke-dashoffset: 0; stroke: #f29888"/>
    <path d="M 678.221421 82.812436 
L 680.435283 86.508565 
L 689.551554 109.529367 
L 695.455188 123.883201 
L 698.513825 131.763476 
L 699.20161 133.500693 
" clip-path="url(#p156534ebee)" style="fill: none; stroke-dasharray: 3.7,1.6; stroke-dashoffset: 0; stroke: #f29888"/>
    <path d="M 680.377422 91.584742 
L 681.504382 96.206236 
L 689.721578 116.817621 
L 691.16722 120.392413 
L 693.404227 124.62056 
L 695.685743 128.150016 
L 697.76786 131.683473 
" clip-path="url(#p156534ebee)" style="fill: none; stroke-dasharray: 3.7,1.6; stroke-dashoffset: 0; stroke: #f29888"/>
    <path d="M 671.709667 57.310982 
L 674.495153 66.565203 
L 676.226541 71.070693 
" clip-path="url(#p156534ebee)" style="fill: none; stroke-dasharray: 3.7,1.6; stroke-dashoffset: 0; stroke: #f29888"/>
    <path d="M 678.221421 82.812436 
L 679.902959 87.116586 
L 695.606517 126.404622 
L 697.76786 131.683473 
" clip-path="url(#p156534ebee)" style="fill: none; stroke-dasharray: 3.7,1.6; stroke-dashoffset: 0; stroke: #f29888"/>
    <path d="M 678.658496 85.765872 
L 680.377422 91.584742 
L 681.539099 94.49951 
L 691.943452 120.483082 
L 693.404227 124.62056 
" clip-path="url(#p156534ebee)" style="fill: none; stroke-dasharray: 3.7,1.6; stroke-dashoffset: 0; stroke: #f29888"/>
    <path d="M 676.670738 77.86293 
L 678.645144 81.881737 
L 680.957815 86.421895 
L 694.531187 120.097736 
L 696.895489 125.691264 
L 698.513825 131.763476 
" clip-path="url(#p156534ebee)" style="fill: none; stroke-dasharray: 3.7,1.6; stroke-dashoffset: 0; stroke: #f29888"/>
    <path d="M 695.685743 128.150016 
L 693.555557 122.795163 
L 680.482463 90.10869 
L 678.658496 85.765872 
L 677.612542 82.827103 
L 676.583501 78.54562 
" clip-path="url(#p156534ebee)" style="fill: none; stroke-dasharray: 3.7,1.6; stroke-dashoffset: 0; stroke: #f29888"/>
    <path d="M 696.895489 125.691264 
L 696.493131 123.441852 
L 694.709222 119.039032 
L 681.666394 86.596568 
L 679.130288 80.117675 
L 677.678415 76.308209 
L 676.226541 71.070693 
" clip-path="url(#p156534ebee)" style="fill: none; stroke-dasharray: 3.7,1.6; stroke-dashoffset: 0; stroke: #f29888"/>
    <path d="M 676.226541 71.070693 
L 678.57304 77.190907 
L 694.883696 117.846991 
L 696.493131 123.441852 
" clip-path="url(#p156534ebee)" style="fill: none; stroke-dasharray: 3.7,1.6; stroke-dashoffset: 0; stroke: #f29888"/>
    <path d="M 681.666394 86.596568 
L 679.900289 83.01911 
L 678.448415 80.523023 
L 676.670738 77.86293 
L 675.591847 75.962864 
" clip-path="url(#p156534ebee)" style="fill: none; stroke-dasharray: 3.7,1.6; stroke-dashoffset: 0; stroke: #f29888"/>
    <path d="M 660.330796 53.951781 
L 661.1737 54.538117 
L 668.311115 62.48106 
L 675.591847 75.962864 
L 676.583501 78.54562 
L 678.221421 82.812436 
" clip-path="url(#p156534ebee)" style="fill: none; stroke-dasharray: 3.7,1.6; stroke-dashoffset: 0; stroke: #f29888"/>
   </g>
  </g>
 </g>
 <defs>
  <clipPath id="p156534ebee">
   <rect x="7.2" y="7.2" width="837" height="527.383318"/>
  </clipPath>
 </defs>
</svg>
