<?xml version="1.0" encoding="utf-8" standalone="no"?>
<!DOCTYPE svg PUBLIC "-//W3C//DTD SVG 1.1//EN"
  "http://www.w3.org/Graphics/SVG/1.1/DTD/svg11.dtd">
<svg xmlns:xlink="http://www.w3.org/1999/xlink" width="851.4pt" height="497.472382pt" viewBox="0 0 851.4 497.472382" xmlns="http://www.w3.org/2000/svg" version="1.1">
 <metadata>
  <rdf:RDF xmlns:dc="http://purl.org/dc/elements/1.1/" xmlns:cc="http://creativecommons.org/ns#" xmlns:rdf="http://www.w3.org/1999/02/22-rdf-syntax-ns#">
   <cc:Work>
    <dc:type rdf:resource="http://purl.org/dc/dcmitype/StillImage"/>
    <dc:date>2025-03-16T14:30:02.850640</dc:date>
    <dc:format>image/svg+xml</dc:format>
    <dc:creator>
     <cc:Agent>
      <dc:title>Matplotlib v3.10.1, https://matplotlib.org/</dc:title>
     </cc:Agent>
    </dc:creator>
   </cc:Work>
  </rdf:RDF>
 </metadata>
 <defs>
  <style type="text/css">*{stroke-linejoin: round; stroke-linecap: butt}</style>
 </defs>
 <g id="figure_1">
  <g id="patch_1">
   <path d="M 0 497.472382 
L 851.4 497.472382 
L 851.4 -0 
L 0 -0 
z
" style="fill: #ffffff"/>
  </g>
  <g id="axes_1">
   <g id="PatchCollection_1">
    <path d="M 60.857187 124.185932 
L 45.245455 176.091142 
L 250.509521 274.147801 
L 262.144665 285.513758 
L 253.965888 310.230164 
L 327.384637 345.177448 
L 310.984994 407.068319 
L 404.123383 435.040809 
L 530.790044 468.314546 
L 531.522396 446.131212 
L 531.263127 431.200753 
L 556.590735 443.689149 
L 582.122054 447.817398 
L 593.477725 423.894789 
L 599.350013 416.79865 
L 598.456038 404.649008 
L 567.799935 383.959731 
L 545.278836 373.099377 
L 552.339724 362.436208 
L 556.590735 353.17356 
L 575.069585 342.406743 
L 587.371422 332.125305 
L 806.154545 337.464473 
L 803.593837 237.97443 
L 705.062977 251.165614 
L 660.626864 261.414188 
L 665.898118 246.420529 
L 665.426719 241.321522 
L 656.141837 237.506747 
L 652.518797 228.807846 
L 644.927586 218.427815 
L 657.606542 208.866861 
L 673.070121 188.114383 
L 688.755931 188.397521 
L 685.419097 174.033338 
L 680.710156 161.193548 
L 673.568457 143.997988 
L 670.234991 115.883929 
L 669.906695 106.808354 
L 671.455578 92.047273 
L 672.647545 70.743688 
L 677.253789 45.31691 
L 706.369427 45.473646 
L 710.389789 31.529114 
L 678.050117 29.157836 
L 666.862803 38.076674 
L 663.751568 84.192729 
L 634.678019 100.647581 
L 635.688161 143.017118 
L 591.157768 149.516645 
L 574.219383 82.923666 
L 560.548805 74.679808 
L 541.15746 85.598306 
L 526.352157 52.597594 
L 517.693563 53.484927 
L 502.623939 53.477343 
L 472.37526 52.655738 
L 463.012934 53.99053 
L 449.891199 56.202544 
L 438.538895 62.659095 
L 429.10586 70.394822 
L 390.962926 112.74919 
L 380.624131 111.874497 
L 229.483432 83.002034 
L 206.524605 192.227464 
L 74.945291 130.935733 
L 60.857187 124.185932 
" clip-path="url(#pd701fa7b8c)" style="fill: #fbd6c9"/>
   </g>
   <g id="PatchCollection_2">
    <path d="M 584.931931 426.703414 
L 571.358999 420.009229 
L 572.185632 418.333155 
L 585.758563 425.02734 
L 584.931931 426.703414 
" clip-path="url(#pd701fa7b8c)" style="fill: #e6482f"/>
    <path d="M 570.242793 416.257655 
L 569.773078 417.514078 
L 567.801619 416.778426 
L 568.271334 415.519474 
L 570.242793 416.257655 
" clip-path="url(#pd701fa7b8c)" style="fill: #e6482f"/>
    <path d="M 486.074458 369.721949 
L 484.8202 372.174123 
L 479.695416 369.550043 
L 480.949675 367.097869 
L 486.074458 369.721949 
" clip-path="url(#pd701fa7b8c)" style="fill: #e6482f"/>
    <path d="M 535.707748 368.536309 
L 536.852575 366.372328 
L 540.591781 368.351764 
L 539.446954 370.513217 
L 535.707748 368.536309 
" clip-path="url(#pd701fa7b8c)" style="fill: #e6482f"/>
    <path d="M 564.176895 339.979848 
L 566.653425 338.442815 
L 567.304966 339.491941 
L 564.828436 341.028975 
L 564.176895 339.979848 
" clip-path="url(#pd701fa7b8c)" style="fill: #e6482f"/>
    <path d="M 570.956627 337.482169 
L 569.673747 335.414253 
L 572.660398 333.561217 
L 573.943277 335.629134 
L 570.956627 337.482169 
" clip-path="url(#pd701fa7b8c)" style="fill: #e6482f"/>
    <path d="M 575.763215 316.337849 
L 575.362526 321.459608 
L 573.274901 321.297815 
L 573.67559 316.176056 
L 575.763215 316.337849 
" clip-path="url(#pd701fa7b8c)" style="fill: #e6482f"/>
    <path d="M 581.654022 316.034487 
L 581.92171 318.946761 
L 580.536133 319.073161 
L 580.268445 316.160888 
L 581.654022 316.034487 
" clip-path="url(#pd701fa7b8c)" style="fill: #e6482f"/>
    <path d="M 579.138771 315.946006 
L 578.790272 319.002377 
L 577.556216 318.863336 
L 577.638711 318.14538 
L 577.288529 318.104932 
L 577.355871 317.515904 
L 576.603316 317.432479 
L 576.801977 315.680565 
L 579.138771 315.946006 
" clip-path="url(#pd701fa7b8c)" style="fill: #e6482f"/>
    <path d="M 569.266324 301.988834 
L 570.705775 308.073767 
L 551.422179 310.652342 
L 550.614066 304.612914 
L 569.266324 301.988834 
" clip-path="url(#pd701fa7b8c)" style="fill: #e6482f"/>
    <path d="M 589.164422 312.191904 
L 589.853002 317.159454 
L 584.093513 317.958307 
L 583.404934 312.993285 
L 589.164422 312.191904 
" clip-path="url(#pd701fa7b8c)" style="fill: #e6482f"/>
    <path d="M 599.030135 243.386911 
L 599.930844 249.241794 
L 591.854765 250.485578 
L 590.954056 244.628166 
L 599.030135 243.386911 
" clip-path="url(#pd701fa7b8c)" style="fill: #e6482f"/>
    <path d="M 586.591929 221.830524 
L 588.107141 230.284207 
L 585.352823 230.77717 
L 583.837611 222.323487 
L 586.591929 221.830524 
" clip-path="url(#pd701fa7b8c)" style="fill: #e6482f"/>
    <path d="M 586.79059 209.749139 
L 588.746897 209.440721 
L 589.080244 211.564254 
L 587.123937 211.872671 
L 586.79059 209.749139 
" clip-path="url(#pd701fa7b8c)" style="fill: #e6482f"/>
    <path d="M 597.085613 205.524825 
L 602.701999 204.470643 
L 603.213803 207.188259 
L 597.595735 208.242441 
L 597.085613 205.524825 
" clip-path="url(#pd701fa7b8c)" style="fill: #e6482f"/>
    <path d="M 587.687933 201.133662 
L 588.442171 206.796417 
L 585.7855 207.150339 
L 585.031261 201.487584 
L 587.687933 201.133662 
" clip-path="url(#pd701fa7b8c)" style="fill: #e6482f"/>
    <path d="M 600.73559 199.983415 
L 601.225509 202.567047 
L 595.716872 203.611117 
L 595.226953 201.027486 
L 600.73559 199.983415 
" clip-path="url(#pd701fa7b8c)" style="fill: #e6482f"/>
    <path d="M 654.345469 183.733333 
L 654.830337 187.199242 
L 639.203452 189.383447 
L 638.720268 185.917538 
L 654.345469 183.733333 
" clip-path="url(#pd701fa7b8c)" style="fill: #e6482f"/>
    <path d="M 636.139357 182.363148 
L 636.624225 185.831586 
L 620.99734 188.015791 
L 620.512472 184.547354 
L 636.139357 182.363148 
" clip-path="url(#pd701fa7b8c)" style="fill: #e6482f"/>
    <path d="M 608.500209 178.778423 
L 611.114792 178.333492 
L 611.702357 181.771593 
L 614.246229 181.336774 
L 614.636817 183.619572 
L 611.493594 184.158039 
L 612.082844 187.606252 
L 610.358869 187.90203 
L 609.735949 184.261688 
L 605.52366 184.982172 
L 606.104491 188.372241 
L 604.035385 188.726163 
L 603.493276 185.561088 
L 601.035266 185.980738 
L 600.604272 183.455251 
L 603.101004 183.030545 
L 602.631289 180.282592 
L 605.151591 179.852829 
L 605.656662 182.813135 
L 609.089458 182.226636 
L 608.500209 178.778423 
" clip-path="url(#pd701fa7b8c)" style="fill: #e6482f"/>
    <path d="M 449.938339 284.712377 
L 448.956818 284.19919 
L 449.574688 283.018607 
L 451.758277 284.16127 
L 450.418156 286.719621 
L 449.216088 286.092673 
L 449.938339 284.712377 
" clip-path="url(#pd701fa7b8c)" style="fill: #e6482f"/>
    <path d="M 432.129549 283.028719 
L 430.848353 285.718527 
L 428.530079 284.613784 
L 429.811275 281.923976 
L 432.129549 283.028719 
" clip-path="url(#pd701fa7b8c)" style="fill: #e6482f"/>
    <path d="M 442.688892 280.591712 
L 441.518812 283.200624 
L 438.702201 281.934088 
L 439.873965 279.327704 
L 442.688892 280.591712 
" clip-path="url(#pd701fa7b8c)" style="fill: #e6482f"/>
    <path d="M 448.256454 279.24428 
L 447.399517 281.352645 
L 440.508671 278.554132 
L 441.363923 276.443239 
L 448.256454 279.24428 
" clip-path="url(#pd701fa7b8c)" style="fill: #e6482f"/>
    <path d="M 436.766097 274.266618 
L 435.95125 276.387623 
L 432.190157 274.944126 
L 433.005005 272.823121 
L 436.766097 274.266618 
" clip-path="url(#pd701fa7b8c)" style="fill: #e6482f"/>
    <path d="M 450.290205 255.455656 
L 447.618381 261.965295 
L 444.358992 260.625447 
L 443.948201 261.626541 
L 441.978426 260.817576 
L 442.436357 259.700193 
L 439.171917 258.360345 
L 441.794917 251.969523 
L 450.290205 255.455656 
" clip-path="url(#pd701fa7b8c)" style="fill: #e6482f"/>
    <path d="M 578.100009 234.824523 
L 580.574855 253.524252 
L 577.349137 253.951487 
L 574.874291 235.251757 
L 578.100009 234.824523 
" clip-path="url(#pd701fa7b8c)" style="fill: #e6482f"/>
    <path d="M 566.037239 230.069326 
L 569.156892 252.040307 
L 560.941076 253.205722 
L 557.821423 231.237269 
L 566.037239 230.069326 
" clip-path="url(#pd701fa7b8c)" style="fill: #e6482f"/>
    <path d="M 579.487269 203.13585 
L 579.955301 206.187165 
L 573.205874 207.223651 
L 572.737842 204.172337 
L 579.487269 203.13585 
" clip-path="url(#pd701fa7b8c)" style="fill: #e6482f"/>
    <path d="M 571.759689 198.494414 
L 573.779971 198.178412 
L 573.98705 199.510676 
L 571.968451 199.82415 
L 571.759689 198.494414 
" clip-path="url(#pd701fa7b8c)" style="fill: #e6482f"/>
    <path d="M 677.669631 171.199433 
L 680.95259 180.773027 
L 677.895229 181.819625 
L 674.61227 172.248559 
L 677.669631 171.199433 
" clip-path="url(#pd701fa7b8c)" style="fill: #e6482f"/>
    <path d="M 635.317776 173.194037 
L 635.802643 176.659946 
L 620.175758 178.844151 
L 619.692574 175.375714 
L 635.317776 173.194037 
" clip-path="url(#pd701fa7b8c)" style="fill: #e6482f"/>
    <path d="M 674.398457 173.646552 
L 673.411885 183.24037 
L 682.696767 182.358092 
L 677.095534 165.293989 
L 679.066993 164.621537 
L 685.031877 184.433593 
L 671.440426 185.262782 
L 672.893346 173.436726 
L 674.398457 173.646552 
" clip-path="url(#pd701fa7b8c)" style="fill: #e6482f"/>
    <path d="M 588.618946 169.118876 
L 588.997749 171.507851 
L 584.71475 172.190415 
L 584.335947 169.798912 
L 588.618946 169.118876 
" clip-path="url(#pd701fa7b8c)" style="fill: #e6482f"/>
    <path d="M 651.259488 166.780462 
L 651.744356 170.248899 
L 636.117471 172.433104 
L 635.634287 168.964667 
L 651.259488 166.780462 
" clip-path="url(#pd701fa7b8c)" style="fill: #e6482f"/>
    <path d="M 601.126178 165.78948 
L 600.23052 169.1391 
L 585.361241 165.160004 
L 586.258583 161.812912 
L 601.126178 165.78948 
" clip-path="url(#pd701fa7b8c)" style="fill: #e6482f"/>
    <path d="M 663.973799 150.967726 
L 666.255035 163.157816 
L 665.477226 165.594823 
L 666.670876 173.894297 
L 665.063068 174.048506 
L 663.817227 165.491174 
L 664.647226 162.793782 
L 662.26161 151.485969 
L 663.973799 150.967726 
" clip-path="url(#pd701fa7b8c)" style="fill: #e6482f"/>
    <path d="M 637.097308 158.958783 
L 637.582176 162.424692 
L 621.955291 164.608897 
L 621.472106 161.14046 
L 637.097308 158.958783 
" clip-path="url(#pd701fa7b8c)" style="fill: #e6482f"/>
    <path d="M 604.991652 158.23577 
L 604.296338 160.80929 
L 589.647607 156.863058 
L 590.342921 154.284482 
L 604.991652 158.23577 
" clip-path="url(#pd701fa7b8c)" style="fill: #e6482f"/>
    <path d="M 671.703063 142.311802 
L 674.310911 152.077525 
L 672.613874 152.53004 
L 670.007709 142.764316 
L 671.703063 142.311802 
" clip-path="url(#pd701fa7b8c)" style="fill: #e6482f"/>
    <path d="M 592.710018 193.028845 
L 593.109024 195.690845 
L 577.886195 197.971115 
L 577.485506 195.309115 
L 592.710018 193.028845 
" clip-path="url(#pd701fa7b8c)" style="fill: #e6482f"/>
    <path d="M 562.772799 188.053711 
L 563.845232 189.522488 
L 559.169962 192.930253 
L 558.099212 191.461476 
L 562.772799 188.053711 
" clip-path="url(#pd701fa7b8c)" style="fill: #e6482f"/>
    <path d="M 568.95823 181.29127 
L 571.454963 180.805891 
L 574.029139 196.370881 
L 571.532407 196.85626 
L 568.95823 181.29127 
" clip-path="url(#pd701fa7b8c)" style="fill: #e6482f"/>
    <path d="M 589.869838 175.246785 
L 590.354705 178.712694 
L 574.729504 180.8969 
L 574.244636 177.430991 
L 589.869838 175.246785 
" clip-path="url(#pd701fa7b8c)" style="fill: #e6482f"/>
    <path d="M 565.557422 160.508456 
L 568.109712 160.096389 
L 570.081171 172.271311 
L 567.528881 172.685906 
L 565.557422 160.508456 
" clip-path="url(#pd701fa7b8c)" style="fill: #e6482f"/>
    <path d="M 579.465383 124.726927 
L 577.098285 118.333576 
L 582.698888 116.260701 
L 584.388942 122.90512 
L 579.465383 124.726927 
" clip-path="url(#pd701fa7b8c)" style="fill: #e6482f"/>
    <path d="M 571.963401 113.022216 
L 569.847155 113.899437 
L 563.606165 116.212571 
L 565.013629 120.070323 
L 571.369101 117.701572 
L 573.58131 116.705534 
L 575.332222 120.505141 
L 560.936025 125.758357 
L 557.333188 115.883929 
L 571.145186 110.845595 
L 571.963401 113.022216 
" clip-path="url(#pd701fa7b8c)" style="fill: #e6482f"/>
    <path d="M 573.446625 116.402173 
L 571.261353 117.33501 
L 569.926282 114.068814 
L 572.067782 113.181481 
L 573.446625 116.402173 
" clip-path="url(#pd701fa7b8c)" style="fill: #e6482f"/>
    <path d="M 573.857415 110.372856 
L 575.79857 109.500691 
L 576.317109 110.655994 
L 574.374271 111.528159 
L 573.857415 110.372856 
" clip-path="url(#pd701fa7b8c)" style="fill: #e6482f"/>
    <path d="M 580.197735 112.473637 
L 578.690941 108.497069 
L 580.545641 107.795246 
L 581.600297 111.941607 
L 580.197735 112.473637 
" clip-path="url(#pd701fa7b8c)" style="fill: #e6482f"/>
    <path d="M 663.194307 127.783298 
L 670.093571 162.275539 
L 668.642335 162.637045 
L 661.638689 128.197892 
L 663.194307 127.783298 
" clip-path="url(#pd701fa7b8c)" style="fill: #e6482f"/>
    <path d="M 659.197514 127.972899 
L 663.467045 149.728999 
L 662.113456 149.99444 
L 661.241367 145.547661 
L 659.889461 145.813103 
L 656.493703 128.501254 
L 659.197514 127.972899 
" clip-path="url(#pd701fa7b8c)" style="fill: #e6482f"/>
    <path d="M 654.835388 128.963881 
L 656.737821 138.105184 
L 654.417863 138.588035 
L 652.51543 129.446732 
L 654.835388 128.963881 
" clip-path="url(#pd701fa7b8c)" style="fill: #e6482f"/>
    <path d="M 663.48388 122.99018 
L 663.861 124.822992 
L 653.044071 127.040061 
L 652.666951 125.204722 
L 663.48388 122.99018 
" clip-path="url(#pd701fa7b8c)" style="fill: #e6482f"/>
    <path d="M 426.083854 334.918762 
L 426.595659 334.549671 
L 427.25225 334.845449 
L 427.279187 335.548237 
L 426.758965 335.889519 
L 426.132677 335.601326 
L 426.083854 334.918762 
" clip-path="url(#pd701fa7b8c)" style="fill: #e6482f"/>
    <path d="M 392.882195 333.050558 
L 394.961402 333.733122 
L 394.631423 334.7418 
L 392.552215 334.061764 
L 392.882195 333.050558 
" clip-path="url(#pd701fa7b8c)" style="fill: #e6482f"/>
    <path d="M 384.068712 333.768515 
L 385.307819 331.253139 
L 388.282685 332.71686 
L 387.041895 335.234763 
L 384.068712 333.768515 
" clip-path="url(#pd701fa7b8c)" style="fill: #e6482f"/>
    <path d="M 399.109715 328.13104 
L 403.21594 330.186317 
L 400.392595 335.831375 
L 398.16355 334.71652 
L 399.21578 332.613212 
L 397.338601 331.67279 
L 399.109715 328.13104 
" clip-path="url(#pd701fa7b8c)" style="fill: #e6482f"/>
    <path d="M 402.005454 324.738444 
L 403.212572 322.288797 
L 408.110074 324.703052 
L 406.902955 327.152698 
L 402.005454 324.738444 
" clip-path="url(#pd701fa7b8c)" style="fill: #e6482f"/>
    <path d="M 414.864552 321.416632 
L 416.061569 318.987209 
L 417.910127 319.897294 
L 418.474123 318.752103 
L 420.98264 319.988303 
L 420.416961 321.136022 
L 426.508113 324.136776 
L 425.311096 326.566199 
L 414.864552 321.416632 
" clip-path="url(#pd701fa7b8c)" style="fill: #e6482f"/>
    <path d="M 431.223789 317.159454 
L 430.732187 318.443686 
L 429.242229 317.874882 
L 429.735514 316.585594 
L 431.223789 317.159454 
" clip-path="url(#pd701fa7b8c)" style="fill: #e6482f"/>
    <path d="M 400.801702 315.096593 
L 401.523953 313.632872 
L 405.737926 315.708373 
L 405.017358 317.172094 
L 400.801702 315.096593 
" clip-path="url(#pd701fa7b8c)" style="fill: #e6482f"/>
    <path d="M 413.866195 308.409993 
L 414.585079 306.951328 
L 413.726459 306.526621 
L 414.258467 305.449687 
L 418.455604 307.520131 
L 417.204712 310.055731 
L 413.866195 308.409993 
" clip-path="url(#pd701fa7b8c)" style="fill: #e6482f"/>
    <path d="M 424.17637 299.599859 
L 426.250527 300.563033 
L 424.691542 303.927822 
L 422.617386 302.967176 
L 424.17637 299.599859 
" clip-path="url(#pd701fa7b8c)" style="fill: #e6482f"/>
    <path d="M 372.337605 331.854807 
L 373.713081 329.06135 
L 377.32602 330.841073 
L 375.950544 333.63453 
L 372.337605 331.854807 
" clip-path="url(#pd701fa7b8c)" style="fill: #e6482f"/>
    <path d="M 354.495144 322.576991 
L 355.18204 321.181526 
L 356.92285 322.038523 
L 356.235954 323.433988 
L 354.495144 322.576991 
" clip-path="url(#pd701fa7b8c)" style="fill: #e6482f"/>
    <path d="M 357.656886 316.8839 
L 359.559319 312.318304 
L 373.686144 318.200996 
L 371.785395 322.766592 
L 357.656886 316.8839 
" clip-path="url(#pd701fa7b8c)" style="fill: #e6482f"/>
    <path d="M 351.772813 317.18979 
L 352.474862 315.766517 
L 354.301534 316.666491 
L 353.601169 318.092291 
L 351.772813 317.18979 
" clip-path="url(#pd701fa7b8c)" style="fill: #e6482f"/>
    <path d="M 360.949947 308.035847 
L 363.0039 303.626988 
L 384.045142 313.428103 
L 383.151167 315.349395 
L 383.927293 315.710901 
L 383.523236 316.57801 
L 382.826239 316.254424 
L 382.070316 317.872354 
L 360.949947 308.035847 
" clip-path="url(#pd701fa7b8c)" style="fill: #e6482f"/>
    <path d="M 327.850985 302.438821 
L 330.228184 297.544583 
L 355.8521 310.002642 
L 353.473218 314.894352 
L 327.850985 302.438821 
" clip-path="url(#pd701fa7b8c)" style="fill: #e6482f"/>
    <path d="M 377.172815 296.262879 
L 378.68971 296.985892 
L 378.209893 298.055242 
L 379.59042 298.715054 
L 379.044943 299.857717 
L 376.147522 298.474893 
L 377.172815 296.262879 
" clip-path="url(#pd701fa7b8c)" style="fill: #e6482f"/>
    <path d="M 347.688476 285.134556 
L 349.095939 282.239978 
L 354.72916 284.977819 
L 353.321697 287.872396 
L 347.688476 285.134556 
" clip-path="url(#pd701fa7b8c)" style="fill: #e6482f"/>
    <path d="M 372.856145 282.646989 
L 374.107036 280.070941 
L 379.201515 282.548396 
L 377.94894 285.124444 
L 372.856145 282.646989 
" clip-path="url(#pd701fa7b8c)" style="fill: #e6482f"/>
    <path d="M 342.546857 279.507194 
L 343.71357 277.108107 
L 346.641296 278.53138 
L 345.474583 280.930466 
L 342.546857 279.507194 
" clip-path="url(#pd701fa7b8c)" style="fill: #e6482f"/>
    <path d="M 429.316306 294.73343 
L 427.883589 298.184171 
L 425.021522 296.996004 
L 426.454239 293.545263 
L 429.316306 294.73343 
" clip-path="url(#pd701fa7b8c)" style="fill: #e6482f"/>
    <path d="M 390.675036 291.780708 
L 392.250856 288.539792 
L 398.023814 291.345889 
L 396.447993 294.586805 
L 390.675036 291.780708 
" clip-path="url(#pd701fa7b8c)" style="fill: #e6482f"/>
    <path d="M 381.952467 287.149384 
L 383.215143 284.55564 
L 387.53518 286.653893 
L 386.274187 289.250165 
L 381.952467 287.149384 
" clip-path="url(#pd701fa7b8c)" style="fill: #e6482f"/>
    <path d="M 387.127757 279.279672 
L 388.235545 276.739017 
L 399.678762 281.731847 
L 398.56929 284.27503 
L 387.127757 279.279672 
" clip-path="url(#pd701fa7b8c)" style="fill: #e6482f"/>
    <path d="M 417.458931 278.672948 
L 416.866315 280.010269 
L 414.265201 278.857494 
L 414.857817 277.520173 
L 417.458931 278.672948 
" clip-path="url(#pd701fa7b8c)" style="fill: #e6482f"/>
    <path d="M 403.655351 270.573187 
L 413.356074 275.287936 
L 412.170842 277.727471 
L 402.470119 273.010194 
L 403.655351 270.573187 
" clip-path="url(#pd701fa7b8c)" style="fill: #e6482f"/>
    <path d="M 428.375191 271.121767 
L 427.368417 273.220019 
L 423.548399 271.387208 
L 424.555173 269.288956 
L 428.375191 271.121767 
" clip-path="url(#pd701fa7b8c)" style="fill: #e6482f"/>
    <path d="M 392.702053 265.524741 
L 402.289977 270.186401 
L 400.991945 272.853457 
L 391.404021 268.194325 
L 392.702053 265.524741 
" clip-path="url(#pd701fa7b8c)" style="fill: #e6482f"/>
    <path d="M 420.381606 267.215983 
L 419.565076 269.096826 
L 413.032829 266.260393 
L 413.84936 264.37955 
L 420.381606 267.215983 
" clip-path="url(#pd701fa7b8c)" style="fill: #e6482f"/>
    <path d="M 410.616908 263.204023 
L 409.800377 265.084866 
L 403.26813 262.248433 
L 404.084661 260.367589 
L 410.616908 263.204023 
" clip-path="url(#pd701fa7b8c)" style="fill: #e6482f"/>
    <path d="M 363.764874 278.561716 
L 365.071323 275.874435 
L 369.935153 278.23813 
L 368.628704 280.92541 
L 363.764874 278.561716 
" clip-path="url(#pd701fa7b8c)" style="fill: #e6482f"/>
    <path d="M 372.694522 272.517231 
L 373.718132 270.254657 
L 385.2893 275.480065 
L 384.26569 277.745167 
L 372.694522 272.517231 
" clip-path="url(#pd701fa7b8c)" style="fill: #e6482f"/>
    <path d="M 382.809403 263.833498 
L 381.659526 266.371626 
L 377.386628 264.435166 
L 378.536506 261.897039 
L 382.809403 263.833498 
" clip-path="url(#pd701fa7b8c)" style="fill: #e6482f"/>
    <path d="M 339.01978 253.696157 
L 346.912351 257.566548 
L 346.181682 258.977181 
L 362.938241 267.122446 
L 361.953354 269.147387 
L 353.87054 265.216323 
L 351.353605 270.39117 
L 348.850138 269.175195 
L 350.79466 265.173347 
L 344.442555 262.084112 
L 344.154665 262.675667 
L 336.470857 258.941789 
L 339.01978 253.696157 
" clip-path="url(#pd701fa7b8c)" style="fill: #e6482f"/>
    <path d="M 363.322095 249.110337 
L 361.843922 252.169236 
L 369.211218 255.728681 
L 367.988947 258.256697 
L 360.529054 254.651747 
L 361.931467 251.752113 
L 355.660174 248.721023 
L 356.959889 246.033743 
L 363.322095 249.110337 
" clip-path="url(#pd701fa7b8c)" style="fill: #e6482f"/>
    <path d="M 382.802669 242.68665 
L 381.81273 244.87844 
L 381.083745 246.491313 
L 376.927014 244.615526 
L 378.645938 240.808335 
L 382.802669 242.68665 
" clip-path="url(#pd701fa7b8c)" style="fill: #e6482f"/>
    <path d="M 351.574152 237.979486 
L 350.510137 240.527725 
L 347.735616 239.369894 
L 348.799631 236.821655 
L 351.574152 237.979486 
" clip-path="url(#pd701fa7b8c)" style="fill: #e6482f"/>
    <path d="M 264.063933 218.412647 
L 272.552487 222.487808 
L 271.14839 225.412722 
L 262.659837 221.335033 
L 264.063933 218.412647 
" clip-path="url(#pd701fa7b8c)" style="fill: #e6482f"/>
    <path d="M 255.398605 221.441209 
L 257.238746 217.608738 
L 259.417284 218.655337 
L 257.577143 222.487808 
L 255.398605 221.441209 
" clip-path="url(#pd701fa7b8c)" style="fill: #e6482f"/>
    <path d="M 242.312225 213.708011 
L 248.785547 216.812413 
L 247.462262 219.56795 
L 240.98894 216.461019 
L 242.312225 213.708011 
" clip-path="url(#pd701fa7b8c)" style="fill: #e6482f"/>
    <path d="M 402.151924 257.048305 
L 400.921235 259.826594 
L 397.33355 258.236473 
L 398.565923 255.458184 
L 402.151924 257.048305 
" clip-path="url(#pd701fa7b8c)" style="fill: #e6482f"/>
    <path d="M 379.327783 251.650993 
L 388.102543 255.498632 
L 387.011591 257.988727 
L 378.23683 254.143616 
L 379.327783 251.650993 
" clip-path="url(#pd701fa7b8c)" style="fill: #e6482f"/>
    <path d="M 434.208756 252.065587 
L 432.903991 255.223078 
L 429.755717 253.92115 
L 429.425738 254.722531 
L 426.580506 253.547004 
L 426.979512 252.58383 
L 423.583754 251.180782 
L 424.819494 248.187612 
L 434.208756 252.065587 
" clip-path="url(#pd701fa7b8c)" style="fill: #e6482f"/>
    <path d="M 382.802669 242.68665 
L 392.766028 247.355895 
L 391.742419 249.537572 
L 381.81273 244.87844 
L 382.802669 242.68665 
" clip-path="url(#pd701fa7b8c)" style="fill: #e6482f"/>
    <path d="M 409.611817 247.070229 
L 408.276747 249.964806 
L 394.848603 243.766113 
L 396.183673 240.871535 
L 409.611817 247.070229 
" clip-path="url(#pd701fa7b8c)" style="fill: #e6482f"/>
    <path d="M 386.213579 230.590097 
L 381.721818 241.192593 
L 379.612306 240.297676 
L 384.104067 229.695179 
L 386.213579 230.590097 
" clip-path="url(#pd701fa7b8c)" style="fill: #e6482f"/>
    <path d="M 411.039483 226.075062 
L 418.785583 229.174408 
L 417.117167 232.867839 
L 409.371067 229.530858 
L 411.039483 226.075062 
" clip-path="url(#pd701fa7b8c)" style="fill: #e6482f"/>
    <path d="M 400.911134 221.428569 
L 405.320401 223.45351 
L 403.532451 227.149468 
L 399.123184 225.362161 
L 400.911134 221.428569 
" clip-path="url(#pd701fa7b8c)" style="fill: #e6482f"/>
    <path d="M 388.873618 217.257344 
L 393.402417 218.925834 
L 391.734001 222.500448 
L 387.563801 220.831958 
L 388.873618 217.257344 
" clip-path="url(#pd701fa7b8c)" style="fill: #e6482f"/>
    <path d="M 383.790924 209.870483 
L 386.651307 211.061179 
L 381.88344 222.619265 
L 378.548291 221.428569 
L 383.790924 209.870483 
" clip-path="url(#pd701fa7b8c)" style="fill: #e6482f"/>
    <path d="M 229.958198 212.590628 
L 231.23771 209.9261 
L 232.364018 207.580101 
L 238.697603 210.621304 
L 236.293467 215.63183 
L 229.958198 212.590628 
" clip-path="url(#pd701fa7b8c)" style="fill: #e6482f"/>
    <path d="M 279.239622 202.476038 
L 304.200212 212.883878 
L 300.969443 220.632245 
L 276.008853 210.224405 
L 279.239622 202.476038 
" clip-path="url(#pd701fa7b8c)" style="fill: #e6482f"/>
    <path d="M 225.269459 210.340694 
L 226.548971 207.676166 
L 231.23771 209.9261 
L 229.958198 212.590628 
L 225.269459 210.340694 
" clip-path="url(#pd701fa7b8c)" style="fill: #e6482f"/>
    <path d="M 237.352432 207.731782 
L 237.955149 206.477887 
L 239.802024 207.36522 
L 239.20099 208.619116 
L 237.352432 207.731782 
" clip-path="url(#pd701fa7b8c)" style="fill: #e6482f"/>
    <path d="M 226.818342 204.862485 
L 223.70374 211.3519 
L 165.028003 183.187281 
L 168.142605 176.697866 
L 226.818342 204.862485 
" clip-path="url(#pd701fa7b8c)" style="fill: #e6482f"/>
    <path d="M 159.4032 184.178264 
L 160.645673 181.592104 
L 162.780438 182.618478 
L 161.539648 185.20211 
L 159.4032 184.178264 
" clip-path="url(#pd701fa7b8c)" style="fill: #e6482f"/>
    <path d="M 323.11679 163.170456 
L 316.433022 178.73039 
L 313.427852 177.441103 
L 308.505097 188.898068 
L 303.129462 186.58999 
L 297.661231 199.316019 
L 285.236494 193.979379 
L 300.03843 159.527586 
L 294.587034 157.184116 
L 296.861536 151.89298 
L 323.11679 163.170456 
" clip-path="url(#pd701fa7b8c)" style="fill: #e6482f"/>
    <path d="M 294.418677 164.115934 
L 287.768581 180.123327 
L 284.22972 178.65455 
L 290.879816 162.647157 
L 294.418677 164.115934 
" clip-path="url(#pd701fa7b8c)" style="fill: #e6482f"/>
   </g>
   <g id="LineCollection_1">
    <path d="M 364.622731 423.177477 
L 366.283492 421.925465 
" clip-path="url(#pd701fa7b8c)" style="fill: none; stroke: #e6482f; stroke-width: 0.2"/>
    <path d="M 451.990609 446.174188 
L 463.555043 403.180231 
L 466.555162 372.985616 
L 448.985439 369.067193 
L 434.003361 367.757681 
L 413.192768 367.747569 
L 393.5169 366.961356 
L 392.094285 366.905739 
L 389.471284 366.996748 
L 373.866286 366.086662 
L 353.277924 365.447075 
L 346.801235 364.779679 
L 323.672368 360.873895 
" clip-path="url(#pd701fa7b8c)" style="fill: none; stroke: #e6482f; stroke-width: 0.2"/>
    <path d="M 398.394199 431.31957 
L 410.805467 386.811332 
L 413.192768 367.747569 
" clip-path="url(#pd701fa7b8c)" style="fill: none; stroke: #e6482f; stroke-width: 0.2"/>
    <path d="M 389.471284 366.996748 
L 372.670952 423.669796 
" clip-path="url(#pd701fa7b8c)" style="fill: none; stroke: #e6482f; stroke-width: 0.2"/>
    <path d="M 358.643457 419.801932 
L 373.866286 366.086662 
" clip-path="url(#pd701fa7b8c)" style="fill: none; stroke: #e6482f; stroke-width: 0.2"/>
    <path d="M 346.801235 364.779679 
L 334.002745 413.441446 
" clip-path="url(#pd701fa7b8c)" style="fill: none; stroke: #e6482f; stroke-width: 0.2"/>
    <path d="M 353.277924 365.447075 
L 353.688715 361.222761 
L 353.338532 359.688256 
L 352.198756 358.242231 
L 350.798027 357.339729 
L 327.384637 345.177448 
" clip-path="url(#pd701fa7b8c)" style="fill: none; stroke: #e6482f; stroke-width: 0.2"/>
    <path d="M 392.094285 366.905739 
L 400.002007 337.2774 
" clip-path="url(#pd701fa7b8c)" style="fill: none; stroke: #e6482f; stroke-width: 0.2"/>
    <path d="M 310.984994 407.068319 
L 323.672368 360.873895 
L 326.179202 351.540462 
L 327.384637 345.177448 
" clip-path="url(#pd701fa7b8c)" style="fill: none; stroke: #e6482f; stroke-width: 0.2"/>
    <path d="M 327.384637 345.177448 
L 326.243177 343.349693 
L 323.207703 341.173071 
L 309.759356 334.195749 
L 259.898784 310.192244 
L 258.31623 309.312494 
L 256.785866 307.841189 
L 256.459253 305.732825 
L 256.465988 303.781197 
L 265.789591 281.522022 
" clip-path="url(#pd701fa7b8c)" style="fill: none; stroke: #e6482f; stroke-width: 0.2"/>
    <path d="M 516.983097 464.039672 
L 526.291548 428.010398 
L 532.977 429.560071 
" clip-path="url(#pd701fa7b8c)" style="fill: none; stroke: #e6482f; stroke-width: 0.2"/>
    <path d="M 530.80982 467.715525 
L 516.983097 464.039672 
L 490.923136 457.110382 
L 476.892274 453.252631 
L 451.990609 446.174188 
L 425.824584 439.093217 
L 411.983966 434.795591 
L 398.394199 431.31957 
L 372.670952 423.669796 
L 366.283492 421.925465 
L 358.643457 419.801932 
L 334.002745 413.441446 
L 310.984994 407.068319 
" clip-path="url(#pd701fa7b8c)" style="fill: none; stroke: #e6482f; stroke-width: 0.2"/>
    <path d="M 530.303492 399.140463 
L 531.109922 400.963162 
L 531.517345 402.770693 
L 532.977 429.560071 
L 533.052613 432.083103 
" clip-path="url(#pd701fa7b8c)" style="fill: none; stroke: #e6482f; stroke-width: 0.2"/>
    <path d="M 504.795743 392.653576 
L 503.666068 396.215549 
L 503.159314 411.828572 
L 490.923136 457.110382 
" clip-path="url(#pd701fa7b8c)" style="fill: none; stroke: #e6482f; stroke-width: 0.2"/>
    <path d="M 476.892274 453.252631 
L 489.128452 411.070167 
L 492.694251 387.797258 
" clip-path="url(#pd701fa7b8c)" style="fill: none; stroke: #e6482f; stroke-width: 0.2"/>
    <path d="M 425.824584 439.093217 
L 448.985439 369.067193 
" clip-path="url(#pd701fa7b8c)" style="fill: none; stroke: #e6482f; stroke-width: 0.2"/>
    <path d="M 434.003361 367.757681 
L 429.491397 385.046777 
L 424.945761 389.673046 
L 411.983966 434.795591 
" clip-path="url(#pd701fa7b8c)" style="fill: none; stroke: #e6482f; stroke-width: 0.2"/>
    <path d="M 542.401617 374.702139 
L 539.640565 373.620148 
L 533.514058 371.375271 
" clip-path="url(#pd701fa7b8c)" style="fill: none; stroke: #e6482f; stroke-width: 0.2"/>
    <path d="M 455.899856 343.278908 
L 456.132188 342.636792 
L 457.103608 340.386859 
L 457.494195 339.539974 
" clip-path="url(#pd701fa7b8c)" style="fill: none; stroke: #e6482f; stroke-width: 0.2"/>
    <path d="M 529.566089 335.027466 
L 537.524319 334.253893 
" clip-path="url(#pd701fa7b8c)" style="fill: none; stroke: #e6482f; stroke-width: 0.2"/>
    <path d="M 606.057351 327.893407 
L 603.875446 329.650378 
L 600.917416 332.271929 
L 600.639268 332.449092 
" clip-path="url(#pd701fa7b8c)" style="fill: none; stroke: #e6482f; stroke-width: 0.2"/>
    <path d="M 547.318546 370.019061 
L 542.401617 374.702139 
L 539.573222 379.735417 
" clip-path="url(#pd701fa7b8c)" style="fill: none; stroke: #e6482f; stroke-width: 0.2"/>
    <path d="M 599.269202 327.569821 
L 600.355104 328.598723 
L 601.015063 330.186317 
L 600.917416 332.271929 
" clip-path="url(#pd701fa7b8c)" style="fill: none; stroke: #e6482f; stroke-width: 0.2"/>
    <path d="M 582.728139 326.78108 
L 582.78538 318.436102 
L 590.470872 317.781346 
" clip-path="url(#pd701fa7b8c)" style="fill: none; stroke: #e6482f; stroke-width: 0.2"/>
    <path d="M 570.901069 326.222389 
L 571.515571 311.069465 
L 570.768067 303.768557 
L 570.035714 301.071164 
L 568.926243 300.156023 
L 567.281396 299.716148 
L 565.520383 299.62514 
L 526.904367 305.143797 
" clip-path="url(#pd701fa7b8c)" style="fill: none; stroke: #e6482f; stroke-width: 0.2"/>
    <path d="M 523.671915 286.957255 
L 582.408261 279.57545 
L 584.149071 279.497081 
L 585.570003 280.027965 
L 586.878136 281.516966 
L 588.800772 283.969141 
L 589.994422 284.497496 
L 592.343 284.904506 
L 602.308043 283.969141 
" clip-path="url(#pd701fa7b8c)" style="fill: none; stroke: #e6482f; stroke-width: 0.2"/>
    <path d="M 520.500072 264.910433 
L 585.012742 256.46939 
" clip-path="url(#pd701fa7b8c)" style="fill: none; stroke: #e6482f; stroke-width: 0.2"/>
    <path d="M 588.566755 201.272703 
L 589.289006 205.337752 
L 590.469188 206.101212 
L 592.359836 207.324772 
L 594.166305 213.012806 
L 595.173079 217.254816 
" clip-path="url(#pd701fa7b8c)" style="fill: none; stroke: #e6482f; stroke-width: 0.2"/>
    <path d="M 568.698961 210.042388 
L 578.18082 208.40929 
" clip-path="url(#pd701fa7b8c)" style="fill: none; stroke: #e6482f; stroke-width: 0.2"/>
    <path d="M 649.211164 215.197653 
L 647.946225 211.071291 
" clip-path="url(#pd701fa7b8c)" style="fill: none; stroke: #e6482f; stroke-width: 0.2"/>
    <path d="M 590.469188 206.101212 
L 593.353141 204.976246 
L 600.75916 203.621229 
" clip-path="url(#pd701fa7b8c)" style="fill: none; stroke: #e6482f; stroke-width: 0.2"/>
    <path d="M 540.955432 324.930573 
L 537.524319 334.253893 
L 538.382939 339.98996 
L 535.357566 341.433457 
L 532.692476 341.706483 
L 529.566089 335.027466 
L 524.217391 323.603365 
" clip-path="url(#pd701fa7b8c)" style="fill: none; stroke: #e6482f; stroke-width: 0.2"/>
    <path d="M 427.737118 323.962343 
L 430.06381 318.522054 
L 428.787665 318.029091 
L 421.290733 319.5459 
" clip-path="url(#pd701fa7b8c)" style="fill: none; stroke: #e6482f; stroke-width: 0.2"/>
    <path d="M 458.782126 280.242846 
L 518.93772 306.015962 
L 522.582646 306.701054 
L 527.116497 307.34317 
" clip-path="url(#pd701fa7b8c)" style="fill: none; stroke: #e6482f; stroke-width: 0.2"/>
    <path d="M 474.95617 259.920131 
L 511.289267 274.466331 
L 514.853382 276.233414 
L 516.839993 278.220434 
L 517.747437 280.429919 
L 520.210498 293.148364 
L 522.582646 306.701054 
" clip-path="url(#pd701fa7b8c)" style="fill: none; stroke: #e6482f; stroke-width: 0.2"/>
    <path d="M 532.593146 324.569067 
L 529.00041 319.156586 
L 527.116497 307.34317 
L 526.904367 305.143797 
L 523.671915 286.957255 
L 521.114574 268.02242 
L 520.500072 264.910433 
L 517.828248 248.21542 
L 515.304579 234.42004 
L 515.757459 231.980505 
L 516.941007 230.188142 
" clip-path="url(#pd701fa7b8c)" style="fill: none; stroke: #e6482f; stroke-width: 0.2"/>
    <path d="M 511.289267 274.466331 
L 514.493098 273.525909 
L 516.880399 272.132973 
L 521.114574 268.02242 
" clip-path="url(#pd701fa7b8c)" style="fill: none; stroke: #e6482f; stroke-width: 0.2"/>
    <path d="M 442.926275 236.629526 
L 442.065972 241.940886 
L 436.388978 255.910698 
L 432.979751 264.298653 
L 458.782126 280.242846 
" clip-path="url(#pd701fa7b8c)" style="fill: none; stroke: #e6482f; stroke-width: 0.2"/>
    <path d="M 493.963661 238.697442 
L 512.048557 248.035931 
L 517.828248 248.21542 
" clip-path="url(#pd701fa7b8c)" style="fill: none; stroke: #e6482f; stroke-width: 0.2"/>
    <path d="M 450.423207 293.71464 
L 458.782126 280.242846 
L 466.245386 270.317858 
L 474.95617 259.920131 
L 483.076022 249.299938 
L 493.963661 238.697442 
L 497.50589 235.431246 
L 512.242167 224.492524 
L 518.050479 219.140715 
L 540.630503 201.520449 
L 564.727422 181.652776 
L 564.151642 177.211053 
" clip-path="url(#pd701fa7b8c)" style="fill: none; stroke: #e6482f; stroke-width: 0.2"/>
    <path d="M 512.242167 224.492524 
L 516.941007 230.188142 
L 519.821593 228.549989 
L 523.343619 227.556479 
L 569.951536 221.016503 
" clip-path="url(#pd701fa7b8c)" style="fill: none; stroke: #e6482f; stroke-width: 0.2"/>
    <path d="M 265.789591 281.522022 
L 290.043082 292.336871 
L 380.738613 337.017014 
L 384.711836 338.642528 
L 387.402179 339.266948 
L 389.136254 339.274532 
L 391.350147 339.140547 
L 397.761177 337.242008 
L 400.002007 337.2774 
L 402.096366 337.55801 
L 408.716159 339.325092 
L 426.168032 346.734705 
L 446.946637 357.17288 
L 466.555162 372.985616 
L 480.262779 380.369949 
L 492.694251 387.797258 
L 504.795743 392.653576 
L 511.782553 394.461107 
L 524.426154 396.177629 
L 526.695605 396.802049 
L 528.490289 397.803143 
L 530.303492 399.140463 
" clip-path="url(#pd701fa7b8c)" style="fill: none; stroke: #e6482f; stroke-width: 0.2"/>
    <path d="M 415.031225 322.594687 
L 414.718081 323.20141 
L 414.196175 324.265705 
L 413.664167 325.292079 
L 413.196135 326.267893 
L 413.076602 326.606647 
L 408.716159 339.325092 
" clip-path="url(#pd701fa7b8c)" style="fill: none; stroke: #e6482f; stroke-width: 0.2"/>
    <path d="M 426.70004 327.253819 
L 427.737118 323.962343 
L 421.290733 319.5459 
L 415.112036 317.136702 
" clip-path="url(#pd701fa7b8c)" style="fill: none; stroke: #e6482f; stroke-width: 0.2"/>
    <path d="M 413.111957 321.580953 
L 415.112036 317.136702 
L 417.144104 312.204544 
" clip-path="url(#pd701fa7b8c)" style="fill: none; stroke: #e6482f; stroke-width: 0.2"/>
    <path d="M 417.144104 312.204544 
L 420.046576 305.214581 
L 427.51152 288.77237 
" clip-path="url(#pd701fa7b8c)" style="fill: none; stroke: #e6482f; stroke-width: 0.2"/>
    <path d="M 387.243923 271.088902 
L 392.904081 259.209758 
L 393.402417 256.219116 
L 392.683534 250.849612 
L 394.067427 247.363479 
L 392.129639 246.033743 
L 382.442385 241.329106 
" clip-path="url(#pd701fa7b8c)" style="fill: none; stroke: #e6482f; stroke-width: 0.2"/>
    <path d="M 382.922202 227.730912 
L 385.903802 229.571307 
L 395.262761 239.794601 
L 410.126989 245.927566 
" clip-path="url(#pd701fa7b8c)" style="fill: none; stroke: #e6482f; stroke-width: 0.2"/>
    <path d="M 389.060494 213.260552 
L 420.565115 228.211234 
L 442.926275 236.629526 
" clip-path="url(#pd701fa7b8c)" style="fill: none; stroke: #e6482f; stroke-width: 0.2"/>
    <path d="M 251.253444 274.874512 
L 265.789591 281.522022 
" clip-path="url(#pd701fa7b8c)" style="fill: none; stroke: #e6482f; stroke-width: 0.2"/>
    <path d="M 384.541795 121.061305 
L 386.578913 136.102996 
L 391.617835 169.123932 
L 393.932742 198.919121 
L 389.060494 213.260552 
L 382.922202 227.730912 
L 368.206128 262.43045 
" clip-path="url(#pd701fa7b8c)" style="fill: none; stroke: #e6482f; stroke-width: 0.2"/>
    <path d="M 564.727422 181.652776 
L 567.946406 202.503847 
L 568.698961 210.042388 
L 569.951536 221.016503 
" clip-path="url(#pd701fa7b8c)" style="fill: none; stroke: #e6482f; stroke-width: 0.2"/>
    <path d="M 567.946406 202.503847 
L 576.014067 201.093214 
L 575.020761 193.777138 
L 592.450749 191.340131 
" clip-path="url(#pd701fa7b8c)" style="fill: none; stroke: #e6482f; stroke-width: 0.2"/>
    <path d="M 658.000497 203.221803 
L 657.419666 201.437024 
L 654.63336 181.511207 
L 639.693371 183.897654 
" clip-path="url(#pd701fa7b8c)" style="fill: none; stroke: #e6482f; stroke-width: 0.2"/>
    <path d="M 619.009045 183.164529 
L 622.6203 182.709487 
L 635.440676 181.096613 
" clip-path="url(#pd701fa7b8c)" style="fill: none; stroke: #e6482f; stroke-width: 0.2"/>
    <path d="M 617.690811 170.65591 
L 618.035943 173.924633 
L 619.009045 183.164529 
L 619.56799 188.463249 
" clip-path="url(#pd701fa7b8c)" style="fill: none; stroke: #e6482f; stroke-width: 0.2"/>
    <path d="M 593.839693 173.628856 
L 595.112471 175.229089 
L 596.7489 177.130157 
" clip-path="url(#pd701fa7b8c)" style="fill: none; stroke: #e6482f; stroke-width: 0.2"/>
    <path d="M 618.035943 173.924633 
L 632.743599 172.175247 
" clip-path="url(#pd701fa7b8c)" style="fill: none; stroke: #e6482f; stroke-width: 0.2"/>
    <path d="M 661.128568 163.47129 
L 655.463359 165.122084 
L 649.341903 165.951273 
L 617.690811 170.65591 
L 615.833835 170.931463 
L 606.496762 171.760652 
L 601.122811 172.554449 
L 593.839693 173.628856 
L 572.67555 176.247879 
L 564.151642 177.211053 
" clip-path="url(#pd701fa7b8c)" style="fill: none; stroke: #e6482f; stroke-width: 0.2"/>
    <path d="M 572.67555 176.247879 
L 572.983643 172.486193 
L 570.779852 160.379527 
" clip-path="url(#pd701fa7b8c)" style="fill: none; stroke: #e6482f; stroke-width: 0.2"/>
    <path d="M 670.541401 182.100235 
L 668.896554 181.260934 
L 665.940207 179.956478 
L 663.761669 177.466383 
L 662.517512 170.41322 
L 661.376052 164.500192 
L 661.128568 163.47129 
L 660.027514 158.89811 
L 658.574594 155.786123 
L 656.215914 154.079713 
L 649.848657 152.782841 
L 645.36363 152.562904 
L 639.797752 154.539812 
L 637.100675 156.718961 
L 620.812147 159.623651 
" clip-path="url(#pd701fa7b8c)" style="fill: none; stroke: #e6482f; stroke-width: 0.2"/>
    <path d="M 386.578913 136.102996 
L 408.500662 133.802502 
L 431.34669 131.924187 
L 444.17885 130.971125 
L 452.800406 130.978709 
L 473.033535 133.438468 
L 479.180244 133.003649 
L 481.692129 131.593017 
L 483.123162 130.604563 
L 484.880808 132.088508 
L 486.269752 133.726662 
L 487.023991 135.984179 
L 491.305306 178.002322 
L 497.50589 235.431246 
" clip-path="url(#pd701fa7b8c)" style="fill: none; stroke: #e6482f; stroke-width: 0.2"/>
    <path d="M 506.267182 116.654974 
L 518.050479 219.140715 
" clip-path="url(#pd701fa7b8c)" style="fill: none; stroke: #e6482f; stroke-width: 0.2"/>
    <path d="M 466.245386 270.317858 
L 464.592121 266.781164 
L 453.342515 154.484195 
L 452.800406 130.978709 
L 447.488747 72.316113 
L 444.810189 60.707467 
" clip-path="url(#pd701fa7b8c)" style="fill: none; stroke: #e6482f; stroke-width: 0.2"/>
    <path d="M 423.484424 78.486999 
L 427.878538 86.050821 
L 431.34669 131.924187 
L 433.873726 164.874338 
L 442.926275 236.629526 
" clip-path="url(#pd701fa7b8c)" style="fill: none; stroke: #e6482f; stroke-width: 0.2"/>
    <path d="M 522.320009 108.583021 
L 526.986862 109.189745 
L 540.630503 201.520449 
" clip-path="url(#pd701fa7b8c)" style="fill: none; stroke: #e6482f; stroke-width: 0.2"/>
    <path d="M 467.56362 55.398635 
L 473.033535 133.438468 
L 483.076022 249.299938 
" clip-path="url(#pd701fa7b8c)" style="fill: none; stroke: #e6482f; stroke-width: 0.2"/>
    <path d="M 564.151642 177.211053 
L 559.048745 143.95754 
L 548.735203 117.471523 
L 541.221436 97.692331 
L 525.958202 53.934914 
" clip-path="url(#pd701fa7b8c)" style="fill: none; stroke: #e6482f; stroke-width: 0.2"/>
    <path d="M 482.86726 128.392549 
L 506.267182 116.654974 
L 522.320009 108.583021 
L 528.130005 104.287923 
L 541.221436 97.692331 
" clip-path="url(#pd701fa7b8c)" style="fill: none; stroke: #e6482f; stroke-width: 0.2"/>
    <path d="M 483.123162 130.604563 
L 482.86726 128.392549 
L 481.084361 97.237288 
L 478.90919 67.17413 
L 479.449615 64.264384 
L 480.624746 62.477078 
L 484.055859 61.21307 
L 485.050848 59.099649 
L 486.091294 55.196393 
" clip-path="url(#pd701fa7b8c)" style="fill: none; stroke: #e6482f; stroke-width: 0.2"/>
    <path d="M 335.674529 137.212795 
L 314.269636 188.604818 
L 309.737469 193.890898 
L 303.129462 210.128341 
L 274.328652 197.986283 
" clip-path="url(#pd701fa7b8c)" style="fill: none; stroke: #e6482f; stroke-width: 0.2"/>
    <path d="M 402.40951 102.657353 
L 406.333909 109.0684 
L 408.500662 133.802502 
L 420.565115 228.211234 
" clip-path="url(#pd701fa7b8c)" style="fill: none; stroke: #e6482f; stroke-width: 0.2"/>
    <path d="M 283.317456 93.285968 
L 258.494688 199.310963 
" clip-path="url(#pd701fa7b8c)" style="fill: none; stroke: #e6482f; stroke-width: 0.2"/>
    <path d="M 234.146917 196.654019 
L 258.830389 88.608194 
" clip-path="url(#pd701fa7b8c)" style="fill: none; stroke: #e6482f; stroke-width: 0.2"/>
    <path d="M 233.563422 83.781436 
L 207.735091 191.127778 
" clip-path="url(#pd701fa7b8c)" style="fill: none; stroke: #e6482f; stroke-width: 0.2"/>
    <path d="M 317.629232 99.840559 
L 312.432863 118.146503 
L 313.687122 120.656822 
L 314.461563 122.206496 
L 340.024871 132.546078 
L 342.104078 134.846572 
" clip-path="url(#pd701fa7b8c)" style="fill: none; stroke: #e6482f; stroke-width: 0.2"/>
    <path d="M 389.826571 112.653051 
L 391.313109 113.846349 
" clip-path="url(#pd701fa7b8c)" style="fill: none; stroke: #e6482f; stroke-width: 0.2"/>
    <path d="M 582.406578 159.436577 
L 604.47648 165.817288 
" clip-path="url(#pd701fa7b8c)" style="fill: none; stroke: #e6482f; stroke-width: 0.2"/>
    <path d="M 572.983643 172.486193 
L 580.433435 169.637119 
L 582.081649 167.859925 
L 582.117004 164.707489 
L 582.012622 160.971083 
L 582.406578 159.436577 
L 583.049701 156.926258 
L 586.058238 153.19238 
L 589.378236 152.052245 
L 591.142616 152.052245 
L 607.855402 156.724017 
L 607.809946 158.87283 
L 604.47648 165.817288 
L 601.122811 172.554449 
" clip-path="url(#pd701fa7b8c)" style="fill: none; stroke: #e6482f; stroke-width: 0.2"/>
    <path d="M 660.094857 126.83782 
L 667.128807 162.510644 
L 666.633838 165.233317 
L 667.128807 171.667116 
L 668.896554 181.260934 
" clip-path="url(#pd701fa7b8c)" style="fill: none; stroke: #e6482f; stroke-width: 0.2"/>
    <path d="M 206.841319 190.720713 
L 207.735091 191.127778 
L 234.146917 196.654019 
L 239.049469 198.47419 
L 240.170726 200.504186 
L 240.834052 201.707522 
L 243.515977 203.856335 
L 262.557139 212.805509 
L 310.921018 236.38178 
L 368.206128 262.43045 
L 387.243923 271.088902 
L 406.439974 279.818139 
L 427.51152 288.77237 
L 437.294738 291.199264 
L 450.423207 293.71464 
L 464.209951 299.185265 
L 506.006228 317.129118 
L 521.213905 323.257027 
L 524.217391 323.603365 
L 532.593146 324.569067 
L 540.955432 324.930573 
L 570.901069 326.222389 
L 572.045896 326.272949 
L 582.728139 326.78108 
L 599.269202 327.569821 
L 606.057351 327.893407 
L 783.3001 336.339506 
L 806.154545 337.464473 
" clip-path="url(#pd701fa7b8c)" style="fill: none; stroke: #e6482f; stroke-width: 0.2"/>
    <path d="M 665.933473 125.725493 
L 660.094857 126.83782 
L 655.579525 127.699873 
L 658.71433 145.021834 
" clip-path="url(#pd701fa7b8c)" style="fill: none; stroke: #e6482f; stroke-width: 0.2"/>
    <path d="M 569.951536 221.016503 
L 595.173079 217.254816 
L 609.336943 214.941682 
L 630.618935 212.274626 
L 642.538602 211.513693 
L 647.946225 211.071291 
L 651.407642 209.223311 
L 655.561006 205.65881 
L 658.000497 203.221803 
L 664.638809 196.42397 
L 668.647386 190.963457 
L 669.741705 187.730125 
L 670.541401 182.100235 
L 672.54148 168.312439 
L 672.787281 165.7642 
L 672.632393 161.17838 
L 670.467324 150.459595 
L 666.090045 126.8631 
L 665.933473 125.725493 
L 662.312117 103.251437 
L 667.844323 91.283812 
L 668.738298 88.346258 
L 669.650793 82.34475 
L 671.637404 42.611933 
L 672.48929 41.092596 
L 674.166124 38.999399 
L 676.614033 38.223299 
L 680.489608 37.8264 
L 692.671912 37.899713 
" clip-path="url(#pd701fa7b8c)" style="fill: none; stroke: #e6482f; stroke-width: 0.2"/>
    <path d="M 548.735203 117.471523 
L 577.978792 106.929699 
" clip-path="url(#pd701fa7b8c)" style="fill: none; stroke: #e6482f; stroke-width: 0.2"/>
    <path d="M 655.349137 88.94828 
L 657.564453 93.179824 
L 659.175628 99.049875 
L 662.312117 103.251437 
" clip-path="url(#pd701fa7b8c)" style="fill: none; stroke: #e6482f; stroke-width: 0.2"/>
    <path d="M 526.826025 53.653837 
L 525.958202 53.934914 
L 517.74407 55.072521 
L 486.091294 55.196393 
L 467.56362 55.398635 
L 461.297377 55.163529 
L 453.620304 56.609554 
L 444.810189 60.707467 
L 438.719037 64.1936 
L 432.259184 69.365919 
L 423.484424 78.486999 
L 402.40951 102.657353 
L 391.313109 113.846349 
L 384.541795 121.061305 
L 379.351353 123.364327 
L 358.791611 128.397605 
L 342.104078 134.846572 
L 335.674529 137.212795 
L 330.866257 138.982405 
L 321.394499 140.334894 
L 305.159846 134.022439 
L 301.777556 134.697419 
L 280.086457 186.193092 
L 277.407899 197.508488 
L 274.328652 197.986283 
L 269.532164 198.732048 
L 258.494688 199.310963 
L 248.974107 199.285683 
L 239.049469 198.47419 
" clip-path="url(#pd701fa7b8c)" style="fill: none; stroke: #e6482f; stroke-width: 0.2"/>
   </g>
  </g>
 </g>
 <defs>
  <clipPath id="pd701fa7b8c">
   <rect x="7.2" y="7.2" width="837" height="483.072382"/>
  </clipPath>
 </defs>
</svg>
