<?xml version="1.0" encoding="utf-8" standalone="no"?>
<!DOCTYPE svg PUBLIC "-//W3C//DTD SVG 1.1//EN"
  "http://www.w3.org/Graphics/SVG/1.1/DTD/svg11.dtd">
<svg xmlns:xlink="http://www.w3.org/1999/xlink" width="851.4pt" height="798.897954pt" viewBox="0 0 851.4 798.897954" xmlns="http://www.w3.org/2000/svg" version="1.1">
 <metadata>
  <rdf:RDF xmlns:dc="http://purl.org/dc/elements/1.1/" xmlns:cc="http://creativecommons.org/ns#" xmlns:rdf="http://www.w3.org/1999/02/22-rdf-syntax-ns#">
   <cc:Work>
    <dc:type rdf:resource="http://purl.org/dc/dcmitype/StillImage"/>
    <dc:date>2025-03-16T14:29:54.560913</dc:date>
    <dc:format>image/svg+xml</dc:format>
    <dc:creator>
     <cc:Agent>
      <dc:title>Matplotlib v3.10.1, https://matplotlib.org/</dc:title>
     </cc:Agent>
    </dc:creator>
   </cc:Work>
  </rdf:RDF>
 </metadata>
 <defs>
  <style type="text/css">*{stroke-linejoin: round; stroke-linecap: butt}</style>
 </defs>
 <g id="figure_1">
  <g id="patch_1">
   <path d="M 0 798.897954 
L 851.4 798.897954 
L 851.4 0 
L 0 0 
z
" style="fill: #ffffff"/>
  </g>
  <g id="axes_1">
   <g id="PatchCollection_1">
    <path d="M 422.464716 676.3584 
L 423.520532 676.090389 
L 438.510168 660.555888 
L 455.599348 644.207202 
L 450.756832 638.944436 
L 473.200317 619.19688 
L 490.149795 599.680788 
L 496.365142 593.766267 
L 517.919377 574.103988 
L 530.97335 586.781732 
L 544.055532 578.315013 
L 551.650424 569.478763 
L 562.72172 546.060266 
L 568.856469 547.940405 
L 579.152693 550.793101 
L 590.320705 558.4233 
L 599.007682 565.450473 
L 614.472839 573.673546 
L 626.466966 581.33217 
L 639.960191 590.357246 
L 647.974186 596.781394 
L 651.2585 600.758925 
L 656.953998 607.786098 
L 669.005886 630.822883 
L 681.925532 659.981289 
L 684.743728 670.060136 
L 689.086545 692.944641 
L 692.475635 699.062201 
L 697.328898 702.012355 
L 701.78455 703.681334 
L 710.455408 705.827455 
L 719.119549 707.973575 
L 726.158325 710.765359 
L 734.694855 717.211842 
L 740.305726 723.06139 
L 748.251214 731.816424 
L 755.953569 741.422191 
L 760.970711 750.682792 
L 776.378107 756.038956 
L 806.154545 740.772467 
L 793.774898 709.132927 
L 786.955076 694.376065 
L 782.848676 686.516432 
L 777.27676 677.600998 
L 775.118113 673.262058 
L 769.552913 664.937466 
L 747.480173 630.54472 
L 733.064116 607.997259 
L 725.050121 594.631213 
L 714.616882 579.121077 
L 707.296019 569.076747 
L 700.552764 559.343065 
L 693.625481 552.210312 
L 784.879712 455.4481 
L 777.173328 442.788629 
L 752.321346 424.561834 
L 750.295683 415.173319 
L 760.973398 388.295039 
L 774.70707 368.450025 
L 769.787987 356.413883 
L 761.266233 341.654991 
L 755.819241 336.73536 
L 752.568509 327.775257 
L 739.390954 306.427755 
L 727.794437 281.305762 
L 721.959239 262.362239 
L 720.414469 242.655291 
L 714.088974 223.417363 
L 712.683906 197.769498 
L 710.750929 188.545445 
L 711.54212 170.803912 
L 707.060945 161.053988 
L 696.342932 154.378072 
L 690.193406 145.332692 
L 677.537043 138.321761 
L 670.181254 147.608757 
L 652.253869 166.783744 
L 627.322634 169.873995 
L 603.96572 181.426904 
L 577.875236 186.023703 
L 563.711715 196.457868 
L 527.205456 218.296724 
L 508.054345 201.192733 
L 475.188368 208.360004 
L 460.95634 199.663851 
L 429.238865 167.593869 
L 413.111472 142.9145 
L 402.838084 147.828039 
L 397.581838 141.840424 
L 394.779761 138.252728 
L 393.533199 137.37154 
L 390.297243 135.087353 
L 386.397708 131.745334 
L 376.628048 129.024614 
L 372.387321 126.541449 
L 365.418396 119.416817 
L 362.914526 111.831286 
L 362.105873 106.527912 
L 343.662669 86.020991 
L 331.405259 75.148262 
L 294.792881 42.858998 
L 288.479475 44.43661 
L 226.827056 111.961231 
L 214.322483 124.216654 
L 157.532729 71.501685 
L 143.621745 84.875852 
L 194.623315 154.288734 
L 179.919796 168.495361 
L 173.363258 186.807432 
L 181.541133 192.405213 
L 187.380361 199.60903 
L 192.47407 207.186439 
L 196.947185 215.013586 
L 199.555831 221.10069 
L 201.295375 227.559355 
L 202.165819 235.758062 
L 201.295375 250.417465 
L 202.165819 261.596783 
L 202.165819 274.765881 
L 202.414326 285.947229 
L 160.572567 247.313002 
L 123.396011 293.027193 
L 106.306832 284.633568 
L 83.428125 331.738575 
L 84.256927 339.34847 
L 85.121998 347.29744 
L 63.131198 374.133081 
L 45.245455 391.651271 
L 56.22272 428.657127 
L 74.426821 443.458657 
L 199.676726 533.433281 
L 243.192209 573.064429 
L 307.551333 633.874557 
L 310.035053 636.540456 
L 362.694228 693.080677 
L 379.200425 677.058884 
L 401.932715 656.882916 
L 404.416436 659.699065 
L 422.464716 676.3584 
" clip-path="url(#pb987b3c404)" style="fill: #d1d4f2"/>
   </g>
   <g id="PatchCollection_2">
    <path d="M 328.823479 597.508273 
L 329.094822 597.745828 
L 329.657655 597.110317 
L 330.642278 597.981353 
L 328.456765 600.452336 
L 327.202143 599.341714 
L 328.823479 597.508273 
" clip-path="url(#pb987b3c404)" style="fill: #4d59c1"/>
    <path d="M 326.191998 595.851476 
L 327.061099 596.712361 
L 324.827228 598.964061 
L 323.958127 598.103177 
L 326.191998 595.851476 
" clip-path="url(#pb987b3c404)" style="fill: #4d59c1"/>
    <path d="M 324.007829 592.336874 
L 324.85678 593.161212 
L 322.632312 595.45352 
L 321.783361 594.629182 
L 324.007829 592.336874 
" clip-path="url(#pb987b3c404)" style="fill: #4d59c1"/>
    <path d="M 332.055406 589.75422 
L 333.484653 591.025243 
L 332.36033 592.290175 
L 330.931082 591.019152 
L 332.055406 589.75422 
" clip-path="url(#pb987b3c404)" style="fill: #4d59c1"/>
    <path d="M 320.671127 589.256775 
L 321.979479 590.341003 
L 320.539486 592.079015 
L 320.120383 591.731818 
L 319.749638 592.176473 
L 318.863075 591.441473 
L 320.671127 589.256775 
" clip-path="url(#pb987b3c404)" style="fill: #4d59c1"/>
    <path d="M 329.315119 589.467936 
L 331.47108 587.173597 
L 332.541672 588.180669 
L 330.385712 590.475008 
L 329.315119 589.467936 
" clip-path="url(#pb987b3c404)" style="fill: #4d59c1"/>
    <path d="M 326.55334 584.229534 
L 327.298859 585.007173 
L 325.926029 586.322864 
L 325.18051 585.545226 
L 326.55334 584.229534 
" clip-path="url(#pb987b3c404)" style="fill: #4d59c1"/>
    <path d="M 324.752005 582.113869 
L 325.711105 583.035666 
L 323.594099 585.236607 
L 322.634999 584.31481 
L 324.752005 582.113869 
" clip-path="url(#pb987b3c404)" style="fill: #4d59c1"/>
    <path d="M 320.481725 579.831713 
L 321.38978 580.635747 
L 320.290979 581.878344 
L 319.382923 581.076341 
L 320.481725 579.831713 
" clip-path="url(#pb987b3c404)" style="fill: #4d59c1"/>
    <path d="M 318.950388 578.067306 
L 319.742922 578.859157 
L 318.427853 580.174849 
L 317.635319 579.382997 
L 318.950388 578.067306 
" clip-path="url(#pb987b3c404)" style="fill: #4d59c1"/>
    <path d="M 317.357261 586.576663 
L 318.879194 587.92078 
L 317.874422 589.057797 
L 317.022784 588.306554 
L 316.08652 589.366416 
L 315.417567 588.775573 
L 317.357261 586.576663 
" clip-path="url(#pb987b3c404)" style="fill: #4d59c1"/>
    <path d="M 315.99652 585.545226 
L 316.778308 586.205102 
L 315.589507 587.612161 
L 314.807719 586.950254 
L 315.99652 585.545226 
" clip-path="url(#pb987b3c404)" style="fill: #4d59c1"/>
    <path d="M 313.743843 583.63463 
L 314.651899 584.408208 
L 313.409367 585.868057 
L 312.501311 585.094479 
L 313.743843 583.63463 
" clip-path="url(#pb987b3c404)" style="fill: #4d59c1"/>
    <path d="M 309.458787 582.688469 
L 310.792662 584.10568 
L 309.657592 585.173664 
L 308.323718 583.754423 
L 309.458787 582.688469 
" clip-path="url(#pb987b3c404)" style="fill: #4d59c1"/>
    <path d="M 312.477132 582.438732 
L 313.269666 583.159519 
L 312.340118 584.182835 
L 311.547584 583.460017 
L 312.477132 582.438732 
" clip-path="url(#pb987b3c404)" style="fill: #4d59c1"/>
    <path d="M 315.428314 574.877566 
L 316.211445 575.689721 
L 314.940704 576.916076 
L 314.157573 576.10392 
L 315.428314 574.877566 
" clip-path="url(#pb987b3c404)" style="fill: #4d59c1"/>
    <path d="M 312.534893 574.964872 
L 314.936674 572.70505 
L 315.714432 573.533449 
L 313.312651 575.79124 
L 312.534893 574.964872 
" clip-path="url(#pb987b3c404)" style="fill: #4d59c1"/>
    <path d="M 311.911612 572.502012 
L 312.818325 573.255286 
L 311.159377 575.257248 
L 310.252664 574.503974 
L 311.911612 572.502012 
" clip-path="url(#pb987b3c404)" style="fill: #4d59c1"/>
    <path d="M 310.169381 570.729483 
L 310.704006 571.163986 
L 311.201019 570.552839 
L 312.215193 571.379207 
L 310.600573 573.360866 
L 309.051774 572.099995 
L 310.169381 570.729483 
" clip-path="url(#pb987b3c404)" style="fill: #4d59c1"/>
    <path d="M 308.59506 567.354977 
L 309.696547 568.384384 
L 307.294767 570.956886 
L 306.191936 569.92951 
L 308.59506 567.354977 
" clip-path="url(#pb987b3c404)" style="fill: #4d59c1"/>
    <path d="M 222.30021 470.014105 
L 227.238099 464.148313 
L 229.744655 466.259917 
L 224.806766 472.123678 
L 222.30021 470.014105 
" clip-path="url(#pb987b3c404)" style="fill: #4d59c1"/>
    <path d="M 237.993724 462.974749 
L 236.039255 461.259071 
L 237.146116 459.9982 
L 239.100585 461.713878 
L 237.993724 462.974749 
" clip-path="url(#pb987b3c404)" style="fill: #4d59c1"/>
    <path d="M 230.028087 455.198362 
L 224.096172 449.813772 
L 225.932433 447.791505 
L 231.864347 453.174065 
L 230.028087 455.198362 
" clip-path="url(#pb987b3c404)" style="fill: #4d59c1"/>
    <path d="M 213.462785 453.624811 
L 220.154995 445.990551 
L 219.662012 445.558078 
L 221.033499 443.992649 
L 222.900655 445.631172 
L 214.838302 454.828831 
L 213.462785 453.624811 
" clip-path="url(#pb987b3c404)" style="fill: #4d59c1"/>
    <path d="M 308.080584 203.978426 
L 314.891003 210.317298 
L 313.382502 211.937548 
L 306.573427 205.596645 
L 308.080584 203.978426 
" clip-path="url(#pb987b3c404)" style="fill: #4d59c1"/>
    <path d="M 297.995255 194.888378 
L 304.786867 201.137913 
L 303.277023 202.778466 
L 296.485411 196.526901 
L 297.995255 194.888378 
" clip-path="url(#pb987b3c404)" style="fill: #4d59c1"/>
    <path d="M 303.212546 191.582906 
L 308.652821 196.571569 
L 307.042231 198.327855 
L 301.601956 193.339191 
L 303.212546 191.582906 
" clip-path="url(#pb987b3c404)" style="fill: #4d59c1"/>
    <path d="M 307.173872 187.118082 
L 312.614147 192.072229 
L 310.951169 193.897548 
L 305.510894 188.945431 
L 307.173872 187.118082 
" clip-path="url(#pb987b3c404)" style="fill: #4d59c1"/>
    <path d="M 303.41941 187.546494 
L 299.619278 191.834674 
L 297.94421 190.35046 
L 301.745686 186.06228 
L 303.41941 187.546494 
" clip-path="url(#pb987b3c404)" style="fill: #4d59c1"/>
    <path d="M 438.0642 367.499803 
L 441.270604 370.553507 
L 439.561955 372.34634 
L 436.355551 369.292636 
L 438.0642 367.499803 
" clip-path="url(#pb987b3c404)" style="fill: #4d59c1"/>
    <path d="M 481.914159 352.458687 
L 480.110137 350.781586 
L 481.308341 349.49229 
L 488.66816 341.571745 
L 490.470839 343.246815 
L 481.914159 352.458687 
" clip-path="url(#pb987b3c404)" style="fill: #4d59c1"/>
    <path d="M 486.768765 341.293582 
L 484.837132 343.285393 
L 479.228947 337.850043 
L 481.160581 335.858233 
L 486.768765 341.293582 
" clip-path="url(#pb987b3c404)" style="fill: #4d59c1"/>
    <path d="M 462.569616 334.832887 
L 465.930497 338.055113 
L 465.150053 338.871329 
L 467.299297 340.930142 
L 466.009751 342.27629 
L 460.499625 336.991189 
L 462.569616 334.832887 
" clip-path="url(#pb987b3c404)" style="fill: #4d59c1"/>
    <path d="M 477.903132 334.546602 
L 478.756113 335.401395 
L 478.392085 335.764835 
L 479.699094 337.072405 
L 479.231634 337.541424 
L 478.006564 336.31507 
L 476.808361 337.512999 
L 476.389258 337.094739 
L 473.730911 339.752517 
L 473.212406 339.232738 
L 477.903132 334.546602 
" clip-path="url(#pb987b3c404)" style="fill: #4d59c1"/>
    <path d="M 454.540845 327.255478 
L 455.268902 327.968144 
L 454.753083 328.496045 
L 460.271268 333.888756 
L 458.558589 335.640981 
L 452.313691 329.535604 
L 454.540845 327.255478 
" clip-path="url(#pb987b3c404)" style="fill: #4d59c1"/>
    <path d="M 466.818404 317.933965 
L 462.530661 322.437366 
L 460.69843 320.693263 
L 464.986173 316.189862 
L 466.818404 317.933965 
" clip-path="url(#pb987b3c404)" style="fill: #4d59c1"/>
    <path d="M 406.020309 314.772651 
L 407.835077 317.093385 
L 410.75805 314.811228 
L 412.304163 316.788826 
L 409.571936 318.922764 
L 410.748647 320.429312 
L 408.65179 322.067836 
L 404.114198 316.262956 
L 406.020309 314.772651 
" clip-path="url(#pb987b3c404)" style="fill: #4d59c1"/>
    <path d="M 407.141946 301.658373 
L 400.837944 296.14993 
L 403.813304 292.744969 
L 410.117306 298.253412 
L 407.141946 301.658373 
" clip-path="url(#pb987b3c404)" style="fill: #4d59c1"/>
    <path d="M 448.450424 287.878128 
L 452.054438 295.118493 
L 449.890418 296.194598 
L 446.286403 288.954234 
L 448.450424 287.878128 
" clip-path="url(#pb987b3c404)" style="fill: #4d59c1"/>
    <path d="M 348.06056 339.900736 
L 345.96639 342.389992 
L 342.545062 339.514962 
L 344.639232 337.023675 
L 348.06056 339.900736 
" clip-path="url(#pb987b3c404)" style="fill: #4d59c1"/>
    <path d="M 342.605509 335.090746 
L 340.869994 337.084587 
L 335.910613 332.770012 
L 337.646128 330.776171 
L 342.605509 335.090746 
" clip-path="url(#pb987b3c404)" style="fill: #4d59c1"/>
    <path d="M 335.713151 328.9407 
L 334.121367 330.902055 
L 328.865121 326.63824 
L 330.455562 324.676885 
L 335.713151 328.9407 
" clip-path="url(#pb987b3c404)" style="fill: #4d59c1"/>
    <path d="M 328.139751 222.651906 
L 335.201362 228.883168 
L 333.847338 230.416111 
L 326.785727 224.184849 
L 328.139751 222.651906 
" clip-path="url(#pb987b3c404)" style="fill: #4d59c1"/>
    <path d="M 318.327107 213.123294 
L 324.812452 218.995177 
L 323.146788 220.834709 
L 316.661443 214.962826 
L 318.327107 213.123294 
" clip-path="url(#pb987b3c404)" style="fill: #4d59c1"/>
    <path d="M 329.992131 203.986547 
L 325.399464 209.373167 
L 323.579323 207.81992 
L 328.173333 202.435331 
L 329.992131 203.986547 
" clip-path="url(#pb987b3c404)" style="fill: #4d59c1"/>
    <path d="M 358.527381 199.834403 
L 361.624979 205.454518 
L 359.536182 206.605748 
L 356.438584 200.985633 
L 358.527381 199.834403 
" clip-path="url(#pb987b3c404)" style="fill: #4d59c1"/>
    <path d="M 348.759065 197.09541 
L 354.361876 207.866619 
L 352.493377 208.839175 
L 346.890565 198.067966 
L 348.759065 197.09541 
" clip-path="url(#pb987b3c404)" style="fill: #4d59c1"/>
    <path d="M 321.96739 199.901406 
L 317.859646 204.567238 
L 316.031445 202.95714 
L 320.139189 198.293339 
L 321.96739 199.901406 
" clip-path="url(#pb987b3c404)" style="fill: #4d59c1"/>
    <path d="M 354.525756 192.376787 
L 357.49843 198.122786 
L 355.410976 199.202953 
L 352.439646 193.456954 
L 354.525756 192.376787 
" clip-path="url(#pb987b3c404)" style="fill: #4d59c1"/>
    <path d="M 416.7128 287.218252 
L 410.67611 293.79874 
L 408.091643 291.429277 
L 414.13102 284.848789 
L 416.7128 287.218252 
" clip-path="url(#pb987b3c404)" style="fill: #4d59c1"/>
    <path d="M 404.656882 279.287556 
L 407.096275 281.596107 
L 401.129435 287.900463 
L 398.688699 285.591911 
L 404.656882 279.287556 
" clip-path="url(#pb987b3c404)" style="fill: #4d59c1"/>
    <path d="M 396.080054 279.681451 
L 397.961986 281.711839 
L 394.606478 284.820364 
L 392.724546 282.789975 
L 396.080054 279.681451 
" clip-path="url(#pb987b3c404)" style="fill: #4d59c1"/>
    <path d="M 365.419739 195.454856 
L 368.662411 201.560233 
L 366.184064 202.875925 
L 362.941391 196.770547 
L 365.419739 195.454856 
" clip-path="url(#pb987b3c404)" style="fill: #4d59c1"/>
    <path d="M 374.811937 192.001166 
L 370.534941 184.18214 
L 372.582096 183.063397 
L 376.859092 190.880391 
L 374.811937 192.001166 
" clip-path="url(#pb987b3c404)" style="fill: #4d59c1"/>
    <path d="M 390.482615 183.615662 
L 388.542922 184.931354 
L 386.544125 181.987291 
L 388.483818 180.671599 
L 390.482615 183.615662 
" clip-path="url(#pb987b3c404)" style="fill: #4d59c1"/>
    <path d="M 396.516619 184.616644 
L 394.629314 184.234931 
L 396.066621 177.11842 
L 397.953926 177.500133 
L 396.516619 184.616644 
" clip-path="url(#pb987b3c404)" style="fill: #4d59c1"/>
    <path d="M 371.111207 180.456378 
L 369.086887 181.554818 
L 367.050478 177.7986 
L 365.923468 178.409747 
L 364.717205 176.184441 
L 367.868534 174.476885 
L 371.111207 180.456378 
" clip-path="url(#pb987b3c404)" style="fill: #4d59c1"/>
    <path d="M 416.714143 172.416041 
L 417.791452 174.225117 
L 413.197442 176.958019 
L 412.120133 175.150974 
L 416.714143 172.416041 
" clip-path="url(#pb987b3c404)" style="fill: #4d59c1"/>
    <path d="M 385.396966 179.059471 
L 383.594287 180.060452 
L 377.736253 169.500403 
L 379.540275 168.507543 
L 385.396966 179.059471 
" clip-path="url(#pb987b3c404)" style="fill: #4d59c1"/>
    <path d="M 326.425729 193.286401 
L 324.957526 194.922894 
L 321.823659 192.112837 
L 323.290518 190.476344 
L 326.425729 193.286401 
" clip-path="url(#pb987b3c404)" style="fill: #4d59c1"/>
    <path d="M 340.288355 191.229618 
L 341.009695 192.256994 
L 340.485817 192.624495 
L 339.76582 191.597118 
L 340.288355 191.229618 
" clip-path="url(#pb987b3c404)" style="fill: #4d59c1"/>
    <path d="M 362.058858 188.372862 
L 364.760189 193.560504 
L 361.986321 195.00614 
L 359.284989 189.818498 
L 362.058858 188.372862 
" clip-path="url(#pb987b3c404)" style="fill: #4d59c1"/>
    <path d="M 343.913862 192.677285 
L 354.650681 186.805402 
L 355.717244 188.754575 
L 344.980424 194.626458 
L 343.913862 192.677285 
" clip-path="url(#pb987b3c404)" style="fill: #4d59c1"/>
    <path d="M 320.316501 183.331408 
L 316.71383 187.457157 
L 314.78757 185.773965 
L 318.391584 181.650246 
L 320.316501 183.331408 
" clip-path="url(#pb987b3c404)" style="fill: #4d59c1"/>
    <path d="M 357.626041 179.699043 
L 358.938424 182.29591 
L 358.164696 182.687775 
L 360.184985 186.681548 
L 358.041114 187.765776 
L 354.708442 181.173105 
L 357.626041 179.699043 
" clip-path="url(#pb987b3c404)" style="fill: #4d59c1"/>
    <path d="M 360.570506 178.017882 
L 361.325428 179.424941 
L 359.623495 180.338616 
L 358.868573 178.931556 
L 360.570506 178.017882 
" clip-path="url(#pb987b3c404)" style="fill: #4d59c1"/>
    <path d="M 352.432929 171.408968 
L 353.103225 172.734812 
L 352.835913 172.868817 
L 353.954863 175.083971 
L 354.806501 174.653528 
L 355.976496 176.968171 
L 355.124858 177.398613 
L 355.284708 177.715354 
L 353.091136 178.823946 
L 349.970701 172.653596 
L 352.432929 171.408968 
" clip-path="url(#pb987b3c404)" style="fill: #4d59c1"/>
    <path d="M 346.28609 164.83051 
L 349.961298 168.07304 
L 348.223097 170.042517 
L 344.547889 166.799987 
L 346.28609 164.83051 
" clip-path="url(#pb987b3c404)" style="fill: #4d59c1"/>
    <path d="M 362.052141 164.487375 
L 360.184985 165.431505 
L 357.129028 159.387039 
L 358.996185 158.442909 
L 362.052141 164.487375 
" clip-path="url(#pb987b3c404)" style="fill: #4d59c1"/>
    <path d="M 398.704818 173.551028 
L 405.2627 170.361288 
L 406.194935 172.275944 
L 399.637053 175.465684 
L 398.704818 173.551028 
" clip-path="url(#pb987b3c404)" style="fill: #4d59c1"/>
    <path d="M 366.158542 171.654645 
L 364.076461 172.708417 
L 361.166921 166.950236 
L 363.247659 165.898494 
L 366.158542 171.654645 
" clip-path="url(#pb987b3c404)" style="fill: #4d59c1"/>
    <path d="M 383.223542 163.457968 
L 384.895923 162.544293 
L 390.717689 173.201801 
L 389.043965 174.115476 
L 383.223542 163.457968 
" clip-path="url(#pb987b3c404)" style="fill: #4d59c1"/>
    <path d="M 377.736253 169.500403 
L 376.090737 170.405956 
L 374.141641 166.893385 
L 377.62879 164.960455 
L 379.540275 168.507543 
L 377.736253 169.500403 
" clip-path="url(#pb987b3c404)" style="fill: #4d59c1"/>
    <path d="M 410.935362 162.712815 
L 412.892518 161.547372 
L 418.669956 171.250598 
L 416.714143 172.416041 
L 410.935362 162.712815 
" clip-path="url(#pb987b3c404)" style="fill: #4d59c1"/>
    <path d="M 397.849151 168.48927 
L 396.818856 166.745166 
L 401.868238 163.764556 
L 402.898532 165.50866 
L 397.849151 168.48927 
" clip-path="url(#pb987b3c404)" style="fill: #4d59c1"/>
    <path d="M 401.754059 163.236655 
L 406.755082 160.286501 
L 407.724929 161.927055 
L 402.722562 164.87924 
L 401.754059 163.236655 
" clip-path="url(#pb987b3c404)" style="fill: #4d59c1"/>
    <path d="M 370.838521 157.368833 
L 373.12478 156.156692 
L 374.155074 158.099773 
L 369.426736 160.605272 
L 368.401815 158.672343 
L 370.109121 157.76679 
L 368.861216 155.4156 
L 366.851673 156.479523 
L 365.969139 154.814605 
L 370.86673 152.217738 
L 371.750607 153.884687 
L 369.597333 155.025765 
L 370.838521 157.368833 
" clip-path="url(#pb987b3c404)" style="fill: #4d59c1"/>
   </g>
   <g id="LineCollection_1">
    <path d="M 310.987586 637.563192 
L 316.584876 633.647153 
L 323.702905 626.031167 
L 332.529583 621.948056 
" clip-path="url(#pb987b3c404)" style="fill: none; stroke: #4d59c1; stroke-width: 0.2"/>
    <path d="M 264.205103 517.236874 
L 261.796606 518.124154 
L 258.693634 519.141378 
L 255.688722 520.35352 
L 253.943804 521.03167 
L 252.804704 521.886463 
L 251.810679 522.631616 
L 250.496953 524.091465 
L 249.629196 525.055899 
L 247.059505 527.965446 
L 243.855788 529.563361 
L 240.465355 530.86687 
L 235.265527 534.94592 
L 231.734049 538.495039 
L 224.984079 538.093022 
L 221.036185 537.544817 
L 218.672016 536.594596 
L 216.3374 535.585493 
L 215.915611 535.463669 
" clip-path="url(#pb987b3c404)" style="fill: none; stroke: #4d59c1; stroke-width: 0.2"/>
    <path d="M 190.4699 483.621767 
L 202.56343 468.450706 
L 209.114595 460.231694 
L 213.973231 456.221677 
L 219.418879 451.728428 
L 227.637052 441.974443 
" clip-path="url(#pb987b3c404)" style="fill: none; stroke: #4d59c1; stroke-width: 0.2"/>
    <path d="M 93.712259 414.740846 
L 76.189201 435.132035 
L 72.879365 437.166484 
L 72.479068 438.646637 
L 72.852499 441.024221 
L 74.426821 443.458657 
" clip-path="url(#pb987b3c404)" style="fill: none; stroke: #4d59c1; stroke-width: 0.2"/>
    <path d="M 221.502303 504.567252 
L 212.592341 499.836447 
L 190.4699 483.621767 
L 145.432483 451.8401 
L 94.198526 415.088042 
L 93.712259 414.740846 
L 75.175026 401.541292 
" clip-path="url(#pb987b3c404)" style="fill: none; stroke: #4d59c1; stroke-width: 0.2"/>
    <path d="M 209.114595 460.231694 
L 184.704552 443.625149 
L 162.078381 428.348508 
L 108.68309 390.948757 
L 95.289268 381.460752 
" clip-path="url(#pb987b3c404)" style="fill: none; stroke: #4d59c1; stroke-width: 0.2"/>
    <path d="M 145.432483 451.8401 
L 162.078381 428.348508 
L 180.309347 404.639664 
L 189.533635 385.688021 
L 198.266284 365.33947 
" clip-path="url(#pb987b3c404)" style="fill: none; stroke: #4d59c1; stroke-width: 0.2"/>
    <path d="M 194.216302 417.033154 
L 207.763258 396.063304 
L 219.436342 377.030445 
" clip-path="url(#pb987b3c404)" style="fill: none; stroke: #4d59c1; stroke-width: 0.2"/>
    <path d="M 241.127591 356.070747 
L 240.549981 357.203704 
L 227.856007 382.104385 
L 226.426759 386.047399 
L 219.077686 414.367254 
L 216.338743 432.094574 
" clip-path="url(#pb987b3c404)" style="fill: none; stroke: #4d59c1; stroke-width: 0.2"/>
    <path d="M 75.175026 401.541292 
L 72.257427 399.328169 
L 68.4761 399.277409 
L 65.01716 398.540378 
L 62.064635 396.290708 
L 59.597034 393.32025 
L 56.914508 390.928453 
L 55.356306 389.478755 
L 55.166904 387.525522 
L 55.987647 384.922564 
L 55.705558 383.96016 
L 55.078248 383.186582 
" clip-path="url(#pb987b3c404)" style="fill: none; stroke: #4d59c1; stroke-width: 0.2"/>
    <path d="M 310.035053 636.540456 
L 310.663707 634.402458 
L 311.280272 632.68678 
L 312.37773 630.355894 
L 313.268323 627.886942 
L 314.227423 624.768265 
L 314.365781 620.995804 
L 314.536377 618.25275 
L 314.399363 615.852831 
L 313.919813 613.796047 
L 312.720266 611.225576 
L 311.280272 609.132246 
L 309.601175 607.144496 
L 307.646706 605.465364 
L 306.206712 603.887753 
L 303.842543 602.310141 
L 302.367624 600.905112 
L 296.849439 596.344861 
L 295.375863 594.45863 
L 293.078858 592.36733 
L 290.748271 589.932894 
L 287.081123 586.266013 
L 284.304568 583.693511 
L 278.853547 577.797264 
L 276.626392 575.500895 
L 274.74043 573.375078 
L 272.924319 570.97516 
L 271.004775 568.128555 
L 269.35926 565.763153 
L 266.960165 560.037458 
L 265.725693 556.746199 
L 263.70406 554.44983 
L 262.264066 551.879358 
L 260.24109 548.313996 
L 258.836022 544.988221 
L 256.642449 536.793574 
L 254.893501 532.818074 
L 253.249329 529.492298 
L 251.431875 526.201038 
L 250.506356 524.556424 
L 250.496953 524.091465 
L 250.472774 522.875262 
L 250.240387 521.55348 
L 249.384719 519.760647 
L 248.73323 519.271323 
L 248.202635 519.086558 
L 247.603533 518.583022 
L 246.15145 516.37802 
" clip-path="url(#pb987b3c404)" style="fill: none; stroke: #4d59c1; stroke-width: 0.2"/>
    <path d="M 288.037537 558.141076 
L 305.835967 539.329529 
L 321.040528 522.39406 
" clip-path="url(#pb987b3c404)" style="fill: none; stroke: #4d59c1; stroke-width: 0.2"/>
    <path d="M 266.778823 539.124459 
L 265.759275 537.573243 
L 263.884059 535.331694 
L 261.806009 532.763253 
L 259.604376 530.276027 
L 258.259755 528.401979 
L 256.629016 526.282254 
L 253.327239 522.408273 
L 252.804704 521.886463 
L 250.065761 519.14747 
L 250.025463 517.638891 
L 250.155761 515.054207 
L 250.316954 511.858376 
" clip-path="url(#pb987b3c404)" style="fill: none; stroke: #4d59c1; stroke-width: 0.2"/>
    <path d="M 267.521656 542.602514 
L 286.668737 521.888494 
L 300.683154 507.190513 
" clip-path="url(#pb987b3c404)" style="fill: none; stroke: #4d59c1; stroke-width: 0.2"/>
    <path d="M 247.625025 514.780104 
L 250.155761 515.054207 
L 252.087394 515.263337 
L 258.631843 516.185133 
L 264.205103 517.236874 
L 266.338228 517.638891 
L 274.482521 518.851033 
L 281.317118 519.916987 
L 285.341578 520.692595 
L 286.668737 521.888494 
" clip-path="url(#pb987b3c404)" style="fill: none; stroke: #4d59c1; stroke-width: 0.2"/>
    <path d="M 273.034467 487.211493 
L 272.933722 489.631716 
L 272.933722 491.873264 
L 273.544913 494.931029 
L 274.442223 498.394871 
L 275.297891 501.249597 
L 277.091166 506.916411 
L 278.028774 510.788361 
L 278.559369 512.705048 
L 279.945632 514.905989 
L 281.697266 516.700852 
L 281.452789 518.9424 
L 281.317118 519.916987 
L 276.561915 527.46394 
L 273.626853 531.662783 
L 271.466862 534.598724 
L 268.816575 537.532635 
L 266.778823 539.124459 
L 267.0233 541.160939 
L 267.521656 542.602514 
" clip-path="url(#pb987b3c404)" style="fill: none; stroke: #4d59c1; stroke-width: 0.2"/>
    <path d="M 221.502303 504.567252 
L 225.634225 501.349086 
L 230.51704 500.733879 
L 231.012709 501.077014 
L 235.145975 503.943922 
L 246.15145 516.37802 
L 247.625025 514.780104 
L 250.316954 511.858376 
L 273.034467 487.211493 
L 273.554316 486.649075 
" clip-path="url(#pb987b3c404)" style="fill: none; stroke: #4d59c1; stroke-width: 0.2"/>
    <path d="M 89.424517 350.050646 
L 122.590045 370.482443 
L 180.309347 404.639664 
L 194.216302 417.033154 
L 206.826993 425.680578 
L 216.338743 432.094574 
L 219.4847 434.84575 
L 227.637052 441.974443 
L 232.408375 446.146891 
L 243.669072 456.981043 
L 248.598902 461.721999 
L 253.30709 466.253826 
L 262.665706 475.258597 
L 265.176293 477.672729 
L 273.554316 486.649075 
L 288.037537 497.747178 
L 292.972739 501.432332 
L 300.683154 507.190513 
L 321.040528 522.39406 
L 341.908348 537.236198 
L 383.289363 572.055326 
L 450.062357 638.853069 
L 454.766516 644.1402 
" clip-path="url(#pb987b3c404)" style="fill: none; stroke: #4d59c1; stroke-width: 0.2"/>
    <path d="M 231.012709 501.077014 
L 233.649564 500.813064 
L 236.426119 499.988726 
L 239.750731 498.309595 
L 242.493704 496.047743 
L 244.481755 493.578791 
L 247.223385 490.391081 
L 249.965015 487.648026 
L 254.04455 483.774046 
L 256.375137 481.33961 
L 258.329606 479.524443 
L 259.803182 478.359 
L 261.311682 477.26056 
L 261.893322 476.47277 
L 262.442722 475.615946 
L 262.665706 475.258597 
" clip-path="url(#pb987b3c404)" style="fill: none; stroke: #4d59c1; stroke-width: 0.2"/>
    <path d="M 288.037537 497.747178 
L 300.431961 486.575982 
L 313.729067 473.352063 
L 327.806618 457.403363 
" clip-path="url(#pb987b3c404)" style="fill: none; stroke: #4d59c1; stroke-width: 0.2"/>
    <path d="M 265.176293 477.672729 
L 283.323975 457.395242 
" clip-path="url(#pb987b3c404)" style="fill: none; stroke: #4d59c1; stroke-width: 0.2"/>
    <path d="M 95.861504 311.597124 
L 101.257451 315.13406 
L 139.324599 335.310028 
L 140.771309 336.099849 
L 198.266284 365.33947 
L 201.619105 367.111999 
L 207.905645 370.389045 
L 213.418457 373.55239 
L 219.436342 377.030445 
L 224.405126 379.915627 
L 227.856007 382.104385 
L 232.709269 385.545893 
L 257.249611 404.099581 
L 260.251836 406.808119 
L 273.822972 418.545793 
L 287.587539 429.714959 
L 302.250759 440.957219 
L 310.177441 446.865648 
L 316.463981 451.377171 
L 321.763212 454.642035 
L 327.806618 457.403363 
L 334.840021 461.157551 
L 364.194669 478.182357 
L 377.861177 488.458151 
L 382.518321 492.492533 
L 408.693432 516.950589 
L 422.965758 530.962299 
L 448.801019 557.205067 
L 488.876368 600.190416 
" clip-path="url(#pb987b3c404)" style="fill: none; stroke: #4d59c1; stroke-width: 0.2"/>
    <path d="M 245.850555 426.837899 
L 255.223948 433.243774 
L 264.767936 441.550092 
L 283.323975 457.395242 
" clip-path="url(#pb987b3c404)" style="fill: none; stroke: #4d59c1; stroke-width: 0.2"/>
    <path d="M 321.763212 454.642035 
L 336.662849 424.545591 
L 342.240138 412.375444 
L 344.455203 407.38678 
L 345.562064 404.883311 
L 345.635944 404.716819 
L 346.135643 403.490465 
" clip-path="url(#pb987b3c404)" style="fill: none; stroke: #4d59c1; stroke-width: 0.2"/>
    <path d="M 232.408375 446.146891 
L 245.850555 426.837899 
L 260.251836 406.808119 
L 272.040442 388.280826 
" clip-path="url(#pb987b3c404)" style="fill: none; stroke: #4d59c1; stroke-width: 0.2"/>
    <path d="M 240.035506 354.206851 
L 241.222964 354.277915 
L 242.422511 354.554047 
L 243.690565 355.581424 
L 247.273087 359.146786 
L 249.261138 361.169052 
L 251.849634 363.808557 
L 253.168733 365.093793 
L 253.939774 365.950617 
L 254.591264 366.892717 
L 255.207828 368.212469 
L 256.185735 370.218493 
L 256.767374 371.195109 
L 257.539759 372.153453 
L 260.31497 373.97065 
L 262.063918 374.417336 
L 264.323311 374.837626 
L 266.51957 375.769574 
L 268.233593 377.05684 
L 269.91269 378.084217 
L 271.233132 379.233416 
L 272.432679 382.266816 
L 275.94535 383.962191 
L 278.140266 385.694112 
L 281.447416 388.538686 
L 284.155464 390.3904 
L 294.406017 395.031867 
L 299.88256 396.873429 
L 309.820129 399.831705 
L 317.479499 400.946388 
L 323.393951 401.382922 
L 329.550193 401.770726 
L 337.887918 402.546334 
L 342.395958 403.853904 
L 345.562064 404.883311 
" clip-path="url(#pb987b3c404)" style="fill: none; stroke: #4d59c1; stroke-width: 0.2"/>
    <path d="M 288.45261 357.329588 
L 337.232398 387.88084 
L 348.834288 389.178258 
L 352.57666 389.886863 
" clip-path="url(#pb987b3c404)" style="fill: none; stroke: #4d59c1; stroke-width: 0.2"/>
    <path d="M 283.015021 363.698916 
L 288.45261 357.329588 
L 298.341821 344.326982 
L 306.553277 334.530359 
" clip-path="url(#pb987b3c404)" style="fill: none; stroke: #4d59c1; stroke-width: 0.2"/>
    <path d="M 360.47782 372.553439 
L 352.49069 369.883479 
L 347.110863 368.328201 
L 342.546405 366.720134 
L 340.104326 365.709 
L 337.550755 364.370975 
L 334.422261 362.20252 
L 329.998848 358.318387 
L 320.661724 348.791806 
L 314.321453 342.521967 
L 308.165211 336.213551 
L 306.553277 334.530359 
L 297.38675 324.940835 
L 289.357979 316.149254 
L 279.768319 304.586193 
L 275.226697 297.859517 
" clip-path="url(#pb987b3c404)" style="fill: none; stroke: #4d59c1; stroke-width: 0.2"/>
    <path d="M 337.232398 387.88084 
L 328.224378 389.466573 
L 319.671728 387.417911 
L 310.159978 382.949027 
L 298.611819 378.082186 
L 293.567811 374.263026 
L 286.379932 367.672386 
L 283.015021 363.698916 
L 275.769381 358.480818 
L 254.025744 342.812312 
L 239.178495 329.961985 
L 230.011967 322.886082 
L 219.635147 312.222483 
L 213.222339 297.739724 
L 210.699663 289.236458 
L 210.267128 286.931967 
L 210.555932 280.30275 
L 211.151004 279.043909 
L 212.068463 277.998259 
L 214.591139 276.410496 
" clip-path="url(#pb987b3c404)" style="fill: none; stroke: #4d59c1; stroke-width: 0.2"/>
    <path d="M 94.198526 415.088042 
L 108.68309 390.948757 
L 122.590045 370.482443 
L 131.452991 353.045469 
L 139.324599 335.310028 
" clip-path="url(#pb987b3c404)" style="fill: none; stroke: #4d59c1; stroke-width: 0.2"/>
    <path d="M 55.078248 383.186582 
L 54.131681 382.947657 
" clip-path="url(#pb987b3c404)" style="fill: none; stroke: #4d59c1; stroke-width: 0.2"/>
    <path d="M 92.037192 332.581186 
L 131.452991 353.045469 
L 189.533635 385.688021 
L 207.763258 396.063304 
" clip-path="url(#pb987b3c404)" style="fill: none; stroke: #4d59c1; stroke-width: 0.2"/>
    <path d="M 201.619105 367.111999 
L 212.123537 352.6333 
L 216.219191 346.893393 
L 217.347545 345.636582 
L 218.637091 344.444744 
L 220.152309 343.185904 
L 222.022151 341.606262 
L 223.730801 340.18702 
L 224.402439 339.756578 
L 225.98885 338.737323 
L 227.936603 337.366811 
" clip-path="url(#pb987b3c404)" style="fill: none; stroke: #4d59c1; stroke-width: 0.2"/>
    <path d="M 240.549981 357.203704 
L 240.251774 356.009836 
L 240.063715 354.7246 
L 240.035506 354.206851 
L 239.977745 353.181505 
L 239.703716 352.255648 
L 238.89775 351.518617 
L 237.459099 349.993795 
L 236.310597 349.171488 
L 235.487168 348.261874 
L 233.465534 346.412191 
L 232.505091 345.67516 
L 231.854944 344.680269 
L 231.391514 344.270131 
L 230.551965 343.63462 
L 230.003908 342.966622 
L 229.368537 342.109798 
L 228.683466 341.59611 
L 227.877499 341.167698 
L 227.158845 340.686496 
L 226.454968 340.156564 
L 226.129895 339.709879 
L 225.376316 339.983981 
L 224.402439 339.756578 
" clip-path="url(#pb987b3c404)" style="fill: none; stroke: #4d59c1; stroke-width: 0.2"/>
    <path d="M 227.936603 337.366811 
L 233.215685 334.140524 
L 236.628954 332.053285 
" clip-path="url(#pb987b3c404)" style="fill: none; stroke: #4d59c1; stroke-width: 0.2"/>
    <path d="M 212.123537 352.6333 
L 195.802713 340.723043 
L 182.226204 332.65225 
L 151.917828 316.512694 
" clip-path="url(#pb987b3c404)" style="fill: none; stroke: #4d59c1; stroke-width: 0.2"/>
    <path d="M 202.359251 319.970445 
L 213.744874 327.970174 
L 219.508879 336.112031 
L 218.356346 341.151455 
L 218.637091 344.444744 
" clip-path="url(#pb987b3c404)" style="fill: none; stroke: #4d59c1; stroke-width: 0.2"/>
    <path d="M 140.771309 336.099849 
L 151.917828 316.512694 
L 163.499569 298.24326 
L 172.726544 284.948278 
" clip-path="url(#pb987b3c404)" style="fill: none; stroke: #4d59c1; stroke-width: 0.2"/>
    <path d="M 331.508692 315.976671 
L 353.475313 341.240792 
" clip-path="url(#pb987b3c404)" style="fill: none; stroke: #4d59c1; stroke-width: 0.2"/>
    <path d="M 275.226697 297.859517 
L 255.117829 315.176698 
L 239.178495 329.961985 
L 236.628954 332.053285 
" clip-path="url(#pb987b3c404)" style="fill: none; stroke: #4d59c1; stroke-width: 0.2"/>
    <path d="M 284.434866 341.803209 
L 255.117829 315.176698 
L 237.632382 297.360041 
L 226.769295 253.284374 
" clip-path="url(#pb987b3c404)" style="fill: none; stroke: #4d59c1; stroke-width: 0.2"/>
    <path d="M 275.226697 297.859517 
L 298.023464 277.175952 
L 304.950747 270.676679 
" clip-path="url(#pb987b3c404)" style="fill: none; stroke: #4d59c1; stroke-width: 0.2"/>
    <path d="M 308.165211 336.213551 
L 316.607712 330.431005 
L 331.508692 315.976671 
L 298.023464 277.175952 
L 294.756612 271.405589 
L 291.163344 265.905267 
L 286.635155 258.465924 
L 269.427767 239.40667 
L 250.658147 212.045158 
" clip-path="url(#pb987b3c404)" style="fill: none; stroke: #4d59c1; stroke-width: 0.2"/>
    <path d="M 304.950747 270.676679 
L 307.023425 268.733598 
L 323.634397 252.254967 
L 324.06559 251.838737 
L 324.534394 251.237742 
L 333.268386 240.03406 
L 334.153606 238.854404 
" clip-path="url(#pb987b3c404)" style="fill: none; stroke: #4d59c1; stroke-width: 0.2"/>
    <path d="M 269.427767 239.40667 
L 264.473758 240.71424 
L 260.637357 242.835996 
L 254.673204 248.785033 
L 247.920546 258.910579 
" clip-path="url(#pb987b3c404)" style="fill: none; stroke: #4d59c1; stroke-width: 0.2"/>
    <path d="M 309.613264 218.321088 
L 310.620723 217.309955 
L 319.63143 207.685915 
L 327.626619 200.147083 
L 334.831961 192.760531 
L 335.624495 192.230599 
L 338.645526 190.208333 
L 353.326209 181.839072 
L 370.019122 171.622159 
" clip-path="url(#pb987b3c404)" style="fill: none; stroke: #4d59c1; stroke-width: 0.2"/>
    <path d="M 281.60055 188.748484 
L 282.041145 187.99927 
L 282.062637 186.994228 
" clip-path="url(#pb987b3c404)" style="fill: none; stroke: #4d59c1; stroke-width: 0.2"/>
    <path d="M 282.062637 186.994228 
L 281.91219 185.000387 
" clip-path="url(#pb987b3c404)" style="fill: none; stroke: #4d59c1; stroke-width: 0.2"/>
    <path d="M 346.135643 403.490465 
L 351.356964 392.571037 
" clip-path="url(#pb987b3c404)" style="fill: none; stroke: #4d59c1; stroke-width: 0.2"/>
    <path d="M 351.356964 392.571037 
L 352.57666 389.886863 
L 360.47782 372.553439 
" clip-path="url(#pb987b3c404)" style="fill: none; stroke: #4d59c1; stroke-width: 0.2"/>
    <path d="M 392.29604 382.571375 
L 394.973193 376.679188 
L 398.620192 371.883411 
L 405.904787 362.299979 
" clip-path="url(#pb987b3c404)" style="fill: none; stroke: #4d59c1; stroke-width: 0.2"/>
    <path d="M 423.708591 361.294936 
L 423.865754 361.534522 
L 424.429931 362.389316 
L 425.207689 363.398419 
L 426.850517 365.272467 
L 428.81036 367.319098 
L 430.337666 368.789099 
L 432.470792 370.719999 
L 434.085411 372.334157 
L 436.386446 374.228509 
" clip-path="url(#pb987b3c404)" style="fill: none; stroke: #4d59c1; stroke-width: 0.2"/>
    <path d="M 405.904787 362.299979 
L 409.585368 362.245158 
L 410.82387 361.987299 
L 411.367898 361.958873 
L 411.977746 361.928418 
L 413.014756 362.101001 
L 414.023558 362.793363 
L 415.03236 363.514151 
L 415.638178 364.090781 
L 417.281007 365.993255 
L 418.203838 366.626736 
" clip-path="url(#pb987b3c404)" style="fill: none; stroke: #4d59c1; stroke-width: 0.2"/>
    <path d="M 418.203838 366.626736 
L 418.4913 366.943476 
L 419.317416 366.050106 
L 420.041442 365.266376 
L 420.776215 364.470464 
L 421.580839 363.599427 
L 422.252478 362.870518 
L 422.496954 362.606567 
L 422.807251 362.271553 
L 423.227697 361.814716 
L 423.708591 361.294936 
" clip-path="url(#pb987b3c404)" style="fill: none; stroke: #4d59c1; stroke-width: 0.2"/>
    <path d="M 423.865754 361.534522 
L 424.159932 361.441124 
L 425.08545 360.302077 
L 423.328443 358.048346 
L 421.117408 355.589545 
L 420.371889 354.56826 
L 419.293237 352.889129 
L 416.992202 352.42214 
L 416.457577 352.312499 
L 415.119673 352.040427 
L 413.010727 349.898367 
L 411.828642 349.384679 
L 410.466559 348.948146 
L 408.615522 346.694415 
L 406.027026 343.608224 
L 402.453907 339.486536 
L 399.188398 335.580069 
L 396.190202 331.791365 
L 393.165141 328.159 
L 389.136651 323.472864 
L 388.776653 323.034301 
L 387.346062 320.969396 
L 386.66905 319.649643 
L 383.241005 317.054807 
L 381.802354 315.288369 
L 378.434757 312.845812 
L 376.814764 311.270231 
L 374.723281 308.553572 
L 371.365086 304.594315 
L 368.579128 301.416757 
L 367.954504 300.653331 
L 367.551521 299.075719 
L 369.90763 299.985333 
L 374.532535 299.272667 
L 376.472228 298.681824 
L 378.270877 298.570153 
L 380.379823 297.646326 
L 382.143547 297.293039 
L 382.350412 297.252431 
L 384.029509 297.473743 
L 386.0095 297.646326 
L 388.451579 297.954945 
L 391.073658 298.210774 
L 394.038272 297.944793 
L 396.569007 297.686934 
" clip-path="url(#pb987b3c404)" style="fill: none; stroke: #4d59c1; stroke-width: 0.2"/>
    <path d="M 382.143547 297.293039 
L 379.931168 296.117444 
L 378.234609 294.661655 
L 376.876555 292.771364 
L 374.938205 291.063807 
L 370.490612 289.997854 
L 368.345398 288.822259 
L 366.236452 287.57357 
L 361.982291 286.676138 
L 359.389765 287.646664 
L 355.753512 285.356386 
L 351.499351 279.78094 
L 347.597129 275.612553 
L 344.492815 272.402509 
L 341.401932 268.790448 
L 339.548209 266.839245 
L 338.178066 265.336758 
L 334.482709 261.460747 
L 331.816302 258.59993 
L 328.797957 255.473132 
L 326.676922 253.680299 
L 324.534394 251.237742 
" clip-path="url(#pb987b3c404)" style="fill: none; stroke: #4d59c1; stroke-width: 0.2"/>
    <path d="M 154.155729 76.108636 
L 157.231835 78.951179 
L 170.996402 91.677653 
L 177.988163 97.927188 
L 185.267385 104.68432 
L 191.287956 110.273978 
L 202.173879 120.170091 
L 208.507434 125.706959 
L 213.610546 130.47025 
L 218.845299 135.357395 
L 230.330324 145.880897 
L 243.415193 157.835823 
L 258.387367 171.57546 
L 272.81417 184.379088 
L 283.615466 194.567576 
L 289.114846 199.633395 
L 292.412592 202.689129 
L 295.794966 205.824049 
L 309.327146 218.059168 
L 309.613264 218.321088 
L 333.268386 240.03406 
L 337.838217 243.979104 
L 348.505185 253.767606 
L 360.70752 264.924589 
L 368.056593 271.807605 
L 379.627588 282.55445 
L 386.74696 288.767438 
L 390.815748 292.316557 
L 396.569007 297.686934 
L 397.278257 298.227017 
L 405.691206 306.204412 
L 415.834296 315.054875 
L 433.036311 330.8249 
L 443.714026 341.092573 
L 453.824878 350.194804 
L 461.497681 357.5509 
L 463.843044 359.79854 
L 465.622887 361.504066 
L 475.084935 370.216462 
L 482.4555 377.21318 
L 486.865481 381.399841 
L 498.929459 392.895899 
L 515.389984 408.966422 
L 522.130552 415.644369 
L 529.374849 422.322315 
L 536.357207 427.568839 
L 543.035984 431.727074 
L 549.850432 437.14618 
L 557.672339 443.57845 
L 559.233227 444.861655 
L 575.151069 457.691679 
L 577.500462 459.443904 
" clip-path="url(#pb987b3c404)" style="fill: none; stroke: #4d59c1; stroke-width: 0.5"/>
    <path d="M 578.941799 458.607384 
L 576.310318 456.666332 
L 563.327538 446.406781 
L 558.511887 442.465797 
L 555.359214 439.885174 
L 550.449534 435.950281 
L 544.26374 431.032681 
L 537.74347 426.748562 
L 531.264841 422.226887 
L 524.807705 416.399673 
L 516.240279 407.989805 
L 509.1424 401.053999 
L 501.859148 393.935458 
L 490.802628 383.446472 
L 483.277586 376.262958 
L 477.604924 370.847913 
L 464.830353 358.815832 
L 462.482303 356.60474 
L 455.332036 349.800909 
L 445.289691 340.556551 
L 436.469729 332.209625 
L 422.51173 319.495334 
L 412.68431 310.614416 
L 406.720157 305.266373 
L 400.978988 300.117309 
L 396.272142 295.7337 
L 393.684989 293.262718 
L 387.605314 287.904523 
L 380.230719 281.40322 
L 369.59196 271.285796 
L 360.405283 262.78659 
L 339.373583 243.512115 
L 336.079866 240.582265 
L 334.153606 238.854404 
L 332.745851 237.589473 
L 325.653344 231.203902 
L 312.146686 218.737318 
L 310.620723 217.309955 
L 298.704506 206.155002 
L 289.982603 198.51059 
L 284.555761 193.554413 
L 273.935807 183.800427 
L 259.158408 170.606965 
L 244.539516 157.232797 
L 232.578971 146.154999 
L 219.64052 134.644728 
L 214.530691 129.771797 
L 208.918477 124.529334 
L 203.106114 119.183322 
L 193.645409 110.712542 
L 186.213053 103.772675 
L 177.603985 95.734368 
L 172.476694 91.074627 
L 158.119742 78.059839 
L 155.361992 75.560431 
L 154.316827 74.593487 
" clip-path="url(#pb987b3c404)" style="fill: none; stroke: #4d59c1; stroke-width: 0.5"/>
    <path d="M 135.098647 283.011288 
L 163.499569 298.24326 
L 202.359251 319.970445 
" clip-path="url(#pb987b3c404)" style="fill: none; stroke: #4d59c1; stroke-width: 0.2"/>
    <path d="M 93.968119 310.037763 
L 95.861504 311.597124 
" clip-path="url(#pb987b3c404)" style="fill: none; stroke: #4d59c1; stroke-width: 0.2"/>
    <path d="M 149.190974 267.681857 
L 172.726544 284.948278 
L 184.281419 293.806862 
" clip-path="url(#pb987b3c404)" style="fill: none; stroke: #4d59c1; stroke-width: 0.2"/>
    <path d="M 237.632382 297.360041 
L 234.064636 301.160928 
L 232.965835 301.936536 
L 232.047033 302.011661 
L 230.894501 301.755832 
L 229.6157 300.945707 
L 226.553027 294.712415 
L 221.436482 286.570558 
L 214.591139 276.410496 
L 211.689659 259.43645 
L 211.73936 257.828382 
L 212.47279 256.303561 
" clip-path="url(#pb987b3c404)" style="fill: none; stroke: #4d59c1; stroke-width: 0.2"/>
    <path d="M 135.098647 283.011288 
L 144.167115 272.682703 
L 149.190974 267.681857 
" clip-path="url(#pb987b3c404)" style="fill: none; stroke: #4d59c1; stroke-width: 0.2"/>
    <path d="M 275.226697 297.859517 
L 247.920546 258.910579 
L 238.567303 246.30999 
L 215.503224 213.505007 
L 215.355464 213.295877 
L 210.847424 206.851425 
" clip-path="url(#pb987b3c404)" style="fill: none; stroke: #4d59c1; stroke-width: 0.2"/>
    <path d="M 212.47279 256.303561 
L 213.438606 255.414251 
L 215.252031 254.78077 
L 226.769295 253.284374 
L 231.740766 251.195104 
L 237.146116 247.808416 
L 238.567303 246.30999 
" clip-path="url(#pb987b3c404)" style="fill: none; stroke: #4d59c1; stroke-width: 0.2"/>
    <path d="M 250.658147 212.045158 
L 228.512869 200.699349 
L 214.248603 194.143225 
L 211.288019 192.782865 
L 202.771638 187.384063 
L 187.95797 174.775352 
L 179.023245 170.999383 
" clip-path="url(#pb987b3c404)" style="fill: none; stroke: #4d59c1; stroke-width: 0.2"/>
    <path d="M 292.412592 202.689129 
L 289.160517 201.560233 
L 285.815755 198.748146 
L 281.478312 195.913724 
L 278.011312 192.49658 
L 274.157448 189.757587 
L 270.861044 187.164781 
L 268.268518 184.571975 
L 268.021355 184.310055 
L 266.741211 182.947664 
L 263.444808 180.403588 
L 260.730043 178.076763 
L 258.030055 175.829123 
L 253.774551 171.534852 
L 250.259193 168.166438 
L 246.527567 164.312761 
L 242.503107 160.412385 
L 236.419402 154.958763 
L 235.038513 155.612548 
L 228.542421 161.841779 
L 226.167506 164.919847 
L 223.573637 169.522737 
L 222.677671 172.35919 
L 221.635287 174.878902 
L 220.180517 177.325519 
L 218.823807 180.015784 
L 215.115017 182.366973 
L 214.364125 184.54761 
L 214.000096 188.157641 
L 213.808008 189.438816 
L 213.718008 190.03575 
L 213.636068 190.581924 
L 213.951738 192.228569 
L 214.248603 194.143225 
L 214.339946 194.725947 
L 214.678452 196.252798 
L 214.314423 197.633462 
L 213.732784 199.669942 
L 213.394278 200.928783 
L 213.175324 201.948037 
L 214.630094 203.085055 
L 217.946646 202.944958 
L 219.162313 203.765235 
L 219.453804 204.969255 
L 218.580674 206.865638 
L 217.926497 208.34376 
L 217.103068 209.216827 
L 216.254117 210.792409 
L 215.852476 212.099979 
L 215.503224 213.505007 
" clip-path="url(#pb987b3c404)" style="fill: none; stroke: #4d59c1; stroke-width: 0.2"/>
    <path d="M 317.519797 159.206335 
L 319.564266 168.487239 
L 322.005002 174.095172 
L 322.643059 176.643309 
L 323.291862 178.517357 
L 325.743344 184.226809 
" clip-path="url(#pb987b3c404)" style="fill: none; stroke: #4d59c1; stroke-width: 0.2"/>
    <path d="M 281.636818 184.102955 
L 247.287863 153.728347 
L 218.428883 126.498811 
" clip-path="url(#pb987b3c404)" style="fill: none; stroke: #4d59c1; stroke-width: 0.2"/>
    <path d="M 281.91219 185.000387 
L 281.636818 184.102955 
L 281.283536 182.312153 
L 281.184134 178.507205 
L 284.272329 174.286028 
L 293.081545 165.784793 
L 308.041629 150.34166 
L 323.309324 134.559452 
L 337.58971 117.136691 
" clip-path="url(#pb987b3c404)" style="fill: none; stroke: #4d59c1; stroke-width: 0.2"/>
    <path d="M 232.27942 110.694269 
L 262.427946 137.877106 
L 293.081545 165.784793 
" clip-path="url(#pb987b3c404)" style="fill: none; stroke: #4d59c1; stroke-width: 0.2"/>
    <path d="M 247.838607 94.445072 
L 277.668776 121.924346 
L 308.041629 150.34166 
L 317.519797 159.206335 
" clip-path="url(#pb987b3c404)" style="fill: none; stroke: #4d59c1; stroke-width: 0.2"/>
    <path d="M 333.989726 144.423078 
L 323.309324 134.559452 
L 292.654382 106.235536 
" clip-path="url(#pb987b3c404)" style="fill: none; stroke: #4d59c1; stroke-width: 0.2"/>
    <path d="M 245.299812 154.972975 
L 247.287863 153.728347 
L 262.427946 137.877106 
L 277.668776 121.924346 
L 292.654382 106.235536 
L 308.408344 89.744723 
" clip-path="url(#pb987b3c404)" style="fill: none; stroke: #4d59c1; stroke-width: 0.2"/>
    <path d="M 343.702967 114.038318 
L 341.039247 112.937848 
L 337.398965 116.958016 
" clip-path="url(#pb987b3c404)" style="fill: none; stroke: #4d59c1; stroke-width: 0.2"/>
    <path d="M 278.165789 63.506016 
L 308.408344 89.744723 
L 328.390944 108.511601 
L 337.398965 116.958016 
L 337.58971 117.136691 
" clip-path="url(#pb987b3c404)" style="fill: none; stroke: #4d59c1; stroke-width: 0.2"/>
    <path d="M 356.943656 123.278615 
L 364.690339 122.953753 
L 369.112409 123.698905 
" clip-path="url(#pb987b3c404)" style="fill: none; stroke: #4d59c1; stroke-width: 0.2"/>
    <path d="M 363.856405 114.684729 
L 359.19499 115.587504 
L 351.593381 112.992668 
L 349.792045 112.093206 
L 348.530708 111.841438 
L 347.018177 112.056659 
L 343.702967 114.038318 
L 348.601901 118.109247 
L 351.700843 120.379221 
L 356.943656 123.278615 
L 361.788859 126.34044 
L 365.516455 129.00431 
" clip-path="url(#pb987b3c404)" style="fill: none; stroke: #4d59c1; stroke-width: 0.2"/>
    <path d="M 369.112409 123.698905 
L 369.506998 123.596771 
" clip-path="url(#pb987b3c404)" style="fill: none; stroke: #4d59c1; stroke-width: 0.2"/>
    <path d="M 368.925349 123.002126 
L 369.112409 123.698905 
" clip-path="url(#pb987b3c404)" style="fill: none; stroke: #4d59c1; stroke-width: 0.2"/>
    <path d="M 334.857483 86.932635 
L 339.685223 86.429099 
L 341.77178 84.34371 
" clip-path="url(#pb987b3c404)" style="fill: none; stroke: #4d59c1; stroke-width: 0.2"/>
    <path d="M 213.610546 130.47025 
L 214.530691 129.771797 
L 218.428883 126.498811 
L 232.27942 110.694269 
L 247.838607 94.445072 
L 278.165789 63.506016 
" clip-path="url(#pb987b3c404)" style="fill: none; stroke: #4d59c1; stroke-width: 0.2"/>
    <path d="M 185.267385 104.68432 
L 186.213053 103.772675 
L 189.047037 100.754774 
" clip-path="url(#pb987b3c404)" style="fill: none; stroke: #4d59c1; stroke-width: 0.2"/>
    <path d="M 153.425817 75.450113 
L 154.155729 76.108636 
" clip-path="url(#pb987b3c404)" style="fill: none; stroke: #4d59c1; stroke-width: 0.5"/>
    <path d="M 794.930116 726.896794 
L 797.126376 725.983119 
" clip-path="url(#pb987b3c404)" style="fill: none; stroke: #4d59c1; stroke-width: 0.5"/>
    <path d="M 584.31894 464.899557 
L 588.045192 467.886258 
L 588.8928 468.566438 
L 605.839593 482.050246 
L 614.299556 488.640886 
L 624.274737 496.5594 
L 631.75545 502.421131 
L 635.707374 505.55402 
L 639.659297 508.686909 
L 645.748375 513.612631 
L 651.484171 518.215521 
L 653.090731 519.62055 
L 669.782301 534.720547 
L 677.508834 541.916243 
L 682.426574 547.093733 
L 696.070246 562.406921 
L 703.366931 571.431997 
L 707.621092 577.186117 
L 713.319276 585.593955 
L 721.327898 598.265608 
L 728.585628 609.436804 
L 733.535606 617.178674 
L 748.216289 639.744409 
L 770.107687 673.645801 
L 772.426184 677.280196 
L 774.38737 680.90647 
L 777.806012 686.402731 
L 780.681969 692.073605 
L 782.99375 697.011509 
L 785.266576 701.874289 
L 787.465522 707.151268 
L 788.354772 709.256781 
L 790.145361 714.178442 
L 794.930116 726.896794 
L 800.65214 743.59357 
" clip-path="url(#pb987b3c404)" style="fill: none; stroke: #4d59c1; stroke-width: 0.5"/>
    <path d="M 802.777079 742.504106 
L 797.126376 725.983119 
L 790.701478 708.830399 
L 789.489842 705.796999 
L 787.178061 700.816457 
L 784.899861 695.628815 
L 782.299276 690.396504 
L 779.78466 685.448448 
L 777.890638 682.11049 
L 774.540503 676.295458 
L 772.091708 672.250925 
L 750.221803 638.406383 
L 731.26681 608.58201 
L 723.341471 596.840275 
L 715.159567 584.125984 
L 709.719292 576.107981 
L 705.137371 570.134579 
L 698.606355 561.613039 
L 692.83026 554.839664 
L 688.972367 550.537272 
L 685.172234 546.119147 
L 681.218967 542.377141 
L 676.588689 537.853436 
L 669.809166 531.796788 
L 662.421138 525.388883 
L 656.071464 520.252001 
L 652.417749 517.389153 
L 647.119861 513.176098 
L 640.614367 508.083884 
L 636.415281 504.648467 
L 632.981863 501.83841 
L 625.168016 495.832521 
L 615.941041 488.370845 
L 606.594515 480.947745 
L 597.52336 473.70129 
L 589.743095 467.559365 
L 589.094292 467.033495 
L 585.334458 463.825481 
" clip-path="url(#pb987b3c404)" style="fill: none; stroke: #4d59c1; stroke-width: 0.5"/>
    <path d="M 465.757214 477.284925 
L 466.548405 476.489013 
L 469.248393 477.295077 
L 471.843606 478.381335 
L 473.544196 479.475714 
L 475.360307 480.427966 
L 476.801644 481.753809 
L 477.752685 482.446172 
L 478.99253 483.857292 
L 480.029541 485.15471 
L 481.028939 486.752625 
L 482.53744 489.018539 
L 483.805494 490.921012 
L 484.584596 492.447864 
L 485.794889 494.293487 
L 487.206674 497.377647 
L 488.273236 499.251695 
L 489.253829 503.432265 
L 489.916065 506.573275 
L 490.781136 510.493955 
L 491.732177 513.578115 
L 493.145305 517.009471 
L 494.788133 519.689583 
L 496.488723 522.428577 
L 498.448565 525.628469 
L 500.494377 527.878139 
L 503.17556 530.558251 
L 506.172412 533.526679 
L 509.429861 536.255521 
L 513.160143 539.018879 
L 518.389524 542.89286 
L 523.23607 544.598386 
L 525.975013 546.068387 
L 528.598435 547.162766 
L 530.558277 547.509963 
L 536.956309 547.623664 
L 539.348687 548.143444 
L 541.741064 548.864232 
L 543.700907 549.556594 
L 545.200005 550.650973 
L 546.727311 551.631651 
L 547.765665 552.669179 
L 549.00551 554.457951 
L 549.639538 555.465024 
L 550.331326 556.329969 
L 550.820279 556.677166 
L 551.800871 556.792898 
L 553.270417 556.965481 
L 555.259812 557.253796 
L 556.153091 557.310647 
L 557.244386 557.646166 
" clip-path="url(#pb987b3c404)" style="fill: none; stroke: #4d59c1; stroke-width: 0.2"/>
    <path d="M 790.701478 708.830399 
L 791.63237 708.477111 
L 793.099343 707.671148 
" clip-path="url(#pb987b3c404)" style="fill: none; stroke: #4d59c1; stroke-width: 0.2"/>
    <path d="M 770.107687 673.645801 
L 769.002169 674.502625 
L 768.716051 675.320872 
L 768.81814 676.09851 
L 769.206347 677.03858 
L 775.484828 684.731721 
L 777.806012 686.402731 
" clip-path="url(#pb987b3c404)" style="fill: none; stroke: #4d59c1; stroke-width: 0.5"/>
    <path d="M 772.091708 672.250925 
L 770.107687 673.645801 
" clip-path="url(#pb987b3c404)" style="fill: none; stroke: #4d59c1; stroke-width: 0.5"/>
    <path d="M 423.096056 675.706645 
L 423.872471 674.906672 
L 431.61378 666.925216 
L 438.136737 660.20057 
L 454.766516 644.1402 
" clip-path="url(#pb987b3c404)" style="fill: none; stroke: #4d59c1; stroke-width: 0.2"/>
    <path d="M 454.766516 644.1402 
L 455.190686 644.598157 
" clip-path="url(#pb987b3c404)" style="fill: none; stroke: #4d59c1; stroke-width: 0.2"/>
    <path d="M 472.524648 618.983689 
L 471.623308 619.935941 
L 450.062357 638.853069 
" clip-path="url(#pb987b3c404)" style="fill: none; stroke: #4d59c1; stroke-width: 0.2"/>
    <path d="M 472.524648 618.983689 
L 472.957038 619.410936 
" clip-path="url(#pb987b3c404)" style="fill: none; stroke: #4d59c1; stroke-width: 0.2"/>
    <path d="M 488.876368 600.190416 
L 472.524648 618.983689 
" clip-path="url(#pb987b3c404)" style="fill: none; stroke: #4d59c1; stroke-width: 0.2"/>
    <path d="M 488.876368 600.190416 
L 490.074572 598.915332 
L 511.654329 579.047983 
L 517.493557 573.689789 
" clip-path="url(#pb987b3c404)" style="fill: none; stroke: #4d59c1; stroke-width: 0.2"/>
    <path d="M 721.327898 598.265608 
L 723.341471 596.840275 
" clip-path="url(#pb987b3c404)" style="fill: none; stroke: #4d59c1; stroke-width: 0.5"/>
    <path d="M 723.93678 520.069463 
L 723.326695 519.470301 
L 719.724024 519.037829 
L 699.143666 519.427663 
L 692.341307 515.724235 
L 687.153569 504.335787 
L 682.872542 503.154101 
" clip-path="url(#pb987b3c404)" style="fill: none; stroke: #4d59c1; stroke-width: 0.2"/>
    <path d="M 400.870182 654.882984 
L 417.023097 640.233733 
" clip-path="url(#pb987b3c404)" style="fill: none; stroke: #4d59c1; stroke-width: 0.2"/>
    <path d="M 423.096056 675.706645 
L 400.870182 654.882984 
L 347.543398 608.1069 
L 314.771451 580.483468 
L 288.037537 558.141076 
L 267.521656 542.602514 
" clip-path="url(#pb987b3c404)" style="fill: none; stroke: #4d59c1; stroke-width: 0.2"/>
    <path d="M 438.136737 660.20057 
L 417.023097 640.233733 
L 365.746155 589.538999 
L 305.835967 539.329529 
L 286.668737 521.888494 
" clip-path="url(#pb987b3c404)" style="fill: none; stroke: #4d59c1; stroke-width: 0.2"/>
    <path d="M 465.757214 477.284925 
L 463.461553 480.269596 
L 444.726858 507.474768 
L 422.965758 530.962299 
L 404.529271 553.383876 
L 383.289363 572.055326 
L 365.746155 589.538999 
L 347.543398 608.1069 
L 332.529583 621.948056 
" clip-path="url(#pb987b3c404)" style="fill: none; stroke: #4d59c1; stroke-width: 0.2"/>
    <path d="M 313.729067 473.352063 
L 363.685567 515.238972 
L 404.529271 553.383876 
L 438.054797 586.164494 
L 453.216373 602.685763 
L 461.157831 610.553517 
L 468.661381 617.795912 
L 470.837491 619.016176 
L 472.524648 618.983689 
" clip-path="url(#pb987b3c404)" style="fill: none; stroke: #4d59c1; stroke-width: 0.2"/>
    <path d="M 341.908348 537.236198 
L 363.685567 515.238972 
L 382.518321 492.492533 
" clip-path="url(#pb987b3c404)" style="fill: none; stroke: #4d59c1; stroke-width: 0.2"/>
    <path d="M 511.654329 579.047983 
L 491.460834 557.420288 
L 453.12503 517.204388 
L 444.726858 507.474768 
L 430.946171 495.032548 
L 398.50467 467.47815 
L 336.662849 424.545591 
L 312.53758 410.621188 
L 310.462216 409.433411 
L 286.956198 395.992241 
L 272.040442 388.280826 
" clip-path="url(#pb987b3c404)" style="fill: none; stroke: #4d59c1; stroke-width: 0.2"/>
    <path d="M 377.861177 488.458151 
L 398.50467 467.47815 
" clip-path="url(#pb987b3c404)" style="fill: none; stroke: #4d59c1; stroke-width: 0.2"/>
    <path d="M 345.562064 404.883311 
L 365.077203 412.367322 
L 376.880585 417.087975 
L 398.651087 419.761996 
L 414.200871 418.620918 
L 421.668152 420.113253 
L 427.554395 426.088686 
L 431.419005 431.887474 
L 437.392561 447.438218 
L 439.238225 451.829948 
L 443.54343 461.230645 
L 451.255188 469.666908 
L 465.757214 477.284925 
" clip-path="url(#pb987b3c404)" style="fill: none; stroke: #4d59c1; stroke-width: 0.2"/>
    <path d="M 360.47782 372.553439 
L 368.161369 374.892446 
L 392.29604 382.571375 
L 435.028392 395.83184 
L 450.364595 401.033695 
L 456.092331 402.976776 
L 465.55438 411.788661 
L 496.520962 440.28516 
" clip-path="url(#pb987b3c404)" style="fill: none; stroke: #4d59c1; stroke-width: 0.2"/>
    <path d="M 517.493557 573.689789 
L 523.63368 567.237215 
L 514.087005 557.058879 
" clip-path="url(#pb987b3c404)" style="fill: none; stroke: #4d59c1; stroke-width: 0.2"/>
    <path d="M 503.422723 545.672461 
L 491.460834 557.420288 
" clip-path="url(#pb987b3c404)" style="fill: none; stroke: #4d59c1; stroke-width: 0.2"/>
    <path d="M 465.014382 504.449489 
L 488.289356 528.663899 
L 503.422723 545.672461 
L 514.087005 557.058879 
" clip-path="url(#pb987b3c404)" style="fill: none; stroke: #4d59c1; stroke-width: 0.2"/>
    <path d="M 453.12503 517.204388 
L 465.014382 504.449489 
L 475.247472 492.557505 
" clip-path="url(#pb987b3c404)" style="fill: none; stroke: #4d59c1; stroke-width: 0.2"/>
    <path d="M 463.461553 480.269596 
L 475.247472 492.557505 
L 485.262951 504.376395 
" clip-path="url(#pb987b3c404)" style="fill: none; stroke: #4d59c1; stroke-width: 0.2"/>
    <path d="M 468.582128 474.440351 
L 466.548405 476.489013 
L 465.757214 477.284925 
" clip-path="url(#pb987b3c404)" style="fill: none; stroke: #4d59c1; stroke-width: 0.2"/>
    <path d="M 468.582128 474.440351 
L 471.800621 469.173524 
" clip-path="url(#pb987b3c404)" style="fill: none; stroke: #4d59c1; stroke-width: 0.2"/>
    <path d="M 507.652705 451.029975 
L 503.942571 456.174978 
L 487.923984 475.877866 
L 482.240576 472.684065 
L 476.82851 469.896342 
L 471.800621 469.173524 
" clip-path="url(#pb987b3c404)" style="fill: none; stroke: #4d59c1; stroke-width: 0.2"/>
    <path d="M 496.520962 440.28516 
L 507.652705 451.029975 
L 515.130732 457.691679 
L 515.701625 458.650022 
L 515.923266 459.898711 
L 516.460577 461.106792 
L 517.161768 462.312842 
L 518.081913 463.051903 
L 518.518478 463.742235 
L 518.570866 464.434598 
L 518.213554 465.248784 
L 517.58893 466.038605 
L 514.342228 468.669988 
L 511.348062 472.320626 
L 507.764197 477.396596 
" clip-path="url(#pb987b3c404)" style="fill: none; stroke: #4d59c1; stroke-width: 0.2"/>
    <path d="M 471.800621 469.173524 
L 473.126436 466.475138 
L 475.05001 464.65388 
L 478.064325 461.20425 
L 488.821294 450.126452 
L 496.520962 440.28516 
" clip-path="url(#pb987b3c404)" style="fill: none; stroke: #4d59c1; stroke-width: 0.2"/>
    <path d="M 576.435242 476.57835 
L 597.818881 493.999081 
" clip-path="url(#pb987b3c404)" style="fill: none; stroke: #4d59c1; stroke-width: 0.2"/>
    <path d="M 651.484171 518.215521 
L 652.417749 517.389153 
L 655.543556 514.623765 
L 662.215617 510.867546 
L 678.712411 504.857597 
L 682.872542 503.154101 
L 687.886998 500.106489 
L 693.657719 495.676182 
L 746.879728 449.168109 
" clip-path="url(#pb987b3c404)" style="fill: none; stroke: #4d59c1; stroke-width: 0.2"/>
    <path d="M 560.61546 487.473413 
L 568.93035 481.747718 
L 576.435242 476.57835 
L 588.045192 467.886258 
L 589.094292 467.033495 
" clip-path="url(#pb987b3c404)" style="fill: none; stroke: #4d59c1; stroke-width: 0.2"/>
    <path d="M 577.500462 459.443904 
L 581.919845 462.976779 
L 584.31894 464.899557 
" clip-path="url(#pb987b3c404)" style="fill: none; stroke: #4d59c1; stroke-width: 0.5"/>
    <path d="M 585.334458 463.825481 
L 583.238944 462.036709 
L 578.941799 458.607384 
" clip-path="url(#pb987b3c404)" style="fill: none; stroke: #4d59c1; stroke-width: 0.5"/>
    <path d="M 567.838265 448.644269 
L 586.215648 433.032613 
" clip-path="url(#pb987b3c404)" style="fill: none; stroke: #4d59c1; stroke-width: 0.2"/>
    <path d="M 488.821294 450.126452 
L 460.381417 420.381264 
L 465.55438 411.788661 
" clip-path="url(#pb987b3c404)" style="fill: none; stroke: #4d59c1; stroke-width: 0.2"/>
    <path d="M 533.360354 378.849673 
L 528.466793 383.334801 
L 509.1424 401.053999 
" clip-path="url(#pb987b3c404)" style="fill: none; stroke: #4d59c1; stroke-width: 0.2"/>
    <path d="M 450.364595 401.033695 
L 449.909223 400.209357 
L 449.015944 398.855088 
L 448.626393 398.1343 
L 448.079679 396.420653 
L 447.876844 395.25318 
L 447.833859 395.035928 
L 447.776098 394.806494 
L 448.093112 394.532392 
L 448.986392 393.435982 
L 448.208634 392.556824 
L 446.85461 391.318287 
L 444.374919 388.92649 
L 439.921953 384.84744 
L 440.24837 384.492122 
L 440.864934 383.824124 
L 441.864333 382.739897 
L 442.419107 382.136872 
L 442.616568 381.92165 
L 435.310481 374.902598 
L 435.796747 374.466065 
L 436.015702 374.269117 
" clip-path="url(#pb987b3c404)" style="fill: none; stroke: #4d59c1; stroke-width: 0.2"/>
    <path d="M 536.510341 381.996775 
L 542.765985 380.571442 
L 550.62013 372.860028 
" clip-path="url(#pb987b3c404)" style="fill: none; stroke: #4d59c1; stroke-width: 0.2"/>
    <path d="M 436.015702 374.269117 
L 436.386446 374.228509 
L 438.005096 374.051866 
L 438.523601 373.749338 
L 438.956137 373.534117 
L 442.012093 371.19917 
L 443.928951 370.854004 
L 446.495955 371.174806 
" clip-path="url(#pb987b3c404)" style="fill: none; stroke: #4d59c1; stroke-width: 0.2"/>
    <path d="M 442.531942 368.033795 
L 446.495955 371.174806 
L 446.712222 371.347389 
L 452.908763 370.626601 
L 463.843044 359.79854 
L 464.830353 358.815832 
" clip-path="url(#pb987b3c404)" style="fill: none; stroke: #4d59c1; stroke-width: 0.2"/>
    <path d="M 489.111442 336.556686 
L 494.179629 335.858233 
L 499.223637 333.622775 
L 523.72368 321.302379 
L 552.999075 307.723143 
L 554.061608 305.881581 
L 557.719353 297.835152 
L 558.240545 295.579391 
L 557.055774 291.993725 
" clip-path="url(#pb987b3c404)" style="fill: none; stroke: #4d59c1; stroke-width: 0.2"/>
    <path d="M 459.723211 325.401733 
L 536.785713 292.446502 
L 543.703593 286.393914 
L 551.917737 281.133179 
" clip-path="url(#pb987b3c404)" style="fill: none; stroke: #4d59c1; stroke-width: 0.2"/>
    <path d="M 422.233672 317.022321 
L 425.579777 316.258895 
L 429.651252 315.546229 
L 480.409688 289.291278 
L 539.941072 258.124819 
" clip-path="url(#pb987b3c404)" style="fill: none; stroke: #4d59c1; stroke-width: 0.2"/>
    <path d="M 480.409688 289.291278 
L 476.381198 276.844999 
L 475.540306 275.374998 
L 472.887333 272.558849 
L 467.893026 268.648321 
L 460.996638 264.09213 
L 458.652618 263.405859 
L 457.502773 263.334795 
L 450.476087 265.424065 
L 447.288489 267.480848 
L 444.712082 268.703142 
L 438.852704 270.932508 
" clip-path="url(#pb987b3c404)" style="fill: none; stroke: #4d59c1; stroke-width: 0.2"/>
    <path d="M 429.651252 315.546229 
L 453.314433 323.212975 
L 459.723211 325.401733 
L 489.111442 336.556686 
L 499.947663 345.46806 
L 533.360354 378.849673 
L 536.510341 381.996775 
L 586.215648 433.032613 
L 598.021716 444.879929 
L 603.253783 449.12141 
L 606.742275 452.201509 
L 618.846551 458.357646 
L 632.024106 466.592901 
L 651.502977 478.767108 
L 662.126961 486.267362 
L 674.846458 495.245739 
L 677.322119 499.17454 
L 678.712411 504.857597 
" clip-path="url(#pb987b3c404)" style="fill: none; stroke: #4d59c1; stroke-width: 0.2"/>
    <path d="M 746.879728 449.168109 
L 755.350437 447.072748 
L 767.816055 450.461466 
L 770.165448 448.556962 
L 775.171877 441.320737 
" clip-path="url(#pb987b3c404)" style="fill: none; stroke: #4d59c1; stroke-width: 0.2"/>
    <path d="M 672.530647 277.153618 
L 663.979341 288.25578 
L 651.700439 295.360109 
L 637.864678 326.199676 
L 631.811868 335.279572 
L 630.659336 344.78991 
L 628.785463 352.284073 
L 631.985151 362.760877 
L 625.039062 387.448367 
L 625.615328 405.752317 
L 624.750257 409.498383 
L 616.103578 416.273789 
L 607.311825 417.859522 
L 593.948898 426.281573 
L 586.215648 433.032613 
" clip-path="url(#pb987b3c404)" style="fill: none; stroke: #4d59c1; stroke-width: 0.2"/>
    <path d="M 557.719353 297.835152 
L 562.569929 295.546905 
L 569.510646 291.648559 
L 575.453306 290.0811 
L 579.780004 289.082148 
" clip-path="url(#pb987b3c404)" style="fill: none; stroke: #4d59c1; stroke-width: 0.2"/>
    <path d="M 557.719353 297.835152 
L 569.438109 299.640167 
L 572.730482 307.321126 
L 575.634649 310.880397 
L 578.784635 310.925065 
L 588.864591 303.286745 
L 615.41179 291.283089 
L 660.664131 281.338248 
L 672.530647 277.153618 
L 702.74768 266.49611 
L 713.743752 259.552182 
L 721.58591 257.599601 
" clip-path="url(#pb987b3c404)" style="fill: none; stroke: #4d59c1; stroke-width: 0.2"/>
    <path d="M 719.413641 239.611441 
L 713.743752 259.552182 
L 711.653612 271.582232 
L 716.986424 290.460782 
L 727.363245 301.989326 
L 733.444264 311.168712 
L 738.603793 310.63675 
L 740.145341 307.649854 
" clip-path="url(#pb987b3c404)" style="fill: none; stroke: #4d59c1; stroke-width: 0.2"/>
    <path d="M 680.28096 139.841741 
L 680.246434 139.868917 
L 675.442873 146.394585 
L 667.310669 159.878393 
L 661.161144 164.341187 
L 653.597352 165.346765 
" clip-path="url(#pb987b3c404)" style="fill: none; stroke: #4d59c1; stroke-width: 0.2"/>
    <path d="M 458.652618 263.405859 
L 452.442645 258.989764 
L 445.606705 256.082249 
" clip-path="url(#pb987b3c404)" style="fill: none; stroke: #4d59c1; stroke-width: 0.2"/>
    <path d="M 557.055774 291.993725 
L 551.917737 281.133179 
L 539.941072 258.124819 
L 531.757824 241.861409 
L 521.054587 225.54521 
L 511.791343 214.814608 
L 504.37645 206.920458 
L 501.890043 205.336755 
L 499.125577 204.534752 
L 492.783963 205.001741 
L 491.877356 204.720541 
" clip-path="url(#pb987b3c404)" style="fill: none; stroke: #4d59c1; stroke-width: 0.2"/>
    <path d="M 463.207673 207.314354 
L 471.741517 213.208571 
L 478.769546 224.020388 
L 482.679828 230.034398 
L 494.13933 247.662229 
L 522.890848 234.420036 
" clip-path="url(#pb987b3c404)" style="fill: none; stroke: #4d59c1; stroke-width: 0.2"/>
    <path d="M 482.679828 230.034398 
L 502.538846 216.438918 
" clip-path="url(#pb987b3c404)" style="fill: none; stroke: #4d59c1; stroke-width: 0.2"/>
    <path d="M 478.769546 224.020388 
L 495.431564 210.193444 
" clip-path="url(#pb987b3c404)" style="fill: none; stroke: #4d59c1; stroke-width: 0.2"/>
    <path d="M 423.830829 174.736774 
L 428.856031 175.557051 
L 435.366001 173.789101 
" clip-path="url(#pb987b3c404)" style="fill: none; stroke: #4d59c1; stroke-width: 0.2"/>
    <path d="M 452.629564 191.244531 
L 454.522039 198.815148 
L 454.959948 203.020082 
L 456.925163 209.462504 
L 460.61649 217.665273 
" clip-path="url(#pb987b3c404)" style="fill: none; stroke: #4d59c1; stroke-width: 0.2"/>
    <path d="M 445.069394 257.458852 
L 395.897368 204.930678 
L 384.590999 195.856873 
" clip-path="url(#pb987b3c404)" style="fill: none; stroke: #4d59c1; stroke-width: 0.2"/>
    <path d="M 448.068933 249.779923 
L 400.160932 198.331916 
L 392.281264 194.005159 
L 384.590999 195.856873 
" clip-path="url(#pb987b3c404)" style="fill: none; stroke: #4d59c1; stroke-width: 0.2"/>
    <path d="M 392.281264 194.005159 
L 407.352841 188.612448 
L 452.915479 237.374251 
" clip-path="url(#pb987b3c404)" style="fill: none; stroke: #4d59c1; stroke-width: 0.2"/>
    <path d="M 457.48128 225.691397 
L 417.310559 181.609639 
" clip-path="url(#pb987b3c404)" style="fill: none; stroke: #4d59c1; stroke-width: 0.2"/>
    <path d="M 384.590999 195.856873 
L 370.019122 171.622159 
L 360.358268 153.263388 
" clip-path="url(#pb987b3c404)" style="fill: none; stroke: #4d59c1; stroke-width: 0.2"/>
    <path d="M 407.352841 188.612448 
L 412.582221 186.202377 
L 417.310559 181.609639 
L 423.830829 174.736774 
L 414.547436 161.470218 
L 405.998817 156.93027 
" clip-path="url(#pb987b3c404)" style="fill: none; stroke: #4d59c1; stroke-width: 0.2"/>
    <path d="M 393.740064 139.292287 
L 396.767812 142.469845 
L 400.28317 147.032127 
L 405.998817 156.93027 
L 404.185392 158.18505 
L 395.953786 163.220412 
L 396.40647 172.070875 
L 403.91405 184.220718 
L 384.590999 195.856873 
" clip-path="url(#pb987b3c404)" style="fill: none; stroke: #4d59c1; stroke-width: 0.2"/>
    <path d="M 360.358268 153.263388 
L 352.364422 155.807465 
L 348.71205 154.4735 
L 345.344453 149.241189 
L 346.706536 143.887056 
L 358.446784 139.341016 
" clip-path="url(#pb987b3c404)" style="fill: none; stroke: #4d59c1; stroke-width: 0.2"/>
    <path d="M 360.358268 153.263388 
L 373.20269 145.379391 
L 368.86256 139.107522 
L 367.301671 136.658873 
L 366.221676 134.354383 
L 365.803916 132.35445 
L 365.516455 129.00431 
L 367.336596 126.299833 
L 369.112409 123.698905 
" clip-path="url(#pb987b3c404)" style="fill: none; stroke: #4d59c1; stroke-width: 0.2"/>
    <path d="M 369.112409 123.698905 
L 369.735297 123.830171 
" clip-path="url(#pb987b3c404)" style="fill: none; stroke: #4d59c1; stroke-width: 0.2"/>
    <path d="M 392.767642 136.831151 
L 393.740064 139.292287 
" clip-path="url(#pb987b3c404)" style="fill: none; stroke: #4d59c1; stroke-width: 0.2"/>
    <path d="M 333.024788 76.584837 
L 333.343609 78.43343 
L 334.857483 86.932635 
L 336.951653 110.223219 
L 337.398965 116.958016 
" clip-path="url(#pb987b3c404)" style="fill: none; stroke: #4d59c1; stroke-width: 0.2"/>
    <path d="M 278.165789 63.506016 
L 282.041145 57.841233 
L 284.867401 53.709393 
L 288.812608 50.359252 
L 292.289011 46.432481 
L 294.82109 44.361485 
L 295.655342 43.619621 
" clip-path="url(#pb987b3c404)" style="fill: none; stroke: #4d59c1; stroke-width: 0.2"/>
    <path d="M 161.295979 74.994914 
L 158.119742 78.059839 
L 157.231835 78.951179 
" clip-path="url(#pb987b3c404)" style="fill: none; stroke: #4d59c1; stroke-width: 0.2"/>
    <path d="M 405.691206 306.204412 
L 406.720157 305.266373 
L 438.852704 270.932508 
L 445.069394 257.458852 
L 445.606705 256.082249 
L 448.068933 249.779923 
L 452.915479 237.374251 
L 457.48128 225.691397 
L 459.031423 221.724019 
L 460.61649 217.665273 
L 461.488278 215.433876 
L 463.207673 207.314354 
L 464.631759 201.909631 
" clip-path="url(#pb987b3c404)" style="fill: none; stroke: #4d59c1; stroke-width: 0.2"/>
   </g>
   <g id="LineCollection_2">
    <path d="M 510.891347 447.622983 
L 519.097431 456.355683 
" clip-path="url(#pb987b3c404)" style="fill: none; stroke-dasharray: 3.7,1.6; stroke-dashoffset: 0; stroke: #4d59c1"/>
    <path d="M 492.000832 428.56779 
L 502.666458 437.300489 
L 507.350467 441.724705 
L 516.850127 450.768055 
L 537.539292 470.288207 
" clip-path="url(#pb987b3c404)" style="fill: none; stroke-dasharray: 3.7,1.6; stroke-dashoffset: 0; stroke: #4d59c1"/>
    <path d="M 492.188891 427.41859 
L 488.83607 423.678615 
L 486.395334 420.815767 
L 483.98818 418.377271 
L 481.061178 415.481938 
L 477.938057 412.554118 
L 475.432844 410.405967 
L 472.961213 408.519736 
L 467.56258 404.35744 
" clip-path="url(#pb987b3c404)" style="fill: none; stroke-dasharray: 3.7,1.6; stroke-dashoffset: 0; stroke: #4d59c1"/>
    <path d="M 500.221692 440.07603 
L 495.179027 436.009163 
L 491.925609 433.341232 
L 488.802488 430.673302 
L 482.491769 425.01258 
L 472.277485 415.514424 
L 448.172365 393.228883 
L 434.053173 379.956235 
L 420.033383 366.75059 
L 419.317416 366.050106 
L 415.34803 362.161912 
L 412.517744 359.104147 
L 405.328521 351.037415 
L 394.887223 338.51398 
" clip-path="url(#pb987b3c404)" style="fill: none; stroke-dasharray: 3.7,1.6; stroke-dashoffset: 0; stroke: #4d59c1"/>
    <path d="M 375.21492 311.58088 
L 379.303858 317.499462 
L 383.337721 322.605889 
L 389.746499 330.739624 
L 396.024979 338.416522 
L 400.710332 344.1077 
L 406.012249 350.420177 
L 409.655219 354.5175 
L 414.178035 359.43104 
L 420.041442 365.266376 
L 420.715768 365.936404 
L 440.24837 384.492122 
L 448.725796 392.546672 
L 480.409688 421.629953 
L 489.973826 430.250982 
L 492.511278 432.561563 
L 497.163049 437.180697 
L 500.221692 440.07603 
L 502.530786 442.32164 
L 505.036 444.435274 
L 509.394936 447.850387 
L 514.422825 452.144658 
" clip-path="url(#pb987b3c404)" style="fill: none; stroke-dasharray: 3.7,1.6; stroke-dashoffset: 0; stroke: #4d59c1"/>
    <path d="M 502.666458 437.300489 
L 492.188891 427.41859 
L 479.903273 415.916441 
L 467.56258 404.35744 
L 465.366321 402.298627 
L 443.78925 382.055656 
L 436.28973 374.924933 
L 435.796747 374.466065 
L 428.231407 367.404375 
L 426.612757 365.905948 
L 422.807251 362.271553 
L 414.575645 354.407859 
L 410.251634 349.760301 
L 389.180979 324.366235 
" clip-path="url(#pb987b3c404)" style="fill: none; stroke-dasharray: 3.7,1.6; stroke-dashoffset: 0; stroke: #4d59c1"/>
    <path d="M 506.763455 443.57845 
L 501.845715 438.045642 
L 498.165134 434.411247 
L 492.000832 428.56779 
L 484.207135 421.50813 
L 479.32432 416.80372 
L 443.05582 382.745988 
L 442.419107 382.136872 
L 435.643614 375.659933 
L 422.252478 362.870518 
L 419.262341 360.015792 
L 414.159229 355.049462 
L 409.605518 350.310536 
L 405.280163 345.297507 
L 399.667949 338.580983 
L 386.280842 322.260723 
L 381.496087 316.774614 
L 375.502382 310.624568 
" clip-path="url(#pb987b3c404)" style="fill: none; stroke-dasharray: 3.7,1.6; stroke-dashoffset: 0; stroke: #4d59c1"/>
    <path d="M 419.262341 360.015792 
L 422.496954 362.606567 
L 426.612757 365.905948 
" clip-path="url(#pb987b3c404)" style="fill: none; stroke-dasharray: 3.7,1.6; stroke-dashoffset: 0; stroke: #4d59c1"/>
    <path d="M 415.004151 350.245564 
L 416.992202 352.42214 
L 423.950381 360.038126 
" clip-path="url(#pb987b3c404)" style="fill: none; stroke-dasharray: 3.7,1.6; stroke-dashoffset: 0; stroke: #4d59c1"/>
    <path d="M 408.126569 359.301095 
L 403.637334 355.234228 
L 401.165703 353.218052 
L 397.717509 350.777525 
L 395.244535 349.346102 
L 392.771561 348.174568 
L 390.039334 347.199981 
L 384.769655 345.506637 
L 375.042981 342.416387 
L 362.584079 338.643925 
" clip-path="url(#pb987b3c404)" style="fill: none; stroke-dasharray: 3.7,1.6; stroke-dashoffset: 0; stroke: #4d59c1"/>
    <path d="M 403.572857 354.355069 
L 398.432133 349.44356 
L 397.228556 348.466944 
L 395.53737 347.29744 
L 393.846183 346.320823 
L 391.112613 345.051831 
L 388.023074 343.84781 
L 384.346522 342.613334 
" clip-path="url(#pb987b3c404)" style="fill: none; stroke-dasharray: 3.7,1.6; stroke-dashoffset: 0; stroke: #4d59c1"/>
    <path d="M 398.432133 348.304512 
L 393.650064 343.555434 
L 390.267691 340.49767 
L 384.249806 334.317168 
" clip-path="url(#pb987b3c404)" style="fill: none; stroke-dasharray: 3.7,1.6; stroke-dashoffset: 0; stroke: #4d59c1"/>
    <path d="M 428.231407 367.404375 
L 424.079335 362.801484 
L 423.227697 361.814716 
L 422.225612 360.655364 
L 420.598903 358.509244 
L 417.704139 354.085028 
L 416.457577 352.312499 
L 415.004151 350.245564 
L 412.661474 346.830451 
L 409.766711 343.120931 
L 401.829283 333.102996 
L 385.920844 310.884457 
" clip-path="url(#pb987b3c404)" style="fill: none; stroke-dasharray: 3.7,1.6; stroke-dashoffset: 0; stroke: #4d59c1"/>
    <path d="M 434.053173 379.956235 
L 427.287083 374.265056 
L 424.067246 371.921988 
L 420.130099 368.929196 
L 416.194295 365.903918 
L 412.648042 363.008584 
L 411.367898 361.958873 
L 408.126569 359.301095 
L 403.572857 354.355069 
L 398.432133 348.304512 
L 395.276774 344.532051 
L 391.503506 340.205294 
L 388.771279 337.244988 
L 385.453383 333.894847 
L 374.782385 321.891192 
L 365.771678 311.871226 
L 362.259006 307.44904 
L 358.257382 302.797421 
L 354.223519 298.048343 
" clip-path="url(#pb987b3c404)" style="fill: none; stroke-dasharray: 3.7,1.6; stroke-dashoffset: 0; stroke: #4d59c1"/>
    <path d="M 532.801551 468.119752 
L 515.939385 452.384244 
L 510.891347 447.622983 
L 506.763455 443.57845 
L 490.043676 427.800303 
L 478.820591 417.520447 
L 442.417763 383.263737 
L 441.864333 382.739897 
L 435.033766 376.27108 
L 422.541282 364.494828 
L 421.580839 363.599427 
L 417.303842 359.613775 
L 412.782369 355.027128 
L 407.44687 349.465895 
L 402.762861 343.902631 
L 375.502382 310.624568 
L 375.021488 310.045907 
L 354.357846 285.155378 
L 340.922382 269.281802 
L 335.619122 263.395707 
L 331.033171 258.516684 
L 324.06559 251.838737 
L 321.338736 249.375876 
L 317.174575 245.993249 
L 314.181752 243.552723 
L 307.187305 238.283865 
L 298.957042 232.820091 
L 290.921554 228.103499 
L 281.325178 222.899614 
L 271.696563 218.053077 
L 252.536049 209.009728 
L 231.206141 198.677082 
" clip-path="url(#pb987b3c404)" style="fill: none; stroke-dasharray: 3.7,1.6; stroke-dashoffset: 0; stroke: #4d59c1"/>
    <path d="M 383.520407 280.071286 
L 378.413265 275.322207 
" clip-path="url(#pb987b3c404)" style="fill: none; stroke-dasharray: 3.7,1.6; stroke-dashoffset: 0; stroke: #4d59c1"/>
    <path d="M 387.39039 234.420036 
L 392.888426 236.663615 
L 396.368858 238.25747 
L 398.223925 239.266573 
L 400.500781 240.760939 
L 403.26659 243.233952 
L 404.957776 245.087696 
L 409.218654 249.641857 
L 411.854164 252.959511 
L 414.034304 256.504569 
L 415.789968 259.042555 
L 417.416678 260.993758 
L 419.36846 262.847502 
L 421.873673 264.831191 
L 432.9987 272.573062 
" clip-path="url(#pb987b3c404)" style="fill: none; stroke-dasharray: 3.7,1.6; stroke-dashoffset: 0; stroke: #4d59c1"/>
    <path d="M 379.09565 241.802528 
L 381.568624 244.990238 
L 383.649361 247.98303 
L 384.983236 249.966719 
L 386.090097 251.398143 
L 387.098899 252.602163 
L 388.59531 254.131045 
L 391.034702 256.24468 
L 400.468542 264.701247 
" clip-path="url(#pb987b3c404)" style="fill: none; stroke-dasharray: 3.7,1.6; stroke-dashoffset: 0; stroke: #4d59c1"/>
    <path d="M 357.072611 222.221464 
L 361.692143 226.353304 
L 376.135066 239.331546 
L 379.09565 241.802528 
L 383.324288 245.901882 
L 389.147397 251.138253 
L 405.445386 265.905267 
" clip-path="url(#pb987b3c404)" style="fill: none; stroke-dasharray: 3.7,1.6; stroke-dashoffset: 0; stroke: #4d59c1"/>
    <path d="M 230.956292 199.198892 
L 252.172021 209.423927 
L 271.52731 218.625646 
L 281.102194 223.45391 
L 290.687824 228.747132 
L 298.609133 233.465754 
L 306.831336 238.813797 
L 313.797574 244.161839 
L 320.864559 249.940324 
L 323.634397 252.254967 
L 330.537502 258.951187 
L 335.126139 263.771329 
L 340.379698 269.722397 
L 353.902475 285.437602 
L 367.249283 301.808622 
L 375.21492 311.58088 
L 402.349131 344.495504 
L 406.838365 349.843547 
L 412.120133 355.689034 
L 416.610711 360.310198 
L 420.776215 364.470464 
L 421.633227 365.327287 
L 440.864934 383.824124 
L 441.540603 384.473848 
L 478.337011 418.336663 
L 504.599434 442.490162 
L 514.422825 452.144658 
L 519.097431 456.355683 
L 529.299626 465.96348 
" clip-path="url(#pb987b3c404)" style="fill: none; stroke-dasharray: 3.7,1.6; stroke-dashoffset: 0; stroke: #4d59c1"/>
    <path d="M 385.453383 333.894847 
L 383.989211 331.746696 
L 382.719813 329.860466 
L 381.191163 327.421969 
L 378.978785 324.883984 
L 371.985681 317.044655 
L 369.741063 314.734073 
L 365.771678 311.871226 
" clip-path="url(#pb987b3c404)" style="fill: none; stroke-dasharray: 3.7,1.6; stroke-dashoffset: 0; stroke: #4d59c1"/>
    <path d="M 367.249283 301.808622 
L 375.021488 310.045907 
" clip-path="url(#pb987b3c404)" style="fill: none; stroke-dasharray: 3.7,1.6; stroke-dashoffset: 0; stroke: #4d59c1"/>
    <path d="M 412.661474 346.830451 
L 408.17224 340.095653 
L 406.611351 337.332294 
L 405.179417 333.947637 
L 403.618529 330.402579 
L 402.284654 326.173281 
L 400.950779 320.741992 
L 396.569007 297.686934 
L 396.272142 295.7337 
L 396.006173 293.611945 
L 395.354684 291.140962 
L 394.606478 289.122756 
L 393.533199 287.009122 
L 392.036788 284.081302 
L 390.475899 281.545347 
L 388.524116 278.974876 
L 385.954426 276.339432 
L 370.892252 262.386604 
L 359.603346 252.106748 
L 357.685145 250.350463 
L 356.481569 248.919039 
L 354.594263 246.285625 
L 352.056812 242.251244 
L 349.51936 237.307249 
L 348.217724 233.33987 
L 347.632055 230.639454 
L 347.014147 226.444672 
L 346.331762 222.182887 
L 345.485497 216.199332 
L 344.997887 213.141568 
L 344.639232 210.473638 
L 343.891026 207.645307 
L 341.690737 202.059709 
" clip-path="url(#pb987b3c404)" style="fill: none; stroke-dasharray: 3.7,1.6; stroke-dashoffset: 0; stroke: #4d59c1"/>
    <path d="M 372.191202 264.553028 
L 375.679694 268.459495 
L 377.631477 271.062453 
L 379.09565 273.695866 
L 380.592061 276.233852 
L 381.827877 278.022624 
L 383.520407 280.071286 
L 385.765024 282.251922 
L 387.423972 283.618374 
" clip-path="url(#pb987b3c404)" style="fill: none; stroke-dasharray: 3.7,1.6; stroke-dashoffset: 0; stroke: #4d59c1"/>
    <path d="M 393.533199 287.009122 
L 391.710371 284.266068 
L 389.855305 281.955486 
L 385.626666 277.760704 
L 380.812359 272.914167 
L 372.191202 264.553028 
L 369.198379 261.919615 
L 359.992897 253.722937 
L 357.130372 250.957549 
L 355.877094 249.406332 
L 353.829938 246.531302 
L 351.496665 242.38931 
L 350.399207 239.818839 
L 349.51936 237.307249 
" clip-path="url(#pb987b3c404)" style="fill: none; stroke-dasharray: 3.7,1.6; stroke-dashoffset: 0; stroke: #4d59c1"/>
    <path d="M 347.782502 224.13409 
L 349.599957 227.238553 
L 350.819653 229.055751 
L 352.222035 230.734882 
L 353.970982 232.50538 
L 356.983954 235.311377 
L 379.986243 256.242649 
L 388.428744 264.014975 
" clip-path="url(#pb987b3c404)" style="fill: none; stroke-dasharray: 3.7,1.6; stroke-dashoffset: 0; stroke: #4d59c1"/>
    <path d="M 365.204814 227.068001 
L 370.995685 230.25571 
L 377.436702 233.703309 
L 388.984861 239.98127 
" clip-path="url(#pb987b3c404)" style="fill: none; stroke-dasharray: 3.7,1.6; stroke-dashoffset: 0; stroke: #4d59c1"/>
    <path d="M 341.690737 202.059709 
L 344.971021 206.999643 
L 348.028322 211.976125 
L 349.297719 213.959814 
L 350.565773 215.521183 
L 352.192483 217.4399 
L 355.185306 220.660095 
L 357.072611 222.221464 
L 359.610062 224.010236 
L 362.277812 225.571605 
L 365.204814 227.068001 
L 370.117181 229.149149 
L 374.704475 230.743003 
L 387.39039 234.420036 
L 390.904405 235.394623 
L 393.995287 236.306267 
L 396.988109 237.31334 
L 398.711535 238.030067 
L 400.370483 239.201601 
L 402.518384 241.087831 
L 408.470448 247.006413 
L 418.88085 257.546158 
" clip-path="url(#pb987b3c404)" style="fill: none; stroke-dasharray: 3.7,1.6; stroke-dashoffset: 0; stroke: #4d59c1"/>
    <path d="M 345.485497 216.199332 
L 346.448627 220.499695 
L 347.046386 222.270193 
L 347.782502 224.13409 
L 348.841005 226.479188 
L 349.806821 228.365419 
L 350.865324 230.068915 
L 351.853977 231.356181 
L 353.14218 232.667811 
L 360.848565 240.003604 
" clip-path="url(#pb987b3c404)" style="fill: none; stroke-dasharray: 3.7,1.6; stroke-dashoffset: 0; stroke: #4d59c1"/>
    <path d="M 229.480029 198.461861 
L 230.956292 199.198892 
" clip-path="url(#pb987b3c404)" style="fill: none; stroke-dasharray: 3.7,1.6; stroke-dashoffset: 0; stroke: #4d59c1"/>
    <path d="M 231.206141 198.677082 
L 229.748685 197.929899 
" clip-path="url(#pb987b3c404)" style="fill: none; stroke-dasharray: 3.7,1.6; stroke-dashoffset: 0; stroke: #4d59c1"/>
    <path d="M 341.690737 202.059709 
L 335.624495 192.230599 
L 331.035858 184.799378 
" clip-path="url(#pb987b3c404)" style="fill: none; stroke-dasharray: 3.7,1.6; stroke-dashoffset: 0; stroke: #4d59c1"/>
    <path d="M 185.15307 163.438941 
L 187.982149 167.193882 
L 193.885855 173.660669 
L 200.342991 180.009693 
L 206.844456 185.213578 
L 213.718008 190.03575 
L 214.376214 190.496648 
L 226.902279 197.138048 
L 229.480029 198.461861 
" clip-path="url(#pb987b3c404)" style="fill: none; stroke-dasharray: 3.7,1.6; stroke-dashoffset: 0; stroke: #4d59c1"/>
    <path d="M 229.748685 197.929899 
L 227.188397 196.638572 
L 214.665019 190.03575 
L 213.808008 189.438816 
L 207.14938 184.799378 
L 200.774184 179.62798 
L 194.17063 173.287077 
L 188.444237 166.846686 
L 185.471823 163.13096 
" clip-path="url(#pb987b3c404)" style="fill: none; stroke-dasharray: 3.7,1.6; stroke-dashoffset: 0; stroke: #4d59c1"/>
   </g>
  </g>
 </g>
 <defs>
  <clipPath id="pb987b3c404">
   <rect x="7.2" y="7.2" width="837" height="784.497954"/>
  </clipPath>
 </defs>
</svg>
