<?xml version="1.0" encoding="utf-8" standalone="no"?>
<!DOCTYPE svg PUBLIC "-//W3C//DTD SVG 1.1//EN"
  "http://www.w3.org/Graphics/SVG/1.1/DTD/svg11.dtd">
<svg xmlns:xlink="http://www.w3.org/1999/xlink" width="851.4pt" height="615.432088pt" viewBox="0 0 851.4 615.432088" xmlns="http://www.w3.org/2000/svg" version="1.1">
 <metadata>
  <rdf:RDF xmlns:dc="http://purl.org/dc/elements/1.1/" xmlns:cc="http://creativecommons.org/ns#" xmlns:rdf="http://www.w3.org/1999/02/22-rdf-syntax-ns#">
   <cc:Work>
    <dc:type rdf:resource="http://purl.org/dc/dcmitype/StillImage"/>
    <dc:date>2025-03-16T14:30:03.815962</dc:date>
    <dc:format>image/svg+xml</dc:format>
    <dc:creator>
     <cc:Agent>
      <dc:title>Matplotlib v3.10.1, https://matplotlib.org/</dc:title>
     </cc:Agent>
    </dc:creator>
   </cc:Work>
  </rdf:RDF>
 </metadata>
 <defs>
  <style type="text/css">*{stroke-linejoin: round; stroke-linecap: butt}</style>
 </defs>
 <g id="figure_1">
  <g id="patch_1">
   <path d="M 0 615.432088 
L 851.4 615.432088 
L 851.4 0 
L 0 0 
z
" style="fill: #ffffff"/>
  </g>
  <g id="axes_1">
   <g id="PatchCollection_1">
    <path d="M 712.989911 465.720863 
L 746.316651 465.552428 
L 759.919174 405.64851 
L 759.01101 360.444781 
L 798.405879 358.802995 
L 804.607304 285.216907 
L 806.154545 260.023722 
L 803.240698 254.030369 
L 802.818383 249.016164 
L 792.422463 237.431113 
L 793.907417 230.897284 
L 790.503983 227.880247 
L 787.983798 219.584321 
L 785.568257 212.234226 
L 788.508265 202.468651 
L 791.554164 193.648908 
L 790.713272 184.303497 
L 791.554164 181.888016 
L 788.71008 174.469437 
L 748.910337 182.339646 
L 714.307931 183.676027 
L 717.51578 178.060266 
L 717.723823 172.835054 
L 713.388556 165.734837 
L 731.293955 149.189258 
L 756.226723 134.457603 
L 776.739511 123.127981 
L 765.136443 91.114072 
L 758.276008 96.228227 
L 742.231784 95.171339 
L 738.683841 78.138962 
L 706.695053 77.655866 
L 624.681273 77.130198 
L 551.385365 73.87624 
L 501.400237 63.166684 
L 500.54315 66.842657 
L 477.982321 163.646974 
L 472.732662 190.631871 
L 466.811535 215.312344 
L 455.812664 217.755589 
L 440.001397 224.33384 
L 435.664885 224.983521 
L 431.075482 224.561506 
L 416.389142 221.426009 
L 395.426632 216.558029 
L 389.445708 214.905137 
L 335.880248 203.562558 
L 310.783039 198.217035 
L 322.374895 94.13296 
L 398.296878 43.387508 
L 363.4067 34.51964 
L 345.511267 46.249066 
L 322.937981 60.873366 
L 298.879742 76.908085 
L 285.143922 87.821245 
L 274.970995 98.21614 
L 265.986528 110.576737 
L 224.871256 135.555212 
L 206.124964 135.444156 
L 199.071435 129.430442 
L 187.4883 122.154385 
L 178.354341 117.55109 
L 171.895043 115.17448 
L 161.090511 115.17448 
L 160.460154 108.679521 
L 144.894303 101.538583 
L 47.770623 56.401488 
L 45.245455 66.348455 
L 46.582162 79.860339 
L 54.30965 199.657069 
L 164.256004 187.581517 
L 170.292987 186.898519 
L 170.864794 191.048333 
L 169.499434 194.827959 
L 166.66407 203.123885 
L 164.03924 222.023863 
L 161.834234 227.484145 
L 158.368512 249.325272 
L 154.90279 263.501644 
L 154.273678 273.26907 
L 153.770388 278.670121 
L 152.285435 284.609797 
L 150.354497 291.589703 
L 143.226222 301.838374 
L 138.081207 311.178233 
L 137.656401 314.994877 
L 142.989527 321.049311 
L 132.95737 369.031306 
L 138.011444 370.556483 
L 150.183827 371.557843 
L 158.683691 375.235666 
L 179.662396 375.346723 
L 180.89695 374.376829 
L 184.493478 375.622513 
L 190.119358 377.044038 
L 204.297425 379.468773 
L 210.593528 380.459027 
L 224.609645 382.433983 
L 267.623465 384.307138 
L 358.246736 390.211646 
L 372.107133 392.838134 
L 409.911158 394.516939 
L 436.269082 396.514106 
L 439.524269 397.983755 
L 441.729275 400.504739 
L 442.149099 403.444037 
L 440.57445 409.746498 
L 437.84373 424.344885 
L 436.58426 434.847135 
L 436.688905 444.405404 
L 439.734803 454.17283 
L 442.779456 464.256768 
L 447.147113 476.82467 
L 450.235368 481.796303 
L 456.229995 486.743874 
L 458.787554 490.007086 
L 460.00093 493.35174 
L 456.956277 517.090083 
L 456.115385 524.442029 
L 455.590917 563.831946 
L 457.790941 565.257172 
L 460.500482 565.492241 
L 463.677187 565.092438 
L 472.381356 561.403509 
L 475.564289 562.445589 
L 484.586129 580.186878 
L 486.79861 580.912447 
L 488.950048 580.749564 
L 525.868333 561.679299 
L 541.246073 561.525671 
L 552.692174 555.748878 
L 555.632182 553.12239 
L 559.713313 549.62966 
L 602.458047 545.403958 
L 640.731726 540.771047 
L 634.375826 448.081377 
L 712.536452 454.035861 
L 712.989911 465.720863 
" clip-path="url(#p1bb264fcde)" style="fill: #fbd6c9"/>
   </g>
   <g id="PatchCollection_2">
    <path d="M 529.958184 263.864429 
L 531.093077 259.572092 
L 533.168524 260.119971 
L 531.501689 266.424283 
L 532.42231 267.038796 
L 531.309841 271.257095 
L 528.78841 270.590756 
L 530.08899 265.661694 
L 525.697663 264.503004 
L 526.133681 262.855665 
L 529.958184 263.864429 
" clip-path="url(#p1bb264fcde)" style="fill: #e6482f"/>
    <path d="M 164.994743 353.348266 
L 161.228791 369.64767 
L 157.390585 368.827702 
L 161.156537 352.528298 
L 164.994743 353.348266 
" clip-path="url(#p1bb264fcde)" style="fill: #e6482f"/>
    <path d="M 157.865222 350.242384 
L 153.09892 370.252928 
L 149.260714 369.43296 
L 154.027016 349.422416 
L 157.865222 350.242384 
" clip-path="url(#p1bb264fcde)" style="fill: #e6482f"/>
    <path d="M 173.686455 341.613288 
L 167.377894 370.043771 
L 163.539688 369.223804 
L 169.848249 340.79332 
L 173.686455 341.613288 
" clip-path="url(#p1bb264fcde)" style="fill: #e6482f"/>
    <path d="M 169.058433 335.066502 
L 165.668703 350.073948 
L 161.830496 349.25398 
L 165.220227 334.246535 
L 169.058433 335.066502 
" clip-path="url(#p1bb264fcde)" style="fill: #e6482f"/>
    <path d="M 160.970918 336.254808 
L 159.248023 344.79876 
L 155.409817 343.978793 
L 157.132712 335.43484 
L 160.970918 336.254808 
" clip-path="url(#p1bb264fcde)" style="fill: #e6482f"/>
    <path d="M 156.92716 325.685923 
L 152.286681 346.153651 
L 148.448475 345.333683 
L 153.088954 324.865956 
L 156.92716 325.685923 
" clip-path="url(#p1bb264fcde)" style="fill: #e6482f"/>
    <path d="M 174.80889 330.155951 
L 173.294038 337.665226 
L 169.921749 336.945209 
L 171.435355 329.435934 
L 174.80889 330.155951 
" clip-path="url(#p1bb264fcde)" style="fill: #e6482f"/>
    <path d="M 161.33219 327.405449 
L 160.879977 329.8598 
L 159.051192 329.524779 
L 159.503405 327.068578 
L 161.33219 327.405449 
" clip-path="url(#p1bb264fcde)" style="fill: #e6482f"/>
    <path d="M 181.548486 326.616948 
L 180.095922 326.293033 
L 181.065129 321.94887 
L 182.516446 322.272785 
L 181.548486 326.616948 
" clip-path="url(#p1bb264fcde)" style="fill: #e6482f"/>
    <path d="M 165.040836 322.55783 
L 162.488261 322.039566 
L 162.985322 319.59447 
L 165.537897 320.114585 
L 165.040836 322.55783 
" clip-path="url(#p1bb264fcde)" style="fill: #e6482f"/>
    <path d="M 151.111923 350.575553 
L 148.930586 360.789057 
L 145.09238 359.967238 
L 147.273717 349.755586 
L 151.111923 350.575553 
" clip-path="url(#p1bb264fcde)" style="fill: #e6482f"/>
    <path d="M 143.587494 348.700548 
L 141.406158 358.9122 
L 137.567951 358.092233 
L 139.749288 347.88058 
L 143.587494 348.700548 
" clip-path="url(#p1bb264fcde)" style="fill: #e6482f"/>
    <path d="M 145.828628 319.368655 
L 146.668274 315.709341 
L 148.366254 316.098039 
L 147.526607 319.757353 
L 145.828628 319.368655 
" clip-path="url(#p1bb264fcde)" style="fill: #e6482f"/>
    <path d="M 148.00249 310.01584 
L 149.330477 310.321246 
L 148.913145 312.131468 
L 149.574647 312.283246 
L 149.255731 313.669602 
L 148.65278 313.530781 
L 148.523221 314.09717 
L 147.136683 313.778807 
L 148.00249 310.01584 
" clip-path="url(#p1bb264fcde)" style="fill: #e6482f"/>
    <path d="M 152.670377 320.212685 
L 150.320861 319.720334 
L 151.267644 315.211437 
L 153.615913 315.703788 
L 152.670377 320.212685 
" clip-path="url(#p1bb264fcde)" style="fill: #e6482f"/>
    <path d="M 160.548603 310.395284 
L 158.08946 320.721694 
L 154.251254 319.901727 
L 156.710397 309.575316 
L 160.548603 310.395284 
" clip-path="url(#p1bb264fcde)" style="fill: #e6482f"/>
    <path d="M 175.381943 314.232288 
L 179.468056 304.059506 
L 182.927549 305.436608 
L 179.217657 315.150356 
L 177.008913 324.989969 
L 173.173199 324.02933 
L 175.381943 314.232288 
" clip-path="url(#p1bb264fcde)" style="fill: #e6482f"/>
    <path d="M 175.780588 307.728075 
L 173.695175 316.51265 
L 169.856969 315.692682 
L 171.942382 306.908107 
L 175.780588 307.728075 
" clip-path="url(#p1bb264fcde)" style="fill: #e6482f"/>
    <path d="M 165.582745 304.524093 
L 164.536301 308.548043 
L 162.307625 307.968698 
L 163.354069 303.944748 
L 165.582745 304.524093 
" clip-path="url(#p1bb264fcde)" style="fill: #e6482f"/>
    <path d="M 183.229025 299.972624 
L 188.210844 301.275688 
L 187.320121 304.681423 
L 186.223847 304.394527 
L 186.572662 303.063699 
L 183.874332 302.358489 
L 183.707399 302.997065 
L 182.518938 302.687957 
L 183.229025 299.972624 
" clip-path="url(#p1bb264fcde)" style="fill: #e6482f"/>
    <path d="M 200.519016 268.736111 
L 200.186396 269.987348 
L 199.030325 269.678241 
L 199.357961 268.432556 
L 200.519016 268.736111 
" clip-path="url(#p1bb264fcde)" style="fill: #e6482f"/>
    <path d="M 199.656945 267.294226 
L 200.818 267.599632 
L 200.519016 268.736111 
L 199.357961 268.432556 
L 199.656945 267.294226 
" clip-path="url(#p1bb264fcde)" style="fill: #e6482f"/>
    <path d="M 255.873397 181.997222 
L 257.831741 182.258205 
L 259.269356 182.374814 
L 259.031414 184.453423 
L 253.824111 183.859271 
L 254.062052 181.778811 
L 255.873397 181.997222 
" clip-path="url(#p1bb264fcde)" style="fill: #e6482f"/>
    <path d="M 245.298086 165.540488 
L 244.129557 171.361704 
L 239.604934 170.452891 
L 240.773463 164.631675 
L 245.298086 165.540488 
" clip-path="url(#p1bb264fcde)" style="fill: #e6482f"/>
    <path d="M 305.410049 186.446889 
L 304.871878 189.526858 
L 310.393114 190.491199 
L 309.755282 194.146812 
L 307.444385 193.743306 
L 307.76953 191.879406 
L 302.818855 191.016867 
L 303.219992 188.717996 
L 303.864053 188.829052 
L 304.312529 186.256242 
L 305.410049 186.446889 
" clip-path="url(#p1bb264fcde)" style="fill: #e6482f"/>
    <path d="M 282.71717 181.403069 
L 284.35909 181.775109 
L 283.282747 186.520927 
L 281.639582 186.148887 
L 282.71717 181.403069 
" clip-path="url(#p1bb264fcde)" style="fill: #e6482f"/>
    <path d="M 276.728771 177.277317 
L 278.582471 177.560512 
L 277.369095 185.532523 
L 275.51664 185.25118 
L 276.728771 177.277317 
" clip-path="url(#p1bb264fcde)" style="fill: #e6482f"/>
    <path d="M 258.449641 177.59568 
L 257.831741 182.258205 
L 255.873397 181.997222 
L 256.491297 177.336548 
L 258.449641 177.59568 
" clip-path="url(#p1bb264fcde)" style="fill: #e6482f"/>
    <path d="M 303.434264 177.417989 
L 302.636973 180.812619 
L 293.299955 178.619251 
L 294.095999 175.226473 
L 303.434264 177.417989 
" clip-path="url(#p1bb264fcde)" style="fill: #e6482f"/>
    <path d="M 292.663368 174.791501 
L 292.178765 177.869619 
L 281.439013 176.179708 
L 281.923616 173.10159 
L 292.663368 174.791501 
" clip-path="url(#p1bb264fcde)" style="fill: #e6482f"/>
    <path d="M 278.095376 172.711041 
L 279.464474 172.94426 
L 278.746912 177.145901 
L 277.377815 176.912682 
L 278.095376 172.711041 
" clip-path="url(#p1bb264fcde)" style="fill: #e6482f"/>
    <path d="M 257.338418 162.075523 
L 260.491452 162.675229 
L 258.828354 171.41353 
L 255.674074 170.813825 
L 257.338418 162.075523 
" clip-path="url(#p1bb264fcde)" style="fill: #e6482f"/>
    <path d="M 259.045118 153.777746 
L 261.818194 154.420023 
L 260.690775 159.293556 
L 257.917699 158.653129 
L 259.045118 153.777746 
" clip-path="url(#p1bb264fcde)" style="fill: #e6482f"/>
   </g>
   <g id="LineCollection_1">
    <path d="M 461.348034 565.385573 
L 463.206287 564.463117 
L 470.137731 561.025916 
L 472.635492 559.378577 
L 474.679795 559.321198 
L 476.497368 560.968537 
L 480.585973 566.649081 
L 486.434846 580.281276 
L 486.730658 580.890163 
" clip-path="url(#p1bb264fcde)" style="fill: none; stroke: #e6482f; stroke-width: 0.2"/>
    <path d="M 533.035971 561.607692 
L 536.971849 561.138824 
L 541.116513 560.572435 
L 552.01946 555.175085 
L 554.858561 552.618933 
L 557.356323 547.451101 
" clip-path="url(#p1bb264fcde)" style="fill: none; stroke: #e6482f; stroke-width: 0.2"/>
    <path d="M 463.206287 564.463117 
L 461.367536 564.235451 
L 460.58644 564.139202 
L 459.09775 563.441397 
L 457.729898 562.306769 
" clip-path="url(#p1bb264fcde)" style="fill: none; stroke: #e6482f; stroke-width: 0.2"/>
    <path d="M 472.635492 559.378577 
L 473.576046 558.421639 
L 474.191454 557.718281 
" clip-path="url(#p1bb264fcde)" style="fill: none; stroke: #e6482f; stroke-width: 0.2"/>
    <path d="M 490.137263 535.816073 
L 488.637361 538.905297 
L 486.683999 541.405921 
L 479.642928 549.176179 
L 476.144816 552.855854 
L 474.41943 556.581802 
L 474.191454 557.718281 
L 474.679795 559.321198 
" clip-path="url(#p1bb264fcde)" style="fill: none; stroke: #e6482f; stroke-width: 0.2"/>
    <path d="M 460.464355 506.765523 
L 458.775096 523.307401 
L 458.121069 545.953688 
L 458.002721 550.070185 
L 457.729898 562.306769 
L 457.283914 564.022593 
L 456.961282 564.719699 
" clip-path="url(#p1bb264fcde)" style="fill: none; stroke: #e6482f; stroke-width: 0.2"/>
    <path d="M 490.137263 535.816073 
L 491.181216 537.587426 
L 494.043987 537.633699 
L 504.725187 537.195026 
L 514.503207 536.343592 
L 522.162178 535.316319 
" clip-path="url(#p1bb264fcde)" style="fill: none; stroke: #e6482f; stroke-width: 0.2"/>
    <path d="M 544.688125 510.911636 
L 531.182772 507.898301 
L 517.951488 508.40731 
L 500.63409 508.411012 
L 492.972628 509.155091 
L 468.938058 509.303166 
L 463.577525 508.666442 
L 460.464355 506.765523 
" clip-path="url(#p1bb264fcde)" style="fill: none; stroke: #e6482f; stroke-width: 0.2"/>
    <path d="M 499.705995 467.975312 
L 498.295787 476.943131 
L 496.78841 485.374176 
L 495.841627 492.618766 
L 494.324284 503.382 
L 492.972628 509.155091 
L 491.476462 512.594143 
L 490.727757 517.867479 
L 490.499781 530.135529 
L 490.137263 535.816073 
" clip-path="url(#p1bb264fcde)" style="fill: none; stroke: #e6482f; stroke-width: 0.2"/>
    <path d="M 551.213449 473.306028 
L 549.960208 472.554545 
L 548.023042 472.186207 
L 545.72834 472.376854 
L 535.55915 474.392531 
L 529.143453 475.495693 
L 525.267874 477.100461 
L 523.338182 478.13884 
L 496.78841 485.374176 
L 484.557476 486.253374 
L 471.069564 485.655519 
L 465.106081 486.042366 
" clip-path="url(#p1bb264fcde)" style="fill: none; stroke: #e6482f; stroke-width: 0.2"/>
    <path d="M 500.173157 465.735671 
L 499.705995 467.975312 
" clip-path="url(#p1bb264fcde)" style="fill: none; stroke: #e6482f; stroke-width: 0.2"/>
    <path d="M 602.370844 484.720793 
L 602.416937 487.495356 
L 602.308555 491.74142 
L 602.588853 496.509449 
L 604.092493 507.122755 
L 604.421375 513.223463 
L 605.262267 528.849124 
L 605.54381 534.859136 
L 605.194996 538.36112 
L 603.756136 541.455896 
L 600.737644 543.473424 
L 596.173156 544.215652 
L 590.710471 544.743171 
L 564.974184 547.127186 
L 557.356323 547.451101 
" clip-path="url(#p1bb264fcde)" style="fill: none; stroke: #e6482f; stroke-width: 0.2"/>
    <path d="M 557.356323 547.451101 
L 557.981698 543.928756 
L 557.811028 539.044118 
L 554.971926 533.478332 
L 550.712651 523.311103 
L 549.577758 521.663763 
L 546.794716 520.527284 
L 544.410319 519.16499 
L 543.662859 516.488527 
L 544.688125 510.911636 
L 546.681351 499.96701 
L 548.441619 491.334212 
L 551.213449 473.306028 
L 554.52345 454.082134 
" clip-path="url(#p1bb264fcde)" style="fill: none; stroke: #e6482f; stroke-width: 0.2"/>
    <path d="M 514.503207 536.343592 
L 515.575812 523.50175 
L 517.951488 508.40731 
L 520.816751 491.724761 
L 522.193323 484.198827 
L 523.338182 478.13884 
L 524.566507 473.890926 
L 526.988277 462.261451 
" clip-path="url(#p1bb264fcde)" style="fill: none; stroke: #e6482f; stroke-width: 0.2"/>
    <path d="M 602.287377 482.67365 
L 602.370844 484.720793 
" clip-path="url(#p1bb264fcde)" style="fill: none; stroke: #e6482f; stroke-width: 0.2"/>
    <path d="M 526.988277 462.261451 
L 528.275154 457.230588 
" clip-path="url(#p1bb264fcde)" style="fill: none; stroke: #e6482f; stroke-width: 0.2"/>
    <path d="M 621.110906 402.898009 
L 623.355777 406.533261 
L 627.045737 416.211841 
L 629.558448 420.865112 
L 630.573747 426.051454 
L 630.573747 429.795912 
L 621.219288 431.419189 
L 617.087081 431.831949 
L 602.004588 433.340467 
L 600.334016 435.011869 
L 599.217809 439.637375 
L 599.201614 441.999179 
L 599.164241 447.378019 
L 600.834814 466.679652 
L 602.215123 481.59455 
L 602.287377 482.67365 
" clip-path="url(#p1bb264fcde)" style="fill: none; stroke: #e6482f; stroke-width: 0.2"/>
    <path d="M 557.143297 438.728562 
L 558.23708 440.022372 
L 565.035227 441.715984 
L 571.276516 443.270776 
L 578.668893 444.205503 
L 594.217303 442.250907 
L 599.201614 441.999179 
" clip-path="url(#p1bb264fcde)" style="fill: none; stroke: #e6482f; stroke-width: 0.2"/>
    <path d="M 608.073962 402.853586 
L 602.960091 398.192912 
" clip-path="url(#p1bb264fcde)" style="fill: none; stroke: #e6482f; stroke-width: 0.2"/>
    <path d="M 557.143297 438.728562 
L 562.148786 415.019834 
L 568.34149 389.861818 
L 572.785139 367.202574 
L 573.016852 366.58621 
L 573.9001 364.235512 
L 575.564444 361.105568 
" clip-path="url(#p1bb264fcde)" style="fill: none; stroke: #e6482f; stroke-width: 0.2"/>
    <path d="M 602.960091 398.192912 
L 599.848167 396.65848 
" clip-path="url(#p1bb264fcde)" style="fill: none; stroke: #e6482f; stroke-width: 0.2"/>
    <path d="M 440.03877 396.562231 
L 441.881259 397.728325 
L 443.301432 399.362708 
L 443.585467 402.485248 
L 442.307311 408.519322 
L 442.127921 409.666907 
L 440.289169 416.9152 
L 438.971149 424.49296 
L 438.191299 428.822316 
L 437.552221 439.400455 
L 437.907264 443.233758 
L 440.959392 453.173321 
L 443.656476 460.839927 
L 445.819126 467.595869 
L 449.467976 476.597004 
L 451.969475 479.580724 
L 454.964297 481.71116 
L 457.313812 484.278418 
L 460.937746 491.363827 
L 462.453844 494.975017 
" clip-path="url(#p1bb264fcde)" style="fill: none; stroke: #e6482f; stroke-width: 0.2"/>
    <path d="M 440.289169 416.9152 
L 446.910418 418.060933 
L 455.240857 419.326978 
L 456.918904 418.512563 
L 466.501339 419.867454 
L 482.196749 421.524048 
L 507.408568 428.885248 
L 513.347136 429.975453 
L 532.520725 433.823564 
L 557.143297 438.728562 
" clip-path="url(#p1bb264fcde)" style="fill: none; stroke: #e6482f; stroke-width: 0.2"/>
    <path d="M 445.819126 467.595869 
L 445.643473 464.390036 
L 446.0035 461.774653 
L 451.228244 444.394299 
L 456.918904 418.512563 
L 460.48055 396.153173 
L 462.81387 370.456532 
L 464.742317 355.743386 
" clip-path="url(#p1bb264fcde)" style="fill: none; stroke: #e6482f; stroke-width: 0.2"/>
    <path d="M 498.269626 311.529912 
L 498.558644 314.300773 
L 499.424451 317.456631 
L 500.049826 320.181219 
L 499.992521 322.794751 
L 495.335846 348.80235 
L 491.394242 374.498991 
L 489.671347 383.381666 
L 489.13193 386.163633 
L 487.225907 398.957351 
L 482.196749 421.524048 
L 477.577447 442.352709 
L 472.735154 457.782169 
L 467.400782 472.54529 
L 465.106081 486.042366 
L 464.186705 487.695258 
L 463.551364 489.633196 
L 462.453844 494.975017 
L 460.464355 506.765523 
" clip-path="url(#p1bb264fcde)" style="fill: none; stroke: #e6482f; stroke-width: 0.2"/>
    <path d="M 599.848167 396.65848 
L 597.488685 396.491895 
L 581.907886 392.677102 
L 568.34149 389.861818 
L 554.878494 386.680047 
L 542.205313 384.407089 
L 518.170743 379.283679 
L 491.394242 374.498991 
L 477.233616 371.84659 
L 462.81387 370.456532 
L 438.949971 367.143344 
L 415.64542 365.416414 
L 391.296917 363.191581 
L 372.925601 360.05053 
" clip-path="url(#p1bb264fcde)" style="fill: none; stroke: #e6482f; stroke-width: 0.2"/>
    <path d="M 423.354222 319.396419 
L 420.49768 334.168795 
L 415.64542 365.416414 
L 409.723047 393.561852 
" clip-path="url(#p1bb264fcde)" style="fill: none; stroke: #e6482f; stroke-width: 0.2"/>
    <path d="M 448.649507 314.284115 
L 444.283096 336.184472 
L 438.949971 367.143344 
L 436.026157 395.20549 
" clip-path="url(#p1bb264fcde)" style="fill: none; stroke: #e6482f; stroke-width: 0.2"/>
    <path d="M 573.016852 366.58621 
L 565.12243 363.208239 
L 547.966982 360.174543 
L 522.437493 354.538422 
L 495.335846 348.80235 
L 477.393074 345.418826 
L 473.710589 337.095136 
L 471.838202 336.069713 
L 466.201109 337.45607 
L 458.971927 336.854513 
L 456.007003 336.719394 
L 444.283096 336.184472 
L 420.49768 334.168795 
L 397.281578 333.082291 
" clip-path="url(#p1bb264fcde)" style="fill: none; stroke: #e6482f; stroke-width: 0.2"/>
    <path d="M 471.838202 336.069713 
L 471.42087 330.90003 
L 472.102304 324.653097 
L 473.294503 316.475631 
L 474.482964 312.151829 
" clip-path="url(#p1bb264fcde)" style="fill: none; stroke: #e6482f; stroke-width: 0.2"/>
    <path d="M 423.671892 317.341873 
L 423.354222 319.396419 
" clip-path="url(#p1bb264fcde)" style="fill: none; stroke: #e6482f; stroke-width: 0.2"/>
    <path d="M 682.022651 401.657877 
L 707.030164 430.003217 
L 713.742353 428.813061 
L 756.655694 420.020493 
" clip-path="url(#p1bb264fcde)" style="fill: none; stroke: #e6482f; stroke-width: 0.2"/>
    <path d="M 646.413666 396.584442 
L 623.24615 401.535715 
L 621.110906 402.898009 
L 618.793781 403.806822 
L 613.752165 404.671212 
L 608.073962 402.853586 
" clip-path="url(#p1bb264fcde)" style="fill: none; stroke: #e6482f; stroke-width: 0.2"/>
    <path d="M 759.414639 358.843716 
L 716.292437 359.839523 
L 700.508578 382.156342 
L 692.260359 398.009668 
L 682.022651 401.657877 
L 677.47685 403.277452 
L 670.509279 399.708834 
L 666.261215 394.779773 
L 654.583402 395.542361 
L 646.413666 396.584442 
" clip-path="url(#p1bb264fcde)" style="fill: none; stroke: #e6482f; stroke-width: 0.2"/>
    <path d="M 633.232213 333.681997 
L 637.497717 334.874004 
L 642.102069 335.351548 
L 643.83493 337.683736 
L 645.210256 342.107489 
L 645.877987 347.593684 
L 646.346395 351.434391 
" clip-path="url(#p1bb264fcde)" style="fill: none; stroke: #e6482f; stroke-width: 0.2"/>
    <path d="M 645.877987 347.593684 
L 640.760379 344.097253 
L 635.237897 339.253335 
L 633.29201 335.66991 
L 633.232213 333.681997 
L 633.13006 330.278113 
L 633.612172 325.785874 
" clip-path="url(#p1bb264fcde)" style="fill: none; stroke: #e6482f; stroke-width: 0.2"/>
    <path d="M 637.603607 275.564239 
L 631.130605 275.053379 
L 627.524111 274.213051 
L 617.175531 271.793868 
" clip-path="url(#p1bb264fcde)" style="fill: none; stroke: #e6482f; stroke-width: 0.2"/>
    <path d="M 660.601699 196.26429 
L 657.831115 217.526072 
L 655.26359 228.831632 
L 652.56526 240.921991 
L 650.606916 246.774673 
L 649.868176 253.190041 
L 648.391943 258.0173 
L 645.212748 262.218941 
L 643.721565 263.596042 
L 640.215979 274.200094 
L 637.603607 275.564239 
L 640.500014 277.039441 
L 641.634907 278.68678 
L 641.692212 281.015266 
L 640.953473 285.216907 
L 639.145866 303.348744 
L 633.612172 325.785874 
" clip-path="url(#p1bb264fcde)" style="fill: none; stroke: #e6482f; stroke-width: 0.2"/>
    <path d="M 643.721565 263.596042 
L 641.609991 263.640465 
L 630.024365 260.869603 
L 619.669555 258.394892 
" clip-path="url(#p1bb264fcde)" style="fill: none; stroke: #e6482f; stroke-width: 0.2"/>
    <path d="M 652.56526 240.921991 
L 625.488529 234.334485 
" clip-path="url(#p1bb264fcde)" style="fill: none; stroke: #e6482f; stroke-width: 0.2"/>
    <path d="M 720.63767 203.466309 
L 709.383417 206.244575 
L 706.199238 208.780367 
L 704.277021 214.738552 
L 699.488295 222.769793 
L 695.636386 228.798315 
L 689.273011 237.17013 
L 684.250081 246.211986 
L 681.632726 256.144146 
L 680.125349 269.51906 
" clip-path="url(#p1bb264fcde)" style="fill: none; stroke: #e6482f; stroke-width: 0.2"/>
    <path d="M 528.275154 457.230588 
L 530.657059 442.441554 
L 532.520725 433.823564 
L 535.248954 420.121033 
L 537.610927 409.157898 
L 542.205313 384.407089 
L 547.966982 360.174543 
L 552.249927 339.096005 
L 552.304741 338.592549 
L 552.353325 335.797625 
L 552.867827 333.398803 
L 553.97033 331.527499 
L 554.204534 329.756147 
L 555.120172 328.495655 
L 556.301159 315.846311 
L 558.106274 309.340246 
L 560.927935 297.057389 
L 563.028297 284.891141 
" clip-path="url(#p1bb264fcde)" style="fill: none; stroke: #e6482f; stroke-width: 0.2"/>
    <path d="M 575.564444 361.105568 
L 576.218471 359.580391 
" clip-path="url(#p1bb264fcde)" style="fill: none; stroke: #e6482f; stroke-width: 0.2"/>
    <path d="M 579.245683 340.363901 
L 574.881764 338.766537 
L 571.779806 338.109453 
L 567.703658 337.909551 
L 562.958534 337.742966 
L 559.784322 337.607847 
L 556.342269 337.174726 
L 554.939536 337.006291 
L 552.304741 338.592549 
" clip-path="url(#p1bb264fcde)" style="fill: none; stroke: #e6482f; stroke-width: 0.2"/>
    <path d="M 633.612172 325.785874 
L 608.553582 319.14284 
L 596.722539 316.705148 
L 583.559772 313.677006 
L 578.204223 312.560887 
L 571.112075 311.544719 
L 567.094478 311.566931 
L 561.989328 310.308289 
L 559.617389 309.271761 
L 558.106274 309.340246 
L 557.044881 309.74005 
L 554.405103 308.636888 
L 551.460111 307.811367 
L 549.091909 306.698951 
L 546.485766 306.532366 
L 540.872343 305.395887 
L 534.141467 303.374657 
L 507.579238 296.659436 
" clip-path="url(#p1bb264fcde)" style="fill: none; stroke: #e6482f; stroke-width: 0.2"/>
    <path d="M 564.06602 155.784168 
L 560.449561 173.921558 
L 555.710666 194.417049 
L 551.001669 217.653787 
L 543.317782 255.294563 
L 538.358386 279.404946 
L 536.741382 287.367702 
L 534.141467 303.374657 
L 530.963518 319.394568 
L 528.582858 329.078702 
L 522.437493 354.538422 
L 518.170743 379.283679 
L 513.020745 404.658255 
L 510.535441 413.607565 
L 507.408568 428.885248 
L 504.943196 439.43007 
L 500.173157 465.735671 
" clip-path="url(#p1bb264fcde)" style="fill: none; stroke: #e6482f; stroke-width: 0.2"/>
    <path d="M 576.218471 359.580391 
L 577.727094 354.316309 
L 578.6963 350.775455 
L 579.198344 345.361447 
L 579.245683 340.363901 
L 579.42009 336.571319 
L 580.006846 331.35166 
L 581.616376 323.20566 
L 582.672786 316.088784 
L 583.559772 313.677006 
L 584.778131 311.877889 
L 585.680066 309.640099 
L 586.132279 307.789156 
L 588.556541 289.916451 
L 593.020121 265.817174 
L 593.725225 263.273978 
L 594.446524 260.677105 
L 595.722189 254.596757 
L 600.10604 228.405915 
" clip-path="url(#p1bb264fcde)" style="fill: none; stroke: #e6482f; stroke-width: 0.2"/>
    <path d="M 605.241089 335.547748 
L 608.553582 319.14284 
L 613.374698 296.072687 
L 617.175531 271.793868 
L 617.311319 271.066448 
L 617.785956 268.517699 
L 618.319144 265.648738 
L 619.669555 258.394892 
L 625.488529 234.334485 
L 624.748544 232.875942 
" clip-path="url(#p1bb264fcde)" style="fill: none; stroke: #e6482f; stroke-width: 0.2"/>
    <path d="M 639.145866 303.348744 
L 613.374698 296.072687 
L 601.5449 293.233341 
L 588.556541 289.916451 
L 563.028297 284.891141 
L 552.487868 282.383113 
L 546.93175 281.585357 
L 538.358386 279.404946 
L 512.868762 272.921093 
L 486.600533 265.332227 
L 461.667765 259.779398 
L 436.992872 253.60095 
L 412.463733 248.188793 
L 399.061779 244.399913 
L 394.621867 243.448528 
L 387.496084 242.996898 
" clip-path="url(#p1bb264fcde)" style="fill: none; stroke: #e6482f; stroke-width: 0.2"/>
    <path d="M 568.092337 257.669323 
L 593.725225 263.273978 
L 617.785956 268.517699 
" clip-path="url(#p1bb264fcde)" style="fill: none; stroke: #e6482f; stroke-width: 0.2"/>
    <path d="M 618.319144 265.648738 
L 594.446524 260.677105 
L 568.727678 255.294563 
" clip-path="url(#p1bb264fcde)" style="fill: none; stroke: #e6482f; stroke-width: 0.2"/>
    <path d="M 792.96926 235.025194 
L 792.463573 234.69727 
L 778.492304 229.723786 
L 763.336311 223.56755 
L 753.390113 219.067907 
L 745.57542 211.253226 
L 738.184289 205.328358 
L 726.146449 191.379652 
L 723.772018 188.879028 
L 721.494757 188.231198 
" clip-path="url(#p1bb264fcde)" style="fill: none; stroke: #e6482f; stroke-width: 0.2"/>
    <path d="M 635.129515 191.755393 
L 634.18647 193.151004 
L 633.64207 194.657672 
L 630.363213 211.551228 
L 626.101446 231.121248 
L 625.615597 232.135565 
L 624.748544 232.875942 
" clip-path="url(#p1bb264fcde)" style="fill: none; stroke: #e6482f; stroke-width: 0.5"/>
    <path d="M 697.583518 183.93701 
L 702.986407 183.920352 
L 711.273245 184.921712 
L 718.232095 184.431212 
L 720.384779 185.787953 
L 721.494757 188.231198 
L 722.197369 190.407907 
L 722.598506 196.360539 
L 722.178683 201.989257 
L 720.63767 203.466309 
" clip-path="url(#p1bb264fcde)" style="fill: none; stroke: #e6482f; stroke-width: 0.2"/>
    <path d="M 687.760651 179.159726 
L 685.570594 181.817681 
L 681.239064 187.394572 
L 675.623149 192.74935 
L 672.147461 195.08524 
L 668.810053 196.978754 
L 666.070613 197.759852 
L 660.601699 196.26429 
L 638.379719 191.333378 
L 636.450027 191.170495 
L 635.129515 191.755393 
" clip-path="url(#p1bb264fcde)" style="fill: none; stroke: #e6482f; stroke-width: 0.5"/>
    <path d="M 681.239064 187.394572 
L 686.715453 184.877289 
L 690.431574 184.090638 
L 693.724134 183.687133 
" clip-path="url(#p1bb264fcde)" style="fill: none; stroke: #e6482f; stroke-width: 0.2"/>
    <path d="M 693.724134 183.687133 
L 697.583518 183.93701 
" clip-path="url(#p1bb264fcde)" style="fill: none; stroke: #e6482f; stroke-width: 0.2"/>
    <path d="M 686.715453 184.877289 
L 685.570594 181.817681 
" clip-path="url(#p1bb264fcde)" style="fill: none; stroke: #e6482f; stroke-width: 0.2"/>
    <path d="M 636.088755 174.382443 
L 635.651491 175.483754 
L 636.018992 182.184167 
L 635.788525 185.558436 
L 634.702217 190.842878 
L 635.129515 191.755393 
" clip-path="url(#p1bb264fcde)" style="fill: none; stroke: #e6482f; stroke-width: 0.2"/>
    <path d="M 690.172454 175.974254 
L 687.760651 179.159726 
" clip-path="url(#p1bb264fcde)" style="fill: none; stroke: #e6482f; stroke-width: 0.5"/>
    <path d="M 636.736553 172.692532 
L 636.088755 174.382443 
" clip-path="url(#p1bb264fcde)" style="fill: none; stroke: #e6482f; stroke-width: 0.2"/>
    <path d="M 617.311319 271.066448 
L 593.020121 265.817174 
L 567.379759 260.334681 
L 543.317782 255.294563 
L 518.813559 250.091562 
L 492.556542 242.069576 
L 468.203056 234.989719 
L 446.190365 229.092615 
L 443.591696 228.394809 
L 441.249655 226.619755 
L 440.589399 225.49068 
" clip-path="url(#p1bb264fcde)" style="fill: none; stroke: #e6482f; stroke-width: 0.2"/>
    <path d="M 538.30731 149.668652 
L 532.074741 178.08803 
L 529.857277 188.033147 
L 525.054848 213.559501 
L 518.813559 250.091562 
L 512.868762 272.921093 
L 507.579238 296.659436 
L 506.656125 300.252116 
L 505.173663 302.895263 
L 502.112815 305.003487 
L 500.15447 307.156134 
L 498.921162 309.50498 
" clip-path="url(#p1bb264fcde)" style="fill: none; stroke: #e6482f; stroke-width: 0.2"/>
    <path d="M 567.379759 260.334681 
L 568.092337 257.669323 
L 568.727678 255.294563 
L 570.328488 247.918555 
L 575.769995 222.849384 
L 580.482729 200.095742 
L 583.88118 182.878271 
L 585.308828 178.702544 
L 588.836838 161.684974 
" clip-path="url(#p1bb264fcde)" style="fill: none; stroke: #e6482f; stroke-width: 0.2"/>
    <path d="M 600.10604 228.405915 
L 604.740291 205.309849 
L 608.94849 183.126297 
" clip-path="url(#p1bb264fcde)" style="fill: none; stroke: #e6482f; stroke-width: 0.2"/>
    <path d="M 657.831115 217.526072 
L 630.363213 211.551228 
L 604.740291 205.309849 
L 580.482729 200.095742 
L 555.710666 194.417049 
L 529.857277 188.033147 
" clip-path="url(#p1bb264fcde)" style="fill: none; stroke: #e6482f; stroke-width: 0.2"/>
    <path d="M 634.702217 190.842878 
L 618.689137 188.688381 
L 608.94849 183.126297 
L 605.918786 183.370622 
L 597.25199 179.470685 
L 585.308828 178.702544 
L 560.449561 173.921558 
" clip-path="url(#p1bb264fcde)" style="fill: none; stroke: #e6482f; stroke-width: 0.2"/>
    <path d="M 532.074741 178.08803 
L 512.807719 175.320871 
L 507.183084 173.358871 
" clip-path="url(#p1bb264fcde)" style="fill: none; stroke: #e6482f; stroke-width: 0.2"/>
    <path d="M 507.183084 173.358871 
L 512.936033 153.960989 
" clip-path="url(#p1bb264fcde)" style="fill: none; stroke: #e6482f; stroke-width: 0.2"/>
    <path d="M 588.836838 161.684974 
L 564.06602 155.784168 
L 538.30731 149.668652 
" clip-path="url(#p1bb264fcde)" style="fill: none; stroke: #e6482f; stroke-width: 0.2"/>
    <path d="M 547.213294 109.190381 
L 538.30731 149.668652 
" clip-path="url(#p1bb264fcde)" style="fill: none; stroke: #e6482f; stroke-width: 0.2"/>
    <path d="M 647.197253 156.665217 
L 645.057027 158.077486 
L 642.885656 160.315276 
L 641.961297 162.184729 
L 636.736553 172.692532 
" clip-path="url(#p1bb264fcde)" style="fill: none; stroke: #e6482f; stroke-width: 0.2"/>
    <path d="M 721.494757 188.231198 
L 722.260904 185.932327 
L 724.940547 185.599157 
L 736.326851 184.929116 
L 749.220533 184.090638 
L 760.104793 181.747345 
L 771.659276 179.570636 
L 783.213758 177.393927 
L 789.196802 175.739014 
" clip-path="url(#p1bb264fcde)" style="fill: none; stroke: #e6482f; stroke-width: 0.2"/>
    <path d="M 694.241127 168.642669 
L 687.705837 167.36922 
L 666.50414 161.196325 
L 647.197253 156.665217 
L 643.188377 155.628689 
L 630.689604 152.848572 
L 616.940081 149.272551 
L 604.508579 147.888045 
L 592.004822 145.230091 
L 567.569115 140.521292 
" clip-path="url(#p1bb264fcde)" style="fill: none; stroke: #e6482f; stroke-width: 0.2"/>
    <path d="M 717.585065 176.32009 
L 714.223219 180.407262 
L 711.273245 184.921712 
" clip-path="url(#p1bb264fcde)" style="fill: none; stroke: #e6482f; stroke-width: 0.2"/>
    <path d="M 684.981346 87.889729 
L 683.13512 89.729567 
L 678.07108 113.090318 
L 673.023235 137.226614 
L 666.50414 161.196325 
L 663.97648 178.898744 
" clip-path="url(#p1bb264fcde)" style="fill: none; stroke: #e6482f; stroke-width: 0.2"/>
    <path d="M 654.293138 107.909528 
L 648.977453 132.717717 
L 642.987809 154.527378 
L 643.188377 155.628689 
" clip-path="url(#p1bb264fcde)" style="fill: none; stroke: #e6482f; stroke-width: 0.2"/>
    <path d="M 703.767502 92.409732 
L 704.248368 94.281035 
L 703.713934 98.664068 
L 699.009921 117.704719 
L 695.586555 134.374311 
L 693.793897 141.776232 
L 691.630001 150.99948 
L 687.705837 167.36922 
" clip-path="url(#p1bb264fcde)" style="fill: none; stroke: #e6482f; stroke-width: 0.2"/>
    <path d="M 707.601971 145.642851 
L 693.793897 141.776232 
L 673.023235 137.226614 
L 648.977453 132.717717 
L 622.456334 126.722513 
L 597.406465 121.186342 
L 572.722851 114.709893 
L 571.612873 114.778378 
L 547.213294 109.190381 
" clip-path="url(#p1bb264fcde)" style="fill: none; stroke: #e6482f; stroke-width: 0.2"/>
    <path d="M 765.975625 93.429449 
L 763.444693 95.123215 
L 755.373373 101.164692 
L 739.964489 113.580818 
L 727.070807 124.760513 
L 717.711365 131.573834 
L 712.274841 138.348285 
L 707.601971 145.642851 
L 703.584375 152.648671 
L 694.241127 168.642669 
L 690.172454 175.974254 
" clip-path="url(#p1bb264fcde)" style="fill: none; stroke: #e6482f; stroke-width: 0.5"/>
    <path d="M 727.070807 124.760513 
L 725.38404 123.681413 
L 715.424138 121.419561 
L 699.009921 117.704719 
L 678.07108 113.090318 
L 654.293138 107.909528 
L 627.82185 102.45665 
L 623.604931 101.514521 
L 618.492306 100.779696 
L 602.694743 97.07781 
L 580.868917 92.126538 
L 579.649311 91.943295 
" clip-path="url(#p1bb264fcde)" style="fill: none; stroke: #e6482f; stroke-width: 0.2"/>
    <path d="M 731.783541 99.893095 
L 739.964489 113.580818 
" clip-path="url(#p1bb264fcde)" style="fill: none; stroke: #e6482f; stroke-width: 0.2"/>
    <path d="M 631.804565 80.282354 
L 634.323504 82.31654 
L 644.856458 82.740406 
L 666.233809 82.947712 
L 676.339465 83.802847 
L 684.981346 87.889729 
L 703.767502 92.409732 
L 721.58819 95.282396 
L 728.788719 96.739088 
L 731.783541 99.893095 
" clip-path="url(#p1bb264fcde)" style="fill: none; stroke: #e6482f; stroke-width: 0.2"/>
    <path d="M 602.694743 97.07781 
L 604.332925 90.234874 
L 605.603607 85.957345 
L 607.941911 83.419702 
L 610.482028 82.283223 
L 619.603529 82.283223 
L 626.25343 82.418342 
L 629.026506 81.848252 
L 630.721994 80.367497 
L 631.338648 78.673884 
" clip-path="url(#p1bb264fcde)" style="fill: none; stroke: #e6482f; stroke-width: 0.2"/>
    <path d="M 738.851943 78.945956 
L 739.143529 92.035842 
L 731.783541 99.893095 
" clip-path="url(#p1bb264fcde)" style="fill: none; stroke: #e6482f; stroke-width: 0.2"/>
    <path d="M 588.836838 161.684974 
L 592.004822 145.230091 
L 597.406465 121.186342 
L 602.694743 97.07781 
" clip-path="url(#p1bb264fcde)" style="fill: none; stroke: #e6482f; stroke-width: 0.2"/>
    <path d="M 579.649311 91.943295 
L 578.779767 92.278315 
L 578.33752 93.285228 
L 575.95686 104.170624 
L 572.722851 114.709893 
L 567.569115 140.521292 
L 564.06602 155.784168 
" clip-path="url(#p1bb264fcde)" style="fill: none; stroke: #e6482f; stroke-width: 0.2"/>
    <path d="M 608.94849 183.126297 
L 614.417404 159.434227 
L 616.940081 149.272551 
L 622.456334 126.722513 
L 627.82185 102.45665 
L 631.053367 88.533858 
L 631.6912 83.541864 
L 631.804565 80.282354 
L 631.338648 78.673884 
L 631.160477 77.171727 
" clip-path="url(#p1bb264fcde)" style="fill: none; stroke: #e6482f; stroke-width: 0.2"/>
    <path d="M 503.925996 63.707841 
L 502.783037 68.821315 
L 484.338221 145.994531 
" clip-path="url(#p1bb264fcde)" style="fill: none; stroke: #e6482f; stroke-width: 0.2"/>
    <path d="M 179.279984 375.344698 
L 179.576438 373.81044 
" clip-path="url(#p1bb264fcde)" style="fill: none; stroke: #e6482f; stroke-width: 0.2"/>
    <path d="M 157.168839 373.517991 
L 157.219107 374.601952 
" clip-path="url(#p1bb264fcde)" style="fill: none; stroke: #e6482f; stroke-width: 0.2"/>
    <path d="M 178.427841 372.849801 
L 175.284773 373.373618 
L 167.871217 372.673961 
L 157.168839 373.517991 
L 152.420179 372.525495 
" clip-path="url(#p1bb264fcde)" style="fill: none; stroke: #e6482f; stroke-width: 0.2"/>
    <path d="M 263.435198 333.598705 
L 270.4526 335.470008 
L 274.169967 339.762345 
" clip-path="url(#p1bb264fcde)" style="fill: none; stroke: #e6482f; stroke-width: 0.2"/>
    <path d="M 245.778952 261.613682 
L 239.687155 284.75232 
L 234.381436 301.86984 
L 232.607465 309.595676 
L 229.000971 325.200976 
L 220.83871 360.605813 
L 218.24627 372.986771 
L 218.145363 374.395338 
L 218.200177 375.604004 
L 218.491686 377.086609 
L 218.932688 378.289722 
" clip-path="url(#p1bb264fcde)" style="fill: none; stroke: #e6482f; stroke-width: 0.2"/>
    <path d="M 261.727253 263.051865 
L 261.019657 268.16602 
L 260.277181 273.333853 
L 259.476153 275.305107 
L 258.434692 277.043143 
L 257.235019 278.788582 
L 256.868764 280.785749 
L 256.123796 287.40287 
L 254.045857 288.620791 
L 252.96827 291.128819 
L 249.878769 300.437211 
L 247.48316 312.029666 
L 243.278699 328.901011 
L 236.100594 364.487241 
" clip-path="url(#p1bb264fcde)" style="fill: none; stroke: #e6482f; stroke-width: 0.2"/>
    <path d="M 170.003969 301.188693 
L 169.237823 303.672659 
L 167.103825 306.263979 
L 162.890644 314.511781 
" clip-path="url(#p1bb264fcde)" style="fill: none; stroke: #e6482f; stroke-width: 0.2"/>
    <path d="M 365.259155 390.600344 
L 365.098796 391.510083 
" clip-path="url(#p1bb264fcde)" style="fill: none; stroke: #e6482f; stroke-width: 0.2"/>
    <path d="M 296.610876 386.195796 
L 296.933855 385.730513 
" clip-path="url(#p1bb264fcde)" style="fill: none; stroke: #e6482f; stroke-width: 0.2"/>
    <path d="M 562.148786 415.019834 
L 537.610927 409.157898 
L 513.020745 404.658255 
L 487.225907 398.957351 
L 472.064931 396.83432 
L 460.48055 396.153173 
L 447.306571 395.562722 
L 440.03877 396.562231 
L 436.026157 395.20549 
L 427.911235 394.270764 
L 409.723047 393.561852 
L 387.78261 392.442032 
L 372.19309 392.053334 
L 367.596213 391.046421 
L 365.259155 390.600344 
L 362.807487 390.132055 
L 357.855566 389.188074 
L 296.933855 385.730513 
L 227.760188 382.178553 
L 221.216177 380.688544 
L 220.295556 380.062926 
L 219.688868 379.328101 
L 218.932688 378.289722 
" clip-path="url(#p1bb264fcde)" style="fill: none; stroke: #e6482f; stroke-width: 0.2"/>
    <path d="M 367.596213 391.046421 
L 368.959081 384.368219 
L 372.925601 360.05053 
" clip-path="url(#p1bb264fcde)" style="fill: none; stroke: #e6482f; stroke-width: 0.2"/>
    <path d="M 387.78261 392.442032 
L 391.296917 363.191581 
L 397.281578 333.082291 
L 398.361658 326.080174 
" clip-path="url(#p1bb264fcde)" style="fill: none; stroke: #e6482f; stroke-width: 0.2"/>
    <path d="M 348.85615 340.186211 
L 356.04173 345.548392 
L 358.514576 346.814437 
L 360.502819 347.049507 
L 362.791292 347.482628 
L 364.46311 348.502497 
L 365.93436 350.155389 
L 368.959081 354.732771 
L 370.003033 356.313476 
L 372.925601 360.05053 
" clip-path="url(#p1bb264fcde)" style="fill: none; stroke: #e6482f; stroke-width: 0.2"/>
    <path d="M 359.101332 291.082545 
L 359.083891 291.817369 
L 348.85615 340.186211 
L 346.700974 350.375651 
L 343.901737 353.812853 
L 338.890019 356.75215 
L 296.933855 385.730513 
" clip-path="url(#p1bb264fcde)" style="fill: none; stroke: #e6482f; stroke-width: 0.2"/>
    <path d="M 398.361658 326.080174 
L 398.661888 323.640631 
" clip-path="url(#p1bb264fcde)" style="fill: none; stroke: #e6482f; stroke-width: 0.2"/>
    <path d="M 317.323312 314.870864 
L 315.169382 313.210568 
L 312.534587 312.529421 
L 302.086344 312.255481 
L 247.48316 312.029666 
" clip-path="url(#p1bb264fcde)" style="fill: none; stroke: #e6482f; stroke-width: 0.2"/>
    <path d="M 624.748544 232.875942 
L 623.56382 233.257236 
L 621.999138 233.257236 
L 600.10604 228.405915 
L 575.769995 222.849384 
L 551.001669 217.653787 
L 525.054848 213.559501 
L 506.653633 210.625757 
L 499.826834 209.990883 
L 498.724331 210.057517 
L 492.998789 211.012604 
L 482.109545 213.453997 
L 456.580056 218.716228 
L 448.782804 221.759179 
L 440.589399 225.49068 
L 438.24113 226.086683 
L 435.899089 226.290287 
L 430.615794 225.723898 
L 417.656087 222.751284 
L 415.047452 222.151578 
L 402.219796 219.312232 
L 395.948609 217.737079 
L 394.52096 217.931428 
L 393.12321 218.388611 
L 392.142792 219.676868 
L 391.478799 221.372331 
L 387.496084 242.996898 
L 384.946 258.326408 
L 383.598081 264.375289 
L 382.546654 269.043367 
L 381.052981 273.617047 
L 378.213879 278.088925 
L 374.626072 282.470107 
L 359.101332 291.082545 
L 350.51551 296.217061 
L 327.456376 309.690074 
L 317.323312 314.870864 
L 283.424765 334.21692 
L 274.169967 339.762345 
L 249.131309 354.767939 
L 236.100594 364.487241 
L 221.257288 376.829328 
L 218.932688 378.289722 
L 216.892122 379.531705 
L 214.021877 380.455325 
L 210.391211 380.427207 
" clip-path="url(#p1bb264fcde)" style="fill: none; stroke: #e6482f; stroke-width: 0.5"/>
    <path d="M 188.515087 376.638677 
L 184.487249 375.520712 
L 183.606492 375.217157 
L 181.312793 374.520859 
" clip-path="url(#p1bb264fcde)" style="fill: none; stroke: #e6482f; stroke-width: 0.5"/>
    <path d="M 180.882042 374.388541 
L 179.576438 373.81044 
L 178.427841 372.849801 
L 178.035425 370.53242 
L 177.103592 365.481197 
L 176.733599 356.580012 
L 177.053761 348.391441 
L 180.004981 336.417691 
L 186.649899 309.723391 
" clip-path="url(#p1bb264fcde)" style="fill: none; stroke: #e6482f; stroke-width: 0.5"/>
    <path d="M 350.51551 296.217061 
L 319.084826 293.216682 
L 264.082997 288.430144 
L 256.123796 287.40287 
" clip-path="url(#p1bb264fcde)" style="fill: none; stroke: #e6482f; stroke-width: 0.2"/>
    <path d="M 382.110636 273.800291 
L 378.292362 294.799238 
" clip-path="url(#p1bb264fcde)" style="fill: none; stroke: #e6482f; stroke-width: 0.2"/>
    <path d="M 398.661888 323.640631 
L 407.204107 277.218982 
L 412.463733 248.188793 
L 417.656087 222.751284 
" clip-path="url(#p1bb264fcde)" style="fill: none; stroke: #e6482f; stroke-width: 0.2"/>
    <path d="M 381.052981 273.617047 
L 367.626111 272.410232 
L 330.030129 269.139616 
L 261.727253 263.051865 
L 245.778952 261.613682 
" clip-path="url(#p1bb264fcde)" style="fill: none; stroke: #e6482f; stroke-width: 0.2"/>
    <path d="M 394.621867 243.448528 
L 387.1971 274.657277 
" clip-path="url(#p1bb264fcde)" style="fill: none; stroke: #e6482f; stroke-width: 0.2"/>
    <path d="M 448.983373 312.044474 
L 448.649507 314.284115 
" clip-path="url(#p1bb264fcde)" style="fill: none; stroke: #e6482f; stroke-width: 0.2"/>
    <path d="M 425.642695 303.979915 
L 449.502857 308.362948 
L 457.22038 309.255103 
L 472.94818 311.750174 
L 474.482964 312.151829 
L 480.735465 313.791764 
L 485.062011 316.470078 
L 494.81387 317.982299 
L 498.558644 314.300773 
" clip-path="url(#p1bb264fcde)" style="fill: none; stroke: #e6482f; stroke-width: 0.2"/>
    <path d="M 498.921162 309.50498 
L 498.269626 311.529912 
" clip-path="url(#p1bb264fcde)" style="fill: none; stroke: #e6482f; stroke-width: 0.2"/>
    <path d="M 502.112815 305.003487 
L 500.343827 302.985959 
L 497.431225 302.10491 
L 479.006341 297.551591 
L 471.836956 294.597486 
L 463.75567 290.151521 
L 453.250122 286.105359 
L 448.421532 283.991582 
L 443.02861 282.129534 
L 431.02316 280.108304 
L 407.204107 277.218982 
L 387.1971 274.657277 
L 382.110636 273.800291 
L 381.052981 273.617047 
" clip-path="url(#p1bb264fcde)" style="fill: none; stroke: #e6482f; stroke-width: 0.2"/>
    <path d="M 468.203056 234.989719 
L 461.667765 259.779398 
L 453.250122 286.105359 
L 449.502857 308.362948 
L 448.983373 312.044474 
" clip-path="url(#p1bb264fcde)" style="fill: none; stroke: #e6482f; stroke-width: 0.2"/>
    <path d="M 443.591696 228.394809 
L 436.992872 253.60095 
L 431.02316 280.108304 
L 425.642695 303.979915 
L 424.742006 309.640099 
L 423.671892 317.341873 
" clip-path="url(#p1bb264fcde)" style="fill: none; stroke: #e6482f; stroke-width: 0.2"/>
    <path d="M 498.724331 210.057517 
L 497.184564 219.573215 
L 492.556542 242.069576 
L 486.600533 265.332227 
L 479.006341 297.551591 
" clip-path="url(#p1bb264fcde)" style="fill: none; stroke: #e6482f; stroke-width: 0.2"/>
    <path d="M 497.184564 219.573215 
L 502.409307 220.507941 
L 505.536181 221.066926 
L 509.881414 221.844322 
" clip-path="url(#p1bb264fcde)" style="fill: none; stroke: #e6482f; stroke-width: 0.2"/>
    <path d="M 506.20142 216.034212 
L 505.536181 221.066926 
" clip-path="url(#p1bb264fcde)" style="fill: none; stroke: #e6482f; stroke-width: 0.2"/>
    <path d="M 503.093233 215.527054 
L 502.409307 220.507941 
" clip-path="url(#p1bb264fcde)" style="fill: none; stroke: #e6482f; stroke-width: 0.2"/>
    <path d="M 186.649899 309.723391 
L 191.309065 290.706804 
L 195.629383 273.381977 
" clip-path="url(#p1bb264fcde)" style="fill: none; stroke: #e6482f; stroke-width: 0.5"/>
    <path d="M 178.708139 265.856043 
L 170.003969 301.188693 
" clip-path="url(#p1bb264fcde)" style="fill: none; stroke: #e6482f; stroke-width: 0.2"/>
    <path d="M 178.708139 265.856043 
L 187.742436 268.051262 
L 191.776228 269.432065 
L 194.393583 271.431084 
L 195.629383 273.381977 
" clip-path="url(#p1bb264fcde)" style="fill: none; stroke: #e6482f; stroke-width: 0.5"/>
    <path d="M 156.274379 268.652818 
L 157.976095 266.172555 
L 160.927316 264.930572 
L 162.505702 264.762136 
L 164.905048 264.503004 
L 169.823333 264.417861 
L 173.588039 264.888 
L 178.708139 265.856043 
" clip-path="url(#p1bb264fcde)" style="fill: none; stroke: #e6482f; stroke-width: 0.2"/>
    <path d="M 223.271692 246.919046 
L 220.094988 261.330488 
L 215.564136 281.881508 
" clip-path="url(#p1bb264fcde)" style="fill: none; stroke: #e6482f; stroke-width: 0.2"/>
    <path d="M 245.778952 261.613682 
L 234.114842 261.271258 
L 220.094988 261.330488 
" clip-path="url(#p1bb264fcde)" style="fill: none; stroke: #e6482f; stroke-width: 0.2"/>
    <path d="M 195.629383 273.381977 
L 202.928328 239.733686 
L 203.254718 238.402858 
L 203.456533 237.081284 
L 203.122667 235.626443 
" clip-path="url(#p1bb264fcde)" style="fill: none; stroke: #e6482f; stroke-width: 0.5"/>
    <path d="M 173.472183 186.794866 
L 174.035269 188.960469 
L 172.76085 193.228744 
L 171.829017 198.115233 
L 170.894692 199.557118 
L 170.143495 201.846734 
L 169.758553 204.219643 
L 169.089577 208.102921 
L 166.86713 213.552097 
L 166.167009 217.766695 
L 166.199399 221.529662 
L 165.3311 225.301883 
L 164.040486 228.850141 
L 163.058822 232.133714 
L 162.373651 235.539449 
L 161.536496 242.219502 
L 160.619612 246.802437 
L 159.718923 250.193364 
L 158.615174 254.972499 
L 157.303382 259.672043 
L 156.501108 264.2994 
L 156.274379 268.652818 
L 156.209599 270.777701 
L 155.787284 273.372723 
L 155.307664 276.223175 
L 154.661111 279.07918 
L 152.874682 287.103018 
L 151.615213 290.725313 
L 150.361972 293.68312 
L 147.487989 297.910673 
L 143.2474 304.392676 
L 141.356327 306.948828 
L 139.902518 309.671565 
L 138.884503 316.38908 
" clip-path="url(#p1bb264fcde)" style="fill: none; stroke: #e6482f; stroke-width: 0.2"/>
    <path d="M 186.242533 230.428995 
L 178.708139 265.856043 
" clip-path="url(#p1bb264fcde)" style="fill: none; stroke: #e6482f; stroke-width: 0.5"/>
    <path d="M 250.851713 231.208242 
L 248.878419 246.071314 
L 245.778952 261.613682 
" clip-path="url(#p1bb264fcde)" style="fill: none; stroke: #e6482f; stroke-width: 0.2"/>
    <path d="M 384.946 258.326408 
L 378.063141 257.654515 
L 330.935801 253.50285 
L 248.878419 246.071314 
" clip-path="url(#p1bb264fcde)" style="fill: none; stroke: #e6482f; stroke-width: 0.2"/>
    <path d="M 387.496084 242.996898 
L 331.817804 238.154831 
L 297.138161 234.863855 
L 273.071201 233.125819 
L 250.851713 231.208242 
" clip-path="url(#p1bb264fcde)" style="fill: none; stroke: #e6482f; stroke-width: 0.2"/>
    <path d="M 335.237432 204.354762 
L 332.556543 228.487356 
L 331.817804 238.154831 
L 330.935801 253.50285 
L 330.030129 269.139616 
" clip-path="url(#p1bb264fcde)" style="fill: none; stroke: #e6482f; stroke-width: 0.2"/>
    <path d="M 399.061779 244.399913 
L 402.219796 219.312232 
" clip-path="url(#p1bb264fcde)" style="fill: none; stroke: #e6482f; stroke-width: 0.2"/>
    <path d="M 279.428346 212.726577 
L 302.952152 217.303959 
L 305.067463 217.716719 
L 330.126053 222.592103 
" clip-path="url(#p1bb264fcde)" style="fill: none; stroke: #e6482f; stroke-width: 0.2"/>
    <path d="M 393.12321 218.388611 
L 391.928521 217.14848 
L 389.778328 216.459929 
L 335.237432 204.354762 
" clip-path="url(#p1bb264fcde)" style="fill: none; stroke: #e6482f; stroke-width: 0.2"/>
    <path d="M 308.072252 201.954089 
L 305.067463 217.716719 
" clip-path="url(#p1bb264fcde)" style="fill: none; stroke: #e6482f; stroke-width: 0.2"/>
    <path d="M 306.303263 201.694957 
L 302.952152 217.303959 
" clip-path="url(#p1bb264fcde)" style="fill: none; stroke: #e6482f; stroke-width: 0.2"/>
    <path d="M 335.237432 204.354762 
L 309.066373 198.729746 
L 277.544748 193.151004 
L 273.352744 191.227875 
L 253.102812 187.183564 
" clip-path="url(#p1bb264fcde)" style="fill: none; stroke: #e6482f; stroke-width: 0.2"/>
    <path d="M 499.867944 214.999535 
L 503.093233 215.527054 
L 506.20142 216.034212 
L 510.838162 216.793099 
" clip-path="url(#p1bb264fcde)" style="fill: none; stroke: #e6482f; stroke-width: 0.2"/>
    <path d="M 415.047452 222.151578 
L 415.32857 221.179719 
" clip-path="url(#p1bb264fcde)" style="fill: none; stroke: #e6482f; stroke-width: 0.2"/>
    <path d="M 499.826834 209.990883 
L 500.206793 207.843789 
L 501.626966 202.146587 
L 502.663444 196.332775 
L 504.984306 182.559909 
L 507.183084 173.358871 
L 483.626889 164.294804 
" clip-path="url(#p1bb264fcde)" style="fill: none; stroke: #e6482f; stroke-width: 0.2"/>
    <path d="M 484.338221 145.994531 
L 512.936033 153.960989 
L 529.072444 158.455079 
" clip-path="url(#p1bb264fcde)" style="fill: none; stroke: #e6482f; stroke-width: 0.2"/>
    <path d="M 203.122667 235.626443 
L 202.621869 235.065607 
L 201.860706 234.739841 
L 186.242533 230.428995 
" clip-path="url(#p1bb264fcde)" style="fill: none; stroke: #e6482f; stroke-width: 0.5"/>
    <path d="M 203.122667 235.626443 
L 205.059834 235.909637 
L 207.984893 236.996141 
L 209.588194 237.062775 
L 211.492971 235.676419 
L 212.622881 232.835221 
L 215.886789 220.68193 
L 216.229375 219.395524 
L 216.346477 218.377506 
L 216.154629 217.490904 
L 215.569119 216.765334 
L 214.583717 216.380338 
L 208.970294 215.34381 
" clip-path="url(#p1bb264fcde)" style="fill: none; stroke: #e6482f; stroke-width: 0.2"/>
    <path d="M 277.544748 193.151004 
L 276.171913 211.364283 
L 275.023317 223.269548 
L 273.071201 233.125819 
" clip-path="url(#p1bb264fcde)" style="fill: none; stroke: #e6482f; stroke-width: 0.2"/>
    <path d="M 186.242533 230.428995 
L 195.359051 192.064501 
L 195.619417 190.204303 
L 195.67423 188.90309 
L 194.992796 187.438994 
" clip-path="url(#p1bb264fcde)" style="fill: none; stroke: #e6482f; stroke-width: 0.5"/>
    <path d="M 214.342039 156.531949 
L 214.993575 156.624496 
L 215.728577 157.066871 
L 216.634249 158.047871 
L 217.390429 159.230624 
L 218.393271 161.301829 
L 218.677306 162.954721 
L 218.760772 165.560849 
L 218.626229 168.133659 
L 212.529449 200.253072 
L 208.970294 215.34381 
L 208.590336 217.333574 
" clip-path="url(#p1bb264fcde)" style="fill: none; stroke: #e6482f; stroke-width: 0.2"/>
    <path d="M 214.342039 156.531949 
L 213.065128 156.680024 
L 196.094054 160.411525 
L 179.77576 162.232853 
" clip-path="url(#p1bb264fcde)" style="fill: none; stroke: #e6482f; stroke-width: 0.2"/>
    <path d="M 194.992796 187.438994 
L 196.586131 184.318304 
L 196.115232 160.835391 
L 196.094054 160.411525 
L 195.195856 129.42674 
" clip-path="url(#p1bb264fcde)" style="fill: none; stroke: #e6482f; stroke-width: 0.2"/>
    <path d="M 194.992796 187.438994 
L 193.494139 186.35064 
L 191.462294 185.812015 
L 188.861134 185.689853 
L 181.359129 186.298813 
L 173.472183 186.794866 
L 170.317057 187.073203 
" clip-path="url(#p1bb264fcde)" style="fill: none; stroke: #e6482f; stroke-width: 0.5"/>
    <path d="M 181.359129 186.298813 
L 179.77576 162.232853 
L 179.742125 161.729397 
L 177.903374 144.708125 
L 176.405963 119.903639 
" clip-path="url(#p1bb264fcde)" style="fill: none; stroke: #e6482f; stroke-width: 0.2"/>
    <path d="M 309.066373 198.729746 
L 310.318368 197.591416 
L 310.980868 196.440717 
" clip-path="url(#p1bb264fcde)" style="fill: none; stroke: #e6482f; stroke-width: 0.2"/>
    <path d="M 313.209265 176.431781 
L 301.242961 173.158969 
L 282.160312 166.934248 
L 280.939461 165.188809 
L 280.706503 162.688185 
L 279.775915 148.493304 
L 280.706503 142.037215 
L 285.476542 121.269635 
L 288.502508 112.429531 
L 293.09814 102.656552 
L 296.704634 96.083854 
L 303.744459 83.752872 
L 309.154823 74.794308 
L 312.180789 70.257647 
L 316.020241 66.709389 
" clip-path="url(#p1bb264fcde)" style="fill: none; stroke: #e6482f; stroke-width: 0.2"/>
    <path d="M 169.197853 187.022418 
L 161.940124 115.579836 
L 161.908071 115.17448 
" clip-path="url(#p1bb264fcde)" style="fill: none; stroke: #e6482f; stroke-width: 0.2"/>
   </g>
   <g id="LineCollection_2">
    <path d="M 184.46468 375.612539 
L 184.487249 375.520712 
L 187.989098 361.9533 
L 193.435588 338.216807 
L 194.516913 333.783799 
L 196.021799 327.612755 
L 208.366098 277.006124 
L 223.599328 211.566036 
L 227.286797 195.501702 
L 240.168021 138.888761 
" clip-path="url(#p1bb264fcde)" style="fill: none; stroke-dasharray: 3.7,1.6; stroke-dashoffset: 0; stroke: #e6482f"/>
    <path d="M 239.354535 138.692561 
L 226.475803 195.294396 
L 222.409622 211.282841 
L 213.605791 248.960636 
L 213.479968 249.571447 
L 192.179856 340.456448 
L 187.195545 361.723783 
L 183.606492 375.217157 
L 183.584424 375.307656 
" clip-path="url(#p1bb264fcde)" style="fill: none; stroke-dasharray: 3.7,1.6; stroke-dashoffset: 0; stroke: #e6482f"/>
    <path d="M 197.782067 307.135773 
L 196.049206 310.745112 
L 192.313153 325.691476 
L 183.493127 364.794497 
" clip-path="url(#p1bb264fcde)" style="fill: none; stroke-dasharray: 3.7,1.6; stroke-dashoffset: 0; stroke: #e6482f"/>
    <path d="M 184.459842 296.579846 
L 181.785182 300.028152 
L 180.844628 301.249775 
L 179.18153 303.920685 
L 177.700314 306.597149 
L 175.673452 311.146767 
L 174.717949 314.347047 
L 165.207769 356.32088 
" clip-path="url(#p1bb264fcde)" style="fill: none; stroke-dasharray: 3.7,1.6; stroke-dashoffset: 0; stroke: #e6482f"/>
    <path d="M 204.661189 275.808564 
L 202.656751 278.990335 
L 201.072136 281.357691 
L 198.4934 284.315498 
L 195.335382 287.717531 
L 191.309065 290.706804 
L 184.459842 296.579846 
L 179.399539 300.718554 
L 170.376453 308.096413 
L 169.250281 309.132941 
L 165.668703 313.254991 
L 163.700392 315.842609 
L 161.899014 318.839285 
L 160.389145 321.924807 
L 159.173277 324.988118 
L 148.940552 368.172468 
" clip-path="url(#p1bb264fcde)" style="fill: none; stroke-dasharray: 3.7,1.6; stroke-dashoffset: 0; stroke: #e6482f"/>
    <path d="M 209.28049 263.564576 
L 207.242416 269.589395 
L 205.300267 276.015869 
L 197.782067 307.135773 
L 193.284851 325.750706 
L 190.565343 343.145868 
L 184.054968 370.850782 
" clip-path="url(#p1bb264fcde)" style="fill: none; stroke-dasharray: 3.7,1.6; stroke-dashoffset: 0; stroke: #e6482f"/>
    <path d="M 207.242416 269.589395 
L 204.661189 275.808564 
L 202.378945 281.259591 
L 199.462606 290.495796 
L 194.349981 313.871355 
L 191.474752 324.036733 
L 190.068282 331.421996 
L 189.87768 332.478884 
" clip-path="url(#p1bb264fcde)" style="fill: none; stroke-dasharray: 3.7,1.6; stroke-dashoffset: 0; stroke: #e6482f"/>
    <path d="M 193.435588 338.216807 
L 196.517614 331.164715 
L 199.037799 325.402729 
L 199.830107 323.361139 
L 202.806243 312.318413 
L 232.117879 187.418634 
L 233.341221 178.034353 
" clip-path="url(#p1bb264fcde)" style="fill: none; stroke-dasharray: 3.7,1.6; stroke-dashoffset: 0; stroke: #e6482f"/>
    <path d="M 194.516913 333.783799 
L 197.554092 326.776129 
L 199.01413 323.007609 
L 200.066802 319.544495 
L 233.341221 178.034353 
L 234.432512 168.792595 
" clip-path="url(#p1bb264fcde)" style="fill: none; stroke-dasharray: 3.7,1.6; stroke-dashoffset: 0; stroke: #e6482f"/>
    <path d="M 219.863275 212.641434 
L 218.059406 219.016081 
L 215.861874 225.338902 
" clip-path="url(#p1bb264fcde)" style="fill: none; stroke-dasharray: 3.7,1.6; stroke-dashoffset: 0; stroke: #e6482f"/>
    <path d="M 233.744849 184.571884 
L 231.650716 194.439261 
L 217.521234 254.010009 
L 208.241521 293.138943 
" clip-path="url(#p1bb264fcde)" style="fill: none; stroke-dasharray: 3.7,1.6; stroke-dashoffset: 0; stroke: #e6482f"/>
    <path d="M 202.806243 312.318413 
L 206.911043 301.073935 
L 209.286719 295.099091 
L 210.203603 292.518877 
L 211.527853 288.511585 
L 215.363567 270.655539 
L 216.04251 268.650967 
L 218.92895 261.115779 
L 219.632808 258.093189 
L 223.903295 236.735158 
L 229.098141 219.930447 
L 230.965545 214.599731 
L 232.866584 208.693372 
L 233.171797 207.505067 
L 233.409738 206.113158 
L 233.407247 197.086109 
L 233.744849 184.571884 
L 235.523804 169.153529 
L 236.552807 159.428675 
" clip-path="url(#p1bb264fcde)" style="fill: none; stroke-dasharray: 3.7,1.6; stroke-dashoffset: 0; stroke: #e6482f"/>
    <path d="M 238.543541 213.824186 
L 239.455442 217.113312 
L 240.151826 221.649973 
L 239.811731 225.068665 
L 239.076729 229.646046 
L 237.839683 234.891619 
L 236.904113 239.034029 
L 236.135475 243.979749 
L 235.701948 246.250856 
L 235.467744 249.527025 
L 234.665471 257.611944 
" clip-path="url(#p1bb264fcde)" style="fill: none; stroke-dasharray: 3.7,1.6; stroke-dashoffset: 0; stroke: #e6482f"/>
    <path d="M 236.564019 208.341693 
L 238.543541 213.824186 
L 244.616652 227.051024 
L 245.258222 230.04585 
L 245.49118 233.688506 
L 245.625723 237.129409 
L 245.592087 239.768853 
L 244.990382 243.378192 
L 242.584807 256.408831 
" clip-path="url(#p1bb264fcde)" style="fill: none; stroke-dasharray: 3.7,1.6; stroke-dashoffset: 0; stroke: #e6482f"/>
    <path d="M 231.650716 194.439261 
L 230.862146 202.135481 
L 219.762368 248.483093 
L 217.521234 254.010009 
" clip-path="url(#p1bb264fcde)" style="fill: none; stroke-dasharray: 3.7,1.6; stroke-dashoffset: 0; stroke: #e6482f"/>
    <path d="M 196.021799 327.612755 
L 199.025342 319.374208 
L 234.432512 168.792595 
L 236.552807 159.428675 
L 241.461126 137.754133 
L 244.973398 123.342698 
" clip-path="url(#p1bb264fcde)" style="fill: none; stroke-dasharray: 3.7,1.6; stroke-dashoffset: 0; stroke: #e6482f"/>
    <path d="M 233.407247 197.086109 
L 233.751078 199.951369 
L 235.715652 205.848473 
L 236.564019 208.341693 
L 239.333357 213.387364 
L 245.935919 223.299163 
" clip-path="url(#p1bb264fcde)" style="fill: none; stroke-dasharray: 3.7,1.6; stroke-dashoffset: 0; stroke: #e6482f"/>
    <path d="M 215.895509 235.517237 
L 230.716391 172.537053 
" clip-path="url(#p1bb264fcde)" style="fill: none; stroke-dasharray: 3.7,1.6; stroke-dashoffset: 0; stroke: #e6482f"/>
    <path d="M 223.907033 182.689475 
L 224.157432 176.079757 
L 223.838516 172.463015 
L 222.835674 165.934739 
L 221.991044 162.032951 
L 220.669286 157.701745 
L 218.646161 152.25442 
L 217.340598 149.357694 
L 216.098569 146.936661 
L 213.995716 143.432826 
L 211.01086 138.925779 
" clip-path="url(#p1bb264fcde)" style="fill: none; stroke-dasharray: 3.7,1.6; stroke-dashoffset: 0; stroke: #e6482f"/>
    <path d="M 192.179856 340.456448 
L 192.777824 333.267386 
L 197.230192 315.422445 
L 209.28049 263.564576 
L 215.895509 235.517237 
L 216.393816 230.773271 
L 219.863275 212.641434 
L 222.015959 202.389061 
L 223.295361 193.858064 
L 223.907033 182.689475 
L 223.559464 178.637761 
L 223.167047 172.507437 
L 222.217774 166.047647 
L 220.676761 160.472606 
L 219.191807 155.86746 
L 217.091445 150.929145 
L 215.518042 147.686292 
L 211.01086 138.925779 
L 210.008018 137.433919 
L 208.435075 135.457841 
" clip-path="url(#p1bb264fcde)" style="fill: none; stroke-dasharray: 3.7,1.6; stroke-dashoffset: 0; stroke: #e6482f"/>
    <path d="M 240.168021 138.888761 
L 242.771041 124.680681 
" clip-path="url(#p1bb264fcde)" style="fill: none; stroke-dasharray: 3.7,1.6; stroke-dashoffset: 0; stroke: #e6482f"/>
    <path d="M 241.801231 125.269863 
L 239.354535 138.692561 
" clip-path="url(#p1bb264fcde)" style="fill: none; stroke-dasharray: 3.7,1.6; stroke-dashoffset: 0; stroke: #e6482f"/>
   </g>
  </g>
 </g>
 <defs>
  <clipPath id="p1bb264fcde">
   <rect x="7.2" y="7.2" width="837" height="601.032088"/>
  </clipPath>
 </defs>
</svg>
