<?xml version="1.0" encoding="utf-8" standalone="no"?>
<!DOCTYPE svg PUBLIC "-//W3C//DTD SVG 1.1//EN"
  "http://www.w3.org/Graphics/SVG/1.1/DTD/svg11.dtd">
<svg xmlns:xlink="http://www.w3.org/1999/xlink" width="439.110889pt" height="846pt" viewBox="0 0 439.110889 846" xmlns="http://www.w3.org/2000/svg" version="1.1">
 <metadata>
  <rdf:RDF xmlns:dc="http://purl.org/dc/elements/1.1/" xmlns:cc="http://creativecommons.org/ns#" xmlns:rdf="http://www.w3.org/1999/02/22-rdf-syntax-ns#">
   <cc:Work>
    <dc:type rdf:resource="http://purl.org/dc/dcmitype/StillImage"/>
    <dc:date>2025-03-16T14:38:38.891536</dc:date>
    <dc:format>image/svg+xml</dc:format>
    <dc:creator>
     <cc:Agent>
      <dc:title>Matplotlib v3.10.1, https://matplotlib.org/</dc:title>
     </cc:Agent>
    </dc:creator>
   </cc:Work>
  </rdf:RDF>
 </metadata>
 <defs>
  <style type="text/css">*{stroke-linejoin: round; stroke-linecap: butt}</style>
 </defs>
 <g id="figure_1">
  <g id="patch_1">
   <path d="M -0 846 
L 439.110889 846 
L 439.110889 0 
L -0 0 
z
" style="fill: #ffffff"/>
  </g>
  <g id="axes_1">
   <g id="PatchCollection_1">
    <path d="M 328.423365 703.430634 
L 351.581239 661.240865 
L 340.818759 657.547208 
L 412.605849 648.612979 
L 408.084259 617.864075 
L 406.276465 595.257001 
L 384.574519 579.431102 
L 382.315831 548.233908 
L 381.862829 533.765507 
L 335.296351 527.435779 
L 337.555039 500.307922 
L 364.229471 497.596083 
L 360.613884 481.770184 
L 355.584511 480.753639 
L 354.96295 455.093774 
L 338.008041 450.800292 
L 340.494283 419.378954 
L 308.621919 416.439813 
L 295.735598 397.67793 
L 297.317944 385.924525 
L 298.449395 363.544753 
L 291.892458 342.973926 
L 262.748639 323.457527 
L 224.005397 273.151184 
L 210.796707 239.494709 
L 204.136528 222.529144 
L 208.253576 200.575563 
L 237.865145 188.594855 
L 223.851587 157.631277 
L 204.937182 108.502485 
L 190.748744 80.910552 
L 83.199796 45 
L 76.286778 58.922245 
L 93.376534 122.140602 
L 106.012124 167.326337 
L 124.949706 235.043379 
L 132.113455 303.151885 
L 107.885233 359.248115 
L 103.363643 379.367495 
L 82.508705 456.95323 
L 77.409801 479.452967 
L 96.617077 584.378077 
L 99.054859 597.694183 
L 99.752271 626.545747 
L 95.072657 653.556796 
L 83.621193 685.028647 
L 85.051836 727.74563 
L 26.955935 729.77872 
L 26.50504 753.0677 
L 58.377404 757.588483 
L 64.030445 771.381292 
L 82.565593 784.26805 
L 122.351793 801 
L 251.429915 793.991523 
L 307.94347 783.816603 
L 328.423365 703.430634 
" clip-path="url(#pd967e32276)" style="fill: #f29888"/>
   </g>
   <g id="LineCollection_1">
    <path d="M 199.059841 796.835029 
L 198.055768 793.161239 
" clip-path="url(#pd967e32276)" style="fill: none; stroke: #f29888; stroke-width: 0.2"/>
    <path d="M 198.055768 793.161239 
L 192.611319 770.1848 
L 186.815003 745.55095 
L 172.148279 719.288103 
L 161.463758 626.378427 
L 147.157329 494.720082 
L 143.175127 486.208886 
L 134.300506 458.137094 
" clip-path="url(#pd967e32276)" style="fill: none; stroke: #f29888; stroke-width: 0.2"/>
    <path d="M 264.733419 615.196434 
L 210.175147 622.574277 
L 184.642701 626.558375 
L 161.463758 626.378427 
" clip-path="url(#pd967e32276)" style="fill: none; stroke: #f29888; stroke-width: 0.2"/>
    <path d="M 161.463758 626.378427 
L 131.220094 631.227536 
L 130.569035 626.681497 
L 124.856999 575.001871 
L 121.350975 526.700205 
" clip-path="url(#pd967e32276)" style="fill: none; stroke: #f29888; stroke-width: 0.2"/>
    <path d="M 249.704295 493.021631 
L 255.854584 451.422216 
L 257.190413 416.180941 
L 257.055566 359.317568 
L 253.985688 339.832739 
" clip-path="url(#pd967e32276)" style="fill: none; stroke: #f29888; stroke-width: 0.2"/>
    <path d="M 253.985688 339.832739 
L 252.519227 339.728559 
L 225.819511 337.828062 
L 196.71994 340.097925 
L 182.853871 341.881614 
" clip-path="url(#pd967e32276)" style="fill: none; stroke: #f29888; stroke-width: 0.2"/>
    <path d="M 252.519227 339.728559 
L 247.652091 333.016837 
L 245.977387 301.680817 
" clip-path="url(#pd967e32276)" style="fill: none; stroke: #f29888; stroke-width: 0.2"/>
    <path d="M 239.589358 293.38625 
L 219.911525 278.098158 
L 211.719567 268.605145 
L 200.362917 246.080152 
L 188.09605 224.028705 
" clip-path="url(#pd967e32276)" style="fill: none; stroke: #f29888; stroke-width: 0.2"/>
    <path d="M 165.243689 101.143584 
L 111.793691 107.07869 
" clip-path="url(#pd967e32276)" style="fill: none; stroke: #f29888; stroke-width: 0.2"/>
    <path d="M 265.797447 620.869512 
L 294.709497 616.250862 
L 317.79784 614.820754 
L 342.752971 613.172815 
L 363.091699 613.611634 
L 379.142711 617.021163 
L 405.086019 617.570476 
" clip-path="url(#pd967e32276)" style="fill: none; stroke: #f29888; stroke-width: 0.2"/>
    <path d="M 249.704295 493.021631 
L 255.629137 506.12622 
L 256.533033 517.175621 
L 255.629137 545.244256 
L 256.351833 554.118503 
L 257.801438 578.206197 
L 264.733419 615.196434 
L 265.797447 620.869512 
L 289.492601 709.690909 
" clip-path="url(#pd967e32276)" style="fill: none; stroke: #f29888; stroke-width: 0.2"/>
    <path d="M 343.469836 452.183379 
L 305.145394 452.018883 
" clip-path="url(#pd967e32276)" style="fill: none; stroke: #f29888; stroke-width: 0.2"/>
    <path d="M 305.145394 452.018883 
L 276.945505 453.15855 
L 255.854584 451.422216 
" clip-path="url(#pd967e32276)" style="fill: none; stroke: #f29888; stroke-width: 0.2"/>
    <path d="M 186.648551 208.259632 
L 206.325097 210.858907 
" clip-path="url(#pd967e32276)" style="fill: none; stroke: #f29888; stroke-width: 0.2"/>
    <path d="M 159.871363 70.600607 
L 165.243689 101.143584 
L 186.648551 208.259632 
L 188.09605 224.028705 
L 189.339171 237.565799 
L 185.666696 279.338848 
L 182.853871 341.881614 
L 186.831859 363.257469 
L 181.705564 431.242853 
L 176.730972 479.617129 
L 182.156459 485.495411 
L 237.766117 493.634084 
L 249.704295 493.021631 
L 255.399475 492.73119 
L 301.062057 492.73119 
L 363.273141 493.410105 
" clip-path="url(#pd967e32276)" style="fill: none; stroke: #f29888; stroke-width: 0.2"/>
   </g>
  </g>
 </g>
 <defs>
  <clipPath id="pd967e32276">
   <rect x="7.2" y="7.2" width="424.710889" height="831.6"/>
  </clipPath>
 </defs>
</svg>
