<?xml version="1.0" encoding="utf-8" standalone="no"?>
<!DOCTYPE svg PUBLIC "-//W3C//DTD SVG 1.1//EN"
  "http://www.w3.org/Graphics/SVG/1.1/DTD/svg11.dtd">
<svg xmlns:xlink="http://www.w3.org/1999/xlink" width="727.532963pt" height="846pt" viewBox="0 0 727.532963 846" xmlns="http://www.w3.org/2000/svg" version="1.1">
 <metadata>
  <rdf:RDF xmlns:dc="http://purl.org/dc/elements/1.1/" xmlns:cc="http://creativecommons.org/ns#" xmlns:rdf="http://www.w3.org/1999/02/22-rdf-syntax-ns#">
   <cc:Work>
    <dc:type rdf:resource="http://purl.org/dc/dcmitype/StillImage"/>
    <dc:date>2025-03-16T14:38:40.500818</dc:date>
    <dc:format>image/svg+xml</dc:format>
    <dc:creator>
     <cc:Agent>
      <dc:title>Matplotlib v3.10.1, https://matplotlib.org/</dc:title>
     </cc:Agent>
    </dc:creator>
   </cc:Work>
  </rdf:RDF>
 </metadata>
 <defs>
  <style type="text/css">*{stroke-linejoin: round; stroke-linecap: butt}</style>
 </defs>
 <g id="figure_1">
  <g id="patch_1">
   <path d="M 0 846 
L 727.532963 846 
L 727.532963 0 
L 0 0 
z
" style="fill: #ffffff"/>
  </g>
  <g id="axes_1">
   <g id="PatchCollection_1">
    <path d="M 39.615135 498.833293 
L 41.703553 500.753755 
L 75.740552 532.059125 
L 127.599423 550.157707 
L 125.375645 567.226437 
L 341.750193 629.91862 
L 320.489814 705.943697 
L 341.49881 728.587284 
L 335.295082 756.51674 
L 367.350897 772.032812 
L 479.032052 801 
L 496.611331 696.520034 
L 510.054205 619.977405 
L 507.986882 575.499399 
L 514.190609 513.442991 
L 537.975373 440.010933 
L 517.293352 398.643497 
L 526.599822 390.370535 
L 518.720789 369.836566 
L 470.759244 293.162579 
L 471.794664 274.549072 
L 489.373942 271.446383 
L 486.271199 253.865354 
L 493.369712 232.104496 
L 609.326148 168.04093 
L 633.110912 219.743656 
L 687.917829 190.789604 
L 640.350059 146.327361 
L 640.350059 116.343457 
L 623.804442 51.205378 
L 562.793798 57.408129 
L 556.588313 45 
L 515.226029 53.272962 
L 417.527431 156.289593 
L 248.432352 238.354536 
L 242.226866 255.935565 
L 208.850848 282.606605 
L 165.704267 304.535602 
L 101.592639 329.354487 
L 82.116556 385.920108 
L 39.615135 498.833293 
" clip-path="url(#p88ea99b368)" style="fill: #f29888"/>
   </g>
   <g id="PatchCollection_2">
    <path d="M 404.898477 442.42793 
L 409.890992 443.665328 
L 409.280991 446.121733 
L 404.288476 444.884335 
L 404.898477 442.42793 
" clip-path="url(#p88ea99b368)" style="fill: #f29888"/>
    <path d="M 100.388458 425.259367 
L 105.894288 426.685921 
L 104.748119 431.115331 
L 99.240531 429.688778 
L 100.388458 425.259367 
" clip-path="url(#p88ea99b368)" style="fill: #f29888"/>
    <path d="M 165.463431 399.326562 
L 164.614352 402.439759 
L 159.667543 401.089393 
L 160.516622 397.978823 
L 165.463431 399.326562 
" clip-path="url(#p88ea99b368)" style="fill: #f29888"/>
    <path d="M 403.052653 362.196753 
L 405.94796 363.145162 
L 404.640062 367.135834 
L 400.530027 379.672695 
L 397.63472 378.724286 
L 403.052653 362.196753 
" clip-path="url(#p88ea99b368)" style="fill: #f29888"/>
    <path d="M 408.300068 363.914923 
L 406.988654 367.905596 
L 404.640062 367.135834 
L 405.94796 363.145162 
L 408.300068 363.914923 
" clip-path="url(#p88ea99b368)" style="fill: #f29888"/>
    <path d="M 332.232772 216.023582 
L 333.602198 214.681098 
L 335.736322 216.856395 
L 334.366896 218.19888 
L 332.232772 216.023582 
" clip-path="url(#p88ea99b368)" style="fill: #f29888"/>
    <path d="M 333.89753 214.026932 
L 334.665744 213.280815 
L 336.935229 215.624252 
L 336.167014 216.370369 
L 333.89753 214.026932 
" clip-path="url(#p88ea99b368)" style="fill: #f29888"/>
    <path d="M 335.98419 212.702838 
L 337.321973 211.494339 
L 339.25921 213.635483 
L 337.921426 214.843982 
L 335.98419 212.702838 
" clip-path="url(#p88ea99b368)" style="fill: #f29888"/>
    <path d="M 341.194688 207.424851 
L 341.93126 206.744414 
L 344.123396 209.116749 
L 343.386824 209.797187 
L 341.194688 207.424851 
" clip-path="url(#p88ea99b368)" style="fill: #f29888"/>
    <path d="M 342.859446 205.987789 
L 343.959909 204.863359 
L 346.213572 207.070183 
L 345.113109 208.194612 
L 342.859446 205.987789 
" clip-path="url(#p88ea99b368)" style="fill: #f29888"/>
    <path d="M 414.243622 427.928573 
L 419.807463 429.767593 
L 418.545271 433.590127 
L 412.98143 431.751107 
L 414.243622 427.928573 
" clip-path="url(#p88ea99b368)" style="fill: #f29888"/>
    <path d="M 406.988654 367.905596 
L 408.300068 363.914923 
L 409.701136 359.635261 
L 415.778293 361.626657 
L 412.527884 371.546855 
L 406.447212 369.552832 
L 406.988654 367.905596 
" clip-path="url(#p88ea99b368)" style="fill: #f29888"/>
    <path d="M 442.58845 220.410958 
L 444.413179 226.461333 
L 442.126115 227.152279 
L 440.301386 221.099276 
L 442.58845 220.410958 
" clip-path="url(#p88ea99b368)" style="fill: #f29888"/>
    <path d="M 446.042779 215.248567 
L 450.103592 215.569081 
L 449.975263 217.184792 
L 445.91445 216.86165 
L 446.042779 215.248567 
" clip-path="url(#p88ea99b368)" style="fill: #f29888"/>
    <path d="M 455.910028 207.913505 
L 457.40954 207.430105 
L 457.915823 208.998527 
L 456.414553 209.481926 
L 455.910028 207.913505 
" clip-path="url(#p88ea99b368)" style="fill: #f29888"/>
    <path d="M 453.102617 201.805332 
L 465.817709 197.830422 
L 467.202956 202.259833 
L 454.486106 206.234743 
L 453.102617 201.805332 
" clip-path="url(#p88ea99b368)" style="fill: #f29888"/>
    <path d="M 433.568523 200.520646 
L 446.489292 195.89157 
L 447.535259 198.80773 
L 447.595029 198.978496 
L 434.674259 203.607572 
L 433.568523 200.520646 
" clip-path="url(#p88ea99b368)" style="fill: #f29888"/>
    <path d="M 448.463445 193.868648 
L 447.319034 190.674008 
L 449.620162 189.851704 
L 451.019472 193.758307 
L 456.757349 191.701232 
L 455.189277 187.32962 
L 451.525756 188.643205 
L 449.978779 184.324136 
L 454.591582 182.671645 
L 455.073254 184.016757 
L 464.43422 180.661859 
L 465.564567 183.819719 
L 456.713401 186.993342 
L 457.950982 190.448072 
L 459.251848 189.983062 
L 459.854818 191.661825 
L 462.42315 190.742315 
L 462.164735 190.017216 
L 464.413125 189.210674 
L 465.539956 192.358025 
L 447.535259 198.80773 
L 446.489292 195.89157 
L 446.070905 194.725106 
L 448.463445 193.868648 
" clip-path="url(#p88ea99b368)" style="fill: #f29888"/>
    <path d="M 467.514109 187.19038 
L 469.423219 186.559858 
L 470.775065 190.655618 
L 468.865956 191.286139 
L 467.514109 187.19038 
" clip-path="url(#p88ea99b368)" style="fill: #f29888"/>
    <path d="M 496.25623 119.559115 
L 504.270623 115.82065 
L 508.934405 125.811782 
L 500.920012 129.552874 
L 496.25623 119.559115 
" clip-path="url(#p88ea99b368)" style="fill: #f29888"/>
    <path d="M 346.479019 202.506787 
L 347.7166 201.056588 
L 350.279659 203.242395 
L 349.04032 204.692593 
L 346.479019 202.506787 
" clip-path="url(#p88ea99b368)" style="fill: #f29888"/>
    <path d="M 349.168649 201.697618 
L 349.790955 200.990909 
L 351.262341 202.286104 
L 350.640034 202.992814 
L 349.168649 201.697618 
" clip-path="url(#p88ea99b368)" style="fill: #f29888"/>
    <path d="M 350.515222 200.286827 
L 352.20459 198.597556 
L 353.586322 199.979448 
L 351.898711 201.668719 
L 350.515222 200.286827 
" clip-path="url(#p88ea99b368)" style="fill: #f29888"/>
    <path d="M 353.514246 195.796992 
L 354.641078 194.614765 
L 356.942206 196.805826 
L 355.817132 197.988053 
L 353.514246 195.796992 
" clip-path="url(#p88ea99b368)" style="fill: #f29888"/>
    <path d="M 360.512557 190.053996 
L 362.762705 187.852427 
L 364.916166 190.051369 
L 362.666019 192.252938 
L 360.512557 190.053996 
" clip-path="url(#p88ea99b368)" style="fill: #f29888"/>
    <path d="M 514.456056 113.781966 
L 518.182864 112.084813 
L 522.746444 122.104844 
L 519.019637 123.801996 
L 514.456056 113.781966 
" clip-path="url(#p88ea99b368)" style="fill: #f29888"/>
    <path d="M 522.633937 108.236008 
L 524.912211 107.190393 
L 530.057666 118.400532 
L 527.779392 119.446146 
L 522.633937 108.236008 
" clip-path="url(#p88ea99b368)" style="fill: #f29888"/>
    <path d="M 537.85935 103.520235 
L 543.358148 100.88781 
L 552.09505 119.138767 
L 546.596251 121.771193 
L 537.85935 103.520235 
" clip-path="url(#p88ea99b368)" style="fill: #f29888"/>
    <path d="M 559.434398 104.98357 
L 562.194345 103.817106 
L 563.027603 105.790111 
L 560.269414 106.956575 
L 559.434398 104.98357 
" clip-path="url(#p88ea99b368)" style="fill: #f29888"/>
   </g>
   <g id="LineCollection_1">
    <path d="M 126.596807 567.580256 
L 127.768184 563.4906 
L 135.355401 536.070815 
L 142.082991 512.355342 
L 142.821321 509.468081 
L 148.225191 492.068327 
L 150.150122 486.012698 
L 153.372403 476.087246 
L 162.603283 446.434366 
L 168.414992 426.840924 
L 171.480818 417.291157 
L 172.110156 413.752358 
L 171.14857 409.328202 
L 168.089775 407.218583 
L 154.889495 403.107061 
L 97.637301 386.884279 
L 89.081466 384.131004 
L 83.417833 382.140728 
" clip-path="url(#p88ea99b368)" style="fill: none; stroke: #f29888; stroke-width: 0.5"/>
    <path d="M 135.355401 536.070815 
L 289.158266 577.863853 
L 310.332507 583.415065 
L 314.101504 584.239997 
L 322.073707 586.433685 
L 333.969605 590.080198 
L 343.573165 593.603235 
L 348.430319 595.347676 
L 350.552138 596.385409 
L 352.301276 597.735775 
L 352.768885 599.451317 
L 351.070727 603.836066 
L 348.948908 610.485436 
L 345.322303 624.0863 
" clip-path="url(#p88ea99b368)" style="fill: none; stroke: #f29888; stroke-width: 0.2"/>
    <path d="M 142.082991 512.355342 
L 158.992499 518.016896 
L 174.010476 526.032395 
L 177.935929 525.4334 
L 180.644896 525.020934 
L 218.145013 536.538452 
L 243.297444 542.898833 
L 255.736542 547.782744 
L 258.408592 547.320362 
L 260.068076 543.818343 
L 269.033508 509.302569 
" clip-path="url(#p88ea99b368)" style="fill: none; stroke: #f29888; stroke-width: 0.2"/>
    <path d="M 96.615945 487.328911 
L 100.115979 506.956506 
L 94.495884 531.194786 
" clip-path="url(#p88ea99b368)" style="fill: none; stroke: #f29888; stroke-width: 0.2"/>
    <path d="M 142.821321 509.468081 
L 122.782701 510.182672 
L 100.115979 506.956506 
" clip-path="url(#p88ea99b368)" style="fill: none; stroke: #f29888; stroke-width: 0.2"/>
    <path d="M 196.462731 488.303591 
L 192.878316 492.914276 
L 186.700957 508.430349 
L 181.09141 520.265754 
L 177.935929 525.4334 
" clip-path="url(#p88ea99b368)" style="fill: none; stroke: #f29888; stroke-width: 0.2"/>
    <path d="M 150.150122 486.012698 
L 171.53883 493.933619 
" clip-path="url(#p88ea99b368)" style="fill: none; stroke: #f29888; stroke-width: 0.2"/>
    <path d="M 369.427009 631.21907 
L 364.320229 648.689758 
L 357.059987 676.138441 
L 350.930093 697.64709 
L 347.440606 710.144543 
L 344.329073 721.945795 
L 336.088993 752.94252 
" clip-path="url(#p88ea99b368)" style="fill: none; stroke: #f29888; stroke-width: 0.2"/>
    <path d="M 401.238472 640.729429 
L 384.299079 701.356656 
" clip-path="url(#p88ea99b368)" style="fill: none; stroke: #f29888; stroke-width: 0.2"/>
    <path d="M 295.087757 614.859676 
L 294.753044 616.301705 
" clip-path="url(#p88ea99b368)" style="fill: none; stroke: #f29888; stroke-width: 0.2"/>
    <path d="M 127.768184 563.4906 
L 130.171272 565.103683 
L 133.131622 566.343708 
L 209.761455 587.418874 
L 284.598201 607.309186 
L 345.322303 624.0863 
L 355.314365 626.991952 
L 369.427009 631.21907 
" clip-path="url(#p88ea99b368)" style="fill: none; stroke: #f29888; stroke-width: 0.2"/>
    <path d="M 387.992485 579.624057 
L 383.038645 576.432045 
L 381.031091 575.625503 
L 379.274921 575.139476 
L 367.637439 573.426561 
L 359.784775 571.850258 
L 339.018373 567.504917 
L 320.683186 563.38814 
L 319.651282 563.2489 
L 318.82154 563.390767 
L 317.94785 564.110612 
L 317.353671 565.390045 
L 314.101504 584.239997 
" clip-path="url(#p88ea99b368)" style="fill: none; stroke: #f29888; stroke-width: 0.2"/>
    <path d="M 435.774722 478.929845 
L 431.321891 492.961565 
L 428.540849 503.478131 
L 427.656611 506.530904 
L 425.329115 513.048915 
L 422.788909 518.805047 
L 419.865475 524.700419 
L 414.159241 534.885961 
L 402.40222 555.22552 
L 396.339127 564.940798 
L 389.499029 576.623828 
L 388.366924 578.793871 
L 387.992485 579.624057 
L 386.858622 582.140887 
L 384.515304 588.256942 
L 381.247316 597.281274 
L 377.239241 609.353125 
L 373.797218 619.25756 
L 369.427009 631.21907 
" clip-path="url(#p88ea99b368)" style="fill: none; stroke: #f29888; stroke-width: 0.2"/>
    <path d="M 507.934144 619.882827 
L 456.396974 587.363703 
L 445.798427 580.774758 
L 402.40222 555.22552 
L 373.085257 538.056957 
L 370.051074 536.280989 
L 303.791257 518.996831 
L 269.033508 509.302569 
L 254.409306 499.345591 
L 227.342491 495.738485 
L 196.462731 488.303591 
L 204.983407 459.226062 
" clip-path="url(#p88ea99b368)" style="fill: none; stroke: #f29888; stroke-width: 0.2"/>
    <path d="M 162.603283 446.434366 
L 204.983407 459.226062 
L 209.566325 460.171843 
L 230.09189 465.360506 
L 299.695286 481.793461 
L 309.747117 484.165797 
L 343.112587 492.84597 
L 347.6832 494.159555 
L 381.09965 511.081164 
L 383.515043 513.09095 
L 382.284494 517.113149 
L 373.085257 538.056957 
" clip-path="url(#p88ea99b368)" style="fill: none; stroke: #f29888; stroke-width: 0.2"/>
    <path d="M 299.695286 481.793461 
L 299.014967 477.82906 
L 302.42359 465.021601 
L 302.147595 463.45318 
L 300.948688 462.347141 
L 298.46122 461.472293 
L 277.223694 457.60247 
L 241.428767 449.35578 
L 234.692388 447.275061 
" clip-path="url(#p88ea99b368)" style="fill: none; stroke: #f29888; stroke-width: 0.2"/>
    <path d="M 209.566325 460.171843 
L 220.915507 413.087684 
L 234.337286 360.940965 
L 247.672927 307.131247 
L 340.9644 325.89713 
L 339.183619 332.885405 
L 326.895703 381.217471 
L 321.852208 433.311646 
L 318.367995 451.29726 
L 309.747117 484.165797 
L 303.791257 518.996831 
L 289.158266 577.863853 
L 286.992499 591.244035 
L 284.598201 607.309186 
" clip-path="url(#p88ea99b368)" style="fill: none; stroke: #f29888; stroke-width: 0.2"/>
    <path d="M 422.968218 466.382476 
L 420.995823 476.360472 
L 418.807202 476.126653 
L 416.985989 475.890208 
L 414.994257 475.514522 
L 391.058311 469.253974 
L 385.450522 467.467497 
L 383.699625 466.818586 
L 382.085848 466.030435 
L 380.264634 465.331607 
L 375.919037 464.004886 
L 341.978724 454.662666 
L 341.215783 454.152994 
L 340.723563 453.509338 
L 340.653246 452.584573 
L 341.15074 450.157067 
L 341.929502 447.306587 
L 344.397633 438.17454 
L 346.357722 432.415781 
L 346.914985 431.002363 
L 347.718358 429.554792 
L 348.662366 428.107221 
" clip-path="url(#p88ea99b368)" style="fill: none; stroke: #f29888; stroke-width: 0.2"/>
    <path d="M 321.852208 433.311646 
L 324.794979 432.883418 
L 327.389681 432.389509 
L 336.571338 430.211585 
L 339.761977 429.462841 
L 342.534229 428.855964 
L 345.099046 428.317394 
L 346.825331 428.130865 
L 348.662366 428.107221 
L 349.952685 428.254342 
L 351.494387 428.538077 
L 365.510346 431.343895 
L 389.370701 436.524677 
L 398.216594 438.300644 
L 400.002648 438.371578 
L 401.45997 438.019537 
L 402.674699 437.420542 
L 405.763378 435.581522 
L 407.090613 434.68303 
L 408.169981 434.013101 
L 409.205401 433.506057 
L 410.126555 433.28012 
" clip-path="url(#p88ea99b368)" style="fill: none; stroke: #f29888; stroke-width: 0.2"/>
    <path d="M 171.14857 409.328202 
L 175.314859 406.409415 
L 178.795556 404.49158 
L 183.290577 404.604548 
L 195.425553 407.405113 
L 203.288765 409.160063 
L 220.915507 413.087684 
L 240.969948 417.204461 
L 310.585648 432.247642 
L 314.808191 433.009522 
L 318.473471 433.40097 
L 321.852208 433.311646 
" clip-path="url(#p88ea99b368)" style="fill: none; stroke: #f29888; stroke-width: 0.2"/>
    <path d="M 410.666239 430.264128 
L 394.050305 424.983514 
L 390.942288 424.158582 
L 387.667269 423.559587 
L 385.042682 423.333651 
L 376.131746 423.144494 
L 368.184154 421.689042 
L 366.559829 421.163607 
L 365.786341 420.062823 
L 365.640433 418.641523 
L 366.536976 415.055435 
L 374.646297 389.451026 
L 355.794279 383.292937 
" clip-path="url(#p88ea99b368)" style="fill: none; stroke: #f29888; stroke-width: 0.2"/>
    <path d="M 245.653068 396.788714 
L 297.770355 407.888512 
" clip-path="url(#p88ea99b368)" style="fill: none; stroke: #f29888; stroke-width: 0.2"/>
    <path d="M 342.534229 428.855964 
L 353.192546 391.290045 
L 355.794279 383.292937 
L 369.507874 341.400067 
L 370.237414 337.627449 
L 372.24321 321.05 
" clip-path="url(#p88ea99b368)" style="fill: none; stroke: #f29888; stroke-width: 0.2"/>
    <path d="M 234.337286 360.940965 
L 252.983627 365.428173 
L 326.895703 381.217471 
" clip-path="url(#p88ea99b368)" style="fill: none; stroke: #f29888; stroke-width: 0.2"/>
    <path d="M 339.183619 332.885405 
L 351.851247 327.247496 
L 355.460273 316.912205 
L 372.24321 321.05 
L 435.482906 336.64226 
" clip-path="url(#p88ea99b368)" style="fill: none; stroke: #f29888; stroke-width: 0.2"/>
    <path d="M 148.225191 492.068327 
L 145.416022 491.374754 
L 135.837073 492.861733 
L 132.489979 492.583253 
L 120.386645 489.081234 
L 106.013827 486.03897 
L 96.615945 487.328911 
L 92.838158 488.342999 
L 58.838076 480.416824 
L 57.711244 480.201396 
L 47.373648 478.221312 
" clip-path="url(#p88ea99b368)" style="fill: none; stroke: #f29888; stroke-width: 0.2"/>
    <path d="M 203.288765 409.160063 
L 195.49587 442.096906 
" clip-path="url(#p88ea99b368)" style="fill: none; stroke: #f29888; stroke-width: 0.2"/>
    <path d="M 230.09189 465.360506 
L 234.692388 447.275061 
L 240.969948 417.204461 
L 245.653068 396.788714 
L 252.983627 365.428173 
" clip-path="url(#p88ea99b368)" style="fill: none; stroke: #f29888; stroke-width: 0.2"/>
    <path d="M 107.769997 348.997845 
L 103.433189 365.218 
L 97.637301 386.884279 
L 92.671155 405.479396 
L 88.295673 421.935996 
L 86.646736 428.968933 
L 86.977227 433.117236 
L 83.81823 439.672028 
L 79.527128 452.027613 
L 75.566517 463.771068 
L 73.632796 465.796617 
L 68.116419 468.013949 
L 62.740675 473.202612 
L 57.711244 480.201396 
" clip-path="url(#p88ea99b368)" style="fill: none; stroke: #f29888; stroke-width: 0.2"/>
    <path d="M 92.671155 405.479396 
L 129.009281 416.195627 
L 138.839614 419.156449 
" clip-path="url(#p88ea99b368)" style="fill: none; stroke: #f29888; stroke-width: 0.2"/>
    <path d="M 202.502971 377.145356 
L 195.425553 407.405113 
" clip-path="url(#p88ea99b368)" style="fill: none; stroke: #f29888; stroke-width: 0.2"/>
    <path d="M 112.1279 343.974694 
L 124.663684 347.192979 
L 173.989381 361.303515 
L 174.984368 372.180003 
L 165.319281 385.893836 
L 156.476904 399.465802 
L 154.889495 403.107061 
L 138.839614 419.156449 
" clip-path="url(#p88ea99b368)" style="fill: none; stroke: #f29888; stroke-width: 0.2"/>
    <path d="M 175.314859 406.409415 
L 177.373392 397.521695 
L 190.919984 373.412146 
L 202.72447 356.913512 
L 206.523352 353.301152 
L 209.888026 354.225916 
L 234.337286 360.940965 
" clip-path="url(#p88ea99b368)" style="fill: none; stroke: #f29888; stroke-width: 0.2"/>
    <path d="M 156.476904 399.465802 
L 154.261915 394.918168 
L 155.478401 382.386563 
L 158.378982 370.133437 
L 116.918254 357.417929 
" clip-path="url(#p88ea99b368)" style="fill: none; stroke: #f29888; stroke-width: 0.2"/>
    <path d="M 327.952218 243.130733 
L 326.387662 244.333977 
L 322.815553 246.832417 
L 307.41962 254.485366 
L 275.625737 267.397912 
L 262.66102 272.662763 
L 230.997223 288.102647 
L 225.661912 292.518922 
L 212.950336 307.974569 
L 200.963026 328.040902 
L 183.631615 355.928323 
L 174.984368 372.180003 
" clip-path="url(#p88ea99b368)" style="fill: none; stroke: #f29888; stroke-width: 0.2"/>
    <path d="M 275.625737 267.397912 
L 278.587846 276.151646 
L 281.295055 278.642204 
L 302.202091 283.951717 
L 332.965828 293.916577 
L 353.871106 299.12363 
L 362.539448 301.283165 
L 397.527486 309.624433 
L 426.343439 317.965701 
L 440.048245 322.78656 
" clip-path="url(#p88ea99b368)" style="fill: none; stroke: #f29888; stroke-width: 0.2"/>
    <path d="M 359.521086 264.153356 
L 358.134081 266.982819 
L 356.342752 271.414857 
L 355.966556 274.149742 
L 355.588601 279.052043 
L 354.363326 286.878386 
L 353.702345 290.369896 
L 353.607417 293.010203 
L 353.871106 299.12363 
" clip-path="url(#p88ea99b368)" style="fill: none; stroke: #f29888; stroke-width: 0.2"/>
    <path d="M 307.41962 254.485366 
L 312.097466 254.262057 
L 320.53552 254.075528 
L 328.268645 254.451213 
L 349.202049 260.953462 
L 358.633332 263.882757 
L 359.521086 264.153356 
L 376.803275 269.423461 
L 389.590442 273.571764 
L 396.898148 276.34343 
L 410.710187 281.290393 
L 423.191475 286.040318 
L 428.637535 288.34172 
L 435.757143 291.948826 
L 438.634871 293.383261 
L 440.498274 294.216074 
L 442.25796 294.838714 
L 444.726091 295.527033 
" clip-path="url(#p88ea99b368)" style="fill: none; stroke: #f29888; stroke-width: 0.2"/>
    <path d="M 389.590442 273.571764 
L 395.342382 239.733801 
" clip-path="url(#p88ea99b368)" style="fill: none; stroke: #f29888; stroke-width: 0.2"/>
    <path d="M 357.256875 216.249519 
L 358.163966 219.475685 
L 358.308116 222.64668 
L 357.731515 227.979838 
L 357.299065 233.024006 
L 356.434165 237.781813 
L 354.271913 244.843649 
L 349.202049 260.953462 
" clip-path="url(#p88ea99b368)" style="fill: none; stroke: #f29888; stroke-width: 0.2"/>
    <path d="M 359.934199 213.793114 
L 351.698307 205.449218 
" clip-path="url(#p88ea99b368)" style="fill: none; stroke: #f29888; stroke-width: 0.2"/>
    <path d="M 405.457498 172.170843 
L 359.934199 213.793114 
L 357.256875 216.249519 
L 327.952218 243.130733 
" clip-path="url(#p88ea99b368)" style="fill: none; stroke: #f29888; stroke-width: 0.2"/>
    <path d="M 327.952218 243.130733 
L 328.58683 240.540342 
L 328.854035 238.317756 
L 328.783718 235.937539 
L 328.590345 233.404946 
L 328.639567 229.414273 
L 328.91732 227.790681 
L 329.314612 226.227514 
L 329.987898 225.050542 
L 331.214932 223.66865 
L 351.698307 205.449218 
L 383.121267 177.501373 
L 393.563359 168.639925 
L 395.980509 166.89811 
L 397.383336 166.264962 
L 397.880829 166.199283 
L 398.557632 166.2203 
L 399.575472 166.333268 
L 400.322591 166.490899 
L 400.842938 166.695818 
L 401.407233 167.147691 
L 403.940407 170.563014 
L 405.457498 172.170843 
L 406.20286 172.958994 
L 407.920355 174.611484 
L 409.597418 176.009139 
" clip-path="url(#p88ea99b368)" style="fill: none; stroke: #f29888; stroke-width: 0.2"/>
    <path d="M 400.190038 164.703748 
L 400.573975 165.424267 
L 400.842938 166.695818 
" clip-path="url(#p88ea99b368)" style="fill: none; stroke: #f29888; stroke-width: 0.2"/>
    <path d="M 165.319281 385.893836 
L 155.478401 382.386563 
L 103.433189 365.218 
" clip-path="url(#p88ea99b368)" style="fill: none; stroke: #f29888; stroke-width: 0.2"/>
    <path d="M 209.888026 354.225916 
L 205.178537 373.409519 
" clip-path="url(#p88ea99b368)" style="fill: none; stroke: #f29888; stroke-width: 0.2"/>
    <path d="M 182.594438 339.403417 
L 145.804524 329.401776 
" clip-path="url(#p88ea99b368)" style="fill: none; stroke: #f29888; stroke-width: 0.2"/>
    <path d="M 206.523352 353.301152 
L 216.504866 335.969704 
L 235.94579 312.104482 
L 241.938566 305.016375 
" clip-path="url(#p88ea99b368)" style="fill: none; stroke: #f29888; stroke-width: 0.2"/>
    <path d="M 247.672927 307.131247 
L 241.938566 305.016375 
" clip-path="url(#p88ea99b368)" style="fill: none; stroke: #f29888; stroke-width: 0.2"/>
    <path d="M 241.938566 305.016375 
L 240.432022 304.459414 
L 225.661912 292.518922 
L 215.332328 277.903969 
L 215.023654 277.673867 
" clip-path="url(#p88ea99b368)" style="fill: none; stroke: #f29888; stroke-width: 0.2"/>
    <path d="M 196.426756 288.921077 
L 196.058407 290.451338 
L 194.469241 306.939464 
L 186.971678 330.56824 
L 182.594438 339.403417 
L 179.864376 344.912594 
L 175.515263 355.915187 
L 173.989381 361.303515 
" clip-path="url(#p88ea99b368)" style="fill: none; stroke: #f29888; stroke-width: 0.2"/>
    <path d="M 560.159142 52.140022 
L 567.241356 68.284617 
L 581.18524 99.884231 
L 596.113563 132.051313 
L 602.085244 145.360562 
L 613.399267 169.217902 
L 636.639166 217.879708 
" clip-path="url(#p88ea99b368)" style="fill: none; stroke: #f29888; stroke-width: 0.5"/>
    <path d="M 481.788483 476.880651 
L 489.913626 479.494687 
L 493.213256 481.357351 
L 503.94189 485.455738 
" clip-path="url(#p88ea99b368)" style="fill: none; stroke: #f29888; stroke-width: 0.2"/>
    <path d="M 498.785888 507.523975 
L 502.718372 492.275874 
L 503.94189 485.455738 
L 508.308583 474.59764 
L 513.464585 463.83412 
L 516.025886 457.192631 
L 518.082662 446.670811 
L 517.826004 445.764437 
L 517.270499 445.24163 
L 516.322976 444.978913 
L 514.645913 445.202223 
L 511.662709 445.751301 
L 509.472331 445.872151 
L 505.761345 445.811726 
L 502.169899 445.690876 
L 499.796696 445.506975 
L 497.727615 445.265275 
L 495.173346 444.900098 
L 493.042737 444.595346 
L 491.581899 444.230169 
L 489.695643 443.376339 
L 488.721751 442.525135 
L 487.725006 441.377062 
" clip-path="url(#p88ea99b368)" style="fill: none; stroke: #f29888; stroke-width: 0.2"/>
    <path d="M 381.077291 775.593082 
L 409.344277 781.104434 
L 438.825613 790.571495 
" clip-path="url(#p88ea99b368)" style="fill: none; stroke: #f29888; stroke-width: 0.2"/>
    <path d="M 409.344277 781.104434 
L 414.27878 757.901259 
L 420.691701 738.846387 
L 423.710063 734.317144 
L 434.271694 721.299511 
L 443.325022 713.562493 
L 450.86829 708.092722 
L 453.886653 704.69579 
L 454.640804 702.998638 
L 455.584811 694.131935 
L 456.905015 688.659538 
L 459.355566 684.697764 
L 462.751883 682.057457 
L 465.39229 679.981992 
L 466.260707 678.613236 
L 468.032698 675.831062 
L 470.483249 670.926133 
L 471.89135 666.541385 
" clip-path="url(#p88ea99b368)" style="fill: none; stroke: #f29888; stroke-width: 0.2"/>
    <path d="M 410.63108 724.583475 
L 424.80701 676.669129 
L 429.330159 661.449927 
L 430.42359 657.824431 
L 431.274427 656.132533 
L 432.795034 653.954608 
" clip-path="url(#p88ea99b368)" style="fill: none; stroke: #f29888; stroke-width: 0.2"/>
    <path d="M 424.80701 676.669129 
L 438.096945 680.538952 
L 439.454065 679.79809 
L 441.057295 677.207699 
L 442.758969 671.11529 
" clip-path="url(#p88ea99b368)" style="fill: none; stroke: #f29888; stroke-width: 0.2"/>
    <path d="M 466.260707 678.613236 
L 445.211279 672.43413 
L 442.758969 671.11529 
L 441.626864 669.41551 
L 444.080931 658.055622 
" clip-path="url(#p88ea99b368)" style="fill: none; stroke: #f29888; stroke-width: 0.2"/>
    <path d="M 369.427009 631.21907 
L 372.948139 632.099172 
L 378.135784 633.59666 
L 401.238472 640.729429 
L 403.18274 641.281135 
L 423.105336 646.346321 
L 425.79145 647.021504 
L 427.466755 647.644143 
L 428.778169 648.392887 
L 429.938402 649.399094 
L 430.580045 650.292332 
L 431.133793 651.314301 
L 432.112958 653.127049 
L 432.795034 653.954608 
L 433.881434 654.724369 
L 435.829218 655.528284 
L 440.55277 657.010008 
L 444.080931 658.055622 
L 471.89135 666.541385 
L 474.389365 667.200805 
L 478.149573 667.508184 
L 486.547194 667.114108 
L 488.410598 667.182415 
L 490.166767 667.460895 
L 491.699681 667.757765 
L 494.818245 668.582697 
L 499.575197 670.124846 
L 501.142755 670.718473 
" clip-path="url(#p88ea99b368)" style="fill: none; stroke: #f29888; stroke-width: 0.2"/>
    <path d="M 403.18274 641.281135 
L 410.984424 614.84654 
L 416.725816 597.890778 
" clip-path="url(#p88ea99b368)" style="fill: none; stroke: #f29888; stroke-width: 0.2"/>
    <path d="M 429.938402 649.399094 
L 432.183275 645.481982 
L 441.864184 615.424517 
L 443.121102 611.667663 
L 444.494044 608.767266 
L 452.19201 594.887921 
L 456.396974 587.363703 
L 469.860943 564.643928 
L 473.220343 553.691252 
L 476.331875 539.751482 
L 479.940901 523.061064 
L 480.130757 520.181685 
L 480.197559 517.423155 
L 480.150095 513.245953 
L 479.872342 510.492678 
L 479.561189 508.086189 
L 479.209603 505.209437 
L 478.552138 502.090985 
L 477.300494 498.223789 
L 476.375824 495.848826 
" clip-path="url(#p88ea99b368)" style="fill: none; stroke: #f29888; stroke-width: 0.2"/>
    <path d="M 427.656611 506.530904 
L 428.860792 507.290156 
L 429.706355 508.00212 
L 431.038864 509.205364 
L 439.881241 516.049145 
L 447.445605 520.88314 
L 449.108605 521.826294 
L 450.507915 522.435798 
L 452.698293 523.226576 
" clip-path="url(#p88ea99b368)" style="fill: none; stroke: #f29888; stroke-width: 0.2"/>
    <path d="M 476.375824 495.848826 
L 470.068378 492.617406 
L 449.208807 481.454556 
L 447.261023 480.682168 
L 445.590991 480.093682 
L 444.226839 479.930797 
L 442.955857 479.972832 
L 441.389544 480.172497 
L 439.715996 480.091054 
L 435.774722 478.929845 
" clip-path="url(#p88ea99b368)" style="fill: none; stroke: #f29888; stroke-width: 0.2"/>
    <path d="M 437.341036 470.751461 
L 437.360373 471.184945 
L 437.288298 471.710379 
L 437.043946 473.257782 
L 436.815415 474.608148 
L 436.520083 475.892835 
L 435.774722 478.929845 
" clip-path="url(#p88ea99b368)" style="fill: none; stroke: #f29888; stroke-width: 0.2"/>
    <path d="M 421.350924 465.384151 
L 421.920493 465.84916 
L 422.968218 466.382476 
L 435.463569 469.632286 
L 436.194867 469.881868 
L 436.662476 470.12094 
L 437.04043 470.407302 
L 437.341036 470.751461 
" clip-path="url(#p88ea99b368)" style="fill: none; stroke: #f29888; stroke-width: 0.2"/>
    <path d="M 421.350924 465.384151 
L 417.921207 464.950668 
L 401.605879 460.839145 
L 386.155451 456.759148 
" clip-path="url(#p88ea99b368)" style="fill: none; stroke: #f29888; stroke-width: 0.2"/>
    <path d="M 437.341036 470.751461 
L 437.929942 469.847714 
L 438.360634 469.077953 
L 439.00052 467.488515 
L 439.429454 466.00679 
L 441.343837 458.606049 
L 444.810471 444.82391 
L 445.295659 441.836817 
L 445.455631 440.221106 
L 445.13393 439.088796 
L 441.744645 436.926634 
" clip-path="url(#p88ea99b368)" style="fill: none; stroke: #f29888; stroke-width: 0.2"/>
    <path d="M 413.079874 437.452068 
L 413.280277 439.593212 
L 413.093937 441.22994 
L 412.909355 443.129385 
L 412.589412 446.24521 
L 412.585896 447.87931 
L 412.953303 449.752483 
L 413.742612 452.261431 
L 415.783567 456.953559 
L 417.508094 460.705159 
L 418.640199 462.386549 
L 419.772305 463.855137 
L 420.874526 464.997957 
L 421.350924 465.384151 
" clip-path="url(#p88ea99b368)" style="fill: none; stroke: #f29888; stroke-width: 0.2"/>
    <path d="M 420.071153 438.631668 
L 421.377293 440.176444 
L 425.128711 444.16449 
L 425.550614 445.302055 
L 425.404706 446.678693 
L 424.891391 448.268131 
L 424.247989 449.140352 
L 422.022452 451.33404 
L 419.958645 453.404251 
L 415.783567 456.953559 
" clip-path="url(#p88ea99b368)" style="fill: none; stroke: #f29888; stroke-width: 0.2"/>
    <path d="M 413.079874 437.452068 
L 417.17233 438.442512 
L 419.07265 438.652685 
L 420.071153 438.631668 
L 421.027465 438.495055 
L 424.567932 437.596562 
L 427.895689 436.803157 
L 429.850505 436.485269 
L 431.699845 436.275095 
L 435.34403 436.54044 
L 440.336545 436.879345 
L 441.744645 436.926634 
" clip-path="url(#p88ea99b368)" style="fill: none; stroke: #f29888; stroke-width: 0.2"/>
    <path d="M 410.126555 433.28012 
L 410.963328 433.873861 
L 411.907336 434.956256 
L 412.527884 436.051786 
L 413.079874 437.452068 
" clip-path="url(#p88ea99b368)" style="fill: none; stroke: #f29888; stroke-width: 0.2"/>
    <path d="M 418.137432 394.660706 
L 405.610438 391.208603 
" clip-path="url(#p88ea99b368)" style="fill: none; stroke: #f29888; stroke-width: 0.2"/>
    <path d="M 467.705723 394.36909 
L 464.297101 391.579034 
L 462.808136 390.278584 
L 461.929172 389.690098 
L 460.855079 388.975508 
L 458.344758 387.953538 
L 455.832679 387.767009 
L 452.299244 387.302 
L 450.159846 386.742412 
L 448.670881 385.906972 
L 446.997333 384.511944 
L 445.787879 383.022338 
L 445.323786 381.721888 
L 445.126898 379.5282 
" clip-path="url(#p88ea99b368)" style="fill: none; stroke: #f29888; stroke-width: 0.2"/>
    <path d="M 483.607939 459.063177 
L 481.781452 459.107839 
L 478.154846 460.318965 
L 473.87605 461.992473 
L 472.293915 462.830541 
L 471.270801 463.85251 
L 470.156275 465.342116 
L 468.94682 468.875661 
L 467.180103 476.502339 
L 466.434742 477.061926 
L 464.761194 477.340406 
L 460.948249 476.31581 
" clip-path="url(#p88ea99b368)" style="fill: none; stroke: #f29888; stroke-width: 0.2"/>
    <path d="M 513.464585 463.83412 
L 511.420115 463.279787 
L 499.554102 460.053621 
L 490.608007 457.192631 
L 487.930683 456.76703 
L 485.92313 456.88788 
L 484.054452 457.423822 
" clip-path="url(#p88ea99b368)" style="fill: none; stroke: #f29888; stroke-width: 0.2"/>
    <path d="M 492.49778 380.163976 
L 493.079654 382.06342 
L 494.294382 385.129329 
L 496.354673 388.668129 
L 498.520441 391.996754 
L 499.893382 394.797319 
L 500.527994 397.174908 
L 500.686208 399.870386 
L 500.317043 403.619359 
L 498.204014 414.608816 
L 496.407411 420.632919 
L 494.981732 425.017667 
L 493.712508 427.29017 
L 492.655993 428.664181 
L 490.994751 431.82204 
L 489.379216 435.295161 
L 487.844545 440.623064 
L 487.725006 441.377062 
L 487.118521 445.147052 
L 484.054452 457.423822 
L 483.607939 459.063177 
L 483.280964 461.556363 
L 482.788744 467.8642 
L 481.788483 476.880651 
L 479.791477 487.893752 
L 479.517241 489.690737 
L 478.757816 491.976376 
L 476.375824 495.848826 
" clip-path="url(#p88ea99b368)" style="fill: none; stroke: #f29888; stroke-width: 0.2"/>
    <path d="M 441.744645 436.926634 
L 443.571132 436.805784 
L 446.552578 436.256705 
L 448.92578 435.405502 
L 450.750509 434.491246 
L 452.881118 432.728414 
L 454.401725 431.14423 
L 456.045388 429.775474 
L 456.723948 429.420806 
L 457.504468 429.013595 
L 460.24332 428.162391 
L 463.34782 427.61594 
L 467.545752 427.127286 
L 469.432009 427.127286 
L 470.77155 427.187711 
L 472.23063 427.552887 
L 475.031009 428.892745 
L 478.55917 431.02338 
L 481.602143 433.274866 
L 483.792521 435.2216 
L 485.984657 437.838262 
L 487.079846 439.298969 
L 487.844545 440.623064 
" clip-path="url(#p88ea99b368)" style="fill: none; stroke: #f29888; stroke-width: 0.2"/>
    <path d="M 470.77155 427.187711 
L 479.656117 426.701684 
L 486.227251 426.762109 
L 490.608007 427.066861 
L 493.712508 427.29017 
" clip-path="url(#p88ea99b368)" style="fill: none; stroke: #f29888; stroke-width: 0.2"/>
    <path d="M 492.49778 380.163976 
L 488.818437 380.510762 
L 479.796751 380.789242 
L 477.936863 381.162301 
L 475.890635 382.278848 
L 471.240916 385.533913 
L 469.379271 387.393951 
L 468.878261 388.297697 
L 468.449327 389.067459 
L 467.612553 391.952092 
L 467.705723 394.36909 
L 467.705723 397.997213 
L 467.334801 403.390795 
L 466.589439 408.040888 
L 465.288573 412.412501 
L 463.799608 415.854095 
L 461.66021 419.668747 
L 459.149889 423.57535 
L 457.567754 426.551935 
L 456.723948 429.420806 
" clip-path="url(#p88ea99b368)" style="fill: none; stroke: #f29888; stroke-width: 0.2"/>
    <path d="M 461.929172 389.690098 
L 464.297101 389.253988 
L 468.878261 388.297697 
" clip-path="url(#p88ea99b368)" style="fill: none; stroke: #f29888; stroke-width: 0.2"/>
    <path d="M 486.615753 355.237377 
L 484.384943 357.725308 
L 481.874622 359.585345 
L 479.08479 361.723862 
L 476.293201 363.770428 
L 473.132447 365.165456 
L 470.340857 365.630465 
L 467.551026 365.443936 
L 466.527912 364.421967 
L 465.597968 362.653881 
L 464.388514 359.769247 
L 463.73808 356.514182 
L 462.714966 353.818704 
L 461.598682 351.585609 
L 460.390986 349.630994 
L 459.367872 348.330544 
L 458.126775 346.775259 
" clip-path="url(#p88ea99b368)" style="fill: none; stroke: #f29888; stroke-width: 0.2"/>
    <path d="M 485.713936 354.160237 
L 480.944678 351.307129 
L 476.759052 348.795553 
L 472.759766 346.470507 
L 470.725843 345.135904 
" clip-path="url(#p88ea99b368)" style="fill: none; stroke: #f29888; stroke-width: 0.2"/>
    <path d="M 444.550298 297.413342 
L 446.077937 298.330224 
L 447.392867 299.349567 
L 451.791203 303.295578 
L 454.454463 305.825543 
L 457.676745 309.285528 
L 460.36989 313.213148 
L 463.527129 318.165366 
L 466.547249 324.023957 
L 468.336819 328.164379 
L 469.846879 331.931742 
L 472.063627 338.502297 
L 473.132447 339.695033 
L 473.953399 340.467421 
L 474.987061 341.029636 
L 476.126198 341.43422 
L 477.687238 342.048978 
L 478.223406 342.306441 
L 478.868565 342.616447 
L 481.201335 343.74613 
L 482.268398 344.663013 
L 483.208889 345.981853 
L 483.832953 347.508239 
L 485.713936 354.160237 
L 486.615753 355.237377 
L 488.218983 356.548335 
L 489.486449 357.919718 
L 490.226537 358.978468 
L 490.650198 360.192221 
L 491.283052 364.153995 
L 491.552015 366.597264 
L 492.1919 373.133666 
L 492.355388 377.087558 
L 492.49778 380.163976 
" clip-path="url(#p88ea99b368)" style="fill: none; stroke: #f29888; stroke-width: 0.2"/>
    <path d="M 422.425018 376.748653 
L 405.021532 371.515329 
" clip-path="url(#p88ea99b368)" style="fill: none; stroke: #f29888; stroke-width: 0.2"/>
    <path d="M 467.551026 365.443936 
L 466.527912 366.373955 
L 465.691138 367.490503 
L 464.761194 369.258589 
L 463.45857 371.675586 
L 461.785022 374.373691 
L 459.925135 376.790688 
L 458.158417 378.280294 
L 456.019019 379.115735 
L 454.345472 379.580744 
L 451.833393 379.953802 
L 448.764051 379.953802 
L 445.881049 379.675322 
L 445.126898 379.5282 
L 443.463898 379.210313 
L 440.95182 377.999187 
L 435.651667 373.814103 
L 432.953248 371.767537 
L 429.792494 369.35054 
L 425.916263 365.859029 
" clip-path="url(#p88ea99b368)" style="fill: none; stroke: #f29888; stroke-width: 0.2"/>
    <path d="M 426.659866 363.539237 
L 397.488811 353.936927 
" clip-path="url(#p88ea99b368)" style="fill: none; stroke: #f29888; stroke-width: 0.2"/>
    <path d="M 434.247083 340.39386 
L 443.711766 343.147135 
L 451.430827 345.380231 
L 455.057433 346.4022 
L 458.126775 346.775259 
L 460.732024 346.58873 
L 464.358629 346.310249 
L 469.567369 345.56676 
L 470.725843 345.135904 
L 475.333372 343.425616 
L 478.223406 342.306441 
" clip-path="url(#p88ea99b368)" style="fill: none; stroke: #f29888; stroke-width: 0.2"/>
    <path d="M 409.597418 176.009139 
L 409.182548 177.007465 
L 408.992691 178.008417 
L 408.915342 179.10132 
L 408.975112 180.194223 
L 409.105199 181.329161 
L 409.4603 182.419437 
L 410.072059 183.882771 
L 410.866642 185.435429 
L 414.503795 192.73371 
L 417.898354 198.52925 
L 429.423329 216.094516 
L 438.844064 230.449378 
L 439.97617 231.936357 
L 440.415652 232.727136 
L 441.008073 233.796394 
L 441.895827 237.237988 
L 442.224559 239.189976 
L 442.240381 240.59814 
L 442.259718 242.163934 
L 444.314735 278.334825 
L 444.835082 284.516559 
L 445.077676 290.603714 
L 444.726091 295.527033 
L 444.550298 297.413342 
L 442.913667 310.015881 
L 440.786574 320.545583 
L 440.048245 322.78656 
L 435.482906 336.64226 
L 434.247083 340.39386 
L 428.016986 359.304238 
L 426.659866 363.539237 
L 425.916263 365.859029 
L 422.425018 376.748653 
L 420.373516 385.10043 
L 418.137432 394.660706 
L 416.219533 401.922207 
L 414.115293 410.297628 
L 412.844311 416.237662 
L 411.478401 424.226889 
L 410.666239 430.264128 
L 410.126555 433.28012 
" clip-path="url(#p88ea99b368)" style="fill: none; stroke: #f29888; stroke-width: 0.2"/>
    <path d="M 410.710187 281.290393 
L 411.21647 280.347238 
L 412.264195 279.729853 
L 414.980194 278.558135 
L 416.398841 277.693796 
L 417.694434 276.582502 
L 418.743917 275.471209 
L 419.174609 274.48602 
L 419.422477 273.311674 
L 419.916455 267.513508 
L 421.890608 248.755506 
" clip-path="url(#p88ea99b368)" style="fill: none; stroke: #f29888; stroke-width: 0.2"/>
    <path d="M 442.240381 240.59814 
L 443.743409 240.335423 
L 444.696206 240.169911 
L 447.183674 240.382712 
L 451.661116 240.595513 
L 454.220659 240.240845 
L 456.495418 240.028044 
L 468.222554 239.815243 
L 473.907693 239.74431 
" clip-path="url(#p88ea99b368)" style="fill: none; stroke: #f29888; stroke-width: 0.2"/>
    <path d="M 440.415652 232.727136 
L 443.034964 231.355752 
L 453.788209 227.664577 
L 458.114469 226.04624 
L 460.958796 224.840368 
" clip-path="url(#p88ea99b368)" style="fill: none; stroke: #f29888; stroke-width: 0.2"/>
    <path d="M 395.342382 239.733801 
L 395.41973 238.391316 
L 395.358203 237.093494 
L 394.618115 233.825293 
L 394.124138 231.542281 
L 394.310478 230.184034 
L 394.679643 228.457983 
L 395.852181 227.036683 
L 398.135729 225.434109 
L 400.480805 223.70543 
L 406.095626 220.560706 
L 408.686812 219.386361 
L 410.78402 219.01593 
L 412.758173 219.139407 
L 414.857139 219.078982 
L 417.077401 218.768976 
L 420.902652 218.091166 
L 424.975771 217.413355 
L 426.640529 217.103349 
L 429.423329 216.094516 
" clip-path="url(#p88ea99b368)" style="fill: none; stroke: #f29888; stroke-width: 0.2"/>
    <path d="M 443.743409 240.335423 
L 444.838598 239.10328 
L 445.691193 238.252076 
L 446.828572 237.185445 
L 448.108344 236.118813 
L 449.955926 235.123116 
L 452.088292 233.701816 
L 454.290976 231.854915 
L 458.485392 227.378215 
L 460.958796 224.840368 
L 463.782028 222.775412 
L 469.757225 215.605862 
L 473.666857 210.719324 
L 474.101065 209.198192 
L 475.187464 201.810587 
L 475.948647 198.00907 
L 476.708072 195.402916 
L 477.687238 193.012191 
L 478.555654 190.513751 
L 478.446663 188.669477 
L 477.578246 186.278751 
L 475.514439 182.584949 
L 472.865242 177.716801 
" clip-path="url(#p88ea99b368)" style="fill: none; stroke: #f29888; stroke-width: 0.2"/>
    <path d="M 475.115389 219.205086 
L 474.760288 220.91012 
L 474.617896 223.327118 
L 474.262794 233.77275 
L 473.907693 239.74431 
L 473.622909 269.381426 
" clip-path="url(#p88ea99b368)" style="fill: none; stroke: #f29888; stroke-width: 0.2"/>
    <path d="M 460.958796 224.840368 
L 466.018113 223.11169 
L 470.425238 221.193855 
L 473.125415 219.914422 
L 475.115389 219.205086 
" clip-path="url(#p88ea99b368)" style="fill: none; stroke: #f29888; stroke-width: 0.2"/>
    <path d="M 475.115389 219.205086 
L 478.45721 218.847791 
L 484.284741 219.205086 
L 489.614778 219.843489 
" clip-path="url(#p88ea99b368)" style="fill: none; stroke: #f29888; stroke-width: 0.2"/>
    <path d="M 475.187464 201.810587 
L 476.708072 200.617851 
L 478.337671 200.18174 
L 479.642053 200.18174 
L 481.162661 199.637916 
L 483.87866 198.334839 
L 494.631904 190.83952 
L 498.109085 188.017938 
L 499.845918 185.734927 
L 501.909725 182.259179 
L 503.648316 179.978795 
L 505.49414 178.675718 
L 508.31913 177.480355 
L 513.216717 176.550337 
" clip-path="url(#p88ea99b368)" style="fill: none; stroke: #f29888; stroke-width: 0.2"/>
    <path d="M 596.113563 132.051313 
L 555.120443 154.132686 
L 513.216717 176.550337 
" clip-path="url(#p88ea99b368)" style="fill: none; stroke: #f29888; stroke-width: 0.2"/>
    <path d="M 484.346268 120.003107 
L 484.026325 127.117486 
L 483.349523 135.167138 
L 482.509234 141.577436 
L 476.736199 166.51717 
L 472.865242 177.716801 
L 470.623884 182.364266 
" clip-path="url(#p88ea99b368)" style="fill: none; stroke: #f29888; stroke-width: 0.2"/>
    <path d="M 567.241356 68.284617 
L 526.867027 86.414725 
L 523.788895 88.030435 
L 520.876009 89.80903 
L 517.175571 92.320605 
L 502.505663 104.818058 
L 484.346268 120.003107 
L 480.98511 121.807973 
L 476.643029 123.941236 
L 472.70527 126.079753 
L 469.2527 127.571987 
L 465.538198 129.408379 
L 461.301592 131.77546 
L 456.548155 134.667976 
L 452.613913 137.234722 
L 449.001371 139.748924 
L 444.726091 143.053906 
L 432.049673 153.538945 
L 423.553608 161.533427 
L 414.238348 170.673355 
L 410.448256 174.900473 
L 409.597418 176.009139 
" clip-path="url(#p88ea99b368)" style="fill: none; stroke: #f29888; stroke-width: 0.2"/>
    <path d="M 581.18524 99.884231 
L 559.177741 109.602136 
" clip-path="url(#p88ea99b368)" style="fill: none; stroke: #f29888; stroke-width: 0.2"/>
   </g>
  </g>
 </g>
 <defs>
  <clipPath id="p88ea99b368">
   <rect x="7.2" y="7.2" width="713.132963" height="831.6"/>
  </clipPath>
 </defs>
</svg>
