<?xml version="1.0" encoding="utf-8" standalone="no"?>
<!DOCTYPE svg PUBLIC "-//W3C//DTD SVG 1.1//EN"
  "http://www.w3.org/Graphics/SVG/1.1/DTD/svg11.dtd">
<svg xmlns:xlink="http://www.w3.org/1999/xlink" width="851.4pt" height="740.618918pt" viewBox="0 0 851.4 740.618918" xmlns="http://www.w3.org/2000/svg" version="1.1">
 <metadata>
  <rdf:RDF xmlns:dc="http://purl.org/dc/elements/1.1/" xmlns:cc="http://creativecommons.org/ns#" xmlns:rdf="http://www.w3.org/1999/02/22-rdf-syntax-ns#">
   <cc:Work>
    <dc:type rdf:resource="http://purl.org/dc/dcmitype/StillImage"/>
    <dc:date>2025-03-16T14:38:37.386089</dc:date>
    <dc:format>image/svg+xml</dc:format>
    <dc:creator>
     <cc:Agent>
      <dc:title>Matplotlib v3.10.1, https://matplotlib.org/</dc:title>
     </cc:Agent>
    </dc:creator>
   </cc:Work>
  </rdf:RDF>
 </metadata>
 <defs>
  <style type="text/css">*{stroke-linejoin: round; stroke-linecap: butt}</style>
 </defs>
 <g id="figure_1">
  <g id="patch_1">
   <path d="M 0 740.618918 
L 851.4 740.618918 
L 851.4 0 
L 0 0 
z
" style="fill: #ffffff"/>
  </g>
  <g id="axes_1">
   <g id="PatchCollection_1">
    <path d="M 123.339587 524.857749 
L 180.677473 561.585112 
L 246.760159 603.102888 
L 269.583794 658.798223 
L 284.034931 697.372025 
L 313.117352 684.483102 
L 349.011006 693.22722 
L 395.766604 649.958554 
L 514.952888 624.642963 
L 522.038629 627.958807 
L 575.053012 653.091045 
L 604.871458 663.583471 
L 671.782815 672.97578 
L 706.202703 681.076873 
L 790.233074 700.408967 
L 806.154545 642.319717 
L 787.379905 634.771265 
L 774.58611 653.091045 
L 732.526317 644.344345 
L 737.403984 596.750103 
L 742.28165 549.618117 
L 735.931934 549.527732 
L 737.680208 528.999971 
L 742.189004 501.936073 
L 734.181945 498.439458 
L 691.29348 466.499926 
L 678.408755 441.186917 
L 641.779076 430.508556 
L 656.319429 350.618407 
L 652.177787 340.492686 
L 655.30718 336.353046 
L 670.218119 339.0207 
L 690.650102 325.124627 
L 709.332096 309.937338 
L 721.849667 299.078207 
L 675.739163 283.524213 
L 610.210641 289.138422 
L 600.270015 305.518795 
L 547.717149 272.295794 
L 516.517584 268.982532 
L 505.93358 286.377801 
L 488.078542 280.946945 
L 436.445278 249.012577 
L 430.555363 238.427184 
L 399.263151 216.249249 
L 392.268341 190.572117 
L 406.534185 179.712986 
L 413.069195 176.769012 
L 444.452337 172.260084 
L 455.128987 170.788097 
L 463.319624 168.210829 
L 465.898285 155.05075 
L 468.749738 147.414495 
L 492.03489 77.384075 
L 499.305924 52.081396 
L 459.177982 40.209951 
L 454.051543 43.241727 
L 385.862007 50.83408 
L 393.26858 90.905695 
L 393.726665 95.566986 
L 391.709031 98.1081 
L 357.57566 105.821828 
L 347.278174 108.293216 
L 345.576223 108.706406 
L 325.020711 115.322599 
L 313.172254 116.83074 
L 321.517301 170.160566 
L 305.511761 173.65718 
L 311.96785 182.659542 
L 308.339195 184.707411 
L 305.340194 186.318849 
L 292.246156 189.131119 
L 282.617783 189.469418 
L 284.69032 197.895897 
L 290.111855 219.20097 
L 287.742507 219.810424 
L 280.155788 218.542449 
L 276.626643 217.65151 
L 273.416614 217.357113 
L 272.184759 217.253815 
L 268.820318 217.26931 
L 267.502679 224.786772 
L 268.372527 231.361647 
L 271.622017 242.36023 
L 277.565118 252.496279 
L 280.390836 258.24994 
L 282.082492 263.092002 
L 282.453078 267.495051 
L 281.548917 272.236398 
L 280.522943 274.844655 
L 278.661435 277.019064 
L 273.111224 276.370873 
L 261.098061 272.220903 
L 233.439651 259.001428 
L 228.148507 256.209818 
L 218.436066 250.900336 
L 199.652847 239.875929 
L 184.954653 233.414681 
L 177.503473 230.289937 
L 170.975326 227.632614 
L 164.931 225.311006 
L 156.831295 222.718244 
L 145.252198 220.128063 
L 119.062407 214.575832 
L 115.401155 223.503303 
L 110.46344 235.948048 
L 105.132835 241.616489 
L 103.94044 244.395187 
L 99.062774 255.773387 
L 76.30605 308.842387 
L 75.95262 326.245403 
L 67.367379 333.832592 
L 46.28687 363.600298 
L 45.245455 382.310025 
L 73.847486 425.023468 
L 81.542292 455.028758 
L 86.35991 460.805661 
L 90.940764 461.789568 
L 108.891881 475.130417 
L 112.36784 493.757507 
L 121.617048 508.030615 
L 123.339587 524.857749 
" clip-path="url(#p0da8cd61bd)" style="fill: #fbd6c9"/>
   </g>
   <g id="PatchCollection_2">
    <path d="M 310.207566 363.424692 
L 307.831355 366.381578 
L 306.120826 365.007724 
L 308.498753 362.050838 
L 310.207566 363.424692 
" clip-path="url(#p0da8cd61bd)" style="fill: #e6482f"/>
    <path d="M 305.930386 355.933054 
L 303.71888 359.008732 
L 300.347577 356.583827 
L 292.103755 368.044665 
L 288.982941 365.797948 
L 299.438269 351.264015 
L 305.930386 355.933054 
" clip-path="url(#p0da8cd61bd)" style="fill: #e6482f"/>
    <path d="M 317.19723 289.182324 
L 320.386671 292.053989 
L 319.055306 293.533723 
L 315.865865 290.662058 
L 317.19723 289.182324 
" clip-path="url(#p0da8cd61bd)" style="fill: #e6482f"/>
    <path d="M 299.053958 284.787023 
L 301.186543 287.020827 
L 299.83459 288.312044 
L 297.702005 286.078239 
L 299.053958 284.787023 
" clip-path="url(#p0da8cd61bd)" style="fill: #e6482f"/>
    <path d="M 396.735961 341.763244 
L 399.583983 344.660733 
L 397.499436 346.708603 
L 394.651415 343.811113 
L 396.735961 341.763244 
" clip-path="url(#p0da8cd61bd)" style="fill: #e6482f"/>
    <path d="M 376.484123 323.448628 
L 375.360356 325.158199 
L 379.256655 327.719972 
L 377.082894 331.025487 
L 370.432935 326.653428 
L 373.730464 321.638343 
L 376.484123 323.448628 
" clip-path="url(#p0da8cd61bd)" style="fill: #e6482f"/>
    <path d="M 358.088647 322.291698 
L 356.19111 324.566822 
L 352.871277 321.801036 
L 354.767099 319.52333 
L 358.088647 322.291698 
" clip-path="url(#p0da8cd61bd)" style="fill: #e6482f"/>
    <path d="M 382.454675 314.867203 
L 379.87773 315.709076 
L 378.071123 310.182669 
L 380.648069 309.340796 
L 382.454675 314.867203 
" clip-path="url(#p0da8cd61bd)" style="fill: #e6482f"/>
    <path d="M 345.099265 273.847836 
L 353.600439 280.15672 
L 351.385502 283.142013 
L 342.884328 276.833129 
L 345.099265 273.847836 
" clip-path="url(#p0da8cd61bd)" style="fill: #e6482f"/>
   </g>
   <g id="LineCollection_1">
    <path d="M 600.004085 631.922842 
L 599.782763 635.641545 
L 598.425664 638.626838 
L 598.967817 642.833621 
L 599.238894 648.261896 
L 596.661949 656.949201 
L 595.007218 660.112472 
" clip-path="url(#p0da8cd61bd)" style="fill: none; stroke: #e6482f; stroke-width: 0.2"/>
    <path d="M 563.364112 621.105029 
L 567.953545 621.187667 
L 574.47826 622.15608 
L 581.787039 624.085157 
L 587.397299 624.738513 
L 591.969576 626.17951 
L 596.969055 628.472711 
L 600.004085 631.922842 
L 601.682016 632.38768 
L 608.616778 626.739898 
L 612.511362 626.368028 
L 625.903928 631.153277 
L 628.563225 633.591093 
L 636.00068 635.125059 
L 643.851612 636.741662 
L 651.340537 636.940509 
L 655.187083 638.038043 
L 658.071134 639.458381 
L 662.23851 642.663181 
L 665.282119 643.783957 
L 669.929885 644.104178 
L 674.098977 642.833621 
L 679.422719 641.211853 
" clip-path="url(#p0da8cd61bd)" style="fill: none; stroke: #e6482f; stroke-width: 0.2"/>
    <path d="M 625.903928 631.153277 
L 630.44189 618.068088 
L 631.726931 615.860108 
L 639.341101 602.774919 
L 649.854762 584.7108 
L 651.172401 580.537588 
" clip-path="url(#p0da8cd61bd)" style="fill: none; stroke: #e6482f; stroke-width: 0.2"/>
    <path d="M 587.397299 624.738513 
L 591.319334 618.8454 
L 611.60377 588.370108 
L 616.74565 580.643468 
L 617.759615 578.711808 
L 618.219416 577.053886 
L 618.372111 575.259095 
" clip-path="url(#p0da8cd61bd)" style="fill: none; stroke: #e6482f; stroke-width: 0.2"/>
    <path d="M 345.857594 604.561963 
L 348.19606 585.542344 
L 352.09236 579.463296 
L 356.144786 576.656191 
L 362.067299 576.188771 
L 370.951069 577.591032 
L 377.029708 580.710611 
L 389.343114 587.102133 
L 393.863919 588.816869 
L 399.318053 588.65934 
L 405.865072 586.322238 
L 417.553971 582.580293 
L 426.28333 576.033825 
L 432.205843 572.604354 
L 439.842316 568.862408 
L 444.519248 565.275409 
L 450.204998 557.737287 
" clip-path="url(#p0da8cd61bd)" style="fill: none; stroke: #e6482f; stroke-width: 0.2"/>
    <path d="M 629.079644 560.208675 
L 625.670596 568.229712 
L 623.16914 574.525684 
" clip-path="url(#p0da8cd61bd)" style="fill: none; stroke: #e6482f; stroke-width: 0.2"/>
    <path d="M 537.773092 537.281834 
L 537.067949 540.886911 
L 535.424332 549.287566 
L 533.005229 561.652255 
L 531.593228 568.859826 
L 529.541279 574.96728 
L 526.799629 579.89198 
L 522.977104 583.411836 
L 520.942312 585.2841 
L 518.001644 586.784494 
L 515.127887 586.288667 
L 510.432082 583.429913 
L 505.863237 580.648633 
L 502.879677 580.547918 
L 495.776779 585.191133 
L 493.973604 586.371305 
" clip-path="url(#p0da8cd61bd)" style="fill: none; stroke: #e6482f; stroke-width: 0.2"/>
    <path d="M 645.340819 540.011466 
L 643.70578 544.845781 
L 643.969994 547.244861 
L 644.206757 549.411522 
L 645.886404 556.458982 
L 647.471688 560.738074 
L 650.00231 565.071397 
L 651.973622 567.715808 
L 652.980724 568.738451 
L 656.180459 571.979405 
L 659.162304 573.208643 
L 660.852244 575.860802 
L 664.829181 581.991498 
" clip-path="url(#p0da8cd61bd)" style="fill: none; stroke: #e6482f; stroke-width: 0.2"/>
    <path d="M 405.865072 586.322238 
L 408.982455 577.74856 
L 409.292992 571.19951 
L 409.292992 565.120463 
L 405.865072 561.068625 
L 399.630306 558.106575 
L 393.863919 555.921836 
L 384.51177 553.117314 
L 365.184682 544.698582 
L 358.483253 539.86685 
L 353.027403 534.722643 
L 347.417143 530.980697 
L 342.740211 529.888328 
L 339.312291 530.825751 
L 336.661572 532.850379 
" clip-path="url(#p0da8cd61bd)" style="fill: none; stroke: #e6482f; stroke-width: 0.2"/>
    <path d="M 593.620056 557.99553 
L 592.077663 555.28914 
" clip-path="url(#p0da8cd61bd)" style="fill: none; stroke: #e6482f; stroke-width: 0.2"/>
    <path d="M 786.110305 657.643875 
L 790.917628 655.639907 
L 800.051887 654.679242 
" clip-path="url(#p0da8cd61bd)" style="fill: none; stroke: #e6482f; stroke-width: 0.2"/>
    <path d="M 797.094061 659.714986 
L 797.807783 656.923376 
L 800.051887 654.679242 
L 803.178818 653.176613 
" clip-path="url(#p0da8cd61bd)" style="fill: none; stroke: #e6482f; stroke-width: 0.2"/>
    <path d="M 800.925525 661.397718 
L 797.094061 659.714986 
L 786.110305 657.643875 
L 772.209899 658.948004 
L 758.040133 655.864579 
L 748.430632 652.561647 
L 738.759368 648.450413 
L 733.301803 646.128806 
L 717.267097 641.748999 
L 705.830402 638.626838 
L 701.083127 635.817151 
L 697.718686 633.092684 
L 690.98809 632.132019 
L 686.7864 631.272068 
" clip-path="url(#p0da8cd61bd)" style="fill: none; stroke: #e6482f; stroke-width: 0.2"/>
    <path d="M 738.759368 648.450413 
L 741.605276 646.232393 
" clip-path="url(#p0da8cd61bd)" style="fill: none; stroke: #e6482f; stroke-width: 0.2"/>
    <path d="M 717.267097 641.748999 
L 718.869538 639.02195 
L 719.082282 635.06308 
" clip-path="url(#p0da8cd61bd)" style="fill: none; stroke: #e6482f; stroke-width: 0.2"/>
    <path d="M 758.040133 655.864579 
L 758.564833 649.759281 
" clip-path="url(#p0da8cd61bd)" style="fill: none; stroke: #e6482f; stroke-width: 0.2"/>
    <path d="M 733.301803 646.128806 
L 719.082282 635.06308 
L 717.577634 633.890656 
L 716.316612 632.909331 
L 712.97276 625.590716 
L 708.596071 618.739521 
L 703.36326 612.079426 
L 702.064493 607.247694 
" clip-path="url(#p0da8cd61bd)" style="fill: none; stroke: #e6482f; stroke-width: 0.2"/>
    <path d="M 679.422719 641.211853 
L 683.380783 635.873964 
L 685.479055 633.043618 
L 686.7864 631.272068 
L 691.875094 620.523982 
L 696.040755 613.380972 
L 702.064493 607.247694 
" clip-path="url(#p0da8cd61bd)" style="fill: none; stroke: #e6482f; stroke-width: 0.2"/>
    <path d="M 674.098977 642.833621 
L 671.081103 631.576796 
L 671.101692 626.458413 
L 671.971539 624.774667 
L 675.603625 614.669606 
L 683.892055 598.436432 
L 689.178052 596.107077 
L 692.278278 596.910214 
L 699.864997 600.275124 
L 703.40272 605.432243 
" clip-path="url(#p0da8cd61bd)" style="fill: none; stroke: #e6482f; stroke-width: 0.2"/>
    <path d="M 671.971539 624.774667 
L 683.159461 621.668 
L 690.375594 618.383145 
L 696.040755 613.380972 
" clip-path="url(#p0da8cd61bd)" style="fill: none; stroke: #e6482f; stroke-width: 0.2"/>
    <path d="M 727.995218 592.832552 
L 726.241797 595.877241 
L 722.443291 598.591378 
L 718.914145 604.425094 
L 717.285969 611.890908 
L 716.743816 619.082984 
L 718.236453 626.683085 
L 717.577634 633.890656 
" clip-path="url(#p0da8cd61bd)" style="fill: none; stroke: #e6482f; stroke-width: 0.2"/>
    <path d="M 702.064493 607.247694 
L 703.40272 605.432243 
L 707.494607 599.885177 
L 709.040431 597.692691 
L 712.188696 591.874469 
L 713.007074 589.069947 
" clip-path="url(#p0da8cd61bd)" style="fill: none; stroke: #e6482f; stroke-width: 0.2"/>
    <path d="M 689.178052 596.107077 
L 691.562841 593.137279 
L 692.684893 590.250119 
L 693.549594 585.446793 
" clip-path="url(#p0da8cd61bd)" style="fill: none; stroke: #e6482f; stroke-width: 0.2"/>
    <path d="M 669.470084 582.549304 
L 681.601628 590.312097 
L 689.178052 596.107077 
" clip-path="url(#p0da8cd61bd)" style="fill: none; stroke: #e6482f; stroke-width: 0.2"/>
    <path d="M 737.560898 595.233869 
L 727.995218 592.832552 
L 713.007074 589.069947 
L 693.549594 585.446793 
L 669.470084 582.549304 
L 664.829181 581.991498 
L 654.756448 580.700281 
L 651.172401 580.537588 
L 627.020833 574.894972 
L 623.16914 574.525684 
L 618.372111 575.259095 
L 611.924601 574.750356 
L 607.462128 573.598591 
L 603.406271 571.041982 
L 600.151634 567.847512 
L 597.847481 564.85189 
L 593.620056 557.99553 
" clip-path="url(#p0da8cd61bd)" style="fill: none; stroke: #e6482f; stroke-width: 0.2"/>
    <path d="M 592.077663 555.28914 
L 590.631348 553.341985 
L 588.543371 551.35093 
L 584.538984 548.975091 
" clip-path="url(#p0da8cd61bd)" style="fill: none; stroke: #e6482f; stroke-width: 0.2"/>
    <path d="M 546.764949 555.611944 
L 549.745078 546.9892 
L 551.289186 542.524173 
L 552.352905 539.451078 
" clip-path="url(#p0da8cd61bd)" style="fill: none; stroke: #e6482f; stroke-width: 0.2"/>
    <path d="M 492.875571 594.950147 
L 493.302775 593.336127 
L 493.973604 586.371305 
L 492.992237 581.957926 
L 487.536388 575.096402 
L 485.510175 573.381666 
L 480.210452 569.952195 
L 458.70274 560.756151 
L 450.204998 557.737287 
L 446.855999 556.546785 
L 424.411527 537.527165 
L 422.385314 534.565115 
L 421.450271 528.643596 
L 423.165947 518.977549 
L 424.567654 505.572138 
L 430.476441 495.309549 
" clip-path="url(#p0da8cd61bd)" style="fill: none; stroke: #e6482f; stroke-width: 0.2"/>
    <path d="M 537.067949 540.886911 
L 541.770617 543.151705 
L 547.543866 543.763741 
L 551.289186 542.524173 
" clip-path="url(#p0da8cd61bd)" style="fill: none; stroke: #e6482f; stroke-width: 0.2"/>
    <path d="M 584.538984 548.975091 
L 572.016266 545.741885 
L 552.352905 539.451078 
L 544.666677 538.103048 
L 537.773092 537.281834 
L 528.266532 535.345009 
L 517.969046 531.295754 
L 502.93801 523.54329 
L 494.901784 519.8814 
L 468.90758 512.629928 
L 464.37648 511.367118 
L 455.077517 507.914405 
L 446.701588 503.271191 
L 430.476441 495.309549 
" clip-path="url(#p0da8cd61bd)" style="fill: none; stroke: #e6482f; stroke-width: 0.2"/>
    <path d="M 468.90758 512.629928 
L 470.860019 516.015498 
L 473.352896 517.417759 
L 488.471431 521.627125 
L 490.809898 521.31465 
L 494.901784 519.8814 
" clip-path="url(#p0da8cd61bd)" style="fill: none; stroke: #e6482f; stroke-width: 0.2"/>
    <path d="M 585.67133 483.094641 
L 597.634737 487.879889 
L 603.526368 487.879889 
L 611.807935 485.855262 
L 623.958351 479.595444 
L 629.76763 473.85986 
" clip-path="url(#p0da8cd61bd)" style="fill: none; stroke: #e6482f; stroke-width: 0.2"/>
    <path d="M 672.400458 493.46311 
L 667.949995 492.298432 
L 629.76763 473.85986 
L 608.863835 463.765129 
L 599.475657 459.160651 
L 590.272772 455.84739 
L 581.437042 452.534128 
L 573.522629 448.115585 
L 561.557506 439.281081 
L 552.721775 434.126545 
L 528.791529 414.980386 
L 489.953775 383.869815 
L 475.042837 368.775494 
L 468.969344 360.307695 
L 464.735056 357.916362 
" clip-path="url(#p0da8cd61bd)" style="fill: none; stroke: #e6482f; stroke-width: 0.2"/>
    <path d="M 504.641676 347.222507 
L 519.055069 352.02325 
L 526.379289 352.648199 
L 535.887564 352.803145 
L 547.1098 355.765196 
L 561.293292 361.844243 
L 605.713855 387.405166 
" clip-path="url(#p0da8cd61bd)" style="fill: none; stroke: #e6482f; stroke-width: 0.2"/>
    <path d="M 611.955483 396.929179 
L 610.704756 388.657646 
L 604.0771 367.486859 
L 604.629547 363.620957 
L 605.391307 359.530383 
L 606.103313 355.7058 
L 606.103313 352.209185 
L 603.893522 348.895924 
L 600.947707 341.164119 
L 593.585742 331.407687 
" clip-path="url(#p0da8cd61bd)" style="fill: none; stroke: #e6482f; stroke-width: 0.2"/>
    <path d="M 417.85593 312.364825 
L 420.741697 317.051941 
L 432.33795 329.383059 
L 438.229581 332.329616 
L 445.960416 336.562223 
L 456.268196 349.81527 
L 463.630161 355.153159 
L 464.735056 357.916362 
L 460.133614 376.507298 
L 458.292694 384.791743 
L 455.715749 390.496338 
L 455.346878 395.467522 
L 457.740246 400.622058 
" clip-path="url(#p0da8cd61bd)" style="fill: none; stroke: #e6482f; stroke-width: 0.2"/>
    <path d="M 382.675997 304.852528 
L 391.437954 308.413703 
L 397.264389 309.384698 
L 410.883424 309.88569 
L 417.85593 312.364825 
L 423.3907 313.751592 
L 436.405817 312.4862 
L 452.529739 317.088096 
L 481.203829 334.225121 
L 504.641676 347.222507 
L 507.137984 353.404852 
L 509.780125 356.826576 
L 517.425177 360.651159 
L 527.578546 363.548649 
L 540.061803 365.707563 
L 548.18896 368.811648 
L 603.567544 398.088691 
L 606.978308 399.366996 
L 611.955483 396.929179 
L 616.36477 394.222789 
L 620.012297 391.493157 
L 623.239483 388.254786 
L 625.152462 386.341203 
L 630.476204 381.930408 
L 641.960938 378.810828 
L 647.039338 378.049011 
L 651.385553 377.72697 
" clip-path="url(#p0da8cd61bd)" style="fill: none; stroke: #e6482f; stroke-width: 0.2"/>
    <path d="M 593.585742 303.429607 
L 598.187185 306.006875 
L 602.421473 310.425418 
L 619.171616 319.443274 
L 622.626987 323.216209 
L 627.017401 327.381674 
" clip-path="url(#p0da8cd61bd)" style="fill: none; stroke: #e6482f; stroke-width: 0.2"/>
    <path d="M 593.585742 331.407687 
L 591.192374 327.541785 
L 586.959802 324.597811 
L 572.434891 307.008859 
L 566.894973 300.299698 
L 564.870476 294.778456 
L 564.870476 290.17656 
L 561.547212 283.81861 
L 559.618792 280.944362 
L 559.121177 279.50522 
" clip-path="url(#p0da8cd61bd)" style="fill: none; stroke: #e6482f; stroke-width: 0.2"/>
    <path d="M 346.614207 241.389235 
L 345.579655 246.507617 
L 345.579655 251.339349 
L 347.449741 254.298818 
L 351.658294 257.883235 
L 354.463424 260.69034 
L 358.287666 265.708007 
L 370.863569 275.846639 
L 372.186355 276.910602 
L 398.362421 295.622912 
" clip-path="url(#p0da8cd61bd)" style="fill: none; stroke: #e6482f; stroke-width: 0.2"/>
    <path d="M 595.293114 302.372486 
L 593.585742 303.429607 
L 561.547212 283.81861 
L 551.472763 276.833129 
L 541.532339 271.638993 
" clip-path="url(#p0da8cd61bd)" style="fill: none; stroke: #e6482f; stroke-width: 0.2"/>
    <path d="M 356.330079 210.02042 
L 359.888391 204.938192 
L 363.611408 201.583611 
L 374.123353 197.513697 
L 381.547083 195.886764 
L 391.630109 192.155148 
L 392.530094 191.532983 
" clip-path="url(#p0da8cd61bd)" style="fill: none; stroke: #e6482f; stroke-width: 0.2"/>
    <path d="M 440.806526 168.146268 
L 445.43763 172.124242 
" clip-path="url(#p0da8cd61bd)" style="fill: none; stroke: #e6482f; stroke-width: 0.2"/>
    <path d="M 675.974211 547.856898 
L 673.745548 554.71584 
L 666.562013 559.960761 
L 659.162304 573.208643 
L 656.269674 576.067397 
L 654.756448 580.700281 
" clip-path="url(#p0da8cd61bd)" style="fill: none; stroke: #e6482f; stroke-width: 0.2"/>
    <path d="M 720.791095 492.905304 
L 740.86623 509.875976 
" clip-path="url(#p0da8cd61bd)" style="fill: none; stroke: #e6482f; stroke-width: 0.2"/>
    <path d="M 735.982831 548.930111 
L 732.745924 548.926025 
L 727.753307 548.918278 
L 719.161203 548.324318 
L 713.645305 547.942118 
L 704.540213 547.312004 
L 679.232279 545.300289 
L 675.974211 547.856898 
L 674.227653 545.592104 
L 672.935749 543.913522 
L 657.213296 541.690047 
L 645.340819 540.011466 
" clip-path="url(#p0da8cd61bd)" style="fill: none; stroke: #e6482f; stroke-width: 0.2"/>
    <path d="M 698.669171 526.616386 
L 714.789661 526.262592 
L 717.781799 526.195449 
L 719.945267 528.506727 
L 722.319762 533.258403 
L 724.299652 535.23913 
L 727.995218 538.405193 
L 732.745924 548.926025 
" clip-path="url(#p0da8cd61bd)" style="fill: none; stroke: #e6482f; stroke-width: 0.2"/>
    <path d="M 672.400458 493.46311 
L 670.904389 485.628008 
L 669.05489 480.517373 
L 667.184804 473.39244 
L 664.26987 462.29056 
L 662.988261 452.397259 
L 662.245373 446.643598 
L 660.035583 442.594343 
L 655.801295 440.200428 
L 644.390335 438.359153 
L 641.811674 436.334525 
L 641.207756 433.142638 
L 641.840394 430.171655 
" clip-path="url(#p0da8cd61bd)" style="fill: none; stroke: #e6482f; stroke-width: 0.2"/>
    <path d="M 237.109482 331.071971 
L 243.826353 330.558066 
L 257.230928 332.272802 
L 266.114697 333.207643 
L 268.607574 332.585276 
L 275.154593 334.922378 
" clip-path="url(#p0da8cd61bd)" style="fill: none; stroke: #e6482f; stroke-width: 0.2"/>
    <path d="M 284.81728 318.5575 
L 272.660001 313.413293 
L 255.29393 303.235924 
" clip-path="url(#p0da8cd61bd)" style="fill: none; stroke: #e6482f; stroke-width: 0.2"/>
    <path d="M 233.959501 335.919197 
L 237.109482 331.071971 
L 251.92949 308.266504 
L 255.29393 303.235924 
L 260.123558 296.015442 
L 264.520835 289.443149 
L 268.357086 283.485476 
L 271.961721 278.671821 
" clip-path="url(#p0da8cd61bd)" style="fill: none; stroke: #e6482f; stroke-width: 0.2"/>
    <path d="M 320.403828 258.619228 
L 321.558477 263.241783 
L 339.036067 275.141635 
L 342.5858 277.362527 
L 351.086974 283.671411 
L 363.026362 291.475524 
L 382.675997 304.852528 
" clip-path="url(#p0da8cd61bd)" style="fill: none; stroke: #e6482f; stroke-width: 0.2"/>
    <path d="M 320.403828 258.619228 
L 329.018236 249.753735 
L 332.048119 246.636739 
L 341.225269 237.639542 
L 348.420814 227.870198 
L 352.670543 217.636015 
" clip-path="url(#p0da8cd61bd)" style="fill: none; stroke: #e6482f; stroke-width: 0.2"/>
    <path d="M 302.447564 216.437766 
L 313.604604 228.879929 
L 324.106256 238.990154 
L 329.114314 243.811557 
L 332.048119 246.636739 
" clip-path="url(#p0da8cd61bd)" style="fill: none; stroke: #e6482f; stroke-width: 0.2"/>
    <path d="M 320.403828 258.619228 
L 315.778366 249.49291 
L 302.457858 234.494138 
L 295.409862 226.558322 
L 292.896397 223.229565 
L 288.00329 198.172217 
L 285.747176 190.6186 
" clip-path="url(#p0da8cd61bd)" style="fill: none; stroke: #e6482f; stroke-width: 0.2"/>
    <path d="M 270.822512 218.901408 
L 272.255101 218.635417 
L 274.732537 218.62767 
L 277.632029 219.221629 
L 288.111377 221.51483 
L 292.896397 223.229565 
" clip-path="url(#p0da8cd61bd)" style="fill: none; stroke: #e6482f; stroke-width: 0.2"/>
    <path d="M 354.691609 213.431814 
L 356.321501 220.450867 
" clip-path="url(#p0da8cd61bd)" style="fill: none; stroke: #e6482f; stroke-width: 0.2"/>
    <path d="M 280.179808 279.459463 
L 281.21436 275.856969 
L 281.916072 273.341679 
L 282.912879 267.448567 
L 282.864841 263.414806 
L 282.461657 259.814895 
L 278.577367 251.483966 
L 273.739161 240.702308 
L 270.765895 229.936144 
L 269.5735 224.740289 
L 268.940416 221.403785 
L 269.58551 219.792347 
L 270.822512 218.901408 
L 270.55752 217.261309 
" clip-path="url(#p0da8cd61bd)" style="fill: none; stroke: #e6482f; stroke-width: 0.2"/>
    <path d="M 352.670543 217.636015 
L 354.691609 213.431814 
L 356.330079 210.02042 
L 355.844543 202.115593 
L 349.110516 175.240211 
L 351.123003 155.314158 
L 351.807558 148.540436 
L 352.138683 143.708704 
" clip-path="url(#p0da8cd61bd)" style="fill: none; stroke: #e6482f; stroke-width: 0.2"/>
    <path d="M 369.115296 152.997715 
L 351.123003 155.314158 
" clip-path="url(#p0da8cd61bd)" style="fill: none; stroke: #e6482f; stroke-width: 0.2"/>
    <path d="M 398.362421 295.622912 
L 402.033968 291.168215 
L 402.526367 284.247294 
L 401.150395 278.883581 
L 393.409265 270.449354 
L 374.054726 256.029048 
L 364.163855 247.336578 
L 359.064867 242.856057 
L 351.82643 243.524907 
L 346.614207 241.389235 
L 341.225269 237.639542 
L 339.289987 235.803432 
L 313.311224 211.125702 
L 310.778886 208.721456 
L 303.279667 204.377804 
L 298.94587 199.373049 
L 295.439029 195.326376 
L 292.708155 189.031893 
" clip-path="url(#p0da8cd61bd)" style="fill: none; stroke: #e6482f; stroke-width: 0.2"/>
    <path d="M 288.797147 189.252302 
L 285.747176 190.6186 
L 285.418331 189.371019 
" clip-path="url(#p0da8cd61bd)" style="fill: none; stroke: #e6482f; stroke-width: 0.2"/>
    <path d="M 318.712761 152.237884 
L 322.989351 171.263265 
L 325.296935 179.687161 
L 329.743967 200.098712 
L 332.070423 203.050433 
L 339.610818 208.388322 
L 352.670543 217.636015 
L 356.321501 220.450867 
L 364.08665 226.436947 
L 373.723601 233.866607 
L 405.151351 257.798015 
L 419.964496 272.804533 
L 426.007106 278.9249 
L 427.88234 280.822988 
" clip-path="url(#p0da8cd61bd)" style="fill: none; stroke: #e6482f; stroke-width: 0.2"/>
    <path d="M 352.138683 143.708704 
L 351.696039 109.765203 
" clip-path="url(#p0da8cd61bd)" style="fill: none; stroke: #e6482f; stroke-width: 0.2"/>
    <path d="M 313.260564 117.395093 
L 325.592031 115.988867 
L 346.727442 111.283674 
L 351.696039 109.765203 
" clip-path="url(#p0da8cd61bd)" style="fill: none; stroke: #e6482f; stroke-width: 0.2"/>
    <path d="M 351.696039 109.765203 
L 351.544704 107.269252 
" clip-path="url(#p0da8cd61bd)" style="fill: none; stroke: #e6482f; stroke-width: 0.2"/>
    <path d="M 351.696039 109.765203 
L 359.553834 106.281501 
L 374.72384 104.832756 
L 380.2466 106.490678 
L 386.505386 112.01192 
L 390.923251 116.061175 
L 396.905813 124.619358 
L 399.942559 128.206358 
L 406.384922 136.674156 
L 417.612304 144.403378 
L 432.70682 158.206483 
L 440.806526 168.146268 
L 443.014361 172.466683 
" clip-path="url(#p0da8cd61bd)" style="fill: none; stroke: #e6482f; stroke-width: 0.2"/>
    <path d="M 137.938272 434.490668 
L 133.417467 425.604516 
L 132.950803 422.645047 
L 133.885846 420.305363 
L 132.482423 416.720946 
L 107.232822 399.886065 
L 102.401479 395.521753 
L 89.775821 388.662811 
L 86.814564 385.23334 
L 84.632224 381.493976 
L 75.436202 371.363091 
L 69.047025 360.919732 
L 63.903429 351.256268 
L 63.903429 347.669268 
L 69.523983 340.280927 
" clip-path="url(#p0da8cd61bd)" style="fill: none; stroke: #e6482f; stroke-width: 0.2"/>
    <path d="M 69.523983 340.280927 
L 73.207539 340.872304 
L 104.949258 358.915764 
L 113.635724 363.853376 
" clip-path="url(#p0da8cd61bd)" style="fill: none; stroke: #e6482f; stroke-width: 0.2"/>
    <path d="M 73.207539 340.872304 
L 71.879606 337.233656 
" clip-path="url(#p0da8cd61bd)" style="fill: none; stroke: #e6482f; stroke-width: 0.2"/>
    <path d="M 62.805777 340.274012 
L 65.334303 340.934283 
L 69.523983 340.280927 
" clip-path="url(#p0da8cd61bd)" style="fill: none; stroke: #e6482f; stroke-width: 0.2"/>
    <path d="M 69.523983 340.280927 
L 71.879606 337.233656 
L 74.657285 333.641492 
L 77.774668 327.565026 
L 78.865838 321.173505 
L 79.124905 315.559295 
L 77.819276 309.784975 
" clip-path="url(#p0da8cd61bd)" style="fill: none; stroke: #e6482f; stroke-width: 0.2"/>
    <path d="M 76.30605 308.842387 
L 77.819276 309.784975 
L 81.128814 312.160813 
L 98.810569 328.122832 
L 120.249655 342.093795 
L 122.505768 343.563199 
L 145.598765 358.301145 
L 171.424833 374.782233 
L 185.354405 383.94987 
" clip-path="url(#p0da8cd61bd)" style="fill: none; stroke: #e6482f; stroke-width: 0.2"/>
    <path d="M 79.124905 315.559295 
L 81.128814 312.160813 
L 86.504027 309.795304 
L 93.67212 305.588521 
L 99.596349 295.767528 
L 103.024269 288.286219 
L 105.829399 285.326751 
L 109.102909 283.454487 
L 114.090378 282.519646 
L 117.986678 277.532968 
L 122.195231 273.636077 
L 122.195231 270.51908 
L 118.455058 258.206039 
L 118.020992 255.104537 
L 118.031286 250.85127 
" clip-path="url(#p0da8cd61bd)" style="fill: none; stroke: #e6482f; stroke-width: 0.2"/>
    <path d="M 214.153739 423.579888 
L 220.856885 430.126356 
L 234.259744 442.284451 
L 251.250082 455.534915 
L 254.367465 459.274278 
L 256.081425 463.328698 
L 255.925299 467.847956 
L 254.521876 482.813156 
L 255.302508 490.919413 
L 259.354935 502.610088 
L 265.121321 512.586027 
L 273.226174 532.073067 
L 277.434727 540.489216 
L 279.771477 542.983846 
L 287.721919 548.128053 
L 294.267222 555.29947 
L 303.775498 570.419615 
L 309.541884 584.919977 
L 312.659267 591.621391 
L 314.373227 594.116021 
L 321.38691 598.482916 
L 331.830229 602.222279 
L 345.857594 604.561963 
L 358.949916 609.70617 
L 370.328278 612.2008 
L 380.926008 613.448115 
L 394.955089 613.448115 
L 401.656519 614.382956 
L 412.722628 617.812427 
" clip-path="url(#p0da8cd61bd)" style="fill: none; stroke: #e6482f; stroke-width: 0.2"/>
    <path d="M 333.34517 459.11675 
L 330.116268 459.899227 
L 326.42585 458.4479 
L 317.023946 454.75502 
L 309.541884 450.078234 
L 304.242161 448.830919 
L 300.033609 446.181343 
L 292.553262 439.3224 
L 289.279752 435.113034 
L 287.565792 431.683563 
L 284.292283 429.033987 
L 281.1749 428.099146 
L 267.926451 413.758895 
L 264.965195 412.356634 
L 259.354935 412.979 
L 253.586833 412.979 
L 247.197656 412.979 
L 243.678805 414.967474 
L 240.183973 420.305363 
L 237.845507 422.175045 
L 229.584528 428.724095 
L 225.375975 429.968828 
L 220.856885 430.126356 
L 216.804459 431.996038 
L 213.997613 434.490668 
L 206.829519 457.559543 
L 204.022674 462.703749 
L 199.035204 468.627851 
L 197.47737 475.486793 
L 194.826651 480.473471 
L 192.800438 488.579729 
L 190.307561 493.101569 
L 185.320092 496.685986 
L 178.616946 506.506979 
" clip-path="url(#p0da8cd61bd)" style="fill: none; stroke: #e6482f; stroke-width: 0.2"/>
    <path d="M 326.42585 458.4479 
L 327.004033 454.646558 
" clip-path="url(#p0da8cd61bd)" style="fill: none; stroke: #e6482f; stroke-width: 0.2"/>
    <path d="M 240.183973 420.305363 
L 234.415871 436.517878 
L 233.793081 439.167454 
L 234.259744 442.284451 
" clip-path="url(#p0da8cd61bd)" style="fill: none; stroke: #e6482f; stroke-width: 0.2"/>
    <path d="M 430.476441 495.309549 
L 405.732965 487.732691 
L 355.799936 470.967535 
L 341.245858 463.586941 
L 333.34517 459.11675 
L 327.004033 454.646558 
L 318.864866 447.291789 
L 313.532546 441.496809 
L 308.572527 433.922533 
L 305.170342 427.905464 
L 298.69195 410.189973 
L 296.389513 401.549152 
L 294.401045 391.348541 
L 294.270653 386.883514 
L 295.077021 383.353328 
L 298.930429 378.537091 
L 304.724266 373.403214 
L 306.42107 372.352163 
L 310.214429 370.004732 
L 313.235734 366.575261 
L 313.376419 363.321395 
L 311.180354 359.445163 
L 308.418116 356.018274 
L 306.851704 354.078867 
L 296.758383 345.827993 
L 294.279232 342.406269 
L 292.11748 336.606125 
L 291.695424 332.099779 
L 291.261358 327.466894 
L 291.719444 321.863014 
L 295.56942 309.978657 
L 297.206175 304.927418 
L 298.268178 300.82135 
L 298.084601 296.092915 
L 294.730455 291.550415 
L 281.917788 280.900461 
L 280.179808 279.459463 
" clip-path="url(#p0da8cd61bd)" style="fill: none; stroke: #e6482f; stroke-width: 0.2"/>
    <path d="M 306.42107 372.352163 
L 310.476927 386.013234 
L 312.815393 389.442705 
L 319.360697 395.521753 
" clip-path="url(#p0da8cd61bd)" style="fill: none; stroke: #e6482f; stroke-width: 0.2"/>
    <path d="M 311.180354 359.445163 
L 317.49061 360.452312 
L 321.230783 362.789414 
L 325.28321 369.648356 
L 327.309423 375.259983 
L 327.309423 380.559136 
L 328.090055 386.013234 
L 330.272395 388.975285 
L 333.233651 391.469915 
" clip-path="url(#p0da8cd61bd)" style="fill: none; stroke: #e6482f; stroke-width: 0.2"/>
    <path d="M 308.418116 356.018274 
L 323.725376 359.204997 
L 327.309423 358.737576 
L 329.335636 356.710366 
L 332.142482 350.943793 
L 335.103738 348.916583 
L 338.531658 348.606691 
L 345.078677 349.696478 
" clip-path="url(#p0da8cd61bd)" style="fill: none; stroke: #e6482f; stroke-width: 0.2"/>
    <path d="M 291.695424 332.099779 
L 285.285659 342.558633 
L 283.72611 347.390365 
L 284.6663 349.414993 
" clip-path="url(#p0da8cd61bd)" style="fill: none; stroke: #e6482f; stroke-width: 0.2"/>
    <path d="M 284.6663 349.414993 
L 285.752323 351.754677 
L 290.273129 355.964043 
L 290.585382 358.146199 
L 287.155746 363.757826 
L 283.10332 364.537721 
L 279.673684 363.290406 
L 279.948192 357.353392 
L 284.6663 349.414993 
" clip-path="url(#p0da8cd61bd)" style="fill: none; stroke: #e6482f; stroke-width: 0.2"/>
    <path d="M 295.56942 309.978657 
L 289.338085 313.100819 
L 284.81728 318.5575 
L 275.154593 334.922378 
L 272.03721 341.623792 
L 267.049741 355.496623 
L 266.581361 360.015881 
" clip-path="url(#p0da8cd61bd)" style="fill: none; stroke: #e6482f; stroke-width: 0.2"/>
    <path d="M 177.313032 554.090891 
L 183.341917 556.301454 
L 182.973047 561.458573 
L 182.498229 562.729039 
" clip-path="url(#p0da8cd61bd)" style="fill: none; stroke: #e6482f; stroke-width: 0.2"/>
    <path d="M 178.616946 506.506979 
L 178.150282 514.145816 
L 180.020369 522.87444 
L 182.358835 528.643596 
L 184.072795 537.217273 
L 183.293878 540.33427 
L 180.332622 543.608795 
L 177.994156 548.128053 
L 177.681903 552.492365 
L 177.313032 554.090891 
L 176.746859 556.546785 
L 175.40537 558.208105 
" clip-path="url(#p0da8cd61bd)" style="fill: none; stroke: #e6482f; stroke-width: 0.2"/>
    <path d="M 199.035204 468.627851 
L 196.230074 469.407746 
L 184.851712 460.834068 
L 182.358835 460.834068 
L 171.915516 471.277427 
L 165.370213 480.785946 
L 158.979321 489.672098 
L 152.900681 495.751145 
L 166.476824 506.091207 
L 168.237107 507.05962 
L 172.383896 509.623976 
L 175.65569 509.781504 
L 178.616946 506.506979 
" clip-path="url(#p0da8cd61bd)" style="fill: none; stroke: #e6482f; stroke-width: 0.2"/>
    <path d="M 213.997613 434.490668 
L 213.218696 431.528617 
L 214.309866 427.9442 
L 214.153739 423.579888 
L 213.687076 420.772784 
L 212.908159 417.655787 
" clip-path="url(#p0da8cd61bd)" style="fill: none; stroke: #e6482f; stroke-width: 0.2"/>
    <path d="M 185.354405 383.94987 
L 191.398731 389.442705 
L 197.165117 393.652071 
L 199.043782 397.543798 
L 202.931504 406.120058 
L 206.253052 411.106737 
L 212.908159 417.655787 
L 218.674545 420.930312 
L 226.311018 423.42236 
L 231.454614 424.047309 
L 237.845507 422.175045 
" clip-path="url(#p0da8cd61bd)" style="fill: none; stroke: #e6482f; stroke-width: 0.2"/>
    <path d="M 133.885846 420.305363 
L 147.757085 404.562851 
L 151.341132 404.407905 
L 155.083021 400.66596 
L 159.445984 400.511014 
L 168.798133 406.277587 
L 176.902986 408.302214 
L 181.579918 407.992322 
L 184.695586 406.120058 
L 185.476218 403.16059 
L 185.354405 383.94987 
" clip-path="url(#p0da8cd61bd)" style="fill: none; stroke: #e6482f; stroke-width: 0.2"/>
    <path d="M 113.635724 363.853376 
L 155.323215 388.652481 
L 161.757 390.545404 
L 174.626284 396.033075 
" clip-path="url(#p0da8cd61bd)" style="fill: none; stroke: #e6482f; stroke-width: 0.2"/>
    <path d="M 171.424833 374.782233 
L 191.285496 357.115808 
L 222.780158 341.623792 
L 230.708296 339.550098 
L 233.959501 335.919197 
" clip-path="url(#p0da8cd61bd)" style="fill: none; stroke: #e6482f; stroke-width: 0.2"/>
    <path d="M 113.635724 363.853376 
L 118.298931 357.490261 
L 120.481271 351.098739 
L 120.249655 342.093795 
L 119.233974 336.448596 
L 119.233974 332.551705 
L 120.169018 324.135555 
L 118.921721 304.028731 
L 120.012891 292.650531 
L 120.012891 281.742334 
L 122.195231 273.636077 
" clip-path="url(#p0da8cd61bd)" style="fill: none; stroke: #e6482f; stroke-width: 0.2"/>
    <path d="M 251.92949 308.266504 
L 207.987601 276.957085 
L 186.284301 264.086239 
L 154.007292 250.587861 
" clip-path="url(#p0da8cd61bd)" style="fill: none; stroke: #e6482f; stroke-width: 0.2"/>
    <path d="M 105.037048 241.839706 
L 106.052437 241.892809 
L 107.533065 241.740446 
L 110.477165 241.190387 
L 112.203135 241.350498 
L 112.963179 242.06325 
L 113.745528 243.351884 
L 115.102627 246.189978 
L 118.031286 250.85127 
L 132.187327 259.324232 
L 147.726203 269.199457 
L 157.67026 275.51867 
L 170.330232 286.470769 
L 184.882594 296.681709 
L 192.84333 302.874384 
L 221.608351 325.992325 
L 230.164426 332.869344 
L 233.959501 335.919197 
" clip-path="url(#p0da8cd61bd)" style="fill: none; stroke: #e6482f; stroke-width: 0.2"/>
    <path d="M 219.401992 253.340735 
L 210.04298 272.830357 
L 207.987601 276.957085 
L 192.84333 302.874384 
" clip-path="url(#p0da8cd61bd)" style="fill: none; stroke: #e6482f; stroke-width: 0.2"/>
    <path d="M 147.726203 269.199457 
L 149.848494 257.129164 
" clip-path="url(#p0da8cd61bd)" style="fill: none; stroke: #e6482f; stroke-width: 0.2"/>
    <path d="M 132.187327 259.324232 
L 141.112273 259.641872 
L 145.377443 257.436474 
" clip-path="url(#p0da8cd61bd)" style="fill: none; stroke: #e6482f; stroke-width: 0.2"/>
    <path d="M 197.214872 241.164563 
L 186.284301 264.086239 
" clip-path="url(#p0da8cd61bd)" style="fill: none; stroke: #e6482f; stroke-width: 0.2"/>
    <path d="M 154.007292 250.587861 
L 149.848494 257.129164 
L 145.377443 257.436474 
L 127.295935 249.924176 
L 124.398159 248.966093 
L 120.256517 248.090649 
L 115.102627 246.189978 
" clip-path="url(#p0da8cd61bd)" style="fill: none; stroke: #e6482f; stroke-width: 0.2"/>
    <path d="M 158.349668 225.295512 
L 156.606541 235.209472 
L 154.007292 250.587861 
" clip-path="url(#p0da8cd61bd)" style="fill: none; stroke: #e6482f; stroke-width: 0.2"/>
    <path d="M 118.621524 215.650866 
L 120.994258 216.094303 
L 142.445353 221.32373 
L 158.349668 225.295512 
L 169.072642 228.208496 
L 171.757674 229.058117 
L 176.813771 231.488186 
L 184.954653 236.221786 
L 197.214872 241.164563 
L 219.401992 253.340735 
L 227.733314 257.131747 
L 233.806806 259.830389 
L 261.188992 273.646406 
L 268.065421 277.357363 
L 271.961721 278.671821 
L 274.830331 279.289023 
L 280.179808 279.459463 
" clip-path="url(#p0da8cd61bd)" style="fill: none; stroke: #e6482f; stroke-width: 0.2"/>
    <path d="M 121.360064 215.062935 
L 120.994258 216.094303 
L 117.149428 225.114741 
L 112.203135 241.350498 
" clip-path="url(#p0da8cd61bd)" style="fill: none; stroke: #e6482f; stroke-width: 0.2"/>
   </g>
   <g id="LineCollection_2">
    <path d="M 283.720963 237.190199 
L 287.318735 243.550731 
L 289.37583 246.990532 
L 290.995428 249.420602 
L 302.229674 267.063784 
L 308.30145 275.464439 
L 312.789658 280.556997 
L 316.19699 284.100095 
L 321.965093 289.598095 
L 330.061367 297.187866 
L 335.597853 302.257182 
" clip-path="url(#p0da8cd61bd)" style="fill: none; stroke-dasharray: 3.7,1.6; stroke-dashoffset: 0; stroke: #e6482f"/>
   </g>
  </g>
 </g>
 <defs>
  <clipPath id="p0da8cd61bd">
   <rect x="7.2" y="7.2" width="837" height="726.218918"/>
  </clipPath>
 </defs>
</svg>
