<?xml version="1.0" encoding="utf-8" standalone="no"?>
<!DOCTYPE svg PUBLIC "-//W3C//DTD SVG 1.1//EN"
  "http://www.w3.org/Graphics/SVG/1.1/DTD/svg11.dtd">
<svg xmlns:xlink="http://www.w3.org/1999/xlink" width="832.947487pt" height="846pt" viewBox="0 0 832.947487 846" xmlns="http://www.w3.org/2000/svg" version="1.1">
 <metadata>
  <rdf:RDF xmlns:dc="http://purl.org/dc/elements/1.1/" xmlns:cc="http://creativecommons.org/ns#" xmlns:rdf="http://www.w3.org/1999/02/22-rdf-syntax-ns#">
   <cc:Work>
    <dc:type rdf:resource="http://purl.org/dc/dcmitype/StillImage"/>
    <dc:date>2025-03-16T14:29:49.195923</dc:date>
    <dc:format>image/svg+xml</dc:format>
    <dc:creator>
     <cc:Agent>
      <dc:title>Matplotlib v3.10.1, https://matplotlib.org/</dc:title>
     </cc:Agent>
    </dc:creator>
   </cc:Work>
  </rdf:RDF>
 </metadata>
 <defs>
  <style type="text/css">*{stroke-linejoin: round; stroke-linecap: butt}</style>
 </defs>
 <g id="figure_1">
  <g id="patch_1">
   <path d="M 0 846 
L 832.947487 846 
L 832.947487 0 
L 0 0 
z
" style="fill: #ffffff"/>
  </g>
  <g id="axes_1">
   <g id="PatchCollection_1">
    <path d="M 44.406704 72.742145 
L 48.758389 105.335311 
L 50.685525 134.219108 
L 55.393644 198.337894 
L 55.469452 238.856528 
L 64.191441 324.091871 
L 54.809784 484.504002 
L 75.115872 482.607257 
L 92.777966 570.943087 
L 143.624315 556.8547 
L 159.976382 569.729331 
L 176.687542 561.18096 
L 190.718799 552.097816 
L 200.160306 550.124961 
L 206.612024 549.431958 
L 211.374672 552.428294 
L 213.321758 556.898764 
L 213.347027 560.846476 
L 210.405118 566.162169 
L 213.014533 574.051585 
L 204.731437 586.103025 
L 190.08307 609.358678 
L 179.761119 625.365842 
L 175.433374 630.681534 
L 187.79551 636.19351 
L 191.83598 640.98244 
L 196.830044 641.745544 
L 203.586326 643.926701 
L 211.590128 647.489857 
L 224.965706 647.29157 
L 228.843919 645.813431 
L 231.894886 644.000808 
L 236.596355 647.748231 
L 240.385459 644.425423 
L 246.325136 639.530339 
L 248.731064 651.886219 
L 253.908665 670.671403 
L 259.35758 691.998265 
L 264.972743 713.669625 
L 273.477946 730.784392 
L 293.186874 725.903328 
L 319.621496 720.082906 
L 353.989431 710.951692 
L 359.024724 724.126758 
L 361.729897 737.582229 
L 366.16138 754.194268 
L 370.310908 766.387913 
L 372.598469 773.466156 
L 374.83549 783.45461 
L 383.754315 791.293954 
L 397.302791 795.069418 
L 409.723446 800.0326 
L 462.58338 794.144079 
L 466.557351 791.792676 
L 497.664182 801 
L 502.515938 786.867549 
L 520.209952 733.63051 
L 518.854705 729.420418 
L 528.628706 699.947768 
L 543.96733 653.494546 
L 555.740286 618.600051 
L 575.217799 560.804415 
L 580.782422 542.682191 
L 595.622305 489.385065 
L 615.242125 420.040718 
L 637.50195 340.711922 
L 706.564993 356.478738 
L 776.911465 372.457861 
L 783.413722 353.570529 
L 783.689027 352.76937 
L 788.540783 315.032762 
L 737.099934 300.337496 
L 728.788908 297.110827 
L 637.48998 272.595351 
L 635.590773 272.168734 
L 622.441291 269.198435 
L 603.020967 264.778039 
L 598.130642 263.644398 
L 593.365334 262.468697 
L 588.262213 261.28899 
L 568.884448 255.272283 
L 562.378201 253.201286 
L 549.450825 248.798915 
L 539.277831 245.686411 
L 523.384607 241.19391 
L 499.49423 234.097641 
L 489.573932 231.151378 
L 475.716902 226.845146 
L 450.974011 218.324817 
L 439.852744 214.210863 
L 411.17312 202.233531 
L 285.007516 146.072261 
L 282.039007 144.996704 
L 275.375823 142.635287 
L 243.175751 128.370645 
L 222.485299 119.455744 
L 156.418694 91.142773 
L 139.010625 83.29742 
L 91.780483 62.615491 
L 66.380583 45 
L 44.406704 72.742145 
" clip-path="url(#pf00c5dc337)" style="fill: #fbd6c9"/>
   </g>
   <g id="PatchCollection_2">
    <path d="M 295.091401 708.023455 
L 291.984575 709.161101 
L 290.002909 703.743261 
L 293.109736 702.605614 
L 295.091401 708.023455 
" clip-path="url(#pf00c5dc337)" style="fill: #e6482f"/>
    <path d="M 287.452014 701.445936 
L 284.581923 702.427357 
L 279.504071 687.577868 
L 282.374162 686.596448 
L 287.452014 701.445936 
" clip-path="url(#pf00c5dc337)" style="fill: #e6482f"/>
    <path d="M 300.151964 675.460333 
L 294.687088 686.438219 
L 292.86768 685.532909 
L 298.331225 674.55302 
L 300.151964 675.460333 
" clip-path="url(#pf00c5dc337)" style="fill: #e6482f"/>
    <path d="M 282.943392 675.959055 
L 283.408884 676.195397 
L 280.72499 681.479042 
L 278.905582 680.553703 
L 281.589475 675.27206 
L 282.943392 675.959055 
" clip-path="url(#pf00c5dc337)" style="fill: #e6482f"/>
    <path d="M 294.381194 670.727484 
L 288.917648 681.70537 
L 287.09824 680.80006 
L 292.561785 669.820171 
L 294.381194 670.727484 
" clip-path="url(#pf00c5dc337)" style="fill: #e6482f"/>
    <path d="M 285.091305 671.238223 
L 285.212332 671.296307 
L 282.943392 675.959055 
L 281.589475 675.27206 
L 281.179842 675.065762 
L 283.428833 670.447078 
L 285.091305 671.238223 
" clip-path="url(#pf00c5dc337)" style="fill: #e6482f"/>
    <path d="M 287.64486 666.034693 
L 285.091305 671.238223 
L 283.428833 670.447078 
L 283.178798 670.324901 
L 285.741663 665.101342 
L 287.64486 666.034693 
" clip-path="url(#pf00c5dc337)" style="fill: #e6482f"/>
    <path d="M 301.782515 661.888693 
L 300.730504 663.961693 
L 289.549387 658.285479 
L 290.601399 656.210477 
L 301.782515 661.888693 
" clip-path="url(#pf00c5dc337)" style="fill: #e6482f"/>
    <path d="M 288.408267 653.792978 
L 282.702666 665.035247 
L 280.997635 664.169995 
L 286.703237 652.927726 
L 288.408267 653.792978 
" clip-path="url(#pf00c5dc337)" style="fill: #e6482f"/>
    <path d="M 297.202075 636.477922 
L 291.948666 646.670672 
L 290.122607 645.623156 
L 295.252329 635.466458 
L 297.202075 636.477922 
" clip-path="url(#pf00c5dc337)" style="fill: #e6482f"/>
    <path d="M 288.635693 635.113948 
L 286.627428 639.211878 
L 279.948284 635.975194 
L 278.309752 639.17182 
L 283.963484 641.917794 
L 282.734585 644.130996 
L 277.28434 641.138666 
L 276.014212 643.802521 
L 273.310369 642.490623 
L 279.129018 630.483247 
L 288.635693 635.113948 
" clip-path="url(#pf00c5dc337)" style="fill: #e6482f"/>
    <path d="M 292.481987 584.348486 
L 294.845356 585.498149 
L 293.056537 588.883048 
L 290.694497 587.669291 
L 292.481987 584.348486 
" clip-path="url(#pf00c5dc337)" style="fill: #e6482f"/>
    <path d="M 294.927814 569.925615 
L 292.596365 574.245866 
L 290.594749 573.164301 
L 292.926199 568.846052 
L 294.927814 569.925615 
" clip-path="url(#pf00c5dc337)" style="fill: #e6482f"/>
    <path d="M 89.139149 408.385852 
L 89.601981 411.624539 
L 90.655323 411.474321 
L 91.134114 414.82517 
L 86.698641 415.458086 
L 86.862228 416.605747 
L 81.925354 417.310767 
L 80.821473 409.573571 
L 89.139149 408.385852 
" clip-path="url(#pf00c5dc337)" style="fill: #e6482f"/>
    <path d="M 343.894906 705.646014 
L 339.527262 706.473211 
L 339.084379 704.137832 
L 338.399441 704.26802 
L 338.134776 702.869997 
L 343.187358 701.912612 
L 343.894906 705.646014 
" clip-path="url(#pf00c5dc337)" style="fill: #e6482f"/>
    <path d="M 335.349804 666.30909 
L 336.435065 669.567806 
L 340.968957 668.67251 
L 338.733265 658.581908 
L 341.224312 657.942984 
L 344.609104 673.39935 
L 342.309573 673.845997 
L 341.607346 670.971838 
L 337.073454 671.993316 
L 338.094876 676.912434 
L 335.860515 677.294988 
L 333.050274 666.819829 
L 335.349804 666.30909 
" clip-path="url(#pf00c5dc337)" style="fill: #e6482f"/>
    <path d="M 339.196097 640.806185 
L 342.083477 652.699396 
L 339.646959 653.290251 
L 336.760909 641.39704 
L 339.196097 640.806185 
" clip-path="url(#pf00c5dc337)" style="fill: #e6482f"/>
    <path d="M 343.761908 610.257979 
L 345.847312 611.323521 
L 340.240129 622.297401 
L 338.156055 621.231859 
L 343.761908 610.257979 
" clip-path="url(#pf00c5dc337)" style="fill: #e6482f"/>
    <path d="M 341.995699 608.319174 
L 340.603213 611.041112 
L 329.547114 605.384927 
L 330.93827 602.662989 
L 341.995699 608.319174 
" clip-path="url(#pf00c5dc337)" style="fill: #e6482f"/>
    <path d="M 319.178614 712.572037 
L 334.652896 709.038924 
L 334.41084 707.979391 
L 336.103901 707.592831 
L 336.788839 710.597179 
L 319.622826 714.514848 
L 319.178614 712.572037 
" clip-path="url(#pf00c5dc337)" style="fill: #e6482f"/>
    <path d="M 314.346808 714.883382 
L 302.321156 718.484593 
L 301.713357 716.451651 
L 312.007378 713.36919 
L 309.197137 703.979603 
L 310.927437 703.460852 
L 314.346808 714.883382 
" clip-path="url(#pf00c5dc337)" style="fill: #e6482f"/>
    <path d="M 308.207634 704.055713 
L 296.31099 707.87524 
L 295.606102 705.678061 
L 307.501416 701.858533 
L 308.207634 704.055713 
" clip-path="url(#pf00c5dc337)" style="fill: #e6482f"/>
    <path d="M 290.816855 699.18867 
L 306.289807 695.65756 
L 306.049081 694.598027 
L 307.742142 694.211467 
L 308.42708 697.213812 
L 291.259738 701.131481 
L 290.816855 699.18867 
" clip-path="url(#pf00c5dc337)" style="fill: #e6482f"/>
    <path d="M 323.574188 691.868076 
L 324.224547 694.684151 
L 315.858992 696.618951 
L 315.208633 693.802876 
L 323.574188 691.868076 
" clip-path="url(#pf00c5dc337)" style="fill: #e6482f"/>
    <path d="M 310.469925 684.176947 
L 307.134343 693.560525 
L 305.279025 692.899569 
L 308.615937 683.517993 
L 310.469925 684.176947 
" clip-path="url(#pf00c5dc337)" style="fill: #e6482f"/>
    <path d="M 321.315887 689.87319 
L 318.991087 690.337862 
L 315.413449 672.443968 
L 317.738249 671.977293 
L 321.315887 689.87319 
" clip-path="url(#pf00c5dc337)" style="fill: #e6482f"/>
    <path d="M 312.370462 667.030134 
L 306.781899 678.518759 
L 304.828163 677.567382 
L 310.418056 666.08076 
L 312.370462 667.030134 
" clip-path="url(#pf00c5dc337)" style="fill: #e6482f"/>
    <path d="M 302.68291 657.282027 
L 304.191104 654.437911 
L 305.491821 655.126909 
L 306.421475 655.619622 
L 304.913281 658.463737 
L 302.68291 657.282027 
" clip-path="url(#pf00c5dc337)" style="fill: #e6482f"/>
    <path d="M 313.197708 645.519005 
L 307.786031 656.344671 
L 306.421475 655.619622 
L 305.491821 655.126909 
L 310.874238 644.357324 
L 313.197708 645.519005 
" clip-path="url(#pf00c5dc337)" style="fill: #e6482f"/>
    <path d="M 329.975367 643.335846 
L 332.580792 654.327752 
L 330.517998 654.818462 
L 327.911243 643.824553 
L 329.975367 643.335846 
" clip-path="url(#pf00c5dc337)" style="fill: #e6482f"/>
    <path d="M 305.401383 641.539246 
L 300.101425 652.332865 
L 297.930902 651.311387 
L 303.167021 640.453675 
L 305.401383 641.539246 
" clip-path="url(#pf00c5dc337)" style="fill: #e6482f"/>
    <path d="M 320.720057 637.541461 
L 319.483179 640.069119 
L 313.829447 637.349183 
L 314.939977 634.711365 
L 320.720057 637.541461 
" clip-path="url(#pf00c5dc337)" style="fill: #e6482f"/>
    <path d="M 297.264584 631.869253 
L 307.545306 636.850461 
L 306.522553 638.95751 
L 296.30567 634.104487 
L 297.264584 631.869253 
" clip-path="url(#pf00c5dc337)" style="fill: #e6482f"/>
    <path d="M 333.040964 624.692868 
L 336.053362 624.973273 
L 334.930861 637.030722 
L 331.917133 636.750316 
L 333.040964 624.692868 
" clip-path="url(#pf00c5dc337)" style="fill: #e6482f"/>
    <path d="M 301.384852 623.53319 
L 311.996738 628.680638 
L 310.948717 630.841766 
L 300.33816 625.694317 
L 301.384852 623.53319 
" clip-path="url(#pf00c5dc337)" style="fill: #e6482f"/>
    <path d="M 316.637028 620.905387 
L 324.545071 624.672839 
L 322.991658 627.496925 
L 320.403523 626.273155 
L 320.732027 625.520065 
L 315.602306 623.11859 
L 316.637028 620.905387 
" clip-path="url(#pf00c5dc337)" style="fill: #e6482f"/>
    <path d="M 305.946673 609.965556 
L 307.84588 610.906918 
L 302.633701 621.414123 
L 300.733164 620.472761 
L 305.946673 609.965556 
" clip-path="url(#pf00c5dc337)" style="fill: #e6482f"/>
    <path d="M 309.965864 607.055345 
L 320.709418 612.537277 
L 319.618836 614.676373 
L 308.875283 609.19444 
L 309.965864 607.055345 
" clip-path="url(#pf00c5dc337)" style="fill: #e6482f"/>
    <path d="M 322.756252 606.170064 
L 328.546972 609.090289 
L 327.322063 611.537831 
L 321.438245 608.619608 
L 322.756252 606.170064 
" clip-path="url(#pf00c5dc337)" style="fill: #e6482f"/>
    <path d="M 315.740624 595.88518 
L 326.760813 601.266968 
L 325.529254 603.79062 
L 314.509065 598.408832 
L 315.740624 595.88518 
" clip-path="url(#pf00c5dc337)" style="fill: #e6482f"/>
    <path d="M 319.594897 592.360079 
L 323.994461 583.91586 
L 334.217994 589.243569 
L 329.8171 597.687789 
L 319.594897 592.360079 
" clip-path="url(#pf00c5dc337)" style="fill: #e6482f"/>
    <path d="M 308.589337 583.65348 
L 307.579885 585.746509 
L 303.684382 583.86779 
L 304.693835 581.774761 
L 308.589337 583.65348 
" clip-path="url(#pf00c5dc337)" style="fill: #e6482f"/>
    <path d="M 300.026946 579.725796 
L 298.986904 581.714674 
L 294.637879 579.441385 
L 295.677921 577.452507 
L 300.026946 579.725796 
" clip-path="url(#pf00c5dc337)" style="fill: #e6482f"/>
    <path d="M 308.021437 575.127142 
L 312.095157 577.176107 
L 311.158853 579.034796 
L 307.086464 576.983828 
L 308.021437 575.127142 
" clip-path="url(#pf00c5dc337)" style="fill: #e6482f"/>
    <path d="M 299.113252 570.416325 
L 303.411737 572.573446 
L 302.487403 574.416113 
L 298.187588 572.260994 
L 299.113252 570.416325 
" clip-path="url(#pf00c5dc337)" style="fill: #e6482f"/>
    <path d="M 326.034645 571.229501 
L 324.965344 573.58491 
L 320.184077 571.301606 
L 321.468834 568.876096 
L 326.034645 571.229501 
" clip-path="url(#pf00c5dc337)" style="fill: #e6482f"/>
    <path d="M 336.822088 582.165327 
L 334.233953 587.248683 
L 332.163179 586.213184 
L 334.704765 581.129828 
L 336.822088 582.165327 
" clip-path="url(#pf00c5dc337)" style="fill: #e6482f"/>
    <path d="M 338.940742 577.410446 
L 337.952569 579.811921 
L 333.24578 577.552652 
L 334.515908 575.245313 
L 338.940742 577.410446 
" clip-path="url(#pf00c5dc337)" style="fill: #e6482f"/>
    <path d="M 657.910446 286.805915 
L 657.439634 289.043152 
L 654.258329 288.374184 
L 654.729141 286.136947 
L 657.910446 286.805915 
" clip-path="url(#pf00c5dc337)" style="fill: #e6482f"/>
    <path d="M 572.666903 284.031901 
L 572.440807 284.949228 
L 571.273087 284.660811 
L 571.500513 283.743483 
L 572.666903 284.031901 
" clip-path="url(#pf00c5dc337)" style="fill: #e6482f"/>
    <path d="M 620.366527 278.179432 
L 619.919654 279.915945 
L 615.164987 278.694176 
L 615.611859 276.957664 
L 620.366527 278.179432 
" clip-path="url(#pf00c5dc337)" style="fill: #e6482f"/>
    <path d="M 610.006006 277.396298 
L 609.721391 278.37171 
L 608.477862 278.009185 
L 608.762478 277.033774 
L 610.006006 277.396298 
" clip-path="url(#pf00c5dc337)" style="fill: #e6482f"/>
    <path d="M 596.691607 275.902136 
L 597.173058 274.031429 
L 602.332039 275.359351 
L 601.850587 277.228055 
L 596.691607 275.902136 
" clip-path="url(#pf00c5dc337)" style="fill: #e6482f"/>
    <path d="M 629.120435 271.263424 
L 628.537905 273.462606 
L 623.461383 272.118661 
L 624.043913 269.919479 
L 629.120435 271.263424 
" clip-path="url(#pf00c5dc337)" style="fill: #e6482f"/>
    <path d="M 592.363862 272.150708 
L 592.946392 270.009609 
L 596.921693 271.091174 
L 596.337833 273.232273 
L 592.363862 272.150708 
" clip-path="url(#pf00c5dc337)" style="fill: #e6482f"/>
    <path d="M 590.066991 268.323169 
L 589.626769 269.586998 
L 588.199704 269.090279 
L 588.638596 267.82645 
L 590.066991 268.323169 
" clip-path="url(#pf00c5dc337)" style="fill: #e6482f"/>
    <path d="M 584.647335 266.718847 
L 584.236372 268.174954 
L 581.904923 267.516001 
L 582.315886 266.059894 
L 584.647335 266.718847 
" clip-path="url(#pf00c5dc337)" style="fill: #e6482f"/>
    <path d="M 567.936175 265.246717 
L 567.482653 266.79696 
L 560.14251 264.64785 
L 560.596032 263.09961 
L 567.936175 265.246717 
" clip-path="url(#pf00c5dc337)" style="fill: #e6482f"/>
   </g>
   <g id="LineCollection_1">
    <path d="M 394.82674 794.379433 
L 395.141578 794.148085 
L 395.712138 792.471659 
L 396.004733 790.743157 
" clip-path="url(#pf00c5dc337)" style="fill: none; stroke: #e6482f; stroke-width: 0.2"/>
    <path d="M 375.97661 781.49177 
L 392.513544 778.641645 
" clip-path="url(#pf00c5dc337)" style="fill: none; stroke: #e6482f; stroke-width: 0.2"/>
    <path d="M 373.169029 769.005701 
L 371.346509 769.592303 
" clip-path="url(#pf00c5dc337)" style="fill: none; stroke: #e6482f; stroke-width: 0.2"/>
    <path d="M 388.739069 763.64194 
L 392.513544 778.641645 
L 396.004733 790.743157 
" clip-path="url(#pf00c5dc337)" style="fill: none; stroke: #e6482f; stroke-width: 0.2"/>
    <path d="M 372.843184 767.387359 
L 388.739069 763.64194 
L 410.434983 757.931676 
" clip-path="url(#pf00c5dc337)" style="fill: none; stroke: #e6482f; stroke-width: 0.2"/>
    <path d="M 556.360043 616.761046 
L 553.031123 614.990828 
L 513.35259 596.460012 
L 481.659239 586.663836 
L 467.457745 582.535863 
L 463.631402 581.418245 
" clip-path="url(#pf00c5dc337)" style="fill: none; stroke: #e6482f; stroke-width: 0.2"/>
    <path d="M 576.907414 555.301872 
L 574.681818 555.062106 
L 571.971325 554.204865 
L 568.618453 552.993112 
L 564.087221 551.350735 
L 559.413682 549.496051 
L 555.846684 548.104037 
L 551.851433 546.641921 
L 546.965098 545.037599 
L 545.538033 544.572927 
L 543.825022 543.895947 
L 542.21974 542.431829 
L 541.220928 541.326229 
L 540.329843 539.970266 
L 539.33103 538.650356 
L 538.18858 537.831171 
L 536.761515 536.903829 
L 535.263961 536.224847 
L 534.051022 535.369609 
L 533.266335 534.656577 
L 532.588047 533.799337 
L 532.909902 532.337221 
L 533.266335 530.945206 
L 533.872805 529.733453 
L 535.427548 527.594357 
" clip-path="url(#pf00c5dc337)" style="fill: none; stroke: #e6482f; stroke-width: 0.2"/>
    <path d="M 369.443763 752.409685 
L 406.821436 744.211822 
" clip-path="url(#pf00c5dc337)" style="fill: none; stroke: #e6482f; stroke-width: 0.2"/>
    <path d="M 365.867455 737.582229 
L 402.985782 727.539696 
" clip-path="url(#pf00c5dc337)" style="fill: none; stroke: #e6482f; stroke-width: 0.2"/>
    <path d="M 362.199379 722.378227 
L 400.183521 711.532533 
" clip-path="url(#pf00c5dc337)" style="fill: none; stroke: #e6482f; stroke-width: 0.2"/>
    <path d="M 358.234717 707.38453 
L 398.876153 697.321969 
" clip-path="url(#pf00c5dc337)" style="fill: none; stroke: #e6482f; stroke-width: 0.2"/>
    <path d="M 354.815347 693.15594 
L 376.507271 688.332961 
" clip-path="url(#pf00c5dc337)" style="fill: none; stroke: #e6482f; stroke-width: 0.2"/>
    <path d="M 376.067049 564.13123 
L 374.468416 568.231163 
L 371.96008 573.092197 
L 369.399874 575.808127 
L 365.844846 577.566672 
L 354.083859 600.626041 
L 351.896047 604.916249 
L 349.716215 609.362684 
L 345.311331 618.347686 
L 340.399726 627.649146 
L 339.721438 629.425717 
L 339.355695 630.993986 
L 339.877045 633.605765 
L 340.866548 637.635597 
L 342.918703 645.993692 
L 344.883079 653.995271 
L 345.677075 657.227949 
L 346.683868 661.183673 
L 350.250866 675.211973 
L 354.815347 693.15594 
L 358.234717 707.38453 
L 362.199379 722.378227 
L 365.867455 737.582229 
L 369.443763 752.409685 
L 372.843184 767.387359 
L 373.169029 769.005701 
L 375.97661 781.49177 
L 376.893461 785.263497 
" clip-path="url(#pf00c5dc337)" style="fill: none; stroke: #e6482f; stroke-width: 0.2"/>
    <path d="M 350.250866 675.211973 
L 370.884128 669.33547 
L 372.649008 669.451638 
L 374.521615 670.120606 
L 404.087003 687.271425 
" clip-path="url(#pf00c5dc337)" style="fill: none; stroke: #e6482f; stroke-width: 0.2"/>
    <path d="M 346.683868 661.183673 
L 372.167556 653.564648 
L 374.182471 653.352341 
L 376.162807 653.993268 
L 393.85549 663.983725 
L 411.278189 673.39935 
" clip-path="url(#pf00c5dc337)" style="fill: none; stroke: #e6482f; stroke-width: 0.2"/>
    <path d="M 333.342869 654.349784 
L 334.42813 654.285691 
L 336.024102 654.475967 
L 337.30221 655.307169 
L 337.691893 655.843946 
" clip-path="url(#pf00c5dc337)" style="fill: none; stroke: #e6482f; stroke-width: 0.2"/>
    <path d="M 335.514721 638.476814 
L 335.641069 640.489727 
L 336.15178 643.109518 
L 337.174532 647.005156 
L 338.132116 650.900793 
L 339.446133 655.393294 
" clip-path="url(#pf00c5dc337)" style="fill: none; stroke: #e6482f; stroke-width: 0.2"/>
    <path d="M 373.542752 621.354036 
L 364.820763 640.15324 
L 355.699781 642.584759 
L 342.918703 645.993692 
" clip-path="url(#pf00c5dc337)" style="fill: none; stroke: #e6482f; stroke-width: 0.2"/>
    <path d="M 363.501426 616.300724 
L 354.391084 634.208638 
L 355.699781 642.584759 
" clip-path="url(#pf00c5dc337)" style="fill: none; stroke: #e6482f; stroke-width: 0.2"/>
    <path d="M 283.971464 577.698863 
L 307.87647 589.211523 
L 312.861223 590.861911 
L 330.544597 600.129322 
L 349.716215 609.362684 
L 363.501426 616.300724 
L 373.542752 621.354036 
L 386.488748 627.869465 
L 407.318847 638.376669 
L 424.849273 647.221469 
" clip-path="url(#pf00c5dc337)" style="fill: none; stroke: #e6482f; stroke-width: 0.2"/>
    <path d="M 374.182471 653.352341 
L 386.488748 627.869465 
L 394.106856 620.787216 
L 405.217484 598.330719 
L 415.927788 575.583802 
L 419.381738 567.22771 
" clip-path="url(#pf00c5dc337)" style="fill: none; stroke: #e6482f; stroke-width: 0.2"/>
    <path d="M 345.212913 595.71894 
L 354.083859 600.626041 
L 366.293048 606.55462 
L 375.771794 611.155278 
L 386.627066 588.526532 
" clip-path="url(#pf00c5dc337)" style="fill: none; stroke: #e6482f; stroke-width: 0.2"/>
    <path d="M 366.293048 606.55462 
L 377.758779 583.849764 
" clip-path="url(#pf00c5dc337)" style="fill: none; stroke: #e6482f; stroke-width: 0.2"/>
    <path d="M 337.90868 544.729153 
L 331.214906 560.409844 
L 337.731793 563.638517 
L 345.670425 567.572209 
L 352.862941 571.135365 
L 365.844846 577.566672 
L 377.758779 583.849764 
L 386.627066 588.526532 
L 405.217484 598.330719 
L 422.932777 607.638188 
L 440.362125 617.015758 
" clip-path="url(#pf00c5dc337)" style="fill: none; stroke: #e6482f; stroke-width: 0.2"/>
    <path d="M 331.214906 560.409844 
L 327.018828 570.165962 
L 341.421149 576.717443 
" clip-path="url(#pf00c5dc337)" style="fill: none; stroke: #e6482f; stroke-width: 0.2"/>
    <path d="M 360.042156 536.933873 
L 352.86693 552.326147 
L 345.670425 567.572209 
L 341.421149 576.717443 
L 335.651709 589.135413 
L 330.544597 600.129322 
" clip-path="url(#pf00c5dc337)" style="fill: none; stroke: #e6482f; stroke-width: 0.2"/>
    <path d="M 352.862941 571.135365 
L 360.861422 556.384019 
L 368.088517 540.997753 
" clip-path="url(#pf00c5dc337)" style="fill: none; stroke: #e6482f; stroke-width: 0.2"/>
    <path d="M 398.876153 697.321969 
L 404.087003 687.271425 
L 411.278189 673.39935 
L 424.849273 647.221469 
L 440.362125 617.015758 
L 452.927747 592.552358 
L 454.767105 588.901074 
" clip-path="url(#pf00c5dc337)" style="fill: none; stroke: #e6482f; stroke-width: 0.2"/>
    <path d="M 393.85549 663.983725 
L 407.318847 638.376669 
L 422.932777 607.638188 
L 438.782112 576.437037 
" clip-path="url(#pf00c5dc337)" style="fill: none; stroke: #e6482f; stroke-width: 0.2"/>
    <path d="M 463.631402 581.418245 
L 447.5573 580.278596 
" clip-path="url(#pf00c5dc337)" style="fill: none; stroke: #e6482f; stroke-width: 0.2"/>
    <path d="M 352.839001 532.787873 
L 360.042156 536.933873 
L 368.088517 540.997753 
L 381.502664 547.773559 
L 400.723491 556.394033 
L 404.592394 560.117421 
L 408.237861 561.355212 
L 415.491556 565.238832 
L 416.504998 565.751574 
L 419.381738 567.22771 
L 438.782112 576.437037 
L 447.5573 580.278596 
L 449.28095 581.584486 
L 454.767105 588.901074 
" clip-path="url(#pf00c5dc337)" style="fill: none; stroke: #e6482f; stroke-width: 0.2"/>
    <path d="M 416.504998 565.751574 
L 424.371812 550.142987 
L 434.370579 530.101986 
L 442.077795 514.523443 
L 445.23383 508.709029 
L 448.578722 500.837638 
L 449.114703 499.303418 
L 449.378039 497.360606 
" clip-path="url(#pf00c5dc337)" style="fill: none; stroke: #e6482f; stroke-width: 0.2"/>
    <path d="M 487.806393 528.455604 
L 513.490908 525.959992 
" clip-path="url(#pf00c5dc337)" style="fill: none; stroke: #e6482f; stroke-width: 0.2"/>
    <path d="M 532.588047 533.799337 
L 530.400235 530.312291 
L 524.050925 527.101644 
L 516.059093 525.745682 
L 515.11215 525.563418 
L 513.490908 525.959992 
L 505.358099 522.106416 
L 494.224862 514.910002 
L 491.731155 522.034312 
L 487.806393 528.455604 
L 486.593454 529.24074 
L 483.104924 527.63041 
" clip-path="url(#pf00c5dc337)" style="fill: none; stroke: #e6482f; stroke-width: 0.2"/>
    <path d="M 445.23383 508.709029 
L 483.104924 527.63041 
" clip-path="url(#pf00c5dc337)" style="fill: none; stroke: #e6482f; stroke-width: 0.2"/>
    <path d="M 372.642358 481.864182 
L 397.32008 493.010311 
L 442.077795 514.523443 
" clip-path="url(#pf00c5dc337)" style="fill: none; stroke: #e6482f; stroke-width: 0.2"/>
    <path d="M 494.224862 514.910002 
L 460.636294 496.521392 
L 458.5203 495.910508 
L 456.641043 495.950566 
L 453.543526 496.787778 
L 451.432853 497.518835 
L 449.378039 497.360606 
L 447.401693 496.521392 
L 445.151372 495.539972 
L 441.164101 493.801456 
L 406.056699 478.915915 
" clip-path="url(#pf00c5dc337)" style="fill: none; stroke: #e6482f; stroke-width: 0.2"/>
    <path d="M 307.754112 528.621844 
L 316.390982 533.168424 
L 323.205784 536.983945 
L 330.515338 540.973719 
L 337.90868 544.729153 
L 345.306011 548.488593 
L 352.86693 552.326147 
L 360.861422 556.384019 
L 373.602601 562.833351 
L 376.067049 564.13123 
L 379.010288 563.89689 
L 401.416409 560.051326 
L 404.592394 560.117421 
" clip-path="url(#pf00c5dc337)" style="fill: none; stroke: #e6482f; stroke-width: 0.2"/>
    <path d="M 313.579411 577.059939 
L 330.515338 540.973719 
L 345.816723 511.162579 
L 353.726096 493.667262 
" clip-path="url(#pf00c5dc337)" style="fill: none; stroke: #e6482f; stroke-width: 0.2"/>
    <path d="M 424.371812 550.142987 
L 405.371761 540.715345 
L 381.521284 528.878215 
L 357.479291 516.948953 
L 345.816723 511.162579 
L 337.730463 508.975414 
" clip-path="url(#pf00c5dc337)" style="fill: none; stroke: #e6482f; stroke-width: 0.2"/>
    <path d="M 373.12115 492.283259 
L 367.242651 500.993864 
L 357.479291 516.948953 
L 351.993136 529.799549 
L 352.839001 532.787873 
L 345.306011 548.488593 
L 337.731793 563.638517 
" clip-path="url(#pf00c5dc337)" style="fill: none; stroke: #e6482f; stroke-width: 0.2"/>
    <path d="M 367.242651 500.993864 
L 389.169982 511.95773 
L 403.537723 519.142126 
L 406.56209 526.755143 
L 407.083441 535.307519 
L 405.371761 540.715345 
" clip-path="url(#pf00c5dc337)" style="fill: none; stroke: #e6482f; stroke-width: 0.2"/>
    <path d="M 393.139963 502.556125 
L 389.169982 511.95773 
L 381.521284 528.878215 
" clip-path="url(#pf00c5dc337)" style="fill: none; stroke: #e6482f; stroke-width: 0.2"/>
    <path d="M 372.642358 481.864182 
L 368.991571 489.407097 
L 373.12115 492.283259 
L 393.139963 502.556125 
L 409.626357 511.016368 
L 411.838109 515.661089 
L 411.985736 519.202213 
L 434.370579 530.101986 
" clip-path="url(#pf00c5dc337)" style="fill: none; stroke: #e6482f; stroke-width: 0.2"/>
    <path d="M 337.730463 508.975414 
L 334.295132 499.635899 
L 349.222794 466.111386 
" clip-path="url(#pf00c5dc337)" style="fill: none; stroke: #e6482f; stroke-width: 0.2"/>
    <path d="M 403.805048 480.838698 
L 379.664636 469.690565 
L 377.681641 470.854249 
L 369.942505 468.200409 
L 366.989956 468.64305 
L 364.589347 471.949835 
L 361.582269 471.953841 
L 349.222794 466.111386 
L 341.723054 462.690436 
" clip-path="url(#pf00c5dc337)" style="fill: none; stroke: #e6482f; stroke-width: 0.2"/>
    <path d="M 412.057555 467.587522 
L 390.541188 457.080317 
" clip-path="url(#pf00c5dc337)" style="fill: none; stroke: #e6482f; stroke-width: 0.2"/>
    <path d="M 466.03866 475.803411 
L 503.613169 494.758841 
" clip-path="url(#pf00c5dc337)" style="fill: none; stroke: #e6482f; stroke-width: 0.2"/>
    <path d="M 545.240118 504.340707 
L 527.147111 495.099334 
L 508.028693 485.291141 
L 471.25882 466.147438 
" clip-path="url(#pf00c5dc337)" style="fill: none; stroke: #e6482f; stroke-width: 0.2"/>
    <path d="M 445.151372 495.539972 
L 464.773852 454.570686 
" clip-path="url(#pf00c5dc337)" style="fill: none; stroke: #e6482f; stroke-width: 0.2"/>
    <path d="M 556.157899 480.912805 
L 537.094009 472.688904 
L 517.270702 464.887615 
L 477.162587 446.615173 
L 456.355098 434.735983 
L 454.011678 432.97143 
L 452.358517 430.950505 
L 451.361034 429.814862 
L 444.890696 425.318355 
L 437.450805 440.420209 
" clip-path="url(#pf00c5dc337)" style="fill: none; stroke: #e6482f; stroke-width: 0.2"/>
    <path d="M 417.785766 455.756401 
L 395.658939 444.17364 
" clip-path="url(#pf00c5dc337)" style="fill: none; stroke: #e6482f; stroke-width: 0.2"/>
    <path d="M 427.92684 434.980337 
L 437.450805 440.420209 
L 454.215165 449.717663 
L 464.773852 454.570686 
L 471.036713 456.164993 
" clip-path="url(#pf00c5dc337)" style="fill: none; stroke: #e6482f; stroke-width: 0.2"/>
    <path d="M 441.134841 408.786432 
L 487.652116 429.756778 
L 525.447401 447.664692 
L 543.797093 456.757851 
L 562.99664 466.095363 
" clip-path="url(#pf00c5dc337)" style="fill: none; stroke: #e6482f; stroke-width: 0.2"/>
    <path d="M 453.543526 496.787778 
L 466.03866 475.803411 
L 471.25882 466.147438 
L 471.036713 456.164993 
L 477.162587 446.615173 
L 487.652116 429.756778 
L 493.73144 417.793466 
L 496.842256 408.988724 
L 500.599441 402.058696 
L 504.787539 393.576421 
L 508.843968 385.176266 
L 512.597163 377.515179 
L 516.431487 369.57569 
L 520.676773 360.909149 
" clip-path="url(#pf00c5dc337)" style="fill: none; stroke: #e6482f; stroke-width: 0.2"/>
    <path d="M 430.483056 429.951059 
L 408.357559 418.662724 
L 378.27082 401.608044 
" clip-path="url(#pf00c5dc337)" style="fill: none; stroke: #e6482f; stroke-width: 0.2"/>
    <path d="M 395.658939 444.17364 
L 401.687725 431.046644 
L 408.357559 418.662724 
L 415.358558 405.507687 
L 422.793129 393.322053 
L 427.718034 384.921898 
" clip-path="url(#pf00c5dc337)" style="fill: none; stroke: #e6482f; stroke-width: 0.2"/>
    <path d="M 612.0688 361.143488 
L 594.015693 398.076934 
L 581.656217 424.807616 
L 571.993934 445.848063 
L 562.99664 466.095363 
L 556.157899 480.912805 
L 545.240118 504.340707 
L 535.427548 527.594357 
" clip-path="url(#pf00c5dc337)" style="fill: none; stroke: #e6482f; stroke-width: 0.2"/>
    <path d="M 592.350562 353.878976 
L 574.907914 388.559161 
L 561.83424 414.909292 
L 552.175948 437.045325 
L 543.797093 456.757851 
L 537.094009 472.688904 
L 527.147111 495.099334 
L 515.11215 525.563418 
" clip-path="url(#pf00c5dc337)" style="fill: none; stroke: #e6482f; stroke-width: 0.2"/>
    <path d="M 576.793821 347.651965 
L 565.90131 367.75105 
L 558.807213 381.004228 
L 545.636451 405.802113 
L 534.592322 427.004795 
L 525.447401 447.664692 
L 517.270702 464.887615 
L 508.028693 485.291141 
L 503.613169 494.758841 
L 494.224862 514.910002 
" clip-path="url(#pf00c5dc337)" style="fill: none; stroke: #e6482f; stroke-width: 0.2"/>
    <path d="M 583.79083 451.792666 
L 571.993934 445.848063 
L 552.175948 437.045325 
L 534.592322 427.004795 
L 496.842256 408.988724 
" clip-path="url(#pf00c5dc337)" style="fill: none; stroke: #e6482f; stroke-width: 0.2"/>
    <path d="M 508.843968 385.176266 
L 545.636451 405.802113 
L 561.83424 414.909292 
L 581.656217 424.807616 
L 584.862792 427.239134 
" clip-path="url(#pf00c5dc337)" style="fill: none; stroke: #e6482f; stroke-width: 0.2"/>
    <path d="M 785.036912 342.285617 
L 784.67188 342.196069 
" clip-path="url(#pf00c5dc337)" style="fill: none; stroke: #e6482f; stroke-width: 0.5"/>
    <path d="M 617.569585 408.159524 
L 617.612144 408.027333 
L 625.549544 383.307494 
" clip-path="url(#pf00c5dc337)" style="fill: none; stroke: #e6482f; stroke-width: 0.2"/>
    <path d="M 612.0688 361.143488 
L 630.033934 367.326181 
" clip-path="url(#pf00c5dc337)" style="fill: none; stroke: #e6482f; stroke-width: 0.2"/>
    <path d="M 604.127508 358.217254 
L 608.61352 357.618387 
L 612.526312 355.054677 
" clip-path="url(#pf00c5dc337)" style="fill: none; stroke: #e6482f; stroke-width: 0.2"/>
    <path d="M 784.67188 342.196069 
L 783.413722 353.570529 
" clip-path="url(#pf00c5dc337)" style="fill: none; stroke: #e6482f; stroke-width: 0.2"/>
    <path d="M 783.413722 353.570529 
L 776.911465 372.457861 
" clip-path="url(#pf00c5dc337)" style="fill: none; stroke: #e6482f; stroke-width: 0.2"/>
    <path d="M 637.287915 341.474692 
L 611.011469 335.644589 
" clip-path="url(#pf00c5dc337)" style="fill: none; stroke: #e6482f; stroke-width: 0.2"/>
    <path d="M 448.020132 396.124108 
L 470.995484 408.670264 
L 477.5536 410.384745 
L 493.73144 417.793466 
" clip-path="url(#pf00c5dc337)" style="fill: none; stroke: #e6482f; stroke-width: 0.2"/>
    <path d="M 384.695939 389.170045 
L 415.358558 405.507687 
L 436.901525 417.17457 
" clip-path="url(#pf00c5dc337)" style="fill: none; stroke: #e6482f; stroke-width: 0.2"/>
    <path d="M 397.32008 493.010311 
L 403.805048 480.838698 
L 406.056699 478.915915 
L 412.057555 467.587522 
L 417.785766 455.756401 
L 424.48752 442.10064 
L 427.92684 434.980337 
L 430.483056 429.951059 
L 436.901525 417.17457 
L 441.134841 408.786432 
L 443.338613 404.486209 
L 448.020132 396.124108 
L 452.628502 387.071008 
L 456.160921 379.093463 
L 460.226661 370.97171 
L 464.216592 362.863978 
L 468.91407 354.698161 
L 472.684555 347.167263 
L 477.036239 338.63091 
L 483.36028 326.182897 
L 493.829859 306.117861 
L 500.491713 293.249239 
L 501.471906 291.354497 
" clip-path="url(#pf00c5dc337)" style="fill: none; stroke: #e6482f; stroke-width: 0.2"/>
    <path d="M 443.338613 404.486209 
L 422.793129 393.322053 
L 391.125048 375.852774 
" clip-path="url(#pf00c5dc337)" style="fill: none; stroke: #e6482f; stroke-width: 0.2"/>
    <path d="M 477.5536 410.384745 
L 481.797557 402.337099 
L 485.703699 393.52034 
L 489.436945 386.045524 
L 493.835178 377.783568 
L 497.708071 369.645792 
L 501.538405 361.896578 
" clip-path="url(#pf00c5dc337)" style="fill: none; stroke: #e6482f; stroke-width: 0.2"/>
    <path d="M 496.842256 408.988724 
L 481.797557 402.337099 
L 452.628502 387.071008 
L 438.166333 379.560139 
L 399.244557 358.483639 
" clip-path="url(#pf00c5dc337)" style="fill: none; stroke: #e6482f; stroke-width: 0.2"/>
    <path d="M 448.020132 396.124108 
L 433.091141 387.543692 
L 427.718034 384.921898 
L 395.092369 367.456624 
" clip-path="url(#pf00c5dc337)" style="fill: none; stroke: #e6482f; stroke-width: 0.2"/>
    <path d="M 402.884704 351.531579 
L 406.613959 353.332184 
L 441.355618 371.768864 
L 456.160921 379.093463 
L 485.703699 393.52034 
L 500.599441 402.058696 
" clip-path="url(#pf00c5dc337)" style="fill: none; stroke: #e6482f; stroke-width: 0.2"/>
    <path d="M 413.355613 345.709153 
L 445.755181 363.440812 
L 460.226661 370.97171 
L 475.107773 378.638805 
L 489.436945 386.045524 
L 504.787539 393.576421 
" clip-path="url(#pf00c5dc337)" style="fill: none; stroke: #e6482f; stroke-width: 0.2"/>
    <path d="M 448.365926 322.733906 
L 462.145817 329.924311 
L 477.036239 338.63091 
L 491.475799 346.023608 
L 520.676773 360.909149 
L 558.807213 381.004228 
L 574.907914 388.559161 
L 594.015693 398.076934 
L 606.989618 404.730562 
L 617.569585 408.159524 
" clip-path="url(#pf00c5dc337)" style="fill: none; stroke: #e6482f; stroke-width: 0.2"/>
    <path d="M 379.664636 469.690565 
L 389.877529 449.020654 
L 393.355419 444.107545 
L 395.658939 444.17364 
" clip-path="url(#pf00c5dc337)" style="fill: none; stroke: #e6482f; stroke-width: 0.2"/>
    <path d="M 362.11027 435.615255 
L 379.014278 443.793089 
L 389.877529 449.020654 
" clip-path="url(#pf00c5dc337)" style="fill: none; stroke: #e6482f; stroke-width: 0.2"/>
    <path d="M 358.712179 441.553849 
L 339.871726 432.266409 
L 335.450882 443.136139 
L 331.573999 444.938747 
" clip-path="url(#pf00c5dc337)" style="fill: none; stroke: #e6482f; stroke-width: 0.2"/>
    <path d="M 371.9521 414.646912 
L 376.104288 416.539651 
L 388.953195 423.073106 
L 401.687725 431.046644 
L 424.48752 442.10064 
" clip-path="url(#pf00c5dc337)" style="fill: none; stroke: #e6482f; stroke-width: 0.2"/>
    <path d="M 468.820972 281.213823 
L 443.788145 298.37065 
L 388.934576 335.969058 
L 333.29233 373.096786 
" clip-path="url(#pf00c5dc337)" style="fill: none; stroke: #e6482f; stroke-width: 0.2"/>
    <path d="M 392.252868 343.764339 
L 391.706248 340.145102 
L 388.934576 335.969058 
L 371.170073 314.44391 
L 359.285399 299.61445 
" clip-path="url(#pf00c5dc337)" style="fill: none; stroke: #e6482f; stroke-width: 0.2"/>
    <path d="M 326.964299 344.551478 
L 371.170073 314.44391 
L 427.755273 278.487878 
L 447.195546 265.060447 
" clip-path="url(#pf00c5dc337)" style="fill: none; stroke: #e6482f; stroke-width: 0.2"/>
    <path d="M 305.381433 331.925207 
L 322.648524 323.06839 
L 359.285399 299.61445 
L 398.813645 271.147255 
L 423.944889 251.500825 
L 437.16353 241.997072 
" clip-path="url(#pf00c5dc337)" style="fill: none; stroke: #e6482f; stroke-width: 0.2"/>
    <path d="M 318.23433 297.074775 
L 339.233337 283.767518 
L 354.401724 274.155609 
L 388.189789 253.145205 
L 415.672432 238.826484 
L 420.738315 234.650441 
" clip-path="url(#pf00c5dc337)" style="fill: none; stroke: #e6482f; stroke-width: 0.2"/>
    <path d="M 354.401724 274.155609 
L 350.624589 259.252042 
L 342.586209 233.348557 
" clip-path="url(#pf00c5dc337)" style="fill: none; stroke: #e6482f; stroke-width: 0.2"/>
    <path d="M 265.963256 715.662805 
L 267.023568 714.649042 
" clip-path="url(#pf00c5dc337)" style="fill: none; stroke: #e6482f; stroke-width: 0.2"/>
    <path d="M 358.234717 707.38453 
L 317.69436 716.657949 
L 298.03863 721.55103 
L 291.13206 717.665407 
L 283.573801 707.721017 
L 283.551191 707.680959 
" clip-path="url(#pf00c5dc337)" style="fill: none; stroke: #e6482f; stroke-width: 0.2"/>
    <path d="M 247.458276 640.439655 
L 246.650551 641.201539 
" clip-path="url(#pf00c5dc337)" style="fill: none; stroke: #e6482f; stroke-width: 0.2"/>
    <path d="M 260.641008 691.391386 
L 259.535452 692.68475 
" clip-path="url(#pf00c5dc337)" style="fill: none; stroke: #e6482f; stroke-width: 0.2"/>
    <path d="M 247.458276 640.439655 
L 250.086311 651.814115 
L 255.406219 670.563246 
L 260.641008 691.391386 
L 267.023568 714.649042 
L 268.271237 720.307087 
" clip-path="url(#pf00c5dc337)" style="fill: none; stroke: #e6482f; stroke-width: 0.2"/>
    <path d="M 344.883079 653.995271 
L 339.446133 655.393294 
L 337.691893 655.843946 
L 333.23913 656.989604 
L 328.862176 658.087192 
L 325.957507 659.24687 
L 315.479948 664.71278 
" clip-path="url(#pf00c5dc337)" style="fill: none; stroke: #e6482f; stroke-width: 0.2"/>
    <path d="M 302.09639 651.736002 
L 302.061811 652.853619 
L 302.150919 653.422442 
L 302.369035 654.221598 
L 302.519323 655.066822 
L 302.68291 656.248532 
L 302.423564 657.446265 
" clip-path="url(#pf00c5dc337)" style="fill: none; stroke: #e6482f; stroke-width: 0.2"/>
    <path d="M 312.861223 590.861911 
L 297.543879 620.30652 
L 291.402045 632.115609 
L 285.135194 645.124434 
L 291.898127 649.198329 
L 291.368796 651.030981 
L 291.439285 651.888222 
L 292.011175 652.565201 
L 298.232807 655.589578 
L 302.423564 657.446265 
L 306.614322 659.629424 
L 315.479948 664.71278 
L 314.877469 665.766305 
L 313.825457 668.324006 
L 311.023195 685.214448 
L 310.668091 689.600795 
L 311.760003 696.05814 
L 314.521035 706.441165 
L 317.69436 716.657949 
" clip-path="url(#pf00c5dc337)" style="fill: none; stroke: #e6482f; stroke-width: 0.2"/>
    <path d="M 314.632753 644.321272 
L 316.001299 646.256072 
L 317.852627 648.108753 
L 319.640116 649.576877 
L 321.620452 651.429558 
L 323.790974 653.154054 
L 325.77131 654.686271 
L 327.303443 656.090303 
L 327.992371 656.959561 
L 328.862176 658.087192 
" clip-path="url(#pf00c5dc337)" style="fill: none; stroke: #e6482f; stroke-width: 0.2"/>
    <path d="M 331.107177 638.382678 
L 330.851822 640.810191 
L 331.681727 645.152475 
L 332.576802 648.855834 
L 333.342869 654.349784 
L 333.23913 656.989604 
" clip-path="url(#pf00c5dc337)" style="fill: none; stroke: #e6482f; stroke-width: 0.2"/>
    <path d="M 306.614322 659.629424 
L 307.353789 659.395085 
L 308.630567 656.649111 
L 309.779667 654.02932 
L 311.056445 651.539718 
L 312.079197 649.622944 
L 313.61133 646.812877 
L 314.632753 644.321272 
L 314.249719 643.427979 
L 311.439478 641.959855 
L 307.609144 640.235359 
L 303.649803 638.446771 
L 300.456528 637.168922 
L 298.514762 636.257603 
L 297.328423 635.700797 
L 294.645859 634.358855 
L 291.402045 632.115609 
" clip-path="url(#pf00c5dc337)" style="fill: none; stroke: #e6482f; stroke-width: 0.2"/>
    <path d="M 291.898127 649.198329 
L 293.624437 645.919585 
L 294.965054 643.299794 
L 296.433348 640.489727 
L 297.775295 637.807846 
L 298.514762 636.257603 
" clip-path="url(#pf00c5dc337)" style="fill: none; stroke: #e6482f; stroke-width: 0.2"/>
    <path d="M 312.657737 628.552453 
L 311.758673 631.102143 
L 309.715828 634.487041 
L 307.609144 640.235359 
L 305.955983 643.454017 
L 304.720435 645.913576 
L 303.185641 649.402625 
L 302.09639 651.736002 
L 300.137334 653.071935 
L 299.052073 654.413877 
L 298.578601 654.956662 
L 298.232807 655.589578 
" clip-path="url(#pf00c5dc337)" style="fill: none; stroke: #e6482f; stroke-width: 0.2"/>
    <path d="M 259.430729 626.419366 
L 256.859884 630.302986 
L 252.45101 635.147997 
L 247.458276 640.439655 
" clip-path="url(#pf00c5dc337)" style="fill: none; stroke: #e6482f; stroke-width: 0.2"/>
    <path d="M 255.406219 670.563246 
L 254.229767 671.928186 
" clip-path="url(#pf00c5dc337)" style="fill: none; stroke: #e6482f; stroke-width: 0.2"/>
    <path d="M 186.206188 625.03336 
L 189.579009 629.003105 
L 194.071671 631.682983 
L 203.189993 635.366313 
L 212.192607 639.562385 
L 217.000474 642.632828 
L 228.113762 644.227136 
L 230.58087 644.781484 
" clip-path="url(#pf00c5dc337)" style="fill: none; stroke: #e6482f; stroke-width: 0.2"/>
    <path d="M 233.198263 617.518486 
L 239.060802 626.825954 
L 241.534559 630.034598 
L 247.458276 640.439655 
" clip-path="url(#pf00c5dc337)" style="fill: none; stroke: #e6482f; stroke-width: 0.2"/>
    <path d="M 217.717332 579.09288 
L 215.262194 581.650582 
L 211.955871 583.302973 
L 199.585756 602.544818 
L 196.130476 605.182635 
L 187.23027 619.609512 
L 186.206188 625.03336 
L 186.002701 629.125282 
L 187.33898 635.989954 
" clip-path="url(#pf00c5dc337)" style="fill: none; stroke: #e6482f; stroke-width: 0.2"/>
    <path d="M 226.08102 646.86648 
L 228.113762 644.227136 
" clip-path="url(#pf00c5dc337)" style="fill: none; stroke: #e6482f; stroke-width: 0.2"/>
    <path d="M 212.268039 571.794602 
L 228.120411 547.659393 
L 236.753292 531.441925 
" clip-path="url(#pf00c5dc337)" style="fill: none; stroke: #e6482f; stroke-width: 0.2"/>
    <path d="M 297.543879 620.30652 
L 306.394876 625.099456 
L 312.657737 628.552453 
L 315.079625 629.888386 
L 321.592522 633.848116 
L 325.807219 635.700797 
L 326.957649 636.976643 
L 329.447366 638.254493 
L 331.107177 638.382678 
L 335.514721 638.476814 
L 337.046855 638.510864 
L 340.866548 637.635597 
" clip-path="url(#pf00c5dc337)" style="fill: none; stroke: #e6482f; stroke-width: 0.2"/>
    <path d="M 307.87647 589.211523 
L 313.579411 577.059939 
" clip-path="url(#pf00c5dc337)" style="fill: none; stroke: #e6482f; stroke-width: 0.2"/>
    <path d="M 313.579411 577.059939 
L 335.651709 589.135413 
" clip-path="url(#pf00c5dc337)" style="fill: none; stroke: #e6482f; stroke-width: 0.2"/>
    <path d="M 305.458572 571.505901 
L 302.009941 569.823467 
L 298.328565 567.930728 
L 293.490109 565.825682 
L 290.195756 564.273435 
" clip-path="url(#pf00c5dc337)" style="fill: none; stroke: #e6482f; stroke-width: 0.2"/>
    <path d="M 236.753292 531.441925 
L 241.688836 524.678137 
L 244.915361 527.554299 
L 255.725413 533.516928 
L 257.318726 534.179887 
L 264.226626 536.961913 
L 273.934128 549.870593 
L 275.108497 559.792952 
L 278.735345 562.032192 
L 281.082754 567.153603 
L 283.971464 577.698863 
" clip-path="url(#pf00c5dc337)" style="fill: none; stroke: #e6482f; stroke-width: 0.2"/>
    <path d="M 305.458572 571.505901 
L 323.205784 536.983945 
L 337.730463 508.975414 
" clip-path="url(#pf00c5dc337)" style="fill: none; stroke: #e6482f; stroke-width: 0.2"/>
    <path d="M 308.941781 548.404472 
L 316.390982 533.168424 
L 330.38234 504.857455 
" clip-path="url(#pf00c5dc337)" style="fill: none; stroke: #e6482f; stroke-width: 0.2"/>
    <path d="M 264.226626 536.961913 
L 292.233281 517.263408 
L 301.391502 510.822086 
L 301.693407 506.145319 
" clip-path="url(#pf00c5dc337)" style="fill: none; stroke: #e6482f; stroke-width: 0.2"/>
    <path d="M 337.730463 508.975414 
L 330.38234 504.857455 
L 321.371746 500.002429 
" clip-path="url(#pf00c5dc337)" style="fill: none; stroke: #e6482f; stroke-width: 0.2"/>
    <path d="M 404.86637 348.058553 
L 404.227981 349.17617 
L 402.884704 351.531579 
L 399.244557 358.483639 
L 395.092369 367.456624 
L 391.125048 375.852774 
L 384.695939 389.170045 
L 378.27082 401.608044 
L 371.9521 414.646912 
L 362.11027 435.615255 
L 358.712179 441.553849 
L 353.272573 452.822155 
L 349.607157 457.024236 
L 341.723054 462.690436 
L 339.154868 465.604653 
L 336.404476 470.033061 
L 328.759768 484.477964 
L 321.371746 500.002429 
L 307.754112 528.621844 
L 305.5397 532.78587 
L 299.613323 543.962043 
L 293.209484 557.77403 
L 290.195756 564.273435 
L 283.971464 577.698863 
L 266.496897 614.04546 
L 259.430729 626.419366 
" clip-path="url(#pf00c5dc337)" style="fill: none; stroke: #e6482f; stroke-width: 0.2"/>
    <path d="M 106.870402 420.990091 
L 76.875432 426.453998 
L 66.642589 428.144444 
L 58.018923 429.632578 
" clip-path="url(#pf00c5dc337)" style="fill: none; stroke: #e6482f; stroke-width: 0.5"/>
    <path d="M 65.97228 415.968825 
L 58.566486 420.270082 
" clip-path="url(#pf00c5dc337)" style="fill: none; stroke: #e6482f; stroke-width: 0.2"/>
    <path d="M 66.642589 428.144444 
L 65.97228 415.968825 
L 65.303302 403.831261 
" clip-path="url(#pf00c5dc337)" style="fill: none; stroke: #e6482f; stroke-width: 0.2"/>
    <path d="M 76.875432 426.453998 
L 75.439056 408.143501 
L 104.936615 403.448708 
L 108.393226 404.426122 
L 109.115403 410.412785 
L 109.812311 420.529425 
" clip-path="url(#pf00c5dc337)" style="fill: none; stroke: #e6482f; stroke-width: 0.2"/>
    <path d="M 233.122455 581.684631 
L 229.576736 587.945691 
L 239.383986 597.980212 
L 233.198263 617.518486 
" clip-path="url(#pf00c5dc337)" style="fill: none; stroke: #e6482f; stroke-width: 0.2"/>
    <path d="M 150.82481 543.25502 
L 162.773323 543.789794 
L 172.693622 541.015779 
L 182.081929 537.280374 
L 189.443351 534.93498 
L 236.753292 531.441925 
" clip-path="url(#pf00c5dc337)" style="fill: none; stroke: #e6482f; stroke-width: 0.2"/>
    <path d="M 241.688836 524.678137 
L 238.692398 520.021399 
L 233.368501 513.682225 
L 226.880873 507.497275 
L 219.631169 506.00111 
L 211.959861 503.579606 
L 205.607891 498.444175 
L 201.185718 493.813473 
L 198.289028 488.882338 
L 197.949884 484.497993 
L 199.507287 479.83124 
L 203.193983 466.007235 
L 204.249985 457.861448 
L 208.0218 453.18468 
L 213.605043 451.22184 
L 217.82905 451.22184 
L 219.941053 453.787552 
" clip-path="url(#pf00c5dc337)" style="fill: none; stroke: #e6482f; stroke-width: 0.2"/>
    <path d="M 160.513693 412.573913 
L 163.160347 416.605747 
L 164.801538 419.219529 
L 166.131515 420.108816 
L 168.654482 420.445303 
L 170.179965 420.004665 
L 171.008541 418.149982 
L 171.779927 414.73504 
L 171.964794 410.486892 
" clip-path="url(#pf00c5dc337)" style="fill: none; stroke: #e6482f; stroke-width: 0.2"/>
    <path d="M 130.573251 395.437114 
L 177.634486 391.631607 
L 223.720848 387.471587 
L 240.247141 387.345405 
" clip-path="url(#pf00c5dc337)" style="fill: none; stroke: #e6482f; stroke-width: 0.2"/>
    <path d="M 292.674833 390.588097 
L 291.343526 385.747092 
L 272.977874 376.179246 
L 253.564201 366.026554 
L 230.155276 364.670592 
L 179.198539 366.789659 
L 129.543849 368.279815 
" clip-path="url(#pf00c5dc337)" style="fill: none; stroke: #e6482f; stroke-width: 0.2"/>
    <path d="M 195.465487 323.615181 
L 186.948315 342.047855 
L 179.198539 366.789659 
" clip-path="url(#pf00c5dc337)" style="fill: none; stroke: #e6482f; stroke-width: 0.2"/>
    <path d="M 130.176918 347.005028 
L 149.454934 345.322594 
L 168.861958 343.628142 
L 186.948315 342.047855 
" clip-path="url(#pf00c5dc337)" style="fill: none; stroke: #e6482f; stroke-width: 0.2"/>
    <path d="M 141.173168 292.772549 
L 150.780921 298.096253 
L 165.647404 306.344189 
L 180.541816 314.590121 
L 195.465487 323.615181 
L 219.56467 336.12929 
L 257.987704 356.496764 
L 277.308279 366.611401 
L 296.531766 376.249348 
L 313.692459 383.539898 
L 315.412119 384.423176 
L 315.865641 384.655512 
L 316.575849 385.004016 
" clip-path="url(#pf00c5dc337)" style="fill: none; stroke: #e6482f; stroke-width: 0.2"/>
    <path d="M 180.541816 314.590121 
L 168.861958 343.628142 
" clip-path="url(#pf00c5dc337)" style="fill: none; stroke: #e6482f; stroke-width: 0.2"/>
    <path d="M 423.29453 339.596307 
L 449.955249 355.140802 
L 464.216592 362.863978 
L 479.444828 370.394876 
L 493.835178 377.783568 
L 508.843968 385.176266 
" clip-path="url(#pf00c5dc337)" style="fill: none; stroke: #e6482f; stroke-width: 0.2"/>
    <path d="M 491.475799 346.023608 
L 487.173324 354.634068 
L 483.586376 362.377273 
L 479.444828 370.394876 
L 475.107773 378.638805 
" clip-path="url(#pf00c5dc337)" style="fill: none; stroke: #e6482f; stroke-width: 0.2"/>
    <path d="M 433.091141 387.543692 
L 438.166333 379.560139 
L 441.355618 371.768864 
L 445.755181 363.440812 
L 449.955249 355.140802 
L 454.066207 347.033069 
L 457.518828 339.946815 
L 462.145817 329.924311 
" clip-path="url(#pf00c5dc337)" style="fill: none; stroke: #e6482f; stroke-width: 0.2"/>
    <path d="M 431.045636 334.382763 
L 454.066207 347.033069 
L 468.91407 354.698161 
L 483.586376 362.377273 
L 497.708071 369.645792 
L 512.597163 377.515179 
" clip-path="url(#pf00c5dc337)" style="fill: none; stroke: #e6482f; stroke-width: 0.2"/>
    <path d="M 438.798072 329.209276 
L 457.518828 339.946815 
L 472.684555 347.167263 
L 487.173324 354.634068 
L 501.538405 361.896578 
L 516.431487 369.57569 
" clip-path="url(#pf00c5dc337)" style="fill: none; stroke: #e6482f; stroke-width: 0.2"/>
    <path d="M 483.36028 326.182897 
L 565.90131 367.75105 
" clip-path="url(#pf00c5dc337)" style="fill: none; stroke: #e6482f; stroke-width: 0.2"/>
    <path d="M 607.939222 299.310009 
L 593.474392 295.071876 
L 586.992085 292.848659 
L 579.061432 290.002541 
L 572.595084 287.416799 
L 560.584062 282.601831 
L 556.527632 281.107669 
L 552.532382 280.03011 
L 548.772537 279.258994 
L 540.021288 278.071275 
L 536.943722 277.901029 
L 534.096241 278.097313 
L 531.150342 278.553974 
L 528.024896 279.267005 
L 523.936547 280.743142 
L 519.667321 282.521715 
L 509.273551 287.364724 
L 501.471906 291.354497 
L 487.476559 298.316572 
L 467.16781 310.303919 
L 448.365926 322.733906 
L 438.798072 329.209276 
L 431.045636 334.382763 
L 423.29453 339.596307 
L 418.775269 342.634704 
L 413.355613 345.709153 
L 410.64246 346.814753 
L 407.590162 347.866275 
L 404.86637 348.058553 
" clip-path="url(#pf00c5dc337)" style="fill: none; stroke: #e6482f; stroke-width: 0.5"/>
    <path d="M 531.150342 278.553974 
L 524.89679 298.368647 
L 519.314877 318.559866 
" clip-path="url(#pf00c5dc337)" style="fill: none; stroke: #e6482f; stroke-width: 0.2"/>
    <path d="M 443.788145 298.37065 
L 427.755273 278.487878 
" clip-path="url(#pf00c5dc337)" style="fill: none; stroke: #e6482f; stroke-width: 0.2"/>
    <path d="M 423.944889 251.500825 
L 432.227986 255.017915 
L 447.195546 265.060447 
L 456.594494 270.177853 
L 464.966699 276.815458 
L 468.820972 281.213823 
" clip-path="url(#pf00c5dc337)" style="fill: none; stroke: #e6482f; stroke-width: 0.2"/>
    <path d="M 784.67188 342.196069 
L 776.270416 340.157119 
" clip-path="url(#pf00c5dc337)" style="fill: none; stroke: #e6482f; stroke-width: 0.5"/>
    <path d="M 610.511397 327.64301 
L 707.196732 346.884855 
" clip-path="url(#pf00c5dc337)" style="fill: none; stroke: #e6482f; stroke-width: 0.2"/>
    <path d="M 493.829859 306.117861 
L 519.314877 318.559866 
L 576.793821 347.651965 
L 592.350562 353.878976 
L 604.127508 358.217254 
L 612.0688 361.143488 
" clip-path="url(#pf00c5dc337)" style="fill: none; stroke: #e6482f; stroke-width: 0.2"/>
    <path d="M 612.0688 361.143488 
L 612.526312 355.054677 
L 612.775018 351.755903 
L 611.318693 340.569716 
L 611.011469 335.644589 
L 610.511397 327.64301 
L 609.744001 319.240851 
L 607.939222 299.310009 
" clip-path="url(#pf00c5dc337)" style="fill: none; stroke: #e6482f; stroke-width: 0.2"/>
    <path d="M 776.270416 340.157119 
L 607.939222 299.310009 
" clip-path="url(#pf00c5dc337)" style="fill: none; stroke: #e6482f; stroke-width: 0.5"/>
    <path d="M 524.89679 298.368647 
L 578.142418 318.670025 
L 582.181558 319.467179 
L 584.991799 320.168193 
L 590.842368 320.524709 
L 609.744001 319.240851 
" clip-path="url(#pf00c5dc337)" style="fill: none; stroke: #e6482f; stroke-width: 0.2"/>
    <path d="M 603.289622 275.106986 
L 602.83211 276.955661 
" clip-path="url(#pf00c5dc337)" style="fill: none; stroke: #e6482f; stroke-width: 0.2"/>
    <path d="M 538.119421 263.566285 
L 537.842786 265.593218 
L 537.0581 267.233592 
L 536.415721 269.514893 
L 535.987468 271.085166 
L 535.060474 272.583334 
L 534.846348 274.151603 
L 534.70271 275.187101 
L 534.096241 278.097313 
" clip-path="url(#pf00c5dc337)" style="fill: none; stroke: #e6482f; stroke-width: 0.2"/>
    <path d="M 600.959503 273.94931 
L 601.385095 272.399067 
L 603.020967 264.778039 
" clip-path="url(#pf00c5dc337)" style="fill: none; stroke: #e6482f; stroke-width: 0.2"/>
    <path d="M 593.365334 262.468697 
L 594.16066 263.566285 
L 593.982444 265.420969 
L 593.705808 266.891096 
L 593.340065 268.345201 
L 592.885213 269.316606 
L 592.555378 269.843369 
L 592.305343 270.628505 
L 591.986148 272.056571 
" clip-path="url(#pf00c5dc337)" style="fill: none; stroke: #e6482f; stroke-width: 0.2"/>
    <path d="M 538.75781 260.768236 
L 538.498465 261.53134 
L 538.356157 262.34652 
L 538.119421 263.566285 
" clip-path="url(#pf00c5dc337)" style="fill: none; stroke: #e6482f; stroke-width: 0.2"/>
    <path d="M 549.450825 248.798915 
L 562.378201 253.201286 
" clip-path="url(#pf00c5dc337)" style="fill: none; stroke: #e6482f; stroke-width: 0.2"/>
    <path d="M 562.378201 253.201286 
L 568.884448 255.272283 
" clip-path="url(#pf00c5dc337)" style="fill: none; stroke: #e6482f; stroke-width: 0.2"/>
    <path d="M 568.884448 255.272283 
L 588.262213 261.28899 
" clip-path="url(#pf00c5dc337)" style="fill: none; stroke: #e6482f; stroke-width: 0.2"/>
    <path d="M 588.262213 261.28899 
L 593.365334 262.468697 
" clip-path="url(#pf00c5dc337)" style="fill: none; stroke: #e6482f; stroke-width: 0.2"/>
    <path d="M 593.365334 262.468697 
L 598.130642 263.644398 
" clip-path="url(#pf00c5dc337)" style="fill: none; stroke: #e6482f; stroke-width: 0.2"/>
    <path d="M 598.130642 263.644398 
L 603.020967 264.778039 
" clip-path="url(#pf00c5dc337)" style="fill: none; stroke: #e6482f; stroke-width: 0.2"/>
    <path d="M 603.020967 264.778039 
L 622.441291 269.198435 
" clip-path="url(#pf00c5dc337)" style="fill: none; stroke: #e6482f; stroke-width: 0.2"/>
    <path d="M 622.441291 269.198435 
L 635.590773 272.168734 
" clip-path="url(#pf00c5dc337)" style="fill: none; stroke: #e6482f; stroke-width: 0.2"/>
    <path d="M 635.590773 272.168734 
L 637.48998 272.595351 
" clip-path="url(#pf00c5dc337)" style="fill: none; stroke: #e6482f; stroke-width: 0.2"/>
    <path d="M 539.277831 245.686411 
L 538.841599 247.046379 
L 538.728551 248.971165 
L 538.591563 251.086225 
L 538.913418 255.462558 
L 538.554324 257.595645 
L 538.75781 260.768236 
" clip-path="url(#pf00c5dc337)" style="fill: none; stroke: #e6482f; stroke-width: 0.2"/>
    <path d="M 539.277831 245.686411 
L 549.450825 248.798915 
" clip-path="url(#pf00c5dc337)" style="fill: none; stroke: #e6482f; stroke-width: 0.2"/>
    <path d="M 489.573932 231.151378 
L 489.70826 240.41278 
L 495.440461 247.332794 
L 496.807677 250.14286 
L 496.995204 250.52942 
L 497.387547 251.336588 
L 500.199118 257.116952 
L 510.908093 268.537479 
L 512.526675 271.766151 
L 509.93056 278.469852 
L 510.147346 281.496231 
L 501.471906 291.354497 
" clip-path="url(#pf00c5dc337)" style="fill: none; stroke: #e6482f; stroke-width: 0.2"/>
    <path d="M 510.908093 268.537479 
L 466.200917 253.525756 
L 449.198492 247.080429 
L 437.16353 241.997072 
L 436.288405 236.889682 
L 434.708393 236.54318 
L 423.91696 234.173751 
L 420.738315 234.650441 
" clip-path="url(#pf00c5dc337)" style="fill: none; stroke: #e6482f; stroke-width: 0.2"/>
    <path d="M 439.852744 214.210863 
L 434.990348 225.49319 
L 434.341319 230.574543 
L 433.584562 232.196891 
L 434.708393 236.54318 
" clip-path="url(#pf00c5dc337)" style="fill: none; stroke: #e6482f; stroke-width: 0.2"/>
    <path d="M 334.096966 268.785838 
L 350.624589 259.252042 
L 393.993808 231.31161 
" clip-path="url(#pf00c5dc337)" style="fill: none; stroke: #e6482f; stroke-width: 0.2"/>
    <path d="M 283.875706 146.226484 
L 285.149824 146.769269 
L 286.933323 147.558411 
L 326.131734 164.807372 
L 411.17312 202.233531 
" clip-path="url(#pf00c5dc337)" style="fill: none; stroke: #e6482f; stroke-width: 0.2"/>
    <path d="M 411.17312 202.233531 
L 439.852744 214.210863 
" clip-path="url(#pf00c5dc337)" style="fill: none; stroke: #e6482f; stroke-width: 0.2"/>
    <path d="M 439.852744 214.210863 
L 450.974011 218.324817 
" clip-path="url(#pf00c5dc337)" style="fill: none; stroke: #e6482f; stroke-width: 0.2"/>
    <path d="M 450.974011 218.324817 
L 475.716902 226.845146 
" clip-path="url(#pf00c5dc337)" style="fill: none; stroke: #e6482f; stroke-width: 0.2"/>
    <path d="M 475.716902 226.845146 
L 489.573932 231.151378 
" clip-path="url(#pf00c5dc337)" style="fill: none; stroke: #e6482f; stroke-width: 0.2"/>
    <path d="M 326.131734 164.807372 
L 326.349136 164.475041 
" clip-path="url(#pf00c5dc337)" style="fill: none; stroke: #e6482f; stroke-width: 0.2"/>
    <path d="M 65.303302 403.831261 
L 63.893526 402.633528 
L 59.801217 399.158053 
" clip-path="url(#pf00c5dc337)" style="fill: none; stroke: #e6482f; stroke-width: 0.2"/>
    <path d="M 116.293289 419.365741 
L 113.522947 393.239935 
L 71.74571 385.180271 
L 67.234429 383.890405 
L 64.575805 379.269718 
L 63.10086 379.121504 
L 60.985485 378.908865 
" clip-path="url(#pf00c5dc337)" style="fill: none; stroke: #e6482f; stroke-width: 0.2"/>
    <path d="M 63.10086 379.121504 
L 64.420197 399.240618 
L 63.813728 400.346218 
L 63.893526 402.633528 
" clip-path="url(#pf00c5dc337)" style="fill: none; stroke: #e6482f; stroke-width: 0.2"/>
    <path d="M 63.025628 344.025509 
L 76.626726 350.540144 
L 109.429278 348.250831 
L 123.999175 347.233359 
L 130.176918 347.005028 
L 128.687344 353.376248 
L 129.543849 368.279815 
L 130.573251 395.437114 
L 131.295429 410.530956 
L 131.403157 415.289843 
L 131.569404 417.056399 
" clip-path="url(#pf00c5dc337)" style="fill: none; stroke: #e6482f; stroke-width: 0.2"/>
    <path d="M 404.86637 348.058553 
L 400.845849 346.934927 
L 397.950489 345.795278 
L 397.643265 345.675104 
L 392.252868 343.764339 
L 387.418402 343.477924 
L 384.475163 344.208982 
L 381.860428 345.282536 
L 345.788793 368.007421 
L 334.672846 374.913414 
L 329.591004 378.242231 
L 321.178899 382.910988 
L 316.575849 385.004016 
L 313.026141 386.159689 
L 292.674833 390.588097 
L 171.964794 410.486892 
L 160.513693 412.573913 
L 131.569404 417.056399 
L 116.293289 419.365741 
L 109.812311 420.529425 
L 106.870402 420.990091 
" clip-path="url(#pf00c5dc337)" style="fill: none; stroke: #e6482f; stroke-width: 0.5"/>
    <path d="M 305.719247 358.197225 
L 296.531766 376.249348 
L 291.343526 385.747092 
" clip-path="url(#pf00c5dc337)" style="fill: none; stroke: #e6482f; stroke-width: 0.2"/>
    <path d="M 272.977874 376.179246 
L 277.308279 366.611401 
" clip-path="url(#pf00c5dc337)" style="fill: none; stroke: #e6482f; stroke-width: 0.2"/>
    <path d="M 287.865636 348.555272 
L 285.125884 352.228587 
L 281.016255 359.687381 
L 280.15177 362.661685 
L 277.308279 366.611401 
" clip-path="url(#pf00c5dc337)" style="fill: none; stroke: #e6482f; stroke-width: 0.2"/>
    <path d="M 267.148585 337.981971 
L 257.987704 356.496764 
L 253.564201 366.026554 
" clip-path="url(#pf00c5dc337)" style="fill: none; stroke: #e6482f; stroke-width: 0.2"/>
    <path d="M 298.352505 326.084755 
L 301.460661 329.798129 
L 305.381433 331.925207 
L 314.086132 340.229223 
" clip-path="url(#pf00c5dc337)" style="fill: none; stroke: #e6482f; stroke-width: 0.2"/>
    <path d="M 287.865636 348.555272 
L 267.148585 337.981971 
L 230.043558 318.413654 
L 208.899584 305.769357 
L 194.15945 297.245021 
" clip-path="url(#pf00c5dc337)" style="fill: none; stroke: #e6482f; stroke-width: 0.2"/>
    <path d="M 305.684668 238.7684 
L 318.23433 297.074775 
L 322.648524 323.06839 
L 326.964299 344.551478 
L 332.349376 364.890911 
L 333.29233 373.096786 
" clip-path="url(#pf00c5dc337)" style="fill: none; stroke: #e6482f; stroke-width: 0.2"/>
    <path d="M 269.815189 277.664687 
L 277.545015 313.810994 
" clip-path="url(#pf00c5dc337)" style="fill: none; stroke: #e6482f; stroke-width: 0.2"/>
    <path d="M 253.682569 241.177887 
L 257.016821 261.747653 
L 260.151577 280.104217 
L 265.810629 309.224356 
L 277.545015 313.810994 
L 295.477095 323.57312 
L 298.02799 323.146503 
" clip-path="url(#pf00c5dc337)" style="fill: none; stroke: #e6482f; stroke-width: 0.2"/>
    <path d="M 149.454934 345.322594 
L 165.647404 306.344189 
" clip-path="url(#pf00c5dc337)" style="fill: none; stroke: #e6482f; stroke-width: 0.2"/>
    <path d="M 222.694105 285.914625 
L 208.899584 305.769357 
L 195.465487 323.615181 
" clip-path="url(#pf00c5dc337)" style="fill: none; stroke: #e6482f; stroke-width: 0.2"/>
    <path d="M 219.56467 336.12929 
L 230.043558 318.413654 
L 238.072629 303.678331 
L 238.60595 297.385224 
L 235.753149 283.903715 
L 224.985656 249.427825 
L 224.76754 247.196597 
L 224.13846 236.705415 
" clip-path="url(#pf00c5dc337)" style="fill: none; stroke: #e6482f; stroke-width: 0.2"/>
    <path d="M 194.15945 297.245021 
L 206.098653 277.61862 
L 205.348546 270.456255 
L 204.751386 264.741986 
" clip-path="url(#pf00c5dc337)" style="fill: none; stroke: #e6482f; stroke-width: 0.2"/>
    <path d="M 188.081455 285.656251 
L 158.35514 278.932521 
L 151.314242 274.239731 
L 142.739881 273.033986 
" clip-path="url(#pf00c5dc337)" style="fill: none; stroke: #e6482f; stroke-width: 0.2"/>
    <path d="M 149.157019 243.921858 
L 145.891926 258.731288 
L 142.739881 273.033986 
L 141.560191 278.389736 
L 139.043875 289.80826 
L 141.173168 292.772549 
" clip-path="url(#pf00c5dc337)" style="fill: none; stroke: #e6482f; stroke-width: 0.2"/>
    <path d="M 205.348546 270.456255 
L 145.891926 258.731288 
" clip-path="url(#pf00c5dc337)" style="fill: none; stroke: #e6482f; stroke-width: 0.2"/>
    <path d="M 205.615871 253.33548 
L 153.661651 243.096664 
L 149.157019 243.921858 
" clip-path="url(#pf00c5dc337)" style="fill: none; stroke: #e6482f; stroke-width: 0.2"/>
    <path d="M 281.484407 227.944737 
L 280.671791 227.938729 
L 243.752961 232.072711 
L 180.395518 234.876769 
" clip-path="url(#pf00c5dc337)" style="fill: none; stroke: #e6482f; stroke-width: 0.2"/>
    <path d="M 180.067014 205.966934 
L 181.702886 222.611019 
L 180.797171 231.113323 
L 180.395518 234.876769 
" clip-path="url(#pf00c5dc337)" style="fill: none; stroke: #e6482f; stroke-width: 0.2"/>
    <path d="M 206.098653 277.61862 
L 222.694105 285.914625 
L 235.753149 283.903715 
L 260.151577 280.104217 
L 269.815189 277.664687 
L 272.769068 276.917606 
L 287.433394 273.216249 
" clip-path="url(#pf00c5dc337)" style="fill: none; stroke: #e6482f; stroke-width: 0.2"/>
    <path d="M 279.097098 183.366228 
L 279.360434 186.426657 
L 279.722188 192.445367 
L 280.791489 208.933226 
L 281.484407 227.944737 
L 281.658634 233.42667 
L 281.90867 237.879113 
L 283.267906 248.74684 
L 287.433394 273.216249 
L 294.393163 314.041327 
L 295.582163 317.776732 
L 298.02799 323.146503 
L 298.352505 326.084755 
L 297.365662 329.579813 
L 287.865636 348.555272 
L 305.719247 358.197225 
L 327.431121 367.833169 
L 331.210916 370.593163 
L 333.29233 373.096786 
L 334.672846 374.913414 
" clip-path="url(#pf00c5dc337)" style="fill: none; stroke: #e6482f; stroke-width: 0.2"/>
    <path d="M 339.233337 283.767518 
L 334.096966 268.785838 
L 320.150827 233.226381 
" clip-path="url(#pf00c5dc337)" style="fill: none; stroke: #e6482f; stroke-width: 0.2"/>
    <path d="M 272.769068 276.917606 
L 266.742942 237.622742 
" clip-path="url(#pf00c5dc337)" style="fill: none; stroke: #e6482f; stroke-width: 0.2"/>
    <path d="M 241.900303 197.576792 
L 243.038763 214.144768 
L 243.752961 232.072711 
" clip-path="url(#pf00c5dc337)" style="fill: none; stroke: #e6482f; stroke-width: 0.2"/>
    <path d="M 295.995786 190.682816 
L 302.407605 204.635006 
L 353.855103 226.580764 
" clip-path="url(#pf00c5dc337)" style="fill: none; stroke: #e6482f; stroke-width: 0.2"/>
    <path d="M 279.097098 183.366228 
L 279.929664 183.57453 
L 288.606434 185.745672 
L 287.868296 190.967228 
L 283.178798 224.141233 
L 281.484407 227.944737 
" clip-path="url(#pf00c5dc337)" style="fill: none; stroke: #e6482f; stroke-width: 0.2"/>
    <path d="M 364.490929 219.869051 
L 295.995786 190.682816 
L 287.868296 190.967228 
" clip-path="url(#pf00c5dc337)" style="fill: none; stroke: #e6482f; stroke-width: 0.2"/>
    <path d="M 244.15273 128.803447 
L 245.207955 132.158126 
L 244.544297 141.315377 
" clip-path="url(#pf00c5dc337)" style="fill: none; stroke: #e6482f; stroke-width: 0.2"/>
    <path d="M 150.780921 298.096253 
L 130.176918 347.005028 
" clip-path="url(#pf00c5dc337)" style="fill: none; stroke: #e6482f; stroke-width: 0.2"/>
    <path d="M 55.446064 226.355619 
L 55.553241 226.358442 
" clip-path="url(#pf00c5dc337)" style="fill: none; stroke: #e6482f; stroke-width: 0.2"/>
    <path d="M 55.445227 225.908231 
L 55.553241 226.358442 
L 58.312943 231.291581 
L 58.46988 237.700855 
L 57.181133 240.340676 
L 55.623241 240.35942 
" clip-path="url(#pf00c5dc337)" style="fill: none; stroke: #e6482f; stroke-width: 0.2"/>
    <path d="M 58.404685 55.069616 
L 77.356883 68.558091 
L 85.553531 72.880345 
L 177.808713 112.065049 
L 244.544297 141.315377 
L 280.650511 157.14228 
L 281.408598 157.238419 
" clip-path="url(#pf00c5dc337)" style="fill: none; stroke: #e6482f; stroke-width: 0.2"/>
    <path d="M 169.201102 224.337518 
L 181.702886 222.611019 
L 243.038763 214.144768 
L 280.791489 208.933226 
" clip-path="url(#pf00c5dc337)" style="fill: none; stroke: #e6482f; stroke-width: 0.2"/>
    <path d="M 165.901429 207.020458 
L 180.067014 205.966934 
L 241.900303 197.576792 
L 279.722188 192.445367 
" clip-path="url(#pf00c5dc337)" style="fill: none; stroke: #e6482f; stroke-width: 0.2"/>
    <path d="M 283.993522 145.704868 
L 283.875706 146.226484 
L 281.408598 157.238419 
L 279.524021 161.626769 
L 279.186207 162.361833 
L 278.521218 164.188476 
L 277.969278 166.39567 
L 277.926719 169.790583 
L 279.097098 183.366228 
" clip-path="url(#pf00c5dc337)" style="fill: none; stroke: #e6482f; stroke-width: 0.2"/>
   </g>
  </g>
 </g>
 <defs>
  <clipPath id="pf00c5dc337">
   <rect x="7.2" y="7.2" width="818.547487" height="831.6"/>
  </clipPath>
 </defs>
</svg>
