<?xml version="1.0" encoding="utf-8" standalone="no"?>
<!DOCTYPE svg PUBLIC "-//W3C//DTD SVG 1.1//EN"
  "http://www.w3.org/Graphics/SVG/1.1/DTD/svg11.dtd">
<svg xmlns:xlink="http://www.w3.org/1999/xlink" width="851.4pt" height="658.776202pt" viewBox="0 0 851.4 658.776202" xmlns="http://www.w3.org/2000/svg" version="1.1">
 <metadata>
  <rdf:RDF xmlns:dc="http://purl.org/dc/elements/1.1/" xmlns:cc="http://creativecommons.org/ns#" xmlns:rdf="http://www.w3.org/1999/02/22-rdf-syntax-ns#">
   <cc:Work>
    <dc:type rdf:resource="http://purl.org/dc/dcmitype/StillImage"/>
    <dc:date>2025-03-16T14:38:40.450667</dc:date>
    <dc:format>image/svg+xml</dc:format>
    <dc:creator>
     <cc:Agent>
      <dc:title>Matplotlib v3.10.1, https://matplotlib.org/</dc:title>
     </cc:Agent>
    </dc:creator>
   </cc:Work>
  </rdf:RDF>
 </metadata>
 <defs>
  <style type="text/css">*{stroke-linejoin: round; stroke-linecap: butt}</style>
 </defs>
 <g id="figure_1">
  <g id="patch_1">
   <path d="M 0 658.776202 
L 851.4 658.776202 
L 851.4 0 
L 0 0 
z
" style="fill: #ffffff"/>
  </g>
  <g id="axes_1">
   <g id="PatchCollection_1">
    <path d="M 517.927168 622.286375 
L 806.154545 510.805798 
L 729.494805 238.32337 
L 554.091727 317.700311 
L 499.648042 311.04984 
L 424.423258 304.003639 
L 433.599614 250.002916 
L 331.872305 217.536527 
L 247.463804 159.105821 
L 194.547059 36.489827 
L 63.991861 75.985929 
L 45.245455 108.787589 
L 45.245455 215.898642 
L 87.425789 295.566885 
L 183.836404 379.917938 
L 274.220206 414.060685 
L 377.996927 417.407906 
L 425.534428 444.861709 
L 517.927168 622.286375 
" clip-path="url(#p728b216903)" style="fill: #f29888"/>
   </g>
   <g id="PatchCollection_2">
    <path d="M 623.079974 521.347618 
L 624.732013 526.728454 
L 623.837925 527.003267 
L 624.820318 530.196592 
L 618.499155 532.13677 
L 615.864723 523.568106 
L 623.079974 521.347618 
" clip-path="url(#p728b216903)" style="fill: #f29888"/>
    <path d="M 676.177009 502.539428 
L 684.293706 525.947985 
L 675.135746 529.124822 
L 667.015369 505.716264 
L 676.177009 502.539428 
" clip-path="url(#p728b216903)" style="fill: #f29888"/>
    <path d="M 707.679802 491.469966 
L 717.621468 519.869125 
L 708.540775 523.045962 
L 698.59175 494.652299 
L 707.679802 491.469966 
" clip-path="url(#p728b216903)" style="fill: #f29888"/>
   </g>
   <g id="LineCollection_1">
    <path d="M 713.294793 245.654526 
L 713.563119 246.573252 
L 758.911394 399.193311 
L 768.694847 431.428857 
L 792.320102 514.125537 
L 792.840196 515.955522 
" clip-path="url(#p728b216903)" style="fill: none; stroke: #f29888; stroke-width: 0.5"/>
    <path d="M 647.618203 572.12448 
L 645.509433 567.873432 
L 633.533073 536.654694 
L 625.27656 514.581726 
" clip-path="url(#p728b216903)" style="fill: none; stroke: #f29888; stroke-width: 0.2"/>
    <path d="M 665.446671 565.228786 
L 670.400393 560.464478 
L 679.705527 551.791385 
L 685.09213 545.992834 
L 689.547851 541.914611 
L 693.826962 539.880996 
L 700.652199 537.330733 
" clip-path="url(#p728b216903)" style="fill: none; stroke: #f29888; stroke-width: 0.2"/>
    <path d="M 792.320102 514.125537 
L 775.034407 519.605305 
L 767.701416 523.711009 
L 763.006536 525.909512 
L 727.06274 539.408318 
L 720.89979 541.024218 
L 715.910559 541.463918 
L 705.788604 541.024218 
L 701.020136 542.090492 
" clip-path="url(#p728b216903)" style="fill: none; stroke: #f29888; stroke-width: 0.2"/>
    <path d="M 701.020136 542.090492 
L 700.652199 537.330733 
L 697.086886 491.074236 
" clip-path="url(#p728b216903)" style="fill: none; stroke: #f29888; stroke-width: 0.2"/>
    <path d="M 806.093381 510.588394 
L 792.320102 514.125537 
" clip-path="url(#p728b216903)" style="fill: none; stroke: #f29888; stroke-width: 0.2"/>
    <path d="M 644.755162 508.123624 
L 627.704946 474.327141 
" clip-path="url(#p728b216903)" style="fill: none; stroke: #f29888; stroke-width: 0.2"/>
    <path d="M 549.407885 535.874225 
L 557.079378 533.560301 
L 559.051522 532.961209 
L 562.863353 532.290666 
L 566.2263 532.290666 
L 570.902783 532.603952 
L 621.236608 515.922813 
L 625.27656 514.581726 
L 644.755162 508.123624 
L 665.757024 501.280785 
L 697.086886 491.074236 
L 731.558934 477.613903 
L 734.75263 475.904567 
L 737.066955 474.195231 
L 739.789691 471.364659 
L 742.096658 468.110875 
L 746.110855 461.861631 
L 756.725846 442.553281 
L 757.778147 440.893411 
L 758.99234 438.975218 
L 760.879858 436.518391 
L 762.899834 434.528746 
L 768.694847 431.428857 
" clip-path="url(#p728b216903)" style="fill: none; stroke: #f29888; stroke-width: 0.2"/>
    <path d="M 557.079378 533.560301 
L 556.137459 536.550265 
L 555.688575 539.463281 
L 555.688575 543.052337 
L 556.137459 546.641392 
L 558.602639 556.281827 
L 566.899625 585.428477 
L 569.813689 594.623714 
L 572.054427 599.559353 
L 572.847152 601.044425 
" clip-path="url(#p728b216903)" style="fill: none; stroke: #f29888; stroke-width: 0.2"/>
    <path d="M 586.786637 433.58339 
L 454.240898 477.460008 
" clip-path="url(#p728b216903)" style="fill: none; stroke: #f29888; stroke-width: 0.2"/>
    <path d="M 536.99368 323.224049 
L 539.05045 324.251849 
L 542.777655 325.444537 
L 545.007355 326.587758 
L 547.233375 327.873882 
L 549.599212 329.561233 
L 551.597112 331.34202 
L 552.745076 332.924942 
L 553.823133 334.848632 
L 556.998432 343.576688 
L 573.360604 393.092466 
L 586.786637 433.58339 
L 589.564564 440.272334 
L 600.050777 470.941447 
L 603.222397 479.147359 
L 605.915698 484.978887 
L 611.0705 494.168628 
L 616.902307 505.155646 
L 618.694161 509.415245 
L 621.236608 515.922813 
" clip-path="url(#p728b216903)" style="fill: none; stroke: #f29888; stroke-width: 0.2"/>
    <path d="M 573.360604 393.092466 
L 450.966256 433.275599 
L 447.500286 433.792247 
" clip-path="url(#p728b216903)" style="fill: none; stroke: #f29888; stroke-width: 0.2"/>
    <path d="M 447.500286 433.792247 
L 445.141808 434.144008 
L 439.983327 432.352228 
L 435.50185 428.537826 
L 431.69002 423.827534 
L 429.22116 420.689171 
L 427.204864 416.204226 
L 426.082655 411.49943 
L 424.736004 407.459681 
L 421.373057 402.754885 
L 415.89815 398.171007 
L 411.508658 395.45036 
L 408.528365 392.916585 
L 406.776984 390.679609 
L 405.408257 388.442632 
" clip-path="url(#p728b216903)" style="fill: none; stroke: #f29888; stroke-width: 0.2"/>
    <path d="M 380.91099 408.514962 
L 383.928076 408.135721 
L 390.65397 405.893248 
L 403.406678 401.226926 
L 408.624029 399.847365 
L 415.89815 398.171007 
" clip-path="url(#p728b216903)" style="fill: none; stroke: #f29888; stroke-width: 0.2"/>
    <path d="M 253.689304 388.530572 
L 266.423614 393.246361 
L 302.135611 405.601946 
L 317.555864 408.580917 
L 345.360887 412.169973 
L 357.469704 411.49943 
L 380.91099 408.514962 
" clip-path="url(#p728b216903)" style="fill: none; stroke: #f29888; stroke-width: 0.2"/>
    <path d="M 415.89815 398.171007 
L 420.254528 396.252813 
L 424.287121 393.108954 
L 429.670044 386.161686 
L 433.481874 378.983574 
L 436.767555 373.536784 
" clip-path="url(#p728b216903)" style="fill: none; stroke: #f29888; stroke-width: 0.2"/>
    <path d="M 276.299052 338.498147 
L 253.689304 388.530572 
" clip-path="url(#p728b216903)" style="fill: none; stroke: #f29888; stroke-width: 0.2"/>
    <path d="M 665.757024 501.280785 
L 660.157018 474.849286 
L 659.987767 470.622664 
L 660.326269 467.072082 
L 661.507348 464.879076 
L 665.900519 462.174918 
L 677.733383 455.584906 
L 683.815387 452.539979 
L 702.403581 444.938656 
L 722.684286 437.331837 
L 732.655387 433.951639 
L 744.653823 430.401057 
L 746.850409 430.571441 
" clip-path="url(#p728b216903)" style="fill: none; stroke: #f29888; stroke-width: 0.2"/>
    <path d="M 717.327118 410.729954 
L 737.655655 404.112461 
L 746.850409 430.571441 
L 749.216246 432.940328 
L 751.24358 435.979758 
L 752.763161 437.502221 
L 757.778147 440.893411 
" clip-path="url(#p728b216903)" style="fill: none; stroke: #f29888; stroke-width: 0.2"/>
    <path d="M 709.004376 396.120903 
L 647.8164 415.56666 
L 643.316527 417.308973 
L 589.564564 440.272334 
" clip-path="url(#p728b216903)" style="fill: none; stroke: #f29888; stroke-width: 0.2"/>
    <path d="M 609.940933 298.463412 
L 647.8164 415.56666 
" clip-path="url(#p728b216903)" style="fill: none; stroke: #f29888; stroke-width: 0.2"/>
    <path d="M 684.882405 264.447079 
L 681.938907 267.986668 
L 679.591467 270.042268 
L 677.538377 272.240771 
L 676.070307 274.88447 
L 674.749412 278.550474 
L 674.749412 280.748976 
L 675.246127 284.123678 
L 709.004376 396.120903 
" clip-path="url(#p728b216903)" style="fill: none; stroke: #f29888; stroke-width: 0.2"/>
    <path d="M 674.749412 278.550474 
L 672.254797 276.643273 
L 669.175161 275.175772 
L 666.386197 274.296371 
L 661.393287 272.74093 
" clip-path="url(#p728b216903)" style="fill: none; stroke: #f29888; stroke-width: 0.2"/>
    <path d="M 713.563119 246.573252 
L 710.299515 248.387016 
L 708.091891 249.684133 
L 706.266922 250.981249 
L 698.588071 256.741327 
L 692.631165 260.396337 
L 684.882405 264.447079 
L 680.136014 265.997023 
L 671.283442 269.014468 
L 661.393287 272.74093 
L 653.997747 275.505547 
L 644.332034 279.787131 
L 634.423482 284.761244 
L 620.434505 292.021799 
L 609.940933 298.463412 
" clip-path="url(#p728b216903)" style="fill: none; stroke: #f29888; stroke-width: 0.2"/>
    <path d="M 276.299052 338.498147 
L 283.227312 341.158335 
L 398.616134 385.474654 
L 405.408257 388.442632 
L 409.635857 388.964777 
L 412.25557 388.887829 
L 415.162275 388.134842 
L 417.840859 386.942154 
L 427.34468 378.543874 
L 430.564131 376.40583 
L 433.400928 374.839397 
L 436.767555 373.536784 
L 441.388847 371.959358 
L 528.865945 342.526903 
L 539.712737 338.410207 
L 544.334029 336.200711 
L 548.61682 333.655944 
L 551.597112 331.34202 
" clip-path="url(#p728b216903)" style="fill: none; stroke: #f29888; stroke-width: 0.2"/>
    <path d="M 549.599212 329.561233 
L 550.883314 326.197524 
L 552.25572 322.256708 
" clip-path="url(#p728b216903)" style="fill: none; stroke: #f29888; stroke-width: 0.2"/>
    <path d="M 609.940933 298.463412 
L 601.846312 303.190193 
L 593.313845 307.796056 
L 584.115412 311.665421 
L 573.684389 315.397379 
L 563.76112 318.381847 
L 553.83785 321.817007 
L 552.25572 322.256708 
L 549.952432 322.89977 
L 545.901442 323.344967 
L 542.56793 323.311989 
L 538.947427 322.982214 
L 536.99368 323.224049 
" clip-path="url(#p728b216903)" style="fill: none; stroke: #f29888; stroke-width: 0.2"/>
    <path d="M 283.227312 341.158335 
L 312.496725 269.443176 
" clip-path="url(#p728b216903)" style="fill: none; stroke: #f29888; stroke-width: 0.2"/>
    <path d="M 207.428545 230.381279 
L 181.308675 301.222533 
" clip-path="url(#p728b216903)" style="fill: none; stroke: #f29888; stroke-width: 0.2"/>
    <path d="M 62.074907 84.906354 
L 61.773199 90.342152 
L 62.214724 92.996844 
L 63.428917 95.541611 
L 70.905403 107.03978 
L 88.838668 138.918069 
L 90.619485 142.831404 
L 91.046292 146.409467 
L 90.715148 150.405246 
L 90.126449 153.334751 
L 88.731966 155.731119 
L 85.652331 159.138798 
L 65.423137 168.960609 
L 62.877011 172.258363 
L 61.681215 175.556117 
L 56.739816 203.499087 
L 56.931144 207.038676 
L 59.388965 214.387172 
L 61.511963 218.355469 
L 100.3919 268.288962 
L 102.157999 270.058757 
L 104.73356 271.960462 
L 108.722001 273.752241 
L 116.76879 276.8961 
L 181.308675 301.222533 
L 276.299052 338.498147 
" clip-path="url(#p728b216903)" style="fill: none; stroke: #f29888; stroke-width: 0.2"/>
    <path d="M 62.074907 84.906354 
L 68.594757 84.538104 
L 75.184514 83.697177 
L 87.013699 81.163403 
L 116.754072 72.545272 
L 122.501253 72.039616 
L 125.205592 72.71016 
L 126.894425 74.232623 
L 128.207961 77.123654 
L 148.308377 137.637441 
L 168.651631 199.398879 
L 171.937311 208.429229 
L 173.651899 212.584399 
L 176.536528 216.008567 
L 181.786993 219.438232 
L 186.220638 222.065442 
L 194.241671 225.962288 
L 207.428545 230.381279 
L 283.749783 258.170353 
L 312.496725 269.443176 
L 387.37197 298.80418 
L 402.6892 303.734322 
L 409.67265 305.185334 
L 417.053473 305.91084 
L 431.388311 306.614361 
L 445.653241 307.807049 
L 454.137875 308.746909 
L 464.315022 310.186928 
L 476.762341 312.330468 
L 489.548163 314.644392 
L 507.860403 317.920161 
L 522.765544 320.569357 
L 536.99368 323.224049 
" clip-path="url(#p728b216903)" style="fill: none; stroke: #f29888; stroke-width: 0.2"/>
    <path d="M 85.652331 159.138798 
L 148.308377 137.637441 
" clip-path="url(#p728b216903)" style="fill: none; stroke: #f29888; stroke-width: 0.2"/>
    <path d="M 59.326904 84.148471 
L 62.074907 84.906354 
" clip-path="url(#p728b216903)" style="fill: none; stroke: #f29888; stroke-width: 0.2"/>
   </g>
  </g>
 </g>
 <defs>
  <clipPath id="p728b216903">
   <rect x="7.2" y="7.2" width="837" height="644.376202"/>
  </clipPath>
 </defs>
</svg>
