<?xml version="1.0" encoding="utf-8" standalone="no"?>
<!DOCTYPE svg PUBLIC "-//W3C//DTD SVG 1.1//EN"
  "http://www.w3.org/Graphics/SVG/1.1/DTD/svg11.dtd">
<svg xmlns:xlink="http://www.w3.org/1999/xlink" width="851.4pt" height="586.331501pt" viewBox="0 0 851.4 586.331501" xmlns="http://www.w3.org/2000/svg" version="1.1">
 <metadata>
  <rdf:RDF xmlns:dc="http://purl.org/dc/elements/1.1/" xmlns:cc="http://creativecommons.org/ns#" xmlns:rdf="http://www.w3.org/1999/02/22-rdf-syntax-ns#">
   <cc:Work>
    <dc:type rdf:resource="http://purl.org/dc/dcmitype/StillImage"/>
    <dc:date>2025-03-16T14:29:59.180959</dc:date>
    <dc:format>image/svg+xml</dc:format>
    <dc:creator>
     <cc:Agent>
      <dc:title>Matplotlib v3.10.1, https://matplotlib.org/</dc:title>
     </cc:Agent>
    </dc:creator>
   </cc:Work>
  </rdf:RDF>
 </metadata>
 <defs>
  <style type="text/css">*{stroke-linejoin: round; stroke-linecap: butt}</style>
 </defs>
 <g id="figure_1">
  <g id="patch_1">
   <path d="M 0 586.331501 
L 851.4 586.331501 
L 851.4 0 
L 0 0 
z
" style="fill: #ffffff"/>
  </g>
  <g id="axes_1">
   <g id="PatchCollection_1">
    <path d="M 45.245455 332.432769 
L 244.741521 543.555631 
L 274.48357 514.228939 
L 320.561903 529.592812 
L 446.6448 413.076909 
L 498.536394 430.380441 
L 463.718265 530.540484 
L 523.195537 553.134615 
L 618.371458 532.204023 
L 649.867724 455.07104 
L 748.497472 498.459408 
L 806.154545 355.841625 
L 581.248503 83.031468 
L 537.004021 137.140798 
L 408.277284 33.196886 
L 359.027255 71.696904 
L 270.592895 141.981424 
L 45.245455 332.432769 
" clip-path="url(#p1adb9d4ced)" style="fill: #f29888"/>
   </g>
   <g id="PatchCollection_2">
    <path d="M 313.244704 475.503935 
L 316.609796 472.306395 
L 317.993147 473.761991 
L 314.63033 476.959531 
L 313.244704 475.503935 
" clip-path="url(#p1adb9d4ced)" style="fill: #f29888"/>
    <path d="M 328.168059 464.731838 
L 323.255797 468.819099 
L 321.849694 467.131698 
L 326.764231 463.044437 
L 328.168059 464.731838 
" clip-path="url(#p1adb9d4ced)" style="fill: #f29888"/>
    <path d="M 336.618332 456.213019 
L 332.133817 460.30028 
L 330.78687 458.82423 
L 335.271385 454.73356 
L 336.618332 456.213019 
" clip-path="url(#p1adb9d4ced)" style="fill: #f29888"/>
    <path d="M 339.7559 453.018888 
L 338.349796 451.461025 
L 343.723933 446.613581 
L 345.130037 448.171445 
L 339.7559 453.018888 
" clip-path="url(#p1adb9d4ced)" style="fill: #f29888"/>
    <path d="M 347.018493 443.610348 
L 350.943297 439.652625 
L 352.317547 441.016182 
L 348.395018 444.973905 
L 347.018493 443.610348 
" clip-path="url(#p1adb9d4ced)" style="fill: #f29888"/>
    <path d="M 355.969321 434.641555 
L 360.023814 430.850868 
L 361.45267 432.374642 
L 357.395901 436.168738 
L 355.969321 434.641555 
" clip-path="url(#p1adb9d4ced)" style="fill: #f29888"/>
    <path d="M 364.947451 426.242047 
L 369.397837 421.790035 
L 370.849446 423.242223 
L 366.39906 427.694235 
L 364.947451 426.242047 
" clip-path="url(#p1adb9d4ced)" style="fill: #f29888"/>
    <path d="M 359.011328 415.129062 
L 361.122759 413.04282 
L 363.891736 415.844929 
L 361.782581 417.93117 
L 359.011328 415.129062 
" clip-path="url(#p1adb9d4ced)" style="fill: #f29888"/>
    <path d="M 389.319914 403.303618 
L 390.910312 405.045561 
L 388.50765 407.237478 
L 386.919526 405.495535 
L 389.319914 403.303618 
" clip-path="url(#p1adb9d4ced)" style="fill: #f29888"/>
    <path d="M 369.022421 410.874765 
L 361.043125 402.400262 
L 364.123811 399.499295 
L 372.103108 407.973799 
L 369.022421 410.874765 
" clip-path="url(#p1adb9d4ced)" style="fill: #f29888"/>
    <path d="M 286.967858 507.578192 
L 288.203318 508.873571 
L 286.785839 510.226901 
L 285.548103 508.931522 
L 286.967858 507.578192 
" clip-path="url(#p1adb9d4ced)" style="fill: #f29888"/>
    <path d="M 280.811036 506.337356 
L 282.790502 508.382691 
L 281.031735 510.083727 
L 279.052269 508.038393 
L 280.811036 506.337356 
" clip-path="url(#p1adb9d4ced)" style="fill: #f29888"/>
    <path d="M 296.373736 500.518379 
L 296.985778 501.152432 
L 291.547934 506.419169 
L 290.13728 504.963573 
L 291.047379 504.084079 
L 291.843716 504.905622 
L 296.373736 500.518379 
" clip-path="url(#p1adb9d4ced)" style="fill: #f29888"/>
    <path d="M 281.063589 502.038744 
L 281.928183 501.091072 
L 285.982676 504.782901 
L 285.120357 505.730573 
L 281.063589 502.038744 
" clip-path="url(#p1adb9d4ced)" style="fill: #f29888"/>
    <path d="M 285.486672 501.667175 
L 291.258977 495.930011 
L 293.231618 497.917394 
L 287.461587 503.654558 
L 285.486672 501.667175 
" clip-path="url(#p1adb9d4ced)" style="fill: #f29888"/>
    <path d="M 236.518773 482.706922 
L 233.604179 485.515848 
L 226.230099 477.859478 
L 229.144692 475.053961 
L 236.518773 482.706922 
" clip-path="url(#p1adb9d4ced)" style="fill: #f29888"/>
    <path d="M 190.249319 467.438498 
L 192.713413 469.998575 
L 197.887328 465.014776 
L 195.425509 462.458108 
L 198.654087 459.349199 
L 203.689212 464.575029 
L 195.291269 472.660919 
L 195.475565 472.855226 
L 192.390328 475.82437 
L 187.170907 470.404233 
L 190.249319 467.438498 
" clip-path="url(#p1adb9d4ced)" style="fill: #f29888"/>
    <path d="M 173.944888 448.413476 
L 177.387339 452.354154 
L 170.984789 457.948145 
L 167.542338 454.004057 
L 173.944888 448.413476 
" clip-path="url(#p1adb9d4ced)" style="fill: #f29888"/>
    <path d="M 165.583349 336.445034 
L 168.022416 338.94716 
L 153.119538 353.499717 
L 150.678196 351.001 
L 165.583349 336.445034 
" clip-path="url(#p1adb9d4ced)" style="fill: #f29888"/>
    <path d="M 195.728117 325.410453 
L 214.70824 347.534157 
L 212.157687 349.719256 
L 193.179839 327.595552 
L 195.728117 325.410453 
" clip-path="url(#p1adb9d4ced)" style="fill: #f29888"/>
    <path d="M 395.538168 400.477647 
L 393.836282 401.994604 
L 392.282287 400.249251 
L 393.984173 398.732295 
L 395.538168 400.477647 
" clip-path="url(#p1adb9d4ced)" style="fill: #f29888"/>
    <path d="M 380.658042 395.285906 
L 383.035677 398.094832 
L 376.376025 403.733138 
L 373.996115 400.924212 
L 380.658042 395.285906 
" clip-path="url(#p1adb9d4ced)" style="fill: #f29888"/>
    <path d="M 398.787223 394.280283 
L 400.261584 395.926777 
L 398.25709 397.723263 
L 396.780454 396.07336 
L 398.787223 394.280283 
" clip-path="url(#p1adb9d4ced)" style="fill: #f29888"/>
    <path d="M 361.923646 383.525231 
L 364.826863 387.070478 
L 354.276536 395.715426 
L 351.371043 392.170179 
L 361.923646 383.525231 
" clip-path="url(#p1adb9d4ced)" style="fill: #f29888"/>
    <path d="M 343.164222 375.862043 
L 347.837582 380.596993 
L 345.255175 382.955946 
L 340.716055 378.176681 
L 343.164222 375.862043 
" clip-path="url(#p1adb9d4ced)" style="fill: #f29888"/>
    <path d="M 353.396015 365.904672 
L 358.444791 371.430485 
L 351.669101 377.621031 
L 346.620324 372.095219 
L 353.396015 365.904672 
" clip-path="url(#p1adb9d4ced)" style="fill: #f29888"/>
    <path d="M 364.057829 358.602827 
L 367.08391 361.868545 
L 364.738128 363.855928 
L 361.652891 360.740202 
L 364.057829 358.602827 
" clip-path="url(#p1adb9d4ced)" style="fill: #f29888"/>
    <path d="M 394.557536 353.833788 
L 400.921406 347.997766 
L 403.030561 350.298768 
L 396.666691 356.13479 
L 394.557536 353.833788 
" clip-path="url(#p1adb9d4ced)" style="fill: #f29888"/>
    <path d="M 337.421495 303.1913 
L 335.46023 305.069599 
L 332.170221 301.633437 
L 334.131485 299.755137 
L 337.421495 303.1913 
" clip-path="url(#p1adb9d4ced)" style="fill: #f29888"/>
    <path d="M 327.132821 292.70555 
L 330.654905 295.906499 
L 328.718669 298.037056 
L 325.196584 294.836107 
L 327.132821 292.70555 
" clip-path="url(#p1adb9d4ced)" style="fill: #f29888"/>
    <path d="M 232.937532 334.866717 
L 225.019667 342.202651 
L 222.114174 339.066471 
L 230.032039 331.730537 
L 232.937532 334.866717 
" clip-path="url(#p1adb9d4ced)" style="fill: #f29888"/>
    <path d="M 183.109589 319.475573 
L 185.55093 321.977699 
L 170.645777 336.530256 
L 168.204436 334.031539 
L 183.109589 319.475573 
" clip-path="url(#p1adb9d4ced)" style="fill: #f29888"/>
    <path d="M 241.560724 321.193654 
L 244.623208 324.541186 
L 236.470993 331.993022 
L 233.408508 328.645491 
L 241.560724 321.193654 
" clip-path="url(#p1adb9d4ced)" style="fill: #f29888"/>
    <path d="M 253.262327 310.769265 
L 256.010827 313.919081 
L 247.744849 321.139112 
L 244.994074 317.989297 
L 253.262327 310.769265 
" clip-path="url(#p1adb9d4ced)" style="fill: #f29888"/>
    <path d="M 255.687742 299.547195 
L 263.196062 307.755805 
L 260.538572 310.189754 
L 253.030251 301.977735 
L 255.687742 299.547195 
" clip-path="url(#p1adb9d4ced)" style="fill: #f29888"/>
    <path d="M 211.739041 296.58146 
L 196.601813 310.902212 
L 194.051259 308.209188 
L 209.188487 293.888436 
L 211.739041 296.58146 
" clip-path="url(#p1adb9d4ced)" style="fill: #f29888"/>
    <path d="M 271.041119 300.713036 
L 268.506492 303.143575 
L 262.743287 297.1337 
L 265.277914 294.703161 
L 271.041119 300.713036 
" clip-path="url(#p1adb9d4ced)" style="fill: #f29888"/>
    <path d="M 280.881569 287.210418 
L 283.202322 289.995482 
L 276.779296 295.347441 
L 274.458542 292.562377 
L 280.881569 287.210418 
" clip-path="url(#p1adb9d4ced)" style="fill: #f29888"/>
    <path d="M 239.524376 282.673183 
L 251.050785 295.016779 
L 248.022429 297.846158 
L 236.493745 285.502563 
L 239.524376 282.673183 
" clip-path="url(#p1adb9d4ced)" style="fill: #f29888"/>
    <path d="M 256.575089 285.383252 
L 261.926473 291.311314 
L 259.307662 293.673675 
L 253.956278 287.745614 
L 256.575089 285.383252 
" clip-path="url(#p1adb9d4ced)" style="fill: #f29888"/>
    <path d="M 230.614503 273.857791 
L 232.953458 276.400824 
L 217.524998 290.605673 
L 215.186043 288.066049 
L 230.614503 273.857791 
" clip-path="url(#p1adb9d4ced)" style="fill: #f29888"/>
    <path d="M 290.801652 277.907553 
L 293.026845 280.321048 
L 287.304595 285.591194 
L 285.079402 283.177699 
L 290.801652 277.907553 
" clip-path="url(#p1adb9d4ced)" style="fill: #f29888"/>
    <path d="M 253.105335 281.48348 
L 250.527478 283.907202 
L 244.438913 277.423491 
L 247.01677 275.003178 
L 253.105335 281.48348 
" clip-path="url(#p1adb9d4ced)" style="fill: #f29888"/>
    <path d="M 238.28209 265.717358 
L 244.252343 271.604514 
L 241.694963 274.195271 
L 235.726986 268.308116 
L 238.28209 265.717358 
" clip-path="url(#p1adb9d4ced)" style="fill: #f29888"/>
    <path d="M 221.973109 267.912684 
L 223.715949 268.130853 
L 223.636316 268.911489 
L 224.771665 269.010347 
L 224.498635 271.457931 
L 221.700079 271.144313 
L 221.973109 267.912684 
" clip-path="url(#p1adb9d4ced)" style="fill: #f29888"/>
    <path d="M 304.899092 269.86257 
L 302.214299 272.238567 
L 296.82196 266.14347 
L 299.504478 263.770881 
L 304.899092 269.86257 
" clip-path="url(#p1adb9d4ced)" style="fill: #f29888"/>
    <path d="M 303.788771 255.722489 
L 311.156026 263.665206 
L 308.027559 266.569581 
L 300.658029 258.623456 
L 303.788771 255.722489 
" clip-path="url(#p1adb9d4ced)" style="fill: #f29888"/>
    <path d="M 234.903346 260.23927 
L 231.474547 263.552712 
L 227.283539 259.213194 
L 230.712339 255.899752 
L 234.903346 260.23927 
" clip-path="url(#p1adb9d4ced)" style="fill: #f29888"/>
    <path d="M 246.848401 262.843663 
L 244.270545 260.154048 
L 250.09063 254.566875 
L 252.670762 257.253081 
L 246.848401 262.843663 
" clip-path="url(#p1adb9d4ced)" style="fill: #f29888"/>
    <path d="M 295.882282 260.26995 
L 293.311251 262.666401 
L 287.67091 256.615619 
L 290.241941 254.219168 
L 295.882282 260.26995 
" clip-path="url(#p1adb9d4ced)" style="fill: #f29888"/>
    <path d="M 281.104543 244.626548 
L 286.826793 250.721646 
L 284.212532 253.176047 
L 278.490282 247.084359 
L 281.104543 244.626548 
" clip-path="url(#p1adb9d4ced)" style="fill: #f29888"/>
    <path d="M 290.312474 241.493777 
L 299.122236 250.465979 
L 295.986944 253.547617 
L 287.177181 244.572006 
L 290.312474 241.493777 
" clip-path="url(#p1adb9d4ced)" style="fill: #f29888"/>
    <path d="M 264.718203 245.707167 
L 258.720648 251.035264 
L 256.274756 248.28088 
L 262.272311 242.956191 
L 264.718203 245.707167 
" clip-path="url(#p1adb9d4ced)" style="fill: #f29888"/>
    <path d="M 271.161707 234.232839 
L 277.013646 240.665417 
L 274.526799 242.925511 
L 268.67486 236.492934 
L 271.161707 234.232839 
" clip-path="url(#p1adb9d4ced)" style="fill: #f29888"/>
    <path d="M 285.336505 228.11047 
L 281.413977 232.098873 
L 288.781232 239.346176 
L 285.543553 242.639165 
L 275.095612 232.357949 
L 282.258094 225.079966 
L 285.336505 228.11047 
" clip-path="url(#p1adb9d4ced)" style="fill: #f29888"/>
    <path d="M 260.411158 216.465698 
L 267.484905 222.782373 
L 266.467869 223.920943 
L 267.873973 225.178824 
L 264.449724 229.010417 
L 255.969872 221.435861 
L 260.411158 216.465698 
" clip-path="url(#p1adb9d4ced)" style="fill: #f29888"/>
    <path d="M 300.280338 216.779316 
L 292.480786 223.794814 
L 289.593495 220.587047 
L 297.395322 213.571549 
L 300.280338 216.779316 
" clip-path="url(#p1adb9d4ced)" style="fill: #f29888"/>
    <path d="M 277.018197 210.643311 
L 281.065864 214.901017 
L 275.154768 220.518869 
L 271.107101 216.261164 
L 277.018197 210.643311 
" clip-path="url(#p1adb9d4ced)" style="fill: #f29888"/>
    <path d="M 310.573562 205.939041 
L 302.801313 213.448829 
L 299.716076 210.258107 
L 307.488325 202.748319 
L 310.573562 205.939041 
" clip-path="url(#p1adb9d4ced)" style="fill: #f29888"/>
    <path d="M 278.326465 190.333137 
L 280.772357 192.920486 
L 276.8157 196.663448 
L 284.713087 205.011823 
L 289.49566 200.491633 
L 287.971243 198.879228 
L 290.521797 196.465733 
L 292.048488 198.078138 
L 295.459086 194.849918 
L 293.836834 193.135246 
L 295.934613 191.147862 
L 300.141547 195.596465 
L 284.474186 210.411507 
L 271.546224 196.745262 
L 278.326465 190.333137 
" clip-path="url(#p1adb9d4ced)" style="fill: #f29888"/>
    <path d="M 314.901085 260.229043 
L 311.938711 257.137179 
L 319.883879 249.521716 
L 322.846253 252.61358 
L 314.901085 260.229043 
" clip-path="url(#p1adb9d4ced)" style="fill: #f29888"/>
    <path d="M 327.226106 248.591089 
L 324.222778 245.506042 
L 331.849411 238.081477 
L 334.852739 241.166524 
L 327.226106 248.591089 
" clip-path="url(#p1adb9d4ced)" style="fill: #f29888"/>
    <path d="M 343.475931 227.207114 
L 346.345019 230.227392 
L 338.135923 238.026935 
L 335.266834 235.006657 
L 343.475931 227.207114 
" clip-path="url(#p1adb9d4ced)" style="fill: #f29888"/>
    <path d="M 341.059617 225.079966 
L 337.937976 227.997977 
L 330.83465 220.402967 
L 333.956291 217.481547 
L 341.059617 225.079966 
" clip-path="url(#p1adb9d4ced)" style="fill: #f29888"/>
    <path d="M 331.392086 215.620293 
L 328.277271 218.534895 
L 320.94187 210.704671 
L 324.056685 207.790069 
L 331.392086 215.620293 
" clip-path="url(#p1adb9d4ced)" style="fill: #f29888"/>
    <path d="M 321.421947 205.086819 
L 318.43227 207.848021 
L 311.039988 199.843944 
L 314.027389 197.082742 
L 321.421947 205.086819 
" clip-path="url(#p1adb9d4ced)" style="fill: #f29888"/>
    <path d="M 380.123359 174.945402 
L 377.857212 176.94983 
L 385.868362 186.010663 
L 384.166476 187.513984 
L 367.170369 168.287838 
L 368.872255 166.784517 
L 369.061101 166.999277 
L 371.327248 164.994849 
L 380.123359 174.945402 
" clip-path="url(#p1adb9d4ced)" style="fill: #f29888"/>
    <path d="M 387.269915 157.225986 
L 385.056098 159.189507 
L 381.588619 155.279509 
L 383.800161 153.315987 
L 387.269915 157.225986 
" clip-path="url(#p1adb9d4ced)" style="fill: #f29888"/>
    <path d="M 388.189115 149.450305 
L 390.405207 152.208098 
L 389.15382 153.210312 
L 386.937728 150.452519 
L 388.189115 149.450305 
" clip-path="url(#p1adb9d4ced)" style="fill: #f29888"/>
    <path d="M 402.140939 146.593654 
L 403.542492 145.178964 
L 404.71197 146.331169 
L 403.310417 147.749268 
L 402.140939 146.593654 
" clip-path="url(#p1adb9d4ced)" style="fill: #f29888"/>
    <path d="M 278.415199 176.390772 
L 280.98168 179.496272 
L 275.753158 183.818746 
L 273.186678 180.713246 
L 278.415199 176.390772 
" clip-path="url(#p1adb9d4ced)" style="fill: #f29888"/>
    <path d="M 254.704834 173.186414 
L 248.94163 178.45656 
L 246.625427 175.920345 
L 252.388631 170.653608 
L 254.704834 173.186414 
" clip-path="url(#p1adb9d4ced)" style="fill: #f29888"/>
    <path d="M 262.31099 161.101895 
L 264.477027 163.375625 
L 258.424866 169.14006 
L 256.258829 166.86633 
L 262.31099 161.101895 
" clip-path="url(#p1adb9d4ced)" style="fill: #f29888"/>
    <path d="M 438.560842 158.419097 
L 440.212673 156.547616 
L 441.445857 157.635052 
L 439.794027 159.509943 
L 438.560842 158.419097 
" clip-path="url(#p1adb9d4ced)" style="fill: #f29888"/>
    <path d="M 435.687203 158.136159 
L 437.275327 156.339674 
L 437.930598 156.915776 
L 436.342475 158.715671 
L 435.687203 158.136159 
" clip-path="url(#p1adb9d4ced)" style="fill: #f29888"/>
    <path d="M 431.496196 157.662324 
L 433.405129 155.497678 
L 434.149135 156.155594 
L 432.240202 158.32024 
L 431.496196 157.662324 
" clip-path="url(#p1adb9d4ced)" style="fill: #f29888"/>
    <path d="M 437.079656 156.397625 
L 436.226437 157.362341 
L 435.630322 156.837372 
L 436.48354 155.872656 
L 437.079656 156.397625 
" clip-path="url(#p1adb9d4ced)" style="fill: #f29888"/>
    <path d="M 439.887312 154.621593 
L 441.006734 153.353485 
L 441.869054 154.113668 
L 440.749631 155.381775 
L 439.887312 154.621593 
" clip-path="url(#p1adb9d4ced)" style="fill: #f29888"/>
    <path d="M 430.283488 152.105831 
L 431.330102 153.026232 
L 430.793144 153.636423 
L 432.22655 154.901122 
L 431.49392 155.732891 
L 430.060514 154.468193 
L 428.972945 155.698802 
L 427.926331 154.774993 
L 430.283488 152.105831 
" clip-path="url(#p1adb9d4ced)" style="fill: #f29888"/>
    <path d="M 426.158463 153.660285 
L 427.785265 151.816075 
L 428.945642 152.838743 
L 427.318839 154.682953 
L 426.158463 153.660285 
" clip-path="url(#p1adb9d4ced)" style="fill: #f29888"/>
    <path d="M 408.040659 154.887486 
L 407.50825 154.396606 
L 410.591212 151.052483 
L 411.12362 151.543364 
L 408.040659 154.887486 
" clip-path="url(#p1adb9d4ced)" style="fill: #f29888"/>
    <path d="M 422.706911 151.008168 
L 424.583991 148.88102 
L 426.247197 150.346843 
L 424.370117 152.473991 
L 422.706911 151.008168 
" clip-path="url(#p1adb9d4ced)" style="fill: #f29888"/>
    <path d="M 431.471168 150.104812 
L 432.636095 148.785571 
L 433.939813 149.934367 
L 432.774885 151.257017 
L 431.471168 150.104812 
" clip-path="url(#p1adb9d4ced)" style="fill: #f29888"/>
    <path d="M 405.164744 150.183216 
L 406.966741 148.134473 
L 408.325065 149.330993 
L 406.525343 151.376328 
L 405.164744 150.183216 
" clip-path="url(#p1adb9d4ced)" style="fill: #f29888"/>
    <path d="M 420.907189 150.367296 
L 419.671729 149.276451 
L 421.551084 147.145894 
L 422.786544 148.236739 
L 420.907189 150.367296 
" clip-path="url(#p1adb9d4ced)" style="fill: #f29888"/>
    <path d="M 418.035825 147.03681 
L 416.966459 146.092547 
L 418.206469 144.688084 
L 419.275836 145.632346 
L 418.035825 147.03681 
" clip-path="url(#p1adb9d4ced)" style="fill: #f29888"/>
    <path d="M 414.752642 144.476732 
L 413.373841 143.259758 
L 415.175838 141.217832 
L 416.554639 142.434806 
L 414.752642 144.476732 
" clip-path="url(#p1adb9d4ced)" style="fill: #f29888"/>
    <path d="M 419.050586 140.999663 
L 418.302029 140.341747 
L 419.218955 139.302035 
L 419.967511 139.959951 
L 419.050586 140.999663 
" clip-path="url(#p1adb9d4ced)" style="fill: #f29888"/>
    <path d="M 411.189602 140.883761 
L 410.272677 140.075854 
L 411.831223 138.313457 
L 412.745872 139.121364 
L 411.189602 140.883761 
" clip-path="url(#p1adb9d4ced)" style="fill: #f29888"/>
    <path d="M 420.41346 135.917006 
L 418.154138 138.477084 
L 416.404472 136.932856 
L 418.666069 134.372779 
L 420.41346 135.917006 
" clip-path="url(#p1adb9d4ced)" style="fill: #f29888"/>
    <path d="M 408.893877 133.592143 
L 409.92684 134.505725 
L 408.700481 135.893144 
L 407.667518 134.98297 
L 408.893877 133.592143 
" clip-path="url(#p1adb9d4ced)" style="fill: #f29888"/>
    <path d="M 408.573067 133.305796 
L 405.854145 136.384024 
L 404.093102 134.82957 
L 406.812024 131.751341 
L 408.573067 133.305796 
" clip-path="url(#p1adb9d4ced)" style="fill: #f29888"/>
    <path d="M 410.290879 134.597765 
L 409.530946 133.929623 
L 411.112244 132.136546 
L 411.872177 132.808098 
L 410.290879 134.597765 
" clip-path="url(#p1adb9d4ced)" style="fill: #f29888"/>
    <path d="M 523.059022 454.154049 
L 526.510574 447.810102 
L 529.497976 449.436143 
L 526.046424 455.776681 
L 523.059022 454.154049 
" clip-path="url(#p1adb9d4ced)" style="fill: #f29888"/>
    <path d="M 764.647187 449.944068 
L 765.875821 450.145193 
L 765.680149 451.348531 
L 764.44924 451.143998 
L 764.647187 449.944068 
" clip-path="url(#p1adb9d4ced)" style="fill: #f29888"/>
    <path d="M 665.978759 440.93096 
L 667.510001 438.282251 
L 671.268712 440.460533 
L 669.737469 443.105832 
L 665.978759 440.93096 
" clip-path="url(#p1adb9d4ced)" style="fill: #f29888"/>
    <path d="M 537.839037 433.209821 
L 533.782269 441.322982 
L 530.565067 439.713985 
L 534.61956 431.600824 
L 537.839037 433.209821 
" clip-path="url(#p1adb9d4ced)" style="fill: #f29888"/>
    <path d="M 548.125435 431.662184 
L 549.734036 432.456456 
L 549.278986 433.380265 
L 547.670386 432.585994 
L 548.125435 431.662184 
" clip-path="url(#p1adb9d4ced)" style="fill: #f29888"/>
    <path d="M 553.010394 424.152397 
L 549.397299 431.266753 
L 545.665892 429.368 
L 549.278986 422.257053 
L 553.010394 424.152397 
" clip-path="url(#p1adb9d4ced)" style="fill: #f29888"/>
    <path d="M 649.219278 421.824124 
L 654.163393 425.880705 
L 652.791418 427.55447 
L 647.849578 423.494481 
L 649.219278 421.824124 
" clip-path="url(#p1adb9d4ced)" style="fill: #f29888"/>
    <path d="M 543.474827 421.691177 
L 540.93565 427.329483 
L 539.368004 426.623843 
L 541.907181 420.982128 
L 543.474827 421.691177 
" clip-path="url(#p1adb9d4ced)" style="fill: #f29888"/>
    <path d="M 636.043314 424.087628 
L 639.21046 421.285519 
L 640.457296 422.693391 
L 637.29015 425.498909 
L 636.043314 424.087628 
" clip-path="url(#p1adb9d4ced)" style="fill: #f29888"/>
    <path d="M 545.991252 421.115075 
L 545.381486 422.652485 
L 543.563562 421.926391 
L 544.173329 420.39239 
L 545.991252 421.115075 
" clip-path="url(#p1adb9d4ced)" style="fill: #f29888"/>
    <path d="M 528.289819 416.830098 
L 529.700473 413.346212 
L 534.910792 415.456315 
L 533.497863 418.940202 
L 528.289819 416.830098 
" clip-path="url(#p1adb9d4ced)" style="fill: #f29888"/>
    <path d="M 644.070391 415.47336 
L 642.368505 417.44029 
L 636.771393 412.589438 
L 638.475554 410.625916 
L 644.070391 415.47336 
" clip-path="url(#p1adb9d4ced)" style="fill: #f29888"/>
    <path d="M 518.858913 411.948566 
L 520.42656 408.778297 
L 529.427443 413.230309 
L 527.859797 416.400578 
L 518.858913 411.948566 
" clip-path="url(#p1adb9d4ced)" style="fill: #f29888"/>
    <path d="M 762.842914 410.98385 
L 759.18659 415.429044 
L 755.198079 412.180371 
L 758.997744 407.759039 
L 762.842914 410.98385 
" clip-path="url(#p1adb9d4ced)" style="fill: #f29888"/>
    <path d="M 760.294636 405.983006 
L 756.831708 409.13964 
L 754.167392 406.7091 
L 757.95113 403.429747 
L 760.294636 405.983006 
" clip-path="url(#p1adb9d4ced)" style="fill: #f29888"/>
    <path d="M 786.775942 403.775614 
L 785.675376 406.49792 
L 785.470261 406.398891 
L 786.7444 403.760409 
L 786.775942 403.775614 
" clip-path="url(#p1adb9d4ced)" style="fill: #f29888"/>
    <path d="M 748.877439 401.220785 
L 751.282377 403.351342 
L 747.498638 407.622683 
L 745.093701 405.488717 
L 748.877439 401.220785 
" clip-path="url(#p1adb9d4ced)" style="fill: #f29888"/>
    <path d="M 747.910458 395.105234 
L 750.927438 397.736899 
L 744.019783 405.659162 
L 741.000529 403.024089 
L 747.910458 395.105234 
" clip-path="url(#p1adb9d4ced)" style="fill: #f29888"/>
    <path d="M 789.39734 396.84036 
L 787.84107 395.862008 
L 789.010548 394.007572 
L 790.37752 394.866921 
L 789.905405 396.034723 
L 789.39734 396.84036 
" clip-path="url(#p1adb9d4ced)" style="fill: #f29888"/>
    <path d="M 776.781087 393.383744 
L 772.269269 398.953873 
L 767.238695 394.880248 
L 771.750512 389.310119 
L 776.781087 393.383744 
" clip-path="url(#p1adb9d4ced)" style="fill: #f29888"/>
    <path d="M 780.687689 396.155173 
L 778.287301 392.766735 
L 779.406724 391.975872 
L 781.807111 395.36431 
L 780.687689 396.155173 
" clip-path="url(#p1adb9d4ced)" style="fill: #f29888"/>
    <path d="M 530.278386 385.423983 
L 531.864234 383.930889 
L 532.899472 385.031961 
L 531.313624 386.521646 
L 530.278386 385.423983 
" clip-path="url(#p1adb9d4ced)" style="fill: #f29888"/>
    <path d="M 527.268232 380.736758 
L 525.309243 382.857088 
L 523.898589 381.558301 
L 525.857578 379.434561 
L 527.268232 380.736758 
" clip-path="url(#p1adb9d4ced)" style="fill: #f29888"/>
    <path d="M 521.80081 377.638076 
L 523.334327 379.134579 
L 521.516404 380.999243 
L 519.982886 379.506148 
L 521.80081 377.638076 
" clip-path="url(#p1adb9d4ced)" style="fill: #f29888"/>
    <path d="M 517.323121 377.10288 
L 515.179837 375.527972 
L 516.531334 373.687171 
L 518.676894 375.262079 
L 517.323121 377.10288 
" clip-path="url(#p1adb9d4ced)" style="fill: #f29888"/>
    <path d="M 514.105919 375.050727 
L 513.011525 374.086011 
L 514.899981 371.941818 
L 515.994376 372.906535 
L 514.105919 375.050727 
" clip-path="url(#p1adb9d4ced)" style="fill: #f29888"/>
    <path d="M 522.158024 364.776329 
L 523.461741 363.54231 
L 524.328611 364.455893 
L 523.022618 365.693321 
L 522.158024 364.776329 
" clip-path="url(#p1adb9d4ced)" style="fill: #f29888"/>
    <path d="M 518.877115 361.981038 
L 520.672287 360.280002 
L 522.089766 361.776505 
L 520.294595 363.477542 
L 518.877115 361.981038 
" clip-path="url(#p1adb9d4ced)" style="fill: #f29888"/>
    <path d="M 496.384008 456.366419 
L 495.828848 458.224265 
L 491.842612 457.034562 
L 492.395498 455.176716 
L 496.384008 456.366419 
" clip-path="url(#p1adb9d4ced)" style="fill: #f29888"/>
    <path d="M 504.342828 446.449954 
L 502.898045 449.085027 
L 501.180232 448.144173 
L 502.625015 445.5091 
L 504.342828 446.449954 
" clip-path="url(#p1adb9d4ced)" style="fill: #f29888"/>
    <path d="M 509.036666 442.430872 
L 508.203925 444.131908 
L 504.822905 442.475187 
L 505.655646 440.774151 
L 509.036666 442.430872 
" clip-path="url(#p1adb9d4ced)" style="fill: #f29888"/>
    <path d="M 502.659144 427.199946 
L 511.521237 409.29304 
L 516.067184 411.542908 
L 507.207366 429.449814 
L 502.659144 427.199946 
" clip-path="url(#p1adb9d4ced)" style="fill: #f29888"/>
    <path d="M 475.542732 340.044823 
L 474.386906 339.090334 
L 475.831689 337.341572 
L 476.987515 338.296062 
L 475.542732 340.044823 
" clip-path="url(#p1adb9d4ced)" style="fill: #f29888"/>
    <path d="M 475.492676 334.757633 
L 474.257217 336.083691 
L 473.349392 335.241695 
L 474.584852 333.912228 
L 475.492676 334.757633 
" clip-path="url(#p1adb9d4ced)" style="fill: #f29888"/>
    <path d="M 470.923977 336.571163 
L 469.674866 335.262149 
L 471.749893 333.278174 
L 473.001279 334.587188 
L 470.923977 336.571163 
" clip-path="url(#p1adb9d4ced)" style="fill: #f29888"/>
    <path d="M 512.087774 263.781108 
L 508.299485 269.225107 
L 495.79927 260.440395 
L 499.801432 254.948671 
L 512.087774 263.781108 
" clip-path="url(#p1adb9d4ced)" style="fill: #f29888"/>
    <path d="M 471.859105 236.697467 
L 475.554108 239.956367 
L 474.282244 241.398328 
L 470.587241 238.139428 
L 471.859105 236.697467 
" clip-path="url(#p1adb9d4ced)" style="fill: #f29888"/>
    <path d="M 466.327975 226.337847 
L 467.638519 227.493461 
L 466.987797 228.229781 
L 465.67953 227.074167 
L 466.327975 226.337847 
" clip-path="url(#p1adb9d4ced)" style="fill: #f29888"/>
    <path d="M 782.623925 358.459654 
L 779.577367 360.815197 
L 780.869709 362.482145 
L 778.712773 364.152502 
L 777.459111 362.52987 
L 777.324871 362.632136 
L 776.432974 361.479931 
L 781.768432 357.351764 
L 782.623925 358.459654 
" clip-path="url(#p1adb9d4ced)" style="fill: #f29888"/>
    <path d="M 775.484195 361.718554 
L 775.013219 361.101544 
L 777.575149 359.144841 
L 778.046125 359.76185 
L 775.484195 361.718554 
" clip-path="url(#p1adb9d4ced)" style="fill: #f29888"/>
    <path d="M 570.6868 312.633929 
L 566.427535 317.597274 
L 552.641804 305.761604 
L 556.903344 300.798258 
L 570.6868 312.633929 
" clip-path="url(#p1adb9d4ced)" style="fill: #f29888"/>
    <path d="M 582.989069 308.311454 
L 580.406661 311.321505 
L 568.798343 301.357316 
L 571.383026 298.347265 
L 582.989069 308.311454 
" clip-path="url(#p1adb9d4ced)" style="fill: #f29888"/>
    <path d="M 556.750903 299.928991 
L 552.15035 305.287768 
L 541.786593 296.390562 
L 546.387145 291.031785 
L 556.750903 299.928991 
" clip-path="url(#p1adb9d4ced)" style="fill: #f29888"/>
    <path d="M 571.956388 297.075749 
L 567.772206 301.950463 
L 553.779428 289.937531 
L 557.96361 285.062816 
L 571.956388 297.075749 
" clip-path="url(#p1adb9d4ced)" style="fill: #f29888"/>
    <path d="M 537.845862 289.50801 
L 535.711679 291.993092 
L 532.455799 289.197801 
L 534.589982 286.71272 
L 537.845862 289.50801 
" clip-path="url(#p1adb9d4ced)" style="fill: #f29888"/>
    <path d="M 556.625764 284.019695 
L 552.33237 289.023948 
L 538.885651 277.478033 
L 543.179045 272.47719 
L 556.625764 284.019695 
" clip-path="url(#p1adb9d4ced)" style="fill: #f29888"/>
    <path d="M 524.494704 275.824721 
L 521.152364 279.717675 
L 513.145764 272.841941 
L 516.485829 268.952396 
L 524.494704 275.824721 
" clip-path="url(#p1adb9d4ced)" style="fill: #f29888"/>
    <path d="M 529.67317 264.578789 
L 526.83821 267.878595 
L 524.594815 265.952572 
L 527.429775 262.652765 
L 529.67317 264.578789 
" clip-path="url(#p1adb9d4ced)" style="fill: #f29888"/>
    <path d="M 404.43894 393.591687 
L 407.515076 396.434702 
L 406.900759 397.099436 
L 403.822348 394.256421 
L 404.43894 393.591687 
" clip-path="url(#p1adb9d4ced)" style="fill: #f29888"/>
    <path d="M 404.614134 389.085133 
L 406.875731 391.137285 
L 405.082835 393.114442 
L 402.818963 391.062289 
L 404.614134 389.085133 
" clip-path="url(#p1adb9d4ced)" style="fill: #f29888"/>
    <path d="M 417.280443 360.648162 
L 424.599917 353.421312 
L 426.913845 355.763221 
L 419.592095 362.99007 
L 417.280443 360.648162 
" clip-path="url(#p1adb9d4ced)" style="fill: #f29888"/>
    <path d="M 428.916064 349.34087 
L 437.031875 341.786767 
L 439.364005 344.292302 
L 431.250469 351.846405 
L 428.916064 349.34087 
" clip-path="url(#p1adb9d4ced)" style="fill: #f29888"/>
    <path d="M 447.97127 215.514617 
L 450.537751 217.78153 
L 449.673156 218.759881 
L 447.108951 216.492969 
L 447.97127 215.514617 
" clip-path="url(#p1adb9d4ced)" style="fill: #f29888"/>
    <path d="M 450.150958 193.411366 
L 451.534309 194.631749 
L 449.948461 196.428235 
L 448.56511 195.207852 
L 450.150958 193.411366 
" clip-path="url(#p1adb9d4ced)" style="fill: #f29888"/>
    <path d="M 444.251239 191.61488 
L 441.787145 194.481758 
L 438.12627 191.335351 
L 440.590364 188.468474 
L 444.251239 191.61488 
" clip-path="url(#p1adb9d4ced)" style="fill: #f29888"/>
    <path d="M 434.246971 181.28594 
L 437.486925 183.989191 
L 436.797525 184.814142 
L 433.557571 182.110892 
L 434.246971 181.28594 
" clip-path="url(#p1adb9d4ced)" style="fill: #f29888"/>
    <path d="M 442.540252 176.475994 
L 447.78925 182.30179 
L 446.355844 183.944875 
L 445.477598 183.52899 
L 444.713114 184.568702 
L 439.602906 179.458774 
L 442.540252 176.475994 
" clip-path="url(#p1adb9d4ced)" style="fill: #f29888"/>
    <path d="M 450.990525 176.868017 
L 450.239693 177.716831 
L 449.511613 177.075959 
L 450.262446 176.223736 
L 450.990525 176.868017 
" clip-path="url(#p1adb9d4ced)" style="fill: #f29888"/>
    <path d="M 536.869781 261.476698 
L 535.083711 263.556121 
L 531.96207 260.873324 
L 533.745865 258.7939 
L 536.869781 261.476698 
" clip-path="url(#p1adb9d4ced)" style="fill: #f29888"/>
    <path d="M 626.366682 221.019976 
L 625.677281 220.327971 
L 628.173229 218.309908 
L 630.564515 221.125652 
L 627.483829 223.83572 
L 625.304141 221.817657 
L 626.366682 221.019976 
" clip-path="url(#p1adb9d4ced)" style="fill: #f29888"/>
    <path d="M 486.775634 224.66749 
L 484.138621 222.339217 
L 487.283014 218.776926 
L 489.920027 221.105199 
L 486.775634 224.66749 
" clip-path="url(#p1adb9d4ced)" style="fill: #f29888"/>
    <path d="M 462.453227 220.034807 
L 459.215548 223.702774 
L 453.891467 219.005322 
L 457.129146 215.337355 
L 462.453227 220.034807 
" clip-path="url(#p1adb9d4ced)" style="fill: #f29888"/>
    <path d="M 486.539008 217.004302 
L 483.76548 220.150709 
L 482.015814 218.606481 
L 484.791617 215.463484 
L 486.539008 217.004302 
" clip-path="url(#p1adb9d4ced)" style="fill: #f29888"/>
    <path d="M 497.291833 216.762271 
L 499.396438 214.379456 
L 500.84122 215.654382 
L 498.736615 218.037196 
L 497.291833 216.762271 
" clip-path="url(#p1adb9d4ced)" style="fill: #f29888"/>
    <path d="M 496.688892 215.562341 
L 498.142776 213.915847 
L 498.722964 214.427181 
L 497.26908 216.077084 
L 496.688892 215.562341 
" clip-path="url(#p1adb9d4ced)" style="fill: #f29888"/>
    <path d="M 496.629735 213.482918 
L 497.548936 214.294234 
L 496.556927 215.419168 
L 495.637727 214.607852 
L 496.629735 213.482918 
" clip-path="url(#p1adb9d4ced)" style="fill: #f29888"/>
    <path d="M 480.141009 212.623877 
L 477.656438 215.439621 
L 476.011433 213.987434 
L 478.496005 211.17169 
L 480.141009 212.623877 
" clip-path="url(#p1adb9d4ced)" style="fill: #f29888"/>
    <path d="M 492.675353 213.063624 
L 491.981403 212.450024 
L 493.048494 211.243276 
L 493.60138 211.734157 
L 493.910813 211.383041 
L 494.586562 211.979597 
L 493.817528 212.852273 
L 493.278294 212.378437 
L 492.675353 213.063624 
" clip-path="url(#p1adb9d4ced)" style="fill: #f29888"/>
    <path d="M 501.414583 210.268333 
L 499.198491 212.777277 
L 498.120023 211.826197 
L 500.336115 209.317253 
L 501.414583 210.268333 
" clip-path="url(#p1adb9d4ced)" style="fill: #f29888"/>
    <path d="M 494.29533 209.542239 
L 491.929072 212.221628 
L 491.241947 211.614845 
L 493.60593 208.935457 
L 494.29533 209.542239 
" clip-path="url(#p1adb9d4ced)" style="fill: #f29888"/>
    <path d="M 497.014252 211.983006 
L 495.93806 211.031925 
L 498.197382 208.475257 
L 499.273574 209.426337 
L 497.014252 211.983006 
" clip-path="url(#p1adb9d4ced)" style="fill: #f29888"/>
    <path d="M 487.801771 205.979948 
L 490.227186 208.120732 
L 487.988341 210.656947 
L 485.562926 208.516163 
L 487.801771 205.979948 
" clip-path="url(#p1adb9d4ced)" style="fill: #f29888"/>
    <path d="M 484.755213 208.61843 
L 483.977078 207.933243 
L 486.55721 205.008414 
L 487.335345 205.693601 
L 484.755213 208.61843 
" clip-path="url(#p1adb9d4ced)" style="fill: #f29888"/>
    <path d="M 494.597938 207.657123 
L 496.986949 204.947054 
L 498.120023 205.945859 
L 495.728737 208.655928 
L 494.597938 207.657123 
" clip-path="url(#p1adb9d4ced)" style="fill: #f29888"/>
    <path d="M 485.198887 204.183462 
L 483.185292 206.464011 
L 481.358267 204.851605 
L 483.371862 202.571057 
L 485.198887 204.183462 
" clip-path="url(#p1adb9d4ced)" style="fill: #f29888"/>
    <path d="M 451.051957 204.149374 
L 454.737859 199.765539 
L 457.495461 202.083585 
L 453.811833 206.46742 
L 451.051957 204.149374 
" clip-path="url(#p1adb9d4ced)" style="fill: #f29888"/>
    <path d="M 479.18313 201.82451 
L 480.83041 199.959846 
L 481.938456 200.938198 
L 480.293451 202.802862 
L 479.18313 201.82451 
" clip-path="url(#p1adb9d4ced)" style="fill: #f29888"/>
    <path d="M 480.771253 199.806446 
L 479.710987 201.009785 
L 478.905549 200.297326 
L 479.96809 199.097397 
L 480.771253 199.806446 
" clip-path="url(#p1adb9d4ced)" style="fill: #f29888"/>
    <path d="M 475.595063 198.712192 
L 474.207161 197.4884 
L 475.968203 195.494199 
L 477.356105 196.717991 
L 475.595063 198.712192 
" clip-path="url(#p1adb9d4ced)" style="fill: #f29888"/>
    <path d="M 468.521315 192.071672 
L 470.407496 189.934297 
L 471.499615 190.899013 
L 469.61571 193.036388 
L 468.521315 192.071672 
" clip-path="url(#p1adb9d4ced)" style="fill: #f29888"/>
    <path d="M 466.293847 189.37183 
L 467.936576 187.510575 
L 469.392735 188.795727 
L 467.750006 190.656982 
L 466.293847 189.37183 
" clip-path="url(#p1adb9d4ced)" style="fill: #f29888"/>
    <path d="M 451.987084 187.469669 
L 454.132643 189.477506 
L 453.438692 190.217235 
L 451.293133 188.212807 
L 451.987084 187.469669 
" clip-path="url(#p1adb9d4ced)" style="fill: #f29888"/>
    <path d="M 454.860723 188.400296 
L 454.096239 189.146843 
L 452.999569 188.028727 
L 453.764053 187.278771 
L 454.860723 188.400296 
" clip-path="url(#p1adb9d4ced)" style="fill: #f29888"/>
    <path d="M 472.400614 188.219625 
L 473.975086 186.436775 
L 475.362987 187.660567 
L 473.788515 189.443417 
L 472.400614 188.219625 
" clip-path="url(#p1adb9d4ced)" style="fill: #f29888"/>
    <path d="M 476.525639 186.607219 
L 475.770257 187.462851 
L 474.573476 186.406095 
L 475.326583 185.550463 
L 476.525639 186.607219 
" clip-path="url(#p1adb9d4ced)" style="fill: #f29888"/>
    <path d="M 462.737633 185.89817 
L 461.313328 184.640289 
L 463.738743 181.892723 
L 465.160773 183.150603 
L 462.737633 185.89817 
" clip-path="url(#p1adb9d4ced)" style="fill: #f29888"/>
    <path d="M 460.203006 184.902774 
L 458.983473 183.825564 
L 461.188189 181.326847 
L 462.409997 182.404056 
L 460.203006 184.902774 
" clip-path="url(#p1adb9d4ced)" style="fill: #f29888"/>
    <path d="M 466.798952 183.293777 
L 465.395123 182.05294 
L 467.74318 179.390596 
L 469.149284 180.631433 
L 466.798952 183.293777 
" clip-path="url(#p1adb9d4ced)" style="fill: #f29888"/>
    <path d="M 457.891354 178.862218 
L 459.331586 177.22595 
L 461.10173 178.787223 
L 459.659222 180.420082 
L 457.891354 178.862218 
" clip-path="url(#p1adb9d4ced)" style="fill: #f29888"/>
    <path d="M 452.942688 175.698767 
L 454.621822 177.181635 
L 453.807283 178.105444 
L 452.128149 176.622577 
L 452.942688 175.698767 
" clip-path="url(#p1adb9d4ced)" style="fill: #f29888"/>
    <path d="M 453.791356 174.601104 
L 455.579701 176.179421 
L 454.824319 177.031644 
L 453.038249 175.456736 
L 453.791356 174.601104 
" clip-path="url(#p1adb9d4ced)" style="fill: #f29888"/>
    <path d="M 451.964331 175.306745 
L 450.892689 174.359073 
L 452.919936 172.06148 
L 453.993853 173.009152 
L 451.964331 175.306745 
" clip-path="url(#p1adb9d4ced)" style="fill: #f29888"/>
    <path d="M 450.014443 170.15591 
L 451.240802 168.765082 
L 452.678759 170.03319 
L 451.4524 171.420609 
L 450.014443 170.15591 
" clip-path="url(#p1adb9d4ced)" style="fill: #f29888"/>
    <path d="M 426.558906 174.256806 
L 426.083379 173.755699 
L 427.459905 172.450094 
L 427.935432 172.951201 
L 426.558906 174.256806 
" clip-path="url(#p1adb9d4ced)" style="fill: #f29888"/>
    <path d="M 433.034264 169.474132 
L 438.535815 174.065908 
L 436.588202 176.39759 
L 431.086651 171.805813 
L 433.034264 169.474132 
" clip-path="url(#p1adb9d4ced)" style="fill: #f29888"/>
    <path d="M 449.127096 170.213861 
L 451.288583 172.12284 
L 449.441081 174.2159 
L 447.277319 172.30692 
L 449.127096 170.213861 
" clip-path="url(#p1adb9d4ced)" style="fill: #f29888"/>
    <path d="M 444.633481 168.199206 
L 443.127266 169.907061 
L 441.388976 168.37306 
L 442.895191 166.665205 
L 444.633481 168.199206 
" clip-path="url(#p1adb9d4ced)" style="fill: #f29888"/>
    <path d="M 426.886542 168.287838 
L 425.958241 167.309486 
L 427.823945 165.540271 
L 428.749971 166.515214 
L 426.886542 168.287838 
" clip-path="url(#p1adb9d4ced)" style="fill: #f29888"/>
    <path d="M 440.594915 167.531064 
L 438.76789 165.918658 
L 440.788311 163.631292 
L 442.615335 165.243698 
L 440.594915 167.531064 
" clip-path="url(#p1adb9d4ced)" style="fill: #f29888"/>
    <path d="M 421.824114 164.214213 
L 423.548753 162.277962 
L 425.346199 163.880141 
L 423.62156 165.816391 
L 421.824114 164.214213 
" clip-path="url(#p1adb9d4ced)" style="fill: #f29888"/>
    <path d="M 437.967002 165.185747 
L 436.551798 163.938092 
L 438.868001 161.313246 
L 440.283205 162.564309 
L 437.967002 165.185747 
" clip-path="url(#p1adb9d4ced)" style="fill: #f29888"/>
    <path d="M 438.230931 158.845209 
L 439.536924 159.997414 
L 438.230931 161.476873 
L 436.924939 160.324668 
L 438.230931 158.845209 
" clip-path="url(#p1adb9d4ced)" style="fill: #f29888"/>
    <path d="M 418.201918 159.042925 
L 417.223562 159.997414 
L 416.370343 159.124738 
L 417.3487 158.170248 
L 418.201918 159.042925 
" clip-path="url(#p1adb9d4ced)" style="fill: #f29888"/>
    <path d="M 399.412916 146.515249 
L 397.902151 145.219871 
L 400.49821 142.199593 
L 402.006699 143.49838 
L 399.412916 146.515249 
" clip-path="url(#p1adb9d4ced)" style="fill: #f29888"/>
    <path d="M 375.242951 143.907447 
L 372.731077 145.969827 
L 368.253387 140.51901 
L 370.765262 138.45663 
L 375.242951 143.907447 
" clip-path="url(#p1adb9d4ced)" style="fill: #f29888"/>
    <path d="M 397.367468 139.424755 
L 395.615526 141.463272 
L 394.252652 140.294023 
L 396.006869 138.255506 
L 397.367468 139.424755 
" clip-path="url(#p1adb9d4ced)" style="fill: #f29888"/>
    <path d="M 372.250999 134.076205 
L 372.969978 133.428516 
L 374.207713 134.805708 
L 373.486459 135.453397 
L 372.250999 134.076205 
" clip-path="url(#p1adb9d4ced)" style="fill: #f29888"/>
    <path d="M 401.114802 132.24563 
L 402.639219 130.513914 
L 404.247819 131.935421 
L 402.723403 133.663729 
L 401.114802 132.24563 
" clip-path="url(#p1adb9d4ced)" style="fill: #f29888"/>
    <path d="M 396.134283 130.077576 
L 397.11719 128.966277 
L 397.836169 129.600331 
L 396.853262 130.715038 
L 396.134283 130.077576 
" clip-path="url(#p1adb9d4ced)" style="fill: #f29888"/>
    <path d="M 398.222961 129.774184 
L 399.738277 128.059512 
L 401.41741 129.54238 
L 399.902095 131.257052 
L 398.222961 129.774184 
" clip-path="url(#p1adb9d4ced)" style="fill: #f29888"/>
    <path d="M 361.391238 115.657966 
L 358.906667 117.45786 
L 354.417601 111.263905 
L 356.902173 109.46401 
L 361.391238 115.657966 
" clip-path="url(#p1adb9d4ced)" style="fill: #f29888"/>
    <path d="M 399.4971 109.358335 
L 401.269519 110.360549 
L 400.700707 111.366172 
L 398.928288 110.363958 
L 399.4971 109.358335 
" clip-path="url(#p1adb9d4ced)" style="fill: #f29888"/>
    <path d="M 405.740382 107.295955 
L 404.643712 109.06517 
L 402.029452 107.449356 
L 403.123846 105.676732 
L 405.740382 107.295955 
" clip-path="url(#p1adb9d4ced)" style="fill: #f29888"/>
    <path d="M 403.558419 129.72646 
L 405.014578 128.076556 
L 406.058917 128.996957 
L 404.602758 130.64686 
L 403.558419 129.72646 
" clip-path="url(#p1adb9d4ced)" style="fill: #f29888"/>
    <path d="M 404.049873 112.439972 
L 402.823514 111.652518 
L 403.38095 110.783251 
L 405.735832 112.296799 
L 405.178396 113.166066 
L 405.025954 113.070617 
L 404.593657 113.813756 
L 403.590272 113.230835 
L 404.049873 112.439972 
" clip-path="url(#p1adb9d4ced)" style="fill: #f29888"/>
    <path d="M 405.246653 108.45157 
L 405.949705 107.452764 
L 407.210193 108.339076 
L 406.504866 109.337881 
L 405.246653 108.45157 
" clip-path="url(#p1adb9d4ced)" style="fill: #f29888"/>
    <path d="M 346.461057 95.092125 
L 350.813607 101.320169 
L 348.765884 102.751903 
L 344.413333 96.52045 
L 346.461057 95.092125 
" clip-path="url(#p1adb9d4ced)" style="fill: #f29888"/>
    <path d="M 349.989968 92.726354 
L 352.740743 96.411366 
L 351.418824 97.399944 
L 348.665773 93.714933 
L 349.989968 92.726354 
" clip-path="url(#p1adb9d4ced)" style="fill: #f29888"/>
    <path d="M 355.625758 91.707096 
L 357.134248 90.677611 
L 359.607443 94.304671 
L 358.098953 95.334156 
L 355.625758 91.707096 
" clip-path="url(#p1adb9d4ced)" style="fill: #f29888"/>
   </g>
   <g id="LineCollection_1">
    <path d="M 744.151748 482.819415 
L 744.436154 486.422613 
L 744.402025 489.228131 
L 744.015233 492.759742 
L 743.054503 496.064983 
" clip-path="url(#p1adb9d4ced)" style="fill: none; stroke: #f29888; stroke-width: 0.2"/>
    <path d="M 331.770009 519.235161 
L 330.966615 518.697996 
" clip-path="url(#p1adb9d4ced)" style="fill: none; stroke: #f29888; stroke-width: 0.2"/>
    <path d="M 781.464601 416.913494 
L 779.989187 417.798224 
" clip-path="url(#p1adb9d4ced)" style="fill: none; stroke: #f29888; stroke-width: 0.2"/>
    <path d="M 779.989187 417.798224 
L 777.45001 421.023035 
L 775.823207 423.702423 
L 774.073541 427.701053 
L 772.562776 432.340554 
L 770.640191 439.015163 
L 768.792689 446.55563 
L 768.371768 447.745333 
L 767.078067 452.499337 
" clip-path="url(#p1adb9d4ced)" style="fill: none; stroke: #f29888; stroke-width: 0.2"/>
    <path d="M 760.962199 467.627256 
L 758.879431 470.69058 
L 755.093418 474.522174 
L 750.829602 478.517394 
L 748.440591 480.470689 
L 746.210848 481.868335 
L 744.151748 482.819415 
L 740.722948 483.340976 
L 736.948311 483.310296 
L 731.656083 482.567157 
L 724.352535 480.937707 
L 709.861477 476.274344 
L 693.923361 469.800859 
L 683.937295 464.684114 
L 673.6782 458.094727 
L 656.766277 446.828341 
L 637.613235 434.488155 
L 632.359686 430.247494 
L 624.899146 422.2366 
L 607.234117 404.142205 
L 588.558877 384.472903 
L 583.405439 379.611824 
L 578.097284 375.091634 
L 575.58996 373.574677 
L 572.898341 372.702001 
L 569.171484 372.425881 
L 566.513994 372.886081 
L 562.384418 374.266682 
L 556.700847 377.031293 
L 539.927715 386.255753 
L 535.315786 388.979457 
L 531.029218 390.745263 
L 526.954248 391.904286 
L 521.682497 392.971269 
L 518.492598 393.636002 
L 516.988659 394.174607 
L 516.039881 394.512087 
L 514.169626 395.504075 
L 512.849982 397.044894 
L 503.139221 416.022191 
L 499.259923 423.450165 
L 497.658148 425.737531 
L 495.778792 426.552256 
L 493.55815 426.640887 
L 490.877907 425.809118 
L 487.851826 424.002406 
L 451.852844 399.151588 
L 445.288752 394.696168 
L 414.59565 373.861024 
" clip-path="url(#p1adb9d4ced)" style="fill: none; stroke: #f29888; stroke-width: 0.2"/>
    <path d="M 743.018674 379.799313 
L 723.34915 394.065523 
L 721.144435 394.355278 
L 689.243175 364.980863 
" clip-path="url(#p1adb9d4ced)" style="fill: none; stroke: #f29888; stroke-width: 0.2"/>
    <path d="M 756.583706 396.274484 
L 780.441962 372.419063 
L 801.709971 350.450374 
" clip-path="url(#p1adb9d4ced)" style="fill: none; stroke: #f29888; stroke-width: 0.2"/>
    <path d="M 689.243175 364.980863 
L 649.460454 328.662535 
" clip-path="url(#p1adb9d4ced)" style="fill: none; stroke: #f29888; stroke-width: 0.2"/>
    <path d="M 734.302197 414.563186 
L 713.269799 407.257932 
L 699.629684 399.775416 
L 687.045285 391.941783 
L 677.188908 384.022929 
L 656.704846 365.103583 
L 631.515569 342.264011 
L 591.471195 306.494515 
L 543.258679 262.703898 
" clip-path="url(#p1adb9d4ced)" style="fill: none; stroke: #f29888; stroke-width: 0.2"/>
    <path d="M 631.515569 342.264011 
L 649.460454 328.662535 
L 662.028927 320.000543 
L 684.462878 303.746949 
" clip-path="url(#p1adb9d4ced)" style="fill: none; stroke: #f29888; stroke-width: 0.2"/>
    <path d="M 101.324729 391.78039 
L 144.566879 350.615795 
L 188.174292 308.72393 
L 208.697034 289.555735 
L 231.0468 268.683094 
" clip-path="url(#p1adb9d4ced)" style="fill: none; stroke: #f29888; stroke-width: 0.2"/>
    <path d="M 216.994865 512.190422 
L 259.714932 472.53479 
L 303.354198 432.374642 
L 346.699958 391.587259 
" clip-path="url(#p1adb9d4ced)" style="fill: none; stroke: #f29888; stroke-width: 0.2"/>
    <path d="M 166.551735 460.808879 
L 172.638895 466.524915 
L 216.994865 512.190422 
" clip-path="url(#p1adb9d4ced)" style="fill: none; stroke: #f29888; stroke-width: 0.2"/>
    <path d="M 231.469996 442.628587 
L 275.468752 402.260497 
" clip-path="url(#p1adb9d4ced)" style="fill: none; stroke: #f29888; stroke-width: 0.2"/>
    <path d="M 138.604652 431.233018 
L 182.379234 390.653223 
" clip-path="url(#p1adb9d4ced)" style="fill: none; stroke: #f29888; stroke-width: 0.2"/>
    <path d="M 106.811405 308.471672 
L 119.741642 322.904918 
L 133.363555 338.108573 
L 144.566879 350.615795 
L 163.986125 371.178227 
L 182.379234 390.653223 
L 198.91574 408.161288 
L 215.076831 425.270513 
L 231.469996 442.628587 
L 259.714932 472.53479 
L 281.750714 495.868651 
" clip-path="url(#p1adb9d4ced)" style="fill: none; stroke: #f29888; stroke-width: 0.2"/>
    <path d="M 120.344341 411.908481 
L 163.986125 371.178227 
" clip-path="url(#p1adb9d4ced)" style="fill: none; stroke: #f29888; stroke-width: 0.2"/>
    <path d="M 325.258016 456.734579 
L 303.354198 432.374642 
L 275.468752 402.260497 
L 258.957274 384.063836 
L 242.866716 366.937566 
L 224.562342 347.827322 
L 223.920722 347.135317 
L 211.302193 333.574748 
L 200.053365 321.490228 
L 188.174292 308.72393 
L 177.077905 296.591686 
L 163.48557 281.725512 
" clip-path="url(#p1adb9d4ced)" style="fill: none; stroke: #f29888; stroke-width: 0.2"/>
    <path d="M 172.638895 466.524915 
L 215.076831 425.270513 
L 258.957274 384.063836 
L 302.480503 344.449111 
L 343.28481 306.225213 
L 385.11753 266.29687 
" clip-path="url(#p1adb9d4ced)" style="fill: none; stroke: #f29888; stroke-width: 0.2"/>
    <path d="M 330.966615 518.697996 
L 317.440262 514.730046 
L 313.292484 515.27206 
L 309.686215 518.517324 
L 305.335411 524.515851 
" clip-path="url(#p1adb9d4ced)" style="fill: none; stroke: #f29888; stroke-width: 0.2"/>
    <path d="M 284.259122 517.488396 
L 273.976189 509.497398 
L 271.967145 507.441837 
" clip-path="url(#p1adb9d4ced)" style="fill: none; stroke: #f29888; stroke-width: 0.2"/>
    <path d="M 451.852844 399.151588 
L 431.603132 424.997802 
L 403.490161 450.929238 
L 334.03365 514.999349 
L 330.966615 518.697996 
" clip-path="url(#p1adb9d4ced)" style="fill: none; stroke: #f29888; stroke-width: 0.2"/>
    <path d="M 271.967145 507.441837 
L 281.750714 495.868651 
L 325.258016 456.734579 
L 369.998503 415.231328 
L 414.59565 373.861024 
" clip-path="url(#p1adb9d4ced)" style="fill: none; stroke: #f29888; stroke-width: 0.2"/>
    <path d="M 403.490161 450.929238 
L 369.998503 415.231328 
L 346.699958 391.587259 
" clip-path="url(#p1adb9d4ced)" style="fill: none; stroke: #f29888; stroke-width: 0.2"/>
    <path d="M 445.288752 394.696168 
L 446.267109 394.399594 
L 447.482092 394.04166 
L 448.46955 393.772358 
L 449.279538 393.3667 
L 449.955287 393.049673 
L 450.942745 392.603108 
L 451.527484 392.241766 
L 452.112223 392.061095 
L 452.876706 392.061095 
L 454.137194 392.061095 
L 454.990412 392.241766 
L 455.8004 392.241766 
L 456.430644 392.330397 
L 457.914106 392.153135 
L 459.172319 391.836108 
L 460.162052 391.611121 
L 461.286025 391.341819 
L 462.096013 391.161147 
L 463.71599 391.161147 
L 464.839963 391.116832 
L 466.05267 391.028201 
L 467.222148 390.983885 
L 467.806887 390.891845 
L 469.740848 390.711174 
L 471.586075 390.622543 
L 473.294786 390.936161 
L 474.687238 390.936161 
L 476.6212 390.983885 
L 477.881687 390.983885 
L 479.770144 390.711174 
L 481.88385 390.711174 
L 483.142062 390.711174 
L 484.445779 390.847529 
L 486.199996 391.208872 
L 488.045223 391.611121 
L 489.394445 391.655437 
L 490.832402 391.703161 
L 491.956375 391.747477 
L 493.351102 391.747477 
L 494.968804 391.791792 
L 497.262254 391.655437 
L 499.196216 391.655437 
L 500.904927 391.655437 
L 502.11991 391.478174 
L 504.099376 391.297503 
L 506.033338 391.297503 
L 507.111805 391.611121 
L 508.370018 391.972463 
L 510.0355 392.555384 
L 511.427952 393.097398 
L 512.642934 393.411016 
L 513.812412 393.680318 
L 514.75664 393.905305 
L 516.988659 394.174607 
" clip-path="url(#p1adb9d4ced)" style="fill: none; stroke: #f29888; stroke-width: 0.2"/>
    <path d="M 385.836508 353.008836 
L 346.699958 391.587259 
" clip-path="url(#p1adb9d4ced)" style="fill: none; stroke: #f29888; stroke-width: 0.2"/>
    <path d="M 414.59565 373.861024 
L 385.836508 353.008836 
" clip-path="url(#p1adb9d4ced)" style="fill: none; stroke: #f29888; stroke-width: 0.2"/>
    <path d="M 539.927715 386.255753 
L 447.209062 304.663941 
L 443.457177 302.465206 
L 441.161451 302.339077 
L 429.077606 312.671426 
L 385.836508 353.008836 
" clip-path="url(#p1adb9d4ced)" style="fill: none; stroke: #f29888; stroke-width: 0.2"/>
    <path d="M 275.468752 402.260497 
L 318.204746 361.210629 
L 358.078476 322.489033 
L 401.226289 283.290193 
" clip-path="url(#p1adb9d4ced)" style="fill: none; stroke: #f29888; stroke-width: 0.2"/>
    <path d="M 385.836508 353.008836 
L 358.078476 322.489033 
L 343.28481 306.225213 
L 326.44342 288.512614 
L 309.488268 270.776153 
L 271.243616 231.048934 
" clip-path="url(#p1adb9d4ced)" style="fill: none; stroke: #f29888; stroke-width: 0.2"/>
    <path d="M 224.562342 347.827322 
L 267.910377 308.700068 
L 309.488268 270.776153 
L 351.407447 230.977348 
" clip-path="url(#p1adb9d4ced)" style="fill: none; stroke: #f29888; stroke-width: 0.2"/>
    <path d="M 429.077606 312.671426 
L 401.226289 283.290193 
L 385.11753 266.29687 
L 367.441124 248.079755 
L 351.407447 230.977348 
L 315.804358 193.230695 
L 313.317512 190.592213 
L 277.568807 151.478595 
L 276.378852 149.334402 
L 277.179739 147.217481 
L 283.302433 140.876943 
L 285.302377 137.212385 
L 283.200047 133.29216 
" clip-path="url(#p1adb9d4ced)" style="fill: none; stroke: #f29888; stroke-width: 0.2"/>
    <path d="M 390.018415 127.827707 
L 392.6304 130.060531 
L 523.347979 245.168562 
L 543.258679 262.703898 
" clip-path="url(#p1adb9d4ced)" style="fill: none; stroke: #f29888; stroke-width: 0.2"/>
    <path d="M 354.003506 163.058598 
L 353.962551 163.494937 
L 353.775981 163.948319 
L 353.325482 164.371022 
L 349.41888 167.585606 
L 344.984421 171.117217 
L 342.088029 173.029605 
L 339.325878 174.969264 
L 336.031318 177.280493 
L 333.437534 179.44173 
L 329.995083 182.117709 
L 323.351358 187.149233 
L 316.930606 192.32393 
L 315.804358 193.230695 
" clip-path="url(#p1adb9d4ced)" style="fill: none; stroke: #f29888; stroke-width: 0.2"/>
    <path d="M 366.794953 151.877435 
L 366.658438 152.020609 
L 365.818872 152.951236 
L 364.995232 153.864819 
" clip-path="url(#p1adb9d4ced)" style="fill: none; stroke: #f29888; stroke-width: 0.2"/>
    <path d="M 555.940914 217.853116 
L 491.970026 159.707658 
L 410.871068 87.323262 
" clip-path="url(#p1adb9d4ced)" style="fill: none; stroke: #f29888; stroke-width: 0.2"/>
    <path d="M 368.464986 150.108221 
L 367.746007 150.871812 
L 366.794953 151.877435 
" clip-path="url(#p1adb9d4ced)" style="fill: none; stroke: #f29888; stroke-width: 0.2"/>
    <path d="M 297.386221 137.243065 
L 298.894711 137.958932 
L 314.188932 145.236915 
L 339.016444 157.600964 
L 348.570212 162.700665 
L 349.746516 163.079052 
L 351.041132 163.259723 
L 354.003506 163.058598 
L 355.266269 162.792705 
L 356.301507 162.155242 
L 362.187575 156.939639 
L 364.622091 154.485237 
L 364.995232 153.864819 
" clip-path="url(#p1adb9d4ced)" style="fill: none; stroke: #f29888; stroke-width: 0.2"/>
    <path d="M 373.925582 148.390139 
L 373.354495 148.407184 
L 372.742453 148.223104 
L 372.132686 147.95721 
L 371.413708 148.168561 
L 369.766428 149.259407 
L 368.464986 150.108221 
" clip-path="url(#p1adb9d4ced)" style="fill: none; stroke: #f29888; stroke-width: 0.2"/>
    <path d="M 283.302433 140.876943 
L 292.503538 138.068017 
L 297.386221 137.243065 
L 302.482778 136.032909 
L 309.904639 134.236423 
L 317.110351 132.825142 
L 318.131938 130.098029 
L 306.590134 113.372084 
" clip-path="url(#p1adb9d4ced)" style="fill: none; stroke: #f29888; stroke-width: 0.2"/>
    <path d="M 731.712964 275.221347 
L 713.363085 288.488752 
L 688.797226 309.262535 
" clip-path="url(#p1adb9d4ced)" style="fill: none; stroke: #f29888; stroke-width: 0.2"/>
    <path d="M 662.028927 320.000543 
L 648.566282 301.510716 
L 633.260685 284.728745 
L 564.846237 210.547862 
" clip-path="url(#p1adb9d4ced)" style="fill: none; stroke: #f29888; stroke-width: 0.2"/>
    <path d="M 780.441962 372.419063 
L 713.363085 288.488752 
L 665.637471 228.127515 
L 630.773838 184.824369 
L 616.589939 167.20381 
L 568.595846 108.720872 
" clip-path="url(#p1adb9d4ced)" style="fill: none; stroke: #f29888; stroke-width: 0.2"/>
    <path d="M 641.574443 248.318377 
L 665.637471 228.127515 
" clip-path="url(#p1adb9d4ced)" style="fill: none; stroke: #f29888; stroke-width: 0.2"/>
    <path d="M 523.347979 245.168562 
L 555.940914 217.853116 
L 564.846237 210.547862 
L 592.674802 189.228657 
" clip-path="url(#p1adb9d4ced)" style="fill: none; stroke: #f29888; stroke-width: 0.2"/>
    <path d="M 632.796534 154.175028 
L 682.123922 215.886186 
L 665.637471 228.127515 
" clip-path="url(#p1adb9d4ced)" style="fill: none; stroke: #f29888; stroke-width: 0.2"/>
    <path d="M 616.589939 167.20381 
L 590.695335 187.473078 
" clip-path="url(#p1adb9d4ced)" style="fill: none; stroke: #f29888; stroke-width: 0.2"/>
    <path d="M 626.739823 145.748249 
L 632.796534 154.175028 
L 616.589939 167.20381 
" clip-path="url(#p1adb9d4ced)" style="fill: none; stroke: #f29888; stroke-width: 0.2"/>
    <path d="M 491.970026 159.707658 
L 516.640546 122.632557 
" clip-path="url(#p1adb9d4ced)" style="fill: none; stroke: #f29888; stroke-width: 0.2"/>
    <path d="M 535.816341 139.96336 
L 549.515612 124.251781 
L 561.472043 112.947897 
L 566.796125 110.132153 
L 568.595846 108.720872 
L 580.215541 95.56937 
" clip-path="url(#p1adb9d4ced)" style="fill: none; stroke: #f29888; stroke-width: 0.2"/>
    <path d="M 373.925582 148.390139 
L 389.69988 132.477435 
L 390.073021 129.365117 
L 390.018415 127.827707 
L 389.950157 125.881231 
L 391.317582 122.397344 
L 410.871068 87.323262 
L 425.402859 47.025399 
" clip-path="url(#p1adb9d4ced)" style="fill: none; stroke: #f29888; stroke-width: 0.2"/>
    <path d="M 367.441124 248.079755 
L 326.44342 288.512614 
L 286.171521 327.493286 
L 242.866716 366.937566 
L 198.91574 408.161288 
L 155.937197 449.575717 
" clip-path="url(#p1adb9d4ced)" style="fill: none; stroke: #f29888; stroke-width: 0.2"/>
    <path d="M 200.053365 321.490228 
L 199.623343 323.515109 
L 199.730279 324.68095 
L 201.532276 327.329659 
L 217.424887 346.825108 
L 218.696751 347.673922 
L 220.921944 347.990949 
L 223.920722 347.135317 
" clip-path="url(#p1adb9d4ced)" style="fill: none; stroke: #f29888; stroke-width: 0.2"/>
    <path d="M 90.574101 380.403207 
L 115.725828 355.251887 
L 133.363555 338.108573 
L 177.077905 296.591686 
L 218.22805 255.224791 
" clip-path="url(#p1adb9d4ced)" style="fill: none; stroke: #f29888; stroke-width: 0.2"/>
    <path d="M 211.302193 333.574748 
L 220.817283 319.274449 
L 223.465672 313.871356 
L 224.525938 310.056807 
L 224.207403 308.042152 
L 223.465672 306.559284 
L 208.697034 289.555735 
" clip-path="url(#p1adb9d4ced)" style="fill: none; stroke: #f29888; stroke-width: 0.2"/>
    <path d="M 183.705704 217.045209 
L 185.578233 219.28826 
L 193.182114 227.561639 
L 204.487824 240.494972 
L 218.22805 255.224791 
L 231.0468 268.683094 
L 267.910377 308.700068 
L 286.171521 327.493286 
L 302.480503 344.449111 
L 318.204746 361.210629 
L 346.699958 391.587259 
" clip-path="url(#p1adb9d4ced)" style="fill: none; stroke: #f29888; stroke-width: 0.2"/>
    <path d="M 204.487824 240.494972 
L 163.48557 281.725512 
L 119.741642 322.904918 
L 75.638884 364.597553 
" clip-path="url(#p1adb9d4ced)" style="fill: none; stroke: #f29888; stroke-width: 0.2"/>
    <path d="M 193.182114 227.561639 
L 106.811405 308.471672 
L 62.263302 350.442431 
" clip-path="url(#p1adb9d4ced)" style="fill: none; stroke: #f29888; stroke-width: 0.2"/>
    <path d="M 313.317512 190.592213 
L 287.054318 216.124808 
L 271.243616 231.048934 
L 231.0468 268.683094 
" clip-path="url(#p1adb9d4ced)" style="fill: none; stroke: #f29888; stroke-width: 0.2"/>
    <path d="M 287.054318 216.124808 
L 256.577364 184.20736 
" clip-path="url(#p1adb9d4ced)" style="fill: none; stroke: #f29888; stroke-width: 0.2"/>
    <path d="M 182.808252 216.172208 
L 183.705704 217.045209 
" clip-path="url(#p1adb9d4ced)" style="fill: none; stroke: #f29888; stroke-width: 0.2"/>
    <path d="M 779.989187 417.798224 
L 775.220266 414.692724 
L 769.545797 410.506605 
L 763.732537 404.394463 
L 756.583706 396.274484 
L 743.018674 379.799313 
L 688.797226 309.262535 
L 684.462878 303.746949 
L 676.501783 292.773728 
L 659.635366 270.605708 
L 641.574443 248.318377 
L 612.428509 210.864889 
L 603.673353 200.549584 
L 592.674802 189.228657 
L 590.695335 187.473078 
L 567.437745 167.17313 
L 535.816341 139.96336 
L 516.640546 122.632557 
L 482.5778 93.343364 
L 478.805845 90.147095 
" clip-path="url(#p1adb9d4ced)" style="fill: none; stroke: #f29888; stroke-width: 0.2"/>
   </g>
   <g id="LineCollection_2">
    <path d="M 583.027748 352.916796 
L 599.350381 364.207044 
" clip-path="url(#p1adb9d4ced)" style="fill: none; stroke-dasharray: 3.7,1.6; stroke-dashoffset: 0; stroke: #f29888"/>
    <path d="M 586.383739 348.792038 
L 608.474127 367.946598 
" clip-path="url(#p1adb9d4ced)" style="fill: none; stroke-dasharray: 3.7,1.6; stroke-dashoffset: 0; stroke: #f29888"/>
    <path d="M 483.622139 252.599945 
L 495.580846 261.606236 
L 503.271186 267.09455 
L 510.169739 272.221523 
L 533.045088 291.328358 
L 564.154561 316.772323 
L 571.703836 324.462781 
L 574.429584 328.727304 
L 578.065431 332.991827 
" clip-path="url(#p1adb9d4ced)" style="fill: none; stroke-dasharray: 3.7,1.6; stroke-dashoffset: 0; stroke: #f29888"/>
    <path d="M 372.448946 156.428305 
L 378.066534 164.735773 
L 385.335953 173.680704 
L 393.863585 185.703863 
L 400.923681 199.196255 
L 406.516242 207.026478 
L 410.502477 211.638708 
L 415.184939 216.111173 
L 483.203494 274.062324 
L 501.378179 289.439833 
L 532.55591 317.474554 
L 538.708182 322.366313 
L 544.789921 326.071778 
L 556.254898 331.945297 
L 567.44002 339.144876 
L 583.027748 352.916796 
L 597.359538 365.008134 
L 605.677847 370.95324 
L 614.694657 377.941467 
L 623.083498 384.653574 
L 641.399249 399.894727 
L 649.647025 407.373834 
L 654.261229 411.917886 
L 666.565773 423.593339 
" clip-path="url(#p1adb9d4ced)" style="fill: none; stroke-dasharray: 3.7,1.6; stroke-dashoffset: 0; stroke: #f29888"/>
    <path d="M 528.285268 295.286081 
L 512.931891 278.187083 
" clip-path="url(#p1adb9d4ced)" style="fill: none; stroke-dasharray: 3.7,1.6; stroke-dashoffset: 0; stroke: #f29888"/>
    <path d="M 396.311752 181.650691 
L 406.586775 192.903441 
L 416.723007 203.948249 
L 420.63871 207.793478 
L 425.111848 211.918237 
L 490.1248 267.629746 
L 535.773111 307.196747 
L 590.019587 354.034913 
L 611.497933 373.032664 
" clip-path="url(#p1adb9d4ced)" style="fill: none; stroke-dasharray: 3.7,1.6; stroke-dashoffset: 0; stroke: #f29888"/>
    <path d="M 406.586775 192.903441 
L 418.470398 203.948249 
L 427.209627 211.706885 
L 437.555182 220.51546 
L 491.032624 266.163923 
L 586.383739 348.792038 
L 599.84411 358.572147 
" clip-path="url(#p1adb9d4ced)" style="fill: none; stroke-dasharray: 3.7,1.6; stroke-dashoffset: 0; stroke: #f29888"/>
    <path d="M 402.741605 193.534086 
L 407.774454 200.945016 
L 411.130446 205.765188 
L 413.717404 208.284359 
L 419.030109 213.387469 
L 428.258517 221.354048 
L 486.347887 270.636388 
L 533.186153 312.439622 
L 541.433929 319.359671 
L 549.683981 325.51272 
L 556.814609 329.985185 
" clip-path="url(#p1adb9d4ced)" style="fill: none; stroke-dasharray: 3.7,1.6; stroke-dashoffset: 0; stroke: #f29888"/>
    <path d="M 387.433733 173.540939 
L 394.912475 184.657333 
L 402.741605 193.534086 
L 410.991656 202.761955 
L 414.206582 206.256068 
L 418.611463 210.520591 
L 487.608375 269.238743 
L 535.004077 311.601035 
L 542.344029 318.033612 
L 556.814609 329.985185 
L 567.44002 339.144876 
" clip-path="url(#p1adb9d4ced)" style="fill: none; stroke-dasharray: 3.7,1.6; stroke-dashoffset: 0; stroke: #f29888"/>
    <path d="M 402.88267 198.286081 
L 411.271511 207.933243 
L 418.190542 214.993057 
L 423.57378 219.888224 
L 485.36953 271.686327 
L 528.571949 310.203389 
L 541.433929 322.226549 
" clip-path="url(#p1adb9d4ced)" style="fill: none; stroke-dasharray: 3.7,1.6; stroke-dashoffset: 0; stroke: #f29888"/>
    <path d="M 393.863585 185.703863 
L 402.88267 198.286081 
L 404.700594 201.364309 
L 408.893877 207.166242 
L 413.437548 212.33753 
L 418.750253 217.648583 
L 484.461706 272.872621 
L 534.724221 317.055261 
L 541.433929 322.226549 
L 548.21417 326.351307 
L 556.254898 331.945297 
" clip-path="url(#p1adb9d4ced)" style="fill: none; stroke-dasharray: 3.7,1.6; stroke-dashoffset: 0; stroke: #f29888"/>
    <path d="M 390.088948 169.184376 
L 399.0375 177.59752 
L 410.290879 188.85027 
L 416.443151 195.143083 
L 423.43499 201.08478 
L 430.843199 207.793478 
L 452.460336 226.133313 
L 458.526148 231.280739 
L 483.622139 252.599945 
L 502.217746 268.53992 
L 512.931891 278.187083 
L 538.778714 301.462992 
L 547.93659 309.572744 
" clip-path="url(#p1adb9d4ced)" style="fill: none; stroke-dasharray: 3.7,1.6; stroke-dashoffset: 0; stroke: #f29888"/>
    <path d="M 400.923681 199.196255 
L 392.848824 188.229851 
L 374.435238 161.531415 
" clip-path="url(#p1adb9d4ced)" style="fill: none; stroke-dasharray: 3.7,1.6; stroke-dashoffset: 0; stroke: #f29888"/>
    <path d="M 379.08357 159.121329 
L 390.857982 174.662464 
L 396.311752 181.650691 
L 404.66419 193.377277 
" clip-path="url(#p1adb9d4ced)" style="fill: none; stroke-dasharray: 3.7,1.6; stroke-dashoffset: 0; stroke: #f29888"/>
    <path d="M 392.848824 188.229851 
L 372.712875 162.956332 
" clip-path="url(#p1adb9d4ced)" style="fill: none; stroke-dasharray: 3.7,1.6; stroke-dashoffset: 0; stroke: #f29888"/>
    <path d="M 637.112681 390.305516 
L 611.497933 373.032664 
L 599.350381 364.207044 
L 569.116878 338.251746 
L 541.154074 314.832663 
L 488.814257 268.434245 
L 433.675884 221.510857 
L 424.413347 213.561322 
L 416.636547 206.307202 
L 410.782333 200.191651 
L 404.66419 193.377277 
L 391.993331 178.698591 
L 387.433733 173.540939 
L 382.644334 167.861726 
L 372.448946 156.428305 
L 367.746007 150.871812 
L 361.935022 144.002896 
L 351.011554 131.853608 
L 344.049294 123.252975 
L 336.948243 114.243276 
L 328.757348 102.366699 
L 325.725854 98.163687 
" clip-path="url(#p1adb9d4ced)" style="fill: none; stroke-dasharray: 3.7,1.6; stroke-dashoffset: 0; stroke: #f29888"/>
    <path d="M 769.433602 446.672797 
L 768.792689 446.55563 
L 766.615276 445.993163 
L 739.114347 440.538937 
L 726.582279 437.805006 
L 715.479066 434.869951 
L 699.848108 429.139605 
L 686.581134 423.269494 
L 676.05811 417.474379 
L 666.049291 411.004303 
L 649.583318 398.391406 
L 610.203316 365.20244 
L 554.62582 317.668861 
L 528.285268 295.286081 
L 510.08328 277.576891 
L 480.994227 252.872656 
L 449.582146 226.194673 
L 434.731599 213.728358 
L 421.894647 202.956262 
L 413.721954 195.518061 
L 404.875788 186.467455 
L 390.088948 169.184376 
L 384.166476 162.400682 
L 356.331085 130.319607 
L 346.331368 118.238496 
L 337.999408 107.40504 
L 329.225593 95.382217 
" clip-path="url(#p1adb9d4ced)" style="fill: none; stroke-dasharray: 3.7,1.6; stroke-dashoffset: 0; stroke: #f29888"/>
    <path d="M 328.047479 96.31854 
L 330.124773 99.28847 
L 334.443194 105.311981 
L 339.776377 112.511559 
L 345.004898 119.285026 
L 355.191186 131.338865 
L 371.136127 149.576434 
L 379.08357 159.121329 
L 394.923851 177.093004 
L 403.724512 187.333313 
L 409.378505 193.039797 
L 413.109912 196.717991 
L 421.164292 204.238005 
L 434.731599 213.728358 
L 452.460336 226.133313 
L 480.994227 252.872656 
L 509.057143 279.168843 
L 527.11124 296.503055 
L 553.71117 318.971057 
L 599.84411 358.572147 
L 622.844597 377.972147 
L 637.112681 390.305516 
L 648.511676 399.973131 
L 657.512559 406.439798 
L 665.844519 412.439446 
L 673.264105 417.852766 
L 680.515322 422.270689 
L 687.347893 425.522771 
L 699.431738 430.772464 
L 715.181008 436.356227 
L 726.516296 439.356052 
L 739.098421 442.021805 
L 766.515166 447.35672 
L 768.371768 447.745333 
L 768.953625 447.860045 
" clip-path="url(#p1adb9d4ced)" style="fill: none; stroke-dasharray: 3.7,1.6; stroke-dashoffset: 0; stroke: #f29888"/>
   </g>
  </g>
 </g>
 <defs>
  <clipPath id="p1adb9d4ced">
   <rect x="7.2" y="7.2" width="837" height="571.931501"/>
  </clipPath>
 </defs>
</svg>
