<?xml version="1.0" encoding="utf-8" standalone="no"?>
<!DOCTYPE svg PUBLIC "-//W3C//DTD SVG 1.1//EN"
  "http://www.w3.org/Graphics/SVG/1.1/DTD/svg11.dtd">
<svg xmlns:xlink="http://www.w3.org/1999/xlink" width="646.949577pt" height="846pt" viewBox="0 0 646.949577 846" xmlns="http://www.w3.org/2000/svg" version="1.1">
 <metadata>
  <rdf:RDF xmlns:dc="http://purl.org/dc/elements/1.1/" xmlns:cc="http://creativecommons.org/ns#" xmlns:rdf="http://www.w3.org/1999/02/22-rdf-syntax-ns#">
   <cc:Work>
    <dc:type rdf:resource="http://purl.org/dc/dcmitype/StillImage"/>
    <dc:date>2025-03-16T14:37:54.865135</dc:date>
    <dc:format>image/svg+xml</dc:format>
    <dc:creator>
     <cc:Agent>
      <dc:title>Matplotlib v3.10.1, https://matplotlib.org/</dc:title>
     </cc:Agent>
    </dc:creator>
   </cc:Work>
  </rdf:RDF>
 </metadata>
 <defs>
  <style type="text/css">*{stroke-linejoin: round; stroke-linecap: butt}</style>
 </defs>
 <g id="figure_1">
  <g id="patch_1">
   <path d="M 0 846 
L 646.949577 846 
L 646.949577 0 
L 0 0 
z
" style="fill: #ffffff"/>
  </g>
  <g id="axes_1">
   <g id="PatchCollection_1">
    <path d="M 488.404924 559.243902 
L 494.18598 510.841463 
L 371.59358 467.04878 
L 397.948396 295.463415 
L 529.21238 220.682927 
L 497.076508 172.280488 
L 578.861451 141.54878 
L 610.997323 119.52439 
L 593.484123 45 
L 482.623867 45 
L 505.918123 115.170732 
L 362.921996 216.329268 
L 362.921996 264.731707 
L 316.163452 256.02439 
L 310.382396 150.512195 
L 170.276797 145.902439 
L 161.435181 247.060976 
L 260.733324 260.378049 
L 240.329596 396.621951 
L 56.355982 427.353659 
L 35.952253 589.97561 
L 97.333469 607.646341 
L 73.869181 752.597561 
L 275.355996 801 
L 289.978668 761.560976 
L 459.15958 774.621951 
L 482.623867 699.841463 
L 540.944523 708.804878 
L 558.457723 603.292683 
L 520.540795 589.97561 
L 508.808652 598.939024 
L 470.891724 594.329268 
L 465.110667 585.621951 
L 468.001195 567.95122 
L 476.67278 559.243902 
L 488.404924 559.243902 
" clip-path="url(#pb8330518b4)" style="fill: #f29888"/>
   </g>
   <g id="PatchCollection_2">
    <path d="M 435.083181 696.166463 
L 441.454245 698.619878 
L 442.503337 695.892439 
L 445.604703 697.085854 
L 444.720542 699.38561 
L 451.091606 701.839024 
L 449.896287 704.945488 
L 434.052793 698.845244 
L 435.083181 696.166463 
" clip-path="url(#pb8330518b4)" style="fill: #f29888"/>
    <path d="M 423.357838 670.075244 
L 424.872815 670.052195 
L 424.925525 673.540244 
L 426.185455 673.522317 
L 426.170152 672.585 
L 430.936123 672.513293 
L 430.902117 670.193049 
L 432.937389 670.162317 
L 433.008802 674.851463 
L 429.846224 674.900122 
L 428.064298 674.925732 
L 428.069399 675.204878 
L 423.436053 675.276585 
L 423.357838 670.075244 
" clip-path="url(#pb8330518b4)" style="fill: #f29888"/>
    <path d="M 442.41152 674.357195 
L 448.279292 664.292561 
L 451.123912 665.952073 
L 445.25614 676.016707 
L 442.41152 674.357195 
" clip-path="url(#pb8330518b4)" style="fill: #f29888"/>
    <path d="M 414.540027 646.803659 
L 415.633327 644.158171 
L 418.644577 645.254268 
L 417.367644 647.899756 
L 414.540027 646.803659 
" clip-path="url(#pb8330518b4)" style="fill: #f29888"/>
    <path d="M 436.220689 633.484024 
L 441.309719 645.190244 
L 438.647032 646.347805 
L 433.556302 634.644146 
L 436.220689 633.484024 
" clip-path="url(#pb8330518b4)" style="fill: #f29888"/>
    <path d="M 424.362722 629.015122 
L 429.451752 640.71878 
L 426.789065 641.878902 
L 421.700036 630.172683 
L 424.362722 629.015122 
" clip-path="url(#pb8330518b4)" style="fill: #f29888"/>
    <path d="M 411.70731 623.450122 
L 416.79634 635.15378 
L 414.133653 636.313902 
L 409.044623 624.607683 
L 411.70731 623.450122 
" clip-path="url(#pb8330518b4)" style="fill: #f29888"/>
    <path d="M 378.464536 587.488902 
L 387.112316 590.838659 
L 386.081928 593.499512 
L 377.434147 590.152317 
L 378.464536 587.488902 
" clip-path="url(#pb8330518b4)" style="fill: #f29888"/>
    <path d="M 362.082042 591.176707 
L 365.032081 585.009878 
L 369.354271 587.076585 
L 366.404232 593.243415 
L 362.082042 591.176707 
" clip-path="url(#pb8330518b4)" style="fill: #f29888"/>
    <path d="M 377.697696 577.024756 
L 385.9289 580.543537 
L 384.476834 583.941951 
L 376.24563 580.423171 
L 377.697696 577.024756 
" clip-path="url(#pb8330518b4)" style="fill: #f29888"/>
    <path d="M 460.53003 718.475122 
L 471.463028 724.406341 
L 466.27538 733.974146 
L 447.461443 723.768659 
L 449.671846 719.694146 
L 465.415023 728.235 
L 466.964006 725.376951 
L 459.100069 721.110366 
L 460.53003 718.475122 
" clip-path="url(#pb8330518b4)" style="fill: #f29888"/>
    <path d="M 474.634107 716.73878 
L 476.95918 717.894774 
L 476.091978 720.65854 
L 473.362275 719.302317 
L 474.634107 716.73878 
" clip-path="url(#pb8330518b4)" style="fill: #f29888"/>
    <path d="M 464.988245 703.252683 
L 479.740874 709.029537 
L 478.947681 711.557438 
L 464.025869 705.71378 
L 464.988245 703.252683 
" clip-path="url(#pb8330518b4)" style="fill: #f29888"/>
    <path d="M 355.275699 607.057317 
L 363.625925 610.745122 
L 362.478215 613.341951 
L 354.129689 609.654146 
L 355.275699 607.057317 
" clip-path="url(#pb8330518b4)" style="fill: #f29888"/>
    <path d="M 345.769262 607.43378 
L 351.048726 595.258902 
L 354.017469 596.544512 
L 348.736304 608.71939 
L 345.769262 607.43378 
" clip-path="url(#pb8330518b4)" style="fill: #f29888"/>
    <path d="M 356.503323 604.142927 
L 359.914146 595.630244 
L 362.665249 596.731463 
L 359.254426 605.246707 
L 356.503323 604.142927 
" clip-path="url(#pb8330518b4)" style="fill: #f29888"/>
    <path d="M 352.352865 590.813049 
L 357.302469 578.525488 
L 360.750699 579.916098 
L 355.801095 592.201098 
L 352.352865 590.813049 
" clip-path="url(#pb8330518b4)" style="fill: #f29888"/>
    <path d="M 343.098074 586.976707 
L 348.518664 574.668659 
L 351.535015 575.997805 
L 346.114425 588.305854 
L 343.098074 586.976707 
" clip-path="url(#pb8330518b4)" style="fill: #f29888"/>
    <path d="M 356.777073 572.338171 
L 358.167927 569.083171 
L 366.541957 572.663415 
L 365.151103 575.918415 
L 356.777073 572.338171 
" clip-path="url(#pb8330518b4)" style="fill: #f29888"/>
    <path d="M 332.904711 568.442927 
L 339.381195 570.99622 
L 338.104261 574.005366 
L 331.719595 571.359878 
L 332.904711 568.442927 
" clip-path="url(#pb8330518b4)" style="fill: #f29888"/>
    <path d="M 324.421861 564.929268 
L 330.898345 567.485122 
L 329.621411 570.494268 
L 323.236745 567.84878 
L 324.421861 564.929268 
" clip-path="url(#pb8330518b4)" style="fill: #f29888"/>
    <path d="M 353.153711 555.215488 
L 359.630194 557.76878 
L 358.353261 560.777927 
L 351.968595 558.132439 
L 353.153711 555.215488 
" clip-path="url(#pb8330518b4)" style="fill: #f29888"/>
    <path d="M 340.476195 549.924512 
L 346.950978 552.477805 
L 345.674044 555.489512 
L 339.289378 552.844024 
L 340.476195 549.924512 
" clip-path="url(#pb8330518b4)" style="fill: #f29888"/>
    <path d="M 374.76806 575.662317 
L 378.068363 567.223902 
L 380.793961 568.291829 
L 377.493658 576.727683 
L 374.76806 575.662317 
" clip-path="url(#pb8330518b4)" style="fill: #f29888"/>
    <path d="M 367.038448 572.578902 
L 370.338751 564.140488 
L 373.064349 565.205854 
L 369.762346 573.644268 
L 367.038448 572.578902 
" clip-path="url(#pb8330518b4)" style="fill: #f29888"/>
    <path d="M 371.338534 559.366829 
L 374.144046 552.93622 
L 376.857742 554.11939 
L 374.05223 560.55 
L 371.338534 559.366829 
" clip-path="url(#pb8330518b4)" style="fill: #f29888"/>
    <path d="M 383.046873 553.230732 
L 385.854086 546.800122 
L 388.567782 547.985854 
L 385.762269 554.416463 
L 383.046873 553.230732 
" clip-path="url(#pb8330518b4)" style="fill: #f29888"/>
    <path d="M 375.111523 550.083293 
L 377.918736 543.652683 
L 380.632432 544.838415 
L 377.826919 551.269024 
L 375.111523 550.083293 
" clip-path="url(#pb8330518b4)" style="fill: #f29888"/>
    <path d="M 374.446702 532.310122 
L 381.900864 535.675244 
L 380.385887 539.030122 
L 372.931725 535.665 
L 374.446702 532.310122 
" clip-path="url(#pb8330518b4)" style="fill: #f29888"/>
    <path d="M 450.221047 501.163537 
L 454.50753 500.525854 
L 454.691164 502.257073 
L 450.40298 502.805122 
L 450.221047 501.163537 
" clip-path="url(#pb8330518b4)" style="fill: #f29888"/>
    <path d="M 366.33622 291.701341 
L 369.410381 292.840976 
L 368.91049 294.19061 
L 365.834628 293.048415 
L 366.33622 291.701341 
" clip-path="url(#pb8330518b4)" style="fill: #f29888"/>
    <path d="M 366.484147 287.683171 
L 368.573829 286.592195 
L 369.422284 288.220976 
L 367.334302 289.30939 
L 366.484147 287.683171 
" clip-path="url(#pb8330518b4)" style="fill: #f29888"/>
    <path d="M 359.483968 525.569634 
L 372.515149 531.027073 
L 371.268821 534.005488 
L 358.23764 528.545488 
L 359.483968 525.569634 
" clip-path="url(#pb8330518b4)" style="fill: #f29888"/>
    <path d="M 354.604076 512.424146 
L 358.002997 513.287195 
L 356.355396 519.78439 
L 352.956475 518.921341 
L 354.604076 512.424146 
" clip-path="url(#pb8330518b4)" style="fill: #f29888"/>
    <path d="M 334.820961 510.70061 
L 346.495294 514.257805 
L 345.674044 517.266951 
L 333.999711 513.617561 
L 334.820961 510.70061 
" clip-path="url(#pb8330518b4)" style="fill: #f29888"/>
    <path d="M 191.539182 458.589878 
L 194.773173 458.64622 
L 194.723863 461.499146 
L 196.40037 461.527317 
L 196.381666 462.623415 
L 197.985059 462.651585 
L 197.964656 463.842439 
L 199.988025 463.878293 
L 199.938716 466.787561 
L 197.922148 466.751707 
L 197.942552 465.594146 
L 192.469252 465.49939 
L 192.504958 463.407073 
L 193.574453 463.425 
L 193.593157 462.339146 
L 191.47627 462.300732 
L 191.539182 458.589878 
" clip-path="url(#pb8330518b4)" style="fill: #f29888"/>
    <path d="M 213.524199 433.861098 
L 213.541202 432.862317 
L 217.344797 432.926341 
L 217.320992 434.268293 
L 218.660837 434.291341 
L 218.597926 437.927927 
L 213.179036 437.835732 
L 213.20454 436.291463 
L 211.8919 436.268415 
L 211.934408 433.835488 
L 213.524199 433.861098 
" clip-path="url(#pb8330518b4)" style="fill: #f29888"/>
    <path d="M 362.229969 295.396829 
L 363.233153 292.477317 
L 365.149403 293.253293 
L 364.282244 296.126707 
L 362.229969 295.396829 
" clip-path="url(#pb8330518b4)" style="fill: #f29888"/>
    <path d="M 326.975728 282.947927 
L 327.796978 281.306341 
L 329.621411 282.492073 
L 328.710045 284.041463 
L 326.975728 282.947927 
" clip-path="url(#pb8330518b4)" style="fill: #f29888"/>
    <path d="M 503.360856 120.953415 
L 504.455856 120.876585 
L 504.58338 122.723049 
L 503.49008 122.799878 
L 503.360856 120.953415 
" clip-path="url(#pb8330518b4)" style="fill: #f29888"/>
    <path d="M 508.14553 118.576829 
L 509.216726 117.552439 
L 510.151897 118.510244 
L 509.012689 119.626829 
L 508.14553 118.576829 
" clip-path="url(#pb8330518b4)" style="fill: #f29888"/>
    <path d="M 504.284125 116.699634 
L 505.766796 116.717561 
L 505.780398 115.79561 
L 507.625235 115.82122 
L 507.59463 118.118415 
L 506.326198 118.103049 
L 506.315996 118.97378 
L 504.25522 118.94561 
L 504.284125 116.699634 
" clip-path="url(#pb8330518b4)" style="fill: #f29888"/>
    <path d="M 510.320228 116.044024 
L 512.486424 115.754634 
L 512.697262 117.327073 
L 510.531066 117.616463 
L 510.320228 116.044024 
" clip-path="url(#pb8330518b4)" style="fill: #f29888"/>
    <path d="M 505.363822 112.571341 
L 506.77678 112.617439 
L 506.754676 110.747927 
L 508.30536 110.791463 
L 508.237347 114.507439 
L 505.678248 114.44814 
L 505.363822 113.500976 
L 505.363822 112.571341 
" clip-path="url(#pb8330518b4)" style="fill: #f29888"/>
    <path d="M 511.223093 110.404756 
L 512.52383 110.381707 
L 512.659855 111.954146 
L 511.31491 112.023293 
L 511.223093 110.404756 
" clip-path="url(#pb8330518b4)" style="fill: #f29888"/>
    <path d="M 505.637572 109.014146 
L 508.373372 108.650488 
L 508.69303 110.176829 
L 505.911322 110.563537 
L 505.637572 109.014146 
" clip-path="url(#pb8330518b4)" style="fill: #f29888"/>
   </g>
   <g id="LineCollection_1">
    <path d="M 323.127925 562.647439 
L 310.477613 595.084756 
L 311.431488 597.420366 
L 345.434301 610.263659 
L 365.428254 618.584268 
L 403.268668 634.669756 
L 447.153686 653.323902 
L 455.21996 657.795366 
L 461.56552 662.19 
L 488.274 683.960854 
L 512.479586 704.430047 
" clip-path="url(#pb8330518b4)" style="fill: none; stroke: #f29888; stroke-width: 0.5"/>
    <path d="M 268.538721 799.362311 
L 268.326912 794.361951 
L 267.983449 786.146341 
L 263.193674 774.340244 
L 258.062136 769.548659 
L 256.179892 759.965488 
L 252.758867 754.146951 
L 253.784155 741.997683 
L 257.720374 730.534756 
" clip-path="url(#pb8330518b4)" style="fill: none; stroke: #f29888; stroke-width: 0.2"/>
    <path d="M 488.274 683.960854 
L 494.318604 679.054024 
L 503.804637 677.471341 
L 515.324242 681.312805 
L 530.683148 691.93061 
L 543.090958 695.8732 
" clip-path="url(#pb8330518b4)" style="fill: none; stroke: #f29888; stroke-width: 0.2"/>
    <path d="M 397.451905 688.673049 
L 409.158544 692.829512 
L 424.389927 698.212683 
L 432.599027 699.488049 
L 453.02996 706.786829 
L 459.142577 708.886829 
L 466.074743 717.005122 
L 469.905543 719.194756 
L 473.00691 721.75061 
L 475.103432 723.809029 
" clip-path="url(#pb8330518b4)" style="fill: none; stroke: #f29888; stroke-width: 0.2"/>
    <path d="M 548.862439 661.101623 
L 544.164912 659.221829 
L 532.193024 656.059024 
L 524.514421 650.412073 
L 501.475212 644.086463 
L 480.921856 638.890244 
L 467.37038 632.113902 
L 459.916218 628.500366 
L 458.108788 631.663171 
L 459.916218 637.084756 
L 457.884347 642.278415 
L 454.043345 645.44122 
L 447.153686 653.323902 
" clip-path="url(#pb8330518b4)" style="fill: none; stroke: #f29888; stroke-width: 0.2"/>
    <path d="M 398.385376 685.86878 
L 382.834334 678.715976 
L 372.35702 664.233659 
L 343.210294 653.372561 
L 340.583314 651.935854 
L 333.375697 646.007195 
L 328.660736 643.784268 
L 310.409601 637.38439 
L 307.17561 633.276585 
L 305.760952 631.79378 
L 304.009632 632.062683 
L 304.750967 637.048902 
L 344.633454 694.358415 
" clip-path="url(#pb8330518b4)" style="fill: none; stroke: #f29888; stroke-width: 0.2"/>
    <path d="M 292.583544 755.232805 
L 297.701479 751.662805 
L 298.981813 748.899512 
L 302.753102 742.433049 
L 306.390067 738.322683 
L 309.892707 737.380244 
L 313.327334 735.761707 
L 321.747273 725.32061 
L 326.93322 717.23561 
L 327.674556 713.66561 
L 327.606543 707.063415 
L 329.828849 701.877439 
L 332.792491 697.429024 
L 338.3151 693.656707 
L 341.549091 693.792439 
L 344.633454 694.358415 
L 349.630667 695.275244 
L 353.80663 695.275244 
L 356.904596 693.118902 
L 363.236553 691.098293 
L 372.127478 691.771829 
L 397.451905 688.673049 
L 398.385376 685.86878 
L 404.32116 668.057195 
L 403.268668 634.669756 
L 416.969771 600.21439 
L 424.672179 582.73061 
L 432.72315 564.452927 
L 434.338445 560.68061 
" clip-path="url(#pb8330518b4)" style="fill: none; stroke: #f29888; stroke-width: 0.2"/>
    <path d="M 323.127925 562.647439 
L 335.218834 566.476098 
L 416.969771 600.21439 
" clip-path="url(#pb8330518b4)" style="fill: none; stroke: #f29888; stroke-width: 0.2"/>
    <path d="M 424.672179 582.73061 
L 330.355946 545.138049 
" clip-path="url(#pb8330518b4)" style="fill: none; stroke: #f29888; stroke-width: 0.2"/>
    <path d="M 171.358231 776.016998 
L 188.128358 759.102439 
L 193.533646 752.85878 
L 197.867738 746.259146 
L 201.370378 739.354756 
L 202.562296 734.79622 
L 202.519788 729.361829 
L 200.362094 699.398415 
L 198.636278 665.36561 
L 199.345308 645.31061 
" clip-path="url(#pb8330518b4)" style="fill: none; stroke: #f29888; stroke-width: 0.2"/>
    <path d="M 83.589075 692.552674 
L 84.980712 690.857561 
" clip-path="url(#pb8330518b4)" style="fill: none; stroke: #f29888; stroke-width: 0.2"/>
    <path d="M 81.969462 730.744756 
L 86.267847 729.594878 
L 91.673135 730.634634 
L 99.489463 736.932073 
L 115.122119 745.004268 
L 116.851335 744.932561 
L 121.982873 736.343049 
L 130.23278 729.820244 
L 133.062097 725.625366 
L 139.626996 725.945488 
L 143.403386 727.351463 
L 149.204846 729.228659 
L 153.005041 729.23122 
L 162.934855 727.154268 
L 168.863838 727.031341 
L 174.28783 727.405244 
L 178.870167 728.875244 
L 186.327729 729.413049 
L 195.043522 729.354146 
L 202.519788 729.361829 
L 206.666846 730.416951 
L 213.325262 729.502683 
L 223.998112 728.409146 
L 232.581281 728.775366 
L 239.776995 729.776707 
L 247.513409 730.591098 
L 257.720374 730.534756 
L 276.627829 732.217317 
" clip-path="url(#pb8330518b4)" style="fill: none; stroke: #f29888; stroke-width: 0.2"/>
    <path d="M 81.969462 730.744756 
L 83.776892 715.716951 
L 82.270417 705.37061 
L 82.809415 702.069512 
L 84.980712 690.857561 
L 86.514392 682.803293 
L 97.088624 668.723049 
L 105.035876 645.41561 
L 109.885162 633.491707 
L 114.465799 626.687195 
L 123.82771 616.112927 
L 138.712229 596.375488 
L 144.5715 590.380244 
" clip-path="url(#pb8330518b4)" style="fill: none; stroke: #f29888; stroke-width: 0.2"/>
    <path d="M 161.92147 638.685366 
L 172.919079 642.470488 
L 182.202776 644.135122 
L 190.988281 644.800976 
L 199.345308 645.31061 
" clip-path="url(#pb8330518b4)" style="fill: none; stroke: #f29888; stroke-width: 0.2"/>
    <path d="M 133.062097 725.625366 
L 134.680793 719.002683 
L 141.987028 696.99622 
L 149.191244 674.546707 
L 161.92147 638.685366 
L 176.540741 609.964024 
L 178.655928 607.105976 
L 180.648692 605.789634 
L 183.200858 602.299024 
L 190.712831 590.823293 
L 198.961038 573.72878 
L 201.212249 568.11 
L 202.518088 564.337683 
L 202.85985 561.897073 
L 203.453258 546.341707 
L 203.293429 544.152073 
L 202.608204 541.714024 
" clip-path="url(#pb8330518b4)" style="fill: none; stroke: #f29888; stroke-width: 0.2"/>
    <path d="M 97.088624 668.723049 
L 90.669951 665.357927 
L 88.267438 663.651975 
" clip-path="url(#pb8330518b4)" style="fill: none; stroke: #f29888; stroke-width: 0.2"/>
    <path d="M 202.608204 541.714024 
L 201.4911 539.614024 
" clip-path="url(#pb8330518b4)" style="fill: none; stroke: #f29888; stroke-width: 0.2"/>
    <path d="M 201.4911 539.614024 
L 200.146154 537.014634 
L 198.185696 532.271707 
L 197.546379 527.71061 
L 198.36933 524.883293 
" clip-path="url(#pb8330518b4)" style="fill: none; stroke: #f29888; stroke-width: 0.2"/>
    <path d="M 239.020357 688.737073 
L 256.970537 689.659024 
L 260.724823 690.289024 
L 266.84084 691.24939 
L 270.154746 691.771829 
L 274.733683 694.330244 
L 281.065639 709.826707 
" clip-path="url(#pb8330518b4)" style="fill: none; stroke: #f29888; stroke-width: 0.2"/>
    <path d="M 257.720374 730.534756 
L 256.970537 689.659024 
L 258.516119 673.683659 
L 256.873619 651.628537 
L 254.515288 633.522439 
" clip-path="url(#pb8330518b4)" style="fill: none; stroke: #f29888; stroke-width: 0.2"/>
    <path d="M 266.84084 691.24939 
L 266.84084 685.855976 
L 266.572191 679.791585 
L 267.177502 675.952683 
L 267.918837 672.784756 
L 269.736469 670.561829 
L 274.653768 668.54122 
L 279.10008 668.474634 
L 286.710671 668.003415 
" clip-path="url(#pb8330518b4)" style="fill: none; stroke: #f29888; stroke-width: 0.2"/>
    <path d="M 229.063338 580.254146 
L 233.848012 617.19878 
L 236.374674 635.112805 
L 237.755326 640.793049 
L 237.003789 645.23378 
L 236.219945 649.310854 
L 236.643323 655.249756 
L 239.020357 688.737073 
L 239.19889 719.130732 
L 240.222477 722.582927 
L 244.299822 727.743293 
L 247.513409 730.591098 
" clip-path="url(#pb8330518b4)" style="fill: none; stroke: #f29888; stroke-width: 0.2"/>
    <path d="M 199.345308 645.31061 
L 210.388826 644.800976 
L 220.167312 644.204268 
L 231.130916 642.129878 
L 237.755326 640.793049 
L 250.813712 634.534024 
L 254.515288 633.522439 
" clip-path="url(#pb8330518b4)" style="fill: none; stroke: #f29888; stroke-width: 0.2"/>
    <path d="M 199.345308 645.31061 
L 203.562078 636.815854 
L 206.773965 629.383902 
L 209.404346 622.307927 
L 211.691264 613.019268 
L 213.209641 602.439878 
L 213.782646 594.667317 
L 214.875946 589.742561 
L 216.627266 586.285244 
L 219.437879 583.447683 
L 222.993229 581.619146 
L 229.063338 580.254146 
L 240.326196 577.442195 
" clip-path="url(#pb8330518b4)" style="fill: none; stroke: #f29888; stroke-width: 0.2"/>
    <path d="M 254.515288 633.522439 
L 251.590754 616.612317 
L 246.661553 596.009268 
L 240.326196 577.442195 
" clip-path="url(#pb8330518b4)" style="fill: none; stroke: #f29888; stroke-width: 0.2"/>
    <path d="M 338.563345 525.249512 
L 330.355946 545.138049 
L 323.127925 562.647439 
" clip-path="url(#pb8330518b4)" style="fill: none; stroke: #f29888; stroke-width: 0.2"/>
    <path d="M 240.326196 577.442195 
L 217.247879 519.20561 
L 212.255767 500.843415 
L 210.57586 492.11561 
L 210.803702 483.787317 
L 212.774362 480.073902 
" clip-path="url(#pb8330518b4)" style="fill: none; stroke: #f29888; stroke-width: 0.2"/>
    <path d="M 232.560877 452.45122 
L 225.593004 452.855854 
" clip-path="url(#pb8330518b4)" style="fill: none; stroke: #f29888; stroke-width: 0.2"/>
    <path d="M 198.36933 524.883293 
L 202.20013 524.499146 
L 204.592467 523.994634 
L 207.146333 523.287805 
L 211.948011 521.561707 
L 217.247879 519.20561 
" clip-path="url(#pb8330518b4)" style="fill: none; stroke: #f29888; stroke-width: 0.2"/>
    <path d="M 225.593004 452.855854 
L 213.736737 454.510244 
L 203.113196 455.678049 
L 189.636534 456.638415 
L 187.628467 456.748537 
L 186.581076 458.01622 
L 186.259717 459.458049 
L 186.489259 460.287805 
L 188.833987 463.460854 
L 191.605494 466.403415 
L 193.897513 469.013049 
L 196.317055 473.389756 
L 198.229904 477.769024 
L 198.688988 480.09439 
L 198.825013 487.482805 
L 198.36933 506.00122 
L 198.823313 516.127317 
L 198.36933 524.883293 
" clip-path="url(#pb8330518b4)" style="fill: none; stroke: #f29888; stroke-width: 0.2"/>
    <path d="M 206.971201 479.938171 
L 198.688988 480.09439 
" clip-path="url(#pb8330518b4)" style="fill: none; stroke: #f29888; stroke-width: 0.2"/>
    <path d="M 212.774362 480.073902 
L 206.971201 479.938171 
" clip-path="url(#pb8330518b4)" style="fill: none; stroke: #f29888; stroke-width: 0.2"/>
    <path d="M 202.825844 451.677805 
L 191.515377 452.589512 
" clip-path="url(#pb8330518b4)" style="fill: none; stroke: #f29888; stroke-width: 0.2"/>
    <path d="M 187.628467 456.748537 
L 168.011983 455.488537 
L 159.8947 454.89439 
L 142.291383 451.519024 
L 131.344783 448.64561 
L 117.116583 442.716951 
L 113.416707 441.549146 
" clip-path="url(#pb8330518b4)" style="fill: none; stroke: #f29888; stroke-width: 0.2"/>
    <path d="M 83.100168 432.383415 
L 75.66471 434.296463 
L 71.28641 437.30561 
L 61.892193 443.142073 
L 56.600826 446.061585 
L 53.976311 446.320125 
" clip-path="url(#pb8330518b4)" style="fill: none; stroke: #f29888; stroke-width: 0.2"/>
    <path d="M 108.492608 439.992073 
L 113.416707 441.549146 
" clip-path="url(#pb8330518b4)" style="fill: none; stroke: #f29888; stroke-width: 0.2"/>
    <path d="M 203.113196 455.678049 
L 202.825844 451.677805 
L 202.734027 448.940122 
L 203.373344 447.024512 
L 203.920844 444.834878 
L 203.920844 423.128049 
" clip-path="url(#pb8330518b4)" style="fill: none; stroke: #f29888; stroke-width: 0.2"/>
    <path d="M 108.492608 439.992073 
L 104.711117 438.796098 
L 93.766217 433.779146 
L 83.100168 432.383415 
L 70.050284 430.677805 
" clip-path="url(#pb8330518b4)" style="fill: none; stroke: #f29888; stroke-width: 0.2"/>
    <path d="M 432.72315 564.452927 
L 338.563345 525.249512 
" clip-path="url(#pb8330518b4)" style="fill: none; stroke: #f29888; stroke-width: 0.2"/>
    <path d="M 245.2741 448.891463 
L 247.674938 449.93378 
L 250.648782 451.982561 
L 253.952485 454.246463 
L 257.960118 456.277317 
L 290.609483 474.168293 
L 307.444259 481.695 
L 318.244633 486.527561 
L 392.33567 515.771341 
L 396.225981 517.307927 
L 412.424841 524.445366 
L 435.759904 529.388049 
L 466.510023 533.782683 
L 470.993742 535.703415 
L 476.118479 537.900732 
L 490.368171 542.806431 
" clip-path="url(#pb8330518b4)" style="fill: none; stroke: #f29888; stroke-width: 0.2"/>
    <path d="M 470.993742 535.703415 
L 482.059364 531.80561 
L 485.798347 529.797805 
L 492.159578 527.807702 
" clip-path="url(#pb8330518b4)" style="fill: none; stroke: #f29888; stroke-width: 0.2"/>
    <path d="M 492.286493 510.162925 
L 488.170281 518.396341 
L 485.524597 523.869146 
L 484.429597 526.696463 
L 485.798347 529.797805 
" clip-path="url(#pb8330518b4)" style="fill: none; stroke: #f29888; stroke-width: 0.2"/>
    <path d="M 421.859865 511.235854 
L 428.973965 510.004024 
L 446.395348 507.724756 
L 459.712181 505.350732 
L 469.380147 503.893537 
L 472.741442 503.181006 
" clip-path="url(#pb8330518b4)" style="fill: none; stroke: #f29888; stroke-width: 0.2"/>
    <path d="M 392.33567 515.771341 
L 405.076098 516.342439 
L 413.832698 514.793049 
L 421.859865 511.235854 
L 422.953165 509.04622 
L 422.405664 500.198049 
L 422.041798 493.447317 
L 420.673048 486.606951 
L 420.496208 484.517867 
" clip-path="url(#pb8330518b4)" style="fill: none; stroke: #f29888; stroke-width: 0.2"/>
    <path d="M 397.828062 296.246856 
L 393.532689 290.080244 
L 391.708256 283.880122 
L 391.891889 274.757927 
L 389.528457 270.650122 
" clip-path="url(#pb8330518b4)" style="fill: none; stroke: #f29888; stroke-width: 0.2"/>
    <path d="M 439.152024 256.283049 
L 453.504347 256.677439 
L 459.59826 257.973293 
L 462.625738 258.61703 
" clip-path="url(#pb8330518b4)" style="fill: none; stroke: #f29888; stroke-width: 0.2"/>
    <path d="M 460.214984 259.990426 
L 459.59826 257.973293 
L 459.118773 251.995976 
L 458.960644 243.910976 
" clip-path="url(#pb8330518b4)" style="fill: none; stroke: #f29888; stroke-width: 0.2"/>
    <path d="M 378.263899 268.752439 
L 366.698386 269.382439 
L 359.125202 269.22622 
L 343.807103 266.342561 
" clip-path="url(#pb8330518b4)" style="fill: none; stroke: #f29888; stroke-width: 0.2"/>
    <path d="M 256.909326 443.521098 
L 245.2741 448.891463 
L 240.67816 450.858293 
L 237.99847 451.726463 
L 232.560877 452.45122 
" clip-path="url(#pb8330518b4)" style="fill: none; stroke: #f29888; stroke-width: 0.2"/>
    <path d="M 210.708484 440.102195 
L 210.968632 431.625366 
" clip-path="url(#pb8330518b4)" style="fill: none; stroke: #f29888; stroke-width: 0.2"/>
    <path d="M 307.444259 481.695 
L 307.189213 465.901463 
L 318.907754 422.930854 
L 322.276069 413.096707 
L 324.566388 400.839878 
L 327.530029 376.187927 
L 325.778709 363.526463 
L 322.410394 356.253293 
L 320.2561 354.90622 
" clip-path="url(#pb8330518b4)" style="fill: none; stroke: #f29888; stroke-width: 0.2"/>
    <path d="M 203.920844 423.128049 
L 210.750992 421.209878 
L 215.311225 419.112439 
L 219.871458 419.204634 
L 225.800442 420.116341 
L 226.166008 415.829268 
L 225.800442 411.905854 
L 223.246575 406.25122 
L 222.790892 400.232927 
L 222.82983 399.545184 
" clip-path="url(#pb8330518b4)" style="fill: none; stroke: #f29888; stroke-width: 0.2"/>
    <path d="M 344.294449 261.262909 
L 343.973734 264.60622 
L 343.807103 266.342561 
L 342.222414 269.638537 
L 338.401816 277.587805 
L 335.149121 282.586829 
L 304.344593 329.911098 
L 301.516976 334.38 
L 300.05811 338.941098 
L 299.126339 342.231951 
L 276.712844 421.427561 
L 273.943038 427.870976 
L 272.450165 430.311585 
L 270.304373 433.092805 
L 267.099288 436.191585 
L 259.23365 441.579878 
L 256.909326 443.521098 
L 254.438774 447.856829 
L 253.952485 454.246463 
L 255.334838 457.770366 
L 278.99126 484.50439 
L 283.020997 491.557317 
L 286.81609 499.542439 
L 288.042014 503.844878 
L 288.660927 508.147317 
L 287.108544 538.441098 
L 287.972301 542.35939 
L 289.891952 547.322561 
L 292.313195 549.983415 
L 295.375454 552.011707 
L 323.127925 562.647439 
" clip-path="url(#pb8330518b4)" style="fill: none; stroke: #f29888; stroke-width: 0.5"/>
    <path d="M 194.43141 415.734512 
L 197.350843 414.274756 
L 200.634143 411.992927 
L 207.223017 402.15221 
" clip-path="url(#pb8330518b4)" style="fill: none; stroke: #f29888; stroke-width: 0.2"/>
    <path d="M 259.28296 270.062718 
L 260.005591 269.259512 
L 261.008775 266.888049 
" clip-path="url(#pb8330518b4)" style="fill: none; stroke: #f29888; stroke-width: 0.2"/>
    <path d="M 299.126339 342.231951 
L 320.2561 354.90622 
L 328.472001 354.637317 
L 340.596917 352.616707 
L 342.212212 350.460366 
L 344.636855 339.145976 
L 347.600496 328.909756 
L 353.798129 316.650366 
L 360.128385 308.165854 
L 364.438673 307.492317 
L 368.614636 308.703659 
" clip-path="url(#pb8330518b4)" style="fill: none; stroke: #f29888; stroke-width: 0.2"/>
    <path d="M 322.526015 267.697317 
L 335.149121 282.586829 
" clip-path="url(#pb8330518b4)" style="fill: none; stroke: #f29888; stroke-width: 0.2"/>
    <path d="M 307.051487 266.214512 
L 322.526015 267.697317 
L 328.436295 268.263293 
L 342.222414 269.638537 
L 359.125202 269.22622 
" clip-path="url(#pb8330518b4)" style="fill: none; stroke: #f29888; stroke-width: 0.2"/>
    <path d="M 192.333227 414.36439 
L 194.43141 415.734512 
L 196.803343 419.381341 
L 201.27176 422.848902 
L 203.920844 423.128049 
L 206.291077 424.49561 
L 209.902537 429.159146 
L 210.968632 431.625366 
L 219.182833 432.063293 
L 225.810644 440.002317 
L 225.173027 440.914024 
L 210.708484 440.102195 
L 203.920844 444.834878 
" clip-path="url(#pb8330518b4)" style="fill: none; stroke: #f29888; stroke-width: 0.2"/>
    <path d="M 55.6442 433.026707 
L 61.526626 431.694512 
L 64.354243 431.056829 
L 70.050284 430.677805 
" clip-path="url(#pb8330518b4)" style="fill: none; stroke: #f29888; stroke-width: 0.2"/>
    <path d="M 42.50515 537.747667 
L 52.18682 535.670122 
L 77.648972 530.356098 
L 82.664889 529.672317 
L 90.056139 528.952683 
L 129.41323 526.768171 
L 167.127821 525.503049 
L 198.36933 524.883293 
" clip-path="url(#pb8330518b4)" style="fill: none; stroke: #f29888; stroke-width: 0.2"/>
    <path d="M 233.302212 180.327073 
L 230.838462 185.320976 
L 226.460162 195.62378 
L 222.265496 205.839512 
L 217.795379 212.405854 
L 216.700379 218.331951 
L 218.160946 222.619024 
L 219.619812 227.635976 
L 217.613446 235.843902 
L 213.143329 239.582927 
L 207.214346 248.520732 
L 203.528689 252.70622 
" clip-path="url(#pb8330518b4)" style="fill: none; stroke: #f29888; stroke-width: 0.2"/>
    <path d="M 190.845133 146.579179 
L 199.142971 149.139512 
L 203.521271 150.140854 
L 217.385604 151.326585 
L 223.222771 153.060366 
L 229.333687 152.968171 
L 237.360854 152.604512 
L 244.474954 153.605854 
L 252.957804 153.33439 
L 260.801337 151.692805 
L 265.90907 150.596707 
L 270.348975 149.195015 
" clip-path="url(#pb8330518b4)" style="fill: none; stroke: #f29888; stroke-width: 0.2"/>
    <path d="M 343.973734 264.60622 
L 337.424137 264.526829 
L 333.411404 264.209268 
L 329.033104 263.707317 
L 324.245029 263.159268 
L 312.113312 262.385854 
L 308.190696 263.707317 
L 307.051487 266.214512 
L 297.473637 265.213171 
L 285.476245 263.471707 
" clip-path="url(#pb8330518b4)" style="fill: none; stroke: #f29888; stroke-width: 0.2"/>
    <path d="M 285.476245 263.471707 
L 267.393441 261.479268 
" clip-path="url(#pb8330518b4)" style="fill: none; stroke: #f29888; stroke-width: 0.2"/>
    <path d="M 267.393441 261.479268 
L 260.661781 260.855773 
" clip-path="url(#pb8330518b4)" style="fill: none; stroke: #f29888; stroke-width: 0.2"/>
    <path d="M 305.176045 183.428415 
L 309.348607 185.945854 
L 312.457072 188.377867 
" clip-path="url(#pb8330518b4)" style="fill: none; stroke: #f29888; stroke-width: 0.2"/>
    <path d="M 305.176045 183.428415 
L 267.597479 180.690732 
L 261.394745 178.867317 
L 253.003712 179.233537 
L 233.302212 180.327073 
L 201.377179 181.786829 
L 187.512846 181.991707 
L 180.033179 181.809878 
L 170.365213 180.71378 
L 167.165348 181.501086 
" clip-path="url(#pb8330518b4)" style="fill: none; stroke: #f29888; stroke-width: 0.2"/>
    <path d="M 312.146683 182.712842 
L 309.987924 183.848415 
L 305.176045 183.428415 
" clip-path="url(#pb8330518b4)" style="fill: none; stroke: #f29888; stroke-width: 0.2"/>
    <path d="M 272.602938 149.269175 
L 269.421912 152.238293 
L 269.238278 158.074756 
L 270.880779 164.641098 
L 267.597479 171.571098 
L 261.394745 178.867317 
" clip-path="url(#pb8330518b4)" style="fill: none; stroke: #f29888; stroke-width: 0.2"/>
    <path d="M 508.73618 189.842064 
L 506.247984 192.81439 
L 481.81792 222.375732 
L 468.157624 236.881098 
L 458.960644 243.910976 
L 455.753858 246.36439 
L 439.152024 256.283049 
L 424.361022 263.131098 
L 402.454219 269.507927 
L 391.539925 270.688537 
L 389.528457 270.650122 
L 378.263899 268.752439 
" clip-path="url(#pb8330518b4)" style="fill: none; stroke: #f29888; stroke-width: 0.2"/>
    <path d="M 378.263899 268.752439 
L 384.934218 264.84439 
L 393.418768 259.604634 
L 399.364755 253.263659 
L 408.48182 242.563902 
L 488.289302 203.854756 
L 493.706492 201.345 
L 497.935165 197.777561 
L 501.900289 193.813171 
L 504.80612 189.981951 
L 506.78813 186.907949 
" clip-path="url(#pb8330518b4)" style="fill: none; stroke: #f29888; stroke-width: 0.2"/>
    <path d="M 498.593118 120.352598 
L 504.520468 119.911098 
L 506.708768 119.455244 
" clip-path="url(#pb8330518b4)" style="fill: none; stroke: #f29888; stroke-width: 0.2"/>
    <path d="M 489.783669 66.567915 
L 490.508208 64.804024 
L 490.963891 56.962317 
L 487.588774 51.492073 
L 485.400475 47.845244 
L 486.032612 45 
" clip-path="url(#pb8330518b4)" style="fill: none; stroke: #f29888; stroke-width: 0.2"/>
    <path d="M 562.031972 45 
L 557.07197 56.975122 
L 553.18506 69.20378 
L 546.560649 76.400122 
L 547.133654 82.830732 
L 553.057537 89.52 
L 559.556124 92.385732 
L 566.308058 91.110366 
L 571.403889 91.110366 
L 593.062446 86.907805 
L 599.878992 84.679756 
L 602.773644 84.529946 
" clip-path="url(#pb8330518b4)" style="fill: none; stroke: #f29888; stroke-width: 0.2"/>
   </g>
  </g>
 </g>
 <defs>
  <clipPath id="pb8330518b4">
   <rect x="7.2" y="7.2" width="632.549577" height="831.6"/>
  </clipPath>
 </defs>
</svg>
