<?xml version="1.0" encoding="utf-8" standalone="no"?>
<!DOCTYPE svg PUBLIC "-//W3C//DTD SVG 1.1//EN"
  "http://www.w3.org/Graphics/SVG/1.1/DTD/svg11.dtd">
<svg xmlns:xlink="http://www.w3.org/1999/xlink" width="851.4pt" height="442.708504pt" viewBox="0 0 851.4 442.708504" xmlns="http://www.w3.org/2000/svg" version="1.1">
 <metadata>
  <rdf:RDF xmlns:dc="http://purl.org/dc/elements/1.1/" xmlns:cc="http://creativecommons.org/ns#" xmlns:rdf="http://www.w3.org/1999/02/22-rdf-syntax-ns#">
   <cc:Work>
    <dc:type rdf:resource="http://purl.org/dc/dcmitype/StillImage"/>
    <dc:date>2025-03-16T14:38:36.703243</dc:date>
    <dc:format>image/svg+xml</dc:format>
    <dc:creator>
     <cc:Agent>
      <dc:title>Matplotlib v3.10.1, https://matplotlib.org/</dc:title>
     </cc:Agent>
    </dc:creator>
   </cc:Work>
  </rdf:RDF>
 </metadata>
 <defs>
  <style type="text/css">*{stroke-linejoin: round; stroke-linecap: butt}</style>
 </defs>
 <g id="figure_1">
  <g id="patch_1">
   <path d="M 0 442.708504 
L 851.4 442.708504 
L 851.4 0 
L 0 0 
z
" style="fill: #ffffff"/>
  </g>
  <g id="axes_1">
   <g id="PatchCollection_1">
    <path d="M 364.480903 407.062074 
L 444.368615 408.468099 
L 484.235147 409.469359 
L 689.544125 414.229147 
L 727.184545 414.840859 
L 780.822856 416.039936 
L 777.980188 402.37837 
L 786.595689 346.158698 
L 792.203701 343.151875 
L 794.393186 334.807029 
L 788.510471 329.335099 
L 806.154545 289.808162 
L 794.999567 283.441489 
L 804.433073 226.400114 
L 801.464246 171.412996 
L 748.338714 138.907052 
L 702.05227 135.194173 
L 605.651853 116.565872 
L 586.495895 120.841769 
L 550.766187 107.989732 
L 533.183158 94.945965 
L 475.68883 73.383881 
L 339.336418 47.777194 
L 304.845926 37.085931 
L 279.180524 39.757986 
L 248.879761 32.103979 
L 47.434939 26.668568 
L 45.245455 125.014192 
L 175.603236 136.682368 
L 297.92341 164.437655 
L 293.265667 215.626681 
L 354.180556 231.996822 
L 364.480903 407.062074 
" clip-path="url(#p93c4bf1e57)" style="fill: #f29888"/>
   </g>
   <g id="PatchCollection_2">
    <path d="M 729.986516 387.499467 
L 729.923436 389.748497 
L 726.889494 389.663284 
L 726.954608 387.414253 
L 729.986516 387.499467 
" clip-path="url(#p93c4bf1e57)" style="fill: #f29888"/>
    <path d="M 728.946714 382.611858 
L 734.839603 382.998363 
L 734.611701 386.467774 
L 728.718812 386.081269 
L 728.946714 382.611858 
" clip-path="url(#p93c4bf1e57)" style="fill: #f29888"/>
    <path d="M 733.020458 376.91472 
L 731.085328 376.802117 
L 731.278638 373.530523 
L 733.213768 373.64617 
L 733.020458 376.91472 
" clip-path="url(#p93c4bf1e57)" style="fill: #f29888"/>
    <path d="M 726.932225 376.592126 
L 724.091592 376.421699 
L 724.350017 372.161019 
L 727.19065 372.33449 
L 726.932225 376.592126 
" clip-path="url(#p93c4bf1e57)" style="fill: #f29888"/>
    <path d="M 711.357581 375.688253 
L 711.520368 373.451396 
L 712.230526 373.451396 
L 712.393313 371.704518 
L 713.648807 371.759298 
L 713.376139 375.907374 
L 711.357581 375.688253 
" clip-path="url(#p93c4bf1e57)" style="fill: #f29888"/>
    <path d="M 720.607951 364.178331 
L 718.560905 363.928777 
L 718.990255 360.401542 
L 721.037302 360.651096 
L 720.607951 364.178331 
" clip-path="url(#p93c4bf1e57)" style="fill: #f29888"/>
    <path d="M 714.755759 362.693179 
L 712.747375 362.547099 
L 712.940684 359.920694 
L 714.949068 360.069818 
L 714.755759 362.693179 
" clip-path="url(#p93c4bf1e57)" style="fill: #f29888"/>
    <path d="M 603.848987 349.022484 
L 602.44495 348.9464 
L 602.56704 346.694326 
L 603.969043 346.77041 
L 603.848987 349.022484 
" clip-path="url(#p93c4bf1e57)" style="fill: #f29888"/>
    <path d="M 598.523818 347.546462 
L 595.658767 346.983444 
L 596.191895 344.274869 
L 599.056945 344.837887 
L 598.523818 347.546462 
" clip-path="url(#p93c4bf1e57)" style="fill: #f29888"/>
    <path d="M 594.706463 347.546462 
L 592.799821 347.001704 
L 593.666661 343.973578 
L 595.573304 344.518336 
L 594.706463 347.546462 
" clip-path="url(#p93c4bf1e57)" style="fill: #f29888"/>
    <path d="M 383.685697 399.19199 
L 383.789474 402.247506 
L 383.856623 404.176985 
L 380.659894 404.286546 
L 380.588675 402.198813 
L 380.488968 399.30155 
L 383.685697 399.19199 
" clip-path="url(#p93c4bf1e57)" style="fill: #f29888"/>
    <path d="M 378.673893 394.289165 
L 385.600479 394.298295 
L 385.594374 397.859006 
L 382.14329 397.852919 
L 378.669823 397.846832 
L 378.673893 394.289165 
" clip-path="url(#p93c4bf1e57)" style="fill: #f29888"/>
    <path d="M 469.213978 336.346961 
L 472.416812 336.843026 
L 471.611016 342.056272 
L 461.101082 340.428083 
L 461.915017 335.169187 
L 465.447494 335.716989 
L 465.182965 337.430391 
L 468.955554 338.014713 
L 469.213978 336.346961 
" clip-path="url(#p93c4bf1e57)" style="fill: #f29888"/>
    <path d="M 439.519597 270.388592 
L 438.43096 273.985823 
L 435.484515 273.094123 
L 434.428435 276.575708 
L 437.124594 277.391323 
L 436.068513 280.875951 
L 428.883503 278.699961 
L 429.878538 275.413151 
L 433.085442 276.383977 
L 434.184254 272.756312 
L 430.895957 271.758096 
L 432.000874 268.112171 
L 439.519597 270.388592 
" clip-path="url(#p93c4bf1e57)" style="fill: #f29888"/>
    <path d="M 518.290184 176.96101 
L 517.21172 181.708625 
L 511.33918 180.375641 
L 512.415609 175.628026 
L 518.290184 176.96101 
" clip-path="url(#p93c4bf1e57)" style="fill: #f29888"/>
    <path d="M 510.804017 177.326211 
L 510.183392 179.861316 
L 505.965174 178.826579 
L 506.5858 176.294518 
L 510.804017 177.326211 
" clip-path="url(#p93c4bf1e57)" style="fill: #f29888"/>
    <path d="M 505.596869 176.337125 
L 505.006766 178.671369 
L 500.251351 177.466205 
L 500.843489 175.131961 
L 505.596869 176.337125 
" clip-path="url(#p93c4bf1e57)" style="fill: #f29888"/>
    <path d="M 462.804241 176.711456 
L 461.929261 179.167434 
L 455.981431 176.930577 
L 456.799436 174.58416 
L 462.804241 176.711456 
" clip-path="url(#p93c4bf1e57)" style="fill: #f29888"/>
    <path d="M 530.305898 153.012946 
L 530.582636 150.432191 
L 533.000023 150.690875 
L 532.72532 153.27163 
L 530.305898 153.012946 
" clip-path="url(#p93c4bf1e57)" style="fill: #f29888"/>
    <path d="M 554.178609 217.750934 
L 552.587366 221.631196 
L 545.278231 218.633504 
L 546.867439 214.756285 
L 554.178609 217.750934 
" clip-path="url(#p93c4bf1e57)" style="fill: #f29888"/>
    <path d="M 537.358644 214.315 
L 536.59558 216.442297 
L 534.629927 215.842758 
L 535.612754 213.660681 
L 537.358644 214.315 
" clip-path="url(#p93c4bf1e57)" style="fill: #f29888"/>
    <path d="M 715.588007 152.331237 
L 714.706923 156.50366 
L 712.702608 156.080635 
L 713.583693 151.905169 
L 715.588007 152.331237 
" clip-path="url(#p93c4bf1e57)" style="fill: #f29888"/>
    <path d="M 666.568777 151.138246 
L 666.432443 154.257673 
L 664.074067 154.154199 
L 664.210401 151.034773 
L 666.568777 151.138246 
" clip-path="url(#p93c4bf1e57)" style="fill: #f29888"/>
    <path d="M 528.055368 152.723828 
L 525.564727 152.446884 
L 525.945242 149.026167 
L 528.435882 149.300067 
L 528.055368 152.723828 
" clip-path="url(#p93c4bf1e57)" style="fill: #f29888"/>
    <path d="M 517.128292 148.158814 
L 516.733533 150.964776 
L 511.829575 150.27698 
L 512.222299 147.467975 
L 517.128292 148.158814 
" clip-path="url(#p93c4bf1e57)" style="fill: #f29888"/>
    <path d="M 524.940032 123.042106 
L 519.450041 122.053019 
L 519.916019 119.457048 
L 525.408045 120.446134 
L 524.940032 123.042106 
" clip-path="url(#p93c4bf1e57)" style="fill: #f29888"/>
    <path d="M 484.003175 93.731671 
L 483.681671 96.017221 
L 481.058766 95.557677 
L 481.412828 93.317776 
L 484.003175 93.731671 
" clip-path="url(#p93c4bf1e57)" style="fill: #f29888"/>
    <path d="M 483.931956 91.147873 
L 483.687776 93.138219 
L 481.740436 92.827798 
L 482.023279 90.843538 
L 483.931956 91.147873 
" clip-path="url(#p93c4bf1e57)" style="fill: #f29888"/>
   </g>
   <g id="LineCollection_1">
    <path d="M 380.943949 407.351824 
L 380.983433 406.818607 
" clip-path="url(#p93c4bf1e57)" style="fill: none; stroke: #f29888; stroke-width: 0.2"/>
    <path d="M 394.825962 407.596148 
L 387.533574 402.30533 
L 383.789474 402.247506 
" clip-path="url(#p93c4bf1e57)" style="fill: none; stroke: #f29888; stroke-width: 0.2"/>
    <path d="M 380.588675 402.198813 
L 377.190496 402.147076 
L 372.208425 407.198079 
" clip-path="url(#p93c4bf1e57)" style="fill: none; stroke: #f29888; stroke-width: 0.2"/>
    <path d="M 383.789474 402.247506 
L 380.588675 402.198813 
" clip-path="url(#p93c4bf1e57)" style="fill: none; stroke: #f29888; stroke-width: 0.2"/>
    <path d="M 486.797007 393.190518 
L 486.179926 409.514446 
" clip-path="url(#p93c4bf1e57)" style="fill: none; stroke: #f29888; stroke-width: 0.2"/>
    <path d="M 491.953285 313.923611 
L 489.806531 344.314432 
L 489.324275 351.13152 
L 487.901924 371.257146 
L 486.797007 393.190518 
" clip-path="url(#p93c4bf1e57)" style="fill: none; stroke: #f29888; stroke-width: 0.2"/>
    <path d="M 541.395761 353.438374 
L 489.806531 344.314432 
" clip-path="url(#p93c4bf1e57)" style="fill: none; stroke: #f29888; stroke-width: 0.2"/>
    <path d="M 444.572098 345.120918 
L 489.324275 351.13152 
" clip-path="url(#p93c4bf1e57)" style="fill: none; stroke: #f29888; stroke-width: 0.2"/>
    <path d="M 445.687189 266.152258 
L 445.455218 278.684744 
L 445.247664 293.021932 
L 445.276152 299.659463 
" clip-path="url(#p93c4bf1e57)" style="fill: none; stroke: #f29888; stroke-width: 0.2"/>
    <path d="M 445.455218 278.684744 
L 495.538668 284.759256 
" clip-path="url(#p93c4bf1e57)" style="fill: none; stroke: #f29888; stroke-width: 0.2"/>
    <path d="M 559.656391 288.237797 
L 561.790935 255.378825 
L 565.410911 245.043633 
" clip-path="url(#p93c4bf1e57)" style="fill: none; stroke: #f29888; stroke-width: 0.2"/>
    <path d="M 505.26926 221.795537 
L 499.807757 235.54536 
L 497.640655 262.956748 
L 495.538668 284.759256 
L 494.163118 303.013227 
L 492.160838 307.453464 
" clip-path="url(#p93c4bf1e57)" style="fill: none; stroke: #f29888; stroke-width: 0.2"/>
    <path d="M 689.741504 405.506926 
L 688.682714 414.209176 
" clip-path="url(#p93c4bf1e57)" style="fill: none; stroke: #f29888; stroke-width: 0.2"/>
    <path d="M 778.41251 415.986053 
L 775.426468 402.777048 
L 778.958945 384.626551 
L 781.746672 365.118724 
L 785.907914 341.870628 
" clip-path="url(#p93c4bf1e57)" style="fill: none; stroke: #f29888; stroke-width: 0.2"/>
    <path d="M 487.901924 371.257146 
L 676.858949 376.692556 
L 686.204957 377.465566 
L 687.22848 377.565996 
L 778.958945 384.626551 
" clip-path="url(#p93c4bf1e57)" style="fill: none; stroke: #f29888; stroke-width: 0.2"/>
    <path d="M 640.510651 331.383269 
L 640.980698 338.815112 
L 638.02001 343.081878 
L 630.904184 346.344342 
" clip-path="url(#p93c4bf1e57)" style="fill: none; stroke: #f29888; stroke-width: 0.2"/>
    <path d="M 645.750357 326.255236 
L 645.695416 328.276015 
L 650.552573 336.733465 
L 655.33444 348.718149 
" clip-path="url(#p93c4bf1e57)" style="fill: none; stroke: #f29888; stroke-width: 0.2"/>
    <path d="M 634.495672 268.78475 
L 630.104493 280.672047 
L 631.231793 310.375073 
L 640.510651 331.383269 
L 655.33444 348.718149 
L 656.665224 350.276341 
L 676.858949 376.692556 
L 687.775851 392.189258 
L 689.741504 405.506926 
" clip-path="url(#p93c4bf1e57)" style="fill: none; stroke: #f29888; stroke-width: 0.2"/>
    <path d="M 700.821193 337.445607 
L 688.813618 335.698729 
" clip-path="url(#p93c4bf1e57)" style="fill: none; stroke: #f29888; stroke-width: 0.2"/>
    <path d="M 445.276152 299.659463 
L 492.160838 307.453464 
L 491.953285 313.923611 
L 600.231047 339.904628 
L 630.904184 346.344342 
L 656.665224 350.276341 
L 687.010752 354.750055 
L 717.68389 356.935175 
L 781.746672 365.118724 
" clip-path="url(#p93c4bf1e57)" style="fill: none; stroke: #f29888; stroke-width: 0.2"/>
    <path d="M 673.257287 320.360281 
L 660.814257 321.17894 
L 653.228384 321.2885 
L 649.244172 322.871039 
L 645.750357 326.255236 
" clip-path="url(#p93c4bf1e57)" style="fill: none; stroke: #f29888; stroke-width: 0.2"/>
    <path d="M 445.276152 299.659463 
L 444.73692 334.98963 
L 444.572098 345.120918 
L 444.464252 354.527891 
L 444.086238 408.463129 
" clip-path="url(#p93c4bf1e57)" style="fill: none; stroke: #f29888; stroke-width: 0.2"/>
    <path d="M 362.157119 292.961065 
L 368.817141 292.741945 
L 380.497107 294.324483 
L 393.050018 296.6709 
L 399.543184 298.6369 
" clip-path="url(#p93c4bf1e57)" style="fill: none; stroke: #f29888; stroke-width: 0.2"/>
    <path d="M 368.163652 407.126891 
L 362.157119 292.961065 
L 361.233302 265.802274 
L 359.918798 240.90773 
L 359.096723 213.922409 
L 360.659478 206.496652 
L 362.588504 197.330104 
L 369.793863 177.027964 
L 373.735343 169.401347 
L 377.320726 162.739469 
L 381.699696 152.809042 
" clip-path="url(#p93c4bf1e57)" style="fill: none; stroke: #f29888; stroke-width: 0.2"/>
    <path d="M 361.233302 265.802274 
L 404.599755 277.531317 
L 410.72258 282.309365 
L 445.247664 293.021932 
" clip-path="url(#p93c4bf1e57)" style="fill: none; stroke: #f29888; stroke-width: 0.2"/>
    <path d="M 359.918798 240.90773 
L 445.687189 266.152258 
" clip-path="url(#p93c4bf1e57)" style="fill: none; stroke: #f29888; stroke-width: 0.2"/>
    <path d="M 166.713032 102.216511 
L 173.409681 105.034646 
L 176.8628 108.269719 
L 180.749339 113.66861 
L 183.339687 117.122804 
L 182.045531 123.38296 
L 177.511913 129.85615 
L 176.000029 132.881233 
L 174.518609 136.585284 
" clip-path="url(#p93c4bf1e57)" style="fill: none; stroke: #f29888; stroke-width: 0.2"/>
    <path d="M 293.787183 209.895171 
L 313.502124 220.073005 
L 328.952644 221.874664 
L 334.273743 221.488159 
L 345.432791 224.750623 
L 352.727683 228.868266 
L 357.061886 233.503277 
L 359.918798 240.90773 
" clip-path="url(#p93c4bf1e57)" style="fill: none; stroke: #f29888; stroke-width: 0.2"/>
    <path d="M 417.868929 67.832823 
L 410.616769 74.652955 
L 409.766207 92.599547 
L 406.107569 99.234035 
L 402.467245 109.514447 
L 401.063208 122.473 
L 397.90107 126.855414 
L 384.939157 136.530201 
L 381.227614 149.519188 
L 381.699696 152.809042 
" clip-path="url(#p93c4bf1e57)" style="fill: none; stroke: #f29888; stroke-width: 0.2"/>
    <path d="M 376.195461 78.076715 
L 406.107569 99.234035 
" clip-path="url(#p93c4bf1e57)" style="fill: none; stroke: #f29888; stroke-width: 0.2"/>
    <path d="M 185.816084 85.572469 
L 212.9425 85.462908 
L 236.410279 85.952887 
L 263.864303 87.699765 
L 289.352675 87.374128 
L 311.347231 87.864106 
L 337.81843 91.793061 
L 341.747701 91.193523 
L 364.834964 83.280832 
L 376.195461 78.076715 
L 403.804133 65.434669 
" clip-path="url(#p93c4bf1e57)" style="fill: none; stroke: #f29888; stroke-width: 0.2"/>
    <path d="M 46.119608 85.749642 
L 76.897349 83.332568 
L 101.433417 84.075144 
L 114.667998 89.27926 
L 123.887846 94.781624 
L 128.496753 96.565023 
L 133.327456 97.124998 
L 134.890211 97.307599 
L 143.367343 98.497546 
L 159.129193 101.026564 
L 166.713032 102.216511 
L 172.363775 101.470892 
L 180.096157 97.75497 
L 184.853606 94.930748 
L 185.816084 85.572469 
" clip-path="url(#p93c4bf1e57)" style="fill: none; stroke: #f29888; stroke-width: 0.2"/>
    <path d="M 739.265374 160.301752 
L 736.786942 186.915785 
L 735.857022 212.017276 
L 733.293127 239.145634 
L 724.433445 266.72745 
L 713.703748 292.267183 
L 709.676805 294.147969 
L 695.158241 299.835977 
L 690.695843 305.487464 
L 688.813618 335.698729 
L 687.010752 354.750055 
L 686.204957 377.465566 
L 687.775851 392.189258 
" clip-path="url(#p93c4bf1e57)" style="fill: none; stroke: #f29888; stroke-width: 0.2"/>
    <path d="M 796.719005 235.143638 
L 798.188157 236.689657 
L 799.061103 239.449969 
L 795.021951 262.862405 
L 793.65861 274.347981 
L 781.84231 282.068941 
L 778.049373 282.345886 
L 774.748867 281.825474 
L 761.048307 277.923908 
L 724.433445 266.72745 
" clip-path="url(#p93c4bf1e57)" style="fill: none; stroke: #f29888; stroke-width: 0.2"/>
    <path d="M 804.140334 220.978145 
L 799.388711 218.210479 
L 789.945032 215.730155 
L 794.755387 219.726064 
L 796.818712 228.15308 
L 796.525695 232.575057 
L 796.719005 235.143638 
" clip-path="url(#p93c4bf1e57)" style="fill: none; stroke: #f29888; stroke-width: 0.2"/>
    <path d="M 675.711301 206.724903 
L 685.972985 208.307441 
L 702.455168 209.94476 
L 725.87004 211.636858 
L 735.857022 212.017276 
L 764.784269 214.421517 
L 789.945032 215.730155 
" clip-path="url(#p93c4bf1e57)" style="fill: none; stroke: #f29888; stroke-width: 0.2"/>
    <path d="M 803.031267 200.436574 
L 789.784279 193.410278 
L 781.978644 189.80696 
" clip-path="url(#p93c4bf1e57)" style="fill: none; stroke: #f29888; stroke-width: 0.2"/>
    <path d="M 673.804658 232.812438 
L 674.014247 230.268203 
L 675.711301 206.724903 
L 677.624048 183.586368 
L 679.47982 159.516569 
L 681.990809 142.005175 
" clip-path="url(#p93c4bf1e57)" style="fill: none; stroke: #f29888; stroke-width: 0.2"/>
    <path d="M 770.353618 162.246448 
L 779.994677 160.304795 
L 785.317896 161.533522 
" clip-path="url(#p93c4bf1e57)" style="fill: none; stroke: #f29888; stroke-width: 0.2"/>
    <path d="M 799.076365 169.951923 
L 801.634792 174.571773 
" clip-path="url(#p93c4bf1e57)" style="fill: none; stroke: #f29888; stroke-width: 0.2"/>
    <path d="M 447.024077 142.744707 
L 449.891163 143.259032 
L 487.234497 149.1479 
L 490.038503 149.583098 
L 530.425953 155.152416 
L 545.5977 156.841471 
L 572.506389 162.572085 
L 610.492731 170.213919 
L 624.850543 173.378996 
L 659.72155 180.311731 
L 677.624048 183.586368 
L 678.934483 182.219907 
L 705.350741 184.350247 
L 736.786942 186.915785 
L 781.978644 189.80696 
" clip-path="url(#p93c4bf1e57)" style="fill: none; stroke: #f29888; stroke-width: 0.2"/>
    <path d="M 624.850543 173.378996 
L 627.538563 160.904334 
L 628.401334 152.29776 
L 629.793163 148.384021 
" clip-path="url(#p93c4bf1e57)" style="fill: none; stroke: #f29888; stroke-width: 0.2"/>
    <path d="M 796.719005 235.143638 
L 803.532401 231.846189 
" clip-path="url(#p93c4bf1e57)" style="fill: none; stroke: #f29888; stroke-width: 0.2"/>
    <path d="M 360.659478 206.496652 
L 362.122526 207.242271 
L 416.198327 229.763008 
L 448.883919 242.709389 
L 460.297321 247.228753 
L 497.640655 262.956748 
L 546.946797 284.138415 
L 559.656391 288.237797 
L 588.878689 297.659987 
L 631.231793 310.375073 
" clip-path="url(#p93c4bf1e57)" style="fill: none; stroke: #f29888; stroke-width: 0.2"/>
    <path d="M 373.735343 169.401347 
L 416.306174 187.302289 
L 448.153412 200.114763 
L 505.26926 221.795537 
L 554.839931 240.956423 
L 565.410911 245.043633 
L 614.204274 264.146696 
L 620.752381 268.404332 
L 625.310416 272.744139 
L 630.104493 280.672047 
L 662.069752 290.20684 
L 695.158241 299.835977 
L 729.801346 309.994655 
L 760.474483 319.383368 
L 773.355003 325.713521 
L 780.450481 331.827597 
L 785.907914 341.870628 
" clip-path="url(#p93c4bf1e57)" style="fill: none; stroke: #f29888; stroke-width: 0.2"/>
    <path d="M 561.790935 255.378825 
L 560.36248 249.003022 
L 554.839931 240.956423 
" clip-path="url(#p93c4bf1e57)" style="fill: none; stroke: #f29888; stroke-width: 0.2"/>
    <path d="M 448.153412 200.114763 
L 446.753444 211.986843 
L 448.883919 242.709389 
" clip-path="url(#p93c4bf1e57)" style="fill: none; stroke: #f29888; stroke-width: 0.2"/>
    <path d="M 381.699696 152.809042 
L 398.399606 157.395359 
L 420.013647 160.231755 
L 446.320024 162.955547 
L 446.478741 163.01337 
L 496.751431 180.966049 
L 545.886647 193.501579 
L 576.462112 205.70234 
L 598.393589 215.273653 
L 606.384395 218.803931 
L 612.533673 220.979921 
L 617.618731 222.711583 
L 621.069815 223.651976 
L 648.680522 229.549974 
L 651.099944 230.520801 
L 673.804658 232.812438 
L 733.293127 239.145634 
L 767.352233 242.745909 
L 780.942911 242.855469 
L 783.671628 242.283321 
L 786.371857 241.382491 
L 796.719005 235.143638 
" clip-path="url(#p93c4bf1e57)" style="fill: none; stroke: #f29888; stroke-width: 0.2"/>
    <path d="M 548.938903 111.778694 
L 548.84937 112.022161 
L 547.618294 116.352838 
L 546.755523 123.33731 
L 546.41774 126.067188 
L 545.5977 156.841471 
L 545.886647 193.501579 
" clip-path="url(#p93c4bf1e57)" style="fill: none; stroke: #f29888; stroke-width: 0.2"/>
    <path d="M 469.832569 123.617297 
L 446.470602 123.605124 
" clip-path="url(#p93c4bf1e57)" style="fill: none; stroke: #f29888; stroke-width: 0.2"/>
    <path d="M 445.652597 72.507398 
L 445.575273 73.779515 
L 445.719747 96.160258 
L 446.470602 123.605124 
L 446.492985 124.432913 
L 447.024077 142.744707 
L 447.085122 144.838527 
L 446.478741 163.01337 
" clip-path="url(#p93c4bf1e57)" style="fill: none; stroke: #f29888; stroke-width: 0.2"/>
    <path d="M 485.726683 109.858344 
L 522.40259 114.222498 
L 537.031035 116.133717 
L 544.071572 119.024893 
L 546.755523 123.33731 
" clip-path="url(#p93c4bf1e57)" style="fill: none; stroke: #f29888; stroke-width: 0.2"/>
    <path d="M 487.234497 149.1479 
L 487.250776 147.099731 
L 485.726683 109.858344 
L 485.344133 83.101274 
" clip-path="url(#p93c4bf1e57)" style="fill: none; stroke: #f29888; stroke-width: 0.2"/>
    <path d="M 678.454048 130.634081 
L 680.790255 135.997616 
L 681.990809 142.005175 
" clip-path="url(#p93c4bf1e57)" style="fill: none; stroke: #f29888; stroke-width: 0.2"/>
    <path d="M 520.52647 95.898531 
L 525.806873 101.358288 
L 522.40259 114.222498 
" clip-path="url(#p93c4bf1e57)" style="fill: none; stroke: #f29888; stroke-width: 0.2"/>
    <path d="M 261.790804 40.439695 
L 272.923399 44.532991 
L 289.952952 43.933452 
L 305.016853 41.587035 
L 335.68999 50.808364 
L 363.375986 56.928526 
L 371.492952 58.721055 
L 403.804133 65.434669 
L 417.868929 67.832823 
L 428.914025 69.713609 
L 444.464252 72.364361 
L 445.652597 72.507398 
L 459.910702 74.2208 
L 471.808396 78.204536 
L 485.344133 83.101274 
L 496.368882 87.045447 
L 520.52647 95.898531 
L 527.042019 98.287555 
L 532.664274 101.123951 
L 546.362799 110.677004 
L 548.938903 111.778694 
L 570.105281 120.826552 
L 594.991341 131.359561 
L 629.793163 148.384021 
L 635.816281 151.329977 
L 666.436513 157.444053 
L 679.47982 159.516569 
L 682.481205 158.53357 
L 715.119995 158.80747 
L 739.265374 160.301752 
L 759.819266 162.191668 
L 770.353618 162.246448 
" clip-path="url(#p93c4bf1e57)" style="fill: none; stroke: #f29888; stroke-width: 0.2"/>
    <path d="M 428.914025 69.713609 
L 430.45634 64.889317 
" clip-path="url(#p93c4bf1e57)" style="fill: none; stroke: #f29888; stroke-width: 0.2"/>
    <path d="M 185.816084 85.572469 
L 119.413239 40.275354 
L 115.919423 33.729124 
L 116.035423 28.519555 
" clip-path="url(#p93c4bf1e57)" style="fill: none; stroke: #f29888; stroke-width: 0.2"/>
    <path d="M 305.016853 41.587035 
L 296.575805 37.946943 
" clip-path="url(#p93c4bf1e57)" style="fill: none; stroke: #f29888; stroke-width: 0.2"/>
    <path d="M 363.375986 56.928526 
L 363.237617 56.249861 
L 362.425795 52.113329 
" clip-path="url(#p93c4bf1e57)" style="fill: none; stroke: #f29888; stroke-width: 0.2"/>
   </g>
   <g id="LineCollection_2">
    <path d="M 792.070802 321.359108 
L 716.231016 292.051106 
" clip-path="url(#p93c4bf1e57)" style="fill: none; stroke-dasharray: 3.7,1.6; stroke-dashoffset: 0; stroke: #f29888"/>
    <path d="M 716.231016 292.051106 
L 711.874429 290.203797 
" clip-path="url(#p93c4bf1e57)" style="fill: none; stroke-dasharray: 3.7,1.6; stroke-dashoffset: 0; stroke: #f29888"/>
    <path d="M 691.534196 282.421969 
L 680.517587 279.561227 
L 670.632347 276.943952 
L 663.129902 274.871436 
L 659.847709 273.973649 
L 656.018146 272.996736 
L 651.368543 271.511585 
L 646.600919 269.83166 
L 638.20111 266.62702 
L 620.656743 259.633418 
L 602.799011 252.913717 
" clip-path="url(#p93c4bf1e57)" style="fill: none; stroke-dasharray: 3.7,1.6; stroke-dashoffset: 0; stroke: #f29888"/>
    <path d="M 409.135407 174.203742 
L 418.524146 178.634849 
L 423.330432 180.823012 
L 427.902711 182.852922 
L 436.304555 186.017999 
L 547.431089 228.804355 
L 637.067706 263.072396 
L 680.517587 279.561227 
" clip-path="url(#p93c4bf1e57)" style="fill: none; stroke-dasharray: 3.7,1.6; stroke-dashoffset: 0; stroke: #f29888"/>
    <path d="M 684.870104 279.874691 
L 674.97062 275.300547 
L 669.578301 272.567625 
L 663.715935 270.145124 
L 635.152924 259.359517 
L 565.313239 232.988952 
L 530.456476 219.406513 
L 519.270975 214.628464 
L 510.350249 210.985583 
L 485.146754 201.724691 
L 451.620775 188.7144 
L 423.721121 178.163131 
L 415.555319 175.271955 
L 400.835306 170.986928 
" clip-path="url(#p93c4bf1e57)" style="fill: none; stroke-dasharray: 3.7,1.6; stroke-dashoffset: 0; stroke: #f29888"/>
    <path d="M 711.874429 290.203797 
L 691.534196 282.421969 
L 684.870104 279.874691 
L 544.859054 226.308814 
L 502.973963 209.91737 
L 461.092942 194.107204 
L 409.135407 174.203742 
L 400.835306 170.986928 
L 394.482544 168.524864 
L 377.320726 162.739469 
L 370.066531 160.356532 
L 362.551877 158.147065 
L 347.369956 154.376363 
L 228.372671 129.977884 
L 177.155817 119.679212 
L 158.197238 116.334578 
L 142.313298 114.572482 
L 125.660189 113.473836 
L 110.07944 112.74039 
L 77.87814 111.489576 
L 48.010798 110.397016 
L 45.573664 110.271943 
" clip-path="url(#p93c4bf1e57)" style="fill: none; stroke-dasharray: 3.7,1.6; stroke-dashoffset: 0; stroke: #f29888"/>
    <path d="M 437.04727 181.681235 
L 447.256049 184.742838 
L 457.570639 187.086212 
L 461.908912 188.413109 
L 468.316615 190.83561 
L 490.003911 199.119589 
L 497.856348 202.753341 
L 507.391595 208.499172 
L 519.270975 214.628464 
" clip-path="url(#p93c4bf1e57)" style="fill: none; stroke-dasharray: 3.7,1.6; stroke-dashoffset: 0; stroke: #f29888"/>
    <path d="M 423.721121 178.163131 
L 432.318308 180.430421 
L 437.04727 181.681235 
L 443.259628 184.064172 
L 453.926245 188.127035 
L 481.00586 198.678305 
L 484.697055 200.163456 
" clip-path="url(#p93c4bf1e57)" style="fill: none; stroke-dasharray: 3.7,1.6; stroke-dashoffset: 0; stroke: #f29888"/>
   </g>
  </g>
 </g>
 <defs>
  <clipPath id="p93c4bf1e57">
   <rect x="7.2" y="7.2" width="837" height="428.308504"/>
  </clipPath>
 </defs>
</svg>
