<?xml version="1.0" encoding="utf-8" standalone="no"?>
<!DOCTYPE svg PUBLIC "-//W3C//DTD SVG 1.1//EN"
  "http://www.w3.org/Graphics/SVG/1.1/DTD/svg11.dtd">
<svg xmlns:xlink="http://www.w3.org/1999/xlink" width="644.595672pt" height="846pt" viewBox="0 0 644.595672 846" xmlns="http://www.w3.org/2000/svg" version="1.1">
 <metadata>
  <rdf:RDF xmlns:dc="http://purl.org/dc/elements/1.1/" xmlns:cc="http://creativecommons.org/ns#" xmlns:rdf="http://www.w3.org/1999/02/22-rdf-syntax-ns#">
   <cc:Work>
    <dc:type rdf:resource="http://purl.org/dc/dcmitype/StillImage"/>
    <dc:date>2025-03-16T14:30:00.598885</dc:date>
    <dc:format>image/svg+xml</dc:format>
    <dc:creator>
     <cc:Agent>
      <dc:title>Matplotlib v3.10.1, https://matplotlib.org/</dc:title>
     </cc:Agent>
    </dc:creator>
   </cc:Work>
  </rdf:RDF>
 </metadata>
 <defs>
  <style type="text/css">*{stroke-linejoin: round; stroke-linecap: butt}</style>
 </defs>
 <g id="figure_1">
  <g id="patch_1">
   <path d="M 0 846 
L 644.595672 846 
L 644.595672 0 
L 0 0 
z
" style="fill: #ffffff"/>
  </g>
  <g id="axes_1">
   <g id="PatchCollection_1">
    <path d="M 41.877567 637.333854 
L 35.845258 642.575031 
L 41.560934 647.495229 
L 43.673796 651.618588 
L 49.743095 658.044922 
L 55.318209 661.066175 
L 58.582196 669.308403 
L 56.043211 672.428419 
L 61.039804 684.374263 
L 68.843189 690.098033 
L 72.175237 687.635689 
L 81.26439 684.262032 
L 85.234144 683.626806 
L 116.663704 666.159207 
L 124.441935 662.825953 
L 130.950674 663.142444 
L 136.824667 661.236765 
L 148.572652 661.079642 
L 168.890453 656.951794 
L 176.332816 645.113692 
L 182.206809 645.273059 
L 188.397435 642.096928 
L 219.988271 637.493222 
L 230.147171 640.350617 
L 231.893093 638.763674 
L 237.767086 640.034126 
L 241.100614 634.476458 
L 229.035995 626.537253 
L 225.544151 623.52049 
L 197.923069 618.757415 
L 189.668407 618.122189 
L 172.047909 619.076151 
L 165.221057 620.187235 
L 143.155855 620.663094 
L 142.521108 621.536249 
L 121.248969 622.409405 
L 111.248385 621.457688 
L 105.850822 622.568773 
L 97.119731 627.013111 
L 75.372642 637.333854 
L 73.943353 630.029875 
L 51.401721 631.935553 
L 41.877567 637.333854 
" clip-path="url(#p080e3819b7)" style="fill: #d1d4f2"/>
    <path d="M 289.993835 714.342126 
L 290.628582 737.843251 
L 297.473189 748.568024 
L 315.728434 755.317583 
L 337.953432 753.492711 
L 346.36641 755.081899 
L 365.256401 761.910019 
L 378.075614 770.740337 
L 385.298997 773.903001 
L 410.628186 780.58971 
L 435.256047 792.905916 
L 461.289524 797.832847 
L 496.822001 801 
L 517.929905 791.850947 
L 514.060764 784.107023 
L 539.039289 767.568695 
L 585.477862 759.824772 
L 581.256577 741.526665 
L 605.268927 728.786227 
L 608.750414 718.948077 
L 598.511616 707.673373 
L 586.140721 708.593665 
L 584.93929 680.044399 
L 573.826051 679.727909 
L 556.047235 612.088662 
L 542.713124 608.59604 
L 504.931662 520.005552 
L 502.074564 518.261486 
L 501.121705 513.97427 
L 504.296916 511.909224 
L 499.217466 507.464885 
L 498.422923 503.020546 
L 486.359784 499.685047 
L 477.721907 501.103644 
L 387.679666 496.697464 
L 353.490661 501.274235 
L 379.84225 552.393111 
L 372.540448 553.663563 
L 366.508139 558.426637 
L 367.142885 562.554485 
L 359.52297 571.761899 
L 348.727844 588.273291 
L 309.360256 653.052897 
L 297.930384 672.74042 
L 286.818624 662.897781 
L 283.961526 666.073912 
L 275.388752 656.864254 
L 267.768837 650.830727 
L 255.704218 663.214272 
L 281.739174 696.558036 
L 289.993835 714.342126 
" clip-path="url(#p080e3819b7)" style="fill: #d1d4f2"/>
    <path d="M 195.027501 284.466815 
L 201.710832 285.656461 
L 212.963153 281.667779 
L 203.795582 260.943243 
L 204.430328 255.071329 
L 219.988271 257.134131 
L 228.242932 256.81764 
L 235.068305 255.390064 
L 234.909988 243.168132 
L 240.782501 219.67823 
L 250.148338 223.644466 
L 263.800563 228.088805 
L 268.563379 226.820597 
L 271.578794 220.946438 
L 277.29447 218.091287 
L 282.215604 218.883636 
L 294.438539 199.838073 
L 296.184461 194.442017 
L 292.961903 190.736157 
L 320.744261 146.04586 
L 319.044206 141.433175 
L 294.438539 127.150686 
L 308.72551 95.093086 
L 277.929217 75.731032 
L 233.957129 52.56211 
L 213.239837 45 
L 207.763856 82.39754 
L 199.509195 81.286456 
L 189.985041 80.334739 
L 189.350294 99.853916 
L 192.525506 100.64851 
L 193.160252 104.614746 
L 196.731995 105.249972 
L 200.223839 107.788632 
L 194.906174 126.831951 
L 189.032181 140.640826 
L 188.397435 147.145722 
L 217.289489 151.114202 
L 223.321799 144.449939 
L 230.940234 147.940316 
L 236.021164 156.510258 
L 249.037162 170.159766 
L 248.085783 172.698426 
L 234.115445 177.459255 
L 220.781334 179.364934 
L 209.034828 181.268368 
L 192.842139 190.157046 
L 195.382604 193.966159 
L 189.032181 196.504819 
L 190.303154 200.313931 
L 184.587478 202.21961 
L 188.397435 210.789552 
L 176.016183 216.502099 
L 168.396268 223.487343 
L 165.855803 233.327738 
L 169.983874 247.293736 
L 175.381437 254.59547 
L 185.680898 270.8622 
L 189.662489 273.861006 
L 195.027501 284.466815 
" clip-path="url(#p080e3819b7)" style="fill: #d1d4f2"/>
   </g>
   <g id="PatchCollection_2">
    <path d="M 425.96271 742.168625 
L 425.990823 744.947459 
L 421.179179 744.996841 
L 421.151067 742.218007 
L 425.96271 742.168625 
" clip-path="url(#p080e3819b7)" style="fill: #4d59c1"/>
    <path d="M 411.739362 744.824006 
L 404.992408 744.727487 
L 405.032357 741.991301 
L 411.779311 742.090064 
L 411.739362 744.824006 
" clip-path="url(#p080e3819b7)" style="fill: #4d59c1"/>
    <path d="M 400.254745 741.957631 
L 400.578776 742.146179 
L 400.818471 742.830787 
L 400.938318 743.616402 
L 400.578776 743.939627 
L 399.571172 744.298765 
L 399.143569 743.939627 
L 398.647904 743.668028 
L 398.494027 743.068716 
L 398.819537 742.350439 
L 400.254745 741.957631 
" clip-path="url(#p080e3819b7)" style="fill: #4d59c1"/>
    <path d="M 408.601141 729.948938 
L 408.516804 731.980315 
L 411.916914 732.121726 
L 411.955383 731.181232 
L 413.105029 731.230613 
L 413.186406 729.282287 
L 416.012433 729.401252 
L 415.777177 735.019525 
L 411.848852 734.855668 
L 411.801505 735.995932 
L 409.558439 735.901659 
L 409.617623 734.509997 
L 405.775114 734.350629 
L 405.963023 729.841196 
L 408.601141 729.948938 
" clip-path="url(#p080e3819b7)" style="fill: #4d59c1"/>
    <path d="M 395.801163 733.955577 
L 395.993511 730.994929 
L 399.365508 731.212657 
L 399.17464 734.173305 
L 395.801163 733.955577 
" clip-path="url(#p080e3819b7)" style="fill: #4d59c1"/>
    <path d="M 434.337219 723.984994 
L 434.646454 726.916462 
L 441.894991 726.151048 
L 441.590194 723.257739 
L 443.509229 723.055723 
L 443.740046 725.253202 
L 443.932393 725.233001 
L 444.037445 726.22961 
L 443.824383 726.252056 
L 444.000455 727.917561 
L 443.057953 728.016324 
L 443.090504 728.33057 
L 434.360892 729.253107 
L 434.326862 728.936616 
L 432.916807 729.087006 
L 432.740736 727.421501 
L 432.548388 727.441702 
L 432.443337 726.445093 
L 432.656399 726.422647 
L 432.421143 724.18701 
L 434.337219 723.984994 
" clip-path="url(#p080e3819b7)" style="fill: #4d59c1"/>
    <path d="M 267.006845 160.007369 
L 264.790412 165.098157 
L 261.948109 163.863619 
L 264.164543 158.770586 
L 267.006845 160.007369 
" clip-path="url(#p080e3819b7)" style="fill: #4d59c1"/>
    <path d="M 268.801594 156.283552 
L 266.309956 155.221849 
L 268.7794 149.441964 
L 271.269559 150.503667 
L 268.801594 156.283552 
" clip-path="url(#p080e3819b7)" style="fill: #4d59c1"/>
    <path d="M 226.726347 125.642304 
L 226.263234 127.39086 
L 224.52471 126.930714 
L 224.986343 125.182158 
L 226.726347 125.642304 
" clip-path="url(#p080e3819b7)" style="fill: #4d59c1"/>
    <path d="M 228.703086 118.71991 
L 228.297677 120.450509 
L 226.184815 119.938736 
L 226.599102 118.228339 
L 228.703086 118.71991 
" clip-path="url(#p080e3819b7)" style="fill: #4d59c1"/>
    <path d="M 198.35807 130.028283 
L 207.731305 132.751002 
L 207.058089 135.065201 
L 197.684854 132.344727 
L 198.35807 130.028283 
" clip-path="url(#p080e3819b7)" style="fill: #4d59c1"/>
    <path d="M 224.52471 126.930714 
L 222.528736 126.425675 
L 222.975574 124.656918 
L 224.986343 125.182158 
L 224.52471 126.930714 
" clip-path="url(#p080e3819b7)" style="fill: #4d59c1"/>
    <path d="M 219.059085 123.664798 
L 218.643319 125.536808 
L 217.073469 125.188892 
L 217.533623 123.287703 
L 219.059085 123.664798 
" clip-path="url(#p080e3819b7)" style="fill: #4d59c1"/>
    <path d="M 217.073469 125.188892 
L 215.266883 124.751192 
L 215.727037 122.850003 
L 217.533623 123.287703 
L 217.073469 125.188892 
" clip-path="url(#p080e3819b7)" style="fill: #4d59c1"/>
    <path d="M 206.040128 120.12055 
L 210.194831 120.814136 
L 209.79386 123.21812 
L 205.639157 122.526778 
L 206.040128 120.12055 
" clip-path="url(#p080e3819b7)" style="fill: #4d59c1"/>
    <path d="M 220.985518 116.917484 
L 220.634854 118.470758 
L 218.706942 118.035302 
L 219.056126 116.482028 
L 220.985518 116.917484 
" clip-path="url(#p080e3819b7)" style="fill: #4d59c1"/>
    <path d="M 218.706942 118.035302 
L 216.827856 117.586379 
L 217.216989 116.037594 
L 219.056126 116.482028 
L 218.706942 118.035302 
" clip-path="url(#p080e3819b7)" style="fill: #4d59c1"/>
    <path d="M 206.417424 114.677357 
L 206.757731 112.215014 
L 210.74672 112.764945 
L 210.406413 115.227288 
L 206.417424 114.677357 
" clip-path="url(#p080e3819b7)" style="fill: #4d59c1"/>
    <path d="M 217.921277 105.898666 
L 217.375306 107.658444 
L 215.8602 107.187075 
L 216.406171 105.427296 
L 217.921277 105.898666 
" clip-path="url(#p080e3819b7)" style="fill: #4d59c1"/>
    <path d="M 226.184815 119.938736 
L 224.357515 119.496547 
L 224.771802 117.78615 
L 226.599102 118.228339 
L 226.184815 119.938736 
" clip-path="url(#p080e3819b7)" style="fill: #4d59c1"/>
    <path d="M 232.684677 112.226237 
L 230.758244 111.739155 
L 231.97743 106.919966 
L 233.905343 107.407047 
L 232.684677 112.226237 
" clip-path="url(#p080e3819b7)" style="fill: #4d59c1"/>
    <path d="M 227.625941 110.643783 
L 225.672875 110.161191 
L 226.776653 105.689916 
L 228.731199 106.170264 
L 227.625941 110.643783 
" clip-path="url(#p080e3819b7)" style="fill: #4d59c1"/>
    <path d="M 236.141011 99.283784 
L 235.000243 103.440812 
L 233.365291 102.994133 
L 234.504579 98.83486 
L 236.141011 99.283784 
" clip-path="url(#p080e3819b7)" style="fill: #4d59c1"/>
    <path d="M 229.818701 102.051395 
L 228.099411 101.580025 
L 229.175077 97.665416 
L 230.894367 98.136785 
L 229.818701 102.051395 
" clip-path="url(#p080e3819b7)" style="fill: #4d59c1"/>
    <path d="M 222.431083 108.827889 
L 220.532762 108.277958 
L 221.748989 104.085016 
L 223.64731 104.634947 
L 222.431083 108.827889 
" clip-path="url(#p080e3819b7)" style="fill: #4d59c1"/>
    <path d="M 216.999489 103.615892 
L 218.4924 104.114196 
L 217.921277 105.898666 
L 216.406171 105.427296 
L 216.999489 103.615892 
" clip-path="url(#p080e3819b7)" style="fill: #4d59c1"/>
    <path d="M 209.873759 103.319602 
L 209.656258 104.872876 
L 208.154469 104.661883 
L 208.371969 103.108609 
L 209.873759 103.319602 
" clip-path="url(#p080e3819b7)" style="fill: #4d59c1"/>
    <path d="M 208.614623 101.37801 
L 210.119371 101.591248 
L 209.873759 103.319602 
L 208.371969 103.108609 
L 208.614623 101.37801 
" clip-path="url(#p080e3819b7)" style="fill: #4d59c1"/>
    <path d="M 225.237874 100.825834 
L 223.293686 100.21081 
L 224.603128 96.065005 
L 226.548796 96.680029 
L 225.237874 100.825834 
" clip-path="url(#p080e3819b7)" style="fill: #4d59c1"/>
    <path d="M 221.348019 94.875359 
L 219.995669 99.153596 
L 218.181685 98.578974 
L 219.534035 94.302982 
L 221.348019 94.875359 
" clip-path="url(#p080e3819b7)" style="fill: #4d59c1"/>
   </g>
   <g id="LineCollection_1">
    <path d="M 381.092508 760.529581 
L 385.735478 765.036769 
L 390.399162 767.754998 
L 400.608368 770.632596 
L 408.382161 772.634793 
L 417.074782 774.625767 
L 429.723841 779.097041 
L 438.349881 781.754666 
L 439.067484 781.958926 
L 444.723977 783.321408 
L 452.263994 784.787142 
L 458.420589 785.673765 
L 462.736568 785.415634 
L 464.355245 785.027315 
L 465.793411 784.322506 
L 466.403005 783.9499 
L 468.39306 783.112658 
L 477.190733 783.321408 
L 485.258965 782.596397 
L 494.823068 782.0532 
L 501.981349 781.512247 
L 508.232639 781.198001 
L 512.631475 780.874777 
L 516.260922 780.12283 
L 536.522498 768.886285 
L 537.988777 767.647257 
" clip-path="url(#p080e3819b7)" style="fill: none; stroke: #4d59c1; stroke-width: 0.2"/>
    <path d="M 438.349881 781.754666 
L 441.807695 770.374465 
L 444.571578 760.006585 
" clip-path="url(#p080e3819b7)" style="fill: none; stroke: #4d59c1; stroke-width: 0.2"/>
    <path d="M 417.074782 774.625767 
L 419.696625 764.776394 
" clip-path="url(#p080e3819b7)" style="fill: none; stroke: #4d59c1; stroke-width: 0.2"/>
    <path d="M 468.39306 783.112658 
L 465.784534 776.181285 
L 462.36519 770.102866 
L 461.431565 762.771952 
L 461.140085 761.645155 
L 459.956409 756.38602 
L 459.081968 746.736418 
L 458.311099 738.929645 
L 458.177935 735.852277 
" clip-path="url(#p080e3819b7)" style="fill: none; stroke: #4d59c1; stroke-width: 0.2"/>
    <path d="M 537.988777 767.647257 
L 538.585054 766.34538 
L 538.74485 764.836998 
L 537.494592 759.831505 
L 536.472192 755.259223 
L 535.849282 749.717268 
" clip-path="url(#p080e3819b7)" style="fill: none; stroke: #4d59c1; stroke-width: 0.2"/>
    <path d="M 461.140085 761.645155 
L 479.396809 758.832651 
L 494.942915 756.552122 
L 511.872443 754.202009 
L 535.849282 749.717268 
L 556.553257 746.835181 
L 581.491833 742.547965 
" clip-path="url(#p080e3819b7)" style="fill: none; stroke: #4d59c1; stroke-width: 0.2"/>
    <path d="M 458.311099 738.929645 
L 468.409336 737.690617 
L 477.715989 736.368539 
L 487.207592 735.019525 
L 504.959774 732.296806 
L 505.837174 730.54825 
" clip-path="url(#p080e3819b7)" style="fill: none; stroke: #4d59c1; stroke-width: 0.2"/>
    <path d="M 571.915893 723.36548 
L 572.66013 714.49027 
L 574.364623 706.503928 
L 577.282385 687.168809 
L 577.967437 684.562811 
L 578.193815 683.703123 
" clip-path="url(#p080e3819b7)" style="fill: none; stroke: #4d59c1; stroke-width: 0.2"/>
    <path d="M 586.079054 707.128287 
L 585.662812 706.92816 
L 584.473217 705.260411 
L 584.155104 703.038242 
L 584.155104 700.973195 
L 584.075206 698.591658 
L 584.155104 695.734262 
L 584.235002 692.398764 
L 584.313421 690.017227 
L 585.186382 688.906142 
L 585.186382 687.478566 
L 584.631534 686.446043 
L 583.678675 685.334958 
L 582.567499 685.016223 
L 580.265249 684.699732 
L 577.967437 684.562811 
" clip-path="url(#p080e3819b7)" style="fill: none; stroke: #4d59c1; stroke-width: 0.2"/>
    <path d="M 61.09159 662.293979 
L 56.806682 663.717066 
L 56.419081 663.8461 
" clip-path="url(#p080e3819b7)" style="fill: none; stroke: #4d59c1; stroke-width: 0.2"/>
    <path d="M 373.039441 767.271247 
L 373.472593 766.922246 
" clip-path="url(#p080e3819b7)" style="fill: none; stroke: #4d59c1; stroke-width: 0.2"/>
    <path d="M 400.171887 739.293273 
L 393.990139 746.754375 
L 391.152275 750.406364 
L 389.367884 752.787902 
L 383.890423 758.107641 
L 382.203684 759.398295 
L 381.092508 760.529581 
L 373.472593 766.922246 
" clip-path="url(#p080e3819b7)" style="fill: none; stroke: #4d59c1; stroke-width: 0.2"/>
    <path d="M 389.367884 752.787902 
L 377.837399 749.389554 
L 363.384713 744.987862 
L 339.71563 737.551451 
L 330.604283 733.883749 
L 325.890293 730.218292 
L 321.821406 728.950084 
L 316.292159 727.724524 
L 307.457497 726.656087 
L 295.234561 723.796447 
" clip-path="url(#p080e3819b7)" style="fill: none; stroke: #4d59c1; stroke-width: 0.2"/>
    <path d="M 316.292159 727.724524 
L 328.873157 713.11881 
" clip-path="url(#p080e3819b7)" style="fill: none; stroke: #4d59c1; stroke-width: 0.2"/>
    <path d="M 347.307433 724.718984 
L 351.475452 712.708046 
L 360.048226 698.654507 
L 372.192743 681.983747 
L 381.676948 668.12998 
L 384.843282 663.849498 
L 387.510992 661.50163 
L 390.924418 660.628475 
L 396.242083 660.866404 
L 401.719544 661.658753 
L 405.980778 661.699156 
" clip-path="url(#p080e3819b7)" style="fill: none; stroke: #4d59c1; stroke-width: 0.2"/>
    <path d="M 366.117526 730.671704 
L 380.021281 705.022482 
L 389.535078 690.264134 
L 398.384537 674.20391 
L 405.980778 661.699156 
L 411.416811 652.990048 
L 416.31427 646.781441 
" clip-path="url(#p080e3819b7)" style="fill: none; stroke: #4d59c1; stroke-width: 0.2"/>
    <path d="M 403.360415 739.401014 
L 406.113942 719.423935 
L 407.10675 710.730539 
L 408.059609 703.799166 
L 411.511505 679.330612 
L 413.892173 665.714773 
L 414.924931 654.761049 
L 416.31427 646.781441 
L 417.543814 636.779434 
L 418.576571 627.412653 
L 418.536622 625.2668 
L 418.020244 623.560893 
" clip-path="url(#p080e3819b7)" style="fill: none; stroke: #4d59c1; stroke-width: 0.2"/>
    <path d="M 348.630191 693.422308 
L 333.746943 679.768312 
L 327.538562 673.775188 
L 309.280358 656.30759 
" clip-path="url(#p080e3819b7)" style="fill: none; stroke: #4d59c1; stroke-width: 0.2"/>
    <path d="M 602.593672 712.168429 
L 599.963099 713.262466 
L 580.707648 721.915459 
L 578.192336 722.837996 
L 571.915893 723.36548 
L 543.6793 725.782931 
L 521.889302 728.514629 
L 513.316528 729.587555 
L 505.837174 730.54825 
L 494.902966 731.80299 
L 472.016589 734.543666 
L 458.177935 735.852277 
L 441.656776 737.448199 
L 425.114902 738.862306 
L 413.948398 739.436928 
L 403.360415 739.401014 
L 400.171887 739.293273 
L 395.676877 739.154107 
L 391.781103 738.66478 
L 382.626848 736.451589 
L 366.117526 730.671704 
L 347.307433 724.718984 
L 339.209608 721.859343 
L 333.087044 716.892009 
L 329.44724 713.682209 
L 328.873157 713.11881 
L 294.286141 679.157776 
L 275.211556 656.723949 
" clip-path="url(#p080e3819b7)" style="fill: none; stroke: #4d59c1; stroke-width: 0.2"/>
    <path d="M 472.016589 734.543666 
L 471.930772 695.624276 
L 471.90266 654.770028 
L 472.123119 637.051032 
L 472.521131 630.252092 
" clip-path="url(#p080e3819b7)" style="fill: none; stroke: #4d59c1; stroke-width: 0.2"/>
    <path d="M 416.31427 646.781441 
L 423.55245 647.25281 
L 428.517971 647.564812 
" clip-path="url(#p080e3819b7)" style="fill: none; stroke: #4d59c1; stroke-width: 0.2"/>
    <path d="M 543.6793 725.782931 
L 545.295018 654.63984 
L 545.934203 634.067938 
L 543.186594 619.123288 
L 542.392398 607.843998 
" clip-path="url(#p080e3819b7)" style="fill: none; stroke: #4d59c1; stroke-width: 0.2"/>
    <path d="M 525.80647 568.953087 
L 521.759098 566.047107 
" clip-path="url(#p080e3819b7)" style="fill: none; stroke: #4d59c1; stroke-width: 0.2"/>
    <path d="M 425.114902 738.862306 
L 426.354803 728.314858 
L 427.872868 706.667785 
L 428.862717 692.452634 
L 429.129044 673.054666 
L 428.948533 656.749779 
L 428.517971 647.564812 
L 431.62808 644.10137 
L 438.42682 635.104951 
L 449.469038 619.498138 
L 455.560531 609.846291 
L 454.326549 591.37535 
L 453.000832 582.098353 
L 450.645316 571.939223 
L 448.291281 563.69475 
L 443.874689 549.118216 
L 441.886113 540.061192 
" clip-path="url(#p080e3819b7)" style="fill: none; stroke: #4d59c1; stroke-width: 0.2"/>
    <path d="M 521.889302 728.514629 
L 524.503747 679.171244 
L 525.826505 640.063306 
L 525.290891 624.27468 
L 525.132575 621.854985 
L 525.052676 620.981829 
L 523.624867 583.55062 
L 521.759098 566.047107 
L 520.806238 557.394114 
L 519.695062 554.934015 
L 516.996281 552.949775 
L 509.43555 550.164207 
" clip-path="url(#p080e3819b7)" style="fill: none; stroke: #4d59c1; stroke-width: 0.2"/>
    <path d="M 472.521131 630.252092 
L 463.818152 644.637833 
L 461.842892 646.521066 
L 459.120437 647.569301 
L 455.16548 647.495229 
L 431.62808 644.10137 
" clip-path="url(#p080e3819b7)" style="fill: none; stroke: #4d59c1; stroke-width: 0.2"/>
    <path d="M 494.902966 731.80299 
L 495.296539 699.803751 
L 495.771489 676.403633 
L 496.252357 650.684827 
L 496.598582 632.492218 
L 496.677001 628.323967 
L 497.307308 613.915779 
L 497.578074 610.548856 
L 496.400317 591.60879 
L 493.779954 567.793418 
L 490.844437 545.248499 
L 488.898769 531.794273 
L 488.227033 529.421715 
" clip-path="url(#p080e3819b7)" style="fill: none; stroke: #4d59c1; stroke-width: 0.2"/>
    <path d="M 472.521131 630.252092 
L 474.318839 629.053467 
L 482.980389 627.610179 
L 486.830295 628.932258 
L 496.677001 628.323967 
L 515.370206 625.823465 
L 525.290891 624.27468 
" clip-path="url(#p080e3819b7)" style="fill: none; stroke: #4d59c1; stroke-width: 0.2"/>
    <path d="M 371.497334 663.061638 
L 375.308771 665.865163 
L 381.676948 668.12998 
L 390.866714 671.122052 
L 398.384537 674.20391 
" clip-path="url(#p080e3819b7)" style="fill: none; stroke: #4d59c1; stroke-width: 0.2"/>
    <path d="M 333.087044 716.892009 
L 333.584188 716.140063 
L 348.630191 693.422308 
L 371.497334 663.061638 
L 387.016807 641.401097 
L 389.499568 638.031929 
L 399.167242 624.91664 
L 409.289153 608.59604 
" clip-path="url(#p080e3819b7)" style="fill: none; stroke: #4d59c1; stroke-width: 0.2"/>
    <path d="M 389.499568 638.031929 
L 392.911514 640.319193 
L 398.33571 642.851119 
L 407.463332 645.629953 
L 416.31427 646.781441 
" clip-path="url(#p080e3819b7)" style="fill: none; stroke: #4d59c1; stroke-width: 0.2"/>
    <path d="M 327.538562 673.775188 
L 351.422187 641.24173 
L 364.479614 631.199319 
L 372.099529 618.972898 
L 373.210705 613.417475 
L 376.227599 608.495033 
L 378.766585 605.478269 
L 378.731074 600.22138 
L 381.23159 589.227252 
L 385.91007 582.773983 
L 392.463197 576.36785 
" clip-path="url(#p080e3819b7)" style="fill: none; stroke: #4d59c1; stroke-width: 0.2"/>
    <path d="M 351.422187 641.24173 
L 351.506524 637.255292 
L 358.015263 629.554016 
L 362.658232 622.092914 
L 364.880584 614.432041 
L 370.353607 607.543316 
L 377.178979 593.729951 
" clip-path="url(#p080e3819b7)" style="fill: none; stroke: #4d59c1; stroke-width: 0.2"/>
    <path d="M 502.886862 520.268172 
L 500.170325 519.451132 
L 497.26588 520.054934 
L 493.978219 521.673302 
L 488.227033 529.421715 
L 484.312024 529.695558 
L 464.964838 533.980529 
L 463.665754 534.323955 
L 441.886113 540.061192 
L 415.491616 546.694032 
L 384.835884 553.09792 
L 381.080671 553.881291 
L 379.728321 554.361638 
L 372.285958 557.00804 
L 366.752272 563.625167 
L 356.405463 579.508067 
L 345.579266 596.353907 
L 330.660508 620.178257 
L 319.712983 638.346176 
L 312.976387 649.537829 
L 309.280358 656.30759 
L 308.759541 657.41643 
L 306.359637 662.534153 
L 299.381867 673.483388 
L 294.286141 679.157776 
" clip-path="url(#p080e3819b7)" style="fill: none; stroke: #4d59c1; stroke-width: 0.2"/>
    <path d="M 418.020244 623.560893 
L 410.320431 610.382754 
L 409.289153 608.59604 
L 392.463197 576.36785 
L 381.080671 553.881291 
" clip-path="url(#p080e3819b7)" style="fill: none; stroke: #4d59c1; stroke-width: 0.2"/>
    <path d="M 317.040835 641.039714 
L 317.018357 640.451444 
" clip-path="url(#p080e3819b7)" style="fill: none; stroke: #4d59c1; stroke-width: 0.2"/>
    <path d="M 376.28205 553.012556 
L 379.728321 554.361638 
" clip-path="url(#p080e3819b7)" style="fill: none; stroke: #4d59c1; stroke-width: 0.2"/>
    <path d="M 42.104217 648.555474 
L 45.709719 653.109012 
L 50.52728 657.306443 
L 52.956284 659.786205 
" clip-path="url(#p080e3819b7)" style="fill: none; stroke: #4d59c1; stroke-width: 0.2"/>
    <path d="M 56.07026 662.965254 
L 56.806682 663.717066 
" clip-path="url(#p080e3819b7)" style="fill: none; stroke: #4d59c1; stroke-width: 0.2"/>
    <path d="M 114.234208 643.677138 
L 117.9909 665.362369 
L 118.030929 665.573302 
" clip-path="url(#p080e3819b7)" style="fill: none; stroke: #4d59c1; stroke-width: 0.2"/>
    <path d="M 228.692854 626.240798 
L 212.08717 621.199922 
" clip-path="url(#p080e3819b7)" style="fill: none; stroke: #4d59c1; stroke-width: 0.2"/>
    <path d="M 192.35586 618.328998 
L 187.25303 618.252956 
" clip-path="url(#p080e3819b7)" style="fill: none; stroke: #4d59c1; stroke-width: 0.2"/>
    <path d="M 175.268847 618.901771 
L 169.295862 619.895435 
L 162.837429 621.186089 
L 157.442825 622.265749 
L 149.82291 625.744904 
L 142.044679 633.046638 
L 137.907731 637.652589 
L 134.266447 638.923042 
L 120.614223 641.461702 
L 114.234208 643.677138 
L 101.406118 648.130455 
L 61.09159 662.293979 
" clip-path="url(#p080e3819b7)" style="fill: none; stroke: #4d59c1; stroke-width: 0.2"/>
    <path d="M 162.837429 621.186089 
L 156.902955 620.366624 
" clip-path="url(#p080e3819b7)" style="fill: none; stroke: #4d59c1; stroke-width: 0.2"/>
    <path d="M 204.31344 254.296937 
L 204.497678 255.080259 
" clip-path="url(#p080e3819b7)" style="fill: none; stroke: #4d59c1; stroke-width: 0.2"/>
    <path d="M 204.643211 262.859423 
L 189.662489 273.861006 
" clip-path="url(#p080e3819b7)" style="fill: none; stroke: #4d59c1; stroke-width: 0.2"/>
    <path d="M 189.662489 273.861006 
L 208.833874 272.332984 
" clip-path="url(#p080e3819b7)" style="fill: none; stroke: #4d59c1; stroke-width: 0.2"/>
    <path d="M 204.31344 254.296937 
L 202.423997 256.413609 
L 197.835772 259.434862 
L 193.974029 261.147503 
L 191.476473 261.755794 
" clip-path="url(#p080e3819b7)" style="fill: none; stroke: #4d59c1; stroke-width: 0.2"/>
    <path d="M 235.064256 255.07755 
L 234.183507 255.019703 
L 232.687636 254.873803 
L 231.262786 255.255387 
L 228.54477 256.548286 
L 225.210321 256.933913 
" clip-path="url(#p080e3819b7)" style="fill: none; stroke: #4d59c1; stroke-width: 0.2"/>
    <path d="M 224.752156 256.951479 
L 218.78536 256.346271 
L 212.189325 255.32497 
L 206.892374 254.418146 
L 204.31344 254.296937 
" clip-path="url(#p080e3819b7)" style="fill: none; stroke: #4d59c1; stroke-width: 0.2"/>
    <path d="M 234.997727 249.9415 
L 233.14927 252.696526 
L 231.262786 255.255387 
" clip-path="url(#p080e3819b7)" style="fill: none; stroke: #4d59c1; stroke-width: 0.2"/>
    <path d="M 513.316528 729.587555 
L 512.732088 710.315285 
L 513.261783 701.399672 
L 514.156938 689.397713 
L 515.189695 673.478899 
L 516.142554 657.997785 
L 516.203218 642.096928 
L 515.965003 631.77843 
L 515.370206 625.823465 
L 515.370206 624.355487 
L 514.219081 594.187853 
L 514.219081 593.195733 
L 513.226272 579.303807 
L 511.259891 563.492735 
L 509.43555 550.164207 
L 507.251667 534.873886 
L 505.74396 523.920162 
L 505.030795 522.093045 
L 502.886862 520.268172 
" clip-path="url(#p080e3819b7)" style="fill: none; stroke: #4d59c1; stroke-width: 0.2"/>
    <path d="M 525.132575 621.854985 
L 543.186594 619.123288 
" clip-path="url(#p080e3819b7)" style="fill: none; stroke: #4d59c1; stroke-width: 0.2"/>
    <path d="M 477.300223 614.678949 
L 482.379673 614.975238 
L 488.153053 614.975238 
L 497.307308 613.915779 
" clip-path="url(#p080e3819b7)" style="fill: none; stroke: #4d59c1; stroke-width: 0.2"/>
    <path d="M 455.560531 609.846291 
L 474.773074 614.557739 
" clip-path="url(#p080e3819b7)" style="fill: none; stroke: #4d59c1; stroke-width: 0.2"/>
    <path d="M 418.020244 623.560893 
L 420.201167 613.884355 
L 421.583109 599.509837 
L 421.859793 587.209343 
L 420.892138 576.843708 
L 419.095909 564.817058 
L 417.162078 554.729755 
L 415.491616 546.694032 
" clip-path="url(#p080e3819b7)" style="fill: none; stroke: #4d59c1; stroke-width: 0.2"/>
    <path d="M 472.521131 630.252092 
L 471.247199 625.576557 
L 471.278271 623.601296 
L 474.773074 614.557739 
L 477.300223 614.678949 
L 478.978084 610.820455 
L 479.293238 607.817159 
L 479.084615 604.360451 
L 477.723387 597.552532 
L 475.62828 585.925423 
L 473.638225 574.82131 
L 471.858272 566.650909 
L 470.428983 560.22233 
L 467.987651 548.727653 
L 463.665754 534.323955 
" clip-path="url(#p080e3819b7)" style="fill: none; stroke: #4d59c1; stroke-width: 0.2"/>
    <path d="M 295.342235 125.122941 
L 279.290444 116.47305 
" clip-path="url(#p080e3819b7)" style="fill: none; stroke: #4d59c1; stroke-width: 0.2"/>
    <path d="M 354.122913 501.189597 
L 381.080671 553.881291 
" clip-path="url(#p080e3819b7)" style="fill: none; stroke: #4d59c1; stroke-width: 0.2"/>
    <path d="M 243.587813 204.713378 
L 253.919826 207.151031 
L 274.027524 212.538108 
L 285.15112 213.159867 
L 286.655348 211.965705 
" clip-path="url(#p080e3819b7)" style="fill: none; stroke: #4d59c1; stroke-width: 0.2"/>
    <path d="M 290.609589 205.804276 
L 295.03929 197.981355 
" clip-path="url(#p080e3819b7)" style="fill: none; stroke: #4d59c1; stroke-width: 0.2"/>
    <path d="M 277.238246 115.687434 
L 277.572634 117.925316 
L 277.346256 119.072315 
L 277.118398 119.510015 
L 269.65828 134.079814 
L 261.701017 151.136648 
L 256.306413 163.205946 
L 255.011767 166.085788 
L 252.452068 171.773644 
L 250.572982 177.760034 
L 249.241346 182.754304 
L 248.068027 187.149261 
L 245.731747 197.265743 
L 243.587813 204.713378 
L 242.433729 208.720017 
L 238.808721 224.717392 
L 236.975503 234.169468 
L 236.504052 236.791919 
" clip-path="url(#p080e3819b7)" style="fill: none; stroke: #4d59c1; stroke-width: 0.2"/>
    <path d="M 255.011767 166.085788 
L 261.382904 166.254134 
L 270.710272 170.052024 
L 277.275236 177.445788 
L 292.199912 188.980867 
L 293.271299 190.238467 
" clip-path="url(#p080e3819b7)" style="fill: none; stroke: #4d59c1; stroke-width: 0.2"/>
    <path d="M 277.118398 119.510015 
L 268.563379 115.528067 
L 205.59181 97.939259 
" clip-path="url(#p080e3819b7)" style="fill: none; stroke: #4d59c1; stroke-width: 0.2"/>
    <path d="M 269.65828 134.079814 
L 264.427911 132.465936 
L 214.889586 120.012809 
L 213.444022 118.300167 
L 212.482285 115.0971 
L 211.672946 111.50796 
L 210.835495 110.226285 
L 209.222737 109.909794 
L 205.790076 109.101732 
L 204.20247 107.873927 
L 203.857725 107.023218 
L 205.331401 98.311865 
L 205.59181 97.939259 
L 208.345337 81.46827 
" clip-path="url(#p080e3819b7)" style="fill: none; stroke: #4d59c1; stroke-width: 0.2"/>
    <path d="M 277.238246 115.687434 
L 279.290444 116.47305 
L 280.588049 115.566225 
L 281.317489 114.54717 
L 289.094242 99.954924 
L 292.945628 92.408526 
L 295.961043 87.488329 
L 296.137912 87.17909 
" clip-path="url(#p080e3819b7)" style="fill: none; stroke: #4d59c1; stroke-width: 0.2"/>
    <path d="M 208.345337 81.46827 
L 214.828923 81.365017 
L 219.273626 82.714031 
L 222.595318 83.876742 
L 245.746543 97.411774 
L 271.04762 111.642637 
L 277.238246 115.687434 
" clip-path="url(#p080e3819b7)" style="fill: none; stroke: #4d59c1; stroke-width: 0.2"/>
    <path d="M 289.094242 99.954924 
L 288.366281 98.307376 
L 287.229952 97.169356 
L 225.638845 61.462011 
L 215.161832 55.94699 
L 214.095043 55.558672 
L 212.436417 55.343189 
" clip-path="url(#p080e3819b7)" style="fill: none; stroke: #4d59c1; stroke-width: 0.2"/>
    <path d="M 168.291217 240.200751 
L 179.073027 236.470199 
L 187.379474 234.113353 
L 197.683374 231.713859 
L 200.700269 229.913677 
L 202.74211 227.464802 
L 204.20395 225.716246 
L 206.485486 225.092243 
L 210.544015 225.965398 
" clip-path="url(#p080e3819b7)" style="fill: none; stroke: #4d59c1; stroke-width: 0.2"/>
    <path d="M 171.257318 249.01643 
L 169.565148 245.392546 
L 168.291217 240.200751 
L 167.712695 231.114547 
L 168.103308 226.641028 
L 169.312137 223.150651 
L 171.651027 220.503676 
" clip-path="url(#p080e3819b7)" style="fill: none; stroke: #4d59c1; stroke-width: 0.2"/>
    <path d="M 171.93642 220.242054 
L 175.483529 217.965588 
L 180.025886 216.015018 
L 185.102377 213.646948 
L 191.739841 210.874848 
L 197.436282 208.192532 
L 203.006958 205.656117 
L 207.78457 203.840223 
L 211.683303 203.227443 
L 216.286324 203.476595 
L 223.963943 205.413698 
L 236.558257 208.428217 
L 242.433729 208.720017 
" clip-path="url(#p080e3819b7)" style="fill: none; stroke: #4d59c1; stroke-width: 0.2"/>
    <path d="M 204.31344 254.296937 
L 205.196758 250.321722 
L 206.790282 244.510413 
L 209.253808 235.103229 
L 210.544015 225.965398 
L 216.286324 203.476595 
L 219.389035 189.964009 
L 220.813885 182.197639 
" clip-path="url(#p080e3819b7)" style="fill: none; stroke: #4d59c1; stroke-width: 0.2"/>
    <path d="M 249.241346 182.754304 
L 236.300807 182.909182 
L 233.106361 182.123567 
L 224.989302 183.117931 
L 220.813885 182.197639 
" clip-path="url(#p080e3819b7)" style="fill: none; stroke: #4d59c1; stroke-width: 0.2"/>
    <path d="M 214.889586 120.012809 
L 212.93948 123.200163 
L 212.57254 125.215828 
L 212.186366 132.708354 
" clip-path="url(#p080e3819b7)" style="fill: none; stroke: #4d59c1; stroke-width: 0.2"/>
    <path d="M 261.701017 151.136648 
L 252.052577 147.632803 
L 224.057158 140.625114 
L 216.233058 135.377202 
L 212.403866 132.845276 
L 212.186366 132.708354 
L 201.986037 126.250595 
L 196.350259 123.988023 
L 195.752382 123.801561 
" clip-path="url(#p080e3819b7)" style="fill: none; stroke: #4d59c1; stroke-width: 0.2"/>
    <path d="M 203.857725 107.023218 
L 202.875274 107.348687 
L 200.781646 107.62253 
L 199.276898 112.318266 
L 198.651087 113.420883 
" clip-path="url(#p080e3819b7)" style="fill: none; stroke: #4d59c1; stroke-width: 0.2"/>
    <path d="M 208.345337 81.46827 
L 209.312992 76.247294 
L 210.501107 68.548262 
L 211.98662 58.60686 
L 212.436417 55.343189 
L 212.923204 50.104256 
L 213.508464 45.098052 
" clip-path="url(#p080e3819b7)" style="fill: none; stroke: #4d59c1; stroke-width: 0.2"/>
    <path d="M 207.906707 81.421957 
L 208.345337 81.46827 
" clip-path="url(#p080e3819b7)" style="fill: none; stroke: #4d59c1; stroke-width: 0.2"/>
   </g>
  </g>
 </g>
 <defs>
  <clipPath id="p080e3819b7">
   <rect x="7.2" y="7.2" width="630.195672" height="831.6"/>
  </clipPath>
 </defs>
</svg>
