<?xml version="1.0" encoding="utf-8" standalone="no"?>
<!DOCTYPE svg PUBLIC "-//W3C//DTD SVG 1.1//EN"
  "http://www.w3.org/Graphics/SVG/1.1/DTD/svg11.dtd">
<svg xmlns:xlink="http://www.w3.org/1999/xlink" width="647.717502pt" height="846pt" viewBox="0 0 647.717502 846" xmlns="http://www.w3.org/2000/svg" version="1.1">
 <metadata>
  <rdf:RDF xmlns:dc="http://purl.org/dc/elements/1.1/" xmlns:cc="http://creativecommons.org/ns#" xmlns:rdf="http://www.w3.org/1999/02/22-rdf-syntax-ns#">
   <cc:Work>
    <dc:type rdf:resource="http://purl.org/dc/dcmitype/StillImage"/>
    <dc:date>2025-03-16T14:30:03.070961</dc:date>
    <dc:format>image/svg+xml</dc:format>
    <dc:creator>
     <cc:Agent>
      <dc:title>Matplotlib v3.10.1, https://matplotlib.org/</dc:title>
     </cc:Agent>
    </dc:creator>
   </cc:Work>
  </rdf:RDF>
 </metadata>
 <defs>
  <style type="text/css">*{stroke-linejoin: round; stroke-linecap: butt}</style>
 </defs>
 <g id="figure_1">
  <g id="patch_1">
   <path d="M 0 846 
L 647.717502 846 
L 647.717502 0 
L 0 0 
z
" style="fill: #ffffff"/>
  </g>
  <g id="axes_1">
   <g id="PatchCollection_1">
    <path d="M 198.487946 45.871735 
L 206.544221 71.883008 
L 185.382927 79.452483 
L 179.364245 106.240738 
L 180.723244 114.587194 
L 178.198872 126.81585 
L 180.91687 129.53393 
L 193.925981 126.623635 
L 217.611647 207.378242 
L 226.541952 262.124283 
L 209.65128 266.006482 
L 181.888617 268.52964 
L 134.128225 272.606761 
L 79.572838 275.906901 
L 47.926805 279.596885 
L 39.772812 296.097583 
L 42.004031 357.449318 
L 35.987159 388.804705 
L 37.637501 427.150217 
L 49.86849 431.227338 
L 50.062116 453.459287 
L 80.834119 455.205465 
L 134.613194 457.244025 
L 169.948972 460.546872 
L 178.198872 460.836548 
L 182.956273 462.777647 
L 188.683611 468.506192 
L 190.91664 474.914256 
L 195.187262 492.097182 
L 199.653319 514.816437 
L 206.059252 542.776931 
L 211.980216 566.370628 
L 228.094576 568.311728 
L 237.996629 569.280924 
L 240.327375 558.795739 
L 253.721927 565.008881 
L 274.108719 575.399312 
L 300.318757 589.769404 
L 298.377071 595.303026 
L 314.587339 603.359807 
L 320.314678 592.390023 
L 328.857731 599.962206 
L 337.011724 605.593289 
L 348.370493 611.224372 
L 336.915816 623.360981 
L 335.555007 630.451273 
L 342.447719 645.985483 
L 348.757744 646.082944 
L 360.988733 640.546614 
L 368.755474 631.810313 
L 375.161407 626.663828 
L 388.364144 638.508054 
L 377.783497 650.937046 
L 394.480543 666.27904 
L 427.096514 692.008759 
L 459.325234 718.807842 
L 459.518859 725.410829 
L 452.141179 735.703799 
L 456.218175 742.888845 
L 470.779911 753.181816 
L 468.498023 756.435932 
L 466.120228 761.533687 
L 464.810088 764.687635 
L 465.828884 770.952215 
L 473.108847 776.391083 
L 477.672622 768.52381 
L 481.943244 770.952215 
L 487.670583 765.513346 
L 495.726858 771.436813 
L 499.027542 769.593175 
L 509.12322 776.001239 
L 510.579936 779.593762 
L 519.510241 779.304086 
L 528.829607 775.614102 
L 533.004321 776.001239 
L 540.866971 780.370743 
L 548.923246 784.060727 
L 576.903058 801 
L 587.074739 785.614689 
L 600.858352 791.053558 
L 604.159037 789.207212 
L 604.256754 785.614689 
L 600.858352 775.806317 
L 596.781356 770.562371 
L 604.061319 754.833239 
L 611.730343 739.686167 
L 609.303688 738.132204 
L 584.259024 736.773164 
L 579.890684 736.285859 
L 576.007313 735.606338 
L 574.356971 725.605751 
L 574.356971 720.361805 
L 575.71597 719.295148 
L 589.597301 722.110689 
L 591.247643 722.497826 
L 592.023955 712.399778 
L 590.373613 697.737303 
L 584.065398 683.85181 
L 574.356971 676.666765 
L 556.592269 663.753175 
L 547.468339 660.937633 
L 536.596349 661.132555 
L 527.470608 668.317601 
L 514.850558 665.014754 
L 509.027312 672.976781 
L 482.428213 656.66559 
L 470.003598 647.539445 
L 460.101546 634.333472 
L 452.238897 619.673705 
L 442.919531 628.507466 
L 435.930911 626.176523 
L 429.0382 631.905067 
L 412.147528 619.96338 
L 408.264157 612.001354 
L 410.012217 600.934109 
L 412.730214 582.874034 
L 415.350494 566.175706 
L 423.504487 568.019345 
L 433.600165 568.50665 
L 443.017248 566.952688 
L 445.054842 564.914127 
L 443.793561 543.748834 
L 448.744587 538.602349 
L 451.462584 532.776344 
L 452.626148 528.214625 
L 453.985147 510.446933 
L 457.383548 500.348885 
L 459.227516 491.320201 
L 465.537541 481.90438 
L 456.607236 475.788698 
L 451.364867 472.778235 
L 445.152559 458.603065 
L 434.280569 441.322679 
L 413.700152 442.876641 
L 407.487845 442.294582 
L 401.275537 433.363359 
L 399.721103 425.401332 
L 399.527478 412.005851 
L 398.55754 405.597787 
L 392.926109 395.017848 
L 409.42953 376.765558 
L 427.485575 363.66246 
L 437.581253 366.088158 
L 455.441863 363.370077 
L 464.761229 361.526439 
L 477.477187 370.262739 
L 493.204295 366.572756 
L 498.833916 362.300713 
L 508.540533 354.825991 
L 518.344868 356.185031 
L 524.461267 360.262152 
L 546.205248 366.572756 
L 555.137363 334.345633 
L 549.214589 324.539968 
L 543.099999 315.608745 
L 532.712978 295.128387 
L 534.167885 291.535864 
L 526.402953 277.16848 
L 517.763991 270.375986 
L 509.899532 255.621465 
L 500.581976 238.438539 
L 493.397921 231.935721 
L 500.969227 227.081619 
L 511.258531 215.822159 
L 517.37493 211.939961 
L 507.181535 189.421042 
L 506.113879 182.043782 
L 503.00863 174.376845 
L 499.610228 167.874027 
L 522.810925 162.437866 
L 528.635981 159.137726 
L 530.090888 156.517107 
L 605.226692 168.748469 
L 607.751064 159.040265 
L 564.454919 139.824193 
L 511.356249 128.369812 
L 464.136922 115.889382 
L 404.865755 100.222517 
L 318.955679 74.601089 
L 271.293004 64.216072 
L 235.959035 54.608036 
L 225.182953 57.228655 
L 219.261989 48.976953 
L 209.21517 45 
L 198.487946 45.871735 
" clip-path="url(#p993fd4e6cb)" style="fill: #f29888"/>
   </g>
   <g id="PatchCollection_2">
    <path d="M 424.838151 545.917343 
L 427.049465 545.806346 
L 427.608627 556.876297 
L 425.395504 556.987295 
L 424.838151 545.917343 
" clip-path="url(#p993fd4e6cb)" style="fill: #f29888"/>
    <path d="M 344.244638 513.189379 
L 364.727337 514.063821 
L 364.435994 518.043481 
L 343.855577 516.879363 
L 344.244638 513.189379 
" clip-path="url(#p993fd4e6cb)" style="fill: #f29888"/>
    <path d="M 354.436224 504.258156 
L 367.734868 504.547832 
L 367.734868 507.94814 
L 354.436224 507.94814 
L 354.436224 504.258156 
" clip-path="url(#p993fd4e6cb)" style="fill: #f29888"/>
    <path d="M 344.143301 495.724899 
L 346.598908 493.150303 
L 352.335295 498.624365 
L 353.439142 497.465662 
L 354.696804 498.667681 
L 351.139159 502.398274 
L 344.143301 495.724899 
" clip-path="url(#p993fd4e6cb)" style="fill: #f29888"/>
    <path d="M 85.913626 411.440036 
L 86.125347 414.342209 
L 83.71317 414.518181 
L 83.501448 411.616007 
L 85.913626 411.440036 
" clip-path="url(#p993fd4e6cb)" style="fill: #f29888"/>
    <path d="M 377.600729 265.960458 
L 385.197369 278.335305 
L 381.4841 280.614811 
L 373.887459 268.239964 
L 377.600729 265.960458 
" clip-path="url(#p993fd4e6cb)" style="fill: #f29888"/>
    <path d="M 275.033417 121.458199 
L 275.398953 122.754972 
L 274.257105 123.077135 
L 273.891569 121.780362 
L 275.033417 121.458199 
" clip-path="url(#p993fd4e6cb)" style="fill: #f29888"/>
    <path d="M 184.490801 122.459882 
L 183.135422 122.987796 
L 182.695693 121.864286 
L 184.051072 121.333665 
L 184.490801 122.459882 
" clip-path="url(#p993fd4e6cb)" style="fill: #f29888"/>
   </g>
   <g id="LineCollection_1">
    <path d="M 212.790593 566.468245 
L 206.929663 543.275065 
L 198.109743 500.208107 
L 193.649114 481.138227 
L 191.597044 472.36944 
L 191.175411 470.718016 
L 190.672346 469.229028 
L 190.265189 468.286904 
L 189.78203 467.51263 
L 188.676373 466.012813 
L 186.68221 464.082543 
L 185.178444 462.872401 
L 183.560675 461.591871 
L 182.277678 460.579359 
" clip-path="url(#p993fd4e6cb)" style="fill: none; stroke: #f29888; stroke-width: 0.2"/>
    <path d="M 240.106605 545.94983 
L 228.829268 543.819223 
L 223.693664 542.81754 
L 217.805272 542.441232 
L 214.548018 542.441232 
L 206.929663 543.275065 
" clip-path="url(#p993fd4e6cb)" style="fill: none; stroke: #f29888; stroke-width: 0.2"/>
    <path d="M 190.265189 468.286904 
L 192.246685 467.225662 
L 194.40914 466.234808 
L 200.641353 464.250392 
" clip-path="url(#p993fd4e6cb)" style="fill: none; stroke: #f29888; stroke-width: 0.2"/>
    <path d="M 182.277678 460.579359 
L 170.964149 451.631893 
L 151.590726 436.257411 
L 142.96986 429.635474 
L 140.626447 427.060877 
L 139.102775 424.897783 
" clip-path="url(#p993fd4e6cb)" style="fill: none; stroke: #f29888; stroke-width: 0.2"/>
    <path d="M 80.694781 424.153289 
L 81.719006 427.112315 
L 82.906095 429.083194 
L 84.205377 430.258141 
L 86.735178 430.861859 
L 88.785438 430.620913 
L 107.675702 429.001977 
L 133.79888 427.033805 
L 135.876284 426.45716 
L 139.102775 424.897783 
" clip-path="url(#p993fd4e6cb)" style="fill: none; stroke: #f29888; stroke-width: 0.2"/>
    <path d="M 77.097325 381.5601 
L 121.430362 377.664365 
" clip-path="url(#p993fd4e6cb)" style="fill: none; stroke: #f29888; stroke-width: 0.2"/>
    <path d="M 55.362392 355.7627 
L 75.15564 354.371173 
L 132.121394 349.49812 
" clip-path="url(#p993fd4e6cb)" style="fill: none; stroke: #f29888; stroke-width: 0.2"/>
    <path d="M 69.551353 281.004655 
L 71.476752 306.203753 
L 73.038424 326.659746 
L 75.15564 354.371173 
L 77.097325 381.5601 
L 80.694781 424.153289 
" clip-path="url(#p993fd4e6cb)" style="fill: none; stroke: #f29888; stroke-width: 0.2"/>
    <path d="M 139.102775 424.897783 
L 138.47304 422.347552 
L 138.114742 418.890392 
L 137.099564 396.742367 
L 132.121394 349.49812 
L 131.891577 345.30188 
L 130.425813 321.613429 
L 129.750837 310.700498 
L 128.86414 302.050829 
L 127.566667 289.102045 
L 126.63835 275.896072 
" clip-path="url(#p993fd4e6cb)" style="fill: none; stroke: #f29888; stroke-width: 0.2"/>
    <path d="M 378.954964 630.067042 
L 384.01571 625.897676 
L 390.895754 619.819896 
" clip-path="url(#p993fd4e6cb)" style="fill: none; stroke: #f29888; stroke-width: 0.2"/>
    <path d="M 293.97254 456.737769 
L 280.934476 471.032057 
L 273.945856 478.693579 
L 264.943168 486.314492 
L 258.94982 492.30564 
L 254.909016 497.02438 
L 252.670558 499.934675 
L 249.619597 505.343764 
L 247.375711 510.181622 
L 245.882803 515.019481 
L 240.106605 545.94983 
L 236.70249 569.154256 
" clip-path="url(#p993fd4e6cb)" style="fill: none; stroke: #f29888; stroke-width: 0.2"/>
    <path d="M 326.172306 581.284877 
L 285.706353 558.982539 
L 284.45412 557.853615 
L 284.329258 556.35109 
L 292.973649 541.564082 
L 293.976159 539.436183 
L 294.225882 538.055484 
L 292.597255 528.785855 
L 292.597255 526.528007 
L 293.849488 524.649175 
L 296.230903 523.271184 
L 300.344091 522.445472 
" clip-path="url(#p993fd4e6cb)" style="fill: none; stroke: #f29888; stroke-width: 0.2"/>
    <path d="M 321.977687 480.67258 
L 317.578584 481.425196 
L 314.069798 483.428562 
L 310.939215 485.182861 
L 308.432938 487.188935 
L 307.054034 488.815993 
L 306.053333 490.694825 
L 305.67694 492.825432 
L 304.924152 496.585805 
L 305.050823 500.218936 
L 304.799291 504.228376 
L 304.298035 507.4852 
L 302.669408 512.423226 
L 301.143928 516.516591 
" clip-path="url(#p993fd4e6cb)" style="fill: none; stroke: #f29888; stroke-width: 0.2"/>
    <path d="M 193.649114 481.138227 
L 198.363085 480.342295 
L 201.951493 479.0374 
L 209.347269 476.31932 
L 219.897153 473.273662 
L 227.075779 471.641189 
L 230.774572 470.880451 
L 232.13719 470.27132 
L 233.70972 469.307538 
L 234.840711 469.036813 
L 236.063991 469.296709 
L 236.867447 469.767771 
L 238.027391 471.297368 
L 239.592683 474.286174 
L 241.371506 476.562972 
L 242.012099 478.200859 
L 242.582118 481.189665 
L 243.434433 483.252591 
L 244.574472 484.817382 
L 245.712702 485.459001 
L 246.566826 486.598754 
L 247.491524 489.089425 
L 248.629754 491.650485 
L 250.195045 493.572634 
L 254.909016 497.02438 
" clip-path="url(#p993fd4e6cb)" style="fill: none; stroke: #f29888; stroke-width: 0.2"/>
    <path d="M 293.97254 456.737769 
L 295.876224 459.964813 
L 298.051346 463.010471 
L 299.971316 464.632115 
L 307.146323 469.448315 
L 315.919194 475.447585 
L 321.977687 480.67258 
L 324.4532 482.52434 
" clip-path="url(#p993fd4e6cb)" style="fill: none; stroke: #f29888; stroke-width: 0.2"/>
    <path d="M 280.934476 471.032057 
L 270.650601 469.036813 
L 262.453178 467.315001 
L 255.650946 465.019252 
L 249.420542 461.98713 
L 246.552349 460.265318 
L 244.174554 460.018958 
L 242.126103 460.511678 
L 240.403377 461.98713 
L 236.445814 466.389121 
L 235.626071 467.485558 
L 234.840711 469.036813 
" clip-path="url(#p993fd4e6cb)" style="fill: none; stroke: #f29888; stroke-width: 0.2"/>
    <path d="M 364.624191 370.55783 
L 359.586304 376.373006 
L 315.767189 426.974245 
L 297.582663 451.244756 
L 293.97254 456.737769 
" clip-path="url(#p993fd4e6cb)" style="fill: none; stroke: #f29888; stroke-width: 0.2"/>
    <path d="M 315.767189 426.974245 
L 310.376433 425.141436 
L 304.694335 417.728981 
L 301.48232 411.491474 
L 301.111355 404.758539 
L 303.27381 397.841511 
L 322.278078 375.910066 
L 325.160748 374.599756 
L 344.901517 371.018063 
L 359.586304 376.373006 
" clip-path="url(#p993fd4e6cb)" style="fill: none; stroke: #f29888; stroke-width: 0.2"/>
    <path d="M 605.840333 166.388536 
L 585.276011 163.371868 
L 529.368864 155.79427 
L 467.853811 147.141894 
L 423.292765 140.972068 
L 379.513461 134.913239 
L 377.729209 134.637099 
L 355.10577 131.623928 
L 340.668896 129.431055 
L 328.676773 127.609074 
L 326.526985 127.281497 
L 277.606648 120.486295 
L 272.255703 119.809483 
L 267.134576 119.021672 
L 256.389257 117.49749 
L 245.008773 115.69446 
L 233.416567 114.730679 
L 222.83773 114.622389 
L 221.111385 114.917479 
L 220.582986 115.009526 
L 218.199762 115.496831 
L 200.464014 119.760752 
L 193.661781 122.17562 
L 192.995854 122.419273 
L 181.906713 126.477443 
L 179.030256 127.647259 
" clip-path="url(#p993fd4e6cb)" style="fill: none; stroke: #f29888; stroke-width: 0.5"/>
    <path d="M 73.038424 326.659746 
L 88.86506 325.08954 
L 130.425813 321.613429 
" clip-path="url(#p993fd4e6cb)" style="fill: none; stroke: #f29888; stroke-width: 0.2"/>
    <path d="M 50.5688 282.312258 
L 48.064333 284.234406 
L 45.599678 290.434013 
L 44.486783 306.569232 
L 45.360813 337.253221 
L 46.951438 351.799284 
L 50.369746 355.854747 
L 55.362392 355.7627 
" clip-path="url(#p993fd4e6cb)" style="fill: none; stroke: #f29888; stroke-width: 0.2"/>
    <path d="M 71.476752 306.203753 
L 128.86414 302.050829 
" clip-path="url(#p993fd4e6cb)" style="fill: none; stroke: #f29888; stroke-width: 0.2"/>
    <path d="M 168.447016 286.175506 
L 169.844016 308.139438 
" clip-path="url(#p993fd4e6cb)" style="fill: none; stroke: #f29888; stroke-width: 0.2"/>
    <path d="M 186.977172 272.000337 
L 188.660087 304.43321 
L 188.153403 306.209167 
L 186.209908 307.05383 
L 169.844016 308.139438 
L 149.279885 309.503893 
L 129.750837 310.700498 
" clip-path="url(#p993fd4e6cb)" style="fill: none; stroke: #f29888; stroke-width: 0.2"/>
    <path d="M 127.566667 289.102045 
L 166.603048 286.351477 
L 168.447016 286.175506 
" clip-path="url(#p993fd4e6cb)" style="fill: none; stroke: #f29888; stroke-width: 0.2"/>
    <path d="M 235.157389 267.955703 
L 237.567757 301.349651 
L 236.887353 302.806152 
L 208.348378 304.165192 
L 208.057035 302.61123 
L 206.774039 270.338084 
" clip-path="url(#p993fd4e6cb)" style="fill: none; stroke: #f29888; stroke-width: 0.2"/>
    <path d="M 265.710432 259.146306 
L 251.901484 266.07687 
L 246.489014 267.005457 
L 235.157389 267.955703 
L 206.774039 270.338084 
L 186.977172 272.000337 
L 126.63835 275.896072 
L 69.551353 281.004655 
L 50.5688 282.312258 
" clip-path="url(#p993fd4e6cb)" style="fill: none; stroke: #f29888; stroke-width: 0.2"/>
    <path d="M 126.63835 275.896072 
L 126.408327 273.07375 
" clip-path="url(#p993fd4e6cb)" style="fill: none; stroke: #f29888; stroke-width: 0.2"/>
    <path d="M 292.694972 268.976337 
L 293.907395 271.458886 
L 292.979077 275.481862 
L 280.290263 303.539817 
L 273.276309 319.01176 
L 271.729114 321.900397 
L 252.335785 351.609776 
L 222.993354 399.287184 
L 192.601364 442.045515 
L 185.867896 454.650478 
L 182.277678 460.579359 
" clip-path="url(#p993fd4e6cb)" style="fill: none; stroke: #f29888; stroke-width: 0.2"/>
    <path d="M 183.560675 461.591871 
L 185.439024 461.559384 
L 187.621385 461.559384 
L 190.451576 461.640602 
L 191.785241 461.759721 
L 192.916232 462.043982 
L 195.382697 462.931961 
L 198.089837 463.782038 
L 200.641353 464.250392 
L 204.267763 464.391169 
L 215.695296 464.791842 
L 221.598164 464.05547 
L 225.036376 463.137712 
L 228.474589 461.727234 
L 230.680474 460.005422 
L 232.667399 457.931667 
L 253.119335 429.440551 
L 257.64149 421.781737 
L 279.305849 394.500763 
L 290.465563 379.692097 
L 299.656448 369.992014 
L 307.461191 359.414782 
L 314.755631 349.20303 
L 316.360733 345.846038 
L 318.401946 341.324927 
L 321.684534 337.020397 
L 324.310243 331.695234 
L 326.499841 321.702768 
L 327.448064 307.478868 
L 327.301488 300.112437 
L 325.987728 290.848222 
L 324.138332 277.117042 
L 321.507194 267.419667 
L 318.825389 260.456616 
L 315.526514 257.161891 
" clip-path="url(#p993fd4e6cb)" style="fill: none; stroke: #f29888; stroke-width: 0.2"/>
    <path d="M 327.176626 255.247864 
L 322.287126 255.499638 
L 315.526514 257.161891 
L 305.02187 263.361497 
L 292.694972 268.976337 
L 271.83407 275.614517 
" clip-path="url(#p993fd4e6cb)" style="fill: none; stroke: #f29888; stroke-width: 0.2"/>
    <path d="M 330.383212 261.057626 
L 334.384206 255.191012 
" clip-path="url(#p993fd4e6cb)" style="fill: none; stroke: #f29888; stroke-width: 0.2"/>
    <path d="M 334.384206 255.191012 
L 327.176626 255.247864 
" clip-path="url(#p993fd4e6cb)" style="fill: none; stroke: #f29888; stroke-width: 0.2"/>
    <path d="M 396.990439 351.834478 
L 395.796112 347.779015 
L 392.598574 343.961791 
L 386.512938 339.630188 
L 380.890556 334.730063 
L 379.808423 331.170027 
L 373.308392 323.846911 
L 368.047926 318.946786 
L 366.218435 313.304874 
L 364.7581 307.687327 
L 358.777419 295.288115 
L 356.80859 291.349064 
L 351.993283 287.702396 
L 348.270965 281.96573 
L 341.854175 274.209454 
L 335.582151 267.936752 
L 331.35134 262.830876 
L 330.383212 261.057626 
L 327.176626 255.247864 
L 324.27586 251.086818 
L 313.260913 222.349343 
L 304.36318 197.188147 
L 302.611502 190.842349 
L 300.715056 188.362507 
L 292.034474 165.096387 
L 283.428085 141.248208 
L 281.531639 135.338278 
L 281.240296 130.890263 
L 282.39843 129.284863 
L 283.645235 128.367105 
L 285.130905 127.687585 
L 286.967634 127.617196 
L 296.484245 128.191133 
L 328.895732 131.529175 
" clip-path="url(#p993fd4e6cb)" style="fill: none; stroke: #f29888; stroke-width: 0.2"/>
    <path d="M 222.83773 114.622389 
L 241.201405 184.902639 
L 254.185181 226.031205 
L 265.710432 259.146306 
L 270.379163 271.399327 
L 271.83407 275.614517 
L 271.473962 279.494009 
L 270.160203 286.059094 
L 255.061021 313.849031 
" clip-path="url(#p993fd4e6cb)" style="fill: none; stroke: #f29888; stroke-width: 0.2"/>
    <path d="M 315.526514 257.161891 
L 315.843192 252.085794 
L 313.88341 245.897017 
L 309.757555 231.662288 
L 306.455061 224.856258 
L 303.257524 216.498972 
L 302.22606 208.558603 
L 300.163132 200.924154 
L 297.584473 194.015248 
L 296.140423 191.743864 
L 294.283789 185.555087 
L 289.332762 172.971782 
L 283.451609 158.016924 
L 279.061555 146.370328 
L 275.547339 136.383277 
L 274.36568 133.575857 
L 271.636825 128.727169 
L 269.82543 126.144451 
L 268.421191 122.882213 
L 267.134576 119.021672 
" clip-path="url(#p993fd4e6cb)" style="fill: none; stroke: #f29888; stroke-width: 0.2"/>
    <path d="M 340.668896 129.431055 
L 341.35111 111.130034 
L 340.980145 109.925307 
L 336.63533 107.870503 
L 334.208676 106.771359 
" clip-path="url(#p993fd4e6cb)" style="fill: none; stroke: #f29888; stroke-width: 0.2"/>
    <path d="M 310.982645 74.352021 
L 326.526985 127.281497 
" clip-path="url(#p993fd4e6cb)" style="fill: none; stroke: #f29888; stroke-width: 0.2"/>
    <path d="M 277.606648 120.486295 
L 277.338829 118.588512 
L 275.464098 112.846432 
L 271.39615 102.331466 
L 262.771665 84.025031 
L 254.400522 66.400824 
" clip-path="url(#p993fd4e6cb)" style="fill: none; stroke: #f29888; stroke-width: 0.2"/>
    <path d="M 256.389257 117.49749 
L 257.690349 115.318152 
L 259.016775 113.907674 
L 260.886077 112.797701 
L 262.230599 111.408881 
L 263.025007 109.987574 
L 263.271111 108.67185 
L 263.151678 107.234299 
L 262.208884 103.276297 
L 260.252722 97.90511 
L 249.25768 72.998396 
L 237.077359 55.439162 
" clip-path="url(#p993fd4e6cb)" style="fill: none; stroke: #f29888; stroke-width: 0.2"/>
    <path d="M 192.995854 122.419273 
L 187.570716 118.31508 
L 185.419119 117.646389 
L 182.748171 118.612877 
L 182.080433 119.42776 
L 181.635275 121.431126 
L 181.906713 126.477443 
" clip-path="url(#p993fd4e6cb)" style="fill: none; stroke: #f29888; stroke-width: 0.2"/>
    <path d="M 199.570055 45.783799 
L 216.924004 97.593776 
L 219.69267 108.658313 
L 220.899664 114.105303 
L 221.111385 114.917479 
" clip-path="url(#p993fd4e6cb)" style="fill: none; stroke: #f29888; stroke-width: 0.2"/>
    <path d="M 222.83773 114.622389 
L 220.899664 114.105303 
L 215.959495 112.786872 
L 209.634993 111.625461 
L 196.307395 109.689776 
L 179.562764 107.459961 
" clip-path="url(#p993fd4e6cb)" style="fill: none; stroke: #f29888; stroke-width: 0.2"/>
    <path d="M 549.808123 784.596441 
L 562.594665 766.249719 
L 569.306418 755.832215 
L 571.421823 751.278618 
L 572.728344 748.1734 
L 574.66822 740.950453 
L 576.331229 737.912917 
L 578.388728 736.131545 
L 578.635648 736.06625 
" clip-path="url(#p993fd4e6cb)" style="fill: none; stroke: #f29888; stroke-width: 0.2"/>
    <path d="M 466.849104 771.714422 
L 466.740916 771.528859 
" clip-path="url(#p993fd4e6cb)" style="fill: none; stroke: #f29888; stroke-width: 0.2"/>
    <path d="M 466.729387 771.624982 
L 466.740916 771.528859 
L 466.143752 767.825339 
L 466.979781 763.404397 
L 470.204462 756.119184 
L 478.684181 741.543341 
L 482.147727 733.776236 
L 482.580218 731.80265 
L 482.983756 729.953597 
L 483.461487 725.89272 
L 484.297515 721.471778 
L 485.252976 717.410901 
L 484.894678 714.901278 
L 482.147727 709.646503 
L 480.236805 705.34468 
L 479.878507 702.239463 
L 479.99794 699.84896 
L 480.356238 698.774181 
L 482.229159 696.148147 
" clip-path="url(#p993fd4e6cb)" style="fill: none; stroke: #f29888; stroke-width: 0.2"/>
    <path d="M 532.388694 775.94415 
L 533.744442 775.592444 
L 535.297066 774.27672 
L 538.521748 770.096723 
L 540.671535 766.631441 
L 542.821323 761.25484 
L 545.926572 751.219058 
L 548.114361 742.880723 
" clip-path="url(#p993fd4e6cb)" style="fill: none; stroke: #f29888; stroke-width: 0.2"/>
    <path d="M 482.580218 731.80265 
L 485.611274 727.68492 
L 488.59709 724.579703 
L 491.105176 723.02574 
L 495.524184 722.070081 
L 502.09298 720.158761 
L 504.601066 719.679577 
L 506.264075 718.848451 
" clip-path="url(#p993fd4e6cb)" style="fill: none; stroke: #f29888; stroke-width: 0.2"/>
    <path d="M 575.971122 680.844054 
L 574.069247 684.490722 
L 558.222706 712.386242 
L 556.002345 716.983155 
L 553.309681 726.336709 
L 548.114361 742.880723 
" clip-path="url(#p993fd4e6cb)" style="fill: none; stroke: #f29888; stroke-width: 0.2"/>
    <path d="M 512.630197 725.085959 
L 518.129527 716.666406 
L 528.746366 694.318045 
L 539.046527 677.514134 
L 547.604058 664.359599 
L 549.505932 662.616129 
" clip-path="url(#p993fd4e6cb)" style="fill: none; stroke: #f29888; stroke-width: 0.2"/>
    <path d="M 549.505932 662.616129 
L 551.141823 662.071229 
" clip-path="url(#p993fd4e6cb)" style="fill: none; stroke: #f29888; stroke-width: 0.2"/>
    <path d="M 555.07811 663.285922 
L 562.976487 669.430281 
L 573.75257 677.990611 
L 575.652635 679.417332 
L 575.971122 680.844054 
" clip-path="url(#p993fd4e6cb)" style="fill: none; stroke: #f29888; stroke-width: 0.2"/>
    <path d="M 571.421823 751.278618 
L 548.114361 742.880723 
L 524.417837 732.609411 
L 512.630197 725.085959 
L 506.264075 718.848451 
L 500.524069 713.22549 
L 486.935891 700.127807 
L 482.229159 696.148147 
L 464.578461 681.223069 
L 439.749137 658.858464 
L 420.355808 643.045407 
L 401.923369 629.482077 
L 390.895754 619.819896 
L 380.682453 611.792895 
L 369.638552 600.530729 
L 361.014067 589.996813 
L 354.553847 579.062224 
L 349.302429 572.004419 
L 333.763518 553.595108 
L 318.570237 539.758346 
L 308.130738 530.862317 
L 302.213393 526.346621 
L 300.843536 524.871169 
L 300.344091 522.445472 
L 300.631815 520.341937 
L 301.143928 516.516591 
L 299.783119 512.712902 
L 296.981881 508.492297 
L 294.298265 503.944115 
L 292.544777 500.440931 
L 291.010248 498.24535 
L 289.620487 496.902553 
L 286.652766 495.03455 
L 279.450615 490.185862 
L 277.865418 487.722263 
L 276.453942 484.901307 
L 273.945856 478.693579 
" clip-path="url(#p993fd4e6cb)" style="fill: none; stroke: #f29888; stroke-width: 0.2"/>
    <path d="M 412.788121 544.471671 
L 415.75946 545.440867 
L 420.399238 545.034779 
" clip-path="url(#p993fd4e6cb)" style="fill: none; stroke: #f29888; stroke-width: 0.2"/>
    <path d="M 374.482813 505.874385 
L 377.928264 505.950188 
L 382.606043 505.961017 
L 392.126273 506.050356 
L 401.297252 505.52515 
L 410.059266 505.192158 
L 448.107613 505.295033 
L 450.821991 504.301472 
" clip-path="url(#p993fd4e6cb)" style="fill: none; stroke: #f29888; stroke-width: 0.2"/>
    <path d="M 364.624191 370.55783 
L 371.536808 376.012942 
L 378.766102 383.368544 
L 386.250548 391.742073 
L 393.18307 400.722027 
L 394.914844 403.637737 
L 396.32813 407.186944 
L 396.907198 411.713468 
L 397.327022 416.239993 
L 396.534423 433.726131 
L 396.842053 440.705425 
L 397.645509 444.224852 
L 400.672945 452.441361 
L 407.589181 470.663871 
L 409.380671 477.705432 
L 409.936214 495.678876 
L 410.059266 505.192158 
L 411.412836 534.479205 
L 412.788121 544.471671 
L 414.004162 556.567671 
L 413.83949 564.042392 
L 412.679546 574.863277 
L 409.344479 593.148054 
L 406.626482 605.133056 
L 396.744335 613.842285 
L 390.895754 619.819896 
" clip-path="url(#p993fd4e6cb)" style="fill: none; stroke: #f29888; stroke-width: 0.2"/>
    <path d="M 409.380671 477.705432 
L 415.185822 477.04757 
L 431.868391 476.349099 
L 444.010711 476.349099 
L 451.173051 476.435731 
L 453.530941 478.008645 
L 454.927941 487.094181 
L 452.394521 488.664387 
L 451.782881 494.517465 
L 450.821991 504.301472 
" clip-path="url(#p993fd4e6cb)" style="fill: none; stroke: #f29888; stroke-width: 0.2"/>
    <path d="M 396.534423 433.726131 
L 386.011683 449.444433 
L 356.334479 498.943821 
L 348.889844 507.271327 
L 338.021473 517.220476 
" clip-path="url(#p993fd4e6cb)" style="fill: none; stroke: #f29888; stroke-width: 0.2"/>
    <path d="M 324.4532 482.52434 
L 326.706134 479.879355 
L 332.127652 473.663506 
L 336.439895 467.474729 
L 345.569254 450.27556 
L 356.915356 431.809397 
L 371.084411 412.690786 
L 386.250548 391.742073 
" clip-path="url(#p993fd4e6cb)" style="fill: none; stroke: #f29888; stroke-width: 0.2"/>
    <path d="M 423.893548 352.687262 
L 424.474425 355.657117 
L 425.788184 358.524097 
L 428.296269 361.629314 
L 430.804355 363.299688 
L 433.551306 364.255348 
L 437.014853 364.496294 
" clip-path="url(#p993fd4e6cb)" style="fill: none; stroke: #f29888; stroke-width: 0.2"/>
    <path d="M 380.132339 243.046281 
L 380.103386 244.659803 
L 380.430921 246.037794 
L 381.491338 247.96265 
L 385.85063 252.083087 
L 387.938891 254.441103 
L 389.907721 257.037357 
L 399.446046 273.088652 
L 401.100007 275.105554 
L 403.112267 276.169504 
L 405.381487 276.442936 
L 407.524036 275.812147 
L 413.526432 271.978679 
L 414.939718 272.333329 
L 416.609966 273.657175 
L 419.4293 278.930901 
L 421.794428 283.717321 
L 424.159557 288.027266 
L 430.514821 297.619058 
L 437.051045 316.948834 
L 437.745925 318.397214 
L 449.044978 341.942181 
" clip-path="url(#p993fd4e6cb)" style="fill: none; stroke: #f29888; stroke-width: 0.2"/>
    <path d="M 437.014853 364.496294 
L 461.020815 360.911893 
L 464.723228 359.35793 
L 473.202946 355.29976 
L 530.17232 323.170098 
L 540.324095 317.557966 
L 541.637854 316.721425 
" clip-path="url(#p993fd4e6cb)" style="fill: none; stroke: #f29888; stroke-width: 0.2"/>
    <path d="M 533.399507 293.433177 
L 531.493317 294.781859 
L 449.044978 341.942181 
L 436.904468 349.138056 
L 431.96249 351.173909 
L 428.574946 352.254102 
L 423.893548 352.687262 
L 396.990439 351.834478 
L 391.69921 351.791162 
L 388.718823 352.340734 
L 385.258895 353.610435 
L 376.554788 359.441855 
L 364.624191 370.55783 
" clip-path="url(#p993fd4e6cb)" style="fill: none; stroke: #f29888; stroke-width: 0.2"/>
    <path d="M 541.637854 316.721425 
L 541.518421 315.408408 
L 531.493317 294.781859 
" clip-path="url(#p993fd4e6cb)" style="fill: none; stroke: #f29888; stroke-width: 0.2"/>
    <path d="M 517.284451 272.720466 
L 437.745925 318.397214 
" clip-path="url(#p993fd4e6cb)" style="fill: none; stroke: #f29888; stroke-width: 0.2"/>
    <path d="M 430.514821 297.619058 
L 506.046924 252.348397 
" clip-path="url(#p993fd4e6cb)" style="fill: none; stroke: #f29888; stroke-width: 0.2"/>
    <path d="M 533.820894 292.392669 
L 525.275581 278.145798 
L 521.931467 275.278818 
L 519.423381 273.727563 
L 517.284451 272.720466 
L 515.720969 269.666686 
L 508.435577 256.171037 
L 506.046924 252.348397 
L 502.941676 245.899724 
L 501.030753 242.675388 
L 499.000398 240.168473 
L 495.297986 237.661558 
L 491.356709 235.988476 
L 489.087488 235.988476 
L 461.140248 240.644949 
L 459.851823 240.996892 
" clip-path="url(#p993fd4e6cb)" style="fill: none; stroke: #f29888; stroke-width: 0.2"/>
    <path d="M 458.147194 242.174546 
L 455.765779 240.764068 
L 453.735424 240.049354 
L 450.988473 239.689289 
L 437.490774 238.005379 
" clip-path="url(#p993fd4e6cb)" style="fill: none; stroke: #f29888; stroke-width: 0.2"/>
    <path d="M 494.14528 165.618886 
L 495.976581 165.88149 
L 497.265005 166.761346 
L 499.367744 169.341357 
L 502.149077 173.884125 
L 504.389344 179.176802 
L 505.337567 183.448845 
L 505.609005 186.502625 
L 504.999174 189.553697 
L 504.525063 190.977712 
L 503.909804 192.147244 
" clip-path="url(#p993fd4e6cb)" style="fill: none; stroke: #f29888; stroke-width: 0.2"/>
    <path d="M 365.344406 252.361934 
L 362.456307 256.693536 
L 359.361916 262.985189 
L 358.225496 266.699538 
L 354.615373 272.474106 
L 348.270965 281.96573 
" clip-path="url(#p993fd4e6cb)" style="fill: none; stroke: #f29888; stroke-width: 0.2"/>
    <path d="M 413.526432 271.978679 
L 434.372858 258.615685 
L 458.147194 242.174546 
L 459.851823 240.996892 
" clip-path="url(#p993fd4e6cb)" style="fill: none; stroke: #f29888; stroke-width: 0.2"/>
    <path d="M 380.430921 246.037794 
L 376.987279 247.873311 
L 368.954529 251.639098 
L 365.344406 252.361934 
L 359.86498 250.583269 
L 357.709764 249.884799 
L 351.727274 250.193425 
L 334.384206 255.191012 
" clip-path="url(#p993fd4e6cb)" style="fill: none; stroke: #f29888; stroke-width: 0.2"/>
    <path d="M 503.909804 192.147244 
L 437.490774 238.005379 
L 435.529183 239.359004 
L 421.682234 242.388419 
L 411.778372 246.016136 
L 398.125049 250.309837 
L 385.85063 252.083087 
" clip-path="url(#p993fd4e6cb)" style="fill: none; stroke: #f29888; stroke-width: 0.2"/>
    <path d="M 494.14528 165.618886 
L 490.377723 168.041876 
L 488.106693 169.501085 
L 434.97545 205.326145 
L 380.132339 243.046281 
" clip-path="url(#p993fd4e6cb)" style="fill: none; stroke: #f29888; stroke-width: 0.2"/>
    <path d="M 328.676773 127.609074 
L 328.895732 131.529175 
L 337.560028 163.36916 
L 341.57188 177.885443 
L 343.906245 186.053221 
L 344.051012 193.127269 
L 343.102789 203.631406 
L 343.321749 212.819817 
L 346.750914 219.238711 
L 348.938703 226.458951 
L 350.324845 231.564827 
L 356.379719 242.285543 
L 359.86498 250.583269 
" clip-path="url(#p993fd4e6cb)" style="fill: none; stroke: #f29888; stroke-width: 0.2"/>
    <path d="M 379.513461 134.913239 
L 377.805212 151.887706 
L 377.02709 199.270023 
L 377.02709 205.669966 
L 377.02709 216.877987 
L 378.581524 225.811918 
L 380.264439 232.931989 
L 380.132339 243.046281 
" clip-path="url(#p993fd4e6cb)" style="fill: none; stroke: #f29888; stroke-width: 0.2"/>
    <path d="M 377.02709 205.669966 
L 385.819867 203.812791 
L 397.064632 197.209805 
L 467.415891 151.931022 
L 467.853811 147.141894 
" clip-path="url(#p993fd4e6cb)" style="fill: none; stroke: #f29888; stroke-width: 0.2"/>
    <path d="M 423.292765 140.972068 
L 427.058513 122.830775 
" clip-path="url(#p993fd4e6cb)" style="fill: none; stroke: #f29888; stroke-width: 0.2"/>
    <path d="M 355.10577 131.623928 
L 357.16146 88.359341 
" clip-path="url(#p993fd4e6cb)" style="fill: none; stroke: #f29888; stroke-width: 0.2"/>
    <path d="M 467.415891 151.931022 
L 479.42792 156.300526 
L 482.428213 158.157701 
L 485.189641 160.967828 
L 490.377723 168.041876 
" clip-path="url(#p993fd4e6cb)" style="fill: none; stroke: #f29888; stroke-width: 0.2"/>
    <path d="M 582.769735 151.59803 
L 543.299054 144.058335 
L 479.218008 132.41986 
L 427.058513 122.830775 
L 420.124181 121.55566 
L 382.157265 113.090084 
" clip-path="url(#p993fd4e6cb)" style="fill: none; stroke: #f29888; stroke-width: 0.2"/>
    <path d="M 386.947717 94.878724 
L 383.547027 106.232616 
L 382.157265 113.090084 
L 381.022655 118.550611 
L 377.729209 134.637099 
" clip-path="url(#p993fd4e6cb)" style="fill: none; stroke: #f29888; stroke-width: 0.2"/>
   </g>
   <g id="LineCollection_2">
    <path d="M 190.018774 472.337675 
L 191.597044 472.36944 
" clip-path="url(#p993fd4e6cb)" style="fill: none; stroke-dasharray: 3.7,1.6; stroke-dashoffset: 0; stroke: #f29888"/>
    <path d="M 241.576494 56.135539 
L 247.583813 63.96159 
L 253.108478 72.270145 
L 272.255703 119.809483 
L 278.614587 138.730464 
L 305.166636 209.03508 
L 322.287126 255.499638 
L 330.895325 280.452376 
L 333.365409 291.817418 
L 334.105529 300.339846 
L 333.736374 313.185755 
L 328.917447 331.714184 
L 322.124263 345.180054 
L 317.430198 352.838868 
L 301.124022 372.848165 
L 266.034348 416.532376 
L 259.110873 426.700813 
L 248.477748 444.92603 
L 243.999024 451.317851 
L 237.906149 457.384802 
L 231.581648 462.057518 
L 225.258955 465.72043 
L 218.939883 468.541386 
L 212.785482 470.374195 
L 203.920322 471.914621 
L 191.597044 472.36944 
" clip-path="url(#p993fd4e6cb)" style="fill: none; stroke-dasharray: 3.7,1.6; stroke-dashoffset: 0; stroke: #f29888"/>
   </g>
  </g>
 </g>
 <defs>
  <clipPath id="p993fd4e6cb">
   <rect x="7.2" y="7.2" width="633.317502" height="831.6"/>
  </clipPath>
 </defs>
</svg>
