<?xml version="1.0" encoding="utf-8" standalone="no"?>
<!DOCTYPE svg PUBLIC "-//W3C//DTD SVG 1.1//EN"
  "http://www.w3.org/Graphics/SVG/1.1/DTD/svg11.dtd">
<svg xmlns:xlink="http://www.w3.org/1999/xlink" width="851.4pt" height="720.161291pt" viewBox="0 0 851.4 720.161291" xmlns="http://www.w3.org/2000/svg" version="1.1">
 <metadata>
  <rdf:RDF xmlns:dc="http://purl.org/dc/elements/1.1/" xmlns:cc="http://creativecommons.org/ns#" xmlns:rdf="http://www.w3.org/1999/02/22-rdf-syntax-ns#">
   <cc:Work>
    <dc:type rdf:resource="http://purl.org/dc/dcmitype/StillImage"/>
    <dc:date>2025-03-16T14:30:02.065841</dc:date>
    <dc:format>image/svg+xml</dc:format>
    <dc:creator>
     <cc:Agent>
      <dc:title>Matplotlib v3.10.1, https://matplotlib.org/</dc:title>
     </cc:Agent>
    </dc:creator>
   </cc:Work>
  </rdf:RDF>
 </metadata>
 <defs>
  <style type="text/css">*{stroke-linejoin: round; stroke-linecap: butt}</style>
 </defs>
 <g id="figure_1">
  <g id="patch_1">
   <path d="M 0 720.161291 
L 851.4 720.161291 
L 851.4 0 
L 0 0 
z
" style="fill: #ffffff"/>
  </g>
  <g id="axes_1">
   <g id="PatchCollection_1">
    <path d="M 755.80745 471.104866 
L 763.810549 460.398829 
L 768.291571 456.771512 
L 771.540758 453.385123 
L 774.344903 449.350521 
L 777.013878 446.954617 
L 779.749163 439.225773 
L 785.76934 434.573551 
L 795.27844 429.167949 
L 803.007374 424.791075 
L 806.154545 418.838603 
L 803.761012 410.834411 
L 793.635994 405.977591 
L 785.632895 407.277842 
L 788.026429 392.158601 
L 780.980998 387.439455 
L 780.912137 377.314707 
L 783.512252 364.044499 
L 783.648697 358.298537 
L 780.092189 353.510554 
L 755.87631 347.900354 
L 751.976776 362.059704 
L 746.503655 370.679603 
L 735.832856 366.849599 
L 726.803228 349.47404 
L 716.200014 325.123017 
L 711.616977 312.673114 
L 693.419999 285.723502 
L 667.663689 242.505455 
L 599.694727 188.707573 
L 453.754205 78.381281 
L 440.095633 110.212571 
L 361.67648 49.590284 
L 315.181736 39.280059 
L 291.583049 71.046336 
L 281.321586 78.151825 
L 289.921475 95.905987 
L 325.285075 119.155621 
L 362.488776 121.935863 
L 375.180753 131.96118 
L 399.595563 195.237509 
L 359.208985 200.643112 
L 251.673393 204.601228 
L 226.752333 176.817925 
L 210.911909 143.585041 
L 178.252989 133.991866 
L 168.236363 164.918717 
L 99.733096 155.289212 
L 76.584551 162.545759 
L 45.245455 195.271928 
L 82.396873 246.268534 
L 76.90845 288.121317 
L 62.792084 339.976472 
L 55.05805 361.807302 
L 69.09918 383.205991 
L 96.291355 407.805591 
L 130.2854 432.410928 
L 193.760588 457.960859 
L 266.306211 481.707648 
L 345.176782 521.847159 
L 407.28369 545.135035 
L 444.626387 562.371009 
L 425.882352 577.014129 
L 402.760587 584.129178 
L 394.14157 593.024424 
L 379.640097 616.151682 
L 357.764193 607.856846 
L 317.116201 587.414224 
L 287.563647 581.939785 
L 272.377396 580.708371 
L 261.15954 601.919671 
L 353.645326 636.060818 
L 378.682428 650.225905 
L 450.645289 680.881233 
L 485.806133 633.25763 
L 497.435876 617.656531 
L 558.317326 529.39435 
L 595.393508 552.657369 
L 602.64552 558.950201 
L 625.90373 569.350297 
L 626.450787 587.823421 
L 643.278209 589.877052 
L 643.688821 572.361907 
L 647.182845 563.696117 
L 680.628557 430.057091 
L 688.836963 431.973049 
L 738.089944 461.115879 
L 755.80745 471.104866 
" clip-path="url(#p9ba2c7ef5d)" style="fill: #f29888"/>
   </g>
   <g id="PatchCollection_2">
    <path d="M 574.420439 459.796507 
L 573.589015 460.712419 
L 572.649199 459.794595 
L 573.429616 458.941783 
L 574.420439 459.796507 
" clip-path="url(#p9ba2c7ef5d)" style="fill: #f29888"/>
    <path d="M 574.380908 457.83657 
L 575.373007 458.689382 
L 574.420439 459.796507 
L 573.429616 458.941783 
L 574.380908 457.83657 
" clip-path="url(#p9ba2c7ef5d)" style="fill: #f29888"/>
    <path d="M 578.627295 454.954985 
L 577.742312 455.924436 
L 576.754039 454.997052 
L 577.627545 454.052458 
L 578.627295 454.954985 
" clip-path="url(#p9ba2c7ef5d)" style="fill: #f29888"/>
    <path d="M 570.200832 454.823047 
L 568.778994 455.12134 
L 568.479324 453.692976 
L 569.901162 453.394684 
L 570.200832 454.823047 
" clip-path="url(#p9ba2c7ef5d)" style="fill: #f29888"/>
    <path d="M 578.506152 453.079181 
L 579.505902 453.979796 
L 578.627295 454.954985 
L 577.627545 454.052458 
L 578.506152 453.079181 
" clip-path="url(#p9ba2c7ef5d)" style="fill: #f29888"/>
    <path d="M 571.294946 453.081094 
L 571.623945 454.52093 
L 570.200832 454.823047 
L 569.901162 453.394684 
L 571.294946 453.081094 
" clip-path="url(#p9ba2c7ef5d)" style="fill: #f29888"/>
    <path d="M 575.222535 451.794228 
L 574.268692 452.798098 
L 573.286795 451.884098 
L 574.225335 450.861106 
L 575.222535 451.794228 
" clip-path="url(#p9ba2c7ef5d)" style="fill: #f29888"/>
    <path d="M 575.153674 449.868709 
L 576.149599 450.799918 
L 575.222535 451.794228 
L 574.225335 450.861106 
L 575.153674 449.868709 
" clip-path="url(#p9ba2c7ef5d)" style="fill: #f29888"/>
    <path d="M 583.100665 449.992998 
L 582.242462 450.958625 
L 581.270766 450.096253 
L 582.12897 449.130625 
L 583.100665 449.992998 
" clip-path="url(#p9ba2c7ef5d)" style="fill: #f29888"/>
    <path d="M 579.549258 447.075082 
L 578.587764 448.006291 
L 577.507677 446.899165 
L 578.460245 445.960308 
L 579.549258 447.075082 
" clip-path="url(#p9ba2c7ef5d)" style="fill: #f29888"/>
    <path d="M 623.336771 458.316516 
L 625.56453 458.77734 
L 623.506371 468.737645 
L 621.277337 468.27682 
L 623.336771 458.316516 
" clip-path="url(#p9ba2c7ef5d)" style="fill: #f29888"/>
    <path d="M 632.681371 447.499575 
L 633.931059 441.671392 
L 637.130513 442.357848 
L 633.684947 458.419771 
L 626.241656 456.823139 
L 628.43626 446.5894 
L 632.681371 447.499575 
" clip-path="url(#p9ba2c7ef5d)" style="fill: #f29888"/>
    <path d="M 583.031805 448.117194 
L 583.9984 448.96427 
L 583.100665 449.992998 
L 582.12897 449.130625 
L 583.031805 448.117194 
" clip-path="url(#p9ba2c7ef5d)" style="fill: #f29888"/>
    <path d="M 623.635165 441.141731 
L 624.793039 441.487827 
L 622.243932 452.870759 
L 620.623164 452.379341 
L 623.635165 441.141731 
" clip-path="url(#p9ba2c7ef5d)" style="fill: #f29888"/>
    <path d="M 587.185103 445.533902 
L 586.258039 446.499529 
L 585.26849 445.549199 
L 586.195554 444.583571 
L 587.185103 445.533902 
" clip-path="url(#p9ba2c7ef5d)" style="fill: #f29888"/>
    <path d="M 587.257788 443.455412 
L 588.266465 444.407655 
L 587.185103 445.533902 
L 586.195554 444.583571 
L 587.257788 443.455412 
" clip-path="url(#p9ba2c7ef5d)" style="fill: #f29888"/>
    <path d="M 583.93209 440.369229 
L 585.03003 441.386484 
L 584.078737 442.4133 
L 582.980797 441.396044 
L 583.93209 440.369229 
" clip-path="url(#p9ba2c7ef5d)" style="fill: #f29888"/>
    <path d="M 626.188098 436.401551 
L 627.727254 436.936949 
L 626.148567 441.478266 
L 624.609411 440.942869 
L 626.188098 436.401551 
" clip-path="url(#p9ba2c7ef5d)" style="fill: #f29888"/>
    <path d="M 636.57708 353.950345 
L 636.394728 354.925533 
L 635.134839 354.690341 
L 635.317191 353.715152 
L 636.57708 353.950345 
" clip-path="url(#p9ba2c7ef5d)" style="fill: #f29888"/>
    <path d="M 636.8793 350.376567 
L 636.686747 351.447362 
L 635.637264 351.259973 
L 635.828543 350.187266 
L 636.8793 350.376567 
" clip-path="url(#p9ba2c7ef5d)" style="fill: #f29888"/>
    <path d="M 748.643426 426.965171 
L 750.107345 427.888732 
L 747.127224 432.60979 
L 745.663304 431.686229 
L 748.643426 426.965171 
" clip-path="url(#p9ba2c7ef5d)" style="fill: #f29888"/>
    <path d="M 744.997655 427.969041 
L 743.619173 430.177556 
L 739.287349 427.473799 
L 740.667106 425.265284 
L 744.997655 427.969041 
" clip-path="url(#p9ba2c7ef5d)" style="fill: #f29888"/>
    <path d="M 738.523509 423.620849 
L 737.048113 425.886728 
L 732.642328 423.016615 
L 734.117724 420.750737 
L 738.523509 423.620849 
" clip-path="url(#p9ba2c7ef5d)" style="fill: #f29888"/>
    <path d="M 753.44197 422.766126 
L 752.489402 424.160071 
L 750.913266 423.08354 
L 751.865834 421.689594 
L 753.44197 422.766126 
" clip-path="url(#p9ba2c7ef5d)" style="fill: #f29888"/>
    <path d="M 750.913266 423.08354 
L 749.214712 421.97259 
L 750.163454 420.527017 
L 751.865834 421.689594 
L 750.913266 423.08354 
" clip-path="url(#p9ba2c7ef5d)" style="fill: #f29888"/>
    <path d="M 662.914877 397.300329 
L 664.659339 397.724822 
L 663.653213 401.870328 
L 661.908752 401.447747 
L 662.914877 397.300329 
" clip-path="url(#p9ba2c7ef5d)" style="fill: #f29888"/>
    <path d="M 665.022768 387.188965 
L 664.7333 388.202396 
L 663.570326 387.871597 
L 663.858519 386.858166 
L 665.022768 387.188965 
" clip-path="url(#p9ba2c7ef5d)" style="fill: #f29888"/>
    <path d="M 665.428279 376.974347 
L 667.293884 377.448556 
L 666.156413 381.913389 
L 664.290809 381.437267 
L 665.428279 376.974347 
" clip-path="url(#p9ba2c7ef5d)" style="fill: #f29888"/>
    <path d="M 665.638686 369.050465 
L 666.610381 369.272272 
L 666.132185 371.364147 
L 665.160489 371.142339 
L 665.638686 369.050465 
" clip-path="url(#p9ba2c7ef5d)" style="fill: #f29888"/>
    <path d="M 669.605805 360.763277 
L 671.046771 361.030976 
L 670.518842 363.872407 
L 669.076601 363.604708 
L 669.605805 360.763277 
" clip-path="url(#p9ba2c7ef5d)" style="fill: #f29888"/>
    <path d="M 579.466371 444.977471 
L 580.555384 446.092245 
L 579.549258 447.075082 
L 578.460245 445.960308 
L 579.466371 444.977471 
" clip-path="url(#p9ba2c7ef5d)" style="fill: #f29888"/>
    <path d="M 584.078737 442.4133 
L 583.048383 443.501304 
L 581.973396 442.487873 
L 582.980797 441.396044 
L 584.078737 442.4133 
" clip-path="url(#p9ba2c7ef5d)" style="fill: #f29888"/>
    <path d="M 582.269241 421.110218 
L 573.001152 432.192945 
L 571.196756 430.684271 
L 580.467396 419.601544 
L 582.269241 421.110218 
" clip-path="url(#p9ba2c7ef5d)" style="fill: #f29888"/>
    <path d="M 567.355881 422.320598 
L 569.215109 423.888548 
L 564.860332 429.053221 
L 563.001103 427.485272 
L 567.355881 422.320598 
" clip-path="url(#p9ba2c7ef5d)" style="fill: #f29888"/>
    <path d="M 578.425815 414.259043 
L 575.801471 417.343314 
L 574.151374 415.937896 
L 576.775717 412.853624 
L 578.425815 414.259043 
" clip-path="url(#p9ba2c7ef5d)" style="fill: #f29888"/>
    <path d="M 554.87431 408.222436 
L 563.553261 400.191475 
L 565.245439 402.021387 
L 556.569039 410.052348 
L 554.87431 408.222436 
" clip-path="url(#p9ba2c7ef5d)" style="fill: #f29888"/>
    <path d="M 555.644525 400.37504 
L 552.994678 403.614194 
L 553.494553 404.021479 
L 550.946721 407.134432 
L 547.907941 404.648658 
L 553.104345 398.29655 
L 555.644525 400.37504 
" clip-path="url(#p9ba2c7ef5d)" style="fill: #f29888"/>
    <path d="M 270.955558 351.483692 
L 270.203195 350.080186 
L 271.077976 349.611714 
L 271.830339 351.013308 
L 270.955558 351.483692 
" clip-path="url(#p9ba2c7ef5d)" style="fill: #f29888"/>
    <path d="M 272.109606 346.18517 
L 274.333539 346.596279 
L 274.054272 348.106864 
L 271.830339 347.695756 
L 272.109606 346.18517 
" clip-path="url(#p9ba2c7ef5d)" style="fill: #f29888"/>
    <path d="M 275.740075 347.234931 
L 273.141235 342.481367 
L 275.113956 341.402923 
L 277.714071 346.156488 
L 275.740075 347.234931 
" clip-path="url(#p9ba2c7ef5d)" style="fill: #f29888"/>
    <path d="M 637.74643 346.988266 
L 637.638039 347.967279 
L 636.24298 347.814308 
L 636.351371 346.835295 
L 637.74643 346.988266 
" clip-path="url(#p9ba2c7ef5d)" style="fill: #f29888"/>
    <path d="M 638.548526 343.265342 
L 638.37765 344.615308 
L 636.781111 344.414534 
L 636.951986 343.062656 
L 638.548526 343.265342 
" clip-path="url(#p9ba2c7ef5d)" style="fill: #f29888"/>
    <path d="M 639.100683 339.871304 
L 638.929808 340.907681 
L 637.344745 340.647631 
L 637.515621 339.611254 
L 639.100683 339.871304 
" clip-path="url(#p9ba2c7ef5d)" style="fill: #f29888"/>
    <path d="M 639.442435 338.427643 
L 639.283036 339.498438 
L 637.607435 339.249861 
L 637.766833 338.177154 
L 639.442435 338.427643 
" clip-path="url(#p9ba2c7ef5d)" style="fill: #f29888"/>
    <path d="M 640.2152 332.836564 
L 639.949961 334.06033 
L 638.433758 333.731443 
L 638.698998 332.507677 
L 640.2152 332.836564 
" clip-path="url(#p9ba2c7ef5d)" style="fill: #f29888"/>
    <path d="M 641.88315 329.211159 
L 641.686771 330.327845 
L 639.297063 329.907175 
L 639.493442 328.790489 
L 641.88315 329.211159 
" clip-path="url(#p9ba2c7ef5d)" style="fill: #f29888"/>
    <path d="M 641.751806 325.667975 
L 641.504419 327.031326 
L 639.665593 326.698615 
L 639.91298 325.335264 
L 641.751806 325.667975 
" clip-path="url(#p9ba2c7ef5d)" style="fill: #f29888"/>
    <path d="M 643.14559 322.507218 
L 642.81659 323.887779 
L 640.447285 323.323699 
L 640.775009 321.943139 
L 643.14559 322.507218 
" clip-path="url(#p9ba2c7ef5d)" style="fill: #f29888"/>
    <path d="M 643.762782 312.072704 
L 643.496267 313.110993 
L 642.106309 312.753424 
L 642.374099 311.717047 
L 643.762782 312.072704 
" clip-path="url(#p9ba2c7ef5d)" style="fill: #f29888"/>
    <path d="M 644.457761 310.019073 
L 644.195072 311.166353 
L 642.483765 310.774365 
L 642.746455 309.627085 
L 644.457761 310.019073 
" clip-path="url(#p9ba2c7ef5d)" style="fill: #f29888"/>
    <path d="M 670.551997 357.191412 
L 671.657588 357.493529 
L 671.199794 359.176206 
L 670.094203 358.876001 
L 670.551997 357.191412 
" clip-path="url(#p9ba2c7ef5d)" style="fill: #f29888"/>
    <path d="M 765.422391 352.456969 
L 768.157676 353.292571 
L 767.633572 355.005843 
L 764.898287 354.17024 
L 764.974799 353.921663 
L 765.328027 352.766734 
L 765.422391 352.456969 
" clip-path="url(#p9ba2c7ef5d)" style="fill: #f29888"/>
    <path d="M 765.328027 352.766734 
L 764.974799 353.921663 
L 758.930393 352.07263 
L 759.283621 350.917701 
L 765.328027 352.766734 
" clip-path="url(#p9ba2c7ef5d)" style="fill: #f29888"/>
    <path d="M 678.152136 332.379564 
L 678.117706 337.865476 
L 676.147536 337.852091 
L 676.181966 332.366179 
L 678.152136 332.379564 
" clip-path="url(#p9ba2c7ef5d)" style="fill: #f29888"/>
    <path d="M 678.169989 323.610519 
L 678.14576 329.390899 
L 676.271229 329.383251 
L 676.295458 323.602871 
L 678.169989 323.610519 
" clip-path="url(#p9ba2c7ef5d)" style="fill: #f29888"/>
    <path d="M 677.921327 312.200817 
L 678.018241 319.447804 
L 675.926928 319.476486 
L 675.830013 312.229499 
L 677.921327 312.200817 
" clip-path="url(#p9ba2c7ef5d)" style="fill: #f29888"/>
    <path d="M 645.082605 304.932797 
L 644.832667 306.43191 
L 643.371298 306.189069 
L 643.619961 304.689956 
L 645.082605 304.932797 
" clip-path="url(#p9ba2c7ef5d)" style="fill: #f29888"/>
    <path d="M 646.243029 299.706935 
L 646.11806 300.705069 
L 644.457761 300.496647 
L 644.584005 299.498513 
L 646.243029 299.706935 
" clip-path="url(#p9ba2c7ef5d)" style="fill: #f29888"/>
    <path d="M 647.298887 289.536296 
L 647.052775 291.029673 
L 645.426906 290.763886 
L 645.673018 289.27051 
L 647.298887 289.536296 
" clip-path="url(#p9ba2c7ef5d)" style="fill: #f29888"/>
   </g>
   <g id="LineCollection_1">
    <path d="M 640.240915 589.506379 
L 641.106559 573.06366 
L 644.17977 557.611708 
L 648.664617 539.668245 
L 656.888324 511.341896 
L 665.525194 479.940836 
L 666.273731 470.638305 
L 667.269655 461.666574 
L 670.342866 448.459466 
L 674.330388 432.594493 
L 678.598453 419.156017 
L 680.891247 413.821164 
L 685.460256 408.008277 
L 690.027991 403.770989 
L 691.108078 398.621613 
L 690.670687 397.661722 
L 688.117755 392.05917 
" clip-path="url(#p9ba2c7ef5d)" style="fill: none; stroke: #f29888; stroke-width: 0.2"/>
    <path d="M 678.598453 419.156017 
L 700.200191 430.921376 
L 712.082421 437.919785 
L 754.161178 466.498536 
L 757.918373 468.281007 
" clip-path="url(#p9ba2c7ef5d)" style="fill: none; stroke: #f29888; stroke-width: 0.2"/>
    <path d="M 712.082421 437.919785 
L 714.542265 434.757116 
L 722.762147 428.556066 
L 724.324256 427.51969 
L 730.829006 423.209741 
" clip-path="url(#p9ba2c7ef5d)" style="fill: none; stroke: #f29888; stroke-width: 0.2"/>
    <path d="M 718.626702 421.949644 
L 724.324256 427.51969 
L 731.98943 436.019124 
L 733.552814 437.27922 
L 741.418193 437.632965 
L 746.461574 437.732396 
" clip-path="url(#p9ba2c7ef5d)" style="fill: none; stroke: #f29888; stroke-width: 0.2"/>
    <path d="M 762.446095 426.387707 
L 754.37796 420.437147 
L 743.435545 412.167168 
L 730.931021 403.543445 
L 719.584371 395.627212 
L 713.029888 391.845011 
L 710.457828 391.391835 
L 707.180587 391.743668 
L 702.137206 393.105107 
L 698.003036 394.669233 
L 690.670687 397.661722 
" clip-path="url(#p9ba2c7ef5d)" style="fill: none; stroke: #f29888; stroke-width: 0.2"/>
    <path d="M 707.180587 391.743668 
L 711.466504 397.743944 
L 717.416546 404.602767 
L 731.58647 415.041105 
L 740.310052 422.050988 
" clip-path="url(#p9ba2c7ef5d)" style="fill: none; stroke: #f29888; stroke-width: 0.2"/>
    <path d="M 691.108078 398.621613 
L 693.027241 398.665592 
L 705.592974 410.933842 
" clip-path="url(#p9ba2c7ef5d)" style="fill: none; stroke: #f29888; stroke-width: 0.2"/>
    <path d="M 557.589192 525.24502 
L 595.989022 550.710817 
" clip-path="url(#p9ba2c7ef5d)" style="fill: none; stroke: #f29888; stroke-width: 0.2"/>
    <path d="M 570.11922 507.163884 
L 562.417065 517.856536 
L 557.589192 525.24502 
L 538.856634 550.710817 
" clip-path="url(#p9ba2c7ef5d)" style="fill: none; stroke: #f29888; stroke-width: 0.5"/>
    <path d="M 558.821026 515.860268 
L 562.417065 517.856536 
" clip-path="url(#p9ba2c7ef5d)" style="fill: none; stroke: #f29888; stroke-width: 0.2"/>
    <path d="M 516.418371 490.285479 
L 530.714539 498.366157 
L 544.254518 506.490813 
L 558.821026 515.860268 
" clip-path="url(#p9ba2c7ef5d)" style="fill: none; stroke: #f29888; stroke-width: 0.2"/>
    <path d="M 570.11922 507.163884 
L 525.178934 478.470405 
" clip-path="url(#p9ba2c7ef5d)" style="fill: none; stroke: #f29888; stroke-width: 0.2"/>
    <path d="M 570.11922 507.163884 
L 579.968796 493.134559 
L 584.961169 485.105509 
L 597.006625 463.974519 
L 598.335374 461.081461 
L 598.985721 458.243855 
L 599.020151 455.404336 
L 598.636319 452.910914 
L 597.685026 450.513098 
L 589.916562 438.753476 
" clip-path="url(#p9ba2c7ef5d)" style="fill: none; stroke: #f29888; stroke-width: 0.5"/>
    <path d="M 538.104272 458.630106 
L 541.353459 457.962771 
L 545.184133 457.551662 
L 547.646527 456.731357 
L 549.561864 455.499943 
L 552.298424 453.039027 
L 554.486652 452.218721 
L 560.232663 452.218721 
" clip-path="url(#p9ba2c7ef5d)" style="fill: none; stroke: #f29888; stroke-width: 0.2"/>
    <path d="M 589.916562 438.753476 
L 572.473223 457.234248 
L 570.444394 457.685512 
L 567.11997 457.064068 
" clip-path="url(#p9ba2c7ef5d)" style="fill: none; stroke: #f29888; stroke-width: 0.2"/>
    <path d="M 560.232663 452.218721 
L 567.346954 441.550927 
L 569.262291 439.088099 
L 573.641298 434.164355 
L 580.481423 429.651719 
L 585.824474 428.276895 
" clip-path="url(#p9ba2c7ef5d)" style="fill: none; stroke: #f29888; stroke-width: 0.2"/>
    <path d="M 536.334306 416.486678 
L 546.825304 445.243257 
" clip-path="url(#p9ba2c7ef5d)" style="fill: none; stroke: #f29888; stroke-width: 0.2"/>
    <path d="M 578.155474 407.518771 
L 567.424741 419.685678 
" clip-path="url(#p9ba2c7ef5d)" style="fill: none; stroke: #f29888; stroke-width: 0.2"/>
    <path d="M 564.771068 395.235224 
L 578.155474 407.518771 
L 592.600839 420.26123 
" clip-path="url(#p9ba2c7ef5d)" style="fill: none; stroke: #f29888; stroke-width: 0.2"/>
    <path d="M 589.916562 438.753476 
L 587.630144 434.948329 
L 586.593414 432.688187 
L 586.022128 430.332439 
L 585.824474 428.276895 
L 587.424838 425.747142 
L 590.07086 422.775686 
L 592.600839 420.26123 
L 594.53913 419.249712 
L 596.522052 418.410285 
L 607.857226 414.402453 
L 611.537427 412.511352 
L 614.855475 410.526558 
L 624.226854 401.017517 
L 633.479641 391.921496 
L 634.654092 390.380317 
L 636.227678 388.020744 
L 644.684745 371.496084 
L 646.527396 366.677507 
L 647.025996 364.419277 
L 646.903578 362.642905 
L 646.209874 361.357951 
L 632.198074 356.462889 
" clip-path="url(#p9ba2c7ef5d)" style="fill: none; stroke: #f29888; stroke-width: 0.5"/>
    <path d="M 632.198074 356.462889 
L 611.004397 349.996052 
L 596.967094 344.955668 
L 595.889557 343.98048 
" clip-path="url(#p9ba2c7ef5d)" style="fill: none; stroke: #f29888; stroke-width: 0.2"/>
    <path d="M 595.97882 343.24622 
L 586.314147 338.924798 
L 577.420964 335.232468 
L 575.710933 334.547924 
L 574.616819 334.616761 
L 573.384984 335.232468 
L 572.22201 335.437066 
L 570.99145 335.299393 
L 569.897337 334.821359 
L 568.529056 333.589945 
L 566.819025 330.853682 
L 564.971273 328.323929 
L 563.740714 326.886004 
L 562.167128 325.723427 
L 556.488702 322.920239 
L 549.716162 320.115139 
L 546.090794 319.019486 
L 543.217788 318.405691 
L 537.130026 318.199181 
" clip-path="url(#p9ba2c7ef5d)" style="fill: none; stroke: #f29888; stroke-width: 0.2"/>
    <path d="M 599.434588 309.074479 
L 617.403306 311.986658 
L 638.983366 315.036512 
" clip-path="url(#p9ba2c7ef5d)" style="fill: none; stroke: #f29888; stroke-width: 0.2"/>
    <path d="M 629.5342 237.300627 
L 622.385478 281.757736 
L 617.403306 311.986658 
L 611.004397 349.996052 
L 610.106663 353.598512 
L 609.565982 355.64832 
L 608.844224 357.155081 
L 607.762862 358.170424 
L 606.019675 359.09016 
L 603.914335 359.830156 
L 597.924762 361.172474 
L 595.837274 361.264256 
L 594.022677 361.082604 
L 591.20833 360.17434 
L 581.479897 356.227696 
" clip-path="url(#p9ba2c7ef5d)" style="fill: none; stroke: #f29888; stroke-width: 0.2"/>
    <path d="M 611.459641 223.087737 
L 600.983946 278.080703 
L 599.20888 294.689497 
L 599.386131 297.402814 
L 599.684526 302.404956 
L 599.434588 309.074479 
L 598.868404 318.606465 
L 599.196128 321.692649 
L 599.377205 324.958573 
L 599.286666 327.863105 
L 598.923237 331.130941 
L 598.37873 334.851953 
L 597.470794 338.483095 
L 596.041305 342.739505 
L 595.97882 343.24622 
L 595.889557 343.98048 
" clip-path="url(#p9ba2c7ef5d)" style="fill: none; stroke: #f29888; stroke-width: 0.2"/>
    <path d="M 557.3112 283.40982 
L 556.329303 283.283619 
L 555.11022 282.742485 
L 553.851607 281.834222 
L 552.4744 280.570301 
L 551.766669 279.371393 
" clip-path="url(#p9ba2c7ef5d)" style="fill: none; stroke: #f29888; stroke-width: 0.2"/>
    <path d="M 644.483265 285.230171 
L 622.385478 281.757736 
L 600.983946 278.080703 
L 591.77324 276.361695 
L 590.26979 275.849243 
L 589.069835 275.000256 
L 587.815047 275.111159 
L 584.187128 275.675239 
L 580.336051 276.516578 
L 571.589515 278.92013 
L 562.988351 280.310251 
L 561.04751 281.235724 
L 560.207159 282.394477 
L 558.344105 283.168891 
L 557.3112 283.40982 
" clip-path="url(#p9ba2c7ef5d)" style="fill: none; stroke: #f29888; stroke-width: 0.2"/>
    <path d="M 672.648411 366.075185 
L 670.536695 365.681285 
" clip-path="url(#p9ba2c7ef5d)" style="fill: none; stroke: #f29888; stroke-width: 0.2"/>
    <path d="M 670.536695 365.681285 
L 666.20232 364.97762 
" clip-path="url(#p9ba2c7ef5d)" style="fill: none; stroke: #f29888; stroke-width: 0.2"/>
    <path d="M 666.20232 364.97762 
L 656.744228 363.444089 
" clip-path="url(#p9ba2c7ef5d)" style="fill: none; stroke: #f29888; stroke-width: 0.2"/>
    <path d="M 656.744228 363.444089 
L 655.652664 363.26626 
" clip-path="url(#p9ba2c7ef5d)" style="fill: none; stroke: #f29888; stroke-width: 0.2"/>
    <path d="M 655.652664 363.26626 
L 654.340492 363.055926 
L 650.131087 362.505231 
L 646.209874 361.357951 
" clip-path="url(#p9ba2c7ef5d)" style="fill: none; stroke: #f29888; stroke-width: 0.2"/>
    <path d="M 688.117755 392.05917 
L 684.854541 383.049196 
L 689.846914 374.538289 
L 694.348339 369.89754 
L 697.725045 366.520712 
L 701.592699 362.442131 
L 705.952578 356.745884 
L 703.491459 341.905815 
L 701.820959 334.809886 
L 693.038717 306.550462 
L 691.613054 301.961341 
" clip-path="url(#p9ba2c7ef5d)" style="fill: none; stroke: #f29888; stroke-width: 0.2"/>
    <path d="M 662.370371 317.168541 
L 661.899825 320.472708 
L 658.189019 347.068576 
L 657.418804 348.823914 
L 656.111733 350.783851 
L 654.983189 352.326943 
L 653.677393 353.33655 
L 652.904627 353.753395 
L 651.777358 354.049776 
L 650.945934 354.227604 
L 650.351695 354.523985 
L 649.876048 354.94083 
L 649.104558 356.068989 
L 648.45166 356.721027 
L 647.976014 358.088202 
L 647.204523 359.988863 
L 646.847469 360.640901 
L 646.209874 361.357951 
" clip-path="url(#p9ba2c7ef5d)" style="fill: none; stroke: #f29888; stroke-width: 0.2"/>
    <path d="M 638.816316 316.134076 
L 661.899825 320.472708 
" clip-path="url(#p9ba2c7ef5d)" style="fill: none; stroke: #f29888; stroke-width: 0.2"/>
    <path d="M 693.038717 306.550462 
L 681.996837 307.338261 
L 680.423252 310.074525 
L 679.876195 311.305939 
L 671.564499 311.338445 
" clip-path="url(#p9ba2c7ef5d)" style="fill: none; stroke: #f29888; stroke-width: 0.2"/>
    <path d="M 632.198074 356.462889 
L 633.582931 346.341965 
L 636.665068 328.270389 
L 638.816316 316.134076 
L 638.983366 315.036512 
L 640.029022 308.6366 
L 641.500593 300.429722 
L 644.483265 285.230171 
L 649.281809 270.518214 
L 649.706448 267.437767 
L 649.482014 264.403211 
L 648.565152 261.332324 
L 646.434307 257.240358 
L 643.562577 252.918935 
L 639.781635 247.962685 
L 635.806865 243.069535 
L 632.64184 239.895393 
L 629.5342 237.300627 
" clip-path="url(#p9ba2c7ef5d)" style="fill: none; stroke: #f29888; stroke-width: 0.5"/>
    <path d="M 677.476145 258.970359 
L 675.112081 255.555768 
L 664.933505 241.732953 
L 663.748291 239.406392 
" clip-path="url(#p9ba2c7ef5d)" style="fill: none; stroke: #f29888; stroke-width: 0.2"/>
    <path d="M 612.775342 199.060966 
L 605.64987 201.19763 
" clip-path="url(#p9ba2c7ef5d)" style="fill: none; stroke: #f29888; stroke-width: 0.2"/>
    <path d="M 715.513961 324.314184 
L 715.848337 324.16768 
" clip-path="url(#p9ba2c7ef5d)" style="fill: none; stroke: #f29888; stroke-width: 0.2"/>
    <path d="M 697.135826 291.226619 
L 709.992383 312.894922 
L 711.989332 319.681084 
L 715.513961 324.314184 
" clip-path="url(#p9ba2c7ef5d)" style="fill: none; stroke: #f29888; stroke-width: 0.2"/>
    <path d="M 551.766669 279.371393 
L 560.1485 274.705787 
L 572.669602 267.636629 
L 583.817323 260.886797 
" clip-path="url(#p9ba2c7ef5d)" style="fill: none; stroke: #f29888; stroke-width: 0.2"/>
    <path d="M 551.766669 279.371393 
L 548.883462 274.487804 
L 546.991078 270.34421 
L 546.148177 267.875645 
L 545.606221 265.407081 
L 544.883188 257.158136 
L 544.823254 251.897856 
" clip-path="url(#p9ba2c7ef5d)" style="fill: none; stroke: #f29888; stroke-width: 0.2"/>
    <path d="M 589.069835 275.000256 
L 588.777816 274.199072 
L 587.618667 271.059348 
L 584.412837 263.464353 
L 583.817323 260.886797 
L 583.397785 259.07027 
L 583.513827 253.402705 
L 593.10709 211.496383 
" clip-path="url(#p9ba2c7ef5d)" style="fill: none; stroke: #f29888; stroke-width: 0.2"/>
    <path d="M 563.503528 251.440856 
L 567.132722 224.665247 
L 571.598441 197.071246 
" clip-path="url(#p9ba2c7ef5d)" style="fill: none; stroke: #f29888; stroke-width: 0.2"/>
    <path d="M 552.030634 183.699695 
L 545.70186 223.127892 
L 543.973976 239.350434 
L 543.491954 251.930362 
" clip-path="url(#p9ba2c7ef5d)" style="fill: none; stroke: #f29888; stroke-width: 0.2"/>
    <path d="M 538.856634 550.710817 
L 514.578271 586.205756 
L 449.831717 678.758764 
L 448.874687 680.126977 
" clip-path="url(#p9ba2c7ef5d)" style="fill: none; stroke: #f29888; stroke-width: 0.5"/>
    <path d="M 449.831717 678.758764 
L 441.137464 673.697346 
L 381.007102 648.721056 
L 360.950896 636.242471 
L 351.631799 628.39125 
L 321.71454 616.715761 
L 275.513091 600.13565 
L 265.016993 596.307558 
" clip-path="url(#p9ba2c7ef5d)" style="fill: none; stroke: #f29888; stroke-width: 0.2"/>
    <path d="M 407.701953 480.88543 
L 405.423186 481.527907 
L 400.390007 483.526087 
L 397.752911 484.164739 
L 395.995698 484.403756 
L 394.636344 484.644685 
L 393.598339 485.443957 
L 392.959468 486.482245 
L 392.479996 488.799752 
L 391.841125 490.557002 
L 390.882182 492.075237 
L 390.40271 493.434764 
L 390.40271 494.792379 
L 390.591438 496.918671 
" clip-path="url(#p9ba2c7ef5d)" style="fill: none; stroke: #f29888; stroke-width: 0.2"/>
    <path d="M 424.622464 452.408023 
L 419.42861 464.588314 
L 418.041202 466.253783 
L 417.069507 467.225147 
L 415.544378 468.751029 
L 414.433686 470.208075 
L 413.671122 472.21964 
L 409.85575 481.644547 
" clip-path="url(#p9ba2c7ef5d)" style="fill: none; stroke: #f29888; stroke-width: 0.2"/>
    <path d="M 516.418371 490.285479 
L 460.675942 466.15244 
L 443.066828 460.163637 
L 425.144017 452.583939 
L 424.622464 452.408023 
L 420.05983 450.861106 
L 391.653672 440.644576 
L 372.384259 433.334489 
L 343.728165 422.618891 
L 327.947674 415.226582 
L 322.859662 411.104022 
L 321.031038 408.993026 
" clip-path="url(#p9ba2c7ef5d)" style="fill: none; stroke: #f29888; stroke-width: 0.2"/>
    <path d="M 402.050306 411.616474 
L 399.61214 414.161524 
L 398.339499 416.069833 
L 396.855177 419.356791 
L 396.007175 422.641837 
L 395.583811 424.762393 
" clip-path="url(#p9ba2c7ef5d)" style="fill: none; stroke: #f29888; stroke-width: 0.2"/>
    <path d="M 432.976241 423.651443 
L 402.050306 411.616474 
" clip-path="url(#p9ba2c7ef5d)" style="fill: none; stroke: #f29888; stroke-width: 0.2"/>
    <path d="M 309.475256 408.694733 
L 304.527514 421.924787 
" clip-path="url(#p9ba2c7ef5d)" style="fill: none; stroke: #f29888; stroke-width: 0.2"/>
    <path d="M 402.050306 411.616474 
L 403.109989 409.178503 
L 402.580785 407.482441 
L 399.823822 405.361884 
L 397.173975 404.514809 
L 395.053332 404.514809 
L 391.343801 404.619976 
L 388.375156 404.514809 
L 384.770191 403.453575 
L 377.880333 401.333019 
L 370.777519 400.378864 
L 366.855031 399.956282 
L 363.355906 399.002128 
L 361.44822 398.15314 
L 361.023582 397.093818 
L 361.130698 394.973262 
L 361.648425 389.429986 
" clip-path="url(#p9ba2c7ef5d)" style="fill: none; stroke: #f29888; stroke-width: 0.2"/>
    <path d="M 544.254518 506.490813 
L 529.35646 528.006141 
L 522.51506 538.406237 
L 520.731068 542.28978 
" clip-path="url(#p9ba2c7ef5d)" style="fill: none; stroke: #f29888; stroke-width: 0.2"/>
    <path d="M 538.856634 550.710817 
L 527.397767 544.945734 
L 520.731068 542.28978 
L 489.088475 531.958522 
L 462.619333 522.304159 
L 445.660567 516.357423 
L 434.378951 512.315172 
L 427.80279 509.961335 
L 406.207429 501.903604 
L 390.591438 496.918671 
" clip-path="url(#p9ba2c7ef5d)" style="fill: none; stroke: #f29888; stroke-width: 0.2"/>
    <path d="M 530.714539 498.366157 
L 513.47523 528.245158 
" clip-path="url(#p9ba2c7ef5d)" style="fill: none; stroke: #f29888; stroke-width: 0.2"/>
    <path d="M 434.378951 512.315172 
L 435.651591 508.559741 
L 438.324392 505.433403 
L 441.046925 502.507838 
L 442.357822 500.641596 
L 444.446585 494.486437 
" clip-path="url(#p9ba2c7ef5d)" style="fill: none; stroke: #f29888; stroke-width: 0.2"/>
    <path d="M 499.235171 514.366892 
L 477.471484 506.13898 
L 447.98524 495.838316 
L 444.446585 494.486437 
L 422.320744 486.036718 
L 409.85575 481.644547 
L 407.701953 480.88543 
" clip-path="url(#p9ba2c7ef5d)" style="fill: none; stroke: #f29888; stroke-width: 0.2"/>
    <path d="M 489.088475 531.958522 
L 491.873493 526.294782 
L 499.235171 514.366892 
L 504.585873 506.869415 
L 516.418371 490.285479 
L 525.178934 478.470405 
L 536.507732 461.081461 
L 538.104272 458.630106 
L 546.825304 445.243257 
" clip-path="url(#p9ba2c7ef5d)" style="fill: none; stroke: #f29888; stroke-width: 0.2"/>
    <path d="M 504.585873 506.869415 
L 499.842162 504.324365 
L 475.285807 493.683341 
L 460.108482 487.98327 
L 437.718676 479.46089 
L 436.10556 477.797334 
L 435.589107 476.451192 
L 434.757683 475.548665 
L 433.439135 475.062983 
L 428.514347 473.605937 
L 422.13329 471.317113 
L 420.191174 470.139239 
L 417.069507 467.225147 
" clip-path="url(#p9ba2c7ef5d)" style="fill: none; stroke: #f29888; stroke-width: 0.2"/>
    <path d="M 536.507732 461.081461 
L 514.527263 451.056144 
L 475.93998 437.590898 
L 433.891828 420.779419 
" clip-path="url(#p9ba2c7ef5d)" style="fill: none; stroke: #f29888; stroke-width: 0.2"/>
    <path d="M 476.50999 456.153892 
L 428.916032 437.936994 
L 395.583811 424.762393 
" clip-path="url(#p9ba2c7ef5d)" style="fill: none; stroke: #f29888; stroke-width: 0.2"/>
    <path d="M 425.144017 452.583939 
L 426.123363 448.784529 
L 428.916032 437.936994 
L 432.352672 425.609468 
L 432.976241 423.651443 
L 433.891828 420.779419 
L 441.671769 396.363383 
" clip-path="url(#p9ba2c7ef5d)" style="fill: none; stroke: #f29888; stroke-width: 0.2"/>
    <path d="M 385.53148 373.591783 
L 383.343252 376.500138 
L 381.796445 378.047054 
L 379.405462 379.454385 
L 376.310573 380.720217 
L 372.935142 381.563468 
L 370.262341 382.548217 
L 367.44927 384.095133 
L 362.947845 388.315212 
L 362.251591 388.911798 
L 361.648425 389.429986 
L 359.994502 390.846877 
L 356.617796 392.535291 
L 352.116372 394.504789 
L 346.631775 396.332789 
L 341.004356 398.021203 
L 336.926295 399.005952 
L 333.691135 399.990701 
L 322.999933 406.883943 
L 321.031038 408.993026 
" clip-path="url(#p9ba2c7ef5d)" style="fill: none; stroke: #f29888; stroke-width: 0.2"/>
    <path d="M 362.933818 362.813085 
L 362.251591 388.911798 
" clip-path="url(#p9ba2c7ef5d)" style="fill: none; stroke: #f29888; stroke-width: 0.2"/>
    <path d="M 321.031038 408.993026 
L 316.529613 409.415608 
L 311.887917 409.27411 
L 309.475256 408.694733 
L 308.372216 408.430859 
L 286.148185 400.833952 
L 271.378921 395.770622 
L 269.881847 395.349952 
L 263.360519 393.52004 
L 225.523049 383.814049 
L 206.393907 379.312887 
L 205.409459 377.907468 
L 203.696877 373.608992 
L 201.682075 364.916432 
L 199.77439 358.132181 
L 196.169424 351.135684 
L 192.989098 345.410756 
L 190.656773 343.290199 
L 184.826599 340.852229 
L 178.783468 339.156166 
L 163.836953 335.869208 
" clip-path="url(#p9ba2c7ef5d)" style="fill: none; stroke: #f29888; stroke-width: 0.2"/>
    <path d="M 269.881847 395.349952 
L 269.119283 392.558237 
L 267.953758 390.225434 
L 266.788233 387.575216 
L 266.363595 385.244325 
L 266.575276 382.911522 
L 269.119283 375.915025 
L 270.180242 371.886159 
L 270.391923 369.343021 
L 270.157288 367.212904 
L 273.040495 362.495671 
L 276.801034 357.698127 
L 280.741374 351.894801 
L 284.18184 347.764592 
L 286.554971 345.580936 
L 287.980634 344.483371 
L 289.166562 343.787354 
L 291.817684 343.179296 
L 295.348689 342.573149 
L 298.168136 342.26912 
L 299.824609 342.142919 
L 300.393345 342.225141 
L 300.834561 342.290153 
L 302.466805 342.884827 
L 309.118202 345.972923 
L 315.441875 349.018952 
L 317.756347 349.472128 
L 320.297803 349.382257 
L 321.567893 349.561998 
L 322.974429 350.380391 
L 332.868637 356.05178 
L 336.907167 357.776525 
L 344.395089 360.499403 
L 349.251017 361.996604 
L 353.879961 362.950758 
L 357.964398 363.677369 
L 359.961347 363.677369 
L 361.277345 363.539696 
L 362.933818 362.813085 
" clip-path="url(#p9ba2c7ef5d)" style="fill: none; stroke: #f29888; stroke-width: 0.2"/>
    <path d="M 385.53148 373.591783 
L 383.498825 369.318164 
L 381.802821 364.54739 
L 381.695705 361.050097 
L 382.543707 357.76314 
L 384.907911 354.246726 
" clip-path="url(#p9ba2c7ef5d)" style="fill: none; stroke: #f29888; stroke-width: 0.2"/>
    <path d="M 363.746115 363.361867 
L 370.889735 359.589227 
L 373.752539 358.847319 
L 376.827025 357.57575 
L 383.752588 353.810759 
" clip-path="url(#p9ba2c7ef5d)" style="fill: none; stroke: #f29888; stroke-width: 0.2"/>
    <path d="M 419.182498 365.826607 
L 384.907911 354.246726 
L 383.752588 353.810759 
L 373.432466 349.910006 
" clip-path="url(#p9ba2c7ef5d)" style="fill: none; stroke: #f29888; stroke-width: 0.2"/>
    <path d="M 412.412509 384.232807 
L 418.298791 368.226335 
L 419.182498 365.826607 
L 421.829795 358.629336 
L 428.097359 340.024275 
L 429.376376 337.815761 
L 431.355473 335.859648 
L 435.619712 332.75243 
L 437.90868 330.532443 
L 439.503944 328.591627 
L 440.821216 325.885958 
L 445.618485 316.694331 
" clip-path="url(#p9ba2c7ef5d)" style="fill: none; stroke: #f29888; stroke-width: 0.2"/>
    <path d="M 362.933818 362.813085 
L 359.530333 358.916156 
L 358.484676 356.54511 
L 356.90599 352.309734 
L 355.328578 348.904224 
L 352.761618 343.106635 
L 352.413491 342.024367 
L 351.542536 340.955484 
L 349.789148 339.727894 
L 336.65978 332.951292 
L 306.600975 317.522285 
L 305.491559 317.264147 
L 303.988108 317.162804 
" clip-path="url(#p9ba2c7ef5d)" style="fill: none; stroke: #f29888; stroke-width: 0.2"/>
    <path d="M 384.907911 354.246726 
L 387.377957 347.791362 
L 389.70008 343.265342 
L 395.536629 337.012664 
L 401.788891 330.878539 
L 405.361977 327.36595 
L 410.245959 323.732896 
L 415.610688 321.878126 
L 424.516623 319.65049 
L 436.282811 317.84926 
L 441.266258 317.424767 
L 445.618485 316.694331 
" clip-path="url(#p9ba2c7ef5d)" style="fill: none; stroke: #f29888; stroke-width: 0.2"/>
    <path d="M 300.393345 342.225141 
L 299.62823 341.378066 
L 299.273727 340.666752 
L 298.926875 337.54615 
L 298.99701 332.343234 
L 298.580023 329.291468 
L 298.580023 327.696749 
L 299.412723 325.061829 
L 302.326534 320.484181 
L 303.407897 318.89711 
L 303.855489 317.910449 
L 303.988108 317.162804 
L 304.073546 315.822398 
L 303.921799 313.617708 
L 303.574947 305.085768 
" clip-path="url(#p9ba2c7ef5d)" style="fill: none; stroke: #f29888; stroke-width: 0.2"/>
    <path d="M 413.797366 199.625856 
L 413.954215 196.227995 
L 415.261286 189.172221 
L 418.136841 175.949817 
L 419.182498 172.760378 
L 421.273812 168.997298 
L 424.723204 164.033399 
L 426.811967 160.696726 
" clip-path="url(#p9ba2c7ef5d)" style="fill: none; stroke: #f29888; stroke-width: 0.2"/>
    <path d="M 420.424534 205.890006 
L 424.071581 197.323647 
L 426.263634 190.569991 
L 427.046602 186.774406 
L 427.202175 184.913899 
L 426.811967 166.654935 
L 426.811967 160.696726 
L 427.439361 157.717622 
L 428.326894 153.587413 
L 429.73853 144.600384 
L 430.679621 139.164188 
L 431.725278 134.357084 
L 432.980066 131.429607 
L 435.280511 126.307001 
L 436.87705 122.505679 
" clip-path="url(#p9ba2c7ef5d)" style="fill: none; stroke: #f29888; stroke-width: 0.2"/>
    <path d="M 114.126178 254.624559 
L 113.084347 236.671535 
L 112.273325 218.370503 
L 109.840261 210.379696 
L 108.682387 205.398588 
L 111.114177 196.363756 
L 116.791327 187.793573 
L 123.04614 180.611599 
L 123.510309 175.401034 
L 122.351161 168.798436 
L 118.992307 160.111613 
L 119.499108 158.06772 
" clip-path="url(#p9ba2c7ef5d)" style="fill: none; stroke: #f29888; stroke-width: 0.2"/>
    <path d="M 418.298791 368.226335 
L 424.028224 368.853515 
L 430.427133 368.993101 
L 434.858423 370.190097 
L 450.612134 374.408264 
L 469.882822 379.402757 
L 485.004038 384.043505 
L 491.015289 386.005355 
L 498.086224 388.181363 
L 501.786828 389.043735 
L 505.544817 389.856392 
L 508.579772 390.814371 
L 513.054417 392.812551 
L 517.578795 394.39771 
L 518.713715 394.39771 
L 520.256697 394.39771 
L 521.707864 394.806906 
L 523.887166 395.713258 
L 526.790776 397.21237 
L 528.743094 397.937069 
L 530.55769 398.527918 
L 532.283024 399.254529 
L 537.637552 402.430583 
L 539.680408 403.5205 
L 540.814053 404.564525 
L 541.63145 405.426897 
L 542.448848 406.151596 
L 543.355509 406.742445 
L 544.536336 407.377273 
L 545.987503 407.78647 
L 547.16833 407.87634 
L 551.083167 408.53029 
" clip-path="url(#p9ba2c7ef5d)" style="fill: none; stroke: #f29888; stroke-width: 0.2"/>
    <path d="M 362.933818 362.813085 
L 363.746115 363.361867 
L 366.832077 365.444181 
L 385.53148 373.591783 
L 389.266515 375.219008 
L 412.412509 384.232807 
L 428.158568 391.114576 
L 441.671769 396.363383 
L 448.977339 399.20099 
L 469.161064 407.782646 
L 484.704368 413.759976 
L 493.217544 416.840423 
L 496.743448 418.427494 
L 501.262725 419.433276 
L 506.628729 419.591984 
L 514.865189 419.982059 
L 520.770599 420.05472 
L 528.340133 418.588113 
L 536.334306 416.486678 
L 542.173406 413.649072 
L 548.10177 410.438599 
L 551.083167 408.53029 
L 552.123723 407.864867 
L 556.797298 403.510939 
L 564.050585 396.166433 
L 564.771068 395.235224 
L 566.24774 392.908157 
L 574.660175 374.293536 
L 581.479897 356.227696 
" clip-path="url(#p9ba2c7ef5d)" style="fill: none; stroke: #f29888; stroke-width: 0.2"/>
    <path d="M 500.373917 361.053922 
L 498.018639 366.463348 
L 491.015289 386.005355 
" clip-path="url(#p9ba2c7ef5d)" style="fill: none; stroke: #f29888; stroke-width: 0.2"/>
    <path d="M 431.355473 335.859648 
L 435.077755 337.528941 
L 442.820716 340.582618 
L 463.812912 347.741647 
L 475.191443 351.076408 
L 483.137158 355.099537 
L 496.085449 359.610261 
L 500.373917 361.053922 
L 515.604799 366.182264 
L 524.916245 369.337285 
L 530.561516 371.410038 
L 532.345508 371.956908 
L 534.199636 372.226519 
L 536.104772 372.362281 
L 537.842857 372.490394 
" clip-path="url(#p9ba2c7ef5d)" style="fill: none; stroke: #f29888; stroke-width: 0.2"/>
    <path d="M 420.458965 310.772453 
L 427.147342 311.676893 
L 433.256783 313.195127 
L 441.970163 315.76121 
L 445.618485 316.694331 
L 449.742453 317.749829 
L 458.601206 319.809197 
L 468.650987 321.545415 
L 480.727047 324.402143 
L 490.162186 326.209109 
L 492.766127 327.293289 
L 494.103802 328.811523 
L 497.321109 333.584209 
L 498.008437 335.500167 
L 501.623604 340.200191 
L 511.312506 348.802881 
L 519.591047 356.432295 
L 537.842857 372.490394 
L 538.247093 372.84605 
L 547.610821 381.052928 
L 558.889887 390.234994 
L 564.771068 395.235224 
" clip-path="url(#p9ba2c7ef5d)" style="fill: none; stroke: #f29888; stroke-width: 0.2"/>
    <path d="M 413.797366 199.625856 
L 414.738457 201.297061 
L 416.666546 203.205371 
L 420.424534 205.890006 
L 436.84262 215.487006 
L 439.215751 216.833148 
L 456.782784 226.16436 
L 471.2358 233.843489 
L 478.733923 237.562589 
L 489.214719 241.929903 
L 501.842937 246.777162 
L 510.238795 249.184538 
L 523.285276 250.55745 
L 543.491954 251.930362 
L 544.823254 251.897856 
L 563.503528 251.440856 
L 583.513827 253.402705 
" clip-path="url(#p9ba2c7ef5d)" style="fill: none; stroke: #f29888; stroke-width: 0.2"/>
    <path d="M 506.618528 214.341638 
L 487.48301 208.953245 
" clip-path="url(#p9ba2c7ef5d)" style="fill: none; stroke: #f29888; stroke-width: 0.2"/>
    <path d="M 535.32308 172.226892 
L 530.838233 190.92756 
L 529.540088 199.549371 
L 524.855036 230.648314 
L 523.625752 240.732907 
L 523.285276 250.55745 
" clip-path="url(#p9ba2c7ef5d)" style="fill: none; stroke: #f29888; stroke-width: 0.2"/>
    <path d="M 515.404594 158.277877 
L 509.858788 193.155196 
L 508.23802 203.344956 
L 506.618528 214.341638 
L 501.842937 246.777162 
" clip-path="url(#p9ba2c7ef5d)" style="fill: none; stroke: #f29888; stroke-width: 0.2"/>
    <path d="M 529.540088 199.549371 
L 516.725692 194.983196 
L 509.858788 193.155196 
" clip-path="url(#p9ba2c7ef5d)" style="fill: none; stroke: #f29888; stroke-width: 0.2"/>
    <path d="M 503.19719 149.757409 
L 487.48301 208.953245 
L 478.733923 237.562589 
" clip-path="url(#p9ba2c7ef5d)" style="fill: none; stroke: #f29888; stroke-width: 0.2"/>
    <path d="M 456.782784 226.16436 
L 466.671891 201.08099 
L 477.213896 168.417922 
L 478.406199 164.056345 
L 481.962707 151.046187 
L 489.797482 140.44723 
" clip-path="url(#p9ba2c7ef5d)" style="fill: none; stroke: #f29888; stroke-width: 0.2"/>
    <path d="M 436.84262 215.487006 
L 442.490441 202.811471 
L 445.98574 192.296648 
L 449.062776 182.200582 
L 456.710098 158.356274 
L 458.328315 153.583588 
L 459.322964 150.92381 
L 459.852169 150.130275 
L 460.784333 149.428522 
L 462.259729 148.805166 
L 463.843517 148.409355 
L 465.503816 148.09194 
L 467.920303 147.120576 
L 470.251352 146.311744 
L 472.890998 145.470405 
" clip-path="url(#p9ba2c7ef5d)" style="fill: none; stroke: #f29888; stroke-width: 0.2"/>
    <path d="M 478.406199 164.056345 
L 456.710098 158.356274 
" clip-path="url(#p9ba2c7ef5d)" style="fill: none; stroke: #f29888; stroke-width: 0.2"/>
    <path d="M 481.962707 151.046187 
L 472.890998 145.470405 
L 441.990567 125.570829 
L 436.87705 122.505679 
" clip-path="url(#p9ba2c7ef5d)" style="fill: none; stroke: #f29888; stroke-width: 0.2"/>
    <path d="M 629.5342 237.300627 
L 611.459641 223.087737 
L 608.45529 220.445168 
L 605.552955 218.489056 
L 599.148946 214.356935 
L 593.10709 211.496383 
L 571.598441 197.071246 
L 552.030634 183.699695 
L 535.32308 172.226892 
L 515.404594 158.277877 
L 503.19719 149.757409 
L 489.797482 140.44723 
L 467.781307 125.817495 
L 443.428982 109.061467 
L 441.238643 107.548786 
" clip-path="url(#p9ba2c7ef5d)" style="fill: none; stroke: #f29888; stroke-width: 0.5"/>
    <path d="M 397.498379 77.282568 
L 359.869534 51.17353 
L 355.536587 48.228761 
" clip-path="url(#p9ba2c7ef5d)" style="fill: none; stroke: #f29888; stroke-width: 0.5"/>
   </g>
   <g id="LineCollection_2">
    <path d="M 617.009477 565.37316 
L 617.813918 561.447448 
L 622.004196 542.530709 
L 626.73643 522.235322 
L 632.662243 497.063993 
L 632.936409 495.866998 
L 636.054252 480.908376 
L 638.298588 468.986222 
L 651.016069 411.903294 
L 665.053373 351.317337 
L 666.694544 343.07604 
L 667.459659 337.488786 
L 667.986313 332.180702 
L 668.110006 328.167134 
L 668.099805 322.369544 
L 667.481337 311.565989 
L 666.267355 301.62863 
L 665.396399 296.727831 
L 665.095454 295.203861 
L 663.748852 289.895777 
L 661.921504 283.469096 
L 661.545322 282.191791 
L 660.739401 279.327414 
" clip-path="url(#p9ba2c7ef5d)" style="fill: none; stroke-dasharray: 3.7,1.6; stroke-dashoffset: 0; stroke: #f29888"/>
    <path d="M 627.623963 526.254627 
L 630.041726 511.487218 
" clip-path="url(#p9ba2c7ef5d)" style="fill: none; stroke-dasharray: 3.7,1.6; stroke-dashoffset: 0; stroke: #f29888"/>
    <path d="M 630.503345 509.588469 
L 632.662243 497.063993 
" clip-path="url(#p9ba2c7ef5d)" style="fill: none; stroke-dasharray: 3.7,1.6; stroke-dashoffset: 0; stroke: #f29888"/>
    <path d="M 634.290662 494.09445 
L 638.424832 479.45133 
" clip-path="url(#p9ba2c7ef5d)" style="fill: none; stroke-dasharray: 3.7,1.6; stroke-dashoffset: 0; stroke: #f29888"/>
    <path d="M 638.399328 487.872367 
L 641.283811 475.267581 
L 646.079804 454.209252 
" clip-path="url(#p9ba2c7ef5d)" style="fill: none; stroke-dasharray: 3.7,1.6; stroke-dashoffset: 0; stroke: #f29888"/>
    <path d="M 624.370951 471.705276 
L 629.938435 446.096069 
L 630.887177 441.90276 
L 634.115961 428.20041 
" clip-path="url(#p9ba2c7ef5d)" style="fill: none; stroke-dasharray: 3.7,1.6; stroke-dashoffset: 0; stroke: #f29888"/>
    <path d="M 625.456138 471.969151 
L 631.193223 446.554981 
L 635.203699 426.810288 
L 636.213651 422.094967 
" clip-path="url(#p9ba2c7ef5d)" style="fill: none; stroke-dasharray: 3.7,1.6; stroke-dashoffset: 0; stroke: #f29888"/>
    <path d="M 628.469415 444.933492 
L 631.254432 435.994267 
L 633.551052 429.932803 
L 634.115961 428.20041 
L 635.050676 425.339858 
" clip-path="url(#p9ba2c7ef5d)" style="fill: none; stroke-dasharray: 3.7,1.6; stroke-dashoffset: 0; stroke: #f29888"/>
    <path d="M 634.720402 482.505007 
L 634.74463 478.271543 
L 634.317441 468.368603 
L 634.214151 461.184716 
L 634.402879 457.832746 
L 634.967789 454.840257 
L 644.288161 412.100244 
L 645.193546 407.482441 
L 646.903578 399.529877 
L 647.759231 396.160697 
L 649.007643 392.466455 
L 651.435607 384.789238 
L 652.506768 380.829209 
" clip-path="url(#p9ba2c7ef5d)" style="fill: none; stroke-dasharray: 3.7,1.6; stroke-dashoffset: 0; stroke: #f29888"/>
    <path d="M 636.065728 459.607206 
L 643.775534 423.594079 
L 646.225176 413.125147 
L 649.285635 400.176178 
L 652.163741 386.429848 
L 654.612108 374.551674 
L 656.285159 366.88593 
" clip-path="url(#p9ba2c7ef5d)" style="fill: none; stroke-dasharray: 3.7,1.6; stroke-dashoffset: 0; stroke: #f29888"/>
    <path d="M 639.790562 472.75695 
L 641.800263 467.508143 
L 644.475614 459.817541 
L 646.079804 454.209252 
L 656.957185 406.447976 
L 658.725875 397.80322 
L 659.680993 390.282798 
" clip-path="url(#p9ba2c7ef5d)" style="fill: none; stroke-dasharray: 3.7,1.6; stroke-dashoffset: 0; stroke: #f29888"/>
    <path d="M 664.311212 296.59207 
L 664.474436 305.311399 
L 664.781757 312.290688 
L 664.867195 315.436147 
L 665.015117 321.598954 
L 664.96666 326.528435 
L 664.553498 333.398732 
L 663.771806 339.760401 
L 662.290034 348.508412 
L 659.686094 360.113152 
L 655.058425 380.322493 
L 648.551125 408.161248 
L 644.538098 425.479443 
L 636.47634 462.467758 
L 635.448536 470.557996 
L 634.720402 482.505007 
L 634.631138 484.807216 
" clip-path="url(#p9ba2c7ef5d)" style="fill: none; stroke-dasharray: 3.7,1.6; stroke-dashoffset: 0; stroke: #f29888"/>
    <path d="M 669.441306 313.044068 
L 669.934805 315.195219 
L 670.610656 321.606603 
L 670.715222 330.343142 
L 670.221723 337.702945 
L 669.184992 345.29794 
L 667.448182 355.304136 
L 662.005666 380.421924 
L 659.680993 390.282798 
L 659.232126 392.189195 
L 656.920204 402.46309 
L 642.543699 464.509917 
L 641.800263 467.508143 
" clip-path="url(#p9ba2c7ef5d)" style="fill: none; stroke-dasharray: 3.7,1.6; stroke-dashoffset: 0; stroke: #f29888"/>
    <path d="M 665.396399 296.727831 
L 665.946007 304.366805 
L 666.494339 311.455085 
L 666.866695 317.447712 
L 667.128109 322.533988 
L 667.221198 328.234058 
L 667.018442 331.976104 
L 666.537695 337.440982 
L 665.724124 342.777748 
L 664.206646 350.634705 
L 650.878349 408.256855 
L 640.138689 457.19983 
L 639.122362 462.364503 
L 638.298588 468.986222 
" clip-path="url(#p9ba2c7ef5d)" style="fill: none; stroke-dasharray: 3.7,1.6; stroke-dashoffset: 0; stroke: #f29888"/>
    <path d="M 665.943456 295.003087 
L 667.613957 301.489044 
L 669.056198 309.659591 
" clip-path="url(#p9ba2c7ef5d)" style="fill: none; stroke-dasharray: 3.7,1.6; stroke-dashoffset: 0; stroke: #f29888"/>
    <path d="M 665.095454 295.203861 
L 664.415777 290.78492 
L 662.810312 283.283619 
" clip-path="url(#p9ba2c7ef5d)" style="fill: none; stroke-dasharray: 3.7,1.6; stroke-dashoffset: 0; stroke: #f29888"/>
    <path d="M 658.742452 269.374758 
L 661.013568 276.386553 
L 662.412452 281.937477 
" clip-path="url(#p9ba2c7ef5d)" style="fill: none; stroke-dasharray: 3.7,1.6; stroke-dashoffset: 0; stroke: #f29888"/>
    <path d="M 660.739401 279.327414 
L 658.037271 270.453202 
L 656.736577 266.573482 
" clip-path="url(#p9ba2c7ef5d)" style="fill: none; stroke-dasharray: 3.7,1.6; stroke-dashoffset: 0; stroke: #f29888"/>
    <path d="M 642.176444 242.952894 
L 646.508269 249.446501 
L 650.25223 255.364554 
L 653.539672 261.835215 
L 656.002066 267.080198 
L 657.145913 269.94075 
L 658.92608 274.487804 
L 660.739401 279.327414 
" clip-path="url(#p9ba2c7ef5d)" style="fill: none; stroke-dasharray: 3.7,1.6; stroke-dashoffset: 0; stroke: #f29888"/>
    <path d="M 635.050676 425.339858 
L 636.213651 422.094967 
L 639.459012 413.21693 
L 644.203998 401.52232 
L 647.296337 393.28676 
L 650.448609 384.378129 
L 654.835267 371.111745 
" clip-path="url(#p9ba2c7ef5d)" style="fill: none; stroke-dasharray: 3.7,1.6; stroke-dashoffset: 0; stroke: #f29888"/>
    <path d="M 664.867195 315.436147 
L 664.570076 321.753837 
L 664.057449 326.467247 
L 663.46321 332.618581 
L 662.552723 340.228873 
L 661.454784 347.011212 
L 660.358119 352.652006 
L 658.492515 359.85119 
L 656.285159 366.88593 
L 656.165291 367.268356 
L 654.835267 371.111745 
L 653.923505 374.513431 
L 652.506768 380.829209 
L 648.214474 400.053801 
L 645.109384 413.834549 
L 642.247855 426.17546 
L 635.512296 457.895846 
L 634.813491 461.219135 
L 634.437309 464.622733 
L 634.317441 468.368603 
" clip-path="url(#p9ba2c7ef5d)" style="fill: none; stroke-dasharray: 3.7,1.6; stroke-dashoffset: 0; stroke: #f29888"/>
    <path d="M 661.921504 283.469096 
L 663.892949 293.804179 
L 664.311212 296.59207 
L 664.5688 298.314902 
L 665.171966 303.642107 
L 665.546872 308.135621 
L 665.919228 314.024993 
L 666.162789 322.591352 
L 666.194669 328.167134 
L 665.990638 332.05259 
L 665.476736 337.263154 
L 664.711622 342.49284 
L 663.13166 350.401425 
L 650.479214 405.929788 
L 637.890527 461.391227 
L 637.388102 464.462114 
L 636.610235 471.179439 
L 635.634714 478.539242 
L 634.631138 484.807216 
L 634.517646 485.568246 
L 632.936409 495.866998 
" clip-path="url(#p9ba2c7ef5d)" style="fill: none; stroke-dasharray: 3.7,1.6; stroke-dashoffset: 0; stroke: #f29888"/>
    <path d="M 618.482152 566.031679 
L 618.916958 562.369097 
L 620.139867 555.296114 
L 622.654543 543.316596 
L 630.041726 511.487218 
L 630.503345 509.588469 
L 634.290662 494.09445 
L 646.162692 439.604375 
L 650.201222 422.165716 
L 652.583279 411.754147 
L 654.930906 401.394207 
L 657.100006 391.08207 
L 660.879672 374.857615 
L 663.688918 362.874273 
L 666.147487 352.317383 
L 667.306636 345.299852 
L 668.250277 339.571099 
L 668.776931 333.907359 
L 669.084252 327.631736 
L 668.974586 320.914411 
L 668.507866 312.741951 
L 667.466035 304.141174 
L 666.896024 300.274839 
L 665.943456 295.003087 
L 664.781757 290.609003 
L 662.810312 283.283619 
L 662.412452 281.937477 
L 660.618258 276.405674 
L 657.976062 269.565972 
L 656.736577 266.573482 
L 654.326465 261.441315 
L 650.944658 254.909467 
L 647.581979 248.870948 
L 644.15044 243.589635 
L 639.892577 237.51861 
L 636.781111 233.432381 
L 632.836945 228.606155 
L 629.545676 224.952068 
L 626.50052 221.798959 
L 620.211277 215.745144 
L 615.350249 211.618759 
L 609.485645 207.134805 
L 603.102038 202.528475 
L 447.467018 93.033564 
" clip-path="url(#p9ba2c7ef5d)" style="fill: none; stroke-dasharray: 3.7,1.6; stroke-dashoffset: 0; stroke: #f29888"/>
    <path d="M 619.253165 566.376443 
L 619.654019 562.420724 
L 620.834846 555.303762 
L 623.392879 543.416027 
L 627.623963 526.254627 
L 634.886177 494.555274 
L 638.369999 479.719028 
L 638.424832 479.45133 
L 639.790562 472.75695 
L 646.986465 439.95812 
L 650.996941 422.397084 
L 663.965635 367.178486 
L 667.537445 350.219772 
L 668.375246 345.383986 
L 669.559898 336.331945 
L 669.961584 329.467385 
L 669.992188 321.811201 
L 669.526743 313.858637 
L 669.441306 313.044068 
L 669.056198 309.659591 
L 667.937855 300.653442 
L 667.134485 296.44866 
L 665.997014 291.412099 
L 663.183943 281.694636 
L 661.332365 276.369343 
L 658.742452 269.374758 
L 657.413703 266.273277 
L 655.02782 261.047416 
L 651.531246 254.488797 
L 648.100982 248.308781 
L 644.68092 243.128811 
L 640.559502 237.210757 
L 637.44166 233.139824 
L 633.363598 228.133858 
L 630.092733 224.540959 
L 626.928984 221.37829 
L 620.721354 215.238428 
L 615.940662 211.255454 
L 609.930686 206.622354 
L 603.599363 201.966308 
L 447.803838 92.248604 
" clip-path="url(#p9ba2c7ef5d)" style="fill: none; stroke-dasharray: 3.7,1.6; stroke-dashoffset: 0; stroke: #f29888"/>
   </g>
  </g>
 </g>
 <defs>
  <clipPath id="p9ba2c7ef5d">
   <rect x="7.2" y="7.2" width="837" height="705.761291"/>
  </clipPath>
 </defs>
</svg>
