<?xml version="1.0" encoding="utf-8" standalone="no"?>
<!DOCTYPE svg PUBLIC "-//W3C//DTD SVG 1.1//EN"
  "http://www.w3.org/Graphics/SVG/1.1/DTD/svg11.dtd">
<svg xmlns:xlink="http://www.w3.org/1999/xlink" width="424.451599pt" height="846pt" viewBox="0 0 424.451599 846" xmlns="http://www.w3.org/2000/svg" version="1.1">
 <metadata>
  <rdf:RDF xmlns:dc="http://purl.org/dc/elements/1.1/" xmlns:cc="http://creativecommons.org/ns#" xmlns:rdf="http://www.w3.org/1999/02/22-rdf-syntax-ns#">
   <cc:Work>
    <dc:type rdf:resource="http://purl.org/dc/dcmitype/StillImage"/>
    <dc:date>2025-03-16T14:30:02.914280</dc:date>
    <dc:format>image/svg+xml</dc:format>
    <dc:creator>
     <cc:Agent>
      <dc:title>Matplotlib v3.10.1, https://matplotlib.org/</dc:title>
     </cc:Agent>
    </dc:creator>
   </cc:Work>
  </rdf:RDF>
 </metadata>
 <defs>
  <style type="text/css">*{stroke-linejoin: round; stroke-linecap: butt}</style>
 </defs>
 <g id="figure_1">
  <g id="patch_1">
   <path d="M 0 846 
L 424.451599 846 
L 424.451599 0 
L 0 0 
z
" style="fill: #ffffff"/>
  </g>
  <g id="axes_1">
   <g id="PatchCollection_1">
    <path d="M 115.458976 370.331332 
L 113.590983 369.309863 
L 109.997342 373.260458 
L 108.772566 380.690464 
L 104.974923 386.121098 
L 104.280706 386.161223 
L 103.545383 395.715563 
L 107.180129 405.678031 
L 110.569006 414.170777 
L 117.388626 422.74492 
L 123.064158 427.236628 
L 133.76287 433.523645 
L 144.501925 439.199615 
L 158.630619 445.895907 
L 190.767099 461.208759 
L 200.975596 468.803851 
L 210.939747 480.359856 
L 217.636052 489.751402 
L 220.04526 496.490112 
L 221.597354 500.859153 
L 223.965457 511.680296 
L 225.51755 522.951986 
L 229.478091 550.64054 
L 231.887299 566.098989 
L 234.153401 579.616533 
L 236.767373 595.320318 
L 237.54304 599.997748 
L 239.237478 605.735625 
L 241.76924 613.414407 
L 247.894643 626.239508 
L 250.364747 630.875667 
L 258.980807 647.438127 
L 264.84055 657.405181 
L 269.372754 662.838108 
L 278.029919 671.987758 
L 278.785033 671.313658 
L 277.580809 669.740757 
L 277.519152 669.251232 
L 279.071245 668.373067 
L 278.418133 666.739406 
L 279.152694 666.411527 
L 278.295579 663.470937 
L 283.583658 662.49074 
L 281.194241 642.333079 
L 289.07574 639.453249 
L 290.688729 638.616356 
L 292.158613 637.145487 
L 304.837215 636.021987 
L 304.898872 633.204064 
L 301.305231 623.359678 
L 299.835348 618.275266 
L 296.466262 611.882778 
L 295.670044 607.144587 
L 294.486372 603.367103 
L 290.034856 588.296147 
L 289.810301 582.148995 
L 304.021205 583.803292 
L 312.800162 585.436953 
L 314.515153 585.436953 
L 314.801365 584.966917 
L 328.255633 586.621214 
L 330.419734 587.765351 
L 338.525788 587.765351 
L 340.914443 586.927311 
L 341.384106 584.987553 
L 345.487753 580.82143 
L 347.488956 579.719712 
L 351.102388 574.430088 
L 351.551498 564.79206 
L 351.204389 560.911397 
L 351.694604 558.318175 
L 353.4507 555.84762 
L 353.858705 554.132563 
L 353.491044 552.661694 
L 351.164045 550.619904 
L 348.081172 547.883378 
L 342.466537 542.942269 
L 340.424229 541.390004 
L 336.749139 540.798447 
L 335.667469 540.879843 
L 333.60537 539.491518 
L 330.399943 535.366666 
L 338.505235 523.524055 
L 323.621428 510.149814 
L 326.561195 506.208391 
L 319.884681 501.900111 
L 312.249051 508.720217 
L 309.492734 512.620368 
L 303.734992 513.069768 
L 301.938552 511.660807 
L 300.652119 510.087907 
L 297.977251 508.88301 
L 293.505943 507.250495 
L 290.811283 506.943252 
L 286.278318 505.00464 
L 284.379877 504.718033 
L 283.419999 504.10584 
L 281.970668 503.615168 
L 268.229427 499.204856 
L 267.208653 499.266763 
L 264.697444 499.980988 
L 263.49322 500.02226 
L 260.736903 499.491463 
L 259.286811 499.083334 
L 253.692728 497.122941 
L 250.936411 495.918044 
L 249.649978 495.039879 
L 248.466306 494.305018 
L 245.587436 494.223622 
L 239.482586 492.406532 
L 237.114482 490.976935 
L 235.562389 489.465942 
L 233.908294 486.995387 
L 226.578668 481.196749 
L 217.98316 470.232302 
L 217.636052 469.395409 
L 216.941834 468.293691 
L 215.145395 466.537361 
L 213.164744 464.986243 
L 207.387211 461.841588 
L 204.630894 459.125698 
L 196.851396 454.941232 
L 195.483514 453.143631 
L 193.339966 451.877974 
L 188.35789 447.080168 
L 185.499572 444.732282 
L 182.06959 442.813159 
L 185.581782 437.852561 
L 171.146323 432.462052 
L 163.347035 433.075391 
L 161.530042 433.564917 
L 154.649526 430.278105 
L 146.503129 425.848303 
L 142.726038 424.296038 
L 141.378708 423.377748 
L 142.501483 422.316155 
L 144.114473 419.3962 
L 146.114915 416.742217 
L 148.606333 413.680105 
L 151.036094 410.149104 
L 150.953884 409.087511 
L 150.014559 407.923885 
L 145.176351 404.371102 
L 136.090629 397.634685 
L 132.374435 394.71473 
L 130.781998 393.327551 
L 123.963139 388.142253 
L 123.146368 387.060024 
L 122.594495 384.997598 
L 121.675723 378.567278 
L 119.287067 374.770305 
L 115.458976 370.331332 
" clip-path="url(#pbdb38752f0)" style="fill: #fbd6c9"/>
    <path d="M 47.832155 474.926929 
L 55.149602 479.748809 
L 66.018824 485.519933 
L 76.492981 490.811849 
L 92.271202 499.757435 
L 96.036874 501.318871 
L 107.012664 502.535232 
L 129.319726 502.833304 
L 139.108039 507.038405 
L 163.600515 514.035062 
L 170.369896 516.104366 
L 173.869147 517.962727 
L 177.123291 521.128018 
L 202.78726 553.338087 
L 205.788684 558.513068 
L 205.929507 562.150687 
L 205.418739 565.301074 
L 205.296947 570.006019 
L 204.055424 574.574538 
L 204.570759 581.361398 
L 203.166339 595.104789 
L 202.410464 599.886544 
L 202.227014 602.950949 
L 199.424264 616.845669 
L 200.261587 619.398766 
L 199.771372 621.317888 
L 199.75082 622.318721 
L 200.833251 623.217521 
L 200.975596 625.627315 
L 201.792367 635.878683 
L 201.833472 637.738191 
L 203.365013 643.109211 
L 207.01955 650.175799 
L 211.4292 658.181313 
L 212.287076 662.082611 
L 216.819281 670.150032 
L 217.473154 672.069154 
L 218.207715 673.090622 
L 218.452823 674.336791 
L 220.658029 677.624749 
L 224.700779 684.834641 
L 236.539012 693.860477 
L 238.298153 693.02473 
L 241.238681 692.984605 
L 244.178448 693.270066 
L 247.363323 694.699663 
L 249.40487 696.782724 
L 250.915859 699.479125 
L 251.528627 702.420862 
L 250.303851 709.406054 
L 250.017639 714.144245 
L 249.732188 718.311515 
L 250.181297 721.293377 
L 251.119861 724.153717 
L 252.263188 726.726304 
L 254.305497 728.93318 
L 255.938278 729.668041 
L 258.756252 730.036044 
L 260.634902 729.137244 
L 266.304344 725.521407 
L 270.67974 722.356116 
L 274.068617 720.76258 
L 276.96804 720.435848 
L 280.439127 720.394576 
L 283.583658 721.579984 
L 285.706654 723.254917 
L 287.993309 726.890243 
L 291.137839 733.017906 
L 292.771382 736.613108 
L 295.058036 741.637906 
L 297.058478 746.826644 
L 298.488018 750.503241 
L 302.163107 759.164513 
L 308.777964 766.39504 
L 310.615509 766.844441 
L 312.739266 766.600251 
L 313.718934 765.741576 
L 313.922937 754.261236 
L 314.617154 749.400377 
L 315.39282 745.518568 
L 316.766792 742.367035 
L 319.498751 739.998512 
L 323.600875 738.941505 
L 326.78575 739.268237 
L 332.053276 741.515238 
L 335.932368 742.823313 
L 339.689667 745.110439 
L 343.446205 749.523045 
L 345.447409 751.81017 
L 349.611952 757.202973 
L 353.409595 762.963778 
L 357.248343 769.459445 
L 359.208442 774.606911 
L 361.208884 785.843062 
L 365.864403 801 
L 372.601813 799.345703 
L 376.70546 798.977699 
L 380.053993 797.936742 
L 384.566406 797.752167 
L 385.913736 797.098702 
L 387.342514 796.832731 
L 394.937801 795.688594 
L 398.61289 794.58573 
L 397.388114 792.992193 
L 395.83602 790.663796 
L 390.44594 782.737386 
L 385.015516 775.138854 
L 381.095319 770.930313 
L 376.154349 765.373572 
L 367.45684 757.734916 
L 361.576545 751.36077 
L 356.554126 744.702311 
L 357.452346 743.394235 
L 353.818361 739.717637 
L 342.915647 731.138909 
L 337.1168 726.726304 
L 328.123184 720.122873 
L 322.130992 715.656385 
L 315.107369 709.528722 
L 299.957902 697.232125 
L 277.784812 679.463621 
L 265.085657 667.16817 
L 260.961458 661.081779 
L 253.529069 650.502532 
L 244.382451 631.957896 
L 236.215501 614.067871 
L 231.968748 601.85611 
L 230.907631 595.852261 
L 227.681651 578.248843 
L 226.293216 570.488665 
L 223.230135 552.642205 
L 220.903136 537.572396 
L 217.636052 517.030681 
L 212.777291 504.861337 
L 210.08187 498.041231 
L 204.978003 485.505029 
L 184.805355 465.863261 
L 178.884716 461.820952 
L 172.106201 457.166451 
L 159.44739 450.878287 
L 152.546321 447.4069 
L 133.681421 437.688622 
L 128.74045 435.198578 
L 123.962378 432.34053 
L 122.533599 431.483001 
L 119.185066 429.277272 
L 117.420597 428.251218 
L 115.525962 426.320632 
L 111.305851 421.699376 
L 106.608465 415.885835 
L 101.503836 407.597153 
L 97.543296 397.307953 
L 94.847875 387.998949 
L 97.21674 383.712451 
L 96.073412 374.158112 
L 96.562866 365.666512 
L 97.011976 355.459855 
L 98.564069 348.968773 
L 99.992848 342.517817 
L 105.016028 337.129601 
L 112.202548 328.658637 
L 133.354865 307.511608 
L 149.851662 291.039716 
L 155.364296 286.141024 
L 157.528397 282.91612 
L 162.745684 275.244217 
L 164.813112 271.178979 
L 168.847489 263.04048 
L 170.206998 260.251218 
L 170.595212 257.505521 
L 170.881425 255.506148 
L 171.401326 252.252583 
L 172.199067 246.385159 
L 172.693088 241.804029 
L 173.063794 237.507213 
L 173.228975 235.280848 
L 172.922972 233.055629 
L 172.065096 226.729634 
L 171.330535 222.218436 
L 169.757889 218.361848 
L 167.900553 213.891922 
L 164.899128 206.627001 
L 161.816255 202.708507 
L 155.915407 195.097365 
L 142.093478 181.321874 
L 133.599972 172.505835 
L 125.902685 164.057799 
L 120.573501 160.038419 
L 117.307177 153.202263 
L 113.753881 145.570485 
L 109.752235 136.264921 
L 106.56736 128.385514 
L 104.831817 124.022205 
L 104.525813 118.982503 
L 103.443382 103.536665 
L 103.852148 100.515825 
L 104.852369 90.498328 
L 105.301479 86.947837 
L 108.608908 82.459568 
L 111.998546 77.86812 
L 116.3473 69.727327 
L 117.470075 68.38142 
L 117.575121 65.781319 
L 117.542389 62.992057 
L 117.102414 61.280438 
L 115.938534 60.342659 
L 115.918743 59.342973 
L 111.624795 54.498164 
L 110.038447 52.609996 
L 109.07857 50.814688 
L 108.915673 48.651376 
L 108.241246 47.366229 
L 107.302683 46.814797 
L 105.750589 45.387493 
L 104.566918 45 
L 101.116384 47.101404 
L 100.156507 48.651376 
L 98.726967 51.304213 
L 98.277857 53.833236 
L 98.747519 55.637715 
L 97.645297 58.73078 
L 97.890404 59.668559 
L 97.338532 61.15777 
L 96.583418 61.892631 
L 95.256641 68.360784 
L 94.113314 72.869689 
L 93.868206 75.623412 
L 94.194763 76.664369 
L 93.643651 80.602353 
L 93.561441 82.928457 
L 94.235868 84.173479 
L 94.766426 85.804848 
L 94.031104 88.416413 
L 93.398544 90.661121 
L 93.398544 94.456947 
L 94.868427 95.884252 
L 95.358642 96.741781 
L 95.440091 97.88477 
L 93.377991 102.393676 
L 93.468575 104.990337 
L 93.785996 107.902267 
L 95.317537 109.412114 
L 95.909753 110.555104 
L 96.645076 110.881836 
L 97.113977 111.718729 
L 97.537967 113.06693 
L 97.155082 117.941546 
L 97.521221 119.654311 
L 97.441294 121.63534 
L 96.747077 122.16499 
L 96.68542 125.20532 
L 97.788403 129.246482 
L 98.522964 135.75476 
L 99.176077 137.877946 
L 98.645518 140.67294 
L 98.809177 141.774658 
L 97.930748 143.815302 
L 98.155303 146.366107 
L 98.911178 150.263965 
L 99.135733 155.018206 
L 100.27906 160.017783 
L 102.15771 163.915642 
L 104.831817 166.221111 
L 106.301701 166.547843 
L 110.078791 166.731272 
L 110.895562 165.302821 
L 112.570209 165.752221 
L 113.611535 167.404225 
L 115.101971 167.914386 
L 117.42897 168.098961 
L 119.001616 169.078012 
L 122.145385 169.240805 
L 123.758375 169.914905 
L 124.616251 171.037259 
L 125.065361 172.241009 
L 124.024035 173.914796 
L 124.43204 176.526361 
L 124.901702 177.60859 
L 125.331021 181.648606 
L 124.167141 185.933958 
L 124.759357 186.587422 
L 126.616693 186.219418 
L 127.793514 185.798679 
L 128.495343 186.423483 
L 128.863004 188.811494 
L 129.924883 192.668082 
L 132.068431 195.116854 
L 134.089426 200.484434 
L 135.151304 204.055561 
L 136.111182 208.361548 
L 134.885644 213.341636 
L 135.273858 215.178215 
L 137.070298 216.994159 
L 140.071722 219.667631 
L 144.604688 221.708275 
L 146.114915 222.811139 
L 149.708556 228.484817 
L 150.259667 230.627492 
L 156.181067 238.158385 
L 156.609625 239.872296 
L 157.222393 244.811112 
L 156.098857 250.688854 
L 156.11941 254.852684 
L 154.13952 260.138868 
L 152.832534 262.670183 
L 151.913762 264.240791 
L 150.259667 264.914891 
L 149.463448 266.078517 
L 149.627107 268.11916 
L 149.790004 269.200243 
L 149.606554 269.997011 
L 148.993786 271.058604 
L 148.585781 272.425148 
L 148.93289 273.89487 
L 148.48378 275.527385 
L 148.463227 277.059014 
L 147.202675 279.356458 
L 144.339028 281.528941 
L 138.846946 283.916952 
L 136.00918 285.998867 
L 132.496989 286.182296 
L 131.43511 286.937793 
L 130.761445 288.100272 
L 130.006331 288.978436 
L 128.250236 289.917362 
L 127.515674 291.101623 
L 124.003483 293.795731 
L 120.573501 296.346535 
L 118.205397 297.959561 
L 114.591204 301.551323 
L 109.711891 301.511198 
L 108.935464 302.286184 
L 107.527238 302.53152 
L 104.301258 303.491081 
L 100.850724 305.715153 
L 98.788624 306.715986 
L 96.971632 306.858143 
L 95.7872 307.430211 
L 94.807531 309.532762 
L 93.766205 309.512126 
L 92.908329 308.838026 
L 92.234664 308.715358 
L 89.927457 310.022287 
L 85.701256 313.859385 
L 82.332171 316.451461 
L 76.543981 320.575166 
L 74.502434 322.555049 
L 75.99287 324.106168 
L 75.80942 325.320236 
L 69.195325 332.111681 
L 62.384839 338.720845 
L 58.538479 342.404321 
L 47.888484 352.479139 
L 43.192621 360.33791 
L 39.68119 365.687148 
L 38.537863 368.851292 
L 37.25143 370.769268 
L 35.352989 373.606679 
L 34.004898 375.281612 
L 32.841779 376.668791 
L 31.514241 380.282335 
L 31.371134 381.1605 
L 31.310238 385.815002 
L 30.51402 393.245008 
L 29.676696 397.859385 
L 27.982257 401.819151 
L 27.778255 403.309509 
L 27.716598 406.739624 
L 27.084038 409.087511 
L 27.10459 411.230187 
L 26.654719 413.261659 
L 25.899605 415.92596 
L 26.083055 416.814442 
L 25.838709 418.988072 
L 27.103829 422.050184 
L 28.859925 427.236628 
L 31.922246 433.442249 
L 36.251209 446.570007 
L 37.537642 448.836497 
L 37.557433 450.245459 
L 38.843867 454.165099 
L 38.905524 455.655457 
L 40.150853 458.860873 
L 42.273849 466.660029 
L 44.765267 470.620941 
L 44.356501 471.151738 
L 47.832155 474.926929 
" clip-path="url(#pbdb38752f0)" style="fill: #fbd6c9"/>
   </g>
   <g id="PatchCollection_2">
    <path d="M 99.970012 471.438345 
L 98.841147 473.834382 
L 94.9141 471.984046 
L 96.042203 469.588009 
L 99.970012 471.438345 
" clip-path="url(#pbdb38752f0)" style="fill: #e6482f"/>
   </g>
   <g id="LineCollection_1">
    <path d="M 386.283888 797.029797 
L 387.397321 796.792606 
L 394.940845 795.672544 
L 395.522575 795.513108 
" clip-path="url(#pbdb38752f0)" style="fill: none; stroke: #e6482f; stroke-width: 0.2"/>
    <path d="M 396.731222 795.150403 
L 397.272411 794.711837 
L 397.577654 794.308294 
L 397.665192 793.902458 
L 397.560907 793.446179 
L 397.334031 792.91106 
" clip-path="url(#pbdb38752f0)" style="fill: none; stroke: #e6482f; stroke-width: 0.2"/>
    <path d="M 397.577654 794.308294 
L 397.943792 794.702665 
L 397.980379 794.775541 
" clip-path="url(#pbdb38752f0)" style="fill: none; stroke: #e6482f; stroke-width: 0.2"/>
    <path d="M 394.940845 795.672544 
L 395.484345 795.238048 
L 396.076561 794.364469 
L 396.331564 793.682344 
L 396.381042 792.879843 
L 396.402356 791.560304 
" clip-path="url(#pbdb38752f0)" style="fill: none; stroke: #e6482f; stroke-width: 0.2"/>
    <path d="M 327.980077 720.653669 
L 319.813889 735.060843 
L 318.507664 736.449168 
L 316.629014 736.858443 
L 315.322028 738.083976 
L 311.729149 743.150046 
L 309.033728 745.355775 
L 306.093961 746.90804 
L 304.052414 750.748577 
L 303.643648 752.708971 
L 304.624078 754.343779 
L 307.726742 757.856437 
" clip-path="url(#pbdb38752f0)" style="fill: none; stroke: #e6482f; stroke-width: 0.2"/>
    <path d="M 241.158977 692.985693 
L 241.575895 692.57533 
L 243.290885 691.759072 
L 246.089069 691.494247 
L 247.271979 690.675697 
L 249.088971 689.389404 
L 250.303851 688.163871 
L 252.406295 685.529377 
L 253.529069 684.916038 
L 254.754607 683.548348 
L 256.300611 680.736158 
" clip-path="url(#pbdb38752f0)" style="fill: none; stroke: #e6482f; stroke-width: 0.2"/>
    <path d="M 253.448382 678.831939 
L 258.878806 672.029029 
L 264.166885 666.739406 
L 264.440458 666.216001 
" clip-path="url(#pbdb38752f0)" style="fill: none; stroke: #e6482f; stroke-width: 0.2"/>
    <path d="M 267.36779 660.43468 
L 267.957677 659.943375 
" clip-path="url(#pbdb38752f0)" style="fill: none; stroke: #e6482f; stroke-width: 0.2"/>
    <path d="M 288.6586 639.288163 
L 288.450633 639.681657 
" clip-path="url(#pbdb38752f0)" style="fill: none; stroke: #e6482f; stroke-width: 0.2"/>
    <path d="M 280.815162 642.212704 
L 281.542253 645.268988 
" clip-path="url(#pbdb38752f0)" style="fill: none; stroke: #e6482f; stroke-width: 0.2"/>
    <path d="M 396.752918 792.039294 
L 396.402356 791.560304 
L 395.452494 790.099799 
" clip-path="url(#pbdb38752f0)" style="fill: none; stroke: #e6482f; stroke-width: 0.2"/>
    <path d="M 359.513647 748.625889 
L 355.668085 744.16005 
L 351.384033 739.322119 
L 348.751031 736.468657 
L 344.694579 733.009881 
L 338.077439 727.479508 
L 327.980077 720.653669 
L 321.266265 715.923503 
L 311.602789 709.399176 
L 307.714563 706.925182 
L 302.105256 703.434306 
L 291.645562 697.875271 
L 270.366886 688.599514 
L 263.017468 684.789931 
L 257.672299 681.199315 
L 256.300611 680.736158 
L 253.448382 678.831939 
L 249.745128 675.965866 
L 242.644624 667.732213 
L 240.94029 664.610487 
L 235.275415 650.458967 
L 230.568895 635.99218 
L 224.814199 610.739788 
L 220.976973 588.258315 
L 220.406832 575.182146 
L 220.205874 569.561204 
L 219.788735 557.642928 
L 217.382571 544.35123 
L 216.476739 539.348214 
L 215.729999 535.054838 
L 214.776211 529.578346 
L 212.912024 521.180754 
L 211.997819 518.281435 
L 211.048599 513.886026 
L 210.165603 512.380765 
L 203.017904 503.799743 
L 202.188954 502.209646 
L 201.710918 500.919914 
L 201.551827 499.839978 
L 201.147628 495.882505 
L 200.512784 492.389335 
" clip-path="url(#pbdb38752f0)" style="fill: none; stroke: #e6482f; stroke-width: 0.2"/>
    <path d="M 263.919494 644.470022 
L 273.5137 643.29264 
L 275.967058 643.072525 
L 278.560478 642.803114 
L 280.815162 642.212704 
L 287.319644 639.870549 
L 288.6586 639.288163 
L 291.362394 637.655648 
L 291.843475 637.03543 
" clip-path="url(#pbdb38752f0)" style="fill: none; stroke: #e6482f; stroke-width: 0.2"/>
    <path d="M 275.967058 643.072525 
L 277.254253 641.719739 
L 277.810692 640.746421 
L 277.94847 639.882013 
L 278.009367 638.962577 
L 277.953799 637.844809 
" clip-path="url(#pbdb38752f0)" style="fill: none; stroke: #e6482f; stroke-width: 0.2"/>
    <path d="M 288.6586 639.288163 
L 289.309734 639.331842 
" clip-path="url(#pbdb38752f0)" style="fill: none; stroke: #e6482f; stroke-width: 0.2"/>
    <path d="M 277.953799 637.844809 
L 279.791343 639.378731 
L 281.133345 639.759345 
L 282.629109 639.950799 
L 287.319644 639.870549 
" clip-path="url(#pbdb38752f0)" style="fill: none; stroke: #e6482f; stroke-width: 0.2"/>
    <path d="M 258.736461 567.416236 
L 262.342281 592.647992 
L 277.953799 637.844809 
L 280.815162 642.212704 
" clip-path="url(#pbdb38752f0)" style="fill: none; stroke: #e6482f; stroke-width: 0.2"/>
    <path d="M 237.311436 598.601127 
L 249.209241 597.122504 
" clip-path="url(#pbdb38752f0)" style="fill: none; stroke: #e6482f; stroke-width: 0.2"/>
    <path d="M 269.073927 662.479893 
L 267.957677 659.943375 
L 267.828273 658.509192 
L 267.37764 653.508469 
L 263.919494 644.470022 
L 255.614766 625.964365 
L 253.252753 620.699963 
L 251.23937 615.698093 
L 249.209241 597.122504 
L 248.524919 592.133245 
L 245.518166 570.206644 
L 240.69366 526.648074 
" clip-path="url(#pbdb38752f0)" style="fill: none; stroke: #e6482f; stroke-width: 0.2"/>
    <path d="M 248.524919 592.133245 
L 258.435024 592.73512 
L 262.342281 592.647992 
L 277.735333 590.113237 
" clip-path="url(#pbdb38752f0)" style="fill: none; stroke: #e6482f; stroke-width: 0.2"/>
    <path d="M 253.329634 528.896221 
L 254.207302 537.641181 
L 256.356178 541.044929 
L 257.985153 543.623248 
L 260.584663 558.748086 
L 272.511957 562.477419 
L 275.932043 564.891799 
L 276.617126 584.068117 
L 277.735333 590.113237 
L 291.917311 636.37738 
L 291.843475 637.03543 
" clip-path="url(#pbdb38752f0)" style="fill: none; stroke: #e6482f; stroke-width: 0.2"/>
    <path d="M 207.140581 568.333379 
L 220.205874 569.561204 
L 226.118157 569.468712 
" clip-path="url(#pbdb38752f0)" style="fill: none; stroke: #e6482f; stroke-width: 0.2"/>
    <path d="M 232.481995 569.64641 
L 238.335452 570.080537 
L 245.518166 570.206644 
L 258.736461 567.416236 
L 264.898401 565.664492 
L 269.632325 564.828745 
L 272.562957 564.858552 
L 275.932043 564.891799 
L 278.929661 565.041981 
L 302.302408 567.624886 
L 345.531141 578.335972 
L 347.302461 579.34139 
" clip-path="url(#pbdb38752f0)" style="fill: none; stroke: #e6482f; stroke-width: 0.2"/>
    <path d="M 302.302408 567.624886 
L 297.227465 565.12567 
L 282.963277 560.946937 
L 281.302332 561.776951 
L 278.929661 565.041981 
" clip-path="url(#pbdb38752f0)" style="fill: none; stroke: #e6482f; stroke-width: 0.2"/>
    <path d="M 291.843475 637.03543 
L 292.330166 637.130285 
" clip-path="url(#pbdb38752f0)" style="fill: none; stroke: #e6482f; stroke-width: 0.2"/>
    <path d="M 347.642707 579.494639 
L 347.302461 579.34139 
" clip-path="url(#pbdb38752f0)" style="fill: none; stroke: #e6482f; stroke-width: 0.2"/>
    <path d="M 201.147628 495.882505 
L 195.719487 498.710745 
L 195.147824 500.752535 
L 195.964595 502.794325 
L 199.721133 510.71615 
L 201.109568 519.373982 
L 201.681231 525.826084 
L 203.967886 530.073603 
L 206.5202 537.260567 
" clip-path="url(#pbdb38752f0)" style="fill: none; stroke: #e6482f; stroke-width: 0.2"/>
    <path d="M 195.719487 498.710745 
L 176.119264 506.713966 
L 172.93439 509.165031 
L 172.689282 511.206821 
L 175.711259 514.391601 
" clip-path="url(#pbdb38752f0)" style="fill: none; stroke: #e6482f; stroke-width: 0.2"/>
    <path d="M 221.56995 475.16424 
L 221.317992 475.4176 
L 221.097243 476.105458 
L 220.866598 476.452826 
L 220.556027 476.70504 
L 219.063308 477.556837 
L 217.51502 478.81103 
L 216.290244 480.586849 
L 215.390502 482.789139 
L 215.023602 484.282936 
L 214.95281 485.393826 
L 215.19335 486.118369 
L 215.808605 487.188414 
" clip-path="url(#pbdb38752f0)" style="fill: none; stroke: #e6482f; stroke-width: 0.2"/>
    <path d="M 218.034948 490.867141 
L 219.149324 492.534932 
L 219.92499 494.543476 
L 220.210441 495.77474 
L 220.16204 496.818839 
" clip-path="url(#pbdb38752f0)" style="fill: none; stroke: #e6482f; stroke-width: 0.2"/>
    <path d="M 221.927273 502.366735 
L 222.32887 503.49594 
L 222.794726 505.995155 
L 222.807784 506.390264 
" clip-path="url(#pbdb38752f0)" style="fill: none; stroke: #e6482f; stroke-width: 0.2"/>
    <path d="M 199.1312 491.004449 
L 196.443392 490.731599 
L 194.902716 491.03311 
L 191.554944 493.0749 
L 188.206411 494.463226 
L 184.531322 497.403816 
L 179.958012 499.36421 
L 174.077717 498.954934 
L 171.545955 499.690942 
L 169.095642 499.690942 
L 166.727538 496.668955 
L 164.195776 495.362026 
L 161.745463 493.892304 
L 160.928692 491.114506 
L 158.724247 488.745984 
L 158.087881 485.994554 
" clip-path="url(#pbdb38752f0)" style="fill: none; stroke: #e6482f; stroke-width: 0.2"/>
    <path d="M 158.724247 482.784553 
L 161.500356 484.499611 
L 165.782124 486.327019 
" clip-path="url(#pbdb38752f0)" style="fill: none; stroke: #e6482f; stroke-width: 0.2"/>
    <path d="M 198.492551 486.042704 
L 202.762901 484.598204 
L 203.783334 484.3418 
" clip-path="url(#pbdb38752f0)" style="fill: none; stroke: #e6482f; stroke-width: 0.2"/>
    <path d="M 212.140313 482.043646 
L 216.290244 480.586849 
" clip-path="url(#pbdb38752f0)" style="fill: none; stroke: #e6482f; stroke-width: 0.2"/>
    <path d="M 158.724247 482.784553 
L 159.812007 479.634166 
L 160.747525 476.926301 
L 161.827673 473.801136 
L 163.787771 471.105881 
L 166.257115 466.60844 
" clip-path="url(#pbdb38752f0)" style="fill: none; stroke: #e6482f; stroke-width: 0.2"/>
    <path d="M 297.227465 565.12567 
L 299.51412 555.89577 
L 300.004335 552.873784 
L 300.004335 549.769254 
L 302.634292 536.985424 
" clip-path="url(#pbdb38752f0)" style="fill: none; stroke: #e6482f; stroke-width: 0.2"/>
    <path d="M 300.004335 552.873784 
L 301.882223 552.628448 
L 308.497841 554.507445 
L 311.109529 554.845642 
L 312.907492 555.078367 
L 315.276356 554.751634 
L 317.399352 552.792387 
L 320.511151 545.505684 
" clip-path="url(#pbdb38752f0)" style="fill: none; stroke: #e6482f; stroke-width: 0.2"/>
    <path d="M 257.985153 543.623248 
L 260.313674 543.153212 
L 262.739629 542.676298 
L 281.118121 547.015531 
L 296.247036 550.178529 
L 300.004335 549.769254 
" clip-path="url(#pbdb38752f0)" style="fill: none; stroke: #e6482f; stroke-width: 0.2"/>
    <path d="M 350.909804 559.447408 
L 349.571608 558.930368 
L 344.945015 557.143085 
L 341.849201 555.946213 
L 333.433338 552.245541 
L 328.187886 549.510161 
L 323.84446 547.244817 
L 320.511151 545.505684 
L 313.192182 541.689222 
L 309.240775 539.627943 
L 307.000554 538.729142 
L 303.926815 537.495585 
L 302.634292 536.985424 
L 301.563279 536.562392 
L 298.310658 535.277245 
L 291.714831 533.877455 
L 273.397997 531.065265 
L 259.517456 529.564589 
L 255.169462 529.094553 
L 253.329634 528.896221 
L 246.290026 527.783038 
L 240.69366 526.648074 
L 226.479711 520.229218 
L 225.727642 519.83026 
L 224.951327 518.839929 
" clip-path="url(#pbdb38752f0)" style="fill: none; stroke: #e6482f; stroke-width: 0.2"/>
    <path d="M 216.858644 515.083571 
L 212.121134 513.872269 
L 211.048599 513.886026 
" clip-path="url(#pbdb38752f0)" style="fill: none; stroke: #e6482f; stroke-width: 0.2"/>
    <path d="M 303.926815 537.495585 
L 306.492832 535.083498 
L 308.45293 532.388244 
L 309.106042 529.856928 
L 309.922814 525.119884 
L 310.821033 521.933958 
L 310.738823 518.734274 
L 310.943587 512.867997 
L 311.208486 511.009635 
L 311.742057 509.437606 
" clip-path="url(#pbdb38752f0)" style="fill: none; stroke: #e6482f; stroke-width: 0.2"/>
    <path d="M 310.943587 512.867997 
L 309.004523 512.658474 
" clip-path="url(#pbdb38752f0)" style="fill: none; stroke: #e6482f; stroke-width: 0.2"/>
    <path d="M 300.726604 510.178978 
L 300.673433 510.152107 
L 292.29566 507.112499 
" clip-path="url(#pbdb38752f0)" style="fill: none; stroke: #e6482f; stroke-width: 0.2"/>
    <path d="M 234.974528 488.587913 
L 234.889485 488.489184 
L 234.461971 487.822359 
" clip-path="url(#pbdb38752f0)" style="fill: none; stroke: #e6482f; stroke-width: 0.2"/>
    <path d="M 222.268694 475.698938 
L 221.56995 475.16424 
L 221.267753 474.957882 
L 221.004376 474.239071 
L 220.904815 473.95917 
" clip-path="url(#pbdb38752f0)" style="fill: none; stroke: #e6482f; stroke-width: 0.2"/>
    <path d="M 221.56995 475.16424 
L 221.765975 475.057668 
" clip-path="url(#pbdb38752f0)" style="fill: none; stroke: #e6482f; stroke-width: 0.2"/>
    <path d="M 114.566188 369.843131 
L 112.592284 372.067025 
L 111.50148 374.009076 
L 110.360436 377.331427 
L 109.646428 381.042418 
L 109.289423 382.305783 
L 108.962867 383.249294 
L 108.240485 384.331523 
L 107.489939 384.803851 
L 106.281909 385.362162 
L 105.346407 385.589875 
" clip-path="url(#pbdb38752f0)" style="fill: none; stroke: #e6482f; stroke-width: 0.2"/>
    <path d="M 95.142624 387.465597 
L 94.883651 387.492227 
L 93.056764 387.902649 
" clip-path="url(#pbdb38752f0)" style="fill: none; stroke: #e6482f; stroke-width: 0.2"/>
    <path d="M 205.343821 568.195247 
L 205.7864 568.2302 
L 207.140581 568.333379 
" clip-path="url(#pbdb38752f0)" style="fill: none; stroke: #e6482f; stroke-width: 0.2"/>
    <path d="M 98.371485 500.344406 
L 98.860939 498.465409 
L 97.88127 491.03311 
L 98.073854 488.28168 
L 98.521442 486.284601 
" clip-path="url(#pbdb38752f0)" style="fill: none; stroke: #e6482f; stroke-width: 0.2"/>
    <path d="M 133.63651 469.53642 
L 133.97829 471.922138 
L 133.488836 477.476587 
L 133.896841 480.416031 
L 133.332029 482.78226 
" clip-path="url(#pbdb38752f0)" style="fill: none; stroke: #e6482f; stroke-width: 0.2"/>
    <path d="M 98.521442 486.284601 
L 100.036998 479.383098 
L 100.06364 473.938707 
L 100.483063 471.94736 
L 100.562228 470.99697 
L 99.952504 469.334648 
L 99.900742 468.258151 
L 100.138999 466.146429 
L 100.768514 463.201253 
" clip-path="url(#pbdb38752f0)" style="fill: none; stroke: #e6482f; stroke-width: 0.2"/>
    <path d="M 107.424475 457.772912 
L 104.294407 458.870044 
L 100.768514 463.201253 
L 96.51491 467.540487 
L 93.026316 471.236574 
L 85.138727 478.82708 
" clip-path="url(#pbdb38752f0)" style="fill: none; stroke: #e6482f; stroke-width: 0.2"/>
    <path d="M 102.855733 456.23899 
L 103.679355 457.712151 
L 104.294407 458.870044 
" clip-path="url(#pbdb38752f0)" style="fill: none; stroke: #e6482f; stroke-width: 0.2"/>
    <path d="M 40.477804 460.061979 
L 41.47763 459.758527 
" clip-path="url(#pbdb38752f0)" style="fill: none; stroke: #e6482f; stroke-width: 0.2"/>
    <path d="M 41.47763 459.758527 
L 43.294622 459.45243 
L 44.43795 458.962905 
L 46.888263 457.329243 
L 50.595323 455.8343 
L 53.127085 455.018043 
L 60.254992 453.983964 
" clip-path="url(#pbdb38752f0)" style="fill: none; stroke: #e6482f; stroke-width: 0.2"/>
    <path d="M 96.51491 467.540487 
L 83.202987 456.311215 
L 78.4409 451.999495 
L 73.846277 447.841397 
L 70.707836 445.000546 
L 69.488388 442.416495 
" clip-path="url(#pbdb38752f0)" style="fill: none; stroke: #e6482f; stroke-width: 0.2"/>
    <path d="M 59.296637 444.885903 
L 69.488388 442.416495 
L 72.66565 441.016705 
L 82.386216 437.068404 
L 83.916996 435.219214 
L 103.744819 426.290824 
" clip-path="url(#pbdb38752f0)" style="fill: none; stroke: #e6482f; stroke-width: 0.2"/>
    <path d="M 72.66565 441.016705 
L 67.112673 403.269384 
L 67.139315 399.662718 
L 70.108769 388.639803 
" clip-path="url(#pbdb38752f0)" style="fill: none; stroke: #e6482f; stroke-width: 0.2"/>
    <path d="M 53.394267 407.35411 
L 46.675126 407.571932 
L 41.775261 405.93827 
L 37.992842 405.507213 
L 35.323302 405.203409 
" clip-path="url(#pbdb38752f0)" style="fill: none; stroke: #e6482f; stroke-width: 0.2"/>
    <path d="M 53.248878 405.288245 
L 67.112673 403.269384 
" clip-path="url(#pbdb38752f0)" style="fill: none; stroke: #e6482f; stroke-width: 0.2"/>
    <path d="M 78.698948 390.386961 
L 79.313239 391.012911 
L 79.910783 394.398316 
" clip-path="url(#pbdb38752f0)" style="fill: none; stroke: #e6482f; stroke-width: 0.2"/>
    <path d="M 93.056764 387.902649 
L 89.79653 389.313903 
L 85.955498 390.754964 
L 82.206572 390.683886 
L 78.698948 390.386961 
L 74.667615 389.609682 
L 70.108769 388.639803 
L 55.742579 385.71297 
" clip-path="url(#pbdb38752f0)" style="fill: none; stroke: #e6482f; stroke-width: 0.2"/>
    <path d="M 53.532806 390.420207 
L 40.558858 384.626155 
L 35.168778 383.401769 
L 33.535996 382.257633 
" clip-path="url(#pbdb38752f0)" style="fill: none; stroke: #e6482f; stroke-width: 0.2"/>
    <path d="M 74.667615 389.609682 
L 77.004509 381.656904 
L 86.853718 365.457862 
L 92.58025 365.54843 
L 93.704548 365.585116 
" clip-path="url(#pbdb38752f0)" style="fill: none; stroke: #e6482f; stroke-width: 0.2"/>
    <path d="M 137.689156 444.408989 
L 130.948701 446.758022 
L 116.23997 451.139673 
L 113.698313 452.139359 
L 112.240608 453.309863 
L 110.569006 455.410121 
L 109.284095 456.545086 
L 107.424475 457.772912 
" clip-path="url(#pbdb38752f0)" style="fill: none; stroke: #e6482f; stroke-width: 0.2"/>
    <path d="M 158.087881 485.994554 
L 158.724247 482.784553 
L 157.611368 480.714102 
L 155.530238 478.821348 
L 150.523804 475.873879 
L 147.156241 473.891703 
L 141.522576 471.102442 
L 133.63651 469.53642 
L 132.028087 468.558516 
L 122.726183 462.903181 
L 115.337945 459.82158 
L 107.424475 457.772912 
L 102.855733 456.23899 
L 96.923676 452.268906 
L 88.593829 445.8982 
L 87.874492 445.04755 
L 84.776394 441.380123 
L 83.897205 440.340312 
L 82.386216 437.068404 
L 80.814331 424.251327 
L 79.202103 411.110958 
L 79.076504 402.327019 
L 79.910783 394.398316 
L 80.447432 393.180808 
L 80.839451 392.410408 
L 82.206572 390.683886 
" clip-path="url(#pbdb38752f0)" style="fill: none; stroke: #e6482f; stroke-width: 0.2"/>
    <path d="M 140.244077 436.949192 
L 146.989513 426.112786 
" clip-path="url(#pbdb38752f0)" style="fill: none; stroke: #e6482f; stroke-width: 0.2"/>
    <path d="M 93.056764 387.902649 
L 93.441171 389.31505 
L 93.90855 391.223854 
L 96.246967 397.481063 
L 98.674444 404.468548 
L 98.592234 409.160882 
L 100.561467 418.325436 
L 103.744819 426.290824 
L 113.592505 444.374596 
L 114.065974 446.190539 
L 114.479307 447.776051 
L 113.698313 452.139359 
L 113.753881 453.245663 
L 114.423739 454.343942 
L 122.726183 462.903181 
" clip-path="url(#pbdb38752f0)" style="fill: none; stroke: #e6482f; stroke-width: 0.2"/>
    <path d="M 108.240485 384.331523 
L 108.634789 384.751116 
L 111.091191 385.08358 
L 112.215489 385.239494 
L 112.701898 385.578837 
L 113.217232 385.91818 
L 113.643506 386.457002 
L 114.719086 388.400199 
L 118.1818 398.047399 
L 123.693673 406.674278 
L 126.713366 412.424766 
L 128.576031 414.651131 
L 130.908357 416.794953 
L 141.899825 422.885028 
" clip-path="url(#pbdb38752f0)" style="fill: none; stroke: #e6482f; stroke-width: 0.2"/>
    <path d="M 162.871736 433.203444 
L 177.941585 440.684241 
L 182.111458 442.754026 
" clip-path="url(#pbdb38752f0)" style="fill: none; stroke: #e6482f; stroke-width: 0.2"/>
    <path d="M 130.908357 416.794953 
L 142.516417 402.39895 
" clip-path="url(#pbdb38752f0)" style="fill: none; stroke: #e6482f; stroke-width: 0.2"/>
    <path d="M 97.726746 316.446875 
L 95.5596 319.47918 
L 86.412982 338.748359 
L 79.715915 349.689877 
L 66.134526 368.64952 
L 55.742579 385.71297 
L 53.532806 390.420207 
L 52.711468 394.39373 
L 52.603377 396.137449 
L 53.248878 405.288245 
L 53.394267 407.35411 
L 54.106754 411.640608 
L 54.641118 414.941177 
L 57.478123 431.934694 
L 59.296637 444.885903 
L 60.254992 453.983964 
L 61.806325 457.331536 
L 65.644312 462.068581 
L 73.672722 469.72902 
L 85.138727 478.82708 
L 94.309704 484.691065 
L 98.521442 486.284601 
L 101.066906 486.136712 
L 110.307152 486.055315 
L 114.406993 485.588719 
L 119.848074 484.9685 
L 126.911279 483.823218 
L 133.332029 482.78226 
L 136.9074 483.127336 
L 143.251268 484.990283 
L 158.087881 485.994554 
L 165.782124 486.327019 
L 168.227109 487.056148 
L 169.696992 487.38288 
L 173.821192 486.934626 
L 179.864384 487.913677 
L 185.254465 488.649684 
L 189.501218 488.689809 
L 194.301366 488.37798 
L 196.116835 488.485745 
L 197.243416 489.093352 
L 199.1312 491.004449 
L 200.512784 492.389335 
" clip-path="url(#pbdb38752f0)" style="fill: none; stroke: #e6482f; stroke-width: 0.2"/>
    <path d="M 123.693673 406.674278 
L 133.107345 395.290606 
" clip-path="url(#pbdb38752f0)" style="fill: none; stroke: #e6482f; stroke-width: 0.2"/>
    <path d="M 112.701898 385.578837 
L 112.755182 385.199369 
L 112.574777 384.724748 
L 112.100547 383.930273 
L 111.041713 382.989054 
L 109.289423 382.305783 
" clip-path="url(#pbdb38752f0)" style="fill: none; stroke: #e6482f; stroke-width: 0.2"/>
    <path d="M 175.431137 459.874316 
L 172.770731 462.611988 
L 170.276268 464.142471 
L 166.257115 466.60844 
L 164.404346 466.893901 
L 161.979914 466.200311 
L 158.787427 463.615114 
L 154.558943 460.16207 
L 151.866567 457.936851 
L 151.012497 457.230651 
L 148.251613 455.083389 
L 145.022588 452.589906 
L 137.689156 444.408989 
L 131.540156 437.299982 
" clip-path="url(#pbdb38752f0)" style="fill: none; stroke: #e6482f; stroke-width: 0.2"/>
    <path d="M 148.251613 455.083389 
L 148.422122 452.878806 
L 148.830888 451.694545 
L 151.485204 449.285898 
L 152.556217 447.668286 
" clip-path="url(#pbdb38752f0)" style="fill: none; stroke: #e6482f; stroke-width: 0.2"/>
    <path d="M 200.512784 492.389335 
L 200.486142 491.568492 
L 200.403932 490.568806 
L 199.730267 488.50638 
L 198.492551 486.042704 
L 195.325945 481.003003 
L 189.891715 472.796864 
L 186.297313 468.352158 
L 184.03045 466.04669 
L 181.474329 463.801982 
L 175.431137 459.874316 
L 170.288447 456.843158 
L 158.183032 450.593973 
L 152.556217 447.668286 
L 131.540156 437.299982 
L 127.960978 435.614732 
L 123.41964 433.088002 
L 121.296644 431.848712 
L 118.817405 429.996083 
L 116.603826 428.231729 
L 114.811192 426.462789 
L 110.427422 421.433405 
L 100.564511 407.934203 
L 99.543738 406.350985 
L 98.674444 404.468548 
" clip-path="url(#pbdb38752f0)" style="fill: none; stroke: #e6482f; stroke-width: 0.2"/>
    <path d="M 170.484838 248.34326 
L 172.016574 247.727407 
" clip-path="url(#pbdb38752f0)" style="fill: none; stroke: #e6482f; stroke-width: 0.2"/>
    <path d="M 159.361374 240.281571 
L 156.672147 240.376217 
" clip-path="url(#pbdb38752f0)" style="fill: none; stroke: #e6482f; stroke-width: 0.2"/>
    <path d="M 162.054511 240.435193 
L 159.361374 240.281571 
" clip-path="url(#pbdb38752f0)" style="fill: none; stroke: #e6482f; stroke-width: 0.2"/>
    <path d="M 86.412982 338.748359 
L 98.604413 342.84455 
" clip-path="url(#pbdb38752f0)" style="fill: none; stroke: #e6482f; stroke-width: 0.2"/>
    <path d="M 93.3582 311.79352 
L 97.726746 316.446875 
L 107.331609 323.377039 
L 109.454604 325.663018 
L 111.86838 328.569216 
" clip-path="url(#pbdb38752f0)" style="fill: none; stroke: #e6482f; stroke-width: 0.2"/>
    <path d="M 93.056764 387.902649 
L 92.734775 386.508591 
L 92.09917 384.275348 
L 91.87766 382.588951 
L 91.965198 380.225014 
L 92.051975 378.355188 
L 92.394517 375.110794 
L 92.928881 370.749778 
L 93.704548 365.585116 
L 95.032086 358.868188 
L 96.032307 354.081847 
L 97.563848 346.151997 
L 98.043406 344.375032 
L 98.604413 342.84455 
L 99.625948 341.293431 
L 101.136175 339.538248 
L 103.004168 337.69823 
L 111.86838 328.569216 
L 124.532351 316.331916 
" clip-path="url(#pbdb38752f0)" style="fill: none; stroke: #e6482f; stroke-width: 0.2"/>
    <path d="M 151.537384 289.541733 
L 156.280306 284.776003 
" clip-path="url(#pbdb38752f0)" style="fill: none; stroke: #e6482f; stroke-width: 0.2"/>
    <path d="M 160.409621 278.679344 
L 164.059801 272.660235 
" clip-path="url(#pbdb38752f0)" style="fill: none; stroke: #e6482f; stroke-width: 0.2"/>
    <path d="M 171.470316 251.745161 
L 171.310743 250.935336 
L 170.484838 248.34326 
L 169.061388 245.199752 
L 166.592805 242.517108 
L 165.368791 241.68824 
L 164.143253 241.015286 
L 162.054511 240.435193 
" clip-path="url(#pbdb38752f0)" style="fill: none; stroke: #e6482f; stroke-width: 0.2"/>
    <path d="M 116.599136 151.68153 
L 117.266072 153.21602 
L 117.441817 153.484052 
" clip-path="url(#pbdb38752f0)" style="fill: none; stroke: #e6482f; stroke-width: 0.2"/>
    <path d="M 139.286036 178.407821 
L 138.330089 179.640062 
L 137.850531 180.92177 
L 137.803337 182.487792 
L 138.461016 185.561368 
L 143.969083 201.119556 
L 144.297923 202.443682 
L 144.622195 206.267022 
L 147.459961 214.161333 
L 150.956168 221.238239 
L 157.158452 234.980483 
L 158.141165 237.036031 
L 159.100282 238.096477 
L 162.054511 240.435193 
" clip-path="url(#pbdb38752f0)" style="fill: none; stroke: #e6482f; stroke-width: 0.2"/>
    <path d="M 113.2197 75.58214 
L 112.386759 76.701055 
L 107.751793 82.005582 
L 105.562523 86.593594 
" clip-path="url(#pbdb38752f0)" style="fill: none; stroke: #e6482f; stroke-width: 0.2"/>
    <path d="M 105.268291 87.21021 
L 105.016028 87.738873 
L 104.015046 90.309167 
L 102.708821 103.470172 
L 104.423812 119.019189 
L 104.588347 120.012393 
" clip-path="url(#pbdb38752f0)" style="fill: none; stroke: #e6482f; stroke-width: 0.2"/>
    <path d="M 105.55296 125.835223 
L 105.934801 128.140178 
L 106.56736 130.000833 
L 108.200903 132.776337 
L 108.984478 134.365483 
" clip-path="url(#pbdb38752f0)" style="fill: none; stroke: #e6482f; stroke-width: 0.2"/>
   </g>
  </g>
 </g>
 <defs>
  <clipPath id="pbdb38752f0">
   <rect x="7.2" y="7.2" width="410.051599" height="831.6"/>
  </clipPath>
 </defs>
</svg>
