<?xml version="1.0" encoding="utf-8" standalone="no"?>
<!DOCTYPE svg PUBLIC "-//W3C//DTD SVG 1.1//EN"
  "http://www.w3.org/Graphics/SVG/1.1/DTD/svg11.dtd">
<svg xmlns:xlink="http://www.w3.org/1999/xlink" width="711.409149pt" height="846pt" viewBox="0 0 711.409149 846" xmlns="http://www.w3.org/2000/svg" version="1.1">
 <metadata>
  <rdf:RDF xmlns:dc="http://purl.org/dc/elements/1.1/" xmlns:cc="http://creativecommons.org/ns#" xmlns:rdf="http://www.w3.org/1999/02/22-rdf-syntax-ns#">
   <cc:Work>
    <dc:type rdf:resource="http://purl.org/dc/dcmitype/StillImage"/>
    <dc:date>2025-03-16T14:37:55.641262</dc:date>
    <dc:format>image/svg+xml</dc:format>
    <dc:creator>
     <cc:Agent>
      <dc:title>Matplotlib v3.10.1, https://matplotlib.org/</dc:title>
     </cc:Agent>
    </dc:creator>
   </cc:Work>
  </rdf:RDF>
 </metadata>
 <defs>
  <style type="text/css">*{stroke-linejoin: round; stroke-linecap: butt}</style>
 </defs>
 <g id="figure_1">
  <g id="patch_1">
   <path d="M 0 846 
L 711.409149 846 
L 711.409149 0 
L 0 0 
z
" style="fill: #ffffff"/>
  </g>
  <g id="axes_1">
   <g id="PatchCollection_1">
    <path d="M 74.203305 347.087603 
L 73.896187 353.461258 
L 72.858079 358.314836 
L 73.538306 365.484721 
L 91.640482 429.011732 
L 66.50252 431.792824 
L 73.72613 480.76672 
L 49.329311 543.124148 
L 38.882234 593.804797 
L 110.993972 711.19357 
L 157.213913 687.660955 
L 214.616999 801 
L 326.910389 758.994074 
L 440.632765 742.090365 
L 484.370383 758.178795 
L 553.035296 555.117134 
L 574.102045 470.354767 
L 571.541039 389.017335 
L 565.827635 341.567325 
L 589.556918 254.096251 
L 608.836801 221.721286 
L 611.286128 198.451542 
L 672.526915 73.778593 
L 646.069108 45 
L 552.464209 151.847289 
L 518.871627 126.680306 
L 460.234994 226.746301 
L 202.172387 241.649909 
L 179.816251 242.236606 
L 109.696971 245.211994 
L 72.426591 302.235819 
L 74.203305 347.087603 
" clip-path="url(#pe9f4a84890)" style="fill: #fbd6c9"/>
   </g>
   <g id="PatchCollection_2">
    <path d="M 136.109091 388.007761 
L 131.210437 389.573554 
L 128.794106 382.018887 
L 126.981858 382.597964 
L 124.781271 375.702379 
L 126.984396 375.01663 
L 124.446234 367.073372 
L 128.956549 365.6333 
L 136.109091 388.007761 
" clip-path="url(#pe9f4a84890)" style="fill: #e6482f"/>
    <path d="M 148.769446 362.505523 
L 145.139874 363.697964 
L 141.081352 351.339246 
L 144.710924 350.146805 
L 148.769446 362.505523 
" clip-path="url(#pe9f4a84890)" style="fill: #e6482f"/>
    <path d="M 88.434783 342.763576 
L 89.41959 345.879923 
L 85.140248 347.232373 
L 84.155441 344.116025 
L 88.434783 342.763576 
" clip-path="url(#pe9f4a84890)" style="fill: #e6482f"/>
    <path d="M 96.495987 340.443459 
L 97.397035 343.716005 
L 93.41212 344.813203 
L 92.511072 341.540657 
L 96.495987 340.443459 
" clip-path="url(#pe9f4a84890)" style="fill: #e6482f"/>
    <path d="M 105.234881 337.666176 
L 106.346596 340.839669 
L 102.069792 342.340697 
L 100.958077 339.163394 
L 105.234881 337.666176 
" clip-path="url(#pe9f4a84890)" style="fill: #e6482f"/>
    <path d="M 113.217402 335.635598 
L 114.161599 338.664322 
L 110.285825 339.872002 
L 109.341628 336.843278 
L 113.217402 335.635598 
" clip-path="url(#pe9f4a84890)" style="fill: #e6482f"/>
    <path d="M 121.628873 333.18595 
L 122.608604 336.485164 
L 118.915577 337.582362 
L 117.935847 334.283149 
L 121.628873 333.18595 
" clip-path="url(#pe9f4a84890)" style="fill: #e6482f"/>
    <path d="M 134.883158 329.075267 
L 136.200465 332.328764 
L 133.408486 333.46025 
L 132.09118 330.206753 
L 134.883158 329.075267 
" clip-path="url(#pe9f4a84890)" style="fill: #e6482f"/>
    <path d="M 180.628463 413.932876 
L 185.085477 412.469946 
L 186.451008 416.630155 
L 189.341975 415.681536 
L 190.149111 418.134993 
L 182.798592 420.550353 
L 180.628463 413.932876 
" clip-path="url(#pe9f4a84890)" style="fill: #e6482f"/>
    <path d="M 186.39263 406.587744 
L 187.593181 410.435557 
L 180.458406 412.660431 
L 179.257855 408.808809 
L 186.39263 406.587744 
" clip-path="url(#pe9f4a84890)" style="fill: #e6482f"/>
    <path d="M 162.72934 392.735618 
L 164.551741 398.137795 
L 156.432159 400.87698 
L 154.609758 395.478613 
L 162.72934 392.735618 
" clip-path="url(#pe9f4a84890)" style="fill: #e6482f"/>
    <path d="M 174.724697 388.857327 
L 176.425266 394.190929 
L 168.150856 396.831062 
L 166.450287 391.49746 
L 174.724697 388.857327 
" clip-path="url(#pe9f4a84890)" style="fill: #e6482f"/>
    <path d="M 189.710009 384.979036 
L 191.017163 389.386878 
L 185.613415 390.986958 
L 184.306261 386.582927 
L 189.710009 384.979036 
" clip-path="url(#pe9f4a84890)" style="fill: #e6482f"/>
    <path d="M 155.739241 380.411187 
L 158.701276 390.02691 
L 153.312757 391.687946 
L 150.350721 382.072223 
L 155.739241 380.411187 
" clip-path="url(#pe9f4a84890)" style="fill: #e6482f"/>
    <path d="M 171.793119 379.241605 
L 173.986092 386.331486 
L 171.244876 387.181052 
L 169.049365 380.087361 
L 171.793119 379.241605 
" clip-path="url(#pe9f4a84890)" style="fill: #e6482f"/>
    <path d="M 183.816395 375.405221 
L 186.339329 382.64749 
L 183.638724 383.58849 
L 181.11579 376.346221 
L 183.816395 375.405221 
" clip-path="url(#pe9f4a84890)" style="fill: #e6482f"/>
    <path d="M 168.757477 369.366821 
L 170.980907 376.555755 
L 168.178776 377.42437 
L 165.955345 370.235436 
L 168.757477 369.366821 
" clip-path="url(#pe9f4a84890)" style="fill: #e6482f"/>
    <path d="M 180.745219 365.686636 
L 182.813821 372.151723 
L 180.070067 373.027958 
L 178.001465 366.56287 
L 180.745219 365.686636 
" clip-path="url(#pe9f4a84890)" style="fill: #e6482f"/>
    <path d="M 165.676147 360.036827 
L 167.833585 366.620016 
L 164.919775 367.576255 
L 162.762337 360.993066 
L 165.676147 360.036827 
" clip-path="url(#pe9f4a84890)" style="fill: #e6482f"/>
    <path d="M 179.48629 362.15122 
L 176.552174 363.061742 
L 174.27798 355.720419 
L 177.209558 354.809897 
L 179.48629 362.15122 
" clip-path="url(#pe9f4a84890)" style="fill: #e6482f"/>
    <path d="M 164.800481 357.507176 
L 161.957739 358.509131 
L 159.396733 351.270671 
L 162.242013 350.264906 
L 164.800481 357.507176 
" clip-path="url(#pe9f4a84890)" style="fill: #e6482f"/>
    <path d="M 174.346511 346.478049 
L 176.577556 353.16791 
L 173.922638 354.055573 
L 171.691593 347.361903 
L 174.346511 346.478049 
" clip-path="url(#pe9f4a84890)" style="fill: #e6482f"/>
    <path d="M 161.313046 346.836162 
L 157.955057 347.883834 
L 155.942294 341.449224 
L 159.300283 340.401552 
L 161.313046 346.836162 
" clip-path="url(#pe9f4a84890)" style="fill: #e6482f"/>
    <path d="M 170.348905 334.53459 
L 173.453077 342.70643 
L 170.640793 343.773151 
L 167.539159 335.60131 
L 170.348905 334.53459 
" clip-path="url(#pe9f4a84890)" style="fill: #e6482f"/>
    <path d="M 166.696489 320.126245 
L 167.78536 323.448317 
L 163.762373 324.766479 
L 162.676039 321.440597 
L 166.696489 320.126245 
" clip-path="url(#pe9f4a84890)" style="fill: #e6482f"/>
    <path d="M 174.595251 318.04233 
L 175.592749 321.284398 
L 171.790581 322.453981 
L 170.793083 319.211913 
L 174.595251 318.04233 
" clip-path="url(#pe9f4a84890)" style="fill: #e6482f"/>
    <path d="M 183.151397 315.62697 
L 184.194582 319.128099 
L 180.026919 320.373876 
L 178.983734 316.872747 
L 183.151397 315.62697 
" clip-path="url(#pe9f4a84890)" style="fill: #e6482f"/>
    <path d="M 169.003678 293.332514 
L 169.81589 296.498387 
L 161.957739 298.517537 
L 161.145527 295.351663 
L 169.003678 293.332514 
" clip-path="url(#pe9f4a84890)" style="fill: #e6482f"/>
    <path d="M 144.446955 326.423705 
L 145.477449 329.84102 
L 141.444309 331.056319 
L 140.413815 327.639004 
L 144.446955 326.423705 
" clip-path="url(#pe9f4a84890)" style="fill: #e6482f"/>
    <path d="M 152.381251 324.286454 
L 153.355906 327.589478 
L 149.761868 328.648579 
L 148.789751 325.345555 
L 152.381251 324.286454 
" clip-path="url(#pe9f4a84890)" style="fill: #e6482f"/>
    <path d="M 86.475321 320.05386 
L 80.223827 322.027293 
L 79.236481 318.899516 
L 85.487976 316.926083 
L 86.475321 320.05386 
" clip-path="url(#pe9f4a84890)" style="fill: #e6482f"/>
    <path d="M 95.140608 314.110703 
L 96.102572 317.37944 
L 89.523654 319.318585 
L 88.559153 316.046039 
L 95.140608 314.110703 
" clip-path="url(#pe9f4a84890)" style="fill: #e6482f"/>
    <path d="M 104.427745 311.661056 
L 105.280568 315.028845 
L 99.356496 316.526063 
L 98.503674 313.158275 
L 104.427745 311.661056 
" clip-path="url(#pe9f4a84890)" style="fill: #e6482f"/>
    <path d="M 113.709806 308.92949 
L 114.638773 312.122032 
L 108.950751 313.779258 
L 108.021784 310.582907 
L 113.709806 308.92949 
" clip-path="url(#pe9f4a84890)" style="fill: #e6482f"/>
    <path d="M 130.436298 304.331163 
L 131.710455 309.150454 
L 119.971453 312.251562 
L 118.697295 307.432272 
L 130.436298 304.331163 
" clip-path="url(#pe9f4a84890)" style="fill: #e6482f"/>
    <path d="M 89.856154 305.660754 
L 90.757201 309.264745 
L 87.394136 310.106692 
L 86.49055 306.502701 
L 89.856154 305.660754 
" clip-path="url(#pe9f4a84890)" style="fill: #e6482f"/>
    <path d="M 104.481047 299.991897 
L 105.562304 303.988289 
L 99.823518 305.542653 
L 98.742261 301.542451 
L 104.481047 299.991897 
" clip-path="url(#pe9f4a84890)" style="fill: #e6482f"/>
    <path d="M 151.688333 298.330861 
L 152.954876 302.955856 
L 141.061046 306.213163 
L 139.794503 301.588168 
L 151.688333 298.330861 
" clip-path="url(#pe9f4a84890)" style="fill: #e6482f"/>
    <path d="M 114.950967 296.982221 
L 115.885011 300.570974 
L 109.732505 302.174864 
L 108.795923 298.586112 
L 114.950967 296.982221 
" clip-path="url(#pe9f4a84890)" style="fill: #e6482f"/>
    <path d="M 123.715243 294.776396 
L 124.608676 298.220379 
L 119.232848 299.614735 
L 118.339415 296.170752 
L 123.715243 294.776396 
" clip-path="url(#pe9f4a84890)" style="fill: #e6482f"/>
    <path d="M 135.243578 292.749627 
L 136.218232 296.113606 
L 130.687576 297.713687 
L 129.712921 294.349708 
L 135.243578 292.749627 
" clip-path="url(#pe9f4a84890)" style="fill: #e6482f"/>
    <path d="M 150.343107 286.749325 
L 151.67818 291.484801 
L 138.647254 295.157367 
L 137.31218 290.421891 
L 150.343107 286.749325 
" clip-path="url(#pe9f4a84890)" style="fill: #e6482f"/>
    <path d="M 182.707218 289.663757 
L 183.884926 294.121125 
L 179.387302 295.309756 
L 178.207056 290.852389 
L 182.707218 289.663757 
" clip-path="url(#pe9f4a84890)" style="fill: #e6482f"/>
    <path d="M 166.62542 282.166237 
L 167.960494 287.191252 
L 154.723976 290.70381 
L 153.388902 285.682604 
L 166.62542 282.166237 
" clip-path="url(#pe9f4a84890)" style="fill: #e6482f"/>
    <path d="M 168.364061 281.400484 
L 172.171305 280.257569 
L 172.49619 281.343338 
L 176.090228 280.261379 
L 175.785649 279.240375 
L 179.397454 278.158416 
L 180.897508 283.149143 
L 169.884421 286.455977 
L 168.364061 281.400484 
" clip-path="url(#pe9f4a84890)" style="fill: #e6482f"/>
    <path d="M 170.539267 260.866116 
L 157.302749 261.010885 
L 157.254524 256.572566 
L 170.488504 256.423987 
L 170.539267 260.866116 
" clip-path="url(#pe9f4a84890)" style="fill: #e6482f"/>
    <path d="M 203.091202 444.281072 
L 199.921037 445.172546 
L 196.702647 433.766257 
L 199.87535 432.870974 
L 203.091202 444.281072 
" clip-path="url(#pe9f4a84890)" style="fill: #e6482f"/>
    <path d="M 209.951856 430.032735 
L 213.279387 441.732373 
L 210.11176 442.635275 
L 206.784229 430.935638 
L 209.951856 430.032735 
" clip-path="url(#pe9f4a84890)" style="fill: #e6482f"/>
    <path d="M 207.205564 400.572203 
L 208.220829 403.875227 
L 205.218183 404.800988 
L 204.200379 401.497964 
L 207.205564 400.572203 
" clip-path="url(#pe9f4a84890)" style="fill: #e6482f"/>
    <path d="M 223.360969 394.114735 
L 226.721496 405.387684 
L 220.700974 407.18206 
L 217.340447 395.909111 
L 223.360969 394.114735 
" clip-path="url(#pe9f4a84890)" style="fill: #e6482f"/>
    <path d="M 206.230909 398.808305 
L 202.344982 399.993126 
L 200.172315 392.857529 
L 204.06078 391.672707 
L 206.230909 398.808305 
" clip-path="url(#pe9f4a84890)" style="fill: #e6482f"/>
    <path d="M 203.748586 380.50262 
L 205.060816 385.059041 
L 199.101211 386.777222 
L 197.788981 382.224612 
L 203.748586 380.50262 
" clip-path="url(#pe9f4a84890)" style="fill: #e6482f"/>
    <path d="M 229.594696 377.039589 
L 225.807758 378.182504 
L 224.528524 373.93848 
L 228.315462 372.795565 
L 229.594696 377.039589 
" clip-path="url(#pe9f4a84890)" style="fill: #e6482f"/>
    <path d="M 198.862623 377.15769 
L 196.923467 371.016428 
L 200.438822 369.907801 
L 202.37544 376.049063 
L 198.862623 377.15769 
" clip-path="url(#pe9f4a84890)" style="fill: #e6482f"/>
    <path d="M 225.394037 363.031264 
L 226.820484 367.016227 
L 223.234061 368.300101 
L 221.807613 364.315138 
L 225.394037 363.031264 
" clip-path="url(#pe9f4a84890)" style="fill: #e6482f"/>
    <path d="M 199.324569 367.206712 
L 195.04015 368.521064 
L 193.029926 361.979782 
L 197.314344 360.661621 
L 199.324569 367.206712 
" clip-path="url(#pe9f4a84890)" style="fill: #e6482f"/>
    <path d="M 287.436884 391.398408 
L 284.281948 378.986354 
L 288.383619 377.946301 
L 291.536017 390.354545 
L 287.436884 391.398408 
" clip-path="url(#pe9f4a84890)" style="fill: #e6482f"/>
    <path d="M 327.742906 379.84354 
L 329.336872 384.274239 
L 314.963257 389.444023 
L 313.369291 385.013324 
L 327.742906 379.84354 
" clip-path="url(#pe9f4a84890)" style="fill: #e6482f"/>
    <path d="M 278.956883 381.154082 
L 271.598749 383.371336 
L 270.233218 378.837775 
L 266.441203 379.97688 
L 265.575689 377.104354 
L 269.908333 375.801431 
L 267.710284 368.498206 
L 274.527789 366.448579 
L 278.956883 381.154082 
" clip-path="url(#pe9f4a84890)" style="fill: #e6482f"/>
    <path d="M 293.523398 342.348317 
L 295.05391 347.259041 
L 274.992273 353.518404 
L 273.459222 348.60387 
L 293.523398 342.348317 
" clip-path="url(#pe9f4a84890)" style="fill: #e6482f"/>
    <path d="M 328.49674 347.826688 
L 323.785911 349.445817 
L 321.415267 342.550232 
L 326.123558 340.931103 
L 328.49674 347.826688 
" clip-path="url(#pe9f4a84890)" style="fill: #e6482f"/>
    <path d="M 244.67392 346.177081 
L 241.326084 347.201895 
L 239.463072 341.133018 
L 242.808371 340.104394 
L 244.67392 346.177081 
" clip-path="url(#pe9f4a84890)" style="fill: #e6482f"/>
    <path d="M 255.618477 342.828341 
L 252.336633 343.731244 
L 250.577687 337.319492 
L 253.862069 336.416589 
L 255.618477 342.828341 
" clip-path="url(#pe9f4a84890)" style="fill: #e6482f"/>
    <path d="M 266.61126 338.767184 
L 263.367488 339.685326 
L 261.867434 334.386011 
L 265.113744 333.467869 
L 266.61126 338.767184 
" clip-path="url(#pe9f4a84890)" style="fill: #e6482f"/>
    <path d="M 286.464768 328.823826 
L 287.568868 332.324955 
L 274.591243 336.420399 
L 273.484604 332.91927 
L 286.464768 328.823826 
" clip-path="url(#pe9f4a84890)" style="fill: #e6482f"/>
    <path d="M 304.564405 322.789236 
L 305.780185 326.618 
L 297.15297 329.360996 
L 295.934652 325.532231 
L 304.564405 322.789236 
" clip-path="url(#pe9f4a84890)" style="fill: #e6482f"/>
    <path d="M 209.571131 361.160693 
L 206.362894 362.158839 
L 204.205456 355.209917 
L 207.413693 354.215582 
L 209.571131 361.160693 
" clip-path="url(#pe9f4a84890)" style="fill: #e6482f"/>
    <path d="M 222.147727 353.03457 
L 223.465034 357.126204 
L 219.914144 358.269119 
L 218.596838 354.173675 
L 222.147727 353.03457 
" clip-path="url(#pe9f4a84890)" style="fill: #e6482f"/>
    <path d="M 196.024958 356.672848 
L 192.773571 357.808144 
L 190.809033 352.200242 
L 194.06042 351.061137 
L 196.024958 356.672848 
" clip-path="url(#pe9f4a84890)" style="fill: #e6482f"/>
    <path d="M 231.820665 343.555997 
L 233.757283 350.024894 
L 230.37645 351.038279 
L 228.439832 344.565571 
L 231.820665 343.555997 
" clip-path="url(#pe9f4a84890)" style="fill: #e6482f"/>
    <path d="M 219.312599 344.165551 
L 220.553761 348.33338 
L 217.139932 349.350574 
L 215.896233 345.182745 
L 219.312599 344.165551 
" clip-path="url(#pe9f4a84890)" style="fill: #e6482f"/>
    <path d="M 203.469388 340.611086 
L 205.92633 347.822878 
L 202.509963 348.988651 
L 200.053022 341.77305 
L 203.469388 340.611086 
" clip-path="url(#pe9f4a84890)" style="fill: #e6482f"/>
    <path d="M 193.118761 346.99998 
L 190.331859 347.895263 
L 188.539916 342.298791 
L 191.326819 341.407317 
L 193.118761 346.99998 
" clip-path="url(#pe9f4a84890)" style="fill: #e6482f"/>
    <path d="M 217.617107 338.454787 
L 214.264194 339.468172 
L 212.98496 335.227958 
L 216.335335 334.214574 
L 217.617107 338.454787 
" clip-path="url(#pe9f4a84890)" style="fill: #e6482f"/>
    <path d="M 190.433385 338.793852 
L 187.715013 339.670087 
L 185.438281 332.610683 
L 188.159192 331.734449 
L 190.433385 338.793852 
" clip-path="url(#pe9f4a84890)" style="fill: #e6482f"/>
    <path d="M 199.052986 326.591332 
L 201.484545 334.088853 
L 198.192548 335.155573 
L 195.760989 327.658053 
L 199.052986 326.591332 
" clip-path="url(#pe9f4a84890)" style="fill: #e6482f"/>
    <path d="M 240.93013 332.603064 
L 237.244718 333.677404 
L 233.734439 321.650131 
L 237.419852 320.575791 
L 240.93013 332.603064 
" clip-path="url(#pe9f4a84890)" style="fill: #e6482f"/>
    <path d="M 205.504995 308.887583 
L 206.540565 312.541101 
L 193.560402 316.213667 
L 192.527369 312.560149 
L 205.504995 308.887583 
" clip-path="url(#pe9f4a84890)" style="fill: #e6482f"/>
    <path d="M 241.892094 288.616085 
L 243.059649 293.088692 
L 241.171256 293.580145 
L 240.843833 292.322939 
L 240.084922 292.517234 
L 239.904713 291.827676 
L 240.57225 291.652429 
L 239.912327 289.134207 
L 241.892094 288.616085 
" clip-path="url(#pe9f4a84890)" style="fill: #e6482f"/>
    <path d="M 183.207236 277.442189 
L 186.829194 276.424995 
L 186.994175 277.011691 
L 191.968974 275.613525 
L 191.824298 275.095404 
L 195.073147 274.184882 
L 196.405682 278.927978 
L 184.560077 282.25386 
L 183.207236 277.442189 
" clip-path="url(#pe9f4a84890)" style="fill: #e6482f"/>
    <path d="M 251.364517 329.772445 
L 248.38979 330.698206 
L 244.440409 317.973755 
L 247.417674 317.051804 
L 251.364517 329.772445 
" clip-path="url(#pe9f4a84890)" style="fill: #e6482f"/>
    <path d="M 253.755466 311.33723 
L 262.238006 308.777101 
L 263.608613 313.325902 
L 255.126074 315.882221 
L 253.755466 311.33723 
" clip-path="url(#pe9f4a84890)" style="fill: #e6482f"/>
    <path d="M 273.162257 310.236223 
L 272.16476 305.626466 
L 279.685335 303.999718 
L 280.682833 308.605664 
L 273.162257 310.236223 
" clip-path="url(#pe9f4a84890)" style="fill: #e6482f"/>
    <path d="M 251.991443 293.027736 
L 251.829001 292.429611 
L 252.895029 292.140073 
L 253.577795 291.953396 
L 253.714856 292.452469 
L 256.537292 291.679097 
L 257.836832 296.426003 
L 254.552449 297.325096 
L 250.389862 298.464201 
L 249.118243 293.812538 
L 251.991443 293.027736 
" clip-path="url(#pe9f4a84890)" style="fill: #e6482f"/>
    <path d="M 249.374597 290.368555 
L 249.66141 291.214312 
L 247.803475 291.842915 
L 247.516662 290.997158 
L 249.374597 290.368555 
" clip-path="url(#pe9f4a84890)" style="fill: #e6482f"/>
    <path d="M 284.360631 270.32183 
L 284.578913 274.962064 
L 272.464263 275.529712 
L 272.248519 270.889478 
L 284.360631 270.32183 
" clip-path="url(#pe9f4a84890)" style="fill: #e6482f"/>
    <path d="M 299.533767 269.342733 
L 299.79266 274.108688 
L 287.584097 274.771578 
L 287.325205 270.005624 
L 299.533767 269.342733 
" clip-path="url(#pe9f4a84890)" style="fill: #e6482f"/>
    <path d="M 267.354941 263.856743 
L 267.941257 276.653578 
L 263.250732 276.866922 
L 262.664417 264.070087 
L 267.354941 263.856743 
" clip-path="url(#pe9f4a84890)" style="fill: #e6482f"/>
    <path d="M 299.168272 266.390204 
L 294.320381 266.691171 
L 293.56147 254.332453 
L 298.409361 254.035295 
L 299.168272 266.390204 
" clip-path="url(#pe9f4a84890)" style="fill: #e6482f"/>
    <path d="M 266.167081 248.515017 
L 267.045286 260.728966 
L 262.225315 261.07184 
L 261.349649 248.861701 
L 266.167081 248.515017 
" clip-path="url(#pe9f4a84890)" style="fill: #e6482f"/>
    <path d="M 282.921493 247.619734 
L 283.198152 252.431405 
L 270.54795 253.16287 
L 270.27129 248.351199 
L 282.921493 247.619734 
" clip-path="url(#pe9f4a84890)" style="fill: #e6482f"/>
    <path d="M 297.850965 246.492058 
L 298.211384 251.067527 
L 286.160188 252.016146 
L 285.802307 247.440677 
L 297.850965 246.492058 
" clip-path="url(#pe9f4a84890)" style="fill: #e6482f"/>
   </g>
   <g id="LineCollection_1">
    <path d="M 75.117043 356.38331 
L 73.568764 360.330175 
L 73.875882 364.818021 
L 79.346863 385.869023 
" clip-path="url(#pe9f4a84890)" style="fill: none; stroke: #e6482f; stroke-width: 0.5"/>
    <path d="M 91.078012 427.037824 
L 91.549108 428.604092 
L 100.950463 461.184781 
L 110.037085 493.952147 
L 111.986394 499.575287 
L 114.489022 505.609877 
L 125.72293 531.454989 
L 126.451382 533.546523 
L 126.890484 536.167607 
L 126.997087 537.904838 
L 125.976746 540.628785 
L 123.45635 543.623221 
L 119.986682 546.58718 
L 113.862096 549.760673 
L 95.922362 560.218343 
L 76.271907 572.660875 
L 63.895827 581.350837 
L 53.068025 589.892219 
L 42.167822 599.153318 
" clip-path="url(#pe9f4a84890)" style="fill: none; stroke: #e6482f; stroke-width: 0.5"/>
    <path d="M 112.65393 699.92824 
L 115.79756 708.747851 
" clip-path="url(#pe9f4a84890)" style="fill: none; stroke: #e6482f; stroke-width: 0.2"/>
    <path d="M 112.65393 699.92824 
L 125.159457 689.276275 
L 133.984649 675.424148 
L 141.1245 660.509111 
L 135.256268 651.072445 
" clip-path="url(#pe9f4a84890)" style="fill: none; stroke: #e6482f; stroke-width: 0.2"/>
    <path d="M 141.1245 660.509111 
L 143.33524 650.813384 
L 151.695948 641.193852 
L 174.40235 630.061863 
" clip-path="url(#pe9f4a84890)" style="fill: none; stroke: #e6482f; stroke-width: 0.2"/>
    <path d="M 53.068025 589.892219 
L 61.598789 604.647249 
L 96.199022 663.713082 
L 107.321251 688.106692 
L 112.65393 699.92824 
" clip-path="url(#pe9f4a84890)" style="fill: none; stroke: #e6482f; stroke-width: 0.2"/>
    <path d="M 232.589728 686.899012 
L 230.886621 694.099375 
L 228.653038 698.937714 
L 223.34574 704.252268 
L 216.650067 708.092461 
L 212.523015 708.221992 
L 209.649814 705.753296 
" clip-path="url(#pe9f4a84890)" style="fill: none; stroke: #e6482f; stroke-width: 0.2"/>
    <path d="M 290.236477 526.643318 
L 286.294711 594.642935 
L 286.710969 622.876739 
L 287.52572 644.664503 
L 289.50041 663.134005 
L 290.386229 677.824269 
L 291.464948 682.677847 
L 294.40414 687.904777 
L 305.92486 703.932252 
" clip-path="url(#pe9f4a84890)" style="fill: none; stroke: #e6482f; stroke-width: 0.2"/>
    <path d="M 251.81631 583.011873 
L 252.31379 595.602983 
L 252.808731 605.710159 
L 257.115993 619.958496 
L 260.595814 631.060008 
" clip-path="url(#pe9f4a84890)" style="fill: none; stroke: #e6482f; stroke-width: 0.2"/>
    <path d="M 177.920244 475.913143 
L 178.123297 478.671377 
L 181.290924 486.633683 
L 190.958785 508.935759 
L 196.222934 527.161439 
L 199.636763 545.531889 
L 206.730927 569.689297 
L 210.297046 579.971719 
L 222.97263 623.516771 
L 226.084417 649.639992 
L 230.477977 666.795142 
L 231.843508 673.92693 
L 232.589728 686.899012 
" clip-path="url(#pe9f4a84890)" style="fill: none; stroke: #e6482f; stroke-width: 0.2"/>
    <path d="M 326.595657 521.465914 
L 320.735039 519.256279 
L 312.498702 513.850292 
L 302.117616 508.299536 
L 292.749258 501.182987 
L 289.566402 499.826728 
L 285.764235 500.032453 
L 281.639721 501.704918 
L 279.16755 502.969744 
L 273.306933 510.589176 
L 249.704559 535.390425 
L 247.097866 537.775307 
L 231.37141 555.680972 
L 210.297046 579.971719 
L 194.324389 597.770712 
L 171.704283 623.905362 
" clip-path="url(#pe9f4a84890)" style="fill: none; stroke: #e6482f; stroke-width: 0.2"/>
    <path d="M 249.704559 535.390425 
L 251.483811 540.933562 
L 252.643751 550.042592 
L 251.651329 560.149768 
L 251.81631 583.011873 
" clip-path="url(#pe9f4a84890)" style="fill: none; stroke: #e6482f; stroke-width: 0.2"/>
    <path d="M 320.735039 519.256279 
L 309.612811 515.831344 
L 306.371577 515.49228 
L 302.843531 516.867587 
L 290.236477 526.643318 
L 286.025666 529.534892 
L 281.393519 531.138783 
L 267.443777 533.382705 
L 259.194749 533.516045 
L 249.704559 535.390425 
" clip-path="url(#pe9f4a84890)" style="fill: none; stroke: #e6482f; stroke-width: 0.2"/>
    <path d="M 290.236477 526.643318 
L 288.343008 518.772445 
L 281.639721 501.704918 
" clip-path="url(#pe9f4a84890)" style="fill: none; stroke: #e6482f; stroke-width: 0.2"/>
    <path d="M 238.298056 518.646724 
L 247.694334 514.090304 
L 264.895462 506.169905 
L 271.565753 504.684116 
L 279.16755 502.969744 
" clip-path="url(#pe9f4a84890)" style="fill: none; stroke: #e6482f; stroke-width: 0.2"/>
    <path d="M 197.558008 469.291856 
L 204.182612 491.216771 
L 207.159877 499.662911 
L 210.261512 505.670832 
L 213.982458 512.387361 
L 220.538532 523.062185 
L 222.170571 524.426063 
L 225.234133 523.812699 
L 238.298056 518.646724 
L 247.097866 537.775307 
" clip-path="url(#pe9f4a84890)" style="fill: none; stroke: #e6482f; stroke-width: 0.2"/>
    <path d="M 209.649814 705.753296 
L 197.459019 682.388309 
L 174.40235 630.061863 
L 171.704283 623.905362 
L 139.284332 551.966499 
L 136.22077 547.131969 
L 134.010031 543.387019 
L 131.933813 540.815461 
L 129.857596 539.181093 
L 126.997087 537.904838 
" clip-path="url(#pe9f4a84890)" style="fill: none; stroke: #e6482f; stroke-width: 0.2"/>
    <path d="M 95.922362 560.218343 
L 116.529705 607.279762 
L 135.256268 651.072445 
" clip-path="url(#pe9f4a84890)" style="fill: none; stroke: #e6482f; stroke-width: 0.2"/>
    <path d="M 176.110534 527.969099 
L 177.052192 541.684076 
L 187.16677 581.17178 
L 194.324389 597.770712 
" clip-path="url(#pe9f4a84890)" style="fill: none; stroke: #e6482f; stroke-width: 0.2"/>
    <path d="M 155.487963 486.229853 
L 170.722014 519.51153 
L 176.110534 527.969099 
" clip-path="url(#pe9f4a84890)" style="fill: none; stroke: #e6482f; stroke-width: 0.2"/>
    <path d="M 113.862096 549.760673 
L 105.826273 529.622516 
L 91.488192 491.159625 
L 78.797379 463.283935 
L 66.787089 433.722121 
" clip-path="url(#pe9f4a84890)" style="fill: none; stroke: #e6482f; stroke-width: 0.2"/>
    <path d="M 91.52506 428.606675 
L 91.549108 428.604092 
" clip-path="url(#pe9f4a84890)" style="fill: none; stroke: #e6482f; stroke-width: 0.2"/>
    <path d="M 142.444345 492.527313 
L 138.852845 484.324995 
L 128.834717 461.379077 
L 100.356532 400.518867 
" clip-path="url(#pe9f4a84890)" style="fill: none; stroke: #e6482f; stroke-width: 0.2"/>
    <path d="M 129.474334 339.045293 
L 147.053648 395.931969 
L 149.599425 401.330337 
L 152.822892 404.755271 
L 157.429657 408.001149 
L 160.290166 410.317456 
L 162.313082 413.955735 
L 169.09759 437.358819 
L 176.11561 457.089337 
L 177.341543 459.538984 
L 179.539591 462.053396 
L 181.699568 463.47442 
L 184.745363 465.310703 
L 188.253104 467.790828 
L 191.570482 470.979561 
" clip-path="url(#pe9f4a84890)" style="fill: none; stroke: #e6482f; stroke-width: 0.2"/>
    <path d="M 83.878738 401.772995 
L 100.356532 400.518867 
L 126.588443 398.922596 
L 147.053648 395.931969 
" clip-path="url(#pe9f4a84890)" style="fill: none; stroke: #e6482f; stroke-width: 0.2"/>
    <path d="M 159.736847 330.37438 
L 179.349229 393.364221 
L 180.463483 394.709051 
" clip-path="url(#pe9f4a84890)" style="fill: none; stroke: #e6482f; stroke-width: 0.2"/>
    <path d="M 306.470565 446.117355 
L 307.201556 451.641443 
L 308.752374 457.668414 
L 310.742293 466.621246 
L 310.810823 474.313062 
L 311.219468 482.827777 
L 312.37687 497.12183 
L 314.214499 503.659303 
L 317.026784 509.846281 
L 320.714734 514.928442 
L 326.595657 521.465914 
L 330.344523 525.789942 
L 334.456346 534.327515 
" clip-path="url(#pe9f4a84890)" style="fill: none; stroke: #e6482f; stroke-width: 0.2"/>
    <path d="M 267.509769 453.618686 
L 276.786754 487.890889 
L 281.639721 501.704918 
" clip-path="url(#pe9f4a84890)" style="fill: none; stroke: #e6482f; stroke-width: 0.2"/>
    <path d="M 179.943159 474.87309 
L 179.938083 468.564201 
L 181.699568 463.47442 
L 184.897653 456.715985 
L 186.97387 453.070087 
L 190.446076 450.281375 
L 194.291392 448.513667 
L 201.159661 446.395465 
L 221.678167 441.294255 
" clip-path="url(#pe9f4a84890)" style="fill: none; stroke: #e6482f; stroke-width: 0.2"/>
    <path d="M 295.901656 336.511832 
L 295.764595 338.355735 
L 305.655815 370.166862 
L 312.039294 416.192038 
L 313.430207 426.668756 
L 313.737325 432.714775 
L 313.120551 438.193147 
L 310.310805 442.479077 
L 306.470565 446.117355 
L 301.94756 447.222173 
L 267.509769 453.618686 
L 253.011784 455.729268 
L 240.892058 457.973191 
L 225.886441 461.219069 
L 197.558008 469.291856 
L 191.570482 470.979561 
L 179.943159 474.87309 
L 177.920244 475.913143 
L 171.044361 478.671377 
L 155.487963 486.229853 
L 142.444345 492.527313 
L 114.489022 505.609877 
" clip-path="url(#pe9f4a84890)" style="fill: none; stroke: #e6482f; stroke-width: 0.2"/>
    <path d="M 213.086487 404.63336 
L 204.149616 407.136343 
L 191.342048 410.869865 
" clip-path="url(#pe9f4a84890)" style="fill: none; stroke: #e6482f; stroke-width: 0.2"/>
    <path d="M 197.99711 390.0231 
L 204.149616 407.136343 
" clip-path="url(#pe9f4a84890)" style="fill: none; stroke: #e6482f; stroke-width: 0.2"/>
    <path d="M 188.303867 322.221588 
L 208.073615 386.868656 
L 213.086487 404.63336 
L 216.35564 417.940697 
L 221.678167 441.294255 
L 225.886441 461.219069 
" clip-path="url(#pe9f4a84890)" style="fill: none; stroke: #e6482f; stroke-width: 0.2"/>
    <path d="M 208.073615 386.868656 
L 197.99711 390.0231 
L 183.775785 394.04616 
L 180.463483 394.709051 
" clip-path="url(#pe9f4a84890)" style="fill: none; stroke: #e6482f; stroke-width: 0.2"/>
    <path d="M 250.920338 435.842552 
L 224.909248 357.076678 
L 214.205816 319.090002 
L 213.850474 314.845979 
" clip-path="url(#pe9f4a84890)" style="fill: none; stroke: #e6482f; stroke-width: 0.2"/>
    <path d="M 305.655815 370.166862 
L 329.291185 362.509333 
" clip-path="url(#pe9f4a84890)" style="fill: none; stroke: #e6482f; stroke-width: 0.2"/>
    <path d="M 295.901656 336.511832 
L 224.909248 357.076678 
" clip-path="url(#pe9f4a84890)" style="fill: none; stroke: #e6482f; stroke-width: 0.2"/>
    <path d="M 317.080085 331.422052 
L 313.145933 330.823927 
L 297.434706 335.353679 
L 295.901656 336.511832 
" clip-path="url(#pe9f4a84890)" style="fill: none; stroke: #e6482f; stroke-width: 0.2"/>
    <path d="M 317.080085 331.422052 
L 315.41505 329.589579 
L 310.023993 315.89746 
L 307.04419 311.840113 
L 305.158335 310.369563 
L 303.60498 309.158073 
L 299.366248 306.92558 
L 284.358093 298.662306 
L 280.086365 297.252711 
L 275.799408 297.241282 
L 265.628991 299.81284 
L 213.850474 314.845979 
" clip-path="url(#pe9f4a84890)" style="fill: none; stroke: #e6482f; stroke-width: 0.5"/>
    <path d="M 213.850474 314.845979 
L 203.408473 278.421286 
L 193.481719 244.968172 
" clip-path="url(#pe9f4a84890)" style="fill: none; stroke: #e6482f; stroke-width: 0.5"/>
    <path d="M 229.003304 245.246281 
L 246.082601 244.636726 
L 251.16654 245.516771 
L 254.415388 246.945414 
L 256.006816 250.739891 
L 257.255592 255.681093 
L 258.882555 272.013344 
L 260.341998 278.962266 
L 263.491858 292.814392 
L 265.628991 299.81284 
" clip-path="url(#pe9f4a84890)" style="fill: none; stroke: #e6482f; stroke-width: 0.2"/>
    <path d="M 75.117043 356.38331 
L 73.921382 352.938393 
" clip-path="url(#pe9f4a84890)" style="fill: none; stroke: #e6482f; stroke-width: 0.2"/>
    <path d="M 72.998834 316.681647 
L 73.010369 316.57178 
L 75.157654 314.922173 
" clip-path="url(#pe9f4a84890)" style="fill: none; stroke: #e6482f; stroke-width: 0.2"/>
    <path d="M 213.850474 314.845979 
L 188.303867 322.221588 
L 159.736847 330.37438 
L 129.474334 339.045293 
L 78.58925 353.621266 
L 75.117043 356.38331 
" clip-path="url(#pe9f4a84890)" style="fill: none; stroke: #e6482f; stroke-width: 0.5"/>
    <path d="M 203.408473 278.421286 
L 93.724314 309.73715 
L 75.157654 314.922173 
" clip-path="url(#pe9f4a84890)" style="fill: none; stroke: #e6482f; stroke-width: 0.2"/>
    <path d="M 93.724314 309.73715 
L 90.371401 296.086938 
L 90.439931 291.180024 
L 93.191299 276.215461 
" clip-path="url(#pe9f4a84890)" style="fill: none; stroke: #e6482f; stroke-width: 0.2"/>
    <path d="M 192.109193 241.914 
L 193.481719 244.968172 
" clip-path="url(#pe9f4a84890)" style="fill: none; stroke: #e6482f; stroke-width: 0.5"/>
    <path d="M 482.639356 754.791957 
L 482.077709 757.335458 
" clip-path="url(#pe9f4a84890)" style="fill: none; stroke: #e6482f; stroke-width: 0.2"/>
    <path d="M 486.10141 744.84098 
L 482.639356 754.791957 
" clip-path="url(#pe9f4a84890)" style="fill: none; stroke: #e6482f; stroke-width: 0.2"/>
    <path d="M 563.926552 473.634932 
L 562.182834 481.513425 
L 560.695471 503.095465 
L 551.091063 548.964443 
L 549.887974 554.713304 
L 488.885774 736.543419 
L 486.10141 744.84098 
" clip-path="url(#pe9f4a84890)" style="fill: none; stroke: #e6482f; stroke-width: 0.2"/>
    <path d="M 573.884692 471.229292 
L 569.368372 466.129792 
" clip-path="url(#pe9f4a84890)" style="fill: none; stroke: #e6482f; stroke-width: 0.2"/>
    <path d="M 554.442334 549.455897 
L 551.091063 548.964443 
L 546.585825 548.301552 
L 529.948169 549.688289 
L 457.620687 541.832655 
L 439.135249 535.824733 
L 397.082971 521.557347 
" clip-path="url(#pe9f4a84890)" style="fill: none; stroke: #e6482f; stroke-width: 0.2"/>
    <path d="M 569.368372 466.129792 
L 566.855591 470.366196 
L 563.926552 473.634932 
L 556.573494 476.35507 
L 536.428098 482.25251 
L 522.229616 486.622254 
L 475.377673 500.954404 
L 446.721817 509.72056 
L 428.043478 515.435134 
L 407.385373 521.488772 
L 403.397919 522.159282 
L 400.10846 522.086898 
L 397.082971 521.557347 
L 394.615876 518.536243 
L 381.978365 469.859504 
L 381.747392 465.805967 
L 382.904794 462.262931 
L 385.394732 458.685608 
" clip-path="url(#pe9f4a84890)" style="fill: none; stroke: #e6482f; stroke-width: 0.2"/>
    <path d="M 499.370924 474.446402 
L 522.229616 486.622254 
L 560.695471 503.095465 
" clip-path="url(#pe9f4a84890)" style="fill: none; stroke: #e6482f; stroke-width: 0.2"/>
    <path d="M 499.370924 474.446402 
L 475.377673 500.954404 
" clip-path="url(#pe9f4a84890)" style="fill: none; stroke: #e6482f; stroke-width: 0.2"/>
    <path d="M 490.621877 417.395908 
L 499.370924 474.446402 
" clip-path="url(#pe9f4a84890)" style="fill: none; stroke: #e6482f; stroke-width: 0.2"/>
    <path d="M 520.305689 405.498166 
L 536.428098 482.25251 
" clip-path="url(#pe9f4a84890)" style="fill: none; stroke: #e6482f; stroke-width: 0.2"/>
    <path d="M 488.885774 736.543419 
L 487.692838 730.474541 
L 484.723187 724.352328 
L 480.941325 720.394033 
L 474.821815 717.513888 
L 467.263167 715.982383 
L 461.323866 714.363253 
L 456.102866 711.662165 
L 450.884403 706.980024 
L 442.513543 699.692038 
L 436.394033 697.261439 
L 430.00294 695.280387 
L 424.155013 692.670732 
L 406.514783 678.715743 
L 391.935577 665.21411 
L 388.425298 660.086233 
L 384.376929 656.935598 
L 379.605183 655.674582 
L 377.176161 653.243983 
L 372.947582 648.923765 
L 365.401625 637.86416 
" clip-path="url(#pe9f4a84890)" style="fill: none; stroke: #e6482f; stroke-width: 0.2"/>
    <path d="M 334.456346 534.327515 
L 342.098754 557.071518 
L 345.725788 580.985104 
L 349.662478 600.456561 
L 357.307424 624.034892 
L 359.145054 627.303628 
L 361.840583 630.22568 
L 365.244259 636.782201 
L 365.401625 637.86416 
L 366.048856 642.325338 
L 366.597099 656.962266 
L 370.122607 673.370712 
" clip-path="url(#pe9f4a84890)" style="fill: none; stroke: #e6482f; stroke-width: 0.2"/>
    <path d="M 397.082971 521.557347 
L 386.785645 524.970853 
L 375.417214 526.536646 
L 363.706132 525.515642 
L 355.332734 524.902278 
L 341.139328 526.570933 
L 330.344523 525.789942 
" clip-path="url(#pe9f4a84890)" style="fill: none; stroke: #e6482f; stroke-width: 0.2"/>
    <path d="M 443.442511 495.620802 
L 472.446095 485.833642 
L 499.370924 474.446402 
" clip-path="url(#pe9f4a84890)" style="fill: none; stroke: #e6482f; stroke-width: 0.2"/>
    <path d="M 409.90323 449.458476 
L 428.043478 515.435134 
" clip-path="url(#pe9f4a84890)" style="fill: none; stroke: #e6482f; stroke-width: 0.2"/>
    <path d="M 430.431889 441.945717 
L 443.442511 495.620802 
L 446.721817 509.72056 
" clip-path="url(#pe9f4a84890)" style="fill: none; stroke: #e6482f; stroke-width: 0.2"/>
    <path d="M 459.976102 430.120359 
L 472.446095 485.833642 
L 475.377673 500.954404 
" clip-path="url(#pe9f4a84890)" style="fill: none; stroke: #e6482f; stroke-width: 0.2"/>
    <path d="M 314.288106 438.448398 
L 316.219648 444.231546 
L 321.260439 454.593973 
L 324.53213 459.500887 
L 330.585648 465.242129 
L 334.014706 472.773937 
" clip-path="url(#pe9f4a84890)" style="fill: none; stroke: #e6482f; stroke-width: 0.2"/>
    <path d="M 378.815814 434.554868 
L 385.394732 458.685608 
" clip-path="url(#pe9f4a84890)" style="fill: none; stroke: #e6482f; stroke-width: 0.2"/>
    <path d="M 345.494815 444.593469 
L 334.867529 417.891171 
L 333.220261 410.317456 
" clip-path="url(#pe9f4a84890)" style="fill: none; stroke: #e6482f; stroke-width: 0.2"/>
    <path d="M 566.375878 384.540919 
L 538.71752 397.490143 
L 520.305689 405.498166 
L 490.621877 417.395908 
L 486.164864 419.060754 
L 459.976102 430.120359 
L 430.431889 441.945717 
L 409.90323 449.458476 
L 385.394732 458.685608 
L 380.046823 463.626809 
L 374.736987 465.668817 
L 371.465295 465.192602 
L 364.729012 451.915743 
L 361.444629 446.761197 
L 357.647538 445.65257 
L 351.588944 445.65257 
L 345.494815 444.593469 
L 314.288106 438.448398 
L 313.120551 438.193147 
" clip-path="url(#pe9f4a84890)" style="fill: none; stroke: #e6482f; stroke-width: 0.2"/>
    <path d="M 334.867529 417.891171 
L 313.430207 426.668756 
" clip-path="url(#pe9f4a84890)" style="fill: none; stroke: #e6482f; stroke-width: 0.2"/>
    <path d="M 369.754574 407.471598 
L 362.277147 409.090728 
L 356.688113 409.982201 
L 350.228489 409.841242 
L 341.446446 409.978391 
L 333.220261 410.317456 
L 312.039294 416.192038 
" clip-path="url(#pe9f4a84890)" style="fill: none; stroke: #e6482f; stroke-width: 0.2"/>
    <path d="M 378.815814 434.554868 
L 421.766602 418.142612 
L 457.448092 403.848559 
L 478.464078 396.366277 
L 492.69048 389.150675 
L 528.453191 374.917577 
L 558.81723 364.772304 
L 564.535711 363.545575 
" clip-path="url(#pe9f4a84890)" style="fill: none; stroke: #e6482f; stroke-width: 0.2"/>
    <path d="M 349.195457 333.669784 
L 349.205609 337.74237 
L 350.901102 342.474037 
L 369.754574 407.471598 
L 378.815814 434.554868 
" clip-path="url(#pe9f4a84890)" style="fill: none; stroke: #e6482f; stroke-width: 0.2"/>
    <path d="M 421.766602 418.142612 
L 392.887388 323.196876 
L 387.668925 315.977464 
" clip-path="url(#pe9f4a84890)" style="fill: none; stroke: #e6482f; stroke-width: 0.2"/>
    <path d="M 457.448092 403.848559 
L 426.787088 306.510321 
L 423.685453 302.616791 
" clip-path="url(#pe9f4a84890)" style="fill: none; stroke: #e6482f; stroke-width: 0.2"/>
    <path d="M 329.291185 362.509333 
L 328.410443 357.141443 
L 335.702584 352.89361 
L 342.433791 345.12179 
L 344.918653 343.677908 
L 350.901102 342.474037 
" clip-path="url(#pe9f4a84890)" style="fill: none; stroke: #e6482f; stroke-width: 0.2"/>
    <path d="M 350.901102 342.474037 
L 392.887388 323.196876 
L 426.787088 306.510321 
L 434.31274 302.395827 
" clip-path="url(#pe9f4a84890)" style="fill: none; stroke: #e6482f; stroke-width: 0.2"/>
    <path d="M 417.281669 301.972949 
L 407.791479 306.620802 
L 387.668925 315.977464 
L 354.096649 331.974461 
L 349.195457 333.669784 
L 345.966914 333.883128 
L 320.09796 331.909696 
L 317.080085 331.422052 
" clip-path="url(#pe9f4a84890)" style="fill: none; stroke: #e6482f; stroke-width: 0.5"/>
    <path d="M 486.164864 419.060754 
L 478.464078 396.366277 
" clip-path="url(#pe9f4a84890)" style="fill: none; stroke: #e6482f; stroke-width: 0.2"/>
    <path d="M 492.69048 389.150675 
L 461.062435 289.736142 
" clip-path="url(#pe9f4a84890)" style="fill: none; stroke: #e6482f; stroke-width: 0.2"/>
    <path d="M 569.368372 466.129792 
L 566.375878 384.540919 
L 564.535711 363.545575 
L 560.203067 343.407418 
L 531.290857 259.349849 
L 530.501488 254.077202 
L 514.637972 211.362669 
L 507.444819 205.137593 
" clip-path="url(#pe9f4a84890)" style="fill: none; stroke: #e6482f; stroke-width: 0.2"/>
    <path d="M 528.453191 374.917577 
L 505.919383 305.382645 
L 496.43427 274.253457 
" clip-path="url(#pe9f4a84890)" style="fill: none; stroke: #e6482f; stroke-width: 0.2"/>
    <path d="M 560.203067 343.407418 
L 580.835791 271.121871 
L 585.775055 253.284781 
L 585.78267 250.008426 
L 585.483167 247.341625 
L 584.325764 245.215803 
L 581.81806 242.861399 
L 578.812875 241.600383 
L 574.939639 241.406087 
" clip-path="url(#pe9f4a84890)" style="fill: none; stroke: #e6482f; stroke-width: 0.2"/>
    <path d="M 580.835791 271.121871 
L 584.68339 272.06109 
" clip-path="url(#pe9f4a84890)" style="fill: none; stroke: #e6482f; stroke-width: 0.2"/>
    <path d="M 574.939639 241.406087 
L 531.290857 259.349849 
L 496.43427 274.253457 
L 461.062435 289.736142 
L 434.31274 302.395827 
L 423.685453 302.616791 
L 417.281669 301.972949 
" clip-path="url(#pe9f4a84890)" style="fill: none; stroke: #e6482f; stroke-width: 0.2"/>
    <path d="M 580.701268 239.482181 
L 574.939639 241.406087 
" clip-path="url(#pe9f4a84890)" style="fill: none; stroke: #e6482f; stroke-width: 0.2"/>
    <path d="M 566.190593 138.528522 
L 545.659395 161.527777 
L 507.444819 205.137593 
L 471.80394 245.238662 
L 430.023245 292.250554 
L 424.025567 297.576537 
L 420.385841 299.94999 
L 417.281669 301.972949 
" clip-path="url(#pe9f4a84890)" style="fill: none; stroke: #e6482f; stroke-width: 0.5"/>
    <path d="M 545.659395 161.527777 
L 574.939639 241.406087 
" clip-path="url(#pe9f4a84890)" style="fill: none; stroke: #e6482f; stroke-width: 0.2"/>
    <path d="M 305.158335 310.369563 
L 311.831165 308.186595 
L 344.748596 309.630478 
L 366.934675 300.551925 
L 370.957663 297.972747 
" clip-path="url(#pe9f4a84890)" style="fill: none; stroke: #e6482f; stroke-width: 0.2"/>
    <path d="M 408.74329 264.82441 
L 410.631683 264.96156 
L 413.256143 267.014997 
L 415.423734 270.32183 
L 418.048194 275.343036 
L 419.418801 278.76416 
L 419.647236 293.484902 
L 420.385841 299.94999 
" clip-path="url(#pe9f4a84890)" style="fill: none; stroke: #e6482f; stroke-width: 0.2"/>
    <path d="M 260.341998 278.962266 
L 361.086748 271.388551 
L 408.74329 264.82441 
" clip-path="url(#pe9f4a84890)" style="fill: none; stroke: #e6482f; stroke-width: 0.2"/>
    <path d="M 446.244642 230.803648 
L 350.977247 237.943056 
L 261.519706 245.566297 
L 254.415388 246.945414 
" clip-path="url(#pe9f4a84890)" style="fill: none; stroke: #e6482f; stroke-width: 0.2"/>
    <path d="M 446.244642 230.803648 
L 449.163529 230.834126 
L 453.524092 234.765753 
L 458.483662 235.280065 
L 462.504112 238.01544 
L 466.778378 240.068877 
L 468.915511 241.608002 
L 471.80394 245.238662 
" clip-path="url(#pe9f4a84890)" style="fill: none; stroke: #e6482f; stroke-width: 0.2"/>
    <path d="M 580.701268 239.482181 
L 594.9962 234.102862 
L 598.714608 230.319815 
L 602.392406 223.104213 
L 603.841697 218.155392 
L 607.197148 200.474501 
L 596.940433 180.545878 
L 566.190593 138.528522 
" clip-path="url(#pe9f4a84890)" style="fill: none; stroke: #e6482f; stroke-width: 0.2"/>
    <path d="M 647.03942 46.055425 
L 566.190593 138.528522 
" clip-path="url(#pe9f4a84890)" style="fill: none; stroke: #e6482f; stroke-width: 0.5"/>
   </g>
  </g>
 </g>
 <defs>
  <clipPath id="pe9f4a84890">
   <rect x="7.2" y="7.2" width="697.009149" height="831.6"/>
  </clipPath>
 </defs>
</svg>
