<?xml version="1.0" encoding="utf-8" standalone="no"?>
<!DOCTYPE svg PUBLIC "-//W3C//DTD SVG 1.1//EN"
  "http://www.w3.org/Graphics/SVG/1.1/DTD/svg11.dtd">
<svg xmlns:xlink="http://www.w3.org/1999/xlink" width="851.4pt" height="741.672489pt" viewBox="0 0 851.4 741.672489" xmlns="http://www.w3.org/2000/svg" version="1.1">
 <metadata>
  <rdf:RDF xmlns:dc="http://purl.org/dc/elements/1.1/" xmlns:cc="http://creativecommons.org/ns#" xmlns:rdf="http://www.w3.org/1999/02/22-rdf-syntax-ns#">
   <cc:Work>
    <dc:type rdf:resource="http://purl.org/dc/dcmitype/StillImage"/>
    <dc:date>2025-03-16T14:38:38.344716</dc:date>
    <dc:format>image/svg+xml</dc:format>
    <dc:creator>
     <cc:Agent>
      <dc:title>Matplotlib v3.10.1, https://matplotlib.org/</dc:title>
     </cc:Agent>
    </dc:creator>
   </cc:Work>
  </rdf:RDF>
 </metadata>
 <defs>
  <style type="text/css">*{stroke-linejoin: round; stroke-linecap: butt}</style>
 </defs>
 <g id="figure_1">
  <g id="patch_1">
   <path d="M 0 741.672489 
L 851.4 741.672489 
L 851.4 0 
L 0 0 
z
" style="fill: #ffffff"/>
  </g>
  <g id="axes_1">
   <g id="PatchCollection_1">
    <path d="M 153.87808 249.090809 
L 147.175517 341.64573 
L 80.193193 345.552557 
L 48.188923 414.032737 
L 45.245455 423.943057 
L 56.86198 437.02876 
L 62.870178 475.78015 
L 52.909445 509.422279 
L 152.57741 519.964202 
L 144.834023 537.154245 
L 145.763691 550.474357 
L 129.035433 552.642646 
L 80.193193 557.823534 
L 75.285006 613.604353 
L 172.877096 613.454591 
L 343.830711 633.971949 
L 501.057279 647.745687 
L 531.757992 636.945479 
L 709.928086 701.414649 
L 726.901753 664.221648 
L 756.750751 629.609324 
L 806.154545 558.839309 
L 693.374502 518.598983 
L 722.695148 445.767031 
L 735.024803 368.813376 
L 617.589199 331.681148 
L 492.937116 298.696669 
L 356.554465 237.192348 
L 346.332443 233.47652 
L 343.080047 223.722474 
L 343.390417 203.439526 
L 350.3586 169.065953 
L 355.159962 142.43658 
L 350.204136 131.90768 
L 354.851035 110.38757 
L 357.948968 82.366933 
L 355.005499 69.826015 
L 356.400001 49.855614 
L 353.147605 40.25784 
L 331.773892 42.269857 
L 327.902199 46.914641 
L 324.029061 99.085985 
L 323.409763 140.889043 
L 321.55187 191.981668 
L 317.83464 211.181556 
L 308.386379 229.452488 
L 197.240473 212.156093 
L 153.87808 249.090809 
" clip-path="url(#pabaf821719)" style="fill: #f29888"/>
   </g>
   <g id="PatchCollection_2">
    <path d="M 543.915861 539.185795 
L 544.141061 544.177853 
L 541.115307 544.312421 
L 540.891552 539.322534 
L 543.915861 539.185795 
" clip-path="url(#pabaf821719)" style="fill: #f29888"/>
    <path d="M 546.592267 533.557793 
L 547.741361 532.869757 
L 548.77208 534.879603 
L 543.914418 537.371291 
L 542.844722 535.491672 
L 546.592267 533.557793 
" clip-path="url(#pabaf821719)" style="fill: #f29888"/>
    <path d="M 552.760704 530.612479 
L 554.910201 535.005489 
L 551.475914 536.685425 
L 549.326416 532.294585 
L 552.760704 530.612479 
" clip-path="url(#pabaf821719)" style="fill: #f29888"/>
    <path d="M 543.930297 528.396439 
L 546.592267 533.557793 
L 542.844722 535.491672 
L 542.003112 533.859487 
L 544.119407 532.767745 
L 542.299047 529.238577 
L 543.930297 528.396439 
" clip-path="url(#pabaf821719)" style="fill: #f29888"/>
   </g>
   <g id="LineCollection_1">
    <path d="M 657.175175 648.969827 
L 649.98035 662.582951 
L 645.36518 678.053169 
" clip-path="url(#pabaf821719)" style="fill: none; stroke: #f29888; stroke-width: 0.2"/>
    <path d="M 657.448013 581.629138 
L 661.595431 582.968312 
L 668.720965 585.757353 
L 670.638045 588.546394 
L 671.121646 591.209548 
L 657.175175 648.969827 
L 654.703758 659.205715 
L 648.998276 679.367771 
" clip-path="url(#pabaf821719)" style="fill: none; stroke: #f29888; stroke-width: 0.2"/>
    <path d="M 349.01751 572.348252 
L 346.651475 589.28435 
L 345.281513 600.492605 
L 342.417441 611.70303 
L 339.053889 615.438392 
L 339.677518 620.295881 
L 341.669665 624.780051 
L 341.917961 629.63754 
L 341.764237 633.723936 
" clip-path="url(#pabaf821719)" style="fill: none; stroke: #f29888; stroke-width: 0.2"/>
    <path d="M 398.995851 557.777954 
L 410.456469 573.824164 
L 413.500989 580.224851 
L 415.715447 584.880487 
L 416.389601 593.913941 
L 421.917087 605.107003 
L 432.788722 623.239025 
L 435.519984 631.022294 
L 441.975694 639.825679 
L 444.718852 642.810193 
" clip-path="url(#pabaf821719)" style="fill: none; stroke: #f29888; stroke-width: 0.2"/>
    <path d="M 506.746446 644.930601 
L 509.199096 641.355853 
L 510.322205 634.610064 
L 513.082339 629.806836 
L 515.125011 626.33193 
L 516.555603 622.448977 
L 517.475167 614.377037 
L 517.521361 611.008483 
" clip-path="url(#pabaf821719)" style="fill: none; stroke: #f29888; stroke-width: 0.2"/>
    <path d="M 532.039491 548.306068 
L 528.341028 563.086899 
L 523.486253 578.998541 
L 519.172822 589.785726 
L 517.418867 598.953749 
L 517.521361 611.008483 
" clip-path="url(#pabaf821719)" style="fill: none; stroke: #f29888; stroke-width: 0.2"/>
    <path d="M 517.521361 611.008483 
L 487.331677 596.288424 
L 486.322612 589.336441 
L 488.700196 578.188959 
L 489.6443 570.637929 
L 495.307482 562.142749 
L 500.430764 554.728458 
L 509.194766 549.738571 
L 516.070559 544.075841 
L 519.096312 537.668644 
" clip-path="url(#pabaf821719)" style="fill: none; stroke: #f29888; stroke-width: 0.2"/>
    <path d="M 396.201071 488.624932 
L 394.546723 499.531493 
L 393.736872 512.879821 
L 393.468366 534.857898 
L 395.625081 547.531213 
L 398.995851 557.777954 
" clip-path="url(#pabaf821719)" style="fill: none; stroke: #f29888; stroke-width: 0.2"/>
    <path d="M 679.377506 519.571349 
L 670.186203 515.935829 
L 659.034512 512.994856 
L 637.197409 506.489987 
L 631.931212 506.179612 
" clip-path="url(#pabaf821719)" style="fill: none; stroke: #f29888; stroke-width: 0.2"/>
    <path d="M 595.369546 517.257639 
L 586.907253 518.455733 
L 559.840043 513.027413 
L 545.150126 511.429954 
L 528.782764 507.197557 
L 498.920774 504.163254 
L 492.773991 500.171779 
L 486.546367 498.177126 
L 478.162028 493.146 
L 447.742814 469.993704 
L 423.870257 465.361943 
L 414.768456 461.370467 
L 403.590781 460.01393 
L 399.439031 461.611388 
L 398.880364 479.893172 
L 396.201071 488.624932 
" clip-path="url(#pabaf821719)" style="fill: none; stroke: #f29888; stroke-width: 0.2"/>
    <path d="M 132.367226 612.378043 
L 132.33996 613.516798 
" clip-path="url(#pabaf821719)" style="fill: none; stroke: #f29888; stroke-width: 0.2"/>
    <path d="M 98.105149 613.569334 
L 94.704105 609.196149 
L 91.840033 605.337071 
L 89.722295 600.603298 
L 91.341997 594.875455 
L 96.572104 589.395044 
L 99.685915 583.541313 
L 100.183952 581.299228 
L 102.424395 576.194307 
L 105.538207 572.209342 
" clip-path="url(#pabaf821719)" style="fill: none; stroke: #f29888; stroke-width: 0.2"/>
    <path d="M 166.537343 613.46432 
L 165.236203 608.955228 
L 165.000899 596.160367 
L 164.531734 586.534377 
L 162.772004 575.03094 
L 162.888935 571.627659 
L 164.883969 569.044812 
L 165.823742 566.11035 
L 165.119273 562.353284 
L 162.41977 560.827451 
L 158.663563 560.241426 
L 156.19792 562.353284 
L 153.733721 566.227555 
" clip-path="url(#pabaf821719)" style="fill: none; stroke: #f29888; stroke-width: 0.2"/>
    <path d="M 100.183952 581.299228 
L 98.440102 580.676306 
L 93.427976 582.024162 
" clip-path="url(#pabaf821719)" style="fill: none; stroke: #f29888; stroke-width: 0.2"/>
    <path d="M 93.427976 582.024162 
L 88.726221 583.417597 
L 86.484335 584.040519 
L 83.246375 582.918391 
L 78.340642 578.877506 
" clip-path="url(#pabaf821719)" style="fill: none; stroke: #f29888; stroke-width: 0.2"/>
    <path d="M 148.663852 563.89431 
L 145.612115 564.847142 
L 141.617716 564.862336 
" clip-path="url(#pabaf821719)" style="fill: none; stroke: #f29888; stroke-width: 0.2"/>
    <path d="M 141.617716 564.862336 
L 137.806653 564.495528 
L 133.581281 563.672923 
" clip-path="url(#pabaf821719)" style="fill: none; stroke: #f29888; stroke-width: 0.2"/>
    <path d="M 156.19792 562.353284 
L 154.767328 561.090076 
L 151.363356 562.557307 
L 148.663852 563.89431 
" clip-path="url(#pabaf821719)" style="fill: none; stroke: #f29888; stroke-width: 0.2"/>
    <path d="M 180.747561 614.399182 
L 184.955568 607.5466 
L 192.351052 596.629186 
L 196.34112 591.463492 
L 198.219223 583.95153 
" clip-path="url(#pabaf821719)" style="fill: none; stroke: #f29888; stroke-width: 0.2"/>
    <path d="M 58.12226 445.157254 
L 95.587579 450.424838 
L 163.580412 456.773433 
L 209.734697 462.65972 
L 239.625559 471.951459 
L 245.35659 472.415938 
L 272.615797 463.588677 
L 275.092988 462.970096 
L 277.571623 460.491431 
L 278.190921 456.465228 
L 276.796418 445.313405 
L 277.726086 443.301389 
L 280.048814 441.75168 
L 308.083226 446.552738 
L 310.870788 451.199692 
L 315.207316 456.465228 
L 324.034836 461.110012 
L 343.085821 469.937272 
L 366.471891 479.074909 
L 395.280064 488.368818 
L 396.201071 488.624932 
L 432.141996 498.589513 
L 444.067448 508.191628 
L 509.427183 531.732436 
L 516.396809 535.450434 
L 519.096312 537.668644 
L 532.039491 548.306068 
L 537.924985 549.853605 
L 554.186966 547.685316 
L 608.828085 566.283987 
L 657.448013 581.629138 
L 660.547389 574.590337 
L 678.043634 523.467325 
L 679.377506 519.571349 
L 679.884204 518.091095 
L 698.51655 521.926298 
L 702.330475 521.794506 
" clip-path="url(#pabaf821719)" style="fill: none; stroke: #f29888; stroke-width: 0.2"/>
    <path d="M 249.160435 587.356982 
L 244.465898 589.586044 
L 231.671408 589.00002 
L 220.755022 587.943006 
L 213.948521 587.708596 
L 209.840079 585.948353 
L 201.506265 584.303145 
L 198.219223 583.95153 
L 191.998817 582.894516 
L 184.369473 580.431044 
L 176.857059 578.434221 
L 171.339679 574.679326 
L 167.114307 568.693197 
L 165.823742 566.11035 
" clip-path="url(#pabaf821719)" style="fill: none; stroke: #f29888; stroke-width: 0.2"/>
    <path d="M 165.119273 562.353284 
L 163.872016 557.254874 
L 163.615058 554.578697 
L 167.323626 547.431372 
L 166.981497 543.893523 
L 168.829285 538.914488 
L 176.973989 536.060333 
L 178.781357 532.448688 
L 179.087397 531.836618 
L 182.6083 523.736462 
L 187.068976 518.219153 
L 190.237644 511.998615 
L 194.579947 500.966167 
L 197.162519 489.816515 
L 198.688388 480.895924 
L 202.6799 474.558182 
L 205.848568 468.923668 
L 209.734697 462.65972 
" clip-path="url(#pabaf821719)" style="fill: none; stroke: #f29888; stroke-width: 0.2"/>
    <path d="M 273.835626 405.774137 
L 272.148076 441.430452 
L 280.048814 441.75168 
" clip-path="url(#pabaf821719)" style="fill: none; stroke: #f29888; stroke-width: 0.2"/>
    <path d="M 240.381997 407.01347 
L 230.779273 407.942427 
L 226.442745 408.561008 
L 224.583408 412.279006 
L 223.96411 414.136919 
" clip-path="url(#pabaf821719)" style="fill: none; stroke: #f29888; stroke-width: 0.2"/>
    <path d="M 273.835626 405.774137 
L 240.381997 407.01347 
" clip-path="url(#pabaf821719)" style="fill: none; stroke: #f29888; stroke-width: 0.2"/>
    <path d="M 178.781357 532.448688 
L 168.393323 532.192573 
" clip-path="url(#pabaf821719)" style="fill: none; stroke: #f29888; stroke-width: 0.2"/>
    <path d="M 168.829285 538.914488 
L 167.701846 538.40877 
L 159.526826 535.315865 
L 159.954127 518.336357 
" clip-path="url(#pabaf821719)" style="fill: none; stroke: #f29888; stroke-width: 0.2"/>
    <path d="M 272.148076 441.430452 
L 264.01059 442.292125 
L 198.300064 442.93024 
L 168.439517 447.002023 
L 148.005578 448.577777 
L 134.36226 447.861525 
L 127.259824 443.82664 
L 102.528333 441.98609 
L 86.8409 439.431459 
L 57.280619 439.316424 
L 57.219991 439.337845 
" clip-path="url(#pabaf821719)" style="fill: none; stroke: #f29888; stroke-width: 0.2"/>
    <path d="M 89.374391 378.827878 
L 79.474288 376.090928 
L 69.252266 374.697493 
L 66.481215 374.892353 
" clip-path="url(#pabaf821719)" style="fill: none; stroke: #f29888; stroke-width: 0.2"/>
    <path d="M 188.342218 405.155556 
L 157.36578 406.084513 
L 147.763056 404.84518 
L 105.326 381.306543 
L 89.374391 378.827878 
L 85.811624 376.041007 
L 74.519089 357.693553 
" clip-path="url(#pabaf821719)" style="fill: none; stroke: #f29888; stroke-width: 0.2"/>
    <path d="M 78.085506 350.062418 
L 83.810816 348.528258 
L 94.962507 345.663251 
L 108.514879 345.120636 
L 113.537744 343.607695 
" clip-path="url(#pabaf821719)" style="fill: none; stroke: #f29888; stroke-width: 0.2"/>
    <path d="M 147.477742 337.472332 
L 154.591211 337.686811 
L 160.476705 338.307562 
L 171.163561 336.139273 
L 181.23112 334.435462 
L 186.186946 333.352402 
L 192.95014 329.975167 
" clip-path="url(#pabaf821719)" style="fill: none; stroke: #f29888; stroke-width: 0.2"/>
    <path d="M 149.547137 308.896298 
L 158.927739 308.576603 
L 170.388356 307.955851 
L 194.549631 306.872792 
L 203.068224 305.168981 
L 211.277889 303.311067 
" clip-path="url(#pabaf821719)" style="fill: none; stroke: #f29888; stroke-width: 0.2"/>
    <path d="M 155.52521 275.118964 
L 151.994377 275.102638 
" clip-path="url(#pabaf821719)" style="fill: none; stroke: #f29888; stroke-width: 0.2"/>
    <path d="M 152.162605 272.779601 
L 155.52521 275.118964 
L 169.288345 276.568831 
L 183.029826 274.969202 
" clip-path="url(#pabaf821719)" style="fill: none; stroke: #f29888; stroke-width: 0.2"/>
    <path d="M 356.075195 384.386426 
L 366.622024 385.693042 
L 378.237105 390.029621 
L 392.797099 395.138884 
L 402.863214 397.153071 
L 421.138995 407.334698 
L 427.643787 409.542056 
L 438.330643 415.27207 
L 451.341671 421.466562 
L 467.138817 427.196576 
L 479.839474 428.125533 
L 487.118027 433.699274 
L 493.313892 436.332042 
L 500.746909 437.727648 
L 507.407608 440.514518 
L 518.248928 443.301389 
L 525.218554 448.412822 
L 528.47095 454.607314 
L 531.414419 457.240082 
L 537.144006 461.887037 
L 552.477761 472.572211 
L 562.234949 476.133935 
L 568.430814 478.612601 
L 574.314865 480.934993 
L 579.736969 482.638804 
L 601.109238 492.859499 
L 609.782294 496.113019 
L 623.877454 500.914076 
L 628.213982 504.475801 
L 631.931212 506.179612 
L 647.573894 512.838583 
L 654.389057 513.923812 
L 663.681411 519.035245 
L 678.043634 523.467325 
L 670.031739 525.073465 
L 657.795917 525.229738 
L 646.335299 526.777276 
L 630.382246 521.822116 
L 621.398819 520.736886 
L 614.894027 519.189348 
L 603.433409 518.260391 
L 595.369546 517.257639 
" clip-path="url(#pabaf821719)" style="fill: none; stroke: #f29888; stroke-width: 0.2"/>
    <path d="M 398.799524 425.924687 
L 397.921824 431.192393 
L 399.439031 461.611388 
" clip-path="url(#pabaf821719)" style="fill: none; stroke: #f29888; stroke-width: 0.2"/>
    <path d="M 358.546612 387.42724 
L 356.109841 408.621781 
L 343.085821 469.937272 
" clip-path="url(#pabaf821719)" style="fill: none; stroke: #f29888; stroke-width: 0.2"/>
    <path d="M 679.884204 518.091095 
L 675.179562 505.617462 
L 669.602995 490.131231 
L 655.044444 473.403497 
L 636.768664 458.227641 
L 614.465282 446.146862 
L 582.251693 419.200602 
L 563.046244 404.024747 
L 535.167739 390.396429 
L 517.821627 382.344023 
L 509.767869 382.962604 
L 492.111386 377.699239 
L 485.606594 370.575789 
L 456.179123 361.592256 
L 447.195696 358.49718 
L 444.097763 355.708139 
L 445.027432 349.824022 
L 447.855414 341.760764 
L 449.099784 338.559336 
L 448.744662 336.247796 
L 447.394911 330.860714 
" clip-path="url(#pabaf821719)" style="fill: none; stroke: #f29888; stroke-width: 0.2"/>
    <path d="M 398.799524 425.924687 
L 408.366158 420.342264 
L 420.446074 407.334698 
L 421.138995 407.334698 
L 428.499832 407.334698 
L 437.172888 404.856033 
L 441.200489 400.519454 
L 441.819787 390.91951 
L 438.102557 377.291192 
L 445.847388 366.760121 
L 456.179123 361.592256 
L 463.1935 356.849801 
L 479.301017 351.894641 
L 485.648458 345.285591 
" clip-path="url(#pabaf821719)" style="fill: none; stroke: #f29888; stroke-width: 0.2"/>
    <path d="M 461.059882 336.529956 
L 470.142916 339.353724 
L 479.581072 341.914867 
L 485.648458 345.285591 
L 488.479327 345.958433 
L 496.569175 343.803167 
L 499.265791 342.859017 
L 502.09666 343.397291 
L 511.130612 343.937735 
L 522.187027 346.364309 
L 529.872671 347.712165 
L 532.839237 346.902583 
L 533.647644 345.420159 
L 534.051848 343.262722 
L 535.80436 339.353724 
L 538.500976 336.388876 
L 542.277393 336.388876 
L 547.939132 337.8713 
L 558.591342 338.544142 
L 564.036543 338.333608 
L 569.373475 339.579452 
L 576.667908 339.045519 
L 596.416145 344.736464 
L 611.537693 349.539692 
L 625.948998 353.453031 
L 647.475731 358.256259 
L 667.401528 361.991621 
L 688.7507 364.659116 
L 703.339566 364.837093 
L 712.946621 365.015071 
L 723.671011 369.108558 
" clip-path="url(#pabaf821719)" style="fill: none; stroke: #f29888; stroke-width: 0.2"/>
    <path d="M 461.059882 336.529956 
L 452.575936 332.53848 
L 447.394911 330.860714 
L 415.052842 320.386075 
L 389.605333 309.55548 
L 343.728216 294.778989 
" clip-path="url(#pabaf821719)" style="fill: none; stroke: #f29888; stroke-width: 0.2"/>
    <path d="M 614.3534 330.824916 
L 609.372316 333.730062 
L 601.197297 336.590728 
L 586.279294 335.568442 
L 564.036543 338.333608 
L 544.997106 331.889512 
L 517.203773 321.061088 
L 497.38047 313.091159 
L 434.639397 295.521287 
L 427.896414 290.82007 
L 423.051744 288.17645 
" clip-path="url(#pabaf821719)" style="fill: none; stroke: #f29888; stroke-width: 0.2"/>
    <path d="M 423.051744 288.17645 
L 409.278504 283.687939 
L 393.409179 283.288575 
L 375.345605 276.603558 
L 365.265054 276.703399 
L 346.333886 272.151945 
" clip-path="url(#pabaf821719)" style="fill: none; stroke: #f29888; stroke-width: 0.2"/>
    <path d="M 423.051744 288.17645 
L 426.874356 287.551358 
L 431.983202 286.531242 
L 437.099265 279.995987 
L 440.329499 274.972275 
" clip-path="url(#pabaf821719)" style="fill: none; stroke: #f29888; stroke-width: 0.2"/>
    <path d="M 240.381997 407.01347 
L 240.071627 397.10098 
" clip-path="url(#pabaf821719)" style="fill: none; stroke: #f29888; stroke-width: 0.2"/>
    <path d="M 240.071627 397.10098 
L 188.342218 405.155556 
" clip-path="url(#pabaf821719)" style="fill: none; stroke: #f29888; stroke-width: 0.2"/>
    <path d="M 105.326 381.306543 
L 117.820225 382.259375 
L 137.48329 383.976209 
L 166.508001 383.565992 
L 176.972546 382.135659 
L 203.421902 380.705326 
L 218.669042 380.542541 
L 234.038887 381.686374 
L 256.973115 381.115543 
L 264.902725 378.866946 
L 276.395101 379.40305 
" clip-path="url(#pabaf821719)" style="fill: none; stroke: #f29888; stroke-width: 0.2"/>
    <path d="M 311.76148 357.370711 
L 316.154307 358.477646 
L 322.845322 358.008827 
L 327.304555 360.003479 
L 334.112499 364.932594 
L 340.215975 366.224017 
L 347.845319 365.284208 
L 350.868185 361.572722 
" clip-path="url(#pabaf821719)" style="fill: none; stroke: #f29888; stroke-width: 0.2"/>
    <path d="M 311.76148 357.370711 
L 301.861377 356.79554 
L 292.981888 358.709885 
L 284.806869 357.370711 
L 280.330313 358.516714 
" clip-path="url(#pabaf821719)" style="fill: none; stroke: #f29888; stroke-width: 0.2"/>
    <path d="M 192.95014 329.975167 
L 229.868371 328.826993 
L 270.939795 334.1902 
L 275.347059 332.401741 
L 293.062729 332.657855 
" clip-path="url(#pabaf821719)" style="fill: none; stroke: #f29888; stroke-width: 0.2"/>
    <path d="M 346.333886 272.151945 
L 343.728216 294.778989 
L 340.985405 318.608468 
L 340.345898 335.692158 
L 343.300915 345.511319 
L 347.931934 353.333656 
L 350.868185 361.572722 
L 351.204541 362.514701 
L 356.075195 384.386426 
L 358.546612 387.42724 
" clip-path="url(#pabaf821719)" style="fill: none; stroke: #f29888; stroke-width: 0.2"/>
    <path d="M 183.029826 274.969202 
L 199.895225 275.069043 
L 210.075383 273.972961 
L 220.954236 270.281009 
L 235.625386 268.883232 
L 252.990265 268.583709 
L 273.350582 269.981485 
L 296.257381 276.13908 
" clip-path="url(#pabaf821719)" style="fill: none; stroke: #f29888; stroke-width: 0.2"/>
    <path d="M 332.443716 43.980179 
L 332.078489 73.546184 
L 330.491989 82.481967 
L 327.98737 96.589956 
L 324.792717 132.205033 
L 322.597025 194.063139 
L 320.002904 208.728937 
L 315.810734 220.301829 
L 309.523924 230.87848 
L 302.636582 248.239988 
L 298.669611 253.713888 
L 298.637852 268.7313 
L 296.257381 276.13908 
L 295.04477 279.906998 
L 293.527563 287.970257 
L 292.330831 305.531448 
L 293.062729 332.657855 
L 293.289372 341.053194 
L 292.649864 347.599301 
L 281.951458 356.220368 
L 280.330313 358.516714 
L 278.118741 361.648688 
L 276.395101 379.40305 
L 273.835626 405.774137 
" clip-path="url(#pabaf821719)" style="fill: none; stroke: #f29888; stroke-width: 0.2"/>
    <path d="M 330.491989 82.481967 
L 324.991377 86.123546 
" clip-path="url(#pabaf821719)" style="fill: none; stroke: #f29888; stroke-width: 0.2"/>
    <path d="M 357.888481 82.914035 
L 330.491989 82.481967 
" clip-path="url(#pabaf821719)" style="fill: none; stroke: #f29888; stroke-width: 0.2"/>
    <path d="M 723.636052 365.212341 
L 723.671011 369.108558 
L 724.079545 414.653489 
L 723.30434 420.847981 
L 722.065745 425.338663 
L 679.884204 518.091095 
" clip-path="url(#pabaf821719)" style="fill: none; stroke: #f29888; stroke-width: 0.2"/>
    <path d="M 298.669611 253.713888 
L 298.18168 250.295414 
L 296.100031 246.536177 
L 294.322978 241.12305 
L 291.209166 238.726863 
L 288.654022 235.134752 
L 285.984945 225.966403 
" clip-path="url(#pabaf821719)" style="fill: none; stroke: #f29888; stroke-width: 0.2"/>
    <path d="M 263.369656 222.447038 
L 243.303813 222.125015 
L 227.66637 216.890935 
" clip-path="url(#pabaf821719)" style="fill: none; stroke: #f29888; stroke-width: 0.2"/>
    <path d="M 330.088506 44.291777 
L 332.443716 43.980179 
" clip-path="url(#pabaf821719)" style="fill: none; stroke: #f29888; stroke-width: 0.2"/>
    <path d="M 332.285016 42.221742 
L 332.443716 43.980179 
L 339.481718 41.54428 
" clip-path="url(#pabaf821719)" style="fill: none; stroke: #f29888; stroke-width: 0.2"/>
   </g>
  </g>
 </g>
 <defs>
  <clipPath id="pabaf821719">
   <rect x="7.2" y="7.2" width="837" height="727.272489"/>
  </clipPath>
 </defs>
</svg>
