<?xml version="1.0" encoding="utf-8" standalone="no"?>
<!DOCTYPE svg PUBLIC "-//W3C//DTD SVG 1.1//EN"
  "http://www.w3.org/Graphics/SVG/1.1/DTD/svg11.dtd">
<svg xmlns:xlink="http://www.w3.org/1999/xlink" width="591.103553pt" height="846pt" viewBox="0 0 591.103553 846" xmlns="http://www.w3.org/2000/svg" version="1.1">
 <metadata>
  <rdf:RDF xmlns:dc="http://purl.org/dc/elements/1.1/" xmlns:cc="http://creativecommons.org/ns#" xmlns:rdf="http://www.w3.org/1999/02/22-rdf-syntax-ns#">
   <cc:Work>
    <dc:type rdf:resource="http://purl.org/dc/dcmitype/StillImage"/>
    <dc:date>2025-03-16T14:29:50.826015</dc:date>
    <dc:format>image/svg+xml</dc:format>
    <dc:creator>
     <cc:Agent>
      <dc:title>Matplotlib v3.10.1, https://matplotlib.org/</dc:title>
     </cc:Agent>
    </dc:creator>
   </cc:Work>
  </rdf:RDF>
 </metadata>
 <defs>
  <style type="text/css">*{stroke-linejoin: round; stroke-linecap: butt}</style>
 </defs>
 <g id="figure_1">
  <g id="patch_1">
   <path d="M 0 846 
L 591.103553 846 
L 591.103553 0 
L 0 0 
z
" style="fill: #ffffff"/>
  </g>
  <g id="axes_1">
   <g id="PatchCollection_1">
    <path d="M 95.392979 801 
L 181.538728 762.555354 
L 329.462011 797.496238 
L 340.111794 743.782852 
L 398.162745 771.905813 
L 436.562201 698.380985 
L 407.894778 684.000276 
L 400.502362 671.589104 
L 419.102967 593.566072 
L 489.781389 312.266806 
L 557.689755 115.531831 
L 269.265334 45 
L 181.255647 121.676473 
L 179.696764 151.579369 
L 85.230508 241.974879 
L 53.244964 524.78709 
L 33.413798 530.798237 
L 55.304086 574.559469 
L 122.495056 670.51147 
L 77.20213 741.730123 
L 70.371998 797.136382 
L 95.392979 801 
" clip-path="url(#p956d066073)" style="fill: #f29888"/>
   </g>
   <g id="PatchCollection_2">
    <path d="M 331.802921 776.775481 
L 331.138521 780.820962 
L 329.931227 780.579124 
L 330.595627 776.473666 
L 331.802921 776.775481 
" clip-path="url(#p956d066073)" style="fill: #f29888"/>
    <path d="M 331.015724 768.502656 
L 326.514868 785.76028 
L 323.977482 785.096674 
L 328.480923 767.840985 
L 331.015724 768.502656 
" clip-path="url(#p956d066073)" style="fill: #f29888"/>
    <path d="M 326.653177 767.568191 
L 322.630586 783.450235 
L 320.134564 782.686024 
L 324.225663 766.943279 
L 326.653177 767.568191 
" clip-path="url(#p956d066073)" style="fill: #f29888"/>
    <path d="M 322.422477 767.498541 
L 318.679089 782.339711 
L 316.181773 781.507785 
L 320.064763 766.87363 
L 322.422477 767.498541 
" clip-path="url(#p956d066073)" style="fill: #f29888"/>
    <path d="M 318.331378 766.250653 
L 314.518189 781.231121 
L 312.090674 780.53656 
L 315.766847 765.69539 
L 318.331378 766.250653 
" clip-path="url(#p956d066073)" style="fill: #f29888"/>
    <path d="M 313.89386 765.209778 
L 310.080672 780.120597 
L 307.376539 779.426036 
L 311.328037 764.447502 
L 313.89386 765.209778 
" clip-path="url(#p956d066073)" style="fill: #f29888"/>
    <path d="M 308.139177 763.545926 
L 305.641861 778.178147 
L 302.729619 777.622885 
L 304.879224 763.82259 
L 306.335991 764.168903 
L 306.682409 763.267328 
L 308.139177 763.545926 
" clip-path="url(#p956d066073)" style="fill: #f29888"/>
    <path d="M 301.836428 762.973252 
L 303.488379 763.164788 
L 302.944192 767.864202 
L 301.290948 767.672665 
L 301.836428 762.973252 
" clip-path="url(#p956d066073)" style="fill: #f29888"/>
    <path d="M 324.921085 761.824033 
L 324.415676 763.983171 
L 312.362122 761.162362 
L 312.868823 759.00129 
L 324.921085 761.824033 
" clip-path="url(#p956d066073)" style="fill: #f29888"/>
    <path d="M 328.075044 754.961613 
L 327.576098 757.39161 
L 314.834878 754.773946 
L 315.335116 752.342014 
L 328.075044 754.961613 
" clip-path="url(#p956d066073)" style="fill: #f29888"/>
    <path d="M 302.10529 773.817308 
L 301.876499 776.15057 
L 300.27496 776.013205 
L 300.595526 773.679943 
L 302.10529 773.817308 
" clip-path="url(#p956d066073)" style="fill: #f29888"/>
    <path d="M 300.720909 767.221878 
L 299.039228 777.41974 
L 302.140191 777.996284 
L 301.824795 779.416362 
L 297.463541 778.522526 
L 299.249923 766.960692 
L 300.720909 767.221878 
" clip-path="url(#p956d066073)" style="fill: #f29888"/>
    <path d="M 302.699889 769.882105 
L 302.288841 772.399165 
L 300.779076 772.170869 
L 301.236659 769.607376 
L 302.699889 769.882105 
" clip-path="url(#p956d066073)" style="fill: #f29888"/>
    <path d="M 282.656736 765.739889 
L 282.094452 768.129257 
L 284.007509 768.580045 
L 285.075202 764.048951 
L 287.590614 764.640973 
L 286.446657 769.489359 
L 288.730693 770.029144 
L 289.415774 767.129011 
L 291.869141 767.70749 
L 290.602387 773.076314 
L 288.355837 772.546203 
L 288.782397 770.737248 
L 286.494484 770.197463 
L 286.084728 771.938703 
L 283.445225 771.315726 
L 283.883419 769.454534 
L 281.713133 768.943771 
L 281.291743 770.737248 
L 279.295959 770.267113 
L 280.482572 765.229125 
L 282.656736 765.739889 
" clip-path="url(#p956d066073)" style="fill: #f29888"/>
    <path d="M 300.533481 764.760925 
L 300.533481 765.908209 
L 299.266727 765.848233 
L 299.447692 764.700949 
L 300.533481 764.760925 
" clip-path="url(#p956d066073)" style="fill: #f29888"/>
    <path d="M 271.020693 758.695605 
L 272.925995 759.606854 
L 270.411876 764.869269 
L 268.506574 763.959955 
L 271.020693 758.695605 
" clip-path="url(#p956d066073)" style="fill: #f29888"/>
    <path d="M 298.703151 758.76332 
L 298.144745 761.286184 
L 286.245011 758.654977 
L 286.804709 756.128244 
L 298.703151 758.76332 
" clip-path="url(#p956d066073)" style="fill: #f29888"/>
    <path d="M 274.623187 750.194485 
L 276.855518 751.146362 
L 274.478415 756.724135 
L 272.244792 755.772257 
L 274.623187 750.194485 
" clip-path="url(#p956d066073)" style="fill: #f29888"/>
    <path d="M 285.819743 745.680803 
L 288.514828 746.783589 
L 283.862737 758.165495 
L 281.165068 757.062709 
L 285.819743 745.680803 
" clip-path="url(#p956d066073)" style="fill: #f29888"/>
    <path d="M 270.55794 748.863403 
L 272.593795 749.811412 
L 270.31493 754.706231 
L 268.279075 753.758223 
L 270.55794 748.863403 
" clip-path="url(#p956d066073)" style="fill: #f29888"/>
    <path d="M 266.067426 746.752633 
L 268.126548 747.652274 
L 265.780467 753.021098 
L 263.721346 752.121457 
L 266.067426 746.752633 
" clip-path="url(#p956d066073)" style="fill: #f29888"/>
    <path d="M 263.13838 746.228327 
L 262.163755 748.579001 
L 256.901555 746.394712 
L 257.877472 744.044038 
L 263.13838 746.228327 
" clip-path="url(#p956d066073)" style="fill: #f29888"/>
    <path d="M 280.861305 741.911986 
L 278.508762 747.044775 
L 276.431544 746.090962 
L 278.784087 740.958173 
L 280.861305 741.911986 
" clip-path="url(#p956d066073)" style="fill: #f29888"/>
    <path d="M 300.797173 743.835089 
L 299.797988 746.063876 
L 294.758116 743.808003 
L 295.757301 741.577281 
L 300.797173 743.835089 
" clip-path="url(#p956d066073)" style="fill: #f29888"/>
    <path d="M 276.506515 739.938581 
L 273.733874 745.719498 
L 271.709653 744.750207 
L 274.482293 738.96929 
L 276.506515 739.938581 
" clip-path="url(#p956d066073)" style="fill: #f29888"/>
    <path d="M 271.965589 737.63434 
L 269.600119 743.711267 
L 267.595287 742.931579 
L 269.959464 736.852716 
L 271.965589 737.63434 
" clip-path="url(#p956d066073)" style="fill: #f29888"/>
    <path d="M 294.300533 733.331542 
L 289.003433 744.750207 
L 286.976626 743.809938 
L 292.272434 732.389338 
L 294.300533 733.331542 
" clip-path="url(#p956d066073)" style="fill: #f29888"/>
    <path d="M 267.495756 735.500353 
L 264.970003 741.378006 
L 262.881151 740.4803 
L 265.408197 734.604582 
L 267.495756 735.500353 
" clip-path="url(#p956d066073)" style="fill: #f29888"/>
    <path d="M 282.751096 735.32236 
L 283.005739 737.549212 
L 276.872322 738.251512 
L 276.617679 736.02466 
L 282.751096 735.32236 
" clip-path="url(#p956d066073)" style="fill: #f29888"/>
    <path d="M 285.033839 729.957406 
L 285.391891 732.273255 
L 279.136969 733.242545 
L 278.777624 730.928631 
L 285.033839 729.957406 
" clip-path="url(#p956d066073)" style="fill: #f29888"/>
    <path d="M 322.70168 745.707889 
L 322.039865 748.230753 
L 309.51968 744.941744 
L 310.181495 742.41888 
L 322.70168 745.707889 
" clip-path="url(#p956d066073)" style="fill: #f29888"/>
    <path d="M 326.302881 742.724565 
L 324.392409 746.731352 
L 323.170896 746.149003 
L 325.080075 742.142217 
L 326.302881 742.724565 
" clip-path="url(#p956d066073)" style="fill: #f29888"/>
    <path d="M 335.364051 738.021282 
L 330.290571 749.55603 
L 327.954832 748.528698 
L 333.029604 736.99395 
L 335.364051 738.021282 
" clip-path="url(#p956d066073)" style="fill: #f29888"/>
    <path d="M 317.979789 735.966619 
L 317.650174 737.386697 
L 315.124421 736.798544 
L 314.394099 739.94245 
L 323.351861 742.026134 
L 323.040343 743.368824 
L 312.46036 740.907871 
L 313.833108 735.003132 
L 317.979789 735.966619 
" clip-path="url(#p956d066073)" style="fill: #f29888"/>
    <path d="M 327.679507 736.39419 
L 328.789856 736.873998 
L 326.794071 741.494088 
L 325.68243 741.01428 
L 327.679507 736.39419 
" clip-path="url(#p956d066073)" style="fill: #f29888"/>
    <path d="M 299.106444 734.68584 
L 310.75929 737.883917 
L 310.075501 740.373891 
L 298.422655 737.173878 
L 299.106444 734.68584 
" clip-path="url(#p956d066073)" style="fill: #f29888"/>
    <path d="M 327.004766 728.972638 
L 338.863137 734.426588 
L 337.944094 736.42708 
L 326.085723 730.971194 
L 327.004766 728.972638 
" clip-path="url(#p956d066073)" style="fill: #f29888"/>
    <path d="M 301.875207 727.097903 
L 300.698935 730.611338 
L 310.93767 734.039646 
L 310.529206 735.262384 
L 298.913845 731.37168 
L 300.499873 726.637441 
L 301.875207 727.097903 
" clip-path="url(#p956d066073)" style="fill: #f29888"/>
    <path d="M 324.780191 727.937567 
L 323.784884 730.106378 
L 314.927945 726.04155 
L 315.924545 723.870804 
L 324.780191 727.937567 
" clip-path="url(#p956d066073)" style="fill: #f29888"/>
    <path d="M 335.860412 719.490618 
L 342.005463 722.201149 
L 340.964915 724.561496 
L 334.818571 721.850966 
L 335.860412 719.490618 
" clip-path="url(#p956d066073)" style="fill: #f29888"/>
    <path d="M 287.135617 725.109019 
L 287.489791 727.233332 
L 281.64721 728.206492 
L 281.293036 726.084114 
L 287.135617 725.109019 
" clip-path="url(#p956d066073)" style="fill: #f29888"/>
    <path d="M 298.409729 719.455793 
L 300.823025 720.668857 
L 295.170458 731.917268 
L 292.758454 730.706139 
L 298.409729 719.455793 
" clip-path="url(#p956d066073)" style="fill: #f29888"/>
    <path d="M 279.959066 721.357614 
L 280.279633 723.601879 
L 274.716255 724.397046 
L 274.395689 722.152781 
L 279.959066 721.357614 
" clip-path="url(#p956d066073)" style="fill: #f29888"/>
    <path d="M 292.359039 717.675859 
L 289.507549 723.247827 
L 287.175687 722.05411 
L 290.025884 716.482142 
L 292.359039 717.675859 
" clip-path="url(#p956d066073)" style="fill: #f29888"/>
    <path d="M 272.030219 717.528821 
L 272.405075 719.896908 
L 266.955447 720.759789 
L 266.580591 718.391702 
L 272.030219 717.528821 
" clip-path="url(#p956d066073)" style="fill: #f29888"/>
    <path d="M 264.609366 713.814176 
L 264.981637 716.149372 
L 258.835294 717.132205 
L 258.46173 714.795074 
L 264.609366 713.814176 
" clip-path="url(#p956d066073)" style="fill: #f29888"/>
    <path d="M 279.803953 711.502196 
L 281.900561 712.566287 
L 279.237792 717.811289 
L 277.139892 716.745263 
L 279.803953 711.502196 
" clip-path="url(#p956d066073)" style="fill: #f29888"/>
    <path d="M 288.75396 712.096152 
L 286.66123 715.847557 
L 283.209971 713.922519 
L 285.302701 710.171114 
L 288.75396 712.096152 
" clip-path="url(#p956d066073)" style="fill: #f29888"/>
    <path d="M 267.743936 708.195774 
L 268.002458 710.018272 
L 261.523915 710.935325 
L 261.265393 709.114762 
L 267.743936 708.195774 
" clip-path="url(#p956d066073)" style="fill: #f29888"/>
    <path d="M 283.19446 707.023339 
L 282.253442 708.938703 
L 276.924027 706.31717 
L 277.865044 704.40374 
L 283.19446 707.023339 
" clip-path="url(#p956d066073)" style="fill: #f29888"/>
    <path d="M 276.648701 703.792372 
L 275.516378 706.048245 
L 271.102128 703.831066 
L 272.234451 701.575193 
L 276.648701 703.792372 
" clip-path="url(#p956d066073)" style="fill: #f29888"/>
    <path d="M 260.392884 696.929951 
L 261.920745 697.510365 
L 260.630724 700.905783 
L 259.10157 700.323435 
L 260.392884 696.929951 
" clip-path="url(#p956d066073)" style="fill: #f29888"/>
    <path d="M 285.111395 698.253294 
L 284.129014 700.48595 
L 279.427805 698.415809 
L 280.410186 696.183153 
L 285.111395 698.253294 
" clip-path="url(#p956d066073)" style="fill: #f29888"/>
    <path d="M 265.845098 690.690508 
L 264.889862 692.681325 
L 261.225323 690.849154 
L 262.180559 688.858336 
L 265.845098 690.690508 
" clip-path="url(#p956d066073)" style="fill: #f29888"/>
    <path d="M 310.922158 721.320855 
L 309.676086 723.717962 
L 305.139038 721.359549 
L 306.386403 718.960507 
L 310.922158 721.320855 
" clip-path="url(#p956d066073)" style="fill: #f29888"/>
    <path d="M 339.805447 707.383196 
L 341.58278 708.228664 
L 336.206831 719.533182 
L 334.429497 718.689648 
L 339.805447 707.383196 
" clip-path="url(#p956d066073)" style="fill: #f29888"/>
    <path d="M 341.388889 703.095876 
L 346.449443 705.320794 
L 344.696669 709.308233 
L 339.636115 707.079446 
L 341.388889 703.095876 
" clip-path="url(#p956d066073)" style="fill: #f29888"/>
    <path d="M 385.210829 692.396923 
L 387.04116 693.859565 
L 378.71419 701.820901 
L 377.159184 700.265393 
L 385.210829 692.396923 
" clip-path="url(#p956d066073)" style="fill: #f29888"/>
    <path d="M 346.598093 691.932592 
L 348.428424 692.48205 
L 344.49373 701.540368 
L 342.572917 700.716181 
L 346.598093 691.932592 
" clip-path="url(#p956d066073)" style="fill: #f29888"/>
    <path d="M 344.489852 690.462212 
L 343.588905 692.127998 
L 329.096203 684.845745 
L 329.928642 683.181894 
L 344.489852 690.462212 
" clip-path="url(#p956d066073)" style="fill: #f29888"/>
    <path d="M 326.60018 683.737156 
L 312.03897 676.801216 
L 312.939917 674.998065 
L 327.432619 681.934005 
L 326.60018 683.737156 
" clip-path="url(#p956d066073)" style="fill: #f29888"/>
    <path d="M 332.856395 650.779351 
L 334.676385 651.528084 
L 323.478536 678.722384 
L 321.663717 677.975586 
L 332.856395 650.779351 
" clip-path="url(#p956d066073)" style="fill: #f29888"/>
    <path d="M 319.711881 648.196511 
L 321.702495 649.152259 
L 308.640708 676.793477 
L 306.648802 675.917053 
L 319.711881 648.196511 
" clip-path="url(#p956d066073)" style="fill: #f29888"/>
    <path d="M 323.79781 662.062586 
L 323.239404 663.496207 
L 321.24879 662.699106 
L 321.805904 661.265485 
L 323.79781 662.062586 
" clip-path="url(#p956d066073)" style="fill: #f29888"/>
    <path d="M 332.694819 649.392163 
L 331.898574 651.382981 
L 320.747259 646.205694 
L 321.543504 644.214876 
L 332.694819 649.392163 
" clip-path="url(#p956d066073)" style="fill: #f29888"/>
    <path d="M 308.539885 641.71136 
L 303.149716 653.412493 
L 300.962626 652.404508 
L 306.356673 640.70531 
L 308.539885 641.71136 
" clip-path="url(#p956d066073)" style="fill: #f29888"/>
    <path d="M 301.037598 629.5517 
L 304.460419 621.340786 
L 308.674316 623.097503 
L 307.641523 625.573934 
L 310.240955 626.659307 
L 311.883857 622.724104 
L 314.44451 623.792065 
L 311.609825 630.584836 
L 308.634245 629.342751 
L 309.570092 627.100421 
L 305.451848 625.382397 
L 303.316463 630.501643 
L 301.037598 629.5517 
" clip-path="url(#p956d066073)" style="fill: #f29888"/>
    <path d="M 255.796376 764.381722 
L 255.453835 766.904585 
L 250.054619 766.171329 
L 250.397159 763.648466 
L 255.796376 764.381722 
" clip-path="url(#p956d066073)" style="fill: #f29888"/>
    <path d="M 258.861146 762.005896 
L 261.137425 762.506986 
L 259.989591 767.724902 
L 257.712019 767.223812 
L 258.861146 762.005896 
" clip-path="url(#p956d066073)" style="fill: #f29888"/>
    <path d="M 246.249186 758.784602 
L 248.874469 759.146393 
L 248.082102 764.919571 
L 245.455525 764.55778 
L 246.249186 758.784602 
" clip-path="url(#p956d066073)" style="fill: #f29888"/>
    <path d="M 239.301427 757.308418 
L 241.496272 757.672143 
L 240.58757 763.157049 
L 238.392724 762.793324 
L 239.301427 757.308418 
" clip-path="url(#p956d066073)" style="fill: #f29888"/>
    <path d="M 253.000469 740.290698 
L 255.280626 741.254184 
L 253.103877 746.408255 
L 250.822427 745.442834 
L 253.000469 740.290698 
" clip-path="url(#p956d066073)" style="fill: #f29888"/>
    <path d="M 247.873992 738.352117 
L 249.925358 739.269171 
L 247.777046 744.06532 
L 245.726973 743.148266 
L 247.873992 738.352117 
" clip-path="url(#p956d066073)" style="fill: #f29888"/>
    <path d="M 247.14884 725.615914 
L 249.21701 726.581335 
L 247.165644 730.973129 
L 245.097473 730.007708 
L 247.14884 725.615914 
" clip-path="url(#p956d066073)" style="fill: #f29888"/>
    <path d="M 242.806975 726.608421 
L 242.055971 728.316771 
L 237.727032 726.413015 
L 238.476744 724.704665 
L 242.806975 726.608421 
" clip-path="url(#p956d066073)" style="fill: #f29888"/>
    <path d="M 234.927247 722.779627 
L 234.014667 724.863311 
L 229.555175 722.909253 
L 230.466462 720.827504 
L 234.927247 722.779627 
" clip-path="url(#p956d066073)" style="fill: #f29888"/>
    <path d="M 227.069493 719.057243 
L 226.145279 721.026779 
L 221.662521 718.921813 
L 222.586734 716.954212 
L 227.069493 719.057243 
" clip-path="url(#p956d066073)" style="fill: #f29888"/>
    <path d="M 220.353111 712.821669 
L 218.173776 717.50367 
L 216.446854 716.69883 
L 218.626188 712.018764 
L 220.353111 712.821669 
" clip-path="url(#p956d066073)" style="fill: #f29888"/>
    <path d="M 247.689149 711.581519 
L 247.976108 710.902435 
L 254.024213 713.454319 
L 251.295521 719.922059 
L 246.516755 717.904155 
L 247.173399 716.350582 
L 248.654726 716.975494 
L 249.528528 714.905353 
L 241.46525 711.500261 
L 242.37783 709.339189 
L 247.689149 711.581519 
" clip-path="url(#p956d066073)" style="fill: #f29888"/>
    <path d="M 236.594709 709.426251 
L 238.117399 710.087922 
L 236.071203 714.791205 
L 234.549806 714.129534 
L 236.594709 709.426251 
" clip-path="url(#p956d066073)" style="fill: #f29888"/>
    <path d="M 251.043463 707.472192 
L 249.434168 711.250683 
L 247.354364 710.364586 
L 248.964952 706.586095 
L 251.043463 707.472192 
" clip-path="url(#p956d066073)" style="fill: #f29888"/>
    <path d="M 238.811529 703.353192 
L 241.16278 704.351503 
L 238.825748 709.849952 
L 236.477082 708.853576 
L 238.811529 703.353192 
" clip-path="url(#p956d066073)" style="fill: #f29888"/>
    <path d="M 257.72753 703.722722 
L 259.347166 704.27218 
L 258.026122 708.166754 
L 256.405194 707.615361 
L 257.72753 703.722722 
" clip-path="url(#p956d066073)" style="fill: #f29888"/>
    <path d="M 228.059629 702.155606 
L 225.271478 708.687191 
L 222.96159 707.971348 
L 225.829884 701.199859 
L 228.059629 702.155606 
" clip-path="url(#p956d066073)" style="fill: #f29888"/>
    <path d="M 252.571323 704.372785 
L 251.784126 706.230108 
L 247.505599 704.417283 
L 248.292796 702.559961 
L 252.571323 704.372785 
" clip-path="url(#p956d066073)" style="fill: #f29888"/>
    <path d="M 220.574146 698.07917 
L 215.262827 710.113073 
L 212.408752 708.853576 
L 217.717486 696.819673 
L 220.574146 698.07917 
" clip-path="url(#p956d066073)" style="fill: #f29888"/>
    <path d="M 245.715339 701.315941 
L 244.814393 703.155852 
L 240.416946 701.004453 
L 241.3166 699.164543 
L 245.715339 701.315941 
" clip-path="url(#p956d066073)" style="fill: #f29888"/>
    <path d="M 213.971513 710.258176 
L 211.799934 712.804256 
L 206.135733 707.973283 
L 208.307312 705.427203 
L 213.971513 710.258176 
" clip-path="url(#p956d066073)" style="fill: #f29888"/>
    <path d="M 185.178707 701.586801 
L 183.012299 699.818475 
L 185.204559 697.133096 
L 191.274639 702.087891 
L 188.956995 704.928047 
L 187.531251 703.765286 
L 188.094827 703.072659 
L 185.615608 701.050886 
L 185.178707 701.586801 
" clip-path="url(#p956d066073)" style="fill: #f29888"/>
    <path d="M 194.02272 692.275036 
L 193.585819 692.536222 
L 194.984419 693.935018 
L 195.682426 693.584836 
L 197.396422 695.242883 
L 195.112387 697.605165 
L 190.05054 692.712281 
L 192.188511 690.500906 
L 194.02272 692.275036 
" clip-path="url(#p956d066073)" style="fill: #f29888"/>
    <path d="M 204.711281 690.164266 
L 205.980621 687.177072 
L 211.368204 689.46777 
L 210.097572 692.454964 
L 204.711281 690.164266 
" clip-path="url(#p956d066073)" style="fill: #f29888"/>
    <path d="M 196.052112 687.269938 
L 193.111432 686.074287 
L 194.599222 682.415748 
L 197.541194 683.613334 
L 196.052112 687.269938 
" clip-path="url(#p956d066073)" style="fill: #f29888"/>
    <path d="M 212.341536 686.548291 
L 207.153015 684.503301 
L 208.243974 681.736664 
L 213.431204 683.783589 
L 212.341536 686.548291 
" clip-path="url(#p956d066073)" style="fill: #f29888"/>
    <path d="M 198.511941 681.550932 
L 195.569969 680.353346 
L 197.057759 676.696742 
L 199.999731 677.892393 
L 198.511941 681.550932 
" clip-path="url(#p956d066073)" style="fill: #f29888"/>
    <path d="M 207.049606 671.532998 
L 206.157708 673.583791 
L 199.767062 670.801677 
L 200.65896 668.750883 
L 207.049606 671.532998 
" clip-path="url(#p956d066073)" style="fill: #f29888"/>
    <path d="M 198.443433 667.176028 
L 197.551535 669.224887 
L 191.160889 666.444707 
L 192.05408 664.393913 
L 198.443433 667.176028 
" clip-path="url(#p956d066073)" style="fill: #f29888"/>
    <path d="M 189.983325 665.398028 
L 189.091426 667.446888 
L 182.700781 664.664773 
L 183.593972 662.613979 
L 189.983325 665.398028 
" clip-path="url(#p956d066073)" style="fill: #f29888"/>
    <path d="M 210.151861 664.34748 
L 209.259963 666.396339 
L 202.869317 663.614225 
L 203.761216 661.563431 
L 210.151861 664.34748 
" clip-path="url(#p956d066073)" style="fill: #f29888"/>
    <path d="M 201.901155 660.563185 
L 201.009257 662.612044 
L 194.618611 659.831864 
L 195.511802 657.781071 
L 201.901155 660.563185 
" clip-path="url(#p956d066073)" style="fill: #f29888"/>
    <path d="M 183.120878 659.878297 
L 182.228979 661.927157 
L 175.838334 659.145042 
L 176.730232 657.094248 
L 183.120878 659.878297 
" clip-path="url(#p956d066073)" style="fill: #f29888"/>
    <path d="M 170.17284 654.828701 
L 172.933847 655.948899 
L 173.321629 654.995086 
L 175.135156 655.730277 
L 173.829623 658.947701 
L 169.25509 657.090379 
L 170.17284 654.828701 
" clip-path="url(#p956d066073)" style="fill: #f29888"/>
    <path d="M 194.649634 655.30851 
L 193.756443 657.357369 
L 187.36709 654.575254 
L 188.258988 652.52446 
L 194.649634 655.30851 
" clip-path="url(#p956d066073)" style="fill: #f29888"/>
    <path d="M 186.241229 653.101004 
L 185.349331 655.149863 
L 178.958685 652.367749 
L 179.850584 650.31889 
L 186.241229 653.101004 
" clip-path="url(#p956d066073)" style="fill: #f29888"/>
    <path d="M 177.33905 650.876086 
L 174.578043 649.753954 
L 174.481097 650.164113 
L 172.595184 649.283819 
L 173.682266 646.757086 
L 178.258093 648.614409 
L 177.33905 650.876086 
" clip-path="url(#p956d066073)" style="fill: #f29888"/>
    <path d="M 162.042346 569.498265 
L 160.093096 576.598655 
L 157.192487 575.803489 
L 159.140445 568.701164 
L 162.042346 569.498265 
" clip-path="url(#p956d066073)" style="fill: #f29888"/>
    <path d="M 142.136209 568.778552 
L 149.283029 570.552682 
L 148.55917 573.472162 
L 141.412349 571.698032 
L 142.136209 568.778552 
" clip-path="url(#p956d066073)" style="fill: #f29888"/>
    <path d="M 155.506929 567.428124 
L 153.557678 574.530449 
L 150.65707 573.733348 
L 152.605028 566.632958 
L 155.506929 567.428124 
" clip-path="url(#p956d066073)" style="fill: #f29888"/>
    <path d="M 257.232462 694.517366 
L 256.327637 696.37082 
L 252.217149 694.360655 
L 253.121974 692.509136 
L 257.232462 694.517366 
" clip-path="url(#p956d066073)" style="fill: #f29888"/>
    <path d="M 250.279532 691.238031 
L 249.347563 693.112766 
L 245.155641 691.029082 
L 246.08761 689.154347 
L 250.279532 691.238031 
" clip-path="url(#p956d066073)" style="fill: #f29888"/>
    <path d="M 244.210746 688.246967 
L 241.282992 694.19427 
L 238.355239 692.913491 
L 241.191217 686.875257 
L 244.210746 688.246967 
" clip-path="url(#p956d066073)" style="fill: #f29888"/>
    <path d="M 224.595444 687.921936 
L 221.818926 693.474557 
L 219.766267 692.509136 
L 222.422573 687.196419 
L 224.595444 687.921936 
" clip-path="url(#p956d066073)" style="fill: #f29888"/>
    <path d="M 225.667015 680.165679 
L 224.775117 682.214538 
L 218.384471 679.432423 
L 219.276369 677.381629 
L 225.667015 680.165679 
" clip-path="url(#p956d066073)" style="fill: #f29888"/>
    <path d="M 217.287048 676.425882 
L 216.39515 678.476676 
L 210.004504 675.694561 
L 210.897695 673.643767 
L 217.287048 676.425882 
" clip-path="url(#p956d066073)" style="fill: #f29888"/>
    <path d="M 220.0403 505.306483 
L 219.615032 507.546878 
L 220.793889 507.771305 
L 219.80246 513.002764 
L 218.277185 512.714492 
L 217.910085 514.655007 
L 215.635097 514.223567 
L 216.051317 512.031539 
L 217.093157 512.228879 
L 217.990226 507.506249 
L 216.907022 507.30117 
L 217.381409 504.801523 
L 220.0403 505.306483 
" clip-path="url(#p956d066073)" style="fill: #f29888"/>
    <path d="M 211.116146 491.192765 
L 214.27269 491.955041 
L 214.586794 491.481037 
L 216.105606 491.846697 
L 215.919471 492.622516 
L 217.736875 493.061696 
L 217.292219 494.90741 
L 210.608151 493.291926 
L 211.116146 491.192765 
" clip-path="url(#p956d066073)" style="fill: #f29888"/>
    <path d="M 213.079615 485.148727 
L 218.365082 486.367595 
L 217.822187 488.724073 
L 212.53672 487.50714 
L 213.079615 485.148727 
" clip-path="url(#p956d066073)" style="fill: #f29888"/>
    <path d="M 223.746202 477.084851 
L 223.398491 481.77846 
L 221.018803 481.602401 
L 221.367806 476.906857 
L 223.746202 477.084851 
" clip-path="url(#p956d066073)" style="fill: #f29888"/>
    <path d="M 133.168106 566.636827 
L 140.314927 568.410957 
L 139.589774 571.330436 
L 132.442954 569.556306 
L 133.168106 566.636827 
" clip-path="url(#p956d066073)" style="fill: #f29888"/>
    <path d="M 164.475031 559.441636 
L 162.525781 566.542026 
L 159.625173 565.744925 
L 161.57313 558.644535 
L 164.475031 559.441636 
" clip-path="url(#p956d066073)" style="fill: #f29888"/>
    <path d="M 165.46129 533.241777 
L 165.78832 531.897153 
L 164.771038 531.643706 
L 165.606062 528.304395 
L 166.513472 528.557842 
L 167.49456 524.164113 
L 170.290467 524.818045 
L 167.675525 536.472745 
L 153.007028 532.769708 
L 153.406443 530.155913 
L 165.46129 533.241777 
" clip-path="url(#p956d066073)" style="fill: #f29888"/>
    <path d="M 209.691694 502.267052 
L 213.104174 503.025458 
L 210.774898 513.496115 
L 207.359832 512.735774 
L 209.691694 502.267052 
" clip-path="url(#p956d066073)" style="fill: #f29888"/>
    <path d="M 202.168725 505.066579 
L 203.859454 505.35872 
L 203.284244 508.684489 
L 201.593515 508.392347 
L 202.168725 505.066579 
" clip-path="url(#p956d066073)" style="fill: #f29888"/>
    <path d="M 204.064978 489.17873 
L 205.813875 489.534717 
L 205.201179 492.537389 
L 203.45099 492.179467 
L 204.064978 489.17873 
" clip-path="url(#p956d066073)" style="fill: #f29888"/>
    <path d="M 206.606242 486.417898 
L 204.472149 486.013543 
L 204.987899 483.287535 
L 207.121992 483.69189 
L 206.606242 486.417898 
" clip-path="url(#p956d066073)" style="fill: #f29888"/>
    <path d="M 207.070288 475.691859 
L 208.715776 476.030433 
L 208.025524 479.381353 
L 206.378743 479.042779 
L 207.070288 475.691859 
" clip-path="url(#p956d066073)" style="fill: #f29888"/>
    <path d="M 203.974496 475.968523 
L 203.341119 478.889936 
L 201.026061 478.388846 
L 201.658145 475.467432 
L 203.974496 475.968523 
" clip-path="url(#p956d066073)" style="fill: #f29888"/>
    <path d="M 207.976405 469.709732 
L 209.884292 470.063784 
L 209.363372 472.87105 
L 207.456777 472.516998 
L 207.976405 469.709732 
" clip-path="url(#p956d066073)" style="fill: #f29888"/>
    <path d="M 223.852196 471.617357 
L 223.638916 475.869852 
L 221.369099 475.757639 
L 221.583672 471.505144 
L 223.852196 471.617357 
" clip-path="url(#p956d066073)" style="fill: #f29888"/>
    <path d="M 213.035666 457.006418 
L 212.616862 459.184903 
L 210.584884 458.794091 
L 211.003689 456.615607 
L 213.035666 457.006418 
" clip-path="url(#p956d066073)" style="fill: #f29888"/>
    <path d="M 218.450394 442.813377 
L 223.585919 443.900685 
L 223.062413 446.37905 
L 217.925596 445.293677 
L 218.450394 442.813377 
" clip-path="url(#p956d066073)" style="fill: #f29888"/>
    <path d="M 211.156216 441.153395 
L 216.291741 442.240703 
L 215.766943 444.719068 
L 210.631418 443.633695 
L 211.156216 441.153395 
" clip-path="url(#p956d066073)" style="fill: #f29888"/>
    <path d="M 195.325667 462.717686 
L 193.525066 472.058471 
L 190.890734 471.551577 
L 192.690042 462.208857 
L 195.325667 462.717686 
" clip-path="url(#p956d066073)" style="fill: #f29888"/>
    <path d="M 207.986746 455.919111 
L 207.401195 458.527101 
L 205.728563 458.149833 
L 206.314113 455.543777 
L 207.986746 455.919111 
" clip-path="url(#p956d066073)" style="fill: #f29888"/>
    <path d="M 204.253699 439.450849 
L 209.389224 440.538157 
L 208.865718 443.016522 
L 203.728901 441.931149 
L 204.253699 439.450849 
" clip-path="url(#p956d066073)" style="fill: #f29888"/>
    <path d="M 197.134023 438.183613 
L 202.269548 439.270921 
L 201.74475 441.749286 
L 196.609225 440.663913 
L 197.134023 438.183613 
" clip-path="url(#p956d066073)" style="fill: #f29888"/>
   </g>
   <g id="LineCollection_1">
    <path d="M 403.939998 760.843898 
L 397.488004 757.857876 
L 396.328536 757.321961 
" clip-path="url(#p956d066073)" style="fill: none; stroke: #f29888; stroke-width: 0.2"/>
    <path d="M 397.488004 757.857876 
L 421.465852 715.921076 
L 429.787651 701.981482 
" clip-path="url(#p956d066073)" style="fill: none; stroke: #f29888; stroke-width: 0.2"/>
    <path d="M 271.692849 770.143291 
L 271.567466 771.338943 
L 272.835513 772.366275 
L 274.736937 773.240764 
L 276.668091 774.206185 
L 277.422973 774.962657 
L 278.449302 778.251666 
L 279.173162 781.964377 
L 279.324397 784.651691 
L 280.108177 785.838394 
" clip-path="url(#p956d066073)" style="fill: none; stroke: #f29888; stroke-width: 0.2"/>
    <path d="M 315.236878 755.389184 
L 329.455548 758.49633 
" clip-path="url(#p956d066073)" style="fill: none; stroke: #f29888; stroke-width: 0.2"/>
    <path d="M 315.941349 719.620244 
L 312.385389 727.707337 
L 332.301867 736.432884 
" clip-path="url(#p956d066073)" style="fill: none; stroke: #f29888; stroke-width: 0.2"/>
    <path d="M 384.651131 751.825446 
L 411.505027 705.303381 
L 410.465772 703.846544 
L 404.605095 697.03636 
L 392.09008 682.489267 
" clip-path="url(#p956d066073)" style="fill: none; stroke: #f29888; stroke-width: 0.2"/>
    <path d="M 353.924586 693.818936 
L 349.321614 705.543285 
L 339.412494 730.785462 
" clip-path="url(#p956d066073)" style="fill: none; stroke: #f29888; stroke-width: 0.2"/>
    <path d="M 341.21051 731.586432 
L 341.971855 729.746522 
L 350.154053 723.089181 
L 364.923373 708.770384 
L 374.387836 699.269017 
L 374.249528 697.847004 
L 382.501526 689.665111 
" clip-path="url(#p956d066073)" style="fill: none; stroke: #f29888; stroke-width: 0.2"/>
    <path d="M 343.326506 693.635138 
L 342.380319 695.624021 
L 339.788643 701.072168 
L 328.257302 725.30636 
" clip-path="url(#p956d066073)" style="fill: none; stroke: #f29888; stroke-width: 0.2"/>
    <path d="M 339.788643 701.072168 
L 344.685036 703.36867 
L 349.321614 705.543285 
" clip-path="url(#p956d066073)" style="fill: none; stroke: #f29888; stroke-width: 0.2"/>
    <path d="M 353.924586 693.818936 
L 354.097795 692.745171 
L 353.09344 691.982895 
L 351.255354 692.189909 
L 349.591769 692.675521 
L 344.685036 703.36867 
" clip-path="url(#p956d066073)" style="fill: none; stroke: #f29888; stroke-width: 0.2"/>
    <path d="M 300.082362 675.474004 
L 308.101691 679.279581 
L 342.380319 695.624021 
" clip-path="url(#p956d066073)" style="fill: none; stroke: #f29888; stroke-width: 0.2"/>
    <path d="M 295.966703 779.277063 
L 303.931743 780.712619 
L 325.357986 786.209133 
L 327.309821 786.288456 
" clip-path="url(#p956d066073)" style="fill: none; stroke: #f29888; stroke-width: 0.2"/>
    <path d="M 295.966703 779.277063 
L 296.72417 772.107023 
L 297.878468 766.173264 
L 298.873775 763.983171 
L 300.379661 762.557289 
" clip-path="url(#p956d066073)" style="fill: none; stroke: #f29888; stroke-width: 0.2"/>
    <path d="M 233.929381 774.930524 
L 234.461909 773.409084 
L 235.059093 771.05841 
L 235.417145 768.589718 
L 235.218083 765.960446 
L 234.701041 764.166969 
L 234.173657 762.247735 
" clip-path="url(#p956d066073)" style="fill: none; stroke: #f29888; stroke-width: 0.2"/>
    <path d="M 314.480703 757.819181 
L 327.941906 761.284249 
" clip-path="url(#p956d066073)" style="fill: none; stroke: #f29888; stroke-width: 0.2"/>
    <path d="M 300.379661 762.557289 
L 302.493072 762.400577 
L 306.594512 762.799128 
L 321.768418 766.742069 
L 324.357508 766.343519 
L 325.591947 765.387771 
L 327.941906 761.284249 
L 329.455548 758.49633 
L 335.087434 745.104259 
L 341.21051 731.586432 
" clip-path="url(#p956d066073)" style="fill: none; stroke: #f29888; stroke-width: 0.2"/>
    <path d="M 265.53875 744.189141 
L 261.403702 752.858582 
L 243.516616 743.689986 
" clip-path="url(#p956d066073)" style="fill: none; stroke: #f29888; stroke-width: 0.2"/>
    <path d="M 282.91655 743.539078 
L 289.336925 746.278629 
" clip-path="url(#p956d066073)" style="fill: none; stroke: #f29888; stroke-width: 0.2"/>
    <path d="M 298.076237 711.430611 
L 288.741034 730.646163 
L 288.289914 731.572889 
L 282.91655 743.539078 
L 279.429098 751.303074 
L 271.692849 770.143291 
" clip-path="url(#p956d066073)" style="fill: none; stroke: #f29888; stroke-width: 0.2"/>
    <path d="M 288.741034 730.646163 
L 297.546268 734.204097 
L 292.717091 744.405829 
L 289.336925 746.278629 
" clip-path="url(#p956d066073)" style="fill: none; stroke: #f29888; stroke-width: 0.2"/>
    <path d="M 224.074524 723.89789 
L 215.473522 744.001474 
L 227.487005 749.072352 
L 235.463679 729.305408 
" clip-path="url(#p956d066073)" style="fill: none; stroke: #f29888; stroke-width: 0.2"/>
    <path d="M 246.766228 734.674231 
L 257.626707 711.780794 
" clip-path="url(#p956d066073)" style="fill: none; stroke: #f29888; stroke-width: 0.2"/>
    <path d="M 396.328536 757.321961 
L 384.651131 751.825446 
L 349.510335 735.2856 
L 341.21051 731.586432 
L 339.412494 730.785462 
L 328.257302 725.30636 
L 315.941349 719.620244 
L 298.076237 711.430611 
L 291.023776 708.085496 
L 285.234193 705.305316 
L 265.737811 695.722691 
L 238.220808 683.156742 
L 233.010312 680.707398 
L 224.626467 676.729632 
L 213.291602 671.538802 
L 201.854621 665.852686 
L 167.552727 649.999662 
L 156.269566 644.466388 
L 151.051315 641.626232 
L 147.216152 639.93336 
L 144.844219 640.27 
" clip-path="url(#p956d066073)" style="fill: none; stroke: #f29888; stroke-width: 0.2"/>
    <path d="M 224.626467 676.729632 
L 234.004326 657.355434 
" clip-path="url(#p956d066073)" style="fill: none; stroke: #f29888; stroke-width: 0.2"/>
    <path d="M 265.737811 695.722691 
L 274.184994 676.139545 
L 280.659659 665.148451 
L 286.124798 652.706323 
L 295.001126 632.49633 
" clip-path="url(#p956d066073)" style="fill: none; stroke: #f29888; stroke-width: 0.2"/>
    <path d="M 210.425894 645.468569 
L 222.637146 651.649971 
L 233.343804 657.069097 
L 234.004326 657.355434 
L 249.099383 663.871541 
L 274.184994 676.139545 
" clip-path="url(#p956d066073)" style="fill: none; stroke: #f29888; stroke-width: 0.2"/>
    <path d="M 232.26577 697.754138 
L 238.220808 683.156742 
L 248.843447 664.645426 
L 249.099383 663.871541 
L 254.737732 652.396769 
L 260.209334 640.612444 
L 267.552631 623.776587 
" clip-path="url(#p956d066073)" style="fill: none; stroke: #f29888; stroke-width: 0.2"/>
    <path d="M 286.124798 652.706323 
L 273.118594 646.637134 
L 260.209334 640.612444 
" clip-path="url(#p956d066073)" style="fill: none; stroke: #f29888; stroke-width: 0.2"/>
    <path d="M 179.716153 615.964223 
L 216.651086 634.634186 
L 229.818867 640.900716 
L 254.737732 652.396769 
L 280.659659 665.148451 
" clip-path="url(#p956d066073)" style="fill: none; stroke: #f29888; stroke-width: 0.2"/>
    <path d="M 392.09008 682.489267 
L 391.106407 681.657341 
L 390.261042 680.871848 
L 389.415678 680.208242 
L 388.81203 679.362774 
L 388.148923 678.397353 
L 387.242806 677.551884 
L 386.157017 676.766391 
L 384.346076 675.439179 
L 382.836311 674.533735 
L 381.206335 673.386451 
L 379.153676 670.790068 
L 377.342735 669.642785 
L 376.13544 668.919203 
L 374.566216 667.953782 
L 372.816027 666.806498 
L 371.306263 665.961029 
L 369.616826 665.237447 
L 367.370277 664.111446 
" clip-path="url(#p956d066073)" style="fill: none; stroke: #f29888; stroke-width: 0.2"/>
    <path d="M 392.09008 682.489267 
L 392.012524 681.29555 
L 391.830266 679.966404 
L 391.770806 678.275466 
L 391.770806 677.250069 
L 391.891019 676.464576 
L 393.581748 675.197341 
L 394.185395 674.713663 
L 395.392689 673.688266 
L 396.116549 672.299143 
L 396.720196 670.308325 
L 397.323843 667.831895 
L 397.988243 664.995609 
L 398.470385 662.219298 
L 399.25629 659.56294 
L 399.557467 657.268372 
L 399.799184 654.913829 
L 399.912934 654.228941 
L 400.221867 652.379357 
L 401.171932 648.364831 
" clip-path="url(#p956d066073)" style="fill: none; stroke: #f29888; stroke-width: 0.2"/>
    <path d="M 348.366378 655.37042 
L 349.328078 655.811535 
L 367.370277 664.111446 
" clip-path="url(#p956d066073)" style="fill: none; stroke: #f29888; stroke-width: 0.2"/>
    <path d="M 349.328078 655.811535 
L 360.8801 630.224979 
" clip-path="url(#p956d066073)" style="fill: none; stroke: #f29888; stroke-width: 0.2"/>
    <path d="M 367.370277 664.111446 
L 379.426416 637.861284 
L 388.284647 618.129165 
" clip-path="url(#p956d066073)" style="fill: none; stroke: #f29888; stroke-width: 0.2"/>
    <path d="M 332.384594 647.262046 
L 344.28045 622.300402 
" clip-path="url(#p956d066073)" style="fill: none; stroke: #f29888; stroke-width: 0.2"/>
    <path d="M 401.171932 648.364831 
L 379.426416 637.861284 
L 360.8801 630.224979 
L 344.28045 622.300402 
L 327.555417 615.387679 
L 302.144069 618.608973 
L 294.738727 616.496269 
L 292.525785 615.387679 
L 288.048197 612.088997 
" clip-path="url(#p956d066073)" style="fill: none; stroke: #f29888; stroke-width: 0.2"/>
    <path d="M 410.448968 596.946012 
L 406.37338 602.113626 
L 406.09547 603.291865 
L 407.552237 605.996591 
L 407.967164 608.146055 
L 408.036964 610.434819 
L 407.2265 614.404846 
L 406.649998 617.229524 
L 405.818852 619.864601 
L 405.332832 622.708626 
L 404.223776 630.474557 
L 403.183228 633.941559 
L 402.6287 636.992599 
L 402.836809 642.955379 
L 401.171932 648.364831 
" clip-path="url(#p956d066073)" style="fill: none; stroke: #f29888; stroke-width: 0.2"/>
    <path d="M 391.014632 599.894512 
L 379.863317 598.220987 
L 376.039787 599.495962 
L 371.02189 598.460891 
L 347.50938 592.314314 
" clip-path="url(#p956d066073)" style="fill: none; stroke: #f29888; stroke-width: 0.2"/>
    <path d="M 346.829469 573.702392 
L 358.620624 576.886927 
L 360.348839 577.353192 
L 382.651469 583.166999 
L 393.475754 585.833031 
L 398.820681 587.15057 
L 413.317261 590.495685 
" clip-path="url(#p956d066073)" style="fill: none; stroke: #f29888; stroke-width: 0.2"/>
    <path d="M 410.465772 703.846544 
L 411.320185 703.107484 
L 412.395633 702.310383 
L 413.350869 701.753186 
L 415.023502 700.836133 
L 416.139021 700.079661 
L 418.688041 698.247489 
L 420.121541 697.411694 
L 421.436122 696.614593 
L 423.506877 695.89875 
L 425.21958 695.819427 
L 426.134746 695.89875 
L 427.529468 696.335995 
L 429.759214 697.291742 
L 431.711049 698.048214 
L 433.14455 698.64604 
L 434.499201 699.601787 
L 435.573663 700.273775 
" clip-path="url(#p956d066073)" style="fill: none; stroke: #f29888; stroke-width: 0.2"/>
    <path d="M 404.605095 697.03636 
L 409.784568 690.967171 
" clip-path="url(#p956d066073)" style="fill: none; stroke: #f29888; stroke-width: 0.2"/>
    <path d="M 399.912934 654.228941 
L 401.655367 652.766299 
L 402.530461 652.52833 
L 403.527061 652.567024 
L 404.203094 652.52833 
L 405.105054 652.282421 
" clip-path="url(#p956d066073)" style="fill: none; stroke: #f29888; stroke-width: 0.2"/>
    <path d="M 414.016785 614.900825 
L 413.164734 614.652489 
L 411.850153 614.412585 
L 410.097379 614.573166 
L 408.784091 614.573166 
L 407.2265 614.404846 
" clip-path="url(#p956d066073)" style="fill: none; stroke: #f29888; stroke-width: 0.2"/>
    <path d="M 410.448968 596.946012 
L 413.317261 590.495685 
L 416.104121 583.087676 
L 419.609669 566.679391 
L 421.587357 552.763013 
L 421.839415 550.988883 
L 425.582803 534.582532 
L 427.242509 524.676811 
L 428.052973 519.847772 
L 432.194484 503.441421 
L 433.369463 496.855664 
L 434.822353 488.708596 
L 438.327901 469.35568 
L 441.035911 456.692995 
" clip-path="url(#p956d066073)" style="fill: none; stroke: #f29888; stroke-width: 0.2"/>
    <path d="M 375.286198 452.417283 
L 385.836451 454.7815 
L 397.524197 458.014403 
L 408.511351 461.051899 
L 438.327901 469.35568 
" clip-path="url(#p956d066073)" style="fill: none; stroke: #f29888; stroke-width: 0.2"/>
    <path d="M 366.386603 415.121856 
L 383.685554 417.133956 
L 396.827482 418.656573 
L 404.354329 420.041827 
L 414.925264 421.984277 
L 416.658649 420.736388 
L 419.362781 420.25271 
L 437.946582 423.16445 
L 448.555002 425.244265 
" clip-path="url(#p956d066073)" style="fill: none; stroke: #f29888; stroke-width: 0.2"/>
    <path d="M 439.698064 373.703559 
L 438.52567 375.67503 
L 435.405318 377.892209 
L 429.341702 381.842889 
L 430.483073 384.201302 
L 432.701186 390.996008 
L 435.128701 401.741394 
L 436.307557 405.345761 
L 439.149999 409.43574 
" clip-path="url(#p956d066073)" style="fill: none; stroke: #f29888; stroke-width: 0.2"/>
    <path d="M 394.562836 374.645764 
L 413.57449 378.625464 
L 429.341702 381.842889 
" clip-path="url(#p956d066073)" style="fill: none; stroke: #f29888; stroke-width: 0.2"/>
    <path d="M 333.726319 602.318705 
L 338.039746 599.998987 
L 342.064923 597.803089 
L 344.85566 595.698124 
L 347.50938 592.314314 
L 352.953838 582.890336 
L 355.377475 580.282345 
L 358.620624 576.886927 
L 360.913708 573.512791 
L 362.057665 569.165495 
L 367.733499 539.322575 
" clip-path="url(#p956d066073)" style="fill: none; stroke: #f29888; stroke-width: 0.2"/>
    <path d="M 401.059475 547.620551 
L 397.944294 566.201517 
L 393.475754 585.833031 
" clip-path="url(#p956d066073)" style="fill: none; stroke: #f29888; stroke-width: 0.2"/>
    <path d="M 355.933296 536.629457 
L 367.733499 539.322575 
L 379.067071 541.909284 
L 379.681059 542.06793 
L 390.528612 544.886804 
L 401.059475 547.620551 
L 401.767824 547.804348 
L 421.587357 552.763013 
" clip-path="url(#p956d066073)" style="fill: none; stroke: #f29888; stroke-width: 0.2"/>
    <path d="M 328.93075 499.931855 
L 341.978318 503.532353 
L 361.933574 508.870221 
L 385.987686 514.647268 
L 396.521135 517.175936 
L 427.242509 524.676811 
" clip-path="url(#p956d066073)" style="fill: none; stroke: #f29888; stroke-width: 0.2"/>
    <path d="M 379.863317 598.220987 
L 382.651469 583.166999 
L 390.528612 544.886804 
L 396.521135 517.175936 
L 402.892391 489.304487 
L 408.511351 461.051899 
L 408.697486 460.117434 
L 413.156978 438.37515 
L 414.925264 421.984277 
" clip-path="url(#p956d066073)" style="fill: none; stroke: #f29888; stroke-width: 0.2"/>
    <path d="M 321.330224 515.053558 
L 323.528948 505.973958 
L 323.875366 499.457851 
L 323.190285 497.65857 
" clip-path="url(#p956d066073)" style="fill: none; stroke: #f29888; stroke-width: 0.2"/>
    <path d="M 379.681059 542.06793 
L 385.987686 514.647268 
L 391.94143 486.663606 
L 397.524197 458.014403 
" clip-path="url(#p956d066073)" style="fill: none; stroke: #f29888; stroke-width: 0.2"/>
    <path d="M 335.49719 531.318675 
L 341.978318 503.532353 
L 348.463324 476.405767 
L 352.970642 456.16095 
" clip-path="url(#p956d066073)" style="fill: none; stroke: #f29888; stroke-width: 0.2"/>
    <path d="M 433.369463 496.855664 
L 402.892391 489.304487 
L 401.44855 488.946565 
L 391.94143 486.663606 
L 368.726221 481.091638 
L 348.463324 476.405767 
L 334.996951 473.817124 
" clip-path="url(#p956d066073)" style="fill: none; stroke: #f29888; stroke-width: 0.2"/>
    <path d="M 285.234193 705.305316 
L 300.082362 675.474004 
L 304.363474 666.874213 
L 314.624183 643.131438 
L 327.555417 615.387679 
L 333.726319 602.318705 
L 334.875446 599.809385 
L 342.18255 583.851887 
L 346.829469 573.702392 
L 354.993571 540.974818 
L 355.933296 536.629457 
L 361.933574 508.870221 
L 368.726221 481.091638 
L 375.286198 452.417283 
L 383.685554 417.133956 
L 394.562836 374.645764 
L 394.706315 374.067285 
L 405.52026 330.333139 
L 413.23712 295.479317 
L 422.648586 252.493904 
L 430.348642 219.847588 
L 431.293538 214.17308 
" clip-path="url(#p956d066073)" style="fill: none; stroke: #f29888; stroke-width: 0.2"/>
    <path d="M 278.122273 529.799926 
L 293.549529 530.724718 
L 305.374292 531.775266 
L 309.788542 533.141172 
" clip-path="url(#p956d066073)" style="fill: none; stroke: #f29888; stroke-width: 0.2"/>
    <path d="M 231.38292 526.570893 
L 232.573411 529.871511 
L 235.515383 531.289654 
L 245.867867 534.075638 
L 253.960875 536.335381 
L 258.84822 536.07226 
" clip-path="url(#p956d066073)" style="fill: none; stroke: #f29888; stroke-width: 0.2"/>
    <path d="M 258.84822 536.07226 
L 266.835234 533.864754 
L 278.122273 529.799926 
L 283.178949 527.979363 
L 298.156378 522.883334 
L 321.330224 515.053558 
" clip-path="url(#p956d066073)" style="fill: none; stroke: #f29888; stroke-width: 0.2"/>
    <path d="M 312.820997 550.795412 
L 319.3939 544.960323 
L 322.471596 538.382305 
L 326.697126 516.349814 
L 328.93075 499.931855 
" clip-path="url(#p956d066073)" style="fill: none; stroke: #f29888; stroke-width: 0.2"/>
    <path d="M 323.190285 497.65857 
L 298.297272 506.53309 
L 267.786592 516.585849 
L 244.973383 524.698093 
L 238.94079 526.015631 
L 231.38292 526.570893 
L 221.467337 524.144766 
L 213.645776 520.377883 
" clip-path="url(#p956d066073)" style="fill: none; stroke: #f29888; stroke-width: 0.2"/>
    <path d="M 226.575717 484.241348 
L 227.284066 467.271996 
" clip-path="url(#p956d066073)" style="fill: none; stroke: #f29888; stroke-width: 0.2"/>
    <path d="M 219.718441 440.393053 
L 224.105547 421.943648 
L 227.810156 408.907564 
L 230.051536 395.797961 
" clip-path="url(#p956d066073)" style="fill: none; stroke: #f29888; stroke-width: 0.2"/>
    <path d="M 237.758055 326.715229 
L 228.605109 373.438504 
" clip-path="url(#p956d066073)" style="fill: none; stroke: #f29888; stroke-width: 0.2"/>
    <path d="M 315.545811 324.091761 
L 315.297631 311.684458 
L 316.130069 300.662408 
L 316.684597 298.37558 
L 317.239125 296.226116 
L 314.812903 271.339926 
" clip-path="url(#p956d066073)" style="fill: none; stroke: #f29888; stroke-width: 0.2"/>
    <path d="M 314.812903 271.339926 
L 313.802085 269.401345 
L 312.232861 267.137733 
L 311.206532 264.81608 
L 310.754119 264.21245 
L 307.373954 263.939655 
L 301.095765 264.603261 
L 298.470481 264.905076 
L 285.552174 265.479686 
L 275.138937 265.901453 
L 265.510313 266.806897 
L 259.172664 267.319596 
L 255.399546 267.530479 
L 250.963321 267.410527 
L 245.349532 267.832294 
L 239.795202 267.621411 
L 227.963977 267.621411 
L 221.123504 268.041243 
" clip-path="url(#p956d066073)" style="fill: none; stroke: #f29888; stroke-width: 0.2"/>
    <path d="M 323.190285 497.65857 
L 326.602766 484.806283 
L 333.538891 446.239751 
L 335.762174 431.474035 
L 336.797552 424.594202 
L 340.265615 401.265455 
L 346.361546 391.704112 
L 348.578366 384.922949 
L 349.165209 376.530172 
L 349.669326 367.125541 
L 349.864509 363.490219 
" clip-path="url(#p956d066073)" style="fill: none; stroke: #f29888; stroke-width: 0.2"/>
    <path d="M 335.762174 431.474035 
L 326.076675 433.209471 
L 318.720452 432.474281 
L 316.411857 357.517766 
L 315.846988 339.056752 
L 315.545811 324.091761 
" clip-path="url(#p956d066073)" style="fill: none; stroke: #f29888; stroke-width: 0.2"/>
    <path d="M 349.669326 367.125541 
L 351.038196 367.131345 
L 358.608991 367.342229 
L 359.403944 367.435095 
L 365.282717 368.129656 
L 371.440694 369.532322 
L 374.019444 370.155299 
L 394.706315 374.067285 
" clip-path="url(#p956d066073)" style="fill: none; stroke: #f29888; stroke-width: 0.2"/>
    <path d="M 316.411857 357.517766 
L 349.864509 363.490219 
" clip-path="url(#p956d066073)" style="fill: none; stroke: #f29888; stroke-width: 0.2"/>
    <path d="M 392.358942 290.878574 
L 384.855363 324.8018 
L 376.525807 360.406289 
L 374.019444 370.155299 
L 369.71765 386.888616 
" clip-path="url(#p956d066073)" style="fill: none; stroke: #f29888; stroke-width: 0.2"/>
    <path d="M 315.545811 324.091761 
L 356.635181 333.07269 
" clip-path="url(#p956d066073)" style="fill: none; stroke: #f29888; stroke-width: 0.2"/>
    <path d="M 359.403944 367.435095 
L 361.114062 356.08221 
L 365.780371 341.995578 
L 371.911203 322.513036 
L 381.172727 287.483156 
L 381.564387 287.132973 
" clip-path="url(#p956d066073)" style="fill: none; stroke: #f29888; stroke-width: 0.2"/>
    <path d="M 316.684597 298.37558 
L 362.609608 310.616497 
" clip-path="url(#p956d066073)" style="fill: none; stroke: #f29888; stroke-width: 0.2"/>
    <path d="M 398.196352 290.826337 
L 413.23712 295.479317 
" clip-path="url(#p956d066073)" style="fill: none; stroke: #f29888; stroke-width: 0.2"/>
    <path d="M 381.564387 287.132973 
L 382.073674 287.179406 
L 391.905237 290.096951 
L 392.201244 290.412308 
L 392.358942 290.878574 
" clip-path="url(#p956d066073)" style="fill: none; stroke: #f29888; stroke-width: 0.2"/>
    <path d="M 467.054784 377.45303 
L 462.2967 377.180235 
L 451.317302 377.087369 
L 439.698064 373.703559 
" clip-path="url(#p956d066073)" style="fill: none; stroke: #f29888; stroke-width: 0.2"/>
    <path d="M 404.354329 420.041827 
L 413.57449 378.625464 
L 413.712799 378.002487 
L 424.692197 335.102202 
L 430.86827 311.703805 
L 433.904602 300.198078 
" clip-path="url(#p956d066073)" style="fill: none; stroke: #f29888; stroke-width: 0.2"/>
    <path d="M 449.243962 341.972361 
L 424.692197 335.102202 
L 405.52026 330.333139 
L 384.855363 324.8018 
L 371.911203 322.513036 
" clip-path="url(#p956d066073)" style="fill: none; stroke: #f29888; stroke-width: 0.2"/>
    <path d="M 495.876028 285.252434 
L 490.660361 299.704726 
L 483.615657 318.821607 
L 475.198204 341.871756 
L 468.1535 362.178485 
L 462.2967 377.180235 
" clip-path="url(#p956d066073)" style="fill: none; stroke: #f29888; stroke-width: 0.2"/>
    <path d="M 439.698064 373.703559 
L 447.474384 347.085803 
L 449.243962 341.972361 
L 451.68311 334.918404 
L 458.637332 326.413414 
L 463.120091 320.100451 
L 471.344945 309.157725 
L 478.650756 299.71053 
L 481.211409 294.953076 
L 483.499322 276.660381 
" clip-path="url(#p956d066073)" style="fill: none; stroke: #f29888; stroke-width: 0.2"/>
    <path d="M 430.86827 311.703805 
L 463.120091 320.100451 
" clip-path="url(#p956d066073)" style="fill: none; stroke: #f29888; stroke-width: 0.2"/>
    <path d="M 471.344945 309.157725 
L 460.503855 306.414305 
L 454.63413 304.930381 
L 442.35954 302.128919 
L 433.904602 300.198078 
L 428.124067 298.878605 
L 413.23712 295.479317 
" clip-path="url(#p956d066073)" style="fill: none; stroke: #f29888; stroke-width: 0.2"/>
    <path d="M 460.503855 306.414305 
L 469.713675 262.807849 
" clip-path="url(#p956d066073)" style="fill: none; stroke: #f29888; stroke-width: 0.2"/>
    <path d="M 480.899891 265.429383 
L 481.852542 267.147407 
L 482.492382 270.258422 
L 483.133514 273.733163 
L 483.499322 276.660381 
L 485.877718 278.488683 
L 489.354829 280.227989 
L 492.83194 281.508768 
L 494.204688 282.787612 
L 495.876028 285.252434 
" clip-path="url(#p956d066073)" style="fill: none; stroke: #f29888; stroke-width: 0.2"/>
    <path d="M 371.924129 238.148021 
L 392.78938 245.306452 
L 408.184322 249.013359 
L 422.648586 252.493904 
L 437.720376 255.618463 
L 451.927412 258.810736 
L 469.713675 262.807849 
L 471.201465 263.142554 
L 480.899891 265.429383 
" clip-path="url(#p956d066073)" style="fill: none; stroke: #f29888; stroke-width: 0.2"/>
    <path d="M 71.113666 791.119949 
L 71.674945 790.378436 
L 72.941699 788.047109 
L 75.196005 783.486994 
L 76.4382 780.521082 
L 77.831629 778.114302 
L 78.380987 777.688665 
L 79.072531 777.150815 
L 81.226013 775.454074 
L 82.534131 774.537021 
" clip-path="url(#p956d066073)" style="fill: none; stroke: #f29888; stroke-width: 0.2"/>
    <path d="M 72.56607 779.337997 
L 73.321726 778.82821 
L 74.512216 778.004023 
L 74.95558 777.725425 
L 75.312339 777.500998 
L 76.925512 777.500998 
L 78.380987 777.688665 
" clip-path="url(#p956d066073)" style="fill: none; stroke: #f29888; stroke-width: 0.2"/>
    <path d="M 112.420482 785.450726 
L 110.784042 783.523754 
L 98.774437 767.593342 
" clip-path="url(#p956d066073)" style="fill: none; stroke: #f29888; stroke-width: 0.2"/>
    <path d="M 82.226491 771.172558 
L 82.684073 770.141357 
L 83.340717 769.353929 
L 84.654005 768.748365 
L 86.572233 768.38077 
L 89.094108 767.9087 
L 91.749122 767.593342 
L 94.087446 767.382459 
L 95.611429 767.277984 
L 97.056563 767.250898 
L 98.028603 767.250898 
L 98.774437 767.593342 
" clip-path="url(#p956d066073)" style="fill: none; stroke: #f29888; stroke-width: 0.2"/>
    <path d="M 129.816378 776.489144 
L 122.537712 769.255259 
L 103.37353 748.248165 
" clip-path="url(#p956d066073)" style="fill: none; stroke: #f29888; stroke-width: 0.2"/>
    <path d="M 148.96117 765.73215 
L 135.542624 753.464146 
L 109.800369 728.392224 
" clip-path="url(#p956d066073)" style="fill: none; stroke: #f29888; stroke-width: 0.2"/>
    <path d="M 119.392172 675.390449 
L 119.409604 675.607499 
L 118.963655 684.420109 
L 116.286667 689.773455 
L 96.372774 719.537051 
L 86.057776 734.954765 
L 83.353643 738.648128 
L 81.920143 741.846206 
L 81.454805 745.66726 
L 81.03083 751.200534 
L 81.829661 766.848478 
L 82.226491 771.172558 
L 82.534131 774.537021 
L 83.278672 782.672481 
L 86.582574 792.015201 
L 90.286452 800.211475 
" clip-path="url(#p956d066073)" style="fill: none; stroke: #f29888; stroke-width: 0.2"/>
    <path d="M 110.784042 783.523754 
L 122.537712 769.255259 
L 135.542624 753.464146 
L 148.38596 737.870374 
L 148.856469 737.299635 
L 160.698036 722.402359 
L 169.850981 711.268096 
L 184.757317 692.38338 
" clip-path="url(#p956d066073)" style="fill: none; stroke: #f29888; stroke-width: 0.2"/>
    <path d="M 171.731723 758.194515 
L 148.38596 737.870374 
L 117.425454 708.582717 
" clip-path="url(#p956d066073)" style="fill: none; stroke: #f29888; stroke-width: 0.2"/>
    <path d="M 174.057122 682.597611 
L 165.819342 691.965482 
L 149.834972 712.057458 
" clip-path="url(#p956d066073)" style="fill: none; stroke: #f29888; stroke-width: 0.2"/>
    <path d="M 195.820735 754.253509 
L 197.726037 755.472377 
L 204.185191 756.861499 
L 216.379639 760.301416 
L 227.00357 762.777846 
L 233.281759 763.139637 
L 234.173657 762.247735 
L 234.730771 761.690538 
L 239.37769 752.875994 
L 243.516616 743.689986 
L 243.970321 742.683936 
" clip-path="url(#p956d066073)" style="fill: none; stroke: #f29888; stroke-width: 0.2"/>
    <path d="M 202.329008 741.703037 
L 169.850981 711.268096 
" clip-path="url(#p956d066073)" style="fill: none; stroke: #f29888; stroke-width: 0.2"/>
    <path d="M 195.820735 754.253509 
L 160.698036 722.402359 
L 154.662857 716.679483 
L 149.834972 712.057458 
L 139.956875 702.915948 
L 130.089118 692.803212 
" clip-path="url(#p956d066073)" style="fill: none; stroke: #f29888; stroke-width: 0.2"/>
    <path d="M 233.010312 680.707398 
L 227.70287 688.390136 
L 227.267262 689.020852 
L 223.058536 697.707705 
L 218.173776 707.526364 
L 213.159756 718.246599 
L 202.329008 741.703037 
L 195.820735 754.253509 
L 195.36703 755.127998 
" clip-path="url(#p956d066073)" style="fill: none; stroke: #f29888; stroke-width: 0.2"/>
    <path d="M 148.581144 657.243221 
L 155.289771 664.11725 
L 164.807231 673.870129 
L 174.057122 682.597611 
L 179.919092 687.751681 
L 184.757317 692.38338 
L 185.954271 693.664159 
L 207.217645 714.112121 
L 213.159756 718.246599 
L 214.562234 719.38034 
L 224.074524 723.89789 
L 235.463679 729.305408 
L 246.766228 734.674231 
L 248.122172 735.272057 
L 265.53875 744.189141 
L 279.429098 751.303074 
" clip-path="url(#p956d066073)" style="fill: none; stroke: #f29888; stroke-width: 0.2"/>
    <path d="M 154.662857 716.679483 
L 179.919092 687.751681 
" clip-path="url(#p956d066073)" style="fill: none; stroke: #f29888; stroke-width: 0.2"/>
    <path d="M 223.058536 697.707705 
L 216.742861 694.277462 
L 214.147308 692.588459 
L 212.698296 690.17394 
L 213.301943 687.75942 
L 214.992672 685.163038 
L 216.199966 683.773915 
L 221.149356 685.524829 
L 225.496391 687.395694 
L 227.70287 688.390136 
" clip-path="url(#p956d066073)" style="fill: none; stroke: #f29888; stroke-width: 0.2"/>
    <path d="M 216.199966 683.773915 
L 214.56999 682.566655 
L 212.940013 681.721187 
L 209.076413 680.393975 
L 204.911635 678.159383 
L 199.116881 675.261186 
L 197.848834 674.59758 
L 197.161168 674.33059 
" clip-path="url(#p956d066073)" style="fill: none; stroke: #f29888; stroke-width: 0.2"/>
    <path d="M 163.126843 655.598716 
L 170.895407 665.763689 
L 173.587906 667.781593 
L 177.848337 670.352824 
L 182.132034 674.305439 
L 183.57329 676.640635 
L 185.055909 679.229279 
L 186.689764 680.717072 
L 190.297428 682.382858 
L 192.509078 683.311519 
L 191.902845 685.190124 
L 191.690858 686.585051 
L 185.954271 693.664159 
" clip-path="url(#p956d066073)" style="fill: none; stroke: #f29888; stroke-width: 0.2"/>
    <path d="M 139.956875 702.915948 
L 156.04336 684.168596 
L 164.807231 673.870129 
" clip-path="url(#p956d066073)" style="fill: none; stroke: #f29888; stroke-width: 0.2"/>
    <path d="M 130.089118 692.803212 
L 140.523036 677.428063 
L 142.913065 674.880048 
L 144.827415 674.413783 
" clip-path="url(#p956d066073)" style="fill: none; stroke: #f29888; stroke-width: 0.2"/>
    <path d="M 165.819342 691.965482 
L 156.04336 684.168596 
L 144.827415 674.413783 
" clip-path="url(#p956d066073)" style="fill: none; stroke: #f29888; stroke-width: 0.2"/>
    <path d="M 120.659886 667.890757 
L 123.041828 667.715812 
L 125.823517 666.251236 
L 128.216131 664.204312 
L 132.205114 660.26524 
L 137.952042 651.767988 
L 141.040079 647.730246 
L 144.844219 640.27 
" clip-path="url(#p956d066073)" style="fill: none; stroke: #f29888; stroke-width: 0.2"/>
    <path d="M 137.952042 651.767988 
L 132.344716 648.954918 
L 109.098484 631.1904 
L 104.053441 625.926051 
L 92.430325 611.889721 
L 80.87701 590.547922 
L 78.065591 585.353223 
L 53.502193 539.959095 
" clip-path="url(#p956d066073)" style="fill: none; stroke: #f29888; stroke-width: 0.2"/>
    <path d="M 125.457709 625.169579 
L 125.667112 616.709087 
L 125.404713 608.248595 
L 124.373213 605.808924 
L 120.416545 598.441544 
L 119.065771 595.92642 
L 114.12543 586.04585 
L 111.825883 583.726131 
L 105.62008 577.465406 
L 86.676934 547.618616 
" clip-path="url(#p956d066073)" style="fill: none; stroke: #f29888; stroke-width: 0.2"/>
    <path d="M 123.530433 570.873845 
L 120.416545 598.441544 
" clip-path="url(#p956d066073)" style="fill: none; stroke: #f29888; stroke-width: 0.2"/>
    <path d="M 160.545508 581.632773 
L 156.488017 578.086448 
L 152.828648 576.53094 
L 131.535544 571.473605 
L 130.86856 571.314959 
L 124.373213 570.674569 
L 123.530433 570.873845 
L 119.706904 571.773485 
L 107.720565 576.347142 
L 105.62008 577.465406 
L 103.420064 578.633971 
L 80.87701 590.547922 
" clip-path="url(#p956d066073)" style="fill: none; stroke: #f29888; stroke-width: 0.2"/>
    <path d="M 108.584026 537.652919 
L 121.079652 558.296287 
L 124.821747 563.06535 
L 126.935158 564.27261 
L 128.382878 565.721709 
L 129.590172 567.350735 
L 130.374784 568.316156 
L 130.426488 568.453521 
L 131.535544 571.473605 
" clip-path="url(#p956d066073)" style="fill: none; stroke: #f29888; stroke-width: 0.2"/>
    <path d="M 54.270808 515.716704 
L 55.677649 516.14667 
" clip-path="url(#p956d066073)" style="fill: none; stroke: #f29888; stroke-width: 0.2"/>
    <path d="M 281.378348 626.386512 
L 273.118594 646.637134 
" clip-path="url(#p956d066073)" style="fill: none; stroke: #f29888; stroke-width: 0.2"/>
    <path d="M 281.378348 626.386512 
L 295.001126 632.49633 
L 314.624183 643.131438 
" clip-path="url(#p956d066073)" style="fill: none; stroke: #f29888; stroke-width: 0.2"/>
    <path d="M 245.817455 626.301385 
L 247.649078 635.315204 
" clip-path="url(#p956d066073)" style="fill: none; stroke: #f29888; stroke-width: 0.2"/>
    <path d="M 260.70311 622.931118 
L 256.009656 624.556276 
L 245.817455 626.301385 
L 226.45809 628.036821 
" clip-path="url(#p956d066073)" style="fill: none; stroke: #f29888; stroke-width: 0.2"/>
    <path d="M 201.854621 665.852686 
L 205.728563 656.457728 
L 209.643867 647.13629 
L 210.425894 645.468569 
L 214.549308 636.671437 
L 216.651086 634.634186 
L 221.232083 631.488346 
L 226.45809 628.036821 
L 228.430607 625.746123 
L 232.591507 614.94463 
L 237.379321 597.272979 
L 239.174751 592.002825 
L 246.382324 568.15751 
L 251.298106 549.740994 
L 251.953457 547.283911 
" clip-path="url(#p956d066073)" style="fill: none; stroke: #f29888; stroke-width: 0.2"/>
    <path d="M 334.875446 599.809385 
L 324.042113 598.391242 
L 297.618654 588.433283 
L 246.382324 568.15751 
L 198.359414 545.792249 
L 196.587251 546.221755 
L 195.408394 547.885606 
L 193.191574 569.153886 
L 186.043461 592.50585 
L 185.2149 594.771397 
L 183.47893 600.823174 
L 179.716153 615.964223 
L 172.14665 638.631299 
L 167.552727 649.999662 
L 163.126843 655.598716 
L 155.289771 664.11725 
" clip-path="url(#p956d066073)" style="fill: none; stroke: #f29888; stroke-width: 0.2"/>
    <path d="M 193.191574 569.153886 
L 239.174751 592.002825 
L 288.048197 612.088997 
L 283.997168 615.298683 
L 279.682448 618.736664 
L 267.552631 623.776587 
L 260.70311 622.931118 
L 256.825291 622.453244 
L 232.591507 614.94463 
L 205.617398 601.473236 
L 186.043461 592.50585 
" clip-path="url(#p956d066073)" style="fill: none; stroke: #f29888; stroke-width: 0.2"/>
    <path d="M 303.898135 573.897798 
L 297.648384 587.365323 
L 297.618654 588.433283 
L 288.048197 612.088997 
" clip-path="url(#p956d066073)" style="fill: none; stroke: #f29888; stroke-width: 0.2"/>
    <path d="M 342.18255 583.851887 
L 334.936199 582.485981 
L 324.812506 580.68283 
L 315.729361 578.881614 
L 304.704722 574.234438 
L 303.898135 573.897798 
L 293.748591 569.658846 
L 269.756524 558.634862 
L 257.553028 552.393483 
L 251.298106 549.740994 
" clip-path="url(#p956d066073)" style="fill: none; stroke: #f29888; stroke-width: 0.2"/>
    <path d="M 295.370811 548.998065 
L 305.039507 550.47038 
L 312.820997 550.795412 
" clip-path="url(#p956d066073)" style="fill: none; stroke: #f29888; stroke-width: 0.2"/>
    <path d="M 192.509078 683.311519 
L 197.161168 674.33059 
L 198.845434 671.977981 
L 201.854621 665.852686 
" clip-path="url(#p956d066073)" style="fill: none; stroke: #f29888; stroke-width: 0.2"/>
    <path d="M 222.637146 651.649971 
L 213.519101 669.435771 
" clip-path="url(#p956d066073)" style="fill: none; stroke: #f29888; stroke-width: 0.2"/>
    <path d="M 172.14665 638.631299 
L 183.904197 644.379326 
L 195.622966 650.065442 
L 205.728563 656.457728 
L 211.847761 660.259436 
L 213.789256 663.310475 
L 213.928857 665.668888 
L 213.519101 669.435771 
L 213.291602 671.538802 
" clip-path="url(#p956d066073)" style="fill: none; stroke: #f29888; stroke-width: 0.2"/>
    <path d="M 144.844219 640.27 
L 150.196902 619.56859 
L 159.639391 584.124681 
L 160.545508 581.632773 
L 163.788658 572.707951 
L 166.22522 563.951448 
L 168.962961 556.887817 
L 171.956637 550.590333 
L 177.001679 545.356939 
L 178.899226 544.14581 
L 184.595742 540.506618 
L 196.848357 534.83211 
L 210.109205 529.039585 
L 212.434604 526.390965 
L 213.931442 524.502687 
L 214.60489 522.517673 
L 213.645776 520.377883 
" clip-path="url(#p956d066073)" style="fill: none; stroke: #f29888; stroke-width: 0.2"/>
    <path d="M 173.156176 542.497436 
L 178.413206 507.786783 
" clip-path="url(#p956d066073)" style="fill: none; stroke: #f29888; stroke-width: 0.2"/>
    <path d="M 161.547278 502.147099 
L 168.80397 504.135983 
L 178.413206 507.786783 
" clip-path="url(#p956d066073)" style="fill: none; stroke: #f29888; stroke-width: 0.2"/>
    <path d="M 204.667333 515.353438 
L 211.546584 482.629733 
" clip-path="url(#p956d066073)" style="fill: none; stroke: #f29888; stroke-width: 0.2"/>
    <path d="M 148.900418 493.613088 
L 150.706189 495.191813 
L 156.382023 495.507171 
L 163.318149 496.505482 
L 170.728661 498.449866 
L 177.244689 500.868255 
L 179.819561 501.340325 
L 182.334973 500.990142 
" clip-path="url(#p956d066073)" style="fill: none; stroke: #f29888; stroke-width: 0.2"/>
    <path d="M 147.505696 491.351411 
L 154.982131 489.389614 
L 161.259027 488.182354 
L 169.348157 487.940515 
L 178.947052 487.518748 
L 184.149792 487.060222 
" clip-path="url(#p956d066073)" style="fill: none; stroke: #f29888; stroke-width: 0.2"/>
    <path d="M 204.096001 481.17483 
L 201.086813 492.949483 
L 183.745207 489.060713 
" clip-path="url(#p956d066073)" style="fill: none; stroke: #f29888; stroke-width: 0.2"/>
    <path d="M 178.899226 544.14581 
L 173.156176 542.497436 
L 166.962006 540.719436 
L 134.356011 532.38857 
" clip-path="url(#p956d066073)" style="fill: none; stroke: #f29888; stroke-width: 0.2"/>
    <path d="M 130.426488 568.453521 
L 132.804884 564.903326 
L 133.761412 560.681786 
L 133.920403 535.354482 
L 134.356011 532.38857 
L 135.194913 526.673433 
L 137.026536 516.876056 
L 138.77931 510.425729 
L 144.548212 498.612382 
" clip-path="url(#p956d066073)" style="fill: none; stroke: #f29888; stroke-width: 0.2"/>
    <path d="M 53.502193 539.959095 
L 52.678803 535.101035 
L 54.516889 527.557596 
L 55.677649 516.14667 
L 57.321845 495.839941 
" clip-path="url(#p956d066073)" style="fill: none; stroke: #f29888; stroke-width: 0.2"/>
    <path d="M 161.547278 502.147099 
L 158.52775 513.948838 
" clip-path="url(#p956d066073)" style="fill: none; stroke: #f29888; stroke-width: 0.2"/>
    <path d="M 148.900418 493.613088 
L 147.505696 491.351411 
L 145.31602 487.799281 
L 139.421736 480.631176 
L 135.359074 477.446642 
L 133.766583 471.154961 
L 134.243555 463.508983 
L 135.996329 452.995762 
L 136.792574 444.395971 
L 137.111848 434.122655 
L 143.175464 419.691644 
" clip-path="url(#p956d066073)" style="fill: none; stroke: #f29888; stroke-width: 0.2"/>
    <path d="M 69.487855 410.550134 
L 99.11827 420.902773 
L 121.978013 428.467494 
L 137.111848 434.122655 
" clip-path="url(#p956d066073)" style="fill: none; stroke: #f29888; stroke-width: 0.2"/>
    <path d="M 143.175464 419.691644 
L 68.012628 394.213238 
" clip-path="url(#p956d066073)" style="fill: none; stroke: #f29888; stroke-width: 0.2"/>
    <path d="M 71.583965 362.635917 
L 117.119106 379.732119 
" clip-path="url(#p956d066073)" style="fill: none; stroke: #f29888; stroke-width: 0.2"/>
    <path d="M 130.955164 341.148174 
L 125.634796 349.703467 
L 120.216191 357.842797 
L 117.345312 357.8931 
L 94.563126 347.563677 
L 82.775848 342.345761 
L 74.286415 338.741189 
" clip-path="url(#p956d066073)" style="fill: none; stroke: #f29888; stroke-width: 0.2"/>
    <path d="M 198.714881 480.124282 
L 204.096001 481.17483 
L 211.546584 482.629733 
L 226.575717 484.241348 
" clip-path="url(#p956d066073)" style="fill: none; stroke: #f29888; stroke-width: 0.2"/>
    <path d="M 204.096001 481.17483 
L 209.786054 457.894451 
L 211.249284 452.130946 
" clip-path="url(#p956d066073)" style="fill: none; stroke: #f29888; stroke-width: 0.2"/>
    <path d="M 228.588305 442.159445 
L 219.718441 440.393053 
L 194.036938 435.275742 
" clip-path="url(#p956d066073)" style="fill: none; stroke: #f29888; stroke-width: 0.2"/>
    <path d="M 213.645776 520.377883 
L 204.667333 515.353438 
L 187.352871 505.66247 
L 183.213945 502.510825 
L 182.334973 500.990142 
L 182.082915 500.554832 
L 182.104889 497.172957 
L 183.745207 489.060713 
L 184.149792 487.060222 
L 187.018086 472.518933 
L 191.387095 448.640727 
L 194.036938 435.275742 
L 196.229199 421.767589 
L 200.463777 402.776464 
L 201.367309 395.964346 
L 200.432754 391.61705 
L 200.417243 391.255259 
L 200.26213 387.660566 
L 204.465686 369.507171 
L 211.89688 334.007155 
L 214.836267 318.730676 
L 217.782117 310.202469 
L 219.596936 304.791082 
L 220.297528 299.913675 
L 219.869676 297.661671 
L 219.206569 296.496975 
L 204.139949 290.636735 
L 189.824334 285.482664 
L 177.390754 280.709732 
L 172.071679 278.192673 
L 165.222158 274.950097 
L 163.409924 274.640543 
L 149.851776 271.833277 
" clip-path="url(#p956d066073)" style="fill: none; stroke: #f29888; stroke-width: 0.2"/>
    <path d="M 230.051536 395.797961 
L 229.697362 395.23496 
L 229.201001 394.820932 
L 205.485553 391.709916 
L 200.417243 391.255259 
" clip-path="url(#p956d066073)" style="fill: none; stroke: #f29888; stroke-width: 0.2"/>
    <path d="M 248.366475 376.210945 
L 228.605109 373.438504 
L 204.465686 369.507171 
L 189.240076 366.218162 
L 180.689485 363.784295 
L 175.344558 355.695268 
L 170.060383 355.002641 
L 165.809001 351.485336 
L 158.772052 346.9407 
L 155.840421 346.648558 
L 151.003488 347.968031 
L 148.365279 348.113135 
L 130.955164 341.148174 
L 116.527092 334.531462 
L 109.165699 330.389245 
L 101.189026 327.17569 
L 92.220923 324.153671 
L 84.891845 321.808801 
L 76.334536 320.631963 
" clip-path="url(#p956d066073)" style="fill: none; stroke: #f29888; stroke-width: 0.2"/>
    <path d="M 140.489428 318.250868 
L 154.839944 321.607591 
L 170.785536 325.173264 
L 171.972148 325.06492 
L 172.689545 324.99914 
L 180.56281 327.015109 
L 196.230491 330.789731 
L 211.89688 334.007155 
" clip-path="url(#p956d066073)" style="fill: none; stroke: #f29888; stroke-width: 0.2"/>
    <path d="M 209.095802 274.309707 
L 204.139949 290.636735 
L 200.123821 306.899917 
L 196.230491 330.789731 
L 189.240076 366.218162 
" clip-path="url(#p956d066073)" style="fill: none; stroke: #f29888; stroke-width: 0.2"/>
    <path d="M 171.972148 325.06492 
L 174.861123 310.397875 
" clip-path="url(#p956d066073)" style="fill: none; stroke: #f29888; stroke-width: 0.2"/>
    <path d="M 195.643648 267.86325 
L 189.824334 285.482664 
L 180.56281 327.015109 
L 175.344558 355.695268 
" clip-path="url(#p956d066073)" style="fill: none; stroke: #f29888; stroke-width: 0.2"/>
    <path d="M 219.081186 250.257378 
L 220.230313 261.790191 
L 221.123504 268.041243 
L 221.281202 276.132205 
L 221.544894 282.698615 
L 221.702592 287.899119 
L 221.539723 293.596843 
L 220.297528 299.913675 
" clip-path="url(#p956d066073)" style="fill: none; stroke: #f29888; stroke-width: 0.2"/>
    <path d="M 172.071679 278.192673 
L 180.80582 250.94807 
" clip-path="url(#p956d066073)" style="fill: none; stroke: #f29888; stroke-width: 0.2"/>
    <path d="M 122.66568 240.212358 
L 125.36852 238.563984 
L 161.688172 243.921199 
L 164.508639 244.780211 
L 180.80582 250.94807 
L 212.316977 261.991401 
" clip-path="url(#p956d066073)" style="fill: none; stroke: #f29888; stroke-width: 0.2"/>
    <path d="M 219.026896 248.194976 
L 168.832407 229.579185 
" clip-path="url(#p956d066073)" style="fill: none; stroke: #f29888; stroke-width: 0.2"/>
    <path d="M 150.07669 264.543285 
L 151.325347 264.525873 
L 154.70422 264.477505 
L 157.659118 263.573995 
L 164.508639 244.780211 
L 168.832407 229.579185 
L 173.176857 212.803304 
L 179.727786 194.255228 
L 180.335311 192.833216 
" clip-path="url(#p956d066073)" style="fill: none; stroke: #f29888; stroke-width: 0.2"/>
    <path d="M 213.741429 173.250069 
L 215.614416 181.706692 
L 216.861781 192.933821 
L 217.860966 211.021435 
L 218.388349 226.897675 
L 218.443931 228.228757 
L 219.150987 245.196174 
L 219.026896 248.194976 
L 219.081186 250.257378 
L 214.158941 260.584866 
L 213.298065 261.879188 
L 212.316977 261.991401 
" clip-path="url(#p956d066073)" style="fill: none; stroke: #f29888; stroke-width: 0.2"/>
    <path d="M 218.443931 228.228757 
L 173.176857 212.803304 
L 161.703684 208.469551 
L 149.511821 205.52879 
L 134.42969 199.645334 
" clip-path="url(#p956d066073)" style="fill: none; stroke: #f29888; stroke-width: 0.2"/>
    <path d="M 217.860966 211.021435 
L 186.866851 200.887418 
L 185.110199 199.912324 
L 183.906782 195.089089 
L 183.481515 193.361392 
L 182.884331 191.962596 
L 180.335311 192.833216 
" clip-path="url(#p956d066073)" style="fill: none; stroke: #f29888; stroke-width: 0.2"/>
    <path d="M 182.884331 191.962596 
L 185.936174 190.577342 
L 188.571799 188.636827 
L 190.513293 187.321223 
L 193.009316 186.765961 
L 195.158921 187.181924 
L 216.861781 192.933821 
" clip-path="url(#p956d066073)" style="fill: none; stroke: #f29888; stroke-width: 0.2"/>
    <path d="M 196.752704 108.949943 
L 197.271039 127.285201 
L 200.474118 138.351749 
L 204.225261 145.57596 
L 207.610597 153.34963 
L 212.185131 166.701072 
L 213.741429 173.250069 
" clip-path="url(#p956d066073)" style="fill: none; stroke: #f29888; stroke-width: 0.2"/>
    <path d="M 163.409924 274.640543 
L 154.839944 321.607591 
" clip-path="url(#p956d066073)" style="fill: none; stroke: #f29888; stroke-width: 0.2"/>
    <path d="M 151.325347 264.525873 
L 149.851776 271.833277 
L 140.489428 318.250868 
" clip-path="url(#p956d066073)" style="fill: none; stroke: #f29888; stroke-width: 0.2"/>
    <path d="M 133.753657 261.337469 
L 123.445121 315.873108 
" clip-path="url(#p956d066073)" style="fill: none; stroke: #f29888; stroke-width: 0.2"/>
    <path d="M 140.489428 318.250868 
L 137.663791 320.123668 
L 135.611132 320.123668 
L 132.826858 320.123668 
L 128.282054 318.804195 
L 123.445121 315.873108 
L 116.995016 313.675276 
L 108.19883 309.865829 
L 107.246179 308.590855 
L 112.227884 284.728127 
L 118.44015 257.918834 
L 122.66568 240.212358 
L 119.604788 237.447655 
" clip-path="url(#p956d066073)" style="fill: none; stroke: #f29888; stroke-width: 0.2"/>
    <path d="M 150.07669 264.543285 
L 133.753657 261.337469 
L 122.421377 258.756564 
L 118.44015 257.918834 
L 117.848136 257.818229 
L 108.627975 256.53745 
L 84.867285 254.001044 
" clip-path="url(#p956d066073)" style="fill: none; stroke: #f29888; stroke-width: 0.2"/>
    <path d="M 306.072299 217.539477 
L 302.639137 216.812026 
L 294.908058 216.221939 
L 289.638102 215.773086 
L 288.415297 215.68022 
" clip-path="url(#p956d066073)" style="fill: none; stroke: #f29888; stroke-width: 0.2"/>
    <path d="M 265.807861 48.012246 
L 266.174712 50.225655 
L 267.533242 55.987225 
L 268.650053 61.537911 
L 269.434665 66.214108 
L 270.28003 70.528514 
L 271.245607 74.721033 
L 272.120701 77.706292 
L 272.604136 80.029881 
L 273.660196 86.153241 
L 274.777007 91.885791 
L 275.53189 96.018334 
L 277.130844 101.358137 
L 277.976208 105.459724 
L 279.81688 113.69579 
L 280.874232 117.768357 
L 282.050503 123.922673 
L 282.744633 127.451586 
L 283.469785 133.184135 
L 284.525844 138.342075 
L 284.797292 140.092989 
L 284.827022 142.958296 
L 285.733139 146.156374 
L 286.608233 148.358075 
L 287.453598 149.958081 
L 288.479927 154.543347 
L 289.807434 158.977705 
L 290.652798 162.175782 
L 290.984998 164.468415 
L 291.256446 165.735651 
L 290.863493 166.911955 
L 290.259846 167.606517 
L 288.54068 167.757424 
L 286.336786 167.486565 
L 285.280726 166.761048 
L 284.103162 167.033842 
L 283.438762 168.15017 
L 282.65415 169.688266 
L 282.504208 172.826367 
L 283.438762 178.647913 
L 284.01268 183.836809 
L 284.465092 187.729448 
L 284.797292 191.138409 
L 284.616327 195.452815 
L 284.948527 200.430826 
L 285.430669 203.507017 
L 286.729738 210.175967 
L 287.785798 213.283113 
L 288.415297 215.68022 
L 288.721645 216.842981 
L 289.596739 220.493781 
L 290.351621 223.208181 
L 291.136233 226.22633 
L 291.346928 229.304456 
L 291.588645 233.255136 
L 292.13154 236.333262 
L 292.916152 240.285877 
L 293.761517 246.411172 
L 294.787846 250.332832 
L 295.361763 253.923656 
L 296.146375 257.392593 
L 297.263187 259.112551 
L 297.625117 261.436139 
L 298.470481 264.905076 
" clip-path="url(#p956d066073)" style="fill: none; stroke: #f29888; stroke-width: 0.2"/>
    <path d="M 310.754119 264.21245 
L 309.356812 258.218714 
L 308.357627 248.446488 
L 307.485118 245.085895 
L 306.571245 241.564721 
L 304.574169 233.003624 
L 303.89038 229.273501 
L 303.470283 225.280257 
L 303.260881 221.025827 
L 303.576276 219.029205 
L 304.893442 217.920615 
L 306.072299 217.539477 
L 309.642478 218.02509 
L 314.704324 219.06403 
L 320.4603 219.826306 
L 327.81006 220.416393 
L 332.525488 221.594632 
L 336.963005 222.946995 
L 343.793137 224.748211 
L 347.694223 225.835519 
L 349.757223 226.412063 
L 353.154192 227.90179 
L 356.309444 229.045205 
L 359.118278 229.87713 
L 360.851663 230.778706 
L 362.688457 231.852471 
L 364.838061 232.579922 
L 366.849356 233.620797 
L 368.755951 235.561312 
L 370.420828 237.190339 
L 371.924129 238.148021 
" clip-path="url(#p956d066073)" style="fill: none; stroke: #f29888; stroke-width: 0.2"/>
    <path d="M 307.485118 245.085895 
L 308.87984 243.011885 
L 310.371508 240.655406 
L 311.861883 238.473052 
L 312.937332 236.497712 
L 313.941687 233.446673 
L 314.566015 230.467217 
L 315.085643 228.526702 
L 315.606564 227.313638 
L 317.270148 226.272764 
L 319.281443 225.856801 
L 321.188038 225.891625 
L 323.753861 226.412063 
L 326.527794 226.758376 
L 329.751555 227.381353 
L 332.422079 227.625127 
L 334.953003 228.248104 
L 337.240916 228.873015 
L 338.488281 229.149679 
L 340.396168 228.594417 
L 343.481619 227.729601 
L 347.694223 225.835519 
" clip-path="url(#p956d066073)" style="fill: none; stroke: #f29888; stroke-width: 0.2"/>
    <path d="M 418.085686 203.241962 
L 408.184322 249.013359 
L 398.196352 290.826337 
" clip-path="url(#p956d066073)" style="fill: none; stroke: #f29888; stroke-width: 0.2"/>
    <path d="M 471.855524 184.130885 
L 466.03104 207.765316 
L 464.48379 210.839573 
L 460.899393 217.95544 
L 459.304317 224.955225 
L 451.927412 258.810736 
L 442.35954 302.128919 
" clip-path="url(#p956d066073)" style="fill: none; stroke: #f29888; stroke-width: 0.2"/>
    <path d="M 428.124067 298.878605 
L 437.720376 255.618463 
L 446.892711 215.529312 
L 451.650795 197.896355 
L 457.144372 177.080797 
" clip-path="url(#p956d066073)" style="fill: none; stroke: #f29888; stroke-width: 0.2"/>
    <path d="M 432.014812 213.246353 
L 446.892711 215.529312 
L 460.899393 217.95544 
" clip-path="url(#p956d066073)" style="fill: none; stroke: #f29888; stroke-width: 0.2"/>
    <path d="M 490.369525 188.218929 
L 483.019765 213.656512 
L 479.899413 214.97405 
L 474.975876 214.281424 
L 464.48379 210.839573 
" clip-path="url(#p956d066073)" style="fill: none; stroke: #f29888; stroke-width: 0.2"/>
    <path d="M 431.293538 214.17308 
L 432.014812 213.246353 
L 432.424568 212.486012 
L 434.812012 202.659614 
L 440.348245 182.780456 
L 442.98904 173.126248 
" clip-path="url(#p956d066073)" style="fill: none; stroke: #f29888; stroke-width: 0.2"/>
    <path d="M 428.337347 132.760434 
L 468.881237 141.16095 
" clip-path="url(#p956d066073)" style="fill: none; stroke: #f29888; stroke-width: 0.2"/>
    <path d="M 421.926019 157.851703 
L 423.196651 157.422197 
L 426.349318 157.106839 
L 432.07815 157.213248 
L 442.062241 157.265485 
L 451.259135 157.474434 
L 455.935785 157.843964 
L 461.821021 158.316034 
L 466.866064 158.946749 
L 471.171735 159.414949 
L 474.099489 159.78061 
L 477.987649 160.353284 
L 482.403192 160.833093 
L 485.559736 161.22197 
L 490.581512 161.736603 
L 492.8914 161.933943 
L 494.483891 162.073243 
L 495.141827 162.073243 
L 495.678259 161.895249 
L 496.016922 161.576022 
L 496.355585 161.078801 
L 496.674858 160.362958 
L 497.113052 159.00866 
L 497.689554 157.555692 
L 498.885215 154.769708 
L 499.52247 153.117465 
L 500.159725 151.227252 
L 500.557848 149.375733 
L 500.756909 146.628443 
L 500.85644 143.881153 
L 501.055501 141.354421 
L 501.354093 138.74643 
L 501.792287 136.318367 
L 501.940936 135.312318 
L 501.894403 134.580997 
L 501.597103 133.780026 
L 501.254563 133.232503 
L 500.979237 132.592114 
L 500.865488 131.60928 
L 501.162787 130.144704 
L 502.077953 127.240703 
L 502.74106 123.789178 
L 503.450701 119.697264 
L 503.838483 116.884194 
L 503.953525 115.353837 
L 503.930258 113.043792 
L 503.953525 111.420569 
L 503.998766 110.735682 
L 504.274091 109.363971 
L 504.731674 107.053926 
L 505.50853 104.126708 
L 505.623572 103.418604 
L 505.733698 102.826402 
" clip-path="url(#p956d066073)" style="fill: none; stroke: #f29888; stroke-width: 0.2"/>
    <path d="M 431.293538 214.17308 
L 427.467423 193.427172 
L 424.736146 175.772932 
L 422.528374 162.179652 
L 421.926019 157.851703 
L 421.451633 154.440807 
L 423.038954 148.212972 
L 428.337347 132.760434 
L 440.710175 96.836717 
L 443.893308 87.703841 
" clip-path="url(#p956d066073)" style="fill: none; stroke: #f29888; stroke-width: 0.2"/>
    <path d="M 196.463362 108.427092 
L 196.752704 108.949943 
" clip-path="url(#p956d066073)" style="fill: none; stroke: #f29888; stroke-width: 0.2"/>
   </g>
   <g id="LineCollection_2">
    <path d="M 71.665471 786.643684 
L 72.91714 784.0558 
L 74.014563 780.884808 
L 74.95558 777.725425 
L 75.153349 777.059884 
L 76.17063 772.749347 
L 76.576508 770.390934 
L 76.739377 767.380524 
L 76.820811 763.108682 
L 76.650187 759.200565 
L 76.252064 754.934527 
L 75.846042 752.730756 
" clip-path="url(#p956d066073)" style="fill: none; stroke-dasharray: 3.7,1.6; stroke-dashoffset: 0; stroke: #f29888"/>
    <path d="M 76.650187 759.200565 
L 76.710939 752.549028 
L 77.168522 749.600528 
L 77.880748 746.551423 
L 78.846325 743.806068 
L 79.76149 741.517305 
L 81.42249 739.160827 
L 82.834016 737.019101 
L 84.643665 734.612321 
L 90.447467 727.355219 
L 96.372774 719.537051 
L 109.154066 703.082333 
L 116.116043 693.873108 
L 123.403758 683.526272 
L 133.836384 668.37168 
L 145.048451 652.505113 
L 146.737887 649.806191 
L 148.299356 646.942819 
L 151.051315 641.626232 
L 151.501142 639.915948 
L 152.281876 637.704573 
L 153.029002 635.322943 
L 153.764495 632.966465 
L 154.54523 629.92123 
L 155.196703 626.875994 
L 155.876614 623.122655 
L 157.955125 611.572429 
L 159.913424 599.782299 
L 160.922949 595.850966 
L 161.937645 592.416853 
L 163.24447 589.38903 
L 165.139431 585.596997 
L 167.060244 582.099039 
L 173.437964 570.328256 
L 178.631656 561.15966 
L 181.015222 557.228327 
L 182.837797 554.678377 
L 184.90726 552.227098 
L 187.052986 549.957682 
L 189.994958 547.183306 
L 193.188988 544.637226 
L 195.824613 542.654147 
L 198.576572 540.92645 
L 201.733116 539.187145 
L 204.544535 537.761263 
L 208.28663 536.300556 
L 210.530595 535.575039 
L 212.831434 535.006234 
L 216.36025 534.404539 
L 219.624081 533.955686 
L 222.736677 533.72739 
L 226.332707 533.708043 
L 229.061399 533.806713 
L 231.974934 534.164635 
L 236.973443 535.002365 
L 242.335174 536.434051 
L 252.935838 539.434788 
L 258.004148 540.72911 
L 263.32193 542.13371 
L 265.830879 542.652213 
L 271.184854 545.010626 
L 280.165883 547.839173 
L 290.791107 551.499647 
L 295.315229 553.024199 
" clip-path="url(#p956d066073)" style="fill: none; stroke-dasharray: 3.7,1.6; stroke-dashoffset: 0; stroke: #f29888"/>
    <path d="M 265.830879 542.652213 
L 272.177576 544.561773 
L 280.570469 546.968553 
L 291.242227 550.710285 
L 298.074944 553.182846 
L 299.458033 553.701348 
" clip-path="url(#p956d066073)" style="fill: none; stroke-dasharray: 3.7,1.6; stroke-dashoffset: 0; stroke: #f29888"/>
    <path d="M 258.004148 540.72911 
L 263.815706 541.568774 
L 268.012799 542.447133 
L 272.567943 543.813039 
L 277.968452 545.343396 
L 284.019143 547.034333 
L 287.891791 548.49891 
L 292.413328 550.222737 
L 298.074944 553.182846 
" clip-path="url(#p956d066073)" style="fill: none; stroke-dasharray: 3.7,1.6; stroke-dashoffset: 0; stroke: #f29888"/>
    <path d="M 249.709493 539.984246 
L 256.599085 542.60191 
L 260.112389 544.033596 
L 263.443435 545.542671 
" clip-path="url(#p956d066073)" style="fill: none; stroke-dasharray: 3.7,1.6; stroke-dashoffset: 0; stroke: #f29888"/>
    <path d="M 242.335174 536.434051 
L 249.709493 539.984246 
L 263.027216 546.401683 
" clip-path="url(#p956d066073)" style="fill: none; stroke-dasharray: 3.7,1.6; stroke-dashoffset: 0; stroke: #f29888"/>
    <path d="M 252.935838 539.434788 
L 243.352455 535.582778 
L 234.340404 531.777201 
L 229.264339 530.117219 
L 221.229498 527.124221 
L 213.931442 524.502687 
L 212.81463 524.173786 
L 210.817554 523.189018 
L 207.8898 521.691552 
L 199.821352 516.748365 
L 191.785218 511.737463 
L 185.799158 507.866106 
L 181.342251 505.068513 
L 179.032364 503.540092 
L 176.038688 501.94589 
L 173.891669 501.034641 
L 170.9316 499.86414 
L 167.905609 498.889046 
L 165.108409 498.074532 
L 162.342231 497.424469 
L 159.90179 496.969812 
L 157.494957 496.675736 
L 154.827018 496.546111 
L 152.4525 496.449375 
L 149.654007 496.449375 
L 146.303572 496.675736 
L 143.505079 497.165218 
L 141.032323 497.619875 
L 137.551334 498.69364 
L 135.078578 499.539109 
L 131.239538 501.003685 
L 123.269327 504.255935 
L 102.870706 513.819212 
L 98.02214 515.900961 
L 71.190218 528.021927 
" clip-path="url(#p956d066073)" style="fill: none; stroke-dasharray: 3.7,1.6; stroke-dashoffset: 0; stroke: #f29888"/>
    <path d="M 234.340404 531.777201 
L 242.962088 534.216872 
L 265.443097 539.844947 
L 269.11927 540.756196 
L 271.982393 541.406259 
L 280.109009 542.950158 
L 285.757698 543.133956 
L 291.084529 542.501305 
L 296.031333 541.501059 
L 300.67179 539.655345 
L 305.044677 537.587139 
L 308.355042 535.455087 
L 312.724051 531.639837 
L 317.757461 526.52446 
L 321.220353 521.387802 
L 323.799103 516.349814 
L 325.251992 512.712557 
L 326.783731 504.772503 
L 332.94817 473.962227 
L 337.368884 450.053066 
L 341.549173 431.971256 
L 345.270586 412.362958 
L 348.270726 397.461812 
L 351.524216 384.073611 
L 350.60905 370.832448 
L 351.038196 367.131345 
L 352.405773 355.34315 
L 354.146914 347.917729 
L 355.822132 341.715045 
L 358.262572 332.672205 
L 360.019224 325.875564 
L 361.938745 318.653287 
L 363.454972 312.059792 
L 365.175431 305.563032 
L 367.339254 297.512698 
L 369.950319 287.367073 
L 371.803916 280.251205 
" clip-path="url(#p956d066073)" style="fill: none; stroke-dasharray: 3.7,1.6; stroke-dashoffset: 0; stroke: #f29888"/>
   </g>
  </g>
 </g>
 <defs>
  <clipPath id="p956d066073">
   <rect x="7.2" y="7.2" width="576.703553" height="831.6"/>
  </clipPath>
 </defs>
</svg>
