<?xml version="1.0" encoding="utf-8" standalone="no"?>
<!DOCTYPE svg PUBLIC "-//W3C//DTD SVG 1.1//EN"
  "http://www.w3.org/Graphics/SVG/1.1/DTD/svg11.dtd">
<svg xmlns:xlink="http://www.w3.org/1999/xlink" width="851.4pt" height="826.876596pt" viewBox="0 0 851.4 826.876596" xmlns="http://www.w3.org/2000/svg" version="1.1">
 <metadata>
  <rdf:RDF xmlns:dc="http://purl.org/dc/elements/1.1/" xmlns:cc="http://creativecommons.org/ns#" xmlns:rdf="http://www.w3.org/1999/02/22-rdf-syntax-ns#">
   <cc:Work>
    <dc:type rdf:resource="http://purl.org/dc/dcmitype/StillImage"/>
    <dc:date>2025-03-16T14:38:36.636541</dc:date>
    <dc:format>image/svg+xml</dc:format>
    <dc:creator>
     <cc:Agent>
      <dc:title>Matplotlib v3.10.1, https://matplotlib.org/</dc:title>
     </cc:Agent>
    </dc:creator>
   </cc:Work>
  </rdf:RDF>
 </metadata>
 <defs>
  <style type="text/css">*{stroke-linejoin: round; stroke-linecap: butt}</style>
 </defs>
 <g id="figure_1">
  <g id="patch_1">
   <path d="M 0 826.876596 
L 851.4 826.876596 
L 851.4 0 
L 0 0 
z
" style="fill: #ffffff"/>
  </g>
  <g id="axes_1">
   <g id="PatchCollection_1">
    <path d="M 197.106736 572.35666 
L 205.172266 566.356633 
L 223.49496 591.494001 
L 226.979164 596.274414 
L 225.861196 608.858785 
L 216.523945 616.007837 
L 207.96849 622.556886 
L 219.711067 651.635448 
L 242.357093 676.804188 
L 256.056766 681.415974 
L 270.316727 683.6552 
L 284.576687 687.847375 
L 297.716073 687.427766 
L 308.061841 679.317925 
L 313.148728 693.435636 
L 318.965291 703.925879 
L 318.931413 782.745841 
L 321.083958 782.287016 
L 326.71289 781.11054 
L 354.951364 775.200709 
L 354.125266 773.134034 
L 354.054905 769.428134 
L 356.22048 767.051653 
L 361.255246 764.675172 
L 364.468428 762.298691 
L 368.593706 759.432011 
L 376.982378 755.306502 
L 441.240803 718.929868 
L 485.321072 682.392449 
L 545.81124 627.698085 
L 574.000201 500.623004 
L 572.415761 482.058214 
L 576.18923 477.866039 
L 597.719894 473.113076 
L 626.096485 472.971899 
L 688.585446 473.811118 
L 751.775416 484.015086 
L 797.487033 492.544536 
L 806.154545 484.575873 
L 804.47629 456.618884 
L 801.122385 449.207086 
L 784.347647 430.057981 
L 748.559629 391.057805 
L 713.191174 349.120362 
L 639.626769 264.167038 
L 508.188607 183.931383 
L 485.881359 176.911744 
L 486.720487 184.178443 
L 330.859015 177.833317 
L 325.954548 170.484264 
L 317.92029 156.194004 
L 289.051167 72.785785 
L 285.973496 62.86025 
L 277.305984 44.130754 
L 242.078253 53.358247 
L 223.625259 51.401375 
L 204.054297 56.150416 
L 192.170997 71.668133 
L 174.557132 82.150533 
L 108.153979 108.703594 
L 114.022661 118.766384 
L 72.644801 144.484147 
L 93.894018 155.664589 
L 82.709123 162.374423 
L 45.245455 394.410761 
L 53.63152 410.065734 
L 128.222684 395.332334 
L 130.362199 494.685722 
L 123.808142 527.360379 
L 141.424614 566.776243 
L 194.268817 574.466473 
L 197.106736 572.35666 
" clip-path="url(#pb39fa893eb)" style="fill: #fbd6c9"/>
   </g>
   <g id="PatchCollection_2">
    <path d="M 327.523352 727.271082 
L 327.83607 728.518147 
L 326.780645 728.780893 
L 327.507716 731.682867 
L 325.852914 732.098555 
L 324.813125 727.949517 
L 327.523352 727.271082 
" clip-path="url(#pb39fa893eb)" style="fill: #e6482f"/>
    <path d="M 309.846942 561.67818 
L 312.33566 565.109568 
L 299.308331 574.55667 
L 296.819614 571.125282 
L 309.846942 561.67818 
" clip-path="url(#pb39fa893eb)" style="fill: #e6482f"/>
    <path d="M 302.039406 522.274082 
L 303.681177 524.434876 
L 300.660839 526.732925 
L 299.019067 524.56821 
L 302.039406 522.274082 
" clip-path="url(#pb39fa893eb)" style="fill: #e6482f"/>
    <path d="M 311.288053 515.525032 
L 313.224302 518.434849 
L 310.292566 520.387799 
L 308.356318 517.47406 
L 311.288053 515.525032 
" clip-path="url(#pb39fa893eb)" style="fill: #e6482f"/>
    <path d="M 317.956774 510.901481 
L 319.593334 513.348551 
L 317.386063 514.826989 
L 315.749503 512.375998 
L 317.956774 510.901481 
" clip-path="url(#pb39fa893eb)" style="fill: #e6482f"/>
    <path d="M 329.410086 502.179874 
L 331.197793 504.458315 
L 329.175547 506.042636 
L 327.38784 503.764194 
L 329.410086 502.179874 
" clip-path="url(#pb39fa893eb)" style="fill: #e6482f"/>
    <path d="M 336.910117 496.834751 
L 338.546676 499.156331 
L 336.704244 500.454376 
L 335.067684 498.128875 
L 336.910117 496.834751 
" clip-path="url(#pb39fa893eb)" style="fill: #e6482f"/>
    <path d="M 298.091335 493.485717 
L 299.451661 495.564158 
L 297.155786 497.066125 
L 295.795461 494.991606 
L 298.091335 493.485717 
" clip-path="url(#pb39fa893eb)" style="fill: #e6482f"/>
    <path d="M 342.726679 493.077872 
L 344.256394 495.140626 
L 342.192452 496.670045 
L 340.662738 494.611212 
L 342.726679 493.077872 
" clip-path="url(#pb39fa893eb)" style="fill: #e6482f"/>
    <path d="M 348.173192 488.862167 
L 349.880114 491.026882 
L 347.620723 492.811204 
L 345.913801 490.642567 
L 348.173192 488.862167 
" clip-path="url(#pb39fa893eb)" style="fill: #e6482f"/>
    <path d="M 226.908803 577.007661 
L 228.615724 579.631202 
L 225.991495 581.337092 
L 224.28718 578.70963 
L 226.908803 577.007661 
" clip-path="url(#pb39fa893eb)" style="fill: #e6482f"/>
    <path d="M 232.694094 572.466464 
L 234.59907 575.172359 
L 232.509069 576.642954 
L 230.604092 573.937059 
L 232.694094 572.466464 
" clip-path="url(#pb39fa893eb)" style="fill: #e6482f"/>
    <path d="M 241.278215 567.078205 
L 242.635934 569.26645 
L 240.134186 570.815476 
L 238.776467 568.631153 
L 241.278215 567.078205 
" clip-path="url(#pb39fa893eb)" style="fill: #e6482f"/>
    <path d="M 246.875875 562.91348 
L 248.361287 564.976234 
L 245.765724 566.84291 
L 244.282918 564.780155 
L 246.875875 562.91348 
" clip-path="url(#pb39fa893eb)" style="fill: #e6482f"/>
    <path d="M 196.848744 558.838952 
L 198.696388 561.219355 
L 196.035676 563.289952 
L 194.185425 560.909549 
L 196.848744 558.838952 
" clip-path="url(#pb39fa893eb)" style="fill: #e6482f"/>
    <path d="M 209.51384 556.297764 
L 211.223367 558.372283 
L 209.003067 560.203664 
L 207.293539 558.129145 
L 209.51384 556.297764 
" clip-path="url(#pb39fa893eb)" style="fill: #e6482f"/>
    <path d="M 217.175442 551.136957 
L 218.913635 553.34481 
L 216.622972 555.148739 
L 214.884779 552.940886 
L 217.175442 551.136957 
" clip-path="url(#pb39fa893eb)" style="fill: #e6482f"/>
    <path d="M 202.529795 547.344783 
L 204.043874 549.654597 
L 202.141503 550.901661 
L 200.627425 548.587925 
L 202.529795 547.344783 
" clip-path="url(#pb39fa893eb)" style="fill: #e6482f"/>
    <path d="M 222.75486 547.058507 
L 224.453963 549.031065 
L 222.455171 550.748719 
L 220.758674 548.776162 
L 222.75486 547.058507 
" clip-path="url(#pb39fa893eb)" style="fill: #e6482f"/>
    <path d="M 212.078131 540.148672 
L 213.670389 542.17221 
L 211.225973 544.097709 
L 209.633715 542.070249 
L 212.078131 540.148672 
" clip-path="url(#pb39fa893eb)" style="fill: #e6482f"/>
    <path d="M 292.46501 573.870392 
L 295.016271 577.552762 
L 281.548531 586.878294 
L 278.997269 583.195924 
L 292.46501 573.870392 
" clip-path="url(#pb39fa893eb)" style="fill: #e6482f"/>
    <path d="M 279.23702 554.748737 
L 281.788281 558.078164 
L 269.527113 567.470363 
L 266.975852 564.144858 
L 279.23702 554.748737 
" clip-path="url(#pb39fa893eb)" style="fill: #e6482f"/>
    <path d="M 252.17124 557.748751 
L 253.601927 559.736995 
L 251.556227 561.211512 
L 250.122934 559.223267 
L 252.17124 557.748751 
" clip-path="url(#pb39fa893eb)" style="fill: #e6482f"/>
    <path d="M 258.428215 554.611482 
L 259.908415 556.866394 
L 257.172129 558.662481 
L 255.691928 556.41149 
L 258.428215 554.611482 
" clip-path="url(#pb39fa893eb)" style="fill: #e6482f"/>
    <path d="M 264.05454 549.889892 
L 265.837035 552.329119 
L 262.97045 554.427167 
L 261.185349 551.987941 
L 264.05454 549.889892 
" clip-path="url(#pb39fa893eb)" style="fill: #e6482f"/>
    <path d="M 297.554502 543.25849 
L 299.944192 546.772231 
L 286.810018 555.701683 
L 284.422934 552.187942 
L 297.554502 543.25849 
" clip-path="url(#pb39fa893eb)" style="fill: #e6482f"/>
    <path d="M 270.011826 545.634971 
L 271.789109 548.333022 
L 268.943372 550.207541 
L 267.166089 547.505568 
L 270.011826 545.634971 
" clip-path="url(#pb39fa893eb)" style="fill: #e6482f"/>
    <path d="M 275.635546 542.011425 
L 277.144413 544.007513 
L 274.757329 545.815364 
L 273.248462 543.819277 
L 275.635546 542.011425 
" clip-path="url(#pb39fa893eb)" style="fill: #e6482f"/>
    <path d="M 280.696373 537.034932 
L 283.015701 540.113378 
L 280.584315 541.944758 
L 278.264987 538.866313 
L 280.696373 537.034932 
" clip-path="url(#pb39fa893eb)" style="fill: #e6482f"/>
    <path d="M 288.587301 532.046675 
L 290.252527 534.568255 
L 288.071316 536.007477 
L 286.40609 533.485897 
L 288.587301 532.046675 
" clip-path="url(#pb39fa893eb)" style="fill: #e6482f"/>
    <path d="M 234.103933 539.10553 
L 235.39129 540.893773 
L 233.408134 542.321231 
L 232.120777 540.532987 
L 234.103933 539.10553 
" clip-path="url(#pb39fa893eb)" style="fill: #e6482f"/>
    <path d="M 215.958446 537.607484 
L 217.740941 539.709454 
L 215.5467 541.572208 
L 213.764205 539.466316 
L 215.958446 537.607484 
" clip-path="url(#pb39fa893eb)" style="fill: #e6482f"/>
    <path d="M 236.558772 535.850613 
L 237.937339 537.987878 
L 235.555467 539.52514 
L 234.1769 537.383953 
L 236.558772 535.850613 
" clip-path="url(#pb39fa893eb)" style="fill: #e6482f"/>
    <path d="M 242.200734 533.129032 
L 243.73566 535.305513 
L 241.491906 536.889834 
L 239.956979 534.709432 
L 242.200734 533.129032 
" clip-path="url(#pb39fa893eb)" style="fill: #e6482f"/>
    <path d="M 223.484536 532.023145 
L 224.842255 533.693741 
L 222.74183 535.403552 
L 221.38411 533.732957 
L 223.484536 532.023145 
" clip-path="url(#pb39fa893eb)" style="fill: #e6482f"/>
    <path d="M 248.181474 529.003524 
L 249.901425 531.427064 
L 247.652459 533.02315 
L 245.932507 530.599609 
L 248.181474 529.003524 
" clip-path="url(#pb39fa893eb)" style="fill: #e6482f"/>
    <path d="M 228.68348 527.532929 
L 230.387795 529.674115 
L 228.365549 531.281965 
L 226.661234 529.136858 
L 228.68348 527.532929 
" clip-path="url(#pb39fa893eb)" style="fill: #e6482f"/>
    <path d="M 188.110869 525.348605 
L 190.696009 528.936857 
L 188.348014 530.62706 
L 185.762875 527.038809 
L 188.110869 525.348605 
" clip-path="url(#pb39fa893eb)" style="fill: #e6482f"/>
    <path d="M 234.356713 523.646637 
L 235.980243 526.058412 
L 233.616613 527.650576 
L 231.993083 525.242722 
L 234.356713 523.646637 
" clip-path="url(#pb39fa893eb)" style="fill: #e6482f"/>
    <path d="M 194.816074 520.39172 
L 196.924317 523.16036 
L 193.97434 525.403507 
L 191.868703 522.634868 
L 194.816074 520.39172 
" clip-path="url(#pb39fa893eb)" style="fill: #e6482f"/>
    <path d="M 294.44556 527.772146 
L 296.311446 530.211372 
L 293.955634 532.01138 
L 292.089748 529.572154 
L 294.44556 527.772146 
" clip-path="url(#pb39fa893eb)" style="fill: #e6482f"/>
    <path d="M 253.893797 524.650563 
L 255.545993 526.925083 
L 253.573261 528.360383 
L 251.921065 526.085863 
L 253.893797 524.650563 
" clip-path="url(#pb39fa893eb)" style="fill: #e6482f"/>
    <path d="M 259.478427 520.666231 
L 261.200985 522.86232 
L 259.202193 524.430954 
L 257.479635 522.234866 
L 259.478427 520.666231 
" clip-path="url(#pb39fa893eb)" style="fill: #e6482f"/>
    <path d="M 265.508681 515.850523 
L 267.653408 518.528967 
L 264.786823 520.827016 
L 262.639489 518.144651 
L 265.508681 515.850523 
" clip-path="url(#pb39fa893eb)" style="fill: #e6482f"/>
    <path d="M 272.203461 511.336777 
L 273.863475 513.450512 
L 272.008012 514.909343 
L 270.347999 512.791686 
L 272.203461 511.336777 
" clip-path="url(#pb39fa893eb)" style="fill: #e6482f"/>
    <path d="M 255.559023 511.372072 
L 253.396054 513.144629 
L 251.524955 510.862266 
L 253.69053 509.089709 
L 255.559023 511.372072 
" clip-path="url(#pb39fa893eb)" style="fill: #e6482f"/>
    <path d="M 257.766294 506.760286 
L 259.3794 508.842649 
L 257.242491 510.497558 
L 255.629385 508.411274 
L 257.766294 506.760286 
" clip-path="url(#pb39fa893eb)" style="fill: #e6482f"/>
    <path d="M 280.693767 505.305378 
L 282.43196 507.324995 
L 280.86055 508.677942 
L 279.122357 506.658325 
L 280.693767 505.305378 
" clip-path="url(#pb39fa893eb)" style="fill: #e6482f"/>
    <path d="M 286.515542 501.246536 
L 288.196403 503.415173 
L 285.890105 505.203417 
L 284.211849 503.034779 
L 286.515542 501.246536 
" clip-path="url(#pb39fa893eb)" style="fill: #e6482f"/>
    <path d="M 268.823496 498.336719 
L 270.546054 500.407317 
L 268.422174 502.17203 
L 266.699617 500.101433 
L 268.823496 498.336719 
" clip-path="url(#pb39fa893eb)" style="fill: #e6482f"/>
    <path d="M 239.928313 519.168185 
L 241.679537 521.254469 
L 239.373238 523.191733 
L 237.622015 521.105449 
L 239.928313 519.168185 
" clip-path="url(#pb39fa893eb)" style="fill: #e6482f"/>
    <path d="M 199.8769 516.83092 
L 201.573398 519.03093 
L 199.056015 520.972115 
L 197.359517 518.776027 
L 199.8769 516.83092 
" clip-path="url(#pb39fa893eb)" style="fill: #e6482f"/>
    <path d="M 181.178944 515.152481 
L 182.958833 517.415236 
L 180.631687 519.250539 
L 178.849192 516.987783 
L 181.178944 515.152481 
" clip-path="url(#pb39fa893eb)" style="fill: #e6482f"/>
    <path d="M 246.11232 515.015225 
L 247.767122 517.085823 
L 245.593729 518.823086 
L 243.938927 516.752488 
L 246.11232 515.015225 
" clip-path="url(#pb39fa893eb)" style="fill: #e6482f"/>
    <path d="M 205.789885 512.450508 
L 207.444686 514.838754 
L 204.898637 516.603468 
L 203.243836 514.219143 
L 205.789885 512.450508 
" clip-path="url(#pb39fa893eb)" style="fill: #e6482f"/>
    <path d="M 187.084111 511.281875 
L 188.81188 513.662278 
L 186.586367 515.277972 
L 184.858598 512.893647 
L 187.084111 511.281875 
" clip-path="url(#pb39fa893eb)" style="fill: #e6482f"/>
    <path d="M 211.236397 509.383828 
L 213.159616 511.76423 
L 211.502208 513.105413 
L 209.576384 510.72501 
L 211.236397 509.383828 
" clip-path="url(#pb39fa893eb)" style="fill: #e6482f"/>
    <path d="M 192.726072 506.701463 
L 194.526809 509.125003 
L 192.030274 510.975992 
L 190.232143 508.552451 
L 192.726072 506.701463 
" clip-path="url(#pb39fa893eb)" style="fill: #e6482f"/>
    <path d="M 218.900605 502.991642 
L 220.513711 505.328907 
L 218.282986 506.866169 
L 216.672486 504.532825 
L 218.900605 502.991642 
" clip-path="url(#pb39fa893eb)" style="fill: #e6482f"/>
    <path d="M 203.937028 499.246527 
L 205.404199 501.37987 
L 203.308985 502.819092 
L 201.844421 500.685749 
L 203.937028 499.246527 
" clip-path="url(#pb39fa893eb)" style="fill: #e6482f"/>
    <path d="M 225.733503 497.921031 
L 227.557693 500.352414 
L 225.102854 502.19556 
L 223.278663 499.764176 
L 225.733503 497.921031 
" clip-path="url(#pb39fa893eb)" style="fill: #e6482f"/>
    <path d="M 209.433054 494.642585 
L 211.267669 497.187694 
L 209.083852 498.764172 
L 207.249237 496.219062 
L 209.433054 494.642585 
" clip-path="url(#pb39fa893eb)" style="fill: #e6482f"/>
    <path d="M 230.922023 493.956307 
L 232.660216 495.956316 
L 230.531125 497.811226 
L 228.792931 495.811217 
L 230.922023 493.956307 
" clip-path="url(#pb39fa893eb)" style="fill: #e6482f"/>
    <path d="M 241.46324 486.156272 
L 243.292643 488.348439 
L 241.038464 490.2308 
L 239.209061 488.042555 
L 241.46324 486.156272 
" clip-path="url(#pb39fa893eb)" style="fill: #e6482f"/>
    <path d="M 223.901494 483.885674 
L 225.866408 486.489607 
L 223.093638 488.579812 
L 221.13133 485.975879 
L 223.901494 483.885674 
" clip-path="url(#pb39fa893eb)" style="fill: #e6482f"/>
    <path d="M 228.766871 480.407227 
L 230.588456 482.86214 
L 228.104951 484.705285 
L 226.283366 482.250372 
L 228.766871 480.407227 
" clip-path="url(#pb39fa893eb)" style="fill: #e6482f"/>
    <path d="M 234.731975 476.364071 
L 236.410231 478.952318 
L 233.874606 480.595463 
L 232.19635 478.003294 
L 234.731975 476.364071 
" clip-path="url(#pb39fa893eb)" style="fill: #e6482f"/>
    <path d="M 246.034141 468.258152 
L 247.728032 470.536594 
L 245.43737 472.242484 
L 243.743478 469.964042 
L 246.034141 468.258152 
" clip-path="url(#pb39fa893eb)" style="fill: #e6482f"/>
    <path d="M 292.431132 497.230832 
L 293.973876 499.532803 
L 291.704062 501.054378 
L 290.161317 498.752407 
L 292.431132 497.230832 
" clip-path="url(#pb39fa893eb)" style="fill: #e6482f"/>
    <path d="M 274.93193 494.046504 
L 276.56849 496.415142 
L 273.912989 498.246523 
L 272.276429 495.877884 
L 274.93193 494.046504 
" clip-path="url(#pb39fa893eb)" style="fill: #e6482f"/>
    <path d="M 280.227295 490.395507 
L 281.733556 492.348457 
L 279.495013 494.077876 
L 277.988752 492.124926 
L 280.227295 490.395507 
" clip-path="url(#pb39fa893eb)" style="fill: #e6482f"/>
    <path d="M 285.116127 485.932742 
L 286.716203 488.195497 
L 284.000764 490.113153 
L 282.403294 487.854319 
L 285.116127 485.932742 
" clip-path="url(#pb39fa893eb)" style="fill: #e6482f"/>
    <path d="M 291.474735 481.646448 
L 292.913239 483.744497 
L 290.536579 485.371955 
L 289.100681 483.273906 
L 291.474735 481.646448 
" clip-path="url(#pb39fa893eb)" style="fill: #e6482f"/>
    <path d="M 253.291814 477.524861 
L 255.03522 479.775851 
L 252.744557 481.548408 
L 251.001152 479.297418 
L 253.291814 477.524861 
" clip-path="url(#pb39fa893eb)" style="fill: #e6482f"/>
    <path d="M 297.58838 477.230742 
L 299.297907 479.564086 
L 296.733616 481.442525 
L 295.024089 479.109182 
L 297.58838 477.230742 
" clip-path="url(#pb39fa893eb)" style="fill: #e6482f"/>
    <path d="M 259.100559 473.669941 
L 260.91172 475.995442 
L 258.912928 477.552312 
L 257.104373 475.22289 
L 259.100559 473.669941 
" clip-path="url(#pb39fa893eb)" style="fill: #e6482f"/>
    <path d="M 264.690401 469.607178 
L 266.504168 472.10915 
L 264.049328 473.88955 
L 262.235561 471.383657 
L 264.690401 469.607178 
" clip-path="url(#pb39fa893eb)" style="fill: #e6482f"/>
    <path d="M 251.543197 464.046369 
L 253.469021 466.630694 
L 251.066302 468.418937 
L 249.140477 465.83069 
L 251.543197 464.046369 
" clip-path="url(#pb39fa893eb)" style="fill: #e6482f"/>
    <path d="M 277.522281 463.587543 
L 274.697391 465.277747 
L 273.29537 462.93656 
L 276.12026 461.246356 
L 277.522281 463.587543 
" clip-path="url(#pb39fa893eb)" style="fill: #e6482f"/>
    <path d="M 257.445757 459.877722 
L 259.520123 462.458126 
L 257.362366 464.191467 
L 255.288 461.611064 
L 257.445757 459.877722 
" clip-path="url(#pb39fa893eb)" style="fill: #e6482f"/>
    <path d="M 263.267532 455.807116 
L 265.029179 458.262029 
L 262.13914 460.336548 
L 260.377493 457.881635 
L 263.267532 455.807116 
" clip-path="url(#pb39fa893eb)" style="fill: #e6482f"/>
    <path d="M 268.948584 452.191413 
L 270.54866 454.756131 
L 267.919219 456.399275 
L 266.316537 453.834558 
L 268.948584 452.191413 
" clip-path="url(#pb39fa893eb)" style="fill: #e6482f"/>
    <path d="M 272.260793 450.183561 
L 273.694086 452.442395 
L 271.682264 453.720832 
L 270.246365 451.458077 
L 272.260793 450.183561 
" clip-path="url(#pb39fa893eb)" style="fill: #e6482f"/>
    <path d="M 295.696434 447.136489 
L 297.213118 449.434538 
L 294.646221 451.132585 
L 293.12693 448.830614 
L 295.696434 447.136489 
" clip-path="url(#pb39fa893eb)" style="fill: #e6482f"/>
    <path d="M 289.353461 437.865859 
L 291.005657 439.905084 
L 288.308461 442.085486 
L 286.658871 440.046261 
L 289.353461 437.865859 
" clip-path="url(#pb39fa893eb)" style="fill: #e6482f"/>
    <path d="M 294.544587 432.465834 
L 296.621559 435.52075 
L 294.500286 436.959972 
L 292.423314 433.905057 
L 294.544587 432.465834 
" clip-path="url(#pb39fa893eb)" style="fill: #e6482f"/>
    <path d="M 311.53041 419.716758 
L 313.51096 422.305004 
L 310.527105 424.591289 
L 308.546555 422.003042 
L 311.53041 419.716758 
" clip-path="url(#pb39fa893eb)" style="fill: #e6482f"/>
    <path d="M 317.636237 415.422621 
L 319.436974 417.630474 
L 317.02383 419.59911 
L 315.223093 417.391257 
L 317.636237 415.422621 
" clip-path="url(#pb39fa893eb)" style="fill: #e6482f"/>
    <path d="M 340.691404 413.363788 
L 342.270632 415.497131 
L 339.961727 417.203021 
L 338.385105 415.073599 
L 340.691404 413.363788 
" clip-path="url(#pb39fa893eb)" style="fill: #e6482f"/>
    <path d="M 324.213748 410.850051 
L 325.701767 412.967708 
L 323.444982 414.55595 
L 321.954358 412.438293 
L 324.213748 410.850051 
" clip-path="url(#pb39fa893eb)" style="fill: #e6482f"/>
    <path d="M 346.205672 408.916709 
L 347.526907 410.771619 
L 345.71314 412.061821 
L 344.391905 410.206911 
L 346.205672 408.916709 
" clip-path="url(#pb39fa893eb)" style="fill: #e6482f"/>
    <path d="M 355.102511 402.469621 
L 356.788585 404.689239 
L 355.039968 406.018657 
L 353.3565 403.799039 
L 355.102511 402.469621 
" clip-path="url(#pb39fa893eb)" style="fill: #e6482f"/>
    <path d="M 308.830608 346.673292 
L 308.622129 350.379191 
L 298.48484 348.841929 
L 297.716073 351.845864 
L 295.8997 351.006645 
L 296.738828 344.928186 
L 308.830608 346.673292 
" clip-path="url(#pb39fa893eb)" style="fill: #e6482f"/>
    <path d="M 305.794633 286.292628 
L 304.697512 291.100493 
L 299.623656 289.947546 
L 300.71817 285.13576 
L 305.794633 286.292628 
" clip-path="url(#pb39fa893eb)" style="fill: #e6482f"/>
    <path d="M 396.238015 572.450778 
L 398.096084 575.25079 
L 395.56567 576.878249 
L 393.759721 574.164511 
L 396.238015 572.450778 
" clip-path="url(#pb39fa893eb)" style="fill: #e6482f"/>
    <path d="M 391.773959 571.289988 
L 394.252253 569.576255 
L 396.238015 572.450778 
L 393.759721 574.164511 
L 391.773959 571.289988 
" clip-path="url(#pb39fa893eb)" style="fill: #e6482f"/>
    <path d="M 409.776117 563.0625 
L 411.970358 565.956631 
L 409.273161 567.964483 
L 407.128434 565.054666 
L 409.776117 563.0625 
" clip-path="url(#pb39fa893eb)" style="fill: #e6482f"/>
    <path d="M 391.573298 564.552703 
L 388.967311 566.442908 
L 387.229118 564.07427 
L 389.71523 562.140928 
L 391.573298 564.552703 
" clip-path="url(#pb39fa893eb)" style="fill: #e6482f"/>
    <path d="M 405.16352 562.438968 
L 407.811203 560.446802 
L 409.776117 563.0625 
L 407.128434 565.054666 
L 405.16352 562.438968 
" clip-path="url(#pb39fa893eb)" style="fill: #e6482f"/>
    <path d="M 391.945954 560.423273 
L 393.804023 562.83897 
L 391.573298 564.552703 
L 389.71523 562.140928 
L 391.945954 560.423273 
" clip-path="url(#pb39fa893eb)" style="fill: #e6482f"/>
    <path d="M 401.348355 557.482083 
L 399.115024 559.011502 
L 397.29344 556.352666 
L 399.52677 554.823248 
L 401.348355 557.482083 
" clip-path="url(#pb39fa893eb)" style="fill: #e6482f"/>
    <path d="M 401.627196 553.333045 
L 403.5009 556.046783 
L 401.348355 557.482083 
L 399.52677 554.823248 
L 401.627196 553.333045 
" clip-path="url(#pb39fa893eb)" style="fill: #e6482f"/>
    <path d="M 360.210246 480.477815 
L 361.721718 482.654296 
L 359.556143 484.160185 
L 358.042065 481.987626 
L 360.210246 480.477815 
" clip-path="url(#pb39fa893eb)" style="fill: #e6482f"/>
    <path d="M 370.342323 472.360132 
L 371.947611 474.344454 
L 369.956637 475.952305 
L 368.351349 473.96406 
L 370.342323 472.360132 
" clip-path="url(#pb39fa893eb)" style="fill: #e6482f"/>
    <path d="M 304.825206 488.30138 
L 306.39401 490.430801 
L 303.371065 492.658262 
L 301.804867 490.528841 
L 304.825206 488.30138 
" clip-path="url(#pb39fa893eb)" style="fill: #e6482f"/>
    <path d="M 354.080964 484.254303 
L 356.030243 486.626862 
L 353.140203 489.003344 
L 351.190925 486.630784 
L 354.080964 484.254303 
" clip-path="url(#pb39fa893eb)" style="fill: #e6482f"/>
    <path d="M 315.942346 480.258206 
L 317.92029 482.819002 
L 315.866772 484.403323 
L 313.888828 481.842527 
L 315.942346 480.258206 
" clip-path="url(#pb39fa893eb)" style="fill: #e6482f"/>
    <path d="M 321.756303 475.822892 
L 323.481466 478.352315 
L 321.58952 479.642517 
L 319.864356 477.113094 
L 321.756303 475.822892 
" clip-path="url(#pb39fa893eb)" style="fill: #e6482f"/>
    <path d="M 327.067304 471.909149 
L 328.774225 474.215042 
L 326.434049 475.952305 
L 324.724522 473.646412 
L 327.067304 471.909149 
" clip-path="url(#pb39fa893eb)" style="fill: #e6482f"/>
    <path d="M 309.252777 469.309137 
L 310.613103 471.387578 
L 308.577827 472.720918 
L 307.217502 470.642477 
L 309.252777 469.309137 
" clip-path="url(#pb39fa893eb)" style="fill: #e6482f"/>
    <path d="M 314.746198 464.799313 
L 316.072645 466.654224 
L 313.742893 468.324819 
L 312.416446 466.469909 
L 314.746198 464.799313 
" clip-path="url(#pb39fa893eb)" style="fill: #e6482f"/>
    <path d="M 338.515405 463.583622 
L 339.951303 465.560101 
L 337.540765 467.31305 
L 336.104867 465.332649 
L 338.515405 463.583622 
" clip-path="url(#pb39fa893eb)" style="fill: #e6482f"/>
    <path d="M 320.312586 459.889487 
L 322.084657 462.583617 
L 320.083259 463.90127 
L 318.308582 461.20714 
L 320.312586 459.889487 
" clip-path="url(#pb39fa893eb)" style="fill: #e6482f"/>
    <path d="M 326.402777 456.458099 
L 327.575471 458.234578 
L 325.657465 459.50125 
L 324.487377 457.724772 
L 326.402777 456.458099 
" clip-path="url(#pb39fa893eb)" style="fill: #e6482f"/>
    <path d="M 376.096342 467.850307 
L 377.508787 469.673845 
L 375.37709 471.324833 
L 373.964645 469.501295 
L 376.096342 467.850307 
" clip-path="url(#pb39fa893eb)" style="fill: #e6482f"/>
    <path d="M 382.989177 463.669896 
L 384.292171 465.575787 
L 382.027568 467.124814 
L 380.724575 465.218923 
L 382.989177 463.669896 
" clip-path="url(#pb39fa893eb)" style="fill: #e6482f"/>
    <path d="M 388.654593 459.399289 
L 389.842923 461.30518 
L 387.455839 462.795383 
L 386.264903 460.889492 
L 388.654593 459.399289 
" clip-path="url(#pb39fa893eb)" style="fill: #e6482f"/>
    <path d="M 394.171467 455.238486 
L 395.615184 457.073788 
L 393.686754 458.591442 
L 392.243037 456.75614 
L 394.171467 455.238486 
" clip-path="url(#pb39fa893eb)" style="fill: #e6482f"/>
    <path d="M 405.593508 447.144332 
L 407.055467 449.148262 
L 404.613657 450.928663 
L 403.154304 448.924732 
L 405.593508 447.144332 
" clip-path="url(#pb39fa893eb)" style="fill: #e6482f"/>
    <path d="M 362.253339 445.516874 
L 363.77263 447.861982 
L 361.823352 449.128655 
L 360.301455 446.783546 
L 362.253339 445.516874 
" clip-path="url(#pb39fa893eb)" style="fill: #e6482f"/>
    <path d="M 411.767091 441.940387 
L 413.122204 443.850199 
L 410.860207 445.45805 
L 409.505094 443.548237 
L 411.767091 441.940387 
" clip-path="url(#pb39fa893eb)" style="fill: #e6482f"/>
    <path d="M 367.853605 441.018814 
L 369.451075 443.461962 
L 366.51934 445.379618 
L 364.92187 442.93647 
L 367.853605 441.018814 
" clip-path="url(#pb39fa893eb)" style="fill: #e6482f"/>
    <path d="M 416.955611 437.783505 
L 418.282058 439.634494 
L 416.416172 440.967834 
L 415.09233 439.120766 
L 416.955611 437.783505 
" clip-path="url(#pb39fa893eb)" style="fill: #e6482f"/>
    <path d="M 373.985493 436.587422 
L 375.418785 438.673706 
L 373.333996 440.105085 
L 371.900703 438.018801 
L 373.985493 436.587422 
" clip-path="url(#pb39fa893eb)" style="fill: #e6482f"/>
    <path d="M 350.177196 454.548287 
L 353.387772 458.873796 
L 351.654791 460.160077 
L 348.444215 455.834567 
L 350.177196 454.548287 
" clip-path="url(#pb39fa893eb)" style="fill: #e6482f"/>
    <path d="M 331.851896 451.979648 
L 333.319067 454.105148 
L 331.406272 455.4228 
L 329.941708 453.297301 
L 331.851896 451.979648 
" clip-path="url(#pb39fa893eb)" style="fill: #e6482f"/>
    <path d="M 355.175479 450.261993 
L 356.770343 452.242394 
L 355.131177 453.560047 
L 353.536313 451.579646 
L 355.175479 450.261993 
" clip-path="url(#pb39fa893eb)" style="fill: #e6482f"/>
    <path d="M 301.129916 443.297256 
L 302.469394 445.595305 
L 300.551387 446.712957 
L 299.209304 444.414908 
L 301.129916 443.297256 
" clip-path="url(#pb39fa893eb)" style="fill: #e6482f"/>
    <path d="M 312.794314 434.524667 
L 314.019128 436.556049 
L 311.757131 437.920761 
L 310.532317 435.889379 
L 312.794314 434.524667 
" clip-path="url(#pb39fa893eb)" style="fill: #e6482f"/>
    <path d="M 317.709205 431.042299 
L 318.905353 432.967798 
L 316.862259 434.238391 
L 315.666111 432.308971 
L 317.709205 431.042299 
" clip-path="url(#pb39fa893eb)" style="fill: #e6482f"/>
    <path d="M 300.38721 429.308958 
L 302.164493 431.775635 
L 299.803469 433.473682 
L 298.026186 431.010926 
L 300.38721 429.308958 
" clip-path="url(#pb39fa893eb)" style="fill: #e6482f"/>
    <path d="M 323.124446 426.148159 
L 324.74537 428.261894 
L 322.736154 429.803077 
L 321.11523 427.693264 
L 323.124446 426.148159 
" clip-path="url(#pb39fa893eb)" style="fill: #e6482f"/>
    <path d="M 305.854571 424.673643 
L 307.691791 427.340321 
L 305.031079 429.171702 
L 303.193858 426.505023 
L 305.854571 424.673643 
" clip-path="url(#pb39fa893eb)" style="fill: #e6482f"/>
    <path d="M 329.053066 421.991278 
L 330.587992 424.034424 
L 328.813315 425.363842 
L 327.280995 423.320695 
L 329.053066 421.991278 
" clip-path="url(#pb39fa893eb)" style="fill: #e6482f"/>
    <path d="M 379.27304 432.383481 
L 380.998203 434.748198 
L 378.720571 436.41095 
L 376.995407 434.046234 
L 379.27304 432.383481 
" clip-path="url(#pb39fa893eb)" style="fill: #e6482f"/>
    <path d="M 361.137977 430.869749 
L 362.508726 433.120739 
L 360.390059 434.410941 
L 359.01931 432.159951 
L 361.137977 430.869749 
" clip-path="url(#pb39fa893eb)" style="fill: #e6482f"/>
    <path d="M 422.571513 427.959932 
L 424.093409 429.528566 
L 422.318732 431.250143 
L 420.796836 429.681508 
L 422.571513 427.959932 
" clip-path="url(#pb39fa893eb)" style="fill: #e6482f"/>
    <path d="M 366.824241 426.724632 
L 368.309653 428.724641 
L 366.253529 430.25406 
L 364.765511 428.254051 
L 366.824241 426.724632 
" clip-path="url(#pb39fa893eb)" style="fill: #e6482f"/>
    <path d="M 387.891039 425.175606 
L 390.37715 428.571699 
L 387.776375 430.473669 
L 385.290264 427.077575 
L 387.891039 425.175606 
" clip-path="url(#pb39fa893eb)" style="fill: #e6482f"/>
    <path d="M 372.356751 422.544221 
L 373.949009 424.744231 
L 371.601015 426.442278 
L 370.008757 424.242268 
L 372.356751 422.544221 
" clip-path="url(#pb39fa893eb)" style="fill: #e6482f"/>
    <path d="M 378.379187 418.355967 
L 379.932355 420.4148 
L 377.894473 421.952062 
L 376.343911 419.893229 
L 378.379187 418.355967 
" clip-path="url(#pb39fa893eb)" style="fill: #e6482f"/>
    <path d="M 383.075175 414.834383 
L 384.847246 417.061844 
L 382.629551 418.826557 
L 380.854874 416.599096 
L 383.075175 414.834383 
" clip-path="url(#pb39fa893eb)" style="fill: #e6482f"/>
    <path d="M 409.075106 411.579466 
L 410.758574 413.830457 
L 408.848386 415.257914 
L 407.164918 413.006923 
L 409.075106 411.579466 
" clip-path="url(#pb39fa893eb)" style="fill: #e6482f"/>
    <path d="M 392.618299 408.210823 
L 393.947352 410.034361 
L 391.700992 411.673584 
L 390.371938 409.850046 
L 392.618299 408.210823 
" clip-path="url(#pb39fa893eb)" style="fill: #e6482f"/>
    <path d="M 413.567828 407.748076 
L 415.545772 410.140244 
L 413.479224 411.846134 
L 411.50128 409.453966 
L 413.567828 407.748076 
" clip-path="url(#pb39fa893eb)" style="fill: #e6482f"/>
    <path d="M 395.768937 405.740224 
L 397.426345 408.026509 
L 395.518762 409.410829 
L 393.861355 407.124544 
L 395.768937 405.740224 
" clip-path="url(#pb39fa893eb)" style="fill: #e6482f"/>
    <path d="M 403.404479 399.465686 
L 404.874256 401.532362 
L 402.601835 403.148056 
L 401.132058 401.08138 
L 403.404479 399.465686 
" clip-path="url(#pb39fa893eb)" style="fill: #e6482f"/>
    <path d="M 361.708688 397.64607 
L 363.201919 399.82255 
L 361.062403 401.289224 
L 359.569173 399.112743 
L 361.708688 397.64607 
" clip-path="url(#pb39fa893eb)" style="fill: #e6482f"/>
    <path d="M 369.591799 392.065653 
L 371.004244 394.124486 
L 368.898606 395.571551 
L 367.483555 393.512718 
L 369.591799 392.065653 
" clip-path="url(#pb39fa893eb)" style="fill: #e6482f"/>
    <path d="M 375.663748 387.920536 
L 377.123101 390.17937 
L 374.983586 391.559768 
L 373.524233 389.304856 
L 375.663748 387.920536 
" clip-path="url(#pb39fa893eb)" style="fill: #e6482f"/>
    <path d="M 383.781397 381.422468 
L 385.316324 383.8264 
L 382.671247 385.512682 
L 381.136321 383.112671 
L 383.781397 381.422468 
" clip-path="url(#pb39fa893eb)" style="fill: #e6482f"/>
   </g>
   <g id="LineCollection_1">
    <path d="M 320.419431 726.32598 
L 320.294344 731.643651 
L 320.294344 734.612292 
L 320.25786 736.290731 
L 320.338646 749.63981 
L 320.956265 776.690912 
L 321.083958 782.287016 
" clip-path="url(#pb39fa893eb)" style="fill: none; stroke: #e6482f; stroke-width: 0.2"/>
    <path d="M 320.25786 736.290731 
L 327.075122 736.047592 
L 326.410595 740.76526 
L 320.338646 749.63981 
" clip-path="url(#pb39fa893eb)" style="fill: none; stroke: #e6482f; stroke-width: 0.2"/>
    <path d="M 411.123412 628.239264 
L 324.643736 690.714055 
L 322.256652 694.317993 
L 320.041563 699.945469 
L 320.208346 708.45139 
" clip-path="url(#pb39fa893eb)" style="fill: none; stroke: #e6482f; stroke-width: 0.2"/>
    <path d="M 305.802451 675.223789 
L 311.663315 673.164956 
L 354.719431 644.79228 
" clip-path="url(#pb39fa893eb)" style="fill: none; stroke: #e6482f; stroke-width: 0.2"/>
    <path d="M 301.025677 662.184515 
L 366.660063 612.745077 
" clip-path="url(#pb39fa893eb)" style="fill: none; stroke: #e6482f; stroke-width: 0.2"/>
    <path d="M 377.417577 629.011817 
L 366.660063 612.745077 
L 348.772569 585.701818 
L 345.483814 580.301794 
" clip-path="url(#pb39fa893eb)" style="fill: none; stroke: #e6482f; stroke-width: 0.2"/>
    <path d="M 411.123412 628.239264 
L 369.66216 569.576255 
" clip-path="url(#pb39fa893eb)" style="fill: none; stroke: #e6482f; stroke-width: 0.2"/>
    <path d="M 499.69309 568.266445 
L 411.123412 628.239264 
" clip-path="url(#pb39fa893eb)" style="fill: none; stroke: #e6482f; stroke-width: 0.2"/>
    <path d="M 402.213543 547.117331 
L 417.369963 569.015468 
" clip-path="url(#pb39fa893eb)" style="fill: none; stroke: #e6482f; stroke-width: 0.2"/>
    <path d="M 318.93394 776.866732 
L 320.956265 776.690912 
" clip-path="url(#pb39fa893eb)" style="fill: none; stroke: #e6482f; stroke-width: 0.2"/>
    <path d="M 223.49496 591.494001 
L 227.119888 586.419468 
" clip-path="url(#pb39fa893eb)" style="fill: none; stroke: #e6482f; stroke-width: 0.2"/>
    <path d="M 320.208346 708.45139 
L 320.419431 726.32598 
" clip-path="url(#pb39fa893eb)" style="fill: none; stroke: #e6482f; stroke-width: 0.2"/>
    <path d="M 315.278135 697.276047 
L 318.047983 695.600351 
L 322.256652 694.317993 
" clip-path="url(#pb39fa893eb)" style="fill: none; stroke: #e6482f; stroke-width: 0.2"/>
    <path d="M 320.208346 708.45139 
L 318.96406 706.789181 
" clip-path="url(#pb39fa893eb)" style="fill: none; stroke: #e6482f; stroke-width: 0.2"/>
    <path d="M 306.430178 680.596954 
L 305.802451 675.223789 
L 305.661727 674.023784 
L 304.059046 666.768849 
L 301.025677 662.184515 
L 283.177272 633.117717 
L 269.488023 617.482353 
L 257.284186 599.568547 
L 253.925069 594.635191 
L 249.75549 588.286143 
L 241.447604 575.642949 
" clip-path="url(#pb39fa893eb)" style="fill: none; stroke: #e6482f; stroke-width: 0.2"/>
    <path d="M 257.563027 649.7374 
L 283.177272 633.117717 
L 348.772569 585.701818 
" clip-path="url(#pb39fa893eb)" style="fill: none; stroke: #e6482f; stroke-width: 0.2"/>
    <path d="M 257.284186 599.568547 
L 263.608917 595.05088 
L 268.05473 592.592045 
L 273.034771 595.490097 
L 275.158651 597.768539 
L 277.592642 600.380315 
L 278.780972 604.039155 
L 278.88 607.901918 
L 278.186807 613.443119 
L 274.327341 616.90588 
" clip-path="url(#pb39fa893eb)" style="fill: none; stroke: #e6482f; stroke-width: 0.2"/>
    <path d="M 230.583244 583.509651 
L 235.701403 583.450827 
L 239.11264 584.117497 
L 243.274401 585.697896 
L 249.75549 588.286143 
" clip-path="url(#pb39fa893eb)" style="fill: none; stroke: #e6482f; stroke-width: 0.2"/>
    <path d="M 293.91915 569.517431 
L 300.754654 579.721399 
" clip-path="url(#pb39fa893eb)" style="fill: none; stroke: #e6482f; stroke-width: 0.2"/>
    <path d="M 227.119888 586.419468 
L 202.495917 555.987959 
" clip-path="url(#pb39fa893eb)" style="fill: none; stroke: #e6482f; stroke-width: 0.2"/>
    <path d="M 349.541335 541.105539 
L 300.754654 579.721399 
L 275.158651 597.768539 
" clip-path="url(#pb39fa893eb)" style="fill: none; stroke: #e6482f; stroke-width: 0.2"/>
    <path d="M 329.105186 512.191683 
L 241.447604 575.642949 
L 230.583244 583.509651 
L 227.119888 586.419468 
" clip-path="url(#pb39fa893eb)" style="fill: none; stroke: #e6482f; stroke-width: 0.2"/>
    <path d="M 180.879256 523.211341 
L 181.689718 531.921184 
L 184.345218 538.846705 
L 189.426893 546.238895 
L 202.495917 555.987959 
" clip-path="url(#pb39fa893eb)" style="fill: none; stroke: #e6482f; stroke-width: 0.2"/>
    <path d="M 202.495917 555.987959 
L 306.250681 480.658208 
L 390.611689 418.88146 
L 391.641054 418.128515 
L 413.135234 402.359817 
" clip-path="url(#pb39fa893eb)" style="fill: none; stroke: #e6482f; stroke-width: 0.2"/>
    <path d="M 53.614159 410.033323 
L 100.474135 389.281327 
L 165.78538 360.673355 
L 185.280768 354.273326 
L 220.143661 353.622343 
" clip-path="url(#pb39fa893eb)" style="fill: none; stroke: #e6482f; stroke-width: 0.2"/>
    <path d="M 367.778032 384.234245 
L 348.816871 399.210783 
L 342.935158 403.857863 
L 285.95786 448.858065 
L 254.375905 472.328759 
L 236.126178 485.269994 
L 180.879256 523.211341 
" clip-path="url(#pb39fa893eb)" style="fill: none; stroke: #e6482f; stroke-width: 0.2"/>
    <path d="M 220.143661 353.622343 
L 263.280562 415.152031 
L 285.95786 448.858065 
L 306.250681 480.658208 
L 329.105186 512.191683 
L 331.447968 515.505424 
" clip-path="url(#pb39fa893eb)" style="fill: none; stroke: #e6482f; stroke-width: 0.2"/>
    <path d="M 263.280562 415.152031 
L 266.402535 408.391216 
L 270.595567 402.51668 
L 281.149815 391.893103 
L 290.586093 385.465623 
L 309.878214 393.293109 
L 321.06311 396.787243 
L 327.213239 399.022547 
L 333.782932 400.979418 
L 342.935158 403.857863 
" clip-path="url(#pb39fa893eb)" style="fill: none; stroke: #e6482f; stroke-width: 0.2"/>
    <path d="M 324.557739 367.849858 
L 299.115488 358.904719 
L 280.941336 348.281142 
L 264.724279 349.120362 
L 261.928055 373.720472 
L 266.402535 408.391216 
" clip-path="url(#pb39fa893eb)" style="fill: none; stroke: #e6482f; stroke-width: 0.2"/>
    <path d="M 331.447968 515.505424 
L 349.541335 541.105539 
L 369.66216 569.576255 
" clip-path="url(#pb39fa893eb)" style="fill: none; stroke: #e6482f; stroke-width: 0.2"/>
    <path d="M 369.66216 569.576255 
L 402.213543 547.117331 
L 459.188235 507.803428 
" clip-path="url(#pb39fa893eb)" style="fill: none; stroke: #e6482f; stroke-width: 0.2"/>
    <path d="M 331.447968 515.505424 
L 351.250863 501.803401 
L 387.393295 474.920927 
L 414.886457 454.320835 
L 419.272333 451.038467 
" clip-path="url(#pb39fa893eb)" style="fill: none; stroke: #e6482f; stroke-width: 0.2"/>
    <path d="M 459.188235 507.803428 
L 442.463011 484.019008 
L 419.272333 451.038467 
" clip-path="url(#pb39fa893eb)" style="fill: none; stroke: #e6482f; stroke-width: 0.2"/>
    <path d="M 462.763649 469.654237 
L 442.463011 484.019008 
" clip-path="url(#pb39fa893eb)" style="fill: none; stroke: #e6482f; stroke-width: 0.2"/>
    <path d="M 391.641054 418.128515 
L 414.886457 454.320835 
" clip-path="url(#pb39fa893eb)" style="fill: none; stroke: #e6482f; stroke-width: 0.2"/>
    <path d="M 331.268155 326.194768 
L 342.101243 334.861474 
L 380.406644 362.610618 
L 408.853598 382.740121 
L 437.581997 403.704921 
L 458.411651 418.175574 
L 490.775402 442.779606 
L 525.932772 467.242461 
L 559.695938 491.634728 
" clip-path="url(#pb39fa893eb)" style="fill: none; stroke: #e6482f; stroke-width: 0.2"/>
    <path d="M 367.778032 384.234245 
L 378.947292 401.100988 
L 390.611689 418.88146 
" clip-path="url(#pb39fa893eb)" style="fill: none; stroke: #e6482f; stroke-width: 0.2"/>
    <path d="M 392.339458 351.743903 
L 395.64385 351.928217 
L 411.347527 355.159604 
L 426.123473 359.892959 
L 438.246524 365.665534 
L 451.524027 373.053803 
L 464.454934 383.214633 
L 486.736123 402.724524 
L 510.867562 423.391284 
L 520.449775 436.552127 
" clip-path="url(#pb39fa893eb)" style="fill: none; stroke: #e6482f; stroke-width: 0.2"/>
    <path d="M 376.276155 377.524411 
L 367.778032 384.234245 
" clip-path="url(#pb39fa893eb)" style="fill: none; stroke: #e6482f; stroke-width: 0.2"/>
    <path d="M 220.143661 353.622343 
L 224.482629 348.849772 
L 235.995879 338.590902 
L 258.391731 328.959487 
L 271.648386 326.579084 
" clip-path="url(#pb39fa893eb)" style="fill: none; stroke: #e6482f; stroke-width: 0.2"/>
    <path d="M 220.143661 353.622343 
L 201.211166 325.955551 
L 185.444945 324.579075 
" clip-path="url(#pb39fa893eb)" style="fill: none; stroke: #e6482f; stroke-width: 0.2"/>
    <path d="M 264.724279 349.120362 
L 271.648386 326.579084 
L 277.866271 305.92801 
" clip-path="url(#pb39fa893eb)" style="fill: none; stroke: #e6482f; stroke-width: 0.2"/>
    <path d="M 277.866271 305.92801 
L 288.141677 307.743705 
L 303.378883 312.916277 
L 331.268155 326.194768 
" clip-path="url(#pb39fa893eb)" style="fill: none; stroke: #e6482f; stroke-width: 0.2"/>
    <path d="M 278.94515 297.088755 
L 298.557807 292.963246 
L 304.939869 294.963255 
L 311.819675 301.469167 
L 321.454008 306.222129 
L 328.086245 315.731976 
L 331.268155 326.194768 
" clip-path="url(#pb39fa893eb)" style="fill: none; stroke: #e6482f; stroke-width: 0.2"/>
    <path d="M 277.866271 305.92801 
L 279.28914 300.967204 
L 278.94515 297.088755 
L 277.913179 285.453408 
L 272.406728 273.320021 
L 273.907777 267.316072 
L 276.91248 265.312141 
L 279.539315 262.186637 
L 279.414227 254.55523 
L 280.164751 251.676786 
L 282.416324 249.551286 
L 297.306933 243.668907 
L 310.693888 240.04144 
L 318.326824 234.661023 
L 326.710284 233.535528 
L 336.71988 236.664954 
L 339.09654 239.417907 
L 332.466909 275.32003 
L 331.088342 296.963264 
L 331.268155 326.194768 
" clip-path="url(#pb39fa893eb)" style="fill: none; stroke: #e6482f; stroke-width: 0.2"/>
    <path d="M 331.268155 326.194768 
L 354.659494 339.230121 
L 366.024203 345.128187 
L 370.013968 347.194863 
L 387.333358 351.46547 
L 392.339458 351.743903 
" clip-path="url(#pb39fa893eb)" style="fill: none; stroke: #e6482f; stroke-width: 0.2"/>
    <path d="M 392.339458 351.743903 
L 394.989747 340.288949 
L 410.534459 304.022119 
L 423.926626 276.751409 
L 428.130083 263.167034 
L 436.977408 224.402153 
" clip-path="url(#pb39fa893eb)" style="fill: none; stroke: #e6482f; stroke-width: 0.2"/>
    <path d="M 366.024203 345.128187 
L 369.083631 338.13992 
L 375.241578 310.57509 
L 377.685994 281.735745 
L 380.521308 249.774817 
L 382.770274 230.810025 
L 382.574825 216.637413 
" clip-path="url(#pb39fa893eb)" style="fill: none; stroke: #e6482f; stroke-width: 0.2"/>
    <path d="M 545.542823 515.552483 
L 519.767007 549.344792 
L 499.69309 568.266445 
" clip-path="url(#pb39fa893eb)" style="fill: none; stroke: #e6482f; stroke-width: 0.2"/>
    <path d="M 459.188235 507.803428 
L 499.69309 568.266445 
" clip-path="url(#pb39fa893eb)" style="fill: none; stroke: #e6482f; stroke-width: 0.2"/>
    <path d="M 573.786068 501.588307 
L 559.695938 491.634728 
" clip-path="url(#pb39fa893eb)" style="fill: none; stroke: #e6482f; stroke-width: 0.2"/>
    <path d="M 462.763649 469.654237 
L 519.767007 549.344792 
" clip-path="url(#pb39fa893eb)" style="fill: none; stroke: #e6482f; stroke-width: 0.2"/>
    <path d="M 545.542823 515.552483 
L 490.355838 453.120829 
" clip-path="url(#pb39fa893eb)" style="fill: none; stroke: #e6482f; stroke-width: 0.2"/>
    <path d="M 728.063541 478.618983 
L 720.670357 478.007216 
L 706.759598 475.281713 
L 693.130287 474.509161 
L 692.629969 474.464231 
" clip-path="url(#pb39fa893eb)" style="fill: none; stroke: #e6482f; stroke-width: 0.2"/>
    <path d="M 684.789459 473.760139 
L 673.697442 472.764055 
L 667.476951 472.532681 
L 664.261164 472.415034 
L 649.654607 471.924836 
L 607.085811 471.646403 
L 601.003437 471.575814 
L 595.20251 469.548354 
L 590.311073 466.822852 
L 579.824581 458.575756 
" clip-path="url(#pb39fa893eb)" style="fill: none; stroke: #e6482f; stroke-width: 0.2"/>
    <path d="M 661.256461 464.654215 
L 665.170653 469.548354 
L 667.476951 472.532681 
" clip-path="url(#pb39fa893eb)" style="fill: none; stroke: #e6482f; stroke-width: 0.2"/>
    <path d="M 561.791152 452.771808 
L 572.415761 455.567899 
L 579.824581 458.575756 
L 585.276306 460.669883 
L 590.17035 461.858124 
L 595.762797 462.489499 
" clip-path="url(#pb39fa893eb)" style="fill: none; stroke: #e6482f; stroke-width: 0.2"/>
    <path d="M 655.976731 421.885395 
L 654.056119 422.579515 
L 648.395915 426.771691 
L 634.555519 435.787418 
L 630.542299 439.461944 
L 622.078053 445.065891 
L 595.762797 462.489499 
L 590.311073 466.822852 
L 581.573199 472.693466 
L 570.807867 480.732718 
L 562.838759 486.74451 
" clip-path="url(#pb39fa893eb)" style="fill: none; stroke: #e6482f; stroke-width: 0.2"/>
    <path d="M 805.468716 485.206405 
L 805.456141 485.066071 
L 804.617013 472.834644 
L 804.382474 470.003258 
" clip-path="url(#pb39fa893eb)" style="fill: none; stroke: #e6482f; stroke-width: 0.2"/>
    <path d="M 805.456141 485.066071 
L 801.471587 487.022943 
L 794.623053 490.795509 
L 792.185702 491.555347 
" clip-path="url(#pb39fa893eb)" style="fill: none; stroke: #e6482f; stroke-width: 0.2"/>
    <path d="M 736.44321 481.539229 
L 728.063541 478.618983 
L 724.094623 477.238585 
L 716.3366 472.764055 
" clip-path="url(#pb39fa893eb)" style="fill: none; stroke: #e6482f; stroke-width: 0.2"/>
    <path d="M 680.230651 462.026752 
L 692.325037 467.31305 
" clip-path="url(#pb39fa893eb)" style="fill: none; stroke: #e6482f; stroke-width: 0.2"/>
    <path d="M 675.654538 465.807161 
L 678.450762 464.132644 
L 680.230651 462.026752 
" clip-path="url(#pb39fa893eb)" style="fill: none; stroke: #e6482f; stroke-width: 0.2"/>
    <path d="M 630.542299 439.461944 
L 632.24922 443.967847 
L 632.825143 446.316877 
L 633.857114 450.536504 
L 635.183562 452.352198 
L 638.610434 454.450247 
L 643.082308 456.897317 
L 648.872811 459.485564 
L 656.013215 461.720868 
L 661.256461 464.654215 
L 669.712888 465.7052 
L 675.654538 465.807161 
L 679.149167 466.018927 
L 692.325037 467.31305 
L 696.442496 468.383643 
L 704.768624 470.630712 
L 716.3366 472.764055 
" clip-path="url(#pb39fa893eb)" style="fill: none; stroke: #e6482f; stroke-width: 0.2"/>
    <path d="M 804.382474 470.003258 
L 790.568138 469.826787 
L 771.067538 466.191476 
L 756.109173 461.579691 
L 739.193712 453.054162 
L 723.315433 445.399226 
L 702.35548 435.301141 
L 696.856848 432.916817 
L 682.995604 426.912868 
L 674.466208 423.767756 
L 667.826154 422.650104 
L 657.342268 421.391275 
L 655.976731 421.885395 
" clip-path="url(#pb39fa893eb)" style="fill: none; stroke: #e6482f; stroke-width: 0.2"/>
    <path d="M 756.109173 461.579691 
L 759.184237 459.273798 
L 763.028068 453.403184 
L 768.969718 443.336472 
L 779.166945 426.657965 
" clip-path="url(#pb39fa893eb)" style="fill: none; stroke: #e6482f; stroke-width: 0.2"/>
    <path d="M 723.315433 445.399226 
L 735.209158 425.163841 
L 746.951735 404.893161 
L 750.691326 399.967649 
L 752.294008 397.528422 
" clip-path="url(#pb39fa893eb)" style="fill: none; stroke: #e6482f; stroke-width: 0.2"/>
    <path d="M 696.856848 432.916817 
L 702.636927 424.081483 
L 714.238781 401.681382 
L 724.933751 383.787184 
L 731.334055 373.183215 
" clip-path="url(#pb39fa893eb)" style="fill: none; stroke: #e6482f; stroke-width: 0.2"/>
    <path d="M 655.976731 421.885395 
L 658.809439 417.336355 
L 663.982323 411.46574 
L 668.806005 402.728446 
L 674.257729 394.48135 
L 681.66655 382.598944 
" clip-path="url(#pb39fa893eb)" style="fill: none; stroke: #e6482f; stroke-width: 0.2"/>
    <path d="M 804.382474 470.003258 
L 803.98897 465.215001 
L 802.730279 455.218878 
L 799.689092 449.383558 
L 786.617462 435.195259 
L 779.166945 426.657965 
L 772.219384 418.701067 
L 766.103132 412.724569 
L 754.884359 400.422553 
L 752.294008 397.528422 
L 742.862941 387.002885 
L 734.578509 376.728329 
L 731.334055 373.183215 
L 719.797351 360.583158 
L 710.603429 349.959581 
L 662.65327 295.861298 
L 655.174087 287.547536 
L 649.933448 283.492615 
L 632.108497 273.359236 
L 622.883303 268.257253 
L 612.117971 263.994488 
L 598.559021 259.519959 
L 593.73534 258.716033 
L 590.136472 259.135643 
" clip-path="url(#pb39fa893eb)" style="fill: none; stroke: #e6482f; stroke-width: 0.2"/>
    <path d="M 716.3366 472.764055 
L 708.83657 467.218932 
L 699.408109 461.60322 
L 690.719749 460.544392 
L 680.230651 462.026752 
L 664.446189 457.47379 
L 655.734374 454.242403 
L 649.722363 450.395327 
L 641.125212 443.199216 
L 630.542299 439.461944 
L 624.139389 437.046247 
L 616.243249 436.207028 
L 606.525523 435.614868 
L 603.171618 435.650163 
L 584.718625 432.712894 
L 571.717356 431.736419 
L 563.888971 432.712894 
L 557.473032 434.669766 
" clip-path="url(#pb39fa893eb)" style="fill: none; stroke: #e6482f; stroke-width: 0.2"/>
    <path d="M 622.078053 445.065891 
L 624.770038 444.646281 
L 627.915464 444.454124 
L 629.87256 444.787459 
L 632.825143 446.316877 
" clip-path="url(#pb39fa893eb)" style="fill: none; stroke: #e6482f; stroke-width: 0.2"/>
    <path d="M 561.791152 452.771808 
L 548.930606 450.116894 
L 537.047306 443.618826 
L 520.449775 436.552127 
" clip-path="url(#pb39fa893eb)" style="fill: none; stroke: #e6482f; stroke-width: 0.2"/>
    <path d="M 651.611703 377.218527 
L 645.915016 389.516622 
L 640.635286 395.704885 
L 632.108497 403.218644 
L 624.491197 408.842199 
L 619.875994 411.187307 
L 617.499334 414.853991 
L 609.147146 430.336413 
L 606.525523 435.614868 
" clip-path="url(#pb39fa893eb)" style="fill: none; stroke: #e6482f; stroke-width: 0.2"/>
    <path d="M 560.949418 393.81468 
L 565.28578 392.312713 
L 567.943887 391.893103 
L 572.345399 392.524478 
L 601.879049 400.073532 
L 608.344502 401.332361 
" clip-path="url(#pb39fa893eb)" style="fill: none; stroke: #e6482f; stroke-width: 0.2"/>
    <path d="M 651.611703 377.218527 
L 649.09432 377.845981 
L 642.383903 376.587152 
L 598.837862 364.496901 
L 573.395612 357.716479 
L 569.963527 357.551772 
" clip-path="url(#pb39fa893eb)" style="fill: none; stroke: #e6482f; stroke-width: 0.2"/>
    <path d="M 556.897109 400.630397 
L 560.394343 395.669591 
L 560.949418 393.81468 
L 562.421801 388.924462 
L 567.943887 367.500836 
L 569.830622 358.277265 
L 569.963527 357.551772 
L 572.694601 342.830137 
L 574.583942 330.1791 
L 576.051112 326.057513 
L 578.148932 324.516329 
L 580.173784 324.308485 
L 586.045072 326.265357 
L 617.499334 333.743822 
L 640.916733 340.873266 
L 663.422036 346.814469 
L 665.449494 348.77134 
L 666.009781 350.238014 
L 665.241015 353.104693 
L 659.997769 362.889051 
L 651.611703 377.218527 
" clip-path="url(#pb39fa893eb)" style="fill: none; stroke: #e6482f; stroke-width: 0.2"/>
    <path d="M 520.449775 436.552127 
L 525.067584 406.881406 
L 531.186442 371.438109 
L 535.689587 331.841852 
L 539.267607 297.32405 
L 543.07756 270.543538 
L 546.134383 253.649344 
L 545.224893 246.798333 
L 541.172583 240.719874 
" clip-path="url(#pb39fa893eb)" style="fill: none; stroke: #e6482f; stroke-width: 0.2"/>
    <path d="M 500.875236 181.630013 
L 501.957692 186.907867 
L 504.545437 194.315744 
L 509.64796 202.629507 
L 518.664674 215.280544 
L 529.497762 227.511971 
L 541.172583 240.719874 
L 548.719522 245.472836 
L 555.711384 247.849318 
L 585.906955 256.025825 
L 588.421732 257.178772 
L 590.136472 259.135643 
L 590.55343 260.986632 
L 590.55343 263.645467 
L 575.282346 311.798625 
L 565.28578 346.116426 
L 559.763694 380.500895 
L 556.897109 400.630397 
L 555.849502 407.971607 
L 555.429938 416.218703 
L 556.130948 425.442273 
L 557.473032 434.669766 
L 557.736236 436.489382 
L 561.791152 452.771808 
L 563.539769 482.619001 
L 562.838759 486.74451 
L 559.695938 491.634728 
L 555.919863 498.975938 
L 550.94764 508.470098 
L 545.542823 515.552483 
" clip-path="url(#pb39fa893eb)" style="fill: none; stroke: #e6482f; stroke-width: 0.2"/>
   </g>
  </g>
 </g>
 <defs>
  <clipPath id="pb39fa893eb">
   <rect x="7.2" y="7.2" width="837" height="812.476596"/>
  </clipPath>
 </defs>
</svg>
