<?xml version="1.0" encoding="utf-8" standalone="no"?>
<!DOCTYPE svg PUBLIC "-//W3C//DTD SVG 1.1//EN"
  "http://www.w3.org/Graphics/SVG/1.1/DTD/svg11.dtd">
<svg xmlns:xlink="http://www.w3.org/1999/xlink" width="851.4pt" height="511.566827pt" viewBox="0 0 851.4 511.566827" xmlns="http://www.w3.org/2000/svg" version="1.1">
 <metadata>
  <rdf:RDF xmlns:dc="http://purl.org/dc/elements/1.1/" xmlns:cc="http://creativecommons.org/ns#" xmlns:rdf="http://www.w3.org/1999/02/22-rdf-syntax-ns#">
   <cc:Work>
    <dc:type rdf:resource="http://purl.org/dc/dcmitype/StillImage"/>
    <dc:date>2025-03-16T14:38:38.589463</dc:date>
    <dc:format>image/svg+xml</dc:format>
    <dc:creator>
     <cc:Agent>
      <dc:title>Matplotlib v3.10.1, https://matplotlib.org/</dc:title>
     </cc:Agent>
    </dc:creator>
   </cc:Work>
  </rdf:RDF>
 </metadata>
 <defs>
  <style type="text/css">*{stroke-linejoin: round; stroke-linecap: butt}</style>
 </defs>
 <g id="figure_1">
  <g id="patch_1">
   <path d="M 0 511.566827 
L 851.4 511.566827 
L 851.4 -0 
L 0 -0 
z
" style="fill: #ffffff"/>
  </g>
  <g id="axes_1">
   <g id="PatchCollection_1">
    <path d="M 93.466261 405.469446 
L 93.66515 405.503888 
L 94.627912 404.446757 
L 102.701381 400.130802 
L 111.610887 398.043034 
L 128.453056 401.524413 
L 140.981278 407.23133 
L 150.307921 414.610051 
L 150.705699 414.686885 
L 178.865157 481.768335 
L 207.631842 423.853986 
L 249.929993 398.358319 
L 177.983359 348.124729 
L 180.107771 297.422185 
L 176.992436 284.816097 
L 175.505172 284.050406 
L 138.550613 270.344796 
L 112.624691 226.340065 
L 69.949884 209.494855 
L 45.245455 247.811215 
L 135.093823 332.355196 
L 140.027317 336.983787 
L 128.509378 346.802652 
L 118.878241 354.92322 
L 101.316201 344.349261 
L 96.784005 342.648313 
L 85.075978 344.916243 
L 77.145075 335.28284 
L 68.080683 336.983787 
L 66.382209 338.305863 
L 66.570537 343.403407 
L 58.827962 346.993413 
L 55.996 350.58077 
L 60.528196 355.111331 
L 63.926903 361.5336 
L 66.193881 367.576998 
L 67.32561 373.241524 
L 70.724317 385.140208 
L 71.48115 394.959073 
L 93.466261 405.469446 
" clip-path="url(#p70a56c4a26)" style="fill: #f29888"/>
    <path d="M 350.389861 301.857366 
L 318.287831 342.272091 
L 316.022613 363.798881 
L 298.648901 386.462284 
L 326.975567 364.082372 
L 327.352224 363.798881 
L 337.928521 376.452658 
L 357.755779 360.590395 
L 362.664632 367.765109 
L 364.961531 371.405454 
L 394.956749 339.580249 
L 403.332952 330.26213 
L 434.187087 308.139214 
L 453.495123 295.154255 
L 533.84436 309.649401 
L 566.701462 316.021331 
L 587.556605 230.923615 
L 619.670955 208.387385 
L 634.994178 200.892088 
L 645.918971 195.548145 
L 646.862372 179.1189 
L 652.188362 172.542963 
L 679.909562 173.833245 
L 689.162282 175.910415 
L 720.509239 176.098526 
L 732.405594 175.531543 
L 741.941686 172.887391 
L 761.603497 187.332198 
L 806.154545 138.076255 
L 710.760177 29.798492 
L 702.897917 30.283342 
L 657.720281 78.007902 
L 638.648096 69.134891 
L 631.283937 83.860539 
L 629.678748 85.844978 
L 607.396184 79.046487 
L 606.121888 86.835873 
L 606.051485 87.190899 
L 605.637867 89.204482 
L 590.566335 87.734037 
L 537.904856 79.237247 
L 515.622292 79.046487 
L 500.32723 80.556674 
L 483.331934 79.613469 
L 472.755636 81.502528 
L 464.636405 84.899124 
L 478.3914 117.561556 
L 484.275335 131.53741 
L 486.148056 139.965313 
L 488.052459 148.530988 
L 488.052459 151.646743 
L 483.048562 151.646743 
L 476.347952 140.22496 
L 473.134053 134.745895 
L 461.04937 121.342322 
L 438.043414 131.828849 
L 429.702413 133.614579 
L 419.882948 139.279106 
L 405.907943 166.27966 
L 396.088478 189.504748 
L 379.283271 202.343987 
L 372.862513 203.854174 
L 366.063339 207.820402 
L 353.790328 222.360589 
L 333.584653 234.444735 
L 332.57965 234.42354 
L 326.218735 240.676244 
L 345.685177 239.619113 
L 354.922057 247.474735 
L 351.901766 257.293601 
L 356.432202 276.176238 
L 351.901766 279.954355 
L 355.67713 288.263033 
L 350.389861 301.857366 
" clip-path="url(#p70a56c4a26)" style="fill: #f29888"/>
   </g>
   <g id="LineCollection_1">
    <path d="M 553.336825 313.429546 
L 553.191118 312.717466 
" clip-path="url(#p70a56c4a26)" style="fill: none; stroke: #f29888; stroke-width: 0.2"/>
    <path d="M 566.905017 315.190743 
L 553.191118 312.717466 
L 509.560589 304.845947 
L 453.403599 294.717096 
L 402.773248 329.239442 
L 380.261874 353.481918 
L 364.418833 370.545334 
" clip-path="url(#p70a56c4a26)" style="fill: none; stroke: #f29888; stroke-width: 0.2"/>
    <path d="M 512.628402 287.468198 
L 562.01614 297.287063 
" clip-path="url(#p70a56c4a26)" style="fill: none; stroke: #f29888; stroke-width: 0.2"/>
    <path d="M 515.435724 271.576791 
L 564.841062 282.15075 
" clip-path="url(#p70a56c4a26)" style="fill: none; stroke: #f29888; stroke-width: 0.2"/>
    <path d="M 518.464815 254.421596 
L 529.583216 256.337149 
" clip-path="url(#p70a56c4a26)" style="fill: none; stroke: #f29888; stroke-width: 0.2"/>
    <path d="M 522.298261 232.719943 
L 526.617488 246.724941 
L 529.583216 256.337149 
L 531.06344 261.137954 
L 569.811517 268.029176 
" clip-path="url(#p70a56c4a26)" style="fill: none; stroke: #f29888; stroke-width: 0.2"/>
    <path d="M 519.929198 246.136762 
L 526.617488 246.724941 
L 557.723314 250.407677 
" clip-path="url(#p70a56c4a26)" style="fill: none; stroke: #f29888; stroke-width: 0.2"/>
    <path d="M 509.560589 304.845947 
L 512.628402 287.468198 
L 515.435724 271.576791 
L 516.646656 264.722661 
L 518.464815 254.421596 
L 519.929198 246.136762 
L 522.298261 232.719943 
L 523.100855 228.176134 
L 525.528 214.425484 
L 529.027032 194.620838 
L 544.388977 175.64547 
L 576.80606 185.429892 
L 622.075219 199.09576 
" clip-path="url(#p70a56c4a26)" style="fill: none; stroke: #f29888; stroke-width: 0.2"/>
    <path d="M 523.100855 228.176134 
L 564.163432 235.493918 
L 572.409389 237.189567 
" clip-path="url(#p70a56c4a26)" style="fill: none; stroke: #f29888; stroke-width: 0.2"/>
    <path d="M 469.265405 255.746321 
L 479.352402 204.83977 
L 482.226606 193.815405 
L 495.807354 180.078001 
L 505.17448 175.340783 
L 522.96709 166.340598 
L 522.025449 177.073524 
L 521.048607 188.225063 
L 529.027032 194.620838 
" clip-path="url(#p70a56c4a26)" style="fill: none; stroke: #f29888; stroke-width: 0.2"/>
    <path d="M 244.642724 396.08509 
L 212.058434 411.547286 
L 203.391819 419.116768 
L 197.824698 423.975861 
L 188.561417 429.62449 
" clip-path="url(#p70a56c4a26)" style="fill: none; stroke: #f29888; stroke-width: 0.2"/>
    <path d="M 203.391819 419.116768 
L 180.512589 355.196113 
" clip-path="url(#p70a56c4a26)" style="fill: none; stroke: #f29888; stroke-width: 0.2"/>
    <path d="M 248.246271 399.373201 
L 244.642724 396.08509 
L 238.018978 390.041974 
" clip-path="url(#p70a56c4a26)" style="fill: none; stroke: #f29888; stroke-width: 0.2"/>
    <path d="M 237.348363 389.573746 
L 180.512589 355.196113 
L 172.069503 350.087972 
L 167.549628 311.000621 
L 170.939534 299.252956 
L 166.646709 285.920918 
L 149.700695 282.081864 
L 84.1801 249.546606 
L 71.504031 260.986935 
" clip-path="url(#p70a56c4a26)" style="fill: none; stroke: #f29888; stroke-width: 0.2"/>
    <path d="M 380.261874 353.481918 
L 363.189135 334.151524 
L 341.760312 312.721502 
" clip-path="url(#p70a56c4a26)" style="fill: none; stroke: #f29888; stroke-width: 0.2"/>
    <path d="M 402.773248 329.239442 
L 385.047521 311.713324 
L 360.063239 287.015142 
" clip-path="url(#p70a56c4a26)" style="fill: none; stroke: #f29888; stroke-width: 0.2"/>
    <path d="M 336.578543 361.464714 
L 363.189135 334.151524 
L 385.047521 311.713324 
L 418.376323 280.465699 
L 453.403599 294.717096 
L 460.304858 254.048023 
" clip-path="url(#p70a56c4a26)" style="fill: none; stroke: #f29888; stroke-width: 0.2"/>
    <path d="M 388.050211 259.259493 
L 405.446803 274.737586 
L 411.547227 275.641049 
L 418.376323 280.465699 
" clip-path="url(#p70a56c4a26)" style="fill: none; stroke: #f29888; stroke-width: 0.2"/>
    <path d="M 516.646656 264.722661 
L 469.265405 255.746321 
L 460.304858 254.048023 
L 452.585164 252.585526 
L 401.065974 242.824949 
L 356.016824 234.341407 
" clip-path="url(#p70a56c4a26)" style="fill: none; stroke: #f29888; stroke-width: 0.2"/>
    <path d="M 441.394599 222.940819 
L 405.406322 215.935671 
" clip-path="url(#p70a56c4a26)" style="fill: none; stroke: #f29888; stroke-width: 0.2"/>
    <path d="M 576.80606 185.429892 
L 564.163432 235.493918 
" clip-path="url(#p70a56c4a26)" style="fill: none; stroke: #f29888; stroke-width: 0.2"/>
    <path d="M 452.585164 252.585526 
L 462.739043 200.49467 
L 466.223994 183.204353 
L 470.101442 163.958741 
L 470.52914 161.836531 
L 487.339628 158.352503 
L 505.17448 175.340783 
L 510.664157 180.236968 
L 522.025449 177.073524 
" clip-path="url(#p70a56c4a26)" style="fill: none; stroke: #f29888; stroke-width: 0.2"/>
    <path d="M 409.855794 190.4612 
L 420.183921 192.421793 
L 462.739043 200.49467 
L 479.352402 204.83977 
L 525.528 214.425484 
" clip-path="url(#p70a56c4a26)" style="fill: none; stroke: #f29888; stroke-width: 0.2"/>
    <path d="M 544.388977 175.64547 
L 549.964898 164.104461 
L 550.052902 143.428146 
L 550.193708 128.54353 
L 550.206028 125.446322 
" clip-path="url(#p70a56c4a26)" style="fill: none; stroke: #f29888; stroke-width: 0.2"/>
    <path d="M 550.052902 143.428146 
L 603.927073 152.807202 
L 607.204335 137.784815 
L 550.193708 128.54353 
" clip-path="url(#p70a56c4a26)" style="fill: none; stroke: #f29888; stroke-width: 0.2"/>
    <path d="M 401.065974 242.824949 
L 403.121743 230.290396 
L 405.406322 215.935671 
L 405.60697 197.532584 
L 409.855794 190.4612 
" clip-path="url(#p70a56c4a26)" style="fill: none; stroke: #f29888; stroke-width: 0.2"/>
    <path d="M 332.57965 234.42354 
L 345.685177 239.619113 
" clip-path="url(#p70a56c4a26)" style="fill: none; stroke: #f29888; stroke-width: 0.2"/>
    <path d="M 345.685177 239.619113 
L 356.016824 234.341407 
" clip-path="url(#p70a56c4a26)" style="fill: none; stroke: #f29888; stroke-width: 0.2"/>
    <path d="M 71.504031 260.986935 
L 47.110928 244.917881 
" clip-path="url(#p70a56c4a26)" style="fill: none; stroke: #f29888; stroke-width: 0.2"/>
    <path d="M 438.501034 177.176852 
L 466.223994 183.204353 
" clip-path="url(#p70a56c4a26)" style="fill: none; stroke: #f29888; stroke-width: 0.2"/>
    <path d="M 420.183921 192.421793 
L 423.568548 183.75014 
L 422.778274 167.146031 
L 426.506115 153.816643 
L 470.101442 163.958741 
" clip-path="url(#p70a56c4a26)" style="fill: none; stroke: #f29888; stroke-width: 0.2"/>
    <path d="M 487.339628 158.352503 
L 483.431998 151.646743 
" clip-path="url(#p70a56c4a26)" style="fill: none; stroke: #f29888; stroke-width: 0.2"/>
    <path d="M 474.362811 136.840685 
L 472.076299 133.5727 
" clip-path="url(#p70a56c4a26)" style="fill: none; stroke: #f29888; stroke-width: 0.2"/>
   </g>
  </g>
 </g>
 <defs>
  <clipPath id="p70a56c4a26">
   <rect x="7.2" y="7.2" width="837" height="497.166827"/>
  </clipPath>
 </defs>
</svg>
