<?xml version="1.0" encoding="utf-8" standalone="no"?>
<!DOCTYPE svg PUBLIC "-//W3C//DTD SVG 1.1//EN"
  "http://www.w3.org/Graphics/SVG/1.1/DTD/svg11.dtd">
<svg xmlns:xlink="http://www.w3.org/1999/xlink" width="851.4pt" height="753.72658pt" viewBox="0 0 851.4 753.72658" xmlns="http://www.w3.org/2000/svg" version="1.1">
 <metadata>
  <rdf:RDF xmlns:dc="http://purl.org/dc/elements/1.1/" xmlns:cc="http://creativecommons.org/ns#" xmlns:rdf="http://www.w3.org/1999/02/22-rdf-syntax-ns#">
   <cc:Work>
    <dc:type rdf:resource="http://purl.org/dc/dcmitype/StillImage"/>
    <dc:date>2025-03-16T14:37:55.180880</dc:date>
    <dc:format>image/svg+xml</dc:format>
    <dc:creator>
     <cc:Agent>
      <dc:title>Matplotlib v3.10.1, https://matplotlib.org/</dc:title>
     </cc:Agent>
    </dc:creator>
   </cc:Work>
  </rdf:RDF>
 </metadata>
 <defs>
  <style type="text/css">*{stroke-linejoin: round; stroke-linecap: butt}</style>
 </defs>
 <g id="figure_1">
  <g id="patch_1">
   <path d="M 0 753.72658 
L 851.4 753.72658 
L 851.4 0 
L 0 0 
z
" style="fill: #ffffff"/>
  </g>
  <g id="axes_1">
   <g id="PatchCollection_1">
    <path d="M 71.199647 369.15948 
L 82.45052 387.463522 
L 48.846125 420.468431 
L 54.246432 460.378898 
L 97.002822 532.099527 
L 115.006175 535.250464 
L 139.459972 532.549661 
L 147.410812 547.704869 
L 132.408251 570.360906 
L 122.807395 605.324108 
L 135.109803 622.281955 
L 176.965676 640.438756 
L 196.768665 630.985945 
L 266.830024 590.46969 
L 307.486139 663.397687 
L 348.592513 693.71231 
L 380.096633 712.920826 
L 560.124569 638.787564 
L 717.649363 562.258496 
L 703.997578 540.801414 
L 704.147198 532.398214 
L 692.970437 529.323 
L 673.617706 505.165115 
L 665.292117 489.71122 
L 667.241373 482.284011 
L 681.494435 457.078618 
L 805.184112 463.142804 
L 806.154545 436.698491 
L 433.355795 409.966008 
L 433.055156 380.711514 
L 452.558905 379.361112 
L 453.462219 369.077446 
L 437.556344 237.146154 
L 422.253144 213.594056 
L 411.002272 196.343833 
L 408.750979 174.14424 
L 413.401787 161.694042 
L 401.700657 136.345616 
L 383.697304 136.795749 
L 354.917109 104.356663 
L 323.688458 55.653861 
L 307.785379 40.805754 
L 296.233869 42.004708 
L 287.68315 123.746074 
L 285.882116 132.147171 
L 229.023682 135.146661 
L 258.428925 241.64539 
L 257.227769 268.647111 
L 234.575007 277.048208 
L 233.224231 287.998661 
L 181.466863 303.751243 
L 138.860093 291.898419 
L 69.099373 297.150682 
L 45.245455 313.201951 
L 71.199647 369.15948 
" clip-path="url(#p8d22f33ea8)" style="fill: #f29888"/>
   </g>
   <g id="PatchCollection_2">
    <path d="M 445.800831 568.03241 
L 446.885926 569.86029 
L 445.746297 570.537594 
L 444.659803 568.70761 
L 445.800831 568.03241 
" clip-path="url(#p8d22f33ea8)" style="fill: #f29888"/>
    <path d="M 450.461427 564.812059 
L 451.682159 567.283589 
L 450.487995 567.872549 
L 449.268661 565.40102 
L 450.461427 564.812059 
" clip-path="url(#p8d22f33ea8)" style="fill: #f29888"/>
    <path d="M 454.744477 563.415382 
L 455.979193 566.250805 
L 454.653587 566.827145 
L 453.420269 563.991722 
L 454.744477 563.415382 
" clip-path="url(#p8d22f33ea8)" style="fill: #f29888"/>
    <path d="M 459.77423 562.544563 
L 460.87191 564.687957 
L 459.667957 565.304262 
L 458.570277 563.160867 
L 459.77423 562.544563 
" clip-path="url(#p8d22f33ea8)" style="fill: #f29888"/>
    <path d="M 466.494549 560.531581 
L 467.389473 562.321599 
L 466.304378 562.864284 
L 465.409454 561.074266 
L 466.494549 560.531581 
" clip-path="url(#p8d22f33ea8)" style="fill: #f29888"/>
    <path d="M 469.885472 558.133671 
L 471.357901 560.23079 
L 470.275603 560.990128 
L 468.803173 558.895113 
L 469.885472 558.133671 
" clip-path="url(#p8d22f33ea8)" style="fill: #f29888"/>
    <path d="M 421.256143 529.516516 
L 422.002845 530.822745 
L 420.586349 531.632566 
L 419.839646 530.32844 
L 421.256143 529.516516 
" clip-path="url(#p8d22f33ea8)" style="fill: #f29888"/>
    <path d="M 427.998836 526.453923 
L 429.022405 529.020107 
L 428.000234 529.428172 
L 426.976665 526.861988 
L 427.998836 526.453923 
" clip-path="url(#p8d22f33ea8)" style="fill: #f29888"/>
    <path d="M 431.761711 524.836386 
L 432.769899 526.761023 
L 431.627473 527.360501 
L 430.617887 525.435863 
L 431.761711 524.836386 
" clip-path="url(#p8d22f33ea8)" style="fill: #f29888"/>
    <path d="M 435.436493 523.521742 
L 436.416714 525.23183 
L 435.342806 525.848135 
L 434.362584 524.138047 
L 435.436493 523.521742 
" clip-path="url(#p8d22f33ea8)" style="fill: #f29888"/>
    <path d="M 438.912713 521.691759 
L 440.060733 523.9866 
L 439.088901 524.472492 
L 437.94228 522.177651 
L 438.912713 521.691759 
" clip-path="url(#p8d22f33ea8)" style="fill: #f29888"/>
    <path d="M 418.323869 521.94417 
L 419.199216 523.427088 
L 417.89039 524.199047 
L 417.015043 522.718232 
L 418.323869 521.94417 
" clip-path="url(#p8d22f33ea8)" style="fill: #f29888"/>
    <path d="M 420.853427 520.829353 
L 421.703605 522.257581 
L 420.394779 523.037954 
L 419.544601 521.609725 
L 420.853427 520.829353 
" clip-path="url(#p8d22f33ea8)" style="fill: #f29888"/>
    <path d="M 444.010983 520.17729 
L 445.196757 522.707715 
L 444.189968 523.178883 
L 443.004194 520.648458 
L 444.010983 520.17729 
" clip-path="url(#p8d22f33ea8)" style="fill: #f29888"/>
    <path d="M 448.619841 518.107515 
L 450.044728 520.932421 
L 448.677172 521.622346 
L 447.252286 518.79744 
L 448.619841 518.107515 
" clip-path="url(#p8d22f33ea8)" style="fill: #f29888"/>
    <path d="M 427.506628 517.072628 
L 428.689605 518.875267 
L 427.735952 519.502089 
L 426.552974 517.69945 
L 427.506628 517.072628 
" clip-path="url(#p8d22f33ea8)" style="fill: #f29888"/>
    <path d="M 451.556311 516.904354 
L 452.463819 518.473512 
L 451.206731 519.199195 
L 450.30062 517.630037 
L 451.556311 516.904354 
" clip-path="url(#p8d22f33ea8)" style="fill: #f29888"/>
    <path d="M 428.55257 515.749571 
L 429.988643 518.113826 
L 429.103508 518.652304 
L 427.666036 516.288049 
L 428.55257 515.749571 
" clip-path="url(#p8d22f33ea8)" style="fill: #f29888"/>
    <path d="M 454.397694 515.139577 
L 455.431052 516.626701 
L 454.322185 517.39866 
L 453.288827 515.909432 
L 454.397694 515.139577 
" clip-path="url(#p8d22f33ea8)" style="fill: #f29888"/>
    <path d="M 434.853394 513.177077 
L 436.160822 515.200576 
L 435.23094 515.802157 
L 433.923512 513.778658 
L 434.853394 513.177077 
" clip-path="url(#p8d22f33ea8)" style="fill: #f29888"/>
    <path d="M 299.370298 530.940538 
L 301.284596 529.850961 
L 302.359903 531.737737 
L 300.444206 532.827314 
L 299.370298 530.940538 
" clip-path="url(#p8d22f33ea8)" style="fill: #f29888"/>
    <path d="M 206.356936 509.493972 
L 206.937238 510.368999 
L 206.165366 510.880132 
L 205.585064 510.007209 
L 206.356936 509.493972 
" clip-path="url(#p8d22f33ea8)" style="fill: #f29888"/>
    <path d="M 251.210804 507.060305 
L 252.410561 509.761108 
L 246.410376 512.312568 
L 245.0596 509.761108 
L 251.210804 507.060305 
" clip-path="url(#p8d22f33ea8)" style="fill: #f29888"/>
    <path d="M 250.911564 497.45815 
L 251.961701 500.158953 
L 241.159689 504.508845 
L 240.109552 501.658698 
L 250.911564 497.45815 
" clip-path="url(#p8d22f33ea8)" style="fill: #f29888"/>
    <path d="M 263.513212 496.707226 
L 264.563349 499.408029 
L 253.311079 503.909368 
L 252.410561 501.208564 
L 263.513212 496.707226 
" clip-path="url(#p8d22f33ea8)" style="fill: #f29888"/>
    <path d="M 229.286565 484.873333 
L 228.372065 485.729428 
L 226.084416 483.291554 
L 226.998916 482.435458 
L 229.286565 484.873333 
" clip-path="url(#p8d22f33ea8)" style="fill: #f29888"/>
    <path d="M 234.575007 476.207204 
L 232.237018 477.269436 
L 230.399627 473.218231 
L 232.737616 472.155999 
L 234.575007 476.207204 
" clip-path="url(#p8d22f33ea8)" style="fill: #f29888"/>
    <path d="M 215.34393 471.154767 
L 215.437617 470.910769 
L 215.606814 470.710943 
L 215.831943 470.578427 
L 216.087835 470.525841 
L 216.346524 470.5616 
L 216.577247 470.675185 
L 216.75763 470.858183 
L 216.870894 471.08956 
L 216.903055 471.344075 
L 216.851317 471.596487 
L 216.721274 471.817347 
L 216.526908 471.985621 
L 216.289193 472.082379 
L 216.029106 472.097103 
L 215.777409 472.02769 
L 215.563466 471.876243 
L 215.409651 471.6659 
L 215.334142 471.415592 
L 215.34393 471.154767 
" clip-path="url(#p8d22f33ea8)" style="fill: #f29888"/>
    <path d="M 246.239781 463.428871 
L 246.132111 471.962484 
L 242.388811 471.916208 
L 242.495084 463.382595 
L 246.239781 463.428871 
" clip-path="url(#p8d22f33ea8)" style="fill: #f29888"/>
    <path d="M 216.773012 463.351044 
L 216.919835 462.97453 
L 217.181321 462.665326 
L 217.529502 462.45919 
L 217.926625 462.37926 
L 218.327942 462.431845 
L 218.683115 462.608533 
L 218.962779 462.892496 
L 219.137568 463.250079 
L 219.187908 463.643421 
L 219.108204 464.034659 
L 218.906846 464.377517 
L 218.606207 464.638343 
L 218.23845 464.787686 
L 217.834335 464.810824 
L 217.445603 464.701446 
L 217.114201 464.470068 
L 216.876487 464.141933 
L 216.75763 463.754902 
L 216.773012 463.351044 
" clip-path="url(#p8d22f33ea8)" style="fill: #f29888"/>
    <path d="M 440.996208 510.795995 
L 441.861767 512.320981 
L 440.641035 513.01301 
L 439.775476 511.490127 
L 440.996208 510.795995 
" clip-path="url(#p8d22f33ea8)" style="fill: #f29888"/>
    <path d="M 444.518573 508.156191 
L 445.645618 510.255414 
L 444.705947 510.760237 
L 443.578903 508.661014 
L 444.518573 508.156191 
" clip-path="url(#p8d22f33ea8)" style="fill: #f29888"/>
    <path d="M 447.238303 507.931124 
L 447.877334 508.999667 
L 446.782451 509.655936 
L 446.142021 508.589498 
L 447.238303 507.931124 
" clip-path="url(#p8d22f33ea8)" style="fill: #f29888"/>
    <path d="M 415.186042 474.865216 
L 416.3019 477.017024 
L 415.21261 477.582847 
L 414.095353 475.431038 
L 415.186042 474.865216 
" clip-path="url(#p8d22f33ea8)" style="fill: #f29888"/>
    <path d="M 420.155666 472.256964 
L 421.228177 473.71464 
L 420.063377 474.572839 
L 418.990867 473.115163 
L 420.155666 472.256964 
" clip-path="url(#p8d22f33ea8)" style="fill: #f29888"/>
    <path d="M 412.649492 468.134242 
L 413.471703 469.387886 
L 412.648093 469.926364 
L 411.82728 468.67272 
L 412.649492 468.134242 
" clip-path="url(#p8d22f33ea8)" style="fill: #f29888"/>
    <path d="M 393.528882 487.359586 
L 394.476942 489.115949 
L 393.43939 489.675462 
L 392.489931 487.919098 
L 393.528882 487.359586 
" clip-path="url(#p8d22f33ea8)" style="fill: #f29888"/>
    <path d="M 397.609176 484.690334 
L 398.365667 486.112252 
L 397.302944 486.678075 
L 396.545056 485.256157 
L 397.609176 484.690334 
" clip-path="url(#p8d22f33ea8)" style="fill: #f29888"/>
    <path d="M 387.791581 480.003894 
L 389.078034 482.058944 
L 387.902048 482.795144 
L 386.615595 480.740094 
L 387.791581 480.003894 
" clip-path="url(#p8d22f33ea8)" style="fill: #f29888"/>
    <path d="M 405.617347 478.828077 
L 407.142913 481.148159 
L 406.260574 481.728706 
L 404.73361 479.408623 
L 405.617347 478.828077 
" clip-path="url(#p8d22f33ea8)" style="fill: #f29888"/>
    <path d="M 409.739591 478.081359 
L 410.642904 479.518002 
L 409.678065 480.123789 
L 408.776149 478.68925 
L 409.739591 478.081359 
" clip-path="url(#p8d22f33ea8)" style="fill: #f29888"/>
    <path d="M 393.071632 477.746914 
L 393.969353 479.313969 
L 393.091208 479.818792 
L 392.19209 478.251737 
L 393.071632 477.746914 
" clip-path="url(#p8d22f33ea8)" style="fill: #f29888"/>
    <path d="M 398.611771 474.877837 
L 399.800341 476.956025 
L 398.838298 477.50502 
L 397.648329 475.428935 
L 398.611771 474.877837 
" clip-path="url(#p8d22f33ea8)" style="fill: #f29888"/>
    <path d="M 403.180078 473.203507 
L 403.968729 474.743217 
L 402.830498 475.325867 
L 402.041846 473.786157 
L 403.180078 473.203507 
" clip-path="url(#p8d22f33ea8)" style="fill: #f29888"/>
    <path d="M 405.985105 471.091664 
L 407.057615 472.879579 
L 405.747391 473.666261 
L 404.67488 471.878346 
L 405.985105 471.091664 
" clip-path="url(#p8d22f33ea8)" style="fill: #f29888"/>
    <path d="M 407.319101 469.615056 
L 408.583181 471.901484 
L 407.60296 472.444169 
L 406.33888 470.157741 
L 407.319101 469.615056 
" clip-path="url(#p8d22f33ea8)" style="fill: #f29888"/>
    <path d="M 380.018327 460.198003 
L 381.050286 461.634646 
L 380.022522 462.372949 
L 378.991961 460.936307 
L 380.018327 460.198003 
" clip-path="url(#p8d22f33ea8)" style="fill: #f29888"/>
    <path d="M 383.117001 458.43533 
L 384.175529 460.41045 
L 383.219079 460.923687 
L 382.160551 458.948566 
L 383.117001 458.43533 
" clip-path="url(#p8d22f33ea8)" style="fill: #f29888"/>
    <path d="M 384.81456 458.115608 
L 385.619992 459.352425 
L 384.653754 459.98135 
L 383.848322 458.746637 
L 384.81456 458.115608 
" clip-path="url(#p8d22f33ea8)" style="fill: #f29888"/>
    <path d="M 388.662733 455.846008 
L 389.33113 456.925067 
L 388.594216 457.381512 
L 387.925819 456.302452 
L 388.662733 455.846008 
" clip-path="url(#p8d22f33ea8)" style="fill: #f29888"/>
    <path d="M 390.502921 454.819535 
L 391.807552 457.095445 
L 391.216063 457.434097 
L 389.911432 455.16029 
L 390.502921 454.819535 
" clip-path="url(#p8d22f33ea8)" style="fill: #f29888"/>
    <path d="M 375.465402 452.337488 
L 376.441428 453.515409 
L 375.243069 454.506124 
L 374.268441 453.328203 
L 375.465402 452.337488 
" clip-path="url(#p8d22f33ea8)" style="fill: #f29888"/>
    <path d="M 392.587814 452.320661 
L 393.478543 453.68158 
L 392.551457 454.289471 
L 391.660728 452.928552 
L 392.587814 452.320661 
" clip-path="url(#p8d22f33ea8)" style="fill: #f29888"/>
    <path d="M 394.609783 451.952561 
L 395.486528 453.496478 
L 394.57063 454.018128 
L 393.692485 452.472108 
L 394.609783 451.952561 
" clip-path="url(#p8d22f33ea8)" style="fill: #f29888"/>
    <path d="M 378.229878 451.157464 
L 378.955605 452.230213 
L 378.171148 452.760277 
L 377.446819 451.687529 
L 378.229878 451.157464 
" clip-path="url(#p8d22f33ea8)" style="fill: #f29888"/>
    <path d="M 381.093634 449.367446 
L 381.907456 450.711537 
L 380.688122 451.449841 
L 379.8743 450.10575 
L 381.093634 449.367446 
" clip-path="url(#p8d22f33ea8)" style="fill: #f29888"/>
    <path d="M 384.815959 447.12519 
L 385.478762 448.42511 
L 384.097223 449.131862 
L 383.43442 447.831943 
L 384.815959 447.12519 
" clip-path="url(#p8d22f33ea8)" style="fill: #f29888"/>
    <path d="M 401.051837 446.479438 
L 401.854472 447.777253 
L 400.675689 448.507143 
L 399.873054 447.209328 
L 401.051837 446.479438 
" clip-path="url(#p8d22f33ea8)" style="fill: #f29888"/>
    <path d="M 387.854505 445.762168 
L 388.564851 446.860158 
L 387.435009 447.592152 
L 386.724664 446.494162 
L 387.854505 445.762168 
" clip-path="url(#p8d22f33ea8)" style="fill: #f29888"/>
    <path d="M 390.319741 443.856461 
L 391.116782 445.156381 
L 390.002323 445.839995 
L 389.206679 444.537972 
L 390.319741 443.856461 
" clip-path="url(#p8d22f33ea8)" style="fill: #f29888"/>
    <path d="M 393.288371 442.335682 
L 394.001514 443.599843 
L 393.107988 444.104666 
L 392.394846 442.840505 
L 393.288371 442.335682 
" clip-path="url(#p8d22f33ea8)" style="fill: #f29888"/>
    <path d="M 397.297351 440.097633 
L 398.017485 441.275554 
L 396.686286 442.089581 
L 395.966152 440.91166 
L 397.297351 440.097633 
" clip-path="url(#p8d22f33ea8)" style="fill: #f29888"/>
    <path d="M 375.064084 462.490741 
L 375.929643 463.935797 
L 374.914464 464.543688 
L 374.048905 463.096529 
L 375.064084 462.490741 
" clip-path="url(#p8d22f33ea8)" style="fill: #f29888"/>
    <path d="M 210.60363 463.220631 
L 210.749055 462.842014 
L 211.01054 462.53281 
L 211.36012 462.326674 
L 211.755844 462.246744 
L 212.157162 462.299329 
L 212.513733 462.476017 
L 212.793397 462.75998 
L 212.968186 463.117563 
L 213.018526 463.513008 
L 212.938822 463.902142 
L 212.738862 464.245001 
L 212.438224 464.50793 
L 212.069068 464.657274 
L 211.664953 464.680411 
L 211.276221 464.571033 
L 210.943421 464.337552 
L 210.705707 464.011521 
L 210.588248 463.62449 
L 210.60363 463.220631 
" clip-path="url(#p8d22f33ea8)" style="fill: #f29888"/>
    <path d="M 213.808576 460.612379 
L 213.955399 460.235865 
L 214.218283 459.926661 
L 214.566465 459.720525 
L 214.963587 459.638491 
L 215.364905 459.69318 
L 215.721476 459.869869 
L 216.00114 460.153831 
L 216.17593 460.511414 
L 216.226269 460.906859 
L 216.146565 461.295994 
L 215.945207 461.640956 
L 215.644568 461.901781 
L 215.275412 462.051125 
L 214.871298 462.074262 
L 214.481167 461.964884 
L 214.149766 461.733507 
L 213.912052 461.405372 
L 213.793195 461.018341 
L 213.808576 460.612379 
" clip-path="url(#p8d22f33ea8)" style="fill: #f29888"/>
    <path d="M 207.893688 460.286348 
L 208.039113 459.90773 
L 208.300599 459.598526 
L 208.64878 459.39239 
L 209.045903 459.31246 
L 209.44722 459.365045 
L 209.803791 459.541734 
L 210.083455 459.825696 
L 210.258245 460.183279 
L 210.308584 460.578724 
L 210.22888 460.967859 
L 210.028921 461.310718 
L 209.728282 461.573646 
L 209.359126 461.72299 
L 208.955012 461.746127 
L 208.566279 461.636749 
L 208.233479 461.403268 
L 207.995765 461.077237 
L 207.878307 460.690206 
L 207.893688 460.286348 
" clip-path="url(#p8d22f33ea8)" style="fill: #f29888"/>
    <path d="M 211.596436 457.959955 
L 211.691522 457.71806 
L 211.860718 457.518235 
L 212.085847 457.385719 
L 212.34174 457.333133 
L 212.600429 457.366788 
L 212.831151 457.482476 
L 213.011534 457.663371 
L 213.124798 457.894748 
L 213.15696 458.149263 
L 213.105222 458.401675 
L 212.975178 458.624638 
L 212.78221 458.792913 
L 212.543098 458.88967 
L 212.28301 458.904394 
L 212.031313 458.832878 
L 211.81737 458.683534 
L 211.663555 458.473191 
L 211.586648 458.222883 
L 211.596436 457.959955 
" clip-path="url(#p8d22f33ea8)" style="fill: #f29888"/>
    <path d="M 372.334566 454.604985 
L 373.256058 455.944869 
L 371.961215 456.83462 
L 371.039723 455.494736 
L 372.334566 454.604985 
" clip-path="url(#p8d22f33ea8)" style="fill: #f29888"/>
    <path d="M 227.762398 446.725539 
L 228.888045 448.63966 
L 227.485531 449.464204 
L 226.361283 447.550083 
L 227.762398 446.725539 
" clip-path="url(#p8d22f33ea8)" style="fill: #f29888"/>
    <path d="M 222.272599 445.787409 
L 224.07643 448.810037 
L 221.751026 450.198301 
L 219.947195 447.175673 
L 222.272599 445.787409 
" clip-path="url(#p8d22f33ea8)" style="fill: #f29888"/>
    <path d="M 308.873271 441.50062 
L 308.723651 441.239795 
L 310.618373 440.160736 
L 310.758205 440.404734 
L 312.652927 439.325675 
L 313.788361 441.319726 
L 307.749023 444.758832 
L 306.623376 442.781609 
L 308.873271 441.50062 
" clip-path="url(#p8d22f33ea8)" style="fill: #f29888"/>
    <path d="M 358.761087 341.112354 
L 360.074108 344.467324 
L 365.109453 342.717271 
L 364.889917 342.061001 
L 367.443247 341.112354 
L 368.318595 343.737434 
L 356.353182 348.11467 
L 355.69737 346.21948 
L 357.083104 345.708347 
L 355.842796 342.206137 
L 358.761087 341.112354 
" clip-path="url(#p8d22f33ea8)" style="fill: #f29888"/>
    <path d="M 354.561936 198.518779 
L 352.044962 200.01642 
L 343.624287 185.866651 
L 346.141261 184.36901 
L 354.561936 198.518779 
" clip-path="url(#p8d22f33ea8)" style="fill: #f29888"/>
    <path d="M 368.483596 190.574126 
L 366.140014 191.9687 
L 357.713746 177.812621 
L 360.058726 176.418047 
L 368.483596 190.574126 
" clip-path="url(#p8d22f33ea8)" style="fill: #f29888"/>
    <path d="M 380.275618 183.641223 
L 378.069071 184.953763 
L 369.663777 170.831339 
L 371.870324 169.518799 
L 380.275618 183.641223 
" clip-path="url(#p8d22f33ea8)" style="fill: #f29888"/>
    <path d="M 352.474246 168.374533 
L 344.386371 154.784277 
L 346.590121 153.47384 
L 354.677996 167.061994 
L 352.474246 168.374533 
" clip-path="url(#p8d22f33ea8)" style="fill: #f29888"/>
    <path d="M 367.134219 160.373088 
L 364.736102 161.799214 
L 356.607676 148.141647 
L 359.005792 146.715522 
L 367.134219 160.373088 
" clip-path="url(#p8d22f33ea8)" style="fill: #f29888"/>
    <path d="M 374.292212 158.116109 
L 371.636805 159.695784 
L 363.251088 145.604911 
L 365.906495 144.027339 
L 374.292212 158.116109 
" clip-path="url(#p8d22f33ea8)" style="fill: #f29888"/>
   </g>
   <g id="LineCollection_1">
    <path d="M 365.695349 700.165631 
L 365.638939 704.105762 
" clip-path="url(#p8d22f33ea8)" style="fill: none; stroke: #f29888; stroke-width: 0.2"/>
    <path d="M 306.293373 597.356317 
L 303.921825 599.034854 
L 290.763646 607.734638 
L 284.518755 611.638602 
L 280.656599 613.34869 
" clip-path="url(#p8d22f33ea8)" style="fill: none; stroke: #f29888; stroke-width: 0.2"/>
    <path d="M 230.942175 518.923646 
L 232.51808 520.600079 
L 234.491108 523.46495 
L 242.702035 539.152325 
L 254.726177 562.658148 
L 280.656599 613.34869 
L 294.680337 640.076966 
L 300.10861 650.017773 
L 306.184304 658.471456 
L 309.189291 661.809598 
" clip-path="url(#p8d22f33ea8)" style="fill: none; stroke: #f29888; stroke-width: 0.2"/>
    <path d="M 305.834725 596.554911 
L 314.515487 590.669516 
L 317.860265 588.662844 
L 319.422187 587.548027 
L 320.090584 586.542587 
L 321.428775 582.192696 
L 322.320902 579.963061 
L 323.829688 578.234042 
" clip-path="url(#p8d22f33ea8)" style="fill: none; stroke: #f29888; stroke-width: 0.2"/>
    <path d="M 257.183023 508.938667 
L 277.833393 547.725903 
L 305.834725 596.554911 
L 306.293373 597.356317 
L 334.262543 646.296807 
" clip-path="url(#p8d22f33ea8)" style="fill: none; stroke: #f29888; stroke-width: 0.2"/>
    <path d="M 279.020566 498.185937 
L 299.250042 535.345118 
L 310.300955 554.461084 
L 323.30392 577.350601 
L 323.829688 578.234042 
L 347.798268 618.613574 
L 356.294453 633.406992 
" clip-path="url(#p8d22f33ea8)" style="fill: none; stroke: #f29888; stroke-width: 0.2"/>
    <path d="M 310.300955 554.461084 
L 333.759149 541.672234 
" clip-path="url(#p8d22f33ea8)" style="fill: none; stroke: #f29888; stroke-width: 0.2"/>
    <path d="M 173.725771 608.268909 
L 185.87716 602.101654 
L 225.443986 578.105733 
L 254.726177 562.658148 
L 263.281091 558.67846 
L 268.231139 553.802711 
L 277.833393 547.725903 
L 299.250042 535.345118 
L 303.312158 534.005234 
L 313.480731 528.094598 
L 316.380844 527.074434 
L 320.45974 525.885997 
L 323.656296 524.266356 
L 326.115939 522.541544 
L 352.69518 505.78773 
L 365.896707 499.93599 
L 388.680911 486.678075 
L 419.530618 468.727409 
" clip-path="url(#p8d22f33ea8)" style="fill: none; stroke: #f29888; stroke-width: 0.2"/>
    <path d="M 301.590828 486.272113 
L 302.65355 487.492102 
L 303.661738 488.501748 
L 304.586026 489.761702 
L 312.906022 504.134435 
L 320.050032 516.405841 
L 320.722624 519.01199 
L 321.814711 520.860904 
L 323.656296 524.266356 
" clip-path="url(#p8d22f33ea8)" style="fill: none; stroke: #f29888; stroke-width: 0.2"/>
    <path d="M 230.942175 518.923646 
L 237.777156 516.290152 
L 257.183023 508.938667 
L 262.530194 506.913065 
L 279.020566 498.185937 
L 301.590828 486.272113 
L 320.103169 475.691864 
L 324.833681 473.685192 
L 327.026244 472.951095 
L 328.453928 472.866958 
" clip-path="url(#p8d22f33ea8)" style="fill: none; stroke: #f29888; stroke-width: 0.2"/>
    <path d="M 137.682709 622.088439 
L 167.124309 610.069444 
L 173.725771 608.268909 
" clip-path="url(#p8d22f33ea8)" style="fill: none; stroke: #f29888; stroke-width: 0.2"/>
    <path d="M 160.823485 621.322791 
L 170.424341 613.071038 
L 173.725771 608.268909 
" clip-path="url(#p8d22f33ea8)" style="fill: none; stroke: #f29888; stroke-width: 0.2"/>
    <path d="M 141.890436 537.182403 
L 143.211661 535.921458 
L 146.170503 533.552997 
L 151.348477 530.002408 
L 158.622531 525.58731 
" clip-path="url(#p8d22f33ea8)" style="fill: none; stroke: #f29888; stroke-width: 0.2"/>
    <path d="M 242.702035 539.152325 
L 235.25459 541.562855 
L 210.200914 555.517005 
L 188.14803 567.146866 
L 167.293505 579.750614 
L 158.442148 583.202342 
L 152.366453 588.978359 
" clip-path="url(#p8d22f33ea8)" style="fill: none; stroke: #f29888; stroke-width: 0.2"/>
    <path d="M 128.813174 598.132483 
L 133.613602 583.202342 
L 139.689296 571.046624 
L 152.292342 559.492487 
L 164.143093 550.340466 
L 174.945105 542.311676 
L 185.972246 535.784735 
L 201.873926 528.208183 
L 215.4516 523.332434 
L 230.942175 518.923646 
" clip-path="url(#p8d22f33ea8)" style="fill: none; stroke: #f29888; stroke-width: 0.2"/>
    <path d="M 158.622531 525.58731 
L 169.200812 520.457046 
L 173.439116 518.559753 
L 175.669434 517.444935 
L 176.89576 515.884191 
L 180.128672 513.095043 
L 182.805054 512.091708 
L 186.039365 511.868744 
L 188.93808 511.980226 
L 191.057931 511.645781 
L 193.064518 510.865408 
L 199.643608 507.295889 
L 200.981799 505.735144 
L 201.762061 504.508845 
L 203.212117 503.505509 
L 204.06649 503.084823 
" clip-path="url(#p8d22f33ea8)" style="fill: none; stroke: #f29888; stroke-width: 0.2"/>
    <path d="M 203.886107 486.19639 
L 201.706128 489.328396 
L 200.862942 492.235335 
L 200.802814 495.18855 
L 201.219513 496.665157 
L 201.857146 498.251143 
L 202.501771 499.952817 
L 204.06649 503.084823 
L 206.58626 507.874332 
L 207.025332 508.698876 
L 208.562084 511.584781 
L 209.877902 513.730279 
L 211.56008 516.517323 
L 213.266028 518.004447 
L 215.63478 518.881577 
L 218.424426 519.064576 
L 224.452578 518.399892 
L 227.795958 518.200066 
L 229.434787 518.296824 
L 230.942175 518.923646 
" clip-path="url(#p8d22f33ea8)" style="fill: none; stroke: #f29888; stroke-width: 0.2"/>
    <path d="M 192.466038 492.100716 
L 197.298627 490.468454 
L 200.497981 487.201829 
L 202.552111 484.951159 
" clip-path="url(#p8d22f33ea8)" style="fill: none; stroke: #f29888; stroke-width: 0.2"/>
    <path d="M 158.622531 525.58731 
L 157.979305 522.756094 
L 157.345866 520.667389 
L 156.522256 519.146609 
L 155.25538 517.62583 
L 153.798332 516.296463 
L 152.468531 515.345713 
L 150.440969 514.647374 
L 147.717044 513.824933 
L 145.373462 512.747978 
L 142.39784 511.03789 
L 138.469962 508.629463 
L 132.199901 503.87992 
L 110.100873 484.322234 
L 74.392009 451.691735 
L 70.601167 447.787771 
" clip-path="url(#p8d22f33ea8)" style="fill: none; stroke: #f29888; stroke-width: 0.2"/>
    <path d="M 309.189291 661.809598 
L 312.873861 664.981569 
L 319.427781 670.98055 
L 356.680388 694.995402 
L 365.695349 700.165631 
L 387.048089 710.058303 
" clip-path="url(#p8d22f33ea8)" style="fill: none; stroke: #f29888; stroke-width: 0.2"/>
    <path d="M 309.189291 661.809598 
L 334.262543 646.296807 
L 337.415752 644.349031 
L 356.294453 633.406992 
L 383.388275 622.662675 
L 418.912561 608.685388 
L 441.245109 600.193844 
L 459.570075 593.019046 
L 480.948969 584.649501 
L 511.37918 574.721315 
L 540.764847 565.838533 
L 564.534866 562.311082 
" clip-path="url(#p8d22f33ea8)" style="fill: none; stroke: #f29888; stroke-width: 0.2"/>
    <path d="M 485.258587 555.127871 
L 467.365702 565.18647 
L 445.76867 573.661186 
L 444.250096 574.330077 
L 408.464324 588.959428 
L 370.926459 606.146548 
L 347.798268 618.613574 
" clip-path="url(#p8d22f33ea8)" style="fill: none; stroke: #f29888; stroke-width: 0.2"/>
    <path d="M 370.926459 606.146548 
L 367.928464 600.597702 
L 359.342787 586.208142 
L 345.693799 563.909688 
L 338.370804 552.635307 
L 337.362616 550.113296 
L 337.194818 547.675421 
L 336.690025 546.33133 
L 335.34624 544.061729 
L 333.759149 541.672234 
L 332.320279 540.025249 
L 330.303903 537.252929 
L 328.20223 533.552997 
L 326.521451 529.602756 
L 323.656296 524.266356 
" clip-path="url(#p8d22f33ea8)" style="fill: none; stroke: #f29888; stroke-width: 0.2"/>
    <path d="M 323.30392 577.350601 
L 345.693799 563.909688 
L 379.993157 544.415106 
L 415.713208 528.023081 
L 452.086273 511.237715 
" clip-path="url(#p8d22f33ea8)" style="fill: none; stroke: #f29888; stroke-width: 0.2"/>
    <path d="M 362.599471 449.441066 
L 370.50137 460.084418 
L 372.596052 462.903014 
L 386.415635 486.156424 
L 388.680911 486.678075 
L 405.456541 511.210371 
L 411.936349 521.081764 
L 415.713208 528.023081 
L 424.076552 542.040334 
L 431.939298 553.161165 
L 445.76867 573.661186 
L 456.53013 587.240926 
L 459.570075 593.019046 
" clip-path="url(#p8d22f33ea8)" style="fill: none; stroke: #f29888; stroke-width: 0.2"/>
    <path d="M 370.50137 460.084418 
L 399.814325 443.006676 
" clip-path="url(#p8d22f33ea8)" style="fill: none; stroke: #f29888; stroke-width: 0.2"/>
    <path d="M 292.824768 438.461165 
L 334.901575 415.63475 
L 335.698617 414.442106 
L 335.698617 412.948671 
L 332.114726 399.312139 
L 332.214007 397.818704 
L 333.110329 396.426234 
L 334.802294 395.330347 
L 341.072355 392.046894 
L 359.35677 381.912572 
L 360.281059 380.078382 
" clip-path="url(#p8d22f33ea8)" style="fill: none; stroke: #f29888; stroke-width: 0.2"/>
    <path d="M 265.487638 423.604644 
L 273.473436 438.35389 
L 274.78366 441.025245 
L 275.323411 442.539715 
L 275.46604 443.883806 
L 275.298241 445.061726 
L 274.140434 447.158845 
L 265.728148 458.706672 
" clip-path="url(#p8d22f33ea8)" style="fill: none; stroke: #f29888; stroke-width: 0.2"/>
    <path d="M 280.146212 414.172867 
L 292.824768 438.461165 
L 294.990763 442.609128 
" clip-path="url(#p8d22f33ea8)" style="fill: none; stroke: #f29888; stroke-width: 0.2"/>
    <path d="M 261.632473 319.013726 
L 262.629474 329.608699 
L 271.403924 397.574707 
L 271.735326 399.835893 
L 271.731131 402.267457 
L 271.721342 405.954769 
L 271.575917 408.321127 
L 271.462653 410.632796 
L 271.160617 412.942361 
L 270.668408 415.887162 
L 270.502008 416.688569 
L 270.254506 417.599353 
L 269.8434 418.602689 
L 269.295259 419.608128 
L 268.394742 420.786049 
L 265.487638 423.604644 
L 263.083928 425.331559 
L 259.953092 427.327714 
L 255.814069 429.494246 
L 242.286734 434.491994 
L 215.132784 445.190035 
L 205.366926 451.296291 
L 203.454026 452.707692 
L 201.875324 454.342056 
L 200.84756 456.723138 
L 200.688152 459.964523 
L 201.564898 463.168046 
L 202.897495 465.351405 
L 210.019132 472.425238 
L 211.880295 474.492909 
L 212.51653 476.451202 
L 212.399071 478.02036 
L 211.448214 479.755689 
L 207.822374 483.053866 
L 203.886107 486.19639 
" clip-path="url(#p8d22f33ea8)" style="fill: none; stroke: #f29888; stroke-width: 0.2"/>
    <path d="M 268.394742 420.786049 
L 280.146212 414.172867 
L 283.970614 412.021059 
L 293.662361 407.28624 
L 305.202685 400.774022 
L 316.165503 393.792741 
L 316.81712 393.376262 
L 337.235369 381.096441 
" clip-path="url(#p8d22f33ea8)" style="fill: none; stroke: #f29888; stroke-width: 0.2"/>
    <path d="M 271.721342 405.954769 
L 255.658856 407.4461 
L 254.074561 407.59334 
L 251.482078 407.831028 
L 248.770738 407.59334 
L 245.470706 406.651004 
L 239.930567 404.29306 
L 202.447237 385.433713 
L 189.11287 378.982495 
L 188.286464 378.582843 
" clip-path="url(#p8d22f33ea8)" style="fill: none; stroke: #f29888; stroke-width: 0.2"/>
    <path d="M 255.658856 407.4461 
L 250.501856 403.104622 
L 249.718798 400.914952 
L 248.623914 397.004677 
L 247.060594 393.563467 
L 246.541818 391.79869 
L 246.278934 390.904732 
L 245.965711 384.962544 
L 246.435546 376.517276 
L 245.497274 358.387819 
L 245.18405 350.398994 
L 245.511257 336.074641 
L 246.329273 329.013429 
L 247.046611 325.534357 
L 247.576574 323.344687 
" clip-path="url(#p8d22f33ea8)" style="fill: none; stroke: #f29888; stroke-width: 0.2"/>
    <path d="M 245.497274 358.387819 
L 239.540436 356.728213 
L 209.082259 345.69152 
" clip-path="url(#p8d22f33ea8)" style="fill: none; stroke: #f29888; stroke-width: 0.2"/>
    <path d="M 292.42345 308.20841 
L 297.82935 327.198169 
L 305.557858 356.780799 
L 307.047067 361.976269 
L 310.89524 377.173546 
L 316.165503 393.792741 
" clip-path="url(#p8d22f33ea8)" style="fill: none; stroke: #f29888; stroke-width: 0.2"/>
    <path d="M 341.072355 392.046894 
L 337.235369 381.096441 
L 330.731789 364.820106 
L 325.585976 349.088558 
L 310.457566 305.198402 
L 309.34031 302.728976 
" clip-path="url(#p8d22f33ea8)" style="fill: none; stroke: #f29888; stroke-width: 0.2"/>
    <path d="M 195.487805 335.731782 
L 209.799596 332.860601 
L 211.414654 332.519845 
L 231.937778 328.199402 
L 244.545019 324.278609 
L 247.576574 323.344687 
L 261.632473 319.013726 
" clip-path="url(#p8d22f33ea8)" style="fill: none; stroke: #f29888; stroke-width: 0.2"/>
    <path d="M 260.00483 240.391746 
L 260.51242 243.622613 
L 260.915136 250.309415 
L 261.298275 268.91004 
L 262.576338 290.564845 
L 262.767908 299.731589 
L 261.632473 319.013726 
" clip-path="url(#p8d22f33ea8)" style="fill: none; stroke: #f29888; stroke-width: 0.2"/>
    <path d="M 134.869292 450.69471 
L 144.011499 459.118944 
L 154.199649 467.806107 
L 162.884606 477.080127 
L 166.736974 478.384253 
L 172.418343 480.605474 
L 181.626272 486.680178 
L 187.567728 490.72928 
L 192.466038 492.100716 
L 194.097876 493.013604 
L 200.823789 498.566657 
L 202.501771 499.952817 
" clip-path="url(#p8d22f33ea8)" style="fill: none; stroke: #f29888; stroke-width: 0.2"/>
    <path d="M 203.886107 486.19639 
L 202.552111 484.951159 
L 199.005975 481.638258 
L 186.682592 468.176311 
L 171.687023 453.525926 
L 158.421173 441.225071 
L 153.197055 435.934947 
L 149.969735 432.466392 
" clip-path="url(#p8d22f33ea8)" style="fill: none; stroke: #f29888; stroke-width: 0.2"/>
    <path d="M 149.969735 432.466392 
L 149.429984 433.057455 
L 148.673494 433.886206 
L 145.395835 437.499898 
L 140.353498 443.130778 
L 134.869292 450.69471 
L 129.00754 457.924196 
L 126.739467 460.614482 
L 125.058688 461.706162 
L 123.797405 462.966116 
L 123.292611 463.849557 
L 122.789217 464.732997 
L 120.470804 469.265887 
L 113.891715 479.414934 
L 111.885128 481.981117 
L 110.100873 484.322234 
" clip-path="url(#p8d22f33ea8)" style="fill: none; stroke: #f29888; stroke-width: 0.2"/>
    <path d="M 123.292611 463.849557 
L 97.585921 428.272154 
" clip-path="url(#p8d22f33ea8)" style="fill: none; stroke: #f29888; stroke-width: 0.2"/>
    <path d="M 149.429984 433.057455 
L 148.21904 430.945612 
L 146.65572 429.849726 
L 144.935788 429.225007 
L 143.840904 428.12912 
L 143.684293 426.252862 
L 144.622565 424.532256 
L 146.342497 422.655997 
L 149.002099 420.621981 
L 154.788341 417.025117 
L 157.759769 414.835447 
L 162.294516 412.018955 
L 163.859235 411.394237 
L 165.89239 411.394237 
L 168.23737 410.925172 
L 170.740361 409.829286 
L 175.744943 408.579849 
L 177.93471 407.953027 
L 178.716371 406.545832 
L 181.687798 398.100564 
L 187.455862 380.711514 
L 188.286464 378.582843 
L 189.585502 346.58127 
L 189.793851 341.6929 
L 190.722335 339.585264 
L 191.985016 337.88359 
L 193.746898 336.301811 
L 195.487805 335.731782 
" clip-path="url(#p8d22f33ea8)" style="fill: none; stroke: #f29888; stroke-width: 0.2"/>
    <path d="M 246.541818 391.79869 
L 241.110748 389.078956 
L 234.152714 384.678582 
L 227.706465 380.177243 
L 225.251018 378.641739 
L 222.48794 377.413337 
L 218.291586 376.288002 
L 213.278613 374.855567 
L 196.803623 369.740027 
" clip-path="url(#p8d22f33ea8)" style="fill: none; stroke: #f29888; stroke-width: 0.2"/>
    <path d="M 189.11287 378.982495 
L 191.789252 377.106236 
L 192.608667 376.288002 
L 196.803623 369.740027 
L 197.519562 368.204523 
L 197.723716 366.568055 
L 198.133424 365.133517 
L 200.486794 362.167681 
L 201.510363 360.52911 
L 202.022148 358.789574 
L 202.022148 356.742937 
L 202.63601 353.878066 
L 203.659579 351.524329 
L 205.501165 349.170592 
L 209.082259 345.69152 
L 210.821767 342.929717 
L 211.02732 341.087113 
L 211.02732 338.018209 
L 211.129397 335.868505 
L 211.414654 332.519845 
" clip-path="url(#p8d22f33ea8)" style="fill: none; stroke: #f29888; stroke-width: 0.2"/>
    <path d="M 139.27561 292.014012 
L 143.572427 305.692708 
L 156.670478 333.851316 
L 173.707593 342.462756 
L 186.084112 345.872414 
L 189.585502 346.58127 
" clip-path="url(#p8d22f33ea8)" style="fill: none; stroke: #f29888; stroke-width: 0.2"/>
    <path d="M 65.338913 299.68109 
L 66.898419 300.299515 
L 74.101159 301.176645 
L 95.534587 317.162708 
L 117.844762 325.244083 
L 137.521902 328.054265 
L 148.940573 334.73055 
L 156.670478 333.851316 
" clip-path="url(#p8d22f33ea8)" style="fill: none; stroke: #f29888; stroke-width: 0.2"/>
    <path d="M 230.525476 140.234856 
L 230.427447 140.230763 
" clip-path="url(#p8d22f33ea8)" style="fill: none; stroke: #f29888; stroke-width: 0.2"/>
    <path d="M 354.016591 360.226216 
L 391.101401 348.98549 
L 412.690043 343.148474 
" clip-path="url(#p8d22f33ea8)" style="fill: none; stroke: #f29888; stroke-width: 0.2"/>
    <path d="M 360.281059 380.078382 
L 360.145422 378.176882 
L 359.331601 374.781947 
L 354.016591 360.226216 
L 334.349239 306.355288 
L 331.555398 296.645859 
" clip-path="url(#p8d22f33ea8)" style="fill: none; stroke: #f29888; stroke-width: 0.2"/>
    <path d="M 391.101401 348.98549 
L 379.289803 313.143055 
L 370.017552 284.105213 
" clip-path="url(#p8d22f33ea8)" style="fill: none; stroke: #f29888; stroke-width: 0.2"/>
    <path d="M 389.287782 274.591403 
L 390.69449 276.486592 
L 392.323532 279.20212 
L 394.223847 283.817043 
L 403.863856 315.044555 
L 412.690043 343.148474 
L 415.132906 350.207582 
" clip-path="url(#p8d22f33ea8)" style="fill: none; stroke: #f29888; stroke-width: 0.2"/>
    <path d="M 408.546825 261.655312 
L 409.838871 263.725087 
L 411.874823 267.525984 
L 413.639501 271.598223 
L 415.541215 276.349869 
L 417.848441 283.817043 
L 424.501641 305.947223 
L 428.168032 321.424256 
L 428.71058 324.95381 
" clip-path="url(#p8d22f33ea8)" style="fill: none; stroke: #f29888; stroke-width: 0.2"/>
    <path d="M 261.632473 319.013726 
L 292.42345 308.20841 
L 309.34031 302.728976 
L 313.317128 301.521608 
L 324.211429 298.280223 
L 330.45632 296.95927 
L 331.555398 296.645859 
L 335.107128 295.636213 
L 362.649811 286.562019 
L 370.017552 284.105213 
L 380.882488 279.896251 
L 383.227469 278.621573 
L 389.287782 274.591403 
L 394.261601 270.967194 
L 408.546825 261.655312 
L 413.972301 258.119448 
L 424.364606 250.204243 
L 433.959868 242.89693 
" clip-path="url(#p8d22f33ea8)" style="fill: none; stroke: #f29888; stroke-width: 0.2"/>
    <path d="M 345.672824 183.695912 
L 374.560689 166.740169 
L 419.471889 240.177196 
L 424.364606 250.204243 
" clip-path="url(#p8d22f33ea8)" style="fill: none; stroke: #f29888; stroke-width: 0.2"/>
    <path d="M 433.959868 242.89693 
L 437.849187 239.575138 
" clip-path="url(#p8d22f33ea8)" style="fill: none; stroke: #f29888; stroke-width: 0.2"/>
    <path d="M 229.074374 135.143987 
L 230.525476 140.234856 
L 236.998293 163.012892 
L 245.652487 191.047398 
L 257.529806 231.100898 
L 259.318256 237.335463 
L 260.00483 240.391746 
" clip-path="url(#p8d22f33ea8)" style="fill: none; stroke: #f29888; stroke-width: 0.2"/>
   </g>
   <g id="LineCollection_2">
    <path d="M 146.790801 548.641176 
L 150.819913 544.345692 
L 157.403197 539.019809 
L 167.276725 531.756668 
L 176.140668 526.079512 
L 185.832414 520.505425 
L 194.074105 515.694882 
L 207.025332 508.698876 
L 215.980165 503.762128 
L 242.130122 489.338913 
L 267.285875 475.288005 
L 301.393665 456.718931 
L 331.563788 439.809463 
L 354.605284 426.795546 
L 364.401904 420.987978 
L 370.685948 417.262805 
L 376.72249 413.14429 
" clip-path="url(#p8d22f33ea8)" style="fill: none; stroke-dasharray: 3.7,1.6; stroke-dashoffset: 0; stroke: #f29888"/>
    <path d="M 433.243411 399.0302 
L 430.932508 398.990314 
L 422.729971 399.305829 
L 414.197431 400.338613 
L 407.038039 401.609084 
L 400.049242 403.508481 
L 392.839511 405.849597 
L 381.672538 410.37197 
L 376.72249 413.14429 
L 357.325013 424.008502 
L 322.112552 443.732359 
L 277.180378 468.514963 
L 262.658839 476.741475 
L 236.862656 490.851279 
L 236.555026 491.025863 
L 213.647769 504.006125 
L 206.58626 507.874332 
L 197.602063 512.712219 
L 182.266702 521.344693 
L 168.799494 528.877073 
L 164.10394 531.565256 
L 144.755874 542.644254 
" clip-path="url(#p8d22f33ea8)" style="fill: none; stroke-dasharray: 3.7,1.6; stroke-dashoffset: 0; stroke: #f29888"/>
    <path d="M 194.074105 515.694882 
L 198.473215 514.266653 
L 204.081871 512.615461 
L 208.562084 511.584781 
L 217.168736 510.196518 
L 221.513312 509.975658 
L 224.702877 509.756901 
L 228.441981 509.205803 
L 232.346087 507.996331 
L 239.164289 505.741455 
" clip-path="url(#p8d22f33ea8)" style="fill: none; stroke-dasharray: 3.7,1.6; stroke-dashoffset: 0; stroke: #f29888"/>
    <path d="M 357.325013 424.008502 
L 347.368984 428.272154 
L 346.167829 428.850597 
L 332.408373 436.435563 
L 312.847293 447.2535 
L 289.390497 460.309485 
L 260.96128 476.2661 
L 247.866026 483.766929 
L 242.602754 486.917866 
L 236.555026 491.025863 
" clip-path="url(#p8d22f33ea8)" style="fill: none; stroke-dasharray: 3.7,1.6; stroke-dashoffset: 0; stroke: #f29888"/>
    <path d="M 255.218385 483.846859 
L 265.177211 478.647182 
L 276.460244 472.370549 
L 304.019707 456.702104 
L 335.060983 439.544431 
L 347.700386 432.20767 
L 351.471651 429.555246 
" clip-path="url(#p8d22f33ea8)" style="fill: none; stroke-dasharray: 3.7,1.6; stroke-dashoffset: 0; stroke: #f29888"/>
    <path d="M 242.130122 489.338913 
L 249.611127 486.198493 
L 255.218385 483.846859 
L 260.098517 481.810739 
L 266.582521 478.878559 
L 274.740312 474.221567 
L 294.699913 462.949289 
L 324.779146 446.285922 
L 339.900564 437.817516 
L 347.103304 433.638002 
L 355.297451 427.973467 
L 361.290645 423.37537 
L 364.401904 420.987978 
" clip-path="url(#p8d22f33ea8)" style="fill: none; stroke-dasharray: 3.7,1.6; stroke-dashoffset: 0; stroke: #f29888"/>
    <path d="M 249.611127 486.198493 
L 267.385156 476.390202 
L 279.775658 469.219612 
L 305.055861 455.29491 
L 338.956699 436.353529 
L 346.955082 432.083568 
L 351.471651 429.555246 
L 361.290645 423.37537 
" clip-path="url(#p8d22f33ea8)" style="fill: none; stroke-dasharray: 3.7,1.6; stroke-dashoffset: 0; stroke: #f29888"/>
   </g>
  </g>
 </g>
 <defs>
  <clipPath id="p8d22f33ea8">
   <rect x="7.2" y="7.2" width="837" height="739.32658"/>
  </clipPath>
 </defs>
</svg>
