<?xml version="1.0" encoding="utf-8" standalone="no"?>
<!DOCTYPE svg PUBLIC "-//W3C//DTD SVG 1.1//EN"
  "http://www.w3.org/Graphics/SVG/1.1/DTD/svg11.dtd">
<svg xmlns:xlink="http://www.w3.org/1999/xlink" width="851.4pt" height="435.950445pt" viewBox="0 0 851.4 435.950445" xmlns="http://www.w3.org/2000/svg" version="1.1">
 <metadata>
  <rdf:RDF xmlns:dc="http://purl.org/dc/elements/1.1/" xmlns:cc="http://creativecommons.org/ns#" xmlns:rdf="http://www.w3.org/1999/02/22-rdf-syntax-ns#">
   <cc:Work>
    <dc:type rdf:resource="http://purl.org/dc/dcmitype/StillImage"/>
    <dc:date>2025-03-16T14:38:39.659022</dc:date>
    <dc:format>image/svg+xml</dc:format>
    <dc:creator>
     <cc:Agent>
      <dc:title>Matplotlib v3.10.1, https://matplotlib.org/</dc:title>
     </cc:Agent>
    </dc:creator>
   </cc:Work>
  </rdf:RDF>
 </metadata>
 <defs>
  <style type="text/css">*{stroke-linejoin: round; stroke-linecap: butt}</style>
 </defs>
 <g id="figure_1">
  <g id="patch_1">
   <path d="M 0 435.950445 
L 851.4 435.950445 
L 851.4 0 
L 0 0 
z
" style="fill: #ffffff"/>
  </g>
  <g id="axes_1">
   <g id="PatchCollection_1">
    <path d="M 439.723008 409.589061 
L 515.634023 317.354249 
L 528.837765 323.377747 
L 548.855356 332.523039 
L 569.900372 342.183803 
L 606.52863 358.841091 
L 639.562812 376.152856 
L 671.248737 386.508639 
L 691.170843 387.956595 
L 707.78151 385.298147 
L 736.480647 382.263231 
L 756.215601 380.027586 
L 771.195375 376.946336 
L 782.626905 374.982907 
L 788.749439 374.531145 
L 794.283782 353.205645 
L 806.154545 332.152362 
L 773.647444 293.990028 
L 742.618459 289.385527 
L 355.989817 117.113488 
L 171.469716 26.361384 
L 87.17507 100.062355 
L 109.64855 132.809333 
L 45.245455 267.33605 
L 108.365224 286.286901 
L 102.586439 359.495567 
L 226.522866 378.759177 
L 259.274411 308.122081 
L 294.592607 322.891234 
L 330.552466 322.248341 
L 318.994895 351.786648 
L 338.26006 361.424245 
L 412.108586 392.248337 
L 439.723008 409.589061 
" clip-path="url(#p5a10f080ea)" style="fill: #d1d4f2"/>
   </g>
   <g id="LineCollection_1">
    <path d="M 55.827905 270.513287 
L 56.887053 267.671976 
L 56.173941 244.508367 
" clip-path="url(#p5a10f080ea)" style="fill: none; stroke: #4d59c1; stroke-width: 0.2"/>
    <path d="M 61.183758 234.043743 
L 68.563026 230.986557 
L 76.610549 231.872706 
" clip-path="url(#p5a10f080ea)" style="fill: none; stroke: #4d59c1; stroke-width: 0.2"/>
    <path d="M 256.302901 299.694975 
L 261.371274 289.588241 
L 267.512904 278.31735 
L 279.601375 265.204658 
L 283.963155 258.300803 
L 295.849197 233.222201 
" clip-path="url(#p5a10f080ea)" style="fill: none; stroke: #4d59c1; stroke-width: 0.2"/>
    <path d="M 353.980801 122.401424 
L 334.314597 166.656758 
L 315.454291 205.375107 
L 303.679012 236.262909 
" clip-path="url(#p5a10f080ea)" style="fill: none; stroke: #4d59c1; stroke-width: 0.2"/>
    <path d="M 94.036624 110.060591 
L 98.946529 98.695485 
L 111.443678 91.525206 
L 129.066492 77.595867 
L 144.023349 63.046803 
L 160.334284 36.097378 
" clip-path="url(#p5a10f080ea)" style="fill: none; stroke: #4d59c1; stroke-width: 0.2"/>
    <path d="M 459.912473 374.00988 
L 449.145523 383.838607 
L 437.477188 394.802532 
L 432.756382 400.229472 
L 428.706752 402.671304 
" clip-path="url(#p5a10f080ea)" style="fill: none; stroke: #4d59c1; stroke-width: 0.2"/>
    <path d="M 466.037543 377.615886 
L 459.912473 374.00988 
L 403.5569 346.545047 
L 388.661154 341.900003 
L 364.071715 334.318505 
L 342.09094 322.775398 
L 333.749323 319.775232 
L 322.218487 317.041491 
L 310.802235 317.105201 
L 292.304773 317.041491 
L 279.658667 313.4216 
L 256.302901 299.694975 
L 239.161334 294.221701 
L 192.579662 277.975632 
L 147.246941 261.521058 
L 97.307997 238.429052 
L 76.610549 231.872706 
" clip-path="url(#p5a10f080ea)" style="fill: none; stroke: #4d59c1; stroke-width: 0.2"/>
    <path d="M 459.912473 374.00988 
L 466.87528 372.370794 
L 471.580808 368.67561 
L 484.547746 352.348455 
L 514.037504 315.298152 
" clip-path="url(#p5a10f080ea)" style="fill: none; stroke: #4d59c1; stroke-width: 0.2"/>
    <path d="M 102.253008 148.257317 
L 114.040885 153.074929 
L 193.843891 188.21393 
L 280.716647 226.833818 
L 295.849197 233.222201 
L 303.679012 236.262909 
L 366.359548 262.997973 
L 388.897958 270.579472 
L 421.065131 277.442784 
L 448.011154 282.771263 
L 471.878723 294.140615 
L 506.299355 311.660886 
L 514.037504 315.298152 
L 525.251327 320.672965 
L 565.924353 339.218388 
L 606.288006 357.555306 
L 639.581909 374.872862 
L 671.340403 385.425567 
L 690.701054 386.960401 
L 707.708941 384.400414 
L 752.579512 379.581616 
L 779.261994 373.187441 
L 787.317156 372.156496 
L 789.328671 372.299188 
" clip-path="url(#p5a10f080ea)" style="fill: none; stroke: #4d59c1; stroke-width: 0.5"/>
    <path d="M 779.261994 373.187441 
L 772.054745 360.480178 
L 768.934277 357.063001 
L 742.916374 341.083356 
L 648.255816 295.39165 
L 521.225657 235.967526 
L 439.062248 198.477044 
L 393.729527 184.686709 
L 334.314597 166.656758 
L 302.143605 155.183153 
L 213.47954 110.580309 
L 163.895802 86.81066 
L 111.443678 91.525206 
" clip-path="url(#p5a10f080ea)" style="fill: none; stroke: #4d59c1; stroke-width: 0.2"/>
   </g>
  </g>
 </g>
 <defs>
  <clipPath id="p5a10f080ea">
   <rect x="7.2" y="7.2" width="837" height="421.550445"/>
  </clipPath>
 </defs>
</svg>
