<?xml version="1.0" encoding="utf-8" standalone="no"?>
<!DOCTYPE svg PUBLIC "-//W3C//DTD SVG 1.1//EN"
  "http://www.w3.org/Graphics/SVG/1.1/DTD/svg11.dtd">
<svg xmlns:xlink="http://www.w3.org/1999/xlink" width="851.4pt" height="699.331905pt" viewBox="0 0 851.4 699.331905" xmlns="http://www.w3.org/2000/svg" version="1.1">
 <metadata>
  <rdf:RDF xmlns:dc="http://purl.org/dc/elements/1.1/" xmlns:cc="http://creativecommons.org/ns#" xmlns:rdf="http://www.w3.org/1999/02/22-rdf-syntax-ns#">
   <cc:Work>
    <dc:type rdf:resource="http://purl.org/dc/dcmitype/StillImage"/>
    <dc:date>2025-03-16T14:30:01.352617</dc:date>
    <dc:format>image/svg+xml</dc:format>
    <dc:creator>
     <cc:Agent>
      <dc:title>Matplotlib v3.10.1, https://matplotlib.org/</dc:title>
     </cc:Agent>
    </dc:creator>
   </cc:Work>
  </rdf:RDF>
 </metadata>
 <defs>
  <style type="text/css">*{stroke-linejoin: round; stroke-linecap: butt}</style>
 </defs>
 <g id="figure_1">
  <g id="patch_1">
   <path d="M 0 699.331905 
L 851.4 699.331905 
L 851.4 0 
L 0 0 
z
" style="fill: #ffffff"/>
  </g>
  <g id="axes_1">
   <g id="PatchCollection_1">
    <path d="M 89.819877 469.077682 
L 153.88052 553.84575 
L 269.075005 659.790424 
L 372.785706 567.978556 
L 462.068976 660.998637 
L 580.357992 528.148619 
L 617.075377 550.615629 
L 806.154545 363.071365 
L 703.058362 239.90349 
L 666.198322 210.022818 
L 605.418759 175.732579 
L 545.067164 144.417668 
L 555.072268 57.068791 
L 534.071701 38.333268 
L 478.189071 58.30988 
L 272.759363 73.655009 
L 66.920892 81.479627 
L 45.245455 87.212475 
L 52.062751 163.194286 
L 129.483651 163.551818 
L 244.31601 218.233735 
L 68.613557 407.01087 
L 89.819877 469.077682 
" clip-path="url(#p0a0b60b7a0)" style="fill: #f29888"/>
   </g>
   <g id="PatchCollection_2">
    <path d="M 445.309673 410.130033 
L 432.851989 422.388875 
L 429.214269 418.694373 
L 441.669209 406.431421 
L 445.309673 410.130033 
" clip-path="url(#p0a0b60b7a0)" style="fill: #f29888"/>
    <path d="M 427.025052 407.023199 
L 414.336924 419.614917 
L 410.589468 415.838223 
L 423.277596 403.246506 
L 427.025052 407.023199 
" clip-path="url(#p0a0b60b7a0)" style="fill: #f29888"/>
    <path d="M 411.489297 355.698799 
L 398.05497 369.038458 
L 394.307514 365.261765 
L 407.744584 351.926215 
L 411.489297 355.698799 
" clip-path="url(#p0a0b60b7a0)" style="fill: #f29888"/>
    <path d="M 420.361384 313.144218 
L 413.27798 325.945524 
L 394.513267 313.641476 
L 397.248416 308.796295 
L 401.846319 311.159297 
L 401.10012 311.903128 
L 411.538678 318.240083 
L 415.390382 310.041494 
L 420.361384 313.144218 
" clip-path="url(#p0a0b60b7a0)" style="fill: #f29888"/>
    <path d="M 690.331827 245.566475 
L 685.621445 249.832207 
L 683.119483 247.111673 
L 687.975264 242.841831 
L 690.331827 245.566475 
" clip-path="url(#p0a0b60b7a0)" style="fill: #f29888"/>
    <path d="M 396.949388 436.72305 
L 383.515061 450.066819 
L 379.767605 446.290125 
L 393.204676 432.950466 
L 396.949388 436.72305 
" clip-path="url(#p0a0b60b7a0)" style="fill: #f29888"/>
    <path d="M 393.843883 372.848028 
L 380.409556 386.187687 
L 376.6621 382.410994 
L 390.09917 369.075444 
L 393.843883 372.848028 
" clip-path="url(#p0a0b60b7a0)" style="fill: #f29888"/>
    <path d="M 127.579746 113.702753 
L 129.615333 147.397105 
L 122.501751 147.8245 
L 120.778909 119.226013 
L 117.736502 119.406834 
L 117.429243 114.315079 
L 127.579746 113.702753 
" clip-path="url(#p0a0b60b7a0)" style="fill: #f29888"/>
    <path d="M 80.486901 119.715052 
L 81.41142 133.095807 
L 72.034551 133.745118 
L 71.110032 120.364364 
L 80.486901 119.715052 
" clip-path="url(#p0a0b60b7a0)" style="fill: #f29888"/>
    <path d="M 114.762679 128.579391 
L 95.943099 130.165684 
L 94.736012 115.852057 
L 113.555592 114.265764 
L 114.762679 128.579391 
" clip-path="url(#p0a0b60b7a0)" style="fill: #f29888"/>
    <path d="M 145.425426 98.139818 
L 142.24585 130.851982 
L 132.956768 129.951987 
L 136.130858 97.235713 
L 145.425426 98.139818 
" clip-path="url(#p0a0b60b7a0)" style="fill: #f29888"/>
   </g>
   <g id="LineCollection_1">
    <path d="M 266.717016 657.621775 
L 267.758183 656.67948 
" clip-path="url(#p0a0b60b7a0)" style="fill: none; stroke: #f29888; stroke-width: 0.2"/>
    <path d="M 146.492601 485.95568 
L 217.707976 560.589552 
L 289.414417 635.149451 
" clip-path="url(#p0a0b60b7a0)" style="fill: none; stroke: #f29888; stroke-width: 0.2"/>
    <path d="M 217.707976 560.589552 
L 236.105076 542.043069 
L 256.334753 522.465085 
L 275.692035 502.525459 
L 295.266045 482.729668 
" clip-path="url(#p0a0b60b7a0)" style="fill: none; stroke: #f29888; stroke-width: 0.2"/>
    <path d="M 88.386361 464.882057 
L 89.070934 464.454418 
L 94.554949 461.922923 
" clip-path="url(#p0a0b60b7a0)" style="fill: none; stroke: #f29888; stroke-width: 0.2"/>
    <path d="M 165.759351 467.421526 
L 236.105076 542.043069 
" clip-path="url(#p0a0b60b7a0)" style="fill: none; stroke: #f29888; stroke-width: 0.2"/>
    <path d="M 145.683304 410.964275 
L 165.611209 429.605277 
L 184.669463 449.113399 
L 224.223502 489.596757 
L 256.334753 522.465085 
L 327.588536 596.59759 
" clip-path="url(#p0a0b60b7a0)" style="fill: none; stroke: #f29888; stroke-width: 0.2"/>
    <path d="M 113.65984 479.939271 
L 110.491238 479.298179 
L 106.784933 477.559831 
L 104.269254 475.279021 
L 102.0334 472.435199 
L 98.20913 466.842077 
L 94.554949 461.922923 
" clip-path="url(#p0a0b60b7a0)" style="fill: none; stroke: #f29888; stroke-width: 0.2"/>
    <path d="M 224.223502 489.596757 
L 243.462819 470.80781 
L 263.876302 451.422976 
" clip-path="url(#p0a0b60b7a0)" style="fill: none; stroke: #f29888; stroke-width: 0.2"/>
    <path d="M 203.579575 429.745003 
L 243.462819 470.80781 
" clip-path="url(#p0a0b60b7a0)" style="fill: none; stroke: #f29888; stroke-width: 0.2"/>
    <path d="M 113.65984 479.939271 
L 165.611209 429.605277 
L 167.772992 426.124473 
L 253.264912 341.50435 
" clip-path="url(#p0a0b60b7a0)" style="fill: none; stroke: #f29888; stroke-width: 0.2"/>
    <path d="M 333.591009 602.676406 
L 327.588536 596.59759 
" clip-path="url(#p0a0b60b7a0)" style="fill: none; stroke: #f29888; stroke-width: 0.2"/>
    <path d="M 365.397786 557.65121 
L 387.416146 579.846989 
L 407.873523 601.192088 
L 426.778148 619.993363 
L 428.180015 620.318019 
" clip-path="url(#p0a0b60b7a0)" style="fill: none; stroke: #f29888; stroke-width: 0.2"/>
    <path d="M 428.180015 620.318019 
L 468.9576 579.423704 
L 498.410517 549.506046 
L 554.361733 493.989886 
" clip-path="url(#p0a0b60b7a0)" style="fill: none; stroke: #f29888; stroke-width: 0.2"/>
    <path d="M 347.159802 576.925086 
L 319.372116 547.997834 
L 275.692035 502.525459 
" clip-path="url(#p0a0b60b7a0)" style="fill: none; stroke: #f29888; stroke-width: 0.2"/>
    <path d="M 339.612766 527.980126 
L 319.372116 547.997834 
" clip-path="url(#p0a0b60b7a0)" style="fill: none; stroke: #f29888; stroke-width: 0.2"/>
    <path d="M 399.547368 525.736302 
L 359.227926 482.815969 
" clip-path="url(#p0a0b60b7a0)" style="fill: none; stroke: #f29888; stroke-width: 0.2"/>
    <path d="M 396.935671 445.049036 
L 439.779021 488.33101 
L 459.778254 509.75419 
L 479.92563 530.61025 
L 498.410517 549.506046 
" clip-path="url(#p0a0b60b7a0)" style="fill: none; stroke: #f29888; stroke-width: 0.2"/>
    <path d="M 366.881954 556.027931 
L 339.612766 527.980126 
L 325.783393 513.7528 
L 295.266045 482.729668 
L 263.876302 451.422976 
L 241.54794 429.157334 
L 223.005441 410.171128 
" clip-path="url(#p0a0b60b7a0)" style="fill: none; stroke: #f29888; stroke-width: 0.2"/>
    <path d="M 452.362901 390.839719 
L 396.935671 445.049036 
L 374.733505 466.406463 
L 359.227926 482.815969 
L 325.783393 513.7528 
" clip-path="url(#p0a0b60b7a0)" style="fill: none; stroke: #f29888; stroke-width: 0.2"/>
    <path d="M 267.758183 656.67948 
L 275.689292 649.500064 
L 289.414417 635.149451 
L 327.588536 596.59759 
L 347.159802 576.925086 
L 365.397786 557.65121 
L 366.881954 556.027931 
L 399.547368 525.736302 
L 439.779021 488.33101 
L 497.038828 434.409363 
L 531.246021 400.850627 
L 562.561692 372.400085 
L 645.08802 294.121026 
L 684.743564 256.510256 
L 702.681228 239.597765 
" clip-path="url(#p0a0b60b7a0)" style="fill: none; stroke: #f29888; stroke-width: 0.2"/>
    <path d="M 621.588918 546.138728 
L 620.123271 545.675928 
L 616.554135 543.75265 
" clip-path="url(#p0a0b60b7a0)" style="fill: none; stroke: #f29888; stroke-width: 0.2"/>
    <path d="M 497.038828 434.409363 
L 515.806284 454.862685 
L 535.103212 474.444778 
L 552.979069 492.588523 
L 554.361733 493.989886 
L 571.576436 511.533633 
L 574.303355 514.315811 
L 586.64033 526.270546 
L 589.732118 528.793821 
L 592.714171 530.996549 
L 600.513598 536.347208 
L 607.761605 540.695131 
L 612.205879 542.885531 
L 616.554135 543.75265 
" clip-path="url(#p0a0b60b7a0)" style="fill: none; stroke: #f29888; stroke-width: 0.2"/>
    <path d="M 804.895334 362.796024 
L 777.069241 389.857532 
L 753.983707 412.862896 
L 673.827659 489.810455 
L 616.554135 543.75265 
" clip-path="url(#p0a0b60b7a0)" style="fill: none; stroke: #f29888; stroke-width: 0.2"/>
    <path d="M 737.720546 281.31402 
L 681.023542 333.429048 
L 599.375095 410.984823 
L 535.103212 474.444778 
L 479.92563 530.61025 
L 407.873523 601.192088 
" clip-path="url(#p0a0b60b7a0)" style="fill: none; stroke: #f29888; stroke-width: 0.2"/>
    <path d="M 589.732118 528.793821 
L 593.561875 525.797945 
L 632.290157 489.872098 
L 654.582855 469.209188 
L 736.286169 392.890393 
L 789.079754 343.296122 
" clip-path="url(#p0a0b60b7a0)" style="fill: none; stroke: #f29888; stroke-width: 0.2"/>
    <path d="M 546.918945 354.026205 
L 562.561692 372.400085 
L 581.386759 392.130123 
L 599.375095 410.984823 
L 617.783169 429.806646 
L 636.405225 449.746272 
L 654.582855 469.209188 
L 673.827659 489.810455 
" clip-path="url(#p0a0b60b7a0)" style="fill: none; stroke: #f29888; stroke-width: 0.2"/>
    <path d="M 387.416146 579.846989 
L 459.778254 509.75419 
L 515.806284 454.862685 
L 581.386759 392.130123 
L 663.504323 314.829141 
L 720.412741 260.636576 
" clip-path="url(#p0a0b60b7a0)" style="fill: none; stroke: #f29888; stroke-width: 0.2"/>
    <path d="M 771.968113 322.22921 
L 717.92199 372.958986 
L 636.405225 449.746272 
L 571.576436 511.533633 
" clip-path="url(#p0a0b60b7a0)" style="fill: none; stroke: #f29888; stroke-width: 0.2"/>
    <path d="M 552.979069 492.588523 
L 617.783169 429.806646 
L 700.227195 353.812507 
L 755.323825 302.344463 
" clip-path="url(#p0a0b60b7a0)" style="fill: none; stroke: #f29888; stroke-width: 0.2"/>
    <path d="M 645.08802 294.121026 
L 663.504323 314.829141 
L 681.023542 333.429048 
L 700.227195 353.812507 
L 717.92199 372.958986 
L 734.983064 391.419168 
L 736.286169 392.890393 
L 753.983707 412.862896 
" clip-path="url(#p0a0b60b7a0)" style="fill: none; stroke: #f29888; stroke-width: 0.2"/>
    <path d="M 805.788683 363.434257 
L 804.895334 362.796024 
L 802.728065 360.375488 
L 797.680248 353.902918 
L 789.079754 343.296122 
L 784.372205 337.048243 
" clip-path="url(#p0a0b60b7a0)" style="fill: none; stroke: #f29888; stroke-width: 0.2"/>
    <path d="M 542.428034 238.625414 
L 515.721239 342.913932 
" clip-path="url(#p0a0b60b7a0)" style="fill: none; stroke: #f29888; stroke-width: 0.2"/>
    <path d="M 604.807296 175.415306 
L 597.520571 199.025613 
L 588.867954 225.183016 
L 580.182416 251.434939 
L 546.918945 354.026205 
L 531.246021 400.850627 
" clip-path="url(#p0a0b60b7a0)" style="fill: none; stroke: #f29888; stroke-width: 0.2"/>
    <path d="M 645.08802 294.121026 
L 629.316334 276.877277 
L 624.649846 272.985515 
L 621.533368 270.577308 
L 613.783322 265.074596 
L 608.43099 261.741736 
L 607.221159 261.047219 
L 598.585002 256.641762 
L 597.087117 256.169162 
L 594.486394 255.347248 
L 580.182416 251.434939 
" clip-path="url(#p0a0b60b7a0)" style="fill: none; stroke: #f29888; stroke-width: 0.2"/>
    <path d="M 608.43099 261.741736 
L 604.409196 268.723893 
L 603.764502 270.556761 
L 603.871494 272.175931 
L 604.949642 273.901949 
L 607.539391 276.059473 
L 612.932875 278.75535 
L 616.49378 279.836166 
L 618.326358 280.049864 
L 619.407249 279.836166 
L 620.375662 278.862198 
L 624.649846 272.985515 
" clip-path="url(#p0a0b60b7a0)" style="fill: none; stroke: #f29888; stroke-width: 0.2"/>
    <path d="M 536.126492 179.258589 
L 526.878562 206.583109 
L 518.615504 230.998055 
L 514.420877 243.388404 
L 484.199814 332.693435 
" clip-path="url(#p0a0b60b7a0)" style="fill: none; stroke: #f29888; stroke-width: 0.2"/>
    <path d="M 624.649846 272.985515 
L 628.46863 268.506086 
L 638.177448 257.286964 
L 639.579315 256.855459 
L 642.923494 257.936276 
L 644.542088 257.825318 
L 645.836962 257.073267 
L 646.4844 255.667794 
L 646.160681 254.266431 
L 644.542088 251.89521 
L 636.342128 244.124016 
L 633.214676 241.645947 
L 628.682613 239.056919 
L 610.559852 234.09256 
L 607.539391 233.878862 
L 604.84265 234.524065 
L 603.440783 235.818579 
L 602.793346 237.437749 
L 599.339432 249.51988 
L 597.087117 256.169162 
" clip-path="url(#p0a0b60b7a0)" style="fill: none; stroke: #f29888; stroke-width: 0.2"/>
    <path d="M 518.615504 230.998055 
L 542.428034 238.625414 
L 580.182416 251.434939 
" clip-path="url(#p0a0b60b7a0)" style="fill: none; stroke: #f29888; stroke-width: 0.2"/>
    <path d="M 470.526813 158.139516 
L 536.126492 179.258589 
L 597.520571 199.025613 
L 642.289773 214.773479 
L 646.391125 216.483059 
L 649.834066 218.521405 
L 654.080816 222.273441 
L 684.743564 256.510256 
" clip-path="url(#p0a0b60b7a0)" style="fill: none; stroke: #f29888; stroke-width: 0.2"/>
    <path d="M 480.680059 418.456018 
L 478.526506 424.168318 
L 478.419515 425.67653 
L 482.087412 428.91487 
L 484.136716 429.564182 
L 490.945783 428.466927 
" clip-path="url(#p0a0b60b7a0)" style="fill: none; stroke: #f29888; stroke-width: 0.2"/>
    <path d="M 253.264912 341.50435 
L 272.712726 361.50151 
L 291.145489 380.454839 
L 329.873771 420.276557 
L 374.733505 466.406463 
" clip-path="url(#p0a0b60b7a0)" style="fill: none; stroke: #f29888; stroke-width: 0.2"/>
    <path d="M 409.231496 346.242682 
L 392.957771 363.149447 
L 381.899211 369.860372 
L 379.04061 372.100087 
L 369.968255 382.16442 
L 368.228953 382.661677 
L 366.242747 383.035648 
L 363.880697 384.400025 
L 329.873771 420.276557 
" clip-path="url(#p0a0b60b7a0)" style="fill: none; stroke: #f29888; stroke-width: 0.2"/>
    <path d="M 459.224092 397.530096 
L 486.468589 364.456289 
" clip-path="url(#p0a0b60b7a0)" style="fill: none; stroke: #f29888; stroke-width: 0.2"/>
    <path d="M 369.968255 382.16442 
L 378.793706 390.367118 
L 379.910261 390.367118 
L 416.880036 354.149492 
" clip-path="url(#p0a0b60b7a0)" style="fill: none; stroke: #f29888; stroke-width: 0.2"/>
    <path d="M 260.433361 238.037746 
L 297.21933 260.311606 
L 321.498235 274.863588 
L 345.903335 289.263516 
L 367.875057 303.133309 
L 415.66472 331.929055 
L 414.638696 333.868772 
L 409.922827 341.430377 
L 408.866626 343.542696 
L 408.625209 344.845429 
L 409.231496 346.242682 
L 416.880036 354.149492 
L 452.362901 390.839719 
L 459.224092 397.530096 
L 480.680059 418.456018 
L 490.945783 428.466927 
L 497.038828 434.409363 
" clip-path="url(#p0a0b60b7a0)" style="fill: none; stroke: #f29888; stroke-width: 0.2"/>
    <path d="M 424.344771 314.479828 
L 484.199814 332.693435 
L 515.721239 342.913932 
L 546.918945 354.026205 
" clip-path="url(#p0a0b60b7a0)" style="fill: none; stroke: #f29888; stroke-width: 0.2"/>
    <path d="M 241.54794 429.157334 
L 291.145489 380.454839 
L 367.875057 303.133309 
L 396.07425 207.668035 
" clip-path="url(#p0a0b60b7a0)" style="fill: none; stroke: #f29888; stroke-width: 0.2"/>
    <path d="M 321.498235 274.863588 
L 253.264912 341.50435 
" clip-path="url(#p0a0b60b7a0)" style="fill: none; stroke: #f29888; stroke-width: 0.2"/>
    <path d="M 415.66472 331.929055 
L 419.275006 326.249632 
L 424.344771 314.479828 
L 450.672979 223.267957 
L 461.717823 187.033892 
L 469.105743 162.799767 
L 470.526813 158.139516 
L 478.488099 132.027319 
" clip-path="url(#p0a0b60b7a0)" style="fill: none; stroke: #f29888; stroke-width: 0.2"/>
    <path d="M 145.683304 410.964275 
L 133.933411 398.512283 
L 128.641433 390.954786 
L 127.129831 386.668507 
L 126.627793 382.386336 
L 128.139395 378.605533 
L 133.683764 373.312409 
" clip-path="url(#p0a0b60b7a0)" style="fill: none; stroke: #f29888; stroke-width: 0.2"/>
    <path d="M 132.136498 498.654246 
L 146.492601 485.95568 
L 165.759351 467.421526 
L 184.669463 449.113399 
L 203.579575 429.745003 
L 223.005441 410.171128 
L 272.712726 361.50151 
L 345.903335 289.263516 
L 372.527828 200.899576 
" clip-path="url(#p0a0b60b7a0)" style="fill: none; stroke: #f29888; stroke-width: 0.2"/>
    <path d="M 253.264912 341.50435 
L 235.542683 323.619508 
" clip-path="url(#p0a0b60b7a0)" style="fill: none; stroke: #f29888; stroke-width: 0.2"/>
    <path d="M 337.782933 123.549279 
L 319.8138 185.451708 
L 297.21933 260.311606 
L 294.964273 263.184195 
L 235.542683 323.619508 
L 145.683304 410.964275 
L 94.554949 461.922923 
" clip-path="url(#p0a0b60b7a0)" style="fill: none; stroke: #f29888; stroke-width: 0.2"/>
    <path d="M 235.542683 323.619508 
L 219.266216 307.79767 
L 213.795918 302.549751 
L 201.10779 293.360756 
L 185.743052 281.165328 
" clip-path="url(#p0a0b60b7a0)" style="fill: none; stroke: #f29888; stroke-width: 0.2"/>
    <path d="M 260.433361 238.037746 
L 261.434695 234.688447 
L 263.294706 231.113123 
L 286.199177 178.00928 
L 290.207254 167.846317 
" clip-path="url(#p0a0b60b7a0)" style="fill: none; stroke: #f29888; stroke-width: 0.2"/>
    <path d="M 260.433361 238.037746 
L 238.414786 224.574091 
" clip-path="url(#p0a0b60b7a0)" style="fill: none; stroke: #f29888; stroke-width: 0.2"/>
    <path d="M 166.04831 180.96351 
L 152.330511 172.716156 
L 149.06589 171.084657 
L 143.225236 168.162754 
L 135.047223 164.077843 
" clip-path="url(#p0a0b60b7a0)" style="fill: none; stroke: #f29888; stroke-width: 0.2"/>
    <path d="M 143.225236 168.162754 
L 138.767054 167.972474 
" clip-path="url(#p0a0b60b7a0)" style="fill: none; stroke: #f29888; stroke-width: 0.2"/>
    <path d="M 149.06589 171.084657 
L 154.179549 160.851832 
L 155.175395 157.24774 
L 156.168498 142.5848 
L 156.168498 138.236877 
L 154.802296 127.054741 
L 154.552648 122.332847 
L 154.925748 116.119179 
L 155.671947 109.905512 
L 156.29195 106.675391 
L 157.287797 104.189102 
L 159.027099 103.194587 
L 162.505704 101.953497 
L 163.748455 100.461724 
L 165.737404 98.349406 
L 168.222906 96.857632 
L 171.081507 95.242572 
L 175.056663 92.386422 
L 178.661463 89.402875 
L 181.893163 87.541241 
L 185.86832 86.049467 
L 187.733817 84.680981 
L 188.976568 81.948118 
L 190.839322 79.589226 
L 192.828272 78.344027 
L 193.669401 76.661487 
" clip-path="url(#p0a0b60b7a0)" style="fill: none; stroke: #f29888; stroke-width: 0.2"/>
    <path d="M 372.527828 200.899576 
L 396.07425 207.668035 
L 450.672979 223.267957 
L 514.420877 243.388404 
" clip-path="url(#p0a0b60b7a0)" style="fill: none; stroke: #f29888; stroke-width: 0.2"/>
    <path d="M 469.105743 162.799767 
L 404.855806 143.875205 
L 399.775068 143.102606 
L 395.786195 143.291646 
L 391.608029 143.669726 
L 387.619156 142.913566 
L 384.960822 140.443715 
L 382.49178 137.973864 
L 379.262823 136.453324 
L 337.782933 123.549279 
" clip-path="url(#p0a0b60b7a0)" style="fill: none; stroke: #f29888; stroke-width: 0.2"/>
    <path d="M 337.782933 123.549279 
L 334.839287 122.571202 
L 333.621227 121.675316 
L 333.050604 120.458884 
L 332.971046 118.260265 
L 334.921588 111.758927 
" clip-path="url(#p0a0b60b7a0)" style="fill: none; stroke: #f29888; stroke-width: 0.2"/>
    <path d="M 333.050604 120.458884 
L 329.229077 114.442476 
L 327.604996 112.408239 
L 323.945329 108.993188 
L 320.285661 107.123334 
L 316.870154 106.149366 
L 313.701552 105.984984 
L 304.919995 106.634296 
L 300.039524 106.88087 
L 297.356499 106.634296 
L 291.504872 105.171289 
L 288.333526 104.357595 
L 281.420211 103.141162 
L 264.510022 99.237072 
L 250.606578 95.822021 
L 233.449485 90.459034 
L 224.10005 86.797409 
L 217.027618 82.572772 
L 213.93583 79.971416 
L 213.12379 78.261835 
L 211.579268 77.123485 
L 209.790585 76.88102 
L 203.666904 76.281448 
" clip-path="url(#p0a0b60b7a0)" style="fill: none; stroke: #f29888; stroke-width: 0.2"/>
    <path d="M 461.717823 187.033892 
L 526.878562 206.583109 
L 588.867954 225.183016 
" clip-path="url(#p0a0b60b7a0)" style="fill: none; stroke: #f29888; stroke-width: 0.2"/>
   </g>
   <g id="LineCollection_2">
    <path d="M 67.261071 82.494691 
L 59.783639 83.36733 
" clip-path="url(#p0a0b60b7a0)" style="fill: none; stroke-dasharray: 3.7,1.6; stroke-dashoffset: 0; stroke: #f29888"/>
    <path d="M 111.984749 79.766597 
L 106.274664 80.324839 
L 67.261071 82.494691 
L 62.044088 82.769473 
" clip-path="url(#p0a0b60b7a0)" style="fill: none; stroke-dasharray: 3.7,1.6; stroke-dashoffset: 0; stroke: #f29888"/>
   </g>
  </g>
 </g>
 <defs>
  <clipPath id="p0a0b60b7a0">
   <rect x="7.2" y="7.2" width="837" height="684.931905"/>
  </clipPath>
 </defs>
</svg>
