<?xml version="1.0" encoding="utf-8" standalone="no"?>
<!DOCTYPE svg PUBLIC "-//W3C//DTD SVG 1.1//EN"
  "http://www.w3.org/Graphics/SVG/1.1/DTD/svg11.dtd">
<svg xmlns:xlink="http://www.w3.org/1999/xlink" width="842.978172pt" height="846pt" viewBox="0 0 842.978172 846" xmlns="http://www.w3.org/2000/svg" version="1.1">
 <metadata>
  <rdf:RDF xmlns:dc="http://purl.org/dc/elements/1.1/" xmlns:cc="http://creativecommons.org/ns#" xmlns:rdf="http://www.w3.org/1999/02/22-rdf-syntax-ns#">
   <cc:Work>
    <dc:type rdf:resource="http://purl.org/dc/dcmitype/StillImage"/>
    <dc:date>2025-03-16T14:29:46.687313</dc:date>
    <dc:format>image/svg+xml</dc:format>
    <dc:creator>
     <cc:Agent>
      <dc:title>Matplotlib v3.10.1, https://matplotlib.org/</dc:title>
     </cc:Agent>
    </dc:creator>
   </cc:Work>
  </rdf:RDF>
 </metadata>
 <defs>
  <style type="text/css">*{stroke-linejoin: round; stroke-linecap: butt}</style>
 </defs>
 <g id="figure_1">
  <g id="patch_1">
   <path d="M 0 846 
L 842.978172 846 
L 842.978172 0 
L 0 0 
z
" style="fill: #ffffff"/>
  </g>
  <g id="axes_1">
   <g id="PatchCollection_1">
    <path d="M 338.631524 45 
L 226.679081 272.692829 
L 112.98358 339.039871 
L 44.862644 538.076725 
L 460.971453 801 
L 669.670647 529.007459 
L 798.115528 394.262858 
L 651.554191 150.482014 
L 338.631524 45 
" clip-path="url(#pd5aaf732ad)" style="fill: #fbd6c9"/>
   </g>
   <g id="PatchCollection_2">
    <path d="M 281.666153 584.145008 
L 309.319823 599.857094 
L 307.015587 603.915409 
L 279.359082 588.203323 
L 281.666153 584.145008 
" clip-path="url(#pd5aaf732ad)" style="fill: #e6482f"/>
    <path d="M 276.12805 581.210205 
L 273.798305 585.238617 
L 255.185857 574.477674 
L 257.515602 570.449263 
L 276.12805 581.210205 
" clip-path="url(#pd5aaf732ad)" style="fill: #e6482f"/>
    <path d="M 225.950681 581.052144 
L 231.043809 571.858993 
L 235.122279 574.118834 
L 227.699407 587.519817 
L 195.533627 569.697406 
L 197.863372 565.493846 
L 225.950681 581.052144 
" clip-path="url(#pd5aaf732ad)" style="fill: #e6482f"/>
    <path d="M 328.955432 560.38037 
L 326.642693 585.20017 
L 322.436682 584.807154 
L 324.749421 559.987354 
L 328.955432 560.38037 
" clip-path="url(#pd5aaf732ad)" style="fill: #e6482f"/>
    <path d="M 313.557011 560.636684 
L 313.041179 565.891134 
L 263.85296 561.055331 
L 264.368792 555.800882 
L 313.557011 560.636684 
" clip-path="url(#pd5aaf732ad)" style="fill: #e6482f"/>
    <path d="M 241.513488 555.37369 
L 242.015148 554.596203 
L 242.899431 555.164367 
L 245.586289 550.982166 
L 247.607102 552.280827 
L 247.133784 553.015596 
L 250.702091 555.309612 
L 249.423849 557.29605 
L 247.890526 556.313511 
L 245.538107 559.97881 
L 243.899917 558.92792 
L 243.19986 560.012985 
L 240.235246 558.107713 
L 237.454857 562.43943 
L 235.425542 561.136498 
L 235.856347 560.465808 
L 231.253542 557.505374 
L 232.565795 555.463401 
L 233.469917 556.04438 
L 236.125599 551.909171 
L 241.513488 555.37369 
" clip-path="url(#pd5aaf732ad)" style="fill: #e6482f"/>
    <path d="M 190.386649 561.341549 
L 186.478234 559.226954 
L 191.438152 550.063706 
L 195.346568 552.178301 
L 190.386649 561.341549 
" clip-path="url(#pd5aaf732ad)" style="fill: #e6482f"/>
    <path d="M 204.376453 545.163824 
L 199.393861 554.369791 
L 195.346568 552.178301 
L 200.32916 542.972334 
L 204.376453 545.163824 
" clip-path="url(#pd5aaf732ad)" style="fill: #e6482f"/>
    <path d="M 207.341067 541.759112 
L 216.217904 546.624818 
L 213.86832 550.909544 
L 204.991483 546.039566 
L 207.341067 541.759112 
" clip-path="url(#pd5aaf732ad)" style="fill: #e6482f"/>
    <path d="M 165.153419 552.383353 
L 147.626484 542.758739 
L 149.959063 538.51246 
L 167.485998 548.141346 
L 165.153419 552.383353 
" clip-path="url(#pd5aaf732ad)" style="fill: #e6482f"/>
    <path d="M 233.614464 544.382065 
L 231.341404 548.491643 
L 226.826461 545.992575 
L 229.099521 541.882997 
L 233.614464 544.382065 
" clip-path="url(#pd5aaf732ad)" style="fill: #e6482f"/>
    <path d="M 325.225573 543.617393 
L 324.009684 547.163078 
L 322.017214 546.479573 
L 323.233103 542.933887 
L 325.225573 543.617393 
" clip-path="url(#pd5aaf732ad)" style="fill: #e6482f"/>
    <path d="M 185.012932 534.466961 
L 179.993495 543.314087 
L 176.615082 541.391727 
L 171.490777 550.414002 
L 167.485998 548.141346 
L 172.587628 539.153246 
L 176.201283 541.208035 
L 181.243394 532.326733 
L 185.012932 534.466961 
" clip-path="url(#pd5aaf732ad)" style="fill: #e6482f"/>
    <path d="M 266.497305 524.551856 
L 264.742911 549.149517 
L 260.052246 548.816308 
L 261.803805 524.218647 
L 266.497305 524.551856 
" clip-path="url(#pd5aaf732ad)" style="fill: #e6482f"/>
    <path d="M 181.243394 532.326733 
L 172.454419 527.337142 
L 174.7955 523.210476 
L 183.584475 528.200068 
L 181.243394 532.326733 
" clip-path="url(#pd5aaf732ad)" style="fill: #e6482f"/>
    <path d="M 245.552278 524.910697 
L 245.186662 529.943007 
L 208.401073 527.281607 
L 208.76669 522.249296 
L 245.552278 524.910697 
" clip-path="url(#pd5aaf732ad)" style="fill: #e6482f"/>
    <path d="M 302.112353 516.44377 
L 308.228641 518.507103 
L 308.843671 516.687269 
L 313.551342 518.27642 
L 309.574905 530.054077 
L 315.951943 532.20712 
L 316.754032 529.831938 
L 321.314323 531.374097 
L 316.053975 546.958027 
L 309.305652 544.676827 
L 310.096405 542.331548 
L 312.108715 543.010781 
L 314.602845 535.620376 
L 303.767549 531.959349 
L 300.6924 541.067062 
L 289.655873 537.337684 
L 293.303538 526.538295 
L 292.439095 526.247805 
L 295.227987 517.98593 
L 296.09243 518.27642 
L 301.327269 502.773657 
L 306.176652 504.409798 
L 302.112353 516.44377 
M 296.659277 527.606272 
L 304.314557 530.220681 
L 307.100614 522.069876 
L 299.445334 519.451195 
L 296.659277 527.606272 
" clip-path="url(#pd5aaf732ad)" style="fill: #e6482f"/>
    <path d="M 327.025315 509.604441 
L 332.906361 511.556705 
L 328.10516 526.034209 
L 322.224114 524.086218 
L 327.025315 509.604441 
" clip-path="url(#pd5aaf732ad)" style="fill: #e6482f"/>
    <path d="M 157.914772 499.877301 
L 139.84083 532.309646 
L 135.952254 530.139515 
L 154.02903 497.711443 
L 157.914772 499.877301 
" clip-path="url(#pd5aaf732ad)" style="fill: #e6482f"/>
    <path d="M 200.431192 488.795965 
L 198.450059 513.171487 
L 193.787736 512.795559 
L 195.771703 488.415765 
L 200.431192 488.795965 
" clip-path="url(#pd5aaf732ad)" style="fill: #e6482f"/>
    <path d="M 344.115776 596.883845 
L 343.633956 602.040041 
L 319.987899 599.831463 
L 320.46972 594.675267 
L 344.115776 596.883845 
" clip-path="url(#pd5aaf732ad)" style="fill: #e6482f"/>
    <path d="M 407.137916 569.34711 
L 410.641036 578.160061 
L 406.080745 579.971351 
L 405.142612 577.617528 
L 387.695036 584.559383 
L 385.127216 578.100254 
L 407.137916 569.34711 
" clip-path="url(#pd5aaf732ad)" style="fill: #e6482f"/>
    <path d="M 376.777547 551.469164 
L 358.533551 583.871605 
L 354.758344 581.744194 
L 373.002341 549.341753 
L 376.777547 551.469164 
" clip-path="url(#pd5aaf732ad)" style="fill: #e6482f"/>
    <path d="M 352.096994 551.332463 
L 349.282594 558.064994 
L 340.428431 554.361248 
L 343.245665 547.628717 
L 352.096994 551.332463 
" clip-path="url(#pd5aaf732ad)" style="fill: #e6482f"/>
    <path d="M 353.567964 514.547042 
L 354.948238 510.253772 
L 359.627567 511.761756 
L 358.23879 516.067842 
L 363.847749 517.870588 
L 365.233692 513.564502 
L 369.881844 515.063943 
L 368.498735 519.357213 
L 373.708067 521.031802 
L 371.505863 527.871131 
L 366.778352 526.350331 
L 368.118947 522.185218 
L 362.509988 520.382472 
L 361.172227 524.543312 
L 356.46739 523.031056 
L 357.867504 518.677979 
L 352.156513 516.836786 
L 350.756399 521.189863 
L 346.164931 519.711782 
L 348.367135 512.872453 
L 353.567964 514.547042 
" clip-path="url(#pd5aaf732ad)" style="fill: #e6482f"/>
    <path d="M 391.365376 520.519173 
L 404.176137 483.063062 
L 407.954177 484.35745 
L 394.916677 522.497067 
L 382.882498 544.078759 
L 379.331197 542.100865 
L 391.365376 520.519173 
" clip-path="url(#pd5aaf732ad)" style="fill: #e6482f"/>
    <path d="M 450.671828 468.201085 
L 438.104812 506.105747 
L 464.701312 514.927242 
L 463.012105 520.023631 
L 430.330495 509.185794 
L 432.00553 504.136396 
L 434.374954 504.918156 
L 436.565821 498.305238 
L 435.389611 497.916494 
L 436.299402 495.173928 
L 439.691986 484.93843 
L 434.819929 483.323648 
L 434.545008 484.143855 
L 430.60825 482.840922 
L 433.031525 475.527411 
L 436.823736 476.787625 
L 436.548815 477.612104 
L 441.568253 479.278149 
L 445.779932 466.577759 
L 450.671828 468.201085 
" clip-path="url(#pd5aaf732ad)" style="fill: #e6482f"/>
    <path d="M 353.443257 465.983963 
L 345.385516 489.458112 
L 341.479934 488.121004 
L 349.537676 464.642583 
L 353.443257 465.983963 
" clip-path="url(#pd5aaf732ad)" style="fill: #e6482f"/>
    <path d="M 396.274278 480.619529 
L 394.970528 484.494152 
L 359.653075 472.579793 
L 360.959659 468.709442 
L 396.274278 480.619529 
" clip-path="url(#pd5aaf732ad)" style="fill: #e6482f"/>
    <path d="M 414.484264 461.054179 
L 356.138619 441.642617 
L 356.679958 440.010748 
L 353.344059 438.900051 
L 353.151331 439.476759 
L 317.615641 427.652111 
L 317.808369 427.075403 
L 314.262736 425.896355 
L 313.780916 427.344533 
L 290.758392 419.684997 
L 291.917595 416.199118 
L 318.559443 425.063333 
L 318.891049 424.067978 
L 354.361551 435.866994 
L 353.868393 437.345075 
L 357.198624 438.455772 
L 357.4367 437.738091 
L 415.782346 457.153924 
L 414.484264 461.054179 
" clip-path="url(#pd5aaf732ad)" style="fill: #e6482f"/>
    <path d="M 343.288179 494.469063 
L 341.936247 498.506018 
L 306.970239 486.805255 
L 308.322171 482.764028 
L 343.288179 494.469063 
" clip-path="url(#pd5aaf732ad)" style="fill: #e6482f"/>
    <path d="M 180.693552 482.806747 
L 177.621236 488.954026 
L 173.460574 486.873606 
L 176.532889 480.726326 
L 180.693552 482.806747 
" clip-path="url(#pd5aaf732ad)" style="fill: #e6482f"/>
    <path d="M 284.029908 482.776844 
L 283.729479 486.907781 
L 259.235985 485.113579 
L 259.536414 480.986913 
L 284.029908 482.776844 
" clip-path="url(#pd5aaf732ad)" style="fill: #e6482f"/>
    <path d="M 139.778476 480.709239 
L 134.033474 490.867842 
L 123.847219 485.109307 
L 129.592221 474.950704 
L 139.778476 480.709239 
" clip-path="url(#pd5aaf732ad)" style="fill: #e6482f"/>
    <path d="M 259.536414 480.986913 
L 255.800887 480.713511 
L 257.600629 456.111578 
L 261.336156 456.384981 
L 259.536414 480.986913 
" clip-path="url(#pd5aaf732ad)" style="fill: #e6482f"/>
    <path d="M 308.084095 456.0475 
L 299.958332 479.735243 
L 296.242644 478.457942 
L 304.368408 454.77447 
L 308.084095 456.0475 
" clip-path="url(#pd5aaf732ad)" style="fill: #e6482f"/>
    <path d="M 223.042752 463.74121 
L 223.326176 459.238617 
L 228.229409 459.550466 
L 227.945985 464.065876 
L 233.824197 464.437532 
L 234.110455 459.922122 
L 238.982512 460.2297 
L 238.699088 464.732294 
L 244.157833 465.074046 
L 243.704355 472.246584 
L 238.74727 471.930463 
L 239.025026 467.568842 
L 233.14398 467.197186 
L 232.869059 471.558807 
L 227.937483 471.246957 
L 228.226575 466.684557 
L 222.237828 466.308629 
L 221.948736 470.871029 
L 217.136198 470.563451 
L 217.589676 463.395186 
L 223.042752 463.74121 
" clip-path="url(#pd5aaf732ad)" style="fill: #e6482f"/>
    <path d="M 334.686263 462.011087 
L 333.447701 465.996779 
L 334.964018 466.466689 
L 333.220961 472.07998 
L 321.94069 468.577013 
L 322.289301 467.453501 
L 319.09228 466.462417 
L 321.722454 457.986947 
L 334.686263 462.011087 
" clip-path="url(#pd5aaf732ad)" style="fill: #e6482f"/>
    <path d="M 219.675676 441.975826 
L 201.386331 474.348364 
L 196.95925 471.849296 
L 215.248594 439.472487 
L 219.675676 441.975826 
" clip-path="url(#pd5aaf732ad)" style="fill: #e6482f"/>
    <path d="M 304.096321 452.412104 
L 302.73872 456.40634 
L 279.052984 448.349517 
L 280.413419 444.355281 
L 304.096321 452.412104 
" clip-path="url(#pd5aaf732ad)" style="fill: #e6482f"/>
    <path d="M 198.600274 428.040854 
L 174.642451 471.09744 
L 170.892753 469.012748 
L 194.850576 425.95189 
L 198.600274 428.040854 
" clip-path="url(#pd5aaf732ad)" style="fill: #e6482f"/>
    <path d="M 261.551558 433.500356 
L 261.993699 432.205967 
L 266.88843 433.880556 
L 266.446289 435.174945 
L 268.71368 435.952433 
L 267.820895 438.56257 
L 270.153474 439.357145 
L 269.065126 442.543991 
L 266.732547 441.745143 
L 266.31308 442.971182 
L 263.94649 442.159519 
L 264.816601 439.61346 
L 260.165615 438.024309 
L 260.602088 436.75128 
L 258.056941 435.87981 
L 259.150958 432.680149 
L 261.551558 433.500356 
" clip-path="url(#pd5aaf732ad)" style="fill: #e6482f"/>
    <path d="M 246.901376 428.339888 
L 247.343518 427.049771 
L 252.238248 428.720088 
L 251.796107 430.014477 
L 254.063498 430.791965 
L 253.170713 433.402102 
L 255.506126 434.200949 
L 254.417778 437.383523 
L 252.082365 436.584675 
L 251.662898 437.810714 
L 249.296308 437.003323 
L 250.169254 434.452992 
L 245.518268 432.863841 
L 245.951906 431.590812 
L 243.40676 430.719342 
L 244.500776 427.519681 
L 246.901376 428.339888 
" clip-path="url(#pd5aaf732ad)" style="fill: #e6482f"/>
    <path d="M 235.941374 426.695203 
L 234.28051 431.560909 
L 199.399529 419.66791 
L 201.060394 414.806476 
L 235.941374 426.695203 
" clip-path="url(#pd5aaf732ad)" style="fill: #e6482f"/>
    <path d="M 163.897851 399.782166 
L 163.316832 401.537922 
L 165.459517 402.247059 
L 160.321041 417.771182 
L 158.178356 417.057773 
L 157.12402 420.240346 
L 151.88918 418.50595 
L 151.067251 420.98793 
L 154.601547 422.154162 
L 153.110737 426.656755 
L 157.676696 428.169012 
L 153.938335 439.455399 
L 148.043118 437.507408 
L 145.741715 444.457806 
L 140.45586 442.706323 
L 147.992101 419.941312 
L 149.922218 420.577827 
L 150.735645 418.12575 
L 148.899058 417.519139 
L 155.672889 397.056688 
L 163.897851 399.782166 
" clip-path="url(#pd5aaf732ad)" style="fill: #e6482f"/>
    <path d="M 95.340442 437.259637 
L 90.814162 435.871266 
L 103.247969 395.236854 
L 107.785586 396.625225 
L 95.340442 437.259637 
" clip-path="url(#pd5aaf732ad)" style="fill: #e6482f"/>
    <path d="M 293.13065 402.422207 
L 291.690856 407.010239 
L 288.312443 405.946533 
L 286.844308 410.615731 
L 281.643479 408.983862 
L 279.486623 415.853094 
L 274.297131 414.221224 
L 277.831427 402.960468 
L 285.577403 405.395457 
L 287.105058 400.529751 
L 293.13065 402.422207 
" clip-path="url(#pd5aaf732ad)" style="fill: #e6482f"/>
    <path d="M 329.57613 381.545381 
L 318.080456 416.724563 
L 314.174875 415.447262 
L 325.670549 380.268079 
L 329.57613 381.545381 
" clip-path="url(#pd5aaf732ad)" style="fill: #e6482f"/>
    <path d="M 234.892705 385.573792 
L 230.63001 397.992236 
L 213.553719 392.131175 
L 212.493714 395.224038 
L 207.547967 393.523818 
L 208.607972 390.435226 
L 204.492657 389.025496 
L 208.755353 376.60278 
L 234.892705 385.573792 
" clip-path="url(#pd5aaf732ad)" style="fill: #e6482f"/>
    <path d="M 300.553522 379.294084 
L 299.113728 383.882116 
L 295.732481 382.822682 
L 294.26718 387.49188 
L 289.066351 385.855738 
L 286.909495 392.72497 
L 281.717169 391.093101 
L 285.254299 379.836616 
L 293.000275 382.267333 
L 294.52793 377.401627 
L 300.553522 379.294084 
" clip-path="url(#pd5aaf732ad)" style="fill: #e6482f"/>
    <path d="M 491.779632 490.28259 
L 486.918912 505.904967 
L 482.052523 504.388439 
L 486.913243 488.770334 
L 491.779632 490.28259 
" clip-path="url(#pd5aaf732ad)" style="fill: #e6482f"/>
    <path d="M 506.285268 458.452585 
L 504.661249 463.38237 
L 497.706026 461.092626 
L 499.330045 456.162841 
L 506.285268 458.452585 
" clip-path="url(#pd5aaf732ad)" style="fill: #e6482f"/>
    <path d="M 468.2101 454.351551 
L 478.444537 457.619563 
L 480.615564 450.818681 
L 485.759708 452.463367 
L 482.231081 463.527615 
L 466.846831 458.614918 
L 468.2101 454.351551 
" clip-path="url(#pd5aaf732ad)" style="fill: #e6482f"/>
    <path d="M 519.631699 379.563214 
L 500.412724 437.592846 
L 496.294575 436.230107 
L 515.51355 378.200475 
L 519.631699 379.563214 
" clip-path="url(#pd5aaf732ad)" style="fill: #e6482f"/>
    <path d="M 490.135773 369.9386 
L 470.862948 428.130565 
L 466.515225 426.690931 
L 485.788051 368.498966 
L 490.135773 369.9386 
" clip-path="url(#pd5aaf732ad)" style="fill: #e6482f"/>
    <path d="M 533.567653 361.62119 
L 528.820302 375.692863 
L 524.415895 374.206238 
L 529.160411 360.134565 
L 533.567653 361.62119 
" clip-path="url(#pd5aaf732ad)" style="fill: #e6482f"/>
    <path d="M 506.259759 327.155416 
L 497.91576 352.355416 
L 492.505197 350.561214 
L 500.852031 325.361214 
L 506.259759 327.155416 
" clip-path="url(#pd5aaf732ad)" style="fill: #e6482f"/>
    <path d="M 487.715333 320.47842 
L 479.697271 345.926191 
L 474.422752 344.260146 
L 482.443648 318.816647 
L 487.715333 320.47842 
" clip-path="url(#pd5aaf732ad)" style="fill: #e6482f"/>
    <path d="M 543.303264 310.042143 
L 538.473721 324.929751 
L 533.01781 323.16118 
L 537.84452 308.273572 
L 543.303264 310.042143 
" clip-path="url(#pd5aaf732ad)" style="fill: #e6482f"/>
    <path d="M 489.064431 298.678861 
L 502.25498 303.074657 
L 501.469895 305.432751 
L 503.411349 306.082082 
L 501.849683 310.768368 
L 499.905395 310.119037 
L 499.060792 312.65228 
L 485.870244 308.256484 
L 489.064431 298.678861 
" clip-path="url(#pd5aaf732ad)" style="fill: #e6482f"/>
    <path d="M 430.993707 414.789388 
L 419.69643 450.464113 
L 415.657639 449.186811 
L 426.954916 413.512087 
L 430.993707 414.789388 
" clip-path="url(#pd5aaf732ad)" style="fill: #e6482f"/>
    <path d="M 376.615996 397.351449 
L 365.021124 432.23587 
L 360.766931 430.821868 
L 372.361803 395.937447 
L 376.615996 397.351449 
" clip-path="url(#pd5aaf732ad)" style="fill: #e6482f"/>
    <path d="M 344.84701 395.177047 
L 343.512083 399.491677 
L 349.8211 401.44394 
L 351.156026 397.12931 
L 355.812681 398.573216 
L 351.609505 412.166435 
L 347.020871 410.743889 
L 349.101203 404.019902 
L 342.619298 402.012104 
L 340.538967 408.740363 
L 336.049532 407.351992 
L 340.252709 393.758773 
L 344.84701 395.177047 
" clip-path="url(#pd5aaf732ad)" style="fill: #e6482f"/>
    <path d="M 403.192656 375.560434 
L 387.918941 424.05089 
L 383.092232 422.53009 
L 398.368781 374.039634 
L 403.192656 375.560434 
" clip-path="url(#pd5aaf732ad)" style="fill: #e6482f"/>
    <path d="M 444.430834 372.71107 
L 432.728261 408.240549 
L 428.890701 406.976064 
L 440.593274 371.446584 
L 444.430834 372.71107 
" clip-path="url(#pd5aaf732ad)" style="fill: #e6482f"/>
    <path d="M 431.067397 355.597796 
L 415.110631 402.469198 
L 411.100183 401.106459 
L 427.054114 354.230785 
L 431.067397 355.597796 
" clip-path="url(#pd5aaf732ad)" style="fill: #e6482f"/>
    <path d="M 356.932205 380.592745 
L 352.218866 374.966638 
L 356.322844 371.621732 
L 353.576466 368.123038 
L 357.388518 364.931921 
L 360.032863 368.366537 
L 364.374917 364.786676 
L 361.94314 361.356332 
L 365.599309 358.391626 
L 368.334349 361.736532 
L 372.503515 358.626581 
L 376.848403 364.171521 
L 373.710901 366.918359 
L 370.919175 363.564909 
L 365.792037 367.149042 
L 368.685795 370.801526 
L 364.907754 373.67225 
L 362.254906 370.100932 
L 357.84483 373.902933 
L 360.741423 377.568232 
L 356.932205 380.592745 
" clip-path="url(#pd5aaf732ad)" style="fill: #e6482f"/>
    <path d="M 450.382736 354.141075 
L 446.618867 365.585523 
L 441.846008 364.017732 
L 445.612712 352.573284 
L 450.382736 354.141075 
" clip-path="url(#pd5aaf732ad)" style="fill: #e6482f"/>
    <path d="M 403.802017 313.113646 
L 406.780802 316.697779 
L 397.920971 324.058281 
L 406.908343 334.883302 
L 415.50459 327.740668 
L 418.605248 331.474318 
L 397.864286 348.702933 
L 394.825982 345.041905 
L 402.82137 338.399085 
L 393.947368 327.715036 
L 385.132884 335.032819 
L 381.978376 331.239363 
L 403.802017 313.113646 
" clip-path="url(#pd5aaf732ad)" style="fill: #e6482f"/>
    <path d="M 467.277635 303.219902 
L 456.079557 338.890354 
L 452.13713 337.655772 
L 463.332374 301.981048 
L 467.277635 303.219902 
" clip-path="url(#pd5aaf732ad)" style="fill: #e6482f"/>
    <path d="M 453.817834 285.709341 
L 438.541285 332.674725 
L 434.944636 331.504221 
L 450.221184 284.538837 
L 453.817834 285.709341 
" clip-path="url(#pd5aaf732ad)" style="fill: #e6482f"/>
    <path d="M 342.361382 276.759688 
L 327.101839 323.63109 
L 323.074386 322.319613 
L 338.333929 275.448212 
L 342.361382 276.759688 
" clip-path="url(#pd5aaf732ad)" style="fill: #e6482f"/>
    <path d="M 367.141135 261.718291 
L 350.674206 311.293813 
L 345.479045 309.572233 
L 361.945974 259.992439 
L 367.141135 261.718291 
" clip-path="url(#pd5aaf732ad)" style="fill: #e6482f"/>
    <path d="M 477.789828 273.175555 
L 469.60738 296.82058 
L 464.772168 295.145991 
L 472.954616 271.500966 
L 477.789828 273.175555 
" clip-path="url(#pd5aaf732ad)" style="fill: #e6482f"/>
    <path d="M 443.753451 259.573792 
L 428.420218 306.188879 
L 424.764049 304.984201 
L 440.097283 258.369113 
L 443.753451 259.573792 
" clip-path="url(#pd5aaf732ad)" style="fill: #e6482f"/>
    <path d="M 421.924142 255.109646 
L 426.563791 256.643262 
L 418.715783 280.395084 
L 414.076134 278.861468 
L 421.924142 255.109646 
" clip-path="url(#pd5aaf732ad)" style="fill: #e6482f"/>
    <path d="M 391.504254 266.250788 
L 389.934085 271.154942 
L 379.875371 267.933921 
L 381.445539 263.029768 
L 391.504254 266.250788 
" clip-path="url(#pd5aaf732ad)" style="fill: #e6482f"/>
    <path d="M 479.303312 258.958637 
L 478.223466 262.307815 
L 478.889513 262.52141 
L 476.732657 269.20695 
L 476.066611 268.993355 
L 475.786021 269.869096 
L 471.798247 268.583251 
L 472.138355 267.532361 
L 470.154388 266.891575 
L 472.280067 260.300017 
L 476.137467 261.543143 
L 477.191803 258.275131 
L 479.303312 258.958637 
" clip-path="url(#pd5aaf732ad)" style="fill: #e6482f"/>
    <path d="M 431.104242 256.404035 
L 424.732873 254.421868 
L 425.452769 252.115036 
L 424.381427 251.781827 
L 426.50994 244.946771 
L 427.581283 245.27998 
L 428.235992 243.173928 
L 434.607361 245.160366 
L 431.104242 256.404035 
" clip-path="url(#pd5aaf732ad)" style="fill: #e6482f"/>
    <path d="M 442.180448 248.355755 
L 441.335845 250.897542 
L 437.767538 249.709951 
L 438.614975 247.168164 
L 442.180448 248.355755 
" clip-path="url(#pd5aaf732ad)" style="fill: #e6482f"/>
    <path d="M 255.474949 378.110765 
L 250.778615 391.49466 
L 235.102439 385.992439 
L 239.795939 372.608544 
L 255.474949 378.110765 
" clip-path="url(#pd5aaf732ad)" style="fill: #e6482f"/>
    <path d="M 307.69297 356.16596 
L 306.253177 360.753992 
L 302.874764 359.694558 
L 301.409462 364.363757 
L 296.205799 362.727615 
L 294.048943 369.596847 
L 288.859451 367.969249 
L 292.393748 356.708493 
L 300.139723 359.13921 
L 301.667378 354.273504 
L 307.69297 356.16596 
" clip-path="url(#pd5aaf732ad)" style="fill: #e6482f"/>
    <path d="M 251.484341 347.69049 
L 250.330806 351.090931 
L 255.783882 352.940668 
L 250.597224 368.21702 
L 245.110137 366.354467 
L 249.95952 352.064926 
L 236.902181 347.630683 
L 231.644667 363.116359 
L 226.840632 361.484489 
L 232.095311 345.998813 
L 230.335249 345.405018 
L 231.823224 341.017766 
L 251.484341 347.69049 
" clip-path="url(#pd5aaf732ad)" style="fill: #e6482f"/>
    <path d="M 316.104992 300.246652 
L 304.807715 335.323309 
L 300.848283 334.05028 
L 312.14556 298.969351 
L 316.104992 300.246652 
" clip-path="url(#pd5aaf732ad)" style="fill: #e6482f"/>
    <path d="M 262.070224 331.499949 
L 243.92826 325.84394 
L 246.901376 316.304764 
L 261.115085 320.734735 
L 264.924303 308.499983 
L 257.263354 306.116257 
L 259.091439 300.24238 
L 283.46306 307.833565 
L 282.19899 311.89188 
L 269.42224 307.910459 
L 262.070224 331.499949 
" clip-path="url(#pd5aaf732ad)" style="fill: #e6482f"/>
    <path d="M 330.562445 257.732599 
L 319.268002 292.90751 
L 314.911777 291.510595 
L 326.209054 256.331412 
L 330.562445 257.732599 
" clip-path="url(#pd5aaf732ad)" style="fill: #e6482f"/>
    <path d="M 290.035661 253.930598 
L 287.099389 264.597559 
L 286.254786 264.366876 
L 282.972737 276.281234 
L 277.922123 274.888591 
L 281.246685 262.816172 
L 282.113963 263.055399 
L 285.007721 252.546499 
L 290.035661 253.930598 
" clip-path="url(#pd5aaf732ad)" style="fill: #e6482f"/>
    <path d="M 318.463079 173.597322 
L 293.785359 248.30022 
L 289.548172 246.903306 
L 314.225891 172.200407 
L 318.463079 173.597322 
" clip-path="url(#pd5aaf732ad)" style="fill: #e6482f"/>
    <path d="M 529.732927 290.416986 
L 522.53396 312.020037 
L 517.59955 310.375352 
L 524.798517 288.776572 
L 529.732927 290.416986 
" clip-path="url(#pd5aaf732ad)" style="fill: #e6482f"/>
    <path d="M 497.65501 280.621495 
L 498.43726 278.182234 
L 500.458072 278.831565 
L 501.022086 277.080081 
L 507.325433 279.109239 
L 505.086384 286.072453 
L 503.210118 285.470114 
L 502.671613 287.148974 
L 493.930819 284.338057 
L 495.36211 279.886727 
L 497.65501 280.621495 
" clip-path="url(#pd5aaf732ad)" style="fill: #e6482f"/>
    <path d="M 517.783775 249.389558 
L 512.92589 264.892321 
L 502.439205 261.607222 
L 507.299925 246.104458 
L 517.783775 249.389558 
" clip-path="url(#pd5aaf732ad)" style="fill: #e6482f"/>
    <path d="M 489.500904 235.864689 
L 481.791773 259.761756 
L 479.303312 258.958637 
L 477.191803 258.275131 
L 484.898099 234.378064 
L 489.500904 235.864689 
" clip-path="url(#pd5aaf732ad)" style="fill: #e6482f"/>
    <path d="M 550.170625 233.668927 
L 549.082277 236.902763 
L 546.248038 235.950127 
L 547.336386 232.716291 
L 550.170625 233.668927 
" clip-path="url(#pd5aaf732ad)" style="fill: #e6482f"/>
    <path d="M 540.148756 230.499169 
L 538.910193 233.925242 
L 535.806702 232.801729 
L 537.045264 229.375657 
L 540.148756 230.499169 
" clip-path="url(#pd5aaf732ad)" style="fill: #e6482f"/>
    <path d="M 532.997971 228.115443 
L 532.000319 231.088693 
L 528.012544 229.751585 
L 529.007362 226.778335 
L 532.997971 228.115443 
" clip-path="url(#pd5aaf732ad)" style="fill: #e6482f"/>
    <path d="M 552.902832 227.167079 
L 551.896677 230.208679 
L 548.56928 229.106527 
L 549.575435 226.064926 
L 552.902832 227.167079 
" clip-path="url(#pd5aaf732ad)" style="fill: #e6482f"/>
    <path d="M 520.691705 223.873436 
L 519.722395 227.243974 
L 516.65008 226.359688 
L 517.61939 222.989151 
L 520.691705 223.873436 
" clip-path="url(#pd5aaf732ad)" style="fill: #e6482f"/>
    <path d="M 542.4785 223.745279 
L 541.469511 226.756976 
L 538.547411 225.778708 
L 539.559234 222.762739 
L 542.4785 223.745279 
" clip-path="url(#pd5aaf732ad)" style="fill: #e6482f"/>
    <path d="M 760.513678 409.782709 
L 770.422178 400.965486 
L 779.9849 386.62041 
L 782.980691 388.636752 
L 771.170417 406.899169 
L 754.349208 418.826343 
L 752.183849 415.660858 
L 760.513678 409.782709 
" clip-path="url(#pd5aaf732ad)" style="fill: #e6482f"/>
    <path d="M 765.927075 400.794609 
L 764.949262 403.041634 
L 762.066841 402.174436 
L 761.089028 404.942634 
L 738.908273 396.185218 
L 740.810048 390.883777 
L 765.927075 400.794609 
" clip-path="url(#pd5aaf732ad)" style="fill: #e6482f"/>
    <path d="M 770.663088 395.091609 
L 768.874683 399.645465 
L 741.252189 388.790541 
L 743.046262 384.232412 
L 770.663088 395.091609 
" clip-path="url(#pd5aaf732ad)" style="fill: #e6482f"/>
    <path d="M 774.710381 388.688015 
L 772.902137 393.425564 
L 743.448724 382.190439 
L 745.259803 377.448618 
L 774.710381 388.688015 
" clip-path="url(#pd5aaf732ad)" style="fill: #e6482f"/>
    <path d="M 777.519112 381.459942 
L 775.77889 386.137684 
L 746.064727 375.086252 
L 747.802116 370.412782 
L 777.519112 381.459942 
" clip-path="url(#pd5aaf732ad)" style="fill: #e6482f"/>
    <path d="M 775.135517 372.881946 
L 774.364604 374.941007 
L 777.465262 376.102967 
L 776.402422 378.935243 
L 748.354792 368.413528 
L 750.185711 363.530734 
L 775.135517 372.881946 
" clip-path="url(#pd5aaf732ad)" style="fill: #e6482f"/>
    <path d="M 773.230909 364.658518 
L 772.1624 367.45662 
L 774.055672 368.178573 
L 773.247914 370.301712 
L 750.729885 361.719444 
L 752.606151 356.802475 
L 773.230909 364.658518 
" clip-path="url(#pd5aaf732ad)" style="fill: #e6482f"/>
    <path d="M 672.643764 345.909103 
L 662.035207 374.787218 
L 657.503259 373.125445 
L 668.117484 344.24733 
L 672.643764 345.909103 
" clip-path="url(#pd5aaf732ad)" style="fill: #e6482f"/>
    <path d="M 659.393696 343.371588 
L 664.432973 345.332395 
L 653.9803 372.215528 
L 648.938188 370.250449 
L 659.393696 343.371588 
" clip-path="url(#pd5aaf732ad)" style="fill: #e6482f"/>
    <path d="M 766.29836 353.97447 
L 764.575142 358.793185 
L 753.436583 354.811765 
L 755.1598 349.988778 
L 766.29836 353.97447 
" clip-path="url(#pd5aaf732ad)" style="fill: #e6482f"/>
    <path d="M 744.035412 419.749076 
L 733.781135 417.617393 
L 713.672209 411.277878 
L 670.753327 395.548703 
L 632.383398 381.318969 
L 609.105793 371.583285 
L 546.021299 350.091304 
L 547.517778 344.15762 
L 576.20878 353.897576 
L 575.460541 355.969452 
L 576.786964 356.375284 
L 577.419 354.35467 
L 607.320222 364.325309 
L 625.98652 370.891236 
L 629.560496 374.753043 
L 645.287688 380.742261 
L 645.633466 380.396237 
L 657.789517 385.236311 
L 657.846202 384.373385 
L 681.410065 392.438752 
L 707.853516 402.520461 
L 742.479415 414.964536 
L 745.648094 416.523784 
L 744.035412 419.749076 
" clip-path="url(#pd5aaf732ad)" style="fill: #e6482f"/>
    <path d="M 747.47051 413.554806 
L 722.257119 405.634684 
L 664.415968 383.856484 
L 629.328088 371.523479 
L 626.275613 368.819359 
L 548.036443 341.679912 
L 549.824848 336.553619 
L 585.774336 349.113036 
L 593.089508 352.74416 
L 616.367113 359.485235 
L 630.654512 364.034819 
L 630.827401 365.880285 
L 666.431112 377.576776 
L 668.792033 380.456043 
L 699.155236 391.862044 
L 730.266679 404.827293 
L 732.168453 401.717342 
L 748.816773 408.167927 
L 747.47051 413.554806 
" clip-path="url(#pd5aaf732ad)" style="fill: #e6482f"/>
    <path d="M 651.962321 340.013867 
L 656.491436 341.859332 
L 645.52293 368.742465 
L 640.988148 366.892728 
L 651.962321 340.013867 
" clip-path="url(#pd5aaf732ad)" style="fill: #e6482f"/>
    <path d="M 643.646664 336.993626 
L 645.664642 336.169147 
L 648.963697 337.634413 
L 637.139251 365.688049 
L 632.646982 363.945109 
L 643.646664 336.993626 
" clip-path="url(#pd5aaf732ad)" style="fill: #e6482f"/>
    <path d="M 633.953566 336.630514 
L 638.834126 338.446076 
L 629.883599 362.4713 
L 625.005874 360.651466 
L 633.953566 336.630514 
" clip-path="url(#pd5aaf732ad)" style="fill: #e6482f"/>
    <path d="M 626.051708 334.169893 
L 630.402265 335.887201 
L 621.032271 359.668927 
L 616.678879 357.955891 
L 626.051708 334.169893 
" clip-path="url(#pd5aaf732ad)" style="fill: #e6482f"/>
    <path d="M 617.642521 342.572741 
L 616.160214 347.37864 
L 596.448081 341.299712 
L 597.930388 336.489541 
L 617.642521 342.572741 
" clip-path="url(#pd5aaf732ad)" style="fill: #e6482f"/>
    <path d="M 621.933559 333.460756 
L 620.184833 338.834819 
L 599.344673 332.059569 
L 601.093399 326.681234 
L 621.933559 333.460756 
" clip-path="url(#pd5aaf732ad)" style="fill: #e6482f"/>
    <path d="M 665.220892 322.153009 
L 663.744253 326.7624 
L 631.229863 316.347483 
L 632.706501 311.738091 
L 665.220892 322.153009 
" clip-path="url(#pd5aaf732ad)" style="fill: #e6482f"/>
    <path d="M 623.362015 318.509069 
L 621.723825 323.558468 
L 600.761793 316.757586 
L 602.402817 311.703916 
L 623.362015 318.509069 
" clip-path="url(#pd5aaf732ad)" style="fill: #e6482f"/>
    <path d="M 692.477769 345.665604 
L 690.335084 344.986371 
L 679.930593 377.790371 
L 672.496384 375.432277 
L 690.065832 320.042685 
L 699.639891 323.080014 
L 692.477769 345.665604 
" clip-path="url(#pd5aaf732ad)" style="fill: #e6482f"/>
    <path d="M 679.879576 338.817732 
L 678.150691 344.636074 
L 668.99043 341.526123 
L 671.121778 335.532633 
L 679.879576 338.817732 
" clip-path="url(#pd5aaf732ad)" style="fill: #e6482f"/>
    <path d="M 740.645662 335.447194 
L 741.456254 341.867876 
L 737.944632 342.312155 
L 737.13404 335.891473 
L 740.645662 335.447194 
" clip-path="url(#pd5aaf732ad)" style="fill: #e6482f"/>
    <path d="M 680.6845 332.939583 
L 681.665147 330.701102 
L 682.645794 331.038583 
L 681.203166 336.053806 
L 671.756647 332.422682 
L 672.561571 330.346533 
L 680.6845 332.939583 
" clip-path="url(#pd5aaf732ad)" style="fill: #e6482f"/>
    <path d="M 646.174805 332.653365 
L 659.600596 336.972266 
L 660.924185 334.494558 
L 664.149549 335.647974 
L 666.56999 327.928632 
L 669.279522 323.203899 
L 671.41087 323.494389 
L 670.489742 326.775216 
L 665.35977 342.504391 
L 651.936813 337.894999 
L 652.339275 335.938464 
L 641.393444 332.593558 
L 641.566333 331.384608 
L 646.174805 332.653365 
" clip-path="url(#pd5aaf732ad)" style="fill: #e6482f"/>
    <path d="M 722.90616 338.984336 
L 718.340201 341.261265 
L 710.991019 326.506086 
L 715.559812 324.233429 
L 722.90616 338.984336 
" clip-path="url(#pd5aaf732ad)" style="fill: #e6482f"/>
    <path d="M 684.717622 324.874216 
L 682.645794 331.038583 
L 681.665147 330.701102 
L 672.275313 327.467266 
L 674.174253 321.593389 
L 684.717622 324.874216 
" clip-path="url(#pd5aaf732ad)" style="fill: #e6482f"/>
    <path d="M 694.875535 306.197423 
L 692.999269 311.904696 
L 683.510237 308.777657 
L 685.389337 303.074657 
L 694.875535 306.197423 
" clip-path="url(#pd5aaf732ad)" style="fill: #e6482f"/>
    <path d="M 671.427875 273.572843 
L 670.557764 276.716969 
L 667.683846 275.922394 
L 668.551123 272.778268 
L 671.427875 273.572843 
" clip-path="url(#pd5aaf732ad)" style="fill: #e6482f"/>
    <path d="M 663.098047 270.808917 
L 662.196759 273.982946 
L 658.872196 273.043126 
L 659.776319 269.864825 
L 663.098047 270.808917 
" clip-path="url(#pd5aaf732ad)" style="fill: #e6482f"/>
    <path d="M 614.92732 356.174504 
L 614.383146 357.968707 
L 592.216562 351.253263 
L 592.757902 349.459061 
L 614.92732 356.174504 
" clip-path="url(#pd5aaf732ad)" style="fill: #e6482f"/>
    <path d="M 615.817271 351.009764 
L 614.561703 355.038176 
L 593.761222 348.544872 
L 594.342241 346.682319 
L 595.793372 347.135142 
L 596.46792 344.977827 
L 615.817271 351.009764 
" clip-path="url(#pd5aaf732ad)" style="fill: #e6482f"/>
    <path d="M 587.871673 345.212782 
L 587.582581 342.90595 
L 593.576997 318.769656 
L 594.209032 319.000339 
L 599.625263 293.996847 
L 600.892168 294.342872 
L 602.159073 290.079505 
L 605.327752 290.997966 
L 599.625263 316.407289 
L 599.395689 319.863265 
L 591.904796 345.729683 
L 587.871673 345.212782 
" clip-path="url(#pd5aaf732ad)" style="fill: #e6482f"/>
    <path d="M 593.517478 312.835972 
L 592.539665 315.886116 
L 563.905348 305.804408 
L 564.826476 303.211358 
L 593.517478 312.835972 
" clip-path="url(#pd5aaf732ad)" style="fill: #e6482f"/>
    <path d="M 573.181812 289.904357 
L 596.91573 298.144872 
L 595.475937 303.155823 
L 571.107149 294.975114 
L 570.299391 297.277674 
L 595.362567 305.51819 
L 594.036143 310.759824 
L 566.036696 300.793457 
L 565.172253 294.342872 
L 565.920492 291.63448 
L 543.164386 284.662722 
L 544.258403 281.031599 
L 573.181812 289.904357 
" clip-path="url(#pd5aaf732ad)" style="fill: #e6482f"/>
    <path d="M 573.527589 279.476623 
L 583.492774 283.163282 
L 581.880092 288.178505 
L 584.300532 288.926089 
L 586.315676 283.453772 
L 591.615703 284.94894 
L 589.946336 290.827089 
L 591.615703 291.403797 
L 593.633681 286.734599 
L 599.452374 288.981624 
L 597.031934 296.068724 
L 569.896929 286.619258 
L 573.527589 279.476623 
" clip-path="url(#pd5aaf732ad)" style="fill: #e6482f"/>
    <path d="M 606.410431 279.075064 
L 604.624861 284.397864 
L 587.035573 278.506899 
L 588.818309 273.184099 
L 606.410431 279.075064 
" clip-path="url(#pd5aaf732ad)" style="fill: #e6482f"/>
    <path d="M 568.457136 263.418512 
L 568.783073 262.423156 
L 573.354701 263.926869 
L 569.814736 274.692083 
L 564.920005 273.081573 
L 565.889315 270.133955 
L 552.865987 265.853501 
L 555.10787 259.03126 
L 568.457136 263.418512 
" clip-path="url(#pd5aaf732ad)" style="fill: #e6482f"/>
    <path d="M 604.746733 251.751924 
L 603.669722 255.190812 
L 600.30548 254.13565 
L 601.379657 250.701034 
L 604.746733 251.751924 
" clip-path="url(#pd5aaf732ad)" style="fill: #e6482f"/>
    <path d="M 594.330904 248.43265 
L 593.463627 251.380268 
L 590.569869 250.530158 
L 591.437146 247.582539 
L 594.330904 248.43265 
" clip-path="url(#pd5aaf732ad)" style="fill: #e6482f"/>
    <path d="M 621.689814 326.083167 
L 627.106045 309.033972 
L 605.789733 301.831531 
L 607.864396 296.013189 
L 616.505991 298.43109 
L 615.122882 302.177556 
L 616.735564 302.638922 
L 618.580654 297.969724 
L 622.20848 299.294016 
L 621.862703 300.391897 
L 624.226458 301.02414 
L 625.377159 300.848991 
L 628.200061 302.002407 
L 627.106045 305.979556 
L 631.082482 307.244041 
L 624.62892 327.181048 
L 641.393444 332.593558 
L 640.415632 335.246415 
L 600.948852 322.396508 
L 601.872814 319.863265 
L 621.689814 326.083167 
" clip-path="url(#pd5aaf732ad)" style="fill: #e6482f"/>
    <path d="M 624.470203 310.956332 
L 622.87736 315.723784 
L 603.511005 309.251839 
L 605.101013 304.484387 
L 624.470203 310.956332 
" clip-path="url(#pd5aaf732ad)" style="fill: #e6482f"/>
    <path d="M 647.073259 300.344906 
L 645.471914 305.180709 
L 631.89024 300.682387 
L 633.491585 295.846584 
L 647.073259 300.344906 
" clip-path="url(#pd5aaf732ad)" style="fill: #e6482f"/>
    <path d="M 628.908621 298.708764 
L 624.138597 297.166605 
L 627.820273 285.794779 
L 632.590297 287.336938 
L 628.908621 298.708764 
" clip-path="url(#pd5aaf732ad)" style="fill: #e6482f"/>
    <path d="M 618.926431 284.393592 
L 617.94295 287.494999 
L 610.987727 285.286421 
L 611.974042 282.185014 
L 618.926431 284.393592 
" clip-path="url(#pd5aaf732ad)" style="fill: #e6482f"/>
    <path d="M 653.19805 267.207696 
L 652.214569 270.462892 
L 647.875349 269.155687 
L 648.85883 265.89622 
L 653.19805 267.207696 
" clip-path="url(#pd5aaf732ad)" style="fill: #e6482f"/>
    <path d="M 645.199827 265.054653 
L 644.224849 268.044991 
L 640.971142 266.985557 
L 641.943286 263.99522 
L 645.199827 265.054653 
" clip-path="url(#pd5aaf732ad)" style="fill: #e6482f"/>
    <path d="M 654.935438 261.124496 
L 654.116343 264.097745 
L 651.367131 263.341617 
L 652.186226 260.368368 
L 654.935438 261.124496 
" clip-path="url(#pd5aaf732ad)" style="fill: #e6482f"/>
    <path d="M 633.451906 261.073233 
L 632.43158 264.178912 
L 629.192045 263.110934 
L 630.212371 260.009527 
L 633.451906 261.073233 
" clip-path="url(#pd5aaf732ad)" style="fill: #e6482f"/>
    <path d="M 647.050585 258.189693 
L 646.030259 261.406442 
L 642.946607 260.428174 
L 643.964099 257.215698 
L 647.050585 258.189693 
" clip-path="url(#pd5aaf732ad)" style="fill: #e6482f"/>
    <path d="M 674.452009 267.39566 
L 673.607405 270.300559 
L 670.70231 269.450449 
L 671.549748 266.549822 
L 674.452009 267.39566 
" clip-path="url(#pd5aaf732ad)" style="fill: #e6482f"/>
    <path d="M 665.308753 264.413867 
L 664.268588 267.532361 
L 661.040389 266.45584 
L 662.080555 263.337345 
L 665.308753 264.413867 
" clip-path="url(#pd5aaf732ad)" style="fill: #e6482f"/>
    <path d="M 675.682068 260.372639 
L 674.882813 263.153653 
L 672.252639 262.397525 
L 673.04906 259.616511 
L 675.682068 260.372639 
" clip-path="url(#pd5aaf732ad)" style="fill: #e6482f"/>
    <path d="M 667.618658 257.630073 
L 666.626674 260.637498 
L 663.313449 259.543889 
L 664.305433 256.536464 
L 667.618658 257.630073 
" clip-path="url(#pd5aaf732ad)" style="fill: #e6482f"/>
    <path d="M 657.457911 254.268079 
L 656.389403 257.429293 
L 653.705379 256.523648 
L 654.773887 253.362434 
L 657.457911 254.268079 
" clip-path="url(#pd5aaf732ad)" style="fill: #e6482f"/>
    <path d="M 678.37743 251.58532 
L 677.456302 254.473131 
L 674.752438 253.610205 
L 675.670731 250.722394 
L 678.37743 251.58532 
" clip-path="url(#pd5aaf732ad)" style="fill: #e6482f"/>
    <path d="M 670.078778 248.847025 
L 669.13781 251.850178 
L 666.340416 250.978708 
L 667.281384 247.971283 
L 670.078778 248.847025 
" clip-path="url(#pd5aaf732ad)" style="fill: #e6482f"/>
    <path d="M 660.371509 245.647364 
L 659.237813 249.043533 
L 656.054963 247.984099 
L 657.188658 244.58793 
L 660.371509 245.647364 
" clip-path="url(#pd5aaf732ad)" style="fill: #e6482f"/>
    <path d="M 680.554125 244.869876 
L 679.539468 247.945652 
L 676.671218 246.997288 
L 677.685875 243.921512 
L 680.554125 244.869876 
" clip-path="url(#pd5aaf732ad)" style="fill: #e6482f"/>
    <path d="M 672.708951 242.362265 
L 671.680123 245.506391 
L 668.194009 244.370063 
L 669.225672 241.221665 
L 672.708951 242.362265 
" clip-path="url(#pd5aaf732ad)" style="fill: #e6482f"/>
    <path d="M 623.509395 258.352026 
L 622.619444 261.274013 
L 618.691189 260.077878 
L 619.58114 257.155891 
L 623.509395 258.352026 
" clip-path="url(#pd5aaf732ad)" style="fill: #e6482f"/>
    <path d="M 612.82148 254.712358 
L 611.747303 258.352026 
L 608.700496 257.454925 
L 609.774673 253.815257 
L 612.82148 254.712358 
" clip-path="url(#pd5aaf732ad)" style="fill: #e6482f"/>
    <path d="M 635.427371 254.250992 
L 634.387205 257.860756 
L 630.784887 256.822682 
L 631.827887 253.212917 
L 635.427371 254.250992 
" clip-path="url(#pd5aaf732ad)" style="fill: #e6482f"/>
    <path d="M 649.060061 251.36318 
L 648.031232 254.588473 
L 644.865387 253.57603 
L 645.894216 250.355009 
L 649.060061 251.36318 
" clip-path="url(#pd5aaf732ad)" style="fill: #e6482f"/>
    <path d="M 625.711599 251.230751 
L 624.634588 254.836243 
L 620.726173 253.670012 
L 621.806018 250.060247 
L 625.711599 251.230751 
" clip-path="url(#pd5aaf732ad)" style="fill: #e6482f"/>
    <path d="M 614.777105 247.676521 
L 613.804961 250.944533 
L 610.749651 250.038888 
L 611.721795 246.770876 
L 614.777105 247.676521 
" clip-path="url(#pd5aaf732ad)" style="fill: #e6482f"/>
    <path d="M 637.691928 247.680793 
L 636.524221 251.18376 
L 633.021102 250.013256 
L 634.185974 246.51029 
L 637.691928 247.680793 
" clip-path="url(#pd5aaf732ad)" style="fill: #e6482f"/>
    <path d="M 626.737594 244.036854 
L 625.802295 247.356128 
L 622.866023 246.527378 
L 623.801322 243.208103 
L 626.737594 244.036854 
" clip-path="url(#pd5aaf732ad)" style="fill: #e6482f"/>
    <path d="M 651.678898 242.66557 
L 650.601887 245.651636 
L 647.932034 244.690456 
L 649.009044 241.700119 
L 651.678898 242.66557 
" clip-path="url(#pd5aaf732ad)" style="fill: #e6482f"/>
    <path d="M 617.452627 241.029429 
L 616.333102 244.481132 
L 612.932015 243.378979 
L 614.05154 239.927276 
L 617.452627 241.029429 
" clip-path="url(#pd5aaf732ad)" style="fill: #e6482f"/>
    <path d="M 586.380864 245.493575 
L 585.510752 248.898288 
L 582.381752 248.099441 
L 583.254698 244.690456 
L 586.380864 245.493575 
" clip-path="url(#pd5aaf732ad)" style="fill: #e6482f"/>
    <path d="M 606.77038 244.921139 
L 605.871926 247.855942 
L 602.674904 246.877674 
L 603.573358 243.942872 
L 606.77038 244.921139 
" clip-path="url(#pd5aaf732ad)" style="fill: #e6482f"/>
    <path d="M 576.826644 242.704018 
L 575.945195 245.732802 
L 572.408065 244.699 
L 573.289513 241.674487 
L 576.826644 242.704018 
" clip-path="url(#pd5aaf732ad)" style="fill: #e6482f"/>
    <path d="M 596.669151 241.520698 
L 595.728184 244.699 
L 592.718222 243.806171 
L 593.662024 240.627869 
L 596.669151 241.520698 
" clip-path="url(#pd5aaf732ad)" style="fill: #e6482f"/>
    <path d="M 568.196386 239.760671 
L 566.813277 243.801899 
L 562.697962 242.392168 
L 564.081071 238.350941 
L 568.196386 239.760671 
" clip-path="url(#pd5aaf732ad)" style="fill: #e6482f"/>
    <path d="M 588.435687 238.961824 
L 587.469211 242.093134 
L 584.926899 241.311375 
L 585.893375 238.180064 
L 588.435687 238.961824 
" clip-path="url(#pd5aaf732ad)" style="fill: #e6482f"/>
    <path d="M 558.534465 236.637905 
L 557.698364 239.504357 
L 554.923644 238.696966 
L 555.762579 235.830514 
L 558.534465 236.637905 
" clip-path="url(#pd5aaf732ad)" style="fill: #e6482f"/>
    <path d="M 579.091201 235.458857 
L 577.931997 238.867842 
L 574.400535 237.667435 
L 575.559739 234.258451 
L 579.091201 235.458857 
" clip-path="url(#pd5aaf732ad)" style="fill: #e6482f"/>
    <path d="M 599.018736 235.121377 
L 598.074934 238.128801 
L 595.011122 237.171894 
L 595.952089 234.160197 
L 599.018736 235.121377 
" clip-path="url(#pd5aaf732ad)" style="fill: #e6482f"/>
    <path d="M 570.673511 232.951246 
L 569.661687 235.941583 
L 566.150065 234.753992 
L 567.159054 231.763655 
L 570.673511 232.951246 
" clip-path="url(#pd5aaf732ad)" style="fill: #e6482f"/>
    <path d="M 640.580017 239.196779 
L 639.49167 242.545957 
L 636.06224 241.43526 
L 637.147754 238.086082 
L 640.580017 239.196779 
" clip-path="url(#pd5aaf732ad)" style="fill: #e6482f"/>
    <path d="M 609.332532 238.209968 
L 608.303703 241.213121 
L 604.752401 239.995626 
L 605.778396 236.996745 
L 609.332532 238.209968 
" clip-path="url(#pd5aaf732ad)" style="fill: #e6482f"/>
    <path d="M 653.702544 235.868961 
L 652.608528 239.218139 
L 649.632577 238.248415 
L 650.726593 234.899237 
L 653.702544 235.868961 
" clip-path="url(#pd5aaf732ad)" style="fill: #e6482f"/>
    <path d="M 630.410768 235.762163 
L 629.503811 238.987456 
L 625.969515 237.9921 
L 626.876471 234.77108 
L 630.410768 235.762163 
" clip-path="url(#pd5aaf732ad)" style="fill: #e6482f"/>
    <path d="M 619.901409 232.404441 
L 618.91226 235.480217 
L 615.791762 234.48059 
L 616.778078 231.400542 
L 619.901409 232.404441 
" clip-path="url(#pd5aaf732ad)" style="fill: #e6482f"/>
    <path d="M 642.609333 231.118596 
L 641.469968 235.006035 
L 638.162411 234.036311 
L 639.301776 230.148873 
L 642.609333 231.118596 
" clip-path="url(#pd5aaf732ad)" style="fill: #e6482f"/>
    <path d="M 611.883347 229.69605 
L 610.982059 232.502695 
L 607.71985 231.456077 
L 608.621138 228.649432 
L 611.883347 229.69605 
" clip-path="url(#pd5aaf732ad)" style="fill: #e6482f"/>
    <path d="M 655.80555 229.200509 
L 654.714368 232.331819 
L 651.661892 231.272385 
L 652.753074 228.141075 
L 655.80555 229.200509 
" clip-path="url(#pd5aaf732ad)" style="fill: #e6482f"/>
    <path d="M 633.072118 228.709239 
L 632.046124 232.442889 
L 628.208564 231.387727 
L 629.234558 227.654077 
L 633.072118 228.709239 
" clip-path="url(#pd5aaf732ad)" style="fill: #e6482f"/>
    <path d="M 622.129121 225.509578 
L 621.134303 228.563994 
L 618.206534 227.607086 
L 619.204186 224.556942 
L 622.129121 225.509578 
" clip-path="url(#pd5aaf732ad)" style="fill: #e6482f"/>
    <path d="M 662.525531 238.850754 
L 661.686596 242.020512 
L 658.512248 241.178946 
L 659.351183 238.01346 
L 662.525531 238.850754 
" clip-path="url(#pd5aaf732ad)" style="fill: #e6482f"/>
    <path d="M 682.359536 237.893846 
L 681.444076 241.149042 
L 678.896095 240.435633 
L 679.811555 237.176165 
L 682.359536 237.893846 
" clip-path="url(#pd5aaf732ad)" style="fill: #e6482f"/>
    <path d="M 674.973509 235.544296 
L 673.990028 238.77386 
L 670.172308 237.607628 
L 671.155788 234.382336 
L 674.973509 235.544296 
" clip-path="url(#pd5aaf732ad)" style="fill: #e6482f"/>
    <path d="M 664.671049 232.865808 
L 663.727248 236.035565 
L 660.195786 234.984675 
L 661.139588 231.814918 
L 664.671049 232.865808 
" clip-path="url(#pd5aaf732ad)" style="fill: #e6482f"/>
    <path d="M 655.884908 216.542838 
L 658.889202 217.478386 
L 657.438071 222.126225 
L 654.433778 221.186404 
L 655.884908 216.542838 
" clip-path="url(#pd5aaf732ad)" style="fill: #e6482f"/>
    <path d="M 590.95816 232.066961 
L 589.917994 235.279437 
L 586.290168 234.104662 
L 587.330334 230.892185 
L 590.95816 232.066961 
" clip-path="url(#pd5aaf732ad)" style="fill: #e6482f"/>
    <path d="M 560.592122 229.866927 
L 559.685166 232.852992 
L 556.695044 231.947347 
L 557.602 228.95701 
L 560.592122 229.866927 
" clip-path="url(#pd5aaf732ad)" style="fill: #e6482f"/>
    <path d="M 581.452122 228.431565 
L 580.346769 231.955891 
L 576.727445 230.823835 
L 577.832799 227.299508 
L 581.452122 228.431565 
" clip-path="url(#pd5aaf732ad)" style="fill: #e6482f"/>
    <path d="M 601.827467 226.316969 
L 600.631418 230.084794 
L 597.618622 229.127886 
L 598.81467 225.360061 
L 601.827467 226.316969 
" clip-path="url(#pd5aaf732ad)" style="fill: #e6482f"/>
    <path d="M 572.91256 226.492117 
L 571.92341 229.311578 
L 568.675372 228.17525 
L 569.664522 225.351517 
L 572.91256 226.492117 
" clip-path="url(#pd5aaf732ad)" style="fill: #e6482f"/>
    <path d="M 593.344589 223.313816 
L 592.31576 226.329785 
L 589.223605 225.278895 
L 590.252434 222.258654 
L 593.344589 223.313816 
" clip-path="url(#pd5aaf732ad)" style="fill: #e6482f"/>
    <path d="M 562.499565 222.916528 
L 561.654962 226.035023 
L 558.355908 225.142194 
L 559.203345 222.019427 
L 562.499565 222.916528 
" clip-path="url(#pd5aaf732ad)" style="fill: #e6482f"/>
    <path d="M 583.926413 220.511443 
L 582.857904 223.553043 
L 579.76575 222.47225 
L 580.834258 219.426377 
L 583.926413 220.511443 
" clip-path="url(#pd5aaf732ad)" style="fill: #e6482f"/>
    <path d="M 603.732075 219.434921 
L 602.915814 222.314189 
L 599.585583 221.365825 
L 600.401844 218.486557 
L 603.732075 219.434921 
" clip-path="url(#pd5aaf732ad)" style="fill: #e6482f"/>
    <path d="M 575.712788 217.644991 
L 574.800163 220.596881 
L 571.520948 219.584438 
L 572.430739 216.632548 
L 575.712788 217.644991 
" clip-path="url(#pd5aaf732ad)" style="fill: #e6482f"/>
    <path d="M 644.409074 225.526666 
L 643.366074 228.615257 
L 639.39814 227.278149 
L 640.44114 224.185286 
L 644.409074 225.526666 
" clip-path="url(#pd5aaf732ad)" style="fill: #e6482f"/>
    <path d="M 635.733469 225.287439 
L 634.903037 227.99583 
L 631.484944 226.949212 
L 632.312542 224.24082 
L 635.733469 225.287439 
" clip-path="url(#pd5aaf732ad)" style="fill: #e6482f"/>
    <path d="M 613.776619 222.792643 
L 612.80164 226.099102 
L 609.601784 225.150737 
L 610.576763 221.848551 
L 613.776619 222.792643 
" clip-path="url(#pd5aaf732ad)" style="fill: #e6482f"/>
    <path d="M 624.118757 218.973555 
L 623.194795 221.955348 
L 620.340716 221.071063 
L 621.264678 218.084997 
L 624.118757 218.973555 
" clip-path="url(#pd5aaf732ad)" style="fill: #e6482f"/>
    <path d="M 615.582029 215.996033 
L 614.706249 219.084625 
L 612.044898 218.332768 
L 612.917844 215.244177 
L 615.582029 215.996033 
" clip-path="url(#pd5aaf732ad)" style="fill: #e6482f"/>
    <path d="M 626.020531 209.519817 
L 625.195768 212.390541 
L 621.959067 211.463536 
L 622.780996 208.592812 
L 626.020531 209.519817 
" clip-path="url(#pd5aaf732ad)" style="fill: #e6482f"/>
    <path d="M 618.044983 206.794338 
L 617.064336 209.848754 
L 613.532874 208.716698 
L 614.516355 205.65801 
L 618.044983 206.794338 
" clip-path="url(#pd5aaf732ad)" style="fill: #e6482f"/>
    <path d="M 610.596602 202.475437 
L 609.227665 206.580742 
L 606.175189 205.564028 
L 607.544127 201.458722 
L 610.596602 202.475437 
" clip-path="url(#pd5aaf732ad)" style="fill: #e6482f"/>
    <path d="M 596.297866 216.978573 
L 595.39091 219.704052 
L 592.142872 218.623258 
L 593.049828 215.897779 
L 596.297866 216.978573 
" clip-path="url(#pd5aaf732ad)" style="fill: #e6482f"/>
    <path d="M 566.087712 214.06513 
L 565.092894 217.183624 
L 561.677636 216.094287 
L 562.672454 212.975793 
L 566.087712 214.06513 
" clip-path="url(#pd5aaf732ad)" style="fill: #e6482f"/>
    <path d="M 585.111125 213.543957 
L 584.303366 216.367689 
L 581.282068 215.500492 
L 582.089826 212.681031 
L 585.111125 213.543957 
" clip-path="url(#pd5aaf732ad)" style="fill: #e6482f"/>
    <path d="M 606.342409 212.582777 
L 605.254062 215.641465 
L 602.703246 214.73582 
L 603.791594 211.67286 
L 606.342409 212.582777 
" clip-path="url(#pd5aaf732ad)" style="fill: #e6482f"/>
    <path d="M 578.124725 210.985082 
L 577.095896 214.048042 
L 573.745826 212.92453 
L 574.77182 209.86157 
L 578.124725 210.985082 
" clip-path="url(#pd5aaf732ad)" style="fill: #e6482f"/>
    <path d="M 597.567605 209.801763 
L 596.717334 212.732294 
L 593.9001 211.916359 
L 594.753206 208.981556 
L 597.567605 209.801763 
" clip-path="url(#pd5aaf732ad)" style="fill: #e6482f"/>
    <path d="M 587.647769 206.503848 
L 586.587763 209.699237 
L 583.484271 208.673979 
L 584.541442 205.474318 
L 587.647769 206.503848 
" clip-path="url(#pd5aaf732ad)" style="fill: #e6482f"/>
    <path d="M 560.65731 205.1881 
L 559.591636 208.182709 
L 555.691723 206.79861 
L 556.757397 203.804001 
L 560.65731 205.1881 
" clip-path="url(#pd5aaf732ad)" style="fill: #e6482f"/>
    <path d="M 569.865753 204.923241 
L 568.81425 207.934938 
L 565.988514 206.948127 
L 567.040016 203.93643 
L 569.865753 204.923241 
" clip-path="url(#pd5aaf732ad)" style="fill: #e6482f"/>
    <path d="M 580.244736 204.081675 
L 579.286763 207.247161 
L 575.942361 206.234718 
L 576.903168 203.069232 
L 580.244736 204.081675 
" clip-path="url(#pd5aaf732ad)" style="fill: #e6482f"/>
    <path d="M 602.878969 200.168605 
L 601.637573 204.154297 
L 598.338518 203.129039 
L 599.577081 199.143346 
L 602.878969 200.168605 
" clip-path="url(#pd5aaf732ad)" style="fill: #e6482f"/>
    <path d="M 594.880747 198.511104 
L 594.038978 201.578335 
L 590.612383 200.638515 
L 591.454152 197.571283 
L 594.880747 198.511104 
" clip-path="url(#pd5aaf732ad)" style="fill: #e6482f"/>
    <path d="M 562.559084 198.788778 
L 561.620951 201.569791 
L 557.763552 200.266859 
L 558.704519 197.485845 
L 562.559084 198.788778 
" clip-path="url(#pd5aaf732ad)" style="fill: #e6482f"/>
    <path d="M 588.687934 197.199627 
L 587.831994 199.450924 
L 584.975081 198.365859 
L 585.828187 196.114562 
L 588.687934 197.199627 
" clip-path="url(#pd5aaf732ad)" style="fill: #e6482f"/>
    <path d="M 584.975081 198.365859 
L 581.888595 197.199627 
L 582.744535 194.939786 
L 585.828187 196.114562 
L 584.975081 198.365859 
" clip-path="url(#pd5aaf732ad)" style="fill: #e6482f"/>
    <path d="M 576.248459 191.710222 
L 575.114763 195.319986 
L 571.410413 194.153755 
L 572.544109 190.543991 
L 576.248459 191.710222 
" clip-path="url(#pd5aaf732ad)" style="fill: #e6482f"/>
    <path d="M 566.583704 188.296966 
L 569.814736 189.138532 
L 568.783073 193.094321 
L 565.554875 192.257027 
L 566.583704 188.296966 
" clip-path="url(#pd5aaf732ad)" style="fill: #e6482f"/>
    <path d="M 563.993209 187.942397 
L 562.66962 191.496627 
L 559.087141 190.159519 
L 560.410731 186.609561 
L 563.993209 187.942397 
" clip-path="url(#pd5aaf732ad)" style="fill: #e6482f"/>
    <path d="M 512.874873 221.323106 
L 511.846045 224.680827 
L 507.994314 223.497508 
L 509.023142 220.139786 
L 512.874873 221.323106 
" clip-path="url(#pd5aaf732ad)" style="fill: #e6482f"/>
    <path d="M 534.352737 221.032616 
L 533.440112 224.159654 
L 530.424482 223.279641 
L 531.337107 220.152602 
L 534.352737 221.032616 
" clip-path="url(#pd5aaf732ad)" style="fill: #e6482f"/>
    <path d="M 555.646375 220.52853 
L 554.634552 223.574402 
L 551.012394 222.365452 
L 552.027052 219.31958 
L 555.646375 220.52853 
" clip-path="url(#pd5aaf732ad)" style="fill: #e6482f"/>
    <path d="M 523.044123 217.055467 
L 521.848074 220.793389 
L 518.911803 219.85784 
L 520.107851 216.115647 
L 523.044123 217.055467 
" clip-path="url(#pd5aaf732ad)" style="fill: #e6482f"/>
    <path d="M 544.794074 216.974301 
L 543.804924 219.832209 
L 540.843145 218.80695 
L 541.835128 215.949042 
L 544.794074 216.974301 
" clip-path="url(#pd5aaf732ad)" style="fill: #e6482f"/>
    <path d="M 515.502213 214.795626 
L 514.61793 217.738973 
L 510.797376 216.594101 
L 511.681659 213.650754 
L 515.502213 214.795626 
" clip-path="url(#pd5aaf732ad)" style="fill: #e6482f"/>
    <path d="M 536.679647 214.018139 
L 535.684829 217.119546 
L 532.445294 216.081471 
L 533.440112 212.980064 
L 536.679647 214.018139 
" clip-path="url(#pd5aaf732ad)" style="fill: #e6482f"/>
    <path d="M 557.698364 211.946262 
L 556.768734 214.688829 
L 553.908987 213.719105 
L 554.838617 210.976538 
L 557.698364 211.946262 
" clip-path="url(#pd5aaf732ad)" style="fill: #e6482f"/>
    <path d="M 525.183974 210.374199 
L 523.968085 213.911341 
L 520.946786 212.873267 
L 522.159841 209.336125 
L 525.183974 210.374199 
" clip-path="url(#pd5aaf732ad)" style="fill: #e6482f"/>
    <path d="M 547.276867 208.233972 
L 546.403922 211.061977 
L 543.595191 210.194779 
L 544.468136 207.366774 
L 547.276867 208.233972 
" clip-path="url(#pd5aaf732ad)" style="fill: #e6482f"/>
    <path d="M 414.759185 222.25011 
L 399.411781 268.91646 
L 395.690425 267.694694 
L 411.034995 221.028344 
L 414.759185 222.25011 
" clip-path="url(#pd5aaf732ad)" style="fill: #e6482f"/>
    <path d="M 375.527648 232.622309 
L 376.941933 228.320495 
L 372.072711 226.718529 
L 373.620205 222.002339 
L 382.474368 224.907239 
L 380.912702 229.666147 
L 378.526273 228.884387 
L 377.126159 233.147754 
L 384.727588 235.64255 
L 383.131911 240.499712 
L 380.056762 239.491541 
L 378.605632 243.912968 
L 381.601422 244.89978 
L 379.946227 249.936362 
L 371.398162 247.129717 
L 373.050523 242.10595 
L 377.001452 243.404611 
L 378.458251 238.966096 
L 369.048578 235.877505 
L 370.644254 231.020342 
L 375.527648 232.622309 
" clip-path="url(#pd5aaf732ad)" style="fill: #e6482f"/>
    <path d="M 345.121931 215.58593 
L 333.501551 250.765113 
L 329.760356 249.530531 
L 341.380736 214.351348 
L 345.121931 215.58593 
" clip-path="url(#pd5aaf732ad)" style="fill: #e6482f"/>
    <path d="M 439.247011 218.691609 
L 431.552052 242.815087 
L 427.221334 241.430988 
L 434.916293 217.30751 
L 439.247011 218.691609 
" clip-path="url(#pd5aaf732ad)" style="fill: #e6482f"/>
    <path d="M 479.751121 232.348907 
L 478.521062 236.031293 
L 443.750617 224.403153 
L 444.980676 220.720766 
L 479.751121 232.348907 
" clip-path="url(#pd5aaf732ad)" style="fill: #e6482f"/>
    <path d="M 418.483375 212.082963 
L 417.151283 216.072928 
L 370.289974 200.454823 
L 371.622067 196.460587 
L 418.483375 212.082963 
" clip-path="url(#pd5aaf732ad)" style="fill: #e6482f"/>
    <path d="M 358.967189 201.685133 
L 355.974233 200.809391 
L 354.64214 205.36752 
L 348.188578 203.479335 
L 349.500831 198.998101 
L 353.086143 200.044719 
L 354.446578 195.396881 
L 360.30495 197.109917 
L 358.967189 201.685133 
" clip-path="url(#pd5aaf732ad)" style="fill: #e6482f"/>
    <path d="M 465.724472 173.400814 
L 464.848692 176.100661 
L 454.22313 172.653229 
L 455.09891 169.953382 
L 465.724472 173.400814 
" clip-path="url(#pd5aaf732ad)" style="fill: #e6482f"/>
    <path d="M 432.617726 160.439837 
L 434.953139 161.36257 
L 433.337622 165.442244 
L 431.002209 164.51524 
L 432.617726 160.439837 
" clip-path="url(#pd5aaf732ad)" style="fill: #e6482f"/>
    <path d="M 386.127702 152.622241 
L 388.959107 153.527886 
L 386.447971 161.366842 
L 383.616566 160.461197 
L 386.127702 152.622241 
" clip-path="url(#pd5aaf732ad)" style="fill: #e6482f"/>
    <path d="M 517.398319 208.007561 
L 516.604732 210.660417 
L 513.022254 209.583896 
L 513.815841 206.931039 
L 517.398319 208.007561 
" clip-path="url(#pd5aaf732ad)" style="fill: #e6482f"/>
    <path d="M 540.182767 205.910053 
L 539.270142 208.926021 
L 535.483598 207.781149 
L 536.396223 204.765181 
L 540.182767 205.910053 
" clip-path="url(#pd5aaf732ad)" style="fill: #e6482f"/>
    <path d="M 474.799706 201.954263 
L 476.508752 196.772436 
L 479.096412 197.626818 
L 477.387366 202.808646 
L 482.894292 204.624207 
L 481.329793 209.366028 
L 467.804804 204.906154 
L 469.366469 200.164333 
L 474.799706 201.954263 
" clip-path="url(#pd5aaf732ad)" style="fill: #e6482f"/>
    <path d="M 528.077732 201.826106 
L 527.125427 204.777996 
L 524.257177 203.855264 
L 525.206648 200.903373 
L 528.077732 201.826106 
" clip-path="url(#pd5aaf732ad)" style="fill: #e6482f"/>
    <path d="M 549.785169 201.689405 
L 549.000085 204.453331 
L 546.517291 203.748466 
L 547.302375 200.980268 
L 549.785169 201.689405 
" clip-path="url(#pd5aaf732ad)" style="fill: #e6482f"/>
    <path d="M 519.804588 200.010544 
L 518.480998 204.410612 
L 514.827664 203.312731 
L 516.151254 198.908391 
L 519.804588 200.010544 
" clip-path="url(#pd5aaf732ad)" style="fill: #e6482f"/>
    <path d="M 542.957487 199.374029 
L 541.914487 202.518156 
L 537.895536 201.18532 
L 538.938536 198.045465 
L 542.957487 199.374029 
" clip-path="url(#pd5aaf732ad)" style="fill: #e6482f"/>
    <path d="M 530.396139 195.046584 
L 529.443835 198.353043 
L 526.533071 197.515748 
L 527.48821 194.205018 
L 530.396139 195.046584 
" clip-path="url(#pd5aaf732ad)" style="fill: #e6482f"/>
    <path d="M 549.671799 194.025598 
L 552.242454 194.824445 
L 551.301487 197.840414 
L 548.730832 197.041566 
L 549.671799 194.025598 
" clip-path="url(#pd5aaf732ad)" style="fill: #e6482f"/>
    <path d="M 522.5538 192.57742 
L 521.590159 196.02058 
L 517.511688 194.87998 
L 518.47533 191.43682 
L 522.5538 192.57742 
" clip-path="url(#pd5aaf732ad)" style="fill: #e6482f"/>
    <path d="M 545.068995 192.654314 
L 544.105354 195.610476 
L 540.021215 194.281912 
L 540.984856 191.321478 
L 545.068995 192.654314 
" clip-path="url(#pd5aaf732ad)" style="fill: #e6482f"/>
    <path d="M 505.616387 190.774674 
L 503.935683 195.255908 
L 494.857616 192.009256 
L 496.314414 187.639091 
L 505.616387 190.774674 
" clip-path="url(#pd5aaf732ad)" style="fill: #e6482f"/>
    <path d="M 532.740055 188.549008 
L 531.833099 191.723038 
L 528.36399 190.736226 
L 529.270946 187.562197 
L 532.740055 188.549008 
" clip-path="url(#pd5aaf732ad)" style="fill: #e6482f"/>
    <path d="M 524.517927 185.669741 
L 523.602468 188.647262 
L 519.895284 187.506662 
L 520.807909 184.533412 
L 524.517927 185.669741 
" clip-path="url(#pd5aaf732ad)" style="fill: #e6482f"/>
    <path d="M 556.332261 181.948907 
L 555.207068 185.152839 
L 550.400199 183.465435 
L 551.525392 180.261502 
L 556.332261 181.948907 
" clip-path="url(#pd5aaf732ad)" style="fill: #e6482f"/>
    <path d="M 538.071259 177.202814 
L 537.059435 180.176064 
L 531.606359 178.317783 
L 532.618183 175.344533 
L 538.071259 177.202814 
" clip-path="url(#pd5aaf732ad)" style="fill: #e6482f"/>
    <path d="M 546.948095 176.690185 
L 545.947609 179.449839 
L 542.957487 178.369046 
L 543.957973 175.609391 
L 546.948095 176.690185 
" clip-path="url(#pd5aaf732ad)" style="fill: #e6482f"/>
    <path d="M 527.802811 174.054416 
L 526.816495 177.172911 
L 521.539142 175.502594 
L 522.525457 172.384099 
L 527.802811 174.054416 
" clip-path="url(#pd5aaf732ad)" style="fill: #e6482f"/>
    <path d="M 436.903095 147.491677 
L 439.723163 148.4614 
L 436.160524 158.816511 
L 433.340457 157.846788 
L 436.903095 147.491677 
" clip-path="url(#pd5aaf732ad)" style="fill: #e6482f"/>
    <path d="M 380.841846 146.564672 
L 379.710985 150.840854 
L 375.431284 149.708798 
L 376.56498 145.432616 
L 380.841846 146.564672 
" clip-path="url(#pd5aaf732ad)" style="fill: #e6482f"/>
    <path d="M 429.576587 145.876894 
L 428.842519 148.222173 
L 416.933047 144.488523 
L 417.669949 142.143245 
L 429.576587 145.876894 
" clip-path="url(#pd5aaf732ad)" style="fill: #e6482f"/>
    <path d="M 386.949631 137.969588 
L 385.566523 142.963451 
L 380.946713 141.68615 
L 382.329822 136.688015 
L 386.949631 137.969588 
" clip-path="url(#pd5aaf732ad)" style="fill: #e6482f"/>
    <path d="M 402.240351 107.673199 
L 406.355666 108.425055 
L 405.304164 114.175047 
L 401.186014 113.418918 
L 402.240351 107.673199 
" clip-path="url(#pd5aaf732ad)" style="fill: #e6482f"/>
    <path d="M 397.580862 106.212205 
L 396.707917 110.864316 
L 392.295006 110.035565 
L 393.167952 105.383455 
L 397.580862 106.212205 
" clip-path="url(#pd5aaf732ad)" style="fill: #e6482f"/>
    <path d="M 382.54239 103.303034 
L 385.263259 103.734497 
L 384.653898 107.604848 
L 381.930194 107.173385 
L 382.54239 103.303034 
" clip-path="url(#pd5aaf732ad)" style="fill: #e6482f"/>
    <path d="M 392.884528 84.574979 
L 384.770102 82.853399 
L 389.184111 62.040596 
L 397.10017 64.708993 
L 392.884528 84.574979 
" clip-path="url(#pd5aaf732ad)" style="fill: #e6482f"/>
   </g>
   <g id="LineCollection_1">
    <path d="M 558.411045 674.00937 
L 557.516973 667.46435 
" clip-path="url(#pd5aaf732ad)" style="fill: none; stroke: #e6482f; stroke-width: 0.2"/>
    <path d="M 571.739241 656.639059 
L 564.21428 657.339922 
L 557.516973 667.46435 
" clip-path="url(#pd5aaf732ad)" style="fill: none; stroke: #e6482f; stroke-width: 0.2"/>
    <path d="M 787.821571 391.238345 
L 763.464121 418.446143 
L 758.679925 422.474555 
L 737.907787 439.959485 
L 722.914662 454.834277 
L 698.486356 488.710527 
L 674.398158 520.44655 
L 640.183224 560.042889 
L 601.237945 606.367486 
L 588.101247 626.005459 
L 564.21428 657.339922 
" clip-path="url(#pd5aaf732ad)" style="fill: none; stroke: #e6482f; stroke-width: 0.2"/>
    <path d="M 787.059161 389.764536 
L 787.821571 391.238345 
L 792.458088 400.197773 
" clip-path="url(#pd5aaf732ad)" style="fill: none; stroke: #e6482f; stroke-width: 0.2"/>
    <path d="M 675.392976 483.562875 
L 527.542061 435.623496 
" clip-path="url(#pd5aaf732ad)" style="fill: none; stroke: #e6482f; stroke-width: 0.2"/>
    <path d="M 695.686128 440.685709 
L 542.750587 390.691541 
" clip-path="url(#pd5aaf732ad)" style="fill: none; stroke: #e6482f; stroke-width: 0.2"/>
    <path d="M 546.05531 342.23526 
L 625.014376 369.605391 
L 630.254884 373.535548 
L 689.983639 394.493541 
L 744.474719 414.665503 
L 748.578697 417.416613 
" clip-path="url(#pd5aaf732ad)" style="fill: none; stroke: #e6482f; stroke-width: 0.2"/>
    <path d="M 549.116288 333.059196 
L 546.05531 342.23526 
L 543.104867 351.090931 
L 555.124875 356.289846 
L 558.735696 356.943448 
L 662.301626 394.143245 
L 722.818298 415.976979 
L 741.680159 420.953755 
L 744.56258 420.253162 
L 746.920667 417.459332 
L 748.578697 417.416613 
L 750.41245 417.373894 
L 758.679925 422.474555 
" clip-path="url(#pd5aaf732ad)" style="fill: none; stroke: #e6482f; stroke-width: 0.2"/>
    <path d="M 723.444665 290.31446 
L 731.981393 297.743312 
L 754.482417 343.273334 
L 752.586311 352.36396 
L 744.22814 375.697135 
" clip-path="url(#pd5aaf732ad)" style="fill: none; stroke: #e6482f; stroke-width: 0.2"/>
    <path d="M 744.22814 375.697135 
L 736.737246 396.599593 
L 748.573029 405.831192 
L 751.88342 411.346228 
L 754.091292 411.747788 
L 757.200452 410.141549 
L 759.708754 406.830819 
L 768.735805 401.315782 
L 776.158678 388.978505 
L 773.349947 387.274013 
L 744.22814 375.697135 
" clip-path="url(#pd5aaf732ad)" style="fill: none; stroke: #e6482f; stroke-width: 0.2"/>
    <path d="M 787.059161 389.764536 
L 790.165821 381.039819 
" clip-path="url(#pd5aaf732ad)" style="fill: none; stroke: #e6482f; stroke-width: 0.2"/>
    <path d="M 490.444705 724.712222 
L 361.603031 680.980675 
" clip-path="url(#pd5aaf732ad)" style="fill: none; stroke: #e6482f; stroke-width: 0.2"/>
    <path d="M 516.332645 683.146533 
L 377.463433 635.916291 
" clip-path="url(#pd5aaf732ad)" style="fill: none; stroke: #e6482f; stroke-width: 0.2"/>
    <path d="M 554.747921 645.186337 
L 416.581601 599.173589 
L 412.075161 595.19644 
" clip-path="url(#pd5aaf732ad)" style="fill: none; stroke: #e6482f; stroke-width: 0.2"/>
    <path d="M 583.498443 604.500661 
L 484.399273 571.62831 
L 481.434659 569.582065 
L 478.589083 567.057366 
" clip-path="url(#pd5aaf732ad)" style="fill: none; stroke: #e6482f; stroke-width: 0.2"/>
    <path d="M 618.626002 566.151721 
L 497.91576 526.217901 
" clip-path="url(#pd5aaf732ad)" style="fill: none; stroke: #e6482f; stroke-width: 0.2"/>
    <path d="M 644.080303 524.722733 
L 512.356208 480.751958 
" clip-path="url(#pd5aaf732ad)" style="fill: none; stroke: #e6482f; stroke-width: 0.2"/>
    <path d="M 555.124875 356.289846 
L 542.750587 390.691541 
L 527.542061 435.623496 
L 522.570805 450.105272 
L 512.356208 480.751958 
L 497.91576 526.217901 
L 485.632167 563.144296 
L 478.589083 567.057366 
L 412.075161 595.19644 
L 392.567093 603.257535 
L 386.969471 605.833497 
L 376.298561 607.819936 
L 352.176352 611.011053 
" clip-path="url(#pd5aaf732ad)" style="fill: none; stroke: #e6482f; stroke-width: 0.2"/>
    <path d="M 522.570805 450.105272 
L 490.733798 439.575013 
L 471.750064 433.299576 
L 434.400462 420.949483 
" clip-path="url(#pd5aaf732ad)" style="fill: none; stroke: #e6482f; stroke-width: 0.2"/>
    <path d="M 511.931072 364.538905 
L 508.524316 366.546703 
L 497.870412 364.10317 
L 492.369154 371.002305 
L 471.750064 433.299576 
" clip-path="url(#pd5aaf732ad)" style="fill: none; stroke: #e6482f; stroke-width: 0.2"/>
    <path d="M 490.733798 439.575013 
L 514.025574 370.47686 
L 511.931072 364.538905 
L 525.481569 325.023733 
" clip-path="url(#pd5aaf732ad)" style="fill: none; stroke: #e6482f; stroke-width: 0.2"/>
    <path d="M 603.845445 302.698729 
L 625.550048 310.127581 
L 623.362015 317.385557 
L 601.926665 310.379624 
" clip-path="url(#pd5aaf732ad)" style="fill: none; stroke: #e6482f; stroke-width: 0.2"/>
    <path d="M 676.1979 288.853467 
L 677.430794 294.31724 
L 678.150691 297.508357 
L 674.290457 302.92514 
L 669.336207 314.621631 
L 669.047115 318.077606 
L 672.102424 321.187557 
L 672.331998 324.182166 
L 669.392892 336.455365 
L 665.994639 344.174708 
L 657.582618 341.180098 
L 650.49702 338.241024 
L 647.098767 335.592439 
L 640.529001 336.626242 
L 599.741467 323.836142 
L 592.825923 346.537074 
L 589.427671 347.284658 
L 584.881551 345.217054 
L 594.554809 312.028581 
L 596.745676 304.309239 
L 598.012581 296.816308 
L 601.527037 287.255772 
L 607.286211 283.684455 
L 611.625431 272.163112 
L 613.10207 268.241499 
" clip-path="url(#pd5aaf732ad)" style="fill: none; stroke: #e6482f; stroke-width: 0.2"/>
    <path d="M 599.741467 323.836142 
L 600.546391 319.51724 
L 600.143929 316.578166 
L 601.926665 310.379624 
L 602.564369 308.166774 
L 603.845445 302.698729 
L 605.387271 296.12853 
L 607.286211 283.684455 
" clip-path="url(#pd5aaf732ad)" style="fill: none; stroke: #e6482f; stroke-width: 0.2"/>
    <path d="M 712.119046 285.64099 
L 713.61269 287.336938 
L 717.662817 293.044211 
" clip-path="url(#pd5aaf732ad)" style="fill: none; stroke: #e6482f; stroke-width: 0.2"/>
    <path d="M 701.414125 291.446516 
L 711.030698 287.089168 
L 712.119046 285.64099 
L 712.90413 283.282895 
L 704.316386 267.557993 
L 702.017818 265.862044 
L 699.659731 266.528462 
L 691.434769 271.667571 
" clip-path="url(#pd5aaf732ad)" style="fill: none; stroke: #e6482f; stroke-width: 0.2"/>
    <path d="M 707.964051 304.06574 
L 677.430794 294.31724 
L 673.221949 292.97586 
L 611.625431 272.163112 
L 606.212034 270.334735 
L 543.512998 249.526259 
L 495.702219 235.685269 
" clip-path="url(#pd5aaf732ad)" style="fill: none; stroke: #e6482f; stroke-width: 0.2"/>
    <path d="M 707.776992 293.778979 
L 703.539804 294.958027 
L 699.163739 293.919953 
L 662.61906 280.416443 
L 644.474262 274.346059 
L 623.875012 267.545177 
L 604.179885 261.051873 
L 586.630277 255.36596 
L 568.369274 249.210137 
L 549.858859 243.340532 
L 531.804756 237.693067 
L 512.469577 230.973351 
L 494.285099 225.035396 
" clip-path="url(#pd5aaf732ad)" style="fill: none; stroke: #e6482f; stroke-width: 0.2"/>
    <path d="M 661.488199 283.983489 
L 662.61906 280.416443 
L 677.29475 234.074758 
L 676.387794 232.015698 
" clip-path="url(#pd5aaf732ad)" style="fill: none; stroke: #e6482f; stroke-width: 0.2"/>
    <path d="M 659.518403 226.338329 
L 644.474262 274.346059 
L 643.283881 278.148059 
" clip-path="url(#pd5aaf732ad)" style="fill: none; stroke: #e6482f; stroke-width: 0.2"/>
    <path d="M 622.673295 271.274555 
L 623.875012 267.545177 
L 639.233754 219.8792 
" clip-path="url(#pd5aaf732ad)" style="fill: none; stroke: #e6482f; stroke-width: 0.2"/>
    <path d="M 408.713753 291.232921 
L 412.20837 302.3228 
L 431.767454 333.75979 
L 436.659351 339.958332 
L 432.467511 343.538193 
L 431.070231 352.009391 
L 438.229519 365.282217 
L 451.159318 369.494321 
" clip-path="url(#pd5aaf732ad)" style="fill: none; stroke: #e6482f; stroke-width: 0.2"/>
    <path d="M 472.518143 307.021902 
L 525.481569 325.023733 
L 549.116288 333.059196 
L 584.881551 345.217054 
" clip-path="url(#pd5aaf732ad)" style="fill: none; stroke: #e6482f; stroke-width: 0.2"/>
    <path d="M 585.346366 259.437091 
L 586.630277 255.36596 
L 601.586556 207.887947 
" clip-path="url(#pd5aaf732ad)" style="fill: none; stroke: #e6482f; stroke-width: 0.2"/>
    <path d="M 566.980497 253.64438 
L 568.369274 249.210137 
L 583.144163 202.01407 
" clip-path="url(#pd5aaf732ad)" style="fill: none; stroke: #e6482f; stroke-width: 0.2"/>
    <path d="M 483.588681 221.493982 
L 488.834858 223.23265 
L 494.285099 225.035396 
" clip-path="url(#pd5aaf732ad)" style="fill: none; stroke: #e6482f; stroke-width: 0.2"/>
    <path d="M 548.427568 247.676521 
L 549.858859 243.340532 
L 565.356478 196.345245 
" clip-path="url(#pd5aaf732ad)" style="fill: none; stroke: #e6482f; stroke-width: 0.2"/>
    <path d="M 530.574696 241.430988 
L 531.804756 237.693067 
L 547.319381 190.603797 
" clip-path="url(#pd5aaf732ad)" style="fill: none; stroke: #e6482f; stroke-width: 0.2"/>
    <path d="M 504.083064 196.131649 
L 500.696148 206.119376 
L 494.285099 225.035396 
" clip-path="url(#pd5aaf732ad)" style="fill: none; stroke: #e6482f; stroke-width: 0.2"/>
    <path d="M 529.16608 184.81963 
L 527.091417 185.456145 
L 525.575099 188.967656 
L 512.469577 230.973351 
L 511.024115 235.59983 
" clip-path="url(#pd5aaf732ad)" style="fill: none; stroke: #e6482f; stroke-width: 0.2"/>
    <path d="M 488.834858 223.23265 
L 497.918594 196.627191 
L 498.717849 194.281912 
" clip-path="url(#pd5aaf732ad)" style="fill: none; stroke: #e6482f; stroke-width: 0.2"/>
    <path d="M 493.740925 192.564604 
L 490.268983 202.458349 
L 483.588681 221.493982 
" clip-path="url(#pd5aaf732ad)" style="fill: none; stroke: #e6482f; stroke-width: 0.2"/>
    <path d="M 354.222673 117.105577 
L 388.026642 128.161282 
L 490.57508 157.564841 
L 508.019822 159.568368 
L 520.694539 162.597152 
L 533.369256 166.454687 
L 642.065159 202.206306 
L 663.53452 209.267774 
L 670.841188 212.868995 
L 674.885647 216.239532 
L 676.685389 217.738973 
L 683.992057 223.587218 
L 691.494288 232.058417 
L 699.092883 243.361892 
L 704.157668 252.516596 
L 723.444665 290.31446 
" clip-path="url(#pd5aaf732ad)" style="fill: none; stroke: #e6482f; stroke-width: 0.2"/>
    <path d="M 497.918594 196.627191 
L 500.696148 206.119376 
" clip-path="url(#pd5aaf732ad)" style="fill: none; stroke: #e6482f; stroke-width: 0.2"/>
    <path d="M 490.268983 202.458349 
L 497.918594 196.627191 
" clip-path="url(#pd5aaf732ad)" style="fill: none; stroke: #e6482f; stroke-width: 0.2"/>
    <path d="M 493.740925 192.564604 
L 498.717849 194.281912 
L 504.083064 196.131649 
" clip-path="url(#pd5aaf732ad)" style="fill: none; stroke: #e6482f; stroke-width: 0.2"/>
    <path d="M 426.518443 207.050653 
L 429.636106 198.404306 
L 431.894995 192.145957 
L 439.371717 171.427191 
L 440.295679 168.868317 
" clip-path="url(#pd5aaf732ad)" style="fill: none; stroke: #e6482f; stroke-width: 0.2"/>
    <path d="M 431.894995 192.145957 
L 463.465584 202.398542 
L 465.735809 201.001627 
L 467.308812 198.293236 
L 471.41279 185.631293 
L 471.41279 184.05923 
L 470.01551 182.136871 
L 468.354646 181.265401 
L 439.371717 171.427191 
" clip-path="url(#pd5aaf732ad)" style="fill: none; stroke: #e6482f; stroke-width: 0.2"/>
    <path d="M 359.701257 183.70039 
L 372.789773 188.942024 
L 426.518443 207.050653 
L 497.204366 230.990439 
L 511.024115 235.59983 
L 530.574696 241.430988 
L 548.427568 247.676521 
L 566.980497 253.64438 
L 585.346366 259.437091 
L 586.120114 259.68059 
L 602.927151 265.020478 
L 613.10207 268.241499 
L 622.673295 271.274555 
L 643.283881 278.148059 
L 661.488199 283.983489 
L 662.310128 284.248347 
L 676.1979 288.853467 
L 699.328125 296.521546 
L 704.492108 297.786032 
L 709.264967 297.008544 
L 717.662817 293.044211 
L 723.444665 290.31446 
L 732.758942 285.552853 
" clip-path="url(#pd5aaf732ad)" style="fill: none; stroke: #e6482f; stroke-width: 0.2"/>
    <path d="M 619.190015 213.492694 
L 604.179885 261.051873 
L 602.927151 265.020478 
" clip-path="url(#pd5aaf732ad)" style="fill: none; stroke: #e6482f; stroke-width: 0.2"/>
    <path d="M 670.622952 229.87547 
L 674.885647 216.239532 
" clip-path="url(#pd5aaf732ad)" style="fill: none; stroke: #e6482f; stroke-width: 0.2"/>
    <path d="M 676.387794 232.015698 
L 674.877144 231.229666 
L 670.622952 229.87547 
L 659.518403 226.338329 
L 639.233754 219.8792 
L 619.190015 213.492694 
L 601.586556 207.887947 
L 583.144163 202.01407 
L 565.356478 196.345245 
L 547.319381 190.603797 
L 529.16608 184.81963 
" clip-path="url(#pd5aaf732ad)" style="fill: none; stroke: #e6482f; stroke-width: 0.2"/>
    <path d="M 656.79238 159.194885 
L 654.901427 166.950229 
L 645.534267 192.124597 
L 642.065159 202.206306 
" clip-path="url(#pd5aaf732ad)" style="fill: none; stroke: #e6482f; stroke-width: 0.2"/>
    <path d="M 508.019822 159.568368 
L 504.355151 151.293677 
L 502.521398 143.839193 
L 502.657442 137.59366 
L 503.286643 131.271232 
L 510.15542 102.818394 
" clip-path="url(#pd5aaf732ad)" style="fill: none; stroke: #e6482f; stroke-width: 0.2"/>
    <path d="M 158.610186 609.949455 
L 173.191321 586.152806 
L 175.997217 577.925106 
L 174.96272 575.332056 
L 173.99341 572.909883 
L 163.109932 562.208747 
" clip-path="url(#pd5aaf732ad)" style="fill: none; stroke: #e6482f; stroke-width: 0.2"/>
    <path d="M 125.59311 530.682048 
L 116.852317 531.297203 
L 56.918551 502.851581 
" clip-path="url(#pd5aaf732ad)" style="fill: none; stroke: #e6482f; stroke-width: 0.2"/>
    <path d="M 174.96272 575.332056 
L 177.547546 570.325377 
L 182.382758 566.215799 
L 190.94216 563.767995 
L 196.53128 561.585048 
L 201.159592 557.654891 
L 206.485127 557.744601 
L 217.632189 563.481777 
L 223.337513 567.698152 
L 234.16714 569.79566 
L 241.677874 573.55067 
L 248.925023 580.099508 
L 270.581444 591.279098 
L 292.237864 610.319003 
L 308.897522 614.676352 
" clip-path="url(#pd5aaf732ad)" style="fill: none; stroke: #e6482f; stroke-width: 0.2"/>
    <path d="M 125.59311 530.682048 
L 135.654659 546.744431 
L 163.109932 562.208747 
L 175.299995 569.073707 
L 177.547546 570.325377 
L 242.533814 606.529819 
L 252.385629 610.250653 
L 263.181246 612.378064 
L 272.752471 616.466282 
L 287.051207 624.698254 
L 293.314875 624.10873 
L 301.038177 617.854653 
L 308.897522 614.676352 
L 352.176352 611.011053 
" clip-path="url(#pd5aaf732ad)" style="fill: none; stroke: #e6482f; stroke-width: 0.2"/>
    <path d="M 227.937483 549.243499 
L 229.810915 549.324665 
L 237.355659 547.423665 
L 242.77189 548.115715 
L 253.544833 550.593423 
L 256.194846 551.456349 
L 256.31105 563.844889 
L 259.133952 564.366062 
L 280.336895 566.84377 
L 301.537003 568.860112 
L 310.753948 569.206137 
L 313.520166 567.937379 
L 314.500812 566.322597 
L 315.249051 556.010205 
" clip-path="url(#pd5aaf732ad)" style="fill: none; stroke: #e6482f; stroke-width: 0.2"/>
    <path d="M 226.214265 548.32931 
L 217.632189 563.481777 
" clip-path="url(#pd5aaf732ad)" style="fill: none; stroke: #e6482f; stroke-width: 0.2"/>
    <path d="M 175.299995 569.073707 
L 189.601565 541.472894 
L 191.698902 539.986269 
L 195.715019 533.087133 
L 197.636633 533.176844 
L 203.633883 536.355145 
L 226.214265 548.32931 
L 227.937483 549.243499 
" clip-path="url(#pd5aaf732ad)" style="fill: none; stroke: #e6482f; stroke-width: 0.2"/>
    <path d="M 245.892387 531.574877 
L 242.488466 534.193558 
L 205.722717 531.750025 
L 203.633883 536.355145 
" clip-path="url(#pd5aaf732ad)" style="fill: none; stroke: #e6482f; stroke-width: 0.2"/>
    <path d="M 205.722717 531.750025 
L 198.214818 515.243363 
L 247.553251 518.737786 
L 252.266591 519.784404 
L 258.640795 524.415155 
L 256.194846 551.456349 
" clip-path="url(#pd5aaf732ad)" style="fill: none; stroke: #e6482f; stroke-width: 0.2"/>
    <path d="M 182.059655 522.317647 
L 189.567554 526.598101 
L 190.791945 529.306493 
L 186.772994 536.466215 
L 189.601565 541.472894 
" clip-path="url(#pd5aaf732ad)" style="fill: none; stroke: #e6482f; stroke-width: 0.2"/>
    <path d="M 459.880271 764.757111 
L 346.043059 724.609697 
L 336.09488 720.218173 
" clip-path="url(#pd5aaf732ad)" style="fill: none; stroke: #e6482f; stroke-width: 0.2"/>
    <path d="M 386.969471 605.833497 
L 377.463433 635.916291 
L 361.603031 680.980675 
L 346.043059 724.609697 
" clip-path="url(#pd5aaf732ad)" style="fill: none; stroke: #e6482f; stroke-width: 0.2"/>
    <path d="M 350.77057 585.025021 
L 363.122184 590.975793 
L 374.957966 597.251229 
L 379.498417 597.862112 
L 400.194031 590.262383 
L 406.91968 583.538396 
" clip-path="url(#pd5aaf732ad)" style="fill: none; stroke: #e6482f; stroke-width: 0.2"/>
    <path d="M 256.31105 563.844889 
L 256.928914 565.549381 
L 307.454894 594.589829 
L 310.623573 595.39722 
L 317.363394 593.090388 
L 322.779625 589.924903 
L 344.498399 591.420071 
" clip-path="url(#pd5aaf732ad)" style="fill: none; stroke: #e6482f; stroke-width: 0.2"/>
    <path d="M 344.498399 591.420071 
L 344.481393 588.780031 
L 350.77057 585.025021 
L 370.766126 548.867571 
" clip-path="url(#pd5aaf732ad)" style="fill: none; stroke: #e6482f; stroke-width: 0.2"/>
    <path d="M 280.821549 424.537888 
L 273.611245 448.729717 
" clip-path="url(#pd5aaf732ad)" style="fill: none; stroke: #e6482f; stroke-width: 0.2"/>
    <path d="M 194.638008 395.540159 
L 241.975469 411.645262 
L 260.089091 417.301271 
L 280.821549 424.537888 
L 418.489044 469.234887 
" clip-path="url(#pd5aaf732ad)" style="fill: none; stroke: #e6482f; stroke-width: 0.2"/>
    <path d="M 352.176352 611.011053 
L 363.122184 590.975793 
L 375.6892 567.980098 
L 401.285213 523.727378 
L 418.489044 469.234887 
L 434.400462 420.949483 
L 436.917266 413.225869 
L 451.159318 369.494321 
L 472.518143 307.021902 
L 495.702219 235.685269 
L 497.204366 230.990439 
" clip-path="url(#pd5aaf732ad)" style="fill: none; stroke: #e6482f; stroke-width: 0.2"/>
    <path d="M 436.917266 413.225869 
L 406.948022 403.79349 
L 404.363196 396.18949 
L 406.644759 379.161655 
L 398.323433 369.477233 
" clip-path="url(#pd5aaf732ad)" style="fill: none; stroke: #e6482f; stroke-width: 0.2"/>
    <path d="M 260.089091 417.301271 
L 280.44743 359.647567 
L 289.565177 333.776877 
L 295.426383 316.535447 
L 301.242242 301.5624 
" clip-path="url(#pd5aaf732ad)" style="fill: none; stroke: #e6482f; stroke-width: 0.2"/>
    <path d="M 315.249051 556.010205 
L 269.892724 540.90473 
L 271.159628 515.555213 
L 257.33421 512.902356 
L 202.024035 509.215698 
L 204.674048 482.712765 
L 195.173679 481.798576 
" clip-path="url(#pd5aaf732ad)" style="fill: none; stroke: #e6482f; stroke-width: 0.2"/>
    <path d="M 198.214818 515.243363 
L 192.013502 514.282183 
" clip-path="url(#pd5aaf732ad)" style="fill: none; stroke: #e6482f; stroke-width: 0.2"/>
    <path d="M 195.173679 481.798576 
L 192.013502 514.282183 
L 182.059655 522.317647 
L 172.366557 517.601458 
L 166.689576 528.781048 
L 170.26922 532.360909 
L 170.00847 538.213426 
L 167.826106 542.229022 
L 164.595074 543.104764 
L 145.075669 533.125581 
" clip-path="url(#pd5aaf732ad)" style="fill: none; stroke: #e6482f; stroke-width: 0.2"/>
    <path d="M 175.521065 474.788371 
L 145.075669 533.125581 
L 144.335933 534.543855 
L 139.183286 535.765621 
L 126.344183 528.234243 
" clip-path="url(#pd5aaf732ad)" style="fill: none; stroke: #e6482f; stroke-width: 0.2"/>
    <path d="M 161.627625 466.851161 
L 175.521065 474.788371 
L 176.484707 475.339447 
L 177.629739 475.510324 
L 183.471106 476.386065 
L 190.831625 479.790778 
L 195.173679 481.798576 
" clip-path="url(#pd5aaf732ad)" style="fill: none; stroke: #e6482f; stroke-width: 0.2"/>
    <path d="M 194.638008 395.540159 
L 190.641731 407.398983 
L 186.464062 418.642651 
L 161.627625 466.851161 
L 158.850071 472.032989 
L 140.52955 503.064146 
L 127.072583 525.859061 
L 126.344183 528.234243 
L 125.59311 530.682048 
" clip-path="url(#pd5aaf732ad)" style="fill: none; stroke: #e6482f; stroke-width: 0.2"/>
    <path d="M 190.831625 479.790778 
L 195.856731 464.330734 
L 212.884839 438.917138 
" clip-path="url(#pd5aaf732ad)" style="fill: none; stroke: #e6482f; stroke-width: 0.2"/>
    <path d="M 173.627794 398.29127 
L 158.402261 445.641126 
L 154.252935 444.141685 
L 136.278191 475.369351 
L 124.986583 469.721885 
L 113.462567 488.159451 
L 140.52955 503.064146 
" clip-path="url(#pd5aaf732ad)" style="fill: none; stroke: #e6482f; stroke-width: 0.2"/>
    <path d="M 186.464062 418.642651 
L 202.491684 425.904899 
L 177.431342 471.054721 
L 177.629739 475.510324 
" clip-path="url(#pd5aaf732ad)" style="fill: none; stroke: #e6482f; stroke-width: 0.2"/>
    <path d="M 398.323433 369.477233 
L 368.563923 332.50812 
L 353.2647 313.50239 
" clip-path="url(#pd5aaf732ad)" style="fill: none; stroke: #e6482f; stroke-width: 0.2"/>
    <path d="M 368.563923 332.50812 
L 404.436887 305.11663 
L 412.20837 302.3228 
" clip-path="url(#pd5aaf732ad)" style="fill: none; stroke: #e6482f; stroke-width: 0.2"/>
    <path d="M 294.199158 300.387625 
L 295.426383 316.535447 
" clip-path="url(#pd5aaf732ad)" style="fill: none; stroke: #e6482f; stroke-width: 0.2"/>
    <path d="M 301.242242 301.5624 
L 340.383084 183.38854 
L 342.355714 177.523207 
" clip-path="url(#pd5aaf732ad)" style="fill: none; stroke: #e6482f; stroke-width: 0.2"/>
    <path d="M 333.80198 174.678115 
L 306.834196 254.648279 
L 294.550604 292.411968 
L 293.975253 296.50873 
L 294.020601 298.785659 
L 294.199158 300.387625 
L 295.055098 301.848618 
L 296.25965 303.01485 
L 298.067894 303.50612 
L 299.946995 303.121648 
L 301.242242 301.5624 
" clip-path="url(#pd5aaf732ad)" style="fill: none; stroke: #e6482f; stroke-width: 0.2"/>
    <path d="M 311.932992 169.081912 
L 286.915163 247.697881 
L 306.834196 254.648279 
" clip-path="url(#pd5aaf732ad)" style="fill: none; stroke: #e6482f; stroke-width: 0.2"/>
    <path d="M 495.702219 235.685269 
L 424.894424 211.117511 
L 340.383084 183.38854 
" clip-path="url(#pd5aaf732ad)" style="fill: none; stroke: #e6482f; stroke-width: 0.2"/>
    <path d="M 311.932992 169.081912 
L 333.80198 174.678115 
L 342.355714 177.523207 
L 359.701257 183.70039 
" clip-path="url(#pd5aaf732ad)" style="fill: none; stroke: #e6482f; stroke-width: 0.2"/>
    <path d="M 347.355312 156.817257 
L 347.570714 159.760603 
L 348.214086 162.093067 
L 349.177727 164.664757 
L 350.141369 166.672555 
L 351.187203 168.761519 
L 352.150844 170.367757 
L 355.08995 175.703373 
L 359.701257 183.70039 
" clip-path="url(#pd5aaf732ad)" style="fill: none; stroke: #e6482f; stroke-width: 0.2"/>
    <path d="M 311.932992 169.081912 
L 282.145075 159.884132 
" clip-path="url(#pd5aaf732ad)" style="fill: none; stroke: #e6482f; stroke-width: 0.2"/>
    <path d="M 273.611245 448.729717 
L 237.777961 437.080217 
" clip-path="url(#pd5aaf732ad)" style="fill: none; stroke: #e6482f; stroke-width: 0.2"/>
    <path d="M 190.641731 407.398983 
L 238.09823 424.07225 
L 241.975469 411.645262 
" clip-path="url(#pd5aaf732ad)" style="fill: none; stroke: #e6482f; stroke-width: 0.2"/>
    <path d="M 173.775174 396.774741 
L 102.978716 374.197695 
L 98.716021 397.475335 
L 86.50045 433.884828 
" clip-path="url(#pd5aaf732ad)" style="fill: none; stroke: #e6482f; stroke-width: 0.2"/>
    <path d="M 104.865269 362.760085 
L 170.317402 384.087167 
L 174.693468 387.342363 
L 173.775174 396.774741 
L 173.627794 398.29127 
L 175.756307 402.242787 
L 190.641731 407.398983 
" clip-path="url(#pd5aaf732ad)" style="fill: none; stroke: #e6482f; stroke-width: 0.2"/>
    <path d="M 101.195072 373.483726 
L 102.978716 374.197695 
" clip-path="url(#pd5aaf732ad)" style="fill: none; stroke: #e6482f; stroke-width: 0.2"/>
    <path d="M 166.338131 315.903204 
L 271.766156 350.91151 
L 276.788427 358.301916 
L 280.44743 359.647567 
" clip-path="url(#pd5aaf732ad)" style="fill: none; stroke: #e6482f; stroke-width: 0.2"/>
    <path d="M 131.584738 328.18516 
L 136.161987 326.967452 
L 147.096482 322.251263 
L 151.007732 319.141312 
L 157.679779 312.957391 
" clip-path="url(#pd5aaf732ad)" style="fill: none; stroke: #e6482f; stroke-width: 0.2"/>
    <path d="M 233.09972 259.634306 
L 237.675928 256.651805 
L 247.505069 247.223699 
L 250.3138 242.208476 
L 253.924621 230.870826 
L 257.53482 209.937338 
" clip-path="url(#pd5aaf732ad)" style="fill: none; stroke: #e6482f; stroke-width: 0.2"/>
    <path d="M 327.286255 68.074408 
L 334.374497 64.672148 
L 342.157317 65.082251 
" clip-path="url(#pd5aaf732ad)" style="fill: none; stroke: #e6482f; stroke-width: 0.2"/>
    <path d="M 347.355312 156.817257 
L 339.246554 154.049059 
" clip-path="url(#pd5aaf732ad)" style="fill: none; stroke: #e6482f; stroke-width: 0.2"/>
    <path d="M 359.93083 91.86713 
L 380.532914 96.506425 
L 385.22358 97.399254 
L 406.990536 101.534463 
" clip-path="url(#pd5aaf732ad)" style="fill: none; stroke: #e6482f; stroke-width: 0.2"/>
    <path d="M 385.22358 97.399254 
L 388.293061 85.074792 
" clip-path="url(#pd5aaf732ad)" style="fill: none; stroke: #e6482f; stroke-width: 0.2"/>
    <path d="M 413.754684 70.323005 
L 406.990536 101.534463 
" clip-path="url(#pd5aaf732ad)" style="fill: none; stroke: #e6482f; stroke-width: 0.2"/>
    <path d="M 367.675262 54.790253 
L 359.93083 91.86713 
L 359.176923 94.848924 
L 354.222673 117.105577 
L 348.576869 148.085472 
L 347.531034 153.600509 
L 347.355312 156.817257 
L 345.60942 164.660485 
L 342.355714 177.523207 
" clip-path="url(#pd5aaf732ad)" style="fill: none; stroke: #e6482f; stroke-width: 0.2"/>
    <path d="M 342.768631 46.394563 
L 342.157317 65.082251 
L 339.246554 154.049059 
L 333.80198 174.678115 
" clip-path="url(#pd5aaf732ad)" style="fill: none; stroke: #e6482f; stroke-width: 0.2"/>
   </g>
  </g>
 </g>
 <defs>
  <clipPath id="pd5aaf732ad">
   <rect x="7.2" y="7.2" width="828.578172" height="831.6"/>
  </clipPath>
 </defs>
</svg>
