<?xml version="1.0" encoding="utf-8" standalone="no"?>
<!DOCTYPE svg PUBLIC "-//W3C//DTD SVG 1.1//EN"
  "http://www.w3.org/Graphics/SVG/1.1/DTD/svg11.dtd">
<svg xmlns:xlink="http://www.w3.org/1999/xlink" width="851.4pt" height="635.948499pt" viewBox="0 0 851.4 635.948499" xmlns="http://www.w3.org/2000/svg" version="1.1">
 <metadata>
  <rdf:RDF xmlns:dc="http://purl.org/dc/elements/1.1/" xmlns:cc="http://creativecommons.org/ns#" xmlns:rdf="http://www.w3.org/1999/02/22-rdf-syntax-ns#">
   <cc:Work>
    <dc:type rdf:resource="http://purl.org/dc/dcmitype/StillImage"/>
    <dc:date>2025-03-16T14:38:38.141792</dc:date>
    <dc:format>image/svg+xml</dc:format>
    <dc:creator>
     <cc:Agent>
      <dc:title>Matplotlib v3.10.1, https://matplotlib.org/</dc:title>
     </cc:Agent>
    </dc:creator>
   </cc:Work>
  </rdf:RDF>
 </metadata>
 <defs>
  <style type="text/css">*{stroke-linejoin: round; stroke-linecap: butt}</style>
 </defs>
 <g id="figure_1">
  <g id="patch_1">
   <path d="M 0 635.948499 
L 851.4 635.948499 
L 851.4 0 
L 0 0 
z
" style="fill: #ffffff"/>
  </g>
  <g id="axes_1">
   <g id="PatchCollection_1">
    <path d="M 561.484833 573.221746 
L 624.406705 590.533838 
L 659.991301 600.496294 
L 684.310819 593.370418 
L 707.525581 586.120614 
L 725.94925 579.609216 
L 737.372314 576.782963 
L 760.489765 576.798454 
L 766.481779 573.343953 
L 770.289467 542.87481 
L 775.448049 533.723051 
L 785.029089 518.918785 
L 791.538564 497.604843 
L 806.154545 451.846048 
L 802.101865 422.487096 
L 794.117855 398.534514 
L 777.167576 378.267077 
L 752.356928 369.79176 
L 730.862839 357.509091 
L 706.542176 331.224248 
L 677.064077 308.746757 
L 650.411406 280.375787 
L 637.882441 269.446002 
L 639.822919 248.978903 
L 607.29844 205.70728 
L 598.332171 205.583352 
L 582.119159 200.917108 
L 571.6795 215.654245 
L 569.713835 226.093481 
L 574.74992 235.179834 
L 539.989598 265.146379 
L 493.193731 242.550124 
L 491.903513 228.303536 
L 491.166246 222.654472 
L 485.946989 218.84712 
L 480.480449 216.022588 
L 473.602341 216.206759 
L 473.970974 233.215915 
L 473.173031 240.706691 
L 463.407674 240.400312 
L 458.863863 245.558827 
L 455.301168 261.585163 
L 427.358279 265.822821 
L 416.610662 266.743677 
L 406.109182 271.22575 
L 389.282544 279.27076 
L 357.34765 257.531675 
L 342.239394 248.56753 
L 328.114543 244.760178 
L 306.620454 241.383132 
L 303.303896 231.374203 
L 287.70451 209.390704 
L 268.543574 203.127162 
L 261.296831 194.531359 
L 259.945938 190.477872 
L 246.066079 176.96969 
L 228.870808 168.620022 
L 213.148926 157.321894 
L 215.359583 114.34288 
L 213.824372 105.13432 
L 206.516954 92.30258 
L 185.390354 72.348406 
L 182.99538 67.866334 
L 183.793323 63.630396 
L 188.425285 50.922584 
L 133.741573 35.452204 
L 129.093583 37.624392 
L 95.112887 74.682389 
L 59.861436 51.597305 
L 58.879176 53.194603 
L 45.245455 72.716749 
L 85.164358 99.485256 
L 110.588632 117.289619 
L 135.767913 129.446638 
L 161.930599 150.445596 
L 174.213427 184.154087 
L 208.236482 202.636613 
L 210.016684 214.793632 
L 223.58973 244.944349 
L 225.247436 260.173757 
L 234.766656 267.358155 
L 230.590335 274.848931 
L 228.870808 283.814797 
L 228.870808 292.166186 
L 229.853067 298.675863 
L 226.045379 309.853505 
L 221.992699 321.643903 
L 221.132935 333.680437 
L 224.57199 343.997466 
L 229.730571 347.928746 
L 266.086779 361.316443 
L 304.286155 374.581932 
L 317.428747 366.8433 
L 356.855375 378.513212 
L 375.280189 381.952222 
L 381.298534 366.721093 
L 391.002071 374.581932 
L 399.477211 378.020942 
L 416.549986 384.408412 
L 429.200302 387.847421 
L 466.293778 397.305558 
L 501.0541 412.90503 
L 496.264152 432.805846 
L 490.859433 462.164799 
L 488.893768 473.588576 
L 497.615045 481.082794 
L 510.511499 493.735527 
L 524.391358 513.760271 
L 561.484833 573.221746 
" clip-path="url(#p7f5b4661c0)" style="fill: #f29888"/>
   </g>
   <g id="PatchCollection_2">
    <path d="M 506.384405 389.640939 
L 507.420472 389.857813 
L 507.264775 390.59794 
L 507.599064 390.668511 
L 507.43192 391.461996 
L 506.061564 391.174551 
L 506.384405 389.640939 
" clip-path="url(#p7f5b4661c0)" style="fill: #f29888"/>
    <path d="M 504.075293 389.014412 
L 505.485717 389.313906 
L 505.188063 390.718426 
L 503.776494 390.418933 
L 504.075293 389.014412 
" clip-path="url(#p7f5b4661c0)" style="fill: #f29888"/>
    <path d="M 503.391832 387.303514 
L 503.268191 388.038477 
L 502.495434 387.907664 
L 502.619076 387.172701 
L 503.391832 387.303514 
" clip-path="url(#p7f5b4661c0)" style="fill: #f29888"/>
    <path d="M 503.563556 382.89029 
L 505.733 383.18462 
L 505.462821 385.176078 
L 503.293377 384.881749 
L 503.563556 382.89029 
" clip-path="url(#p7f5b4661c0)" style="fill: #f29888"/>
    <path d="M 499.052946 383.244863 
L 498.930449 383.936796 
L 498.195472 383.805982 
L 498.317968 383.11405 
L 499.052946 383.244863 
" clip-path="url(#p7f5b4661c0)" style="fill: #f29888"/>
    <path d="M 498.645388 371.871001 
L 500.220667 371.920916 
L 500.185178 373.058647 
L 499.487979 373.036271 
L 499.47882 373.320273 
L 498.60074 373.292734 
L 498.645388 371.871001 
" clip-path="url(#p7f5b4661c0)" style="fill: #f29888"/>
    <path d="M 403.686732 342.105839 
L 405.526466 343.914847 
L 404.61404 344.842588 
L 402.774307 343.03358 
L 403.686732 342.105839 
" clip-path="url(#p7f5b4661c0)" style="fill: #f29888"/>
    <path d="M 360.664208 331.441122 
L 361.3408 331.969538 
L 360.906911 332.525495 
L 360.230319 331.998799 
L 360.664208 331.441122 
" clip-path="url(#p7f5b4661c0)" style="fill: #f29888"/>
    <path d="M 361.629296 282.465356 
L 363.923525 283.553171 
L 363.355692 284.749423 
L 361.061462 283.661608 
L 361.629296 282.465356 
" clip-path="url(#p7f5b4661c0)" style="fill: #f29888"/>
    <path d="M 550.236927 410.06845 
L 550.199148 411.567637 
L 548.22318 411.517722 
L 548.262104 410.018534 
L 550.236927 410.06845 
" clip-path="url(#p7f5b4661c0)" style="fill: #f29888"/>
    <path d="M 509.695239 382.575306 
L 509.367819 384.854209 
L 507.090762 384.527176 
L 507.418182 382.248273 
L 509.695239 382.575306 
" clip-path="url(#p7f5b4661c0)" style="fill: #f29888"/>
    <path d="M 513.438817 380.406561 
L 513.362113 380.847195 
L 520.150926 382.024513 
L 519.800609 384.04179 
L 510.425637 382.415232 
L 510.620258 381.292992 
L 510.030673 381.19144 
L 509.845211 382.262043 
L 507.947091 381.933288 
L 508.466842 378.938355 
L 510.288258 379.253339 
L 510.061583 380.55975 
L 510.754202 380.680236 
L 510.878988 379.962485 
L 513.438817 380.406561 
" clip-path="url(#p7f5b4661c0)" style="fill: #f29888"/>
   </g>
   <g id="LineCollection_1">
    <path d="M 762.129463 575.85314 
L 752.052405 575.81047 
L 735.831379 575.770882 
L 731.292148 576.304462 
L 728.989905 576.829436 
L 726.07518 577.560957 
L 723.192511 578.221908 
L 714.07169 581.557644 
" clip-path="url(#p7f5b4661c0)" style="fill: none; stroke: #f29888; stroke-width: 0.2"/>
    <path d="M 711.140938 582.629968 
L 714.07169 581.557644 
" clip-path="url(#p7f5b4661c0)" style="fill: none; stroke: #f29888; stroke-width: 0.2"/>
    <path d="M 638.853252 543.90066 
L 651.626065 535.626727 
L 653.018172 535.447719 
L 663.755486 550.634097 
L 691.944512 585.031078 
" clip-path="url(#p7f5b4661c0)" style="fill: none; stroke: #f29888; stroke-width: 0.2"/>
    <path d="M 217.894225 189.037206 
L 261.40559 227.191624 
L 282.521887 245.629397 
L 282.645528 247.502091 
L 280.856167 251.328377 
L 269.723888 268.277289 
L 269.41593 270.704218 
L 270.650052 273.234421 
L 271.781139 274.385921 
L 278.28031 278.559894 
L 306.889488 296.772187 
L 310.117894 298.576032 
L 313.374921 300.001207 
L 331.24564 305.374875 
L 336.140912 307.349121 
L 339.71849 309.159851 
L 342.598869 311.216716 
L 347.740279 316.068852 
L 352.429482 320.92271 
L 361.643034 330.095123 
L 369.252685 335.64952 
L 379.824 342.312386 
L 390.025535 345.479442 
L 397.05934 346.79618 
L 400.431995 348.235125 
L 403.476084 350.498537 
L 411.291805 357.161403 
L 415.819588 360.743274 
L 419.631855 363.158155 
L 423.020537 364.683161 
L 437.931883 369.554231 
L 450.851233 372.519903 
L 470.3373 378.576898 
L 480.799856 380.907438 
L 491.517707 382.940206 
L 509.731873 387.854306 
L 527.057655 391.072999 
L 536.63984 392.892335 
L 548.021691 400.541463 
L 550.026279 403.102648 
L 551.13676 406.125121 
L 551.568359 408.562377 
L 551.815641 417.569553 
L 552.21633 420.223683 
L 554.129332 427.010478 
L 561.292502 439.800908 
L 563.735559 444.29503 
L 567.181482 449.486247 
L 571.064729 455.157687 
L 572.896449 457.076854 
L 579.1346 465.280218 
L 590.214217 478.979456 
L 601.207971 492.590912 
L 616.692874 512.923755 
L 625.287076 525.531736 
L 638.853252 543.90066 
L 660.359935 570.386887 
L 663.326177 573.266498 
L 683.975385 591.752466 
" clip-path="url(#p7f5b4661c0)" style="fill: none; stroke: #f29888; stroke-width: 0.2"/>
    <path d="M 711.140938 582.629968 
L 704.49065 585.06206 
L 692.369242 588.822939 
L 683.975385 591.752466 
L 673.597033 596.509671 
" clip-path="url(#p7f5b4661c0)" style="fill: none; stroke: #f29888; stroke-width: 0.2"/>
    <path d="M 663.501912 599.467648 
L 662.757199 599.596093 
L 658.213388 599.596093 
L 650.590692 597.864449 
" clip-path="url(#p7f5b4661c0)" style="fill: none; stroke: #f29888; stroke-width: 0.2"/>
    <path d="M 362.128439 287.207334 
L 361.952136 290.981982 
L 361.035131 295.708469 
L 360.965297 303.397186 
L 361.387738 311.684889 
L 361.811323 319.903744 
L 362.234908 326.640623 
L 362.270398 328.651015 
L 361.643034 330.095123 
" clip-path="url(#p7f5b4661c0)" style="fill: none; stroke: #f29888; stroke-width: 0.2"/>
    <path d="M 726.07518 577.560957 
L 729.87164 578.638752 
" clip-path="url(#p7f5b4661c0)" style="fill: none; stroke: #f29888; stroke-width: 0.2"/>
    <path d="M 706.607431 563.312648 
L 710.740249 564.446936 
L 712.765445 568.013316 
L 714.4678 569.311121 
L 716.492995 570.202716 
L 718.114067 572.877501 
L 722.328168 572.390394 
L 724.839914 574.337101 
L 726.07518 577.560957 
" clip-path="url(#p7f5b4661c0)" style="fill: none; stroke: #f29888; stroke-width: 0.2"/>
    <path d="M 212.716182 143.033997 
L 174.733177 136.746358 
" clip-path="url(#p7f5b4661c0)" style="fill: none; stroke: #f29888; stroke-width: 0.2"/>
    <path d="M 181.156791 74.315768 
L 176.665642 99.542057 
" clip-path="url(#p7f5b4661c0)" style="fill: none; stroke: #f29888; stroke-width: 0.2"/>
    <path d="M 182.709173 69.759682 
L 181.156791 74.315768 
L 174.741191 75.811513 
L 168.753756 81.797937 
L 163.834443 87.142344 
L 154.425127 88.424658 
L 147.154343 86.286895 
L 140.738744 82.653387 
L 132.398693 85.218013 
L 121.491945 85.433167 
L 103.100331 86.71548 
L 88.558764 78.377861 
L 81.996627 73.515398 
L 70.381233 64.909267 
" clip-path="url(#p7f5b4661c0)" style="fill: none; stroke: #f29888; stroke-width: 0.2"/>
    <path d="M 187.171701 51.68853 
L 162.552239 45.454249 
L 154.853291 44.5988 
L 147.368425 44.385368 
L 141.379846 42.67619 
L 130.988265 36.738933 
" clip-path="url(#p7f5b4661c0)" style="fill: none; stroke: #f29888; stroke-width: 0.2"/>
    <path d="M 187.593864 50.68737 
L 187.171701 51.68853 
L 183.330813 62.700934 
L 182.483643 66.54099 
L 182.709173 69.759682 
L 184.177984 72.188332 
L 186.663399 74.615261 
L 204.807731 91.330087 
L 207.914786 95.113342 
L 209.923954 98.893154 
L 211.611426 102.440601 
L 213.065353 105.580118 
L 214.228496 111.279097 
L 214.694439 114.594179 
L 214.286882 120.933454 
L 212.716182 143.033997 
L 211.087096 167.750803 
L 211.087096 171.647659 
L 211.436267 175.544514 
L 212.017839 177.869891 
L 213.472911 182.465564 
L 215.799196 186.303899 
L 217.894225 189.037206 
" clip-path="url(#p7f5b4661c0)" style="fill: none; stroke: #f29888; stroke-width: 0.2"/>
    <path d="M 84.335427 67.624564 
L 84.468304 67.828467 
L 81.996627 73.515398 
" clip-path="url(#p7f5b4661c0)" style="fill: none; stroke: #f29888; stroke-width: 0.2"/>
    <path d="M 57.520989 55.139393 
L 70.381233 64.909267 
" clip-path="url(#p7f5b4661c0)" style="fill: none; stroke: #f29888; stroke-width: 0.2"/>
   </g>
  </g>
 </g>
 <defs>
  <clipPath id="p7f5b4661c0">
   <rect x="7.2" y="7.2" width="837" height="621.548499"/>
  </clipPath>
 </defs>
</svg>
