<?xml version="1.0" encoding="utf-8" standalone="no"?>
<!DOCTYPE svg PUBLIC "-//W3C//DTD SVG 1.1//EN"
  "http://www.w3.org/Graphics/SVG/1.1/DTD/svg11.dtd">
<svg xmlns:xlink="http://www.w3.org/1999/xlink" width="740.213757pt" height="846pt" viewBox="0 0 740.213757 846" xmlns="http://www.w3.org/2000/svg" version="1.1">
 <metadata>
  <rdf:RDF xmlns:dc="http://purl.org/dc/elements/1.1/" xmlns:cc="http://creativecommons.org/ns#" xmlns:rdf="http://www.w3.org/1999/02/22-rdf-syntax-ns#">
   <cc:Work>
    <dc:type rdf:resource="http://purl.org/dc/dcmitype/StillImage"/>
    <dc:date>2025-03-16T14:38:39.704885</dc:date>
    <dc:format>image/svg+xml</dc:format>
    <dc:creator>
     <cc:Agent>
      <dc:title>Matplotlib v3.10.1, https://matplotlib.org/</dc:title>
     </cc:Agent>
    </dc:creator>
   </cc:Work>
  </rdf:RDF>
 </metadata>
 <defs>
  <style type="text/css">*{stroke-linejoin: round; stroke-linecap: butt}</style>
 </defs>
 <g id="figure_1">
  <g id="patch_1">
   <path d="M 0 846 
L 740.213757 846 
L 740.213757 0 
L 0 0 
z
" style="fill: #ffffff"/>
  </g>
  <g id="axes_1">
   <g id="PatchCollection_1">
    <path d="M 700.022223 698.384008 
L 695.806845 672.636723 
L 563.642336 403.596249 
L 576.536435 109.181639 
L 457.266025 45 
L 210.542411 51.343534 
L 52.329344 188.236999 
L 40.191534 198.737414 
L 69.947146 435.687068 
L 197.648313 724.131293 
L 321.134101 711.071076 
L 376.429946 801 
L 610.507425 736.818361 
L 700.022223 698.384008 
" clip-path="url(#p8d2a4dffe9)" style="fill: #f29888"/>
   </g>
   <g id="PatchCollection_2">
    <path d="M 405.429269 676.40926 
L 416.091697 668.920158 
L 418.64572 672.558361 
L 407.985772 680.047463 
L 405.429269 676.40926 
" clip-path="url(#p8d2a4dffe9)" style="fill: #f29888"/>
    <path d="M 421.348522 665.337927 
L 431.991112 658.28541 
L 434.252539 661.878835 
L 423.609948 669.061955 
L 421.348522 665.337927 
" clip-path="url(#p8d2a4dffe9)" style="fill: #f29888"/>
    <path d="M 402.195826 662.009437 
L 412.436716 655.490523 
L 414.698142 658.949615 
L 404.189452 665.737196 
L 402.195826 662.009437 
" clip-path="url(#p8d2a4dffe9)" style="fill: #f29888"/>
    <path d="M 437.178507 654.296446 
L 441.168239 651.766496 
L 447.687197 661.080296 
L 443.563565 663.875183 
L 437.178507 654.296446 
" clip-path="url(#p8d2a4dffe9)" style="fill: #f29888"/>
    <path d="M 454.203676 652.367266 
L 464.712366 645.049812 
L 468.704578 651.035123 
L 465.111587 653.565074 
L 463.517183 651.568727 
L 457.132124 656.490563 
L 454.203676 652.367266 
" clip-path="url(#p8d2a4dffe9)" style="fill: #f29888"/>
    <path d="M 450.613166 628.086456 
L 461.255756 620.903337 
L 463.383282 624.8923 
L 453.008492 631.679882 
L 450.613166 628.086456 
" clip-path="url(#p8d2a4dffe9)" style="fill: #f29888"/>
    <path d="M 469.768341 619.041323 
L 482.937679 611.059664 
L 485.464426 615.048628 
L 472.295088 622.899684 
L 469.768341 619.041323 
" clip-path="url(#p8d2a4dffe9)" style="fill: #f29888"/>
    <path d="M 339.850381 547.21386 
L 341.511736 546.81459 
L 340.713294 542.224857 
L 343.04167 541.762152 
L 343.907063 546.217552 
L 345.967639 545.952616 
L 348.829137 561.848766 
L 342.575499 562.979408 
L 339.850381 547.21386 
" clip-path="url(#p8d2a4dffe9)" style="fill: #f29888"/>
    <path d="M 384.072179 498.898519 
L 391.652421 499.032853 
L 391.521001 513.798361 
L 383.804379 513.664028 
L 384.072179 498.898519 
" clip-path="url(#p8d2a4dffe9)" style="fill: #f29888"/>
    <path d="M 364.887249 486.860731 
L 381.944653 487.323435 
L 381.676852 497.275321 
L 376.323322 497.129793 
L 376.387792 494.700592 
L 364.683919 494.387147 
L 364.887249 486.860731 
" clip-path="url(#p8d2a4dffe9)" style="fill: #f29888"/>
    <path d="M 302.931106 535.149951 
L 307.585379 534.418578 
L 308.383822 538.739645 
L 328.80361 535.34772 
L 330.598865 545.195123 
L 305.192532 549.583356 
L 302.931106 535.149951 
" clip-path="url(#p8d2a4dffe9)" style="fill: #f29888"/>
    <path d="M 301.914456 523.063653 
L 317.746921 521.500158 
L 318.379227 527.881007 
L 302.546762 529.444501 
L 301.914456 523.063653 
" clip-path="url(#p8d2a4dffe9)" style="fill: #f29888"/>
    <path d="M 298.673574 514.929003 
L 325.942112 512.26845 
L 326.475233 518.320928 
L 299.538966 521.115814 
L 298.673574 514.929003 
" clip-path="url(#p8d2a4dffe9)" style="fill: #f29888"/>
    <path d="M 293.620079 493.64458 
L 307.71928 494.640888 
L 307.186158 501.0292 
L 293.153908 499.831392 
L 293.620079 493.64458 
" clip-path="url(#p8d2a4dffe9)" style="fill: #f29888"/>
    <path d="M 308.450772 467.206969 
L 317.030306 467.871175 
L 316.831936 471.128766 
L 308.316871 470.330227 
L 308.450772 467.206969 
" clip-path="url(#p8d2a4dffe9)" style="fill: #f29888"/>
    <path d="M 279.453928 420.94768 
L 302.331034 423.339566 
L 302.065713 427.197927 
L 279.054707 424.936644 
L 279.453928 420.94768 
" clip-path="url(#p8d2a4dffe9)" style="fill: #f29888"/>
    <path d="M 293.287808 381.438657 
L 305.924024 382.7708 
L 305.658704 386.360494 
L 292.955537 385.364186 
L 293.287808 381.438657 
" clip-path="url(#p8d2a4dffe9)" style="fill: #f29888"/>
    <path d="M 277.923994 379.378875 
L 290.294889 380.841619 
L 289.694818 387.024699 
L 277.192502 385.297019 
L 277.923994 379.378875 
" clip-path="url(#p8d2a4dffe9)" style="fill: #f29888"/>
    <path d="M 331.836203 369.180711 
L 355.980402 371.576328 
L 355.608457 375.322744 
L 331.464258 372.938322 
L 331.836203 369.180711 
" clip-path="url(#p8d2a4dffe9)" style="fill: #f29888"/>
    <path d="M 305.259482 361.81848 
L 309.581485 362.284916 
L 307.78623 376.848924 
L 303.263377 376.516821 
L 305.259482 361.81848 
" clip-path="url(#p8d2a4dffe9)" style="fill: #f29888"/>
    <path d="M 333.140491 378.781836 
L 357.344201 381.020731 
L 356.925143 385.55076 
L 332.721432 383.308134 
L 333.140491 378.781836 
" clip-path="url(#p8d2a4dffe9)" style="fill: #f29888"/>
    <path d="M 364.019377 366.441797 
L 368.443044 366.411945 
L 368.542229 382.207345 
L 364.123521 382.233465 
L 364.019377 366.441797 
" clip-path="url(#p8d2a4dffe9)" style="fill: #f29888"/>
    <path d="M 334.782008 352.769615 
L 358.132725 355.038361 
L 357.817811 358.266101 
L 346.887583 357.206357 
L 346.57019 360.456486 
L 343.098702 360.11692 
L 343.413615 356.896644 
L 334.464615 356.027206 
L 334.782008 352.769615 
" clip-path="url(#p8d2a4dffe9)" style="fill: #f29888"/>
    <path d="M 366.511409 343.496861 
L 371.168162 343.627463 
L 370.835891 357.859368 
L 365.980767 357.795933 
L 366.511409 343.496861 
" clip-path="url(#p8d2a4dffe9)" style="fill: #f29888"/>
    <path d="M 375.6563 338.075005 
L 377.585456 338.075005 
L 377.652406 339.537749 
L 375.6563 339.604916 
L 375.6563 338.075005 
" clip-path="url(#p8d2a4dffe9)" style="fill: #f29888"/>
    <path d="M 335.022533 332.100888 
L 361.433118 334.65696 
L 361.051254 338.593682 
L 349.639977 337.489161 
L 349.238276 341.638578 
L 345.48411 341.276624 
L 345.89325 337.052577 
L 334.648108 335.962981 
L 335.022533 332.100888 
" clip-path="url(#p8d2a4dffe9)" style="fill: #f29888"/>
    <path d="M 387.99744 318.514531 
L 392.2029 317.574195 
L 392.793053 320.216091 
L 388.587593 321.156426 
L 387.99744 318.514531 
" clip-path="url(#p8d2a4dffe9)" style="fill: #f29888"/>
    <path d="M 402.327247 318.320494 
L 399.401278 318.854097 
L 399.269858 315.794274 
L 423.079306 313.398657 
L 423.609948 318.719763 
L 402.595047 321.11538 
L 402.327247 318.320494 
" clip-path="url(#p8d2a4dffe9)" style="fill: #f29888"/>
    <path d="M 345.994915 277.024087 
L 345.065052 277.886061 
L 342.669725 273.897098 
L 343.733488 273.031392 
L 342.868096 271.833583 
L 347.79017 268.840928 
L 352.114652 275.956881 
L 351.050889 276.75542 
L 350.185497 275.893445 
L 346.927257 278.218164 
L 345.994915 277.024087 
" clip-path="url(#p8d2a4dffe9)" style="fill: #f29888"/>
    <path d="M 352.246073 269.307364 
L 354.376079 268.109556 
L 353.376786 266.247542 
L 357.435947 264.187759 
L 360.627237 270.17307 
L 354.574449 273.497828 
L 352.246073 269.307364 
" clip-path="url(#p8d2a4dffe9)" style="fill: #f29888"/>
    <path d="M 259.195316 331.029951 
L 265.644845 329.167937 
L 266.755721 332.660612 
L 266.976408 333.358401 
L 260.259079 335.287581 
L 259.195316 331.029951 
" clip-path="url(#p8d2a4dffe9)" style="fill: #f29888"/>
    <path d="M 233.53854 323.831905 
L 245.755698 319.775775 
L 247.218682 324.186397 
L 235.004004 328.242527 
L 233.53854 323.831905 
" clip-path="url(#p8d2a4dffe9)" style="fill: #f29888"/>
    <path d="M 268.112081 325.108075 
L 289.062511 312.271747 
L 290.592445 315.529339 
L 270.041236 328.5 
L 268.112081 325.108075 
" clip-path="url(#p8d2a4dffe9)" style="fill: #f29888"/>
    <path d="M 318.758612 318.88768 
L 322.683873 317.16 
L 324.280757 320.884028 
L 320.288546 322.678875 
L 318.758612 318.88768 
" clip-path="url(#p8d2a4dffe9)" style="fill: #f29888"/>
    <path d="M 231.269674 308.338756 
L 245.901996 303.286318 
L 247.898102 309.338796 
L 233.46663 314.391234 
L 231.269674 308.338756 
" clip-path="url(#p8d2a4dffe9)" style="fill: #f29888"/>
    <path d="M 305.623989 303.957986 
L 308.683857 302.693011 
L 309.61372 304.622192 
L 306.556331 305.954334 
L 305.623989 303.957986 
" clip-path="url(#p8d2a4dffe9)" style="fill: #f29888"/>
    <path d="M 249.247023 299.371984 
L 257.127301 296.703968 
L 259.810265 304.61846 
L 251.929987 307.290207 
L 249.247023 299.371984 
" clip-path="url(#p8d2a4dffe9)" style="fill: #f29888"/>
    <path d="M 260.844273 291.144047 
L 268.18647 285.405015 
L 273.651584 292.397828 
L 266.311866 298.136861 
L 260.844273 291.144047 
" clip-path="url(#p8d2a4dffe9)" style="fill: #f29888"/>
    <path d="M 275.129446 282.576545 
L 279.186128 280.315262 
L 284.373523 290.558203 
L 280.584641 292.617986 
L 275.129446 282.576545 
" clip-path="url(#p8d2a4dffe9)" style="fill: #f29888"/>
    <path d="M 244.324949 289.554432 
L 259.899532 275.460592 
L 264.826565 280.904837 
L 249.251982 294.998677 
L 244.324949 289.554432 
" clip-path="url(#p8d2a4dffe9)" style="fill: #f29888"/>
    <path d="M 236.603368 278.740573 
L 251.684504 265.825884 
L 256.25199 271.154452 
L 241.173334 284.076604 
L 236.603368 278.740573 
" clip-path="url(#p8d2a4dffe9)" style="fill: #f29888"/>
    <path d="M 266.128373 271.322369 
L 271.91336 266.344561 
L 275.977481 271.068628 
L 270.192494 276.046436 
L 266.128373 271.322369 
" clip-path="url(#p8d2a4dffe9)" style="fill: #f29888"/>
    <path d="M 256.465239 261.844383 
L 271.722428 248.16847 
L 276.468448 253.459724 
L 261.211259 267.139368 
L 256.465239 261.844383 
" clip-path="url(#p8d2a4dffe9)" style="fill: #f29888"/>
    <path d="M 248.017124 246.410938 
L 266.614382 230.208806 
L 272.027423 236.421737 
L 253.430166 252.62387 
L 248.017124 246.410938 
" clip-path="url(#p8d2a4dffe9)" style="fill: #f29888"/>
    <path d="M 239.137554 235.511254 
L 257.734811 219.309121 
L 263.147853 225.522053 
L 244.550596 241.724186 
L 239.137554 235.511254 
" clip-path="url(#p8d2a4dffe9)" style="fill: #f29888"/>
    <path d="M 229.295885 225.148904 
L 247.893143 208.946772 
L 253.306184 215.159704 
L 234.708927 231.358105 
L 229.295885 225.148904 
" clip-path="url(#p8d2a4dffe9)" style="fill: #f29888"/>
    <path d="M 292.707574 123.473248 
L 300.820937 120.682093 
L 302.551722 125.734531 
L 294.703679 128.66002 
L 292.707574 123.473248 
" clip-path="url(#p8d2a4dffe9)" style="fill: #f29888"/>
    <path d="M 325.793334 119.84997 
L 348.509264 111.63696 
L 349.940013 115.59234 
L 327.224083 123.80535 
L 325.793334 119.84997 
" clip-path="url(#p8d2a4dffe9)" style="fill: #f29888"/>
    <path d="M 318.012242 98.472261 
L 340.728171 90.25925 
L 342.15892 94.210898 
L 319.442991 102.423909 
L 318.012242 98.472261 
" clip-path="url(#p8d2a4dffe9)" style="fill: #f29888"/>
    <path d="M 311.495763 79.852122 
L 334.209213 71.639112 
L 335.639962 75.59076 
L 312.924032 83.803771 
L 311.495763 79.852122 
" clip-path="url(#p8d2a4dffe9)" style="fill: #f29888"/>
    <path d="M 361.093408 263.855656 
L 365.680731 261.26227 
L 367.810737 265.51617 
L 362.955613 267.978954 
L 361.093408 263.855656 
" clip-path="url(#p8d2a4dffe9)" style="fill: #f29888"/>
    <path d="M 378.051627 259.131589 
L 383.906044 256.071767 
L 385.835199 259.997295 
L 380.114683 263.057117 
L 378.051627 259.131589 
" clip-path="url(#p8d2a4dffe9)" style="fill: #f29888"/>
    <path d="M 345.429558 260.161481 
L 354.076043 255.109042 
L 356.203569 258.967404 
L 347.824885 263.88924 
L 345.429558 260.161481 
" clip-path="url(#p8d2a4dffe9)" style="fill: #f29888"/>
    <path d="M 369.539042 254.541856 
L 373.263453 252.616407 
L 376.987864 260.262231 
L 373.132033 262.325745 
L 369.539042 254.541856 
" clip-path="url(#p8d2a4dffe9)" style="fill: #f29888"/>
    <path d="M 374.595017 248.690879 
L 380.712275 245.36612 
L 383.439872 251.086496 
L 377.188714 254.079151 
L 374.595017 248.690879 
" clip-path="url(#p8d2a4dffe9)" style="fill: #f29888"/>
    <path d="M 358.84438 239.212892 
L 369.987856 233.332063 
L 371.986442 237.119526 
L 360.842965 243.000355 
L 358.84438 239.212892 
" clip-path="url(#p8d2a4dffe9)" style="fill: #f29888"/>
    <path d="M 383.801899 242.903337 
L 418.256418 223.421224 
L 421.452666 229.074432 
L 386.998148 248.556545 
L 383.801899 242.903337 
" clip-path="url(#p8d2a4dffe9)" style="fill: #f29888"/>
    <path d="M 373.042766 233.488786 
L 381.840508 228.753524 
L 379.799769 224.966061 
L 388.81076 220.111392 
L 390.920929 224.029457 
L 414.167501 211.514038 
L 417.395985 217.510543 
L 376.343159 239.615893 
L 373.042766 233.488786 
" clip-path="url(#p8d2a4dffe9)" style="fill: #f29888"/>
    <path d="M 359.739528 51.276367 
L 361.383525 55.354886 
L 338.732066 64.485844 
L 337.085589 60.399862 
L 359.739528 51.276367 
" clip-path="url(#p8d2a4dffe9)" style="fill: #f29888"/>
    <path d="M 335.85569 53.638401 
L 334.29848 49.783771 
L 338.585099 48.051416 
L 350.448772 47.746388 
L 335.85569 53.638401 
" clip-path="url(#p8d2a4dffe9)" style="fill: #f29888"/>
    <path d="M 273.718534 70.941323 
L 296.431984 62.728312 
L 297.862733 66.679961 
L 275.146803 74.892971 
L 273.718534 70.941323 
" clip-path="url(#p8d2a4dffe9)" style="fill: #f29888"/>
    <path d="M 307.503551 70.00845 
L 330.219481 61.795439 
L 331.65023 65.750819 
L 308.9343 73.96383 
L 307.503551 70.00845 
" clip-path="url(#p8d2a4dffe9)" style="fill: #f29888"/>
    <path d="M 155.313516 415.025805 
L 157.574943 414.16383 
L 157.974164 415.160138 
L 159.171827 414.693702 
L 159.637999 415.89151 
L 156.910401 417.089319 
L 156.57813 416.156446 
L 155.645787 416.622883 
L 155.313516 415.025805 
" clip-path="url(#p8d2a4dffe9)" style="fill: #f29888"/>
    <path d="M 149.992221 403.652221 
L 151.723006 402.988016 
L 152.253648 404.387325 
L 157.242672 402.390977 
L 158.041114 404.782863 
L 151.256835 407.37998 
L 149.992221 403.652221 
" clip-path="url(#p8d2a4dffe9)" style="fill: #f29888"/>
    <path d="M 149.469018 348.161224 
L 161.924221 327.089497 
L 167.855507 330.597098 
L 155.400304 351.668825 
L 149.469018 348.161224 
" clip-path="url(#p8d2a4dffe9)" style="fill: #f29888"/>
    <path d="M 139.133902 342.489358 
L 151.591585 321.417631 
L 157.520391 324.925232 
L 145.065188 345.99696 
L 139.133902 342.489358 
" clip-path="url(#p8d2a4dffe9)" style="fill: #f29888"/>
    <path d="M 128.848379 336.638381 
L 141.303582 315.566654 
L 147.234868 319.070523 
L 134.779665 340.142251 
L 128.848379 336.638381 
" clip-path="url(#p8d2a4dffe9)" style="fill: #f29888"/>
    <path d="M 118.513264 330.209023 
L 130.970946 309.137295 
L 136.902232 312.644896 
L 124.447028 333.716624 
L 118.513264 330.209023 
" clip-path="url(#p8d2a4dffe9)" style="fill: #f29888"/>
    <path d="M 104.441339 307.103633 
L 109.772553 310.055242 
L 102.747749 322.74231 
L 97.414055 319.786969 
L 104.441339 307.103633 
" clip-path="url(#p8d2a4dffe9)" style="fill: #f29888"/>
    <path d="M 144.276664 308.450701 
L 156.734347 287.382705 
L 162.663152 290.886575 
L 150.207949 311.958302 
L 144.276664 308.450701 
" clip-path="url(#p8d2a4dffe9)" style="fill: #f29888"/>
    <path d="M 123.522125 296.842034 
L 124.719788 294.647917 
L 126.715894 295.711392 
L 125.652131 297.838342 
L 123.522125 296.842034 
" clip-path="url(#p8d2a4dffe9)" style="fill: #f29888"/>
    <path d="M 134.112643 302.484047 
L 146.567846 281.41232 
L 152.499131 284.919921 
L 140.043928 305.991649 
L 134.112643 302.484047 
" clip-path="url(#p8d2a4dffe9)" style="fill: #f29888"/>
    <path d="M 200.690824 348.489595 
L 205.945169 346.82535 
L 206.808082 349.620237 
L 201.553737 351.347917 
L 200.690824 348.489595 
" clip-path="url(#p8d2a4dffe9)" style="fill: #f29888"/>
    <path d="M 178.805572 345.459625 
L 180.204085 344.926022 
L 181.002528 347.187305 
L 179.405643 347.653741 
L 178.805572 345.459625 
" clip-path="url(#p8d2a4dffe9)" style="fill: #f29888"/>
    <path d="M 159.930595 354.545805 
L 172.388278 333.474077 
L 178.319563 336.981678 
L 165.861881 358.053406 
L 159.930595 354.545805 
" clip-path="url(#p8d2a4dffe9)" style="fill: #f29888"/>
    <path d="M 181.081876 344.627502 
L 186.00395 343.429694 
L 186.403171 345.026772 
L 181.481097 346.157414 
L 181.081876 344.627502 
" clip-path="url(#p8d2a4dffe9)" style="fill: #f29888"/>
    <path d="M 223.119116 325.507345 
L 230.634888 329.895577 
L 228.507362 333.951708 
L 220.659319 329.694077 
L 223.119116 325.507345 
" clip-path="url(#p8d2a4dffe9)" style="fill: #f29888"/>
    <path d="M 196.879626 338.019033 
L 209.334829 316.943574 
L 215.263635 320.451175 
L 202.810911 341.522902 
L 196.879626 338.019033 
" clip-path="url(#p8d2a4dffe9)" style="fill: #f29888"/>
    <path d="M 186.447805 332.414334 
L 198.903008 311.342606 
L 204.831813 314.846476 
L 192.37661 335.918203 
L 186.447805 332.414334 
" clip-path="url(#p8d2a4dffe9)" style="fill: #f29888"/>
    <path d="M 175.936635 326.104383 
L 188.391838 305.032655 
L 194.323123 308.536525 
L 181.86792 329.608253 
L 175.936635 326.104383 
" clip-path="url(#p8d2a4dffe9)" style="fill: #f29888"/>
    <path d="M 165.296524 320.634018 
L 177.751727 299.56229 
L 183.683012 303.069891 
L 171.22533 324.141619 
L 165.296524 320.634018 
" clip-path="url(#p8d2a4dffe9)" style="fill: #f29888"/>
    <path d="M 154.842386 313.962113 
L 167.297589 292.890385 
L 173.228874 296.394255 
L 160.773671 317.465982 
L 154.842386 313.962113 
" clip-path="url(#p8d2a4dffe9)" style="fill: #f29888"/>
    <path d="M 224.329178 285.822942 
L 229.541369 281.5877 
L 232.492134 285.222172 
L 227.279943 289.453682 
L 224.329178 285.822942 
" clip-path="url(#p8d2a4dffe9)" style="fill: #f29888"/>
    <path d="M 201.643004 287.390168 
L 220.237781 271.188036 
L 225.650823 277.400967 
L 207.053566 293.599368 
L 201.643004 287.390168 
" clip-path="url(#p8d2a4dffe9)" style="fill: #f29888"/>
    <path d="M 192.329497 276.483021 
L 210.924275 260.280888 
L 216.337317 266.49382 
L 197.740059 282.695953 
L 192.329497 276.483021 
" clip-path="url(#p8d2a4dffe9)" style="fill: #f29888"/>
    <path d="M 224.510191 267.609536 
L 243.107449 251.407404 
L 248.52049 257.620336 
L 229.923233 273.822468 
L 224.510191 267.609536 
" clip-path="url(#p8d2a4dffe9)" style="fill: #f29888"/>
    <path d="M 182.834977 266.460237 
L 201.432235 250.254373 
L 206.845276 256.471037 
L 188.248019 272.669437 
L 182.834977 266.460237 
" clip-path="url(#p8d2a4dffe9)" style="fill: #f29888"/>
    <path d="M 215.104938 256.799408 
L 233.702196 240.597275 
L 239.115237 246.810207 
L 220.51798 263.01234 
L 215.104938 256.799408 
" clip-path="url(#p8d2a4dffe9)" style="fill: #f29888"/>
    <path d="M 173.702484 255.55309 
L 192.297262 239.350958 
L 197.710304 245.563889 
L 179.113046 261.766022 
L 173.702484 255.55309 
" clip-path="url(#p8d2a4dffe9)" style="fill: #f29888"/>
    <path d="M 206.155938 246.153465 
L 224.753195 229.947601 
L 230.166237 236.160533 
L 211.56898 252.362665 
L 206.155938 246.153465 
" clip-path="url(#p8d2a4dffe9)" style="fill: #f29888"/>
    <path d="M 164.473285 245.093722 
L 183.070543 228.891589 
L 188.483584 235.104521 
L 169.886327 251.302922 
L 164.473285 245.093722 
" clip-path="url(#p8d2a4dffe9)" style="fill: #f29888"/>
    <path d="M 196.666378 235.511254 
L 215.263635 219.309121 
L 220.676677 225.522053 
L 202.079419 241.720454 
L 196.666378 235.511254 
" clip-path="url(#p8d2a4dffe9)" style="fill: #f29888"/>
    <path d="M 114.022646 290.770898 
L 126.477849 269.699171 
L 132.411614 273.206772 
L 119.951451 294.2785 
L 114.022646 290.770898 
" clip-path="url(#p8d2a4dffe9)" style="fill: #f29888"/>
    <path d="M 103.015549 284.86768 
L 115.473232 263.795953 
L 121.404517 267.299822 
L 108.946834 288.375281 
L 103.015549 284.86768 
" clip-path="url(#p8d2a4dffe9)" style="fill: #f29888"/>
    <path d="M 92.258896 278.986851 
L 104.714099 257.915123 
L 110.645384 261.418993 
L 98.190181 282.490721 
L 92.258896 278.986851 
" clip-path="url(#p8d2a4dffe9)" style="fill: #f29888"/>
    <path d="M 81.601427 272.184344 
L 94.05663 251.112616 
L 99.987916 254.620217 
L 87.532713 275.691945 
L 81.601427 272.184344 
" clip-path="url(#p8d2a4dffe9)" style="fill: #f29888"/>
    <path d="M 71.325823 266.829654 
L 83.781026 245.757927 
L 89.712311 249.265528 
L 77.257108 270.333524 
L 71.325823 266.829654 
" clip-path="url(#p8d2a4dffe9)" style="fill: #f29888"/>
    <path d="M 61.062616 261.374215 
L 73.520299 240.302488 
L 79.451584 243.810089 
L 66.993902 264.881816 
L 61.062616 261.374215 
" clip-path="url(#p8d2a4dffe9)" style="fill: #f29888"/>
    <path d="M 117.293284 239.410661 
L 135.888061 223.208529 
L 141.301103 229.421461 
L 122.703846 245.623593 
L 117.293284 239.410661 
" clip-path="url(#p8d2a4dffe9)" style="fill: #f29888"/>
    <path d="M 84.083541 235.854551 
L 96.985079 225.081737 
L 100.044947 228.805765 
L 87.674052 239.977848 
L 84.083541 235.854551 
" clip-path="url(#p8d2a4dffe9)" style="fill: #f29888"/>
    <path d="M 108.247578 228.775913 
L 126.844835 212.573781 
L 132.257877 218.786713 
L 113.660619 234.988845 
L 108.247578 228.775913 
" clip-path="url(#p8d2a4dffe9)" style="fill: #f29888"/>
    <path d="M 140.887004 218.491925 
L 159.481782 202.289793 
L 164.894823 208.502725 
L 146.297566 224.701125 
L 140.887004 218.491925 
" clip-path="url(#p8d2a4dffe9)" style="fill: #f29888"/>
    <path d="M 154.810151 234.361955 
L 173.407408 218.159822 
L 178.82045 224.372754 
L 160.223192 240.574886 
L 154.810151 234.361955 
" clip-path="url(#p8d2a4dffe9)" style="fill: #f29888"/>
    <path d="M 187.08755 224.96233 
L 205.684808 208.760197 
L 211.097849 214.973129 
L 192.500592 231.17153 
L 187.08755 224.96233 
" clip-path="url(#p8d2a4dffe9)" style="fill: #f29888"/>
    <path d="M 220.255139 214.935814 
L 238.852396 198.733682 
L 244.265438 204.946614 
L 225.66818 221.148746 
L 220.255139 214.935814 
" clip-path="url(#p8d2a4dffe9)" style="fill: #f29888"/>
    <path d="M 177.86579 214.585054 
L 196.460568 198.382922 
L 201.87361 204.595854 
L 183.276352 220.794255 
L 177.86579 214.585054 
" clip-path="url(#p8d2a4dffe9)" style="fill: #f29888"/>
    <path d="M 211.120166 204.028667 
L 229.714944 187.826535 
L 235.127985 194.039467 
L 216.530728 210.237868 
L 211.120166 204.028667 
" clip-path="url(#p8d2a4dffe9)" style="fill: #f29888"/>
    <path d="M 163.583097 198.535913 
L 182.180354 182.333781 
L 187.593396 188.546713 
L 168.996138 204.745114 
L 163.583097 198.535913 
" clip-path="url(#p8d2a4dffe9)" style="fill: #f29888"/>
    <path d="M 202.166207 193.666318 
L 220.763464 177.464186 
L 226.176505 183.677117 
L 207.579248 199.875518 
L 202.166207 193.666318 
" clip-path="url(#p8d2a4dffe9)" style="fill: #f29888"/>
    <path d="M 173.236313 173.314768 
L 177.359945 177.613445 
L 159.809093 193.323021 
L 155.509407 188.494472 
L 173.236313 173.314768 
" clip-path="url(#p8d2a4dffe9)" style="fill: #f29888"/>
    <path d="M 187.08755 177.960474 
L 205.684808 161.758342 
L 211.097849 167.971273 
L 192.500592 184.169674 
L 187.08755 177.960474 
" clip-path="url(#p8d2a4dffe9)" style="fill: #f29888"/>
    <path d="M 178.041844 167.232438 
L 196.639102 151.030306 
L 202.052143 157.243238 
L 183.454886 173.441639 
L 178.041844 167.232438 
" clip-path="url(#p8d2a4dffe9)" style="fill: #f29888"/>
    <path d="M 98.505094 217.868766 
L 117.102352 201.666634 
L 122.515393 207.879566 
L 103.918136 224.077966 
L 98.505094 217.868766 
" clip-path="url(#p8d2a4dffe9)" style="fill: #f29888"/>
    <path d="M 131.48671 207.763889 
L 150.081488 191.561757 
L 155.49453 197.774689 
L 136.897272 213.97309 
L 131.48671 207.763889 
" clip-path="url(#p8d2a4dffe9)" style="fill: #f29888"/>
    <path d="M 89.456909 207.581046 
L 108.054166 191.378914 
L 113.467208 197.591846 
L 94.86995 213.793978 
L 89.456909 207.581046 
" clip-path="url(#p8d2a4dffe9)" style="fill: #f29888"/>
    <path d="M 122.088896 197.386614 
L 140.686154 181.184482 
L 146.099195 187.397414 
L 127.501938 203.595814 
L 122.088896 197.386614 
" clip-path="url(#p8d2a4dffe9)" style="fill: #f29888"/>
    <path d="M 80.316977 197.106752 
L 98.914234 180.90462 
L 104.327276 187.117552 
L 85.730018 203.319684 
L 80.316977 197.106752 
" clip-path="url(#p8d2a4dffe9)" style="fill: #f29888"/>
    <path d="M 112.961362 186.654847 
L 131.55862 170.452715 
L 136.971661 176.665647 
L 118.374404 192.867779 
L 112.961362 186.654847 
" clip-path="url(#p8d2a4dffe9)" style="fill: #f29888"/>
    <path d="M 162.630917 162.694946 
L 166.74463 167.501106 
L 149.652511 182.124817 
L 145.541278 177.322389 
L 162.630917 162.694946 
" clip-path="url(#p8d2a4dffe9)" style="fill: #f29888"/>
    <path d="M 103.724725 176.012636 
L 122.321982 159.810503 
L 127.735024 166.023435 
L 109.137766 182.221836 
L 103.724725 176.012636 
" clip-path="url(#p8d2a4dffe9)" style="fill: #f29888"/>
    <path d="M 136.143464 166.482409 
L 154.738241 150.280276 
L 160.151283 156.493208 
L 141.556505 172.691609 
L 136.143464 166.482409 
" clip-path="url(#p8d2a4dffe9)" style="fill: #f29888"/>
    <path d="M 126.391062 156.015577 
L 144.988319 139.813445 
L 150.398881 146.026377 
L 131.804103 162.224778 
L 126.391062 156.015577 
" clip-path="url(#p8d2a4dffe9)" style="fill: #f29888"/>
    <path d="M 168.820084 157.079052 
L 187.417342 140.87692 
L 192.830383 147.089852 
L 174.233126 163.288253 
L 168.820084 157.079052 
" clip-path="url(#p8d2a4dffe9)" style="fill: #f29888"/>
    <path d="M 159.769419 145.85846 
L 178.364197 129.660059 
L 183.777239 135.872991 
L 165.182461 152.071392 
L 159.769419 145.85846 
" clip-path="url(#p8d2a4dffe9)" style="fill: #f29888"/>
    <path d="M 150.582374 135.26849 
L 169.177152 119.070089 
L 174.590193 125.279289 
L 155.995416 141.481422 
L 150.582374 135.26849 
" clip-path="url(#p8d2a4dffe9)" style="fill: #f29888"/>
   </g>
   <g id="LineCollection_1">
    <path d="M 69.630531 433.165799 
L 121.240861 517.593287 
L 152.10239 565.815341 
L 168.463017 591.626061 
L 175.113396 601.070464 
L 178.240215 604.395222 
L 179.824701 606.880395 
L 180.236321 610.115597 
L 179.370928 627.011787 
L 177.042552 651.091096 
L 174.917373 672.787922 
" clip-path="url(#p8d2a4dffe9)" style="fill: none; stroke: #f29888; stroke-width: 0.2"/>
    <path d="M 179.824701 606.880395 
L 164.530317 613.242586 
L 159.48922 614.179191 
L 149.769866 615.986145 
" clip-path="url(#p8d2a4dffe9)" style="fill: none; stroke: #f29888; stroke-width: 0.2"/>
    <path d="M 62.441767 375.920294 
L 70.182711 374.423455 
L 86.144117 371.628569 
L 108.624482 366.307463 
L 125.783551 361.91923 
L 142.012758 358.859408 
L 147.066253 360.322152 
L 160.10169 366.706732 
L 165.556886 365.378322 
L 173.139607 366.176861 
L 180.454529 364.445449 
L 184.31284 365.378322 
L 186.306465 368.30381 
L 189.366334 375.083929 
" clip-path="url(#p8d2a4dffe9)" style="fill: none; stroke: #f29888; stroke-width: 0.2"/>
    <path d="M 113.405217 329.182863 
L 165.316361 359.467641 
L 179.534584 355.430168 
" clip-path="url(#p8d2a4dffe9)" style="fill: none; stroke: #f29888; stroke-width: 0.2"/>
    <path d="M 201.005738 346.918638 
L 131.776827 307.555143 
L 132.805876 306.010306 
L 133.79277 304.532636 
L 201.638044 343.54537 
L 202.436487 346.44847 
" clip-path="url(#p8d2a4dffe9)" style="fill: none; stroke: #f29888; stroke-width: 0.2"/>
    <path d="M 113.405217 329.182863 
L 127.673033 303.200494 
L 142.650024 275.919566 
L 143.445987 274.35234 
" clip-path="url(#p8d2a4dffe9)" style="fill: none; stroke: #f29888; stroke-width: 0.2"/>
    <path d="M 132.805876 306.010306 
L 127.673033 303.200494 
L 59.68146 263.542211 
L 58.099453 257.870346 
L 69.215654 238.067325 
L 73.24506 235.12691 
" clip-path="url(#p8d2a4dffe9)" style="fill: none; stroke: #f29888; stroke-width: 0.2"/>
    <path d="M 122.857583 250.608865 
L 145.032952 230.656584 
" clip-path="url(#p8d2a4dffe9)" style="fill: none; stroke: #f29888; stroke-width: 0.2"/>
    <path d="M 408.127112 703.910346 
L 409.721516 721.47074 
L 413.979048 744.352241 
L 427.812928 772.028707 
L 433.909406 785.239723 
" clip-path="url(#p8d2a4dffe9)" style="fill: none; stroke: #f29888; stroke-width: 0.2"/>
    <path d="M 408.127112 703.910346 
L 417.326555 708.791135 
L 427.701345 712.78383 
L 434.617045 712.250227 
L 470.799869 688.30152 
L 544.757441 644.135597 
L 586.524402 617.261402 
L 588.386607 615.996426 
" clip-path="url(#p8d2a4dffe9)" style="fill: none; stroke: #f29888; stroke-width: 0.2"/>
    <path d="M 298.519836 592.155933 
L 310.22619 662.931115 
L 313.774715 711.849426 
" clip-path="url(#p8d2a4dffe9)" style="fill: none; stroke: #f29888; stroke-width: 0.2"/>
    <path d="M 363.565603 567.143751 
L 377.265583 606.525903 
L 390.990359 642.519862 
L 399.877368 673.360632 
L 407.303873 700.857986 
L 408.127112 703.910346 
" clip-path="url(#p8d2a4dffe9)" style="fill: none; stroke: #f29888; stroke-width: 0.2"/>
    <path d="M 399.877368 673.360632 
L 406.530227 671.446377 
L 427.812928 657.61001 
L 440.778936 648.27382 
L 467.717683 628.873801 
L 474.635863 626.746851 
L 519.328792 599.60772 
L 528.374498 594.816486 
L 536.35644 584.707878 
L 550.720962 576.726219 
L 564.0242 573.532063 
" clip-path="url(#p8d2a4dffe9)" style="fill: none; stroke: #f29888; stroke-width: 0.2"/>
    <path d="M 668.187449 616.413342 
L 663.276522 617.261402 
L 653.566274 616.597196 
L 638.400831 612.869437 
L 626.563057 609.410346 
L 606.078798 612.205232 
L 588.386607 615.996426 
" clip-path="url(#p8d2a4dffe9)" style="fill: none; stroke: #f29888; stroke-width: 0.2"/>
    <path d="M 440.778936 648.27382 
L 424.00173 617.817394 
L 420.029356 611.093248 
L 416.361977 601.007029 
L 402.91492 581.140573 
L 394.970172 568.610227 
" clip-path="url(#p8d2a4dffe9)" style="fill: none; stroke: #f29888; stroke-width: 0.2"/>
    <path d="M 377.900369 295.088233 
L 379.001327 299.577216 
L 379.303842 324.876723 
" clip-path="url(#p8d2a4dffe9)" style="fill: none; stroke: #f29888; stroke-width: 0.2"/>
    <path d="M 305.0016 275.042665 
L 357.036726 242.705568 
" clip-path="url(#p8d2a4dffe9)" style="fill: none; stroke: #f29888; stroke-width: 0.2"/>
    <path d="M 193.176302 714.030166 
L 243.059112 719.328515 
" clip-path="url(#p8d2a4dffe9)" style="fill: none; stroke: #f29888; stroke-width: 0.2"/>
    <path d="M 331.883906 728.553735 
L 351.943557 730.437512 
L 357.733504 719.433346 
L 371.034262 714.91078 
L 393.913848 710.123277 
L 407.303873 700.857986 
" clip-path="url(#p8d2a4dffe9)" style="fill: none; stroke: #f29888; stroke-width: 0.2"/>
    <path d="M 175.024493 673.02988 
L 310.22619 662.931115 
" clip-path="url(#p8d2a4dffe9)" style="fill: none; stroke: #f29888; stroke-width: 0.2"/>
    <path d="M 179.824701 606.880395 
L 244.24808 598.540513 
L 298.519836 592.155933 
L 316.611248 590.028983 
L 334.169539 584.707878 
L 346.937176 578.319566 
L 363.565603 567.143751 
L 392.731062 551.381935 
L 416.240475 539.344146 
" clip-path="url(#p8d2a4dffe9)" style="fill: none; stroke: #f29888; stroke-width: 0.2"/>
    <path d="M 191.352521 351.743455 
L 198.54842 349.463514 
L 201.005738 346.918638 
L 202.436487 346.44847 
L 208.352894 344.500632 
L 241.024556 333.753939 
L 260.330988 326.731273 
" clip-path="url(#p8d2a4dffe9)" style="fill: none; stroke: #f29888; stroke-width: 0.2"/>
    <path d="M 208.352894 344.500632 
L 221.251952 321.36539 
" clip-path="url(#p8d2a4dffe9)" style="fill: none; stroke: #f29888; stroke-width: 0.2"/>
    <path d="M 488.340802 227.962448 
L 377.900369 295.088233 
L 365.075701 302.887048 
L 332.438754 320.94 
L 325.287489 324.055795 
L 299.10751 335.989102 
L 267.64591 348.668707 
L 244.555555 356.579467 
L 189.366334 375.083929 
L 67.433695 415.671972 
" clip-path="url(#p8d2a4dffe9)" style="fill: none; stroke: #f29888; stroke-width: 0.2"/>
    <path d="M 254.719576 314.995735 
L 253.435125 315.372616 
L 230.28526 322.175123 
L 228.185009 322.421402 
L 226.660034 322.596782 
L 221.251952 321.36539 
L 146.957149 278.401007 
" clip-path="url(#p8d2a4dffe9)" style="fill: none; stroke: #f29888; stroke-width: 0.2"/>
    <path d="M 147.314216 228.902784 
L 207.688352 298.718973 
L 228.185009 322.421402 
" clip-path="url(#p8d2a4dffe9)" style="fill: none; stroke: #f29888; stroke-width: 0.2"/>
    <path d="M 207.688352 298.718973 
L 230.354689 278.572655 
L 251.835761 259.579368 
L 255.146073 256.650148 
L 274.435148 239.593504 
" clip-path="url(#p8d2a4dffe9)" style="fill: none; stroke: #f29888; stroke-width: 0.2"/>
    <path d="M 292.060389 265.654235 
L 284.52478 268.826002 
" clip-path="url(#p8d2a4dffe9)" style="fill: none; stroke: #f29888; stroke-width: 0.2"/>
    <path d="M 332.438754 320.94 
L 321.920145 297.640573 
L 305.0016 275.042665 
L 303.694833 273.296328 
L 293.054722 267.180415 
L 292.060389 265.654235 
L 290.15603 262.721283 
L 285.784435 252.941046 
L 283.339515 246.724383 
L 277.889279 226.454926 
L 263.976051 172.284877 
" clip-path="url(#p8d2a4dffe9)" style="fill: none; stroke: #f29888; stroke-width: 0.2"/>
    <path d="M 122.488117 156.370069 
L 230.354689 278.572655 
L 243.695122 292.349319 
L 246.328493 296.211412 
L 250.452125 305.954334 
L 253.435125 315.372616 
" clip-path="url(#p8d2a4dffe9)" style="fill: none; stroke: #f29888; stroke-width: 0.2"/>
    <path d="M 273.728453 283.210898 
L 282.417091 277.770385 
L 283.029561 275.576269 
L 282.590666 273.296328 
L 274.435148 239.593504 
L 273.289557 234.858243 
L 268.112081 228.540829 
L 212.910462 165.00847 
L 169.139957 115.849812 
" clip-path="url(#p8d2a4dffe9)" style="fill: none; stroke: #f29888; stroke-width: 0.2"/>
    <path d="M 144.279144 137.399171 
L 251.835761 259.579368 
" clip-path="url(#p8d2a4dffe9)" style="fill: none; stroke: #f29888; stroke-width: 0.2"/>
    <path d="M 255.146073 256.650148 
L 147.956441 134.201283 
" clip-path="url(#p8d2a4dffe9)" style="fill: none; stroke: #f29888; stroke-width: 0.2"/>
    <path d="M 253.073099 130.895183 
L 267.432661 125.999467 
" clip-path="url(#p8d2a4dffe9)" style="fill: none; stroke: #f29888; stroke-width: 0.2"/>
    <path d="M 261.181503 62.959664 
L 262.644487 70.139052 
L 262.513067 74.661619 
L 254.531124 79.583455 
L 239.633481 89.692063 
L 235.90907 91.688411 
L 216.887795 97.270721 
L 202.508396 101.222369 
L 188.419114 106.147937 
L 181.384391 108.513702 
L 171.874994 113.663159 
" clip-path="url(#p8d2a4dffe9)" style="fill: none; stroke: #f29888; stroke-width: 0.2"/>
    <path d="M 77.10585 196.905252 
L 71.313425 215.335084 
L 70.787742 224.81307 
L 72.191215 232.97384 
L 73.24506 235.12691 
L 74.036063 236.746377 
L 105.276976 254.385133 
L 142.650024 275.919566 
L 146.957149 278.401007 
" clip-path="url(#p8d2a4dffe9)" style="fill: none; stroke: #f29888; stroke-width: 0.2"/>
    <path d="M 146.957149 278.401007 
L 143.445987 274.35234 
L 122.857583 250.608865 
L 77.547225 198.364265 
L 77.10585 196.905252 
" clip-path="url(#p8d2a4dffe9)" style="fill: none; stroke: #f29888; stroke-width: 0.2"/>
    <path d="M 97.533078 178.098539 
L 142.575635 229.3431 
L 145.032952 230.656584 
L 146.523213 229.955064 
L 147.314216 228.902784 
L 147.314216 227.499743 
L 100.729326 175.318578 
" clip-path="url(#p8d2a4dffe9)" style="fill: none; stroke: #f29888; stroke-width: 0.2"/>
    <path d="M 77.10585 196.905252 
L 80.031819 193.334215 
L 97.533078 178.098539 
L 100.729326 175.318578 
L 122.488117 156.370069 
L 144.279144 137.399171 
L 147.956441 134.201283 
L 167.808394 116.917019 
L 169.139957 115.849812 
L 171.874994 113.663159 
" clip-path="url(#p8d2a4dffe9)" style="fill: none; stroke: #f29888; stroke-width: 0.2"/>
    <path d="M 188.419114 106.147937 
L 182.467992 101.845528 
L 176.749955 99.983514 
L 170.364897 102.3754 
L 167.171128 105.300888 
L 164.245159 110.222725 
L 155.863995 116.741639 
L 145.888426 125.118835 
L 135.513636 131.902685 
L 125.803388 139.485074 
L 114.630156 151.851234 
L 106.514313 161.82924 
L 98.666271 167.280948 
L 94.277318 165.952537 
L 90.686807 161.694906 
L 87.68594 157.644792 
" clip-path="url(#p8d2a4dffe9)" style="fill: none; stroke: #f29888; stroke-width: 0.2"/>
    <path d="M 170.364897 102.3754 
L 164.71133 100.282034 
L 159.923156 99.084225 
L 157.422649 97.305277 
" clip-path="url(#p8d2a4dffe9)" style="fill: none; stroke: #f29888; stroke-width: 0.2"/>
    <path d="M 239.633481 89.692063 
L 232.715301 75.993761 
L 228.99089 69.743514 
L 223.937396 57.638559 
L 221.159956 51.070545 
" clip-path="url(#p8d2a4dffe9)" style="fill: none; stroke: #f29888; stroke-width: 0.2"/>
    <path d="M 329.133363 48.294431 
L 345.516345 97.539388 
L 355.226593 122.674709 
L 357.61944 132.384047 
L 325.297407 144.888272 
L 297.096526 153.530405 
L 283.396547 160.314255 
L 270.227209 166.963771 
L 263.976051 172.284877 
L 263.177609 169.624324 
L 255.460987 139.7015 
L 253.073099 130.895183 
L 244.022434 97.539388 
L 239.633481 89.692063 
" clip-path="url(#p8d2a4dffe9)" style="fill: none; stroke: #f29888; stroke-width: 0.2"/>
    <path d="M 297.096526 153.530405 
L 282.598104 118.950681 
L 275.548504 98.867799 
L 272.622536 89.692063 
L 275.548504 84.635893 
L 267.700462 62.959664 
L 267.965782 56.84002 
L 287.992804 49.3522 
" clip-path="url(#p8d2a4dffe9)" style="fill: none; stroke: #f29888; stroke-width: 0.2"/>
    <path d="M 364.734441 47.379088 
L 365.467483 49.391964 
L 369.725015 51.253978 
L 375.177731 53.384659 
L 382.760453 74.262349 
L 397.258874 113.763909 
" clip-path="url(#p8d2a4dffe9)" style="fill: none; stroke: #f29888; stroke-width: 0.2"/>
    <path d="M 512.551951 167.825745 
L 506.201608 151.205686 
L 496.75668 140.033603 
L 488.643317 132.051945 
L 467.092815 117.290168 
L 456.053483 111.304857 
L 455.388941 108.778638 
L 455.121141 104.655341 
L 458.714131 101.461185 
L 464.035426 99.199901 
L 467.226716 97.337887 
L 469.354242 94.013129 
L 470.021263 89.490563 
L 461.774 61.963356 
L 457.650368 50.123337 
L 455.628843 45.042094 
" clip-path="url(#p8d2a4dffe9)" style="fill: none; stroke: #f29888; stroke-width: 0.2"/>
    <path d="M 530.630113 84.478588 
L 526.115551 107.972636 
L 517.027691 149.194413 
L 512.551951 167.825745 
L 508.703559 180.408332 
L 504.297248 193.554373 
L 499.81159 204.33465 
L 494.091074 216.838875 
L 488.340802 227.962448 
L 482.967434 240.239052 
L 459.708464 290.07311 
L 449.375828 313.174768 
L 426.429292 365.960434 
L 422.660248 376.322784 
L 420.664143 385.367917 
L 420.210369 396.222823 
L 420.664143 418.223692 
L 421.730385 444.030681 
L 422.794148 472.494492 
L 424.227377 518.682883 
L 423.32479 527.701895 
L 420.532722 533.556604 
L 416.240475 539.344146 
" clip-path="url(#p8d2a4dffe9)" style="fill: none; stroke: #f29888; stroke-width: 0.2"/>
    <path d="M 482.967434 240.239052 
L 488.526774 239.313643 
L 511.698957 232.87309 
L 571.984981 213.10627 
" clip-path="url(#p8d2a4dffe9)" style="fill: none; stroke: #f29888; stroke-width: 0.2"/>
   </g>
  </g>
 </g>
 <defs>
  <clipPath id="p8d2a4dffe9">
   <rect x="7.2" y="7.2" width="725.813757" height="831.6"/>
  </clipPath>
 </defs>
</svg>
