<?xml version="1.0" encoding="utf-8" standalone="no"?>
<!DOCTYPE svg PUBLIC "-//W3C//DTD SVG 1.1//EN"
  "http://www.w3.org/Graphics/SVG/1.1/DTD/svg11.dtd">
<svg xmlns:xlink="http://www.w3.org/1999/xlink" width="851.4pt" height="404.78012pt" viewBox="0 0 851.4 404.78012" xmlns="http://www.w3.org/2000/svg" version="1.1">
 <metadata>
  <rdf:RDF xmlns:dc="http://purl.org/dc/elements/1.1/" xmlns:cc="http://creativecommons.org/ns#" xmlns:rdf="http://www.w3.org/1999/02/22-rdf-syntax-ns#">
   <cc:Work>
    <dc:type rdf:resource="http://purl.org/dc/dcmitype/StillImage"/>
    <dc:date>2025-03-16T14:38:37.169162</dc:date>
    <dc:format>image/svg+xml</dc:format>
    <dc:creator>
     <cc:Agent>
      <dc:title>Matplotlib v3.10.1, https://matplotlib.org/</dc:title>
     </cc:Agent>
    </dc:creator>
   </cc:Work>
  </rdf:RDF>
 </metadata>
 <defs>
  <style type="text/css">*{stroke-linejoin: round; stroke-linecap: butt}</style>
 </defs>
 <g id="figure_1">
  <g id="patch_1">
   <path d="M 0 404.78012 
L 851.4 404.78012 
L 851.4 -0 
L 0 -0 
z
" style="fill: #ffffff"/>
  </g>
  <g id="axes_1">
   <g id="PatchCollection_1">
    <path d="M 554.385578 334.924054 
L 806.154545 258.479975 
L 806.154545 92.977307 
L 554.385578 24.944551 
L 364.899772 37.808927 
L 359.132812 135.281312 
L 230.607061 146.035436 
L 219.05337 185.835835 
L 81.989224 224.587293 
L 45.245455 279.755674 
L 81.084635 322.700424 
L 126.28771 355.751974 
L 220.111195 379.835569 
L 270.497943 378.356166 
L 554.385578 334.924054 
" clip-path="url(#p36c7f1f20d)" style="fill: #d1d4f2"/>
   </g>
   <g id="PatchCollection_2">
    <path d="M 418.581924 313.242633 
L 419.05152 315.921887 
L 412.220144 317.119264 
L 411.750549 314.44001 
L 418.581924 313.242633 
" clip-path="url(#p36c7f1f20d)" style="fill: #4d59c1"/>
    <path d="M 400.69776 277.081368 
L 401.098152 279.416747 
L 397.575363 280.022857 
L 397.174971 277.685004 
L 400.69776 277.081368 
" clip-path="url(#p36c7f1f20d)" style="fill: #4d59c1"/>
    <path d="M 408.768207 275.641547 
L 409.237803 278.434601 
L 404.602815 279.213886 
L 404.13322 276.420832 
L 408.768207 275.641547 
" clip-path="url(#p36c7f1f20d)" style="fill: #4d59c1"/>
    <path d="M 411.41277 247.01089 
L 412.524969 252.062631 
L 398.652961 255.115446 
L 397.540761 250.063705 
L 411.41277 247.01089 
" clip-path="url(#p36c7f1f20d)" style="fill: #4d59c1"/>
    <path d="M 437.929249 241.434678 
L 438.797588 246.68928 
L 425.368812 248.908385 
L 424.500472 243.653782 
L 437.929249 241.434678 
" clip-path="url(#p36c7f1f20d)" style="fill: #4d59c1"/>
    <path d="M 421.234726 238.312592 
L 421.847671 241.6697 
L 404.845027 244.776941 
L 404.232082 241.419834 
L 421.234726 238.312592 
" clip-path="url(#p36c7f1f20d)" style="fill: #4d59c1"/>
    <path d="M 456.484029 237.61 
L 457.36555 242.523202 
L 445.849756 244.583976 
L 444.969883 239.670774 
L 456.484029 237.61 
" clip-path="url(#p36c7f1f20d)" style="fill: #4d59c1"/>
    <path d="M 412.628775 222.26181 
L 413.599272 231.966992 
L 410.567499 232.26881 
L 409.597002 222.563628 
L 412.628775 222.26181 
" clip-path="url(#p36c7f1f20d)" style="fill: #4d59c1"/>
    <path d="M 587.105658 195.120451 
L 587.436846 198.183162 
L 585.853404 198.353862 
L 585.523863 195.291151 
L 587.105658 195.120451 
" clip-path="url(#p36c7f1f20d)" style="fill: #4d59c1"/>
    <path d="M 367.658026 288.884433 
L 368.168814 291.905087 
L 364.103931 292.592836 
L 363.591496 289.574656 
L 367.658026 288.884433 
" clip-path="url(#p36c7f1f20d)" style="fill: #4d59c1"/>
    <path d="M 366.287137 281.032216 
L 366.829231 283.916805 
L 361.503856 284.918742 
L 360.961762 282.034153 
L 366.287137 281.032216 
" clip-path="url(#p36c7f1f20d)" style="fill: #4d59c1"/>
    <path d="M 375.267117 281.160859 
L 375.735064 283.956387 
L 371.053941 284.738145 
L 370.587641 281.945092 
L 375.267117 281.160859 
" clip-path="url(#p36c7f1f20d)" style="fill: #4d59c1"/>
    <path d="M 384.41681 279.486017 
L 384.858394 282.128162 
L 381.495433 282.692215 
L 381.053849 280.047596 
L 384.41681 279.486017 
" clip-path="url(#p36c7f1f20d)" style="fill: #4d59c1"/>
    <path d="M 395.331192 277.774065 
L 395.818912 280.490428 
L 392.258227 281.128699 
L 391.770507 278.41481 
L 395.331192 277.774065 
" clip-path="url(#p36c7f1f20d)" style="fill: #4d59c1"/>
    <path d="M 393.233667 251.189338 
L 394.405183 256.085222 
L 370.811729 261.730704 
L 369.640212 256.832346 
L 393.233667 251.189338 
" clip-path="url(#p36c7f1f20d)" style="fill: #4d59c1"/>
    <path d="M 337.977958 251.394673 
L 338.060343 252.047788 
L 339.325779 251.889457 
L 339.579525 253.9057 
L 338.253124 254.071453 
L 338.361873 254.932376 
L 334.96431 255.360364 
L 334.51943 251.832557 
L 337.977958 251.394673 
" clip-path="url(#p36c7f1f20d)" style="fill: #4d59c1"/>
    <path d="M 349.84636 249.450173 
L 350.02596 252.324866 
L 344.838992 252.646476 
L 344.66104 249.771783 
L 349.84636 249.450173 
" clip-path="url(#p36c7f1f20d)" style="fill: #4d59c1"/>
    <path d="M 371.994779 225.621391 
L 372.332558 228.065622 
L 370.179011 228.362493 
L 369.841232 225.918261 
L 371.994779 225.621391 
" clip-path="url(#p36c7f1f20d)" style="fill: #4d59c1"/>
    <path d="M 371.385129 218.951707 
L 371.892622 221.764552 
L 369.683052 222.162853 
L 369.17556 219.352482 
L 371.385129 218.951707 
" clip-path="url(#p36c7f1f20d)" style="fill: #4d59c1"/>
   </g>
   <g id="LineCollection_1">
    <path d="M 298.14145 358.537606 
L 238.689043 368.895902 
L 228.598512 370.781028 
L 223.648813 371.530625 
L 218.669455 371.594947 
L 215.118656 370.956676 
L 211.582686 369.939896 
L 204.487679 367.965709 
L 186.479936 362.602254 
L 168.462308 358.146727 
L 136.093189 349.747774 
L 130.430035 348.149622 
L 86.199104 318.244896 
L 80.641403 316.728385 
L 76.846722 317.622291 
" clip-path="url(#p36c7f1f20d)" style="fill: none; stroke: #4d59c1; stroke-width: 0.2"/>
    <path d="M 195.591732 306.362666 
L 195.860307 311.740965 
L 204.487679 367.965709 
" clip-path="url(#p36c7f1f20d)" style="fill: none; stroke: #4d59c1; stroke-width: 0.2"/>
    <path d="M 238.689043 368.895902 
L 233.966727 338.107987 
L 229.069755 305.019329 
" clip-path="url(#p36c7f1f20d)" style="fill: none; stroke: #4d59c1; stroke-width: 0.2"/>
    <path d="M 233.966727 338.107987 
L 274.755607 331.465517 
" clip-path="url(#p36c7f1f20d)" style="fill: none; stroke: #4d59c1; stroke-width: 0.2"/>
    <path d="M 161.195939 304.064396 
L 168.462308 358.146727 
" clip-path="url(#p36c7f1f20d)" style="fill: none; stroke: #4d59c1; stroke-width: 0.2"/>
    <path d="M 125.969704 304.601236 
L 130.430035 348.149622 
" clip-path="url(#p36c7f1f20d)" style="fill: none; stroke: #4d59c1; stroke-width: 0.2"/>
    <path d="M 86.199104 318.244896 
L 78.746545 312.784959 
L 70.114231 308.237897 
L 68.727136 307.892895 
" clip-path="url(#p36c7f1f20d)" style="fill: none; stroke: #4d59c1; stroke-width: 0.2"/>
    <path d="M 295.691317 273.115677 
L 287.464337 275.483217 
L 253.388198 285.039964 
L 235.357388 288.211527 
L 220.167217 289.047711 
L 188.781777 290.049648 
L 70.084572 280.940681 
L 67.665745 278.521189 
L 67.242285 254.294105 
" clip-path="url(#p36c7f1f20d)" style="fill: none; stroke: #4d59c1; stroke-width: 0.2"/>
    <path d="M 188.781777 290.049648 
L 181.072176 235.296886 
" clip-path="url(#p36c7f1f20d)" style="fill: none; stroke: #4d59c1; stroke-width: 0.2"/>
    <path d="M 256.368892 235.195455 
L 280.443476 230.893311 
L 308.156187 226.467471 
" clip-path="url(#p36c7f1f20d)" style="fill: none; stroke: #4d59c1; stroke-width: 0.2"/>
    <path d="M 389.328611 343.48876 
L 390.416095 347.909652 
L 394.657081 359.360997 
" clip-path="url(#p36c7f1f20d)" style="fill: none; stroke: #4d59c1; stroke-width: 0.2"/>
    <path d="M 383.709945 315.226716 
L 423.742529 308.586719 
" clip-path="url(#p36c7f1f20d)" style="fill: none; stroke: #4d59c1; stroke-width: 0.2"/>
    <path d="M 482.382619 327.769482 
L 472.539244 276.890876 
" clip-path="url(#p36c7f1f20d)" style="fill: none; stroke: #4d59c1; stroke-width: 0.2"/>
    <path d="M 806.154545 249.722332 
L 772.038862 259.887635 
L 732.110083 271.116751 
L 693.351173 283.419547 
L 653.318589 295.489795 
L 614.551441 306.330505 
L 482.382619 327.769482 
L 411.33368 339.973322 
L 389.328611 343.48876 
L 345.102624 350.776924 
L 298.14145 358.537606 
" clip-path="url(#p36c7f1f20d)" style="fill: none; stroke: #4d59c1; stroke-width: 0.5"/>
    <path d="M 504.568936 238.589671 
L 521.467774 238.099836 
L 546.675977 234.928272 
" clip-path="url(#p36c7f1f20d)" style="fill: none; stroke: #4d59c1; stroke-width: 0.2"/>
    <path d="M 501.985338 216.151231 
L 589.008754 202.698063 
L 678.640484 187.37956 
" clip-path="url(#p36c7f1f20d)" style="fill: none; stroke: #4d59c1; stroke-width: 0.2"/>
    <path d="M 366.064697 219.199099 
L 389.554347 214.832633 
L 442.77679 202.950403 
L 448.298242 198.873385 
L 498.955213 190.946951 
L 557.049913 180.596076 
" clip-path="url(#p36c7f1f20d)" style="fill: none; stroke: #4d59c1; stroke-width: 0.2"/>
    <path d="M 342.855158 262.126531 
L 343.767985 265.760717 
L 345.656252 269.654665 
L 348.725922 271.190968 
L 384.729873 264.934429 
L 397.478149 259.857948 
L 428.445073 254.781467 
L 457.993325 247.436404 
L 464.170562 241.259029 
L 504.568936 238.589671 
L 501.954032 220.32968 
L 501.985338 216.151231 
L 498.955213 190.946951 
L 495.317085 167.19486 
L 493.397512 158.429767 
L 489.84836 151.680917 
L 475.333747 112.773603 
" clip-path="url(#p36c7f1f20d)" style="fill: none; stroke: #4d59c1; stroke-width: 0.2"/>
    <path d="M 382.518656 168.157214 
L 384.474479 182.191753 
L 389.554347 214.832633 
" clip-path="url(#p36c7f1f20d)" style="fill: none; stroke: #4d59c1; stroke-width: 0.2"/>
    <path d="M 493.397512 158.429767 
L 508.564615 158.066101 
L 516.119331 157.002316 
L 579.335092 148.754272 
L 583.48895 170.873576 
L 589.008754 202.698063 
" clip-path="url(#p36c7f1f20d)" style="fill: none; stroke: #4d59c1; stroke-width: 0.2"/>
    <path d="M 290.107252 299.220464 
L 298.14145 358.537606 
" clip-path="url(#p36c7f1f20d)" style="fill: none; stroke: #4d59c1; stroke-width: 0.5"/>
    <path d="M 345.102624 350.776924 
L 336.569172 301.964039 
" clip-path="url(#p36c7f1f20d)" style="fill: none; stroke: #4d59c1; stroke-width: 0.2"/>
    <path d="M 379.902104 294.386427 
L 383.709945 315.226716 
L 389.328611 343.48876 
" clip-path="url(#p36c7f1f20d)" style="fill: none; stroke: #4d59c1; stroke-width: 0.2"/>
    <path d="M 295.691317 273.115677 
L 294.061739 273.912278 
L 291.338086 275.785035 
L 289.210902 279.55776 
L 288.46614 284.003392 
L 288.772613 287.731587 
L 288.896191 288.745893 
L 289.163119 290.913046 
L 290.107252 299.220464 
" clip-path="url(#p36c7f1f20d)" style="fill: none; stroke: #4d59c1; stroke-width: 0.5"/>
    <path d="M 86.199104 318.244896 
L 117.231936 303.39149 
L 125.969704 304.601236 
L 142.23912 302.584993 
L 161.195939 304.064396 
L 192.522062 304.331579 
L 195.591732 306.362666 
L 229.069755 305.019329 
L 290.107252 299.220464 
L 306.699618 299.141298 
L 320.388732 303.515186 
L 325.522973 303.893696 
L 336.569172 301.964039 
L 379.902104 294.386427 
L 443.229909 280.386523 
L 472.539244 276.890876 
L 495.1276 270.70608 
L 503.463327 265.864622 
L 507.228328 263.714787 
L 526.588834 261.025637 
L 575.258676 247.310234 
L 618.013264 239.7821 
L 638.046033 240.858255 
L 643.827822 243.411338 
L 645.979722 249.259681 
L 653.318589 295.489795 
" clip-path="url(#p36c7f1f20d)" style="fill: none; stroke: #4d59c1; stroke-width: 0.2"/>
    <path d="M 313.680934 268.130731 
L 309.850026 268.971863 
L 307.950224 269.558182 
L 303.883694 270.817407 
L 295.691317 273.115677 
" clip-path="url(#p36c7f1f20d)" style="fill: none; stroke: #4d59c1; stroke-width: 0.5"/>
    <path d="M 403.20062 237.053368 
L 402.867784 245.566121 
L 399.862375 248.571932 
L 370.487131 254.87795 
L 342.855158 262.126531 
L 313.680934 268.130731 
" clip-path="url(#p36c7f1f20d)" style="fill: none; stroke: #4d59c1; stroke-width: 0.2"/>
    <path d="M 308.156187 226.467471 
L 313.680934 268.130731 
" clip-path="url(#p36c7f1f20d)" style="fill: none; stroke: #4d59c1; stroke-width: 0.5"/>
    <path d="M 367.186783 228.251166 
L 334.700677 231.457365 
" clip-path="url(#p36c7f1f20d)" style="fill: none; stroke: #4d59c1; stroke-width: 0.2"/>
    <path d="M 384.474479 182.191753 
L 365.990551 184.193153 
L 362.212369 187.498308 
L 365.412207 213.937074 
L 366.064697 219.199099 
L 367.186783 228.251166 
L 370.487131 254.87795 
" clip-path="url(#p36c7f1f20d)" style="fill: none; stroke: #4d59c1; stroke-width: 0.2"/>
    <path d="M 318.688303 194.682567 
L 320.718272 217.964614 
L 357.738856 212.757015 
L 365.412207 213.937074 
" clip-path="url(#p36c7f1f20d)" style="fill: none; stroke: #4d59c1; stroke-width: 0.2"/>
    <path d="M 308.156187 226.467471 
L 306.922058 217.066581 
L 306.34701 211.896092 
L 306.259681 209.288582 
L 306.460701 206.658806 
L 307.513583 203.34623 
L 308.92896 201.703548 
L 311.683919 199.731835 
L 315.145742 198.284593 
L 317.355311 196.899198 
L 318.103368 195.909631 
L 318.688303 194.682567 
L 318.988185 192.782598 
L 318.976651 190.882629 
L 318.380182 186.860037 
L 318.05888 184.927907 
L 317.551388 182.340188 
L 316.788502 178.988029 
" clip-path="url(#p36c7f1f20d)" style="fill: none; stroke: #4d59c1; stroke-width: 0.5"/>
    <path d="M 316.788502 178.988029 
L 284.880739 185.026864 
L 269.057851 187.899083 
L 255.485724 190.204775 
" clip-path="url(#p36c7f1f20d)" style="fill: none; stroke: #4d59c1; stroke-width: 0.5"/>
    <path d="M 363.52394 170.883472 
L 316.788502 178.988029 
" clip-path="url(#p36c7f1f20d)" style="fill: none; stroke: #4d59c1; stroke-width: 0.2"/>
    <path d="M 368.607103 170.089344 
L 363.52394 170.883472 
" clip-path="url(#p36c7f1f20d)" style="fill: none; stroke: #4d59c1; stroke-width: 0.2"/>
    <path d="M 316.788502 178.988029 
L 311.839316 139.238497 
" clip-path="url(#p36c7f1f20d)" style="fill: none; stroke: #4d59c1; stroke-width: 0.2"/>
    <path d="M 583.48895 170.873576 
L 673.219542 155.191408 
L 675.386271 165.544756 
L 678.640484 187.37956 
" clip-path="url(#p36c7f1f20d)" style="fill: none; stroke: #4d59c1; stroke-width: 0.2"/>
    <path d="M 489.84836 151.680917 
L 382.518656 168.157214 
L 368.607103 170.089344 
" clip-path="url(#p36c7f1f20d)" style="fill: none; stroke: #4d59c1; stroke-width: 0.2"/>
    <path d="M 675.386271 165.544756 
L 782.729157 151.020381 
" clip-path="url(#p36c7f1f20d)" style="fill: none; stroke: #4d59c1; stroke-width: 0.2"/>
    <path d="M 359.533483 128.509226 
L 387.552388 123.819648 
L 413.885972 119.042512 
L 427.795878 118.196432 
L 450.822523 117.142542 
L 466.620696 116.177714 
L 475.333747 112.773603 
L 481.721891 99.496082 
L 487.103288 85.426908 
L 488.436279 82.881246 
L 492.104065 75.882531 
L 495.320381 72.965781 
L 509.390114 70.289002 
L 602.435883 56.274254 
L 603.178997 56.155506 
L 645.104414 49.458503 
" clip-path="url(#p36c7f1f20d)" style="fill: none; stroke: #4d59c1; stroke-width: 0.2"/>
    <path d="M 488.436279 82.881246 
L 484.214865 63.114638 
" clip-path="url(#p36c7f1f20d)" style="fill: none; stroke: #4d59c1; stroke-width: 0.2"/>
    <path d="M 603.178997 56.155506 
L 603.515129 45.440965 
L 602.71764 40.201206 
L 602.368525 37.910454 
" clip-path="url(#p36c7f1f20d)" style="fill: none; stroke: #4d59c1; stroke-width: 0.2"/>
    <path d="M 209.984415 235.868361 
L 208.465233 215.626761 
" clip-path="url(#p36c7f1f20d)" style="fill: none; stroke: #4d59c1; stroke-width: 0.2"/>
    <path d="M 60.564072 256.755766 
L 63.129619 256.265818 
L 67.242285 254.294105 
L 72.806577 250.009279 
L 85.493888 235.95 
L 87.660617 233.859539 
L 90.771479 232.884815 
L 105.160867 232.756172 
L 118.729698 233.461238 
L 141.843671 234.280105 
L 181.072176 235.296886 
L 209.984415 235.868361 
L 234.386891 235.804039 
L 256.368892 235.195455 
" clip-path="url(#p36c7f1f20d)" style="fill: none; stroke: #4d59c1; stroke-width: 0.5"/>
    <path d="M 255.485724 190.204775 
L 257.500864 210.923842 
L 259.003569 221.418204 
L 259.768103 232.095636 
L 258.782777 233.9486 
L 256.368892 235.195455 
" clip-path="url(#p36c7f1f20d)" style="fill: none; stroke: #4d59c1; stroke-width: 0.5"/>
    <path d="M 255.485724 190.204775 
L 216.83721 197.000629 
" clip-path="url(#p36c7f1f20d)" style="fill: none; stroke: #4d59c1; stroke-width: 0.2"/>
   </g>
  </g>
 </g>
 <defs>
  <clipPath id="p36c7f1f20d">
   <rect x="7.2" y="7.2" width="837" height="390.38012"/>
  </clipPath>
 </defs>
</svg>
