<?xml version="1.0" encoding="utf-8" standalone="no"?>
<!DOCTYPE svg PUBLIC "-//W3C//DTD SVG 1.1//EN"
  "http://www.w3.org/Graphics/SVG/1.1/DTD/svg11.dtd">
<svg xmlns:xlink="http://www.w3.org/1999/xlink" width="550.585587pt" height="846pt" viewBox="0 0 550.585587 846" xmlns="http://www.w3.org/2000/svg" version="1.1">
 <metadata>
  <rdf:RDF xmlns:dc="http://purl.org/dc/elements/1.1/" xmlns:cc="http://creativecommons.org/ns#" xmlns:rdf="http://www.w3.org/1999/02/22-rdf-syntax-ns#">
   <cc:Work>
    <dc:type rdf:resource="http://purl.org/dc/dcmitype/StillImage"/>
    <dc:date>2025-03-16T14:29:46.775893</dc:date>
    <dc:format>image/svg+xml</dc:format>
    <dc:creator>
     <cc:Agent>
      <dc:title>Matplotlib v3.10.1, https://matplotlib.org/</dc:title>
     </cc:Agent>
    </dc:creator>
   </cc:Work>
  </rdf:RDF>
 </metadata>
 <defs>
  <style type="text/css">*{stroke-linejoin: round; stroke-linecap: butt}</style>
 </defs>
 <g id="figure_1">
  <g id="patch_1">
   <path d="M 0 846 
L 550.585587 846 
L 550.585587 0 
L 0 0 
z
" style="fill: #ffffff"/>
  </g>
  <g id="axes_1">
   <g id="PatchCollection_1">
    <path d="M 278.789551 45 
L 130.380474 67.213318 
L 118.049614 97.544568 
L 90.762613 117.602971 
L 76.517636 176.984072 
L 51.036269 247.403251 
L 89.959841 286.523813 
L 84.142761 385.837631 
L 68.892512 445.626614 
L 34.380567 470.305272 
L 31.572072 515.652349 
L 56.853349 529.098012 
L 63.475612 540.334616 
L 56.050578 592.705925 
L 46.21964 675.578133 
L 44.011415 699.256939 
L 41.40301 753.840916 
L 45.616958 801 
L 122.451598 786.384835 
L 124.356071 793.474038 
L 294.570159 768.694313 
L 291.563985 756.739404 
L 382.47485 740.788697 
L 357.796254 548.311775 
L 519.013515 525.546192 
L 518.352976 514.230177 
L 478.6194 227.066911 
L 466.857471 139.859604 
L 459.261275 133.744986 
L 454.529021 106.972775 
L 454.066162 91.827003 
L 430.491679 86.152753 
L 393.270078 64.863486 
L 331.290328 56.485664 
L 278.789551 45 
" clip-path="url(#p72fc785860)" style="fill: #fbd6c9"/>
   </g>
   <g id="PatchCollection_2">
    <path d="M 311.838185 745.224863 
L 308.125668 745.907073 
L 304.147971 724.188266 
L 307.860488 723.506057 
L 311.838185 745.224863 
" clip-path="url(#p72fc785860)" style="fill: #e6482f"/>
    <path d="M 297.499191 747.957311 
L 293.511851 748.596205 
L 288.278166 715.814054 
L 292.267916 715.178769 
L 297.499191 747.957311 
" clip-path="url(#p72fc785860)" style="fill: #e6482f"/>
    <path d="M 290.811838 701.556237 
L 286.376104 702.047139 
L 286.012084 698.758817 
L 286.911285 698.661359 
L 285.96628 690.135545 
L 289.502814 689.745711 
L 290.811838 701.556237 
" clip-path="url(#p72fc785860)" style="fill: #e6482f"/>
    <path d="M 292.950152 656.728938 
L 292.475239 653.039954 
L 302.243498 651.783822 
L 302.728054 655.548607 
L 298.263391 656.12253 
L 298.851608 660.710298 
L 307.491647 659.59494 
L 308.058168 663.995011 
L 299.5242 665.092321 
L 300.136524 669.84613 
L 304.866367 669.239722 
L 305.353334 673.018945 
L 295.416324 674.300344 
L 294.931768 670.539168 
L 298.731071 670.048266 
L 298.118747 665.287238 
L 294.230247 665.785359 
L 293.663726 661.388898 
L 297.446155 660.901606 
L 296.843473 656.227207 
L 292.950152 656.728938 
" clip-path="url(#p72fc785860)" style="fill: #e6482f"/>
    <path d="M 310.917288 640.803498 
L 307.327718 641.319667 
L 304.357704 620.625979 
L 307.947274 620.10981 
L 310.917288 640.803498 
" clip-path="url(#p72fc785860)" style="fill: #e6482f"/>
    <path d="M 284.8694 608.039395 
L 280.28179 608.721604 
L 279.874377 605.974719 
L 280.587952 605.870041 
L 279.744198 600.195791 
L 279.006516 600.304078 
L 278.606336 597.604117 
L 283.218053 596.921907 
L 284.8694 608.039395 
" clip-path="url(#p72fc785860)" style="fill: #e6482f"/>
    <path d="M 321.642605 603.105107 
L 310.420679 604.653615 
L 309.813176 600.260763 
L 321.037513 598.712256 
L 321.642605 603.105107 
" clip-path="url(#p72fc785860)" style="fill: #e6482f"/>
    <path d="M 293.764977 595.026881 
L 295.517574 606.664147 
L 291.255412 607.306651 
L 289.502814 595.669385 
L 293.764977 595.026881 
" clip-path="url(#p72fc785860)" style="fill: #e6482f"/>
    <path d="M 278.138655 597.676308 
L 277.039364 590.265853 
L 282.116352 589.511452 
L 283.218053 596.921907 
L 278.606336 597.604117 
L 278.138655 597.676308 
" clip-path="url(#p72fc785860)" style="fill: #e6482f"/>
    <path d="M 293.087563 590.421064 
L 288.6229 590.998596 
L 287.745396 584.230645 
L 292.210059 583.653113 
L 293.087563 590.421064 
" clip-path="url(#p72fc785860)" style="fill: #e6482f"/>
    <path d="M 242.418937 674.986163 
L 242.910725 678.989181 
L 236.970697 679.718315 
L 236.478909 675.715297 
L 242.418937 674.986163 
" clip-path="url(#p72fc785860)" style="fill: #e6482f"/>
    <path d="M 227.64119 634.421771 
L 232.096211 633.786486 
L 232.643445 637.619854 
L 239.752674 636.605563 
L 239.20544 632.775805 
L 243.708675 632.133301 
L 244.807966 639.85057 
L 228.740481 642.13904 
L 227.64119 634.421771 
" clip-path="url(#p72fc785860)" style="fill: #e6482f"/>
    <path d="M 219.579724 612.91232 
L 220.155888 617.749149 
L 214.097735 618.471064 
L 213.519161 613.634235 
L 219.579724 612.91232 
" clip-path="url(#p72fc785860)" style="fill: #e6482f"/>
    <path d="M 229.458877 611.876372 
L 229.984415 616.601304 
L 223.78644 617.290733 
L 223.263313 612.565801 
L 229.458877 611.876372 
" clip-path="url(#p72fc785860)" style="fill: #e6482f"/>
    <path d="M 239.909372 603.67542 
L 241.389557 614.792908 
L 237.771058 615.276591 
L 236.290873 604.155493 
L 239.909372 603.67542 
" clip-path="url(#p72fc785860)" style="fill: #e6482f"/>
    <path d="M 227.253063 599.250082 
L 228.424676 608.234312 
L 224.871267 608.699947 
L 223.699654 599.712108 
L 227.253063 599.250082 
" clip-path="url(#p72fc785860)" style="fill: #e6482f"/>
    <path d="M 184.318044 584.483315 
L 187.690649 609.894716 
L 181.603567 610.703261 
L 178.230962 585.29186 
L 184.318044 584.483315 
" clip-path="url(#p72fc785860)" style="fill: #e6482f"/>
    <path d="M 208.49762 606.772435 
L 202.51661 607.674828 
L 198.659449 582.129873 
L 204.64287 581.22748 
L 208.49762 606.772435 
" clip-path="url(#p72fc785860)" style="fill: #e6482f"/>
    <path d="M 226.136897 588.76427 
L 227.067437 594.857231 
L 222.021789 595.62607 
L 221.09366 589.533109 
L 226.136897 588.76427 
" clip-path="url(#p72fc785860)" style="fill: #e6482f"/>
    <path d="M 236.765786 580.321476 
L 237.088823 582.826521 
L 236.278819 582.931198 
L 237.055073 588.959187 
L 237.725254 588.872557 
L 238.060345 591.457012 
L 233.453449 592.052592 
L 232.023889 580.935104 
L 236.765786 580.321476 
" clip-path="url(#p72fc785860)" style="fill: #e6482f"/>
    <path d="M 245.309396 656.180283 
L 245.948239 660.685031 
L 234.55274 662.30212 
L 233.913898 657.797372 
L 245.309396 656.180283 
" clip-path="url(#p72fc785860)" style="fill: #e6482f"/>
    <path d="M 250.839601 608.129634 
L 251.4688 613.139723 
L 245.444397 613.897734 
L 244.815198 608.887645 
L 250.839601 608.129634 
" clip-path="url(#p72fc785860)" style="fill: #e6482f"/>
    <path d="M 254.518368 607.700095 
L 257.346148 607.303042 
L 257.461863 608.136853 
L 263.131889 607.339138 
L 263.011353 606.47284 
L 265.771634 606.083006 
L 266.444226 610.869301 
L 255.188549 612.453904 
L 254.518368 607.700095 
" clip-path="url(#p72fc785860)" style="fill: #e6482f"/>
    <path d="M 273.871671 604.899066 
L 274.544263 610.039099 
L 269.529955 610.696041 
L 268.857362 605.556008 
L 273.871671 604.899066 
" clip-path="url(#p72fc785860)" style="fill: #e6482f"/>
    <path d="M 260.810361 587.017236 
L 261.499828 592.940547 
L 255.764713 593.604709 
L 255.075245 587.685007 
L 260.810361 587.017236 
" clip-path="url(#p72fc785860)" style="fill: #e6482f"/>
    <path d="M 280.927864 583.248841 
L 277.299723 583.660332 
L 276.52588 576.812971 
L 275.542304 576.921258 
L 275.243374 574.27544 
L 279.855091 573.755661 
L 280.927864 583.248841 
" clip-path="url(#p72fc785860)" style="fill: #e6482f"/>
    <path d="M 244.511446 564.233605 
L 245.232253 569.27979 
L 238.966778 570.174964 
L 238.245971 565.12878 
L 244.511446 564.233605 
" clip-path="url(#p72fc785860)" style="fill: #e6482f"/>
    <path d="M 279.040266 571.034043 
L 275.016766 571.550212 
L 273.915064 562.977474 
L 273.194257 563.071323 
L 272.849523 560.385799 
L 277.593831 559.775781 
L 279.040266 571.034043 
" clip-path="url(#p72fc785860)" style="fill: #e6482f"/>
    <path d="M 259.375979 562.504619 
L 259.862946 566.280234 
L 251.550765 567.355887 
L 251.664069 568.236623 
L 248.788073 568.608409 
L 248.185392 563.952059 
L 259.375979 562.504619 
" clip-path="url(#p72fc785860)" style="fill: #e6482f"/>
    <path d="M 269.455222 560.793681 
L 270.057903 565.681044 
L 263.929839 566.439055 
L 263.327158 561.548082 
L 269.455222 560.793681 
" clip-path="url(#p72fc785860)" style="fill: #e6482f"/>
    <path d="M 224.75073 575.831166 
L 225.816271 584.544678 
L 222.045896 585.006703 
L 220.977945 576.293192 
L 224.75073 575.831166 
" clip-path="url(#p72fc785860)" style="fill: #e6482f"/>
    <path d="M 185.316084 572.402071 
L 185.901891 576.892381 
L 173.585495 578.498642 
L 172.999688 574.008332 
L 185.316084 572.402071 
" clip-path="url(#p72fc785860)" style="fill: #e6482f"/>
    <path d="M 234.936045 565.691873 
L 235.31935 568.482074 
L 234.4539 568.60119 
L 235.25185 574.365679 
L 236.0498 574.257392 
L 236.452391 577.166709 
L 231.980496 577.783946 
L 230.396649 566.319939 
L 234.936045 565.691873 
" clip-path="url(#p72fc785860)" style="fill: #e6482f"/>
    <path d="M 213.210588 568.25828 
L 213.892823 573.282807 
L 207.557437 574.145495 
L 206.875202 569.120968 
L 213.210588 568.25828 
" clip-path="url(#p72fc785860)" style="fill: #e6482f"/>
    <path d="M 222.918579 567.225942 
L 223.514028 572.163839 
L 217.248553 572.92185 
L 216.653104 567.983953 
L 222.918579 567.225942 
" clip-path="url(#p72fc785860)" style="fill: #e6482f"/>
    <path d="M 185.200369 559.104401 
L 185.93323 564.442961 
L 172.057095 566.341597 
L 171.326645 561.003037 
L 185.200369 559.104401 
" clip-path="url(#p72fc785860)" style="fill: #e6482f"/>
    <path d="M 113.003965 555.455121 
L 114.54683 553.560095 
L 124.529643 561.696075 
L 122.986779 563.587492 
L 113.003965 555.455121 
" clip-path="url(#p72fc785860)" style="fill: #e6482f"/>
    <path d="M 199.546596 557.541455 
L 198.975254 553.404883 
L 202.210448 552.957296 
L 203.391703 561.530034 
L 190.68477 563.280678 
L 190.072445 558.848121 
L 199.546596 557.541455 
" clip-path="url(#p72fc785860)" style="fill: #e6482f"/>
    <path d="M 212.506656 555.000315 
L 213.196123 560.317218 
L 206.964398 561.122153 
L 206.277342 555.80525 
L 212.506656 555.000315 
" clip-path="url(#p72fc785860)" style="fill: #e6482f"/>
    <path d="M 140.218644 561.176296 
L 139.808821 552.470004 
L 142.513655 552.343669 
L 142.923478 561.049961 
L 140.218644 561.176296 
" clip-path="url(#p72fc785860)" style="fill: #e6482f"/>
    <path d="M 305.362977 586.428876 
L 297.814996 587.403461 
L 297.224368 582.826521 
L 304.772349 581.851936 
L 305.362977 586.428876 
" clip-path="url(#p72fc785860)" style="fill: #e6482f"/>
    <path d="M 315.74115 580.426154 
L 316.310081 584.739595 
L 309.468442 585.638379 
L 308.901922 581.328548 
L 315.74115 580.426154 
" clip-path="url(#p72fc785860)" style="fill: #e6482f"/>
    <path d="M 291.674878 579.9533 
L 287.217447 580.534441 
L 286.294139 573.423581 
L 290.749159 572.846049 
L 291.674878 579.9533 
" clip-path="url(#p72fc785860)" style="fill: #e6482f"/>
    <path d="M 290.271836 569.413344 
L 286.106102 570.008924 
L 284.452345 558.422191 
L 288.615668 557.826612 
L 290.271836 569.413344 
" clip-path="url(#p72fc785860)" style="fill: #e6482f"/>
    <path d="M 300.15581 556.072359 
L 300.789831 560.432724 
L 293.779441 561.454233 
L 293.14301 557.097478 
L 300.15581 556.072359 
" clip-path="url(#p72fc785860)" style="fill: #e6482f"/>
    <path d="M 314.125964 553.863299 
L 314.726234 557.830221 
L 308.805493 558.725395 
L 308.205222 554.758474 
L 314.125964 553.863299 
" clip-path="url(#p72fc785860)" style="fill: #e6482f"/>
    <path d="M 299.203573 542.568942 
L 299.820719 547.055643 
L 293.555244 547.918331 
L 292.938098 543.428021 
L 299.203573 542.568942 
" clip-path="url(#p72fc785860)" style="fill: #e6482f"/>
    <path d="M 309.904783 541.005997 
L 310.471304 545.369972 
L 303.728505 546.247098 
L 303.159574 541.883123 
L 309.904783 541.005997 
" clip-path="url(#p72fc785860)" style="fill: #e6482f"/>
    <path d="M 287.689949 548.694389 
L 283.232518 549.333284 
L 281.57876 537.793476 
L 286.033781 537.154581 
L 287.689949 548.694389 
" clip-path="url(#p72fc785860)" style="fill: #e6482f"/>
    <path d="M 320.191349 539.645187 
L 320.856709 543.853951 
L 314.089803 544.925994 
L 313.424443 540.717231 
L 320.191349 539.645187 
" clip-path="url(#p72fc785860)" style="fill: #e6482f"/>
    <path d="M 222.296612 558.826464 
L 218.022396 559.487016 
L 216.269798 548.192659 
L 220.541604 547.528497 
L 222.296612 558.826464 
" clip-path="url(#p72fc785860)" style="fill: #e6482f"/>
    <path d="M 231.826209 544.189641 
L 232.22639 546.936527 
L 231.26451 547.0773 
L 231.732191 550.289821 
L 232.151657 553.170261 
L 232.870053 553.065583 
L 233.272645 555.826908 
L 228.562087 556.512727 
L 226.874579 544.911556 
L 231.826209 544.189641 
" clip-path="url(#p72fc785860)" style="fill: #e6482f"/>
    <path d="M 176.883367 555.527313 
L 172.286114 556.256447 
L 170.482891 544.864631 
L 175.082555 544.135497 
L 176.883367 555.527313 
" clip-path="url(#p72fc785860)" style="fill: #e6482f"/>
    <path d="M 185.405281 550.564149 
L 182.218302 551.022565 
L 181.391423 545.276123 
L 184.575992 544.817707 
L 185.405281 550.564149 
" clip-path="url(#p72fc785860)" style="fill: #e6482f"/>
    <path d="M 97.621127 541.522166 
L 100.330782 538.194139 
L 113.478878 548.910964 
L 110.769223 552.235381 
L 97.621127 541.522166 
" clip-path="url(#p72fc785860)" style="fill: #e6482f"/>
    <path d="M 220.170352 543.258371 
L 215.691224 543.94419 
L 214.230325 534.400477 
L 218.709452 533.714657 
L 220.170352 543.258371 
" clip-path="url(#p72fc785860)" style="fill: #e6482f"/>
    <path d="M 142.877674 548.199878 
L 140.647753 548.225145 
L 140.630878 546.835459 
L 138.193635 546.867945 
L 138.01042 531.891823 
L 137.97667 529.090793 
L 142.643834 529.03304 
L 142.877674 548.199878 
" clip-path="url(#p72fc785860)" style="fill: #e6482f"/>
    <path d="M 230.413524 541.735131 
L 226.515381 542.298224 
L 225.175018 533.046886 
L 229.073161 532.483793 
L 230.413524 541.735131 
" clip-path="url(#p72fc785860)" style="fill: #e6482f"/>
    <path d="M 87.93001 533.375357 
L 91.806457 528.621549 
L 98.279255 533.895136 
L 94.402808 538.652555 
L 87.93001 533.375357 
" clip-path="url(#p72fc785860)" style="fill: #e6482f"/>
    <path d="M 134.640226 532.241951 
L 126.115901 532.924161 
L 125.785631 528.805637 
L 134.309956 528.123427 
L 134.640226 532.241951 
" clip-path="url(#p72fc785860)" style="fill: #e6482f"/>
    <path d="M 244.930913 550.304259 
L 245.441986 554.10875 
L 236.768196 555.278252 
L 236.254712 551.477371 
L 244.930913 550.304259 
" clip-path="url(#p72fc785860)" style="fill: #e6482f"/>
    <path d="M 254.421938 547.802825 
L 255.010155 552.516928 
L 248.952003 553.274939 
L 248.361375 548.560835 
L 254.421938 547.802825 
" clip-path="url(#p72fc785860)" style="fill: #e6482f"/>
    <path d="M 266.543066 546.99428 
L 267.119229 550.787942 
L 258.512939 552.098218 
L 257.936776 548.304555 
L 266.543066 546.99428 
" clip-path="url(#p72fc785860)" style="fill: #e6482f"/>
    <path d="M 276.185967 550.138219 
L 272.50479 550.632731 
L 271.260855 541.363345 
L 270.564156 541.457194 
L 270.200136 538.750013 
L 274.580424 538.161653 
L 276.185967 550.138219 
" clip-path="url(#p72fc785860)" style="fill: #e6482f"/>
    <path d="M 273.777653 534.544859 
L 269.689062 535.082686 
L 268.4837 525.925197 
L 272.57229 525.38737 
L 273.777653 534.544859 
" clip-path="url(#p72fc785860)" style="fill: #e6482f"/>
    <path d="M 244.267963 516.284025 
L 244.786269 520.167926 
L 235.461583 521.40962 
L 234.945688 517.525718 
L 244.267963 516.284025 
" clip-path="url(#p72fc785860)" style="fill: #e6482f"/>
    <path d="M 271.755054 521.597318 
L 267.842447 522.026857 
L 266.844406 512.941559 
L 270.757014 512.50841 
L 271.755054 521.597318 
" clip-path="url(#p72fc785860)" style="fill: #e6482f"/>
    <path d="M 259.238568 514.241006 
L 259.735177 518.157394 
L 250.702189 519.301629 
L 250.207991 515.385241 
L 259.238568 514.241006 
" clip-path="url(#p72fc785860)" style="fill: #e6482f"/>
    <path d="M 270.166386 507.451397 
L 265.067702 508.126388 
L 264.240823 501.896263 
L 269.337097 501.217663 
L 270.166386 507.451397 
" clip-path="url(#p72fc785860)" style="fill: #e6482f"/>
    <path d="M 268.269145 498.138696 
L 263.871982 498.521311 
L 263.33439 492.363378 
L 267.733964 491.980763 
L 268.269145 498.138696 
" clip-path="url(#p72fc785860)" style="fill: #e6482f"/>
    <path d="M 138.01042 531.891823 
L 136.11559 531.91348 
L 136.08184 529.112451 
L 137.97667 529.090793 
L 138.01042 531.891823 
" clip-path="url(#p72fc785860)" style="fill: #e6482f"/>
    <path d="M 197.66382 522.395033 
L 199.416417 535.104343 
L 194.87461 535.7288 
L 193.122013 523.023099 
L 197.66382 522.395033 
" clip-path="url(#p72fc785860)" style="fill: #e6482f"/>
    <path d="M 216.737479 520.121002 
L 218.00311 529.614181 
L 214.133896 530.130351 
L 212.868265 520.637171 
L 216.737479 520.121002 
" clip-path="url(#p72fc785860)" style="fill: #e6482f"/>
    <path d="M 228.226996 527.979044 
L 224.25171 528.448289 
L 223.150009 519.11754 
L 227.125295 518.648296 
L 228.226996 527.979044 
" clip-path="url(#p72fc785860)" style="fill: #e6482f"/>
    <path d="M 67.518399 514.500895 
L 68.950369 508.898836 
L 72.318153 509.761525 
L 70.886182 515.359974 
L 67.518399 514.500895 
" clip-path="url(#p72fc785860)" style="fill: #e6482f"/>
    <path d="M 195.033718 504.812799 
L 197.078013 517.76395 
L 192.553082 518.478646 
L 190.508787 505.527494 
L 195.033718 504.812799 
" clip-path="url(#p72fc785860)" style="fill: #e6482f"/>
    <path d="M 214.982471 506.216923 
L 216.344531 515.858095 
L 212.251119 516.439236 
L 210.886649 506.798064 
L 214.982471 506.216923 
" clip-path="url(#p72fc785860)" style="fill: #e6482f"/>
    <path d="M 227.354314 513.475776 
L 222.400273 514.12189 
L 221.611966 508.075854 
L 226.566007 507.42974 
L 227.354314 513.475776 
" clip-path="url(#p72fc785860)" style="fill: #e6482f"/>
    <path d="M 225.989843 504.094493 
L 221.074374 504.769484 
L 220.249906 498.781201 
L 225.162964 498.102601 
L 225.989843 504.094493 
" clip-path="url(#p72fc785860)" style="fill: #e6482f"/>
    <path d="M 213.408267 492.569124 
L 214.866756 502.210296 
L 210.486468 502.874457 
L 209.025569 493.233285 
L 213.408267 492.569124 
" clip-path="url(#p72fc785860)" style="fill: #e6482f"/>
    <path d="M 302.88234 507.494712 
L 303.321092 510.804691 
L 298.543035 511.436367 
L 298.104283 508.126388 
L 302.88234 507.494712 
" clip-path="url(#p72fc785860)" style="fill: #e6482f"/>
    <path d="M 317.50339 508.559536 
L 309.928891 509.624361 
L 309.347906 505.498618 
L 316.922405 504.433793 
L 317.50339 508.559536 
" clip-path="url(#p72fc785860)" style="fill: #e6482f"/>
    <path d="M 281.01465 504.657587 
L 277.073114 505.123222 
L 276.198021 497.698328 
L 280.139557 497.232693 
L 281.01465 504.657587 
" clip-path="url(#p72fc785860)" style="fill: #e6482f"/>
    <path d="M 292.424614 497.557555 
L 292.957384 501.676079 
L 285.486546 502.639835 
L 284.953776 498.521311 
L 292.424614 497.557555 
" clip-path="url(#p72fc785860)" style="fill: #e6482f"/>
    <path d="M 304.012971 496.016267 
L 304.379401 499.874902 
L 296.930259 500.582378 
L 296.56624 496.723743 
L 304.012971 496.016267 
" clip-path="url(#p72fc785860)" style="fill: #e6482f"/>
    <path d="M 284.13895 475.098786 
L 284.729578 479.253405 
L 273.37024 480.870495 
L 272.777202 476.715875 
L 284.13895 475.098786 
" clip-path="url(#p72fc785860)" style="fill: #e6482f"/>
    <path d="M 305.268959 472.027038 
L 305.861997 476.149172 
L 298.923929 477.149024 
L 298.330891 473.02689 
L 305.268959 472.027038 
" clip-path="url(#p72fc785860)" style="fill: #e6482f"/>
    <path d="M 284.96824 461.710876 
L 287.668252 461.346309 
L 287.75986 462.028518 
L 293.598637 461.238022 
L 293.511851 460.595518 
L 296.385435 460.205684 
L 296.995349 464.72487 
L 285.582975 466.262549 
L 284.96824 461.710876 
" clip-path="url(#p72fc785860)" style="fill: #e6482f"/>
    <path d="M 305.591996 458.660786 
L 308.521027 458.289 
L 308.612635 458.992867 
L 314.292304 458.270952 
L 314.186232 457.44436 
L 316.625886 457.133936 
L 317.226157 461.866088 
L 306.177802 463.270212 
L 305.591996 458.660786 
" clip-path="url(#p72fc785860)" style="fill: #e6482f"/>
    <path d="M 306.597268 450.344328 
L 307.171021 454.513386 
L 303.152342 455.06565 
L 302.961894 453.683183 
L 299.283127 454.192133 
L 299.485628 455.65762 
L 295.334359 456.231543 
L 294.748553 451.979465 
L 306.597268 450.344328 
" clip-path="url(#p72fc785860)" style="fill: #e6482f"/>
    <path d="M 275.537482 493.182751 
L 274.402031 485.537674 
L 278.109726 484.985409 
L 279.245178 492.630487 
L 275.537482 493.182751 
" clip-path="url(#p72fc785860)" style="fill: #e6482f"/>
    <path d="M 265.489579 478.267992 
L 267.015568 489.428794 
L 263.192157 489.948573 
L 262.218224 482.812445 
L 253.170772 484.050529 
L 253.305773 485.035943 
L 250.497278 485.422167 
L 249.812632 480.412079 
L 265.489579 478.267992 
" clip-path="url(#p72fc785860)" style="fill: #e6482f"/>
    <path d="M 252.587376 465.713894 
L 253.29854 470.73842 
L 242.978225 472.200298 
L 242.267061 467.172161 
L 252.587376 465.713894 
" clip-path="url(#p72fc785860)" style="fill: #e6482f"/>
    <path d="M 265.09422 468.998606 
L 255.243996 470.590428 
L 254.501492 466.006269 
L 259.862946 465.139971 
L 258.999906 459.790583 
L 263.488677 459.065058 
L 265.09422 468.998606 
" clip-path="url(#p72fc785860)" style="fill: #e6482f"/>
    <path d="M 273.473901 456.942629 
L 274.549085 464.486638 
L 278.738926 463.891059 
L 278.618389 463.057247 
L 281.410009 462.660194 
L 282.085012 467.406784 
L 271.11139 468.969729 
L 269.48174 457.509332 
L 273.473901 456.942629 
" clip-path="url(#p72fc785860)" style="fill: #e6482f"/>
    <path d="M 273.290686 441.973726 
L 274.83114 452.975707 
L 269.689062 453.697622 
L 268.148609 442.692031 
L 273.290686 441.973726 
" clip-path="url(#p72fc785860)" style="fill: #e6482f"/>
    <path d="M 260.349912 441.908753 
L 255.72373 442.536819 
L 255.012566 437.292108 
L 252.886306 437.580874 
L 253.146665 439.504777 
L 242.117596 441.00275 
L 241.488397 436.364448 
L 252.589787 434.859255 
L 252.66693 435.425958 
L 254.720868 435.148021 
L 254.002472 429.856386 
L 258.628654 429.22832 
L 260.349912 441.908753 
" clip-path="url(#p72fc785860)" style="fill: #e6482f"/>
    <path d="M 270.887193 427.719518 
L 272.244431 438.587945 
L 267.374766 439.194354 
L 266.015117 428.325926 
L 270.887193 427.719518 
" clip-path="url(#p72fc785860)" style="fill: #e6482f"/>
    <path d="M 273.510062 412.447411 
L 274.242923 416.966597 
L 268.98272 417.822066 
L 269.874688 423.323057 
L 265.465472 424.037753 
L 263.838232 414.017575 
L 273.510062 412.447411 
" clip-path="url(#p72fc785860)" style="fill: #e6482f"/>
    <path d="M 254.012115 396.983996 
L 255.280157 407.762184 
L 249.889775 408.393859 
L 248.624144 397.615671 
L 254.012115 396.983996 
" clip-path="url(#p72fc785860)" style="fill: #e6482f"/>
    <path d="M 364.833162 732.652717 
L 365.527451 736.727926 
L 334.836506 741.961808 
L 334.142217 737.886599 
L 364.833162 732.652717 
" clip-path="url(#p72fc785860)" style="fill: #e6482f"/>
    <path d="M 325.056193 743.04829 
L 321.131532 743.744938 
L 317.284014 722.026131 
L 321.211086 721.329483 
L 325.056193 743.04829 
" clip-path="url(#p72fc785860)" style="fill: #e6482f"/>
    <path d="M 361.441271 703.476531 
L 361.949934 707.071666 
L 341.502161 709.962935 
L 340.993498 706.367799 
L 361.441271 703.476531 
" clip-path="url(#p72fc785860)" style="fill: #e6482f"/>
    <path d="M 336.818122 678.599347 
L 346.087361 677.2999 
L 344.739765 667.687605 
L 349.324965 667.045101 
L 352.654177 690.803316 
L 348.056924 691.44943 
L 346.711739 681.837135 
L 337.469018 683.132972 
L 338.667148 691.687662 
L 334.168735 692.319337 
L 331.126399 670.596921 
L 335.610348 669.968855 
L 336.818122 678.599347 
" clip-path="url(#p72fc785860)" style="fill: #e6482f"/>
    <path d="M 354.35856 650.36165 
L 354.893741 654.220284 
L 333.520249 657.190964 
L 332.985068 653.332329 
L 354.35856 650.36165 
" clip-path="url(#p72fc785860)" style="fill: #e6482f"/>
    <path d="M 319.607953 637.623463 
L 322.040375 658.367685 
L 318.171161 658.822491 
L 315.736328 638.07827 
L 319.607953 637.623463 
" clip-path="url(#p72fc785860)" style="fill: #e6482f"/>
    <path d="M 352.690338 637.363574 
L 353.208644 641.225818 
L 332.177475 644.048505 
L 331.659169 640.186261 
L 352.690338 637.363574 
" clip-path="url(#p72fc785860)" style="fill: #e6482f"/>
    <path d="M 355.580798 634.735804 
L 351.675422 635.302507 
L 348.705409 614.803737 
L 352.610784 614.237033 
L 355.580798 634.735804 
" clip-path="url(#p72fc785860)" style="fill: #e6482f"/>
    <path d="M 349.404519 608.158511 
L 349.946932 611.858324 
L 307.870131 618.016257 
L 307.327718 614.312835 
L 349.404519 608.158511 
" clip-path="url(#p72fc785860)" style="fill: #e6482f"/>
    <path d="M 339.527777 596.041171 
L 340.128048 600.419584 
L 326.599057 602.278515 
L 325.998786 597.900102 
L 339.527777 596.041171 
" clip-path="url(#p72fc785860)" style="fill: #e6482f"/>
    <path d="M 364.895841 709.537005 
L 368.157552 730.234302 
L 364.633071 730.790177 
L 361.37136 710.09288 
L 364.895841 709.537005 
" clip-path="url(#p72fc785860)" style="fill: #e6482f"/>
    <path d="M 375.845355 532.67871 
L 376.320268 536.244969 
L 355.870085 538.962978 
L 355.395172 535.400328 
L 375.845355 532.67871 
" clip-path="url(#p72fc785860)" style="fill: #e6482f"/>
    <path d="M 406.133709 531.603057 
L 385.685936 534.768653 
L 385.102541 531.018306 
L 405.552724 527.8491 
L 406.133709 531.603057 
" clip-path="url(#p72fc785860)" style="fill: #e6482f"/>
    <path d="M 359.035367 529.242395 
L 354.920259 529.913776 
L 351.270421 507.617438 
L 355.383118 506.942447 
L 359.035367 529.242395 
" clip-path="url(#p72fc785860)" style="fill: #e6482f"/>
    <path d="M 389.381578 505.617734 
L 389.945688 509.63158 
L 369.150771 512.555335 
L 368.586661 508.545098 
L 389.381578 505.617734 
" clip-path="url(#p72fc785860)" style="fill: #e6482f"/>
    <path d="M 362.694848 504.271363 
L 358.902777 504.758655 
L 356.226872 483.920585 
L 360.016532 483.433292 
L 362.694848 504.271363 
" clip-path="url(#p72fc785860)" style="fill: #e6482f"/>
    <path d="M 392.527575 500.39829 
L 388.684879 500.918068 
L 385.893259 480.285744 
L 389.735955 479.765965 
L 392.527575 500.39829 
" clip-path="url(#p72fc785860)" style="fill: #e6482f"/>
    <path d="M 388.470324 460.144321 
L 389.113988 464.446933 
L 372.520965 466.92671 
L 371.877301 462.624098 
L 388.470324 460.144321 
" clip-path="url(#p72fc785860)" style="fill: #e6482f"/>
    <path d="M 405.516563 457.310805 
L 406.124066 461.559274 
L 392.857844 463.45791 
L 392.250342 459.209441 
L 405.516563 457.310805 
" clip-path="url(#p72fc785860)" style="fill: #e6482f"/>
    <path d="M 365.3587 451.073462 
L 365.939685 455.264177 
L 353.673914 456.960677 
L 353.09534 452.769961 
L 365.3587 451.073462 
" clip-path="url(#p72fc785860)" style="fill: #e6482f"/>
    <path d="M 352.06596 590.695392 
L 352.822928 597.957855 
L 350.684614 598.181648 
L 349.927647 590.915576 
L 352.06596 590.695392 
" clip-path="url(#p72fc785860)" style="fill: #e6482f"/>
    <path d="M 338.662327 590.46077 
L 334.361593 591.168246 
L 332.170243 577.877795 
L 336.470977 577.166709 
L 338.662327 590.46077 
" clip-path="url(#p72fc785860)" style="fill: #e6482f"/>
    <path d="M 326.883522 578.754921 
L 327.503079 583.295765 
L 320.369742 584.27035 
L 319.750186 579.729506 
L 326.883522 578.754921 
" clip-path="url(#p72fc785860)" style="fill: #e6482f"/>
    <path d="M 336.239548 573.726785 
L 331.697741 574.416213 
L 329.6655 561.024694 
L 334.207306 560.335265 
L 336.239548 573.726785 
" clip-path="url(#p72fc785860)" style="fill: #e6482f"/>
    <path d="M 332.919979 550.88901 
L 333.592571 555.400978 
L 320.203402 557.397072 
L 319.53081 552.885105 
L 332.919979 550.88901 
" clip-path="url(#p72fc785860)" style="fill: #e6482f"/>
    <path d="M 342.177164 536.32077 
L 342.79431 540.764155 
L 324.586101 543.294467 
L 323.968955 538.851081 
L 342.177164 536.32077 
" clip-path="url(#p72fc785860)" style="fill: #e6482f"/>
    <path d="M 341.089927 531.938747 
L 336.765086 532.59569 
L 334.769005 519.500155 
L 339.093847 518.839603 
L 341.089927 531.938747 
" clip-path="url(#p72fc785860)" style="fill: #e6482f"/>
    <path d="M 338.787684 514.955702 
L 334.448379 515.616254 
L 332.452298 502.462966 
L 336.791604 501.806024 
L 338.787684 514.955702 
" clip-path="url(#p72fc785860)" style="fill: #e6482f"/>
    <path d="M 328.397458 502.755342 
L 328.976032 507.079611 
L 321.782428 508.043367 
L 321.201443 503.719098 
L 328.397458 502.755342 
" clip-path="url(#p72fc785860)" style="fill: #e6482f"/>
    <path d="M 326.963076 492.457227 
L 327.47415 496.222013 
L 320.140724 497.221865 
L 319.62965 493.457079 
L 326.963076 492.457227 
" clip-path="url(#p72fc785860)" style="fill: #e6482f"/>
    <path d="M 442.46093 521.875255 
L 442.89245 525.658088 
L 436.868047 526.347517 
L 436.436527 522.564683 
L 442.46093 521.875255 
" clip-path="url(#p72fc785860)" style="fill: #e6482f"/>
    <path d="M 471.777762 518.558056 
L 472.300889 522.50693 
L 455.674116 524.70877 
L 455.150989 520.759896 
L 471.777762 518.558056 
" clip-path="url(#p72fc785860)" style="fill: #e6482f"/>
    <path d="M 494.252955 515.757027 
L 494.70376 519.139198 
L 477.903415 521.377134 
L 477.452609 517.994963 
L 494.252955 515.757027 
" clip-path="url(#p72fc785860)" style="fill: #e6482f"/>
    <path d="M 404.610131 521.925789 
L 401.495473 501.448676 
L 405.37192 500.860315 
L 408.486577 521.337428 
L 404.610131 521.925789 
" clip-path="url(#p72fc785860)" style="fill: #e6482f"/>
    <path d="M 424.153881 519.240266 
L 420.3594 519.835846 
L 417.779924 503.430332 
L 421.571995 502.831143 
L 424.153881 519.240266 
" clip-path="url(#p72fc785860)" style="fill: #e6482f"/>
    <path d="M 503.825945 517.590691 
L 500.077267 518.117688 
L 497.736453 501.524477 
L 501.485131 500.993869 
L 503.825945 517.590691 
" clip-path="url(#p72fc785860)" style="fill: #e6482f"/>
    <path d="M 439.078682 517.16837 
L 435.245629 517.727854 
L 432.803564 501.033575 
L 436.634207 500.470481 
L 439.078682 517.16837 
" clip-path="url(#p72fc785860)" style="fill: #e6482f"/>
    <path d="M 455.030452 515.027893 
L 451.182935 515.580158 
L 448.77462 498.709009 
L 452.619727 498.160354 
L 455.030452 515.027893 
" clip-path="url(#p72fc785860)" style="fill: #e6482f"/>
    <path d="M 492.21107 496.272547 
L 492.736608 499.867682 
L 475.316707 502.412432 
L 474.791168 498.820906 
L 492.21107 496.272547 
" clip-path="url(#p72fc785860)" style="fill: #e6482f"/>
    <path d="M 474.318666 496.608237 
L 470.796596 497.081091 
L 468.559443 480.31462 
L 472.081513 479.845376 
L 474.318666 496.608237 
" clip-path="url(#p72fc785860)" style="fill: #e6482f"/>
    <path d="M 418.700821 497.900465 
L 414.862946 498.409414 
L 412.039986 477.232044 
L 415.877861 476.719485 
L 418.700821 497.900465 
" clip-path="url(#p72fc785860)" style="fill: #e6482f"/>
    <path d="M 500.291822 492.85789 
L 496.437072 493.406545 
L 494.060097 476.712265 
L 497.917257 476.16361 
L 500.291822 492.85789 
" clip-path="url(#p72fc785860)" style="fill: #e6482f"/>
    <path d="M 404.24129 494.709601 
L 400.579398 495.261866 
L 397.411705 474.181954 
L 401.073597 473.633299 
L 404.24129 494.709601 
" clip-path="url(#p72fc785860)" style="fill: #e6482f"/>
    <path d="M 488.881858 475.004937 
L 471.669279 477.452228 
L 471.122044 473.597203 
L 488.334624 471.153521 
L 488.881858 475.004937 
" clip-path="url(#p72fc785860)" style="fill: #e6482f"/>
    <path d="M 416.825276 473.03411 
L 412.61856 473.676614 
L 410.039084 456.733273 
L 414.2458 456.090769 
L 416.825276 473.03411 
" clip-path="url(#p72fc785860)" style="fill: #e6482f"/>
    <path d="M 494.318044 451.019318 
L 496.76252 467.818275 
L 493.066878 468.356102 
L 490.622402 451.557144 
L 494.318044 451.019318 
" clip-path="url(#p72fc785860)" style="fill: #e6482f"/>
    <path d="M 454.526611 456.16657 
L 455.228132 461.552055 
L 443.59156 463.064466 
L 442.890039 457.678982 
L 454.526611 456.16657 
" clip-path="url(#p72fc785860)" style="fill: #e6482f"/>
    <path d="M 453.755179 452.506462 
L 444.495582 453.675964 
L 444.095402 450.517587 
L 453.354998 449.348085 
L 453.755179 452.506462 
" clip-path="url(#p72fc785860)" style="fill: #e6482f"/>
    <path d="M 484.289426 444.485989 
L 484.913804 448.485397 
L 468.070066 451.113167 
L 467.445688 447.113759 
L 484.289426 444.485989 
" clip-path="url(#p72fc785860)" style="fill: #e6482f"/>
    <path d="M 413.606958 447.875379 
L 409.253188 448.514274 
L 407.305322 435.24548 
L 411.659092 434.606585 
L 413.606958 447.875379 
" clip-path="url(#p72fc785860)" style="fill: #e6482f"/>
    <path d="M 334.407396 485.783125 
L 330.104252 486.389533 
L 327.659776 469.038311 
L 331.965332 468.431903 
L 334.407396 485.783125 
" clip-path="url(#p72fc785860)" style="fill: #e6482f"/>
    <path d="M 347.338527 483.472997 
L 345.294232 466.482733 
L 349.597377 465.962954 
L 351.641672 482.953219 
L 347.338527 483.472997 
" clip-path="url(#p72fc785860)" style="fill: #e6482f"/>
    <path d="M 323.911098 469.334296 
L 324.455922 473.763243 
L 310.994431 475.412819 
L 310.449607 470.987481 
L 323.911098 469.334296 
" clip-path="url(#p72fc785860)" style="fill: #e6482f"/>
    <path d="M 330.853987 460.400601 
L 320.215456 461.779458 
L 319.747775 458.177103 
L 326.374859 457.318024 
L 325.304497 449.0521 
L 324.253421 449.189264 
L 323.771276 445.456964 
L 328.833799 444.803632 
L 330.853987 460.400601 
" clip-path="url(#p72fc785860)" style="fill: #e6482f"/>
    <path d="M 346.277808 444.688125 
L 348.269067 457.639277 
L 344.002083 458.296219 
L 342.008414 445.345068 
L 346.277808 444.688125 
" clip-path="url(#p72fc785860)" style="fill: #e6482f"/>
    <path d="M 344.725301 432.967839 
L 345.846288 441.580282 
L 341.3985 442.157814 
L 340.277513 433.54537 
L 344.725301 432.967839 
" clip-path="url(#p72fc785860)" style="fill: #e6482f"/>
    <path d="M 327.893616 439.688865 
L 323.383149 440.32415 
L 322.990201 437.537559 
L 323.662793 437.44371 
L 322.828682 431.524009 
L 322.151269 431.617858 
L 321.775195 428.957602 
L 326.292895 428.318707 
L 327.893616 439.688865 
" clip-path="url(#p72fc785860)" style="fill: #e6482f"/>
    <path d="M 342.09761 416.544277 
L 344.09128 430.127104 
L 339.817064 430.75517 
L 337.825805 417.168733 
L 342.09761 416.544277 
" clip-path="url(#p72fc785860)" style="fill: #e6482f"/>
    <path d="M 359.556084 414.364094 
L 360.194926 418.760555 
L 347.193884 420.648363 
L 346.555042 416.251901 
L 359.556084 414.364094 
" clip-path="url(#p72fc785860)" style="fill: #e6482f"/>
    <path d="M 325.367176 422.734696 
L 320.914566 423.276132 
L 320.591529 420.612267 
L 321.271354 420.529247 
L 319.858669 408.931685 
L 319.072772 409.029144 
L 318.752146 406.390545 
L 323.310827 405.834671 
L 325.367176 422.734696 
" clip-path="url(#p72fc785860)" style="fill: #e6482f"/>
    <path d="M 402.529675 449.496078 
L 389.805866 451.261159 
L 389.208006 446.958547 
L 401.934225 445.193466 
L 402.529675 449.496078 
" clip-path="url(#p72fc785860)" style="fill: #e6482f"/>
    <path d="M 387.185408 438.172844 
L 387.771214 441.897924 
L 366.713527 445.204294 
L 366.127721 441.475604 
L 387.185408 438.172844 
" clip-path="url(#p72fc785860)" style="fill: #e6482f"/>
    <path d="M 385.223077 423.72372 
L 385.777544 427.495724 
L 365.807095 430.437527 
L 365.250217 426.665522 
L 385.223077 423.72372 
" clip-path="url(#p72fc785860)" style="fill: #e6482f"/>
    <path d="M 397.944475 408.011244 
L 398.564031 412.378829 
L 385.276113 414.266636 
L 384.654146 409.902661 
L 397.944475 408.011244 
" clip-path="url(#p72fc785860)" style="fill: #e6482f"/>
    <path d="M 363.208333 408.072607 
L 359.247511 408.628481 
L 358.191613 401.10252 
L 362.150024 400.546645 
L 363.208333 408.072607 
" clip-path="url(#p72fc785860)" style="fill: #e6482f"/>
    <path d="M 384.572181 404.528005 
L 380.478769 405.047784 
L 379.572337 397.893608 
L 383.665748 397.37383 
L 384.572181 404.528005 
" clip-path="url(#p72fc785860)" style="fill: #e6482f"/>
    <path d="M 377.713667 389.865916 
L 378.335635 394.23711 
L 361.20502 396.669963 
L 360.583053 392.298769 
L 377.713667 389.865916 
" clip-path="url(#p72fc785860)" style="fill: #e6482f"/>
    <path d="M 394.567049 387.313947 
L 395.23482 391.587683 
L 382.511011 393.580167 
L 381.840829 389.306432 
L 394.567049 387.313947 
" clip-path="url(#p72fc785860)" style="fill: #e6482f"/>
    <path d="M 360.780732 378.1348 
L 361.37136 382.639549 
L 349.279161 384.224152 
L 348.688534 379.719403 
L 360.780732 378.1348 
" clip-path="url(#p72fc785860)" style="fill: #e6482f"/>
    <path d="M 381.647971 375.153292 
L 382.187974 379.777157 
L 370.141579 381.181281 
L 369.603987 376.557417 
L 381.647971 375.153292 
" clip-path="url(#p72fc785860)" style="fill: #e6482f"/>
    <path d="M 411.157661 430.794875 
L 407.124517 431.361578 
L 406.06862 423.839226 
L 410.101763 423.272523 
L 411.157661 430.794875 
" clip-path="url(#p72fc785860)" style="fill: #e6482f"/>
    <path d="M 427.020234 428.607473 
L 426.444071 424.279594 
L 430.867752 423.694843 
L 430.327749 419.626853 
L 426.20782 420.171899 
L 425.64371 415.92343 
L 434.146338 414.793634 
L 434.71768 419.096246 
L 431.894721 419.471641 
L 432.420259 423.427735 
L 439.310112 422.514512 
L 439.886275 426.842391 
L 437.191084 427.199739 
L 437.77448 431.59981 
L 440.527528 431.235243 
L 441.120567 435.700286 
L 433.280888 436.743453 
L 432.69026 432.303677 
L 436.250902 431.830823 
L 435.669917 427.459629 
L 427.020234 428.607473 
" clip-path="url(#p72fc785860)" style="fill: #e6482f"/>
    <path d="M 409.163991 420.016687 
L 404.916293 420.594219 
L 403.122713 407.466198 
L 407.370411 406.885057 
L 409.163991 420.016687 
" clip-path="url(#p72fc785860)" style="fill: #e6482f"/>
    <path d="M 455.35349 399.008967 
L 455.907956 402.885649 
L 441.824499 404.903401 
L 441.270032 401.026718 
L 455.35349 399.008967 
" clip-path="url(#p72fc785860)" style="fill: #e6482f"/>
    <path d="M 477.259751 395.792836 
L 477.826272 399.590108 
L 461.110302 402.087933 
L 460.543781 398.287052 
L 477.259751 395.792836 
" clip-path="url(#p72fc785860)" style="fill: #e6482f"/>
    <path d="M 406.160227 403.116662 
L 401.958333 403.719461 
L 399.511446 386.6931 
L 403.713341 386.090301 
L 406.160227 403.116662 
" clip-path="url(#p72fc785860)" style="fill: #e6482f"/>
    <path d="M 420.347346 404.939497 
L 416.569739 405.477323 
L 413.58044 384.512918 
L 417.360457 383.975091 
L 420.347346 404.939497 
" clip-path="url(#p72fc785860)" style="fill: #e6482f"/>
    <path d="M 433.162762 402.856772 
L 429.389977 403.488448 
L 425.947461 382.885 
L 429.722657 382.253324 
L 433.162762 402.856772 
" clip-path="url(#p72fc785860)" style="fill: #e6482f"/>
    <path d="M 483.332368 373.727511 
L 485.82988 390.667241 
L 482.100488 391.215896 
L 479.602976 374.279775 
L 483.332368 373.727511 
" clip-path="url(#p72fc785860)" style="fill: #e6482f"/>
    <path d="M 452.178564 378.463272 
L 452.769192 382.350783 
L 435.732596 384.946066 
L 435.141968 381.058555 
L 452.178564 378.463272 
" clip-path="url(#p72fc785860)" style="fill: #e6482f"/>
    <path d="M 339.009471 395.825322 
L 341.499751 413.032161 
L 337.223124 413.653008 
L 334.732844 396.446169 
L 339.009471 395.825322 
" clip-path="url(#p72fc785860)" style="fill: #e6482f"/>
    <path d="M 356.465534 393.042341 
L 357.140537 397.557918 
L 344.076816 399.510697 
L 343.399402 394.99512 
L 356.465534 393.042341 
" clip-path="url(#p72fc785860)" style="fill: #e6482f"/>
    <path d="M 335.465705 368.955654 
L 337.820984 386.025329 
L 333.703465 386.592032 
L 331.348186 369.522357 
L 335.465705 368.955654 
" clip-path="url(#p72fc785860)" style="fill: #e6482f"/>
    <path d="M 350.853365 363.165897 
L 352.391408 374.850088 
L 347.94603 375.434839 
L 346.405577 363.750648 
L 350.853365 363.165897 
" clip-path="url(#p72fc785860)" style="fill: #e6482f"/>
    <path d="M 332.476405 348.225871 
L 334.740077 365.252231 
L 330.371842 365.833372 
L 328.108171 348.807012 
L 332.476405 348.225871 
" clip-path="url(#p72fc785860)" style="fill: #e6482f"/>
    <path d="M 349.787824 352.149477 
L 350.556846 358.870504 
L 345.969235 359.397502 
L 345.202625 352.672866 
L 349.787824 352.149477 
" clip-path="url(#p72fc785860)" style="fill: #e6482f"/>
    <path d="M 350.13979 342.414456 
L 350.674971 346.680973 
L 344.558961 347.449812 
L 344.02378 343.183296 
L 350.13979 342.414456 
" clip-path="url(#p72fc785860)" style="fill: #e6482f"/>
    <path d="M 337.032676 331.842014 
L 337.558215 335.877518 
L 330.159698 336.841274 
L 330.788898 341.670884 
L 331.635062 341.558987 
L 332.018368 344.515228 
L 327.368078 345.121637 
L 325.827625 333.300282 
L 337.032676 331.842014 
" clip-path="url(#p72fc785860)" style="fill: #e6482f"/>
    <path d="M 349.064607 320.991635 
L 349.662467 325.481945 
L 338.358575 326.987137 
L 337.760715 322.493218 
L 349.064607 320.991635 
" clip-path="url(#p72fc785860)" style="fill: #e6482f"/>
    <path d="M 340.496889 303.810063 
L 341.514215 311.043649 
L 346.576738 310.332563 
L 346.477898 309.628696 
L 349.855325 309.152232 
L 350.523096 313.898822 
L 338.344111 315.61337 
L 336.760264 304.337061 
L 340.496889 303.810063 
" clip-path="url(#p72fc785860)" style="fill: #e6482f"/>
    <path d="M 392.759005 378.1348 
L 385.936652 378.997489 
L 385.353256 374.395282 
L 392.175609 373.532594 
L 392.759005 378.1348 
" clip-path="url(#p72fc785860)" style="fill: #e6482f"/>
    <path d="M 380.18225 370.478894 
L 375.809194 371.002282 
L 374.430259 359.538275 
L 378.805726 359.014887 
L 380.18225 370.478894 
" clip-path="url(#p72fc785860)" style="fill: #e6482f"/>
    <path d="M 370.693635 361.043468 
L 371.310781 365.374956 
L 357.31652 367.367441 
L 356.699374 363.035953 
L 370.693635 361.043468 
" clip-path="url(#p72fc785860)" style="fill: #e6482f"/>
    <path d="M 402.064405 366.042728 
L 397.684117 366.761033 
L 395.986966 356.419603 
L 400.367254 355.701298 
L 402.064405 366.042728 
" clip-path="url(#p72fc785860)" style="fill: #e6482f"/>
    <path d="M 378.441707 354.92163 
L 374.227759 355.452238 
L 373.364719 348.601266 
L 377.578667 348.070659 
L 378.441707 354.92163 
" clip-path="url(#p72fc785860)" style="fill: #e6482f"/>
    <path d="M 399.742876 351.167673 
L 395.40357 351.922074 
L 393.385793 340.299246 
L 397.72751 339.544845 
L 399.742876 351.167673 
" clip-path="url(#p72fc785860)" style="fill: #e6482f"/>
    <path d="M 365.855309 340.245102 
L 366.402544 344.468304 
L 355.002223 345.94101 
L 354.4574 341.717809 
L 365.855309 340.245102 
" clip-path="url(#p72fc785860)" style="fill: #e6482f"/>
    <path d="M 376.332322 338.891512 
L 376.727681 343.219391 
L 370.066846 343.829409 
L 369.671488 339.497921 
L 376.332322 338.891512 
" clip-path="url(#p72fc785860)" style="fill: #e6482f"/>
    <path d="M 394.477852 324.056163 
L 396.107502 335.332472 
L 391.934537 335.935271 
L 390.304886 324.658962 
L 394.477852 324.056163 
" clip-path="url(#p72fc785860)" style="fill: #e6482f"/>
    <path d="M 360.035818 319.370936 
L 360.67466 324.388244 
L 354.621329 325.157083 
L 353.984897 320.139775 
L 360.035818 319.370936 
" clip-path="url(#p72fc785860)" style="fill: #e6482f"/>
    <path d="M 284.452345 411.039677 
L 285.161098 416.324093 
L 279.428393 417.092932 
L 278.71964 411.808516 
L 284.452345 411.039677 
" clip-path="url(#p72fc785860)" style="fill: #e6482f"/>
    <path d="M 312.228723 407.098022 
L 313.4823 417.118199 
L 308.578885 417.731827 
L 307.903881 412.335514 
L 302.817251 412.970799 
L 302.238677 408.346934 
L 312.228723 407.098022 
" clip-path="url(#p72fc785860)" style="fill: #e6482f"/>
    <path d="M 295.421145 409.086897 
L 296.276953 414.165568 
L 290.577998 415.125714 
L 289.72219 410.047044 
L 295.421145 409.086897 
" clip-path="url(#p72fc785860)" style="fill: #e6482f"/>
    <path d="M 310.521929 392.266282 
L 311.172825 397.478507 
L 301.404566 398.694934 
L 300.756081 393.482709 
L 310.521929 392.266282 
" clip-path="url(#p72fc785860)" style="fill: #e6482f"/>
    <path d="M 291.274698 378.528244 
L 291.891843 383.949824 
L 286.255567 384.588719 
L 285.640832 379.167139 
L 291.274698 378.528244 
" clip-path="url(#p72fc785860)" style="fill: #e6482f"/>
    <path d="M 303.026984 377.37318 
L 303.542879 382.856123 
L 297.074903 383.466141 
L 296.559008 377.983198 
L 303.026984 377.37318 
" clip-path="url(#p72fc785860)" style="fill: #e6482f"/>
    <path d="M 318.491787 376.947251 
L 314.282661 377.517563 
L 312.243187 362.483688 
L 316.454724 361.913375 
L 318.491787 376.947251 
" clip-path="url(#p72fc785860)" style="fill: #e6482f"/>
    <path d="M 313.569086 348.153679 
L 307.265039 349.106607 
L 305.770389 339.234422 
L 312.074436 338.281494 
L 313.569086 348.153679 
" clip-path="url(#p72fc785860)" style="fill: #e6482f"/>
    <path d="M 301.467245 336.942342 
L 297.467851 337.361053 
L 296.910974 332.036931 
L 292.815151 332.466471 
L 292.316131 327.705443 
L 300.408936 326.857193 
L 301.467245 336.942342 
" clip-path="url(#p72fc785860)" style="fill: #e6482f"/>
    <path d="M 299.278306 320.753403 
L 289.341296 322.042021 
L 288.7579 317.537273 
L 294.162747 316.837015 
L 293.44435 311.299929 
L 297.974104 310.711568 
L 299.278306 320.753403 
" clip-path="url(#p72fc785860)" style="fill: #e6482f"/>
    <path d="M 233.853629 482.866589 
L 234.504525 487.645665 
L 230.722097 488.161834 
L 230.594329 487.219735 
L 222.790811 488.28095 
L 223.781619 495.56868 
L 219.668921 496.128164 
L 218.154986 485.003457 
L 233.853629 482.866589 
" clip-path="url(#p72fc785860)" style="fill: #e6482f"/>
    <path d="M 239.089725 467.94822 
L 239.586334 472.998014 
L 229.774682 473.96177 
L 229.278073 468.911976 
L 239.089725 467.94822 
" clip-path="url(#p72fc785860)" style="fill: #e6482f"/>
    <path d="M 221.49143 465.161629 
L 222.221879 470.763687 
L 227.653244 470.052601 
L 228.188425 474.142249 
L 218.36954 475.423647 
L 217.103909 465.735551 
L 221.49143 465.161629 
" clip-path="url(#p72fc785860)" style="fill: #e6482f"/>
    <path d="M 172.223435 331.127319 
L 181.331155 332.30043 
L 180.564545 338.249008 
L 164.957508 336.242085 
L 165.731351 330.232144 
L 172.223435 331.127319 
" clip-path="url(#p72fc785860)" style="fill: #e6482f"/>
    <path d="M 179.272396 280.1096 
L 172.223435 331.127319 
L 165.731351 330.232144 
L 172.780312 279.214426 
L 179.272396 280.1096 
" clip-path="url(#p72fc785860)" style="fill: #e6482f"/>
    <path d="M 175.875684 258.740922 
L 182.965627 259.704679 
L 180.752581 275.991076 
L 173.662638 275.02732 
L 175.875684 258.740922 
" clip-path="url(#p72fc785860)" style="fill: #e6482f"/>
    <path d="M 221.920539 251.312419 
L 221.409465 255.351532 
L 199.269363 252.557722 
L 199.778026 248.518609 
L 221.920539 251.312419 
" clip-path="url(#p72fc785860)" style="fill: #e6482f"/>
    <path d="M 193.249782 247.670359 
L 192.61335 252.175107 
L 178.746858 250.218718 
L 179.383289 245.71397 
L 193.249782 247.670359 
" clip-path="url(#p72fc785860)" style="fill: #e6482f"/>
    <path d="M 227.416993 230.817258 
L 230.324327 252.788735 
L 226.409309 253.304904 
L 223.501975 231.333427 
L 227.416993 230.817258 
" clip-path="url(#p72fc785860)" style="fill: #e6482f"/>
    <path d="M 217.087034 238.108598 
L 216.592836 242.014157 
L 194.50818 239.216737 
L 195.002379 235.314787 
L 217.087034 238.108598 
" clip-path="url(#p72fc785860)" style="fill: #e6482f"/>
    <path d="M 279.881609 380.210305 
L 280.505987 384.787245 
L 274.647925 385.588571 
L 274.021136 381.011631 
L 279.881609 380.210305 
" clip-path="url(#p72fc785860)" style="fill: #e6482f"/>
    <path d="M 262.787156 377.744966 
L 263.676713 383.498627 
L 269.161114 382.650377 
L 269.742098 386.404334 
L 260.226965 387.877041 
L 258.754012 378.369423 
L 262.787156 377.744966 
" clip-path="url(#p72fc785860)" style="fill: #e6482f"/>
    <path d="M 262.490636 373.193294 
L 257.382309 373.680586 
L 256.38909 363.306671 
L 261.497418 362.819378 
L 262.490636 373.193294 
" clip-path="url(#p72fc785860)" style="fill: #e6482f"/>
    <path d="M 259.433837 347.590586 
L 260.810361 358.285753 
L 255.540515 358.964353 
L 254.16158 348.269185 
L 259.433837 347.590586 
" clip-path="url(#p72fc785860)" style="fill: #e6482f"/>
    <path d="M 252.346304 333.534904 
L 261.90483 332.350964 
L 262.466529 336.891808 
L 257.230434 337.541532 
L 257.91749 343.085837 
L 253.59506 343.620054 
L 252.346304 333.534904 
" clip-path="url(#p72fc785860)" style="fill: #e6482f"/>
    <path d="M 254.267652 316.930864 
L 254.976405 322.366883 
L 260.427055 321.655797 
L 261.058666 326.507064 
L 250.774511 327.846216 
L 249.431737 317.56254 
L 254.267652 316.930864 
" clip-path="url(#p72fc785860)" style="fill: #e6482f"/>
    <path d="M 282.179031 318.724823 
L 282.791355 323.543604 
L 277.740885 324.186108 
L 277.878297 325.254542 
L 273.816224 325.770711 
L 273.678813 324.702277 
L 268.163073 325.402534 
L 267.550749 320.583753 
L 282.179031 318.724823 
" clip-path="url(#p72fc785860)" style="fill: #e6482f"/>
    <path d="M 252.917646 300.337653 
L 253.826489 311.20608 
L 248.978521 311.613962 
L 248.067266 300.741925 
L 252.917646 300.337653 
" clip-path="url(#p72fc785860)" style="fill: #e6482f"/>
    <path d="M 269.399775 297.410288 
L 270.033796 302.615294 
L 266.820299 303.008737 
L 266.186278 297.800122 
L 269.399775 297.410288 
" clip-path="url(#p72fc785860)" style="fill: #e6482f"/>
    <path d="M 276.017217 291.949003 
L 276.832042 298.2441 
L 273.613723 298.659201 
L 272.798898 292.367713 
L 276.017217 291.949003 
" clip-path="url(#p72fc785860)" style="fill: #e6482f"/>
    <path d="M 268.58495 291.050219 
L 268.854951 294.129186 
L 265.735473 294.403513 
L 265.463061 291.324547 
L 268.58495 291.050219 
" clip-path="url(#p72fc785860)" style="fill: #e6482f"/>
    <path d="M 250.801029 289.418691 
L 251.630318 295.305907 
L 247.288602 295.919534 
L 246.456902 290.028709 
L 250.801029 289.418691 
" clip-path="url(#p72fc785860)" style="fill: #e6482f"/>
    <path d="M 249.477541 279.077262 
L 250.215223 285.256853 
L 245.184039 285.856042 
L 244.446357 279.676451 
L 249.477541 279.077262 
" clip-path="url(#p72fc785860)" style="fill: #e6482f"/>
    <path d="M 247.87923 268.017527 
L 248.51084 274.738554 
L 243.944926 275.168093 
L 243.310905 268.447067 
L 247.87923 268.017527 
" clip-path="url(#p72fc785860)" style="fill: #e6482f"/>
    <path d="M 264.026268 266.396829 
L 264.361359 271.782313 
L 258.54669 272.14327 
L 258.211599 266.761396 
L 264.026268 266.396829 
" clip-path="url(#p72fc785860)" style="fill: #e6482f"/>
    <path d="M 275.940073 264.476535 
L 276.405343 269.937821 
L 270.47737 270.439552 
L 270.01451 264.981876 
L 275.940073 264.476535 
" clip-path="url(#p72fc785860)" style="fill: #e6482f"/>
    <path d="M 244.176356 253.979894 
L 244.482518 256.802581 
L 241.404021 257.138272 
L 241.095449 254.315585 
L 244.176356 253.979894 
" clip-path="url(#p72fc785860)" style="fill: #e6482f"/>
    <path d="M 254.308634 252.817611 
L 254.42676 255.748586 
L 249.590845 255.943503 
L 249.470309 253.016138 
L 254.308634 252.817611 
" clip-path="url(#p72fc785860)" style="fill: #e6482f"/>
    <path d="M 260.624735 250.583285 
L 260.687414 251.994629 
L 263.360908 251.875513 
L 263.488677 254.810096 
L 258.898656 255.012232 
L 258.705798 250.666305 
L 260.624735 250.583285 
" clip-path="url(#p72fc785860)" style="fill: #e6482f"/>
    <path d="M 276.59338 249.760302 
L 276.863381 253.077501 
L 268.768165 253.734443 
L 268.498164 250.417245 
L 276.59338 249.760302 
" clip-path="url(#p72fc785860)" style="fill: #e6482f"/>
    <path d="M 308.279955 301.655147 
L 313.190602 300.933232 
L 313.622122 303.882254 
L 318.520716 303.163949 
L 318.089196 300.214927 
L 322.944397 299.507451 
L 324.137706 307.661478 
L 309.473264 309.805565 
L 308.279955 301.655147 
" clip-path="url(#p72fc785860)" style="fill: #e6482f"/>
    <path d="M 295.915344 294.865539 
L 297.2991 305.459638 
L 291.870147 306.167115 
L 290.48639 295.573015 
L 295.915344 294.865539 
" clip-path="url(#p72fc785860)" style="fill: #e6482f"/>
    <path d="M 312.469795 288.436887 
L 313.653461 298.781926 
L 309.198441 299.290876 
L 308.012364 288.949447 
L 312.469795 288.436887 
" clip-path="url(#p72fc785860)" style="fill: #e6482f"/>
    <path d="M 293.572119 277.618994 
L 294.599088 288.014567 
L 289.076116 288.559613 
L 288.049147 278.16404 
L 293.572119 277.618994 
" clip-path="url(#p72fc785860)" style="fill: #e6482f"/>
    <path d="M 291.501306 262.083388 
L 292.788633 272.096346 
L 288.434863 272.65583 
L 287.721288 267.104305 
L 282.229656 267.811782 
L 281.655903 263.346739 
L 291.501306 262.083388 
" clip-path="url(#p72fc785860)" style="fill: #e6482f"/>
    <path d="M 287.113786 248.157651 
L 287.403073 251.146379 
L 280.093753 251.850246 
L 279.804466 248.861518 
L 287.113786 248.157651 
" clip-path="url(#p72fc785860)" style="fill: #e6482f"/>
    <path d="M 300.618669 245.219458 
L 301.038135 249.193599 
L 293.629976 249.976877 
L 293.21051 245.999126 
L 300.618669 245.219458 
" clip-path="url(#p72fc785860)" style="fill: #e6482f"/>
    <path d="M 299.813487 240.584765 
L 295.7032 240.960161 
L 295.00409 233.329522 
L 299.114377 232.954126 
L 299.813487 240.584765 
" clip-path="url(#p72fc785860)" style="fill: #e6482f"/>
    <path d="M 297.86321 227.655271 
L 298.140444 229.95457 
L 289.278617 231.026613 
L 289.001384 228.727315 
L 297.86321 227.655271 
" clip-path="url(#p72fc785860)" style="fill: #e6482f"/>
    <path d="M 315.042039 224.262272 
L 315.490434 228.763411 
L 312.534885 229.055786 
L 312.08649 224.554647 
L 315.042039 224.262272 
" clip-path="url(#p72fc785860)" style="fill: #e6482f"/>
    <path d="M 241.563129 236.2244 
L 242.457508 243.324432 
L 239.258476 243.728704 
L 238.364097 236.628672 
L 241.563129 236.2244 
" clip-path="url(#p72fc785860)" style="fill: #e6482f"/>
    <path d="M 259.561605 227.814093 
L 259.829196 231.488639 
L 254.424349 231.882082 
L 254.159169 228.207536 
L 259.561605 227.814093 
" clip-path="url(#p72fc785860)" style="fill: #e6482f"/>
    <path d="M 271.169248 226.038182 
L 271.485053 229.460058 
L 266.15976 229.95457 
L 265.843955 226.529084 
L 271.169248 226.038182 
" clip-path="url(#p72fc785860)" style="fill: #e6482f"/>
    <path d="M 255.998553 212.599738 
L 256.246858 216.129902 
L 252.312554 216.407839 
L 252.064249 212.874066 
L 255.998553 212.599738 
" clip-path="url(#p72fc785860)" style="fill: #e6482f"/>
    <path d="M 267.651999 210.97182 
L 267.98468 214.270971 
L 263.818946 214.689682 
L 263.486266 211.390531 
L 267.651999 210.97182 
" clip-path="url(#p72fc785860)" style="fill: #e6482f"/>
    <path d="M 279.457322 209.275321 
L 279.761073 212.462575 
L 275.609804 212.856018 
L 275.306053 209.668764 
L 279.457322 209.275321 
" clip-path="url(#p72fc785860)" style="fill: #e6482f"/>
    <path d="M 253.387737 195.483139 
L 253.686667 198.966377 
L 249.77406 199.302068 
L 249.47513 195.818829 
L 253.387737 195.483139 
" clip-path="url(#p72fc785860)" style="fill: #e6482f"/>
    <path d="M 265.267792 193.757762 
L 265.639044 197.533377 
L 261.6059 197.92682 
L 261.234648 194.154815 
L 265.267792 193.757762 
" clip-path="url(#p72fc785860)" style="fill: #e6482f"/>
    <path d="M 276.69463 192.137064 
L 276.938114 195.533673 
L 273.10506 195.81161 
L 272.859166 192.415001 
L 276.69463 192.137064 
" clip-path="url(#p72fc785860)" style="fill: #e6482f"/>
    <path d="M 281.986173 224.547428 
L 282.30921 227.998181 
L 278.078387 228.391624 
L 277.75776 224.944481 
L 281.986173 224.547428 
" clip-path="url(#p72fc785860)" style="fill: #e6482f"/>
    <path d="M 297.221957 223.829123 
L 293.810781 224.146765 
L 293.391315 219.674503 
L 296.802491 219.356861 
L 297.221957 223.829123 
" clip-path="url(#p72fc785860)" style="fill: #e6482f"/>
    <path d="M 313.870427 215.256385 
L 314.624984 222.493581 
L 311.55613 222.814833 
L 310.801573 215.574027 
L 313.870427 215.256385 
" clip-path="url(#p72fc785860)" style="fill: #e6482f"/>
    <path d="M 292.771758 211.98972 
L 292.593364 209.921434 
L 295.27168 209.690422 
L 295.589896 213.379406 
L 292.959795 213.606809 
L 293.020063 214.299848 
L 289.191831 214.631928 
L 288.991741 212.318192 
L 292.771758 211.98972 
" clip-path="url(#p72fc785860)" style="fill: #e6482f"/>
    <path d="M 312.498724 205.658528 
L 312.568635 206.456243 
L 315.070968 206.239669 
L 315.213201 207.878416 
L 312.710868 208.09499 
L 312.862744 209.849243 
L 310.102463 210.087475 
L 309.740854 205.89676 
L 312.498724 205.658528 
" clip-path="url(#p72fc785860)" style="fill: #e6482f"/>
    <path d="M 294.013282 204.178602 
L 290.553891 204.326595 
L 290.329693 199.154075 
L 293.789084 199.006083 
L 294.013282 204.178602 
" clip-path="url(#p72fc785860)" style="fill: #e6482f"/>
    <path d="M 311.061932 196.533525 
L 311.761042 202.294405 
L 308.810314 202.651753 
L 308.111204 196.894482 
L 311.061932 196.533525 
" clip-path="url(#p72fc785860)" style="fill: #e6482f"/>
    <path d="M 292.516221 190.094045 
L 292.795865 194.255883 
L 290.009067 194.443581 
L 289.729423 190.278133 
L 292.516221 190.094045 
" clip-path="url(#p72fc785860)" style="fill: #e6482f"/>
    <path d="M 309.750497 187.585391 
L 310.22541 191.220232 
L 307.262628 191.606456 
L 306.787716 187.971615 
L 309.750497 187.585391 
" clip-path="url(#p72fc785860)" style="fill: #e6482f"/>
    <path d="M 186.49734 227.900722 
L 187.309754 237.458874 
L 184.110722 237.733202 
L 183.298307 228.17144 
L 186.49734 227.900722 
" clip-path="url(#p72fc785860)" style="fill: #e6482f"/>
    <path d="M 240.463838 225.345144 
L 241.107502 231.943445 
L 238.291775 232.217773 
L 237.648111 225.623081 
L 240.463838 225.345144 
" clip-path="url(#p72fc785860)" style="fill: #e6482f"/>
    <path d="M 238.303828 216.840988 
L 238.80767 220.612993 
L 236.076318 220.97756 
L 235.572477 217.205555 
L 238.303828 216.840988 
" clip-path="url(#p72fc785860)" style="fill: #e6482f"/>
    <path d="M 223.962423 215.80143 
L 224.71698 221.641721 
L 221.865092 222.009898 
L 221.110535 216.169607 
L 223.962423 215.80143 
" clip-path="url(#p72fc785860)" style="fill: #e6482f"/>
    <path d="M 216.732658 214.891818 
L 217.152124 219.057266 
L 214.51238 219.324375 
L 214.092913 215.158926 
L 216.732658 214.891818 
" clip-path="url(#p72fc785860)" style="fill: #e6482f"/>
    <path d="M 204.867067 205.662137 
L 202.699825 227.990962 
L 198.818557 227.611956 
L 200.983389 205.286742 
L 204.867067 205.662137 
" clip-path="url(#p72fc785860)" style="fill: #e6482f"/>
    <path d="M 237.739719 207.004899 
L 238.159185 211.170347 
L 234.829973 211.506037 
L 234.410507 207.340589 
L 237.739719 207.004899 
" clip-path="url(#p72fc785860)" style="fill: #e6482f"/>
    <path d="M 234.400864 178.604771 
L 234.767294 181.604327 
L 231.944335 181.947236 
L 231.577905 178.94768 
L 234.400864 178.604771 
" clip-path="url(#p72fc785860)" style="fill: #e6482f"/>
    <path d="M 231.710495 168.252513 
L 232.19264 171.248459 
L 228.824856 171.789895 
L 228.342711 168.793949 
L 231.710495 168.252513 
" clip-path="url(#p72fc785860)" style="fill: #e6482f"/>
    <path d="M 474.13304 375.081101 
L 474.677864 378.806181 
L 457.802787 381.27152 
L 457.257963 377.54644 
L 474.13304 375.081101 
" clip-path="url(#p72fc785860)" style="fill: #e6482f"/>
    <path d="M 403.506018 372.023792 
L 404.007449 376.506883 
L 397.122418 377.275722 
L 396.620987 372.792631 
L 403.506018 372.023792 
" clip-path="url(#p72fc785860)" style="fill: #e6482f"/>
    <path d="M 430.144534 353.748519 
L 435.889293 352.853344 
L 437.47555 363.043172 
L 450.491056 361.014591 
L 449.182033 352.618722 
L 453.109104 352.005094 
L 454.92197 363.638751 
L 432.232222 367.172524 
L 430.144534 353.748519 
" clip-path="url(#p72fc785860)" style="fill: #e6482f"/>
    <path d="M 459.451723 342.053499 
L 460.196637 348.041782 
L 449.116943 349.42064 
L 448.372029 343.432356 
L 459.451723 342.053499 
" clip-path="url(#p72fc785860)" style="fill: #e6482f"/>
    <path d="M 447.774169 318.183386 
L 451.079273 339.963556 
L 445.353801 340.829853 
L 442.048696 319.049684 
L 447.774169 318.183386 
" clip-path="url(#p72fc785860)" style="fill: #e6482f"/>
    <path d="M 417.521976 300.655295 
L 418.112604 304.618607 
L 401.355651 307.109213 
L 400.767434 303.145901 
L 417.521976 300.655295 
" clip-path="url(#p72fc785860)" style="fill: #e6482f"/>
    <path d="M 440.06708 297.388631 
L 440.5661 301.019862 
L 423.719951 303.32638 
L 423.220931 299.695149 
L 440.06708 297.388631 
" clip-path="url(#p72fc785860)" style="fill: #e6482f"/>
    <path d="M 461.990217 293.995631 
L 462.50129 297.684616 
L 445.932375 299.980305 
L 445.423712 296.29132 
L 461.990217 293.995631 
" clip-path="url(#p72fc785860)" style="fill: #e6482f"/>
    <path d="M 404.537809 299.121226 
L 400.280468 299.68432 
L 398.467602 286.011254 
L 402.727354 285.44816 
L 404.537809 299.121226 
" clip-path="url(#p72fc785860)" style="fill: #e6482f"/>
    <path d="M 427.17452 281.243006 
L 428.710152 294.435999 
L 424.284061 294.948559 
L 422.746018 281.759176 
L 427.17452 281.243006 
" clip-path="url(#p72fc785860)" style="fill: #e6482f"/>
    <path d="M 369.84506 317.905449 
L 370.551402 322.940805 
L 364.404053 323.807103 
L 363.695299 318.771747 
L 369.84506 317.905449 
" clip-path="url(#p72fc785860)" style="fill: #e6482f"/>
    <path d="M 379.266175 316.692632 
L 379.823052 321.778522 
L 373.675702 322.453512 
L 373.118825 317.364013 
L 379.266175 316.692632 
" clip-path="url(#p72fc785860)" style="fill: #e6482f"/>
    <path d="M 393.460526 314.631566 
L 393.990885 318.83311 
L 382.559225 320.27333 
L 382.028866 316.071786 
L 393.460526 314.631566 
" clip-path="url(#p72fc785860)" style="fill: #e6482f"/>
    <path d="M 382.650833 304.365937 
L 383.17155 309.321882 
L 377.055539 309.964386 
L 376.534823 305.004832 
L 382.650833 304.365937 
" clip-path="url(#p72fc785860)" style="fill: #e6482f"/>
    <path d="M 393.137489 303.066491 
L 393.421954 307.943025 
L 387.371033 308.293154 
L 387.086568 303.416619 
L 393.137489 303.066491 
" clip-path="url(#p72fc785860)" style="fill: #e6482f"/>
    <path d="M 391.071497 284.639616 
L 391.777839 290.819206 
L 386.505583 291.418395 
L 385.79924 285.238805 
L 391.071497 284.639616 
" clip-path="url(#p72fc785860)" style="fill: #e6482f"/>
    <path d="M 366.831653 277.066729 
L 367.376477 281.394609 
L 360.537249 282.253687 
L 359.992425 277.925808 
L 366.831653 277.066729 
" clip-path="url(#p72fc785860)" style="fill: #e6482f"/>
    <path d="M 379.671176 275.236675 
L 380.240108 280.347832 
L 374.126508 281.026432 
L 373.557577 275.918885 
L 379.671176 275.236675 
" clip-path="url(#p72fc785860)" style="fill: #e6482f"/>
    <path d="M 389.263453 273.948057 
L 390.078278 280.333394 
L 385.049505 280.975898 
L 384.23468 274.590562 
L 389.263453 273.948057 
" clip-path="url(#p72fc785860)" style="fill: #e6482f"/>
    <path d="M 387.079336 263.361177 
L 387.75916 269.428871 
L 383.509051 269.901725 
L 382.831637 263.834031 
L 387.079336 263.361177 
" clip-path="url(#p72fc785860)" style="fill: #e6482f"/>
    <path d="M 472.014013 296.024212 
L 468.320781 296.623401 
L 465.603894 279.914683 
L 469.294715 279.315494 
L 472.014013 296.024212 
" clip-path="url(#p72fc785860)" style="fill: #e6482f"/>
    <path d="M 460.266548 280.596893 
L 460.767979 284.235343 
L 444.085759 286.541861 
L 443.581917 282.899801 
L 460.266548 280.596893 
" clip-path="url(#p72fc785860)" style="fill: #e6482f"/>
    <path d="M 444.25451 261.888471 
L 446.58086 278.835421 
L 442.779146 279.358809 
L 440.452796 262.411859 
L 444.25451 261.888471 
" clip-path="url(#p72fc785860)" style="fill: #e6482f"/>
    <path d="M 466.486219 258.791456 
L 468.841498 275.36301 
L 464.808355 275.936933 
L 462.453076 259.365379 
L 466.486219 258.791456 
" clip-path="url(#p72fc785860)" style="fill: #e6482f"/>
    <path d="M 425.065136 265.851783 
L 420.72583 266.458191 
L 418.823768 252.839269 
L 423.163073 252.23647 
L 425.065136 265.851783 
" clip-path="url(#p72fc785860)" style="fill: #e6482f"/>
    <path d="M 456.15385 252.312271 
L 456.669746 256.059009 
L 439.987526 258.361917 
L 439.46922 254.618789 
L 456.15385 252.312271 
" clip-path="url(#p72fc785860)" style="fill: #e6482f"/>
    <path d="M 410.335603 245.248335 
L 410.885249 249.023949 
L 393.132667 251.604795 
L 392.583022 247.82918 
L 410.335603 245.248335 
" clip-path="url(#p72fc785860)" style="fill: #e6482f"/>
    <path d="M 466.317469 254.77761 
L 462.496469 255.315437 
L 460.14119 238.516479 
L 463.96219 237.978653 
L 466.317469 254.77761 
" clip-path="url(#p72fc785860)" style="fill: #e6482f"/>
    <path d="M 432.143025 242.093567 
L 432.69026 246.013565 
L 415.480091 248.413931 
L 414.932857 244.493934 
L 432.143025 242.093567 
" clip-path="url(#p72fc785860)" style="fill: #e6482f"/>
    <path d="M 454.794201 239.086792 
L 455.298043 242.826311 
L 438.83761 245.03537 
L 438.336179 241.295851 
L 454.794201 239.086792 
" clip-path="url(#p72fc785860)" style="fill: #e6482f"/>
    <path d="M 339.412062 299.467745 
L 335.697135 299.947819 
L 334.576147 291.270403 
L 338.291075 290.79033 
L 339.412062 299.467745 
" clip-path="url(#p72fc785860)" style="fill: #e6482f"/>
    <path d="M 326.668968 284.592691 
L 327.30781 289.812135 
L 323.28672 290.306647 
L 322.647878 285.087203 
L 326.668968 284.592691 
" clip-path="url(#p72fc785860)" style="fill: #e6482f"/>
    <path d="M 335.870707 278.445587 
L 336.991694 286.80536 
L 333.385249 287.285433 
L 332.264262 278.92927 
L 335.870707 278.445587 
" clip-path="url(#p72fc785860)" style="fill: #e6482f"/>
    <path d="M 353.625699 279.113358 
L 354.12713 284.051255 
L 347.852012 284.69015 
L 347.34817 279.755862 
L 353.625699 279.113358 
" clip-path="url(#p72fc785860)" style="fill: #e6482f"/>
    <path d="M 334.891952 264.703939 
L 335.916511 273.478813 
L 332.054528 273.93001 
L 331.02997 265.155135 
L 334.891952 264.703939 
" clip-path="url(#p72fc785860)" style="fill: #e6482f"/>
    <path d="M 337.493125 255.896578 
L 338.047592 259.614439 
L 329.692018 260.863352 
L 329.13514 257.145491 
L 337.493125 255.896578 
" clip-path="url(#p72fc785860)" style="fill: #e6482f"/>
    <path d="M 350.043361 254.106229 
L 350.706311 259.033298 
L 345.000124 259.802137 
L 344.337174 254.875069 
L 350.043361 254.106229 
" clip-path="url(#p72fc785860)" style="fill: #e6482f"/>
    <path d="M 317.474461 236.419317 
L 317.780623 239.007381 
L 317.018834 239.097621 
L 317.633569 244.284579 
L 321.794481 243.790067 
L 321.673945 242.772167 
L 324.590923 242.425648 
L 325.171907 247.331059 
L 314.205518 248.630506 
L 312.821761 236.971582 
L 317.474461 236.419317 
" clip-path="url(#p72fc785860)" style="fill: #e6482f"/>
    <path d="M 333.879448 241.844507 
L 333.773376 240.025281 
L 336.143119 239.888118 
L 336.410709 244.519201 
L 330.955238 244.836843 
L 330.793719 242.021376 
L 333.879448 241.844507 
" clip-path="url(#p72fc785860)" style="fill: #e6482f"/>
    <path d="M 354.587579 233.463076 
L 355.139635 237.805393 
L 344.267263 239.18786 
L 343.715207 234.845543 
L 354.587579 233.463076 
" clip-path="url(#p72fc785860)" style="fill: #e6482f"/>
    <path d="M 398.409745 255.376799 
L 400.174396 268.732223 
L 395.753126 269.316974 
L 393.988475 255.957941 
L 398.409745 255.376799 
" clip-path="url(#p72fc785860)" style="fill: #e6482f"/>
    <path d="M 376.305804 250.262033 
L 376.860271 255.189102 
L 370.872029 255.860482 
L 370.317562 250.933414 
L 376.305804 250.262033 
" clip-path="url(#p72fc785860)" style="fill: #e6482f"/>
    <path d="M 385.606382 249.088922 
L 386.312725 255.109691 
L 381.47681 255.672784 
L 380.772878 249.655625 
L 385.606382 249.088922 
" clip-path="url(#p72fc785860)" style="fill: #e6482f"/>
    <path d="M 367.316209 237.043773 
L 367.656121 239.906165 
L 362.318775 240.537841 
L 361.978863 237.679058 
L 367.316209 237.043773 
" clip-path="url(#p72fc785860)" style="fill: #e6482f"/>
    <path d="M 383.287265 235.094603 
L 383.530748 237.794565 
L 377.940276 238.296295 
L 377.696792 235.599944 
L 383.287265 235.094603 
" clip-path="url(#p72fc785860)" style="fill: #e6482f"/>
    <path d="M 408.325059 229.723557 
L 408.925329 233.834862 
L 391.408998 236.386831 
L 390.808728 232.279136 
L 408.325059 229.723557 
" clip-path="url(#p72fc785860)" style="fill: #e6482f"/>
    <path d="M 380.555913 217.155021 
L 381.336988 224.089012 
L 378.499564 224.406655 
L 377.718489 217.476273 
L 380.555913 217.155021 
" clip-path="url(#p72fc785860)" style="fill: #e6482f"/>
    <path d="M 410.162031 215.519884 
L 410.610426 219.165553 
L 389.697383 221.73557 
L 389.248988 218.0899 
L 410.162031 215.519884 
" clip-path="url(#p72fc785860)" style="fill: #e6482f"/>
    <path d="M 364.121998 216.241798 
L 364.404053 218.93815 
L 359.105278 219.490415 
L 358.825634 216.797673 
L 364.121998 216.241798 
" clip-path="url(#p72fc785860)" style="fill: #e6482f"/>
    <path d="M 379.861624 214.866551 
L 380.097875 216.573879 
L 376.881967 217.021466 
L 376.645716 215.314138 
L 379.861624 214.866551 
" clip-path="url(#p72fc785860)" style="fill: #e6482f"/>
    <path d="M 333.218909 220.609383 
L 333.537125 223.468166 
L 328.252814 224.056526 
L 327.934599 221.194134 
L 333.218909 220.609383 
" clip-path="url(#p72fc785860)" style="fill: #e6482f"/>
    <path d="M 352.895249 220.80069 
L 348.758445 221.082237 
L 348.555944 218.09712 
L 352.695159 217.819182 
L 352.895249 220.80069 
" clip-path="url(#p72fc785860)" style="fill: #e6482f"/>
    <path d="M 320.615636 203.463907 
L 320.704833 205.492487 
L 318.188036 205.604384 
L 318.098839 203.575803 
L 320.615636 203.463907 
" clip-path="url(#p72fc785860)" style="fill: #e6482f"/>
    <path d="M 323.597704 203.828474 
L 323.416899 201.846818 
L 325.063425 201.698825 
L 325.244229 203.680481 
L 330.048805 203.243723 
L 330.309163 206.116944 
L 323.207166 206.759448 
L 322.946808 203.886227 
L 323.597704 203.828474 
" clip-path="url(#p72fc785860)" style="fill: #e6482f"/>
    <path d="M 341.492518 201.590538 
L 341.779395 204.53595 
L 335.533205 205.149578 
L 335.243918 202.200556 
L 341.492518 201.590538 
" clip-path="url(#p72fc785860)" style="fill: #e6482f"/>
    <path d="M 352.953107 199.857942 
L 353.273733 202.575951 
L 347.263795 203.287038 
L 346.943168 200.569028 
L 352.953107 199.857942 
" clip-path="url(#p72fc785860)" style="fill: #e6482f"/>
    <path d="M 327.059505 185.239168 
L 327.40665 188.130436 
L 320.642154 188.938981 
L 320.29501 186.051322 
L 327.059505 185.239168 
" clip-path="url(#p72fc785860)" style="fill: #e6482f"/>
    <path d="M 337.153213 183.791729 
L 337.483482 186.798504 
L 332.42578 187.357988 
L 332.0931 184.351213 
L 337.153213 183.791729 
" clip-path="url(#p72fc785860)" style="fill: #e6482f"/>
    <path d="M 349.623895 182.041085 
L 349.850503 185.246387 
L 344.315478 185.63983 
L 344.08887 182.430919 
L 349.623895 182.041085 
" clip-path="url(#p72fc785860)" style="fill: #e6482f"/>
    <path d="M 430.327749 226.579618 
L 430.925609 230.828087 
L 413.173027 233.318693 
L 412.577578 229.070224 
L 430.327749 226.579618 
" clip-path="url(#p72fc785860)" style="fill: #e6482f"/>
    <path d="M 452.475083 223.760541 
L 453.003032 227.897113 
L 435.014199 230.189192 
L 434.486251 226.052621 
L 452.475083 223.760541 
" clip-path="url(#p72fc785860)" style="fill: #e6482f"/>
    <path d="M 461.905841 226.536303 
L 457.593053 227.124664 
L 455.141346 209.177862 
L 459.456544 208.589502 
L 461.905841 226.536303 
" clip-path="url(#p72fc785860)" style="fill: #e6482f"/>
    <path d="M 421.314047 206.138601 
L 419.139573 190.761816 
L 422.348248 190.30701 
L 424.522722 205.683795 
L 421.314047 206.138601 
" clip-path="url(#p72fc785860)" style="fill: #e6482f"/>
    <path d="M 455.078667 179.250884 
L 455.630723 183.52823 
L 442.149947 185.264435 
L 441.59789 180.990699 
L 455.078667 179.250884 
" clip-path="url(#p72fc785860)" style="fill: #e6482f"/>
    <path d="M 432.162311 170.374942 
L 432.649278 174.12168 
L 412.247309 176.771107 
L 411.760342 173.02076 
L 432.162311 170.374942 
" clip-path="url(#p72fc785860)" style="fill: #e6482f"/>
    <path d="M 454.35786 171.353137 
L 439.654846 173.309526 
L 439.047343 168.754243 
L 453.752768 166.797854 
L 454.35786 171.353137 
" clip-path="url(#p72fc785860)" style="fill: #e6482f"/>
    <path d="M 379.172156 206.726962 
L 379.921892 213.527399 
L 377.055539 213.845041 
L 376.303393 207.044604 
L 379.172156 206.726962 
" clip-path="url(#p72fc785860)" style="fill: #e6482f"/>
    <path d="M 408.006843 201.734921 
L 408.537202 205.546631 
L 387.701303 208.43429 
L 387.173354 204.61897 
L 408.006843 201.734921 
" clip-path="url(#p72fc785860)" style="fill: #e6482f"/>
    <path d="M 363.39878 198.406894 
L 363.647085 201.106855 
L 358.476079 201.583319 
L 358.227774 198.883357 
L 363.39878 198.406894 
" clip-path="url(#p72fc785860)" style="fill: #e6482f"/>
    <path d="M 377.617238 196.652641 
L 378.063223 200.229728 
L 375.331871 200.572638 
L 374.883476 196.99555 
L 377.617238 196.652641 
" clip-path="url(#p72fc785860)" style="fill: #e6482f"/>
    <path d="M 406.078262 187.805575 
L 406.606211 191.563141 
L 385.770312 194.490506 
L 385.242363 190.732939 
L 406.078262 187.805575 
" clip-path="url(#p72fc785860)" style="fill: #e6482f"/>
    <path d="M 376.298572 185.672317 
L 377.192951 192.801225 
L 374.237401 193.173011 
L 373.343022 186.044103 
L 376.298572 185.672317 
" clip-path="url(#p72fc785860)" style="fill: #e6482f"/>
    <path d="M 361.667879 180.182155 
L 362.031899 183.340532 
L 355.966514 184.040789 
L 355.602494 180.882412 
L 361.667879 180.182155 
" clip-path="url(#p72fc785860)" style="fill: #e6482f"/>
    <path d="M 372.513733 178.341272 
L 375.389728 178.066944 
L 375.780266 182.174639 
L 372.90427 182.448967 
L 372.513733 178.341272 
" clip-path="url(#p72fc785860)" style="fill: #e6482f"/>
    <path d="M 404.299147 174.078365 
L 404.822275 177.922561 
L 383.909232 180.770515 
L 383.386104 176.922709 
L 404.299147 174.078365 
" clip-path="url(#p72fc785860)" style="fill: #e6482f"/>
   </g>
   <g id="LineCollection_1">
    <path d="M 77.469987 794.94105 
L 76.577905 787.987486 
" clip-path="url(#p72fc785860)" style="fill: none; stroke: #e6482f; stroke-width: 0.2"/>
    <path d="M 94.429326 785.045683 
L 95.368514 791.536466 
" clip-path="url(#p72fc785860)" style="fill: none; stroke: #e6482f; stroke-width: 0.2"/>
    <path d="M 128.201633 792.914202 
L 125.891703 779.865944 
" clip-path="url(#p72fc785860)" style="fill: none; stroke: #e6482f; stroke-width: 0.2"/>
    <path d="M 48.941349 794.89621 
L 56.600223 791.275808 
L 63.087485 790.207374 
L 76.577905 787.987486 
L 86.929559 786.280157 
L 94.429326 785.045683 
L 110.313596 782.432352 
L 125.891703 779.865944 
" clip-path="url(#p72fc785860)" style="fill: none; stroke: #e6482f; stroke-width: 0.2"/>
    <path d="M 63.087485 790.207374 
L 55.204413 737.294629 
L 52.841902 734.558572 
" clip-path="url(#p72fc785860)" style="fill: none; stroke: #e6482f; stroke-width: 0.2"/>
    <path d="M 123.237495 761.724226 
L 135.206746 760.258739 
" clip-path="url(#p72fc785860)" style="fill: none; stroke: #e6482f; stroke-width: 0.2"/>
    <path d="M 167.483949 755.580731 
L 157.775957 756.872958 
" clip-path="url(#p72fc785860)" style="fill: none; stroke: #e6482f; stroke-width: 0.2"/>
    <path d="M 120.947305 746.058675 
L 132.755038 744.138381 
" clip-path="url(#p72fc785860)" style="fill: none; stroke: #e6482f; stroke-width: 0.2"/>
    <path d="M 165.222688 739.727482 
L 154.106833 741.239893 
" clip-path="url(#p72fc785860)" style="fill: none; stroke: #e6482f; stroke-width: 0.2"/>
    <path d="M 118.579973 729.869735 
L 129.977883 728.314009 
" clip-path="url(#p72fc785860)" style="fill: none; stroke: #e6482f; stroke-width: 0.2"/>
    <path d="M 162.86982 723.238948 
L 151.339321 724.845208 
" clip-path="url(#p72fc785860)" style="fill: none; stroke: #e6482f; stroke-width: 0.2"/>
    <path d="M 82.84338 533.191269 
L 79.745598 536.992151 
L 77.467462 543.554356 
L 73.942982 553.300206 
L 62.595697 630.862731 
L 54.797001 693.921988 
L 52.841902 734.558572 
L 54.343784 770.780647 
L 56.600223 791.275808 
L 57.663907 798.70848 
" clip-path="url(#p72fc785860)" style="fill: none; stroke: #e6482f; stroke-width: 0.2"/>
    <path d="M 125.891703 779.865944 
L 123.237495 761.724226 
L 120.947305 746.058675 
L 118.579973 729.869735 
L 115.928175 711.746065 
L 113.15343 691.36641 
L 110.918688 674.971725 
L 108.751446 659.067942 
L 105.805539 639.605119 
" clip-path="url(#p72fc785860)" style="fill: none; stroke: #e6482f; stroke-width: 0.2"/>
    <path d="M 86.929559 786.280157 
L 64.724368 636.20851 
L 62.595697 630.862731 
" clip-path="url(#p72fc785860)" style="fill: none; stroke: #e6482f; stroke-width: 0.2"/>
    <path d="M 149.581902 632.071938 
L 152.602541 652.545442 
L 154.844515 668.875155 
L 156.929793 684.064242 
L 157.069615 684.934149 
L 160.136058 704.082939 
L 162.86982 723.238948 
L 165.222688 739.727482 
L 167.483949 755.580731 
L 170.649231 773.011363 
" clip-path="url(#p72fc785860)" style="fill: none; stroke: #e6482f; stroke-width: 0.2"/>
    <path d="M 113.15343 691.36641 
L 124.435625 689.604938 
" clip-path="url(#p72fc785860)" style="fill: none; stroke: #e6482f; stroke-width: 0.2"/>
    <path d="M 49.726266 800.218345 
L 48.941349 794.89621 
L 45.231242 753.100953 
L 46.373926 701.891928 
L 49.368047 671.224987 
L 66.448036 544.79605 
L 66.149107 539.702941 
L 61.70855 529.415655 
L 61.067297 526.647112 
L 61.486764 523.037538 
" clip-path="url(#p72fc785860)" style="fill: none; stroke: #e6482f; stroke-width: 0.2"/>
    <path d="M 157.069615 684.934149 
L 146.643227 686.634258 
" clip-path="url(#p72fc785860)" style="fill: none; stroke: #e6482f; stroke-width: 0.2"/>
    <path d="M 110.918688 674.971725 
L 121.983917 673.188595 
" clip-path="url(#p72fc785860)" style="fill: none; stroke: #e6482f; stroke-width: 0.2"/>
    <path d="M 154.844515 668.875155 
L 144.19152 670.661894 
" clip-path="url(#p72fc785860)" style="fill: none; stroke: #e6482f; stroke-width: 0.2"/>
    <path d="M 125.891703 779.865944 
L 170.649231 773.011363 
L 198.526859 768.434424 
L 226.01395 763.922456 
L 254.236313 759.980801 
L 289.792102 754.035833 
L 374.707493 739.164388 
" clip-path="url(#p72fc785860)" style="fill: none; stroke: #e6482f; stroke-width: 0.2"/>
    <path d="M 244.803144 690.09584 
L 254.236313 759.980801 
" clip-path="url(#p72fc785860)" style="fill: none; stroke: #e6482f; stroke-width: 0.2"/>
    <path d="M 289.792102 754.035833 
L 278.873926 685.363688 
" clip-path="url(#p72fc785860)" style="fill: none; stroke: #e6482f; stroke-width: 0.2"/>
    <path d="M 288.883258 683.620264 
L 278.873926 685.363688 
L 244.803144 690.09584 
L 215.963636 694.492301 
L 187.736453 698.599996 
L 160.136058 704.082939 
L 115.928175 711.746065 
" clip-path="url(#p72fc785860)" style="fill: none; stroke: #e6482f; stroke-width: 0.2"/>
    <path d="M 226.01395 763.922456 
L 215.963636 694.492301 
L 211.151828 659.746542 
L 206.393056 625.36535 
" clip-path="url(#p72fc785860)" style="fill: none; stroke: #e6482f; stroke-width: 0.2"/>
    <path d="M 198.526859 768.434424 
L 187.736453 698.599996 
L 177.322119 628.094188 
L 169.007527 571.644061 
" clip-path="url(#p72fc785860)" style="fill: none; stroke: #e6482f; stroke-width: 0.2"/>
    <path d="M 249.149682 653.819622 
L 251.589336 677.6392 
" clip-path="url(#p72fc785860)" style="fill: none; stroke: #e6482f; stroke-width: 0.2"/>
    <path d="M 288.883258 683.620264 
L 279.688751 615.460679 
" clip-path="url(#p72fc785860)" style="fill: none; stroke: #e6482f; stroke-width: 0.2"/>
    <path d="M 374.707493 739.164388 
L 376.517948 739.907961 
L 377.735194 741.62029 
" clip-path="url(#p72fc785860)" style="fill: none; stroke: #e6482f; stroke-width: 0.2"/>
    <path d="M 292.344968 769.018256 
L 289.792102 754.035833 
" clip-path="url(#p72fc785860)" style="fill: none; stroke: #e6482f; stroke-width: 0.2"/>
    <path d="M 354.92508 605.548789 
L 374.707493 739.164388 
" clip-path="url(#p72fc785860)" style="fill: none; stroke: #e6482f; stroke-width: 0.2"/>
    <path d="M 283.468769 582.970904 
L 340.282334 574.903506 
" clip-path="url(#p72fc785860)" style="fill: none; stroke: #e6482f; stroke-width: 0.2"/>
    <path d="M 344.706015 605.870041 
L 340.282334 574.903506 
L 336.372138 547.532107 
" clip-path="url(#p72fc785860)" style="fill: none; stroke: #e6482f; stroke-width: 0.2"/>
    <path d="M 169.007527 571.644061 
L 225.078589 563.724655 
L 279.327143 555.613943 
L 336.372138 547.532107 
L 345.672716 546.005257 
L 352.687927 545.059548 
L 413.112759 536.414619 
L 430.079444 534.136978 
L 503.770498 522.460006 
L 510.703745 521.102806 
" clip-path="url(#p72fc785860)" style="fill: none; stroke: #e6482f; stroke-width: 0.2"/>
    <path d="M 510.703745 521.102806 
L 518.585046 518.205883 
" clip-path="url(#p72fc785860)" style="fill: none; stroke: #e6482f; stroke-width: 0.2"/>
    <path d="M 424.611919 499.878511 
L 411.483109 501.975674 
L 402.84548 498.517702 
L 396.539022 499.730519 
L 393.515972 503.960939 
L 367.861033 507.072392 
" clip-path="url(#p72fc785860)" style="fill: none; stroke: #e6482f; stroke-width: 0.2"/>
    <path d="M 151.054855 491.720874 
L 214.430415 482.137455 
L 267.827982 474.362433 
L 334.51829 464.562439 
L 340.721086 463.674484 
L 417.963139 451.488563 
L 496.709484 438.533802 
" clip-path="url(#p72fc785860)" style="fill: none; stroke: #e6482f; stroke-width: 0.2"/>
    <path d="M 110.313596 782.432352 
L 77.645856 549.589564 
L 77.467462 543.554356 
" clip-path="url(#p72fc785860)" style="fill: none; stroke: #e6482f; stroke-width: 0.2"/>
    <path d="M 108.751446 659.067942 
L 119.086225 657.216231 
" clip-path="url(#p72fc785860)" style="fill: none; stroke: #e6482f; stroke-width: 0.2"/>
    <path d="M 152.602541 652.545442 
L 143.003032 654.245551 
" clip-path="url(#p72fc785860)" style="fill: none; stroke: #e6482f; stroke-width: 0.2"/>
    <path d="M 105.805539 639.605119 
L 97.469251 582.021586 
L 96.642372 544.435092 
" clip-path="url(#p72fc785860)" style="fill: none; stroke: #e6482f; stroke-width: 0.2"/>
    <path d="M 169.007527 571.644061 
L 165.700012 547.582641 
" clip-path="url(#p72fc785860)" style="fill: none; stroke: #e6482f; stroke-width: 0.2"/>
    <path d="M 71.857704 526.679598 
L 75.223077 522.044905 
L 77.858 516.731612 
L 87.754028 504.97162 
L 92.850301 501.603887 
L 106.499828 499.185473 
L 120.320517 492.706288 
L 132.152357 489.594835 
L 151.054855 491.720874 
" clip-path="url(#p72fc785860)" style="fill: none; stroke: #e6482f; stroke-width: 0.2"/>
    <path d="M 145.013577 573.965017 
L 145.539115 565.204581 
L 145.020809 529.361511 
L 149.256454 508.566756 
L 151.054855 491.720874 
L 157.043097 442.305806 
L 163.289286 380.899734 
L 172.078791 361.205899 
L 184.694117 346.807308 
L 185.53305 340.34978 
" clip-path="url(#p72fc785860)" style="fill: none; stroke: #e6482f; stroke-width: 0.2"/>
    <path d="M 31.708504 513.449469 
L 61.486764 523.037538 
L 71.857704 526.679598 
L 77.484337 529.70803 
L 82.84338 533.191269 
L 96.642372 544.435092 
L 112.755661 557.050553 
L 129.912793 570.88966 
L 137.371578 573.632936 
L 145.013577 573.965017 
L 169.007527 571.644061 
" clip-path="url(#p72fc785860)" style="fill: none; stroke: #e6482f; stroke-width: 0.2"/>
    <path d="M 176.488008 244.890987 
L 171.562896 270.28073 
L 162.93491 339.393243 
L 160.852043 355.01187 
L 137.530685 364.169359 
" clip-path="url(#p72fc785860)" style="fill: none; stroke: #e6482f; stroke-width: 0.2"/>
    <path d="M 211.151828 659.746542 
L 249.149682 653.819622 
L 246.478598 628.718644 
L 234.858902 629.996433 
L 233.706575 621.755776 
" clip-path="url(#p72fc785860)" style="fill: none; stroke: #e6482f; stroke-width: 0.2"/>
    <path d="M 105.805539 639.605119 
L 149.581902 632.071938 
L 177.322119 628.094188 
L 206.393056 625.36535 
L 233.706575 621.755776 
L 279.688751 615.460679 
L 288.008165 614.338102 
L 344.706015 605.870041 
L 353.208644 604.285438 
L 354.92508 605.548789 
" clip-path="url(#p72fc785860)" style="fill: none; stroke: #e6482f; stroke-width: 0.2"/>
    <path d="M 214.430415 482.137455 
L 219.150615 517.25861 
L 225.078589 563.724655 
L 233.706575 621.755776 
" clip-path="url(#p72fc785860)" style="fill: none; stroke: #e6482f; stroke-width: 0.2"/>
    <path d="M 219.150615 517.25861 
L 186.808323 521.572051 
" clip-path="url(#p72fc785860)" style="fill: none; stroke: #e6482f; stroke-width: 0.2"/>
    <path d="M 338.722595 498.575455 
L 272.967649 508.95298 
L 219.150615 517.25861 
" clip-path="url(#p72fc785860)" style="fill: none; stroke: #e6482f; stroke-width: 0.2"/>
    <path d="M 331.620598 401.784729 
L 325.791464 402.604102 
L 258.855263 411.985385 
L 225.358233 416.024498 
" clip-path="url(#p72fc785860)" style="fill: none; stroke: #e6482f; stroke-width: 0.2"/>
    <path d="M 256.191411 393.803961 
L 323.260202 385.545256 
L 329.079693 384.671739 
" clip-path="url(#p72fc785860)" style="fill: none; stroke: #e6482f; stroke-width: 0.2"/>
    <path d="M 221.240714 140.234999 
L 224.531354 168.44382 
L 229.572181 195.916287 
L 232.930322 222.183157 
L 239.0391 263.700477 
L 243.605014 298.608667 
L 248.040748 332.524224 
L 256.191411 393.803961 
L 258.855263 411.985385 
L 267.827982 474.362433 
L 272.967649 508.95298 
L 279.327143 555.613943 
L 283.468769 582.970904 
L 288.008165 614.338102 
" clip-path="url(#p72fc785860)" style="fill: none; stroke: #e6482f; stroke-width: 0.2"/>
    <path d="M 162.93491 339.393243 
L 185.53305 340.34978 
L 248.040748 332.524224 
" clip-path="url(#p72fc785860)" style="fill: none; stroke: #e6482f; stroke-width: 0.2"/>
    <path d="M 243.605014 298.608667 
L 255.236764 297.417507 
L 257.112308 307.762546 
L 271.918983 305.308036 
L 286.66298 302.398719 
" clip-path="url(#p72fc785860)" style="fill: none; stroke: #e6482f; stroke-width: 0.2"/>
    <path d="M 314.01507 322.633991 
L 323.260202 385.545256 
L 325.791464 402.604102 
L 334.51829 464.562439 
L 338.722595 498.575455 
L 345.672716 546.005257 
" clip-path="url(#p72fc785860)" style="fill: none; stroke: #e6482f; stroke-width: 0.2"/>
    <path d="M 352.687927 545.059548 
L 340.721086 463.674484 
L 331.620598 401.784729 
L 330.280235 392.663336 
L 329.079693 384.671739 
L 320.439653 321.71355 
" clip-path="url(#p72fc785860)" style="fill: none; stroke: #e6482f; stroke-width: 0.2"/>
    <path d="M 346.861204 413.024942 
L 410.861142 403.47401 
" clip-path="url(#p72fc785860)" style="fill: none; stroke: #e6482f; stroke-width: 0.2"/>
    <path d="M 330.280235 392.663336 
L 347.205938 390.353208 
L 407.69827 382.098113 
L 486.649527 368.894291 
" clip-path="url(#p72fc785860)" style="fill: none; stroke: #e6482f; stroke-width: 0.2"/>
    <path d="M 338.520094 330.134686 
L 347.205938 390.353208 
" clip-path="url(#p72fc785860)" style="fill: none; stroke: #e6482f; stroke-width: 0.2"/>
    <path d="M 510.703745 521.102806 
L 496.709484 438.533802 
L 491.364906 401.275779 
L 486.649527 368.894291 
L 476.514837 299.276438 
L 466.811667 232.629264 
L 457.351981 163.27852 
" clip-path="url(#p72fc785860)" style="fill: none; stroke: #e6482f; stroke-width: 0.2"/>
    <path d="M 369.603987 116.891885 
L 373.181504 145.14402 
L 377.831793 174.294939 
L 381.862526 201.211532 
L 387.920679 243.660122 
L 397.146525 311.992967 
L 407.69827 382.098113 
L 410.861142 403.47401 
L 417.963139 451.488563 
L 420.542615 469.258495 
L 424.611919 499.878511 
L 428.500419 524.19982 
L 430.079444 534.136978 
" clip-path="url(#p72fc785860)" style="fill: none; stroke: #e6482f; stroke-width: 0.2"/>
    <path d="M 248.040748 332.524224 
L 302.716 324.182498 
L 314.01507 322.633991 
L 320.439653 321.71355 
L 335.511509 319.616387 
L 363.914675 316.104272 
L 397.146525 311.992967 
L 476.514837 299.276438 
" clip-path="url(#p72fc785860)" style="fill: none; stroke: #e6482f; stroke-width: 0.2"/>
    <path d="M 358.565276 289.465616 
L 360.37573 302.13883 
L 363.914675 316.104272 
" clip-path="url(#p72fc785860)" style="fill: none; stroke: #e6482f; stroke-width: 0.2"/>
    <path d="M 326.396556 252.131792 
L 335.511509 319.616387 
" clip-path="url(#p72fc785860)" style="fill: none; stroke: #e6482f; stroke-width: 0.2"/>
    <path d="M 185.53305 340.34978 
L 195.653275 258.885305 
" clip-path="url(#p72fc785860)" style="fill: none; stroke: #e6482f; stroke-width: 0.2"/>
    <path d="M 269.204507 287.592247 
L 271.918983 305.308036 
" clip-path="url(#p72fc785860)" style="fill: none; stroke: #e6482f; stroke-width: 0.2"/>
    <path d="M 282.719033 275.760064 
L 286.66298 302.398719 
L 287.501912 309.119746 
" clip-path="url(#p72fc785860)" style="fill: none; stroke: #e6482f; stroke-width: 0.2"/>
    <path d="M 293.858995 256.614883 
L 302.716 324.182498 
" clip-path="url(#p72fc785860)" style="fill: none; stroke: #e6482f; stroke-width: 0.2"/>
    <path d="M 195.653275 258.885305 
L 239.0391 263.700477 
" clip-path="url(#p72fc785860)" style="fill: none; stroke: #e6482f; stroke-width: 0.2"/>
    <path d="M 232.930322 222.183157 
L 273.083364 218.486953 
L 299.661611 214.848503 
" clip-path="url(#p72fc785860)" style="fill: none; stroke: #e6482f; stroke-width: 0.2"/>
    <path d="M 301.554031 184.979278 
L 297.412404 156.062981 
L 294.179622 129.038101 
" clip-path="url(#p72fc785860)" style="fill: none; stroke: #e6482f; stroke-width: 0.2"/>
    <path d="M 373.181504 145.14402 
L 297.412404 156.062981 
L 224.531354 168.44382 
" clip-path="url(#p72fc785860)" style="fill: none; stroke: #e6482f; stroke-width: 0.2"/>
    <path d="M 229.572181 195.916287 
L 174.839072 202.543465 
L 145.517419 189.278281 
L 130.158687 172.991883 
L 134.579958 126.457256 
L 131.204942 112.845552 
L 122.246686 104.586847 
" clip-path="url(#p72fc785860)" style="fill: none; stroke: #e6482f; stroke-width: 0.2"/>
    <path d="M 339.877332 278.344519 
L 380.743949 272.074689 
" clip-path="url(#p72fc785860)" style="fill: none; stroke: #e6482f; stroke-width: 0.2"/>
    <path d="M 376.869914 245.179753 
L 380.743949 272.074689 
L 384.818075 300.326824 
" clip-path="url(#p72fc785860)" style="fill: none; stroke: #e6482f; stroke-width: 0.2"/>
    <path d="M 239.0391 263.700477 
L 293.858995 256.614883 
L 305.411191 255.023061 
L 312.436045 254.055695 
L 326.396556 252.131792 
L 376.869914 245.179753 
L 387.920679 243.660122 
L 466.811667 232.629264 
" clip-path="url(#p72fc785860)" style="fill: none; stroke: #e6482f; stroke-width: 0.2"/>
    <path d="M 295.519985 185.89611 
L 299.661611 214.848503 
L 305.411191 255.023061 
" clip-path="url(#p72fc785860)" style="fill: none; stroke: #e6482f; stroke-width: 0.2"/>
    <path d="M 312.436045 254.055695 
L 305.881283 212.477013 
L 301.554031 184.979278 
" clip-path="url(#p72fc785860)" style="fill: none; stroke: #e6482f; stroke-width: 0.2"/>
    <path d="M 479.143934 230.857832 
L 466.811667 232.629264 
" clip-path="url(#p72fc785860)" style="fill: none; stroke: #e6482f; stroke-width: 0.2"/>
    <path d="M 305.881283 212.477013 
L 381.862526 201.211532 
" clip-path="url(#p72fc785860)" style="fill: none; stroke: #e6482f; stroke-width: 0.2"/>
    <path d="M 229.572181 195.916287 
L 295.519985 185.89611 
L 301.554031 184.979278 
L 377.831793 174.294939 
L 457.351981 163.27852 
" clip-path="url(#p72fc785860)" style="fill: none; stroke: #e6482f; stroke-width: 0.2"/>
    <path d="M 294.179622 129.038101 
L 369.603987 116.891885 
L 450.377752 103.680844 
" clip-path="url(#p72fc785860)" style="fill: none; stroke: #e6482f; stroke-width: 0.2"/>
   </g>
  </g>
 </g>
 <defs>
  <clipPath id="p72fc785860">
   <rect x="7.2" y="7.2" width="536.185587" height="831.6"/>
  </clipPath>
 </defs>
</svg>
