<?xml version="1.0" encoding="utf-8" standalone="no"?>
<!DOCTYPE svg PUBLIC "-//W3C//DTD SVG 1.1//EN"
  "http://www.w3.org/Graphics/SVG/1.1/DTD/svg11.dtd">
<svg xmlns:xlink="http://www.w3.org/1999/xlink" width="414.349029pt" height="846pt" viewBox="0 0 414.349029 846" xmlns="http://www.w3.org/2000/svg" version="1.1">
 <metadata>
  <rdf:RDF xmlns:dc="http://purl.org/dc/elements/1.1/" xmlns:cc="http://creativecommons.org/ns#" xmlns:rdf="http://www.w3.org/1999/02/22-rdf-syntax-ns#">
   <cc:Work>
    <dc:type rdf:resource="http://purl.org/dc/dcmitype/StillImage"/>
    <dc:date>2025-03-16T14:37:54.710998</dc:date>
    <dc:format>image/svg+xml</dc:format>
    <dc:creator>
     <cc:Agent>
      <dc:title>Matplotlib v3.10.1, https://matplotlib.org/</dc:title>
     </cc:Agent>
    </dc:creator>
   </cc:Work>
  </rdf:RDF>
 </metadata>
 <defs>
  <style type="text/css">*{stroke-linejoin: round; stroke-linecap: butt}</style>
 </defs>
 <g id="figure_1">
  <g id="patch_1">
   <path d="M 0 846 
L 414.349029 846 
L 414.349029 0 
L 0 0 
z
" style="fill: #ffffff"/>
  </g>
  <g id="axes_1">
   <g id="PatchCollection_1">
    <path d="M 138.053799 604.986838 
L 138.96441 595.844532 
L 150.473206 586.56388 
L 154.497951 583.605291 
L 158.104103 567.640843 
L 177.98393 553.76175 
L 197.69075 535.803332 
L 210.243499 535.937871 
L 224.955888 537.153799 
L 236.312775 540.442389 
L 245.234054 535.178868 
L 306.082057 559.167425 
L 311.905237 580.998281 
L 320.935384 587.369845 
L 336.548256 598.386811 
L 337.982952 618.059966 
L 338.654728 618.436929 
L 340.848969 622.150713 
L 340.852345 681.140986 
L 327.855684 724.802698 
L 347.681499 761.423958 
L 349.311146 781.358576 
L 352.299534 792.640813 
L 354.109783 794.815014 
L 353.951966 798.984454 
L 361.670633 801 
L 362.598966 798.984454 
L 362.756782 798.236874 
L 362.779568 797.57941 
L 362.598966 796.967638 
L 362.055469 796.627483 
L 361.353312 796.310174 
L 360.403036 795.925595 
L 359.927899 795.495324 
L 359.451917 794.860706 
L 359.407188 794.317473 
L 359.882326 792.935276 
L 360.403036 791.734579 
L 361.308583 790.149303 
L 361.693419 789.400454 
L 362.440305 788.291142 
L 363.504512 786.863252 
L 363.820989 785.640978 
L 364.274184 784.01001 
L 363.934077 782.106156 
L 363.345852 781.199921 
L 362.168557 780.33938 
L 361.127136 779.478838 
L 360.448609 778.639873 
L 360.244376 777.530561 
L 360.448609 776.35271 
L 360.765086 775.310667 
L 361.082407 774.743319 
L 362.961015 774.268625 
L 364.658177 773.974162 
L 365.699597 773.838354 
L 366.175579 773.406814 
L 366.62793 772.274655 
L 367.420389 771.119651 
L 368.054187 769.035565 
L 368.031401 767.69906 
L 367.736866 766.068092 
L 368.167275 764.957511 
L 369.140337 763.825352 
L 370.499079 762.986388 
L 372.151511 761.468382 
L 372.852825 760.246108 
L 372.762523 759.022564 
L 372.852825 757.686059 
L 373.214874 757.11998 
L 373.576924 756.825517 
L 373.917032 755.692089 
L 374.210722 754.242622 
L 374.233509 751.931344 
L 373.894245 749.802835 
L 373.848673 748.330522 
L 373.44105 747.106978 
L 372.422416 745.54328 
L 372.083152 744.139505 
L 371.585228 743.143155 
L 369.751349 740.265797 
L 367.510691 736.460629 
L 366.189082 735.42874 
L 368.732714 733.243116 
L 373.079 731.250416 
L 381.499824 727.625478 
L 385.891682 722.370842 
L 388.969528 718.564404 
L 388.969528 706.69578 
L 384.261192 700.53364 
L 378.194959 674.622191 
L 372.943126 648.529241 
L 373.305176 639.559552 
L 375.388017 625.699497 
L 373.305176 613.922258 
L 373.396321 605.134069 
L 376.745915 601.148668 
L 380.911598 593.991448 
L 377.832909 579.316543 
L 369.883847 561.325126 
L 355.830575 554.766984 
L 339.170374 549.785234 
L 324.50187 534.567097 
L 318.525938 515.54506 
L 315.266646 480.220958 
L 312.187956 469.895725 
L 315.718997 466.181941 
L 327.127365 465.095475 
L 337.811633 465.095475 
L 352.208388 458.574141 
L 337.982952 421.963034 
L 301.777969 432.751539 
L 229.368001 299.86255 
L 187.339838 299.86255 
L 187.339838 260.643163 
L 184.386051 249.854659 
L 251.057234 219.266076 
L 243.799358 177.888989 
L 239.247995 177.451103 
L 229.29711 136.678171 
L 201.646292 139.407028 
L 198.839351 134.90378 
L 197.467106 112.523345 
L 125.057139 45 
L 39.566116 95.134814 
L 43.870205 149.58503 
L 36.61233 169.131262 
L 25.379501 239.386002 
L 50.34153 258.853541 
L 75.209881 257.711229 
L 112.582032 323.229181 
L 120.093933 415.998895 
L 86.800539 441.758036 
L 32.308241 421.963034 
L 30.873544 467.655523 
L 70.95474 491.429579 
L 64.883443 541.611355 
L 87.556708 574.258639 
L 138.053799 604.986838 
" clip-path="url(#pa2e5de98a3)" style="fill: #f29888"/>
   </g>
   <g id="PatchCollection_2">
    <path d="M 137.712004 479.464493 
L 137.653772 481.384847 
L 139.479212 481.439424 
L 139.430264 483.056431 
L 135.946484 482.952353 
L 136.05282 479.413724 
L 137.712004 479.464493 
" clip-path="url(#pa2e5de98a3)" style="fill: #f29888"/>
    <path d="M 113.664806 478.351373 
L 113.616701 479.470839 
L 113.57366 480.496382 
L 108.612143 480.286958 
L 108.703288 478.14068 
L 113.664806 478.351373 
" clip-path="url(#pa2e5de98a3)" style="fill: #f29888"/>
    <path d="M 138.274911 474.798782 
L 138.183766 477.587294 
L 136.157468 477.520024 
L 136.24777 474.732782 
L 138.274911 474.798782 
" clip-path="url(#pa2e5de98a3)" style="fill: #f29888"/>
    <path d="M 136.465506 469.214145 
L 140.268295 469.4553 
L 140.159427 471.170037 
L 138.106968 471.039306 
L 137.987972 472.922852 
L 136.236799 472.811159 
L 136.465506 469.214145 
" clip-path="url(#pa2e5de98a3)" style="fill: #f29888"/>
    <path d="M 128.090255 468.269833 
L 127.864924 471.960771 
L 126.096871 471.852886 
L 126.22515 469.735801 
L 124.358357 469.622839 
L 124.453722 468.047717 
L 128.090255 468.269833 
" clip-path="url(#pa2e5de98a3)" style="fill: #f29888"/>
    <path d="M 157.902401 291.029938 
L 158.079628 291.417055 
L 157.754712 291.565555 
L 157.577485 291.178438 
L 157.902401 291.029938 
" clip-path="url(#pa2e5de98a3)" style="fill: #f29888"/>
    <path d="M 157.811256 286.366765 
L 158.094819 286.982345 
L 157.66441 287.180346 
L 157.381691 286.564766 
L 157.811256 286.366765 
" clip-path="url(#pa2e5de98a3)" style="fill: #f29888"/>
    <path d="M 119.100617 63.125957 
L 114.66403 60.908602 
L 115.071652 59.867828 
L 122.360753 63.487689 
L 121.455207 65.796429 
L 120.051736 65.071695 
L 119.689686 65.840852 
L 118.150342 65.117388 
L 118.42209 64.574155 
L 119.100617 63.125957 
" clip-path="url(#pa2e5de98a3)" style="fill: #f29888"/>
   </g>
   <g id="LineCollection_1">
    <path d="M 350.133142 715.13239 
L 351.13743 726.31055 
L 354.12413 734.978161 
L 354.721639 744.781738 
L 353.945215 750.999725 
L 348.568479 761.401112 
L 351.436184 784.35778 
L 354.841478 793.266546 
L 354.703852 799.180791 
" clip-path="url(#pa2e5de98a3)" style="fill: none; stroke: #f29888; stroke-width: 0.2"/>
    <path d="M 388.969528 708.770105 
L 388.268215 707.284705 
L 385.981984 704.129385 
L 384.030797 702.473032 
L 381.844151 700.895372 
" clip-path="url(#pa2e5de98a3)" style="fill: none; stroke: #f29888; stroke-width: 0.2"/>
    <path d="M 102.210021 535.576139 
L 107.413749 533.374015 
L 133.196086 534.492212 
" clip-path="url(#pa2e5de98a3)" style="fill: none; stroke: #f29888; stroke-width: 0.2"/>
    <path d="M 95.628141 522.81905 
L 102.210021 535.576139 
L 105.853306 542.638167 
L 108.322672 543.582479 
L 124.446971 544.017826 
L 135.124487 544.672752 
L 140.28855 544.205673 
" clip-path="url(#pa2e5de98a3)" style="fill: none; stroke: #f29888; stroke-width: 0.2"/>
    <path d="M 129.950297 503.129395 
L 142.595879 503.981052 
L 146.148018 500.146691 
L 148.526239 497.804951 
L 155.449914 490.982808 
L 156.037296 488.662645 
" clip-path="url(#pa2e5de98a3)" style="fill: none; stroke: #f29888; stroke-width: 0.2"/>
    <path d="M 130.48873 494.121628 
L 144.559725 494.723246 
L 145.821414 495.003747 
L 148.526239 497.804951 
" clip-path="url(#pa2e5de98a3)" style="fill: none; stroke: #f29888; stroke-width: 0.2"/>
    <path d="M 88.621759 481.160192 
L 110.740557 482.346928 
L 131.12928 483.421971 
L 155.348642 484.731822 
" clip-path="url(#pa2e5de98a3)" style="fill: none; stroke: #f29888; stroke-width: 0.2"/>
    <path d="M 156.17317 468.650604 
L 155.719131 477.512409 
L 155.348642 484.731822 
L 155.214455 487.357871 
L 156.037296 488.662645 
L 159.262831 489.623457 
" clip-path="url(#pa2e5de98a3)" style="fill: none; stroke: #f29888; stroke-width: 0.2"/>
    <path d="M 132.09137 467.339484 
L 156.17317 468.650604 
L 198.859605 470.975844 
" clip-path="url(#pa2e5de98a3)" style="fill: none; stroke: #f29888; stroke-width: 0.2"/>
    <path d="M 92.023678 522.60328 
L 95.628141 522.81905 
L 129.142647 524.747019 
" clip-path="url(#pa2e5de98a3)" style="fill: none; stroke: #f29888; stroke-width: 0.2"/>
    <path d="M 92.205968 498.250452 
L 109.543008 499.216341 
L 130.115709 500.361192 
" clip-path="url(#pa2e5de98a3)" style="fill: none; stroke: #f29888; stroke-width: 0.2"/>
    <path d="M 109.543008 499.216341 
L 110.740557 482.346928 
" clip-path="url(#pa2e5de98a3)" style="fill: none; stroke: #f29888; stroke-width: 0.2"/>
    <path d="M 88.621759 481.160192 
L 93.176498 465.341706 
" clip-path="url(#pa2e5de98a3)" style="fill: none; stroke: #f29888; stroke-width: 0.2"/>
    <path d="M 28.837137 242.082564 
L 31.217028 238.903693 
L 32.561422 237.653495 
L 33.463593 236.81453 
L 35.630829 235.434871 
L 37.365123 235.041408 
L 39.690175 234.962715 
L 42.291195 235.86895 
L 45.483817 237.996189 
L 72.917474 257.816529 
" clip-path="url(#pa2e5de98a3)" style="fill: none; stroke: #f29888; stroke-width: 0.2"/>
    <path d="M 76.919036 260.707588 
L 78.43204 261.800706 
L 81.900629 264.0866 
L 83.831562 264.835449 
L 86.630063 265.426913 
L 89.152597 264.992835 
L 91.399163 264.125946 
L 95.536996 261.958092 
L 97.515189 260.874164 
L 111.817423 253.04171 
L 114.654746 251.099779 
L 115.868331 250.234161 
L 129.645635 240.403929 
L 135.010555 236.575914 
L 137.788803 234.754561 
L 141.861652 231.84928 
" clip-path="url(#pa2e5de98a3)" style="fill: none; stroke: #f29888; stroke-width: 0.2"/>
    <path d="M 29.873955 211.275838 
L 30.205145 212.503588 
L 28.803362 218.710151 
L 28.398899 220.501442 
" clip-path="url(#pa2e5de98a3)" style="fill: none; stroke: #f29888; stroke-width: 0.2"/>
    <path d="M 97.515189 260.874164 
L 81.356288 244.229406 
L 68.192528 230.277966 
L 63.00821 222.718398 
" clip-path="url(#pa2e5de98a3)" style="fill: none; stroke: #f29888; stroke-width: 0.2"/>
    <path d="M 115.868331 250.234161 
L 94.677866 230.120581 
" clip-path="url(#pa2e5de98a3)" style="fill: none; stroke: #f29888; stroke-width: 0.2"/>
    <path d="M 354.721639 744.781738 
L 357.547991 744.21439 
L 364.610916 744.441583 
L 366.941876 744.078582 
L 368.504007 743.263732 
L 368.866057 742.063035 
L 368.594308 740.250567 
L 366.692914 737.396055 
L 362.23354 733.793964 
L 357.390174 732.344497 
L 355.805256 730.985145 
L 353.134189 726.319434 
L 352.205857 726.069395 
L 351.13743 726.31055 
" clip-path="url(#pa2e5de98a3)" style="fill: none; stroke: #f29888; stroke-width: 0.2"/>
    <path d="M 380.730995 713.82 
L 380.278644 709.969139 
L 380.346159 707.499206 
L 380.617907 706.48001 
L 381.726843 703.739729 
L 381.953019 702.448917 
L 381.844151 700.895372 
" clip-path="url(#pa2e5de98a3)" style="fill: none; stroke: #f29888; stroke-width: 0.2"/>
    <path d="M 378.867578 699.638829 
L 379.567203 699.648982 
L 380.276956 699.83556 
L 381.114144 700.279793 
L 381.844151 700.895372 
L 380.621283 696.326123 
" clip-path="url(#pa2e5de98a3)" style="fill: none; stroke: #f29888; stroke-width: 0.2"/>
    <path d="M 374.298492 676.61616 
L 377.554254 671.438946 
" clip-path="url(#pa2e5de98a3)" style="fill: none; stroke: #f29888; stroke-width: 0.2"/>
    <path d="M 350.133142 715.13239 
L 351.563619 712.555841 
L 353.071738 711.515068 
L 359.676405 711.021335 
L 361.964323 709.48556 
L 364.798271 704.567271 
L 367.892995 701.419566 
L 378.867578 699.638829 
L 380.244042 698.37467 
L 380.621283 696.326123 
L 375.745004 680.864293 
L 374.298492 676.61616 
L 367.623778 670.330905 
L 365.535029 664.336304 
L 369.318408 659.327899 
L 370.973372 653.057874 
L 364.588974 643.553837 
L 363.170312 636.179577 
L 360.489962 631.013787 
L 359.662058 614.569568 
L 364.431157 600.571166 
L 362.224257 593.078867 
L 362.539046 585.469799 
L 359.741388 577.741422 
L 356.036496 573.206442 
L 346.617292 568.158691 
L 330.300575 565.281334 
L 326.241229 565.399373 
L 320.68389 564.847255 
" clip-path="url(#pa2e5de98a3)" style="fill: none; stroke: #f29888; stroke-width: 0.2"/>
    <path d="M 155.719131 477.512409 
L 194.482938 479.33757 
L 202.387271 478.795606 
L 217.437235 480.312343 
L 222.851104 479.987418 
L 225.990557 482.261889 
L 229.672663 482.911738 
L 232.379175 481.82781 
L 264.536628 456.917788 
L 268.0702 455.131974 
L 271.691543 453.479429 
L 273.956675 453.77643 
L 278.071722 455.401052 
L 284.676388 453.234466 
L 291.281055 452.476732 
L 293.987567 451.28492 
" clip-path="url(#pa2e5de98a3)" style="fill: none; stroke: #f29888; stroke-width: 0.2"/>
    <path d="M 158.104103 567.640843 
L 142.353669 546.883761 
L 140.28855 544.205673 
L 133.196086 534.492212 
L 130.514892 529.049729 
L 129.142647 524.747019 
L 128.843049 521.622161 
L 129.950297 503.129395 
L 130.115709 500.361192 
L 130.48873 494.121628 
L 131.12928 483.421971 
L 132.09137 467.339484 
L 136.811521 388.483132 
L 139.346714 375.623235 
L 150.275724 343.196799 
L 161.0773 311.148595 
L 160.859563 295.863188 
L 144.959752 261.52909 
L 141.861652 231.84928 
L 141.512261 229.996196 
L 140.141705 224.983983 
L 137.375272 218.222764 
L 132.388437 208.066339 
L 127.087656 197.107757 
L 124.67821 192.71874 
L 120.508307 183.058586 
L 120.114188 181.94039 
L 105.040593 139.181105 
L 107.028069 135.540936 
L 114.939998 127.735136 
L 120.164824 120.787339 
L 127.612586 111.010416 
L 133.366562 104.346928 
L 136.176879 103.042153 
L 159.587747 99.808141 
L 182.002898 98.102746 
" clip-path="url(#pa2e5de98a3)" style="fill: none; stroke: #f29888; stroke-width: 0.2"/>
    <path d="M 129.645635 240.403929 
L 126.128097 236.978262 
L 103.190679 221.13566 
" clip-path="url(#pa2e5de98a3)" style="fill: none; stroke: #f29888; stroke-width: 0.2"/>
    <path d="M 120.114188 181.94039 
L 113.437786 188.899609 
L 110.127013 195.834714 
L 106.422121 201.825507 
L 103.778904 207.124566 
" clip-path="url(#pa2e5de98a3)" style="fill: none; stroke: #f29888; stroke-width: 0.2"/>
    <path d="M 25.978008 235.642695 
L 32.561422 237.653495 
" clip-path="url(#pa2e5de98a3)" style="fill: none; stroke: #f29888; stroke-width: 0.2"/>
    <path d="M 63.00821 222.718398 
L 62.531385 209.015728 
L 61.635965 201.585621 
L 46.26446 192.80251 
" clip-path="url(#pa2e5de98a3)" style="fill: none; stroke: #f29888; stroke-width: 0.2"/>
    <path d="M 62.531385 209.015728 
L 67.789125 209.37746 
L 70.821398 209.585615 
L 86.846112 209.725231 
L 95.950526 208.883727 
L 99.666389 208.541034 
L 103.778904 207.124566 
L 116.248947 202.828203 
L 120.986821 200.737772 
L 127.087656 197.107757 
" clip-path="url(#pa2e5de98a3)" style="fill: none; stroke: #f29888; stroke-width: 0.2"/>
    <path d="M 67.789125 209.37746 
L 70.793548 202.140277 
L 72.370026 197.332412 
L 74.340623 190.002575 
L 77.09946 182.436661 
L 80.804352 179.521226 
L 85.297484 178.180913 
L 89.790615 177.47141 
L 93.495507 177.944835 
L 94.440719 180.702885 
L 95.702408 182.831393 
L 96.254344 183.934359 
L 95.938711 186.535023 
L 94.992655 189.84519 
L 95.150472 196.938949 
L 95.950526 208.883727 
" clip-path="url(#pa2e5de98a3)" style="fill: none; stroke: #f29888; stroke-width: 0.2"/>
    <path d="M 54.051485 155.871555 
L 65.412593 146.863789 
" clip-path="url(#pa2e5de98a3)" style="fill: none; stroke: #f29888; stroke-width: 0.2"/>
    <path d="M 42.402306 131.014909 
L 43.276072 131.21665 
L 44.605276 131.522536 
L 52.034471 136.835557 
L 60.348958 142.147309 
L 65.412593 146.863789 
L 73.66716 155.009744 
L 80.803508 150.755266 
L 90.410066 147.668484 
L 99.193783 145.746861 
L 100.927234 144.50301 
L 102.371214 142.583926 
L 105.040593 139.181105 
" clip-path="url(#pa2e5de98a3)" style="fill: none; stroke: #f29888; stroke-width: 0.2"/>
    <path d="M 42.350972 130.365495 
L 43.276072 131.21665 
" clip-path="url(#pa2e5de98a3)" style="fill: none; stroke: #f29888; stroke-width: 0.2"/>
    <path d="M 114.347552 71.589221 
L 111.359164 69.054557 
L 110.544763 66.97301 
L 111.087416 64.800079 
L 112.717906 61.270334 
L 115.433702 55.296041 
L 115.524003 52.671261 
L 114.485372 51.19964 
" clip-path="url(#pa2e5de98a3)" style="fill: none; stroke: #f29888; stroke-width: 0.2"/>
   </g>
  </g>
 </g>
 <defs>
  <clipPath id="pa2e5de98a3">
   <rect x="7.2" y="7.2" width="399.949029" height="831.6"/>
  </clipPath>
 </defs>
</svg>
