<?xml version="1.0" encoding="utf-8" standalone="no"?>
<!DOCTYPE svg PUBLIC "-//W3C//DTD SVG 1.1//EN"
  "http://www.w3.org/Graphics/SVG/1.1/DTD/svg11.dtd">
<svg xmlns:xlink="http://www.w3.org/1999/xlink" width="851.4pt" height="753.24717pt" viewBox="0 0 851.4 753.24717" xmlns="http://www.w3.org/2000/svg" version="1.1">
 <metadata>
  <rdf:RDF xmlns:dc="http://purl.org/dc/elements/1.1/" xmlns:cc="http://creativecommons.org/ns#" xmlns:rdf="http://www.w3.org/1999/02/22-rdf-syntax-ns#">
   <cc:Work>
    <dc:type rdf:resource="http://purl.org/dc/dcmitype/StillImage"/>
    <dc:date>2025-03-16T14:38:40.255174</dc:date>
    <dc:format>image/svg+xml</dc:format>
    <dc:creator>
     <cc:Agent>
      <dc:title>Matplotlib v3.10.1, https://matplotlib.org/</dc:title>
     </cc:Agent>
    </dc:creator>
   </cc:Work>
  </rdf:RDF>
 </metadata>
 <defs>
  <style type="text/css">*{stroke-linejoin: round; stroke-linecap: butt}</style>
 </defs>
 <g id="figure_1">
  <g id="patch_1">
   <path d="M 0 753.24717 
L 851.4 753.24717 
L 851.4 0 
L 0 0 
z
" style="fill: #ffffff"/>
  </g>
  <g id="axes_1">
   <g id="PatchCollection_1">
    <path d="M 496.808002 123.424717 
L 489.990228 153.756035 
L 423.224799 139.860082 
L 415.768315 151.382662 
L 352.731128 135.452738 
L 218.52418 130.029629 
L 148.99101 62.322568 
L 87.18411 40.783962 
L 68.453515 162.526772 
L 184.576703 241.199696 
L 72.199634 284.28179 
L 45.245455 345.842987 
L 58.148031 356.132487 
L 93.545199 364.854389 
L 117.258701 341.833646 
L 130.858494 397.642099 
L 102.612269 519.387351 
L 136.787276 525.840874 
L 146.02987 489.734837 
L 207.232191 497.409232 
L 224.145796 548.8665 
L 225.016911 639.398965 
L 203.744481 669.056362 
L 167.659847 689.474208 
L 174.147703 696.733507 
L 220.979879 712.463208 
L 291.189137 677.951628 
L 297.902897 666.787984 
L 273.578315 599.278704 
L 293.368549 561.773548 
L 296.768498 538.574558 
L 304.793806 535.861783 
L 302.785041 503.340223 
L 320.221966 450.315356 
L 308.887721 416.480138 
L 318.478111 404.095623 
L 349.688726 404.967325 
L 364.858477 406.188196 
L 407.752758 434.27067 
L 474.012746 452.583734 
L 484.474251 434.966566 
L 526.845213 430.608057 
L 566.272912 453.662984 
L 571.010412 451.80726 
L 592.058563 449.966187 
L 602.346169 405.665663 
L 629.373483 413.340058 
L 679.764878 432.524824 
L 705.75043 454.534686 
L 806.154545 474.661964 
L 790.516733 420.596915 
L 607.907653 379.846684 
L 494.794361 349.644779 
L 529.781975 260.47969 
L 524.989218 195.287623 
L 542.723557 155.504322 
L 533.347695 128.493773 
L 510.815724 117.496168 
L 496.808002 123.424717 
" clip-path="url(#p7219bd98ba)" style="fill: #f29888"/>
   </g>
   <g id="PatchCollection_2">
    <path d="M 139.743541 92.431687 
L 138.043567 91.733349 
L 138.836671 89.801931 
L 140.536646 90.500269 
L 139.743541 92.431687 
" clip-path="url(#p7219bd98ba)" style="fill: #f29888"/>
    <path d="M 136.905917 84.119998 
L 136.294836 85.77794 
L 132.428451 84.351963 
L 133.039532 82.696462 
L 136.905917 84.119998 
" clip-path="url(#p7219bd98ba)" style="fill: #f29888"/>
    <path d="M 149.865376 81.43164 
L 149.116152 82.508448 
L 147.677837 81.504892 
L 148.427061 80.430526 
L 149.865376 81.43164 
" clip-path="url(#p7219bd98ba)" style="fill: #f29888"/>
    <path d="M 123.002208 68.136355 
L 122.231857 70.846689 
L 116.707753 69.27909 
L 117.47648 66.566315 
L 123.002208 68.136355 
" clip-path="url(#p7219bd98ba)" style="fill: #f29888"/>
   </g>
   <g id="LineCollection_1">
    <path d="M 186.414996 700.853769 
L 186.962518 699.714873 
L 191.583002 697.011865 
L 200.78009 692.780326 
L 202.523945 691.864673 
L 203.744481 689.989415 
L 203.482821 688.375424 
L 203.003383 687.110602 
L 203.1334 683.513916 
L 206.447212 671.671468 
L 210.10882 667.659686 
L 221.441439 660.419921 
L 224.145796 656.583944 
L 226.325208 652.569721 
L 229.201838 605.732228 
L 229.551259 561.251015 
L 207.851397 493.150834 
" clip-path="url(#p7219bd98ba)" style="fill: none; stroke: #f29888; stroke-width: 0.2"/>
    <path d="M 303.572823 516.094271 
L 299.830402 507.283636 
L 307.047978 477.687282 
L 318.593501 453.145334 
L 310.655954 435.09842 
L 293.336045 427.880631 
L 229.162833 420.482153 
" clip-path="url(#p7219bd98ba)" style="fill: none; stroke: #f29888; stroke-width: 0.2"/>
    <path d="M 215.450899 396.059851 
L 222.556336 364.444176 
L 229.998193 338.632523 
L 232.028086 331.590539 
L 239.235911 308.831063 
" clip-path="url(#p7219bd98ba)" style="fill: none; stroke: #f29888; stroke-width: 0.2"/>
    <path d="M 202.884742 331.961684 
L 229.998193 338.632523 
L 248.852304 344.045865 
" clip-path="url(#p7219bd98ba)" style="fill: none; stroke: #f29888; stroke-width: 0.2"/>
    <path d="M 125.105236 72.233598 
L 127.720205 78.68468 
L 130.684596 80.603889 
L 144.286015 83.568164 
L 153.526984 88.798375 
L 167.3023 93.159326 
L 170.79001 94.377755 
L 177.414384 97.867004 
L 180.378775 99.959577 
L 197.641801 114.082612 
L 208.278829 124.894646 
L 214.947083 129.995444 
L 223.622477 144.423697 
L 223.970273 156.456601 
L 221.704724 163.606022 
L 220.134767 173.370547 
L 216.473159 180.170799 
L 211.067696 184.182581 
L 196.769061 193.424574 
L 192.236338 198.308058 
L 190.841904 205.108309 
L 190.144687 214.001133 
L 186.656977 226.55657 
L 188.748628 233.532626 
L 192.759657 239.112006 
L 202.350047 242.950425 
L 230.422374 248.180636 
L 249.079834 249.577312 
L 277.327684 247.831467 
L 288.25075 249.963107 
" clip-path="url(#p7219bd98ba)" style="fill: none; stroke: #f29888; stroke-width: 0.2"/>
    <path d="M 231.244525 130.54364 
L 229.769038 131.389679 
L 225.584111 131.606994 
L 218.740333 131.477582 
L 214.947083 129.995444 
" clip-path="url(#p7219bd98ba)" style="fill: none; stroke: #f29888; stroke-width: 0.2"/>
    <path d="M 186.962518 699.714873 
L 183.474808 698.100882 
L 181.86097 696.880011 
L 178.331005 696.184115 
L 175.75829 696.706647 
L 175.558102 697.207223 
" clip-path="url(#p7219bd98ba)" style="fill: none; stroke: #f29888; stroke-width: 0.2"/>
    <path d="M 179.380857 682.842084 
L 195.200729 681.179611 
L 200.606192 683.186722 
L 201.979498 683.579843 
L 203.1334 683.513916 
" clip-path="url(#p7219bd98ba)" style="fill: none; stroke: #f29888; stroke-width: 0.2"/>
    <path d="M 203.003383 687.110602 
L 198.100111 690.294633 
L 196.356256 690.687754 
L 188.183054 690.228706 
L 179.943217 691.581431 
L 175.192716 693.915736 
L 172.429022 694.810465 
" clip-path="url(#p7219bd98ba)" style="fill: none; stroke: #f29888; stroke-width: 0.2"/>
    <path d="M 151.215929 432.016942 
L 224.604107 447.170392 
" clip-path="url(#p7219bd98ba)" style="fill: none; stroke: #f29888; stroke-width: 0.2"/>
    <path d="M 207.111925 304.196637 
L 203.817615 319.850644 
L 202.884742 331.961684 
L 201.963246 343.948195 
L 200.21289 359.086995 
" clip-path="url(#p7219bd98ba)" style="fill: none; stroke: #f29888; stroke-width: 0.2"/>
    <path d="M 110.963754 483.391265 
L 141.983086 486.370117 
L 207.851397 493.150834 
L 224.604107 447.170392 
L 229.162833 420.482153 
L 241.217047 370.074833 
L 248.852304 344.045865 
L 263.064803 300.341126 
L 268.028208 290.413004 
L 288.25075 249.963107 
L 305.686049 245.118692 
L 327.964487 224.77654 
L 443.234437 223.807168 
L 493.604705 230.587885 
L 498.00416 232.966142 
L 528.990813 249.718143 
" clip-path="url(#p7219bd98ba)" style="fill: none; stroke: #f29888; stroke-width: 0.2"/>
    <path d="M 161.950054 74.941276 
L 162.896344 82.13242 
" clip-path="url(#p7219bd98ba)" style="fill: none; stroke: #f29888; stroke-width: 0.2"/>
   </g>
  </g>
 </g>
 <defs>
  <clipPath id="p7219bd98ba">
   <rect x="7.2" y="7.2" width="837" height="738.84717"/>
  </clipPath>
 </defs>
</svg>
