<?xml version="1.0" encoding="utf-8" standalone="no"?>
<!DOCTYPE svg PUBLIC "-//W3C//DTD SVG 1.1//EN"
  "http://www.w3.org/Graphics/SVG/1.1/DTD/svg11.dtd">
<svg xmlns:xlink="http://www.w3.org/1999/xlink" width="851.4pt" height="651.624249pt" viewBox="0 0 851.4 651.624249" xmlns="http://www.w3.org/2000/svg" version="1.1">
 <metadata>
  <rdf:RDF xmlns:dc="http://purl.org/dc/elements/1.1/" xmlns:cc="http://creativecommons.org/ns#" xmlns:rdf="http://www.w3.org/1999/02/22-rdf-syntax-ns#">
   <cc:Work>
    <dc:type rdf:resource="http://purl.org/dc/dcmitype/StillImage"/>
    <dc:date>2025-03-16T14:38:38.402682</dc:date>
    <dc:format>image/svg+xml</dc:format>
    <dc:creator>
     <cc:Agent>
      <dc:title>Matplotlib v3.10.1, https://matplotlib.org/</dc:title>
     </cc:Agent>
    </dc:creator>
   </cc:Work>
  </rdf:RDF>
 </metadata>
 <defs>
  <style type="text/css">*{stroke-linejoin: round; stroke-linecap: butt}</style>
 </defs>
 <g id="figure_1">
  <g id="patch_1">
   <path d="M 0 651.624249 
L 851.4 651.624249 
L 851.4 0 
L 0 0 
z
" style="fill: #ffffff"/>
  </g>
  <g id="axes_1">
   <g id="PatchCollection_1">
    <path d="M 58.803796 543.281915 
L 63.80865 570.674617 
L 45.245455 593.171416 
L 48.349426 602.357392 
L 60.439998 600.531212 
L 100.093839 615.45951 
L 164.579455 612.995616 
L 171.124264 573.13851 
L 58.803796 543.281915 
" clip-path="url(#p4e5380efbe)" style="fill: #f29888"/>
    <path d="M 162.921116 355.360733 
L 129.248075 359.68849 
L 128.286566 395.442488 
L 204.504713 379.457615 
L 261.427225 388.75664 
L 265.756424 412.165081 
L 301.192713 413.288326 
L 343.899515 424.030903 
L 360.412645 362.192966 
L 416.822159 386.115925 
L 429.168749 346.490716 
L 227.084304 257.484725 
L 162.921116 355.360733 
" clip-path="url(#p4e5380efbe)" style="fill: #f29888"/>
    <path d="M 579.86682 223.188773 
L 578.257567 226.49184 
L 583.989087 235.932901 
L 589.193173 241.631743 
L 529.356296 290.469017 
L 532.820232 321.906853 
L 506.959576 324.960632 
L 499.305037 387.481213 
L 575.421163 352.415655 
L 588.146003 364.577145 
L 607.125949 359.662402 
L 616.767992 351.430098 
L 623.794999 354.89984 
L 641.043458 338.532338 
L 640.241718 326.30128 
L 647.127242 325.205572 
L 654.006991 339.384556 
L 659.162953 343.903627 
L 670.90896 339.66573 
L 687.786867 327.173788 
L 705.816852 333.074089 
L 718.572492 339.213533 
L 731.744882 338.55118 
L 738.274291 337.201836 
L 746.325369 338.854094 
L 757.018431 338.75119 
L 764.163822 338.604806 
L 773.191809 335.780024 
L 786.066795 331.197182 
L 801.988005 322.173533 
L 785.762654 289.221127 
L 789.496082 274.46965 
L 806.154545 234.10962 
L 765.775 224.981618 
L 762.345713 273.023199 
L 733.480219 286.309384 
L 727.227039 283.873028 
L 717.498374 276.437866 
L 714.613845 266.109803 
L 719.044103 254.406307 
L 712.22114 244.19854 
L 714.512786 203.144272 
L 687.623246 203.187752 
L 696.341317 227.67161 
L 680.644363 227.587548 
L 658.927148 216.466691 
L 645.784594 215.052126 
L 619.556273 218.56245 
L 591.365472 215.981159 
L 579.86682 223.188773 
" clip-path="url(#p4e5380efbe)" style="fill: #f29888"/>
    <path d="M 687.950487 47.16385 
L 672.994636 36.164739 
L 634.719055 70.547652 
L 704.436668 141.317929 
L 729.987409 124.435909 
L 732.963372 62.219691 
L 697.25759 40.379446 
L 687.950487 47.16385 
" clip-path="url(#p4e5380efbe)" style="fill: #f29888"/>
   </g>
   <g id="PatchCollection_2">
    <path d="M 96.895545 612.747777 
L 97.721346 612.308625 
L 98.289205 613.315922 
L 97.41143 613.704348 
L 96.895545 612.747777 
" clip-path="url(#p4e5380efbe)" style="fill: #f29888"/>
    <path d="M 96.817585 611.069431 
L 97.876304 610.476647 
L 98.470149 611.56076 
L 97.41143 612.128905 
L 96.817585 611.069431 
" clip-path="url(#p4e5380efbe)" style="fill: #f29888"/>
    <path d="M 139.180785 611.715841 
L 139.516687 610.424471 
L 140.394462 610.682455 
L 139.981561 611.947737 
L 139.180785 611.715841 
" clip-path="url(#p4e5380efbe)" style="fill: #f29888"/>
    <path d="M 137.55517 610.295478 
L 138.200026 610.501286 
L 138.380971 609.727334 
L 139.206771 610.063583 
L 138.690887 611.611488 
L 137.348238 611.069431 
L 137.55517 610.295478 
" clip-path="url(#p4e5380efbe)" style="fill: #f29888"/>
    <path d="M 135.644663 610.708543 
L 136.031577 609.211365 
L 136.832353 609.469349 
L 136.315506 610.914351 
L 135.644663 610.708543 
" clip-path="url(#p4e5380efbe)" style="fill: #f29888"/>
    <path d="M 134.070059 610.166486 
L 134.585944 608.435963 
L 135.386721 608.720036 
L 134.843886 610.424471 
L 134.070059 610.166486 
" clip-path="url(#p4e5380efbe)" style="fill: #f29888"/>
    <path d="M 137.55517 609.030197 
L 137.761139 608.306971 
L 138.6649 608.617132 
L 138.406957 609.262092 
L 137.55517 609.030197 
" clip-path="url(#p4e5380efbe)" style="fill: #f29888"/>
    <path d="M 132.494493 609.443261 
L 133.063313 607.738826 
L 133.863128 608.075075 
L 133.243296 609.675157 
L 132.494493 609.443261 
" clip-path="url(#p4e5380efbe)" style="fill: #f29888"/>
    <path d="M 93.900333 607.970722 
L 95.062036 606.989513 
L 95.81084 607.893907 
L 94.675123 608.875116 
L 93.900333 607.970722 
" clip-path="url(#p4e5380efbe)" style="fill: #f29888"/>
    <path d="M 129.733161 608.385236 
L 130.275032 607.015601 
L 130.945875 607.299673 
L 130.378017 608.720036 
L 129.733161 608.385236 
" clip-path="url(#p4e5380efbe)" style="fill: #f29888"/>
    <path d="M 128.441524 608.385236 
L 128.958371 606.886609 
L 129.603227 607.144593 
L 129.113329 608.667859 
L 128.441524 608.385236 
" clip-path="url(#p4e5380efbe)" style="fill: #f29888"/>
    <path d="M 124.156599 606.318464 
L 124.931389 604.898102 
L 125.757189 605.441608 
L 124.956413 606.783705 
L 124.156599 606.318464 
" clip-path="url(#p4e5380efbe)" style="fill: #f29888"/>
    <path d="M 92.713605 604.950278 
L 94.365207 604.408222 
L 94.778107 605.621327 
L 93.126505 606.138745 
L 92.713605 604.950278 
" clip-path="url(#p4e5380efbe)" style="fill: #f29888"/>
    <path d="M 122.040123 603.866165 
L 122.839937 602.574795 
L 123.717712 603.271932 
L 122.916935 604.43431 
L 122.040123 603.866165 
" clip-path="url(#p4e5380efbe)" style="fill: #f29888"/>
    <path d="M 91.731884 603.245843 
L 93.203503 602.755963 
L 93.513419 603.63282 
L 92.0418 604.150237 
L 91.731884 603.245843 
" clip-path="url(#p4e5380efbe)" style="fill: #f29888"/>
    <path d="M 117.754236 602.574795 
L 118.400054 601.309513 
L 119.147895 601.748666 
L 118.503039 602.961771 
L 117.754236 602.574795 
" clip-path="url(#p4e5380efbe)" style="fill: #f29888"/>
    <path d="M 124.182585 602.238546 
L 124.414541 601.438505 
L 125.47326 601.748666 
L 125.137358 602.574795 
L 124.182585 602.238546 
" clip-path="url(#p4e5380efbe)" style="fill: #f29888"/>
    <path d="M 115.456815 601.619674 
L 116.076647 600.457295 
L 116.74749 600.922537 
L 116.076647 601.980562 
L 115.456815 601.619674 
" clip-path="url(#p4e5380efbe)" style="fill: #f29888"/>
    <path d="M 114.037169 601.490681 
L 114.836984 599.838423 
L 115.714758 600.354392 
L 114.888957 601.877658 
L 114.037169 601.490681 
" clip-path="url(#p4e5380efbe)" style="fill: #f29888"/>
    <path d="M 118.915939 600.509472 
L 119.535771 599.347094 
L 120.232601 599.760158 
L 119.586782 600.896448 
L 118.915939 600.509472 
" clip-path="url(#p4e5380efbe)" style="fill: #f29888"/>
    <path d="M 117.212364 600.199311 
L 117.496293 599.57899 
L 118.425079 600.018143 
L 118.193123 600.612376 
L 117.212364 600.199311 
" clip-path="url(#p4e5380efbe)" style="fill: #f29888"/>
    <path d="M 109.467353 599.165925 
L 109.9842 598.031085 
L 110.810001 598.468788 
L 110.216156 599.502174 
L 109.467353 599.165925 
" clip-path="url(#p4e5380efbe)" style="fill: #f29888"/>
    <path d="M 114.114167 597.152779 
L 115.146899 597.797739 
L 114.269125 599.57899 
L 113.185382 598.960118 
L 114.114167 597.152779 
" clip-path="url(#p4e5380efbe)" style="fill: #f29888"/>
    <path d="M 105.879258 596.610722 
L 106.679072 597.023787 
L 106.163187 598.236892 
L 105.388397 597.797739 
L 105.879258 596.610722 
" clip-path="url(#p4e5380efbe)" style="fill: #f29888"/>
    <path d="M 88.143789 596.403465 
L 89.589421 595.655601 
L 90.106269 596.636811 
L 88.634649 597.410763 
L 88.143789 596.403465 
" clip-path="url(#p4e5380efbe)" style="fill: #f29888"/>
    <path d="M 104.071736 596.81653 
L 104.691568 595.68024 
L 105.337386 596.042577 
L 104.665581 597.178867 
L 104.071736 596.81653 
" clip-path="url(#p4e5380efbe)" style="fill: #f29888"/>
    <path d="M 102.239189 596.66145 
L 102.626103 595.293264 
L 103.916778 595.784593 
L 103.426879 597.049875 
L 102.239189 596.66145 
" clip-path="url(#p4e5380efbe)" style="fill: #f29888"/>
    <path d="M 98.728092 594.364231 
L 99.838784 594.828023 
L 99.476895 595.655601 
L 98.392189 595.138183 
L 98.728092 594.364231 
" clip-path="url(#p4e5380efbe)" style="fill: #f29888"/>
    <path d="M 104.355665 594.209151 
L 105.466357 594.803384 
L 105.130455 595.500521 
L 104.046711 594.932376 
L 104.355665 594.209151 
" clip-path="url(#p4e5380efbe)" style="fill: #f29888"/>
    <path d="M 97.928278 592.865604 
L 99.166979 593.383021 
L 98.88305 594.05407 
L 97.669373 593.562741 
L 97.928278 592.865604 
" clip-path="url(#p4e5380efbe)" style="fill: #f29888"/>
    <path d="M 96.817585 591.394514 
L 97.799306 591.755402 
L 97.360419 592.969957 
L 96.378698 592.60762 
L 96.817585 591.394514 
" clip-path="url(#p4e5380efbe)" style="fill: #f29888"/>
    <path d="M 93.384448 590.439393 
L 94.055291 590.568385 
L 93.900333 591.730763 
L 93.203503 591.575683 
L 93.384448 590.439393 
" clip-path="url(#p4e5380efbe)" style="fill: #f29888"/>
    <path d="M 91.938815 589.742256 
L 92.738629 589.974152 
L 92.429676 591.368426 
L 91.628899 591.188707 
L 91.938815 589.742256 
" clip-path="url(#p4e5380efbe)" style="fill: #f29888"/>
    <path d="M 90.364211 590.00024 
L 90.725138 589.071207 
L 91.525915 589.406007 
L 91.164025 590.258224 
L 90.364211 590.00024 
" clip-path="url(#p4e5380efbe)" style="fill: #f29888"/>
    <path d="M 92.299742 589.277015 
L 92.558647 588.192902 
L 93.22949 588.424797 
L 92.945561 589.35528 
L 92.299742 589.277015 
" clip-path="url(#p4e5380efbe)" style="fill: #f29888"/>
    <path d="M 84.91662 586.953708 
L 85.794395 586.101491 
L 86.698156 586.901531 
L 85.794395 587.753749 
L 84.91662 586.953708 
" clip-path="url(#p4e5380efbe)" style="fill: #f29888"/>
    <path d="M 81.974344 583.415846 
L 82.774158 582.331733 
L 83.625946 583.002782 
L 82.722184 583.957903 
L 81.974344 583.415846 
" clip-path="url(#p4e5380efbe)" style="fill: #f29888"/>
    <path d="M 82.877142 581.55778 
L 83.39399 581.066451 
L 84.658678 582.408549 
L 84.142793 582.847701 
L 82.877142 581.55778 
" clip-path="url(#p4e5380efbe)" style="fill: #f29888"/>
    <path d="M 82.025355 579.259112 
L 82.852118 578.303991 
L 83.522961 578.898224 
L 82.748171 579.853346 
L 82.025355 579.259112 
" clip-path="url(#p4e5380efbe)" style="fill: #f29888"/>
    <path d="M 284.984687 410.995456 
L 285.165631 410.298319 
L 286.482293 410.685295 
L 286.198364 411.305616 
L 284.984687 410.995456 
" clip-path="url(#p4e5380efbe)" style="fill: #f29888"/>
    <path d="M 284.674771 409.653358 
L 284.881702 408.672149 
L 286.456306 409.059125 
L 286.275362 409.988158 
L 284.674771 409.653358 
" clip-path="url(#p4e5380efbe)" style="fill: #f29888"/>
    <path d="M 285.216642 405.109648 
L 285.475547 404.206704 
L 286.947167 404.696584 
L 286.585277 405.496624 
L 285.216642 405.109648 
" clip-path="url(#p4e5380efbe)" style="fill: #f29888"/>
    <path d="M 286.482293 401.418155 
L 286.740235 400.386219 
L 288.262866 400.902187 
L 287.927926 401.908036 
L 286.482293 401.418155 
" clip-path="url(#p4e5380efbe)" style="fill: #f29888"/>
    <path d="M 288.004924 399.894889 
L 288.262866 398.526704 
L 289.863457 398.939768 
L 289.579527 400.307954 
L 288.004924 399.894889 
" clip-path="url(#p4e5380efbe)" style="fill: #f29888"/>
    <path d="M 282.403337 398.4238 
L 282.790251 397.468679 
L 284.054939 397.958559 
L 283.745985 398.91368 
L 282.403337 398.4238 
" clip-path="url(#p4e5380efbe)" style="fill: #f29888"/>
    <path d="M 284.352343 390.874139 
L 284.817217 389.556681 
L 285.926947 389.969745 
L 285.48806 391.235027 
L 284.352343 390.874139 
" clip-path="url(#p4e5380efbe)" style="fill: #f29888"/>
    <path d="M 287.86344 389.272608 
L 288.276341 387.879784 
L 289.386071 388.162407 
L 288.896172 389.608857 
L 287.86344 389.272608 
" clip-path="url(#p4e5380efbe)" style="fill: #f29888"/>
    <path d="M 263.32522 380.296788 
L 265.364698 380.838845 
L 265.132742 381.949046 
L 263.04129 381.354813 
L 263.32522 380.296788 
" clip-path="url(#p4e5380efbe)" style="fill: #f29888"/>
    <path d="M 261.544647 370.642672 
L 262.912319 370.926745 
L 262.602403 371.958681 
L 261.389689 371.648521 
L 261.544647 370.642672 
" clip-path="url(#p4e5380efbe)" style="fill: #f29888"/>
    <path d="M 262.396434 366.332307 
L 263.739083 366.590292 
L 263.532151 367.854124 
L 262.163516 367.59614 
L 262.396434 366.332307 
" clip-path="url(#p4e5380efbe)" style="fill: #f29888"/>
    <path d="M 263.455153 360.575492 
L 264.796839 360.782749 
L 264.667868 361.969766 
L 263.300195 361.762509 
L 263.455153 360.575492 
" clip-path="url(#p4e5380efbe)" style="fill: #f29888"/>
    <path d="M 265.003771 354.586781 
L 266.242472 355.052022 
L 265.855558 356.136135 
L 264.667868 355.749159 
L 265.003771 354.586781 
" clip-path="url(#p4e5380efbe)" style="fill: #f29888"/>
    <path d="M 263.093264 353.78674 
L 264.667868 354.225893 
L 264.331965 355.41291 
L 262.757361 354.92303 
L 263.093264 353.78674 
" clip-path="url(#p4e5380efbe)" style="fill: #f29888"/>
    <path d="M 265.623603 348.315446 
L 267.430162 348.75315 
L 267.017262 350.1996 
L 265.2877 349.683632 
L 265.623603 348.315446 
" clip-path="url(#p4e5380efbe)" style="fill: #f29888"/>
    <path d="M 272.851766 345.65589 
L 273.884499 346.095043 
L 273.445611 347.360325 
L 272.438866 347.050164 
L 272.851766 345.65589 
" clip-path="url(#p4e5380efbe)" style="fill: #f29888"/>
    <path d="M 267.869049 344.184801 
L 268.849808 344.263066 
L 268.77281 345.526898 
L 267.792052 345.423994 
L 267.869049 344.184801 
" clip-path="url(#p4e5380efbe)" style="fill: #f29888"/>
    <path d="M 265.132742 343.797825 
L 266.268459 343.952905 
L 266.087514 345.218187 
L 265.2877 345.139922 
L 265.029757 345.087745 
L 265.132742 343.797825 
" clip-path="url(#p4e5380efbe)" style="fill: #f29888"/>
    <path d="M 301.480492 339.3976 
L 302.384253 339.551231 
L 302.126311 340.842601 
L 301.248537 340.584617 
L 301.480492 339.3976 
" clip-path="url(#p4e5380efbe)" style="fill: #f29888"/>
    <path d="M 285.630505 335.240866 
L 286.404333 335.422035 
L 286.14639 336.609052 
L 285.449561 336.453972 
L 285.630505 335.240866 
" clip-path="url(#p4e5380efbe)" style="fill: #f29888"/>
    <path d="M 284.494789 334.827802 
L 285.268616 334.982882 
L 285.010674 336.48006 
L 284.235884 336.248164 
L 284.494789 334.827802 
" clip-path="url(#p4e5380efbe)" style="fill: #f29888"/>
    <path d="M 292.935667 333.188588 
L 293.917388 333.448021 
L 293.710457 334.350966 
L 292.755685 334.014717 
L 292.935667 333.188588 
" clip-path="url(#p4e5380efbe)" style="fill: #f29888"/>
    <path d="M 293.891402 332.182739 
L 295.130103 332.466812 
L 295.001132 333.292941 
L 293.787455 333.008868 
L 293.891402 332.182739 
" clip-path="url(#p4e5380efbe)" style="fill: #f29888"/>
    <path d="M 267.817076 331.911711 
L 268.953755 332.58276 
L 268.385897 333.563969 
L 267.301191 332.788567 
L 267.817076 331.911711 
" clip-path="url(#p4e5380efbe)" style="fill: #f29888"/>
    <path d="M 284.62376 333.253808 
L 285.087671 331.730542 
L 286.249375 332.117518 
L 285.759477 333.640785 
L 284.62376 333.253808 
" clip-path="url(#p4e5380efbe)" style="fill: #f29888"/>
    <path d="M 266.501377 331.162397 
L 267.275204 331.44647 
L 267.017262 332.298687 
L 266.217448 332.09288 
L 266.501377 331.162397 
" clip-path="url(#p4e5380efbe)" style="fill: #f29888"/>
    <path d="M 284.442815 330.208725 
L 285.397587 330.414533 
L 285.242629 331.44647 
L 284.235884 331.26675 
L 284.442815 330.208725 
" clip-path="url(#p4e5380efbe)" style="fill: #f29888"/>
    <path d="M 269.960501 328.84054 
L 270.94126 328.969532 
L 270.786302 330.182637 
L 269.805543 330.053645 
L 269.960501 328.84054 
" clip-path="url(#p4e5380efbe)" style="fill: #f29888"/>
    <path d="M 263.976813 328.470956 
L 264.466711 327.246255 
L 265.436883 327.634681 
L 264.946985 328.859381 
L 263.976813 328.470956 
" clip-path="url(#p4e5380efbe)" style="fill: #f29888"/>
    <path d="M 582.224876 305.765449 
L 583.954438 307.081459 
L 583.179648 308.268476 
L 581.398113 306.952466 
L 582.224876 305.765449 
" clip-path="url(#p4e5380efbe)" style="fill: #f29888"/>
    <path d="M 579.281637 303.429098 
L 580.650272 304.5393 
L 580.03044 305.339341 
L 578.661805 304.281316 
L 579.281637 303.429098 
" clip-path="url(#p4e5380efbe)" style="fill: #f29888"/>
    <path d="M 574.118938 300.784036 
L 574.711821 300.010083 
L 576.571316 301.402908 
L 576.054469 302.17831 
L 574.118938 300.784036 
" clip-path="url(#p4e5380efbe)" style="fill: #f29888"/>
    <path d="M 576.751299 296.589619 
L 577.887978 294.963449 
L 578.713779 295.557682 
L 577.552075 297.131676 
L 576.751299 296.589619 
" clip-path="url(#p4e5380efbe)" style="fill: #f29888"/>
    <path d="M 575.899511 292.124174 
L 576.338398 291.37631 
L 577.216173 291.918366 
L 576.803272 292.692319 
L 575.899511 292.124174 
" clip-path="url(#p4e5380efbe)" style="fill: #f29888"/>
   </g>
   <g id="LineCollection_1">
    <path d="M 724.166518 338.932246 
L 723.810264 338.252614 
" clip-path="url(#p4e5380efbe)" style="fill: none; stroke: #f29888; stroke-width: 0.2"/>
    <path d="M 723.279942 337.245316 
L 724.555217 336.694564 
" clip-path="url(#p4e5380efbe)" style="fill: none; stroke: #f29888; stroke-width: 0.2"/>
    <path d="M 724.555217 336.694564 
L 726.491711 335.840897 
" clip-path="url(#p4e5380efbe)" style="fill: none; stroke: #f29888; stroke-width: 0.2"/>
    <path d="M 582.962712 359.623327 
L 583.179648 357.768102 
L 583.644522 354.620116 
" clip-path="url(#p4e5380efbe)" style="fill: none; stroke: #f29888; stroke-width: 0.2"/>
    <path d="M 606.12979 335.958294 
L 602.592706 339.235273 
L 595.054626 345.481968 
L 586.173898 351.986648 
L 583.644522 354.620116 
" clip-path="url(#p4e5380efbe)" style="fill: none; stroke: #f29888; stroke-width: 0.2"/>
    <path d="M 659.645152 328.54922 
L 659.877107 330.562367 
L 660.496939 333.248011 
L 661.116771 336.395998 
L 661.632656 338.771481 
L 660.961813 340.57737 
L 659.206264 341.765837 
L 658.46069 343.288111 
" clip-path="url(#p4e5380efbe)" style="fill: none; stroke: #f29888; stroke-width: 0.2"/>
    <path d="M 710.16915 322.173533 
L 705.867863 323.943188 
L 701.736934 325.336013 
L 700.705164 329.569562 
L 698.062459 330.536469 
" clip-path="url(#p4e5380efbe)" style="fill: none; stroke: #f29888; stroke-width: 0.2"/>
    <path d="M 701.736934 325.336013 
L 699.259531 325.69835 
L 694.767675 324.664964 
L 690.274857 324.459157 
L 685.319089 324.459157 
L 683.15064 325.801254 
L 680.207401 327.040448 
L 675.754043 328.575309 
L 671.830045 329.53043 
L 669.067751 330.046398 
L 664.47291 330.150751 
L 662.665388 329.737687 
L 659.645152 328.54922 
L 656.882857 327.620188 
L 654.63741 327.362203 
L 651.410242 327.775268 
L 649.370764 327.723091 
L 648.206179 327.429232 
" clip-path="url(#p4e5380efbe)" style="fill: none; stroke: #f29888; stroke-width: 0.2"/>
    <path d="M 644.180531 325.674488 
L 643.123359 324.420024 
L 642.116614 322.070629 
" clip-path="url(#p4e5380efbe)" style="fill: none; stroke: #f29888; stroke-width: 0.2"/>
    <path d="M 622.419627 305.240785 
L 635.559293 287.439877 
L 642.557426 277.579953 
L 645.859667 272.927542 
" clip-path="url(#p4e5380efbe)" style="fill: none; stroke: #f29888; stroke-width: 0.2"/>
    <path d="M 642.557426 277.579953 
L 650.919381 284.104924 
L 660.007041 291.640091 
L 662.441132 293.622801 
" clip-path="url(#p4e5380efbe)" style="fill: none; stroke: #f29888; stroke-width: 0.2"/>
    <path d="M 723.810264 338.252614 
L 723.279942 337.245316 
L 718.879521 331.005868 
L 715.848697 327.90426 
L 710.16915 322.173533 
L 707.985302 319.969073 
L 698.858181 310.051175 
L 689.29891 300.926072 
L 686.629976 298.653492 
L 681.038014 295.444633 
L 675.555774 293.280755 
L 673.391175 292.774932 
L 666.717395 293.172053 
L 662.441132 293.622801 
L 658.099422 294.080795 
L 655.426637 294.361969 
L 648.491065 294.656187 
L 645.91549 294.60546 
L 643.823076 293.688022 
L 635.559293 287.439877 
L 626.529382 280.784465 
L 616.836327 273.286981 
L 616.407065 272.962327 
L 604.15961 263.698086 
L 601.991161 261.784945 
L 600.485855 260.128339 
L 591.813021 249.316193 
L 586.912449 243.493209 
" clip-path="url(#p4e5380efbe)" style="fill: none; stroke: #f29888; stroke-width: 0.2"/>
    <path d="M 673.391175 292.774932 
L 671.888756 291.692268 
L 645.859667 272.927542 
L 636.327345 266.060525 
L 626.856622 259.238438 
L 619.621721 254.026578 
L 615.191463 250.835111 
" clip-path="url(#p4e5380efbe)" style="fill: none; stroke: #f29888; stroke-width: 0.2"/>
    <path d="M 671.888756 291.692268 
L 678.026439 282.068588 
L 681.887877 275.630579 
L 682.828212 274.062383 
L 687.393216 263.103853 
L 687.835953 262.04148 
L 693.618484 250.065506 
L 697.618517 248.323388 
" clip-path="url(#p4e5380efbe)" style="fill: none; stroke: #f29888; stroke-width: 0.2"/>
    <path d="M 580.432846 230.074997 
L 592.835166 231.070334 
L 634.19162 231.426874 
L 663.208222 234.937198 
L 679.523083 237.105425 
L 692.430794 239.479459 
L 694.599243 241.337525 
L 696.265281 245.191345 
L 697.618517 248.323388 
L 698.059329 249.34373 
L 700.588705 254.035274 
L 701.673411 258.94422 
L 699.710931 271.228905 
L 695.477017 280.829395 
L 686.629976 298.653492 
" clip-path="url(#p4e5380efbe)" style="fill: none; stroke: #f29888; stroke-width: 0.2"/>
    <path d="M 563.753673 357.790693 
L 565.599137 353.63166 
L 567.81956 349.863351 
L 568.439392 346.611012 
L 568.697334 340.158508 
L 569.885024 331.02181 
L 570.607841 325.033099 
L 572.466374 317.857371 
L 572.569358 310.991803 
L 572.0015 308.410512 
" clip-path="url(#p4e5380efbe)" style="fill: none; stroke: #f29888; stroke-width: 0.2"/>
    <path d="M 600.599424 361.352407 
L 604.916113 358.749312 
L 609.82087 353.949067 
L 613.641883 350.747454 
L 616.223233 348.889389 
L 630.964452 333.685714 
L 637.236881 327.311476 
L 642.116614 322.070629 
L 644.697963 319.231354 
L 651.823143 310.920785 
L 653.688413 308.10325 
L 654.353481 307.1003 
L 656.263025 302.507312 
L 657.863616 296.776585 
L 658.099422 294.080795 
" clip-path="url(#p4e5380efbe)" style="fill: none; stroke: #f29888; stroke-width: 0.2"/>
    <path d="M 653.688413 308.10325 
L 651.255284 305.604572 
L 645.730696 295.796825 
L 645.91549 294.60546 
L 643.355315 297.447634 
L 638.089631 302.558039 
L 633.235886 307.049573 
L 626.627554 313.862964 
L 620.380149 321.657565 
L 615.578377 326.304178 
L 608.453197 333.634987 
L 606.12979 335.958294 
" clip-path="url(#p4e5380efbe)" style="fill: none; stroke: #f29888; stroke-width: 0.2"/>
    <path d="M 558.783874 325.949088 
L 558.938832 322.49094 
L 559.300721 314.591987 
L 560.384464 309.068516 
L 560.849338 306.436498 
L 562.242998 304.371175 
" clip-path="url(#p4e5380efbe)" style="fill: none; stroke: #f29888; stroke-width: 0.2"/>
    <path d="M 608.453197 333.634987 
L 607.317481 330.072487 
L 605.767901 326.923051 
L 605.149031 323.154742 
L 606.026806 319.490787 
L 608.453197 314.689093 
L 609.846857 309.888848 
L 612.532153 305.449491 
L 612.583164 301.371022 
L 613.048038 297.912875 
L 610.466689 296.415697 
L 607.730381 295.331584 
L 603.599452 295.847552 
L 598.694695 295.537391 
" clip-path="url(#p4e5380efbe)" style="fill: none; stroke: #f29888; stroke-width: 0.2"/>
    <path d="M 582.740761 303.391415 
L 579.746511 307.159723 
L 571.950489 300.757948 
L 572.957235 299.562234 
" clip-path="url(#p4e5380efbe)" style="fill: none; stroke: #f29888; stroke-width: 0.2"/>
    <path d="M 579.746511 307.159723 
L 583.928451 310.817881 
L 586.716733 312.159979 
L 588.730224 309.268527 
L 592.964137 303.642153 
L 594.667713 301.886991 
L 596.423261 298.428843 
L 598.694695 295.537391 
L 606.749622 285.213676 
L 616.407065 272.962327 
L 620.586118 267.818586 
L 626.856622 259.238438 
" clip-path="url(#p4e5380efbe)" style="fill: none; stroke: #f29888; stroke-width: 0.2"/>
    <path d="M 572.957235 299.562234 
L 601.991161 261.784945 
" clip-path="url(#p4e5380efbe)" style="fill: none; stroke: #f29888; stroke-width: 0.2"/>
    <path d="M 616.352204 257.907935 
L 619.621721 254.026578 
L 626.16268 248.668334 
L 629.724788 248.823414 
" clip-path="url(#p4e5380efbe)" style="fill: none; stroke: #f29888; stroke-width: 0.2"/>
    <path d="M 796.171784 325.469987 
L 795.501907 322.89241 
L 795.140017 319.795151 
L 793.5914 317.52402 
L 790.855093 316.542811 
L 788.944586 314.942729 
L 785.743404 310.916437 
L 782.904112 309.212002 
L 778.567214 306.269823 
L 777.68944 304.463934 
L 777.172592 302.604419 
L 777.069608 298.475222 
L 776.604734 294.759091 
L 775.417044 292.693768 
L 774.065733 289.925511 
" clip-path="url(#p4e5380efbe)" style="fill: none; stroke: #f29888; stroke-width: 0.2"/>
    <path d="M 795.140017 319.795151 
L 796.17275 318.297973 
L 798.961031 316.800795 
L 799.263814 316.640917 
" clip-path="url(#p4e5380efbe)" style="fill: none; stroke: #f29888; stroke-width: 0.2"/>
    <path d="M 726.491711 335.840897 
L 729.452274 334.498799 
L 731.980688 330.84499 
L 736.00767 329.813053 
L 740.5515 329.297085 
L 746.334031 329.915957 
L 753.149294 328.263699 
L 758.931825 325.4766 
L 760.842332 322.538769 
L 760.687374 319.074824 
L 764.714356 316.597886 
L 767.812553 313.397723 
L 768.845286 303.176912 
L 774.065733 289.925511 
L 774.67979 288.366011 
L 776.423789 284.22522 
L 778.964715 278.191579 
L 779.274631 275.817545 
L 777.880972 270.094064 
L 778.344883 263.635764 
L 777.467109 256.465833 
" clip-path="url(#p4e5380efbe)" style="fill: none; stroke: #f29888; stroke-width: 0.2"/>
    <path d="M 776.423789 284.22522 
L 774.229353 282.385996 
L 770.976198 280.167042 
L 769.582539 277.637927 
L 768.807749 272.578249 
L 767.517074 268.604133 
L 765.399636 267.727277 
L 762.726217 267.692638 
" clip-path="url(#p4e5380efbe)" style="fill: none; stroke: #f29888; stroke-width: 0.2"/>
    <path d="M 712.359506 241.71976 
L 710.464629 240.472263 
L 709.48387 237.685165 
L 708.170096 236.18074 
" clip-path="url(#p4e5380efbe)" style="fill: none; stroke: #f29888; stroke-width: 0.2"/>
    <path d="M 774.412175 226.934095 
L 774.125406 227.258546 
L 771.699015 231.026854 
L 771.338088 235.466211 
L 772.912692 237.350365 
L 774.771225 243.337627 
L 777.662491 247.672631 
L 777.467109 256.465833 
" clip-path="url(#p4e5380efbe)" style="fill: none; stroke: #f29888; stroke-width: 0.2"/>
    <path d="M 731.185788 99.382303 
L 725.814131 101.530392 
L 721.374248 101.942007 
L 709.49927 99.567973 
L 700.515557 98.846197 
L 696.539586 98.433133 
" clip-path="url(#p4e5380efbe)" style="fill: none; stroke: #f29888; stroke-width: 0.2"/>
    <path d="M 110.098319 615.077255 
L 110.882187 612.485445 
L 110.990946 612.128905 
L 112.177674 606.70689 
L 112.55785 604.916943 
" clip-path="url(#p4e5380efbe)" style="fill: none; stroke: #f29888; stroke-width: 0.2"/>
    <path d="M 104.973572 611.307124 
L 106.247184 615.2244 
" clip-path="url(#p4e5380efbe)" style="fill: none; stroke: #f29888; stroke-width: 0.2"/>
    <path d="M 137.400212 609.495438 
L 135.441491 614.108932 
" clip-path="url(#p4e5380efbe)" style="fill: none; stroke: #f29888; stroke-width: 0.2"/>
    <path d="M 110.882187 612.485445 
L 107.415363 612.012957 
L 104.973572 611.307124 
" clip-path="url(#p4e5380efbe)" style="fill: none; stroke: #f29888; stroke-width: 0.2"/>
    <path d="M 92.991759 594.680189 
L 93.82141 598.396321 
L 97.331545 605.730028 
L 99.448983 608.931641 
L 102.133317 610.378091 
L 104.973572 611.307124 
" clip-path="url(#p4e5380efbe)" style="fill: none; stroke: #f29888; stroke-width: 0.2"/>
    <path d="M 118.415454 607.940286 
L 120.000645 605.621327 
L 121.162349 603.090763 
L 121.936176 600.999352 
L 122.684979 599.425359 
L 123.226851 598.004996 
" clip-path="url(#p4e5380efbe)" style="fill: none; stroke: #f29888; stroke-width: 0.2"/>
    <path d="M 78.845348 579.711309 
L 80.32178 584.247773 
L 81.841523 587.314596 
L 84.824223 589.832116 
L 88.764583 592.164119 
L 92.991759 594.680189 
L 97.34502 597.026686 
L 101.618395 599.268829 
L 105.957218 601.526915 
L 110.350902 603.725578 
L 112.55785 604.916943 
L 115.266246 606.377887 
L 118.415454 607.940286 
L 120.313449 608.882363 
L 125.535821 611.334662 
L 130.300057 613.834789 
L 131.129774 614.273676 
" clip-path="url(#p4e5380efbe)" style="fill: none; stroke: #f29888; stroke-width: 0.2"/>
    <path d="M 66.302588 545.275215 
L 67.403482 548.105349 
L 69.045459 552.683844 
L 70.660487 557.171029 
L 72.322676 561.675607 
L 74.024326 566.165691 
L 75.739451 570.641282 
L 77.321755 575.209631 
L 78.845348 579.711309 
" clip-path="url(#p4e5380efbe)" style="fill: none; stroke: #f29888; stroke-width: 0.2"/>
    <path d="M 270.952698 412.32979 
L 270.812288 412.214358 
L 270.65733 410.511373 
L 273.032711 407.980809 
L 275.769019 405.554598 
L 279.641043 403.799436 
L 282.894198 401.734114 
L 284.859565 399.35863 
" clip-path="url(#p4e5380efbe)" style="fill: none; stroke: #f29888; stroke-width: 0.2"/>
    <path d="M 174.82221 337.206529 
L 175.192632 337.251114 
L 180.858704 337.935207 
L 186.439116 338.178697 
L 189.341931 338.30624 
L 213.678995 339.349771 
L 222.902363 339.922264 
L 233.288397 341.344076 
L 239.36352 342.176003 
L 254.679335 345.071803 
L 268.95183 348.032823 
L 279.824875 352.408409 
L 284.43704 353.989649 
L 286.347547 354.491124 
L 307.764471 360.116048 
L 315.330463 361.981361 
L 316.850206 362.356742 
L 346.913015 372.906556 
L 356.639682 376.321858 
" clip-path="url(#p4e5380efbe)" style="fill: none; stroke: #f29888; stroke-width: 0.2"/>
    <path d="M 285.892298 396.777339 
L 289.192614 395.797579 
L 293.633459 395.952659 
L 296.472751 396.674435 
L 301.687424 397.191853 
L 304.733647 396.261371 
L 305.663395 394.145321 
L 306.59218 388.001529 
L 307.624913 380.928704 
L 307.986802 377.366204 
L 308.347729 373.545719 
L 309.328488 368.384586 
L 312.065758 365.08007 
L 313.820344 363.737972 
L 315.330463 361.981361 
" clip-path="url(#p4e5380efbe)" style="fill: none; stroke: #f29888; stroke-width: 0.2"/>
    <path d="M 286.347547 354.491124 
L 286.92503 370.345556 
L 287.234946 383.044754 
L 285.892298 396.777339 
L 284.859565 399.35863 
" clip-path="url(#p4e5380efbe)" style="fill: none; stroke: #f29888; stroke-width: 0.2"/>
    <path d="M 175.192632 337.251114 
L 174.378782 337.882945 
" clip-path="url(#p4e5380efbe)" style="fill: none; stroke: #f29888; stroke-width: 0.2"/>
    <path d="M 169.754533 344.936882 
L 166.439913 351.412706 
L 164.99428 355.128837 
L 165.201212 357.091256 
L 166.542898 359.362387 
L 168.092477 363.182871 
L 168.76332 365.81489 
L 168.815294 368.809245 
L 169.176221 373.455859 
L 169.615108 374.424025 
L 172.11946 375.197977 
L 176.456358 375.584953 
L 178.159933 375.121162 
L 183.039666 373.726888 
L 187.376564 373.313823 
L 190.783714 372.281886 
L 192.074389 370.887612 
L 204.724157 363.298819 
L 207.77038 359.943576 
L 214.141944 355.824525 
" clip-path="url(#p4e5380efbe)" style="fill: none; stroke: #f29888; stroke-width: 0.2"/>
    <path d="M 257.79492 388.163256 
L 259.354061 386.142014 
L 262.245326 380.463463 
L 263.381043 374.682009 
L 265.136592 363.94378 
L 266.582224 357.336196 
L 267.614957 351.76055 
L 268.95183 348.032823 
L 271.848871 341.745546 
L 271.745886 335.653931 
L 269.47349 331.627638 
L 262.865158 329.046347 
L 257.082627 326.981025 
L 244.174917 324.399733 
L 231.57616 319.341504 
L 225.483713 316.244245 
L 217.63668 311.28747 
" clip-path="url(#p4e5380efbe)" style="fill: none; stroke: #f29888; stroke-width: 0.2"/>
    <path d="M 173.156244 339.747832 
L 176.744137 342.49341 
L 179.73935 345.023974 
L 184.231206 347.553089 
L 189.445878 351.140228 
L 190.839538 351.966357 
L 199.255392 355.631762 
L 205.296828 357.852165 
L 209.581753 357.542004 
L 212.267049 356.457891 
L 214.141944 355.824525 
L 216.397016 355.063617 
L 220.733914 353.205551 
L 222.489463 351.037324 
L 223.677153 348.558937 
L 223.574169 344.222484 
L 222.902363 339.922264 
L 221.973578 338.209134 
L 222.489463 335.524939 
L 222.851352 332.840744 
L 222.076562 330.259453 
L 220.578956 328.297034 
L 219.443239 327.833242 
" clip-path="url(#p4e5380efbe)" style="fill: none; stroke: #f29888; stroke-width: 0.2"/>
    <path d="M 269.47349 331.627638 
L 276.805601 332.478406 
L 279.746915 333.090032 
L 284.756581 334.130665 
L 292.707561 335.885827 
L 301.691274 337.538085 
L 308.196621 340.429537 
L 312.32755 342.906475 
L 314.495999 344.042765 
L 317.490249 347.758896 
L 319.039829 350.237283 
L 319.997489 351.448939 
" clip-path="url(#p4e5380efbe)" style="fill: none; stroke: #f29888; stroke-width: 0.2"/>
    <path d="M 225.483713 316.244245 
L 227.859093 323.057636 
L 230.54439 335.653931 
L 232.402923 339.680223 
L 233.288397 341.344076 
" clip-path="url(#p4e5380efbe)" style="fill: none; stroke: #f29888; stroke-width: 0.2"/>
    <path d="M 332.251681 343.389108 
L 328.229511 341.254216 
L 321.311263 339.7324 
L 316.251548 337.048205 
L 303.704765 329.562316 
L 288.11272 318.102311 
L 283.053006 314.747067 
L 273.24253 312.217953 
L 264.361802 308.965613 
L 256.152879 307.365531 
L 249.853501 305.506016 
L 244.432859 304.216095 
L 228.99481 300.653594 
L 226.77535 300.628955 
L 224.252711 300.966654 
" clip-path="url(#p4e5380efbe)" style="fill: none; stroke: #f29888; stroke-width: 0.2"/>
    <path d="M 217.63668 311.28747 
L 214.331551 309.971461 
L 212.730961 309.429404 
" clip-path="url(#p4e5380efbe)" style="fill: none; stroke: #f29888; stroke-width: 0.2"/>
    <path d="M 217.119832 306.332145 
L 216.190084 308.165572 
L 216.654958 310.074365 
L 217.63668 311.28747 
" clip-path="url(#p4e5380efbe)" style="fill: none; stroke: #f29888; stroke-width: 0.2"/>
    <path d="M 423.953907 363.227256 
L 420.619111 360.962468 
L 411.429429 352.80553 
L 400.690168 342.7398 
L 394.907637 336.700361 
L 388.369566 330.346414 
" clip-path="url(#p4e5380efbe)" style="fill: none; stroke: #f29888; stroke-width: 0.2"/>
    <path d="M 316.981102 361.35959 
L 350.659918 357.03908 
L 373.480126 354.251981 
L 383.031697 352.960611 
" clip-path="url(#p4e5380efbe)" style="fill: none; stroke: #f29888; stroke-width: 0.2"/>
    <path d="M 314.495999 344.042765 
L 322.44698 343.6297 
L 328.229511 341.254216 
" clip-path="url(#p4e5380efbe)" style="fill: none; stroke: #f29888; stroke-width: 0.2"/>
    <path d="M 385.533161 332.182739 
L 386.43981 334.995926 
L 387.730484 340.416493 
L 388.970148 346.353027 
L 388.453301 349.450287 
L 387.110653 350.792384 
L 383.031697 352.960611 
" clip-path="url(#p4e5380efbe)" style="fill: none; stroke: #f29888; stroke-width: 0.2"/>
    <path d="M 530.422694 300.14738 
L 531.832736 301.068108 
L 535.085891 301.739157 
L 538.648 302.047868 
L 543.759688 303.339239 
L 549.180329 303.958111 
L 553.466217 304.681336 
L 557.080299 305.094401 
L 559.86858 305.042224 
L 562.242998 304.371175 
L 566.373927 302.82327 
L 568.439392 301.944965 
L 571.950489 300.757948 
" clip-path="url(#p4e5380efbe)" style="fill: none; stroke: #f29888; stroke-width: 0.2"/>
    <path d="M 316.850206 362.356742 
L 316.981102 361.35959 
L 317.466188 357.682591 
L 319.997489 351.448939 
L 323.763641 346.912476 
L 328.171762 344.347128 
L 332.251681 343.389108 
L 335.270955 342.680376 
L 373.052788 338.236671 
L 379.041288 336.384403 
L 385.533161 332.182739 
L 388.369566 330.346414 
L 390.04806 329.260415 
" clip-path="url(#p4e5380efbe)" style="fill: none; stroke: #f29888; stroke-width: 0.2"/>
    <path d="M 186.439116 338.178697 
L 190.478611 329.743484 
L 195.435341 320.218361 
L 201.320856 316.605133 
L 208.394062 312.26868 
L 212.730961 309.429404 
L 217.119832 306.332145 
L 224.252711 300.966654 
L 227.343209 298.640448 
L 237.565622 289.916815 
L 257.650485 274.587047 
L 260.488086 272.197074 
" clip-path="url(#p4e5380efbe)" style="fill: none; stroke: #f29888; stroke-width: 0.2"/>
    <path d="M 646.192682 248.392957 
L 647.250439 249.207492 
L 670.023486 266.733023 
L 681.887877 275.630579 
" clip-path="url(#p4e5380efbe)" style="fill: none; stroke: #f29888; stroke-width: 0.2"/>
    <path d="M 636.327345 266.060525 
L 642.994388 255.739709 
L 647.250439 249.207492 
" clip-path="url(#p4e5380efbe)" style="fill: none; stroke: #f29888; stroke-width: 0.2"/>
    <path d="M 667.181306 248.697321 
L 687.393216 263.103853 
" clip-path="url(#p4e5380efbe)" style="fill: none; stroke: #f29888; stroke-width: 0.2"/>
    <path d="M 693.618484 250.065506 
L 682.518296 249.182853 
L 667.181306 248.697321 
L 648.49299 248.104537 
L 646.192682 248.392957 
L 644.208065 248.356723 
" clip-path="url(#p4e5380efbe)" style="fill: none; stroke: #f29888; stroke-width: 0.2"/>
    <path d="M 644.208065 248.356723 
L 631.403339 246.705915 
L 629.724788 248.823414 
" clip-path="url(#p4e5380efbe)" style="fill: none; stroke: #f29888; stroke-width: 0.2"/>
    <path d="M 696.265281 245.191345 
L 700.474171 242.976739 
L 705.120985 240.705608 
L 707.702335 237.556172 
L 708.170096 236.18074 
L 709.40591 232.55012 
L 709.922757 227.697698 
L 712.091207 222.433662 
L 710.696585 216.394223 
L 706.721576 205.296556 
L 705.416592 203.15898 
" clip-path="url(#p4e5380efbe)" style="fill: none; stroke: #f29888; stroke-width: 0.2"/>
    <path d="M 692.73301 100.339027 
L 685.129482 104.420395 
L 676.351738 108.342334 
L 673.556657 109.971662 
" clip-path="url(#p4e5380efbe)" style="fill: none; stroke: #f29888; stroke-width: 0.2"/>
    <path d="M 703.044933 112.264273 
L 692.73301 100.339027 
" clip-path="url(#p4e5380efbe)" style="fill: none; stroke: #f29888; stroke-width: 0.2"/>
    <path d="M 662.016682 60.022477 
L 673.386362 75.002952 
L 682.852273 86.838338 
L 692.73301 100.339027 
" clip-path="url(#p4e5380efbe)" style="fill: none; stroke: #f29888; stroke-width: 0.2"/>
    <path d="M 692.73301 100.339027 
L 696.539586 98.433133 
L 699.585809 94.924258 
L 702.116148 89.144253 
L 704.95544 80.939487 
L 709.189354 69.740365 
L 712.080619 65.612618 
L 719.205799 59.626805 
L 722.303996 56.323738 
L 722.39993 55.758324 
" clip-path="url(#p4e5380efbe)" style="fill: none; stroke: #f29888; stroke-width: 0.2"/>
    <path d="M 655.752614 51.653229 
L 662.016682 60.022477 
" clip-path="url(#p4e5380efbe)" style="fill: none; stroke: #f29888; stroke-width: 0.2"/>
   </g>
  </g>
 </g>
 <defs>
  <clipPath id="p4e5380efbe">
   <rect x="7.2" y="7.2" width="837" height="637.224249"/>
  </clipPath>
 </defs>
</svg>
