<?xml version="1.0" encoding="utf-8" standalone="no"?>
<!DOCTYPE svg PUBLIC "-//W3C//DTD SVG 1.1//EN"
  "http://www.w3.org/Graphics/SVG/1.1/DTD/svg11.dtd">
<svg xmlns:xlink="http://www.w3.org/1999/xlink" width="617.015733pt" height="846pt" viewBox="0 0 617.015733 846" xmlns="http://www.w3.org/2000/svg" version="1.1">
 <metadata>
  <rdf:RDF xmlns:dc="http://purl.org/dc/elements/1.1/" xmlns:cc="http://creativecommons.org/ns#" xmlns:rdf="http://www.w3.org/1999/02/22-rdf-syntax-ns#">
   <cc:Work>
    <dc:type rdf:resource="http://purl.org/dc/dcmitype/StillImage"/>
    <dc:date>2025-03-16T14:38:37.065795</dc:date>
    <dc:format>image/svg+xml</dc:format>
    <dc:creator>
     <cc:Agent>
      <dc:title>Matplotlib v3.10.1, https://matplotlib.org/</dc:title>
     </cc:Agent>
    </dc:creator>
   </cc:Work>
  </rdf:RDF>
 </metadata>
 <defs>
  <style type="text/css">*{stroke-linejoin: round; stroke-linecap: butt}</style>
 </defs>
 <g id="figure_1">
  <g id="patch_1">
   <path d="M 0 846 
L 617.015733 846 
L 617.015733 0 
L 0 0 
z
" style="fill: #ffffff"/>
  </g>
  <g id="axes_1">
   <g id="PatchCollection_1">
    <path d="M 38.111794 281.889987 
L 35.154991 298.642905 
L 34.591624 316.846678 
L 47.91823 320.602139 
L 51.954527 324.449261 
L 63.405575 324.732099 
L 91.843365 327.547386 
L 108.361218 327.078608 
L 119.812266 329.611056 
L 133.420555 333.741016 
L 145.43497 336.273464 
L 156.228173 341.718097 
L 167.395788 341.998316 
L 177.156735 347.160111 
L 184.38428 356.546145 
L 190.859502 362.834055 
L 203.248328 366.495237 
L 217.140051 370.716857 
L 231.311707 374.941096 
L 237.694201 381.792063 
L 240.416558 389.206087 
L 243.231644 395.682555 
L 249.706866 401.687627 
L 253.93037 405.537367 
L 263.035221 407.975536 
L 273.17058 410.510604 
L 284.903311 408.164095 
L 294.477052 410.979382 
L 304.425205 415.48384 
L 309.399281 419.896638 
L 310.244332 427.027824 
L 314.373358 431.62918 
L 322.820364 431.720841 
L 334.927508 436.976915 
L 346.471284 446.08273 
L 357.358965 454.997367 
L 358.860111 461.193616 
L 357.827854 469.922314 
L 344.595726 483.438308 
L 339.151011 491.695608 
L 337.273704 497.797578 
L 339.901584 504.085487 
L 344.032359 508.872784 
L 346.565762 512.628245 
L 345.533505 515.443531 
L 342.155052 516.381087 
L 335.678081 518.633316 
L 327.983396 524.923845 
L 325.261039 530.179919 
L 323.383732 556.36863 
L 326.574979 564.72021 
L 331.736261 567.443836 
L 345.251822 579.176379 
L 351.634316 585.464288 
L 359.049066 592.412154 
L 366.369339 603.018582 
L 370.405636 606.116706 
L 372.470149 613.53073 
L 376.317491 622.919383 
L 379.603216 629.490131 
L 377.725909 631.836639 
L 373.220722 631.085023 
L 370.498364 630.896465 
L 366.556545 631.648081 
L 364.586509 635.120704 
L 364.960921 638.501666 
L 363.083614 646.667306 
L 360.1758 656.710677 
L 356.795598 659.245744 
L 351.539838 660.27758 
L 345.627983 665.064876 
L 337.931549 672.10702 
L 333.613568 677.551653 
L 329.953431 688.626859 
L 335.116463 700.362021 
L 341.122796 708.058883 
L 342.060575 717.164698 
L 340.372223 723.360947 
L 336.335925 729.651475 
L 330.422321 736.505061 
L 323.102048 742.607031 
L 319.930046 750.186044 
L 326.622217 753.260598 
L 332.159661 753.307738 
L 338.400438 753.590576 
L 341.967846 755.607107 
L 345.627983 759.925625 
L 349.522564 761.991915 
L 356.70287 761.664556 
L 363.646981 763.165169 
L 366.7455 765.794516 
L 370.68732 768.235303 
L 383.639514 769.549977 
L 396.02834 771.427707 
L 405.976493 770.393253 
L 414.047339 772.739762 
L 421.743773 780.627802 
L 438.450581 783.817587 
L 460.413148 788.887721 
L 499.362458 795.461088 
L 532.774324 801 
L 537.466717 791.797287 
L 550.700594 748.709 
L 555.674671 748.379023 
L 561.82272 747.957384 
L 561.82272 744.623562 
L 562.526054 739.930544 
L 568.345181 730.966149 
L 571.0203 727.210687 
L 571.723634 718.293431 
L 569.940804 713.317576 
L 556.801405 708.436 
L 549.199449 704.963377 
L 550.795072 695.763283 
L 550.044499 689.472755 
L 494.106698 675.110866 
L 498.799091 660.09164 
L 530.615334 661.406313 
L 545.163151 661.406313 
L 543.943689 654.269889 
L 508.936199 642.725905 
L 501.426971 634.557646 
L 481.905077 623.76266 
L 468.858406 616.534575 
L 463.978807 607.900157 
L 461.914294 600.014736 
L 466.982848 587.24774 
L 468.20231 583.589177 
L 467.826149 578.707601 
L 478.057735 572.79419 
L 491.947708 560.027193 
L 506.964414 548.38893 
L 512.878019 545.573644 
L 515.974788 540.786347 
L 519.540447 534.027041 
L 530.804289 523.609172 
L 544.599784 519.104713 
L 556.238038 519.573491 
L 576.792188 511.68807 
L 582.424109 505.963218 
L 574.164308 498.829413 
L 566.749557 483.624247 
L 557.270294 479.777126 
L 555.956354 474.989829 
L 551.169484 456.594879 
L 547.416619 441.389713 
L 539.907391 430.783285 
L 529.208666 420.928473 
L 518.884352 415.2979 
L 492.69828 408.446933 
L 477.776051 399.623956 
L 446.052537 389.488925 
L 435.164856 382.918178 
L 430.941352 343.21871 
L 448.304256 343.876047 
L 451.58998 330.362672 
L 451.58998 316.755018 
L 436.947685 312.813617 
L 439.201154 291.791938 
L 443.988024 272.176594 
L 451.495503 259.040336 
L 454.405066 249.374083 
L 453.280081 241.491281 
L 451.871664 229.855636 
L 446.80311 216.811039 
L 449.807151 202.17155 
L 442.674084 190.441626 
L 434.319805 183.779218 
L 427.186738 174.112965 
L 423.526602 159.944872 
L 413.860133 136.953803 
L 416.019123 115.465965 
L 394.996084 101.86093 
L 407.664845 83.094099 
L 410.105519 76.808809 
L 406.350905 71.366794 
L 376.880858 62.357878 
L 370.029475 65.361723 
L 359.612433 63.95277 
L 353.793306 52.411405 
L 353.511623 45.374499 
L 345.909666 45 
L 335.959764 50.442014 
L 310.713221 65.173164 
L 291.004122 83.282658 
L 277.301355 94.072407 
L 259.375085 94.824023 
L 241.730498 105.708051 
L 236.754672 123.817545 
L 226.993725 150.372898 
L 216.295 150.467178 
L 198.555936 150.935955 
L 183.633707 149.90412 
L 170.023668 145.6825 
L 163.36124 140.614984 
L 157.542113 135.827688 
L 147.405005 134.701573 
L 138.020219 137.425199 
L 123.285196 143.053153 
L 104.32492 140.146206 
L 103.574347 146.151278 
L 104.137714 152.156349 
L 102.823774 161.351206 
L 98.787477 173.269688 
L 90.434948 192.036519 
L 87.71259 196.166478 
L 87.432656 203.203385 
L 103.574347 210.897628 
L 80.861207 235.109092 
L 75.323763 239.333331 
L 70.068003 241.865779 
L 65.093927 243.69637 
L 56.554192 239.943528 
L 48.904997 235.156232 
L 46.369845 235.954987 
L 46.511562 238.534575 
L 50.124459 243.133313 
L 51.298432 246.181679 
L 49.890014 252.752427 
L 38.111794 281.889987 
" clip-path="url(#p3db6d9d5c3)" style="fill: #f29888"/>
   </g>
   <g id="LineCollection_1">
    <path d="M 550.249201 747.585505 
L 546.382613 753.21084 
L 542.867693 760.242509 
L 540.173328 769.618067 
L 537.828882 783.212627 
L 534.548406 789.071042 
L 531.971264 790.126447 
L 523.770949 788.837963 
L 508.773487 785.320819 
L 498.46317 784.501112 
L 479.833566 780.282111 
L 450.302284 772.244795 
L 447.278997 772.108614 
L 444.451665 773.575182 
L 439.871245 777.233745 
L 436.92669 778.38081 
L 433.144083 779.344555 
L 427.167493 778.883633 
L 422.462853 777.537534 
L 419.511299 775.64409 
L 417.56051 773.001649 
L 414.843401 770.576574 
L 406.256427 768.562662 
L 402.76775 767.758669 
L 396.649444 769.14929 
L 390.429662 768.866451 
L 382.455043 768.146262 
L 375.495185 767.365838 
L 370.979501 765.972599 
L 367.777756 764.361993 
L 363.855182 761.093642 
L 360.634192 759.132107 
L 356.536659 759.147821 
L 351.18992 760.711287 
L 346.82645 759.12687 
L 343.339523 755.787809 
L 341.575939 753.328689 
L 339.591907 752.624213 
L 331.389842 752.391133 
L 326.828669 751.199547 
L 322.045297 748.818993 
" clip-path="url(#p3db6d9d5c3)" style="fill: none; stroke: #f29888; stroke-width: 0.2"/>
    <path d="M 448.585939 729.748374 
L 454.914196 730.329763 
L 460.222443 731.201847 
L 466.477218 733.095291 
L 481.749364 735.567505 
L 522.61972 742.696072 
L 545.019685 747.205768 
L 550.249201 747.585505 
L 555.781396 746.477722 
L 559.126606 746.624379 
L 561.066955 748.009215 
" clip-path="url(#p3db6d9d5c3)" style="fill: none; stroke: #f29888; stroke-width: 0.2"/>
    <path d="M 370.318157 702.179517 
L 373.826079 703.997014 
L 393.897343 714.035147 
L 403.352112 719.272889 
L 410.042534 721.89176 
L 420.660778 725.382715 
L 431.132057 727.276159 
L 445.968557 729.601717 
L 448.585939 729.748374 
" clip-path="url(#p3db6d9d5c3)" style="fill: none; stroke: #f29888; stroke-width: 0.2"/>
    <path d="M 344.335038 745.676348 
L 348.381833 744.979728 
L 352.304407 743.900753 
L 355.096749 742.504895 
L 357.710632 739.296778 
L 359.818884 735.837249 
L 362.014616 730.180487 
L 368.657799 708.45957 
L 370.318157 702.179517 
L 372.547131 693.882934 
L 374.485674 689.368 
L 377.374242 685.486833 
L 393.010303 670.263335 
L 415.978883 649.503544 
" clip-path="url(#p3db6d9d5c3)" style="fill: none; stroke: #f29888; stroke-width: 0.2"/>
    <path d="M 415.978883 649.503544 
L 426.483404 655.254585 
L 432.043592 657.802746 
L 440.19142 660.644222 
L 481.413443 673.094335 
L 488.691726 674.979922 
L 493.053447 675.954142 
L 497.133484 676.865509 
" clip-path="url(#p3db6d9d5c3)" style="fill: none; stroke: #f29888; stroke-width: 0.2"/>
    <path d="M 460.638845 626.894829 
L 464.150267 627.041486 
L 476.658065 630.825755 
L 477.95101 631.524994 
L 480.148492 632.71658 
L 486.112834 638.245017 
L 496.874545 647.117752 
L 498.911065 648.864539 
L 499.493677 651.336754 
L 498.911065 654.390357 
L 493.053447 675.954142 
" clip-path="url(#p3db6d9d5c3)" style="fill: none; stroke: #f29888; stroke-width: 0.2"/>
    <path d="M 460.638845 626.894829 
L 457.603311 626.913162 
L 455.666518 626.695795 
L 445.123506 622.895813 
L 443.043247 622.4637 
L 440.676056 622.537028 
L 438.524063 622.822485 
L 432.958626 623.08961 
" clip-path="url(#p3db6d9d5c3)" style="fill: none; stroke: #f29888; stroke-width: 0.2"/>
    <path d="M 477.95101 631.524994 
L 462.236218 606.881416 
" clip-path="url(#p3db6d9d5c3)" style="fill: none; stroke: #f29888; stroke-width: 0.2"/>
    <path d="M 414.701684 612.962435 
L 415.534488 615.397985 
L 416.538751 617.406659 
L 417.901679 618.553725 
L 419.192875 619.271296 
L 420.769253 619.415334 
L 421.701783 618.771091 
L 422.700797 617.28881 
" clip-path="url(#p3db6d9d5c3)" style="fill: none; stroke: #f29888; stroke-width: 0.2"/>
    <path d="M 455.19413 591.699821 
L 458.002217 595.460519 
L 460.381656 600.219008 
L 461.618614 603.073578 
L 462.188979 605.262954 
L 462.236218 606.881416 
L 462.285207 608.594158 
L 461.427909 612.210819 
L 460.572361 616.875029 
L 460.666839 620.777147 
L 460.666839 623.537437 
L 460.638845 626.894829 
" clip-path="url(#p3db6d9d5c3)" style="fill: none; stroke: #f29888; stroke-width: 0.2"/>
    <path d="M 455.19413 591.699821 
L 462.157487 589.183085 
L 465.507946 588.345047 
L 466.568271 588.292004 
" clip-path="url(#p3db6d9d5c3)" style="fill: none; stroke: #f29888; stroke-width: 0.2"/>
    <path d="M 415.978883 649.503544 
L 423.313152 641.20696 
L 430.545946 632.737531 
L 432.829157 630.165799 
L 433.971637 627.882144 
L 434.25682 626.263682 
L 433.686455 624.076924 
L 432.958626 623.08961 
L 431.994604 622.267284 
L 430.591435 621.458053 
L 427.914567 620.054338 
L 422.700797 617.28881 
L 420.405339 616.073654 
L 417.065377 614.269252 
L 414.701684 612.962435 
L 412.990588 611.349211 
L 411.368721 609.479337 
L 410.465934 608.180376 
L 409.704863 605.896721 
L 408.467905 600.47042 
L 404.566326 579.055911 
L 403.462336 573.936018 
L 403.23314 572.870137 
L 402.85348 569.633213 
L 403.042435 566.11345 
L 403.61455 562.399891 
L 404.945986 557.167386 
L 408.179223 546.432633 
L 411.606665 536.645912 
L 413.296766 531.819333 
L 415.030607 529.127133 
L 418.856954 525.675461 
L 422.798774 523.328952 
L 425.708337 522.954454 
L 438.660531 525.76974 
L 459.214681 530.839875 
L 474.73002 538.363891 
L 497.329438 547.409472 
L 502.674427 549.973347 
" clip-path="url(#p3db6d9d5c3)" style="fill: none; stroke: #f29888; stroke-width: 0.2"/>
    <path d="M 455.19413 591.699821 
L 424.023485 580.648184 
L 410.870088 575.166887 
L 409.005029 574.619543 
L 406.704321 574.289565 
L 403.462336 573.936018 
" clip-path="url(#p3db6d9d5c3)" style="fill: none; stroke: #f29888; stroke-width: 0.2"/>
    <path d="M 503.84726 550.80479 
L 502.674427 549.973347 
" clip-path="url(#p3db6d9d5c3)" style="fill: none; stroke: #f29888; stroke-width: 0.2"/>
    <path d="M 388.986252 526.877523 
L 387.105446 522.181887 
L 386.010204 519.90085 
" clip-path="url(#p3db6d9d5c3)" style="fill: none; stroke: #f29888; stroke-width: 0.2"/>
    <path d="M 403.019691 517.517677 
L 406.219686 517.077707 
L 410.416945 515.7028 
L 413.030829 514.393364 
L 417.09162 512.261603 
L 419.63727 510.197933 
L 420.73776 508.477334 
L 421.493582 506.824827 
L 422.182919 505.863701 
L 423.283409 505.449919 
L 429.336981 504.486175 
L 444.749094 503.179358 
L 468.41751 501.59756 
L 484.30901 500.151943 
L 486.924643 500.083852 
L 492.222393 500.426924 
L 513.481626 502.079432 
L 518.29824 501.872541 
L 525.315834 500.495015 
L 527.7915 500.358834 
L 531.575857 501.183778 
L 541.186339 502.139666 
" clip-path="url(#p3db6d9d5c3)" style="fill: none; stroke: #f29888; stroke-width: 0.2"/>
    <path d="M 541.186339 502.139666 
L 541.461025 504.480937 
L 543.012908 506.672932 
L 544.382835 508.862308 
L 547.460359 514.757387 
" clip-path="url(#p3db6d9d5c3)" style="fill: none; stroke: #f29888; stroke-width: 0.2"/>
    <path d="M 502.674427 549.973347 
L 512.505357 538.811718 
L 517.939575 532.895689 
L 524.682484 526.288277 
L 529.36088 522.849699 
L 534.452178 520.579138 
L 538.994107 519.201612 
L 541.952659 518.033595 
L 545.873483 516.449178 
L 547.460359 514.757387 
L 551.033016 510.944311 
L 552.684626 508.605659 
L 554.610922 502.75772 
L 555.849629 497.459744 
L 564.931736 484.936302 
L 565.138188 483.975176 
L 563.34836 482.872631 
L 557.363022 480.947761 
L 556.400749 479.570235 
L 555.04307 476.569009 
L 553.468441 469.058086 
L 551.165985 459.124708 
L 550.198463 457.066275 
L 549.10672 454.64382 
L 548.744556 452.221364 
L 548.501363 447.617388 
L 547.775285 445.194933 
L 546.200656 442.04705 
L 541.476771 434.415659 
L 539.296785 431.388244 
L 535.4197 428.117274 
L 529.969736 423.392831 
L 526.699758 420.606352 
L 522.581229 418.427451 
L 517.008794 416.004995 
L 508.409573 413.338984 
L 495.207188 410.432038 
L 492.057932 409.342587 
L 487.108349 406.57444 
" clip-path="url(#p3db6d9d5c3)" style="fill: none; stroke: #f29888; stroke-width: 0.2"/>
    <path d="M 320.657567 748.447744 
L 322.045297 748.818993 
L 324.566452 748.161656 
L 332.569064 747.394327 
L 340.900598 746.407013 
L 344.335038 745.676348 
" clip-path="url(#p3db6d9d5c3)" style="fill: none; stroke: #f29888; stroke-width: 0.2"/>
    <path d="M 397.237305 519.90085 
L 394.042559 522.090226 
L 389.84355 525.926873 
L 388.986252 526.877523 
L 385.644541 531.861234 
L 382.72273 538.434601 
L 377.9761 552.767683 
L 373.959048 564.453085 
L 371.311923 568.742796 
L 368.208155 572.668484 
L 367.203892 573.310108 
L 365.379072 573.126787 
L 363.095861 572.304461 
L 357.070283 567.464787 
L 356.431684 566.278439 
L 356.249727 564.086444 
L 356.706369 560.527398 
L 358.805873 550.392366 
L 360.357757 539.345968 
L 362.366283 530.033262 
L 363.918167 525.835212 
L 365.652008 522.456868 
L 368.05769 518.607128 
" clip-path="url(#p3db6d9d5c3)" style="fill: none; stroke: #f29888; stroke-width: 0.2"/>
    <path d="M 337.398257 497.392733 
L 339.999561 497.624732 
" clip-path="url(#p3db6d9d5c3)" style="fill: none; stroke: #f29888; stroke-width: 0.2"/>
    <path d="M 403.252386 519.015672 
L 397.237305 519.90085 
L 386.010204 519.90085 
L 368.976224 518.756403 
L 368.05769 518.607128 
L 363.237578 517.816229 
L 358.9056 516.703208 
L 356.426435 515.928023 
L 353.870288 514.600255 
L 352.776796 513.626035 
L 349.606544 509.747487 
L 346.436292 505.504916 
L 342.149804 500.238366 
L 340.641659 498.585858 
L 339.999561 497.624732 
L 340.183268 496.438384 
L 351.228411 482.469325 
L 353.418894 480.918954 
L 356.61539 477.904633 
L 358.622167 475.806917 
L 360.174051 473.523262 
L 361.818663 470.053257 
L 360.996357 464.668858 
L 360.083072 458.187152 
" clip-path="url(#p3db6d9d5c3)" style="fill: none; stroke: #f29888; stroke-width: 0.2"/>
    <path d="M 327.88192 388.760879 
L 318.882044 381.215911 
L 315.982978 379.647208 
L 308.071345 375.608908 
L 305.244012 375.519867 
L 298.770539 376.941914 
L 288.741906 379.930046 
L 281.985 382.064426 
" clip-path="url(#p3db6d9d5c3)" style="fill: none; stroke: #f29888; stroke-width: 0.2"/>
    <path d="M 320.873074 338.083104 
L 325.768419 338.876622 
L 334.059712 341.17861 
L 346.350562 345.143581 
L 355.240215 348.325509 
L 357.794612 349.278778 
L 362.985637 351.614811 
L 378.99261 359.688791 
" clip-path="url(#p3db6d9d5c3)" style="fill: none; stroke: #f29888; stroke-width: 0.2"/>
    <path d="M 118.652289 291.213168 
L 119.311884 291.781463 
L 120.282905 292.62212 
L 122.135718 293.622529 
L 123.545885 294.382002 
L 130.080593 297.024443 
L 162.703395 308.683657 
L 182.17805 314.078531 
L 190.883996 316.453848 
L 193.735823 317.456875 
L 195.968296 318.910349 
L 197.408206 320.280018 
L 198.414219 321.649688 
L 199.180538 323.760498 
L 199.448225 325.997014 
L 199.150795 329.199893 
L 199.353747 331.281896 
L 199.883872 332.91869 
L 200.142811 333.387468 
L 200.788409 334.555485 
L 202.22307 335.838732 
L 205.242858 337.889308 
L 207.379104 338.942094 
L 208.388616 339.439679 
L 219.332283 344.284591 
L 222.299583 345.101679 
L 225.889736 345.793061 
L 239.473531 348.320271 
L 244.216662 349.349488 
L 248.96854 350.797723 
L 253.158802 352.308812 
L 254.567219 353.049953 
L 265.11548 358.376736 
L 274.984902 362.616689 
L 280.146184 364.117302 
L 285.965311 365.287937 
L 288.853879 365.680768 
L 290.753931 365.633628 
L 292.216586 364.72488 
L 293.348569 362.388847 
L 296.494326 348.755004 
L 298.166932 344.441723 
L 301.074746 340.091778 
L 303.993057 337.556711 
L 306.253524 336.336317 
L 308.858659 335.74969 
L 311.463794 336.040385 
L 320.873074 338.083104 
" clip-path="url(#p3db6d9d5c3)" style="fill: none; stroke: #f29888; stroke-width: 0.2"/>
    <path d="M 197.500935 303.752323 
L 200.863641 304.742256 
L 206.593539 304.991049 
L 215.246997 305.053902 
L 216.875863 305.082709 
L 218.79691 305.114136 
L 222.90669 305.488634 
L 228.447632 306.672364 
L 234.05156 308.602472 
L 249.680622 314.45303 
L 252.483461 316.074111 
L 253.478976 317.692574 
L 254.35027 320.18312 
L 254.848903 322.299168 
L 255.160329 325.2873 
L 254.600461 335.933011 
L 254.537476 339.732993 
L 254.973124 344.090794 
L 255.160329 348.199803 
L 254.973124 350.939142 
L 254.567219 353.049953 
" clip-path="url(#p3db6d9d5c3)" style="fill: none; stroke: #f29888; stroke-width: 0.2"/>
    <path d="M 43.223327 269.244817 
L 45.031411 266.111288 
L 48.416862 260.245017 
L 52.66311 252.912178 
L 53.887821 250.246167 
L 54.040035 247.750383 
L 52.853815 244.607737 
L 50.910024 241.719123 
L 46.497565 236.290203 
L 46.37891 236.119988 
" clip-path="url(#p3db6d9d5c3)" style="fill: none; stroke: #f29888; stroke-width: 0.2"/>
    <path d="M 64.759756 292.69283 
L 43.717471 310.197365 
L 41.248803 312.253178 
L 35.833941 317.196765 
" clip-path="url(#p3db6d9d5c3)" style="fill: none; stroke: #f29888; stroke-width: 0.2"/>
    <path d="M 207.379104 338.942094 
L 198.604924 338.248093 
L 195.99279 338.195716 
L 192.316908 338.122387 
L 185.033376 337.994063 
" clip-path="url(#p3db6d9d5c3)" style="fill: none; stroke: #f29888; stroke-width: 0.2"/>
    <path d="M 200.142811 333.387468 
L 195.99279 338.195716 
" clip-path="url(#p3db6d9d5c3)" style="fill: none; stroke: #f29888; stroke-width: 0.2"/>
    <path d="M 197.500935 303.752323 
L 196.692625 305.053902 
L 196.069772 306.235013 
L 195.57114 308.788412 
L 194.51264 314.641589 
L 193.735823 317.456875 
" clip-path="url(#p3db6d9d5c3)" style="fill: none; stroke: #f29888; stroke-width: 0.2"/>
    <path d="M 122.135718 293.622529 
L 118.05743 308.089173 
L 118.05743 309.461462 
L 118.654039 310.41735 
L 119.849007 311.373238 
L 124.448672 313.643799 
" clip-path="url(#p3db6d9d5c3)" style="fill: none; stroke: #f29888; stroke-width: 0.2"/>
    <path d="M 43.799702 290.545356 
L 44.135622 296.477099 
L 44.044644 301.225112 
L 43.717471 310.197365 
" clip-path="url(#p3db6d9d5c3)" style="fill: none; stroke: #f29888; stroke-width: 0.2"/>
    <path d="M 43.596749 279.061606 
L 40.849898 287.350333 
L 38.659414 293.284695 
L 37.562423 297.207764 
L 36.923824 304.145153 
L 35.69524 317.157679 
" clip-path="url(#p3db6d9d5c3)" style="fill: none; stroke: #f29888; stroke-width: 0.2"/>
    <path d="M 355.240215 348.325509 
L 359.302756 339.295641 
L 363.298813 327.400729 
L 370.816789 308.369392 
" clip-path="url(#p3db6d9d5c3)" style="fill: none; stroke: #f29888; stroke-width: 0.2"/>
    <path d="M 330.324344 396.790338 
L 334.434124 400.899347 
L 337.54664 402.892308 
L 341.470964 404.759563 
L 346.8247 406.812758 
L 348.257612 407.187256 
L 349.191892 406.938463 
L 350.187407 405.943292 
L 352.428628 402.703749 
L 357.285482 395.169257 
L 359.650924 391.497599 
L 366.640525 382.606532 
L 370.375893 376.816208 
L 372.657355 371.842972 
L 378.99261 359.688791 
L 381.107861 356.404726 
L 383.919448 352.041687 
L 390.020258 332.426343 
L 400.062888 303.053084 
L 411.080039 268.923956 
L 412.451715 264.670909 
L 417.707475 243.460672 
L 418.178114 234.171536 
L 415.760185 226.906788 
" clip-path="url(#p3db6d9d5c3)" style="fill: none; stroke: #f29888; stroke-width: 0.2"/>
    <path d="M 415.760185 226.906788 
L 414.402505 227.019399 
L 411.011805 227.302237 
L 397.924893 231.853835 
L 386.932237 241.84221 
L 376.585178 249.277185 
L 367.693776 254.470406 
L 362.145835 259.731718 
L 356.883077 264.427354 
L 350.267888 272.959636 
L 347.41956 277.597657 
L 338.033025 294.15416 
L 330.280604 312.077714 
L 321.679634 334.657621 
L 320.873074 338.083104 
L 313.921964 359.01836 
L 308.071345 375.608908 
" clip-path="url(#p3db6d9d5c3)" style="fill: none; stroke: #f29888; stroke-width: 0.2"/>
    <path d="M 306.703167 308.1206 
L 306.246525 300.816568 
L 306.612189 296.618518 
L 308.073094 290.503454 
L 309.624978 284.021748 
L 311.358819 279.915358 
L 313.230877 277.35934 
L 315.557828 275.259005 
L 319.300195 272.430624 
L 322.403963 269.418922 
L 325.50773 266.862904 
" clip-path="url(#p3db6d9d5c3)" style="fill: none; stroke: #f29888; stroke-width: 0.2"/>
    <path d="M 216.875863 305.082709 
L 216.783135 300.908229 
L 217.148798 297.165862 
L 218.700682 292.603788 
L 223.447312 280.646023 
L 224.635282 278.181665 
L 226.369123 275.89801 
L 228.834291 273.708633 
L 233.124279 271.244276 
L 239.240836 268.596597 
L 241.431319 267.410248 
L 244.262151 265.676556 
L 248.186475 264.945891 
L 250.599156 264.883038 
L 251.655906 264.85423 
L 257.772463 265.493235 
L 260.694274 266.2239 
L 263.705313 267.957592 
L 265.713839 269.966266 
L 269.82187 272.155643 
L 275.025142 274.164317 
L 282.968268 277.723363 
L 288.17154 279.184693 
L 298.121442 281.285027 
L 309.624978 284.021748 
" clip-path="url(#p3db6d9d5c3)" style="fill: none; stroke: #f29888; stroke-width: 0.2"/>
    <path d="M 265.713839 269.966266 
L 264.527619 277.084358 
L 263.341399 282.104734 
" clip-path="url(#p3db6d9d5c3)" style="fill: none; stroke: #f29888; stroke-width: 0.2"/>
    <path d="M 325.50773 266.862904 
L 328.247584 265.126593 
L 331.076666 263.851202 
L 334.271412 262.389872 
L 338.472171 260.928542 
L 342.305517 260.108836 
L 344.223064 259.833854 
L 345.774948 260.108836 
L 347.235853 261.203524 
L 348.464064 262.033706 
" clip-path="url(#p3db6d9d5c3)" style="fill: none; stroke: #f29888; stroke-width: 0.2"/>
    <path d="M 227.037465 258.097543 
L 237.659209 255.337252 
L 245.967998 253.129544 
L 250.069031 251.867248 
L 252.48696 250.290688 
L 254.484989 247.242322 
L 255.851416 244.403466 
L 255.956392 242.300512 
L 255.851416 237.041819 
L 255.11484 233.25755 
L 254.39576 228.760948 
" clip-path="url(#p3db6d9d5c3)" style="fill: none; stroke: #f29888; stroke-width: 0.2"/>
    <path d="M 357.476187 233.28112 
L 364.876941 234.991243 
L 380.079104 237.738439 
L 383.006163 238.516243 
L 384.663022 239.610931 
L 386.932237 241.84221 
" clip-path="url(#p3db6d9d5c3)" style="fill: none; stroke: #f29888; stroke-width: 0.2"/>
    <path d="M 119.843758 222.871107 
L 123.979782 224.97668 
L 130.087591 226.584666 
L 148.892154 229.635651 
L 161.909083 231.885262 
L 167.534005 232.367134 
L 192.766552 231.243638 
L 219.927143 228.834277 
L 239.695728 228.190034 
L 247.089484 229.153779 
L 250.466187 229.269009 
L 254.39576 228.760948 
L 267.034777 225.914235 
L 269.407218 225.822575 
L 271.415744 226.828221 
L 273.971891 227.92291 
L 281.549353 230.478928 
L 308.844662 240.336359 
L 311.30983 240.703001 
L 314.06718 240.475159 
L 315.968981 239.841392 
L 319.219714 237.306325 
L 321.754866 235.800474 
L 324.44923 234.768639 
L 327.778695 233.660856 
L 329.045396 232.710206 
L 330.789734 232.312138 
L 336.495138 232.233571 
L 348.938202 233.501105 
L 352.741804 234.056306 
L 357.351966 234.847205 
" clip-path="url(#p3db6d9d5c3)" style="fill: none; stroke: #f29888; stroke-width: 0.2"/>
    <path d="M 411.606665 536.645912 
L 409.062765 532.392865 
L 407.17671 528.912386 
L 405.563591 525.248585 
L 403.252386 519.015672 
L 403.019691 517.517677 
L 401.095145 505.117323 
L 399.922922 496.550995 
L 399.322813 484.747743 
L 398.561743 471.797425 
L 397.823417 461.790719 
L 396.806907 454.324317 
L 395.503464 450.094841 
L 393.281489 446.200579 
L 388.800796 439.98076 
L 384.400584 432.993612 
L 379.046847 425.438169 
L 376.144282 421.42344 
L 375.243245 419.679271 
L 374.912573 417.746545 
L 374.347456 407.789597 
L 375.269489 404.220075 
L 376.104042 388.737309 
L 376.254506 386.267714 
L 375.838105 384.568066 
L 374.665881 382.645815 
L 373.393931 381.187104 
L 372.123731 379.977185 
L 370.969003 378.492285 
L 370.375893 376.816208 
" clip-path="url(#p3db6d9d5c3)" style="fill: none; stroke: #f29888; stroke-width: 0.2"/>
    <path d="M 375.838105 384.568066 
L 379.382768 385.16255 
L 382.332572 385.922023 
L 384.900966 387.255028 
L 386.710039 388.208297 
L 388.61359 388.493754 
L 395.750156 388.588034 
L 402.031174 388.302577 
L 404.601318 387.637383 
L 409.073262 387.160749 
L 414.97287 386.778394 
L 417.352309 386.304378 
L 419.827975 385.16255 
L 421.635298 383.735265 
L 423.538849 381.831346 
L 425.2307 379.676015 
" clip-path="url(#p3db6d9d5c3)" style="fill: none; stroke: #f29888; stroke-width: 0.2"/>
    <path d="M 381.107861 356.404726 
L 386.613812 358.515537 
L 397.368524 363.75066 
L 405.362388 367.081864 
L 409.16949 368.603428 
L 412.213771 370.413068 
L 414.498732 372.220089 
L 416.972649 374.02711 
L 420.968706 377.072857 
L 425.2307 379.676015 
L 427.821839 381.260432 
L 433.815924 384.780195 
L 437.813731 387.637383 
L 440.096942 388.873491 
L 446.568665 392.107796 
L 452.944161 394.202893 
L 469.407776 399.626575 
L 477.592345 402.481145 
L 482.636405 404.385064 
L 487.108349 406.57444 
" clip-path="url(#p3db6d9d5c3)" style="fill: none; stroke: #f29888; stroke-width: 0.2"/>
    <path d="M 411.080039 268.923956 
L 416.717209 269.869368 
L 430.252015 271.823046 
L 433.180824 272.797266 
L 435.135113 274.612144 
L 437.227619 278.10048 
" clip-path="url(#p3db6d9d5c3)" style="fill: none; stroke: #f29888; stroke-width: 0.2"/>
    <path d="M 430.252015 271.823046 
L 435.57251 272.32325 
L 438.480324 273.292233 
L 440.418866 274.261215 
L 442.47813 275.835157 
L 443.028062 276.110266 
" clip-path="url(#p3db6d9d5c3)" style="fill: none; stroke: #f29888; stroke-width: 0.2"/>
    <path d="M 412.973092 191.863673 
L 408.78633 196.187429 
L 406.973758 198.837727 
L 406.135706 202.045844 
L 405.997488 207.487858 
L 406.833791 213.066054 
L 407.950027 217.25101 
L 410.600652 220.878146 
L 414.402505 227.019399 
" clip-path="url(#p3db6d9d5c3)" style="fill: none; stroke: #f29888; stroke-width: 0.2"/>
    <path d="M 431.79865 191.05968 
L 425.806314 191.8951 
L 420.286367 191.997236 
L 412.973092 191.863673 
L 402.648778 190.606615 
L 392.462682 188.095118 
L 381.998401 184.7482 
L 374.742863 182.794523 
L 359.099804 180.560625 
" clip-path="url(#p3db6d9d5c3)" style="fill: none; stroke: #f29888; stroke-width: 0.2"/>
    <path d="M 431.79865 191.05968 
L 439.533575 188.618892 
L 440.065242 188.361115 
" clip-path="url(#p3db6d9d5c3)" style="fill: none; stroke: #f29888; stroke-width: 0.2"/>
    <path d="M 406.842046 72.078664 
L 406.727066 72.301731 
L 405.43762 76.214325 
L 404.330132 82.638416 
" clip-path="url(#p3db6d9d5c3)" style="fill: none; stroke: #f29888; stroke-width: 0.2"/>
    <path d="M 119.311884 291.781463 
L 123.458405 292.18215 
L 133.714485 293.153751 
L 146.806646 294.279866 
L 155.864259 294.984342 
L 164.732916 295.172901 
L 175.902281 295.220041 
L 178.621139 295.408599 
L 182.421243 296.19688 
L 191.674809 299.423329 
L 196.722368 301.64675 
L 197.486938 302.560736 
L 197.500935 303.752323 
" clip-path="url(#p3db6d9d5c3)" style="fill: none; stroke: #f29888; stroke-width: 0.2"/>
    <path d="M 118.652289 291.213168 
L 114.005386 291.050798 
L 104.914531 290.293944 
L 97.337069 290.039914 
L 91.656159 290.165619 
L 85.341899 290.925092 
L 78.775699 291.681946 
L 70.946296 292.438799 
L 64.759756 292.69283 
L 58.447245 292.438799 
L 52.890556 291.55624 
L 50.617843 291.176504 
L 43.799702 290.545356 
" clip-path="url(#p3db6d9d5c3)" style="fill: none; stroke: #f29888; stroke-width: 0.2"/>
    <path d="M 43.799702 290.545356 
L 43.236334 289.186162 
L 42.95815 286.808227 
L 43.157603 283.639393 
L 43.596749 279.061606 
L 44.345573 271.278321 
L 45.031411 266.111288 
" clip-path="url(#p3db6d9d5c3)" style="fill: none; stroke: #f29888; stroke-width: 0.2"/>
    <path d="M 117.627031 252.770759 
L 134.083648 255.240354 
L 152.846221 256.840484 
L 182.372254 258.003263 
L 210.734812 258.293958 
L 223.910953 257.898508 
L 227.037465 258.097543 
L 229.878795 258.280864 
L 236.607707 258.912011 
L 240.183863 259.438405 
L 243.443344 260.488572 
L 245.967998 261.646113 
L 248.385928 263.222673 
L 250.599156 264.883038 
" clip-path="url(#p3db6d9d5c3)" style="fill: none; stroke: #f29888; stroke-width: 0.2"/>
    <path d="M 54.040035 247.750383 
L 56.172782 245.60029 
L 58.447245 244.335375 
L 61.237837 243.552332 
" clip-path="url(#p3db6d9d5c3)" style="fill: none; stroke: #f29888; stroke-width: 0.2"/>
    <path d="M 46.497565 236.290203 
L 48.224407 236.641132 
L 49.545346 237.052294 
L 50.950264 237.714869 
L 53.593891 239.364757 
L 56.716904 241.326292 
L 61.237837 243.552332 
L 64.399341 244.421798 
L 68.635091 245.126274 
L 76.14432 246.5038 
L 84.099692 247.96513 
L 88.708105 248.609373 
L 102.073201 249.421223 
L 117.616534 250.107367 
" clip-path="url(#p3db6d9d5c3)" style="fill: none; stroke: #f29888; stroke-width: 0.2"/>
    <path d="M 87.491375 201.727329 
L 94.723186 204.939697 
L 97.141115 206.016053 
L 109.194021 211.638769 
L 112.409762 213.406507 
L 115.140868 215.496366 
L 117.873723 218.869472 
L 119.843758 222.871107 
L 119.913742 225.992802 
L 119.0302 232.052869 
L 117.962952 240.024713 
L 117.616534 250.107367 
L 117.627031 252.770759 
L 117.75825 287.871488 
L 118.080174 289.542328 
L 118.652289 291.213168 
" clip-path="url(#p3db6d9d5c3)" style="fill: none; stroke: #f29888; stroke-width: 0.2"/>
    <path d="M 76.14432 246.5038 
L 76.123325 244.204431 
L 75.647437 243.253781 
L 73.745636 241.114163 
L 72.940874 240.481508 
" clip-path="url(#p3db6d9d5c3)" style="fill: none; stroke: #f29888; stroke-width: 0.2"/>
    <path d="M 279.35887 216.87913 
L 279.722784 208.391369 
L 279.35887 207.294062 
L 277.897964 206.566016 
L 273.880912 206.746718 
L 268.402955 206.474355 
L 262.013462 206.199374 
L 255.167328 206.199374 
L 250.693633 206.382695 
L 245.306654 207.660704 
L 237.547235 209.211075 
L 231.430679 209.302736 
L 222.759725 209.030373 
L 215.820862 208.847052 
L 205.87096 207.660704 
L 197.107277 207.385722 
L 182.592702 208.299708 
L 157.304169 208.024727 
L 143.884836 206.930039 
L 127.361734 205.013025 
L 119.693294 204.101658 
L 117.320854 204.28236 
L 114.033379 204.921365 
L 112.390517 205.196346 
L 108.739129 204.829704 
L 105.819068 204.1907 
L 103.079214 203.826676 
L 100.614046 203.826676 
L 98.60552 204.009997 
L 94.723186 204.939697 
" clip-path="url(#p3db6d9d5c3)" style="fill: none; stroke: #f29888; stroke-width: 0.2"/>
    <path d="M 289.406749 216.441779 
L 287.034308 216.075137 
L 283.655856 215.983476 
L 281.099709 216.350118 
L 279.35887 216.87913 
L 276.991678 218.175471 
L 273.614975 220.275806 
L 271.879384 221.642857 
L 270.602186 223.104187 
L 269.407218 225.822575 
" clip-path="url(#p3db6d9d5c3)" style="fill: none; stroke: #f29888; stroke-width: 0.2"/>
    <path d="M 330.789734 232.312138 
L 328.569508 230.861283 
L 326.744688 228.580246 
L 325.558468 226.024228 
L 325.283783 224.015554 
L 326.197068 218.358792 
L 329.482792 204.939697 
L 331.125655 192.526248 
L 330.305098 185.224835 
L 328.844193 181.118445 
L 326.337035 174.487463 
L 326.484 173.908693 
" clip-path="url(#p3db6d9d5c3)" style="fill: none; stroke: #f29888; stroke-width: 0.2"/>
    <path d="M 404.330132 82.638416 
L 402.120403 86.346737 
L 399.182846 90.691444 
L 393.120527 98.110706 
L 391.162739 101.693322 
L 388.475373 106.553947 
L 360.184548 176.061405 
L 359.099804 180.560625 
L 358.307241 183.849928 
L 356.429934 221.103369 
L 357.476187 233.28112 
L 357.351966 234.847205 
L 356.711618 239.58998 
L 356.053773 248.130119 
L 349.860234 257.607814 
L 348.464064 262.033706 
L 348.170133 264.270222 
L 347.41956 277.597657 
" clip-path="url(#p3db6d9d5c3)" style="fill: none; stroke: #f29888; stroke-width: 0.2"/>
    <path d="M 326.484 173.908693 
L 327.379789 173.371824 
L 330.42582 172.834956 
L 338.608639 171.939302 
L 343.087582 171.700985 
L 350.155914 171.41029 
" clip-path="url(#p3db6d9d5c3)" style="fill: none; stroke: #f29888; stroke-width: 0.2"/>
    <path d="M 360.184548 176.061405 
L 350.155914 171.41029 
L 317.277672 156.157984 
L 308.799173 153.494593 
L 287.177775 145.575126 
L 284.331196 144.532816 
L 279.607311 142.835787 
" clip-path="url(#p3db6d9d5c3)" style="fill: none; stroke: #f29888; stroke-width: 0.2"/>
    <path d="M 287.177775 145.575126 
L 287.116539 141.989892 
L 287.601175 135.086547 
L 289.418996 126.245239 
" clip-path="url(#p3db6d9d5c3)" style="fill: none; stroke: #f29888; stroke-width: 0.2"/>
    <path d="M 279.607311 142.835787 
L 277.462317 142.008224 
L 275.359313 140.32429 
L 271.993108 138.642974 
L 259.901711 133.3869 
L 248.33344 127.394923 
" clip-path="url(#p3db6d9d5c3)" style="fill: none; stroke: #f29888; stroke-width: 0.2"/>
    <path d="M 317.277672 156.157984 
L 338.111756 105.296889 
L 342.713171 89.554854 
L 345.862428 81.802996 
" clip-path="url(#p3db6d9d5c3)" style="fill: none; stroke: #f29888; stroke-width: 0.2"/>
    <path d="M 393.120527 98.110706 
L 376.749639 91.128796 
L 365.485797 86.888843 
L 357.491933 83.861428 
L 351.070949 82.287487 
L 345.862428 81.802996 
" clip-path="url(#p3db6d9d5c3)" style="fill: none; stroke: #f29888; stroke-width: 0.2"/>
   </g>
  </g>
 </g>
 <defs>
  <clipPath id="p3db6d9d5c3">
   <rect x="7.2" y="7.2" width="602.615733" height="831.6"/>
  </clipPath>
 </defs>
</svg>
