<?xml version="1.0" encoding="utf-8" standalone="no"?>
<!DOCTYPE svg PUBLIC "-//W3C//DTD SVG 1.1//EN"
  "http://www.w3.org/Graphics/SVG/1.1/DTD/svg11.dtd">
<svg xmlns:xlink="http://www.w3.org/1999/xlink" width="851.4pt" height="627.534372pt" viewBox="0 0 851.4 627.534372" xmlns="http://www.w3.org/2000/svg" version="1.1">
 <metadata>
  <rdf:RDF xmlns:dc="http://purl.org/dc/elements/1.1/" xmlns:cc="http://creativecommons.org/ns#" xmlns:rdf="http://www.w3.org/1999/02/22-rdf-syntax-ns#">
   <cc:Work>
    <dc:type rdf:resource="http://purl.org/dc/dcmitype/StillImage"/>
    <dc:date>2025-03-16T14:37:53.661213</dc:date>
    <dc:format>image/svg+xml</dc:format>
    <dc:creator>
     <cc:Agent>
      <dc:title>Matplotlib v3.10.1, https://matplotlib.org/</dc:title>
     </cc:Agent>
    </dc:creator>
   </cc:Work>
  </rdf:RDF>
 </metadata>
 <defs>
  <style type="text/css">*{stroke-linejoin: round; stroke-linecap: butt}</style>
 </defs>
 <g id="figure_1">
  <g id="patch_1">
   <path d="M 0 627.534372 
L 851.4 627.534372 
L 851.4 0 
L 0 0 
z
" style="fill: #ffffff"/>
  </g>
  <g id="axes_1">
   <g id="PatchCollection_1">
    <path d="M 457.684899 510.830834 
L 485.028304 497.347067 
L 503.665391 482.349137 
L 527.284055 507.281584 
L 549.010775 526.144699 
L 537.527446 543.507386 
L 549.367055 558.446144 
L 555.284395 578.257063 
L 565.779154 589.135159 
L 585.809674 581.302296 
L 586.005416 592.00816 
L 626.914204 592.464628 
L 629.002594 558.651132 
L 683.034584 529.317785 
L 806.154545 457.492768 
L 779.539189 412.162968 
L 659.910909 471.968719 
L 630.901579 435.726011 
L 553.519896 481.055812 
L 517.258233 423.046346 
L 473.744238 348.658981 
L 430.835074 283.650341 
L 453.485587 229.702595 
L 519.722618 216.26215 
L 512.964571 174.252309 
L 420.156542 190.207553 
L 415.586165 182.87765 
L 393.225041 190.550961 
L 389.93896 193.337317 
L 373.051587 185.89858 
L 370.913909 173.568663 
L 350.124359 159.552351 
L 335.764036 160.192674 
L 298.519436 105.227385 
L 290.010972 109.182383 
L 287.193124 108.504021 
L 279.654218 94.56273 
L 274.407895 92.999962 
L 205.478348 101.933842 
L 159.128902 35.069744 
L 143.330787 38.88421 
L 117.361804 39.64182 
L 91.802613 45.728059 
L 62.736954 45.267364 
L 46.718453 58.39927 
L 45.245455 79.824733 
L 73.256357 86.678092 
L 109.580685 82.938648 
L 129.825958 95.32034 
L 137.5768 104.174973 
L 171.348026 126.681377 
L 181.866724 134.428652 
L 177.806827 148.819015 
L 188.881068 167.64409 
L 213.805152 239.660358 
L 237.229482 225.754993 
L 256.717837 268.912344 
L 272.559607 326.762257 
L 348.419708 363.389581 
L 353.10204 348.492032 
L 398.048898 323.440185 
L 437.35654 387.112177 
L 418.84549 398.293528 
L 442.072669 449.977954 
L 437.375551 456.765801 
L 457.684899 510.830834 
" clip-path="url(#p5e880f7e6b)" style="fill: #fbd6c9"/>
   </g>
   <g id="PatchCollection_2">
    <path d="M 574.576304 527.36089 
L 574.168624 526.742756 
L 575.410674 525.922805 
L 575.818354 526.540938 
L 574.576304 527.36089 
" clip-path="url(#p5e880f7e6b)" style="fill: #e6482f"/>
    <path d="M 573.589846 526.71317 
L 572.918829 525.696684 
L 574.027802 524.964433 
L 574.698819 525.98092 
L 573.589846 526.71317 
" clip-path="url(#p5e880f7e6b)" style="fill: #e6482f"/>
    <path d="M 570.503732 523.72077 
L 568.925117 521.066493 
L 570.148156 520.338469 
L 571.726771 522.993802 
L 570.503732 523.72077 
" clip-path="url(#p5e880f7e6b)" style="fill: #e6482f"/>
    <path d="M 591.476351 520.904827 
L 592.440277 522.263665 
L 591.447482 522.969499 
L 590.482851 521.610662 
L 591.476351 520.904827 
" clip-path="url(#p5e880f7e6b)" style="fill: #e6482f"/>
    <path d="M 593.796393 521.008378 
L 592.995116 521.577906 
L 592.356488 520.678707 
L 593.158469 520.109178 
L 593.796393 521.008378 
" clip-path="url(#p5e880f7e6b)" style="fill: #e6482f"/>
    <path d="M 574.499556 520.743162 
L 578.135579 518.341422 
L 578.925591 519.538594 
L 575.289567 521.940333 
L 574.499556 520.743162 
" clip-path="url(#p5e880f7e6b)" style="fill: #e6482f"/>
    <path d="M 595.667213 519.896794 
L 594.72441 520.566703 
L 593.878774 519.375871 
L 594.821577 518.705962 
L 595.667213 519.896794 
" clip-path="url(#p5e880f7e6b)" style="fill: #e6482f"/>
    <path d="M 589.6175 518.185039 
L 590.394838 519.280774 
L 589.662563 519.801697 
L 588.884522 518.705962 
L 589.6175 518.185039 
" clip-path="url(#p5e880f7e6b)" style="fill: #e6482f"/>
    <path d="M 597.506348 518.562259 
L 596.844485 519.032464 
L 596.019972 517.871218 
L 596.681131 517.401013 
L 597.506348 518.562259 
" clip-path="url(#p5e880f7e6b)" style="fill: #e6482f"/>
    <path d="M 571.866184 516.830429 
L 572.962484 516.106631 
L 574.729095 518.783097 
L 573.632092 519.507951 
L 571.866184 516.830429 
" clip-path="url(#p5e880f7e6b)" style="fill: #e6482f"/>
    <path d="M 591.577038 516.25456 
L 592.669113 517.79197 
L 591.836151 518.383687 
L 590.744076 516.846278 
L 591.577038 516.25456 
" clip-path="url(#p5e880f7e6b)" style="fill: #e6482f"/>
    <path d="M 594.730043 514.720321 
L 595.474287 515.769563 
L 594.228716 516.65397 
L 593.484472 515.605784 
L 594.730043 514.720321 
" clip-path="url(#p5e880f7e6b)" style="fill: #e6482f"/>
    <path d="M 569.225772 512.863807 
L 570.327 512.136839 
L 572.125297 514.862967 
L 571.024069 515.589935 
L 569.225772 512.863807 
" clip-path="url(#p5e880f7e6b)" style="fill: #e6482f"/>
    <path d="M 567.666873 502.248814 
L 566.279072 500.170406 
L 568.259029 498.859117 
L 569.127197 500.170406 
L 567.917536 500.961828 
L 568.433648 501.741628 
L 569.656687 500.940696 
L 570.339674 501.973032 
L 569.22718 502.709509 
L 569.453904 503.05186 
L 568.580807 503.628784 
L 568.354788 503.28749 
L 565.515817 505.168307 
L 564.703978 503.920417 
L 565.984754 503.071936 
L 566.118535 503.273754 
L 567.666873 502.248814 
" clip-path="url(#p5e880f7e6b)" style="fill: #e6482f"/>
    <path d="M 562.904977 493.164891 
L 562.836678 493.758722 
L 562.189601 493.684758 
L 562.104404 494.433914 
L 561.563648 494.372629 
L 561.648845 493.623473 
L 560.922908 493.539998 
L 560.990502 492.946167 
L 561.716439 493.029642 
L 561.793892 492.354449 
L 562.334648 492.416791 
L 562.2579 493.090927 
L 562.904977 493.164891 
" clip-path="url(#p5e880f7e6b)" style="fill: #e6482f"/>
    <path d="M 714.648416 472.904901 
L 708.245945 475.775788 
L 707.530569 474.180264 
L 713.933041 471.30832 
L 714.648416 472.904901 
" clip-path="url(#p5e880f7e6b)" style="fill: #e6482f"/>
    <path d="M 716.391089 471.572479 
L 716.598801 472.06276 
L 716.10522 472.271974 
L 715.897507 471.780637 
L 716.391089 471.572479 
" clip-path="url(#p5e880f7e6b)" style="fill: #e6482f"/>
    <path d="M 737.491856 458.953043 
L 737.98262 460.067797 
L 737.294705 460.371052 
L 736.80394 459.256298 
L 737.491856 458.953043 
" clip-path="url(#p5e880f7e6b)" style="fill: #e6482f"/>
    <path d="M 753.328696 453.343348 
L 752.566145 453.705775 
L 752.037359 452.591021 
L 752.79991 452.228594 
L 753.328696 453.343348 
" clip-path="url(#p5e880f7e6b)" style="fill: #e6482f"/>
    <path d="M 767.508063 447.114463 
L 767.017298 446.000766 
L 767.757318 445.674264 
L 768.248082 446.787962 
L 767.508063 447.114463 
" clip-path="url(#p5e880f7e6b)" style="fill: #e6482f"/>
    <path d="M 544.758655 505.084833 
L 545.783135 504.443453 
L 546.321075 505.303557 
L 545.296595 505.944937 
L 544.758655 505.084833 
" clip-path="url(#p5e880f7e6b)" style="fill: #e6482f"/>
    <path d="M 545.212102 481.275593 
L 545.504308 481.926482 
L 545.796514 482.578428 
L 545.092404 482.894363 
L 544.800198 482.242417 
L 544.507992 481.590471 
L 545.212102 481.275593 
" clip-path="url(#p5e880f7e6b)" style="fill: #e6482f"/>
    <path d="M 487.892624 423.27141 
L 488.394654 424.096645 
L 487.930646 424.399901 
L 487.371582 423.603195 
L 487.892624 423.27141 
" clip-path="url(#p5e880f7e6b)" style="fill: #e6482f"/>
    <path d="M 509.165898 412.641625 
L 505.204808 402.440963 
L 510.800635 412.007054 
L 509.165898 412.641625 
" clip-path="url(#p5e880f7e6b)" style="fill: #e6482f"/>
    <path d="M 317.797263 336.59111 
L 317.158635 337.715374 
L 308.935335 333.047144 
L 309.573962 331.922881 
L 317.797263 336.59111 
" clip-path="url(#p5e880f7e6b)" style="fill: #e6482f"/>
    <path d="M 472.288139 209.434151 
L 473.383734 209.420415 
L 473.426685 212.686485 
L 472.330386 212.700221 
L 472.288139 209.434151 
" clip-path="url(#p5e880f7e6b)" style="fill: #e6482f"/>
    <path d="M 472.153654 207.967537 
L 473.314731 207.959083 
L 473.324589 209.21437 
L 472.163511 209.22388 
L 472.153654 207.967537 
" clip-path="url(#p5e880f7e6b)" style="fill: #e6482f"/>
    <path d="M 466.775662 201.878128 
L 473.838589 201.870731 
L 473.839997 202.818536 
L 474.575088 202.81748 
L 474.576496 203.667017 
L 473.970962 203.668074 
L 473.97237 204.989929 
L 474.405398 204.988872 
L 474.406102 205.81622 
L 467.078429 205.823617 
L 467.077725 204.765921 
L 472.650756 204.760638 
L 472.648643 202.984428 
L 466.776366 202.990768 
L 466.775662 201.878128 
" clip-path="url(#p5e880f7e6b)" style="fill: #e6482f"/>
    <path d="M 478.085076 203.006618 
L 487.43636 202.745628 
L 487.477903 204.234432 
L 478.126619 204.495422 
L 478.085076 203.006618 
" clip-path="url(#p5e880f7e6b)" style="fill: #e6482f"/>
    <path d="M 282.91988 164.923245 
L 283.678207 166.511373 
L 282.674146 166.990031 
L 281.916524 165.401903 
L 282.91988 164.923245 
" clip-path="url(#p5e880f7e6b)" style="fill: #e6482f"/>
    <path d="M 282.23971 162.461277 
L 282.927626 163.902532 
L 281.821469 164.429795 
L 281.133553 162.98854 
L 282.23971 162.461277 
" clip-path="url(#p5e880f7e6b)" style="fill: #e6482f"/>
    <path d="M 281.291978 159.95176 
L 281.916524 161.259879 
L 280.746997 161.818841 
L 280.122452 160.510722 
L 281.291978 159.95176 
" clip-path="url(#p5e880f7e6b)" style="fill: #e6482f"/>
    <path d="M 258.995632 232.708732 
L 259.558216 233.657594 
L 257.98101 234.592719 
L 257.418426 233.643857 
L 258.995632 232.708732 
" clip-path="url(#p5e880f7e6b)" style="fill: #e6482f"/>
    <path d="M 271.733686 220.708486 
L 270.99437 221.19137 
L 270.710614 220.757092 
L 271.450633 220.274208 
L 271.733686 220.708486 
" clip-path="url(#p5e880f7e6b)" style="fill: #e6482f"/>
    <path d="M 269.741759 217.121198 
L 270.711318 218.633248 
L 269.84315 219.191153 
L 268.872887 217.678046 
L 269.741759 217.121198 
" clip-path="url(#p5e880f7e6b)" style="fill: #e6482f"/>
    <path d="M 264.339827 214.590548 
L 265.288263 216.075125 
L 264.268712 216.726015 
L 263.320276 215.242494 
L 264.339827 214.590548 
" clip-path="url(#p5e880f7e6b)" style="fill: #e6482f"/>
    <path d="M 265.22771 209.445774 
L 265.660737 210.09455 
L 265.11646 210.456977 
L 265.473444 211.031789 
L 264.925646 211.372027 
L 264.094797 210.201271 
L 265.22771 209.445774 
" clip-path="url(#p5e880f7e6b)" style="fill: #e6482f"/>
    <path d="M 259.627219 208.418721 
L 260.295419 209.436264 
L 258.266175 210.775026 
L 257.576147 209.7205 
L 259.627219 208.418721 
" clip-path="url(#p5e880f7e6b)" style="fill: #e6482f"/>
    <path d="M 267.031639 208.860396 
L 266.136716 209.439434 
L 265.824795 208.957607 
L 266.719719 208.378569 
L 267.031639 208.860396 
" clip-path="url(#p5e880f7e6b)" style="fill: #e6482f"/>
    <path d="M 258.409813 206.859123 
L 259.35332 208.381739 
L 258.559788 208.873076 
L 257.616985 207.349403 
L 258.409813 206.859123 
" clip-path="url(#p5e880f7e6b)" style="fill: #e6482f"/>
    <path d="M 259.987019 202.128551 
L 259.142087 202.67906 
L 258.509092 201.705896 
L 259.354024 201.156443 
L 259.987019 202.128551 
" clip-path="url(#p5e880f7e6b)" style="fill: #e6482f"/>
    <path d="M 258.806931 198.598321 
L 259.137159 199.141433 
L 257.447295 200.169543 
L 257.116363 199.627487 
L 258.806931 198.598321 
" clip-path="url(#p5e880f7e6b)" style="fill: #e6482f"/>
    <path d="M 280.243558 157.115742 
L 280.774457 158.227326 
L 279.674638 158.752475 
L 279.143739 157.639835 
L 280.243558 157.115742 
" clip-path="url(#p5e880f7e6b)" style="fill: #e6482f"/>
    <path d="M 313.895789 156.624405 
L 314.374584 157.183367 
L 313.876074 157.610249 
L 313.397279 157.051287 
L 313.895789 156.624405 
" clip-path="url(#p5e880f7e6b)" style="fill: #e6482f"/>
    <path d="M 279.171903 154.581922 
L 279.697873 155.68294 
L 278.755774 156.133068 
L 278.229804 155.030994 
L 279.171903 154.581922 
" clip-path="url(#p5e880f7e6b)" style="fill: #e6482f"/>
    <path d="M 278.847308 153.122704 
L 277.512316 153.758801 
L 276.960294 152.602838 
L 278.295286 151.965685 
L 278.847308 153.122704 
" clip-path="url(#p5e880f7e6b)" style="fill: #e6482f"/>
    <path d="M 305.39859 149.621004 
L 305.665448 150.097548 
L 305.057801 150.437785 
L 304.791648 149.960185 
L 305.39859 149.621004 
" clip-path="url(#p5e880f7e6b)" style="fill: #e6482f"/>
    <path d="M 277.284184 148.932075 
L 277.844656 150.107057 
L 276.408976 150.791759 
L 275.848504 149.617834 
L 277.284184 148.932075 
" clip-path="url(#p5e880f7e6b)" style="fill: #e6482f"/>
    <path d="M 304.333272 149.259633 
L 303.908694 148.4904 
L 304.552954 148.13537 
L 304.977533 148.904603 
L 304.333272 149.259633 
" clip-path="url(#p5e880f7e6b)" style="fill: #e6482f"/>
    <path d="M 307.775666 147.354514 
L 308.275584 148.080424 
L 307.460929 148.640443 
L 306.96101 147.915589 
L 307.775666 147.354514 
" clip-path="url(#p5e880f7e6b)" style="fill: #e6482f"/>
    <path d="M 275.972427 146.731097 
L 275.263389 147.049145 
L 274.815575 146.086547 
L 275.524614 145.767442 
L 275.972427 146.731097 
" clip-path="url(#p5e880f7e6b)" style="fill: #e6482f"/>
    <path d="M 274.532523 143.852813 
L 275.228887 145.052098 
L 274.456479 145.500113 
L 273.760818 144.301884 
L 274.532523 143.852813 
" clip-path="url(#p5e880f7e6b)" style="fill: #e6482f"/>
    <path d="M 277.365157 142.956783 
L 278.165026 144.333583 
L 277.365861 144.797448 
L 276.565992 143.420648 
L 277.365157 142.956783 
" clip-path="url(#p5e880f7e6b)" style="fill: #e6482f"/>
    <path d="M 273.648161 142.249892 
L 272.586363 142.866969 
L 271.883661 141.656061 
L 272.945459 141.040041 
L 273.648161 142.249892 
" clip-path="url(#p5e880f7e6b)" style="fill: #e6482f"/>
    <path d="M 276.37025 140.963963 
L 277.15322 142.312234 
L 276.403343 142.747569 
L 275.620372 141.399298 
L 276.37025 140.963963 
" clip-path="url(#p5e880f7e6b)" style="fill: #e6482f"/>
    <path d="M 275.413364 139.04088 
L 276.044247 140.127105 
L 275.240153 140.594139 
L 274.609271 139.507914 
L 275.413364 139.04088 
" clip-path="url(#p5e880f7e6b)" style="fill: #e6482f"/>
    <path d="M 274.531114 136.753257 
L 275.392241 138.235721 
L 274.524073 138.739738 
L 273.662947 137.257274 
L 274.531114 136.753257 
" clip-path="url(#p5e880f7e6b)" style="fill: #e6482f"/>
    <path d="M 272.746196 139.713959 
L 271.640039 140.355339 
L 270.762718 138.844345 
L 271.868875 138.202966 
L 272.746196 139.713959 
" clip-path="url(#p5e880f7e6b)" style="fill: #e6482f"/>
    <path d="M 271.420357 137.15795 
L 270.237452 137.843708 
L 269.348161 136.313696 
L 270.531066 135.62688 
L 271.420357 137.15795 
" clip-path="url(#p5e880f7e6b)" style="fill: #e6482f"/>
    <path d="M 269.8516 134.403293 
L 268.867254 134.973878 
L 268.176522 133.785159 
L 269.160868 133.213518 
L 269.8516 134.403293 
" clip-path="url(#p5e880f7e6b)" style="fill: #e6482f"/>
    <path d="M 272.442724 132.645046 
L 271.183776 133.37624 
L 270.642315 132.444285 
L 271.901264 131.713091 
L 272.442724 132.645046 
" clip-path="url(#p5e880f7e6b)" style="fill: #e6482f"/>
    <path d="M 268.458166 131.718374 
L 267.399185 132.332281 
L 266.960524 131.577841 
L 268.018801 130.962877 
L 268.458166 131.718374 
" clip-path="url(#p5e880f7e6b)" style="fill: #e6482f"/>
    <path d="M 271.224614 130.645886 
L 270.17197 131.256623 
L 269.674868 130.399689 
L 270.726808 129.788952 
L 271.224614 130.645886 
" clip-path="url(#p5e880f7e6b)" style="fill: #e6482f"/>
    <path d="M 270.178307 129.030285 
L 269.095386 129.658985 
L 268.665174 128.917225 
L 269.748096 128.288525 
L 270.178307 129.030285 
" clip-path="url(#p5e880f7e6b)" style="fill: #e6482f"/>
    <path d="M 267.273853 129.315577 
L 266.290212 129.887219 
L 265.371348 128.305431 
L 266.355694 127.734846 
L 267.273853 129.315577 
" clip-path="url(#p5e880f7e6b)" style="fill: #e6482f"/>
    <path d="M 269.372101 126.945537 
L 268.182155 127.636579 
L 267.579437 126.598959 
L 268.769383 125.907918 
L 269.372101 126.945537 
" clip-path="url(#p5e880f7e6b)" style="fill: #e6482f"/>
    <path d="M 265.571315 126.629602 
L 264.398268 127.310077 
L 263.713873 126.132982 
L 264.887625 125.45145 
L 265.571315 126.629602 
" clip-path="url(#p5e880f7e6b)" style="fill: #e6482f"/>
    <path d="M 253.71692 232.226905 
L 254.062638 232.827076 
L 253.259953 233.289883 
L 252.914235 232.689713 
L 253.71692 232.226905 
" clip-path="url(#p5e880f7e6b)" style="fill: #e6482f"/>
    <path d="M 258.552043 231.859195 
L 258.92663 232.560803 
L 257.245919 233.457889 
L 256.870629 232.756281 
L 258.552043 231.859195 
" clip-path="url(#p5e880f7e6b)" style="fill: #e6482f"/>
    <path d="M 250.336488 234.719515 
L 247.806621 230.878634 
L 248.967699 230.113627 
L 251.497566 233.955566 
L 250.336488 234.719515 
" clip-path="url(#p5e880f7e6b)" style="fill: #e6482f"/>
    <path d="M 256.669253 231.009657 
L 256.962163 231.443935 
L 256.247491 231.924706 
L 255.954582 231.490428 
L 256.669253 231.009657 
" clip-path="url(#p5e880f7e6b)" style="fill: #e6482f"/>
    <path d="M 252.971268 230.981128 
L 252.151684 231.523183 
L 251.708094 230.853274 
L 252.526974 230.311219 
L 252.971268 230.981128 
" clip-path="url(#p5e880f7e6b)" style="fill: #e6482f"/>
    <path d="M 248.751537 225.602837 
L 248.326959 225.901865 
L 248.894471 226.705968 
L 246.09493 228.678712 
L 244.246641 226.056135 
L 247.010977 224.107693 
L 247.446117 224.72477 
L 247.905197 224.401438 
L 248.751537 225.602837 
" clip-path="url(#p5e880f7e6b)" style="fill: #e6482f"/>
    <path d="M 243.074298 218.253914 
L 244.305082 220.112542 
L 243.028531 220.956796 
L 241.798451 219.099225 
L 242.295553 218.769554 
L 243.074298 218.253914 
" clip-path="url(#p5e880f7e6b)" style="fill: #e6482f"/>
    <path d="M 240.241664 215.619714 
L 242.295553 218.769554 
L 241.28093 219.396141 
L 239.279146 216.28117 
L 240.241664 215.619714 
" clip-path="url(#p5e880f7e6b)" style="fill: #e6482f"/>
    <path d="M 221.122262 232.684429 
L 222.861414 231.90463 
L 223.403579 233.111311 
L 221.663723 233.891111 
L 221.122262 232.684429 
" clip-path="url(#p5e880f7e6b)" style="fill: #e6482f"/>
    <path d="M 227.616268 228.106014 
L 228.556255 227.544939 
L 229.5061 229.13518 
L 228.566113 229.696255 
L 227.616268 228.106014 
" clip-path="url(#p5e880f7e6b)" style="fill: #e6482f"/>
    <path d="M 230.888972 227.292402 
L 231.657155 226.912012 
L 231.927534 227.456181 
L 231.15935 227.837628 
L 230.888972 227.292402 
" clip-path="url(#p5e880f7e6b)" style="fill: #e6482f"/>
    <path d="M 223.118414 225.71484 
L 226.75655 223.654395 
L 227.785255 225.470757 
L 226.178476 226.380523 
L 225.610259 225.377773 
L 223.578902 226.527396 
L 223.118414 225.71484 
" clip-path="url(#p5e880f7e6b)" style="fill: #e6482f"/>
    <path d="M 240.983796 220.286887 
L 241.799859 221.771465 
L 239.711469 222.918974 
L 238.895406 221.434397 
L 240.983796 220.286887 
" clip-path="url(#p5e880f7e6b)" style="fill: #e6482f"/>
    <path d="M 248.613531 215.689452 
L 249.30708 216.811603 
L 247.511599 217.921073 
L 246.818051 216.798923 
L 248.613531 215.689452 
" clip-path="url(#p5e880f7e6b)" style="fill: #e6482f"/>
    <path d="M 252.52627 214.715231 
L 251.062426 215.53624 
L 250.48576 214.507074 
L 251.949604 213.687122 
L 252.52627 214.715231 
" clip-path="url(#p5e880f7e6b)" style="fill: #e6482f"/>
    <path d="M 244.472661 211.2484 
L 245.973823 213.721991 
L 245.057776 214.326388 
L 243.490427 211.843287 
L 244.472661 211.2484 
" clip-path="url(#p5e880f7e6b)" style="fill: #e6482f"/>
    <path d="M 251.985514 210.005793 
L 251.629938 209.441548 
L 252.573446 208.845603 
L 252.805098 209.213314 
L 253.205736 208.95972 
L 253.974624 210.176968 
L 253.56272 210.436901 
L 253.838027 210.873293 
L 252.851569 211.49671 
L 252.49881 210.938805 
L 251.463064 211.592864 
L 250.894847 210.694721 
L 251.985514 210.005793 
" clip-path="url(#p5e880f7e6b)" style="fill: #e6482f"/>
    <path d="M 242.690558 209.584194 
L 242.874331 209.777559 
L 242.408914 210.22029 
L 242.225142 210.025869 
L 242.690558 209.584194 
" clip-path="url(#p5e880f7e6b)" style="fill: #e6482f"/>
    <path d="M 241.351341 208.709297 
L 242.049114 208.20211 
L 242.539879 208.877303 
L 241.84281 209.384489 
L 241.351341 208.709297 
" clip-path="url(#p5e880f7e6b)" style="fill: #e6482f"/>
    <path d="M 240.988021 206.566434 
L 241.682273 207.486766 
L 240.874659 208.09539 
L 240.180406 207.175058 
L 240.988021 206.566434 
" clip-path="url(#p5e880f7e6b)" style="fill: #e6482f"/>
    <path d="M 242.244153 206.160684 
L 241.93364 206.429071 
L 242.280062 206.840103 
L 241.870974 207.184567 
L 241.271073 206.471336 
L 241.998418 205.877505 
L 242.244153 206.160684 
" clip-path="url(#p5e880f7e6b)" style="fill: #e6482f"/>
    <path d="M 256.880486 204.498592 
L 257.912007 206.105739 
L 257.279012 206.511488 
L 256.247491 204.904341 
L 256.880486 204.498592 
" clip-path="url(#p5e880f7e6b)" style="fill: #e6482f"/>
    <path d="M 245.359839 204.328473 
L 245.979456 205.612289 
L 245.15776 206.008528 
L 244.538847 204.724712 
L 245.359839 204.328473 
" clip-path="url(#p5e880f7e6b)" style="fill: #e6482f"/>
    <path d="M 247.503854 204.322133 
L 248.079816 203.925894 
L 249.033181 205.31009 
L 248.457219 205.707386 
L 247.503854 204.322133 
" clip-path="url(#p5e880f7e6b)" style="fill: #e6482f"/>
    <path d="M 250.298466 204.337983 
L 249.749261 203.514861 
L 250.429431 203.061563 
L 250.978637 203.884685 
L 250.298466 204.337983 
" clip-path="url(#p5e880f7e6b)" style="fill: #e6482f"/>
    <path d="M 253.395846 200.863755 
L 252.547394 201.481888 
L 252.141826 200.92504 
L 252.989575 200.306906 
L 253.395846 200.863755 
" clip-path="url(#p5e880f7e6b)" style="fill: #e6482f"/>
    <path d="M 254.259789 199.02626 
L 252.579078 199.988858 
L 252.074232 199.107621 
L 253.754942 198.145023 
L 254.259789 199.02626 
" clip-path="url(#p5e880f7e6b)" style="fill: #e6482f"/>
    <path d="M 257.95707 197.351487 
L 258.476703 198.179892 
L 256.853026 199.199549 
L 256.332689 198.371144 
L 257.95707 197.351487 
" clip-path="url(#p5e880f7e6b)" style="fill: #e6482f"/>
    <path d="M 255.917264 196.662559 
L 256.272135 197.183482 
L 255.85671 197.466661 
L 255.501839 196.945738 
L 255.917264 196.662559 
" clip-path="url(#p5e880f7e6b)" style="fill: #e6482f"/>
    <path d="M 252.612172 196.153259 
L 252.933246 196.760826 
L 251.932706 197.289146 
L 251.610927 196.681579 
L 252.612172 196.153259 
" clip-path="url(#p5e880f7e6b)" style="fill: #e6482f"/>
    <path d="M 254.434408 195.199114 
L 254.802658 194.963484 
L 255.388477 195.877476 
L 255.643365 195.72849 
L 255.958806 196.254696 
L 255.251176 196.679465 
L 254.93503 196.153259 
L 255.015299 196.104654 
L 254.434408 195.199114 
" clip-path="url(#p5e880f7e6b)" style="fill: #e6482f"/>
    <path d="M 252.017199 195.369233 
L 252.26927 195.843664 
L 251.665144 196.164882 
L 251.413072 195.690451 
L 252.017199 195.369233 
" clip-path="url(#p5e880f7e6b)" style="fill: #e6482f"/>
    <path d="M 251.261689 194.000886 
L 251.646133 194.707777 
L 250.447034 195.359723 
L 250.06259 194.651776 
L 251.261689 194.000886 
" clip-path="url(#p5e880f7e6b)" style="fill: #e6482f"/>
    <path d="M 207.357617 220.18228 
L 208.218039 219.623318 
L 208.707396 220.376702 
L 207.846269 220.935663 
L 207.357617 220.18228 
" clip-path="url(#p5e880f7e6b)" style="fill: #e6482f"/>
    <path d="M 216.539915 211.762983 
L 217.498913 211.467124 
L 217.844631 212.585048 
L 216.884929 212.880907 
L 216.539915 211.762983 
" clip-path="url(#p5e880f7e6b)" style="fill: #e6482f"/>
    <path d="M 218.884601 202.257461 
L 219.38804 203.29508 
L 218.886009 203.538107 
L 218.383275 202.500488 
L 218.884601 202.257461 
" clip-path="url(#p5e880f7e6b)" style="fill: #e6482f"/>
    <path d="M 218.325538 198.449335 
L 217.20037 198.993504 
L 216.069569 196.654106 
L 217.194737 196.109937 
L 218.325538 198.449335 
" clip-path="url(#p5e880f7e6b)" style="fill: #e6482f"/>
    <path d="M 217.168685 192.686428 
L 217.95588 194.389729 
L 217.01026 194.827178 
L 216.223065 193.123876 
L 217.168685 192.686428 
" clip-path="url(#p5e880f7e6b)" style="fill: #e6482f"/>
    <path d="M 210.799306 187.479312 
L 210.28249 186.332859 
L 211.047153 185.988395 
L 211.56397 187.134848 
L 210.799306 187.479312 
" clip-path="url(#p5e880f7e6b)" style="fill: #e6482f"/>
    <path d="M 198.875909 169.656987 
L 197.805661 170.128248 
L 196.910034 168.095275 
L 197.979577 167.624014 
L 198.875909 169.656987 
" clip-path="url(#p5e880f7e6b)" style="fill: #e6482f"/>
    <path d="M 197.15788 165.835125 
L 196.1848 166.269403 
L 194.900504 163.391119 
L 195.873584 162.956841 
L 197.15788 165.835125 
" clip-path="url(#p5e880f7e6b)" style="fill: #e6482f"/>
    <path d="M 187.078546 145.486376 
L 192.688894 151.383477 
L 192.777612 151.298946 
L 193.530306 152.089312 
L 192.915618 152.673633 
L 192.440344 153.125874 
L 191.68765 152.335508 
L 191.899587 152.13369 
L 186.289239 146.237646 
L 187.078546 145.486376 
" clip-path="url(#p5e880f7e6b)" style="fill: #e6482f"/>
    <path d="M 234.297568 104.046063 
L 235.802955 103.174336 
L 239.40659 109.390541 
L 237.901202 110.262268 
L 234.297568 104.046063 
" clip-path="url(#p5e880f7e6b)" style="fill: #e6482f"/>
    <path d="M 254.689296 193.396489 
L 255.051913 194.001943 
L 254.041515 194.60634 
L 253.678898 194.000886 
L 254.689296 193.396489 
" clip-path="url(#p5e880f7e6b)" style="fill: #e6482f"/>
    <path d="M 253.022668 192.476156 
L 253.788035 192.041878 
L 254.245707 192.848093 
L 253.481043 193.282372 
L 253.022668 192.476156 
" clip-path="url(#p5e880f7e6b)" style="fill: #e6482f"/>
    <path d="M 247.555958 163.397459 
L 248.205852 163.041372 
L 248.629726 163.814831 
L 247.979832 164.170919 
L 247.555958 163.397459 
" clip-path="url(#p5e880f7e6b)" style="fill: #e6482f"/>
    <path d="M 251.403215 162.787779 
L 251.860182 163.360477 
L 251.099039 163.968044 
L 250.642072 163.395346 
L 251.403215 162.787779 
" clip-path="url(#p5e880f7e6b)" style="fill: #e6482f"/>
    <path d="M 258.066911 112.061724 
L 258.949865 113.58117 
L 257.679651 114.318704 
L 256.796697 112.798201 
L 258.066911 112.061724 
" clip-path="url(#p5e880f7e6b)" style="fill: #e6482f"/>
    <path d="M 267.860377 123.940456 
L 268.377898 124.832259 
L 267.460442 125.364805 
L 266.942217 124.473002 
L 267.860377 123.940456 
" clip-path="url(#p5e880f7e6b)" style="fill: #e6482f"/>
    <path d="M 263.713873 123.005331 
L 264.528528 124.408547 
L 263.516018 124.996038 
L 262.701363 123.592822 
L 263.713873 123.005331 
" clip-path="url(#p5e880f7e6b)" style="fill: #e6482f"/>
    <path d="M 266.871102 121.702496 
L 267.627316 123.005331 
L 266.39442 123.721732 
L 265.637502 122.418897 
L 266.871102 121.702496 
" clip-path="url(#p5e880f7e6b)" style="fill: #e6482f"/>
    <path d="M 262.521815 119.942135 
L 263.354073 121.374938 
L 262.065552 122.123038 
L 261.233294 120.690236 
L 262.521815 119.942135 
" clip-path="url(#p5e880f7e6b)" style="fill: #e6482f"/>
    <path d="M 266.313447 121.01568 
L 265.637502 121.407693 
L 264.993945 120.300336 
L 265.670595 119.907266 
L 266.313447 121.01568 
" clip-path="url(#p5e880f7e6b)" style="fill: #e6482f"/>
    <path d="M 265.400921 119.049276 
L 264.202526 119.744544 
L 263.754008 118.973198 
L 264.952403 118.276873 
L 265.400921 119.049276 
" clip-path="url(#p5e880f7e6b)" style="fill: #e6482f"/>
    <path d="M 260.399628 117.526659 
L 261.233294 118.961575 
L 260.501724 119.386343 
L 259.667353 117.951428 
L 260.399628 117.526659 
" clip-path="url(#p5e880f7e6b)" style="fill: #e6482f"/>
    <path d="M 264.210975 117.261443 
L 263.19072 117.853161 
L 262.758396 117.10823 
L 263.777947 116.516513 
L 264.210975 117.261443 
" clip-path="url(#p5e880f7e6b)" style="fill: #e6482f"/>
    <path d="M 259.116035 115.23164 
L 259.634964 116.1245 
L 258.881567 116.561948 
L 258.362638 115.668032 
L 259.116035 115.23164 
" clip-path="url(#p5e880f7e6b)" style="fill: #e6482f"/>
    <path d="M 263.563898 115.775809 
L 261.951486 116.711991 
L 261.414954 115.789545 
L 263.02807 114.853363 
L 263.563898 115.775809 
" clip-path="url(#p5e880f7e6b)" style="fill: #e6482f"/>
    <path d="M 262.513366 113.935144 
L 261.494519 114.526862 
L 260.834064 113.389919 
L 261.853615 112.798201 
L 262.513366 113.935144 
" clip-path="url(#p5e880f7e6b)" style="fill: #e6482f"/>
    <path d="M 261.60788 111.982476 
L 260.483417 112.635479 
L 259.782827 111.429854 
L 260.907291 110.776851 
L 261.60788 111.982476 
" clip-path="url(#p5e880f7e6b)" style="fill: #e6482f"/>
    <path d="M 260.818573 109.656814 
L 259.113219 110.645828 
L 258.418966 109.45077 
L 260.124321 108.461756 
L 260.818573 109.656814 
" clip-path="url(#p5e880f7e6b)" style="fill: #e6482f"/>
    <path d="M 259.323044 106.895817 
L 260.046869 108.141594 
L 258.694978 108.926677 
L 257.971152 107.679843 
L 259.323044 106.895817 
" clip-path="url(#p5e880f7e6b)" style="fill: #e6482f"/>
    <path d="M 258.824534 104.290146 
L 259.782827 105.940616 
L 257.637404 107.185336 
L 256.679111 105.535923 
L 258.824534 104.290146 
" clip-path="url(#p5e880f7e6b)" style="fill: #e6482f"/>
    <path d="M 225.587024 100.800069 
L 226.229172 100.648969 
L 226.455191 101.611567 
L 225.813043 101.762666 
L 225.587024 100.800069 
" clip-path="url(#p5e880f7e6b)" style="fill: #e6482f"/>
   </g>
   <g id="LineCollection_1">
    <path d="M 591.187529 592.065983 
L 588.83101 591.434405 
L 587.017926 589.09078 
L 587.546713 582.817516 
" clip-path="url(#p5e880f7e6b)" style="fill: none; stroke: #e6482f; stroke-width: 0.2"/>
    <path d="M 568.503855 588.069675 
L 567.750662 586.395295 
L 567.027541 584.882188 
" clip-path="url(#p5e880f7e6b)" style="fill: none; stroke: #e6482f; stroke-width: 0.2"/>
    <path d="M 623.505608 584.027367 
L 587.546713 582.817516 
" clip-path="url(#p5e880f7e6b)" style="fill: none; stroke: #e6482f; stroke-width: 0.2"/>
    <path d="M 564.355444 576.847507 
L 562.088914 576.545309 
L 556.724499 579.74977 
" clip-path="url(#p5e880f7e6b)" style="fill: none; stroke: #e6482f; stroke-width: 0.2"/>
    <path d="M 565.941803 571.480839 
L 564.355444 576.847507 
L 563.838627 578.876254 
L 567.027541 584.882188 
L 571.846469 583.448329 
L 573.508169 582.201496 
L 582.30391 579.122451 
L 587.655146 579.656053 
" clip-path="url(#p5e880f7e6b)" style="fill: none; stroke: #e6482f; stroke-width: 0.2"/>
    <path d="M 624.608244 574.329537 
L 587.90088 572.454004 
L 565.941803 571.480839 
L 567.728834 564.220675 
L 568.201292 563.044636 
L 588.074091 562.822742 
" clip-path="url(#p5e880f7e6b)" style="fill: none; stroke: #e6482f; stroke-width: 0.2"/>
    <path d="M 556.725708 565.888051 
L 567.728834 564.220675 
" clip-path="url(#p5e880f7e6b)" style="fill: none; stroke: #e6482f; stroke-width: 0.2"/>
    <path d="M 550.228886 557.272219 
L 564.853953 556.751296 
L 568.201292 563.044636 
" clip-path="url(#p5e880f7e6b)" style="fill: none; stroke: #e6482f; stroke-width: 0.2"/>
    <path d="M 587.546713 582.817516 
L 587.655146 579.656053 
L 587.90088 572.454004 
L 588.074091 562.822742 
L 589.0007 545.453715 
L 588.784538 540.088103 
L 588.105072 538.881422 
L 585.82446 537.851199 
L 581.551217 533.215725 
L 573.16738 520.509645 
L 568.035122 512.731727 
L 563.991419 506.603222 
L 562.015686 503.608708 
L 560.349058 501.807139 
L 559.246422 499.995004 
L 556.665155 496.35277 
L 554.507762 492.510832 
L 553.233323 489.9432 
L 552.680597 488.878108 
L 551.605421 487.185373 
L 550.868218 486.630638 
L 550.143688 486.574636 
L 546.172508 488.589646 
L 545.124793 487.117748 
" clip-path="url(#p5e880f7e6b)" style="fill: none; stroke: #e6482f; stroke-width: 0.2"/>
    <path d="M 591.777006 526.211267 
L 595.283473 536.753351 
" clip-path="url(#p5e880f7e6b)" style="fill: none; stroke: #e6482f; stroke-width: 0.2"/>
    <path d="M 519.850283 499.434311 
L 522.876326 497.7581 
L 529.653385 494.321911 
L 534.029428 492.283655 
L 545.124793 487.117748 
L 552.601032 483.832658 
L 558.952104 480.99347 
L 560.362436 480.419715 
L 631.442335 449.364047 
L 639.092901 445.959811 
" clip-path="url(#p5e880f7e6b)" style="fill: none; stroke: #e6482f; stroke-width: 0.2"/>
    <path d="M 638.301198 444.9707 
L 625.698206 450.543256 
L 559.806893 479.382096 
L 550.475324 483.324415 
L 543.799658 486.266097 
L 533.298562 491.180524 
L 519.014801 498.552356 
" clip-path="url(#p5e880f7e6b)" style="fill: none; stroke: #e6482f; stroke-width: 0.2"/>
    <path d="M 683.034584 529.317785 
L 678.349436 530.972481 
L 663.769431 536.489192 
L 660.067925 530.972481 
L 647.346771 537.630362 
L 641.756138 528.48621 
L 637.601889 529.468884 
L 632.91815 526.067564 
L 627.176837 520.550853 
L 614.185305 529.840821 
" clip-path="url(#p5e880f7e6b)" style="fill: none; stroke: #e6482f; stroke-width: 0.2"/>
    <path d="M 568.035122 512.731727 
L 566.134729 514.056752 
L 564.689192 515.086975 
L 564.064646 515.450458 
L 561.196806 517.119948 
L 558.276862 518.809513 
L 558.792271 519.92638 
L 559.966022 521.70259 
L 562.914131 526.068621 
L 563.930161 527.458101 
" clip-path="url(#p5e880f7e6b)" style="fill: none; stroke: #e6482f; stroke-width: 0.2"/>
    <path d="M 607.363888 516.750124 
L 603.211047 512.860637 
L 601.535969 512.73384 
L 589.425982 521.340163 
L 588.788059 521.793461 
" clip-path="url(#p5e880f7e6b)" style="fill: none; stroke: #e6482f; stroke-width: 0.2"/>
    <path d="M 573.16738 520.509645 
L 575.158603 519.198356 
L 576.982951 518.047676 
L 578.101078 517.306973 
L 578.265136 517.035416 
L 577.939837 516.329582 
L 575.900734 513.49779 
L 575.56417 513.063512 
" clip-path="url(#p5e880f7e6b)" style="fill: none; stroke: #e6482f; stroke-width: 0.2"/>
    <path d="M 578.515095 507.08188 
L 588.788059 521.793461 
L 591.777006 526.211267 
" clip-path="url(#p5e880f7e6b)" style="fill: none; stroke: #e6482f; stroke-width: 0.2"/>
    <path d="M 591.777006 526.211267 
L 591.39749 524.341016 
L 589.425982 521.340163 
L 583.964202 513.425939 
L 578.938265 506.20804 
" clip-path="url(#p5e880f7e6b)" style="fill: none; stroke: #e6482f; stroke-width: 0.2"/>
    <path d="M 558.276862 518.809513 
L 557.561487 517.978995 
L 556.874275 516.833598 
L 556.001179 515.073238 
L 555.499853 513.898256 
L 555.271017 513.11106 
L 554.155003 512.208691 
L 552.365859 509.788988 
L 551.435026 508.572797 
L 551.147045 508.154368 
" clip-path="url(#p5e880f7e6b)" style="fill: none; stroke: #e6482f; stroke-width: 0.2"/>
    <path d="M 564.064646 515.450458 
L 563.142966 514.085281 
L 561.611527 511.836754 
L 559.966022 509.159231 
" clip-path="url(#p5e880f7e6b)" style="fill: none; stroke: #e6482f; stroke-width: 0.2"/>
    <path d="M 578.515095 507.08188 
L 578.938265 506.20804 
L 579.841638 505.504318 
" clip-path="url(#p5e880f7e6b)" style="fill: none; stroke: #e6482f; stroke-width: 0.2"/>
    <path d="M 563.991419 506.603222 
L 565.547502 505.622662 
" clip-path="url(#p5e880f7e6b)" style="fill: none; stroke: #e6482f; stroke-width: 0.2"/>
    <path d="M 565.547502 505.622662 
L 568.066807 504.477265 
L 571.186718 502.315383 
" clip-path="url(#p5e880f7e6b)" style="fill: none; stroke: #e6482f; stroke-width: 0.2"/>
    <path d="M 534.029428 492.283655 
L 546.114771 511.594784 
L 551.147045 508.154368 
L 556.50673 504.321939 
L 560.349058 501.807139 
" clip-path="url(#p5e880f7e6b)" style="fill: none; stroke: #e6482f; stroke-width: 0.2"/>
    <path d="M 579.841638 505.504318 
L 594.800454 494.889326 
" clip-path="url(#p5e880f7e6b)" style="fill: none; stroke: #e6482f; stroke-width: 0.2"/>
    <path d="M 680.708205 482.24136 
L 695.469166 511.143599 
" clip-path="url(#p5e880f7e6b)" style="fill: none; stroke: #e6482f; stroke-width: 0.2"/>
    <path d="M 565.670721 482.758057 
L 579.043177 476.839823 
L 580.706285 476.145612 
L 582.09831 475.877225 
L 582.692579 477.031075 
L 588.809182 485.810686 
L 594.800454 494.889326 
L 603.512406 508.049761 
L 603.211047 512.860637 
" clip-path="url(#p5e880f7e6b)" style="fill: none; stroke: #e6482f; stroke-width: 0.2"/>
    <path d="M 552.601032 483.832658 
L 553.614246 486.389724 
L 554.616899 488.955243 
L 556.672196 492.573174 
L 558.447961 495.385946 
" clip-path="url(#p5e880f7e6b)" style="fill: none; stroke: #e6482f; stroke-width: 0.2"/>
    <path d="M 790.681025 433.280949 
L 680.708205 482.24136 
L 658.021078 492.707367 
L 635.333951 499.858698 
L 607.363888 516.750124 
L 614.185305 529.840821 
L 611.546301 531.363437 
L 607.092101 533.26433 
L 595.283473 536.753351 
L 588.105072 538.881422 
" clip-path="url(#p5e880f7e6b)" style="fill: none; stroke: #e6482f; stroke-width: 0.2"/>
    <path d="M 435.882838 430.394212 
L 433.970557 431.949376 
" clip-path="url(#p5e880f7e6b)" style="fill: none; stroke: #e6482f; stroke-width: 0.2"/>
    <path d="M 443.22248 447.410322 
L 441.56736 448.853556 
" clip-path="url(#p5e880f7e6b)" style="fill: none; stroke: #e6482f; stroke-width: 0.2"/>
    <path d="M 505.470024 431.588214 
L 509.107456 437.00877 
L 512.446346 442.149318 
L 525.416051 462.354363 
L 538.055529 483.030669 
" clip-path="url(#p5e880f7e6b)" style="fill: none; stroke: #e6482f; stroke-width: 0.2"/>
    <path d="M 530.94261 487.108238 
L 538.055529 483.030669 
L 543.078649 480.74516 
L 544.112987 480.131253 
L 544.943836 479.224657 
L 545.076209 477.977823 
L 544.774146 476.484793 
L 543.486329 474.427517 
L 518.77207 436.14127 
L 513.246215 427.422944 
" clip-path="url(#p5e880f7e6b)" style="fill: none; stroke: #e6482f; stroke-width: 0.2"/>
    <path d="M 467.562857 503.845395 
L 443.22248 447.410322 
L 438.642245 436.792159 
L 435.882838 430.394212 
L 423.092681 400.743873 
" clip-path="url(#p5e880f7e6b)" style="fill: none; stroke: #e6482f; stroke-width: 0.2"/>
    <path d="M 436.801054 438.247715 
L 438.642245 436.792159 
" clip-path="url(#p5e880f7e6b)" style="fill: none; stroke: #e6482f; stroke-width: 0.2"/>
    <path d="M 533.298562 491.180524 
L 530.94261 487.108238 
L 515.973233 464.111553 
L 501.069337 441.002865 
L 486.256976 418.307322 
L 479.343321 407.730368 
L 476.020626 402.739864 
L 474.508198 401.433858 
L 469.520987 397.628902 
L 466.161678 394.012028 
L 464.339442 391.4053 
L 462.785471 388.679172 
" clip-path="url(#p5e880f7e6b)" style="fill: none; stroke: #e6482f; stroke-width: 0.2"/>
    <path d="M 512.446346 442.149318 
L 514.311533 439.709539 
L 518.77207 436.14127 
" clip-path="url(#p5e880f7e6b)" style="fill: none; stroke: #e6482f; stroke-width: 0.2"/>
    <path d="M 791.821134 433.080895 
L 790.681025 433.280949 
" clip-path="url(#p5e880f7e6b)" style="fill: none; stroke: #e6482f; stroke-width: 0.2"/>
    <path d="M 544.800198 482.242417 
L 543.799658 486.266097 
" clip-path="url(#p5e880f7e6b)" style="fill: none; stroke: #e6482f; stroke-width: 0.2"/>
    <path d="M 550.475324 483.324415 
L 545.847914 481.780666 
L 545.504308 481.926482 
" clip-path="url(#p5e880f7e6b)" style="fill: none; stroke: #e6482f; stroke-width: 0.2"/>
    <path d="M 545.504308 481.926482 
L 544.800198 482.242417 
" clip-path="url(#p5e880f7e6b)" style="fill: none; stroke: #e6482f; stroke-width: 0.2"/>
    <path d="M 560.362436 480.419715 
L 559.806893 479.382096 
" clip-path="url(#p5e880f7e6b)" style="fill: none; stroke: #e6482f; stroke-width: 0.2"/>
    <path d="M 658.021078 492.707367 
L 654.389279 486.709885 
L 652.598727 485.185156 
L 650.875066 483.924586 
L 648.885955 481.404502 
L 633.902496 456.402317 
L 633.372301 453.683586 
L 633.040665 452.091231 
L 631.442335 449.364047 
" clip-path="url(#p5e880f7e6b)" style="fill: none; stroke: #e6482f; stroke-width: 0.2"/>
    <path d="M 513.202462 416.112987 
L 507.673184 418.922285 
" clip-path="url(#p5e880f7e6b)" style="fill: none; stroke: #e6482f; stroke-width: 0.2"/>
    <path d="M 509.107456 437.00877 
L 501.069337 441.002865 
" clip-path="url(#p5e880f7e6b)" style="fill: none; stroke: #e6482f; stroke-width: 0.2"/>
    <path d="M 494.821066 399.73901 
L 492.705919 400.721684 
L 490.023964 402.609897 
L 488.550966 403.214294 
L 485.907034 403.554532 
L 483.603186 404.27199 
L 481.034593 406.123221 
L 479.343321 407.730368 
" clip-path="url(#p5e880f7e6b)" style="fill: none; stroke: #e6482f; stroke-width: 0.2"/>
    <path d="M 493.348068 396.452863 
L 499.190695 392.15981 
" clip-path="url(#p5e880f7e6b)" style="fill: none; stroke: #e6482f; stroke-width: 0.2"/>
    <path d="M 513.246215 427.422944 
L 508.154796 419.572118 
L 507.673184 418.922285 
L 504.792671 415.039138 
L 500.071613 406.803696 
L 494.821066 399.73901 
L 493.348068 396.452863 
L 492.932643 390.332812 
L 493.726175 384.325821 
L 493.908774 383.130343 
" clip-path="url(#p5e880f7e6b)" style="fill: none; stroke: #e6482f; stroke-width: 0.2"/>
    <path d="M 423.092681 400.743873 
L 421.044192 396.965431 
" clip-path="url(#p5e880f7e6b)" style="fill: none; stroke: #e6482f; stroke-width: 0.2"/>
    <path d="M 367.639332 340.389441 
L 366.062591 339.367957 
" clip-path="url(#p5e880f7e6b)" style="fill: none; stroke: #e6482f; stroke-width: 0.2"/>
    <path d="M 462.785471 388.679172 
L 459.353639 381.299608 
L 455.764087 373.960195 
L 451.157799 362.56329 
L 448.626524 356.840535 
L 446.019909 351.48549 
L 442.564842 344.884668 
L 438.885867 338.476154 
" clip-path="url(#p5e880f7e6b)" style="fill: none; stroke: #e6482f; stroke-width: 0.2"/>
    <path d="M 381.312909 327.863275 
L 381.242498 331.32905 
L 379.69416 332.915064 
L 374.33025 336.201211 
L 371.605345 337.066598 
L 366.062591 339.367957 
" clip-path="url(#p5e880f7e6b)" style="fill: none; stroke: #e6482f; stroke-width: 0.2"/>
    <path d="M 343.686681 320.925385 
L 344.377413 320.449897 
L 345.964477 320.903195 
L 347.588155 321.017312 
L 349.816663 320.677075 
L 353.594212 318.297524 
L 359.297503 315.388598 
L 366.398452 311.461072 
L 367.699647 309.181902 
" clip-path="url(#p5e880f7e6b)" style="fill: none; stroke: #e6482f; stroke-width: 0.2"/>
    <path d="M 366.062591 339.367957 
L 363.386269 337.635069 
L 357.557647 332.357159 
L 343.686681 320.925385 
L 322.67252 304.302345 
L 321.76633 303.4676 
L 320.451757 301.9397 
L 319.497688 300.669621 
L 318.406318 299.077266 
L 317.850775 298.314373 
L 316.912196 296.537107 
L 316.06656 294.740821 
L 306.825821 279.488241 
L 306.143539 278.455905 
L 294.541919 260.916759 
L 285.690553 245.979058 
" clip-path="url(#p5e880f7e6b)" style="fill: none; stroke: #e6482f; stroke-width: 0.2"/>
    <path d="M 292.67462 290.802728 
L 298.585623 286.72199 
L 306.825821 279.488241 
" clip-path="url(#p5e880f7e6b)" style="fill: none; stroke: #e6482f; stroke-width: 0.2"/>
    <path d="M 469.22238 505.141392 
L 467.562857 503.845395 
" clip-path="url(#p5e880f7e6b)" style="fill: none; stroke: #e6482f; stroke-width: 0.2"/>
    <path d="M 298.585623 286.72199 
L 290.605945 274.731254 
" clip-path="url(#p5e880f7e6b)" style="fill: none; stroke: #e6482f; stroke-width: 0.2"/>
    <path d="M 279.730262 270.588173 
L 287.041036 265.797373 
L 294.541919 260.916759 
" clip-path="url(#p5e880f7e6b)" style="fill: none; stroke: #e6482f; stroke-width: 0.2"/>
    <path d="M 255.345508 265.873294 
L 270.357151 256.125959 
L 278.138974 250.93892 
L 285.690553 245.979058 
" clip-path="url(#p5e880f7e6b)" style="fill: none; stroke: #e6482f; stroke-width: 0.2"/>
    <path d="M 288.929459 268.894381 
L 287.041036 265.797373 
L 282.762864 258.201198 
L 278.138974 250.93892 
L 271.658346 240.531028 
L 271.583006 239.861119 
L 271.97942 239.298988 
L 272.895467 238.736856 
L 273.405243 238.180007 
L 273.480582 237.712973 
L 273.225695 237.240655 
L 272.621568 236.461913 
L 271.261932 234.53566 
" clip-path="url(#p5e880f7e6b)" style="fill: none; stroke: #e6482f; stroke-width: 0.2"/>
    <path d="M 297.049959 238.981996 
L 285.690553 245.979058 
" clip-path="url(#p5e880f7e6b)" style="fill: none; stroke: #e6482f; stroke-width: 0.2"/>
    <path d="M 257.016379 234.850539 
L 253.740156 236.820113 
" clip-path="url(#p5e880f7e6b)" style="fill: none; stroke: #e6482f; stroke-width: 0.2"/>
    <path d="M 253.740156 236.820113 
L 252.791016 235.519391 
L 251.463768 236.416477 
L 253.076884 239.005242 
L 254.46891 238.146195 
L 253.740156 236.820113 
" clip-path="url(#p5e880f7e6b)" style="fill: none; stroke: #e6482f; stroke-width: 0.2"/>
    <path d="M 45.99521 68.919182 
L 46.781118 69.093511 
" clip-path="url(#p5e880f7e6b)" style="fill: none; stroke: #e6482f; stroke-width: 0.2"/>
    <path d="M 230.173885 229.943401 
L 230.496782 229.23873 
L 232.959759 227.796419 
" clip-path="url(#p5e880f7e6b)" style="fill: none; stroke: #e6482f; stroke-width: 0.2"/>
    <path d="M 206.749653 219.274024 
L 207.796277 219.112962 
L 209.363626 218.527584 
L 213.556601 215.299553 
L 215.331662 215.053356 
L 217.503841 214.865274 
L 220.251278 213.835051 
" clip-path="url(#p5e880f7e6b)" style="fill: none; stroke: #e6482f; stroke-width: 0.2"/>
    <path d="M 219.156387 207.206757 
L 219.694327 208.255999 
L 219.618988 210.069191 
L 219.959073 213.052082 
L 220.251278 213.835051 
L 221.242665 216.488271 
L 223.207132 219.736379 
L 225.133577 222.002869 
L 227.173383 223.361706 
L 228.721721 226.496753 
L 229.892656 228.157789 
L 230.156697 228.498027 
L 230.496782 229.23873 
" clip-path="url(#p5e880f7e6b)" style="fill: none; stroke: #e6482f; stroke-width: 0.2"/>
    <path d="M 221.051851 199.880024 
L 220.906101 199.968782 
L 220.629385 200.136787 
L 219.056404 201.026477 
L 218.824752 201.193426 
L 218.655061 201.439623 
L 217.072926 205.388281 
L 216.917318 205.612289 
L 216.671583 205.862712 
" clip-path="url(#p5e880f7e6b)" style="fill: none; stroke: #e6482f; stroke-width: 0.2"/>
    <path d="M 221.470797 199.666583 
L 221.051851 199.880024 
" clip-path="url(#p5e880f7e6b)" style="fill: none; stroke: #e6482f; stroke-width: 0.2"/>
    <path d="M 219.354946 194.98039 
L 218.914174 195.188548 
" clip-path="url(#p5e880f7e6b)" style="fill: none; stroke: #e6482f; stroke-width: 0.2"/>
    <path d="M 255.94754 233.14618 
L 252.89452 235.012204 
L 252.791016 235.519391 
" clip-path="url(#p5e880f7e6b)" style="fill: none; stroke: #e6482f; stroke-width: 0.2"/>
    <path d="M 246.344185 229.061215 
L 250.12948 234.883294 
" clip-path="url(#p5e880f7e6b)" style="fill: none; stroke: #e6482f; stroke-width: 0.2"/>
    <path d="M 251.585579 226.190328 
L 250.227351 226.934201 
L 246.344185 229.061215 
L 245.82596 229.345451 
" clip-path="url(#p5e880f7e6b)" style="fill: none; stroke: #e6482f; stroke-width: 0.2"/>
    <path d="M 245.82596 229.345451 
L 249.118378 234.643438 
L 246.000579 236.735582 
L 244.147362 234.555736 
L 243.515071 233.770654 
L 243.688986 232.703449 
L 243.362279 231.504164 
" clip-path="url(#p5e880f7e6b)" style="fill: none; stroke: #e6482f; stroke-width: 0.2"/>
    <path d="M 243.362279 231.504164 
L 240.397272 224.528235 
L 242.223733 223.09649 
L 245.82596 229.345451 
" clip-path="url(#p5e880f7e6b)" style="fill: none; stroke: #e6482f; stroke-width: 0.2"/>
    <path d="M 245.82596 229.345451 
L 243.362279 231.504164 
" clip-path="url(#p5e880f7e6b)" style="fill: none; stroke: #e6482f; stroke-width: 0.2"/>
    <path d="M 285.690553 245.979058 
L 277.864371 233.624838 
L 270.288852 221.737652 
L 264.88692 213.615271 
L 262.51407 210.048058 
" clip-path="url(#p5e880f7e6b)" style="fill: none; stroke: #e6482f; stroke-width: 0.2"/>
    <path d="M 235.564262 226.151232 
L 235.06716 226.398486 
L 234.741861 226.561208 
L 234.171532 226.845444 
L 233.694146 227.083188 
L 232.959759 227.796419 
" clip-path="url(#p5e880f7e6b)" style="fill: none; stroke: #e6482f; stroke-width: 0.2"/>
    <path d="M 251.585579 226.190328 
L 253.020555 225.836354 
L 256.652355 223.395518 
" clip-path="url(#p5e880f7e6b)" style="fill: none; stroke: #e6482f; stroke-width: 0.2"/>
    <path d="M 195.365216 125.154534 
L 198.032385 123.382551 
L 205.679723 119.744544 
L 208.05891 120.00976 
L 225.460284 140.80124 
L 229.484976 138.548486 
L 231.919788 138.535807 
L 234.261658 141.290464 
L 238.011748 146.287308 
L 249.097255 162.87548 
L 251.382796 166.376124 
L 274.436764 202.131721 
L 282.394614 215.680999 
L 287.758524 223.83825 
L 289.004799 226.519999 
L 292.442263 230.938862 
L 297.049959 238.981996 
L 302.52723 246.876144 
L 312.612197 262.738404 
L 316.389043 268.667204 
L 317.403665 270.149668 
L 342.468571 284.101526 
L 367.110307 308.372517 
L 367.699647 309.181902 
L 381.312909 327.863275 
" clip-path="url(#p5e880f7e6b)" style="fill: none; stroke: #e6482f; stroke-width: 0.2"/>
    <path d="M 254.689296 220.020614 
L 249.847132 223.417708 
L 248.869827 224.103466 
L 250.227351 226.934201 
" clip-path="url(#p5e880f7e6b)" style="fill: none; stroke: #e6482f; stroke-width: 0.2"/>
    <path d="M 253.020555 225.836354 
L 255.855302 230.0217 
L 256.465765 230.458092 
L 263.551224 225.967377 
L 260.47708 221.846486 
L 257.032574 224.048521 
L 256.652355 223.395518 
L 254.689296 220.020614 
L 264.88692 213.615271 
" clip-path="url(#p5e880f7e6b)" style="fill: none; stroke: #e6482f; stroke-width: 0.2"/>
    <path d="M 247.61792 219.863175 
L 242.223733 223.09649 
" clip-path="url(#p5e880f7e6b)" style="fill: none; stroke: #e6482f; stroke-width: 0.2"/>
    <path d="M 254.689296 220.020614 
L 252.495994 216.550613 
" clip-path="url(#p5e880f7e6b)" style="fill: none; stroke: #e6482f; stroke-width: 0.2"/>
    <path d="M 197.930993 128.999642 
L 193.707037 132.526702 
L 193.385963 134.074678 
L 194.052051 137.234028 
L 194.387912 138.826382 
L 204.823525 154.985558 
L 209.069308 162.233043 
L 212.844746 168.458759 
L 215.897767 173.253785 
L 217.215156 175.068034 
L 223.668324 183.978668 
L 226.474202 188.405984 
L 230.503119 195.270966 
L 232.93934 199.192152 
L 244.442384 215.651413 
L 246.633574 218.962919 
L 247.61792 219.863175 
L 249.847132 223.417708 
L 251.585579 226.190328 
L 255.94754 233.14618 
L 257.016379 234.850539 
L 270.357151 256.125959 
L 279.730262 270.588173 
L 281.276488 272.918062 
L 284.247128 279.67104 
L 285.682808 281.635331 
L 287.873294 283.900764 
L 292.67462 290.802728 
L 269.122846 307.538829 
" clip-path="url(#p5e880f7e6b)" style="fill: none; stroke: #e6482f; stroke-width: 0.2"/>
    <path d="M 232.959759 227.796419 
L 222.65863 206.500922 
" clip-path="url(#p5e880f7e6b)" style="fill: none; stroke: #e6482f; stroke-width: 0.2"/>
    <path d="M 247.61792 219.863175 
L 251.808782 216.996514 
L 252.495994 216.550613 
L 262.51407 210.048058 
" clip-path="url(#p5e880f7e6b)" style="fill: none; stroke: #e6482f; stroke-width: 0.2"/>
    <path d="M 248.891655 212.292359 
L 249.619 213.302505 
L 250.8181 215.747567 
L 251.067354 216.209319 
L 251.808782 216.996514 
" clip-path="url(#p5e880f7e6b)" style="fill: none; stroke: #e6482f; stroke-width: 0.2"/>
    <path d="M 261.916281 209.212257 
L 251.067354 216.209319 
L 246.633574 218.962919 
" clip-path="url(#p5e880f7e6b)" style="fill: none; stroke: #e6482f; stroke-width: 0.2"/>
    <path d="M 245.779489 211.127943 
L 247.172218 213.410283 
L 245.21268 215.112528 
L 244.442384 215.651413 
" clip-path="url(#p5e880f7e6b)" style="fill: none; stroke: #e6482f; stroke-width: 0.2"/>
    <path d="M 262.51407 210.048058 
L 274.436764 202.131721 
L 277.258132 200.136787 
L 287.36211 193.415508 
L 289.533585 192.527932 
L 292.340167 191.202907 
" clip-path="url(#p5e880f7e6b)" style="fill: none; stroke: #e6482f; stroke-width: 0.2"/>
    <path d="M 232.93934 199.192152 
L 240.704968 194.391842 
L 249.281732 189.389715 
" clip-path="url(#p5e880f7e6b)" style="fill: none; stroke: #e6482f; stroke-width: 0.2"/>
    <path d="M 226.474202 188.405984 
L 225.489152 189.46051 
L 224.081637 190.449523 
L 220.830057 191.275815 
L 220.331547 191.69847 
L 220.563903 192.243696 
L 221.187041 192.583934 
L 223.888006 193.131272 
L 226.003153 193.773709 
L 227.268438 194.397126 
L 228.118299 194.943408 
L 230.503119 195.270966 
" clip-path="url(#p5e880f7e6b)" style="fill: none; stroke: #e6482f; stroke-width: 0.2"/>
    <path d="M 306.143539 278.455905 
L 307.095495 277.669766 
L 307.624282 277.367567 
L 308.304452 276.951252 
L 317.403665 270.149668 
" clip-path="url(#p5e880f7e6b)" style="fill: none; stroke: #e6482f; stroke-width: 0.2"/>
    <path d="M 432.967119 274.596004 
L 430.515408 273.482307 
L 414.519438 265.315546 
L 405.860294 261.066802 
L 394.510042 255.241553 
L 388.220931 252.068467 
L 384.327203 250.646231 
" clip-path="url(#p5e880f7e6b)" style="fill: none; stroke: #e6482f; stroke-width: 0.2"/>
    <path d="M 411.869872 289.271659 
L 414.6328 288.042788 
L 426.870231 282.150971 
L 428.419273 280.186679 
L 432.967119 274.596004 
L 433.60293 273.766542 
L 434.764711 270.367336 
L 439.344947 258.60272 
L 439.083722 257.794392 
L 440.591221 256.20415 
L 441.563597 254.390958 
L 444.925018 244.534632 
L 447.266888 236.603502 
L 450.4213 227.577694 
" clip-path="url(#p5e880f7e6b)" style="fill: none; stroke: #e6482f; stroke-width: 0.2"/>
    <path d="M 439.083722 257.794392 
L 437.465677 256.185131 
L 433.036826 255.174984 
L 431.534959 254.859049 
L 430.023939 254.844256 
L 426.45551 255.128492 
L 424.55723 254.674138 
L 415.179893 251.861365 
L 398.343216 246.837048 
L 394.953631 245.785693 
L 391.676703 244.590634 
L 390.902886 244.51033 
L 390.326924 244.727997 
L 390.099497 245.365151 
L 389.684776 248.362835 
L 389.288362 249.651934 
L 388.220931 252.068467 
L 387.554843 253.487532 
" clip-path="url(#p5e880f7e6b)" style="fill: none; stroke: #e6482f; stroke-width: 0.2"/>
    <path d="M 438.885867 338.476154 
L 433.962026 329.898361 
L 428.675569 321.691448 
L 423.555985 312.976292 
L 418.884216 304.020222 
L 411.869872 289.271659 
L 410.258869 285.884075 
L 401.819407 267.608452 
L 400.234455 264.717489 
L 397.529969 261.967058 
L 389.370743 255.161248 
L 387.554843 253.487532 
L 384.327203 250.646231 
L 371.085712 239.365556 
L 367.276477 235.82476 
L 363.71016 232.214225 
L 362.55542 230.65991 
L 361.349279 229.287336 
L 360.534624 227.76155 
L 359.465785 226.424902 
L 356.313485 223.284571 
L 353.820936 220.727506 
L 351.73677 218.93756 
L 349.958189 217.754124 
L 348.143697 216.876058 
L 344.266868 215.896553 
L 338.429092 214.544056 
L 327.688599 212.197261 
L 316.4503 209.382376 
L 314.958291 208.45042 
L 313.112819 206.34137 
L 300.963402 189.197407 
L 299.96779 187.074619 
L 283.940136 143.000105 
L 275.154956 118.660433 
L 271.101395 107.491761 
L 268.693339 100.469341 
L 267.302722 96.529135 
L 267.136552 95.208336 
L 267.135848 94.052374 
" clip-path="url(#p5e880f7e6b)" style="fill: none; stroke: #e6482f; stroke-width: 0.2"/>
    <path d="M 353.154144 212.178242 
L 351.346693 213.543419 
L 348.825276 215.921913 
L 348.143697 216.876058 
" clip-path="url(#p5e880f7e6b)" style="fill: none; stroke: #e6482f; stroke-width: 0.2"/>
    <path d="M 299.96779 187.074619 
L 305.579547 184.315736 
L 314.802683 179.707734 
L 323.91457 175.152565 
L 338.338262 167.486651 
" clip-path="url(#p5e880f7e6b)" style="fill: none; stroke: #e6482f; stroke-width: 0.2"/>
    <path d="M 314.302765 160.526572 
L 311.459569 164.036726 
L 307.739756 167.528916 
L 309.665497 175.34593 
L 309.64719 176.119389 
L 308.155181 177.611363 
L 307.399671 178.47992 
L 306.674438 179.929628 
L 304.490993 181.841088 
L 305.579547 184.315736 
" clip-path="url(#p5e880f7e6b)" style="fill: none; stroke: #e6482f; stroke-width: 0.2"/>
    <path d="M 454.823396 227.281836 
L 450.4213 227.577694 
L 440.649662 226.880313 
L 433.145963 226.817971 
L 411.515001 226.9976 
L 366.841337 215.653527 
L 353.154144 212.178242 
L 353.09359 211.088847 
L 352.808426 210.294255 
L 338.105906 196.887623 
L 323.91457 175.152565 
L 314.302765 160.526572 
L 299.443229 138.391047 
L 286.832619 113.317011 
L 286.710104 109.019661 
L 278.778306 94.785681 
L 274.283268 93.312727 
L 272.045606 93.44692 
L 269.684726 93.813573 
L 267.135848 94.052374 
" clip-path="url(#p5e880f7e6b)" style="fill: none; stroke: #e6482f; stroke-width: 0.2"/>
    <path d="M 366.841337 215.653527 
L 368.475576 211.163869 
L 369.462034 207.032411 
L 369.835917 203.233795 
L 371.724339 198.173552 
L 374.670336 196.36036 
L 378.145118 196.813658 
L 381.695945 199.608468 
L 385.246067 203.308817 
L 389.25034 204.064313 
L 390.609977 201.722802 
L 398.541775 191.527295 
L 397.227616 189.177461 
" clip-path="url(#p5e880f7e6b)" style="fill: none; stroke: #e6482f; stroke-width: 0.2"/>
    <path d="M 292.340167 191.202907 
L 294.126494 190.362879 
" clip-path="url(#p5e880f7e6b)" style="fill: none; stroke: #e6482f; stroke-width: 0.2"/>
    <path d="M 294.126494 190.362879 
L 299.96779 187.074619 
" clip-path="url(#p5e880f7e6b)" style="fill: none; stroke: #e6482f; stroke-width: 0.2"/>
    <path d="M 212.267376 149.50266 
L 214.595163 153.033947 
L 216.861693 156.356019 
L 220.449837 162.24678 
L 225.133577 169.157197 
L 228.873105 173.991319 
L 232.273252 178.411239 
L 234.538373 182.675832 
L 240.704968 194.391842 
L 247.229955 206.277971 
" clip-path="url(#p5e880f7e6b)" style="fill: none; stroke: #e6482f; stroke-width: 0.2"/>
    <path d="M 223.668324 183.978668 
L 232.273252 178.411239 
L 239.23197 174.280838 
L 251.382796 166.376124 
" clip-path="url(#p5e880f7e6b)" style="fill: none; stroke: #e6482f; stroke-width: 0.2"/>
    <path d="M 265.47626 152.751824 
L 259.655383 155.006691 
L 249.097255 162.87548 
" clip-path="url(#p5e880f7e6b)" style="fill: none; stroke: #e6482f; stroke-width: 0.2"/>
    <path d="M 266.954891 152.179126 
L 265.47626 152.751824 
" clip-path="url(#p5e880f7e6b)" style="fill: none; stroke: #e6482f; stroke-width: 0.2"/>
    <path d="M 277.27996 147.040692 
L 276.376587 147.131563 
L 266.954891 152.179126 
" clip-path="url(#p5e880f7e6b)" style="fill: none; stroke: #e6482f; stroke-width: 0.2"/>
    <path d="M 283.940136 143.000105 
L 277.27996 147.040692 
" clip-path="url(#p5e880f7e6b)" style="fill: none; stroke: #e6482f; stroke-width: 0.2"/>
    <path d="M 283.940136 143.000105 
L 299.443229 138.391047 
L 311.790501 130.415538 
" clip-path="url(#p5e880f7e6b)" style="fill: none; stroke: #e6482f; stroke-width: 0.2"/>
    <path d="M 254.536504 101.939125 
L 256.972725 108.227182 
L 275.556298 142.738059 
L 277.27996 147.040692 
L 284.815344 165.953468 
" clip-path="url(#p5e880f7e6b)" style="fill: none; stroke: #e6482f; stroke-width: 0.2"/>
    <path d="M 328.463824 152.109388 
L 327.369637 153.358335 
L 316.875583 159.114902 
L 314.302765 160.526572 
" clip-path="url(#p5e880f7e6b)" style="fill: none; stroke: #e6482f; stroke-width: 0.2"/>
    <path d="M 479.491228 180.006933 
L 476.048086 184.955002 
L 476.569127 188.894151 
L 476.440979 198.988221 
" clip-path="url(#p5e880f7e6b)" style="fill: none; stroke: #e6482f; stroke-width: 0.2"/>
    <path d="M 338.338262 167.486651 
L 338.477676 166.237704 
L 336.719513 161.9953 
L 329.636871 152.598611 
L 328.463824 152.109388 
L 328.032205 151.91391 
L 326.03042 149.723498 
L 313.074797 130.126019 
L 311.790501 130.415538 
L 308.957162 128.692161 
L 297.70126 108.491342 
L 295.607238 107.296283 
" clip-path="url(#p5e880f7e6b)" style="fill: none; stroke: #e6482f; stroke-width: 0.2"/>
    <path d="M 345.654669 163.214661 
L 351.563042 160.522311 
" clip-path="url(#p5e880f7e6b)" style="fill: none; stroke: #e6482f; stroke-width: 0.2"/>
    <path d="M 220.157632 191.359289 
L 219.6211 191.600203 
L 219.357763 191.734396 
L 218.784617 192.017575 
L 218.605069 192.096823 
L 218.238932 192.265885 
L 218.089661 192.33668 
L 217.666491 192.530045 
" clip-path="url(#p5e880f7e6b)" style="fill: none; stroke: #e6482f; stroke-width: 0.2"/>
    <path d="M 222.65863 206.500922 
L 222.154488 206.358276 
L 221.653865 206.293821 
L 221.193377 206.384692 
L 219.748544 207.025015 
L 219.156387 207.206757 
L 218.516351 207.157095 
L 217.88054 206.933087 
L 217.194033 206.480846 
L 216.671583 205.862712 
L 216.089989 204.966683 
L 214.270568 201.180746 
L 210.909148 192.722353 
L 200.899521 170.820346 
" clip-path="url(#p5e880f7e6b)" style="fill: none; stroke: #e6482f; stroke-width: 0.2"/>
    <path d="M 223.668324 183.978668 
L 220.523769 185.938733 
L 219.339456 189.765878 
L 220.157632 191.359289 
L 220.331547 191.69847 
" clip-path="url(#p5e880f7e6b)" style="fill: none; stroke: #e6482f; stroke-width: 0.2"/>
    <path d="M 204.823525 154.985558 
L 212.267376 149.50266 
L 212.619431 149.240614 
L 213.405921 148.317111 
L 218.467064 145.726233 
L 219.579557 144.3283 
" clip-path="url(#p5e880f7e6b)" style="fill: none; stroke: #e6482f; stroke-width: 0.2"/>
    <path d="M 225.460284 140.80124 
L 220.520952 144.875639 
" clip-path="url(#p5e880f7e6b)" style="fill: none; stroke: #e6482f; stroke-width: 0.2"/>
    <path d="M 148.187737 64.125195 
L 162.398788 82.507539 
L 195.365216 125.154534 
L 197.930993 128.999642 
L 202.865396 134.857647 
L 219.579557 144.3283 
L 220.520952 144.875639 
L 221.463756 145.679741 
L 239.23197 174.280838 
L 249.281732 189.389715 
L 261.916281 209.212257 
L 262.51407 210.048058 
" clip-path="url(#p5e880f7e6b)" style="fill: none; stroke: #e6482f; stroke-width: 0.2"/>
    <path d="M 108.240059 69.138946 
L 109.553224 74.361911 
L 112.083796 74.965252 
L 114.274282 77.532884 
L 118.655958 79.722239 
L 123.64176 81.497393 
L 125.001397 84.063968 
L 127.191883 85.87716 
L 130.402624 90.331949 
L 138.221765 99.960041 
L 144.227119 104.188709 
L 148.684135 107.1716 
L 152.763748 109.701193 
L 160.770886 114.949518 
L 165.265924 117.63021 
L 169.420877 120.801183 
L 174.368658 124.16235 
L 177.806122 127.258302 
L 179.807907 128.655178 
L 187.815045 137.113571 
L 189.175386 139.379005 
L 191.063809 140.70086 
L 192.1587 144.514269 
L 196.011589 149.649533 
L 197.862694 152.670463 
L 196.238313 155.238095 
L 195.949628 156.079179 
L 195.663759 156.911811 
L 195.167361 159.365326 
L 196.880461 161.431054 
L 198.466821 163.922609 
L 199.789139 168.001234 
L 200.899521 170.820346 
L 199.562416 170.228628 
L 196.993823 170.644944 
L 194.765315 170.909104 
L 192.91421 170.153607 
L 191.554573 169.058929 
L 192.385423 167.812096 
L 194.161188 166.302159 
" clip-path="url(#p5e880f7e6b)" style="fill: none; stroke: #e6482f; stroke-width: 0.2"/>
    <path d="M 75.232793 71.166636 
L 75.121544 75.388964 
L 74.234365 80.396375 
L 72.001633 83.142579 
L 70.058289 85.098417 
L 69.420705 85.739633 
" clip-path="url(#p5e880f7e6b)" style="fill: none; stroke: #e6482f; stroke-width: 0.2"/>
    <path d="M 117.975218 39.623924 
L 117.975788 45.592809 
L 119.109405 51.067254 
L 120.582403 58.844115 
L 121.828677 64.431621 
L 122.924272 66.697054 
L 124.359248 68.131969 
L 126.81448 68.134083 
L 125.416822 69.717984 
L 126.474395 71.75624 
L 129.042988 76.551267 
L 131.838304 81.421315 
L 133.575344 84.253106 
L 136.824107 87.009877 
L 140.110188 89.76559 
L 142.942822 91.653804 
L 148.26871 95.165014 
L 153.934683 99.544782 
L 157.14472 101.544999 
L 161.261651 105.321426 
L 164.774455 107.964079 
L 169.080792 111.475289 
L 174.708743 116.836674 
L 176.333124 119.291246 
L 181.406237 125.134458 
L 183.547435 128.08882 
L 189.779512 133.979581 
L 191.781297 136.055876 
L 193.254295 136.698312 
L 194.052051 137.234028 
" clip-path="url(#p5e880f7e6b)" style="fill: none; stroke: #e6482f; stroke-width: 0.2"/>
    <path d="M 109.553224 74.361911 
L 109.590542 76.362128 
L 108.532969 78.023164 
L 106.342483 79.45808 
L 103.433805 81.006056 
L 98.524046 82.781209 
L 95.879409 83.007329 
L 90.28948 83.045368 
L 81.790873 83.724787 
L 73.934414 84.178085 
L 70.058289 85.098417 
" clip-path="url(#p5e880f7e6b)" style="fill: none; stroke: #e6482f; stroke-width: 0.2"/>
    <path d="M 110.947362 68.663459 
L 108.240059 69.138946 
L 104.072433 69.871197 
L 75.232793 71.166636 
L 72.117811 71.306112 
L 46.781118 69.093511 
" clip-path="url(#p5e880f7e6b)" style="fill: none; stroke: #e6482f; stroke-width: 0.2"/>
    <path d="M 162.398788 82.507539 
L 169.496217 75.366775 
L 169.458195 74.196019 
L 159.109187 60.944713 
L 157.74955 59.773957 
L 156.427232 59.358698 
L 155.407681 58.225982 
L 154.160702 57.508524 
L 152.574342 57.244364 
L 147.211137 60.642514 
" clip-path="url(#p5e880f7e6b)" style="fill: none; stroke: #e6482f; stroke-width: 0.2"/>
    <path d="M 126.81448 68.134083 
L 127.56999 67.454664 
L 128.49167 66.854493 
L 148.187737 64.125195 
" clip-path="url(#p5e880f7e6b)" style="fill: none; stroke: #e6482f; stroke-width: 0.2"/>
    <path d="M 123.64176 81.497393 
L 119.864211 75.41855 
L 117.93847 71.983418 
L 115.709962 68.962487 
L 114.425665 66.508972 
L 110.837521 61.298687 
L 107.513418 57.296139 
L 98.976789 54.729564 
L 97.088366 53.370727 
L 95.540028 51.708634 
L 92.329287 48.688761 
L 91.725161 47.140785 
L 91.238794 45.719122 
" clip-path="url(#p5e880f7e6b)" style="fill: none; stroke: #e6482f; stroke-width: 0.2"/>
    <path d="M 143.698332 47.730389 
L 144.000396 49.655585 
L 145.209352 54.148413 
L 146.342265 57.093265 
L 147.211137 60.642514 
L 148.187737 64.125195 
" clip-path="url(#p5e880f7e6b)" style="fill: none; stroke: #e6482f; stroke-width: 0.2"/>
    <path d="M 105.256645 42.52434 
L 105.542614 43.191069 
L 106.753683 48.636985 
L 108.569583 56.300786 
L 111.193097 64.167461 
L 110.947362 68.663459 
" clip-path="url(#p5e880f7e6b)" style="fill: none; stroke: #e6482f; stroke-width: 0.2"/>
    <path d="M 146.342265 57.093265 
L 151.441429 53.355934 
L 160.2421 45.843232 
" clip-path="url(#p5e880f7e6b)" style="fill: none; stroke: #e6482f; stroke-width: 0.2"/>
    <path d="M 295.607238 107.296283 
L 290.33627 109.737119 
L 286.832619 113.317011 
L 275.154956 118.660433 
" clip-path="url(#p5e880f7e6b)" style="fill: none; stroke: #e6482f; stroke-width: 0.2"/>
    <path d="M 267.302722 96.529135 
L 263.032999 97.619586 
L 254.536504 101.939125 
" clip-path="url(#p5e880f7e6b)" style="fill: none; stroke: #e6482f; stroke-width: 0.2"/>
    <path d="M 254.536504 101.939125 
L 251.913695 102.979914 
L 249.949228 103.131014 
L 248.287528 102.149396 
L 246.13436 100.563381 
L 244.321277 99.317604 
L 242.886301 99.657842 
L 239.146773 100.75252 
L 237.295668 101.469977 
L 233.820885 100.450321 
L 231.138931 100.2242 
L 230.081357 99.960041 
L 229.382888 98.835602 
" clip-path="url(#p5e880f7e6b)" style="fill: none; stroke: #e6482f; stroke-width: 0.2"/>
    <path d="M 267.135848 94.052374 
L 267.132539 93.942912 
" clip-path="url(#p5e880f7e6b)" style="fill: none; stroke: #e6482f; stroke-width: 0.2"/>
   </g>
  </g>
 </g>
 <defs>
  <clipPath id="p5e880f7e6b">
   <rect x="7.2" y="7.2" width="837" height="613.134372"/>
  </clipPath>
 </defs>
</svg>
