<?xml version="1.0" encoding="utf-8" standalone="no"?>
<!DOCTYPE svg PUBLIC "-//W3C//DTD SVG 1.1//EN"
  "http://www.w3.org/Graphics/SVG/1.1/DTD/svg11.dtd">
<svg xmlns:xlink="http://www.w3.org/1999/xlink" width="851.4pt" height="834.3593pt" viewBox="0 0 851.4 834.3593" xmlns="http://www.w3.org/2000/svg" version="1.1">
 <metadata>
  <rdf:RDF xmlns:dc="http://purl.org/dc/elements/1.1/" xmlns:cc="http://creativecommons.org/ns#" xmlns:rdf="http://www.w3.org/1999/02/22-rdf-syntax-ns#">
   <cc:Work>
    <dc:type rdf:resource="http://purl.org/dc/dcmitype/StillImage"/>
    <dc:date>2025-03-16T14:38:37.790615</dc:date>
    <dc:format>image/svg+xml</dc:format>
    <dc:creator>
     <cc:Agent>
      <dc:title>Matplotlib v3.10.1, https://matplotlib.org/</dc:title>
     </cc:Agent>
    </dc:creator>
   </cc:Work>
  </rdf:RDF>
 </metadata>
 <defs>
  <style type="text/css">*{stroke-linejoin: round; stroke-linecap: butt}</style>
 </defs>
 <g id="figure_1">
  <g id="patch_1">
   <path d="M 0 834.3593 
L 851.4 834.3593 
L 851.4 0 
L 0 0 
z
" style="fill: #ffffff"/>
  </g>
  <g id="axes_1">
   <g id="PatchCollection_1">
    <path d="M 61.884793 459.755094 
L 181.979801 492.976449 
L 160.913399 564.678458 
L 171.0016 590.518826 
L 182.323873 610.947851 
L 228.346989 639.497345 
L 234.742147 648.847978 
L 243.848595 656.477763 
L 279.925726 667.71511 
L 288.78903 672.635768 
L 306.997338 683.465363 
L 324.719357 699.955097 
L 341.060499 710.874536 
L 355.727156 713.245022 
L 688.747889 789.888423 
L 741.510235 777.953062 
L 776.623964 708.552428 
L 806.154545 655.45493 
L 688.472631 589.157351 
L 616.047698 437.031604 
L 579.892577 420.949621 
L 539.77833 285.451828 
L 528.2175 216.493501 
L 525.721828 164.197683 
L 370.673658 124.901526 
L 367.099893 90.346341 
L 131.74524 44.470877 
L 88.066404 197.750768 
L 45.245455 366.317873 
L 61.884793 459.755094 
" clip-path="url(#p6a396d9c8d)" style="fill: #d1d4f2"/>
   </g>
   <g id="PatchCollection_2">
    <path d="M 728.091414 738.62235 
L 735.220593 743.169812 
L 728.183166 754.199827 
L 721.053988 749.652365 
L 728.091414 738.62235 
" clip-path="url(#p6a396d9c8d)" style="fill: #4d59c1"/>
    <path d="M 722.893628 734.710703 
L 718.003213 742.375043 
L 710.529962 737.606427 
L 715.420376 729.942087 
L 722.893628 734.710703 
" clip-path="url(#p6a396d9c8d)" style="fill: #4d59c1"/>
    <path d="M 626.186363 729.195695 
L 626.030383 736.507572 
L 616.960637 736.314063 
L 617.116616 729.002186 
L 626.186363 729.195695 
" clip-path="url(#p6a396d9c8d)" style="fill: #4d59c1"/>
    <path d="M 709.626198 726.500391 
L 703.689804 735.802647 
L 696.578975 731.269006 
L 702.51537 721.959839 
L 709.626198 726.500391 
" clip-path="url(#p6a396d9c8d)" style="fill: #4d59c1"/>
    <path d="M 589.090777 718.849873 
L 588.962324 725.014518 
L 580.851392 724.841742 
L 580.984433 718.677097 
L 589.090777 718.849873 
" clip-path="url(#p6a396d9c8d)" style="fill: #4d59c1"/>
    <path d="M 603.147279 718.822229 
L 603.037176 724.074617 
L 596.123616 723.929485 
L 596.233719 718.677097 
L 603.147279 718.822229 
" clip-path="url(#p6a396d9c8d)" style="fill: #4d59c1"/>
    <path d="M 566.437055 715.62933 
L 572.318398 715.753728 
L 572.084429 726.776832 
L 566.203086 726.652434 
L 566.437055 715.62933 
" clip-path="url(#p6a396d9c8d)" style="fill: #4d59c1"/>
    <path d="M 694.840263 717.364 
L 688.908456 726.652434 
L 682.508711 722.568011 
L 688.440518 713.279577 
L 694.840263 717.364 
" clip-path="url(#p6a396d9c8d)" style="fill: #4d59c1"/>
    <path d="M 616.10275 716.009437 
L 615.942183 723.604666 
L 608.978158 723.459535 
L 609.138726 715.864305 
L 616.10275 716.009437 
" clip-path="url(#p6a396d9c8d)" style="fill: #4d59c1"/>
    <path d="M 679.132214 711.337576 
L 674.595047 718.442122 
L 667.718188 714.046702 
L 672.250767 706.942156 
L 679.132214 711.337576 
" clip-path="url(#p6a396d9c8d)" style="fill: #4d59c1"/>
    <path d="M 662.511226 701.012486 
L 658.877823 706.707181 
L 653.831428 703.493548 
L 657.46942 697.791943 
L 662.511226 701.012486 
" clip-path="url(#p6a396d9c8d)" style="fill: #4d59c1"/>
    <path d="M 757.374263 696.720732 
L 754.112458 701.385682 
L 748.033846 697.128483 
L 751.295652 692.463533 
L 757.374263 696.720732 
" clip-path="url(#p6a396d9c8d)" style="fill: #4d59c1"/>
    <path d="M 650.427406 693.735164 
L 645.738847 701.081597 
L 637.765544 695.988162 
L 642.454103 688.64173 
L 650.427406 693.735164 
" clip-path="url(#p6a396d9c8d)" style="fill: #4d59c1"/>
    <path d="M 746.377712 690.258913 
L 743.43704 694.460823 
L 737.207037 690.099959 
L 740.152296 685.898048 
L 746.377712 690.258913 
" clip-path="url(#p6a396d9c8d)" style="fill: #4d59c1"/>
    <path d="M 633.70549 685.1793 
L 629.549097 691.696408 
L 622.107959 686.941615 
L 626.264353 680.431418 
L 633.70549 685.1793 
" clip-path="url(#p6a396d9c8d)" style="fill: #4d59c1"/>
    <path d="M 733.555282 681.101788 
L 729.710848 686.602974 
L 722.81105 681.772159 
L 726.660073 676.277885 
L 733.555282 681.101788 
" clip-path="url(#p6a396d9c8d)" style="fill: #4d59c1"/>
    <path d="M 567.524323 673.658602 
L 574.648915 683.479185 
L 568.863912 687.674185 
L 561.743908 677.84669 
L 567.524323 673.658602 
" clip-path="url(#p6a396d9c8d)" style="fill: #4d59c1"/>
    <path d="M 608.294601 681.074144 
L 613.221717 670.279104 
L 621.571206 674.093997 
L 616.64409 684.889037 
L 608.294601 681.074144 
" clip-path="url(#p6a396d9c8d)" style="fill: #4d59c1"/>
    <path d="M 583.824177 682.573839 
L 577.02072 673.188651 
L 581.92031 669.636378 
L 588.723767 679.021566 
L 583.824177 682.573839 
" clip-path="url(#p6a396d9c8d)" style="fill: #4d59c1"/>
    <path d="M 723.012906 674.425727 
L 719.503368 679.44314 
L 712.589808 674.605414 
L 716.103934 669.588001 
L 723.012906 674.425727 
" clip-path="url(#p6a396d9c8d)" style="fill: #4d59c1"/>
    <path d="M 531.91513 714.993514 
L 529.364407 724.544567 
L 521.184661 722.36068 
L 523.735384 712.809626 
L 531.91513 714.993514 
" clip-path="url(#p6a396d9c8d)" style="fill: #4d59c1"/>
    <path d="M 517.409041 712.781982 
L 515.523524 719.851973 
L 506.834551 717.529865 
L 508.720067 710.466785 
L 517.409041 712.781982 
" clip-path="url(#p6a396d9c8d)" style="fill: #4d59c1"/>
    <path d="M 495.544391 703.873655 
L 492.530317 715.159379 
L 486.470056 713.542196 
L 489.479542 702.249562 
L 495.544391 703.873655 
" clip-path="url(#p6a396d9c8d)" style="fill: #4d59c1"/>
    <path d="M 477.267268 696.617067 
L 474.698195 706.244141 
L 467.674531 704.364339 
L 470.243605 694.744176 
L 477.267268 696.617067 
" clip-path="url(#p6a396d9c8d)" style="fill: #4d59c1"/>
    <path d="M 524.896055 693.334324 
L 522.326981 702.954488 
L 515.303318 701.081597 
L 517.867804 691.461433 
L 524.896055 693.334324 
" clip-path="url(#p6a396d9c8d)" style="fill: #4d59c1"/>
    <path d="M 505.040787 687.833138 
L 503.325013 694.274225 
L 496.677535 692.498089 
L 498.397897 686.063913 
L 505.040787 687.833138 
" clip-path="url(#p6a396d9c8d)" style="fill: #4d59c1"/>
    <path d="M 490.998048 684.889037 
L 489.245573 691.461433 
L 480.455672 689.11168 
L 482.208147 682.539284 
L 490.998048 684.889037 
" clip-path="url(#p6a396d9c8d)" style="fill: #4d59c1"/>
    <path d="M 475.051442 678.931723 
L 473.528349 684.654061 
L 466.834995 682.871014 
L 468.362676 677.148675 
L 475.051442 678.931723 
" clip-path="url(#p6a396d9c8d)" style="fill: #4d59c1"/>
    <path d="M 532.584924 647.645458 
L 536.576164 658.205523 
L 530.538841 660.486165 
L 526.552189 649.9261 
L 532.584924 647.645458 
" clip-path="url(#p6a396d9c8d)" style="fill: #4d59c1"/>
    <path d="M 546.902921 644.86031 
L 551.655707 657.438398 
L 546.315704 659.45642 
L 541.567506 646.878333 
L 546.902921 644.86031 
" clip-path="url(#p6a396d9c8d)" style="fill: #4d59c1"/>
    <path d="M 594.614285 678.862612 
L 594.852842 666.664632 
L 603.037176 666.823586 
L 602.803207 679.021566 
L 594.614285 678.862612 
" clip-path="url(#p6a396d9c8d)" style="fill: #4d59c1"/>
    <path d="M 712.672385 665.911329 
L 708.947229 671.232827 
L 701.464803 665.994261 
L 705.189959 660.672763 
L 712.672385 665.911329 
" clip-path="url(#p6a396d9c8d)" style="fill: #4d59c1"/>
    <path d="M 693.693355 652.932401 
L 700.639029 657.79086 
L 696.533099 663.658331 
L 689.587425 658.792961 
L 693.693355 652.932401 
" clip-path="url(#p6a396d9c8d)" style="fill: #4d59c1"/>
    <path d="M 680.324998 630.167445 
L 677.989894 638.785509 
L 669.383498 636.456489 
L 671.718602 627.838426 
L 680.324998 630.167445 
" clip-path="url(#p6a396d9c8d)" style="fill: #4d59c1"/>
    <path d="M 665.369321 625.578517 
L 663.038804 634.168936 
L 655.785759 632.206201 
L 658.111688 623.608871 
L 665.369321 625.578517 
" clip-path="url(#p6a396d9c8d)" style="fill: #4d59c1"/>
    <path d="M 650.230138 623.13201 
L 648.257456 630.416243 
L 641.357659 628.550263 
L 643.330341 621.26603 
L 650.230138 623.13201 
" clip-path="url(#p6a396d9c8d)" style="fill: #4d59c1"/>
    <path d="M 634.898274 619.676491 
L 633.00817 626.66355 
L 625.016517 624.500395 
L 626.906621 617.513336 
L 634.898274 619.676491 
" clip-path="url(#p6a396d9c8d)" style="fill: #4d59c1"/>
    <path d="M 620.892237 614.956253 
L 618.92873 622.205931 
L 610.166355 619.828534 
L 612.125273 612.585767 
L 620.892237 614.956253 
" clip-path="url(#p6a396d9c8d)" style="fill: #4d59c1"/>
    <path d="M 606.973364 612.039795 
L 604.853878 619.856178 
L 597.339338 617.824333 
L 599.458824 610.001039 
L 606.973364 612.039795 
" clip-path="url(#p6a396d9c8d)" style="fill: #4d59c1"/>
    <path d="M 593.123305 608.383857 
L 591.480933 614.458658 
L 581.856083 611.853197 
L 583.503043 605.778396 
L 593.123305 608.383857 
" clip-path="url(#p6a396d9c8d)" style="fill: #4d59c1"/>
    <path d="M 681.614123 606.960183 
L 679.696493 613.988708 
L 671.91587 611.87393 
L 673.8335 604.838495 
L 681.614123 606.960183 
" clip-path="url(#p6a396d9c8d)" style="fill: #4d59c1"/>
    <path d="M 576.896854 603.283511 
L 574.823244 610.94094 
L 570.166799 609.683132 
L 572.240408 602.025702 
L 576.896854 603.283511 
" clip-path="url(#p6a396d9c8d)" style="fill: #4d59c1"/>
    <path d="M 668.020971 603.14529 
L 666.089579 610.236014 
L 658.529163 608.176525 
L 660.460555 601.085801 
L 668.020971 603.14529 
" clip-path="url(#p6a396d9c8d)" style="fill: #4d59c1"/>
    <path d="M 654.537923 597.67866 
L 652.010139 606.953272 
L 646.436167 605.432844 
L 648.963952 596.158232 
L 654.537923 597.67866 
" clip-path="url(#p6a396d9c8d)" style="fill: #4d59c1"/>
    <path d="M 640.990649 597.0774 
L 638.875751 604.838495 
L 629.48487 602.281411 
L 631.599768 594.520316 
L 640.990649 597.0774 
" clip-path="url(#p6a396d9c8d)" style="fill: #4d59c1"/>
    <path d="M 627.498425 593.587326 
L 625.264249 601.790727 
L 615.758677 599.199088 
L 617.992854 590.995687 
L 627.498425 593.587326 
" clip-path="url(#p6a396d9c8d)" style="fill: #4d59c1"/>
    <path d="M 612.446408 589.889921 
L 610.482901 597.098133 
L 603.35831 595.156132 
L 605.321816 587.94792 
L 612.446408 589.889921 
" clip-path="url(#p6a396d9c8d)" style="fill: #4d59c1"/>
    <path d="M 601.284701 586.01283 
L 598.518359 596.158232 
L 590.122994 593.870679 
L 592.889336 583.725276 
L 601.284701 586.01283 
" clip-path="url(#p6a396d9c8d)" style="fill: #4d59c1"/>
    <path d="M 585.672992 583.186215 
L 583.737012 590.290762 
L 574.525048 587.782055 
L 576.465616 580.677509 
L 585.672992 583.186215 
" clip-path="url(#p6a396d9c8d)" style="fill: #4d59c1"/>
    <path d="M 570.497108 578.770063 
L 568.955664 584.430202 
L 561.312671 582.343069 
L 562.854115 576.68293 
L 570.497108 578.770063 
" clip-path="url(#p6a396d9c8d)" style="fill: #4d59c1"/>
    <path d="M 568.019787 599.917836 
L 565.67092 608.598099 
L 556.986535 606.241435 
L 559.335402 597.568084 
L 568.019787 599.917836 
" clip-path="url(#p6a396d9c8d)" style="fill: #4d59c1"/>
    <path d="M 544.246683 594.416651 
L 541.741836 603.670529 
L 534.309874 601.652506 
L 536.81472 592.405539 
L 544.246683 594.416651 
" clip-path="url(#p6a396d9c8d)" style="fill: #4d59c1"/>
    <path d="M 531.204047 590.712335 
L 528.83683 599.447886 
L 520.368063 597.153421 
L 522.73528 588.417871 
L 531.204047 590.712335 
" clip-path="url(#p6a396d9c8d)" style="fill: #4d59c1"/>
    <path d="M 518.083422 587.636923 
L 515.697854 596.393207 
L 509.087078 594.596338 
L 511.472646 585.833143 
L 518.083422 587.636923 
" clip-path="url(#p6a396d9c8d)" style="fill: #4d59c1"/>
    <path d="M 508.362232 584.561512 
L 505.843622 593.81539 
L 499.333774 592.039254 
L 501.852383 582.785375 
L 508.362232 584.561512 
" clip-path="url(#p6a396d9c8d)" style="fill: #4d59c1"/>
    <path d="M 498.645629 583.593967 
L 496.691298 590.760712 
L 490.282378 589.019131 
L 492.236708 581.845474 
L 498.645629 583.593967 
" clip-path="url(#p6a396d9c8d)" style="fill: #4d59c1"/>
    <path d="M 489.933718 579.875829 
L 487.543562 588.652846 
L 481.864074 587.104773 
L 484.258818 578.327756 
L 489.933718 579.875829 
" clip-path="url(#p6a396d9c8d)" style="fill: #4d59c1"/>
    <path d="M 477.391134 576.282089 
L 475.106494 584.665177 
L 468.835202 582.95124 
L 471.119842 574.575063 
L 477.391134 576.282089 
" clip-path="url(#p6a396d9c8d)" style="fill: #4d59c1"/>
    <path d="M 557.523287 575.978004 
L 555.34875 583.960252 
L 548.481066 582.087361 
L 550.655604 574.105113 
L 557.523287 575.978004 
" clip-path="url(#p6a396d9c8d)" style="fill: #4d59c1"/>
    <path d="M 543.888848 570.207288 
L 541.741836 578.092781 
L 535.369617 576.358111 
L 537.516628 568.472618 
L 543.888848 570.207288 
" clip-path="url(#p6a396d9c8d)" style="fill: #4d59c1"/>
    <path d="M 529.066211 567.235542 
L 527.194458 574.105113 
L 519.689093 572.059446 
L 521.560847 565.189875 
L 529.066211 567.235542 
" clip-path="url(#p6a396d9c8d)" style="fill: #4d59c1"/>
    <path d="M 515.89971 563.48976 
L 513.587544 571.990335 
L 505.169241 569.702782 
L 507.485994 561.202207 
L 515.89971 563.48976 
" clip-path="url(#p6a396d9c8d)" style="fill: #4d59c1"/>
    <path d="M 504.439807 561.644513 
L 502.324909 569.412519 
L 492.934028 566.855435 
L 495.048926 559.087429 
L 504.439807 561.644513 
" clip-path="url(#p6a396d9c8d)" style="fill: #4d59c1"/>
    <path d="M 490.640213 557.262915 
L 488.479439 565.189875 
L 481.396136 563.254785 
L 483.552323 555.334736 
L 490.640213 557.262915 
" clip-path="url(#p6a396d9c8d)" style="fill: #4d59c1"/>
    <path d="M 476.592886 552.217858 
L 474.404586 560.262306 
L 467.752521 558.451614 
L 469.945409 550.407167 
L 476.592886 552.217858 
" clip-path="url(#p6a396d9c8d)" style="fill: #4d59c1"/>
    <path d="M 469.98211 506.100508 
L 467.954377 513.543695 
L 461.779425 511.857402 
L 463.807158 504.414215 
L 469.98211 506.100508 
" clip-path="url(#p6a396d9c8d)" style="fill: #4d59c1"/>
    <path d="M 553.499935 497.641399 
L 551.692408 504.013375 
L 544.907302 502.092107 
L 546.714828 495.720131 
L 553.499935 497.641399 
" clip-path="url(#p6a396d9c8d)" style="fill: #4d59c1"/>
    <path d="M 542.223538 495.201803 
L 539.911371 503.349915 
L 532.956523 501.38027 
L 535.268689 493.232157 
L 542.223538 495.201803 
" clip-path="url(#p6a396d9c8d)" style="fill: #4d59c1"/>
    <path d="M 529.827758 492.133302 
L 527.304561 501.027807 
L 520.634145 499.141094 
L 523.157342 490.246589 
L 529.827758 492.133302 
" clip-path="url(#p6a396d9c8d)" style="fill: #4d59c1"/>
    <path d="M 518.221051 488.442809 
L 515.358369 498.539834 
L 507.683263 496.362857 
L 510.545944 486.265832 
L 518.221051 488.442809 
" clip-path="url(#p6a396d9c8d)" style="fill: #4d59c1"/>
    <path d="M 645.761785 525.935185 
L 641.444824 530.724533 
L 638.293122 527.891008 
L 642.605495 523.094748 
L 645.761785 525.935185 
" clip-path="url(#p6a396d9c8d)" style="fill: #4d59c1"/>
    <path d="M 637.517812 517.635029 
L 633.645851 521.933694 
L 629.943633 518.602574 
L 633.815594 514.303909 
L 637.517812 517.635029 
" clip-path="url(#p6a396d9c8d)" style="fill: #4d59c1"/>
    <path d="M 626.512085 514.967369 
L 622.016206 519.964049 
L 617.043214 515.478785 
L 621.539093 510.489017 
L 626.512085 514.967369 
" clip-path="url(#p6a396d9c8d)" style="fill: #4d59c1"/>
    <path d="M 614.350275 509.535294 
L 612.244552 516.957747 
L 606.821972 515.416586 
L 608.927694 507.994132 
L 614.350275 509.535294 
" clip-path="url(#p6a396d9c8d)" style="fill: #4d59c1"/>
    <path d="M 599.211092 508.360417 
L 597.151245 515.630828 
L 591.769954 514.103489 
L 593.8298 506.833078 
L 599.211092 508.360417 
" clip-path="url(#p6a396d9c8d)" style="fill: #4d59c1"/>
    <path d="M 586.833663 505.748045 
L 585.535363 510.323152 
L 580.589897 508.920211 
L 581.888196 504.345105 
L 586.833663 505.748045 
" clip-path="url(#p6a396d9c8d)" style="fill: #4d59c1"/>
    <path d="M 577.314328 501.200583 
L 574.584688 510.820746 
L 568.707932 509.148276 
L 571.432985 499.535023 
L 577.314328 501.200583 
" clip-path="url(#p6a396d9c8d)" style="fill: #4d59c1"/>
    <path d="M 567.102261 499.376069 
L 565.12958 506.335483 
L 558.674783 504.51097 
L 560.652052 497.544644 
L 567.102261 499.376069 
" clip-path="url(#p6a396d9c8d)" style="fill: #4d59c1"/>
    <path d="M 625.433991 492.395922 
L 623.332856 499.797642 
L 616.088987 497.745064 
L 618.190122 490.343344 
L 625.433991 492.395922 
" clip-path="url(#p6a396d9c8d)" style="fill: #4d59c1"/>
    <path d="M 614.015377 490.142924 
L 611.914242 497.544644 
L 604.670373 495.492066 
L 606.771508 488.090346 
L 614.015377 490.142924 
" clip-path="url(#p6a396d9c8d)" style="fill: #4d59c1"/>
    <path d="M 503.554395 485.602372 
L 500.595372 496.05186 
L 495.310421 494.552165 
L 498.269443 484.109588 
L 503.554395 485.602372 
" clip-path="url(#p6a396d9c8d)" style="fill: #4d59c1"/>
    <path d="M 475.881803 487.032957 
L 474.101802 493.308179 
L 465.637623 490.910049 
L 467.417624 484.627916 
L 475.881803 487.032957 
" clip-path="url(#p6a396d9c8d)" style="fill: #4d59c1"/>
    <path d="M 559.665711 478.221385 
L 557.995813 484.109588 
L 553.009058 482.692826 
L 554.678956 476.804622 
L 559.665711 478.221385 
" clip-path="url(#p6a396d9c8d)" style="fill: #4d59c1"/>
    <path d="M 546.301942 474.710578 
L 544.393487 481.448839 
L 539.493897 480.066632 
L 541.406939 473.321459 
L 546.301942 474.710578 
" clip-path="url(#p6a396d9c8d)" style="fill: #4d59c1"/>
    <path d="M 534.805338 473.7223 
L 532.94276 480.287785 
L 527.433015 478.72589 
L 529.295593 472.160405 
L 534.805338 473.7223 
" clip-path="url(#p6a396d9c8d)" style="fill: #4d59c1"/>
    <path d="M 520.565331 471.054639 
L 518.510072 478.297406 
L 512.472749 476.59038 
L 514.528008 469.340702 
L 520.565331 471.054639 
" clip-path="url(#p6a396d9c8d)" style="fill: #4d59c1"/>
    <path d="M 480.886909 470.92333 
L 478.794949 478.297406 
L 465.912881 474.641468 
L 468.004841 467.267391 
L 480.886909 470.92333 
" clip-path="url(#p6a396d9c8d)" style="fill: #4d59c1"/>
    <path d="M 509.738521 466.299846 
L 507.229087 475.145973 
L 500.40728 473.210883 
L 502.916714 464.364755 
L 509.738521 466.299846 
" clip-path="url(#p6a396d9c8d)" style="fill: #4d59c1"/>
    <path d="M 483.71289 431.516596 
L 477.904949 451.993999 
L 467.624067 449.077541 
L 473.427421 428.600139 
L 483.71289 431.516596 
" clip-path="url(#p6a396d9c8d)" style="fill: #4d59c1"/>
    <path d="M 562.996331 429.242865 
L 561.042001 436.14008 
L 557.174627 435.041225 
L 559.128958 428.14401 
L 562.996331 429.242865 
" clip-path="url(#p6a396d9c8d)" style="fill: #4d59c1"/>
    <path d="M 600.055216 487.910659 
L 598.311916 494.061482 
L 591.921346 492.25079 
L 593.664646 486.099967 
L 600.055216 487.910659 
" clip-path="url(#p6a396d9c8d)" style="fill: #4d59c1"/>
    <path d="M 586.774024 484.614094 
L 584.705002 491.905238 
L 578.823659 490.232767 
L 580.892681 482.948534 
L 586.774024 484.614094 
" clip-path="url(#p6a396d9c8d)" style="fill: #4d59c1"/>
    <path d="M 571.212779 481.683814 
L 569.77685 486.763427 
L 564.854322 485.367397 
L 566.290251 480.287785 
L 571.212779 481.683814 
" clip-path="url(#p6a396d9c8d)" style="fill: #4d59c1"/>
    <path d="M 611.950943 445.186628 
L 609.881922 452.477772 
L 605.560373 451.254518 
L 607.624807 443.963374 
L 611.950943 445.186628 
" clip-path="url(#p6a396d9c8d)" style="fill: #4d59c1"/>
    <path d="M 602.29398 442.919807 
L 600.325886 449.872311 
L 594.183048 448.130729 
L 596.151142 441.178226 
L 602.29398 442.919807 
" clip-path="url(#p6a396d9c8d)" style="fill: #4d59c1"/>
    <path d="M 592.347996 438.095904 
L 590.242273 445.525268 
L 585.182116 444.094684 
L 587.287838 436.658408 
L 592.347996 438.095904 
" clip-path="url(#p6a396d9c8d)" style="fill: #4d59c1"/>
    <path d="M 582.645156 433.458598 
L 580.15866 442.221793 
L 574.896647 440.729009 
L 577.378555 431.965814 
L 582.645156 433.458598 
" clip-path="url(#p6a396d9c8d)" style="fill: #4d59c1"/>
    <path d="M 570.097984 430.27261 
L 567.992262 437.701974 
L 564.147827 436.616942 
L 566.253549 429.187577 
L 570.097984 430.27261 
" clip-path="url(#p6a396d9c8d)" style="fill: #4d59c1"/>
    <path d="M 383.307994 676.740924 
L 381.32155 684.184111 
L 375.811805 682.71206 
L 377.798249 675.268873 
L 383.307994 676.740924 
" clip-path="url(#p6a396d9c8d)" style="fill: #4d59c1"/>
    <path d="M 368.01742 670.078684 
L 366.067676 677.38365 
L 354.736227 674.356616 
L 356.685971 667.058561 
L 368.01742 670.078684 
" clip-path="url(#p6a396d9c8d)" style="fill: #4d59c1"/>
    <path d="M 347.02442 660.887005 
L 344.248903 671.281205 
L 337.486734 669.477424 
L 340.262251 659.076313 
L 347.02442 660.887005 
" clip-path="url(#p6a396d9c8d)" style="fill: #4d59c1"/>
    <path d="M 395.134907 656.837137 
L 393.286092 663.768907 
L 386.74413 662.027326 
L 388.592945 655.088645 
L 395.134907 656.837137 
" clip-path="url(#p6a396d9c8d)" style="fill: #4d59c1"/>
    <path d="M 378.24325 652.966957 
L 376.605465 658.979559 
L 370.269947 657.258711 
L 371.912319 651.239197 
L 378.24325 652.966957 
" clip-path="url(#p6a396d9c8d)" style="fill: #4d59c1"/>
    <path d="M 355.580352 647.555615 
L 353.635196 654.85367 
L 345.82246 652.766536 
L 347.767616 645.468481 
L 355.580352 647.555615 
" clip-path="url(#p6a396d9c8d)" style="fill: #4d59c1"/>
    <path d="M 344.542511 644.265961 
L 342.8405 650.631026 
L 335.041527 648.550804 
L 336.743538 642.185739 
L 344.542511 644.265961 
" clip-path="url(#p6a396d9c8d)" style="fill: #4d59c1"/>
    <path d="M 381.284849 642.275582 
L 379.417683 649.12442 
L 373.563866 647.52797 
L 375.431032 640.679133 
L 381.284849 642.275582 
" clip-path="url(#p6a396d9c8d)" style="fill: #4d59c1"/>
    <path d="M 384.395263 628.764505 
L 382.234489 636.691464 
L 375.146598 634.763285 
L 377.307373 626.836325 
L 384.395263 628.764505 
" clip-path="url(#p6a396d9c8d)" style="fill: #4d59c1"/>
    <path d="M 388.414028 615.426203 
L 385.753202 625.191499 
L 380.27557 623.698715 
L 382.936396 613.933419 
L 388.414028 615.426203 
" clip-path="url(#p6a396d9c8d)" style="fill: #4d59c1"/>
    <path d="M 455.861381 691.855362 
L 453.585916 700.376671 
L 446.851273 698.579801 
L 449.126738 690.051581 
L 455.861381 691.855362 
" clip-path="url(#p6a396d9c8d)" style="fill: #4d59c1"/>
    <path d="M 439.671631 689.270634 
L 437.396166 697.791943 
L 430.661523 695.995073 
L 432.936988 687.466854 
L 439.671631 689.270634 
" clip-path="url(#p6a396d9c8d)" style="fill: #4d59c1"/>
    <path d="M 422.082653 684.121912 
L 419.564043 693.569299 
L 411.879761 691.516721 
L 414.402958 682.076245 
L 422.082653 684.121912 
" clip-path="url(#p6a396d9c8d)" style="fill: #4d59c1"/>
    <path d="M 404.856098 680.106599 
L 402.199859 690.051581 
L 394.621093 688.026648 
L 397.272744 678.081665 
L 404.856098 680.106599 
" clip-path="url(#p6a396d9c8d)" style="fill: #4d59c1"/>
    <path d="M 458.104733 673.865933 
L 456.164165 681.136344 
L 449.998388 679.491517 
L 451.938956 672.221106 
L 458.104733 673.865933 
" clip-path="url(#p6a396d9c8d)" style="fill: #4d59c1"/>
    <path d="M 441.658075 670.901098 
L 439.740445 678.081665 
L 435.00601 676.823856 
L 436.92364 669.636378 
L 441.658075 670.901098 
" clip-path="url(#p6a396d9c8d)" style="fill: #4d59c1"/>
    <path d="M 426.569356 665.482845 
L 424.959098 671.51618 
L 416.779351 669.332292 
L 418.38961 663.298957 
L 426.569356 665.482845 
" clip-path="url(#p6a396d9c8d)" style="fill: #4d59c1"/>
    <path d="M 409.186822 661.978949 
L 406.893006 670.576279 
L 401.314447 669.083495 
L 403.608262 660.486165 
L 409.186822 661.978949 
" clip-path="url(#p6a396d9c8d)" style="fill: #4d59c1"/>
    <path d="M 465.233911 572.68835 
L 462.674013 582.08045 
L 452.370194 579.274568 
L 454.930092 569.882469 
L 465.233911 572.68835 
" clip-path="url(#p6a396d9c8d)" style="fill: #4d59c1"/>
    <path d="M 451.585709 568.451884 
L 448.828542 578.562732 
L 441.148848 576.468687 
L 443.901427 566.364751 
L 451.585709 568.451884 
" clip-path="url(#p6a396d9c8d)" style="fill: #4d59c1"/>
    <path d="M 359.429374 607.948461 
L 356.897002 617.451137 
L 331.834773 610.761253 
L 334.371733 601.258577 
L 359.429374 607.948461 
" clip-path="url(#p6a396d9c8d)" style="fill: #4d59c1"/>
    <path d="M 391.084029 603.691262 
L 388.803976 612.053617 
L 381.601396 610.090883 
L 383.876861 601.728528 
L 391.084029 603.691262 
" clip-path="url(#p6a396d9c8d)" style="fill: #4d59c1"/>
    <path d="M 392.657587 591.030243 
L 390.446348 599.150711 
L 384.950366 597.651016 
L 387.161604 589.530547 
L 392.657587 591.030243 
" clip-path="url(#p6a396d9c8d)" style="fill: #4d59c1"/>
    <path d="M 362.452623 588.528447 
L 360.181746 597.035934 
L 334.917661 590.297673 
L 337.188538 581.790186 
L 362.452623 588.528447 
" clip-path="url(#p6a396d9c8d)" style="fill: #4d59c1"/>
    <path d="M 396.309341 580.843374 
L 394.199031 588.590646 
L 389.037946 587.187706 
L 391.148256 579.440433 
L 396.309341 580.843374 
" clip-path="url(#p6a396d9c8d)" style="fill: #4d59c1"/>
    <path d="M 400.594189 568.659216 
L 398.424239 576.627641 
L 390.620678 574.499042 
L 392.790628 566.537527 
L 400.594189 568.659216 
" clip-path="url(#p6a396d9c8d)" style="fill: #4d59c1"/>
    <path d="M 380.35356 549.087159 
L 377.724847 558.741877 
L 351.162463 551.506022 
L 353.791175 541.851303 
L 380.35356 549.087159 
" clip-path="url(#p6a396d9c8d)" style="fill: #4d59c1"/>
    <path d="M 383.528201 525.852252 
L 380.72057 536.156608 
L 369.467111 533.088108 
L 372.274741 522.783752 
L 383.528201 525.852252 
" clip-path="url(#p6a396d9c8d)" style="fill: #4d59c1"/>
    <path d="M 367.297162 523.751297 
L 365.003346 532.16894 
L 355.433547 529.563479 
L 357.727363 521.138925 
L 367.297162 523.751297 
" clip-path="url(#p6a396d9c8d)" style="fill: #4d59c1"/>
    <path d="M 354.309578 520.523843 
L 352.09834 528.651222 
L 338.858436 525.043661 
L 341.069674 516.916281 
L 354.309578 520.523843 
" clip-path="url(#p6a396d9c8d)" style="fill: #4d59c1"/>
    <path d="M 322.517294 598.217721 
L 319.824354 608.300924 
L 296.955013 602.198478 
L 299.647953 592.108364 
L 322.517294 598.217721 
" clip-path="url(#p6a396d9c8d)" style="fill: #4d59c1"/>
    <path d="M 286.160317 588.735778 
L 283.692171 597.975835 
L 269.965979 594.312985 
L 272.429537 585.072929 
L 286.160317 588.735778 
" clip-path="url(#p6a396d9c8d)" style="fill: #4d59c1"/>
    <path d="M 265.81876 583.48339 
L 263.51577 592.108364 
L 256.285663 590.180185 
L 258.588654 581.555211 
L 265.81876 583.48339 
" clip-path="url(#p6a396d9c8d)" style="fill: #4d59c1"/>
    <path d="M 328.155493 577.947649 
L 325.691935 587.180795 
L 301.405015 580.698242 
L 303.873161 571.465097 
L 328.155493 577.947649 
" clip-path="url(#p6a396d9c8d)" style="fill: #4d59c1"/>
    <path d="M 294.38594 570.075978 
L 292.138 578.500532 
L 282.384697 575.895071 
L 284.632636 567.477428 
L 294.38594 570.075978 
" clip-path="url(#p6a396d9c8d)" style="fill: #4d59c1"/>
    <path d="M 266.910617 563.082009 
L 264.924172 570.525196 
L 248.858288 566.233442 
L 250.844732 558.790255 
L 266.910617 563.082009 
" clip-path="url(#p6a396d9c8d)" style="fill: #4d59c1"/>
    <path d="M 314.608218 560.421259 
L 311.846464 570.760171 
L 304.864089 568.894191 
L 307.625843 558.555279 
L 314.608218 560.421259 
" clip-path="url(#p6a396d9c8d)" style="fill: #4d59c1"/>
    <path d="M 341.207303 538.243742 
L 338.30792 548.886739 
L 317.103889 543.109112 
L 320.00786 532.466115 
L 341.207303 538.243742 
" clip-path="url(#p6a396d9c8d)" style="fill: #4d59c1"/>
    <path d="M 307.258833 530.938775 
L 304.639295 540.545117 
L 288.752329 536.211897 
L 291.367278 526.605555 
L 307.258833 530.938775 
" clip-path="url(#p6a396d9c8d)" style="fill: #4d59c1"/>
    <path d="M 279.072427 523.267524 
L 276.287735 533.495859 
L 256.579271 528.125983 
L 259.363963 517.897648 
L 279.072427 523.267524 
" clip-path="url(#p6a396d9c8d)" style="fill: #4d59c1"/>
    <path d="M 439.20828 565.742758 
L 436.864 574.340088 
L 430.533069 572.612329 
L 432.877349 564.014999 
L 439.20828 565.742758 
" clip-path="url(#p6a396d9c8d)" style="fill: #4d59c1"/>
    <path d="M 424.573737 561.513203 
L 421.848684 571.520385 
L 412.081617 568.859636 
L 414.811257 558.852454 
L 424.573737 561.513203 
" clip-path="url(#p6a396d9c8d)" style="fill: #4d59c1"/>
    <path d="M 403.190788 557.421869 
L 401.475014 563.717824 
L 392.721813 561.333516 
L 394.433 555.037562 
L 403.190788 557.421869 
" clip-path="url(#p6a396d9c8d)" style="fill: #4d59c1"/>
    <path d="M 459.531486 548.278567 
L 457.14133 557.055584 
L 446.300758 554.104572 
L 448.695501 545.327554 
L 459.531486 548.278567 
" clip-path="url(#p6a396d9c8d)" style="fill: #4d59c1"/>
    <path d="M 444.869417 544.422209 
L 442.754519 552.183303 
L 428.202553 548.223279 
L 430.317451 540.455273 
L 444.869417 544.422209 
" clip-path="url(#p6a396d9c8d)" style="fill: #4d59c1"/>
    <path d="M 427.275851 538.637671 
L 424.899458 547.359399 
L 411.260431 543.641261 
L 413.636824 534.919533 
L 427.275851 538.637671 
" clip-path="url(#p6a396d9c8d)" style="fill: #4d59c1"/>
    <path d="M 410.966823 533.827589 
L 408.24177 543.83477 
L 398.474703 541.174021 
L 401.199756 531.16684 
L 410.966823 533.827589 
" clip-path="url(#p6a396d9c8d)" style="fill: #4d59c1"/>
    <path d="M 465.747726 520.178291 
L 463.307106 529.134995 
L 457.214732 527.476346 
L 459.65994 518.519642 
L 465.747726 520.178291 
" clip-path="url(#p6a396d9c8d)" style="fill: #4d59c1"/>
    <path d="M 443.878488 512.410285 
L 441.437869 521.366989 
L 435.350082 519.70834 
L 437.790702 510.751636 
L 443.878488 512.410285 
" clip-path="url(#p6a396d9c8d)" style="fill: #4d59c1"/>
    <path d="M 427.817192 509.238119 
L 425.624304 517.296388 
L 419.27961 515.568629 
L 421.477086 507.51036 
L 427.817192 509.238119 
" clip-path="url(#p6a396d9c8d)" style="fill: #4d59c1"/>
    <path d="M 402.167746 502.375459 
L 399.906044 510.661793 
L 393.171401 508.823457 
L 395.428516 500.537123 
L 402.167746 502.375459 
" clip-path="url(#p6a396d9c8d)" style="fill: #4d59c1"/>
    <path d="M 388.120419 498.076794 
L 385.638511 507.17863 
L 378.848817 505.326472 
L 381.326138 496.224636 
L 388.120419 498.076794 
" clip-path="url(#p6a396d9c8d)" style="fill: #4d59c1"/>
    <path d="M 374.288711 495.208714 
L 371.705875 504.683746 
L 366.301646 503.211695 
L 368.884482 493.736663 
L 374.288711 495.208714 
" clip-path="url(#p6a396d9c8d)" style="fill: #4d59c1"/>
    <path d="M 339.936529 472.029096 
L 336.959157 482.52005 
L 329.504256 480.405272 
L 332.481629 469.914318 
L 339.936529 472.029096 
" clip-path="url(#p6a396d9c8d)" style="fill: #4d59c1"/>
    <path d="M 397.713156 466.997861 
L 395.974444 473.134861 
L 389.891245 471.407102 
L 391.634545 465.270101 
L 397.713156 466.997861 
" clip-path="url(#p6a396d9c8d)" style="fill: #4d59c1"/>
    <path d="M 383.551139 462.360555 
L 381.427066 469.845208 
L 375.55031 468.179648 
L 377.674383 460.694995 
L 383.551139 462.360555 
" clip-path="url(#p6a396d9c8d)" style="fill: #4d59c1"/>
    <path d="M 368.572523 458.884303 
L 366.764996 465.270101 
L 359.906488 463.3281 
L 361.718602 456.942302 
L 368.572523 458.884303 
" clip-path="url(#p6a396d9c8d)" style="fill: #4d59c1"/>
    <path d="M 354.061846 456.313397 
L 352.451587 461.987359 
L 345.565553 460.038446 
L 347.171224 454.364485 
L 354.061846 456.313397 
" clip-path="url(#p6a396d9c8d)" style="fill: #4d59c1"/>
    <path d="M 343.198335 454.495795 
L 341.276118 461.289344 
L 334.206578 459.285143 
L 336.128796 452.491594 
L 343.198335 454.495795 
" clip-path="url(#p6a396d9c8d)" style="fill: #4d59c1"/>
    <path d="M 386.386295 445.40087 
L 384.711809 451.309806 
L 374.940155 448.545392 
L 376.619228 442.629544 
L 386.386295 445.40087 
" clip-path="url(#p6a396d9c8d)" style="fill: #4d59c1"/>
    <path d="M 335.972816 515.50643 
L 333.798279 523.488677 
L 321.76951 520.212846 
L 323.944047 512.223687 
L 335.972816 515.50643 
" clip-path="url(#p6a396d9c8d)" style="fill: #4d59c1"/>
    <path d="M 312.630949 507.759157 
L 310.378422 516.024757 
L 293.197743 511.339074 
L 295.445682 503.080385 
L 312.630949 507.759157 
" clip-path="url(#p6a396d9c8d)" style="fill: #4d59c1"/>
    <path d="M 282.646192 502.527502 
L 280.269799 511.263053 
L 263.621285 506.729413 
L 266.002266 497.986951 
L 282.646192 502.527502 
" clip-path="url(#p6a396d9c8d)" style="fill: #4d59c1"/>
    <path d="M 260.331954 496.196992 
L 258.038138 504.628457 
L 241.472202 500.11555 
L 242.531945 496.217725 
L 243.770605 491.684085 
L 260.331954 496.196992 
" clip-path="url(#p6a396d9c8d)" style="fill: #4d59c1"/>
    <path d="M 333.206474 488.380609 
L 330.820906 496.791341 
L 325.948842 495.409134 
L 328.33441 486.998402 
L 333.206474 488.380609 
" clip-path="url(#p6a396d9c8d)" style="fill: #4d59c1"/>
    <path d="M 320.682241 471.835586 
L 315.392703 490.488475 
L 307.451513 488.235477 
L 312.736464 469.582588 
L 320.682241 471.835586 
" clip-path="url(#p6a396d9c8d)" style="fill: #4d59c1"/>
    <path d="M 326.531471 434.868449 
L 321.861263 451.33054 
L 313.213578 448.877121 
L 317.883786 432.421942 
L 326.531471 434.868449 
" clip-path="url(#p6a396d9c8d)" style="fill: #4d59c1"/>
    <path d="M 268.172215 385.62731 
L 258.680406 383.180803 
L 261.515562 372.171521 
L 263.6901 363.726234 
L 273.181908 366.172741 
L 281.792892 368.391184 
L 279.618355 376.82956 
L 271.007371 374.618028 
L 268.172215 385.62731 
" clip-path="url(#p6a396d9c8d)" style="fill: #4d59c1"/>
    <path d="M 305.061357 357.948607 
L 302.900583 366.414627 
L 284.476656 361.722033 
L 286.632843 353.256013 
L 305.061357 357.948607 
" clip-path="url(#p6a396d9c8d)" style="fill: #4d59c1"/>
    <path d="M 306.318368 335.854021 
L 320.173014 339.116031 
L 319.076571 343.767159 
L 305.221924 340.505149 
L 306.318368 335.854021 
" clip-path="url(#p6a396d9c8d)" style="fill: #4d59c1"/>
    <path d="M 368.622987 440.701365 
L 366.645718 447.674601 
L 353.171845 443.859708 
L 355.149114 436.886472 
L 368.622987 440.701365 
" clip-path="url(#p6a396d9c8d)" style="fill: #4d59c1"/>
    <path d="M 350.400916 436.333589 
L 348.409884 443.369025 
L 344.134212 442.159593 
L 338.11524 440.452567 
L 340.110859 433.417132 
L 350.400916 436.333589 
" clip-path="url(#p6a396d9c8d)" style="fill: #4d59c1"/>
    <path d="M 377.050465 406.187646 
L 373.605154 419.138929 
L 368.196337 417.701433 
L 371.641648 404.743239 
L 377.050465 406.187646 
" clip-path="url(#p6a396d9c8d)" style="fill: #4d59c1"/>
    <path d="M 356.195094 399.815669 
L 351.891896 414.999218 
L 344.597563 412.932818 
L 348.905348 397.742358 
L 356.195094 399.815669 
" clip-path="url(#p6a396d9c8d)" style="fill: #4d59c1"/>
    <path d="M 339.028178 395.095431 
L 334.137764 412.34538 
L 327.091162 410.34809 
L 331.981577 393.098141 
L 339.028178 395.095431 
" clip-path="url(#p6a396d9c8d)" style="fill: #4d59c1"/>
    <path d="M 361.016695 385.302492 
L 352.607567 382.918184 
L 354.360042 376.739717 
L 355.818908 371.597905 
L 376.24763 377.389354 
L 373.55469 386.89203 
L 368.233038 385.385424 
L 368.63675 383.96175 
L 361.934221 382.061215 
L 361.016695 385.302492 
" clip-path="url(#p6a396d9c8d)" style="fill: #4d59c1"/>
    <path d="M 343.767201 374.127345 
L 342.184469 379.718374 
L 334.968125 377.672707 
L 335.761785 374.880648 
L 326.205749 372.171521 
L 326.013069 372.862625 
L 321.127242 371.473506 
L 321.32451 370.789314 
L 323.604562 362.737956 
L 345.253594 368.881868 
L 343.767201 374.127345 
" clip-path="url(#p6a396d9c8d)" style="fill: #4d59c1"/>
    <path d="M 369.155152 355.087438 
L 362.585664 353.539365 
L 364.012418 347.478386 
L 352.937876 344.872925 
L 351.634989 350.408665 
L 344.927872 348.832949 
L 346.235347 343.290297 
L 348.157564 335.11454 
L 372.504123 340.84379 
L 369.155152 355.087438 
" clip-path="url(#p6a396d9c8d)" style="fill: #4d59c1"/>
    <path d="M 389.941709 248.954642 
L 388.372739 254.753002 
L 380.8949 252.728068 
L 382.46387 246.929708 
L 389.941709 248.954642 
" clip-path="url(#p6a396d9c8d)" style="fill: #4d59c1"/>
    <path d="M 377.399125 245.112105 
L 375.683351 251.449526 
L 370.838813 250.136429 
L 372.554587 243.799008 
L 377.399125 245.112105 
" clip-path="url(#p6a396d9c8d)" style="fill: #4d59c1"/>
    <path d="M 423.858066 390.015819 
L 422.013838 396.512194 
L 410.613575 393.284739 
L 412.453215 386.781453 
L 423.858066 390.015819 
" clip-path="url(#p6a396d9c8d)" style="fill: #4d59c1"/>
    <path d="M 407.810532 385.523645 
L 406.021356 391.819599 
L 392.07037 387.866486 
L 393.854958 381.563621 
L 407.810532 385.523645 
" clip-path="url(#p6a396d9c8d)" style="fill: #4d59c1"/>
    <path d="M 469.174687 376.166101 
L 467.504789 382.489699 
L 455.237463 379.255334 
L 456.902773 372.931735 
L 469.174687 376.166101 
" clip-path="url(#p6a396d9c8d)" style="fill: #4d59c1"/>
    <path d="M 452.884008 371.971101 
L 451.067306 378.861405 
L 438.226527 375.474997 
L 440.043229 368.584693 
L 452.884008 371.971101 
" clip-path="url(#p6a396d9c8d)" style="fill: #4d59c1"/>
    <path d="M 430.895492 365.011687 
L 429.046677 372.890269 
L 388.372739 363.332305 
L 390.221554 355.453723 
L 430.895492 365.011687 
" clip-path="url(#p6a396d9c8d)" style="fill: #4d59c1"/>
    <path d="M 461.683085 327.65062 
L 459.935197 333.856732 
L 449.562563 330.940274 
L 451.310451 324.734163 
L 461.683085 327.65062 
" clip-path="url(#p6a396d9c8d)" style="fill: #4d59c1"/>
    <path d="M 464.8302 312.494716 
L 463.256642 318.099567 
L 454.87504 315.735993 
L 456.453185 310.131142 
L 464.8302 312.494716 
" clip-path="url(#p6a396d9c8d)" style="fill: #4d59c1"/>
    <path d="M 457.590918 266.391188 
L 455.989835 272.307036 
L 450.218595 270.745141 
L 451.819678 264.829294 
L 457.590918 266.391188 
" clip-path="url(#p6a396d9c8d)" style="fill: #4d59c1"/>
    <path d="M 445.722716 262.666139 
L 443.823437 269.694664 
L 437.052093 267.863239 
L 438.95596 260.834714 
L 445.722716 262.666139 
" clip-path="url(#p6a396d9c8d)" style="fill: #4d59c1"/>
    <path d="M 431.42307 259.777326 
L 429.913739 265.354532 
L 423.54152 263.626773 
L 425.05085 258.049566 
L 431.42307 259.777326 
" clip-path="url(#p6a396d9c8d)" style="fill: #4d59c1"/>
    <path d="M 278.554025 326.745275 
L 255.354374 321.285555 
L 258.047313 309.840878 
L 266.754637 311.893456 
L 265.249894 318.299987 
L 272.057939 319.903348 
L 278.21454 293.717429 
L 285.894234 295.521209 
L 278.554025 326.745275 
" clip-path="url(#p6a396d9c8d)" style="fill: #4d59c1"/>
    <path d="M 296.94125 291.257099 
L 295.670476 296.053359 
L 291.426918 294.933771 
L 292.697691 290.137511 
L 296.94125 291.257099 
" clip-path="url(#p6a396d9c8d)" style="fill: #4d59c1"/>
    <path d="M 314.369661 228.159331 
L 312.897031 233.598317 
L 308.474555 232.402708 
L 309.947185 226.963722 
L 314.369661 228.159331 
" clip-path="url(#p6a396d9c8d)" style="fill: #4d59c1"/>
    <path d="M 307.451513 227.634092 
L 306.134863 232.492551 
L 301.37749 231.207098 
L 302.69414 226.348639 
L 307.451513 227.634092 
" clip-path="url(#p6a396d9c8d)" style="fill: #4d59c1"/>
    <path d="M 293.986816 224.061086 
L 292.37197 230.039133 
L 287.187946 228.636193 
L 288.80738 222.665057 
L 293.986816 224.061086 
" clip-path="url(#p6a396d9c8d)" style="fill: #4d59c1"/>
    <path d="M 281.416706 219.866087 
L 280.32485 223.88831 
L 274.319641 222.264216 
L 275.40691 218.235082 
L 281.416706 219.866087 
" clip-path="url(#p6a396d9c8d)" style="fill: #4d59c1"/>
    <path d="M 266.479379 215.152759 
L 264.713141 221.676778 
L 259.753912 220.336037 
L 261.52015 213.812018 
L 266.479379 215.152759 
" clip-path="url(#p6a396d9c8d)" style="fill: #4d59c1"/>
    <path d="M 335.601218 213.549399 
L 333.665238 220.695411 
L 328.293122 219.244093 
L 330.224514 212.09117 
L 335.601218 213.549399 
" clip-path="url(#p6a396d9c8d)" style="fill: #4d59c1"/>
    <path d="M 255.349786 212.761541 
L 254.267105 216.763031 
L 246.793854 214.738097 
L 247.876535 210.743518 
L 255.349786 212.761541 
" clip-path="url(#p6a396d9c8d)" style="fill: #4d59c1"/>
    <path d="M 315.713837 208.545808 
L 313.754918 215.781664 
L 308.235998 214.281969 
L 310.190329 207.053024 
L 315.713837 208.545808 
" clip-path="url(#p6a396d9c8d)" style="fill: #4d59c1"/>
    <path d="M 327.875647 658.371388 
L 326.182811 664.708809 
L 320.035385 663.070893 
L 321.723634 656.733472 
L 327.875647 658.371388 
" clip-path="url(#p6a396d9c8d)" style="fill: #4d59c1"/>
    <path d="M 309.86002 653.602772 
L 307.648781 661.896016 
L 300.037901 659.864172 
L 302.253727 651.570927 
L 309.86002 653.602772 
" clip-path="url(#p6a396d9c8d)" style="fill: #4d59c1"/>
    <path d="M 290.064391 646.836867 
L 288.174287 653.913769 
L 280.42119 651.847369 
L 282.311294 644.763556 
L 290.064391 646.836867 
" clip-path="url(#p6a396d9c8d)" style="fill: #4d59c1"/>
    <path d="M 272.447887 642.510558 
L 270.342165 650.396051 
L 261.199016 647.956455 
L 263.304739 640.070961 
L 272.447887 642.510558 
" clip-path="url(#p6a396d9c8d)" style="fill: #4d59c1"/>
    <path d="M 328.999617 639.497345 
L 326.65075 648.288184 
L 319.145385 646.283984 
L 321.489665 637.493145 
L 328.999617 639.497345 
" clip-path="url(#p6a396d9c8d)" style="fill: #4d59c1"/>
    <path d="M 256.560921 637.271991 
L 254.62494 644.52858 
L 247.527875 642.634956 
L 249.463855 635.378367 
L 256.560921 637.271991 
" clip-path="url(#p6a396d9c8d)" style="fill: #4d59c1"/>
    <path d="M 312.690588 634.549043 
L 310.465587 642.890665 
L 302.139036 640.665311 
L 304.364037 632.3306 
L 312.690588 634.549043 
" clip-path="url(#p6a396d9c8d)" style="fill: #4d59c1"/>
    <path d="M 297.124755 629.918648 
L 294.977744 637.963095 
L 285.559337 635.447478 
L 287.706349 627.403031 
L 297.124755 629.918648 
" clip-path="url(#p6a396d9c8d)" style="fill: #4d59c1"/>
    <path d="M 280.375314 623.747092 
L 278.086086 632.3306 
L 268.052937 629.649118 
L 270.342165 621.06561 
L 280.375314 623.747092 
" clip-path="url(#p6a396d9c8d)" style="fill: #4d59c1"/>
    <path d="M 263.781852 615.066829 
L 260.487933 627.403031 
L 254.849734 625.896424 
L 258.143654 613.560223 
L 263.781852 615.066829 
" clip-path="url(#p6a396d9c8d)" style="fill: #4d59c1"/>
    <path d="M 241.655707 575.197057 
L 239.586686 582.958151 
L 222.965698 578.521265 
L 225.039307 570.760171 
L 241.655707 575.197057 
" clip-path="url(#p6a396d9c8d)" style="fill: #4d59c1"/>
    <path d="M 217.543118 571.465097 
L 215.492447 579.246924 
L 209.790021 577.747229 
L 211.840692 569.958491 
L 217.543118 571.465097 
" clip-path="url(#p6a396d9c8d)" style="fill: #4d59c1"/>
    <path d="M 187.755629 545.092579 
L 178.750109 580.069338 
L 170.240053 577.871628 
L 179.245573 542.90178 
L 187.755629 545.092579 
" clip-path="url(#p6a396d9c8d)" style="fill: #4d59c1"/>
    <path d="M 244.321121 555.175782 
L 242.164934 563.247874 
L 231.09498 560.296861 
L 233.251167 552.224769 
L 244.321121 555.175782 
" clip-path="url(#p6a396d9c8d)" style="fill: #4d59c1"/>
    <path d="M 220.470026 552.418279 
L 218.644149 559.343138 
L 215.327292 558.465436 
L 217.153169 551.540577 
L 220.470026 552.418279 
" clip-path="url(#p6a396d9c8d)" style="fill: #4d59c1"/>
    <path d="M 226.241266 541.436641 
L 224.45209 548.223279 
L 216.854973 546.219078 
L 218.644149 539.43244 
L 226.241266 541.436641 
" clip-path="url(#p6a396d9c8d)" style="fill: #4d59c1"/>
    <path d="M 234.265033 535.29964 
L 232.911682 540.427629 
L 229.071835 539.411707 
L 230.425186 534.290628 
L 234.265033 535.29964 
" clip-path="url(#p6a396d9c8d)" style="fill: #4d59c1"/>
    <path d="M 228.236886 525.727853 
L 226.108225 533.793034 
L 220.832449 532.397004 
L 222.956523 524.331824 
L 228.236886 525.727853 
" clip-path="url(#p6a396d9c8d)" style="fill: #4d59c1"/>
    <path d="M 253.808342 516.480886 
L 251.170454 526.50189 
L 232.920857 521.691808 
L 234.402662 516.066224 
L 235.558745 511.670804 
L 253.808342 516.480886 
" clip-path="url(#p6a396d9c8d)" style="fill: #4d59c1"/>
    <path d="M 214.088632 494.434678 
L 209.941413 510.551216 
L 202.303007 508.58157 
L 206.454813 492.465032 
L 214.088632 494.434678 
" clip-path="url(#p6a396d9c8d)" style="fill: #4d59c1"/>
    <path d="M 112.371674 448.483192 
L 110.669662 454.903546 
L 105.481052 453.528249 
L 107.183063 447.107896 
L 112.371674 448.483192 
" clip-path="url(#p6a396d9c8d)" style="fill: #4d59c1"/>
    <path d="M 146.815608 436.962494 
L 156.853345 439.547221 
L 151.16927 461.607252 
L 141.131533 459.022524 
L 146.815608 436.962494 
" clip-path="url(#p6a396d9c8d)" style="fill: #4d59c1"/>
    <path d="M 94.530376 441.523778 
L 92.91553 447.605491 
L 85.82764 445.718777 
L 87.442486 439.637065 
L 94.530376 441.523778 
" clip-path="url(#p6a396d9c8d)" style="fill: #4d59c1"/>
    <path d="M 80.625266 439.733819 
L 78.317688 448.434815 
L 69.206652 446.015952 
L 71.514231 437.314956 
L 80.625266 439.733819 
" clip-path="url(#p6a396d9c8d)" style="fill: #4d59c1"/>
    <path d="M 114.821469 440.010261 
L 113.156159 446.278571 
L 108.008836 444.910186 
L 109.674146 438.641876 
L 114.821469 440.010261 
" clip-path="url(#p6a396d9c8d)" style="fill: #4d59c1"/>
    <path d="M 116.628995 429.042445 
L 115.312345 433.997659 
L 110.84858 432.815871 
L 112.160643 427.860658 
L 116.628995 429.042445 
" clip-path="url(#p6a396d9c8d)" style="fill: #4d59c1"/>
    <path d="M 98.351873 427.522017 
L 96.897594 433.002469 
L 91.296096 431.516596 
L 92.750375 426.036144 
L 98.351873 427.522017 
" clip-path="url(#p6a396d9c8d)" style="fill: #4d59c1"/>
    <path d="M 120.253224 417.94332 
L 118.63379 424.045765 
L 112.867138 422.511515 
L 114.486572 416.41598 
L 120.253224 417.94332 
" clip-path="url(#p6a396d9c8d)" style="fill: #4d59c1"/>
    <path d="M 99.746513 416.865198 
L 98.058264 423.216441 
L 90.731817 421.267528 
L 92.420066 414.923196 
L 99.746513 416.865198 
" clip-path="url(#p6a396d9c8d)" style="fill: #4d59c1"/>
    <path d="M 103.301927 405.849005 
L 101.379709 413.091772 
L 94.31017 411.21888 
L 96.236975 403.969203 
L 103.301927 405.849005 
" clip-path="url(#p6a396d9c8d)" style="fill: #4d59c1"/>
    <path d="M 249.317051 457.591939 
L 241.958491 486.162166 
L 232.443744 483.708748 
L 239.802304 455.138521 
L 249.317051 457.591939 
" clip-path="url(#p6a396d9c8d)" style="fill: #4d59c1"/>
    <path d="M 223.9291 461.780028 
L 221.584821 470.888774 
L 219.231366 480.025165 
L 199.95414 475.05613 
L 202.307595 465.919739 
L 211.904919 468.39389 
L 214.253786 459.285143 
L 223.9291 461.780028 
" clip-path="url(#p6a396d9c8d)" style="fill: #4d59c1"/>
    <path d="M 185.943514 459.72745 
L 192.412074 461.393009 
L 191.990012 463.030925 
L 189.700784 471.92543 
L 183.232224 470.25987 
L 176.066345 468.414623 
L 169.579434 466.742152 
L 171.868662 457.847647 
L 172.419178 455.705226 
L 178.906088 457.377697 
L 178.355572 459.520118 
L 185.521452 461.365365 
L 185.943514 459.72745 
" clip-path="url(#p6a396d9c8d)" style="fill: #4d59c1"/>
    <path d="M 227.874463 439.118737 
L 225.204462 449.499115 
L 216.556777 447.273761 
L 219.231366 436.886472 
L 227.874463 439.118737 
" clip-path="url(#p6a396d9c8d)" style="fill: #4d59c1"/>
    <path d="M 233.521837 408.012159 
L 228.521319 427.432173 
L 219.538737 425.116976 
L 224.539255 405.696962 
L 233.521837 408.012159 
" clip-path="url(#p6a396d9c8d)" style="fill: #4d59c1"/>
    <path d="M 242.522769 387.085539 
L 239.137098 400.223421 
L 228.952556 397.604138 
L 232.338228 384.466256 
L 242.522769 387.085539 
" clip-path="url(#p6a396d9c8d)" style="fill: #4d59c1"/>
    <path d="M 161.04644 379.511043 
L 163.248503 370.96209 
L 170.67129 372.876447 
L 179.7548 375.212377 
L 173.988148 397.597226 
L 164.904638 395.254385 
L 168.469227 381.4254 
L 161.04644 379.511043 
" clip-path="url(#p6a396d9c8d)" style="fill: #4d59c1"/>
    <path d="M 228.686474 363.726234 
L 230.9023 355.121993 
L 240.467511 357.589233 
L 249.372103 359.883697 
L 244.279832 379.656174 
L 235.37524 377.36171 
L 238.251685 366.186563 
L 228.686474 363.726234 
" clip-path="url(#p6a396d9c8d)" style="fill: #4d59c1"/>
    <path d="M 183.961658 342.191442 
L 177.988562 363.422148 
L 167.354433 360.429669 
L 173.322941 339.198963 
L 183.961658 342.191442 
" clip-path="url(#p6a396d9c8d)" style="fill: #4d59c1"/>
    <path d="M 231.342712 339.461583 
L 229.966423 344.914391 
L 213.648219 340.802324 
L 215.019921 335.356427 
L 231.342712 339.461583 
" clip-path="url(#p6a396d9c8d)" style="fill: #4d59c1"/>
    <path d="M 122.579153 406.443354 
L 121.120286 411.930717 
L 116.179407 410.624531 
L 117.638274 405.130257 
L 122.579153 406.443354 
" clip-path="url(#p6a396d9c8d)" style="fill: #4d59c1"/>
    <path d="M 126.015289 396.408528 
L 124.271989 402.974013 
L 118.38147 401.412119 
L 120.12477 394.846634 
L 126.015289 396.408528 
" clip-path="url(#p6a396d9c8d)" style="fill: #4d59c1"/>
    <path d="M 103.645999 396.940678 
L 102.705535 400.48604 
L 97.948161 399.22132 
L 98.888626 395.675958 
L 103.645999 396.940678 
" clip-path="url(#p6a396d9c8d)" style="fill: #4d59c1"/>
    <path d="M 127.708125 385.703332 
L 125.767557 393.02212 
L 120.835853 391.715934 
L 122.781009 384.397146 
L 127.708125 385.703332 
" clip-path="url(#p6a396d9c8d)" style="fill: #4d59c1"/>
    <path d="M 108.513476 386.477368 
L 107.352805 390.865876 
L 101.375122 389.276338 
L 102.54038 384.89474 
L 108.513476 386.477368 
" clip-path="url(#p6a396d9c8d)" style="fill: #4d59c1"/>
    <path d="M 110.669662 375.682328 
L 108.843785 382.572632 
L 103.531308 381.16278 
L 105.361773 374.272476 
L 110.669662 375.682328 
" clip-path="url(#p6a396d9c8d)" style="fill: #4d59c1"/>
    <path d="M 131.424106 375.592484 
L 129.74962 381.902261 
L 125.418897 380.755029 
L 127.093382 374.438341 
L 131.424106 375.592484 
" clip-path="url(#p6a396d9c8d)" style="fill: #4d59c1"/>
    <path d="M 114.192963 365.488548 
L 112.697395 371.10031 
L 106.279299 369.386373 
L 107.774867 363.774611 
L 114.192963 365.488548 
" clip-path="url(#p6a396d9c8d)" style="fill: #4d59c1"/>
    <path d="M 134.135396 364.044142 
L 132.566426 369.959989 
L 127.350289 368.577782 
L 128.919259 362.661934 
L 134.135396 364.044142 
" clip-path="url(#p6a396d9c8d)" style="fill: #4d59c1"/>
    <path d="M 136.791634 354.755708 
L 135.222664 360.671556 
L 130.00194 359.282437 
L 131.57091 353.3735 
L 136.791634 354.755708 
" clip-path="url(#p6a396d9c8d)" style="fill: #4d59c1"/>
    <path d="M 115.995902 355.405345 
L 114.816881 359.842231 
L 109.655796 358.473846 
L 110.834817 354.03696 
L 115.995902 355.405345 
" clip-path="url(#p6a396d9c8d)" style="fill: #4d59c1"/>
    <path d="M 118.546625 344.451352 
L 116.973068 350.387932 
L 110.587085 348.687817 
L 112.160643 342.751236 
L 118.546625 344.451352 
" clip-path="url(#p6a396d9c8d)" style="fill: #4d59c1"/>
    <path d="M 138.934058 342.730503 
L 137.213696 349.219967 
L 131.671838 347.754827 
L 133.396787 341.258452 
L 138.934058 342.730503 
" clip-path="url(#p6a396d9c8d)" style="fill: #4d59c1"/>
    <path d="M 122.969102 334.623857 
L 121.120286 341.590182 
L 116.119768 340.263263 
L 117.968584 333.296938 
L 122.969102 334.623857 
" clip-path="url(#p6a396d9c8d)" style="fill: #4d59c1"/>
    <path d="M 141.163647 332.474524 
L 139.535038 338.604614 
L 135.750242 337.602514 
L 137.378851 331.472424 
L 141.163647 332.474524 
" clip-path="url(#p6a396d9c8d)" style="fill: #4d59c1"/>
    <path d="M 125.460185 323.738973 
L 123.276473 331.970019 
L 116.780387 330.242259 
L 118.9641 322.018125 
L 125.460185 323.738973 
" clip-path="url(#p6a396d9c8d)" style="fill: #4d59c1"/>
    <path d="M 145.888907 321.796972 
L 143.847411 329.482045 
L 137.163232 327.705909 
L 139.204728 320.027747 
L 145.888907 321.796972 
" clip-path="url(#p6a396d9c8d)" style="fill: #4d59c1"/>
    <path d="M 128.212764 313.503728 
L 126.263021 320.857071 
L 120.826678 319.412664 
L 122.781009 312.059321 
L 128.212764 313.503728 
" clip-path="url(#p6a396d9c8d)" style="fill: #4d59c1"/>
    <path d="M 147.801949 312.266652 
L 146.003598 319.032557 
L 140.22777 317.498307 
L 142.026121 310.732402 
L 147.801949 312.266652 
" clip-path="url(#p6a396d9c8d)" style="fill: #4d59c1"/>
    <path d="M 129.836785 303.109528 
L 128.254053 309.073753 
L 123.849927 307.905788 
L 125.432659 301.941563 
L 129.836785 303.109528 
" clip-path="url(#p6a396d9c8d)" style="fill: #4d59c1"/>
    <path d="M 210.964455 333.006674 
L 208.867907 341.341385 
L 205.110637 340.394573 
L 206.051102 336.669524 
L 201.867182 335.612135 
L 203.027853 331.009384 
L 210.964455 333.006674 
" clip-path="url(#p6a396d9c8d)" style="fill: #4d59c1"/>
    <path d="M 199.027438 329.267803 
L 196.660221 338.673725 
L 173.88722 332.937564 
L 176.259025 323.531642 
L 199.027438 329.267803 
" clip-path="url(#p6a396d9c8d)" style="fill: #4d59c1"/>
    <path d="M 239.990397 318.963447 
L 237.751633 327.747375 
L 212.666466 321.354666 
L 214.90523 312.570738 
L 239.990397 318.963447 
" clip-path="url(#p6a396d9c8d)" style="fill: #4d59c1"/>
    <path d="M 202.445224 308.140763 
L 200.568883 317.090556 
L 180.236501 312.826446 
L 182.112842 303.883564 
L 202.445224 308.140763 
" clip-path="url(#p6a396d9c8d)" style="fill: #4d59c1"/>
    <path d="M 233.760394 300.600821 
L 231.984981 309.364016 
L 216.575128 306.25405 
L 218.345953 297.483944 
L 233.760394 300.600821 
" clip-path="url(#p6a396d9c8d)" style="fill: #4d59c1"/>
    <path d="M 205.358369 302.694866 
L 189.287898 299.577988 
L 190.966971 290.92537 
L 207.032855 294.042247 
L 205.358369 302.694866 
" clip-path="url(#p6a396d9c8d)" style="fill: #4d59c1"/>
    <path d="M 237.861736 279.563625 
L 235.072456 294.159735 
L 225.888019 292.404332 
L 228.677299 277.815132 
L 237.861736 279.563625 
" clip-path="url(#p6a396d9c8d)" style="fill: #4d59c1"/>
    <path d="M 201.624038 287.649538 
L 191.962486 285.617693 
L 195.407797 269.224713 
L 205.064761 271.256558 
L 201.624038 287.649538 
" clip-path="url(#p6a396d9c8d)" style="fill: #4d59c1"/>
    <path d="M 242.091532 260.731049 
L 239.082046 274.898675 
L 230.049 272.977406 
L 233.058486 258.80978 
L 242.091532 260.731049 
" clip-path="url(#p6a396d9c8d)" style="fill: #4d59c1"/>
    <path d="M 196.871252 264.774005 
L 200.059655 250.481981 
L 208.684402 252.41016 
L 205.495998 266.695274 
L 196.871252 264.774005 
" clip-path="url(#p6a396d9c8d)" style="fill: #4d59c1"/>
    <path d="M 150.242569 298.721019 
L 148.990145 303.434347 
L 144.25571 302.176538 
L 145.508133 297.463211 
L 150.242569 298.721019 
" clip-path="url(#p6a396d9c8d)" style="fill: #4d59c1"/>
    <path d="M 131.892044 290.268821 
L 130.245085 296.468021 
L 126.111629 295.369166 
L 127.758588 289.169966 
L 131.892044 290.268821 
" clip-path="url(#p6a396d9c8d)" style="fill: #4d59c1"/>
    <path d="M 153.403447 286.433195 
L 151.316074 294.311778 
L 147.233083 293.226745 
L 149.325043 285.355074 
L 153.403447 286.433195 
" clip-path="url(#p6a396d9c8d)" style="fill: #4d59c1"/>
    <path d="M 134.584984 280.365305 
L 132.731581 287.345452 
L 128.391682 286.191309 
L 130.245085 279.218073 
L 134.584984 280.365305 
" clip-path="url(#p6a396d9c8d)" style="fill: #4d59c1"/>
    <path d="M 157.495614 276.19795 
L 155.463293 283.86229 
L 149.944373 282.39715 
L 151.976693 274.73281 
L 157.495614 276.19795 
" clip-path="url(#p6a396d9c8d)" style="fill: #4d59c1"/>
    <path d="M 138.319315 269.27309 
L 136.383335 276.557324 
L 129.469775 274.725899 
L 131.405755 267.434755 
L 138.319315 269.27309 
" clip-path="url(#p6a396d9c8d)" style="fill: #4d59c1"/>
    <path d="M 158.032366 266.432654 
L 156.623964 271.747242 
L 152.889632 270.758963 
L 154.302622 265.444376 
L 158.032366 266.432654 
" clip-path="url(#p6a396d9c8d)" style="fill: #4d59c1"/>
    <path d="M 140.411275 260.93838 
L 139.039573 266.107836 
L 133.516066 264.642696 
L 134.892355 259.47324 
L 140.411275 260.93838 
" clip-path="url(#p6a396d9c8d)" style="fill: #4d59c1"/>
    <path d="M 161.780461 257.579616 
L 160.440873 262.624673 
L 154.454014 261.035134 
L 155.793602 255.990077 
L 161.780461 257.579616 
" clip-path="url(#p6a396d9c8d)" style="fill: #4d59c1"/>
    <path d="M 144.205246 250.67549 
L 142.356431 257.648726 
L 134.864829 255.658347 
L 136.713645 248.692022 
L 144.205246 250.67549 
" clip-path="url(#p6a396d9c8d)" style="fill: #4d59c1"/>
    <path d="M 251.303495 246.660177 
L 249.417979 255.568504 
L 235.480756 252.617491 
L 237.366272 243.709164 
L 251.303495 246.660177 
" clip-path="url(#p6a396d9c8d)" style="fill: #4d59c1"/>
    <path d="M 231.957455 242.402978 
L 230.104052 251.00722 
L 214.854766 247.731388 
L 216.708169 239.120236 
L 231.957455 242.402978 
" clip-path="url(#p6a396d9c8d)" style="fill: #4d59c1"/>
    <path d="M 208.991773 245.969074 
L 195.059138 242.527377 
L 197.031819 234.531307 
L 210.969042 237.973004 
L 208.991773 245.969074 
" clip-path="url(#p6a396d9c8d)" style="fill: #4d59c1"/>
    <path d="M 174.965313 214.510033 
L 173.377993 220.48808 
L 167.14799 218.836342 
L 168.73531 212.858295 
L 174.965313 214.510033 
" clip-path="url(#p6a396d9c8d)" style="fill: #4d59c1"/>
    <path d="M 238.315912 208.200256 
L 237.058901 212.830651 
L 231.012403 211.192735 
L 232.264826 206.56234 
L 238.315912 208.200256 
" clip-path="url(#p6a396d9c8d)" style="fill: #4d59c1"/>
    <path d="M 226.516524 204.744738 
L 224.892503 210.743518 
L 219.336882 209.236912 
L 220.960903 203.245042 
L 226.516524 204.744738 
" clip-path="url(#p6a396d9c8d)" style="fill: #4d59c1"/>
    <path d="M 210.854352 200.473717 
L 209.40466 205.822859 
L 203.289348 204.171121 
L 204.734452 198.821979 
L 210.854352 200.473717 
" clip-path="url(#p6a396d9c8d)" style="fill: #4d59c1"/>
    <path d="M 197.573159 197.135686 
L 196.256509 202.014878 
L 191.12295 200.625759 
L 192.444188 195.746567 
L 197.573159 197.135686 
" clip-path="url(#p6a396d9c8d)" style="fill: #4d59c1"/>
    <path d="M 186.663773 194.281427 
L 185.067277 200.169631 
L 178.681294 198.441872 
L 180.27779 192.553668 
L 186.663773 194.281427 
" clip-path="url(#p6a396d9c8d)" style="fill: #4d59c1"/>
    <path d="M 176.561809 192.208116 
L 175.607581 195.746567 
L 169.60696 194.122474 
L 170.565775 190.584023 
L 176.561809 192.208116 
" clip-path="url(#p6a396d9c8d)" style="fill: #4d59c1"/>
    <path d="M 165.629484 246.28007 
L 163.75773 253.336239 
L 156.578087 251.428793 
L 158.449841 244.379535 
L 165.629484 246.28007 
" clip-path="url(#p6a396d9c8d)" style="fill: #4d59c1"/>
    <path d="M 146.242154 239.092592 
L 144.182308 246.867508 
L 138.46612 245.34708 
L 140.530554 237.572164 
L 146.242154 239.092592 
" clip-path="url(#p6a396d9c8d)" style="fill: #4d59c1"/>
    <path d="M 168.070103 236.307444 
L 166.413969 242.555021 
L 159.940821 240.834173 
L 161.601544 234.586596 
L 168.070103 236.307444 
" clip-path="url(#p6a396d9c8d)" style="fill: #4d59c1"/>
    <path d="M 148.618547 230.985945 
L 146.999114 237.074569 
L 140.571842 235.374454 
L 142.191276 229.278919 
L 148.618547 230.985945 
" clip-path="url(#p6a396d9c8d)" style="fill: #4d59c1"/>
    <path d="M 170.675878 223.376893 
L 169.065619 229.444784 
L 163.803606 228.048754 
L 165.418453 221.980864 
L 170.675878 223.376893 
" clip-path="url(#p6a396d9c8d)" style="fill: #4d59c1"/>
    <path d="M 151.61427 219.444513 
L 149.490197 227.454405 
L 144.044679 226.009999 
L 146.17334 218.000107 
L 151.61427 219.444513 
" clip-path="url(#p6a396d9c8d)" style="fill: #4d59c1"/>
    <path d="M 154.660458 209.195445 
L 152.967622 215.567422 
L 146.42566 213.832751 
L 148.113908 207.460775 
L 154.660458 209.195445 
" clip-path="url(#p6a396d9c8d)" style="fill: #4d59c1"/>
    <path d="M 159.11046 186.858974 
L 157.169892 194.025719 
L 151.417002 192.470736 
L 153.35757 185.297079 
L 159.11046 186.858974 
" clip-path="url(#p6a396d9c8d)" style="fill: #4d59c1"/>
    <path d="M 143.553803 182.988793 
L 141.929781 188.987573 
L 138.2138 187.978562 
L 139.837821 181.979781 
L 143.553803 182.988793 
" clip-path="url(#p6a396d9c8d)" style="fill: #4d59c1"/>
    <path d="M 131.414931 180.334955 
L 130.006528 185.545877 
L 124.294927 183.997804 
L 125.70333 178.786882 
L 131.414931 180.334955 
" clip-path="url(#p6a396d9c8d)" style="fill: #4d59c1"/>
    <path d="M 414.324969 505.18134 
L 412.01739 513.647361 
L 406.558109 512.161488 
L 408.865687 503.688556 
L 414.324969 505.18134 
" clip-path="url(#p6a396d9c8d)" style="fill: #4d59c1"/>
    <path d="M 461.834477 483.287175 
L 460.02695 489.672973 
L 453.994215 487.965947 
L 455.801742 481.580149 
L 461.834477 483.287175 
" clip-path="url(#p6a396d9c8d)" style="fill: #4d59c1"/>
    <path d="M 434.987659 476.770067 
L 433.161782 483.224976 
L 425.702294 481.110198 
L 427.528171 474.65529 
L 434.987659 476.770067 
" clip-path="url(#p6a396d9c8d)" style="fill: #4d59c1"/>
    <path d="M 409.549245 471.883964 
L 406.764552 481.697636 
L 399.997796 479.776368 
L 402.777901 469.962695 
L 409.549245 471.883964 
" clip-path="url(#p6a396d9c8d)" style="fill: #4d59c1"/>
    <path d="M 422.821261 472.796221 
L 420.958683 479.347884 
L 415.114041 477.696146 
L 416.972032 471.137572 
L 422.821261 472.796221 
" clip-path="url(#p6a396d9c8d)" style="fill: #4d59c1"/>
    <path d="M 461.650972 464.744862 
L 459.673703 471.72501 
L 449.131326 468.739442 
L 451.108595 461.752383 
L 461.650972 464.744862 
" clip-path="url(#p6a396d9c8d)" style="fill: #4d59c1"/>
    <path d="M 444.470293 461.068191 
L 442.548075 467.854829 
L 430.886317 464.551353 
L 432.808534 457.764715 
L 444.470293 461.068191 
" clip-path="url(#p6a396d9c8d)" style="fill: #4d59c1"/>
    <path d="M 417.628063 452.774946 
L 417.132599 454.66857 
L 411.930225 453.307096 
L 412.421102 451.413472 
L 406.636099 449.906866 
L 406.181923 451.662269 
L 400.97955 450.307706 
L 401.438313 448.552303 
L 403.01187 442.512056 
L 419.20162 446.7347 
L 417.628063 452.774946 
" clip-path="url(#p6a396d9c8d)" style="fill: #4d59c1"/>
    <path d="M 462.430869 401.025101 
L 460.949064 406.249845 
L 445.043747 401.743849 
L 446.525552 396.512194 
L 462.430869 401.025101 
" clip-path="url(#p6a396d9c8d)" style="fill: #4d59c1"/>
    <path d="M 440.827714 394.411238 
L 439.047713 400.68646 
L 426.840026 397.22403 
L 428.620027 390.95572 
L 440.827714 394.411238 
" clip-path="url(#p6a396d9c8d)" style="fill: #4d59c1"/>
    <path d="M 551.57313 423.74168 
L 549.045345 432.663828 
L 544.953178 431.502774 
L 547.480963 422.580625 
L 551.57313 423.74168 
" clip-path="url(#p6a396d9c8d)" style="fill: #4d59c1"/>
    <path d="M 542.975909 421.433393 
L 540.879362 428.842025 
L 536.346782 427.556572 
L 538.443329 420.14794 
L 542.975909 421.433393 
" clip-path="url(#p6a396d9c8d)" style="fill: #4d59c1"/>
    <path d="M 496.22336 410.168403 
L 494.672741 415.635033 
L 482.694436 412.241714 
L 484.245055 406.768173 
L 496.22336 410.168403 
" clip-path="url(#p6a396d9c8d)" style="fill: #4d59c1"/>
    <path d="M 480.763043 404.998947 
L 479.028918 411.115215 
L 466.867108 407.666607 
L 468.601233 401.557251 
L 480.763043 404.998947 
" clip-path="url(#p6a396d9c8d)" style="fill: #4d59c1"/>
    <path d="M 503.306662 385.309403 
L 501.572538 391.874888 
L 488.892325 388.536857 
L 490.621862 381.971372 
L 503.306662 385.309403 
" clip-path="url(#p6a396d9c8d)" style="fill: #4d59c1"/>
    <path d="M 485.391963 380.167591 
L 483.497271 387.35507 
L 471.867626 384.29348 
L 473.762318 377.099091 
L 485.391963 380.167591 
" clip-path="url(#p6a396d9c8d)" style="fill: #4d59c1"/>
    <path d="M 512.133265 341.030388 
L 510.371614 347.291788 
L 501.971662 344.928213 
L 503.733312 338.666814 
L 512.133265 341.030388 
" clip-path="url(#p6a396d9c8d)" style="fill: #4d59c1"/>
    <path d="M 496.393102 336.393082 
L 494.443359 343.31103 
L 486.025056 340.940545 
L 487.974799 334.022597 
L 496.393102 336.393082 
" clip-path="url(#p6a396d9c8d)" style="fill: #4d59c1"/>
    <path d="M 479.749176 331.092317 
L 477.524175 338.998543 
L 468.495717 336.455282 
L 470.720718 328.549055 
L 479.749176 331.092317 
" clip-path="url(#p6a396d9c8d)" style="fill: #4d59c1"/>
    <path d="M 517.248474 327.457111 
L 515.679504 333.027407 
L 504.820581 329.972729 
L 506.389551 324.402433 
L 517.248474 327.457111 
" clip-path="url(#p6a396d9c8d)" style="fill: #4d59c1"/>
    <path d="M 499.439289 322.094147 
L 497.760216 328.051461 
L 488.286758 325.3838 
L 489.965831 319.426486 
L 499.439289 322.094147 
" clip-path="url(#p6a396d9c8d)" style="fill: #4d59c1"/>
    <path d="M 481.134641 316.724271 
L 479.345465 323.075514 
L 471.257471 320.794872 
L 473.04206 314.443629 
L 481.134641 316.724271 
" clip-path="url(#p6a396d9c8d)" style="fill: #4d59c1"/>
    <path d="M 528.515696 284.318418 
L 526.735695 290.904636 
L 515.739143 287.925979 
L 517.523731 281.346672 
L 528.515696 284.318418 
" clip-path="url(#p6a396d9c8d)" style="fill: #4d59c1"/>
    <path d="M 512.312182 280.468971 
L 510.568883 286.903146 
L 500.310939 284.13182 
L 502.049651 277.690734 
L 512.312182 280.468971 
" clip-path="url(#p6a396d9c8d)" style="fill: #4d59c1"/>
    <path d="M 494.30573 276.142661 
L 492.663358 282.210552 
L 482.332013 279.418493 
L 483.974385 273.350602 
L 494.30573 276.142661 
" clip-path="url(#p6a396d9c8d)" style="fill: #4d59c1"/>
    <path d="M 479.886805 272.756253 
L 478.414176 278.215972 
L 472.243812 276.543501 
L 473.721029 271.090693 
L 479.886805 272.756253 
" clip-path="url(#p6a396d9c8d)" style="fill: #4d59c1"/>
    <path d="M 471.702471 270.441056 
L 470.069275 276.474391 
L 462.178549 274.338881 
L 463.811746 268.305545 
L 471.702471 270.441056 
" clip-path="url(#p6a396d9c8d)" style="fill: #4d59c1"/>
    <path d="M 470.25278 186.810596 
L 468.055305 195.055464 
L 461.164683 193.224039 
L 463.362158 184.979172 
L 470.25278 186.810596 
" clip-path="url(#p6a396d9c8d)" style="fill: #4d59c1"/>
    <path d="M 418.793321 256.314896 
L 417.054609 262.74216 
L 408.70512 260.489162 
L 410.44842 254.054987 
L 418.793321 256.314896 
" clip-path="url(#p6a396d9c8d)" style="fill: #4d59c1"/>
    <path d="M 405.713985 252.776445 
L 404.190891 258.402029 
L 396.061609 256.197408 
L 397.584702 250.578735 
L 405.713985 252.776445 
" clip-path="url(#p6a396d9c8d)" style="fill: #4d59c1"/>
    <path d="M 459.352568 247.931808 
L 457.554217 254.573315 
L 451.929781 253.052887 
L 453.728133 246.404469 
L 459.352568 247.931808 
" clip-path="url(#p6a396d9c8d)" style="fill: #4d59c1"/>
    <path d="M 445.126324 245.768653 
L 443.823437 250.578735 
L 435.914361 248.436314 
L 437.217248 243.626232 
L 445.126324 245.768653 
" clip-path="url(#p6a396d9c8d)" style="fill: #4d59c1"/>
    <path d="M 431.065235 239.866628 
L 428.872347 247.973274 
L 422.853375 246.34227 
L 425.05085 238.235623 
L 431.065235 239.866628 
" clip-path="url(#p6a396d9c8d)" style="fill: #4d59c1"/>
    <path d="M 421.059611 237.986826 
L 419.486054 243.799008 
L 412.700947 241.960672 
L 414.269917 236.155401 
L 421.059611 237.986826 
" clip-path="url(#p6a396d9c8d)" style="fill: #4d59c1"/>
    <path d="M 407.787594 234.033713 
L 406.278264 239.631653 
L 398.681146 237.572164 
L 400.190477 231.981135 
L 407.787594 234.033713 
" clip-path="url(#p6a396d9c8d)" style="fill: #4d59c1"/>
    <path d="M 466.899222 207.903081 
L 464.57788 216.610988 
L 458.779114 215.062916 
L 461.100456 206.355009 
L 466.899222 207.903081 
" clip-path="url(#p6a396d9c8d)" style="fill: #4d59c1"/>
    <path d="M 455.742103 205.366731 
L 453.627205 213.307512 
L 445.59885 211.172002 
L 447.718336 203.224309 
L 455.742103 205.366731 
" clip-path="url(#p6a396d9c8d)" style="fill: #4d59c1"/>
    <path d="M 440.708435 202.69216 
L 438.850445 209.658485 
L 433.693947 208.283189 
L 435.54735 201.316863 
L 440.708435 202.69216 
" clip-path="url(#p6a396d9c8d)" style="fill: #4d59c1"/>
    <path d="M 362.539788 241.069148 
L 360.911179 247.102484 
L 354.933496 245.485301 
L 356.562105 239.451966 
L 362.539788 241.069148 
" clip-path="url(#p6a396d9c8d)" style="fill: #4d59c1"/>
    <path d="M 350.666999 238.788506 
L 349.276946 243.923407 
L 342.358799 242.050516 
L 343.744263 236.915615 
L 350.666999 238.788506 
" clip-path="url(#p6a396d9c8d)" style="fill: #4d59c1"/>
    <path d="M 338.202405 235.581785 
L 337.110549 239.624742 
L 328.884926 237.399388 
L 329.98137 233.356431 
L 338.202405 235.581785 
" clip-path="url(#p6a396d9c8d)" style="fill: #4d59c1"/>
    <path d="M 395.350526 230.688771 
L 393.588876 237.192056 
L 384.872377 234.835393 
L 386.634027 228.332107 
L 395.350526 230.688771 
" clip-path="url(#p6a396d9c8d)" style="fill: #4d59c1"/>
    <path d="M 382.482221 227.101942 
L 380.550828 234.241044 
L 370.971854 231.649405 
L 372.903247 224.503392 
L 382.482221 227.101942 
" clip-path="url(#p6a396d9c8d)" style="fill: #4d59c1"/>
    <path d="M 368.499121 223.052075 
L 366.645718 229.894001 
L 358.534786 227.703203 
L 360.388189 220.854365 
L 368.499121 223.052075 
" clip-path="url(#p6a396d9c8d)" style="fill: #4d59c1"/>
    <path d="M 351.258803 219.382314 
L 350.139421 223.522025 
L 345.450862 222.257305 
L 346.574832 218.117594 
L 351.258803 219.382314 
" clip-path="url(#p6a396d9c8d)" style="fill: #4d59c1"/>
    <path d="M 342.349623 216.182504 
L 340.794416 221.925576 
L 335.679208 220.536457 
L 337.229827 214.793385 
L 342.349623 216.182504 
" clip-path="url(#p6a396d9c8d)" style="fill: #4d59c1"/>
    <path d="M 391.776761 189.153438 
L 389.836193 196.451493 
L 384.587943 195.048553 
L 386.533099 187.757408 
L 391.776761 189.153438 
" clip-path="url(#p6a396d9c8d)" style="fill: #4d59c1"/>
    <path d="M 378.211136 185.283257 
L 376.623816 191.23366 
L 371.563659 189.886008 
L 373.146391 183.935605 
L 378.211136 185.283257 
" clip-path="url(#p6a396d9c8d)" style="fill: #4d59c1"/>
    <path d="M 429.037502 198.994755 
L 427.032707 206.527785 
L 421.376158 205.021179 
L 423.380952 197.488149 
L 429.037502 198.994755 
" clip-path="url(#p6a396d9c8d)" style="fill: #4d59c1"/>
    <path d="M 415.531516 195.290439 
L 413.645999 202.36043 
L 409.503368 201.254664 
L 411.388885 194.191584 
L 415.531516 195.290439 
" clip-path="url(#p6a396d9c8d)" style="fill: #4d59c1"/>
    <path d="M 403.837644 190.991774 
L 401.828261 198.531715 
L 396.864444 197.211707 
L 398.873827 189.671766 
L 403.837644 190.991774 
" clip-path="url(#p6a396d9c8d)" style="fill: #4d59c1"/>
    <path d="M 457.815712 184.212046 
L 455.714577 192.104451 
L 449.438697 190.43198 
L 451.539832 182.546487 
L 457.815712 184.212046 
" clip-path="url(#p6a396d9c8d)" style="fill: #4d59c1"/>
    <path d="M 444.584984 180.072335 
L 441.979209 189.844542 
L 436.249258 188.317202 
L 438.850445 178.544996 
L 444.584984 180.072335 
" clip-path="url(#p6a396d9c8d)" style="fill: #4d59c1"/>
    <path d="M 431.239565 178.151067 
L 428.771419 187.411857 
L 421.784457 185.545877 
L 424.252602 176.285087 
L 431.239565 178.151067 
" clip-path="url(#p6a396d9c8d)" style="fill: #4d59c1"/>
    <path d="M 417.36198 172.04171 
L 415.210381 180.10689 
L 410.278678 178.793793 
L 412.430277 170.721702 
L 417.36198 172.04171 
" clip-path="url(#p6a396d9c8d)" style="fill: #4d59c1"/>
    <path d="M 404.209242 170.037509 
L 402.176921 177.674205 
L 398.226971 176.623728 
L 400.263879 168.987032 
L 404.209242 170.037509 
" clip-path="url(#p6a396d9c8d)" style="fill: #4d59c1"/>
    <path d="M 301.914242 204.793115 
L 300.606767 209.630841 
L 293.518877 207.716483 
L 294.826352 202.871846 
L 301.914242 204.793115 
" clip-path="url(#p6a396d9c8d)" style="fill: #4d59c1"/>
    <path d="M 289.614803 202.125454 
L 288.311916 206.928625 
L 282.462686 205.345998 
L 283.765574 200.542827 
L 289.614803 202.125454 
" clip-path="url(#p6a396d9c8d)" style="fill: #4d59c1"/>
    <path d="M 275.686755 198.946377 
L 274.425156 203.611327 
L 268.493349 202.007967 
L 269.754948 197.343017 
L 275.686755 198.946377 
" clip-path="url(#p6a396d9c8d)" style="fill: #4d59c1"/>
    <path d="M 261.795408 192.643512 
L 260.290665 198.206896 
L 256.326952 197.128775 
L 257.831695 191.56539 
L 261.795408 192.643512 
" clip-path="url(#p6a396d9c8d)" style="fill: #4d59c1"/>
    <path d="M 325.815801 171.868934 
L 324.13214 178.199444 
L 319.838117 177.052212 
L 321.521778 170.721702 
L 325.815801 171.868934 
" clip-path="url(#p6a396d9c8d)" style="fill: #4d59c1"/>
    <path d="M 313.594351 169.325673 
L 311.786825 176.112311 
L 305.286151 174.377641 
L 307.093678 167.597913 
L 313.594351 169.325673 
" clip-path="url(#p6a396d9c8d)" style="fill: #4d59c1"/>
    <path d="M 300.09754 163.935064 
L 298.056045 171.592493 
L 292.885784 170.217196 
L 294.92728 162.552856 
L 300.09754 163.935064 
" clip-path="url(#p6a396d9c8d)" style="fill: #4d59c1"/>
    <path d="M 289.555164 163.230138 
L 287.977019 169.159808 
L 281.52681 167.445871 
L 283.109542 161.516201 
L 289.555164 163.230138 
" clip-path="url(#p6a396d9c8d)" style="fill: #4d59c1"/>
    <path d="M 273.645259 157.922462 
L 271.810207 164.812765 
L 267.02072 163.541135 
L 268.855772 156.64392 
L 273.645259 157.922462 
" clip-path="url(#p6a396d9c8d)" style="fill: #4d59c1"/>
    <path d="M 263.148759 155.738574 
L 261.382521 162.38008 
L 256.308601 161.032428 
L 258.079427 154.384011 
L 263.148759 155.738574 
" clip-path="url(#p6a396d9c8d)" style="fill: #4d59c1"/>
    <path d="M 365.026284 181.931404 
L 363.241696 188.628199 
L 356.4153 186.810596 
L 358.199889 180.10689 
L 365.026284 181.931404 
" clip-path="url(#p6a396d9c8d)" style="fill: #4d59c1"/>
    <path d="M 353.557206 178.966569 
L 351.76803 185.670275 
L 345.634367 184.039271 
L 347.423543 177.328654 
L 353.557206 178.966569 
" clip-path="url(#p6a396d9c8d)" style="fill: #4d59c1"/>
    <path d="M 344.849882 176.789593 
L 342.904727 184.108381 
L 336.436167 182.387533 
L 338.381322 175.068744 
L 344.849882 176.789593 
" clip-path="url(#p6a396d9c8d)" style="fill: #4d59c1"/>
    <path d="M 393.391608 167.591002 
L 391.400576 175.068744 
L 384.886139 173.334074 
L 386.877171 165.856332 
L 393.391608 167.591002 
" clip-path="url(#p6a396d9c8d)" style="fill: #4d59c1"/>
    <path d="M 378.367116 163.734644 
L 376.275156 171.592493 
L 370.531442 170.065154 
L 372.627989 162.207304 
L 378.367116 163.734644 
" clip-path="url(#p6a396d9c8d)" style="fill: #4d59c1"/>
    <path d="M 365.099686 160.486456 
L 363.067366 168.116241 
L 358.424683 166.879166 
L 360.457004 159.256292 
L 365.099686 160.486456 
" clip-path="url(#p6a396d9c8d)" style="fill: #4d59c1"/>
    <path d="M 352.46535 156.795962 
L 350.377978 164.63999 
L 343.941531 162.926052 
L 346.033491 155.082025 
L 352.46535 156.795962 
" clip-path="url(#p6a396d9c8d)" style="fill: #4d59c1"/>
    <path d="M 339.968643 153.616885 
L 337.86292 161.516201 
L 332.279773 160.023417 
L 334.385496 152.124101 
L 339.968643 153.616885 
" clip-path="url(#p6a396d9c8d)" style="fill: #4d59c1"/>
    <path d="M 250.40432 188.800975 
L 248.491278 195.870966 
L 241.908027 194.087918 
L 243.821069 187.017927 
L 250.40432 188.800975 
" clip-path="url(#p6a396d9c8d)" style="fill: #4d59c1"/>
    <path d="M 236.985499 187.004105 
L 235.586271 192.180472 
L 231.108743 190.971041 
L 232.512558 185.794674 
L 236.985499 187.004105 
" clip-path="url(#p6a396d9c8d)" style="fill: #4d59c1"/>
    <path d="M 223.162966 183.396544 
L 221.45178 189.727054 
L 216.66688 188.427779 
L 218.378067 182.10418 
L 223.162966 183.396544 
" clip-path="url(#p6a396d9c8d)" style="fill: #4d59c1"/>
    <path d="M 210.849764 179.339765 
L 209.03765 186.03656 
L 204.275689 184.751107 
L 206.087803 178.047401 
L 210.849764 179.339765 
" clip-path="url(#p6a396d9c8d)" style="fill: #4d59c1"/>
    <path d="M 198.476923 176.195243 
L 196.747386 182.594864 
L 191.324806 181.129724 
L 193.05893 174.730104 
L 198.476923 176.195243 
" clip-path="url(#p6a396d9c8d)" style="fill: #4d59c1"/>
    <path d="M 184.415833 171.834379 
L 182.732173 178.047401 
L 176.626036 176.395664 
L 178.309696 170.182641 
L 184.415833 171.834379 
" clip-path="url(#p6a396d9c8d)" style="fill: #4d59c1"/>
    <path d="M 236.875395 149.103978 
L 234.957766 156.298368 
L 228.695649 154.632808 
L 230.613279 147.431507 
L 236.875395 149.103978 
" clip-path="url(#p6a396d9c8d)" style="fill: #4d59c1"/>
    <path d="M 223.314358 144.300807 
L 221.226986 152.124101 
L 216.015437 150.741894 
L 218.098221 142.9186 
L 223.314358 144.300807 
" clip-path="url(#p6a396d9c8d)" style="fill: #4d59c1"/>
    <path d="M 210.941517 141.204663 
L 209.234918 147.611194 
L 204.573885 146.367208 
L 206.280483 139.960676 
L 210.941517 141.204663 
" clip-path="url(#p6a396d9c8d)" style="fill: #4d59c1"/>
    <path d="M 201.275378 139.863922 
L 199.674294 145.869613 
L 195.467437 144.750025 
L 197.06852 138.744334 
L 201.275378 139.863922 
" clip-path="url(#p6a396d9c8d)" style="fill: #4d59c1"/>
    <path d="M 249.509732 150.928492 
L 247.472823 158.558277 
L 242.834728 157.321201 
L 244.867049 149.691416 
L 249.509732 150.928492 
" clip-path="url(#p6a396d9c8d)" style="fill: #4d59c1"/>
    <path d="M 326.063533 150.092257 
L 324.13214 157.341934 
L 318.723323 155.897528 
L 320.654716 148.64785 
L 326.063533 150.092257 
" clip-path="url(#p6a396d9c8d)" style="fill: #4d59c1"/>
    <path d="M 314.456826 146.940824 
L 312.658475 153.692907 
L 306.685379 152.103368 
L 308.488318 145.351285 
L 314.456826 146.940824 
" clip-path="url(#p6a396d9c8d)" style="fill: #4d59c1"/>
    <path d="M 302.166562 143.741013 
L 299.794757 152.64934 
L 290.816763 150.258121 
L 293.188568 141.349795 
L 302.166562 143.741013 
" clip-path="url(#p6a396d9c8d)" style="fill: #4d59c1"/>
    <path d="M 288.316504 139.110619 
L 286.238307 146.913179 
L 279.641293 145.157776 
L 281.71949 137.355215 
L 288.316504 139.110619 
" clip-path="url(#p6a396d9c8d)" style="fill: #4d59c1"/>
    <path d="M 276.54923 136.567357 
L 274.764641 143.264152 
L 267.938246 141.446549 
L 269.722835 134.749754 
L 276.54923 136.567357 
" clip-path="url(#p6a396d9c8d)" style="fill: #4d59c1"/>
    <path d="M 261.754119 134.127761 
L 259.643809 142.047809 
L 252.840352 140.237118 
L 254.950662 132.310158 
L 261.754119 134.127761 
" clip-path="url(#p6a396d9c8d)" style="fill: #4d59c1"/>
    <path d="M 250.069423 129.131081 
L 247.647153 138.226006 
L 242.61911 136.885265 
L 245.041379 127.797251 
L 250.069423 129.131081 
" clip-path="url(#p6a396d9c8d)" style="fill: #4d59c1"/>
    <path d="M 165.491855 168.924832 
L 164.051339 174.23942 
L 159.170099 172.919412 
L 160.610615 167.604824 
L 165.491855 168.924832 
" clip-path="url(#p6a396d9c8d)" style="fill: #4d59c1"/>
    <path d="M 157.913088 164.833499 
L 156.431283 170.30704 
L 152.123498 169.139075 
L 153.605302 163.672444 
L 157.913088 164.833499 
" clip-path="url(#p6a396d9c8d)" style="fill: #4d59c1"/>
    <path d="M 146.613753 161.066983 
L 144.879628 167.480426 
L 139.947924 166.146596 
L 141.682049 159.733153 
L 146.613753 161.066983 
" clip-path="url(#p6a396d9c8d)" style="fill: #4d59c1"/>
    <path d="M 134.896943 158.420056 
L 133.080241 165.144495 
L 126.588743 163.389092 
L 128.410032 156.664653 
L 134.896943 158.420056 
" clip-path="url(#p6a396d9c8d)" style="fill: #4d59c1"/>
    <path d="M 159.293965 128.647309 
L 157.435974 135.613634 
L 149.669115 133.547234 
L 151.527106 126.580908 
L 159.293965 128.647309 
" clip-path="url(#p6a396d9c8d)" style="fill: #4d59c1"/>
    <path d="M 147.682671 126.069492 
L 145.787979 133.180949 
L 136.594366 130.734442 
L 138.489058 123.622985 
L 147.682671 126.069492 
" clip-path="url(#p6a396d9c8d)" style="fill: #4d59c1"/>
    <path d="M 158.725099 104.790409 
L 156.394582 113.539782 
L 148.150609 111.348983 
L 150.481126 102.592699 
L 158.725099 104.790409 
" clip-path="url(#p6a396d9c8d)" style="fill: #4d59c1"/>
    <path d="M 147.035815 100.512477 
L 144.397927 110.415993 
L 136.54849 108.321949 
L 139.186378 98.418432 
L 147.035815 100.512477 
" clip-path="url(#p6a396d9c8d)" style="fill: #4d59c1"/>
    <path d="M 192.16893 137.85281 
L 190.636661 143.609704 
L 183.539596 141.722991 
L 185.071865 135.966097 
L 192.16893 137.85281 
" clip-path="url(#p6a396d9c8d)" style="fill: #4d59c1"/>
    <path d="M 174.024849 132.061361 
L 172.382477 138.226006 
L 162.225461 135.516879 
L 163.867833 129.359145 
L 174.024849 132.061361 
" clip-path="url(#p6a396d9c8d)" style="fill: #4d59c1"/>
    <path d="M 237.054313 126.843528 
L 235.132096 134.05174 
L 226.956937 131.874763 
L 228.874567 124.666551 
L 237.054313 126.843528 
" clip-path="url(#p6a396d9c8d)" style="fill: #4d59c1"/>
    <path d="M 222.250027 121.957425 
L 220.185593 129.704697 
L 215.341055 128.412333 
L 217.405489 120.665061 
L 222.250027 121.957425 
" clip-path="url(#p6a396d9c8d)" style="fill: #4d59c1"/>
    <path d="M 211.331465 118.619394 
L 208.886258 127.797251 
L 201.573574 125.848339 
L 204.018781 116.670481 
L 211.331465 118.619394 
" clip-path="url(#p6a396d9c8d)" style="fill: #4d59c1"/>
    <path d="M 198.660428 114.161775 
L 196.3712 122.752194 
L 188.173103 120.568306 
L 190.462331 111.977887 
L 198.660428 114.161775 
" clip-path="url(#p6a396d9c8d)" style="fill: #4d59c1"/>
    <path d="M 185.714133 110.13264 
L 182.81475 121.017524 
L 175.391963 119.040967 
L 178.295933 108.156084 
L 185.714133 110.13264 
" clip-path="url(#p6a396d9c8d)" style="fill: #4d59c1"/>
    <path d="M 173.176137 106.697855 
L 170.474022 116.843257 
L 162.899843 114.825234 
L 165.606546 104.679832 
L 173.176137 106.697855 
" clip-path="url(#p6a396d9c8d)" style="fill: #4d59c1"/>
   </g>
   <g id="LineCollection_1">
    <path d="M 722.494435 782.254622 
L 738.386058 766.992157 
" clip-path="url(#p6a396d9c8d)" style="fill: none; stroke: #4d59c1; stroke-width: 0.2"/>
    <path d="M 745.617392 769.835458 
L 738.386058 766.992157 
" clip-path="url(#p6a396d9c8d)" style="fill: none; stroke: #4d59c1; stroke-width: 0.2"/>
    <path d="M 738.386058 766.992157 
L 699.125111 744.337777 
L 692.858406 742.872638 
L 686.449486 744.828461 
L 645.844362 759.846145 
L 637.600389 761.076309 
L 628.503117 759.611169 
L 618.167184 757.268328 
L 578.172215 742.008758 
L 574.102986 739.907803 
L 570.052108 737.454385 
L 542.737352 712.602295 
L 539.402144 710.985113 
L 536.424772 709.554528 
L 356.075816 657.383109 
L 248.257308 628.660839 
" clip-path="url(#p6a396d9c8d)" style="fill: none; stroke: #4d59c1; stroke-width: 0.2"/>
    <path d="M 773.320869 699.049752 
L 781.454739 696.969529 
L 783.219344 696.693596 
" clip-path="url(#p6a396d9c8d)" style="fill: none; stroke: #4d59c1; stroke-width: 0.2"/>
    <path d="M 738.386058 766.992157 
L 743.551731 761.760502 
L 755.979624 737.0881 
L 770.490301 704.468005 
L 773.320869 699.049752 
L 772.224425 691.558187 
L 768.88463 684.605684 
L 763.36571 679.125232 
L 707.098414 642.372337 
L 695.932119 632.551753 
L 689.165363 624.244687 
L 688.24325 613.290693 
L 687.133043 602.219212 
L 682.522473 585.971363 
L 665.910661 548.071236 
L 656.795038 533.661724 
L 643.513846 506.107419 
L 637.104925 494.531432 
L 626.103786 469.319969 
L 622.718114 458.179377 
L 624.736442 455.281971 
" clip-path="url(#p6a396d9c8d)" style="fill: none; stroke: #4d59c1; stroke-width: 0.2"/>
    <path d="M 665.910661 548.071236 
L 669.279991 548.843959 
" clip-path="url(#p6a396d9c8d)" style="fill: none; stroke: #4d59c1; stroke-width: 0.2"/>
    <path d="M 482.258611 481.158575 
L 460.490301 564.353639 
" clip-path="url(#p6a396d9c8d)" style="fill: none; stroke: #4d59c1; stroke-width: 0.2"/>
    <path d="M 356.075816 657.383109 
L 370.788349 603.07618 
L 387.496502 544.463675 
" clip-path="url(#p6a396d9c8d)" style="fill: none; stroke: #4d59c1; stroke-width: 0.2"/>
    <path d="M 370.788349 603.07618 
L 212.226053 561.976243 
L 208.900021 560.130996 
L 207.037442 557.656845 
" clip-path="url(#p6a396d9c8d)" style="fill: none; stroke: #4d59c1; stroke-width: 0.2"/>
    <path d="M 689.165363 624.244687 
L 460.490301 564.353639 
L 392.469494 545.818238 
L 387.496502 544.463675 
L 382.661138 543.143667 
L 314.654094 524.718842 
L 223.190492 498.947585 
" clip-path="url(#p6a396d9c8d)" style="fill: none; stroke: #4d59c1; stroke-width: 0.2"/>
    <path d="M 391.253771 511.760648 
L 400.603364 514.220977 
" clip-path="url(#p6a396d9c8d)" style="fill: none; stroke: #4d59c1; stroke-width: 0.2"/>
    <path d="M 392.469494 545.818238 
L 400.603364 514.220977 
L 429.188893 521.360078 
L 442.130601 471.503857 
" clip-path="url(#p6a396d9c8d)" style="fill: none; stroke: #4d59c1; stroke-width: 0.2"/>
    <path d="M 374.568557 453.929089 
L 361.365355 504.041019 
L 391.253771 511.760648 
L 382.661138 543.143667 
" clip-path="url(#p6a396d9c8d)" style="fill: none; stroke: #4d59c1; stroke-width: 0.2"/>
    <path d="M 63.206031 449.872311 
L 93.337592 459.029435 
L 224.87874 493.239068 
" clip-path="url(#p6a396d9c8d)" style="fill: none; stroke: #4d59c1; stroke-width: 0.2"/>
    <path d="M 63.206031 449.872311 
L 60.150227 450.01474 
" clip-path="url(#p6a396d9c8d)" style="fill: none; stroke: #4d59c1; stroke-width: 0.2"/>
    <path d="M 207.037442 557.656845 
L 207.179659 552.991895 
L 223.190492 498.947585 
L 224.87874 493.239068 
L 265.782059 338.404194 
" clip-path="url(#p6a396d9c8d)" style="fill: none; stroke: #4d59c1; stroke-width: 0.2"/>
    <path d="M 314.654094 524.718842 
L 333.812042 443.362114 
L 353.057154 361.618368 
" clip-path="url(#p6a396d9c8d)" style="fill: none; stroke: #4d59c1; stroke-width: 0.2"/>
    <path d="M 391.240009 372.447963 
L 370.646132 452.906256 
" clip-path="url(#p6a396d9c8d)" style="fill: none; stroke: #4d59c1; stroke-width: 0.2"/>
    <path d="M 93.337592 459.029435 
L 133.474777 303.074973 
" clip-path="url(#p6a396d9c8d)" style="fill: none; stroke: #4d59c1; stroke-width: 0.2"/>
    <path d="M 133.474777 303.074973 
L 265.782059 338.404194 
L 328.751885 354.997594 
L 353.057154 361.618368 
L 391.240009 372.447963 
L 506.192282 403.727316 
L 614.675996 439.111826 
" clip-path="url(#p6a396d9c8d)" style="fill: none; stroke: #4d59c1; stroke-width: 0.2"/>
    <path d="M 328.751885 354.997594 
L 333.183536 325.71553 
L 332.568794 320.794872 
L 330.476834 318.085745 
L 325.058842 314.153365 
L 311.158319 307.629346 
L 306.726667 304.312048 
L 304.90079 300.849619 
L 305.001718 296.067181 
L 322.173222 222.430081 
L 335.032352 166.685656 
" clip-path="url(#p6a396d9c8d)" style="fill: none; stroke: #4d59c1; stroke-width: 0.2"/>
    <path d="M 122.767246 168.468704 
L 168.446289 180.832549 
L 322.173222 222.430081 
L 536.704617 280.482793 
" clip-path="url(#p6a396d9c8d)" style="fill: none; stroke: #4d59c1; stroke-width: 0.2"/>
    <path d="M 133.474777 303.074973 
L 168.446289 180.832549 
L 182.3881 125.952004 
" clip-path="url(#p6a396d9c8d)" style="fill: none; stroke: #4d59c1; stroke-width: 0.2"/>
    <path d="M 135.071273 113.346273 
L 182.3881 125.952004 
L 335.032352 166.685656 
L 524.873116 217.170782 
" clip-path="url(#p6a396d9c8d)" style="fill: none; stroke: #4d59c1; stroke-width: 0.2"/>
    <path d="M 643.513846 506.107419 
L 601.42233 498.470723 
L 496.379339 477.226195 
L 482.258611 481.158575 
L 442.130601 471.503857 
L 374.568557 453.929089 
L 370.646132 452.906256 
L 333.812042 443.362114 
" clip-path="url(#p6a396d9c8d)" style="fill: none; stroke: #4d59c1; stroke-width: 0.2"/>
    <path d="M 614.675996 439.111826 
L 619.580174 450.79839 
L 622.718114 458.179377 
" clip-path="url(#p6a396d9c8d)" style="fill: none; stroke: #4d59c1; stroke-width: 0.2"/>
    <path d="M 537.93869 287.075922 
L 542.069908 293.192314 
" clip-path="url(#p6a396d9c8d)" style="fill: none; stroke: #4d59c1; stroke-width: 0.2"/>
    <path d="M 614.675996 439.111826 
L 617.747664 440.602317 
" clip-path="url(#p6a396d9c8d)" style="fill: none; stroke: #4d59c1; stroke-width: 0.2"/>
    <path d="M 523.565642 339.883156 
L 450.516791 319.322821 
" clip-path="url(#p6a396d9c8d)" style="fill: none; stroke: #4d59c1; stroke-width: 0.2"/>
    <path d="M 506.192282 403.727316 
L 523.565642 339.883156 
L 537.93869 287.075922 
L 536.704617 280.482793 
L 524.873116 217.170782 
" clip-path="url(#p6a396d9c8d)" style="fill: none; stroke: #4d59c1; stroke-width: 0.2"/>
    <path d="M 524.873116 217.170782 
L 522.97176 163.500692 
" clip-path="url(#p6a396d9c8d)" style="fill: none; stroke: #4d59c1; stroke-width: 0.2"/>
   </g>
  </g>
 </g>
 <defs>
  <clipPath id="p6a396d9c8d">
   <rect x="7.2" y="7.2" width="837" height="819.9593"/>
  </clipPath>
 </defs>
</svg>
