<?xml version="1.0" encoding="utf-8" standalone="no"?>
<!DOCTYPE svg PUBLIC "-//W3C//DTD SVG 1.1//EN"
  "http://www.w3.org/Graphics/SVG/1.1/DTD/svg11.dtd">
<svg xmlns:xlink="http://www.w3.org/1999/xlink" width="851.4pt" height="612.052969pt" viewBox="0 0 851.4 612.052969" xmlns="http://www.w3.org/2000/svg" version="1.1">
 <metadata>
  <rdf:RDF xmlns:dc="http://purl.org/dc/elements/1.1/" xmlns:cc="http://creativecommons.org/ns#" xmlns:rdf="http://www.w3.org/1999/02/22-rdf-syntax-ns#">
   <cc:Work>
    <dc:type rdf:resource="http://purl.org/dc/dcmitype/StillImage"/>
    <dc:date>2025-03-16T14:29:55.714606</dc:date>
    <dc:format>image/svg+xml</dc:format>
    <dc:creator>
     <cc:Agent>
      <dc:title>Matplotlib v3.10.1, https://matplotlib.org/</dc:title>
     </cc:Agent>
    </dc:creator>
   </cc:Work>
  </rdf:RDF>
 </metadata>
 <defs>
  <style type="text/css">*{stroke-linejoin: round; stroke-linecap: butt}</style>
 </defs>
 <g id="figure_1">
  <g id="patch_1">
   <path d="M 0 612.052969 
L 851.4 612.052969 
L 851.4 0 
L 0 0 
z
" style="fill: #ffffff"/>
  </g>
  <g id="axes_1">
   <g id="PatchCollection_1">
    <path d="M 402.779871 419.92923 
L 402.212523 327.164541 
L 440.167976 329.023899 
L 469.544258 356.184188 
L 471.984217 423.077911 
L 485.249754 433.602882 
L 506.915428 434.703392 
L 510.043704 480.984137 
L 517.466405 502.442277 
L 538.697797 518.03283 
L 539.103045 526.547394 
L 516.911154 566.6099 
L 531.011382 577.686925 
L 541.354291 569.260474 
L 546.276549 572.513451 
L 554.213371 570.062479 
L 573.53707 567.250066 
L 579.056918 573.515058 
L 586.564297 571.011938 
L 591.652283 572.263498 
L 609.752979 566.924588 
L 605.331537 553.326461 
L 600.243551 552.074901 
L 593.403924 521.791106 
L 594.322084 517.036617 
L 589.058693 503.562567 
L 587.348181 495.429225 
L 589.433699 493.427808 
L 591.936562 495.055196 
L 641.357523 518.120942 
L 647.113261 521.497996 
L 652.952469 528.59017 
L 658.040454 535.971856 
L 673.523366 560.749506 
L 674.86613 559.949299 
L 796.988671 557.643983 
L 806.154545 330.016515 
L 774.027413 304.652646 
L 775.218964 301.637033 
L 762.635696 291.203771 
L 759.334433 364.295951 
L 754.860973 388.323745 
L 757.089235 395.577758 
L 746.724551 401.589201 
L 743.09788 394.385539 
L 727.810939 369.616879 
L 726.619387 366.766703 
L 725.789535 363.450789 
L 720.568483 261.115981 
L 710.513481 259.959727 
L 686.913502 256.863195 
L 674.470559 254.293541 
L 665.103875 250.71149 
L 646.819305 245.338414 
L 638.699819 243.119412 
L 576.110096 230.163249 
L 564.367567 226.836545 
L 555.639603 223.045901 
L 467.923264 153.487219 
L 446.553967 177.912419 
L 412.413898 223.56199 
L 402.360106 215.815265 
L 380.158537 208.694321 
L 362.437686 203.344621 
L 352.092357 195.502591 
L 346.646301 184.403987 
L 331.775496 174.353745 
L 315.228051 168.90874 
L 295.540232 148.597864 
L 198.354385 84.316953 
L 190.394578 96.460321 
L 179.085121 87.037657 
L 154.788357 80.128902 
L 153.112926 73.847726 
L 125.883857 64.006077 
L 119.839001 56.39242 
L 104.962147 51.411356 
L 93.749465 47.381548 
L 54.981096 34.366044 
L 53.137518 40.821648 
L 45.245455 72.171786 
L 56.974677 75.401386 
L 50.903207 103.827622 
L 49.867707 108.585708 
L 51.563702 110.072834 
L 82.215005 128.628649 
L 99.926178 139.408968 
L 124.858034 154.370145 
L 146.22975 167.338895 
L 166.979683 180.537818 
L 187.958248 193.932746 
L 175.845552 215.815265 
L 197.97212 229.024977 
L 204.76094 219.855862 
L 221.920492 230.481534 
L 227.937525 221.188342 
L 249.928606 236.771702 
L 257.444454 242.29403 
L 258.765443 384.669765 
L 402.779871 419.92923 
" clip-path="url(#p6e27f7f9d8)" style="fill: #fbd6c9"/>
   </g>
   <g id="PatchCollection_2">
    <path d="M 671.378574 541.940142 
L 671.937454 542.859032 
L 671.124537 543.353542 
L 670.565657 542.432854 
L 671.378574 541.940142 
" clip-path="url(#p6e27f7f9d8)" style="fill: #e6482f"/>
    <path d="M 666.305104 369.06123 
L 666.338976 370.737169 
L 662.867145 370.8073 
L 662.880452 371.429483 
L 661.247361 371.46365 
L 661.201393 369.165527 
L 666.305104 369.06123 
" clip-path="url(#p6e27f7f9d8)" style="fill: #e6482f"/>
    <path d="M 669.468462 369.050441 
L 672.91126 368.904785 
L 672.972954 370.366736 
L 669.531366 370.512392 
L 669.468462 369.050441 
" clip-path="url(#p6e27f7f9d8)" style="fill: #e6482f"/>
    <path d="M 679.890002 368.831058 
L 683.603771 368.726761 
L 683.646111 370.269633 
L 679.932341 370.373929 
L 679.890002 368.831058 
" clip-path="url(#p6e27f7f9d8)" style="fill: #e6482f"/>
    <path d="M 674.915728 368.649438 
L 678.530302 368.559527 
L 678.570222 370.18152 
L 674.955648 370.269633 
L 674.915728 368.649438 
" clip-path="url(#p6e27f7f9d8)" style="fill: #e6482f"/>
    <path d="M 685.718322 369.654642 
L 685.636062 368.025456 
L 688.557481 367.8798 
L 688.63853 369.508986 
L 685.718322 369.654642 
" clip-path="url(#p6e27f7f9d8)" style="fill: #e6482f"/>
    <path d="M 708.463045 361.332488 
L 708.535627 363.130706 
L 697.018101 363.589252 
L 696.946729 361.791033 
L 708.463045 361.332488 
" clip-path="url(#p6e27f7f9d8)" style="fill: #e6482f"/>
    <path d="M 695.300332 340.84179 
L 696.091474 358.050739 
L 694.146281 358.14065 
L 693.355139 340.931701 
L 695.300332 340.84179 
" clip-path="url(#p6e27f7f9d8)" style="fill: #e6482f"/>
    <path d="M 688.84055 334.440132 
L 688.947003 336.909086 
L 687.95989 336.952243 
L 687.994972 337.75245 
L 688.28046 337.739863 
L 688.547803 343.963497 
L 686.170748 344.065995 
L 685.900986 337.808195 
L 686.926809 337.76324 
L 686.895357 337.029567 
L 686.64253 337.040356 
L 686.534867 334.539034 
L 688.84055 334.440132 
" clip-path="url(#p6e27f7f9d8)" style="fill: #e6482f"/>
    <path d="M 684.013859 336.407383 
L 684.054988 337.162635 
L 685.374768 337.090706 
L 685.467914 338.78283 
L 684.624756 338.829583 
L 684.675563 339.764657 
L 681.509786 339.937286 
L 681.323493 336.554837 
L 684.013859 336.407383 
" clip-path="url(#p6e27f7f9d8)" style="fill: #e6482f"/>
    <path d="M 646.507203 449.072955 
L 646.572527 450.112325 
L 645.258796 450.160877 
L 645.177746 449.121507 
L 646.507203 449.072955 
" clip-path="url(#p6e27f7f9d8)" style="fill: #e6482f"/>
    <path d="M 664.515962 353.456291 
L 664.809919 360.019788 
L 653.078277 360.544868 
L 652.853274 355.531435 
L 656.93842 355.349815 
L 657.076326 358.435558 
L 661.801402 358.223368 
L 661.656239 354.975786 
L 661.594544 353.587561 
L 664.515962 353.456291 
" clip-path="url(#p6e27f7f9d8)" style="fill: #e6482f"/>
    <path d="M 661.656239 354.975786 
L 649.359669 355.499067 
L 649.260474 353.150594 
L 652.850854 352.997746 
L 652.889565 353.909442 
L 661.594544 353.587561 
L 661.656239 354.975786 
" clip-path="url(#p6e27f7f9d8)" style="fill: #e6482f"/>
    <path d="M 745.418078 403.315491 
L 747.00762 405.262961 
L 746.326561 408.053796 
L 743.859989 407.631215 
L 744.120074 406.593643 
L 744.380158 405.101122 
L 734.256204 402.504495 
L 734.840488 400.429351 
L 745.418078 403.315491 
" clip-path="url(#p6e27f7f9d8)" style="fill: #e6482f"/>
    <path d="M 744.120074 406.593643 
L 743.859989 407.631215 
L 712.971586 399.163405 
L 713.304252 398.071886 
L 744.120074 406.593643 
" clip-path="url(#p6e27f7f9d8)" style="fill: #e6482f"/>
    <path d="M 743.892651 398.904461 
L 745.255979 401.693498 
L 724.619758 395.138992 
L 724.035474 397.638516 
L 733.088847 400.429351 
L 732.634001 402.180815 
L 721.439465 398.805559 
L 723.224977 392.544163 
L 743.892651 398.904461 
" clip-path="url(#p6e27f7f9d8)" style="fill: #e6482f"/>
    <path d="M 720.6205 395.87806 
L 720.088233 398.034124 
L 713.8716 396.498445 
L 714.403867 394.342382 
L 720.6205 395.87806 
" clip-path="url(#p6e27f7f9d8)" style="fill: #e6482f"/>
    <path d="M 715.463561 390.483405 
L 721.660839 392.148555 
L 721.055991 394.403521 
L 714.857503 392.740169 
L 715.463561 390.483405 
" clip-path="url(#p6e27f7f9d8)" style="fill: #e6482f"/>
    <path d="M 712.640129 385.852993 
L 714.656693 385.460981 
L 711.11591 397.902854 
L 709.344914 397.36159 
L 712.640129 385.852993 
" clip-path="url(#p6e27f7f9d8)" style="fill: #e6482f"/>
    <path d="M 716.549869 386.575877 
L 741.361964 394.327996 
L 741.070427 395.432102 
L 742.075686 395.691045 
L 741.97891 396.698048 
L 715.815583 389.129347 
L 716.549869 386.575877 
" clip-path="url(#p6e27f7f9d8)" style="fill: #e6482f"/>
    <path d="M 716.962376 381.805203 
L 717.838197 382.096515 
L 717.534563 383.21141 
L 717.287784 384.117712 
L 716.851084 385.527515 
L 716.549869 386.575877 
L 715.815583 389.129347 
L 715.463561 390.483405 
L 714.857503 392.740169 
L 714.403867 394.342382 
L 713.8716 396.498445 
L 713.304252 398.071886 
L 713.004247 398.904461 
L 712.095765 398.611352 
L 716.962376 381.805203 
" clip-path="url(#p6e27f7f9d8)" style="fill: #e6482f"/>
    <path d="M 738.972813 390.834058 
L 738.536112 392.243861 
L 716.851084 385.527515 
L 717.287784 384.117712 
L 738.972813 390.834058 
" clip-path="url(#p6e27f7f9d8)" style="fill: #e6482f"/>
    <path d="M 736.981652 389.462017 
L 717.534563 383.21141 
L 717.838197 382.096515 
L 737.436498 388.0666 
L 736.981652 389.462017 
" clip-path="url(#p6e27f7f9d8)" style="fill: #e6482f"/>
    <path d="M 735.572355 384.67516 
L 735.040088 386.444607 
L 716.075668 380.746053 
L 716.607935 378.974808 
L 735.572355 384.67516 
" clip-path="url(#p6e27f7f9d8)" style="fill: #e6482f"/>
    <path d="M 723.130621 360.5125 
L 723.21409 362.332297 
L 710.800179 362.895139 
L 710.71792 361.075342 
L 723.130621 360.5125 
" clip-path="url(#p6e27f7f9d8)" style="fill: #e6482f"/>
    <path d="M 705.501707 348.299001 
L 705.60695 350.492827 
L 709.343704 350.313006 
L 709.297736 349.361748 
L 711.561079 349.252057 
L 711.653016 351.147379 
L 710.036861 351.224702 
L 710.150572 353.591158 
L 712.643758 353.470677 
L 712.718759 355.013548 
L 709.303784 355.178984 
L 709.353382 356.198574 
L 707.074313 356.308265 
L 706.976327 354.290665 
L 708.593692 354.211543 
L 708.4824 351.924209 
L 705.507755 352.066268 
L 705.554933 353.035508 
L 702.488351 353.18476 
L 702.386737 351.098827 
L 704.054909 351.017907 
L 703.926681 348.376324 
L 705.501707 348.299001 
" clip-path="url(#p6e27f7f9d8)" style="fill: #e6482f"/>
    <path d="M 722.481014 340.94249 
L 723.405222 356.797381 
L 721.603983 356.903476 
L 720.679775 341.048585 
L 722.481014 340.94249 
" clip-path="url(#p6e27f7f9d8)" style="fill: #e6482f"/>
    <path d="M 722.199154 333.913254 
L 722.289881 335.77441 
L 706.711404 336.540451 
L 706.619467 334.681094 
L 722.199154 333.913254 
" clip-path="url(#p6e27f7f9d8)" style="fill: #e6482f"/>
    <path d="M 708.654177 326.794108 
L 719.777341 326.08561 
L 719.920085 328.322594 
L 708.796921 329.031092 
L 708.654177 326.794108 
" clip-path="url(#p6e27f7f9d8)" style="fill: #e6482f"/>
    <path d="M 699.344349 320.086754 
L 701.681483 319.971668 
L 701.582288 317.954067 
L 703.752485 317.846174 
L 703.85168 319.863774 
L 706.292848 319.741496 
L 706.194863 317.786832 
L 708.32151 317.682536 
L 708.419496 319.637199 
L 710.644128 319.525709 
L 710.79776 322.607856 
L 708.608208 322.717547 
L 708.515062 320.836611 
L 706.200911 320.951697 
L 706.294058 322.832633 
L 704.126281 322.940526 
L 704.028296 320.966082 
L 701.689951 321.081168 
L 701.789146 323.05741 
L 699.49798 323.170698 
L 699.344349 320.086754 
" clip-path="url(#p6e27f7f9d8)" style="fill: #e6482f"/>
    <path d="M 721.790277 324.55173 
L 719.628548 324.666816 
L 719.038216 313.604176 
L 721.201154 313.48909 
L 721.790277 324.55173 
" clip-path="url(#p6e27f7f9d8)" style="fill: #e6482f"/>
    <path d="M 651.811725 346.489993 
L 648.892726 346.599685 
L 648.705223 341.613225 
L 651.624222 341.503534 
L 651.811725 346.489993 
" clip-path="url(#p6e27f7f9d8)" style="fill: #e6482f"/>
    <path d="M 638.684093 342.767681 
L 638.831676 344.857211 
L 637.405443 344.905763 
L 637.232456 342.816233 
L 638.684093 342.767681 
" clip-path="url(#p6e27f7f9d8)" style="fill: #e6482f"/>
    <path d="M 654.827499 335.610772 
L 654.90371 337.421578 
L 650.669771 337.599602 
L 650.59356 335.786998 
L 654.827499 335.610772 
" clip-path="url(#p6e27f7f9d8)" style="fill: #e6482f"/>
    <path d="M 666.135747 328.568949 
L 666.219216 330.381554 
L 657.987228 330.764574 
L 657.903759 328.95197 
L 666.135747 328.568949 
" clip-path="url(#p6e27f7f9d8)" style="fill: #e6482f"/>
    <path d="M 649.088697 325.67202 
L 649.143133 326.903799 
L 648.684658 326.925378 
L 648.79595 329.41591 
L 654.320636 329.169554 
L 654.302491 328.755964 
L 655.553317 328.700219 
L 655.652513 330.939001 
L 647.070922 331.322022 
L 646.824144 325.77272 
L 649.088697 325.67202 
" clip-path="url(#p6e27f7f9d8)" style="fill: #e6482f"/>
    <path d="M 648.522558 314.796395 
L 648.788692 323.026841 
L 646.735836 323.093375 
L 646.469703 314.862929 
L 648.522558 314.796395 
" clip-path="url(#p6e27f7f9d8)" style="fill: #e6482f"/>
    <path d="M 626.894386 314.42776 
L 627.239149 316.837373 
L 622.517702 317.9199 
L 622.174148 315.411386 
L 626.894386 314.42776 
" clip-path="url(#p6e27f7f9d8)" style="fill: #e6482f"/>
    <path d="M 655.178311 307.101819 
L 655.428719 315.467131 
L 653.395218 315.52827 
L 653.144811 307.162958 
L 655.178311 307.101819 
" clip-path="url(#p6e27f7f9d8)" style="fill: #e6482f"/>
    <path d="M 625.619365 307.880448 
L 625.991952 309.856689 
L 621.40841 310.676677 
L 621.072114 308.738198 
L 625.619365 307.880448 
" clip-path="url(#p6e27f7f9d8)" style="fill: #e6482f"/>
    <path d="M 648.03626 303.809281 
L 648.327797 312.154812 
L 646.258006 312.226741 
L 645.966469 303.883008 
L 648.03626 303.809281 
" clip-path="url(#p6e27f7f9d8)" style="fill: #e6482f"/>
    <path d="M 671.468091 336.220368 
L 671.546721 338.029376 
L 657.589237 338.635376 
L 657.510607 336.826368 
L 671.468091 336.220368 
" clip-path="url(#p6e27f7f9d8)" style="fill: #e6482f"/>
    <path d="M 703.918213 334.877099 
L 704.024666 337.105092 
L 693.176104 337.626575 
L 693.068441 335.398583 
L 703.918213 334.877099 
" clip-path="url(#p6e27f7f9d8)" style="fill: #e6482f"/>
    <path d="M 679.467817 334.869907 
L 679.53677 336.810184 
L 672.526576 337.060136 
L 672.457623 335.119859 
L 679.467817 334.869907 
" clip-path="url(#p6e27f7f9d8)" style="fill: #e6482f"/>
    <path d="M 690.987762 327.712998 
L 702.877874 327.035069 
L 703.004892 329.257667 
L 691.11478 329.935595 
L 690.987762 327.712998 
" clip-path="url(#p6e27f7f9d8)" style="fill: #e6482f"/>
    <path d="M 671.095504 321.996461 
L 671.449946 330.216117 
L 669.39588 330.30423 
L 669.040229 322.084574 
L 671.095504 321.996461 
" clip-path="url(#p6e27f7f9d8)" style="fill: #e6482f"/>
    <path d="M 683.882002 328.119395 
L 677.70166 328.441276 
L 677.543189 325.393296 
L 679.33717 325.299789 
L 679.391606 326.330168 
L 682.043262 326.191705 
L 681.552125 316.778032 
L 683.284411 316.686323 
L 683.882002 328.119395 
" clip-path="url(#p6e27f7f9d8)" style="fill: #e6482f"/>
    <path d="M 689.943793 314.264123 
L 690.495415 325.249438 
L 688.222395 325.362726 
L 687.671982 314.37741 
L 689.943793 314.264123 
" clip-path="url(#p6e27f7f9d8)" style="fill: #e6482f"/>
    <path d="M 670.585012 313.451328 
L 670.814855 319.813424 
L 668.732966 319.88895 
L 668.503124 313.525055 
L 670.585012 313.451328 
" clip-path="url(#p6e27f7f9d8)" style="fill: #e6482f"/>
    <path d="M 664.719192 306.483232 
L 665.074842 312.866907 
L 662.931259 312.985589 
L 662.576818 306.601914 
L 664.719192 306.483232 
" clip-path="url(#p6e27f7f9d8)" style="fill: #e6482f"/>
    <path d="M 678.108118 305.019482 
L 678.221829 307.270851 
L 669.959599 307.688038 
L 669.845887 305.436669 
L 678.108118 305.019482 
" clip-path="url(#p6e27f7f9d8)" style="fill: #e6482f"/>
    <path d="M 699.442334 301.991282 
L 699.758065 310.500452 
L 697.660451 310.577775 
L 697.34472 302.068606 
L 699.442334 301.991282 
" clip-path="url(#p6e27f7f9d8)" style="fill: #e6482f"/>
    <path d="M 691.690596 304.907993 
L 691.791001 307.06046 
L 683.257798 307.456068 
L 683.157393 305.305399 
L 691.690596 304.907993 
" clip-path="url(#p6e27f7f9d8)" style="fill: #e6482f"/>
    <path d="M 690.847437 298.062175 
L 690.890986 299.76329 
L 686.009859 299.887367 
L 685.96631 298.188051 
L 690.847437 298.062175 
" clip-path="url(#p6e27f7f9d8)" style="fill: #e6482f"/>
    <path d="M 677.585529 292.212571 
L 678.002874 300.869194 
L 675.910098 300.969894 
L 675.492753 292.313271 
L 677.585529 292.212571 
" clip-path="url(#p6e27f7f9d8)" style="fill: #e6482f"/>
    <path d="M 683.912244 300.315343 
L 681.671885 300.410649 
L 681.317444 292.061521 
L 683.557803 291.966215 
L 683.912244 300.315343 
" clip-path="url(#p6e27f7f9d8)" style="fill: #e6482f"/>
    <path d="M 699.191927 290.910661 
L 699.587498 299.360489 
L 697.456012 299.459391 
L 697.059231 291.011361 
L 699.191927 290.910661 
" clip-path="url(#p6e27f7f9d8)" style="fill: #e6482f"/>
    <path d="M 673.046746 292.550636 
L 673.116908 294.568237 
L 666.832532 294.789418 
L 666.76237 292.771817 
L 673.046746 292.550636 
" clip-path="url(#p6e27f7f9d8)" style="fill: #e6482f"/>
    <path d="M 692.879728 292.066915 
L 692.964407 294.16184 
L 687.875212 294.368635 
L 687.790533 292.271912 
L 692.879728 292.066915 
" clip-path="url(#p6e27f7f9d8)" style="fill: #e6482f"/>
    <path d="M 715.060732 311.421139 
L 715.140572 313.638343 
L 704.035554 314.055529 
L 703.952085 311.822142 
L 715.060732 311.421139 
" clip-path="url(#p6e27f7f9d8)" style="fill: #e6482f"/>
    <path d="M 720.282994 300.452008 
L 720.873326 311.633329 
L 718.772083 311.744819 
L 718.18175 300.563497 
L 720.282994 300.452008 
" clip-path="url(#p6e27f7f9d8)" style="fill: #e6482f"/>
    <path d="M 715.254284 302.588291 
L 715.369205 304.744355 
L 704.275074 305.33417 
L 704.161362 303.178107 
L 715.254284 302.588291 
" clip-path="url(#p6e27f7f9d8)" style="fill: #e6482f"/>
    <path d="M 716.193009 300.788274 
L 712.718759 300.876387 
L 712.678839 299.277771 
L 714.778873 299.223824 
L 714.730485 297.34109 
L 716.104701 297.306924 
L 716.193009 300.788274 
" clip-path="url(#p6e27f7f9d8)" style="fill: #e6482f"/>
    <path d="M 719.789438 289.56919 
L 720.373721 298.267172 
L 718.394657 298.40024 
L 717.810374 289.702258 
L 719.789438 289.56919 
" clip-path="url(#p6e27f7f9d8)" style="fill: #e6482f"/>
    <path d="M 706.030344 290.833338 
L 706.321881 296.736888 
L 704.036763 296.850176 
L 703.745226 290.946625 
L 706.030344 290.833338 
" clip-path="url(#p6e27f7f9d8)" style="fill: #e6482f"/>
    <path d="M 712.987312 290.511457 
L 713.278849 296.289132 
L 710.888487 296.411411 
L 710.595741 290.631937 
L 712.987312 290.511457 
" clip-path="url(#p6e27f7f9d8)" style="fill: #e6482f"/>
    <path d="M 716.882536 284.510802 
L 716.913988 285.890035 
L 714.273219 285.949377 
L 714.242977 284.570143 
L 716.882536 284.510802 
" clip-path="url(#p6e27f7f9d8)" style="fill: #e6482f"/>
    <path d="M 659.17757 299.097949 
L 659.219909 300.268589 
L 658.513446 300.295563 
L 658.540059 301.025639 
L 653.470219 301.209057 
L 653.443606 300.478981 
L 652.699642 300.505954 
L 652.657303 299.333516 
L 659.17757 299.097949 
" clip-path="url(#p6e27f7f9d8)" style="fill: #e6482f"/>
    <path d="M 647.513671 292.906683 
L 647.931017 301.250417 
L 645.826144 301.356511 
L 645.408798 293.012778 
L 647.513671 292.906683 
" clip-path="url(#p6e27f7f9d8)" style="fill: #e6482f"/>
    <path d="M 664.228055 298.610632 
L 661.760273 298.700543 
L 661.550995 292.942648 
L 664.019987 292.852737 
L 664.228055 298.610632 
" clip-path="url(#p6e27f7f9d8)" style="fill: #e6482f"/>
    <path d="M 657.613431 297.558674 
L 655.162585 297.671962 
L 654.956937 293.217775 
L 657.406573 293.104487 
L 657.613431 297.558674 
" clip-path="url(#p6e27f7f9d8)" style="fill: #e6482f"/>
    <path d="M 587.11229 285.095223 
L 584.898545 291.734245 
L 581.60454 290.651718 
L 583.423924 284.160149 
L 587.11229 285.095223 
" clip-path="url(#p6e27f7f9d8)" style="fill: #e6482f"/>
   </g>
   <g id="LineCollection_1">
    <path d="M 406.750096 312.232136 
L 403.283105 320.82762 
L 403.483915 323.936739 
L 403.696822 327.237254 
" clip-path="url(#p6e27f7f9d8)" style="fill: none; stroke: #e6482f; stroke-width: 0.2"/>
    <path d="M 452.099218 296.409613 
L 452.939957 297.896739 
L 458.458595 303.546741 
L 453.296818 306.754763 
L 451.058878 307.589136 
L 449.275785 307.204317 
L 443.074878 302.230445 
L 441.672839 301.728743 
L 441.005086 301.890582 
L 439.567966 302.243033 
L 434.488449 305.125577 
" clip-path="url(#p6e27f7f9d8)" style="fill: none; stroke: #e6482f; stroke-width: 0.2"/>
    <path d="M 408.068666 287.436503 
L 406.750096 312.232136 
" clip-path="url(#p6e27f7f9d8)" style="fill: none; stroke: #e6482f; stroke-width: 0.2"/>
    <path d="M 313.885287 308.62491 
L 324.657639 291.259515 
L 328.575847 289.238318 
" clip-path="url(#p6e27f7f9d8)" style="fill: none; stroke: #e6482f; stroke-width: 0.2"/>
    <path d="M 441.005086 301.890582 
L 441.611145 299.784869 
L 449.01691 295.814402 
L 452.099218 296.409613 
" clip-path="url(#p6e27f7f9d8)" style="fill: none; stroke: #e6482f; stroke-width: 0.2"/>
    <path d="M 422.474948 296.2208 
L 425.206444 292.41577 
L 425.892342 290.132033 
L 426.995585 287.272865 
L 429.330301 285.100618 
L 429.434335 285.003514 
L 432.971489 282.340352 
" clip-path="url(#p6e27f7f9d8)" style="fill: none; stroke: #e6482f; stroke-width: 0.2"/>
    <path d="M 411.124361 288.821131 
L 408.068666 287.436503 
L 405.928712 286.722611 
L 404.225459 286.251477 
L 402.328654 285.89543 
L 400.332654 285.652671 
L 396.001939 285.620303 
L 381.364605 285.58254 
L 364.981678 286.576955 
L 360.3437 287.042693 
L 345.378539 288.544206 
L 331.860175 289.432526 
L 328.575847 289.238318 
" clip-path="url(#p6e27f7f9d8)" style="fill: none; stroke: #e6482f; stroke-width: 0.5"/>
    <path d="M 413.7615 284.816499 
L 419.437399 288.11623 
L 429.330301 285.100618 
" clip-path="url(#p6e27f7f9d8)" style="fill: none; stroke: #e6482f; stroke-width: 0.2"/>
    <path d="M 260.158564 385.010847 
L 260.145707 383.666359 
L 260.01385 369.990909 
L 259.556585 323.940335 
" clip-path="url(#p6e27f7f9d8)" style="fill: none; stroke: #e6482f; stroke-width: 0.2"/>
    <path d="M 124.470635 154.137673 
L 124.976584 153.713795 
" clip-path="url(#p6e27f7f9d8)" style="fill: none; stroke: #e6482f; stroke-width: 0.2"/>
    <path d="M 260.387647 268.911258 
L 276.815332 281.104976 
L 313.885287 308.62491 
" clip-path="url(#p6e27f7f9d8)" style="fill: none; stroke: #e6482f; stroke-width: 0.2"/>
    <path d="M 521.168078 333.519445 
L 522.085028 336.328262 
L 522.902783 343.54631 
L 524.31208 348.640663 
L 526.137513 352.963579 
L 525.819363 356.168004 
L 525.145561 358.662133 
L 524.181433 363.986658 
L 523.130206 366.95192 
L 520.627343 373.321209 
" clip-path="url(#p6e27f7f9d8)" style="fill: none; stroke: #e6482f; stroke-width: 0.2"/>
    <path d="M 540.468793 382.400414 
L 536.745346 380.219175 
L 527.445195 376.304453 
L 525.105641 375.248899 
L 520.627343 373.321209 
L 519.267644 372.679245 
L 511.826797 368.789699 
L 501.240739 361.76406 
L 489.389337 353.071472 
L 484.02796 349.2089 
L 479.031912 345.103567 
L 474.874183 340.550478 
L 470.283383 335.429152 
L 465.74218 329.863667 
L 461.446546 325.783509 
L 459.35619 324.244234 
L 457.07833 322.4622 
L 446.371302 314.505084 
L 434.488449 305.125577 
L 433.443271 304.418877 
L 422.474948 296.2208 
L 420.522497 294.850557 
L 415.549432 291.872708 
L 411.124361 288.821131 
" clip-path="url(#p6e27f7f9d8)" style="fill: none; stroke: #e6482f; stroke-width: 0.5"/>
    <path d="M 462.565516 321.491162 
L 491.409531 342.710138 
" clip-path="url(#p6e27f7f9d8)" style="fill: none; stroke: #e6482f; stroke-width: 0.2"/>
    <path d="M 521.168078 333.519445 
L 530.167014 321.302349 
" clip-path="url(#p6e27f7f9d8)" style="fill: none; stroke: #e6482f; stroke-width: 0.2"/>
    <path d="M 536.666716 319.437597 
L 536.237273 320.374469 
L 535.229596 320.304338 
L 532.858589 320.023816 
L 530.167014 321.302349 
" clip-path="url(#p6e27f7f9d8)" style="fill: none; stroke: #e6482f; stroke-width: 0.2"/>
    <path d="M 459.35619 324.244234 
L 462.565516 321.491162 
L 477.095187 299.889165 
L 484.522726 291.327848 
L 486.155817 289.486472 
" clip-path="url(#p6e27f7f9d8)" style="fill: none; stroke: #e6482f; stroke-width: 0.2"/>
    <path d="M 551.751637 289.252704 
L 549.654023 290.761409 
L 549.339501 291.532845 
L 547.720927 293.232161 
L 541.769218 298.977469 
L 538.84659 302.095579 
L 536.822766 304.674224 
L 535.436454 307.973955 
L 534.947736 310.162387 
L 535.221128 313.579001 
L 536.158643 316.098305 
L 536.666716 319.437597 
" clip-path="url(#p6e27f7f9d8)" style="fill: none; stroke: #e6482f; stroke-width: 0.2"/>
    <path d="M 562.256646 321.910147 
L 551.751637 289.252704 
L 549.297162 281.624662 
L 542.412776 277.285561 
L 533.802153 274.244774 
L 530.10048 271.203986 
L 529.008124 262.443067 
" clip-path="url(#p6e27f7f9d8)" style="fill: none; stroke: #e6482f; stroke-width: 0.2"/>
    <path d="M 486.155817 289.486472 
L 489.187318 287.695447 
L 492.194625 285.622101 
" clip-path="url(#p6e27f7f9d8)" style="fill: none; stroke: #e6482f; stroke-width: 0.2"/>
    <path d="M 452.099218 296.409613 
L 458.383594 285.81451 
L 467.648663 275.821811 
" clip-path="url(#p6e27f7f9d8)" style="fill: none; stroke: #e6482f; stroke-width: 0.2"/>
    <path d="M 360.3437 287.042693 
L 360.647334 278.83023 
" clip-path="url(#p6e27f7f9d8)" style="fill: none; stroke: #e6482f; stroke-width: 0.2"/>
    <path d="M 405.604513 279.788681 
L 407.700918 280.090781 
L 413.7615 284.816499 
" clip-path="url(#p6e27f7f9d8)" style="fill: none; stroke: #e6482f; stroke-width: 0.2"/>
    <path d="M 400.217733 275.949485 
L 399.74837 279.37509 
L 399.164087 281.320763 
L 397.947131 283.834672 
L 396.001939 285.620303 
" clip-path="url(#p6e27f7f9d8)" style="fill: none; stroke: #e6482f; stroke-width: 0.5"/>
    <path d="M 383.988438 263.843879 
L 383.265039 266.609538 
L 379.98797 272.788217 
L 378.576253 274.816607 
L 376.483478 277.963489 
L 373.287458 281.51497 
L 371.990663 283.136963 
" clip-path="url(#p6e27f7f9d8)" style="fill: none; stroke: #e6482f; stroke-width: 0.2"/>
    <path d="M 447.758825 260.292397 
L 439.525627 272.273926 
L 432.971489 282.340352 
" clip-path="url(#p6e27f7f9d8)" style="fill: none; stroke: #e6482f; stroke-width: 0.2"/>
    <path d="M 404.636756 281.227255 
L 405.604513 279.788681 
L 420.291445 257.943924 
" clip-path="url(#p6e27f7f9d8)" style="fill: none; stroke: #e6482f; stroke-width: 0.2"/>
    <path d="M 486.155817 289.486472 
L 485.264271 288.155791 
L 483.655374 286.722611 
L 478.869812 283.591912 
L 473.743116 279.812058 
L 467.648663 275.821811 
L 447.758825 260.292397 
L 428.131491 246.255505 
L 408.495689 232.232999 
" clip-path="url(#p6e27f7f9d8)" style="fill: none; stroke: #e6482f; stroke-width: 0.2"/>
    <path d="M 420.291445 257.943924 
L 428.131491 246.255505 
" clip-path="url(#p6e27f7f9d8)" style="fill: none; stroke: #e6482f; stroke-width: 0.2"/>
    <path d="M 408.495689 232.232999 
L 400.34838 243.428706 
L 385.181199 264.662068 
" clip-path="url(#p6e27f7f9d8)" style="fill: none; stroke: #e6482f; stroke-width: 0.2"/>
    <path d="M 309.899335 277.776474 
L 325.462087 255.235808 
L 339.70385 233.51333 
L 353.724238 212.389659 
" clip-path="url(#p6e27f7f9d8)" style="fill: none; stroke: #e6482f; stroke-width: 0.2"/>
    <path d="M 289.046578 263.027488 
L 304.714574 241.20431 
L 319.689413 219.760556 
L 334.370296 198.892232 
" clip-path="url(#p6e27f7f9d8)" style="fill: none; stroke: #e6482f; stroke-width: 0.2"/>
    <path d="M 269.936995 249.630761 
L 284.949335 227.838153 
L 299.631427 206.12107 
L 313.919158 184.889506 
" clip-path="url(#p6e27f7f9d8)" style="fill: none; stroke: #e6482f; stroke-width: 0.2"/>
    <path d="M 428.731498 201.743304 
L 430.054909 202.630728 
" clip-path="url(#p6e27f7f9d8)" style="fill: none; stroke: #e6482f; stroke-width: 0.2"/>
    <path d="M 303.154065 159.779185 
L 304.395743 157.733624 
" clip-path="url(#p6e27f7f9d8)" style="fill: none; stroke: #e6482f; stroke-width: 0.2"/>
    <path d="M 276.815332 281.104976 
L 289.046578 263.027488 
" clip-path="url(#p6e27f7f9d8)" style="fill: none; stroke: #e6482f; stroke-width: 0.2"/>
    <path d="M 212.051784 208.57384 
L 204.879237 219.929115 
" clip-path="url(#p6e27f7f9d8)" style="fill: none; stroke: #e6482f; stroke-width: 0.2"/>
    <path d="M 328.575847 289.238318 
L 326.046371 288.587363 
L 322.043483 286.411519 
L 309.899335 277.776474 
L 289.046578 263.027488 
L 269.936995 249.630761 
L 250.477809 235.987678 
L 229.95046 221.596537 
L 220.756763 215.027646 
L 212.051784 208.57384 
L 209.823522 206.996802 
L 205.2799 203.560407 
L 188.604227 192.754913 
L 167.900263 179.338406 
L 146.601127 166.364261 
L 124.976584 153.713795 
L 100.267313 138.570998 
L 82.169036 127.614454 
L 53.193164 109.558544 
L 51.61088 108.258432 
" clip-path="url(#p6e27f7f9d8)" style="fill: none; stroke: #e6482f; stroke-width: 0.5"/>
    <path d="M 250.477809 235.987678 
L 265.116352 214.427041 
L 279.57707 192.580486 
L 294.250695 171.289581 
L 300.21692 163.724476 
L 303.154065 159.779185 
" clip-path="url(#p6e27f7f9d8)" style="fill: none; stroke: #e6482f; stroke-width: 0.2"/>
    <path d="M 209.823522 206.996802 
L 224.327789 186.094313 
" clip-path="url(#p6e27f7f9d8)" style="fill: none; stroke: #e6482f; stroke-width: 0.2"/>
    <path d="M 53.023806 96.638345 
L 75.583446 102.80983 
L 94.007131 107.458225 
L 110.439655 112.214512 
L 115.427236 114.266279 
L 128.787129 122.011206 
L 141.607498 130.455639 
L 161.216687 143.480134 
L 182.692437 157.416327 
L 202.9222 172.368512 
L 224.327789 186.094313 
L 245.549503 200.363175 
L 265.116352 214.427041 
L 284.949335 227.838153 
L 304.714574 241.20431 
L 325.462087 255.235808 
L 354.212956 274.678144 
L 360.647334 278.83023 
L 366.980098 282.915782 
L 371.990663 283.136963 
L 373.595931 284.208701 
L 381.364605 285.58254 
" clip-path="url(#p6e27f7f9d8)" style="fill: none; stroke: #e6482f; stroke-width: 0.2"/>
    <path d="M 229.95046 221.596537 
L 245.549503 200.363175 
L 252.456873 189.401236 
L 260.191676 178.77916 
L 274.329405 158.020528 
" clip-path="url(#p6e27f7f9d8)" style="fill: none; stroke: #e6482f; stroke-width: 0.2"/>
    <path d="M 521.168078 333.519445 
L 518.798281 331.095446 
L 513.779248 326.851651 
L 508.249723 322.814651 
L 502.8327 318.477348 
L 496.520501 313.503476 
L 490.111526 309.18955 
L 478.675051 300.576085 
L 477.095187 299.889165 
L 458.383594 285.81451 
L 439.525627 272.273926 
L 420.291445 257.943924 
L 400.34838 243.428706 
L 353.724238 212.389659 
L 334.370296 198.892232 
L 313.919158 184.889506 
L 294.250695 171.289581 
L 274.329405 158.020528 
L 252.242757 142.11169 
L 231.775893 128.876803 
L 211.719117 114.120624 
L 192.151058 99.029975 
L 177.583887 87.794707 
L 171.220881 85.80408 
L 158.950924 82.272379 
L 145.595869 80.001229 
L 135.236024 81.245596 
L 126.808065 80.366267 
L 111.784838 74.95363 
L 99.730207 70.828517 
L 87.494122 67.073837 
L 88.438896 64.097786 
L 89.57964 61.13612 
L 89.704239 60.238809 
L 89.347378 59.443997 
L 88.471557 58.940496 
L 75.44433 52.276299 
L 71.696689 50.443914 
L 67.959935 48.291447 
L 54.603671 41.186686 
" clip-path="url(#p6e27f7f9d8)" style="fill: none; stroke: #e6482f; stroke-width: 0.2"/>
    <path d="M 411.124361 288.821131 
L 408.541658 285.846878 
L 404.636756 281.227255 
L 400.217733 275.949485 
L 392.951083 269.982996 
L 385.181199 264.662068 
L 383.988438 263.843879 
L 339.70385 233.51333 
L 319.689413 219.760556 
L 299.631427 206.12107 
L 279.57707 192.580486 
L 260.191676 178.77916 
L 236.759845 162.694097 
L 217.470017 149.545525 
L 196.966862 135.397143 
L 176.986297 121.610203 
L 156.965811 108.242248 
L 139.253428 97.413377 
L 129.031488 92.57617 
L 107.054923 87.316381 
L 83.567446 81.41283 
L 60.174325 75.225161 
L 57.909772 74.626354 
L 45.583149 70.830343 
" clip-path="url(#p6e27f7f9d8)" style="fill: none; stroke: #e6482f; stroke-width: 0.2"/>
    <path d="M 188.604227 192.754913 
L 202.9222 172.368512 
L 217.470017 149.545525 
L 231.775893 128.876803 
" clip-path="url(#p6e27f7f9d8)" style="fill: none; stroke: #e6482f; stroke-width: 0.2"/>
    <path d="M 236.759845 162.694097 
L 252.242757 142.11169 
L 258.919075 131.426677 
" clip-path="url(#p6e27f7f9d8)" style="fill: none; stroke: #e6482f; stroke-width: 0.2"/>
    <path d="M 211.719117 114.120624 
L 196.966862 135.397143 
L 182.692437 157.416327 
L 167.900263 179.338406 
" clip-path="url(#p6e27f7f9d8)" style="fill: none; stroke: #e6482f; stroke-width: 0.2"/>
    <path d="M 100.267313 138.570998 
L 100.601391 139.814152 
" clip-path="url(#p6e27f7f9d8)" style="fill: none; stroke: #e6482f; stroke-width: 0.2"/>
    <path d="M 146.601127 166.364261 
L 161.216687 143.480134 
L 176.986297 121.610203 
L 192.151058 99.029975 
" clip-path="url(#p6e27f7f9d8)" style="fill: none; stroke: #e6482f; stroke-width: 0.2"/>
    <path d="M 446.826148 179.489457 
L 456.508563 185.382218 
L 463.121977 188.298928 
L 475.631453 198.609912 
L 503.297224 221.067861 
L 503.700053 221.395137 
L 514.382887 230.69732 
L 528.780701 243.624712 
" clip-path="url(#p6e27f7f9d8)" style="fill: none; stroke: #e6482f; stroke-width: 0.2"/>
    <path d="M 475.631453 198.609912 
L 464.156268 214.961111 
L 456.324689 224.453906 
" clip-path="url(#p6e27f7f9d8)" style="fill: none; stroke: #e6482f; stroke-width: 0.2"/>
    <path d="M 459.258204 166.19343 
L 528.950058 221.098431 
L 537.344146 227.625963 
L 543.200289 230.060751 
L 560.292098 238.035849 
" clip-path="url(#p6e27f7f9d8)" style="fill: none; stroke: #e6482f; stroke-width: 0.2"/>
    <path d="M 560.953936 225.35397 
L 560.610248 226.554225 
" clip-path="url(#p6e27f7f9d8)" style="fill: none; stroke: #e6482f; stroke-width: 0.2"/>
    <path d="M 495.239639 175.148988 
L 494.812409 176.889233 
" clip-path="url(#p6e27f7f9d8)" style="fill: none; stroke: #e6482f; stroke-width: 0.2"/>
    <path d="M 467.591807 157.72562 
L 465.484715 156.274492 
" clip-path="url(#p6e27f7f9d8)" style="fill: none; stroke: #e6482f; stroke-width: 0.2"/>
    <path d="M 124.976584 153.713795 
L 129.809323 148.236422 
L 141.607498 130.455639 
L 156.965811 108.242248 
L 171.220881 85.80408 
" clip-path="url(#p6e27f7f9d8)" style="fill: none; stroke: #e6482f; stroke-width: 0.2"/>
    <path d="M 51.61088 108.258432 
L 51.03032 109.60514 
" clip-path="url(#p6e27f7f9d8)" style="fill: none; stroke: #e6482f; stroke-width: 0.2"/>
    <path d="M 135.236024 81.245596 
L 129.031488 92.57617 
L 115.427236 114.266279 
L 100.267313 138.570998 
" clip-path="url(#p6e27f7f9d8)" style="fill: none; stroke: #e6482f; stroke-width: 0.2"/>
    <path d="M 82.169036 127.614454 
L 94.007131 107.458225 
L 107.054923 87.316381 
L 111.784838 74.95363 
" clip-path="url(#p6e27f7f9d8)" style="fill: none; stroke: #e6482f; stroke-width: 0.2"/>
    <path d="M 57.909772 74.626354 
L 53.023806 96.638345 
L 51.140308 107.763922 
" clip-path="url(#p6e27f7f9d8)" style="fill: none; stroke: #e6482f; stroke-width: 0.2"/>
    <path d="M 51.61088 108.258432 
L 51.140308 107.763922 
L 50.273873 106.719391 
" clip-path="url(#p6e27f7f9d8)" style="fill: none; stroke: #e6482f; stroke-width: 0.5"/>
    <path d="M 87.494122 67.073837 
L 83.567446 81.41283 
L 75.583446 102.80983 
" clip-path="url(#p6e27f7f9d8)" style="fill: none; stroke: #e6482f; stroke-width: 0.2"/>
    <path d="M 532.863064 576.178345 
L 522.164868 567.147567 
L 521.264853 563.756127 
L 521.764458 559.454789 
L 523.980623 555.198406 
L 540.492987 525.876658 
L 546.299533 523.524589 
L 551.036706 523.921995 
L 554.521843 524.937988 
L 559.000142 523.414897 
" clip-path="url(#p6e27f7f9d8)" style="fill: none; stroke: #e6482f; stroke-width: 0.2"/>
    <path d="M 609.711514 566.797062 
L 592.42407 571.056894 
L 586.477199 570.23331 
L 581.352923 571.844513 
L 579.597013 573.334979 
" clip-path="url(#p6e27f7f9d8)" style="fill: none; stroke: #e6482f; stroke-width: 0.2"/>
    <path d="M 575.343376 569.300212 
L 575.265727 568.208516 
L 576.407681 564.673219 
L 574.664508 548.829117 
L 580.952513 536.736099 
L 586.298164 531.251533 
L 584.908222 524.002915 
" clip-path="url(#p6e27f7f9d8)" style="fill: none; stroke: #e6482f; stroke-width: 0.2"/>
    <path d="M 589.65116 505.079258 
L 589.062322 504.8411 
" clip-path="url(#p6e27f7f9d8)" style="fill: none; stroke: #e6482f; stroke-width: 0.2"/>
    <path d="M 587.7123 490.440968 
L 587.056644 493.226408 
L 586.921158 495.634222 
L 587.954239 500.751952 
L 589.062322 504.8411 
L 589.223211 507.461104 
L 588.821592 508.750427 
L 587.937304 509.919269 
L 586.242518 510.825571 
L 583.737236 512.287522 
L 582.730768 512.823391 
L 582.064225 513.850174 
" clip-path="url(#p6e27f7f9d8)" style="fill: none; stroke: #e6482f; stroke-width: 0.2"/>
    <path d="M 586.179614 487.107071 
L 650.880258 484.620135 
" clip-path="url(#p6e27f7f9d8)" style="fill: none; stroke: #e6482f; stroke-width: 0.2"/>
    <path d="M 606.030742 467.535262 
L 606.416635 465.9834 
L 606.221874 463.71225 
L 605.865013 461.374566 
L 604.909352 448.932694 
" clip-path="url(#p6e27f7f9d8)" style="fill: none; stroke: #e6482f; stroke-width: 0.2"/>
    <path d="M 618.362393 467.148645 
L 617.265198 447.972445 
" clip-path="url(#p6e27f7f9d8)" style="fill: none; stroke: #e6482f; stroke-width: 0.2"/>
    <path d="M 674.017872 560.45481 
L 672.628191 558.309324 
L 668.187393 551.013952 
L 667.979325 550.686676 
L 662.686901 542.337549 
L 658.420299 535.610414 
L 653.080697 528.262894 
L 647.24028 521.328964 
L 642.161902 518.592894 
" clip-path="url(#p6e27f7f9d8)" style="fill: none; stroke: #e6482f; stroke-width: 0.5"/>
    <path d="M 636.914229 516.047169 
L 592.177292 494.902347 
L 589.659912 493.08255 
L 587.7123 490.440968 
L 586.179614 487.107071 
" clip-path="url(#p6e27f7f9d8)" style="fill: none; stroke: #e6482f; stroke-width: 0.5"/>
    <path d="M 668.187393 551.013952 
L 670.285007 546.011309 
L 667.693836 542.330356 
L 662.686901 542.337549 
" clip-path="url(#p6e27f7f9d8)" style="fill: none; stroke: #e6482f; stroke-width: 0.2"/>
    <path d="M 658.420299 535.610414 
L 655.477106 528.635125 
L 653.489574 521.649047 
" clip-path="url(#p6e27f7f9d8)" style="fill: none; stroke: #e6482f; stroke-width: 0.2"/>
    <path d="M 653.489574 521.649047 
L 652.131085 522.193907 
L 649.746772 522.325177 
L 647.24028 521.328964 
" clip-path="url(#p6e27f7f9d8)" style="fill: none; stroke: #e6482f; stroke-width: 0.2"/>
    <path d="M 692.413995 518.640628 
L 652.02947 508.840338 
" clip-path="url(#p6e27f7f9d8)" style="fill: none; stroke: #e6482f; stroke-width: 0.2"/>
    <path d="M 635.035647 507.799169 
L 651.952049 507.218345 
" clip-path="url(#p6e27f7f9d8)" style="fill: none; stroke: #e6482f; stroke-width: 0.2"/>
    <path d="M 702.657709 497.890986 
L 650.937114 485.819546 
" clip-path="url(#p6e27f7f9d8)" style="fill: none; stroke: #e6482f; stroke-width: 0.2"/>
    <path d="M 710.246138 481.649478 
L 672.809645 472.05958 
L 650.021373 466.519269 
L 618.362393 467.148645 
L 606.030742 467.535262 
L 583.601749 468.731078 
" clip-path="url(#p6e27f7f9d8)" style="fill: none; stroke: #e6482f; stroke-width: 0.2"/>
    <path d="M 672.628191 558.309324 
L 679.835565 545.164348 
L 685.100167 533.803205 
L 692.413995 518.640628 
L 702.657709 497.890986 
L 710.246138 481.649478 
L 718.578531 464.391977 
L 726.791164 447.506707 
L 732.482788 436.309201 
L 734.453385 432.818859 
L 735.866311 430.720338 
L 737.701421 429.288957 
L 739.651453 427.535694 
L 742.868037 424.64236 
L 745.015249 421.387585 
L 747.023346 415.836485 
L 747.96812 409.093167 
L 747.723761 404.917704 
L 746.660437 402.633966 
L 743.527322 397.066682 
L 741.519225 393.499017 
L 740.032507 390.857434 
L 738.187719 387.579282 
L 736.58729 384.804631 
L 732.894085 379.997994 
L 729.454917 374.321019 
L 726.858907 369.388506 
L 725.456868 366.207457 
L 725.52824 364.330117 
" clip-path="url(#p6e27f7f9d8)" style="fill: none; stroke: #e6482f; stroke-width: 0.2"/>
    <path d="M 718.578531 464.391977 
L 708.470303 461.759385 
L 678.353686 453.917355 
L 649.063293 446.337865 
L 617.265198 447.972445 
L 604.909352 448.932694 
L 600.72743 448.889536 
L 583.076741 449.215014 
L 565.919608 449.099928 
" clip-path="url(#p6e27f7f9d8)" style="fill: none; stroke: #e6482f; stroke-width: 0.2"/>
    <path d="M 552.208554 570.681587 
L 552.054061 569.118414 
L 553.766992 565.511188 
L 555.050481 563.655427 
L 555.327501 562.69338 
" clip-path="url(#p6e27f7f9d8)" style="fill: none; stroke: #e6482f; stroke-width: 0.2"/>
    <path d="M 551.056061 541.629051 
L 555.067417 536.01861 
L 555.297259 545.782935 
L 555.327501 562.69338 
L 556.509375 565.43926 
L 560.618716 567.74997 
L 565.359789 568.440205 
" clip-path="url(#p6e27f7f9d8)" style="fill: none; stroke: #e6482f; stroke-width: 0.2"/>
    <path d="M 543.536585 547.088442 
L 551.056061 541.629051 
L 550.766944 544.353351 
L 551.555666 546.642483 
" clip-path="url(#p6e27f7f9d8)" style="fill: none; stroke: #e6482f; stroke-width: 0.2"/>
    <path d="M 555.067417 536.01861 
L 556.776718 532.075117 
L 557.460197 528.252105 
L 559.000142 523.414897 
L 563.030852 519.018253 
L 567.690605 517.516741 
L 570.872108 516.232813 
L 576.058079 514.594636 
L 582.064225 513.850174 
" clip-path="url(#p6e27f7f9d8)" style="fill: none; stroke: #e6482f; stroke-width: 0.2"/>
    <path d="M 582.014627 421.711265 
L 580.262986 417.686852 
L 567.895044 400.542638 
L 565.750251 398.552011 
L 562.947383 396.626119 
L 553.462149 390.440248 
L 545.516859 385.621023 
" clip-path="url(#p6e27f7f9d8)" style="fill: none; stroke: #e6482f; stroke-width: 0.5"/>
    <path d="M 527.445195 376.304453 
L 526.30687 384.139291 
L 516.522841 401.87332 
L 505.091204 410.666608 
" clip-path="url(#p6e27f7f9d8)" style="fill: none; stroke: #e6482f; stroke-width: 0.2"/>
    <path d="M 553.462149 390.440248 
L 562.024384 391.589309 
" clip-path="url(#p6e27f7f9d8)" style="fill: none; stroke: #e6482f; stroke-width: 0.2"/>
    <path d="M 545.516859 385.621023 
L 544.345872 384.808228 
" clip-path="url(#p6e27f7f9d8)" style="fill: none; stroke: #e6482f; stroke-width: 0.5"/>
    <path d="M 544.345872 384.808228 
L 540.468793 382.400414 
" clip-path="url(#p6e27f7f9d8)" style="fill: none; stroke: #e6482f; stroke-width: 0.5"/>
    <path d="M 586.179614 487.107071 
L 585.034031 483.505239 
L 584.404988 479.579729 
L 583.627153 469.883736 
L 583.601749 468.731078 
L 583.564249 467.445351 
L 583.076741 449.215014 
L 582.427134 424.446355 
L 582.014627 421.711265 
" clip-path="url(#p6e27f7f9d8)" style="fill: none; stroke: #e6482f; stroke-width: 0.5"/>
    <path d="M 567.676088 348.7036 
L 565.303873 369.253639 
L 563.976835 380.161632 
L 563.242549 388.145721 
L 562.024384 391.589309 
L 562.947383 396.626119 
L 562.501005 398.751613 
L 562.569957 402.029765 
L 563.051417 412.671621 
L 563.457875 418.916833 
L 564.028852 423.02756 
L 565.014755 436.357753 
L 565.919608 449.099928 
L 566.183322 459.49363 
L 566.730105 470.255967 
L 568.259162 478.946756 
L 569.761606 483.801945 
L 573.094321 492.341684 
L 578.658928 503.79094 
L 581.298486 510.651143 
L 582.179146 512.416994 
L 582.064225 513.850174 
L 584.908222 524.002915 
" clip-path="url(#p6e27f7f9d8)" style="fill: none; stroke: #e6482f; stroke-width: 0.2"/>
    <path d="M 604.095226 402.759842 
L 601.781076 424.142456 
L 601.092758 434.581113 
L 600.72743 448.889536 
" clip-path="url(#p6e27f7f9d8)" style="fill: none; stroke: #e6482f; stroke-width: 0.2"/>
    <path d="M 648.170537 427.503326 
L 601.781076 424.142456 
L 582.014627 421.711265 
" clip-path="url(#p6e27f7f9d8)" style="fill: none; stroke: #e6482f; stroke-width: 0.2"/>
    <path d="M 647.188263 406.820219 
L 627.326248 405.619009 
L 604.095226 402.759842 
" clip-path="url(#p6e27f7f9d8)" style="fill: none; stroke: #e6482f; stroke-width: 0.2"/>
    <path d="M 604.095226 402.759842 
L 605.031532 391.868033 
" clip-path="url(#p6e27f7f9d8)" style="fill: none; stroke: #e6482f; stroke-width: 0.2"/>
    <path d="M 646.648738 395.432102 
L 641.278893 395.031099 
L 621.875353 393.585332 
L 605.031532 391.868033 
L 580.922271 389.512367 
L 563.242549 388.145721 
" clip-path="url(#p6e27f7f9d8)" style="fill: none; stroke: #e6482f; stroke-width: 0.2"/>
    <path d="M 583.829173 373.382349 
L 602.479071 375.599552 
" clip-path="url(#p6e27f7f9d8)" style="fill: none; stroke: #e6482f; stroke-width: 0.2"/>
    <path d="M 586.823173 354.382374 
L 583.829173 373.382349 
L 580.922271 389.512367 
" clip-path="url(#p6e27f7f9d8)" style="fill: none; stroke: #e6482f; stroke-width: 0.2"/>
    <path d="M 644.84387 361.514108 
L 643.331749 361.548274 
L 612.959886 361.186832 
L 606.525508 361.30012 
L 595.49549 357.872715 
L 590.26718 355.155608 
L 586.823173 354.382374 
" clip-path="url(#p6e27f7f9d8)" style="fill: none; stroke: #e6482f; stroke-width: 0.2"/>
    <path d="M 711.465513 443.49668 
L 708.470303 461.759385 
" clip-path="url(#p6e27f7f9d8)" style="fill: none; stroke: #e6482f; stroke-width: 0.2"/>
    <path d="M 726.791164 447.506707 
L 711.465513 443.49668 
L 683.190055 436.104204 
L 648.091906 425.865149 
" clip-path="url(#p6e27f7f9d8)" style="fill: none; stroke: #e6482f; stroke-width: 0.2"/>
    <path d="M 672.809645 472.05958 
L 678.353686 453.917355 
L 683.190055 436.104204 
L 688.794581 413.221876 
L 690.845018 401.29789 
L 691.711161 398.325435 
L 691.965197 396.158582 
L 692.203507 394.126595 
L 692.268831 388.122344 
L 692.066812 380.179614 
L 691.897454 375.416134 
L 691.159539 366.142722 
" clip-path="url(#p6e27f7f9d8)" style="fill: none; stroke: #e6482f; stroke-width: 0.2"/>
    <path d="M 739.651453 427.535694 
L 734.834439 423.899696 
L 688.794581 413.221876 
L 646.974146 402.188008 
" clip-path="url(#p6e27f7f9d8)" style="fill: none; stroke: #e6482f; stroke-width: 0.2"/>
    <path d="M 653.489574 521.649047 
L 652.321007 514.986648 
L 652.02947 508.840338 
L 651.952049 507.218345 
L 650.937114 485.819546 
L 650.880258 484.620135 
L 650.021373 466.519269 
L 649.063293 446.337865 
L 648.170537 427.503326 
L 648.091906 425.865149 
L 647.188263 406.820219 
L 646.974146 402.188008 
L 646.648738 395.432102 
L 646.307603 389.453026 
L 645.815257 380.104089 
L 645.066454 368.392293 
L 644.84387 361.514108 
L 643.553123 333.954613 
L 642.269635 308.112418 
L 641.974469 302.108167 
L 641.605511 290.322644 
L 641.853499 286.963572 
L 641.486961 282.975124 
" clip-path="url(#p6e27f7f9d8)" style="fill: none; stroke: #e6482f; stroke-width: 0.2"/>
    <path d="M 743.347077 405.644184 
L 733.404578 402.794008 
L 720.535821 399.104064 
L 714.472819 397.46229 
" clip-path="url(#p6e27f7f9d8)" style="fill: none; stroke: #e6482f; stroke-width: 0.2"/>
    <path d="M 734.369916 399.104064 
L 733.404578 402.794008 
" clip-path="url(#p6e27f7f9d8)" style="fill: none; stroke: #e6482f; stroke-width: 0.2"/>
    <path d="M 725.407271 396.530813 
L 734.369916 399.104064 
L 746.660437 402.633966 
" clip-path="url(#p6e27f7f9d8)" style="fill: none; stroke: #e6482f; stroke-width: 0.2"/>
    <path d="M 720.535821 399.104064 
L 721.595515 395.207325 
L 722.61408 391.461636 
" clip-path="url(#p6e27f7f9d8)" style="fill: none; stroke: #e6482f; stroke-width: 0.2"/>
    <path d="M 715.613564 393.524192 
L 721.595515 395.207325 
" clip-path="url(#p6e27f7f9d8)" style="fill: none; stroke: #e6482f; stroke-width: 0.2"/>
    <path d="M 618.138599 336.892902 
L 614.374022 339.543476 
L 604.806528 346.461222 
" clip-path="url(#p6e27f7f9d8)" style="fill: none; stroke: #e6482f; stroke-width: 0.2"/>
    <path d="M 617.805932 336.272517 
L 613.020371 336.425365 
L 600.20726 336.986409 
L 586.63325 337.536664 
" clip-path="url(#p6e27f7f9d8)" style="fill: none; stroke: #e6482f; stroke-width: 0.2"/>
    <path d="M 586.823173 354.382374 
L 586.143323 351.722809 
L 586.63325 337.536664 
L 586.659863 335.697087 
L 586.478409 319.056374 
" clip-path="url(#p6e27f7f9d8)" style="fill: none; stroke: #e6482f; stroke-width: 0.2"/>
    <path d="M 600.206051 335.105473 
L 600.20726 336.986409 
" clip-path="url(#p6e27f7f9d8)" style="fill: none; stroke: #e6482f; stroke-width: 0.2"/>
    <path d="M 627.487137 334.904073 
L 627.483508 335.990197 
L 627.27665 337.02597 
L 626.807288 338.273934 
L 625.713721 339.921102 
L 624.576606 340.967665 
L 623.469734 341.647391 
L 622.349554 342.09335 
L 620.947515 342.377468 
L 619.223697 342.352293 
L 617.173261 341.764276 
L 615.711947 340.886745 
L 614.374022 339.543476 
L 613.484894 338.043762 
L 613.020371 336.425365 
L 612.941741 334.53364 
L 613.607074 331.845303 
L 614.734511 330.171162 
L 616.492201 328.73978 
L 618.529331 327.926986 
L 619.799513 327.80111 
" clip-path="url(#p6e27f7f9d8)" style="fill: none; stroke: #e6482f; stroke-width: 0.2"/>
    <path d="M 617.752706 334.339432 
L 612.941741 334.53364 
L 600.206051 335.105473 
L 586.659863 335.697087 
" clip-path="url(#p6e27f7f9d8)" style="fill: none; stroke: #e6482f; stroke-width: 0.2"/>
    <path d="M 619.93137 332.828929 
L 619.799513 327.80111 
" clip-path="url(#p6e27f7f9d8)" style="fill: none; stroke: #e6482f; stroke-width: 0.2"/>
    <path d="M 622.555203 335.101877 
L 627.487137 334.904073 
L 640.065567 334.404168 
L 638.427637 308.971966 
" clip-path="url(#p6e27f7f9d8)" style="fill: none; stroke: #e6482f; stroke-width: 0.2"/>
    <path d="M 716.649064 389.742539 
L 722.61408 391.461636 
L 742.793036 397.278872 
L 743.527322 397.066682 
" clip-path="url(#p6e27f7f9d8)" style="fill: none; stroke: #e6482f; stroke-width: 0.2"/>
    <path d="M 717.685775 386.115533 
L 741.519225 393.499017 
" clip-path="url(#p6e27f7f9d8)" style="fill: none; stroke: #e6482f; stroke-width: 0.2"/>
    <path d="M 711.67479 398.032326 
L 716.757937 381.413192 
L 738.187719 387.579282 
" clip-path="url(#p6e27f7f9d8)" style="fill: none; stroke: #e6482f; stroke-width: 0.2"/>
    <path d="M 718.008764 383.821006 
L 740.032507 390.857434 
" clip-path="url(#p6e27f7f9d8)" style="fill: none; stroke: #e6482f; stroke-width: 0.2"/>
    <path d="M 645.066454 368.392293 
L 647.137455 368.341943 
L 659.178779 367.485991 
L 691.159539 366.142722 
L 725.52824 364.330117 
" clip-path="url(#p6e27f7f9d8)" style="fill: none; stroke: #e6482f; stroke-width: 0.2"/>
    <path d="M 725.52824 364.330117 
L 726.005897 364.315326 
" clip-path="url(#p6e27f7f9d8)" style="fill: none; stroke: #e6482f; stroke-width: 0.2"/>
    <path d="M 723.762083 331.120621 
L 643.553123 333.954613 
" clip-path="url(#p6e27f7f9d8)" style="fill: none; stroke: #e6482f; stroke-width: 0.2"/>
    <path d="M 639.406282 289.083671 
L 640.388556 308.533201 
L 642.370039 349.888626 
L 643.331749 361.548274 
" clip-path="url(#p6e27f7f9d8)" style="fill: none; stroke: #e6482f; stroke-width: 0.2"/>
    <path d="M 648.485058 290.171593 
L 650.627431 327.743567 
" clip-path="url(#p6e27f7f9d8)" style="fill: none; stroke: #e6482f; stroke-width: 0.2"/>
    <path d="M 725.52824 364.330117 
L 724.458868 343.067984 
L 723.762083 331.120621 
L 722.897149 311.80416 
L 721.445513 287.918426 
L 720.936231 279.943327 
L 720.125734 267.249704 
L 720.264849 264.989344 
L 720.199525 262.676835 
L 714.293784 261.988117 
L 698.70079 259.743941 
L 675.076617 256.244608 
L 666.538576 253.279346 
L 639.844192 246.821944 
" clip-path="url(#p6e27f7f9d8)" style="fill: none; stroke: #e6482f; stroke-width: 0.2"/>
    <path d="M 642.269635 308.112418 
L 640.388556 308.533201 
L 638.427637 308.971966 
L 630.5888 310.727027 
L 618.876514 313.347031 
L 593.505539 319.025805 
L 589.939352 318.367657 
" clip-path="url(#p6e27f7f9d8)" style="fill: none; stroke: #e6482f; stroke-width: 0.2"/>
    <path d="M 588.178033 308.078252 
L 584.713461 308.797539 
L 586.478409 319.056374 
L 589.939352 318.367657 
" clip-path="url(#p6e27f7f9d8)" style="fill: none; stroke: #e6482f; stroke-width: 0.2"/>
    <path d="M 589.939352 318.367657 
L 588.178033 308.078252 
L 585.83485 295.607607 
L 585.469522 292.196387 
L 586.288487 289.214941 
" clip-path="url(#p6e27f7f9d8)" style="fill: none; stroke: #e6482f; stroke-width: 0.2"/>
    <path d="M 608.785222 304.147346 
L 608.001338 301.338529 
L 616.714785 299.529522 
" clip-path="url(#p6e27f7f9d8)" style="fill: none; stroke: #e6482f; stroke-width: 0.2"/>
    <path d="M 616.949467 301.022043 
L 629.437169 298.398442 
" clip-path="url(#p6e27f7f9d8)" style="fill: none; stroke: #e6482f; stroke-width: 0.2"/>
    <path d="M 618.876514 313.347031 
L 616.949467 301.022043 
L 616.714785 299.529522 
L 614.801045 287.384355 
L 614.524024 285.627496 
L 613.253842 277.560688 
" clip-path="url(#p6e27f7f9d8)" style="fill: none; stroke: #e6482f; stroke-width: 0.2"/>
    <path d="M 585.83485 295.607607 
L 587.856254 295.260551 
L 588.576024 292.710678 
L 587.988111 288.855298 
L 586.288487 289.214941 
" clip-path="url(#p6e27f7f9d8)" style="fill: none; stroke: #e6482f; stroke-width: 0.2"/>
    <path d="M 635.295731 283.154945 
L 614.801045 287.384355 
" clip-path="url(#p6e27f7f9d8)" style="fill: none; stroke: #e6482f; stroke-width: 0.2"/>
    <path d="M 594.236196 280.926953 
L 592.046644 284.073835 
L 592.50391 287.276462 
L 594.987418 288.97398 
" clip-path="url(#p6e27f7f9d8)" style="fill: none; stroke: #e6482f; stroke-width: 0.2"/>
    <path d="M 594.987418 288.97398 
L 614.524024 285.627496 
L 634.804594 281.423261 
L 638.832885 280.62665 
" clip-path="url(#p6e27f7f9d8)" style="fill: none; stroke: #e6482f; stroke-width: 0.2"/>
    <path d="M 492.194625 285.622101 
L 521.533406 270.932455 
L 522.527777 270.089091 
" clip-path="url(#p6e27f7f9d8)" style="fill: none; stroke: #e6482f; stroke-width: 0.2"/>
    <path d="M 522.527777 270.089091 
L 523.447147 269.308664 
L 529.008124 262.443067 
" clip-path="url(#p6e27f7f9d8)" style="fill: none; stroke: #e6482f; stroke-width: 0.2"/>
    <path d="M 503.498033 255.926323 
L 509.743699 248.201177 
" clip-path="url(#p6e27f7f9d8)" style="fill: none; stroke: #e6482f; stroke-width: 0.2"/>
    <path d="M 476.036702 236.759114 
L 486.556227 244.013127 
L 503.498033 255.926323 
" clip-path="url(#p6e27f7f9d8)" style="fill: none; stroke: #e6482f; stroke-width: 0.2"/>
    <path d="M 492.997864 236.030836 
L 486.556227 244.013127 
" clip-path="url(#p6e27f7f9d8)" style="fill: none; stroke: #e6482f; stroke-width: 0.2"/>
    <path d="M 560.292098 238.035849 
L 565.671621 237.861422 
L 573.447553 230.609207 
" clip-path="url(#p6e27f7f9d8)" style="fill: none; stroke: #e6482f; stroke-width: 0.2"/>
    <path d="M 435.852987 194.355328 
L 464.156268 214.961111 
L 491.589776 235.007649 
L 492.997864 236.030836 
L 509.743699 248.201177 
L 529.008124 262.443067 
" clip-path="url(#p6e27f7f9d8)" style="fill: none; stroke: #e6482f; stroke-width: 0.2"/>
    <path d="M 503.297224 221.067861 
L 491.589776 235.007649 
" clip-path="url(#p6e27f7f9d8)" style="fill: none; stroke: #e6482f; stroke-width: 0.2"/>
    <path d="M 543.200289 230.060751 
L 550.479036 220.0195 
" clip-path="url(#p6e27f7f9d8)" style="fill: none; stroke: #e6482f; stroke-width: 0.2"/>
    <path d="M 641.102277 278.001252 
L 640.843402 274.154863 
L 640.805901 273.162246 
L 640.775659 272.362039 
L 640.184117 256.953106 
L 640.001453 253.103121 
L 640.034115 250.707894 
L 639.844192 246.821944 
L 639.49459 244.178563 
L 636.273167 243.57616 
L 584.746123 232.959479 
L 578.304486 231.760067 
L 573.447553 230.609207 
L 567.776493 229.224579 
L 560.610248 226.554225 
L 556.206951 224.464695 
L 550.479036 220.0195 
L 507.190029 186.41979 
L 494.812409 176.889233 
L 490.403063 173.648843 
L 476.52421 163.300097 
L 472.703987 160.057909 
L 470.247092 158.439513 
L 467.591807 157.72562 
L 459.258204 166.19343 
L 454.663775 170.751914 
L 450.33185 175.064041 
L 446.826148 179.489457 
L 440.124427 188.617213 
L 435.852987 194.355328 
L 430.054909 202.630728 
L 408.495689 232.232999 
" clip-path="url(#p6e27f7f9d8)" style="fill: none; stroke: #e6482f; stroke-width: 0.2"/>
    <path d="M 721.445513 287.918426 
L 692.268831 289.123232 
L 673.680627 289.889273 
L 648.485058 290.171593 
L 644.127729 290.220145 
L 641.605511 290.322644 
" clip-path="url(#p6e27f7f9d8)" style="fill: none; stroke: #e6482f; stroke-width: 0.2"/>
    <path d="M 673.680627 289.889273 
L 673.205216 279.035227 
L 672.940292 273.007599 
" clip-path="url(#p6e27f7f9d8)" style="fill: none; stroke: #e6482f; stroke-width: 0.2"/>
    <path d="M 659.17394 274.073943 
L 672.940292 273.007599 
L 691.337364 271.579814 
L 691.621643 278.080373 
L 692.268831 289.123232 
" clip-path="url(#p6e27f7f9d8)" style="fill: none; stroke: #e6482f; stroke-width: 0.2"/>
    <path d="M 647.59835 280.369505 
L 673.205216 279.035227 
L 691.621643 278.080373 
L 698.116506 277.742308 
L 705.88518 278.84102 
L 707.846099 278.89137 
L 717.170444 279.134129 
L 720.936231 279.943327 
" clip-path="url(#p6e27f7f9d8)" style="fill: none; stroke: #e6482f; stroke-width: 0.2"/>
    <path d="M 707.846099 278.89137 
L 699.603224 261.725577 
L 698.70079 259.743941 
" clip-path="url(#p6e27f7f9d8)" style="fill: none; stroke: #e6482f; stroke-width: 0.2"/>
    <path d="M 720.199525 262.676835 
L 720.147872 261.067614 
" clip-path="url(#p6e27f7f9d8)" style="fill: none; stroke: #e6482f; stroke-width: 0.2"/>
    <path d="M 60.174325 75.225161 
L 67.959935 48.291447 
" clip-path="url(#p6e27f7f9d8)" style="fill: none; stroke: #e6482f; stroke-width: 0.2"/>
    <path d="M 171.564983 84.899315 
L 171.220881 85.80408 
" clip-path="url(#p6e27f7f9d8)" style="fill: none; stroke: #e6482f; stroke-width: 0.2"/>
    <path d="M 53.232186 40.49015 
L 54.603671 41.186686 
" clip-path="url(#p6e27f7f9d8)" style="fill: none; stroke: #e6482f; stroke-width: 0.2"/>
    <path d="M 641.486961 282.975124 
L 642.775288 282.48421 
L 643.583366 281.437647 
L 643.705545 279.928942 
L 643.168439 278.866195 
L 642.455928 278.292563 
L 641.102277 278.001252 
L 640.064357 278.310545 
L 639.183698 279.130533 
L 638.847402 279.914556 
L 638.832885 280.62665 
L 638.826837 280.964715 
L 639.059099 281.453831 
L 639.360313 282.0904 
L 640.390975 282.822275 
L 641.486961 282.975124 
" clip-path="url(#p6e27f7f9d8)" style="fill: none; stroke: #e6482f; stroke-width: 0.2"/>
    <path d="M 640.805901 273.162246 
L 617.948676 276.798244 
L 613.253842 277.560688 
L 594.236196 280.926953 
" clip-path="url(#p6e27f7f9d8)" style="fill: none; stroke: #e6482f; stroke-width: 0.2"/>
    <path d="M 584.746123 232.959479 
L 577.441972 236.492978 
L 574.940319 238.167119 
L 573.315696 240.621687 
L 572.34189 244.802545 
L 572.038256 250.315882 
L 572.003175 253.250574 
L 572.216081 255.395849 
L 573.868527 258.087782 
L 577.596814 263.232484 
L 578.544006 266.142002 
L 580.517022 274.991034 
L 581.133968 283.131569 
L 580.761381 290.569 
" clip-path="url(#p6e27f7f9d8)" style="fill: none; stroke: #e6482f; stroke-width: 0.2"/>
    <path d="M 509.181378 186.204727 
L 507.190029 186.41979 
" clip-path="url(#p6e27f7f9d8)" style="fill: none; stroke: #e6482f; stroke-width: 0.2"/>
   </g>
   <g id="LineCollection_2">
    <path d="M 774.850328 302.569989 
L 762.562446 292.825583 
" clip-path="url(#p6e27f7f9d8)" style="fill: none; stroke-dasharray: 3.7,1.6; stroke-dashoffset: 0; stroke: #e6482f"/>
    <path d="M 720.773517 265.134733 
L 720.264849 264.989344 
L 716.199057 264.15497 
L 699.603224 261.725577 
L 682.45093 259.22965 
L 640.001453 253.103121 
L 637.520364 252.775845 
L 632.14689 252.214801 
L 628.243198 252.051163 
L 622.794723 252.090724 
L 575.881463 253.441186 
L 572.003175 253.250574 
L 567.651895 252.889133 
L 562.849397 252.02419 
L 557.497698 250.779822 
L 554.29684 249.821372 
L 549.109659 247.888287 
L 540.453067 243.896243 
L 535.60944 241.02269 
L 532.110997 238.634656 
L 528.966994 236.271797 
L 521.332596 230.163249 
L 517.40713 227.052332 
L 470.157574 189.600838 
L 464.188929 185.554847 
L 453.074233 176.696824 
" clip-path="url(#p6e27f7f9d8)" style="fill: none; stroke-dasharray: 3.7,1.6; stroke-dashoffset: 0; stroke: #e6482f"/>
    <path d="M 470.157574 189.600838 
L 477.611727 194.159322 
L 530.223869 236.129738 
L 533.677554 238.499789 
L 536.432034 240.035468 
L 539.052238 241.07304 
L 541.40026 241.817502 
L 543.609167 242.482843 
L 546.064852 243.07086 
L 548.251984 243.453881 
L 550.390728 243.709228 
L 554.302888 243.662474 
L 557.479552 243.407127 
L 560.178386 242.815513 
L 562.476811 242.177146 
L 565.542183 240.995717 
L 567.955528 239.785516 
L 569.887415 238.668822 
L 572.810043 236.609862 
L 578.304486 231.760067 
L 579.289954 230.821484 
" clip-path="url(#p6e27f7f9d8)" style="fill: none; stroke-dasharray: 3.7,1.6; stroke-dashoffset: 0; stroke: #e6482f"/>
    <path d="M 531.413001 240.292613 
L 535.247741 245.068681 
L 539.094577 251.677133 
L 540.404679 254.583054 
L 541.177676 256.226626 
L 544.787412 266.255289 
L 549.112078 278.907554 
L 562.23971 313.748034 
" clip-path="url(#p6e27f7f9d8)" style="fill: none; stroke-dasharray: 3.7,1.6; stroke-dashoffset: 0; stroke: #e6482f"/>
    <path d="M 559.079982 253.912319 
L 560.76388 255.640407 
L 562.903834 258.066203 
L 566.759138 262.975339 
L 568.291824 265.465872 
L 569.98419 268.92924 
L 571.150338 271.67512 
" clip-path="url(#p6e27f7f9d8)" style="fill: none; stroke-dasharray: 3.7,1.6; stroke-dashoffset: 0; stroke: #e6482f"/>
    <path d="M 536.629215 245.406746 
L 551.040335 262.335174 
L 553.048432 265.064869 
L 555.57186 268.832136 
L 560.052578 276.350487 
" clip-path="url(#p6e27f7f9d8)" style="fill: none; stroke-dasharray: 3.7,1.6; stroke-dashoffset: 0; stroke: #e6482f"/>
    <path d="M 521.332596 230.163249 
L 524.105222 232.847989 
L 525.890735 234.669584 
L 529.810153 238.611279 
L 531.413001 240.292613 
L 536.629215 245.406746 
L 541.12203 249.312476 
L 556.407761 260.170119 
L 558.817477 262.173334 
L 560.783235 263.878045 
L 562.79738 265.996346 
L 565.377664 268.69727 
L 567.755928 271.730864 
L 569.592249 274.028987 
L 570.677347 276.136499 
L 573.423359 283.76634 
" clip-path="url(#p6e27f7f9d8)" style="fill: none; stroke-dasharray: 3.7,1.6; stroke-dashoffset: 0; stroke: #e6482f"/>
    <path d="M 549.109659 247.888287 
L 553.102869 249.835758 
L 554.795235 250.785217 
L 557.437213 252.658961 
L 559.079982 253.912319 
L 560.813477 255.235808 
L 564.43773 257.661604 
L 568.461182 259.752932 
L 573.885463 261.991714 
L 577.596814 263.232484 
L 586.727607 265.49824 
" clip-path="url(#p6e27f7f9d8)" style="fill: none; stroke-dasharray: 3.7,1.6; stroke-dashoffset: 0; stroke: #e6482f"/>
    <path d="M 525.890735 234.669584 
L 528.450454 238.089796 
L 529.519826 239.877225 
L 536.096948 252.928693 
L 538.751023 259.154125 
" clip-path="url(#p6e27f7f9d8)" style="fill: none; stroke-dasharray: 3.7,1.6; stroke-dashoffset: 0; stroke: #e6482f"/>
    <path d="M 512.201803 223.817337 
L 505.752909 219.798319 
L 473.215688 193.974105 
L 468.015201 188.804228 
" clip-path="url(#p6e27f7f9d8)" style="fill: none; stroke-dasharray: 3.7,1.6; stroke-dashoffset: 0; stroke: #e6482f"/>
    <path d="M 517.40713 227.052332 
L 512.201803 223.817337 
L 473.773359 193.409465 
L 468.015201 188.804228 
L 464.188929 185.554847 
" clip-path="url(#p6e27f7f9d8)" style="fill: none; stroke-dasharray: 3.7,1.6; stroke-dashoffset: 0; stroke: #e6482f"/>
   </g>
  </g>
 </g>
 <defs>
  <clipPath id="p6e27f7f9d8">
   <rect x="7.2" y="7.2" width="837" height="597.652969"/>
  </clipPath>
 </defs>
</svg>
