<?xml version="1.0" encoding="utf-8" standalone="no"?>
<!DOCTYPE svg PUBLIC "-//W3C//DTD SVG 1.1//EN"
  "http://www.w3.org/Graphics/SVG/1.1/DTD/svg11.dtd">
<svg xmlns:xlink="http://www.w3.org/1999/xlink" width="459.616208pt" height="846pt" viewBox="0 0 459.616208 846" xmlns="http://www.w3.org/2000/svg" version="1.1">
 <metadata>
  <rdf:RDF xmlns:dc="http://purl.org/dc/elements/1.1/" xmlns:cc="http://creativecommons.org/ns#" xmlns:rdf="http://www.w3.org/1999/02/22-rdf-syntax-ns#">
   <cc:Work>
    <dc:type rdf:resource="http://purl.org/dc/dcmitype/StillImage"/>
    <dc:date>2025-03-16T14:38:39.460445</dc:date>
    <dc:format>image/svg+xml</dc:format>
    <dc:creator>
     <cc:Agent>
      <dc:title>Matplotlib v3.10.1, https://matplotlib.org/</dc:title>
     </cc:Agent>
    </dc:creator>
   </cc:Work>
  </rdf:RDF>
 </metadata>
 <defs>
  <style type="text/css">*{stroke-linejoin: round; stroke-linecap: butt}</style>
 </defs>
 <g id="figure_1">
  <g id="patch_1">
   <path d="M 0 846 
L 459.616208 846 
L 459.616208 0 
L 0 0 
z
" style="fill: #ffffff"/>
  </g>
  <g id="axes_1">
   <g id="PatchCollection_1">
    <path d="M 105.802569 801 
L 160.920461 763.630202 
L 152.533581 670.843948 
L 116.444042 663.404661 
L 130.487269 567.406659 
L 200.145464 527.725327 
L 163.879244 470.450654 
L 213.164107 426.274673 
L 203.01971 391.08799 
L 233.537438 360.13912 
L 282.822302 391.08799 
L 268.981962 470.779405 
L 263.97063 507.820452 
L 292.966699 580.633769 
L 358.313525 571.772889 
L 335.065947 501.271106 
L 372.853827 413.047562 
L 287.218207 360.13912 
L 301.673973 305.047562 
L 243.681835 278.593341 
L 281.385179 223.501784 
L 311.902907 234.545779 
L 364.146553 192.681332 
L 363.599601 166.139786 
L 386.459155 158.058407 
L 400.398402 148.305018 
L 414.75526 132.280951 
L 428.833993 122.38887 
L 432.179108 107.620737 
L 426.324945 98.425969 
L 416.288755 78.503115 
L 422.282403 63.317622 
L 415.870299 53.982878 
L 402.767964 57.188205 
L 396.262869 47.231914 
L 373.788803 74.678811 
L 372.853827 75.820452 
L 285.781084 45 
L 266.844876 84.552913 
L 232.015779 78.003567 
L 221.871381 122.05113 
L 255.263356 139.772889 
L 146.464695 285.271106 
L 115.946967 263.183115 
L 79.680746 311.725327 
L 46.288772 302.864447 
L 44.851649 384.410226 
L 94.221049 477 
L 27.4371 503.454221 
L 28.874223 556.362663 
L 97.095295 558.545779 
L 59.920306 759.568323 
L 105.802569 801 
" clip-path="url(#p16319d2fa5)" style="fill: #fbd6c9"/>
   </g>
   <g id="PatchCollection_2">
    <path d="M 129.0586 751.512628 
L 129.213302 754.174744 
L 127.864097 754.25308 
L 127.70855 751.592247 
L 129.0586 751.512628 
" clip-path="url(#p16319d2fa5)" style="fill: #e6482f"/>
    <path d="M 94.434081 747.674197 
L 94.449298 746.008609 
L 95.150107 744.495838 
L 96.411393 743.408133 
L 98.009136 742.938121 
L 99.417517 743.088371 
L 100.681339 743.726611 
L 101.63914 744.76937 
L 102.167494 746.083092 
L 102.198772 747.499548 
L 101.727903 748.836385 
L 100.699092 750.013983 
L 99.293248 750.699738 
L 97.731011 750.785779 
L 96.259228 750.257979 
L 95.106993 749.198526 
L 94.434081 747.674197 
" clip-path="url(#p16319d2fa5)" style="fill: #e6482f"/>
    <path d="M 111.665186 747.089893 
L 111.680402 745.424304 
L 112.380366 743.911534 
L 113.642498 742.823829 
L 115.24024 742.353817 
L 116.647775 742.504067 
L 117.912444 743.142307 
L 118.870244 744.185065 
L 119.398598 745.498787 
L 119.429031 746.915244 
L 118.959007 748.252081 
L 117.929351 749.429679 
L 116.523506 750.115434 
L 114.962115 750.201474 
L 113.489486 749.673674 
L 112.338097 748.614221 
L 111.665186 747.089893 
" clip-path="url(#p16319d2fa5)" style="fill: #e6482f"/>
    <path d="M 93.788221 738.656647 
L 93.803438 736.991058 
L 94.504247 735.478288 
L 95.765534 734.390583 
L 97.363276 733.920571 
L 98.771657 734.07082 
L 100.035479 734.709061 
L 100.99328 735.751819 
L 101.521634 737.065541 
L 101.552912 738.481998 
L 101.082043 739.818835 
L 100.053232 740.996433 
L 98.647388 741.682188 
L 97.085151 741.766944 
L 95.613368 741.239144 
L 94.461133 740.180975 
L 93.788221 738.656647 
" clip-path="url(#p16319d2fa5)" style="fill: #e6482f"/>
    <path d="M 110.924645 737.784685 
L 110.939861 736.117812 
L 111.64067 734.606326 
L 112.902802 733.518621 
L 114.500545 733.047325 
L 115.90808 733.198859 
L 117.172748 733.835815 
L 118.130548 734.879857 
L 118.658902 736.193579 
L 118.689335 737.610036 
L 118.219312 738.945589 
L 117.189655 740.124471 
L 115.783811 740.808942 
L 114.222419 740.894982 
L 112.749791 740.367182 
L 111.598402 739.309013 
L 110.924645 737.784685 
" clip-path="url(#p16319d2fa5)" style="fill: #e6482f"/>
    <path d="M 126.361881 729.946017 
L 127.574137 729.903639 
L 127.800695 736.343829 
L 126.587594 736.386207 
L 126.361881 729.946017 
" clip-path="url(#p16319d2fa5)" style="fill: #e6482f"/>
    <path d="M 118.183806 724.479239 
L 118.2396 726.07805 
L 113.678003 726.239857 
L 113.621363 724.639762 
L 118.183806 724.479239 
" clip-path="url(#p16319d2fa5)" style="fill: #e6482f"/>
    <path d="M 130.173638 721.036338 
L 130.299598 722.653127 
L 126.372025 722.960048 
L 126.24522 721.343258 
L 130.173638 721.036338 
" clip-path="url(#p16319d2fa5)" style="fill: #e6482f"/>
    <path d="M 117.815226 719.174269 
L 117.939495 720.824447 
L 111.680402 721.297027 
L 111.555288 719.648133 
L 117.815226 719.174269 
" clip-path="url(#p16319d2fa5)" style="fill: #e6482f"/>
    <path d="M 127.815066 715.134221 
L 127.909747 716.227063 
L 125.123419 716.467206 
L 125.029584 715.374364 
L 127.815066 715.134221 
" clip-path="url(#p16319d2fa5)" style="fill: #e6482f"/>
    <path d="M 128.301152 712.671153 
L 128.350183 713.634293 
L 124.978862 713.806373 
L 124.92983 712.843234 
L 128.301152 712.671153 
" clip-path="url(#p16319d2fa5)" style="fill: #e6482f"/>
    <path d="M 111.590793 708.489845 
L 111.672794 709.90887 
L 111.699 710.457218 
L 109.478223 710.544542 
L 109.40214 708.605422 
L 111.590793 708.489845 
" clip-path="url(#p16319d2fa5)" style="fill: #e6482f"/>
    <path d="M 117.922588 708.125137 
L 118.004588 709.544162 
L 111.672794 709.90887 
L 111.590793 708.489845 
L 117.922588 708.125137 
" clip-path="url(#p16319d2fa5)" style="fill: #e6482f"/>
    <path d="M 99.776797 490.2117 
L 102.120998 491.789964 
L 97.74031 498.296932 
L 95.396954 496.718668 
L 99.776797 490.2117 
" clip-path="url(#p16319d2fa5)" style="fill: #e6482f"/>
    <path d="M 108.985374 491.417551 
L 107.307322 493.861356 
L 101.623923 489.957432 
L 103.301975 487.513627 
L 108.985374 491.417551 
" clip-path="url(#p16319d2fa5)" style="fill: #e6482f"/>
    <path d="M 129.790687 759.044376 
L 129.835492 760.078145 
L 128.212388 760.150059 
L 128.166738 759.115006 
L 129.790687 759.044376 
" clip-path="url(#p16319d2fa5)" style="fill: #e6482f"/>
    <path d="M 142.239554 756.472152 
L 142.249698 757.725517 
L 135.715861 757.782021 
L 135.704871 756.528656 
L 142.239554 756.472152 
" clip-path="url(#p16319d2fa5)" style="fill: #e6482f"/>
    <path d="M 142.825392 751.183876 
L 142.903166 752.45522 
L 139.510711 752.661974 
L 139.432937 751.39063 
L 142.825392 751.183876 
" clip-path="url(#p16319d2fa5)" style="fill: #e6482f"/>
    <path d="M 137.563832 751.097836 
L 137.559605 752.532271 
L 133.435062 752.519429 
L 133.439289 751.084994 
L 137.563832 751.097836 
" clip-path="url(#p16319d2fa5)" style="fill: #e6482f"/>
    <path d="M 131.083253 743.763853 
L 131.184697 745.265065 
L 127.243598 745.530892 
L 127.143 744.029679 
L 131.083253 743.763853 
" clip-path="url(#p16319d2fa5)" style="fill: #e6482f"/>
    <path d="M 130.697766 735.867396 
L 130.883746 738.587301 
L 129.470293 738.684899 
L 129.284313 735.96371 
L 130.697766 735.867396 
" clip-path="url(#p16319d2fa5)" style="fill: #e6482f"/>
    <path d="M 129.470293 730.010226 
L 130.701147 729.963995 
L 130.838942 733.672723 
L 129.608088 733.718954 
L 129.470293 730.010226 
" clip-path="url(#p16319d2fa5)" style="fill: #e6482f"/>
    <path d="M 281.949883 500.888419 
L 282.933045 500.631581 
L 283.205253 501.67434 
L 282.221246 501.931177 
L 281.949883 500.888419 
" clip-path="url(#p16319d2fa5)" style="fill: #e6482f"/>
    <path d="M 175.464991 308.969465 
L 175.085421 308.594483 
L 175.260412 308.417265 
L 175.09472 308.254174 
L 175.814972 307.52604 
L 175.274783 306.993103 
L 175.724518 306.537218 
L 176.829412 307.627491 
L 178.476186 305.960618 
L 179.509224 306.978977 
L 175.039771 311.507015 
L 173.986445 310.468109 
L 175.464991 308.969465 
" clip-path="url(#p16319d2fa5)" style="fill: #e6482f"/>
    <path d="M 293.544084 532.327848 
L 294.209388 533.138169 
L 293.425733 533.781546 
L 292.760429 532.971225 
L 293.544084 532.327848 
" clip-path="url(#p16319d2fa5)" style="fill: #e6482f"/>
    <path d="M 297.617905 509.030155 
L 298.087929 508.986492 
L 298.246858 510.732985 
L 297.775989 510.775363 
L 297.617905 509.030155 
" clip-path="url(#p16319d2fa5)" style="fill: #e6482f"/>
    <path d="M 289.227643 507.079477 
L 290.329156 506.987015 
L 290.420455 508.076005 
L 289.318943 508.168466 
L 289.227643 507.079477 
" clip-path="url(#p16319d2fa5)" style="fill: #e6482f"/>
    <path d="M 296.166411 505.832533 
L 297.207057 505.634768 
L 297.728648 508.377788 
L 296.688002 508.575553 
L 296.166411 505.832533 
" clip-path="url(#p16319d2fa5)" style="fill: #e6482f"/>
    <path d="M 333.556968 94.043044 
L 333.873981 93.204471 
L 334.508851 93.543496 
L 334.191839 94.292176 
L 333.556968 94.043044 
" clip-path="url(#p16319d2fa5)" style="fill: #e6482f"/>
    <path d="M 332.989728 92.115482 
L 333.534144 92.365898 
L 333.171481 93.113294 
L 332.627065 92.819215 
L 332.989728 92.115482 
" clip-path="url(#p16319d2fa5)" style="fill: #e6482f"/>
    <path d="M 349.950314 86.019453 
L 350.381451 85.657313 
L 350.652814 85.997622 
L 351.061126 85.634197 
L 351.741646 86.495886 
L 350.970672 87.130273 
L 349.950314 86.019453 
" clip-path="url(#p16319d2fa5)" style="fill: #e6482f"/>
    <path d="M 170.65232 306.790202 
L 169.990398 306.036385 
L 171.675213 304.557004 
L 172.337135 305.309536 
L 170.65232 306.790202 
" clip-path="url(#p16319d2fa5)" style="fill: #e6482f"/>
    <path d="M 348.929957 85.112818 
L 349.269794 84.863686 
L 349.81421 85.430012 
L 349.474373 85.770321 
L 348.929957 85.112818 
" clip-path="url(#p16319d2fa5)" style="fill: #e6482f"/>
    <path d="M 409.977249 64.104828 
L 411.065236 65.286278 
L 409.351678 66.86069 
L 408.263691 65.679239 
L 409.977249 64.104828 
" clip-path="url(#p16319d2fa5)" style="fill: #e6482f"/>
    <path d="M 410.683975 59.58321 
L 412.203099 58.15648 
L 412.996898 59.131177 
L 411.522579 60.536076 
L 410.683975 59.58321 
" clip-path="url(#p16319d2fa5)" style="fill: #e6482f"/>
   </g>
   <g id="LineCollection_1">
    <path d="M 295.236508 535.881189 
L 294.32943 540.099738 
L 294.238975 541.823115 
L 294.692937 543.048228 
L 295.59917 544.408181 
L 297.186768 545.769417 
L 298.638262 547.628918 
" clip-path="url(#p16319d2fa5)" style="fill: none; stroke: #e6482f; stroke-width: 0.2"/>
    <path d="M 299.181833 510.753532 
L 305.259172 517.102545 
L 306.665017 519.869964 
L 306.755471 526.037907 
L 307.707353 531.798763 
L 309.793718 535.109394 
L 311.153912 542.36761 
L 311.607874 546.720999 
" clip-path="url(#p16319d2fa5)" style="fill: none; stroke: #e6482f; stroke-width: 0.2"/>
    <path d="M 290.701962 537.649512 
L 295.236508 535.881189 
L 299.544495 534.519952 
L 304.895665 531.435339 
L 303.490666 528.033532 
L 300.451573 522.499976 
L 299.771899 518.100357 
L 297.685534 514.653603 
L 296.597548 510.11786 
L 295.463066 507.396671 
L 295.554366 503.133175 
L 295.100404 501.273674 
L 291.653845 502.04547 
" clip-path="url(#p16319d2fa5)" style="fill: none; stroke: #e6482f; stroke-width: 0.2"/>
    <path d="M 295.100404 501.273674 
L 297.731184 500.003615 
" clip-path="url(#p16319d2fa5)" style="fill: none; stroke: #e6482f; stroke-width: 0.2"/>
    <path d="M 297.685534 514.653603 
L 299.181833 510.753532 
L 297.731184 500.95648 
L 297.731184 500.003615 
L 298.048197 495.060785 
L 298.449746 492.357574 
L 298.909625 489.254982 
L 301.449951 481.589679 
L 303.218458 478.959667 
L 305.491648 476.334792 
" clip-path="url(#p16319d2fa5)" style="fill: none; stroke: #e6482f; stroke-width: 0.2"/>
    <path d="M 297.186768 488.029869 
L 294.873846 489.663353 
L 291.789949 489.7083 
L 289.840534 489.073912 
L 285.849559 489.118859 
" clip-path="url(#p16319d2fa5)" style="fill: none; stroke: #e6482f; stroke-width: 0.2"/>
    <path d="M 298.449746 492.357574 
L 297.186768 488.029869 
L 297.685534 482.814792 
L 298.093846 478.959667 
L 295.59917 479.866302 
L 291.517741 477.915624 
" clip-path="url(#p16319d2fa5)" style="fill: none; stroke: #e6482f; stroke-width: 0.2"/>
    <path d="M 325.841309 440.038573 
L 328.690194 445.242093 
L 331.825658 452.371891 
L 335.520755 461.638573 
L 339.109335 470.155291 
L 343.635729 481.263197 
" clip-path="url(#p16319d2fa5)" style="fill: none; stroke: #e6482f; stroke-width: 0.2"/>
    <path d="M 308.208656 466.173032 
L 307.557724 468.324043 
L 307.444444 471.013127 
L 306.906791 473.193674 
L 305.491648 476.334792 
" clip-path="url(#p16319d2fa5)" style="fill: none; stroke: #e6482f; stroke-width: 0.2"/>
    <path d="M 311.566451 447.154245 
L 312.31291 450.490559 
L 312.794769 453.830725 
L 312.794769 456.237289 
L 309.511365 463.65346 
L 308.208656 466.173032 
" clip-path="url(#p16319d2fa5)" style="fill: none; stroke: #e6482f; stroke-width: 0.2"/>
    <path d="M 277.554823 450.480285 
L 282.99222 453.652224 
L 285.895209 455.602901 
L 288.525144 460.999049 
L 289.65878 461.045279 
" clip-path="url(#p16319d2fa5)" style="fill: none; stroke: #e6482f; stroke-width: 0.2"/>
    <path d="M 309.544335 426.503258 
L 310.869024 429.018977 
L 311.749896 431.661831 
L 311.199562 436.177027 
L 311.144613 441.683615 
L 311.915588 446.198811 
L 311.566451 447.154245 
L 310.926509 448.905874 
L 309.398086 451.367658 
L 303.974215 457.918288 
L 301.086443 461.543543 
L 299.952807 462.90478 
L 299.227483 464.128609 
L 298.774366 465.579738 
L 298.86482 467.303115 
" clip-path="url(#p16319d2fa5)" style="fill: none; stroke: #e6482f; stroke-width: 0.2"/>
    <path d="M 282.99222 453.652224 
L 285.395597 453.198906 
L 287.799819 450.160523 
L 288.207286 447.711581 
L 287.255403 446.033151 
L 285.759105 443.403139 
L 285.759105 441.498692 
L 286.348325 436.690702 
" clip-path="url(#p16319d2fa5)" style="fill: none; stroke: #e6482f; stroke-width: 0.2"/>
    <path d="M 302.931033 424.178882 
L 300.814235 431.475624 
L 300.814235 435.375696 
L 301.494755 439.18459 
L 302.628392 440.409703 
L 304.85086 440.818074 
" clip-path="url(#p16319d2fa5)" style="fill: none; stroke: #e6482f; stroke-width: 0.2"/>
    <path d="M 310.195267 426.731843 
L 312.461694 419.148728 
L 314.002797 413.441807 
L 316.623433 403.737218 
L 320.200179 390.666778 
L 322.415269 381.884998 
" clip-path="url(#p16319d2fa5)" style="fill: none; stroke: #e6482f; stroke-width: 0.2"/>
    <path d="M 292.140776 412.82283 
L 291.746835 407.899263 
L 291.530421 406.441712 
L 290.907386 402.257836 
L 289.695131 394.891748 
L 287.317115 383.608894 
L 283.680349 376.755196 
L 280.510224 372.978407 
L 273.609498 363.933888 
L 270.020072 358.339976 
L 267.968368 354.284518 
L 267.875378 349.52918 
L 271.325318 336.009275 
L 274.682268 322.723092 
L 277.246265 313.026207 
L 277.060284 311.861451 
" clip-path="url(#p16319d2fa5)" style="fill: none; stroke: #e6482f; stroke-width: 0.2"/>
    <path d="M 358.076017 447.549387 
L 334.375283 437.407277 
L 325.841309 440.038573 
L 320.951709 430.513769 
L 310.195267 426.731843 
L 309.544335 426.503258 
L 302.931033 424.178882 
L 297.73372 422.351486 
L 293.194102 417.864542 
L 292.140776 412.82283 
" clip-path="url(#p16319d2fa5)" style="fill: none; stroke: #e6482f; stroke-width: 0.2"/>
    <path d="M 338.107576 148.090559 
L 338.823601 149.394007 
L 339.73237 150.538216 
L 341.706301 151.051891 
L 344.035285 151.32799 
L 349.049154 152.1961 
L 355.523815 153.458454 
L 361.800661 154.248228 
L 364.800867 154.602663 
L 365.748522 154.682283 
L 366.112875 154.487087 
L 366.214319 153.228585 
L 366.741828 150.551058 
" clip-path="url(#p16319d2fa5)" style="fill: none; stroke: #e6482f; stroke-width: 0.2"/>
    <path d="M 397.923967 150.036398 
L 397.584177 149.418407 
L 394.26865 143.577931 
L 392.728392 140.341784 
L 392.215255 138.329465 
L 391.544034 136.119382 
L 390.122973 134.225208 
L 386.8066 131.147015 
L 385.267188 130.002806 
L 382.858739 130.002806 
L 378.871991 131.423115 
L 376.384078 131.06868 
L 374.414374 130.665446 
" clip-path="url(#p16319d2fa5)" style="fill: none; stroke: #e6482f; stroke-width: 0.2"/>
    <path d="M 378.927785 136.846231 
L 380.86621 137.081237 
" clip-path="url(#p16319d2fa5)" style="fill: none; stroke: #e6482f; stroke-width: 0.2"/>
    <path d="M 372.926529 129.558478 
L 374.414374 130.665446 
L 375.651145 132.703448 
L 377.155897 134.073674 
L 378.2591 135.242283 
L 378.927785 136.846231 
L 380.063958 137.615458 
L 380.833241 139.186017 
" clip-path="url(#p16319d2fa5)" style="fill: none; stroke: #e6482f; stroke-width: 0.2"/>
    <path d="M 371.226497 119.291415 
L 371.840233 121.175315 
L 372.575702 123.615268 
L 372.977251 125.820214 
L 372.943436 128.894554 
L 372.926529 129.558478 
L 372.910467 130.198002 
L 371.473344 132.93717 
L 370.436925 135.208894 
L 369.835024 138.918906 
L 369.166339 141.791629 
L 369.13337 142.7278 
L 369.567888 143.864304 
L 371.940832 144.56547 
" clip-path="url(#p16319d2fa5)" style="fill: none; stroke: #e6482f; stroke-width: 0.2"/>
    <path d="M 400.355288 121.810987 
L 399.719573 123.213317 
L 398.181851 125.152438 
L 396.276395 126.923329 
L 395.474142 129.128276 
L 394.170587 131.633722 
L 390.122973 134.225208 
" clip-path="url(#p16319d2fa5)" style="fill: none; stroke: #e6482f; stroke-width: 0.2"/>
    <path d="M 351.076948 203.15441 
L 350.109243 200.138597 
L 348.476841 198.597574 
L 347.433658 197.961902 
L 345.030282 196.920428 
L 342.717359 196.557004 
L 340.948853 195.741546 
L 337.32054 191.796528 
L 334.146189 189.076623 
L 328.568461 186.356718 
L 322.718525 183.093603 
L 320.632161 180.327467 
L 319.634629 178.922568 
" clip-path="url(#p16319d2fa5)" style="fill: none; stroke: #e6482f; stroke-width: 0.2"/>
    <path d="M 302.581797 231.172582 
L 301.404301 229.243377 
L 296.189236 222.851986 
L 292.288715 217.502069 
L 287.844624 211.200571 
L 283.944948 207.5278 
L 279.046895 205.71453 
L 275.419428 204.263401 
L 272.814854 202.382069 
" clip-path="url(#p16319d2fa5)" style="fill: none; stroke: #e6482f; stroke-width: 0.2"/>
    <path d="M 221.671029 288.507253 
L 223.106462 285.91962 
L 224.469192 283.462973 
L 228.245444 277.078002 
L 230.017332 272.788823 
L 231.602394 267.987253 
L 233.793584 260.576219 
L 235.798793 252.232866 
L 236.358426 248.177408 
L 237.794704 244.716528 
L 239.615623 240.930749 
L 241.532914 237.743401 
L 244.169612 233.789394 
L 246.398843 230.794673 
L 249.034696 228.470297 
L 251.671394 225.69132 
L 254.954797 221.977455 
L 259.221361 216.60956 
L 263.511596 211.530606 
L 268.256638 206.786825 
L 272.814854 202.382069 
L 273.28995 201.922331 
L 276.813437 198.30478 
L 282.2297 194.255743 
L 286.591791 190.685707 
L 287.912253 189.667348 
L 291.409534 186.971843 
L 295.220446 184.815696 
L 297.522379 183.133413 
L 303.872771 178.491082 
L 309.720171 173.459643 
L 311.468389 171.755529 
L 314.60977 168.691463 
L 318.180598 164.905684 
L 321.536703 162.726421 
L 324.963819 160.689703 
L 329.469622 157.742497 
L 333.999095 152.4478 
L 337.328993 148.91629 
L 338.107576 148.090559 
L 339.335893 146.787111 
L 343.625283 143.245327 
L 347.49537 138.911201 
L 348.986597 135.835577 
L 350.478668 132.946159 
" clip-path="url(#p16319d2fa5)" style="fill: none; stroke: #e6482f; stroke-width: 0.2"/>
    <path d="M 315.050206 198.98283 
L 327.105132 205.457693 
" clip-path="url(#p16319d2fa5)" style="fill: none; stroke: #e6482f; stroke-width: 0.2"/>
    <path d="M 287.912253 189.667348 
L 289.852369 189.260262 
L 291.614113 188.37931 
L 293.745281 188.313817 
L 308.161315 196.183306 
L 315.050206 198.98283 
L 316.829703 197.417408 
" clip-path="url(#p16319d2fa5)" style="fill: none; stroke: #e6482f; stroke-width: 0.2"/>
    <path d="M 311.468389 171.755529 
L 314.147355 175.7044 
L 317.41216 177.517669 
L 319.634629 178.922568 
" clip-path="url(#p16319d2fa5)" style="fill: none; stroke: #e6482f; stroke-width: 0.2"/>
    <path d="M 321.688024 146.476338 
L 319.854424 149.611034 
L 316.498319 153.509822 
L 316.36306 155.504162 
L 315.68254 158.813508 
L 312.870852 163.119382 
L 303.574357 172.457979 
L 300.808318 178.442283 
L 297.522379 183.133413 
" clip-path="url(#p16319d2fa5)" style="fill: none; stroke: #e6482f; stroke-width: 0.2"/>
    <path d="M 316.498319 153.509822 
L 312.605407 155.667253 
L 307.208587 158.613175 
L 303.127158 160.064304 
L 298.774366 161.651558 
L 295.100404 163.918145 
L 290.746767 166.319572 
" clip-path="url(#p16319d2fa5)" style="fill: none; stroke: #e6482f; stroke-width: 0.2"/>
    <path d="M 337.328993 148.91629 
L 332.840943 148.11239 
L 324.44899 146.853888 
L 321.688024 146.476338 
L 314.237809 145.45541 
L 309.85543 144.616837 
" clip-path="url(#p16319d2fa5)" style="fill: none; stroke: #e6482f; stroke-width: 0.2"/>
    <path d="M 309.85543 144.616837 
L 304.120464 144.383115 
L 295.541685 144.010702 
L 289.993545 143.916956 
L 285.56467 143.964471 
" clip-path="url(#p16319d2fa5)" style="fill: none; stroke: #e6482f; stroke-width: 0.2"/>
    <path d="M 255.544863 126.904067 
L 258.058137 128.339786 
L 262.605363 133.543306 
L 264.759357 134.67981 
L 289.952122 137.252033 
L 303.833884 139.943686 
L 306.167941 141.08019 
L 309.85543 144.616837 
" clip-path="url(#p16319d2fa5)" style="fill: none; stroke: #e6482f; stroke-width: 0.2"/>
    <path d="M 363.159165 126.074483 
L 359.180025 124.664447 
L 353.546503 122.711201 
L 349.725447 121.438573 
L 343.385199 119.202806 
L 337.158229 117.19434 
L 332.261022 115.610939 
L 326.628345 113.572937 
L 321.13769 111.762235 
L 316.353761 110.715624 
L 312.815903 109.782021 
L 307.862055 108.169084 
L 306.168787 107.55396 
L 303.191406 106.471391 
L 300.927515 105.594293 
" clip-path="url(#p16319d2fa5)" style="fill: none; stroke: #e6482f; stroke-width: 0.2"/>
    <path d="M 315.269156 70.637479 
L 309.977162 79.08742 
L 304.20331 87.880238 
L 304.054525 89.396861 
L 303.859245 91.38478 
L 303.103488 96.46887 
L 304.959067 98.323234 
L 305.990414 100.178882 
L 306.402953 105.056219 
L 306.168787 107.55396 
" clip-path="url(#p16319d2fa5)" style="fill: none; stroke: #e6482f; stroke-width: 0.2"/>
    <path d="M 274.200409 88.203853 
L 288.886115 85.44157 
L 292.518655 87.019834 
L 295.202693 87.335743 
L 297.763308 86.876005 
L 299.782043 86.705208 
L 304.054525 89.396861 
" clip-path="url(#p16319d2fa5)" style="fill: none; stroke: #e6482f; stroke-width: 0.2"/>
    <path d="M 315.269156 70.637479 
L 320.906905 64.55044 
L 324.054248 58.54725 
" clip-path="url(#p16319d2fa5)" style="fill: none; stroke: #e6482f; stroke-width: 0.2"/>
    <path d="M 363.376424 125.815077 
L 364.920909 126.48799 
L 372.943436 128.894554 
" clip-path="url(#p16319d2fa5)" style="fill: none; stroke: #e6482f; stroke-width: 0.2"/>
    <path d="M 350.478668 132.946159 
L 357.752201 132.153817 
L 360.643354 129.078193 
L 363.159165 126.074483 
L 363.376424 125.815077 
L 364.000305 125.07025 
L 368.056373 122.040856 
L 371.226497 119.291415 
L 375.608877 110.203234 
L 375.444875 108.540214 
" clip-path="url(#p16319d2fa5)" style="fill: none; stroke: #e6482f; stroke-width: 0.2"/>
    <path d="M 398.352615 118.388633 
L 400.026441 117.78635 
L 401.568389 116.336504 
L 407.282221 113.163282 
" clip-path="url(#p16319d2fa5)" style="fill: none; stroke: #e6482f; stroke-width: 0.2"/>
    <path d="M 389.915013 102.829441 
L 391.864428 106.373793 
L 395.307605 113.791249 
L 397.446382 117.232866 
L 398.352615 118.388633 
L 399.017919 119.237479 
L 400.25469 121.242093 
L 400.355288 121.810987 
" clip-path="url(#p16319d2fa5)" style="fill: none; stroke: #e6482f; stroke-width: 0.2"/>
    <path d="M 424.232663 98.355339 
L 428.505145 103.643615 
L 430.364952 105.774078 
L 431.226673 106.124808 
" clip-path="url(#p16319d2fa5)" style="fill: none; stroke: #e6482f; stroke-width: 0.2"/>
    <path d="M 362.80242 95.06654 
L 360.902037 94.4283 
L 359.72275 92.841046 
L 357.682036 90.98283 
L 356.185737 89.033436 
L 354.961647 87.221451 
L 354.417231 86.540832 
L 352.829632 84.954863 
L 354.689439 83.503734 
L 356.503595 83.00547 
L 358.090348 82.008942 
L 359.223984 81.600571 
L 360.568117 81.249988 
" clip-path="url(#p16319d2fa5)" style="fill: none; stroke: #e6482f; stroke-width: 0.2"/>
    <path d="M 417.996395 104.705636 
L 419.6922 104.392295 
L 421.784482 103.524185 
L 423.363627 102.695886 
L 424.785533 101.038002 
L 424.864152 100.209703 
L 424.232663 98.355339 
L 422.653519 95.908966 
L 420.916291 93.382973 
L 419.415765 90.186635 
L 417.639651 86.715482 
L 416.258322 84.385969 
L 414.797529 81.34887 
L 413.297003 77.994578 
L 411.914829 73.969941 
L 412.58605 72.548347 
L 413.928492 72.312057 
L 415.942155 71.917812 
L 417.244864 70.971367 
L 418.074169 69.313484 
L 418.389491 67.301165 
L 418.429223 64.026492 
L 417.797734 61.658454 
L 416.652263 60.790345 
" clip-path="url(#p16319d2fa5)" style="fill: none; stroke: #e6482f; stroke-width: 0.2"/>
    <path d="M 411.914829 73.969941 
L 411.02973 71.39258 
L 410.200426 67.880333 
L 412.017118 64.803424 
" clip-path="url(#p16319d2fa5)" style="fill: none; stroke: #e6482f; stroke-width: 0.2"/>
    <path d="M 361.610979 71.84091 
L 360.646736 80.437099 
L 360.568117 81.249988 
L 360.453992 82.430155 
L 360.421868 84.552913 
L 360.646736 86.48176 
L 360.968821 88.861356 
L 361.515773 91.080428 
L 362.223344 93.298216 
L 362.80242 95.06654 
L 363.595374 96.732128 
L 364.603896 98.217931 
L 366.221928 100.249512 
L 368.918647 103.006659 
L 374.416064 108.12157 
L 375.444875 108.540214 
" clip-path="url(#p16319d2fa5)" style="fill: none; stroke: #e6482f; stroke-width: 0.2"/>
    <path d="M 375.444875 108.540214 
L 376.635151 108.476005 
L 378.308132 107.832628 
L 389.915013 102.829441 
L 390.693595 102.494269 
L 399.058496 98.572366 
L 400.087307 98.153722 
L 401.116963 98.153722 
L 402.14662 98.185826 
L 403.722383 98.732889 
L 415.738421 103.829822 
L 417.996395 104.705636 
L 427.789965 108.501688 
L 429.233851 109.053888 
L 430.552623 109.344114 
L 431.582279 109.472533 
L 431.763065 109.457498 
" clip-path="url(#p16319d2fa5)" style="fill: none; stroke: #e6482f; stroke-width: 0.2"/>
    <path d="M 90.583437 758.634721 
L 107.397776 758.067111 
L 125.248533 757.731938 
L 125.749836 757.297883 
" clip-path="url(#p16319d2fa5)" style="fill: none; stroke: #e6482f; stroke-width: 0.2"/>
    <path d="M 125.705031 756.419501 
L 119.030863 750.808894 
" clip-path="url(#p16319d2fa5)" style="fill: none; stroke: #e6482f; stroke-width: 0.2"/>
    <path d="M 90.583437 758.634721 
L 89.397388 743.811367 
L 88.626414 730.888609 
" clip-path="url(#p16319d2fa5)" style="fill: none; stroke: #e6482f; stroke-width: 0.2"/>
    <path d="M 105.893869 729.871534 
L 88.626414 730.888609 
L 71.346279 731.905684 
L 70.477242 733.242521 
L 71.446877 753.677765 
L 71.847581 757.625351 
L 72.182346 758.427967 
L 73.218765 759.364138 
L 74.120771 759.497693 
L 90.583437 758.634721 
" clip-path="url(#p16319d2fa5)" style="fill: none; stroke: #e6482f; stroke-width: 0.2"/>
    <path d="M 105.893869 729.871534 
L 107.397776 758.067111 
" clip-path="url(#p16319d2fa5)" style="fill: none; stroke: #e6482f; stroke-width: 0.2"/>
    <path d="M 124.309331 728.991867 
L 124.431064 731.374031 
L 125.705031 756.419501 
L 125.749836 757.297883 
" clip-path="url(#p16319d2fa5)" style="fill: none; stroke: #e6482f; stroke-width: 0.2"/>
    <path d="M 132.206745 752.138026 
L 132.11629 736.440143 
L 136.902755 729.329608 
" clip-path="url(#p16319d2fa5)" style="fill: none; stroke: #e6482f; stroke-width: 0.2"/>
    <path d="M 121.003103 737.12975 
L 124.431064 731.374031 
" clip-path="url(#p16319d2fa5)" style="fill: none; stroke: #e6482f; stroke-width: 0.2"/>
    <path d="M 89.204645 711.299643 
L 68.615409 712.549836 
" clip-path="url(#p16319d2fa5)" style="fill: none; stroke: #e6482f; stroke-width: 0.2"/>
    <path d="M 104.737408 706.067872 
L 106.087458 722.231914 
L 105.893869 729.871534 
" clip-path="url(#p16319d2fa5)" style="fill: none; stroke: #e6482f; stroke-width: 0.2"/>
    <path d="M 105.893869 729.871534 
L 124.309331 728.991867 
L 132.085857 728.422973 
L 131.753628 720.287658 
L 130.84655 704.339358 
" clip-path="url(#p16319d2fa5)" style="fill: none; stroke: #e6482f; stroke-width: 0.2"/>
    <path d="M 143.045188 705.519524 
L 133.513681 710.213222 
" clip-path="url(#p16319d2fa5)" style="fill: none; stroke: #e6482f; stroke-width: 0.2"/>
    <path d="M 132.664088 701.833912 
L 131.164408 703.65874 
L 130.84655 704.339358 
L 130.075576 704.611605 
L 126.92405 704.78497 
L 121.77915 705.034102 
L 104.737408 706.067872 
L 103.82103 706.123092 
L 99.303392 707.111914 
L 89.204645 711.299643 
" clip-path="url(#p16319d2fa5)" style="fill: none; stroke: #e6482f; stroke-width: 0.2"/>
    <path d="M 150.792126 674.824923 
L 147.534929 675.280809 
L 145.630318 676.278621 
L 143.816162 677.413841 
L 143.226942 677.867158 
L 141.684993 678.6839 
L 140.505707 679.137218 
L 138.284084 679.364518 
L 135.698953 679.95396 
L 135.381941 680.407277 
L 132.434148 687.077337 
" clip-path="url(#p16319d2fa5)" style="fill: none; stroke: #e6482f; stroke-width: 0.2"/>
    <path d="M 78.683454 658.107211 
L 81.509274 658.577408 
L 100.011809 658.939548 
L 116.444042 663.404661 
" clip-path="url(#p16319d2fa5)" style="fill: none; stroke: #e6482f; stroke-width: 0.2"/>
    <path d="M 135.851032 667.405105 
L 150.792126 674.824923 
" clip-path="url(#p16319d2fa5)" style="fill: none; stroke: #e6482f; stroke-width: 0.2"/>
    <path d="M 97.542494 521.735886 
L 92.958072 527.363187 
L 89.624792 535.700119 
L 88.061709 538.929845 
L 83.998878 545.078526 
L 82.977675 546.492414 
L 77.226648 554.456932 
L 74.728487 557.830028 
" clip-path="url(#p16319d2fa5)" style="fill: none; stroke: #e6482f; stroke-width: 0.2"/>
    <path d="M 65.422796 513.782925 
L 38.135213 529.457693 
L 28.223872 532.419652 
" clip-path="url(#p16319d2fa5)" style="fill: none; stroke: #e6482f; stroke-width: 0.2"/>
    <path d="M 97.542494 521.735886 
L 102.911416 515.153151 
L 105.723105 509.709489 
L 107.724933 503.41698 
L 108.897456 499.731367 
L 109.71408 496.103543 
L 112.071807 493.382354 
L 114.533514 488.863306 
L 123.046354 473.820357 
L 126.60281 469.043187 
L 127.678117 467.599762 
" clip-path="url(#p16319d2fa5)" style="fill: none; stroke: #e6482f; stroke-width: 0.2"/>
    <path d="M 40.267821 498.371761 
L 47.483275 504.296647 
L 54.837963 512.339501 
L 65.422796 513.782925 
L 78.482862 505.670725 
L 81.301314 500.858882 
L 84.807048 501.408514 
L 89.481079 503.265446 
L 90.741521 502.86478 
" clip-path="url(#p16319d2fa5)" style="fill: none; stroke: #e6482f; stroke-width: 0.2"/>
    <path d="M 118.159291 459.854839 
L 121.017474 461.424114 
L 125.295874 464.336647 
L 127.678117 467.599762 
" clip-path="url(#p16319d2fa5)" style="fill: none; stroke: #e6482f; stroke-width: 0.2"/>
    <path d="M 143.412922 739.338549 
L 145.856877 739.388633 
L 147.262721 739.343686 
L 148.895123 739.207562 
L 150.120059 739.116385 
L 151.117592 739.207562 
L 152.160774 739.47981 
L 153.657073 740.477622 
L 155.062917 741.657788 
L 156.332657 742.564423 
L 157.602398 743.245042 
L 159.099553 743.485023 
" clip-path="url(#p16319d2fa5)" style="fill: none; stroke: #e6482f; stroke-width: 0.2"/>
    <path d="M 136.902755 729.329608 
L 139.737269 733.70868 
L 141.730643 737.710202 
L 143.412922 739.338549 
L 144.906685 740.785826 
L 147.310907 745.84038 
L 152.319703 746.443948 
L 158.850159 747.283805 
L 159.44387 747.294293 
" clip-path="url(#p16319d2fa5)" style="fill: none; stroke: #e6482f; stroke-width: 0.2"/>
    <path d="M 141.757695 534.278526 
L 144.77988 540.356576 
L 147.412351 549.334316 
L 149.935483 556.327833 
" clip-path="url(#p16319d2fa5)" style="fill: none; stroke: #e6482f; stroke-width: 0.2"/>
    <path d="M 292.140776 412.82283 
L 277.554823 450.480285 
L 268.981962 470.779405 
" clip-path="url(#p16319d2fa5)" style="fill: none; stroke: #e6482f; stroke-width: 0.2"/>
    <path d="M 265.423159 497.084146 
L 267.077352 500.902545 
L 264.688048 509.621993 
" clip-path="url(#p16319d2fa5)" style="fill: none; stroke: #e6482f; stroke-width: 0.2"/>
    <path d="M 152.781847 673.590582 
L 150.792126 674.824923 
L 145.261739 684.745256 
L 132.664088 701.833912 
L 133.249927 708.6722 
L 133.513681 710.213222 
L 134.429213 715.568276 
L 136.902755 729.329608 
" clip-path="url(#p16319d2fa5)" style="fill: none; stroke: #e6482f; stroke-width: 0.2"/>
    <path d="M 182.602638 537.718734 
L 177.668016 533.854744 
L 172.262743 529.134078 
L 169.430765 523.812414 
L 167.371452 521.066825 
L 163.601118 518.344352 
" clip-path="url(#p16319d2fa5)" style="fill: none; stroke: #e6482f; stroke-width: 0.2"/>
    <path d="M 126.60281 469.043187 
L 127.908056 472.406468 
L 129.210766 477.711439 
L 130.048524 480.225874 
L 134.562781 485.67082 
L 140.146426 491.720618 
L 143.404468 496.748205 
L 148.662648 503.356623 
L 154.154148 509.87258 
L 158.202608 514.480238 
L 159.831629 516.202331 
L 163.601118 518.344352 
" clip-path="url(#p16319d2fa5)" style="fill: none; stroke: #e6482f; stroke-width: 0.2"/>
    <path d="M 291.530421 406.441712 
L 284.109795 408.947158 
L 279.454794 410.477795 
" clip-path="url(#p16319d2fa5)" style="fill: none; stroke: #e6482f; stroke-width: 0.2"/>
    <path d="M 211.754309 421.384672 
L 207.757989 423.435339 
L 199.191045 429.476147 
L 190.427131 436.227111 
L 181.465402 442.820119 
L 172.74122 449.058692 
L 165.83204 453.874388 
L 161.647476 456.165375 
L 158.409723 457.427729 
L 153.080533 458.533413 
L 146.053002 459.599287 
L 139.302751 461.29698 
L 132.43922 463.771605 
L 127.678117 467.599762 
" clip-path="url(#p16319d2fa5)" style="fill: none; stroke: #e6482f; stroke-width: 0.2"/>
    <path d="M 190.032345 398.445089 
L 191.251364 400.230107 
L 191.976688 401.136742 
L 192.883766 401.77113 
L 193.564286 402.089608 
L 194.697923 402.224447 
L 196.194221 402.043377 
L 200.683962 400.955672 
L 203.087339 400.275054 
L 205.416624 399.401887 
" clip-path="url(#p16319d2fa5)" style="fill: none; stroke: #e6482f; stroke-width: 0.2"/>
    <path d="M 243.719877 358.057455 
L 241.770462 358.465826 
L 239.139682 357.694031 
L 235.602668 356.742449 
L 229.798382 357.785208 
L 225.308641 361.049608 
L 213.880978 369.937455 
L 209.935653 371.479762 
L 206.35299 373.610226 
L 203.132989 377.329227 
L 200.683962 379.369798 
L 198.280585 380.775981 
" clip-path="url(#p16319d2fa5)" style="fill: none; stroke: #e6482f; stroke-width: 0.2"/>
    <path d="M 73.708232 423.127134 
L 72.534018 424.108252 
L 70.488232 425.816219 
L 67.919365 427.672543 
" clip-path="url(#p16319d2fa5)" style="fill: none; stroke: #e6482f; stroke-width: 0.2"/>
    <path d="M 141.757695 534.278526 
L 140.771152 531.974697 
L 130.865993 522.133983 
L 125.173296 516.210036 
L 118.521953 510.702164 
L 113.77522 507.293936 
L 109.729296 504.075767 
L 107.724933 503.41698 
L 100.171583 502.768466 
L 94.277689 502.736361 
L 90.741521 502.86478 
L 92.047612 501.111867 
L 100.108181 488.876147 
L 102.068586 485.651558 
L 104.724727 479.576076 
L 108.178894 473.979596 
L 112.222282 468.167372 
L 116.518434 462.041807 
L 118.159291 459.854839 
L 118.503355 459.395101 
L 125.59767 451.317574 
L 131.240491 444.183924 
L 137.486903 439.987206 
L 145.879701 433.133508 
L 155.017267 425.999857 
L 158.188237 423.202901 
L 158.980345 421.850654 
L 161.358361 415.929275 
L 163.410065 412.152485 
L 166.72052 409.215553 
L 171.00991 406.837241 
L 176.371223 404.646421 
L 184.157894 400.915862 
L 190.032345 398.445089 
L 191.384086 383.945351 
L 190.918289 378.350155 
L 189.379722 373.874768 
L 187.289131 369.285089 
L 186.768385 368.14088 
L 183.038629 361.520904 
L 179.836381 356.725755 
L 179.57009 356.326373 
L 174.972987 348.979548 
L 169.051195 340.168751 
L 164.435495 332.662687 
L 160.892564 327.115006 
" clip-path="url(#p16319d2fa5)" style="fill: none; stroke: #e6482f; stroke-width: 0.2"/>
    <path d="M 105.566712 395.124185 
L 98.62879 401.009608 
L 89.061778 409.856361 
L 73.708232 423.127134 
" clip-path="url(#p16319d2fa5)" style="fill: none; stroke: #e6482f; stroke-width: 0.2"/>
    <path d="M 90.644304 377.883995 
L 84.929627 378.937027 
L 72.175583 383.517717 
L 56.31989 389.084661 
L 49.242425 392.6449 
" clip-path="url(#p16319d2fa5)" style="fill: none; stroke: #e6482f; stroke-width: 0.2"/>
    <path d="M 105.566712 395.124185 
L 107.597282 396.871962 
L 110.505343 400.081141 
L 114.115903 404.024875 
L 117.25813 406.933555 
L 118.695253 407.802949 
" clip-path="url(#p16319d2fa5)" style="fill: none; stroke: #e6482f; stroke-width: 0.2"/>
    <path d="M 94.352081 391.999762 
L 82.21431 397.633484 
" clip-path="url(#p16319d2fa5)" style="fill: none; stroke: #e6482f; stroke-width: 0.2"/>
    <path d="M 124.749767 355.5122 
L 122.140121 358.998763 
L 116.909839 362.192533 
L 111.678711 364.505351 
L 106.942969 367.037765 
L 101.767635 370.23025 
L 96.096072 374.19453 
L 90.644304 377.883995 
L 90.203868 379.590678 
L 90.700098 382.509631 
L 92.186252 387.133983 
L 94.352081 391.999762 
L 95.985329 395.66868 
L 98.62879 401.009608 
" clip-path="url(#p16319d2fa5)" style="fill: none; stroke: #e6482f; stroke-width: 0.2"/>
    <path d="M 124.749767 355.5122 
L 108.906755 352.242663 
L 101.540232 350.751724 
L 92.40182 349.073294 
L 88.858044 348.699596 
L 83.076583 347.721046 
L 74.59164 345.856409 
L 67.551429 344.644138 
L 61.629637 343.431867 
L 56.361313 342.359572 
L 50.486862 341.147301 
" clip-path="url(#p16319d2fa5)" style="fill: none; stroke: #e6482f; stroke-width: 0.2"/>
    <path d="M 130.369763 351.119001 
L 129.527778 348.889655 
L 130.389207 347.257455 
L 133.427454 342.950297 
L 134.288882 339.956861 
L 134.379336 337.645327 
" clip-path="url(#p16319d2fa5)" style="fill: none; stroke: #e6482f; stroke-width: 0.2"/>
    <path d="M 160.892564 327.115006 
L 157.050374 330.809608 
L 152.755067 334.333413 
L 148.790298 337.361522 
L 143.614965 340.004376 
L 142.592917 340.708109 
L 139.540298 342.811605 
L 136.015966 345.620119 
L 132.657325 349.143924 
L 130.369763 351.119001 
L 124.749767 355.5122 
" clip-path="url(#p16319d2fa5)" style="fill: none; stroke: #e6482f; stroke-width: 0.2"/>
    <path d="M 124.749767 355.5122 
L 124.699891 356.774554 
L 124.938284 358.524899 
L 125.236698 359.340357 
L 126.14124 360.005565 
L 131.052819 363.873532 
L 133.019142 366.575458 
L 133.518753 367.681141 
L 134.403852 368.406706 
L 135.656685 369.192628 
L 137.236675 368.933222 
L 142.996156 369.56761 
L 147.304144 370.565422 
L 149.843625 372.333746 
L 155.285248 376.18887 
L 159.865444 377.64 
L 162.813237 376.006516 
L 163.669593 374.904685 
L 165.806679 372.152675 
L 169.162784 369.522663 
L 169.664932 367.037765 
" clip-path="url(#p16319d2fa5)" style="fill: none; stroke: #e6482f; stroke-width: 0.2"/>
    <path d="M 267.968368 354.284518 
L 266.077283 355.336266 
L 264.807543 357.014697 
L 262.630724 359.326231 
L 252.653709 358.872913 
L 246.803774 359.191391 
L 243.719877 358.057455 
L 243.932909 355.700975 
" clip-path="url(#p16319d2fa5)" style="fill: none; stroke: #e6482f; stroke-width: 0.2"/>
    <path d="M 142.592917 340.708109 
L 150.800579 352.525184 
L 154.836359 358.510773 
L 158.442692 364.162473 
L 159.598308 365.313103 
L 160.640645 365.947491 
L 161.819931 366.762949 
L 164.087204 367.988062 
L 165.94701 368.124185 
L 167.669867 368.033008 
L 168.939607 367.534744 
L 169.664932 367.037765 
L 170.527205 366.445755 
L 178.690064 357.921332 
L 179.836381 356.725755 
" clip-path="url(#p16319d2fa5)" style="fill: none; stroke: #e6482f; stroke-width: 0.2"/>
    <path d="M 204.419637 328.115386 
L 208.389477 332.475196 
L 212.515711 338.869156 
L 213.468439 340.728656 
L 213.241881 342.67805 
L 211.790387 345.489132 
L 203.128762 355.647039 
L 190.703566 367.75434 
L 189.025514 368.933222 
L 187.289131 369.285089 
" clip-path="url(#p16319d2fa5)" style="fill: none; stroke: #e6482f; stroke-width: 0.2"/>
    <path d="M 243.932909 355.700975 
L 246.0235 348.639239 
L 247.869781 341.190963 
L 251.218277 328.549441 
L 250.963822 327.414221 
" clip-path="url(#p16319d2fa5)" style="fill: none; stroke: #e6482f; stroke-width: 0.2"/>
    <path d="M 169.051195 340.168751 
L 173.578133 342.26069 
L 181.042718 338.906397 
L 184.088574 336.999382 
L 191.227693 324.529941 
" clip-path="url(#p16319d2fa5)" style="fill: none; stroke: #e6482f; stroke-width: 0.2"/>
    <path d="M 179.57009 356.326373 
L 183.673499 352.317146 
L 188.801492 346.677004 
L 195.142585 338.890987 
L 200.711014 333.020975 
L 204.419637 328.115386 
L 205.259931 327.003282 
L 210.388769 320.523282 
L 212.766785 315.581736 
L 214.817644 303.229156 
L 215.936909 297.355291 
L 216.636027 294.51082 
L 218.45441 291.761379 
L 221.671029 288.507253 
" clip-path="url(#p16319d2fa5)" style="fill: none; stroke: #e6482f; stroke-width: 0.2"/>
    <path d="M 177.870058 310.627348 
L 185.034539 318.030678 
L 191.227693 324.529941 
L 200.711014 333.020975 
" clip-path="url(#p16319d2fa5)" style="fill: none; stroke: #e6482f; stroke-width: 0.2"/>
    <path d="M 256.219465 306.733698 
L 250.963822 327.414221 
" clip-path="url(#p16319d2fa5)" style="fill: none; stroke: #e6482f; stroke-width: 0.2"/>
    <path d="M 245.439352 302.855458 
L 244.913534 305.355767 
L 238.060149 322.400761 
" clip-path="url(#p16319d2fa5)" style="fill: none; stroke: #e6482f; stroke-width: 0.2"/>
    <path d="M 132.998853 304.708537 
L 130.819498 309.168514 
L 129.141446 312.431629 
L 125.458184 319.237812 
L 123.033673 324.039382 
L 120.329346 329.913246 
L 115.900471 337.884185 
L 111.424256 346.228823 
L 108.906755 352.242663 
" clip-path="url(#p16319d2fa5)" style="fill: none; stroke: #e6482f; stroke-width: 0.2"/>
    <path d="M 160.892564 327.115006 
L 158.887355 324.691748 
L 155.204093 321.474863 
L 151.613822 318.631677 
L 147.091957 315.461023 
L 142.056109 311.685517 
L 137.160592 307.67629 
L 133.337845 304.971795 
L 132.998853 304.708537 
L 128.301997 301.056314 
L 126.017817 299.0517 
L 121.261785 294.017693 
" clip-path="url(#p16319d2fa5)" style="fill: none; stroke: #e6482f; stroke-width: 0.2"/>
    <path d="M 106.209922 276.216116 
L 111.61869 282.606421 
L 117.786484 290.768704 
L 121.261785 294.017693 
" clip-path="url(#p16319d2fa5)" style="fill: none; stroke: #e6482f; stroke-width: 0.2"/>
    <path d="M 174.961152 284.105065 
L 172.843509 282.077337 
L 168.299665 280.709679 
L 163.095589 278.285137 
L 155.075351 273.755936 
" clip-path="url(#p16319d2fa5)" style="fill: none; stroke: #e6482f; stroke-width: 0.2"/>
    <path d="M 160.892564 327.115006 
L 163.394003 323.97132 
L 167.341865 320.299834 
L 171.684512 316.077432 
L 175.435403 312.642235 
L 177.870058 310.627348 
L 182.329366 306.258549 
L 185.423407 303.880238 
L 190.081376 300.604281 
L 192.608177 298.630488 
L 195.016626 296.814649 
L 194.976893 295.472675 
" clip-path="url(#p16319d2fa5)" style="fill: none; stroke: #e6482f; stroke-width: 0.2"/>
    <path d="M 277.060284 311.861451 
L 275.848028 311.022878 
L 270.439374 309.903068 
L 261.207972 308.178407 
L 256.219465 306.733698 
L 248.246814 303.982973 
L 245.439352 302.855458 
L 243.257461 301.978359 
L 239.477828 300.326897 
" clip-path="url(#p16319d2fa5)" style="fill: none; stroke: #e6482f; stroke-width: 0.2"/>
    <path d="M 239.477828 300.326897 
L 238.51411 299.905684 
" clip-path="url(#p16319d2fa5)" style="fill: none; stroke: #e6482f; stroke-width: 0.2"/>
    <path d="M 256.219465 306.733698 
L 259.119917 293.371748 
" clip-path="url(#p16319d2fa5)" style="fill: none; stroke: #e6482f; stroke-width: 0.2"/>
    <path d="M 238.51411 299.905684 
L 236.21725 298.901451 
L 232.161182 296.058264 
L 227.918287 293.355054 
L 221.671029 288.507253 
" clip-path="url(#p16319d2fa5)" style="fill: none; stroke: #e6482f; stroke-width: 0.2"/>
    <path d="M 194.976893 295.472675 
L 193.595565 294.130702 
L 191.54217 292.748918 
L 188.463345 291.051225 
L 184.002346 288.919477 
L 179.541348 286.749203 
L 176.580029 285.959429 
L 174.961152 284.105065 
" clip-path="url(#p16319d2fa5)" style="fill: none; stroke: #e6482f; stroke-width: 0.2"/>
    <path d="M 220.528094 283.31786 
L 214.211516 280.712247 
L 211.803912 280.554293 
L 208.053022 279.015838 
L 206.039359 276.015981 
L 206.750312 272.46264 
L 208.763975 266.38459 
" clip-path="url(#p16319d2fa5)" style="fill: none; stroke: #e6482f; stroke-width: 0.2"/>
    <path d="M 223.106462 285.91962 
L 220.528094 283.31786 
L 218.515277 279.844138 
L 216.817781 275.068252 
L 224.042282 262.832533 
" clip-path="url(#p16319d2fa5)" style="fill: none; stroke: #e6482f; stroke-width: 0.2"/>
    <path d="M 222.173206 120.740589 
L 222.950069 120.808038 
L 227.43981 118.949822 
L 241.770462 127.381784 
L 243.402865 127.471677 
L 254.105204 126.746112 
L 255.544863 126.904067 
" clip-path="url(#p16319d2fa5)" style="fill: none; stroke: #e6482f; stroke-width: 0.2"/>
    <path d="M 258.058137 128.339786 
L 259.901881 103.63591 
L 259.972892 102.680476 
" clip-path="url(#p16319d2fa5)" style="fill: none; stroke: #e6482f; stroke-width: 0.2"/>
    <path d="M 227.43981 118.949822 
L 227.984226 117.227729 
L 227.53111 114.552771 
L 227.258902 112.468537 
L 227.43981 109.250369 
L 227.893772 107.663115 
L 227.53111 106.303163 
L 226.760135 104.807087 
L 226.042795 103.938608 
" clip-path="url(#p16319d2fa5)" style="fill: none; stroke: #e6482f; stroke-width: 0.2"/>
    <path d="M 226.42621 102.273797 
L 228.619096 101.771272 
L 232.178934 101.680095 
L 232.79098 101.181831 
L 235.149552 100.207134 
L 239.547994 99.345446 
L 241.226046 99.753817 
L 242.700365 100.094126 
L 244.513676 100.433151 
L 246.0328 101.543971 
L 247.892606 103.016932 
L 249.615462 103.334126 
L 252.064489 102.40566 
L 253.493158 101.929227 
L 255.760431 102.020404 
L 257.665042 102.654792 
L 259.901881 103.63591 
" clip-path="url(#p16319d2fa5)" style="fill: none; stroke: #e6482f; stroke-width: 0.2"/>
    <path d="M 259.972892 102.680476 
L 270.252548 102.093603 
L 271.752228 97.516766 
L 273.951026 89.152866 
L 274.200409 88.203853 
" clip-path="url(#p16319d2fa5)" style="fill: none; stroke: #e6482f; stroke-width: 0.2"/>
    <path d="M 274.200409 88.203853 
L 274.200409 75.814031 
L 274.086191 69.427651 
" clip-path="url(#p16319d2fa5)" style="fill: none; stroke: #e6482f; stroke-width: 0.2"/>
   </g>
  </g>
 </g>
 <defs>
  <clipPath id="p16319d2fa5">
   <rect x="7.2" y="7.2" width="445.216208" height="831.6"/>
  </clipPath>
 </defs>
</svg>
