<?xml version="1.0" encoding="utf-8" standalone="no"?>
<!DOCTYPE svg PUBLIC "-//W3C//DTD SVG 1.1//EN"
  "http://www.w3.org/Graphics/SVG/1.1/DTD/svg11.dtd">
<svg xmlns:xlink="http://www.w3.org/1999/xlink" width="665.754384pt" height="846pt" viewBox="0 0 665.754384 846" xmlns="http://www.w3.org/2000/svg" version="1.1">
 <metadata>
  <rdf:RDF xmlns:dc="http://purl.org/dc/elements/1.1/" xmlns:cc="http://creativecommons.org/ns#" xmlns:rdf="http://www.w3.org/1999/02/22-rdf-syntax-ns#">
   <cc:Work>
    <dc:type rdf:resource="http://purl.org/dc/dcmitype/StillImage"/>
    <dc:date>2025-03-16T14:38:38.295390</dc:date>
    <dc:format>image/svg+xml</dc:format>
    <dc:creator>
     <cc:Agent>
      <dc:title>Matplotlib v3.10.1, https://matplotlib.org/</dc:title>
     </cc:Agent>
    </dc:creator>
   </cc:Work>
  </rdf:RDF>
 </metadata>
 <defs>
  <style type="text/css">*{stroke-linejoin: round; stroke-linecap: butt}</style>
 </defs>
 <g id="figure_1">
  <g id="patch_1">
   <path d="M 0 846 
L 665.754384 846 
L 665.754384 0 
L 0 0 
z
" style="fill: #ffffff"/>
  </g>
  <g id="axes_1">
   <g id="PatchCollection_1">
    <path d="M 39.199861 702.437958 
L 36.807017 723.086117 
L 39.798536 742.240997 
L 48.97389 749.623345 
L 56.853353 748.925734 
L 75.804596 737.052342 
L 77.9985 707.02706 
L 82.287769 696.450832 
L 98.145235 681.988716 
L 97.745498 665.828799 
L 91.861001 658.945145 
L 75.30446 656.950371 
L 61.243021 664.92947 
L 47.378661 680.590692 
L 39.199861 702.437958 
" clip-path="url(#pe91063fcf0)" style="fill: #f29888"/>
    <path d="M 516.344298 689.368261 
L 510.809338 693.660389 
L 519.536615 696.201485 
L 523.476347 697.249302 
L 522.029857 721.391119 
L 518.039926 743.238385 
L 512.354367 787.930303 
L 514.548272 790.224855 
L 524.223761 792.320489 
L 534.397528 795.012874 
L 562.821603 801 
L 567.908486 783.041424 
L 573.893383 778.253405 
L 575.438412 775.011896 
L 559.03247 749.424428 
L 569.405175 738.949059 
L 579.577083 728.075856 
L 590.050187 702.037322 
L 593.242503 678.696777 
L 605.210437 649.568023 
L 607.404342 616.44972 
L 616.979432 597.499361 
L 625.756909 571.962322 
L 628.947366 559.794757 
L 610.196921 513.113667 
L 586.796515 458.005214 
L 565.515643 453.270426 
L 545.367049 449.678711 
L 522.827471 443.49547 
L 502.479939 436.513758 
L 496.097165 430.728351 
L 502.082061 386.246556 
L 497.493455 376.673319 
L 485.724459 354.53188 
L 484.129231 307.060725 
L 477.828263 271.773945 
L 459.194951 257.796514 
L 449.61986 243.236339 
L 447.425955 222.095089 
L 450.616413 184.199973 
L 446.82728 181.008894 
L 438.250601 139.12703 
L 375.415695 131.34965 
L 382.596083 68.729974 
L 273.084933 45 
L 255.730778 129.954429 
L 186.312299 135.140283 
L 176.140392 146.108742 
L 171.352847 154.684592 
L 175.541717 166.252604 
L 175.342778 179.81259 
L 161.378019 233.063549 
L 164.769275 273.552992 
L 206.659832 293.097302 
L 175.541717 308.257029 
L 119.089584 337.576295 
L 93.556628 360.914038 
L 87.77253 378.267458 
L 98.145235 414.173402 
L 115.49939 432.723126 
L 132.455667 436.314841 
L 154.796306 411.777991 
L 171.152049 392.628715 
L 198.282093 372.484852 
L 247.15224 353.534493 
L 256.528393 368.69422 
L 264.307457 385.050252 
L 277.67168 392.23088 
L 306.396953 389.238718 
L 327.741039 378.668093 
L 339.907911 377.071153 
L 357.661803 430.529434 
L 366.039543 455.464118 
L 369.430798 472.019067 
L 375.415695 499.948714 
L 425.483194 531.066639 
L 500.286034 582.336832 
L 522.92787 598.395889 
L 511.556753 605.579319 
L 503.179013 640.092844 
L 525.021376 647.374332 
L 516.344298 689.368261 
" clip-path="url(#pe91063fcf0)" style="fill: #f29888"/>
   </g>
   <g id="PatchCollection_2">
    <path d="M 547.653916 775.625457 
L 548.849408 774.52721 
L 550.396296 775.874804 
L 549.148745 777.121538 
L 547.653916 775.625457 
" clip-path="url(#pe91063fcf0)" style="fill: #f29888"/>
    <path d="M 534.53883 752.878862 
L 535.434984 751.531268 
L 537.729288 752.979721 
L 536.732734 754.226456 
L 534.53883 752.878862 
" clip-path="url(#pe91063fcf0)" style="fill: #f29888"/>
    <path d="M 547.404777 734.995931 
L 549.598682 735.346137 
L 549.349543 736.74416 
L 547.10544 736.293095 
L 547.404777 734.995931 
" clip-path="url(#pe91063fcf0)" style="fill: #f29888"/>
    <path d="M 546.705703 732.502463 
L 548.700668 732.502463 
L 548.801067 734.048973 
L 546.806102 734.099403 
L 546.705703 732.502463 
" clip-path="url(#pe91063fcf0)" style="fill: #f29888"/>
    <path d="M 553.488214 780.713253 
L 555.083442 779.564577 
L 556.630331 781.609781 
L 555.183841 782.758458 
L 553.488214 780.713253 
" clip-path="url(#pe91063fcf0)" style="fill: #f29888"/>
    <path d="M 547.404777 728.313996 
L 551.294309 728.76226 
L 551.143711 730.507688 
L 547.254179 730.008994 
L 547.404777 728.313996 
" clip-path="url(#pe91063fcf0)" style="fill: #f29888"/>
    <path d="M 547.852854 724.573793 
L 552.839339 724.921198 
L 552.6404 726.817915 
L 547.903054 726.568568 
L 547.852854 724.573793 
" clip-path="url(#pe91063fcf0)" style="fill: #f29888"/>
    <path d="M 550.147158 720.234038 
L 556.230594 721.329483 
L 555.881057 722.777936 
L 549.898019 721.629259 
L 550.147158 720.234038 
" clip-path="url(#pe91063fcf0)" style="fill: #f29888"/>
    <path d="M 549.273315 716.219274 
L 550.994972 716.516248 
L 550.595235 719.135791 
L 548.775038 718.836015 
L 549.273315 716.219274 
" clip-path="url(#pe91063fcf0)" style="fill: #f29888"/>
    <path d="M 549.948219 711.565733 
L 553.239075 712.313774 
L 553.040137 713.910714 
L 549.498283 713.311161 
L 549.948219 711.565733 
" clip-path="url(#pe91063fcf0)" style="fill: #f29888"/>
    <path d="M 551.392849 704.284245 
L 555.234041 705.032286 
L 554.834304 707.225978 
L 551.045171 706.679656 
L 551.392849 704.284245 
" clip-path="url(#pe91063fcf0)" style="fill: #f29888"/>
    <path d="M 557.277347 700.941877 
L 560.469663 701.491 
L 560.320924 702.936652 
L 557.078408 702.437958 
L 557.277347 700.941877 
" clip-path="url(#pe91063fcf0)" style="fill: #f29888"/>
    <path d="M 552.142123 700.095779 
L 556.381193 700.74296 
L 556.130195 702.188611 
L 551.941325 701.841206 
L 552.142123 700.095779 
" clip-path="url(#pe91063fcf0)" style="fill: #f29888"/>
    <path d="M 529.152609 718.188833 
L 531.945189 717.69014 
L 532.144128 719.085361 
L 529.451947 719.385138 
L 529.152609 718.188833 
" clip-path="url(#pe91063fcf0)" style="fill: #f29888"/>
    <path d="M 528.654333 714.347771 
L 531.495253 713.899507 
L 532.043729 716.74038 
L 529.202809 717.090587 
L 528.654333 714.347771 
" clip-path="url(#pe91063fcf0)" style="fill: #f29888"/>
    <path d="M 528.254596 702.477181 
L 532.891543 703.275651 
L 532.543865 705.021079 
L 527.905058 704.121749 
L 528.254596 702.477181 
" clip-path="url(#pe91063fcf0)" style="fill: #f29888"/>
    <path d="M 527.456981 699.832424 
L 530.647439 700.482406 
L 530.4485 701.678711 
L 527.256183 701.180017 
L 527.456981 699.832424 
" clip-path="url(#pe91063fcf0)" style="fill: #f29888"/>
    <path d="M 528.204396 696.840261 
L 531.446912 697.338955 
L 531.047176 699.185242 
L 527.955258 698.53526 
L 528.204396 696.840261 
" clip-path="url(#pe91063fcf0)" style="fill: #f29888"/>
    <path d="M 517.433814 694.59614 
L 518.480566 692.749853 
L 520.274734 693.74724 
L 519.278181 695.593527 
L 517.433814 694.59614 
" clip-path="url(#pe91063fcf0)" style="fill: #f29888"/>
    <path d="M 529.650886 692.601365 
L 532.543865 693.100059 
L 532.244527 695.195693 
L 529.351548 694.59614 
L 529.650886 692.601365 
" clip-path="url(#pe91063fcf0)" style="fill: #f29888"/>
    <path d="M 553.138676 696.19308 
L 558.026621 696.540485 
L 557.976421 698.336343 
L 553.138676 697.986136 
L 553.138676 696.19308 
" clip-path="url(#pe91063fcf0)" style="fill: #f29888"/>
    <path d="M 556.654501 693.436257 
L 558.15119 693.537116 
L 558.15119 695.080825 
L 556.630331 695.080825 
L 556.654501 693.436257 
" clip-path="url(#pe91063fcf0)" style="fill: #f29888"/>
    <path d="M 553.737352 692.850712 
L 555.832717 692.9992 
L 555.881057 695.492668 
L 553.837751 695.44504 
L 553.737352 692.850712 
" clip-path="url(#pe91063fcf0)" style="fill: #f29888"/>
    <path d="M 556.429533 691.965391 
L 558.649467 692.113878 
L 558.699666 693.060836 
L 556.330993 692.789076 
L 556.429533 691.965391 
" clip-path="url(#pe91063fcf0)" style="fill: #f29888"/>
    <path d="M 555.28424 682.277286 
L 560.170326 683.072954 
L 559.971387 684.720324 
L 554.984903 684.171201 
L 555.28424 682.277286 
" clip-path="url(#pe91063fcf0)" style="fill: #f29888"/>
    <path d="M 558.275759 675.990383 
L 562.31403 676.091243 
L 562.31403 677.786241 
L 558.22556 677.738613 
L 558.275759 675.990383 
" clip-path="url(#pe91063fcf0)" style="fill: #f29888"/>
    <path d="M 564.359195 666.464774 
L 565.05827 664.36914 
L 568.049789 665.318899 
L 567.350714 667.411731 
L 564.359195 666.464774 
" clip-path="url(#pe91063fcf0)" style="fill: #f29888"/>
    <path d="M 566.45456 659.034798 
L 570.394292 659.880897 
L 570.094954 661.626324 
L 566.054823 660.979143 
L 566.45456 659.034798 
" clip-path="url(#pe91063fcf0)" style="fill: #f29888"/>
    <path d="M 572.03972 639.630571 
L 572.986073 637.837515 
L 575.529515 639.232737 
L 574.631502 640.927735 
L 572.03972 639.630571 
" clip-path="url(#pe91063fcf0)" style="fill: #f29888"/>
    <path d="M 575.181837 631.79996 
L 580.467659 633.996453 
L 579.320507 636.688839 
L 577.524481 635.940798 
L 578.022757 634.744494 
L 574.532962 633.248413 
L 575.181837 631.79996 
" clip-path="url(#pe91063fcf0)" style="fill: #f29888"/>
    <path d="M 575.230177 629.555838 
L 575.879052 627.9617 
L 578.422494 629.057145 
L 577.773619 630.553226 
L 575.230177 629.555838 
" clip-path="url(#pe91063fcf0)" style="fill: #f29888"/>
    <path d="M 575.979451 627.311717 
L 576.726866 625.616719 
L 579.320507 626.813023 
L 578.571233 628.359534 
L 575.979451 627.311717 
" clip-path="url(#pe91063fcf0)" style="fill: #f29888"/>
    <path d="M 579.469247 619.231759 
L 580.266861 617.58719 
L 583.15984 619.184131 
L 582.261826 620.778269 
L 579.469247 619.231759 
" clip-path="url(#pe91063fcf0)" style="fill: #f29888"/>
    <path d="M 582.211627 615.043292 
L 585.255204 616.73829 
L 584.50593 618.483718 
L 581.363813 616.83915 
L 582.211627 615.043292 
" clip-path="url(#pe91063fcf0)" style="fill: #f29888"/>
    <path d="M 586.500896 609.257885 
L 587.748446 608.260498 
L 589.693212 610.555049 
L 588.246723 611.602866 
L 586.500896 609.257885 
" clip-path="url(#pe91063fcf0)" style="fill: #f29888"/>
    <path d="M 588.845399 607.761804 
L 590.291888 606.663557 
L 592.186455 609.058968 
L 590.739965 610.255273 
L 588.845399 607.761804 
" clip-path="url(#pe91063fcf0)" style="fill: #f29888"/>
    <path d="M 606.997168 572.601098 
L 610.089085 572.601098 
L 610.139285 574.346526 
L 607.145907 574.495014 
L 606.997168 572.601098 
" clip-path="url(#pe91063fcf0)" style="fill: #f29888"/>
    <path d="M 616.670798 569.858283 
L 618.018748 570.704381 
L 620.112253 570.606324 
L 620.162453 572.200462 
L 617.470272 572.200462 
L 615.724445 570.953728 
L 616.670798 569.858283 
" clip-path="url(#pe91063fcf0)" style="fill: #f29888"/>
    <path d="M 608.891734 565.168321 
L 610.687761 565.619387 
L 611.037298 563.972017 
L 613.281402 564.57157 
L 612.333189 567.66179 
L 608.393458 566.566345 
L 608.891734 565.168321 
" clip-path="url(#pe91063fcf0)" style="fill: #f29888"/>
    <path d="M 608.04392 562.327448 
L 610.388423 562.624423 
L 610.237825 564.420281 
L 607.794782 564.022447 
L 608.04392 562.327448 
" clip-path="url(#pe91063fcf0)" style="fill: #f29888"/>
    <path d="M 421.086089 395.351918 
L 422.562326 393.253483 
L 427.020786 396.39133 
L 425.544549 398.489766 
L 421.086089 395.351918 
" clip-path="url(#pe91063fcf0)" style="fill: #f29888"/>
    <path d="M 402.962208 389.700991 
L 406.059704 391.68736 
L 404.655977 393.878251 
L 401.558482 391.889079 
L 402.962208 389.700991 
" clip-path="url(#pe91063fcf0)" style="fill: #f29888"/>
    <path d="M 64.922459 733.777213 
L 62.507305 735.536649 
L 61.758031 734.508444 
L 64.171326 732.749008 
L 64.922459 733.777213 
" clip-path="url(#pe91063fcf0)" style="fill: #f29888"/>
    <path d="M 62.652326 728.487698 
L 59.986174 731.407017 
L 59.142079 730.633762 
L 61.80823 727.717245 
L 62.652326 728.487698 
" clip-path="url(#pe91063fcf0)" style="fill: #f29888"/>
    <path d="M 65.002406 727.512724 
L 68.036687 728.826698 
L 67.557003 729.93335 
L 64.522722 728.616574 
L 65.002406 727.512724 
" clip-path="url(#pe91063fcf0)" style="fill: #f29888"/>
    <path d="M 56.596778 725.271404 
L 57.593331 724.870768 
L 58.041408 725.918585 
L 56.994656 726.366849 
L 56.596778 725.271404 
" clip-path="url(#pe91063fcf0)" style="fill: #f29888"/>
    <path d="M 58.513655 722.923622 
L 61.354575 722.999266 
L 61.328546 723.996654 
L 58.487626 723.923811 
L 58.513655 722.923622 
" clip-path="url(#pe91063fcf0)" style="fill: #f29888"/>
    <path d="M 59.268507 720.421748 
L 59.476742 717.082182 
L 60.923232 717.171835 
L 60.714997 720.511401 
L 59.268507 720.421748 
" clip-path="url(#pe91063fcf0)" style="fill: #f29888"/>
    <path d="M 66.07147 716.541463 
L 67.566299 716.591893 
L 67.566299 717.69014 
L 66.121669 717.69014 
L 66.07147 716.541463 
" clip-path="url(#pe91063fcf0)" style="fill: #f29888"/>
    <path d="M 67.73735 714.541085 
L 67.689009 715.888679 
L 65.554601 715.813034 
L 65.6048 714.462639 
L 67.73735 714.541085 
" clip-path="url(#pe91063fcf0)" style="fill: #f29888"/>
    <path d="M 69.196854 705.10793 
L 69.248912 706.391086 
L 65.911575 706.273417 
L 65.959915 704.942633 
L 69.196854 705.10793 
" clip-path="url(#pe91063fcf0)" style="fill: #f29888"/>
    <path d="M 74.609104 704.651261 
L 74.296752 706.169756 
L 71.552512 705.606624 
L 71.863005 704.08813 
L 74.609104 704.651261 
" clip-path="url(#pe91063fcf0)" style="fill: #f29888"/>
    <path d="M 72.255305 698.187855 
L 74.698348 698.235483 
L 74.698348 699.583077 
L 72.305505 699.583077 
L 72.255305 698.187855 
" clip-path="url(#pe91063fcf0)" style="fill: #f29888"/>
    <path d="M 46.67215 683.347516 
L 46.571751 684.395333 
L 46.002924 684.265572 
L 46.371149 683.281965 
L 46.67215 683.347516 
" clip-path="url(#pe91063fcf0)" style="fill: #f29888"/>
    <path d="M 50.262344 678.25972 
L 50.063405 679.257107 
L 48.794191 678.991705 
L 49.621671 678.056982 
L 50.262344 678.25972 
" clip-path="url(#pe91063fcf0)" style="fill: #f29888"/>
    <path d="M 76.094638 675.043426 
L 79.485893 675.343202 
L 79.536093 677.536894 
L 77.790265 677.388407 
L 77.890664 676.690796 
L 76.094638 676.690796 
L 76.094638 675.043426 
" clip-path="url(#pe91063fcf0)" style="fill: #f29888"/>
    <path d="M 116.888243 414.45917 
L 118.68241 413.71113 
L 119.729163 416.154169 
L 117.985195 416.952639 
L 116.888243 414.45917 
" clip-path="url(#pe91063fcf0)" style="fill: #f29888"/>
    <path d="M 102.475407 391.496848 
L 104.81991 390.647948 
L 105.617524 392.342946 
L 104.669312 392.743582 
L 105.117389 393.889457 
L 103.572359 394.287291 
L 102.475407 391.496848 
" clip-path="url(#pe91063fcf0)" style="fill: #f29888"/>
    <path d="M 112.199237 387.507299 
L 113.894865 386.907746 
L 114.843078 389.552503 
L 113.19765 390.250114 
L 112.199237 387.507299 
" clip-path="url(#pe91063fcf0)" style="fill: #f29888"/>
    <path d="M 99.783226 382.271015 
L 101.476995 381.573404 
L 102.624146 384.363848 
L 101.179516 385.111888 
L 99.783226 382.271015 
" clip-path="url(#pe91063fcf0)" style="fill: #f29888"/>
    <path d="M 108.609043 379.676687 
L 110.953546 378.331895 
L 111.80136 379.926034 
L 109.257918 380.973851 
L 108.609043 379.676687 
" clip-path="url(#pe91063fcf0)" style="fill: #f29888"/>
    <path d="M 115.192615 376.138204 
L 116.588905 375.488221 
L 117.685857 377.782772 
L 116.289567 378.480383 
L 115.192615 376.138204 
" clip-path="url(#pe91063fcf0)" style="fill: #f29888"/>
    <path d="M 388.999309 380.225811 
L 392.096804 382.212181 
L 390.691218 384.403071 
L 387.595582 382.416701 
L 388.999309 380.225811 
" clip-path="url(#pe91063fcf0)" style="fill: #f29888"/>
    <path d="M 382.516136 375.140816 
L 385.613631 377.127186 
L 384.209904 379.315275 
L 381.112409 377.328905 
L 382.516136 375.140816 
" clip-path="url(#pe91063fcf0)" style="fill: #f29888"/>
    <path d="M 393.537716 371.949737 
L 396.635212 373.936107 
L 395.229625 376.124195 
L 392.133989 374.137826 
L 393.537716 371.949737 
" clip-path="url(#pe91063fcf0)" style="fill: #f29888"/>
    <path d="M 386.256929 367.06366 
L 389.352565 369.050029 
L 387.948838 371.238118 
L 384.851343 369.251748 
L 386.256929 367.06366 
" clip-path="url(#pe91063fcf0)" style="fill: #f29888"/>
    <path d="M 368.428667 365.466719 
L 371.526163 367.453089 
L 370.120577 369.641178 
L 367.02494 367.654808 
L 368.428667 365.466719 
" clip-path="url(#pe91063fcf0)" style="fill: #f29888"/>
    <path d="M 379.823955 362.524987 
L 382.919591 364.511357 
L 381.515864 366.702247 
L 378.418369 364.713075 
L 379.823955 362.524987 
" clip-path="url(#pe91063fcf0)" style="fill: #f29888"/>
    <path d="M 362.170462 360.6787 
L 365.266099 362.665069 
L 363.862372 364.85596 
L 360.764876 362.866788 
L 362.170462 360.6787 
" clip-path="url(#pe91063fcf0)" style="fill: #f29888"/>
    <path d="M 372.892705 357.53805 
L 375.988341 359.52442 
L 374.584614 361.712508 
L 371.487119 359.726139 
L 372.892705 357.53805 
" clip-path="url(#pe91063fcf0)" style="fill: #f29888"/>
    <path d="M 355.038414 356.215671 
L 358.13591 358.202041 
L 356.732183 360.392931 
L 353.634687 358.40376 
L 355.038414 356.215671 
" clip-path="url(#pe91063fcf0)" style="fill: #f29888"/>
    <path d="M 366.160393 352.750031 
L 369.25603 354.7364 
L 367.852303 356.924489 
L 364.754807 354.938119 
L 366.160393 352.750031 
" clip-path="url(#pe91063fcf0)" style="fill: #f29888"/>
    <path d="M 122.272605 373.146042 
L 124.16903 372.297142 
L 125.314323 374.939097 
L 123.271017 375.687138 
L 122.272605 373.146042 
" clip-path="url(#pe91063fcf0)" style="fill: #f29888"/>
    <path d="M 127.009951 370.602143 
L 128.805977 369.904533 
L 129.80253 372.297142 
L 128.008363 372.944323 
L 127.009951 370.602143 
" clip-path="url(#pe91063fcf0)" style="fill: #f29888"/>
    <path d="M 138.431268 368.159105 
L 141.173648 367.310205 
L 141.772324 369.156492 
L 139.078283 369.904533 
L 138.431268 368.159105 
" clip-path="url(#pe91063fcf0)" style="fill: #f29888"/>
    <path d="M 139.427821 365.141728 
L 142.220401 364.19477 
L 142.718677 365.741281 
L 139.676959 366.688239 
L 139.427821 365.141728 
" clip-path="url(#pe91063fcf0)" style="fill: #f29888"/>
    <path d="M 144.016427 363.696077 
L 146.011393 363.197383 
L 146.658409 365.889768 
L 144.713643 366.287603 
L 144.016427 363.696077 
" clip-path="url(#pe91063fcf0)" style="fill: #f29888"/>
    <path d="M 155.934162 362.348483 
L 157.53125 361.79936 
L 158.477603 364.343258 
L 156.781976 365.040869 
L 155.934162 362.348483 
" clip-path="url(#pe91063fcf0)" style="fill: #f29888"/>
    <path d="M 158.628202 361.875004 
L 160.072832 361.37631 
L 161.021045 363.670862 
L 159.624755 364.219985 
L 158.628202 361.875004 
" clip-path="url(#pe91063fcf0)" style="fill: #f29888"/>
    <path d="M 164.910577 360.129576 
L 166.556005 359.482395 
L 167.504218 361.975864 
L 165.908989 362.623045 
L 164.910577 360.129576 
" clip-path="url(#pe91063fcf0)" style="fill: #f29888"/>
    <path d="M 159.725154 354.545888 
L 161.219984 353.996765 
L 161.818659 356.041969 
L 160.37217 356.439803 
L 159.725154 354.545888 
" clip-path="url(#pe91063fcf0)" style="fill: #f29888"/>
    <path d="M 197.72432 348.861341 
L 199.319549 348.1133 
L 200.368161 350.455479 
L 198.771073 351.055032 
L 197.72432 348.861341 
" clip-path="url(#pe91063fcf0)" style="fill: #f29888"/>
    <path d="M 359.876159 348.586779 
L 362.971795 350.573149 
L 361.568068 352.764039 
L 358.470573 350.777669 
L 359.876159 348.586779 
" clip-path="url(#pe91063fcf0)" style="fill: #f29888"/>
    <path d="M 393.989512 332.877928 
L 399.226993 333.567134 
L 398.767761 337.055188 
L 393.530279 336.368784 
L 393.989512 332.877928 
" clip-path="url(#pe91063fcf0)" style="fill: #f29888"/>
    <path d="M 328.828695 307.122361 
L 329.577969 305.329305 
L 330.72512 305.827999 
L 329.925647 307.522997 
L 328.828695 307.122361 
" clip-path="url(#pe91063fcf0)" style="fill: #f29888"/>
    <path d="M 371.466667 281.268736 
L 374.209047 281.669372 
L 373.511832 287.603266 
L 370.769452 287.152201 
L 371.466667 281.268736 
" clip-path="url(#pe91063fcf0)" style="fill: #f29888"/>
    <path d="M 361.843236 280.173291 
L 364.435018 280.372208 
L 364.03714 285.109798 
L 361.543898 284.908079 
L 361.843236 280.173291 
" clip-path="url(#pe91063fcf0)" style="fill: #f29888"/>
    <path d="M 383.4848 248.16164 
L 387.874468 248.660333 
L 387.67367 251.94947 
L 383.185463 251.649694 
L 383.4848 248.16164 
" clip-path="url(#pe91063fcf0)" style="fill: #f29888"/>
    <path d="M 374.209047 246.365782 
L 379.695667 247.063393 
L 379.295931 250.952083 
L 373.612231 250.453389 
L 374.209047 246.365782 
" clip-path="url(#pe91063fcf0)" style="fill: #f29888"/>
    <path d="M 392.113538 246.040791 
L 394.257242 246.040791 
L 394.156843 248.932093 
L 392.013139 248.834036 
L 392.113538 246.040791 
" clip-path="url(#pe91063fcf0)" style="fill: #f29888"/>
    <path d="M 362.940188 245.068618 
L 368.824686 245.668171 
L 368.424949 249.556861 
L 362.440052 249.159027 
L 362.940188 245.068618 
" clip-path="url(#pe91063fcf0)" style="fill: #f29888"/>
    <path d="M 340.593971 242.345415 
L 344.881381 242.605968 
L 344.593199 247.343558 
L 340.305789 247.083004 
L 340.593971 242.345415 
" clip-path="url(#pe91063fcf0)" style="fill: #f29888"/>
    <path d="M 200.766038 347.962011 
L 203.30948 346.816136 
L 204.058754 348.460705 
L 201.414914 349.508522 
L 200.766038 347.962011 
" clip-path="url(#pe91063fcf0)" style="fill: #f29888"/>
    <path d="M 204.856368 347.166342 
L 206.650536 346.317442 
L 207.349611 347.813524 
L 205.603783 348.611994 
L 204.856368 347.166342 
" clip-path="url(#pe91063fcf0)" style="fill: #f29888"/>
    <path d="M 207.598749 344.720502 
L 210.391329 343.574627 
L 211.088544 345.468543 
L 208.346164 346.566789 
L 207.598749 344.720502 
" clip-path="url(#pe91063fcf0)" style="fill: #f29888"/>
    <path d="M 204.406432 343.524198 
L 205.653983 343.025504 
L 206.401398 344.871791 
L 205.204047 345.370485 
L 204.406432 343.524198 
" clip-path="url(#pe91063fcf0)" style="fill: #f29888"/>
    <path d="M 218.270792 339.461805 
L 219.468143 339.01074 
L 220.115159 340.459193 
L 218.869467 341.055944 
L 218.270792 339.461805 
" clip-path="url(#pe91063fcf0)" style="fill: #f29888"/>
    <path d="M 194.083927 249.881853 
L 198.971871 251.475991 
L 198.521935 252.722726 
L 193.58565 250.977298 
L 194.083927 249.881853 
" clip-path="url(#pe91063fcf0)" style="fill: #f29888"/>
    <path d="M 258.153369 223.140105 
L 258.982591 223.229758 
L 258.889629 224.081459 
L 260.665204 224.274773 
L 260.520183 225.608358 
L 257.915386 225.325392 
L 258.153369 223.140105 
" clip-path="url(#pe91063fcf0)" style="fill: #f29888"/>
    <path d="M 253.828775 214.673519 
L 256.963455 215.124584 
L 256.06916 221.316231 
L 252.93448 220.862363 
L 253.828775 214.673519 
" clip-path="url(#pe91063fcf0)" style="fill: #f29888"/>
    <path d="M 258.963998 209.193492 
L 261.50744 209.392409 
L 261.407041 210.88849 
L 258.7632 210.689573 
L 258.963998 209.193492 
" clip-path="url(#pe91063fcf0)" style="fill: #f29888"/>
    <path d="M 244.865374 198.079347 
L 250.24044 198.807776 
L 249.922509 201.161162 
L 244.547444 200.432733 
L 244.865374 198.079347 
" clip-path="url(#pe91063fcf0)" style="fill: #f29888"/>
    <path d="M 282.224961 313.860329 
L 283.059761 315.877517 
L 277.225463 318.292539 
L 276.390663 316.275351 
L 282.224961 313.860329 
" clip-path="url(#pe91063fcf0)" style="fill: #f29888"/>
    <path d="M 299.328119 307.724716 
L 300.802497 311.459315 
L 296.979898 312.969404 
L 295.505519 309.232003 
L 299.328119 307.724716 
" clip-path="url(#pe91063fcf0)" style="fill: #f29888"/>
    <path d="M 283.052324 308.413922 
L 290.396325 304.693331 
L 291.984117 307.825575 
L 284.640115 311.546166 
L 283.052324 308.413922 
" clip-path="url(#pe91063fcf0)" style="fill: #f29888"/>
    <path d="M 271.904315 304.133001 
L 267.888355 306.127775 
L 266.088609 302.499639 
L 270.10457 300.507666 
L 268.542807 297.364214 
L 272.214808 295.54034 
L 274.791716 300.728996 
L 279.564388 298.3588 
L 281.624427 302.508044 
L 276.851755 304.878239 
L 279.157214 309.523375 
L 275.485213 311.344447 
L 271.904315 304.133001 
" clip-path="url(#pe91063fcf0)" style="fill: #f29888"/>
    <path d="M 298.510053 295.206944 
L 302.399585 295.904555 
L 302.150447 297.498694 
L 300.852696 297.249347 
L 300.553359 298.546511 
L 298.110316 298.246734 
L 298.510053 295.206944 
" clip-path="url(#pe91063fcf0)" style="fill: #f29888"/>
    <path d="M 282.929614 288.61186 
L 286.547697 286.336921 
L 288.760193 289.858595 
L 285.14211 292.133534 
L 282.929614 288.61186 
" clip-path="url(#pe91063fcf0)" style="fill: #f29888"/>
    <path d="M 274.821464 280.845687 
L 277.415105 279.349606 
L 278.660797 281.442438 
L 276.018815 282.840462 
L 274.821464 280.845687 
" clip-path="url(#pe91063fcf0)" style="fill: #f29888"/>
    <path d="M 295.167138 275.95961 
L 300.953095 276.856138 
L 300.603558 278.901342 
L 295.068598 278.002012 
L 295.167138 275.95961 
" clip-path="url(#pe91063fcf0)" style="fill: #f29888"/>
    <path d="M 258.501047 250.952083 
L 266.11278 250.809199 
L 266.183431 254.594228 
L 258.571698 254.73431 
L 258.501047 250.952083 
" clip-path="url(#pe91063fcf0)" style="fill: #f29888"/>
    <path d="M 307.21316 224.344814 
L 310.34784 224.798681 
L 309.453545 230.987526 
L 306.318865 230.53646 
L 307.21316 224.344814 
" clip-path="url(#pe91063fcf0)" style="fill: #f29888"/>
    <path d="M 353.166159 243.073843 
L 356.756353 243.37362 
L 356.457015 246.564699 
L 353.06576 246.46384 
L 353.166159 243.073843 
" clip-path="url(#pe91063fcf0)" style="fill: #f29888"/>
    <path d="M 328.131479 240.580375 
L 331.721674 240.880152 
L 331.321937 246.166865 
L 327.633203 245.766229 
L 328.131479 240.580375 
" clip-path="url(#pe91063fcf0)" style="fill: #f29888"/>
    <path d="M 355.559002 225.571937 
L 360.047209 226.07063 
L 359.747871 228.964735 
L 355.259664 228.564099 
L 355.559002 225.571937 
" clip-path="url(#pe91063fcf0)" style="fill: #f29888"/>
    <path d="M 333.417301 222.980411 
L 345.085897 224.577351 
L 344.587621 229.861263 
L 333.117964 228.068207 
L 333.417301 222.980411 
" clip-path="url(#pe91063fcf0)" style="fill: #f29888"/>
    <path d="M 392.117256 218.167176 
L 398.243455 219.013274 
L 397.843718 221.91018 
L 391.71566 221.064082 
L 392.117256 218.167176 
" clip-path="url(#pe91063fcf0)" style="fill: #f29888"/>
    <path d="M 381.818921 216.671095 
L 387.946979 217.517193 
L 387.545383 220.414099 
L 381.419184 219.568001 
L 381.818921 216.671095 
" clip-path="url(#pe91063fcf0)" style="fill: #f29888"/>
    <path d="M 382.417596 208.691996 
L 388.543795 209.538095 
L 388.144058 212.437802 
L 382.017859 211.591704 
L 382.417596 208.691996 
" clip-path="url(#pe91063fcf0)" style="fill: #f29888"/>
    <path d="M 352.268145 204.032853 
L 358.152643 204.831323 
L 358.152643 202.836548 
L 362.940188 203.436101 
L 363.239526 205.131099 
L 368.923225 206.128487 
L 368.525348 209.319566 
L 351.769869 207.523708 
L 352.268145 204.032853 
" clip-path="url(#pe91063fcf0)" style="fill: #f29888"/>
    <path d="M 318.956125 199.645469 
L 331.621275 201.741103 
L 331.522735 204.831323 
L 318.656788 202.836548 
L 318.956125 199.645469 
" clip-path="url(#pe91063fcf0)" style="fill: #f29888"/>
    <path d="M 352.268145 192.265923 
L 361.642438 193.263311 
L 361.443499 196.555249 
L 351.868408 195.658721 
L 352.268145 192.265923 
" clip-path="url(#pe91063fcf0)" style="fill: #f29888"/>
    <path d="M 297.338731 222.848733 
L 300.473411 223.3026 
L 299.579116 229.494247 
L 296.446295 229.040379 
L 297.338731 222.848733 
" clip-path="url(#pe91063fcf0)" style="fill: #f29888"/>
    <path d="M 284.97106 221.055677 
L 288.105741 221.506743 
L 287.211446 227.698389 
L 284.078625 227.244522 
L 284.97106 221.055677 
" clip-path="url(#pe91063fcf0)" style="fill: #f29888"/>
    <path d="M 279.50861 221.758891 
L 281.304637 222.058668 
L 281.055499 223.554749 
L 279.160932 223.204543 
L 279.50861 221.758891 
" clip-path="url(#pe91063fcf0)" style="fill: #f29888"/>
    <path d="M 309.131896 221.585189 
L 311.42434 221.784106 
L 311.225402 223.03084 
L 309.131896 222.731064 
L 309.131896 221.585189 
" clip-path="url(#pe91063fcf0)" style="fill: #f29888"/>
    <path d="M 295.466475 219.864976 
L 296.963164 220.063893 
L 296.814425 222.308015 
L 295.267537 222.109098 
L 295.466475 219.864976 
" clip-path="url(#pe91063fcf0)" style="fill: #f29888"/>
    <path d="M 261.524173 215.665303 
L 264.365093 216.032319 
L 263.534012 222.467709 
L 260.693092 222.100693 
L 261.524173 215.665303 
" clip-path="url(#pe91063fcf0)" style="fill: #f29888"/>
    <path d="M 269.885179 216.74674 
L 271.281469 216.898029 
L 271.23127 218.842374 
L 269.585842 218.643457 
L 269.885179 216.74674 
" clip-path="url(#pe91063fcf0)" style="fill: #f29888"/>
    <path d="M 287.687411 209.7174 
L 289.33284 209.966747 
L 289.083701 211.513258 
L 287.538672 211.263911 
L 287.687411 209.7174 
" clip-path="url(#pe91063fcf0)" style="fill: #f29888"/>
    <path d="M 267.306412 208.874104 
L 272.681478 209.602533 
L 272.363548 211.955918 
L 266.988482 211.22749 
L 267.306412 208.874104 
" clip-path="url(#pe91063fcf0)" style="fill: #f29888"/>
    <path d="M 299.655345 208.395022 
L 300.503159 203.360457 
L 302.698923 203.758291 
L 301.70051 208.745228 
L 299.655345 208.395022 
" clip-path="url(#pe91063fcf0)" style="fill: #f29888"/>
    <path d="M 289.555948 202.343458 
L 296.096758 203.287614 
L 295.693303 206.072454 
L 289.154352 205.128298 
L 289.555948 202.343458 
" clip-path="url(#pe91063fcf0)" style="fill: #f29888"/>
    <path d="M 257.316711 199.81637 
L 265.581037 201.17517 
L 264.809452 205.865132 
L 262.411031 205.470099 
L 262.708509 203.668638 
L 259.311676 203.11111 
L 259.071834 204.562365 
L 256.604621 204.158927 
L 257.316711 199.81637 
" clip-path="url(#pe91063fcf0)" style="fill: #f29888"/>
    <path d="M 290.926209 196.160217 
L 297.467019 197.104373 
L 297.065423 199.889213 
L 290.524613 198.945057 
L 290.926209 196.160217 
" clip-path="url(#pe91063fcf0)" style="fill: #f29888"/>
    <path d="M 306.787393 192.067006 
L 313.668444 192.865476 
L 313.071628 198.351107 
L 306.188718 197.552637 
L 306.787393 192.067006 
" clip-path="url(#pe91063fcf0)" style="fill: #f29888"/>
    <path d="M 276.492922 191.470255 
L 282.32722 192.016576 
L 281.977682 195.756779 
L 276.141525 195.207656 
L 276.492922 191.470255 
" clip-path="url(#pe91063fcf0)" style="fill: #f29888"/>
    <path d="M 259.311676 189.150489 
L 265.097634 189.848099 
L 264.498958 193.238096 
L 258.913799 192.641344 
L 259.311676 189.150489 
" clip-path="url(#pe91063fcf0)" style="fill: #f29888"/>
    <path d="M 284.695893 188.67701 
L 286.939996 188.875927 
L 286.789398 190.173091 
L 284.595494 189.974174 
L 284.695893 188.67701 
" clip-path="url(#pe91063fcf0)" style="fill: #f29888"/>
    <path d="M 268.637629 185.53636 
L 270.682794 185.883765 
L 270.433655 187.080069 
L 268.43869 186.783094 
L 268.637629 185.53636 
" clip-path="url(#pe91063fcf0)" style="fill: #f29888"/>
    <path d="M 292.44149 183.844164 
L 297.814697 184.572593 
L 297.496767 186.925979 
L 292.121701 186.19755 
L 292.44149 183.844164 
" clip-path="url(#pe91063fcf0)" style="fill: #f29888"/>
    <path d="M 310.727125 180.874415 
L 313.220367 181.22182 
L 312.87083 183.365082 
L 310.528186 183.068107 
L 310.727125 180.874415 
" clip-path="url(#pe91063fcf0)" style="fill: #f29888"/>
    <path d="M 610.338224 556.640099 
L 613.53054 556.889446 
L 613.430141 558.786163 
L 610.237825 558.587246 
L 610.338224 556.640099 
" clip-path="url(#pe91063fcf0)" style="fill: #f29888"/>
    <path d="M 607.495444 555.244878 
L 609.140873 555.244878 
L 609.191072 558.088552 
L 607.396905 558.038122 
L 607.495444 555.244878 
" clip-path="url(#pe91063fcf0)" style="fill: #f29888"/>
    <path d="M 607.595843 551.056411 
L 609.042333 550.905122 
L 609.140873 551.602733 
L 610.687761 551.653162 
L 610.8365 553.250103 
L 607.646043 553.348161 
L 607.595843 551.056411 
" clip-path="url(#pe91063fcf0)" style="fill: #f29888"/>
    <path d="M 603.706311 547.814902 
L 605.550678 547.86253 
L 605.500479 549.759247 
L 603.804851 549.658388 
L 603.706311 547.814902 
" clip-path="url(#pe91063fcf0)" style="fill: #f29888"/>
    <path d="M 608.194519 547.363836 
L 611.037298 547.414266 
L 611.135838 549.958164 
L 608.194519 550.059024 
L 608.194519 547.363836 
" clip-path="url(#pe91063fcf0)" style="fill: #f29888"/>
    <path d="M 605.584145 542.802751 
L 608.776461 542.85318 
L 608.92706 544.298832 
L 605.634344 544.099914 
L 605.584145 542.802751 
" clip-path="url(#pe91063fcf0)" style="fill: #f29888"/>
    <path d="M 604.587592 540.359712 
L 608.726262 540.707116 
L 608.627722 542.253627 
L 604.637791 542.10514 
L 604.587592 540.359712 
" clip-path="url(#pe91063fcf0)" style="fill: #f29888"/>
    <path d="M 604.304987 530.657598 
L 605.749617 530.708028 
L 605.701277 532.153679 
L 606.74803 532.204109 
L 606.498891 533.999967 
L 605.452139 533.798248 
L 605.500479 534.997354 
L 603.90525 534.795635 
L 604.304987 530.657598 
" clip-path="url(#pe91063fcf0)" style="fill: #f29888"/>
    <path d="M 606.798229 529.511724 
L 608.992133 529.808698 
L 608.891734 531.456069 
L 606.69783 531.105862 
L 606.798229 529.511724 
" clip-path="url(#pe91063fcf0)" style="fill: #f29888"/>
    <path d="M 570.842369 480.712586 
L 572.887534 481.309338 
L 572.387398 482.805419 
L 570.394292 482.306725 
L 570.842369 480.712586 
" clip-path="url(#pe91063fcf0)" style="fill: #f29888"/>
    <path d="M 530.4987 684.944456 
L 532.692604 685.294662 
L 532.493665 686.639454 
L 530.4485 686.29205 
L 530.4987 684.944456 
" clip-path="url(#pe91063fcf0)" style="fill: #f29888"/>
    <path d="M 531.097375 681.204254 
L 534.189293 681.602088 
L 533.988495 683.448375 
L 530.747838 683.050541 
L 531.097375 681.204254 
" clip-path="url(#pe91063fcf0)" style="fill: #f29888"/>
    <path d="M 531.195915 677.662968 
L 535.734322 678.25972 
L 535.585583 679.657743 
L 531.097375 679.159049 
L 531.195915 677.662968 
" clip-path="url(#pe91063fcf0)" style="fill: #f29888"/>
    <path d="M 532.742803 674.071253 
L 535.535383 674.670806 
L 535.135646 677.012985 
L 532.294726 676.365804 
L 532.742803 674.071253 
" clip-path="url(#pe91063fcf0)" style="fill: #f29888"/>
    <path d="M 533.24108 671.925189 
L 536.134059 672.625602 
L 535.784522 674.020823 
L 532.793003 673.323213 
L 533.24108 671.925189 
" clip-path="url(#pe91063fcf0)" style="fill: #f29888"/>
    <path d="M 484.071594 391.746195 
L 485.467884 392.04317 
L 485.168546 393.74097 
L 485.966161 393.939887 
L 485.815562 394.836415 
L 483.571458 394.037945 
L 484.071594 391.746195 
" clip-path="url(#pe91063fcf0)" style="fill: #f29888"/>
    <path d="M 480.066789 386.294184 
L 484.22777 387.347605 
L 483.387394 390.664758 
L 479.224553 389.611338 
L 480.066789 386.294184 
" clip-path="url(#pe91063fcf0)" style="fill: #f29888"/>
    <path d="M 471.553325 384.714054 
L 475.243918 385.610582 
L 474.795841 387.706216 
L 471.105248 386.658399 
L 471.553325 384.714054 
" clip-path="url(#pe91063fcf0)" style="fill: #f29888"/>
    <path d="M 466.118764 283.263511 
L 467.713992 282.417412 
L 468.710546 284.311328 
L 467.165516 285.160228 
L 466.118764 283.263511 
" clip-path="url(#pe91063fcf0)" style="fill: #f29888"/>
    <path d="M 576.976004 468.444162 
L 578.022757 468.693508 
L 577.62488 470.287647 
L 576.626467 469.990672 
L 576.976004 468.444162 
" clip-path="url(#pe91063fcf0)" style="fill: #f29888"/>
    <path d="M 573.584749 465.900263 
L 576.626467 466.897651 
L 576.077991 468.693508 
L 573.036273 467.696121 
L 573.584749 465.900263 
" clip-path="url(#pe91063fcf0)" style="fill: #f29888"/>
    <path d="M 395.832019 385.01383 
L 398.927656 387.0002 
L 397.523929 389.188289 
L 394.426433 387.201919 
L 395.832019 385.01383 
" clip-path="url(#pe91063fcf0)" style="fill: #f29888"/>
    <path d="M 463.010113 382.304635 
L 467.172953 383.358055 
L 466.332576 386.675209 
L 462.169736 385.621788 
L 463.010113 382.304635 
" clip-path="url(#pe91063fcf0)" style="fill: #f29888"/>
    <path d="M 406.753201 381.721892 
L 409.850696 383.708262 
L 408.446969 385.899152 
L 405.349474 383.912782 
L 406.753201 381.721892 
" clip-path="url(#pe91063fcf0)" style="fill: #f29888"/>
    <path d="M 453.834759 380.508777 
L 457.997599 381.564999 
L 457.157222 384.882153 
L 452.994382 383.825931 
L 453.834759 380.508777 
" clip-path="url(#pe91063fcf0)" style="fill: #f29888"/>
    <path d="M 445.083312 378.191813 
L 449.246152 379.245233 
L 448.405775 382.562387 
L 444.242935 381.508966 
L 445.083312 378.191813 
" clip-path="url(#pe91063fcf0)" style="fill: #f29888"/>
    <path d="M 465.719027 378.429953 
L 467.713992 378.928647 
L 467.464854 380.626447 
L 465.36949 380.127753 
L 465.719027 378.429953 
" clip-path="url(#pe91063fcf0)" style="fill: #f29888"/>
    <path d="M 400.169629 376.984302 
L 403.267124 378.970672 
L 401.863397 381.15876 
L 398.765902 379.17239 
L 400.169629 376.984302 
" clip-path="url(#pe91063fcf0)" style="fill: #f29888"/>
    <path d="M 457.125615 365.847744 
L 461.288456 366.903966 
L 460.448079 370.221119 
L 456.285238 369.164897 
L 457.125615 365.847744 
" clip-path="url(#pe91063fcf0)" style="fill: #f29888"/>
    <path d="M 448.05066 363.953828 
L 452.213501 365.007249 
L 451.373124 368.324402 
L 447.210283 367.270982 
L 448.05066 363.953828 
" clip-path="url(#pe91063fcf0)" style="fill: #f29888"/>
    <path d="M 428.199545 337.565088 
L 433.437027 338.254294 
L 432.977794 341.742348 
L 427.740312 341.055944 
L 428.199545 337.565088 
" clip-path="url(#pe91063fcf0)" style="fill: #f29888"/>
    <path d="M 417.626042 335.97095 
L 422.863523 336.657354 
L 422.40615 340.14821 
L 417.168668 339.459004 
L 417.626042 335.97095 
" clip-path="url(#pe91063fcf0)" style="fill: #f29888"/>
    <path d="M 419.022332 324.201218 
L 424.259813 324.890424 
L 423.80244 328.378478 
L 418.564958 327.692074 
L 419.022332 324.201218 
" clip-path="url(#pe91063fcf0)" style="fill: #f29888"/>
    <path d="M 395.685139 321.309916 
L 400.922621 321.999122 
L 400.463389 325.487176 
L 395.225907 324.79797 
L 395.685139 321.309916 
" clip-path="url(#pe91063fcf0)" style="fill: #f29888"/>
    <path d="M 420.020744 313.431676 
L 425.258226 314.118081 
L 424.798993 317.608936 
L 419.561512 316.919731 
L 420.020744 313.431676 
" clip-path="url(#pe91063fcf0)" style="fill: #f29888"/>
    <path d="M 396.707722 310.338655 
L 401.945204 311.027861 
L 401.485971 314.515915 
L 396.248489 313.829511 
L 396.707722 310.338655 
" clip-path="url(#pe91063fcf0)" style="fill: #f29888"/>
    <path d="M 462.179032 285.409575 
L 463.326184 285.109798 
L 463.026846 284.412187 
L 463.923 284.112411 
L 464.521676 284.961311 
L 465.27095 284.462617 
L 466.61704 287.751754 
L 465.27095 288.200018 
L 464.722474 287.20263 
L 463.424724 287.852613 
L 462.179032 285.409575 
" clip-path="url(#pe91063fcf0)" style="fill: #f29888"/>
    <path d="M 422.01385 223.053254 
L 428.140049 223.899352 
L 427.740312 226.796258 
L 421.612254 225.95016 
L 422.01385 223.053254 
" clip-path="url(#pe91063fcf0)" style="fill: #f29888"/>
    <path d="M 412.537299 221.257396 
L 418.665357 222.103494 
L 418.265621 225.003202 
L 412.137562 224.157104 
L 412.537299 221.257396 
" clip-path="url(#pe91063fcf0)" style="fill: #f29888"/>
    <path d="M 403.163006 219.960232 
L 409.289205 220.80633 
L 408.889469 223.706038 
L 402.76327 222.85994 
L 403.163006 219.960232 
" clip-path="url(#pe91063fcf0)" style="fill: #f29888"/>
    <path d="M 393.857506 208.994575 
L 401.339091 210.190879 
L 400.740416 214.180428 
L 393.459628 213.283901 
L 393.857506 208.994575 
" clip-path="url(#pe91063fcf0)" style="fill: #f29888"/>
    <path d="M 393.450332 192.338766 
L 400.125007 193.260509 
L 399.77547 195.784795 
L 393.100795 194.863053 
L 393.450332 192.338766 
" clip-path="url(#pe91063fcf0)" style="fill: #f29888"/>
    <path d="M 384.185734 191.433833 
L 389.770894 192.052998 
L 389.518037 194.322334 
L 383.932878 193.70317 
L 384.185734 191.433833 
" clip-path="url(#pe91063fcf0)" style="fill: #f29888"/>
    <path d="M 340.173783 185.160939 
L 342.668884 185.511145 
L 342.417887 187.45549 
L 339.924645 187.155714 
L 340.173783 185.160939 
" clip-path="url(#pe91063fcf0)" style="fill: #f29888"/>
    <path d="M 332.892995 184.113122 
L 335.386237 184.463328 
L 335.137099 186.407673 
L 332.643857 186.107897 
L 332.892995 184.113122 
" clip-path="url(#pe91063fcf0)" style="fill: #f29888"/>
    <path d="M 325.487639 183.166165 
L 327.980881 183.516371 
L 327.731743 185.460716 
L 325.2385 185.160939 
L 325.487639 183.166165 
" clip-path="url(#pe91063fcf0)" style="fill: #f29888"/>
    <path d="M 334.289285 177.532047 
L 336.784387 177.882253 
L 336.533389 179.826598 
L 334.040147 179.526821 
L 334.289285 177.532047 
" clip-path="url(#pe91063fcf0)" style="fill: #f29888"/>
    <path d="M 326.460022 176.136825 
L 328.953264 176.487031 
L 328.704126 178.431376 
L 326.210883 178.1316 
L 326.460022 176.136825 
" clip-path="url(#pe91063fcf0)" style="fill: #f29888"/>
    <path d="M 318.956125 175.338355 
L 321.797046 175.786619 
L 321.598107 177.532047 
L 318.656788 177.134212 
L 318.956125 175.338355 
" clip-path="url(#pe91063fcf0)" style="fill: #f29888"/>
    <path d="M 352.915161 153.451866 
L 357.20443 154.099047 
L 356.854893 156.393598 
L 352.567483 155.645558 
L 352.915161 153.451866 
" clip-path="url(#pe91063fcf0)" style="fill: #f29888"/>
    <path d="M 341.289327 151.272183 
L 346.472891 152.336809 
L 345.991348 154.68179 
L 340.807784 153.619965 
L 341.289327 151.272183 
" clip-path="url(#pe91063fcf0)" style="fill: #f29888"/>
    <path d="M 235.589621 197.107174 
L 240.964687 197.835603 
L 240.646756 200.188989 
L 235.271691 199.46056 
L 235.589621 197.107174 
" clip-path="url(#pe91063fcf0)" style="fill: #f29888"/>
    <path d="M 248.555967 188.929158 
L 253.931033 189.657587 
L 253.611243 192.013775 
L 248.236178 191.285346 
L 248.555967 188.929158 
" clip-path="url(#pe91063fcf0)" style="fill: #f29888"/>
    <path d="M 241.559644 176.585089 
L 243.353811 176.985725 
L 243.154872 179.378334 
L 241.310505 179.028128 
L 241.559644 176.585089 
" clip-path="url(#pe91063fcf0)" style="fill: #f29888"/>
    <path d="M 231.785614 175.287925 
L 233.431042 175.537272 
L 233.181904 177.882253 
L 231.436077 177.632906 
L 231.785614 175.287925 
" clip-path="url(#pe91063fcf0)" style="fill: #f29888"/>
    <path d="M 246.546128 174.268125 
L 248.740032 174.615529 
L 248.390495 176.96051 
L 246.29699 176.660734 
L 246.546128 174.268125 
" clip-path="url(#pe91063fcf0)" style="fill: #f29888"/>
    <path d="M 249.836984 171.973573 
L 254.724929 172.721614 
L 254.425591 175.36357 
L 249.388907 174.467042 
L 249.836984 171.973573 
" clip-path="url(#pe91063fcf0)" style="fill: #f29888"/>
    <path d="M 239.713418 170.152501 
L 245.298577 170.852913 
L 244.9007 173.643357 
L 239.41408 172.746829 
L 239.713418 170.152501 
" clip-path="url(#pe91063fcf0)" style="fill: #f29888"/>
    <path d="M 229.377897 169.701435 
L 235.968906 170.415856 
L 235.688161 172.998977 
L 229.097152 172.284556 
L 229.377897 169.701435 
" clip-path="url(#pe91063fcf0)" style="fill: #f29888"/>
    <path d="M 258.209146 137.684181 
L 263.390851 138.748808 
L 262.909307 141.09659 
L 257.727603 140.031963 
L 258.209146 137.684181 
" clip-path="url(#pe91063fcf0)" style="fill: #f29888"/>
    <path d="M 248.135779 136.314174 
L 253.317483 137.378801 
L 252.83594 139.723782 
L 247.652376 138.661956 
L 248.135779 136.314174 
" clip-path="url(#pe91063fcf0)" style="fill: #f29888"/>
    <path d="M 293.438044 177.761782 
L 298.813109 178.490211 
L 298.49332 180.843597 
L 293.118254 180.115168 
L 293.438044 177.761782 
" clip-path="url(#pe91063fcf0)" style="fill: #f29888"/>
    <path d="M 282.068785 176.663535 
L 287.441992 177.391964 
L 287.124061 179.748152 
L 281.748996 179.019723 
L 282.068785 176.663535 
" clip-path="url(#pe91063fcf0)" style="fill: #f29888"/>
    <path d="M 273.374975 175.215082 
L 278.761196 176.16204 
L 278.461858 178.156815 
L 276.318153 177.806608 
L 276.018815 179.353119 
L 274.074049 179.002913 
L 274.172589 177.806608 
L 273.075637 177.209857 
L 273.374975 175.215082 
" clip-path="url(#pe91063fcf0)" style="fill: #f29888"/>
    <path d="M 259.099723 173.8871 
L 265.690732 174.604323 
L 265.409986 177.187444 
L 258.818977 176.473023 
L 259.099723 173.8871 
" clip-path="url(#pe91063fcf0)" style="fill: #f29888"/>
    <path d="M 304.818457 172.895316 
L 307.311699 173.245522 
L 307.062561 175.189867 
L 304.56746 174.890091 
L 304.818457 172.895316 
" clip-path="url(#pe91063fcf0)" style="fill: #f29888"/>
    <path d="M 296.663827 173.892703 
L 297.262502 170.004013 
L 299.906343 170.502707 
L 299.307667 174.441827 
L 296.663827 173.892703 
" clip-path="url(#pe91063fcf0)" style="fill: #f29888"/>
    <path d="M 309.871874 146.484163 
L 315.055438 147.54879 
L 314.573894 149.896572 
L 309.390331 148.831945 
L 309.871874 146.484163 
" clip-path="url(#pe91063fcf0)" style="fill: #f29888"/>
    <path d="M 300.198244 144.590248 
L 305.381807 145.654875 
L 304.898405 148.002657 
L 299.7167 146.93803 
L 300.198244 144.590248 
" clip-path="url(#pe91063fcf0)" style="fill: #f29888"/>
    <path d="M 289.425802 143.195026 
L 294.609365 144.259653 
L 294.127822 146.604634 
L 288.944258 145.542809 
L 289.425802 143.195026 
" clip-path="url(#pe91063fcf0)" style="fill: #f29888"/>
    <path d="M 278.854158 141.399168 
L 284.037721 142.463795 
L 283.556178 144.811578 
L 278.372614 143.746951 
L 278.854158 141.399168 
" clip-path="url(#pe91063fcf0)" style="fill: #f29888"/>
    <path d="M 268.78079 139.70417 
L 273.964354 140.768797 
L 273.480951 143.11658 
L 268.299247 142.051953 
L 268.78079 139.70417 
" clip-path="url(#pe91063fcf0)" style="fill: #f29888"/>
    <path d="M 300.428789 108.255651 
L 302.871832 108.801972 
L 302.524154 110.099136 
L 300.129452 109.550013 
L 300.428789 108.255651 
" clip-path="url(#pe91063fcf0)" style="fill: #f29888"/>
    <path d="M 314.605502 107.230247 
L 319.774191 108.490989 
L 319.216419 110.777135 
L 314.047729 109.513591 
L 314.605502 107.230247 
" clip-path="url(#pe91063fcf0)" style="fill: #f29888"/>
    <path d="M 309.579973 106.235661 
L 312.87083 107.081759 
L 312.322354 109.076534 
L 309.131896 108.129576 
L 309.579973 106.235661 
" clip-path="url(#pe91063fcf0)" style="fill: #f29888"/>
    <path d="M 299.744589 103.739391 
L 304.913279 105.000133 
L 304.355506 107.28628 
L 299.186817 106.022736 
L 299.744589 103.739391 
" clip-path="url(#pe91063fcf0)" style="fill: #f29888"/>
    <path d="M 315.912548 102.896094 
L 318.35745 103.442416 
L 318.007912 104.73958 
L 315.615069 104.190457 
L 315.912548 102.896094 
" clip-path="url(#pe91063fcf0)" style="fill: #f29888"/>
    <path d="M 292.350388 101.943533 
L 297.520937 103.207078 
L 296.963164 105.490422 
L 291.792615 104.22968 
L 292.350388 101.943533 
" clip-path="url(#pe91063fcf0)" style="fill: #f29888"/>
    <path d="M 275.706463 100.248535 
L 280.877012 101.512079 
L 280.31924 103.795424 
L 275.14869 102.534682 
L 275.706463 100.248535 
" clip-path="url(#pe91063fcf0)" style="fill: #f29888"/>
    <path d="M 284.086062 100.049618 
L 289.254751 101.310361 
L 288.696979 103.596507 
L 283.52643 102.335764 
L 284.086062 100.049618 
" clip-path="url(#pe91063fcf0)" style="fill: #f29888"/>
    <path d="M 268.725013 98.752454 
L 273.895562 100.015998 
L 273.33779 102.299343 
L 268.167241 101.038601 
L 268.725013 98.752454 
" clip-path="url(#pe91063fcf0)" style="fill: #f29888"/>
    <path d="M 330.717684 149.876961 
L 335.901247 150.938786 
L 335.417845 153.286569 
L 330.23614 152.221942 
L 330.717684 149.876961 
" clip-path="url(#pe91063fcf0)" style="fill: #f29888"/>
    <path d="M 320.244579 148.28002 
L 325.428143 149.344647 
L 324.9466 151.689628 
L 319.763036 150.627803 
L 320.244579 148.28002 
" clip-path="url(#pe91063fcf0)" style="fill: #f29888"/>
    <path d="M 349.425366 138.269726 
L 355.75794 138.967336 
L 355.609201 141.359945 
L 349.226427 140.712764 
L 349.425366 138.269726 
" clip-path="url(#pe91063fcf0)" style="fill: #f29888"/>
    <path d="M 342.244977 137.572115 
L 348.426953 138.219296 
L 348.328414 140.611905 
L 341.99398 140.015153 
L 342.244977 137.572115 
" clip-path="url(#pe91063fcf0)" style="fill: #f29888"/>
    <path d="M 352.660445 124.648104 
L 357.842149 125.712731 
L 357.360606 128.057712 
L 352.178902 126.993085 
L 352.660445 124.648104 
" clip-path="url(#pe91063fcf0)" style="fill: #f29888"/>
    <path d="M 345.485634 123.434989 
L 349.923642 124.283889 
L 349.425366 126.578441 
L 345.085897 125.679111 
L 345.485634 123.434989 
" clip-path="url(#pe91063fcf0)" style="fill: #f29888"/>
    <path d="M 338.44283 113.012852 
L 343.611519 114.273594 
L 343.053747 116.559741 
L 337.885057 115.296197 
L 338.44283 113.012852 
" clip-path="url(#pe91063fcf0)" style="fill: #f29888"/>
    <path d="M 330.661906 111.118937 
L 335.832455 112.379679 
L 335.274683 114.665825 
L 330.104134 113.402281 
L 330.661906 111.118937 
" clip-path="url(#pe91063fcf0)" style="fill: #f29888"/>
    <path d="M 323.282579 109.423939 
L 328.451269 110.684681 
L 327.893497 112.970827 
L 322.724807 111.707283 
L 323.282579 109.423939 
" clip-path="url(#pe91063fcf0)" style="fill: #f29888"/>
   </g>
   <g id="LineCollection_1">
    <path d="M 75.953684 735.011952 
L 74.531016 735.270493 
L 62.295351 745.516126 
L 52.972913 749.26929 
" clip-path="url(#pe91063fcf0)" style="fill: none; stroke: #f29888; stroke-width: 0.2"/>
    <path d="M 136.321433 432.069049 
L 135.238951 427.674553 
L 131.747296 415.705905 
L 131.948095 411.217662 
L 135.33935 406.230725 
L 139.727159 398.851179 
L 144.414305 387.580142 
L 148.104898 378.404738 
L 149.067985 375.093188 
" clip-path="url(#pe91063fcf0)" style="fill: none; stroke: #f29888; stroke-width: 0.2"/>
    <path d="M 111.890429 428.865535 
L 108.926973 423.61216 
L 99.283091 410.595695 
L 96.975773 403.978198 
L 97.687862 396.733132 
L 99.820411 390.891692 
L 101.359863 390.020379 
L 116.594483 383.013452 
L 129.354453 376.8106 
L 137.66526 375.810411 
L 149.067985 375.093188 
L 152.462959 373.535471 
L 157.780388 370.826275 
L 170.428804 367.041247 
L 176.97891 362.623045 
L 195.143694 356.462217 
L 204.843354 352.212114 
" clip-path="url(#pe91063fcf0)" style="fill: none; stroke: #f29888; stroke-width: 0.2"/>
    <path d="M 94.246407 368.64379 
L 89.692386 372.507516 
" clip-path="url(#pe91063fcf0)" style="fill: none; stroke: #f29888; stroke-width: 0.2"/>
    <path d="M 347.636776 391.603311 
L 345.099364 392.703 
" clip-path="url(#pe91063fcf0)" style="fill: none; stroke: #f29888; stroke-width: 0.2"/>
    <path d="M 200.567823 371.598515 
L 205.250528 355.742193 
L 204.843354 352.212114 
L 225.40284 342.580042 
L 226.25995 336.332362 
L 223.238684 322.178427 
L 226.458889 301.858061 
L 229.677235 292.604211 
L 240.139184 283.148643 
L 244.958336 280.666381 
L 246.780392 279.727829 
" clip-path="url(#pe91063fcf0)" style="fill: none; stroke: #f29888; stroke-width: 0.2"/>
    <path d="M 340.59769 345.420915 
L 340.49915 353.59893 
L 342.799031 365.024059 
L 336.010942 364.766307 
L 331.920612 366.9628 
" clip-path="url(#pe91063fcf0)" style="fill: none; stroke: #f29888; stroke-width: 0.2"/>
    <path d="M 329.687664 308.834169 
L 331.822073 320.287314 
L 336.609618 333.351407 
L 337.905509 339.834425 
L 340.59769 345.420915 
L 344.987358 348.511134 
L 351.022454 352.733221 
" clip-path="url(#pe91063fcf0)" style="fill: none; stroke: #f29888; stroke-width: 0.2"/>
    <path d="M 352.151013 311.380869 
L 337.085584 309.999655 
L 329.687664 308.834169 
L 319.179234 307.181196 
L 305.697878 310.803729 
L 294.631676 314.224543 
L 284.904128 317.191491 
L 275.51682 320.057578 
L 267.670823 322.674319 
L 262.438919 320.864454 
L 259.220573 315.028617 
L 257.610471 307.382914 
L 257.703433 305.993296 
L 258.012067 301.348161 
" clip-path="url(#pe91063fcf0)" style="fill: none; stroke: #f29888; stroke-width: 0.2"/>
    <path d="M 118.083735 342.81538 
L 132.654606 339.473012 
L 139.834995 336.581709 
L 147.017242 332.59216 
L 156.192596 330.398468 
L 164.072059 327.406306 
L 173.147014 324.512202 
" clip-path="url(#pe91063fcf0)" style="fill: none; stroke: #f29888; stroke-width: 0.2"/>
    <path d="M 166.751226 269.527021 
L 164.710897 272.856004 
" clip-path="url(#pe91063fcf0)" style="fill: none; stroke: #f29888; stroke-width: 0.2"/>
    <path d="M 123.09281 335.497159 
L 119.978301 339.122806 
L 118.083735 342.81538 
L 113.995264 345.804741 
L 108.508644 351.49209 
L 106.614078 354.683169 
L 104.420173 358.571859 
L 100.430242 364.556183 
L 98.336737 367.248569 
L 94.246407 368.64379 
L 93.549192 371.635952 
L 97.637662 381.310049 
L 101.359863 390.020379 
" clip-path="url(#pe91063fcf0)" style="fill: none; stroke: #f29888; stroke-width: 0.2"/>
    <path d="M 225.014259 271.572226 
L 224.852505 274.763305 
L 226.84747 277.354831 
L 233.230244 278.850912 
L 244.958336 280.666381 
" clip-path="url(#pe91063fcf0)" style="fill: none; stroke: #f29888; stroke-width: 0.2"/>
    <path d="M 179.970429 246.441427 
L 181.957957 254.070319 
L 188.396509 264.329961 
L 196.645961 268.756568 
L 210.328115 271.975663 
L 225.014259 271.572226 
L 241.916618 270.969871 
L 246.780392 279.727829 
L 258.012067 301.348161 
" clip-path="url(#pe91063fcf0)" style="fill: none; stroke: #f29888; stroke-width: 0.2"/>
    <path d="M 250.536059 244.371007 
L 248.890631 249.531646 
L 245.597915 253.521196 
L 241.509444 255.714888 
L 240.511032 258.905967 
L 241.310505 261.898129 
L 241.708383 265.587902 
L 241.916618 270.969871 
" clip-path="url(#pe91063fcf0)" style="fill: none; stroke: #f29888; stroke-width: 0.2"/>
    <path d="M 161.635162 232.083001 
L 163.813625 233.301689 
L 165.609652 240.681235 
L 167.504218 248.85925 
L 167.604617 258.132711 
L 167.005942 261.923344 
L 166.007529 268.703336 
L 166.751226 269.527021 
L 169.698122 272.793745 
L 183.86182 279.472878 
L 199.819685 286.154813 
L 209.792653 291.542386 
L 214.180462 294.531746 
L 223.755553 294.632606 
L 229.677235 292.604211 
" clip-path="url(#pe91063fcf0)" style="fill: none; stroke: #f29888; stroke-width: 0.2"/>
    <path d="M 285.941584 248.559474 
L 273.075637 247.562087 
L 266.692863 246.763616 
L 256.121219 244.569925 
L 250.536059 244.371007 
L 235.972625 242.258563 
L 221.611848 240.580375 
L 212.235696 239.683847 
L 201.364714 237.190379 
L 196.37823 234.497993 
L 191.704098 231.354542 
L 190.89161 230.80822 
" clip-path="url(#pe91063fcf0)" style="fill: none; stroke: #f29888; stroke-width: 0.2"/>
    <path d="M 236.721899 231.281699 
L 233.529582 235.047117 
L 233.04618 238.378278 
" clip-path="url(#pe91063fcf0)" style="fill: none; stroke: #f29888; stroke-width: 0.2"/>
    <path d="M 229.130618 227.793645 
L 233.131705 230.684948 
L 236.721899 231.281699 
L 243.006133 230.584088 
L 249.987583 230.684948 
L 254.475791 232.181029 
L 257.867046 231.183641 
L 260.758166 229.68756 
" clip-path="url(#pe91063fcf0)" style="fill: none; stroke: #f29888; stroke-width: 0.2"/>
    <path d="M 284.904128 317.191491 
L 280.756161 307.122361 
L 283.74768 303.432588 
L 284.645693 299.344981 
L 287.337874 295.254572 
L 290.63059 286.978498 
L 289.433239 284.087196 
" clip-path="url(#pe91063fcf0)" style="fill: none; stroke: #f29888; stroke-width: 0.2"/>
    <path d="M 352.898428 260.37123 
L 347.181262 258.432488 
L 314.865795 253.546411 
L 301.202234 251.151 
L 297.301546 250.489811 
L 285.941584 248.559474 
" clip-path="url(#pe91063fcf0)" style="fill: none; stroke: #f29888; stroke-width: 0.2"/>
    <path d="M 288.485026 244.54471 
L 297.301546 250.489811 
" clip-path="url(#pe91063fcf0)" style="fill: none; stroke: #f29888; stroke-width: 0.2"/>
    <path d="M 283.40372 211.488043 
L 280.356424 214.230858 
L 278.761196 218.419325 
L 277.614044 226.894316 
L 277.764642 229.836048 
L 281.453376 233.427763 
L 284.695893 237.663858 
L 286.839597 241.50492 
L 288.485026 244.54471 
L 285.941584 248.559474 
" clip-path="url(#pe91063fcf0)" style="fill: none; stroke: #f29888; stroke-width: 0.2"/>
    <path d="M 346.383648 240.731664 
L 347.181262 233.352118 
L 349.075828 227.168877 
L 352.467084 221.48433 
L 357.055691 217.295863 
L 359.249595 212.011951 
" clip-path="url(#pe91063fcf0)" style="fill: none; stroke: #f29888; stroke-width: 0.2"/>
    <path d="M 360.895023 253.17099 
L 357.990889 251.43957 
L 357.10589 251.128587 
L 340.647889 248.733176 
L 337.057695 244.645569 
L 328.181679 228.788231 
L 325.152975 223.843319 
L 318.931955 213.681735 
L 318.108311 212.334141 
L 315.51467 204.058068 
L 315.51467 198.774156 
" clip-path="url(#pe91063fcf0)" style="fill: none; stroke: #f29888; stroke-width: 0.2"/>
    <path d="M 351.968807 199.146775 
L 351.769869 201.839161 
L 348.87689 205.330017 
L 347.878477 210.316953 
L 347.4806 213.407173 
L 347.080863 216.797169 
L 347.4806 220.786719 
L 346.18285 227.468654 
L 347.181262 233.352118 
" clip-path="url(#pe91063fcf0)" style="fill: none; stroke: #f29888; stroke-width: 0.2"/>
    <path d="M 303.732661 216.360112 
L 315.215333 214.527833 
L 318.108311 212.334141 
" clip-path="url(#pe91063fcf0)" style="fill: none; stroke: #f29888; stroke-width: 0.2"/>
    <path d="M 378.330985 215.438369 
L 371.01859 214.40456 
L 364.13568 213.208256 
L 359.249595 212.011951 
L 355.060725 212.110009 
L 349.774903 212.608703 
L 347.4806 213.407173 
L 344.288283 211.810233 
L 341.694642 211.712175 
" clip-path="url(#pe91063fcf0)" style="fill: none; stroke: #f29888; stroke-width: 0.2"/>
    <path d="M 258.614461 213.056967 
L 268.987166 214.953684 
L 273.774711 213.65652 
L 283.40372 211.488043 
" clip-path="url(#pe91063fcf0)" style="fill: none; stroke: #f29888; stroke-width: 0.2"/>
    <path d="M 211.088544 222.481717 
L 216.973042 221.086495 
L 225.151843 221.983023 
L 229.104589 224.274773 
" clip-path="url(#pe91063fcf0)" style="fill: none; stroke: #f29888; stroke-width: 0.2"/>
    <path d="M 163.813625 233.301689 
L 172.890439 231.256484 
L 191.704098 231.354542 
L 202.112129 228.365182 
L 207.100472 225.073243 
L 211.088544 222.481717 
L 217.17384 212.011951 
L 221.961385 209.417624 
L 223.705353 205.86233 
" clip-path="url(#pe91063fcf0)" style="fill: none; stroke: #f29888; stroke-width: 0.2"/>
    <path d="M 235.972625 242.258563 
L 233.04618 238.378278 
L 231.08654 235.778347 
L 229.141774 229.488643 
L 229.130618 227.793645 
L 229.104589 224.274773 
L 229.091574 222.414477 
L 229.69025 214.735155 
L 223.705353 205.86233 
L 225.999656 190.604545 
L 224.404428 181.129365 
L 225.003103 172.155681 
L 225.895539 165.000267 
" clip-path="url(#pe91063fcf0)" style="fill: none; stroke: #f29888; stroke-width: 0.2"/>
    <path d="M 225.003103 172.155681 
L 227.645085 178.529434 
L 231.635016 182.619843 
L 234.228657 187.304201 
L 236.022824 190.696999 
L 238.716864 193.089608 
" clip-path="url(#pe91063fcf0)" style="fill: none; stroke: #f29888; stroke-width: 0.2"/>
    <path d="M 172.77609 158.615029 
L 175.980498 158.396778 
L 189.798376 159.066372 
" clip-path="url(#pe91063fcf0)" style="fill: none; stroke: #f29888; stroke-width: 0.2"/>
    <path d="M 234.483373 141.273094 
L 227.994622 144.932049 
L 226.198595 148.820739 
L 225.895539 165.000267 
" clip-path="url(#pe91063fcf0)" style="fill: none; stroke: #f29888; stroke-width: 0.2"/>
    <path d="M 243.558328 133.193136 
L 234.483373 141.273094 
L 224.5699 138.605923 
L 213.737962 135.689406 
L 194.632403 135.689406 
L 185.803055 135.689406 
" clip-path="url(#pe91063fcf0)" style="fill: none; stroke: #f29888; stroke-width: 0.2"/>
    <path d="M 175.980498 158.396778 
L 177.477186 149.319433 
L 184.159298 139.847054 
L 194.632403 135.689406 
L 196.397879 134.386847 
" clip-path="url(#pe91063fcf0)" style="fill: none; stroke: #f29888; stroke-width: 0.2"/>
    <path d="M 268.189552 90.955463 
L 261.057095 103.880314 
" clip-path="url(#pe91063fcf0)" style="fill: none; stroke: #f29888; stroke-width: 0.2"/>
    <path d="M 244.933379 130.76104 
L 243.558328 133.193136 
" clip-path="url(#pe91063fcf0)" style="fill: none; stroke: #f29888; stroke-width: 0.2"/>
    <path d="M 238.716864 193.089608 
L 257.467309 195.681134 
L 270.732993 197.376133 
L 274.421727 200.270237 
L 277.415105 206.251759 
L 280.306225 210.339367 
L 283.40372 211.488043 
L 286.49006 212.633918 
L 296.663827 214.527833 
L 303.732661 216.360112 
L 310.528186 218.119548 
L 316.211886 220.411298 
L 325.152975 223.843319 
" clip-path="url(#pe91063fcf0)" style="fill: none; stroke: #f29888; stroke-width: 0.2"/>
    <path d="M 318.931955 213.681735 
L 323.643272 211.112622 
L 328.629756 207.921543 
L 333.017565 204.932182 
L 334.214916 201.242409 
" clip-path="url(#pe91063fcf0)" style="fill: none; stroke: #f29888; stroke-width: 0.2"/>
    <path d="M 270.732993 197.376133 
L 272.028884 183.614428 
" clip-path="url(#pe91063fcf0)" style="fill: none; stroke: #f29888; stroke-width: 0.2"/>
    <path d="M 322.925605 179.619276 
L 318.407649 185.710063 
L 315.615069 189.898529 
L 315.51467 198.774156 
" clip-path="url(#pe91063fcf0)" style="fill: none; stroke: #f29888; stroke-width: 0.2"/>
    <path d="M 189.798376 159.066372 
L 225.895539 165.000267 
L 227.593026 165.280432 
L 263.483813 170.606368 
L 290.498584 174.915306 
L 322.925605 179.619276 
L 331.591527 180.877217 
L 345.922556 183.15776 
L 357.71758 184.045883 
L 365.937285 182.261232 
" clip-path="url(#pe91063fcf0)" style="fill: none; stroke: #f29888; stroke-width: 0.2"/>
    <path d="M 369.005032 152.488099 
L 352.573061 145.259842 
L 308.687538 137.283545 
L 275.353207 133.661011 
L 271.984262 133.293995 
L 243.558328 133.193136 
" clip-path="url(#pe91063fcf0)" style="fill: none; stroke: #f29888; stroke-width: 0.2"/>
    <path d="M 372.699344 129.590214 
L 363.488664 124.283889 
L 359.000457 122.090198 
L 347.231461 120.496059 
" clip-path="url(#pe91063fcf0)" style="fill: none; stroke: #f29888; stroke-width: 0.2"/>
    <path d="M 375.897238 109.76574 
L 354.562448 105.812612 
L 347.57914 109.303468 
L 324.241947 104.016754 
L 309.081697 100.5287 
L 306.787393 101.324369 
L 272.57736 94.2446 
" clip-path="url(#pe91063fcf0)" style="fill: none; stroke: #f29888; stroke-width: 0.2"/>
    <path d="M 272.57736 94.2446 
L 268.189552 90.955463 
" clip-path="url(#pe91063fcf0)" style="fill: none; stroke: #f29888; stroke-width: 0.2"/>
    <path d="M 268.189552 90.955463 
L 267.341738 86.716566 
L 268.53723 80.384838 
L 270.084118 73.008094 
L 271.629147 71.212236 
L 273.276435 70.86203 
L 276.117355 71.013319 
L 279.55881 70.86203 
L 280.9049 69.618097 
L 282.202651 67.872669 
L 283.349802 66.076812 
L 285.742645 63.93355 
L 288.934962 63.633773 
L 293.37297 64.631161 
L 299.257468 66.177671 
L 302.99826 66.326159 
L 305.290704 66.127242 
L 306.737194 64.981367 
L 307.585008 63.583344 
L 307.735606 62.188122 
" clip-path="url(#pe91063fcf0)" style="fill: none; stroke: #f29888; stroke-width: 0.2"/>
    <path d="M 354.562448 105.812612 
L 346.03411 103.221086 
L 342.642855 102.173269 
L 340.748288 101.226311 
L 338.952262 99.032619 
L 337.306833 97.934372 
L 334.664852 93.398501 
L 332.919025 91.005892 
L 330.974259 90.106563 
L 329.029493 89.109175 
L 328.579556 86.915484 
L 327.532804 84.424817 
L 324.440886 81.533514 
L 318.755327 75.249414 
L 315.763809 70.713542 
L 307.735606 62.188122 
L 302.747263 57.750309 
L 294.917999 51.071175 
L 291.811412 49.057841 
" clip-path="url(#pe91063fcf0)" style="fill: none; stroke: #f29888; stroke-width: 0.2"/>
    <path d="M 227.994622 144.932049 
L 228.892635 132.666426 
L 228.94734 131.955265 
" clip-path="url(#pe91063fcf0)" style="fill: none; stroke: #f29888; stroke-width: 0.2"/>
    <path d="M 224.952396 132.253704 
L 224.5699 138.605923 
L 226.198595 148.820739 
" clip-path="url(#pe91063fcf0)" style="fill: none; stroke: #f29888; stroke-width: 0.2"/>
    <path d="M 518.661599 739.834353 
L 530.407597 734.320733 
L 539.185073 735.917674 
L 547.163076 739.907223 
L 568.706101 769.436613 
L 574.883412 776.1763 
" clip-path="url(#pe91063fcf0)" style="fill: none; stroke: #f29888; stroke-width: 0.2"/>
    <path d="M 571.572961 780.109782 
L 571.766411 779.558974 
L 572.634298 779.260695 
" clip-path="url(#pe91063fcf0)" style="fill: none; stroke: #f29888; stroke-width: 0.2"/>
    <path d="M 564.371757 795.527386 
L 560.296754 797.814524 
L 557.29952 799.836852 
" clip-path="url(#pe91063fcf0)" style="fill: none; stroke: #f29888; stroke-width: 0.2"/>
    <path d="M 529.792996 793.794331 
L 523.195601 790.331317 
L 518.397467 791.05856 
" clip-path="url(#pe91063fcf0)" style="fill: none; stroke: #f29888; stroke-width: 0.2"/>
    <path d="M 571.766411 779.558974 
L 569.472108 776.589225 
L 566.779927 775.992473 
L 564.286685 777.788331 
L 561.094368 781.976797 
L 558.002451 784.271349 
L 552.618089 789.059368 
" clip-path="url(#pe91063fcf0)" style="fill: none; stroke: #f29888; stroke-width: 0.2"/>
    <path d="M 525.002783 699.207656 
L 523.39687 698.575765 
" clip-path="url(#pe91063fcf0)" style="fill: none; stroke: #f29888; stroke-width: 0.2"/>
    <path d="M 522.937167 722.301655 
L 526.360029 728.238351 
L 528.853271 732.180273 
L 530.407597 734.320733 
" clip-path="url(#pe91063fcf0)" style="fill: none; stroke: #f29888; stroke-width: 0.2"/>
    <path d="M 535.338304 632.217406 
L 525.811553 641.252727 
L 521.457693 646.186323 
" clip-path="url(#pe91063fcf0)" style="fill: none; stroke: #f29888; stroke-width: 0.2"/>
    <path d="M 608.393458 592.725349 
L 612.28299 590.640922 
L 615.374907 591.041558 
L 618.822397 592.13747 
" clip-path="url(#pe91063fcf0)" style="fill: none; stroke: #f29888; stroke-width: 0.2"/>
    <path d="M 539.489989 596.518783 
L 549.648881 587.735611 
L 550.147158 580.7539 
L 546.080998 577.005292 
" clip-path="url(#pe91063fcf0)" style="fill: none; stroke: #f29888; stroke-width: 0.2"/>
    <path d="M 559.980683 491.409285 
L 565.008071 490.961021 
L 570.293893 492.406673 
L 574.681701 494.950571 
L 578.97097 498.539484 
L 582.163287 502.279687 
L 587.798646 506.420525 
L 592.984069 509.062481 
L 598.37029 511.256173 
L 603.406974 511.50552 
L 605.900216 512.502907 
L 606.647631 516.195482 
L 607.047367 519.686338 
L 607.993721 522.129376 
L 606.647631 527.564577 
L 609.890147 529.559352 
L 612.532128 535.395188 
L 617.71941 548.212736 
L 619.364838 552.65055 
L 619.963514 559.408129 
L 616.871596 566.190924 
L 613.379942 573.671329 
L 612.582328 580.056289 
L 609.49041 589.632328 
L 608.393458 592.725349 
L 598.420489 599.606201 
L 591.537579 603.895527 
L 584.156393 609.680934 
L 580.566199 614.569813 
L 577.275342 620.753055 
L 573.486209 629.331706 
L 569.795616 640.20491 
L 555.133642 628.734955 
L 544.959876 623.047606 
L 541.070344 625.94171 
L 535.338304 632.217406 
" clip-path="url(#pe91063fcf0)" style="fill: none; stroke: #f29888; stroke-width: 0.2"/>
    <path d="M 535.940698 607.030574 
L 539.489989 596.518783 
L 546.080998 577.005292 
L 550.355393 564.344636 
L 555.142938 502.901653 
" clip-path="url(#pe91063fcf0)" style="fill: none; stroke: #f29888; stroke-width: 0.2"/>
    <path d="M 376.313259 500.506568 
L 376.709726 497.771832 
" clip-path="url(#pe91063fcf0)" style="fill: none; stroke: #f29888; stroke-width: 0.2"/>
    <path d="M 520.20362 731.390861 
L 521.315909 727.16532 
L 522.937167 722.301655 
L 523.710611 715.919497 
L 524.383656 709.310405 
L 524.508225 703.572626 
L 524.731334 701.378934 
L 525.002783 699.207656 
L 526.752329 685.193803 
L 528.074249 676.889713 
L 528.472127 672.449098 
L 529.121002 670.056489 
L 531.365106 657.911337 
L 532.660997 650.655064 
L 534.97947 635.316031 
L 535.338304 632.217406 
L 536.463144 622.518094 
L 536.887051 617.853347 
L 537.336988 613.790955 
L 537.087849 610.274884 
L 535.940698 607.030574 
L 533.497655 604.262543 
L 525.119916 596.86899 
L 514.297274 588.640544 
L 505.720596 582.457303 
L 489.264454 570.7352 
L 476.04897 561.509367 
L 467.122754 555.474613 
L 453.706471 546.548556 
L 436.052979 535.17666 
L 414.509954 522.459971 
L 404.536986 516.17587 
L 393.615804 509.591993 
L 381.79661 502.509422 
L 376.709726 497.771832 
L 375.910253 492.286202 
L 374.465623 484.707739 
L 372.820194 476.280376 
L 371.124567 467.752154 
L 368.681524 456.2822 
L 366.43742 448.252671 
L 365.279113 444.680567 
L 363.544441 439.326615 
L 360.153186 427.954718 
L 357.05755 418.664447 
L 356.364053 416.585623 
L 353.92101 408.556094 
L 351.32551 402.375655 
L 348.932667 395.293084 
L 347.636776 391.603311 
L 345.093334 382.775312 
L 342.401154 373.151645 
L 341.99398 369.728029 
L 342.799031 365.024059 
L 349.83068 354.352574 
L 351.022454 352.733221 
L 352.318345 350.973785 
L 353.346505 349.578563 
L 359.829678 341.498605 
L 363.570471 337.111221 
L 366.164112 331.328616 
L 366.262652 326.089531 
L 365.364638 323.842607 
L 361.625705 318.511068 
L 355.242931 313.574561 
L 352.151013 311.380869 
L 350.652465 306.895427 
L 348.360021 299.56351 
L 350.704524 288.143985 
L 351.602537 271.292061 
L 352.898428 260.37123 
L 357.990889 251.43957 
L 373.227368 224.723037 
L 378.330985 215.438369 
L 379.526477 213.267091 
L 382.019719 191.876494 
L 380.956233 190.638165 
L 378.978 188.33801 
L 371.299335 187.040846 
L 368.556955 186.144318 
L 366.660529 184.199973 
L 365.937285 182.261232 
L 364.444314 179.773367 
L 366.73304 166.025671 
L 368.207418 157.175259 
" clip-path="url(#pe91063fcf0)" style="fill: none; stroke: #f29888; stroke-width: 0.2"/>
    <path d="M 357.05755 418.664447 
L 361.24456 413.411353 
L 367.727734 408.525276 
L 371.816204 406.631361 
L 377.501763 407.130054 
L 383.185463 411.217662 
L 388.871021 418.499149 
L 394.058304 424.881308 
L 401.138293 430.268881 
L 391.663601 435.353875 
L 383.685598 436.950815 
L 377.899641 437.547567 
L 365.279113 444.680567 
" clip-path="url(#pe91063fcf0)" style="fill: none; stroke: #f29888; stroke-width: 0.2"/>
    <path d="M 453.650694 373.61952 
L 451.854667 380.225811 
L 450.508577 382.968626 
" clip-path="url(#pe91063fcf0)" style="fill: none; stroke: #f29888; stroke-width: 0.2"/>
    <path d="M 365.364638 323.842607 
L 376.503351 316.774045 
L 384.981489 309.893193 
L 388.672083 305.503007 
L 395.653532 304.704537 
L 398.131901 305.334908 
L 401.937767 306.301478 
L 415.301991 311.986025 
L 416.997618 318.270126 
L 424.877081 321.060569 
L 431.259855 329.238585 
L 440.734547 342.801372 
L 445.721031 351.080247 
L 444.52554 368.93236 
L 442.430175 379.603844 
" clip-path="url(#pe91063fcf0)" style="fill: none; stroke: #f29888; stroke-width: 0.2"/>
    <path d="M 398.131901 305.334908 
L 384.682152 296.602166 
L 372.613819 290.519784 
" clip-path="url(#pe91063fcf0)" style="fill: none; stroke: #f29888; stroke-width: 0.2"/>
    <path d="M 455.403958 287.47439 
L 443.476928 281.095034 
L 439.494434 279.912738 
L 434.401973 278.402648 
L 416.824709 275.928791 
" clip-path="url(#pe91063fcf0)" style="fill: none; stroke: #f29888; stroke-width: 0.2"/>
    <path d="M 439.494434 279.912738 
L 449.761162 278.402648 
L 452.213501 276.70765 
" clip-path="url(#pe91063fcf0)" style="fill: none; stroke: #f29888; stroke-width: 0.2"/>
    <path d="M 351.602537 271.292061 
L 375.932564 272.636853 
L 413.989366 275.701858 
L 416.824709 275.928791 
" clip-path="url(#pe91063fcf0)" style="fill: none; stroke: #f29888; stroke-width: 0.2"/>
    <path d="M 561.525712 487.739124 
L 563.396109 481.236495 
L 564.6418 475.201741 
L 565.98975 472.209579 
L 568.033056 470.113945 
L 572.472923 468.320889 
" clip-path="url(#pe91063fcf0)" style="fill: none; stroke: #f29888; stroke-width: 0.2"/>
    <path d="M 555.600311 451.586634 
L 557.66035 453.508566 
L 562.498095 456.352241 
L 563.795845 459.49289 
L 566.337428 462.286135 
L 572.022987 466.673519 
" clip-path="url(#pe91063fcf0)" style="fill: none; stroke: #f29888; stroke-width: 0.2"/>
    <path d="M 555.142938 502.901653 
L 548.750868 491.907979 
L 537.37975 485.125185 
L 519.826657 471.360679 
L 502.072765 458.994197 
L 486.514637 448.619687 
L 461.580357 430.268881 
L 435.448725 411.318521 
L 401.736969 385.986003 
L 356.854893 354.82045 
L 352.318345 350.973785 
" clip-path="url(#pe91063fcf0)" style="fill: none; stroke: #f29888; stroke-width: 0.2"/>
    <path d="M 445.721031 351.080247 
L 450.659175 354.868078 
L 453.550295 357.563265 
L 454.548707 361.751732 
L 453.650694 373.61952 
L 460.033468 374.916684 
L 463.923 376.112989 
L 471.503126 379.701902 
L 476.491469 380.800149 
L 478.984711 379.900819 
L 480.879278 377.309293 
L 483.870796 376.8106 
L 487.262052 380.200596 
L 489.156618 384.590781 
L 486.663376 386.582754 
L 485.865762 390.474246 
" clip-path="url(#pe91063fcf0)" style="fill: none; stroke: #f29888; stroke-width: 0.2"/>
    <path d="M 555.142938 502.901653 
L 559.980683 491.409285 
L 561.525712 487.739124 
L 561.350944 477.619565 
L 560.42876 465.998321 
L 555.600311 451.586634 
L 555.570511 451.497593 
" clip-path="url(#pe91063fcf0)" style="fill: none; stroke: #f29888; stroke-width: 0.2"/>
    <path d="M 485.283909 341.421877 
L 482.534002 322.77798 
L 473.923857 314.947369 
L 468.770041 312.008438 
L 456.493473 305.802784 
L 453.80873 302.634118 
L 456.294535 292.83955 
L 455.403958 287.47439 
L 452.213501 277.901153 
L 452.213501 276.70765 
L 452.213501 267.529445 
L 449.993567 263.923722 
L 445.830727 257.157737 
L 440.245567 236.417123 
L 433.860934 230.034965 
L 431.46809 222.055866 
" clip-path="url(#pe91063fcf0)" style="fill: none; stroke: #f29888; stroke-width: 0.2"/>
    <path d="M 468.770041 312.008438 
L 472.551737 311.288414 
L 478.136897 315.675798 
L 484.515493 318.555206 
" clip-path="url(#pe91063fcf0)" style="fill: none; stroke: #f29888; stroke-width: 0.2"/>
    <path d="M 450.524982 185.285959 
L 446.319707 187.82811 
L 443.926864 190.021802 
L 438.739582 192.616129 
L 433.940881 193.43141 
" clip-path="url(#pe91063fcf0)" style="fill: none; stroke: #f29888; stroke-width: 0.2"/>
    <path d="M 413.989366 275.701858 
L 414.104639 270.871813 
L 412.758549 266.386372 
L 409.067956 264.988349 
L 402.486243 264.290738 
L 396.800684 263.542697 
L 388.871021 260.850312 
L 382.337649 257.959009 
L 374.558585 255.017277 
" clip-path="url(#pe91063fcf0)" style="fill: none; stroke: #f29888; stroke-width: 0.2"/>
    <path d="M 394.207043 254.76793 
L 388.722282 254.81836 
L 382.088511 254.218807 
L 374.558585 255.017277 
L 365.881507 256.462928 
L 363.538864 255.216194 
L 360.895023 253.17099 
" clip-path="url(#pe91063fcf0)" style="fill: none; stroke: #f29888; stroke-width: 0.2"/>
    <path d="M 373.227368 224.723037 
L 380.045205 227.844075 
L 387.524931 236.918619 
L 390.217112 240.905366 
L 391.215524 249.184242 
L 392.662014 252.773155 
L 394.207043 254.76793 
L 401.48783 256.163152 
L 417.246757 256.065094 
L 426.024233 258.258786 
L 437.49389 260.351618 
L 449.993567 263.923722 
" clip-path="url(#pe91063fcf0)" style="fill: none; stroke: #f29888; stroke-width: 0.2"/>
    <path d="M 431.46809 222.055866 
L 415.601328 219.290638 
L 379.526477 213.267091 
" clip-path="url(#pe91063fcf0)" style="fill: none; stroke: #f29888; stroke-width: 0.2"/>
    <path d="M 380.956233 190.638165 
L 385.132088 188.775068 
L 390.945934 186.836326 
" clip-path="url(#pe91063fcf0)" style="fill: none; stroke: #f29888; stroke-width: 0.2"/>
    <path d="M 433.940881 193.43141 
L 390.945934 186.836326 
L 379.532054 184.171957 
L 371.542896 182.779537 
L 365.937285 182.261232 
" clip-path="url(#pe91063fcf0)" style="fill: none; stroke: #f29888; stroke-width: 0.2"/>
    <path d="M 366.73304 166.025671 
L 371.766005 165.367283 
L 385.429566 164.070119 
L 397.698697 164.170978 
L 404.081472 164.868589 
L 412.459211 163.173591 
L 415.251791 161.377734 
" clip-path="url(#pe91063fcf0)" style="fill: none; stroke: #f29888; stroke-width: 0.2"/>
    <path d="M 370.299064 144.466975 
L 375.954875 148.515359 
L 382.337649 149.711664 
L 397.897636 151.905355 
L 415.251791 161.377734 
L 418.841985 162.075344 
L 428.716414 161.077957 
" clip-path="url(#pe91063fcf0)" style="fill: none; stroke: #f29888; stroke-width: 0.2"/>
    <path d="M 382.172605 68.638211 
L 382.120118 70.374543 
L 380.225551 82.937141 
L 375.897238 109.76574 
L 372.699344 129.590214 
L 370.299064 144.466975 
L 369.005032 152.488099 
L 368.207418 157.175259 
" clip-path="url(#pe91063fcf0)" style="fill: none; stroke: #f29888; stroke-width: 0.2"/>
   </g>
  </g>
 </g>
 <defs>
  <clipPath id="pe91063fcf0">
   <rect x="7.2" y="7.2" width="651.354384" height="831.6"/>
  </clipPath>
 </defs>
</svg>
