<?xml version="1.0" encoding="utf-8" standalone="no"?>
<!DOCTYPE svg PUBLIC "-//W3C//DTD SVG 1.1//EN"
  "http://www.w3.org/Graphics/SVG/1.1/DTD/svg11.dtd">
<svg xmlns:xlink="http://www.w3.org/1999/xlink" width="427.862072pt" height="846pt" viewBox="0 0 427.862072 846" xmlns="http://www.w3.org/2000/svg" version="1.1">
 <metadata>
  <rdf:RDF xmlns:dc="http://purl.org/dc/elements/1.1/" xmlns:cc="http://creativecommons.org/ns#" xmlns:rdf="http://www.w3.org/1999/02/22-rdf-syntax-ns#">
   <cc:Work>
    <dc:type rdf:resource="http://purl.org/dc/dcmitype/StillImage"/>
    <dc:date>2025-03-16T14:38:39.080878</dc:date>
    <dc:format>image/svg+xml</dc:format>
    <dc:creator>
     <cc:Agent>
      <dc:title>Matplotlib v3.10.1, https://matplotlib.org/</dc:title>
     </cc:Agent>
    </dc:creator>
   </cc:Work>
  </rdf:RDF>
 </metadata>
 <defs>
  <style type="text/css">*{stroke-linejoin: round; stroke-linecap: butt}</style>
 </defs>
 <g id="figure_1">
  <g id="patch_1">
   <path d="M 0 846 
L 427.862072 846 
L 427.862072 0 
L 0 0 
z
" style="fill: #ffffff"/>
  </g>
  <g id="axes_1">
   <g id="PatchCollection_1">
    <path d="M 130.285428 662.880395 
L 121.988401 655.272111 
L 93.817101 655.272111 
L 92.176991 632.739888 
L 140.222565 640.201858 
L 140.222565 652.784788 
L 151.799812 642.835494 
L 252.81129 602.599381 
L 270.961518 656.823031 
L 273.694713 664.988767 
L 310.794 775.83414 
L 401.868341 738.231662 
L 353.919244 670.342365 
L 367.136601 602.599381 
L 299.216754 579.920844 
L 299.216754 562.363267 
L 259.468206 542.318367 
L 237.953823 567.484227 
L 150.159702 464.479775 
L 246.25085 356.500677 
L 304.233561 220.868396 
L 256.187987 148.004451 
L 315.810807 95.185407 
L 282.6227 45 
L 179.971112 125.325914 
L 214.799329 178.144958 
L 148.519592 228.330366 
L 193.188469 336.309464 
L 67.382388 482.037352 
L 69.022498 512.177859 
L 25.993731 547.293013 
L 57.445251 585.041804 
L 59.085361 801 
L 123.628511 801 
L 117.068072 672.976002 
L 130.285428 662.880395 
" clip-path="url(#p3b1d76e7c8)" style="fill: #fbd6c9"/>
   </g>
   <g id="PatchCollection_2">
    <path d="M 310.570174 732.553249 
L 311.450044 731.828999 
L 312.588474 733.22629 
L 311.863931 734.003213 
L 310.570174 732.553249 
" clip-path="url(#p3b1d76e7c8)" style="fill: #e6482f"/>
    <path d="M 307.309249 731.259841 
L 308.18912 730.586801 
L 309.534975 732.243066 
L 308.707202 733.071198 
L 307.309249 731.259841 
" clip-path="url(#p3b1d76e7c8)" style="fill: #e6482f"/>
    <path d="M 325.216355 721.784602 
L 327.804835 719.559179 
L 334.325719 727.480573 
L 331.944665 729.654786 
L 325.216355 721.784602 
" clip-path="url(#p3b1d76e7c8)" style="fill: #e6482f"/>
    <path d="M 303.738633 718.731047 
L 305.239816 717.69515 
L 309.587072 723.130683 
L 308.085889 724.321672 
L 303.738633 718.731047 
" clip-path="url(#p3b1d76e7c8)" style="fill: #e6482f"/>
    <path d="M 319.161455 720.697496 
L 321.179755 719.09244 
L 322.214954 720.387312 
L 320.196654 722.096249 
L 319.161455 720.697496 
" clip-path="url(#p3b1d76e7c8)" style="fill: #e6482f"/>
    <path d="M 307.102788 717.229874 
L 309.690303 715.15808 
L 307.413444 712.465918 
L 309.328514 710.913536 
L 312.122489 714.692804 
L 310.518076 715.831121 
L 310.932927 716.504161 
L 308.293315 718.782257 
L 307.102788 717.229874 
" clip-path="url(#p3b1d76e7c8)" style="fill: #e6482f"/>
    <path d="M 309.555235 674.638119 
L 310.209349 674.725907 
L 310.06174 675.813013 
L 309.407625 675.725225 
L 309.555235 674.638119 
" clip-path="url(#p3b1d76e7c8)" style="fill: #e6482f"/>
    <path d="M 308.35506 674.36305 
L 308.245077 675.442841 
L 306.69662 675.284823 
L 306.807568 674.203569 
L 308.35506 674.36305 
" clip-path="url(#p3b1d76e7c8)" style="fill: #e6482f"/>
    <path d="M 350.424845 660.729592 
L 350.378537 661.753784 
L 349.29124 661.7055 
L 349.337549 660.681308 
L 350.424845 660.729592 
" clip-path="url(#p3b1d76e7c8)" style="fill: #e6482f"/>
    <path d="M 340.48192 660.502806 
L 340.303438 661.494809 
L 339.320336 661.329476 
L 339.493995 660.321378 
L 340.48192 660.502806 
" clip-path="url(#p3b1d76e7c8)" style="fill: #e6482f"/>
    <path d="M 303.102849 674.168454 
L 303.042069 674.979028 
L 302.076334 674.905872 
L 302.137114 674.093834 
L 303.102849 674.168454 
" clip-path="url(#p3b1d76e7c8)" style="fill: #e6482f"/>
    <path d="M 299.601697 673.477856 
L 299.516797 674.28843 
L 298.716038 674.203569 
L 298.800938 673.394457 
L 299.601697 673.477856 
" clip-path="url(#p3b1d76e7c8)" style="fill: #e6482f"/>
    <path d="M 301.556322 673.321301 
L 301.450197 674.464006 
L 300.28379 674.355734 
L 300.389915 673.213029 
L 301.556322 673.321301 
" clip-path="url(#p3b1d76e7c8)" style="fill: #e6482f"/>
    <path d="M 298.441078 673.120852 
L 298.332059 674.102613 
L 297.593045 674.020677 
L 297.702064 673.038916 
L 298.441078 673.120852 
" clip-path="url(#p3b1d76e7c8)" style="fill: #e6482f"/>
    <path d="M 297.04409 672.737511 
L 296.636957 673.758777 
L 295.850669 673.444204 
L 296.257802 672.424401 
L 297.04409 672.737511 
" clip-path="url(#p3b1d76e7c8)" style="fill: #e6482f"/>
    <path d="M 293.337442 672.45659 
L 293.256401 673.492487 
L 292.281018 673.414941 
L 292.362059 672.380507 
L 293.337442 672.45659 
" clip-path="url(#p3b1d76e7c8)" style="fill: #e6482f"/>
    <path d="M 305.168423 652.805272 
L 305.003447 653.823611 
L 303.884314 653.642183 
L 304.049289 652.623844 
L 305.168423 652.805272 
" clip-path="url(#p3b1d76e7c8)" style="fill: #e6482f"/>
    <path d="M 302.623358 652.196609 
L 302.472854 653.204707 
L 301.52159 653.06132 
L 301.672095 652.053222 
L 302.623358 652.196609 
" clip-path="url(#p3b1d76e7c8)" style="fill: #e6482f"/>
    <path d="M 269.930178 650.970505 
L 270.823556 652.639938 
L 269.753289 653.213456 
L 269.143515 651.391763 
L 269.930178 650.970505 
" clip-path="url(#p3b1d76e7c8)" style="fill: #e6482f"/>
    <path d="M 298.901274 651.314341 
L 298.753664 652.480457 
L 297.703029 652.347312 
L 297.851603 651.181196 
L 298.901274 651.314341 
" clip-path="url(#p3b1d76e7c8)" style="fill: #e6482f"/>
    <path d="M 339.320336 661.329476 
L 338.217604 661.140732 
L 338.391262 660.131171 
L 339.493995 660.321378 
L 339.320336 661.329476 
" clip-path="url(#p3b1d76e7c8)" style="fill: #e6482f"/>
    <path d="M 336.759835 659.760999 
L 336.533114 660.739834 
L 335.217167 660.417945 
L 335.440994 659.468372 
L 336.759835 659.760999 
" clip-path="url(#p3b1d76e7c8)" style="fill: #e6482f"/>
    <path d="M 335.217167 660.417945 
L 334.254326 660.189696 
L 334.478153 659.240124 
L 335.440994 659.468372 
L 335.217167 660.417945 
" clip-path="url(#p3b1d76e7c8)" style="fill: #e6482f"/>
    <path d="M 330.007406 658.117902 
L 329.858831 659.329375 
L 328.500434 659.162578 
L 328.649974 657.952568 
L 330.007406 658.117902 
" clip-path="url(#p3b1d76e7c8)" style="fill: #e6482f"/>
    <path d="M 325.911955 657.295622 
L 325.746015 658.466127 
L 324.613374 658.306646 
L 324.77835 657.134678 
L 325.911955 657.295622 
" clip-path="url(#p3b1d76e7c8)" style="fill: #e6482f"/>
    <path d="M 323.131486 656.593319 
L 322.908624 657.828202 
L 321.890791 657.645311 
L 322.112689 656.410428 
L 323.131486 656.593319 
" clip-path="url(#p3b1d76e7c8)" style="fill: #e6482f"/>
    <path d="M 318.265184 655.567664 
L 318.101173 656.594782 
L 317.010982 656.42067 
L 317.174993 655.393551 
L 318.265184 655.567664 
" clip-path="url(#p3b1d76e7c8)" style="fill: #e6482f"/>
    <path d="M 341.699461 655.269185 
L 341.484317 656.136822 
L 340.20696 655.794449 
L 340.437541 654.956075 
L 341.699461 655.269185 
" clip-path="url(#p3b1d76e7c8)" style="fill: #e6482f"/>
    <path d="M 340.20696 655.794449 
L 339.117735 655.494507 
L 339.349279 654.656133 
L 340.437541 654.956075 
L 340.20696 655.794449 
" clip-path="url(#p3b1d76e7c8)" style="fill: #e6482f"/>
    <path d="M 313.344854 654.569808 
L 313.141287 655.535475 
L 312.403238 655.380383 
L 312.605839 654.414716 
L 313.344854 654.569808 
" clip-path="url(#p3b1d76e7c8)" style="fill: #e6482f"/>
    <path d="M 336.812898 654.050397 
L 336.652746 654.918034 
L 335.092712 654.63126 
L 335.251899 653.763623 
L 336.812898 654.050397 
" clip-path="url(#p3b1d76e7c8)" style="fill: #e6482f"/>
    <path d="M 350.959328 653.311515 
L 351.023968 654.506894 
L 349.728281 654.577124 
L 349.663642 653.381746 
L 350.959328 653.311515 
" clip-path="url(#p3b1d76e7c8)" style="fill: #e6482f"/>
    <path d="M 308.778595 653.427103 
L 308.571169 654.634186 
L 307.356523 654.424958 
L 307.563949 653.217875 
L 308.778595 653.427103 
" clip-path="url(#p3b1d76e7c8)" style="fill: #e6482f"/>
    <path d="M 331.773901 652.887207 
L 331.596383 653.838243 
L 330.467602 653.627552 
L 330.645119 652.676516 
L 331.773901 652.887207 
" clip-path="url(#p3b1d76e7c8)" style="fill: #e6482f"/>
    <path d="M 330.467602 653.627552 
L 329.272251 653.359799 
L 329.50862 652.419005 
L 330.645119 652.676516 
L 330.467602 653.627552 
" clip-path="url(#p3b1d76e7c8)" style="fill: #e6482f"/>
    <path d="M 324.320084 651.264595 
L 324.1252 652.222946 
L 323.137275 652.02396 
L 323.331194 651.064146 
L 324.320084 651.264595 
" clip-path="url(#p3b1d76e7c8)" style="fill: #e6482f"/>
    <path d="M 320.884536 650.588628 
L 320.715701 651.545516 
L 319.757684 651.377256 
L 319.926519 650.420368 
L 320.884536 650.588628 
" clip-path="url(#p3b1d76e7c8)" style="fill: #e6482f"/>
    <path d="M 315.119067 649.049414 
L 314.920324 650.196509 
L 313.916963 650.023859 
L 314.115705 648.875301 
L 315.119067 649.049414 
" clip-path="url(#p3b1d76e7c8)" style="fill: #e6482f"/>
    <path d="M 311.15193 648.393931 
L 310.918456 649.456164 
L 309.93246 649.239621 
L 310.16497 648.177387 
L 311.15193 648.393931 
" clip-path="url(#p3b1d76e7c8)" style="fill: #e6482f"/>
    <path d="M 309.159679 648.05741 
L 308.962866 649.09916 
L 308.090713 648.935289 
L 308.286562 647.89354 
L 309.159679 648.05741 
" clip-path="url(#p3b1d76e7c8)" style="fill: #e6482f"/>
    <path d="M 292.708411 650.224308 
L 292.519316 651.358235 
L 291.771619 651.233869 
L 291.959749 650.099942 
L 292.708411 650.224308 
" clip-path="url(#p3b1d76e7c8)" style="fill: #e6482f"/>
    <path d="M 290.554079 649.593698 
L 290.364019 650.664711 
L 289.406967 650.494987 
L 289.597991 649.423975 
L 290.554079 649.593698 
" clip-path="url(#p3b1d76e7c8)" style="fill: #e6482f"/>
    <path d="M 283.892338 647.510199 
L 283.521866 649.400565 
L 281.966656 649.094771 
L 282.337128 647.204405 
L 283.892338 647.510199 
" clip-path="url(#p3b1d76e7c8)" style="fill: #e6482f"/>
    <path d="M 302.790264 646.298727 
L 302.622394 647.359497 
L 301.488788 647.179532 
L 301.657623 646.118761 
L 302.790264 646.298727 
" clip-path="url(#p3b1d76e7c8)" style="fill: #e6482f"/>
    <path d="M 300.78933 645.887587 
L 300.614706 647.109301 
L 299.549599 646.957136 
L 299.724223 645.735421 
L 300.78933 645.887587 
" clip-path="url(#p3b1d76e7c8)" style="fill: #e6482f"/>
    <path d="M 297.119342 645.406216 
L 297.915278 645.631539 
L 297.593045 646.766929 
L 296.797109 646.540143 
L 297.119342 645.406216 
" clip-path="url(#p3b1d76e7c8)" style="fill: #e6482f"/>
    <path d="M 288.80495 643.534871 
L 288.567616 644.532727 
L 287.319203 644.235711 
L 287.556537 643.237856 
L 288.80495 643.534871 
" clip-path="url(#p3b1d76e7c8)" style="fill: #e6482f"/>
    <path d="M 286.536774 643.065206 
L 286.307159 644.203522 
L 285.252665 643.989905 
L 285.48228 642.851589 
L 286.536774 643.065206 
" clip-path="url(#p3b1d76e7c8)" style="fill: #e6482f"/>
    <path d="M 282.761627 641.888848 
L 282.596651 643.022775 
L 281.656 642.885241 
L 281.82194 641.751314 
L 282.761627 641.888848 
" clip-path="url(#p3b1d76e7c8)" style="fill: #e6482f"/>
    <path d="M 351.164825 645.824672 
L 351.218852 647.091744 
L 349.793886 647.151732 
L 349.739858 645.88466 
L 351.164825 645.824672 
" clip-path="url(#p3b1d76e7c8)" style="fill: #e6482f"/>
    <path d="M 350.565702 638.525109 
L 350.653496 639.937031 
L 349.299923 640.02043 
L 349.212129 638.608508 
L 350.565702 638.525109 
" clip-path="url(#p3b1d76e7c8)" style="fill: #e6482f"/>
    <path d="M 350.695946 635.338409 
L 350.808824 636.690343 
L 349.415695 636.80593 
L 349.302817 635.453997 
L 350.695946 635.338409 
" clip-path="url(#p3b1d76e7c8)" style="fill: #e6482f"/>
    <path d="M 341.245054 635.582752 
L 341.042452 636.693269 
L 339.97831 636.498672 
L 340.180912 635.388156 
L 341.245054 635.582752 
" clip-path="url(#p3b1d76e7c8)" style="fill: #e6482f"/>
    <path d="M 337.601115 634.674147 
L 337.407196 635.629572 
L 336.477157 635.440828 
L 336.671076 634.485404 
L 337.601115 634.674147 
" clip-path="url(#p3b1d76e7c8)" style="fill: #e6482f"/>
    <path d="M 332.538964 634.612696 
L 331.722768 634.359574 
L 332.057544 633.275394 
L 332.873739 633.527052 
L 332.538964 634.612696 
" clip-path="url(#p3b1d76e7c8)" style="fill: #e6482f"/>
    <path d="M 328.900814 632.723793 
L 328.664445 633.948434 
L 326.56607 633.541684 
L 326.802438 632.317043 
L 328.900814 632.723793 
" clip-path="url(#p3b1d76e7c8)" style="fill: #e6482f"/>
    <path d="M 341.633856 630.467645 
L 341.570181 631.80641 
L 340.612164 631.761053 
L 340.675839 630.422288 
L 341.633856 630.467645 
" clip-path="url(#p3b1d76e7c8)" style="fill: #e6482f"/>
    <path d="M 320.97233 630.706135 
L 320.76008 631.720085 
L 319.557976 631.466963 
L 319.77119 630.453013 
L 320.97233 630.706135 
" clip-path="url(#p3b1d76e7c8)" style="fill: #e6482f"/>
    <path d="M 315.4413 629.53563 
L 315.287902 630.533486 
L 314.19964 630.366689 
L 314.353039 629.36737 
L 315.4413 629.53563 
" clip-path="url(#p3b1d76e7c8)" style="fill: #e6482f"/>
    <path d="M 336.935424 629.226909 
L 336.777201 630.401804 
L 335.613688 630.246712 
L 335.77191 629.070354 
L 336.935424 629.226909 
" clip-path="url(#p3b1d76e7c8)" style="fill: #e6482f"/>
    <path d="M 330.810095 628.265632 
L 330.537065 629.538556 
L 329.197964 629.251782 
L 329.471958 627.978858 
L 330.810095 628.265632 
" clip-path="url(#p3b1d76e7c8)" style="fill: #e6482f"/>
    <path d="M 309.624698 628.06372 
L 309.376752 629.071817 
L 308.423559 628.837716 
L 308.671505 627.829619 
L 309.624698 628.06372 
" clip-path="url(#p3b1d76e7c8)" style="fill: #e6482f"/>
    <path d="M 307.626659 627.50334 
L 307.429845 628.373904 
L 306.444815 628.100298 
L 306.659959 627.295576 
L 307.626659 627.50334 
" clip-path="url(#p3b1d76e7c8)" style="fill: #e6482f"/>
    <path d="M 326.162795 627.080495 
L 325.946687 628.243685 
L 324.826588 628.03592 
L 325.042697 626.872731 
L 326.162795 627.080495 
" clip-path="url(#p3b1d76e7c8)" style="fill: #e6482f"/>
    <path d="M 322.834337 626.382582 
L 322.607616 627.529677 
L 321.403582 627.291186 
L 321.630303 626.144091 
L 322.834337 626.382582 
" clip-path="url(#p3b1d76e7c8)" style="fill: #e6482f"/>
    <path d="M 319.66796 625.71832 
L 319.527103 626.749828 
L 318.249747 626.575715 
L 318.389639 625.544207 
L 319.66796 625.71832 
" clip-path="url(#p3b1d76e7c8)" style="fill: #e6482f"/>
    <path d="M 311.501177 623.416814 
L 311.255161 624.628287 
L 310.374325 624.449785 
L 310.620342 623.238312 
L 311.501177 623.416814 
" clip-path="url(#p3b1d76e7c8)" style="fill: #e6482f"/>
    <path d="M 308.437066 622.754016 
L 308.27402 623.871848 
L 307.149097 623.706514 
L 307.312143 622.590145 
L 308.437066 622.754016 
" clip-path="url(#p3b1d76e7c8)" style="fill: #e6482f"/>
    <path d="M 306.444815 628.100298 
L 305.466537 627.838398 
L 305.681681 627.033675 
L 306.659959 627.295576 
L 306.444815 628.100298 
" clip-path="url(#p3b1d76e7c8)" style="fill: #e6482f"/>
    <path d="M 303.620931 626.536211 
L 303.467533 627.438963 
L 302.339716 627.248756 
L 302.493114 626.34454 
L 303.620931 626.536211 
" clip-path="url(#p3b1d76e7c8)" style="fill: #e6482f"/>
    <path d="M 301.764713 625.858781 
L 301.60649 626.799574 
L 300.509546 626.61522 
L 300.667769 625.672963 
L 301.764713 625.858781 
" clip-path="url(#p3b1d76e7c8)" style="fill: #e6482f"/>
    <path d="M 297.839061 625.027722 
L 297.608481 626.220174 
L 296.541445 626.013873 
L 296.77106 624.821421 
L 297.839061 625.027722 
" clip-path="url(#p3b1d76e7c8)" style="fill: #e6482f"/>
    <path d="M 293.576705 623.712367 
L 293.380856 624.929692 
L 292.383284 624.770211 
L 292.579132 623.552886 
L 293.576705 623.712367 
" clip-path="url(#p3b1d76e7c8)" style="fill: #e6482f"/>
    <path d="M 291.618221 623.37731 
L 291.43202 624.401502 
L 290.583022 624.247873 
L 290.770187 623.222218 
L 291.618221 623.37731 
" clip-path="url(#p3b1d76e7c8)" style="fill: #e6482f"/>
    <path d="M 288.094879 622.815467 
L 288.065935 623.977194 
L 287.069327 623.95232 
L 287.099235 622.789131 
L 288.094879 622.815467 
" clip-path="url(#p3b1d76e7c8)" style="fill: #e6482f"/>
    <path d="M 285.241087 622.525767 
L 285.218898 623.590927 
L 284.328414 623.571906 
L 284.350604 622.506747 
L 285.241087 622.525767 
" clip-path="url(#p3b1d76e7c8)" style="fill: #e6482f"/>
    <path d="M 306.663818 622.319466 
L 306.480511 623.387552 
L 305.471361 623.214902 
L 305.653703 622.146816 
L 306.663818 622.319466 
" clip-path="url(#p3b1d76e7c8)" style="fill: #e6482f"/>
    <path d="M 282.846527 622.102922 
L 282.787676 623.343658 
L 281.764054 623.295374 
L 281.82387 622.053176 
L 282.846527 622.102922 
" clip-path="url(#p3b1d76e7c8)" style="fill: #e6482f"/>
    <path d="M 280.135521 621.88199 
L 280.073776 623.18125 
L 279.076203 623.13443 
L 279.138913 621.835169 
L 280.135521 621.88199 
" clip-path="url(#p3b1d76e7c8)" style="fill: #e6482f"/>
    <path d="M 273.380198 621.280643 
L 273.308805 622.373602 
L 272.528306 622.322392 
L 272.600663 621.22797 
L 273.380198 621.280643 
" clip-path="url(#p3b1d76e7c8)" style="fill: #e6482f"/>
    <path d="M 302.05125 621.317221 
L 301.863119 622.33995 
L 300.806696 622.145353 
L 300.995791 621.122624 
L 302.05125 621.317221 
" clip-path="url(#p3b1d76e7c8)" style="fill: #e6482f"/>
    <path d="M 275.050216 621.254306 
L 274.991365 622.227289 
L 274.130789 622.176079 
L 274.188676 621.203097 
L 275.050216 621.254306 
" clip-path="url(#p3b1d76e7c8)" style="fill: #e6482f"/>
    <path d="M 271.616597 621.141645 
L 271.508543 622.247772 
L 270.522548 622.151206 
L 270.630602 621.045078 
L 271.616597 621.141645 
" clip-path="url(#p3b1d76e7c8)" style="fill: #e6482f"/>
    <path d="M 298.937935 620.509572 
L 298.826986 621.617163 
L 297.747408 621.508891 
L 297.858357 620.401301 
L 298.937935 620.509572 
" clip-path="url(#p3b1d76e7c8)" style="fill: #e6482f"/>
    <path d="M 296.937966 620.056002 
L 296.798074 621.187002 
L 295.717531 621.053857 
L 295.856458 619.922857 
L 296.937966 620.056002 
" clip-path="url(#p3b1d76e7c8)" style="fill: #e6482f"/>
    <path d="M 292.885929 618.983526 
L 292.739284 620.257914 
L 291.634622 620.132084 
L 291.781267 618.856234 
L 292.885929 618.983526 
" clip-path="url(#p3b1d76e7c8)" style="fill: #e6482f"/>
    <path d="M 289.398284 618.250497 
L 289.305666 619.397592 
L 288.255995 619.312731 
L 288.348613 618.165636 
L 289.398284 618.250497 
" clip-path="url(#p3b1d76e7c8)" style="fill: #e6482f"/>
    <path d="M 286.184633 617.987134 
L 286.087191 619.083019 
L 284.872545 618.974747 
L 284.969987 617.878862 
L 286.184633 617.987134 
" clip-path="url(#p3b1d76e7c8)" style="fill: #e6482f"/>
    <path d="M 283.860501 617.587699 
L 283.820945 618.787467 
L 282.695058 618.750888 
L 282.734613 617.549657 
L 283.860501 617.587699 
" clip-path="url(#p3b1d76e7c8)" style="fill: #e6482f"/>
    <path d="M 280.581245 617.539416 
L 280.599576 618.614817 
L 279.627087 618.630912 
L 279.609721 617.556973 
L 280.581245 617.539416 
" clip-path="url(#p3b1d76e7c8)" style="fill: #e6482f"/>
    <path d="M 274.101846 617.262884 
L 274.028524 618.420221 
L 273.025162 618.357306 
L 273.098485 617.198506 
L 274.101846 617.262884 
" clip-path="url(#p3b1d76e7c8)" style="fill: #e6482f"/>
    <path d="M 277.336722 617.079992 
L 277.368559 618.310486 
L 276.518597 618.332433 
L 276.486759 617.103402 
L 277.336722 617.079992 
" clip-path="url(#p3b1d76e7c8)" style="fill: #e6482f"/>
    <path d="M 271.189204 616.927827 
L 271.195957 618.165636 
L 270.094189 618.171488 
L 270.087436 616.933679 
L 271.189204 616.927827 
" clip-path="url(#p3b1d76e7c8)" style="fill: #e6482f"/>
    <path d="M 267.626306 616.888322 
L 267.577103 618.063217 
L 266.49463 618.017859 
L 266.544799 616.842965 
L 267.626306 616.888322 
" clip-path="url(#p3b1d76e7c8)" style="fill: #e6482f"/>
    <path d="M 265.772017 597.260414 
L 267.259694 595.79143 
L 268.700096 597.248709 
L 265.914803 600.000859 
L 264.474401 598.542117 
L 265.772017 597.260414 
" clip-path="url(#p3b1d76e7c8)" style="fill: #e6482f"/>
    <path d="M 280.432671 595.642191 
L 289.642371 595.178378 
L 289.798663 598.286069 
L 280.588964 598.751345 
L 280.432671 595.642191 
" clip-path="url(#p3b1d76e7c8)" style="fill: #e6482f"/>
    <path d="M 276.869773 594.80089 
L 277.557655 598.054895 
L 275.299127 598.531875 
L 274.611245 595.277871 
L 276.869773 594.80089 
" clip-path="url(#p3b1d76e7c8)" style="fill: #e6482f"/>
    <path d="M 294.308966 587.830532 
L 296.062919 588.546003 
L 294.708381 591.864386 
L 292.955393 591.148914 
L 294.308966 587.830532 
" clip-path="url(#p3b1d76e7c8)" style="fill: #e6482f"/>
    <path d="M 93.326033 768.733563 
L 94.797308 769.529506 
L 96.981548 765.488338 
L 99.656857 766.935374 
L 94.628473 776.237964 
L 92.401783 775.032344 
L 94.117145 771.860275 
L 92.197251 770.821452 
L 93.326033 768.733563 
" clip-path="url(#p3b1d76e7c8)" style="fill: #e6482f"/>
    <path d="M 88.58708 761.240867 
L 91.242128 762.565001 
L 89.330918 766.402795 
L 91.895278 767.680108 
L 90.739483 770.002098 
L 88.16644 768.718932 
L 86.847598 771.368663 
L 84.200268 770.048918 
L 88.58708 761.240867 
" clip-path="url(#p3b1d76e7c8)" style="fill: #e6482f"/>
    <path d="M 79.691895 756.879272 
L 82.296776 758.437507 
L 78.47146 764.84017 
L 75.86658 763.281935 
L 79.691895 756.879272 
" clip-path="url(#p3b1d76e7c8)" style="fill: #e6482f"/>
    <path d="M 102.446009 755.683894 
L 104.352396 756.604204 
L 101.364501 762.799102 
L 99.458115 761.878792 
L 102.446009 755.683894 
" clip-path="url(#p3b1d76e7c8)" style="fill: #e6482f"/>
    <path d="M 83.082099 750.264455 
L 81.60407 749.456807 
L 82.684614 747.480116 
L 84.08739 748.24826 
L 85.886687 744.957678 
L 89.162083 746.750014 
L 84.44339 755.381026 
L 81.242282 753.629657 
L 83.082099 750.264455 
" clip-path="url(#p3b1d76e7c8)" style="fill: #e6482f"/>
    <path d="M 85.117765 719.033915 
L 85.715923 718.015576 
L 89.718756 720.369754 
L 89.121563 721.386631 
L 85.117765 719.033915 
" clip-path="url(#p3b1d76e7c8)" style="fill: #e6482f"/>
    <path d="M 91.649262 717.177201 
L 92.218476 716.297859 
L 96.410404 718.627165 
L 96.048615 719.610389 
L 91.649262 717.177201 
" clip-path="url(#p3b1d76e7c8)" style="fill: #e6482f"/>
    <path d="M 88.078646 713.450606 
L 88.698993 712.104525 
L 92.787691 714.329948 
L 94.081448 711.431484 
L 95.116647 712.051852 
L 93.82289 714.847896 
L 98.170146 717.125992 
L 97.600931 718.36819 
L 88.078646 713.450606 
" clip-path="url(#p3b1d76e7c8)" style="fill: #e6482f"/>
    <path d="M 96.010025 659.861955 
L 95.815141 661.080743 
L 94.611107 660.889073 
L 94.805991 659.670284 
L 96.010025 659.861955 
" clip-path="url(#p3b1d76e7c8)" style="fill: #e6482f"/>
    <path d="M 96.294632 656.085613 
L 96.116149 657.045427 
L 94.652592 656.771821 
L 94.831075 655.812007 
L 96.294632 656.085613 
" clip-path="url(#p3b1d76e7c8)" style="fill: #e6482f"/>
    <path d="M 135.509661 627.29265 
L 135.00798 628.552406 
L 133.957345 628.132487 
L 134.459026 626.874194 
L 135.509661 627.29265 
" clip-path="url(#p3b1d76e7c8)" style="fill: #e6482f"/>
    <path d="M 131.298437 625.81635 
L 130.983922 626.774701 
L 130.071249 626.476222 
L 130.385764 625.516408 
L 131.298437 625.81635 
" clip-path="url(#p3b1d76e7c8)" style="fill: #e6482f"/>
    <path d="M 127.354455 624.34444 
L 126.947322 625.55006 
L 125.714345 625.133068 
L 126.121479 623.92891 
L 127.354455 624.34444 
" clip-path="url(#p3b1d76e7c8)" style="fill: #e6482f"/>
    <path d="M 122.998516 622.636965 
L 122.638657 623.608485 
L 121.707653 623.261722 
L 122.068477 622.291666 
L 122.998516 622.636965 
" clip-path="url(#p3b1d76e7c8)" style="fill: #e6482f"/>
    <path d="M 121.80413 622.054639 
L 121.310168 623.197345 
L 120.552823 622.869603 
L 121.04775 621.726898 
L 121.80413 622.054639 
" clip-path="url(#p3b1d76e7c8)" style="fill: #e6482f"/>
    <path d="M 118.935867 621.255769 
L 118.598198 622.334097 
L 117.76946 622.075123 
L 118.107129 620.995332 
L 118.935867 621.255769 
" clip-path="url(#p3b1d76e7c8)" style="fill: #e6482f"/>
    <path d="M 115.226325 620.306197 
L 116.060851 620.563708 
L 115.750195 621.570343 
L 114.915668 621.312831 
L 115.226325 620.306197 
" clip-path="url(#p3b1d76e7c8)" style="fill: #e6482f"/>
    <path d="M 132.865225 607.917863 
L 133.831925 608.279257 
L 133.442158 609.321006 
L 132.475457 608.959613 
L 132.865225 607.917863 
" clip-path="url(#p3b1d76e7c8)" style="fill: #e6482f"/>
    <path d="M 128.8923 606.536667 
L 129.914956 606.917081 
L 129.420029 608.248531 
L 128.397372 607.868117 
L 128.8923 606.536667 
" clip-path="url(#p3b1d76e7c8)" style="fill: #e6482f"/>
    <path d="M 125.721099 605.151082 
L 125.347733 606.339145 
L 124.184219 605.973362 
L 124.557585 604.785299 
L 125.721099 605.151082 
" clip-path="url(#p3b1d76e7c8)" style="fill: #e6482f"/>
    <path d="M 111.008348 618.172951 
L 110.588672 619.154713 
L 109.624867 618.740646 
L 110.044542 617.760348 
L 111.008348 618.172951 
" clip-path="url(#p3b1d76e7c8)" style="fill: #e6482f"/>
    <path d="M 106.766252 616.594233 
L 106.412181 617.706213 
L 105.349968 617.366766 
L 105.704039 616.256249 
L 106.766252 616.594233 
" clip-path="url(#p3b1d76e7c8)" style="fill: #e6482f"/>
    <path d="M 103.329739 615.240836 
L 104.41607 615.659292 
L 103.968417 616.823944 
L 102.882085 616.405489 
L 103.329739 615.240836 
" clip-path="url(#p3b1d76e7c8)" style="fill: #e6482f"/>
    <path d="M 100.402625 614.418556 
L 101.195666 614.741908 
L 100.834842 615.628566 
L 100.042765 615.305214 
L 100.402625 614.418556 
" clip-path="url(#p3b1d76e7c8)" style="fill: #e6482f"/>
    <path d="M 112.865531 600.375421 
L 112.597325 601.430339 
L 111.630625 601.185996 
L 111.898831 600.131078 
L 112.865531 600.375421 
" clip-path="url(#p3b1d76e7c8)" style="fill: #e6482f"/>
    <path d="M 107.800486 598.201208 
L 107.525526 599.131759 
L 106.560755 598.846449 
L 106.83475 597.91736 
L 107.800486 598.201208 
" clip-path="url(#p3b1d76e7c8)" style="fill: #e6482f"/>
    <path d="M 111.398115 563.052402 
L 112.115904 563.723979 
L 111.204196 564.699888 
L 110.486407 564.02831 
L 111.398115 563.052402 
" clip-path="url(#p3b1d76e7c8)" style="fill: #e6482f"/>
    <path d="M 108.334968 560.190517 
L 109.199403 561.015723 
L 108.306025 561.952127 
L 107.440626 561.126921 
L 108.334968 560.190517 
" clip-path="url(#p3b1d76e7c8)" style="fill: #e6482f"/>
    <path d="M 120.975392 603.025152 
L 120.768931 604.069828 
L 119.940194 603.905957 
L 120.146654 602.861281 
L 120.975392 603.025152 
" clip-path="url(#p3b1d76e7c8)" style="fill: #e6482f"/>
    <path d="M 117.43179 601.720039 
L 117.182879 602.779346 
L 116.094618 602.523298 
L 116.343529 601.463991 
L 117.43179 601.720039 
" clip-path="url(#p3b1d76e7c8)" style="fill: #e6482f"/>
    <path d="M 135.128576 586.743426 
L 135.752783 587.218943 
L 135.19997 587.944656 
L 134.575763 587.470602 
L 135.128576 586.743426 
" clip-path="url(#p3b1d76e7c8)" style="fill: #e6482f"/>
    <path d="M 132.452303 583.849352 
L 133.136325 584.498982 
L 132.207251 585.476354 
L 131.523229 584.826723 
L 132.452303 583.849352 
" clip-path="url(#p3b1d76e7c8)" style="fill: #e6482f"/>
    <path d="M 129.552203 580.83969 
L 130.228507 581.436648 
L 129.389156 582.387683 
L 128.712852 581.790726 
L 129.552203 580.83969 
" clip-path="url(#p3b1d76e7c8)" style="fill: #e6482f"/>
    <path d="M 126.873035 578.412355 
L 127.48277 578.965419 
L 126.755333 579.768678 
L 126.145598 579.215614 
L 126.873035 578.412355 
" clip-path="url(#p3b1d76e7c8)" style="fill: #e6482f"/>
    <path d="M 135.575265 578.292379 
L 136.14255 578.85861 
L 135.321531 579.68089 
L 134.754246 579.113195 
L 135.575265 578.292379 
" clip-path="url(#p3b1d76e7c8)" style="fill: #e6482f"/>
    <path d="M 133.350504 576.409328 
L 133.959275 576.909719 
L 133.395849 577.595928 
L 132.787078 577.095537 
L 133.350504 576.409328 
" clip-path="url(#p3b1d76e7c8)" style="fill: #e6482f"/>
    <path d="M 123.670961 575.407083 
L 124.385856 576.074271 
L 123.507915 577.015065 
L 122.79302 576.347877 
L 123.670961 575.407083 
" clip-path="url(#p3b1d76e7c8)" style="fill: #e6482f"/>
    <path d="M 131.291684 573.879574 
L 131.916855 574.504331 
L 131.175911 575.244676 
L 130.55074 574.619919 
L 131.291684 573.879574 
" clip-path="url(#p3b1d76e7c8)" style="fill: #e6482f"/>
    <path d="M 153.689797 595.851419 
L 154.280237 596.39424 
L 153.525786 597.21652 
L 152.935347 596.673698 
L 153.689797 595.851419 
" clip-path="url(#p3b1d76e7c8)" style="fill: #e6482f"/>
    <path d="M 143.694774 594.99695 
L 144.290038 595.577813 
L 143.694774 596.186476 
L 143.100476 595.605613 
L 143.694774 594.99695 
" clip-path="url(#p3b1d76e7c8)" style="fill: #e6482f"/>
    <path d="M 150.978792 593.147552 
L 151.59914 593.729878 
L 150.746282 594.638483 
L 150.125935 594.054693 
L 150.978792 593.147552 
" clip-path="url(#p3b1d76e7c8)" style="fill: #e6482f"/>
    <path d="M 140.955791 592.284304 
L 141.539477 592.748117 
L 140.946143 593.494314 
L 140.362457 593.029038 
L 140.955791 592.284304 
" clip-path="url(#p3b1d76e7c8)" style="fill: #e6482f"/>
    <path d="M 147.804697 590.407107 
L 148.50705 590.999675 
L 147.711114 591.941931 
L 147.008761 591.3479 
L 147.804697 590.407107 
" clip-path="url(#p3b1d76e7c8)" style="fill: #e6482f"/>
    <path d="M 138.197512 589.704804 
L 138.70884 590.215436 
L 138.032536 590.892866 
L 137.521207 590.38077 
L 138.197512 589.704804 
" clip-path="url(#p3b1d76e7c8)" style="fill: #e6482f"/>
    <path d="M 145.025193 587.785175 
L 145.681237 588.377743 
L 144.976954 589.156129 
L 144.321875 588.565024 
L 145.025193 587.785175 
" clip-path="url(#p3b1d76e7c8)" style="fill: #e6482f"/>
    <path d="M 142.22157 584.92768 
L 142.91524 585.555363 
L 142.222534 586.320581 
L 141.528864 585.691434 
L 142.22157 584.92768 
" clip-path="url(#p3b1d76e7c8)" style="fill: #e6482f"/>
    <path d="M 139.650456 582.220886 
L 140.11644 582.72713 
L 139.188331 583.580135 
L 138.722347 583.073892 
L 139.650456 582.220886 
" clip-path="url(#p3b1d76e7c8)" style="fill: #e6482f"/>
    <path d="M 137.176784 580.371488 
L 137.86756 580.96113 
L 137.242389 581.694159 
L 136.551613 581.103054 
L 137.176784 580.371488 
" clip-path="url(#p3b1d76e7c8)" style="fill: #e6482f"/>
    <path d="M 128.21889 570.82163 
L 129.034121 571.515154 
L 128.121448 572.586166 
L 127.306217 571.891179 
L 128.21889 570.82163 
" clip-path="url(#p3b1d76e7c8)" style="fill: #e6482f"/>
    <path d="M 125.045759 567.999249 
L 125.766443 568.670826 
L 124.902973 569.596989 
L 124.18229 568.925411 
L 125.045759 567.999249 
" clip-path="url(#p3b1d76e7c8)" style="fill: #e6482f"/>
    <path d="M 114.179549 566.139609 
L 115.092221 566.901901 
L 114.27892 567.876346 
L 113.366247 567.112591 
L 114.179549 566.139609 
" clip-path="url(#p3b1d76e7c8)" style="fill: #e6482f"/>
    <path d="M 122.73224 565.096396 
L 123.59378 565.91575 
L 122.539285 567.02334 
L 121.67871 566.20545 
L 122.73224 565.096396 
" clip-path="url(#p3b1d76e7c8)" style="fill: #e6482f"/>
    <path d="M 114.776741 557.423735 
L 115.414455 558.082144 
L 114.337771 559.125357 
L 113.700058 558.466948 
L 114.776741 557.423735 
" clip-path="url(#p3b1d76e7c8)" style="fill: #e6482f"/>
    <path d="M 133.912966 557.296443 
L 134.760034 558.200658 
L 133.846396 559.05659 
L 132.999328 558.152375 
L 133.912966 557.296443 
" clip-path="url(#p3b1d76e7c8)" style="fill: #e6482f"/>
    <path d="M 113.071992 556.032297 
L 113.728036 556.861893 
L 112.739146 557.643205 
L 112.083102 556.815073 
L 113.071992 556.032297 
" clip-path="url(#p3b1d76e7c8)" style="fill: #e6482f"/>
    <path d="M 136.162811 550.326085 
L 136.999267 551.10886 
L 136.137726 552.02917 
L 135.30127 551.247858 
L 136.162811 550.326085 
" clip-path="url(#p3b1d76e7c8)" style="fill: #e6482f"/>
    <path d="M 134.12425 547.99678 
L 134.910538 548.696156 
L 133.933226 549.794968 
L 133.146938 549.095591 
L 134.12425 547.99678 
" clip-path="url(#p3b1d76e7c8)" style="fill: #e6482f"/>
    <path d="M 130.696421 544.952003 
L 131.440259 545.617728 
L 130.531445 546.634604 
L 129.787607 545.968879 
L 130.696421 544.952003 
" clip-path="url(#p3b1d76e7c8)" style="fill: #e6482f"/>
    <path d="M 105.270857 557.286201 
L 106.011801 557.978262 
L 105.262174 558.781521 
L 104.52123 558.08946 
L 105.270857 557.286201 
" clip-path="url(#p3b1d76e7c8)" style="fill: #e6482f"/>
    <path d="M 104.095767 556.180074 
L 104.79619 556.83263 
L 103.931756 557.760255 
L 103.231332 557.107699 
L 104.095767 556.180074 
" clip-path="url(#p3b1d76e7c8)" style="fill: #e6482f"/>
    <path d="M 110.316607 553.951724 
L 110.972651 554.60867 
L 110.316607 555.264153 
L 109.660563 554.60867 
L 110.316607 553.951724 
" clip-path="url(#p3b1d76e7c8)" style="fill: #e6482f"/>
    <path d="M 99.801573 551.871152 
L 100.701704 552.784146 
L 99.77263 553.700066 
L 98.872499 552.785609 
L 99.801573 551.871152 
" clip-path="url(#p3b1d76e7c8)" style="fill: #e6482f"/>
    <path d="M 108.597386 551.986739 
L 109.337365 552.636369 
L 108.593527 553.483522 
L 107.852583 552.832429 
L 108.597386 551.986739 
" clip-path="url(#p3b1d76e7c8)" style="fill: #e6482f"/>
    <path d="M 107.057612 550.418262 
L 107.736811 551.110323 
L 106.980431 551.853594 
L 106.301232 551.16007 
L 107.057612 550.418262 
" clip-path="url(#p3b1d76e7c8)" style="fill: #e6482f"/>
    <path d="M 96.957429 548.582032 
L 97.707056 549.27702 
L 96.628442 550.440209 
L 95.878816 549.743758 
L 96.957429 548.582032 
" clip-path="url(#p3b1d76e7c8)" style="fill: #e6482f"/>
    <path d="M 105.770608 548.424014 
L 106.466208 549.170211 
L 105.584408 549.992491 
L 104.888808 549.247757 
L 105.770608 548.424014 
" clip-path="url(#p3b1d76e7c8)" style="fill: #e6482f"/>
    <path d="M 103.952981 547.474442 
L 104.764353 548.20747 
L 103.973241 549.083886 
L 103.160904 548.349394 
L 103.952981 547.474442 
" clip-path="url(#p3b1d76e7c8)" style="fill: #e6482f"/>
    <path d="M 93.892353 546.131287 
L 94.623649 546.851148 
L 93.620288 547.869487 
L 92.889957 547.149626 
L 93.892353 546.131287 
" clip-path="url(#p3b1d76e7c8)" style="fill: #e6482f"/>
    <path d="M 101.267059 544.952003 
L 102.151754 545.746483 
L 101.510181 546.461955 
L 100.625487 545.667474 
L 101.267059 544.952003 
" clip-path="url(#p3b1d76e7c8)" style="fill: #e6482f"/>
    <path d="M 90.610204 542.527594 
L 91.293261 543.152351 
L 90.446193 544.077051 
L 89.763135 543.452293 
L 90.610204 542.527594 
" clip-path="url(#p3b1d76e7c8)" style="fill: #e6482f"/>
    <path d="M 98.557019 541.896985 
L 99.32787 542.709023 
L 98.527111 543.468388 
L 97.757224 542.65635 
L 98.557019 541.896985 
" clip-path="url(#p3b1d76e7c8)" style="fill: #e6482f"/>
    <path d="M 97.106004 539.217991 
L 97.87975 539.917368 
L 97.268085 540.593335 
L 96.494339 539.892495 
L 97.106004 539.217991 
" clip-path="url(#p3b1d76e7c8)" style="fill: #e6482f"/>
    <path d="M 92.895745 536.214182 
L 93.520916 536.910633 
L 92.618856 537.719745 
L 91.993685 537.023294 
L 92.895745 536.214182 
" clip-path="url(#p3b1d76e7c8)" style="fill: #e6482f"/>
    <path d="M 82.411583 534.723251 
L 83.209449 535.470912 
L 82.324754 536.413168 
L 81.527854 535.665508 
L 82.411583 534.723251 
" clip-path="url(#p3b1d76e7c8)" style="fill: #e6482f"/>
    <path d="M 91.686888 534.647169 
L 92.271539 535.245589 
L 91.497793 536.003491 
L 90.912177 535.405071 
L 91.686888 534.647169 
" clip-path="url(#p3b1d76e7c8)" style="fill: #e6482f"/>
    <path d="M 89.724544 533.789774 
L 90.343927 534.276996 
L 89.530625 535.31143 
L 88.911243 534.825671 
L 89.724544 533.789774 
" clip-path="url(#p3b1d76e7c8)" style="fill: #e6482f"/>
    <path d="M 80.256286 532.448082 
L 81.10046 533.172332 
L 80.167527 534.260902 
L 79.323353 533.536652 
L 80.256286 532.448082 
" clip-path="url(#p3b1d76e7c8)" style="fill: #e6482f"/>
    <path d="M 87.559599 531.801378 
L 88.098906 532.254949 
L 87.391729 533.096249 
L 86.851458 532.642679 
L 87.559599 531.801378 
" clip-path="url(#p3b1d76e7c8)" style="fill: #e6482f"/>
    <path d="M 121.163523 543.33378 
L 121.92955 544.110703 
L 120.94452 545.080759 
L 120.178492 544.303836 
L 121.163523 543.33378 
" clip-path="url(#p3b1d76e7c8)" style="fill: #e6482f"/>
    <path d="M 127.710456 542.00672 
L 128.363605 542.67976 
L 127.407518 543.608848 
L 126.754368 542.935808 
L 127.710456 542.00672 
" clip-path="url(#p3b1d76e7c8)" style="fill: #e6482f"/>
    <path d="M 131.066892 539.002911 
L 131.839674 539.872011 
L 130.834383 540.765984 
L 130.061601 539.896884 
L 131.066892 539.002911 
" clip-path="url(#p3b1d76e7c8)" style="fill: #e6482f"/>
    <path d="M 133.750884 536.896002 
L 134.557432 537.863131 
L 133.566613 538.689801 
L 132.76103 537.722671 
L 133.750884 536.896002 
" clip-path="url(#p3b1d76e7c8)" style="fill: #e6482f"/>
    <path d="M 118.496897 536.100058 
L 119.49061 536.743836 
L 118.770892 537.852889 
L 117.777178 537.207649 
L 118.496897 536.100058 
" clip-path="url(#p3b1d76e7c8)" style="fill: #e6482f"/>
    <path d="M 136.073087 514.221854 
L 137.081272 515.259214 
L 136.073087 516.238049 
L 135.065866 515.199226 
L 136.073087 514.221854 
" clip-path="url(#p3b1d76e7c8)" style="fill: #e6482f"/>
    <path d="M 133.811665 512.460244 
L 134.901855 513.289839 
L 134.127145 514.308179 
L 133.036954 513.480046 
L 133.811665 512.460244 
" clip-path="url(#p3b1d76e7c8)" style="fill: #e6482f"/>
    <path d="M 131.903348 510.74838 
L 132.788043 511.430199 
L 131.880194 512.610946 
L 130.994535 511.929127 
L 131.903348 510.74838 
" clip-path="url(#p3b1d76e7c8)" style="fill: #e6482f"/>
    <path d="M 129.923639 509.086263 
L 130.92893 509.959752 
L 130.032658 510.99126 
L 129.027367 510.116307 
L 129.923639 509.086263 
" clip-path="url(#p3b1d76e7c8)" style="fill: #e6482f"/>
    <path d="M 127.77799 507.589479 
L 128.741795 508.392739 
L 127.897621 509.405225 
L 126.933815 508.601966 
L 127.77799 507.589479 
" clip-path="url(#p3b1d76e7c8)" style="fill: #e6482f"/>
    <path d="M 112.438138 531.277577 
L 113.390366 532.010606 
L 112.49313 533.173795 
L 111.541866 532.440766 
L 112.438138 531.277577 
" clip-path="url(#p3b1d76e7c8)" style="fill: #e6482f"/>
    <path d="M 86.082535 529.633017 
L 86.644997 530.234364 
L 85.564454 531.245388 
L 85.001992 530.644041 
L 86.082535 529.633017 
" clip-path="url(#p3b1d76e7c8)" style="fill: #e6482f"/>
    <path d="M 77.217259 529.477925 
L 78.016089 530.019284 
L 77.408283 530.916183 
L 76.609453 530.376288 
L 77.217259 529.477925 
" clip-path="url(#p3b1d76e7c8)" style="fill: #e6482f"/>
    <path d="M 109.203262 528.234264 
L 110.058049 528.89121 
L 109.00259 530.26509 
L 108.147803 529.608144 
L 109.203262 528.234264 
" clip-path="url(#p3b1d76e7c8)" style="fill: #e6482f"/>
    <path d="M 85.053125 528.444955 
L 85.614622 528.924862 
L 84.751152 529.934422 
L 84.189656 529.454515 
L 85.053125 528.444955 
" clip-path="url(#p3b1d76e7c8)" style="fill: #e6482f"/>
    <path d="M 106.467173 527.897743 
L 107.398176 528.759528 
L 106.495151 529.735436 
L 105.564147 528.872189 
L 106.467173 527.897743 
" clip-path="url(#p3b1d76e7c8)" style="fill: #e6482f"/>
    <path d="M 81.925339 526.156617 
L 82.472364 526.678955 
L 81.813426 527.36809 
L 81.266401 526.845752 
L 81.925339 526.156617 
" clip-path="url(#p3b1d76e7c8)" style="fill: #e6482f"/>
    <path d="M 79.83854 523.926805 
L 80.490725 524.690559 
L 79.760394 525.313853 
L 79.107244 524.550099 
L 79.83854 523.926805 
" clip-path="url(#p3b1d76e7c8)" style="fill: #e6482f"/>
    <path d="M 91.598129 495.376722 
L 93.616429 493.565365 
L 96.876388 497.032986 
L 94.910186 498.793133 
L 91.598129 495.376722 
" clip-path="url(#p3b1d76e7c8)" style="fill: #e6482f"/>
    <path d="M 110.628228 493.773129 
L 111.754115 494.595409 
L 111.133768 495.445489 
L 110.007881 494.623209 
L 110.628228 493.773129 
" clip-path="url(#p3b1d76e7c8)" style="fill: #e6482f"/>
    <path d="M 167.550656 614.354178 
L 167.061517 615.524684 
L 165.961679 615.062334 
L 166.429593 613.904997 
L 167.550656 614.354178 
" clip-path="url(#p3b1d76e7c8)" style="fill: #e6482f"/>
    <path d="M 183.48963 613.567014 
L 184.203561 614.188845 
L 183.424991 615.084281 
L 182.710096 614.46245 
L 183.48963 613.567014 
" clip-path="url(#p3b1d76e7c8)" style="fill: #e6482f"/>
    <path d="M 165.961679 615.062334 
L 164.721949 614.56048 
L 165.189862 613.403143 
L 166.429593 613.904997 
L 165.961679 615.062334 
" clip-path="url(#p3b1d76e7c8)" style="fill: #e6482f"/>
    <path d="M 160.15569 611.814182 
L 159.802584 612.779849 
L 158.819482 612.421382 
L 159.172588 611.454252 
L 160.15569 611.814182 
" clip-path="url(#p3b1d76e7c8)" style="fill: #e6482f"/>
    <path d="M 159.662692 610.250095 
L 160.612991 610.653919 
L 160.15569 611.814182 
L 159.172588 611.454252 
L 159.662692 610.250095 
" clip-path="url(#p3b1d76e7c8)" style="fill: #e6482f"/>
    <path d="M 162.074618 607.445272 
L 161.553642 608.527989 
L 160.651582 608.091976 
L 161.173523 607.010722 
L 162.074618 607.445272 
" clip-path="url(#p3b1d76e7c8)" style="fill: #e6482f"/>
    <path d="M 161.676168 605.952878 
L 162.595594 606.406449 
L 162.074618 607.445272 
L 161.173523 607.010722 
L 161.676168 605.952878 
" clip-path="url(#p3b1d76e7c8)" style="fill: #e6482f"/>
    <path d="M 171.955798 604.356602 
L 171.520687 605.40713 
L 170.176761 604.85114 
L 170.612838 603.800612 
L 171.955798 604.356602 
" clip-path="url(#p3b1d76e7c8)" style="fill: #e6482f"/>
    <path d="M 146.691352 631.584014 
L 147.555786 631.986375 
L 146.973065 633.237352 
L 146.10863 632.834991 
L 146.691352 631.584014 
" clip-path="url(#p3b1d76e7c8)" style="fill: #e6482f"/>
    <path d="M 143.578037 630.18965 
L 143.095652 631.392344 
L 142.085537 630.985593 
L 142.567922 629.784362 
L 143.578037 630.18965 
" clip-path="url(#p3b1d76e7c8)" style="fill: #e6482f"/>
    <path d="M 139.500917 629.013292 
L 139.184472 629.932139 
L 138.133837 629.570745 
L 138.450282 628.651899 
L 139.500917 629.013292 
" clip-path="url(#p3b1d76e7c8)" style="fill: #e6482f"/>
    <path d="M 154.70763 616.519613 
L 155.730287 616.869301 
L 155.313506 618.08809 
L 154.290849 617.739865 
L 154.70763 616.519613 
" clip-path="url(#p3b1d76e7c8)" style="fill: #e6482f"/>
    <path d="M 150.495442 614.585353 
L 151.36663 614.929189 
L 150.960461 615.956307 
L 150.090238 615.611008 
L 150.495442 614.585353 
" clip-path="url(#p3b1d76e7c8)" style="fill: #e6482f"/>
    <path d="M 146.032413 612.949572 
L 146.737661 613.265609 
L 146.346929 614.137635 
L 145.641681 613.821599 
L 146.032413 612.949572 
" clip-path="url(#p3b1d76e7c8)" style="fill: #e6482f"/>
    <path d="M 142.323835 610.757801 
L 143.343598 611.287455 
L 142.628703 612.661335 
L 141.609905 612.131682 
L 142.323835 610.757801 
" clip-path="url(#p3b1d76e7c8)" style="fill: #e6482f"/>
    <path d="M 137.201868 609.642895 
L 138.016135 609.909185 
L 137.626367 611.092859 
L 136.813066 610.825105 
L 137.201868 609.642895 
" clip-path="url(#p3b1d76e7c8)" style="fill: #e6482f"/>
    <path d="M 150.725057 601.784416 
L 151.408115 602.292123 
L 150.767507 603.153907 
L 150.08445 602.646201 
L 150.725057 601.784416 
" clip-path="url(#p3b1d76e7c8)" style="fill: #e6482f"/>
    <path d="M 146.648902 597.794457 
L 147.461239 598.644536 
L 146.456912 599.604351 
L 145.644576 598.754271 
L 146.648902 597.794457 
" clip-path="url(#p3b1d76e7c8)" style="fill: #e6482f"/>
    <path d="M 187.523336 615.896319 
L 188.270069 616.586917 
L 187.263813 617.674024 
L 186.51708 616.983426 
L 187.523336 615.896319 
" clip-path="url(#p3b1d76e7c8)" style="fill: #e6482f"/>
    <path d="M 191.808847 612.452108 
L 191.202006 613.259756 
L 190.148477 612.468202 
L 190.754353 611.660554 
L 191.808847 612.452108 
" clip-path="url(#p3b1d76e7c8)" style="fill: #e6482f"/>
    <path d="M 186.041449 610.709518 
L 186.781428 611.307939 
L 186.116701 612.130219 
L 185.376722 611.533261 
L 186.041449 610.709518 
" clip-path="url(#p3b1d76e7c8)" style="fill: #e6482f"/>
    <path d="M 194.020101 609.964784 
L 193.361163 610.914356 
L 192.123362 610.056961 
L 192.7823 609.105926 
L 194.020101 609.964784 
" clip-path="url(#p3b1d76e7c8)" style="fill: #e6482f"/>
    <path d="M 189.572509 608.228047 
L 188.709039 609.217124 
L 187.868724 608.484095 
L 188.733158 607.495018 
L 189.572509 608.228047 
" clip-path="url(#p3b1d76e7c8)" style="fill: #e6482f"/>
    <path d="M 247.731377 604.622873 
L 247.201006 604.834137 
L 247.185712 604.675564 
L 247.731377 604.622873 
" clip-path="url(#p3b1d76e7c8)" style="fill: #e6482f"/>
    <path d="M 191.06115 604.577534 
L 191.77701 605.306174 
L 190.923188 606.146011 
L 190.207328 605.415909 
L 191.06115 604.577534 
" clip-path="url(#p3b1d76e7c8)" style="fill: #e6482f"/>
    <path d="M 199.827055 601.987792 
L 200.615273 602.647664 
L 199.852139 603.560658 
L 199.062957 602.900786 
L 199.827055 601.987792 
" clip-path="url(#p3b1d76e7c8)" style="fill: #e6482f"/>
    <path d="M 193.617792 601.159659 
L 194.521782 601.927803 
L 193.576307 603.039783 
L 192.673281 602.270176 
L 193.617792 601.159659 
" clip-path="url(#p3b1d76e7c8)" style="fill: #e6482f"/>
    <path d="M 221.415726 598.280217 
L 221.865309 599.036656 
L 220.422977 599.895514 
L 220.860018 600.630006 
L 218.875485 601.810753 
L 217.988861 600.319822 
L 221.415726 598.280217 
" clip-path="url(#p3b1d76e7c8)" style="fill: #e6482f"/>
    <path d="M 170.176761 604.85114 
L 169.078853 604.380012 
L 169.520717 603.347041 
L 170.612838 603.800612 
L 170.176761 604.85114 
" clip-path="url(#p3b1d76e7c8)" style="fill: #e6482f"/>
    <path d="M 164.384279 601.642493 
L 163.981005 602.653517 
L 163.046142 602.280418 
L 163.450381 601.269394 
L 164.384279 601.642493 
" clip-path="url(#p3b1d76e7c8)" style="fill: #e6482f"/>
    <path d="M 163.823747 600.331527 
L 164.763434 600.713404 
L 164.384279 601.642493 
L 163.450381 601.269394 
L 163.446522 601.259152 
L 163.823747 600.331527 
" clip-path="url(#p3b1d76e7c8)" style="fill: #e6482f"/>
    <path d="M 156.376683 598.738177 
L 157.042375 599.358545 
L 156.378613 600.069626 
L 155.712921 599.449259 
L 156.376683 598.738177 
" clip-path="url(#p3b1d76e7c8)" style="fill: #e6482f"/>
    <path d="M 175.987575 597.488663 
L 179.698082 593.440178 
L 181.861098 595.422721 
L 178.15059 599.471206 
L 175.987575 597.488663 
" clip-path="url(#p3b1d76e7c8)" style="fill: #e6482f"/>
    <path d="M 167.74361 596.35181 
L 166.920661 597.21652 
L 166.164281 596.514217 
L 166.970829 595.629023 
L 167.74361 596.35181 
" clip-path="url(#p3b1d76e7c8)" style="fill: #e6482f"/>
    <path d="M 167.777377 594.765775 
L 168.550158 595.488562 
L 167.74361 596.35181 
L 166.970829 595.629023 
L 167.777377 594.765775 
" clip-path="url(#p3b1d76e7c8)" style="fill: #e6482f"/>
    <path d="M 180.516208 593.434326 
L 181.506062 592.29162 
L 180.38114 591.317174 
L 181.394149 590.148132 
L 183.573565 592.035572 
L 181.571667 594.348783 
L 180.516208 593.434326 
" clip-path="url(#p3b1d76e7c8)" style="fill: #e6482f"/>
    <path d="M 171.098117 590.742164 
L 172.144893 591.620043 
L 171.217749 592.72617 
L 170.170973 591.846828 
L 171.098117 590.742164 
" clip-path="url(#p3b1d76e7c8)" style="fill: #e6482f"/>
    <path d="M 165.417548 585.858231 
L 166.2733 586.575165 
L 165.55551 587.43256 
L 164.698794 586.714163 
L 165.417548 585.858231 
" clip-path="url(#p3b1d76e7c8)" style="fill: #e6482f"/>
    <path d="M 202.702071 598.746956 
L 203.572294 599.449259 
L 202.724261 600.50125 
L 201.854038 599.797484 
L 202.702071 598.746956 
" clip-path="url(#p3b1d76e7c8)" style="fill: #e6482f"/>
    <path d="M 196.238109 598.350447 
L 196.939497 598.897658 
L 196.168645 599.885272 
L 195.467257 599.336598 
L 196.238109 598.350447 
" clip-path="url(#p3b1d76e7c8)" style="fill: #e6482f"/>
    <path d="M 247.76168 596.840495 
L 248.350191 599.436091 
L 247.063187 599.727254 
L 246.475641 597.131659 
L 247.76168 596.840495 
" clip-path="url(#p3b1d76e7c8)" style="fill: #e6482f"/>
    <path d="M 220.042857 596.190865 
L 220.580235 597.074596 
L 219.087735 597.984664 
L 218.550357 597.100933 
L 220.042857 596.190865 
" clip-path="url(#p3b1d76e7c8)" style="fill: #e6482f"/>
    <path d="M 254.095399 595.163747 
L 254.84985 598.239249 
L 253.706597 598.518707 
L 252.952146 595.444668 
L 254.095399 595.163747 
" clip-path="url(#p3b1d76e7c8)" style="fill: #e6482f"/>
    <path d="M 205.338789 595.684622 
L 206.15595 596.337178 
L 205.431407 597.245783 
L 204.614247 596.591763 
L 205.338789 595.684622 
" clip-path="url(#p3b1d76e7c8)" style="fill: #e6482f"/>
    <path d="M 198.803434 595.339323 
L 199.465266 595.921649 
L 198.704062 596.784896 
L 198.043194 596.20257 
L 198.803434 595.339323 
" clip-path="url(#p3b1d76e7c8)" style="fill: #e6482f"/>
    <path d="M 207.841404 592.650087 
L 208.839942 593.39921 
L 208.049795 594.451202 
L 207.051257 593.700615 
L 207.841404 592.650087 
" clip-path="url(#p3b1d76e7c8)" style="fill: #e6482f"/>
    <path d="M 201.238514 591.960952 
L 202.042168 592.65594 
L 201.414103 593.38019 
L 200.611414 592.685202 
L 201.238514 591.960952 
" clip-path="url(#p3b1d76e7c8)" style="fill: #e6482f"/>
    <path d="M 203.650441 588.968848 
L 204.507157 589.675541 
L 203.675525 590.682175 
L 202.819773 589.97402 
L 203.650441 588.968848 
" clip-path="url(#p3b1d76e7c8)" style="fill: #e6482f"/>
    <path d="M 212.368108 589.065415 
L 211.659966 589.919884 
L 210.492594 588.952754 
L 211.200735 588.096822 
L 212.368108 589.065415 
" clip-path="url(#p3b1d76e7c8)" style="fill: #e6482f"/>
    <path d="M 205.937912 586.054291 
L 206.754108 586.847308 
L 205.936947 587.687145 
L 205.121716 586.894128 
L 205.937912 586.054291 
" clip-path="url(#p3b1d76e7c8)" style="fill: #e6482f"/>
    <path d="M 215.722615 585.43246 
L 215.150506 586.042586 
L 214.350711 585.291999 
L 214.921855 584.681873 
L 215.722615 585.43246 
" clip-path="url(#p3b1d76e7c8)" style="fill: #e6482f"/>
    <path d="M 207.420764 583.828868 
L 208.478153 584.971573 
L 207.419799 585.951871 
L 206.362411 584.809166 
L 207.420764 583.828868 
" clip-path="url(#p3b1d76e7c8)" style="fill: #e6482f"/>
    <path d="M 210.829299 580.175429 
L 211.692768 580.866027 
L 211.004887 581.727811 
L 210.141417 581.038676 
L 210.829299 580.175429 
" clip-path="url(#p3b1d76e7c8)" style="fill: #e6482f"/>
    <path d="M 185.323659 574.4897 
L 186.4563 575.420252 
L 184.996602 577.196493 
L 183.863961 576.264478 
L 185.323659 574.4897 
" clip-path="url(#p3b1d76e7c8)" style="fill: #e6482f"/>
    <path d="M 217.377196 574.041982 
L 218.295658 575.177372 
L 217.081977 576.160596 
L 216.16255 575.026669 
L 217.377196 574.041982 
" clip-path="url(#p3b1d76e7c8)" style="fill: #e6482f"/>
    <path d="M 215.677271 571.8546 
L 216.560036 572.925613 
L 215.268208 573.990772 
L 214.385443 572.918297 
L 215.677271 571.8546 
" clip-path="url(#p3b1d76e7c8)" style="fill: #e6482f"/>
    <path d="M 214.014006 569.97594 
L 214.699958 570.9855 
L 213.480488 571.815096 
L 212.794536 570.805535 
L 214.014006 569.97594 
" clip-path="url(#p3b1d76e7c8)" style="fill: #e6482f"/>
    <path d="M 190.721551 570.445605 
L 189.805983 571.358599 
L 188.983999 570.502667 
L 189.905355 569.623325 
L 190.721551 570.445605 
" clip-path="url(#p3b1d76e7c8)" style="fill: #e6482f"/>
    <path d="M 175.955737 585.076919 
L 177.03821 585.963577 
L 175.730946 587.55839 
L 174.648473 586.671732 
L 175.955737 585.076919 
" clip-path="url(#p3b1d76e7c8)" style="fill: #e6482f"/>
    <path d="M 162.128645 582.933431 
L 163.186999 583.746932 
L 162.392993 584.781366 
L 161.333674 583.967865 
L 162.128645 582.933431 
" clip-path="url(#p3b1d76e7c8)" style="fill: #e6482f"/>
    <path d="M 179.541789 581.016729 
L 180.77959 582.054089 
L 179.153952 583.995665 
L 177.916151 582.958305 
L 179.541789 581.016729 
" clip-path="url(#p3b1d76e7c8)" style="fill: #e6482f"/>
    <path d="M 169.883471 580.832375 
L 170.958226 581.78341 
L 170.170973 582.674457 
L 169.096218 581.721959 
L 169.883471 580.832375 
" clip-path="url(#p3b1d76e7c8)" style="fill: #e6482f"/>
    <path d="M 159.029802 580.223712 
L 159.871082 580.836764 
L 159.118561 581.869735 
L 158.277281 581.256683 
L 159.029802 580.223712 
" clip-path="url(#p3b1d76e7c8)" style="fill: #e6482f"/>
    <path d="M 166.556942 578.004142 
L 167.664499 578.944935 
L 166.781734 579.985222 
L 165.674177 579.042965 
L 166.556942 578.004142 
" clip-path="url(#p3b1d76e7c8)" style="fill: #e6482f"/>
    <path d="M 163.453275 575.19054 
L 164.501016 576.030377 
L 163.777438 576.933129 
L 162.729697 576.093292 
L 163.453275 575.19054 
" clip-path="url(#p3b1d76e7c8)" style="fill: #e6482f"/>
    <path d="M 160.220329 572.189657 
L 161.12239 572.96658 
L 160.285934 573.938099 
L 159.383873 573.159714 
L 160.220329 572.189657 
" clip-path="url(#p3b1d76e7c8)" style="fill: #e6482f"/>
    <path d="M 177.35369 570.325628 
L 180.354126 573.004622 
L 179.384532 574.090265 
L 176.384095 571.412735 
L 177.35369 570.325628 
" clip-path="url(#p3b1d76e7c8)" style="fill: #e6482f"/>
    <path d="M 156.95844 569.31753 
L 157.9454 570.220283 
L 157.124381 571.120108 
L 156.13742 570.217356 
L 156.95844 569.31753 
" clip-path="url(#p3b1d76e7c8)" style="fill: #e6482f"/>
    <path d="M 155.620303 577.142357 
L 156.472196 577.813935 
L 155.683978 578.81618 
L 154.832086 578.144602 
L 155.620303 577.142357 
" clip-path="url(#p3b1d76e7c8)" style="fill: #e6482f"/>
    <path d="M 152.471292 574.431175 
L 153.383 575.171519 
L 152.421124 576.356656 
L 151.508451 575.614848 
L 152.471292 574.431175 
" clip-path="url(#p3b1d76e7c8)" style="fill: #e6482f"/>
    <path d="M 149.321316 571.651225 
L 150.092168 572.322802 
L 149.20072 573.346994 
L 148.429868 572.675417 
L 149.321316 571.651225 
" clip-path="url(#p3b1d76e7c8)" style="fill: #e6482f"/>
    <path d="M 146.123102 568.850792 
L 146.897813 569.494569 
L 146.048814 570.512909 
L 145.275068 569.869131 
L 146.123102 568.850792 
" clip-path="url(#p3b1d76e7c8)" style="fill: #e6482f"/>
    <path d="M 143.087934 566.028411 
L 143.910883 566.860933 
L 142.78789 567.97145 
L 141.963976 567.138928 
L 143.087934 566.028411 
" clip-path="url(#p3b1d76e7c8)" style="fill: #e6482f"/>
    <path d="M 150.82057 563.722516 
L 151.590457 564.408725 
L 150.730846 565.374391 
L 149.960959 564.688183 
L 150.82057 563.722516 
" clip-path="url(#p3b1d76e7c8)" style="fill: #e6482f"/>
    <path d="M 139.895508 563.309913 
L 140.638381 563.941986 
L 139.962077 564.737929 
L 139.218239 564.10732 
L 139.895508 563.309913 
" clip-path="url(#p3b1d76e7c8)" style="fill: #e6482f"/>
    <path d="M 147.304946 560.926472 
L 148.032383 561.56586 
L 147.269249 562.43496 
L 146.541812 561.795572 
L 147.304946 560.926472 
" clip-path="url(#p3b1d76e7c8)" style="fill: #e6482f"/>
    <path d="M 137.156524 560.366093 
L 137.783625 560.955734 
L 136.8806 561.917012 
L 136.253499 561.325907 
L 137.156524 560.366093 
" clip-path="url(#p3b1d76e7c8)" style="fill: #e6482f"/>
    <path d="M 144.240834 558.137743 
L 145.051242 558.756648 
L 144.523512 559.448709 
L 143.713105 558.829805 
L 144.240834 558.137743 
" clip-path="url(#p3b1d76e7c8)" style="fill: #e6482f"/>
    <path d="M 200.021939 568.357716 
L 200.889268 569.160975 
L 197.882078 572.409127 
L 197.014749 571.605868 
L 200.021939 568.357716 
" clip-path="url(#p3b1d76e7c8)" style="fill: #e6482f"/>
    <path d="M 190.779437 568.755688 
L 191.595633 569.576505 
L 190.721551 570.445605 
L 189.905355 569.623325 
L 190.779437 568.755688 
" clip-path="url(#p3b1d76e7c8)" style="fill: #e6482f"/>
    <path d="M 212.65368 567.889514 
L 213.597225 569.020515 
L 212.379685 570.037391 
L 211.435175 568.907854 
L 212.65368 567.889514 
" clip-path="url(#p3b1d76e7c8)" style="fill: #e6482f"/>
    <path d="M 195.239571 565.412433 
L 194.371278 566.272754 
L 193.664101 565.544115 
L 194.561337 564.702814 
L 195.239571 565.412433 
" clip-path="url(#p3b1d76e7c8)" style="fill: #e6482f"/>
    <path d="M 209.221026 563.618634 
L 210.030469 564.838885 
L 208.605502 565.784068 
L 207.79606 564.563817 
L 209.221026 563.618634 
" clip-path="url(#p3b1d76e7c8)" style="fill: #e6482f"/>
    <path d="M 195.41323 563.88785 
L 196.091464 564.597469 
L 195.239571 565.412433 
L 194.561337 564.702814 
L 195.41323 563.88785 
" clip-path="url(#p3b1d76e7c8)" style="fill: #e6482f"/>
    <path d="M 192.060652 556.221041 
L 193.01481 557.403251 
L 192.276761 557.998746 
L 191.323567 556.815073 
L 192.060652 556.221041 
" clip-path="url(#p3b1d76e7c8)" style="fill: #e6482f"/>
    <path d="M 189.298514 552.691968 
L 190.115675 553.581552 
L 189.360259 554.275076 
L 188.544063 553.384029 
L 189.298514 552.691968 
" clip-path="url(#p3b1d76e7c8)" style="fill: #e6482f"/>
    <path d="M 201.08801 552.397879 
L 201.791328 553.283073 
L 200.375045 554.406758 
L 199.672692 553.520101 
L 201.08801 552.397879 
" clip-path="url(#p3b1d76e7c8)" style="fill: #e6482f"/>
    <path d="M 186.62417 549.455522 
L 187.266707 550.232444 
L 186.4563 550.902559 
L 185.813763 550.125636 
L 186.62417 549.455522 
" clip-path="url(#p3b1d76e7c8)" style="fill: #e6482f"/>
    <path d="M 176.249027 565.775289 
L 175.246631 566.972131 
L 173.438651 565.456327 
L 174.442012 564.259485 
L 176.249027 565.775289 
" clip-path="url(#p3b1d76e7c8)" style="fill: #e6482f"/>
    <path d="M 184.697523 564.31801 
L 183.908341 565.112491 
L 183.179939 564.388241 
L 183.968157 563.59376 
L 184.697523 564.31801 
" clip-path="url(#p3b1d76e7c8)" style="fill: #e6482f"/>
    <path d="M 183.179939 564.388241 
L 182.29235 563.504509 
L 183.094075 562.711492 
L 183.968157 563.59376 
L 183.179939 564.388241 
" clip-path="url(#p3b1d76e7c8)" style="fill: #e6482f"/>
    <path d="M 171.157933 562.926572 
L 169.939428 564.209739 
L 166.056226 560.527037 
L 167.273767 559.242408 
L 171.157933 562.926572 
" clip-path="url(#p3b1d76e7c8)" style="fill: #e6482f"/>
    <path d="M 178.542287 559.555518 
L 180.181432 561.236656 
L 179.029496 562.361804 
L 177.389386 560.680666 
L 178.542287 559.555518 
" clip-path="url(#p3b1d76e7c8)" style="fill: #e6482f"/>
    <path d="M 174.839498 555.730892 
L 176.508551 557.48665 
L 175.43862 558.503526 
L 173.769567 556.747769 
L 174.839498 555.730892 
" clip-path="url(#p3b1d76e7c8)" style="fill: #e6482f"/>
    <path d="M 171.454118 552.279365 
L 173.094228 553.988303 
L 171.941327 555.092967 
L 170.302182 553.385493 
L 171.454118 552.279365 
" clip-path="url(#p3b1d76e7c8)" style="fill: #e6482f"/>
    <path d="M 162.786619 554.055607 
L 161.675203 555.310973 
L 157.972414 552.036485 
L 159.08383 550.779656 
L 162.786619 554.055607 
" clip-path="url(#p3b1d76e7c8)" style="fill: #e6482f"/>
    <path d="M 169.432923 549.966154 
L 168.162321 551.385392 
L 163.767791 547.451032 
L 165.037429 546.031794 
L 169.432923 549.966154 
" clip-path="url(#p3b1d76e7c8)" style="fill: #e6482f"/>
    <path d="M 184.238292 546.283453 
L 184.828732 547.079396 
L 183.959474 547.724637 
L 183.369034 546.928694 
L 184.238292 546.283453 
" clip-path="url(#p3b1d76e7c8)" style="fill: #e6482f"/>
    <path d="M 141.634989 555.11784 
L 140.891151 556.01035 
L 139.936028 555.210017 
L 140.703986 554.320434 
L 141.634989 555.11784 
" clip-path="url(#p3b1d76e7c8)" style="fill: #e6482f"/>
    <path d="M 139.936028 555.210017 
L 139.122727 554.509177 
L 139.891649 553.61813 
L 140.703986 554.320434 
L 139.936028 555.210017 
" clip-path="url(#p3b1d76e7c8)" style="fill: #e6482f"/>
    <path d="M 157.739904 549.246294 
L 156.562884 550.530923 
L 152.830187 547.110122 
L 154.007207 545.825493 
L 157.739904 549.246294 
" clip-path="url(#p3b1d76e7c8)" style="fill: #e6482f"/>
    <path d="M 143.562601 540.406054 
L 144.730938 541.541444 
L 141.899336 544.454538 
L 140.730999 543.319148 
L 143.562601 540.406054 
" clip-path="url(#p3b1d76e7c8)" style="fill: #e6482f"/>
    <path d="M 157.00089 538.555193 
L 155.923241 539.820801 
L 151.801741 536.310749 
L 152.87939 535.04514 
L 157.00089 538.555193 
" clip-path="url(#p3b1d76e7c8)" style="fill: #e6482f"/>
    <path d="M 136.31428 534.601811 
L 137.015668 535.48408 
L 136.024848 536.271244 
L 135.324425 535.388976 
L 136.31428 534.601811 
" clip-path="url(#p3b1d76e7c8)" style="fill: #e6482f"/>
    <path d="M 139.328223 532.14814 
L 140.125123 533.06845 
L 139.079312 533.974128 
L 138.282411 533.053818 
L 139.328223 532.14814 
" clip-path="url(#p3b1d76e7c8)" style="fill: #e6482f"/>
    <path d="M 145.860684 526.386329 
L 146.690387 527.31688 
L 145.699568 528.200612 
L 144.869865 527.27006 
L 145.860684 526.386329 
" clip-path="url(#p3b1d76e7c8)" style="fill: #e6482f"/>
    <path d="M 148.271646 524.317461 
L 149.024167 525.234844 
L 148.018876 526.057124 
L 147.26732 525.139741 
L 148.271646 524.317461 
" clip-path="url(#p3b1d76e7c8)" style="fill: #e6482f"/>
    <path d="M 150.559117 522.602671 
L 151.286554 523.508349 
L 150.188645 524.389154 
L 149.461208 523.484939 
L 150.559117 522.602671 
" clip-path="url(#p3b1d76e7c8)" style="fill: #e6482f"/>
    <path d="M 181.494485 543.038227 
L 182.077206 543.780035 
L 181.360382 544.34334 
L 180.776696 543.601533 
L 181.494485 543.038227 
" clip-path="url(#p3b1d76e7c8)" style="fill: #e6482f"/>
    <path d="M 163.162879 544.085829 
L 162.103561 545.320712 
L 157.953118 541.756524 
L 159.013401 540.523104 
L 163.162879 544.085829 
" clip-path="url(#p3b1d76e7c8)" style="fill: #e6482f"/>
    <path d="M 178.469929 539.102404 
L 179.033355 539.85738 
L 178.160238 540.509936 
L 177.596812 539.75496 
L 178.469929 539.102404 
" clip-path="url(#p3b1d76e7c8)" style="fill: #e6482f"/>
    <path d="M 175.370121 535.162191 
L 175.968279 535.89522 
L 175.005438 536.679458 
L 174.40728 535.946429 
L 175.370121 535.162191 
" clip-path="url(#p3b1d76e7c8)" style="fill: #e6482f"/>
    <path d="M 172.022368 531.303913 
L 172.699636 532.281285 
L 171.764774 532.927989 
L 171.08847 531.950617 
L 172.022368 531.303913 
" clip-path="url(#p3b1d76e7c8)" style="fill: #e6482f"/>
    <path d="M 181.806106 528.873652 
L 182.433207 529.687153 
L 180.915623 530.856195 
L 180.288522 530.042694 
L 181.806106 528.873652 
" clip-path="url(#p3b1d76e7c8)" style="fill: #e6482f"/>
    <path d="M 168.850202 527.373942 
L 169.78217 528.630772 
L 168.990094 529.217488 
L 168.058125 527.960658 
L 168.850202 527.373942 
" clip-path="url(#p3b1d76e7c8)" style="fill: #e6482f"/>
    <path d="M 179.13755 526.093702 
L 179.867882 526.921835 
L 178.661919 527.986994 
L 177.930622 527.160325 
L 179.13755 526.093702 
" clip-path="url(#p3b1d76e7c8)" style="fill: #e6482f"/>
    <path d="M 165.822752 523.536149 
L 166.783663 524.817852 
L 165.947207 525.444072 
L 164.986296 524.163832 
L 165.822752 523.536149 
" clip-path="url(#p3b1d76e7c8)" style="fill: #e6482f"/>
    <path d="M 162.709437 519.914898 
L 163.230413 520.628907 
L 162.408429 521.22879 
L 161.887453 520.514782 
L 162.709437 519.914898 
" clip-path="url(#p3b1d76e7c8)" style="fill: #e6482f"/>
    <path d="M 172.269349 518.434209 
L 172.845317 519.076524 
L 171.765739 520.045117 
L 171.189771 519.402802 
L 172.269349 518.434209 
" clip-path="url(#p3b1d76e7c8)" style="fill: #e6482f"/>
    <path d="M 159.552708 515.709859 
L 160.126747 516.434109 
L 159.299938 517.088129 
L 158.726864 516.362415 
L 159.552708 515.709859 
" clip-path="url(#p3b1d76e7c8)" style="fill: #e6482f"/>
    <path d="M 168.831871 514.005311 
L 169.649997 514.970977 
L 168.799069 515.690838 
L 167.981908 514.725171 
L 168.831871 514.005311 
" clip-path="url(#p3b1d76e7c8)" style="fill: #e6482f"/>
    <path d="M 153.137949 520.982984 
L 153.807499 521.837453 
L 152.615043 522.772394 
L 151.945492 521.916462 
L 153.137949 520.982984 
" clip-path="url(#p3b1d76e7c8)" style="fill: #e6482f"/>
    <path d="M 142.017038 519.250637 
L 142.986633 520.099253 
L 141.964941 521.266832 
L 140.995346 520.418216 
L 142.017038 519.250637 
" clip-path="url(#p3b1d76e7c8)" style="fill: #e6482f"/>
    <path d="M 155.194839 519.058967 
L 155.88658 520.001223 
L 154.813755 520.789851 
L 154.12105 519.849057 
L 155.194839 519.058967 
" clip-path="url(#p3b1d76e7c8)" style="fill: #e6482f"/>
    <path d="M 140.065307 517.592909 
L 141.088929 518.432746 
L 140.303606 519.391097 
L 139.279984 518.55126 
L 140.065307 517.592909 
" clip-path="url(#p3b1d76e7c8)" style="fill: #e6482f"/>
    <path d="M 138.033501 515.999559 
L 138.883464 516.716493 
L 138.009381 517.753853 
L 137.159419 517.038382 
L 138.033501 515.999559 
" clip-path="url(#p3b1d76e7c8)" style="fill: #e6482f"/>
    <path d="M 152.487693 507.549975 
L 153.232496 508.487842 
L 152.318858 509.215018 
L 151.574055 508.277151 
L 152.487693 507.549975 
" clip-path="url(#p3b1d76e7c8)" style="fill: #e6482f"/>
    <path d="M 150.431767 505.036315 
L 151.097459 505.914194 
L 150.23013 506.572603 
L 149.564438 505.694724 
L 150.431767 505.036315 
" clip-path="url(#p3b1d76e7c8)" style="fill: #e6482f"/>
    <path d="M 148.395136 502.591422 
L 149.203614 503.532216 
L 148.273575 504.331086 
L 147.465098 503.388829 
L 148.395136 502.591422 
" clip-path="url(#p3b1d76e7c8)" style="fill: #e6482f"/>
    <path d="M 146.31895 500.036795 
L 147.049282 500.984904 
L 146.050744 501.754511 
L 145.320413 500.806402 
L 146.31895 500.036795 
" clip-path="url(#p3b1d76e7c8)" style="fill: #e6482f"/>
    <path d="M 144.317051 497.414864 
L 145.225865 498.516602 
L 143.96491 499.555425 
L 143.056096 498.453687 
L 144.317051 497.414864 
" clip-path="url(#p3b1d76e7c8)" style="fill: #e6482f"/>
    <path d="M 125.847484 505.756176 
L 126.791994 506.574066 
L 125.871603 507.634836 
L 124.927093 506.816946 
L 125.847484 505.756176 
" clip-path="url(#p3b1d76e7c8)" style="fill: #e6482f"/>
    <path d="M 123.749108 504.154047 
L 124.760187 504.980716 
L 123.859092 506.082454 
L 122.848012 505.255785 
L 123.749108 504.154047 
" clip-path="url(#p3b1d76e7c8)" style="fill: #e6482f"/>
    <path d="M 121.792553 502.53436 
L 122.784337 503.274705 
L 121.95367 504.386685 
L 120.961886 503.64634 
L 121.792553 502.53436 
" clip-path="url(#p3b1d76e7c8)" style="fill: #e6482f"/>
    <path d="M 119.733733 500.80055 
L 120.693679 501.521873 
L 119.885202 502.597275 
L 118.925255 501.875951 
L 119.733733 500.80055 
" clip-path="url(#p3b1d76e7c8)" style="fill: #e6482f"/>
    <path d="M 117.880408 499.093075 
L 119.03138 499.947544 
L 118.176593 501.100492 
L 117.024657 500.246023 
L 117.880408 499.093075 
" clip-path="url(#p3b1d76e7c8)" style="fill: #e6482f"/>
    <path d="M 115.797469 497.720658 
L 116.532624 498.367362 
L 115.837024 499.157453 
L 115.101869 498.509286 
L 115.797469 497.720658 
" clip-path="url(#p3b1d76e7c8)" style="fill: #e6482f"/>
    <path d="M 113.98563 495.966363 
L 114.828839 496.580879 
L 113.988524 497.735289 
L 112.82694 496.888136 
L 113.98563 495.966363 
" clip-path="url(#p3b1d76e7c8)" style="fill: #e6482f"/>
    <path d="M 135.499048 487.29731 
L 136.378919 488.317112 
L 135.467211 489.102814 
L 134.588305 488.083011 
L 135.499048 487.29731 
" clip-path="url(#p3b1d76e7c8)" style="fill: #e6482f"/>
    <path d="M 133.533811 484.511508 
L 134.247741 485.701033 
L 133.503903 486.444304 
L 132.552639 485.491806 
L 133.533811 484.511508 
" clip-path="url(#p3b1d76e7c8)" style="fill: #e6482f"/>
    <path d="M 131.514546 482.499702 
L 132.366438 483.472684 
L 131.422893 484.299354 
L 130.571 483.326371 
L 131.514546 482.499702 
" clip-path="url(#p3b1d76e7c8)" style="fill: #e6482f"/>
    <path d="M 142.175261 494.905593 
L 142.932606 495.907838 
L 141.642707 496.880821 
L 140.886327 495.878576 
L 142.175261 494.905593 
" clip-path="url(#p3b1d76e7c8)" style="fill: #e6482f"/>
    <path d="M 140.012245 492.475332 
L 140.781167 493.341506 
L 139.803855 494.20768 
L 139.034932 493.341506 
L 140.012245 492.475332 
" clip-path="url(#p3b1d76e7c8)" style="fill: #e6482f"/>
    <path d="M 137.933165 489.827064 
L 138.877675 490.813215 
L 137.753717 491.890079 
L 136.809207 490.902466 
L 137.933165 489.827064 
" clip-path="url(#p3b1d76e7c8)" style="fill: #e6482f"/>
    <path d="M 96.101678 488.643391 
L 96.914015 487.784533 
L 94.214587 485.231368 
L 96.061157 483.279551 
L 98.942927 486.005365 
L 99.490917 485.427428 
L 100.912024 486.772046 
L 97.706091 490.160658 
L 96.101678 488.643391 
" clip-path="url(#p3b1d76e7c8)" style="fill: #e6482f"/>
    <path d="M 91.752492 482.646015 
L 92.891886 481.610118 
L 94.133546 482.852317 
L 93.201577 483.990633 
L 91.752492 482.646015 
" clip-path="url(#p3b1d76e7c8)" style="fill: #e6482f"/>
    <path d="M 99.878754 480.730776 
L 101.017184 479.488578 
L 102.310941 480.781986 
L 101.223645 481.869092 
L 99.878754 480.730776 
" clip-path="url(#p3b1d76e7c8)" style="fill: #e6482f"/>
    <path d="M 129.283032 480.350362 
L 130.039412 481.153621 
L 129.31294 481.838367 
L 128.556559 481.035107 
L 129.283032 480.350362 
" clip-path="url(#p3b1d76e7c8)" style="fill: #e6482f"/>
    <path d="M 127.620732 477.801587 
L 128.474554 478.803832 
L 127.471193 479.659764 
L 126.616406 478.657519 
L 127.620732 477.801587 
" clip-path="url(#p3b1d76e7c8)" style="fill: #e6482f"/>
    <path d="M 125.415266 475.691752 
L 126.383896 476.723259 
L 125.50499 477.548465 
L 124.53636 476.515494 
L 125.415266 475.691752 
" clip-path="url(#p3b1d76e7c8)" style="fill: #e6482f"/>
    <path d="M 283.516078 578.342125 
L 292.706482 582.709572 
L 288.721979 591.097705 
L 287.728266 590.625113 
L 286.213576 593.811813 
L 278.01785 589.918421 
L 283.516078 578.342125 
" clip-path="url(#p3b1d76e7c8)" style="fill: #e6482f"/>
    <path d="M 293.511101 582.608616 
L 295.28049 583.35335 
L 294.445963 585.335893 
L 292.676574 584.591159 
L 293.511101 582.608616 
" clip-path="url(#p3b1d76e7c8)" style="fill: #e6482f"/>
    <path d="M 278.920875 583.291899 
L 278.422089 583.018293 
L 279.65603 580.767997 
L 281.118623 581.569793 
L 278.993233 585.450017 
L 278.028463 584.920364 
L 278.920875 583.291899 
" clip-path="url(#p3b1d76e7c8)" style="fill: #e6482f"/>
    <path d="M 195.195192 546.083004 
L 196.096287 547.039892 
L 195.017674 548.055305 
L 194.116578 547.098417 
L 195.195192 546.083004 
" clip-path="url(#p3b1d76e7c8)" style="fill: #e6482f"/>
    <path d="M 191.418115 541.420004 
L 192.158094 542.286178 
L 191.181746 543.121626 
L 190.440802 542.255452 
L 191.418115 541.420004 
" clip-path="url(#p3b1d76e7c8)" style="fill: #e6482f"/>
    <path d="M 189.222297 538.224525 
L 189.890883 538.951701 
L 188.744736 540.006619 
L 188.07615 539.280906 
L 189.222297 538.224525 
" clip-path="url(#p3b1d76e7c8)" style="fill: #e6482f"/>
    <path d="M 226.556988 245.946468 
L 228.392947 244.034155 
L 229.377013 244.964707 
L 227.385726 246.773137 
L 226.556988 245.946468 
" clip-path="url(#p3b1d76e7c8)" style="fill: #e6482f"/>
    <path d="M 217.463061 245.734314 
L 219.77851 243.482555 
L 220.796343 244.528694 
L 218.480894 246.780453 
L 217.463061 245.734314 
" clip-path="url(#p3b1d76e7c8)" style="fill: #e6482f"/>
    <path d="M 230.77593 241.782396 
L 232.328246 240.488988 
L 235.692401 244.628187 
L 234.140085 245.921595 
L 230.77593 241.782396 
" clip-path="url(#p3b1d76e7c8)" style="fill: #e6482f"/>
    <path d="M 255.451867 239.081455 
L 259.177811 236.806286 
L 260.317205 238.668852 
L 256.693526 240.944022 
L 255.451867 239.081455 
" clip-path="url(#p3b1d76e7c8)" style="fill: #e6482f"/>
    <path d="M 231.588267 234.26629 
L 232.972713 235.571403 
L 230.861795 237.808531 
L 229.477349 236.504881 
L 231.588267 234.26629 
" clip-path="url(#p3b1d76e7c8)" style="fill: #e6482f"/>
    <path d="M 218.149013 233.572766 
L 219.249816 232.687571 
L 220.83011 234.64963 
L 219.729307 235.534825 
L 218.149013 233.572766 
" clip-path="url(#p3b1d76e7c8)" style="fill: #e6482f"/>
    <path d="M 261.351439 234.21947 
L 269.322373 228.838072 
L 271.806657 232.977271 
L 263.939918 238.150904 
L 261.351439 234.21947 
" clip-path="url(#p3b1d76e7c8)" style="fill: #e6482f"/>
    <path d="M 258.660694 231.373679 
L 266.889222 225.889863 
L 268.338307 228.321587 
L 260.368337 233.856613 
L 258.660694 231.373679 
" clip-path="url(#p3b1d76e7c8)" style="fill: #e6482f"/>
    <path d="M 253.899551 222.630006 
L 261.86952 217.456373 
L 263.318606 219.836888 
L 255.451867 224.906638 
L 253.899551 222.630006 
" clip-path="url(#p3b1d76e7c8)" style="fill: #e6482f"/>
    <path d="M 252.864352 218.335715 
L 259.643795 213.783913 
L 261.558864 216.732123 
L 254.830554 221.130296 
L 252.864352 218.335715 
" clip-path="url(#p3b1d76e7c8)" style="fill: #e6482f"/>
   </g>
   <g id="LineCollection_1">
    <path d="M 290.474903 715.124674 
L 290.452778 714.812781 
L 290.390068 713.927587 
L 290.084235 711.013029 
L 288.915898 696.912831 
L 287.734054 684.736652 
L 286.467311 673.878754 
L 284.820447 664.3128 
L 282.699882 655.588148 
L 280.803143 649.835115 
L 278.264831 644.218154 
L 274.743419 637.180492 
L 263.905186 619.747281 
L 260.853617 613.643097 
L 258.997398 609.060569 
L 258.089549 605.269596 
L 256.368399 597.352591 
L 253.959367 591.729777 
L 249.829184 589.262938 
L 248.310635 589.252696 
L 240.201738 589.194171 
L 237.67211 589.756013 
L 237.016066 589.900863 
L 234.85305 590.38077 
L 226.653465 592.533037 
L 225.255513 592.456954 
L 223.939566 591.939005 
" clip-path="url(#p3b1d76e7c8)" style="fill: none; stroke: #e6482f; stroke-width: 0.2"/>
    <path d="M 332.676303 766.799446 
L 326.853571 759.670927 
L 302.815348 730.046905 
L 290.452778 714.812781 
" clip-path="url(#p3b1d76e7c8)" style="fill: none; stroke: #e6482f; stroke-width: 0.2"/>
    <path d="M 342.812806 677.833598 
L 342.237803 692.442965 
L 341.044381 697.218626 
L 330.302626 705.915479 
L 302.815348 730.046905 
" clip-path="url(#p3b1d76e7c8)" style="fill: none; stroke: #e6482f; stroke-width: 0.2"/>
    <path d="M 286.467311 673.878754 
L 302.030989 676.901583 
L 323.456614 680.732061 
L 339.708174 682.906274 
L 341.571146 681.353892 
L 342.812806 677.833598 
" clip-path="url(#p3b1d76e7c8)" style="fill: none; stroke: #e6482f; stroke-width: 0.2"/>
    <path d="M 342.812806 677.833598 
L 344.05543 669.860995 
L 346.200115 659.262071 
L 347.406078 648.66461 
L 347.134013 635.319388 
" clip-path="url(#p3b1d76e7c8)" style="fill: none; stroke: #e6482f; stroke-width: 0.2"/>
    <path d="M 278.264831 644.218154 
L 296.751765 648.636811 
L 321.904298 654.227436 
L 334.53218 657.02348 
L 346.200115 659.262071 
" clip-path="url(#p3b1d76e7c8)" style="fill: none; stroke: #e6482f; stroke-width: 0.2"/>
    <path d="M 347.134013 635.319388 
L 347.047184 632.58187 
L 347.21216 627.342396 
L 347.574913 624.515626 
" clip-path="url(#p3b1d76e7c8)" style="fill: none; stroke: #e6482f; stroke-width: 0.2"/>
    <path d="M 347.134013 635.319388 
L 306.378246 625.343758 
L 284.123883 620.995332 
L 276.606391 619.577558 
L 263.905186 619.747281 
" clip-path="url(#p3b1d76e7c8)" style="fill: none; stroke: #e6482f; stroke-width: 0.2"/>
    <path d="M 223.939566 591.939005 
L 226.525151 596.777581 
L 231.875768 603.139276 
L 237.452819 608.717153 
" clip-path="url(#p3b1d76e7c8)" style="fill: none; stroke: #e6482f; stroke-width: 0.2"/>
    <path d="M 347.833472 615.164753 
L 348.299456 619.028883 
L 347.574913 624.515626 
" clip-path="url(#p3b1d76e7c8)" style="fill: none; stroke: #e6482f; stroke-width: 0.2"/>
    <path d="M 123.068706 790.075652 
L 115.975951 786.272119 
L 104.845393 780.704904 
L 105.329708 774.411976 
L 107.224518 766.240387 
" clip-path="url(#p3b1d76e7c8)" style="fill: none; stroke: #e6482f; stroke-width: 0.2"/>
    <path d="M 93.978218 616.128957 
L 107.951955 621.56449 
L 118.25088 625.135994 
L 123.530105 626.844931 
L 145.629139 634.246913 
L 147.854865 634.660979 
L 150.131723 633.884057 
L 156.251263 626.546452 
L 160.948731 616.543023 
" clip-path="url(#p3b1d76e7c8)" style="fill: none; stroke: #e6482f; stroke-width: 0.2"/>
    <path d="M 105.757102 593.261676 
L 125.537792 601.597136 
L 143.034871 609.225903 
L 155.100292 614.096667 
" clip-path="url(#p3b1d76e7c8)" style="fill: none; stroke: #e6482f; stroke-width: 0.2"/>
    <path d="M 200.762883 563.353807 
L 189.507869 575.654353 
L 176.453559 590.614871 
L 175.29294 591.949247 
L 169.44643 598.06221 
L 162.914933 612.92031 
L 160.948731 616.543023 
L 155.100292 614.096667 
" clip-path="url(#p3b1d76e7c8)" style="fill: none; stroke: #e6482f; stroke-width: 0.2"/>
    <path d="M 132.638504 552.326185 
L 134.315275 554.927633 
L 175.29294 591.949247 
" clip-path="url(#p3b1d76e7c8)" style="fill: none; stroke: #e6482f; stroke-width: 0.2"/>
    <path d="M 176.453559 590.614871 
L 134.835286 553.307947 
L 132.638504 552.326185 
" clip-path="url(#p3b1d76e7c8)" style="fill: none; stroke: #e6482f; stroke-width: 0.2"/>
    <path d="M 162.643833 556.769716 
L 165.952031 553.2582 
" clip-path="url(#p3b1d76e7c8)" style="fill: none; stroke: #e6482f; stroke-width: 0.2"/>
    <path d="M 170.673618 548.201618 
L 170.902269 550.605543 
L 167.425236 554.65988 
" clip-path="url(#p3b1d76e7c8)" style="fill: none; stroke: #e6482f; stroke-width: 0.2"/>
    <path d="M 160.446086 547.913381 
L 157.193844 551.597546 
" clip-path="url(#p3b1d76e7c8)" style="fill: none; stroke: #e6482f; stroke-width: 0.2"/>
    <path d="M 132.638504 552.326185 
L 126.686834 547.080859 
" clip-path="url(#p3b1d76e7c8)" style="fill: none; stroke: #e6482f; stroke-width: 0.2"/>
    <path d="M 74.217787 699.827389 
L 78.813954 705.633095 
L 84.973049 711.482694 
L 88.440435 714.692804 
" clip-path="url(#p3b1d76e7c8)" style="fill: none; stroke: #e6482f; stroke-width: 0.2"/>
    <path d="M 87.715892 683.010157 
L 93.047214 688.859756 
L 96.151846 692.276168 
L 98.73936 696.987451 
L 100.292641 702.371775 
L 101.275742 706.824084 
L 101.948187 709.930312 
L 102.983386 712.465918 
L 102.103515 717.384966 
L 103.190812 721.215444 
" clip-path="url(#p3b1d76e7c8)" style="fill: none; stroke: #e6482f; stroke-width: 0.2"/>
    <path d="M 82.729958 680.805218 
L 87.715892 683.010157 
L 91.390703 684.770304 
" clip-path="url(#p3b1d76e7c8)" style="fill: none; stroke: #e6482f; stroke-width: 0.2"/>
    <path d="M 91.390703 684.770304 
L 100.292641 685.651109 
L 108.107283 685.651109 
L 111.005453 684.046054 
L 112.040652 681.094918 
L 110.539469 680.317995 
L 103.812124 679.230888 
L 99.154212 678.71294 
L 91.390703 684.770304 
" clip-path="url(#p3b1d76e7c8)" style="fill: none; stroke: #e6482f; stroke-width: 0.2"/>
    <path d="M 83.887682 661.980569 
L 83.127443 659.203546 
L 82.861167 654.520062 
L 81.957177 651.592336 
L 80.413544 648.559265 
L 75.625387 647.229278 
L 64.716727 646.85618 
L 60.567248 648.399783 
" clip-path="url(#p3b1d76e7c8)" style="fill: none; stroke: #e6482f; stroke-width: 0.2"/>
    <path d="M 58.02535 661.425207 
L 62.073255 661.758173 
L 67.146019 662.176629 
L 69.603289 662.147366 
L 83.887682 661.980569 
L 86.38065 661.951306 
L 88.917996 661.29436 
" clip-path="url(#p3b1d76e7c8)" style="fill: none; stroke: #e6482f; stroke-width: 0.2"/>
    <path d="M 55.614536 582.844541 
L 56.508459 581.81121 
L 57.854314 581.656118 
L 62.356898 582.847107 
L 64.426331 582.277949 
L 65.565725 582.329158 
" clip-path="url(#p3b1d76e7c8)" style="fill: none; stroke: #e6482f; stroke-width: 0.2"/>
    <path d="M 155.100292 614.096667 
L 156.394049 606.605434 
L 155.462081 601.842942 
L 150.287052 597.598398 
L 119.027521 567.991933 
L 80.158844 529.811519 
L 78.244739 527.931395 
L 76.899849 526.689197 
" clip-path="url(#p3b1d76e7c8)" style="fill: none; stroke: #e6482f; stroke-width: 0.2"/>
    <path d="M 94.613037 614.895537 
L 91.493934 608.779648 
L 89.734192 606.036276 
L 85.594362 600.496861 
L 80.159809 594.855026 
L 73.225038 589.109309 
L 69.964114 586.41861 
L 67.221271 584.399489 
L 65.565725 582.329158 
L 64.426331 579.638459 
L 62.460128 574.358018 
L 60.389731 568.820066 
L 58.888548 564.212665 
L 56.663787 556.553172 
L 54.800815 551.584378 
L 52.67832 547.961664 
L 52.335826 546.636067 
L 51.901679 544.959319 
L 51.229234 542.630014 
L 49.003508 540.4558 
L 47.451193 538.075285 
L 47.192634 536.056164 
L 48.84818 533.830741 
L 54.282733 528.965829 
L 57.802216 525.60209 
L 63.132573 520.737178 
L 66.496728 519.184796 
L 68.619224 519.960255 
L 70.843984 521.461428 
L 71.580104 522.010103 
L 73.276171 523.272785 
L 76.899849 526.689197 
" clip-path="url(#p3b1d76e7c8)" style="fill: none; stroke: #e6482f; stroke-width: 0.2"/>
    <path d="M 51.229234 542.630014 
L 53.506093 542.681223 
L 54.645487 543.303054 
L 56.353131 546.564374 
L 59.251301 548.789797 
L 63.08144 551.790679 
L 67.635158 553.705918 
L 68.411798 555.828922 
L 71.05141 559.088779 
L 72.29307 561.262992 
L 78.141509 565.507536 
L 81.91955 567.370103 
L 85.335803 568.35479 
L 91.442801 569.648198 
L 93.616429 571.045489 
L 97.497701 573.167029 
L 99.205345 575.341243 
L 102.466269 577.152599 
L 106.658197 579.016629 
L 112.040652 581.774631 
" clip-path="url(#p3b1d76e7c8)" style="fill: none; stroke: #e6482f; stroke-width: 0.2"/>
    <path d="M 69.964114 586.41861 
L 58.020254 586.155247 
L 57.453958 586.188272 
" clip-path="url(#p3b1d76e7c8)" style="fill: none; stroke: #e6482f; stroke-width: 0.2"/>
    <path d="M 163.688679 557.761719 
L 162.643833 556.769716 
L 157.193844 551.597546 
L 151.688863 546.372704 
L 146.482961 541.431709 
L 143.927284 544.17947 
" clip-path="url(#p3b1d76e7c8)" style="fill: none; stroke: #e6482f; stroke-width: 0.2"/>
    <path d="M 161.136861 548.584958 
L 165.648128 543.341095 
" clip-path="url(#p3b1d76e7c8)" style="fill: none; stroke: #e6482f; stroke-width: 0.2"/>
    <path d="M 151.688863 546.372704 
L 155.050124 542.668055 
" clip-path="url(#p3b1d76e7c8)" style="fill: none; stroke: #e6482f; stroke-width: 0.2"/>
    <path d="M 154.383467 532.445156 
L 159.794865 537.678777 
L 165.648128 543.341095 
L 170.673618 548.201618 
" clip-path="url(#p3b1d76e7c8)" style="fill: none; stroke: #e6482f; stroke-width: 0.2"/>
    <path d="M 155.050124 542.668055 
L 159.794865 537.678777 
" clip-path="url(#p3b1d76e7c8)" style="fill: none; stroke: #e6482f; stroke-width: 0.2"/>
    <path d="M 154.383467 532.445156 
L 149.511376 537.282268 
" clip-path="url(#p3b1d76e7c8)" style="fill: none; stroke: #e6482f; stroke-width: 0.2"/>
    <path d="M 109.558298 487.328036 
L 107.108745 493.209824 
L 107.043141 494.285225 
L 107.190751 494.854384 
L 107.626827 495.578634 
L 139.321469 521.716013 
L 139.711237 525.489429 
L 140.288169 527.571465 
L 149.511376 537.282268 
L 155.050124 542.668055 
L 160.446086 547.913381 
L 161.136861 548.584958 
L 165.606643 552.930459 
L 165.952031 553.2582 
L 167.425236 554.65988 
L 189.507869 575.654353 
" clip-path="url(#p3b1d76e7c8)" style="fill: none; stroke: #e6482f; stroke-width: 0.2"/>
    <path d="M 223.939566 591.939005 
L 222.189472 590.499284 
L 214.884229 581.285945 
L 213.975415 580.140314 
L 202.658657 565.699207 
L 200.762883 563.353807 
L 186.784322 546.06252 
L 165.100139 519.214058 
L 159.685846 512.157376 
L 158.549347 511.017596 
L 155.566276 507.667025 
L 141.316615 489.952893 
L 123.601498 467.558204 
" clip-path="url(#p3b1d76e7c8)" style="fill: none; stroke: #e6482f; stroke-width: 0.2"/>
    <path d="M 209.390826 283.680627 
L 202.041204 316.173849 
L 191.173063 368.433977 
L 182.167895 410.452185 
L 177.25182 434.035946 
" clip-path="url(#p3b1d76e7c8)" style="fill: none; stroke: #e6482f; stroke-width: 0.2"/>
    <path d="M 166.956814 484.186987 
L 163.32882 502.05299 
L 159.685846 512.157376 
L 155.35885 514.163329 
L 145.215253 523.48055 
L 140.288169 527.571465 
L 131.966059 535.590888 
L 125.445174 542.009646 
L 124.616436 544.596462 
L 126.686834 547.080859 
L 127.929459 551.01522 
L 124.409976 557.84658 
L 120.062719 564.679404 
L 119.027521 567.991933 
L 115.921924 574.720875 
L 112.040652 581.774631 
L 106.295443 592.215537 
L 105.757102 593.261676 
L 94.613037 614.895537 
L 93.978218 616.128957 
L 88.906419 625.447641 
L 87.974451 628.448523 
L 88.595763 641.079737 
L 89.423536 656.401649 
L 88.917996 661.29436 
L 88.803188 662.40634 
L 86.422135 672.553157 
L 82.729958 680.805218 
L 74.217787 699.827389 
L 70.067344 709.102179 
L 69.653458 712.208407 
L 72.448398 727.945849 
L 75.035913 744.719187 
L 77.727622 752.381606 
L 80.315137 754.971349 
L 89.217075 759.940143 
L 99.257442 764.186151 
L 105.261209 765.946298 
L 107.224518 766.240387 
L 114.266378 767.292379 
L 118.820095 767.086077 
L 120.16595 766.982195 
" clip-path="url(#p3b1d76e7c8)" style="fill: none; stroke: #e6482f; stroke-width: 0.2"/>
    <path d="M 125.269586 461.085311 
L 124.030821 457.841548 
" clip-path="url(#p3b1d76e7c8)" style="fill: none; stroke: #e6482f; stroke-width: 0.2"/>
    <path d="M 33.562521 541.116233 
L 51.229234 542.630014 
" clip-path="url(#p3b1d76e7c8)" style="fill: none; stroke: #e6482f; stroke-width: 0.2"/>
    <path d="M 80.158844 529.811519 
L 71.949611 537.833869 
" clip-path="url(#p3b1d76e7c8)" style="fill: none; stroke: #e6482f; stroke-width: 0.2"/>
    <path d="M 71.826121 528.468365 
L 69.01092 525.641595 
" clip-path="url(#p3b1d76e7c8)" style="fill: none; stroke: #e6482f; stroke-width: 0.2"/>
    <path d="M 71.580104 522.010103 
L 78.496545 515.469905 
L 93.994619 500.818107 
L 96.795348 501.365318 
L 107.043141 494.285225 
" clip-path="url(#p3b1d76e7c8)" style="fill: none; stroke: #e6482f; stroke-width: 0.2"/>
    <path d="M 108.03589 482.913768 
L 109.384639 484.845102 
L 109.69433 485.314767 
L 109.910439 485.888314 
L 110.042612 486.479419 
L 109.558298 487.328036 
" clip-path="url(#p3b1d76e7c8)" style="fill: none; stroke: #e6482f; stroke-width: 0.2"/>
    <path d="M 123.601498 467.558204 
L 113.055591 478.182001 
L 108.03589 482.913768 
L 101.47545 487.968887 
" clip-path="url(#p3b1d76e7c8)" style="fill: none; stroke: #e6482f; stroke-width: 0.2"/>
    <path d="M 43.221611 533.23359 
L 47.451193 538.075285 
" clip-path="url(#p3b1d76e7c8)" style="fill: none; stroke: #e6482f; stroke-width: 0.2"/>
    <path d="M 183.241684 363.31448 
L 178.234525 360.465763 
L 174.404386 360.569646 
L 173.027157 359.663386 
" clip-path="url(#p3b1d76e7c8)" style="fill: none; stroke: #e6482f; stroke-width: 0.2"/>
    <path d="M 179.134656 226.998916 
L 178.131295 229.976389 
L 180.718809 233.907823 
L 181.339157 238.875154 
L 176.732377 258.093385 
L 175.956702 261.329832 
L 173.887269 271.469332 
L 171.195559 278.092928 
L 170.765271 279.278065 
L 170.21893 280.784673 
" clip-path="url(#p3b1d76e7c8)" style="fill: none; stroke: #e6482f; stroke-width: 0.2"/>
    <path d="M 176.97314 355.092543 
L 180.511384 360.051697 
L 183.241684 363.31448 
L 184.755409 365.122911 
L 187.136463 366.675293 
L 191.173063 368.433977 
" clip-path="url(#p3b1d76e7c8)" style="fill: none; stroke: #e6482f; stroke-width: 0.2"/>
    <path d="M 190.705547 116.926109 
L 207.18729 137.247509 
L 234.591598 170.899532 
" clip-path="url(#p3b1d76e7c8)" style="fill: none; stroke: #e6482f; stroke-width: 0.2"/>
    <path d="M 214.884229 581.285945 
L 183.609262 617.328725 
" clip-path="url(#p3b1d76e7c8)" style="fill: none; stroke: #e6482f; stroke-width: 0.2"/>
    <path d="M 248.310635 589.252696 
L 250.483298 588.074875 
L 254.93475 586.314728 
L 259.592662 584.813555 
L 264.095246 582.277949 
L 265.492234 580.154945 
L 267.92442 574.047834 
L 270.564033 572.495452 
L 274.445305 571.614647 
L 276.464569 571.614647 
L 283.140782 574.254136 
L 296.441109 580.052526 
L 300.529806 581.81121 
L 301.772431 583.312382 
L 301.720333 586.210846 
L 301.409677 597.598398 
L 302.289548 600.186677 
L 303.738633 600.910927 
L 314.658871 603.240232 
L 328.37405 605.726093 
L 351.817974 609.089832 
L 359.478252 609.866754 
L 363.783059 610.071593 
" clip-path="url(#p3b1d76e7c8)" style="fill: none; stroke: #e6482f; stroke-width: 0.2"/>
    <path d="M 365.795069 609.475141 
L 363.783059 610.071593 
L 362.125583 610.563205 
L 347.833472 615.164753 
L 340.512793 617.536489 
L 335.632018 617.954945 
L 331.308882 617.396029 
L 323.082283 614.049847 
L 306.837476 605.682199 
L 296.001173 601.006031 
L 292.519316 600.587575 
L 277.13605 602.614012 
L 267.723748 604.147374 
L 258.089549 605.269596 
" clip-path="url(#p3b1d76e7c8)" style="fill: none; stroke: #e6482f; stroke-width: 0.2"/>
    <path d="M 239.407732 296.200643 
L 240.650357 294.649723 
L 249.552295 279.955494 
" clip-path="url(#p3b1d76e7c8)" style="fill: none; stroke: #e6482f; stroke-width: 0.2"/>
    <path d="M 210.149135 279.509239 
L 239.407732 296.200643 
" clip-path="url(#p3b1d76e7c8)" style="fill: none; stroke: #e6482f; stroke-width: 0.2"/>
    <path d="M 260.523665 227.183271 
L 254.106012 230.908403 
L 247.481897 233.597639 
L 235.009343 236.288338 
L 228.436361 241.410761 
L 218.447127 249.222419 
L 216.636253 251.758026 
L 215.497823 254.810118 
L 211.046372 274.574097 
L 210.149135 279.509239 
L 209.390826 283.680627 
" clip-path="url(#p3b1d76e7c8)" style="fill: none; stroke: #e6482f; stroke-width: 0.2"/>
    <path d="M 228.436361 241.410761 
L 218.395994 228.113822 
L 202.507188 208.402516 
L 191.972802 195.42865 
" clip-path="url(#p3b1d76e7c8)" style="fill: none; stroke: #e6482f; stroke-width: 0.2"/>
    <path d="M 214.068998 184.487633 
L 231.864191 195.285543 
L 235.321929 194.692975 
L 245.558145 200.988829 
L 250.619331 204.811991 
L 261.193216 209.53498 
L 263.892644 215.719636 
" clip-path="url(#p3b1d76e7c8)" style="fill: none; stroke: #e6482f; stroke-width: 0.2"/>
    <path d="M 235.009343 236.288338 
L 233.40493 230.545547 
L 231.231302 220.922531 
L 229.833349 212.28274 
L 230.351431 209.075556 
L 230.81645 203.901924 
L 231.864191 195.285543 
L 232.628289 189.002857 
L 233.50816 180.57083 
L 234.591598 170.899532 
L 237.130874 148.238552 
L 239.201271 130.754132 
L 240.029044 124.339764 
L 238.372533 118.23558 
L 235.060476 112.649344 
L 229.678021 106.028674 
L 226.67662 99.408005 
L 225.641421 94.544556 
L 225.71611 89.529987 
" clip-path="url(#p3b1d76e7c8)" style="fill: none; stroke: #e6482f; stroke-width: 0.2"/>
    <path d="M 176.051027 207.484232 
L 172.541414 214.869557 
L 172.311799 218.007974 
L 172.230758 219.112638 
L 175.542815 223.562021 
L 176.961028 224.918343 
L 179.134656 226.998916 
L 180.408153 228.217705 
L 187.136463 233.183573 
L 192.208262 235.357786 
L 198.211064 236.082036 
L 208.872744 238.150904 
L 211.046372 241.358088 
L 211.150567 244.048787 
L 214.462625 246.531721 
L 216.636253 251.758026 
" clip-path="url(#p3b1d76e7c8)" style="fill: none; stroke: #e6482f; stroke-width: 0.2"/>
    <path d="M 123.601498 467.558204 
L 102.466838 441.397164 
" clip-path="url(#p3b1d76e7c8)" style="fill: none; stroke: #e6482f; stroke-width: 0.2"/>
    <path d="M 283.809134 46.794066 
L 280.577565 46.600339 
" clip-path="url(#p3b1d76e7c8)" style="fill: none; stroke: #e6482f; stroke-width: 0.2"/>
   </g>
  </g>
 </g>
 <defs>
  <clipPath id="p3b1d76e7c8">
   <rect x="7.2" y="7.2" width="413.462072" height="831.6"/>
  </clipPath>
 </defs>
</svg>
