<?xml version="1.0" encoding="utf-8" standalone="no"?>
<!DOCTYPE svg PUBLIC "-//W3C//DTD SVG 1.1//EN"
  "http://www.w3.org/Graphics/SVG/1.1/DTD/svg11.dtd">
<svg xmlns:xlink="http://www.w3.org/1999/xlink" width="851.4pt" height="814.014725pt" viewBox="0 0 851.4 814.014725" xmlns="http://www.w3.org/2000/svg" version="1.1">
 <metadata>
  <rdf:RDF xmlns:dc="http://purl.org/dc/elements/1.1/" xmlns:cc="http://creativecommons.org/ns#" xmlns:rdf="http://www.w3.org/1999/02/22-rdf-syntax-ns#">
   <cc:Work>
    <dc:type rdf:resource="http://purl.org/dc/dcmitype/StillImage"/>
    <dc:date>2025-03-16T14:38:41.060648</dc:date>
    <dc:format>image/svg+xml</dc:format>
    <dc:creator>
     <cc:Agent>
      <dc:title>Matplotlib v3.10.1, https://matplotlib.org/</dc:title>
     </cc:Agent>
    </dc:creator>
   </cc:Work>
  </rdf:RDF>
 </metadata>
 <defs>
  <style type="text/css">*{stroke-linejoin: round; stroke-linecap: butt}</style>
 </defs>
 <g id="figure_1">
  <g id="patch_1">
   <path d="M 0 814.014725 
L 851.4 814.014725 
L 851.4 0 
L 0 0 
z
" style="fill: #ffffff"/>
  </g>
  <g id="axes_1">
   <g id="PatchCollection_1">
    <path d="M 133.425139 348.38075 
L 67.411908 390.538056 
L 56.5374 400.136902 
L 47.834623 417.608068 
L 45.245455 476.919746 
L 380.680171 564.331016 
L 530.984049 630.556715 
L 733.023743 770.468601 
L 806.154545 609.719617 
L 616.685529 514.119233 
L 766.793899 190.744263 
L 332.262718 43.546124 
L 236.405356 332.255956 
L 192.854484 306.437279 
L 133.425139 348.38075 
" clip-path="url(#p0ddb38542d)" style="fill: #fbd6c9"/>
   </g>
   <g id="PatchCollection_2">
    <path d="M 131.607437 448.479602 
L 136.156976 449.065671 
L 135.839935 451.5525 
L 131.285112 450.966432 
L 131.607437 448.479602 
" clip-path="url(#p0ddb38542d)" style="fill: #e6482f"/>
    <path d="M 280.791104 443.204989 
L 275.760719 441.921975 
L 276.151736 440.369687 
L 267.734296 438.22341 
L 267.359131 439.680661 
L 260.93905 438.041254 
L 263.665603 427.34947 
L 270.043412 428.973038 
L 269.546714 430.929238 
L 275.057945 432.338969 
L 276.225712 427.753382 
L 284.215147 429.796701 
L 280.791104 443.204989 
" clip-path="url(#p0ddb38542d)" style="fill: #e6482f"/>
   </g>
   <g id="LineCollection_1">
    <path d="M 165.092256 340.46091 
L 154.571777 339.843163 
L 144.785777 343.91396 
L 64.056557 397.190721 
L 59.359065 402.750449 
L 55.269236 411.002922 
L 53.55193 419.881062 
L 50.296975 445.984853 
L 49.016688 477.902496 
" clip-path="url(#p0ddb38542d)" style="fill: none; stroke: #e6482f; stroke-width: 0.2"/>
    <path d="M 50.296975 445.984853 
L 73.55722 445.541342 
L 91.348507 447.743057 
L 325.351223 501.051498 
" clip-path="url(#p0ddb38542d)" style="fill: none; stroke: #e6482f; stroke-width: 0.2"/>
    <path d="M 608.437178 515.885357 
L 506.56132 462.759073 
L 439.924575 427.682104 
L 368.299718 394.672212 
L 346.809618 387.005808 
L 324.415952 381.343122 
L 284.347247 371.752196 
L 232.378935 358.858698 
L 165.092256 340.46091 
" clip-path="url(#p0ddb38542d)" style="fill: none; stroke: #e6482f; stroke-width: 0.2"/>
    <path d="M 324.415952 381.343122 
L 314.635236 420.45921 
L 312.231008 424.569607 
L 308.8281 426.692124 
L 272.859793 418.613887 
L 263.401402 416.49137 
" clip-path="url(#p0ddb38542d)" style="fill: none; stroke: #e6482f; stroke-width: 0.2"/>
    <path d="M 284.347247 371.752196 
L 272.859793 418.613887 
" clip-path="url(#p0ddb38542d)" style="fill: none; stroke: #e6482f; stroke-width: 0.2"/>
    <path d="M 141.171701 342.913456 
L 144.785777 343.91396 
" clip-path="url(#p0ddb38542d)" style="fill: none; stroke: #e6482f; stroke-width: 0.2"/>
    <path d="M 310.571826 117.359029 
L 294.799034 170.12892 
L 276.817522 223.207685 
L 258.233633 272.722522 
L 237.821473 338.678946 
L 232.859781 347.184854 
L 229.303637 354.597824 
" clip-path="url(#p0ddb38542d)" style="fill: none; stroke: #e6482f; stroke-width: 0.2"/>
    <path d="M 195.760994 308.160373 
L 229.303637 354.597824 
L 232.378935 358.858698 
" clip-path="url(#p0ddb38542d)" style="fill: none; stroke: #e6482f; stroke-width: 0.2"/>
    <path d="M 743.811197 578.263033 
L 742.577247 577.98482 
L 720.72255 572.726046 
L 702.122809 566.580251 
L 684.817651 558.581213 
L 608.437178 515.885357 
" clip-path="url(#p0ddb38542d)" style="fill: none; stroke: #e6482f; stroke-width: 0.2"/>
    <path d="M 608.437178 515.885357 
L 661.530986 405.593671 
L 662.011832 400.754649 
L 659.390959 395.187002 
" clip-path="url(#p0ddb38542d)" style="fill: none; stroke: #e6482f; stroke-width: 0.2"/>
    <path d="M 661.530986 405.593671 
L 666.082355 407.7048 
" clip-path="url(#p0ddb38542d)" style="fill: none; stroke: #e6482f; stroke-width: 0.2"/>
    <path d="M 506.56132 462.759073 
L 509.937807 446.531322 
L 516.315616 427.539547 
L 539.137288 367.024052 
L 540.785902 361.899916 
L 542.11219 355.833319 
L 558.159751 319.560454 
L 577.747604 265.515468 
L 598.191468 209.062852 
" clip-path="url(#p0ddb38542d)" style="fill: none; stroke: #e6482f; stroke-width: 0.2"/>
    <path d="M 258.233633 272.722522 
L 390.857188 313.976967 
L 540.785902 361.899916 
L 597.388297 376.100188 
L 608.157125 380.915451 
L 659.390959 395.187002 
" clip-path="url(#p0ddb38542d)" style="fill: none; stroke: #e6482f; stroke-width: 0.2"/>
    <path d="M 368.299718 394.672212 
L 385.219142 330.60071 
L 390.857188 313.976967 
L 407.565252 267.87558 
L 426.767372 214.369144 
L 447.385608 157.892768 
" clip-path="url(#p0ddb38542d)" style="fill: none; stroke: #e6482f; stroke-width: 0.2"/>
    <path d="M 276.817522 223.207685 
L 407.565252 267.87558 
L 558.159751 319.560454 
" clip-path="url(#p0ddb38542d)" style="fill: none; stroke: #e6482f; stroke-width: 0.2"/>
    <path d="M 294.799034 170.12892 
L 426.767372 214.369144 
L 577.747604 265.515468 
" clip-path="url(#p0ddb38542d)" style="fill: none; stroke: #e6482f; stroke-width: 0.2"/>
    <path d="M 310.571826 117.359029 
L 315.348578 115.188993 
L 321.44105 115.188993 
L 447.385608 157.892768 
L 454.809653 159.120343 
L 512.632656 178.53187 
L 598.191468 209.062852 
" clip-path="url(#p0ddb38542d)" style="fill: none; stroke: #e6482f; stroke-width: 0.2"/>
    <path d="M 598.191468 209.062852 
L 623.523368 142.211139 
" clip-path="url(#p0ddb38542d)" style="fill: none; stroke: #e6482f; stroke-width: 0.2"/>
   </g>
   <g id="LineCollection_2">
    <path d="M 541.409416 544.737333 
L 522.196728 534.251465 
L 503.433182 525.650519 
L 463.322205 509.620764 
L 409.937776 490.391394 
" clip-path="url(#p0ddb38542d)" style="fill: none; stroke-dasharray: 3.7,1.6; stroke-dashoffset: 0; stroke: #e6482f"/>
   </g>
  </g>
 </g>
 <defs>
  <clipPath id="p0ddb38542d">
   <rect x="7.2" y="7.2" width="837" height="799.614725"/>
  </clipPath>
 </defs>
</svg>
