<?xml version="1.0" encoding="utf-8" standalone="no"?>
<!DOCTYPE svg PUBLIC "-//W3C//DTD SVG 1.1//EN"
  "http://www.w3.org/Graphics/SVG/1.1/DTD/svg11.dtd">
<svg xmlns:xlink="http://www.w3.org/1999/xlink" width="851.4pt" height="392.28189pt" viewBox="0 0 851.4 392.28189" xmlns="http://www.w3.org/2000/svg" version="1.1">
 <metadata>
  <rdf:RDF xmlns:dc="http://purl.org/dc/elements/1.1/" xmlns:cc="http://creativecommons.org/ns#" xmlns:rdf="http://www.w3.org/1999/02/22-rdf-syntax-ns#">
   <cc:Work>
    <dc:type rdf:resource="http://purl.org/dc/dcmitype/StillImage"/>
    <dc:date>2025-03-16T14:37:55.702239</dc:date>
    <dc:format>image/svg+xml</dc:format>
    <dc:creator>
     <cc:Agent>
      <dc:title>Matplotlib v3.10.1, https://matplotlib.org/</dc:title>
     </cc:Agent>
    </dc:creator>
   </cc:Work>
  </rdf:RDF>
 </metadata>
 <defs>
  <style type="text/css">*{stroke-linejoin: round; stroke-linecap: butt}</style>
 </defs>
 <g id="figure_1">
  <g id="patch_1">
   <path d="M 0 392.28189 
L 851.4 392.28189 
L 851.4 -0 
L 0 -0 
z
" style="fill: #ffffff"/>
  </g>
  <g id="axes_1">
   <g id="PatchCollection_1">
    <path d="M 56.132892 240.092688 
L 74.92502 236.491171 
L 85.112193 213.7633 
L 109.473576 207.475623 
L 96.964663 156.162713 
L 102.466357 133.613177 
L 200.422254 157.367863 
L 298.138033 97.451717 
L 352.830859 80.511351 
L 429.430945 82.79626 
L 456.933936 107.239205 
L 511.718974 139.272504 
L 560.901889 186.673205 
L 610.995058 289.652906 
L 764.522993 367.905441 
L 779.398382 366.831255 
L 806.154545 330.382789 
L 784.108511 307.6173 
L 746.845629 322.619674 
L 694.872608 291.060075 
L 712.494279 252.220814 
L 626.684837 226.356767 
L 689.994488 141.142228 
L 588.913417 83.22259 
L 490.959347 36.337387 
L 442.902151 27.203327 
L 303.498213 24.37645 
L 211.002013 67.88584 
L 207.806539 98.955019 
L 84.004732 91.710188 
L 54.844659 86.814354 
L 45.245455 170.267842 
L 56.132892 240.092688 
" clip-path="url(#p64334ca08e)" style="fill: #d1d4f2"/>
   </g>
   <g id="PatchCollection_2">
    <path d="M 61.5442 235.281842 
L 63.234149 235.110474 
L 63.366533 236.41733 
L 61.676584 236.588698 
L 61.5442 235.281842 
" clip-path="url(#p64334ca08e)" style="fill: #4d59c1"/>
    <path d="M 60.726158 233.892785 
L 61.436467 233.8691 
L 61.456552 234.458439 
L 60.746244 234.482124 
L 60.726158 233.892785 
" clip-path="url(#p64334ca08e)" style="fill: #4d59c1"/>
    <path d="M 64.003802 232.204182 
L 64.111535 232.868756 
L 62.911863 233.063809 
L 62.803217 232.400628 
L 64.003802 232.204182 
" clip-path="url(#p64334ca08e)" style="fill: #4d59c1"/>
    <path d="M 69.834173 231.717942 
L 71.118754 232.553884 
L 70.664084 233.251896 
L 69.380416 232.415954 
L 69.834173 231.717942 
" clip-path="url(#p64334ca08e)" style="fill: #4d59c1"/>
    <path d="M 66.011473 231.249815 
L 66.044341 231.793177 
L 65.236342 231.84194 
L 65.203474 231.298578 
L 66.011473 231.249815 
" clip-path="url(#p64334ca08e)" style="fill: #4d59c1"/>
    <path d="M 69.944645 231.332016 
L 69.344809 232.294742 
L 68.403514 231.708189 
L 69.00335 230.745463 
L 69.944645 231.332016 
" clip-path="url(#p64334ca08e)" style="fill: #4d59c1"/>
    <path d="M 72.823311 229.993115 
L 71.810802 231.5619 
L 71.053931 231.072874 
L 72.06644 229.505482 
L 72.823311 229.993115 
" clip-path="url(#p64334ca08e)" style="fill: #4d59c1"/>
    <path d="M 58.493891 229.706108 
L 59.474445 229.568178 
L 59.670739 230.964201 
L 58.689272 231.102131 
L 58.493891 229.706108 
" clip-path="url(#p64334ca08e)" style="fill: #4d59c1"/>
    <path d="M 73.387541 229.129308 
L 72.823311 229.993115 
L 72.06644 229.505482 
L 71.724068 229.276991 
L 72.286471 228.411791 
L 73.387541 229.129308 
" clip-path="url(#p64334ca08e)" style="fill: #4d59c1"/>
    <path d="M 171.874799 129.936425 
L 172.016313 129.47387 
L 173.215985 129.840292 
L 173.074471 130.302846 
L 171.874799 129.936425 
" clip-path="url(#p64334ca08e)" style="fill: #4d59c1"/>
    <path d="M 174.201104 128.956979 
L 174.816461 129.171538 
L 174.473176 130.150983 
L 173.857819 129.936425 
L 174.201104 128.956979 
" clip-path="url(#p64334ca08e)" style="fill: #4d59c1"/>
    <path d="M 174.225755 128.71177 
L 172.969477 128.292406 
L 173.410453 126.970224 
L 174.666731 127.389588 
L 174.225755 128.71177 
" clip-path="url(#p64334ca08e)" style="fill: #4d59c1"/>
    <path d="M 172.875439 128.575233 
L 172.39064 128.413617 
L 173.044343 126.453333 
L 173.529142 126.614948 
L 173.410453 126.970224 
L 172.969477 128.292406 
L 172.875439 128.575233 
" clip-path="url(#p64334ca08e)" style="fill: #4d59c1"/>
    <path d="M 171.630117 125.944802 
L 172.695579 126.293111 
L 172.254604 127.640371 
L 171.189142 127.292062 
L 171.630117 125.944802 
" clip-path="url(#p64334ca08e)" style="fill: #4d59c1"/>
    <path d="M 505.33259 100.331537 
L 505.968033 101.182805 
L 504.719059 102.113487 
L 504.083616 101.262219 
L 505.33259 100.331537 
" clip-path="url(#p64334ca08e)" style="fill: #4d59c1"/>
    <path d="M 504.476203 98.886751 
L 505.044085 99.775636 
L 503.892801 100.511265 
L 503.324919 99.620987 
L 504.476203 98.886751 
" clip-path="url(#p64334ca08e)" style="fill: #4d59c1"/>
    <path d="M 499.952324 97.326326 
L 500.54577 96.58373 
L 501.994689 97.74151 
L 501.402157 98.484105 
L 499.952324 97.326326 
" clip-path="url(#p64334ca08e)" style="fill: #4d59c1"/>
    <path d="M 499.724989 94.772523 
L 500.17053 94.939711 
L 499.950498 95.527657 
L 499.504958 95.360469 
L 499.724989 94.772523 
" clip-path="url(#p64334ca08e)" style="fill: #4d59c1"/>
    <path d="M 499.014681 94.258418 
L 499.45383 94.555178 
L 498.938903 95.314492 
L 498.500666 95.017732 
L 499.014681 94.258418 
" clip-path="url(#p64334ca08e)" style="fill: #4d59c1"/>
    <path d="M 502.116117 94.995441 
L 500.720151 94.358731 
L 500.900924 93.964445 
L 502.295977 94.601155 
L 502.116117 94.995441 
" clip-path="url(#p64334ca08e)" style="fill: #4d59c1"/>
    <path d="M 495.244934 91.565292 
L 499.272145 91.173792 
L 499.441962 92.923697 
L 495.414751 93.315197 
L 495.244934 91.565292 
" clip-path="url(#p64334ca08e)" style="fill: #4d59c1"/>
    <path d="M 506.16524 90.315558 
L 507.62968 91.006604 
L 506.626301 93.136863 
L 505.161861 92.445817 
L 506.16524 90.315558 
" clip-path="url(#p64334ca08e)" style="fill: #4d59c1"/>
    <path d="M 64.536077 230.819304 
L 64.0458 227.978495 
L 65.105784 227.795981 
L 65.595148 230.63679 
L 64.536077 230.819304 
" clip-path="url(#p64334ca08e)" style="fill: #4d59c1"/>
    <path d="M 72.054571 228.347702 
L 71.134275 229.655952 
L 70.132722 228.950974 
L 71.052105 227.642725 
L 72.054571 228.347702 
" clip-path="url(#p64334ca08e)" style="fill: #4d59c1"/>
    <path d="M 50.192049 167.722399 
L 51.430067 167.549637 
L 51.577059 168.601531 
L 50.339041 168.774292 
L 50.192049 167.722399 
" clip-path="url(#p64334ca08e)" style="fill: #4d59c1"/>
    <path d="M 57.048624 165.296773 
L 58.271121 165.179742 
L 58.393462 166.45316 
L 57.170965 166.570192 
L 57.048624 165.296773 
" clip-path="url(#p64334ca08e)" style="fill: #4d59c1"/>
    <path d="M 50.574593 164.424607 
L 51.480281 165.11008 
L 51.097738 165.615825 
L 50.192049 164.930352 
L 50.574593 164.424607 
" clip-path="url(#p64334ca08e)" style="fill: #4d59c1"/>
    <path d="M 52.445315 163.215278 
L 52.073727 163.987131 
L 50.800102 163.3755 
L 51.17169 162.603647 
L 52.445315 163.215278 
" clip-path="url(#p64334ca08e)" style="fill: #4d59c1"/>
    <path d="M 51.979688 158.857233 
L 52.804121 159.395023 
L 52.387796 160.031732 
L 51.563364 159.493942 
L 51.979688 158.857233 
" clip-path="url(#p64334ca08e)" style="fill: #4d59c1"/>
    <path d="M 508.418505 89.483796 
L 507.764803 91.062333 
L 507.62968 91.006604 
L 506.16524 90.315558 
L 505.339894 90.057809 
L 505.99451 88.479272 
L 508.418505 89.483796 
" clip-path="url(#p64334ca08e)" style="fill: #4d59c1"/>
    <path d="M 488.264192 89.14106 
L 488.468703 88.979444 
L 488.835726 89.444785 
L 488.632128 89.606401 
L 488.264192 89.14106 
" clip-path="url(#p64334ca08e)" style="fill: #4d59c1"/>
    <path d="M 486.305823 85.834909 
L 484.663349 88.115637 
L 483.712924 87.430165 
L 484.536443 86.286318 
L 484.424145 86.20551 
L 484.664262 85.872526 
L 484.502662 85.756888 
L 485.080587 84.95299 
L 486.305823 85.834909 
" clip-path="url(#p64334ca08e)" style="fill: #4d59c1"/>
    <path d="M 503.196187 85.487993 
L 501.771006 83.630808 
L 504.653324 81.419742 
L 506.078505 83.276926 
L 503.196187 85.487993 
" clip-path="url(#p64334ca08e)" style="fill: #4d59c1"/>
    <path d="M 502.002906 79.175237 
L 503.069281 80.629776 
L 501.23234 81.975643 
L 500.165965 80.521104 
L 502.002906 79.175237 
" clip-path="url(#p64334ca08e)" style="fill: #4d59c1"/>
    <path d="M 511.455119 79.37029 
L 511.563765 80.370634 
L 510.437132 80.493239 
L 510.328486 79.492895 
L 511.455119 79.37029 
" clip-path="url(#p64334ca08e)" style="fill: #4d59c1"/>
    <path d="M 509.201853 78.61237 
L 509.733215 78.548281 
L 509.806254 79.159912 
L 509.275806 79.224001 
L 509.201853 78.61237 
" clip-path="url(#p64334ca08e)" style="fill: #4d59c1"/>
    <path d="M 504.646933 77.26511 
L 505.695961 78.029997 
L 504.839574 79.205888 
L 503.790546 78.439608 
L 504.646933 77.26511 
" clip-path="url(#p64334ca08e)" style="fill: #4d59c1"/>
    <path d="M 515.4732 76.994822 
L 513.004468 77.224706 
L 512.899474 76.097577 
L 514.210531 75.976366 
L 514.005108 73.766692 
L 516.262026 73.556313 
L 516.468362 75.765987 
L 520.144983 75.423251 
L 520.098421 74.921685 
L 521.372958 74.801867 
L 521.524515 76.430561 
L 515.4732 76.994822 
" clip-path="url(#p64334ca08e)" style="fill: #4d59c1"/>
    <path d="M 512.714136 69.291616 
L 513.830726 69.184337 
L 514.065365 71.648972 
L 512.948775 71.756252 
L 512.714136 69.291616 
" clip-path="url(#p64334ca08e)" style="fill: #4d59c1"/>
    <path d="M 516.960465 69.709587 
L 517.846068 69.625993 
L 517.924585 70.446609 
L 517.038069 70.531596 
L 516.960465 69.709587 
" clip-path="url(#p64334ca08e)" style="fill: #4d59c1"/>
    <path d="M 516.762346 68.185386 
L 516.717609 67.711685 
L 514.609509 67.912311 
L 514.536469 67.150211 
L 516.644569 66.949585 
L 516.615354 66.641679 
L 517.429743 66.565051 
L 517.576735 68.107365 
L 516.762346 68.185386 
" clip-path="url(#p64334ca08e)" style="fill: #4d59c1"/>
    <path d="M 311.688671 63.265867 
L 313.427009 63.258901 
L 313.4334 65.007413 
L 311.695062 65.014379 
L 311.688671 63.265867 
" clip-path="url(#p64334ca08e)" style="fill: #4d59c1"/>
    <path d="M 430.005217 62.112267 
L 430.157687 60.71485 
L 434.832209 61.223382 
L 434.680652 62.620798 
L 430.005217 62.112267 
" clip-path="url(#p64334ca08e)" style="fill: #4d59c1"/>
    <path d="M 311.612892 60.227218 
L 313.032596 59.860796 
L 313.221585 60.590852 
L 311.800969 60.957274 
L 311.612892 60.227218 
" clip-path="url(#p64334ca08e)" style="fill: #4d59c1"/>
    <path d="M 432.267613 58.533042 
L 433.541238 58.60549 
L 433.50837 59.169751 
L 432.234745 59.097303 
L 432.267613 58.533042 
" clip-path="url(#p64334ca08e)" style="fill: #4d59c1"/>
    <path d="M 429.738623 58.112284 
L 431.280668 58.211204 
L 431.231366 58.998383 
L 429.688408 58.900856 
L 429.738623 58.112284 
" clip-path="url(#p64334ca08e)" style="fill: #4d59c1"/>
   </g>
   <g id="LineCollection_1">
    <path d="M 636.547566 302.67691 
L 636.566157 301.347735 
L 637.24451 300.188562 
L 641.530098 294.675524 
L 650.516685 281.229396 
L 651.381289 279.54776 
L 651.43059 278.665841 
L 651.031613 277.997087 
L 648.656006 275.203647 
" clip-path="url(#p64334ca08e)" style="fill: none; stroke: #4d59c1; stroke-width: 0.2"/>
    <path d="M 602.380059 218.465474 
L 606.567957 221.061074 
L 609.285936 222.359571 
L 614.603205 224.271092 
L 625.10536 228.064875 
L 640.802443 237.12788 
L 648.785651 241.437162 
L 666.809039 247.70812 
L 677.674565 248.939742 
L 701.023439 251.561813 
L 705.647747 252.459058 
L 710.158844 254.129548 
L 711.427675 254.571677 
" clip-path="url(#p64334ca08e)" style="fill: none; stroke: #4d59c1; stroke-width: 0.2"/>
    <path d="M 593.557792 253.806012 
L 593.985092 253.219765 
L 595.888681 250.604659 
L 596.475736 248.527343 
L 597.538459 246.987817 
L 600.764975 244.751672 
L 604.983914 242.468157 
L 609.147161 239.857231 
" clip-path="url(#p64334ca08e)" style="fill: none; stroke: #4d59c1; stroke-width: 0.2"/>
    <path d="M 662.540798 283.458575 
L 648.656006 275.203647 
L 642.974452 270.402554 
L 635.726204 263.889172 
L 633.245602 261.577792 
L 623.53136 252.52454 
L 613.637259 245.665635 
L 610.013591 241.84538 
L 609.147161 239.857231 
L 605.703353 231.952006 
L 602.128073 223.208052 
L 601.768354 220.840943 
L 602.380059 218.465474 
" clip-path="url(#p64334ca08e)" style="fill: none; stroke: #4d59c1; stroke-width: 0.2"/>
    <path d="M 633.245602 261.577792 
L 637.631619 249.58063 
L 640.802443 237.12788 
" clip-path="url(#p64334ca08e)" style="fill: none; stroke: #4d59c1; stroke-width: 0.2"/>
    <path d="M 577.722677 221.252764 
L 578.907018 221.881691 
L 580.503842 223.319511 
L 580.663616 224.223722 
L 582.206573 226.086479 
L 584.495446 230.610319 
L 587.31568 235.294381 
L 588.965458 239.9255 
L 589.60364 241.467813 
L 591.466145 247.429473 
L 593.168876 251.953313 
L 593.794276 253.048397 
L 593.985092 253.219765 
" clip-path="url(#p64334ca08e)" style="fill: none; stroke: #4d59c1; stroke-width: 0.2"/>
    <path d="M 586.813534 193.734129 
L 590.160565 193.387213 
L 592.529781 193.600378 
L 610.05285 202.843111 
L 620.19072 210.062863 
L 622.36273 212.513567 
L 624.119328 215.617698 
" clip-path="url(#p64334ca08e)" style="fill: none; stroke: #4d59c1; stroke-width: 0.2"/>
    <path d="M 567.204675 199.63024 
L 571.468866 197.41924 
L 586.813534 193.734129 
" clip-path="url(#p64334ca08e)" style="fill: none; stroke: #4d59c1; stroke-width: 0.2"/>
    <path d="M 583.308555 169.036221 
L 586.585286 170.78334 
L 595.20485 176.513723 
L 601.44972 180.799319 
L 608.722619 185.611558 
L 616.710392 190.897499 
L 624.983019 198.554728 
L 628.239664 201.774498 
L 630.958556 204.149967 
L 631.264408 204.492703 
L 631.48444 204.92182 
L 631.857854 206.400044 
" clip-path="url(#p64334ca08e)" style="fill: none; stroke: #4d59c1; stroke-width: 0.2"/>
    <path d="M 608.722619 185.611558 
L 622.763534 172.141746 
L 630.673702 166.905962 
L 635.224058 165.699419 
" clip-path="url(#p64334ca08e)" style="fill: none; stroke: #4d59c1; stroke-width: 0.2"/>
    <path d="M 635.224058 165.699419 
L 639.774413 165.664588 
L 644.001569 164.91642 
" clip-path="url(#p64334ca08e)" style="fill: none; stroke: #4d59c1; stroke-width: 0.2"/>
    <path d="M 614.603205 224.271092 
L 619.850174 218.596438 
L 622.87218 216.229329 
L 624.119328 215.617698 
L 629.975263 208.905084 
L 631.857854 206.400044 
L 634.215201 203.256902 
L 636.218307 200.675234 
L 636.737799 197.696494 
L 636.982481 195.346104 
L 637.081085 188.352055 
L 637.19247 177.753703 
L 639.186446 172.668389 
L 641.929076 167.917452 
L 644.001569 164.91642 
L 647.855311 159.737759 
L 650.964051 157.111508 
L 661.040751 150.958974 
L 667.472785 146.291631 
L 668.229656 144.898394 
L 668.376647 143.576213 
L 668.180354 141.274586 
L 667.360487 138.495078 
L 664.894493 135.05239 
L 653.225534 127.542844 
L 646.924972 125.356856 
L 639.87119 123.916249 
L 627.477315 114.531406 
L 621.586686 110.702792 
L 612.169167 106.20821 
L 607.073755 104.543292 
L 605.604749 107.158397 
L 603.506692 112.154544 
L 600.470079 117.251004 
L 597.677234 120.263182 
L 594.27451 124.5237 
L 593.735845 125.797118 
L 592.834721 135.839569 
L 591.55014 142.556363 
L 587.632489 155.665328 
L 583.308555 169.036221 
L 577.867119 165.812271 
L 575.932488 164.563931 
" clip-path="url(#p64334ca08e)" style="fill: none; stroke: #4d59c1; stroke-width: 0.2"/>
    <path d="M 607.073755 104.543292 
L 615.3126 116.600363 
L 616.657439 120.508392 
L 617.102979 126.874091 
L 620.869074 133.388866 
L 623.653701 137.921065 
L 630.304853 146.60093 
L 633.312251 152.810586 
L 634.660741 160.855135 
L 635.224058 165.699419 
L 636.199134 170.954708 
L 637.19247 177.753703 
" clip-path="url(#p64334ca08e)" style="fill: none; stroke: #4d59c1; stroke-width: 0.2"/>
    <path d="M 566.700306 88.773245 
L 566.06395 95.43431 
L 572.969826 131.429975 
L 572.284169 133.731602 
L 560.526649 150.717944 
" clip-path="url(#p64334ca08e)" style="fill: none; stroke: #4d59c1; stroke-width: 0.2"/>
    <path d="M 501.361985 101.35278 
L 502.834642 99.66975 
L 503.496562 88.332982 
L 507.855189 81.525628 
L 531.021465 79.101396 
L 537.207903 81.756905 
L 540.546718 83.190546 
L 556.317753 88.136536 
L 566.700306 88.773245 
L 580.365067 87.54859 
L 586.732278 91.417609 
L 589.878451 93.563193 
L 601.669751 101.604956 
L 607.073755 104.543292 
" clip-path="url(#p64334ca08e)" style="fill: none; stroke: #4d59c1; stroke-width: 0.2"/>
    <path d="M 512.929602 110.995371 
L 511.822142 111.350647 
L 510.647121 112.624065 
L 507.334783 116.998828 
L 505.626574 120.43455 
L 504.346558 126.084125 
L 503.594252 129.617374 
L 502.761603 131.233528 
L 501.333682 132.572429 
L 500.880985 132.935436 
" clip-path="url(#p64334ca08e)" style="fill: none; stroke: #4d59c1; stroke-width: 0.2"/>
    <path d="M 468.257784 70.360228 
L 469.065782 70.531596 
L 470.302887 71.207316 
L 475.733368 75.657314 
L 484.082686 82.498107 
L 484.941812 83.254634 
L 486.035577 84.218754 
L 488.386533 86.936959 
L 490.448071 89.650984 
L 493.260088 93.352814 
L 501.361985 101.35278 
L 512.929602 110.995371 
L 517.222494 114.27923 
L 530.506537 125.037804 
L 536.432773 130.573134 
L 540.253647 134.344626 
L 544.885259 138.262408 
L 556.464745 147.493994 
L 560.526649 150.717944 
L 569.051262 157.484895 
L 575.932488 164.563931 
L 576.569756 165.859641 
L 578.308094 170.43921 
L 579.213783 175.680567 
L 579.875703 181.239582 
L 580.548578 184.374364 
L 581.100026 186.015597 
L 582.152707 188.122171 
L 583.167954 189.468038 
L 586.813534 193.734129 
L 589.988923 200.48854 
L 592.437569 204.725373 
L 596.967839 211.853173 
L 600.372388 216.261374 
L 602.380059 218.465474 
" clip-path="url(#p64334ca08e)" style="fill: none; stroke: #4d59c1; stroke-width: 0.2"/>
    <path d="M 540.546718 83.190546 
L 540.645321 84.8067 
L 517.222494 114.27923 
" clip-path="url(#p64334ca08e)" style="fill: none; stroke: #4d59c1; stroke-width: 0.2"/>
    <path d="M 500.214353 83.827255 
L 490.448071 89.650984 
" clip-path="url(#p64334ca08e)" style="fill: none; stroke: #4d59c1; stroke-width: 0.2"/>
    <path d="M 477.660695 85.540936 
L 478.885019 85.883672 
L 480.64892 86.275172 
L 481.652299 86.349013 
L 482.264917 86.251487 
L 484.941812 83.254634 
" clip-path="url(#p64334ca08e)" style="fill: none; stroke: #4d59c1; stroke-width: 0.2"/>
    <path d="M 507.855189 81.525628 
L 505.920558 78.978791 
L 511.258826 70.898018 
L 513.953067 59.146066 
" clip-path="url(#p64334ca08e)" style="fill: none; stroke: #4d59c1; stroke-width: 0.2"/>
    <path d="M 537.207903 81.756905 
L 536.212741 79.786868 
L 521.617641 67.642023 
L 516.96503 61.251247 
L 513.953067 59.146066 
L 511.969134 55.448415 
L 502.39458 49.52298 
" clip-path="url(#p64334ca08e)" style="fill: none; stroke: #4d59c1; stroke-width: 0.2"/>
    <path d="M 468.257784 70.360228 
L 467.914499 69.355705 
L 449.074895 53.550827 
L 445.954286 51.894269 
" clip-path="url(#p64334ca08e)" style="fill: none; stroke: #4d59c1; stroke-width: 0.2"/>
    <path d="M 434.360192 69.393322 
L 435.108846 62.410419 
L 439.087668 58.46756 
L 442.519607 55.839915 
L 444.490759 52.919691 
L 445.954286 51.894269 
" clip-path="url(#p64334ca08e)" style="fill: none; stroke: #4d59c1; stroke-width: 0.2"/>
    <path d="M 494.794829 42.06359 
L 496.350568 46.149953 
L 495.471356 49.614933 
L 475.733368 75.657314 
" clip-path="url(#p64334ca08e)" style="fill: none; stroke: #4d59c1; stroke-width: 0.2"/>
    <path d="M 589.878451 93.563193 
L 592.869415 89.886441 
L 596.932775 87.817697 
" clip-path="url(#p64334ca08e)" style="fill: none; stroke: #4d59c1; stroke-width: 0.2"/>
    <path d="M 494.794829 42.06359 
L 499.029289 40.911383 
L 501.537544 41.400586 
" clip-path="url(#p64334ca08e)" style="fill: none; stroke: #4d59c1; stroke-width: 0.2"/>
    <path d="M 506.553231 43.801318 
L 519.545147 52.080962 
L 519.910344 53.759813 
L 519.14343 56.278785 
L 516.96503 61.251247 
" clip-path="url(#p64334ca08e)" style="fill: none; stroke: #4d59c1; stroke-width: 0.2"/>
    <path d="M 494.794829 42.06359 
L 488.953502 43.247841 
L 482.163575 44.525439 
L 471.833063 45.219271 
L 462.706788 46.605542 
L 453.836152 49.196962 
L 445.954286 51.894269 
" clip-path="url(#p64334ca08e)" style="fill: none; stroke: #4d59c1; stroke-width: 0.2"/>
    <path d="M 482.163575 44.525439 
L 485.924192 41.715281 
L 488.516178 39.633785 
" clip-path="url(#p64334ca08e)" style="fill: none; stroke: #4d59c1; stroke-width: 0.2"/>
    <path d="M 494.794829 42.06359 
L 490.195172 40.947607 
L 488.516178 39.633785 
" clip-path="url(#p64334ca08e)" style="fill: none; stroke: #4d59c1; stroke-width: 0.2"/>
    <path d="M 488.516178 39.633785 
L 490.143243 36.182273 
" clip-path="url(#p64334ca08e)" style="fill: none; stroke: #4d59c1; stroke-width: 0.2"/>
    <path d="M 60.120844 235.071463 
L 60.012198 235.78062 
L 60.012198 237.102802 
" clip-path="url(#p64334ca08e)" style="fill: none; stroke: #4d59c1; stroke-width: 0.2"/>
    <path d="M 72.448071 231.683111 
L 70.900549 234.018176 
L 67.160018 231.598124 
L 63.55461 234.273138 
L 60.120844 235.071463 
L 57.707805 234.496056 
L 55.30743 234.798721 
" clip-path="url(#p64334ca08e)" style="fill: none; stroke: #4d59c1; stroke-width: 0.2"/>
    <path d="M 58.910216 226.571326 
L 54.226708 227.867679 
" clip-path="url(#p64334ca08e)" style="fill: none; stroke: #4d59c1; stroke-width: 0.2"/>
    <path d="M 67.513346 213.62119 
L 61.580719 198.09078 
L 52.28828 182.037906 
" clip-path="url(#p64334ca08e)" style="fill: none; stroke: #4d59c1; stroke-width: 0.2"/>
    <path d="M 45.411027 168.828389 
L 48.647265 165.702205 
" clip-path="url(#p64334ca08e)" style="fill: none; stroke: #4d59c1; stroke-width: 0.2"/>
    <path d="M 98.167988 204.630633 
L 89.812279 185.402573 
L 82.754845 171.124683 
L 75.534899 165.365042 
L 66.990201 161.039042 
L 62.511059 159.003523 
L 55.240898 153.129637 
L 53.786501 150.279075 
L 51.411807 149.514188 
" clip-path="url(#p64334ca08e)" style="fill: none; stroke: #4d59c1; stroke-width: 0.2"/>
    <path d="M 58.284816 91.109703 
L 56.785682 92.771835 
L 55.535795 94.270957 
L 54.616411 96.01947 
L 54.238432 97.40574 
L 53.826673 100.165742 
L 53.640422 113.419603 
L 52.171417 141.971204 
L 51.411807 149.514188 
L 48.647265 165.702205 
L 48.909294 170.341684 
L 49.627819 172.661423 
L 51.131518 177.401214 
L 52.28828 182.037906 
L 54.305994 197.402521 
L 55.305721 209.218562 
L 53.926789 225.944198 
" clip-path="url(#p64334ca08e)" style="fill: none; stroke: #4d59c1; stroke-width: 0.2"/>
    <path d="M 189.726545 126.532748 
L 193.113748 133.250935 
L 195.538656 136.233855 
L 205.050214 139.778249 
" clip-path="url(#p64334ca08e)" style="fill: none; stroke: #4d59c1; stroke-width: 0.2"/>
    <path d="M 205.083081 118.560647 
L 213.431486 132.605866 
" clip-path="url(#p64334ca08e)" style="fill: none; stroke: #4d59c1; stroke-width: 0.2"/>
    <path d="M 232.558683 104.475023 
L 230.450583 99.889881 
L 227.144636 94.184577 
" clip-path="url(#p64334ca08e)" style="fill: none; stroke: #4d59c1; stroke-width: 0.2"/>
    <path d="M 468.257784 70.360228 
L 467.131151 70.360228 
L 464.289918 72.391568 
L 462.820913 73.249801 
L 461.731712 73.347328 
L 452.213764 71.498503 
L 434.360192 69.393322 
L 428.02311 68.646547 
L 419.501236 67.616945 
L 408.015788 67.176682 
L 403.43713 67.348051 
L 393.734757 67.972221 
L 385.559821 68.107365 
L 377.646 67.800852 
L 365.553412 66.34492 
L 353.323875 66.346313 
L 350.419646 65.928342 
L 344.713442 64.434792 
L 335.208275 62.071863 
L 333.007963 61.691509 
L 330.142992 61.570298 
L 322.37525 62.560889 
L 318.658457 63.89561 
L 316.233548 65.780659 
L 311.257738 69.832192 
L 291.466796 87.598747 
L 285.990666 91.662818 
L 281.940631 93.232996 
L 276.391461 93.84184 
L 270.734558 93.744314 
L 261.25313 95.935875 
L 241.001126 101.908681 
L 232.558683 104.475023 
L 225.206353 106.709775 
L 218.839142 109.843165 
L 206.300101 117.788794 
L 205.083081 118.560647 
L 193.665195 125.172948 
L 189.726545 126.532748 
L 187.474192 126.776564 
L 185.142409 126.59405 
L 179.147699 125.308092 
L 159.724693 119.785302 
L 117.946148 110.53003 
L 96.769283 103.22111 
L 90.909696 100.936202 
L 80.39202 96.834513 
L 69.591317 91.795176 
L 64.374477 89.058859 
L 63.092635 88.795537 
L 61.895702 88.849873 
L 60.855803 89.219081 
L 59.718214 89.925452 
L 58.284816 91.109703 
" clip-path="url(#p64334ca08e)" style="fill: none; stroke: #4d59c1; stroke-width: 0.2"/>
    <path d="M 241.001126 101.908681 
L 240.22143 98.298805 
L 243.380385 84.218754 
" clip-path="url(#p64334ca08e)" style="fill: none; stroke: #4d59c1; stroke-width: 0.2"/>
    <path d="M 88.160675 131.958011 
L 83.624014 143.241836 
L 78.590686 159.712681 
L 75.534899 165.365042 
" clip-path="url(#p64334ca08e)" style="fill: none; stroke: #4d59c1; stroke-width: 0.2"/>
    <path d="M 51.411807 149.514188 
L 54.368077 148.593258 
L 57.276872 148.593258 
L 59.95194 146.614862 
L 67.687727 138.1816 
L 70.072464 134.110562 
L 75.481946 126.199764 
L 75.888228 124.164245 
L 73.736304 122.535551 
L 67.338964 120.151723 
L 62.162296 118.640061 
L 53.640422 113.419603 
" clip-path="url(#p64334ca08e)" style="fill: none; stroke: #4d59c1; stroke-width: 0.2"/>
    <path d="M 64.374477 89.058859 
L 64.851152 88.494396 
" clip-path="url(#p64334ca08e)" style="fill: none; stroke: #4d59c1; stroke-width: 0.2"/>
    <path d="M 270.734558 93.744314 
L 271.003891 92.813632 
L 270.734558 87.328459 
L 268.114269 77.4114 
L 265.322338 68.792837 
L 263.877071 63.969451 
" clip-path="url(#p64334ca08e)" style="fill: none; stroke: #4d59c1; stroke-width: 0.2"/>
    <path d="M 90.909696 100.936202 
L 92.276446 96.823367 
L 91.973748 92.176532 
" clip-path="url(#p64334ca08e)" style="fill: none; stroke: #4d59c1; stroke-width: 0.2"/>
    <path d="M 316.233548 65.780659 
L 310.380352 49.348825 
L 307.564683 41.810021 
L 303.837847 35.622657 
L 302.030121 27.022206 
L 301.809925 25.170605 
" clip-path="url(#p64334ca08e)" style="fill: none; stroke: #4d59c1; stroke-width: 0.2"/>
   </g>
  </g>
 </g>
 <defs>
  <clipPath id="p64334ca08e">
   <rect x="7.2" y="7.2" width="837" height="377.88189"/>
  </clipPath>
 </defs>
</svg>
