<?xml version="1.0" encoding="utf-8" standalone="no"?>
<!DOCTYPE svg PUBLIC "-//W3C//DTD SVG 1.1//EN"
  "http://www.w3.org/Graphics/SVG/1.1/DTD/svg11.dtd">
<svg xmlns:xlink="http://www.w3.org/1999/xlink" width="572.617677pt" height="846pt" viewBox="0 0 572.617677 846" xmlns="http://www.w3.org/2000/svg" version="1.1">
 <metadata>
  <rdf:RDF xmlns:dc="http://purl.org/dc/elements/1.1/" xmlns:cc="http://creativecommons.org/ns#" xmlns:rdf="http://www.w3.org/1999/02/22-rdf-syntax-ns#">
   <cc:Work>
    <dc:type rdf:resource="http://purl.org/dc/dcmitype/StillImage"/>
    <dc:date>2025-03-16T14:38:36.753299</dc:date>
    <dc:format>image/svg+xml</dc:format>
    <dc:creator>
     <cc:Agent>
      <dc:title>Matplotlib v3.10.1, https://matplotlib.org/</dc:title>
     </cc:Agent>
    </dc:creator>
   </cc:Work>
  </rdf:RDF>
 </metadata>
 <defs>
  <style type="text/css">*{stroke-linejoin: round; stroke-linecap: butt}</style>
 </defs>
 <g id="figure_1">
  <g id="patch_1">
   <path d="M 0 846 
L 572.617677 846 
L 572.617677 0 
L 0 0 
z
" style="fill: #ffffff"/>
  </g>
  <g id="axes_1">
   <g id="PatchCollection_1">
    <path d="M 395.831731 572.556522 
L 403.358703 538.70087 
L 403.358703 504.845217 
L 363.97846 499.257391 
L 302.235474 423 
L 255.437346 191.762609 
L 326.561774 169.082609 
L 399.649761 222.66 
L 408.922117 267.855652 
L 470.774189 267.855652 
L 472.62866 225.618261 
L 397.686203 188.804348 
L 347.179132 45 
L 302.235474 59.133913 
L 328.450062 122.784183 
L 335.943217 140.97913 
L 176.785946 174.834783 
L 156.168588 217.072174 
L 32.573531 236.793913 
L 34.428002 273.443478 
L 150.605174 265.061739 
L 92.462045 414.618261 
L 184.203831 425.793913 
L 186.167389 462.443478 
L 135.551231 465.401739 
L 116.897431 507.63913 
L 53.190888 513.226957 
L 34.428002 561.216522 
L 103.697959 764.350435 
L 234.819988 772.896522 
L 247.910374 801 
L 485.719046 772.896522 
L 495.100489 730.494783 
L 525.863986 695.733574 
L 540.044146 679.711304 
L 513.863375 643.061739 
L 452.011303 724.906957 
L 326.561774 739.04087 
L 326.561774 682.505217 
L 229.147488 685.463478 
L 156.168588 550.04087 
L 240.383402 521.773043 
L 328.416246 541.494783 
L 332.234275 575.350435 
L 395.831731 572.556522 
" clip-path="url(#p83c86fe5b2)" style="fill: #f29888"/>
   </g>
   <g id="PatchCollection_2">
    <path d="M 233.764031 452.567817 
L 234.630178 452.556313 
L 234.65854 454.834174 
L 232.303362 454.863757 
L 232.274999 452.585896 
L 233.764031 452.567817 
" clip-path="url(#p83c86fe5b2)" style="fill: #f29888"/>
    <path d="M 229.029675 452.470852 
L 229.18785 452.26213 
L 229.40166 452.115861 
L 229.652559 452.043548 
L 229.928548 452.056696 
L 230.184901 452.160235 
L 230.391075 452.344304 
L 230.523069 452.587539 
L 230.567795 452.860357 
L 230.518706 453.133174 
L 230.382348 453.373122 
L 230.172902 453.553904 
L 229.915457 453.654157 
L 229.638377 453.662374 
L 229.38966 453.586774 
L 229.178032 453.435574 
L 229.02422 453.225209 
L 228.943496 452.977043 
L 228.945678 452.717374 
L 229.029675 452.470852 
" clip-path="url(#p83c86fe5b2)" style="fill: #f29888"/>
    <path d="M 225.655628 446.866591 
L 226.789037 446.879739 
L 227.0203 447.182139 
L 227.109751 447.520696 
L 227.0203 447.859252 
L 226.647224 448.107417 
L 225.641446 448.095913 
L 225.655628 446.866591 
" clip-path="url(#p83c86fe5b2)" style="fill: #f29888"/>
    <path d="M 233.507677 442.713522 
L 233.551312 443.732478 
L 235.94358 443.630583 
L 235.997032 444.868122 
L 231.120864 445.0752 
L 231.145954 445.656991 
L 230.121631 445.701365 
L 230.100904 445.206678 
L 229.86855 445.103139 
L 229.772554 442.874583 
L 233.507677 442.713522 
" clip-path="url(#p83c86fe5b2)" style="fill: #f29888"/>
    <path d="M 290.739934 417.900287 
L 292.158059 417.495991 
L 293.103839 420.332635 
L 291.887524 420.738574 
L 292.36096 422.156896 
L 294.117253 421.750957 
L 295.73828 423.305687 
L 290.941744 424.589243 
L 288.916007 417.090052 
L 288.307304 414.928878 
L 290.334132 414.388174 
L 290.941744 415.873878 
L 290.739934 417.900287 
" clip-path="url(#p83c86fe5b2)" style="fill: #f29888"/>
    <path d="M 294.254703 413.329774 
L 298.373811 412.361765 
L 299.589035 417.2922 
L 298.710888 417.96767 
L 297.089862 414.253409 
L 294.04962 415.063643 
L 293.644909 413.44153 
L 294.254703 413.329774 
" clip-path="url(#p83c86fe5b2)" style="fill: #f29888"/>
   </g>
   <g id="LineCollection_1">
    <path d="M 302.815815 752.959487 
L 308.084695 758.193965 
" clip-path="url(#p83c86fe5b2)" style="fill: none; stroke: #f29888; stroke-width: 0.2"/>
    <path d="M 238.524568 750.22967 
L 240.007054 751.970113 
L 253.046169 760.333774 
L 258.968477 760.881052 
L 280.466163 759.337826 
L 300.97007 758.940104 
L 301.716222 758.193965 
L 302.815815 752.959487 
" clip-path="url(#p83c86fe5b2)" style="fill: none; stroke: #f29888; stroke-width: 0.2"/>
    <path d="M 308.084695 758.193965 
L 311.549284 759.671452 
L 317.588315 760.411017 
L 325.30837 760.18093 
L 357.02092 755.689304 
L 401.052614 752.065435 
L 409.25374 751.66607 
L 431.986286 752.781991 
L 443.571277 752.183765 
L 450.220102 751.427765 
L 455.674429 749.794148 
L 464.432988 746.130835 
L 467.060883 744.577748 
L 467.575771 743.894061 
L 468.892446 742.147043 
" clip-path="url(#p83c86fe5b2)" style="fill: none; stroke: #f29888; stroke-width: 0.2"/>
    <path d="M 302.815815 752.959487 
L 299.0916 754.545443 
L 292.63804 755.945687 
L 268.43719 754.767313 
L 255.009726 753.186287 
L 238.524568 750.22967 
L 232.99497 745.69367 
" clip-path="url(#p83c86fe5b2)" style="fill: none; stroke: #f29888; stroke-width: 0.2"/>
    <path d="M 210.745678 751.17467 
L 213.094312 750.482765 
L 219.543508 749.130183 
L 225.675263 749.130183 
L 231.646661 747.057757 
L 232.99497 745.69367 
" clip-path="url(#p83c86fe5b2)" style="fill: none; stroke: #f29888; stroke-width: 0.2"/>
    <path d="M 239.885968 716.572878 
L 239.176905 721.289661 
L 240.132503 729.812739 
L 242.521499 733.517139 
L 245.029398 735.269087 
L 262.227983 738.615209 
L 285.599776 739.621017 
L 292.76458 739.928348 
L 297.342943 738.934043 
L 299.850842 739.292322 
L 301.482777 741.721383 
L 302.238747 744.628696 
L 302.815815 752.959487 
" clip-path="url(#p83c86fe5b2)" style="fill: none; stroke: #f29888; stroke-width: 0.2"/>
    <path d="M 285.599776 739.621017 
L 284.865623 721.000409 
" clip-path="url(#p83c86fe5b2)" style="fill: none; stroke: #f29888; stroke-width: 0.2"/>
    <path d="M 176.372508 708.312757 
L 185.204154 713.550522 
L 199.042874 711.38113 
L 208.177781 707.745757 
L 211.317292 708.171417 
L 215.573849 709.182157 
L 222.703746 710.194539 
L 236.166116 715.251522 
L 239.885968 716.572878 
L 242.604404 717.539243 
L 255.003181 720.67993 
L 261.547283 722.755643 
L 267.241601 723.235539 
L 279.001131 721.744904 
L 284.865623 721.000409 
" clip-path="url(#p83c86fe5b2)" style="fill: none; stroke: #f29888; stroke-width: 0.2"/>
    <path d="M 474.147145 744.738809 
L 473.097732 743.401017 
" clip-path="url(#p83c86fe5b2)" style="fill: none; stroke: #f29888; stroke-width: 0.2"/>
    <path d="M 473.097732 743.401017 
L 472.335217 742.428078 
L 470.186213 743.5818 
L 467.575771 743.894061 
" clip-path="url(#p83c86fe5b2)" style="fill: none; stroke: #f29888; stroke-width: 0.2"/>
    <path d="M 491.901522 744.953298 
L 481.093776 746.807948 
L 474.64458 745.374835 
L 474.147145 744.738809 
" clip-path="url(#p83c86fe5b2)" style="fill: none; stroke: #f29888; stroke-width: 0.2"/>
    <path d="M 513.83174 685.631113 
L 511.308568 685.095339 
L 508.680673 685.501278 
L 505.812788 685.945017 
L 503.633239 687.166122 
L 496.660427 691.074313 
L 474.812573 713.782252 
L 469.588418 723.383452 
L 469.102983 729.582652 
L 469.588418 737.361235 
L 468.892446 742.147043 
" clip-path="url(#p83c86fe5b2)" style="fill: none; stroke: #f29888; stroke-width: 0.2"/>
    <path d="M 525.863986 695.733574 
L 521.994686 689.590252 
L 517.174152 686.712522 
" clip-path="url(#p83c86fe5b2)" style="fill: none; stroke: #f29888; stroke-width: 0.2"/>
    <path d="M 513.83174 685.631113 
L 517.174152 686.712522 
" clip-path="url(#p83c86fe5b2)" style="fill: none; stroke: #f29888; stroke-width: 0.2"/>
    <path d="M 516.407273 657.595017 
L 510.745681 667.985087 
L 508.272689 672.52273 
L 507.103282 676.15153 
L 506.634209 680.717113 
L 508.680673 685.501278 
L 512.36998 683.82 
L 516.641809 681.946435 
L 518.630457 679.546957 
L 516.231644 673.517035 
L 514.184089 666.668661 
L 515.295681 661.634687 
L 516.407273 657.595017 
" clip-path="url(#p83c86fe5b2)" style="fill: none; stroke: #f29888; stroke-width: 0.2"/>
    <path d="M 516.407273 657.595017 
L 517.986846 651.157513 
L 513.241871 643.884139 
" clip-path="url(#p83c86fe5b2)" style="fill: none; stroke: #f29888; stroke-width: 0.2"/>
    <path d="M 517.986846 651.157513 
L 519.791441 651.360236 
" clip-path="url(#p83c86fe5b2)" style="fill: none; stroke: #f29888; stroke-width: 0.2"/>
    <path d="M 510.745681 667.985087 
L 501.953306 669.127304 
L 493.884569 669.498521 
" clip-path="url(#p83c86fe5b2)" style="fill: none; stroke: #f29888; stroke-width: 0.2"/>
    <path d="M 198.028696 627.718185 
L 194.847405 628.065 
L 190.283224 630.406957 
L 185.367784 632.397209 
L 182.528261 630.591026 
" clip-path="url(#p83c86fe5b2)" style="fill: none; stroke: #f29888; stroke-width: 0.2"/>
    <path d="M 331.790292 564.023583 
L 333.888027 569.154522 
L 334.472731 572.081557 
L 335.116341 574.305183 
L 335.175409 575.221227 
" clip-path="url(#p83c86fe5b2)" style="fill: none; stroke: #f29888; stroke-width: 0.2"/>
    <path d="M 488.026925 677.249597 
L 492.355871 679.224835 
L 495.16485 681.800165 
L 497.037866 684.60887 
L 498.090551 685.545652 
L 503.633239 687.166122 
" clip-path="url(#p83c86fe5b2)" style="fill: none; stroke: #f29888; stroke-width: 0.2"/>
    <path d="M 397.543443 564.857393 
L 393.635819 567.312183 
L 387.315345 571.526061 
L 383.335867 571.291043 
L 379.35639 569.652496 
L 373.856247 568.599026 
L 369.876769 568.715713 
L 362.269074 568.715713 
L 357.58817 570.120887 
L 347.171495 572.929591 
L 338.159856 574.42187 
L 335.116341 574.305183 
" clip-path="url(#p83c86fe5b2)" style="fill: none; stroke: #f29888; stroke-width: 0.2"/>
    <path d="M 271.447978 525.991852 
L 279.582562 527.747087 
L 286.312111 528.976409 
L 290.935199 529.913191 
L 297.899284 531.083348 
L 304.628833 532.605209 
L 311.943086 534.067904 
L 318.146838 535.121374 
L 322.318308 535.736035 
L 328.211163 536.7024 
L 336.111211 537.287478 
L 344.30361 537.228313 
L 354.954821 537.696704 
L 364.083183 538.633487 
L 368.940807 539.1594 
" clip-path="url(#p83c86fe5b2)" style="fill: none; stroke: #f29888; stroke-width: 0.2"/>
    <path d="M 199.042874 711.38113 
L 203.977949 725.137043 
L 210.745678 751.17467 
L 211.59219 762.872948 
" clip-path="url(#p83c86fe5b2)" style="fill: none; stroke: #f29888; stroke-width: 0.2"/>
    <path d="M 132.301543 742.168409 
L 135.33633 740.230748 
L 143.749085 735.269087 
L 148.892516 733.188443 
L 155.684244 731.388835 
L 157.779797 730.05433 
L 158.609945 728.637652 
L 158.967749 726.900496 
L 158.815028 724.744252 
L 156.999828 719.222165 
L 155.35153 714.191478 
" clip-path="url(#p83c86fe5b2)" style="fill: none; stroke: #f29888; stroke-width: 0.2"/>
    <path d="M 155.35153 714.191478 
L 176.372508 708.312757 
" clip-path="url(#p83c86fe5b2)" style="fill: none; stroke: #f29888; stroke-width: 0.2"/>
    <path d="M 155.35153 714.191478 
L 153.627963 704.524539 
L 153.126164 694.734339 
L 154.002129 685.087122 
L 143.600727 675.867209 
L 140.985923 672.627913 
L 138.494386 668.703287 
" clip-path="url(#p83c86fe5b2)" style="fill: none; stroke: #f29888; stroke-width: 0.2"/>
    <path d="M 154.002129 685.087122 
L 157.275817 690.584557 
L 153.126164 694.734339 
" clip-path="url(#p83c86fe5b2)" style="fill: none; stroke: #f29888; stroke-width: 0.2"/>
    <path d="M 157.275817 690.584557 
L 160.112067 690.385696 
L 164.093726 689.887722 
L 166.730348 688.84247 
L 169.860041 687.683817 
" clip-path="url(#p83c86fe5b2)" style="fill: none; stroke: #f29888; stroke-width: 0.2"/>
    <path d="M 174.95111 637.196165 
L 181.622843 631.460426 
L 182.528261 630.591026 
L 186.011395 627.246548 
L 186.655005 621.451643 
L 188.839308 610.665982 
" clip-path="url(#p83c86fe5b2)" style="fill: none; stroke: #f29888; stroke-width: 0.2"/>
    <path d="M 168.272061 572.500565 
L 165.412582 570.443009 
L 160.672772 564.122191 
L 157.10346 558.443974 
L 154.527927 552.650713 
L 153.358519 547.792591 
L 154.294481 543.286174 
L 155.46498 538.487217 
L 154.703556 535.502661 
L 152.831631 532.984852 
L 151.602225 531.757174 
" clip-path="url(#p83c86fe5b2)" style="fill: none; stroke: #f29888; stroke-width: 0.2"/>
    <path d="M 77.41166 687.265953 
L 85.695406 696.851139 
L 99.120688 712.054957 
L 115.456398 730.557235 
L 117.587949 732.471887 
L 120.866 734.66593 
L 123.469896 736.509913 
L 132.301543 742.168409 
L 133.70985 744.032113 
L 134.872713 746.323122 
L 135.758495 748.716026 
L 136.314837 751.998052 
L 136.517738 753.74507 
L 136.410833 757.544791 
L 135.710216 766.436885 
" clip-path="url(#p83c86fe5b2)" style="fill: none; stroke: #f29888; stroke-width: 0.2"/>
    <path d="M 185.50213 450.026502 
L 237.601695 448.886426 
" clip-path="url(#p83c86fe5b2)" style="fill: none; stroke: #f29888; stroke-width: 0.2"/>
    <path d="M 286.475741 426.554843 
L 276.599045 425.719957 
L 249.894658 427.519565 
L 244.358516 426.275452 
L 234.585452 426.17027 
L 225.736352 426.265591 
L 184.318667 427.937321 
" clip-path="url(#p83c86fe5b2)" style="fill: none; stroke: #f29888; stroke-width: 0.2"/>
    <path d="M 251.913725 158.853735 
L 254.539563 170.119643 
L 259.298005 190.53153 
" clip-path="url(#p83c86fe5b2)" style="fill: none; stroke: #f29888; stroke-width: 0.2"/>
    <path d="M 279.496616 310.643491 
L 282.582442 328.6134 
L 292.060972 383.819478 
L 292.290054 389.69327 
L 284.202377 399.00193 
L 283.210781 401.672583 
L 285.804859 411.134087 
L 285.118704 414.642913 
L 283.973296 416.473748 
L 286.475741 426.554843 
L 288.810193 435.96047 
L 289.238903 437.684478 
L 292.110061 443.361052 
L 295.438292 449.938252 
L 298.513441 468.295904 
L 296.975321 472.274765 
L 292.815851 475.982452 
L 275.002018 485.47847 
L 271.836326 488.643809 
L 271.022541 491.628365 
L 272.198494 497.868652 
L 275.091469 501.937904 
L 282.235547 507.6342 
L 304.119399 518.849296 
L 314.880787 525.541539 
L 319.040257 529.158835 
L 321.843781 534.133643 
L 322.318308 535.736035 
L 323.71221 540.440951 
" clip-path="url(#p83c86fe5b2)" style="fill: none; stroke: #f29888; stroke-width: 0.2"/>
    <path d="M 330.588498 560.756818 
L 331.790292 564.023583 
L 331.6103 566.917748 
L 331.348567 567.496587 
" clip-path="url(#p83c86fe5b2)" style="fill: none; stroke: #f29888; stroke-width: 0.2"/>
    <path d="M 189.582755 538.824958 
L 171.345799 530.618243 
L 149.803388 523.437887 
L 132.139004 520.132852 
L 122.372485 519.416296 
L 110.595502 516.39887 
L 100.399182 515.825296 
L 98.675615 518.698096 
L 99.086871 528.836713 
L 99.537398 539.954843 
L 105.856782 544.839261 
L 113.46775 557.909843 
L 117.489771 566.958835 
L 136.446831 591.090026 
L 144.058891 615.367487 
L 147.504935 628.007478 
L 148.510713 635.334104 
L 161.723275 661.910791 
L 169.860041 687.683817 
L 176.372508 708.312757 
" clip-path="url(#p83c86fe5b2)" style="fill: none; stroke: #f29888; stroke-width: 0.2"/>
    <path d="M 177.579005 257.616783 
L 173.847154 256.272417 
L 147.023863 257.616783 
L 141.847706 257.366974 
L 136.573372 256.173809 
L 123.733885 260.601339 
L 106.116408 262.642539 
L 103.316156 261.907904 
" clip-path="url(#p83c86fe5b2)" style="fill: none; stroke: #f29888; stroke-width: 0.2"/>
    <path d="M 208.71885 253.601765 
L 206.494576 249.798757 
L 202.749635 245.936583 
L 201.170061 243.011191 
L 199.180323 237.687965 
L 196.371344 230.491174 
L 194.381606 227.215722 
L 192.976571 226.454791 
L 187.827686 226.103087 
L 185.486689 225.3438 
L 182.853339 222.944322 
L 178.58151 218.732087 
L 176.358326 218.382026 
L 169.803316 218.439548 
L 159.153196 217.269391 
L 156.503183 216.386712 
" clip-path="url(#p83c86fe5b2)" style="fill: none; stroke: #f29888; stroke-width: 0.2"/>
    <path d="M 171.495738 185.672475 
L 184.667449 180.149791 
L 211.472195 167.456385 
" clip-path="url(#p83c86fe5b2)" style="fill: none; stroke: #f29888; stroke-width: 0.2"/>
    <path d="M 237.601695 448.886426 
L 245.341386 448.365443 
L 266.772529 447.770504 
L 281.207952 446.802496 
L 286.268476 446.876452 
L 289.467985 446.654583 
L 291.031195 445.537017 
L 292.110061 443.361052 
" clip-path="url(#p83c86fe5b2)" style="fill: none; stroke: #f29888; stroke-width: 0.2"/>
    <path d="M 234.585452 426.17027 
L 237.601695 448.886426 
" clip-path="url(#p83c86fe5b2)" style="fill: none; stroke: #f29888; stroke-width: 0.2"/>
    <path d="M 288.810193 435.96047 
L 296.087357 436.042643 
L 302.699092 434.052391 
L 307.146551 432.297157 
L 309.036042 431.39923 
" clip-path="url(#p83c86fe5b2)" style="fill: none; stroke: #f29888; stroke-width: 0.2"/>
    <path d="M 219.830406 379.140496 
L 222.786651 386.662696 
L 226.99521 397.499791 
L 229.234757 406.90213 
L 235.325059 425.619704 
L 234.585452 426.17027 
" clip-path="url(#p83c86fe5b2)" style="fill: none; stroke: #f29888; stroke-width: 0.2"/>
    <path d="M 212.484518 367.016557 
L 219.830406 379.140496 
" clip-path="url(#p83c86fe5b2)" style="fill: none; stroke: #f29888; stroke-width: 0.2"/>
    <path d="M 269.748438 262.476113 
L 261.433833 263.914591 
L 243.744359 266.343652 
L 209.919893 272.952078 
L 205.157175 273.146009 
L 202.338378 266.440617 
L 197.866921 262.262896 
L 191.16028 258.473035 
L 179.886185 258.37607 
L 177.579005 257.616783 
" clip-path="url(#p83c86fe5b2)" style="fill: none; stroke: #f29888; stroke-width: 0.2"/>
    <path d="M 433.298101 206.297947 
L 432.865523 208.10207 
L 432.923339 212.606843 
L 434.152744 216.11567 
L 436.727187 223.838374 
L 438.775832 227.11547 
L 442.286237 233.023774 
L 444.393789 236.241704 
" clip-path="url(#p83c86fe5b2)" style="fill: none; stroke: #f29888; stroke-width: 0.2"/>
    <path d="M 348.049079 184.833949 
L 356.17659 183.735861 
L 371.976685 181.863939 
L 382.158824 180.575452 
L 386.957541 180.342078 
L 390.351223 180.225391 
L 393.772177 180.422609 
L 394.762307 180.479395 
" clip-path="url(#p83c86fe5b2)" style="fill: none; stroke: #f29888; stroke-width: 0.2"/>
    <path d="M 254.539563 170.119643 
L 244.239612 170.321791 
" clip-path="url(#p83c86fe5b2)" style="fill: none; stroke: #f29888; stroke-width: 0.2"/>
    <path d="M 355.254809 120.207209 
L 357.028556 123.836009 
L 357.517264 126.018548 
L 360.774588 140.566617 
L 366.041286 159.052461 
L 366.274732 161.976209 
L 371.54143 166.890209 
L 380.904328 172.624304 
L 389.331264 177.1866 
L 393.772177 180.422609 
" clip-path="url(#p83c86fe5b2)" style="fill: none; stroke: #f29888; stroke-width: 0.2"/>
    <path d="M 357.517264 126.018548 
L 362.997772 130.534826 
L 366.158009 133.575261 
L 374.233686 138.489261 
L 381.517323 142.768115 
" clip-path="url(#p83c86fe5b2)" style="fill: none; stroke: #f29888; stroke-width: 0.2"/>
    <path d="M 333.031133 133.907981 
L 334.684358 133.218626 
L 336.927178 133.098652 
L 340.57285 131.657322 
L 342.335689 131.537348 
L 344.780318 132.418252 
L 346.502795 131.89727 
L 350.067743 130.135461 
L 353.272706 126.891235 
L 355.116269 121.405304 
L 355.254809 120.207209 
L 355.556978 117.600652 
L 354.594835 111.953661 
L 352.110934 100.621878 
L 349.787391 93.372496 
L 349.267048 88.608052 
L 346.582428 77.034678 
L 344.659232 69.946357 
L 343.978532 66.222235 
L 342.335689 62.177635 
L 338.09004 50.564817 
L 337.576058 48.019981 
" clip-path="url(#p83c86fe5b2)" style="fill: none; stroke: #f29888; stroke-width: 0.2"/>
    <path d="M 132.301543 742.168409 
L 122.375758 737.832913 
L 113.448115 737.487783 
L 106.733838 736.033304 
L 98.567619 736.449104 
L 95.521923 739.07867 
L 95.252698 739.584736 
" clip-path="url(#p83c86fe5b2)" style="fill: none; stroke: #f29888; stroke-width: 0.2"/>
    <path d="M 39.923338 547.16118 
L 58.864479 545.785904 
" clip-path="url(#p83c86fe5b2)" style="fill: none; stroke: #f29888; stroke-width: 0.2"/>
    <path d="M 99.537398 539.954843 
L 89.197085 543.067591 
L 83.832208 544.290339 
L 58.864479 545.785904 
" clip-path="url(#p83c86fe5b2)" style="fill: none; stroke: #f29888; stroke-width: 0.2"/>
    <path d="M 117.732144 417.696573 
L 116.32909 417.357939 
L 114.351905 417.284804 
" clip-path="url(#p83c86fe5b2)" style="fill: none; stroke: #f29888; stroke-width: 0.2"/>
    <path d="M 104.361379 416.067795 
L 93.872534 413.190078 
L 93.028207 413.161972 
" clip-path="url(#p83c86fe5b2)" style="fill: none; stroke: #f29888; stroke-width: 0.2"/>
    <path d="M 116.456518 352.899362 
L 121.657968 353.383904 
L 122.779378 353.489087 
L 128.63078 355.010948 
L 130.152538 356.416122 
L 132.961516 360.394983 
L 137.174439 361.9152 
L 143.143655 361.565139 
L 149.697574 362.618609 
L 154.145033 363.437061 
L 161.166934 362.735296 
L 169.009166 364.607217 
L 179.07349 366.245765 
L 183.872208 365.308983 
L 191.479903 366.012391 
L 212.484518 367.016557 
L 213.48266 367.064217 
L 218.164654 367.064217 
L 224.952019 367.767626 
L 226.708313 366.59747 
L 227.878811 362.851983 
L 230.101995 351.617165 
L 229.750737 346.351461 
L 229.166033 336.053426 
L 231.037958 334.063174 
L 236.655915 334.999957 
L 242.741853 335.23333 
L 249.530309 335.468348 
L 256.318765 334.999957 
L 262.053445 332.542957 
L 269.661141 332.42627 
L 276.331783 332.542957 
L 279.608743 330.436017 
L 282.582442 328.6134 
" clip-path="url(#p83c86fe5b2)" style="fill: none; stroke: #f29888; stroke-width: 0.2"/>
    <path d="M 40.631754 267.972339 
L 38.530325 273.147511 
" clip-path="url(#p83c86fe5b2)" style="fill: none; stroke: #f29888; stroke-width: 0.2"/>
    <path d="M 132.582986 656.262157 
L 126.416323 657.973017 
L 121.556518 658.653417 
L 117.76576 657.486548 
L 113.39139 652.140313 
L 107.462536 647.5698 
L 93.85508 641.64013 
L 89.773062 637.071261 
L 87.148439 631.333878 
L 85.10743 623.75087 
L 79.37275 612.57193 
L 73.929332 591.573209 
L 62.168711 559.296939 
L 58.572127 547.63153 
L 58.864479 545.785904 
" clip-path="url(#p83c86fe5b2)" style="fill: none; stroke: #f29888; stroke-width: 0.2"/>
    <path d="M 136.446831 591.090026 
L 132.493535 592.2306 
L 125.495633 592.812391 
L 107.475626 591.277383 
L 73.929332 591.573209 
" clip-path="url(#p83c86fe5b2)" style="fill: none; stroke: #f29888; stroke-width: 0.2"/>
    <path d="M 72.677001 511.517791 
L 73.176634 514.717591 
L 75.229643 518.262574 
L 78.090983 520.067113 
L 80.703606 524.484783 
L 82.943153 529.523687 
L 86.799362 534.562591 
L 88.790192 538.109217 
L 88.91455 542.028913 
L 89.197085 543.067591 
L 90.470125 547.753148 
L 95.75755 562.496791 
L 105.834965 586.13987 
L 107.475626 591.277383 
L 108.19887 593.543739 
L 110.438417 604.7424 
L 113.361936 615.692896 
L 117.778851 626.768296 
L 122.505571 637.035104 
L 128.788956 647.487626 
L 132.582986 656.262157 
L 138.494386 668.703287 
" clip-path="url(#p83c86fe5b2)" style="fill: none; stroke: #f29888; stroke-width: 0.2"/>
    <path d="M 78.090983 520.067113 
L 80.585793 521.370391 
L 83.386044 524.045974 
L 88.299302 530.889417 
L 90.849746 532.817217 
L 93.33801 533.440096 
L 95.391019 532.693957 
L 99.086871 528.836713 
" clip-path="url(#p83c86fe5b2)" style="fill: none; stroke: #f29888; stroke-width: 0.2"/>
    <path d="M 135.848616 303.018751 
L 144.506146 301.760609 
L 153.814501 300.707139 
L 157.853975 300.531287 
L 159.083381 303.867548 
L 159.25901 305.09687 
L 157.853975 311.595183 
L 153.99013 320.374643 
L 146.613698 327.750574 
L 147.140586 330.910983 
L 140.466671 333.545478 
L 135.37342 336.530035 
L 132.212092 339.340383 
L 125.538177 341.447322 
L 120.538457 342.399744 
" clip-path="url(#p83c86fe5b2)" style="fill: none; stroke: #f29888; stroke-width: 0.2"/>
    <path d="M 119.111512 346.070151 
L 119.61805 347.786217 
L 121.674331 349.526661 
L 121.657968 353.383904 
" clip-path="url(#p83c86fe5b2)" style="fill: none; stroke: #f29888; stroke-width: 0.2"/>
    <path d="M 38.621289 268.118609 
L 40.631754 267.972339 
L 52.715271 267.282078 
L 62.031262 265.770078 
L 103.316156 261.907904 
" clip-path="url(#p83c86fe5b2)" style="fill: none; stroke: #f29888; stroke-width: 0.2"/>
   </g>
   <g id="LineCollection_2">
    <path d="M 393.542609 177.006656 
L 385.849221 179.14727 
L 353.078532 182.306035 
L 345.55519 183.005795 
" clip-path="url(#p83c86fe5b2)" style="fill: none; stroke-dasharray: 3.7,1.6; stroke-dashoffset: 0; stroke: #f29888"/>
    <path d="M 300.719178 177.323238 
L 295.575741 174.949826 
L 286.446288 167.93053 
L 281.179589 162.079748 
L 277.552461 157.284078 
L 275.762849 153.780592 
" clip-path="url(#p83c86fe5b2)" style="fill: none; stroke-dasharray: 3.7,1.6; stroke-dashoffset: 0; stroke: #f29888"/>
   </g>
  </g>
 </g>
 <defs>
  <clipPath id="p83c86fe5b2">
   <rect x="7.2" y="7.2" width="558.217677" height="831.6"/>
  </clipPath>
 </defs>
</svg>
