<?xml version="1.0" encoding="utf-8" standalone="no"?>
<!DOCTYPE svg PUBLIC "-//W3C//DTD SVG 1.1//EN"
  "http://www.w3.org/Graphics/SVG/1.1/DTD/svg11.dtd">
<svg xmlns:xlink="http://www.w3.org/1999/xlink" width="821.980088pt" height="846pt" viewBox="0 0 821.980088 846" xmlns="http://www.w3.org/2000/svg" version="1.1">
 <metadata>
  <rdf:RDF xmlns:dc="http://purl.org/dc/elements/1.1/" xmlns:cc="http://creativecommons.org/ns#" xmlns:rdf="http://www.w3.org/1999/02/22-rdf-syntax-ns#">
   <cc:Work>
    <dc:type rdf:resource="http://purl.org/dc/dcmitype/StillImage"/>
    <dc:date>2025-03-16T14:29:53.202842</dc:date>
    <dc:format>image/svg+xml</dc:format>
    <dc:creator>
     <cc:Agent>
      <dc:title>Matplotlib v3.10.1, https://matplotlib.org/</dc:title>
     </cc:Agent>
    </dc:creator>
   </cc:Work>
  </rdf:RDF>
 </metadata>
 <defs>
  <style type="text/css">*{stroke-linejoin: round; stroke-linecap: butt}</style>
 </defs>
 <g id="figure_1">
  <g id="patch_1">
   <path d="M 0 846 
L 821.980088 846 
L 821.980088 0 
L 0 0 
z
" style="fill: #ffffff"/>
  </g>
  <g id="axes_1">
   <g id="PatchCollection_1">
    <path d="M 431.206039 798.233741 
L 444.485527 801 
L 446.342718 798.241759 
L 454.386143 783.760992 
L 458.417542 778.466344 
L 467.990573 762.082605 
L 476.052491 749.730655 
L 481.359883 743.145087 
L 490.496135 734.440056 
L 499.061757 724.27305 
L 505.94719 713.519383 
L 506.451775 708.89826 
L 505.191632 692.094904 
L 505.793084 688.78742 
L 515.269249 661.263807 
L 516.193001 653.702698 
L 515.327369 649.775144 
L 510.985998 645.133975 
L 494.863044 637.992482 
L 491.503545 634.884115 
L 487.556684 629.760522 
L 485.961032 622.451984 
L 484.70177 607.331102 
L 483.022461 595.906584 
L 477.899995 570.28728 
L 473.113039 552.647364 
L 472.692991 545.003401 
L 474.372301 536.016399 
L 478.823747 528.625007 
L 487.136636 521.905803 
L 536.968179 503.823553 
L 549.759813 496.907904 
L 553.645913 487.385023 
L 551.271808 481.789695 
L 546.592286 475.039755 
L 535.003555 464.709714 
L 526.773442 458.662697 
L 518.014968 448.5291 
L 513.92545 440.690029 
L 508.299279 432.208169 
L 500.489214 423.893355 
L 480.838566 411.800658 
L 475.805041 406.555456 
L 462.961452 404.915746 
L 464.505148 375.938176 
L 465.989844 367.565898 
L 473.213428 344.405491 
L 488.889916 314.599379 
L 516.679975 257.365872 
L 544.825797 202.631353 
L 595.875213 216.077779 
L 605.77759 197.574577 
L 614.264838 173.652446 
L 618.244282 149.759716 
L 618.980466 126.986852 
L 624.638338 99.296194 
L 629.016694 84.149921 
L 633.179303 68.14838 
L 595.574928 52.831053 
L 583.308133 53.107679 
L 548.553388 45 
L 546.966542 52.129466 
L 548.696926 57.728803 
L 546.578196 58.51859 
L 539.39424 75.209691 
L 488.978857 85.154862 
L 452.721804 125.110607 
L 424.024725 134.878041 
L 416.469154 172.523225 
L 426.866429 176.577732 
L 361.146173 213.793945 
L 338.675835 245.255803 
L 327.581122 292.617639 
L 284.100485 275.723411 
L 274.862963 249.157966 
L 246.488185 253.320719 
L 43.908186 334.875927 
L 62.360334 336.845718 
L 75.420552 333.945823 
L 97.821322 324.266587 
L 158.109141 315.695192 
L 187.700032 315.695192 
L 190.741634 316.523734 
L 183.275004 340.028921 
L 195.99619 352.196453 
L 225.034062 357.174384 
L 252.965017 355.514628 
L 254.901462 359.939307 
L 267.899158 362.980856 
L 277.024843 364.363986 
L 286.704427 364.363986 
L 291.405965 363.534108 
L 296.660521 364.917238 
L 299.978632 364.640612 
L 306.339225 367.958787 
L 311.593781 376.531518 
L 317.190891 376.849571 
L 316.054033 401.292881 
L 300.977235 403.259999 
L 298.604892 451.362178 
L 313.525823 452.945761 
L 316.9408 497.753819 
L 319.331636 529.13015 
L 334.970259 595.647331 
L 338.211757 609.435865 
L 345.55158 670.761298 
L 372.415245 666.368691 
L 376.446644 697.63945 
L 383.570719 705.518613 
L 408.80703 707.158323 
L 414.051019 729.455443 
L 411.429465 766.183885 
L 417.811192 785.990036 
L 431.206039 798.233741 
" clip-path="url(#p28377d2711)" style="fill: #d1d4f2"/>
    <path d="M 616.086805 329.201755 
L 598.985502 345.589503 
L 604.292013 345.903547 
L 612.739635 350.909541 
L 615.399055 352.785787 
L 620.561147 360.76384 
L 653.883152 383.134459 
L 674.376537 396.27486 
L 684.701603 406.912264 
L 695.964511 412.545009 
L 713.016501 423.652811 
L 717.396618 434.290214 
L 726.470348 461.044086 
L 743.749533 484.566646 
L 747.728096 468.412759 
L 770.827184 383.198605 
L 773.024288 377.319969 
L 778.071902 359.209656 
L 777.108523 358.202043 
L 666.440546 333.002355 
L 675.466723 304.027457 
L 642.688931 294.52863 
L 625.349865 331.339926 
L 616.086805 329.201755 
" clip-path="url(#p28377d2711)" style="fill: #d1d4f2"/>
   </g>
   <g id="PatchCollection_2">
    <path d="M 438.354772 624.57011 
L 438.751923 625.816931 
L 437.363213 626.260602 
L 436.966061 625.013781 
L 438.354772 624.57011 
" clip-path="url(#p28377d2711)" style="fill: #4d59c1"/>
    <path d="M 344.27999 585.810405 
L 343.574627 585.781005 
L 343.62218 584.646438 
L 344.327543 584.675838 
L 344.27999 585.810405 
" clip-path="url(#p28377d2711)" style="fill: #4d59c1"/>
    <path d="M 359.37352 582.808947 
L 359.473908 583.815224 
L 357.584135 584.004987 
L 357.483746 582.99871 
L 359.37352 582.808947 
" clip-path="url(#p28377d2711)" style="fill: #4d59c1"/>
    <path d="M 349.061662 580.934038 
L 349.936101 580.697502 
L 350.161535 581.534062 
L 349.287977 581.770597 
L 349.061662 580.934038 
" clip-path="url(#p28377d2711)" style="fill: #4d59c1"/>
    <path d="M 344.759918 580.79372 
L 345.539252 580.652066 
L 345.720656 581.651662 
L 344.941323 581.793315 
L 344.759918 580.79372 
" clip-path="url(#p28377d2711)" style="fill: #4d59c1"/>
    <path d="M 357.65018 579.566944 
L 359.162175 579.401236 
L 359.278414 580.470322 
L 357.7673 580.63603 
L 357.65018 579.566944 
" clip-path="url(#p28377d2711)" style="fill: #4d59c1"/>
    <path d="M 357.634329 578.091606 
L 358.649664 577.974006 
L 358.758859 578.910793 
L 357.743524 579.029729 
L 357.634329 578.091606 
" clip-path="url(#p28377d2711)" style="fill: #4d59c1"/>
    <path d="M 357.170252 577.00782 
L 358.563365 576.819394 
L 358.664634 577.565081 
L 357.27064 577.753507 
L 357.170252 577.00782 
" clip-path="url(#p28377d2711)" style="fill: #4d59c1"/>
    <path d="M 347.779505 575.262538 
L 349.314395 575.167656 
L 349.382202 576.264806 
L 347.846431 576.359687 
L 347.779505 575.262538 
" clip-path="url(#p28377d2711)" style="fill: #4d59c1"/>
    <path d="M 343.151938 572.417433 
L 343.836166 572.369324 
L 343.878435 572.981376 
L 343.194207 573.028148 
L 343.151938 572.417433 
" clip-path="url(#p28377d2711)" style="fill: #4d59c1"/>
    <path d="M 347.382353 568.602133 
L 348.469017 568.41237 
L 348.626645 569.318421 
L 347.539981 569.508183 
L 347.382353 568.602133 
" clip-path="url(#p28377d2711)" style="fill: #4d59c1"/>
    <path d="M 343.63715 567.606547 
L 344.628709 567.442175 
L 344.77665 568.326844 
L 343.784211 568.492552 
L 343.63715 567.606547 
" clip-path="url(#p28377d2711)" style="fill: #4d59c1"/>
    <path d="M 348.697093 565.491094 
L 348.872333 566.572207 
L 347.124337 566.855514 
L 346.949097 565.775738 
L 348.697093 565.491094 
" clip-path="url(#p28377d2711)" style="fill: #4d59c1"/>
    <path d="M 342.551367 558.469873 
L 343.685583 558.352273 
L 343.784211 559.302423 
L 342.650875 559.420023 
L 342.551367 558.469873 
" clip-path="url(#p28377d2711)" style="fill: #4d59c1"/>
    <path d="M 396.761266 552.592574 
L 397.289628 557.843121 
L 395.591826 558.014175 
L 395.063464 552.763627 
L 396.761266 552.592574 
" clip-path="url(#p28377d2711)" style="fill: #4d59c1"/>
    <path d="M 341.226941 547.307281 
L 342.809384 547.165627 
L 342.933549 548.552766 
L 341.351106 548.69442 
L 341.226941 547.307281 
" clip-path="url(#p28377d2711)" style="fill: #4d59c1"/>
    <path d="M 345.714492 549.037863 
L 345.430938 546.699238 
L 346.902425 546.520166 
L 347.185098 548.858792 
L 345.714492 549.037863 
" clip-path="url(#p28377d2711)" style="fill: #4d59c1"/>
    <path d="M 395.558363 545.85867 
L 397.088851 545.666234 
L 397.566137 549.450798 
L 396.03565 549.643233 
L 395.558363 545.85867 
" clip-path="url(#p28377d2711)" style="fill: #4d59c1"/>
    <path d="M 340.777833 545.328136 
L 342.242275 545.139709 
L 342.413993 546.473394 
L 340.949551 546.66182 
L 340.777833 545.328136 
" clip-path="url(#p28377d2711)" style="fill: #4d59c1"/>
    <path d="M 341.13888 543.189964 
L 341.324688 544.442131 
L 339.577572 544.701384 
L 339.390884 543.449218 
L 341.13888 543.189964 
" clip-path="url(#p28377d2711)" style="fill: #4d59c1"/>
    <path d="M 341.32821 536.432006 
L 341.477912 537.760345 
L 340.01347 537.926053 
L 339.863768 536.597714 
L 341.32821 536.432006 
" clip-path="url(#p28377d2711)" style="fill: #4d59c1"/>
    <path d="M 394.956912 534.812341 
L 395.212286 537.608 
L 393.359498 537.777717 
L 393.103243 534.982058 
L 394.956912 534.812341 
" clip-path="url(#p28377d2711)" style="fill: #4d59c1"/>
    <path d="M 340.988297 533.047013 
L 341.107179 534.464888 
L 339.886663 534.566451 
L 339.768663 533.148576 
L 340.988297 533.047013 
" clip-path="url(#p28377d2711)" style="fill: #4d59c1"/>
    <path d="M 340.383323 528.872233 
L 340.559444 530.082973 
L 338.126339 530.437107 
L 337.950218 529.227704 
L 340.383323 528.872233 
" clip-path="url(#p28377d2711)" style="fill: #4d59c1"/>
    <path d="M 481.832766 513.530852 
L 482.59801 514.380775 
L 480.706476 516.085967 
L 479.940351 515.236044 
L 481.832766 513.530852 
" clip-path="url(#p28377d2711)" style="fill: #4d59c1"/>
    <path d="M 328.237171 499.110221 
L 328.318186 500.26617 
L 326.896013 500.365061 
L 326.815878 499.209112 
L 328.237171 499.110221 
" clip-path="url(#p28377d2711)" style="fill: #4d59c1"/>
    <path d="M 327.936005 494.990232 
L 328.000289 496.119454 
L 326.756878 496.188944 
L 326.693474 495.059722 
L 327.936005 494.990232 
" clip-path="url(#p28377d2711)" style="fill: #4d59c1"/>
    <path d="M 464.739388 491.081387 
L 467.113493 491.780302 
L 466.140427 495.08645 
L 463.766322 494.387535 
L 464.739388 491.081387 
" clip-path="url(#p28377d2711)" style="fill: #4d59c1"/>
    <path d="M 407.145333 491.304559 
L 407.265975 489.584667 
L 408.12016 489.643467 
L 408.270743 487.495941 
L 405.945952 487.332905 
L 405.917773 487.743167 
L 405.449292 487.709758 
L 405.573457 485.94443 
L 408.364087 486.140874 
L 408.510267 484.054821 
L 405.772473 483.862385 
L 405.858772 482.634273 
L 409.929799 482.920253 
L 409.812678 484.5907 
L 409.993202 484.602727 
L 409.935082 485.432605 
L 409.876962 486.261146 
L 409.699081 486.249119 
L 409.334511 491.45824 
L 407.145333 491.304559 
" clip-path="url(#p28377d2711)" style="fill: #4d59c1"/>
    <path d="M 504.970601 472.405795 
L 507.950561 474.147068 
L 507.152735 475.511489 
L 504.173656 473.771552 
L 504.970601 472.405795 
" clip-path="url(#p28377d2711)" style="fill: #4d59c1"/>
    <path d="M 501.738789 471.239155 
L 501.077457 472.254786 
L 496.566129 469.325491 
L 497.17991 468.332578 
L 501.738789 471.239155 
" clip-path="url(#p28377d2711)" style="fill: #4d59c1"/>
    <path d="M 507.497931 467.109811 
L 508.861104 467.962407 
L 507.910933 469.483182 
L 506.54688 468.631922 
L 507.497931 467.109811 
" clip-path="url(#p28377d2711)" style="fill: #4d59c1"/>
    <path d="M 749.306136 451.082879 
L 750.372546 451.375541 
L 749.882931 453.16626 
L 748.81564 452.874934 
L 748.910745 452.528817 
L 749.216315 451.411623 
L 749.306136 451.082879 
" clip-path="url(#p28377d2711)" style="fill: #4d59c1"/>
    <path d="M 747.625066 450.97597 
L 749.216315 451.411623 
L 748.910745 452.528817 
L 747.348556 452.099847 
L 746.547208 451.882021 
L 746.60885 451.65484 
L 746.11131 451.518531 
L 746.291833 450.86238 
L 746.782329 450.996016 
L 746.845732 450.76349 
L 747.625066 450.97597 
" clip-path="url(#p28377d2711)" style="fill: #4d59c1"/>
    <path d="M 746.417759 450.398664 
L 746.291833 450.86238 
L 746.11131 451.518531 
L 746.012682 451.882021 
L 745.184035 451.65484 
L 745.589993 450.171483 
L 746.417759 450.398664 
" clip-path="url(#p28377d2711)" style="fill: #4d59c1"/>
    <path d="M 742.523734 429.751945 
L 742.866289 428.446324 
L 747.357362 429.626327 
L 747.014808 430.930612 
L 742.523734 429.751945 
" clip-path="url(#p28377d2711)" style="fill: #4d59c1"/>
    <path d="M 750.416576 431.747126 
L 749.218956 431.453128 
L 750.398964 426.644914 
L 751.595703 426.938913 
L 750.416576 431.747126 
" clip-path="url(#p28377d2711)" style="fill: #4d59c1"/>
    <path d="M 761.084197 391.378447 
L 759.614471 397.202292 
L 755.851656 396.252142 
L 756.280509 394.552296 
L 758.726823 395.169693 
L 759.767696 391.047031 
L 761.084197 391.378447 
" clip-path="url(#p28377d2711)" style="fill: #4d59c1"/>
    <path d="M 740.32575 422.308435 
L 738.919428 428.251216 
L 737.397746 427.891736 
L 738.804069 421.948955 
L 740.32575 422.308435 
" clip-path="url(#p28377d2711)" style="fill: #4d59c1"/>
    <path d="M 723.075625 392.356661 
L 722.739235 393.719745 
L 722.079663 393.556709 
L 721.913229 394.228897 
L 720.836252 393.962962 
L 721.339076 391.92769 
L 723.075625 392.356661 
" clip-path="url(#p28377d2711)" style="fill: #4d59c1"/>
    <path d="M 698.341257 364.233023 
L 697.578656 367.283926 
L 691.601125 365.789879 
L 692.363727 362.737639 
L 698.341257 364.233023 
" clip-path="url(#p28377d2711)" style="fill: #4d59c1"/>
    <path d="M 681.849331 356.308425 
L 680.54692 361.950525 
L 677.345929 360.920193 
L 678.702057 355.765863 
L 681.849331 356.308425 
" clip-path="url(#p28377d2711)" style="fill: #4d59c1"/>
    <path d="M 445.632953 466.505778 
L 445.558982 468.09337 
L 442.252319 467.939689 
L 442.32629 466.352097 
L 445.632953 466.505778 
" clip-path="url(#p28377d2711)" style="fill: #4d59c1"/>
    <path d="M 436.479969 462.244134 
L 436.40864 463.853109 
L 431.039605 463.615237 
L 431.110934 462.006263 
L 436.479969 462.244134 
" clip-path="url(#p28377d2711)" style="fill: #4d59c1"/>
    <path d="M 424.872745 448.152248 
L 424.823431 449.369669 
L 423.7262 449.324233 
L 423.776395 448.106811 
L 424.872745 448.152248 
" clip-path="url(#p28377d2711)" style="fill: #4d59c1"/>
    <path d="M 394.060458 441.014764 
L 394.047249 441.847314 
L 394.009383 444.201976 
L 393.163124 444.188612 
L 391.998967 444.169903 
L 392.050042 440.982691 
L 394.060458 441.014764 
" clip-path="url(#p28377d2711)" style="fill: #4d59c1"/>
    <path d="M 381.524199 436.572712 
L 382.001485 441.191163 
L 379.689903 441.430371 
L 379.212617 436.81192 
L 381.524199 436.572712 
" clip-path="url(#p28377d2711)" style="fill: #4d59c1"/>
    <path d="M 425.34739 414.488073 
L 424.887715 415.325969 
L 424.20789 414.953125 
L 424.667565 414.115229 
L 425.34739 414.488073 
" clip-path="url(#p28377d2711)" style="fill: #4d59c1"/>
    <path d="M 431.889387 393.884117 
L 434.122595 389.99799 
L 437.880127 392.157543 
L 435.647799 396.04367 
L 431.889387 393.884117 
" clip-path="url(#p28377d2711)" style="fill: #4d59c1"/>
    <path d="M 436.494939 383.162523 
L 438.404085 384.270363 
L 437.556065 385.731002 
L 435.647799 384.623161 
L 436.494939 383.162523 
" clip-path="url(#p28377d2711)" style="fill: #4d59c1"/>
    <path d="M 672.501734 365.438417 
L 670.512452 364.829038 
L 672.681377 357.742336 
L 674.671539 358.351715 
L 672.501734 365.438417 
" clip-path="url(#p28377d2711)" style="fill: #4d59c1"/>
    <path d="M 666.967146 355.982353 
L 672.318568 357.476401 
L 671.441488 360.61684 
L 666.090066 359.122793 
L 666.967146 355.982353 
" clip-path="url(#p28377d2711)" style="fill: #4d59c1"/>
    <path d="M 576.738837 164.586599 
L 576.152356 166.421417 
L 584.422095 169.984146 
L 581.52139 177.110939 
L 577.495275 175.818681 
L 569.616523 174.201689 
L 573.526398 163.673867 
L 576.738837 164.586599 
" clip-path="url(#p28377d2711)" style="fill: #4d59c1"/>
    <path d="M 435.427648 378.230028 
L 434.52415 380.3094 
L 432.920573 379.613158 
L 433.824071 377.533786 
L 435.427648 378.230028 
" clip-path="url(#p28377d2711)" style="fill: #4d59c1"/>
    <path d="M 430.12554 377.150252 
L 431.931656 378.495964 
L 430.909276 379.868402 
L 429.10228 378.521354 
L 430.12554 377.150252 
" clip-path="url(#p28377d2711)" style="fill: #4d59c1"/>
    <path d="M 450.563447 363.632998 
L 451.734648 364.183578 
L 451.407945 364.877147 
L 453.113672 365.681634 
L 453.440376 364.988065 
L 454.579875 365.523944 
L 453.62178 367.55788 
L 451.614006 366.611739 
L 449.605351 365.666934 
L 450.563447 363.632998 
" clip-path="url(#p28377d2711)" style="fill: #4d59c1"/>
    <path d="M 299.42033 304.141048 
L 300.79495 304.186484 
L 300.768532 304.958898 
L 299.394792 304.912126 
L 299.42033 304.141048 
" clip-path="url(#p28377d2711)" style="fill: #4d59c1"/>
    <path d="M 300.923518 297.218717 
L 300.936727 301.027335 
L 299.672182 301.031344 
L 299.659854 297.224063 
L 300.923518 297.218717 
" clip-path="url(#p28377d2711)" style="fill: #4d59c1"/>
    <path d="M 365.942815 251.785244 
L 366.686925 253.113583 
L 360.752543 256.435767 
L 360.008434 255.107428 
L 365.942815 251.785244 
" clip-path="url(#p28377d2711)" style="fill: #4d59c1"/>
    <path d="M 356.270276 244.596979 
L 356.972116 245.849145 
L 352.489849 248.358824 
L 351.788889 247.106658 
L 356.270276 244.596979 
" clip-path="url(#p28377d2711)" style="fill: #4d59c1"/>
    <path d="M 535.40599 159.710231 
L 533.66768 158.736027 
L 535.577708 155.328316 
L 537.316017 156.302521 
L 535.40599 159.710231 
" clip-path="url(#p28377d2711)" style="fill: #4d59c1"/>
   </g>
   <g id="LineCollection_1">
    <path d="M 460.901722 504.122897 
L 468.611398 505.142538 
L 474.920036 505.24811 
L 476.337806 505.201337 
L 477.274767 504.892639 
" clip-path="url(#p28377d2711)" style="fill: none; stroke: #4d59c1; stroke-width: 0.2"/>
    <path d="M 420.168566 502.920176 
L 436.26334 503.43601 
L 445.551056 503.631118 
" clip-path="url(#p28377d2711)" style="fill: none; stroke: #4d59c1; stroke-width: 0.2"/>
    <path d="M 545.45895 490.957106 
L 549.973936 496.383197 
" clip-path="url(#p28377d2711)" style="fill: none; stroke: #4d59c1; stroke-width: 0.5"/>
    <path d="M 550.442514 495.234948 
L 546.351881 490.304963 
" clip-path="url(#p28377d2711)" style="fill: none; stroke: #4d59c1; stroke-width: 0.5"/>
    <path d="M 477.274767 504.892639 
L 477.84892 504.068106 
L 478.226699 502.838658 
L 480.731133 491.547776 
L 481.600287 489.525867 
L 485.143832 483.080616 
" clip-path="url(#p28377d2711)" style="fill: none; stroke: #4d59c1; stroke-width: 0.2"/>
    <path d="M 485.143832 483.080616 
L 476.715584 480.680519 
L 475.439591 480.633746 
L 474.539615 480.974517 
L 473.975149 481.578551 
L 473.408921 482.618237 
L 469.258641 499.755682 
L 468.611398 505.142538 
" clip-path="url(#p28377d2711)" style="fill: none; stroke: #4d59c1; stroke-width: 0.2"/>
    <path d="M 540.606829 486.293219 
L 543.241593 488.582399 
L 545.45895 490.957106 
" clip-path="url(#p28377d2711)" style="fill: none; stroke: #4d59c1; stroke-width: 0.5"/>
    <path d="M 546.351881 490.304963 
L 544.079926 488.141401 
L 543.034651 487.491931 
L 540.606829 486.293219 
" clip-path="url(#p28377d2711)" style="fill: none; stroke: #4d59c1; stroke-width: 0.5"/>
    <path d="M 420.625598 486.881216 
L 437.923276 487.824684 
L 447.201306 488.304437 
" clip-path="url(#p28377d2711)" style="fill: none; stroke: #4d59c1; stroke-width: 0.2"/>
    <path d="M 434.99175 796.035433 
L 433.768319 798.767491 
" clip-path="url(#p28377d2711)" style="fill: none; stroke: #4d59c1; stroke-width: 0.5"/>
    <path d="M 420.122774 700.727772 
L 423.215451 733.972331 
L 416.967575 771.243334 
L 420.214357 777.583012 
L 424.162979 782.006355 
L 425.90305 784.147199 
" clip-path="url(#p28377d2711)" style="fill: none; stroke: #4d59c1; stroke-width: 0.2"/>
    <path d="M 380.692619 702.33546 
L 381.923992 702.108229 
L 385.759017 701.480141 
L 387.012995 701.270333 
" clip-path="url(#p28377d2711)" style="fill: none; stroke: #4d59c1; stroke-width: 0.2"/>
    <path d="M 452.732371 702.465036 
L 447.00229 702.440982 
L 441.616524 702.156338 
L 434.036296 701.126006 
L 425.200329 700.806617 
L 420.122774 700.727772 
L 409.334511 701.199506 
L 398.977743 702.00132 
L 387.130115 702.473055 
" clip-path="url(#p28377d2711)" style="fill: none; stroke: #4d59c1; stroke-width: 0.2"/>
    <path d="M 356.472814 666.329937 
L 356.814326 668.919672 
" clip-path="url(#p28377d2711)" style="fill: none; stroke: #4d59c1; stroke-width: 0.2"/>
    <path d="M 391.209067 662.136448 
L 393.613112 674.473698 
L 398.977743 702.00132 
" clip-path="url(#p28377d2711)" style="fill: none; stroke: #4d59c1; stroke-width: 0.2"/>
    <path d="M 384.53674 675.878209 
L 393.613112 674.473698 
L 403.606191 672.772515 
L 415.990987 670.411172 
" clip-path="url(#p28377d2711)" style="fill: none; stroke: #4d59c1; stroke-width: 0.2"/>
    <path d="M 395.542512 642.115144 
L 400.494141 657.328235 
L 403.606191 672.772515 
L 409.334511 701.199506 
" clip-path="url(#p28377d2711)" style="fill: none; stroke: #4d59c1; stroke-width: 0.2"/>
    <path d="M 439.747004 632.441254 
L 428.815203 635.52423 
L 424.730087 638.192936 
L 408.935598 641.11154 
L 395.542512 642.115144 
L 380.884881 643.279111 
L 367.726916 644.698323 
L 354.400756 647.042293 
L 345.742671 646.903312 
" clip-path="url(#p28377d2711)" style="fill: none; stroke: #4d59c1; stroke-width: 0.2"/>
    <path d="M 423.215451 733.972331 
L 435.475201 732.909927 
L 452.989507 733.956294 
" clip-path="url(#p28377d2711)" style="fill: none; stroke: #4d59c1; stroke-width: 0.2"/>
    <path d="M 434.99175 796.035433 
L 431.318756 794.27545 
L 429.428983 792.809467 
L 428.09487 791.024093 
L 426.641876 787.657809 
L 425.90305 784.147199 
L 435.475201 732.909927 
L 434.036296 701.126006 
L 428.756203 663.917812 
L 426.669174 646.098825 
L 424.730087 638.192936 
" clip-path="url(#p28377d2711)" style="fill: none; stroke: #4d59c1; stroke-width: 0.2"/>
    <path d="M 416.109868 668.695289 
L 428.756203 663.917812 
L 445.597728 661.024599 
" clip-path="url(#p28377d2711)" style="fill: none; stroke: #4d59c1; stroke-width: 0.2"/>
    <path d="M 428.757083 597.158751 
L 440.333486 595.460241 
" clip-path="url(#p28377d2711)" style="fill: none; stroke: #4d59c1; stroke-width: 0.2"/>
    <path d="M 460.901722 504.122897 
L 457.638209 503.937143 
L 456.176408 504.847203 
L 455.782779 506.60184 
L 455.818883 509.537817 
L 456.784905 514.049359 
L 460.186673 533.135212 
L 462.012162 538.971084 
L 462.263134 542.122215 
L 462.656763 544.701384 
L 464.840658 555.622096 
L 468.20544 574.31506 
L 469.602076 581.942987 
L 472.788097 597.806884 
L 475.222963 612.06047 
L 477.58562 622.732619 
L 481.702437 631.255905 
L 481.8812 634.443117 
L 482.282754 635.601739 
L 482.438621 636.082828 
L 484.208632 641.571247 
L 489.578547 647.515364 
L 491.798547 649.664226 
" clip-path="url(#p28377d2711)" style="fill: none; stroke: #4d59c1; stroke-width: 0.2"/>
    <path d="M 447.819489 630.189492 
L 446.817363 625.589751 
L 444.695111 623.93935 
L 442.868741 618.043341 
L 440.333486 595.460241 
L 435.536843 552.726209 
L 433.796772 537.21912 
L 431.493116 516.696682 
L 435.028735 515.044945 
L 436.26334 503.43601 
L 437.923276 487.824684 
L 438.423459 480.119249 
" clip-path="url(#p28377d2711)" style="fill: none; stroke: #4d59c1; stroke-width: 0.2"/>
    <path d="M 424.371682 554.209566 
L 435.536843 552.726209 
" clip-path="url(#p28377d2711)" style="fill: none; stroke: #4d59c1; stroke-width: 0.2"/>
    <path d="M 422.714388 539.358628 
L 433.796772 537.21912 
" clip-path="url(#p28377d2711)" style="fill: none; stroke: #4d59c1; stroke-width: 0.2"/>
    <path d="M 420.209073 516.915845 
L 423.81338 516.772855 
" clip-path="url(#p28377d2711)" style="fill: none; stroke: #4d59c1; stroke-width: 0.2"/>
    <path d="M 423.81338 516.772855 
L 431.493116 516.696682 
" clip-path="url(#p28377d2711)" style="fill: none; stroke: #4d59c1; stroke-width: 0.2"/>
    <path d="M 328.87913 525.163842 
L 324.283265 526.798207 
L 321.070826 526.893088 
L 319.937491 524.95537 
L 319.181934 516.498901 
L 317.885687 506.457513 
L 316.9408 497.753819 
" clip-path="url(#p28377d2711)" style="fill: none; stroke: #4d59c1; stroke-width: 0.2"/>
    <path d="M 310.235792 452.596584 
L 310.854074 451.779121 
L 312.745609 450.358573 
L 313.902721 449.603531 
" clip-path="url(#p28377d2711)" style="fill: none; stroke: #4d59c1; stroke-width: 0.2"/>
    <path d="M 298.784449 447.721431 
L 299.854467 447.744659 
L 313.902721 449.603531 
L 321.047931 450.548336 
" clip-path="url(#p28377d2711)" style="fill: none; stroke: #4d59c1; stroke-width: 0.2"/>
    <path d="M 318.03715 403.759797 
L 318.146345 404.557602 
L 318.193898 406.80001 
" clip-path="url(#p28377d2711)" style="fill: none; stroke: #4d59c1; stroke-width: 0.2"/>
    <path d="M 318.03715 403.759797 
L 308.084486 402.332694 
" clip-path="url(#p28377d2711)" style="fill: none; stroke: #4d59c1; stroke-width: 0.2"/>
    <path d="M 318.03715 403.759797 
L 313.238668 401.660211 
" clip-path="url(#p28377d2711)" style="fill: none; stroke: #4d59c1; stroke-width: 0.2"/>
    <path d="M 356.472814 666.329937 
L 354.400756 647.042293 
L 350.326208 606.815268 
L 348.004939 585.438898 
" clip-path="url(#p28377d2711)" style="fill: none; stroke: #4d59c1; stroke-width: 0.2"/>
    <path d="M 350.326208 606.815268 
L 363.636517 605.69941 
L 376.931856 604.584888 
L 391.422173 603.368803 
L 404.665556 602.25829 
L 417.465996 601.185195 
L 428.935846 600.081364 
" clip-path="url(#p28377d2711)" style="fill: none; stroke: #4d59c1; stroke-width: 0.2"/>
    <path d="M 347.901909 584.27894 
L 344.474603 587.218926 
L 342.443053 589.581605 
L 340.695057 591.189243 
L 338.097279 593.36216 
L 334.970259 595.647331 
" clip-path="url(#p28377d2711)" style="fill: none; stroke: #4d59c1; stroke-width: 0.2"/>
    <path d="M 428.815203 635.52423 
L 422.68797 629.040225 
L 420.648494 627.212088 
L 419.650771 625.739423 
L 418.894334 623.093435 
L 417.465996 601.185195 
L 413.174819 566.092454 
L 410.437026 543.71248 
L 407.311767 518.153312 
" clip-path="url(#p28377d2711)" style="fill: none; stroke: #4d59c1; stroke-width: 0.2"/>
    <path d="M 319.937491 524.95537 
L 320.235135 528.339026 
L 321.524337 534.291161 
L 322.937704 541.904389 
L 323.287564 545.956258 
" clip-path="url(#p28377d2711)" style="fill: none; stroke: #4d59c1; stroke-width: 0.2"/>
    <path d="M 346.873365 572.730141 
L 360.039255 571.411156 
L 373.405923 570.073463 
L 387.728044 568.639551 
L 400.826128 567.328585 
L 413.174819 566.092454 
L 425.559615 564.852315 
" clip-path="url(#p28377d2711)" style="fill: none; stroke: #4d59c1; stroke-width: 0.2"/>
    <path d="M 344.668336 550.959545 
L 357.742643 549.518952 
L 371.155102 548.040941 
L 385.370671 546.47473 
L 398.376292 545.040819 
L 410.437026 543.71248 
L 423.045494 542.322668 
" clip-path="url(#p28377d2711)" style="fill: none; stroke: #4d59c1; stroke-width: 0.2"/>
    <path d="M 381.332227 381.206096 
L 382.47613 396.047679 
L 384.5068 418.419636 
L 387.678731 445.376634 
L 391.333232 480.974517 
L 395.501124 518.886972 
L 398.376292 545.040819 
L 400.826128 567.328585 
L 404.665556 602.25829 
L 408.935598 641.11154 
L 410.248577 644.10498 
L 416.109868 668.695289 
L 415.990987 670.411172 
L 417.713445 679.661437 
L 419.792548 692.562629 
L 419.960743 696.798882 
L 420.760331 698.234129 
L 422.248549 699.534405 
L 425.200329 700.806617 
" clip-path="url(#p28377d2711)" style="fill: none; stroke: #4d59c1; stroke-width: 0.2"/>
    <path d="M 352.047786 361.059174 
L 352.310206 363.623644 
L 352.524192 365.717716 
L 355.94093 399.152037 
L 358.203199 421.286122 
L 360.948918 448.156257 
L 364.604299 483.933212 
L 368.382965 520.90888 
L 371.155102 548.040941 
L 373.405923 570.073463 
L 376.931856 604.584888 
L 380.884881 643.279111 
L 384.53674 675.878209 
L 387.012995 701.270333 
L 387.130115 702.473055 
" clip-path="url(#p28377d2711)" style="fill: none; stroke: #4d59c1; stroke-width: 0.2"/>
    <path d="M 328.87913 525.163842 
L 341.916453 523.800757 
L 354.929999 522.698263 
L 368.382965 520.90888 
L 382.503429 519.512387 
L 395.501124 518.886972 
L 407.311767 518.153312 
L 420.209073 516.915845 
" clip-path="url(#p28377d2711)" style="fill: none; stroke: #4d59c1; stroke-width: 0.2"/>
    <path d="M 338.526132 366.34714 
L 338.833463 369.280444 
L 342.105782 400.467013 
L 344.447305 422.785515 
L 347.259069 449.580813 
L 351.021003 485.436614 
L 354.929999 522.698263 
L 357.742643 549.518952 
L 360.039255 571.411156 
L 363.636517 605.69941 
L 367.726916 644.698323 
L 369.79193 663.16678 
" clip-path="url(#p28377d2711)" style="fill: none; stroke: #4d59c1; stroke-width: 0.2"/>
    <path d="M 356.810966 354.620605 
L 364.009012 360.210588 
L 365.041959 361.679244 
L 365.328155 363.347018 
L 366.072264 367.533825 
L 366.770582 371.617733 
L 369.562092 397.857107 
L 371.895689 419.794747 
L 374.76029 446.721009 
L 378.553926 482.388383 
L 382.503429 519.512387 
L 385.370671 546.47473 
L 387.728044 568.639551 
L 391.422173 603.368803 
L 395.542512 642.115144 
" clip-path="url(#p28377d2711)" style="fill: none; stroke: #4d59c1; stroke-width: 0.2"/>
    <path d="M 325.804066 488.228264 
L 338.173891 486.858498 
L 351.021003 485.436614 
L 364.604299 483.933212 
L 378.553926 482.388383 
L 391.333232 480.974517 
L 404.882184 481.284552 
L 420.77442 481.649378 
" clip-path="url(#p28377d2711)" style="fill: none; stroke: #4d59c1; stroke-width: 0.2"/>
    <path d="M 348.004939 585.438898 
L 347.901909 584.27894 
L 346.873365 572.730141 
L 344.668336 550.959545 
L 341.916453 523.800757 
L 338.173891 486.858498 
L 334.530838 450.903807 
L 331.821224 424.161963 
L 328.825413 401.732543 
L 326.566668 375.562659 
L 326.609817 372.728246 
" clip-path="url(#p28377d2711)" style="fill: none; stroke: #4d59c1; stroke-width: 0.2"/>
    <path d="M 318.360331 385.27664 
L 319.563235 400.906674 
L 319.693564 402.59583 
L 318.193898 406.80001 
L 318.700244 425.013222 
L 321.047931 450.548336 
L 325.804066 488.228264 
L 324.720924 488.432727 
L 327.659496 518.793427 
L 328.076901 523.895639 
L 328.87913 525.163842 
" clip-path="url(#p28377d2711)" style="fill: none; stroke: #4d59c1; stroke-width: 0.2"/>
    <path d="M 321.047931 450.548336 
L 334.530838 450.903807 
L 347.259069 449.580813 
L 360.948918 448.156257 
L 374.76029 446.721009 
L 387.678731 445.376634 
L 394.455849 445.518287 
L 405.758384 445.753486 
L 422.341012 446.099603 
" clip-path="url(#p28377d2711)" style="fill: none; stroke: #4d59c1; stroke-width: 0.2"/>
    <path d="M 394.455849 445.518287 
L 394.519252 441.721697 
" clip-path="url(#p28377d2711)" style="fill: none; stroke: #4d59c1; stroke-width: 0.2"/>
    <path d="M 404.882184 481.284552 
L 405.758384 445.753486 
L 405.730204 420.585871 
L 405.620129 410.760972 
L 406.23479 400.131587 
L 406.565016 397.202292 
L 407.011481 394.92113 
L 409.04039 392.138834 
L 411.005895 391.250157 
L 412.705458 389.094613 
L 417.288114 381.661794 
L 421.778307 375.749749 
" clip-path="url(#p28377d2711)" style="fill: none; stroke: #4d59c1; stroke-width: 0.2"/>
    <path d="M 318.700244 425.013222 
L 331.821224 424.161963 
L 344.447305 422.785515 
L 358.203199 421.286122 
L 371.895689 419.794747 
L 384.5068 418.419636 
L 392.597777 419.027678 
L 405.730204 420.585871 
L 422.766343 421.296813 
" clip-path="url(#p28377d2711)" style="fill: none; stroke: #4d59c1; stroke-width: 0.2"/>
    <path d="M 387.678731 445.376634 
L 392.597777 419.027678 
L 393.877293 394.178116 
L 393.14287 385.033423 
L 393.574365 384.448099 
L 397.546764 378.092384 
" clip-path="url(#p28377d2711)" style="fill: none; stroke: #4d59c1; stroke-width: 0.2"/>
    <path d="M 490.5023 423.77041 
L 489.883236 423.870637 
L 488.401182 424.788714 
L 485.762015 427.260975 
" clip-path="url(#p28377d2711)" style="fill: none; stroke: #4d59c1; stroke-width: 0.2"/>
    <path d="M 440.525457 412.675972 
L 435.063959 425.132158 
L 434.827077 437.359827 
" clip-path="url(#p28377d2711)" style="fill: none; stroke: #4d59c1; stroke-width: 0.2"/>
    <path d="M 458.052092 415.891248 
L 461.793772 418.304709 
L 462.953526 418.3154 
L 463.593724 418.3595 
L 464.884688 420.76227 
L 466.428384 421.862092 
" clip-path="url(#p28377d2711)" style="fill: none; stroke: #4d59c1; stroke-width: 0.2"/>
    <path d="M 488.401182 424.788714 
L 492.656442 419.073191 
" clip-path="url(#p28377d2711)" style="fill: none; stroke: #4d59c1; stroke-width: 0.2"/>
    <path d="M 427.489896 402.353949 
L 437.657334 409.395215 
L 440.525457 412.675972 
L 451.154331 424.838159 
" clip-path="url(#p28377d2711)" style="fill: none; stroke: #4d59c1; stroke-width: 0.2"/>
    <path d="M 466.650784 405.386754 
L 467.300181 406.731855 
L 469.459419 409.623732 
L 471.329819 411.610896 
L 478.03825 416.004838 
L 487.02568 421.236677 
L 487.510012 421.862092 
L 487.701983 422.43138 
L 487.792685 422.94855 
L 487.496803 423.904046 
L 485.762015 427.260975 
" clip-path="url(#p28377d2711)" style="fill: none; stroke: #4d59c1; stroke-width: 0.2"/>
    <path d="M 443.05807 388.294135 
L 450.39349 392.462233 
L 458.436915 397.005847 
" clip-path="url(#p28377d2711)" style="fill: none; stroke: #4d59c1; stroke-width: 0.2"/>
    <path d="M 450.39349 392.462233 
L 460.304673 373.150535 
" clip-path="url(#p28377d2711)" style="fill: none; stroke: #4d59c1; stroke-width: 0.2"/>
    <path d="M 439.712661 392.304543 
L 443.05807 388.294135 
L 447.308739 380.626117 
L 451.598155 371.120608 
" clip-path="url(#p28377d2711)" style="fill: none; stroke: #4d59c1; stroke-width: 0.2"/>
    <path d="M 316.402752 375.752422 
L 317.148716 376.847175 
" clip-path="url(#p28377d2711)" style="fill: none; stroke: #4d59c1; stroke-width: 0.2"/>
    <path d="M 317.188301 376.905267 
L 319.210113 379.872411 
L 320.427106 384.204882 
L 320.749406 392.904567 
L 320.821616 396.771985 
L 319.693564 402.59583 
" clip-path="url(#p28377d2711)" style="fill: none; stroke: #4d59c1; stroke-width: 0.2"/>
    <path d="M 319.693564 402.59583 
L 321.757697 402.399385 
L 328.825413 401.732543 
L 342.105782 400.467013 
L 355.94093 399.152037 
L 369.562092 397.857107 
L 382.47613 396.047679 
L 393.877293 394.178116 
L 409.04039 392.138834 
" clip-path="url(#p28377d2711)" style="fill: none; stroke: #4d59c1; stroke-width: 0.2"/>
    <path d="M 366.072264 367.533825 
L 369.207209 370.272021 
L 375.906834 375.898085 
L 379.780605 379.488877 
L 381.332227 381.206096 
L 382.851267 381.803448 
L 392.157476 385.109595 
L 393.14287 385.033423 
" clip-path="url(#p28377d2711)" style="fill: none; stroke: #4d59c1; stroke-width: 0.2"/>
    <path d="M 366.770582 371.617733 
L 367.536706 370.692974 
L 369.207209 370.272021 
" clip-path="url(#p28377d2711)" style="fill: none; stroke: #4d59c1; stroke-width: 0.2"/>
    <path d="M 332.39978 367.638061 
L 333.359637 368.10445 
L 335.55674 368.741892 
L 336.500746 368.576184 
L 338.082309 369.053263 
L 338.833463 369.280444 
" clip-path="url(#p28377d2711)" style="fill: none; stroke: #4d59c1; stroke-width: 0.2"/>
    <path d="M 338.082309 369.053263 
L 337.682515 367.938741 
L 336.528045 366.387231 
" clip-path="url(#p28377d2711)" style="fill: none; stroke: #4d59c1; stroke-width: 0.2"/>
    <path d="M 338.526132 366.34714 
L 338.272519 365.978305 
" clip-path="url(#p28377d2711)" style="fill: none; stroke: #4d59c1; stroke-width: 0.2"/>
    <path d="M 326.609817 372.728246 
L 327.124089 371.883668 
L 328.540979 369.852405 
L 330.124302 368.505357 
L 332.39978 367.638061 
L 332.604079 367.560552 
L 335.650965 366.59303 
L 336.188132 366.466076 
L 336.528045 366.387231 
L 338.272519 365.978305 
L 339.169853 364.703421 
L 340.398294 363.781334 
L 343.686464 362.614694 
L 344.637515 362.276596 
L 345.122727 362.105542 
L 347.637728 361.029775 
L 350.308596 359.888526 
L 351.854053 359.228365 
" clip-path="url(#p28377d2711)" style="fill: none; stroke: #4d59c1; stroke-width: 0.2"/>
    <path d="M 321.401933 315.37313 
L 327.482494 317.973681 
L 359.30043 327.019483 
L 369.673048 332.649556 
L 397.83296 357.654136 
L 421.778307 375.749749 
L 427.143819 379.305796 
L 434.375328 384.188845 
L 439.712661 392.304543 
L 457.677836 414.894325 
L 458.052092 415.891248 
" clip-path="url(#p28377d2711)" style="fill: none; stroke: #4d59c1; stroke-width: 0.2"/>
    <path d="M 343.686464 362.614694 
L 346.020061 362.860584 
L 348.807168 362.83653 
L 350.247834 363.192001 
L 351.098496 364.017869 
L 352.524192 365.717716 
" clip-path="url(#p28377d2711)" style="fill: none; stroke: #4d59c1; stroke-width: 0.2"/>
    <path d="M 345.883567 358.562859 
L 347.244099 359.027911 
L 349.463217 359.778944 
L 350.308596 359.888526 
" clip-path="url(#p28377d2711)" style="fill: none; stroke: #4d59c1; stroke-width: 0.2"/>
    <path d="M 493.457602 488.3178 
L 486.669036 483.708704 
L 485.143832 483.080616 
" clip-path="url(#p28377d2711)" style="fill: none; stroke: #4d59c1; stroke-width: 0.2"/>
    <path d="M 464.617865 476.528457 
L 453.76884 475.706597 
" clip-path="url(#p28377d2711)" style="fill: none; stroke: #4d59c1; stroke-width: 0.5"/>
    <path d="M 540.606829 486.293219 
L 537.925394 485.262888 
L 534.793091 484.342137 
L 527.82224 483.059235 
L 525.360075 482.262766 
L 524.107858 481.779004 
L 522.851238 481.141562 
L 515.815223 477.009545 
L 508.489489 472.632975 
L 503.514084 469.583408 
L 496.703503 465.478119 
L 495.09112 466.318688 
L 493.856515 467.123175 
L 493.202227 467.652372 
L 492.611343 468.349951 
L 487.535549 475.471398 
L 486.729798 476.286576 
L 485.844792 476.913328 
L 484.876129 477.338289 
L 483.741913 477.538743 
L 481.834528 477.697769 
L 464.617865 476.528457 
" clip-path="url(#p28377d2711)" style="fill: none; stroke: #4d59c1; stroke-width: 0.5"/>
    <path d="M 485.143832 483.080616 
L 489.072201 478.177522 
L 494.11277 468.630586 
L 495.09112 466.318688 
" clip-path="url(#p28377d2711)" style="fill: none; stroke: #4d59c1; stroke-width: 0.2"/>
    <path d="M 453.76884 475.706597 
L 439.327838 474.610784 
L 421.691128 473.669989 
L 421.11081 473.639252 
" clip-path="url(#p28377d2711)" style="fill: none; stroke: #4d59c1; stroke-width: 0.5"/>
    <path d="M 503.514084 469.583408 
L 507.241675 468.010516 
L 508.764237 468.974029 
L 508.489489 472.632975 
" clip-path="url(#p28377d2711)" style="fill: none; stroke: #4d59c1; stroke-width: 0.2"/>
    <path d="M 469.713032 464.054898 
L 482.107514 473.994724 
" clip-path="url(#p28377d2711)" style="fill: none; stroke: #4d59c1; stroke-width: 0.2"/>
    <path d="M 485.762015 427.260975 
L 482.48089 431.06692 
L 478.893315 434.668403 
L 478.416028 435.609199 
L 476.243581 443.405507 
L 474.183852 450.879753 
L 469.713032 464.054898 
L 467.728154 469.972288 
L 466.133382 471.987515 
L 464.4347 473.039228 
L 462.212939 473.73547 
L 461.348187 474.260659 
L 460.79605 474.821929 
L 460.776676 477.268799 
L 460.964245 480.323711 
L 460.323166 485.262888 
L 460.5486 489.35615 
L 460.79605 493.342503 
L 461.379889 495.722556 
L 460.901722 504.122897 
" clip-path="url(#p28377d2711)" style="fill: none; stroke: #4d59c1; stroke-width: 0.2"/>
    <path d="M 496.703503 465.478119 
L 487.21589 459.157149 
L 480.443175 454.890161 
L 474.183852 450.879753 
" clip-path="url(#p28377d2711)" style="fill: none; stroke: #4d59c1; stroke-width: 0.2"/>
    <path d="M 742.951707 482.45921 
L 741.297936 480.334402 
L 739.503267 477.168572 
L 735.960603 471.971479 
L 733.125943 467.814071 
L 730.292164 463.751545 
L 726.748618 457.608311 
L 725.048175 453.923974 
L 724.433514 452.081138 
L 723.489508 448.868535 
L 721.788184 445.184198 
L 719.723511 441.151051 
" clip-path="url(#p28377d2711)" style="fill: none; stroke: #4d59c1; stroke-width: 0.2"/>
    <path d="M 624.400035 363.341064 
L 619.825963 359.627607 
" clip-path="url(#p28377d2711)" style="fill: none; stroke: #4d59c1; stroke-width: 0.2"/>
    <path d="M 458.637693 445.182862 
L 458.083793 453.910611 
L 456.703008 465.258956 
L 455.616345 469.226601 
L 447.349247 466.58195 
L 440.168813 465.305729 
L 426.847937 465.210847 
L 421.588097 462.702505 
" clip-path="url(#p28377d2711)" style="fill: none; stroke: #4d59c1; stroke-width: 0.2"/>
    <path d="M 427.370134 451.894048 
L 458.083793 453.910611 
" clip-path="url(#p28377d2711)" style="fill: none; stroke: #4d59c1; stroke-width: 0.2"/>
    <path d="M 422.07419 451.546595 
L 427.370134 451.894048 
" clip-path="url(#p28377d2711)" style="fill: none; stroke: #4d59c1; stroke-width: 0.2"/>
    <path d="M 476.243581 443.405507 
L 495.495317 448.697481 
" clip-path="url(#p28377d2711)" style="fill: none; stroke: #4d59c1; stroke-width: 0.2"/>
    <path d="M 496.703503 465.478119 
L 494.90179 458.845778 
L 494.66667 456.349463 
L 495.495317 448.697481 
L 496.650667 428.287297 
L 496.257919 426.933567 
L 495.232897 425.736191 
L 491.288678 423.905382 
L 490.5023 423.77041 
" clip-path="url(#p28377d2711)" style="fill: none; stroke: #4d59c1; stroke-width: 0.2"/>
    <path d="M 422.499521 436.835975 
L 434.827077 437.359827 
L 443.874389 437.80617 
L 448.87357 438.42624 
L 451.567334 439.278836 
L 458.637693 445.182862 
" clip-path="url(#p28377d2711)" style="fill: none; stroke: #4d59c1; stroke-width: 0.2"/>
    <path d="M 605.337289 59.515512 
L 599.472475 71.209974 
L 596.115618 75.511708 
L 592.737626 79.24549 
L 584.536573 86.607482 
L 582.621263 88.704227 
L 579.035449 93.177014 
L 576.068698 97.101895 
L 573.402233 100.736787 
L 571.069517 104.203298 
L 559.54507 121.742986 
L 555.033743 129.713021 
L 551.603795 135.566265 
L 548.434506 140.548205 
L 544.321211 148.025124 
L 539.027909 157.021481 
L 536.780611 160.91028 
L 532.669958 168.458026 
L 531.502279 170.379708 
L 520.789747 187.161682 
L 520.220878 188.767983 
L 520.079101 190.184522 
L 520.364416 191.599724 
L 521.734634 194.575791 
L 522.041084 195.642204 
L 521.887859 196.530882 
L 510.017335 219.890406 
L 497.512777 245.608601 
L 481.626705 277.131932 
L 479.123152 282.280916 
L 467.849677 303.957967 
L 460.559168 319.167048 
L 453.613854 333.812187 
L 448.607628 343.919057 
L 445.393429 352.658833 
L 440.528099 367.680825 
L 434.375328 384.188845 
L 433.159216 387.567156 
L 433.021842 387.9253 
L 430.56408 394.335806 
L 427.489896 402.353949 
L 423.427676 414.163338 
L 423.002345 417.234287 
L 422.766343 421.296813 
L 422.499521 436.835975 
L 422.341012 446.099603 
L 422.07419 451.546595 
L 421.588097 462.702505 
L 421.11081 473.639252 
L 420.77442 481.649378 
L 420.625598 486.881216 
L 420.168566 502.920176 
L 420.209073 516.915845 
L 422.714388 539.358628 
L 423.045494 542.322668 
L 424.371682 554.209566 
L 425.559615 564.852315 
L 428.757083 597.158751 
L 428.935846 600.081364 
L 430.704096 617.233509 
L 431.662191 619.520016 
L 433.065872 621.770442 
L 438.496549 629.688358 
L 439.747004 632.441254 
L 442.593993 638.855769 
L 443.36452 641.996208 
L 445.597728 661.024599 
L 449.536664 692.447703 
L 452.732371 702.465036 
L 453.566302 704.544408 
L 452.989507 733.956294 
L 452.865342 740.309337 
L 451.727603 759.595644 
L 449.269841 767.379925 
L 444.467915 777.011051 
L 434.99175 796.035433 
" clip-path="url(#p28377d2711)" style="fill: none; stroke: #4d59c1; stroke-width: 0.5"/>
    <path d="M 443.874389 437.80617 
L 444.639633 434.004234 
L 445.024456 433.148965 
L 445.820521 431.688326 
L 451.154331 424.838159 
L 457.867165 416.524681 
L 458.052092 415.891248 
" clip-path="url(#p28377d2711)" style="fill: none; stroke: #4d59c1; stroke-width: 0.2"/>
    <path d="M 482.48089 431.06692 
L 466.428384 421.862092 
" clip-path="url(#p28377d2711)" style="fill: none; stroke: #4d59c1; stroke-width: 0.2"/>
    <path d="M 685.319786 355.009485 
L 681.328895 369.629233 
L 680.98634 373.804013 
L 681.213536 375.732377 
L 682.182199 379.511595 
L 685.394637 385.582666 
L 686.379151 386.798751 
L 687.472859 387.849128 
L 690.023965 391.014958 
L 693.23024 394.612432 
" clip-path="url(#p28377d2711)" style="fill: none; stroke: #4d59c1; stroke-width: 0.2"/>
    <path d="M 772.425787 378.921336 
L 772.169223 378.850098 
L 769.814491 378.19662 
L 685.319786 355.009485 
L 657.921596 347.49114 
L 656.922112 347.217186 
L 651.500241 345.781939 
L 646.198132 344.378764 
L 644.872825 344.027302 
L 635.664364 339.129552 
L 632.899271 337.659559 
L 627.513505 334.79441 
" clip-path="url(#p28377d2711)" style="fill: none; stroke: #4d59c1; stroke-width: 0.2"/>
    <path d="M 658.141261 299.006632 
L 655.383699 309.050824 
" clip-path="url(#p28377d2711)" style="fill: none; stroke: #4d59c1; stroke-width: 0.2"/>
    <path d="M 651.500241 345.781939 
L 643.355547 364.037915 
" clip-path="url(#p28377d2711)" style="fill: none; stroke: #4d59c1; stroke-width: 0.2"/>
    <path d="M 632.899271 337.659559 
L 627.174473 350.086345 
" clip-path="url(#p28377d2711)" style="fill: none; stroke: #4d59c1; stroke-width: 0.2"/>
    <path d="M 657.921596 347.49114 
L 668.071422 311.035314 
" clip-path="url(#p28377d2711)" style="fill: none; stroke: #4d59c1; stroke-width: 0.2"/>
    <path d="M 635.664364 339.129552 
L 645.956847 314.366853 
" clip-path="url(#p28377d2711)" style="fill: none; stroke: #4d59c1; stroke-width: 0.2"/>
    <path d="M 646.198132 344.378764 
L 655.383699 309.050824 
" clip-path="url(#p28377d2711)" style="fill: none; stroke: #4d59c1; stroke-width: 0.2"/>
    <path d="M 627.513505 334.79441 
L 629.678027 330.355031 
L 626.928395 327.988665 
" clip-path="url(#p28377d2711)" style="fill: none; stroke: #4d59c1; stroke-width: 0.2"/>
    <path d="M 383.588331 294.453794 
L 387.756224 292.908965 
L 395.418347 293.615898 
L 402.491348 291.376163 
L 407.914099 286.426296 
L 419.820728 273.460958 
L 424.535474 266.743091 
L 442.352708 224.574338 
L 459.491877 184.01456 
L 505.879383 192.787745 
" clip-path="url(#p28377d2711)" style="fill: none; stroke: #4d59c1; stroke-width: 0.2"/>
    <path d="M 442.352708 224.574338 
L 444.660767 224.224213 
L 446.786542 224.246931 
L 449.597426 225.309335 
L 457.297415 228.876072 
L 463.320737 230.835172 
L 470.57162 232.110057 
L 472.565304 236.4599 
" clip-path="url(#p28377d2711)" style="fill: none; stroke: #4d59c1; stroke-width: 0.2"/>
    <path d="M 621.734991 79.697179 
L 604.691807 109.007502 
L 602.536972 112.396504 
L 600.906977 114.049578 
L 580.763191 148.673257 
L 574.889571 158.769436 
L 573.570429 162.243965 
L 563.495454 188.781347 
L 557.018213 205.842838 
" clip-path="url(#p28377d2711)" style="fill: none; stroke: #4d59c1; stroke-width: 0.2"/>
    <path d="M 500.391467 215.12362 
L 510.017335 219.890406 
" clip-path="url(#p28377d2711)" style="fill: none; stroke: #4d59c1; stroke-width: 0.2"/>
    <path d="M 459.491877 184.01456 
L 428.895338 175.934945 
" clip-path="url(#p28377d2711)" style="fill: none; stroke: #4d59c1; stroke-width: 0.2"/>
    <path d="M 539.027909 157.021481 
L 542.449931 157.223271 
L 545.284591 157.696341 
L 549.441916 159.867922 
L 553.504136 162.700999 
L 556.055242 164.402182 
L 558.251465 165.723839 
L 561.274574 161.474223 
L 562.96357 161.430123 
L 563.587036 161.414087 
L 564.959896 161.379342 
L 568.904115 161.851076 
L 569.80233 161.87513 
L 572.400108 161.945957 
L 573.570429 162.243965 
" clip-path="url(#p28377d2711)" style="fill: none; stroke: #4d59c1; stroke-width: 0.2"/>
    <path d="M 532.669958 168.458026 
L 532.986975 165.027597 
L 531.981326 163.687231 
L 529.490982 161.579795 
L 528.053839 159.281261 
L 527.527238 157.270043 
L 528.676425 153.0084 
L 528.389348 149.608707 
L 526.664248 150.470658 
L 517.660085 148.891083 
L 504.679122 146.257123 
L 499.889524 144.48645 
L 495.722512 141.468955 
L 491.171558 137.926272 
" clip-path="url(#p28377d2711)" style="fill: none; stroke: #4d59c1; stroke-width: 0.2"/>
    <path d="M 491.171558 137.926272 
L 493.566797 135.532857 
L 494.572445 132.468589 
L 497.446732 129.930847 
L 499.410476 127.536095 
L 508.60661 103.883908 
L 516.989066 83.488424 
L 517.324576 80.855801 
L 517.310696 79.565993 
" clip-path="url(#p28377d2711)" style="fill: none; stroke: #4d59c1; stroke-width: 0.2"/>
    <path d="M 563.495454 188.781347 
L 571.443773 190.721737 
L 590.338864 194.12143 
L 591.945084 194.404738 
L 593.315301 194.829699 
L 594.779743 195.537969 
L 596.669517 196.577655 
" clip-path="url(#p28377d2711)" style="fill: none; stroke: #4d59c1; stroke-width: 0.2"/>
    <path d="M 573.570429 162.243965 
L 609.60557 169.120859 
" clip-path="url(#p28377d2711)" style="fill: none; stroke: #4d59c1; stroke-width: 0.2"/>
    <path d="M 580.763191 148.673257 
L 589.063752 151.431498 
L 595.015745 152.989691 
L 604.321954 154.972845 
L 609.849497 156.059304 
" clip-path="url(#p28377d2711)" style="fill: none; stroke: #4d59c1; stroke-width: 0.2"/>
    <path d="M 618.482045 116.174386 
L 621.081056 116.706178 
" clip-path="url(#p28377d2711)" style="fill: none; stroke: #4d59c1; stroke-width: 0.2"/>
    <path d="M 602.536972 112.396504 
L 605.347856 112.714557 
L 608.866744 113.942669 
L 611.891614 114.724438 
L 616.188955 115.300408 
L 618.482045 116.174386 
" clip-path="url(#p28377d2711)" style="fill: none; stroke: #4d59c1; stroke-width: 0.2"/>
    <path d="M 629.593748 66.687882 
L 628.441661 68.947521 
L 624.326604 75.452908 
L 621.734991 79.697179 
" clip-path="url(#p28377d2711)" style="fill: none; stroke: #4d59c1; stroke-width: 0.2"/>
    <path d="M 606.49699 57.279919 
L 605.337289 59.515512 
" clip-path="url(#p28377d2711)" style="fill: none; stroke: #4d59c1; stroke-width: 0.2"/>
    <path d="M 747.348556 452.099847 
L 747.267541 452.71858 
L 750.407551 458.528061 
" clip-path="url(#p28377d2711)" style="fill: none; stroke: #4d59c1; stroke-width: 0.2"/>
    <path d="M 747.625066 450.97597 
L 747.348556 452.099847 
" clip-path="url(#p28377d2711)" style="fill: none; stroke: #4d59c1; stroke-width: 0.2"/>
    <path d="M 753.550401 446.933868 
L 747.980829 450.017802 
L 747.625066 450.97597 
" clip-path="url(#p28377d2711)" style="fill: none; stroke: #4d59c1; stroke-width: 0.2"/>
    <path d="M 759.25333 425.895364 
L 754.802858 424.810096 
" clip-path="url(#p28377d2711)" style="fill: none; stroke: #4d59c1; stroke-width: 0.2"/>
    <path d="M 753.405341 425.510347 
L 742.597705 422.422026 
L 738.208781 419.623693 
L 726.118107 415.333987 
" clip-path="url(#p28377d2711)" style="fill: none; stroke: #4d59c1; stroke-width: 0.2"/>
    <path d="M 761.319317 398.581413 
L 757.552099 411.923603 
L 753.800732 424.165972 
L 753.405341 425.510347 
L 751.369388 433.607335 
L 735.598675 428.889994 
L 738.208781 419.623693 
L 741.458205 408.085585 
L 745.256244 394.601741 
" clip-path="url(#p28377d2711)" style="fill: none; stroke: #4d59c1; stroke-width: 0.2"/>
    <path d="M 757.552099 411.923603 
L 741.458205 408.085585 
L 693.23024 394.612432 
" clip-path="url(#p28377d2711)" style="fill: none; stroke: #4d59c1; stroke-width: 0.2"/>
    <path d="M 769.814491 378.19662 
L 764.448979 397.155519 
L 763.929424 397.911898 
L 763.147449 398.576067 
L 762.276533 398.666939 
L 761.319317 398.581413 
L 745.256244 394.601741 
" clip-path="url(#p28377d2711)" style="fill: none; stroke: #4d59c1; stroke-width: 0.2"/>
    <path d="M 777.341643 358.445867 
L 772.333015 376.856253 
L 772.169223 378.850098 
L 772.088788 379.823021 
" clip-path="url(#p28377d2711)" style="fill: none; stroke: #4d59c1; stroke-width: 0.5"/>
    <path d="M 315.711479 329.211109 
L 320.22897 331.140809 
L 321.099006 331.512316 
L 348.542987 343.743994 
L 353.177599 345.477249 
L 354.996044 346.156119 
L 361.803983 348.896987 
L 367.781514 353.082458 
L 396.343861 376.715936 
L 397.546764 378.092384 
L 412.705458 389.094613 
" clip-path="url(#p28377d2711)" style="fill: none; stroke: #4d59c1; stroke-width: 0.2"/>
    <path d="M 352.310206 363.623644 
L 352.845612 361.986606 
L 354.333831 358.656404 
L 355.680272 355.916872 
L 356.810966 354.620605 
L 361.803983 348.896987 
" clip-path="url(#p28377d2711)" style="fill: none; stroke: #4d59c1; stroke-width: 0.2"/>
    <path d="M 337.827814 353.085131 
L 339.153121 353.872245 
L 341.193478 355.053585 
L 344.200736 357.202448 
L 345.883567 358.562859 
" clip-path="url(#p28377d2711)" style="fill: none; stroke: #4d59c1; stroke-width: 0.2"/>
    <path d="M 352.047786 361.059174 
L 351.854053 359.228365 
L 351.465708 355.566746 
L 350.067311 351.126031 
L 350.05146 350.086345 
L 350.025922 348.329036 
L 349.541591 346.459472 
L 348.542987 343.743994 
" clip-path="url(#p28377d2711)" style="fill: none; stroke: #4d59c1; stroke-width: 0.2"/>
    <path d="M 329.535179 349.583875 
L 327.439345 350.258735 
L 325.919425 350.801296 
L 322.498283 351.700665 
" clip-path="url(#p28377d2711)" style="fill: none; stroke: #4d59c1; stroke-width: 0.2"/>
    <path d="M 337.827814 353.085131 
L 339.61808 353.693173 
L 341.337016 354.051317 
L 343.306043 353.908327 
L 345.275071 353.049049 
L 347.029232 351.116677 
L 348.353658 349.182968 
L 348.783392 347.572657 
L 349.541591 346.459472 
" clip-path="url(#p28377d2711)" style="fill: none; stroke: #4d59c1; stroke-width: 0.2"/>
    <path d="M 354.796147 346.424726 
L 354.425413 347.083551 
L 353.705961 347.741038 
L 353.191689 348.131255 
L 352.595521 348.707225 
L 351.999353 349.488994 
L 350.05146 350.086345 
" clip-path="url(#p28377d2711)" style="fill: none; stroke: #4d59c1; stroke-width: 0.2"/>
    <path d="M 353.177599 345.477249 
L 353.336108 346.240309 
L 353.212823 347.062169 
L 353.191689 348.131255 
" clip-path="url(#p28377d2711)" style="fill: none; stroke: #4d59c1; stroke-width: 0.2"/>
    <path d="M 354.796147 346.424726 
L 354.996044 346.156119 
" clip-path="url(#p28377d2711)" style="fill: none; stroke: #4d59c1; stroke-width: 0.2"/>
    <path d="M 315.711479 329.211109 
L 312.517533 329.744316 
L 310.476296 331.283799 
L 308.472044 336.009158 
L 309.903904 339.911321 
L 311.980365 342.596063 
L 313.197358 344.028638 
L 318.125211 346.021147 
L 327.410285 348.967814 
L 329.535179 349.583875 
L 332.350466 350.400389 
L 337.827814 353.085131 
" clip-path="url(#p28377d2711)" style="fill: none; stroke: #4d59c1; stroke-width: 0.2"/>
    <path d="M 318.360331 385.27664 
L 316.903855 383.021062 
" clip-path="url(#p28377d2711)" style="fill: none; stroke: #4d59c1; stroke-width: 0.2"/>
    <path d="M 312.22155 376.567191 
L 309.462722 373.048971 
L 309.44486 373.025585 
" clip-path="url(#p28377d2711)" style="fill: none; stroke: #4d59c1; stroke-width: 0.2"/>
    <path d="M 305.068494 367.295876 
L 303.74673 365.565371 
L 302.636291 364.742175 
L 301.740718 364.406749 
L 300.967548 364.504303 
L 293.271482 364.025159 
" clip-path="url(#p28377d2711)" style="fill: none; stroke: #4d59c1; stroke-width: 0.2"/>
    <path d="M 289.671617 363.840241 
L 289.091741 363.318955 
L 288.222586 363.3831 
L 285.944467 363.85617 
L 282.553266 364.282468 
L 278.893482 364.159523 
L 274.495403 363.980613 
" clip-path="url(#p28377d2711)" style="fill: none; stroke: #4d59c1; stroke-width: 0.2"/>
    <path d="M 255.275794 360.026903 
L 255.130419 359.98608 
L 255.057392 359.975796 
" clip-path="url(#p28377d2711)" style="fill: none; stroke: #4d59c1; stroke-width: 0.2"/>
    <path d="M 301.740718 364.406749 
L 301.745121 363.715853 
L 301.283685 362.060106 
L 301.067057 361.327782 
L 302.342169 359.726826 
" clip-path="url(#p28377d2711)" style="fill: none; stroke: #4d59c1; stroke-width: 0.2"/>
    <path d="M 253.513633 354.070026 
L 252.718185 355.529296 
" clip-path="url(#p28377d2711)" style="fill: none; stroke: #4d59c1; stroke-width: 0.2"/>
    <path d="M 289.091741 363.318955 
L 294.069788 359.468909 
L 296.735372 356.039817 
L 300.50259 349.292549 
" clip-path="url(#p28377d2711)" style="fill: none; stroke: #4d59c1; stroke-width: 0.2"/>
    <path d="M 322.498283 351.700665 
L 318.349764 352.618742 
L 313.710749 353.352402 
L 310.644491 354.111453 
L 308.58212 354.898568 
L 306.547927 356.281697 
L 305.042978 357.330738 
L 302.342169 359.726826 
" clip-path="url(#p28377d2711)" style="fill: none; stroke: #4d59c1; stroke-width: 0.2"/>
    <path d="M 326.566668 375.562659 
L 325.111912 375.101616 
L 323.636903 375.118989 
L 322.046534 375.752422 
L 320.065178 376.566264 
L 318.1393 376.701236 
L 316.402752 375.752422 
L 314.91013 374.015158 
L 313.662316 371.953159 
L 311.872051 370.108986 
L 307.53068 365.577398 
L 304.736528 362.67483 
L 304.438004 360.694349 
L 304.668721 358.802067 
L 305.042978 357.330738 
L 305.779161 354.434852 
L 307.353679 348.133927 
L 307.855622 342.836607 
L 307.318455 338.361147 
L 307.349276 337.814577 
L 307.497217 335.175271 
L 307.28235 329.912697 
L 306.280224 325.545481 
" clip-path="url(#p28377d2711)" style="fill: none; stroke: #4d59c1; stroke-width: 0.2"/>
    <path d="M 246.366517 355.906734 
L 245.808359 355.128421 
L 242.77028 353.093149 
L 237.967473 348.562898 
L 228.335442 340.775945 
L 220.988574 335.061681 
L 204.408587 324.030052 
L 200.969833 318.84365 
L 197.168272 313.92051 
" clip-path="url(#p28377d2711)" style="fill: none; stroke: #4d59c1; stroke-width: 0.2"/>
    <path d="M 300.50259 349.292549 
L 303.148801 341.488223 
L 306.280224 325.545481 
L 309.593051 319.938126 
L 310.383833 318.751441 
L 312.60031 315.427921 
L 314.819428 313.996682 
L 318.082942 314.183772 
L 321.799085 314.396253 
" clip-path="url(#p28377d2711)" style="fill: none; stroke: #4d59c1; stroke-width: 0.2"/>
    <path d="M 325.733618 304.717018 
L 376.804168 322.662959 
L 378.059908 323.419337 
L 385.165491 331.118091 
L 386.004705 331.87046 
L 387.810821 332.912819 
L 391.71101 333.826887 
L 399.852182 332.795219 
L 405.949475 342.861998 
L 408.171235 345.902211 
L 411.052567 349.209695 
L 414.548559 352.704269 
L 417.619221 355.160494 
L 420.855436 357.581973 
L 423.402139 358.691149 
L 429.24934 361.23691 
L 440.528099 367.680825 
L 451.598155 371.120608 
L 460.304673 373.150535 
" clip-path="url(#p28377d2711)" style="fill: none; stroke: #4d59c1; stroke-width: 0.2"/>
    <path d="M 361.803983 348.896987 
L 369.673048 332.649556 
L 378.059908 323.419337 
L 383.416614 317.687701 
" clip-path="url(#p28377d2711)" style="fill: none; stroke: #4d59c1; stroke-width: 0.2"/>
    <path d="M 320.22897 331.140809 
L 321.813175 327.53799 
L 325.946723 321.704791 
L 327.482494 317.973681 
" clip-path="url(#p28377d2711)" style="fill: none; stroke: #4d59c1; stroke-width: 0.2"/>
    <path d="M 328.558591 299.355552 
L 331.497162 300.337775 
L 383.416614 317.687701 
L 387.357311 319.004013 
L 399.852182 332.795219 
" clip-path="url(#p28377d2711)" style="fill: none; stroke: #4d59c1; stroke-width: 0.2"/>
    <path d="M 387.357311 319.004013 
L 390.354882 312.2514 
L 405.385008 316.009236 
" clip-path="url(#p28377d2711)" style="fill: none; stroke: #4d59c1; stroke-width: 0.2"/>
    <path d="M 321.401933 315.37313 
L 319.709415 314.905405 
L 319.122053 314.592697 
L 318.743394 314.392244 
L 318.082942 314.183772 
L 317.961418 314.145018 
" clip-path="url(#p28377d2711)" style="fill: none; stroke: #4d59c1; stroke-width: 0.2"/>
    <path d="M 412.332083 311.790356 
L 410.270592 311.930674 
L 408.239922 312.757879 
L 406.987705 313.678629 
L 406.396821 315.214104 
L 406.042818 316.181626 
L 405.385008 316.009236 
" clip-path="url(#p28377d2711)" style="fill: none; stroke: #4d59c1; stroke-width: 0.2"/>
    <path d="M 390.354882 312.2514 
L 391.449471 311.060705 
L 391.629995 310.864261 
L 394.512207 309.565322 
L 399.447985 309.282014 
L 403.699535 309.494495 
L 403.922327 309.697621 
" clip-path="url(#p28377d2711)" style="fill: none; stroke: #4d59c1; stroke-width: 0.2"/>
    <path d="M 390.354882 312.2514 
L 394.751731 310.939097 
L 403.922327 309.697621 
L 407.428006 309.221878 
" clip-path="url(#p28377d2711)" style="fill: none; stroke: #4d59c1; stroke-width: 0.2"/>
    <path d="M 391.449471 311.060705 
L 391.134215 309.58804 
L 390.543331 308.242328 
L 390.543331 306.754962 
L 390.826885 304.062202 
L 390.777571 303.471533 
L 390.525719 300.458047 
" clip-path="url(#p28377d2711)" style="fill: none; stroke: #4d59c1; stroke-width: 0.2"/>
    <path d="M 315.711479 329.211109 
L 313.377001 329.146964 
L 310.684118 329.312672 
L 309.031227 328.438695 
L 306.280224 325.545481 
" clip-path="url(#p28377d2711)" style="fill: none; stroke: #4d59c1; stroke-width: 0.2"/>
    <path d="M 317.961418 314.145018 
L 317.077293 314.062164 
L 315.453462 313.158786 
L 313.685212 311.266504 
L 311.792797 310.197418 
L 310.276399 309.624121 
L 305.484159 307.814694 
L 305.073799 307.659676 
" clip-path="url(#p28377d2711)" style="fill: none; stroke: #4d59c1; stroke-width: 0.2"/>
    <path d="M 305.073799 307.659676 
L 303.630491 305.756703 
" clip-path="url(#p28377d2711)" style="fill: none; stroke: #4d59c1; stroke-width: 0.2"/>
    <path d="M 255.130419 359.98608 
L 254.486699 357.875972 
L 253.489856 355.850054 
L 253.513633 354.070026 
L 253.520677 353.544838 
L 254.362534 351.198195 
L 275.85188 300.654492 
L 275.904716 298.502956 
L 276.940305 256.709721 
L 276.971277 255.221097 
" clip-path="url(#p28377d2711)" style="fill: none; stroke: #4d59c1; stroke-width: 0.2"/>
    <path d="M 266.130907 309.322105 
L 265.329559 307.587513 
L 264.503554 305.036407 
L 264.479777 301.02199 
" clip-path="url(#p28377d2711)" style="fill: none; stroke: #4d59c1; stroke-width: 0.2"/>
    <path d="M 301.532895 306.779017 
L 301.994331 299.942213 
" clip-path="url(#p28377d2711)" style="fill: none; stroke: #4d59c1; stroke-width: 0.2"/>
    <path d="M 317.318579 305.484087 
L 313.85693 299.666924 
L 313.561928 298.734146 
L 313.514375 297.967077 
L 309.83962 294.57273 
" clip-path="url(#p28377d2711)" style="fill: none; stroke: #4d59c1; stroke-width: 0.2"/>
    <path d="M 335.119961 285.619136 
L 333.07256 285.703327 
L 332.490482 285.727381 
L 330.155123 286.081516 
L 329.073817 286.245526 
" clip-path="url(#p28377d2711)" style="fill: none; stroke: #4d59c1; stroke-width: 0.2"/>
    <path d="M 317.094471 288.543093 
L 314.501531 290.284359 
L 309.83962 294.57273 
L 306.833243 296.948773 
L 304.427436 298.798291 
L 304.06815 299.535961 
L 303.81894 300.081194 
L 303.458773 302.926299 
L 303.630491 305.756703 
L 303.295862 306.805744 
L 302.183661 307.158542 
L 301.532895 306.779017 
L 300.092229 307.031588 
L 298.60225 306.479673 
L 296.974896 306.181665 
L 296.447415 305.803476 
L 295.726201 302.736536 
L 295.728843 301.58326 
L 296.621774 301.054062 
L 297.354436 300.91909 
" clip-path="url(#p28377d2711)" style="fill: none; stroke: #4d59c1; stroke-width: 0.2"/>
    <path d="M 276.55437 254.022147 
L 276.297465 254.469986 
L 275.210801 257.138691 
L 273.324551 270.516963 
L 272.355007 280.356562 
L 272.185051 282.072444 
L 271.045551 289.614845 
L 271.154746 294.822629 
L 269.471914 302.147203 
L 266.270923 309.03746 
L 266.130907 309.322105 
L 259.852211 322.090998 
" clip-path="url(#p28377d2711)" style="fill: none; stroke: #4d59c1; stroke-width: 0.2"/>
    <path d="M 309.83962 294.57273 
L 308.066967 293.288491 
L 304.817543 290.780148 
L 301.199147 287.121202 
L 299.320822 285.076575 
L 296.079323 281.549929 
L 293.563876 279.400374 
" clip-path="url(#p28377d2711)" style="fill: none; stroke: #4d59c1; stroke-width: 0.2"/>
    <path d="M 426.033379 370.411002 
L 427.265342 372.038685 
L 428.115124 373.266798 
L 429.24934 375.08558 
L 428.989562 375.959558 
L 428.647008 376.690545 
L 428.32823 377.305269 
L 427.143819 379.305796 
" clip-path="url(#p28377d2711)" style="fill: none; stroke: #4d59c1; stroke-width: 0.2"/>
    <path d="M 460.304673 373.150535 
L 464.776673 374.407032 
" clip-path="url(#p28377d2711)" style="fill: none; stroke: #4d59c1; stroke-width: 0.2"/>
    <path d="M 417.50122 315.279585 
L 429.819971 321.457564 
L 443.346908 328.995956 
L 453.613854 333.812187 
" clip-path="url(#p28377d2711)" style="fill: none; stroke: #4d59c1; stroke-width: 0.2"/>
    <path d="M 444.179958 293.109419 
L 457.661985 299.117681 
L 467.849677 303.957967 
L 478.947032 308.603144 
" clip-path="url(#p28377d2711)" style="fill: none; stroke: #4d59c1; stroke-width: 0.2"/>
    <path d="M 446.997887 255.772934 
L 417.50122 315.279585 
L 405.949475 342.861998 
" clip-path="url(#p28377d2711)" style="fill: none; stroke: #4d59c1; stroke-width: 0.2"/>
    <path d="M 421.778307 375.749749 
L 425.732213 371.244889 
L 426.033379 370.411002 
L 425.838766 369.923232 
L 423.47699 366.025078 
L 421.870771 363.002238 
L 421.004257 359.823044 
L 420.855436 357.581973 
L 420.878331 355.042894 
L 421.209438 352.657497 
L 424.326771 336.025195 
L 429.819971 321.457564 
L 444.179958 293.109419 
L 472.565304 236.4599 
L 473.380742 234.832216 
L 483.26991 214.414014 
L 505.879383 192.787745 
L 520.079101 190.184522 
" clip-path="url(#p28377d2711)" style="fill: none; stroke: #4d59c1; stroke-width: 0.2"/>
    <path d="M 429.24934 361.23691 
L 443.346908 328.995956 
L 457.661985 299.117681 
L 487.256398 241.058305 
L 500.391467 215.12362 
L 506.64991 202.766325 
" clip-path="url(#p28377d2711)" style="fill: none; stroke: #4d59c1; stroke-width: 0.2"/>
    <path d="M 481.626705 277.131932 
L 491.751875 282.091153 
" clip-path="url(#p28377d2711)" style="fill: none; stroke: #4d59c1; stroke-width: 0.2"/>
    <path d="M 522.041084 195.642204 
L 525.334538 196.017721 
L 533.938026 199.126088 
L 507.239034 250.025262 
L 491.751875 282.091153 
L 478.947032 308.603144 
L 463.739904 338.188757 
L 456.10684 356.149398 
" clip-path="url(#p28377d2711)" style="fill: none; stroke: #4d59c1; stroke-width: 0.2"/>
    <path d="M 473.380742 234.832216 
L 487.256398 241.058305 
L 497.512777 245.608601 
L 507.239034 250.025262 
" clip-path="url(#p28377d2711)" style="fill: none; stroke: #4d59c1; stroke-width: 0.2"/>
    <path d="M 310.276399 309.624121 
L 311.440556 309.243259 
L 313.708108 307.991093 
L 315.97566 306.716208 
L 317.318579 305.484087 
L 318.361212 304.213211 
L 319.801878 303.434115 
L 322.778315 302.323602 
L 324.502535 301.30797 
L 325.471198 300.694582 
L 326.93564 299.891432 
L 328.306738 299.833968 
" clip-path="url(#p28377d2711)" style="fill: none; stroke: #4d59c1; stroke-width: 0.2"/>
    <path d="M 331.68473 298.007168 
L 330.562842 295.160727 
" clip-path="url(#p28377d2711)" style="fill: none; stroke: #4d59c1; stroke-width: 0.2"/>
    <path d="M 353.431213 289.188547 
L 350.889794 289.29011 
L 346.201465 289.371628 
L 339.992336 290.605085 
L 335.961817 291.921397 
L 333.577145 294.018142 
L 332.877947 296.074795 
L 331.68473 298.007168 
L 331.497162 300.337775 
" clip-path="url(#p28377d2711)" style="fill: none; stroke: #4d59c1; stroke-width: 0.2"/>
    <path d="M 321.401933 315.37313 
L 321.799085 314.396253 
L 322.204162 313.39933 
L 325.733618 304.717018 
L 328.306738 299.833968 
L 328.558591 299.355552 
L 330.562842 295.160727 
L 335.119961 285.619136 
L 340.900237 273.518422 
" clip-path="url(#p28377d2711)" style="fill: none; stroke: #4d59c1; stroke-width: 0.2"/>
    <path d="M 335.119961 285.619136 
L 336.952495 285.624482 
L 339.787155 285.247629 
L 342.998713 285.152748 
L 345.36137 286.38086 
L 351.171586 288.364014 
L 353.431213 289.188547 
L 354.667579 289.640235 
L 358.446245 290.773466 
L 360.855574 290.583704 
L 362.381658 290.109297 
L 363.883086 289.642908 
" clip-path="url(#p28377d2711)" style="fill: none; stroke: #4d59c1; stroke-width: 0.2"/>
    <path d="M 333.114907 268.994654 
L 335.827085 269.959702 
L 340.900237 273.518422 
L 350.94351 281.936136 
L 356.750204 285.92249 
L 363.883086 289.642908 
L 376.260837 288.111443 
L 383.588331 294.453794 
L 390.525719 300.458047 
L 392.057087 301.783713 
L 407.428006 309.221878 
L 408.667014 309.820566 
L 411.30618 311.098123 
L 412.332083 311.790356 
L 417.50122 315.279585 
" clip-path="url(#p28377d2711)" style="fill: none; stroke: #4d59c1; stroke-width: 0.2"/>
    <path d="M 420.066853 173.926178 
L 427.234521 175.556755 
L 428.895338 175.934945 
" clip-path="url(#p28377d2711)" style="fill: none; stroke: #4d59c1; stroke-width: 0.2"/>
    <path d="M 272.355007 280.356562 
L 270.077769 279.791283 
" clip-path="url(#p28377d2711)" style="fill: none; stroke: #4d59c1; stroke-width: 0.2"/>
    <path d="M 330.155123 286.081516 
L 329.293133 285.309293 
" clip-path="url(#p28377d2711)" style="fill: none; stroke: #4d59c1; stroke-width: 0.2"/>
    <path d="M 333.07256 285.703327 
L 332.070434 284.989712 
L 331.446968 282.652423 
L 331.477789 280.502225 
L 330.686571 279.360896 
" clip-path="url(#p28377d2711)" style="fill: none; stroke: #4d59c1; stroke-width: 0.2"/>
   </g>
   <g id="LineCollection_2">
    <path d="M 439.243198 799.907967 
L 439.384196 799.626225 
" clip-path="url(#p28377d2711)" style="fill: none; stroke-dasharray: 3.7,1.6; stroke-dashoffset: 0; stroke: #4d59c1"/>
    <path d="M 438.160158 798.889892 
L 437.821092 799.611727 
" clip-path="url(#p28377d2711)" style="fill: none; stroke-dasharray: 3.7,1.6; stroke-dashoffset: 0; stroke: #4d59c1"/>
    <path d="M 439.384196 799.626225 
L 439.739079 798.976755 
" clip-path="url(#p28377d2711)" style="fill: none; stroke-dasharray: 3.7,1.6; stroke-dashoffset: 0; stroke: #4d59c1"/>
    <path d="M 486.224332 733.909522 
L 487.574766 737.223539 
" clip-path="url(#p28377d2711)" style="fill: none; stroke-dasharray: 3.7,1.6; stroke-dashoffset: 0; stroke: #4d59c1"/>
    <path d="M 469.240148 692.868655 
L 469.38897 696.857681 
L 469.539553 699.558459 
L 470.169184 702.752353 
L 471.008399 705.871411 
L 472.220988 708.614952 
L 473.551579 710.845333 
L 475.783026 713.913609 
L 478.737448 718.914257 
L 481.270061 723.126455 
L 482.692235 725.860642 
L 486.224332 733.909522 
" clip-path="url(#p28377d2711)" style="fill: none; stroke-dasharray: 3.7,1.6; stroke-dashoffset: 0; stroke: #4d59c1"/>
    <path d="M 478.737448 718.914257 
L 476.449642 713.551456 
L 475.839385 711.811519 
L 475.303098 709.813665 
L 474.914752 707.88931 
L 474.766811 704.13281 
L 474.97023 701.28236 
L 475.775981 696.308439 
L 478.423073 682.101625 
L 479.524707 677.722382 
L 480.628102 673.336458 
L 481.328181 669.306005 
L 481.58972 667.290778 
L 482.86131 653.351236 
L 482.990759 651.111501 
L 483.101715 647.910925 
L 482.581279 639.545329 
L 482.282754 635.601739 
L 482.24753 635.13535 
L 482.024738 632.480009 
" clip-path="url(#p28377d2711)" style="fill: none; stroke-dasharray: 3.7,1.6; stroke-dashoffset: 0; stroke: #4d59c1"/>
    <path d="M 482.26162 668.639162 
L 481.956931 672.912833 
L 482.074052 675.38643 
L 482.178843 676.511643 
L 483.492702 682.229915 
" clip-path="url(#p28377d2711)" style="fill: none; stroke-dasharray: 3.7,1.6; stroke-dashoffset: 0; stroke: #4d59c1"/>
    <path d="M 498.024407 673.760083 
L 500.987635 659.184435 
" clip-path="url(#p28377d2711)" style="fill: none; stroke-dasharray: 3.7,1.6; stroke-dashoffset: 0; stroke: #4d59c1"/>
    <path d="M 482.24753 635.13535 
L 482.438621 636.082828 
L 483.106118 639.391648 
L 483.457478 640.741369 
L 484.168125 642.504024 
L 485.09716 644.361561 
L 488.798333 649.593399 
L 489.53892 650.45535 
L 491.098468 652.429149 
L 493.987725 656.056023 
L 495.303345 657.747851 
L 496.081798 658.923845 
L 496.784519 660.12924 
L 497.465225 661.641996 
L 498.026169 663.234934 
L 498.578307 665.725904 
L 498.541321 667.071615 
L 498.024407 673.760083 
L 496.740489 688.088505 
" clip-path="url(#p28377d2711)" style="fill: none; stroke-dasharray: 3.7,1.6; stroke-dashoffset: 0; stroke: #4d59c1"/>
    <path d="M 479.524707 677.722382 
L 480.87291 673.895055 
L 482.26162 668.639162 
L 483.617748 653.336536 
L 483.821167 651.024638 
L 483.83966 648.119397 
L 483.266388 643.696055 
L 482.581279 639.545329 
" clip-path="url(#p28377d2711)" style="fill: none; stroke-dasharray: 3.7,1.6; stroke-dashoffset: 0; stroke: #4d59c1"/>
    <path d="M 488.798333 649.593399 
L 489.395382 650.571613 
L 490.056715 651.803734 
L 490.987512 653.857715 
L 491.658531 656.061368 
L 493.840664 665.06307 
" clip-path="url(#p28377d2711)" style="fill: none; stroke-dasharray: 3.7,1.6; stroke-dashoffset: 0; stroke: #4d59c1"/>
    <path d="M 438.4261 798.363367 
L 438.160158 798.889892 
" clip-path="url(#p28377d2711)" style="fill: none; stroke-dasharray: 3.7,1.6; stroke-dashoffset: 0; stroke: #4d59c1"/>
    <path d="M 468.533905 710.749115 
L 468.115619 717.080775 
L 467.465734 722.256487 
L 466.323592 728.351612 
L 463.906338 737.076689 
" clip-path="url(#p28377d2711)" style="fill: none; stroke-dasharray: 3.7,1.6; stroke-dashoffset: 0; stroke: #4d59c1"/>
    <path d="M 468.94955 703.88692 
L 468.533905 710.749115 
" clip-path="url(#p28377d2711)" style="fill: none; stroke-dasharray: 3.7,1.6; stroke-dashoffset: 0; stroke: #4d59c1"/>
    <path d="M 469.553643 687.286691 
L 469.883869 692.835246 
L 469.948153 696.208212 
L 470.11899 698.23012 
L 470.726606 701.784831 
L 471.611611 705.310141 
L 472.482527 707.646093 
L 473.592967 710.030155 
L 475.783026 713.913609 
" clip-path="url(#p28377d2711)" style="fill: none; stroke-dasharray: 3.7,1.6; stroke-dashoffset: 0; stroke: #4d59c1"/>
    <path d="M 470.723083 677.342857 
L 470.2502 687.350836 
L 469.883869 692.835246 
" clip-path="url(#p28377d2711)" style="fill: none; stroke-dasharray: 3.7,1.6; stroke-dashoffset: 0; stroke: #4d59c1"/>
    <path d="M 463.232677 665.56955 
L 461.620294 657.346944 
L 460.926379 651.499045 
L 457.656701 621.769105 
L 457.297415 617.641098 
L 457.279803 614.845439 
L 457.262191 612.47875 
" clip-path="url(#p28377d2711)" style="fill: none; stroke-dasharray: 3.7,1.6; stroke-dashoffset: 0; stroke: #4d59c1"/>
    <path d="M 465.563632 676.162854 
L 464.621388 672.022819 
L 463.232677 665.56955 
L 462.22879 657.809323 
L 460.355748 639.157786 
L 457.262191 612.47875 
L 457.082548 609.84479 
L 455.511553 593.912739 
" clip-path="url(#p28377d2711)" style="fill: none; stroke-dasharray: 3.7,1.6; stroke-dashoffset: 0; stroke: #4d59c1"/>
    <path d="M 469.240148 692.868655 
L 469.553643 687.286691 
L 469.823107 682.724367 
L 470.081124 678.465397 
L 469.850406 673.345812 
L 468.932818 667.596804 
L 464.264743 624.813327 
L 457.454163 562.38139 
L 456.901144 556.927717 
L 455.714972 547.622661 
L 455.110879 544.510285 
" clip-path="url(#p28377d2711)" style="fill: none; stroke-dasharray: 3.7,1.6; stroke-dashoffset: 0; stroke: #4d59c1"/>
    <path d="M 469.850406 673.345812 
L 469.837197 671.575139 
L 469.620569 668.516217 
L 469.273611 665.516096 
L 464.853867 624.749182 
L 458.919485 570.021345 
L 458.1516 565.185068 
L 457.454163 562.38139 
" clip-path="url(#p28377d2711)" style="fill: none; stroke-dasharray: 3.7,1.6; stroke-dashoffset: 0; stroke: #4d59c1"/>
    <path d="M 470.081124 678.465397 
L 470.383171 673.229549 
L 469.91469 665.403841 
L 467.712303 644.548651 
L 465.524005 624.677019 
L 459.58434 570.740305 
L 458.647379 564.952542 
L 457.429506 559.188833 
L 456.901144 556.927717 
" clip-path="url(#p28377d2711)" style="fill: none; stroke-dasharray: 3.7,1.6; stroke-dashoffset: 0; stroke: #4d59c1"/>
    <path d="M 470.383171 673.229549 
L 470.546963 667.886793 
L 470.429843 664.372174 
L 469.727122 657.62357 
L 466.133382 624.611537 
L 465.229884 616.312759 
L 460.287061 570.950113 
L 459.771909 567.248403 
L 459.210084 564.765452 
L 458.436915 562.585853 
L 457.429506 559.188833 
" clip-path="url(#p28377d2711)" style="fill: none; stroke-dasharray: 3.7,1.6; stroke-dashoffset: 0; stroke: #4d59c1"/>
    <path d="M 450.613641 520.642945 
L 450.201519 525.815984 
L 450.126668 530.446462 
L 450.389087 534.344616 
L 450.932419 541.222846 
L 451.551483 547.992832 
L 451.719678 549.826314 
L 452.975417 561.109178 
L 454.380859 571.981781 
L 455.167237 577.810971 
L 459.121143 616.930156 
L 462.269298 645.780772 
L 464.511312 667.043552 
L 465.563632 676.162854 
L 466.903029 682.414333 
L 467.510645 686.205578 
L 467.846154 690.147832 
L 468.182545 700.298801 
L 468.496039 708.656379 
L 468.533905 710.749115 
" clip-path="url(#p28377d2711)" style="fill: none; stroke-dasharray: 3.7,1.6; stroke-dashoffset: 0; stroke: #4d59c1"/>
    <path d="M 451.551483 547.992832 
L 452.617893 552.088767 
L 454.257575 565.257231 
L 455.146984 571.348347 
L 455.897257 577.557063 
L 457.232251 590.443556 
L 464.043712 655.524153 
L 465.74944 672.208572 
L 466.903029 682.414333 
" clip-path="url(#p28377d2711)" style="fill: none; stroke-dasharray: 3.7,1.6; stroke-dashoffset: 0; stroke: #4d59c1"/>
    <path d="M 472.168152 663.651877 
L 472.48693 659.096235 
L 472.261496 654.972237 
L 471.749866 651.40149 
L 468.767265 624.326893 
L 462.479762 567.245731 
L 462.105506 565.426948 
L 461.33674 563.046896 
" clip-path="url(#p28377d2711)" style="fill: none; stroke-dasharray: 3.7,1.6; stroke-dashoffset: 0; stroke: #4d59c1"/>
    <path d="M 471.39058 667.64224 
L 471.586955 663.315115 
L 471.306042 659.152362 
L 467.525615 624.460529 
L 461.237232 566.753951 
L 460.854169 563.801938 
L 459.547355 558.92958 
" clip-path="url(#p28377d2711)" style="fill: none; stroke-dasharray: 3.7,1.6; stroke-dashoffset: 0; stroke: #4d59c1"/>
    <path d="M 469.823107 682.724367 
L 470.723083 677.342857 
L 471.132564 672.204563 
L 471.347431 669.394204 
L 471.39058 667.64224 
L 471.114952 662.465192 
L 466.956746 624.522001 
L 460.330211 564.067873 
L 459.547355 558.92958 
L 457.15828 549.538997 
L 455.884929 544.896492 
L 455.256178 542.25986 
L 454.830847 539.857089 
" clip-path="url(#p28377d2711)" style="fill: none; stroke-dasharray: 3.7,1.6; stroke-dashoffset: 0; stroke: #4d59c1"/>
    <path d="M 471.132564 672.204563 
L 471.980584 666.913925 
L 472.168152 663.651877 
L 471.62482 656.209704 
L 468.178142 624.389702 
L 461.917937 566.608288 
L 461.33674 563.046896 
L 460.103015 558.266746 
L 459.144039 554.789545 
L 457.15828 549.538997 
" clip-path="url(#p28377d2711)" style="fill: none; stroke-dasharray: 3.7,1.6; stroke-dashoffset: 0; stroke: #4d59c1"/>
    <path d="M 468.065425 683.348446 
L 467.21124 678.431988 
L 465.693081 665.665768 
L 463.706441 647.125147 
L 462.057953 632.278219 
L 457.826657 590.364711 
L 456.505754 577.487572 
L 455.756361 571.114485 
L 454.80531 564.629143 
L 454.037424 558.725117 
L 453.456227 553.40107 
L 453.399868 549.259699 
L 453.587436 544.535676 
L 454.006603 536.54426 
" clip-path="url(#p28377d2711)" style="fill: none; stroke-dasharray: 3.7,1.6; stroke-dashoffset: 0; stroke: #4d59c1"/>
    <path d="M 472.48693 659.096235 
L 472.711484 655.140618 
L 472.61814 652.403758 
L 469.501687 624.246712 
L 467.140792 602.922459 
L 463.350678 568.958941 
L 463.094423 567.185595 
L 462.540523 564.752088 
L 461.284784 561.440595 
L 460.103015 558.266746 
" clip-path="url(#p28377d2711)" style="fill: none; stroke-dasharray: 3.7,1.6; stroke-dashoffset: 0; stroke: #4d59c1"/>
    <path d="M 467.140792 602.922459 
L 467.19715 595.968056 
L 466.165084 587.075935 
L 465.265108 579.3264 
" clip-path="url(#p28377d2711)" style="fill: none; stroke-dasharray: 3.7,1.6; stroke-dashoffset: 0; stroke: #4d59c1"/>
    <path d="M 468.788399 698.262193 
L 469.240148 692.868655 
L 468.961878 686.840348 
L 469.220775 682.15107 
L 469.267447 678.744696 
L 469.131834 675.425184 
L 463.661531 624.878809 
L 455.990601 554.003767 
L 455.110879 544.510285 
L 454.830847 539.857089 
L 453.954648 520.749854 
L 453.927349 515.707778 
L 454.04535 511.804278 
L 454.561383 506.835702 
L 456.039034 497.417057 
L 456.681874 493.116659 
L 456.946055 491.027933 
L 457.773821 481.43957 
" clip-path="url(#p28377d2711)" style="fill: none; stroke-dasharray: 3.7,1.6; stroke-dashoffset: 0; stroke: #4d59c1"/>
    <path d="M 467.19715 595.968056 
L 467.18218 588.372202 
L 467.063299 586.934282 
L 466.634445 582.045887 
" clip-path="url(#p28377d2711)" style="fill: none; stroke-dasharray: 3.7,1.6; stroke-dashoffset: 0; stroke: #4d59c1"/>
    <path d="M 439.739079 798.976755 
L 442.69262 793.678099 
L 446.674705 786.809223 
L 454.918908 774.173965 
L 458.781231 767.581715 
L 460.44557 764.357085 
L 461.880952 760.961401 
L 463.913383 755.462291 
L 465.388392 750.69016 
L 466.51028 746.059682 
L 467.759855 739.424668 
L 468.626368 733.123744 
L 469.085162 726.392513 
L 469.290343 713.437866 
L 468.94955 703.88692 
L 468.788399 698.262193 
L 468.547114 692.197804 
L 468.065425 683.348446 
L 467.639213 675.549466 
L 466.759491 666.164229 
L 462.400508 625.015117 
L 462.187402 623.041317 
L 455.802152 565.592657 
L 455.271149 559.800885 
L 454.483009 547.392808 
L 454.006603 536.54426 
L 453.527555 525.901511 
L 453.310046 520.966344 
L 453.255449 513.818169 
L 453.435973 509.750297 
L 454.153664 503.995943 
L 455.938645 492.282772 
L 457.773821 481.43957 
L 459.704983 469.818607 
L 461.079604 461.664155 
L 461.812265 455.488849 
L 462.307164 449.257415 
L 462.508822 443.466979 
L 463.039825 431.684317 
L 463.377977 422.842978 
L 463.593724 418.3595 
L 464.118919 405.063517 
" clip-path="url(#p28377d2711)" style="fill: none; stroke-dasharray: 3.7,1.6; stroke-dashoffset: 0; stroke: #4d59c1"/>
    <path d="M 464.092145 375.052171 
L 463.394708 382.275182 
L 462.736898 396.408496 
L 461.793772 418.304709 
L 461.664324 422.788187 
L 460.92814 440.882464 
L 459.80361 458.132163 
L 458.930053 463.362665 
L 457.880374 468.174888 
L 455.520359 478.633219 
L 451.801574 494.795124 
L 449.958473 502.938885 
L 448.450881 510.61893 
L 447.662742 515.570133 
L 446.983797 521.232279 
L 446.55054 526.156755 
L 446.273151 531.713328 
L 446.455435 542.973474 
L 447.016379 551.735969 
L 447.73319 558.539363 
L 455.103834 623.539779 
L 463.87904 698.929035 
L 464.711209 706.325772 
L 465.15151 712.216435 
L 465.322347 721.937098 
L 465.125973 726.866919 
L 464.634597 731.759323 
L 464.313177 734.270338 
L 463.906338 737.076689 
L 462.362642 743.928192 
L 461.038215 748.975613 
L 459.838835 752.621196 
L 457.772941 758.069524 
L 455.226238 763.858624 
L 451.564692 771.425078 
L 442.701426 789.089048 
L 438.4261 798.363367 
" clip-path="url(#p28377d2711)" style="fill: none; stroke-dasharray: 3.7,1.6; stroke-dashoffset: 0; stroke: #4d59c1"/>
    <path d="M 452.617893 552.088767 
L 454.037424 558.725117 
" clip-path="url(#p28377d2711)" style="fill: none; stroke-dasharray: 3.7,1.6; stroke-dashoffset: 0; stroke: #4d59c1"/>
    <path d="M 451.071555 517.656187 
L 450.613641 520.642945 
L 449.528739 527.044096 
L 448.614673 533.252812 
L 448.193745 536.885031 
L 447.818608 542.202396 
L 447.654816 547.849842 
L 447.701488 554.29242 
L 447.73319 558.539363 
" clip-path="url(#p28377d2711)" style="fill: none; stroke-dasharray: 3.7,1.6; stroke-dashoffset: 0; stroke: #4d59c1"/>
    <path d="M 459.144039 554.789545 
L 457.209355 547.086782 
L 456.604381 544.178869 
L 455.194536 534.464888 
L 454.711966 523.669794 
L 454.770966 514.145576 
L 455.092386 509.511089 
L 455.646285 504.705549 
L 456.039034 497.417057 
" clip-path="url(#p28377d2711)" style="fill: none; stroke-dasharray: 3.7,1.6; stroke-dashoffset: 0; stroke: #4d59c1"/>
    <path d="M 453.527555 525.901511 
L 452.559773 519.564505 
L 452.337861 516.7341 
L 452.285025 514.681456 
L 452.334339 512.455084 
L 452.395981 509.748961 
" clip-path="url(#p28377d2711)" style="fill: none; stroke-dasharray: 3.7,1.6; stroke-dashoffset: 0; stroke: #4d59c1"/>
    <path d="M 459.977089 476.918673 
L 457.71394 491.220368 
L 457.400446 494.729642 
L 457.238415 498.095926 
L 457.360819 500.807395 
L 457.429506 502.312133 
L 457.638209 503.937143 
L 458.388482 509.262527 
L 464.498103 539.968007 
L 464.854747 541.915079 
L 465.026465 542.851866 
L 467.671795 554.98198 
" clip-path="url(#p28377d2711)" style="fill: none; stroke-dasharray: 3.7,1.6; stroke-dashoffset: 0; stroke: #4d59c1"/>
    <path d="M 464.498103 539.968007 
L 464.412685 535.60881 
L 464.514835 533.332993 
L 464.918151 531.397948 
L 465.50111 529.497648 
L 466.121054 528.145255 
L 467.403211 525.701057 
L 468.543592 524.033283 
L 471.712881 520.912889 
L 480.223025 514.388793 
L 486.008584 508.764066 
L 488.20921 506.963993 
" clip-path="url(#p28377d2711)" style="fill: none; stroke-dasharray: 3.7,1.6; stroke-dashoffset: 0; stroke: #4d59c1"/>
    <path d="M 480.223025 514.388793 
L 473.847462 520.513318 
L 471.239997 523.145942 
L 469.646987 524.88187 
L 468.810414 525.971001 
L 467.832945 527.485094 
" clip-path="url(#p28377d2711)" style="fill: none; stroke-dasharray: 3.7,1.6; stroke-dashoffset: 0; stroke: #4d59c1"/>
    <path d="M 452.395981 509.748961 
L 451.071555 517.656187 
" clip-path="url(#p28377d2711)" style="fill: none; stroke-dasharray: 3.7,1.6; stroke-dashoffset: 0; stroke: #4d59c1"/>
    <path d="M 453.701034 497.143103 
L 453.332942 503.934471 
" clip-path="url(#p28377d2711)" style="fill: none; stroke-dasharray: 3.7,1.6; stroke-dashoffset: 0; stroke: #4d59c1"/>
    <path d="M 455.520359 478.633219 
L 454.197694 490.566889 
L 453.758273 496.100745 
L 453.701034 497.143103 
L 451.842082 510.09775 
L 451.541796 513.36648 
L 451.071555 517.656187 
" clip-path="url(#p28377d2711)" style="fill: none; stroke-dasharray: 3.7,1.6; stroke-dashoffset: 0; stroke: #4d59c1"/>
    <path d="M 453.749467 501.295165 
L 455.938645 492.282772 
" clip-path="url(#p28377d2711)" style="fill: none; stroke-dasharray: 3.7,1.6; stroke-dashoffset: 0; stroke: #4d59c1"/>
    <path d="M 458.670275 481.55316 
L 459.977089 476.918673 
L 462.458627 462.383116 
L 463.093542 457.818119 
L 463.407917 454.2006 
" clip-path="url(#p28377d2711)" style="fill: none; stroke-dasharray: 3.7,1.6; stroke-dashoffset: 0; stroke: #4d59c1"/>
    <path d="M 456.681874 493.116659 
L 458.670275 481.55316 
L 461.784966 462.297589 
L 462.544046 456.596689 
L 462.832003 452.629044 
L 463.486291 441.604097 
L 464.552701 427.335811 
L 464.680388 422.808233 
L 464.862673 420.945351 
L 464.884688 420.76227 
L 465.096913 419.018324 
L 465.802276 415.388777 
L 466.46625 412.992689 
L 467.382957 410.557846 
" clip-path="url(#p28377d2711)" style="fill: none; stroke-dasharray: 3.7,1.6; stroke-dashoffset: 0; stroke: #4d59c1"/>
    <path d="M 452.395981 509.748961 
L 453.332942 503.934471 
L 453.749467 501.295165 
L 454.792981 494.404907 
L 456.980398 481.221743 
L 458.652663 471.033356 
L 460.245673 462.038335 
L 460.920215 457.465321 
L 461.370203 453.380077 
L 461.688981 449.575468 
L 462.063237 441.535943 
L 462.588076 429.654391 
L 462.839048 422.83496 
L 462.953526 418.3154 
L 463.417813 404.974008 
" clip-path="url(#p28377d2711)" style="fill: none; stroke-dasharray: 3.7,1.6; stroke-dashoffset: 0; stroke: #4d59c1"/>
    <path d="M 464.343117 372.808427 
L 464.092145 375.052171 
" clip-path="url(#p28377d2711)" style="fill: none; stroke-dasharray: 3.7,1.6; stroke-dashoffset: 0; stroke: #4d59c1"/>
    <path d="M 473.847462 520.513318 
L 476.368627 518.666473 
L 478.908285 517.183116 
L 479.886635 516.740782 
L 482.142739 515.968368 
L 482.96258 515.636951 
L 483.846705 515.147844 
L 486.197033 513.411916 
L 490.629987 509.267872 
" clip-path="url(#p28377d2711)" style="fill: none; stroke-dasharray: 3.7,1.6; stroke-dashoffset: 0; stroke: #4d59c1"/>
    <path d="M 467.382957 410.557846 
L 468.348979 408.505201 
L 469.444448 406.45122 
L 469.883959 405.799526 
" clip-path="url(#p28377d2711)" style="fill: none; stroke-dasharray: 3.7,1.6; stroke-dashoffset: 0; stroke: #4d59c1"/>
    <path d="M 552.275126 204.593508 
L 553.078805 202.422881 
L 559.205157 186.581703 
L 563.382736 175.695737 
L 565.888932 169.960091 
L 569.80233 161.87513 
L 571.319608 158.740036 
L 574.495061 152.671638 
L 580.287666 142.314869 
L 590.286028 125.249588 
L 598.055585 111.636117 
L 606.939986 96.632834 
L 612.231527 87.251606 
L 617.856817 77.424035 
L 618.887122 75.670735 
L 625.14521 64.875866 
" clip-path="url(#p28377d2711)" style="fill: none; stroke-dasharray: 3.7,1.6; stroke-dashoffset: 0; stroke: #4d59c1"/>
    <path d="M 522.011695 246.9974 
L 522.21104 246.330234 
L 524.000425 241.297513 
L 525.99499 236.545426 
L 538.335755 211.776045 
L 552.745937 182.853266 
L 559.058977 170.369017 
L 563.587036 161.414087 
L 565.571915 157.489206 
L 576.737956 135.294985 
L 582.180961 125.475432 
L 586.021269 119.158471 
L 591.576992 110.641867 
L 600.916663 97.132632 
L 615.121665 76.562085 
L 623.596195 64.244909 
" clip-path="url(#p28377d2711)" style="fill: none; stroke-dasharray: 3.7,1.6; stroke-dashoffset: 0; stroke: #4d59c1"/>
    <path d="M 623.147481 64.062135 
L 610.796145 81.760515 
L 593.717737 106.610077 
L 589.190558 113.287854 
L 585.005054 119.69836 
L 581.789974 125.140006 
L 576.621717 134.429025 
L 565.116643 157.113689 
L 562.96357 161.430123 
L 521.047764 245.486993 
L 472.134689 344.422863 
L 469.489359 351.9813 
L 466.844029 361.428009 
L 465.404243 367.239827 
L 464.343117 372.808427 
" clip-path="url(#p28377d2711)" style="fill: none; stroke-dasharray: 3.7,1.6; stroke-dashoffset: 0; stroke: #4d59c1"/>
   </g>
  </g>
 </g>
 <defs>
  <clipPath id="p28377d2711">
   <rect x="7.2" y="7.2" width="807.580088" height="831.6"/>
  </clipPath>
 </defs>
</svg>
