<?xml version="1.0" encoding="utf-8" standalone="no"?>
<!DOCTYPE svg PUBLIC "-//W3C//DTD SVG 1.1//EN"
  "http://www.w3.org/Graphics/SVG/1.1/DTD/svg11.dtd">
<svg xmlns:xlink="http://www.w3.org/1999/xlink" width="851.4pt" height="591.347727pt" viewBox="0 0 851.4 591.347727" xmlns="http://www.w3.org/2000/svg" version="1.1">
 <metadata>
  <rdf:RDF xmlns:dc="http://purl.org/dc/elements/1.1/" xmlns:cc="http://creativecommons.org/ns#" xmlns:rdf="http://www.w3.org/1999/02/22-rdf-syntax-ns#">
   <cc:Work>
    <dc:type rdf:resource="http://purl.org/dc/dcmitype/StillImage"/>
    <dc:date>2025-03-16T14:37:55.591213</dc:date>
    <dc:format>image/svg+xml</dc:format>
    <dc:creator>
     <cc:Agent>
      <dc:title>Matplotlib v3.10.1, https://matplotlib.org/</dc:title>
     </cc:Agent>
    </dc:creator>
   </cc:Work>
  </rdf:RDF>
 </metadata>
 <defs>
  <style type="text/css">*{stroke-linejoin: round; stroke-linecap: butt}</style>
 </defs>
 <g id="figure_1">
  <g id="patch_1">
   <path d="M 0 591.347727 
L 851.4 591.347727 
L 851.4 0 
L 0 0 
z
" style="fill: #ffffff"/>
  </g>
  <g id="axes_1">
   <g id="PatchCollection_1">
    <path d="M 453.506252 384.596981 
L 468.743788 394.624352 
L 511.504224 410.289018 
L 574.962586 430.982882 
L 604.897551 438.571667 
L 637.868567 454.987144 
L 673.994293 473.208293 
L 691.652076 490.315635 
L 703.24185 507.975226 
L 726.969688 550.746682 
L 735.523412 557.922831 
L 753.181196 525.63792 
L 746.83495 507.975226 
L 754.836293 495.835033 
L 757.254495 473.127628 
L 781.598136 444.233781 
L 797.877012 448.924804 
L 806.154545 432.093587 
L 753.181196 425.745814 
L 733.039743 424.368292 
L 681.995635 405.6042 
L 649.990264 376.63279 
L 635.09234 358.973199 
L 608.604643 287.236538 
L 589.842097 266.818799 
L 560.596585 247.505559 
L 556.130482 244.570568 
L 531.627264 228.471548 
L 488.584499 151.773944 
L 455.200221 112.598318 
L 378.220796 65.148249 
L 326.452456 39.285573 
L 297.104651 33.424897 
L 262.767004 43.169938 
L 230.720715 43.827674 
L 203.191677 46.210416 
L 186.100595 58.204791 
L 166.407185 107.472941 
L 161.578965 131.613715 
L 150.602948 154.001559 
L 135.457476 150.926954 
L 114.387205 142.149901 
L 113.069673 136.881808 
L 107.142828 135.346056 
L 104.761452 132.212503 
L 50.280306 121.822135 
L 45.245455 151.587792 
L 50.951347 154.001559 
L 47.665702 167.739555 
L 144.019383 201.845649 
L 180.454033 203.60168 
L 205.916757 241.793805 
L 337.174787 281.301401 
L 359.564635 301.933215 
L 380.661503 315.320625 
L 434.412278 353.95641 
L 466.192605 370.064738 
L 453.506252 384.596981 
" clip-path="url(#pecac1f77d6)" style="fill: #d1d4f2"/>
   </g>
   <g id="PatchCollection_2">
    <path d="M 668.883744 441.432198 
L 667.527342 443.926631 
L 664.978205 442.5398 
L 666.334608 440.045368 
L 668.883744 441.432198 
" clip-path="url(#pecac1f77d6)" style="fill: #4d59c1"/>
    <path d="M 684.422021 448.437707 
L 683.030839 449.815229 
L 680.843819 447.603127 
L 682.235001 446.228707 
L 684.422021 448.437707 
" clip-path="url(#pecac1f77d6)" style="fill: #4d59c1"/>
    <path d="M 678.728403 444.42924 
L 677.541807 445.924659 
L 675.581877 444.370292 
L 676.768473 442.874874 
L 678.728403 444.42924 
" clip-path="url(#pecac1f77d6)" style="fill: #4d59c1"/>
    <path d="M 673.43782 443.548122 
L 672.216444 445.375511 
L 670.395632 444.15932 
L 671.619054 442.331931 
L 673.43782 443.548122 
" clip-path="url(#pecac1f77d6)" style="fill: #4d59c1"/>
    <path d="M 568.033272 357.902826 
L 567.051261 361.01156 
L 564.074541 360.071494 
L 565.054506 356.96276 
L 568.033272 357.902826 
" clip-path="url(#pecac1f77d6)" style="fill: #4d59c1"/>
    <path d="M 521.217949 331.050443 
L 519.941335 333.700003 
L 517.84024 332.700989 
L 519.141405 329.998686 
L 521.217949 331.050443 
" clip-path="url(#pecac1f77d6)" style="fill: #4d59c1"/>
    <path d="M 371.976844 233.544182 
L 369.550459 237.344779 
L 366.348694 235.017883 
L 368.775079 231.266926 
L 371.976844 233.544182 
" clip-path="url(#pecac1f77d6)" style="fill: #4d59c1"/>
    <path d="M 346.049711 229.864583 
L 345.178176 231.940175 
L 343.889287 231.400335 
L 344.760821 229.324743 
L 346.049711 229.864583 
" clip-path="url(#pecac1f77d6)" style="fill: #4d59c1"/>
    <path d="M 349.010064 227.388765 
L 348.371757 230.246194 
L 345.736695 229.659816 
L 346.375002 226.799285 
L 349.010064 227.388765 
" clip-path="url(#pecac1f77d6)" style="fill: #4d59c1"/>
    <path d="M 343.752214 227.429098 
L 343.044348 229.172719 
L 340.949392 228.322626 
L 341.119198 227.906888 
L 339.210414 227.134358 
L 339.75052 225.806476 
L 343.752214 227.429098 
" clip-path="url(#pecac1f77d6)" style="fill: #4d59c1"/>
    <path d="M 265.741679 225.18597 
L 268.24376 225.685477 
L 267.593178 228.4126 
L 265.166793 227.83553 
L 265.741679 225.18597 
" clip-path="url(#pecac1f77d6)" style="fill: #4d59c1"/>
    <path d="M 260.238326 223.510605 
L 262.990002 223.960472 
L 262.490813 226.712414 
L 259.863934 226.135344 
L 260.238326 223.510605 
" clip-path="url(#pecac1f77d6)" style="fill: #4d59c1"/>
    <path d="M 304.561796 217.007706 
L 304.162855 219.610727 
L 301.509379 219.210501 
L 301.910367 216.483378 
L 304.561796 217.007706 
" clip-path="url(#pecac1f77d6)" style="fill: #4d59c1"/>
    <path d="M 295.449554 219.095707 
L 292.736749 218.57138 
L 293.31368 215.592953 
L 294.737596 215.869078 
L 295.220418 213.374645 
L 296.509307 213.62595 
L 295.449554 219.095707 
" clip-path="url(#pecac1f77d6)" style="fill: #4d59c1"/>
    <path d="M 301.76102 214.181302 
L 301.335481 217.134909 
L 298.708602 216.784323 
L 299.258938 213.756256 
L 301.76102 214.181302 
" clip-path="url(#pecac1f77d6)" style="fill: #4d59c1"/>
    <path d="M 282.212865 211.261823 
L 281.601154 213.619745 
L 279.573711 213.095417 
L 280.185422 210.737496 
L 282.212865 211.261823 
" clip-path="url(#pecac1f77d6)" style="fill: #4d59c1"/>
    <path d="M 276.948878 209.766404 
L 276.770888 210.923647 
L 277.855192 211.091184 
L 277.443975 213.765563 
L 275.414486 213.455311 
L 275.617026 212.146044 
L 274.577731 211.984712 
L 274.966443 209.462357 
L 276.948878 209.766404 
" clip-path="url(#pecac1f77d6)" style="fill: #4d59c1"/>
    <path d="M 270.721292 208.243063 
L 270.087077 210.566857 
L 268.460621 210.123195 
L 269.094837 207.799401 
L 270.721292 208.243063 
" clip-path="url(#pecac1f77d6)" style="fill: #4d59c1"/>
    <path d="M 265.968769 207.852144 
L 265.717128 210.402423 
L 263.241642 210.07976 
L 263.542383 207.603942 
L 265.968769 207.852144 
" clip-path="url(#pecac1f77d6)" style="fill: #4d59c1"/>
    <path d="M 274.847784 206.729029 
L 274.197201 210.281424 
L 271.496671 209.707456 
L 272.272051 206.254342 
L 274.847784 206.729029 
" clip-path="url(#pecac1f77d6)" style="fill: #4d59c1"/>
    <path d="M 260.240372 205.962705 
L 259.53046 209.155206 
L 257.664639 208.739467 
L 258.376597 205.546966 
L 260.240372 205.962705 
" clip-path="url(#pecac1f77d6)" style="fill: #4d59c1"/>
    <path d="M 255.510353 203.679244 
L 254.485379 208.407497 
L 252.15924 207.88317 
L 253.159664 203.080456 
L 255.510353 203.679244 
" clip-path="url(#pecac1f77d6)" style="fill: #4d59c1"/>
    <path d="M 249.802414 203.089763 
L 249.188657 205.239815 
L 246.96072 204.603797 
L 247.574477 202.453745 
L 249.802414 203.089763 
" clip-path="url(#pecac1f77d6)" style="fill: #4d59c1"/>
    <path d="M 214.615737 183.996804 
L 213.90787 187.167588 
L 210.89637 186.354725 
L 211.759722 183.34217 
L 214.615737 183.996804 
" clip-path="url(#pecac1f77d6)" style="fill: #4d59c1"/>
    <path d="M 146.809931 173.426489 
L 148.152012 173.997355 
L 147.769437 174.897088 
L 146.427356 174.32312 
L 146.809931 173.426489 
" clip-path="url(#pecac1f77d6)" style="fill: #4d59c1"/>
    <path d="M 156.001962 166.073497 
L 157.5875 166.70331 
L 156.53593 169.343562 
L 154.950392 168.710646 
L 156.001962 166.073497 
" clip-path="url(#pecac1f77d6)" style="fill: #4d59c1"/>
    <path d="M 152.227357 164.720795 
L 154.24048 165.601913 
L 153.131626 168.133576 
L 151.118503 167.249355 
L 152.227357 164.720795 
" clip-path="url(#pecac1f77d6)" style="fill: #4d59c1"/>
    <path d="M 148.172471 162.880996 
L 149.721184 163.616295 
L 148.46912 166.247239 
L 146.922453 165.515042 
L 148.172471 162.880996 
" clip-path="url(#pecac1f77d6)" style="fill: #4d59c1"/>
   </g>
   <g id="LineCollection_1">
    <path d="M 750.582153 518.404336 
L 743.436783 524.071144 
L 746.190506 528.653578 
L 746.298936 536.831843 
L 745.787196 539.156867 
" clip-path="url(#pecac1f77d6)" style="fill: none; stroke: #4d59c1; stroke-width: 0.2"/>
    <path d="M 683.086077 441.041279 
L 678.8041 447.100517 
L 680.780397 452.865015 
L 683.961703 458.297542 
L 699.066258 483.601763 
L 703.89857 489.716847 
L 709.279171 495.83193 
L 721.171732 507.531565 
L 728.990994 516.516487 
L 734.592548 523.596457 
L 738.545142 524.722674 
L 742.716642 524.642009 
L 743.436783 524.071144 
" clip-path="url(#pecac1f77d6)" style="fill: none; stroke: #4d59c1; stroke-width: 0.2"/>
    <path d="M 741.683485 505.127105 
L 738.262814 479.62122 
L 731.957485 461.275969 
L 731.331453 451.897026 
L 731.002071 446.942288 
L 716.425346 430.008688 
" clip-path="url(#pecac1f77d6)" style="fill: none; stroke: #4d59c1; stroke-width: 0.2"/>
    <path d="M 731.331453 451.897026 
L 747.628742 454.236332 
" clip-path="url(#pecac1f77d6)" style="fill: none; stroke: #4d59c1; stroke-width: 0.2"/>
    <path d="M 779.455398 446.777029 
L 778.582544 442.164395 
L 765.397002 433.564186 
L 747.436432 433.564186 
L 722.020763 432.226996 
L 716.425346 430.008688 
" clip-path="url(#pecac1f77d6)" style="fill: none; stroke: #4d59c1; stroke-width: 0.2"/>
    <path d="M 749.18122 514.505298 
L 741.683485 505.127105 
L 731.118684 491.913437 
L 702.583085 457.667729 
L 683.086077 441.041279 
L 660.880356 422.106549 
L 636.09481 401.024868 
L 612.628841 380.039366 
L 595.224744 364.948668 
L 588.565483 360.043571 
L 533.372379 340.646564 
L 506.894911 330.789831 
L 499.943092 328.031683 
L 497.571945 327.724533 
L 493.484324 328.875571 
" clip-path="url(#pecac1f77d6)" style="fill: none; stroke: #4d59c1; stroke-width: 0.2"/>
    <path d="M 716.425346 430.008688 
L 712.086086 424.96708 
L 711.827499 416.570555 
" clip-path="url(#pecac1f77d6)" style="fill: none; stroke: #4d59c1; stroke-width: 0.2"/>
    <path d="M 639.851002 441.546991 
L 617.682106 417.179734 
L 613.811346 414.064795 
L 599.983405 408.225837 
L 585.120261 402.35275 
L 554.459017 391.261212 
L 471.957827 361.309403 
" clip-path="url(#pecac1f77d6)" style="fill: none; stroke: #4d59c1; stroke-width: 0.2"/>
    <path d="M 556.130482 244.570568 
L 554.021204 248.020579 
L 551.294078 252.482015 
L 546.224447 255.956847 
L 537.969418 259.720214 
L 537.535696 263.775218 
L 532.355589 275.040499 
" clip-path="url(#pecac1f77d6)" style="fill: none; stroke: #4d59c1; stroke-width: 0.2"/>
    <path d="M 532.355589 275.040499 
L 511.434665 303.692348 
L 493.484324 328.875571 
L 480.069647 348.452525 
L 471.957827 361.309403 
L 465.680164 369.805 
" clip-path="url(#pecac1f77d6)" style="fill: none; stroke: #4d59c1; stroke-width: 0.2"/>
    <path d="M 461.605452 375.319331 
L 455.341385 383.796528 
L 454.415847 385.195558 
" clip-path="url(#pecac1f77d6)" style="fill: none; stroke: #4d59c1; stroke-width: 0.2"/>
    <path d="M 353.224528 225.037049 
L 352.10749 229.610176 
L 350.294862 239.103913 
L 347.921669 245.771246 
L 345.575072 248.724853 
" clip-path="url(#pecac1f77d6)" style="fill: none; stroke: #4d59c1; stroke-width: 0.2"/>
    <path d="M 480.069647 348.452525 
L 412.464334 301.942522 
L 353.639836 259.36032 
L 346.835319 252.773653 
L 345.575072 248.724853 
L 212.721274 217.876413 
L 187.759785 184.958587 
" clip-path="url(#pecac1f77d6)" style="fill: none; stroke: #4d59c1; stroke-width: 0.2"/>
    <path d="M 493.484324 328.875571 
L 480.50746 320.8121 
L 465.059201 310.275913 
L 448.248402 298.387025 
L 427.783704 284.016113 
L 382.45981 252.984625 
L 368.783263 242.122673 
L 365.448517 238.061463 
L 363.320827 236.029307 
L 359.597369 231.195568 
L 355.994617 226.954411 
L 353.224528 225.037049 
L 348.588618 223.24689 
L 317.673688 214.51017 
L 299.655834 210.259706 
L 295.582534 209.297923 
L 278.08842 205.218098 
L 199.144973 187.899784 
L 187.759785 184.958587 
L 143.827073 172.008634 
L 126.185656 166.67849 
L 67.944227 147.613453 
L 55.444047 143.654627 
L 49.689054 142.190234 
L 46.899379 141.809917 
" clip-path="url(#pecac1f77d6)" style="fill: none; stroke: #4d59c1; stroke-width: 0.2"/>
    <path d="M 278.08842 205.218098 
L 279.690325 196.078049 
L 281.167433 186.013447 
L 281.664576 177.112293 
L 282.06761 166.892565 
" clip-path="url(#pecac1f77d6)" style="fill: none; stroke: #4d59c1; stroke-width: 0.2"/>
    <path d="M 340.761173 121.955544 
L 340.243571 122.95766 
L 340.268122 124.086981 
L 341.554965 125.110815 
L 328.205754 151.358205 
L 310.832345 179.780468 
L 305.091673 192.460501 
L 301.855129 201.460936 
L 299.655834 210.259706 
" clip-path="url(#pecac1f77d6)" style="fill: none; stroke: #4d59c1; stroke-width: 0.2"/>
    <path d="M 511.434665 303.692348 
L 394.575369 221.279887 
L 379.131202 211.084979 
L 375.260443 208.770493 
L 310.832345 179.780468 
L 291.850893 171.239207 
L 287.053361 168.744774 
L 282.06761 166.892565 
L 278.5917 165.871833 
L 264.100902 162.865483 
L 223.253341 153.284875 
L 202.643387 146.536876 
L 177.99696 142.841765 
L 176.863556 145.60922 
" clip-path="url(#pecac1f77d6)" style="fill: none; stroke: #4d59c1; stroke-width: 0.2"/>
    <path d="M 532.355589 275.040499 
L 412.683241 191.362206 
L 395.929726 181.102145 
L 369.131058 169.331152 
L 328.205754 151.358205 
L 290.862745 134.95824 
" clip-path="url(#pecac1f77d6)" style="fill: none; stroke: #4d59c1; stroke-width: 0.2"/>
    <path d="M 532.355589 275.040499 
L 518.259641 242.231261 
L 513.983802 228.080629 
L 511.894983 224.453774 
L 500.080164 211.075671 
L 468.647632 189.100463 
L 428.041482 159.48683 
L 413.116963 151.801867 
L 383.030604 139.249037 
L 377.500655 136.940756 
L 344.136835 123.333066 
L 340.761173 121.955544 
L 285.971103 99.682493 
" clip-path="url(#pecac1f77d6)" style="fill: none; stroke: #4d59c1; stroke-width: 0.2"/>
    <path d="M 426.732134 127.670401 
L 413.116963 151.801867 
L 395.929726 181.102145 
L 379.131202 211.084979 
L 363.320827 236.029307 
" clip-path="url(#pecac1f77d6)" style="fill: none; stroke: #4d59c1; stroke-width: 0.2"/>
    <path d="M 369.131058 169.331152 
L 383.030604 139.249037 
" clip-path="url(#pecac1f77d6)" style="fill: none; stroke: #4d59c1; stroke-width: 0.2"/>
    <path d="M 341.554965 125.110815 
L 342.997293 124.927766 
L 343.629463 124.459284 
L 344.136835 123.333066 
" clip-path="url(#pecac1f77d6)" style="fill: none; stroke: #4d59c1; stroke-width: 0.2"/>
    <path d="M 440.288735 103.406888 
L 439.334607 106.197802 
L 426.732134 127.670401 
" clip-path="url(#pecac1f77d6)" style="fill: none; stroke: #4d59c1; stroke-width: 0.2"/>
    <path d="M 254.78612 87.011767 
L 254.87 90.430753 
L 253.335608 96.68545 
L 253.554514 101.075528 
L 254.32171 104.584487 
L 254.980476 110.622008 
L 254.540617 118.961604 
L 255.090952 123.68055 
L 260.356985 124.999124 
L 264.192966 125.799576 
L 266.498645 126.348724 
L 268.808417 127.409789 
L 270.015472 129.49779 
L 274.626831 149.468765 
L 276.271699 157.699773 
L 278.5917 165.871833 
" clip-path="url(#pecac1f77d6)" style="fill: none; stroke: #4d59c1; stroke-width: 0.2"/>
    <path d="M 204.044799 75.082545 
L 202.672029 76.326659 
L 201.642964 78.724913 
L 196.935449 95.990484 
L 191.184548 107.677708 
L 189.801549 109.107974 
L 183.003169 122.653613 
L 177.99696 142.841765 
L 169.369585 140.943017 
L 166.280342 140.992658 
L 164.347008 141.774495 
L 162.675544 143.465373 
L 157.397236 150.045836 
L 155.134519 151.469896 
L 152.771555 153.111134 
L 151.261713 154.879575 
L 147.888097 162.279105 
L 143.827073 172.008634 
" clip-path="url(#pecac1f77d6)" style="fill: none; stroke: #4d59c1; stroke-width: 0.2"/>
    <path d="M 151.261713 154.879575 
L 153.55921 149.723173 
L 155.535507 146.868847 
L 157.127183 144.073469 
L 157.564996 141.712444 
L 157.126411 140.695614 
" clip-path="url(#pecac1f77d6)" style="fill: none; stroke: #4d59c1; stroke-width: 0.2"/>
    <path d="M 191.184548 107.677708 
L 196.452627 110.203166 
L 255.090952 123.68055 
" clip-path="url(#pecac1f77d6)" style="fill: none; stroke: #4d59c1; stroke-width: 0.2"/>
    <path d="M 340.761173 121.955544 
L 340.259938 120.295691 
L 339.879409 117.906744 
L 340.834824 114.469143 
L 348.478142 95.363773 
L 348.572251 93.167183 
L 347.522727 90.585879 
L 341.694083 85.71491 
L 340.237434 82.48828 
L 339.210414 77.881026 
L 337.586004 75.399003 
L 330.994256 71.384331 
L 322.968363 67.372762 
" clip-path="url(#pecac1f77d6)" style="fill: none; stroke: #4d59c1; stroke-width: 0.2"/>
    <path d="M 285.971103 99.682493 
L 280.686657 94.926317 
L 276.433322 95.416516 
L 269.563338 96.887115 
L 266.617305 96.887115 
L 264.000655 94.926317 
L 261.545628 90.508316 
L 259.74732 88.21865 
L 254.78612 87.011767 
" clip-path="url(#pecac1f77d6)" style="fill: none; stroke: #4d59c1; stroke-width: 0.2"/>
    <path d="M 254.78612 87.011767 
L 208.770726 74.660601 
L 206.352524 74.306913 
L 204.044799 75.082545 
" clip-path="url(#pecac1f77d6)" style="fill: none; stroke: #4d59c1; stroke-width: 0.2"/>
   </g>
   <g id="LineCollection_2">
    <path d="M 804.364855 435.732675 
L 798.005901 433.530058 
L 787.829813 430.765705 
L 780.483144 429.723256 
L 774.016193 429.319927 
L 741.753044 428.249555 
L 733.379355 427.554588 
L 725.817871 425.752019 
L 716.771096 422.813925 
" clip-path="url(#pecac1f77d6)" style="fill: none; stroke-dasharray: 3.7,1.6; stroke-dashoffset: 0; stroke: #4d59c1"/>
    <path d="M 716.771096 422.813925 
L 700.226258 417.207656 
" clip-path="url(#pecac1f77d6)" style="fill: none; stroke-dasharray: 3.7,1.6; stroke-dashoffset: 0; stroke: #4d59c1"/>
    <path d="M 49.703375 149.443945 
L 48.789925 153.087212 
" clip-path="url(#pecac1f77d6)" style="fill: none; stroke-dasharray: 3.7,1.6; stroke-dashoffset: 0; stroke: #4d59c1"/>
    <path d="M 700.226258 417.207656 
L 692.92869 414.384355 
L 685.5186 410.999497 
L 679.921137 408.117248 
L 674.554857 404.356984 
L 670.260605 400.934895 
L 653.19612 384.0075 
L 643.183701 372.875628 
L 636.622641 364.380906 
L 633.885285 359.922572 
L 630.832868 354.006051 
L 621.174382 328.189912 
L 612.477448 305.463892 
L 609.66235 298.852404 
L 607.133672 293.782873 
L 602.620514 285.772144 
L 600.077515 282.148391 
L 597.217408 278.459485 
L 593.718994 274.584427 
L 588.95215 270.005095 
L 584.882942 266.47752 
L 580.306362 263.043021 
L 574.275179 259.149348 
L 554.021204 248.020579 
L 550.00928 245.817784 
L 542.097955 241.145376 
L 538.231287 238.356203 
L 535.579858 236.109973 
L 533.151427 233.817204 
L 530.094918 230.174836 
L 522.003557 218.307665 
L 479.365872 149.73248 
L 470.116557 136.006895 
L 465.284245 129.832863 
L 459.590628 123.302041 
L 452.597892 116.628503 
L 439.334607 106.197802 
L 435.465894 103.694062 
L 429.361059 99.42188 
L 360.491408 60.469637 
L 336.802441 47.054304 
L 331.438207 44.147235 
L 323.872631 40.849247 
L 317.149949 38.392045 
L 311.654779 36.971087 
L 306.963631 36.229582 
L 302.57527 35.863484 
L 291.535831 35.810741 
L 288.541262 35.855191 
" clip-path="url(#pecac1f77d6)" style="fill: none; stroke-dasharray: 3.7,1.6; stroke-dashoffset: 0; stroke: #4d59c1"/>
    <path d="M 56.340512 122.977907 
L 52.630995 137.725696 
" clip-path="url(#pecac1f77d6)" style="fill: none; stroke-dasharray: 3.7,1.6; stroke-dashoffset: 0; stroke: #4d59c1"/>
    <path d="M 52.630995 137.725696 
L 49.703375 149.443945 
" clip-path="url(#pecac1f77d6)" style="fill: none; stroke-dasharray: 3.7,1.6; stroke-dashoffset: 0; stroke: #4d59c1"/>
    <path d="M 435.465894 103.694062 
L 420.457494 95.866383 
L 415.31012 93.582922 
L 412.102218 92.506344 
L 407.034633 91.243615 
L 394.094593 89.58066 
L 387.547854 89.220767 
" clip-path="url(#pecac1f77d6)" style="fill: none; stroke-dasharray: 3.7,1.6; stroke-dashoffset: 0; stroke: #4d59c1"/>
   </g>
  </g>
 </g>
 <defs>
  <clipPath id="pecac1f77d6">
   <rect x="7.2" y="7.2" width="837" height="576.947727"/>
  </clipPath>
 </defs>
</svg>
