<?xml version="1.0" encoding="utf-8" standalone="no"?>
<!DOCTYPE svg PUBLIC "-//W3C//DTD SVG 1.1//EN"
  "http://www.w3.org/Graphics/SVG/1.1/DTD/svg11.dtd">
<svg xmlns:xlink="http://www.w3.org/1999/xlink" width="474.234242pt" height="846pt" viewBox="0 0 474.234242 846" xmlns="http://www.w3.org/2000/svg" version="1.1">
 <metadata>
  <rdf:RDF xmlns:dc="http://purl.org/dc/elements/1.1/" xmlns:cc="http://creativecommons.org/ns#" xmlns:rdf="http://www.w3.org/1999/02/22-rdf-syntax-ns#">
   <cc:Work>
    <dc:type rdf:resource="http://purl.org/dc/dcmitype/StillImage"/>
    <dc:date>2025-03-16T14:38:38.027595</dc:date>
    <dc:format>image/svg+xml</dc:format>
    <dc:creator>
     <cc:Agent>
      <dc:title>Matplotlib v3.10.1, https://matplotlib.org/</dc:title>
     </cc:Agent>
    </dc:creator>
   </cc:Work>
  </rdf:RDF>
 </metadata>
 <defs>
  <style type="text/css">*{stroke-linejoin: round; stroke-linecap: butt}</style>
 </defs>
 <g id="figure_1">
  <g id="patch_1">
   <path d="M 0 846 
L 474.234242 846 
L 474.234242 0 
L 0 0 
z
" style="fill: #ffffff"/>
  </g>
  <g id="axes_1">
   <g id="PatchCollection_1">
    <path d="M 45.29413 175.344828 
L 39.372074 240.64379 
L 33.61922 349.222297 
L 35.091274 405.974181 
L 46.708655 415.412159 
L 54.243201 440.916719 
L 60.141569 452.989434 
L 67.94853 456.256913 
L 78.20553 455.62164 
L 89.641865 459.253579 
L 94.81605 466.967968 
L 101.350615 498.374744 
L 82.379733 513.532708 
L 135.116483 518.614891 
L 123.04395 538.586756 
L 97.447134 571.808236 
L 86.010799 581.430974 
L 56.057042 600.132293 
L 28.101556 622.371905 
L 30.82401 627.365504 
L 48.615557 637.803214 
L 271.855053 640.283562 
L 321.092714 801 
L 431.58135 748.862069 
L 406.326321 611.749434 
L 332.767624 462.103448 
L 446.132686 301.38701 
L 387.92734 249.249079 
L 411.277159 210.019083 
L 440.21063 58.161031 
L 370.499577 45 
L 321.092714 166.739538 
L 254.427289 166.739538 
L 251.381661 188.505859 
L 187.592663 192.808504 
L 149.86071 123.206897 
L 45.29413 175.344828 
" clip-path="url(#p1c3f358afb)" style="fill: #f29888"/>
   </g>
   <g id="PatchCollection_2">
    <path d="M 351.745273 647.142484 
L 349.149721 650.247981 
L 329.58325 633.887807 
L 332.17711 630.784841 
L 351.745273 647.142484 
" clip-path="url(#p1c3f358afb)" style="fill: #f29888"/>
    <path d="M 348.053295 632.812146 
L 345.730157 635.484848 
L 335.523917 626.608745 
L 337.847055 623.936043 
L 348.053295 632.812146 
" clip-path="url(#p1c3f358afb)" style="fill: #f29888"/>
    <path d="M 371.499559 636.606066 
L 345.664168 614.827091 
L 348.579512 611.367258 
L 374.414902 633.146234 
L 371.499559 636.606066 
" clip-path="url(#p1c3f358afb)" style="fill: #f29888"/>
    <path d="M 381.800551 625.153438 
L 378.836139 628.691731 
L 352.379779 606.525517 
L 355.345883 602.987225 
L 381.800551 625.153438 
" clip-path="url(#p1c3f358afb)" style="fill: #f29888"/>
    <path d="M 392.468711 619.005718 
L 385.12367 612.566937 
L 386.832606 610.618092 
L 394.177647 617.054342 
L 392.468711 619.005718 
" clip-path="url(#p1c3f358afb)" style="fill: #f29888"/>
    <path d="M 278.9869 422.481152 
L 279.656938 421.445986 
L 281.084999 422.369789 
L 280.33036 423.536565 
L 281.342186 424.192086 
L 280.606159 425.32849 
L 279.63325 424.70081 
L 279.01228 425.660047 
L 277.738192 424.837482 
L 278.34055 423.908617 
L 275.633324 422.157188 
L 276.474256 420.856271 
L 278.9869 422.481152 
" clip-path="url(#p1c3f358afb)" style="fill: #f29888"/>
    <path d="M 280.149314 417.361004 
L 276.086784 414.792072 
L 277.078306 413.222872 
L 281.140836 415.794335 
L 280.149314 417.361004 
" clip-path="url(#p1c3f358afb)" style="fill: #f29888"/>
    <path d="M 70.691288 333.27467 
L 73.850281 334.859056 
L 69.880812 342.775922 
L 66.721818 341.194068 
L 70.691288 333.27467 
" clip-path="url(#p1c3f358afb)" style="fill: #f29888"/>
    <path d="M 182.076691 253.792166 
L 171.318855 263.0631 
L 169.051553 260.491637 
L 171.939824 257.892333 
L 172.432201 258.383341 
L 176.794218 254.422377 
L 174.745187 252.192595 
L 174.559065 252.329267 
L 171.738475 249.33007 
L 173.499863 247.611543 
L 176.244313 250.790439 
L 176.005739 251.073907 
L 178.119066 253.230291 
L 179.954904 251.597817 
L 182.076691 253.792166 
" clip-path="url(#p1c3f358afb)" style="fill: #f29888"/>
    <path d="M 171.577733 251.855976 
L 169.347656 253.994643 
L 168.195393 252.794965 
L 170.427162 250.656297 
L 171.577733 251.855976 
" clip-path="url(#p1c3f358afb)" style="fill: #f29888"/>
   </g>
   <g id="LineCollection_1">
    <path d="M 286.560996 688.285169 
L 288.771827 682.388738 
L 288.991789 675.307091 
L 289.734584 651.427412 
L 290.010383 623.358982 
L 283.2677 607.947921 
L 282.993593 585.933565 
L 275.912507 577.15617 
" clip-path="url(#p1c3f358afb)" style="fill: none; stroke: #f29888; stroke-width: 0.2"/>
    <path d="M 130.537888 614.680295 
L 125.585358 628.031148 
L 125.448305 636.56304 
L 125.753568 638.660272 
" clip-path="url(#p1c3f358afb)" style="fill: none; stroke: #f29888; stroke-width: 0.2"/>
    <path d="M 281.559725 671.960542 
L 288.991789 675.307091 
" clip-path="url(#p1c3f358afb)" style="fill: none; stroke: #f29888; stroke-width: 0.2"/>
    <path d="M 186.563917 534.666287 
L 226.659617 554.180047 
L 238.765991 557.067881 
L 249.083903 561.608437 
L 275.912507 577.15617 
" clip-path="url(#p1c3f358afb)" style="fill: none; stroke: #f29888; stroke-width: 0.2"/>
    <path d="M 249.427383 444.991577 
L 242.031581 448.684258 
L 238.879356 450.54452 
L 235.72713 453.110921 
L 232.585057 456.601125 
L 228.673116 461.263167 
L 226.400739 464.168718 
L 224.372012 467.620957 
L 222.341593 472.363991 
L 211.724193 490.28071 
L 209.871436 493.457074 
L 199.125443 516.688825 
L 186.563917 534.666287 
L 140.969166 602.668323 
L 135.752681 610.886374 
L 130.537888 614.680295 
L 123.90011 617.998393 
L 116.63121 620.52683 
L 96.086754 626.692266 
L 59.896226 634.277576 
" clip-path="url(#p1c3f358afb)" style="fill: none; stroke: #f29888; stroke-width: 0.2"/>
    <path d="M 211.724193 490.28071 
L 204.267479 484.753077 
L 182.080075 465.780944 
" clip-path="url(#p1c3f358afb)" style="fill: none; stroke: #f29888; stroke-width: 0.2"/>
    <path d="M 123.683532 512.158393 
L 146.566355 484.806227 
L 149.91993 481.452695 
L 153.513772 478.577516 
L 157.945161 476.183221 
L 162.136285 474.745631 
L 171.477904 471.632541 
L 175.670719 469.476157 
L 181.298364 466.482022 
L 182.080075 465.780944 
L 187.167967 461.212548 
L 191.000383 456.780824 
L 209.923888 432.346863 
L 218.113245 422.11163 
L 220.652961 419.54776 
L 222.571707 417.917817 
L 224.37878 416.751041 
L 227.21629 415.829769 
L 230.250075 414.986957 
L 234.525799 413.212749 
" clip-path="url(#p1c3f358afb)" style="fill: none; stroke: #f29888; stroke-width: 0.2"/>
    <path d="M 310.392406 426.986274 
L 305.512632 429.216056 
L 303.216567 430.099364 
L 302.24535 431.157308 
L 300.038961 433.101091 
L 297.390956 435.748483 
L 294.123673 437.778319 
L 287.856447 441.840522 
L 280.704296 445.108001 
L 277.968306 446.96067 
L 269.668968 452.964125 
L 263.931342 457.289548 
L 261.899231 457.732467 
L 260.222444 458.438607 
L 256.38326 460.182444 
" clip-path="url(#p1c3f358afb)" style="fill: none; stroke: #f29888; stroke-width: 0.2"/>
    <path d="M 223.691821 390.846589 
L 226.121556 395.756666 
" clip-path="url(#p1c3f358afb)" style="fill: none; stroke: #f29888; stroke-width: 0.2"/>
    <path d="M 216.099746 356.916438 
L 220.651269 381.158045 
L 222.157163 387.128597 
L 223.691821 390.846589 
" clip-path="url(#p1c3f358afb)" style="fill: none; stroke: #f29888; stroke-width: 0.2"/>
    <path d="M 216.099746 356.916438 
L 215.049004 354.420904 
L 213.582027 352.47459 
L 211.961075 350.837054 
L 209.65655 348.976793 
L 201.918961 343.773124 
L 194.705898 339.862779 
L 188.299926 336.481406 
" clip-path="url(#p1c3f358afb)" style="fill: none; stroke: #f29888; stroke-width: 0.2"/>
    <path d="M 388.679896 769.106622 
L 374.123875 765.252615 
L 348.489835 745.513599 
L 313.700297 697.693498 
L 297.424796 675.922116 
L 288.991789 675.307091 
" clip-path="url(#p1c3f358afb)" style="fill: none; stroke: #f29888; stroke-width: 0.2"/>
    <path d="M 404.343278 608.413619 
L 372.903932 646.365477 
" clip-path="url(#p1c3f358afb)" style="fill: none; stroke: #f29888; stroke-width: 0.2"/>
    <path d="M 226.121556 395.756666 
L 234.525799 413.212749 
L 240.547683 425.556277 
L 249.427383 444.991577 
L 256.38326 460.182444 
L 257.791017 463.257569 
L 262.063357 472.586716 
L 272.279749 490.197188 
L 278.660341 499.728812 
L 286.128899 507.80766 
L 392.97124 598.60612 
L 404.343278 608.413619 
L 404.938139 608.925352 
" clip-path="url(#p1c3f358afb)" style="fill: none; stroke: #f29888; stroke-width: 0.2"/>
    <path d="M 356.843469 427.971379 
L 352.173353 427.069796 
L 337.731998 424.004794 
L 331.491844 423.141734 
L 328.048591 423.36699 
L 320.075813 424.442651 
L 315.974366 425.293057 
L 310.392406 426.986274 
L 308.257082 426.723053 
L 300.813904 424.227519 
L 295.86645 422.595045 
L 289.105154 419.282009 
L 286.064602 416.920616 
L 280.391273 413.200094 
L 275.171404 410.431215 
L 261.757102 406.591738 
" clip-path="url(#p1c3f358afb)" style="fill: none; stroke: #f29888; stroke-width: 0.2"/>
    <path d="M 345.271353 444.377044 
L 340.709946 445.404125 
L 330.544315 449.39546 
L 324.371841 451.212695 
L 304.40267 454.480174 
L 292.059414 456.656806 
L 275.357526 457.747653 
L 269.548835 458.109582 
L 261.198737 461.74152 
L 257.791017 463.257569 
" clip-path="url(#p1c3f358afb)" style="fill: none; stroke: #f29888; stroke-width: 0.2"/>
    <path d="M 383.311521 333.289856 
L 385.819089 340.270264 
L 388.145611 344.924714 
L 391.90527 348.506033 
L 403.363601 357.278366 
L 405.702167 358.704926 
" clip-path="url(#p1c3f358afb)" style="fill: none; stroke: #f29888; stroke-width: 0.2"/>
    <path d="M 414.026786 346.903202 
L 409.80849 346.000375 
L 394.05413 339.733699 
L 384.744659 334.542685 
L 383.311521 333.289856 
L 380.626292 332.037027 
L 376.687279 330.784198 
L 372.570605 330.604499 
L 369.347314 330.604499 
L 365.767009 331.320763 
L 363.438795 331.857328 
L 361.648642 330.961366 
L 357.531968 328.098842 
L 355.203754 325.054088 
L 353.94997 322.191563 
L 352.518525 319.683375 
L 350.369665 317.714282 
L 348.400158 316.998018 
L 344.092286 315.793278 
" clip-path="url(#p1c3f358afb)" style="fill: none; stroke: #f29888; stroke-width: 0.2"/>
    <path d="M 240.547683 425.556277 
L 247.330975 419.221265 
L 257.999135 410.269233 
L 261.757102 406.591738 
L 267.185089 397.948483 
L 275.516575 385.847928 
L 282.704258 377.943716 
L 297.793656 364.410633 
L 323.783019 343.932574 
L 327.975835 339.022497 
L 344.092286 315.793278 
L 355.641986 299.144573 
L 362.07503 287.499592 
L 369.535128 273.99688 
L 377.335321 264.29315 
" clip-path="url(#p1c3f358afb)" style="fill: none; stroke: #f29888; stroke-width: 0.2"/>
    <path d="M 383.311521 333.289856 
L 381.164353 326.306917 
L 378.656786 315.924888 
L 377.941063 312.523267 
L 378.120417 309.837911 
L 379.194847 306.795688 
L 378.29977 302.498105 
L 377.404694 300.172146 
L 375.255834 297.666488 
L 370.421744 292.83234 
L 362.07503 287.499592 
" clip-path="url(#p1c3f358afb)" style="fill: none; stroke: #f29888; stroke-width: 0.2"/>
    <path d="M 34.021533 364.7326 
L 35.945742 363.724741 
L 53.407346 357.306207 
L 72.0449 351.806414 
" clip-path="url(#p1c3f358afb)" style="fill: none; stroke: #f29888; stroke-width: 0.2"/>
    <path d="M 194.705898 339.862779 
L 182.580912 354.790425 
L 171.839995 368.148872 
L 161.17522 383.278996 
L 154.721871 393.919183 
L 148.092553 406.325986 
L 145.129833 411.119638 
L 140.752588 416.442263 
L 116.504309 444.239879 
L 99.958086 460.69623 
" clip-path="url(#p1c3f358afb)" style="fill: none; stroke: #f29888; stroke-width: 0.2"/>
    <path d="M 131.187623 341.705323 
L 127.521024 345.086696 
L 107.220218 367.085865 
L 105.301472 368.40703 
L 76.461062 388.249816 
L 74.225909 390.315085 
L 72.873988 392.02855 
L 73.247924 393.704051 
L 75.692886 397.606803 
L 91.557227 419.694556 
L 97.186564 426.520576 
L 109.162652 437.181011 
L 116.504309 444.239879 
" clip-path="url(#p1c3f358afb)" style="fill: none; stroke: #f29888; stroke-width: 0.2"/>
    <path d="M 107.220218 367.085865 
L 145.644206 404.569494 
L 148.092553 406.325986 
" clip-path="url(#p1c3f358afb)" style="fill: none; stroke: #f29888; stroke-width: 0.2"/>
    <path d="M 67.994214 350.242277 
L 72.0449 351.806414 
L 76.349389 353.46926 
L 82.416957 354.947345 
L 86.594545 356.42543 
L 90.139318 358.341373 
L 100.475843 364.420757 
L 102.073106 365.643214 
L 103.719437 367.027653 
L 105.301472 368.40703 
" clip-path="url(#p1c3f358afb)" style="fill: none; stroke: #f29888; stroke-width: 0.2"/>
    <path d="M 91.829642 337.192608 
L 94.303369 338.098694 
L 102.98341 339.543877 
L 112.414707 340.485397 
L 131.187623 341.705323 
L 137.082606 341.692668 
L 161.501779 342.568383 
L 164.586324 342.56079 
L 166.291875 343.168222 
L 168.088796 344.36537 
L 170.197048 346.387613 
L 179.653725 352.808678 
L 182.580912 354.790425 
" clip-path="url(#p1c3f358afb)" style="fill: none; stroke: #f29888; stroke-width: 0.2"/>
    <path d="M 40.248538 323.748108 
L 44.913426 325.279344 
L 49.031793 325.279344 
L 53.865882 323.130552 
L 59.23634 320.981761 
L 64.786152 320.445196 
L 70.515318 321.698025 
L 74.454331 322.950854 
L 78.929713 323.487419 
L 82.153003 322.950854 
L 85.19694 321.341158 
L 87.526845 319.372066 
" clip-path="url(#p1c3f358afb)" style="fill: none; stroke: #f29888; stroke-width: 0.2"/>
    <path d="M 90.272987 276.715139 
L 88.799241 278.856337 
L 87.895705 280.503997 
L 87.300115 281.997268 
L 86.413499 284.831952 
L 85.714696 289.731905 
L 86.051408 297.987921 
L 87.427016 309.541788 
L 87.526845 319.372066 
L 87.565762 323.297596 
L 89.491276 331.277737 
L 91.829642 337.192608 
" clip-path="url(#p1c3f358afb)" style="fill: none; stroke: #f29888; stroke-width: 0.2"/>
    <path d="M 188.299926 336.481406 
L 184.034354 334.621145 
L 177.768819 331.287861 
L 166.833321 325.471697 
L 145.139985 313.555902 
L 131.668155 304.515286 
L 119.250451 296.778119 
L 101.927592 285.211597 
L 90.272987 276.715139 
L 73.584635 263.989434 
" clip-path="url(#p1c3f358afb)" style="fill: none; stroke: #f29888; stroke-width: 0.2"/>
    <path d="M 67.994214 350.242277 
L 57.035028 343.55546 
L 51.926832 339.905805 
L 40.248538 323.748108 
L 35.155215 320.232167 
" clip-path="url(#p1c3f358afb)" style="fill: none; stroke: #f29888; stroke-width: 0.2"/>
    <path d="M 177.768819 331.287861 
L 172.708 337.645651 
L 169.564234 340.713184 
L 166.291875 343.168222 
" clip-path="url(#p1c3f358afb)" style="fill: none; stroke: #f29888; stroke-width: 0.2"/>
    <path d="M 185.019107 330.68549 
L 192.925897 322.485156 
L 201.248923 313.783689 
L 225.600415 295.21145 
L 249.263257 276.917616 
L 315.779784 226.920884 
" clip-path="url(#p1c3f358afb)" style="fill: none; stroke: #f29888; stroke-width: 0.2"/>
    <path d="M 145.129833 232.714268 
L 158.354629 248.775788 
L 160.692995 252.448222 
L 161.699744 254.40466 
L 162.533908 256.474992 
L 163.410372 260.208169 
L 163.59311 263.017543 
L 163.373148 264.113452 
L 164.011038 265.386528 
L 166.034689 268.330044 
L 175.415225 280.025644 
" clip-path="url(#p1c3f358afb)" style="fill: none; stroke: #f29888; stroke-width: 0.2"/>
    <path d="M 157.038241 293.006977 
L 175.415225 280.025644 
L 207.318184 256.257328 
L 242.410593 229.497409 
L 245.418997 227.525785 
L 247.202382 227.181573 
L 250.310615 227.232193 
L 253.308867 227.353679 
L 258.650561 228.059819 
L 266.171571 228.421748 
L 273.536917 228.439464 
L 279.729695 228.221801 
L 285.340419 227.315715 
L 290.132208 225.738922 
L 292.539947 223.898909 
L 294.477305 221.899444 
L 300.915425 214.050914 
L 303.299475 210.694851 
L 305.153925 208.665015 
L 306.477081 207.781707 
L 308.243546 207.252735 
L 313.099631 206.369428 
L 316.189252 205.400067 
L 318.043702 203.899203 
L 319.632504 201.340395 
L 321.485262 199.662364 
L 323.163742 198.338668 
L 324.752544 197.809695 
L 326.077393 197.809695 
L 329.329447 198.541145 
" clip-path="url(#p1c3f358afb)" style="fill: none; stroke: #f29888; stroke-width: 0.2"/>
    <path d="M 111.741284 223.830572 
L 117.00007 224.073545 
L 122.734311 223.969776 
L 126.801917 224.804995 
L 130.033668 225.222605 
L 137.541142 228.037041 
L 141.710269 231.162785 
L 143.337988 232.238447 
L 145.129833 232.714268 
L 149.666128 233.448249 
L 156.791206 234.336619 
L 159.848679 235.146528 
L 165.730126 238.338078 
L 168.708074 239.757951 
L 172.213931 241.177824 
L 184.354145 245.652574 
L 198.715975 250.972668 
L 202.384266 252.491249 
L 204.551738 253.835193 
L 207.318184 256.257328 
" clip-path="url(#p1c3f358afb)" style="fill: none; stroke: #f29888; stroke-width: 0.2"/>
    <path d="M 250.310615 227.232193 
L 247.312363 225.118835 
L 244.755727 223.706555 
L 236.987682 222.208222 
L 206.621073 216.144024 
L 189.012264 212.061573 
L 168.22585 201.532749 
L 148.711831 195.18002 
L 124.477088 179.936003 
L 102.964798 170.22468 
L 88.895686 161.966133 
L 84.266331 166.957201 
L 78.911101 172.039384 
L 76.369693 177.577141 
L 77.55072 179.753773 
" clip-path="url(#p1c3f358afb)" style="fill: none; stroke: #f29888; stroke-width: 0.2"/>
    <path d="M 318.720508 227.105644 
L 315.779784 226.920884 
L 307.096359 224.81765 
L 299.9036 223.005477 
L 294.477305 221.899444 
" clip-path="url(#p1c3f358afb)" style="fill: none; stroke: #f29888; stroke-width: 0.2"/>
    <path d="M 216.099746 356.916438 
L 219.740964 351.644433 
L 223.788266 346.676143 
L 228.975987 340.880228 
L 249.009455 322.067546 
L 286.53329 287.190814 
L 307.788393 266.244526 
L 315.006533 257.578493 
L 317.688378 252.903796 
L 318.837257 250.757536 
L 319.067371 248.535347 
L 318.454861 228.229394 
L 318.720508 227.105644 
L 319.019995 225.840161 
L 321.930262 220.927553 
L 326.101081 211.545256 
L 327.977527 205.291235 
L 329.329447 198.541145 
L 330.155151 196.217717 
L 333.385209 182.143006 
L 334.726978 178.052963 
L 336.102587 175.987693 
L 343.552533 170.075353 
L 347.124378 165.808142 
L 355.103925 154.806026 
L 358.114021 151.52083 
L 360.540372 149.721312 
L 365.124043 147.248557 
L 368.570679 143.940583 
L 378.612793 130.736525 
L 389.206504 119.595206 
L 396.038865 107.899605 
L 398.996508 101.916398 
L 400.211376 98.408477 
L 400.751129 96.11542 
L 400.346737 91.934262 
L 399.806984 85.862471 
L 399.942345 81.005544 
L 400.751129 77.634295 
L 402.235027 74.397188 
L 404.798431 69.811075 
L 408.307671 65.493244 
L 409.251816 63.739284 
L 408.982786 60.233894 
L 408.847425 55.106153 
L 408.911083 52.251863 
" clip-path="url(#p1c3f358afb)" style="fill: none; stroke: #f29888; stroke-width: 0.2"/>
    <path d="M 395.807681 236.009331 
L 392.773274 235.528704 
L 389.270801 235.381908 
L 387.240382 236.64233 
L 381.617813 242.91913 
L 377.717717 245.283053 
L 375.29475 247.535614 
L 373.507981 249.19846 
L 371.166231 253.002504 
L 370.379444 256.186461 
L 371.360813 258.102404 
L 374.580719 260.886468 
L 377.335321 264.29315 
" clip-path="url(#p1c3f358afb)" style="fill: none; stroke: #f29888; stroke-width: 0.2"/>
    <path d="M 109.561968 220.21382 
L 111.741284 223.830572 
L 114.132103 227.794068 
L 117.280944 233.142002 
L 127.326442 248.644178 
L 156.398659 292.07305 
L 157.038241 293.006977 
L 185.019107 330.68549 
L 188.299926 336.481406 
" clip-path="url(#p1c3f358afb)" style="fill: none; stroke: #f29888; stroke-width: 0.2"/>
    <path d="M 73.584635 263.989434 
L 87.643594 244.650311 
L 93.633331 236.11842 
L 98.716146 229.947921 
L 102.347212 225.589595 
L 109.561968 220.21382 
" clip-path="url(#p1c3f358afb)" style="fill: none; stroke: #f29888; stroke-width: 0.2"/>
    <path d="M 77.55072 179.753773 
L 85.032814 190.214262 
L 109.561968 220.21382 
" clip-path="url(#p1c3f358afb)" style="fill: none; stroke: #f29888; stroke-width: 0.2"/>
    <path d="M 85.032814 190.214262 
L 73.378209 185.180167 
L 67.874081 176.926682 
L 60.568652 167.7288 
" clip-path="url(#p1c3f358afb)" style="fill: none; stroke: #f29888; stroke-width: 0.2"/>
    <path d="M 73.584635 263.989434 
L 54.238125 250.661359 
L 39.440427 239.890105 
" clip-path="url(#p1c3f358afb)" style="fill: none; stroke: #f29888; stroke-width: 0.2"/>
   </g>
  </g>
 </g>
 <defs>
  <clipPath id="p1c3f358afb">
   <rect x="7.2" y="7.2" width="459.834242" height="831.6"/>
  </clipPath>
 </defs>
</svg>
