<?xml version="1.0" encoding="utf-8" standalone="no"?>
<!DOCTYPE svg PUBLIC "-//W3C//DTD SVG 1.1//EN"
  "http://www.w3.org/Graphics/SVG/1.1/DTD/svg11.dtd">
<svg xmlns:xlink="http://www.w3.org/1999/xlink" width="851.4pt" height="751.673885pt" viewBox="0 0 851.4 751.673885" xmlns="http://www.w3.org/2000/svg" version="1.1">
 <metadata>
  <rdf:RDF xmlns:dc="http://purl.org/dc/elements/1.1/" xmlns:cc="http://creativecommons.org/ns#" xmlns:rdf="http://www.w3.org/1999/02/22-rdf-syntax-ns#">
   <cc:Work>
    <dc:type rdf:resource="http://purl.org/dc/dcmitype/StillImage"/>
    <dc:date>2025-03-16T14:30:04.557250</dc:date>
    <dc:format>image/svg+xml</dc:format>
    <dc:creator>
     <cc:Agent>
      <dc:title>Matplotlib v3.10.1, https://matplotlib.org/</dc:title>
     </cc:Agent>
    </dc:creator>
   </cc:Work>
  </rdf:RDF>
 </metadata>
 <defs>
  <style type="text/css">*{stroke-linejoin: round; stroke-linecap: butt}</style>
 </defs>
 <g id="figure_1">
  <g id="patch_1">
   <path d="M 0 751.673885 
L 851.4 751.673885 
L 851.4 0 
L 0 0 
z
" style="fill: #ffffff"/>
  </g>
  <g id="axes_1">
   <g id="PatchCollection_1">
    <path d="M 190.078088 575.073283 
L 168.173761 596.683003 
L 165.11566 614.265981 
L 129.216208 656.861645 
L 150.421502 675.114092 
L 152.064425 689.091477 
L 150.421502 696.819167 
L 151.89987 710.961436 
L 157.324939 710.631668 
L 204.830169 694.024087 
L 227.350591 660.31626 
L 247.076202 630.225946 
L 273.705249 645.84621 
L 305.923921 664.754219 
L 357.045425 635.486338 
L 332.059301 589.94263 
L 331.566951 568.569309 
L 329.265805 562.649382 
L 327.879588 549.975175 
L 322.525607 537.165883 
L 321.045923 516.779879 
L 313.648819 496.888527 
L 313.648819 491.626148 
L 323.840736 481.762914 
L 330.908728 482.255579 
L 354.087373 466.802186 
L 357.928759 444.242893 
L 353.047382 440.406859 
L 353.047382 426.574493 
L 396.23204 438.605056 
L 423.84842 443.209885 
L 455.244314 439.181156 
L 476.203433 436.078161 
L 504.639959 434.927947 
L 543.763385 437.558143 
L 575.159279 440.845887 
L 582.556382 441.338553 
L 583.213288 433.771773 
L 626.678349 437.460802 
L 668.379373 440.828009 
L 717.137859 445.641426 
L 771.189769 451.094513 
L 795.694074 450.164806 
L 805.351514 448.688798 
L 806.154545 443.394635 
L 800.374036 420.251295 
L 794.124872 400.087785 
L 786.747515 385.331671 
L 768.462096 388.859789 
L 741.195889 389.501446 
L 686.504187 383.08488 
L 674.795726 384.529104 
L 621.145331 385.158841 
L 580.243389 380.575864 
L 531.968038 376.980204 
L 528.520269 375.696891 
L 524.189166 371.846951 
L 503.180022 331.527877 
L 480.497676 290.362531 
L 477.889799 286.166932 
L 467.859806 282.573258 
L 457.979887 284.897525 
L 457.166324 290.128118 
L 436.477076 286.409291 
L 396.376848 294.661431 
L 388.937618 295.126285 
L 376.848705 290.477751 
L 357.554889 280.713845 
L 343.374145 271.184351 
L 337.001235 258.24196 
L 325.145332 242.609777 
L 309.919331 215.590673 
L 275.862902 197.054149 
L 260.752747 188.744399 
L 245.293735 190.428996 
L 231.810707 199.378416 
L 228.963236 202.63239 
L 223.093209 210.242873 
L 220.012728 217.33288 
L 218.152591 229.011823 
L 215.944913 231.628113 
L 211.644088 233.602747 
L 208.098902 234.127197 
L 202.402645 231.80293 
L 197.57919 228.54697 
L 192.291031 228.954213 
L 103.669278 265.602138 
L 99.642273 266.670903 
L 97.587303 265.931906 
L 95.532333 265.439241 
L 86.074993 263.937407 
L 69.453559 262.542847 
L 68.175291 292.180227 
L 65.85045 302.291781 
L 61.316614 317.401501 
L 66.431002 319.958194 
L 65.501592 333.673354 
L 72.127259 336.462474 
L 79.208416 384.566849 
L 77.358811 403.882101 
L 76.94808 414.567768 
L 77.236382 415.676264 
L 78.222399 416.621863 
L 83.153801 421.182989 
L 85.004723 422.08091 
L 91.909476 425.205758 
L 127.57855 454.302796 
L 153.222897 476.824344 
L 165.222292 482.577401 
L 173.440857 486.524681 
L 178.043148 493.100171 
L 183.139107 498.360562 
L 187.05553 515.78263 
L 186.357814 531.593603 
L 187.520235 549.961269 
L 188.682656 559.727163 
L 190.078088 575.073283 
" clip-path="url(#p066d89d18f)" style="fill: #f29888"/>
    <path d="M 325.212471 203.264113 
L 334.675077 217.698405 
L 350.873931 234.856261 
L 364.41225 242.244251 
L 382.427799 241.896604 
L 391.494154 247.242418 
L 414.625407 257.586398 
L 419.97149 262.002505 
L 443.916306 264.559198 
L 453.912072 264.094345 
L 468.208663 253.867571 
L 482.738266 252.006171 
L 484.365391 244.453298 
L 501.695072 251.463842 
L 513.131029 254.084105 
L 514.94509 265.196881 
L 549.64921 284.021455 
L 549.875638 274.950855 
L 587.528595 273.590067 
L 587.075738 255.671361 
L 604.995185 260.208647 
L 613.61395 256.352749 
L 623.593919 244.105651 
L 630.398622 196.251582 
L 627.903959 158.606408 
L 560.083352 131.619089 
L 520.642663 120.613587 
L 502.042613 121.861142 
L 493.537063 131.724376 
L 492.062645 119.026331 
L 457.471739 101.451299 
L 431.273169 92.607166 
L 428.663976 87.505699 
L 424.127507 94.989043 
L 413.014079 101.904233 
L 407.003192 113.69641 
L 398.950498 122.76701 
L 396.455835 136.48813 
L 396.114876 147.485686 
L 398.043468 157.917074 
L 391.012336 179.802926 
L 388.923138 179.417534 
L 377.900545 179.852589 
L 374.280321 172.75265 
L 373.730047 171.673952 
L 367.315011 164.939538 
L 356.087053 146.017623 
L 338.979852 135.069731 
L 325.596873 130.194731 
L 321.923992 140.324163 
L 319.838743 175.521904 
L 318.235313 191.799717 
L 325.212471 203.264113 
" clip-path="url(#p066d89d18f)" style="fill: #f29888"/>
    <path d="M 65.721438 132.590513 
L 63.195181 117.180824 
L 45.245455 117.870157 
L 52.235777 153.409586 
L 58.821951 178.334863 
L 68.241114 192.739357 
L 73.210693 197.203141 
L 101.849952 199.392322 
L 126.699165 199.223465 
L 136.808145 185.917535 
L 141.356462 181.284894 
L 156.266517 173.451916 
L 170.164226 169.073554 
L 182.546706 168.990119 
L 185.074281 164.526335 
L 187.600538 158.46139 
L 213.545034 154.673033 
L 220.536673 151.134983 
L 238.225743 136.565605 
L 258.442387 131.511815 
L 266.95057 132.775263 
L 275.710194 130.671503 
L 287.165898 132.860684 
L 300.559408 136.734462 
L 309.404601 135.975599 
L 312.924775 124.586692 
L 301.553324 116.501423 
L 288.496823 109.848458 
L 197.102637 88.206952 
L 176.043469 40.712449 
L 146.561686 52.838367 
L 159.028419 77.25906 
L 161.893003 91.238432 
L 148.920755 97.30139 
L 151.278508 111.280762 
L 154.886883 121.610836 
L 168.196141 123.968874 
L 173.50273 122.284278 
L 174.766517 130.369547 
L 166.679596 133.23217 
L 112.809355 151.54024 
L 112.97786 160.972392 
L 121.063465 162.656989 
L 126.538559 165.436176 
L 110.787296 166.951916 
L 80.041726 159.708945 
L 67.574993 153.645986 
L 70.269755 150.445649 
L 76.335933 148.929909 
L 75.998923 137.560868 
L 66.732468 137.139719 
L 65.721438 132.590513 
" clip-path="url(#p066d89d18f)" style="fill: #f29888"/>
   </g>
   <g id="PatchCollection_2">
    <path d="M 319.14761 601.824202 
L 317.491522 601.363321 
L 317.789038 600.294556 
L 319.001484 600.630284 
L 319.485936 598.884104 
L 322.279432 599.658859 
L 321.117011 603.854459 
L 318.76584 603.200883 
L 318.897485 602.728083 
L 319.14761 601.824202 
" clip-path="url(#p066d89d18f)" style="fill: #f29888"/>
    <path d="M 255.81213 511.958516 
L 256.729692 510.579848 
L 257.541938 511.110258 
L 256.94164 512.486939 
L 255.81213 511.958516 
" clip-path="url(#p066d89d18f)" style="fill: #f29888"/>
    <path d="M 207.076024 457.862698 
L 207.693436 459.418169 
L 206.511269 459.888982 
L 205.89254 458.331525 
L 207.076024 457.862698 
" clip-path="url(#p066d89d18f)" style="fill: #f29888"/>
    <path d="M 308.46071 445.490448 
L 311.533292 448.746408 
L 309.138679 451.007105 
L 306.06478 447.753131 
L 308.46071 445.490448 
" clip-path="url(#p066d89d18f)" style="fill: #f29888"/>
    <path d="M 316.497606 437.460802 
L 318.078656 438.873241 
L 316.938615 440.148607 
L 315.358881 438.734182 
L 316.497606 437.460802 
" clip-path="url(#p066d89d18f)" style="fill: #f29888"/>
    <path d="M 190.161024 488.624467 
L 191.979034 491.465238 
L 185.550834 495.579388 
L 183.732823 492.738618 
L 190.161024 488.624467 
" clip-path="url(#p066d89d18f)" style="fill: #f29888"/>
    <path d="M 206.922 489.605824 
L 206.629749 494.006039 
L 204.66298 493.874926 
L 204.956548 489.474712 
L 206.922 489.605824 
" clip-path="url(#p066d89d18f)" style="fill: #f29888"/>
    <path d="M 195.849382 477.537516 
L 196.956512 479.194301 
L 199.507782 477.489839 
L 200.641241 479.188342 
L 198.104452 480.882871 
L 199.348492 482.744271 
L 197.947795 483.679938 
L 194.463165 478.465237 
L 195.849382 477.537516 
" clip-path="url(#p066d89d18f)" style="fill: #f29888"/>
    <path d="M 184.051403 466.563799 
L 183.308928 469.782015 
L 181.706815 469.412516 
L 182.449289 466.1943 
L 184.051403 466.563799 
" clip-path="url(#p066d89d18f)" style="fill: #f29888"/>
    <path d="M 202.930539 466.208206 
L 204.917054 465.234795 
L 206.835114 469.142345 
L 204.847283 470.117742 
L 202.930539 466.208206 
" clip-path="url(#p066d89d18f)" style="fill: #f29888"/>
    <path d="M 168.132951 463.679325 
L 167.281212 466.754508 
L 165.536922 466.271776 
L 166.387345 463.196592 
L 168.132951 463.679325 
" clip-path="url(#p066d89d18f)" style="fill: #f29888"/>
    <path d="M 197.533115 461.716611 
L 196.762995 465.620187 
L 195.016072 465.274526 
L 195.784876 461.372937 
L 197.533115 461.716611 
" clip-path="url(#p066d89d18f)" style="fill: #f29888"/>
    <path d="M 185.585061 459.670461 
L 184.84127 463.603836 
L 182.787616 463.216458 
L 183.530091 459.283083 
L 185.585061 459.670461 
" clip-path="url(#p066d89d18f)" style="fill: #f29888"/>
    <path d="M 169.54418 456.631036 
L 168.705605 460.467069 
L 166.942885 460.083664 
L 167.781461 456.245644 
L 169.54418 456.631036 
" clip-path="url(#p066d89d18f)" style="fill: #f29888"/>
    <path d="M 196.826184 456.094666 
L 198.495436 456.414501 
L 197.727949 460.423365 
L 196.058697 460.10353 
L 196.826184 456.094666 
" clip-path="url(#p066d89d18f)" style="fill: #f29888"/>
    <path d="M 186.509205 454.394177 
L 185.665364 458.285834 
L 183.827607 457.888523 
L 184.671448 453.996867 
L 186.509205 454.394177 
" clip-path="url(#p066d89d18f)" style="fill: #f29888"/>
    <path d="M 170.642095 451.177948 
L 169.861443 455.059672 
L 167.939434 454.672295 
L 168.721402 450.79057 
L 170.642095 451.177948 
" clip-path="url(#p066d89d18f)" style="fill: #f29888"/>
    <path d="M 163.584634 453.657166 
L 164.209946 450.454843 
L 165.58958 450.740907 
L 164.964269 453.94323 
L 163.584634 453.657166 
" clip-path="url(#p066d89d18f)" style="fill: #f29888"/>
    <path d="M 201.059871 448.545766 
L 199.409049 455.790724 
L 196.80907 455.198731 
L 198.459892 447.953773 
L 201.059871 448.545766 
" clip-path="url(#p066d89d18f)" style="fill: #f29888"/>
    <path d="M 187.596589 448.821897 
L 186.87781 452.322203 
L 185.057167 451.948731 
L 185.777262 448.448425 
L 187.596589 448.821897 
" clip-path="url(#p066d89d18f)" style="fill: #f29888"/>
    <path d="M 171.574138 445.677184 
L 170.67369 449.872783 
L 168.825401 449.475473 
L 169.72585 445.279873 
L 171.574138 445.677184 
" clip-path="url(#p066d89d18f)" style="fill: #f29888"/>
    <path d="M 188.64053 444.370032 
L 187.912536 447.312117 
L 185.978678 446.833357 
L 186.706672 443.891273 
L 188.64053 444.370032 
" clip-path="url(#p066d89d18f)" style="fill: #f29888"/>
    <path d="M 172.664155 440.311505 
L 171.657074 444.304476 
L 169.995721 443.885313 
L 171.004118 439.892342 
L 172.664155 440.311505 
" clip-path="url(#p066d89d18f)" style="fill: #f29888"/>
    <path d="M 189.456726 438.742128 
L 188.762959 442.258326 
L 187.016037 441.914653 
L 187.709803 438.396468 
L 189.456726 438.742128 
" clip-path="url(#p066d89d18f)" style="fill: #f29888"/>
    <path d="M 203.587445 434.542556 
L 202.327607 441.181615 
L 198.812699 440.514133 
L 199.094419 439.026205 
L 200.05674 439.208968 
L 201.033542 434.057837 
L 203.587445 434.542556 
" clip-path="url(#p066d89d18f)" style="fill: #f29888"/>
    <path d="M 162.622313 455.816549 
L 164.521943 456.130424 
L 163.922961 459.304935 
L 162.074672 458.993047 
L 162.622313 455.816549 
" clip-path="url(#p066d89d18f)" style="fill: #f29888"/>
    <path d="M 124.304552 418.372016 
L 123.817467 420.825409 
L 117.501165 419.569908 
L 117.988249 417.116515 
L 124.304552 418.372016 
" clip-path="url(#p066d89d18f)" style="fill: #f29888"/>
    <path d="M 103.016322 413.830757 
L 102.558199 416.196741 
L 96.194504 414.967065 
L 96.651311 412.601081 
L 103.016322 413.830757 
" clip-path="url(#p066d89d18f)" style="fill: #f29888"/>
    <path d="M 132.124235 411.96737 
L 131.125053 416.558294 
L 128.912109 416.075561 
L 129.911291 411.486625 
L 132.124235 411.96737 
" clip-path="url(#p066d89d18f)" style="fill: #f29888"/>
    <path d="M 112.50394 411.943532 
L 111.804908 416.006032 
L 107.264489 415.221344 
L 107.963522 411.16083 
L 112.50394 411.943532 
" clip-path="url(#p066d89d18f)" style="fill: #f29888"/>
    <path d="M 126.133094 410.676111 
L 125.14576 415.306766 
L 123.013119 414.851845 
L 124.000453 410.221191 
L 126.133094 410.676111 
" clip-path="url(#p066d89d18f)" style="fill: #f29888"/>
    <path d="M 156.82469 410.703923 
L 156.444237 412.632866 
L 151.806402 411.717065 
L 152.186855 409.788122 
L 156.82469 410.703923 
" clip-path="url(#p066d89d18f)" style="fill: #f29888"/>
    <path d="M 140.53895 407.378434 
L 145.417695 408.331979 
L 145.008281 410.427792 
L 140.129536 409.474247 
L 140.53895 407.378434 
" clip-path="url(#p066d89d18f)" style="fill: #f29888"/>
    <path d="M 135.761572 406.353372 
L 135.275804 408.476997 
L 130.806473 407.455909 
L 131.290925 405.332284 
L 135.761572 406.353372 
" clip-path="url(#p066d89d18f)" style="fill: #f29888"/>
    <path d="M 98.550941 403.514589 
L 100.983731 404.025133 
L 99.676501 410.266881 
L 97.243711 409.756337 
L 98.550941 403.514589 
" clip-path="url(#p066d89d18f)" style="fill: #f29888"/>
    <path d="M 416.794909 431.991822 
L 416.731719 432.653344 
L 415.83522 432.567922 
L 415.899726 431.9064 
L 416.794909 431.991822 
" clip-path="url(#p066d89d18f)" style="fill: #f29888"/>
    <path d="M 213.74645 416.349706 
L 219.890298 417.339009 
L 219.325543 421.010158 
L 213.322555 420.163887 
L 213.74645 416.349706 
" clip-path="url(#p066d89d18f)" style="fill: #f29888"/>
    <path d="M 381.289074 415.354443 
L 383.021515 415.771619 
L 382.9162 416.20866 
L 384.975119 416.705299 
L 384.698666 417.849553 
L 382.510735 417.32113 
L 382.69767 416.548361 
L 381.09424 416.160983 
L 381.289074 415.354443 
" clip-path="url(#p066d89d18f)" style="fill: #f29888"/>
    <path d="M 315.791992 414.516118 
L 316.850413 414.833966 
L 316.497606 416.000072 
L 315.473412 415.646466 
L 315.791992 414.516118 
" clip-path="url(#p066d89d18f)" style="fill: #f29888"/>
    <path d="M 296.653516 415.010769 
L 297.360447 413.916179 
L 298.949396 415.082285 
L 298.313553 416.071588 
L 296.653516 415.010769 
" clip-path="url(#p066d89d18f)" style="fill: #f29888"/>
    <path d="M 311.025145 414.269785 
L 311.413496 413.175194 
L 312.473234 413.564559 
L 312.11911 414.659149 
L 311.025145 414.269785 
" clip-path="url(#p066d89d18f)" style="fill: #f29888"/>
    <path d="M 298.137149 413.31624 
L 298.772992 412.326936 
L 299.866958 413.103679 
L 299.090255 414.057224 
L 298.137149 413.31624 
" clip-path="url(#p066d89d18f)" style="fill: #f29888"/>
    <path d="M 315.685359 413.916179 
L 316.321202 411.834271 
L 317.557344 412.326936 
L 316.992589 414.41083 
L 315.685359 413.916179 
" clip-path="url(#p066d89d18f)" style="fill: #f29888"/>
    <path d="M 314.026639 411.232346 
L 315.261464 411.657468 
L 314.55585 413.775133 
L 313.355252 413.387756 
L 314.026639 411.232346 
" clip-path="url(#p066d89d18f)" style="fill: #f29888"/>
    <path d="M 312.261286 410.844968 
L 313.390796 411.232346 
L 312.826041 412.928862 
L 311.766303 412.43421 
L 312.261286 410.844968 
" clip-path="url(#p066d89d18f)" style="fill: #f29888"/>
    <path d="M 173.427693 435.164347 
L 172.637826 439.139439 
L 171.013333 438.815631 
L 171.801883 434.842525 
L 173.427693 435.164347 
" clip-path="url(#p066d89d18f)" style="fill: #f29888"/>
    <path d="M 190.612564 433.720123 
L 189.758191 437.200563 
L 188.029699 436.775441 
L 188.884072 433.295001 
L 190.612564 433.720123 
" clip-path="url(#p066d89d18f)" style="fill: #f29888"/>
    <path d="M 172.886634 429.490752 
L 174.675682 429.854291 
L 173.851588 433.922751 
L 172.062539 433.561199 
L 172.886634 429.490752 
" clip-path="url(#p066d89d18f)" style="fill: #f29888"/>
    <path d="M 191.657821 428.457745 
L 190.910081 431.781247 
L 188.874857 431.322354 
L 189.622598 427.998851 
L 191.657821 428.457745 
" clip-path="url(#p066d89d18f)" style="fill: #f29888"/>
    <path d="M 175.805192 424.556155 
L 174.829706 428.574951 
L 172.972203 428.124004 
L 173.949005 424.105208 
L 175.805192 424.556155 
" clip-path="url(#p066d89d18f)" style="fill: #f29888"/>
    <path d="M 193.868132 417.368807 
L 192.184399 425.050807 
L 189.800318 424.528343 
L 191.484051 416.846344 
L 193.868132 417.368807 
" clip-path="url(#p066d89d18f)" style="fill: #f29888"/>
    <path d="M 187.113454 416.039803 
L 185.617972 423.66022 
L 183.412927 423.227151 
L 184.908408 415.606735 
L 187.113454 416.039803 
" clip-path="url(#p066d89d18f)" style="fill: #f29888"/>
    <path d="M 194.532937 402.054472 
L 196.703755 402.475621 
L 195.237235 410.032468 
L 193.066417 409.611319 
L 194.532937 402.054472 
" clip-path="url(#p066d89d18f)" style="fill: #f29888"/>
    <path d="M 187.88489 400.614222 
L 189.934595 400.977761 
L 188.579973 408.616056 
L 186.530269 408.252517 
L 187.88489 400.614222 
" clip-path="url(#p066d89d18f)" style="fill: #f29888"/>
    <path d="M 181.077554 399.30111 
L 183.220726 399.71034 
L 181.755523 407.410218 
L 179.611034 407.002975 
L 181.077554 399.30111 
" clip-path="url(#p066d89d18f)" style="fill: #f29888"/>
    <path d="M 124.828497 404.235707 
L 127.070403 404.5913 
L 126.533293 407.986319 
L 124.291387 407.630726 
L 124.828497 404.235707 
" clip-path="url(#p066d89d18f)" style="fill: #f29888"/>
    <path d="M 120.047169 404.456215 
L 119.627223 406.611624 
L 114.719517 405.656092 
L 115.139463 403.498696 
L 120.047169 404.456215 
" clip-path="url(#p066d89d18f)" style="fill: #f29888"/>
    <path d="M 165.124875 400.705603 
L 164.162554 405.085952 
L 162.22343 404.660829 
L 163.187068 400.280481 
L 165.124875 400.705603 
" clip-path="url(#p066d89d18f)" style="fill: #f29888"/>
    <path d="M 158.80199 400.085798 
L 158.475512 401.951172 
L 153.827145 401.138671 
L 154.153623 399.271312 
L 158.80199 400.085798 
" clip-path="url(#p066d89d18f)" style="fill: #f29888"/>
    <path d="M 147.417375 397.695976 
L 146.996112 399.926874 
L 142.145013 399.011073 
L 142.566275 396.782161 
L 147.417375 397.695976 
" clip-path="url(#p066d89d18f)" style="fill: #f29888"/>
    <path d="M 103.115055 393.184514 
L 102.416023 396.392797 
L 100.266268 395.923971 
L 100.965301 392.715688 
L 103.115055 393.184514 
" clip-path="url(#p066d89d18f)" style="fill: #f29888"/>
    <path d="M 129.899443 391.261531 
L 129.170132 394.7082 
L 126.741291 394.193683 
L 127.469285 390.747014 
L 129.899443 391.261531 
" clip-path="url(#p066d89d18f)" style="fill: #f29888"/>
    <path d="M 117.348457 390.321892 
L 116.802133 392.956061 
L 113.356996 392.240902 
L 113.903321 389.606733 
L 117.348457 390.321892 
" clip-path="url(#p066d89d18f)" style="fill: #f29888"/>
    <path d="M 104.997571 384.856885 
L 103.904922 390.866207 
L 101.349703 390.401354 
L 102.442352 384.392032 
L 104.997571 384.856885 
" clip-path="url(#p066d89d18f)" style="fill: #f29888"/>
    <path d="M 94.766162 386.324948 
L 95.216386 384.608566 
L 97.146294 385.123083 
L 96.760576 386.752057 
L 94.766162 386.324948 
" clip-path="url(#p066d89d18f)" style="fill: #f29888"/>
    <path d="M 155.700446 384.278798 
L 155.381866 385.991207 
L 152.201335 385.399214 
L 152.519915 383.688792 
L 155.700446 384.278798 
" clip-path="url(#p066d89d18f)" style="fill: #f29888"/>
    <path d="M 139.175113 381.306916 
L 138.466866 384.441696 
L 135.679952 383.811959 
L 136.388199 380.677178 
L 139.175113 381.306916 
" clip-path="url(#p066d89d18f)" style="fill: #f29888"/>
    <path d="M 132.130817 379.302484 
L 131.114521 384.078157 
L 128.829173 383.593438 
L 129.844152 378.815778 
L 132.130817 379.302484 
" clip-path="url(#p066d89d18f)" style="fill: #f29888"/>
    <path d="M 103.791708 379.004501 
L 106.107334 379.401811 
L 105.484656 383.037203 
L 103.169029 382.639892 
L 103.791708 379.004501 
" clip-path="url(#p066d89d18f)" style="fill: #f29888"/>
    <path d="M 123.14608 377.73708 
L 125.935627 378.233718 
L 125.559124 380.355357 
L 122.769577 379.860705 
L 123.14608 377.73708 
" clip-path="url(#p066d89d18f)" style="fill: #f29888"/>
    <path d="M 121.42812 377.305998 
L 121.073996 379.411744 
L 117.563038 378.821738 
L 117.918478 376.715992 
L 121.42812 377.305998 
" clip-path="url(#p066d89d18f)" style="fill: #f29888"/>
    <path d="M 116.205783 376.209421 
L 115.880621 378.333046 
L 112.311739 377.784758 
L 112.636901 375.663119 
L 116.205783 376.209421 
" clip-path="url(#p066d89d18f)" style="fill: #f29888"/>
    <path d="M 164.812877 376.11804 
L 164.520627 377.735094 
L 160.438331 376.998083 
L 160.730582 375.381029 
L 164.812877 376.11804 
" clip-path="url(#p066d89d18f)" style="fill: #f29888"/>
    <path d="M 111.109825 375.398908 
L 110.739904 377.615901 
L 104.282742 376.541175 
L 104.652663 374.322196 
L 111.109825 375.398908 
" clip-path="url(#p066d89d18f)" style="fill: #f29888"/>
    <path d="M 159.060013 374.884391 
L 158.713788 376.594812 
L 155.264703 375.897532 
L 155.610928 374.187111 
L 159.060013 374.884391 
" clip-path="url(#p066d89d18f)" style="fill: #f29888"/>
    <path d="M 98.899799 372.172746 
L 101.744636 372.754806 
L 101.389196 374.491053 
L 98.544358 373.908993 
L 98.899799 372.172746 
" clip-path="url(#p066d89d18f)" style="fill: #f29888"/>
    <path d="M 152.093387 369.49686 
L 151.556277 372.782618 
L 149.784343 372.492581 
L 150.321452 369.206823 
L 152.093387 369.49686 
" clip-path="url(#p066d89d18f)" style="fill: #f29888"/>
    <path d="M 166.253068 365.30126 
L 165.942387 367.184512 
L 162.676287 366.646156 
L 162.988285 364.760918 
L 166.253068 365.30126 
" clip-path="url(#p066d89d18f)" style="fill: #f29888"/>
    <path d="M 121.754598 351.901962 
L 121.628219 354.627512 
L 119.858918 354.546064 
L 119.985296 351.820513 
L 121.754598 351.901962 
" clip-path="url(#p066d89d18f)" style="fill: #f29888"/>
    <path d="M 107.467222 348.761222 
L 106.861657 350.624609 
L 104.299855 349.692915 
L 104.90542 347.970574 
L 107.467222 348.761222 
" clip-path="url(#p066d89d18f)" style="fill: #f29888"/>
    <path d="M 176.56873 400.000377 
L 179.017318 400.483109 
L 177.808821 406.61957 
L 175.360234 406.136838 
L 176.56873 400.000377 
" clip-path="url(#p066d89d18f)" style="fill: #f29888"/>
    <path d="M 164.543006 392.648145 
L 167.502374 393.170608 
L 166.77833 397.276813 
L 163.818961 396.75435 
L 164.543006 392.648145 
" clip-path="url(#p066d89d18f)" style="fill: #f29888"/>
    <path d="M 169.764027 376.908688 
L 169.513902 378.764128 
L 167.819637 378.535674 
L 168.068446 376.680234 
L 169.764027 376.908688 
" clip-path="url(#p066d89d18f)" style="fill: #f29888"/>
    <path d="M 184.388413 372.031701 
L 189.622598 373.829531 
L 188.888021 375.969048 
L 186.10769 375.013516 
L 184.448969 379.844813 
L 181.995116 379.000528 
L 184.388413 372.031701 
" clip-path="url(#p066d89d18f)" style="fill: #f29888"/>
    <path d="M 171.234495 320.820358 
L 171.88087 308.460027 
L 174.98768 308.622924 
L 174.666467 314.767332 
L 173.669919 314.715681 
L 173.475085 318.434508 
L 174.521658 318.488145 
L 174.264952 323.412809 
L 172.231044 323.305535 
L 172.257373 322.793005 
L 166.899443 322.512901 
L 166.999492 320.597864 
L 171.234495 320.820358 
" clip-path="url(#p066d89d18f)" style="fill: #f29888"/>
    <path d="M 788.129782 440.299585 
L 788.158744 442.456982 
L 786.636934 442.476847 
L 786.607972 440.319451 
L 788.129782 440.299585 
" clip-path="url(#p066d89d18f)" style="fill: #f29888"/>
    <path d="M 452.312592 438.291181 
L 452.388945 439.030178 
L 451.345005 439.137452 
L 451.268651 438.400441 
L 452.312592 438.291181 
" clip-path="url(#p066d89d18f)" style="fill: #f29888"/>
    <path d="M 529.027101 406.766575 
L 530.758226 407.366514 
L 530.369874 408.743195 
L 528.604522 408.179014 
L 529.027101 406.766575 
" clip-path="url(#p066d89d18f)" style="fill: #f29888"/>
    <path d="M 515.433491 405.495182 
L 516.774948 405.707743 
L 516.739404 406.659301 
L 515.292631 406.377211 
L 515.433491 405.495182 
" clip-path="url(#p066d89d18f)" style="fill: #f29888"/>
    <path d="M 513.349558 405.036288 
L 514.72656 405.213091 
L 514.621244 406.200408 
L 513.208699 405.989833 
L 513.349558 405.036288 
" clip-path="url(#p066d89d18f)" style="fill: #f29888"/>
    <path d="M 511.019451 404.436349 
L 512.855892 404.613152 
L 512.679488 405.918317 
L 510.878591 405.741514 
L 511.019451 404.436349 
" clip-path="url(#p066d89d18f)" style="fill: #f29888"/>
    <path d="M 436.621885 397.620487 
L 441.424276 398.361471 
L 441.247872 399.632864 
L 436.409937 398.786593 
L 436.621885 397.620487 
" clip-path="url(#p066d89d18f)" style="fill: #f29888"/>
    <path d="M 439.658923 396.313335 
L 441.777083 396.420609 
L 441.636224 397.833048 
L 439.587835 397.550957 
L 439.658923 396.313335 
" clip-path="url(#p066d89d18f)" style="fill: #f29888"/>
    <path d="M 438.458326 394.159912 
L 441.953487 394.513518 
L 441.848171 395.82067 
L 438.387238 395.395547 
L 438.458326 394.159912 
" clip-path="url(#p066d89d18f)" style="fill: #f29888"/>
    <path d="M 440.294766 389.958353 
L 443.013225 390.453004 
L 442.836821 391.68864 
L 440.082819 391.229746 
L 440.294766 389.958353 
" clip-path="url(#p066d89d18f)" style="fill: #f29888"/>
    <path d="M 441.353188 386.992429 
L 443.57798 387.346036 
L 443.260716 388.863762 
L 441.14124 388.440626 
L 441.353188 386.992429 
" clip-path="url(#p066d89d18f)" style="fill: #f29888"/>
    <path d="M 442.836821 382.506793 
L 445.060297 382.401506 
L 445.095841 383.601384 
L 442.977681 383.708658 
L 442.836821 382.506793 
" clip-path="url(#p066d89d18f)" style="fill: #f29888"/>
    <path d="M 441.14124 379.081976 
L 442.730189 378.199947 
L 443.225172 379.18925 
L 441.60068 379.965992 
L 441.14124 379.081976 
" clip-path="url(#p066d89d18f)" style="fill: #f29888"/>
    <path d="M 443.754383 377.000069 
L 445.908087 376.046524 
L 446.472842 377.458963 
L 444.42577 378.412508 
L 443.754383 377.000069 
" clip-path="url(#p066d89d18f)" style="fill: #f29888"/>
    <path d="M 310.318214 409.960952 
L 311.872935 410.314559 
L 311.094916 412.857346 
L 309.612599 412.43421 
L 310.318214 409.960952 
" clip-path="url(#p066d89d18f)" style="fill: #f29888"/>
    <path d="M 298.066061 407.914803 
L 298.737448 407.030787 
L 300.502801 408.302181 
L 299.831414 409.219968 
L 298.066061 407.914803 
" clip-path="url(#p066d89d18f)" style="fill: #f29888"/>
    <path d="M 417.907305 401.345273 
L 420.061008 401.311502 
L 420.096552 402.652425 
L 417.942849 402.757712 
L 417.907305 401.345273 
" clip-path="url(#p066d89d18f)" style="fill: #f29888"/>
    <path d="M 421.649957 400.745334 
L 422.709695 400.640047 
L 422.816327 401.839925 
L 421.721045 401.804167 
L 421.649957 400.745334 
" clip-path="url(#p066d89d18f)" style="fill: #f29888"/>
    <path d="M 284.260504 375.637294 
L 284.260504 376.837172 
L 281.964624 376.837172 
L 281.964624 375.637294 
L 284.260504 375.637294 
" clip-path="url(#p066d89d18f)" style="fill: #f29888"/>
    <path d="M 275.608828 372.353522 
L 275.95242 370.498082 
L 277.858632 370.851688 
L 277.516357 372.705142 
L 275.608828 372.353522 
" clip-path="url(#p066d89d18f)" style="fill: #f29888"/>
    <path d="M 433.620391 317.167087 
L 434.785444 316.956513 
L 435.104024 318.861617 
L 434.008742 319.109936 
L 433.620391 317.167087 
" clip-path="url(#p066d89d18f)" style="fill: #f29888"/>
    <path d="M 431.607546 315.754648 
L 432.95032 315.861922 
L 432.808144 317.979587 
L 431.431143 317.94383 
L 431.607546 315.754648 
" clip-path="url(#p066d89d18f)" style="fill: #f29888"/>
    <path d="M 431.714178 313.17809 
L 432.738373 313.283377 
L 432.631741 315.295755 
L 431.678634 315.259997 
L 431.714178 313.17809 
" clip-path="url(#p066d89d18f)" style="fill: #f29888"/>
    <path d="M 431.819494 305.233865 
L 432.984548 305.269623 
L 432.879232 308.376592 
L 431.78395 308.340834 
L 431.819494 305.233865 
" clip-path="url(#p066d89d18f)" style="fill: #f29888"/>
    <path d="M 443.613524 369.443223 
L 445.767228 369.512752 
L 445.69614 371.17351 
L 443.57798 371.101994 
L 443.613524 369.443223 
" clip-path="url(#p066d89d18f)" style="fill: #f29888"/>
    <path d="M 440.788433 369.478981 
L 442.553786 369.54851 
L 442.624874 370.714616 
L 440.788433 370.6431 
L 440.788433 369.478981 
" clip-path="url(#p066d89d18f)" style="fill: #f29888"/>
    <path d="M 446.68479 354.613606 
L 448.061791 353.870636 
L 448.909581 355.390349 
L 447.461492 356.167091 
L 446.68479 354.613606 
" clip-path="url(#p066d89d18f)" style="fill: #f29888"/>
    <path d="M 444.531086 350.092212 
L 446.861193 349.351228 
L 447.320633 350.835183 
L 445.060297 351.540409 
L 444.531086 350.092212 
" clip-path="url(#p066d89d18f)" style="fill: #f29888"/>
    <path d="M 443.683295 348.079834 
L 445.767228 347.515654 
L 446.120035 348.751289 
L 444.037419 349.210183 
L 443.683295 348.079834 
" clip-path="url(#p066d89d18f)" style="fill: #f29888"/>
    <path d="M 438.139746 339.994565 
L 439.375888 339.676716 
L 440.117046 342.147988 
L 438.951992 342.537352 
L 438.139746 339.994565 
" clip-path="url(#p066d89d18f)" style="fill: #f29888"/>
    <path d="M 445.166929 334.062718 
L 446.54393 333.850157 
L 446.932281 335.651961 
L 445.55528 335.898293 
L 445.166929 334.062718 
" clip-path="url(#p066d89d18f)" style="fill: #f29888"/>
    <path d="M 434.785444 326.136373 
L 436.374393 325.711251 
L 436.727201 327.477296 
L 435.138252 327.86666 
L 434.785444 326.136373 
" clip-path="url(#p066d89d18f)" style="fill: #f29888"/>
    <path d="M 434.327322 323.911434 
L 435.350199 323.734631 
L 435.527919 324.793463 
L 434.573497 325.041782 
L 434.327322 323.911434 
" clip-path="url(#p066d89d18f)" style="fill: #f29888"/>
    <path d="M 434.149601 322.111617 
L 436.338849 321.758011 
L 436.621885 323.134692 
L 434.361549 323.416782 
L 434.149601 322.111617 
" clip-path="url(#p066d89d18f)" style="fill: #f29888"/>
    <path d="M 432.526425 301.383926 
L 434.468181 301.526958 
L 434.361549 302.726836 
L 432.419793 302.550032 
L 432.526425 301.383926 
" clip-path="url(#p066d89d18f)" style="fill: #f29888"/>
    <path d="M 431.007248 297.571731 
L 432.066986 297.607489 
L 432.066986 299.478822 
L 430.971704 299.443064 
L 431.007248 297.571731 
" clip-path="url(#p066d89d18f)" style="fill: #f29888"/>
    <path d="M 425.886277 189.558886 
L 427.687174 189.417841 
L 427.82935 192.419522 
L 426.098225 192.524809 
L 425.886277 189.558886 
" clip-path="url(#p066d89d18f)" style="fill: #f29888"/>
    <path d="M 429.149744 186.700237 
L 432.966118 186.491649 
L 433.075382 188.50204 
L 429.260325 188.708641 
L 429.149744 186.700237 
" clip-path="url(#p066d89d18f)" style="fill: #f29888"/>
    <path d="M 430.693934 120.118935 
L 434.478713 121.859155 
L 432.188099 126.839443 
L 434.052185 127.695647 
L 433.089863 129.789474 
L 431.211296 128.925323 
L 428.911467 133.927463 
L 425.141169 132.193203 
L 430.693934 120.118935 
" clip-path="url(#p066d89d18f)" style="fill: #f29888"/>
    <path d="M 479.187814 145.679909 
L 478.139924 149.301395 
L 465.436231 145.628259 
L 466.484121 142.006773 
L 479.187814 145.679909 
" clip-path="url(#p066d89d18f)" style="fill: #f29888"/>
    <path d="M 438.023899 140.928075 
L 437.007603 142.390178 
L 436.109788 141.7664 
L 437.126083 140.304298 
L 438.023899 140.928075 
" clip-path="url(#p066d89d18f)" style="fill: #f29888"/>
    <path d="M 440.026211 138.613741 
L 441.426909 134.608851 
L 446.622917 136.426547 
L 447.935412 132.675935 
L 442.123308 130.645678 
L 443.479246 126.769914 
L 457.29007 131.597237 
L 455.939397 135.457109 
L 450.569618 133.579817 
L 449.268971 137.298643 
L 454.655863 139.181895 
L 453.238052 143.234463 
L 440.026211 138.613741 
" clip-path="url(#p066d89d18f)" style="fill: #f29888"/>
    <path d="M 437.48284 132.513038 
L 435.526603 136.71261 
L 433.588796 135.810715 
L 435.543717 131.609156 
L 437.48284 132.513038 
" clip-path="url(#p066d89d18f)" style="fill: #f29888"/>
    <path d="M 438.996752 125.212456 
L 440.486967 125.726974 
L 439.299534 129.177616 
L 437.808002 128.663098 
L 438.996752 125.212456 
" clip-path="url(#p066d89d18f)" style="fill: #f29888"/>
   </g>
   <g id="LineCollection_1">
    <path d="M 333.582428 620.285236 
L 342.181446 626.997798 
L 352.327286 632.766747 
L 355.262958 635.466472 
L 355.82094 636.187375 
" clip-path="url(#p066d89d18f)" style="fill: none; stroke: #f29888; stroke-width: 0.2"/>
    <path d="M 291.508849 430.414499 
L 292.030161 431.55478 
L 292.837142 433.320826 
L 298.790106 446.338706 
L 328.572038 467.209429 
L 338.407986 477.255762 
" clip-path="url(#p066d89d18f)" style="fill: none; stroke: #f29888; stroke-width: 0.2"/>
    <path d="M 430.738693 438.350777 
L 432.32106 441.046529 
L 434.822305 441.453773 
L 435.742671 441.683612 
" clip-path="url(#p066d89d18f)" style="fill: none; stroke: #f29888; stroke-width: 0.2"/>
    <path d="M 493.263242 427.216149 
L 463.439184 429.989377 
L 458.867171 430.414499 
L 454.829634 429.41725 
L 449.953522 430.623087 
L 444.291493 429.890049 
L 439.770821 429.784762 
" clip-path="url(#p066d89d18f)" style="fill: none; stroke: #f29888; stroke-width: 0.2"/>
    <path d="M 537.004757 425.217677 
L 542.148107 425.34283 
L 548.211652 425.481889 
" clip-path="url(#p066d89d18f)" style="fill: none; stroke: #f29888; stroke-width: 0.2"/>
    <path d="M 494.777154 426.123545 
L 498.36315 424.693227 
L 501.036849 424.53629 
L 502.557343 423.695978 
" clip-path="url(#p066d89d18f)" style="fill: none; stroke: #f29888; stroke-width: 0.2"/>
    <path d="M 387.856817 423.167555 
L 390.964944 421.896161 
L 391.953594 419.98907 
L 393.012015 418.225012 
L 394.777368 417.517799 
L 395.625158 415.894785 
" clip-path="url(#p066d89d18f)" style="fill: none; stroke: #f29888; stroke-width: 0.2"/>
    <path d="M 547.391507 410.860861 
L 546.552931 414.375072 
L 546.285693 418.24289 
L 543.76865 418.348178 
L 541.042293 421.022078 
L 539.050512 424.168777 
L 537.004757 425.217677 
L 529.402287 424.274065 
L 520.435981 424.168777 
L 514.406664 424.377365 
L 510.054497 424.744878 
L 506.174934 424.01184 
L 502.557343 423.695978 
L 499.620355 423.330452 
L 496.684683 422.019327 
L 494.777154 420.338704 
" clip-path="url(#p066d89d18f)" style="fill: none; stroke: #f29888; stroke-width: 0.2"/>
    <path d="M 421.243176 424.963398 
L 423.087515 405.213091 
" clip-path="url(#p066d89d18f)" style="fill: none; stroke: #f29888; stroke-width: 0.2"/>
    <path d="M 462.991592 435.476235 
L 481.125621 433.366516 
L 497.806294 431.586565 
L 512.3122 431.73357 
L 524.285266 432.514285 
L 529.540514 433.114224 
L 582.797804 438.557662 
" clip-path="url(#p066d89d18f)" style="fill: none; stroke: #f29888; stroke-width: 0.2"/>
    <path d="M 583.011225 436.099309 
L 560.831092 433.700257 
L 556.045815 433.183754 
L 547.891756 432.301724 
L 538.839881 431.258784 
L 524.543289 429.842372 
L 511.746129 429.091455 
L 497.382398 429.043778 
L 480.558233 430.442311 
L 463.684042 432.331522 
L 462.637469 432.432837 
" clip-path="url(#p066d89d18f)" style="fill: none; stroke: #f29888; stroke-width: 0.2"/>
    <path d="M 681.429895 442.116351 
L 681.127826 441.32862 
L 680.515679 437.89983 
" clip-path="url(#p066d89d18f)" style="fill: none; stroke: #f29888; stroke-width: 0.2"/>
    <path d="M 680.515679 437.89983 
L 679.590218 440.375074 
L 678.767015 441.853472 
" clip-path="url(#p066d89d18f)" style="fill: none; stroke: #f29888; stroke-width: 0.2"/>
    <path d="M 788.884105 444.626297 
L 784.613558 445.997019 
L 779.874356 446.114225 
L 773.567269 445.528192 
L 767.143018 442.941701 
L 755.0778 441.727917 
L 731.312021 438.35475 
L 724.378306 437.13898 
L 720.618539 433.926724 
L 693.914455 430.021162 
L 682.076982 428.940477 
L 663.068835 427.216149 
L 606.143125 422.051112 
" clip-path="url(#p066d89d18f)" style="fill: none; stroke: #f29888; stroke-width: 0.2"/>
    <path d="M 682.076982 428.940477 
L 680.777651 435.927183 
L 680.515679 437.89983 
" clip-path="url(#p066d89d18f)" style="fill: none; stroke: #f29888; stroke-width: 0.2"/>
    <path d="M 595.573751 434.820848 
L 595.311417 434.23464 
L 594.218768 433.219512 
L 592.839133 432.959273 
L 591.043502 433.426113 
L 588.801369 434.246053 
" clip-path="url(#p066d89d18f)" style="fill: none; stroke: #f29888; stroke-width: 0.2"/>
    <path d="M 556.045815 433.183754 
L 552.75602 431.654108 
L 551.088084 430.591302 
L 550.170522 429.52651 
L 549.566274 428.588857 
L 549.274023 426.733417 
L 549.274023 425.34879 
L 549.274023 421.896161 
" clip-path="url(#p066d89d18f)" style="fill: none; stroke: #f29888; stroke-width: 0.2"/>
    <path d="M 549.274023 421.896161 
L 548.211652 425.481889 
L 547.502088 427.337329 
L 546.793841 428.859028 
L 545.70909 429.882103 
L 543.248655 430.674737 
L 538.839881 431.258784 
" clip-path="url(#p066d89d18f)" style="fill: none; stroke: #f29888; stroke-width: 0.2"/>
    <path d="M 549.274023 425.34879 
L 556.19589 423.225165 
L 560.128111 422.227915 
L 563.587728 421.598178 
L 564.793592 418.558752 
" clip-path="url(#p066d89d18f)" style="fill: none; stroke: #f29888; stroke-width: 0.2"/>
    <path d="M 556.19589 423.225165 
L 558.187671 420.392341 
L 560.179452 416.355665 
L 561.019344 412.789803 
" clip-path="url(#p066d89d18f)" style="fill: none; stroke: #f29888; stroke-width: 0.2"/>
    <path d="M 549.274023 421.896161 
L 546.285693 418.24289 
L 544.503227 416.198728 
L 543.13939 412.789803 
L 540.989635 410.535066 
L 539.993086 409.643104 
" clip-path="url(#p066d89d18f)" style="fill: none; stroke: #f29888; stroke-width: 0.2"/>
    <path d="M 595.048128 413.995641 
L 587.707631 413.000378 
L 581.991627 412.370641 
L 579.26527 411.897841 
L 576.696886 412.632866 
L 574.02187 412.003128 
L 572.082747 410.535066 
L 571.348171 409.223941 
" clip-path="url(#p066d89d18f)" style="fill: none; stroke: #f29888; stroke-width: 0.2"/>
    <path d="M 606.143125 422.051112 
L 603.570792 418.332285 
L 600.028239 416.669541 
L 598.036458 416.09344 
L 595.048128 413.995641 
L 594.104237 412.475928 
L 593.840948 407.126141 
L 590.957934 402.145854 
L 588.440891 395.381642 
L 584.770643 390.504655 
L 579.789215 386.46798 
" clip-path="url(#p066d89d18f)" style="fill: none; stroke: #f29888; stroke-width: 0.2"/>
    <path d="M 579.789215 386.46798 
L 579.828709 383.456366 
" clip-path="url(#p066d89d18f)" style="fill: none; stroke: #f29888; stroke-width: 0.2"/>
    <path d="M 579.828709 383.456366 
L 580.088048 381.972411 
" clip-path="url(#p066d89d18f)" style="fill: none; stroke: #f29888; stroke-width: 0.2"/>
    <path d="M 351.895492 412.092523 
L 355.107618 413.369877 
L 360.615623 414.005574 
L 366.759472 414.782316 
L 373.327215 413.0858 
L 380.883609 411.603831 
L 384.697349 411.885922 
L 389.852548 412.309057 
L 392.111567 412.098483 
L 394.195499 411.603831 
" clip-path="url(#p066d89d18f)" style="fill: none; stroke: #f29888; stroke-width: 0.2"/>
    <path d="M 394.195499 411.603831 
L 396.596695 411.673361 
L 398.290959 411.462786 
L 399.562645 411.003892 
L 401.433313 410.827089 
L 403.410613 410.155634 
" clip-path="url(#p066d89d18f)" style="fill: none; stroke: #f29888; stroke-width: 0.2"/>
    <path d="M 403.410613 410.155634 
L 407.471846 408.107498 
L 411.850342 406.482498 
L 414.004045 405.989833 
L 417.534751 405.459424 
L 420.675788 405.360096 
" clip-path="url(#p066d89d18f)" style="fill: none; stroke: #f29888; stroke-width: 0.2"/>
    <path d="M 442.200978 404.789955 
L 423.087515 405.213091 
L 420.675788 405.360096 
" clip-path="url(#p066d89d18f)" style="fill: none; stroke: #f29888; stroke-width: 0.2"/>
    <path d="M 471.102209 378.932985 
L 473.923351 380.258016 
L 475.368807 382.705449 
L 474.682939 390.083505 
L 477.94509 402.745793 
L 479.520874 404.080756 
L 491.292524 410.513214 
L 493.386988 412.793776 
L 494.777154 420.338704 
L 495.240543 424.101234 
L 494.777154 426.123545 
L 493.263242 427.216149 
" clip-path="url(#p066d89d18f)" style="fill: none; stroke: #f29888; stroke-width: 0.2"/>
    <path d="M 446.946762 387.586409 
L 456.659493 384.399978 
L 465.928581 375.649213 
L 470.576948 374.580448 
" clip-path="url(#p066d89d18f)" style="fill: none; stroke: #f29888; stroke-width: 0.2"/>
    <path d="M 439.836643 434.709426 
L 439.770821 429.784762 
L 439.679986 423.068227 
L 442.200978 404.789955 
L 446.946762 387.586409 
L 448.688419 376.610705 
L 448.949075 369.90013 
L 449.690233 365.265502 
L 443.943951 355.886987 
L 440.880584 353.107799 
L 439.498317 351.856271 
L 437.295905 347.765959 
L 435.467363 337.57693 
L 434.723571 334.738146 
L 431.391649 322.020236 
L 429.402501 320.655474 
L 429.103668 304.906084 
" clip-path="url(#p066d89d18f)" style="fill: none; stroke: #f29888; stroke-width: 0.2"/>
    <path d="M 463.684042 432.331522 
L 463.439184 429.989377 
L 463.079794 426.542708 
L 463.424703 416.300042 
L 464.443631 407.720121 
L 466.330097 400.640047 
L 465.124233 390.363609 
L 467.012015 384.858872 
L 470.053003 380.401047 
L 471.102209 378.932985 
L 470.576948 374.580448 
L 468.952455 368.340686 
L 466.015466 344.694749 
L 463.971027 328.808286 
L 463.865712 322.622161 
L 461.192012 302.174574 
L 459.094916 293.837012 
L 460.195463 286.550337 
" clip-path="url(#p066d89d18f)" style="fill: none; stroke: #f29888; stroke-width: 0.2"/>
    <path d="M 440.880584 353.107799 
L 432.677816 354.047439 
L 403.833192 357.311345 
L 382.47914 359.83228 
L 368.686747 360.277268 
L 359.547986 359.115135 
L 354.825899 359.093283 
L 354.004437 359.091296 
L 344.514186 357.607341 
L 338.35849 358.052329 
L 333.465264 357.088851 
L 330.203114 356.494872 
L 325.234851 357.829835 
L 320.785267 359.31379 
L 318.115517 358.942305 
L 313.667249 359.31379 
L 309.811382 359.091296 
L 307.586591 358.052329 
L 304.101961 355.680385 
L 298.837498 352.638973 
" clip-path="url(#p066d89d18f)" style="fill: none; stroke: #f29888; stroke-width: 0.2"/>
    <path d="M 434.723571 334.738146 
L 453.60929 330.645848 
L 463.971027 328.808286 
" clip-path="url(#p066d89d18f)" style="fill: none; stroke: #f29888; stroke-width: 0.2"/>
    <path d="M 580.243389 380.575864 
L 587.668138 381.509544 
" clip-path="url(#p066d89d18f)" style="fill: none; stroke: #f29888; stroke-width: 0.2"/>
    <path d="M 390.415986 296.691688 
L 390.43632 295.032636 
" clip-path="url(#p066d89d18f)" style="fill: none; stroke: #f29888; stroke-width: 0.2"/>
    <path d="M 459.925592 285.135911 
L 460.161236 285.90868 
L 460.195463 286.550337 
" clip-path="url(#p066d89d18f)" style="fill: none; stroke: #f29888; stroke-width: 0.2"/>
    <path d="M 459.608075 284.514491 
L 459.925592 285.135911 
" clip-path="url(#p066d89d18f)" style="fill: none; stroke: #f29888; stroke-width: 0.2"/>
    <path d="M 463.328602 240.964911 
L 463.963129 243.718273 
L 463.701156 249.850761 
L 464.592389 255.041624 
L 465.272002 255.968252 
" clip-path="url(#p066d89d18f)" style="fill: none; stroke: #f29888; stroke-width: 0.2"/>
    <path d="M 377.96391 241.982744 
L 376.95797 238.696268 
L 376.964552 235.511824 
L 376.975084 229.782606 
L 379.560582 221.40134 
" clip-path="url(#p066d89d18f)" style="fill: none; stroke: #f29888; stroke-width: 0.2"/>
    <path d="M 423.273134 244.687711 
L 432.356604 243.726219 
L 436.238799 243.926861 
L 442.040372 242.285969 
L 446.482057 240.684807 
L 455.28644 239.566378 
L 463.328602 240.964911 
L 467.970387 240.964911 
" clip-path="url(#p066d89d18f)" style="fill: none; stroke: #f29888; stroke-width: 0.2"/>
    <path d="M 370.105874 239.292234 
L 375.37336 242.032734 
" clip-path="url(#p066d89d18f)" style="fill: none; stroke: #f29888; stroke-width: 0.2"/>
    <path d="M 580.088048 381.972411 
L 580.243389 380.575864 
" clip-path="url(#p066d89d18f)" style="fill: none; stroke: #f29888; stroke-width: 0.2"/>
    <path d="M 569.904031 240.009379 
L 569.451174 243.233554 
L 570.243673 258.625365 
L 570.130459 269.716289 
" clip-path="url(#p066d89d18f)" style="fill: none; stroke: #f29888; stroke-width: 0.2"/>
    <path d="M 587.382469 235.46812 
L 586.937511 238.14202 
L 584.844364 239.216745 
L 569.904031 240.009379 
L 556.09584 229.879947 
" clip-path="url(#p066d89d18f)" style="fill: none; stroke: #f29888; stroke-width: 0.2"/>
    <path d="M 618.210975 250.683127 
L 613.735063 235.446268 
L 612.663477 234.317906 
L 610.016106 232.26977 
L 596.851657 221.025881 
L 591.318639 213.459102 
L 583.626652 208.842353 
L 575.787223 204.13621 
" clip-path="url(#p066d89d18f)" style="fill: none; stroke: #f29888; stroke-width: 0.2"/>
    <path d="M 585.126083 205.445348 
L 583.626652 208.842353 
L 582.863114 211.095104 
L 579.354788 224.730802 
L 577.656574 228.183431 
L 577.93961 231.238749 
L 580.485615 232.822031 
L 587.382469 235.46812 
L 603.348313 241.592662 
" clip-path="url(#p066d89d18f)" style="fill: none; stroke: #f29888; stroke-width: 0.2"/>
    <path d="M 628.011908 196.16616 
L 630.27055 197.152248 
" clip-path="url(#p066d89d18f)" style="fill: none; stroke: #f29888; stroke-width: 0.2"/>
    <path d="M 595.801134 205.993637 
L 600.899725 203.134987 
L 603.44178 201.015336 
L 604.960958 200.133306 
" clip-path="url(#p066d89d18f)" style="fill: none; stroke: #f29888; stroke-width: 0.2"/>
    <path d="M 204.63383 694.092726 
L 203.805975 689.602021 
L 200.133094 680.702265 
L 201.404779 674.909477 
L 202.209127 663.92384 
" clip-path="url(#p066d89d18f)" style="fill: none; stroke: #f29888; stroke-width: 0.2"/>
    <path d="M 214.266446 624.033861 
L 220.149638 631.258954 
L 229.692547 637.13319 
L 239.218537 642.212374 
" clip-path="url(#p066d89d18f)" style="fill: none; stroke: #f29888; stroke-width: 0.2"/>
    <path d="M 246.487751 613.364087 
L 251.770644 603.955773 
L 251.029486 600.691867 
L 253.47544 594.388535 
L 253.030482 588.826187 
L 253.503085 584.400148 
L 254.217915 577.701492 
L 252.971242 571.402133 
L 250.768829 559.07756 
L 252.185324 550.896936 
L 249.877596 542.297149 
L 250.243568 538.544551 
L 250.297542 537.996262 
L 254.806366 521.897239 
L 257.376066 514.398002 
L 258.949218 509.415728 
" clip-path="url(#p066d89d18f)" style="fill: none; stroke: #f29888; stroke-width: 0.2"/>
    <path d="M 291.141561 587.08398 
L 286.738053 564.637921 
L 282.280571 544.238011 
L 274.940074 520.061664 
L 273.472238 517.125539 
L 272.528347 516.495802 
" clip-path="url(#p066d89d18f)" style="fill: none; stroke: #f29888; stroke-width: 0.2"/>
    <path d="M 292.837142 433.320826 
L 288.55343 443.640967 
L 290.355643 450.79057 
L 291.468039 462.209276 
L 293.470352 467.994117 
L 301.471704 477.259399 
L 306.150349 482.678715 
L 307.558945 487.275598 
L 307.781424 490.539504 
L 311.637291 495.358881 
L 314.752 504.630123 
L 316.21852 507.987397 
L 317.050513 509.894487 
L 319.571505 517.385778 
L 319.867705 524.430094 
L 321.49878 537.112246 
L 325.615303 547.791954 
L 327.783488 551.92597 
L 327.709767 561.753447 
L 328.302167 565.035232 
L 329.432993 567.556167 
L 330.175468 570.096968 
L 330.749438 589.034775 
L 326.301171 600.902441 
" clip-path="url(#p066d89d18f)" style="fill: none; stroke: #f29888; stroke-width: 0.2"/>
    <path d="M 234.217168 522.330308 
L 233.994689 515.174745 
L 235.297969 511.851242 
L 235.885104 510.353381 
L 238.133591 504.622176 
L 243.760077 494.719211 
" clip-path="url(#p066d89d18f)" style="fill: none; stroke: #f29888; stroke-width: 0.2"/>
    <path d="M 213.697742 478.292407 
L 216.792704 481.780793 
L 221.512158 484.140818 
L 234.043397 488.598642 
L 238.398197 491.342071 
L 243.760077 494.719211 
L 248.777048 497.879816 
L 255.540942 503.175966 
L 257.690697 505.587641 
L 258.949218 509.415728 
L 262.408835 512.824653 
L 264.060973 513.599408 
L 265.764453 514.398002 
L 272.528347 516.495802 
" clip-path="url(#p066d89d18f)" style="fill: none; stroke: #f29888; stroke-width: 0.2"/>
    <path d="M 330.157478 482.203214 
L 329.71208 481.538434 
L 327.168708 480.594821 
L 326.173476 479.230059 
L 326.382791 478.18116 
L 327.535996 476.136997 
L 327.509667 474.825872 
L 325.648214 472.07251 
L 325.359913 470.264747 
L 326.382791 468.58611 
L 328.572038 467.209429 
" clip-path="url(#p066d89d18f)" style="fill: none; stroke: #f29888; stroke-width: 0.2"/>
    <path d="M 294.262852 480.199497 
L 276.614592 451.279262 
L 275.354754 447.496866 
L 275.428475 441.044543 
" clip-path="url(#p066d89d18f)" style="fill: none; stroke: #f29888; stroke-width: 0.2"/>
    <path d="M 154.769922 710.786977 
L 154.664404 708.519962 
" clip-path="url(#p066d89d18f)" style="fill: none; stroke: #f29888; stroke-width: 0.2"/>
    <path d="M 154.956655 645.150917 
L 152.020982 647.145416 
L 148.874679 648.194316 
L 143.474622 650.292115 
L 139.33177 653.281877 
L 131.12218 654.600158 
" clip-path="url(#p066d89d18f)" style="fill: none; stroke: #f29888; stroke-width: 0.2"/>
    <path d="M 160.012109 480.079402 
L 160.117118 477.106435 
L 160.616051 475.048366 
" clip-path="url(#p066d89d18f)" style="fill: none; stroke: #f29888; stroke-width: 0.2"/>
    <path d="M 82.168061 420.271263 
L 86.878024 417.491974 
" clip-path="url(#p066d89d18f)" style="fill: none; stroke: #f29888; stroke-width: 0.2"/>
    <path d="M 119.843446 447.992886 
L 121.023971 437.597874 
L 121.941533 432.905636 
L 123.225067 430.885312 
L 126.191017 422.79011 
L 127.082251 417.801876 
L 129.887595 402.108109 
L 132.134766 389.529257 
L 134.273989 377.556304 
" clip-path="url(#p066d89d18f)" style="fill: none; stroke: #f29888; stroke-width: 0.2"/>
    <path d="M 136.937157 421.596191 
L 145.642807 428.052488 
L 150.675576 433.400288 
L 152.773989 438.120337 
L 153.692867 440.061199 
" clip-path="url(#p066d89d18f)" style="fill: none; stroke: #f29888; stroke-width: 0.2"/>
    <path d="M 78.15526 416.204687 
L 86.878024 417.491974 
L 90.9748 417.855513 
L 94.154015 416.480818 
L 126.191017 422.79011 
L 136.223644 421.788887 
L 136.937157 421.596191 
L 145.557238 419.271925 
" clip-path="url(#p066d89d18f)" style="fill: none; stroke: #f29888; stroke-width: 0.2"/>
    <path d="M 199.777653 417.581368 
L 188.441747 414.396924 
L 177.956263 411.357499 
L 175.403676 410.610555 
L 172.375853 409.746404 
L 161.592853 408.151203 
L 160.367243 407.970426 
L 157.761999 407.585035 
L 149.315688 406.335493 
L 148.872046 406.238152 
L 129.887595 402.108109 
L 125.628895 397.034453 
L 125.203684 396.527883 
L 104.821168 391.960798 
L 99.199948 390.701323 
L 79.483553 386.668621 
" clip-path="url(#p066d89d18f)" style="fill: none; stroke: #f29888; stroke-width: 0.2"/>
    <path d="M 100.687531 412.122322 
L 104.821168 391.960798 
L 107.733144 377.752973 
L 128.70806 381.849244 
L 125.628895 397.034453 
L 121.680877 416.62981 
L 127.082251 417.801876 
" clip-path="url(#p066d89d18f)" style="fill: none; stroke: #f29888; stroke-width: 0.2"/>
    <path d="M 76.772993 335.884387 
L 72.294188 337.59647 
" clip-path="url(#p066d89d18f)" style="fill: none; stroke: #f29888; stroke-width: 0.2"/>
    <path d="M 197.392255 585.639757 
L 207.818499 591.674904 
L 216.271391 598.9437 
L 228.728909 605.396024 
L 229.430574 605.837038 
L 236.885602 610.513383 
L 238.753637 611.067632 
L 246.487751 613.364087 
L 259.130887 617.114698 
" clip-path="url(#p066d89d18f)" style="fill: none; stroke: #f29888; stroke-width: 0.2"/>
    <path d="M 154.664404 708.519962 
L 179.371441 700.639308 
L 182.559871 695.744442 
L 190.567805 685.879221 
L 202.209127 663.92384 
L 204.656398 651.83368 
L 205.250115 643.22992 
L 202.819958 625.960817 
L 203.029272 616.101556 
L 202.206494 613.334288 
L 200.722861 608.340095 
L 200.072537 605.068242 
L 199.58282 602.606903 
L 198.492803 597.126004 
L 197.529166 587.074048 
L 197.392255 585.639757 
L 198.492803 557.005585 
L 199.430112 554.476704 
L 201.034858 550.144032 
L 201.795763 548.091923 
L 204.627436 543.161299 
L 207.039163 510.54409 
L 209.765521 491.874468 
L 211.758618 484.742743 
L 213.697742 478.292407 
" clip-path="url(#p066d89d18f)" style="fill: none; stroke: #f29888; stroke-width: 0.2"/>
    <path d="M 201.034858 550.144032 
L 201.795763 551.641893 
L 203.420256 551.431319 
L 204.94075 550.644644 
L 205.255381 548.284619 
L 205.202723 545.926581 
L 204.627436 543.161299 
" clip-path="url(#p066d89d18f)" style="fill: none; stroke: #f29888; stroke-width: 0.2"/>
    <path d="M 153.692867 440.061199 
L 155.155438 445.242129 
L 154.116763 449.914501 
L 154.589366 458.899679 
L 154.635442 459.777735 
L 155.970317 468.897999 
L 160.048663 474.533849 
L 160.616051 475.048366 
L 161.666574 475.997938 
L 165.980564 479.577706 
L 174.063536 482.543629 
L 178.809319 486.622022 
L 184.296262 497.152738 
" clip-path="url(#p066d89d18f)" style="fill: none; stroke: #f29888; stroke-width: 0.2"/>
    <path d="M 164.79708 460.872326 
L 170.107619 462.731739 
L 180.594419 464.251452 
L 186.833051 465.459276 
L 191.231293 467.342528 
" clip-path="url(#p066d89d18f)" style="fill: none; stroke: #f29888; stroke-width: 0.2"/>
    <path d="M 206.898304 462.288738 
L 212.893394 461.44048 
L 216.825615 459.445981 
" clip-path="url(#p066d89d18f)" style="fill: none; stroke: #f29888; stroke-width: 0.2"/>
    <path d="M 195.808572 442.884091 
L 203.095095 445.732807 
L 203.242536 456.708511 
L 206.898304 462.288738 
L 208.878237 465.310284 
L 211.992945 471.242131 
L 213.697742 478.292407 
" clip-path="url(#p066d89d18f)" style="fill: none; stroke: #f29888; stroke-width: 0.2"/>
    <path d="M 203.242536 456.708511 
L 216.825615 459.445981 
L 249.281247 462.384092 
" clip-path="url(#p066d89d18f)" style="fill: none; stroke: #f29888; stroke-width: 0.2"/>
    <path d="M 175.403676 410.610555 
L 174.837605 413.121558 
L 173.057772 421.018105 
L 172.886634 421.778954 
L 164.79708 460.872326 
L 161.666574 475.997938 
" clip-path="url(#p066d89d18f)" style="fill: none; stroke: #f29888; stroke-width: 0.2"/>
    <path d="M 298.790106 446.338706 
L 288.55343 443.640967 
L 275.428475 441.044543 
L 268.621139 438.819604 
L 267.93922 438.59711 
L 253.850627 437.188644 
L 245.768972 437.262146 
L 198.60865 427.919389 
L 189.244778 424.820367 
L 172.886634 421.778954 
" clip-path="url(#p066d89d18f)" style="fill: none; stroke: #f29888; stroke-width: 0.2"/>
    <path d="M 352.627436 441.620643 
L 352.89994 443.931004 
L 352.687992 446.614837 
L 351.064816 448.804018 
L 348.521444 450.146927 
L 345.343546 451.346805 
L 343.932317 453.748547 
L 344.990739 456.573425 
L 346.82718 458.480516 
L 345.626582 460.387607 
L 343.296474 462.082136 
L 340.754419 461.871562 
L 337.152626 461.235865 
L 334.821202 461.72853 
L 331.361585 463.776666 
L 329.525145 465.260621 
L 328.572038 467.209429 
" clip-path="url(#p066d89d18f)" style="fill: none; stroke: #f29888; stroke-width: 0.2"/>
    <path d="M 320.856355 447.284305 
L 315.507639 452.187117 
L 315.115339 452.030179 
L 313.306544 450.639592 
L 312.51931 447.232655 
L 312.152021 445.16068 
L 313.542187 442.512605 
L 315.718271 440.651205 
L 312.729941 437.609793 
L 311.313446 435.722568 
L 310.909297 433.972415 
" clip-path="url(#p066d89d18f)" style="fill: none; stroke: #f29888; stroke-width: 0.2"/>
    <path d="M 355.189869 442.090534 
L 352.627436 441.620643 
L 351.782278 441.465692 
L 310.909297 433.972415 
L 291.508849 430.414499 
L 286.731471 427.565782 
L 263.136829 402.503433 
L 258.039555 395.709423 
" clip-path="url(#p066d89d18f)" style="fill: none; stroke: #f29888; stroke-width: 0.2"/>
    <path d="M 309.899584 420.706216 
L 311.356889 415.568991 
L 315.805156 416.643716 
" clip-path="url(#p066d89d18f)" style="fill: none; stroke: #f29888; stroke-width: 0.2"/>
    <path d="M 258.039555 395.709423 
L 255.729194 401.496251 
L 254.258725 414.810127 
L 256.928475 419.482499 
L 258.040871 424.673362 
L 256.112279 432.311657 
L 253.850627 437.188644 
" clip-path="url(#p066d89d18f)" style="fill: none; stroke: #f29888; stroke-width: 0.2"/>
    <path d="M 339.020661 402.368348 
L 342.106408 405.079992 
L 351.895492 412.092523 
L 353.276443 413.84069 
L 363.30907 417.720427 
L 367.038558 419.323575 
L 378.574564 423.588704 
L 381.29039 422.823881 
L 382.254028 420.565171 
" clip-path="url(#p066d89d18f)" style="fill: none; stroke: #f29888; stroke-width: 0.2"/>
    <path d="M 331.535356 410.292706 
L 334.738266 408.355818 
" clip-path="url(#p066d89d18f)" style="fill: none; stroke: #f29888; stroke-width: 0.2"/>
    <path d="M 334.738266 408.355818 
L 335.796688 407.68039 
L 336.037597 406.685127 
L 335.76246 405.723635 
L 335.316186 404.762144 
L 334.457863 403.937724 
L 332.50031 403.66358 
L 327.108152 403.627822 
L 323.128539 403.008018 
" clip-path="url(#p066d89d18f)" style="fill: none; stroke: #f29888; stroke-width: 0.2"/>
    <path d="M 239.898944 383.295455 
L 241.145617 387.763212 
L 239.536922 414.522077 
" clip-path="url(#p066d89d18f)" style="fill: none; stroke: #f29888; stroke-width: 0.2"/>
    <path d="M 258.039555 395.709423 
L 259.312557 394.092369 
L 261.259579 391.901201 
L 263.490953 390.441085 
L 265.016712 389.630571 
" clip-path="url(#p066d89d18f)" style="fill: none; stroke: #f29888; stroke-width: 0.2"/>
    <path d="M 174.837605 413.121558 
L 170.952776 418.072047 
L 153.692867 440.061199 
L 152.502801 442.002061 
L 151.165293 447.586261 
" clip-path="url(#p066d89d18f)" style="fill: none; stroke: #f29888; stroke-width: 0.2"/>
    <path d="M 205.069762 372.182679 
L 200.484584 411.518409 
L 199.777653 417.581368 
L 198.60865 427.919389 
L 195.808572 442.884091 
L 191.231293 467.342528 
L 190.707348 470.227002 
L 186.198524 472.219515 
" clip-path="url(#p066d89d18f)" style="fill: none; stroke: #f29888; stroke-width: 0.2"/>
    <path d="M 161.592853 408.151203 
L 161.166325 410.942309 
L 165.195963 411.558141 
L 166.987644 413.574492 
L 170.952776 418.072047 
L 173.057772 421.018105 
" clip-path="url(#p066d89d18f)" style="fill: none; stroke: #f29888; stroke-width: 0.2"/>
    <path d="M 157.761999 407.585035 
L 156.736488 412.944754 
L 155.383183 413.018257 
L 155.234424 415.243196 
" clip-path="url(#p066d89d18f)" style="fill: none; stroke: #f29888; stroke-width: 0.2"/>
    <path d="M 189.275056 409.426569 
L 200.484584 411.518409 
" clip-path="url(#p066d89d18f)" style="fill: none; stroke: #f29888; stroke-width: 0.2"/>
    <path d="M 188.441747 414.396924 
L 189.275056 409.426569 
L 190.641526 401.059209 
" clip-path="url(#p066d89d18f)" style="fill: none; stroke: #f29888; stroke-width: 0.2"/>
    <path d="M 151.689238 392.036287 
L 148.872046 406.238152 
L 146.647254 417.174125 
L 145.557238 419.271925 
" clip-path="url(#p066d89d18f)" style="fill: none; stroke: #f29888; stroke-width: 0.2"/>
    <path d="M 178.702687 407.801569 
L 173.889765 406.456673 
L 175.59851 398.798512 
L 180.352193 399.932834 
" clip-path="url(#p066d89d18f)" style="fill: none; stroke: #f29888; stroke-width: 0.2"/>
    <path d="M 160.367243 407.970426 
L 160.50152 404.83366 
L 161.943028 397.519172 
" clip-path="url(#p066d89d18f)" style="fill: none; stroke: #f29888; stroke-width: 0.2"/>
    <path d="M 177.956263 411.357499 
L 178.702687 407.801569 
L 180.352193 399.932834 
L 181.672587 393.643408 
" clip-path="url(#p066d89d18f)" style="fill: none; stroke: #f29888; stroke-width: 0.2"/>
    <path d="M 115.739762 342.261222 
L 151.465443 353.73555 
L 183.531407 364.864219 
L 205.069762 372.182679 
L 221.472665 377.697349 
L 230.723323 380.808291 
L 239.898944 383.295455 
L 243.230866 384.19735 
L 245.059408 384.692001 
L 264.598083 389.549123 
L 265.016712 389.630571 
L 285.124092 393.470578 
L 292.708131 395.131336 
L 306.992874 399.805695 
L 321.186783 405.383935 
L 331.535356 410.292706 
L 360.946051 424.24228 
L 374.434345 429.453008 
L 379.589543 431.44552 
L 391.237448 433.777733 
L 401.691336 435.869573 
L 414.616192 437.800502 
L 430.738693 438.350777 
L 445.971277 437.377366 
L 450.582783 436.862849 
L 454.567662 436.417861 
L 462.991592 435.476235 
" clip-path="url(#p066d89d18f)" style="fill: none; stroke: #f29888; stroke-width: 0.2"/>
    <path d="M 245.059408 384.692001 
L 249.173298 387.68375 
L 254.365357 391.658842 
L 258.039555 395.709423 
" clip-path="url(#p066d89d18f)" style="fill: none; stroke: #f29888; stroke-width: 0.2"/>
    <path d="M 288.129535 391.267491 
L 287.032937 389.886837 
L 286.22069 388.236011 
L 285.998211 386.291176 
L 286.212791 384.713853 
" clip-path="url(#p066d89d18f)" style="fill: none; stroke: #f29888; stroke-width: 0.2"/>
    <path d="M 462.637469 432.432837 
L 450.226026 433.789652 
L 439.836643 434.709426 
L 432.870017 435.1564 
L 416.240685 434.834579 
L 402.187636 432.830147 
L 395.332908 431.644175 
L 383.033363 429.017953 
L 380.859913 428.549126 
L 362.640316 421.840537 
L 341.423173 411.726998 
L 334.738266 408.355818 
L 323.128539 403.008018 
L 321.892397 402.418011 
L 296.258582 393.02559 
L 288.129535 391.267491 
L 280.608686 389.642491 
L 245.624163 382.079685 
L 231.07613 377.842368 
L 192.017211 364.884084 
L 184.484513 362.236009 
L 152.664724 351.315929 
L 123.805619 341.911588 
L 116.586236 339.491967 
" clip-path="url(#p066d89d18f)" style="fill: none; stroke: #f29888; stroke-width: 0.2"/>
    <path d="M 286.212791 384.713853 
L 285.087231 386.068682 
L 283.536459 387.62018 
L 280.608686 389.642491 
" clip-path="url(#p066d89d18f)" style="fill: none; stroke: #f29888; stroke-width: 0.2"/>
    <path d="M 235.910116 365.058901 
L 243.093956 367.679164 
L 250.854398 369.200863 
L 269.309639 376.698113 
L 281.020733 380.772533 
L 283.623344 381.678401 
L 287.026354 383.170302 
" clip-path="url(#p066d89d18f)" style="fill: none; stroke: #f29888; stroke-width: 0.2"/>
    <path d="M 281.020733 380.772533 
L 281.039163 377.208657 
L 279.466011 370.496096 
L 279.8333 365.043008 
L 283.608863 347.058746 
L 286.706458 341.965225 
" clip-path="url(#p066d89d18f)" style="fill: none; stroke: #f29888; stroke-width: 0.2"/>
    <path d="M 250.854398 369.200863 
L 252.426234 364.586101 
L 259.086128 337.425952 
L 257.880265 335.067914 
L 249.490561 332.813177 
L 243.565243 333.80844 
L 242.097407 335.695665 
" clip-path="url(#p066d89d18f)" style="fill: none; stroke: #f29888; stroke-width: 0.2"/>
    <path d="M 286.212791 384.713853 
L 287.026354 383.170302 
L 289.128717 382.085644 
L 292.694966 381.040717 
L 294.834189 381.902881 
L 322.220192 392.946128 
L 335.349097 400.389741 
L 339.020661 402.368348 
L 341.140138 401.237999 
L 346.716598 388.476384 
L 359.547986 359.115135 
L 363.434132 350.221338 
L 366.590967 344.106729 
L 390.444948 297.899512 
L 390.415986 296.691688 
" clip-path="url(#p066d89d18f)" style="fill: none; stroke: #f29888; stroke-width: 0.2"/>
    <path d="M 303.054071 381.849244 
L 306.792774 373.765961 
L 309.879838 367.093131 
L 318.115517 358.942305 
L 322.732289 352.480049 
L 328.708949 348.284449 
L 330.596731 344.929162 
L 330.596731 328.5699 
L 319.591251 314.268707 
L 316.550264 308.396457 
L 316.735882 305.511983 
" clip-path="url(#p066d89d18f)" style="fill: none; stroke: #f29888; stroke-width: 0.2"/>
    <path d="M 142.941462 386.720272 
L 146.647254 390.776812 
L 151.689238 392.036287 
" clip-path="url(#p066d89d18f)" style="fill: none; stroke: #f29888; stroke-width: 0.2"/>
    <path d="M 132.134766 389.529257 
L 138.803876 391.146311 
L 140.545532 390.033842 
L 142.941462 386.720272 
L 143.252143 386.28919 
L 145.291316 381.692307 
L 147.36735 379.429623 
L 156.158569 380.23815 
L 166.959999 379.032313 
L 175.191729 379.505112 
L 181.483019 378.61315 
" clip-path="url(#p066d89d18f)" style="fill: none; stroke: #f29888; stroke-width: 0.2"/>
    <path d="M 221.472665 377.697349 
L 221.354185 379.664036 
L 223.819886 384.725773 
L 224.023935 389.527271 
L 223.486826 390.584117 
L 221.651702 390.695364 
L 213.754349 389.805388 
" clip-path="url(#p066d89d18f)" style="fill: none; stroke: #f29888; stroke-width: 0.2"/>
    <path d="M 147.36735 379.429623 
L 148.998425 367.899671 
L 149.555281 359.520392 
L 150.741398 355.702237 
L 151.465443 353.73555 
" clip-path="url(#p066d89d18f)" style="fill: none; stroke: #f29888; stroke-width: 0.2"/>
    <path d="M 195.654548 351.663576 
L 197.215852 353.312414 
L 231.506608 366.054164 
L 235.018883 367.103063 
L 235.588904 367.142795 
L 243.093956 367.679164 
" clip-path="url(#p066d89d18f)" style="fill: none; stroke: #f29888; stroke-width: 0.2"/>
    <path d="M 195.654548 351.663576 
L 192.017211 364.884084 
" clip-path="url(#p066d89d18f)" style="fill: none; stroke: #f29888; stroke-width: 0.2"/>
    <path d="M 194.69091 350.032616 
L 197.831948 350.046522 
L 199.763173 350.551106 
" clip-path="url(#p066d89d18f)" style="fill: none; stroke: #f29888; stroke-width: 0.2"/>
    <path d="M 179.4162 342.320818 
L 181.788434 345.064247 
L 187.942814 348.030171 
L 194.69091 350.032616 
L 195.654548 351.663576 
" clip-path="url(#p066d89d18f)" style="fill: none; stroke: #f29888; stroke-width: 0.2"/>
    <path d="M 197.215852 353.312414 
L 199.763173 350.551106 
L 201.840523 348.995635 
L 203.471598 347.438178 
L 206.733748 342.320818 
L 209.477219 339.281392 
L 216.670274 328.975157 
L 222.008458 319.113909 
L 222.157216 315.702998 
L 219.709945 314.813022 
L 214.890441 315.331513 
L 213.259365 315.480504 
L 208.217382 314.441537 
" clip-path="url(#p066d89d18f)" style="fill: none; stroke: #f29888; stroke-width: 0.2"/>
    <path d="M 179.4162 342.320818 
L 177.858846 337.425952 
L 179.388555 317.81073 
L 179.93488 310.808132 
L 183.082499 304.010149 
" clip-path="url(#p066d89d18f)" style="fill: none; stroke: #f29888; stroke-width: 0.2"/>
    <path d="M 94.154015 416.480818 
L 99.199948 390.701323 
L 102.329138 376.602759 
L 102.943917 373.831518 
L 103.749582 372.250222 
L 108.43086 358.407922 
L 115.739762 342.261222 
" clip-path="url(#p066d89d18f)" style="fill: none; stroke: #f29888; stroke-width: 0.2"/>
    <path d="M 129.742786 376.783535 
L 128.70806 381.849244 
" clip-path="url(#p066d89d18f)" style="fill: none; stroke: #f29888; stroke-width: 0.2"/>
    <path d="M 107.733144 377.752973 
L 102.329138 376.602759 
" clip-path="url(#p066d89d18f)" style="fill: none; stroke: #f29888; stroke-width: 0.2"/>
    <path d="M 134.273989 377.556304 
L 129.742786 376.783535 
L 103.749582 372.250222 
" clip-path="url(#p066d89d18f)" style="fill: none; stroke: #f29888; stroke-width: 0.2"/>
    <path d="M 78.227665 329.678397 
L 76.772993 335.884387 
L 75.058982 348.598325 
L 78.69237 366.912354 
L 79.964055 375.490289 
L 79.483553 386.668621 
L 77.657644 405.11575 
L 77.422 414.132713 
L 78.15526 416.204687 
" clip-path="url(#p066d89d18f)" style="fill: none; stroke: #f29888; stroke-width: 0.2"/>
    <path d="M 116.586236 339.491967 
L 115.739762 342.261222 
" clip-path="url(#p066d89d18f)" style="fill: none; stroke: #f29888; stroke-width: 0.2"/>
    <path d="M 66.078427 325.161092 
L 75.349916 328.530169 
L 78.227665 329.678397 
L 115.739762 342.261222 
" clip-path="url(#p066d89d18f)" style="fill: none; stroke: #f29888; stroke-width: 0.2"/>
    <path d="M 116.586236 339.491967 
L 76.399123 325.641721 
L 66.276258 322.24172 
" clip-path="url(#p066d89d18f)" style="fill: none; stroke: #f29888; stroke-width: 0.2"/>
    <path d="M 78.743711 300.076774 
L 80.981667 303.219501 
L 82.460035 305.690772 
L 83.89101 308.082582 
L 92.280714 311.340528 
L 93.462881 311.807368 
L 108.994298 317.941843 
L 125.133912 324.394166 
L 143.974871 331.184203 
L 150.542615 333.655475 
L 159.454947 337.457737 
L 168.8333 340.223018 
L 179.4162 342.320818 
" clip-path="url(#p066d89d18f)" style="fill: none; stroke: #f29888; stroke-width: 0.2"/>
    <path d="M 103.330952 296.947954 
L 104.693473 299.590069 
L 107.473804 308.63683 
L 108.141242 312.343737 
L 108.470353 314.058132 
L 108.994298 317.941843 
L 111.144052 327.691844 
L 119.598261 337.998079 
L 120.784378 338.814553 
L 122.674793 339.25954 
L 124.046529 340.519015 
L 123.805619 341.911588 
" clip-path="url(#p066d89d18f)" style="fill: none; stroke: #f29888; stroke-width: 0.2"/>
    <path d="M 92.349169 307.061494 
L 92.562433 309.431451 
L 93.462881 311.807368 
" clip-path="url(#p066d89d18f)" style="fill: none; stroke: #f29888; stroke-width: 0.2"/>
    <path d="M 82.460035 305.690772 
L 80.76972 306.606573 
L 72.93029 304.065772 
L 70.95299 305.124605 
L 70.388235 306.395998 
L 72.153588 308.019012 
L 74.907591 310.138664 
L 73.990029 310.984935 
L 63.222382 311.050227 
" clip-path="url(#p066d89d18f)" style="fill: none; stroke: #f29888; stroke-width: 0.2"/>
    <path d="M 68.206177 291.464123 
L 72.23784 293.840985 
L 76.205605 297.796212 
L 78.743711 300.076774 
L 82.60616 300.674727 
L 86.473875 302.65532 
L 89.933492 303.670448 
L 92.349169 307.061494 
L 98.450891 309.659905 
L 106.360092 313.839612 
L 108.470353 314.058132 
L 109.638039 314.179312 
L 111.485012 314.238909 
L 114.027067 311.555076 
L 115.863507 307.460791 
L 118.263386 303.364519 
L 119.866816 302.065314 
L 122.444415 300.976683 
" clip-path="url(#p066d89d18f)" style="fill: none; stroke: #f29888; stroke-width: 0.2"/>
    <path d="M 141.216919 299.067605 
L 134.771605 295.910973 
L 129.877063 292.796058 
L 125.353758 291.683589 
L 116.678387 296.355961 
" clip-path="url(#p066d89d18f)" style="fill: none; stroke: #f29888; stroke-width: 0.2"/>
    <path d="M 243.565243 333.80844 
L 240.891544 332.707889 
" clip-path="url(#p066d89d18f)" style="fill: none; stroke: #f29888; stroke-width: 0.2"/>
    <path d="M 235.588904 367.142795 
L 235.910116 365.058901 
L 234.600253 363.328613 
L 234.704253 361.806914 
L 242.150065 337.584876 
L 242.097407 335.695665 
L 240.891544 332.707889 
L 239.214393 330.61009 
L 238.794447 325.892027 
L 237.903214 324.056452 
L 236.488035 321.958653 
L 234.389622 312.94169 
L 234.809568 306.074177 
L 237.850556 297.841902 
L 239.996361 295.162043 
" clip-path="url(#p066d89d18f)" style="fill: none; stroke: #f29888; stroke-width: 0.2"/>
    <path d="M 298.837498 352.638973 
L 292.155224 347.269321 
L 286.706458 341.965225 
L 286.229905 341.502358 
L 271.968858 325.878121 
L 245.804516 299.39936 
L 241.557665 296.044072 
L 239.996361 295.162043 
" clip-path="url(#p066d89d18f)" style="fill: none; stroke: #f29888; stroke-width: 0.2"/>
    <path d="M 227.978536 291.103516 
L 230.876031 289.750673 
L 236.424846 288.085942 
L 240.63747 287.402568 
L 244.000986 286.858252 
L 247.148606 286.903943 
L 251.095308 286.959567 
L 284.547489 290.791627 
L 316.185609 302.65532 
L 317.315118 302.315619 
L 328.389053 296.439396 
L 330.874501 293.616505 
L 331.778898 289.434811 
L 332.570082 286.498686 
L 335.958611 286.272219 
L 360.522156 289.929463 
L 364.998068 291.018094 
L 388.051651 298.161737 
L 390.444948 297.899512 
L 395.13939 298.412043 
L 397.660382 299.375521 
L 398.401541 300.710485 
L 398.62402 303.082429 
L 398.697741 304.86238 
L 401.961208 308.644776 
L 405.445837 315.800339 
L 412.806081 326.243647 
L 416.216989 328.911587 
L 420.889052 330.395542 
L 425.63352 330.246551 
L 434.723571 334.738146 
" clip-path="url(#p066d89d18f)" style="fill: none; stroke: #f29888; stroke-width: 0.2"/>
    <path d="M 245.804516 299.39936 
L 243.556028 294.375368 
L 242.47391 292.210025 
L 241.924953 291.111462 
L 241.035036 289.035514 
L 240.63747 287.402568 
L 240.293878 283.328148 
L 240.516357 276.802322 
L 242.741149 267.682059 
L 244.372224 263.456661 
L 245.039661 258.933281 
L 247.338174 253.299417 
L 248.301812 250.259991 
L 246.448257 246.404092 
L 243.778507 242.178695 
L 243.11107 241.185418 
" clip-path="url(#p066d89d18f)" style="fill: none; stroke: #f29888; stroke-width: 0.2"/>
    <path d="M 360.522156 289.929463 
L 355.959358 286.78475 
L 350.506643 283.63805 
L 347.518313 279.130562 
L 340.701762 274.410513 
L 336.507568 268.905775 
L 331.422142 263.454675 
L 328.852441 261.1463 
L 325.182193 259.312712 
L 322.35052 256.481874 
L 319.256874 252.391562 
L 316.741148 250.973164 
L 316.37386 250.766562 
L 312.494297 247.462925 
L 308.928048 243.899049 
L 304.681197 241.119862 
L 301.392717 237.701005 
" clip-path="url(#p066d89d18f)" style="fill: none; stroke: #f29888; stroke-width: 0.2"/>
    <path d="M 319.869021 261.275426 
L 318.756625 257.457272 
L 316.346215 255.307822 
L 315.939433 252.898133 
L 316.741148 250.973164 
L 321.648855 241.517173 
L 322.480848 240.87353 
" clip-path="url(#p066d89d18f)" style="fill: none; stroke: #f29888; stroke-width: 0.2"/>
    <path d="M 322.480848 240.87353 
L 323.630228 239.921168 
" clip-path="url(#p066d89d18f)" style="fill: none; stroke: #f29888; stroke-width: 0.2"/>
    <path d="M 301.392717 237.701005 
L 318.460425 239.329978 
L 321.648855 241.517173 
" clip-path="url(#p066d89d18f)" style="fill: none; stroke: #f29888; stroke-width: 0.2"/>
    <path d="M 355.284562 237.263184 
L 356.127863 237.216286 
L 365.841909 240.738444 
L 366.517246 240.798041 
" clip-path="url(#p066d89d18f)" style="fill: none; stroke: #f29888; stroke-width: 0.2"/>
    <path d="M 678.484404 388.079074 
L 675.632985 389.336562 
L 673.279181 390.846342 
L 671.684967 392.330297 
L 670.313231 394.869111 
L 668.097654 396.305389 
L 666.159847 396.666941 
L 665.317323 397.372167 
L 664.9553 398.568072 
L 664.585379 400.12553 
L 664.251002 408.83855 
L 663.068835 427.216149 
" clip-path="url(#p066d89d18f)" style="fill: none; stroke: #f29888; stroke-width: 0.2"/>
    <path d="M 678.525214 387.417552 
L 678.484404 388.079074 
" clip-path="url(#p066d89d18f)" style="fill: none; stroke: #f29888; stroke-width: 0.2"/>
    <path d="M 678.543644 386.221647 
L 678.525214 387.417552 
" clip-path="url(#p066d89d18f)" style="fill: none; stroke: #f29888; stroke-width: 0.2"/>
    <path d="M 678.187583 384.110723 
L 678.487037 385.115137 
L 678.543644 386.221647 
" clip-path="url(#p066d89d18f)" style="fill: none; stroke: #f29888; stroke-width: 0.2"/>
    <path d="M 618.221614 250.698372 
L 618.210975 250.683127 
" clip-path="url(#p066d89d18f)" style="fill: none; stroke: #f29888; stroke-width: 0.2"/>
    <path d="M 630.392961 196.16616 
L 628.011908 196.16616 
L 625.540941 194.612676 
L 621.732466 196.003263 
L 615.724211 203.226369 
L 613.041296 209.793912 
L 610.504507 216.196572 
L 607.95587 220.314695 
L 610.016106 232.26977 
" clip-path="url(#p066d89d18f)" style="fill: none; stroke: #f29888; stroke-width: 0.2"/>
    <path d="M 366.517246 240.798041 
L 367.275518 240.802014 
" clip-path="url(#p066d89d18f)" style="fill: none; stroke: #f29888; stroke-width: 0.2"/>
    <path d="M 367.275518 240.802014 
L 368.436622 240.776189 
L 370.105874 239.292234 
L 374.776621 236.32631 
L 376.964552 235.511824 
" clip-path="url(#p066d89d18f)" style="fill: none; stroke: #f29888; stroke-width: 0.2"/>
    <path d="M 455.28644 239.566378 
L 454.408372 235.946879 
L 453.247267 226.063779 
L 452.549552 215.950239 
" clip-path="url(#p066d89d18f)" style="fill: none; stroke: #f29888; stroke-width: 0.2"/>
    <path d="M 416.632986 218.634072 
L 414.754419 200.103508 
" clip-path="url(#p066d89d18f)" style="fill: none; stroke: #f29888; stroke-width: 0.2"/>
    <path d="M 379.560582 221.40134 
L 380.285943 218.284439 
L 382.102637 210.479273 
L 383.066274 206.33731 
L 387.027457 196.605189 
L 393.818996 183.706502 
L 396.234672 181.688164 
L 400.385423 180.802162 
L 411.135512 177.820346 
L 420.756091 178.386513 
L 428.791671 182.913867 
L 451.325258 182.272211 
L 486.287401 179.745315 
L 489.908941 177.029698 
" clip-path="url(#p066d89d18f)" style="fill: none; stroke: #f29888; stroke-width: 0.2"/>
    <path d="M 453.888376 215.791315 
L 453.207774 206.299566 
L 451.967683 202.2172 
L 451.325258 182.272211 
" clip-path="url(#p066d89d18f)" style="fill: none; stroke: #f29888; stroke-width: 0.2"/>
    <path d="M 379.560582 221.40134 
L 416.632986 218.634072 
L 452.549552 215.950239 
L 453.888376 215.791315 
L 519.835682 207.918606 
L 547.190091 204.974535 
L 563.968181 204.483857 
L 575.787223 204.13621 
L 582.106158 205.314236 
L 585.126083 205.445348 
L 588.671269 205.598313 
L 595.801134 205.993637 
L 601.517138 196.487982 
L 604.912249 190.77267 
L 612.664793 182.512583 
L 614.401184 180.06515 
L 614.872471 179.401642 
L 616.909011 171.026336 
L 619.229904 161.633914 
L 620.417337 159.202374 
" clip-path="url(#p066d89d18f)" style="fill: none; stroke: #f29888; stroke-width: 0.2"/>
    <path d="M 365.666822 165.712307 
L 356.304266 161.88422 
L 354.463876 163.324471 
L 350.302594 206.933276 
L 351.342586 208.053692 
L 375.370338 209.958796 
L 378.9537 211.093118 
L 382.102637 210.479273 
" clip-path="url(#p066d89d18f)" style="fill: none; stroke: #f29888; stroke-width: 0.2"/>
    <path d="M 391.819316 178.638806 
L 391.691818 177.687895 
" clip-path="url(#p066d89d18f)" style="fill: none; stroke: #f29888; stroke-width: 0.2"/>
    <path d="M 601.517138 196.487982 
L 604.960958 200.133306 
L 611.386525 199.992261 
L 617.530373 196.180066 
L 623.462274 192.932053 
L 625.540941 194.612676 
" clip-path="url(#p066d89d18f)" style="fill: none; stroke: #f29888; stroke-width: 0.2"/>
    <path d="M 616.288966 181.974228 
L 621.238799 189.576765 
L 623.462274 192.932053 
" clip-path="url(#p066d89d18f)" style="fill: none; stroke: #f29888; stroke-width: 0.2"/>
    <path d="M 614.401184 180.06515 
L 616.288966 181.974228 
L 626.740222 183.03306 
L 629.409749 181.329201 
" clip-path="url(#p066d89d18f)" style="fill: none; stroke: #f29888; stroke-width: 0.2"/>
    <path d="M 623.008784 156.658509 
L 622.725065 157.009219 
L 620.417337 159.202374 
" clip-path="url(#p066d89d18f)" style="fill: none; stroke: #f29888; stroke-width: 0.2"/>
    <path d="M 503.361691 159.101059 
L 504.81373 156.963529 
L 506.889763 156.566218 
L 508.557699 156.339751 
L 511.320917 157.497911 
L 513.906415 158.834861 
L 516.224674 159.458639 
L 519.165612 159.369244 
L 522.642343 158.745467 
L 526.208592 157.408517 
L 531.914064 157.319122 
L 538.955728 157.408517 
L 546.800423 158.745467 
L 550.990667 158.745467 
L 552.95217 157.497911 
L 554.912356 154.734617 
L 556.517103 151.526334 
L 562.194281 132.459074 
" clip-path="url(#p066d89d18f)" style="fill: none; stroke: #f29888; stroke-width: 0.2"/>
    <path d="M 372.426767 173.747913 
L 374.280321 172.75265 
" clip-path="url(#p066d89d18f)" style="fill: none; stroke: #f29888; stroke-width: 0.2"/>
    <path d="M 397.113217 152.885522 
L 398.319921 150.330429 
" clip-path="url(#p066d89d18f)" style="fill: none; stroke: #f29888; stroke-width: 0.2"/>
    <path d="M 393.818996 183.706502 
L 392.237946 182.151031 
L 391.819316 178.638806 
L 394.545674 172.609618 
L 395.751537 169.568206 
L 399.263812 157.563468 
L 399.369128 153.842654 
L 398.319921 150.330429 
L 397.010058 146.555979 
L 396.746769 140.002342 
" clip-path="url(#p066d89d18f)" style="fill: none; stroke: #f29888; stroke-width: 0.2"/>
    <path d="M 411.135512 177.820346 
L 424.844969 168.888805 
L 431.62466 165.783823 
L 437.556561 162.676854 
L 446.313552 158.721628 
L 452.245453 158.298492 
L 461.567199 151.238284 
L 463.827535 144.03703 
" clip-path="url(#p066d89d18f)" style="fill: none; stroke: #f29888; stroke-width: 0.2"/>
    <path d="M 396.234672 181.688164 
L 436.969426 138.560104 
L 438.811133 134.078441 
" clip-path="url(#p066d89d18f)" style="fill: none; stroke: #f29888; stroke-width: 0.2"/>
    <path d="M 512.765578 121.141924 
L 503.093136 156.250356 
L 503.361691 159.101059 
L 499.171447 166.232784 
L 493.822732 173.273127 
L 489.908941 177.029698 
" clip-path="url(#p066d89d18f)" style="fill: none; stroke: #f29888; stroke-width: 0.2"/>
    <path d="M 396.746769 140.002342 
L 400.155045 122.60014 
L 404.192582 117.882077 
L 408.020803 115.208177 
L 409.383324 113.636814 
L 414.417409 103.465664 
L 416.881794 100.531525 
L 420.026781 98.695951 
L 424.32629 96.651788 
L 426.108756 95.080425 
L 427.787223 92.301237 
L 429.255059 89.313462 
L 429.447398 89.037438 
" clip-path="url(#p066d89d18f)" style="fill: none; stroke: #f29888; stroke-width: 0.2"/>
    <path d="M 179.388555 317.81073 
L 189.889836 318.660975 
" clip-path="url(#p066d89d18f)" style="fill: none; stroke: #f29888; stroke-width: 0.2"/>
    <path d="M 190.075455 325.631789 
L 189.889836 318.660975 
L 191.373469 315.4368 
L 193.486363 309.171213 
" clip-path="url(#p066d89d18f)" style="fill: none; stroke: #f29888; stroke-width: 0.2"/>
    <path d="M 222.157216 315.702998 
L 223.194575 313.849544 
L 223.492092 311.179617 
L 224.52945 310.363144 
L 227.347959 310.363144 
L 229.127792 309.771152 
L 234.809568 306.074177 
" clip-path="url(#p066d89d18f)" style="fill: none; stroke: #f29888; stroke-width: 0.2"/>
    <path d="M 183.082499 304.010149 
L 192.818926 308.68848 
L 193.486363 309.171213 
" clip-path="url(#p066d89d18f)" style="fill: none; stroke: #f29888; stroke-width: 0.2"/>
    <path d="M 191.736808 289.226223 
L 202.290747 295.875215 
L 216.75321 295.084567 
L 227.978536 291.103516 
L 233.693223 291.30813 
L 237.179169 293.976071 
L 239.996361 295.162043 
" clip-path="url(#p066d89d18f)" style="fill: none; stroke: #f29888; stroke-width: 0.2"/>
    <path d="M 169.791672 300.335026 
L 175.99871 288.199175 
L 177.407306 284.714762 
L 177.407306 282.41632 
L 165.692263 270.183129 
L 163.68995 267.439699 
L 165.617225 266.031233 
L 170.43673 264.918764 
L 180.224498 265.065769 
" clip-path="url(#p066d89d18f)" style="fill: none; stroke: #f29888; stroke-width: 0.2"/>
    <path d="M 68.211909 291.331223 
L 70.976686 291.973626 
L 75.40784 292.390802 
L 88.129963 293.167544 
L 103.330952 296.947954 
L 117.642024 298.727905 
L 122.444415 300.976683 
L 139.040836 298.982184 
L 141.216919 299.067605 
L 148.503442 299.355656 
L 153.679703 300.434354 
L 169.791672 300.335026 
L 179.917766 301.781236 
L 183.082499 304.010149 
L 191.736808 289.226223 
L 197.87934 268.915708 
L 203.807291 256.624906 
L 206.99967 250.009686 
L 211.300495 247.043762 
L 219.679667 244.226831 
L 238.512728 238.813474 
L 241.331236 239.999446 
L 243.11107 241.185418 
L 261.64793 234.884073 
L 276.477682 233.994098 
L 290.492554 234.069587 
L 296.499492 235.402563 
L 301.392717 237.701005 
" clip-path="url(#p066d89d18f)" style="fill: none; stroke: #f29888; stroke-width: 0.2"/>
    <path d="M 242.47391 292.210025 
L 241.760397 291.641871 
L 240.967897 291.010148 
L 240.071398 290.296975 
L 236.424846 288.085942 
L 234.954377 286.292085 
L 231.988427 278.210788 
L 230.579831 274.799877 
L 227.985118 259.676251 
L 227.095201 257.969802 
L 227.83636 255.524356 
L 226.797685 251.815462 
L 224.796688 248.331049 
L 222.200659 246.108096 
L 220.198346 245.21812 
L 219.679667 244.226831 
" clip-path="url(#p066d89d18f)" style="fill: none; stroke: #f29888; stroke-width: 0.2"/>
    <path d="M 163.68995 267.439699 
L 156.868133 265.065769 
" clip-path="url(#p066d89d18f)" style="fill: none; stroke: #f29888; stroke-width: 0.2"/>
    <path d="M 203.807291 256.624906 
L 195.909938 254.99792 
L 185.305975 254.479429 
" clip-path="url(#p066d89d18f)" style="fill: none; stroke: #f29888; stroke-width: 0.2"/>
    <path d="M 96.51915 163.590659 
L 96.865891 164.814385 
L 99.444807 167.245926 
L 100.320243 168.082264 
" clip-path="url(#p066d89d18f)" style="fill: none; stroke: #f29888; stroke-width: 0.2"/>
    <path d="M 114.948578 151.818357 
L 113.068695 156.204666 
L 112.897623 156.481095 
" clip-path="url(#p066d89d18f)" style="fill: none; stroke: #f29888; stroke-width: 0.2"/>
    <path d="M 95.111874 163.259136 
L 93.751183 164.619703 
L 91.902894 165.251427 
L 90.486399 165.463988 
" clip-path="url(#p066d89d18f)" style="fill: none; stroke: #f29888; stroke-width: 0.2"/>
    <path d="M 76.086382 157.785338 
L 74.094028 158.683883 
L 71.417695 159.851976 
L 70.135478 160.678382 
" clip-path="url(#p066d89d18f)" style="fill: none; stroke: #f29888; stroke-width: 0.2"/>
    <path d="M 66.100574 159.484464 
L 65.871513 156.544366 
L 66.454698 153.479115 
L 68.012052 150.755551 
L 70.347426 148.858394 
L 73.413426 147.982324 
L 76.279976 147.042192 
" clip-path="url(#p066d89d18f)" style="fill: none; stroke: #f29888; stroke-width: 0.2"/>
    <path d="M 176.048734 130.586082 
L 173.082784 132.618325 
L 167.373363 134.026791 
L 161.070225 138.770679 
L 147.945269 141.736602 
L 135.737876 146.645374 
L 134.672872 147.074469 
L 125.157608 149.362978 
L 117.062789 151.3098 
L 114.948578 151.818357 
L 114.322927 161.25263 
" clip-path="url(#p066d89d18f)" style="fill: none; stroke: #f29888; stroke-width: 0.2"/>
    <path d="M 112.471657 166.78983 
L 111.184862 168.048493 
L 100.320243 168.082264 
L 99.764703 168.084251 
L 90.486399 165.463988 
L 79.559907 162.376885 
L 70.135478 160.678382 
L 69.066525 160.485687 
L 66.100574 159.484464 
L 62.060405 160.263193 
L 60.280572 162.450387 
L 58.018919 163.153627 
" clip-path="url(#p066d89d18f)" style="fill: none; stroke: #f29888; stroke-width: 0.2"/>
    <path d="M 124.80214 147.464432 
L 125.157608 149.362978 
" clip-path="url(#p066d89d18f)" style="fill: none; stroke: #f29888; stroke-width: 0.2"/>
    <path d="M 116.417247 150.31408 
L 117.062789 151.3098 
" clip-path="url(#p066d89d18f)" style="fill: none; stroke: #f29888; stroke-width: 0.2"/>
    <path d="M 135.737876 146.645374 
L 131.743873 145.10525 
" clip-path="url(#p066d89d18f)" style="fill: none; stroke: #f29888; stroke-width: 0.2"/>
    <path d="M 65.398181 130.618705 
L 47.956391 131.652802 
" clip-path="url(#p066d89d18f)" style="fill: none; stroke: #f29888; stroke-width: 0.2"/>
    <path d="M 380.285943 218.284439 
L 375.370338 209.958796 
L 373.898552 205.433429 
L 374.238195 179.065914 
L 372.426767 173.747913 
L 367.844222 169.737063 
L 365.666822 165.712307 
L 363.032616 160.847239 
L 354.204537 147.382385 
L 339.039092 137.310563 
L 326.3275 132.211082 
L 324.949289 131.980701 
" clip-path="url(#p066d89d18f)" style="fill: none; stroke: #f29888; stroke-width: 0.2"/>
    <path d="M 312.105768 127.236446 
L 300.669989 118.527706 
L 280.864076 112.303837 
L 251.77591 107.099069 
L 242.268545 104.496684 
L 221.217275 106.193201 
L 217.055992 108.179753 
L 206.390156 115.585622 
L 197.901719 121.469791 
L 193.034823 125.995158 
L 186.2446 127.127493 
L 176.284378 127.240727 
" clip-path="url(#p066d89d18f)" style="fill: none; stroke: #f29888; stroke-width: 0.2"/>
    <path d="M 219.679667 244.226831 
L 215.112075 232.010493 
" clip-path="url(#p066d89d18f)" style="fill: none; stroke: #f29888; stroke-width: 0.2"/>
    <path d="M 187.700439 158.446802 
L 177.696923 133.953288 
" clip-path="url(#p066d89d18f)" style="fill: none; stroke: #f29888; stroke-width: 0.2"/>
    <path d="M 177.696923 133.953288 
L 176.048734 130.586082 
L 176.284378 127.240727 
L 175.899976 125.278013 
L 182.944273 108.894912 
" clip-path="url(#p066d89d18f)" style="fill: none; stroke: #f29888; stroke-width: 0.2"/>
    <path d="M 175.899976 125.278013 
L 173.608046 111.699925 
" clip-path="url(#p066d89d18f)" style="fill: none; stroke: #f29888; stroke-width: 0.2"/>
    <path d="M 173.608046 111.699925 
L 179.799286 109.919973 
L 182.944273 108.894912 
L 185.614023 107.339441 
L 191.694682 98.517161 
L 193.399478 97.035192 
L 196.032368 95.588982 
L 199.369556 95.477735 
L 203.632204 95.84922 
L 205.0408 96.403469 
" clip-path="url(#p066d89d18f)" style="fill: none; stroke: #f29888; stroke-width: 0.2"/>
    <path d="M 182.944273 108.894912 
L 183.797329 106.042223 
L 183.464268 103.149802 
L 180.572039 99.665388 
L 176.122455 86.989195 
L 175.085097 84.766243 
L 169.523117 71.311321 
L 169.078159 67.938155 
L 162.627579 51.592799 
L 160.514685 49.961839 
L 160.180308 49.147352 
" clip-path="url(#p066d89d18f)" style="fill: none; stroke: #f29888; stroke-width: 0.2"/>
    <path d="M 159.566189 47.489588 
L 159.67216 48.579198 
L 160.180308 49.147352 
" clip-path="url(#p066d89d18f)" style="fill: none; stroke: #f29888; stroke-width: 0.2"/>
    <path d="M 174.180638 126.621295 
L 174.538772 126.583178 
L 175.899976 125.278013 
" clip-path="url(#p066d89d18f)" style="fill: none; stroke: #f29888; stroke-width: 0.2"/>
    <path d="M 396.375842 139.068303 
L 396.746769 140.002342 
" clip-path="url(#p066d89d18f)" style="fill: none; stroke: #f29888; stroke-width: 0.2"/>
   </g>
  </g>
 </g>
 <defs>
  <clipPath id="p066d89d18f">
   <rect x="7.2" y="7.2" width="837" height="737.273885"/>
  </clipPath>
 </defs>
</svg>
