<?xml version="1.0" encoding="utf-8" standalone="no"?>
<!DOCTYPE svg PUBLIC "-//W3C//DTD SVG 1.1//EN"
  "http://www.w3.org/Graphics/SVG/1.1/DTD/svg11.dtd">
<svg xmlns:xlink="http://www.w3.org/1999/xlink" width="736.350398pt" height="846pt" viewBox="0 0 736.350398 846" xmlns="http://www.w3.org/2000/svg" version="1.1">
 <metadata>
  <rdf:RDF xmlns:dc="http://purl.org/dc/elements/1.1/" xmlns:cc="http://creativecommons.org/ns#" xmlns:rdf="http://www.w3.org/1999/02/22-rdf-syntax-ns#">
   <cc:Work>
    <dc:type rdf:resource="http://purl.org/dc/dcmitype/StillImage"/>
    <dc:date>2025-03-16T14:29:57.691446</dc:date>
    <dc:format>image/svg+xml</dc:format>
    <dc:creator>
     <cc:Agent>
      <dc:title>Matplotlib v3.10.1, https://matplotlib.org/</dc:title>
     </cc:Agent>
    </dc:creator>
   </cc:Work>
  </rdf:RDF>
 </metadata>
 <defs>
  <style type="text/css">*{stroke-linejoin: round; stroke-linecap: butt}</style>
 </defs>
 <g id="figure_1">
  <g id="patch_1">
   <path d="M 0 846 
L 736.350398 846 
L 736.350398 0 
L 0 0 
z
" style="fill: #ffffff"/>
  </g>
  <g id="axes_1">
   <g id="PatchCollection_1">
    <path d="M 40.015927 406.107451 
L 49.829619 405.884192 
L 93.767407 399.860379 
L 103.879072 401.199932 
L 111.090008 399.564092 
L 123.581295 398.671057 
L 145.586916 395.10309 
L 145.586916 396.736843 
L 143.951532 401.496219 
L 144.472637 417.111812 
L 139.416805 425.512182 
L 137.112022 434.584416 
L 134.286133 441.275919 
L 111.313141 456.891511 
L 81.352345 497.86262 
L 72.504639 530.210099 
L 63.062373 528.501231 
L 54.439186 532.738974 
L 54.141213 538.986046 
L 59.866444 543.298904 
L 64.252878 548.876199 
L 82.095198 567.020667 
L 91.239491 575.27498 
L 98.005547 589.033561 
L 119.268316 578.325488 
L 120.38398 578.398516 
L 120.309141 588.363785 
L 120.97854 590.89266 
L 129.37998 607.624546 
L 133.543281 613.57533 
L 137.631742 618.186562 
L 144.992357 624.13526 
L 171.60893 644.4372 
L 196.44044 661.544662 
L 222.387614 677.533743 
L 229.375417 681.103797 
L 241.643572 689.954858 
L 248.854508 694.41586 
L 260.080451 701.03642 
L 267.367613 703.861582 
L 273.166298 705.12602 
L 268.853318 718.886687 
L 273.389431 719.034831 
L 277.181305 723.12443 
L 277.775864 729.596847 
L 282.235752 734.950884 
L 285.06164 735.919034 
L 288.109276 742.166105 
L 292.868522 743.653802 
L 298.8155 741.942847 
L 309.150297 735.322286 
L 335.988618 752.876265 
L 368.850141 770.503273 
L 390.11291 782.776244 
L 415.613818 796.908314 
L 426.468335 801 
L 476.354487 748.041775 
L 473.381691 744.546837 
L 467.581621 740.901668 
L 456.57881 731.528974 
L 451.299845 726.174937 
L 449.7393 722.233482 
L 450.705286 715.539892 
L 455.314852 707.358607 
L 477.916418 689.061823 
L 476.524956 675.465992 
L 469.053467 663.933739 
L 466.245595 648.883596 
L 451.744725 638.10458 
L 448.044321 637.309612 
L 444.152661 632.642044 
L 437.936815 608.398649 
L 414.83216 573.887438 
L 415.673413 558.770526 
L 432.702199 534.719091 
L 439.637337 528.588865 
L 439.922836 514.527738 
L 458.305665 471.64954 
L 462.245833 462.456288 
L 463.209046 460.211181 
L 467.515097 455.631247 
L 471.503771 445.576258 
L 474.461322 438.363123 
L 495.617375 442.849163 
L 504.970942 444.941953 
L 511.513865 447.036829 
L 516.396457 448.91262 
L 521.669879 451.059659 
L 527.688925 453.584361 
L 539.562092 458.80486 
L 554.735133 467.712258 
L 562.58082 472.002164 
L 566.854994 474.257703 
L 589.197393 484.938652 
L 598.901598 488.291706 
L 603.385045 488.815425 
L 604.888767 487.058566 
L 605.717547 484.951171 
L 606.447926 481.120301 
L 606.148568 477.562767 
L 604.782052 473.650523 
L 602.499443 469.001733 
L 597.69862 460.812102 
L 595.07369 451.925569 
L 594.371029 446.613263 
L 595.435414 440.539374 
L 598.153201 440.526854 
L 599.148291 440.610316 
L 601.741346 440.84818 
L 604.592181 441.568033 
L 610.720714 442.592519 
L 612.634668 442.100098 
L 608.255165 424.886223 
L 606.580974 418.077875 
L 614.358752 417.80454 
L 624.936085 415.532308 
L 627.358671 414.230313 
L 630.28989 412.575695 
L 625.074677 405.30205 
L 638.003915 402.476888 
L 631.262805 359.387951 
L 640.833961 358.169417 
L 657.438656 352.823727 
L 658.813487 352.489882 
L 667.131773 350.493072 
L 694.70463 344.260607 
L 696.334471 342.207461 
L 695.96443 338.441274 
L 689.981418 306.064583 
L 677.038321 300.894161 
L 662.919965 296.961051 
L 653.625993 288.794372 
L 651.294877 278.388845 
L 648.911097 271.015047 
L 644.587029 258.312251 
L 639.969148 241.006569 
L 637.150188 226.989258 
L 631.903099 213.264062 
L 596.089568 222.776554 
L 568.543043 228.840011 
L 548.005111 233.924885 
L 539.142159 216.095484 
L 533.290809 193.519226 
L 527.612699 171.301851 
L 522.217317 151.732284 
L 519.71019 138.860478 
L 513.520676 143.959958 
L 509.572193 147.421512 
L 504.672969 143.517614 
L 501.493671 145.405924 
L 497.452331 146.945783 
L 483.514145 147.15235 
L 475.173685 143.440412 
L 468.133216 141.168181 
L 462.929091 140.373213 
L 458.718669 135.384319 
L 445.836553 129.642188 
L 450.346333 124.104536 
L 461.10245 107.428986 
L 476.366961 83.202283 
L 484.998464 70.64763 
L 482.279291 62.428787 
L 485.344944 56.891136 
L 485.318611 52.778585 
L 483.289626 48.121449 
L 478.32665 45 
L 471.603557 45.721939 
L 461.764919 47.777172 
L 447.143474 57.239587 
L 429.729403 66.144898 
L 412.689529 52.732681 
L 359.704462 67.409335 
L 362.278114 83.206456 
L 361.714045 88.902684 
L 363.772134 98.936808 
L 350.734795 101.764056 
L 348.332998 103.604376 
L 339.630813 105.53233 
L 331.629903 106.815546 
L 326.087613 107.827513 
L 329.279384 125.773761 
L 336.556844 158.811881 
L 339.490835 174.202128 
L 344.370655 196.525916 
L 349.104954 196.609377 
L 348.751545 206.576732 
L 349.358578 215.94108 
L 347.052408 216.139301 
L 340.309913 216.414723 
L 333.51198 215.417361 
L 326.156909 212.748689 
L 320.140635 210.422208 
L 315.252498 208.139544 
L 293.939837 198.564456 
L 286.465576 194.26829 
L 283.527428 192.636624 
L 275.872998 187.040549 
L 269.763867 182.362548 
L 267.468785 191.71855 
L 266.759195 200.663506 
L 265.211123 210.192689 
L 253.084333 247.239035 
L 250.173903 246.030934 
L 243.625436 235.969685 
L 238.803824 233.273887 
L 217.33594 214.674556 
L 182.645003 215.338073 
L 174.980871 222.605458 
L 172.737068 224.76919 
L 102.926945 292.074398 
L 101.457871 293.489065 
L 49.911388 343.18813 
L 40.015927 406.107451 
" clip-path="url(#p97cad4deca)" style="fill: #fbd6c9"/>
   </g>
   <g id="PatchCollection_2">
    <path d="M 631.566321 348.429494 
L 633.764388 356.882028 
L 630.32731 357.501728 
L 627.96016 349.274539 
L 631.566321 348.429494 
" clip-path="url(#p97cad4deca)" style="fill: #e6482f"/>
    <path d="M 622.279278 350.017344 
L 623.31456 353.965059 
L 621.566916 354.419923 
L 621.307749 353.18887 
L 619.302324 353.706329 
L 619.65712 354.96868 
L 618.071628 355.325477 
L 617.101485 351.377761 
L 622.279278 350.017344 
" clip-path="url(#p97cad4deca)" style="fill: #e6482f"/>
    <path d="M 629.086912 340.42765 
L 630.382746 345.89436 
L 627.678818 346.683068 
L 626.270725 341.103686 
L 629.086912 340.42765 
" clip-path="url(#p97cad4deca)" style="fill: #e6482f"/>
    <path d="M 666.645315 340.995187 
L 667.176122 342.624767 
L 670.275037 341.723386 
L 669.767791 339.920624 
L 672.502209 339.35726 
L 674.16254 345.27466 
L 665.823465 346.96475 
L 664.358549 341.554377 
L 666.645315 340.995187 
" clip-path="url(#p97cad4deca)" style="fill: #e6482f"/>
    <path d="M 614.681671 344.331549 
L 610.11784 345.345602 
L 609.046524 341.230965 
L 613.667178 340.273247 
L 614.681671 344.331549 
" clip-path="url(#p97cad4deca)" style="fill: #e6482f"/>
    <path d="M 620.315431 339.371866 
L 621.048582 342.245018 
L 616.991998 343.261159 
L 616.315669 340.329583 
L 620.315431 339.371866 
" clip-path="url(#p97cad4deca)" style="fill: #e6482f"/>
    <path d="M 655.794956 336.427772 
L 657.146227 340.934677 
L 653.540066 342.005067 
L 652.131972 337.441826 
L 655.794956 336.427772 
" clip-path="url(#p97cad4deca)" style="fill: #e6482f"/>
    <path d="M 654.361916 330.063854 
L 655.253062 333.260419 
L 648.075387 335.357382 
L 647.117717 332.031453 
L 654.361916 330.063854 
" clip-path="url(#p97cad4deca)" style="fill: #e6482f"/>
    <path d="M 643.680638 327.299202 
L 645.652801 334.681346 
L 642.327982 335.413718 
L 640.468078 327.918901 
L 643.680638 327.299202 
" clip-path="url(#p97cad4deca)" style="fill: #e6482f"/>
    <path d="M 646.948635 324.42605 
L 649.878468 324.42605 
L 649.766209 323.524669 
L 652.413314 323.073978 
L 653.370984 326.623166 
L 646.103225 328.256919 
L 645.257814 324.933076 
L 646.948635 324.42605 
" clip-path="url(#p97cad4deca)" style="fill: #e6482f"/>
    <path d="M 624.184917 319.917058 
L 625.706656 326.003467 
L 622.495482 326.792175 
L 620.91692 320.707853 
L 624.184917 319.917058 
" clip-path="url(#p97cad4deca)" style="fill: #e6482f"/>
    <path d="M 623.960398 312.198982 
L 624.804423 316.142524 
L 621.255084 317.043905 
L 620.354237 312.987691 
L 623.960398 312.198982 
" clip-path="url(#p97cad4deca)" style="fill: #e6482f"/>
    <path d="M 632.693073 310.114538 
L 633.876648 313.945408 
L 629.200557 315.072134 
L 628.186065 311.128592 
L 632.693073 310.114538 
" clip-path="url(#p97cad4deca)" style="fill: #e6482f"/>
    <path d="M 639.059985 308.649794 
L 639.962218 312.480664 
L 635.398387 313.494717 
L 634.552976 309.607512 
L 639.059985 308.649794 
" clip-path="url(#p97cad4deca)" style="fill: #e6482f"/>
    <path d="M 648.075387 306.6196 
L 650.328892 313.832735 
L 646.83499 314.790453 
L 645.595978 310.565229 
L 642.384804 311.522946 
L 641.482571 308.199104 
L 648.075387 306.6196 
" clip-path="url(#p97cad4deca)" style="fill: #e6482f"/>
    <path d="M 642.279474 292.744174 
L 641.76807 291.016527 
L 642.724354 290.732759 
L 643.237144 292.462492 
L 642.279474 292.744174 
" clip-path="url(#p97cad4deca)" style="fill: #e6482f"/>
    <path d="M 653.574714 296.199468 
L 651.372489 296.852552 
L 647.0013 282.086177 
L 649.203525 281.43518 
L 653.574714 296.199468 
" clip-path="url(#p97cad4deca)" style="fill: #e6482f"/>
    <path d="M 588.500276 242.740475 
L 577.289578 245.813934 
L 576.660371 243.520838 
L 587.872455 240.447379 
L 588.500276 242.740475 
" clip-path="url(#p97cad4deca)" style="fill: #e6482f"/>
    <path d="M 349.730004 428.61694 
L 346.420429 431.926177 
L 344.883445 430.39049 
L 348.19302 427.079167 
L 349.730004 428.61694 
" clip-path="url(#p97cad4deca)" style="fill: #e6482f"/>
    <path d="M 408.592753 394.082777 
L 401.830854 401.172807 
L 406.254708 405.391771 
L 413.119164 398.195328 
L 415.252093 400.229695 
L 405.911 410.023868 
L 401.42478 405.744395 
L 397.501244 402.003246 
L 406.741165 392.315486 
L 408.592753 394.082777 
" clip-path="url(#p97cad4deca)" style="fill: #e6482f"/>
    <path d="M 313.301125 385.066879 
L 315.791621 387.414226 
L 311.911048 391.53095 
L 309.420552 389.183604 
L 313.301125 385.066879 
" clip-path="url(#p97cad4deca)" style="fill: #e6482f"/>
    <path d="M 290.939323 377.519899 
L 292.577479 379.733708 
L 289.195837 382.237544 
L 287.556294 380.023736 
L 290.939323 377.519899 
" clip-path="url(#p97cad4deca)" style="fill: #e6482f"/>
    <path d="M 317.226047 362.204767 
L 309.93057 369.328181 
L 308.084526 367.435698 
L 315.380003 360.314371 
L 317.226047 362.204767 
" clip-path="url(#p97cad4deca)" style="fill: #e6482f"/>
    <path d="M 309.495391 360.687859 
L 301.852048 367.548371 
L 300.193103 365.699705 
L 307.83506 358.839194 
L 309.495391 360.687859 
" clip-path="url(#p97cad4deca)" style="fill: #e6482f"/>
    <path d="M 338.771543 357.612314 
L 325.918531 370.118976 
L 323.816092 367.959418 
L 336.669104 355.450668 
L 338.771543 357.612314 
" clip-path="url(#p97cad4deca)" style="fill: #e6482f"/>
    <path d="M 330.953574 342.695709 
L 332.580643 340.855389 
L 333.983193 342.096875 
L 332.541837 343.724368 
L 333.967948 344.986719 
L 330.298034 349.132655 
L 327.904552 347.014827 
L 329.241964 345.504179 
L 326.115331 342.737439 
L 328.260734 340.312891 
L 330.953574 342.695709 
" clip-path="url(#p97cad4deca)" style="fill: #e6482f"/>
    <path d="M 340.404155 337.907122 
L 338.271226 335.997947 
L 342.700623 331.048697 
L 344.833552 332.955785 
L 340.404155 337.907122 
" clip-path="url(#p97cad4deca)" style="fill: #e6482f"/>
    <path d="M 365.18993 332.876497 
L 361.368951 337.393835 
L 359.51182 335.822678 
L 363.332798 331.30534 
L 365.18993 332.876497 
" clip-path="url(#p97cad4deca)" style="fill: #e6482f"/>
    <path d="M 474.47241 340.435997 
L 473.895867 343.204822 
L 464.07386 341.199667 
L 464.543686 338.55186 
L 474.47241 340.435997 
" clip-path="url(#p97cad4deca)" style="fill: #e6482f"/>
    <path d="M 489.958668 336.00212 
L 488.122325 345.969475 
L 485.744088 345.547996 
L 487.175743 335.434583 
L 489.958668 336.00212 
" clip-path="url(#p97cad4deca)" style="fill: #e6482f"/>
    <path d="M 462.280481 338.270178 
L 461.703938 341.051523 
L 453.95388 339.321789 
L 454.594174 336.502887 
L 462.280481 338.270178 
" clip-path="url(#p97cad4deca)" style="fill: #e6482f"/>
    <path d="M 478.933683 329.583952 
L 478.336352 334.923383 
L 475.389888 334.410097 
L 476.073146 329.114483 
L 478.933683 329.583952 
" clip-path="url(#p97cad4deca)" style="fill: #e6482f"/>
    <path d="M 480.104784 321.642618 
L 479.233041 327.236606 
L 476.670477 326.808867 
L 477.482626 321.344244 
L 480.104784 321.642618 
" clip-path="url(#p97cad4deca)" style="fill: #e6482f"/>
    <path d="M 466.362012 320.305152 
L 460.530065 326.424946 
L 458.266859 324.16106 
L 463.817465 318.354246 
L 466.362012 320.305152 
" clip-path="url(#p97cad4deca)" style="fill: #e6482f"/>
    <path d="M 472.016561 313.359093 
L 467.10625 318.823716 
L 464.970549 316.730926 
L 469.837897 311.479129 
L 472.016561 313.359093 
" clip-path="url(#p97cad4deca)" style="fill: #e6482f"/>
    <path d="M 494.695739 309.16934 
L 492.930078 319.455934 
L 489.907389 318.781985 
L 491.781151 308.724909 
L 494.695739 309.16934 
" clip-path="url(#p97cad4deca)" style="fill: #e6482f"/>
    <path d="M 485.5362 307.295636 
L 482.539844 310.248076 
L 480.903073 308.587198 
L 483.89943 305.634758 
L 485.5362 307.295636 
" clip-path="url(#p97cad4deca)" style="fill: #e6482f"/>
    <path d="M 479.076432 305.778728 
L 474.170279 311.293428 
L 472.349182 309.672194 
L 477.255335 304.157494 
L 479.076432 305.778728 
" clip-path="url(#p97cad4deca)" style="fill: #e6482f"/>
    <path d="M 459.826018 327.405615 
L 454.32392 332.93492 
L 452.074574 330.994447 
L 457.583601 325.271094 
L 459.826018 327.405615 
" clip-path="url(#p97cad4deca)" style="fill: #e6482f"/>
    <path d="M 398.554542 322.704662 
L 393.275577 328.578245 
L 391.34222 326.942405 
L 396.621185 321.143937 
L 398.554542 322.704662 
" clip-path="url(#p97cad4deca)" style="fill: #e6482f"/>
    <path d="M 386.6592 311.404014 
L 384.948976 313.187997 
L 384.279577 312.593336 
L 380.785675 316.459677 
L 381.528528 317.129453 
L 380.042823 318.393891 
L 377.291774 315.791987 
L 383.759857 308.802111 
L 386.6592 311.404014 
" clip-path="url(#p97cad4deca)" style="fill: #e6482f"/>
    <path d="M 453.654521 308.660227 
L 458.474747 312.935527 
L 460.27367 310.967929 
L 462.43709 312.647586 
L 459.03743 316.755964 
L 451.56317 310.967929 
L 453.654521 308.660227 
" clip-path="url(#p97cad4deca)" style="fill: #e6482f"/>
    <path d="M 452.667747 303.696371 
L 450.624902 306.064583 
L 446.918955 302.870105 
L 448.9618 300.499807 
L 452.667747 303.696371 
" clip-path="url(#p97cad4deca)" style="fill: #e6482f"/>
    <path d="M 441.143831 291.794802 
L 438.751735 294.868262 
L 443.534541 298.838929 
L 441.784126 301.27391 
L 434.567646 295.166635 
L 439.051093 290.29876 
L 441.143831 291.794802 
" clip-path="url(#p97cad4deca)" style="fill: #e6482f"/>
    <path d="M 458.736686 288.420883 
L 455.234469 292.648193 
L 452.886722 290.770316 
L 456.47348 286.584736 
L 458.736686 288.420883 
" clip-path="url(#p97cad4deca)" style="fill: #e6482f"/>
    <path d="M 436.428935 287.563319 
L 432.286423 292.385291 
L 429.115441 289.795906 
L 430.506903 288.145461 
L 431.865104 289.311831 
L 433.64601 287.304589 
L 433.386843 287.077157 
L 434.32511 285.881576 
L 436.428935 287.563319 
" clip-path="url(#p97cad4deca)" style="fill: #e6482f"/>
    <path d="M 449.470432 289.743743 
L 447.293153 292.39155 
L 441.613657 287.822049 
L 443.961404 285.132511 
L 449.470432 289.743743 
" clip-path="url(#p97cad4deca)" style="fill: #e6482f"/>
    <path d="M 425.135081 283.486239 
L 429.212455 286.947793 
L 427.529949 288.856968 
L 423.581466 285.330732 
L 425.135081 283.486239 
" clip-path="url(#p97cad4deca)" style="fill: #e6482f"/>
    <path d="M 488.2429 297.985538 
L 495.938908 304.843963 
L 493.916852 306.819907 
L 486.363594 300.163875 
L 488.2429 297.985538 
" clip-path="url(#p97cad4deca)" style="fill: #e6482f"/>
    <path d="M 487.404419 297.13632 
L 481.020877 303.996832 
L 478.905964 302.029234 
L 485.289507 295.168722 
L 487.404419 297.13632 
" clip-path="url(#p97cad4deca)" style="fill: #e6482f"/>
    <path d="M 481.282815 291.965898 
L 476.840945 297.08833 
L 474.32273 294.868262 
L 476.926872 292.049359 
L 472.016561 287.438127 
L 474.109299 285.176328 
L 481.282815 291.965898 
" clip-path="url(#p97cad4deca)" style="fill: #e6482f"/>
    <path d="M 472.742783 284.022477 
L 470.223182 287.012475 
L 467.36126 284.577494 
L 469.966787 281.545766 
L 472.742783 284.022477 
" clip-path="url(#p97cad4deca)" style="fill: #e6482f"/>
    <path d="M 465.781312 277.531281 
L 468.600271 279.966262 
L 466.037707 282.912443 
L 463.17717 280.56301 
L 465.781312 277.531281 
" clip-path="url(#p97cad4deca)" style="fill: #e6482f"/>
    <path d="M 464.500723 276.465064 
L 461.981122 279.283967 
L 460.017275 277.575099 
L 460.316634 277.105629 
L 457.241279 274.457822 
L 455.191505 276.892803 
L 452.929686 275.183935 
L 457.454711 270.443338 
L 464.500723 276.465064 
" clip-path="url(#p97cad4deca)" style="fill: #e6482f"/>
    <path d="M 458.652145 237.236208 
L 460.782302 239.04523 
L 459.336789 240.747839 
L 461.394878 242.496351 
L 464.633771 238.68426 
L 466.793033 240.518321 
L 461.738586 246.467018 
L 455.391078 241.075424 
L 458.652145 237.236208 
" clip-path="url(#p97cad4deca)" style="fill: #e6482f"/>
    <path d="M 470.185762 218.313465 
L 465.355835 223.823992 
L 468.328631 226.427982 
L 466.805506 228.168148 
L 461.798181 223.778088 
L 468.151233 216.531568 
L 470.185762 218.313465 
" clip-path="url(#p97cad4deca)" style="fill: #e6482f"/>
    <path d="M 474.362922 222.371767 
L 472.504405 220.587783 
L 476.07176 216.573299 
L 478.154796 218.357282 
L 474.362922 222.371767 
" clip-path="url(#p97cad4deca)" style="fill: #e6482f"/>
    <path d="M 479.452016 207.246509 
L 472.981161 214.626566 
L 471.180852 213.049149 
L 477.651708 205.667005 
L 479.452016 207.246509 
" clip-path="url(#p97cad4deca)" style="fill: #e6482f"/>
    <path d="M 483.582055 212.335556 
L 481.573858 210.551573 
L 485.365732 206.388945 
L 487.299089 208.172928 
L 483.582055 212.335556 
" clip-path="url(#p97cad4deca)" style="fill: #e6482f"/>
    <path d="M 491.617613 199.127819 
L 489.710588 201.301984 
L 487.211776 199.111127 
L 482.329184 204.680076 
L 480.387512 202.977468 
L 487.174357 195.234354 
L 491.617613 199.127819 
" clip-path="url(#p97cad4deca)" style="fill: #e6482f"/>
    <path d="M 498.254779 186.445888 
L 491.783923 193.828032 
L 489.983614 192.250615 
L 496.45447 184.868471 
L 498.254779 186.445888 
" clip-path="url(#p97cad4deca)" style="fill: #e6482f"/>
    <path d="M 507.460052 176.503571 
L 500.990583 183.885716 
L 499.190274 182.308299 
L 505.661129 174.926154 
L 507.460052 176.503571 
" clip-path="url(#p97cad4deca)" style="fill: #e6482f"/>
    <path d="M 516.328547 166.740696 
L 509.859078 174.12284 
L 508.058769 172.545423 
L 514.529625 165.163279 
L 516.328547 166.740696 
" clip-path="url(#p97cad4deca)" style="fill: #e6482f"/>
    <path d="M 441.379437 282.029841 
L 437.723383 286.399035 
L 435.975739 285.038617 
L 439.599917 280.638125 
L 441.379437 282.029841 
" clip-path="url(#p97cad4deca)" style="fill: #e6482f"/>
    <path d="M 456.303012 282.315695 
L 454.124348 284.919685 
L 448.530779 280.264636 
L 450.793985 277.702377 
L 456.303012 282.315695 
" clip-path="url(#p97cad4deca)" style="fill: #e6482f"/>
    <path d="M 419.373816 278.146808 
L 423.743619 281.673044 
L 421.930837 283.840949 
L 417.691311 280.216646 
L 419.373816 278.146808 
" clip-path="url(#p97cad4deca)" style="fill: #e6482f"/>
    <path d="M 420.44236 272.3546 
L 417.529158 275.91422 
L 418.241521 276.52766 
L 416.559015 278.630883 
L 413.485047 275.91422 
L 418.306659 270.541405 
L 420.44236 272.3546 
" clip-path="url(#p97cad4deca)" style="fill: #e6482f"/>
    <path d="M 446.654245 275.751471 
L 444.712572 274.199093 
L 448.013831 270.217993 
L 450.052518 271.901823 
L 446.654245 275.751471 
" clip-path="url(#p97cad4deca)" style="fill: #e6482f"/>
    <path d="M 449.276403 263.486846 
L 454.389058 267.822656 
L 452.609538 269.829898 
L 447.560636 265.525386 
L 449.276403 263.486846 
" clip-path="url(#p97cad4deca)" style="fill: #e6482f"/>
    <path d="M 442.836038 257.953368 
L 447.625774 262.030448 
L 446.137297 263.745576 
L 441.315685 259.766563 
L 442.836038 257.953368 
" clip-path="url(#p97cad4deca)" style="fill: #e6482f"/>
    <path d="M 440.668461 255.591415 
L 439.114846 257.337841 
L 436.751854 255.462051 
L 434.065943 258.470827 
L 432.052203 256.958093 
L 436.478828 252.083958 
L 440.668461 255.591415 
" clip-path="url(#p97cad4deca)" style="fill: #e6482f"/>
    <path d="M 524.741075 167.940451 
L 523.19439 169.613848 
L 516.289742 163.231152 
L 517.836427 161.557755 
L 524.741075 167.940451 
" clip-path="url(#p97cad4deca)" style="fill: #e6482f"/>
   </g>
   <g id="LineCollection_1">
    <path d="M 218.103119 674.893566 
L 218.325486 673.525519 
L 229.290876 680.073051 
L 260.167764 699.513253 
L 272.512144 704.460417 
L 283.781051 707.189598 
L 293.233018 709.478522 
" clip-path="url(#p97cad4deca)" style="fill: none; stroke: #e6482f; stroke-width: 0.2"/>
    <path d="M 121.883545 573.920822 
L 120.97854 574.678233 
L 120.097095 575.456509 
L 112.801618 580.059394 
L 101.406592 585.42595 
L 97.148013 587.289789 
" clip-path="url(#p97cad4deca)" style="fill: none; stroke: #e6482f; stroke-width: 0.2"/>
    <path d="M 121.025661 586.907387 
L 120.317302 587.277045 
" clip-path="url(#p97cad4deca)" style="fill: none; stroke: #e6482f; stroke-width: 0.2"/>
    <path d="M 255.620564 651.664941 
L 244.239398 644.875371 
L 234.762484 639.222961 
L 231.236707 635.947108 
L 221.919174 630.280092 
L 215.498211 627.256709 
L 210.461782 626.501386 
L 189.79773 616.59454 
" clip-path="url(#p97cad4deca)" style="fill: none; stroke: #e6482f; stroke-width: 0.2"/>
    <path d="M 218.325486 673.525519 
L 187.864373 654.640333 
L 171.395499 643.362637 
L 143.580106 621.681501 
L 140.015522 618.739493 
L 136.590916 615.21117 
L 131.706938 609.410616 
L 126.073178 598.892417 
L 122.418509 592.328192 
L 121.610519 590.018403 
L 121.025661 586.907387 
L 120.97854 574.678233 
" clip-path="url(#p97cad4deca)" style="fill: none; stroke: #e6482f; stroke-width: 0.2"/>
    <path d="M 183.641478 625.543668 
L 186.52419 624.654806 
L 189.042405 622.009086 
L 189.391656 619.503163 
L 189.79773 616.59454 
L 189.923849 611.177907 
L 188.413197 607.776863 
L 181.11079 601.229331 
L 181.121878 598.374957 
" clip-path="url(#p97cad4deca)" style="fill: none; stroke: #e6482f; stroke-width: 0.2"/>
    <path d="M 162.098754 586.116592 
L 164.490851 589.51555 
L 166.9564 594.763173 
L 170.408724 602.109846 
L 173.053058 606.013745 
L 177.677869 610.528996 
L 189.391656 619.503163 
" clip-path="url(#p97cad4deca)" style="fill: none; stroke: #e6482f; stroke-width: 0.2"/>
    <path d="M 212.634903 594.677626 
L 225.192714 607.484748 
L 228.84461 609.122675 
" clip-path="url(#p97cad4deca)" style="fill: none; stroke: #e6482f; stroke-width: 0.2"/>
    <path d="M 157.819037 547.453186 
L 151.370356 555.192126 
L 141.842163 566.628399 
L 130.118675 580.699959 
L 150.767481 597.703094 
L 183.641478 625.543668 
L 190.176086 631.077146 
L 191.812856 633.97325 
L 192.568182 637.501573 
L 192.82042 640.522869 
L 192.442064 644.426767 
L 187.864373 654.640333 
" clip-path="url(#p97cad4deca)" style="fill: none; stroke: #e6482f; stroke-width: 0.2"/>
    <path d="M 288.14531 728.522284 
L 283.865592 726.884358 
L 281.724348 724.238637 
L 281.347378 720.837593 
L 281.47211 715.548239 
L 283.781051 707.189598 
" clip-path="url(#p97cad4deca)" style="fill: none; stroke: #e6482f; stroke-width: 0.2"/>
    <path d="M 283.781051 707.189598 
L 288.523666 711.769532 
L 292.678651 718.066681 
L 297.71508 723.988254 
" clip-path="url(#p97cad4deca)" style="fill: none; stroke: #e6482f; stroke-width: 0.2"/>
    <path d="M 292.678651 718.066681 
L 293.686214 713.910312 
L 293.233018 709.478522 
" clip-path="url(#p97cad4deca)" style="fill: none; stroke: #e6482f; stroke-width: 0.2"/>
    <path d="M 293.233018 709.478522 
L 298.09205 709.501474 
L 310.304768 709.25109 
" clip-path="url(#p97cad4deca)" style="fill: none; stroke: #e6482f; stroke-width: 0.2"/>
    <path d="M 283.781051 707.189598 
L 259.691008 680.156512 
L 255.409905 660.002716 
L 255.620564 651.664941 
" clip-path="url(#p97cad4deca)" style="fill: none; stroke: #e6482f; stroke-width: 0.2"/>
    <path d="M 259.932158 645.077765 
L 268.504067 649.676477 
L 274.169703 651.061934 
L 282.353555 655.721156 
L 286.005451 658.744538 
L 290.286555 664.286362 
L 293.560095 668.442731 
L 295.699954 670.961173 
L 307.660434 676.880659 
L 311.186212 679.27391 
L 312.193775 681.91963 
L 312.949101 689.979896 
L 313.327457 693.633411 
L 315.341197 697.537309 
L 318.237768 701.441207 
L 319.243945 704.46459 
" clip-path="url(#p97cad4deca)" style="fill: none; stroke: #e6482f; stroke-width: 0.2"/>
    <path d="M 311.186212 679.27391 
L 308.291028 672.599099 
L 307.251588 664.979091 
L 309.172472 657.23389 
L 309.172472 656.601671 
L 309.172472 649.676477 
L 309.549442 645.015169 
L 308.920235 639.725814 
L 306.149783 634.814122 
L 297.965932 626.501386 
" clip-path="url(#p97cad4deca)" style="fill: none; stroke: #e6482f; stroke-width: 0.2"/>
    <path d="M 308.794116 568.066018 
L 302.470168 575.558749 
L 292.747947 587.074309 
L 286.744146 594.187291 
L 283.429028 598.116227 
L 281.47211 600.432276 
L 278.073837 605.091498 
L 274.169703 609.75072 
L 273.540496 612.396441 
L 272.4082 616.300339 
L 265.608882 624.990738 
L 265.482763 627.50918 
L 267.119534 630.910224 
L 267.119534 633.176196 
L 266.490327 635.569446 
L 261.20166 642.749197 
L 259.932158 645.077765 
L 257.425031 649.676477 
L 255.620564 651.664941 
L 240.049765 668.820393 
L 229.290876 680.073051 
" clip-path="url(#p97cad4deca)" style="fill: none; stroke: #e6482f; stroke-width: 0.2"/>
    <path d="M 278.073837 605.091498 
L 280.592052 609.500337 
L 283.234999 613.151765 
L 295.73876 624.483711 
L 297.965932 626.501386 
" clip-path="url(#p97cad4deca)" style="fill: none; stroke: #e6482f; stroke-width: 0.2"/>
    <path d="M 319.606619 742.16139 
L 321.123251 741.711242 
L 322.981768 741.561012 
L 324.468859 741.859386 
L 325.138258 742.529162 
L 325.881111 744.240117 
L 326.853619 746.901392 
" clip-path="url(#p97cad4deca)" style="fill: none; stroke: #e6482f; stroke-width: 0.2"/>
    <path d="M 292.951677 658.913547 
L 299.295028 660.034014 
L 309.172472 656.601671 
L 315.259428 654.859419 
L 323.699674 660.651627 
L 326.745924 666.66918 
L 342.911283 677.158168 
L 355.021442 684.582043 
L 361.416072 687.33209 
L 368.405262 687.705578 
L 369.446087 688.30024 
L 370.190325 689.191188 
L 371.899163 693.654276 
L 376.06385 700.717181 
L 379.780884 706.146333 
L 381.640787 707.634029 
L 386.919753 710.459191 
L 400.153893 716.706263 
L 414.207111 723.919398 
L 421.12146 728.678774 
L 433.316161 735.891909 
L 444.54349 742.136894 
L 457.40759 747.194643 
L 461.794023 749.350029 
L 468.708373 753.441715 
L 470.671733 754.074483 
" clip-path="url(#p97cad4deca)" style="fill: none; stroke: #e6482f; stroke-width: 0.2"/>
    <path d="M 282.353555 655.721156 
L 287.139133 656.351288 
L 291.923325 658.114406 
L 292.951677 658.913547 
L 296.45528 661.640642 
L 303.254598 663.026098 
L 307.251588 664.979091 
L 308.667998 665.671819 
L 319.873152 673.354423 
L 329.316804 678.518586 
L 357.644987 694.388735 
L 360.541557 694.261457 
L 361.673853 692.750809 
" clip-path="url(#p97cad4deca)" style="fill: none; stroke: #e6482f; stroke-width: 0.2"/>
    <path d="M 315.08896 605.596439 
L 317.230205 605.596439 
L 325.540175 594.890452 
L 325.0357 591.741877 
L 325.414056 588.593303 
L 328.183122 584.059273 
" clip-path="url(#p97cad4deca)" style="fill: none; stroke: #e6482f; stroke-width: 0.2"/>
    <path d="M 302.470168 575.558749 
L 317.007072 585.98514 
L 325.0357 591.741877 
L 333.825198 598.022334 
L 338.255981 601.1876 
L 341.403403 601.942924 
L 345.558388 603.203188 
L 350.468699 605.974101 
L 358.023343 612.143971 
" clip-path="url(#p97cad4deca)" style="fill: none; stroke: #e6482f; stroke-width: 0.2"/>
    <path d="M 294.973733 536.745112 
L 300.484146 541.494055 
L 302.247035 541.744439 
L 306.149783 541.241585 
L 307.912672 541.871717 
L 315.303777 547.211148 
L 321.261843 551.51566 
L 324.728026 554.019496 
L 331.394296 558.835208 
L 336.271345 562.357271 
L 342.739429 567.029013 
L 346.003268 569.386792 
L 357.771105 577.889403 
L 368.59929 586.074861 
L 370.23606 588.090449 
L 371.727309 589.907817 
L 373.811731 590.980294 
L 377.537081 591.938011 
L 394.948381 601.287754 
" clip-path="url(#p97cad4deca)" style="fill: none; stroke: #e6482f; stroke-width: 0.2"/>
    <path d="M 387.41314 549.936157 
L 393.780051 554.463927 
L 399.571807 559.123149 
L 407.503421 566.680562 
L 409.518547 571.087314 
L 410.776961 576.251477 
" clip-path="url(#p97cad4deca)" style="fill: none; stroke: #e6482f; stroke-width: 0.2"/>
    <path d="M 321.393505 509.102759 
L 323.275583 509.24047 
L 325.439003 510.481955 
L 329.54548 514.18346 
L 331.940348 516.453605 
L 336.328168 519.906813 
L 337.632317 520.933386 
L 344.988775 524.904053 
L 351.630099 528.488712 
L 355.03253 530.324858 
L 377.047852 543.782979 
L 382.279696 546.860611 
L 387.41314 549.936157 
" clip-path="url(#p97cad4deca)" style="fill: none; stroke: #e6482f; stroke-width: 0.2"/>
    <path d="M 398.499105 518.477539 
L 410.530268 527.069871 
L 420.119441 533.917864 
L 428.247855 539.722591 
L 429.017347 539.92357 
" clip-path="url(#p97cad4deca)" style="fill: none; stroke: #e6482f; stroke-width: 0.2"/>
    <path d="M 223.522682 583.139113 
L 236.020899 595.773054 
L 240.175884 597.661364 
" clip-path="url(#p97cad4deca)" style="fill: none; stroke: #e6482f; stroke-width: 0.2"/>
    <path d="M 205.033137 601.354522 
L 207.046877 600.599199 
L 212.634903 594.677626 
L 223.522682 583.139113 
L 232.479876 573.647487 
" clip-path="url(#p97cad4deca)" style="fill: none; stroke: #e6482f; stroke-width: 0.2"/>
    <path d="M 144.282767 605.252161 
L 150.767481 597.703094 
L 157.618079 590.698612 
L 162.098754 586.116592 
L 162.47711 584.353474 
L 163.889362 582.867864 
L 172.235366 574.079399 
L 178.00356 568.007595 
L 179.837131 566.077555 
L 185.524942 560.089213 
" clip-path="url(#p97cad4deca)" style="fill: none; stroke: #e6482f; stroke-width: 0.2"/>
    <path d="M 141.842163 566.628399 
L 142.58363 568.485411 
L 149.071116 573.660006 
L 154.09923 577.670317 
L 160.355268 582.661298 
L 162.47711 584.353474 
" clip-path="url(#p97cad4deca)" style="fill: none; stroke: #e6482f; stroke-width: 0.2"/>
    <path d="M 218.369835 559.797099 
L 232.479876 573.647487 
L 244.578948 584.332608 
L 246.455482 585.989313 
" clip-path="url(#p97cad4deca)" style="fill: none; stroke: #e6482f; stroke-width: 0.2"/>
    <path d="M 158.322125 561.180468 
L 162.47711 584.353474 
" clip-path="url(#p97cad4deca)" style="fill: none; stroke: #e6482f; stroke-width: 0.2"/>
    <path d="M 162.518688 539.207218 
L 157.819037 547.453186 
L 157.314562 550.60176 
L 157.440681 557.654232 
L 158.322125 561.180468 
L 163.150667 565.656076 
L 172.235366 574.079399 
L 189.700716 588.989744 
L 195.906861 594.30831 
L 203.396367 600.72439 
L 205.033137 601.354522 
" clip-path="url(#p97cad4deca)" style="fill: none; stroke: #e6482f; stroke-width: 0.2"/>
    <path d="M 232.479876 573.647487 
L 242.770324 562.826741 
" clip-path="url(#p97cad4deca)" style="fill: none; stroke: #e6482f; stroke-width: 0.2"/>
    <path d="M 110.92647 551.219373 
L 110.094918 555.624038 
L 110.137882 557.633367 
L 110.161442 559.027169 
L 111.774652 562.392742 
L 114.542332 566.761937 
L 117.928132 573.23644 
L 118.693159 574.475839 
L 120.097095 575.456509 
" clip-path="url(#p97cad4deca)" style="fill: none; stroke: #e6482f; stroke-width: 0.2"/>
    <path d="M 174.371067 551.415507 
L 163.150667 565.656076 
" clip-path="url(#p97cad4deca)" style="fill: none; stroke: #e6482f; stroke-width: 0.2"/>
    <path d="M 238.286876 602.070202 
L 245.029372 608.189996 
L 251.920161 614.445413 
" clip-path="url(#p97cad4deca)" style="fill: none; stroke: #e6482f; stroke-width: 0.2"/>
    <path d="M 283.429028 598.116227 
L 303.279545 614.35152 
L 304.891368 615.670207 
L 306.905109 615.670207 
" clip-path="url(#p97cad4deca)" style="fill: none; stroke: #e6482f; stroke-width: 0.2"/>
    <path d="M 301.358661 561.904494 
L 278.115415 587.0138 
L 273.163526 592.363663 
L 251.920161 614.445413 
L 246.423606 620.158333 
L 242.652521 624.078924 
L 231.236707 635.947108 
" clip-path="url(#p97cad4deca)" style="fill: none; stroke: #e6482f; stroke-width: 0.2"/>
    <path d="M 266.267194 585.667988 
L 245.029372 608.189996 
" clip-path="url(#p97cad4deca)" style="fill: none; stroke: #e6482f; stroke-width: 0.2"/>
    <path d="M 292.747947 587.074309 
L 315.08896 605.596439 
" clip-path="url(#p97cad4deca)" style="fill: none; stroke: #e6482f; stroke-width: 0.2"/>
    <path d="M 266.267194 585.667988 
L 270.660557 580.702046 
L 275.932592 574.740829 
L 284.871769 564.539782 
" clip-path="url(#p97cad4deca)" style="fill: none; stroke: #e6482f; stroke-width: 0.2"/>
    <path d="M 228.405274 548.855334 
L 242.770324 562.826741 
L 253.881236 573.632881 
L 257.802001 577.447058 
L 259.552416 579.147581 
L 266.267194 585.667988 
L 273.163526 592.363663 
L 281.47211 600.432276 
" clip-path="url(#p97cad4deca)" style="fill: none; stroke: #e6482f; stroke-width: 0.2"/>
    <path d="M 256.57962 518.237588 
L 271.400637 532.173524 
L 282.005689 544.88884 
L 284.645865 548.054106 
L 301.358661 561.904494 
L 308.794116 568.066018 
L 312.935242 571.481668 
L 322.299896 579.206003 
L 328.183122 584.059273 
L 329.641109 585.28198 
L 333.176588 588.242766 
L 338.479114 592.684989 
L 342.914054 596.4011 
L 343.921618 598.669158 
L 341.403403 601.942924 
" clip-path="url(#p97cad4deca)" style="fill: none; stroke: #e6482f; stroke-width: 0.2"/>
    <path d="M 237.564812 538.8692 
L 251.902144 552.417041 
L 263.49397 563.371325 
L 267.338509 567.006061 
L 275.932592 574.740829 
" clip-path="url(#p97cad4deca)" style="fill: none; stroke: #e6482f; stroke-width: 0.2"/>
    <path d="M 228.84461 609.122675 
L 232.62124 608.114881 
L 238.286876 602.070202 
L 240.175884 597.661364 
L 243.575543 593.379804 
L 246.344609 588.593303 
L 246.455482 585.989313 
L 249.241179 585.192259 
L 251.885513 584.059273 
L 257.802001 577.447058 
L 261.729695 573.14672 
L 267.338509 567.006061 
L 276.586746 556.878043 
L 284.645865 548.054106 
L 293.767983 538.063799 
L 294.973733 536.745112 
L 307.413741 523.122156 
L 311.699002 518.600645 
L 317.141506 511.571124 
L 319.483709 509.611872 
L 321.393505 509.102759 
L 326.854026 500.199534 
" clip-path="url(#p97cad4deca)" style="fill: none; stroke: #e6482f; stroke-width: 0.2"/>
    <path d="M 158.322125 561.180468 
L 151.370356 555.192126 
" clip-path="url(#p97cad4deca)" style="fill: none; stroke: #e6482f; stroke-width: 0.2"/>
    <path d="M 162.586598 529.965975 
L 161.917199 536.490555 
L 162.518688 539.207218 
L 165.002255 543.288471 
L 174.371067 551.415507 
L 179.711012 555.567702 
L 185.524942 560.089213 
L 196.727325 567.594462 
L 204.394229 572.7315 
" clip-path="url(#p97cad4deca)" style="fill: none; stroke: #e6482f; stroke-width: 0.2"/>
    <path d="M 110.92647 551.219373 
L 100.733036 544.068833 
L 98.392219 542.612435 
" clip-path="url(#p97cad4deca)" style="fill: none; stroke: #e6482f; stroke-width: 0.2"/>
    <path d="M 142.701433 551.609554 
L 141.616259 550.5955 
L 141.025857 550.017531 
L 138.611586 547.724434 
L 132.994457 542.59157 
L 126.346204 536.513507 
" clip-path="url(#p97cad4deca)" style="fill: none; stroke: #e6482f; stroke-width: 0.2"/>
    <path d="M 100.733036 544.068833 
L 98.027722 546.309767 
L 95.976562 545.541924 
L 90.766893 539.624524 
L 85.939737 530.341551 
L 85.440806 529.13345 
L 85.679184 528.36978 
" clip-path="url(#p97cad4deca)" style="fill: none; stroke: #e6482f; stroke-width: 0.2"/>
    <path d="M 206.10861 483.970502 
L 191.796225 498.985173 
L 162.586598 529.965975 
L 157.55294 535.382608 
L 143.700681 550.44527 
L 142.701433 551.609554 
L 136.463412 558.290624 
L 122.787164 573.059085 
L 121.883545 573.920822 
" clip-path="url(#p97cad4deca)" style="fill: none; stroke: #e6482f; stroke-width: 0.2"/>
    <path d="M 154.151895 532.499023 
L 147.330402 526.650479 
L 140.621169 520.897915 
" clip-path="url(#p97cad4deca)" style="fill: none; stroke: #e6482f; stroke-width: 0.2"/>
    <path d="M 187.904565 496.952893 
L 168.87174 517.031574 
L 162.732119 523.483126 
L 154.151895 532.499023 
L 138.611586 547.724434 
" clip-path="url(#p97cad4deca)" style="fill: none; stroke: #e6482f; stroke-width: 0.2"/>
    <path d="M 110.92647 551.219373 
L 114.747448 547.184023 
L 126.346204 536.513507 
L 140.621169 520.897915 
L 155.935573 505.430466 
L 175.136094 486.071638 
" clip-path="url(#p97cad4deca)" style="fill: none; stroke: #e6482f; stroke-width: 0.2"/>
    <path d="M 108.265505 508.243108 
L 105.732045 514.264835 
L 101.233353 524.964562 
L 99.87931 528.186165 
" clip-path="url(#p97cad4deca)" style="fill: none; stroke: #e6482f; stroke-width: 0.2"/>
    <path d="M 246.474885 529.154315 
L 261.221063 542.731368 
L 273.217577 553.775372 
L 276.586746 556.878043 
L 284.871769 564.539782 
" clip-path="url(#p97cad4deca)" style="fill: none; stroke: #e6482f; stroke-width: 0.2"/>
    <path d="M 292.777051 509.526325 
L 285.44554 517.267352 
L 279.080014 523.988066 
L 271.400637 532.173524 
L 261.221063 542.731368 
L 251.902144 552.417041 
L 242.770324 562.826741 
" clip-path="url(#p97cad4deca)" style="fill: none; stroke: #e6482f; stroke-width: 0.2"/>
    <path d="M 264.106546 510.152284 
L 279.080014 523.988066 
L 291.93857 536.309027 
L 293.767983 538.063799 
" clip-path="url(#p97cad4deca)" style="fill: none; stroke: #e6482f; stroke-width: 0.2"/>
    <path d="M 285.44554 517.267352 
L 270.434652 503.356454 
" clip-path="url(#p97cad4deca)" style="fill: none; stroke: #e6482f; stroke-width: 0.2"/>
    <path d="M 277.713498 495.536139 
L 292.777051 509.526325 
L 302.050235 518.139522 
L 305.768655 521.594816 
L 307.413741 523.122156 
" clip-path="url(#p97cad4deca)" style="fill: none; stroke: #e6482f; stroke-width: 0.2"/>
    <path d="M 173.053058 606.013745 
L 178.035436 601.298186 
L 181.121878 598.374957 
L 189.700716 588.989744 
L 204.394229 572.7315 
L 207.685786 571.446197 
L 218.369835 559.797099 
L 228.405274 548.855334 
L 237.564812 538.8692 
L 246.474885 529.154315 
L 251.279866 523.963028 
L 256.57962 518.237588 
L 260.774797 513.73277 
L 264.106546 510.152284 
L 267.021134 507.022488 
L 270.434652 503.356454 
L 277.713498 495.536139 
L 288.163327 484.391981 
L 298.463476 473.181053 
L 309.858502 461.008236 
L 318.861431 450.846833 
L 322.495311 447.514644 
L 330.546114 438.788775 
L 340.291896 428.157903 
L 350.847054 416.946976 
L 355.988814 411.461488 
L 361.565752 405.279098 
" clip-path="url(#p97cad4deca)" style="fill: none; stroke: #e6482f; stroke-width: 0.2"/>
    <path d="M 267.021134 507.022488 
L 250.518997 492.080845 
L 239.876525 482.443161 
L 236.191367 479.106799 
L 228.432993 472.081452 
" clip-path="url(#p97cad4deca)" style="fill: none; stroke: #e6482f; stroke-width: 0.2"/>
    <path d="M 250.968034 448.188594 
L 254.606072 451.729436 
L 262.77745 459.683289 
L 270.111733 466.821309 
L 288.163327 484.391981 
L 306.307778 501.655932 
L 312.5555 507.600457 
L 317.141506 511.571124 
" clip-path="url(#p97cad4deca)" style="fill: none; stroke: #e6482f; stroke-width: 0.2"/>
    <path d="M 277.713498 495.536139 
L 275.113514 493.07612 
L 259.0521 477.877833 
L 247.156757 466.623089 
L 239.983241 459.835606 
" clip-path="url(#p97cad4deca)" style="fill: none; stroke: #e6482f; stroke-width: 0.2"/>
    <path d="M 261.419249 437.107031 
L 266.786913 442.33379 
L 298.463476 473.181053 
L 326.854026 500.199534 
L 333.358143 504.504046 
L 334.730203 510.765723 
L 329.54548 514.18346 
" clip-path="url(#p97cad4deca)" style="fill: none; stroke: #e6482f; stroke-width: 0.2"/>
    <path d="M 410.530268 527.069871 
L 411.796997 520.937559 
L 412.426205 514.64041 
L 415.070538 510.35885 
L 415.573627 507.462746 
L 413.196776 503.706992 
" clip-path="url(#p97cad4deca)" style="fill: none; stroke: #e6482f; stroke-width: 0.2"/>
    <path d="M 322.495311 447.514644 
L 334.227115 458.725572 
L 346.328959 469.819653 
L 365.449096 480.607015 
L 370.287339 482.290845 
L 375.248929 484.016405 
L 383.765401 489.7022 
L 386.393103 491.454886 
L 391.656824 493.493426 
L 394.482712 494.069308 
L 398.555928 494.899747 
L 413.196776 503.706992 
L 439.922836 514.527738 
" clip-path="url(#p97cad4deca)" style="fill: none; stroke: #e6482f; stroke-width: 0.2"/>
    <path d="M 385.96624 501.150992 
L 387.623799 497.641448 
L 387.623799 495.123006 
L 386.393103 491.454886 
" clip-path="url(#p97cad4deca)" style="fill: none; stroke: #e6482f; stroke-width: 0.2"/>
    <path d="M 413.196776 503.706992 
L 418.973286 502.678332 
L 423.380508 499.404566 
L 425.017278 496.758846 
L 425.646485 494.367682 
L 429.549233 489.958843 
L 430.809033 487.062739 
L 432.013397 482.605911 
" clip-path="url(#p97cad4deca)" style="fill: none; stroke: #e6482f; stroke-width: 0.2"/>
    <path d="M 367.508572 488.882194 
L 367.478082 487.062739 
L 370.287339 482.290845 
" clip-path="url(#p97cad4deca)" style="fill: none; stroke: #e6482f; stroke-width: 0.2"/>
    <path d="M 394.482712 494.069308 
L 397.192184 491.974432 
L 399.332043 490.086122 
L 401.724139 483.033649 
L 406.383598 470.566631 
" clip-path="url(#p97cad4deca)" style="fill: none; stroke: #e6482f; stroke-width: 0.2"/>
    <path d="M 375.248929 484.016405 
L 379.816918 480.010267 
L 380.897935 478.708272 
L 384.727229 474.092867 
L 388.424861 466.988232 
L 389.838498 463.720725 
" clip-path="url(#p97cad4deca)" style="fill: none; stroke: #e6482f; stroke-width: 0.2"/>
    <path d="M 425.092118 455.472671 
L 429.800084 461.700964 
L 431.899752 462.026463 
L 436.254309 462.700412 
L 435.532245 466.047206 
L 433.075011 477.448008 
L 432.013397 482.605911 
" clip-path="url(#p97cad4deca)" style="fill: none; stroke: #e6482f; stroke-width: 0.2"/>
    <path d="M 385.360594 434.987117 
L 381.237485 438.874322 
L 367.982556 452.307404 
L 364.200383 456.962453 
L 359.546468 462.633643 
L 356.512691 463.714466 
L 348.851331 468.713792 
L 346.328959 469.819653 
" clip-path="url(#p97cad4deca)" style="fill: none; stroke: #e6482f; stroke-width: 0.2"/>
    <path d="M 373.249048 425.666586 
L 368.861229 431.654928 
L 360.852003 443.287334 
L 358.92419 443.433391 
L 357.28049 444.121946 
L 347.398888 455.282797 
" clip-path="url(#p97cad4deca)" style="fill: none; stroke: #e6482f; stroke-width: 0.2"/>
    <path d="M 199.532425 531.762478 
L 201.779 528.686932 
L 212.305054 494.027578 
L 212.542046 491.544606 
L 212.230214 489.261942 
" clip-path="url(#p97cad4deca)" style="fill: none; stroke: #e6482f; stroke-width: 0.2"/>
    <path d="M 98.392219 542.612435 
L 145.527322 495.763571 
L 165.749265 475.092315 
" clip-path="url(#p97cad4deca)" style="fill: none; stroke: #e6482f; stroke-width: 0.2"/>
    <path d="M 99.87931 528.186165 
L 98.321537 529.456862 
L 87.411583 527.90657 
L 86.258498 527.942041 
L 85.679184 528.36978 
L 82.323875 526.900862 
L 79.349693 524.672448 
L 75.134795 520.594171 
" clip-path="url(#p97cad4deca)" style="fill: none; stroke: #e6482f; stroke-width: 0.2"/>
    <path d="M 212.542046 491.544606 
L 217.176559 503.767501 
L 230.144602 513.338415 
" clip-path="url(#p97cad4deca)" style="fill: none; stroke: #e6482f; stroke-width: 0.2"/>
    <path d="M 124.412847 478.512138 
L 134.937515 487.11073 
L 145.527322 495.763571 
L 155.935573 505.430466 
L 168.87174 517.031574 
" clip-path="url(#p97cad4deca)" style="fill: none; stroke: #e6482f; stroke-width: 0.2"/>
    <path d="M 260.774797 513.73277 
L 244.225539 498.651329 
L 233.958651 489.295327 
L 228.719878 484.519259 
L 222.257338 478.631071 
" clip-path="url(#p97cad4deca)" style="fill: none; stroke: #e6482f; stroke-width: 0.2"/>
    <path d="M 155.044427 465.723794 
L 134.937515 487.11073 
L 114.897127 507.95934 
L 112.369211 509.000519 
L 108.265505 508.243108 
" clip-path="url(#p97cad4deca)" style="fill: none; stroke: #e6482f; stroke-width: 0.2"/>
    <path d="M 143.445672 457.542509 
L 127.535322 473.752763 
L 124.412847 478.512138 
L 121.916807 481.982038 
L 115.63998 490.707908 
L 108.265505 508.243108 
" clip-path="url(#p97cad4deca)" style="fill: none; stroke: #e6482f; stroke-width: 0.2"/>
    <path d="M 191.796225 498.985173 
L 190.503163 498.309138 
L 187.904565 496.952893 
L 176.307195 489.220212 
L 175.136094 486.071638 
L 172.886747 481.635674 
L 165.749265 475.092315 
L 155.044427 465.723794 
L 146.419854 457.246222 
L 143.445672 457.542509 
" clip-path="url(#p97cad4deca)" style="fill: none; stroke: #e6482f; stroke-width: 0.2"/>
    <path d="M 75.207181 377.486515 
L 83.883033 386.164394 
L 87.627786 389.90763 
L 88.911147 393.869951 
L 87.952091 398.98195 
L 86.528339 400.852846 
" clip-path="url(#p97cad4deca)" style="fill: none; stroke: #e6482f; stroke-width: 0.2"/>
    <path d="M 45.627345 370.427802 
L 45.804911 369.977092 
L 47.789546 368.449752 
L 50.436652 367.141498 
L 53.778102 366.603173 
L 56.497275 367.229132 
L 61.537862 368.602069 
L 65.203618 368.908789 
L 67.006698 368.33708 
" clip-path="url(#p97cad4deca)" style="fill: none; stroke: #e6482f; stroke-width: 0.2"/>
    <path d="M 340.291896 428.157903 
L 353.534351 440.086597 
L 355.469094 440.973372 
L 357.660232 441.127775 
L 358.850736 441.797551 
L 360.852003 443.287334 
L 367.982556 452.307404 
" clip-path="url(#p97cad4deca)" style="fill: none; stroke: #e6482f; stroke-width: 0.2"/>
    <path d="M 411.716614 424.83406 
L 414.111482 428.157903 
L 430.261595 437.48678 
L 443.37516 445.834987 
L 447.603599 449.194301 
" clip-path="url(#p97cad4deca)" style="fill: none; stroke: #e6482f; stroke-width: 0.2"/>
    <path d="M 356.512691 463.714466 
L 354.442128 461.928396 
L 347.398888 455.282797 
L 341.810863 450.010135 
L 330.546114 438.788775 
L 323.856283 432.691933 
L 321.502993 430.544894 
L 315.180431 424.781897 
L 312.870104 422.676588 
L 292.522042 404.12942 
" clip-path="url(#p97cad4deca)" style="fill: none; stroke: #e6482f; stroke-width: 0.2"/>
    <path d="M 302.822191 393.208521 
L 340.291896 428.157903 
" clip-path="url(#p97cad4deca)" style="fill: none; stroke: #e6482f; stroke-width: 0.2"/>
    <path d="M 403.693529 423.029211 
L 408.867165 415.90997 
L 416.190361 406.837736 
L 425.628468 396.177653 
L 429.4245 391.894006 
L 430.659354 389.388084 
L 433.357738 383.919288 
" clip-path="url(#p97cad4deca)" style="fill: none; stroke: #e6482f; stroke-width: 0.2"/>
    <path d="M 312.854859 382.498361 
L 317.548966 386.754882 
L 333.24727 400.989192 
L 350.847054 416.946976 
" clip-path="url(#p97cad4deca)" style="fill: none; stroke: #e6482f; stroke-width: 0.2"/>
    <path d="M 435.293867 402.076274 
L 425.628468 396.177653 
" clip-path="url(#p97cad4deca)" style="fill: none; stroke: #e6482f; stroke-width: 0.2"/>
    <path d="M 378.694324 417.399753 
L 388.625819 402.864983 
L 400.523933 388.997902 
L 406.135519 382.602687 
L 414.791968 373.048465 
L 418.543651 368.906702 
" clip-path="url(#p97cad4deca)" style="fill: none; stroke: #e6482f; stroke-width: 0.2"/>
    <path d="M 360.379405 403.927027 
L 371.979546 389.644727 
L 379.91809 380.163533 
L 385.251106 374.365066 
L 390.65619 368.526954 
L 397.939194 360.497985 
L 402.24663 356.011945 
L 405.460576 353.49559 
" clip-path="url(#p97cad4deca)" style="fill: none; stroke: #e6482f; stroke-width: 0.2"/>
    <path d="M 332.780215 350.966715 
L 335.459197 353.814829 
L 343.485053 362.348738 
L 348.536728 367.600534 
L 353.69096 372.960831 
L 371.979546 389.644727 
L 388.625819 402.864983 
" clip-path="url(#p97cad4deca)" style="fill: none; stroke: #e6482f; stroke-width: 0.2"/>
    <path d="M 355.988814 411.461488 
L 369.752375 422.78926 
L 373.249048 425.666586 
L 383.10016 432.522924 
L 385.360594 434.987117 
L 390.087963 436.835782 
L 395.849228 440.656219 
L 417.121698 452.497279 
L 420.080635 453.978715 
L 423.643833 455.145086 
L 425.092118 455.472671 
L 431.025237 454.224926 
L 435.934162 454.091388 
L 446.151156 452.100838 
L 447.043688 450.961592 
L 447.397097 450.014308 
L 447.603599 449.194301 
L 452.232568 453.288074 
L 454.627436 455.051192 
L 457.329978 458.08292 
L 459.552992 459.288935 
L 461.02068 459.883596 
L 462.675468 460.367671 
L 463.13167 460.391534 
" clip-path="url(#p97cad4deca)" style="fill: none; stroke: #e6482f; stroke-width: 0.2"/>
    <path d="M 596.838722 440.532909 
L 596.668882 439.481503 
L 594.559514 430.476038 
L 592.228398 418.799815 
L 579.859071 367.592188 
L 578.535519 362.16095 
L 571.037697 332.876497 
" clip-path="url(#p97cad4deca)" style="fill: none; stroke: #e6482f; stroke-width: 0.2"/>
    <path d="M 481.048595 392.290447 
L 484.387274 397.331504 
L 486.80293 399.203122 
L 490.823481 400.939115 
L 496.056711 401.42319 
L 504.531605 404.173237 
L 513.602445 406.418344 
L 541.03671 413.765017 
L 568.28942 419.745013 
L 574.101964 420.156059 
L 581.142432 419.83056 
L 592.228398 418.799815 
" clip-path="url(#p97cad4deca)" style="fill: none; stroke: #e6482f; stroke-width: 0.2"/>
    <path d="M 608.554523 347.41544 
L 612.476674 363.746713 
L 614.810561 373.204955 
L 622.805927 408.202327 
L 622.520428 410.568453 
L 621.783119 412.333657 
" clip-path="url(#p97cad4deca)" style="fill: none; stroke: #e6482f; stroke-width: 0.2"/>
    <path d="M 435.934162 454.091388 
L 444.014069 454.736126 
L 450.049746 456.230081 
L 453.158362 457.338029 
L 455.054299 457.857575 
L 457.329978 458.08292 
" clip-path="url(#p97cad4deca)" style="fill: none; stroke: #e6482f; stroke-width: 0.2"/>
    <path d="M 446.151156 452.100838 
L 452.232568 453.288074 
" clip-path="url(#p97cad4deca)" style="fill: none; stroke: #e6482f; stroke-width: 0.2"/>
    <path d="M 322.26802 371.452269 
L 326.461811 373.100628 
L 336.084246 380.883386 
L 342.162886 386.333403 
L 351.186605 395.04884 
L 355.930605 399.630861 
L 360.379405 403.927027 
L 361.565752 405.279098 
L 374.124949 415.434241 
L 378.694324 417.399753 
L 390.857148 420.141454 
L 397.810304 421.704265 
L 403.693529 423.029211 
L 411.716614 424.83406 
L 422.819211 427.365021 
L 440.948416 431.500524 
L 456.563565 435.204116 
L 471.679783 438.778342 
L 474.105178 439.231718 
" clip-path="url(#p97cad4deca)" style="fill: none; stroke: #e6482f; stroke-width: 0.2"/>
    <path d="M 456.563565 435.204116 
L 458.537114 425.541394 
" clip-path="url(#p97cad4deca)" style="fill: none; stroke: #e6482f; stroke-width: 0.2"/>
    <path d="M 458.537114 425.541394 
L 460.193287 423.294201 
L 460.548082 421.401718 
L 460.193287 419.626081 
L 458.537114 419.745013 
L 457.945326 421.401718 
L 457.70972 423.294201 
L 458.537114 425.541394 
" clip-path="url(#p97cad4deca)" style="fill: none; stroke: #e6482f; stroke-width: 0.2"/>
    <path d="M 446.425568 398.466577 
L 437.721997 397.154149 
L 435.293867 402.076274 
L 422.819211 427.365021 
" clip-path="url(#p97cad4deca)" style="fill: none; stroke: #e6482f; stroke-width: 0.2"/>
    <path d="M 490.955143 350.534803 
L 489.603873 357.658218 
L 484.96936 389.801217 
L 484.387274 397.331504 
L 480.811603 418.71844 
L 477.841579 432.353915 
L 477.321859 435.923969 
L 476.317364 438.756687 
" clip-path="url(#p97cad4deca)" style="fill: none; stroke: #e6482f; stroke-width: 0.2"/>
    <path d="M 465.067564 389.661419 
L 463.504247 398.337212 
" clip-path="url(#p97cad4deca)" style="fill: none; stroke: #e6482f; stroke-width: 0.2"/>
    <path d="M 463.504247 398.337212 
L 461.967263 400.584405 
L 460.902877 402.831598 
L 461.257673 404.486217 
L 462.91246 404.840927 
L 463.859042 403.303154 
L 463.504247 398.337212 
" clip-path="url(#p97cad4deca)" style="fill: none; stroke: #e6482f; stroke-width: 0.2"/>
    <path d="M 614.282526 416.688246 
L 619.992512 413.896468 
L 621.783119 412.333657 
" clip-path="url(#p97cad4deca)" style="fill: none; stroke: #e6482f; stroke-width: 0.2"/>
    <path d="M 614.731953 417.724368 
L 614.282526 416.688246 
L 611.57265 417.902452 
" clip-path="url(#p97cad4deca)" style="fill: none; stroke: #e6482f; stroke-width: 0.2"/>
    <path d="M 608.84325 417.998372 
L 596.556623 371.375068 
L 595.600339 367.869697 
L 591.413478 351.75125 
L 586.9231 330.489507 
L 584.565652 319.330743 
L 576.498218 284.775715 
L 571.657203 265.322993 
" clip-path="url(#p97cad4deca)" style="fill: none; stroke: #e6482f; stroke-width: 0.2"/>
    <path d="M 604.970537 257.594484 
L 609.606436 276.663285 
L 617.720991 311.36437 
L 622.616057 331.20936 
L 625.458576 343.246553 
L 629.459724 360.057727 
L 635.738414 387.995886 
" clip-path="url(#p97cad4deca)" style="fill: none; stroke: #e6482f; stroke-width: 0.2"/>
    <path d="M 595.600339 367.869697 
L 612.476674 363.746713 
L 629.459724 360.057727 
L 631.334141 359.843931 
" clip-path="url(#p97cad4deca)" style="fill: none; stroke: #e6482f; stroke-width: 0.2"/>
    <path d="M 662.259981 351.662549 
L 662.154938 349.929709 
L 659.941625 340.961802 
L 658.835662 336.699021 
L 655.065963 321.694781 
L 650.848611 303.932149 
" clip-path="url(#p97cad4deca)" style="fill: none; stroke: #e6482f; stroke-width: 0.2"/>
    <path d="M 657.381833 300.86495 
L 656.719364 301.422053 
L 655.455406 302.237887 
L 650.848611 303.932149 
L 617.720991 311.36437 
L 608.353565 313.384131 
L 601.609683 315.074221 
L 584.565652 319.330743 
" clip-path="url(#p97cad4deca)" style="fill: none; stroke: #e6482f; stroke-width: 0.2"/>
    <path d="M 657.381833 300.86495 
L 666.08679 301.607754 
L 669.418539 302.417328 
L 678.837244 305.436537 
L 689.422893 306.76983 
" clip-path="url(#p97cad4deca)" style="fill: none; stroke: #e6482f; stroke-width: 0.2"/>
    <path d="M 669.418539 302.417328 
L 670.994329 301.607754 
L 673.522245 300.862863 
L 674.458122 300.175366 
" clip-path="url(#p97cad4deca)" style="fill: none; stroke: #e6482f; stroke-width: 0.2"/>
    <path d="M 649.990257 274.353238 
L 648.355343 274.879301 
L 646.884883 275.405107 
L 646.125399 276.106181 
L 645.74843 277.583445 
L 645.634784 279.104525 
L 649.430816 293.751968 
" clip-path="url(#p97cad4deca)" style="fill: none; stroke: #e6482f; stroke-width: 0.2"/>
    <path d="M 437.721997 397.154149 
L 430.659354 389.388084 
" clip-path="url(#p97cad4deca)" style="fill: none; stroke: #e6482f; stroke-width: 0.2"/>
    <path d="M 440.948416 431.500524 
L 446.425568 398.466577 
L 447.926518 389.411035 
L 448.342294 386.909286 
L 452.766147 359.319096 
L 454.114646 352.694362 
L 454.739696 347.31946 
L 455.273275 343.532407 
" clip-path="url(#p97cad4deca)" style="fill: none; stroke: #e6482f; stroke-width: 0.2"/>
    <path d="M 465.067564 389.661419 
L 470.127554 361.434837 
" clip-path="url(#p97cad4deca)" style="fill: none; stroke: #e6482f; stroke-width: 0.2"/>
    <path d="M 396.179077 336.377695 
L 399.632787 346.123878 
L 405.460576 353.49559 
L 417.26722 367.613054 
L 418.543651 368.906702 
L 433.357738 383.919288 
L 439.508447 385.146168 
L 448.342294 386.909286 
L 459.178794 388.693269 
L 465.067564 389.661419 
L 481.048595 392.290447 
L 484.96936 389.801217 
" clip-path="url(#p97cad4deca)" style="fill: none; stroke: #e6482f; stroke-width: 0.2"/>
    <path d="M 452.766147 359.319096 
L 445.868429 358.676444 
L 443.41258 359.990958 
L 442.378685 361.420232 
L 440.971977 366.521798 
" clip-path="url(#p97cad4deca)" style="fill: none; stroke: #e6482f; stroke-width: 0.2"/>
    <path d="M 490.955143 350.534803 
L 483.48504 349.168126 
L 455.273275 343.532407 
L 454.060595 341.748424 
L 446.475461 334.541548 
" clip-path="url(#p97cad4deca)" style="fill: none; stroke: #e6482f; stroke-width: 0.2"/>
    <path d="M 449.725441 330.852563 
L 454.516563 335.059008 
L 465.803487 337.27699 
L 474.385097 338.962906 
" clip-path="url(#p97cad4deca)" style="fill: none; stroke: #e6482f; stroke-width: 0.2"/>
    <path d="M 480.393055 328.231881 
L 469.417963 330.328844 
L 465.803487 337.27699 
" clip-path="url(#p97cad4deca)" style="fill: none; stroke: #e6482f; stroke-width: 0.2"/>
    <path d="M 490.955143 350.534803 
L 491.534458 347.350758 
L 493.470586 340.475641 
L 498.748166 309.394685 
" clip-path="url(#p97cad4deca)" style="fill: none; stroke: #e6482f; stroke-width: 0.2"/>
    <path d="M 454.516563 335.059008 
L 476.039884 312.232367 
L 484.911151 302.653106 
L 489.759095 306.438072 
L 490.468686 308.330555 
L 483.48504 349.168126 
" clip-path="url(#p97cad4deca)" style="fill: none; stroke: #e6482f; stroke-width: 0.2"/>
    <path d="M 498.149449 346.380521 
L 503.478307 347.713814 
L 508.800236 350.315717 
L 517.197519 351.617712 
L 522.756439 353.864905 
L 531.508517 354.929036 
L 535.76606 355.519524 
L 540.141407 357.530939 
L 546.290729 358.359292 
L 558.235964 363.917808 
L 563.481667 365.159294 
L 572.420845 365.858282 
L 575.771997 364.460306 
L 578.535519 362.16095 
" clip-path="url(#p97cad4deca)" style="fill: none; stroke: #e6482f; stroke-width: 0.2"/>
    <path d="M 491.534458 347.350758 
L 498.149449 346.380521 
L 509.760678 343.375918 
L 513.307244 342.706141 
L 534.833337 338.645754 
L 540.982659 337.817401 
L 553.87032 334.211877 
L 565.882079 332.125346 
" clip-path="url(#p97cad4deca)" style="fill: none; stroke: #e6482f; stroke-width: 0.2"/>
    <path d="M 571.037697 332.876497 
L 573.253782 332.795123 
L 575.019443 332.578123 
L 586.9231 330.489507 
" clip-path="url(#p97cad4deca)" style="fill: none; stroke: #e6482f; stroke-width: 0.2"/>
    <path d="M 541.79758 313.569833 
L 552.204445 324.296685 
L 556.816783 328.672139 
L 565.882079 332.125346 
" clip-path="url(#p97cad4deca)" style="fill: none; stroke: #e6482f; stroke-width: 0.2"/>
    <path d="M 498.748166 309.394685 
L 506.908456 308.211623 
L 513.759054 308.136508 
L 517.670117 308.092691 
L 529.37836 310.339884 
L 538.30645 313.571919 
L 541.79758 313.569833 
L 558.392573 324.920557 
L 560.956523 328.553207 
L 565.882079 332.125346 
L 567.676844 332.659498 
L 571.037697 332.876497 
" clip-path="url(#p97cad4deca)" style="fill: none; stroke: #e6482f; stroke-width: 0.2"/>
    <path d="M 588.640254 261.381537 
L 593.341291 280.523366 
L 601.609683 315.074221 
L 604.589409 327.881344 
L 608.554523 347.41544 
" clip-path="url(#p97cad4deca)" style="fill: none; stroke: #e6482f; stroke-width: 0.2"/>
    <path d="M 571.037697 332.876497 
L 570.296231 330.449863 
L 562.165044 299.423157 
L 557.196525 291.690476 
L 556.638 285.96295 
L 554.122557 280.934412 
L 553.843987 275.348771 
L 553.618082 266.806516 
L 547.683577 244.904207 
" clip-path="url(#p97cad4deca)" style="fill: none; stroke: #e6482f; stroke-width: 0.2"/>
    <path d="M 576.498218 284.775715 
L 593.341291 280.523366 
L 609.606436 276.663285 
" clip-path="url(#p97cad4deca)" style="fill: none; stroke: #e6482f; stroke-width: 0.2"/>
    <path d="M 604.970537 257.594484 
L 588.640254 261.381537 
L 571.657203 265.322993 
L 560.564308 269.016151 
" clip-path="url(#p97cad4deca)" style="fill: none; stroke: #e6482f; stroke-width: 0.2"/>
    <path d="M 547.683577 244.904207 
L 532.699022 265.25831 
L 528.009072 271.630574 
" clip-path="url(#p97cad4deca)" style="fill: none; stroke: #e6482f; stroke-width: 0.2"/>
    <path d="M 479.415982 311.320553 
L 481.717994 313.296497 
L 482.308395 315.781555 
L 480.393055 328.231881 
L 479.234427 335.768428 
" clip-path="url(#p97cad4deca)" style="fill: none; stroke: #e6482f; stroke-width: 0.2"/>
    <path d="M 446.475461 334.541548 
L 449.725441 330.852563 
L 459.981241 319.209724 
L 468.346648 309.716011 
L 477.086253 299.798733 
L 483.322888 292.719135 
" clip-path="url(#p97cad4deca)" style="fill: none; stroke: #e6482f; stroke-width: 0.2"/>
    <path d="M 468.346648 309.716011 
L 472.374128 311.996589 
L 476.039884 312.232367 
L 479.415982 311.320553 
L 490.468686 308.330555 
L 498.748166 309.394685 
" clip-path="url(#p97cad4deca)" style="fill: none; stroke: #e6482f; stroke-width: 0.2"/>
    <path d="M 449.43024 295.202106 
L 452.86039 297.094589 
L 454.516563 299.57756 
L 454.516563 303.481459 
L 450.134287 310.465075 
" clip-path="url(#p97cad4deca)" style="fill: none; stroke: #e6482f; stroke-width: 0.2"/>
    <path d="M 483.322888 292.719135 
L 496.561186 304.380753 
L 498.628977 306.202294 
L 498.748166 309.394685 
" clip-path="url(#p97cad4deca)" style="fill: none; stroke: #e6482f; stroke-width: 0.2"/>
    <path d="M 439.515376 288.687959 
L 443.990508 292.364425 
L 448.72065 293.428556 
L 449.43024 295.202106 
L 448.602847 298.86814 
L 443.311408 304.407878 
" clip-path="url(#p97cad4deca)" style="fill: none; stroke: #e6482f; stroke-width: 0.2"/>
    <path d="M 459.981241 319.209724 
L 450.134287 310.465075 
L 443.311408 304.407878 
L 433.241321 295.467096 
L 424.34095 287.872126 
L 421.242035 285.04279 
L 411.857978 276.477584 
L 410.652228 275.377982 
L 404.692777 269.938398 
" clip-path="url(#p97cad4deca)" style="fill: none; stroke: #e6482f; stroke-width: 0.2"/>
    <path d="M 477.086253 299.798733 
L 472.61112 292.954913 
L 456.880941 278.645489 
L 450.985241 276.296055 
" clip-path="url(#p97cad4deca)" style="fill: none; stroke: #e6482f; stroke-width: 0.2"/>
    <path d="M 481.400618 290.9122 
L 482.427584 288.579459 
L 483.727576 287.041686 
L 485.975537 286.686976 
L 487.979576 284.016218 
L 490.09033 278.309557 
L 491.060473 275.688875 
L 491.415269 270.839779 
L 493.426237 268.002098 
L 495.318016 267.054813 
L 496.855 261.615228 
L 499.575559 256.29249 
L 500.167347 252.390678 
L 505.719338 248.887394 
L 510.101614 246.122741 
" clip-path="url(#p97cad4deca)" style="fill: none; stroke: #e6482f; stroke-width: 0.2"/>
    <path d="M 483.322888 292.719135 
L 481.400618 290.9122 
L 480.118643 289.708272 
L 457.898205 268.828364 
L 455.068159 266.3287 
L 436.225205 249.646891 
L 428.781434 242.77386 
" clip-path="url(#p97cad4deca)" style="fill: none; stroke: #e6482f; stroke-width: 0.2"/>
    <path d="M 272.283468 425.587298 
L 277.748146 430.738941 
L 287.073995 439.529493 
L 293.435363 445.526181 
L 309.858502 461.008236 
" clip-path="url(#p97cad4deca)" style="fill: none; stroke: #e6482f; stroke-width: 0.2"/>
    <path d="M 281.574668 416.12071 
L 318.861431 450.846833 
" clip-path="url(#p97cad4deca)" style="fill: none; stroke: #e6482f; stroke-width: 0.2"/>
    <path d="M 206.10861 483.970502 
L 212.230214 489.261942 
L 222.257338 478.631071 
L 228.432993 472.081452 
L 239.983241 459.835606 
L 250.968034 448.188594 
L 261.419249 437.107031 
L 272.283468 425.587298 
L 278.204113 419.308928 
L 281.574668 416.12071 
L 286.694253 410.307636 
L 292.522042 404.12942 
L 302.822191 393.208521 
L 312.854859 382.498361 
L 319.479551 375.043188 
L 322.26802 371.452269 
" clip-path="url(#p97cad4deca)" style="fill: none; stroke: #e6482f; stroke-width: 0.2"/>
    <path d="M 317.440864 366.882768 
L 306.478246 378.629933 
L 297.576488 388.113214 
L 275.932592 409.867378 
L 258.519907 428.189201 
L 241.049013 447.151588 
L 206.10861 483.970502 
" clip-path="url(#p97cad4deca)" style="fill: none; stroke: #e6482f; stroke-width: 0.2"/>
    <path d="M 275.932592 409.867378 
L 275.059463 408.832459 
L 277.232584 405.168512 
L 281.639806 390.81527 
L 292.844961 381.496826 
L 299.265923 379.483324 
L 306.478246 378.629933 
" clip-path="url(#p97cad4deca)" style="fill: none; stroke: #e6482f; stroke-width: 0.2"/>
    <path d="M 297.576488 388.113214 
L 292.97108 384.14046 
L 292.844961 381.496826 
" clip-path="url(#p97cad4deca)" style="fill: none; stroke: #e6482f; stroke-width: 0.2"/>
    <path d="M 259.48312 336.096014 
L 255.741139 341.823539 
L 253.297764 349.31001 
L 250.624327 353.051159 
L 251.540419 357.176229 
L 250.165587 362.676323 
L 251.69287 367.71738 
" clip-path="url(#p97cad4deca)" style="fill: none; stroke: #e6482f; stroke-width: 0.2"/>
    <path d="M 266.46538 369.386604 
L 282.521251 359.335788 
L 286.29788 350.647476 
L 299.317202 337.27699 
L 305.58017 330.844217 
L 309.59102 326.725406 
L 312.350384 325.458882 
L 316.840762 319.670847 
" clip-path="url(#p97cad4deca)" style="fill: none; stroke: #e6482f; stroke-width: 0.2"/>
    <path d="M 259.48312 336.096014 
L 265.008779 329.823903 
L 271.188592 327.785363 
L 280.587894 327.407701 
L 287.755867 326.618993 
L 299.759311 325.298219 
L 305.384756 323.697851 
L 312.588762 321.650964 
L 316.840762 319.670847 
L 319.853749 315.028317 
" clip-path="url(#p97cad4deca)" style="fill: none; stroke: #e6482f; stroke-width: 0.2"/>
    <path d="M 259.45263 302.438193 
L 271.500424 298.586459 
L 273.446254 298.160806 
L 285.47603 295.531778 
L 298.689381 294.461388 
L 308.465653 295.913613 
L 315.459 298.521776 
" clip-path="url(#p97cad4deca)" style="fill: none; stroke: #e6482f; stroke-width: 0.2"/>
    <path d="M 322.26802 371.452269 
L 317.440864 366.882768 
" clip-path="url(#p97cad4deca)" style="fill: none; stroke: #e6482f; stroke-width: 0.2"/>
    <path d="M 373.340519 351.732471 
L 367.242476 358.544993 
L 362.344638 364.051346 
L 353.69096 372.960831 
L 342.162886 386.333403 
" clip-path="url(#p97cad4deca)" style="fill: none; stroke: #e6482f; stroke-width: 0.2"/>
    <path d="M 356.613863 348.471225 
L 367.242476 358.544993 
L 385.251106 374.365066 
L 396.381421 385.029322 
L 400.523933 388.997902 
" clip-path="url(#p97cad4deca)" style="fill: none; stroke: #e6482f; stroke-width: 0.2"/>
    <path d="M 386.337667 385.964087 
L 379.91809 380.163533 
L 362.344638 364.051346 
L 351.309951 353.933761 
L 344.778115 347.945419 
L 342.796251 346.130138 
L 339.743072 343.330014 
" clip-path="url(#p97cad4deca)" style="fill: none; stroke: #e6482f; stroke-width: 0.2"/>
    <path d="M 320.616005 363.588137 
L 314.055064 358.734867 
L 306.059698 354.148674 
" clip-path="url(#p97cad4deca)" style="fill: none; stroke: #e6482f; stroke-width: 0.2"/>
    <path d="M 350.289915 330.975668 
L 355.033916 335.092392 
L 362.781202 342.134432 
L 369.204937 347.972544 
L 373.340519 351.732471 
L 378.608397 356.45429 
L 390.65619 368.526954 
L 401.603564 378.48179 
L 406.135519 382.602687 
" clip-path="url(#p97cad4deca)" style="fill: none; stroke: #e6482f; stroke-width: 0.2"/>
    <path d="M 343.485053 362.348738 
L 351.309951 353.933761 
L 356.613863 348.471225 
" clip-path="url(#p97cad4deca)" style="fill: none; stroke: #e6482f; stroke-width: 0.2"/>
    <path d="M 397.939194 360.497985 
L 384.864435 348.865579 
" clip-path="url(#p97cad4deca)" style="fill: none; stroke: #e6482f; stroke-width: 0.2"/>
    <path d="M 417.26722 367.613054 
L 433.306459 349.451894 
L 438.674123 343.373831 
L 446.475461 334.541548 
" clip-path="url(#p97cad4deca)" style="fill: none; stroke: #e6482f; stroke-width: 0.2"/>
    <path d="M 405.460576 353.49559 
L 417.383637 342.950266 
L 420.596197 341.831885 
L 423.948735 337.502335 
L 429.395396 333.45238 
" clip-path="url(#p97cad4deca)" style="fill: none; stroke: #e6482f; stroke-width: 0.2"/>
    <path d="M 165.749265 475.092315 
L 173.159774 463.14067 
L 190.643141 442.625904 
L 202.092217 434.738819 
L 212.568378 420.479471 
L 223.585048 408.381769 
L 235.574633 389.369305 
L 243.567227 381.701306 
L 250.912598 379.539661 
L 258.905192 374.463132 
L 266.46538 369.386604 
L 264.737139 363.986664 
L 256.960748 354.803844 
L 253.297764 349.31001 
" clip-path="url(#p97cad4deca)" style="fill: none; stroke: #e6482f; stroke-width: 0.2"/>
    <path d="M 129.370279 370.605138 
L 81.413326 375.466754 
L 75.207181 377.486515 
" clip-path="url(#p97cad4deca)" style="fill: none; stroke: #e6482f; stroke-width: 0.2"/>
    <path d="M 144.148641 407.402855 
L 144.697156 401.041355 
L 144.898445 398.740467 
" clip-path="url(#p97cad4deca)" style="fill: none; stroke: #e6482f; stroke-width: 0.2"/>
    <path d="M 144.958732 395.204943 
L 144.751207 392.332178 
L 142.492159 387.608273 
L 137.606795 380.224043 
L 129.370279 370.605138 
L 125.646315 364.800411 
L 118.353609 353.430907 
L 116.841572 346.950144 
L 113.493191 343.709763 
L 110.03671 341.765116 
L 108.740875 340.252382 
L 103.231848 343.818262 
" clip-path="url(#p97cad4deca)" style="fill: none; stroke: #e6482f; stroke-width: 0.2"/>
    <path d="M 56.871473 354.422009 
L 94.590643 348.13738 
L 103.231848 343.818262 
" clip-path="url(#p97cad4deca)" style="fill: none; stroke: #e6482f; stroke-width: 0.2"/>
    <path d="M 256.805525 320.167441 
L 248.16432 311.043044 
L 239.125357 305.897661 
L 231.322634 305.265442 
L 224.436002 304.708338 
L 212.122113 304.601925 
L 205.211921 305.661883 
L 197.324656 306.869984 
L 187.820024 310.542277 
L 181.447569 313.45716 
L 173.563076 318.427275 
L 167.406824 324.47404 
L 161.573491 332.144125 
L 160.061454 339.0568 
L 157.685989 345.754562 
L 156.065849 350.505592 
L 153.472795 356.122531 
L 151.529737 358.499089 
L 148.39756 359.688411 
L 139.540152 362.064969 
L 133.600103 366.709586 
L 129.370279 370.605138 
" clip-path="url(#p97cad4deca)" style="fill: none; stroke: #e6482f; stroke-width: 0.2"/>
    <path d="M 49.911388 343.18813 
L 52.383868 348.302216 
L 56.871473 354.422009 
L 67.006698 368.33708 
L 75.207181 377.486515 
" clip-path="url(#p97cad4deca)" style="fill: none; stroke: #e6482f; stroke-width: 0.2"/>
    <path d="M 108.740875 340.252382 
L 118.154037 332.576037 
L 128.199177 325.663362 
L 136.08367 321.667657 
L 140.612853 321.968117 
L 144.184366 322.205981 
L 149.241585 322.700489 
L 151.111189 322.884104 
L 153.000197 323.067718 
L 158.205708 323.576832 
L 167.406824 324.47404 
" clip-path="url(#p97cad4deca)" style="fill: none; stroke: #e6482f; stroke-width: 0.2"/>
    <path d="M 118.598876 276.964804 
L 139.863071 279.63659 
L 145.521778 279.663715 
L 152.25873 278.138462 
L 156.661794 276.53392 
L 159.967211 275.329992 
L 166.536467 272.936742 
L 191.354117 263.897892 
L 199.367501 260.582396 
L 208.802837 255.612281 
L 214.878705 252.580552 
L 216.660997 251.410009 
L 222.017574 248.006878 
L 225.792817 245.851492 
L 229.670618 243.612645 
L 231.536065 242.552688 
L 234.863656 241.227741 
L 237.678458 240.764531 
L 241.011593 240.866771 
L 247.657979 242.165398 
" clip-path="url(#p97cad4deca)" style="fill: none; stroke: #e6482f; stroke-width: 0.2"/>
    <path d="M 254.200034 243.830659 
L 256.429941 244.488988 
" clip-path="url(#p97cad4deca)" style="fill: none; stroke: #e6482f; stroke-width: 0.2"/>
    <path d="M 405.66292 325.907486 
L 408.304482 325.49018 
L 411.936975 327.027953 
L 416.266586 330.239123 
L 429.395396 333.45238 
L 434.14494 333.45238 
L 436.797589 333.45238 
L 442.105659 333.45238 
L 446.475461 334.541548 
" clip-path="url(#p97cad4deca)" style="fill: none; stroke: #e6482f; stroke-width: 0.2"/>
    <path d="M 378.156587 299.963569 
L 384.444501 305.893488 
L 397.530348 318.235314 
L 405.66292 325.907486 
" clip-path="url(#p97cad4deca)" style="fill: none; stroke: #e6482f; stroke-width: 0.2"/>
    <path d="M 457.898205 268.828364 
L 450.985241 276.296055 
L 439.515376 288.687959 
L 433.241321 295.467096 
L 424.31046 305.325951 
L 405.66292 325.907486 
L 396.179077 336.377695 
L 394.301157 338.451706 
L 388.728377 344.600711 
L 384.864435 348.865579 
L 378.608397 356.45429 
" clip-path="url(#p97cad4deca)" style="fill: none; stroke: #e6482f; stroke-width: 0.2"/>
    <path d="M 397.530348 318.235314 
L 416.085031 297.221868 
L 424.34095 287.872126 
" clip-path="url(#p97cad4deca)" style="fill: none; stroke: #e6482f; stroke-width: 0.2"/>
    <path d="M 421.242035 285.04279 
L 434.843443 268.365154 
" clip-path="url(#p97cad4deca)" style="fill: none; stroke: #e6482f; stroke-width: 0.2"/>
    <path d="M 520.049292 140.60146 
L 512.619828 147.607213 
L 510.935937 149.295216 
L 504.717319 156.314304 
L 494.431028 168.032258 
L 492.341062 170.500624 
L 479.881651 185.214835 
L 478.584431 186.748435 
L 460.661727 206.902231 
L 434.757517 236.034367 
L 428.781434 242.77386 
L 404.692777 269.938398 
L 389.982633 286.53466 
L 378.156587 299.963569 
L 363.596123 316.589042 
L 350.289915 330.975668 
L 339.743072 343.330014 
L 332.780215 350.966715 
L 320.616005 363.588137 
L 317.440864 366.882768 
" clip-path="url(#p97cad4deca)" style="fill: none; stroke: #e6482f; stroke-width: 0.2"/>
    <path d="M 359.326107 225.73108 
L 363.567018 232.806505 
L 367.084481 235.685916 
L 374.385502 242.014363 
L 375.925258 243.105618 
L 381.166803 246.79669 
L 386.163041 250.57957 
L 404.692777 269.938398 
" clip-path="url(#p97cad4deca)" style="fill: none; stroke: #e6482f; stroke-width: 0.2"/>
    <path d="M 367.084481 235.685916 
L 399.210082 184.709895 
L 400.751224 182.264482 
L 405.84309 174.654906 
" clip-path="url(#p97cad4deca)" style="fill: none; stroke: #e6482f; stroke-width: 0.2"/>
    <path d="M 355.287539 227.825957 
L 357.753089 226.636635 
L 359.326107 225.73108 
L 387.991068 180.931189 
L 390.981881 176.58286 
L 405.84309 174.654906 
" clip-path="url(#p97cad4deca)" style="fill: none; stroke: #e6482f; stroke-width: 0.2"/>
    <path d="M 367.832877 190.614776 
L 353.404075 193.623552 
" clip-path="url(#p97cad4deca)" style="fill: none; stroke: #e6482f; stroke-width: 0.2"/>
    <path d="M 266.764739 259.253276 
L 264.397589 265.821673 
L 261.883532 286.069363 
L 260.638977 294.488513 
L 259.45263 302.438193 
L 256.805525 320.167441 
L 257.675882 324.860048 
L 257.675882 328.983032 
L 258.262126 333.95732 
L 259.48312 336.096014 
" clip-path="url(#p97cad4deca)" style="fill: none; stroke: #e6482f; stroke-width: 0.2"/>
    <path d="M 246.681387 284.963502 
L 254.974726 285.894095 
L 261.883532 286.069363 
L 270.903092 283.77418 
L 291.801364 278.455614 
L 302.192984 276.694583 
" clip-path="url(#p97cad4deca)" style="fill: none; stroke: #e6482f; stroke-width: 0.2"/>
    <path d="M 244.954532 291.185536 
L 245.937149 288.504344 
L 246.681387 284.963502 
L 247.456116 281.061691 
L 250.101835 267.732935 
L 250.496822 265.746558 
" clip-path="url(#p97cad4deca)" style="fill: none; stroke: #e6482f; stroke-width: 0.2"/>
    <path d="M 292.479078 269.014065 
L 279.369671 267.966627 
L 269.16515 266.503969 
L 264.397589 265.821673 
" clip-path="url(#p97cad4deca)" style="fill: none; stroke: #e6482f; stroke-width: 0.2"/>
    <path d="M 269.934335 252.428236 
L 266.764739 259.253276 
L 257.218529 260.935019 
L 252.16824 263.447202 
L 250.496822 265.746558 
" clip-path="url(#p97cad4deca)" style="fill: none; stroke: #e6482f; stroke-width: 0.2"/>
    <path d="M 256.429941 244.488988 
L 255.991991 247.372573 
L 254.802872 251.758459 
L 252.16824 263.447202 
" clip-path="url(#p97cad4deca)" style="fill: none; stroke: #e6482f; stroke-width: 0.2"/>
    <path d="M 317.971671 305.227884 
L 334.240974 290.05255 
L 336.732856 287.431868 
L 344.233449 279.544783 
L 349.109112 273.299798 
L 352.219114 267.106976 
L 354.5433 259.966869 
L 355.347133 252.432409 
L 355.793399 245.01688 
L 355.591055 235.88831 
L 355.287539 227.825957 
L 353.014632 224.437432 
L 352.334146 223.498493 
L 351.093748 206.61429 
L 349.662094 195.49517 
L 344.083406 195.211832 
" clip-path="url(#p97cad4deca)" style="fill: none; stroke: #e6482f; stroke-width: 0.2"/>
    <path d="M 259.828296 226.636783 
L 256.429941 244.488988 
L 262.460074 247.66886 
L 269.934335 252.428236 
L 274.909784 256.18399 
L 280.632243 260.47181 
L 286.525171 264.509246 
L 292.479078 269.014065 
L 302.192984 276.694583 
L 305.69243 279.939137 
L 307.374935 282.670405 
L 309.71991 284.921772 
L 311.66574 286.791303 
L 313.999628 291.819841 
L 315.459 298.521776 
L 317.971671 305.227884 
L 319.853749 315.028317 
L 323.415561 316.799781 
L 324.050312 317.306808 
L 325.778553 318.692264 
L 343.680468 326.456244 
L 350.289915 330.975668 
" clip-path="url(#p97cad4deca)" style="fill: none; stroke: #e6482f; stroke-width: 0.2"/>
    <path d="M 351.606538 183.309833 
L 372.345429 179.641713 
" clip-path="url(#p97cad4deca)" style="fill: none; stroke: #e6482f; stroke-width: 0.2"/>
    <path d="M 359.326107 225.73108 
L 356.504376 210.545313 
L 353.404075 193.623552 
L 351.606538 183.309833 
L 335.801519 107.055497 
" clip-path="url(#p97cad4deca)" style="fill: none; stroke: #e6482f; stroke-width: 0.2"/>
    <path d="M 335.801519 107.055497 
L 335.632638 106.173573 
" clip-path="url(#p97cad4deca)" style="fill: none; stroke: #e6482f; stroke-width: 0.2"/>
    <path d="M 528.009072 271.630574 
L 510.965041 270.109493 
L 495.318016 267.054813 
L 484.7587 265.604674 
L 469.402718 263.495192 
L 464.173646 262.777426 
" clip-path="url(#p97cad4deca)" style="fill: none; stroke: #e6482f; stroke-width: 0.2"/>
    <path d="M 491.060473 275.688875 
L 493.645212 271.436526 
L 495.318016 267.054813 
L 504.818491 252.303044 
L 505.719338 248.887394 
" clip-path="url(#p97cad4deca)" style="fill: none; stroke: #e6482f; stroke-width: 0.2"/>
    <path d="M 457.898205 268.828364 
L 458.587007 266.410075 
L 460.542538 264.035603 
L 464.173646 262.777426 
L 470.320196 258.867268 
L 477.023886 253.139742 
L 484.426079 248.392886 
" clip-path="url(#p97cad4deca)" style="fill: none; stroke: #e6482f; stroke-width: 0.2"/>
    <path d="M 500.167347 252.390678 
L 495.740722 251.743854 
L 489.454193 249.788775 
L 487.080114 249.928572 
L 484.426079 248.392886 
L 478.280915 242.245968 
" clip-path="url(#p97cad4deca)" style="fill: none; stroke: #e6482f; stroke-width: 0.2"/>
    <path d="M 470.320196 258.867268 
L 473.112823 253.559135 
L 477.09041 246.375211 
L 478.280915 242.245968 
L 478.420893 239.871496 
L 479.677921 237.499111 
L 479.956491 233.307272 
L 478.140937 229.956304 
" clip-path="url(#p97cad4deca)" style="fill: none; stroke: #e6482f; stroke-width: 0.2"/>
    <path d="M 533.476163 194.234376 
L 521.003252 208.821839 
L 515.171305 215.321381 
L 494.376977 238.498559 
L 484.426079 248.392886 
" clip-path="url(#p97cad4deca)" style="fill: none; stroke: #e6482f; stroke-width: 0.2"/>
    <path d="M 493.873889 197.777834 
L 489.84918 202.785507 
L 486.428732 202.414105 
L 472.848113 217.8899 
L 469.923824 221.222089 
L 467.917013 223.304446 
L 467.842173 224.790055 
L 478.140937 229.956304 
" clip-path="url(#p97cad4deca)" style="fill: none; stroke: #e6482f; stroke-width: 0.2"/>
    <path d="M 472.848113 217.8899 
L 460.661727 206.902231 
" clip-path="url(#p97cad4deca)" style="fill: none; stroke: #e6482f; stroke-width: 0.2"/>
    <path d="M 527.947308 172.611112 
L 507.296514 196.563474 
L 500.804869 203.999868 
L 478.140937 229.956304 
" clip-path="url(#p97cad4deca)" style="fill: none; stroke: #e6482f; stroke-width: 0.2"/>
    <path d="M 500.804869 203.999868 
L 493.873889 197.777834 
L 491.695224 195.820669 
L 479.881651 185.214835 
" clip-path="url(#p97cad4deca)" style="fill: none; stroke: #e6482f; stroke-width: 0.2"/>
    <path d="M 655.770527 290.67879 
L 657.686735 298.559334 
L 657.574476 299.635983 
L 657.381833 300.86495 
" clip-path="url(#p97cad4deca)" style="fill: none; stroke: #e6482f; stroke-width: 0.2"/>
    <path d="M 545.700327 237.159007 
L 533.681638 242.446275 
L 510.965041 270.109493 
" clip-path="url(#p97cad4deca)" style="fill: none; stroke: #e6482f; stroke-width: 0.2"/>
    <path d="M 510.101614 246.122741 
L 513.61769 242.91783 
L 527.997985 229.810247 
L 540.174335 218.171889 
" clip-path="url(#p97cad4deca)" style="fill: none; stroke: #e6482f; stroke-width: 0.2"/>
    <path d="M 527.997985 229.810247 
L 515.171305 215.321381 
" clip-path="url(#p97cad4deca)" style="fill: none; stroke: #e6482f; stroke-width: 0.2"/>
    <path d="M 521.003252 208.821839 
L 507.296514 196.563474 
" clip-path="url(#p97cad4deca)" style="fill: none; stroke: #e6482f; stroke-width: 0.2"/>
    <path d="M 542.579396 223.010096 
L 545.700327 237.159007 
L 547.683577 244.904207 
" clip-path="url(#p97cad4deca)" style="fill: none; stroke: #e6482f; stroke-width: 0.2"/>
    <path d="M 491.695224 195.820669 
L 517.728326 167.40004 
" clip-path="url(#p97cad4deca)" style="fill: none; stroke: #e6482f; stroke-width: 0.2"/>
    <path d="M 497.786338 147.578002 
L 508.104504 146.826851 
" clip-path="url(#p97cad4deca)" style="fill: none; stroke: #e6482f; stroke-width: 0.2"/>
    <path d="M 440.823684 134.370265 
L 444.576752 136.300306 
L 446.191348 136.634151 
L 450.556992 136.792727 
L 454.619121 137.397821 
L 458.236369 139.213102 
L 461.349143 140.652808 
" clip-path="url(#p97cad4deca)" style="fill: none; stroke: #e6482f; stroke-width: 0.2"/>
    <path d="M 503.303682 144.330887 
L 504.039604 144.496197 
L 505.862088 145.393405 
L 508.104504 146.826851 
L 510.935937 149.295216 
" clip-path="url(#p97cad4deca)" style="fill: none; stroke: #e6482f; stroke-width: 0.2"/>
    <path d="M 458.242936 135.172264 
L 458.458116 136.277354 
L 461.349143 140.652808 
L 462.972054 141.43943 
L 467.445801 143.043972 
L 471.8946 144.151919 
L 473.826571 144.076804 
L 475.655984 144.517062 
L 476.950433 145.193098 
L 480.8906 147.719886 
L 482.599438 148.091288 
L 483.848151 148.341672 
L 485.425327 148.42722 
L 497.786338 147.578002 
L 498.614559 146.502943 
" clip-path="url(#p97cad4deca)" style="fill: none; stroke: #e6482f; stroke-width: 0.2"/>
    <path d="M 405.84309 174.654906 
L 407.058541 173.177642 
L 412.338892 166.870061 
L 419.301749 160.378865 
L 425.708852 154.826608 
L 440.823684 134.370265 
L 443.560874 130.401685 
L 448.450396 123.582904 
L 458.797666 108.766452 
L 474.545863 83.500657 
L 483.066493 70.052969 
L 484.22057 68.296406 
" clip-path="url(#p97cad4deca)" style="fill: none; stroke: #e6482f; stroke-width: 0.2"/>
   </g>
  </g>
 </g>
 <defs>
  <clipPath id="p97cad4deca">
   <rect x="7.2" y="7.2" width="721.950398" height="831.6"/>
  </clipPath>
 </defs>
</svg>
