<?xml version="1.0" encoding="utf-8" standalone="no"?>
<!DOCTYPE svg PUBLIC "-//W3C//DTD SVG 1.1//EN"
  "http://www.w3.org/Graphics/SVG/1.1/DTD/svg11.dtd">
<svg xmlns:xlink="http://www.w3.org/1999/xlink" width="576.579253pt" height="846pt" viewBox="0 0 576.579253 846" xmlns="http://www.w3.org/2000/svg" version="1.1">
 <metadata>
  <rdf:RDF xmlns:dc="http://purl.org/dc/elements/1.1/" xmlns:cc="http://creativecommons.org/ns#" xmlns:rdf="http://www.w3.org/1999/02/22-rdf-syntax-ns#">
   <cc:Work>
    <dc:type rdf:resource="http://purl.org/dc/dcmitype/StillImage"/>
    <dc:date>2025-03-16T14:37:55.052643</dc:date>
    <dc:format>image/svg+xml</dc:format>
    <dc:creator>
     <cc:Agent>
      <dc:title>Matplotlib v3.10.1, https://matplotlib.org/</dc:title>
     </cc:Agent>
    </dc:creator>
   </cc:Work>
  </rdf:RDF>
 </metadata>
 <defs>
  <style type="text/css">*{stroke-linejoin: round; stroke-linecap: butt}</style>
 </defs>
 <g id="figure_1">
  <g id="patch_1">
   <path d="M 0 846 
L 576.579253 846 
L 576.579253 0 
L 0 0 
z
" style="fill: #ffffff"/>
  </g>
  <g id="axes_1">
   <g id="PatchCollection_1">
    <path d="M 88.857978 764.108436 
L 91.043182 801 
L 278.638474 705.087957 
L 334.158785 641.682651 
L 378.130743 546.279561 
L 539.102789 462.669725 
L 491.362612 363.887668 
L 459.045751 279.61529 
L 543.825651 213.608 
L 458.10722 63.563233 
L 421.238688 82.722754 
L 416.364776 117.659818 
L 355.48316 92.016416 
L 305.996834 52.733676 
L 254.774427 45.289109 
L 200.754556 45 
L 180.143141 101.493784 
L 160.186281 100.01511 
L 169.201006 196.52043 
L 134.632477 290.631562 
L 71.976516 403.92932 
L 52.8595 556.332136 
L 32.753602 640.110619 
L 88.857978 764.108436 
" clip-path="url(#pfd063f886d)" style="fill: #f29888"/>
   </g>
   <g id="PatchCollection_2">
    <path d="M 128.50182 655.379209 
L 128.111102 656.698271 
L 122.794106 655.255735 
L 123.217049 653.819223 
L 128.50182 655.379209 
" clip-path="url(#pfd063f886d)" style="fill: #f29888"/>
    <path d="M 119.867744 654.514892 
L 112.017119 652.283329 
L 112.69987 649.877096 
L 120.550495 652.108659 
L 119.867744 654.514892 
" clip-path="url(#pfd063f886d)" style="fill: #f29888"/>
    <path d="M 130.477567 648.57008 
L 129.522925 652.409815 
L 123.035787 650.79562 
L 123.992444 646.952875 
L 130.477567 648.57008 
" clip-path="url(#pfd063f886d)" style="fill: #f29888"/>
    <path d="M 116.393571 648.154486 
L 114.057315 647.564221 
L 114.73201 644.877912 
L 112.911341 644.420156 
L 113.31213 642.814996 
L 115.102588 643.263718 
L 115.849787 641.995853 
L 117.817478 642.489748 
L 116.393571 648.154486 
" clip-path="url(#pfd063f886d)" style="fill: #f29888"/>
    <path d="M 105.824028 631.07595 
L 106.359755 629.097358 
L 109.580163 630.124298 
L 108.982001 631.991463 
L 105.824028 631.07595 
" clip-path="url(#pfd063f886d)" style="fill: #f29888"/>
    <path d="M 192.720656 576.358985 
L 202.116029 576.681221 
L 201.95088 581.493688 
L 192.555507 581.171452 
L 192.720656 576.358985 
" clip-path="url(#pfd063f886d)" style="fill: #f29888"/>
    <path d="M 200.516902 564.110985 
L 210.458073 564.490441 
L 210.254658 569.860046 
L 200.313487 569.48059 
L 200.516902 564.110985 
" clip-path="url(#pfd063f886d)" style="fill: #f29888"/>
    <path d="M 229.381744 571.139958 
L 229.188399 561.743902 
L 234.001891 561.644521 
L 234.195237 571.043588 
L 229.381744 571.139958 
" clip-path="url(#pfd063f886d)" style="fill: #f29888"/>
    <path d="M 229.812743 558.39204 
L 229.621412 548.992973 
L 234.434904 548.896603 
L 234.62825 558.292659 
L 229.812743 558.39204 
" clip-path="url(#pfd063f886d)" style="fill: #f29888"/>
    <path d="M 196.89772 541.274354 
L 197.119262 536.467911 
L 210.766217 537.097326 
L 210.542662 541.906781 
L 196.89772 541.274354 
" clip-path="url(#pfd063f886d)" style="fill: #f29888"/>
    <path d="M 231.349436 577.172105 
L 238.748921 577.536503 
L 238.575716 581.050989 
L 231.17623 580.683579 
L 231.349436 577.172105 
" clip-path="url(#pfd063f886d)" style="fill: #f29888"/>
    <path d="M 256.558843 576.166245 
L 256.828721 580.677556 
L 245.828179 581.331064 
L 245.560315 576.825776 
L 256.558843 576.166245 
" clip-path="url(#pfd063f886d)" style="fill: #f29888"/>
    <path d="M 256.512521 567.101461 
L 265.233199 567.191807 
L 265.190905 571.001426 
L 256.472241 570.908068 
L 256.512521 567.101461 
" clip-path="url(#pfd063f886d)" style="fill: #f29888"/>
    <path d="M 245.445516 567.366478 
L 253.719084 566.854513 
L 253.928541 570.25456 
L 245.654974 570.763513 
L 245.445516 567.366478 
" clip-path="url(#pfd063f886d)" style="fill: #f29888"/>
    <path d="M 266.278472 551.92924 
L 266.429524 563.303888 
L 261.752984 563.364119 
L 261.601933 551.992483 
L 266.278472 551.92924 
" clip-path="url(#pfd063f886d)" style="fill: #f29888"/>
    <path d="M 269.807024 549.550111 
L 269.802996 548.047344 
L 273.055628 548.035298 
L 273.07174 553.058574 
L 270.755625 553.067609 
L 270.743541 549.547099 
L 269.807024 549.550111 
" clip-path="url(#pfd063f886d)" style="fill: #f29888"/>
    <path d="M 230.120887 541.018372 
L 239.514247 541.340609 
L 239.351111 546.150064 
L 229.955738 545.830839 
L 230.120887 541.018372 
" clip-path="url(#pfd063f886d)" style="fill: #f29888"/>
    <path d="M 270.838199 542.265156 
L 270.687148 539.121092 
L 272.767624 539.02171 
L 273.019376 544.316026 
L 269.879529 544.463592 
L 269.776814 542.313341 
L 270.838199 542.265156 
" clip-path="url(#pfd063f886d)" style="fill: #f29888"/>
    <path d="M 248.555153 532.188489 
L 248.537027 535.564444 
L 247.588427 535.558421 
L 247.574329 538.097163 
L 248.520915 538.103186 
L 248.502789 541.370724 
L 243.852432 541.34362 
L 243.90681 532.158374 
L 248.555153 532.188489 
" clip-path="url(#pfd063f886d)" style="fill: #f29888"/>
    <path d="M 230.642517 526.98452 
L 240.03789 527.306756 
L 239.872741 532.116212 
L 230.477368 531.796987 
L 230.642517 526.98452 
" clip-path="url(#pfd063f886d)" style="fill: #f29888"/>
    <path d="M 285.574736 569.396267 
L 285.58682 572.061494 
L 280.674641 572.085586 
L 280.662557 569.420359 
L 285.574736 569.396267 
" clip-path="url(#pfd063f886d)" style="fill: #f29888"/>
    <path d="M 276.467367 569.098123 
L 276.479451 571.76335 
L 271.567272 571.787442 
L 271.555188 569.122215 
L 276.467367 569.098123 
" clip-path="url(#pfd063f886d)" style="fill: #f29888"/>
    <path d="M 286.662304 559.078675 
L 286.632093 561.141591 
L 287.625002 561.156649 
L 287.59882 563.002733 
L 284.078324 562.954548 
L 284.150829 557.681313 
L 287.31283 557.726486 
L 287.294704 559.08771 
L 286.662304 559.078675 
" clip-path="url(#pfd063f886d)" style="fill: #f29888"/>
    <path d="M 270.238023 557.440388 
L 273.400024 557.48255 
L 273.32752 562.755785 
L 269.80501 562.7076 
L 269.831192 560.858505 
L 270.824101 560.870551 
L 270.852297 558.807635 
L 270.217883 558.7986 
L 270.238023 557.440388 
" clip-path="url(#pfd063f886d)" style="fill: #f29888"/>
    <path d="M 286.531393 552.874869 
L 284.215277 552.883904 
L 284.199165 547.860628 
L 287.449783 547.848582 
L 287.455825 549.351348 
L 286.519309 549.35436 
L 286.531393 552.874869 
" clip-path="url(#pfd063f886d)" style="fill: #f29888"/>
    <path d="M 286.607925 538.705497 
L 286.672374 544.258807 
L 284.191109 544.288922 
L 284.12666 538.735612 
L 286.607925 538.705497 
" clip-path="url(#pfd063f886d)" style="fill: #f29888"/>
    <path d="M 286.857663 529.706967 
L 286.920097 535.260277 
L 284.438833 535.290392 
L 284.374384 529.737082 
L 286.857663 529.706967 
" clip-path="url(#pfd063f886d)" style="fill: #f29888"/>
    <path d="M 273.152301 529.637701 
L 273.180497 534.489318 
L 270.767709 534.504376 
L 270.749583 531.390427 
L 269.722436 531.39645 
L 269.712366 529.658782 
L 273.152301 529.637701 
" clip-path="url(#pfd063f886d)" style="fill: #f29888"/>
    <path d="M 272.876381 519.925432 
L 272.916661 524.85535 
L 270.403172 524.876431 
L 270.360878 519.946513 
L 272.876381 519.925432 
" clip-path="url(#pfd063f886d)" style="fill: #f29888"/>
    <path d="M 286.607925 519.097254 
L 286.672374 524.650564 
L 284.191109 524.677668 
L 284.12666 519.124358 
L 286.607925 519.097254 
" clip-path="url(#pfd063f886d)" style="fill: #f29888"/>
    <path d="M 265.94616 528.905893 
L 261.652283 528.917939 
L 261.642213 525.421522 
L 262.427679 525.418511 
L 262.419623 522.367804 
L 261.634157 522.367804 
L 261.626101 519.530918 
L 265.919978 519.518872 
L 265.94616 528.905893 
" clip-path="url(#pfd063f886d)" style="fill: #f29888"/>
    <path d="M 265.919978 516.266391 
L 261.626101 516.278437 
L 261.616031 512.779009 
L 262.401496 512.779009 
L 262.391426 509.725291 
L 261.607975 509.728303 
L 261.599919 506.891417 
L 265.893796 506.87937 
L 265.919978 516.266391 
" clip-path="url(#pfd063f886d)" style="fill: #f29888"/>
    <path d="M 242.347964 514.640151 
L 237.812405 514.495596 
L 238.046031 507.210642 
L 242.579575 507.355196 
L 242.347964 514.640151 
" clip-path="url(#pfd063f886d)" style="fill: #f29888"/>
    <path d="M 242.601729 496.676218 
L 242.615827 502.226516 
L 235.254608 502.247597 
L 235.27072 508.550784 
L 231.335338 508.56283 
L 231.303113 496.706333 
L 232.61625 496.703322 
L 242.601729 496.676218 
" clip-path="url(#pfd063f886d)" style="fill: #f29888"/>
    <path d="M 265.666212 498.666857 
L 265.68031 503.605809 
L 261.926189 503.614843 
L 261.922161 502.322886 
L 255.586075 502.340955 
L 255.576005 498.693961 
L 265.666212 498.666857 
" clip-path="url(#pfd063f886d)" style="fill: #f29888"/>
    <path d="M 251.944738 498.272343 
L 251.956822 502.449371 
L 245.836235 502.464429 
L 245.824151 498.290412 
L 251.944738 498.272343 
" clip-path="url(#pfd063f886d)" style="fill: #f29888"/>
    <path d="M 241.26241 479.992196 
L 247.364871 480.073508 
L 252.569082 480.142774 
L 252.524774 483.401278 
L 249.606468 483.362128 
L 249.550076 487.686722 
L 252.128013 487.71985 
L 252.079677 491.348775 
L 240.815299 491.198197 
L 240.839467 489.38524 
L 239.858643 489.373194 
L 239.953302 482.187621 
L 241.234214 482.202679 
L 241.26241 479.992196 
" clip-path="url(#pfd063f886d)" style="fill: #f29888"/>
    <path d="M 255.596145 468.159792 
L 265.652114 468.220023 
L 265.623918 472.8006 
L 255.567948 472.740369 
L 255.596145 468.159792 
" clip-path="url(#pfd063f886d)" style="fill: #f29888"/>
    <path d="M 245.727478 467.632769 
L 252.013215 467.759255 
L 251.914528 472.565699 
L 245.630806 472.439213 
L 245.727478 467.632769 
" clip-path="url(#pfd063f886d)" style="fill: #f29888"/>
    <path d="M 232.779385 473.43905 
L 232.725007 463.732804 
L 236.420722 463.711723 
L 236.450932 469.316229 
L 242.587631 469.283102 
L 242.609785 473.384842 
L 232.779385 473.43905 
" clip-path="url(#pfd063f886d)" style="fill: #f29888"/>
    <path d="M 213.227342 536.754008 
L 216.423581 536.763043 
L 216.439693 531.655444 
L 213.324014 531.646409 
L 213.334085 528.749292 
L 220.777879 528.770373 
L 220.74364 539.870969 
L 213.217272 539.849888 
L 213.227342 536.754008 
" clip-path="url(#pfd063f886d)" style="fill: #f29888"/>
    <path d="M 231.456178 524.749945 
L 230.960731 514.597989 
L 235.222384 514.390192 
L 235.715817 524.542148 
L 231.456178 524.749945 
" clip-path="url(#pfd063f886d)" style="fill: #f29888"/>
    <path d="M 215.553527 514.317914 
L 211.019983 514.17336 
L 211.253609 506.885394 
L 215.785139 507.029948 
L 215.553527 514.317914 
" clip-path="url(#pfd063f886d)" style="fill: #f29888"/>
    <path d="M 224.302402 491.565607 
L 224.189618 495.802867 
L 214.894945 495.55893 
L 215.005716 491.321671 
L 224.302402 491.565607 
" clip-path="url(#pfd063f886d)" style="fill: #f29888"/>
    <path d="M 200.581351 473.65287 
L 202.905522 473.713101 
L 202.88941 474.360586 
L 207.346422 474.478037 
L 207.362534 473.830552 
L 209.928388 473.899818 
L 209.821645 477.926269 
L 200.474608 477.679321 
L 200.581351 473.65287 
" clip-path="url(#pfd063f886d)" style="fill: #f29888"/>
    <path d="M 215.170865 473.541443 
L 222.048721 473.725148 
L 222.117198 471.180383 
L 220.518071 471.138221 
L 220.600645 467.997168 
L 225.889445 468.138711 
L 225.619567 478.362944 
L 215.052038 478.085881 
L 215.170865 473.541443 
" clip-path="url(#pfd063f886d)" style="fill: #f29888"/>
    <path d="M 192.166802 467.798405 
L 196.180731 467.903809 
L 196.114269 470.442551 
L 195.369084 470.42147 
L 195.242201 475.215868 
L 195.987386 475.236949 
L 195.924951 477.570905 
L 191.913037 477.465501 
L 192.166802 467.798405 
" clip-path="url(#pfd063f886d)" style="fill: #f29888"/>
    <path d="M 224.614574 451.34025 
L 224.143295 461.483172 
L 219.786984 461.281397 
L 220.258263 451.138476 
L 224.614574 451.34025 
" clip-path="url(#pfd063f886d)" style="fill: #f29888"/>
    <path d="M 231.778421 458.866129 
L 232.126845 452.044954 
L 236.75102 452.279856 
L 236.402596 459.101031 
L 231.778421 458.866129 
" clip-path="url(#pfd063f886d)" style="fill: #f29888"/>
    <path d="M 217.631989 443.675839 
L 217.231201 454.321691 
L 212.385484 454.140997 
L 212.786273 443.495146 
L 217.631989 443.675839 
" clip-path="url(#pfd063f886d)" style="fill: #f29888"/>
    <path d="M 273.06167 510.863659 
L 273.103964 515.796588 
L 270.588461 515.817669 
L 270.548181 510.88474 
L 273.06167 510.863659 
" clip-path="url(#pfd063f886d)" style="fill: #f29888"/>
    <path d="M 286.980518 510.285441 
L 287.044966 515.83875 
L 284.563701 515.865854 
L 284.499253 510.312545 
L 286.980518 510.285441 
" clip-path="url(#pfd063f886d)" style="fill: #f29888"/>
    <path d="M 270.544153 507.093191 
L 270.656938 502.934232 
L 273.323492 503.009521 
L 273.208693 507.165468 
L 270.544153 507.093191 
" clip-path="url(#pfd063f886d)" style="fill: #f29888"/>
    <path d="M 286.980518 501.597101 
L 287.044966 507.150411 
L 284.563701 507.180526 
L 284.499253 501.627216 
L 286.980518 501.597101 
" clip-path="url(#pfd063f886d)" style="fill: #f29888"/>
    <path d="M 273.154315 476.435548 
L 283.925259 476.543964 
L 283.911161 477.826887 
L 286.044001 477.847968 
L 286.08831 473.297507 
L 283.891021 473.276426 
L 283.919217 470.427494 
L 290.074042 470.487725 
L 289.963272 481.708783 
L 285.957399 481.669633 
L 285.977539 479.697064 
L 283.635241 479.675983 
L 283.613087 481.814188 
L 273.10195 481.705772 
L 273.154315 476.435548 
" clip-path="url(#pfd063f886d)" style="fill: #f29888"/>
    <path d="M 274.012284 469.927575 
L 270.95904 469.84024 
L 271.124189 464.103225 
L 274.177434 464.193572 
L 274.012284 469.927575 
" clip-path="url(#pfd063f886d)" style="fill: #f29888"/>
    <path d="M 274.23584 463.133504 
L 271.182595 463.046169 
L 271.347745 457.312166 
L 274.400989 457.399501 
L 274.23584 463.133504 
" clip-path="url(#pfd063f886d)" style="fill: #f29888"/>
    <path d="M 274.759484 456.116578 
L 271.704225 456.029243 
L 271.871388 450.29524 
L 274.922619 450.382575 
L 274.759484 456.116578 
" clip-path="url(#pfd063f886d)" style="fill: #f29888"/>
    <path d="M 274.608433 448.653942 
L 271.555188 448.566607 
L 271.720337 442.829592 
L 274.773582 442.916927 
L 274.608433 448.653942 
" clip-path="url(#pfd063f886d)" style="fill: #f29888"/>
    <path d="M 274.533914 440.814861 
L 271.480669 440.727526 
L 271.645819 434.990511 
L 274.699063 435.080858 
L 274.533914 440.814861 
" clip-path="url(#pfd063f886d)" style="fill: #f29888"/>
    <path d="M 225.444348 435.484406 
L 225.303367 444.985866 
L 220.238123 444.913589 
L 220.274375 442.465194 
L 221.323676 442.480252 
L 221.392153 437.803305 
L 220.205899 437.785235 
L 220.240137 435.409118 
L 225.444348 435.484406 
" clip-path="url(#pfd063f886d)" style="fill: #f29888"/>
    <path d="M 191.218202 433.328132 
L 196.096143 433.328132 
L 196.096143 439.742747 
L 191.218202 439.742747 
L 191.218202 433.328132 
" clip-path="url(#pfd063f886d)" style="fill: #f29888"/>
    <path d="M 215.472967 425.615537 
L 225.931739 425.862484 
L 225.818954 430.665916 
L 215.360182 430.42198 
L 215.472967 425.615537 
" clip-path="url(#pfd063f886d)" style="fill: #f29888"/>
    <path d="M 205.672777 425.251138 
L 211.954485 425.473993 
L 211.77121 430.632789 
L 205.491516 430.412946 
L 205.672777 425.251138 
" clip-path="url(#pfd063f886d)" style="fill: #f29888"/>
    <path d="M 190.452877 425.02226 
L 202.124085 425.055387 
L 202.112001 429.590791 
L 190.440793 429.560675 
L 190.452877 425.02226 
" clip-path="url(#pfd063f886d)" style="fill: #f29888"/>
    <path d="M 183.285002 411.482303 
L 192.172844 411.334737 
L 192.249377 415.963499 
L 183.361535 416.108054 
L 183.285002 411.482303 
" clip-path="url(#pfd063f886d)" style="fill: #f29888"/>
    <path d="M 215.207117 410.060849 
L 215.00773 416.096007 
L 203.505698 415.716551 
L 203.688974 410.166253 
L 206.796597 410.268646 
L 206.726106 412.406851 
L 211.743014 412.572486 
L 211.83163 409.946409 
L 215.207117 410.060849 
" clip-path="url(#pfd063f886d)" style="fill: #f29888"/>
    <path d="M 207.66665 398.243502 
L 216.236278 398.592842 
L 216.089255 402.182617 
L 207.521641 401.836288 
L 207.66665 398.243502 
" clip-path="url(#pfd063f886d)" style="fill: #f29888"/>
    <path d="M 259.191159 462.272199 
L 258.943435 466.238419 
L 245.493853 465.404218 
L 245.741576 461.434987 
L 259.191159 462.272199 
" clip-path="url(#pfd063f886d)" style="fill: #f29888"/>
    <path d="M 264.852551 446.286859 
L 264.538365 454.460222 
L 259.912176 454.279529 
L 260.228376 446.109177 
L 264.852551 446.286859 
" clip-path="url(#pfd063f886d)" style="fill: #f29888"/>
    <path d="M 244.400243 444.100469 
L 244.430454 454.285552 
L 239.590779 454.30061 
L 239.558555 444.115527 
L 244.400243 444.100469 
" clip-path="url(#pfd063f886d)" style="fill: #f29888"/>
    <path d="M 232.428947 438.782061 
L 237.67948 438.87843 
L 237.552597 445.795975 
L 232.30005 445.699605 
L 232.428947 438.782061 
" clip-path="url(#pfd063f886d)" style="fill: #f29888"/>
    <path d="M 236.960477 435.773516 
L 232.33026 435.782551 
L 232.312134 426.365414 
L 243.475811 426.347345 
L 243.483867 430.623755 
L 236.950407 430.635801 
L 236.960477 435.773516 
" clip-path="url(#pfd063f886d)" style="fill: #f29888"/>
    <path d="M 246.32564 426.66657 
L 264.13959 426.88039 
L 264.073128 432.406596 
L 246.261192 432.195787 
L 246.32564 426.66657 
" clip-path="url(#pfd063f886d)" style="fill: #f29888"/>
    <path d="M 275.373758 376.987938 
L 270.203785 378.939426 
L 266.969279 370.368537 
L 272.141266 368.417049 
L 275.373758 376.987938 
" clip-path="url(#pfd063f886d)" style="fill: #f29888"/>
    <path d="M 240.474931 361.005609 
L 239.868713 354.160341 
L 266.554392 351.793258 
L 267.162624 358.644549 
L 240.474931 361.005609 
" clip-path="url(#pfd063f886d)" style="fill: #f29888"/>
    <path d="M 280.348371 430.533408 
L 280.491366 427.205638 
L 287.540413 427.509805 
L 287.395404 430.837575 
L 280.348371 430.533408 
" clip-path="url(#pfd063f886d)" style="fill: #f29888"/>
    <path d="M 271.839164 430.012409 
L 271.982159 426.681628 
L 279.029192 426.985795 
L 278.886197 430.313564 
L 271.839164 430.012409 
" clip-path="url(#pfd063f886d)" style="fill: #f29888"/>
    <path d="M 316.195798 370.874479 
L 318.918744 381.439018 
L 314.022678 382.70086 
L 311.297717 372.139332 
L 316.195798 370.874479 
" clip-path="url(#pfd063f886d)" style="fill: #f29888"/>
    <path d="M 283.635241 371.937558 
L 288.305739 370.570311 
L 288.885774 372.551915 
L 291.83429 371.687599 
L 289.695408 364.378552 
L 295.213805 362.764358 
L 297.584299 370.859421 
L 304.047268 368.968164 
L 305.863909 375.177993 
L 286.259501 380.911996 
L 283.635241 371.937558 
" clip-path="url(#pfd063f886d)" style="fill: #f29888"/>
    <path d="M 312.014706 354.750606 
L 314.737652 365.315146 
L 309.841585 366.576988 
L 307.116625 356.01546 
L 312.014706 354.750606 
" clip-path="url(#pfd063f886d)" style="fill: #f29888"/>
    <path d="M 276.779539 358.560225 
L 276.173321 351.714958 
L 302.861014 349.347875 
L 303.467233 356.199165 
L 276.779539 358.560225 
" clip-path="url(#pfd063f886d)" style="fill: #f29888"/>
   </g>
   <g id="LineCollection_1">
    <path d="M 530.02563 451.499863 
L 534.714621 453.589904 
" clip-path="url(#pfd063f886d)" style="fill: none; stroke: #f29888; stroke-width: 0.2"/>
    <path d="M 341.526046 486.232141 
L 343.405121 576.89203 
" clip-path="url(#pfd063f886d)" style="fill: none; stroke: #f29888; stroke-width: 0.2"/>
    <path d="M 321.909555 486.280326 
L 321.383897 575.663315 
" clip-path="url(#pfd063f886d)" style="fill: none; stroke: #f29888; stroke-width: 0.2"/>
    <path d="M 363.523102 486.180944 
L 362.427479 564.303725 
" clip-path="url(#pfd063f886d)" style="fill: none; stroke: #f29888; stroke-width: 0.2"/>
    <path d="M 385.846428 486.126736 
L 386.519109 507.692491 
L 386.086096 511.905658 
L 386.301595 518.281122 
L 386.519109 523.897675 
L 380.251499 532.649257 
L 376.038182 538.160405 
L 374.741158 541.939908 
L 375.065414 545.29177 
L 375.256745 550.878207 
" clip-path="url(#pfd063f886d)" style="fill: none; stroke: #f29888; stroke-width: 0.2"/>
    <path d="M 321.909555 486.280326 
L 341.526046 486.232141 
L 363.523102 486.180944 
L 385.846428 486.126736 
" clip-path="url(#pfd063f886d)" style="fill: none; stroke: #f29888; stroke-width: 0.2"/>
    <path d="M 530.02563 451.499863 
L 532.700586 449.422544 
" clip-path="url(#pfd063f886d)" style="fill: none; stroke: #f29888; stroke-width: 0.2"/>
    <path d="M 245.189737 342.448399 
L 249.902528 343.963212 
L 255.888177 343.972247 
L 328.724976 325.445153 
L 361.241225 314.973972 
L 372.080646 313.23028 
L 384.388283 313.688037 
L 400.830689 315.43474 
L 476.426687 334.630399 
L 480.451972 335.436094 
" clip-path="url(#pfd063f886d)" style="fill: none; stroke: #f29888; stroke-width: 0.2"/>
    <path d="M 449.291883 273.739743 
L 458.761775 288.511427 
L 468.938585 311.531763 
L 479.44044 332.798331 
" clip-path="url(#pfd063f886d)" style="fill: none; stroke: #f29888; stroke-width: 0.2"/>
    <path d="M 87.21772 760.483257 
L 109.441196 745.36451 
L 112.852935 740.847175 
L 117.263625 731.345716 
L 119.660301 727.999877 
L 149.401239 708.192871 
L 150.712361 707.322531 
L 180.370725 687.663092 
L 238.338063 648.464676 
L 266.757808 629.293109 
L 303.157074 604.782053 
L 343.405121 576.89203 
L 362.427479 564.303725 
L 367.742461 558.133046 
L 371.74632 552.462286 
L 373.530736 551.302837 
L 375.256745 550.878207 
L 376.009457 550.881975 
" clip-path="url(#pfd063f886d)" style="fill: none; stroke: #f29888; stroke-width: 0.2"/>
    <path d="M 427.876724 520.441203 
L 490.136078 477.399246 
L 530.02563 451.499863 
" clip-path="url(#pfd063f886d)" style="fill: none; stroke: #f29888; stroke-width: 0.2"/>
    <path d="M 293.014502 574.871276 
L 291.661085 583.210275 
L 259.334154 615.334546 
L 257.223468 618.270813 
L 255.737126 620.972179 
L 249.390969 629.537045 
L 241.719591 637.692339 
L 234.561787 643.664255 
" clip-path="url(#pfd063f886d)" style="fill: none; stroke: #f29888; stroke-width: 0.2"/>
    <path d="M 343.405121 576.89203 
L 321.383897 575.663315 
L 293.014502 574.871276 
L 291.550314 574.84116 
L 268.429439 574.678536 
L 227.5933 574.02804 
L 186.646391 572.892683 
" clip-path="url(#pfd063f886d)" style="fill: none; stroke: #f29888; stroke-width: 0.2"/>
    <path d="M 291.767828 486.352603 
L 291.550314 574.84116 
" clip-path="url(#pfd063f886d)" style="fill: none; stroke: #f29888; stroke-width: 0.2"/>
    <path d="M 229.591202 410.780611 
L 229.631482 423.962192 
L 228.839975 475.763971 
L 228.77754 479.386873 
L 228.664756 486.4038 
L 228.515719 495.697462 
L 228.129028 521.955221 
L 228.022285 526.707457 
L 227.698029 567.008103 
L 227.5933 574.02804 
L 229.430081 581.427434 
L 230.968787 586.911478 
L 232.590068 590.314536 
L 235.800406 595.208315 
L 239.693494 599.957539 
L 250.76654 611.681528 
L 257.223468 618.270813 
L 261.68048 623.080268 
L 266.757808 629.293109 
" clip-path="url(#pfd063f886d)" style="fill: none; stroke: #f29888; stroke-width: 0.2"/>
    <path d="M 268.429439 574.678536 
L 268.455621 496.019699 
L 268.457635 486.406811 
L 268.88662 475.601347 
L 270.916746 424.392845 
" clip-path="url(#pfd063f886d)" style="fill: none; stroke: #f29888; stroke-width: 0.2"/>
    <path d="M 268.455621 496.019699 
L 253.197455 495.896225 
L 228.515719 495.697462 
" clip-path="url(#pfd063f886d)" style="fill: none; stroke: #f29888; stroke-width: 0.2"/>
    <path d="M 321.909555 486.280326 
L 291.767828 486.352603 
L 268.457635 486.406811 
" clip-path="url(#pfd063f886d)" style="fill: none; stroke: #f29888; stroke-width: 0.2"/>
    <path d="M 253.197455 495.896225 
L 253.090712 475.66459 
" clip-path="url(#pfd063f886d)" style="fill: none; stroke: #f29888; stroke-width: 0.2"/>
    <path d="M 228.839975 475.763971 
L 253.090712 475.66459 
L 268.88662 475.601347 
" clip-path="url(#pfd063f886d)" style="fill: none; stroke: #f29888; stroke-width: 0.2"/>
    <path d="M 150.712361 707.322531 
L 149.965162 705.081933 
L 149.59257 703.214769 
L 149.143445 700.603749 
L 148.621815 697.989718 
L 147.800098 696.495987 
L 130.854188 665.513096 
L 129.138248 661.257767 
L 129.287285 658.869603 
L 129.404098 657.047611 
L 129.585359 654.984695 
L 129.885447 653.493975 
L 118.538495 650.506511 
" clip-path="url(#pfd063f886d)" style="fill: none; stroke: #f29888; stroke-width: 0.2"/>
    <path d="M 238.338063 648.464676 
L 234.561787 643.664255 
L 231.915373 640.420809 
" clip-path="url(#pfd063f886d)" style="fill: none; stroke: #f29888; stroke-width: 0.2"/>
    <path d="M 239.693494 599.957539 
L 208.115775 632.117949 
L 178.100932 660.408508 
" clip-path="url(#pfd063f886d)" style="fill: none; stroke: #f29888; stroke-width: 0.2"/>
    <path d="M 163.471137 645.447097 
L 170.169746 638.909008 
L 177.408111 630.859118 
L 187.347268 622.243056 
L 193.101304 616.138631 
L 198.271277 613.030705 
L 225.851179 584.978059 
L 229.430081 581.427434 
" clip-path="url(#pfd063f886d)" style="fill: none; stroke: #f29888; stroke-width: 0.2"/>
    <path d="M 186.646391 572.892683 
L 182.346472 572.296395 
L 179.226765 571.645899 
L 175.84725 570.218421 
L 172.077017 568.917429 
L 167.269567 566.447953 
L 129.055674 541.753192 
L 123.857505 539.02171 
L 120.866695 537.594233 
L 117.877899 536.163743 
L 115.539629 535.121745 
L 113.978769 533.432262 
L 111.769396 531.483785 
L 109.819831 528.49331 
L 107.870265 526.023834 
L 105.9207 523.42486 
L 104.621662 522.12688 
L 101.371044 519.786901 
" clip-path="url(#pfd063f886d)" style="fill: none; stroke: #f29888; stroke-width: 0.2"/>
    <path d="M 186.646391 572.892683 
L 187.834659 485.10883 
L 189.373365 423.579725 
" clip-path="url(#pfd063f886d)" style="fill: none; stroke: #f29888; stroke-width: 0.2"/>
    <path d="M 228.664756 486.4038 
L 187.834659 485.10883 
" clip-path="url(#pfd063f886d)" style="fill: none; stroke: #f29888; stroke-width: 0.2"/>
    <path d="M 189.373365 423.579725 
L 183.728085 421.691479 
L 175.625709 412.723064 
L 166.550564 402.029028 
L 153.908601 390.145427 
L 146.778993 382.258161 
L 142.44685 373.166273 
" clip-path="url(#pfd063f886d)" style="fill: none; stroke: #f29888; stroke-width: 0.2"/>
    <path d="M 229.591202 410.780611 
L 229.699959 395.385535 
L 230.078593 384.796903 
L 230.294093 367.02571 
L 230.078593 361.300741 
L 230.833848 354.548832 
L 232.237616 351.25419 
L 235.695677 348.227576 
L 240.233249 345.529221 
L 245.189737 342.448399 
" clip-path="url(#pfd063f886d)" style="fill: none; stroke: #f29888; stroke-width: 0.2"/>
    <path d="M 229.699959 395.385535 
L 221.704325 390.84712 
L 213.817448 385.444388 
L 205.984949 379.827835 
L 199.28634 374.370895 
L 193.290622 366.269809 
L 187.889037 356.169049 
L 185.82266 352.41665 
" clip-path="url(#pfd063f886d)" style="fill: none; stroke: #f29888; stroke-width: 0.2"/>
    <path d="M 291.443572 425.257161 
L 270.916746 424.392845 
L 229.631482 423.962192 
L 189.373365 423.579725 
" clip-path="url(#pfd063f886d)" style="fill: none; stroke: #f29888; stroke-width: 0.2"/>
    <path d="M 270.916746 424.392845 
L 271.212806 421.15241 
L 272.616573 415.644274 
L 276.183391 406.784275 
L 278.700908 400.65877 
L 279.423939 398.89701 
L 284.71878 390.904339 
L 286.77106 386.908004 
L 285.365279 381.935925 
" clip-path="url(#pfd063f886d)" style="fill: none; stroke: #f29888; stroke-width: 0.2"/>
    <path d="M 278.700908 400.65877 
L 285.907048 398.89701 
L 291.632889 398.249525 
L 296.818974 397.168376 
L 305.245606 394.036358 
L 309.027924 392.849805 
L 310.540448 387.555489 
L 311.40446 381.396856 
L 309.891936 375.780304 
L 307.297886 368.648939 
L 305.678619 365.191672 
L 303.948582 361.625989 
" clip-path="url(#pfd063f886d)" style="fill: none; stroke: #f29888; stroke-width: 0.2"/>
    <path d="M 278.700908 400.65877 
L 268.079001 378.587074 
L 267.432502 376.319372 
L 265.053952 370.485988 
L 264.94721 366.489653 
L 266.566476 359.683536 
" clip-path="url(#pfd063f886d)" style="fill: none; stroke: #f29888; stroke-width: 0.2"/>
    <path d="M 230.27798 165.435146 
L 283.73997 266.993857 
" clip-path="url(#pfd063f886d)" style="fill: none; stroke: #f29888; stroke-width: 0.2"/>
    <path d="M 276.793637 143.450785 
L 313.928019 214.427143 
L 330.132772 247.867464 
" clip-path="url(#pfd063f886d)" style="fill: none; stroke: #f29888; stroke-width: 0.2"/>
    <path d="M 185.540698 224.392383 
L 187.397618 217.953675 
L 188.575816 215.411922 
L 189.764084 208.931053 
L 189.776168 202.076751 
L 189.776168 195.595882 
L 191.276608 189.054782 
L 191.896924 185.465007 
L 195.058926 182.034844 
L 199.066813 179.60753 
L 203.819885 177.773492 
L 210.292924 174.903479 
L 216.991533 171.449224 
L 222.4193 168.663534 
L 230.27798 165.435146 
L 244.766794 158.761537 
L 249.088867 156.385419 
L 253.41094 154.009302 
L 258.597025 152.172252 
L 268.320682 147.094768 
L 274.155279 144.396414 
L 276.793637 143.450785 
L 281.393644 141.803464 
L 289.377194 137.96373 
L 297.382898 134.566694 
L 300.526773 133.28076 
L 304.51452 131.648496 
L 313.913921 128.624894 
L 317.144398 127.161278 
L 320.06069 125.866308 
L 323.734251 123.164942 
L 326.878126 119.120422 
" clip-path="url(#pfd063f886d)" style="fill: none; stroke: #f29888; stroke-width: 0.2"/>
    <path d="M 256.109718 61.849657 
L 258.250615 68.981022 
L 257.090543 75.937717 
L 257.179159 88.510965 
L 255.128894 124.002155 
L 253.41094 154.009302 
L 254.949646 158.869953 
L 307.203228 256.56785 
" clip-path="url(#pfd063f886d)" style="fill: none; stroke: #f29888; stroke-width: 0.2"/>
    <path d="M 255.128894 124.002155 
L 313.666197 95.648353 
" clip-path="url(#pfd063f886d)" style="fill: none; stroke: #f29888; stroke-width: 0.2"/>
    <path d="M 302.677739 294.004505 
L 300.732202 296.489039 
L 297.707154 297.784008 
L 289.820277 302.214008 
L 284.094436 305.346026 
L 277.935583 308.911709 
L 268.076987 313.46217 
L 261.297817 317.012795 
L 248.873367 322.307111 
L 242.499015 325.547546 
L 238.217222 327.514092 
L 221.863432 335.485681 
L 213.436799 338.6177 
L 206.196421 342.400214 
L 189.127656 350.718133 
L 185.82266 352.41665 
L 177.998217 356.443101 
L 168.816329 361.195337 
L 160.605196 364.977852 
L 145.802196 371.567137 
L 142.44685 373.166273 
L 125.166614 381.399868 
L 114.254688 386.582756 
L 102.587508 392.524557 
L 97.401423 394.79527 
L 92.106581 397.279804 
" clip-path="url(#pfd063f886d)" style="fill: none; stroke: #f29888; stroke-width: 0.2"/>
    <path d="M 109.068604 351.257201 
L 114.472202 348.555835 
L 122.574578 344.451084 
L 146.331882 333.588401 
L 169.237258 321.921632 
L 192.583703 310.531926 
L 222.77578 296.489039 
L 244.120296 286.11724 
L 252.669783 282.105847 
L 270.372962 273.802986 
L 283.73997 266.993857 
L 301.056458 259.543267 
L 303.74718 257.862819 
L 307.203228 256.56785 
" clip-path="url(#pfd063f886d)" style="fill: none; stroke: #f29888; stroke-width: 0.2"/>
    <path d="M 245.189737 342.448399 
L 241.85453 334.618353 
L 238.217222 327.514092 
L 232.451101 316.473727 
L 222.77578 296.489039 
L 219.486896 289.357674 
L 209.859911 270.827568 
L 198.770753 250.27972 
L 186.966619 227.352742 
L 185.540698 224.392383 
" clip-path="url(#pfd063f886d)" style="fill: none; stroke: #f29888; stroke-width: 0.2"/>
    <path d="M 198.770753 250.27972 
L 165.32403 265.704911 
L 145.345015 268.201491 
" clip-path="url(#pfd063f886d)" style="fill: none; stroke: #f29888; stroke-width: 0.2"/>
    <path d="M 152.43814 242.156514 
L 153.582331 243.771747 
L 156.174366 248.418578 
L 158.011147 251.333765 
L 161.360451 257.814634 
L 165.32403 265.704911 
" clip-path="url(#pfd063f886d)" style="fill: none; stroke: #f29888; stroke-width: 0.2"/>
    <path d="M 199.066813 179.60753 
L 243.29455 265.129704 
L 252.669783 282.105847 
L 268.076987 313.46217 
" clip-path="url(#pfd063f886d)" style="fill: none; stroke: #f29888; stroke-width: 0.2"/>
    <path d="M 185.540698 224.392383 
L 180.052511 217.848271 
L 176.809949 216.55029 
L 172.056877 218.926408 
L 169.140585 221.953022 
L 164.494256 225.624109 
L 161.684707 227.891811 
L 158.226646 231.457494 
L 155.525854 234.050444 
L 155.338044 234.261668 
" clip-path="url(#pfd063f886d)" style="fill: none; stroke: #f29888; stroke-width: 0.2"/>
    <path d="M 187.176077 96.88008 
L 188.156901 114.982544 
L 188.336148 153.864747 
L 191.896924 185.465007 
" clip-path="url(#pfd063f886d)" style="fill: none; stroke: #f29888; stroke-width: 0.2"/>
    <path d="M 221.418335 69.535149 
L 222.4193 168.663534 
" clip-path="url(#pfd063f886d)" style="fill: none; stroke: #f29888; stroke-width: 0.2"/>
    <path d="M 384.388283 313.688037 
L 436.214893 277.853529 
L 449.291883 273.739743 
L 462.413181 269.517542 
L 466.505657 267.180574 
L 481.248236 258.218182 
L 497.160957 244.386105 
L 508.592498 233.023503 
L 516.126922 228.41281 
L 526.259424 224.515856 
L 527.145582 226.59464 
" clip-path="url(#pfd063f886d)" style="fill: none; stroke: #f29888; stroke-width: 0.2"/>
    <path d="M 441.14117 261.723634 
L 449.291883 273.739743 
" clip-path="url(#pfd063f886d)" style="fill: none; stroke: #f29888; stroke-width: 0.2"/>
    <path d="M 379.812444 228.560377 
L 386.6903 234.414842 
L 394.988036 243.747655 
L 400.95153 249.538877 
L 417.804795 254.550107 
L 438.72234 261.202635 
L 441.14117 261.723634 
L 440.623569 254.032119 
L 440.017351 245.217294 
L 437.425315 234.068513 
L 434.345888 223.461812 
" clip-path="url(#pfd063f886d)" style="fill: none; stroke: #f29888; stroke-width: 0.2"/>
    <path d="M 423.284926 195.098975 
L 421.305151 196.13495 
L 415.903566 200.348118 
L 407.907933 205.639422 
L 400.021056 212.123303 
L 393.862202 217.197775 
L 387.596606 222.275259 
L 380.78924 227.891811 
L 379.812444 228.560377 
L 368.040535 236.643393 
L 357.561622 245.825629 
L 355.334123 246.581529 
L 352.160038 247.659666 
L 347.298209 250.361032 
L 343.840148 252.73715 
L 340.5996 253.062398 
L 337.359052 251.981249 
L 335.844514 250.68628 
L 332.819466 249.93038 
L 330.132772 247.867464 
L 321.152285 252.52333 
L 311.644128 255.977585 
L 307.203228 256.56785 
" clip-path="url(#pfd063f886d)" style="fill: none; stroke: #f29888; stroke-width: 0.2"/>
    <path d="M 355.334123 246.581529 
L 353.297956 240.958954 
L 352.325187 232.373007 
L 329.798446 188.461505 
L 300.526773 133.28076 
" clip-path="url(#pfd063f886d)" style="fill: none; stroke: #f29888; stroke-width: 0.2"/>
    <path d="M 399.6968 151.847004 
L 402.615105 155.521103 
L 404.343129 158.653121 
L 407.368177 163.296941 
L 409.635956 168.482841 
L 414.606542 176.367095 
L 417.416091 182.634144 
L 419.359614 186.522063 
L 421.089651 190.73523 
L 423.284926 195.098975 
L 427.210239 202.146017 
L 430.331959 208.744336 
L 434.345888 223.461812 
" clip-path="url(#pfd063f886d)" style="fill: none; stroke: #f29888; stroke-width: 0.2"/>
    <path d="M 399.6968 151.847004 
L 406.83245 145.74258 
L 426.511376 131.112439 
L 437.989239 116.23234 
L 459.83323 111.184972 
L 470.090601 106.279147 
L 478.118459 107.796971 
L 484.718381 114.127262 
L 495.211315 128.511638 
" clip-path="url(#pfd063f886d)" style="fill: none; stroke: #f29888; stroke-width: 0.2"/>
    <path d="M 531.21541 191.534559 
L 527.622912 199.914453 
L 527.443664 206.15741 
" clip-path="url(#pfd063f886d)" style="fill: none; stroke: #f29888; stroke-width: 0.2"/>
    <path d="M 326.878126 119.120422 
L 329.578918 116.958125 
L 338.005551 113.717691 
L 341.354855 112.531137 
L 345.352672 110.802504 
L 349.447162 110.633857 
L 354.321074 112.96179 
L 358.210135 114.259771 
L 361.764868 116.145005 
L 365.663999 118.578342 
L 368.906561 122.035609 
L 372.038352 125.709707 
L 376.251668 129.706043 
L 380.682498 134.780515 
L 385.111313 138.885266 
L 387.596606 141.478216 
L 393.646703 146.122036 
L 399.6968 151.847004 
" clip-path="url(#pfd063f886d)" style="fill: none; stroke: #f29888; stroke-width: 0.2"/>
    <path d="M 326.878126 119.120422 
L 319.810952 108.423375 
L 313.666197 95.648353 
" clip-path="url(#pfd063f886d)" style="fill: none; stroke: #f29888; stroke-width: 0.2"/>
   </g>
   <g id="LineCollection_2">
    <path d="M 90.862588 797.951133 
L 100.615789 793.31752 
L 167.01899 762.155768 
" clip-path="url(#pfd063f886d)" style="fill: none; stroke-dasharray: 3.7,1.6; stroke-dashoffset: 0; stroke: #f29888"/>
    <path d="M 331.459724 644.765033 
L 333.347137 641.146594 
L 340.525697 627.868777 
" clip-path="url(#pfd063f886d)" style="fill: none; stroke-dasharray: 3.7,1.6; stroke-dashoffset: 0; stroke: #f29888"/>
    <path d="M 386.411472 541.978501 
L 440.250976 439.095262 
L 464.566162 392.916059 
L 471.045243 382.39067 
L 476.24744 376.135667 
L 481.262334 370.669693 
L 487.964971 365.236845 
L 491.077442 363.144034 
" clip-path="url(#pfd063f886d)" style="fill: none; stroke-dasharray: 3.7,1.6; stroke-dashoffset: 0; stroke: #f29888"/>
    <path d="M 359.994551 379.728454 
L 450.598978 357.933821 
L 464.199611 355.283652 
L 477.584745 353.027996 
L 483.00647 352.359431 
L 486.835971 352.08359 
" clip-path="url(#pfd063f886d)" style="fill: none; stroke-dasharray: 3.7,1.6; stroke-dashoffset: 0; stroke: #f29888"/>
   </g>
  </g>
 </g>
 <defs>
  <clipPath id="pfd063f886d">
   <rect x="7.2" y="7.2" width="562.179253" height="831.6"/>
  </clipPath>
 </defs>
</svg>
