<?xml version="1.0" encoding="utf-8" standalone="no"?>
<!DOCTYPE svg PUBLIC "-//W3C//DTD SVG 1.1//EN"
  "http://www.w3.org/Graphics/SVG/1.1/DTD/svg11.dtd">
<svg xmlns:xlink="http://www.w3.org/1999/xlink" width="316.014495pt" height="846pt" viewBox="0 0 316.014495 846" xmlns="http://www.w3.org/2000/svg" version="1.1">
 <metadata>
  <rdf:RDF xmlns:dc="http://purl.org/dc/elements/1.1/" xmlns:cc="http://creativecommons.org/ns#" xmlns:rdf="http://www.w3.org/1999/02/22-rdf-syntax-ns#">
   <cc:Work>
    <dc:type rdf:resource="http://purl.org/dc/dcmitype/StillImage"/>
    <dc:date>2025-03-16T14:38:39.321051</dc:date>
    <dc:format>image/svg+xml</dc:format>
    <dc:creator>
     <cc:Agent>
      <dc:title>Matplotlib v3.10.1, https://matplotlib.org/</dc:title>
     </cc:Agent>
    </dc:creator>
   </cc:Work>
  </rdf:RDF>
 </metadata>
 <defs>
  <style type="text/css">*{stroke-linejoin: round; stroke-linecap: butt}</style>
 </defs>
 <g id="figure_1">
  <g id="patch_1">
   <path d="M 0 846 
L 316.014495 846 
L 316.014495 0 
L 0 0 
z
" style="fill: #ffffff"/>
  </g>
  <g id="axes_1">
   <g id="PatchCollection_1">
    <path d="M 104.354997 56.4485 
L 107.772218 94.062807 
L 137.548187 92.236572 
L 151.887918 101.18359 
L 152.982723 111.138362 
L 152.892482 118.259145 
L 151.157481 128.853356 
L 145.402519 143.826438 
L 131.427155 146.568349 
L 125.948023 149.944582 
L 107.406148 139.537087 
L 102.473567 148.118347 
L 73.337794 133.326865 
L 63.838702 152.502334 
L 58.357867 167.296374 
L 56.440681 184.919289 
L 53.335045 215.512565 
L 43.926193 241.719297 
L 35.889678 297.611303 
L 25.568204 322.268036 
L 29.130151 339.164549 
L 30.77321 344.277496 
L 55.800484 361.447688 
L 67.490889 365.465917 
L 99.642057 377.886363 
L 92.518163 407.661159 
L 91.605542 424.46815 
L 91.605542 475.889205 
L 92.152093 515.805489 
L 90.326851 532.794081 
L 83.659268 536.996468 
L 55.25223 547.774837 
L 35.889678 560.47152 
L 32.053604 567.779018 
L 30.408842 593.627664 
L 27.211263 617.836791 
L 23.284949 626.696845 
L 20.90975 630.349316 
L 31.321464 645.879989 
L 31.321464 656.658357 
L 50.685719 672.18903 
L 62.742194 683.333157 
L 80.095618 697.766554 
L 85.48451 704.071414 
L 76.807798 711.744671 
L 93.704911 732.02509 
L 109.59746 750.660875 
L 133.62017 760.436604 
L 148.325971 775.238318 
L 164.766774 785.287727 
L 202.305131 801 
L 208.516404 780.901181 
L 216.370735 781.082782 
L 226.302301 783.407779 
L 230.071972 771.217531 
L 243.955392 758.24461 
L 249.800594 757.147335 
L 266.789651 764.82315 
L 274.279615 734.490764 
L 281.039141 716.768097 
L 285.421766 701.421583 
L 295.104745 672.736389 
L 267.155721 666.160408 
L 240.667572 652.640128 
L 227.148519 636.743697 
L 201.02644 629.986115 
L 194.999054 630.167715 
L 186.230399 640.398725 
L 170.33785 632.543867 
L 159.376179 617.013195 
L 139.465373 609.158337 
L 134.350608 604.408591 
L 130.514534 592.714547 
L 129.418026 583.762413 
L 118.275875 575.907556 
L 153.714863 557.45593 
L 172.346978 560.013682 
L 183.124762 565.310787 
L 204.132076 575.725955 
L 216.918989 581.02306 
L 225.13939 570.792051 
L 226.784152 565.494945 
L 217.559186 549.327392 
L 217.102875 532.246722 
L 214.81962 519.000122 
L 227.150222 515.255572 
L 246.878845 511.603102 
L 263.958142 509.684787 
L 268.79878 505.75608 
L 275.74049 496.988104 
L 278.115689 471.960497 
L 273.913545 455.337664 
L 266.423581 445.838171 
L 253.636668 435.243961 
L 209.795095 443.464577 
L 199.747749 438.714831 
L 195.181237 377.886363 
L 198.469057 344.461654 
L 190.614726 292.587877 
L 181.846071 292.222118 
L 180.019126 278.706955 
L 175.634798 235.235394 
L 166.317889 177.522269 
L 160.108319 127.4824 
L 157.092924 117.530186 
L 154.719427 100.636231 
L 154.627484 79.360846 
L 149.739172 45 
L 146.868501 45.667573 
L 104.354997 56.4485 
" clip-path="url(#paa84082835)" style="fill: #f29888"/>
   </g>
   <g id="PatchCollection_2">
    <path d="M 184.119111 475.040031 
L 196.793648 472.559011 
L 197.690946 477.147619 
L 185.018111 479.628639 
L 184.119111 475.040031 
" clip-path="url(#paa84082835)" style="fill: #f29888"/>
    <path d="M 191.316219 465.041777 
L 192.869037 462.302424 
L 198.623999 465.497057 
L 197.253364 468.420568 
L 191.316219 465.041777 
" clip-path="url(#paa84082835)" style="fill: #f29888"/>
   </g>
   <g id="LineCollection_1">
    <path d="M 233.516436 745.831838 
L 230.836462 746.189923 
L 223.86751 750.389753 
L 216.90026 753.24932 
L 214.130046 756.198409 
L 214.845159 761.646421 
L 221.187536 766.651943 
L 225.066176 772.598717 
" clip-path="url(#paa84082835)" style="fill: none; stroke: #f29888; stroke-width: 0.2"/>
    <path d="M 294.066128 675.312046 
L 294.226227 675.338943 
" clip-path="url(#paa84082835)" style="fill: none; stroke: #f29888; stroke-width: 0.2"/>
    <path d="M 272.107032 730.820389 
L 272.532694 725.952986 
L 269.764183 722.645812 
L 266.636412 720.502416 
" clip-path="url(#paa84082835)" style="fill: none; stroke: #f29888; stroke-width: 0.2"/>
    <path d="M 233.516436 745.831838 
L 234.320087 735.378304 
L 232.801322 712.593845 
L 231.371095 709.286671 
L 230.388665 699.280744 
L 227.957279 690.446267 
" clip-path="url(#paa84082835)" style="fill: none; stroke: #f29888; stroke-width: 0.2"/>
    <path d="M 294.066128 675.312046 
L 290.241973 678.552718 
L 285.954696 685.520036 
L 284.972266 692.758475 
L 282.023274 701.158134 
L 277.269471 704.025375 
L 278.629889 711.611668 
L 278.97752 722.173422 
" clip-path="url(#paa84082835)" style="fill: none; stroke: #f29888; stroke-width: 0.2"/>
    <path d="M 278.800807 722.636741 
L 275.502119 726.444075 
L 272.107032 730.820389 
L 268.623407 746.279445 
L 266.925863 755.213674 
L 264.872465 757.98372 
L 260.852505 759.144939 
L 256.832545 757.715156 
L 251.739915 753.515326 
L 244.415108 747.530186 
L 238.249807 745.831838 
L 233.516436 745.831838 
" clip-path="url(#paa84082835)" style="fill: none; stroke: #f29888; stroke-width: 0.2"/>
    <path d="M 232.801322 712.593845 
L 244.481511 714.872803 
L 262.258895 719.430717 
L 266.636412 720.502416 
" clip-path="url(#paa84082835)" style="fill: none; stroke: #f29888; stroke-width: 0.2"/>
    <path d="M 278.629889 711.611668 
L 276.285338 716.481629 
L 269.852721 721.129065 
L 266.636412 720.502416 
" clip-path="url(#paa84082835)" style="fill: none; stroke: #f29888; stroke-width: 0.2"/>
    <path d="M 159.04246 702.564898 
L 174.585965 706.854249 
L 192.45359 713.107953 
L 199.42084 714.000609 
L 231.371095 709.286671 
" clip-path="url(#paa84082835)" style="fill: none; stroke: #f29888; stroke-width: 0.2"/>
    <path d="M 173.642696 677.222687 
L 227.957279 690.446267 
L 267.620545 700.631237 
L 277.269471 704.025375 
" clip-path="url(#paa84082835)" style="fill: none; stroke: #f29888; stroke-width: 0.2"/>
    <path d="M 225.066176 772.598717 
L 178.301151 755.239251 
L 167.962651 754.581909 
L 160.033403 749.210629 
L 145.419545 737.700743 
L 117.288337 715.044172 
L 77.114275 681.749909 
L 68.221327 674.378466 
L 35.019623 647.125614 
" clip-path="url(#paa84082835)" style="fill: none; stroke: #f29888; stroke-width: 0.2"/>
    <path d="M 21.661964 631.471359 
L 24.13968 629.863343 
L 26.416125 626.748 
L 28.64149 622.507247 
L 31.617725 614.529617 
L 32.326028 606.012302 
L 34.348778 570.400715 
L 35.276723 567.080752 
L 36.635439 565.139418 
L 40.006689 562.305428 
L 90.803593 538.809914 
L 92.438139 537.863546 
L 93.503999 536.247046 
L 94.566453 519.961837 
L 94.018199 418.444643 
L 94.294029 411.671715 
L 95.080654 407.006374 
L 105.170567 365.442897 
L 114.601553 321.040315 
L 123.070542 284.623036 
L 129.884553 259.326865 
" clip-path="url(#paa84082835)" style="fill: none; stroke: #f29888; stroke-width: 0.2"/>
    <path d="M 99.121046 655.944744 
L 91.081126 665.771629 
L 77.114275 681.749909 
" clip-path="url(#paa84082835)" style="fill: none; stroke: #f29888; stroke-width: 0.2"/>
    <path d="M 58.855041 628.277536 
L 73.215203 635.751289 
L 99.121046 655.944744 
L 118.238417 666.308757 
L 130.746095 665.950672 
L 148.433238 671.669806 
L 156.115602 673.63416 
L 173.642696 677.222687 
" clip-path="url(#paa84082835)" style="fill: none; stroke: #f29888; stroke-width: 0.2"/>
    <path d="M 31.321464 648.695045 
L 35.019623 647.125614 
L 47.518787 633.932727 
L 53.770923 629.262271 
L 55.604679 628.625391 
L 58.855041 628.277536 
L 62.405069 626.937274 
L 72.28215 619.530023 
L 75.248169 617.089927 
L 76.715855 615.273923 
L 85.416404 597.448946 
L 102.000229 569.293208 
" clip-path="url(#paa84082835)" style="fill: none; stroke: #f29888; stroke-width: 0.2"/>
    <path d="M 32.326028 606.012302 
L 35.927136 603.751248 
L 42.778605 600.827737 
L 48.351384 598.727823 
L 53.740276 599.275182 
L 57.57635 598.635744 
L 64.519762 595.346474 
L 69.998895 598.269985 
" clip-path="url(#paa84082835)" style="fill: none; stroke: #f29888; stroke-width: 0.2"/>
    <path d="M 112.680962 559.090333 
L 109.081557 556.916244 
" clip-path="url(#paa84082835)" style="fill: none; stroke: #f29888; stroke-width: 0.2"/>
    <path d="M 102.000229 569.293208 
L 109.081557 556.916244 
L 111.955633 545.457513 
L 111.829637 541.943161 
L 110.254684 539.09894 
L 105.322103 534.899111 
L 103.524103 534.451504 
L 98.749868 535.495067 
L 93.503999 536.247046 
" clip-path="url(#paa84082835)" style="fill: none; stroke: #f29888; stroke-width: 0.2"/>
    <path d="M 168.802058 634.46474 
L 163.96142 642.869514 
L 160.225802 649.867525 
L 155.400488 658.980797 
L 151.113212 666.129715 
L 151.828325 669.702895 
L 156.115602 673.63416 
L 157.367051 685.248914 
L 156.651937 699.009622 
L 159.04246 702.564898 
" clip-path="url(#paa84082835)" style="fill: none; stroke: #f29888; stroke-width: 0.2"/>
    <path d="M 194.833897 652.461086 
L 241.893481 664.533677 
L 269.050772 669.360156 
L 294.066128 675.312046 
" clip-path="url(#paa84082835)" style="fill: none; stroke: #f29888; stroke-width: 0.2"/>
    <path d="M 102.000229 569.293208 
L 109.95672 576.150542 
L 113.477803 577.866794 
L 120.022795 580.557549 
L 124.485445 582.680484 
L 126.966208 584.568105 
L 128.176793 587.161666 
L 128.522432 592.080224 
L 128.614375 598.656206 
L 130.987871 604.776907 
L 135.007831 609.342495 
L 144.501816 612.879867 
L 158.438018 618.240916 
L 162.864912 624.141651 
L 168.802058 634.46474 
L 174.875416 637.00203 
L 185.060677 643.971905 
L 191.27195 647.435102 
L 194.833897 652.461086 
" clip-path="url(#paa84082835)" style="fill: none; stroke: #f29888; stroke-width: 0.2"/>
    <path d="M 175.999166 558.732248 
L 212.553391 549.427145 
L 214.671489 547.391174 
L 215.684567 541.564614 
L 215.648811 535.46949 
L 215.890587 529.356461 
L 210.602152 509.725712 
L 193.430912 518.462994 
L 154.52192 538.249767 
L 117.4569 557.358735 
L 112.680962 559.090333 
L 102.000229 569.293208 
" clip-path="url(#paa84082835)" style="fill: none; stroke: #f29888; stroke-width: 0.2"/>
    <path d="M 211.077192 506.884049 
L 214.416091 510.303764 
L 217.754991 512.053266 
L 221.969053 512.928018 
L 226.104794 512.452276 
L 231.113994 511.416386 
L 235.726477 511.019934 
L 245.108087 509.587593 
L 247.653551 509.666883 
L 250.912426 510.782063 
L 251.943996 511.034194 
" clip-path="url(#paa84082835)" style="fill: none; stroke: #f29888; stroke-width: 0.2"/>
    <path d="M 180.226849 455.810848 
L 179.913562 459.460761 
L 178.072995 472.986156 
L 177.695007 477.787057 
L 178.323285 480.751492 
L 180.669539 483.779871 
L 183.032819 485.841419 
L 196.824296 490.864845 
L 200.406675 493.161707 
L 206.027127 497.397345 
L 209.985792 502.471926 
L 211.077192 506.884049 
L 210.602152 509.725712 
" clip-path="url(#paa84082835)" style="fill: none; stroke: #f29888; stroke-width: 0.2"/>
    <path d="M 198.211957 445.255004 
L 197.554734 451.859121 
L 199.381679 464.282124 
" clip-path="url(#paa84082835)" style="fill: none; stroke: #f29888; stroke-width: 0.2"/>
    <path d="M 187.737245 358.859242 
L 182.086145 316.085949 
L 177.534957 281.303073 
L 176.225618 261.337258 
L 159.742249 134.52645 
L 158.518043 125.973326 
" clip-path="url(#paa84082835)" style="fill: none; stroke: #f29888; stroke-width: 0.2"/>
    <path d="M 158.518043 125.973326 
L 158.99012 123.791819 
" clip-path="url(#paa84082835)" style="fill: none; stroke: #f29888; stroke-width: 0.2"/>
    <path d="M 94.566453 519.961837 
L 99.948534 515.892453 
L 134.299528 479.360075 
L 138.360352 476.257521 
L 146.240223 471.909342 
L 180.226849 455.810848 
L 190.531296 451.703098 
L 194.486556 450.516301 
L 198.211957 445.255004 
L 187.737245 358.859242 
" clip-path="url(#paa84082835)" style="fill: none; stroke: #f29888; stroke-width: 0.2"/>
    <path d="M 28.5836 322.887012 
L 28.838998 325.759368 
L 82.092828 355.534164 
L 93.595942 363.028379 
L 99.960453 365.361049 
L 105.170567 365.442897 
L 113.843873 367.281921 
L 120.285004 367.706508 
L 131.657013 366.632252 
L 187.737245 358.859242 
" clip-path="url(#paa84082835)" style="fill: none; stroke: #f29888; stroke-width: 0.2"/>
    <path d="M 131.657013 366.632252 
L 126.925345 323.610856 
" clip-path="url(#paa84082835)" style="fill: none; stroke: #f29888; stroke-width: 0.2"/>
    <path d="M 38.653081 304.995534 
L 42.410833 306.972677 
L 60.53726 317.8022 
L 80.318665 329.833868 
L 88.891516 335.174455 
L 90.856376 335.023548 
L 94.375756 330.23032 
L 98.690275 326.378344 
L 105.543447 323.500873 
L 111.230303 322.314076 
L 114.601553 321.040315 
" clip-path="url(#paa84082835)" style="fill: none; stroke: #f29888; stroke-width: 0.2"/>
    <path d="M 51.850333 287.075921 
L 78.367427 303.125817 
L 100.178392 315.715074 
L 114.601553 321.040315 
L 122.532504 322.861435 
L 126.925345 323.610856 
L 182.086145 316.085949 
" clip-path="url(#paa84082835)" style="fill: none; stroke: #f29888; stroke-width: 0.2"/>
    <path d="M 72.745272 257.735943 
L 93.805368 270.690959 
L 110.508379 280.530632 
L 114.616877 282.121554 
L 123.070542 284.623036 
L 131.130894 286.809914 
L 134.611113 287.129633 
L 177.534957 281.303073 
" clip-path="url(#paa84082835)" style="fill: none; stroke: #f29888; stroke-width: 0.2"/>
    <path d="M 83.689915 240.018391 
L 99.710163 251.952864 
L 104.748309 253.986277 
L 129.884553 259.326865 
L 147.86285 262.966546 
L 154.482759 263.265803 
L 162.103827 262.485689 
L 176.225618 261.337258 
" clip-path="url(#paa84082835)" style="fill: none; stroke: #f29888; stroke-width: 0.2"/>
    <path d="M 158.518043 125.973326 
L 155.880636 130.129674 
L 142.072132 153.891194 
L 127.422519 175.941578 
L 124.253884 180.709228 
L 83.689915 240.018391 
L 72.745272 257.735943 
L 51.850333 287.075921 
L 50.1596 289.180951 
L 45.552225 294.125086 
L 38.653081 304.995534 
L 30.259009 319.27035 
L 28.5836 322.887012 
" clip-path="url(#paa84082835)" style="fill: none; stroke: #f29888; stroke-width: 0.2"/>
    <path d="M 127.422519 175.941578 
L 141.900164 186.929682 
L 142.266235 190.218952 
L 136.237146 222.543827 
" clip-path="url(#paa84082835)" style="fill: none; stroke: #f29888; stroke-width: 0.2"/>
    <path d="M 148.871384 45.201804 
L 149.531448 49.276562 
L 153.868102 78.793025 
L 153.995801 101.232187 
L 154.634295 108.381105 
L 158.518043 125.973326 
" clip-path="url(#paa84082835)" style="fill: none; stroke: #f29888; stroke-width: 0.2"/>
   </g>
  </g>
 </g>
 <defs>
  <clipPath id="paa84082835">
   <rect x="7.2" y="7.2" width="301.614495" height="831.6"/>
  </clipPath>
 </defs>
</svg>
