<?xml version="1.0" encoding="utf-8" standalone="no"?>
<!DOCTYPE svg PUBLIC "-//W3C//DTD SVG 1.1//EN"
  "http://www.w3.org/Graphics/SVG/1.1/DTD/svg11.dtd">
<svg xmlns:xlink="http://www.w3.org/1999/xlink" width="851.4pt" height="777.574561pt" viewBox="0 0 851.4 777.574561" xmlns="http://www.w3.org/2000/svg" version="1.1">
 <metadata>
  <rdf:RDF xmlns:dc="http://purl.org/dc/elements/1.1/" xmlns:cc="http://creativecommons.org/ns#" xmlns:rdf="http://www.w3.org/1999/02/22-rdf-syntax-ns#">
   <cc:Work>
    <dc:type rdf:resource="http://purl.org/dc/dcmitype/StillImage"/>
    <dc:date>2025-03-16T14:37:54.653457</dc:date>
    <dc:format>image/svg+xml</dc:format>
    <dc:creator>
     <cc:Agent>
      <dc:title>Matplotlib v3.10.1, https://matplotlib.org/</dc:title>
     </cc:Agent>
    </dc:creator>
   </cc:Work>
  </rdf:RDF>
 </metadata>
 <defs>
  <style type="text/css">*{stroke-linejoin: round; stroke-linecap: butt}</style>
 </defs>
 <g id="figure_1">
  <g id="patch_1">
   <path d="M 0 777.574561 
L 851.4 777.574561 
L 851.4 0 
L 0 0 
z
" style="fill: #ffffff"/>
  </g>
  <g id="axes_1">
   <g id="PatchCollection_1">
    <path d="M 115.987071 113.558092 
L 183.826841 124.833047 
L 229.913339 155.918286 
L 251.829 155.595977 
L 263.753471 179.757433 
L 283.896316 179.27397 
L 286.312919 194.576322 
L 295.820787 201.664191 
L 374.940282 191.999315 
L 395.244553 209.396677 
L 406.040957 221.960868 
L 407.813773 268.839249 
L 411.036551 285.753147 
L 416.675933 300.574966 
L 440.84773 357.607546 
L 448.421355 419.318002 
L 437.785418 422.379938 
L 438.753021 438.331304 
L 444.553829 457.990688 
L 456.155447 531.795057 
L 463.568605 539.208164 
L 474.042154 541.947791 
L 501.43673 551.455907 
L 521.579575 554.840152 
L 502.886692 569.667831 
L 504.176188 590.458228 
L 537.370612 590.941691 
L 550.746006 725.36799 
L 629.383141 735.684809 
L 634.055881 722.788053 
L 648.396956 724.884527 
L 645.980353 688.132509 
L 666.283663 679.427235 
L 678.208135 666.855719 
L 678.691456 655.410819 
L 685.621294 654.766201 
L 686.265081 634.618957 
L 731.868258 618.824351 
L 741.69802 621.402823 
L 759.262834 618.018578 
L 765.063642 613.504787 
L 762.324185 608.025534 
L 771.992519 607.058607 
L 806.154545 597.71018 
L 785.04506 554.840152 
L 769.253062 546.137808 
L 769.414489 519.063851 
L 685.621294 523.253868 
L 685.298439 477.488919 
L 698.8343 476.199683 
L 698.995727 428.985807 
L 742.342767 427.051953 
L 741.69802 394.343449 
L 733.641074 377.264001 
L 740.248058 371.786213 
L 728.485013 346.329661 
L 663.705633 344.074963 
L 662.900419 337.791402 
L 655.326794 337.307939 
L 637.600553 300.574966 
L 618.747204 309.113225 
L 614.879678 298.642577 
L 611.012152 300.736121 
L 607.9508 296.869878 
L 619.391952 290.264008 
L 617.458669 286.075456 
L 623.742798 279.954515 
L 616.169173 270.771638 
L 616.491067 259.495218 
L 613.751609 244.836018 
L 616.974387 240.969775 
L 622.924132 228.562343 
L 624.812253 218.286545 
L 611.656899 208.42975 
L 605.534197 207.785132 
L 563.798546 211.329066 
L 561.219555 205.691588 
L 555.418746 207.141979 
L 503.53144 119.034415 
L 531.892657 93.10319 
L 510.783171 65.241041 
L 479.037749 89.88303 
L 470.65891 75.869913 
L 448.421355 97.612586 
L 426.344267 98.740668 
L 427.472336 111.625703 
L 456.639728 108.726387 
L 450.032744 117.26318 
L 425.70048 130.952523 
L 417.804001 128.85898 
L 411.519872 121.933731 
L 396.049767 114.363864 
L 390.087532 117.26318 
L 367.528084 116.779717 
L 348.029987 120.644495 
L 348.996629 125.155356 
L 336.750263 129.342443 
L 321.924907 101.639984 
L 306.294336 112.913474 
L 298.398818 105.021298 
L 282.768247 103.572373 
L 264.88154 94.875889 
L 186.566299 57.189176 
L 144.992075 44.948758 
L 126.300153 41.889753 
L 123.882589 57.35033 
L 121.143131 55.095632 
L 108.573912 57.51002 
L 72.961924 57.832329 
L 66.194474 59.282719 
L 51.852438 51.874007 
L 45.728775 51.874007 
L 45.245455 67.495739 
L 53.463827 72.166289 
L 54.270002 84.245552 
L 116.792285 97.291742 
L 115.987071 113.558092 
" clip-path="url(#pea47d59ea9)" style="fill: #d1d4f2"/>
   </g>
   <g id="PatchCollection_2">
    <path d="M 628.083075 587.648279 
L 628.06674 588.735339 
L 627.280744 588.723619 
L 627.297079 587.636559 
L 628.083075 587.648279 
" clip-path="url(#pea47d59ea9)" style="fill: #4d59c1"/>
    <path d="M 631.891988 587.485659 
L 631.937149 588.58151 
L 630.836946 588.628391 
L 630.790824 587.531076 
L 631.891988 587.485659 
" clip-path="url(#pea47d59ea9)" style="fill: #4d59c1"/>
    <path d="M 624.741148 587.091563 
L 624.76517 588.728014 
L 623.88693 588.739735 
L 623.862908 587.104749 
L 624.741148 587.091563 
" clip-path="url(#pea47d59ea9)" style="fill: #4d59c1"/>
    <path d="M 639.032258 587.380177 
L 639.079341 588.351499 
L 637.972412 588.405705 
L 637.925329 587.434383 
L 639.032258 587.380177 
" clip-path="url(#pea47d59ea9)" style="fill: #4d59c1"/>
    <path d="M 635.288685 586.816136 
L 635.442425 588.625461 
L 634.525749 588.703109 
L 634.37297 586.893783 
L 635.288685 586.816136 
" clip-path="url(#pea47d59ea9)" style="fill: #4d59c1"/>
    <path d="M 642.639387 587.192651 
L 642.697039 588.254806 
L 641.86492 588.300222 
L 641.808229 587.238068 
L 642.639387 587.192651 
" clip-path="url(#pea47d59ea9)" style="fill: #4d59c1"/>
    <path d="M 645.985157 586.826391 
L 646.062027 587.832874 
L 645.213573 587.898801 
L 645.136703 586.890853 
L 645.985157 586.826391 
" clip-path="url(#pea47d59ea9)" style="fill: #4d59c1"/>
    <path d="M 649.496198 586.370763 
L 649.606699 587.428523 
L 648.539165 587.539866 
L 648.428665 586.482106 
L 649.496198 586.370763 
" clip-path="url(#pea47d59ea9)" style="fill: #4d59c1"/>
    <path d="M 652.979374 586.165658 
L 653.130231 587.295204 
L 651.979102 587.449033 
L 651.828244 586.319487 
L 652.979374 586.165658 
" clip-path="url(#pea47d59ea9)" style="fill: #4d59c1"/>
    <path d="M 656.198308 584.923303 
L 656.504828 586.824926 
L 655.54203 586.98022 
L 655.235511 585.078597 
L 656.198308 584.923303 
" clip-path="url(#pea47d59ea9)" style="fill: #4d59c1"/>
    <path d="M 600.256105 588.367614 
L 603.16852 588.289967 
L 603.206955 589.731567 
L 600.29454 589.807749 
L 600.256105 588.367614 
" clip-path="url(#pea47d59ea9)" style="fill: #4d59c1"/>
    <path d="M 621.470326 587.446103 
L 621.530862 588.58151 
L 620.422972 588.641577 
L 620.362436 587.50617 
L 621.470326 587.446103 
" clip-path="url(#pea47d59ea9)" style="fill: #4d59c1"/>
    <path d="M 613.986063 586.911363 
L 614.04852 588.120022 
L 613.095331 588.169834 
L 613.033835 586.95971 
L 613.986063 586.911363 
" clip-path="url(#pea47d59ea9)" style="fill: #4d59c1"/>
    <path d="M 615.768488 586.936269 
L 615.874184 588.045305 
L 614.858538 588.141998 
L 614.752842 587.032962 
L 615.768488 586.936269 
" clip-path="url(#pea47d59ea9)" style="fill: #4d59c1"/>
    <path d="M 593.292636 586.279931 
L 599.736271 586.151007 
L 599.77855 588.287037 
L 593.335876 588.41596 
L 593.292636 586.279931 
" clip-path="url(#pea47d59ea9)" style="fill: #4d59c1"/>
    <path d="M 607.061029 583.311758 
L 607.695207 586.323882 
L 609.687103 585.90488 
L 609.999388 587.390432 
L 606.342294 588.159578 
L 605.395831 583.663368 
L 607.061029 583.311758 
" clip-path="url(#pea47d59ea9)" style="fill: #4d59c1"/>
    <path d="M 601.31403 578.880009 
L 602.138461 584.422259 
L 600.758643 584.627365 
L 599.933251 579.085115 
L 601.31403 578.880009 
" clip-path="url(#pea47d59ea9)" style="fill: #4d59c1"/>
    <path d="M 575.529882 415.84732 
L 575.857541 416.787876 
L 574.695841 417.192228 
L 574.368183 416.250206 
L 575.529882 415.84732 
" clip-path="url(#pea47d59ea9)" style="fill: #4d59c1"/>
    <path d="M 600.367567 407.287086 
L 600.873948 408.249617 
L 600.064891 408.674479 
L 599.55947 407.711947 
L 600.367567 407.287086 
" clip-path="url(#pea47d59ea9)" style="fill: #4d59c1"/>
    <path d="M 591.034578 405.30342 
L 591.847479 406.706929 
L 588.797658 408.472304 
L 587.984757 407.067329 
L 591.034578 405.30342 
" clip-path="url(#pea47d59ea9)" style="fill: #4d59c1"/>
    <path d="M 659.940921 585.200196 
L 660.180179 586.205214 
L 659.051149 586.474781 
L 658.811891 585.469763 
L 659.940921 585.200196 
" clip-path="url(#pea47d59ea9)" style="fill: #4d59c1"/>
    <path d="M 663.123342 584.810495 
L 663.265552 585.768631 
L 662.421902 585.894625 
L 662.279693 584.936488 
L 663.123342 584.810495 
" clip-path="url(#pea47d59ea9)" style="fill: #4d59c1"/>
    <path d="M 667.174395 584.376843 
L 667.422301 585.518109 
L 666.272133 585.768631 
L 666.023266 584.627365 
L 667.174395 584.376843 
" clip-path="url(#pea47d59ea9)" style="fill: #4d59c1"/>
    <path d="M 632.670298 382.461966 
L 633.908867 385.195733 
L 632.589584 385.793469 
L 631.350054 383.059703 
L 632.670298 382.461966 
" clip-path="url(#pea47d59ea9)" style="fill: #4d59c1"/>
    <path d="M 626.341968 374.792477 
L 628.686505 379.080652 
L 627.312453 379.830753 
L 624.968876 375.542578 
L 626.341968 374.792477 
" clip-path="url(#pea47d59ea9)" style="fill: #4d59c1"/>
    <path d="M 661.79349 375.696407 
L 661.69548 377.261071 
L 660.914288 377.212725 
L 661.013258 375.646596 
L 661.79349 375.696407 
" clip-path="url(#pea47d59ea9)" style="fill: #4d59c1"/>
    <path d="M 677.827628 375.495697 
L 677.810332 376.787863 
L 677.024336 376.777607 
L 677.040671 375.485441 
L 677.827628 375.495697 
" clip-path="url(#pea47d59ea9)" style="fill: #4d59c1"/>
    <path d="M 665.078725 374.779292 
L 665.015307 377.461782 
L 664.200484 377.442736 
L 664.263902 374.760246 
L 665.078725 374.779292 
" clip-path="url(#pea47d59ea9)" style="fill: #4d59c1"/>
    <path d="M 637.089366 375.303776 
L 637.098975 376.836209 
L 635.842149 376.844999 
L 635.83158 375.312566 
L 637.089366 375.303776 
" clip-path="url(#pea47d59ea9)" style="fill: #4d59c1"/>
    <path d="M 683.704346 375.147017 
L 683.583276 376.965133 
L 682.769414 376.910926 
L 682.890484 375.091345 
L 683.704346 375.147017 
" clip-path="url(#pea47d59ea9)" style="fill: #4d59c1"/>
    <path d="M 605.157534 405.047038 
L 605.853208 406.327484 
L 603.463509 407.626975 
L 603.132007 407.017518 
L 604.494529 406.277672 
L 604.129396 405.605218 
L 605.157534 405.047038 
" clip-path="url(#pea47d59ea9)" style="fill: #4d59c1"/>
    <path d="M 577.427612 406.516474 
L 575.836401 407.338362 
L 574.061663 403.902841 
L 575.652874 403.080953 
L 577.427612 406.516474 
" clip-path="url(#pea47d59ea9)" style="fill: #4d59c1"/>
    <path d="M 600.326249 401.504569 
L 601.083419 402.771829 
L 599.290425 403.842774 
L 598.534215 402.575514 
L 600.326249 401.504569 
" clip-path="url(#pea47d59ea9)" style="fill: #4d59c1"/>
    <path d="M 609.083673 400.208008 
L 609.752443 401.847388 
L 609.016412 402.147722 
L 608.347642 400.508341 
L 609.083673 400.208008 
" clip-path="url(#pea47d59ea9)" style="fill: #4d59c1"/>
    <path d="M 611.29561 399.928185 
L 612.197873 401.695024 
L 611.093826 402.2576 
L 610.192524 400.49076 
L 611.29561 399.928185 
" clip-path="url(#pea47d59ea9)" style="fill: #4d59c1"/>
    <path d="M 596.359753 393.859985 
L 596.915139 394.791751 
L 596.047468 395.307446 
L 595.492082 394.377145 
L 596.359753 393.859985 
" clip-path="url(#pea47d59ea9)" style="fill: #4d59c1"/>
    <path d="M 594.395722 392.194233 
L 594.838686 392.950195 
L 593.864358 393.521561 
L 593.421394 392.765599 
L 594.395722 392.194233 
" clip-path="url(#pea47d59ea9)" style="fill: #4d59c1"/>
    <path d="M 614.631772 391.326929 
L 615.412964 392.635211 
L 613.805418 393.594813 
L 613.024226 392.286531 
L 614.631772 391.326929 
" clip-path="url(#pea47d59ea9)" style="fill: #4d59c1"/>
    <path d="M 585.645024 385.869652 
L 586.158132 386.786767 
L 585.242417 387.299532 
L 584.728348 386.382416 
L 585.645024 385.869652 
" clip-path="url(#pea47d59ea9)" style="fill: #4d59c1"/>
    <path d="M 587.671512 379.073327 
L 588.133693 379.940631 
L 587.226626 380.424094 
L 586.764445 379.555325 
L 587.671512 379.073327 
" clip-path="url(#pea47d59ea9)" style="fill: #4d59c1"/>
    <path d="M 718.517846 408.004956 
L 718.568772 408.854679 
L 717.821211 408.87226 
L 717.803915 408.089928 
L 718.517846 408.004956 
" clip-path="url(#pea47d59ea9)" style="fill: #4d59c1"/>
    <path d="M 715.314285 407.654811 
L 715.368094 408.819518 
L 714.484088 408.859074 
L 714.430279 407.694367 
L 715.314285 407.654811 
" clip-path="url(#pea47d59ea9)" style="fill: #4d59c1"/>
    <path d="M 710.572362 407.604999 
L 710.628093 408.51479 
L 709.889179 408.560206 
L 709.833448 407.650416 
L 710.572362 407.604999 
" clip-path="url(#pea47d59ea9)" style="fill: #4d59c1"/>
    <path d="M 708.457474 407.45703 
L 708.506478 408.467909 
L 707.766604 408.50307 
L 707.717599 407.492191 
L 708.457474 407.45703 
" clip-path="url(#pea47d59ea9)" style="fill: #4d59c1"/>
    <path d="M 702.592286 407.166952 
L 702.604778 408.51772 
L 701.46614 408.52944 
L 701.452687 407.178672 
L 702.592286 407.166952 
" clip-path="url(#pea47d59ea9)" style="fill: #4d59c1"/>
    <path d="M 700.549464 407.106885 
L 700.593664 408.479629 
L 699.578979 408.51186 
L 699.534779 407.139116 
L 700.549464 407.106885 
" clip-path="url(#pea47d59ea9)" style="fill: #4d59c1"/>
    <path d="M 707.907853 403.87354 
L 707.907853 404.638291 
L 707.108404 404.655872 
L 707.092069 403.907236 
L 707.907853 403.87354 
" clip-path="url(#pea47d59ea9)" style="fill: #4d59c1"/>
    <path d="M 716.203096 403.277268 
L 716.158895 404.345283 
L 715.419021 404.314517 
L 715.464182 403.246503 
L 716.203096 403.277268 
" clip-path="url(#pea47d59ea9)" style="fill: #4d59c1"/>
    <path d="M 712.133785 402.911008 
L 712.117451 403.989278 
L 711.071057 403.974628 
L 711.087391 402.894893 
L 712.133785 402.911008 
" clip-path="url(#pea47d59ea9)" style="fill: #4d59c1"/>
    <path d="M 719.861151 376.453833 
L 719.883251 377.439806 
L 718.794578 377.464712 
L 718.772478 376.477274 
L 719.861151 376.453833 
" clip-path="url(#pea47d59ea9)" style="fill: #4d59c1"/>
    <path d="M 693.379407 375.207083 
L 693.374602 376.647219 
L 692.496362 376.644289 
L 692.502127 375.204153 
L 693.379407 375.207083 
" clip-path="url(#pea47d59ea9)" style="fill: #4d59c1"/>
    <path d="M 679.961734 375.142622 
L 680.043408 376.594477 
L 679.362147 376.634033 
L 679.280473 375.180713 
L 679.961734 375.142622 
" clip-path="url(#pea47d59ea9)" style="fill: #4d59c1"/>
    <path d="M 695.834445 375.27887 
L 695.782558 376.357141 
L 694.731359 376.307329 
L 694.782286 375.227594 
L 695.834445 375.27887 
" clip-path="url(#pea47d59ea9)" style="fill: #4d59c1"/>
    <path d="M 690.101859 375.193898 
L 690.08168 376.404022 
L 689.056426 376.387906 
L 689.076604 375.177783 
L 690.101859 375.193898 
" clip-path="url(#pea47d59ea9)" style="fill: #4d59c1"/>
    <path d="M 688.448191 375.07523 
L 688.448191 376.174011 
L 687.533437 376.174011 
L 687.533437 375.07523 
L 688.448191 375.07523 
" clip-path="url(#pea47d59ea9)" style="fill: #4d59c1"/>
    <path d="M 676.017338 374.938981 
L 676.012533 376.15643 
L 674.953648 376.1535 
L 674.958452 374.934586 
L 676.017338 374.938981 
" clip-path="url(#pea47d59ea9)" style="fill: #4d59c1"/>
    <path d="M 668.567666 374.429147 
L 668.509052 375.897118 
L 667.436715 375.853167 
L 667.495328 374.385195 
L 668.567666 374.429147 
" clip-path="url(#pea47d59ea9)" style="fill: #4d59c1"/>
    <path d="M 672.203621 374.539025 
L 672.208425 375.700802 
L 671.207192 375.705197 
L 671.202388 374.54342 
L 672.203621 374.539025 
" clip-path="url(#pea47d59ea9)" style="fill: #4d59c1"/>
    <path d="M 666.656483 374.544885 
L 666.667053 375.680292 
L 665.735003 375.689082 
L 665.725394 374.553675 
L 666.656483 374.544885 
" clip-path="url(#pea47d59ea9)" style="fill: #4d59c1"/>
    <path d="M 659.889994 374.339779 
L 659.824655 375.826796 
L 658.978123 375.79017 
L 659.043462 374.303153 
L 659.889994 374.339779 
" clip-path="url(#pea47d59ea9)" style="fill: #4d59c1"/>
    <path d="M 662.841805 374.424752 
L 662.823549 375.586529 
L 662.203784 375.577739 
L 662.22204 374.415961 
L 662.841805 374.424752 
" clip-path="url(#pea47d59ea9)" style="fill: #4d59c1"/>
    <path d="M 657.159184 374.100978 
L 657.168793 375.180713 
L 656.160834 375.189503 
L 656.151225 374.109768 
L 657.159184 374.100978 
" clip-path="url(#pea47d59ea9)" style="fill: #4d59c1"/>
    <path d="M 647.805056 374.032121 
L 647.762778 375.24957 
L 646.070675 375.190968 
L 646.112953 373.973519 
L 647.805056 374.032121 
" clip-path="url(#pea47d59ea9)" style="fill: #4d59c1"/>
    <path d="M 655.294124 373.988169 
L 655.323911 375.031279 
L 653.494403 375.08402 
L 653.464616 374.040911 
L 655.294124 373.988169 
" clip-path="url(#pea47d59ea9)" style="fill: #4d59c1"/>
    <path d="M 637.267129 373.425594 
L 637.252715 375.013698 
L 634.684294 374.990257 
L 634.698707 373.402153 
L 637.267129 373.425594 
" clip-path="url(#pea47d59ea9)" style="fill: #4d59c1"/>
    <path d="M 639.639532 373.500311 
L 639.5396 374.956561 
L 638.437476 374.880379 
L 638.537407 373.424129 
L 639.639532 373.500311 
" clip-path="url(#pea47d59ea9)" style="fill: #4d59c1"/>
    <path d="M 681.025424 369.773247 
L 681.02158 371.082993 
L 680.060704 371.081528 
L 680.064548 369.770316 
L 681.025424 369.773247 
" clip-path="url(#pea47d59ea9)" style="fill: #4d59c1"/>
    <path d="M 671.897101 369.54177 
L 671.852901 370.851517 
L 670.892025 370.819286 
L 670.936225 369.509539 
L 671.897101 369.54177 
" clip-path="url(#pea47d59ea9)" style="fill: #4d59c1"/>
    <path d="M 669.71303 369.377685 
L 669.667869 370.687432 
L 668.706993 370.655201 
L 668.752154 369.345455 
L 669.71303 369.377685 
" clip-path="url(#pea47d59ea9)" style="fill: #4d59c1"/>
    <path d="M 665.737886 369.115443 
L 665.693685 370.42519 
L 664.732809 370.391494 
L 664.77701 369.083212 
L 665.737886 369.115443 
" clip-path="url(#pea47d59ea9)" style="fill: #4d59c1"/>
    <path d="M 603.117594 376.382046 
L 602.791857 377.099916 
L 601.815607 376.656009 
L 602.142305 375.938139 
L 603.117594 376.382046 
" clip-path="url(#pea47d59ea9)" style="fill: #4d59c1"/>
    <path d="M 604.072705 375.016628 
L 603.011898 375.608505 
L 602.166327 374.095117 
L 603.227134 373.503241 
L 604.072705 375.016628 
" clip-path="url(#pea47d59ea9)" style="fill: #4d59c1"/>
    <path d="M 606.632479 371.638244 
L 607.457871 373.144306 
L 604.072705 375.016628 
L 603.227134 373.503241 
L 606.632479 371.638244 
" clip-path="url(#pea47d59ea9)" style="fill: #4d59c1"/>
    <path d="M 591.586121 371.33498 
L 591.901288 371.959088 
L 594.266965 370.697687 
L 596.372244 369.656043 
L 598.200791 368.781414 
L 597.888507 368.163166 
L 599.525839 367.336883 
L 600.28301 368.83855 
L 591.152765 373.443174 
L 590.392713 371.937112 
L 591.586121 371.33498 
" clip-path="url(#pea47d59ea9)" style="fill: #4d59c1"/>
    <path d="M 616.068281 368.520636 
L 616.931148 370.129251 
L 614.675011 371.339375 
L 613.812144 369.73076 
L 616.068281 368.520636 
" clip-path="url(#pea47d59ea9)" style="fill: #4d59c1"/>
    <path d="M 593.631826 369.414311 
L 592.509522 367.144963 
L 594.614802 366.103319 
L 596.372244 369.656043 
L 594.266965 370.697687 
L 593.631826 369.414311 
" clip-path="url(#pea47d59ea9)" style="fill: #4d59c1"/>
    <path d="M 601.125698 363.11903 
L 599.416299 359.553121 
L 600.896049 358.844041 
L 603.292473 363.842761 
L 597.27835 366.724496 
L 596.592285 365.291686 
L 601.125698 363.11903 
" clip-path="url(#pea47d59ea9)" style="fill: #4d59c1"/>
    <path d="M 737.360625 408.229107 
L 737.523974 409.157943 
L 736.702425 409.301517 
L 736.540037 408.372681 
L 737.360625 408.229107 
" clip-path="url(#pea47d59ea9)" style="fill: #4d59c1"/>
    <path d="M 724.424351 407.981515 
L 724.463747 409.172593 
L 723.545149 409.201894 
L 723.506714 408.010816 
L 724.424351 407.981515 
" clip-path="url(#pea47d59ea9)" style="fill: #4d59c1"/>
    <path d="M 734.414579 407.97419 
L 734.367496 409.146223 
L 733.431603 409.108131 
L 733.478686 407.936099 
L 734.414579 407.97419 
" clip-path="url(#pea47d59ea9)" style="fill: #4d59c1"/>
    <path d="M 721.669519 407.914123 
L 721.674324 409.05246 
L 720.730743 409.056855 
L 720.7269 407.918518 
L 721.669519 407.914123 
" clip-path="url(#pea47d59ea9)" style="fill: #4d59c1"/>
    <path d="M 727.382888 407.940494 
L 727.45111 408.837099 
L 726.663192 408.897166 
L 726.595931 407.999095 
L 727.382888 407.940494 
" clip-path="url(#pea47d59ea9)" style="fill: #4d59c1"/>
    <path d="M 730.310678 404.329168 
L 730.345269 405.161311 
L 729.51315 405.195007 
L 729.47952 404.362864 
L 730.310678 404.329168 
" clip-path="url(#pea47d59ea9)" style="fill: #4d59c1"/>
    <path d="M 736.388219 404.21343 
L 736.396866 405.140801 
L 735.5561 405.148126 
L 735.547452 404.22222 
L 736.388219 404.21343 
" clip-path="url(#pea47d59ea9)" style="fill: #4d59c1"/>
    <path d="M 726.62764 404.157758 
L 726.650701 405.067548 
L 725.656194 405.092454 
L 725.632172 404.184129 
L 726.62764 404.157758 
" clip-path="url(#pea47d59ea9)" style="fill: #4d59c1"/>
    <path d="M 722.820649 404.022974 
L 722.834101 405.049968 
L 721.937604 405.061688 
L 721.924151 404.034695 
L 722.820649 404.022974 
" clip-path="url(#pea47d59ea9)" style="fill: #4d59c1"/>
    <path d="M 724.112066 371.478554 
L 724.108223 372.788301 
L 723.146386 372.785371 
L 723.150229 371.475624 
L 724.112066 371.478554 
" clip-path="url(#pea47d59ea9)" style="fill: #4d59c1"/>
    <path d="M 707.917461 376.172545 
L 707.885752 377.353368 
L 707.035377 377.329928 
L 707.068047 376.149105 
L 707.917461 376.172545 
" clip-path="url(#pea47d59ea9)" style="fill: #4d59c1"/>
    <path d="M 706.256107 375.875142 
L 706.275324 377.038385 
L 705.222204 377.055965 
L 705.202987 375.892723 
L 706.256107 375.875142 
" clip-path="url(#pea47d59ea9)" style="fill: #4d59c1"/>
    <path d="M 702.656665 375.558693 
L 702.622074 376.563711 
L 701.715967 376.532946 
L 701.750559 375.527927 
L 702.656665 375.558693 
" clip-path="url(#pea47d59ea9)" style="fill: #4d59c1"/>
    <path d="M 699.045693 375.475186 
L 698.989001 376.478739 
L 698.035812 376.424533 
L 698.092504 375.420979 
L 699.045693 375.475186 
" clip-path="url(#pea47d59ea9)" style="fill: #4d59c1"/>
    <path d="M 716.650864 371.310074 
L 716.647981 372.619821 
L 715.686144 372.618356 
L 715.689988 371.307144 
L 716.650864 371.310074 
" clip-path="url(#pea47d59ea9)" style="fill: #4d59c1"/>
    <path d="M 713.028361 371.191406 
L 713.024518 372.502618 
L 712.062681 372.499688 
L 712.066524 371.188476 
L 713.028361 371.191406 
" clip-path="url(#pea47d59ea9)" style="fill: #4d59c1"/>
    <path d="M 655.559326 369.00117 
L 655.604487 370.310917 
L 654.643611 370.343147 
L 654.59845 369.033401 
L 655.559326 369.00117 
" clip-path="url(#pea47d59ea9)" style="fill: #4d59c1"/>
    <path d="M 643.680976 367.445296 
L 643.55318 369.672159 
L 640.21894 369.480238 
L 640.346736 367.253376 
L 643.680976 367.445296 
" clip-path="url(#pea47d59ea9)" style="fill: #4d59c1"/>
    <path d="M 641.556479 353.779394 
L 641.78805 360.60502 
L 640.244883 360.657762 
L 640.011391 353.832136 
L 641.556479 353.779394 
" clip-path="url(#pea47d59ea9)" style="fill: #4d59c1"/>
   </g>
   <g id="LineCollection_1">
    <path d="M 620.749669 726.775895 
L 620.708289 734.546709 
" clip-path="url(#pea47d59ea9)" style="fill: none; stroke: #4d59c1; stroke-width: 0.2"/>
    <path d="M 617.723871 689.727939 
L 642.716257 688.17939 
L 642.561556 675.805654 
L 642.613443 653.324601 
L 644.726409 638.373857 
" clip-path="url(#pea47d59ea9)" style="fill: none; stroke: #4d59c1; stroke-width: 0.2"/>
    <path d="M 605.088351 593.906934 
L 610.910299 593.678388 
L 612.459231 601.252649 
L 614.570276 612.209691 
L 615.757918 639.765646 
L 616.891752 669.463492 
L 617.723871 689.727939 
L 618.077473 698.336519 
L 620.749669 726.775895 
" clip-path="url(#pea47d59ea9)" style="fill: none; stroke: #4d59c1; stroke-width: 0.2"/>
    <path d="M 615.757918 639.765646 
L 628.386712 639.610352 
L 644.726409 638.373857 
L 650.241838 638.580428 
L 662.0462 637.445022 
L 663.23096 648.324416 
L 663.025333 652.706353 
L 664.828897 674.979371 
" clip-path="url(#pea47d59ea9)" style="fill: none; stroke: #4d59c1; stroke-width: 0.2"/>
    <path d="M 662.0462 637.445022 
L 680.705452 635.588815 
L 684.67387 632.805237 
L 672.921395 615.122192 
L 672.658115 612.313709 
" clip-path="url(#pea47d59ea9)" style="fill: none; stroke: #4d59c1; stroke-width: 0.2"/>
    <path d="M 614.570276 612.209691 
L 617.61337 612.90412 
L 625.809643 612.801567 
L 641.942751 612.956862 
L 672.658115 612.313709 
L 675.47156 611.9914 
L 687.812091 608.983671 
L 703.606971 604.181266 
L 714.690677 600.725235 
L 726.626679 598.032489 
L 738.922049 595.20496 
L 745.016885 593.870308 
L 751.217419 592.512215 
L 757.095097 591.43541 
" clip-path="url(#pea47d59ea9)" style="fill: none; stroke: #4d59c1; stroke-width: 0.2"/>
    <path d="M 672.658115 612.313709 
L 671.684748 600.531849 
L 670.507674 590.532945 
" clip-path="url(#pea47d59ea9)" style="fill: none; stroke: #4d59c1; stroke-width: 0.2"/>
    <path d="M 610.910299 593.678388 
L 665.76479 590.719005 
L 670.507674 590.532945 
" clip-path="url(#pea47d59ea9)" style="fill: none; stroke: #4d59c1; stroke-width: 0.2"/>
    <path d="M 688.540435 585.941506 
L 686.271807 587.153095 
L 683.901326 589.138226 
L 678.720282 589.576273 
L 670.507674 590.532945 
" clip-path="url(#pea47d59ea9)" style="fill: none; stroke: #4d59c1; stroke-width: 0.2"/>
    <path d="M 749.492646 576.515433 
L 738.435845 579.342962 
L 731.838471 581.76614 
L 718.488059 583.93147 
L 708.333521 585.220706 
L 701.322969 585.89023 
L 688.540435 585.941506 
L 677.174232 586.464526 
L 669.620786 587.178001 
L 667.406927 587.771342 
L 655.061592 589.060579 
L 640.0873 590.272167 
L 627.381636 590.968062 
L 611.0871 591.170238 
L 604.984576 590.685309 
" clip-path="url(#pea47d59ea9)" style="fill: none; stroke: #4d59c1; stroke-width: 0.2"/>
    <path d="M 744.518191 580.734751 
L 745.016885 593.870308 
" clip-path="url(#pea47d59ea9)" style="fill: none; stroke: #4d59c1; stroke-width: 0.2"/>
    <path d="M 731.838471 581.76614 
L 738.719304 580.863674 
L 744.518191 580.734751 
" clip-path="url(#pea47d59ea9)" style="fill: none; stroke: #4d59c1; stroke-width: 0.2"/>
    <path d="M 744.518191 580.734751 
L 748.280981 580.270333 
L 752.791334 578.724714 
L 755.188719 578.233926 
L 760.909775 577.795879 
L 769.621077 576.661937 
L 774.491758 577.538031 
L 779.904373 575.501624 
" clip-path="url(#pea47d59ea9)" style="fill: none; stroke: #4d59c1; stroke-width: 0.2"/>
    <path d="M 791.476203 593.262316 
L 779.904373 575.501624 
L 775.23932 567.795509 
L 771.244958 564.005448 
L 764.105649 557.072874 
L 758.744921 551.710824 
L 753.538895 550.83473 
L 739.621566 553.153889 
L 724.312889 548.618123 
L 703.849112 552.019948 
L 691.375019 553.102613 
L 685.70489 552.896042 
L 661.882851 548.421807 
" clip-path="url(#pea47d59ea9)" style="fill: none; stroke: #4d59c1; stroke-width: 0.2"/>
    <path d="M 771.244958 564.005448 
L 762.327067 569.598974 
L 758.538333 571.944505 
L 757.018227 574.420424 
L 754.363327 575.759472 
L 749.492646 576.515433 
" clip-path="url(#pea47d59ea9)" style="fill: none; stroke: #4d59c1; stroke-width: 0.2"/>
    <path d="M 784.556952 554.571175 
L 778.513024 557.742398 
L 773.77014 561.248241 
L 771.244958 564.005448 
" clip-path="url(#pea47d59ea9)" style="fill: none; stroke: #4d59c1; stroke-width: 0.2"/>
    <path d="M 661.178529 544.102866 
L 660.615456 542.895673 
L 660.151352 542.393164 
L 659.520057 542.122131 
L 655.293163 542.715473 
L 646.324346 544.236185 
L 628.59234 546.942116 
L 614.211869 548.462828 
L 598.244031 549.390199 
L 597.613696 549.391664 
L 595.732301 548.566846 
L 593.521325 548.081918 
L 590.256268 548.204981 
L 585.990939 549.314017 
L 580.449567 550.963653 
L 575.577926 551.685918 
L 570.552544 551.90421 
L 564.856471 552.844766 
L 555.584017 553.577286 
" clip-path="url(#pea47d59ea9)" style="fill: none; stroke: #4d59c1; stroke-width: 0.2"/>
    <path d="M 739.949606 371.140331 
L 735.034344 372.902574 
L 732.443822 373.772808 
L 729.823513 374.407171 
L 727.181104 374.530235 
L 723.358739 374.461378 
L 680.997558 373.085704 
L 631.921775 370.819286 
L 627.896665 370.634691 
L 624.39139 370.814891 
L 621.350217 371.768632 
L 600.384863 381.727981 
L 594.134364 384.691759 
L 579.638588 392.532658 
L 568.572178 398.534931 
L 576.862617 414.571269 
L 578.073321 417.057444 
L 579.467552 420.204352 
L 580.062334 422.406308 
L 580.91367 426.788246 
L 585.010846 457.636148 
L 587.69169 477.301393 
L 588.258607 482.533055 
L 589.599029 493.125301 
L 592.640202 513.228593 
L 597.613696 549.391664 
L 598.652403 555.395402 
L 600.913344 568.465033 
L 604.984576 590.685309 
" clip-path="url(#pea47d59ea9)" style="fill: none; stroke: #4d59c1; stroke-width: 0.5"/>
    <path d="M 587.69169 477.301393 
L 636.847226 469.382847 
L 650.790498 466.778004 
" clip-path="url(#pea47d59ea9)" style="fill: none; stroke: #4d59c1; stroke-width: 0.2"/>
    <path d="M 650.790498 466.778004 
L 655.035648 465.884329 
L 660.937349 464.930587 
L 673.280763 463.165213 
L 684.989998 460.145764 
" clip-path="url(#pea47d59ea9)" style="fill: none; stroke: #4d59c1; stroke-width: 0.2"/>
    <path d="M 670.507674 590.532945 
L 669.620786 587.178001 
L 667.252226 578.20902 
L 664.674196 565.527625 
L 661.882851 548.421807 
L 661.178529 544.102866 
L 660.693286 532.033859 
L 658.812852 518.874861 
L 651.635108 473.174373 
L 650.790498 466.778004 
L 646.221532 437.431768 
L 641.240351 407.81157 
L 632.629941 392.125377 
L 631.216492 389.617226 
L 621.350217 371.768632 
L 617.726753 366.043252 
L 612.109472 355.179973 
L 609.648668 350.701343 
L 602.676552 338.012623 
L 584.392042 305.604452 
" clip-path="url(#pea47d59ea9)" style="fill: none; stroke: #4d59c1; stroke-width: 0.2"/>
    <path d="M 739.837764 406.200025 
L 723.220373 406.156074 
L 707.386097 405.640379 
L 704.80038 405.490945 
L 701.736146 405.243353 
L 697.895524 405.11443 
L 690.193142 404.730589 
L 689.055465 405.11443 
L 687.097199 406.119448 
L 685.808665 407.562513 
L 684.605648 409.493437 
L 685.18986 412.974375 
L 685.456023 416.638442 
L 685.524245 439.493081 
L 684.989998 460.145764 
L 684.732483 476.516131 
" clip-path="url(#pea47d59ea9)" style="fill: none; stroke: #4d59c1; stroke-width: 0.2"/>
    <path d="M 704.80038 405.490945 
L 704.589948 412.785384 
L 705.742999 421.641557 
L 706.342586 423.256032 
L 708.788015 423.902115 
L 708.970206 428.540813 
" clip-path="url(#pea47d59ea9)" style="fill: none; stroke: #4d59c1; stroke-width: 0.2"/>
    <path d="M 619.988656 440.458543 
L 619.448643 436.381334 
L 619.932925 432.252849 
L 616.565054 422.334521 
L 615.337055 416.278042 
L 613.864032 413.295219 
L 610.423135 406.673233 
L 608.708932 403.426703 
L 607.896991 402.137467 
L 607.091777 401.394691 
L 604.903863 400.792559 
L 603.769068 400.82479 
L 603.065707 401.170539 
" clip-path="url(#pea47d59ea9)" style="fill: none; stroke: #4d59c1; stroke-width: 0.2"/>
    <path d="M 603.769068 400.82479 
L 604.353281 399.573645 
L 606.234676 398.373776 
L 622.671421 391.568661 
L 627.200991 389.936605 
L 629.468659 389.523464 
L 631.216492 389.617226 
" clip-path="url(#pea47d59ea9)" style="fill: none; stroke: #4d59c1; stroke-width: 0.2"/>
    <path d="M 602.183622 403.160065 
L 602.79474 402.588699 
L 603.116633 401.763881 
L 603.065707 401.170539 
L 602.178818 399.091646 
L 599.237577 394.343449 
L 596.763321 389.756405 
L 594.134364 384.691759 
" clip-path="url(#pea47d59ea9)" style="fill: none; stroke: #4d59c1; stroke-width: 0.2"/>
    <path d="M 729.823513 374.407171 
L 733.391246 376.698495 
L 733.754464 377.16999 
" clip-path="url(#pea47d59ea9)" style="fill: none; stroke: #4d59c1; stroke-width: 0.2"/>
    <path d="M 684.605648 409.493437 
L 683.59865 405.052898 
L 681.792203 400.915622 
L 681.320413 392.663047 
L 681.194538 387.43578 
L 680.846701 384.344544 
L 680.667017 381.316304 
L 680.741965 379.17881 
L 680.885136 376.509505 
L 680.997558 373.085704 
" clip-path="url(#pea47d59ea9)" style="fill: none; stroke: #4d59c1; stroke-width: 0.2"/>
    <path d="M 601.804076 374.427682 
L 600.154252 375.473721 
L 600.069695 377.57459 
L 599.868872 379.927445 
L 600.384863 381.727981 
" clip-path="url(#pea47d59ea9)" style="fill: none; stroke: #4d59c1; stroke-width: 0.2"/>
    <path d="M 609.648668 350.701343 
L 597.60697 359.481334 
L 598.114312 362.294212 
L 595.576639 364.855104 
L 596.9382 368.314066 
" clip-path="url(#pea47d59ea9)" style="fill: none; stroke: #4d59c1; stroke-width: 0.2"/>
    <path d="M 565.467588 214.88179 
L 564.163679 216.985589 
L 561.140763 220.227725 
L 560.353806 221.897871 
L 560.65456 223.301381 
L 572.372443 244.075662 
" clip-path="url(#pea47d59ea9)" style="fill: none; stroke: #4d59c1; stroke-width: 0.2"/>
    <path d="M 618.204309 219.826303 
L 617.90932 216.535821 
L 616.255652 212.977237 
L 614.397721 210.483341 
" clip-path="url(#pea47d59ea9)" style="fill: none; stroke: #4d59c1; stroke-width: 0.2"/>
    <path d="M 582.553339 209.736525 
L 568.375199 211.673351 
L 566.620639 212.375105 
L 565.969165 213.528092 
L 565.467588 214.88179 
" clip-path="url(#pea47d59ea9)" style="fill: none; stroke: #4d59c1; stroke-width: 0.2"/>
    <path d="M 518.818017 84.245552 
L 522.270445 84.405242 
L 523.95486 85.414655 
L 527.098847 92.823367 
L 529.02383 95.726215 
" clip-path="url(#pea47d59ea9)" style="fill: none; stroke: #4d59c1; stroke-width: 0.2"/>
    <path d="M 555.795039 207.047893 
L 560.313449 216.790739 
L 560.879405 219.008811 
L 561.140763 220.227725 
" clip-path="url(#pea47d59ea9)" style="fill: none; stroke: #4d59c1; stroke-width: 0.2"/>
    <path d="M 475.875506 538.727631 
L 476.519825 542.807742 
" clip-path="url(#pea47d59ea9)" style="fill: none; stroke: #4d59c1; stroke-width: 0.2"/>
    <path d="M 522.744156 552.393533 
L 520.370467 554.637007 
" clip-path="url(#pea47d59ea9)" style="fill: none; stroke: #4d59c1; stroke-width: 0.2"/>
    <path d="M 529.342492 552.175242 
L 522.744156 552.393533 
L 506.681097 552.337025 
" clip-path="url(#pea47d59ea9)" style="fill: none; stroke: #4d59c1; stroke-width: 0.2"/>
    <path d="M 502.634315 551.657116 
L 499.214224 550.370312 
L 491.120765 546.092392 
" clip-path="url(#pea47d59ea9)" style="fill: none; stroke: #4d59c1; stroke-width: 0.2"/>
    <path d="M 526.438725 545.796454 
L 525.953482 548.037966 
L 524.960897 549.841432 
L 522.744156 552.393533 
" clip-path="url(#pea47d59ea9)" style="fill: none; stroke: #4d59c1; stroke-width: 0.2"/>
    <path d="M 529.342492 552.175242 
L 526.438725 545.796454 
" clip-path="url(#pea47d59ea9)" style="fill: none; stroke: #4d59c1; stroke-width: 0.2"/>
    <path d="M 475.875506 538.727631 
L 478.286344 542.431255 
L 481.791619 544.596585 
L 491.120765 546.092392 
L 497.5644 546.041116 
L 497.152184 542.174872 
" clip-path="url(#pea47d59ea9)" style="fill: none; stroke: #4d59c1; stroke-width: 0.2"/>
    <path d="M 440.532524 421.589085 
L 442.539833 421.607861 
L 446.091231 421.058471 
L 448.493421 420.396272 
L 449.910713 419.495272 
L 450.709201 418.437512 
L 451.057038 416.771761 
" clip-path="url(#pea47d59ea9)" style="fill: none; stroke: #4d59c1; stroke-width: 0.2"/>
    <path d="M 447.900561 374.834963 
L 445.657876 375.06644 
" clip-path="url(#pea47d59ea9)" style="fill: none; stroke: #4d59c1; stroke-width: 0.2"/>
    <path d="M 445.864464 344.118914 
L 444.73063 345.94875 
L 443.725554 351.66827 
L 445.323491 356.281684 
L 445.727059 358.704862 
L 446.224793 361.693546 
L 447.900561 374.834963 
L 450.117302 392.564889 
" clip-path="url(#pea47d59ea9)" style="fill: none; stroke: #4d59c1; stroke-width: 0.2"/>
    <path d="M 443.957125 360.146462 
L 445.727059 358.704862 
" clip-path="url(#pea47d59ea9)" style="fill: none; stroke: #4d59c1; stroke-width: 0.2"/>
    <path d="M 436.695785 314.63936 
L 440.255831 313.241711 
L 442.18527 311.44557 
L 443.316221 308.386565 
" clip-path="url(#pea47d59ea9)" style="fill: none; stroke: #4d59c1; stroke-width: 0.2"/>
    <path d="M 450.430547 316.262625 
L 445.777985 312.044772 
L 443.316221 308.386565 
L 442.052669 303.863983 
L 440.455693 301.07015 
L 438.12749 291.759815 
L 432.186394 276.485298 
" clip-path="url(#pea47d59ea9)" style="fill: none; stroke: #4d59c1; stroke-width: 0.2"/>
    <path d="M 547.544692 693.193927 
L 548.904007 693.748011 
L 550.140654 696.842177 
L 550.295355 714.475411 
L 549.662595 714.479419 
" clip-path="url(#pea47d59ea9)" style="fill: none; stroke: #4d59c1; stroke-width: 0.2"/>
    <path d="M 571.685417 719.45948 
L 570.439161 679.106392 
L 568.74898 659.202345 
L 567.329766 639.52245 
L 567.047268 625.896104 
L 567.626676 618.947414 
L 567.001146 606.239649 
L 566.313159 594.66729 
L 566.184401 591.445665 
" clip-path="url(#pea47d59ea9)" style="fill: none; stroke: #4d59c1; stroke-width: 0.2"/>
    <path d="M 604.984576 590.685309 
L 566.184401 591.445665 
L 546.790079 591.896898 
L 539.831415 592.230927 
L 537.521004 592.453177 
" clip-path="url(#pea47d59ea9)" style="fill: none; stroke: #4d59c1; stroke-width: 0.5"/>
    <path d="M 537.799625 595.253391 
L 566.313159 594.66729 
L 605.088351 593.906934 
L 604.984576 590.685309 
" clip-path="url(#pea47d59ea9)" style="fill: none; stroke: #4d59c1; stroke-width: 0.5"/>
    <path d="M 598.652403 555.395402 
L 595.667922 556.517624 
L 592.395178 558.529125 
L 590.256268 560.952303 
L 587.523537 564.521142 
L 585.024298 566.673288 
L 581.892803 569.058374 
L 580.037351 571.313072 
L 578.33564 574.832101 
L 577.253694 577.86034 
L 576.055481 581.94634 
L 575.501056 586.121706 
L 575.024461 589.382888 
" clip-path="url(#pea47d59ea9)" style="fill: none; stroke: #4d59c1; stroke-width: 0.2"/>
    <path d="M 555.584017 553.577286 
L 561.171511 560.423423 
L 570.707245 574.547883 
L 577.253694 577.86034 
L 580.99054 578.931285 
L 585.810295 579.781009 
L 596.067646 583.260481 
" clip-path="url(#pea47d59ea9)" style="fill: none; stroke: #4d59c1; stroke-width: 0.2"/>
    <path d="M 555.584017 553.577286 
L 546.480677 554.107631 
L 541.145894 554.700973 
L 533.543442 552.381813 
L 529.342492 552.175242 
" clip-path="url(#pea47d59ea9)" style="fill: none; stroke: #4d59c1; stroke-width: 0.2"/>
    <path d="M 531.24887 416.067076 
L 532.068498 421.830547 
L 536.017698 453.3846 
L 539.91309 486.882761 
L 545.579376 511.34748 
L 548.052671 523.539551 
L 550.230977 536.578416 
L 553.264462 549.810666 
L 554.289717 552.457995 
L 554.856634 553.18026 
L 555.584017 553.577286 
" clip-path="url(#pea47d59ea9)" style="fill: none; stroke: #4d59c1; stroke-width: 0.2"/>
    <path d="M 602.183622 403.160065 
L 599.226046 405.136405 
L 589.702804 411.496148 
L 584.534251 413.832889 
L 581.171185 414.263611 
L 576.862617 414.571269 
" clip-path="url(#pea47d59ea9)" style="fill: none; stroke: #4d59c1; stroke-width: 0.2"/>
    <path d="M 531.931092 392.953125 
L 532.38943 400.946388 
L 531.978175 408.571926 
L 533.116813 415.155821 
" clip-path="url(#pea47d59ea9)" style="fill: none; stroke: #4d59c1; stroke-width: 0.2"/>
    <path d="M 468.150062 494.744171 
L 471.637081 495.419555 
L 476.069603 495.677402 
L 490.529826 495.819511 
L 502.977014 494.672384 
L 515.499151 492.993447 
L 530.681953 489.414352 
L 537.847206 487.855548 
L 539.91309 486.882761 
L 542.412328 485.206754 
L 564.470199 481.038713 
L 569.444654 480.780866 
L 576.815534 479.156135 
L 587.69169 477.301393 
" clip-path="url(#pea47d59ea9)" style="fill: none; stroke: #4d59c1; stroke-width: 0.2"/>
    <path d="M 505.842347 421.638627 
L 503.629449 425.890176 
L 502.901105 428.109713 
L 503.118263 431.990606 
L 509.755034 462.224657 
L 513.079665 477.17247 
L 515.499151 492.993447 
L 526.438725 545.796454 
" clip-path="url(#pea47d59ea9)" style="fill: none; stroke: #4d59c1; stroke-width: 0.2"/>
    <path d="M 475.875506 538.727631 
L 471.7889 512.159113 
L 470.193846 503.305871 
L 468.150062 494.744171 
L 466.330163 485.515878 
L 462.210887 461.962414 
L 459.214876 448.306768 
L 456.914539 434.44748 
L 456.998135 432.457954 
L 457.91385 429.187983 
L 458.56148 425.981008 
L 458.106025 422.510326 
" clip-path="url(#pea47d59ea9)" style="fill: none; stroke: #4d59c1; stroke-width: 0.2"/>
    <path d="M 490.529826 495.819511 
L 490.322277 492.816177 
L 489.986931 488.692087 
L 488.173758 479.088743 
L 485.295934 460.932491 
L 480.853804 436.25241 
L 479.548935 431.555489 
L 477.222654 428.061366 
L 476.250247 426.014704 
L 475.914902 424.571639 
L 475.889919 422.406308 
" clip-path="url(#pea47d59ea9)" style="fill: none; stroke: #4d59c1; stroke-width: 0.2"/>
    <path d="M 505.842347 421.638627 
L 505.710707 416.056821 
L 503.537205 397.733553 
L 491.840461 345.359804 
L 487.576093 332.930396 
L 485.166216 321.862012 
L 485.14892 319.364117 
L 486.055987 317.598743 
" clip-path="url(#pea47d59ea9)" style="fill: none; stroke: #4d59c1; stroke-width: 0.2"/>
    <path d="M 517.857141 324.396533 
L 518.127147 332.15832 
L 518.907378 339.105544 
L 526.215802 370.836866 
L 531.931092 392.953125 
" clip-path="url(#pea47d59ea9)" style="fill: none; stroke: #4d59c1; stroke-width: 0.2"/>
    <path d="M 518.127147 332.15832 
L 514.574788 333.012439 
L 500.468167 340.235091 
L 497.19158 342.34475 
L 491.840461 345.359804 
" clip-path="url(#pea47d59ea9)" style="fill: none; stroke: #4d59c1; stroke-width: 0.2"/>
    <path d="M 483.928608 332.079207 
L 479.936168 334.919922 
L 474.085394 342.186525 
L 471.868653 343.087525 
L 467.3583 343.474296 
L 451.147361 342.70222 
L 447.926504 343.087525 
L 445.864464 344.118914 
" clip-path="url(#pea47d59ea9)" style="fill: none; stroke: #4d59c1; stroke-width: 0.2"/>
    <path d="M 487.576093 332.930396 
L 483.928608 332.079207 
L 481.739732 331.982515 
L 480.610703 332.066022 
L 455.452085 333.939809 
" clip-path="url(#pea47d59ea9)" style="fill: none; stroke: #4d59c1; stroke-width: 0.2"/>
    <path d="M 518.127147 332.15832 
L 524.850397 330.041335 
" clip-path="url(#pea47d59ea9)" style="fill: none; stroke: #4d59c1; stroke-width: 0.2"/>
    <path d="M 531.931092 392.953125 
L 537.594496 403.387146 
L 539.797784 406.400736 
L 540.544385 408.319939 
L 542.744791 410.041363 
" clip-path="url(#pea47d59ea9)" style="fill: none; stroke: #4d59c1; stroke-width: 0.2"/>
    <path d="M 563.291204 400.779374 
L 559.015305 391.510059 
L 558.779891 389.089812 
L 558.898078 387.128122 
L 546.026183 364.3482 
L 531.589981 337.576041 
L 530.431165 334.275304 
L 528.933159 332.422027 
L 524.850397 330.041335 
" clip-path="url(#pea47d59ea9)" style="fill: none; stroke: #4d59c1; stroke-width: 0.2"/>
    <path d="M 546.026183 364.3482 
L 559.651405 356.914582 
" clip-path="url(#pea47d59ea9)" style="fill: none; stroke: #4d59c1; stroke-width: 0.2"/>
    <path d="M 579.638588 392.532658 
L 559.651405 356.914582 
L 542.043352 324.248563 
" clip-path="url(#pea47d59ea9)" style="fill: none; stroke: #4d59c1; stroke-width: 0.2"/>
    <path d="M 594.134364 384.691759 
L 586.141797 372.294582 
L 556.780308 320.465828 
L 555.079557 317.841939 
L 538.809043 288.347735 
" clip-path="url(#pea47d59ea9)" style="fill: none; stroke: #4d59c1; stroke-width: 0.2"/>
    <path d="M 555.079557 317.841939 
L 542.043352 324.248563 
L 536.387635 327.029211 
L 533.516538 328.202709 
L 524.850397 330.041335 
" clip-path="url(#pea47d59ea9)" style="fill: none; stroke: #4d59c1; stroke-width: 0.2"/>
    <path d="M 569.73676 313.360379 
L 576.748273 326.052029 
" clip-path="url(#pea47d59ea9)" style="fill: none; stroke: #4d59c1; stroke-width: 0.2"/>
    <path d="M 616.295048 287.166912 
L 615.783862 289.053884 
L 614.556823 290.32847 
L 606.093427 293.476843 
L 601.796389 295.819444 
L 584.392042 305.604452 
L 569.73676 313.360379 
L 556.780308 320.465828 
" clip-path="url(#pea47d59ea9)" style="fill: none; stroke: #4d59c1; stroke-width: 0.2"/>
    <path d="M 510.953247 303.969466 
L 524.084579 297.299135 
L 538.809043 288.347735 
L 555.913597 278.567121 
L 565.763538 272.476946 
" clip-path="url(#pea47d59ea9)" style="fill: none; stroke: #4d59c1; stroke-width: 0.2"/>
    <path d="M 618.204309 219.826303 
L 572.372443 244.075662 
L 555.41202 253.175031 
" clip-path="url(#pea47d59ea9)" style="fill: none; stroke: #4d59c1; stroke-width: 0.2"/>
    <path d="M 412.867184 290.564545 
L 414.724393 290.454463 
" clip-path="url(#pea47d59ea9)" style="fill: none; stroke: #4d59c1; stroke-width: 0.2"/>
    <path d="M 492.415065 263.768742 
L 489.364284 260.825475 
L 483.408774 257.220009 
L 477.95292 254.610771 
L 472.179016 252.78533 
L 460.921392 249.56517 
L 451.792109 247.675267 
L 441.482869 245.974355 
L 420.658764 244.119613 
" clip-path="url(#pea47d59ea9)" style="fill: none; stroke: #4d59c1; stroke-width: 0.2"/>
    <path d="M 407.767651 242.053905 
L 406.806052 242.192193 
" clip-path="url(#pea47d59ea9)" style="fill: none; stroke: #4d59c1; stroke-width: 0.2"/>
    <path d="M 420.658764 244.119613 
L 414.709019 242.207734 
L 410.142936 241.6979 
L 407.767651 242.053905 
" clip-path="url(#pea47d59ea9)" style="fill: none; stroke: #4d59c1; stroke-width: 0.2"/>
    <path d="M 417.18808 208.482491 
L 419.234746 210.227355 
L 420.765421 213.021188 
L 422.761161 223.727708 
L 424.357176 227.38445 
L 426.153053 229.313909 
L 428.614817 229.7124 
L 431.94137 232.239596 
L 436.996539 234.898645 
L 440.12323 235.764484 
L 464.669769 247.534623 
L 477.95292 254.610771 
" clip-path="url(#pea47d59ea9)" style="fill: none; stroke: #4d59c1; stroke-width: 0.2"/>
    <path d="M 480.610703 332.066022 
L 468.905311 324.431694 
L 463.337995 321.778504 
" clip-path="url(#pea47d59ea9)" style="fill: none; stroke: #4d59c1; stroke-width: 0.2"/>
    <path d="M 524.850397 330.041335 
L 522.666325 329.392322 
L 520.865644 328.248125 
L 517.857141 324.396533 
L 510.953247 303.969466 
" clip-path="url(#pea47d59ea9)" style="fill: none; stroke: #4d59c1; stroke-width: 0.2"/>
    <path d="M 425.065341 315.465643 
L 431.168826 314.549992 
L 436.695785 314.63936 
L 450.430547 316.262625 
L 451.740221 316.41792 
L 472.101185 315.799672 
L 479.007962 315.799672 
L 480.793269 317.206112 
L 483.080154 317.809708 
L 486.055987 317.598743 
L 493.158783 313.464397 
L 495.158366 310.585591 
L 497.357811 309.461905 
L 503.07118 308.719129 
L 510.953247 303.969466 
" clip-path="url(#pea47d59ea9)" style="fill: none; stroke: #4d59c1; stroke-width: 0.2"/>
    <path d="M 495.379368 309.258264 
L 500.059795 301.137542 
L 504.7162 296.348323 
" clip-path="url(#pea47d59ea9)" style="fill: none; stroke: #4d59c1; stroke-width: 0.2"/>
    <path d="M 495.158366 310.585591 
L 495.379368 309.258264 
L 495.869414 306.325252 
L 494.672163 301.402715 
L 493.541212 298.21039 
L 494.072576 297.545262 
L 497.731592 296.680888 
L 503.252786 297.080844 
L 504.7162 296.348323 
L 507.011733 294.07458 
" clip-path="url(#pea47d59ea9)" style="fill: none; stroke: #4d59c1; stroke-width: 0.2"/>
    <path d="M 411.539089 279.78164 
L 418.352661 279.028609 
L 428.160323 277.241259 
L 432.186394 276.485298 
L 437.203128 275.541811 
L 444.877645 274.114862 
L 456.324561 271.688754 
L 466.591521 269.649417 
L 471.592881 267.497272 
L 475.867819 264.488077 
L 489.364284 260.825475 
L 491.043895 260.110535 
L 500.030969 255.971794 
L 517.156662 246.419727 
L 531.636103 238.244799 
L 542.615073 231.726831 
" clip-path="url(#pea47d59ea9)" style="fill: none; stroke: #4d59c1; stroke-width: 0.2"/>
    <path d="M 458.312613 154.747719 
L 460.065251 156.03549 
L 460.200735 157.926858 
L 460.72153 165.86445 
L 462.305053 173.706814 
L 463.208277 179.985979 
L 470.96639 200.629872 
L 476.931508 220.327348 
L 482.315297 241.101628 
L 486.568134 254.664978 
L 488.78968 258.015526 
L 491.043895 260.110535 
L 492.415065 263.768742 
L 500.050186 279.460796 
L 503.198016 284.364288 
L 506.651404 293.169184 
L 507.011733 294.07458 
L 510.953247 303.969466 
" clip-path="url(#pea47d59ea9)" style="fill: none; stroke: #4d59c1; stroke-width: 0.2"/>
    <path d="M 584.392042 305.604452 
L 574.753494 288.564561 
L 565.763538 272.476946 
L 555.41202 253.175031 
L 542.615073 231.726831 
L 536.584615 218.046279 
L 528.937003 204.944417 
L 523.105446 194.678875 
L 516.832847 184.606719 
L 511.959284 178.761205 
L 502.093969 165.026446 
L 489.592972 139.859972 
L 485.194082 129.871323 
L 481.843507 121.182165 
L 480.42141 115.364487 
" clip-path="url(#pea47d59ea9)" style="fill: none; stroke: #4d59c1; stroke-width: 0.2"/>
    <path d="M 463.208277 179.985979 
L 466.146636 179.961074 
L 481.237194 175.601112 
L 497.832484 167.732377 
L 502.093969 165.026446 
" clip-path="url(#pea47d59ea9)" style="fill: none; stroke: #4d59c1; stroke-width: 0.2"/>
    <path d="M 458.312613 154.747719 
L 462.925779 153.253377 
L 465.786307 151.398635 
" clip-path="url(#pea47d59ea9)" style="fill: none; stroke: #4d59c1; stroke-width: 0.2"/>
    <path d="M 405.710415 217.968632 
L 411.75913 214.284054 
L 413.287884 212.687159 
L 417.18808 208.482491 
L 418.048064 205.665218 
" clip-path="url(#pea47d59ea9)" style="fill: none; stroke: #4d59c1; stroke-width: 0.2"/>
    <path d="M 297.032053 201.516228 
L 293.955727 199.088649 
L 286.10643 193.268797 
" clip-path="url(#pea47d59ea9)" style="fill: none; stroke: #4d59c1; stroke-width: 0.2"/>
    <path d="M 265.860615 179.706858 
L 263.208165 178.65253 
" clip-path="url(#pea47d59ea9)" style="fill: none; stroke: #4d59c1; stroke-width: 0.2"/>
    <path d="M 418.048064 205.665218 
L 416.406887 198.322432 
L 415.292271 193.670927 
L 415.328784 188.102306 
L 419.6018 172.419043 
L 421.019092 170.023701 
L 421.225681 169.433289 
" clip-path="url(#pea47d59ea9)" style="fill: none; stroke: #4d59c1; stroke-width: 0.2"/>
    <path d="M 415.292271 193.670927 
L 418.699538 192.900316 
L 422.411402 192.179515 
L 427.205212 190.273497 
L 437.720079 186.924413 
L 442.849235 183.884453 
L 459.936494 180.122228 
L 463.208277 179.985979 
" clip-path="url(#pea47d59ea9)" style="fill: none; stroke: #4d59c1; stroke-width: 0.2"/>
    <path d="M 234.104452 155.856649 
L 234.011475 152.324541 
L 239.843032 149.916014 
L 244.99621 135.379877 
L 244.153522 102.306577 
L 246.260723 92.426341 
L 240.862521 84.384731 
L 236.83111 81.377514 
" clip-path="url(#pea47d59ea9)" style="fill: none; stroke: #4d59c1; stroke-width: 0.2"/>
    <path d="M 262.273806 176.759324 
L 265.536857 176.387839 
" clip-path="url(#pea47d59ea9)" style="fill: none; stroke: #4d59c1; stroke-width: 0.2"/>
    <path d="M 265.536857 176.387839 
L 274.785289 176.387839 
L 284.492059 175.442887 
L 297.104518 174.404173 
L 298.371913 174.314806 
L 310.563509 173.457757 
L 332.310055 170.332824 
L 340.96947 169.689672 
L 348.40569 169.907963 
L 350.583035 170.513025 
L 353.108217 170.822148 
L 371.386001 171.724613 
L 384.076291 174.178557 
L 389.035372 175.073697 
L 393.809005 174.893497 
L 405.993874 172.523061 
L 421.225681 169.433289 
L 428.184345 166.005093 
L 434.175407 161.212944 
L 441.595292 153.035086 
L 443.828368 150.573817 
L 447.204886 147.791704 
L 450.626566 145.534076 
" clip-path="url(#pea47d59ea9)" style="fill: none; stroke: #4d59c1; stroke-width: 0.2"/>
    <path d="M 239.843032 149.916014 
L 258.727129 141.887589 
L 271.998749 149.331462 
L 284.168244 147.941138 
L 291.782225 151.007469 
L 292.441386 153.426252 
L 290.762736 155.417242 
L 297.004587 170.237597 
L 296.890242 171.485812 
L 298.371913 174.314806 
" clip-path="url(#pea47d59ea9)" style="fill: none; stroke: #4d59c1; stroke-width: 0.2"/>
    <path d="M 441.595292 153.035086 
L 442.565777 154.721348 
L 444.781557 155.906566 
L 448.33872 155.390872 
L 453.132531 154.309671 
L 456.791547 154.514777 
L 458.312613 154.747719 
" clip-path="url(#pea47d59ea9)" style="fill: none; stroke: #4d59c1; stroke-width: 0.2"/>
    <path d="M 481.843507 121.182165 
L 477.719427 124.787631 
L 470.740584 131.110748 
L 461.052071 139.470271 
L 455.245497 143.232497 
L 450.626566 145.534076 
L 448.619296 145.68058 
L 444.601873 146.117162 
L 438.833734 147.83126 
L 432.759076 147.881072 
L 425.341113 147.605644 
L 416.921917 147.054789 
L 409.909444 145.459359 
L 401.258677 140.993914 
L 395.554916 139.739839 
L 386.494816 139.165543 
L 373.17227 139.241725 
L 363.419378 140.215977 
L 346.254288 144.212609 
L 329.031546 147.856166 
" clip-path="url(#pea47d59ea9)" style="fill: none; stroke: #4d59c1; stroke-width: 0.2"/>
    <path d="M 234.011475 152.324541 
L 227.023024 148.219496 
L 212.93562 143.723285 
L 206.946154 140.426972 
" clip-path="url(#pea47d59ea9)" style="fill: none; stroke: #4d59c1; stroke-width: 0.2"/>
    <path d="M 193.988972 131.687382 
L 193.680625 130.501291 
L 195.58412 124.305632 
L 199.692826 119.476857 
L 202.536058 113.870146 
" clip-path="url(#pea47d59ea9)" style="fill: none; stroke: #4d59c1; stroke-width: 0.2"/>
    <path d="M 568.572178 398.534931 
L 563.291204 400.779374 
L 542.744791 410.041363 
L 533.116813 415.155821 
L 531.24887 416.067076 
L 526.223489 417.948189 
L 520.03833 419.751654 
L 512.899021 420.938337 
L 505.842347 421.638627 
L 475.889919 422.406308 
L 458.106025 422.510326 
L 454.431635 421.122932 
L 452.256212 419.133407 
L 451.057038 416.771761 
L 449.987583 411.91808 
L 449.034394 404.211965 
L 447.359587 388.776293 
L 445.657876 375.06644 
L 444.807501 365.455771 
L 443.957125 360.146462 
L 442.977993 356.797379 
L 441.328168 352.106317 
L 434.550149 337.779682 
L 427.037059 319.665915 
L 425.065341 315.465643 
L 418.905165 300.491459 
L 416.599063 295.560131 
L 414.724393 290.454463 
L 412.952538 285.241848 
L 411.539089 279.78164 
L 410.141976 270.345311 
L 408.958176 254.451082 
L 407.767651 242.053905 
L 407.463053 229.072177 
L 407.127707 223.970904 
L 406.560791 220.158868 
L 405.710415 217.968632 
L 403.468691 213.897283 
L 402.154213 211.862341 
L 400.246874 209.827399 
L 348.40569 169.907963 
L 336.3294 158.73849 
L 333.056656 154.774089 
L 331.045542 151.987581 
L 329.031546 147.856166 
L 323.093332 133.804958 
L 321.406034 130.066174 
L 317.967058 124.285122 
L 314.836524 119.892929 
L 311.612785 116.231792 
L 307.311028 112.180189 
" clip-path="url(#pea47d59ea9)" style="fill: none; stroke: #4d59c1; stroke-width: 0.2"/>
    <path d="M 246.260723 92.426341 
L 252.181209 88.76426 
" clip-path="url(#pea47d59ea9)" style="fill: none; stroke: #4d59c1; stroke-width: 0.2"/>
    <path d="M 54.031181 80.667193 
L 57.901153 81.32133 
L 64.430306 81.728612 
" clip-path="url(#pea47d59ea9)" style="fill: none; stroke: #4d59c1; stroke-width: 0.2"/>
    <path d="M 476.93343 91.471134 
L 478.456419 100.809305 
L 479.530678 110.504947 
L 479.184763 112.822641 
L 480.42141 115.364487 
" clip-path="url(#pea47d59ea9)" style="fill: none; stroke: #4d59c1; stroke-width: 0.2"/>
    <path d="M 480.42141 115.364487 
L 481.267942 111.356135 
L 485.040341 108.030492 
L 490.812324 104.076347 
L 500.669951 95.952695 
L 507.519076 92.314998 
L 511.193466 88.952729 
L 515.369433 86.090039 
" clip-path="url(#pea47d59ea9)" style="fill: none; stroke: #4d59c1; stroke-width: 0.2"/>
    <path d="M 450.749558 97.414805 
L 457.17878 91.32463 
L 465.220351 82.067036 
L 467.307374 80.455491 
L 469.325214 79.575002 
L 472.099263 79.179441 
L 473.930693 82.36151 
L 475.402755 85.805821 
L 476.93343 91.471134 
" clip-path="url(#pea47d59ea9)" style="fill: none; stroke: #4d59c1; stroke-width: 0.2"/>
    <path d="M 515.369433 86.090039 
L 518.818017 84.245552 
L 522.199255 80.308988 
" clip-path="url(#pea47d59ea9)" style="fill: none; stroke: #4d59c1; stroke-width: 0.2"/>
    <path d="M 472.099263 79.179441 
L 471.809248 77.793786 
" clip-path="url(#pea47d59ea9)" style="fill: none; stroke: #4d59c1; stroke-width: 0.2"/>
   </g>
  </g>
 </g>
 <defs>
  <clipPath id="pea47d59ea9">
   <rect x="7.2" y="7.2" width="837" height="763.174561"/>
  </clipPath>
 </defs>
</svg>
