<?xml version="1.0" encoding="utf-8" standalone="no"?>
<!DOCTYPE svg PUBLIC "-//W3C//DTD SVG 1.1//EN"
  "http://www.w3.org/Graphics/SVG/1.1/DTD/svg11.dtd">
<svg xmlns:xlink="http://www.w3.org/1999/xlink" width="600.859519pt" height="846pt" viewBox="0 0 600.859519 846" xmlns="http://www.w3.org/2000/svg" version="1.1">
 <metadata>
  <rdf:RDF xmlns:dc="http://purl.org/dc/elements/1.1/" xmlns:cc="http://creativecommons.org/ns#" xmlns:rdf="http://www.w3.org/1999/02/22-rdf-syntax-ns#">
   <cc:Work>
    <dc:type rdf:resource="http://purl.org/dc/dcmitype/StillImage"/>
    <dc:date>2025-03-16T14:30:03.751797</dc:date>
    <dc:format>image/svg+xml</dc:format>
    <dc:creator>
     <cc:Agent>
      <dc:title>Matplotlib v3.10.1, https://matplotlib.org/</dc:title>
     </cc:Agent>
    </dc:creator>
   </cc:Work>
  </rdf:RDF>
 </metadata>
 <defs>
  <style type="text/css">*{stroke-linejoin: round; stroke-linecap: butt}</style>
 </defs>
 <g id="figure_1">
  <g id="patch_1">
   <path d="M 0 846 
L 600.859519 846 
L 600.859519 0 
L 0 0 
z
" style="fill: #ffffff"/>
  </g>
  <g id="axes_1">
   <g id="PatchCollection_1">
    <path d="M 567.002268 543.496043 
L 564.272697 508.924311 
L 465.103787 504.37641 
L 498.766662 396.113315 
L 529.699966 378.827449 
L 525.152515 349.717591 
L 502.40609 336.98237 
L 476.931928 282.402071 
L 456.007052 298.77671 
L 392.320731 262.390758 
L 347.739572 203.262558 
L 314.986554 190.530082 
L 309.527412 149.598975 
L 335.911431 108.667867 
L 315.896411 84.111398 
L 314.986554 45 
L 257.669232 45.911227 
L 196.712482 53.187319 
L 140.303182 86.83959 
L 113.009307 246.016119 
L 99.363286 265.11895 
L 110.279736 298.77671 
L 92.994287 326.975342 
L 122.107877 411.579472 
L 89.354859 471.621644 
L 62.060983 492.546928 
L 33.857251 577.162037 
L 52.052556 662.688372 
L 74.797147 662.688372 
L 83.895717 737.301942 
L 107.550165 731.842814 
L 136.663754 792.809936 
L 183.064627 770.97068 
L 215.817645 801 
L 293.151821 728.203395 
L 425.767147 660.141328 
L 431.440913 657.229244 
L 567.002268 543.496043 
" clip-path="url(#p3ea0ad0388)" style="fill: #f29888"/>
   </g>
   <g id="PatchCollection_2">
    <path d="M 217.945536 640.223334 
L 223.65232 648.440845 
L 220.897068 650.507573 
L 221.53727 651.588969 
L 223.997186 649.917471 
L 230.294643 658.329853 
L 220.897068 664.974674 
L 218.782017 662.268439 
L 224.932724 657.690347 
L 222.164631 653.548656 
L 219.963364 655.181728 
L 218.831546 653.606294 
L 221.095182 652.030859 
L 220.258701 650.801252 
L 217.995064 652.376686 
L 216.468853 650.161746 
L 218.141816 648.882735 
L 215.535149 645.388783 
L 213.321041 646.816006 
L 211.697607 644.452854 
L 217.945536 640.223334 
" clip-path="url(#p3ea0ad0388)" style="fill: #f29888"/>
    <path d="M 231.679607 520.322882 
L 230.248784 525.147994 
L 227.029431 524.192852 
L 228.460254 519.367741 
L 231.679607 520.322882 
" clip-path="url(#p3ea0ad0388)" style="fill: #f29888"/>
    <path d="M 234.403675 523.073031 
L 236.135338 515.624025 
L 239.903174 516.499572 
L 238.17151 523.948578 
L 234.403675 523.073031 
" clip-path="url(#p3ea0ad0388)" style="fill: #f29888"/>
    <path d="M 253.206163 504.318773 
L 250.579318 513.856464 
L 246.807814 512.816239 
L 249.434659 503.278547 
L 253.206163 504.318773 
" clip-path="url(#p3ea0ad0388)" style="fill: #f29888"/>
    <path d="M 491.709767 394.546115 
L 489.976269 397.779324 
L 487.936429 396.686949 
L 489.669926 393.45374 
L 491.709767 394.546115 
" clip-path="url(#p3ea0ad0388)" style="fill: #f29888"/>
    <path d="M 485.148157 386.575623 
L 484.882171 387.717402 
L 483.302762 387.349617 
L 483.566914 386.207839 
L 485.148157 386.575623 
" clip-path="url(#p3ea0ad0388)" style="fill: #f29888"/>
    <path d="M 274.083346 345.076371 
L 276.985349 346.445956 
L 275.908563 348.724024 
L 273.00656 347.351694 
L 274.083346 345.076371 
" clip-path="url(#p3ea0ad0388)" style="fill: #f29888"/>
    <path d="M 213.665906 674.666066 
L 214.452859 676.537924 
L 216.617438 675.849015 
L 217.798785 679.587241 
L 215.819479 680.174598 
L 216.360624 682.216625 
L 211.893886 683.62189 
L 209.237691 676.537924 
L 213.665906 674.666066 
" clip-path="url(#p3ea0ad0388)" style="fill: #f29888"/>
    <path d="M 180.657908 560.52391 
L 181.558593 563.213677 
L 180.175464 563.677524 
L 179.274779 560.987758 
L 180.657908 560.52391 
" clip-path="url(#p3ea0ad0388)" style="fill: #f29888"/>
    <path d="M 183.754357 549.583698 
L 179.172053 549.32021 
L 179.338983 546.408127 
L 183.921287 546.671614 
L 183.754357 549.583698 
" clip-path="url(#p3ea0ad0388)" style="fill: #f29888"/>
    <path d="M 197.149067 544.127314 
L 197.668199 549.174743 
L 191.965083 549.7621 
L 191.444116 544.714672 
L 197.149067 544.127314 
" clip-path="url(#p3ea0ad0388)" style="fill: #f29888"/>
    <path d="M 207.33176 542.826346 
L 211.161965 547.102525 
L 208.751578 549.259828 
L 205.895434 546.070533 
L 205.458849 546.46302 
L 204.486623 545.376135 
L 207.33176 542.826346 
" clip-path="url(#p3ea0ad0388)" style="fill: #f29888"/>
   </g>
   <g id="LineCollection_1">
    <path d="M 123.83954 707.234196 
L 135.900648 737.710896 
" clip-path="url(#p3ea0ad0388)" style="fill: none; stroke: #f29888; stroke-width: 0.2"/>
    <path d="M 165.056429 691.831167 
L 171.862013 684.991476 
L 175.794943 675.341253 
L 173.23597 662.979306 
L 110.257723 686.363805 
L 103.565872 634.399166 
L 101.366439 621.455352 
L 94.905721 583.422605 
" clip-path="url(#p3ea0ad0388)" style="fill: none; stroke: #f29888; stroke-width: 0.2"/>
    <path d="M 67.538469 588.695096 
L 37.021905 592.03737 
" clip-path="url(#p3ea0ad0388)" style="fill: none; stroke: #f29888; stroke-width: 0.2"/>
    <path d="M 94.905721 583.422605 
L 88.074455 586.44722 
L 67.538469 588.695096 
" clip-path="url(#p3ea0ad0388)" style="fill: none; stroke: #f29888; stroke-width: 0.2"/>
    <path d="M 74.747619 492.522226 
L 72.997611 497.256764 
L 71.929997 502.864103 
L 70.61474 506.992071 
L 69.561801 510.247237 
L 68.892249 511.87482 
L 67.360534 513.310277 
L 63.724774 513.310277 
L 62.288448 514.841797 
L 61.044732 522.691524 
L 57.695137 542.406413 
L 62.576447 563.466186 
L 62.671835 568.634379 
L 64.777714 575.622283 
L 66.500205 583.853517 
L 67.538469 588.695096 
L 70.519352 600.700237 
L 76.4536 627.021522 
L 77.794539 634.967311 
L 78.368703 641.955214 
L 78.942866 648.177357 
L 79.109796 653.600805 
" clip-path="url(#p3ea0ad0388)" style="fill: none; stroke: #f29888; stroke-width: 0.2"/>
    <path d="M 176.660775 561.907219 
L 140.76178 571.455889 
L 94.905721 583.422605 
" clip-path="url(#p3ea0ad0388)" style="fill: none; stroke: #f29888; stroke-width: 0.2"/>
    <path d="M 94.905721 583.422605 
L 87.230636 538.942653 
" clip-path="url(#p3ea0ad0388)" style="fill: none; stroke: #f29888; stroke-width: 0.2"/>
    <path d="M 101.355433 538.887759 
L 132.308915 541.047806 
L 136.236342 563.15055 
L 140.76178 571.455889 
" clip-path="url(#p3ea0ad0388)" style="fill: none; stroke: #f29888; stroke-width: 0.2"/>
    <path d="M 221.060329 790.293083 
L 223.587649 793.685899 
" clip-path="url(#p3ea0ad0388)" style="fill: none; stroke: #f29888; stroke-width: 0.5"/>
    <path d="M 221.060329 790.293083 
L 213.610874 779.879845 
L 212.51391 775.941258 
L 213.018367 773.111515 
L 214.414337 769.502287 
L 218.365611 764.858323 
L 224.011861 758.444054 
L 229.72048 750.374755 
L 250.599496 705.806973 
L 252.283466 700.169443 
L 251.329583 695.426671 
" clip-path="url(#p3ea0ad0388)" style="fill: none; stroke: #f29888; stroke-width: 0.5"/>
    <path d="M 135.900648 737.710896 
L 174.382463 724.146788 
L 179.214244 723.282221 
L 186.084031 718.668448 
L 203.307111 711.628396 
L 195.925529 695.588606 
L 169.792822 705.381551 
" clip-path="url(#p3ea0ad0388)" style="fill: none; stroke: #f29888; stroke-width: 0.2"/>
    <path d="M 212.51391 775.941258 
L 207.67846 772.773921 
L 191.502817 734.118137 
L 186.350018 728.137523 
L 179.214244 723.282221 
L 174.06328 717.658413 
L 169.792822 705.381551 
L 165.056429 691.831167 
L 123.83954 707.234196 
L 117.443025 705.559954 
L 102.092857 707.72549 
L 100.419894 703.493225 
L 94.415939 659.501823 
L 92.546696 658.714105 
L 81.078095 659.702183 
L 79.109796 653.600805 
" clip-path="url(#p3ea0ad0388)" style="fill: none; stroke: #f29888; stroke-width: 0.2"/>
    <path d="M 173.23597 662.979306 
L 155.040664 615.230464 
L 101.366439 621.455352 
" clip-path="url(#p3ea0ad0388)" style="fill: none; stroke: #f29888; stroke-width: 0.2"/>
    <path d="M 251.329583 695.426671 
L 245.857601 682.425219 
L 236.753527 661.711273 
L 233.603881 653.878015 
L 229.338927 647.104195 
L 205.304761 614.272578 
L 201.201232 608.722877 
L 197.05001 602.906943 
L 192.234738 594.516519 
L 178.7318 567.349879 
L 176.660775 561.907219 
L 175.708727 556.439857 
L 174.78236 546.032108 
L 174.848398 541.865715 
L 177.959522 541.813566 
L 189.839026 541.566547 
L 208.093032 541.646142 
L 211.560027 541.135636 
" clip-path="url(#p3ea0ad0388)" style="fill: none; stroke: #f29888; stroke-width: 0.5"/>
    <path d="M 215.848829 543.19413 
L 211.317888 560.04085 
L 215.746103 573.684553 
L 226.002173 600.07171 
L 236.017937 619.248646 
L 246.936221 644.532449 
" clip-path="url(#p3ea0ad0388)" style="fill: none; stroke: #f29888; stroke-width: 0.2"/>
    <path d="M 140.76178 571.455889 
L 155.040664 615.230464 
L 197.05001 602.906943 
" clip-path="url(#p3ea0ad0388)" style="fill: none; stroke: #f29888; stroke-width: 0.2"/>
    <path d="M 205.304761 614.272578 
L 224.996928 600.34892 
L 226.002173 600.07171 
L 236.412331 597.200796 
L 245.661321 598.971101 
L 353.512394 555.473737 
L 336.511276 516.42821 
" clip-path="url(#p3ea0ad0388)" style="fill: none; stroke: #f29888; stroke-width: 0.2"/>
    <path d="M 68.38585 487.697868 
L 74.747619 492.522226 
L 76.405906 493.77928 
L 90.939771 502.660998 
" clip-path="url(#p3ea0ad0388)" style="fill: none; stroke: #f29888; stroke-width: 0.2"/>
    <path d="M 157.296963 285.720364 
L 151.096728 284.441353 
L 144.925843 282.956492 
L 137.949661 280.991316 
L 133.994718 280.060876 
L 129.561 277.500109 
L 120.08638 274.936597 
L 109.898183 272.727146 
L 101.777342 271.124265 
L 101.290597 271.061262 
" clip-path="url(#p3ea0ad0388)" style="fill: none; stroke: #f29888; stroke-width: 0.2"/>
    <path d="M 144.135221 479.424711 
L 134.145138 516.51055 
L 132.119972 528.930135 
L 132.308915 541.047806 
L 158.195814 542.453072 
L 171.328205 541.783375 
L 174.848398 541.865715 
" clip-path="url(#p3ea0ad0388)" style="fill: none; stroke: #f29888; stroke-width: 0.2"/>
    <path d="M 233.321385 545.864684 
L 252.699872 469.631765 
L 261.198597 433.690449 
" clip-path="url(#p3ea0ad0388)" style="fill: none; stroke: #f29888; stroke-width: 0.2"/>
    <path d="M 109.076376 471.635367 
L 144.135221 479.424711 
L 187.012232 488.954169 
L 225.692161 494.726188 
" clip-path="url(#p3ea0ad0388)" style="fill: none; stroke: #f29888; stroke-width: 0.2"/>
    <path d="M 252.699872 469.631765 
L 280.84307 474.846619 
L 287.338642 441.09554 
" clip-path="url(#p3ea0ad0388)" style="fill: none; stroke: #f29888; stroke-width: 0.2"/>
    <path d="M 235.034705 332.933997 
L 205.29192 417.038599 
L 191.55418 471.086435 
L 187.012232 488.954169 
L 174.888755 539.063418 
L 174.848398 541.865715 
" clip-path="url(#p3ea0ad0388)" style="fill: none; stroke: #f29888; stroke-width: 0.2"/>
    <path d="M 191.55418 471.086435 
L 161.033614 453.331232 
L 171.071391 422.827086 
L 160.050381 412.202509 
L 163.867745 400.040923 
" clip-path="url(#p3ea0ad0388)" style="fill: none; stroke: #f29888; stroke-width: 0.2"/>
    <path d="M 145.289052 392.523301 
L 163.867745 400.040923 
L 170.269763 402.631882 
L 205.29192 417.038599 
L 242.124619 428.286214 
L 261.198597 433.690449 
L 287.338642 441.09554 
" clip-path="url(#p3ea0ad0388)" style="fill: none; stroke: #f29888; stroke-width: 0.2"/>
    <path d="M 211.560027 541.135636 
L 213.080736 539.472372 
L 218.800361 521.527788 
L 225.013437 497.586123 
L 225.692161 494.726188 
L 235.810651 452.090646 
L 242.124619 428.286214 
L 243.327978 423.752037 
L 248.148753 408.329795 
L 253.930747 395.99255 
L 276.866114 352.972757 
L 278.717013 349.500762 
L 287.811914 332.640319 
L 293.914927 321.10177 
L 299.662068 308.874312 
L 303.261139 300.365867 
L 308.120436 288.536385 
L 312.462435 278.573271 
" clip-path="url(#p3ea0ad0388)" style="fill: none; stroke: #f29888; stroke-width: 0.5"/>
    <path d="M 213.110086 260.472241 
L 191.805491 301.340222 
L 184.339527 315.661855 
L 174.022923 335.453595 
L 145.289052 392.523301 
L 126.394844 440.541119 
L 109.076376 471.635367 
L 91.363515 501.351796 
L 90.939771 502.660998 
L 87.034357 514.734756 
L 87.230636 538.942653 
L 101.355433 538.887759 
" clip-path="url(#p3ea0ad0388)" style="fill: none; stroke: #f29888; stroke-width: 0.2"/>
    <path d="M 228.555643 269.150855 
L 202.395419 323.429242 
L 199.805262 328.803285 
L 199.159557 332.662276 
L 200.395935 337.814002 
L 200.001542 342.537561 
L 170.269763 402.631882 
" clip-path="url(#p3ea0ad0388)" style="fill: none; stroke: #f29888; stroke-width: 0.2"/>
    <path d="M 276.866114 352.972757 
L 235.034705 332.933997 
L 233.066405 332.901062 
L 229.817702 333.095932 
L 209.547703 326.506005 
L 202.395419 323.429242 
L 184.339527 315.661855 
" clip-path="url(#p3ea0ad0388)" style="fill: none; stroke: #f29888; stroke-width: 0.2"/>
    <path d="M 233.066405 332.901062 
L 234.836591 325.421864 
L 243.548105 305.671294 
L 261.110546 314.500864 
L 282.169333 330.145423 
L 287.811914 332.640319 
" clip-path="url(#p3ea0ad0388)" style="fill: none; stroke: #f29888; stroke-width: 0.2"/>
    <path d="M 243.548105 305.671294 
L 254.681012 283.746954 
" clip-path="url(#p3ea0ad0388)" style="fill: none; stroke: #f29888; stroke-width: 0.2"/>
    <path d="M 191.805491 301.340222 
L 178.994117 294.291936 
L 171.221811 292.669842 
L 158.870869 286.766079 
L 157.296963 285.720364 
L 153.754758 283.365446 
L 149.326542 276.871582 
L 149.473293 272.938485 
L 151.637873 268.607412 
L 151.096728 266.20309 
L 150.753697 264.575507 
" clip-path="url(#p3ea0ad0388)" style="fill: none; stroke: #f29888; stroke-width: 0.2"/>
    <path d="M 150.999505 259.267336 
L 150.753697 264.575507 
" clip-path="url(#p3ea0ad0388)" style="fill: none; stroke: #f29888; stroke-width: 0.2"/>
    <path d="M 150.999505 259.267336 
L 147.154626 252.611536 
L 145.215676 248.900757 
L 144.030661 245.291529 
" clip-path="url(#p3ea0ad0388)" style="fill: none; stroke: #f29888; stroke-width: 0.2"/>
    <path d="M 141.68998 245.033531 
L 144.030661 245.291529 
" clip-path="url(#p3ea0ad0388)" style="fill: none; stroke: #f29888; stroke-width: 0.2"/>
    <path d="M 279.819481 233.684364 
L 275.583876 232.377906 
L 266.575191 230.407241 
L 248.121237 224.874007 
" clip-path="url(#p3ea0ad0388)" style="fill: none; stroke: #f29888; stroke-width: 0.2"/>
    <path d="M 267.04296 183.745284 
L 263.001801 194.117352 
L 251.593735 223.391891 
L 248.121237 224.874007 
L 235.161278 220.833868 
L 213.110086 260.472241 
" clip-path="url(#p3ea0ad0388)" style="fill: none; stroke: #f29888; stroke-width: 0.2"/>
    <path d="M 263.001801 194.117352 
L 265.837767 192.701108 
L 271.102464 194.227139 
L 273.611908 194.817241 
L 274.940006 195.456746 
L 277.007362 195.604958 
L 285.027311 194.520817 
L 292.898675 196.19506 
L 299.443775 194.474158 
L 309.136687 192.456833 
L 315.338742 190.666992 
" clip-path="url(#p3ea0ad0388)" style="fill: none; stroke: #f29888; stroke-width: 0.2"/>
    <path d="M 101.706 261.839424 
L 108.738849 262.41546 
L 121.287905 262.882052 
L 129.49863 262.681692 
L 133.103205 260.878451 
L 138.575188 261.548148 
L 150.753697 264.575507 
" clip-path="url(#p3ea0ad0388)" style="fill: none; stroke: #f29888; stroke-width: 0.2"/>
    <path d="M 141.68998 245.033531 
L 136.627067 243.120504 
L 132.773015 241.281582 
L 126.246259 241.122391 
L 114.322112 238.359901 
" clip-path="url(#p3ea0ad0388)" style="fill: none; stroke: #f29888; stroke-width: 0.2"/>
    <path d="M 125.445568 173.488459 
L 130.397481 181.148836 
L 132.340099 183.651966 
L 134.390946 188.123016 
L 134.796346 193.584888 
L 134.695455 201.27268 
L 134.695455 206.734552 
L 134.796346 213.714221 
L 135.808929 217.356385 
L 137.225077 220.894251 
L 138.9439 223.424827 
L 140.066546 223.43855 
L 140.638876 224.670902 
L 142.047686 229.248994 
L 143.060269 233.783172 
L 144.60299 236.294535 
L 144.735066 239.420703 
L 144.030661 245.291529 
" clip-path="url(#p3ea0ad0388)" style="fill: none; stroke: #f29888; stroke-width: 0.2"/>
    <path d="M 136.70555 107.820805 
L 136.828849 107.204964 
L 138.995263 99.336025 
L 143.324421 95.202567 
L 143.748165 85.730747 
" clip-path="url(#p3ea0ad0388)" style="fill: none; stroke: #f29888; stroke-width: 0.2"/>
    <path d="M 141.034385 86.403374 
L 143.748165 85.730747 
L 151.439759 83.823209 
L 165.574201 71.76358 
" clip-path="url(#p3ea0ad0388)" style="fill: none; stroke: #f29888; stroke-width: 0.2"/>
    <path d="M 174.408274 66.49341 
L 176.78001 65.494373 
" clip-path="url(#p3ea0ad0388)" style="fill: none; stroke: #f29888; stroke-width: 0.2"/>
    <path d="M 138.995263 99.336025 
L 138.13288 99.496684 
" clip-path="url(#p3ea0ad0388)" style="fill: none; stroke: #f29888; stroke-width: 0.2"/>
    <path d="M 277.007362 195.604958 
L 278.926133 189.602387 
L 279.122413 184.14326 
L 280.599096 177.207505 
L 280.894433 173.271663 
L 279.958894 168.844527 
L 277.990595 165.303917 
L 277.744787 161.958177 
L 275.48115 160.975589 
L 271.496857 161.269267 
L 265.296622 159.891448 
L 259.736589 158.318758 
L 256.095326 157.923527 
L 249.453003 159.202538 
L 247.928626 161.56569 
L 244.632229 162.745894 
L 243.155545 164.367988 
L 236.120663 159.696577 
L 233.119603 157.234618 
L 229.280226 156.103818 
L 226.132415 153.350924 
L 222.195815 151.383003 
L 219.490092 152.121317 
L 218.899418 155.071826 
L 216.536725 158.269354 
L 213.388913 158.90886 
L 212.75238 158.724968 
" clip-path="url(#p3ea0ad0388)" style="fill: none; stroke: #f29888; stroke-width: 0.2"/>
    <path d="M 276.198397 144.384122 
L 277.843844 145.578049 
L 278.876605 147.938456 
L 279.663558 152.121317 
L 279.909366 154.135897 
L 278.827076 156.499049 
L 277.352227 158.810052 
L 277.744787 161.958177 
" clip-path="url(#p3ea0ad0388)" style="fill: none; stroke: #f29888; stroke-width: 0.2"/>
    <path d="M 208.26363 132.411917 
L 210.406197 137.50875 
L 211.339901 140.846256 
L 210.272286 145.517666 
L 211.20599 152.189933 
L 212.479056 155.464312 
L 212.75238 158.724968 
" clip-path="url(#p3ea0ad0388)" style="fill: none; stroke: #f29888; stroke-width: 0.2"/>
    <path d="M 269.435004 129.101857 
L 271.205189 133.152975 
L 274.585969 137.989065 
L 275.730627 140.327515 
L 276.198397 144.384122 
L 275.78199 146.725316 
L 274.430045 149.168063 
L 271.777519 152.755333 
L 268.761783 154.887934 
L 265.069158 155.458823 
L 260.804203 155.92816 
L 257.192291 156.781749 
" clip-path="url(#p3ea0ad0388)" style="fill: none; stroke: #f29888; stroke-width: 0.2"/>
    <path d="M 312.73209 106.927753 
L 305.697208 111.450952 
L 294.030493 121.22194 
L 285.830774 128.945412 
L 281.890506 129.733129 
L 269.435004 129.101857 
L 261.710391 118.383962 
L 224.030205 113.970549 
L 220.719132 114.286185 
L 218.985635 116.964973 
L 214.096988 124.216363 
L 210.15672 125.163271 
L 208.736903 128.31414 
L 208.26363 132.411917 
L 205.899103 136.98452 
L 201.170047 138.244318 
L 160.809818 140.923106 
L 130.736277 142.633305 
" clip-path="url(#p3ea0ad0388)" style="fill: none; stroke: #f29888; stroke-width: 0.2"/>
    <path d="M 261.710391 118.383962 
L 263.814436 117.955795 
L 271.575736 86.120489 
L 271.445494 83.186448 
" clip-path="url(#p3ea0ad0388)" style="fill: none; stroke: #f29888; stroke-width: 0.2"/>
    <path d="M 329.731935 118.254488 
L 326.15615 115.076647 
L 312.73209 106.927753 
L 304.11413 101.696432 
L 271.445494 83.186448 
L 267.36031 80.8727 
L 243.496742 71.595751 
L 212.992685 67.462294 
L 176.78001 65.494373 
" clip-path="url(#p3ea0ad0388)" style="fill: none; stroke: #f29888; stroke-width: 0.2"/>
    <path d="M 271.445494 83.186448 
L 265.056317 70.130103 
L 264.434459 63.776216 
L 267.176871 56.673037 
L 267.503152 45.754888 
" clip-path="url(#p3ea0ad0388)" style="fill: none; stroke: #f29888; stroke-width: 0.2"/>
    <path d="M 484.938587 440.585755 
L 467.901231 437.958394 
" clip-path="url(#p3ea0ad0388)" style="fill: none; stroke: #f29888; stroke-width: 0.2"/>
    <path d="M 498.397929 601.053679 
L 499.078508 597.288625 
L 500.131448 590.885334 
L 502.281352 583.828815 
" clip-path="url(#p3ea0ad0388)" style="fill: none; stroke: #f29888; stroke-width: 0.2"/>
    <path d="M 459.925092 633.331601 
L 456.194159 633.540088 
L 454.16716 633.350706 
L 451.380722 634.618739 
L 448.467713 634.426613 
L 443.404799 633.809065 
L 437.576944 633.36443 
L 433.016653 633.553811 
L 429.503798 633.726725 
" clip-path="url(#p3ea0ad0388)" style="fill: none; stroke: #f29888; stroke-width: 0.2"/>
    <path d="M 473.727171 621.75194 
L 472.987992 620.135171 
L 467.668263 610.336736 
" clip-path="url(#p3ea0ad0388)" style="fill: none; stroke: #f29888; stroke-width: 0.2"/>
    <path d="M 508.004646 579.291892 
L 505.698818 579.099766 
L 501.36966 574.376207 
L 496.941445 569.013142 
L 491.183297 563.995905 
L 487.543869 561.141459 
L 483.691652 553.958685 
L 481.097826 552.627525 
L 479.325806 550.365926 
L 478.243517 549.185722 
L 476.374274 548.348601 
L 474.011581 546.281872 
L 470.913298 541.165827 
L 465.402793 536.834754 
L 460.580184 532.503681 
L 456.546362 527.634655 
L 454.873399 526.059221 
L 452.125484 526.536792 
" clip-path="url(#p3ea0ad0388)" style="fill: none; stroke: #f29888; stroke-width: 0.2"/>
    <path d="M 483.561516 505.222885 
L 484.396058 508.910588 
L 484.799623 512.042245 
L 484.788617 514.430098 
L 485.131648 519.784929 
L 485.544385 524.313617 
L 488.56379 527.950291 
L 495.083209 536.252886 
L 496.317753 538.654463 
L 495.906849 541.196018 
L 494.80805 543.872061 
L 492.131677 546.136405 
L 490.554102 549.018298 
L 487.945601 551.351258 
L 483.691652 553.958685 
L 481.288603 554.850699 
L 477.583137 556.497495 
L 473.602512 557.663975 
L 470.172205 559.173538 
L 467.083093 561.028928 
L 466.123708 561.097544 
" clip-path="url(#p3ea0ad0388)" style="fill: none; stroke: #f29888; stroke-width: 0.2"/>
    <path d="M 430.962137 506.185141 
L 435.280289 510.458576 
L 439.8736 514.287376 
L 440.926539 515.602068 
L 443.318582 518.593747 
L 445.961937 521.14628 
L 448.487891 524.146193 
L 452.125484 526.536792 
" clip-path="url(#p3ea0ad0388)" style="fill: none; stroke: #f29888; stroke-width: 0.2"/>
    <path d="M 345.318178 666.854765 
L 346.952619 668.062416 
L 347.035167 669.8437 
L 345.738253 672.033938 
L 346.084953 672.640508 
L 346.71048 673.735627 
L 347.682706 675.92312 
L 348.168819 678.437229 
L 348.818193 679.815048 
L 350.063743 680.509447 
L 351.734871 680.624722 
L 354.734098 680.300852 
L 357.650776 679.976983 
L 360.083176 679.326498 
L 362.027629 678.923033 
L 363.405255 678.192954 
" clip-path="url(#p3ea0ad0388)" style="fill: none; stroke: #f29888; stroke-width: 0.2"/>
    <path d="M 347.462579 671.869258 
L 346.084953 672.640508 
" clip-path="url(#p3ea0ad0388)" style="fill: none; stroke: #f29888; stroke-width: 0.2"/>
    <path d="M 425.767147 660.141328 
L 415.685345 661.57953 
L 399.970133 666.728511 
L 396.385737 668.474115 
L 394.087247 668.290222 
L 386.826735 671.232497 
L 384.163202 671.323071 
L 369.825617 677.572661 
L 368.447991 677.849871 
L 366.39164 679.246903 
L 361.279198 680.514936 
L 360.083176 679.326498 
" clip-path="url(#p3ea0ad0388)" style="fill: none; stroke: #f29888; stroke-width: 0.2"/>
    <path d="M 354.890021 603.69466 
L 356.674881 605.731198 
L 357.439822 608.220604 
L 359.259536 613.77305 
L 360.982027 621.142461 
L 362.799907 627.938238 
L 362.225743 631.863101 
L 359.354924 636.265535 
L 353.132676 644.881021 
L 348.920919 651.295291 
L 346.240876 655.409535 
L 341.359567 659.622588 
L 335.999482 666.418365 
L 332.075723 672.832634 
L 329.395681 676.469308 
L 324.228207 679.628411 
L 318.101347 681.733565 
L 315.518527 683.7454 
L 313.315426 688.628149 
L 311.30677 692.16876 
L 307.764564 695.327863 
L 302.213703 701.453943 
L 299.438272 704.231539 
L 295.514514 707.868213 
L 292.355696 710.83519 
L 288.996929 714.263269 
L 285.463896 718.973105 
L 283.070018 721.270385 
L 281.27782 722.999521 
L 278.612453 724.994888 
L 276.295619 726.735002 
L 274.077843 727.415678 
L 271.751837 727.432146 
L 269.741347 726.180581 
L 267.839085 723.584133 
L 265.667169 720.361903 
L 262.179995 714.960413 
L 258.164517 708.063084 
L 255.1231 702.439276 
L 251.329583 695.426671 
" clip-path="url(#p3ea0ad0388)" style="fill: none; stroke: #f29888; stroke-width: 0.2"/>
    <path d="M 362.225743 631.863101 
L 362.005616 636.282003 
L 360.270284 640.687181 
L 357.199517 646.429009 
L 351.059816 657.374711 
L 345.318178 666.854765 
L 343.716757 668.990111 
L 341.04772 672.862825 
L 338.776747 677.934956 
L 338.37685 681.541439 
L 335.9738 684.612713 
L 332.770957 686.347337 
L 328.498665 687.681242 
L 322.624951 688.482683 
L 318.086672 689.017891 
L 313.315426 688.628149 
" clip-path="url(#p3ea0ad0388)" style="fill: none; stroke: #f29888; stroke-width: 0.2"/>
    <path d="M 411.746911 654.336373 
L 412.627418 654.023482 
L 414.140789 653.493763 
L 416.499813 652.774662 
L 417.505059 652.18456 
L 417.723351 651.855201 
" clip-path="url(#p3ea0ad0388)" style="fill: none; stroke: #f29888; stroke-width: 0.2"/>
    <path d="M 444.632005 625.544895 
L 440.172605 628.972975 
L 435.100519 630.976576 
L 429.503798 633.726725 
L 427.491473 634.714802 
L 424.152885 637.119124 
L 418.147095 640.187653 
L 412.273381 643.127184 
L 407.867178 645.262529 
L 402.927168 647.397874 
L 397.036945 650.164491 
L 394.116598 651.536821 
L 387.842987 653.139702 
L 381.569376 655.541279 
L 374.092406 658.346321 
L 369.688038 660.616154 
L 363.9464 661.549339 
L 357.138982 665.822773 
L 354.869842 667.826375 
L 352.332882 672.363297 
L 351.265268 676.236012 
L 350.59755 678.371357 
L 350.063743 680.509447 
" clip-path="url(#p3ea0ad0388)" style="fill: none; stroke: #f29888; stroke-width: 0.2"/>
    <path d="M 429.848295 658.046662 
L 427.713434 657.339031 
L 421.661784 656.600717 
L 419.201869 654.926475 
L 415.953166 654.630052 
L 411.746911 654.336373 
L 409.558485 653.965844 
L 406.803233 654.138758 
L 403.259193 654.385777 
L 401.734815 654.336373 
L 400.208604 652.90915 
L 397.036945 650.164491 
L 392.803175 636.608617 
" clip-path="url(#p3ea0ad0388)" style="fill: none; stroke: #f29888; stroke-width: 0.2"/>
    <path d="M 429.503798 633.726725 
L 425.422282 633.383642 
L 420.687724 632.491628 
L 417.05013 631.805463 
L 410.092292 631.440423 
L 403.426122 632.733158 
L 398.926366 633.940808 
L 394.428444 635.691901 
L 392.803175 636.608617 
" clip-path="url(#p3ea0ad0388)" style="fill: none; stroke: #f29888; stroke-width: 0.2"/>
    <path d="M 357.839718 601.924355 
L 354.890021 603.69466 
L 246.936221 644.532449 
L 242.153969 649.997067 
L 233.603881 653.878015 
" clip-path="url(#p3ea0ad0388)" style="fill: none; stroke: #f29888; stroke-width: 0.2"/>
    <path d="M 357.709477 563.982181 
L 361.569031 565.236491 
L 366.10731 567.830194 
L 369.592649 569.614223 
L 372.023215 569.452288 
L 378.263807 573.503405 
L 381.030066 575.861068 
L 383.774312 578.608472 
L 390.258877 584.687893 
L 394.472469 588.173611 
L 396.336208 589.713365 
L 398.363208 590.684974 
L 400.307661 591.659328 
L 404.523087 592.954808 
L 408.575252 594.494562 
L 409.547479 595.872381 
L 410.033592 597.494474 
L 411.005818 599.113823 
L 412.302731 599.764308 
L 413.427212 600.016816 
L 416.391585 600.016816 
L 418.134254 600.132092 
" clip-path="url(#p3ea0ad0388)" style="fill: none; stroke: #f29888; stroke-width: 0.2"/>
    <path d="M 353.512394 555.473737 
L 357.709477 563.982181 
L 360.989365 570.629747 
L 357.839718 601.924355 
" clip-path="url(#p3ea0ad0388)" style="fill: none; stroke: #f29888; stroke-width: 0.2"/>
    <path d="M 466.123708 561.097544 
L 460.442605 563.290527 
L 457.039813 564.588751 
L 452.824387 568.154064 
L 449.258334 571.233572 
L 446.016969 572.369861 
L 442.614177 575.125499 
L 439.695664 576.503318 
L 436.615724 579.744761 
L 433.212933 579.986291 
L 430.132993 578.366942 
L 428.349967 577.392588 
L 422.351515 581.202175 
L 416.110923 583.633944 
L 409.708905 586.148052 
L 405.495313 587.363936 
L 399.902261 588.173611 
L 396.336208 589.713365 
L 393.986356 590.443444 
L 390.74499 590.605379 
L 385.720599 591.170779 
L 378.74992 593.037147 
L 375.669981 594.738836 
L 370.337411 596.234676 
" clip-path="url(#p3ea0ad0388)" style="fill: none; stroke: #f29888; stroke-width: 0.2"/>
    <path d="M 211.560027 541.135636 
L 215.848829 543.19413 
L 223.991682 545.216944 
L 233.321385 545.864684 
L 243.623315 543.674446 
L 315.79552 521.459171 
L 336.511276 516.42821 
L 360.991199 510.011196 
L 389.073862 504.82379 
L 396.532488 503.577715 
L 419.24406 501.747027 
L 428.29677 501.944642 
L 455.456735 498.991388 
L 466.135655 501.057824 
" clip-path="url(#p3ea0ad0388)" style="fill: none; stroke: #f29888; stroke-width: 0.2"/>
    <path d="M 488.917656 505.468518 
L 498.164982 507.258303 
L 519.025655 509.61871 
L 530.046665 508.636122 
L 561.755915 513.00562 
L 565.206345 520.749551 
" clip-path="url(#p3ea0ad0388)" style="fill: none; stroke: #f29888; stroke-width: 0.2"/>
    <path d="M 566.082279 531.843802 
L 508.004646 579.291892 
L 502.281352 583.828815 
L 474.743502 605.665326 
L 467.668263 610.336736 
L 444.632005 625.544895 
" clip-path="url(#p3ea0ad0388)" style="fill: none; stroke: #f29888; stroke-width: 0.2"/>
    <path d="M 357.839718 601.924355 
L 364.819569 600.019561 
L 370.337411 596.234676 
L 372.826677 591.11863 
L 376.104731 585.579907 
L 378.480265 581.284515 
L 380.287138 576.989123 
L 381.030066 575.861068 
L 383.565191 572.0158 
L 389.330676 567.94547 
L 394.417437 564.102947 
L 406.513399 551.666894 
L 411.260798 547.596564 
L 418.154432 541.720248 
L 424.824271 536.519118 
L 428.327954 533.354526 
L 432.624094 529.624533 
L 437.032131 526.572472 
L 438.290522 525.38129 
L 441.32827 522.502142 
L 445.961937 521.14628 
L 453.648027 518.887425 
L 455.796097 517.191226 
L 460.204134 512.442965 
L 462.579668 507.807235 
L 466.026466 501.408986 
" clip-path="url(#p3ea0ad0388)" style="fill: none; stroke: #f29888; stroke-width: 0.2"/>
    <path d="M 357.709477 563.982181 
L 363.973916 561.473563 
L 372.20482 557.740826 
L 377.946457 556.113243 
L 384.359482 552.668695 
L 388.954627 550.467478 
L 393.931324 548.551706 
L 415.467052 537.161369 
L 425.708447 533.143187 
L 432.791023 528.260438 
L 438.290522 525.38129 
" clip-path="url(#p3ea0ad0388)" style="fill: none; stroke: #f29888; stroke-width: 0.2"/>
    <path d="M 564.632844 513.485791 
L 561.755915 513.00562 
" clip-path="url(#p3ea0ad0388)" style="fill: none; stroke: #f29888; stroke-width: 0.2"/>
    <path d="M 498.164982 507.258303 
L 485.694805 511.926969 
L 484.799623 512.042245 
L 480.488809 512.593921 
L 473.41357 512.058712 
L 470.342803 512.994641 
L 466.472242 515.796939 
L 459.664824 517.935029 
L 453.648027 518.887425 
" clip-path="url(#p3ea0ad0388)" style="fill: none; stroke: #f29888; stroke-width: 0.2"/>
    <path d="M 472.844891 479.480265 
L 473.468602 473.66367 
L 474.677464 469.895253 
L 476.445815 466.769086 
L 476.931923 466.335972 
" clip-path="url(#p3ea0ad0388)" style="fill: none; stroke: #f29888; stroke-width: 0.2"/>
    <path d="M 468.269943 405.686688 
L 461.908282 422.000944 
L 455.264124 433.778278 
" clip-path="url(#p3ea0ad0388)" style="fill: none; stroke: #f29888; stroke-width: 0.2"/>
    <path d="M 468.269943 405.686688 
L 473.004501 393.9368 
L 474.330765 390.02566 
L 475.266303 388.966222 
L 477.579468 387.838167 
L 493.175444 390.640464 
L 503.189374 391.573648 
L 507.039469 391.490381 
" clip-path="url(#p3ea0ad0388)" style="fill: none; stroke: #f29888; stroke-width: 0.2"/>
    <path d="M 477.579468 387.838167 
L 482.249822 384.237173 
L 484.955546 381.445855 
L 485.487519 377.101059 
L 480.255841 372.665689 
L 478.703948 369.783796 
L 477.950014 365.219428 
L 477.451061 358.632245 
" clip-path="url(#p3ea0ad0388)" style="fill: none; stroke: #f29888; stroke-width: 0.2"/>
    <path d="M 477.451061 358.632245 
L 478.313223 356.269093 
" clip-path="url(#p3ea0ad0388)" style="fill: none; stroke: #f29888; stroke-width: 0.2"/>
    <path d="M 478.313223 356.269093 
L 479.312965 353.650688 
L 485.342602 350.192417 
L 489.950588 347.316013 
L 492.726019 344.170634 
L 496.869904 335.631998 
" clip-path="url(#p3ea0ad0388)" style="fill: none; stroke: #f29888; stroke-width: 0.2"/>
    <path d="M 466.472242 515.796939 
L 464.758922 517.92405 
L 454.135975 524.239511 
L 452.125484 526.536792 
L 449.252831 530.845907 
L 446.956176 532.951061 
L 443.318582 534.960152 
L 441.309926 536.683798 
L 438.916048 539.458649 
L 436.714781 542.905941 
L 433.460575 545.584729 
L 427.718937 547.020186 
L 422.740405 549.221403 
L 418.337871 548.935958 
L 414.988277 548.935958 
L 412.212846 549.509592 
L 409.72358 550.656859 
L 406.513399 551.666894 
L 403.598555 552.572632 
L 400.535125 552.380506 
L 397.664306 550.083226 
L 393.931324 548.551706 
" clip-path="url(#p3ea0ad0388)" style="fill: none; stroke: #f29888; stroke-width: 0.2"/>
    <path d="M 428.29677 501.944642 
L 430.962137 506.185141 
L 431.897676 510.458576 
L 436.036058 515.264475 
L 439.372811 517.265332 
L 439.638798 520.471094 
L 438.290522 525.38129 
L 438.05572 529.791958 
L 437.767721 533.908947 
L 436.907392 537.831065 
L 436.714781 542.905941 
" clip-path="url(#p3ea0ad0388)" style="fill: none; stroke: #f29888; stroke-width: 0.2"/>
    <path d="M 428.29677 501.944642 
L 427.757459 481.477716 
L 430.123821 465.591627 
L 433.464244 454.807859 
L 443.412136 428.234066 
" clip-path="url(#p3ea0ad0388)" style="fill: none; stroke: #f29888; stroke-width: 0.2"/>
    <path d="M 396.532488 503.577715 
L 393.465389 472.81557 
L 416.442947 415.106359 
" clip-path="url(#p3ea0ad0388)" style="fill: none; stroke: #f29888; stroke-width: 0.2"/>
    <path d="M 360.991199 510.011196 
L 360.59864 495.840519 
L 362.959498 473.603288 
L 371.619649 445.261933 
L 389.941528 405.769027 
" clip-path="url(#p3ea0ad0388)" style="fill: none; stroke: #f29888; stroke-width: 0.2"/>
    <path d="M 287.338642 441.09554 
L 290.880847 423.779483 
L 295.505342 419.744834 
L 329.357159 425.058495 
L 348.324742 386.44388 
" clip-path="url(#p3ea0ad0388)" style="fill: none; stroke: #f29888; stroke-width: 0.2"/>
    <path d="M 467.901231 437.958394 
L 460.45728 435.897155 
L 455.264124 433.778278 
L 443.412136 428.234066 
L 419.906274 416.621411 
L 416.442947 415.106359 
L 401.070767 408.387433 
L 395.780388 406.334427 
L 392.463813 405.543965 
L 389.941528 405.769027 
L 388.042935 405.939196 
L 384.253087 404.833099 
L 360.95818 393.149083 
L 348.324742 386.44388 
L 278.717013 349.500762 
" clip-path="url(#p3ea0ad0388)" style="fill: none; stroke: #f29888; stroke-width: 0.2"/>
    <path d="M 404.682679 367.725302 
L 389.941528 405.769027 
" clip-path="url(#p3ea0ad0388)" style="fill: none; stroke: #f29888; stroke-width: 0.2"/>
    <path d="M 477.579468 387.838167 
L 476.023906 385.458547 
L 475.640518 384.275599 
L 473.721747 383.586689 
L 471.458111 383.732156 
L 470.276765 382.453145 
L 468.603802 380.633435 
L 462.897017 378.273028 
L 457.483735 373.991359 
L 454.040587 371.189062 
L 450.700164 368.589869 
L 445.644588 365.046514 
L 444.598986 364.407008 
L 440.985239 362.875488 
L 439.064634 360.816994 
L 435.632492 359.444664 
L 434.328241 356.219689 
L 433.499097 353.071564 
L 431.736249 347.834754 
L 429.472613 344.952862 
L 424.187738 340.149707 
L 420.139241 337.679514 
L 419.658632 334.180073 
L 414.375591 331.29818 
L 411.561638 328.75937 
L 399.678465 322.076124 
L 389.167416 316.114724 
L 359.710795 300.039253 
L 352.822664 300.121593 
L 340.512079 293.194072 
L 331.657483 288.747724 
L 327.319152 286.104617 
L 324.567569 284.199823 
L 318.288455 282.893365 
L 316.136716 281.411249 
L 313.878583 280.000494 
L 312.462435 278.573271 
" clip-path="url(#p3ea0ad0388)" style="fill: none; stroke: #f29888; stroke-width: 0.2"/>
    <path d="M 213.110086 260.472241 
L 228.555643 269.150855 
L 254.681012 283.746954 
L 299.662068 308.874312 
L 404.682679 367.725302 
L 409.562154 367.881747 
L 427.078735 375.654623 
L 433.572473 382.543719 
L 439.772708 386.084329 
L 447.939408 391.889284 
L 451.483448 397.202945 
L 468.269943 405.686688 
" clip-path="url(#p3ea0ad0388)" style="fill: none; stroke: #f29888; stroke-width: 0.2"/>
    <path d="M 489.687085 309.730948 
L 488.207918 312.43688 
L 485.131648 315.069009 
L 481.857263 316.449572 
L 473.978562 322.218847 
" clip-path="url(#p3ea0ad0388)" style="fill: none; stroke: #f29888; stroke-width: 0.2"/>
    <path d="M 312.462435 278.573271 
L 313.940953 275.183616 
L 317.743641 266.458344 
L 324.107137 251.384673 
L 325.692049 247.962083 
L 327.438388 244.303452 
" clip-path="url(#p3ea0ad0388)" style="fill: none; stroke: #f29888; stroke-width: 0.5"/>
    <path d="M 279.819481 233.684364 
L 282.959955 237.170082 
L 288.127429 242.681358 
L 295.261368 251.585034 
L 303.330846 260.831792 
L 306.381435 265.950582 
L 307.709533 269.883679 
L 309.382496 272.639317 
L 312.08822 274.310815 
L 313.940953 275.183616 
" clip-path="url(#p3ea0ad0388)" style="fill: none; stroke: #f29888; stroke-width: 0.2"/>
    <path d="M 327.438388 244.303452 
L 329.889132 238.896473 
" clip-path="url(#p3ea0ad0388)" style="fill: none; stroke: #f29888; stroke-width: 0.5"/>
    <path d="M 325.692049 247.962083 
L 321.60503 245.154296 
L 311.879099 241.830514 
L 297.37275 237.617461 
L 286.916732 233.648684 
L 279.819481 233.684364 
" clip-path="url(#p3ea0ad0388)" style="fill: none; stroke: #f29888; stroke-width: 0.2"/>
    <path d="M 501.545214 335.137878 
L 496.869904 335.631998 
L 490.906305 335.53319 
L 488.207918 334.772919 
L 485.054603 333.170038 
L 480.066899 328.720945 
L 473.978562 322.218847 
L 470.284102 318.40377 
L 466.242943 316.257446 
L 460.948896 315.019605 
L 456.540859 312.906217 
L 451.457767 310.488172 
L 449.36106 309.239352 
L 448.032962 307.274176 
L 447.025883 303.64848 
L 447.019958 293.642107 
" clip-path="url(#p3ea0ad0388)" style="fill: none; stroke: #f29888; stroke-width: 0.2"/>
    <path d="M 330.421104 237.675099 
L 332.802141 239.975124 
L 336.492932 241.745429 
L 341.90438 243.469075 
L 347.414885 242.384935 
L 353.712343 241.451751 
L 358.534952 239.632041 
L 365.964228 239.876316 
L 371.819598 242.14066 
L 376.297342 242.730762 
L 377.497594 242.730762 
" clip-path="url(#p3ea0ad0388)" style="fill: none; stroke: #f29888; stroke-width: 0.2"/>
    <path d="M 342.227233 201.503231 
L 341.97019 201.019757 
" clip-path="url(#p3ea0ad0388)" style="fill: none; stroke: #f29888; stroke-width: 0.2"/>
    <path d="M 329.889132 238.896473 
L 330.421104 237.675099 
L 335.287739 226.490612 
L 338.949179 216.730602 
L 341.012867 208.672282 
L 342.227233 201.503231 
L 342.264124 201.134021 
" clip-path="url(#p3ea0ad0388)" style="fill: none; stroke: #f29888; stroke-width: 0.2"/>
   </g>
  </g>
 </g>
 <defs>
  <clipPath id="p3ea0ad0388">
   <rect x="7.2" y="7.2" width="586.459519" height="831.6"/>
  </clipPath>
 </defs>
</svg>
