<?xml version="1.0" encoding="utf-8" standalone="no"?>
<!DOCTYPE svg PUBLIC "-//W3C//DTD SVG 1.1//EN"
  "http://www.w3.org/Graphics/SVG/1.1/DTD/svg11.dtd">
<svg xmlns:xlink="http://www.w3.org/1999/xlink" width="851.4pt" height="384.542023pt" viewBox="0 0 851.4 384.542023" xmlns="http://www.w3.org/2000/svg" version="1.1">
 <metadata>
  <rdf:RDF xmlns:dc="http://purl.org/dc/elements/1.1/" xmlns:cc="http://creativecommons.org/ns#" xmlns:rdf="http://www.w3.org/1999/02/22-rdf-syntax-ns#">
   <cc:Work>
    <dc:type rdf:resource="http://purl.org/dc/dcmitype/StillImage"/>
    <dc:date>2025-03-16T14:38:38.187228</dc:date>
    <dc:format>image/svg+xml</dc:format>
    <dc:creator>
     <cc:Agent>
      <dc:title>Matplotlib v3.10.1, https://matplotlib.org/</dc:title>
     </cc:Agent>
    </dc:creator>
   </cc:Work>
  </rdf:RDF>
 </metadata>
 <defs>
  <style type="text/css">*{stroke-linejoin: round; stroke-linecap: butt}</style>
 </defs>
 <g id="figure_1">
  <g id="patch_1">
   <path d="M 0 384.542023 
L 851.4 384.542023 
L 851.4 0 
L 0 0 
z
" style="fill: #ffffff"/>
  </g>
  <g id="axes_1">
   <g id="PatchCollection_1">
    <path d="M 355.219795 352.788551 
L 392.426799 322.148079 
L 569.47338 360.517385 
L 806.154545 211.111405 
L 577.08345 102.387938 
L 413.729918 139.82924 
L 270.344659 73.445632 
L 285.321771 44.563197 
L 241.436911 24.024637 
L 204.418526 64.979293 
L 198.703719 60.045358 
L 46.562164 224.024545 
L 45.245455 240.151682 
L 82.91494 277.530391 
L 118.157763 242.200912 
L 140.345942 257.664022 
L 151.637719 248.811242 
L 176.968952 267.428479 
L 198.94312 246.979726 
L 305.455086 319.619879 
L 328.343334 336.713121 
L 309.421536 342.512468 
L 313.389799 357.771472 
L 355.219795 352.788551 
" clip-path="url(#pf21993758f)" style="fill: #fbd6c9"/>
   </g>
   <g id="PatchCollection_2">
    <path d="M 643.04767 299.304476 
L 642.855423 295.943522 
L 653.185966 295.350252 
L 653.378213 298.711206 
L 643.04767 299.304476 
" clip-path="url(#pf21993758f)" style="fill: #e6482f"/>
    <path d="M 566.765602 244.625697 
L 565.688295 249.148698 
L 551.38586 245.744201 
L 552.463168 241.218479 
L 566.765602 244.625697 
" clip-path="url(#pf21993758f)" style="fill: #e6482f"/>
    <path d="M 642.628717 243.735793 
L 642.926155 242.013134 
L 647.538264 242.81051 
L 647.239012 244.533169 
L 642.628717 243.735793 
" clip-path="url(#pf21993758f)" style="fill: #e6482f"/>
    <path d="M 630.13449 235.370146 
L 630.910732 230.885246 
L 649.81258 234.153672 
L 649.036338 238.641294 
L 630.13449 235.370146 
" clip-path="url(#pf21993758f)" style="fill: #e6482f"/>
    <path d="M 692.616505 232.137099 
L 693.015507 229.274165 
L 710.549864 231.712557 
L 710.152675 234.575492 
L 692.616505 232.137099 
" clip-path="url(#pf21993758f)" style="fill: #e6482f"/>
    <path d="M 664.882187 227.611377 
L 665.620342 222.31005 
L 672.559363 223.273433 
L 672.951111 220.459484 
L 676.41518 220.941175 
L 675.974463 224.103466 
L 683.16014 225.102227 
L 682.470953 230.057934 
L 664.882187 227.611377 
" clip-path="url(#pf21993758f)" style="fill: #e6482f"/>
    <path d="M 645.519673 225.10767 
L 646.100041 221.75488 
L 651.832984 222.748199 
L 651.25443 226.098267 
L 645.519673 225.10767 
" clip-path="url(#pf21993758f)" style="fill: #e6482f"/>
    <path d="M 634.61783 223.463932 
L 635.165552 220.296199 
L 638.538939 220.878583 
L 638.823682 219.240288 
L 644.166691 220.162849 
L 643.83298 222.100501 
L 644.88671 222.282836 
L 644.391583 225.153934 
L 634.61783 223.463932 
" clip-path="url(#pf21993758f)" style="fill: #e6482f"/>
    <path d="M 704.679083 218.481011 
L 704.269198 221.420145 
L 701.234964 220.998325 
L 701.643035 218.059191 
L 694.401135 217.052266 
L 694.818274 214.047818 
L 713.497043 216.646774 
L 713.079904 219.648501 
L 704.679083 218.481011 
" clip-path="url(#pf21993758f)" style="fill: #e6482f"/>
    <path d="M 664.791505 213.168799 
L 665.273936 209.704431 
L 684.669096 212.401358 
L 684.188479 215.865726 
L 664.791505 213.168799 
" clip-path="url(#pf21993758f)" style="fill: #e6482f"/>
    <path d="M 352.290752 298.248565 
L 351.3005 297.513782 
L 352.134778 296.389835 
L 353.123217 297.124618 
L 352.290752 298.248565 
" clip-path="url(#pf21993758f)" style="fill: #e6482f"/>
    <path d="M 337.339031 289.265156 
L 339.916226 290.813644 
L 338.224092 293.630315 
L 335.646897 292.081826 
L 337.339031 289.265156 
" clip-path="url(#pf21993758f)" style="fill: #e6482f"/>
    <path d="M 125.664455 236.943127 
L 127.862597 238.755593 
L 125.969148 241.052472 
L 123.771006 239.240006 
L 125.664455 236.943127 
" clip-path="url(#pf21993758f)" style="fill: #e6482f"/>
    <path d="M 128.406692 233.032446 
L 130.205832 234.545556 
L 129.329839 235.585139 
L 130.109708 236.241001 
L 129.387876 237.098248 
L 126.808867 234.929276 
L 128.406692 233.032446 
" clip-path="url(#pf21993758f)" style="fill: #e6482f"/>
    <path d="M 139.45544 130.535589 
L 141.143947 132.018764 
L 139.790965 133.559087 
L 138.100645 132.078635 
L 139.45544 130.535589 
" clip-path="url(#pf21993758f)" style="fill: #e6482f"/>
    <path d="M 667.096653 208.057971 
L 667.827553 202.802908 
L 675.105726 203.815277 
L 675.860203 198.388764 
L 668.582031 197.376396 
L 669.323813 192.039691 
L 688.44874 194.698518 
L 687.694262 200.127752 
L 678.840028 198.89767 
L 678.067414 204.446646 
L 686.921647 205.67945 
L 686.221579 210.716799 
L 667.096653 208.057971 
" clip-path="url(#pf21993758f)" style="fill: #e6482f"/>
    <path d="M 707.72964 196.52187 
L 707.299805 199.613404 
L 703.804904 199.126269 
L 704.234739 196.034736 
L 697.546002 195.10401 
L 697.961328 192.11589 
L 706.383912 193.286101 
L 707.054962 188.466466 
L 699.093044 187.358848 
L 699.858404 181.856135 
L 718.671383 184.471421 
L 717.916905 189.897933 
L 709.30026 188.700508 
L 708.618328 193.607229 
L 716.203007 194.66314 
L 715.787681 197.640374 
L 707.72964 196.52187 
" clip-path="url(#pf21993758f)" style="fill: #e6482f"/>
    <path d="M 681.074444 185.257911 
L 680.457803 189.688383 
L 677.166031 189.231185 
L 677.780858 184.800712 
L 670.772919 183.826444 
L 671.516515 178.470689 
L 690.880843 181.164895 
L 690.137247 186.517929 
L 681.074444 185.257911 
" clip-path="url(#pf21993758f)" style="fill: #e6482f"/>
   </g>
   <g id="LineCollection_1">
    <path d="M 85.903976 274.534006 
L 57.190145 248.514607 
L 52.164525 243.262266 
L 50.122356 240.099975 
L 48.481004 236.964899 
L 48.129156 233.28826 
L 48.129156 229.85927 
L 49.514784 225.311777 
L 51.41186 222.296443 
L 66.22393 205.769257 
L 117.619109 149.335162 
L 148.141004 115.521513 
" clip-path="url(#pf21993758f)" style="fill: none; stroke: #e6482f; stroke-width: 0.2"/>
    <path d="M 395.074727 320.090685 
L 392.445269 322.152082 
" clip-path="url(#pf21993758f)" style="fill: none; stroke: #e6482f; stroke-width: 0.2"/>
    <path d="M 391.959493 322.532913 
L 354.376448 351.996618 
L 325.419732 354.328875 
" clip-path="url(#pf21993758f)" style="fill: none; stroke: #e6482f; stroke-width: 0.2"/>
    <path d="M 48.481004 236.964899 
L 45.263148 239.934971 
" clip-path="url(#pf21993758f)" style="fill: none; stroke: #e6482f; stroke-width: 0.2"/>
    <path d="M 129.208325 229.238786 
L 142.948528 239.278106 
L 146.904096 240.399331 
L 150.134204 239.212792 
L 157.782361 230.96961 
L 160.617094 231.301623 
L 185.638193 248.44385 
" clip-path="url(#pf21993758f)" style="fill: none; stroke: #e6482f; stroke-width: 0.2"/>
    <path d="M 117.619109 149.335162 
L 156.590794 177.229721 
L 222.536877 221.637859 
L 297.919375 272.041286 
L 332.023227 294.59914 
L 363.139999 306.570669 
L 384.165629 317.137944 
L 390.181502 318.618397 
L 395.074727 320.090685 
" clip-path="url(#pf21993758f)" style="fill: none; stroke: #e6482f; stroke-width: 0.2"/>
    <path d="M 109.97622 250.402572 
L 66.22393 205.769257 
" clip-path="url(#pf21993758f)" style="fill: none; stroke: #e6482f; stroke-width: 0.2"/>
    <path d="M 297.919375 272.041286 
L 321.699938 244.57399 
L 340.853883 223.853095 
L 355.477333 209.184639 
L 383.543548 178.37816 
L 393.830564 166.793074 
L 402.245894 157.499423 
" clip-path="url(#pf21993758f)" style="fill: none; stroke: #e6482f; stroke-width: 0.2"/>
    <path d="M 148.141004 115.521513 
L 263.304075 167.699307 
L 355.477333 209.184639 
L 440.481238 246.473542 
L 448.040526 249.984174 
L 452.902918 252.125932 
L 477.017192 262.7558 
L 482.316674 265.153371 
L 485.648347 266.22289 
L 490.975033 267.197158 
L 536.581045 277.462356 
L 609.972157 294.435855 
L 613.222216 294.536548 
L 626.465479 293.837143 
L 638.578839 292.710474 
" clip-path="url(#pf21993758f)" style="fill: none; stroke: #e6482f; stroke-width: 0.2"/>
    <path d="M 321.699938 244.57399 
L 312.45577 237.215269 
L 302.292082 225.186591 
L 291.477295 218.380319 
L 259.86721 202.435517 
L 245.004358 191.80837 
L 216.323317 171.667137 
L 207.091844 167.002623 
L 182.010895 157.586508 
L 177.068702 156.933367 
L 172.966229 158.239649 
L 156.590794 177.229721 
L 135.481736 202.884551 
L 133.709801 213.421891 
L 134.455211 222.372643 
L 129.208325 229.238786 
L 118.813505 242.657903 
" clip-path="url(#pf21993758f)" style="fill: none; stroke: #e6482f; stroke-width: 0.2"/>
    <path d="M 638.578839 292.710474 
L 644.538489 308.62262 
L 644.669072 311.101834 
L 642.246835 314.578836 
" clip-path="url(#pf21993758f)" style="fill: none; stroke: #e6482f; stroke-width: 0.2"/>
    <path d="M 638.578839 292.710474 
L 681.32043 289.913465 
" clip-path="url(#pf21993758f)" style="fill: none; stroke: #e6482f; stroke-width: 0.2"/>
    <path d="M 390.181502 318.618397 
L 399.570762 297.505617 
L 407.755759 280.338897 
L 409.030754 278.605352 
L 411.074736 277.876012 
L 413.020781 277.971262 
L 415.623367 279.11698 
L 431.140946 288.260952 
L 463.400317 305.688928 
" clip-path="url(#pf21993758f)" style="fill: none; stroke: #e6482f; stroke-width: 0.2"/>
    <path d="M 395.074727 320.090685 
L 413.483262 319.203502 
L 415.354947 318.155755 
L 416.887481 316.160954 
L 431.140946 288.260952 
L 433.038023 284.27135 
L 452.902918 252.125932 
" clip-path="url(#pf21993758f)" style="fill: none; stroke: #e6482f; stroke-width: 0.2"/>
    <path d="M 638.578839 292.710474 
L 640.338078 289.99994 
L 645.273017 287.860903 
L 670.071037 283.69713 
L 694.183282 281.793736 
" clip-path="url(#pf21993758f)" style="fill: none; stroke: #e6482f; stroke-width: 0.2"/>
    <path d="M 630.488152 279.138751 
L 633.769043 268.171427 
L 628.627348 260.390886 
L 618.802813 257.359223 
L 610.891677 247.072254 
L 591.112023 242.127433 
L 587.551831 255.116773 
" clip-path="url(#pf21993758f)" style="fill: none; stroke: #e6482f; stroke-width: 0.2"/>
    <path d="M 626.465479 293.837143 
L 630.488152 279.138751 
L 643.345108 270.500963 
L 647.035883 260.083365 
L 656.662731 217.030494 
L 658.83911 210.436493 
L 661.278467 202.525324 
L 664.573867 183.010018 
" clip-path="url(#pf21993758f)" style="fill: none; stroke: #e6482f; stroke-width: 0.2"/>
    <path d="M 484.65084 220.788776 
L 465.63836 230.664811 
L 458.895214 233.818937 
L 452.103099 241.332779 
L 448.040526 249.984174 
" clip-path="url(#pf21993758f)" style="fill: none; stroke: #e6482f; stroke-width: 0.2"/>
    <path d="M 440.481238 246.473542 
L 452.93375 219.281109 
L 455.657851 213.345691 
L 457.944862 209.745252 
L 459.257943 208.286571 
L 460.547448 207.946393 
L 463.393063 209.064897 
L 484.65084 220.788776 
L 495.257058 216.701202 
L 518.546122 199.335819 
" clip-path="url(#pf21993758f)" style="fill: none; stroke: #e6482f; stroke-width: 0.2"/>
    <path d="M 536.581045 277.462356 
L 546.722969 243.262266 
L 550.372031 238.932486 
L 553.680126 236.499536 
L 556.605542 235.889938 
L 562.679451 236.597507 
L 566.725702 234.915669 
L 572.456832 231.636358 
L 578.635933 229.252393 
L 584.960127 226.794951 
L 586.516237 225.896882 
L 590.560674 222.437957 
L 593.08346 221.420145 
L 616.677216 217.626485 
L 614.196145 209.258118 
L 591.748614 143.388858 
L 591.286134 138.310688 
L 588.979172 136.201587 
L 579.7477 137.981396 
" clip-path="url(#pf21993758f)" style="fill: none; stroke: #e6482f; stroke-width: 0.2"/>
    <path d="M 465.63836 230.664811 
L 452.93375 219.281109 
L 427.000386 203.967676 
L 426.204194 202.715823 
L 426.084494 201.428591 
L 432.437705 188.793036 
L 432.916508 186.809121 
L 432.892931 184.887798 
L 431.763028 183.026346 
L 402.245894 157.499423 
" clip-path="url(#pf21993758f)" style="fill: none; stroke: #e6482f; stroke-width: 0.2"/>
    <path d="M 616.677216 217.626485 
L 632.931137 215.337771 
L 639.491104 215.169043 
L 645.42355 215.596306 
L 656.662731 217.030494 
L 690.11911 220.639098 
L 699.841288 160.652198 
" clip-path="url(#pf21993758f)" style="fill: none; stroke: #e6482f; stroke-width: 0.2"/>
    <path d="M 713.953738 269.313552 
L 714.790175 267.10463 
L 719.402283 239.120264 
L 726.494284 173.302445 
" clip-path="url(#pf21993758f)" style="fill: none; stroke: #e6482f; stroke-width: 0.2"/>
    <path d="M 402.245894 157.499423 
L 419.695855 138.461823 
" clip-path="url(#pf21993758f)" style="fill: none; stroke: #e6482f; stroke-width: 0.2"/>
    <path d="M 222.536877 221.637859 
L 245.004358 191.80837 
L 263.304075 167.699307 
L 274.097099 146.121164 
L 281.928434 131.988828 
L 289.854079 117.685042 
" clip-path="url(#pf21993758f)" style="fill: none; stroke: #e6482f; stroke-width: 0.2"/>
    <path d="M 383.543548 178.37816 
L 281.928434 131.988828 
" clip-path="url(#pf21993758f)" style="fill: none; stroke: #e6482f; stroke-width: 0.2"/>
    <path d="M 172.746777 90.830066 
L 191.391087 103.419356 
L 274.097099 146.121164 
" clip-path="url(#pf21993758f)" style="fill: none; stroke: #e6482f; stroke-width: 0.2"/>
    <path d="M 393.830564 166.793074 
L 392.687965 165.304457 
L 390.351985 162.803471 
L 385.973837 160.128315 
L 289.854079 117.685042 
L 211.437347 83.468623 
L 199.316732 67.619071 
L 194.840647 66.873402 
L 172.746777 90.830066 
L 150.212191 113.624683 
L 148.141004 115.521513 
" clip-path="url(#pf21993758f)" style="fill: none; stroke: #e6482f; stroke-width: 0.2"/>
    <path d="M 194.840647 66.873402 
L 197.254613 61.776181 
L 197.34178 61.513265 
" clip-path="url(#pf21993758f)" style="fill: none; stroke: #e6482f; stroke-width: 0.2"/>
   </g>
  </g>
 </g>
 <defs>
  <clipPath id="pf21993758f">
   <rect x="7.2" y="7.2" width="837" height="370.142023"/>
  </clipPath>
 </defs>
</svg>
