<?xml version="1.0" encoding="utf-8" standalone="no"?>
<!DOCTYPE svg PUBLIC "-//W3C//DTD SVG 1.1//EN"
  "http://www.w3.org/Graphics/SVG/1.1/DTD/svg11.dtd">
<svg xmlns:xlink="http://www.w3.org/1999/xlink" width="851.4pt" height="689.434194pt" viewBox="0 0 851.4 689.434194" xmlns="http://www.w3.org/2000/svg" version="1.1">
 <metadata>
  <rdf:RDF xmlns:dc="http://purl.org/dc/elements/1.1/" xmlns:cc="http://creativecommons.org/ns#" xmlns:rdf="http://www.w3.org/1999/02/22-rdf-syntax-ns#">
   <cc:Work>
    <dc:type rdf:resource="http://purl.org/dc/dcmitype/StillImage"/>
    <dc:date>2025-03-16T14:38:39.138003</dc:date>
    <dc:format>image/svg+xml</dc:format>
    <dc:creator>
     <cc:Agent>
      <dc:title>Matplotlib v3.10.1, https://matplotlib.org/</dc:title>
     </cc:Agent>
    </dc:creator>
   </cc:Work>
  </rdf:RDF>
 </metadata>
 <defs>
  <style type="text/css">*{stroke-linejoin: round; stroke-linecap: butt}</style>
 </defs>
 <g id="figure_1">
  <g id="patch_1">
   <path d="M 0 689.434194 
L 851.4 689.434194 
L 851.4 -0 
L 0 -0 
z
" style="fill: #ffffff"/>
  </g>
  <g id="axes_1">
   <g id="PatchCollection_1">
    <path d="M 522.201369 61.443755 
L 418.728277 37.883372 
L 421.803748 227.391651 
L 382.738492 271.108154 
L 240.471187 318.564087 
L 93.972105 273.49048 
L 45.245455 423.248418 
L 91.923977 508.101939 
L 204.614738 510.152383 
L 587.765512 651.550821 
L 625.672275 611.586893 
L 764.877223 606.454212 
L 734.911601 435.771238 
L 796.932505 427.947351 
L 806.154545 311.670128 
L 746.898725 299.367469 
L 586.620134 310.408317 
L 522.201369 61.443755 
" clip-path="url(#pb718c93001)" style="fill: #f29888"/>
   </g>
   <g id="LineCollection_1">
    <path d="M 437.99067 596.277727 
L 440.558218 591.181039 
L 465.415542 545.67697 
L 478.572088 518.856909 
L 487.015971 503.846612 
L 488.657534 498.920948 
L 491.68273 488.681875 
L 493.256532 482.622553 
L 494.729785 476.957546 
L 499.420589 457.958086 
L 505.986839 425.594598 
" clip-path="url(#pb718c93001)" style="fill: none; stroke: #f29888; stroke-width: 0.2"/>
    <path d="M 309.032111 506.209222 
L 316.059573 501.898034 
L 321.49356 497.682139 
L 333.109091 500.586933 
L 342.243699 497.494838 
L 347.25582 490.094841 
L 346.538866 485.412338 
" clip-path="url(#pb718c93001)" style="fill: none; stroke: #f29888; stroke-width: 0.2"/>
    <path d="M 300.715006 459.87709 
L 317.169977 457.862793 
L 326.774539 456.93615 
L 329.491533 454.819987 
L 346.053611 445.408978 
L 356.12157 442.891928 
L 370.762298 442.625764 
L 385.931998 443.089086 
L 391.035924 440.963065 
L 400.50715 437.259781 
L 416.404734 436.796459 
L 431.489186 440.144859 
L 435.799654 438.646459 
L 444.044626 440.986067 
L 449.758401 439.021059 
L 455.566167 432.554276 
" clip-path="url(#pb718c93001)" style="fill: none; stroke: #f29888; stroke-width: 0.2"/>
    <path d="M 342.761742 477.749464 
L 300.715006 459.87709 
L 272.810627 448.993968 
L 242.619864 436.707738 
L 201.010295 419.249396 
L 134.923737 390.944078 
L 124.136638 385.233068 
L 114.088351 375.325878 
L 110.407404 373.76833 
L 98.37875 378.582271 
L 88.470356 407.032172 
L 87.196014 416.091582 
L 89.744698 422.601083 
L 98.23667 432.935448 
L 101.915432 446.240328 
L 108.993168 455.582332 
L 117.34306 467.188366 
L 123.146454 483.043156 
L 141.122767 506.399809 
" clip-path="url(#pb718c93001)" style="fill: none; stroke: #f29888; stroke-width: 0.2"/>
    <path d="M 358.694299 506.038352 
L 352.923692 493.98214 
L 346.538866 485.412338 
L 342.761742 477.749464 
L 331.968085 462.548581 
L 329.491533 454.819987 
L 327.6139 447.82745 
L 325.594188 440.138287 
L 326.300213 430.378966 
L 331.703599 419.495844 
L 332.265359 416.124442 
L 326.457593 401.225868 
L 327.736307 388.505891 
L 326.145019 384.510155 
L 322.726372 375.923924 
L 322.726372 370.623659 
L 321.176614 351.147734 
L 321.373339 343.264699 
L 318.232293 335.854844 
" clip-path="url(#pb718c93001)" style="fill: none; stroke: #f29888; stroke-width: 0.2"/>
    <path d="M 326.300213 430.378966 
L 295.289761 420.041314 
L 267.77009 408.448423 
L 265.955846 402.441676 
" clip-path="url(#pb718c93001)" style="fill: none; stroke: #f29888; stroke-width: 0.2"/>
    <path d="M 364.182932 382.824454 
L 385.446742 392.054735 
L 411.47786 399.796473 
L 433.076103 406.982882 
L 457.922497 414.734478 
L 472.005837 417.770711 
L 477.901036 418.588917 
" clip-path="url(#pb718c93001)" style="fill: none; stroke: #f29888; stroke-width: 0.2"/>
    <path d="M 362.585086 349.79063 
L 357.478974 363.131655 
L 352.044986 367.442843 
L 344.643746 370.718952 
L 338.647999 373.15714 
L 333.869762 375.966641 
L 326.145019 384.510155 
" clip-path="url(#pb718c93001)" style="fill: none; stroke: #f29888; stroke-width: 0.2"/>
    <path d="M 321.373339 343.264699 
L 329.668586 349.435745 
L 344.643746 370.718952 
L 353.782726 376.926144 
L 364.182932 382.824454 
" clip-path="url(#pb718c93001)" style="fill: none; stroke: #f29888; stroke-width: 0.2"/>
    <path d="M 287.184683 324.748276 
L 310.190604 332.874472 
L 318.232293 335.854844 
L 329.397542 339.991877 
L 350.034017 345.854041 
L 362.585086 349.79063 
L 374.447617 353.51363 
L 391.099313 358.672598 
L 426.275968 369.93032 
L 459.319246 380.097102 
L 489.422576 389.882711 
" clip-path="url(#pb718c93001)" style="fill: none; stroke: #f29888; stroke-width: 0.2"/>
    <path d="M 762.264315 591.571191 
L 679.487551 571.682112 
L 661.6096 566.933889 
L 652.249852 561.870215 
L 650.278228 556.494373 
L 615.175892 538.625285 
L 559.81523 512.942169 
L 499.652287 484.771575 
L 493.256532 482.622553 
L 478.613618 477.15799 
L 469.533657 473.526996 
L 444.584528 466.163145 
L 419.672558 452.838549 
L 405.702882 446.273188 
L 391.035924 440.963065 
L 327.736307 388.505891 
L 288.174866 357.09862 
L 273.088228 344.943829 
L 263.256339 339.048804 
L 243.99694 329.466925 
L 235.79787 326.79872 
L 214.363565 324.823854 
L 202.313053 320.180783 
L 187.794732 313.267108 
L 170.904779 308.426879 
L 137.618873 298.749707 
L 128.530168 296.574397 
" clip-path="url(#pb718c93001)" style="fill: none; stroke: #f29888; stroke-width: 0.2"/>
    <path d="M 592.545934 597.664251 
L 597.682648 594.46372 
L 604.952738 592.820736 
L 614.098275 590.474556 
L 619.726802 586.958571 
L 624.65149 580.15662 
L 626.784865 570.223142 
L 635.018908 562.047657 
L 644.271551 559.744194 
L 650.278228 556.494373 
L 653.904529 553.95432 
L 654.931872 551.361693 
" clip-path="url(#pb718c93001)" style="fill: none; stroke: #f29888; stroke-width: 0.2"/>
    <path d="M 675.57709 474.443781 
L 675.181454 481.423175 
L 672.217461 493.177078 
L 666.488386 510.858866 
L 660.348373 531.567028 
L 654.931872 551.361693 
" clip-path="url(#pb718c93001)" style="fill: none; stroke: #f29888; stroke-width: 0.2"/>
    <path d="M 719.352823 456.35782 
L 721.658879 487.055322 
L 731.36399 535.099443 
L 735.246034 556.941264 
" clip-path="url(#pb718c93001)" style="fill: none; stroke: #f29888; stroke-width: 0.2"/>
    <path d="M 666.488386 510.858866 
L 626.56191 498.276899 
" clip-path="url(#pb718c93001)" style="fill: none; stroke: #f29888; stroke-width: 0.2"/>
    <path d="M 672.217461 493.177078 
L 671.030552 491.793686 
L 651.266225 488.090401 
L 641.906477 484.528413 
L 632.269127 479.898486 
" clip-path="url(#pb718c93001)" style="fill: none; stroke: #f29888; stroke-width: 0.2"/>
    <path d="M 637.209116 463.669096 
L 675.57709 474.443781 
" clip-path="url(#pb718c93001)" style="fill: none; stroke: #f29888; stroke-width: 0.2"/>
    <path d="M 639.895508 456.551692 
L 660.064214 453.738904 
L 664.073037 452.483665 
L 688.827627 431.059161 
" clip-path="url(#pb718c93001)" style="fill: none; stroke: #f29888; stroke-width: 0.2"/>
    <path d="M 625.825283 500.646081 
L 626.56191 498.276899 
L 631.5172 482.320244 
L 632.269127 479.898486 
L 633.329257 476.487653 
L 637.209116 463.669096 
L 639.895508 456.551692 
L 639.425553 452.565814 
L 637.080152 443.887576 
L 633.622159 434.003387 
L 632.155464 429.81378 
L 622.776043 405.188744 
L 618.489619 395.189547 
L 616.443676 390.415037 
L 609.173587 370.012469 
L 607.064255 364.147019 
L 607.532024 357.581657 
" clip-path="url(#pb718c93001)" style="fill: none; stroke: #f29888; stroke-width: 0.2"/>
    <path d="M 713.232483 415.214229 
L 709.217102 415.007213 
L 703.984212 417.589983 
L 692.735901 427.546463 
" clip-path="url(#pb718c93001)" style="fill: none; stroke: #f29888; stroke-width: 0.2"/>
    <path d="M 342.243699 497.494838 
L 358.694299 506.038352 
L 394.773703 524.830796 
L 415.169736 532.375376 
L 432.070618 534.192516 
L 458.329063 541.566226 
L 465.415542 545.67697 
L 484.998445 554.115333 
L 536.853026 576.341612 
L 572.35537 590.241252 
L 578.945664 592.975177 
L 585.957825 596.57331 
L 592.545934 597.664251 
" clip-path="url(#pb718c93001)" style="fill: none; stroke: #f29888; stroke-width: 0.2"/>
    <path d="M 626.784865 570.223142 
L 591.374326 554.273059 
L 556.877467 538.875019 
L 518.9095 520.733196 
L 487.015971 503.846612 
" clip-path="url(#pb718c93001)" style="fill: none; stroke: #f29888; stroke-width: 0.2"/>
    <path d="M 499.420589 457.958086 
L 515.897419 463.721671 
L 532.170966 469.935435 
L 545.150458 471.561988 
L 563.701646 477.342004 
L 576.106264 482.349817 
L 585.745799 487.429922 
L 596.978809 490.558162 
L 625.825283 500.646081 
L 626.083212 506.426096 
L 622.330132 516.510728 
L 622.306088 519.172362 
L 624.441649 520.9665 
L 660.348373 531.567028 
" clip-path="url(#pb718c93001)" style="fill: none; stroke: #f29888; stroke-width: 0.2"/>
    <path d="M 631.5172 482.320244 
L 613.132135 475.866605 
L 608.799809 475.30799 
L 605.239082 474.190762 
L 586.102091 466.297869 
L 572.272308 461.89796 
L 549.714483 454.842989 
" clip-path="url(#pb718c93001)" style="fill: none; stroke: #f29888; stroke-width: 0.2"/>
    <path d="M 554.003093 439.766973 
L 549.714483 454.842989 
L 545.150458 471.561988 
" clip-path="url(#pb718c93001)" style="fill: none; stroke: #f29888; stroke-width: 0.2"/>
    <path d="M 571.754265 416.370889 
L 585.988427 429.370174 
L 584.784032 448.81324 
" clip-path="url(#pb718c93001)" style="fill: none; stroke: #f29888; stroke-width: 0.2"/>
    <path d="M 561.231652 388.827915 
L 561.902703 395.30127 
L 560.125619 399.569741 
L 558.442525 410.446291 
L 564.923528 421.073108 
L 564.033893 428.893709 
L 554.003093 439.766973 
" clip-path="url(#pb718c93001)" style="fill: none; stroke: #f29888; stroke-width: 0.2"/>
    <path d="M 489.422576 389.882711 
L 498.211822 392.10731 
L 521.932511 398.114058 
L 541.738369 402.753843 
L 558.442525 410.446291 
L 561.231652 411.727818 
L 571.754265 416.370889 
L 590.010365 424.109341 
L 612.90918 428.131365 
L 633.622159 434.003387 
" clip-path="url(#pb718c93001)" style="fill: none; stroke: #f29888; stroke-width: 0.2"/>
    <path d="M 548.129752 379.436622 
L 561.231652 388.827915 
L 575.776203 397.49301 
L 598.985406 399.0407 
L 618.489619 395.189547 
" clip-path="url(#pb718c93001)" style="fill: none; stroke: #f29888; stroke-width: 0.2"/>
    <path d="M 536.00055 361.797552 
L 530.337049 378.592129 
L 507.390146 375.523036 
L 502.128839 377.997369 
L 498.211822 392.10731 
" clip-path="url(#pb718c93001)" style="fill: none; stroke: #f29888; stroke-width: 0.2"/>
    <path d="M 488.550428 336.390457 
L 527.327154 343.685303 
L 534.077014 342.288767 
" clip-path="url(#pb718c93001)" style="fill: none; stroke: #f29888; stroke-width: 0.2"/>
    <path d="M 511.903897 148.604025 
L 517.040611 192.060936 
L 522.273501 234.453194 
L 534.077014 342.288767 
L 535.803825 356.760165 
L 536.00055 361.797552 
L 540.44654 374.343374 
L 548.129752 379.436622 
" clip-path="url(#pb718c93001)" style="fill: none; stroke: #f29888; stroke-width: 0.2"/>
    <path d="M 475.037591 152.537327 
L 475.431042 162.316364 
L 477.210312 178.217158 
L 481.286896 204.53118 
L 482.47599 208.510486 
L 484.500074 237.844312 
L 485.547089 271.716058 
L 488.550428 336.390457 
L 487.503412 356.181835 
L 485.079321 360.08885 
" clip-path="url(#pb718c93001)" style="fill: none; stroke: #f29888; stroke-width: 0.2"/>
    <path d="M 637.209116 463.669096 
L 584.784032 448.81324 
L 554.003093 439.766973 
L 543.275011 436.615731 
L 505.986839 425.594598 
L 491.68273 421.138827 
L 477.901036 418.588917 
L 481.3634 412.460589 
L 485.350364 401.43617 
L 488.867374 391.821431 
L 489.422576 389.882711 
L 491.68273 381.970103 
L 491.44666 376.344528 
L 491.061953 373.843907 
L 490.508937 370.245773 
L 487.459696 364.616912 
L 485.079321 360.08885 
L 481.621328 353.51363 
L 476.930525 346.008482 
L 473.881284 341.786014 
L 468.464783 337.882286 
L 452.283041 329.204047 
L 447.358353 325.921367 
L 445.012952 321.935489 
L 444.075228 316.776521 
L 442.433665 296.84056 
L 439.384425 249.939956 
L 437.296951 228.048845 
L 436.101299 184.982963 
L 435.867415 152.389458 
L 435.012753 142.784577 
L 430.942727 97.050491 
L 428.197317 48.727063 
" clip-path="url(#pb718c93001)" style="fill: none; stroke: #f29888; stroke-width: 0.2"/>
    <path d="M 437.296951 228.048845 
L 452.339873 227.871402 
L 460.44058 233.667848 
L 468.19374 236.46092 
L 479.157892 236.391914 
L 484.500074 237.844312 
L 494.87405 237.371133 
L 522.273501 234.453194 
L 545.393086 230.398311 
" clip-path="url(#pb718c93001)" style="fill: none; stroke: #f29888; stroke-width: 0.2"/>
    <path d="M 477.210312 178.217158 
L 453.924604 158.136614 
L 440.591006 157.347982 
L 435.867415 152.389458 
" clip-path="url(#pb718c93001)" style="fill: none; stroke: #f29888; stroke-width: 0.2"/>
    <path d="M 512.037233 145.074896 
L 492.769091 139.965218 
L 484.10881 141.223743 
L 468.32489 143.527206 
L 454.565054 141.154738 
L 447.791149 142.830581 
L 435.012753 142.784577 
" clip-path="url(#pb718c93001)" style="fill: none; stroke: #f29888; stroke-width: 0.2"/>
    <path d="M 521.139053 98.263013 
L 484.10881 141.223743 
L 475.037591 152.537327 
" clip-path="url(#pb718c93001)" style="fill: none; stroke: #f29888; stroke-width: 0.2"/>
    <path d="M 525.344601 80.085044 
L 522.918323 86.906712 
L 521.139053 98.263013 
L 512.535603 131.86531 
L 512.037233 145.074896 
L 511.903897 148.604025 
" clip-path="url(#pb718c93001)" style="fill: none; stroke: #f29888; stroke-width: 0.2"/>
    <path d="M 332.656623 300.764005 
L 326.341744 297.445178 
L 321.84548 297.24802 
L 318.53831 300.211962 
L 315.228955 304.805744 
L 311.722874 312.856362 
" clip-path="url(#pb718c93001)" style="fill: none; stroke: #f29888; stroke-width: 0.2"/>
    <path d="M 323.469556 313.010803 
L 332.656623 300.764005 
L 352.707294 284.36703 
L 364.460533 282.096427 
L 370.78197 278.63959 
L 384.511204 275.379911 
L 396.561717 269.057711 
L 418.391658 247.330898 
L 437.296951 228.048845 
" clip-path="url(#pb718c93001)" style="fill: none; stroke: #f29888; stroke-width: 0.2"/>
    <path d="M 136.50404 286.576348 
L 125.010972 292.246779 
L 91.160152 282.132819 
" clip-path="url(#pb718c93001)" style="fill: none; stroke: #f29888; stroke-width: 0.2"/>
    <path d="M 89.67707 286.690967 
L 128.530168 296.574397 
" clip-path="url(#pb718c93001)" style="fill: none; stroke: #f29888; stroke-width: 0.2"/>
    <path d="M 435.867415 152.389458 
L 431.305576 152.399316 
L 420.700312 159.39873 
" clip-path="url(#pb718c93001)" style="fill: none; stroke: #f29888; stroke-width: 0.2"/>
    <path d="M 797.914968 415.559836 
L 795.026456 416.098154 
L 786.32683 418.184743 
L 780.497206 418.450906 
L 775.793287 417.921866 
L 768.505711 415.204371 
L 765.093621 415.55597 
L 741.346702 422.824528 
L 721.177996 423.64602 
L 707.096842 424.546375 
L 692.735901 427.546463 
L 688.827627 431.059161 
" clip-path="url(#pb718c93001)" style="fill: none; stroke: #f29888; stroke-width: 0.2"/>
    <path d="M 712.736298 358.981479 
L 701.531704 368.159184 
L 697.892287 374.589821 
L 692.735901 380.777297 
L 691.341338 387.451095 
L 685.819917 395.882886 
L 684.606778 403.585193 
L 685.395865 407.04203 
L 686.003527 416.140872 
L 689.824368 419.236253 
L 692.735901 427.546463 
" clip-path="url(#pb718c93001)" style="fill: none; stroke: #f29888; stroke-width: 0.2"/>
    <path d="M 790.449316 320.808402 
L 788.993549 327.114173 
L 778.0753 362.175439 
L 778.560555 371.274281 
L 768.49041 408.642295 
L 765.093621 415.55597 
" clip-path="url(#pb718c93001)" style="fill: none; stroke: #f29888; stroke-width: 0.2"/>
    <path d="M 798.030282 414.105892 
L 795.026456 416.098154 
" clip-path="url(#pb718c93001)" style="fill: none; stroke: #f29888; stroke-width: 0.2"/>
    <path d="M 735.189195 300.174084 
L 734.01978 303.63594 
L 728.443714 313.244107 
L 722.858903 337.277668 
L 722.515727 343.540721 
L 714.880603 353.832369 
L 712.736298 358.981479 
L 712.928651 364.258742 
L 716.021609 368.441777 
L 722.028286 370.807673 
L 724.150732 374.024635 
L 720.087263 388.098431 
L 713.232483 415.214229 
L 715.477336 420.064316 
L 721.177996 423.64602 
L 726.242577 427.658185 
L 725.91033 440.91049 
L 724.187891 447.801162 
L 719.352823 456.35782 
" clip-path="url(#pb718c93001)" style="fill: none; stroke: #f29888; stroke-width: 0.2"/>
    <path d="M 783.185174 306.901241 
L 785.688565 308.893486 
L 788.348728 312.626345 
L 790.020892 317.259558 
L 790.449316 320.808402 
" clip-path="url(#pb718c93001)" style="fill: none; stroke: #f29888; stroke-width: 0.2"/>
    <path d="M 527.172153 80.654757 
L 525.344601 80.085044 
L 428.197317 48.727063 
L 418.854173 45.641017 
" clip-path="url(#pb718c93001)" style="fill: none; stroke: #f29888; stroke-width: 0.2"/>
   </g>
  </g>
 </g>
 <defs>
  <clipPath id="pb718c93001">
   <rect x="7.2" y="7.2" width="837" height="675.034194"/>
  </clipPath>
 </defs>
</svg>
