<?xml version="1.0" encoding="utf-8" standalone="no"?>
<!DOCTYPE svg PUBLIC "-//W3C//DTD SVG 1.1//EN"
  "http://www.w3.org/Graphics/SVG/1.1/DTD/svg11.dtd">
<svg xmlns:xlink="http://www.w3.org/1999/xlink" width="851.4pt" height="679.905938pt" viewBox="0 0 851.4 679.905938" xmlns="http://www.w3.org/2000/svg" version="1.1">
 <metadata>
  <rdf:RDF xmlns:dc="http://purl.org/dc/elements/1.1/" xmlns:cc="http://creativecommons.org/ns#" xmlns:rdf="http://www.w3.org/1999/02/22-rdf-syntax-ns#">
   <cc:Work>
    <dc:type rdf:resource="http://purl.org/dc/dcmitype/StillImage"/>
    <dc:date>2025-03-16T14:30:03.218726</dc:date>
    <dc:format>image/svg+xml</dc:format>
    <dc:creator>
     <cc:Agent>
      <dc:title>Matplotlib v3.10.1, https://matplotlib.org/</dc:title>
     </cc:Agent>
    </dc:creator>
   </cc:Work>
  </rdf:RDF>
 </metadata>
 <defs>
  <style type="text/css">*{stroke-linejoin: round; stroke-linecap: butt}</style>
 </defs>
 <g id="figure_1">
  <g id="patch_1">
   <path d="M 0 679.905938 
L 851.4 679.905938 
L 851.4 0 
L 0 0 
z
" style="fill: #ffffff"/>
  </g>
  <g id="axes_1">
   <g id="PatchCollection_1">
    <path d="M 183.572643 569.752124 
L 194.297889 589.443777 
L 202.415772 588.783768 
L 210.018755 591.794805 
L 214.499476 598.04235 
L 222.654333 596.058222 
L 249.393499 603.332675 
L 285.46248 611.195399 
L 350.475382 630.593942 
L 395.329149 642.455668 
L 395.286697 607.815412 
L 392.716308 558.288044 
L 387.64674 505.751689 
L 476.607944 472.615926 
L 496.883479 471.146278 
L 510.400959 467.032491 
L 513.632775 455.86357 
L 512.750872 434.409159 
L 501.879099 407.080251 
L 491.887859 403.993374 
L 488.215092 374.313438 
L 500.263191 371.374141 
L 519.951248 370.199652 
L 540.373311 369.170693 
L 558.149666 365.938285 
L 572.254625 367.994154 
L 605.827164 369.170693 
L 637.194948 407.373361 
L 644.834905 400.908546 
L 645.863335 385.480309 
L 648.300891 365.548839 
L 671.574072 341.946321 
L 710.068283 319.655623 
L 694.052993 292.621876 
L 688.469895 283.219813 
L 687.735889 280.280516 
L 696.845227 271.612253 
L 687.589362 250.60263 
L 680.095932 242.817796 
L 671.720599 236.205401 
L 662.905685 238.11574 
L 659.820396 239.144699 
L 654.972673 238.26332 
L 649.389574 232.679884 
L 644.246058 224.011621 
L 692.824629 183.591157 
L 760.462697 194.924055 
L 765.236472 173.842692 
L 789.994098 174.724071 
L 801.306822 135.869592 
L 799.690914 119.564075 
L 806.154545 59.630282 
L 771.775421 59.777862 
L 760.902279 60.806821 
L 756.642034 37.45027 
L 622.649039 56.693035 
L 640.573291 135.281322 
L 529.018135 122.37219 
L 476.434029 130.275908 
L 405.271091 151.701624 
L 365.302021 231.39881 
L 361.926417 233.44443 
L 314.663851 262.06671 
L 270.326353 319.96923 
L 220.991865 351.319687 
L 154.204203 375.721596 
L 45.557681 406.662108 
L 45.245455 530.514347 
L 89.908873 542.564647 
L 110.332305 548.883932 
L 126.12575 552.997719 
L 160.799298 562.40388 
L 183.572643 569.752124 
" clip-path="url(#p3a778c2eab)" style="fill: #f29888"/>
   </g>
   <g id="PatchCollection_2">
    <path d="M 158.104292 556.297767 
L 159.112181 556.570379 
L 159.197084 556.254722 
L 161.779798 556.947528 
L 161.70448 557.232439 
L 162.70826 557.503002 
L 162.097502 559.772041 
L 157.50312 558.53606 
L 158.104292 556.297767 
" clip-path="url(#p3a778c2eab)" style="fill: #f29888"/>
    <path d="M 153.863219 557.931393 
L 146.08769 555.893972 
L 146.66969 553.674126 
L 154.44522 555.713597 
L 153.863219 557.931393 
" clip-path="url(#p3a778c2eab)" style="fill: #f29888"/>
    <path d="M 299.641386 381.917897 
L 301.47777 381.622737 
L 301.918721 383.754445 
L 300.008389 384.047555 
L 299.641386 381.917897 
" clip-path="url(#p3a778c2eab)" style="fill: #f29888"/>
    <path d="M 360.2393 369.998779 
L 363.83264 369.131748 
L 364.250311 370.861711 
L 360.656971 371.728742 
L 360.2393 369.998779 
" clip-path="url(#p3a778c2eab)" style="fill: #f29888"/>
    <path d="M 354.053659 369.256781 
L 358.234478 368.664412 
L 358.561768 370.984694 
L 354.382318 371.577063 
L 354.053659 369.256781 
" clip-path="url(#p3a778c2eab)" style="fill: #f29888"/>
    <path d="M 367.201397 334.532486 
L 368.655714 334.259873 
L 369.106251 336.653946 
L 366.413985 337.160226 
L 362.890484 337.822286 
L 362.439947 335.428213 
L 367.201397 334.532486 
" clip-path="url(#p3a778c2eab)" style="fill: #f29888"/>
    <path d="M 268.640605 332.015431 
L 267.684755 339.361625 
L 265.319778 339.1792 
L 266.463238 331.623934 
L 268.640605 332.015431 
" clip-path="url(#p3a778c2eab)" style="fill: #f29888"/>
    <path d="M 270.807017 329.719745 
L 273.451354 330.014905 
L 272.643401 336.772829 
L 270.073012 336.479719 
L 270.807017 329.719745 
" clip-path="url(#p3a778c2eab)" style="fill: #f29888"/>
    <path d="M 371.341134 326.382802 
L 371.91081 329.436884 
L 361.897659 331.300079 
L 361.329353 328.248047 
L 371.341134 326.382802 
" clip-path="url(#p3a778c2eab)" style="fill: #f29888"/>
    <path d="M 434.368387 373.577589 
L 441.420866 372.55068 
L 441.861817 375.047238 
L 434.662811 376.223777 
L 434.368387 373.577589 
" clip-path="url(#p3a778c2eab)" style="fill: #f29888"/>
    <path d="M 376.669522 332.890661 
L 378.526446 332.519662 
L 378.998894 334.887088 
L 373.948497 335.897599 
L 370.713943 336.543261 
L 370.241495 334.177885 
L 376.669522 332.890661 
" clip-path="url(#p3a778c2eab)" style="fill: #f29888"/>
    <path d="M 386.699106 330.912682 
L 388.39307 330.592926 
L 388.83676 332.939854 
L 385.258483 333.616262 
L 380.684642 334.479193 
L 380.240952 332.132265 
L 386.699106 330.912682 
" clip-path="url(#p3a778c2eab)" style="fill: #f29888"/>
    <path d="M 390.295185 330.383854 
L 395.785164 329.402039 
L 396.313757 329.307752 
L 396.719104 331.58089 
L 394.251421 332.02158 
L 391.986411 332.425375 
L 390.145919 332.75333 
L 389.740573 330.482241 
L 390.295185 330.383854 
" clip-path="url(#p3a778c2eab)" style="fill: #f29888"/>
    <path d="M 404.074223 327.967235 
L 405.64494 327.692573 
L 406.072197 330.135838 
L 402.00367 330.845041 
L 397.788616 331.58089 
L 397.362728 329.139675 
L 404.074223 327.967235 
" clip-path="url(#p3a778c2eab)" style="fill: #f29888"/>
    <path d="M 407.901734 327.333872 
L 413.858682 326.24957 
L 414.663897 326.101991 
L 415.111695 328.565753 
L 412.960347 328.95725 
L 409.28758 329.625458 
L 407.786703 329.898071 
L 407.337535 327.436358 
L 407.901734 327.333872 
" clip-path="url(#p3a778c2eab)" style="fill: #f29888"/>
    <path d="M 428.818154 323.671024 
L 430.269733 323.457853 
L 430.877752 327.27238 
L 429.396047 327.547043 
L 428.818154 323.671024 
" clip-path="url(#p3a778c2eab)" style="fill: #f29888"/>
    <path d="M 391.067535 323.40251 
L 391.530396 325.866273 
L 385.253005 327.044862 
L 384.790143 324.581099 
L 391.067535 323.40251 
" clip-path="url(#p3a778c2eab)" style="fill: #f29888"/>
    <path d="M 375.910867 320.438616 
L 378.645585 319.854446 
L 379.842453 325.456329 
L 382.704527 324.845513 
L 383.255031 327.42201 
L 374.579797 329.274956 
L 373.982733 326.479139 
L 377.059805 325.821179 
L 375.910867 320.438616 
" clip-path="url(#p3a778c2eab)" style="fill: #f29888"/>
    <path d="M 427.837654 317.085275 
L 428.818154 323.671024 
L 429.396047 327.547043 
L 429.637064 329.17042 
L 427.975965 329.418436 
L 426.951644 322.543678 
L 426.175186 317.333291 
L 427.837654 317.085275 
" clip-path="url(#p3a778c2eab)" style="fill: #f29888"/>
    <path d="M 471.330225 423.969938 
L 474.322393 426.962528 
L 474.088223 427.290483 
L 475.958842 428.926159 
L 472.732504 431.965893 
L 476.753102 436.266204 
L 471.190545 441.503237 
L 469.087125 439.400225 
L 473.340524 435.284389 
L 471.283665 433.415045 
L 467.216507 437.38945 
L 465.345888 435.5652 
L 468.384616 432.57261 
L 467.777966 432.058131 
L 470.348355 429.346352 
L 471.190545 430.188787 
L 473.013234 428.41168 
L 469.881385 425.232565 
L 471.330225 423.969938 
" clip-path="url(#p3a778c2eab)" style="fill: #f29888"/>
    <path d="M 469.021394 426.075 
L 463.143871 431.430916 
L 462.266077 430.467548 
L 468.1436 425.109582 
L 469.021394 426.075 
" clip-path="url(#p3a778c2eab)" style="fill: #f29888"/>
    <path d="M 460.373548 376.812046 
L 463.679312 376.297567 
L 463.973736 379.308604 
L 460.814499 379.603764 
L 460.373548 376.812046 
" clip-path="url(#p3a778c2eab)" style="fill: #f29888"/>
    <path d="M 448.325449 371.374141 
L 454.716501 370.345182 
L 455.157452 372.991369 
L 448.7664 373.872749 
L 448.325449 371.374141 
" clip-path="url(#p3a778c2eab)" style="fill: #f29888"/>
    <path d="M 461.989456 369.170693 
L 469.188462 367.774834 
L 469.77731 370.199652 
L 462.576934 371.595511 
L 461.989456 369.170693 
" clip-path="url(#p3a778c2eab)" style="fill: #f29888"/>
    <path d="M 709.143929 147.067208 
L 711.87317 152.587103 
L 709.096 153.960414 
L 706.366759 148.438471 
L 709.143929 147.067208 
" clip-path="url(#p3a778c2eab)" style="fill: #f29888"/>
    <path d="M 726.402647 144.628042 
L 727.65566 146.892982 
L 725.312593 148.188405 
L 724.06095 145.923465 
L 726.402647 144.628042 
" clip-path="url(#p3a778c2eab)" style="fill: #f29888"/>
    <path d="M 715.099508 129.974599 
L 726.780605 123.804944 
L 728.689567 127.771151 
L 717.083788 133.793226 
L 715.099508 129.974599 
" clip-path="url(#p3a778c2eab)" style="fill: #f29888"/>
    <path d="M 728.54304 124.319424 
L 746.174238 114.843571 
L 747.495721 117.194599 
L 729.791945 126.596662 
L 728.54304 124.319424 
" clip-path="url(#p3a778c2eab)" style="fill: #f29888"/>
    <path d="M 726.65051 120.511045 
L 744.220085 111.061839 
L 745.458034 113.363674 
L 727.889829 122.81288 
L 726.65051 120.511045 
" clip-path="url(#p3a778c2eab)" style="fill: #f29888"/>
    <path d="M 362.797364 313.606902 
L 363.012362 314.78959 
L 359.247844 315.476246 
L 359.031477 314.293558 
L 362.797364 313.606902 
" clip-path="url(#p3a778c2eab)" style="fill: #f29888"/>
    <path d="M 369.704685 303.645266 
L 371.289096 311.956878 
L 353.764713 315.29587 
L 352.180302 306.984259 
L 369.704685 303.645266 
" clip-path="url(#p3a778c2eab)" style="fill: #f29888"/>
    <path d="M 368.038109 295.552974 
L 369.447235 302.897118 
L 351.887247 306.264807 
L 350.47949 298.920663 
L 368.038109 295.552974 
" clip-path="url(#p3a778c2eab)" style="fill: #f29888"/>
    <path d="M 365.003489 280.715056 
L 367.03159 291.078437 
L 349.831758 294.446126 
L 347.803656 284.084795 
L 365.003489 280.715056 
" clip-path="url(#p3a778c2eab)" style="fill: #f29888"/>
    <path d="M 344.274678 274.379374 
L 345.527691 280.335858 
L 343.751562 280.708907 
L 342.498549 274.754472 
L 344.274678 274.379374 
" clip-path="url(#p3a778c2eab)" style="fill: #f29888"/>
    <path d="M 364.016142 274.580246 
L 364.468048 277.041959 
L 347.008027 280.24567 
L 346.556121 277.783958 
L 364.016142 274.580246 
" clip-path="url(#p3a778c2eab)" style="fill: #f29888"/>
    <path d="M 362.009951 233.678098 
L 372.358608 234.780847 
L 372.086095 237.334797 
L 361.737438 236.229998 
L 362.009951 233.678098 
" clip-path="url(#p3a778c2eab)" style="fill: #f29888"/>
    <path d="M 415.143192 319.227232 
L 415.219879 319.614629 
L 415.751211 322.295662 
L 415.206185 322.402247 
L 414.909022 322.461689 
L 410.546071 323.326671 
L 409.938051 320.256191 
L 415.143192 319.227232 
" clip-path="url(#p3a778c2eab)" style="fill: #f29888"/>
    <path d="M 370.283947 319.715065 
L 370.411302 320.239793 
L 370.5099 320.649737 
L 368.954247 321.026886 
L 368.726924 320.092214 
L 370.283947 319.715065 
" clip-path="url(#p3a778c2eab)" style="fill: #f29888"/>
    <path d="M 403.145761 315.217981 
L 403.45251 316.958193 
L 398.325426 317.862119 
L 398.018677 316.123957 
L 403.145761 315.217981 
" clip-path="url(#p3a778c2eab)" style="fill: #f29888"/>
    <path d="M 422.73522 312.610738 
L 423.59932 317.12627 
L 421.589021 317.509567 
L 420.724921 312.994036 
L 422.73522 312.610738 
" clip-path="url(#p3a778c2eab)" style="fill: #f29888"/>
    <path d="M 752.280452 92.530327 
L 757.500656 102.901907 
L 745.720962 109.020319 
L 749.664872 116.612479 
L 729.385229 127.666615 
L 720.514169 109.81151 
L 752.280452 92.530327 
" clip-path="url(#p3a778c2eab)" style="fill: #f29888"/>
    <path d="M 745.720962 109.020319 
L 757.500656 102.901907 
L 769.165319 96.842936 
L 773.10923 104.435097 
L 749.664872 116.612479 
L 745.720962 109.020319 
" clip-path="url(#p3a778c2eab)" style="fill: #f29888"/>
    <path d="M 710.243568 89.451649 
L 724.59639 81.947626 
L 727.155824 86.840306 
L 712.801632 94.344329 
L 710.243568 89.451649 
" clip-path="url(#p3a778c2eab)" style="fill: #f29888"/>
    <path d="M 782.251434 81.912781 
L 792.482322 76.80898 
L 796.375564 84.612261 
L 786.146046 89.716062 
L 782.251434 81.912781 
" clip-path="url(#p3a778c2eab)" style="fill: #f29888"/>
    <path d="M 761.819786 70.221182 
L 762.682516 75.558651 
L 761.100844 75.814866 
L 760.238113 70.475347 
L 761.819786 70.221182 
" clip-path="url(#p3a778c2eab)" style="fill: #f29888"/>
    <path d="M 717.097482 67.933695 
L 727.003819 66.703864 
L 727.500916 70.719264 
L 717.594579 71.947046 
L 717.097482 67.933695 
" clip-path="url(#p3a778c2eab)" style="fill: #f29888"/>
    <path d="M 734.54244 43.65477 
L 747.754541 41.404178 
L 748.329694 44.780066 
L 752.264019 44.109808 
L 753.440345 51.021461 
L 749.92643 51.61793 
L 751.321863 59.812707 
L 737.690721 62.135039 
L 734.54244 43.65477 
" clip-path="url(#p3a778c2eab)" style="fill: #f29888"/>
   </g>
   <g id="LineCollection_1">
    <path d="M 192.506696 581.581054 
L 195.11678 589.377199 
" clip-path="url(#p3a778c2eab)" style="fill: none; stroke: #f29888; stroke-width: 0.2"/>
    <path d="M 156.711599 554.994145 
L 177.267864 560.997773 
L 179.545198 560.926033 
L 181.125501 560.005709 
L 183.615095 558.185558 
" clip-path="url(#p3a778c2eab)" style="fill: none; stroke: #f29888; stroke-width: 0.2"/>
    <path d="M 190.075988 552.007704 
L 191.982211 549.826803 
" clip-path="url(#p3a778c2eab)" style="fill: none; stroke: #f29888; stroke-width: 0.2"/>
    <path d="M 179.352111 526.558389 
L 179.867011 527.685735 
L 181.219991 531.66424 
L 183.427485 538.506203 
L 187.820564 548.541629 
L 190.075988 552.007704 
L 190.356717 552.438145 
L 190.610059 554.535008 
L 189.629559 560.87274 
" clip-path="url(#p3a778c2eab)" style="fill: none; stroke: #f29888; stroke-width: 0.2"/>
    <path d="M 236.929098 512.952353 
L 214.982879 555.014642 
L 208.63017 565.792066 
" clip-path="url(#p3a778c2eab)" style="fill: none; stroke: #f29888; stroke-width: 0.2"/>
    <path d="M 205.788637 564.215832 
L 203.178535 564.578633 
L 199.219561 564.166639 
L 189.629559 560.87274 
L 188.15607 560.366459 
L 183.615095 558.185558 
L 169.722396 551.515771 
L 127.69099 529.809244 
L 91.45768 512.263647 
L 47.950046 491.774653 
" clip-path="url(#p3a778c2eab)" style="fill: none; stroke: #f29888; stroke-width: 0.2"/>
    <path d="M 248.859428 575.577426 
L 248.675927 577.567704 
L 248.944332 578.430636 
L 249.752286 579.34481 
L 250.72183 580.15445 
L 252.337738 580.962039 
L 269.139072 585.647697 
L 276.654412 587.482196 
L 277.466475 587.52319 
L 278.115577 587.197285 
L 279.008434 586.50653 
L 279.374067 585.694841 
L 279.738331 584.153452 
L 280.062882 582.245163 
L 280.550394 581.230552 
L 281.321373 580.418863 
L 282.652443 579.027104 
" clip-path="url(#p3a778c2eab)" style="fill: none; stroke: #f29888; stroke-width: 0.2"/>
    <path d="M 341.074359 605.167174 
L 338.709382 604.861766 
L 336.49504 604.433375 
L 334.279329 603.646282 
L 330.277903 601.860977 
L 327.777354 600.502013 
L 324.275764 598.214526 
L 321.13296 596.28574 
L 317.846368 594.283165 
L 314.915823 592.569599 
L 313.558735 591.854247 
L 311.700441 591.354116 
L 310.200933 591.138895 
L 307.985222 591.210635 
L 306.413136 591.282376 
L 304.984837 590.995415 
L 303.697589 590.282113 
L 301.628405 588.714077 
L 299.813932 587.123495 
L 296.452022 584.219043 
L 292.614926 580.812409 
L 290.866185 580.209792 
L 289.437887 579.918732 
L 288.090384 579.70966 
L 282.652443 579.027104 
L 266.494734 576.442408 
L 263.598425 576.052961 
L 250.88616 575.747553 
L 248.859428 575.577426 
L 243.118847 575.097792 
L 236.757922 573.806469 
L 226.294234 573.13826 
L 220.824797 571.848987 
L 216.756269 570.237908 
L 208.63017 565.792066 
L 205.788637 564.215832 
L 200.840947 560.448448 
L 191.982211 549.826803 
L 190.730567 547.162168 
L 185.283041 535.216404 
L 184.184771 528.936064 
L 184.339515 527.085167 
" clip-path="url(#p3a778c2eab)" style="fill: none; stroke: #f29888; stroke-width: 0.2"/>
    <path d="M 269.156874 536.77419 
L 263.598425 576.052961 
" clip-path="url(#p3a778c2eab)" style="fill: none; stroke: #f29888; stroke-width: 0.2"/>
    <path d="M 322.420209 437.998217 
L 329.153615 501.320195 
L 333.072876 533.367557 
L 340.48825 602.20328 
L 341.074359 605.167174 
L 341.652251 607.430064 
L 341.507093 609.994263 
L 340.847036 612.927411 
L 339.420107 618.182892 
L 336.915812 626.548039 
" clip-path="url(#p3a778c2eab)" style="fill: none; stroke: #f29888; stroke-width: 0.2"/>
    <path d="M 248.373286 535.310691 
L 269.156874 536.77419 
L 270.842622 536.893074 
L 289.924029 539.084224 
" clip-path="url(#p3a778c2eab)" style="fill: none; stroke: #f29888; stroke-width: 0.2"/>
    <path d="M 349.226477 416.998843 
L 352.018711 442.860151 
L 356.866434 476.215233 
L 361.128049 507.368917 
L 366.711147 545.282575 
L 369.796436 563.652159 
L 375.967013 604.361635 
L 374.644159 609.50438 
L 372.881724 614.060906 
L 370.237387 615.382975 
L 363.331435 613.913326 
L 341.652251 607.430064 
" clip-path="url(#p3a778c2eab)" style="fill: none; stroke: #f29888; stroke-width: 0.2"/>
    <path d="M 295.483847 439.941351 
L 298.962157 466.491365 
L 303.824944 512.357934 
L 308.64391 553.399463 
L 313.562843 588.625939 
L 313.629944 590.138632 
L 313.558735 591.854247 
" clip-path="url(#p3a778c2eab)" style="fill: none; stroke: #f29888; stroke-width: 0.2"/>
    <path d="M 236.757922 573.806469 
L 246.161684 542.970492 
L 248.373286 535.310691 
L 254.000206 515.824009 
L 256.940337 504.847762 
L 264.778859 465.159048 
L 267.620392 450.360074 
" clip-path="url(#p3a778c2eab)" style="fill: none; stroke: #f29888; stroke-width: 0.2"/>
    <path d="M 279.279578 442.423561 
L 284.539495 489.872513 
L 289.924029 539.084224 
L 290.615582 545.409658 
L 293.166799 576.626883 
L 293.105176 578.791386 
L 292.614926 580.812409 
" clip-path="url(#p3a778c2eab)" style="fill: none; stroke: #f29888; stroke-width: 0.2"/>
    <path d="M 241.748064 444.153524 
L 244.626571 444.719247 
L 248.507489 447.336738 
L 252.726652 453.498194 
L 259.455949 459.173867 
" clip-path="url(#p3a778c2eab)" style="fill: none; stroke: #f29888; stroke-width: 0.2"/>
    <path d="M 267.620392 450.360074 
L 271.369846 446.641883 
L 273.689632 444.637258 
L 276.635241 443.206554 
L 279.279578 442.423561 
L 295.483847 439.941351 
" clip-path="url(#p3a778c2eab)" style="fill: none; stroke: #f29888; stroke-width: 0.2"/>
    <path d="M 295.483847 439.941351 
L 322.420209 437.998217 
" clip-path="url(#p3a778c2eab)" style="fill: none; stroke: #f29888; stroke-width: 0.2"/>
    <path d="M 320.909746 421.042939 
L 320.987803 421.862827 
L 322.420209 437.998217 
" clip-path="url(#p3a778c2eab)" style="fill: none; stroke: #f29888; stroke-width: 0.2"/>
    <path d="M 320.987803 421.862827 
L 327.407613 419.860251 
L 336.09928 417.667051 
L 345.112759 417.144373 
" clip-path="url(#p3a778c2eab)" style="fill: none; stroke: #f29888; stroke-width: 0.2"/>
    <path d="M 290.845644 387.097538 
L 289.830908 387.798542 
L 289.159896 388.712716 
L 288.888752 390.247956 
L 291.559108 410.37415 
L 295.483847 439.941351 
" clip-path="url(#p3a778c2eab)" style="fill: none; stroke: #f29888; stroke-width: 0.2"/>
    <path d="M 291.559108 410.37415 
L 321.257577 407.188886 
L 327.848564 406.403844 
L 329.653451 405.934458 
L 336.086955 399.42045 
L 338.720337 397.048925 
" clip-path="url(#p3a778c2eab)" style="fill: none; stroke: #f29888; stroke-width: 0.2"/>
    <path d="M 179.352111 526.558389 
L 186.181376 524.2873 
" clip-path="url(#p3a778c2eab)" style="fill: none; stroke: #f29888; stroke-width: 0.2"/>
    <path d="M 190.730567 547.162168 
L 235.580226 489.755679 
L 251.648923 468.686614 
L 259.455949 459.173867 
L 260.173522 458.298637 
L 267.620392 450.360074 
" clip-path="url(#p3a778c2eab)" style="fill: none; stroke: #f29888; stroke-width: 0.2"/>
    <path d="M 47.793933 469.500353 
L 97.48036 490.368545 
L 177.270603 525.420795 
L 178.433235 525.988567 
L 179.352111 526.558389 
" clip-path="url(#p3a778c2eab)" style="fill: none; stroke: #f29888; stroke-width: 0.2"/>
    <path d="M 45.339215 493.321939 
L 47.950046 491.774653 
L 48.177369 484.084106 
L 47.793933 469.500353 
" clip-path="url(#p3a778c2eab)" style="fill: none; stroke: #f29888; stroke-width: 0.2"/>
    <path d="M 184.339515 527.085167 
L 185.529535 525.23632 
L 186.181376 524.2873 
L 241.748064 444.153524 
" clip-path="url(#p3a778c2eab)" style="fill: none; stroke: #f29888; stroke-width: 0.2"/>
    <path d="M 176.042239 499.676321 
L 103.578358 470.955654 
L 81.236378 462.486214 
" clip-path="url(#p3a778c2eab)" style="fill: none; stroke: #f29888; stroke-width: 0.2"/>
    <path d="M 176.042239 499.676321 
L 180.239491 498.489533 
L 182.939974 496.548449 
L 183.868437 493.848969 
L 184.206682 491.0634 
L 184.37512 488.784112 
L 184.575054 480.501197 
L 189.016062 469.203144 
L 189.776086 465.405014 
L 190.511461 459.165668 
" clip-path="url(#p3a778c2eab)" style="fill: none; stroke: #f29888; stroke-width: 0.2"/>
    <path d="M 117.02189 432.767333 
L 109.528459 452.016247 
L 103.578358 470.955654 
L 97.48036 490.368545 
L 91.45768 512.263647 
" clip-path="url(#p3a778c2eab)" style="fill: none; stroke: #f29888; stroke-width: 0.2"/>
    <path d="M 48.581346 429.614865 
L 109.528459 452.016247 
L 184.575054 480.501197 
" clip-path="url(#p3a778c2eab)" style="fill: none; stroke: #f29888; stroke-width: 0.2"/>
    <path d="M 190.511461 459.165668 
L 191.053749 456.037797 
L 192.05479 453.53099 
L 193.057201 452.251965 
L 195.283867 451.19226 
L 197.566679 450.079263 
L 199.237363 449.189684 
L 201.186039 447.853267 
L 206.919773 443.120466 
L 209.70379 440.447632 
L 211.819534 438.387664 
L 217.108209 434.655125 
L 218.224281 434.130397 
L 219.43895 433.630265 
L 220.713874 433.822939 
L 222.210643 434.823202 
L 223.215792 435.823465 
L 224.215464 436.253906 
L 225.85876 436.182166 
L 227.359637 436.253906 
L 229.074143 436.682297 
L 231.218644 437.53908 
L 235.218701 439.683086 
L 240.221168 442.899096 
L 241.748064 444.153524 
" clip-path="url(#p3a778c2eab)" style="fill: none; stroke: #f29888; stroke-width: 0.2"/>
    <path d="M 117.02189 432.767333 
L 190.511461 459.165668 
" clip-path="url(#p3a778c2eab)" style="fill: none; stroke: #f29888; stroke-width: 0.2"/>
    <path d="M 128.479539 383.047502 
L 124.727579 401.205756 
L 117.02189 432.767333 
" clip-path="url(#p3a778c2eab)" style="fill: none; stroke: #f29888; stroke-width: 0.2"/>
    <path d="M 219.43895 433.630265 
L 222.340737 430.256427 
L 224.957686 426.638673 
L 226.628371 423.631734 
L 229.078251 420.903558 
L 231.137849 418.730856 
L 240.768934 405.813525 
L 249.78789 393.230298 
L 252.849899 384.266875 
L 255.132711 373.632932 
L 258.083797 370.570651 
L 260.700746 367.897817 
L 266.100343 363.888566 
L 267.380745 360.326154 
L 267.879211 351.090119 
L 268.246214 348.187716 
L 268.613217 345.285314 
L 268.929551 342.073403 
" clip-path="url(#p3a778c2eab)" style="fill: none; stroke: #f29888; stroke-width: 0.2"/>
    <path d="M 268.929551 342.073403 
L 264.856916 341.675758 
L 245.553664 340.411081 
L 238.746832 340.036985 
" clip-path="url(#p3a778c2eab)" style="fill: none; stroke: #f29888; stroke-width: 0.2"/>
    <path d="M 326.140905 381.548947 
L 324.522259 375.809733 
L 323.749909 373.921942 
L 321.776585 371.691847 
L 319.030911 369.375665 
L 316.713863 366.372826 
L 315.512888 362.080714 
L 314.398185 356.761692 
L 314.311912 355.216204 
L 314.911715 353.586677 
L 315.684064 352.557718 
L 317.486212 351.95715 
L 319.80326 351.612797 
L 321.261685 351.098318 
L 321.862858 350.325573 
L 322.462661 349.210526 
" clip-path="url(#p3a778c2eab)" style="fill: none; stroke: #f29888; stroke-width: 0.2"/>
    <path d="M 290.845644 387.097538 
L 290.8073 383.715501 
L 290.590933 380.962728 
L 289.904857 372.716707 
L 287.680929 356.446035 
L 285.843177 343.003976 
" clip-path="url(#p3a778c2eab)" style="fill: none; stroke: #f29888; stroke-width: 0.2"/>
    <path d="M 287.680929 356.446035 
L 293.757017 356.77399 
L 294.690957 356.540322 
L 295.100411 355.990997 
L 295.475631 354.921044 
L 295.853589 353.623572 
L 295.854958 350.405512 
L 295.950817 348.868223 
L 296.368488 347.42932 
L 297.06552 345.521031 
L 298.095318 343.377025 
L 299.412694 340.333192 
" clip-path="url(#p3a778c2eab)" style="fill: none; stroke: #f29888; stroke-width: 0.2"/>
    <path d="M 317.108254 333.280108 
L 322.462661 349.210526 
L 323.578733 350.155447 
L 325.636961 350.411662 
L 327.18166 350.842103 
L 329.070081 351.871062 
L 331.214582 353.330462 
L 333.789079 354.8739 
L 340.13768 357.103995 
L 343.740607 358.30718 
L 346.830003 358.907748 
L 349.147051 358.907748 
L 351.210757 358.737621 
" clip-path="url(#p3a778c2eab)" style="fill: none; stroke: #f29888; stroke-width: 0.2"/>
    <path d="M 309.421737 345.521031 
L 308.716489 336.565808 
" clip-path="url(#p3a778c2eab)" style="fill: none; stroke: #f29888; stroke-width: 0.2"/>
    <path d="M 346.275391 326.089692 
L 341.704289 326.936226 
L 330.969457 328.803521 
L 324.319585 330.496589 
L 317.108254 333.280108 
L 316.066131 333.681853 
L 308.716489 336.565808 
L 305.924255 337.662407 
L 301.647577 339.388271 
L 299.412694 340.333192 
L 295.801551 341.396996 
L 285.843177 343.003976 
L 280.18476 342.915838 
L 275.206942 342.895341 
L 268.929551 342.073403 
" clip-path="url(#p3a778c2eab)" style="fill: none; stroke: #f29888; stroke-width: 0.2"/>
    <path d="M 352.873225 317.700191 
L 350.988912 321.397885 
L 348.975874 323.894443 
L 347.138121 325.730991 
L 346.275391 326.089692 
" clip-path="url(#p3a778c2eab)" style="fill: none; stroke: #f29888; stroke-width: 0.2"/>
    <path d="M 313.223228 305.719582 
L 313.094504 314.416541 
L 314.054462 323.435306 
L 317.108254 333.280108 
" clip-path="url(#p3a778c2eab)" style="fill: none; stroke: #f29888; stroke-width: 0.2"/>
    <path d="M 301.647577 339.388271 
L 302.974538 335.678279 
L 303.703066 332.193756 
L 303.590774 329.373343 
L 303.221033 325.780185 
L 300.741025 315.95998 
L 299.293555 310.058838 
L 298.180222 301.708281 
L 297.789939 290.240102 
L 299.460624 284.228275 
L 300.955597 279.968994 
" clip-path="url(#p3a778c2eab)" style="fill: none; stroke: #f29888; stroke-width: 0.2"/>
    <path d="M 444.274724 422.067799 
L 447.01492 424.582804 
L 460.183199 432.896466 
" clip-path="url(#p3a778c2eab)" style="fill: none; stroke: #f29888; stroke-width: 0.2"/>
    <path d="M 473.335046 416.478214 
L 444.274724 422.067799 
L 441.916594 422.520787 
L 394.712913 431.283337 
L 376.132712 434.304623 
" clip-path="url(#p3a778c2eab)" style="fill: none; stroke: #f29888; stroke-width: 0.2"/>
    <path d="M 371.872467 414.936825 
L 374.425053 429.631263 
L 376.132712 434.304623 
" clip-path="url(#p3a778c2eab)" style="fill: none; stroke: #f29888; stroke-width: 0.2"/>
    <path d="M 481.07634 395.98717 
L 438.156184 403.460447 
L 437.2332 403.626474 
L 402.481595 409.513268 
L 371.872467 414.936825 
L 370.971393 415.088504 
L 358.923293 416.998843 
L 349.226477 416.998843 
L 345.112759 417.144373 
L 341.880943 414.793345 
L 340.411563 403.333364 
L 338.720337 397.048925 
L 338.354704 395.692011 
L 334.681937 386.876168 
L 329.572655 380.776203 
" clip-path="url(#p3a778c2eab)" style="fill: none; stroke: #f29888; stroke-width: 0.2"/>
    <path d="M 371.872467 414.936825 
L 370.941265 405.282647 
L 368.510557 390.520569 
L 368.418806 389.965095 
L 366.16886 373.511998 
" clip-path="url(#p3a778c2eab)" style="fill: none; stroke: #f29888; stroke-width: 0.2"/>
    <path d="M 431.224214 363.195761 
L 434.041097 379.56072 
L 438.156184 403.460447 
L 441.916594 422.520787 
" clip-path="url(#p3a778c2eab)" style="fill: none; stroke: #f29888; stroke-width: 0.2"/>
    <path d="M 338.354704 395.692011 
L 368.510557 390.520569 
L 381.811669 387.503382 
L 397.418874 385.523353 
L 416.637222 382.883315 
L 434.041097 379.56072 
" clip-path="url(#p3a778c2eab)" style="fill: none; stroke: #f29888; stroke-width: 0.2"/>
    <path d="M 473.335046 416.478214 
L 477.640482 412.9322 
L 480.425869 408.965993 
L 481.269427 400.357172 
L 481.07634 395.98717 
L 480.594306 384.998625 
L 478.653848 367.783033 
L 478.614135 355.38838 
" clip-path="url(#p3a778c2eab)" style="fill: none; stroke: #f29888; stroke-width: 0.2"/>
    <path d="M 402.481595 409.513268 
L 400.445278 399.895985 
L 397.418874 385.523353 
L 395.493479 378.205855 
L 393.821425 369.125599 
L 390.879925 351.539007 
" clip-path="url(#p3a778c2eab)" style="fill: none; stroke: #f29888; stroke-width: 0.2"/>
    <path d="M 647.102011 375.351871 
L 643.924245 371.251158 
L 642.864319 369.881945 
" clip-path="url(#p3a778c2eab)" style="fill: none; stroke: #f29888; stroke-width: 0.2"/>
    <path d="M 642.864319 369.881945 
L 626.579255 347.626093 
" clip-path="url(#p3a778c2eab)" style="fill: none; stroke: #f29888; stroke-width: 0.2"/>
    <path d="M 603.996258 319.956932 
L 594.990996 328.379229 
L 585.976147 335.725423 
L 581.332466 337.514828 
L 555.706633 342.450552 
L 536.844332 346.299925 
L 494.643119 353.063998 
L 478.614135 355.38838 
L 477.689781 355.53596 
" clip-path="url(#p3a778c2eab)" style="fill: none; stroke: #f29888; stroke-width: 0.2"/>
    <path d="M 626.579255 347.626093 
L 634.513636 342.190237 
L 656.257183 324.853712 
L 664.632515 317.066828 
L 666.898894 309.148762 
L 667.312457 305.975797 
" clip-path="url(#p3a778c2eab)" style="fill: none; stroke: #f29888; stroke-width: 0.2"/>
    <path d="M 600.113971 344.774933 
L 614.561283 332.283944 
L 616.87833 330.004656 
L 660.766661 294.109972 
" clip-path="url(#p3a778c2eab)" style="fill: none; stroke: #f29888; stroke-width: 0.2"/>
    <path d="M 496.076895 328.498112 
L 534.16576 321.914414 
L 562.227779 316.037869 
L 570.868778 314.20132 
L 576.625792 312.364772 
L 588.525995 304.430308 
" clip-path="url(#p3a778c2eab)" style="fill: none; stroke: #f29888; stroke-width: 0.2"/>
    <path d="M 535.155845 271.429828 
L 511.577285 305.528958 
L 496.076895 328.498112 
L 480.164311 352.082183 
L 477.689781 355.53596 
" clip-path="url(#p3a778c2eab)" style="fill: none; stroke: #f29888; stroke-width: 0.2"/>
    <path d="M 547.431267 267.426726 
L 547.591489 268.547922 
L 547.75171 269.523589 
L 548.150209 270.425465 
L 548.696605 271.105972 
L 566.928976 286.505513 
L 585.294179 301.747226 
L 588.525995 304.430308 
L 598.517235 314.27511 
L 603.996258 319.956932 
L 610.285974 327.141198 
L 614.561283 332.283944 
L 626.579255 347.626093 
" clip-path="url(#p3a778c2eab)" style="fill: none; stroke: #f29888; stroke-width: 0.2"/>
    <path d="M 566.928976 286.505513 
L 554.880876 291.795839 
L 511.577285 305.528958 
" clip-path="url(#p3a778c2eab)" style="fill: none; stroke: #f29888; stroke-width: 0.2"/>
    <path d="M 477.689781 355.53596 
L 472.013562 356.726847 
L 431.224214 363.195761 
L 393.821425 369.125599 
L 366.16886 373.511998 
L 365.158233 373.671876 
L 329.572655 380.776203 
L 326.140905 381.548947 
L 324.965949 381.813361 
L 308.730183 385.468011 
L 290.845644 387.097538 
" clip-path="url(#p3a778c2eab)" style="fill: none; stroke: #f29888; stroke-width: 0.2"/>
    <path d="M 366.16886 373.511998 
L 363.475223 363.540114 
L 362.531698 361.310019 
L 361.759348 359.764531 
L 360.815823 358.649483 
L 359.902424 357.144989 
" clip-path="url(#p3a778c2eab)" style="fill: none; stroke: #f29888; stroke-width: 0.2"/>
    <path d="M 351.210757 358.737621 
L 359.902424 357.144989 
L 371.265816 355.064524 
L 386.397835 352.201067 
L 390.879925 351.539007 
L 414.533803 347.5728 
L 441.346918 342.723164 
L 464.194211 339.197647 
L 466.471546 339.050067 
L 469.155596 338.484345 
" clip-path="url(#p3a778c2eab)" style="fill: none; stroke: #f29888; stroke-width: 0.2"/>
    <path d="M 469.155596 338.484345 
L 472.013562 356.726847 
" clip-path="url(#p3a778c2eab)" style="fill: none; stroke: #f29888; stroke-width: 0.2"/>
    <path d="M 364.337954 333.179671 
L 373.780059 331.494802 
L 415.259592 324.091216 
L 421.68488 322.943373 
" clip-path="url(#p3a778c2eab)" style="fill: none; stroke: #f29888; stroke-width: 0.2"/>
    <path d="M 415.259592 324.091216 
L 414.909022 322.461689 
" clip-path="url(#p3a778c2eab)" style="fill: none; stroke: #f29888; stroke-width: 0.2"/>
    <path d="M 360.585761 323.572637 
L 371.605431 321.715591 
" clip-path="url(#p3a778c2eab)" style="fill: none; stroke: #f29888; stroke-width: 0.2"/>
    <path d="M 426.951644 322.543678 
L 422.283314 323.345118 
L 421.68488 322.943373 
L 419.299362 318.889028 
L 415.219879 319.614629 
" clip-path="url(#p3a778c2eab)" style="fill: none; stroke: #f29888; stroke-width: 0.2"/>
    <path d="M 426.290217 298.537365 
L 427.669217 306.203316 
L 429.278277 315.711963 
L 429.969831 318.401195 
L 430.351897 319.797054 
L 431.487141 320.883405 
L 433.17015 321.598757 
L 436.899063 322.484236 
L 463.10005 326.743553 
L 464.976146 327.292878 
L 466.164797 328.100467 
L 466.912497 329.414337 
L 467.831373 331.931392 
L 469.155596 338.484345 
" clip-path="url(#p3a778c2eab)" style="fill: none; stroke: #f29888; stroke-width: 0.2"/>
    <path d="M 466.164797 328.100467 
L 465.629357 325.862173 
L 465.20073 322.514982 
L 465.544453 319.339967 
L 465.029554 312.30533 
L 462.626233 300.892493 
L 462.197607 297.202998 
L 461.682707 295.317256 
L 460.910358 293.513503 
L 460.310555 292.347213 
" clip-path="url(#p3a778c2eab)" style="fill: none; stroke: #f29888; stroke-width: 0.2"/>
    <path d="M 373.780059 331.494802 
L 371.605431 321.715591 
L 370.359265 314.93717 
L 352.873225 317.700191 
L 346.517777 282.328185 
L 359.110903 279.975107 
" clip-path="url(#p3a778c2eab)" style="fill: none; stroke: #f29888; stroke-width: 0.2"/>
    <path d="M 427.669217 306.203316 
L 449.924923 302.239159 
" clip-path="url(#p3a778c2eab)" style="fill: none; stroke: #f29888; stroke-width: 0.2"/>
    <path d="M 488.688909 285.29003 
L 481.003761 296.696718 
L 472.594193 310.673753 
L 468.663977 316.025571 
L 465.544453 319.339967 
" clip-path="url(#p3a778c2eab)" style="fill: none; stroke: #f29888; stroke-width: 0.2"/>
    <path d="M 424.904371 297.959345 
L 423.748586 290.451223 
" clip-path="url(#p3a778c2eab)" style="fill: none; stroke: #f29888; stroke-width: 0.2"/>
    <path d="M 380.843494 297.377224 
L 419.864929 290.807874 
L 423.748586 290.451223 
L 457.922298 284.621821 
" clip-path="url(#p3a778c2eab)" style="fill: none; stroke: #f29888; stroke-width: 0.2"/>
    <path d="M 381.447405 306.600961 
L 422.517483 298.2873 
L 423.670529 298.041333 
L 424.904371 297.959345 
L 426.290217 298.537365 
L 427.10091 298.488172 
L 459.569702 292.484544 
L 460.310555 292.347213 
L 478.842827 288.399454 
L 481.159874 288.399454 
L 483.648098 287.456583 
L 488.688909 285.29003 
L 491.62767 284.025353 
L 500.120772 280.678161 
L 506.470743 278.704281 
L 515.822467 276.560275 
L 527.834961 272.011948 
L 531.524161 270.896901 
L 534.054837 269.788003 
" clip-path="url(#p3a778c2eab)" style="fill: none; stroke: #f29888; stroke-width: 0.2"/>
    <path d="M 451.301184 257.137135 
L 456.621355 259.881709 
L 467.946404 264.427987 
L 485.878873 272.237417 
L 494.200798 275.324294 
L 501.065668 277.47035 
L 506.470743 278.704281 
" clip-path="url(#p3a778c2eab)" style="fill: none; stroke: #f29888; stroke-width: 0.2"/>
    <path d="M 365.912062 230.182406 
L 380.869513 231.698069 
L 399.896143 232.727028 
L 425.753407 232.212548 
L 434.957235 235.627381 
" clip-path="url(#p3a778c2eab)" style="fill: none; stroke: #f29888; stroke-width: 0.2"/>
    <path d="M 479.872626 217.15531 
L 479.357726 216.212439 
L 478.757923 215.69796 
L 477.555578 215.525783 
L 475.668526 215.525783 
L 473.608929 216.554743 
L 464.428381 221.273196 
L 451.214911 228.309883 
L 446.582185 230.025498 
L 442.549263 230.88228 
L 437.616636 231.595583 
" clip-path="url(#p3a778c2eab)" style="fill: none; stroke: #f29888; stroke-width: 0.2"/>
    <path d="M 511.996326 202.956905 
L 509.902493 203.172125 
L 507.071915 203.342252 
L 503.982518 203.342252 
L 501.665471 203.514428 
L 499.349793 204.373261 
L 498.147448 205.574396 
L 495.83177 208.577235 
L 494.115895 211.580074 
L 493.343545 212.522945 
L 491.88512 213.209601 
L 483.733002 215.097392 
L 481.588501 215.868087 
L 479.872626 217.15531 
" clip-path="url(#p3a778c2eab)" style="fill: none; stroke: #f29888; stroke-width: 0.2"/>
    <path d="M 652.437889 279.901318 
L 638.562992 290.309792 
L 637.33052 290.785327 
L 635.624231 290.785327 
L 631.926814 289.74202 
L 630.505363 289.457109 
L 628.988053 289.457109 
L 626.807947 290.68899 
L 619.602094 296.0941 
L 617.705456 297.04107 
L 615.999167 297.325981 
L 614.483226 296.852496 
L 611.733444 293.913199 
L 609.551969 290.215505 
L 607.75119 288.604426 
L 606.803556 288.413802 
L 605.854552 288.413802 
L 593.909159 295.714902 
L 589.264109 298.748487 
L 587.084003 300.265279 
L 585.294179 301.747226 
" clip-path="url(#p3a778c2eab)" style="fill: none; stroke: #f29888; stroke-width: 0.2"/>
    <path d="M 630.651891 273.112647 
L 627.755581 274.856958 
L 623.20502 275.900265 
L 621.213893 276.752949 
L 619.222766 278.081167 
L 615.619839 280.262068 
L 610.121645 283.010742 
L 608.225007 284.242623 
L 607.087024 285.476554 
L 606.424228 286.993346 
L 605.854552 288.413802 
" clip-path="url(#p3a778c2eab)" style="fill: none; stroke: #f29888; stroke-width: 0.2"/>
    <path d="M 667.312457 305.975797 
L 660.766661 294.109972 
L 652.437889 279.901318 
L 646.145434 269.166938 
L 644.12418 267.912509 
L 642.706837 268.297857 
L 633.419475 273.89769 
L 632.166462 273.922286 
L 630.651891 273.112647 
L 620.069064 260.849177 
L 616.838617 257.618819 
L 615.121373 255.239095 
L 612.633149 245.994861 
" clip-path="url(#p3a778c2eab)" style="fill: none; stroke: #f29888; stroke-width: 0.2"/>
    <path d="M 588.587618 257.290864 
L 589.991267 259.566052 
L 594.250143 265.899685 
" clip-path="url(#p3a778c2eab)" style="fill: none; stroke: #f29888; stroke-width: 0.2"/>
    <path d="M 530.104079 259.795621 
L 525.260464 258.766662 
L 523.115963 257.993918 
L 514.965214 252.931111 
L 508.958967 250.186537 
L 507.243092 249.672057 
L 506.299566 248.985401 
L 491.541397 231.39676 
L 479.872626 217.15531 
" clip-path="url(#p3a778c2eab)" style="fill: none; stroke: #f29888; stroke-width: 0.2"/>
    <path d="M 535.155845 271.429828 
L 534.054837 269.788003 
L 531.437888 263.028028 
L 530.104079 259.795621 
L 523.159784 242.969475 
L 510.877515 214.646454 
L 510.191439 211.721504 
L 510.362615 208.282075 
L 511.648495 204.082201 
L 511.996326 202.956905 
L 512.377023 201.725023 
" clip-path="url(#p3a778c2eab)" style="fill: none; stroke: #f29888; stroke-width: 0.2"/>
    <path d="M 703.367743 182.113309 
L 700.852131 181.801752 
L 695.716831 181.387708 
L 693.282013 181.633675 
L 690.41857 182.652385 
L 686.849879 185.124347 
L 678.689544 191.81668 
L 612.633149 245.994861 
L 605.491658 251.510656 
L 601.476538 253.59522 
L 588.587618 257.290864 
L 547.431267 267.426726 
L 538.735492 269.611727 
L 536.633443 270.374222 
L 535.155845 271.429828 
" clip-path="url(#p3a778c2eab)" style="fill: none; stroke: #f29888; stroke-width: 0.2"/>
    <path d="M 761.159886 191.845213 
L 750.917886 189.672674 
L 730.668369 185.597832 
L 724.716899 184.759497 
L 713.532899 183.404632 
L 703.367743 182.113309 
" clip-path="url(#p3a778c2eab)" style="fill: none; stroke: #f29888; stroke-width: 0.2"/>
    <path d="M 512.748134 200.753456 
L 512.819343 196.908183 
L 512.133267 192.618121 
L 510.588569 185.497396 
L 506.384469 169.11194 
L 506.025683 167.461916 
L 505.112284 166.652276 
L 503.725069 166.195189 
L 501.150571 165.594621 
L 493.172369 165.16623 
" clip-path="url(#p3a778c2eab)" style="fill: none; stroke: #f29888; stroke-width: 0.2"/>
    <path d="M 518.365468 195.530772 
L 522.876315 188.596571 
L 524.859226 183.302146 
L 526.498414 178.524251 
L 531.114706 166.586685 
L 533.422168 163.024273 
L 535.895329 160.121871 
L 537.770056 158.586631 
L 539.470867 157.660158 
" clip-path="url(#p3a778c2eab)" style="fill: none; stroke: #f29888; stroke-width: 0.2"/>
    <path d="M 512.377023 201.725023 
L 512.748134 200.753456 
L 513.278097 199.367846 
L 514.162738 198.037578 
L 515.365083 196.953277 
L 517.033028 196.082146 
L 518.365468 195.530772 
L 522.217627 194.717033 
L 529.127688 193.323224 
L 531.529639 193.128501 
L 534.824447 192.925578 
L 536.463635 192.511535 
L 539.106603 191.544068 
L 542.239821 190.023176 
L 558.040113 180.856831 
L 583.898747 166.461652 
L 609.471173 153.019593 
L 618.761274 149.053386 
L 630.016483 145.08718 
L 637.974144 142.834538 
" clip-path="url(#p3a778c2eab)" style="fill: none; stroke: #f29888; stroke-width: 0.2"/>
    <path d="M 678.689544 191.81668 
L 676.524501 189.022913 
L 667.350801 172.098381 
L 665.166586 168.494974 
L 662.545529 165.656113 
L 659.378076 163.362477 
L 656.429729 161.835436 
L 653.808672 161.398846 
L 651.40672 161.398846 
L 649.768902 161.616116 
L 648.129714 160.960206 
L 647.365581 159.869755 
L 644.526787 154.300668 
L 641.468887 147.967035 
L 639.284673 144.363629 
L 637.974144 142.834538 
" clip-path="url(#p3a778c2eab)" style="fill: none; stroke: #f29888; stroke-width: 0.2"/>
    <path d="M 701.566965 147.755914 
L 703.065103 165.744251 
L 703.367743 182.113309 
" clip-path="url(#p3a778c2eab)" style="fill: none; stroke: #f29888; stroke-width: 0.2"/>
    <path d="M 703.065103 165.744251 
L 719.092718 157.004248 
" clip-path="url(#p3a778c2eab)" style="fill: none; stroke: #f29888; stroke-width: 0.2"/>
    <path d="M 506.025683 167.461916 
L 506.398164 166.449354 
L 506.974687 165.379401 
L 509.936728 162.745511 
L 510.746051 162.163391 
L 515.204861 158.95968 
L 518.82559 157.725749 
L 520.719489 157.231766 
L 525.657594 157.395744 
L 532.443038 157.986063 
L 539.470867 157.660158 
L 541.237411 157.270711 
L 542.810867 156.541011 
L 545.677049 155.167699 
L 552.897966 152.505114 
L 565.092592 147.950637 
" clip-path="url(#p3a778c2eab)" style="fill: none; stroke: #f29888; stroke-width: 0.2"/>
    <path d="M 552.084534 140.436367 
L 544.348718 140.930349 
L 543.031342 140.600344 
L 541.631802 140.024373 
L 539.985767 140.272389 
L 538.257567 140.518355 
L 536.529367 140.766371 
L 534.306809 140.766371 
L 530.438216 140.272389 
L 527.476175 140.108411 
L 525.335782 139.860395 
L 517.352102 139.860395 
L 516.034726 140.272389 
L 514.71872 141.50632 
L 512.906986 143.976232 
L 511.919639 146.608071 
L 510.767962 151.051863 
L 510.437933 154.591728 
L 510.685797 157.801588 
L 510.746051 162.163391 
" clip-path="url(#p3a778c2eab)" style="fill: none; stroke: #f29888; stroke-width: 0.2"/>
    <path d="M 532.443038 157.986063 
L 533.155132 144.962147 
L 533.565957 142.412296 
L 534.306809 140.766371 
" clip-path="url(#p3a778c2eab)" style="fill: none; stroke: #f29888; stroke-width: 0.2"/>
    <path d="M 712.557877 126.979959 
L 724.9004 153.976812 
" clip-path="url(#p3a778c2eab)" style="fill: none; stroke: #f29888; stroke-width: 0.2"/>
    <path d="M 405.060265 152.122004 
L 410.887055 152.82487 
" clip-path="url(#p3a778c2eab)" style="fill: none; stroke: #f29888; stroke-width: 0.2"/>
    <path d="M 459.569702 292.484544 
L 458.937033 290.082273 
L 458.250957 287.337699 
L 457.922298 284.621821 
L 457.736058 282.188804 
L 457.907234 279.614357 
L 457.221158 275.154168 
L 455.247833 265.973475 
L 453.274509 260.82458 
L 451.301184 257.137135 
L 448.55551 254.132246 
L 443.235339 248.04253 
L 440.491034 244.781427 
L 439.203786 243.065812 
L 438.173987 240.23515 
L 437.659087 236.201302 
L 437.616636 231.595583 
L 436.715562 228.652186 
L 434.742237 221.617549 
L 434.141064 218.784837 
L 433.368715 217.241398 
L 428.392267 209.862409 
L 426.462763 206.543913 
L 415.903216 180.625213 
L 410.978806 162.407308 
L 410.887055 152.82487 
L 410.860438 150.018785 
" clip-path="url(#p3a778c2eab)" style="fill: none; stroke: #f29888; stroke-width: 0.2"/>
    <path d="M 796.380248 59.672241 
L 789.523019 60.429673 
L 781.007359 59.738232 
" clip-path="url(#p3a778c2eab)" style="fill: none; stroke: #f29888; stroke-width: 0.2"/>
    <path d="M 760.353167 57.796348 
L 760.103911 57.728143 
L 758.70437 56.65614 
L 758.003231 53.165468 
L 757.30346 47.661971 
L 756.405125 41.812073 
L 755.957327 39.893535 
L 755.101444 38.860477 
L 751.986028 38.477179 
L 741.099191 39.979624 
L 737.164867 40.278883 
L 737.009991 40.269632 
" clip-path="url(#p3a778c2eab)" style="fill: none; stroke: #f29888; stroke-width: 0.2"/>
    <path d="M 719.092718 157.004248 
L 724.9004 153.976812 
L 734.400021 148.672139 
L 756.722829 136.53985 
L 772.635413 127.496489 
L 787.804406 118.854872 
L 797.935326 112.904537 
L 799.708716 110.729785 
L 801.139753 103.346696 
L 801.139753 98.71228 
L 802.743337 80.455431 
L 802.514645 70.670071 
L 801.369815 67.923447 
L 799.994924 67.693878 
L 795.130767 68.437926 
L 786.945783 70.612678 
L 779.675568 73.416694 
L 774.753896 75.534055 
L 764.965329 77.651415 
" clip-path="url(#p3a778c2eab)" style="fill: none; stroke: #f29888; stroke-width: 0.2"/>
   </g>
   <g id="LineCollection_2">
    <path d="M 184.882163 572.156414 
L 191.42486 573.771624 
L 194.260915 574.472628 
L 227.759506 583.50984 
L 251.413384 589.6467 
" clip-path="url(#p3a778c2eab)" style="fill: none; stroke-dasharray: 3.7,1.6; stroke-dashoffset: 0; stroke: #f29888"/>
    <path d="M 218.013391 583.638972 
L 200.568433 579.109093 
L 186.641958 575.387414 
" clip-path="url(#p3a778c2eab)" style="fill: none; stroke-dasharray: 3.7,1.6; stroke-dashoffset: 0; stroke: #f29888"/>
    <path d="M 187.954537 577.797323 
L 188.479252 577.940753 
" clip-path="url(#p3a778c2eab)" style="fill: none; stroke-dasharray: 3.7,1.6; stroke-dashoffset: 0; stroke: #f29888"/>
    <path d="M 187.997577 577.876345 
L 188.479252 577.940753 
" clip-path="url(#p3a778c2eab)" style="fill: none; stroke-dasharray: 3.7,1.6; stroke-dashoffset: 0; stroke: #f29888"/>
    <path d="M 184.447593 571.358541 
L 191.42486 573.771624 
" clip-path="url(#p3a778c2eab)" style="fill: none; stroke-dasharray: 3.7,1.6; stroke-dashoffset: 0; stroke: #f29888"/>
    <path d="M 210.392605 583.343813 
L 216.367356 587.433003 
L 221.157564 591.32542 
L 223.9676 594.088441 
L 226.777637 597.048236 
L 226.905375 597.214728 
" clip-path="url(#p3a778c2eab)" style="fill: none; stroke-dasharray: 3.7,1.6; stroke-dashoffset: 0; stroke: #f29888"/>
    <path d="M 188.479252 577.940753 
L 204.645177 581.982799 
L 210.392605 583.343813 
L 216.646716 584.5347 
L 229.342548 585.676393 
" clip-path="url(#p3a778c2eab)" style="fill: none; stroke-dasharray: 3.7,1.6; stroke-dashoffset: 0; stroke: #f29888"/>
    <path d="M 233.367254 586.399944 
L 215.345773 581.995097 
L 198.52253 577.438571 
L 186.010556 574.228156 
" clip-path="url(#p3a778c2eab)" style="fill: none; stroke-dasharray: 3.7,1.6; stroke-dashoffset: 0; stroke: #f29888"/>
    <path d="M 187.226654 576.460922 
L 204.939601 581.287944 
L 218.013391 583.638972 
L 229.342548 585.676393 
L 233.367254 586.399944 
L 251.413384 589.6467 
L 340.847036 612.927411 
L 395.310596 627.316867 
" clip-path="url(#p3a778c2eab)" style="fill: none; stroke-dasharray: 3.7,1.6; stroke-dashoffset: 0; stroke: #f29888"/>
    <path d="M 801.931258 98.790569 
L 801.139753 98.71228 
L 792.668562 99.626455 
L 779.38936 105.121753 
L 767.197472 111.646009 
L 749.912736 120.91689 
" clip-path="url(#p3a778c2eab)" style="fill: none; stroke-dasharray: 3.7,1.6; stroke-dashoffset: 0; stroke: #f29888"/>
   </g>
  </g>
 </g>
 <defs>
  <clipPath id="p3a778c2eab">
   <rect x="7.2" y="7.2" width="837" height="665.505938"/>
  </clipPath>
 </defs>
</svg>
