<?xml version="1.0" encoding="utf-8" standalone="no"?>
<!DOCTYPE svg PUBLIC "-//W3C//DTD SVG 1.1//EN"
  "http://www.w3.org/Graphics/SVG/1.1/DTD/svg11.dtd">
<svg xmlns:xlink="http://www.w3.org/1999/xlink" width="851.4pt" height="683.679913pt" viewBox="0 0 851.4 683.679913" xmlns="http://www.w3.org/2000/svg" version="1.1">
 <metadata>
  <rdf:RDF xmlns:dc="http://purl.org/dc/elements/1.1/" xmlns:cc="http://creativecommons.org/ns#" xmlns:rdf="http://www.w3.org/1999/02/22-rdf-syntax-ns#">
   <cc:Work>
    <dc:type rdf:resource="http://purl.org/dc/dcmitype/StillImage"/>
    <dc:date>2025-03-16T14:37:53.903964</dc:date>
    <dc:format>image/svg+xml</dc:format>
    <dc:creator>
     <cc:Agent>
      <dc:title>Matplotlib v3.10.1, https://matplotlib.org/</dc:title>
     </cc:Agent>
    </dc:creator>
   </cc:Work>
  </rdf:RDF>
 </metadata>
 <defs>
  <style type="text/css">*{stroke-linejoin: round; stroke-linecap: butt}</style>
 </defs>
 <g id="figure_1">
  <g id="patch_1">
   <path d="M 0 683.679913 
L 851.4 683.679913 
L 851.4 0 
L 0 0 
z
" style="fill: #ffffff"/>
  </g>
  <g id="axes_1">
   <g id="PatchCollection_1">
    <path d="M 753.784226 643.097274 
L 744.109015 520.598248 
L 790.249497 423.178725 
L 792.097805 311.67191 
L 753.081709 110.465293 
L 806.154545 86.500594 
L 757.165589 66.033744 
L 706.677183 62.442395 
L 631.086997 68.241776 
L 613.077598 64.710363 
L 602.003754 62.538293 
L 570.180856 58.184562 
L 507.535226 37.621814 
L 493.584103 76.764636 
L 470.621879 103.970659 
L 441.353006 122.915142 
L 383.873036 141.646254 
L 323.695016 156.25139 
L 300.502355 154.251935 
L 260.407679 160.796915 
L 247.103064 175.30136 
L 244.709065 191.258647 
L 255.080392 204.113661 
L 269.596409 210.155181 
L 284.622911 208.898929 
L 291.865717 213.971888 
L 290.38387 229.478458 
L 270.516562 269.947058 
L 204.158313 383.091317 
L 126.452575 494.329619 
L 105.925958 501.936661 
L 85.328928 519.126226 
L 70.200009 534.990013 
L 53.213181 556.315143 
L 45.245455 588.658856 
L 53.354005 599.672645 
L 81.453083 614.026051 
L 121.835807 628.012651 
L 189.058199 641.745124 
L 216.773214 646.058099 
L 297.314624 642.553058 
L 392.927343 630.951899 
L 736.797398 642.524288 
L 753.784226 643.097274 
" clip-path="url(#peee5ff396e)" style="fill: #f29888"/>
   </g>
   <g id="PatchCollection_2">
    <path d="M 622.000684 521.713052 
L 623.962611 526.618192 
L 621.653426 527.409343 
L 619.533073 522.600101 
L 622.000684 521.713052 
" clip-path="url(#peee5ff396e)" style="fill: #f29888"/>
    <path d="M 634.810817 516.594541 
L 636.708733 520.897926 
L 634.273127 521.784975 
L 632.437622 517.448026 
L 634.810817 516.594541 
" clip-path="url(#peee5ff396e)" style="fill: #f29888"/>
    <path d="M 618.61292 519.991698 
L 615.847659 514.048472 
L 618.052827 513.113475 
L 620.669262 518.944022 
L 618.61292 519.991698 
" clip-path="url(#peee5ff396e)" style="fill: #f29888"/>
    <path d="M 631.931937 509.22005 
L 633.703432 513.367602 
L 631.171811 514.221087 
L 629.432321 510.265329 
L 631.931937 509.22005 
" clip-path="url(#peee5ff396e)" style="fill: #f29888"/>
    <path d="M 615.662029 507.656927 
L 617.417521 511.842837 
L 615.212354 512.852155 
L 613.381649 508.330604 
L 615.662029 507.656927 
" clip-path="url(#peee5ff396e)" style="fill: #f29888"/>
    <path d="M 628.419353 502.006187 
L 630.349274 506.089008 
L 628.166511 506.88016 
L 626.236589 503.017902 
L 628.419353 502.006187 
" clip-path="url(#peee5ff396e)" style="fill: #f29888"/>
    <path d="M 612.522306 500.481422 
L 614.316204 504.780012 
L 612.18625 505.376972 
L 610.318739 501.342099 
L 612.522306 500.481422 
" clip-path="url(#peee5ff396e)" style="fill: #f29888"/>
    <path d="M 625.476463 494.789926 
L 627.56481 499.412169 
L 625.508468 500.20332 
L 623.261694 495.708141 
L 625.476463 494.789926 
" clip-path="url(#peee5ff396e)" style="fill: #f29888"/>
    <path d="M 612.690334 452.422562 
L 613.895334 455.498464 
L 602.725475 459.8474 
L 601.654896 456.769101 
L 612.690334 452.422562 
" clip-path="url(#peee5ff396e)" style="fill: #f29888"/>
    <path d="M 621.754243 448.507561 
L 622.957643 451.451604 
L 615.466796 454.26139 
L 614.463429 451.58586 
L 621.754243 448.507561 
" clip-path="url(#peee5ff396e)" style="fill: #f29888"/>
    <path d="M 634.863626 443.089372 
L 636.068626 446.16767 
L 624.898766 450.514209 
L 623.828188 447.438308 
L 634.863626 443.089372 
" clip-path="url(#peee5ff396e)" style="fill: #f29888"/>
    <path d="M 609.54741 445.932722 
L 608.476832 448.541125 
L 601.186018 445.66421 
L 602.189385 443.190064 
L 609.54741 445.932722 
" clip-path="url(#peee5ff396e)" style="fill: #f29888"/>
    <path d="M 631.720702 435.463151 
L 632.924103 438.541449 
L 621.754243 442.887988 
L 620.683665 439.812087 
L 631.720702 435.463151 
" clip-path="url(#peee5ff396e)" style="fill: #f29888"/>
    <path d="M 606.770948 438.440757 
L 605.70197 441.04916 
L 598.411156 438.172245 
L 599.414523 435.698099 
L 606.770948 438.440757 
" clip-path="url(#peee5ff396e)" style="fill: #f29888"/>
    <path d="M 628.04169 428.105441 
L 629.24509 431.181343 
L 618.07523 435.530279 
L 617.004652 432.454377 
L 628.04169 428.105441 
" clip-path="url(#peee5ff396e)" style="fill: #f29888"/>
    <path d="M 603.026325 431.01592 
L 601.955746 433.624323 
L 594.664933 430.747408 
L 595.6683 428.273261 
L 603.026325 431.01592 
" clip-path="url(#peee5ff396e)" style="fill: #f29888"/>
    <path d="M 625.298833 420.277836 
L 626.503834 423.356135 
L 615.332374 427.702673 
L 614.263396 424.626772 
L 625.298833 420.277836 
" clip-path="url(#peee5ff396e)" style="fill: #f29888"/>
    <path d="M 628.176112 400.343215 
L 630.917369 407.434809 
L 626.838289 408.973959 
L 623.96101 401.882364 
L 628.176112 400.343215 
" clip-path="url(#peee5ff396e)" style="fill: #f29888"/>
    <path d="M 611.320506 354.336554 
L 607.703904 354.314978 
L 607.979149 347.551831 
L 611.52534 347.575805 
L 611.320506 354.336554 
" clip-path="url(#peee5ff396e)" style="fill: #f29888"/>
    <path d="M 603.828058 347.297703 
L 603.41839 354.511567 
L 599.748979 354.456426 
L 599.81459 350.208182 
L 595.333844 349.774247 
L 595.401055 346.964461 
L 603.828058 347.297703 
" clip-path="url(#peee5ff396e)" style="fill: #f29888"/>
    <path d="M 589.028794 452.062948 
L 591.281969 451.295771 
L 593.008657 455.227554 
L 590.947514 456.140975 
L 589.028794 452.062948 
" clip-path="url(#peee5ff396e)" style="fill: #f29888"/>
    <path d="M 587.782187 442.998269 
L 589.556882 447.459885 
L 587.590155 448.370908 
L 585.671435 443.765447 
L 587.782187 442.998269 
" clip-path="url(#peee5ff396e)" style="fill: #f29888"/>
    <path d="M 586.823627 440.775853 
L 584.589655 441.670094 
L 582.478904 436.836877 
L 584.712876 436.024149 
L 586.823627 440.775853 
" clip-path="url(#peee5ff396e)" style="fill: #f29888"/>
    <path d="M 583.466268 433.214362 
L 581.355517 434.029488 
L 579.150349 429.136336 
L 581.355517 428.177364 
L 583.466268 433.214362 
" clip-path="url(#peee5ff396e)" style="fill: #f29888"/>
    <path d="M 580.252933 426.163524 
L 578.142182 426.834804 
L 576.367486 422.471483 
L 578.382221 421.797806 
L 580.252933 426.163524 
" clip-path="url(#peee5ff396e)" style="fill: #f29888"/>
    <path d="M 599.748979 423.188315 
L 598.678401 425.796717 
L 591.387587 422.919803 
L 592.390954 420.445656 
L 599.748979 423.188315 
" clip-path="url(#peee5ff396e)" style="fill: #f29888"/>
    <path d="M 592.925443 346.628821 
L 592.72541 350.10749 
L 587.039663 349.774247 
L 587.039663 346.362706 
L 592.925443 346.628821 
" clip-path="url(#peee5ff396e)" style="fill: #f29888"/>
    <path d="M 584.163984 346.695949 
L 583.829528 349.639991 
L 575.66817 349.172493 
L 575.735381 346.362706 
L 584.163984 346.695949 
" clip-path="url(#peee5ff396e)" style="fill: #f29888"/>
    <path d="M 559.883141 345.226325 
L 559.548686 348.16797 
L 551.388927 347.700471 
L 551.456138 344.890685 
L 559.883141 345.226325 
" clip-path="url(#peee5ff396e)" style="fill: #f29888"/>
    <path d="M 594.330477 338.803613 
L 593.996021 341.747655 
L 585.836263 341.277759 
L 585.903474 338.47037 
L 594.330477 338.803613 
" clip-path="url(#peee5ff396e)" style="fill: #f29888"/>
    <path d="M 612.18945 342.296667 
L 608.707271 342.474076 
L 608.848094 338.455986 
L 612.394284 338.47996 
L 612.18945 342.296667 
" clip-path="url(#peee5ff396e)" style="fill: #f29888"/>
    <path d="M 604.330542 339.105689 
L 603.996086 342.047334 
L 595.834727 341.579835 
L 595.901939 338.770049 
L 604.330542 339.105689 
" clip-path="url(#peee5ff396e)" style="fill: #f29888"/>
    <path d="M 612.78635 336.902452 
L 609.169748 336.880875 
L 609.444993 330.120125 
L 612.991184 330.141702 
L 612.78635 336.902452 
" clip-path="url(#peee5ff396e)" style="fill: #f29888"/>
    <path d="M 604.364147 337.077464 
L 600.747545 336.8569 
L 600.889969 328.823116 
L 604.434559 328.847091 
L 604.364147 337.077464 
" clip-path="url(#peee5ff396e)" style="fill: #f29888"/>
    <path d="M 575.708176 340.719158 
L 575.823395 337.103836 
L 582.57492 337.552155 
L 582.461301 341.095555 
L 575.708176 340.719158 
" clip-path="url(#peee5ff396e)" style="fill: #f29888"/>
    <path d="M 554.024566 185.507215 
L 554.154188 187.286107 
L 552.331484 187.420363 
L 552.201862 185.641471 
L 554.024566 185.507215 
" clip-path="url(#peee5ff396e)" style="fill: #f29888"/>
    <path d="M 560.243201 184.366039 
L 559.727916 185.965124 
L 558.060438 185.986701 
L 558.036434 184.207809 
L 560.243201 184.366039 
" clip-path="url(#peee5ff396e)" style="fill: #f29888"/>
    <path d="M 547.372258 183.790656 
L 547.484277 185.444882 
L 545.952822 185.547971 
L 545.840803 183.893745 
L 547.372258 183.790656 
" clip-path="url(#peee5ff396e)" style="fill: #f29888"/>
    <path d="M 547.636302 176.862086 
L 547.713115 178.638581 
L 545.872809 178.717696 
L 545.795996 176.941202 
L 547.636302 176.862086 
" clip-path="url(#peee5ff396e)" style="fill: #f29888"/>
    <path d="M 548.173992 171.973729 
L 548.386827 173.838929 
L 545.954422 174.11703 
L 545.741587 172.251831 
L 548.173992 171.973729 
" clip-path="url(#peee5ff396e)" style="fill: #f29888"/>
    <path d="M 547.428268 167.73028 
L 547.516282 169.264634 
L 545.802397 169.362929 
L 545.714382 167.828574 
L 547.428268 167.73028 
" clip-path="url(#peee5ff396e)" style="fill: #f29888"/>
    <path d="M 547.692312 163.227908 
L 547.897146 165.011595 
L 545.909615 165.241749 
L 545.704781 163.455664 
L 547.692312 163.227908 
" clip-path="url(#peee5ff396e)" style="fill: #f29888"/>
    <path d="M 547.186627 158.850203 
L 547.298646 160.442096 
L 545.627968 160.55957 
L 545.514349 158.967677 
L 547.186627 158.850203 
" clip-path="url(#peee5ff396e)" style="fill: #f29888"/>
    <path d="M 547.125817 154.705049 
L 547.228234 155.963699 
L 545.426334 156.109942 
L 545.323917 154.851292 
L 547.125817 154.705049 
" clip-path="url(#peee5ff396e)" style="fill: #f29888"/>
    <path d="M 506.983134 357.414853 
L 506.837509 359.687616 
L 504.363497 359.541373 
L 504.537926 357.386084 
L 506.983134 357.414853 
" clip-path="url(#peee5ff396e)" style="fill: #f29888"/>
    <path d="M 501.089352 356.623702 
L 501.111756 359.323207 
L 498.231276 359.347181 
L 498.300088 356.57815 
L 501.089352 356.623702 
" clip-path="url(#peee5ff396e)" style="fill: #f29888"/>
    <path d="M 529.959759 319.487528 
L 529.697315 324.905717 
L 527.38173 324.680359 
L 527.605767 319.374849 
L 529.959759 319.487528 
" clip-path="url(#peee5ff396e)" style="fill: #f29888"/>
    <path d="M 521.324721 302.115759 
L 521.190299 304.925545 
L 513.966696 304.458047 
L 514.16833 301.64826 
L 521.324721 302.115759 
" clip-path="url(#peee5ff396e)" style="fill: #f29888"/>
    <path d="M 508.148128 301.48044 
L 508.013705 304.290227 
L 500.790102 303.822728 
L 500.991736 301.012941 
L 508.148128 301.48044 
" clip-path="url(#peee5ff396e)" style="fill: #f29888"/>
    <path d="M 515.917421 269.481957 
L 515.917421 273.33942 
L 510.801369 273.097279 
L 510.962996 269.237419 
L 515.917421 269.481957 
" clip-path="url(#peee5ff396e)" style="fill: #f29888"/>
    <path d="M 533.744389 261.035815 
L 533.702782 264.934034 
L 528.546724 264.730252 
L 528.628338 260.872789 
L 533.744389 261.035815 
" clip-path="url(#peee5ff396e)" style="fill: #f29888"/>
    <path d="M 533.541155 252.752698 
L 533.541155 256.284111 
L 528.708351 256.123483 
L 528.668344 252.752698 
L 533.541155 252.752698 
" clip-path="url(#peee5ff396e)" style="fill: #f29888"/>
    <path d="M 547.167424 150.420843 
L 547.193029 151.890467 
L 545.261507 151.924031 
L 545.234302 150.456805 
L 547.167424 150.420843 
" clip-path="url(#peee5ff396e)" style="fill: #f29888"/>
    <path d="M 546.613732 112.380839 
L 546.692145 114.087809 
L 544.731819 114.178911 
L 544.653406 112.471941 
L 546.613732 112.380839 
" clip-path="url(#peee5ff396e)" style="fill: #f29888"/>
    <path d="M 547.417066 145.287948 
L 547.468274 146.755174 
L 545.474342 146.8247 
L 545.423134 145.357473 
L 547.417066 145.287948 
" clip-path="url(#peee5ff396e)" style="fill: #f29888"/>
    <path d="M 547.418666 140.430757 
L 547.551488 141.847638 
L 545.549555 142.037034 
L 545.416733 140.620154 
L 547.418666 140.430757 
" clip-path="url(#peee5ff396e)" style="fill: #f29888"/>
    <path d="M 547.19943 131.876731 
L 547.252238 133.471021 
L 545.552755 133.526162 
L 545.499947 131.931872 
L 547.19943 131.876731 
" clip-path="url(#peee5ff396e)" style="fill: #f29888"/>
    <path d="M 547.284244 125.034469 
L 547.412265 126.614374 
L 545.360723 126.779797 
L 545.232702 125.199891 
L 547.284244 125.034469 
" clip-path="url(#peee5ff396e)" style="fill: #f29888"/>
    <path d="M 547.167424 120.601623 
L 547.351455 122.265438 
L 545.259907 122.497989 
L 545.075876 120.834173 
L 547.167424 120.601623 
" clip-path="url(#peee5ff396e)" style="fill: #f29888"/>
    <path d="M 546.592929 107.693866 
L 546.748154 109.297746 
L 544.999063 109.467963 
L 544.843837 107.861686 
L 546.592929 107.693866 
" clip-path="url(#peee5ff396e)" style="fill: #f29888"/>
    <path d="M 546.389695 99.542607 
L 546.605731 100.89236 
L 544.939853 101.158475 
L 544.725418 99.808722 
L 546.389695 99.542607 
" clip-path="url(#peee5ff396e)" style="fill: #f29888"/>
    <path d="M 546.738553 92.386282 
L 546.850571 93.853509 
L 544.931852 94.002149 
L 544.819833 92.534923 
L 546.738553 92.386282 
" clip-path="url(#peee5ff396e)" style="fill: #f29888"/>
    <path d="M 546.860173 88.16441 
L 546.996196 89.411073 
L 544.840637 89.643624 
L 544.704614 88.396961 
L 546.860173 88.16441 
" clip-path="url(#peee5ff396e)" style="fill: #f29888"/>
    <path d="M 546.4233 83.304822 
L 546.634536 85.023778 
L 545.075876 85.213175 
L 544.864641 83.496616 
L 546.4233 83.304822 
" clip-path="url(#peee5ff396e)" style="fill: #f29888"/>
    <path d="M 546.773759 78.869578 
L 546.896979 80.670047 
L 545.080677 80.794714 
L 544.957456 78.994244 
L 546.773759 78.869578 
" clip-path="url(#peee5ff396e)" style="fill: #f29888"/>
    <path d="M 546.645737 74.551809 
L 546.72255 76.194048 
L 545.087078 76.270765 
L 545.008665 74.628526 
L 546.645737 74.551809 
" clip-path="url(#peee5ff396e)" style="fill: #f29888"/>
    <path d="M 539.718184 71.708458 
L 539.746989 73.084582 
L 537.95309 73.120544 
L 537.924285 71.74442 
L 539.718184 71.708458 
" clip-path="url(#peee5ff396e)" style="fill: #f29888"/>
    <path d="M 546.71935 69.977514 
L 546.770558 71.88347 
L 545.151089 71.926624 
L 545.09988 70.020668 
L 546.71935 69.977514 
" clip-path="url(#peee5ff396e)" style="fill: #f29888"/>
    <path d="M 539.218901 67.055049 
L 539.27331 68.740441 
L 536.834504 68.819556 
L 536.780095 67.134164 
L 539.218901 67.055049 
" clip-path="url(#peee5ff396e)" style="fill: #f29888"/>
    <path d="M 546.943387 64.223685 
L 547.097013 65.376848 
L 544.896646 65.669335 
L 544.743021 64.516171 
L 546.943387 64.223685 
" clip-path="url(#peee5ff396e)" style="fill: #f29888"/>
    <path d="M 539.39653 62.857151 
L 539.406132 64.80626 
L 537.344989 64.818247 
L 537.333787 62.86674 
L 539.39653 62.857151 
" clip-path="url(#peee5ff396e)" style="fill: #f29888"/>
    <path d="M 539.404532 57.858511 
L 539.484545 59.654186 
L 537.801065 59.730903 
L 537.721051 57.935229 
L 539.404532 57.858511 
" clip-path="url(#peee5ff396e)" style="fill: #f29888"/>
    <path d="M 547.237836 55.535403 
L 547.257039 57.24477 
L 544.930252 57.268744 
L 544.912649 55.559377 
L 547.237836 55.535403 
" clip-path="url(#peee5ff396e)" style="fill: #f29888"/>
    <path d="M 539.431736 53.698972 
L 539.503748 55.916594 
L 537.685846 55.97653 
L 537.613834 53.758908 
L 539.431736 53.698972 
" clip-path="url(#peee5ff396e)" style="fill: #f29888"/>
   </g>
   <g id="LineCollection_1">
    <path d="M 540.148656 246.150179 
L 535.923952 302.250015 
L 533.022669 340.788684 
L 532.048107 353.7348 
L 534.136455 357.223059 
L 538.052307 363.278964 
L 551.987427 384.82226 
L 553.99096 389.389362 
L 556.536984 395.188743 
L 564.007028 412.54373 
L 564.851969 414.58634 
L 569.12628 424.437375 
L 581.398724 452.954792 
L 585.501807 462.182495 
L 588.931178 470.45842 
L 600.281868 497.846648 
L 618.059228 540.741445 
L 628.516969 568.448531 
L 639.118734 596.536808 
L 654.433392 639.752461 
" clip-path="url(#peee5ff396e)" style="fill: none; stroke: #f29888; stroke-width: 0.2"/>
    <path d="M 544.091712 466.210176 
L 548.10198 467.396903 
L 554.192594 469.640897 
L 557.517948 472.182171 
L 561.889876 475.020727 
L 566.074572 476.665363 
L 572.277205 476.778042 
L 579.900874 474.01141 
L 588.931178 470.45842 
" clip-path="url(#peee5ff396e)" style="fill: none; stroke: #f29888; stroke-width: 0.2"/>
    <path d="M 628.516969 568.448531 
L 618.059228 540.741445 
L 600.281868 497.846648 
L 588.931178 470.45842 
L 581.398724 452.954792 
L 569.12628 424.437375 
L 564.007028 412.54373 
L 556.536984 395.188743 
L 553.99096 389.389362 
L 551.987427 384.82226 
L 538.052307 363.278964 
L 532.048107 353.7348 
" clip-path="url(#peee5ff396e)" style="fill: none; stroke: #f29888; stroke-width: 0.2"/>
    <path d="M 581.398724 452.954792 
L 562.962054 459.720336 
L 560.907312 460.168655 
L 557.618764 460.317296 
L 553.541285 459.482991 
L 547.940353 458.33702 
L 538.076311 456.018706 
L 528.137056 453.477431 
L 521.430339 452.074935 
" clip-path="url(#peee5ff396e)" style="fill: none; stroke: #f29888; stroke-width: 0.2"/>
    <path d="M 569.12628 424.437375 
L 566.36262 425.338808 
L 564.531915 426.197088 
L 563.709378 427.431764 
L 562.363554 428.925362 
L 558.926182 430.682677 
L 555.114347 432.550274 
L 551.304113 434.755909 
L 540.019034 442.976693 
L 538.748422 445.295006 
L 536.768893 446.975604 
L 533.480345 448.394882 
L 531.649641 450.190556 
L 529.631705 452.393793 
L 528.137056 453.477431 
" clip-path="url(#peee5ff396e)" style="fill: none; stroke: #f29888; stroke-width: 0.2"/>
    <path d="M 564.007028 412.54373 
L 595.469867 409.124997 
L 604.663397 408.118077 
L 621.55581 401.309379 
L 636.99198 393.165313 
L 658.531566 393.165313 
L 731.842973 382.264204 
L 790.846968 387.133825 
" clip-path="url(#peee5ff396e)" style="fill: none; stroke: #f29888; stroke-width: 0.2"/>
    <path d="M 553.99096 389.389362 
L 557.71158 387.735136 
L 558.782158 386.934395 
L 558.180458 384.258864 
L 561.725048 381.983704 
L 567.810861 379.375302 
L 572.091574 377.701896 
L 597.041328 367.335414 
" clip-path="url(#peee5ff396e)" style="fill: none; stroke: #f29888; stroke-width: 0.2"/>
    <path d="M 606.378883 345.156799 
L 606.290868 358.639939 
L 606.329275 362.943324 
L 607.212622 366.208622 
L 611.362113 377.119321 
L 619.044992 395.36855 
L 621.55581 401.309379 
" clip-path="url(#peee5ff396e)" style="fill: none; stroke: #f29888; stroke-width: 0.2"/>
    <path d="M 533.022669 340.788684 
L 606.378883 345.156799 
L 609.541009 345.346196 
L 612.515905 344.902672 
L 613.591284 343.130972 
L 614.666663 330.918469 
" clip-path="url(#peee5ff396e)" style="fill: none; stroke: #f29888; stroke-width: 0.2"/>
    <path d="M 606.378883 345.156799 
L 607.148611 327.888119 
L 614.447426 327.427813 
" clip-path="url(#peee5ff396e)" style="fill: none; stroke: #f29888; stroke-width: 0.2"/>
    <path d="M 382.970486 615.320663 
L 341.861241 585.417532 
L 348.111882 573.94104 
L 346.625234 567.37688 
L 323.987865 540.393818 
L 291.82571 500.354358 
L 309.887917 482.416795 
L 310.396802 476.111557 
" clip-path="url(#peee5ff396e)" style="fill: none; stroke: #f29888; stroke-width: 0.2"/>
    <path d="M 252.758405 524.755389 
L 261.923131 515.199238 
L 267.80091 509.07141 
L 279.807709 492.644227 
L 290.855949 477.581181 
L 302.617907 467.545544 
L 305.165531 465.653972 
L 308.842943 469.307654 
L 309.958329 472.050313 
L 310.396802 476.111557 
" clip-path="url(#peee5ff396e)" style="fill: none; stroke: #f29888; stroke-width: 0.2"/>
    <path d="M 183.703708 466.042356 
L 261.923131 515.199238 
" clip-path="url(#peee5ff396e)" style="fill: none; stroke: #f29888; stroke-width: 0.2"/>
    <path d="M 211.639559 449.104521 
L 224.332872 457.318112 
L 228.778413 460.195027 
L 242.641521 469.681653 
L 255.059588 476.972234 
L 256.474224 477.804142 
L 279.807709 492.644227 
" clip-path="url(#peee5ff396e)" style="fill: none; stroke: #f29888; stroke-width: 0.2"/>
    <path d="M 142.940121 529.866708 
L 158.353887 503.720348 
L 162.628199 496.870894 
L 172.30821 480.64989 
L 183.703708 466.042356 
L 187.963617 459.204889 
L 188.845364 456.433461 
L 190.151181 448.44283 
L 194.035028 440.123752 
L 200.743345 433.394169 
L 218.160645 412.603666 
L 230.879563 397.552608 
" clip-path="url(#peee5ff396e)" style="fill: none; stroke: #f29888; stroke-width: 0.2"/>
    <path d="M 187.963617 459.204889 
L 211.639559 449.104521 
" clip-path="url(#peee5ff396e)" style="fill: none; stroke: #f29888; stroke-width: 0.2"/>
    <path d="M 255.059588 476.972234 
L 272.42408 460.010425 
L 273.213011 457.435586 
L 274.507627 453.206522 
L 282.187305 449.140482 
L 330.44174 428.635273 
L 343.920784 423.991453 
" clip-path="url(#peee5ff396e)" style="fill: none; stroke: #f29888; stroke-width: 0.2"/>
    <path d="M 305.165531 465.653972 
L 302.99397 464.038105 
L 293.02751 464.169964 
L 283.462718 463.167839 
L 277.977004 461.628689 
L 274.566836 458.886031 
L 273.213011 457.435586 
L 272.158435 453.400713 
L 269.550001 449.922044 
L 266.607111 445.50598 
L 263.59701 440.756673 
L 260.988576 436.007367 
L 259.684358 428.635273 
" clip-path="url(#peee5ff396e)" style="fill: none; stroke: #f29888; stroke-width: 0.2"/>
    <path d="M 352.527017 435.765227 
L 352.085343 431.246073 
L 353.628 428.052698 
L 366.567755 413.833547 
" clip-path="url(#peee5ff396e)" style="fill: none; stroke: #f29888; stroke-width: 0.2"/>
    <path d="M 376.655834 377.318308 
L 343.015033 392.045713 
L 319.793567 403.373565 
L 292.947497 414.701416 
L 259.684358 428.635273 
L 245.717233 434.952498 
L 240.948439 438.913051 
L 237.735104 442.104029 
L 224.332872 457.318112 
" clip-path="url(#peee5ff396e)" style="fill: none; stroke: #f29888; stroke-width: 0.2"/>
    <path d="M 515.43254 468.725079 
L 518.869913 469.113462 
L 519.743658 468.984001 
L 524.661277 468.255183 
L 528.471511 467.207506 
L 532.955458 467.207506 
L 540.691146 466.536226 
L 544.091712 466.210176 
L 548.500446 465.788228 
L 553.245236 464.517591 
L 557.767589 462.647597 
L 560.907312 460.168655 
" clip-path="url(#peee5ff396e)" style="fill: none; stroke: #f29888; stroke-width: 0.2"/>
    <path d="M 544.091712 466.210176 
L 541.587295 465.07859 
L 539.27171 463.843914 
L 537.701848 462.647597 
L 535.30945 461.302639 
L 534.445306 460.818358 
L 532.283346 459.286401 
L 530.092581 457.660945 
" clip-path="url(#peee5ff396e)" style="fill: none; stroke: #f29888; stroke-width: 0.2"/>
    <path d="M 528.137056 453.477431 
L 526.231138 454.599428 
L 525.184564 455.421746 
L 523.54109 457.737662 
L 521.934423 460.504295 
L 520.17733 463.30689 
L 520.028506 463.515466 
L 517.562495 466.970161 
L 515.43254 468.725079 
" clip-path="url(#peee5ff396e)" style="fill: none; stroke: #f29888; stroke-width: 0.2"/>
    <path d="M 534.445306 460.818358 
L 537.925886 461.11564 
L 540.990396 460.705679 
L 543.272376 460.211809 
" clip-path="url(#peee5ff396e)" style="fill: none; stroke: #f29888; stroke-width: 0.2"/>
    <path d="M 521.430339 452.074935 
L 520.83504 458.334622 
L 520.028506 463.515466 
L 519.743658 468.984001 
" clip-path="url(#peee5ff396e)" style="fill: none; stroke: #f29888; stroke-width: 0.2"/>
    <path d="M 553.541285 459.482991 
L 551.416132 459.943297 
L 548.16439 459.943297 
L 544.166925 460.242975 
L 543.272376 460.211809 
L 540.878377 460.130296 
L 533.517151 458.524019 
L 530.092581 457.660945 
L 528.772361 457.327702 
L 525.184564 455.421746 
L 523.317053 453.964109 
L 521.430339 452.074935 
" clip-path="url(#peee5ff396e)" style="fill: none; stroke: #f29888; stroke-width: 0.2"/>
    <path d="M 515.43254 468.725079 
L 510.628541 469.482666 
L 505.229242 469.151821 
L 499.500288 467.499993 
L 493.220842 468.161683 
L 482.203008 468.051401 
L 469.312862 467.499993 
L 460.719431 468.600413 
L 456.422715 468.820976 
L 443.311732 465.956048 
L 392.079202 450.530991 
L 354.730584 438.519872 
L 352.527017 435.765227 
" clip-path="url(#peee5ff396e)" style="fill: none; stroke: #f29888; stroke-width: 0.2"/>
    <path d="M 521.430339 452.074935 
L 373.655335 416.993358 
L 370.307577 415.804234 
L 366.567755 413.833547 
" clip-path="url(#peee5ff396e)" style="fill: none; stroke: #f29888; stroke-width: 0.2"/>
    <path d="M 521.430339 452.074935 
L 521.534356 444.180202 
L 522.056043 439.905586 
L 522.160061 434.276423 
L 523.409869 429.898718 
L 521.587165 421.299141 
L 519.03314 416.398796 
L 515.227706 410.196647 
L 507.191168 399.223615 
" clip-path="url(#peee5ff396e)" style="fill: none; stroke: #f29888; stroke-width: 0.2"/>
    <path d="M 305.165531 465.653972 
L 326.154626 442.655437 
L 343.920784 423.991453 
L 358.646436 407.564271 
L 369.973122 391.705279 
L 378.582555 380.490106 
L 385.786955 373.551947 
L 387.756882 371.655581 
L 389.814825 372.794359 
L 391.82316 375.038353 
L 395.394954 377.344679 
L 398.165015 376.881976 
L 405.695869 375.625723 
L 426.985814 372.964577 
L 446.043387 375.970953 
L 454.884859 377.085757 
L 461.322731 375.71203 
L 465.092959 364.882844 
L 473.068687 348.199137 
L 478.069519 337.250079 
" clip-path="url(#peee5ff396e)" style="fill: none; stroke: #f29888; stroke-width: 0.2"/>
    <path d="M 245.598813 374.03383 
L 253.528133 371.202467 
L 261.684692 369.843125 
L 278.449083 370.181162 
L 313.222873 369.955804 
L 338.37106 368.709141 
L 352.528617 370.862032 
L 376.655834 377.318308 
" clip-path="url(#peee5ff396e)" style="fill: none; stroke: #f29888; stroke-width: 0.2"/>
    <path d="M 283.320294 332.685374 
L 303.482051 329.854011 
L 323.645408 327.363082 
L 364.537016 322.266148 
L 373.700142 321.422253 
L 391.608724 319.772822 
L 394.10674 317.763777 
L 396.423926 314.071736 
L 407.326541 308.150087 
L 420.632756 304.544354 
L 434.883129 300.938621 
L 441.585045 301.226312 
" clip-path="url(#peee5ff396e)" style="fill: none; stroke: #f29888; stroke-width: 0.2"/>
    <path d="M 309.939126 309.351199 
L 330.44174 309.23852 
L 369.973122 308.104536 
" clip-path="url(#peee5ff396e)" style="fill: none; stroke: #f29888; stroke-width: 0.2"/>
    <path d="M 307.19947 274.447032 
L 331.177862 275.118312 
L 350.840336 275.310106 
L 374.148217 275.981386 
L 391.795955 276.460872 
L 415.582315 276.940358 
L 427.283464 276.748563 
" clip-path="url(#peee5ff396e)" style="fill: none; stroke: #f29888; stroke-width: 0.2"/>
    <path d="M 307.19947 274.447032 
L 305.826441 274.423057 
L 305.389568 260.249458 
L 305.243944 250.000449 
L 305.317556 243.021534 
L 303.862914 239.389429 
L 303.427642 220.998752 
L 303.571666 214.892501 
L 302.627509 207.479651 
L 302.705922 200.217839 
L 302.246645 194.933905 
" clip-path="url(#peee5ff396e)" style="fill: none; stroke: #f29888; stroke-width: 0.2"/>
    <path d="M 366.567755 413.833547 
L 370.413195 410.052802 
L 391.016625 386.272705 
L 395.846229 379.929108 
L 398.165015 376.881976 
" clip-path="url(#peee5ff396e)" style="fill: none; stroke: #f29888; stroke-width: 0.2"/>
    <path d="M 556.536984 395.188743 
L 547.43947 395.066474 
L 541.761724 394.965782 
L 535.781529 395.574729 
L 529.596499 395.776113 
L 522.905785 395.675421 
L 517.228039 394.356835 
L 512.158395 394.661308 
L 510.340493 396.142919 
L 509.42194 396.890917 
L 507.191168 399.223615 
L 503.033676 399.427397 
L 495.634044 399.122923 
L 471.505227 396.080586 
L 452.126 393.889336 
L 438.154074 393.397863 
L 425.105501 390.688769 
L 419.87423 389.828092 
L 414.580549 390.134963 
L 411.503236 389.828092 
L 407.256129 388.166673 
L 402.271299 384.472236 
L 397.408089 381.393937 
L 395.846229 379.929108 
" clip-path="url(#peee5ff396e)" style="fill: none; stroke: #f29888; stroke-width: 0.2"/>
    <path d="M 538.052307 363.278964 
L 534.618135 366.400417 
L 530.92632 369.490702 
L 527.836206 371.809016 
L 523.457877 374.041022 
L 520.625405 377.045001 
L 516.591133 379.706147 
L 515.818205 383.398187 
L 514.014704 386.231948 
L 512.12639 388.550262 
L 511.011004 391.640548 
L 510.340493 396.142919 
" clip-path="url(#peee5ff396e)" style="fill: none; stroke: #f29888; stroke-width: 0.2"/>
    <path d="M 376.655834 377.318308 
L 385.786955 373.551947 
" clip-path="url(#peee5ff396e)" style="fill: none; stroke: #f29888; stroke-width: 0.2"/>
    <path d="M 369.973122 308.104536 
L 372.059869 310.847195 
L 373.700142 321.422253 
" clip-path="url(#peee5ff396e)" style="fill: none; stroke: #f29888; stroke-width: 0.2"/>
    <path d="M 419.63099 248.046545 
L 426.067261 249.801463 
L 429.352608 256.029983 
L 428.558876 263.505166 
L 427.283464 276.748563 
L 434.335838 285.36732 
L 441.585045 301.226312 
L 448.04212 305.529697 
L 453.060556 307.236667 
L 454.198345 318.022699 
L 455.313731 322.829544 
L 465.10096 331.328429 
L 478.069519 337.250079 
L 516.264679 340.170147 
L 524.254809 344.334481 
L 532.048107 353.7348 
" clip-path="url(#peee5ff396e)" style="fill: none; stroke: #f29888; stroke-width: 0.2"/>
    <path d="M 540.148656 246.150179 
L 535.923952 302.250015 
L 533.022669 340.788684 
L 532.048107 353.7348 
" clip-path="url(#peee5ff396e)" style="fill: none; stroke: #f29888; stroke-width: 0.2"/>
    <path d="M 535.923952 302.250015 
L 528.415502 299.308369 
L 523.464278 298.452487 
L 515.237308 297.033209 
L 500.455647 295.561188 
L 495.038745 296.364327 
" clip-path="url(#peee5ff396e)" style="fill: none; stroke: #f29888; stroke-width: 0.2"/>
    <path d="M 522.297683 242.973585 
L 520.505385 244.510337 
L 521.561561 248.3678 
L 522.496116 253.685298 
L 522.57773 257.705786 
L 521.886415 262.740387 
L 521.643174 268.18255 
L 521.521554 272.730473 
L 521.358327 280.244015 
L 521.479947 283.897696 
L 522.008035 291.53111 
L 523.464278 298.452487 
" clip-path="url(#peee5ff396e)" style="fill: none; stroke: #f29888; stroke-width: 0.2"/>
    <path d="M 419.63099 248.046545 
L 388.461 245.102502 
L 350.334652 243.095854 
L 332.677312 242.026601 
L 330.238506 239.988786 
L 322.512419 237.32764 
" clip-path="url(#peee5ff396e)" style="fill: none; stroke: #f29888; stroke-width: 0.2"/>
    <path d="M 614.666663 330.918469 
L 615.061929 328.578579 
L 614.447426 327.427813 
L 614.140175 322.508289 
L 614.447426 317.552803 
L 615.983682 311.638346 
L 607.948744 304.810469 
" clip-path="url(#peee5ff396e)" style="fill: none; stroke: #f29888; stroke-width: 0.2"/>
    <path d="M 535.923952 302.250015 
L 581.898007 303.853894 
L 595.365849 304.347765 
L 607.948744 304.810469 
" clip-path="url(#peee5ff396e)" style="fill: none; stroke: #f29888; stroke-width: 0.2"/>
    <path d="M 581.898007 303.853894 
L 581.55395 293.242874 
L 580.653 288.483978 
L 573.823062 262.838681 
L 569.806394 248.514044 
L 556.21053 243.40752 
" clip-path="url(#peee5ff396e)" style="fill: none; stroke: #f29888; stroke-width: 0.2"/>
    <path d="M 577.439665 232.281053 
L 580.920244 240.02235 
L 583.549482 251.896816 
L 587.847798 268.990484 
L 591.746047 287.263687 
L 595.213824 300.358443 
L 595.365849 304.347765 
" clip-path="url(#peee5ff396e)" style="fill: none; stroke: #f29888; stroke-width: 0.2"/>
    <path d="M 540.188662 245.622744 
L 540.148656 246.150179 
" clip-path="url(#peee5ff396e)" style="fill: none; stroke: #f29888; stroke-width: 0.2"/>
    <path d="M 540.188662 245.622744 
L 540.148656 246.150179 
" clip-path="url(#peee5ff396e)" style="fill: none; stroke: #f29888; stroke-width: 0.2"/>
    <path d="M 540.188662 245.622744 
L 549.289378 244.48876 
L 554.730283 244.109967 
L 556.21053 243.40752 
L 561.883474 239.494916 
L 571.878739 234.522649 
L 573.759052 233.798625 
L 577.439665 232.281053 
L 580.545782 231.185428 
L 586.441163 229.550381 
" clip-path="url(#peee5ff396e)" style="fill: none; stroke: #f29888; stroke-width: 0.2"/>
    <path d="M 560.243201 184.366039 
L 560.023965 199.397918 
L 558.860571 219.632218 
L 558.599728 231.525862 
L 561.883474 239.494916 
" clip-path="url(#peee5ff396e)" style="fill: none; stroke: #f29888; stroke-width: 0.2"/>
    <path d="M 541.523285 199.023919 
L 560.023965 199.397918 
L 574.796024 199.776712 
" clip-path="url(#peee5ff396e)" style="fill: none; stroke: #f29888; stroke-width: 0.2"/>
    <path d="M 541.404865 129.381007 
L 558.332483 129.500879 
L 560.368022 136.44623 
L 562.643601 147.400083 
L 565.935349 160.209545 
L 570.067237 174.455068 
L 574.555984 189.422216 
L 575.154484 192.114529 
L 574.796024 199.776712 
L 574.796024 211.389857 
L 573.759052 233.798625 
" clip-path="url(#peee5ff396e)" style="fill: none; stroke: #f29888; stroke-width: 0.2"/>
    <path d="M 522.849775 198.086524 
L 522.297683 242.973585 
" clip-path="url(#peee5ff396e)" style="fill: none; stroke: #f29888; stroke-width: 0.2"/>
    <path d="M 507.280783 239.593211 
L 509.701986 182.395352 
L 513.096151 132.061333 
L 510.550127 83.141796 
L 515.358928 52.039952 
L 516.960281 40.715486 
" clip-path="url(#peee5ff396e)" style="fill: none; stroke: #f29888; stroke-width: 0.2"/>
    <path d="M 540.188662 245.622744 
L 540.209466 244.891528 
L 541.523285 199.023919 
L 541.464075 139.31835 
L 541.404865 129.381007 
L 540.950389 52.730411 
" clip-path="url(#peee5ff396e)" style="fill: none; stroke: #f29888; stroke-width: 0.2"/>
    <path d="M 539.799512 48.212216 
L 540.950389 52.730411 
" clip-path="url(#peee5ff396e)" style="fill: none; stroke: #f29888; stroke-width: 0.2"/>
    <path d="M 302.705922 200.217839 
L 307.402704 204.538005 
L 315.988133 207.541984 
L 322.854876 213.034493 
L 323.456577 219.560295 
L 322.512419 237.32764 
" clip-path="url(#peee5ff396e)" style="fill: none; stroke: #f29888; stroke-width: 0.2"/>
    <path d="M 244.970616 189.515267 
L 256.250187 186.506943 
L 264.491559 187.88067 
L 280.630246 190.970955 
L 296.768933 194.404074 
L 302.246645 194.933905 
L 311.534592 196.12303 
L 334.197565 196.12303 
L 347.932652 195.434968 
L 371.626197 194.404074 
L 389.137912 193.718409 
L 408.366714 194.061241 
L 422.445858 198.182421 
L 440.645688 206.422385 
L 466.054719 218.783528 
L 491.807807 232.19954 
L 507.280783 239.593211 
L 510.402903 241.084411 
L 522.297683 242.973585 
L 525.322187 243.453071 
L 536.956124 244.618222 
L 540.188662 245.622744 
" clip-path="url(#peee5ff396e)" style="fill: none; stroke: #f29888; stroke-width: 0.2"/>
   </g>
   <g id="LineCollection_2">
    <path d="M 754.352977 498.969477 
L 755.283675 495.461206 
L 757.996765 491.276102 
" clip-path="url(#peee5ff396e)" style="fill: none; stroke-dasharray: 3.7,1.6; stroke-dashoffset: 0; stroke: #f29888"/>
    <path d="M 791.422681 352.401541 
L 784.598956 345.868836 
L 774.843732 339.105689 
L 762.872139 333.00663 
L 674.777471 314.623145 
L 655.201412 306.153029 
L 634.297131 290.814279 
L 624.285864 278.510674 
L 616.049293 265.540583 
L 608.753678 246.200525 
L 603.229559 228.411602 
L 573.130147 121.579774 
L 573.731847 108.564132 
L 576.919578 94.414507 
L 585.231362 70.320347 
L 589.999105 60.895921 
" clip-path="url(#peee5ff396e)" style="fill: none; stroke-dasharray: 3.7,1.6; stroke-dashoffset: 0; stroke: #f29888"/>
   </g>
  </g>
 </g>
 <defs>
  <clipPath id="peee5ff396e">
   <rect x="7.2" y="7.2" width="837" height="669.279913"/>
  </clipPath>
 </defs>
</svg>
