<?xml version="1.0" encoding="utf-8" standalone="no"?>
<!DOCTYPE svg PUBLIC "-//W3C//DTD SVG 1.1//EN"
  "http://www.w3.org/Graphics/SVG/1.1/DTD/svg11.dtd">
<svg xmlns:xlink="http://www.w3.org/1999/xlink" width="851.4pt" height="425.31675pt" viewBox="0 0 851.4 425.31675" xmlns="http://www.w3.org/2000/svg" version="1.1">
 <metadata>
  <rdf:RDF xmlns:dc="http://purl.org/dc/elements/1.1/" xmlns:cc="http://creativecommons.org/ns#" xmlns:rdf="http://www.w3.org/1999/02/22-rdf-syntax-ns#">
   <cc:Work>
    <dc:type rdf:resource="http://purl.org/dc/dcmitype/StillImage"/>
    <dc:date>2025-03-16T14:38:36.816103</dc:date>
    <dc:format>image/svg+xml</dc:format>
    <dc:creator>
     <cc:Agent>
      <dc:title>Matplotlib v3.10.1, https://matplotlib.org/</dc:title>
     </cc:Agent>
    </dc:creator>
   </cc:Work>
  </rdf:RDF>
 </metadata>
 <defs>
  <style type="text/css">*{stroke-linejoin: round; stroke-linecap: butt}</style>
 </defs>
 <g id="figure_1">
  <g id="patch_1">
   <path d="M 0 425.31675 
L 851.4 425.31675 
L 851.4 -0 
L 0 -0 
z
" style="fill: #ffffff"/>
  </g>
  <g id="axes_1">
   <g id="PatchCollection_1">
    <path d="M 530.136537 267.818377 
L 450.180286 286.453496 
L 478.319707 399.438716 
L 548.431424 374.545924 
L 530.136537 267.818377 
" clip-path="url(#p974dc5beb9)" style="fill: #f29888"/>
    <path d="M 806.154545 277.216773 
L 800.718341 258.429491 
L 602.722413 304.84373 
L 595.877817 304.268366 
L 579.95446 308.333951 
L 560.011186 316.355754 
L 563.907948 330.925289 
L 573.160389 360.404346 
L 629.803961 340.580459 
L 656.56499 335.143036 
L 656.225523 325.656671 
L 690.105879 317.608715 
L 698.575179 315.235935 
L 729.532963 301.472385 
L 776.371474 285.718838 
L 792.634297 282.159668 
L 806.154545 277.216773 
" clip-path="url(#p974dc5beb9)" style="fill: #f29888"/>
    <path d="M 524.052978 237.269429 
L 519.224656 218.974297 
L 529.812859 215.500718 
L 559.373304 201.779964 
L 563.099543 206.863133 
L 566.571577 205.762335 
L 586.645901 253.277372 
L 590.288458 243.027819 
L 595.369406 212.198322 
L 597.617781 201.164182 
L 611.546968 198.223171 
L 637.889584 186.704014 
L 639.921648 183.040232 
L 612.055379 113.868228 
L 607.058113 97.777071 
L 625.438261 91.341084 
L 627.217698 86.937889 
L 615.612674 68.645134 
L 599.351429 63.309946 
L 589.694786 58.060348 
L 577.922396 61.108348 
L 571.823048 58.48355 
L 579.614993 43.578782 
L 597.486731 45.694789 
L 604.686583 44.085197 
L 606.974431 39.598789 
L 604.940788 36.465198 
L 581.39443 25.878034 
L 540.061596 34.346814 
L 532.947005 39.258801 
L 527.742902 45.76136 
L 505.24968 58.312367 
L 500.083471 45.440392 
L 463.831584 60.939543 
L 462.900025 68.730726 
L 466.203115 76.350725 
L 469.506205 87.106694 
L 469.506205 95.406669 
L 478.060765 121.152995 
L 471.634582 123.673183 
L 466.089433 112.917214 
L 464.508939 107.601046 
L 460.274289 95.406669 
L 453.413904 87.106694 
L 446.214052 91.341084 
L 451.296579 101.505046 
L 412.842106 112.936234 
L 409.370073 102.860241 
L 399.121336 106.840235 
L 391.921484 94.389084 
L 383.366923 96.761864 
L 376.167071 102.860241 
L 367.274622 111.835436 
L 359.651621 114.208216 
L 354.314889 112.258637 
L 353.721217 100.233065 
L 344.489301 101.25065 
L 338.814681 115.309014 
L 330.345382 117.679417 
L 324.500239 122.931392 
L 329.243299 144.949744 
L 330.091176 147.745725 
L 324.500239 151.471322 
L 321.028205 151.556913 
L 304.850643 120.729794 
L 285.538935 121.745002 
L 273.510761 130.805788 
L 262.330464 133.009763 
L 244.035578 137.92175 
L 234.888923 145.20414 
L 232.008983 160.788882 
L 223.538104 163.328089 
L 213.374629 161.46648 
L 183.700502 160.085132 
L 161.136229 156.827909 
L 147.41388 151.409506 
L 143.266071 138.109575 
L 121.49915 142.17516 
L 125.053287 156.490299 
L 118.642893 161.780314 
L 117.54081 177.025069 
L 104.157927 193.539427 
L 104.917385 207.245917 
L 106.360514 217.847345 
L 90.498735 222.804506 
L 92.955526 238.303657 
L 80.249998 239.321242 
L 66.041343 236.228069 
L 46.053859 243.512836 
L 45.245455 259.946358 
L 60.134622 324.860197 
L 87.844579 366.982985 
L 97.551747 381.241063 
L 128.190591 363.628283 
L 120.850216 325.052777 
L 163.447761 317.710949 
L 206.474771 303.141415 
L 290.528306 296.327399 
L 297.950785 267.566358 
L 321.855556 272.566314 
L 356.478002 277.815911 
L 369.202478 272.057522 
L 383.329029 275.359918 
L 433.808517 257.402396 
L 502.455001 240.40302 
L 524.052978 237.269429 
" clip-path="url(#p974dc5beb9)" style="fill: #f29888"/>
   </g>
   <g id="PatchCollection_2">
    <path d="M 486.517434 362.244558 
L 489.590002 361.564583 
L 491.23681 368.99438 
L 488.165821 369.676733 
L 486.517434 362.244558 
" clip-path="url(#p974dc5beb9)" style="fill: #f29888"/>
    <path d="M 489.583686 355.337819 
L 496.076184 353.488096 
L 496.958798 356.588402 
L 490.4663 358.438124 
L 489.583686 355.337819 
" clip-path="url(#p974dc5beb9)" style="fill: #f29888"/>
    <path d="M 500.372412 353.278873 
L 511.074297 350.140527 
L 512.258483 354.179959 
L 501.556598 357.315928 
L 500.372412 353.278873 
" clip-path="url(#p974dc5beb9)" style="fill: #f29888"/>
    <path d="M 478.907064 333.787841 
L 482.252785 333.067448 
L 482.50699 334.422643 
L 479.289161 335.311841 
L 478.907064 333.787841 
" clip-path="url(#p974dc5beb9)" style="fill: #f29888"/>
    <path d="M 498.558239 326.460278 
L 507.846995 324.025682 
L 508.587506 326.847816 
L 499.29875 329.28479 
L 498.558239 326.460278 
" clip-path="url(#p974dc5beb9)" style="fill: #f29888"/>
    <path d="M 487.267418 322.594406 
L 489.66579 322.033308 
L 489.438426 321.056141 
L 506.067558 317.168871 
L 507.111221 321.629127 
L 488.082138 326.077495 
L 487.267418 322.594406 
" clip-path="url(#p974dc5beb9)" style="fill: #f29888"/>
    <path d="M 475.465029 321.916809 
L 478.1555 321.203548 
L 476.998156 316.831261 
L 480.883865 315.801789 
L 481.745953 319.056634 
L 482.889087 318.75231 
L 484.070116 323.212565 
L 479.769151 324.351405 
L 480.258615 326.203504 
L 477.906032 326.826419 
L 477.301307 324.543985 
L 476.23554 324.826912 
L 475.465029 321.916809 
" clip-path="url(#p974dc5beb9)" style="fill: #f29888"/>
    <path d="M 472.105098 307.934525 
L 479.77073 305.863692 
L 480.536504 308.700092 
L 472.870872 310.770925 
L 472.105098 307.934525 
" clip-path="url(#p974dc5beb9)" style="fill: #f29888"/>
    <path d="M 485.972708 307.378182 
L 487.722146 306.954981 
L 487.404784 305.640204 
L 492.621519 304.38011 
L 492.964143 305.799499 
L 496.305127 304.991137 
L 497.257213 308.930712 
L 491.082077 310.423804 
L 491.271546 311.208391 
L 487.139526 312.206956 
L 485.972708 307.378182 
" clip-path="url(#p974dc5beb9)" style="fill: #f29888"/>
    <path d="M 499.009808 307.670619 
L 520.015692 302.33543 
L 521.116196 306.653034 
L 500.364517 311.905009 
L 499.009808 307.670619 
" clip-path="url(#p974dc5beb9)" style="fill: #f29888"/>
    <path d="M 483.981696 302.285502 
L 488.563707 300.9945 
L 489.348428 303.780972 
L 484.764838 305.071973 
L 483.981696 302.285502 
" clip-path="url(#p974dc5beb9)" style="fill: #f29888"/>
    <path d="M 475.632394 289.375487 
L 501.041872 284.123512 
L 502.736048 292.423487 
L 477.32657 297.166669 
L 475.632394 289.375487 
" clip-path="url(#p974dc5beb9)" style="fill: #f29888"/>
    <path d="M 477.729193 221.56581 
L 473.726644 223.353716 
L 472.419303 220.422216 
L 476.421852 218.636687 
L 477.729193 221.56581 
" clip-path="url(#p974dc5beb9)" style="fill: #f29888"/>
    <path d="M 488.896858 213.327651 
L 490.046308 215.928675 
L 483.24908 218.929124 
L 482.09963 216.325723 
L 488.896858 213.327651 
" clip-path="url(#p974dc5beb9)" style="fill: #f29888"/>
    <path d="M 497.852464 209.043333 
L 499.000335 211.644356 
L 492.203106 214.647183 
L 491.055235 212.043782 
L 497.852464 209.043333 
" clip-path="url(#p974dc5beb9)" style="fill: #f29888"/>
    <path d="M 504.106546 209.205005 
L 500.103996 210.990534 
L 498.796655 208.061411 
L 502.799204 206.275882 
L 504.106546 209.205005 
" clip-path="url(#p974dc5beb9)" style="fill: #f29888"/>
    <path d="M 479.366528 206.594472 
L 482.358572 205.182216 
L 481.678059 203.74143 
L 484.299058 202.505112 
L 486.247439 206.627757 
L 478.446021 210.315314 
L 476.532376 206.26875 
L 478.722331 205.234522 
L 479.366528 206.594472 
" clip-path="url(#p974dc5beb9)" style="fill: #f29888"/>
    <path d="M 509.849059 206.577829 
L 505.84651 208.363358 
L 504.539168 205.434235 
L 508.541718 203.646329 
L 509.849059 206.577829 
" clip-path="url(#p974dc5beb9)" style="fill: #f29888"/>
    <path d="M 496.216708 204.644893 
L 491.846271 206.796562 
L 490.613139 204.293018 
L 494.981996 202.138971 
L 496.216708 204.644893 
" clip-path="url(#p974dc5beb9)" style="fill: #f29888"/>
    <path d="M 515.495259 203.755695 
L 511.49271 205.541224 
L 510.185368 202.612101 
L 514.187917 200.824194 
L 515.495259 203.755695 
" clip-path="url(#p974dc5beb9)" style="fill: #f29888"/>
    <path d="M 421.925604 221.068905 
L 430.230696 217.300512 
L 431.035943 219.076531 
L 422.730851 222.844924 
L 421.925604 221.068905 
" clip-path="url(#p974dc5beb9)" style="fill: #f29888"/>
    <path d="M 433.811675 226.099769 
L 441.03679 222.661854 
L 437.601071 215.443657 
L 438.442633 215.041854 
L 435.674795 209.226403 
L 439.631556 207.341018 
L 442.667809 213.717567 
L 440.654692 214.678091 
L 441.867299 217.222054 
L 450.323967 213.194509 
L 451.435523 215.529249 
L 442.794122 219.644762 
L 443.788839 221.734615 
L 445.383543 220.973804 
L 446.678253 223.696081 
L 435.254804 229.133504 
L 433.811675 226.099769 
" clip-path="url(#p974dc5beb9)" style="fill: #f29888"/>
    <path d="M 469.910407 213.61771 
L 471.086698 216.313835 
L 462.811605 219.922933 
L 461.636893 217.229186 
L 469.910407 213.61771 
" clip-path="url(#p974dc5beb9)" style="fill: #f29888"/>
    <path d="M 458.561166 202.86412 
L 460.498495 207.333885 
L 457.939074 208.444194 
L 456.000166 203.974428 
L 458.561166 202.86412 
" clip-path="url(#p974dc5beb9)" style="fill: #f29888"/>
    <path d="M 395.851403 193.9127 
L 400.382889 203.948275 
L 397.750838 205.137043 
L 393.219352 195.101468 
L 395.851403 193.9127 
" clip-path="url(#p974dc5beb9)" style="fill: #f29888"/>
    <path d="M 455.425441 196.340163 
L 457.364349 200.809929 
L 454.803349 201.920238 
L 452.864441 197.450472 
L 455.425441 196.340163 
" clip-path="url(#p974dc5beb9)" style="fill: #f29888"/>
    <path d="M 410.397946 195.429567 
L 411.771602 198.382466 
L 407.43906 200.398616 
L 406.065404 197.445717 
L 410.397946 195.429567 
" clip-path="url(#p974dc5beb9)" style="fill: #f29888"/>
    <path d="M 472.40825 194.999234 
L 473.556121 197.600257 
L 466.758893 200.603084 
L 465.611021 197.999683 
L 472.40825 194.999234 
" clip-path="url(#p974dc5beb9)" style="fill: #f29888"/>
    <path d="M 426.725505 191.673062 
L 416.719921 196.273592 
L 415.513631 193.651171 
L 425.517635 189.048263 
L 426.725505 191.673062 
" clip-path="url(#p974dc5beb9)" style="fill: #f29888"/>
    <path d="M 452.584974 189.611739 
L 454.522302 194.081505 
L 451.962881 195.191814 
L 450.023974 190.722048 
L 452.584974 189.611739 
" clip-path="url(#p974dc5beb9)" style="fill: #f29888"/>
    <path d="M 395.074577 192.452894 
L 392.07306 193.715365 
L 390.222572 189.309792 
L 393.225668 188.049699 
L 395.074577 192.452894 
" clip-path="url(#p974dc5beb9)" style="fill: #f29888"/>
    <path d="M 438.491579 185.895652 
L 439.941023 189.062529 
L 431.40383 192.968819 
L 429.954386 189.799565 
L 438.491579 185.895652 
" clip-path="url(#p974dc5beb9)" style="fill: #f29888"/>
    <path d="M 420.998781 174.153006 
L 425.528688 184.188582 
L 422.898216 185.377349 
L 418.36673 175.341774 
L 420.998781 174.153006 
" clip-path="url(#p974dc5beb9)" style="fill: #f29888"/>
    <path d="M 389.144173 179.913774 
L 386.141077 181.173867 
L 384.290588 176.770673 
L 387.293684 175.508201 
L 389.144173 179.913774 
" clip-path="url(#p974dc5beb9)" style="fill: #f29888"/>
    <path d="M 441.129946 166.0575 
L 443.169904 170.277624 
L 440.683113 171.480657 
L 438.643155 167.260532 
L 441.129946 166.0575 
" clip-path="url(#p974dc5beb9)" style="fill: #f29888"/>
    <path d="M 395.297204 165.234873 
L 396.67086 168.187771 
L 392.339896 170.203921 
L 390.966241 167.251022 
L 395.297204 165.234873 
" clip-path="url(#p974dc5beb9)" style="fill: #f29888"/>
    <path d="M 500.103996 184.362142 
L 501.790278 188.406329 
L 498.828233 189.64027 
L 497.141952 185.596083 
L 500.103996 184.362142 
" clip-path="url(#p974dc5beb9)" style="fill: #f29888"/>
    <path d="M 495.534617 178.670323 
L 497.219319 182.71451 
L 494.258853 183.948451 
L 492.572572 179.904264 
L 495.534617 178.670323 
" clip-path="url(#p974dc5beb9)" style="fill: #f29888"/>
    <path d="M 481.965422 171.575758 
L 483.141714 174.271883 
L 474.866621 177.880981 
L 473.691908 175.184857 
L 481.965422 171.575758 
" clip-path="url(#p974dc5beb9)" style="fill: #f29888"/>
    <path d="M 496.922483 162.174985 
L 498.285086 165.351372 
L 496.494597 166.119316 
L 495.133572 162.940551 
L 496.922483 162.174985 
" clip-path="url(#p974dc5beb9)" style="fill: #f29888"/>
    <path d="M 503.108671 159.669063 
L 504.8139 163.556333 
L 502.867097 164.409868 
L 501.161869 160.522598 
L 503.108671 159.669063 
" clip-path="url(#p974dc5beb9)" style="fill: #f29888"/>
    <path d="M 510.089054 157.805076 
L 513.076361 164.343297 
L 510.578518 165.484514 
L 507.588053 158.946292 
L 510.089054 157.805076 
" clip-path="url(#p974dc5beb9)" style="fill: #f29888"/>
    <path d="M 489.978415 162.574411 
L 489.280535 160.979085 
L 492.466785 159.588227 
L 493.163086 161.183553 
L 489.978415 162.574411 
" clip-path="url(#p974dc5beb9)" style="fill: #f29888"/>
    <path d="M 496.677751 159.609625 
L 495.517249 156.93252 
L 496.890905 156.338136 
L 498.051407 159.015241 
L 496.677751 159.609625 
" clip-path="url(#p974dc5beb9)" style="fill: #f29888"/>
    <path d="M 492.623098 152.624427 
L 493.619393 154.91637 
L 494.890419 154.364782 
L 495.790401 156.435615 
L 494.19096 157.129856 
L 494.768843 158.458898 
L 492.525205 159.433687 
L 491.911007 158.023809 
L 489.979994 158.863079 
L 489.17159 157.003846 
L 490.579982 156.39282 
L 489.526845 153.970112 
L 492.623098 152.624427 
" clip-path="url(#p974dc5beb9)" style="fill: #f29888"/>
    <path d="M 498.886653 151.861238 
L 499.601901 153.411391 
L 498.649816 153.851235 
L 497.934567 152.298704 
L 498.886653 151.861238 
" clip-path="url(#p974dc5beb9)" style="fill: #f29888"/>
    <path d="M 401.669705 162.469799 
L 403.043361 165.422698 
L 398.710818 167.438848 
L 397.337162 164.485949 
L 401.669705 162.469799 
" clip-path="url(#p974dc5beb9)" style="fill: #f29888"/>
    <path d="M 437.943696 159.573962 
L 439.983654 163.794086 
L 437.496863 164.994741 
L 435.456905 160.774617 
L 437.943696 159.573962 
" clip-path="url(#p974dc5beb9)" style="fill: #f29888"/>
    <path d="M 408.618509 159.081812 
L 409.992165 162.03471 
L 405.659623 164.048483 
L 404.285967 161.095584 
L 408.618509 159.081812 
" clip-path="url(#p974dc5beb9)" style="fill: #f29888"/>
    <path d="M 470.532499 158.159328 
L 471.756158 160.715178 
L 465.558917 163.687097 
L 464.333679 161.131247 
L 470.532499 158.159328 
" clip-path="url(#p974dc5beb9)" style="fill: #f29888"/>
    <path d="M 415.396791 155.862629 
L 416.770447 158.81315 
L 412.437904 160.8293 
L 411.064248 157.876402 
L 415.396791 155.862629 
" clip-path="url(#p974dc5beb9)" style="fill: #f29888"/>
    <path d="M 435.043229 152.933506 
L 437.081608 157.153631 
L 434.594817 158.354286 
L 432.554859 154.134161 
L 435.043229 152.933506 
" clip-path="url(#p974dc5beb9)" style="fill: #f29888"/>
    <path d="M 462.303195 149.174623 
L 464.857879 154.949656 
L 462.110567 156.164576 
L 459.552725 150.389544 
L 462.303195 149.174623 
" clip-path="url(#p974dc5beb9)" style="fill: #f29888"/>
    <path d="M 444.046202 142.258374 
L 445.312491 144.807092 
L 440.365751 147.263085 
L 439.099461 144.714368 
L 444.046202 142.258374 
" clip-path="url(#p974dc5beb9)" style="fill: #f29888"/>
    <path d="M 461.810573 141.112402 
L 463.076863 143.66112 
L 458.130123 146.117113 
L 456.863833 143.566018 
L 461.810573 141.112402 
" clip-path="url(#p974dc5beb9)" style="fill: #f29888"/>
    <path d="M 451.7892 139.043947 
L 453.05549 141.592664 
L 448.10875 144.048658 
L 446.84246 141.497563 
L 451.7892 139.043947 
" clip-path="url(#p974dc5beb9)" style="fill: #f29888"/>
    <path d="M 509.389595 148.932115 
L 510.614833 151.487965 
L 504.439697 154.362405 
L 503.872866 153.135597 
L 502.796046 153.589706 
L 502.120271 152.220246 
L 509.389595 148.932115 
" clip-path="url(#p974dc5beb9)" style="fill: #f29888"/>
    <path d="M 480.527031 146.321581 
L 483.083294 152.098991 
L 480.335982 153.313912 
L 477.77814 147.538879 
L 480.527031 146.321581 
" clip-path="url(#p974dc5beb9)" style="fill: #f29888"/>
    <path d="M 503.744974 143.314 
L 505.429676 147.358187 
L 502.469211 148.592127 
L 500.78293 144.54794 
L 503.744974 143.314 
" clip-path="url(#p974dc5beb9)" style="fill: #f29888"/>
    <path d="M 476.928683 137.581763 
L 479.484947 143.356795 
L 476.737635 144.574093 
L 474.179793 138.799061 
L 476.928683 137.581763 
" clip-path="url(#p974dc5beb9)" style="fill: #f29888"/>
    <path d="M 498.348243 133.361638 
L 495.826716 134.574181 
L 493.163086 129.032147 
L 495.686193 127.821981 
L 498.348243 133.361638 
" clip-path="url(#p974dc5beb9)" style="fill: #f29888"/>
    <path d="M 459.281152 135.465756 
L 460.545862 138.014474 
L 455.599122 140.470468 
L 454.332832 137.919373 
L 459.281152 135.465756 
" clip-path="url(#p974dc5beb9)" style="fill: #f29888"/>
    <path d="M 468.048866 131.416814 
L 469.210947 133.85141 
L 463.449487 136.599841 
L 462.287406 134.165245 
L 468.048866 131.416814 
" clip-path="url(#p974dc5beb9)" style="fill: #f29888"/>
    <path d="M 516.365241 366.730967 
L 519.208867 366.167491 
L 520.721467 373.827909 
L 517.877841 374.389007 
L 516.365241 366.730967 
" clip-path="url(#p974dc5beb9)" style="fill: #f29888"/>
    <path d="M 530.10338 367.701001 
L 532.874375 367.135148 
L 533.643307 370.908296 
L 530.872311 371.474149 
L 530.10338 367.701001 
" clip-path="url(#p974dc5beb9)" style="fill: #f29888"/>
    <path d="M 523.591934 365.225987 
L 526.460823 364.60545 
L 528.147104 372.387122 
L 525.278216 373.010037 
L 523.591934 365.225987 
" clip-path="url(#p974dc5beb9)" style="fill: #f29888"/>
    <path d="M 520.094638 358.126667 
L 529.018665 355.525644 
L 529.868121 358.438124 
L 520.944094 361.039148 
L 520.094638 358.126667 
" clip-path="url(#p974dc5beb9)" style="fill: #f29888"/>
    <path d="M 535.975364 350.371148 
L 537.503754 350.102487 
L 538.528469 355.965488 
L 537.00008 356.231772 
L 535.975364 350.371148 
" clip-path="url(#p974dc5beb9)" style="fill: #f29888"/>
    <path d="M 513.343198 351.16049 
L 517.227329 350.123884 
L 516.859441 348.742537 
L 518.450988 348.316958 
L 519.540439 352.401563 
L 514.064762 353.863747 
L 513.343198 351.16049 
" clip-path="url(#p974dc5beb9)" style="fill: #f29888"/>
    <path d="M 536.464828 338.098312 
L 539.884757 337.311348 
L 540.262118 338.951847 
L 536.842188 339.738811 
L 536.464828 338.098312 
" clip-path="url(#p974dc5beb9)" style="fill: #f29888"/>
    <path d="M 518.432041 334.969476 
L 527.363962 333.012765 
L 527.866057 335.304709 
L 518.934136 337.259042 
L 518.432041 334.969476 
" clip-path="url(#p974dc5beb9)" style="fill: #f29888"/>
    <path d="M 519.365179 328.060359 
L 530.727051 325.663804 
L 531.29546 328.362306 
L 519.933589 330.758862 
L 519.365179 328.060359 
" clip-path="url(#p974dc5beb9)" style="fill: #f29888"/>
    <path d="M 514.170549 316.648191 
L 529.587074 313.091399 
L 530.941783 318.59777 
L 515.695781 322.154562 
L 514.170549 316.648191 
" clip-path="url(#p974dc5beb9)" style="fill: #f29888"/>
    <path d="M 611.782226 315.340547 
L 614.407962 314.917346 
L 615.001634 318.728534 
L 612.375898 319.066144 
L 611.782226 315.340547 
" clip-path="url(#p974dc5beb9)" style="fill: #f29888"/>
    <path d="M 681.529213 302.680173 
L 690.931652 300.64738 
L 691.440062 303.272179 
L 682.122885 305.221758 
L 681.529213 302.680173 
" clip-path="url(#p974dc5beb9)" style="fill: #f29888"/>
    <path d="M 531.743872 212.528799 
L 528.680777 205.370041 
L 532.018603 203.941143 
L 533.052793 206.359096 
L 532.4307 206.62538 
L 533.404891 208.898303 
L 534.146981 208.579714 
L 535.201696 211.047595 
L 531.743872 212.528799 
" clip-path="url(#p974dc5beb9)" style="fill: #f29888"/>
    <path d="M 541.236309 207.700026 
L 537.23218 209.485555 
L 535.924839 206.556431 
L 539.927388 204.770903 
L 541.236309 207.700026 
" clip-path="url(#p974dc5beb9)" style="fill: #f29888"/>
    <path d="M 522.433011 203.463258 
L 524.117713 207.509823 
L 521.157248 208.743764 
L 519.470967 204.697199 
L 522.433011 203.463258 
" clip-path="url(#p974dc5beb9)" style="fill: #f29888"/>
    <path d="M 529.246029 198.304007 
L 530.93231 202.350572 
L 527.970266 203.584513 
L 526.283984 199.537948 
L 529.246029 198.304007 
" clip-path="url(#p974dc5beb9)" style="fill: #f29888"/>
    <path d="M 521.335665 200.931184 
L 517.333116 202.71909 
L 516.024195 199.789967 
L 520.026745 198.00206 
L 521.335665 200.931184 
" clip-path="url(#p974dc5beb9)" style="fill: #f29888"/>
    <path d="M 540.167383 199.65207 
L 539.902125 199.052931 
L 542.379443 197.952132 
L 542.628911 198.51323 
L 544.847287 197.526553 
L 545.987263 200.089536 
L 539.016354 203.189842 
L 537.893746 200.662522 
L 540.167383 199.65207 
" clip-path="url(#p974dc5beb9)" style="fill: #f29888"/>
    <path d="M 524.5156 197.628787 
L 521.452505 190.467652 
L 524.788752 189.041131 
L 525.82452 191.459084 
L 525.202428 191.725368 
L 526.175039 193.998291 
L 526.917129 193.679702 
L 527.973423 196.147583 
L 524.5156 197.628787 
" clip-path="url(#p974dc5beb9)" style="fill: #f29888"/>
    <path d="M 522.238804 183.608463 
L 523.923507 187.65265 
L 520.963041 188.886591 
L 519.27676 184.842404 
L 522.238804 183.608463 
" clip-path="url(#p974dc5beb9)" style="fill: #f29888"/>
    <path d="M 519.609911 177.864339 
L 521.296192 181.910903 
L 518.334148 183.144844 
L 516.647867 179.098279 
L 519.609911 177.864339 
" clip-path="url(#p974dc5beb9)" style="fill: #f29888"/>
    <path d="M 527.689219 173.556245 
L 528.912878 176.112095 
L 522.714058 179.084014 
L 521.48882 176.525786 
L 527.689219 173.556245 
" clip-path="url(#p974dc5beb9)" style="fill: #f29888"/>
    <path d="M 515.239475 177.405474 
L 512.17638 170.246716 
L 515.514206 168.817818 
L 516.548395 171.235771 
L 515.926303 171.502055 
L 516.900493 173.774978 
L 517.641004 173.458766 
L 518.697298 175.926648 
L 515.239475 177.405474 
" clip-path="url(#p974dc5beb9)" style="fill: #f29888"/>
    <path d="M 535.766947 169.856801 
L 536.992185 172.412651 
L 530.793365 175.38457 
L 529.568127 172.828719 
L 535.766947 169.856801 
" clip-path="url(#p974dc5beb9)" style="fill: #f29888"/>
    <path d="M 541.247361 167.721774 
L 544.375191 174.854379 
L 541.049997 176.311808 
L 539.993703 173.903365 
L 540.612637 173.632326 
L 539.6195 171.366535 
L 538.880568 171.692258 
L 537.802169 169.233886 
L 541.247361 167.721774 
" clip-path="url(#p974dc5beb9)" style="fill: #f29888"/>
    <path d="M 540.086858 165.838766 
L 537.50849 167.020401 
L 534.339608 160.108907 
L 536.919555 158.927272 
L 540.086858 165.838766 
" clip-path="url(#p974dc5beb9)" style="fill: #f29888"/>
    <path d="M 513.463195 154.027172 
L 515.649993 158.46603 
L 514.759485 158.905874 
L 515.640519 160.691403 
L 513.748979 161.623397 
L 512.424269 158.934405 
L 513.035309 158.632458 
L 511.292187 155.097063 
L 513.463195 154.027172 
" clip-path="url(#p974dc5beb9)" style="fill: #f29888"/>
    <path d="M 532.96911 152.781344 
L 533.426995 153.841725 
L 534.434343 153.409013 
L 535.440112 155.743753 
L 534.606445 156.10276 
L 535.148013 157.360477 
L 532.740167 158.399459 
L 532.247546 157.258243 
L 530.076538 158.194991 
L 528.971298 155.634386 
L 531.153358 154.692882 
L 530.74284 153.739491 
L 532.96911 152.781344 
" clip-path="url(#p974dc5beb9)" style="fill: #f29888"/>
    <path d="M 516.668393 154.153182 
L 523.749826 150.914979 
L 525.260848 154.214998 
L 522.868791 155.308664 
L 522.587745 154.69526 
L 520.33937 155.724732 
L 520.6741 156.457013 
L 518.233097 157.574455 
L 516.668393 154.153182 
" clip-path="url(#p974dc5beb9)" style="fill: #f29888"/>
    <path d="M 528.759723 139.978318 
L 529.983382 142.534168 
L 523.786141 145.503709 
L 522.560903 142.947859 
L 528.759723 139.978318 
" clip-path="url(#p974dc5beb9)" style="fill: #f29888"/>
    <path d="M 525.158218 133.385413 
L 526.844499 137.431978 
L 523.882455 138.665919 
L 522.196174 134.619354 
L 525.158218 133.385413 
" clip-path="url(#p974dc5beb9)" style="fill: #f29888"/>
    <path d="M 524.285078 131.079204 
L 521.763551 132.28937 
L 519.099922 126.749713 
L 521.623028 125.53717 
L 524.285078 131.079204 
" clip-path="url(#p974dc5beb9)" style="fill: #f29888"/>
    <path d="M 529.984961 122.111142 
L 528.434467 122.838668 
L 527.573958 121.003211 
L 529.413394 120.140166 
L 529.699177 120.751192 
L 532.683327 119.350824 
L 533.504362 121.10069 
L 532.298071 121.666543 
L 532.981741 123.123972 
L 530.913363 124.094006 
L 529.984961 122.111142 
" clip-path="url(#p974dc5beb9)" style="fill: #f29888"/>
    <path d="M 556.589677 200.869368 
L 554.011309 202.051003 
L 550.840848 195.139508 
L 553.420795 193.957873 
L 556.589677 200.869368 
" clip-path="url(#p974dc5beb9)" style="fill: #f29888"/>
    <path d="M 563.677426 197.193698 
L 561.132215 198.410996 
L 558.703844 193.330204 
L 561.249055 192.112906 
L 563.677426 197.193698 
" clip-path="url(#p974dc5beb9)" style="fill: #f29888"/>
    <path d="M 549.656662 184.761568 
L 552.784492 191.894173 
L 549.459297 193.351602 
L 548.403003 190.943159 
L 549.021938 190.67212 
L 548.0288 188.406329 
L 547.289868 188.729674 
L 546.211469 186.271303 
L 549.656662 184.761568 
" clip-path="url(#p974dc5beb9)" style="fill: #f29888"/>
    <path d="M 608.670185 186.171446 
L 616.94212 182.467246 
L 618.320513 185.543777 
L 610.046999 189.247976 
L 608.670185 186.171446 
" clip-path="url(#p974dc5beb9)" style="fill: #f29888"/>
    <path d="M 545.538852 176.173911 
L 548.665103 183.306516 
L 545.339908 184.763945 
L 544.283614 182.355502 
L 544.904128 182.084463 
L 543.909411 179.818672 
L 543.170479 180.142017 
L 542.093659 177.683646 
L 545.538852 176.173911 
" clip-path="url(#p974dc5beb9)" style="fill: #f29888"/>
    <path d="M 608.618081 172.686067 
L 616.075296 168.924807 
L 617.482109 171.716033 
L 610.024894 175.474916 
L 608.618081 172.686067 
" clip-path="url(#p974dc5beb9)" style="fill: #f29888"/>
    <path d="M 592.592095 145.197007 
L 599.724053 141.419104 
L 601.195602 144.196065 
L 594.063643 147.973968 
L 592.592095 145.197007 
" clip-path="url(#p974dc5beb9)" style="fill: #f29888"/>
   </g>
   <g id="LineCollection_1">
    <path d="M 604.438693 320.794612 
L 608.258088 322.171205 
L 611.000664 323.16026 
L 623.196202 324.261058 
L 635.478581 325.361857 
L 644.710497 327.054662 
L 656.23026 326.802643 
L 656.26823 326.850107 
" clip-path="url(#p974dc5beb9)" style="fill: none; stroke: #f29888; stroke-width: 0.2"/>
    <path d="M 709.963684 310.172709 
L 711.454387 308.272135 
" clip-path="url(#p974dc5beb9)" style="fill: none; stroke: #f29888; stroke-width: 0.2"/>
    <path d="M 656.23026 326.802643 
L 656.266202 326.793451 
" clip-path="url(#p974dc5beb9)" style="fill: none; stroke: #f29888; stroke-width: 0.2"/>
    <path d="M 571.360426 327.251997 
L 573.008813 333.871055 
L 576.397164 344.969388 
L 578.937639 355.896539 
L 579.397112 358.221643 
" clip-path="url(#p974dc5beb9)" style="fill: none; stroke: #f29888; stroke-width: 0.2"/>
    <path d="M 563.353723 328.853109 
L 569.457834 327.656178 
L 571.360426 327.251997 
L 583.432809 324.691392 
L 592.91893 324.097008 
L 601.812958 323.167392 
L 604.438693 320.794612 
L 604.353432 314.950631 
L 605.370253 310.461845 
L 607.403895 304.36109 
L 607.768336 303.660863 
" clip-path="url(#p974dc5beb9)" style="fill: none; stroke: #f29888; stroke-width: 0.2"/>
    <path d="M 374.261321 268.736105 
L 374.133429 271.658096 
L 375.105317 273.437442 
" clip-path="url(#p974dc5beb9)" style="fill: none; stroke: #f29888; stroke-width: 0.2"/>
    <path d="M 481.291486 245.643879 
L 481.723848 245.421997 
L 483.112627 245.192898 
" clip-path="url(#p974dc5beb9)" style="fill: none; stroke: #f29888; stroke-width: 0.2"/>
    <path d="M 510.719591 239.203934 
L 513.993711 238.222821 
L 515.259205 238.545293 
" clip-path="url(#p974dc5beb9)" style="fill: none; stroke: #f29888; stroke-width: 0.2"/>
    <path d="M 558.234906 201.703882 
L 558.52616 202.173173 
" clip-path="url(#p974dc5beb9)" style="fill: none; stroke: #f29888; stroke-width: 0.2"/>
    <path d="M 520.418316 195.59124 
L 490.512088 209.742328 
L 460.537968 222.961423 
L 427.960217 238.244218 
L 382.053266 260.264948 
L 377.818616 261.282533 
" clip-path="url(#p974dc5beb9)" style="fill: none; stroke: #f29888; stroke-width: 0.2"/>
    <path d="M 600.958765 184.162429 
L 575.369291 193.615508 
L 558.234906 201.703882 
L 530.701788 213.001929 
L 528.413941 212.072313 
" clip-path="url(#p974dc5beb9)" style="fill: none; stroke: #f29888; stroke-width: 0.2"/>
    <path d="M 439.877866 187.210429 
L 438.647892 184.507172 
L 428.33442 189.195671 
L 430.058595 192.987839 
" clip-path="url(#p974dc5beb9)" style="fill: none; stroke: #f29888; stroke-width: 0.2"/>
    <path d="M 607.403895 304.36109 
L 615.450046 312.979655 
L 617.017908 319.035236 
L 608.258088 322.171205 
" clip-path="url(#p974dc5beb9)" style="fill: none; stroke: #f29888; stroke-width: 0.2"/>
    <path d="M 711.454387 308.272135 
L 709.67495 304.546538 
L 703.322976 298.445783 
L 699.342531 291.163393 
L 695.507481 283.093038 
" clip-path="url(#p974dc5beb9)" style="fill: none; stroke: #f29888; stroke-width: 0.2"/>
    <path d="M 711.454387 308.272135 
L 712.716682 308.948751 
" clip-path="url(#p974dc5beb9)" style="fill: none; stroke: #f29888; stroke-width: 0.2"/>
    <path d="M 638.179903 186.180574 
L 638.142211 183.147221 
L 633.992822 174.424045 
L 631.536031 170.358461 
L 629.333444 170.189656 
L 624.675645 172.305662 
L 621.516237 171.116894 
" clip-path="url(#p974dc5beb9)" style="fill: none; stroke: #f29888; stroke-width: 0.2"/>
    <path d="M 425.806577 147.91453 
L 443.365689 185.43441 
L 460.537968 222.961423 
" clip-path="url(#p974dc5beb9)" style="fill: none; stroke: #f29888; stroke-width: 0.2"/>
    <path d="M 532.659643 143.727691 
L 505.268627 156.395197 
L 502.923938 157.619628 
L 443.365689 185.43441 
L 439.877866 187.210429 
L 440.907319 189.407271 
L 430.73437 194.274085 
L 430.058595 192.987839 
L 415.028904 200.505605 
L 396.568231 207.873586 
" clip-path="url(#p974dc5beb9)" style="fill: none; stroke: #f29888; stroke-width: 0.2"/>
    <path d="M 556.068635 152.740926 
L 575.369291 193.615508 
" clip-path="url(#p974dc5beb9)" style="fill: none; stroke: #f29888; stroke-width: 0.2"/>
    <path d="M 528.413941 212.072313 
L 520.418316 195.59124 
L 515.07211 183.527627 
L 502.923938 157.619628 
L 485.773765 121.067404 
" clip-path="url(#p974dc5beb9)" style="fill: none; stroke: #f29888; stroke-width: 0.2"/>
    <path d="M 515.766832 106.959111 
L 516.810495 109.339024 
L 520.282529 117.044615 
L 532.659643 143.727691 
L 540.175278 160.679515 
L 551.622411 185.900407 
L 558.234906 201.703882 
" clip-path="url(#p974dc5beb9)" style="fill: none; stroke: #f29888; stroke-width: 0.2"/>
    <path d="M 344.383514 191.849 
L 344.298253 187.486223 
L 345.569279 186.005019 
L 361.66158 178.045031 
L 377.818616 170.444052 
L 405.028057 157.379497 
L 425.806577 147.91453 
L 485.773765 121.067404 
L 513.692138 107.933901 
L 515.766832 106.959111 
" clip-path="url(#p974dc5beb9)" style="fill: none; stroke: #f29888; stroke-width: 0.2"/>
    <path d="M 540.175278 160.679515 
L 556.068635 152.740926 
L 581.609163 141.271697 
L 602.567679 132.669775 
" clip-path="url(#p974dc5beb9)" style="fill: none; stroke: #f29888; stroke-width: 0.2"/>
    <path d="M 548.191429 136.73536 
L 556.068635 152.740926 
" clip-path="url(#p974dc5beb9)" style="fill: none; stroke: #f29888; stroke-width: 0.2"/>
    <path d="M 543.083639 138.715847 
L 532.659643 143.727691 
" clip-path="url(#p974dc5beb9)" style="fill: none; stroke: #f29888; stroke-width: 0.2"/>
    <path d="M 548.191429 136.73536 
L 543.083639 138.715847 
" clip-path="url(#p974dc5beb9)" style="fill: none; stroke: #f29888; stroke-width: 0.2"/>
    <path d="M 600.958765 184.162429 
L 603.737655 189.428669 
L 605.938662 192.731065 
L 608.395454 197.643053 
L 610.047423 198.539785 
" clip-path="url(#p974dc5beb9)" style="fill: none; stroke: #f29888; stroke-width: 0.2"/>
    <path d="M 617.229483 163.309069 
L 605.787086 167.902467 
L 605.761824 171.285699 
L 606.439178 177.044089 
L 605.532881 180.436832 
L 600.958765 184.162429 
" clip-path="url(#p974dc5beb9)" style="fill: none; stroke: #f29888; stroke-width: 0.2"/>
    <path d="M 550.799796 89.362975 
L 553.924469 87.779536 
L 556.635466 88.288329 
L 558.100699 90.07148 
L 573.829849 124.027435 
L 581.609163 141.271697 
L 600.958765 184.162429 
" clip-path="url(#p974dc5beb9)" style="fill: none; stroke: #f29888; stroke-width: 0.2"/>
    <path d="M 573.829849 124.027435 
L 562.42061 129.112983 
L 550.817164 134.448171 
L 548.191429 136.73536 
" clip-path="url(#p974dc5beb9)" style="fill: none; stroke: #f29888; stroke-width: 0.2"/>
    <path d="M 553.924469 87.779536 
L 574.930353 78.633159 
L 576.963995 79.141951 
L 602.567679 132.669775 
L 617.229483 163.309069 
L 621.516237 171.116894 
" clip-path="url(#p974dc5beb9)" style="fill: none; stroke: #f29888; stroke-width: 0.2"/>
    <path d="M 392.474648 95.345704 
L 393.487768 98.243068 
L 394.842477 102.223062 
L 396.536652 105.442244 
L 397.130324 108.238225 
L 394.673533 110.777433 
L 385.950028 116.535822 
L 379.342269 120.813008 
" clip-path="url(#p974dc5beb9)" style="fill: none; stroke: #f29888; stroke-width: 0.2"/>
    <path d="M 485.773765 121.067404 
L 480.812814 109.591043 
L 476.747108 99.93825 
L 470.055667 84.693496 
L 467.429931 78.171917 
L 468.277809 75.715923 
L 473.783485 72.244722 
L 490.892607 64.536754 
L 495.921451 62.142576 
L 503.512874 58.526345 
" clip-path="url(#p974dc5beb9)" style="fill: none; stroke: #f29888; stroke-width: 0.2"/>
    <path d="M 513.692138 107.933901 
L 509.779587 99.08947 
L 506.053348 90.620691 
L 504.359172 84.779087 
L 500.463989 75.123917 
L 495.973555 65.891949 
L 495.921451 62.142576 
L 494.873051 59.879163 
L 493.264137 55.221571 
L 489.269538 50.063787 
" clip-path="url(#p974dc5beb9)" style="fill: none; stroke: #f29888; stroke-width: 0.2"/>
    <path d="M 515.766832 106.959111 
L 548.428266 92.063854 
L 550.799796 89.362975 
L 550.795059 86.14617 
L 532.332807 48.871175 
L 531.740714 45.970583 
L 533.101739 42.06667 
L 536.000627 38.930701 
L 540.202119 37.332998 
L 582.810717 27.746777 
L 584.098269 27.093763 
" clip-path="url(#p974dc5beb9)" style="fill: none; stroke: #f29888; stroke-width: 0.2"/>
    <path d="M 475.012366 56.159306 
L 472.851925 60.896748 
L 473.783485 72.244722 
" clip-path="url(#p974dc5beb9)" style="fill: none; stroke: #f29888; stroke-width: 0.2"/>
    <path d="M 377.818616 261.282533 
L 374.261321 268.736105 
L 370.965418 272.469648 
" clip-path="url(#p974dc5beb9)" style="fill: none; stroke: #f29888; stroke-width: 0.2"/>
    <path d="M 345.886641 247.813797 
L 347.24135 251.624986 
L 352.578082 257.723363 
L 356.473266 262.383332 
L 358.421647 266.786526 
L 359.607412 271.275313 
L 359.269524 274.32569 
L 358.375343 276.95728 
" clip-path="url(#p974dc5beb9)" style="fill: none; stroke: #f29888; stroke-width: 0.2"/>
    <path d="M 293.05457 254.951157 
L 288.799394 252.133778 
L 287.070482 257.51414 
L 284.056334 268.310526 
L 282.976356 273.329503 
L 288.376245 270.768898 
L 296.798177 267.029035 
" clip-path="url(#p974dc5beb9)" style="fill: none; stroke: #f29888; stroke-width: 0.2"/>
    <path d="M 297.882098 267.832508 
L 296.798177 267.029035 
L 289.159387 259.439943 
L 287.070482 257.51414 
L 285.939979 256.475157 
L 283.399505 253.847981 
L 280.859031 251.308773 
L 278.624866 249.90365 
" clip-path="url(#p974dc5beb9)" style="fill: none; stroke: #f29888; stroke-width: 0.2"/>
    <path d="M 345.209287 250.692992 
L 343.769316 251.413385 
L 341.568309 251.624986 
L 330.471695 252.388174 
L 295.999246 255.436174 
L 293.05457 254.951157 
" clip-path="url(#p974dc5beb9)" style="fill: none; stroke: #f29888; stroke-width: 0.2"/>
    <path d="M 290.428834 244.532799 
L 288.565715 248.427201 
L 283.907916 249.359195 
L 278.624866 249.90365 
L 275.691242 250.207975 
" clip-path="url(#p974dc5beb9)" style="fill: none; stroke: #f29888; stroke-width: 0.2"/>
    <path d="M 275.691242 250.207975 
L 281.196919 244.870408 
L 286.617334 239.789616 
L 290.005685 237.333622 
" clip-path="url(#p974dc5beb9)" style="fill: none; stroke: #f29888; stroke-width: 0.2"/>
    <path d="M 377.818616 261.282533 
L 375.107619 258.06335 
L 355.325394 216.278172 
" clip-path="url(#p974dc5beb9)" style="fill: none; stroke: #f29888; stroke-width: 0.2"/>
    <path d="M 112.785453 372.483947 
L 109.137825 365.910717 
" clip-path="url(#p974dc5beb9)" style="fill: none; stroke: #f29888; stroke-width: 0.2"/>
    <path d="M 297.435351 269.563588 
L 296.251872 269.836904 
L 295.405574 271.95291 
L 295.582218 276.744216 
" clip-path="url(#p974dc5beb9)" style="fill: none; stroke: #f29888; stroke-width: 0.2"/>
    <path d="M 121.749381 329.778115 
L 118.638156 329.891061 
L 114.826655 330.823055 
L 103.815303 327.518281 
L 101.189567 327.518281 
L 98.394888 328.28147 
L 94.842329 331.096472 
L 89.755066 335.651829 
L 82.89468 342.087816 
L 81.45471 344.54381 
L 81.115243 349.62698 
L 80.504245 355.824711 
" clip-path="url(#p974dc5beb9)" style="fill: none; stroke: #f29888; stroke-width: 0.2"/>
    <path d="M 125.181179 300.858981 
L 124.036466 305.559368 
L 123.275429 317.332921 
L 123.627696 324.57407 
" clip-path="url(#p974dc5beb9)" style="fill: none; stroke: #f29888; stroke-width: 0.2"/>
    <path d="M 107.742064 239.953666 
L 107.239969 241.962683 
L 101.983762 250.731032 
L 99.288554 265.85691 
L 97.531222 271.379924 
L 95.731259 274.268629 
L 91.506082 276.192055 
L 90.836622 278.327081 
L 93.179732 312.765676 
L 93.555514 320.13128 
L 94.476021 328.709426 
L 94.842329 331.096472 
L 95.104429 332.810674 
L 96.149671 336.57669 
L 106.862609 360.221276 
L 109.137825 365.910717 
" clip-path="url(#p974dc5beb9)" style="fill: none; stroke: #f29888; stroke-width: 0.2"/>
    <path d="M 64.069278 277.69228 
L 61.614065 278.961883 
L 50.222709 281.64621 
" clip-path="url(#p974dc5beb9)" style="fill: none; stroke: #f29888; stroke-width: 0.2"/>
    <path d="M 125.181179 300.858981 
L 136.869886 297.639799 
L 144.153421 296.962201 
L 168.885544 294.083006 
L 174.645425 292.896616 
L 201.409612 286.967044 
L 207.677904 284.51105 
L 219.706078 282.223861 
L 231.817934 281.206276 
L 247.570768 280.191069 
L 263.241498 279.173484 
L 272.727619 277.90388 
L 278.487501 276.71749 
L 282.976356 273.329503 
L 290.768301 272.397509 
L 295.405574 271.95291 
" clip-path="url(#p974dc5beb9)" style="fill: none; stroke: #f29888; stroke-width: 0.2"/>
    <path d="M 174.645425 292.896616 
L 172.611783 291.45583 
L 166.34507 268.331924 
" clip-path="url(#p974dc5beb9)" style="fill: none; stroke: #f29888; stroke-width: 0.2"/>
    <path d="M 64.069278 277.69228 
L 68.854969 277.395088 
L 81.729441 275.785497 
L 88.929293 275.533478 
L 91.506082 276.192055 
" clip-path="url(#p974dc5beb9)" style="fill: none; stroke: #f29888; stroke-width: 0.2"/>
    <path d="M 275.691242 250.207975 
L 266.25091 251.178009 
L 235.588383 254.057204 
L 205.097957 256.938776 
L 193.786611 259.523157 
L 192.431902 261.641541 
L 179.896896 265.198333 
L 166.34507 268.331924 
L 151.607478 269.687119 
L 140.765069 270.704704 
L 124.164358 271.636698 
L 112.221446 271.805503 
L 105.530004 273.075107 
L 95.731259 274.268629 
" clip-path="url(#p974dc5beb9)" style="fill: none; stroke: #f29888; stroke-width: 0.2"/>
    <path d="M 201.409612 286.967044 
L 197.006018 271.891094 
L 193.786611 259.523157 
L 192.008753 244.192811 
L 191.160875 230.640861 
" clip-path="url(#p974dc5beb9)" style="fill: none; stroke: #f29888; stroke-width: 0.2"/>
    <path d="M 107.239969 241.962683 
L 109.426766 254.951157 
L 110.189382 263.082327 
L 112.221446 271.805503 
" clip-path="url(#p974dc5beb9)" style="fill: none; stroke: #f29888; stroke-width: 0.2"/>
    <path d="M 106.722085 230.595688 
L 99.050138 240.001217 
L 97.013337 241.796256 
L 94.052872 244.404412 
L 88.378252 246.522795 
L 74.741164 248.301192 
L 71.875433 248.405803 
L 67.711835 248.555588 
L 62.79983 249.741978 
L 61.528804 251.857984 
L 61.783009 256.855563 
L 64.069278 277.69228 
" clip-path="url(#p974dc5beb9)" style="fill: none; stroke: #f29888; stroke-width: 0.2"/>
    <path d="M 101.983762 250.731032 
L 99.582232 243.27746 
L 97.013337 241.796256 
L 91.822834 238.394374 
" clip-path="url(#p974dc5beb9)" style="fill: none; stroke: #f29888; stroke-width: 0.2"/>
    <path d="M 345.823485 220.139289 
L 339.210989 223.822091 
L 333.965834 226.744081 
L 328.714363 229.794459 
L 325.558112 230.027457 
L 314.568864 232.081648 
L 296.188716 233.605647 
L 289.920424 233.013641 
L 281.196919 227.847258 
L 273.742861 224.288088 
L 264.510946 223.61049 
L 251.129642 224.882471 
L 191.160875 230.640861 
L 159.822572 233.520056 
L 147.117044 235.215239 
L 119.759186 238.940836 
L 107.742064 239.953666 
" clip-path="url(#p974dc5beb9)" style="fill: none; stroke: #f29888; stroke-width: 0.2"/>
    <path d="M 71.875433 248.405803 
L 70.845981 244.998795 
L 71.862802 240.678814 
L 70.973926 237.301874 
" clip-path="url(#p974dc5beb9)" style="fill: none; stroke: #f29888; stroke-width: 0.2"/>
    <path d="M 339.210989 223.822091 
L 337.33208 227.062671 
L 336.484203 230.027457 
L 337.417342 234.347438 
L 339.70361 238.073036 
L 344.023522 243.833803 
L 345.886641 247.813797 
L 345.209287 250.692992 
" clip-path="url(#p974dc5beb9)" style="fill: none; stroke: #f29888; stroke-width: 0.2"/>
    <path d="M 345.823485 220.139289 
L 349.824455 217.956712 
L 355.325394 216.278172 
" clip-path="url(#p974dc5beb9)" style="fill: none; stroke: #f29888; stroke-width: 0.2"/>
    <path d="M 396.568231 207.873586 
L 360.580023 215.077517 
L 355.325394 216.278172 
" clip-path="url(#p974dc5beb9)" style="fill: none; stroke: #f29888; stroke-width: 0.2"/>
    <path d="M 355.325394 216.278172 
L 353.635955 212.283913 
L 349.063418 202.457561 
L 345.166656 194.497574 
L 344.383514 191.849 
" clip-path="url(#p974dc5beb9)" style="fill: none; stroke: #f29888; stroke-width: 0.2"/>
    <path d="M 296.251872 269.836904 
L 296.798177 267.029035 
L 297.120275 265.367138 
L 295.4261 260.031949 
L 293.05457 254.951157 
L 290.428834 244.532799 
L 290.005685 237.333622 
L 289.920424 233.013641 
L 289.582536 226.575276 
L 289.922002 218.698503 
L 291.868804 208.280144 
L 291.445655 200.320157 
L 290.345152 190.325 
L 289.32833 173.72505 
L 288.482032 164.535877 
L 288.650976 160.301487 
L 288.311509 151.832708 
L 287.274162 145.289731 
L 285.622617 141.604552 
L 284.733688 135.888958 
L 284.648427 130.468178 
L 284.691057 126.233788 
" clip-path="url(#p974dc5beb9)" style="fill: none; stroke: #f29888; stroke-width: 0.2"/>
    <path d="M 325.960735 191.130984 
L 324.797075 194.877979 
" clip-path="url(#p974dc5beb9)" style="fill: none; stroke: #f29888; stroke-width: 0.2"/>
    <path d="M 324.694445 197.985418 
L 326.003366 195.365374 
L 325.622847 193.120981 
L 325.960735 191.130984 
L 328.460157 189.647402 
L 335.363173 186.979808 
L 339.428879 185.455808 
L 344.298253 187.486223 
" clip-path="url(#p974dc5beb9)" style="fill: none; stroke: #f29888; stroke-width: 0.2"/>
    <path d="M 280.011154 191.002597 
L 279.122224 187.4886 
L 279.207486 181.982229 
L 277.51331 173.936651 
L 275.14178 169.956657 
L 272.817617 167.769325 
" clip-path="url(#p974dc5beb9)" style="fill: none; stroke: #f29888; stroke-width: 0.2"/>
    <path d="M 306.184826 124.633707 
L 317.639854 147.110923 
L 320.815051 155.917313 
L 322.678171 160.068489 
L 323.186582 165.192077 
L 325.049701 170.910049 
L 325.220224 173.958049 
L 324.288664 178.446835 
L 324.203403 186.915615 
L 324.797075 194.877979 
L 324.694445 197.985418 
L 324.542869 202.585948 
L 325.049701 220.455501 
L 325.558112 230.027457 
" clip-path="url(#p974dc5beb9)" style="fill: none; stroke: #f29888; stroke-width: 0.2"/>
    <path d="M 339.428879 185.455808 
L 336.654726 183.782023 
L 335.595274 180.98842 
L 334.537401 176.582847 
L 331.602198 172.85725 
L 329.666448 170.401256 
L 326.151784 167.353256 
L 323.186582 165.192077 
" clip-path="url(#p974dc5beb9)" style="fill: none; stroke: #f29888; stroke-width: 0.2"/>
    <path d="M 290.345152 190.325 
L 285.771035 191.256993 
L 280.011154 191.002597 
L 271.287649 190.748201 
L 251.552791 191.002597 
L 243.081913 191.765786 
L 235.458912 192.612188 
L 215.215644 194.390585 
L 211.149938 194.136188 
L 205.306374 192.274578 
L 202.341172 193.03539 
L 197.514429 195.576975 
L 185.486255 197.609767 
L 180.743195 197.26978 
L 176.593806 195.831371 
L 170.748663 191.680195 
L 168.122928 179.400226 
L 167.191368 176.223839 
" clip-path="url(#p974dc5beb9)" style="fill: none; stroke: #f29888; stroke-width: 0.2"/>
    <path d="M 115.526563 179.510631 
L 118.70447 179.692663 
L 122.301239 180.120619 
L 130.939482 180.120619 
L 148.302809 178.342223 
L 154.740045 178.002236 
L 167.191368 176.223839 
L 177.271161 175.715047 
L 188.366196 175.886229 
L 195.903936 175.208632 
L 204.460075 174.022242 
L 218.689257 173.004657 
L 226.481202 173.004657 
L 237.153087 172.072663 
L 256.887945 169.787852 
L 271.118705 167.923865 
L 272.817617 167.769325 
L 282.299001 166.90628 
L 288.482032 164.535877 
" clip-path="url(#p974dc5beb9)" style="fill: none; stroke: #f29888; stroke-width: 0.2"/>
    <path d="M 105.668138 218.063728 
L 105.899471 219.409386 
L 106.722085 230.595688 
L 106.905239 233.0921 
L 107.742064 239.953666 
" clip-path="url(#p974dc5beb9)" style="fill: none; stroke: #f29888; stroke-width: 0.2"/>
    <path d="M 331.602198 172.85725 
L 331.741143 166.292876 
L 333.351636 159.516901 
L 335.383699 156.554492 
L 336.784197 155.788926 
L 341.735674 153.080913 
L 349.443936 152.657712 
L 357.575348 154.5217 
L 362.233147 153.927316 
L 366.129909 152.488907 
L 370.872969 146.39053 
" clip-path="url(#p974dc5beb9)" style="fill: none; stroke: #f29888; stroke-width: 0.2"/>
    <path d="M 288.311509 151.832708 
L 291.022506 148.44472 
L 296.611865 147.850336 
L 314.58939 145.246936 
L 317.639854 147.110923 
" clip-path="url(#p974dc5beb9)" style="fill: none; stroke: #f29888; stroke-width: 0.2"/>
    <path d="M 377.818616 170.444052 
L 373.328182 159.264882 
L 370.44982 152.488907 
L 370.872969 146.39053 
L 372.398201 136.39775 
L 374.261321 128.944178 
L 379.342269 120.813008 
" clip-path="url(#p974dc5beb9)" style="fill: none; stroke: #f29888; stroke-width: 0.2"/>
    <path d="M 348.555007 119.162999 
L 347.835022 121.65941 
L 346.012954 127.503392 
L 345.124025 134.956964 
L 343.93826 141.816152 
L 341.058319 148.211722 
L 336.784197 155.788926 
" clip-path="url(#p974dc5beb9)" style="fill: none; stroke: #f29888; stroke-width: 0.2"/>
    <path d="M 372.398201 136.39775 
L 370.279297 133.68736 
L 367.94724 129.688346 
L 360.624233 125.979392 
L 357.120621 123.794437 
L 348.555007 119.162999 
L 344.361409 117.044615 
L 339.575718 115.435024 
" clip-path="url(#p974dc5beb9)" style="fill: none; stroke: #f29888; stroke-width: 0.2"/>
    <path d="M 354.632251 114.398418 
L 351.94178 116.87581 
L 348.555007 119.162999 
" clip-path="url(#p974dc5beb9)" style="fill: none; stroke: #f29888; stroke-width: 0.2"/>
    <path d="M 357.120621 123.794437 
L 355.118557 119.120203 
L 354.378045 116.685607 
L 354.632251 114.398418 
L 355.201734 112.582613 
" clip-path="url(#p974dc5beb9)" style="fill: none; stroke: #f29888; stroke-width: 0.2"/>
   </g>
  </g>
 </g>
 <defs>
  <clipPath id="p974dc5beb9">
   <rect x="7.2" y="7.2" width="837" height="410.91675"/>
  </clipPath>
 </defs>
</svg>
