<?xml version="1.0" encoding="utf-8" standalone="no"?>
<!DOCTYPE svg PUBLIC "-//W3C//DTD SVG 1.1//EN"
  "http://www.w3.org/Graphics/SVG/1.1/DTD/svg11.dtd">
<svg xmlns:xlink="http://www.w3.org/1999/xlink" width="851.4pt" height="411.530321pt" viewBox="0 0 851.4 411.530321" xmlns="http://www.w3.org/2000/svg" version="1.1">
 <metadata>
  <rdf:RDF xmlns:dc="http://purl.org/dc/elements/1.1/" xmlns:cc="http://creativecommons.org/ns#" xmlns:rdf="http://www.w3.org/1999/02/22-rdf-syntax-ns#">
   <cc:Work>
    <dc:type rdf:resource="http://purl.org/dc/dcmitype/StillImage"/>
    <dc:date>2025-03-16T14:30:04.436048</dc:date>
    <dc:format>image/svg+xml</dc:format>
    <dc:creator>
     <cc:Agent>
      <dc:title>Matplotlib v3.10.1, https://matplotlib.org/</dc:title>
     </cc:Agent>
    </dc:creator>
   </cc:Work>
  </rdf:RDF>
 </metadata>
 <defs>
  <style type="text/css">*{stroke-linejoin: round; stroke-linecap: butt}</style>
 </defs>
 <g id="figure_1">
  <g id="patch_1">
   <path d="M 0 411.530321 
L 851.4 411.530321 
L 851.4 0 
L 0 0 
z
" style="fill: #ffffff"/>
  </g>
  <g id="axes_1">
   <g id="PatchCollection_1">
    <path d="M 62.84293 85.591743 
L 45.245455 110.60475 
L 134.26167 184.557737 
L 137.136652 211.7443 
L 138.006595 225.382214 
L 141.015645 258.189377 
L 146.155855 314.231723 
L 180.43121 354.217127 
L 220.372117 337.548732 
L 276.818106 305.156642 
L 305.292847 310.205958 
L 352.538892 332.686868 
L 430.615277 348.065412 
L 456.596381 347.150465 
L 483.589439 360.123368 
L 512.302521 380.512547 
L 549.184725 386.278943 
L 568.006675 369.832218 
L 576.233395 354.910404 
L 605.083523 348.644134 
L 646.632236 343.057752 
L 721.802853 334.650656 
L 767.256378 334.768186 
L 779.127723 333.17484 
L 792.455924 326.494985 
L 806.154545 309.908414 
L 803.752272 262.308868 
L 788.725894 205.25041 
L 757.715805 167.310619 
L 755.173506 102.999534 
L 736.31084 96.319679 
L 709.037731 82.486875 
L 673.383974 25.251378 
L 588.102754 56.51429 
L 579.743953 76.266725 
L 595.071235 100.187747 
L 565.162478 163.368166 
L 462.832958 175.808466 
L 421.236577 84.548853 
L 332.814227 87.777201 
L 320.287446 65.58342 
L 198.177648 78.462597 
L 127.265382 81.573416 
L 116.047488 107.255896 
L 92.426948 94.323161 
L 62.84293 85.591743 
" clip-path="url(#pf34826c7e4)" style="fill: #f29888"/>
   </g>
   <g id="PatchCollection_2">
    <path d="M 424.122484 320.01746 
L 416.383368 320.075481 
L 416.370458 318.345264 
L 424.109574 318.287243 
L 424.122484 320.01746 
" clip-path="url(#pf34826c7e4)" style="fill: #f29888"/>
    <path d="M 425.370792 318.120619 
L 432.68586 317.977798 
L 432.719625 319.675284 
L 425.404557 319.818105 
L 425.370792 318.120619 
" clip-path="url(#pf34826c7e4)" style="fill: #f29888"/>
    <path d="M 434.106966 312.6235 
L 430.8705 312.683009 
L 430.853617 311.763599 
L 434.090083 311.70409 
L 434.106966 312.6235 
" clip-path="url(#pf34826c7e4)" style="fill: #f29888"/>
    <path d="M 651.972057 259.66073 
L 651.875728 262.515661 
L 649.385069 262.432349 
L 649.481399 259.57593 
L 651.972057 259.66073 
" clip-path="url(#pf34826c7e4)" style="fill: #f29888"/>
    <path d="M 641.239782 259.098372 
L 640.214917 261.263003 
L 634.357699 258.489896 
L 635.382563 256.325266 
L 641.239782 259.098372 
" clip-path="url(#pf34826c7e4)" style="fill: #f29888"/>
    <path d="M 648.737578 257.354767 
L 648.597552 258.775538 
L 640.316212 257.957293 
L 640.456237 256.538009 
L 648.737578 257.354767 
" clip-path="url(#pf34826c7e4)" style="fill: #f29888"/>
    <path d="M 640.761115 251.04089 
L 642.625136 251.156932 
L 642.344093 255.652817 
L 640.480071 255.535287 
L 640.761115 251.04089 
" clip-path="url(#pf34826c7e4)" style="fill: #f29888"/>
    <path d="M 638.41644 250.576722 
L 640.232793 250.68235 
L 639.959694 255.382052 
L 638.142348 255.276424 
L 638.41644 250.576722 
" clip-path="url(#pf34826c7e4)" style="fill: #f29888"/>
    <path d="M 660.780726 251.319094 
L 660.574164 253.430166 
L 655.477649 252.93178 
L 655.684211 250.820708 
L 660.780726 251.319094 
" clip-path="url(#pf34826c7e4)" style="fill: #f29888"/>
    <path d="M 647.546868 250.91741 
L 647.365133 252.387275 
L 644.588466 252.0451 
L 644.770201 250.575235 
L 647.546868 250.91741 
" clip-path="url(#pf34826c7e4)" style="fill: #f29888"/>
    <path d="M 677.385116 266.657469 
L 677.268925 268.604892 
L 671.958897 268.288008 
L 672.075088 266.340585 
L 677.385116 266.657469 
" clip-path="url(#pf34826c7e4)" style="fill: #f29888"/>
    <path d="M 663.809637 265.386958 
L 663.728204 267.018984 
L 669.612236 267.313553 
L 669.502996 269.504962 
L 661.813535 269.12113 
L 662.0052 265.297694 
L 663.809637 265.386958 
" clip-path="url(#pf34826c7e4)" style="fill: #f29888"/>
    <path d="M 667.758145 254.49686 
L 667.666781 256.411553 
L 662.787752 256.177982 
L 662.879116 254.263288 
L 667.758145 254.49686 
" clip-path="url(#pf34826c7e4)" style="fill: #f29888"/>
    <path d="M 690.453129 251.766897 
L 688.900936 251.426209 
L 689.033016 250.822196 
L 690.585209 251.162883 
L 690.453129 251.766897 
" clip-path="url(#pf34826c7e4)" style="fill: #f29888"/>
    <path d="M 673.048312 244.610972 
L 672.883459 246.452767 
L 668.543676 246.062985 
L 668.709521 244.222678 
L 673.048312 244.610972 
" clip-path="url(#pf34826c7e4)" style="fill: #f29888"/>
    <path d="M 666.527712 240.546526 
L 668.330162 240.756294 
L 667.836599 244.984389 
L 666.035141 244.774621 
L 666.527712 240.546526 
" clip-path="url(#pf34826c7e4)" style="fill: #f29888"/>
    <path d="M 700.447542 224.116165 
L 700.434631 226.590241 
L 699.402816 226.58429 
L 699.413739 224.111702 
L 700.447542 224.116165 
" clip-path="url(#pf34826c7e4)" style="fill: #f29888"/>
    <path d="M 670.602342 214.071092 
L 675.104992 216.060171 
L 674.28371 217.921307 
L 669.780067 215.932227 
L 670.602342 214.071092 
" clip-path="url(#pf34826c7e4)" style="fill: #f29888"/>
    <path d="M 690.48888 211.974897 
L 694.710486 213.780987 
L 693.633982 216.296718 
L 689.411382 214.490628 
L 690.48888 211.974897 
" clip-path="url(#pf34826c7e4)" style="fill: #f29888"/>
    <path d="M 681.329652 205.28314 
L 683.233397 206.125189 
L 681.264108 210.58388 
L 679.360363 209.741832 
L 681.329652 205.28314 
" clip-path="url(#pf34826c7e4)" style="fill: #f29888"/>
    <path d="M 622.792225 243.978692 
L 622.833934 246.54203 
L 608.519599 246.775602 
L 608.47789 244.212264 
L 622.792225 243.978692 
" clip-path="url(#pf34826c7e4)" style="fill: #f29888"/>
    <path d="M 654.317725 217.867749 
L 648.283737 215.320775 
L 649.154673 213.25731 
L 655.187668 215.805771 
L 654.317725 217.867749 
" clip-path="url(#pf34826c7e4)" style="fill: #f29888"/>
    <path d="M 644.779139 213.633703 
L 639.376753 211.30096 
L 640.258613 209.258323 
L 645.660999 211.592553 
L 644.779139 213.633703 
" clip-path="url(#pf34826c7e4)" style="fill: #f29888"/>
    <path d="M 645.238937 198.984141 
L 648.863699 200.564098 
L 648.190387 202.108349 
L 644.565625 200.528392 
L 645.238937 198.984141 
" clip-path="url(#pf34826c7e4)" style="fill: #f29888"/>
    <path d="M 636.831475 195.254431 
L 640.456237 196.835876 
L 639.782925 198.37864 
L 636.15717 196.798683 
L 636.831475 195.254431 
" clip-path="url(#pf34826c7e4)" style="fill: #f29888"/>
    <path d="M 661.520575 193.378418 
L 659.330821 198.41732 
L 657.672368 197.697265 
L 659.861129 192.658363 
L 661.520575 193.378418 
" clip-path="url(#pf34826c7e4)" style="fill: #f29888"/>
    <path d="M 664.527638 186.350437 
L 662.337884 191.387851 
L 660.679431 190.667796 
L 662.868192 185.628894 
L 664.527638 186.350437 
" clip-path="url(#pf34826c7e4)" style="fill: #f29888"/>
    <path d="M 670.279589 206.083532 
L 670.433517 206.160894 
L 669.00844 209.31932 
L 668.83465 209.241958 
L 668.430464 210.165831 
L 663.462057 208.00864 
L 664.097632 206.660767 
L 665.079793 207.084767 
L 666.023224 205.024277 
L 664.986443 204.576474 
L 665.56144 203.213724 
L 670.588439 205.299505 
L 670.279589 206.083532 
" clip-path="url(#pf34826c7e4)" style="fill: #f29888"/>
    <path d="M 673.497186 204.308685 
L 668.473166 202.087521 
L 669.204077 200.433178 
L 674.22909 202.654342 
L 673.497186 204.308685 
" clip-path="url(#pf34826c7e4)" style="fill: #f29888"/>
    <path d="M 668.822733 196.072676 
L 666.633972 201.111578 
L 664.975519 200.391522 
L 667.16428 195.352621 
L 668.822733 196.072676 
" clip-path="url(#pf34826c7e4)" style="fill: #f29888"/>
    <path d="M 671.673881 189.746898 
L 669.484128 194.7858 
L 667.826668 194.065744 
L 670.014435 189.026843 
L 671.673881 189.746898 
" clip-path="url(#pf34826c7e4)" style="fill: #f29888"/>
    <path d="M 675.930246 179.712239 
L 673.741485 184.749653 
L 672.083032 184.029597 
L 674.271793 178.990695 
L 675.930246 179.712239 
" clip-path="url(#pf34826c7e4)" style="fill: #f29888"/>
    <path d="M 665.576336 179.274849 
L 670.150488 181.272855 
L 669.39475 183.003071 
L 664.820598 181.006553 
L 665.576336 179.274849 
" clip-path="url(#pf34826c7e4)" style="fill: #f29888"/>
    <path d="M 678.742664 173.346292 
L 676.55291 178.385194 
L 674.894458 177.663651 
L 677.083218 172.626237 
L 678.742664 173.346292 
" clip-path="url(#pf34826c7e4)" style="fill: #f29888"/>
   </g>
   <g id="LineCollection_1">
    <path d="M 380.533538 338.200916 
L 380.700812 334.116566 
L 381.098046 332.291135 
L 382.096097 330.565382 
L 383.473506 328.841117 
L 385.418961 327.049904 
L 387.364416 325.733273 
L 388.74977 325.053386 
L 390.585985 324.732039 
L 395.845366 324.696334 
L 403.733444 324.48359 
L 420.089563 323.892966 
L 428.18619 323.326145 
L 434.831918 323.378215 
L 436.742615 323.288952 
L 438.373261 322.902145 
L 439.366347 322.374005 
L 440.849023 321.253754 
L 441.672291 320.716687 
L 442.636577 320.4608 
L 443.68031 320.441459 
L 444.75185 320.746442 
L 446.672477 320.910091 
L 454.321222 321.22995 
L 460.265832 321.566174 
L 462.677043 321.549809 
L 469.693193 320.944308 
L 490.575795 322.11663 
L 508.582422 321.051424 
L 537.669898 320.411705 
L 551.094428 320.944308 
L 555.031019 321.438231 
L 558.056951 322.205893 
L 560.009357 323.125303 
L 560.929947 323.66832 
L 563.240857 321.378722 
L 565.294558 319.21558 
L 567.719673 316.097322 
L 571.778414 310.394898 
L 573.578878 307.330198 
" clip-path="url(#pf34826c7e4)" style="fill: none; stroke: #f29888; stroke-width: 0.2"/>
    <path d="M 209.375681 308.922057 
L 213.94884 318.996885 
L 217.947002 328.928892 
L 220.166904 337.634372 
" clip-path="url(#pf34826c7e4)" style="fill: none; stroke: #f29888; stroke-width: 0.2"/>
    <path d="M 617.58945 319.289965 
L 615.153411 322.030342 
L 613.722375 323.897429 
L 612.727303 325.205133 
L 611.793802 326.137933 
L 609.553401 327.631602 
L 608.309065 328.005019 
L 606.007093 327.880051 
L 597.234175 327.258184 
L 583.607056 326.262901 
L 582.487848 325.639547 
L 580.870112 323.027114 
L 578.753847 320.475677 
L 577.385375 318.857039 
L 575.951359 317.073265 
" clip-path="url(#pf34826c7e4)" style="fill: none; stroke: #f29888; stroke-width: 0.2"/>
    <path d="M 443.68031 320.441459 
L 441.048634 313.67978 
L 440.28793 312.855584 
L 438.254091 312.886826 
L 431.492171 313.166517 
" clip-path="url(#pf34826c7e4)" style="fill: none; stroke: #f29888; stroke-width: 0.2"/>
    <path d="M 617.969801 319.307818 
L 620.168493 308.752457 
" clip-path="url(#pf34826c7e4)" style="fill: none; stroke: #f29888; stroke-width: 0.2"/>
    <path d="M 620.611409 319.432786 
L 617.969801 319.307818 
L 617.58945 319.289965 
L 593.684888 318.16525 
L 587.032208 317.927216 
L 580.458974 317.214598 
L 578.241414 317.373784 
L 577.133131 317.452633 
L 575.951359 317.073265 
L 574.836124 315.313295 
L 574.439883 313.334629 
L 574.281982 311.116441 
L 573.965188 308.898253 
L 573.578878 307.330198 
" clip-path="url(#pf34826c7e4)" style="fill: none; stroke: #f29888; stroke-width: 0.2"/>
    <path d="M 261.975706 313.6741 
L 251.786392 310.369607 
L 239.286424 306.589315 
L 234.926778 305.427407 
L 232.020017 305.427407 
L 229.694211 305.863308 
L 227.368404 306.880907 
L 225.145879 307.748247 
L 221.845856 307.940163 
L 217.255814 307.75271 
L 214.411617 307.349539 
L 212.881273 307.321272 
L 211.506842 307.612865 
L 209.375681 308.922057 
" clip-path="url(#pf34826c7e4)" style="fill: none; stroke: #f29888; stroke-width: 0.2"/>
    <path d="M 639.373774 311.525564 
L 624.883663 309.439783 
L 620.697807 308.829818 
L 620.168493 308.752457 
L 614.158339 307.876191 
L 604.022908 306.303673 
L 574.794415 302.972672 
" clip-path="url(#pf34826c7e4)" style="fill: none; stroke: #f29888; stroke-width: 0.2"/>
    <path d="M 620.697807 308.829818 
L 622.223187 294.88246 
" clip-path="url(#pf34826c7e4)" style="fill: none; stroke: #f29888; stroke-width: 0.2"/>
    <path d="M 691.519703 313.47745 
L 696.583446 314.15585 
L 724.387855 318.306584 
L 761.789442 323.754608 
L 765.057687 323.632615 
" clip-path="url(#pf34826c7e4)" style="fill: none; stroke: #f29888; stroke-width: 0.2"/>
    <path d="M 765.057687 323.632615 
L 766.424172 317.76803 
L 767.481808 313.66044 
L 768.041909 312.04329 
L 768.581154 310.856091 
" clip-path="url(#pf34826c7e4)" style="fill: none; stroke: #f29888; stroke-width: 0.2"/>
    <path d="M 688.751973 296.870051 
L 690.007233 296.694501 
L 691.19397 296.762936 
L 692.595214 296.987581 
L 694.007382 297.378851 
L 695.418556 297.972451 
L 697.699674 298.415791 
L 707.082346 299.949628 
L 719.802779 302.071114 
L 732.975065 304.551141 
L 745.547528 306.577413 
L 756.547937 308.245145 
L 768.581154 310.856091 
L 769.537495 311.064371 
" clip-path="url(#pf34826c7e4)" style="fill: none; stroke: #f29888; stroke-width: 0.2"/>
    <path d="M 769.537495 311.064371 
L 771.190983 302.999451 
L 771.516715 301.412055 
L 771.679581 299.864828 
L 771.679581 298.603243 
L 771.720298 297.991791 
L 771.773924 297.087258 
L 772.127463 296.038417 
L 773.55254 292.577984 
L 773.837556 291.070926 
L 773.878272 289.931333 
L 773.715406 289.15772 
L 773.03415 287.759265 
" clip-path="url(#pf34826c7e4)" style="fill: none; stroke: #f29888; stroke-width: 0.2"/>
    <path d="M 771.773924 297.087258 
L 769.911889 296.21248 
L 768.033964 295.516228 
L 766.003104 294.903288 
L 763.402213 294.413828 
L 754.762369 292.865114 
L 742.099535 290.904301 
L 717.165143 287.076402 
L 710.7945 286.320641 
L 705.179594 286.046901 
L 690.354813 284.01319 
L 686.154061 283.891197 
" clip-path="url(#pf34826c7e4)" style="fill: none; stroke: #f29888; stroke-width: 0.2"/>
    <path d="M 773.03415 287.759265 
L 765.510534 283.006005 
L 756.877641 278.888001 
L 752.601415 277.145883 
L 749.987614 276.512115 
L 738.504566 274.05738 
L 727.021517 272.234925 
L 718.230724 270.730842 
L 708.093307 269.622491 
L 704.767464 269.067573 
L 698.748372 267.642338 
L 695.897224 267.166269 
L 692.857389 266.397118 
L 690.318069 265.516389 
L 689.126366 265.153386 
L 687.623828 264.894523 
L 686.22457 264.894523 
L 682.838149 264.962958 
" clip-path="url(#pf34826c7e4)" style="fill: none; stroke: #f29888; stroke-width: 0.2"/>
    <path d="M 770.162146 270.65348 
L 738.066615 256.435357 
L 695.579436 237.614233 
" clip-path="url(#pf34826c7e4)" style="fill: none; stroke: #f29888; stroke-width: 0.2"/>
    <path d="M 744.478968 241.882497 
L 738.066615 256.435357 
" clip-path="url(#pf34826c7e4)" style="fill: none; stroke: #f29888; stroke-width: 0.2"/>
    <path d="M 770.162146 270.65348 
L 776.553645 256.410066 
L 782.095062 243.696025 
L 785.824098 235.598375 
L 790.869966 223.399085 
L 792.480304 219.50673 
" clip-path="url(#pf34826c7e4)" style="fill: none; stroke: #f29888; stroke-width: 0.2"/>
    <path d="M 677.754544 313.282559 
L 678.185543 317.927216 
L 677.868749 319.590485 
L 677.156706 321.491788 
L 676.126877 322.52129 
L 674.939146 322.759324 
L 665.594211 322.759324 
L 660.049815 322.204406 
" clip-path="url(#pf34826c7e4)" style="fill: none; stroke: #f29888; stroke-width: 0.2"/>
    <path d="M 691.653769 314.390909 
L 687.538423 314.145436 
L 680.219382 313.612833 
L 677.754544 313.282559 
L 674.206249 312.805002 
L 669.598332 312.358686 
L 663.614992 313.218587 
L 651.631429 313.160566 
L 647.425712 312.593746 
" clip-path="url(#pf34826c7e4)" style="fill: none; stroke: #f29888; stroke-width: 0.2"/>
    <path d="M 647.425712 312.593746 
L 645.106857 312.860047 
L 643.049184 312.860047 
L 641.35498 312.254546 
L 639.373774 311.525564 
" clip-path="url(#pf34826c7e4)" style="fill: none; stroke: #f29888; stroke-width: 0.2"/>
    <path d="M 641.766117 296.874514 
L 641.311284 300.168323 
L 641.148418 301.346596 
L 640.529726 306.639897 
L 639.84251 310.009579 
L 639.373774 311.525564 
" clip-path="url(#pf34826c7e4)" style="fill: none; stroke: #f29888; stroke-width: 0.2"/>
    <path d="M 649.315553 294.619134 
L 645.997655 296.914683 
L 641.311284 300.168323 
" clip-path="url(#pf34826c7e4)" style="fill: none; stroke: #f29888; stroke-width: 0.2"/>
    <path d="M 645.997655 296.914683 
L 647.250928 297.451749 
L 648.146692 297.808802 
L 650.177552 297.917405 
L 666.528705 297.554402 
L 673.79114 297.463651 
L 688.617907 296.288353 
" clip-path="url(#pf34826c7e4)" style="fill: none; stroke: #f29888; stroke-width: 0.2"/>
    <path d="M 576.568065 291.917437 
L 589.029303 292.41136 
L 601.541187 293.326306 
L 622.223187 294.88246 
L 623.965059 295.013379 
L 628.304843 295.452256 
L 638.834529 297.228591 
L 640.641944 297.279174 
L 641.766117 296.874514 
L 643.475217 296.020564 
L 644.397794 295.389772 
L 645.769245 294.760467 
L 647.265825 294.636986 
L 649.315553 294.619134 
L 651.279877 294.602769 
L 658.410231 294.445071 
L 678.338478 294.355807 
L 681.847049 294.671204 
L 684.80843 295.028256 
L 688.399428 295.117519 
" clip-path="url(#pf34826c7e4)" style="fill: none; stroke: #f29888; stroke-width: 0.2"/>
    <path d="M 616.770154 279.51433 
L 621.502207 284.548769 
L 625.148817 289.696274 
L 627.805321 292.100427 
L 630.010964 293.38284 
L 632.553263 294.220425 
L 635.499747 294.742614 
L 638.273435 294.854193 
L 641.407613 294.96726 
L 645.769245 294.760467 
" clip-path="url(#pf34826c7e4)" style="fill: none; stroke: #f29888; stroke-width: 0.2"/>
    <path d="M 685.829322 282.221977 
L 679.57487 283.235113 
L 661.147174 284.056334 
" clip-path="url(#pf34826c7e4)" style="fill: none; stroke: #f29888; stroke-width: 0.2"/>
    <path d="M 695.579436 237.614233 
L 680.059495 231.465494 
L 658.478754 221.976827 
L 654.008876 220.062133 
L 646.815957 216.060171 
L 645.898346 215.726922 
L 637.26744 211.9987 
L 609.41139 199.91694 
" clip-path="url(#pf34826c7e4)" style="fill: none; stroke: #f29888; stroke-width: 0.2"/>
    <path d="M 559.047057 288.895881 
L 555.624884 287.464697 
L 554.380548 287.030283 
L 553.384483 286.84283 
L 552.264283 286.84283 
L 550.646547 286.967799 
L 545.419937 287.589665 
L 543.678065 288.08805 
L 542.122893 288.772401 
L 540.193328 290.141102 
L 537.642091 292.755023 
" clip-path="url(#pf34826c7e4)" style="fill: none; stroke: #f29888; stroke-width: 0.2"/>
    <path d="M 489.110001 285.038228 
L 490.541037 285.163196 
L 492.28291 284.975744 
L 493.713946 284.664811 
L 495.207546 284.042945 
L 496.638583 282.985177 
L 497.385383 282.238342 
L 498.132183 281.989893 
L 498.753855 282.113374 
L 499.37652 282.549275 
L 500.12332 283.544559 
L 501.118392 285.038228 
L 502.238592 285.910031 
L 503.669628 286.71935 
L 505.100665 287.030283 
L 506.655837 287.030283 
L 513.376046 287.091279 
L 515.180483 286.84283 
L 516.798219 286.406929 
L 517.980984 285.910031 
L 520.033692 285.536614 
L 521.216457 285.411645 
L 521.963257 285.660094 
L 522.647493 286.095996 
L 523.331729 287.030283 
L 524.015965 288.522464 
L 524.762765 289.394267 
L 526.193801 290.141102 
L 527.748973 290.95042 
L 528.807603 291.447318 
L 530.48691 292.381605 
L 532.167211 293.003472 
L 533.909083 293.251921 
L 535.837655 293.065956 
L 537.642091 292.755023 
L 542.868701 291.697255 
L 550.149011 290.825452 
L 554.691384 290.26607 
L 557.055921 289.331783 
L 559.047057 288.895881 
L 561.224894 288.709917 
L 563.340166 289.269299 
L 567.38401 290.327066 
L 569.313575 290.700484 
L 570.619483 291.136385 
L 571.926384 291.820736 
L 573.54412 292.070672 
L 574.788456 292.008188 
L 576.568065 291.917437 
" clip-path="url(#pf34826c7e4)" style="fill: none; stroke: #f29888; stroke-width: 0.2"/>
    <path d="M 517.980984 285.910031 
L 519.349456 284.167913 
L 520.407092 282.860208 
L 521.216457 281.368027 
L 521.340592 280.310259 
L 521.464728 278.81659 
" clip-path="url(#pf34826c7e4)" style="fill: none; stroke: #f29888; stroke-width: 0.2"/>
    <path d="M 578.770729 284.230397 
L 577.215557 283.732011 
L 573.73082 282.363311 
L 567.695839 280.43374 
L 563.090901 279.251004 
L 555.873156 277.57137 
L 552.326847 276.824536 
L 550.086446 276.576087 
L 547.411074 276.513602 
L 542.620429 277.074472 
L 537.331256 277.447889 
L 533.722383 277.322921 
L 527.003166 277.322921 
L 525.696266 277.447889 
L 524.576065 277.821307 
L 523.082464 278.318205 
L 521.464728 278.81659 
L 519.909556 278.879074 
L 508.772102 278.007272 
L 500.434156 277.696338 
L 497.198683 277.260437 
L 491.722809 276.451118 
" clip-path="url(#pf34826c7e4)" style="fill: none; stroke: #f29888; stroke-width: 0.2"/>
    <path d="M 580.452023 262.707577 
L 581.01113 264.690705 
L 581.75793 267.926493 
L 581.94463 270.104512 
L 581.94463 273.527752 
L 581.632802 275.766768 
L 580.513594 279.500941 
L 578.895858 283.421078 
L 578.770729 284.230397 
L 579.346719 286.039462 
" clip-path="url(#pf34826c7e4)" style="fill: none; stroke: #f29888; stroke-width: 0.2"/>
    <path d="M 142.503739 274.413668 
L 143.497365 274.606348 
L 148.758733 271.793072 
L 152.887982 267.774745 
L 154.970483 265.94634 
L 162.351094 266.495308 
L 172.033678 268.651011 
L 173.824212 268.651011 
L 174.73785 267.847644 
L 175.175801 266.276613 
L 172.435878 258.091187 
" clip-path="url(#pf34826c7e4)" style="fill: none; stroke: #f29888; stroke-width: 0.2"/>
    <path d="M 182.770919 229.300864 
L 184.54457 229.887025 
L 188.32326 231.240848 
L 191.479286 231.974293 
L 193.560793 232.317956 
L 200.060538 232.539626 
L 201.707074 232.697324 
L 204.559216 233.82799 
L 207.162093 234.958656 
L 213.49202 238.987397 
L 214.854534 241.605781 
L 215.783069 244.535098 
L 215.753276 247.235307 
L 214.128588 253.758952 
L 213.747243 255.928045 
L 213.794911 258.086724 
L 216.112773 267.562002 
L 211.85045 278.642527 
L 207.19983 301.235017 
L 207.344821 303.386257 
L 209.375681 308.922057 
" clip-path="url(#pf34826c7e4)" style="fill: none; stroke: #f29888; stroke-width: 0.2"/>
    <path d="M 573.578878 307.330198 
L 574.279996 305.056965 
L 574.794415 302.972672 
L 576.056626 294.25613 
L 576.568065 291.917437 
L 577.548241 289.029776 
L 578.455921 286.996065 
L 579.346719 286.039462 
L 579.774739 285.579757 
L 581.49079 284.63952 
L 583.971518 284.261639 
L 588.543684 284.548769 
L 601.670288 285.863912 
L 604.653517 285.459252 
L 608.113427 284.181302 
L 616.770154 279.51433 
L 622.990842 276.56716 
L 624.516221 275.646263 
L 626.304768 273.695864 
L 627.318709 271.666616 
L 628.572976 268.02617 
L 628.751731 266.533988 
L 628.632561 265.279842 
L 628.274057 264.564249 
L 627.796383 264.027183 
L 627.199538 263.847169 
L 625.11108 263.728152 
L 608.816532 263.609134 
L 585.479022 262.773037 
L 580.452023 262.707577 
L 567.273778 262.535002 
L 544.653275 261.938427 
L 511.94501 261.161838 
L 501.200818 261.102329 
L 499.112359 261.280855 
L 497.320832 261.938427 
L 493.44184 264.205709 
L 489.204344 266.653006 
L 485.980789 268.38471 
L 483.355071 269.21932 
L 481.265619 269.518351 
L 479.176167 269.57786 
L 472.312952 268.741762 
L 461.270834 266.593497 
L 457.612307 265.909147 
L 454.944879 265.364642 
L 451.856383 264.652025 
L 448.53054 263.384489 
L 445.916739 261.72122 
L 444.015973 260.057951 
L 443.382385 258.870752 
L 443.06559 256.969448 
L 443.145037 254.514713 
L 444.729009 244.536586 
L 445.916739 235.824508 
L 446.27127 233.128763 
L 446.530466 231.004301 
L 446.583099 229.501705 
L 446.583099 227.325174 
L 446.375544 225.511645 
L 445.753873 222.195521 
L 445.338763 215.770066 
L 445.494677 213.904467 
L 445.857154 212.453942 
L 446.530466 211.107557 
L 447.618887 209.915895 
L 448.81059 209.085748 
L 449.743097 208.413299 
L 450.520683 207.4805 
L 451.193995 206.132627 
L 451.703448 204.777316 
" clip-path="url(#pf34826c7e4)" style="fill: none; stroke: #f29888; stroke-width: 0.2"/>
    <path d="M 173.947354 223.342552 
L 174.533275 224.653232 
L 175.341646 225.773484 
L 176.337711 226.645286 
L 177.892883 227.515602 
L 179.759884 227.951503 
L 181.56432 228.510885 
L 182.770919 229.300864 
L 183.492892 230.315487 
L 183.617028 231.560708 
L 182.808656 232.493507 
L 179.510619 235.418361 
L 173.53721 239.649432 
L 168.377137 240.75927 
L 165.635228 242.138384 
L 162.959856 243.880502 
L 159.911083 246.244487 
L 157.413473 248.391264 
L 155.784813 250.142309 
L 154.401445 251.769872 
L 153.790697 253.113282 
L 153.627831 254.172537 
L 153.627831 255.597771 
L 153.912846 257.143511 
" clip-path="url(#pf34826c7e4)" style="fill: none; stroke: #f29888; stroke-width: 0.2"/>
    <path d="M 645.898346 215.726922 
L 645.375983 216.525827 
L 644.583501 217.235468 
L 643.208077 217.579131 
L 639.839531 217.716001 
L 635.782777 217.854359 
L 632.139146 217.991229 
L 628.839123 217.716001 
L 624.438761 216.960241 
L 621.413822 216.34135 
L 617.632152 215.103568 
L 613.713437 213.865787 
L 610.89506 212.903233 
L 608.832421 212.079037 
L 606.288136 210.360722 
L 604.088452 208.916148 
L 602.094336 207.678366 
L 600.832124 206.907728 
L 599.894652 206.785735 
L 598.275922 206.553651 
L 595.797181 206.333469 
L 589.196141 206.196599 
L 573.589802 206.058241 
L 560.870362 206.058241 
L 548.357484 205.852936 
L 533.369838 205.921371 
L 529.725214 206.128164 
L 522.506475 206.81549 
L 519.206452 206.95236 
L 493.011834 205.989806 
L 467.710994 205.095687 
L 456.849618 204.9246 
L 451.703448 204.777316 
L 442.739858 203.893611 
L 435.171553 203.634748 
L 364.211619 204.274467 
L 344.607118 218.763355 
L 302.840919 220.255537 
L 286.219647 224.090874 
L 266.828658 224.090874 
L 241.257699 224.303618 
L 221.01365 225.368824 
L 205.457958 225.581568 
L 192.145647 224.647281 
L 187.673782 224.034341 
L 183.934815 223.663899 
L 176.719056 223.370819 
L 175.013928 223.48091 
L 173.947354 223.342552 
L 173.253187 223.192292 
L 172.385231 222.747465 
L 171.006828 221.86376 
L 167.719715 219.919312 
L 166.235052 218.92998 
L 164.78614 217.552352 
L 163.973796 216.509462 
L 163.301477 215.396649 
L 162.559642 213.911906 
L 162.276613 212.639907 
" clip-path="url(#pf34826c7e4)" style="fill: none; stroke: #f29888; stroke-width: 0.2"/>
    <path d="M 660.740009 199.292099 
L 660.597998 199.713123 
L 659.489715 203.546973 
L 658.554228 206.781272 
L 658.48074 207.24544 
L 658.564159 207.633735 
L 658.876981 207.864331 
L 658.127201 209.810267 
L 654.008876 220.062133 
" clip-path="url(#pf34826c7e4)" style="fill: none; stroke: #f29888; stroke-width: 0.2"/>
    <path d="M 658.876981 207.864331 
L 671.997627 213.502783 
L 672.675904 213.773548 
L 673.08307 213.773548 
L 675.693891 206.891363 
L 675.659133 206.485216 
L 675.185432 206.146017 
L 660.597998 199.713123 
" clip-path="url(#pf34826c7e4)" style="fill: none; stroke: #f29888; stroke-width: 0.2"/>
    <path d="M 656.190685 189.956666 
L 656.209553 190.548778 
L 655.916593 191.727051 
L 654.04264 197.587173 
L 653.038631 200.636996 
L 652.932371 200.959831 
L 646.815957 216.060171 
" clip-path="url(#pf34826c7e4)" style="fill: none; stroke: #f29888; stroke-width: 0.2"/>
    <path d="M 659.489715 203.546973 
L 653.038631 200.636996 
" clip-path="url(#pf34826c7e4)" style="fill: none; stroke: #f29888; stroke-width: 0.2"/>
    <path d="M 615.894253 184.157541 
L 633.966423 192.348917 
L 652.932371 200.959831 
" clip-path="url(#pf34826c7e4)" style="fill: none; stroke: #f29888; stroke-width: 0.2"/>
    <path d="M 669.803901 166.791406 
L 664.865287 179.435523 
L 657.508509 196.26608 
L 656.959333 196.954893 
L 656.065556 197.298556 
L 654.04264 197.587173 
" clip-path="url(#pf34826c7e4)" style="fill: none; stroke: #f29888; stroke-width: 0.2"/>
    <path d="M 682.128093 163.509499 
L 682.053611 166.224585 
L 681.710004 168.905453 
L 681.434919 170.555333 
L 681.159834 171.517886 
L 680.197534 174.13032 
L 676.209303 182.861738 
L 671.603372 193.036243 
L 669.12761 199.567326 
" clip-path="url(#pf34826c7e4)" style="fill: none; stroke: #f29888; stroke-width: 0.2"/>
    <path d="M 619.648116 172.638138 
L 638.863328 181.199957 
L 654.455764 188.168429 
L 655.405154 188.827488 
L 655.858001 189.288681 
L 656.190685 189.956666 
" clip-path="url(#pf34826c7e4)" style="fill: none; stroke: #f29888; stroke-width: 0.2"/>
    <path d="M 648.642241 159.108828 
L 644.01347 169.961733 
L 638.863328 181.199957 
L 633.966423 192.348917 
" clip-path="url(#pf34826c7e4)" style="fill: none; stroke: #f29888; stroke-width: 0.2"/>
    <path d="M 664.865287 179.435523 
L 644.01347 169.961733 
L 624.100118 161.066666 
" clip-path="url(#pf34826c7e4)" style="fill: none; stroke: #f29888; stroke-width: 0.2"/>
    <path d="M 776.553645 256.410066 
L 744.478968 241.882497 
L 708.673269 225.908866 
L 698.033351 220.89228 
" clip-path="url(#pf34826c7e4)" style="fill: none; stroke: #f29888; stroke-width: 0.2"/>
    <path d="M 782.095062 243.696025 
L 755.672035 234.213309 
L 753.11484 234.213309 
L 744.271413 230.165228 
L 712.214612 216.314571 
" clip-path="url(#pf34826c7e4)" style="fill: none; stroke: #f29888; stroke-width: 0.2"/>
    <path d="M 804.938104 285.805385 
L 801.787948 285.407182 
L 782.788236 282.827479 
L 770.016163 280.4992 
L 767.122311 279.493502 
L 767.436126 277.416647 
L 770.162146 270.65348 
" clip-path="url(#pf34826c7e4)" style="fill: none; stroke: #f29888; stroke-width: 0.2"/>
    <path d="M 785.824098 235.598375 
L 749.059079 219.02073 
L 730.261956 210.711824 
L 715.059802 208.148485 
" clip-path="url(#pf34826c7e4)" style="fill: none; stroke: #f29888; stroke-width: 0.2"/>
    <path d="M 744.271413 230.165228 
L 749.059079 219.02073 
L 754.482319 206.395953 
" clip-path="url(#pf34826c7e4)" style="fill: none; stroke: #f29888; stroke-width: 0.2"/>
    <path d="M 790.869966 223.399085 
L 758.545032 208.303208 
L 754.482319 206.395953 
L 736.672323 197.734458 
L 730.955129 195.526684 
" clip-path="url(#pf34826c7e4)" style="fill: none; stroke: #f29888; stroke-width: 0.2"/>
    <path d="M 758.545032 208.303208 
L 763.711063 196.980184 
L 766.391401 193.443878 
L 769.064787 191.03675 
L 772.168179 189.275292 
L 774.17024 188.58499 
L 775.036587 188.502007 
" clip-path="url(#pf34826c7e4)" style="fill: none; stroke: #f29888; stroke-width: 0.2"/>
    <path d="M 742.244526 162.572237 
L 729.421805 163.070622 
L 714.954535 163.269976 
L 697.814872 163.433625 
L 694.752196 163.43065 
L 691.675617 163.191127 
L 688.515619 163.243197 
L 685.561189 163.295268 
L 683.48862 163.39792 
L 682.128093 163.509499 
L 679.602676 163.865064 
L 676.960075 164.175997 
L 674.985821 164.274186 
" clip-path="url(#pf34826c7e4)" style="fill: none; stroke: #f29888; stroke-width: 0.2"/>
    <path d="M 708.673269 225.908866 
L 712.214612 216.314571 
L 715.059802 208.148485 
L 715.793692 205.0942 
L 716.252498 202.039914 
L 716.580216 198.705938 
L 716.633843 194.480818 
L 716.18894 187.127026 
L 714.954535 163.269976 
L 713.660545 125.254312 
L 713.489734 110.726743 
L 713.247421 90.159038 
L 713.023661 84.508521 
" clip-path="url(#pf34826c7e4)" style="fill: none; stroke: #f29888; stroke-width: 0.2"/>
    <path d="M 730.261956 210.711824 
L 730.618473 208.437103 
L 730.795242 206.162381 
L 731.05841 200.217459 
L 730.955129 195.526684 
L 730.815104 192.808622 
L 729.421805 163.070622 
L 726.991725 124.38846 
L 726.469362 110.302743 
L 726.264786 92.256721 
L 726.251876 91.710728 
L 726.240625 91.21211 
" clip-path="url(#pf34826c7e4)" style="fill: none; stroke: #f29888; stroke-width: 0.2"/>
    <path d="M 187.673782 224.034341 
L 187.16135 215.090179 
L 187.410615 208.868541 
L 187.658886 206.940458 
L 187.34805 205.820206 
L 186.41455 205.010888 
L 185.295343 204.699954 
L 183.428342 204.451505 
L 175.71306 204.51399 
L 174.530295 203.95312 
L 173.721924 202.771872 
L 173.285959 200.967269 
L 173.285959 198.914218 
L 173.846059 197.668998 
L 174.530295 196.114332 
L 174.716995 194.745632 
L 174.77956 190.016175 
L 174.77956 185.475659 
L 175.028824 184.541372 
L 175.33966 183.483604 
L 175.33966 182.799254 
L 175.028824 178.630667 
L 174.842124 177.386935 
L 174.40616 176.577616 
L 173.721924 175.458852 
L 173.161823 173.343317 
L 171.606652 169.112246 
L 170.797287 167.55758 
L 170.486451 165.876459 
L 169.802215 163.762411 
L 168.61945 159.656309 
L 167.188414 156.606486 
L 166.068213 154.429955 
" clip-path="url(#pf34826c7e4)" style="fill: none; stroke: #f29888; stroke-width: 0.2"/>
    <path d="M 629.043698 149.887951 
L 624.100118 161.066666 
L 620.746469 168.578155 
L 619.817934 171.015038 
L 619.651095 171.800553 
L 619.648116 172.638138 
L 619.601441 173.426629 
L 619.444533 174.186853 
L 615.894253 184.157541 
L 610.066827 197.704703 
L 609.41139 199.91694 
L 607.198796 203.256868 
L 606.017024 204.740123 
L 604.890865 205.646143 
L 603.570061 206.247181 
L 602.249257 206.571504 
L 600.832124 206.907728 
" clip-path="url(#pf34826c7e4)" style="fill: none; stroke: #f29888; stroke-width: 0.2"/>
    <path d="M 407.110928 160.297515 
L 356.086193 160.238007 
L 319.1881 161.4743 
L 315.004231 161.379086 
L 312.151096 160.618862 
L 308.822273 159.096927 
L 305.494444 157.195623 
L 303.591692 156.530613 
L 301.500254 156.435399 
L 275.157667 158.146275 
L 271.163477 157.671693 
L 263.270433 157.195623 
L 244.821883 156.054543 
L 239.876317 155.294319 
L 233.315001 153.867597 
L 221.617446 151.871079 
L 212.583347 151.109367 
L 202.123177 150.063501 
L 192.993742 149.588919 
L 187.667824 149.874561 
L 181.962547 150.825213 
L 176.827302 151.490223 
L 172.737776 151.490223 
L 169.028601 151.775865 
L 167.79221 152.061507 
L 166.93617 152.821731 
L 166.068213 154.429955 
L 164.65406 155.484747 
L 160.458273 158.661025 
L 158.948783 159.477783 
L 156.025139 160.435873 
L 155.209816 160.812266 
L 152.957498 161.855156 
L 151.055739 163.09145 
L 148.772636 165.37361 
L 146.20551 167.370128 
L 143.63739 169.176218 
L 142.21132 169.271432 
L 139.929209 168.892064 
L 138.121793 168.130352 
L 134.793964 165.943406 
L 132.986548 163.09145 
L 131.180125 158.431917 
L 127.203811 147.056823 
" clip-path="url(#pf34826c7e4)" style="fill: none; stroke: #f29888; stroke-width: 0.2"/>
    <path d="M 442.739858 203.893611 
L 442.429022 202.718314 
L 441.722939 201.721542 
L 435.817059 195.252943 
L 429.78903 187.675994 
L 416.866008 175.565968 
L 413.143923 170.821634 
L 407.110928 160.297515 
L 404.764267 156.939735 
L 401.756211 153.583443 
L 393.925732 147.364781 
L 376.968796 135.254754 
L 366.633755 126.212402 
L 339.244456 106.87504 
L 338.109359 106.448065 
L 336.649523 106.236809 
L 334.703076 106.13862 
L 314.970466 104.970761 
L 276.349369 105.910999 
L 236.294257 106.494185 
L 200.231349 106.099939 
L 175.062589 106.709904 
L 172.379272 106.623616 
L 160.026281 106.226395 
L 150.658505 105.96902 
L 145.999941 105.539069 
L 143.061401 104.823477 
L 139.54985 103.605036 
L 136.252806 103.103675 
L 133.528773 103.317906 
L 130.231729 103.963576 
L 128.798706 104.249218 
L 127.892019 104.536347 
L 126.878079 104.31319 
L 120.986102 102.458005 
L 119.767586 101.742412 
L 118.931046 100.65422 
" clip-path="url(#pf34826c7e4)" style="fill: none; stroke: #f29888; stroke-width: 0.2"/>
    <path d="M 634.472897 128.39191 
L 633.982313 128.820372 
L 633.36362 129.989719 
L 631.092434 134.789098 
L 629.444905 138.651215 
L 627.038659 145.387603 
L 626.721864 146.515293 
L 626.812235 147.18923 
L 627.171732 147.68464 
L 628.161838 148.449327 
L 628.656395 148.987881 
L 629.043698 149.887951 
" clip-path="url(#pf34826c7e4)" style="fill: none; stroke: #f29888; stroke-width: 0.2"/>
    <path d="M 155.209816 160.812266 
L 154.166083 157.702935 
L 153.188887 155.463919 
L 151.112345 152.696763 
L 148.750788 149.968287 
L 146.145924 147.526942 
L 143.092186 144.270327 
L 138.980812 139.588477 
L 135.27561 135.884059 
L 130.024174 130.267922 
L 128.273364 127.988738 
L 125.749934 125.627729 
L 121.515417 122.6151 
L 116.555948 119.925305 
L 115.097105 118.574457 
L 113.584636 115.874248 
L 112.126786 112.95832 
L 110.938063 111.553914 
L 108.831728 109.663024 
L 101.333933 104.368235 
L 91.291852 96.395553 
L 89.942248 94.559709 
L 89.293764 93.857506 
L 88.197665 93.074932 
" clip-path="url(#pf34826c7e4)" style="fill: none; stroke: #f29888; stroke-width: 0.2"/>
    <path d="M 172.379272 106.623616 
L 171.515288 108.764443 
L 170.869782 110.341424 
L 170.655276 111.988328 
L 170.655276 114.926572 
L 170.439776 118.151945 
L 169.938268 119.513207 
L 168.791254 120.444519 
L 166.999728 121.018778 
L 163.846681 121.30442 
L 157.252593 121.520139 
L 156.34392 121.679325 
" clip-path="url(#pf34826c7e4)" style="fill: none; stroke: #f29888; stroke-width: 0.2"/>
    <path d="M 121.515417 122.6151 
L 123.448955 120.615606 
L 124.845233 119.157642 
L 127.247507 116.207497 
L 129.17012 113.535555 
L 129.686525 112.550686 
L 129.779875 111.519697 
L 129.686525 110.628554 
L 129.17012 109.73741 
L 128.279323 108.658815 
L 127.200832 107.862885 
L 127.041938 107.354086 
L 127.308085 106.262101 
L 127.892019 104.536347 
" clip-path="url(#pf34826c7e4)" style="fill: none; stroke: #f29888; stroke-width: 0.2"/>
    <path d="M 674.985821 164.274186 
L 671.187269 166.232023 
L 669.803901 166.791406 
L 668.492035 166.7557 
L 667.153356 166.590564 
L 665.051987 166.113006 
L 657.185756 163.206005 
L 648.642241 159.108828 
L 638.577319 154.373421 
L 629.043698 149.887951 
" clip-path="url(#pf34826c7e4)" style="fill: none; stroke: #f29888; stroke-width: 0.2"/>
    <path d="M 638.577319 154.373421 
L 640.556539 149.468414 
" clip-path="url(#pf34826c7e4)" style="fill: none; stroke: #f29888; stroke-width: 0.2"/>
    <path d="M 672.678884 125.160586 
L 656.739861 126.483167 
L 640.385728 127.454647 
L 637.359797 127.728387 
L 636.110495 127.896499 
L 634.988308 128.115194 
L 634.472897 128.39191 
" clip-path="url(#pf34826c7e4)" style="fill: none; stroke: #f29888; stroke-width: 0.2"/>
    <path d="M 670.184253 73.386502 
L 669.987622 76.555342 
L 670.549708 89.941831 
L 672.678884 125.160586 
L 674.366136 154.702207 
L 674.985821 164.274186 
" clip-path="url(#pf34826c7e4)" style="fill: none; stroke: #f29888; stroke-width: 0.2"/>
    <path d="M 640.385728 127.454647 
L 638.648822 75.87248 
L 638.717344 71.81696 
" clip-path="url(#pf34826c7e4)" style="fill: none; stroke: #f29888; stroke-width: 0.2"/>
    <path d="M 654.943369 72.779513 
L 656.739861 126.483167 
" clip-path="url(#pf34826c7e4)" style="fill: none; stroke: #f29888; stroke-width: 0.2"/>
    <path d="M 638.717344 71.81696 
L 640.436376 71.886882 
L 642.637053 71.81696 
L 644.49313 71.267992 
L 646.142645 71.129634 
L 647.656107 71.198069 
L 650.199399 71.748525 
L 652.605646 72.367415 
L 654.943369 72.779513 
L 656.6624 73.054741 
L 658.793562 73.261534 
L 663.262447 73.466839 
L 666.355908 73.535274 
L 668.625109 73.535274 
L 670.184253 73.386502 
L 671.306439 73.742067 
L 672.956948 73.810502 
L 678.31961 73.329969 
L 682.375371 72.847948 
L 684.300964 72.986306 
L 685.606871 73.605197 
L 687.187863 74.704621 
L 689.130339 77.16977 
" clip-path="url(#pf34826c7e4)" style="fill: none; stroke: #f29888; stroke-width: 0.2"/>
    <path d="M 670.184253 73.386502 
L 671.444478 70.785971 
L 672.887432 67.968233 
L 674.125809 66.043125 
L 675.225155 64.806831 
L 676.737624 63.775843 
L 677.631401 63.500615 
L 678.869779 63.43218 
L 681.481594 63.362257 
L 683.544233 63.293822 
L 684.713094 63.018594 
L 685.813433 62.950159 
L 686.982295 63.156952 
L 688.627837 63.631534 
" clip-path="url(#pf34826c7e4)" style="fill: none; stroke: #f29888; stroke-width: 0.2"/>
    <path d="M 738.922573 97.244575 
L 739.399336 110.091487 
L 742.244526 162.572237 
L 742.592106 167.838759 
L 742.871163 174.753674 
L 742.969478 177.836226 
L 742.861232 179.750919 
L 742.364689 181.199957 
L 741.536456 181.933402 
L 740.143157 181.985472 
L 737.751807 182.097051 
L 736.734887 182.759086 
L 735.663348 184.632123 
L 730.815104 192.808622 
" clip-path="url(#pf34826c7e4)" style="fill: none; stroke: #f29888; stroke-width: 0.2"/>
    <path d="M 713.660545 125.254312 
L 692.325095 126.187111 
" clip-path="url(#pf34826c7e4)" style="fill: none; stroke: #f29888; stroke-width: 0.2"/>
    <path d="M 713.489734 110.726743 
L 726.469362 110.302743 
L 739.399336 110.091487 
" clip-path="url(#pf34826c7e4)" style="fill: none; stroke: #f29888; stroke-width: 0.2"/>
    <path d="M 726.251876 91.710728 
L 726.87451 91.533613 
" clip-path="url(#pf34826c7e4)" style="fill: none; stroke: #f29888; stroke-width: 0.2"/>
    <path d="M 713.247421 90.159038 
L 715.558331 90.416413 
L 719.066902 91.001087 
L 721.22587 91.361114 
L 724.330256 91.719655 
L 725.365051 91.945788 
L 726.264786 92.256721 
" clip-path="url(#pf34826c7e4)" style="fill: none; stroke: #f29888; stroke-width: 0.2"/>
    <path d="M 708.896479 82.26012 
L 703.052405 82.411001 
L 701.928232 82.544896 
L 700.758377 82.815661 
L 699.543834 82.904924 
L 698.373979 82.72491 
L 696.574508 81.960223 
L 693.065937 79.71228 
L 690.592161 78.047524 
L 689.130339 77.16977 
" clip-path="url(#pf34826c7e4)" style="fill: none; stroke: #f29888; stroke-width: 0.2"/>
    <path d="M 695.522923 337.589809 
L 695.236822 336.194908 
L 691.653769 314.390909 
L 691.519703 313.47745 
L 688.751973 296.870051 
L 688.617907 296.288353 
L 688.399428 295.117519 
L 686.154061 283.891197 
L 685.829322 282.221977 
L 683.080462 268.087166 
L 682.838149 264.962958 
L 682.972215 262.786426 
L 683.417118 260.609894 
L 684.18378 258.344099 
L 685.225526 255.804564 
L 686.679404 252.750279 
L 695.579436 237.614233 
L 697.222 233.595906 
L 697.766211 231.95049 
L 698.176355 230.214323 
L 698.312408 228.381454 
L 698.311415 226.823813 
L 698.033351 220.89228 
L 694.752196 163.43065 
L 692.325095 126.187111 
L 689.130339 77.16977 
L 688.691395 65.891378 
L 688.627837 63.631534 
L 688.488805 58.704211 
L 688.539649 49.581004 
" clip-path="url(#pf34826c7e4)" style="fill: none; stroke: #f29888; stroke-width: 0.5"/>
   </g>
   <g id="LineCollection_2">
    <path d="M 806.031061 307.461639 
L 802.375855 304.967702 
L 786.550044 294.483751 
L 774.252666 287.226662 
L 751.623225 273.163261 
L 739.72904 265.351252 
L 730.40496 261.370118 
L 722.240804 259.303678 
L 706.717884 256.279146 
L 687.868127 252.903514 
L 686.679404 252.750279 
L 684.339694 252.44976 
" clip-path="url(#pf34826c7e4)" style="fill: none; stroke-dasharray: 3.7,1.6; stroke-dashoffset: 0; stroke: #f29888"/>
    <path d="M 684.339694 252.44976 
L 674.815011 251.844258 
L 657.578025 250.533578 
" clip-path="url(#pf34826c7e4)" style="fill: none; stroke-dasharray: 3.7,1.6; stroke-dashoffset: 0; stroke: #f29888"/>
    <path d="M 684.339694 252.44976 
L 679.973097 251.22388 
L 678.379195 250.505312 
L 670.53084 249.273481 
L 659.744938 248.165131 
L 653.898643 247.660795 
" clip-path="url(#pf34826c7e4)" style="fill: none; stroke-dasharray: 3.7,1.6; stroke-dashoffset: 0; stroke: #f29888"/>
    <path d="M 679.973097 251.22388 
L 676.559862 250.826659 
L 664.657732 249.602267 
L 653.826148 248.470113 
L 641.924018 247.308205 
L 634.488786 246.359041 
L 629.164855 245.073652 
L 622.98389 242.748349 
L 615.487088 239.07666 
L 612.012281 236.413645 
" clip-path="url(#pf34826c7e4)" style="fill: none; stroke-dasharray: 3.7,1.6; stroke-dashoffset: 0; stroke: #f29888"/>
    <path d="M 678.379195 250.505312 
L 674.570712 249.14405 
L 665.391622 247.522437 
L 656.732909 246.420038 
L 647.584605 245.563112 
L 638.313159 245.134649 
L 634.059773 244.554439 
L 627.756659 243.26905 
L 624.238157 242.044658 
L 618.700712 239.630091 
L 612.012281 236.413645 
L 604.135127 232.624426 
L 587.907116 223.60439 
L 581.102494 220.932448 
" clip-path="url(#pf34826c7e4)" style="fill: none; stroke-dasharray: 3.7,1.6; stroke-dashoffset: 0; stroke: #f29888"/>
    <path d="M 608.163082 233.444159 
L 605.141122 231.336062 
L 598.533131 222.127086 
L 591.222036 209.966477 
" clip-path="url(#pf34826c7e4)" style="fill: none; stroke-dasharray: 3.7,1.6; stroke-dashoffset: 0; stroke: #f29888"/>
   </g>
  </g>
 </g>
 <defs>
  <clipPath id="pf34826c7e4">
   <rect x="7.2" y="7.2" width="837" height="397.130321"/>
  </clipPath>
 </defs>
</svg>
