<?xml version="1.0" encoding="utf-8" standalone="no"?>
<!DOCTYPE svg PUBLIC "-//W3C//DTD SVG 1.1//EN"
  "http://www.w3.org/Graphics/SVG/1.1/DTD/svg11.dtd">
<svg xmlns:xlink="http://www.w3.org/1999/xlink" width="851.4pt" height="618.667248pt" viewBox="0 0 851.4 618.667248" xmlns="http://www.w3.org/2000/svg" version="1.1">
 <metadata>
  <rdf:RDF xmlns:dc="http://purl.org/dc/elements/1.1/" xmlns:cc="http://creativecommons.org/ns#" xmlns:rdf="http://www.w3.org/1999/02/22-rdf-syntax-ns#">
   <cc:Work>
    <dc:type rdf:resource="http://purl.org/dc/dcmitype/StillImage"/>
    <dc:date>2025-03-16T14:38:37.874002</dc:date>
    <dc:format>image/svg+xml</dc:format>
    <dc:creator>
     <cc:Agent>
      <dc:title>Matplotlib v3.10.1, https://matplotlib.org/</dc:title>
     </cc:Agent>
    </dc:creator>
   </cc:Work>
  </rdf:RDF>
 </metadata>
 <defs>
  <style type="text/css">*{stroke-linejoin: round; stroke-linecap: butt}</style>
 </defs>
 <g id="figure_1">
  <g id="patch_1">
   <path d="M 0 618.667248 
L 851.4 618.667248 
L 851.4 0 
L 0 0 
z
" style="fill: #ffffff"/>
  </g>
  <g id="axes_1">
   <g id="PatchCollection_1">
    <path d="M 474.507243 92.583619 
L 361.224913 34.666693 
L 349.489862 70.244701 
L 343.729337 92.145152 
L 307.004349 219.460952 
L 55.934527 171.223025 
L 45.245455 220.059754 
L 139.931637 249.168736 
L 192.95555 257.846458 
L 269.087075 275.103739 
L 313.070588 298.650078 
L 340.991013 313.597226 
L 357.11306 321.659785 
L 378.29249 333.396961 
L 395.565332 342.699663 
L 469.486982 400.708209 
L 747.898555 584.000555 
L 783.872361 512.651483 
L 722.345231 470.267419 
L 806.154545 359.037472 
L 740.09193 277.19791 
L 611.493328 178.709687 
L 589.136898 160.735807 
L 548.84379 127.422122 
L 507.089807 109.408977 
L 474.507243 92.583619 
" clip-path="url(#p546e77349e)" style="fill: #f29888"/>
   </g>
   <g id="PatchCollection_2">
    <path d="M 364.258033 313.865542 
L 373.881474 320.723953 
L 371.597353 323.930652 
L 361.973913 317.068969 
L 364.258033 313.865542 
" clip-path="url(#p546e77349e)" style="fill: #f29888"/>
    <path d="M 387.269564 301.827329 
L 388.968461 302.835148 
L 387.688829 304.988218 
L 385.989933 303.980398 
L 387.269564 301.827329 
" clip-path="url(#p546e77349e)" style="fill: #f29888"/>
    <path d="M 383.58571 298.299959 
L 385.832708 299.742974 
L 383.88269 302.77625 
L 381.635692 301.333235 
L 383.58571 298.299959 
" clip-path="url(#p546e77349e)" style="fill: #f29888"/>
    <path d="M 377.205022 296.130528 
L 379.128837 297.007462 
L 377.930001 299.638265 
L 376.00837 298.761331 
L 377.205022 296.130528 
" clip-path="url(#p546e77349e)" style="fill: #f29888"/>
    <path d="M 373.903311 293.712415 
L 375.993084 294.507545 
L 374.632657 298.077453 
L 372.542883 297.27905 
L 373.903311 293.712415 
" clip-path="url(#p546e77349e)" style="fill: #f29888"/>
    <path d="M 369.931212 292.442823 
L 371.935822 293.188872 
L 370.92915 295.898206 
L 368.924539 295.152157 
L 369.931212 292.442823 
" clip-path="url(#p546e77349e)" style="fill: #f29888"/>
    <path d="M 363.731768 290.04107 
L 365.336767 290.882011 
L 364.10736 293.224865 
L 362.504545 292.387197 
L 363.731768 290.04107 
" clip-path="url(#p546e77349e)" style="fill: #f29888"/>
    <path d="M 388.712971 252.022044 
L 390.497031 252.643752 
L 389.536215 255.398896 
L 387.752156 254.777189 
L 388.712971 252.022044 
" clip-path="url(#p546e77349e)" style="fill: #f29888"/>
    <path d="M 383.880506 250.225638 
L 386.105667 250.991319 
L 384.664444 255.179662 
L 382.439283 254.413981 
L 383.880506 250.225638 
" clip-path="url(#p546e77349e)" style="fill: #f29888"/>
    <path d="M 377.458328 251.338167 
L 376.7399 254.253646 
L 375.086861 253.844628 
L 375.805288 250.932421 
L 377.458328 251.338167 
" clip-path="url(#p546e77349e)" style="fill: #f29888"/>
    <path d="M 358.18961 288.486803 
L 359.9562 289.304838 
L 358.779201 291.850565 
L 357.012611 291.03253 
L 358.18961 288.486803 
" clip-path="url(#p546e77349e)" style="fill: #f29888"/>
    <path d="M 350.98131 285.875633 
L 353.018676 286.690396 
L 352.114636 288.954719 
L 350.075086 288.139956 
L 350.98131 285.875633 
" clip-path="url(#p546e77349e)" style="fill: #f29888"/>
    <path d="M 343.716235 282.966698 
L 345.989437 283.434614 
L 345.460988 285.986886 
L 343.18997 285.515697 
L 343.716235 282.966698 
" clip-path="url(#p546e77349e)" style="fill: #f29888"/>
    <path d="M 336.962139 278.680191 
L 339.165463 279.108842 
L 338.597709 282.047226 
L 336.3922 281.618575 
L 336.962139 278.680191 
" clip-path="url(#p546e77349e)" style="fill: #f29888"/>
    <path d="M 341.408094 269.737425 
L 341.198462 271.406218 
L 338.571505 271.075731 
L 338.781137 269.410211 
L 341.408094 269.737425 
" clip-path="url(#p546e77349e)" style="fill: #f29888"/>
    <path d="M 336.178201 262.057706 
L 335.787323 264.17151 
L 333.079571 263.670872 
L 333.470448 261.557068 
L 336.178201 262.057706 
" clip-path="url(#p546e77349e)" style="fill: #f29888"/>
    <path d="M 344.192275 257.944623 
L 343.895296 260.097693 
L 340.982278 259.695219 
L 341.279257 257.542149 
L 344.192275 257.944623 
" clip-path="url(#p546e77349e)" style="fill: #f29888"/>
    <path d="M 357.955957 247.450861 
L 357.510488 250.313986 
L 355.337735 249.980227 
L 355.783204 247.11383 
L 357.955957 247.450861 
" clip-path="url(#p546e77349e)" style="fill: #f29888"/>
    <path d="M 354.370368 247.117102 
L 353.933634 249.970411 
L 352.036023 249.67919 
L 352.470574 246.825882 
L 354.370368 247.117102 
" clip-path="url(#p546e77349e)" style="fill: #f29888"/>
    <path d="M 338.032138 245.258525 
L 340.124095 245.615189 
L 339.70483 248.085657 
L 337.612873 247.728993 
L 338.032138 245.258525 
" clip-path="url(#p546e77349e)" style="fill: #f29888"/>
    <path d="M 331.797755 280.63366 
L 331.478939 282.462788 
L 330.035532 282.214105 
L 330.352165 280.381705 
L 331.797755 280.63366 
" clip-path="url(#p546e77349e)" style="fill: #f29888"/>
    <path d="M 316.3723 277.849067 
L 317.981665 278.20573 
L 317.335299 281.114665 
L 315.725933 280.758002 
L 316.3723 277.849067 
" clip-path="url(#p546e77349e)" style="fill: #f29888"/>
    <path d="M 326.915066 277.590567 
L 328.568105 278.081389 
L 327.648779 281.193197 
L 325.99574 280.702375 
L 326.915066 277.590567 
" clip-path="url(#p546e77349e)" style="fill: #f29888"/>
    <path d="M 320.115113 277.93087 
L 321.857682 278.254812 
L 321.431867 280.535496 
L 319.689297 280.208282 
L 320.115113 277.93087 
" clip-path="url(#p546e77349e)" style="fill: #f29888"/>
    <path d="M 309.70555 275.424409 
L 311.784406 275.820338 
L 311.354222 278.078117 
L 309.273183 277.678915 
L 309.70555 275.424409 
" clip-path="url(#p546e77349e)" style="fill: #f29888"/>
    <path d="M 303.864229 275.25753 
L 305.890676 275.71563 
L 305.366595 278.035579 
L 303.337964 277.577479 
L 303.864229 275.25753 
" clip-path="url(#p546e77349e)" style="fill: #f29888"/>
    <path d="M 302.069251 262.967362 
L 301.484027 265.640702 
L 299.354947 265.176058 
L 299.940171 262.499445 
L 302.069251 262.967362 
" clip-path="url(#p546e77349e)" style="fill: #f29888"/>
    <path d="M 298.225989 257.993705 
L 297.59054 260.545976 
L 295.389399 259.996256 
L 296.024848 257.443985 
L 298.225989 257.993705 
" clip-path="url(#p546e77349e)" style="fill: #f29888"/>
    <path d="M 329.616268 243.105456 
L 331.43745 243.334506 
L 331.120817 245.850783 
L 329.299635 245.621733 
L 329.616268 243.105456 
" clip-path="url(#p546e77349e)" style="fill: #f29888"/>
    <path d="M 322.982273 242.261243 
L 325.141925 242.549191 
L 324.834027 244.862596 
L 322.676559 244.57792 
L 322.982273 242.261243 
" clip-path="url(#p546e77349e)" style="fill: #f29888"/>
    <path d="M 321.765968 242.221977 
L 321.32705 244.325965 
L 319.053848 243.851504 
L 319.490583 241.747516 
L 321.765968 242.221977 
" clip-path="url(#p546e77349e)" style="fill: #f29888"/>
    <path d="M 314.946362 240.716791 
L 316.785013 241.207613 
L 315.955218 244.332509 
L 314.116567 243.841688 
L 314.946362 240.716791 
" clip-path="url(#p546e77349e)" style="fill: #f29888"/>
    <path d="M 310.686019 240.258691 
L 309.795081 243.465391 
L 307.823225 242.918943 
L 308.71198 239.712244 
L 310.686019 240.258691 
" clip-path="url(#p546e77349e)" style="fill: #f29888"/>
    <path d="M 304.220167 239.090536 
L 303.796535 241.953661 
L 301.7417 241.649352 
L 302.165332 238.786227 
L 304.220167 239.090536 
" clip-path="url(#p546e77349e)" style="fill: #f29888"/>
    <path d="M 293.548564 237.945286 
L 293.297442 240.648076 
L 291.325587 240.464836 
L 291.576709 237.762046 
L 293.548564 237.945286 
" clip-path="url(#p546e77349e)" style="fill: #f29888"/>
    <path d="M 287.032488 237.038903 
L 286.624142 240.153983 
L 284.69596 239.898756 
L 285.10649 236.786948 
L 287.032488 237.038903 
" clip-path="url(#p546e77349e)" style="fill: #f29888"/>
    <path d="M 282.123595 236.230684 
L 281.739269 238.580082 
L 279.636393 238.236507 
L 280.020719 235.887109 
L 282.123595 236.230684 
" clip-path="url(#p546e77349e)" style="fill: #f29888"/>
    <path d="M 276.906803 235.654787 
L 276.524661 238.746961 
L 274.264561 238.468829 
L 274.64452 235.376654 
L 276.906803 235.654787 
" clip-path="url(#p546e77349e)" style="fill: #f29888"/>
    <path d="M 272.218461 234.859656 
L 272.008828 237.081441 
L 269.849177 236.878568 
L 270.058809 234.656783 
L 272.218461 234.859656 
" clip-path="url(#p546e77349e)" style="fill: #f29888"/>
    <path d="M 267.519199 233.874741 
L 267.429669 236.498999 
L 265.508038 236.433557 
L 265.597568 233.809298 
L 267.519199 233.874741 
" clip-path="url(#p546e77349e)" style="fill: #f29888"/>
    <path d="M 263.717427 233.747127 
L 263.372407 236.227412 
L 260.605695 235.844571 
L 260.950715 233.361015 
L 263.717427 233.747127 
" clip-path="url(#p546e77349e)" style="fill: #f29888"/>
    <path d="M 252.75758 231.96381 
L 252.458417 234.36229 
L 249.923174 234.048165 
L 250.222337 231.646412 
L 252.75758 231.96381 
" clip-path="url(#p546e77349e)" style="fill: #f29888"/>
    <path d="M 247.379196 230.671313 
L 247.053829 233.433002 
L 244.798097 233.164686 
L 245.123464 230.402998 
L 247.379196 230.671313 
" clip-path="url(#p546e77349e)" style="fill: #f29888"/>
    <path d="M 241.345712 230.334283 
L 241.026896 232.241942 
L 239.380408 231.967082 
L 239.699224 230.059423 
L 241.345712 230.334283 
" clip-path="url(#p546e77349e)" style="fill: #f29888"/>
    <path d="M 236.06341 229.571873 
L 235.792635 231.882006 
L 233.453923 231.607146 
L 233.726882 229.297013 
L 236.06341 229.571873 
" clip-path="url(#p546e77349e)" style="fill: #f29888"/>
    <path d="M 229.396661 228.701483 
L 228.822356 230.949445 
L 226.346072 230.31465 
L 226.920378 228.066688 
L 229.396661 228.701483 
" clip-path="url(#p546e77349e)" style="fill: #f29888"/>
    <path d="M 210.852922 227.507151 
L 210.324474 230.736756 
L 208.540414 230.445535 
L 209.068863 227.215931 
L 210.852922 227.507151 
" clip-path="url(#p546e77349e)" style="fill: #f29888"/>
    <path d="M 217.283835 226.83309 
L 216.901692 228.969799 
L 214.81847 228.596775 
L 215.200612 226.460066 
L 217.283835 226.83309 
" clip-path="url(#p546e77349e)" style="fill: #f29888"/>
    <path d="M 205.555335 225.691112 
L 205.328233 227.867087 
L 203.251562 227.651126 
L 203.478663 225.475151 
L 205.555335 225.691112 
" clip-path="url(#p546e77349e)" style="fill: #f29888"/>
    <path d="M 196.486547 223.44315 
L 196.121874 225.887441 
L 193.846488 225.547138 
L 194.213345 223.102847 
L 196.486547 223.44315 
" clip-path="url(#p546e77349e)" style="fill: #f29888"/>
    <path d="M 381.188039 251.076395 
L 380.39755 254.109671 
L 378.257552 253.553407 
L 379.048041 250.520131 
L 381.188039 251.076395 
" clip-path="url(#p546e77349e)" style="fill: #f29888"/>
    <path d="M 369.843865 249.096749 
L 369.57309 251.685014 
L 367.417806 251.524679 
L 367.740989 248.720452 
L 369.843865 249.096749 
" clip-path="url(#p546e77349e)" style="fill: #f29888"/>
    <path d="M 366.253909 248.57975 
L 366.135991 251.331622 
L 363.880258 251.233458 
L 363.998176 248.484858 
L 366.253909 248.57975 
" clip-path="url(#p546e77349e)" style="fill: #f29888"/>
    <path d="M 386.433218 227.870359 
L 386.271626 229.850005 
L 384.63824 229.715848 
L 384.797648 227.739473 
L 386.433218 227.870359 
" clip-path="url(#p546e77349e)" style="fill: #f29888"/>
    <path d="M 374.774595 225.818726 
L 374.311657 228.06996 
L 372.407495 227.677303 
L 372.870434 225.429341 
L 374.774595 225.818726 
" clip-path="url(#p546e77349e)" style="fill: #f29888"/>
    <path d="M 381.238263 224.225192 
L 380.963121 226.600768 
L 378.886449 226.361901 
L 379.161592 223.983054 
L 381.238263 224.225192 
" clip-path="url(#p546e77349e)" style="fill: #f29888"/>
    <path d="M 369.651702 223.907794 
L 369.024988 226.708748 
L 366.424235 226.126307 
L 367.050949 223.325353 
L 369.651702 223.907794 
" clip-path="url(#p546e77349e)" style="fill: #f29888"/>
    <path d="M 365.269073 223.724554 
L 364.902216 226.211383 
L 363.164014 225.956156 
L 363.530871 223.469327 
L 365.269073 223.724554 
" clip-path="url(#p546e77349e)" style="fill: #f29888"/>
    <path d="M 385.13175 204.072065 
L 384.625138 206.234952 
L 382.976466 205.848839 
L 383.483078 203.685952 
L 385.13175 204.072065 
" clip-path="url(#p546e77349e)" style="fill: #f29888"/>
    <path d="M 380.22504 203.260574 
L 379.777387 205.564162 
L 377.270532 205.076613 
L 377.718185 202.773025 
L 380.22504 203.260574 
" clip-path="url(#p546e77349e)" style="fill: #f29888"/>
    <path d="M 343.489133 244.895318 
L 345.559254 245.37305 
L 345.011152 248.056207 
L 342.949766 247.696272 
L 343.489133 244.895318 
" clip-path="url(#p546e77349e)" style="fill: #f29888"/>
    <path d="M 356.689428 221.643472 
L 356.123857 224.375711 
L 353.798246 223.894706 
L 354.363817 221.162467 
L 356.689428 221.643472 
" clip-path="url(#p546e77349e)" style="fill: #f29888"/>
    <path d="M 349.502964 220.756721 
L 349.002904 223.142113 
L 347.286538 222.782177 
L 347.784415 220.396785 
L 349.502964 220.756721 
" clip-path="url(#p546e77349e)" style="fill: #f29888"/>
    <path d="M 343.026195 218.777075 
L 342.593828 221.633655 
L 340.423258 221.306441 
L 340.855625 218.44986 
L 343.026195 218.777075 
" clip-path="url(#p546e77349e)" style="fill: #f29888"/>
    <path d="M 332.49653 216.87596 
L 332.160245 219.752173 
L 330.435144 219.5493 
L 330.77143 216.676359 
L 332.49653 216.87596 
" clip-path="url(#p546e77349e)" style="fill: #f29888"/>
    <path d="M 362.155158 200.583961 
L 361.71624 202.943176 
L 359.772772 202.579968 
L 360.21169 200.220753 
L 362.155158 200.583961 
" clip-path="url(#p546e77349e)" style="fill: #f29888"/>
    <path d="M 345.871519 200.410538 
L 345.257907 202.740303 
L 343.004358 202.144773 
L 343.61797 199.815008 
L 345.871519 200.410538 
" clip-path="url(#p546e77349e)" style="fill: #f29888"/>
    <path d="M 356.027775 199.484521 
L 355.475306 201.542699 
L 353.547124 201.022428 
L 354.101777 198.967523 
L 356.027775 199.484521 
" clip-path="url(#p546e77349e)" style="fill: #f29888"/>
    <path d="M 350.402637 198.731928 
L 349.90476 200.891542 
L 347.611905 200.361455 
L 348.109782 198.201841 
L 350.402637 198.731928 
" clip-path="url(#p546e77349e)" style="fill: #f29888"/>
    <path d="M 338.505994 196.667206 
L 338.154423 198.758105 
L 336.184752 198.424347 
L 336.536323 196.33672 
L 338.505994 196.667206 
" clip-path="url(#p546e77349e)" style="fill: #f29888"/>
    <path d="M 192.892224 222.952329 
L 192.597428 225.475151 
L 190.69545 225.252645 
L 190.328593 222.651291 
L 192.892224 222.952329 
" clip-path="url(#p546e77349e)" style="fill: #f29888"/>
    <path d="M 183.126844 221.551852 
L 182.932498 224.928703 
L 181.135336 224.827266 
L 181.327499 221.447143 
L 183.126844 221.551852 
" clip-path="url(#p546e77349e)" style="fill: #f29888"/>
    <path d="M 175.67179 220.995587 
L 174.944627 224.192471 
L 172.53167 223.642751 
L 173.258833 220.445867 
L 175.67179 220.995587 
" clip-path="url(#p546e77349e)" style="fill: #f29888"/>
    <path d="M 164.59184 218.786891 
L 164.133269 221.391517 
L 162.196352 221.051214 
L 162.654923 218.446588 
L 164.59184 218.786891 
" clip-path="url(#p546e77349e)" style="fill: #f29888"/>
    <path d="M 160.530211 218.165184 
L 160.514925 220.422962 
L 158.536519 220.406602 
L 158.553988 218.152095 
L 160.530211 218.165184 
" clip-path="url(#p546e77349e)" style="fill: #f29888"/>
    <path d="M 155.553624 217.697267 
L 155.092869 219.863426 
L 153.378687 219.500218 
L 153.839441 217.330787 
L 155.553624 217.697267 
" clip-path="url(#p546e77349e)" style="fill: #f29888"/>
    <path d="M 149.87171 217.235895 
L 149.500486 219.346427 
L 147.441284 218.98322 
L 147.810324 216.87596 
L 149.87171 217.235895 
" clip-path="url(#p546e77349e)" style="fill: #f29888"/>
    <path d="M 327.873698 215.645634 
L 327.454433 218.508759 
L 324.875517 218.12919 
L 325.296965 215.269338 
L 327.873698 215.645634 
" clip-path="url(#p546e77349e)" style="fill: #f29888"/>
    <path d="M 130.493809 215.544198 
L 130.338768 217.864147 
L 128.362545 217.733261 
L 128.517586 215.413312 
L 130.493809 215.544198 
" clip-path="url(#p546e77349e)" style="fill: #f29888"/>
    <path d="M 99.348101 212.219701 
L 101.208589 212.504377 
L 100.793692 215.223528 
L 98.93102 214.938851 
L 99.348101 212.219701 
" clip-path="url(#p546e77349e)" style="fill: #f29888"/>
    <path d="M 106.742013 211.375488 
L 106.449401 214.17317 
L 104.060464 213.924487 
L 104.353076 211.126805 
L 106.742013 211.375488 
" clip-path="url(#p546e77349e)" style="fill: #f29888"/>
    <path d="M 96.782287 210.161523 
L 96.574838 212.268783 
L 94.515636 212.062638 
L 94.725268 209.955378 
L 96.782287 210.161523 
" clip-path="url(#p546e77349e)" style="fill: #f29888"/>
    <path d="M 92.987066 209.579081 
L 92.842944 212.245878 
L 90.864537 212.137897 
L 91.010843 209.471101 
L 92.987066 209.579081 
" clip-path="url(#p546e77349e)" style="fill: #f29888"/>
    <path d="M 83.079748 208.21787 
L 82.715075 210.514914 
L 80.400383 210.148434 
L 80.765056 207.85139 
L 83.079748 208.21787 
" clip-path="url(#p546e77349e)" style="fill: #f29888"/>
    <path d="M 75.004531 207.239499 
L 77.177284 207.566714 
L 76.803876 210.040453 
L 74.633306 209.713239 
L 75.004531 207.239499 
" clip-path="url(#p546e77349e)" style="fill: #f29888"/>
    <path d="M 66.258926 205.452909 
L 66.00562 208.473097 
L 63.330622 208.250591 
L 63.583928 205.227132 
L 66.258926 205.452909 
" clip-path="url(#p546e77349e)" style="fill: #f29888"/>
    <path d="M 332.911428 195.358349 
L 332.470326 197.691387 
L 329.745104 197.174388 
L 330.188389 194.844623 
L 332.911428 195.358349 
" clip-path="url(#p546e77349e)" style="fill: #f29888"/>
    <path d="M 373.562658 202.334557 
L 372.968699 205.092974 
L 370.959721 204.661051 
L 371.55368 201.902635 
L 373.562658 202.334557 
" clip-path="url(#p546e77349e)" style="fill: #f29888"/>
    <path d="M 368.317479 201.873185 
L 367.6995 204.252033 
L 365.3324 203.63687 
L 365.950379 201.258022 
L 368.317479 201.873185 
" clip-path="url(#p546e77349e)" style="fill: #f29888"/>
    <path d="M 388.372318 195.669203 
L 387.878809 198.103677 
L 385.605606 197.642305 
L 386.096933 195.207831 
L 388.372318 195.669203 
" clip-path="url(#p546e77349e)" style="fill: #f29888"/>
    <path d="M 382.963364 194.648294 
L 382.570303 197.517963 
L 379.397428 197.086041 
L 379.790489 194.213099 
L 382.963364 194.648294 
" clip-path="url(#p546e77349e)" style="fill: #f29888"/>
    <path d="M 376.709328 193.702645 
L 376.263859 195.891708 
L 374.130412 195.459786 
L 374.575881 193.26745 
L 376.709328 193.702645 
" clip-path="url(#p546e77349e)" style="fill: #f29888"/>
    <path d="M 371.182456 192.613021 
L 370.926966 195.309267 
L 368.62756 195.090033 
L 368.885233 192.39706 
L 371.182456 192.613021 
" clip-path="url(#p546e77349e)" style="fill: #f29888"/>
    <path d="M 376.154676 179.864753 
L 375.792186 182.201063 
L 373.831249 181.896754 
L 374.195923 179.560444 
L 376.154676 179.864753 
" clip-path="url(#p546e77349e)" style="fill: #f29888"/>
    <path d="M 385.769382 179.46228 
L 385.43528 181.864033 
L 383.033241 181.530274 
L 383.367343 179.128521 
L 385.769382 179.46228 
" clip-path="url(#p546e77349e)" style="fill: #f29888"/>
    <path d="M 380.152979 178.667149 
L 379.908407 180.771137 
L 377.908164 180.538815 
L 378.152735 178.434827 
L 380.152979 178.667149 
" clip-path="url(#p546e77349e)" style="fill: #f29888"/>
    <path d="M 366.808562 176.572978 
L 368.636295 177.279761 
L 367.184153 181.032908 
L 365.358604 180.326126 
L 366.808562 176.572978 
" clip-path="url(#p546e77349e)" style="fill: #f29888"/>
    <path d="M 393.182947 304.844244 
L 394.890578 305.920779 
L 393.193865 308.607208 
L 391.488418 307.527401 
L 393.182947 304.844244 
" clip-path="url(#p546e77349e)" style="fill: #f29888"/>
    <path d="M 415.554662 256.64231 
L 417.939231 257.735206 
L 416.4456 261.000804 
L 414.061031 259.91118 
L 415.554662 256.64231 
" clip-path="url(#p546e77349e)" style="fill: #f29888"/>
    <path d="M 405.915936 256.318368 
L 407.638853 256.799373 
L 406.82871 259.698491 
L 405.107977 259.217486 
L 405.915936 256.318368 
" clip-path="url(#p546e77349e)" style="fill: #f29888"/>
    <path d="M 398.709819 253.89371 
L 400.659838 254.741195 
L 399.271023 257.938078 
L 397.321004 257.090593 
L 398.709819 253.89371 
" clip-path="url(#p546e77349e)" style="fill: #f29888"/>
    <path d="M 393.964701 253.258914 
L 395.940924 253.916615 
L 395.198476 256.144944 
L 393.222253 255.483971 
L 393.964701 253.258914 
" clip-path="url(#p546e77349e)" style="fill: #f29888"/>
    <path d="M 414.253194 231.967082 
L 413.803357 234.666599 
L 411.615318 234.303392 
L 412.065155 231.600602 
L 414.253194 231.967082 
" clip-path="url(#p546e77349e)" style="fill: #f29888"/>
    <path d="M 406.922608 230.848009 
L 406.184527 233.711134 
L 404.24106 233.210496 
L 404.981324 230.347371 
L 406.922608 230.848009 
" clip-path="url(#p546e77349e)" style="fill: #f29888"/>
    <path d="M 401.887062 229.814012 
L 401.491817 231.93436 
L 400.227471 231.698766 
L 400.624899 229.578418 
L 401.887062 229.814012 
" clip-path="url(#p546e77349e)" style="fill: #f29888"/>
    <path d="M 416.253437 209.08826 
L 415.871294 211.24133 
L 413.654868 210.845401 
L 414.034827 208.695603 
L 416.253437 209.08826 
" clip-path="url(#p546e77349e)" style="fill: #f29888"/>
    <path d="M 403.782489 208.967191 
L 403.555387 210.976286 
L 401.55296 210.747236 
L 401.780062 208.741413 
L 403.782489 208.967191 
" clip-path="url(#p546e77349e)" style="fill: #f29888"/>
    <path d="M 431.023791 263.818119 
L 430.191812 265.922107 
L 427.394529 264.816122 
L 428.226508 262.712135 
L 431.023791 263.818119 
" clip-path="url(#p546e77349e)" style="fill: #f29888"/>
    <path d="M 431.250893 258.137679 
L 430.947363 260.977899 
L 426.678285 260.526343 
L 426.979632 257.682851 
L 431.250893 258.137679 
" clip-path="url(#p546e77349e)" style="fill: #f29888"/>
    <path d="M 438.256111 245.363234 
L 441.826414 246.236896 
L 441.442088 247.804252 
L 437.871785 246.93059 
L 438.256111 245.363234 
" clip-path="url(#p546e77349e)" style="fill: #f29888"/>
    <path d="M 472.454592 238.472101 
L 476.780445 246.587015 
L 472.838918 248.749902 
L 470.984981 245.96858 
L 470.135533 246.354693 
L 468.897391 243.959485 
L 469.749023 243.494841 
L 468.434452 240.402666 
L 472.454592 238.472101 
" clip-path="url(#p546e77349e)" style="fill: #f29888"/>
    <path d="M 465.545455 234.342657 
L 465.239741 237.503547 
L 461.568989 236.993093 
L 461.977336 233.832203 
L 465.545455 234.342657 
" clip-path="url(#p546e77349e)" style="fill: #f29888"/>
    <path d="M 429.848976 225.017051 
L 429.241915 228.29901 
L 432.388586 228.747293 
L 432.986912 225.403163 
L 435.932685 225.933251 
L 435.203339 230.14777 
L 438.457009 230.641864 
L 441.638619 212.514193 
L 444.501412 212.985382 
L 441.049027 234.257582 
L 425.874694 231.525342 
L 427.062611 224.575311 
L 429.848976 225.017051 
" clip-path="url(#p546e77349e)" style="fill: #f29888"/>
    <path d="M 433.550299 221.689282 
L 431.667974 221.362067 
L 432.539259 216.336056 
L 438.11854 217.30461 
L 437.753867 219.402054 
L 436.760296 219.22863 
L 435.633522 225.707473 
L 432.93232 225.239556 
L 433.550299 221.689282 
" clip-path="url(#p546e77349e)" style="fill: #f29888"/>
    <path d="M 474.288876 202.161134 
L 474.000631 203.875737 
L 475.861119 204.18659 
L 475.566324 205.933914 
L 473.747325 205.626333 
L 473.391387 207.736865 
L 471.157491 207.360569 
L 471.541817 205.079885 
L 468.650636 204.592336 
L 468.947615 202.818835 
L 471.958898 203.322745 
L 472.212204 201.811015 
L 474.288876 202.161134 
" clip-path="url(#p546e77349e)" style="fill: #f29888"/>
    <path d="M 451.074264 196.510143 
L 450.820958 198.502878 
L 448.237674 198.172392 
L 448.488796 196.182929 
L 451.074264 196.510143 
" clip-path="url(#p546e77349e)" style="fill: #f29888"/>
    <path d="M 451.78614 191.310709 
L 451.342855 193.558671 
L 448.781408 193.051489 
L 449.224694 190.806799 
L 451.78614 191.310709 
" clip-path="url(#p546e77349e)" style="fill: #f29888"/>
    <path d="M 410.67634 208.181876 
L 410.37936 210.642528 
L 407.761138 210.32513 
L 408.060301 207.864479 
L 410.67634 208.181876 
" clip-path="url(#p546e77349e)" style="fill: #f29888"/>
    <path d="M 398.764411 206.310211 
L 398.456514 208.862482 
L 395.884148 208.554901 
L 396.192046 206.002629 
L 398.764411 206.310211 
" clip-path="url(#p546e77349e)" style="fill: #f29888"/>
    <path d="M 391.556111 205.341657 
L 391.080071 207.278765 
L 389.025236 206.771583 
L 389.501276 204.837747 
L 391.556111 205.341657 
" clip-path="url(#p546e77349e)" style="fill: #f29888"/>
    <path d="M 418.083354 198.529055 
L 417.620415 202.579968 
L 414.989091 202.278931 
L 415.449846 198.23129 
L 418.083354 198.529055 
" clip-path="url(#p546e77349e)" style="fill: #f29888"/>
    <path d="M 412.536828 198.967523 
L 412.106645 202.102235 
L 409.197994 201.703034 
L 409.628177 198.568321 
L 412.536828 198.967523 
" clip-path="url(#p546e77349e)" style="fill: #f29888"/>
    <path d="M 406.627813 197.86481 
L 406.260956 200.88827 
L 402.994183 200.492341 
L 403.36104 197.468881 
L 406.627813 197.86481 
" clip-path="url(#p546e77349e)" style="fill: #f29888"/>
    <path d="M 399.906471 197.239831 
L 399.701206 199.851001 
L 397.478229 199.677578 
L 397.683494 197.066408 
L 399.906471 197.239831 
" clip-path="url(#p546e77349e)" style="fill: #f29888"/>
    <path d="M 394.822884 196.238556 
L 394.499701 198.640308 
L 391.464397 198.234563 
L 391.787581 195.829538 
L 394.822884 196.238556 
" clip-path="url(#p546e77349e)" style="fill: #f29888"/>
    <path d="M 415.034948 184.498108 
L 414.668091 186.893316 
L 412.09791 186.497387 
L 412.46695 184.10545 
L 415.034948 184.498108 
" clip-path="url(#p546e77349e)" style="fill: #f29888"/>
    <path d="M 409.457851 183.241605 
L 409.005831 185.66299 
L 406.498976 185.195074 
L 406.95318 182.770416 
L 409.457851 183.241605 
" clip-path="url(#p546e77349e)" style="fill: #f29888"/>
    <path d="M 439.424376 188.702811 
L 438.845703 191.078387 
L 436.515725 190.512306 
L 437.094398 188.133458 
L 439.424376 188.702811 
" clip-path="url(#p546e77349e)" style="fill: #f29888"/>
    <path d="M 433.554667 187.878231 
L 433.2293 190.126193 
L 431.309852 189.848061 
L 431.635219 187.600099 
L 433.554667 187.878231 
" clip-path="url(#p546e77349e)" style="fill: #f29888"/>
    <path d="M 428.47763 186.880227 
L 428.036529 189.321246 
L 425.903081 188.935133 
L 426.344183 186.494115 
L 428.47763 186.880227 
" clip-path="url(#p546e77349e)" style="fill: #f29888"/>
    <path d="M 421.011657 185.20489 
L 420.684106 187.564105 
L 418.251496 187.227075 
L 418.579047 184.86786 
L 421.011657 185.20489 
" clip-path="url(#p546e77349e)" style="fill: #f29888"/>
    <path d="M 481.964481 181.56954 
L 479.56681 188.555564 
L 472.022225 185.954211 
L 474.31508 178.915832 
L 481.964481 181.56954 
" clip-path="url(#p546e77349e)" style="fill: #f29888"/>
    <path d="M 450.296876 182.704973 
L 449.980244 184.910398 
L 447.848981 184.606088 
L 448.165613 182.397392 
L 450.296876 182.704973 
" clip-path="url(#p546e77349e)" style="fill: #f29888"/>
    <path d="M 441.064313 180.047993 
L 440.695273 182.750783 
L 438.280132 182.420297 
L 438.649172 179.717507 
L 441.064313 180.047993 
" clip-path="url(#p546e77349e)" style="fill: #f29888"/>
    <path d="M 435.081053 179.524451 
L 434.751319 181.828039 
L 432.716137 181.536818 
L 433.045871 179.23323 
L 435.081053 179.524451 
" clip-path="url(#p546e77349e)" style="fill: #f29888"/>
    <path d="M 422.771696 177.073616 
L 422.339329 179.491729 
L 420.336903 179.131794 
L 420.76927 176.71368 
L 422.771696 177.073616 
" clip-path="url(#p546e77349e)" style="fill: #f29888"/>
    <path d="M 455.231974 174.851831 
L 454.92626 176.985268 
L 449.947489 176.268669 
L 450.255387 174.135232 
L 455.231974 174.851831 
" clip-path="url(#p546e77349e)" style="fill: #f29888"/>
    <path d="M 403.354489 182.41048 
L 403.059693 184.710797 
L 400.399981 184.370494 
L 400.694777 182.070178 
L 403.354489 182.41048 
" clip-path="url(#p546e77349e)" style="fill: #f29888"/>
    <path d="M 397.63982 181.598989 
L 397.107005 184.164349 
L 395.089292 183.742243 
L 395.622108 181.180155 
L 397.63982 181.598989 
" clip-path="url(#p546e77349e)" style="fill: #f29888"/>
    <path d="M 391.833438 180.247594 
L 391.488418 183.392123 
L 389.055807 183.12708 
L 389.400828 179.979278 
L 391.833438 180.247594 
" clip-path="url(#p546e77349e)" style="fill: #f29888"/>
    <path d="M 417.683742 176.556617 
L 417.150926 178.945281 
L 414.794744 178.421739 
L 415.325376 176.033074 
L 417.683742 176.556617 
" clip-path="url(#p546e77349e)" style="fill: #f29888"/>
    <path d="M 412.475685 174.694768 
L 411.868624 177.862202 
L 409.674034 177.440096 
L 410.278911 174.272662 
L 412.475685 174.694768 
" clip-path="url(#p546e77349e)" style="fill: #f29888"/>
    <path d="M 407.407383 174.550794 
L 406.905139 177.008173 
L 403.909141 176.396282 
L 404.409202 173.938903 
L 407.407383 174.550794 
" clip-path="url(#p546e77349e)" style="fill: #f29888"/>
    <path d="M 401.952572 173.189582 
L 401.452511 175.977448 
L 399.174942 175.56843 
L 399.672819 172.780565 
L 401.952572 173.189582 
" clip-path="url(#p546e77349e)" style="fill: #f29888"/>
    <path d="M 397.417086 172.338825 
L 396.746699 175.257577 
L 393.816212 174.583515 
L 394.488782 171.664764 
L 397.417086 172.338825 
" clip-path="url(#p546e77349e)" style="fill: #f29888"/>
    <path d="M 391.883662 171.311372 
L 391.361765 174.089422 
L 389.160624 173.677132 
L 389.684705 170.89581 
L 391.883662 171.311372 
" clip-path="url(#p546e77349e)" style="fill: #f29888"/>
    <path d="M 416.729477 160.261347 
L 416.366988 162.447138 
L 413.836112 162.028304 
L 414.198602 159.842512 
L 416.729477 160.261347 
" clip-path="url(#p546e77349e)" style="fill: #f29888"/>
    <path d="M 496.625652 177.345204 
L 499.331221 178.27122 
L 502.344688 174.485351 
L 503.041279 174.639142 
L 504.353666 171.317917 
L 506.441256 172.090142 
L 507.677214 169.616403 
L 509.841233 170.853272 
L 511.387272 168.071951 
L 510.151314 166.681291 
L 511.232231 164.361341 
L 514.479351 166.370437 
L 510.924334 173.09469 
L 508.681703 171.936352 
L 506.286215 175.800752 
L 502.731198 176.340656 
L 498.403161 181.595717 
L 495.621163 179.046718 
L 496.625652 177.345204 
" clip-path="url(#p546e77349e)" style="fill: #f29888"/>
    <path d="M 455.535505 169.102676 
L 455.465627 171.043057 
L 452.152997 170.92526 
L 452.222875 168.984879 
L 455.535505 169.102676 
" clip-path="url(#p546e77349e)" style="fill: #f29888"/>
    <path d="M 490.057168 168.304273 
L 493.612186 169.38408 
L 496.317755 160.883054 
L 500.56718 162.663099 
L 497.322244 171.007063 
L 493.922267 170.159578 
L 490.985229 178.503542 
L 486.810049 177.345204 
L 490.057168 168.304273 
" clip-path="url(#p546e77349e)" style="fill: #f29888"/>
    <path d="M 483.102174 165.830533 
L 479.855055 174.410092 
L 476.223609 172.9409 
L 479.392116 164.439873 
L 483.102174 165.830533 
" clip-path="url(#p546e77349e)" style="fill: #f29888"/>
    <path d="M 456.592402 163.906513 
L 456.267035 166.635481 
L 452.882344 166.233007 
L 453.207711 163.50404 
L 456.592402 163.906513 
" clip-path="url(#p546e77349e)" style="fill: #f29888"/>
    <path d="M 443.45325 161.874513 
L 443.193393 164.165013 
L 441.418068 163.965412 
L 441.675741 161.674912 
L 443.45325 161.874513 
" clip-path="url(#p546e77349e)" style="fill: #f29888"/>
    <path d="M 438.858805 160.732535 
L 440.2236 160.902686 
L 439.998681 162.715454 
L 438.631703 162.54203 
L 438.858805 160.732535 
" clip-path="url(#p546e77349e)" style="fill: #f29888"/>
    <path d="M 432.698667 160.163182 
L 432.432259 162.394784 
L 430.39271 162.152645 
L 430.659118 159.921044 
L 432.698667 160.163182 
" clip-path="url(#p546e77349e)" style="fill: #f29888"/>
    <path d="M 425.651959 159.034293 
L 425.363715 162.12974 
L 423.295778 161.936684 
L 423.584022 158.841237 
L 425.651959 159.034293 
" clip-path="url(#p546e77349e)" style="fill: #f29888"/>
    <path d="M 490.830188 156.400218 
L 488.897639 163.049212 
L 478.695525 159.724715 
L 479.547157 156.47875 
L 490.830188 156.400218 
" clip-path="url(#p546e77349e)" style="fill: #f29888"/>
    <path d="M 386.2083 170.323185 
L 385.533545 173.356462 
L 383.295282 172.859096 
L 383.970036 169.82582 
L 386.2083 170.323185 
" clip-path="url(#p546e77349e)" style="fill: #f29888"/>
    <path d="M 381.34308 170.058142 
L 380.987141 172.283199 
L 378.259735 171.848004 
L 378.61349 169.619675 
L 381.34308 170.058142 
" clip-path="url(#p546e77349e)" style="fill: #f29888"/>
    <path d="M 374.870677 168.232286 
L 374.261433 171.42917 
L 372.280843 171.052873 
L 372.890087 167.852718 
L 374.870677 168.232286 
" clip-path="url(#p546e77349e)" style="fill: #f29888"/>
    <path d="M 390.75252 154.384578 
L 390.385663 156.40349 
L 388.846175 156.125358 
L 389.213032 154.106446 
L 390.75252 154.384578 
" clip-path="url(#p546e77349e)" style="fill: #f29888"/>
    <path d="M 384.184036 151.920655 
L 383.769139 154.276598 
L 381.696834 153.91339 
L 382.111732 151.557447 
L 384.184036 151.920655 
" clip-path="url(#p546e77349e)" style="fill: #f29888"/>
    <path d="M 378.698653 150.762316 
L 378.347082 153.131348 
L 376.167778 152.807405 
L 376.519349 150.441646 
L 378.698653 150.762316 
" clip-path="url(#p546e77349e)" style="fill: #f29888"/>
    <path d="M 373.217638 149.74468 
L 372.774352 152.274046 
L 370.671477 151.907566 
L 371.114762 149.374928 
L 373.217638 149.74468 
" clip-path="url(#p546e77349e)" style="fill: #f29888"/>
    <path d="M 368.21703 148.514354 
L 368.009581 151.102619 
L 365.559501 150.906291 
L 365.764767 148.318026 
L 368.21703 148.514354 
" clip-path="url(#p546e77349e)" style="fill: #f29888"/>
    <path d="M 386.112218 142.968072 
L 385.662382 145.589059 
L 383.345506 145.193129 
L 383.793159 142.572143 
L 386.112218 142.968072 
" clip-path="url(#p546e77349e)" style="fill: #f29888"/>
    <path d="M 381.592018 142.297283 
L 381.30159 144.512524 
L 378.563266 144.15586 
L 378.85151 141.937347 
L 381.592018 142.297283 
" clip-path="url(#p546e77349e)" style="fill: #f29888"/>
    <path d="M 420.297597 159.567652 
L 419.657781 162.126468 
L 418.120476 161.743627 
L 418.758108 159.184812 
L 420.297597 159.567652 
" clip-path="url(#p546e77349e)" style="fill: #f29888"/>
    <path d="M 410.608646 159.551292 
L 410.407748 161.429501 
L 408.24373 161.197179 
L 408.444627 159.322242 
L 410.608646 159.551292 
" clip-path="url(#p546e77349e)" style="fill: #f29888"/>
    <path d="M 396.305597 155.418575 
L 395.663598 158.258795 
L 393.493028 157.767974 
L 394.135028 154.927754 
L 396.305597 155.418575 
" clip-path="url(#p546e77349e)" style="fill: #f29888"/>
    <path d="M 404.682161 155.490562 
L 404.203937 158.000296 
L 402.332531 157.643632 
L 402.810755 155.133899 
L 404.682161 155.490562 
" clip-path="url(#p546e77349e)" style="fill: #f29888"/>
    <path d="M 399.406411 154.364945 
L 399.057023 156.832141 
L 396.945413 156.531104 
L 397.2948 154.063908 
L 399.406411 154.364945 
" clip-path="url(#p546e77349e)" style="fill: #f29888"/>
    <path d="M 412.370869 145.461445 
L 411.676461 150.104616 
L 409.518994 149.780673 
L 410.213401 145.137503 
L 412.370869 145.461445 
" clip-path="url(#p546e77349e)" style="fill: #f29888"/>
    <path d="M 405.014079 145.824653 
L 406.767568 146.142051 
L 406.226017 149.129517 
L 404.472529 148.812119 
L 405.014079 145.824653 
" clip-path="url(#p546e77349e)" style="fill: #f29888"/>
    <path d="M 401.400103 146.155139 
L 401.002675 148.288576 
L 399.231717 147.961362 
L 399.629145 145.824653 
L 401.400103 146.155139 
" clip-path="url(#p546e77349e)" style="fill: #f29888"/>
    <path d="M 396.410413 145.153864 
L 395.997699 147.594882 
L 393.831497 147.228402 
L 394.244211 144.787384 
L 396.410413 145.153864 
" clip-path="url(#p546e77349e)" style="fill: #f29888"/>
    <path d="M 391.28752 144.165677 
L 390.905377 146.590334 
L 388.53391 146.21731 
L 388.916053 143.792652 
L 391.28752 144.165677 
" clip-path="url(#p546e77349e)" style="fill: #f29888"/>
    <path d="M 445.711166 153.569815 
L 445.484064 155.683619 
L 443.068924 155.42512 
L 443.296025 153.311315 
L 445.711166 153.569815 
" clip-path="url(#p546e77349e)" style="fill: #f29888"/>
    <path d="M 458.498747 153.200063 
L 458.15591 155.673802 
L 454.258057 155.130627 
L 454.600893 152.660159 
L 458.498747 153.200063 
" clip-path="url(#p546e77349e)" style="fill: #f29888"/>
    <path d="M 435.089788 152.054813 
L 434.794992 154.312591 
L 432.528341 154.014826 
L 432.823137 151.76032 
L 435.089788 152.054813 
" clip-path="url(#p546e77349e)" style="fill: #f29888"/>
    <path d="M 428.112957 149.793762 
L 427.440386 152.977557 
L 425.217409 152.506368 
L 425.892163 149.322573 
L 428.112957 149.793762 
" clip-path="url(#p546e77349e)" style="fill: #f29888"/>
    <path d="M 420.162209 148.619063 
L 422.599186 149.175327 
L 421.915697 152.17261 
L 419.47872 151.616345 
L 420.162209 148.619063 
" clip-path="url(#p546e77349e)" style="fill: #f29888"/>
    <path d="M 459.171318 147.607971 
L 458.786992 150.052261 
L 456.441728 149.682509 
L 456.826054 147.238219 
L 459.171318 147.607971 
" clip-path="url(#p546e77349e)" style="fill: #f29888"/>
    <path d="M 462.634621 131.224352 
L 462.267764 133.770079 
L 459.972725 133.439593 
L 460.339582 130.893866 
L 462.634621 131.224352 
" clip-path="url(#p546e77349e)" style="fill: #f29888"/>
    <path d="M 441.568741 127.28142 
L 441.107987 130.118368 
L 437.983153 129.611186 
L 438.443907 126.774238 
L 441.568741 127.28142 
" clip-path="url(#p546e77349e)" style="fill: #f29888"/>
    <path d="M 464.720027 120.082706 
L 464.372823 122.160517 
L 461.540601 121.689328 
L 461.887805 119.611518 
L 464.720027 120.082706 
" clip-path="url(#p546e77349e)" style="fill: #f29888"/>
    <path d="M 469.399635 117.131234 
L 471.581123 117.265391 
L 471.205532 123.348305 
L 469.024044 123.214147 
L 469.399635 117.131234 
" clip-path="url(#p546e77349e)" style="fill: #f29888"/>
    <path d="M 370.22164 140.595769 
L 369.89409 143.000794 
L 367.564112 142.680124 
L 367.891663 140.278371 
L 370.22164 140.595769 
" clip-path="url(#p546e77349e)" style="fill: #f29888"/>
    <path d="M 380.102754 116.129958 
L 379.609244 118.773849 
L 377.484532 118.37792 
L 377.975858 115.737301 
L 380.102754 116.129958 
" clip-path="url(#p546e77349e)" style="fill: #f29888"/>
    <path d="M 374.370616 115.187581 
L 373.759188 118.413913 
L 370.870191 117.864193 
L 371.481619 114.641133 
L 374.370616 115.187581 
" clip-path="url(#p546e77349e)" style="fill: #f29888"/>
    <path d="M 367.629622 113.953983 
L 367.269316 116.804019 
L 365.004849 116.519343 
L 365.365155 113.669307 
L 367.629622 113.953983 
" clip-path="url(#p546e77349e)" style="fill: #f29888"/>
    <path d="M 389.263256 107.272268 
L 388.769747 110.043772 
L 386.688708 109.67402 
L 387.180034 106.902515 
L 389.263256 107.272268 
" clip-path="url(#p546e77349e)" style="fill: #f29888"/>
    <path d="M 383.384812 106.549124 
L 382.734078 109.127572 
L 380.622468 108.594213 
L 381.273202 106.015765 
L 383.384812 106.549124 
" clip-path="url(#p546e77349e)" style="fill: #f29888"/>
    <path d="M 379.340653 105.194457 
L 378.838408 108.159018 
L 376.552104 107.772905 
L 377.054349 104.808344 
L 379.340653 105.194457 
" clip-path="url(#p546e77349e)" style="fill: #f29888"/>
    <path d="M 364.611788 191.876789 
L 364.375951 194.200011 
L 362.021954 193.957872 
L 362.259974 191.634651 
L 364.611788 191.876789 
" clip-path="url(#p546e77349e)" style="fill: #f29888"/>
    <path d="M 357.73759 190.685729 
L 357.383835 193.205279 
L 355.167409 192.894426 
L 355.523347 190.374876 
L 357.73759 190.685729 
" clip-path="url(#p546e77349e)" style="fill: #f29888"/>
    <path d="M 352.343921 189.291797 
L 351.987983 192.066574 
L 349.291148 191.722999 
L 349.644903 188.948222 
L 352.343921 189.291797 
" clip-path="url(#p546e77349e)" style="fill: #f29888"/>
    <path d="M 345.950131 189.020209 
L 345.755784 191.307437 
L 343.176868 191.088203 
L 343.371215 188.800975 
L 345.950131 189.020209 
" clip-path="url(#p546e77349e)" style="fill: #f29888"/>
    <path d="M 340.770462 188.382141 
L 340.322809 191.075114 
L 337.669648 190.633375 
L 338.117301 187.940402 
L 340.770462 188.382141 
" clip-path="url(#p546e77349e)" style="fill: #f29888"/>
    <path d="M 334.911671 187.22053 
L 334.450916 189.952769 
L 331.91349 189.524119 
L 332.374245 186.795152 
L 334.911671 187.22053 
" clip-path="url(#p546e77349e)" style="fill: #f29888"/>
    <path d="M 362.607178 175.588063 
L 362.194464 177.816392 
L 360.124343 177.433551 
L 360.537057 175.205222 
L 362.607178 175.588063 
" clip-path="url(#p546e77349e)" style="fill: #f29888"/>
    <path d="M 357.396937 174.37737 
L 357.254999 177.024534 
L 354.586552 176.880559 
L 354.728491 174.236668 
L 357.396937 174.37737 
" clip-path="url(#p546e77349e)" style="fill: #f29888"/>
    <path d="M 351.546881 173.582239 
L 351.273922 176.02653 
L 348.612026 175.732037 
L 348.884985 173.284474 
L 351.546881 173.582239 
" clip-path="url(#p546e77349e)" style="fill: #f29888"/>
    <path d="M 343.628888 172.054149 
L 345.699009 172.214484 
L 345.476274 175.048159 
L 343.408337 174.887824 
L 343.628888 172.054149 
" clip-path="url(#p546e77349e)" style="fill: #f29888"/>
    <path d="M 339.558524 171.380087 
L 339.189484 174.007618 
L 336.852955 173.677132 
L 337.224179 171.049601 
L 339.558524 171.380087 
" clip-path="url(#p546e77349e)" style="fill: #f29888"/>
    <path d="M 364.613972 167.240827 
L 364.185972 169.835636 
L 362.15079 169.501878 
L 362.576606 166.907068 
L 364.613972 167.240827 
" clip-path="url(#p546e77349e)" style="fill: #f29888"/>
    <path d="M 359.65267 166.213374 
L 359.344772 168.791823 
L 357.268101 168.54314 
L 357.575998 165.964691 
L 359.65267 166.213374 
" clip-path="url(#p546e77349e)" style="fill: #f29888"/>
    <path d="M 354.693552 165.421516 
L 354.285205 168.026141 
L 351.669167 167.613851 
L 352.079697 165.012498 
L 354.693552 165.421516 
" clip-path="url(#p546e77349e)" style="fill: #f29888"/>
    <path d="M 349.736617 164.78672 
L 349.219087 166.946334 
L 346.607416 166.321355 
L 347.124946 164.161741 
L 349.736617 164.78672 
" clip-path="url(#p546e77349e)" style="fill: #f29888"/>
    <path d="M 341.969298 162.807074 
L 341.312012 165.784723 
L 339.126157 165.300446 
L 339.783442 162.322796 
L 341.969298 162.807074 
" clip-path="url(#p546e77349e)" style="fill: #f29888"/>
    <path d="M 362.550402 147.889375 
L 362.3233 150.012996 
L 360.406037 149.810123 
L 360.633138 147.686502 
L 362.550402 147.889375 
" clip-path="url(#p546e77349e)" style="fill: #f29888"/>
    <path d="M 346.867273 147.208769 
L 348.657884 147.450908 
L 348.360904 149.646516 
L 346.570294 149.404377 
L 346.867273 147.208769 
" clip-path="url(#p546e77349e)" style="fill: #f29888"/>
    <path d="M 355.333368 146.871739 
L 357.316141 147.113877 
L 357.021346 149.535263 
L 355.038572 149.296396 
L 355.333368 146.871739 
" clip-path="url(#p546e77349e)" style="fill: #f29888"/>
    <path d="M 350.182086 145.975171 
L 352.20635 146.289297 
L 351.846044 148.602702 
L 349.821781 148.288576 
L 350.182086 145.975171 
" clip-path="url(#p546e77349e)" style="fill: #f29888"/>
    <path d="M 364.974277 139.522506 
L 364.515706 141.796645 
L 361.997933 141.289463 
L 362.458688 139.015324 
L 364.974277 139.522506 
" clip-path="url(#p546e77349e)" style="fill: #f29888"/>
    <path d="M 359.344772 138.707743 
L 359.043426 141.02442 
L 357.021346 140.759376 
L 357.322692 138.445971 
L 359.344772 138.707743 
" clip-path="url(#p546e77349e)" style="fill: #f29888"/>
    <path d="M 347.884864 136.914608 
L 347.43066 138.972786 
L 345.478458 138.540863 
L 345.934845 136.482685 
L 347.884864 136.914608 
" clip-path="url(#p546e77349e)" style="fill: #f29888"/>
    <path d="M 361.655097 112.88072 
L 361.161587 116.156135 
L 358.73116 115.789655 
L 359.226854 112.51424 
L 361.655097 112.88072 
" clip-path="url(#p546e77349e)" style="fill: #f29888"/>
    <path d="M 355.176143 112.088862 
L 354.518858 114.595323 
L 352.503329 114.065236 
L 353.160614 111.558775 
L 355.176143 112.088862 
" clip-path="url(#p546e77349e)" style="fill: #f29888"/>
    <path d="M 364.744992 102.887596 
L 364.262401 105.459501 
L 361.52626 104.945774 
L 362.008852 102.37387 
L 364.744992 102.887596 
" clip-path="url(#p546e77349e)" style="fill: #f29888"/>
    <path d="M 357.84459 100.462939 
L 357.115244 104.245536 
L 354.49047 103.738353 
L 355.219817 99.955756 
L 357.84459 100.462939 
" clip-path="url(#p546e77349e)" style="fill: #f29888"/>
    <path d="M 412.630726 122.078713 
L 412.076073 125.383577 
L 409.621626 124.971287 
L 410.176279 121.666423 
L 412.630726 122.078713 
" clip-path="url(#p546e77349e)" style="fill: #f29888"/>
    <path d="M 404.968222 120.436098 
L 404.631937 123.806405 
L 402.317245 123.577355 
L 402.65353 120.207048 
L 404.968222 120.436098 
" clip-path="url(#p546e77349e)" style="fill: #f29888"/>
    <path d="M 399.159656 119.506809 
L 398.670513 122.055808 
L 396.484658 121.633702 
L 396.973801 119.087975 
L 399.159656 119.506809 
" clip-path="url(#p546e77349e)" style="fill: #f29888"/>
    <path d="M 393.091233 118.502261 
L 392.501641 121.411196 
L 390.082133 120.920375 
L 390.671724 118.01144 
L 393.091233 118.502261 
" clip-path="url(#p546e77349e)" style="fill: #f29888"/>
    <path d="M 409.888034 110.328449 
L 412.650379 110.809454 
L 412.084808 114.052147 
L 409.322463 113.571142 
L 409.888034 110.328449 
" clip-path="url(#p546e77349e)" style="fill: #f29888"/>
    <path d="M 403.046591 108.993415 
L 405.018447 109.425337 
L 404.319672 112.615677 
L 402.347816 112.187026 
L 403.046591 108.993415 
" clip-path="url(#p546e77349e)" style="fill: #f29888"/>
    <path d="M 395.927822 108.168835 
L 395.410292 110.891257 
L 392.885967 110.413525 
L 393.401314 107.68783 
L 395.927822 108.168835 
" clip-path="url(#p546e77349e)" style="fill: #f29888"/>
    <path d="M 457.382891 118.472812 
L 456.607687 122.356845 
L 454.292995 121.892201 
L 455.070383 118.01144 
L 457.382891 118.472812 
" clip-path="url(#p546e77349e)" style="fill: #f29888"/>
    <path d="M 448.29445 117.684226 
L 447.554185 121.070893 
L 444.890106 120.491724 
L 445.628187 117.101784 
L 448.29445 117.684226 
" clip-path="url(#p546e77349e)" style="fill: #f29888"/>
    <path d="M 434.8474 114.794924 
L 434.216319 117.952541 
L 431.718199 117.455176 
L 432.34928 114.297558 
L 434.8474 114.794924 
" clip-path="url(#p546e77349e)" style="fill: #f29888"/>
    <path d="M 425.05145 112.337544 
L 424.579776 115.321739 
L 422.448513 114.984708 
L 422.920186 112.000514 
L 425.05145 112.337544 
" clip-path="url(#p546e77349e)" style="fill: #f29888"/>
   </g>
   <g id="LineCollection_1">
    <path d="M 760.299279 559.405433 
L 757.419364 556.73379 
" clip-path="url(#p546e77349e)" style="fill: none; stroke: #f29888; stroke-width: 0.5"/>
    <path d="M 757.419364 556.73379 
L 745.952904 570.55532 
L 739.924726 578.750981 
" clip-path="url(#p546e77349e)" style="fill: none; stroke: #f29888; stroke-width: 0.2"/>
    <path d="M 757.419364 556.73379 
L 766.772287 546.567116 
" clip-path="url(#p546e77349e)" style="fill: none; stroke: #f29888; stroke-width: 0.2"/>
    <path d="M 745.952904 570.55532 
L 732.112794 561.563472 
L 725.201473 556.769783 
L 665.272791 517.513887 
L 641.003465 502.776156 
L 634.164206 501.696349 
L 602.968274 478.765173 
L 548.564281 438.949741 
L 520.421121 416.398133 
L 509.07258 408.099979 
L 484.5565 388.251162 
L 445.051697 356.200524 
L 433.884401 347.44427 
L 408.298321 325.3933 
L 397.816698 316.9479 
L 388.712971 311.558681 
L 380.928182 306.856612 
L 375.519227 303.816791 
L 367.31299 300.109454 
L 355.652184 295.741143 
L 333.546876 288.725669 
L 332.149327 288.431176 
L 293.509258 280.293357 
" clip-path="url(#p546e77349e)" style="fill: none; stroke: #f29888; stroke-width: 0.2"/>
    <path d="M 461.042724 322.134246 
L 534.339844 381.778863 
L 540.709614 390.083562 
L 592.095773 430.576328 
L 616.11616 447.542387 
L 640.509955 470.453931 
L 649.25556 459.70167 
L 651.327864 457.155943 
" clip-path="url(#p546e77349e)" style="fill: none; stroke: #f29888; stroke-width: 0.2"/>
    <path d="M 509.07258 408.099979 
L 534.339844 381.778863 
L 541.869143 374.403454 
L 559.25772 357.368679 
L 572.713504 343.717299 
L 584.749902 329.061372 
" clip-path="url(#p546e77349e)" style="fill: none; stroke: #f29888; stroke-width: 0.2"/>
    <path d="M 541.869143 374.403454 
L 519.536734 352.313218 
L 493.658043 327.176618 
L 475.332671 308.973688 
" clip-path="url(#p546e77349e)" style="fill: none; stroke: #f29888; stroke-width: 0.2"/>
    <path d="M 659.350674 399.91635 
L 584.749902 329.061372 
L 582.647026 327.065365 
L 525.137852 266.445649 
" clip-path="url(#p546e77349e)" style="fill: none; stroke: #f29888; stroke-width: 0.2"/>
    <path d="M 495.494511 288.388638 
L 475.332671 308.973688 
L 461.042724 322.134246 
L 433.884401 347.44427 
" clip-path="url(#p546e77349e)" style="fill: none; stroke: #f29888; stroke-width: 0.2"/>
    <path d="M 757.419364 556.73379 
L 686.834364 492.35111 
L 651.327864 457.155943 
L 629.766291 433.743762 
L 610.311961 412.622081 
L 559.25772 357.368679 
L 497.704386 290.754398 
L 495.494511 288.388638 
L 476.535874 269.71452 
L 472.524469 266.200239 
L 468.434452 263.07207 
L 463.831273 260.238395 
L 457.823992 257.264017 
L 452.539507 255.156757 
L 447.490859 253.520686 
L 443.095128 252.411429 
L 437.690541 251.148382 
L 430.215833 249.715184 
L 407.040526 246.109283 
L 380.434672 242.159806 
L 338.875035 236.129247 
L 312.131609 232.130689 
L 264.660773 224.912342 
L 263.562386 224.742191 
L 52.643734 194.006954 
" clip-path="url(#p546e77349e)" style="fill: none; stroke: #f29888; stroke-width: 0.5"/>
    <path d="M 397.816698 316.9479 
L 400.736267 312.468337 
L 403.655836 309.058764 
L 409.018933 304.137461 
L 419.266904 294.078895 
L 437.096582 274.02066 
L 443.855045 266.262409 
L 445.147779 264.204232 
L 445.835635 262.227857 
L 446.259268 259.220758 
L 447.490859 253.520686 
" clip-path="url(#p546e77349e)" style="fill: none; stroke: #f29888; stroke-width: 0.2"/>
    <path d="M 293.509258 280.293357 
L 297.990152 263.837752 
L 300.027518 255.690116 
" clip-path="url(#p546e77349e)" style="fill: none; stroke: #f29888; stroke-width: 0.2"/>
    <path d="M 332.149327 288.431176 
L 340.82287 248.39651 
L 341.07836 245.072013 
L 340.796666 243.177443 
L 339.953769 241.760605 
L 339.239708 240.494286 
L 338.647933 238.779683 
L 338.702525 237.218871 
L 338.875035 236.129247 
" clip-path="url(#p546e77349e)" style="fill: none; stroke: #f29888; stroke-width: 0.2"/>
    <path d="M 414.989091 238.056539 
L 421.981207 239.234511 
" clip-path="url(#p546e77349e)" style="fill: none; stroke: #f29888; stroke-width: 0.2"/>
    <path d="M 414.534887 239.313042 
L 413.423398 239.427567 
L 412.412359 239.234511 
L 328.467656 225.09231 
L 325.279496 224.846899 
L 314.282526 224.918886 
" clip-path="url(#p546e77349e)" style="fill: none; stroke: #f29888; stroke-width: 0.2"/>
    <path d="M 323.373151 190.980222 
L 419.900168 207.278765 
" clip-path="url(#p546e77349e)" style="fill: none; stroke: #f29888; stroke-width: 0.2"/>
    <path d="M 447.490859 253.520686 
L 448.563041 248.216542 
L 458.348074 207.108614 
L 462.232825 190.744628 
L 469.165982 163.055756 
L 472.419653 149.800306 
L 473.015795 130.033292 
L 473.644693 124.918933 
" clip-path="url(#p546e77349e)" style="fill: none; stroke: #f29888; stroke-width: 0.2"/>
    <path d="M 414.534887 239.313042 
L 414.829683 238.66843 
L 414.989091 238.056539 
L 415.141948 237.461009 
L 419.900168 207.278765 
L 422.101309 195.685563 
L 424.608164 184.017103 
L 429.589119 156.959755 
L 437.046357 123.560994 
" clip-path="url(#p546e77349e)" style="fill: none; stroke: #f29888; stroke-width: 0.2"/>
    <path d="M 629.766291 433.743762 
L 634.164206 430.118228 
L 638.638549 425.838265 
L 659.350674 399.91635 
L 672.293295 383.715972 
L 673.8306 381.854123 
L 687.467629 365.329802 
L 721.316722 320.095701 
L 741.64452 294.51409 
L 747.526574 286.408082 
" clip-path="url(#p546e77349e)" style="fill: none; stroke: #f29888; stroke-width: 0.2"/>
    <path d="M 563.651267 234.840023 
L 525.137852 266.445649 
L 497.704386 290.754398 
" clip-path="url(#p546e77349e)" style="fill: none; stroke: #f29888; stroke-width: 0.2"/>
    <path d="M 448.563041 248.216542 
L 453.740527 244.905134 
L 455.216689 244.905134 
L 456.225545 245.680632 
L 458.247625 247.467222 
L 464.92966 254.073678 
L 466.414556 254.944068 
L 468.115636 255.016055 
L 469.652941 254.35181 
L 476.889629 249.410875 
L 482.012522 246.112555 
L 504.29034 234.424461 
L 511.959394 230.815288 
L 529.457154 222.926151 
L 543.098551 211.009008 
L 571.115057 185.859319 
L 580.327967 176.370105 
" clip-path="url(#p546e77349e)" style="fill: none; stroke: #f29888; stroke-width: 0.2"/>
    <path d="M 472.419653 149.800306 
L 494.677817 156.52456 
L 506.262195 162.201727 
L 510.968007 159.103008 
L 523.041527 152.532545 
L 534.049416 144.011886 
L 551.230052 129.395044 
" clip-path="url(#p546e77349e)" style="fill: none; stroke: #f29888; stroke-width: 0.2"/>
    <path d="M 462.232825 190.744628 
L 424.608164 184.017103 
L 354.357266 171.697485 
L 344.190092 169.881446 
L 329.897961 166.20683 
" clip-path="url(#p546e77349e)" style="fill: none; stroke: #f29888; stroke-width: 0.2"/>
    <path d="M 336.466445 140.131125 
L 429.589119 156.959755 
L 469.165982 163.055756 
" clip-path="url(#p546e77349e)" style="fill: none; stroke: #f29888; stroke-width: 0.2"/>
    <path d="M 52.643734 194.006954 
L 51.000543 193.765641 
" clip-path="url(#p546e77349e)" style="fill: none; stroke: #f29888; stroke-width: 0.5"/>
    <path d="M 473.015795 130.033292 
L 437.046357 123.560994 
L 345.757968 106.274264 
" clip-path="url(#p546e77349e)" style="fill: none; stroke: #f29888; stroke-width: 0.2"/>
    <path d="M 473.644693 124.918933 
L 474.507243 92.583619 
" clip-path="url(#p546e77349e)" style="fill: none; stroke: #f29888; stroke-width: 0.2"/>
    <path d="M 312.131609 232.130689 
L 314.282526 224.918886 
L 323.373151 190.980222 
L 329.897961 166.20683 
L 336.466445 140.131125 
L 345.757968 106.274264 
L 357.366366 61.06634 
L 363.520148 35.840159 
" clip-path="url(#p546e77349e)" style="fill: none; stroke: #f29888; stroke-width: 0.2"/>
   </g>
  </g>
 </g>
 <defs>
  <clipPath id="p546e77349e">
   <rect x="7.2" y="7.2" width="837" height="604.267248"/>
  </clipPath>
 </defs>
</svg>
