<?xml version="1.0" encoding="utf-8" standalone="no"?>
<!DOCTYPE svg PUBLIC "-//W3C//DTD SVG 1.1//EN"
  "http://www.w3.org/Graphics/SVG/1.1/DTD/svg11.dtd">
<svg xmlns:xlink="http://www.w3.org/1999/xlink" width="851.4pt" height="602.495904pt" viewBox="0 0 851.4 602.495904" xmlns="http://www.w3.org/2000/svg" version="1.1">
 <metadata>
  <rdf:RDF xmlns:dc="http://purl.org/dc/elements/1.1/" xmlns:cc="http://creativecommons.org/ns#" xmlns:rdf="http://www.w3.org/1999/02/22-rdf-syntax-ns#">
   <cc:Work>
    <dc:type rdf:resource="http://purl.org/dc/dcmitype/StillImage"/>
    <dc:date>2025-03-16T14:38:38.085678</dc:date>
    <dc:format>image/svg+xml</dc:format>
    <dc:creator>
     <cc:Agent>
      <dc:title>Matplotlib v3.10.1, https://matplotlib.org/</dc:title>
     </cc:Agent>
    </dc:creator>
   </cc:Work>
  </rdf:RDF>
 </metadata>
 <defs>
  <style type="text/css">*{stroke-linejoin: round; stroke-linecap: butt}</style>
 </defs>
 <g id="figure_1">
  <g id="patch_1">
   <path d="M 0 602.495904 
L 851.4 602.495904 
L 851.4 0 
L 0 0 
z
" style="fill: #ffffff"/>
  </g>
  <g id="axes_1">
   <g id="PatchCollection_1">
    <path d="M 45.245455 433.703263 
L 90.875248 442.338284 
L 103.208971 401.63695 
L 121.339812 479.479592 
L 153.484505 568.523719 
L 724.925926 568.564272 
L 806.154545 316.123883 
L 779.433395 268.027309 
L 776.555909 221.984485 
L 790.121472 182.934262 
L 684.064482 104.833815 
L 670.703907 104.21682 
L 596.91422 33.931632 
L 536.096207 92.995059 
L 547.380088 104.62815 
L 469.580696 260.652347 
L 482.429761 383.958475 
L 323.342361 399.168973 
L 197.141057 403.279371 
L 196.729166 369.15641 
L 105.469579 361.346944 
L 79.160319 376.146113 
L 45.245455 433.703263 
" clip-path="url(#pc890625189)" style="fill: #f29888"/>
   </g>
   <g id="PatchCollection_2">
    <path d="M 644.43871 419.497915 
L 649.285606 414.990672 
L 651.563456 417.438372 
L 646.714644 421.945615 
L 644.43871 419.497915 
" clip-path="url(#pc890625189)" style="fill: #f29888"/>
    <path d="M 628.558898 404.301901 
L 628.543572 400.113293 
L 630.804179 400.104603 
L 630.821421 404.293211 
L 628.558898 404.301901 
" clip-path="url(#pc890625189)" style="fill: #f29888"/>
    <path d="M 628.35391 364.011895 
L 628.336669 359.823288 
L 630.599192 359.814598 
L 630.614518 364.003205 
L 628.35391 364.011895 
" clip-path="url(#pc890625189)" style="fill: #f29888"/>
    <path d="M 629.279227 311.972932 
L 632.721864 311.955552 
L 632.756348 319.148023 
L 629.313711 319.165403 
L 629.279227 311.972932 
" clip-path="url(#pc890625189)" style="fill: #f29888"/>
    <path d="M 634.930747 303.340808 
L 638.373384 303.323428 
L 638.407868 310.515899 
L 634.96523 310.533279 
L 634.930747 303.340808 
" clip-path="url(#pc890625189)" style="fill: #f29888"/>
    <path d="M 629.484214 295.117116 
L 632.926852 295.099736 
L 632.961336 302.292207 
L 629.518698 302.309588 
L 629.484214 295.117116 
" clip-path="url(#pc890625189)" style="fill: #f29888"/>
    <path d="M 643.632171 266.613726 
L 654.216796 266.613726 
L 654.216796 269.800081 
L 652.111366 269.904362 
L 652.111366 273.756954 
L 654.115261 273.65557 
L 653.960083 277.201114 
L 643.55554 277.276427 
L 643.632171 266.613726 
" clip-path="url(#pc890625189)" style="fill: #f29888"/>
    <path d="M 629.271564 259.754374 
L 638.518982 259.65299 
L 638.622434 263.247777 
L 629.168112 263.453442 
L 629.271564 259.754374 
" clip-path="url(#pc890625189)" style="fill: #f29888"/>
    <path d="M 641.49992 256.15669 
L 646.228038 251.12225 
L 648.693633 253.587329 
L 643.96743 258.419002 
L 641.49992 256.15669 
" clip-path="url(#pc890625189)" style="fill: #f29888"/>
    <path d="M 629.792653 247.020542 
L 633.235291 247.003162 
L 633.269775 254.195634 
L 629.827137 254.213014 
L 629.792653 247.020542 
" clip-path="url(#pc890625189)" style="fill: #f29888"/>
    <path d="M 652.530919 411.352434 
L 657.379731 406.845191 
L 659.655665 409.292891 
L 654.806853 413.800134 
L 652.530919 411.352434 
" clip-path="url(#pc890625189)" style="fill: #f29888"/>
    <path d="M 660.341511 403.745737 
L 665.190323 399.238494 
L 667.466257 401.686193 
L 662.617445 406.193437 
L 660.341511 403.745737 
" clip-path="url(#pc890625189)" style="fill: #f29888"/>
    <path d="M 664.109829 326.404221 
L 666.575424 324.14191 
L 668.631045 326.299941 
L 671.50853 323.629196 
L 669.761349 321.67683 
L 672.021956 319.313134 
L 677.366953 325.271617 
L 669.8648 332.571266 
L 664.109829 326.404221 
" clip-path="url(#pc890625189)" style="fill: #f29888"/>
    <path d="M 678.497257 293.720914 
L 682.093156 293.61953 
L 682.196607 312.940425 
L 678.805696 312.836144 
L 678.497257 293.720914 
" clip-path="url(#pc890625189)" style="fill: #f29888"/>
    <path d="M 655.990799 300.922075 
L 652.862347 304.10843 
L 648.670644 299.916925 
L 651.858484 296.907268 
L 655.990799 300.922075 
" clip-path="url(#pc890625189)" style="fill: #f29888"/>
    <path d="M 700.434731 261.674877 
L 703.107229 261.674877 
L 703.413752 269.794287 
L 700.74317 269.794287 
L 700.434731 261.674877 
" clip-path="url(#pc890625189)" style="fill: #f29888"/>
    <path d="M 718.862516 243.301198 
L 718.835696 245.647513 
L 716.69195 245.630133 
L 716.722602 243.266437 
L 718.862516 243.301198 
" clip-path="url(#pc890625189)" style="fill: #f29888"/>
    <path d="M 716.69195 245.630133 
L 714.634413 245.604063 
L 714.665066 243.240367 
L 716.722602 243.266437 
L 716.69195 245.630133 
" clip-path="url(#pc890625189)" style="fill: #f29888"/>
    <path d="M 654.166986 241.925272 
L 657.891242 238.197237 
L 660.692097 240.998332 
L 656.967841 244.72347 
L 654.166986 241.925272 
" clip-path="url(#pc890625189)" style="fill: #f29888"/>
    <path d="M 659.71697 236.375221 
L 663.441226 232.650083 
L 666.24208 235.448282 
L 662.515909 239.176317 
L 659.71697 236.375221 
" clip-path="url(#pc890625189)" style="fill: #f29888"/>
    <path d="M 611.491309 264.586046 
L 616.836305 264.481765 
L 616.836305 259.13738 
L 620.844095 259.24166 
L 620.844095 268.079449 
L 611.696296 268.180833 
L 611.491309 264.586046 
" clip-path="url(#pc890625189)" style="fill: #f29888"/>
    <path d="M 616.836305 248.552889 
L 620.637192 248.552889 
L 620.94563 254.514269 
L 616.629402 254.308604 
L 616.836305 248.552889 
" clip-path="url(#pc890625189)" style="fill: #f29888"/>
    <path d="M 617.357395 220.915608 
L 620.800032 220.898228 
L 620.834516 228.093596 
L 617.391878 228.110976 
L 617.357395 220.915608 
" clip-path="url(#pc890625189)" style="fill: #f29888"/>
    <path d="M 616.94742 207.967422 
L 620.390057 207.950042 
L 620.424541 215.142513 
L 616.981904 215.159893 
L 616.94742 207.967422 
" clip-path="url(#pc890625189)" style="fill: #f29888"/>
    <path d="M 617.087271 191.679357 
L 620.529909 191.661977 
L 620.564392 198.854448 
L 617.121755 198.871828 
L 617.087271 191.679357 
" clip-path="url(#pc890625189)" style="fill: #f29888"/>
    <path d="M 614.811337 181.407708 
L 621.846042 181.167283 
L 621.966736 184.66648 
L 614.930115 184.906905 
L 614.811337 181.407708 
" clip-path="url(#pc890625189)" style="fill: #f29888"/>
    <path d="M 619.142892 169.994766 
L 622.585529 169.977385 
L 622.620013 177.172753 
L 619.177375 177.190134 
L 619.142892 169.994766 
" clip-path="url(#pc890625189)" style="fill: #f29888"/>
    <path d="M 618.706096 159.227784 
L 622.148734 159.210404 
L 622.183217 166.402875 
L 618.74058 166.420255 
L 618.706096 159.227784 
" clip-path="url(#pc890625189)" style="fill: #f29888"/>
    <path d="M 627.888378 151.140237 
L 629.357774 152.165663 
L 627.570361 154.729231 
L 626.09905 153.703804 
L 627.888378 151.140237 
" clip-path="url(#pc890625189)" style="fill: #f29888"/>
    <path d="M 617.748211 143.837691 
L 619.00304 145.08906 
L 617.68116 146.412845 
L 616.426331 145.15858 
L 617.748211 143.837691 
" clip-path="url(#pc890625189)" style="fill: #f29888"/>
    <path d="M 647.948399 248.11549 
L 651.67457 244.390351 
L 654.475425 247.191447 
L 650.749254 250.916585 
L 647.948399 248.11549 
" clip-path="url(#pc890625189)" style="fill: #f29888"/>
    <path d="M 629.175775 233.762411 
L 632.618413 233.745031 
L 632.652897 240.937502 
L 629.210259 240.954882 
L 629.175775 233.762411 
" clip-path="url(#pc890625189)" style="fill: #f29888"/>
    <path d="M 629.07424 220.814224 
L 632.516877 220.796844 
L 632.551361 227.989315 
L 629.108724 228.006696 
L 629.07424 220.814224 
" clip-path="url(#pc890625189)" style="fill: #f29888"/>
    <path d="M 629.279227 207.043379 
L 632.721864 207.025999 
L 632.756348 214.21847 
L 629.313711 214.23585 
L 629.279227 207.043379 
" clip-path="url(#pc890625189)" style="fill: #f29888"/>
    <path d="M 629.419078 191.679357 
L 632.861716 191.661977 
L 632.896199 198.854448 
L 629.453562 198.871828 
L 629.419078 191.679357 
" clip-path="url(#pc890625189)" style="fill: #f29888"/>
    <path d="M 628.505256 182.024702 
L 635.539961 181.784278 
L 635.660655 185.283474 
L 628.62595 185.523899 
L 628.505256 182.024702 
" clip-path="url(#pc890625189)" style="fill: #f29888"/>
    <path d="M 629.315627 169.893382 
L 632.758264 169.876001 
L 632.794664 177.068473 
L 629.352026 177.085853 
L 629.315627 169.893382 
" clip-path="url(#pc890625189)" style="fill: #f29888"/>
    <path d="M 627.761938 159.699944 
L 631.204575 159.682564 
L 631.239059 166.875035 
L 627.796422 166.892415 
L 627.761938 159.699944 
" clip-path="url(#pc890625189)" style="fill: #f29888"/>
    <path d="M 633.482425 143.785551 
L 634.880937 145.08037 
L 633.618445 146.444709 
L 632.219933 145.14989 
L 633.482425 143.785551 
" clip-path="url(#pc890625189)" style="fill: #f29888"/>
    <path d="M 638.951946 138.10515 
L 640.442415 139.455005 
L 638.911715 141.149567 
L 637.419331 139.799711 
L 638.951946 138.10515 
" clip-path="url(#pc890625189)" style="fill: #f29888"/>
    <path d="M 682.223428 228.461475 
L 685.947684 224.736337 
L 688.748538 227.537432 
L 685.022367 231.262571 
L 682.223428 228.461475 
" clip-path="url(#pc890625189)" style="fill: #f29888"/>
    <path d="M 672.023872 224.093273 
L 676.441636 219.982875 
L 672.537298 216.695137 
L 675.106345 213.714447 
L 681.374742 220.394205 
L 674.797906 226.969682 
L 672.023872 224.093273 
" clip-path="url(#pc890625189)" style="fill: #f29888"/>
    <path d="M 704.720307 213.482712 
L 706.887042 211.333371 
L 716.659382 221.190794 
L 714.492646 223.340135 
L 704.720307 213.482712 
" clip-path="url(#pc890625189)" style="fill: #f29888"/>
    <path d="M 663.904842 209.08844 
L 666.473888 206.21203 
L 672.845737 212.069129 
L 670.276691 214.948435 
L 663.904842 209.08844 
" clip-path="url(#pc890625189)" style="fill: #f29888"/>
    <path d="M 705.218407 206.519079 
L 715.391142 195.934589 
L 717.241775 198.1969 
L 707.272112 208.575726 
L 705.218407 206.519079 
" clip-path="url(#pc890625189)" style="fill: #f29888"/>
    <path d="M 731.30927 168.20751 
L 732.51812 169.447292 
L 730.68856 170.597276 
L 729.795812 169.681924 
L 731.30927 168.20751 
" clip-path="url(#pc890625189)" style="fill: #f29888"/>
    <path d="M 726.05623 164.068146 
L 727.184618 165.108056 
L 725.734381 166.680957 
L 724.605993 165.63815 
L 726.05623 164.068146 
" clip-path="url(#pc890625189)" style="fill: #f29888"/>
    <path d="M 721.126956 159.500072 
L 722.351132 160.797788 
L 720.977526 162.092606 
L 719.753349 160.797788 
L 721.126956 159.500072 
" clip-path="url(#pc890625189)" style="fill: #f29888"/>
    <path d="M 717.05403 155.134767 
L 718.303112 156.58311 
L 716.757086 157.915585 
L 715.508004 156.467242 
L 717.05403 155.134767 
" clip-path="url(#pc890625189)" style="fill: #f29888"/>
    <path d="M 704.480836 142.424108 
L 706.065177 144.011492 
L 704.835253 145.239687 
L 703.250912 143.6552 
L 704.480836 142.424108 
" clip-path="url(#pc890625189)" style="fill: #f29888"/>
    <path d="M 699.494088 136.958062 
L 701.013294 138.490409 
L 699.582214 139.906888 
L 698.063009 138.374542 
L 699.494088 136.958062 
" clip-path="url(#pc890625189)" style="fill: #f29888"/>
    <path d="M 689.271543 126.162113 
L 691.127924 128.137653 
L 689.231312 129.919115 
L 687.374932 127.943575 
L 689.271543 126.162113 
" clip-path="url(#pc890625189)" style="fill: #f29888"/>
    <path d="M 652.281869 125.278624 
L 653.699539 126.718277 
L 652.232059 128.160827 
L 650.81439 126.721174 
L 652.281869 125.278624 
" clip-path="url(#pc890625189)" style="fill: #f29888"/>
    <path d="M 654.879652 122.268967 
L 656.24368 123.555096 
L 654.552056 125.353938 
L 653.186112 124.070706 
L 654.879652 122.268967 
" clip-path="url(#pc890625189)" style="fill: #f29888"/>
    <path d="M 685.771433 122.190757 
L 687.035841 123.343638 
L 685.422763 125.11641 
L 684.158355 123.963529 
L 685.771433 122.190757 
" clip-path="url(#pc890625189)" style="fill: #f29888"/>
    <path d="M 661.837727 115.586313 
L 663.341606 117.1708 
L 662.163407 118.288921 
L 660.659529 116.704434 
L 661.837727 115.586313 
" clip-path="url(#pc890625189)" style="fill: #f29888"/>
    <path d="M 675.370721 112.359405 
L 676.76157 113.62236 
L 675.142745 115.403822 
L 673.751896 114.13797 
L 675.370721 112.359405 
" clip-path="url(#pc890625189)" style="fill: #f29888"/>
    <path d="M 665.991115 111.487502 
L 667.303417 112.822875 
L 665.99303 114.109003 
L 664.682644 112.773631 
L 665.991115 111.487502 
" clip-path="url(#pc890625189)" style="fill: #f29888"/>
    <path d="M 655.023335 100.755281 
L 656.531046 102.050099 
L 655.078892 103.738867 
L 653.571182 102.446945 
L 655.023335 100.755281 
" clip-path="url(#pc890625189)" style="fill: #f29888"/>
    <path d="M 644.754812 132.10032 
L 646.003893 133.270581 
L 644.712665 134.6523 
L 643.461667 133.482039 
L 644.754812 132.10032 
" clip-path="url(#pc890625189)" style="fill: #f29888"/>
    <path d="M 629.281143 129.614963 
L 630.853989 130.987992 
L 629.890357 132.088733 
L 628.317511 130.715704 
L 629.281143 129.614963 
" clip-path="url(#pc890625189)" style="fill: #f29888"/>
    <path d="M 637.290974 122.477529 
L 638.766117 124.021463 
L 637.19327 125.524843 
L 635.718128 123.978012 
L 637.290974 122.477529 
" clip-path="url(#pc890625189)" style="fill: #f29888"/>
    <path d="M 640.988409 115.745631 
L 642.386921 117.028863 
L 641.034388 118.503276 
L 639.63396 117.220044 
L 640.988409 115.745631 
" clip-path="url(#pc890625189)" style="fill: #f29888"/>
    <path d="M 629.079987 106.018559 
L 630.729464 107.571183 
L 629.079987 109.323678 
L 627.428594 107.771054 
L 629.079987 106.018559 
" clip-path="url(#pc890625189)" style="fill: #f29888"/>
    <path d="M 651.270343 104.813538 
L 652.555824 106.212637 
L 651.145818 107.507456 
L 649.860337 106.108356 
L 651.270343 104.813538 
" clip-path="url(#pc890625189)" style="fill: #f29888"/>
    <path d="M 634.285132 100.509062 
L 636.043808 102.090653 
L 634.444141 103.872115 
L 632.683549 102.290524 
L 634.285132 100.509062 
" clip-path="url(#pc890625189)" style="fill: #f29888"/>
    <path d="M 640.3677 94.666447 
L 642.093808 96.68254 
L 640.810243 97.780384 
L 639.084134 95.761394 
L 640.3677 94.666447 
" clip-path="url(#pc890625189)" style="fill: #f29888"/>
    <path d="M 628.880747 94.527406 
L 630.470836 96.120583 
L 628.760054 97.829628 
L 627.168049 96.239347 
L 628.880747 94.527406 
" clip-path="url(#pc890625189)" style="fill: #f29888"/>
    <path d="M 644.563235 90.402525 
L 645.850632 91.882732 
L 644.572814 92.995059 
L 643.285417 91.514852 
L 644.563235 90.402525 
" clip-path="url(#pc890625189)" style="fill: #f29888"/>
    <path d="M 634.045661 89.127983 
L 635.879052 90.874685 
L 634.40391 92.421515 
L 632.570519 90.674814 
L 634.045661 89.127983 
" clip-path="url(#pc890625189)" style="fill: #f29888"/>
    <path d="M 639.248891 84.429559 
L 640.911778 86.031426 
L 639.409815 87.589843 
L 637.746927 85.990872 
L 639.248891 84.429559 
" clip-path="url(#pc890625189)" style="fill: #f29888"/>
    <path d="M 630.875063 75.000846 
L 632.177786 76.469466 
L 630.484246 77.969949 
L 629.181523 76.501329 
L 630.875063 75.000846 
" clip-path="url(#pc890625189)" style="fill: #f29888"/>
    <path d="M 623.11045 71.495856 
L 624.851884 73.123793 
L 623.143018 74.954499 
L 621.401584 73.326561 
L 623.11045 71.495856 
" clip-path="url(#pc890625189)" style="fill: #f29888"/>
    <path d="M 612.023893 69.740464 
L 613.330447 70.954175 
L 611.849558 72.544456 
L 610.544919 71.330745 
L 612.023893 69.740464 
" clip-path="url(#pc890625189)" style="fill: #f29888"/>
    <path d="M 618.152439 64.6394 
L 619.391942 66.10802 
L 617.844 67.411529 
L 616.606413 65.942909 
L 618.152439 64.6394 
" clip-path="url(#pc890625189)" style="fill: #f29888"/>
    <path d="M 572.241027 427.837474 
L 572.225701 423.648866 
L 574.486309 423.640176 
L 574.501635 427.828784 
L 572.241027 427.837474 
" clip-path="url(#pc890625189)" style="fill: #f29888"/>
    <path d="M 579.434741 427.73609 
L 579.419415 423.547482 
L 581.680022 423.538792 
L 581.697264 427.7274 
L 579.434741 427.73609 
" clip-path="url(#pc890625189)" style="fill: #f29888"/>
    <path d="M 579.74318 414.889288 
L 579.727854 410.70068 
L 581.988461 410.69199 
L 582.005703 414.877701 
L 579.74318 414.889288 
" clip-path="url(#pc890625189)" style="fill: #f29888"/>
    <path d="M 571.626065 414.683623 
L 571.608823 410.495015 
L 573.869431 410.486325 
L 573.886673 414.674933 
L 571.626065 414.683623 
" clip-path="url(#pc890625189)" style="fill: #f29888"/>
    <path d="M 579.641644 404.918895 
L 579.624402 400.730287 
L 581.88501 400.721597 
L 581.902252 404.910205 
L 579.641644 404.918895 
" clip-path="url(#pc890625189)" style="fill: #f29888"/>
    <path d="M 571.419162 404.608949 
L 571.403836 400.420341 
L 573.664444 400.411651 
L 573.67977 404.600259 
L 571.419162 404.608949 
" clip-path="url(#pc890625189)" style="fill: #f29888"/>
    <path d="M 571.831052 394.844221 
L 571.81381 390.65851 
L 574.074418 390.646923 
L 574.09166 394.835531 
L 571.831052 394.844221 
" clip-path="url(#pc890625189)" style="fill: #f29888"/>
    <path d="M 579.434741 394.537172 
L 579.419415 390.348564 
L 581.680022 390.339874 
L 581.697264 394.528482 
L 579.434741 394.537172 
" clip-path="url(#pc890625189)" style="fill: #f29888"/>
    <path d="M 579.846631 384.772444 
L 579.829389 380.583836 
L 582.089997 380.575146 
L 582.107239 384.763754 
L 579.846631 384.772444 
" clip-path="url(#pc890625189)" style="fill: #f29888"/>
    <path d="M 572.139491 384.67106 
L 572.122249 380.482452 
L 574.382857 380.473762 
L 574.400099 384.66237 
L 572.139491 384.67106 
" clip-path="url(#pc890625189)" style="fill: #f29888"/>
    <path d="M 606.259343 404.403285 
L 606.242101 400.214677 
L 608.502709 400.205987 
L 608.519951 404.394595 
L 606.259343 404.403285 
" clip-path="url(#pc890625189)" style="fill: #f29888"/>
    <path d="M 591.588381 403.928228 
L 591.571139 399.73962 
L 593.831747 399.73093 
L 593.848989 403.919538 
L 591.588381 403.928228 
" clip-path="url(#pc890625189)" style="fill: #f29888"/>
    <path d="M 591.768464 394.537172 
L 591.751222 390.348564 
L 594.01183 390.339874 
L 594.029071 394.528482 
L 591.768464 394.537172 
" clip-path="url(#pc890625189)" style="fill: #f29888"/>
    <path d="M 606.46433 394.331508 
L 606.447088 390.1429 
L 608.707696 390.13421 
L 608.724938 394.322818 
L 606.46433 394.331508 
" clip-path="url(#pc890625189)" style="fill: #f29888"/>
    <path d="M 592.076903 384.15545 
L 592.059661 379.966842 
L 594.320268 379.958152 
L 594.33751 384.14676 
L 592.076903 384.15545 
" clip-path="url(#pc890625189)" style="fill: #f29888"/>
    <path d="M 606.46433 374.804947 
L 606.447088 370.61634 
L 608.707696 370.604753 
L 608.724938 374.793361 
L 606.46433 374.804947 
" clip-path="url(#pc890625189)" style="fill: #f29888"/>
    <path d="M 592.076903 328.964892 
L 592.059661 324.776284 
L 594.320268 324.767594 
L 594.33751 328.956202 
L 592.076903 328.964892 
" clip-path="url(#pc890625189)" style="fill: #f29888"/>
    <path d="M 599.270616 328.860611 
L 599.253374 324.6749 
L 601.513982 324.663313 
L 601.531224 328.851921 
L 599.270616 328.860611 
" clip-path="url(#pc890625189)" style="fill: #f29888"/>
    <path d="M 592.795316 319.200163 
L 592.77999 315.011556 
L 595.040598 315.002865 
L 595.055924 319.191473 
L 592.795316 319.200163 
" clip-path="url(#pc890625189)" style="fill: #f29888"/>
    <path d="M 599.475604 319.200163 
L 599.458362 315.011556 
L 601.71897 315.002865 
L 601.736211 319.191473 
L 599.475604 319.200163 
" clip-path="url(#pc890625189)" style="fill: #f29888"/>
    <path d="M 606.567782 414.477959 
L 606.55054 410.289351 
L 608.811148 410.280661 
L 608.82839 414.469268 
L 606.567782 414.477959 
" clip-path="url(#pc890625189)" style="fill: #f29888"/>
    <path d="M 618.694602 414.168013 
L 618.67736 409.979405 
L 620.937967 409.970715 
L 620.955209 414.159323 
L 618.694602 414.168013 
" clip-path="url(#pc890625189)" style="fill: #f29888"/>
    <path d="M 618.694602 404.096236 
L 618.67736 399.907628 
L 620.937967 399.898938 
L 620.955209 404.087546 
L 618.694602 404.096236 
" clip-path="url(#pc890625189)" style="fill: #f29888"/>
    <path d="M 606.874305 384.361114 
L 606.858979 380.172507 
L 609.119586 380.163816 
L 609.136828 384.352424 
L 606.874305 384.361114 
" clip-path="url(#pc890625189)" style="fill: #f29888"/>
    <path d="M 618.282711 384.15545 
L 618.265469 379.966842 
L 620.526077 379.958152 
L 620.543319 384.14676 
L 618.282711 384.15545 
" clip-path="url(#pc890625189)" style="fill: #f29888"/>
    <path d="M 618.386163 374.393618 
L 618.368921 370.20501 
L 620.629529 370.19632 
L 620.64677 374.382031 
L 618.386163 374.393618 
" clip-path="url(#pc890625189)" style="fill: #f29888"/>
    <path d="M 618.487698 364.62889 
L 618.472372 360.440282 
L 620.73298 360.431592 
L 620.748306 364.6202 
L 618.487698 364.62889 
" clip-path="url(#pc890625189)" style="fill: #f29888"/>
    <path d="M 615.089124 354.719327 
L 615.294111 345.365928 
L 620.535656 345.571593 
L 620.535656 354.820711 
L 615.089124 354.719327 
" clip-path="url(#pc890625189)" style="fill: #f29888"/>
    <path d="M 617.238617 330.306057 
L 621.252154 330.421925 
L 620.955209 340.794957 
L 616.941673 340.681987 
L 617.238617 330.306057 
" clip-path="url(#pc890625189)" style="fill: #f29888"/>
    <path d="M 620.575887 278.313441 
L 620.692749 287.403242 
L 617.447436 287.345308 
L 617.269269 281.265164 
L 609.360973 281.499796 
L 609.242196 278.432205 
L 620.575887 278.313441 
" clip-path="url(#pc890625189)" style="fill: #f29888"/>
    <path d="M 572.03604 374.700667 
L 572.018798 370.512059 
L 574.279406 370.503369 
L 574.296647 374.691977 
L 572.03604 374.700667 
" clip-path="url(#pc890625189)" style="fill: #f29888"/>
    <path d="M 579.74318 374.393618 
L 579.727854 370.20501 
L 581.988461 370.19632 
L 582.005703 374.382031 
L 579.74318 374.393618 
" clip-path="url(#pc890625189)" style="fill: #f29888"/>
    <path d="M 579.170365 277.122903 
L 580.402204 277.175043 
L 580.402204 276.404525 
L 583.948293 276.404525 
L 584.103471 277.328568 
L 584.977061 277.380708 
L 584.925336 281.027636 
L 583.795032 281.027636 
L 583.743306 281.74891 
L 580.145491 281.64463 
L 580.095681 280.821971 
L 579.118639 280.874111 
L 579.170365 277.122903 
" clip-path="url(#pc890625189)" style="fill: #f29888"/>
    <path d="M 581.545919 101.453382 
L 582.919525 102.716337 
L 581.440551 104.323998 
L 580.065029 103.061043 
L 581.545919 101.453382 
" clip-path="url(#pc890625189)" style="fill: #f29888"/>
    <path d="M 593.002219 308.922722 
L 592.984977 304.734114 
L 595.245585 304.725424 
L 595.262827 308.914032 
L 593.002219 308.922722 
" clip-path="url(#pc890625189)" style="fill: #f29888"/>
    <path d="M 599.579055 308.410008 
L 599.561813 304.2214 
L 601.822421 304.21271 
L 601.839663 308.401318 
L 599.579055 308.410008 
" clip-path="url(#pc890625189)" style="fill: #f29888"/>
    <path d="M 604.45852 130.200094 
L 605.925999 131.665817 
L 604.493004 133.099676 
L 603.02744 131.633953 
L 604.45852 130.200094 
" clip-path="url(#pc890625189)" style="fill: #f29888"/>
    <path d="M 597.506193 123.610133 
L 598.971756 124.66163 
L 597.870189 126.193977 
L 596.404625 125.14248 
L 597.506193 123.610133 
" clip-path="url(#pc890625189)" style="fill: #f29888"/>
    <path d="M 593.772358 117.921042 
L 595.153628 118.975436 
L 593.481161 121.168227 
L 592.097976 120.113833 
L 593.772358 117.921042 
" clip-path="url(#pc890625189)" style="fill: #f29888"/>
    <path d="M 606.86281 117.081003 
L 608.209596 118.381615 
L 606.66357 119.983482 
L 605.316784 118.68287 
L 606.86281 117.081003 
" clip-path="url(#pc890625189)" style="fill: #f29888"/>
    <path d="M 588.092102 113.909132 
L 589.595981 115.293748 
L 588.189807 116.820301 
L 586.685928 115.432789 
L 588.092102 113.909132 
" clip-path="url(#pc890625189)" style="fill: #f29888"/>
    <path d="M 583.237543 109.184637 
L 584.63797 110.65036 
L 583.068955 112.147947 
L 581.668528 110.682224 
L 583.237543 109.184637 
" clip-path="url(#pc890625189)" style="fill: #f29888"/>
    <path d="M 587.346868 95.358755 
L 588.764537 96.720197 
L 587.00203 98.556696 
L 585.582445 97.19815 
L 587.346868 95.358755 
" clip-path="url(#pc890625189)" style="fill: #f29888"/>
    <path d="M 597.858694 95.532556 
L 599.331921 96.969312 
L 598.098166 98.232267 
L 596.624939 96.795511 
L 597.858694 95.532556 
" clip-path="url(#pc890625189)" style="fill: #f29888"/>
    <path d="M 624.263743 124.508106 
L 625.434278 125.69285 
L 623.790548 127.317891 
L 622.620013 126.133147 
L 624.263743 124.508106 
" clip-path="url(#pc890625189)" style="fill: #f29888"/>
    <path d="M 612.751885 122.413802 
L 613.912841 123.592753 
L 612.887905 124.603696 
L 611.728864 123.424745 
L 612.751885 122.413802 
" clip-path="url(#pc890625189)" style="fill: #f29888"/>
    <path d="M 614.782601 120.383225 
L 615.943557 121.660663 
L 614.985672 122.532566 
L 613.824716 121.255127 
L 614.782601 120.383225 
" clip-path="url(#pc890625189)" style="fill: #f29888"/>
    <path d="M 617.3823 117.330118 
L 618.863189 118.775564 
L 617.414868 120.258667 
L 615.933978 118.810324 
L 617.3823 117.330118 
" clip-path="url(#pc890625189)" style="fill: #f29888"/>
    <path d="M 623.754148 111.913315 
L 624.913189 113.054609 
L 623.554908 114.436329 
L 622.395868 113.295034 
L 623.754148 111.913315 
" clip-path="url(#pc890625189)" style="fill: #f29888"/>
    <path d="M 612.742306 111.507779 
L 613.981809 112.930052 
L 612.303595 114.392878 
L 611.064092 112.967709 
L 612.742306 111.507779 
" clip-path="url(#pc890625189)" style="fill: #f29888"/>
    <path d="M 617.50874 106.803561 
L 618.819127 108.1679 
L 617.184975 109.735007 
L 615.876505 108.370668 
L 617.50874 106.803561 
" clip-path="url(#pc890625189)" style="fill: #f29888"/>
    <path d="M 621.750254 102.70475 
L 622.949525 104.176267 
L 621.200428 105.59854 
L 620.003072 104.127023 
L 621.750254 102.70475 
" clip-path="url(#pc890625189)" style="fill: #f29888"/>
    <path d="M 609.230701 84.982826 
L 610.387826 86.18495 
L 609.307332 87.227757 
L 608.150207 86.025633 
L 609.230701 84.982826 
" clip-path="url(#pc890625189)" style="fill: #f29888"/>
    <path d="M 614.579529 79.742721 
L 616.047008 81.347485 
L 614.340058 82.908798 
L 612.872579 81.306931 
L 614.579529 79.742721 
" clip-path="url(#pc890625189)" style="fill: #f29888"/>
    <path d="M 570.361657 93.446942 
L 571.532192 94.614306 
L 570.173912 95.975749 
L 569.003377 94.805488 
L 570.361657 93.446942 
" clip-path="url(#pc890625189)" style="fill: #f29888"/>
    <path d="M 575.267943 88.858591 
L 576.8178 90.312728 
L 575.369478 91.856661 
L 573.819621 90.402525 
L 575.267943 88.858591 
" clip-path="url(#pc890625189)" style="fill: #f29888"/>
    <path d="M 569.214111 84.632327 
L 571.014935 86.312404 
L 569.405688 88.035933 
L 567.604865 86.355855 
L 569.214111 84.632327 
" clip-path="url(#pc890625189)" style="fill: #f29888"/>
    <path d="M 580.850494 83.954502 
L 583.019145 86.014046 
L 581.509519 87.604326 
L 579.340868 85.544783 
L 580.850494 83.954502 
" clip-path="url(#pc890625189)" style="fill: #f29888"/>
    <path d="M 573.204659 80.791321 
L 574.691296 82.309184 
L 572.863652 84.102233 
L 571.375099 82.581473 
L 573.204659 80.791321 
" clip-path="url(#pc890625189)" style="fill: #f29888"/>
    <path d="M 576.76799 76.924245 
L 578.26229 78.207477 
L 577.072597 79.59499 
L 575.576381 78.311758 
L 576.76799 76.924245 
" clip-path="url(#pc890625189)" style="fill: #f29888"/>
    <path d="M 580.151239 73.784238 
L 581.829452 75.496179 
L 580.220206 77.074873 
L 578.541992 75.360035 
L 580.151239 73.784238 
" clip-path="url(#pc890625189)" style="fill: #f29888"/>
    <path d="M 603.623244 90.428595 
L 604.728643 91.590166 
L 603.26308 92.983472 
L 602.157681 91.824798 
L 603.623244 90.428595 
" clip-path="url(#pc890625189)" style="fill: #f29888"/>
    <path d="M 594.730243 88.030139 
L 596.178565 89.530623 
L 594.730243 90.929722 
L 593.280006 89.429239 
L 594.730243 88.030139 
" clip-path="url(#pc890625189)" style="fill: #f29888"/>
    <path d="M 600.89902 81.06361 
L 602.448878 82.717617 
L 600.969904 84.102233 
L 599.420046 82.445329 
L 600.89902 81.06361 
" clip-path="url(#pc890625189)" style="fill: #f29888"/>
    <path d="M 604.289932 77.526756 
L 606.186544 79.531263 
L 604.429783 81.19396 
L 602.533172 79.186557 
L 604.289932 77.526756 
" clip-path="url(#pc890625189)" style="fill: #f29888"/>
    <path d="M 587.467562 77.18205 
L 588.89481 78.459489 
L 587.373689 80.16274 
L 585.944525 78.888198 
L 587.467562 77.18205 
" clip-path="url(#pc890625189)" style="fill: #f29888"/>
    <path d="M 607.853263 74.65614 
L 609.230701 76.14214 
L 607.41072 77.830908 
L 606.033282 76.344908 
L 607.853263 74.65614 
" clip-path="url(#pc890625189)" style="fill: #f29888"/>
    <path d="M 591.345079 73.781341 
L 592.659296 75.13699 
L 591.013651 76.730167 
L 589.699433 75.374518 
L 591.345079 73.781341 
" clip-path="url(#pc890625189)" style="fill: #f29888"/>
    <path d="M 588.661086 65.192667 
L 590.134312 66.681564 
L 588.320079 68.477509 
L 586.846852 66.988612 
L 588.661086 65.192667 
" clip-path="url(#pc890625189)" style="fill: #f29888"/>
    <path d="M 593.373878 60.873708 
L 594.803042 62.17432 
L 593.002219 64.152757 
L 591.573055 62.849248 
L 593.373878 60.873708 
" clip-path="url(#pc890625189)" style="fill: #f29888"/>
    <path d="M 606.148228 59.153077 
L 607.565898 60.786808 
L 606.11566 62.046866 
L 604.697991 60.413135 
L 606.148228 59.153077 
" clip-path="url(#pc890625189)" style="fill: #f29888"/>
    <path d="M 582.796916 71.12508 
L 584.237574 72.512593 
L 582.929104 73.868242 
L 581.488446 72.480729 
L 582.796916 71.12508 
" clip-path="url(#pc890625189)" style="fill: #f29888"/>
    <path d="M 597.441057 56.821245 
L 598.967925 58.408628 
L 597.134534 60.169814 
L 595.607665 58.58243 
L 597.441057 56.821245 
" clip-path="url(#pc890625189)" style="fill: #f29888"/>
    <path d="M 601.441183 53.064243 
L 602.835863 54.414099 
L 601.17106 56.137627 
L 599.774464 54.784874 
L 601.441183 53.064243 
" clip-path="url(#pc890625189)" style="fill: #f29888"/>
    <path d="M 605.134786 49.295654 
L 606.694222 50.790344 
L 605.136702 52.415385 
L 603.577266 50.923592 
L 605.134786 49.295654 
" clip-path="url(#pc890625189)" style="fill: #f29888"/>
   </g>
   <g id="LineCollection_1">
    <path d="M 551.962609 536.686243 
L 579.915599 534.015499 
L 608.897357 538.537225 
L 625.340405 541.827861 
L 629.786906 545.573276 
L 633.150997 548.406235 
L 630.273511 568.347021 
L 630.249464 568.557553 
" clip-path="url(#pc890625189)" style="fill: none; stroke: #f29888; stroke-width: 0.2"/>
    <path d="M 409.728231 552.722297 
L 424.885798 562.730347 
L 432.150696 568.543495 
" clip-path="url(#pc890625189)" style="fill: none; stroke: #f29888; stroke-width: 0.2"/>
    <path d="M 549.100449 499.040912 
L 533.128681 500.002612 
L 522.645591 502.881918 
L 503.53196 502.264924 
L 480.922051 504.730003 
L 465.505855 510.897048 
L 437.757852 513.365024 
L 395.827409 524.053796 
L 381.030007 529.812407 
L 363.353203 537.419105 
L 361.220952 547.583576 
L 368.826556 545.526929 
L 392.668305 547.377911 
L 409.728231 552.722297 
L 432.338141 549.434558 
L 474.063597 544.29294 
L 490.916619 543.675946 
L 524.626496 539.15422 
L 551.962609 536.686243 
L 560.595065 526.820131 
L 566.966914 516.128463 
L 569.94402 505.262994 
" clip-path="url(#pc890625189)" style="fill: none; stroke: #f29888; stroke-width: 0.2"/>
    <path d="M 625.340405 541.827861 
L 606.224859 524.14649 
L 593.276174 513.869048 
L 589.839284 505.268787 
" clip-path="url(#pc890625189)" style="fill: none; stroke: #f29888; stroke-width: 0.2"/>
    <path d="M 593.276174 513.869048 
L 583.881241 507.615103 
" clip-path="url(#pc890625189)" style="fill: none; stroke: #f29888; stroke-width: 0.2"/>
    <path d="M 549.100449 499.040912 
L 554.864999 495.480885 
L 559.694654 491.677536 
L 565.449625 491.367591 
L 569.664317 490.544932 
L 571.924925 489.415225 
" clip-path="url(#pc890625189)" style="fill: none; stroke: #f29888; stroke-width: 0.2"/>
    <path d="M 627.240848 441.402655 
L 625.33849 454.724513 
L 621.744506 460.856798 
L 591.93322 503.994245 
L 589.839284 505.268787 
L 587.069082 506.954658 
L 583.881241 507.615103 
L 580.93862 508.223407 
L 569.94402 505.262994 
L 549.100449 499.040912 
L 444.566496 467.834914 
L 430.613948 457.896385 
" clip-path="url(#pc890625189)" style="fill: none; stroke: #f29888; stroke-width: 0.2"/>
    <path d="M 576.56875 476.304824 
L 586.415804 466.082419 
L 592.684201 460.326704 
L 596.487004 456.421971 
L 600.69978 450.76764 
" clip-path="url(#pc890625189)" style="fill: none; stroke: #f29888; stroke-width: 0.2"/>
    <path d="M 573.980546 482.631186 
L 574.802411 471.119756 
L 576.858031 460.22532 
L 578.39831 447.375621 
L 577.16647 439.15193 
L 578.227806 430.082406 
" clip-path="url(#pc890625189)" style="fill: none; stroke: #f29888; stroke-width: 0.2"/>
    <path d="M 605.188428 406.969748 
L 578.526666 406.755394 
" clip-path="url(#pc890625189)" style="fill: none; stroke: #f29888; stroke-width: 0.2"/>
    <path d="M 363.687281 568.538636 
L 362.042817 561.137169 
L 358.960344 557.861018 
" clip-path="url(#pc890625189)" style="fill: none; stroke: #f29888; stroke-width: 0.2"/>
    <path d="M 173.167877 568.525116 
L 191.0355 566.290374 
L 251.874586 565.467715 
L 309.014322 559.917665 
L 345.599769 557.24692 
L 358.960344 557.861018 
L 361.427855 553.75062 
L 361.220952 547.583576 
L 350.739778 543.470282 
L 313.947428 527.437125 
L 304.286203 520.241757 
L 300.793756 510.784077 
L 304.903081 502.149056 
L 306.715399 496.454172 
" clip-path="url(#pc890625189)" style="fill: none; stroke: #f29888; stroke-width: 0.2"/>
    <path d="M 306.715399 496.454172 
L 309.399392 501.442265 
L 314.640937 503.600296 
L 324.505233 501.749314 
L 339.408002 496.506312 
L 358.316646 493.525622 
" clip-path="url(#pc890625189)" style="fill: none; stroke: #f29888; stroke-width: 0.2"/>
    <path d="M 363.353203 537.419105 
L 366.847566 527.138766 
L 371.163795 520.971722 
L 375.275036 514.187683 
L 388.840598 505.552662 
L 406.722389 496.303544 
L 415.149858 490.956262 
L 416.023449 466.647273 
L 415.716926 453.067609 
" clip-path="url(#pc890625189)" style="fill: none; stroke: #f29888; stroke-width: 0.2"/>
    <path d="M 430.613948 457.896385 
L 415.716926 453.067609 
L 364.175068 451.280354 
L 308.196289 451.341184 
L 190.640851 448.803687 
" clip-path="url(#pc890625189)" style="fill: none; stroke: #f29888; stroke-width: 0.2"/>
    <path d="M 177.468022 442.21083 
L 173.151793 440.565512 
L 159.998121 434.192803 
L 152.18753 433.68009 
L 145.198803 432.344718 
L 140.882575 431.727724 
L 136.154456 436.24945 
L 131.941679 440.976842 
L 126.493231 442.622159 
L 119.299518 443.134873 
L 112.856246 443.056396 
" clip-path="url(#pc890625189)" style="fill: none; stroke: #f29888; stroke-width: 0.2"/>
    <path d="M 306.715399 496.454172 
L 309.041143 472.982325 
L 308.196289 451.341184 
L 310.309382 415.888645 
L 308.439591 408.096559 
L 306.504664 400.029289 
L 306.389156 399.721142 
" clip-path="url(#pc890625189)" style="fill: none; stroke: #f29888; stroke-width: 0.2"/>
    <path d="M 358.609758 401.161893 
L 362.067722 407.250727 
L 363.814904 419.379151 
L 363.09649 427.295794 
L 362.171174 433.462838 
L 361.144321 437.057626 
L 360.527443 440.965255 
" clip-path="url(#pc890625189)" style="fill: none; stroke: #f29888; stroke-width: 0.2"/>
    <path d="M 197.094666 399.436119 
L 196.171678 401.816544 
L 193.602631 404.69585 
L 190.271108 407.65047 
L 189.081415 408.704863 
L 186.305466 411.479889 
L 181.887701 420.421958 
L 179.215203 427.924375 
L 176.851144 433.68009 
L 176.542705 438.201817 
L 177.468022 442.21083 
L 185.278613 447.248167 
L 190.640851 448.803687 
" clip-path="url(#pc890625189)" style="fill: none; stroke: #f29888; stroke-width: 0.2"/>
    <path d="M 308.439591 408.096559 
L 311.916713 401.958482 
L 316.012463 399.407709 
" clip-path="url(#pc890625189)" style="fill: none; stroke: #f29888; stroke-width: 0.2"/>
    <path d="M 326.534249 398.863794 
L 351.174658 400.006115 
L 358.609758 401.161893 
L 360.423992 401.445768 
L 372.345824 403.19247 
L 390.844493 406.790154 
L 399.990376 407.714197 
L 411.808757 410.694887 
L 421.058091 412.235924 
L 432.774936 415.216613 
L 434.75201 414.304157 
" clip-path="url(#pc890625189)" style="fill: none; stroke: #f29888; stroke-width: 0.2"/>
    <path d="M 756.909928 469.165144 
L 712.249281 413.69006 
L 696.637676 397.23978 
L 685.786759 385.803664 
L 672.000883 373.17701 
L 656.663234 359.62052 
L 654.772369 358.012859 
L 626.819379 357.456695 
" clip-path="url(#pc890625189)" style="fill: none; stroke: #f29888; stroke-width: 0.2"/>
    <path d="M 752.818787 481.879496 
L 746.838496 475.024489 
L 738.514478 464.642766 
L 733.47792 456.421971 
L 727.722949 446.552962 
L 720.222713 437.509509 
L 708.710855 423.735767 
L 699.974947 413.249764 
L 695.865621 406.057292 
L 694.940305 401.946895 
L 691.650929 402.15256 
L 685.27908 408.525269 
L 682.196607 412.942715 
L 671.405079 424.865474 
L 656.709212 436.481185 
L 653.113313 437.715173 
L 643.247101 436.17124 
L 635.949936 436.069856 
L 630.915294 437.816557 
L 627.240848 438.537832 
L 622.179386 440.490199 
L 615.115944 445.75927 
L 605.427899 448.916658 
L 600.69978 450.76764 
L 594.63637 452.308677 
L 589.394826 454.672373 
L 584.977061 458.785667 
L 581.482698 464.747047 
L 578.605213 471.325421 
L 576.56875 476.304824 
L 573.980546 482.631186 
L 571.924925 489.415225 
L 570.587718 495.68655 
L 569.94402 505.262994 
" clip-path="url(#pc890625189)" style="fill: none; stroke: #f29888; stroke-width: 0.2"/>
    <path d="M 662.169155 382.19729 
L 666.973904 389.554872 
L 664.93361 396.900868 
L 643.272006 418.597046 
" clip-path="url(#pc890625189)" style="fill: none; stroke: #f29888; stroke-width: 0.2"/>
    <path d="M 694.940305 401.946895 
L 696.637676 397.23978 
" clip-path="url(#pc890625189)" style="fill: none; stroke: #f29888; stroke-width: 0.2"/>
    <path d="M 626.819379 357.456695 
L 627.240848 407.992279 
L 627.240848 430.641466 
L 627.240848 438.537832 
L 627.240848 441.402655 
" clip-path="url(#pc890625189)" style="fill: none; stroke: #f29888; stroke-width: 0.2"/>
    <path d="M 663.042746 380.450588 
L 662.169155 382.19729 
L 637.683707 405.538786 
" clip-path="url(#pc890625189)" style="fill: none; stroke: #f29888; stroke-width: 0.2"/>
    <path d="M 656.663234 359.62052 
L 656.456331 367.986149 
L 663.042746 380.450588 
" clip-path="url(#pc890625189)" style="fill: none; stroke: #f29888; stroke-width: 0.2"/>
    <path d="M 678.493425 316.384585 
L 688.827085 320.605056 
L 685.438089 324.063699 
L 686.725486 326.977765 
L 654.772369 358.012859 
" clip-path="url(#pc890625189)" style="fill: none; stroke: #f29888; stroke-width: 0.2"/>
    <path d="M 779.789289 175.325634 
L 777.797328 174.226824 
L 767.007715 169.910762 
L 759.197124 167.64845 
L 751.470826 169.172107 
" clip-path="url(#pc890625189)" style="fill: none; stroke: #f29888; stroke-width: 0.2"/>
    <path d="M 626.999462 273.6295 
L 626.991798 277.537129 
L 626.936241 302.619533 
L 626.819379 357.456695 
" clip-path="url(#pc890625189)" style="fill: none; stroke: #f29888; stroke-width: 0.2"/>
    <path d="M 415.716926 453.067609 
L 424.655906 452.360818 
L 430.102438 447.73481 
L 431.027754 444.447072 
L 431.052659 439.899275 
L 431.669537 430.64726 
L 433.416719 421.192477 
L 434.75201 414.304157 
L 438.349825 411.222083 
L 446.468855 408.652723 
L 451.195058 407.007405 
L 455.101312 402.998392 
L 461.473161 398.169616 
L 465.685937 394.467652 
L 473.291542 389.534596 
L 482.90104 384.24235 
L 522.773947 371.702597 
L 549.495098 363.68457 
L 558.949419 362.659143 
L 562.392057 361.373015 
L 569.258174 358.461845 
" clip-path="url(#pc890625189)" style="fill: none; stroke: #f29888; stroke-width: 0.2"/>
    <path d="M 606.184628 357.265514 
L 605.600318 384.543606 
L 605.188428 406.969748 
L 606.023703 430.21855 
L 608.24408 440.684277 
L 615.115944 445.75927 
" clip-path="url(#pc890625189)" style="fill: none; stroke: #f29888; stroke-width: 0.2"/>
    <path d="M 578.227806 430.082406 
L 578.526666 406.755394 
L 578.078376 357.416142 
" clip-path="url(#pc890625189)" style="fill: none; stroke: #f29888; stroke-width: 0.2"/>
    <path d="M 626.819379 357.456695 
L 606.184628 357.265514 
L 586.001998 356.668797 
L 578.078376 357.416142 
L 569.258174 358.461845 
" clip-path="url(#pc890625189)" style="fill: none; stroke: #f29888; stroke-width: 0.2"/>
    <path d="M 586.001998 356.668797 
L 585.180133 350.611826 
" clip-path="url(#pc890625189)" style="fill: none; stroke: #f29888; stroke-width: 0.2"/>
    <path d="M 598.410436 301.347888 
L 598.036861 333.941398 
L 595.30689 339.155433 
L 587.944588 341.643686 
L 586.13227 344.569339 
L 585.180133 350.611826 
L 581.965472 355.174107 
L 578.078376 357.416142 
" clip-path="url(#pc890625189)" style="fill: none; stroke: #f29888; stroke-width: 0.2"/>
    <path d="M 586.13227 344.569339 
L 583.452109 337.837441 
L 581.919494 333.981952 
L 578.116692 319.182783 
L 576.882936 310.446378 
L 577.087923 300.478882 
L 575.98444 279.845788 
L 575.212385 274.255184 
" clip-path="url(#pc890625189)" style="fill: none; stroke: #f29888; stroke-width: 0.2"/>
    <path d="M 626.936241 302.619533 
L 608.876284 301.649143 
L 598.410436 301.347888 
L 580.917546 300.675857 
" clip-path="url(#pc890625189)" style="fill: none; stroke: #f29888; stroke-width: 0.2"/>
    <path d="M 542.841631 211.350751 
L 549.006577 205.287988 
L 556.303742 199.839321 
L 565.143102 197.269961 
L 572.541803 195.523259 
L 577.16647 192.336905 
L 577.890631 187.432815 
" clip-path="url(#pc890625189)" style="fill: none; stroke: #f29888; stroke-width: 0.2"/>
    <path d="M 601.115502 185.651353 
L 591.668844 186.610156 
L 577.890631 187.432815 
" clip-path="url(#pc890625189)" style="fill: none; stroke: #f29888; stroke-width: 0.2"/>
    <path d="M 119.299518 443.134873 
L 112.542599 434.644686 
L 112.132625 428.477642 
L 112.646051 422.411981 
L 111.515747 414.498235 
L 106.787628 406.274544 
L 103.601704 400.930158 
L 99.902353 393.813001 
L 96.973142 382.043766 
L 95.22596 376.238807 
L 93.58223 372.383318 
L 92.913757 368.409695 
" clip-path="url(#pc890625189)" style="fill: none; stroke: #f29888; stroke-width: 0.2"/>
    <path d="M 560.723422 409.666563 
L 553.426256 409.15385 
L 541.709411 410.900551 
L 534.002271 409.359514 
L 525.678254 406.584489 
L 512.831105 399.490505 
L 500.499297 393.016412 
L 482.90104 384.24235 
L 481.581442 384.039584 
" clip-path="url(#pc890625189)" style="fill: none; stroke: #f29888; stroke-width: 0.2"/>
    <path d="M 196.862532 380.205029 
L 194.579673 379.309294 
" clip-path="url(#pc890625189)" style="fill: none; stroke: #f29888; stroke-width: 0.2"/>
    <path d="M 100.689198 409.95221 
L 98.463611 406.454138 
L 94.559273 399.467332 
L 86.233339 380.861918 
L 82.181086 374.446907 
" clip-path="url(#pc890625189)" style="fill: none; stroke: #f29888; stroke-width: 0.2"/>
    <path d="M 640.907947 266.700627 
L 640.973083 278.988369 
L 678.493425 316.384585 
" clip-path="url(#pc890625189)" style="fill: none; stroke: #f29888; stroke-width: 0.2"/>
    <path d="M 626.991798 277.537129 
L 640.973083 278.988369 
" clip-path="url(#pc890625189)" style="fill: none; stroke: #f29888; stroke-width: 0.2"/>
    <path d="M 730.721128 173.343335 
L 717.596193 190.903045 
L 686.704412 221.019889 
L 640.907947 266.700627 
L 631.545582 267.671017 
L 626.897926 267.563839 
" clip-path="url(#pc890625189)" style="fill: none; stroke: #f29888; stroke-width: 0.2"/>
    <path d="M 668.040988 177.476905 
L 661.632739 184.898215 
L 659.500488 189.544499 
L 665.360826 198.926865 
L 686.704412 221.019889 
L 719.393184 251.901458 
" clip-path="url(#pc890625189)" style="fill: none; stroke: #f29888; stroke-width: 0.2"/>
    <path d="M 603.023608 187.684827 
L 627.030114 189.999279 
L 659.500488 189.544499 
" clip-path="url(#pc890625189)" style="fill: none; stroke: #f29888; stroke-width: 0.2"/>
    <path d="M 687.22167 192.22683 
L 717.000389 160.925242 
" clip-path="url(#pc890625189)" style="fill: none; stroke: #f29888; stroke-width: 0.2"/>
    <path d="M 635.135734 148.486872 
L 652.603719 162.938439 
L 668.040988 177.476905 
" clip-path="url(#pc890625189)" style="fill: none; stroke: #f29888; stroke-width: 0.2"/>
    <path d="M 700.561172 143.571196 
L 668.040988 177.476905 
" clip-path="url(#pc890625189)" style="fill: none; stroke: #f29888; stroke-width: 0.2"/>
    <path d="M 674.684876 139.747571 
L 652.603719 162.938439 
" clip-path="url(#pc890625189)" style="fill: none; stroke: #f29888; stroke-width: 0.2"/>
    <path d="M 751.470826 169.172107 
L 744.984031 171.987686 
L 730.721128 173.343335 
L 717.000389 160.925242 
L 700.561172 143.571196 
L 670.372479 113.019849 
" clip-path="url(#pc890625189)" style="fill: none; stroke: #f29888; stroke-width: 0.2"/>
    <path d="M 684.244702 104.966529 
L 680.976262 105.323355 
L 676.144692 106.453062 
L 673.679097 107.232271 
" clip-path="url(#pc890625189)" style="fill: none; stroke: #f29888; stroke-width: 0.2"/>
    <path d="M 626.374921 158.576029 
L 635.135734 148.486872 
L 643.534467 139.872128 
L 670.372479 113.019849 
" clip-path="url(#pc890625189)" style="fill: none; stroke: #f29888; stroke-width: 0.2"/>
    <path d="M 643.534467 139.872128 
L 628.585719 124.878882 
" clip-path="url(#pc890625189)" style="fill: none; stroke: #f29888; stroke-width: 0.2"/>
    <path d="M 628.585719 124.878882 
L 658.368268 94.249324 
" clip-path="url(#pc890625189)" style="fill: none; stroke: #f29888; stroke-width: 0.2"/>
    <path d="M 611.601172 47.921055 
L 611.675223 49.15951 
L 619.211859 58.362282 
L 624.872958 64.914585 
L 646.036461 83.876292 
L 658.368268 94.249324 
L 673.679097 107.232271 
L 672.035367 111.07907 
L 670.372479 113.019849 
" clip-path="url(#pc890625189)" style="fill: none; stroke: #f29888; stroke-width: 0.2"/>
    <path d="M 611.675223 49.15951 
L 563.50895 95.457242 
L 563.612402 98.232267 
L 578.323595 110.940029 
L 599.460278 132.106113 
L 615.173417 147.525173 
L 626.374921 158.576029 
L 627.030114 189.999279 
L 626.897926 267.563839 
L 626.999462 273.6295 
" clip-path="url(#pc890625189)" style="fill: none; stroke: #f29888; stroke-width: 0.2"/>
    <path d="M 599.460278 132.106113 
L 603.828232 160.64716 
L 601.115502 185.651353 
L 603.023608 187.684827 
" clip-path="url(#pc890625189)" style="fill: none; stroke: #f29888; stroke-width: 0.2"/>
    <path d="M 552.205911 156.293441 
L 549.738401 147.354268 
L 548.608097 139.646187 
L 546.655928 133.273478 
L 547.581244 127.931989 
L 555.698359 109.535136 
L 557.652444 105.734684 
L 560.426478 102.858275 
L 561.660233 100.390298 
L 563.612402 98.232267 
" clip-path="url(#pc890625189)" style="fill: none; stroke: #f29888; stroke-width: 0.2"/>
    <path d="M 624.872958 64.914585 
L 578.323595 110.940029 
L 577.160723 112.055253 
L 578.053471 176.445685 
L 577.890631 187.432815 
" clip-path="url(#pc890625189)" style="fill: none; stroke: #f29888; stroke-width: 0.2"/>
    <path d="M 599.460278 132.106113 
L 646.036461 83.876292 
" clip-path="url(#pc890625189)" style="fill: none; stroke: #f29888; stroke-width: 0.2"/>
    <path d="M 557.652444 105.734684 
L 549.32651 107.174337 
L 546.045283 107.305059 
" clip-path="url(#pc890625189)" style="fill: none; stroke: #f29888; stroke-width: 0.2"/>
    <path d="M 471.404242 278.152013 
L 483.178827 277.516852 
L 557.181164 274.376845 
L 575.212385 274.255184 
L 579.3083 274.229114 
L 626.999462 273.6295 
" clip-path="url(#pc890625189)" style="fill: none; stroke: #f29888; stroke-width: 0.2"/>
   </g>
  </g>
 </g>
 <defs>
  <clipPath id="pc890625189">
   <rect x="7.2" y="7.2" width="837" height="588.095904"/>
  </clipPath>
 </defs>
</svg>
