<?xml version="1.0" encoding="utf-8" standalone="no"?>
<!DOCTYPE svg PUBLIC "-//W3C//DTD SVG 1.1//EN"
  "http://www.w3.org/Graphics/SVG/1.1/DTD/svg11.dtd">
<svg xmlns:xlink="http://www.w3.org/1999/xlink" width="684.213573pt" height="846pt" viewBox="0 0 684.213573 846" xmlns="http://www.w3.org/2000/svg" version="1.1">
 <metadata>
  <rdf:RDF xmlns:dc="http://purl.org/dc/elements/1.1/" xmlns:cc="http://creativecommons.org/ns#" xmlns:rdf="http://www.w3.org/1999/02/22-rdf-syntax-ns#">
   <cc:Work>
    <dc:type rdf:resource="http://purl.org/dc/dcmitype/StillImage"/>
    <dc:date>2025-03-16T14:38:37.120472</dc:date>
    <dc:format>image/svg+xml</dc:format>
    <dc:creator>
     <cc:Agent>
      <dc:title>Matplotlib v3.10.1, https://matplotlib.org/</dc:title>
     </cc:Agent>
    </dc:creator>
   </cc:Work>
  </rdf:RDF>
 </metadata>
 <defs>
  <style type="text/css">*{stroke-linejoin: round; stroke-linecap: butt}</style>
 </defs>
 <g id="figure_1">
  <g id="patch_1">
   <path d="M 0 846 
L 684.213573 846 
L 684.213573 0 
L 0 0 
z
" style="fill: #ffffff"/>
  </g>
  <g id="axes_1">
   <g id="PatchCollection_1">
    <path d="M 51.066423 90.476115 
L 54.706667 131.63596 
L 50.839571 158.696625 
L 45.380265 176.887071 
L 66.078984 196.443384 
L 111.34352 239.653616 
L 85.185495 262.394842 
L 107.249571 292.184074 
L 37.646072 339.260568 
L 109.297605 410.447325 
L 74.949561 447.065896 
L 105.203656 475.948775 
L 84.958642 500.059039 
L 100.427028 519.165345 
L 82.001076 537.815305 
L 130.679003 573.299351 
L 152.060401 594.906051 
L 171.395884 574.437046 
L 207.789843 600.138181 
L 301.503332 686.121313 
L 327.207652 706.593487 
L 392.263496 778.933785 
L 430.476517 801 
L 468.91851 750.95409 
L 443.670016 728.43153 
L 421.150114 702.274049 
L 414.098599 663.601922 
L 422.515471 607.873874 
L 439.120241 537.133956 
L 478.01594 504.834823 
L 570.595166 379.517229 
L 604.714237 380.426751 
L 636.558421 345.855397 
L 632.920297 307.195946 
L 646.567502 218.046916 
L 614.608832 212.817955 
L 640.425518 158.582538 
L 595.160982 134.364527 
L 559.449702 174.839853 
L 544.208168 198.262429 
L 505.995147 286.273764 
L 493.028501 305.601905 
L 487.11549 297.869381 
L 475.741052 307.195946 
L 345.631484 80.927715 
L 324.932765 68.64758 
L 312.877769 81.837237 
L 256.238797 45 
L 241.226236 62.509096 
L 218.479481 55.914268 
L 202.330537 72.513842 
L 172.532267 53.638877 
L 163.432718 63.418619 
L 174.124477 74.104713 
L 152.969932 102.528077 
L 81.547371 55.914268 
L 51.066423 90.476115 
" clip-path="url(#pf20262e398)" style="fill: #f29888"/>
   </g>
   <g id="PatchCollection_2">
    <path d="M 285.265343 642.980801 
L 287.19253 644.24209 
L 285.710567 646.504804 
L 283.78338 645.240346 
L 285.265343 642.980801 
" clip-path="url(#pf20262e398)" style="fill: #f29888"/>
    <path d="M 289.882961 637.228944 
L 291.492131 638.5346 
L 289.921123 640.4709 
L 288.311953 639.168413 
L 289.882961 637.228944 
" clip-path="url(#pf20262e398)" style="fill: #f29888"/>
    <path d="M 272.877489 633.613038 
L 274.622346 634.883834 
L 273.297272 636.69971 
L 271.554534 635.428914 
L 272.877489 633.613038 
" clip-path="url(#pf20262e398)" style="fill: #f29888"/>
    <path d="M 296.735185 628.34288 
L 298.518205 629.927413 
L 297.068044 631.562652 
L 295.285024 629.978118 
L 296.735185 628.34288 
" clip-path="url(#pf20262e398)" style="fill: #f29888"/>
    <path d="M 278.457641 628.624927 
L 277.420903 630.288687 
L 275.495835 629.08761 
L 276.534693 627.42385 
L 278.457641 628.624927 
" clip-path="url(#pf20262e398)" style="fill: #f29888"/>
    <path d="M 282.116966 624.429082 
L 280.897898 626.010446 
L 279.112758 624.631902 
L 280.333946 623.050537 
L 282.116966 624.429082 
" clip-path="url(#pf20262e398)" style="fill: #f29888"/>
    <path d="M 285.328946 619.707171 
L 284.311289 621.066701 
L 282.782683 619.919499 
L 283.80034 618.563138 
L 285.328946 619.707171 
" clip-path="url(#pf20262e398)" style="fill: #f29888"/>
    <path d="M 292.70908 610.719697 
L 291.549375 612.263033 
L 289.603106 610.798924 
L 290.76281 609.258757 
L 292.70908 610.719697 
" clip-path="url(#pf20262e398)" style="fill: #f29888"/>
    <path d="M 296.455329 606.045323 
L 295.22566 607.88972 
L 293.171265 606.520683 
L 294.400934 604.676286 
L 296.455329 606.045323 
" clip-path="url(#pf20262e398)" style="fill: #f29888"/>
    <path d="M 297.933052 600.464595 
L 299.972606 602.007931 
L 298.528806 603.91571 
L 296.489251 602.375543 
L 297.933052 600.464595 
" clip-path="url(#pf20262e398)" style="fill: #f29888"/>
    <path d="M 300.104054 623.646322 
L 301.861632 625.259377 
L 300.294864 626.967504 
L 298.537286 625.357618 
L 300.104054 623.646322 
" clip-path="url(#pf20262e398)" style="fill: #f29888"/>
    <path d="M 303.472922 619.019484 
L 305.474315 620.591341 
L 303.869385 622.632221 
L 301.867993 621.060363 
L 303.472922 619.019484 
" clip-path="url(#pf20262e398)" style="fill: #f29888"/>
    <path d="M 308.682054 615.454283 
L 307.083485 617.628263 
L 305.264423 616.290917 
L 306.860872 614.116937 
L 308.682054 615.454283 
" clip-path="url(#pf20262e398)" style="fill: #f29888"/>
    <path d="M 311.410647 613.704958 
L 310.225501 615.137377 
L 308.313154 613.556012 
L 309.50042 612.123594 
L 311.410647 613.704958 
" clip-path="url(#pf20262e398)" style="fill: #f29888"/>
    <path d="M 316.378085 606.66646 
L 315.21626 608.317544 
L 313.011337 606.771039 
L 314.171042 605.116786 
L 316.378085 606.66646 
" clip-path="url(#pf20262e398)" style="fill: #f29888"/>
    <path d="M 319.876281 597.501517 
L 321.701704 598.829357 
L 320.2155 600.876574 
L 318.387958 599.548735 
L 319.876281 597.501517 
" clip-path="url(#pf20262e398)" style="fill: #f29888"/>
    <path d="M 301.378245 595.853603 
L 303.699775 597.450812 
L 302.101206 599.77057 
L 299.781796 598.170191 
L 301.378245 595.853603 
" clip-path="url(#pf20262e398)" style="fill: #f29888"/>
    <path d="M 312.625475 592.529251 
L 314.294009 593.961669 
L 312.765403 595.736347 
L 311.09899 594.303929 
L 312.625475 592.529251 
" clip-path="url(#pf20262e398)" style="fill: #f29888"/>
    <path d="M 307.373941 588.780244 
L 309.216324 590.342595 
L 307.795845 592.015862 
L 305.955582 590.450343 
L 307.373941 588.780244 
" clip-path="url(#pf20262e398)" style="fill: #f29888"/>
   </g>
   <g id="LineCollection_1">
    <path d="M 242.701838 395.926659 
L 280.980583 424.305656 
L 327.447225 459.479133 
L 372.595155 494.782542 
L 391.733467 510.802176 
L 403.137585 520.06536 
L 416.666063 526.07708 
L 438.439683 537.203675 
L 439.035079 537.496763 
" clip-path="url(#pf20262e398)" style="fill: none; stroke: #f29888; stroke-width: 0.2"/>
    <path d="M 597.556545 380.235946 
L 598.796986 379.542581 
L 602.835812 377.283036 
L 611.382033 373.187918 
" clip-path="url(#pf20262e398)" style="fill: none; stroke: #f29888; stroke-width: 0.2"/>
    <path d="M 455.553282 359.799292 
L 460.669128 364.910998 
L 484.791839 381.808464 
L 487.923255 384.806402 
L 489.201687 388.336743 
L 487.524673 391.949479 
L 416.666063 526.07708 
" clip-path="url(#pf20262e398)" style="fill: none; stroke: #f29888; stroke-width: 0.2"/>
    <path d="M 439.243208 403.998273 
L 455.553282 359.799292 
" clip-path="url(#pf20262e398)" style="fill: none; stroke: #f29888; stroke-width: 0.2"/>
    <path d="M 406.919877 332.859052 
L 407.651318 338.988028 
L 420.123977 348.590302 
L 433.345038 358.943644 
L 438.861587 369.059307 
" clip-path="url(#pf20262e398)" style="fill: none; stroke: #f29888; stroke-width: 0.2"/>
    <path d="M 471.500815 330.532957 
L 474.678873 333.014336 
" clip-path="url(#pf20262e398)" style="fill: none; stroke: #f29888; stroke-width: 0.2"/>
    <path d="M 472.859811 318.997552 
L 471.500815 330.532957 
" clip-path="url(#pf20262e398)" style="fill: none; stroke: #f29888; stroke-width: 0.2"/>
    <path d="M 497.181814 307.360737 
L 536.859836 338.484146 
" clip-path="url(#pf20262e398)" style="fill: none; stroke: #f29888; stroke-width: 0.2"/>
    <path d="M 496.265922 308.84703 
L 487.240577 308.168849 
L 474.019516 312.222086 
L 472.859811 318.997552 
" clip-path="url(#pf20262e398)" style="fill: none; stroke: #f29888; stroke-width: 0.2"/>
    <path d="M 207.855729 600.198633 
L 209.729751 597.434967 
" clip-path="url(#pf20262e398)" style="fill: none; stroke: #f29888; stroke-width: 0.2"/>
    <path d="M 151.659698 551.42328 
L 168.041856 529.353896 
L 184.290446 508.428545 
L 207.516347 483.548198 
L 224.926763 460.369641 
" clip-path="url(#pf20262e398)" style="fill: none; stroke: #f29888; stroke-width: 0.2"/>
    <path d="M 309.983807 384.647948 
L 296.762747 402.198243 
L 295.836255 403.453193 
L 280.980583 424.305656 
L 242.409262 473.169503 
L 169.682828 566.089723 
" clip-path="url(#pf20262e398)" style="fill: none; stroke: #f29888; stroke-width: 0.2"/>
    <path d="M 207.516347 483.548198 
L 175.182416 459.783363 
" clip-path="url(#pf20262e398)" style="fill: none; stroke: #f29888; stroke-width: 0.2"/>
    <path d="M 84.49606 539.634038 
L 99.873677 524.904526 
L 111.411364 513.581448 
L 125.912976 501.428076 
L 155.838452 474.979041 
L 169.926642 463.481665 
L 175.182416 459.783363 
L 215.356546 424.97116 
L 233.296991 407.363822 
L 240.736488 399.181291 
L 242.701838 395.926659 
" clip-path="url(#pf20262e398)" style="fill: none; stroke: #f29888; stroke-width: 0.2"/>
    <path d="M 242.701838 395.926659 
L 240.23826 390.143111 
L 223.169184 357.298898 
L 207.92977 337.660189 
L 188.99923 316.088348 
" clip-path="url(#pf20262e398)" style="fill: none; stroke: #f29888; stroke-width: 0.2"/>
    <path d="M 240.935779 330.257248 
L 288.362836 296.082027 
" clip-path="url(#pf20262e398)" style="fill: none; stroke: #f29888; stroke-width: 0.2"/>
    <path d="M 56.224672 136.471956 
L 66.161669 145.703449 
L 84.632144 161.716746 
L 101.468007 172.466222 
L 115.144893 184.505508 
L 136.070465 203.206174 
L 162.258172 226.115361 
L 174.417053 236.985261 
L 181.945595 247.490719 
L 190.082611 258.839149 
L 240.935779 330.257248 
L 265.955301 365.788829 
L 268.643611 366.492362 
L 270.865496 364.736699 
L 275.423751 361.114455 
L 278.932548 361.700733 
L 295.882897 374.557638 
L 309.983807 384.647948 
L 357.841248 419.843609 
L 402.022403 456.028019 
" clip-path="url(#pf20262e398)" style="fill: none; stroke: #f29888; stroke-width: 0.2"/>
    <path d="M 431.145572 800.128988 
L 410.528319 789.128674 
L 390.660687 773.353058 
L 387.310899 770.69421 
L 367.735842 749.870269 
L 330.530192 710.28806 
" clip-path="url(#pf20262e398)" style="fill: none; stroke: #f29888; stroke-width: 0.2"/>
    <path d="M 326.60703 706.115123 
L 326.088229 705.563541 
" clip-path="url(#pf20262e398)" style="fill: none; stroke: #f29888; stroke-width: 0.2"/>
    <path d="M 328.532726 596.411358 
L 333.644333 602.480122 
L 342.591234 609.48693 
L 357.224293 619.735693 
L 358.381878 621.719529 
L 357.720401 623.706534 
L 309.8566 678.845135 
L 303.326634 687.556901 
" clip-path="url(#pf20262e398)" style="fill: none; stroke: #f29888; stroke-width: 0.2"/>
    <path d="M 313.901787 568.127433 
L 316.492572 571.803551 
L 324.50026 575.603263 
L 330.404791 579.225507 
L 334.49662 583.90305 
L 335.139016 586.82493 
L 328.532726 596.411358 
L 276.314578 663.010361 
" clip-path="url(#pf20262e398)" style="fill: none; stroke: #f29888; stroke-width: 0.2"/>
    <path d="M 412.171411 533.489529 
L 420.321148 543.034759 
L 427.294219 557.904023 
L 424.722515 566.872483 
L 421.991802 573.324704 
L 416.235679 582.521337 
L 413.842065 588.466507 
L 410.392632 595.774376 
L 406.275361 604.327688 
L 397.14825 617.425443 
L 393.374439 622.416724 
L 388.315835 628.827747 
L 329.285368 703.002934 
L 326.088229 705.563541 
L 325.323127 705.09256 
" clip-path="url(#pf20262e398)" style="fill: none; stroke: #f29888; stroke-width: 0.2"/>
    <path d="M 303.815738 687.963026 
L 303.326634 687.556901 
L 300.590917 685.284163 
" clip-path="url(#pf20262e398)" style="fill: none; stroke: #f29888; stroke-width: 0.2"/>
    <path d="M 253.702431 642.263474 
L 209.729751 597.434967 
L 169.682828 566.089723 
L 151.659698 551.42328 
L 126.833108 529.531364 
L 111.411364 513.581448 
" clip-path="url(#pf20262e398)" style="fill: none; stroke: #f29888; stroke-width: 0.2"/>
    <path d="M 371.952759 536.246617 
L 385.521519 547.892939 
L 399.092399 544.502037 
L 405.654166 543.329482 
L 412.171411 533.489529 
L 416.666063 526.07708 
" clip-path="url(#pf20262e398)" style="fill: none; stroke: #f29888; stroke-width: 0.2"/>
    <path d="M 439.243208 403.998273 
L 434.078599 414.516407 
L 421.934558 429.45539 
L 402.022403 456.028019 
L 388.966712 474.386425 
L 372.595155 494.782542 
L 337.475387 541.215715 
L 331.863433 545.772833 
L 326.251478 550.567632 
L 315.262903 565.763309 
L 313.901787 568.127433 
L 313.041018 569.623233 
L 287.321858 605.630175 
L 255.553992 643.962301 
" clip-path="url(#pf20262e398)" style="fill: none; stroke: #f29888; stroke-width: 0.2"/>
    <path d="M 422.106288 471.8892 
L 391.733467 510.802176 
L 371.952759 536.246617 
L 352.907732 561.573802 
" clip-path="url(#pf20262e398)" style="fill: none; stroke: #f29888; stroke-width: 0.2"/>
    <path d="M 352.907732 561.573802 
L 331.863433 545.772833 
L 242.409262 473.169503 
L 224.926763 460.369641 
" clip-path="url(#pf20262e398)" style="fill: none; stroke: #f29888; stroke-width: 0.2"/>
    <path d="M 402.022403 456.028019 
L 422.106288 471.8892 
" clip-path="url(#pf20262e398)" style="fill: none; stroke: #f29888; stroke-width: 0.2"/>
    <path d="M 388.966712 474.386425 
L 343.77002 438.192508 
L 296.762747 402.198243 
" clip-path="url(#pf20262e398)" style="fill: none; stroke: #f29888; stroke-width: 0.2"/>
    <path d="M 421.934558 429.45539 
L 390.891779 404.800047 
L 386.373806 397.508023 
" clip-path="url(#pf20262e398)" style="fill: none; stroke: #f29888; stroke-width: 0.2"/>
    <path d="M 335.100854 336.237278 
L 409.476741 384.717668 
" clip-path="url(#pf20262e398)" style="fill: none; stroke: #f29888; stroke-width: 0.2"/>
    <path d="M 234.215003 225.773101 
L 237.723799 233.369356 
L 288.362836 296.082027 
L 318.038138 332.836868 
L 322.948333 336.341857 
L 335.100854 336.237278 
L 387.584394 333.768574 
L 406.919877 332.859052 
L 410.562241 331.154094 
L 426.687865 330.612183 
L 433.671536 330.989302 
L 471.500815 330.532957 
" clip-path="url(#pf20262e398)" style="fill: none; stroke: #f29888; stroke-width: 0.2"/>
    <path d="M 277.355179 161.139976 
L 378.832544 314.649592 
L 387.584394 333.768574 
" clip-path="url(#pf20262e398)" style="fill: none; stroke: #f29888; stroke-width: 0.2"/>
    <path d="M 301.10687 131.249333 
L 328.076901 171.341203 
L 360.798814 218.661715 
L 422.810167 316.963011 
L 433.671536 330.989302 
" clip-path="url(#pf20262e398)" style="fill: none; stroke: #f29888; stroke-width: 0.2"/>
    <path d="M 327.788565 105.74785 
L 365.096294 160.737504 
L 409.676032 222.420228 
L 472.859811 318.997552 
" clip-path="url(#pf20262e398)" style="fill: none; stroke: #f29888; stroke-width: 0.2"/>
    <path d="M 38.593498 340.201849 
L 43.029053 335.82213 
L 47.69156 332.466277 
" clip-path="url(#pf20262e398)" style="fill: none; stroke: #f29888; stroke-width: 0.2"/>
    <path d="M 50.82484 330.347076 
L 108.756975 294.91581 
L 110.075689 294.060162 
L 181.945595 247.490719 
" clip-path="url(#pf20262e398)" style="fill: none; stroke: #f29888; stroke-width: 0.2"/>
    <path d="M 87.75003 265.857282 
L 110.075689 294.060162 
" clip-path="url(#pf20262e398)" style="fill: none; stroke: #f29888; stroke-width: 0.2"/>
    <path d="M 169.926642 463.481665 
L 140.777129 440.144654 
L 109.101603 410.656283 
" clip-path="url(#pf20262e398)" style="fill: none; stroke: #f29888; stroke-width: 0.2"/>
    <path d="M 48.98169 180.289726 
L 48.382353 178.991331 
L 47.388017 175.365918 
L 47.504624 170.108436 
L 47.588179 169.530283 
" clip-path="url(#pf20262e398)" style="fill: none; stroke: #f29888; stroke-width: 0.2"/>
    <path d="M 51.683778 152.789137 
L 51.942032 152.041584 
L 55.001364 146.254867 
L 56.407002 140.965694 
L 56.224672 136.471956 
L 54.496674 133.105425 
" clip-path="url(#pf20262e398)" style="fill: none; stroke: #f29888; stroke-width: 0.2"/>
    <path d="M 51.687576 97.499421 
L 53.016933 94.934992 
L 58.14338 88.489109 
L 60.29106 84.936585 
L 62.275491 79.48262 
L 63.371108 76.524034 
" clip-path="url(#pf20262e398)" style="fill: none; stroke: #f29888; stroke-width: 0.2"/>
    <path d="M 214.38699 60.120958 
L 218.123301 60.981606 
L 233.078619 68.584198 
L 239.572543 70.20993 
L 264.526341 87.80776 
L 310.551999 119.111806 
" clip-path="url(#pf20262e398)" style="fill: none; stroke: #f29888; stroke-width: 0.2"/>
    <path d="M 190.082611 258.839149 
L 215.159375 238.278241 
L 227.786803 230.33022 
L 234.215003 225.773101 
L 247.894009 206.254816 
L 258.649372 191.528161 
L 270.572919 171.423599 
L 277.355179 161.139976 
L 301.10687 131.249333 
L 310.551999 119.111806 
L 320.802773 108.035916 
L 325.265623 104.89537 
L 327.788565 105.74785 
" clip-path="url(#pf20262e398)" style="fill: none; stroke: #f29888; stroke-width: 0.2"/>
    <path d="M 201.770825 139.118127 
L 205.360186 141.254079 
L 208.09514 141.254079 
L 250.910938 87.858465 
L 252.789363 86.489428 
L 255.780851 86.150338 
" clip-path="url(#pf20262e398)" style="fill: none; stroke: #f29888; stroke-width: 0.2"/>
    <path d="M 264.526341 87.80776 
L 259.455017 87.173947 
L 255.780851 86.150338 
L 251.765346 84.014387 
L 247.406382 83.586562 
L 244.586624 85.979208 
L 201.770825 139.118127 
" clip-path="url(#pf20262e398)" style="fill: none; stroke: #f29888; stroke-width: 0.2"/>
    <path d="M 535.038654 229.537953 
L 548.136748 235.530659 
" clip-path="url(#pf20262e398)" style="fill: none; stroke: #f29888; stroke-width: 0.2"/>
    <path d="M 640.014215 225.652677 
L 640.561677 217.064265 
" clip-path="url(#pf20262e398)" style="fill: none; stroke: #f29888; stroke-width: 0.2"/>
    <path d="M 602.144142 138.100746 
L 602.127692 138.097688 
L 602.067922 138.059966 
" clip-path="url(#pf20262e398)" style="fill: none; stroke: #f29888; stroke-width: 0.2"/>
    <path d="M 574.95625 160.775533 
L 586.508777 168.793273 
L 590.935585 170.818307 
L 605.341792 175.169436 
" clip-path="url(#pf20262e398)" style="fill: none; stroke: #f29888; stroke-width: 0.2"/>
    <path d="M 327.447225 459.479133 
L 343.77002 438.192508 
L 357.841248 419.843609 
L 367.371182 408.824762 
L 386.373806 397.508023 
L 409.476741 384.717668 
L 438.861587 369.059307 
L 455.553282 359.799292 
L 458.080463 358.119687 
L 474.678873 333.014336 
L 496.265922 308.84703 
L 497.181814 307.360737 
L 507.627639 290.374537 
L 535.038654 229.537953 
L 551.594662 194.462717 
L 559.899167 182.176244 
L 574.95625 160.775533 
L 587.145871 143.448889 
" clip-path="url(#pf20262e398)" style="fill: none; stroke: #f29888; stroke-width: 0.2"/>
   </g>
   <g id="LineCollection_2">
    <path d="M 571.90964 306.286423 
L 557.615799 331.993897 
L 546.675986 347.379718 
L 521.442333 380.705629 
L 482.194694 431.32514 
L 466.539737 452.225138 
L 460.806936 460.648519 
L 455.559642 469.157464 
L 451.016227 479.827713 
L 446.561858 493.014202 
L 443.458004 507.490501 
L 441.087711 521.519962 
L 438.439683 537.203675 
L 436.389754 548.766423 
" clip-path="url(#pf20262e398)" style="fill: none; stroke-dasharray: 3.7,1.6; stroke-dashoffset: 0; stroke: #f29888"/>
    <path d="M 508.973914 387.658562 
L 472.726244 437.618907 
" clip-path="url(#pf20262e398)" style="fill: none; stroke-dasharray: 3.7,1.6; stroke-dashoffset: 0; stroke: #f29888"/>
    <path d="M 516.604222 384.045826 
L 502.668681 402.210919 
L 491.996003 415.701638 
L 488.646215 420.509113 
L 482.194694 431.32514 
" clip-path="url(#pf20262e398)" style="fill: none; stroke-dasharray: 3.7,1.6; stroke-dashoffset: 0; stroke: #f29888"/>
    <path d="M 491.996003 415.701638 
L 502.272219 399.257348 
L 513.428284 384.308858 
" clip-path="url(#pf20262e398)" style="fill: none; stroke-dasharray: 3.7,1.6; stroke-dashoffset: 0; stroke: #f29888"/>
    <path d="M 578.954794 295.394339 
L 573.003621 303.687788 
L 558.516849 322.559583 
L 544.871765 340.528195 
L 535.67681 352.849528 
L 516.074192 378.179882 
L 508.973914 387.658562 
L 502.272219 399.257348 
" clip-path="url(#pf20262e398)" style="fill: none; stroke-dasharray: 3.7,1.6; stroke-dashoffset: 0; stroke: #f29888"/>
    <path d="M 578.954794 295.394339 
L 571.90964 306.286423 
L 563.446126 319.374671 
L 536.698707 355.552742 
L 513.428284 384.308858 
" clip-path="url(#pf20262e398)" style="fill: none; stroke-dasharray: 3.7,1.6; stroke-dashoffset: 0; stroke: #f29888"/>
   </g>
  </g>
 </g>
 <defs>
  <clipPath id="pf20262e398">
   <rect x="7.2" y="7.2" width="669.813573" height="831.6"/>
  </clipPath>
 </defs>
</svg>
