<?xml version="1.0" encoding="utf-8" standalone="no"?>
<!DOCTYPE svg PUBLIC "-//W3C//DTD SVG 1.1//EN"
  "http://www.w3.org/Graphics/SVG/1.1/DTD/svg11.dtd">
<svg xmlns:xlink="http://www.w3.org/1999/xlink" width="851.4pt" height="529.140583pt" viewBox="0 0 851.4 529.140583" xmlns="http://www.w3.org/2000/svg" version="1.1">
 <metadata>
  <rdf:RDF xmlns:dc="http://purl.org/dc/elements/1.1/" xmlns:cc="http://creativecommons.org/ns#" xmlns:rdf="http://www.w3.org/1999/02/22-rdf-syntax-ns#">
   <cc:Work>
    <dc:type rdf:resource="http://purl.org/dc/dcmitype/StillImage"/>
    <dc:date>2025-03-16T14:38:40.115458</dc:date>
    <dc:format>image/svg+xml</dc:format>
    <dc:creator>
     <cc:Agent>
      <dc:title>Matplotlib v3.10.1, https://matplotlib.org/</dc:title>
     </cc:Agent>
    </dc:creator>
   </cc:Work>
  </rdf:RDF>
 </metadata>
 <defs>
  <style type="text/css">*{stroke-linejoin: round; stroke-linecap: butt}</style>
 </defs>
 <g id="figure_1">
  <g id="patch_1">
   <path d="M 0 529.140583 
L 851.4 529.140583 
L 851.4 0 
L 0 0 
z
" style="fill: #ffffff"/>
  </g>
  <g id="axes_1">
   <g id="PatchCollection_1">
    <path d="M 539.228113 30.597299 
L 493.93124 202.652647 
L 258.377101 40.70728 
L 229.212265 111.54303 
L 115.272253 57.896644 
L 45.245455 148.784655 
L 69.855409 245.865628 
L 639.475488 498.543283 
L 806.154545 315.659236 
L 799.060288 165.399043 
L 539.228113 30.597299 
" clip-path="url(#p9fc6774cf8)" style="fill: #f29888"/>
   </g>
   <g id="PatchCollection_2">
    <path d="M 285.106535 200.238948 
L 267.626829 227.723962 
L 248.143615 215.332048 
L 252.298594 208.797694 
L 264.0797 216.29034 
L 277.404427 195.33968 
L 285.106535 200.238948 
" clip-path="url(#p9fc6774cf8)" style="fill: #f29888"/>
   </g>
   <g id="LineCollection_1">
    <path d="M 385.269931 221.854423 
L 379.763284 220.884153 
L 327.184199 216.098682 
L 320.437857 214.60734 
L 315.535061 212.636852 
L 300.946644 205.515544 
L 296.699688 203.539067 
L 292.912618 202.790401 
L 288.901603 204.137999 
L 286.670151 207.15063 
L 262.927983 256.724275 
L 238.426002 307.885092 
L 235.87063 314.173883 
L 234.462203 318.883523 
" clip-path="url(#p9fc6774cf8)" style="fill: none; stroke: #f29888; stroke-width: 0.2"/>
    <path d="M 437.960988 408.098482 
L 454.898977 416.667026 
" clip-path="url(#p9fc6774cf8)" style="fill: none; stroke: #f29888; stroke-width: 0.2"/>
    <path d="M 519.827517 445.468664 
L 532.549754 402.354719 
L 543.551051 365.077159 
" clip-path="url(#p9fc6774cf8)" style="fill: none; stroke: #f29888; stroke-width: 0.2"/>
    <path d="M 333.739181 362.921777 
L 292.312765 339.478783 
L 275.580875 330.89608 
L 264.851511 326.176491 
L 251.574772 320.726205 
L 235.87063 314.173883 
" clip-path="url(#p9fc6774cf8)" style="fill: none; stroke: #f29888; stroke-width: 0.2"/>
    <path d="M 573.96758 346.905546 
L 570.672389 361.60335 
L 569.704627 363.543892 
L 567.117262 363.543892 
L 555.960003 361.926774 
L 549.00971 361.60335 
L 545.774505 362.735333 
L 543.551051 365.077159 
" clip-path="url(#p9fc6774cf8)" style="fill: none; stroke: #f29888; stroke-width: 0.2"/>
    <path d="M 580.146062 376.750354 
L 543.551051 365.077159 
L 507.44792 353.391985 
L 486.56105 344.779336 
L 476.031637 339.544665 
L 466.621948 334.585504 
L 460.323495 329.524524 
" clip-path="url(#p9fc6774cf8)" style="fill: none; stroke: #f29888; stroke-width: 0.2"/>
    <path d="M 479.35482 278.046273 
L 460.323495 329.524524 
L 446.930785 359.519065 
L 446.051001 362.190304 
L 445.807061 364.819618 
L 445.987017 368.251501 
L 446.678847 373.019004 
L 446.638857 377.295382 
L 445.767071 382.655829 
L 443.347665 392.286664 
L 440.492366 400.833431 
L 437.960988 408.098482 
L 437.176464 408.805501 
" clip-path="url(#p9fc6774cf8)" style="fill: none; stroke: #f29888; stroke-width: 0.2"/>
    <path d="M 262.927983 256.724275 
L 332.430911 299.146666 
L 375.900233 325.098413 
L 439.392637 363.819401 
L 445.987017 368.251501 
L 451.149749 372.336221 
L 452.85333 373.312481 
L 497.454374 390.980991 
L 532.549754 402.354719 
" clip-path="url(#p9fc6774cf8)" style="fill: none; stroke: #f29888; stroke-width: 0.2"/>
    <path d="M 583.609211 366.173205 
L 573.96758 346.905546 
L 571.880092 342.736976 
L 558.511376 319.97754 
L 555.32016 316.59956 
L 551.197173 313.40725 
L 545.974456 310.520395 
L 510.023287 293.301085 
L 479.35482 278.046273 
L 474.975896 273.835778 
" clip-path="url(#p9fc6774cf8)" style="fill: none; stroke: #f29888; stroke-width: 0.2"/>
    <path d="M 397.846842 288.425774 
L 375.900233 325.098413 
" clip-path="url(#p9fc6774cf8)" style="fill: none; stroke: #f29888; stroke-width: 0.2"/>
    <path d="M 489.092428 240.738766 
L 502.865045 248.728526 
L 610.918503 312.179438 
" clip-path="url(#p9fc6774cf8)" style="fill: none; stroke: #f29888; stroke-width: 0.2"/>
    <path d="M 411.147575 283.173136 
L 430.858733 248.950131 
" clip-path="url(#p9fc6774cf8)" style="fill: none; stroke: #f29888; stroke-width: 0.2"/>
    <path d="M 474.975896 273.835778 
L 466.282031 269.810951 
L 430.858733 248.950131 
L 394.559649 226.05893 
L 389.144979 223.046299 
L 385.269931 221.854423 
" clip-path="url(#p9fc6774cf8)" style="fill: none; stroke: #f29888; stroke-width: 0.2"/>
    <path d="M 582.325527 349.319244 
L 573.96758 346.905546 
" clip-path="url(#p9fc6774cf8)" style="fill: none; stroke: #f29888; stroke-width: 0.2"/>
    <path d="M 764.300826 288.090372 
L 763.708972 290.85744 
L 749.396487 313.287463 
L 703.339801 389.250076 
L 698.62096 393.969664 
L 691.33475 400.569901 
" clip-path="url(#p9fc6774cf8)" style="fill: none; stroke: #f29888; stroke-width: 0.2"/>
    <path d="M 700.000621 284.418915 
L 645.37004 395.526889 
L 643.634467 396.299512 
L 598.977436 380.319992 
L 593.038895 378.127899 
L 590.111614 375.935806 
L 587.800182 373.252588 
L 583.609211 366.173205 
" clip-path="url(#p9fc6774cf8)" style="fill: none; stroke: #f29888; stroke-width: 0.2"/>
    <path d="M 553.09445 460.225536 
L 580.146062 376.750354 
L 583.609211 366.173205 
L 584.872901 362.310091 
L 585.904647 359.189652 
L 586.116595 357.099378 
L 585.616718 355.146858 
L 584.528985 353.4399 
L 583.285291 351.732942 
L 582.309531 350.014006 
L 582.325527 349.319244 
L 582.601459 348.666408 
L 583.373269 348.061486 
L 585.428764 347.558382 
L 589.071869 346.983407 
L 591.02339 346.408432 
L 592.611 345.737628 
L 594.286589 344.635592 
L 595.506289 343.527567 
L 597.633766 340.12563 
L 610.918503 312.179438 
L 641.802917 253.993143 
L 667.420624 205.240035 
L 687.003814 162.374434 
" clip-path="url(#p9fc6774cf8)" style="fill: none; stroke: #f29888; stroke-width: 0.2"/>
    <path d="M 764.300826 288.090372 
L 762.609242 285.257421 
L 738.695116 271.464005 
" clip-path="url(#p9fc6774cf8)" style="fill: none; stroke: #f29888; stroke-width: 0.2"/>
    <path d="M 507.247969 189.536024 
L 641.802917 253.993143 
L 693.210289 280.232377 
L 700.000621 284.418915 
L 733.812316 302.105393 
L 749.396487 313.287463 
" clip-path="url(#p9fc6774cf8)" style="fill: none; stroke: #f29888; stroke-width: 0.2"/>
    <path d="M 770.1074 159.331857 
L 781.356637 161.320313 
L 790.95028 162.937431 
L 795.345127 163.471606 
" clip-path="url(#p9fc6774cf8)" style="fill: none; stroke: #f29888; stroke-width: 0.2"/>
    <path d="M 738.695116 271.464005 
L 740.246735 262.372209 
L 744.181768 248.099647 
L 758.134341 201.945906 
L 770.1074 159.331857 
" clip-path="url(#p9fc6774cf8)" style="fill: none; stroke: #f29888; stroke-width: 0.2"/>
    <path d="M 751.783901 146.718338 
L 734.028262 187.763184 
L 715.808738 232.245903 
L 693.210289 280.232377 
" clip-path="url(#p9fc6774cf8)" style="fill: none; stroke: #f29888; stroke-width: 0.2"/>
    <path d="M 528.658709 127.474636 
L 667.420624 205.240035 
L 715.808738 232.245903 
L 744.181768 248.099647 
" clip-path="url(#p9fc6774cf8)" style="fill: none; stroke: #f29888; stroke-width: 0.2"/>
    <path d="M 770.1074 159.331857 
L 769.747488 155.780187 
L 769.107646 153.701891 
L 767.739982 151.006695 
L 766.052396 149.36562 
L 762.94116 147.383153 
L 758.998129 145.400686 
L 756.814665 144.915551 
L 754.279288 145.244964 
L 751.783901 146.718338 
" clip-path="url(#p9fc6774cf8)" style="fill: none; stroke: #f29888; stroke-width: 0.2"/>
    <path d="M 544.358853 81.231055 
L 687.003814 162.374434 
L 734.028262 187.763184 
L 758.134341 201.945906 
" clip-path="url(#p9fc6774cf8)" style="fill: none; stroke: #f29888; stroke-width: 0.2"/>
    <path d="M 751.783901 146.718338 
L 718.784007 128.385013 
L 697.333276 115.082722 
L 646.004269 85.993103 
" clip-path="url(#p9fc6774cf8)" style="fill: none; stroke: #f29888; stroke-width: 0.2"/>
    <path d="M 474.975896 273.835778 
L 477.307323 269.966673 
L 489.092428 240.738766 
L 507.247969 189.536024 
L 528.658709 127.474636 
L 544.358853 81.231055 
L 558.208938 40.444611 
" clip-path="url(#p9fc6774cf8)" style="fill: none; stroke: #f29888; stroke-width: 0.2"/>
   </g>
   <g id="LineCollection_2">
    <path d="M 229.108658 111.494249 
L 289.709405 152.851407 
" clip-path="url(#p9fc6774cf8)" style="fill: none; stroke-dasharray: 3.7,1.6; stroke-dashoffset: 0; stroke: #f29888"/>
   </g>
  </g>
 </g>
 <defs>
  <clipPath id="p9fc6774cf8">
   <rect x="7.2" y="7.2" width="837" height="514.740583"/>
  </clipPath>
 </defs>
</svg>
