<?xml version="1.0" encoding="utf-8" standalone="no"?>
<!DOCTYPE svg PUBLIC "-//W3C//DTD SVG 1.1//EN"
  "http://www.w3.org/Graphics/SVG/1.1/DTD/svg11.dtd">
<svg xmlns:xlink="http://www.w3.org/1999/xlink" width="828.323516pt" height="846pt" viewBox="0 0 828.323516 846" xmlns="http://www.w3.org/2000/svg" version="1.1">
 <metadata>
  <rdf:RDF xmlns:dc="http://purl.org/dc/elements/1.1/" xmlns:cc="http://creativecommons.org/ns#" xmlns:rdf="http://www.w3.org/1999/02/22-rdf-syntax-ns#">
   <cc:Work>
    <dc:type rdf:resource="http://purl.org/dc/dcmitype/StillImage"/>
    <dc:date>2025-03-16T14:29:52.017474</dc:date>
    <dc:format>image/svg+xml</dc:format>
    <dc:creator>
     <cc:Agent>
      <dc:title>Matplotlib v3.10.1, https://matplotlib.org/</dc:title>
     </cc:Agent>
    </dc:creator>
   </cc:Work>
  </rdf:RDF>
 </metadata>
 <defs>
  <style type="text/css">*{stroke-linejoin: round; stroke-linecap: butt}</style>
 </defs>
 <g id="figure_1">
  <g id="patch_1">
   <path d="M 0 846 
L 828.323516 846 
L 828.323516 0 
L 0 0 
z
" style="fill: #ffffff"/>
  </g>
  <g id="axes_1">
   <g id="PatchCollection_1">
    <path d="M 44.196523 568.308176 
L 50.904152 801 
L 83.373709 796.549547 
L 100.208885 778.904639 
L 166.340054 703.970981 
L 205.268121 672.44844 
L 232.329181 657.041015 
L 268.909195 658.489088 
L 304.075352 635.350984 
L 377.822121 644.480704 
L 427.398918 596.539049 
L 468.628055 545.130847 
L 581.874334 588.110484 
L 651.580574 366.187676 
L 772.090629 365.056676 
L 784.126993 299.327921 
L 564.792225 290.06418 
L 561.75254 253.177561 
L 427.577016 240.725119 
L 394.55022 156.998426 
L 391.873287 152.914078 
L 352.793345 93.289781 
L 308.367186 45 
L 219.593536 63.061679 
L 210.084415 121.666115 
L 199.865087 146.500719 
L 188.066915 176.382329 
L 170.104149 199.229511 
L 153.105079 205.262056 
L 125.94022 209.003182 
L 73.579413 210.666995 
L 78.937649 296.740676 
L 101.615095 406.730433 
L 103.916164 429.592325 
L 88.686055 468.400991 
L 90.390551 497.617403 
L 75.073032 520.55938 
L 44.196523 568.308176 
" clip-path="url(#pac09dd4c06)" style="fill: #f29888"/>
   </g>
   <g id="PatchCollection_2">
    <path d="M 492.091098 510.064941 
L 491.714143 518.64714 
L 488.853649 518.521291 
L 489.229512 509.939093 
L 492.091098 510.064941 
" clip-path="url(#pac09dd4c06)" style="fill: #f29888"/>
    <path d="M 462.436145 433.192893 
L 462.247121 434.53473 
L 455.141776 433.529578 
L 455.330801 432.187741 
L 462.436145 433.192893 
" clip-path="url(#pac09dd4c06)" style="fill: #f29888"/>
    <path d="M 596.44122 304.419055 
L 596.446683 305.223177 
L 595.632677 305.22808 
L 595.628306 304.423959 
L 596.44122 304.419055 
" clip-path="url(#pac09dd4c06)" style="fill: #f29888"/>
    <path d="M 434.76103 304.119961 
L 434.755567 304.955136 
L 433.972154 304.950233 
L 433.977617 304.115058 
L 434.76103 304.119961 
" clip-path="url(#pac09dd4c06)" style="fill: #f29888"/>
    <path d="M 337.264949 166.677302 
L 337.368749 167.863872 
L 336.146101 167.971742 
L 336.042301 166.785172 
L 337.264949 166.677302 
" clip-path="url(#pac09dd4c06)" style="fill: #f29888"/>
    <path d="M 337.204855 163.617718 
L 337.291172 164.521538 
L 335.033808 164.735643 
L 334.94749 163.83019 
L 337.204855 163.617718 
" clip-path="url(#pac09dd4c06)" style="fill: #f29888"/>
    <path d="M 336.669468 160.561403 
L 336.868326 161.676059 
L 335.68392 161.886896 
L 335.485062 160.773874 
L 336.669468 160.561403 
" clip-path="url(#pac09dd4c06)" style="fill: #f29888"/>
    <path d="M 151.196262 333.838132 
L 151.02472 337.394572 
L 149.234999 337.307949 
L 149.406541 333.75151 
L 151.196262 333.838132 
" clip-path="url(#pac09dd4c06)" style="fill: #f29888"/>
    <path d="M 315.742409 188.308496 
L 316.235183 189.509775 
L 314.368979 190.274671 
L 313.877297 189.073392 
L 315.742409 188.308496 
" clip-path="url(#pac09dd4c06)" style="fill: #f29888"/>
    <path d="M 320.604593 181.236477 
L 320.962974 182.717237 
L 319.846311 182.986912 
L 319.486837 181.507786 
L 320.604593 181.236477 
" clip-path="url(#pac09dd4c06)" style="fill: #f29888"/>
    <path d="M 228.232927 181.079575 
L 228.052644 182.861064 
L 223.807793 182.431218 
L 223.988076 180.64973 
L 228.232927 181.079575 
" clip-path="url(#pac09dd4c06)" style="fill: #f29888"/>
    <path d="M 311.534708 180.013951 
L 312.041686 181.144951 
L 310.891151 181.659785 
L 310.384173 180.530419 
L 311.534708 180.013951 
" clip-path="url(#pac09dd4c06)" style="fill: #f29888"/>
    <path d="M 310.18313 177.140688 
L 310.876947 178.359945 
L 309.215063 179.306258 
L 308.520153 178.088636 
L 310.18313 177.140688 
" clip-path="url(#pac09dd4c06)" style="fill: #f29888"/>
    <path d="M 320.802358 175.93614 
L 320.950956 176.993592 
L 319.019193 177.264901 
L 318.870596 176.205815 
L 320.802358 175.93614 
" clip-path="url(#pac09dd4c06)" style="fill: #f29888"/>
    <path d="M 319.739234 172.605246 
L 319.891109 173.896417 
L 318.626941 174.046781 
L 318.473973 172.755611 
L 319.739234 172.605246 
" clip-path="url(#pac09dd4c06)" style="fill: #f29888"/>
    <path d="M 320.406828 168.787304 
L 320.555425 169.805531 
L 318.964562 170.037615 
L 318.815965 169.019388 
L 320.406828 168.787304 
" clip-path="url(#pac09dd4c06)" style="fill: #f29888"/>
    <path d="M 321.545344 165.067425 
L 321.699404 166.126512 
L 319.965407 166.378209 
L 319.811347 165.319122 
L 321.545344 165.067425 
" clip-path="url(#pac09dd4c06)" style="fill: #f29888"/>
    <path d="M 326.750613 153.221344 
L 327.460819 154.313118 
L 326.454511 154.966875 
L 325.744304 153.875101 
L 326.750613 153.221344 
" clip-path="url(#pac09dd4c06)" style="fill: #f29888"/>
    <path d="M 337.48566 146.113368 
L 338.12266 147.288496 
L 337.122908 147.831115 
L 336.484815 146.655986 
L 337.48566 146.113368 
" clip-path="url(#pac09dd4c06)" style="fill: #f29888"/>
    <path d="M 322.381203 156.063553 
L 323.199579 157.665259 
L 322.391036 158.07876 
L 321.57266 156.477055 
L 322.381203 156.063553 
" clip-path="url(#pac09dd4c06)" style="fill: #f29888"/>
    <path d="M 324.851629 154.52232 
L 325.706062 155.913189 
L 324.512915 156.645397 
L 323.658482 155.256163 
L 324.851629 154.52232 
" clip-path="url(#pac09dd4c06)" style="fill: #f29888"/>
    <path d="M 292.757936 133.89301 
L 293.534792 135.272438 
L 291.088404 136.648597 
L 290.311547 135.267535 
L 292.757936 133.89301 
" clip-path="url(#pac09dd4c06)" style="fill: #f29888"/>
    <path d="M 294.502859 130.982156 
L 294.924612 131.820599 
L 293.111946 132.734225 
L 292.6891 131.895781 
L 294.502859 130.982156 
" clip-path="url(#pac09dd4c06)" style="fill: #f29888"/>
    <path d="M 300.462039 129.877306 
L 301.141652 131.039359 
L 298.101968 132.81431 
L 297.422355 131.650623 
L 300.462039 129.877306 
" clip-path="url(#pac09dd4c06)" style="fill: #f29888"/>
    <path d="M 302.791517 128.19715 
L 303.66234 129.821737 
L 302.518361 130.423193 
L 301.681409 128.7888 
L 302.791517 128.19715 
" clip-path="url(#pac09dd4c06)" style="fill: #f29888"/>
    <path d="M 304.066611 127.515608 
L 304.936341 129.140195 
L 303.66234 129.821737 
L 302.791517 128.19715 
L 304.066611 127.515608 
" clip-path="url(#pac09dd4c06)" style="fill: #f29888"/>
    <path d="M 293.35888 122.793846 
L 294.070179 123.354443 
L 291.898039 126.105127 
L 291.187832 125.54453 
L 293.35888 122.793846 
" clip-path="url(#pac09dd4c06)" style="fill: #f29888"/>
    <path d="M 287.977698 119.240675 
L 289.239681 118.691519 
L 290.622945 121.870414 
L 289.35987 122.41957 
L 287.977698 119.240675 
" clip-path="url(#pac09dd4c06)" style="fill: #f29888"/>
    <path d="M 301.046594 111.98397 
L 302.091144 113.000562 
L 298.980439 116.194166 
L 297.935889 115.177574 
L 301.046594 111.98397 
" clip-path="url(#pac09dd4c06)" style="fill: #f29888"/>
   </g>
   <g id="LineCollection_1">
    <path d="M 504.017168 558.561851 
L 483.024491 546.895991 
L 470.489889 537.816937 
L 455.936115 524.22042 
L 454.824915 522.994626 
L 454.109245 521.571069 
L 453.672195 519.621238 
L 453.750864 517.409904 
L 454.423921 514.801413 
L 455.454267 511.016158 
L 456.024618 509.306583 
L 456.188512 508.812996 
L 457.946546 502.744494 
L 460.768799 490.976863 
L 465.435403 470.341015 
L 468.760263 456.105451 
L 471.132353 446.607992 
L 471.699426 443.767417 
L 472.058899 441.547911 
L 471.850208 437.001029 
L 469.878019 417.8345 
" clip-path="url(#pac09dd4c06)" style="fill: none; stroke: #f29888; stroke-width: 0.2"/>
    <path d="M 529.192295 548.863801 
L 537.548442 571.287761 
" clip-path="url(#pac09dd4c06)" style="fill: none; stroke: #f29888; stroke-width: 0.2"/>
    <path d="M 559.544781 579.635891 
L 559.630661 577.480391 
L 544.191861 536.494713 
" clip-path="url(#pac09dd4c06)" style="fill: none; stroke: #f29888; stroke-width: 0.2"/>
    <path d="M 579.844946 587.340283 
L 580.828692 586.649336 
L 580.922657 585.971063 
L 573.971373 564.012991 
L 573.31252 559.402368 
L 575.069462 555.30331 
L 580.556628 528.590788 
L 588.237786 486.949719 
" clip-path="url(#pac09dd4c06)" style="fill: none; stroke: #f29888; stroke-width: 0.2"/>
    <path d="M 379.786662 594.388188 
L 382.340128 598.253528 
L 392.101646 607.839244 
L 402.683726 616.467205 
" clip-path="url(#pac09dd4c06)" style="fill: none; stroke: #f29888; stroke-width: 0.2"/>
    <path d="M 328.271547 628.050149 
L 329.074627 630.111119 
L 329.877707 631.717728 
L 330.970333 633.141284 
L 332.7087 634.110479 
L 336.111137 634.777312 
L 346.689938 635.627196 
L 352.844699 635.597777 
L 353.667446 635.463757 
L 358.764544 634.631851 
L 360.933406 635.100922 
L 370.281912 638.998949 
L 374.26781 641.051747 
L 375.592072 640.92263 
L 376.598381 640.348958 
L 378.663443 638.413837 
L 381.921653 636.78925 
L 383.122448 635.771023 
L 392.126776 628.141676 
L 399.056208 620.907851 
L 402.683726 616.467205 
L 406.58877 611.684971 
L 410.445738 606.13784 
L 419.786595 595.107321 
L 427.198968 585.88444 
L 433.104609 576.118941 
L 435.815414 570.4525 
L 439.672382 559.301035 
L 443.167692 554.237685 
L 445.947331 546.632854 
L 447.108792 542.46842 
L 447.674773 537.168083 
L 447.872538 536.51596 
L 448.341274 534.976362 
L 449.465586 532.98894 
L 455.936115 524.22042 
" clip-path="url(#pac09dd4c06)" style="fill: none; stroke: #f29888; stroke-width: 0.2"/>
    <path d="M 428.702421 534.360196 
L 414.918948 550.584817 
L 402.228101 565.634309 
L 394.752356 576.973729 
L 379.786662 594.388188 
" clip-path="url(#pac09dd4c06)" style="fill: none; stroke: #f29888; stroke-width: 0.2"/>
    <path d="M 447.872538 536.51596 
L 446.210654 523.200559 
L 445.606432 518.620989 
" clip-path="url(#pac09dd4c06)" style="fill: none; stroke: #f29888; stroke-width: 0.2"/>
    <path d="M 456.188512 508.812996 
L 454.623872 509.1268 
L 453.444929 509.481463 
L 452.365415 510.182617 
L 450.54073 511.655206 
L 448.341274 514.173806 
L 446.499107 517.166379 
L 445.606432 518.620989 
L 445.300497 519.117845 
L 444.867817 519.890913 
L 444.450434 520.833958 
L 443.6703 521.844013 
L 441.515642 524.06025 
L 434.58621 530.408233 
L 428.702421 534.360196 
" clip-path="url(#pac09dd4c06)" style="fill: none; stroke: #f29888; stroke-width: 0.2"/>
    <path d="M 407.520779 521.575972 
L 409.930019 521.518768 
L 425.029013 521.99928 
L 439.876703 520.922215 
L 442.355871 520.521789 
L 444.867817 519.890913 
" clip-path="url(#pac09dd4c06)" style="fill: none; stroke: #f29888; stroke-width: 0.2"/>
    <path d="M 382.164216 510.986739 
L 398.805997 518.637333 
L 407.520779 521.575972 
" clip-path="url(#pac09dd4c06)" style="fill: none; stroke: #f29888; stroke-width: 0.2"/>
    <path d="M 456.024618 509.306583 
L 461.525988 510.440852 
L 470.383904 511.204113 
L 486.991814 512.099761 
" clip-path="url(#pac09dd4c06)" style="fill: none; stroke: #f29888; stroke-width: 0.2"/>
    <path d="M 513.12742 443.226433 
L 509.800375 456.979851 
L 505.531487 466.241957 
L 501.649388 472.398716 
" clip-path="url(#pac09dd4c06)" style="fill: none; stroke: #f29888; stroke-width: 0.2"/>
    <path d="M 495.50009 434.266689 
L 497.982536 419.486872 
" clip-path="url(#pac09dd4c06)" style="fill: none; stroke: #f29888; stroke-width: 0.2"/>
    <path d="M 622.478579 458.839302 
L 616.56957 458.991789 
" clip-path="url(#pac09dd4c06)" style="fill: none; stroke: #f29888; stroke-width: 0.2"/>
    <path d="M 517.613741 472.359491 
L 530.927385 470.623765 
L 534.476233 471.898592 
" clip-path="url(#pac09dd4c06)" style="fill: none; stroke: #f29888; stroke-width: 0.2"/>
    <path d="M 518.007086 478.776118 
L 517.613741 472.359491 
L 517.065243 463.412823 
L 516.359407 457.532276 
L 516.232662 456.481361 
L 513.12742 443.226433 
" clip-path="url(#pac09dd4c06)" style="fill: none; stroke: #f29888; stroke-width: 0.2"/>
    <path d="M 516.359407 457.532276 
L 550.44605 461.028243 
" clip-path="url(#pac09dd4c06)" style="fill: none; stroke: #f29888; stroke-width: 0.2"/>
    <path d="M 597.499974 425.022562 
L 592.046679 455.180384 
L 590.188123 470.484842 
L 588.237786 486.949719 
" clip-path="url(#pac09dd4c06)" style="fill: none; stroke: #f29888; stroke-width: 0.2"/>
    <path d="M 616.56957 458.991789 
L 606.513043 456.836025 
L 592.046679 455.180384 
L 573.154089 454.976085 
L 560.922145 456.751036 
L 554.013473 456.751036 
L 549.438649 451.053542 
L 547.983272 446.68154 
L 546.215403 441.371396 
" clip-path="url(#pac09dd4c06)" style="fill: none; stroke: #f29888; stroke-width: 0.2"/>
    <path d="M 547.983272 446.68154 
L 557.88246 443.28854 
L 562.09781 437.963687 
L 572.768392 438.171255 
" clip-path="url(#pac09dd4c06)" style="fill: none; stroke: #f29888; stroke-width: 0.2"/>
    <path d="M 513.272739 437.139952 
L 513.12742 443.226433 
" clip-path="url(#pac09dd4c06)" style="fill: none; stroke: #f29888; stroke-width: 0.2"/>
    <path d="M 572.768392 438.171255 
L 575.552402 421.928655 
" clip-path="url(#pac09dd4c06)" style="fill: none; stroke: #f29888; stroke-width: 0.2"/>
    <path d="M 546.215403 441.371396 
L 513.272739 437.139952 
L 506.266824 436.241036 
L 501.726964 435.541516 
L 497.460261 434.84363 
L 495.50009 434.266689 
L 493.392416 433.506696 
L 491.010492 432.060259 
L 469.878019 417.8345 
" clip-path="url(#pac09dd4c06)" style="fill: none; stroke: #f29888; stroke-width: 0.2"/>
    <path d="M 327.341723 457.953949 
L 343.472156 460.264981 
L 344.87618 460.461109 
L 357.400948 462.057911 
L 364.996881 462.865301 
L 368.754421 462.945386 
L 370.583476 462.631583 
L 372.358993 462.000707 
" clip-path="url(#pac09dd4c06)" style="fill: none; stroke: #f29888; stroke-width: 0.2"/>
    <path d="M 318.928505 434.91064 
L 330.89822 432.965712 
L 342.048464 432.096215 
" clip-path="url(#pac09dd4c06)" style="fill: none; stroke: #f29888; stroke-width: 0.2"/>
    <path d="M 343.472156 460.264981 
L 343.738756 449.960132 
L 343.689588 442.100336 
L 342.048464 432.096215 
L 338.153254 405.798829 
L 336.676024 396.571045 
L 334.711483 387.390659 
" clip-path="url(#pac09dd4c06)" style="fill: none; stroke: #f29888; stroke-width: 0.2"/>
    <path d="M 326.456696 407.810767 
L 329.393674 425.120625 
" clip-path="url(#pac09dd4c06)" style="fill: none; stroke: #f29888; stroke-width: 0.2"/>
    <path d="M 368.499839 443.205186 
L 366.227178 427.513377 
L 362.052255 404.148092 
L 359.96534 387.920202 
" clip-path="url(#pac09dd4c06)" style="fill: none; stroke: #f29888; stroke-width: 0.2"/>
    <path d="M 345.738261 386.289078 
L 354.693421 443.755976 
" clip-path="url(#pac09dd4c06)" style="fill: none; stroke: #f29888; stroke-width: 0.2"/>
    <path d="M 338.153254 405.798829 
L 326.456696 407.810767 
L 318.654256 408.623061 
L 315.133817 409.126454 
" clip-path="url(#pac09dd4c06)" style="fill: none; stroke: #f29888; stroke-width: 0.2"/>
    <path d="M 359.96534 387.920202 
L 375.315638 386.169767 
L 382.11614 385.226722 
L 385.815771 384.95051 
L 390.980612 385.386893 
L 398.064104 386.74017 
" clip-path="url(#pac09dd4c06)" style="fill: none; stroke: #f29888; stroke-width: 0.2"/>
    <path d="M 359.96534 387.920202 
L 359.3786 384.927628 
" clip-path="url(#pac09dd4c06)" style="fill: none; stroke: #f29888; stroke-width: 0.2"/>
    <path d="M 359.3786 384.927628 
L 345.738261 386.289078 
L 334.711483 387.390659 
" clip-path="url(#pac09dd4c06)" style="fill: none; stroke: #f29888; stroke-width: 0.2"/>
    <path d="M 613.093927 427.565677 
L 597.499974 425.022562 
L 590.247125 423.474791 
L 575.552402 421.928655 
L 569.712318 421.044449 
" clip-path="url(#pac09dd4c06)" style="fill: none; stroke: #f29888; stroke-width: 0.2"/>
    <path d="M 547.894769 422.043063 
L 560.988795 423.600639 
L 569.597592 421.928655 
" clip-path="url(#pac09dd4c06)" style="fill: none; stroke: #f29888; stroke-width: 0.2"/>
    <path d="M 626.941865 370.82445 
L 613.929786 423.757541 
L 613.093927 427.565677 
L 606.513043 456.836025 
" clip-path="url(#pac09dd4c06)" style="fill: none; stroke: #f29888; stroke-width: 0.2"/>
    <path d="M 597.362303 377.066197 
L 594.424233 399.651876 
L 590.247125 423.474791 
" clip-path="url(#pac09dd4c06)" style="fill: none; stroke: #f29888; stroke-width: 0.2"/>
    <path d="M 569.597592 421.928655 
L 569.712318 421.044449 
L 574.8564 381.552606 
L 576.790347 371.574636 
" clip-path="url(#pac09dd4c06)" style="fill: none; stroke: #f29888; stroke-width: 0.2"/>
    <path d="M 546.215403 441.371396 
L 547.745079 427.266583 
L 547.894769 422.043063 
L 549.25181 411.741483 
L 543.183367 407.072021 
L 551.959336 346.09935 
" clip-path="url(#pac09dd4c06)" style="fill: none; stroke: #f29888; stroke-width: 0.2"/>
    <path d="M 534.686017 344.51072 
L 530.493613 370.938857 
L 527.590506 389.237523 
L 523.482234 423.040043 
" clip-path="url(#pac09dd4c06)" style="fill: none; stroke: #f29888; stroke-width: 0.2"/>
    <path d="M 705.671007 342.049324 
L 687.090908 338.875332 
L 672.619081 339.435929 
L 654.038982 337.100381 
L 647.7837 335.140744 
L 639.938647 322.291145 
" clip-path="url(#pac09dd4c06)" style="fill: none; stroke: #f29888; stroke-width: 0.2"/>
    <path d="M 612.413222 308.470716 
L 613.452309 316.253696 
L 618.634632 321.215714 
L 639.938647 322.291145 
L 675.421666 324.08244 
L 712.581865 326.730156 
" clip-path="url(#pac09dd4c06)" style="fill: none; stroke: #f29888; stroke-width: 0.2"/>
    <path d="M 723.963746 317.484394 
L 638.186076 312.581215 
L 618.18447 311.079208 
L 612.413222 308.470716 
L 612.408851 304.185337 
" clip-path="url(#pac09dd4c06)" style="fill: none; stroke: #f29888; stroke-width: 0.2"/>
    <path d="M 547.745079 427.266583 
L 523.482234 423.040043 
L 506.208915 420.611334 
L 499.9733 419.774525 
L 497.982536 419.486872 
L 496.722739 418.919737 
L 475.30509 403.149478 
L 470.730267 401.655642 
L 459.86629 399.854541 
L 436.570418 396.188597 
" clip-path="url(#pac09dd4c06)" style="fill: none; stroke: #f29888; stroke-width: 0.2"/>
    <path d="M 397.645629 393.467333 
L 393.740585 392.996627 
L 392.192334 393.400323 
L 391.451534 394.948093 
L 389.267375 396.021889 
L 380.649837 396.999256 
L 378.00896 397.345748 
L 378.951896 410.275432 
L 379.467616 414.341802 
L 379.804144 422.085557 
L 380.140673 428.819257 
" clip-path="url(#pac09dd4c06)" style="fill: none; stroke: #f29888; stroke-width: 0.2"/>
    <path d="M 469.878019 417.8345 
L 468.540645 416.987885 
L 451.679246 405.710572 
L 436.570418 396.188597 
" clip-path="url(#pac09dd4c06)" style="fill: none; stroke: #f29888; stroke-width: 0.2"/>
    <path d="M 506.208915 420.611334 
L 511.157416 388.490605 
L 512.27845 378.4064 
L 510.130348 376.445128 
L 499.02053 372.243103 
" clip-path="url(#pac09dd4c06)" style="fill: none; stroke: #f29888; stroke-width: 0.2"/>
    <path d="M 436.570418 396.188597 
L 431.645954 395.456389 
L 426.544485 394.856567 
L 420.685826 393.83834 
L 406.831333 391.42761 
L 397.872895 389.930506 
" clip-path="url(#pac09dd4c06)" style="fill: none; stroke: #f29888; stroke-width: 0.2"/>
    <path d="M 465.310843 363.118286 
L 464.621397 368.537934 
L 459.86629 399.854541 
" clip-path="url(#pac09dd4c06)" style="fill: none; stroke: #f29888; stroke-width: 0.2"/>
    <path d="M 468.540645 416.987885 
L 471.884079 409.224517 
L 475.30509 403.149478 
L 484.534499 390.853938 
L 496.209205 375.855112 
L 499.02053 372.243103 
L 507.572511 362.726032 
L 511.700451 356.438521 
L 512.372416 354.374283 
L 524.755143 338.966858 
" clip-path="url(#pac09dd4c06)" style="fill: none; stroke: #f29888; stroke-width: 0.2"/>
    <path d="M 400.819706 357.9487 
L 421.001595 359.914875 
L 421.595983 360.093024 
L 421.774081 360.80562 
L 420.9415 369.750653 
L 420.823497 381.073729 
L 420.685826 393.83834 
" clip-path="url(#pac09dd4c06)" style="fill: none; stroke: #f29888; stroke-width: 0.2"/>
    <path d="M 496.209205 375.855112 
L 492.794749 373.817024 
L 486.603932 372.042073 
L 464.621397 368.537934 
" clip-path="url(#pac09dd4c06)" style="fill: none; stroke: #f29888; stroke-width: 0.2"/>
    <path d="M 431.645954 395.456389 
L 440.143304 337.675688 
L 443.838564 325.339288 
" clip-path="url(#pac09dd4c06)" style="fill: none; stroke: #f29888; stroke-width: 0.2"/>
    <path d="M 466.537862 356.825872 
L 491.330631 361.340066 
L 492.263733 360.874264 
L 493.020923 358.68908 
L 493.366193 354.518109 
" clip-path="url(#pac09dd4c06)" style="fill: none; stroke: #f29888; stroke-width: 0.2"/>
    <path d="M 374.176029 355.642572 
L 376.611492 355.439907 
L 381.543604 355.534702 
L 400.819706 357.9487 
" clip-path="url(#pac09dd4c06)" style="fill: none; stroke: #f29888; stroke-width: 0.2"/>
    <path d="M 530.493613 370.938857 
L 525.810619 367.333386 
L 511.700451 356.438521 
L 506.468959 351.447084 
L 501.141317 347.030954 
L 494.805181 343.814468 
L 487.557795 342.951509 
L 469.463914 340.454156 
" clip-path="url(#pac09dd4c06)" style="fill: none; stroke: #f29888; stroke-width: 0.2"/>
    <path d="M 493.366193 354.518109 
L 490.630258 353.702547 
L 467.831531 350.198408 
" clip-path="url(#pac09dd4c06)" style="fill: none; stroke: #f29888; stroke-width: 0.2"/>
    <path d="M 469.463914 340.454156 
L 467.831531 350.198408 
L 466.537862 356.825872 
L 465.425569 362.526636 
L 465.310843 363.118286 
" clip-path="url(#pac09dd4c06)" style="fill: none; stroke: #f29888; stroke-width: 0.2"/>
    <path d="M 465.425569 362.526636 
L 464.381019 357.018731 
L 460.926137 346.74657 
L 457.518237 336.618235 
L 455.069663 331.770625 
" clip-path="url(#pac09dd4c06)" style="fill: none; stroke: #f29888; stroke-width: 0.2"/>
    <path d="M 397.872895 389.930506 
L 398.064104 386.74017 
L 400.819706 357.9487 
L 401.569247 348.838593 
L 402.859638 333.93783 
L 404.032026 319.332893 
L 404.355443 303.198164 
" clip-path="url(#pac09dd4c06)" style="fill: none; stroke: #f29888; stroke-width: 0.2"/>
    <path d="M 388.207528 314.452595 
L 381.543604 355.534702 
" clip-path="url(#pac09dd4c06)" style="fill: none; stroke: #f29888; stroke-width: 0.2"/>
    <path d="M 455.069663 331.770625 
L 450.942816 328.652203 
L 443.838564 325.339288 
" clip-path="url(#pac09dd4c06)" style="fill: none; stroke: #f29888; stroke-width: 0.2"/>
    <path d="M 455.069663 331.770625 
L 457.085557 328.124294 
L 458.525638 324.28347 
L 459.773417 315.403812 
L 461.117346 306.141706 
L 460.060777 302.766684 
" clip-path="url(#pac09dd4c06)" style="fill: none; stroke: #f29888; stroke-width: 0.2"/>
    <path d="M 437.647747 302.93993 
L 437.50352 308.349771 
L 438.031258 311.948705 
L 442.494634 321.884181 
L 443.838564 325.339288 
" clip-path="url(#pac09dd4c06)" style="fill: none; stroke: #f29888; stroke-width: 0.2"/>
    <path d="M 394.579721 315.425059 
L 388.207528 314.452595 
L 379.331037 313.096049 
L 378.388101 311.267163 
L 378.444918 303.399194 
" clip-path="url(#pac09dd4c06)" style="fill: none; stroke: #f29888; stroke-width: 0.2"/>
    <path d="M 587.222737 302.588535 
L 585.46798 302.675158 
L 537.391358 305.058103 
L 504.982989 303.415538 
L 487.946769 302.550944 
L 469.823387 302.691502 
L 462.609873 302.747071 
L 460.060777 302.766684 
L 437.647747 302.93993 
L 435.715985 302.954639 
L 434.284645 302.96608 
L 404.355443 303.198164 
L 403.203815 303.206336 
L 378.444918 303.399194 
L 368.452856 303.476011 
L 358.598465 303.552827 
L 347.018819 303.243927 
L 342.778338 303.129519 
L 335.629289 302.282904 
L 330.129011 301.640587 
L 325.232956 300.579866 
L 305.037955 294.472139 
L 301.549202 293.254516 
L 290.27112 289.936698 
" clip-path="url(#pac09dd4c06)" style="fill: none; stroke: #f29888; stroke-width: 0.5"/>
    <path d="M 434.505355 294.410032 
L 423.02623 294.132185 
L 407.389664 296.683473 
L 403.081441 298.241049 
" clip-path="url(#pac09dd4c06)" style="fill: none; stroke: #f29888; stroke-width: 0.2"/>
    <path d="M 518.014735 292.746219 
L 505.871293 291.082407 
L 490.12328 291.193546 
L 474.541345 290.36164 
L 469.821202 292.478179 
" clip-path="url(#pac09dd4c06)" style="fill: none; stroke: #f29888; stroke-width: 0.2"/>
    <path d="M 469.821202 294.852952 
L 464.614841 292.968497 
L 457.073539 289.696442 
L 447.480285 283.098397 
" clip-path="url(#pac09dd4c06)" style="fill: none; stroke: #f29888; stroke-width: 0.2"/>
    <path d="M 507.287336 273.153114 
L 505.871293 291.082407 
L 504.982989 303.415538 
" clip-path="url(#pac09dd4c06)" style="fill: none; stroke: #f29888; stroke-width: 0.2"/>
    <path d="M 469.823387 302.691502 
L 469.821202 294.852952 
L 469.821202 292.478179 
L 471.238338 282.217459 
L 472.202033 274.22691 
L 474.814501 270.869867 
" clip-path="url(#pac09dd4c06)" style="fill: none; stroke: #f29888; stroke-width: 0.2"/>
    <path d="M 403.203815 303.206336 
L 403.081441 298.241049 
L 403.058496 297.306176 
L 401.666491 291.690401 
L 399.507463 281.851355 
L 398.930556 271.758977 
L 397.712279 261.452493 
L 397.628147 260.752973 
L 396.15638 248.588185 
" clip-path="url(#pac09dd4c06)" style="fill: none; stroke: #f29888; stroke-width: 0.2"/>
    <path d="M 553.669296 275.764874 
L 535.03675 274.970559 
L 507.287336 273.153114 
L 474.814501 270.869867 
L 471.315914 270.623073 
L 442.538339 269.199517 
" clip-path="url(#pac09dd4c06)" style="fill: none; stroke: #f29888; stroke-width: 0.2"/>
    <path d="M 347.760711 284.56935 
L 399.507463 281.851355 
" clip-path="url(#pac09dd4c06)" style="fill: none; stroke: #f29888; stroke-width: 0.2"/>
    <path d="M 347.993441 275.943023 
L 306.046449 276.609856 
" clip-path="url(#pac09dd4c06)" style="fill: none; stroke: #f29888; stroke-width: 0.2"/>
    <path d="M 338.924648 232.821194 
L 340.517696 237.36971 
L 341.46828 239.68728 
L 342.717151 241.767862 
L 344.440222 244.322419 
L 345.807097 246.046703 
L 347.232973 247.947503 
L 347.511593 248.609432 
L 347.786934 249.426629 
L 347.912586 250.299394 
L 348.078666 263.518366 
L 348.061183 274.94114 
L 347.993441 275.943023 
L 347.760711 284.56935 
L 347.018819 303.243927 
" clip-path="url(#pac09dd4c06)" style="fill: none; stroke: #f29888; stroke-width: 0.2"/>
    <path d="M 348.078666 263.518366 
L 397.712279 261.452493 
" clip-path="url(#pac09dd4c06)" style="fill: none; stroke: #f29888; stroke-width: 0.2"/>
    <path d="M 347.511593 248.609432 
L 346.165478 249.219061 
L 344.259939 249.413553 
L 340.410619 249.568821 
" clip-path="url(#pac09dd4c06)" style="fill: none; stroke: #f29888; stroke-width: 0.2"/>
    <path d="M 421.241973 247.377099 
L 396.15638 248.588185 
L 392.444731 248.767968 
L 372.232248 249.640734 
L 351.415544 250.683477 
L 349.664065 250.64752 
L 347.912586 250.299394 
" clip-path="url(#pac09dd4c06)" style="fill: none; stroke: #f29888; stroke-width: 0.2"/>
    <path d="M 372.738134 218.959905 
L 373.622068 224.85843 
L 373.000364 229.763244 
L 372.214766 234.15159 
L 371.821421 239.324444 
L 372.232248 249.640734 
" clip-path="url(#pac09dd4c06)" style="fill: none; stroke: #f29888; stroke-width: 0.2"/>
    <path d="M 372.214766 234.15159 
L 361.408699 232.252425 
L 353.747207 230.091757 
" clip-path="url(#pac09dd4c06)" style="fill: none; stroke: #f29888; stroke-width: 0.2"/>
    <path d="M 338.924648 232.821194 
L 337.000534 227.921283 
" clip-path="url(#pac09dd4c06)" style="fill: none; stroke: #f29888; stroke-width: 0.2"/>
    <path d="M 333.199289 223.088383 
L 329.273485 228.078185 
" clip-path="url(#pac09dd4c06)" style="fill: none; stroke: #f29888; stroke-width: 0.2"/>
    <path d="M 429.020375 269.910478 
L 398.930556 271.758977 
L 348.061183 274.94114 
" clip-path="url(#pac09dd4c06)" style="fill: none; stroke: #f29888; stroke-width: 0.2"/>
    <path d="M 474.814501 270.869867 
L 476.396623 264.023394 
L 477.530769 261.019379 
L 481.158286 258.355318 
" clip-path="url(#pac09dd4c06)" style="fill: none; stroke: #f29888; stroke-width: 0.2"/>
    <path d="M 415.32759 224.121319 
L 417.980485 228.205668 
L 420.420318 240.514283 
L 421.241973 247.377099 
L 423.469836 252.046561 
L 427.074408 259.089161 
L 428.572398 263.413765 
L 429.020375 269.910478 
L 432.397681 274.338049 
L 433.89567 278.495945 
L 434.505355 294.410032 
L 434.284645 302.96608 
" clip-path="url(#pac09dd4c06)" style="fill: none; stroke: #f29888; stroke-width: 0.2"/>
    <path d="M 397.628147 260.752973 
L 417.74557 259.870401 
" clip-path="url(#pac09dd4c06)" style="fill: none; stroke: #f29888; stroke-width: 0.2"/>
    <path d="M 373.622068 224.85843 
L 379.713456 224.59039 
L 415.32759 224.121319 
" clip-path="url(#pac09dd4c06)" style="fill: none; stroke: #f29888; stroke-width: 0.2"/>
    <path d="M 408.029943 206.651291 
L 399.996959 208.391919 
L 394.976344 209.663477 
L 389.755779 211.538126 
L 384.667421 214.751343 
L 381.789445 219.569534 
L 378.30834 222.648731 
L 373.622068 224.85843 
" clip-path="url(#pac09dd4c06)" style="fill: none; stroke: #f29888; stroke-width: 0.2"/>
    <path d="M 326.033678 638.069386 
L 326.784484 636.643789 
L 326.763724 634.399767 
L 326.432658 631.121174 
" clip-path="url(#pac09dd4c06)" style="fill: none; stroke: #f29888; stroke-width: 0.2"/>
    <path d="M 327.597397 569.406488 
L 325.874327 570.606133 
L 316.035233 580.914251 
L 299.574827 594.770636 
" clip-path="url(#pac09dd4c06)" style="fill: none; stroke: #f29888; stroke-width: 0.2"/>
    <path d="M 260.489422 467.557644 
L 262.948922 445.40181 
" clip-path="url(#pac09dd4c06)" style="fill: none; stroke: #f29888; stroke-width: 0.2"/>
    <path d="M 177.183271 441.472729 
L 178.89323 441.539739 
L 187.326115 441.873155 
L 199.572263 442.528547 
L 205.334771 443.445441 
L 213.297827 443.981522 
L 220.859889 444.104102 
L 231.610233 443.858943 
L 240.1939 443.613784 
L 246.161822 444.104102 
L 261.271742 445.228564 
L 262.948922 445.40181 
L 267.783791 445.901934 
L 276.327031 444.962158 
L 284.472555 443.363722 
L 291.77785 443.246045 
L 304.272025 442.871769 
L 313.769127 443.818083 
L 320.308492 443.613784 
L 327.27398 442.845619 
L 331.630279 442.152636 
L 335.286204 441.840467 
L 338.94213 441.789801 
L 343.689588 442.100336 
L 354.693421 443.755976 
L 358.850862 444.697386 
L 360.910461 445.156651 
L 362.980987 445.112522 
L 365.346521 444.674505 
L 368.499839 443.205186 
L 374.672082 441.773457 
L 388.652227 439.769691 
L 393.270756 439.156794 
L 394.619056 437.56326 
L 395.233111 435.396055 
L 395.886501 427.219186 
L 397.645629 393.467333 
L 397.872895 389.930506 
" clip-path="url(#pac09dd4c06)" style="fill: none; stroke: #f29888; stroke-width: 0.2"/>
    <path d="M 303.007857 391.942444 
L 303.439444 416.530255 
L 304.272025 442.871769 
" clip-path="url(#pac09dd4c06)" style="fill: none; stroke: #f29888; stroke-width: 0.2"/>
    <path d="M 313.268705 389.60853 
L 314.185417 400.325246 
L 314.243327 401.00352 
L 315.133817 409.126454 
L 315.788299 415.101795 
L 318.928505 434.91064 
L 320.308492 443.613784 
" clip-path="url(#pac09dd4c06)" style="fill: none; stroke: #f29888; stroke-width: 0.2"/>
    <path d="M 261.271742 445.228564 
L 262.113064 437.252726 
L 263.137946 427.227358 
L 264.417411 419.836632 
L 263.649295 413.031019 
L 261.49136 401.505278 
L 260.246859 392.578223 
L 260.027241 385.919705 
L 260.321157 384.639975 
" clip-path="url(#pac09dd4c06)" style="fill: none; stroke: #f29888; stroke-width: 0.2"/>
    <path d="M 284.472555 443.363722 
L 283.608288 429.36351 
L 283.004066 408.708049 
L 284.610226 386.347916 
" clip-path="url(#pac09dd4c06)" style="fill: none; stroke: #f29888; stroke-width: 0.2"/>
    <path d="M 336.676024 396.571045 
L 314.185417 400.325246 
" clip-path="url(#pac09dd4c06)" style="fill: none; stroke: #f29888; stroke-width: 0.2"/>
    <path d="M 334.711483 387.390659 
L 326.456696 388.742302 
L 313.268705 389.60853 
L 312.506052 389.659197 
L 303.007857 391.942444 
" clip-path="url(#pac09dd4c06)" style="fill: none; stroke: #f29888; stroke-width: 0.2"/>
    <path d="M 56.744237 774.980461 
L 54.593949 778.818016 
L 50.402877 783.610451 
" clip-path="url(#pac09dd4c06)" style="fill: none; stroke: #f29888; stroke-width: 0.2"/>
    <path d="M 129.834338 686.68237 
L 123.818341 686.582672 
L 119.354965 685.997559 
L 116.940262 685.338899 
" clip-path="url(#pac09dd4c06)" style="fill: none; stroke: #f29888; stroke-width: 0.2"/>
    <path d="M 140.374897 656.026057 
L 156.495496 642.210532 
" clip-path="url(#pac09dd4c06)" style="fill: none; stroke: #f29888; stroke-width: 0.2"/>
    <path d="M 156.495496 642.210532 
L 169.987238 645.850325 
L 176.110312 645.441727 
L 194.888177 651.260167 
L 198.664291 651.873064 
" clip-path="url(#pac09dd4c06)" style="fill: none; stroke: #f29888; stroke-width: 0.2"/>
    <path d="M 139.988108 643.469015 
L 142.036781 641.566581 
L 147.671452 639.369957 
L 156.495496 642.210532 
" clip-path="url(#pac09dd4c06)" style="fill: none; stroke: #f29888; stroke-width: 0.2"/>
    <path d="M 130.13918 685.866808 
L 134.186266 686.149558 
L 137.881526 686.450286 
L 141.533081 686.579403 
L 143.467028 686.49278 
L 145.572518 685.891324 
L 148.923601 684.645916 
L 150.90016 683.699602 
L 152.017917 682.797417 
L 153.563982 681.078036 
L 156.098873 676.993687 
L 157.301854 675.53254 
L 158.849012 674.372121 
L 160.825572 673.597418 
L 164.005113 672.82435 
L 167.52883 671.922165 
L 170.622054 670.675123 
L 176.508028 668.181039 
L 178.184116 667.321349 
L 180.76162 665.087133 
L 182.953427 663.539363 
L 186.004038 662.207332 
L 190.257629 661.002785 
L 193.30824 659.499143 
L 195.113258 657.86475 
L 196.531486 655.58804 
L 198.506953 652.492499 
L 201.772811 649.269476 
L 206.75737 644.712788 
L 210.537854 640.757556 
L 212.256555 639.082303 
L 214.618811 637.362922 
L 216.164877 636.545725 
L 216.737412 636.387189 
L 217.712035 636.11588 
L 219.517052 636.244997 
L 222.051944 636.759831 
L 223.383854 636.717336 
L 225.145167 636.200868 
L 229.614006 634.053276 
L 231.289001 633.62343 
L 233.309266 633.62343 
L 234.77994 633.925793 
L 235.773137 634.75443 
L 237.572691 636.128955 
L 239.23676 638.096764 
L 240.97622 640.594117 
L 241.808801 641.501205 
L 242.564898 641.653204 
L 252.247746 638.626308 
L 254.815417 637.331868 
L 263.140132 633.55642 
L 268.284213 630.679888 
L 269.948282 629.091258 
L 271.309694 626.669087 
L 272.520323 624.02137 
L 273.957126 622.355924 
L 276.299715 619.968075 
L 284.32068 610.552336 
L 290.371641 603.439457 
L 296.121037 597.688028 
L 298.238546 595.720218 
L 299.574827 594.770636 
L 301.34051 594.509133 
L 303.155361 594.736314 
L 305.349354 596.099397 
L 307.770612 597.308848 
L 310.871484 598.065572 
L 314.57767 598.217571 
L 318.965655 597.536029 
L 324.185128 596.704123 
L 327.664048 595.7954 
L 329.85804 594.661131 
L 332.35469 593.222866 
L 334.396807 592.466141 
L 335.530952 592.466141 
L 337.574162 592.770139 
L 339.61628 593.602045 
L 344.550577 596.244858 
" clip-path="url(#pac09dd4c06)" style="fill: none; stroke: #f29888; stroke-width: 0.2"/>
    <path d="M 254.815417 637.331868 
L 253.205979 627.889979 
L 255.10824 626.059459 
" clip-path="url(#pac09dd4c06)" style="fill: none; stroke: #f29888; stroke-width: 0.2"/>
    <path d="M 234.813811 619.714744 
L 235.498888 621.741392 
L 236.230947 623.643826 
L 235.773137 634.75443 
" clip-path="url(#pac09dd4c06)" style="fill: none; stroke: #f29888; stroke-width: 0.2"/>
    <path d="M 276.299715 619.968075 
L 274.420399 620.177278 
L 272.105125 619.972978 
L 270.610413 618.91716 
L 268.939789 615.135175 
L 265.305716 606.485966 
L 262.962034 601.414444 
L 261.554732 600.036651 
L 260.156171 599.428656 
L 240.606913 608.792095 
L 234.813811 619.714744 
L 232.202436 623.037466 
L 227.436403 628.561715 
L 225.545068 630.529524 
L 222.822245 632.420517 
L 218.435353 635.14505 
L 216.737412 636.387189 
" clip-path="url(#pac09dd4c06)" style="fill: none; stroke: #f29888; stroke-width: 0.2"/>
    <path d="M 56.744237 774.980461 
L 65.110471 771.440365 
L 75.393171 765.128339 
L 89.823479 756.82889 
L 98.724007 751.123224 
L 106.712193 747.020897 
L 113.400155 743.368028 
L 117.320496 741.740173 
L 119.63577 741.115834 
L 121.42112 739.759288 
L 123.909029 735.993646 
L 127.253556 728.405159 
L 128.530835 724.956589 
L 131.042782 711.23259 
L 131.480925 707.061618 
L 132.204243 703.00342 
L 132.209706 699.589173 
L 131.671041 696.483826 
L 131.302827 694.576489 
L 129.486883 689.655331 
L 129.432251 687.741457 
L 129.834338 686.68237 
L 130.13918 685.866808 
L 131.992273 680.924403 
L 137.523144 665.881448 
L 140.374897 656.026057 
L 139.761934 654.337729 
L 139.561984 652.739293 
L 139.561984 650.637463 
L 139.890864 648.205486 
L 140.349767 646.169032 
L 140.481975 644.987366 
L 140.349767 644.197954 
L 139.988108 643.469015 
L 139.365311 642.818526 
L 138.248648 642.557023 
L 136.935312 642.687775 
L 133.848644 643.673314 
L 131.87864 643.804065 
L 127.807517 643.73869 
L 126.954176 643.475552 
L 126.494181 642.885536 
L 126.363066 642.096124 
L 126.428624 640.192056 
L 127.347522 636.380651 
L 131.156415 619.366619 
L 132.404193 615.424462 
L 133.191976 613.914283 
L 133.651972 611.943205 
L 134.768635 600.644645 
L 135.556418 591.380904 
L 136.016414 581.855661 
L 137.460865 571.675026 
L 138.051975 567.865256 
L 137.986418 566.157315 
L 137.723095 563.002936 
L 137.59198 560.704979 
L 137.785375 560.059394 
L 137.986418 559.390927 
L 138.774201 557.813738 
L 140.087537 555.581156 
L 142.910882 550.52271 
L 146.58866 544.874247 
L 152.564229 538.370996 
L 159.590905 532.524772 
L 164.385346 528.582616 
L 166.815346 525.89077 
L 169.835363 522.146375 
L 173.578699 517.220314 
L 176.008698 512.949645 
L 178.37314 509.403012 
L 180.145379 507.695071 
L 182.509821 505.98713 
L 187.63205 501.915857 
L 190.32428 499.485514 
L 191.247548 498.4869 
L 191.762175 497.491555 
L 192.163169 496.26576 
L 192.596941 494.819322 
L 194.133173 493.967803 
L 221.057654 472.949507 
L 222.874691 470.885268 
L 224.566075 469.321154 
L 225.575661 468.554624 
L 226.220311 468.067574 
L 227.873453 467.211152 
L 229.640229 466.640749 
L 232.377256 466.413568 
L 238.19221 466.697953 
L 257.518573 467.439967 
L 260.489422 467.557644 
L 270.459631 467.953167 
L 274.393083 467.953167 
L 277.814094 467.268356 
L 282.261081 465.671554 
L 288.760018 463.733164 
L 291.95267 462.763969 
L 294.004621 462.479584 
L 295.430498 461.680366 
L 296.197521 460.358142 
L 297.939166 456.83439 
L 301.359085 448.737606 
L 304.272025 442.871769 
" clip-path="url(#pac09dd4c06)" style="fill: none; stroke: #f29888; stroke-width: 0.2"/>
    <path d="M 375.592072 640.92263 
L 375.478439 642.043824 
L 375.327657 643.026094 
L 374.643483 644.087194 
" clip-path="url(#pac09dd4c06)" style="fill: none; stroke: #f29888; stroke-width: 0.2"/>
    <path d="M 383.122448 635.771023 
L 377.217899 625.26024 
L 371.252163 615.976887 
L 361.127894 606.392806 
L 359.079221 603.679713 
" clip-path="url(#pac09dd4c06)" style="fill: none; stroke: #f29888; stroke-width: 0.2"/>
    <path d="M 337.574162 592.770139 
L 335.985485 591.179874 
L 335.152904 589.213699 
L 335.002122 586.337167 
L 334.774855 583.614268 
L 334.244932 581.646459 
L 332.732738 579.149106 
L 328.950068 573.701674 
L 327.891314 571.431501 
L 327.597397 569.406488 
" clip-path="url(#pac09dd4c06)" style="fill: none; stroke: #f29888; stroke-width: 0.2"/>
    <path d="M 365.289705 579.907464 
L 356.510458 572.451363 
" clip-path="url(#pac09dd4c06)" style="fill: none; stroke: #f29888; stroke-width: 0.2"/>
    <path d="M 407.520779 521.575972 
L 387.45908 550.416474 
L 380.010651 559.907395 
L 374.26344 567.231111 
L 367.202892 577.655271 
L 365.289705 579.907464 
L 361.992161 583.792417 
L 355.772935 588.249407 
L 353.214006 589.537309 
L 350.910751 591.024607 
L 348.867541 592.462873 
L 345.639925 594.798421 
" clip-path="url(#pac09dd4c06)" style="fill: none; stroke: #f29888; stroke-width: 0.2"/>
    <path d="M 380.010651 559.907395 
L 372.392864 555.386664 
L 366.596485 552.412068 
" clip-path="url(#pac09dd4c06)" style="fill: none; stroke: #f29888; stroke-width: 0.2"/>
    <path d="M 301.498941 635.233307 
L 313.829221 635.233307 
L 316.249387 635.233307 
L 318.065331 635.006127 
L 319.577525 634.70213 
L 321.166203 634.324585 
L 323.435586 633.415862 
L 325.932236 631.675234 
L 326.432658 631.121174 
L 327.389799 630.060453 
L 328.271547 628.050149 
L 328.776341 625.183424 
L 330.071102 618.747184 
L 331.138597 616.019381 
L 332.563381 612.9124 
L 333.83629 610.86614 
L 339.215286 603.635584 
L 342.814395 598.549353 
L 344.550577 596.244858 
L 345.639925 594.798421 
L 351.5554 584.490303 
L 352.299478 582.587869 
L 353.043557 580.231074 
L 354.001789 577.774581 
L 355.65821 574.129885 
L 356.510458 572.451363 
L 363.499984 558.702847 
L 366.596485 552.412068 
L 369.250473 547.023474 
L 371.951444 538.830261 
L 375.705705 528.906226 
L 380.838861 514.602017 
L 382.164216 510.986739 
L 385.021432 502.051511 
L 385.805937 497.257836 
L 385.979665 493.596796 
L 385.718527 489.850767 
L 384.672884 485.230337 
L 382.407871 480.001913 
L 377.876753 471.635455 
L 374.739824 465.361019 
L 372.358993 462.000707 
L 371.690306 459.782835 
L 369.773841 450.633502 
L 368.499839 443.205186 
" clip-path="url(#pac09dd4c06)" style="fill: none; stroke: #f29888; stroke-width: 0.2"/>
    <path d="M 375.705705 528.906226 
L 366.67734 525.371033 
L 364.59698 524.609406 
L 362.837853 524.960801 
L 359.87793 526.866503 
L 358.52963 527.979525 
L 352.785697 528.566272 
L 342.077965 528.419176 
" clip-path="url(#pac09dd4c06)" style="fill: none; stroke: #f29888; stroke-width: 0.2"/>
    <path d="M 327.597397 569.406488 
L 330.950666 568.064651 
L 331.977734 567.366766 
L 337.082481 559.863267 
L 340.717646 551.197714 
L 341.491225 542.842696 
L 342.077965 528.419176 
L 342.187228 525.746944 
L 343.27002 497.432716 
L 344.429296 469.971642 
L 344.87618 460.461109 
" clip-path="url(#pac09dd4c06)" style="fill: none; stroke: #f29888; stroke-width: 0.2"/>
    <path d="M 327.27398 442.845619 
L 327.350464 457.308364 
L 327.341723 457.953949 
L 327.146143 473.12929 
L 325.003504 512.426639 
L 324.594862 530.393523 
L 323.677057 543.458862 
L 323.584183 548.445396 
L 325.417609 558.405388 
L 327.597397 569.406488 
" clip-path="url(#pac09dd4c06)" style="fill: none; stroke: #f29888; stroke-width: 0.2"/>
    <path d="M 156.495496 642.210532 
L 186.584222 603.029225 
L 250.797832 521.479543 
L 277.357377 488.188589 
L 286.938611 478.269457 
L 294.839387 465.491771 
L 296.197521 460.358142 
" clip-path="url(#pac09dd4c06)" style="fill: none; stroke: #f29888; stroke-width: 0.2"/>
    <path d="M 137.785375 560.059394 
L 136.257884 558.905512 
L 135.231908 557.650298 
L 133.920758 555.084301 
L 132.951599 553.317522 
L 132.381248 551.833493 
L 132.209706 550.921502 
L 131.98244 549.210292 
L 132.039256 543.109102 
L 131.924531 539.80109 
L 131.525722 536.950709 
L 131.126914 535.239499 
L 130.556563 533.129498 
L 129.929396 531.0767 
" clip-path="url(#pac09dd4c06)" style="fill: none; stroke: #f29888; stroke-width: 0.2"/>
    <path d="M 141.48719 482.594061 
L 138.666031 486.957891 
L 137.358158 489.870379 
L 136.169381 494.448314 
L 135.635087 496.231437 
L 136.585672 497.063344 
L 137.952546 499.024615 
L 138.844129 501.937104 
L 139.200325 505.207525 
L 138.607029 507.525094 
L 137.59635 509.188906 
L 129.276006 521.969861 
L 129.037814 523.813457 
L 129.037814 525.477269 
L 129.15691 526.191499 
" clip-path="url(#pac09dd4c06)" style="fill: none; stroke: #f29888; stroke-width: 0.2"/>
    <path d="M 198.157313 482.963434 
L 194.206379 481.866756 
L 191.059617 480.841991 
L 187.767536 480.987452 
" clip-path="url(#pac09dd4c06)" style="fill: none; stroke: #f29888; stroke-width: 0.2"/>
    <path d="M 225.575661 468.554624 
L 220.987726 469.889923 
L 211.840264 473.523179 
L 202.474277 479.085019 
L 198.157313 482.963434 
L 195.596198 486.915396 
L 193.583582 491.609374 
L 192.596941 494.819322 
" clip-path="url(#pac09dd4c06)" style="fill: none; stroke: #f29888; stroke-width: 0.2"/>
    <path d="M 141.48719 482.594061 
L 146.308947 482.827779 
L 147.708601 482.633286 
L 148.819801 481.82753 
L 159.559219 480.976012 
L 160.851795 480.157181 
L 161.78599 479.33835 
L 162.873152 477.697419 
L 163.557136 476.236271 
L 166.566227 466.107937 
L 168.072958 462.767237 
L 168.78535 461.999073 
L 171.335538 460.897492 
L 172.72208 459.885802 
L 175.029706 457.689178 
L 182.443171 448.953346 
L 187.326115 441.873155 
" clip-path="url(#pac09dd4c06)" style="fill: none; stroke: #f29888; stroke-width: 0.2"/>
    <path d="M 141.48719 482.594061 
L 145.144208 476.613816 
L 147.28357 474.118098 
L 149.031771 472.568693 
L 157.925743 460.966136 
L 165.194982 452.843202 
L 169.990516 448.899411 
L 177.183271 441.472729 
" clip-path="url(#pac09dd4c06)" style="fill: none; stroke: #f29888; stroke-width: 0.2"/>
    <path d="M 102.523417 415.754914 
L 105.750683 413.627572 
L 106.587634 412.163156 
L 106.901218 410.069498 
L 106.272958 405.779216 
L 98.844196 376.585686 
L 97.380078 371.667797 
L 87.33557 325.000969 
L 84.824716 317.781854 
L 82.67861 314.88502 
" clip-path="url(#pac09dd4c06)" style="fill: none; stroke: #f29888; stroke-width: 0.2"/>
    <path d="M 78.108297 283.418125 
L 78.756273 276.662156 
L 76.559003 245.902877 
L 74.634889 217.073816 
L 74.891656 215.498261 
L 75.335262 214.094317 
L 75.903428 213.064649 
L 76.841993 212.034982 
L 78.135662 210.985701 
L 78.953026 210.496243 
" clip-path="url(#pac09dd4c06)" style="fill: none; stroke: #f29888; stroke-width: 0.2"/>
    <path d="M 93.002736 210.049801 
L 110.085129 210.946476 
L 127.955022 211.917305 
L 167.434865 214.414658 
L 170.906136 214.695774 
L 173.187539 214.26266 
L 174.780587 213.514107 
L 181.540662 208.612562 
L 187.622216 205.373195 
" clip-path="url(#pac09dd4c06)" style="fill: none; stroke: #f29888; stroke-width: 0.2"/>
    <path d="M 242.501526 377.71832 
L 237.568321 382.069075 
L 227.238638 388.536368 
L 217.775407 393.032584 
L 208.943714 396.89629 
L 205.946641 399.182806 
L 203.739538 402.101832 
L 200.348027 407.30574 
L 199.731787 408.498847 
L 199.165807 409.59389 
L 197.825155 412.985256 
L 196.878941 418.110713 
L 195.616958 420.792752 
L 193.251424 422.920732 
L 182.76331 434.672019 
L 181.422658 436.881718 
L 180.397775 438.61581 
L 178.89323 441.539739 
" clip-path="url(#pac09dd4c06)" style="fill: none; stroke: #f29888; stroke-width: 0.2"/>
    <path d="M 192.145687 378.509366 
L 193.014324 381.518284 
L 194.986513 383.883251 
L 197.825155 387.748591 
L 199.165807 390.192009 
L 199.480483 392.637061 
L 199.796252 399.025904 
L 199.731787 408.498847 
" clip-path="url(#pac09dd4c06)" style="fill: none; stroke: #f29888; stroke-width: 0.2"/>
    <path d="M 312.052612 379.359251 
L 313.268705 389.60853 
" clip-path="url(#pac09dd4c06)" style="fill: none; stroke: #f29888; stroke-width: 0.2"/>
    <path d="M 258.548919 381.874582 
L 260.321157 384.639975 
L 284.08358 386.325035 
L 284.610226 386.347916 
L 296.008497 386.844772 
" clip-path="url(#pac09dd4c06)" style="fill: none; stroke: #f29888; stroke-width: 0.2"/>
    <path d="M 263.466827 369.798051 
L 266.255207 371.803451 
L 284.002726 375.930294 
L 288.738166 376.65433 
L 310.982932 380.055502 
L 312.052612 379.359251 
L 313.799721 378.221713 
L 317.138785 376.585686 
L 322.640155 375.47103 
L 328.664893 373.455823 
" clip-path="url(#pac09dd4c06)" style="fill: none; stroke: #f29888; stroke-width: 0.2"/>
    <path d="M 334.711483 387.390659 
L 332.26728 379.401745 
L 331.5975 376.637986 
L 330.886201 375.382772 
L 330.039416 374.35147 
L 328.664893 373.455823 
L 321.677552 367.114377 
L 299.850169 347.179684 
" clip-path="url(#pac09dd4c06)" style="fill: none; stroke: #f29888; stroke-width: 0.2"/>
    <path d="M 288.738166 376.65433 
L 291.739608 368.714448 
L 294.005714 363.605335 
L 296.182224 359.918144 
L 298.713838 356.587251 
" clip-path="url(#pac09dd4c06)" style="fill: none; stroke: #f29888; stroke-width: 0.2"/>
    <path d="M 296.632386 354.508303 
L 298.713838 356.587251 
L 305.271777 362.037952 
L 309.402995 365.259341 
L 311.157752 367.392224 
L 312.086484 369.657493 
" clip-path="url(#pac09dd4c06)" style="fill: none; stroke: #f29888; stroke-width: 0.2"/>
    <path d="M 282.806301 363.763871 
L 281.129121 363.719743 
L 279.923955 363.517078 
L 277.012107 362.518464 
L 274.416029 361.518215 
L 271.138152 359.708942 
" clip-path="url(#pac09dd4c06)" style="fill: none; stroke: #f29888; stroke-width: 0.2"/>
    <path d="M 335.538601 370.389701 
L 326.904673 361.77318 
L 312.312657 346.789064 
" clip-path="url(#pac09dd4c06)" style="fill: none; stroke: #f29888; stroke-width: 0.2"/>
    <path d="M 299.850169 347.179684 
L 292.627913 354.143833 
L 282.806301 363.763871 
" clip-path="url(#pac09dd4c06)" style="fill: none; stroke: #f29888; stroke-width: 0.2"/>
    <path d="M 289.53906 337.203348 
L 299.850169 347.179684 
" clip-path="url(#pac09dd4c06)" style="fill: none; stroke: #f29888; stroke-width: 0.2"/>
    <path d="M 258.548919 381.874582 
L 257.802655 382.798014 
L 256.344 384.604019 
L 253.789441 388.992364 
" clip-path="url(#pac09dd4c06)" style="fill: none; stroke: #f29888; stroke-width: 0.2"/>
    <path d="M 250.984671 376.164012 
L 251.62495 376.119884 
L 252.289266 376.343795 
L 252.928452 376.914199 
L 257.802655 382.798014 
" clip-path="url(#pac09dd4c06)" style="fill: none; stroke: #f29888; stroke-width: 0.2"/>
    <path d="M 177.528541 377.922619 
L 192.145687 378.509366 
" clip-path="url(#pac09dd4c06)" style="fill: none; stroke: #f29888; stroke-width: 0.2"/>
    <path d="M 192.145687 378.509366 
L 213.017022 378.777407 
L 214.167557 378.764332 
L 233.639239 378.54042 
L 240.473612 378.12365 
L 242.501526 377.71832 
L 246.120302 376.994284 
L 249.291101 376.482719 
" clip-path="url(#pac09dd4c06)" style="fill: none; stroke: #f29888; stroke-width: 0.2"/>
    <path d="M 250.984671 376.164012 
L 249.291101 376.482719 
" clip-path="url(#pac09dd4c06)" style="fill: none; stroke: #f29888; stroke-width: 0.2"/>
    <path d="M 192.135853 377.107057 
L 197.17395 374.331857 
" clip-path="url(#pac09dd4c06)" style="fill: none; stroke: #f29888; stroke-width: 0.2"/>
    <path d="M 215.301702 368.925285 
L 203.805095 368.616385 
L 203.08287 368.823953 
L 202.54639 369.366571 
L 201.854758 370.376626 
L 200.011499 373.248255 
L 198.98006 373.918356 
L 197.896175 374.279557 
L 197.17395 374.331857 
L 195.678145 373.557155 
L 194.285048 372.370586 
L 192.0845 369.63788 
" clip-path="url(#pac09dd4c06)" style="fill: none; stroke: #f29888; stroke-width: 0.2"/>
    <path d="M 244.674758 350.919175 
L 243.011782 351.901446 
L 242.072124 352.886985 
L 240.325015 355.48567 
L 238.085133 358.576307 
L 235.84525 362.33868 
L 230.784208 370.714945 
L 229.79866 370.894729 
L 228.096349 370.670817 
L 221.377794 369.729406 
L 217.929467 369.281583 
L 215.301702 368.925285 
" clip-path="url(#pac09dd4c06)" style="fill: none; stroke: #f29888; stroke-width: 0.2"/>
    <path d="M 214.167557 378.764332 
L 215.095196 370.319422 
L 215.301702 368.925285 
L 215.095196 365.623811 
L 214.63083 360.102831 
L 214.88869 352.828147 
L 214.991397 342.147387 
L 214.78489 336.52344 
L 214.166464 332.705498 
L 213.958865 331.844173 
" clip-path="url(#pac09dd4c06)" style="fill: none; stroke: #f29888; stroke-width: 0.2"/>
    <path d="M 177.456427 316.938507 
L 177.647637 358.014076 
L 177.528541 377.922619 
" clip-path="url(#pac09dd4c06)" style="fill: none; stroke: #f29888; stroke-width: 0.2"/>
    <path d="M 359.3786 384.927628 
L 355.497594 376.65433 
" clip-path="url(#pac09dd4c06)" style="fill: none; stroke: #f29888; stroke-width: 0.2"/>
    <path d="M 330.039416 374.35147 
L 333.579523 371.479841 
L 335.538601 370.389701 
L 338.372872 369.482613 
L 340.163685 368.941629 
L 341.237736 368.80434 
L 343.351967 368.899135 
" clip-path="url(#pac09dd4c06)" style="fill: none; stroke: #f29888; stroke-width: 0.2"/>
    <path d="M 351.100868 373.900378 
L 354.424635 373.43621 
L 358.222602 372.726883 
L 361.739764 371.203629 
L 365.423005 369.226013 
L 365.725663 369.064208 
L 369.623058 367.5099 
L 370.305949 365.67938 
L 370.425046 363.183662 
L 371.257626 362.232445 
L 373.516084 360.093024 
L 374.28857 358.725037 
L 374.466668 357.477995 
L 374.176029 355.642572 
" clip-path="url(#pac09dd4c06)" style="fill: none; stroke: #f29888; stroke-width: 0.2"/>
    <path d="M 337.384046 351.067905 
L 347.642708 362.440013 
L 351.717109 366.954207 
L 352.741992 368.332 
L 354.178795 372.697464 
L 354.424635 373.43621 
L 355.497594 376.65433 
" clip-path="url(#pac09dd4c06)" style="fill: none; stroke: #f29888; stroke-width: 0.2"/>
    <path d="M 365.423005 369.226013 
L 361.328937 364.785367 
L 353.18232 356.842216 
L 342.564184 345.872169 
" clip-path="url(#pac09dd4c06)" style="fill: none; stroke: #f29888; stroke-width: 0.2"/>
    <path d="M 311.588246 335.78306 
L 332.040013 356.525144 
L 342.627556 367.692952 
L 343.351967 368.899135 
L 351.100868 373.900378 
L 355.497594 376.65433 
" clip-path="url(#pac09dd4c06)" style="fill: none; stroke: #f29888; stroke-width: 0.2"/>
    <path d="M 348.214151 340.204094 
L 360.28985 351.83607 
L 365.886279 358.143193 
L 369.395792 362.453088 
L 370.425046 363.183662 
" clip-path="url(#pac09dd4c06)" style="fill: none; stroke: #f29888; stroke-width: 0.2"/>
    <path d="M 374.176029 355.642572 
L 371.635675 353.730332 
L 353.199802 335.204485 
" clip-path="url(#pac09dd4c06)" style="fill: none; stroke: #f29888; stroke-width: 0.2"/>
    <path d="M 365.277686 321.581818 
L 353.199802 335.204485 
L 348.214151 340.204094 
L 342.564184 345.872169 
L 337.384046 351.067905 
L 337.173169 351.278742 
L 332.040013 356.525144 
L 326.904673 361.77318 
L 321.677552 367.114377 
" clip-path="url(#pac09dd4c06)" style="fill: none; stroke: #f29888; stroke-width: 0.2"/>
    <path d="M 368.452856 303.476011 
L 368.116328 312.273949 
L 366.523279 318.404558 
L 365.277686 321.581818 
" clip-path="url(#pac09dd4c06)" style="fill: none; stroke: #f29888; stroke-width: 0.2"/>
    <path d="M 305.037955 294.472139 
L 305.340613 300.213762 
L 302.257223 310.642825 
L 301.387493 313.679527 
L 299.897152 320.174606 
L 297.779643 325.921132 
L 295.964792 329.420368 
L 294.135737 331.775528 
L 291.601938 335.037777 
L 289.53906 337.203348 
L 288.14487 338.667764 
L 283.521971 345.105639 
L 277.603218 352.579719 
L 271.138152 359.708942 
L 270.042248 360.918393 
L 266.757815 363.986149 
L 264.338742 367.876004 
L 263.466827 369.798051 
L 262.870253 371.115372 
L 258.548919 381.874582 
" clip-path="url(#pac09dd4c06)" style="fill: none; stroke: #f29888; stroke-width: 0.2"/>
    <path d="M 294.135737 331.775528 
L 289.478966 327.632342 
L 284.614596 324.291642 
L 282.269822 322.943268 
" clip-path="url(#pac09dd4c06)" style="fill: none; stroke: #f29888; stroke-width: 0.2"/>
    <path d="M 342.778338 303.129519 
L 327.740531 318.677501 
L 316.355372 330.73442 
L 311.588246 335.78306 
L 299.850169 347.179684 
" clip-path="url(#pac09dd4c06)" style="fill: none; stroke: #f29888; stroke-width: 0.2"/>
    <path d="M 316.355372 330.73442 
L 301.387493 313.679527 
" clip-path="url(#pac09dd4c06)" style="fill: none; stroke: #f29888; stroke-width: 0.2"/>
    <path d="M 305.340613 300.213762 
L 308.791125 302.89907 
L 320.846063 312.669472 
L 327.740531 318.677501 
" clip-path="url(#pac09dd4c06)" style="fill: none; stroke: #f29888; stroke-width: 0.2"/>
    <path d="M 290.27112 289.936698 
L 285.575014 288.619377 
" clip-path="url(#pac09dd4c06)" style="fill: none; stroke: #f29888; stroke-width: 0.5"/>
    <path d="M 301.549202 293.254516 
L 301.450865 275.947926 
" clip-path="url(#pac09dd4c06)" style="fill: none; stroke: #f29888; stroke-width: 0.2"/>
    <path d="M 269.891466 283.523339 
L 274.436788 274.447553 
L 281.938756 258.438672 
" clip-path="url(#pac09dd4c06)" style="fill: none; stroke: #f29888; stroke-width: 0.2"/>
    <path d="M 299.437156 235.76637 
L 301.295712 240.107319 
L 306.623355 246.115348 
L 310.817945 250.649155 
L 313.935206 251.103516 
L 317.61954 252.577739 
" clip-path="url(#pac09dd4c06)" style="fill: none; stroke: #f29888; stroke-width: 0.2"/>
    <path d="M 291.262131 238.91748 
L 299.437156 235.76637 
L 300.877237 235.290762 
L 309.287177 231.492432 
L 315.862598 229.282733 
L 329.273485 228.078185 
L 329.802316 228.030788 
L 334.655759 226.997851 
L 336.134082 226.438889 
" clip-path="url(#pac09dd4c06)" style="fill: none; stroke: #f29888; stroke-width: 0.2"/>
    <path d="M 145.760449 320.736837 
L 139.779416 320.965652 
L 128.793065 320.338045 
L 125.131677 320.442646 
L 120.213769 321.279455 
L 116.969763 323.057675 
L 114.040434 325.255934 
L 111.843164 327.870963 
L 109.437202 331.324436 
L 108.390466 335.090078 
L 105.461137 345.34426 
L 103.995926 348.065525 
L 101.693764 351.20356 
L 100.334537 354.44783 
L 99.916062 356.853657 
L 98.974218 360.934737 
L 98.345959 365.434221 
L 98.137267 368.050885 
L 97.380078 371.667797 
" clip-path="url(#pac09dd4c06)" style="fill: none; stroke: #f29888; stroke-width: 0.2"/>
    <path d="M 213.958865 331.844173 
L 216.317844 331.093986 
L 218.23431 331.162631 
L 220.083032 331.641508 
L 221.999498 332.80683 
L 224.053634 334.037528 
L 227.613408 335.475794 
L 230.351528 336.22925 
L 232.816492 335.954672 
L 235.485776 334.653695 
L 238.087318 333.490007 
L 239.388635 333.148418 
L 247.51777 332.837884 
" clip-path="url(#pac09dd4c06)" style="fill: none; stroke: #f29888; stroke-width: 0.2"/>
    <path d="M 147.858291 337.888159 
L 148.843839 328.037671 
L 149.209869 319.202142 
" clip-path="url(#pac09dd4c06)" style="fill: none; stroke: #f29888; stroke-width: 0.2"/>
    <path d="M 246.120302 376.994284 
L 244.864875 375.529868 
L 244.039942 374.498566 
L 243.678283 373.414963 
L 243.523131 372.33136 
L 243.729637 369.855255 
L 244.297802 366.293912 
L 245.020028 363.507272 
L 244.968674 362.320702 
L 244.555662 360.566998 
L 243.88479 358.244526 
L 243.471777 355.923687 
L 243.678283 354.426583 
L 244.373193 351.867123 
L 244.674758 350.919175 
L 245.669047 347.797484 
L 247.51777 332.837884 
L 247.764703 330.835752 
L 248.186457 322.484003 
L 249.292194 311.803244 
L 251.441389 293.839628 
L 252.846505 289.792871 
L 255.222966 286.25441 
L 259.181549 279.927674 
" clip-path="url(#pac09dd4c06)" style="fill: none; stroke: #f29888; stroke-width: 0.2"/>
    <path d="M 145.760449 320.736837 
L 149.209869 319.202142 
L 155.059786 316.873131 
L 158.39885 316.74238 
L 177.456427 316.938507 
" clip-path="url(#pac09dd4c06)" style="fill: none; stroke: #f29888; stroke-width: 0.2"/>
    <path d="M 251.441389 293.839628 
L 249.793709 294.743448 
L 247.602995 295.085036 
L 245.138031 294.743448 
L 241.715928 293.852704 
L 240.141454 293.921348 
L 238.156153 294.812092 
L 233.432733 297.961568 
L 229.529874 301.656931 
L 227.613408 303.163841 
L 226.175513 303.848652 
L 224.669875 303.984307 
L 221.383257 304.327529 
L 219.74104 304.737762 
L 218.85055 305.353928 
L 218.303145 306.176028 
L 217.618069 310.624846 
L 217.139499 314.117544 
L 215.359611 318.018841 
L 212.894648 322.948171 
L 212.347243 323.905925 
L 211.936415 325.206902 
L 211.799837 326.780823 
L 211.86758 328.562311 
L 212.894648 329.998943 
L 213.958865 331.844173 
" clip-path="url(#pac09dd4c06)" style="fill: none; stroke: #f29888; stroke-width: 0.2"/>
    <path d="M 195.949117 216.058858 
L 192.396991 218.435265 
L 191.840844 219.236118 
L 191.708636 220.604105 
L 192.261505 246.885147 
L 193.642584 253.435795 
L 195.539382 262.433129 
L 201.423171 281.511401 
L 199.988554 304.780256 
L 199.909885 306.053449 
L 193.774791 345.556731 
L 192.576181 355.029674 
L 192.324877 360.718997 
L 192.0845 369.63788 
L 192.135853 377.107057 
L 192.145687 378.509366 
" clip-path="url(#pac09dd4c06)" style="fill: none; stroke: #f29888; stroke-width: 0.2"/>
    <path d="M 199.988554 304.780256 
L 203.616071 303.172013 
L 206.409915 301.68635 
L 207.657693 300.615822 
L 208.608277 298.595713 
L 210.272346 296.039522 
L 211.639221 294.436182 
L 213.482481 293.424493 
L 215.383649 292.831208 
L 217.464008 292.592586 
L 222.753409 292.770735 
L 225.070868 292.592586 
L 229.528781 291.999302 
L 232.678821 291.285072 
L 239.14935 288.94789 
L 245.061547 286.171056 
L 246.450275 285.589212 
L 248.242181 285.23128 
L 249.271434 285.095625 
L 250.346578 285.275408 
L 251.556114 285.63334 
L 252.541663 285.857252 
L 253.572009 286.037035 
L 255.222966 286.25441 
" clip-path="url(#pac09dd4c06)" style="fill: none; stroke: #f29888; stroke-width: 0.2"/>
    <path d="M 192.261505 246.885147 
L 186.773246 248.580013 
L 183.91166 249.637465 
L 181.668499 250.899217 
L 179.658068 253.064788 
L 178.844062 254.697546 
L 178.344732 256.330305 
L 177.456427 316.938507 
" clip-path="url(#pac09dd4c06)" style="fill: none; stroke: #f29888; stroke-width: 0.2"/>
    <path d="M 245.850423 273.169458 
L 246.557352 277.786619 
L 250.527954 279.429184 
L 252.825745 277.024992 
" clip-path="url(#pac09dd4c06)" style="fill: none; stroke: #f29888; stroke-width: 0.2"/>
    <path d="M 293.756595 222.424819 
L 308.455688 215.447595 
L 327.369039 211.995756 
" clip-path="url(#pac09dd4c06)" style="fill: none; stroke: #f29888; stroke-width: 0.2"/>
    <path d="M 270.345998 187.058185 
L 271.543516 189.934717 
L 282.193338 208.481811 
L 287.095949 214.864116 
L 293.756595 222.424819 
L 299.473213 231.732688 
L 300.877237 235.290762 
" clip-path="url(#pac09dd4c06)" style="fill: none; stroke: #f29888; stroke-width: 0.2"/>
    <path d="M 286.033917 176.478758 
L 297.367723 194.179236 
L 304.720001 206.770601 
L 308.455688 215.447595 
" clip-path="url(#pac09dd4c06)" style="fill: none; stroke: #f29888; stroke-width: 0.2"/>
    <path d="M 333.199289 223.088383 
L 331.18558 219.580975 
L 327.369039 211.995756 
L 321.310429 197.784708 
L 320.040798 193.641521 
L 318.682665 187.615513 
L 318.058775 183.19448 
L 317.662152 180.388227 
L 317.462202 178.417149 
L 317.358402 171.683449 
L 317.974643 163.674922 
L 318.727462 158.541293 
L 318.696869 156.398604 
" clip-path="url(#pac09dd4c06)" style="fill: none; stroke: #f29888; stroke-width: 0.2"/>
    <path d="M 318.058775 183.19448 
L 315.996991 183.57039 
" clip-path="url(#pac09dd4c06)" style="fill: none; stroke: #f29888; stroke-width: 0.2"/>
    <path d="M 304.300433 165.232499 
L 308.637064 172.48757 
L 315.996991 183.57039 
L 318.682665 187.615513 
" clip-path="url(#pac09dd4c06)" style="fill: none; stroke: #f29888; stroke-width: 0.2"/>
    <path d="M 276.982606 182.035695 
L 276.254918 180.159412 
L 264.717883 150.127437 
" clip-path="url(#pac09dd4c06)" style="fill: none; stroke: #f29888; stroke-width: 0.2"/>
    <path d="M 319.845218 144.050763 
L 308.395594 149.954192 
L 284.110896 163.330065 
L 283.92952 164.836976 
L 288.265059 175.102599 
" clip-path="url(#pac09dd4c06)" style="fill: none; stroke: #f29888; stroke-width: 0.2"/>
    <path d="M 355.710656 129.422945 
L 352.083139 135.033816 
L 339.166118 143.294039 
L 338.082233 143.987022 
L 323.844228 153.102033 
L 318.696869 156.398604 
L 304.300433 165.232499 
L 299.764944 168.01587 
L 288.265059 175.102599 
L 286.033917 176.478758 
L 276.982606 182.035695 
L 270.345998 187.058185 
" clip-path="url(#pac09dd4c06)" style="fill: none; stroke: #f29888; stroke-width: 0.2"/>
    <path d="M 323.844228 153.102033 
L 319.845218 144.050763 
L 317.916734 137.423299 
L 316.731235 134.837689 
L 314.127508 130.519622 
L 311.441834 126.294716 
" clip-path="url(#pac09dd4c06)" style="fill: none; stroke: #f29888; stroke-width: 0.2"/>
    <path d="M 337.000534 227.921283 
L 336.308902 226.739617 
L 336.134082 226.438889 
L 333.199289 223.088383 
" clip-path="url(#pac09dd4c06)" style="fill: none; stroke: #f29888; stroke-width: 0.2"/>
    <path d="M 378.305062 182.619173 
L 375.488273 184.12445 
L 371.362518 186.744382 
L 367.367879 190.410326 
L 361.802044 196.434699 
L 354.532805 203.833597 
L 349.359223 209.006451 
L 347.066894 211.691759 
L 345.539403 213.460172 
L 344.568059 215.287424 
L 341.773123 221.436011 
L 341.019211 222.952728 
L 339.994328 224.198136 
L 337.567607 225.871754 
L 336.308902 226.739617 
" clip-path="url(#pac09dd4c06)" style="fill: none; stroke: #f29888; stroke-width: 0.2"/>
    <path d="M 337.567607 225.871754 
L 338.72579 216.650508 
L 339.258991 210.443083 
L 339.281936 207.215156 
L 339.102746 204.457935 
L 337.118537 194.65321 
L 337.232171 190.0622 
L 337.799243 180.654633 
L 337.880098 179.041487 
L 338.535673 166.033352 
L 339.386828 149.767871 
L 339.045929 145.346837 
L 338.082233 143.987022 
" clip-path="url(#pac09dd4c06)" style="fill: none; stroke: #f29888; stroke-width: 0.2"/>
    <path d="M 337.880098 179.041487 
L 317.662152 180.388227 
" clip-path="url(#pac09dd4c06)" style="fill: none; stroke: #f29888; stroke-width: 0.2"/>
    <path d="M 352.083139 135.033816 
L 353.550535 138.488924 
L 353.942787 145.167054 
L 355.056173 147.327722 
L 359.11637 152.304449 
L 364.814413 160.814734 
L 371.428076 171.487322 
L 378.305062 182.619173 
" clip-path="url(#pac09dd4c06)" style="fill: none; stroke: #f29888; stroke-width: 0.2"/>
    <path d="M 339.166118 143.294039 
L 338.461374 125.557605 
L 338.304036 124.013103 
" clip-path="url(#pac09dd4c06)" style="fill: none; stroke: #f29888; stroke-width: 0.2"/>
    <path d="M 264.717883 150.127437 
L 278.568006 144.653855 
L 286.137717 141.342574 
L 297.966482 134.326124 
L 307.66572 128.571426 
L 311.441834 126.294716 
L 313.421672 125.497132 
L 319.178717 125.023158 
L 327.379965 123.761407 
L 334.3979 123.841492 
L 338.304036 124.013103 
" clip-path="url(#pac09dd4c06)" style="fill: none; stroke: #f29888; stroke-width: 0.2"/>
    <path d="M 286.165032 129.151635 
L 286.829349 129.994982 
L 287.2959 130.588267 
L 288.007199 131.490452 
L 288.320783 131.889244 
L 288.485769 132.256982 
L 289.348943 134.195373 
L 290.767172 137.905445 
" clip-path="url(#pac09dd4c06)" style="fill: none; stroke: #f29888; stroke-width: 0.2"/>
    <path d="M 273.152953 123.846395 
L 273.805251 134.914506 
" clip-path="url(#pac09dd4c06)" style="fill: none; stroke: #f29888; stroke-width: 0.2"/>
    <path d="M 240.016895 83.963933 
L 242.29939 88.528793 
L 246.071134 128.322998 
L 245.758643 134.679153 
L 245.699641 139.835663 
L 247.516677 144.699618 
L 250.798925 146.224506 
L 255.723389 146.927295 
L 259.29846 145.286365 
L 266.331691 140.363572 
L 273.805251 134.914506 
L 276.530259 133.742646 
L 280.926985 131.866362 
L 282.948342 131.134154 
L 284.570891 128.501147 
" clip-path="url(#pac09dd4c06)" style="fill: none; stroke: #f29888; stroke-width: 0.2"/>
    <path d="M 283.511045 79.209483 
L 287.49148 109.816764 
L 287.644447 114.458441 
L 286.828256 117.622626 
L 288.10335 122.468602 
L 288.129573 124.488712 
L 286.165032 129.151635 
" clip-path="url(#pac09dd4c06)" style="fill: none; stroke: #f29888; stroke-width: 0.2"/>
    <path d="M 286.165032 129.151635 
L 284.570891 128.501147 
L 273.152953 123.846395 
L 269.887095 104.665157 
L 267.285553 79.822381 
L 265.499111 72.016519 
" clip-path="url(#pac09dd4c06)" style="fill: none; stroke: #f29888; stroke-width: 0.2"/>
    <path d="M 198.565955 245.669159 
L 196.383982 246.23139 
L 194.356068 246.586053 
L 192.261505 246.885147 
" clip-path="url(#pac09dd4c06)" style="fill: none; stroke: #f29888; stroke-width: 0.2"/>
    <path d="M 262.986071 281.341424 
L 261.057587 273.983386 
L 259.588006 257.122986 
L 256.648843 245.214797 
L 255.797687 237.789749 
L 257.731635 223.948073 
L 260.361585 221.550419 
L 260.515645 218.147612 
L 259.742066 214.823256 
L 251.544096 208.867528 
" clip-path="url(#pac09dd4c06)" style="fill: none; stroke: #f29888; stroke-width: 0.2"/>
    <path d="M 211.585682 236.375999 
L 200.171022 244.175323 
L 198.565955 245.669159 
L 197.849193 246.394829 
L 196.145789 248.354467 
L 194.805137 250.521672 
L 193.642584 253.435795 
" clip-path="url(#pac09dd4c06)" style="fill: none; stroke: #f29888; stroke-width: 0.2"/>
    <path d="M 208.140634 231.899396 
L 211.066685 229.568752 
L 213.117544 227.519222 
L 216.507961 223.733968 
L 221.317699 217.585381 
L 225.655423 211.039636 
L 228.651403 205.915814 
L 230.229154 202.682984 
L 230.938268 200.711906 
L 232.594689 190.30409 
L 233.225134 187.149711 
L 233.856671 185.731058 
L 234.724216 184.706293 
L 236.594791 182.857795 
L 239.320892 178.456374 
L 242.463284 170.53447 
L 247.179056 163.921716 
L 252.810449 157.635839 
L 255.811891 155.285582 
L 259.129103 152.93369 
L 264.717883 150.127437 
" clip-path="url(#pac09dd4c06)" style="fill: none; stroke: #f29888; stroke-width: 0.2"/>
    <path d="M 285.575014 288.619377 
L 269.891466 283.523339 
L 262.986071 281.341424 
L 259.181549 279.927674 
L 254.089913 277.657502 
L 252.825745 277.024992 
L 249.695373 275.460877 
L 245.850423 273.169458 
L 244.778557 272.53041 
L 240.592709 269.915381 
L 236.407952 266.881948 
L 233.04048 263.65729 
L 211.585682 236.375999 
L 208.140634 231.899396 
L 195.949117 216.058858 
L 187.622216 205.373195 
L 187.28241 204.936812 
L 176.500338 191.094077 
" clip-path="url(#pac09dd4c06)" style="fill: none; stroke: #f29888; stroke-width: 0.5"/>
    <path d="M 585.46798 302.675158 
L 587.128786 291.007579 
" clip-path="url(#pac09dd4c06)" style="fill: none; stroke: #f29888; stroke-width: 0.2"/>
    <path d="M 606.176996 291.812092 
L 598.972833 297.244069 
L 593.037691 302.957908 
" clip-path="url(#pac09dd4c06)" style="fill: none; stroke: #f29888; stroke-width: 0.2"/>
    <path d="M 598.972833 297.244069 
L 600.067691 291.554061 
" clip-path="url(#pac09dd4c06)" style="fill: none; stroke: #f29888; stroke-width: 0.2"/>
    <path d="M 781.642368 312.896077 
L 653.015191 306.759506 
L 612.408851 304.185337 
L 595.816238 303.132788 
L 593.037691 302.957908 
L 587.222737 302.588535 
" clip-path="url(#pac09dd4c06)" style="fill: none; stroke: #f29888; stroke-width: 0.5"/>
    <path d="M 491.277995 246.637023 
L 486.765641 253.440698 
L 481.158286 258.355318 
" clip-path="url(#pac09dd4c06)" style="fill: none; stroke: #f29888; stroke-width: 0.2"/>
    <path d="M 562.32961 260.180309 
L 553.669296 275.764874 
L 537.391358 305.058103 
" clip-path="url(#pac09dd4c06)" style="fill: none; stroke: #f29888; stroke-width: 0.2"/>
   </g>
   <g id="LineCollection_2">
    <path d="M 527.400389 490.627103 
L 510.30189 496.501112 
L 503.320012 498.697737 
L 494.36376 501.337282 
L 485.752777 503.311629 
L 478.202734 504.496564 
L 474.033274 504.472048 
" clip-path="url(#pac09dd4c06)" style="fill: none; stroke-dasharray: 3.7,1.6; stroke-dashoffset: 0; stroke: #f29888"/>
    <path d="M 557.00836 480.904098 
L 554.14568 482.384859 
L 546.719104 485.470593 
L 532.532452 490.233215 
L 519.38161 494.600313 
L 510.30189 496.501112 
" clip-path="url(#pac09dd4c06)" style="fill: none; stroke-dasharray: 3.7,1.6; stroke-dashoffset: 0; stroke: #f29888"/>
    <path d="M 573.513563 475.64789 
L 565.100345 478.362617 
L 557.00836 480.904098 
L 551.062291 482.804898 
L 542.747409 485.642204 
L 533.371589 488.89955 
L 528.803321 490.221774 
L 527.400389 490.627103 
" clip-path="url(#pac09dd4c06)" style="fill: none; stroke-dasharray: 3.7,1.6; stroke-dashoffset: 0; stroke: #f29888"/>
    <path d="M 594.683185 468.788342 
L 590.188123 470.484842 
L 581.853574 472.859615 
L 573.513563 475.64789 
" clip-path="url(#pac09dd4c06)" style="fill: none; stroke-dasharray: 3.7,1.6; stroke-dashoffset: 0; stroke: #f29888"/>
    <path d="M 573.513563 475.64789 
L 580.989308 471.478553 
L 584.148088 469.379992 
L 587.330907 467.158852 
" clip-path="url(#pac09dd4c06)" style="fill: none; stroke-dasharray: 3.7,1.6; stroke-dashoffset: 0; stroke: #f29888"/>
    <path d="M 419.112445 418.422882 
L 417.655975 422.569337 
L 416.891137 428.145887 
L 416.694465 433.549191 
L 417.755404 442.038229 
L 419.358286 454.59854 
L 420.320889 462.54496 
L 422.0232 472.119235 
L 423.701473 477.671269 
L 426.266958 482.853929 
L 429.69671 487.691733 
L 434.705306 491.960768 
L 441.169279 495.933978 
L 450.89037 500.325592 
L 457.946546 502.744494 
L 462.831676 503.829731 
L 467.840272 504.076525 
L 474.033274 504.472048 
L 482.496752 503.213565 
L 498.829321 499.142292 
L 511.856697 494.995836 
L 528.803321 490.221774 
" clip-path="url(#pac09dd4c06)" style="fill: none; stroke-dasharray: 3.7,1.6; stroke-dashoffset: 0; stroke: #f29888"/>
    <path d="M 419.112445 418.422882 
L 422.837206 408.158893 
L 424.417143 403.149478 
L 425.623401 398.677778 
L 426.544485 394.856567 
L 427.623999 386.444345 
L 428.61064 377.363657 
L 429.647542 366.432835 
L 430.312951 358.883573 
L 431.867757 344.597343 
L 432.977865 332.901625 
L 434.038804 321.13236 
L 435.272379 307.833303 
L 435.715985 302.954639 
L 436.505953 293.869047 
L 436.28415 282.964376 
L 433.718665 272.971696 
" clip-path="url(#pac09dd4c06)" style="fill: none; stroke-dasharray: 3.7,1.6; stroke-dashoffset: 0; stroke: #f29888"/>
    <path d="M 494.338629 327.794146 
L 497.86781 330.582421 
L 502.555174 333.493275 
L 509.216913 336.28155 
L 515.484214 339.612443 
" clip-path="url(#pac09dd4c06)" style="fill: none; stroke-dasharray: 3.7,1.6; stroke-dashoffset: 0; stroke: #f29888"/>
    <path d="M 433.718665 272.971696 
L 436.505953 278.992801 
L 439.4178 283.556027 
L 444.697368 288.638989 
L 451.211602 294.164873 
L 462.609873 302.747071 
L 468.506773 307.686207 
L 474.329376 312.324615 
L 482.446492 318.813156 
L 489.922236 324.536801 
L 494.338629 327.794146 
" clip-path="url(#pac09dd4c06)" style="fill: none; stroke-dasharray: 3.7,1.6; stroke-dashoffset: 0; stroke: #f29888"/>
    <path d="M 494.338629 327.794146 
L 499.470692 330.655969 
L 506.008964 333.050355 
L 509.660519 333.815251 
L 518.839667 335.147281 
L 527.770789 336.652557 
L 536.332604 337.268724 
L 543.832387 337.02193 
L 551.7277 335.318893 
L 558.783876 332.161245 
L 563.915939 328.559042 
L 571.268217 322.835398 
L 578.719924 317.012055 
L 587.20744 310.029927 
L 595.816238 303.132788 
L 603.786942 296.855084 
L 610.310265 291.986663 
" clip-path="url(#pac09dd4c06)" style="fill: none; stroke-dasharray: 3.7,1.6; stroke-dashoffset: 0; stroke: #f29888"/>
    <path d="M 271.551164 141.290273 
L 263.089871 146.306226 
L 257.918474 149.633851 
L 254.476703 152.247245 
L 250.565103 156.14037 
L 246.089708 161.122 
L 242.045901 166.348789 
L 238.60413 172.121466 
L 234.523173 182.483519 
" clip-path="url(#pac09dd4c06)" style="fill: none; stroke-dasharray: 3.7,1.6; stroke-dashoffset: 0; stroke: #f29888"/>
    <path d="M 273.994275 138.78148 
L 266.362285 143.410081 
" clip-path="url(#pac09dd4c06)" style="fill: none; stroke-dasharray: 3.7,1.6; stroke-dashoffset: 0; stroke: #f29888"/>
    <path d="M 284.410275 133.65112 
L 275.948982 138.624578 
L 274.738353 139.358421 
L 271.551164 141.290273 
" clip-path="url(#pac09dd4c06)" style="fill: none; stroke-dasharray: 3.7,1.6; stroke-dashoffset: 0; stroke: #f29888"/>
    <path d="M 273.994275 138.78148 
L 280.102053 135.582972 
L 284.410275 133.65112 
L 288.007199 131.490452 
L 290.829451 129.743286 
" clip-path="url(#pac09dd4c06)" style="fill: none; stroke-dasharray: 3.7,1.6; stroke-dashoffset: 0; stroke: #f29888"/>
    <path d="M 289.563098 128.744671 
L 287.2959 130.588267 
L 287.119987 130.764781 
L 279.857304 135.339448 
L 273.994275 138.78148 
" clip-path="url(#pac09dd4c06)" style="fill: none; stroke-dasharray: 3.7,1.6; stroke-dashoffset: 0; stroke: #f29888"/>
    <path d="M 274.738353 139.358421 
L 281.84042 136.151741 
L 286.033917 133.633141 
L 288.485769 132.256982 
L 296.508919 127.785283 
" clip-path="url(#pac09dd4c06)" style="fill: none; stroke-dasharray: 3.7,1.6; stroke-dashoffset: 0; stroke: #f29888"/>
    <path d="M 287.119987 130.764781 
L 284.566521 132.652506 
L 279.857304 135.339448 
" clip-path="url(#pac09dd4c06)" style="fill: none; stroke-dasharray: 3.7,1.6; stroke-dashoffset: 0; stroke: #f29888"/>
    <path d="M 292.139509 123.326658 
L 289.429798 127.255739 
L 286.786736 130.032573 
L 284.36657 132.207951 
L 279.857304 135.339448 
" clip-path="url(#pac09dd4c06)" style="fill: none; stroke-dasharray: 3.7,1.6; stroke-dashoffset: 0; stroke: #f29888"/>
    <path d="M 297.90748 126.528434 
L 295.305939 127.917669 
L 290.829451 129.743286 
" clip-path="url(#pac09dd4c06)" style="fill: none; stroke-dasharray: 3.7,1.6; stroke-dashoffset: 0; stroke: #f29888"/>
    <path d="M 297.486819 125.848527 
L 290.829451 129.743286 
" clip-path="url(#pac09dd4c06)" style="fill: none; stroke-dasharray: 3.7,1.6; stroke-dashoffset: 0; stroke: #f29888"/>
    <path d="M 433.718665 272.971696 
L 423.646842 240.4391 
L 410.680653 202.099506 
L 402.221545 186.21157 
" clip-path="url(#pac09dd4c06)" style="fill: none; stroke-dasharray: 3.7,1.6; stroke-dashoffset: 0; stroke: #f29888"/>
    <path d="M 402.221545 186.21157 
L 400.353155 183.035944 
" clip-path="url(#pac09dd4c06)" style="fill: none; stroke-dasharray: 3.7,1.6; stroke-dashoffset: 0; stroke: #f29888"/>
    <path d="M 400.353155 183.035944 
L 383.064539 153.850585 
L 374.043822 138.935113 
L 368.615657 132.103349 
" clip-path="url(#pac09dd4c06)" style="fill: none; stroke-dasharray: 3.7,1.6; stroke-dashoffset: 0; stroke: #f29888"/>
    <path d="M 367.218189 130.212357 
L 368.615657 132.103349 
" clip-path="url(#pac09dd4c06)" style="fill: none; stroke-dasharray: 3.7,1.6; stroke-dashoffset: 0; stroke: #f29888"/>
    <path d="M 368.615657 132.103349 
L 366.883846 130.635664 
L 361.938622 126.711486 
L 357.421708 123.709106 
L 351.5554 120.95025 
L 346.016881 119.274997 
L 339.987772 118.354834 
L 335.430431 118.008343 
L 330.198939 118.068815 
L 325.845919 118.335221 
L 320.920362 118.907259 
L 316.424207 119.683596 
L 311.518318 120.806424 
L 305.939372 122.911522 
L 302.178554 124.545915 
L 297.90748 126.528434 
" clip-path="url(#pac09dd4c06)" style="fill: none; stroke-dasharray: 3.7,1.6; stroke-dashoffset: 0; stroke: #f29888"/>
    <path d="M 367.218189 130.212357 
L 364.840636 127.803261 
L 360.990223 123.90033 
L 357.996429 121.363752 
L 354.348152 119.085408 
L 347.649264 116.691022 
L 341.549135 115.522431 
L 332.427896 115.437442 
L 323.648648 115.636838 
L 319.086936 116.03563 
L 313.585566 117.944601 
L 308.569322 120.396191 
L 306.060653 121.963574 
" clip-path="url(#pac09dd4c06)" style="fill: none; stroke-dasharray: 3.7,1.6; stroke-dashoffset: 0; stroke: #f29888"/>
    <path d="M 306.060653 121.963574 
L 311.020081 119.796369 
L 316.978169 117.488606 
L 321.595605 116.54883 
L 325.90055 116.491626 
L 335.477414 116.406637 
L 342.347844 116.606033 
L 348.846781 118.28619 
L 356.600053 121.564782 
L 364.840636 127.803261 
" clip-path="url(#pac09dd4c06)" style="fill: none; stroke-dasharray: 3.7,1.6; stroke-dashoffset: 0; stroke: #f29888"/>
    <path d="M 343.500267 83.188509 
L 343.395672 85.498628 
L 343.539898 90.42142 
L 344.240272 94.281857 
L 345.83332 99.735827 
L 348.536476 105.35814 
L 351.843854 110.666649 
L 356.743187 117.279403 
L 361.18471 122.926232 
L 367.218189 130.212357 
" clip-path="url(#pac09dd4c06)" style="fill: none; stroke-dasharray: 3.7,1.6; stroke-dashoffset: 0; stroke: #f29888"/>
    <path d="M 289.563098 128.744671 
L 295.382422 122.97036 
" clip-path="url(#pac09dd4c06)" style="fill: none; stroke-dasharray: 3.7,1.6; stroke-dashoffset: 0; stroke: #f29888"/>
    <path d="M 306.060653 121.963574 
L 300.759233 124.720795 
L 297.90748 126.528434 
" clip-path="url(#pac09dd4c06)" style="fill: none; stroke-dasharray: 3.7,1.6; stroke-dashoffset: 0; stroke: #f29888"/>
    <path d="M 307.287672 120.19843 
L 301.455236 123.555473 
L 297.486819 125.848527 
" clip-path="url(#pac09dd4c06)" style="fill: none; stroke-dasharray: 3.7,1.6; stroke-dashoffset: 0; stroke: #f29888"/>
    <path d="M 289.563098 128.744671 
L 294.360817 125.191501 
L 306.798175 116.553733 
" clip-path="url(#pac09dd4c06)" style="fill: none; stroke-dasharray: 3.7,1.6; stroke-dashoffset: 0; stroke: #f29888"/>
    <path d="M 300.765789 123.019392 
L 304.953823 121.205216 
L 307.287672 120.19843 
" clip-path="url(#pac09dd4c06)" style="fill: none; stroke-dasharray: 3.7,1.6; stroke-dashoffset: 0; stroke: #f29888"/>
    <path d="M 292.139509 123.326658 
L 295.249122 119.595339 
L 298.847138 116.931278 
L 306.021318 109.69255 
" clip-path="url(#pac09dd4c06)" style="fill: none; stroke-dasharray: 3.7,1.6; stroke-dashoffset: 0; stroke: #f29888"/>
    <path d="M 304.155114 107.937212 
L 300.290497 111.290987 
L 298.447237 113.333978 
L 296.137427 116.620743 
L 292.139509 123.326658 
" clip-path="url(#pac09dd4c06)" style="fill: none; stroke-dasharray: 3.7,1.6; stroke-dashoffset: 0; stroke: #f29888"/>
    <path d="M 341.93771 81.49006 
L 340.40297 85.595057 
L 336.757971 93.945172 
L 333.112972 98.964394 
L 327.682622 105.671943 
L 321.020884 111.536146 
L 313.92428 116.288961 
L 307.287672 120.19843 
" clip-path="url(#pac09dd4c06)" style="fill: none; stroke-dasharray: 3.7,1.6; stroke-dashoffset: 0; stroke: #f29888"/>
    <path d="M 284.566521 132.652506 
L 291.717756 128.432502 
L 298.225434 124.591678 
L 300.765789 123.019392 
L 306.122933 119.703208 
L 309.597482 117.333338 
L 313.746182 113.716426 
L 317.03717 110.099514 
L 320.101985 106.198218 
L 322.268662 102.581306 
L 324.884408 96.532417 
L 326.397694 91.629237 
L 327.419299 86.0723 
L 327.64438 81.352173 
L 327.071845 74.262175 
L 326.213041 69.481575 
L 323.50613 61.455537 
" clip-path="url(#pac09dd4c06)" style="fill: none; stroke-dasharray: 3.7,1.6; stroke-dashoffset: 0; stroke: #f29888"/>
   </g>
  </g>
 </g>
 <defs>
  <clipPath id="pac09dd4c06">
   <rect x="7.2" y="7.2" width="813.923516" height="831.6"/>
  </clipPath>
 </defs>
</svg>
