<?xml version="1.0" encoding="utf-8" standalone="no"?>
<!DOCTYPE svg PUBLIC "-//W3C//DTD SVG 1.1//EN"
  "http://www.w3.org/Graphics/SVG/1.1/DTD/svg11.dtd">
<svg xmlns:xlink="http://www.w3.org/1999/xlink" width="851.4pt" height="813.505173pt" viewBox="0 0 851.4 813.505173" xmlns="http://www.w3.org/2000/svg" version="1.1">
 <metadata>
  <rdf:RDF xmlns:dc="http://purl.org/dc/elements/1.1/" xmlns:cc="http://creativecommons.org/ns#" xmlns:rdf="http://www.w3.org/1999/02/22-rdf-syntax-ns#">
   <cc:Work>
    <dc:type rdf:resource="http://purl.org/dc/dcmitype/StillImage"/>
    <dc:date>2025-03-16T14:38:38.850829</dc:date>
    <dc:format>image/svg+xml</dc:format>
    <dc:creator>
     <cc:Agent>
      <dc:title>Matplotlib v3.10.1, https://matplotlib.org/</dc:title>
     </cc:Agent>
    </dc:creator>
   </cc:Work>
  </rdf:RDF>
 </metadata>
 <defs>
  <style type="text/css">*{stroke-linejoin: round; stroke-linecap: butt}</style>
 </defs>
 <g id="figure_1">
  <g id="patch_1">
   <path d="M 0 813.505173 
L 851.4 813.505173 
L 851.4 0 
L 0 0 
z
" style="fill: #ffffff"/>
  </g>
  <g id="axes_1">
   <g id="PatchCollection_1">
    <path d="M 636.491637 43.522962 
L 553.403295 48.484717 
L 285.975042 95.650573 
L 266.971247 279.343484 
L 45.245455 423.462025 
L 48.414045 477.311655 
L 219.457885 409.207195 
L 236.879322 436.132011 
L 309.731722 597.68966 
L 412.676048 607.192879 
L 474.442255 569.177083 
L 476.026551 417.125572 
L 553.403295 454.472991 
L 540.039436 639.809119 
L 676.389536 725.034551 
L 752.892788 760.058701 
L 796.083231 769.98221 
L 806.154545 734.95806 
L 794.29751 639.543519 
L 613.250143 519.559537 
L 586.716104 494.458896 
L 563.28093 319.046277 
L 732.943839 339.185163 
L 776.134282 163.772545 
L 639.784182 163.772545 
L 636.491637 43.522962 
" clip-path="url(#p8b56a175f9)" style="fill: #f29888"/>
   </g>
   <g id="PatchCollection_2">
    <path d="M 781.142824 703.13862 
L 780.422338 705.17002 
L 777.583002 704.163076 
L 778.303488 702.131675 
L 781.142824 703.13862 
" clip-path="url(#p8b56a175f9)" style="fill: #f29888"/>
    <path d="M 797.981287 695.620102 
L 799.265379 696.054985 
L 798.635922 697.914184 
L 797.35183 697.479301 
L 797.981287 695.620102 
" clip-path="url(#p8b56a175f9)" style="fill: #f29888"/>
    <path d="M 792.112809 694.709474 
L 793.662242 695.118089 
L 793.056027 697.412171 
L 791.506594 697.003556 
L 792.112809 694.709474 
" clip-path="url(#p8b56a175f9)" style="fill: #f29888"/>
    <path d="M 783.474721 688.028618 
L 785.624559 689.079342 
L 784.987355 690.383992 
L 782.83558 689.333267 
L 783.474721 688.028618 
" clip-path="url(#p8b56a175f9)" style="fill: #f29888"/>
    <path d="M 793.323304 678.890233 
L 794.435022 679.330954 
L 793.604139 681.41489 
L 792.494357 680.97417 
L 793.323304 678.890233 
" clip-path="url(#p8b56a175f9)" style="fill: #f29888"/>
    <path d="M 789.335451 676.890938 
L 790.735751 677.495104 
L 789.792533 679.689951 
L 788.392233 679.088703 
L 789.335451 676.890938 
" clip-path="url(#p8b56a175f9)" style="fill: #f29888"/>
    <path d="M 793.898531 667.69418 
L 795.215549 668.131982 
L 794.485379 670.320991 
L 793.168361 669.883189 
L 793.898531 667.69418 
" clip-path="url(#p8b56a175f9)" style="fill: #f29888"/>
    <path d="M 789.823522 669.378258 
L 790.354203 667.090013 
L 791.986918 667.466523 
L 791.456237 669.757686 
L 789.823522 669.378258 
" clip-path="url(#p8b56a175f9)" style="fill: #f29888"/>
    <path d="M 786.124251 664.60038 
L 787.435459 665.087799 
L 786.51742 667.568676 
L 785.206212 667.084176 
L 786.124251 664.60038 
" clip-path="url(#p8b56a175f9)" style="fill: #f29888"/>
    <path d="M 724.298003 641.607025 
L 725.85712 642.418418 
L 724.445199 645.141546 
L 722.884145 644.330153 
L 724.298003 641.607025 
" clip-path="url(#p8b56a175f9)" style="fill: #f29888"/>
    <path d="M 719.973148 639.482227 
L 721.491592 640.249839 
L 719.705871 643.787279 
L 718.187426 643.022585 
L 719.973148 639.482227 
" clip-path="url(#p8b56a175f9)" style="fill: #f29888"/>
    <path d="M 713.144022 635.854309 
L 714.523018 636.543117 
L 713.36288 638.863467 
L 711.983884 638.17174 
L 713.144022 635.854309 
" clip-path="url(#p8b56a175f9)" style="fill: #f29888"/>
    <path d="M 709.756574 633.930899 
L 711.24984 634.692674 
L 710.147806 636.852497 
L 708.65454 636.090722 
L 709.756574 633.930899 
" clip-path="url(#p8b56a175f9)" style="fill: #f29888"/>
    <path d="M 706.47565 631.852799 
L 708.054135 632.687542 
L 706.516323 635.600383 
L 704.937838 634.765641 
L 706.47565 631.852799 
" clip-path="url(#p8b56a175f9)" style="fill: #f29888"/>
    <path d="M 702.625309 630.256282 
L 703.990747 630.915903 
L 702.677603 633.639031 
L 701.314102 632.982328 
L 702.625309 630.256282 
" clip-path="url(#p8b56a175f9)" style="fill: #f29888"/>
    <path d="M 695.848477 626.456162 
L 697.287513 627.171238 
L 696.078955 629.59666 
L 694.639919 628.878665 
L 695.848477 626.456162 
" clip-path="url(#p8b56a175f9)" style="fill: #f29888"/>
    <path d="M 688.800494 622.977096 
L 690.222099 623.657148 
L 688.978679 626.251854 
L 687.559011 625.568883 
L 688.800494 622.977096 
" clip-path="url(#p8b56a175f9)" style="fill: #f29888"/>
    <path d="M 685.414983 621.085792 
L 687.065129 621.914697 
L 685.7791 624.47146 
L 684.128953 623.639636 
L 685.414983 621.085792 
" clip-path="url(#p8b56a175f9)" style="fill: #f29888"/>
    <path d="M 681.804804 619.200325 
L 683.44914 620.026311 
L 682.172794 622.574318 
L 680.528459 621.748332 
L 681.804804 619.200325 
" clip-path="url(#p8b56a175f9)" style="fill: #f29888"/>
    <path d="M 678.330201 617.3995 
L 679.88157 618.120414 
L 678.663329 620.741388 
L 677.111959 620.020474 
L 678.330201 617.3995 
" clip-path="url(#p8b56a175f9)" style="fill: #f29888"/>
    <path d="M 674.915638 615.184223 
L 676.668434 616.016046 
L 675.386278 618.727499 
L 673.631545 617.898594 
L 674.915638 615.184223 
" clip-path="url(#p8b56a175f9)" style="fill: #f29888"/>
    <path d="M 671.398425 613.640241 
L 672.711569 614.221058 
L 671.756731 616.380881 
L 670.443587 615.800064 
L 671.398425 613.640241 
" clip-path="url(#p8b56a175f9)" style="fill: #f29888"/>
    <path d="M 670.770905 601.939256 
L 673.083433 602.92577 
L 672.434608 604.449321 
L 671.73349 604.148697 
L 671.255102 605.275307 
L 669.641755 604.586498 
L 670.770905 601.939256 
" clip-path="url(#p8b56a175f9)" style="fill: #f29888"/>
    <path d="M 669.761836 599.096463 
L 670.670191 599.502159 
L 669.893538 601.241692 
L 668.985183 600.835996 
L 669.761836 599.096463 
" clip-path="url(#p8b56a175f9)" style="fill: #f29888"/>
    <path d="M 659.882265 596.647691 
L 661.408456 597.397792 
L 660.147605 599.960392 
L 658.621413 599.210291 
L 659.882265 596.647691 
" clip-path="url(#p8b56a175f9)" style="fill: #f29888"/>
    <path d="M 655.028666 594.187245 
L 656.560668 595.004475 
L 655.156494 597.640042 
L 653.624492 596.822812 
L 655.028666 594.187245 
" clip-path="url(#p8b56a175f9)" style="fill: #f29888"/>
    <path d="M 650.769662 592.351395 
L 652.303601 593.119008 
L 651.098917 595.529837 
L 649.563041 594.762224 
L 650.769662 592.351395 
" clip-path="url(#p8b56a175f9)" style="fill: #f29888"/>
    <path d="M 655.518674 562.414503 
L 656.897669 563.012832 
L 656.091964 564.880787 
L 654.712969 564.285376 
L 655.518674 562.414503 
" clip-path="url(#p8b56a175f9)" style="fill: #f29888"/>
    <path d="M 648.629508 548.690873 
L 651.647028 549.934231 
L 650.785156 552.024005 
L 649.152441 551.34979 
L 648.749589 552.324629 
L 647.36672 551.755487 
L 647.643681 551.08419 
L 648.629508 548.690873 
" clip-path="url(#p8b56a175f9)" style="fill: #f29888"/>
    <path d="M 647.531347 590.708179 
L 649.051728 591.542921 
L 647.860602 593.714419 
L 646.340221 592.879676 
L 647.531347 590.708179 
" clip-path="url(#p8b56a175f9)" style="fill: #f29888"/>
    <path d="M 647.027781 554.66541 
L 648.542352 555.187853 
L 647.635934 557.805909 
L 646.1233 557.280546 
L 647.027781 554.66541 
" clip-path="url(#p8b56a175f9)" style="fill: #f29888"/>
    <path d="M 451.101985 511.296756 
L 451.760494 509.819904 
L 454.129189 510.876466 
L 453.47068 512.353318 
L 451.101985 511.296756 
" clip-path="url(#p8b56a175f9)" style="fill: #f29888"/>
    <path d="M 453.635308 506.486773 
L 455.965268 507.339027 
L 455.258339 509.271192 
L 452.928379 508.418938 
L 453.635308 506.486773 
" clip-path="url(#p8b56a175f9)" style="fill: #f29888"/>
    <path d="M 442.409666 505.042026 
L 444.1276 503.655654 
L 445.756441 505.678298 
L 444.036571 507.061752 
L 442.409666 505.042026 
" clip-path="url(#p8b56a175f9)" style="fill: #f29888"/>
    <path d="M 445.525963 500.87999 
L 446.784877 499.668738 
L 449.341442 502.330573 
L 448.082527 503.541825 
L 445.525963 500.87999 
" clip-path="url(#p8b56a175f9)" style="fill: #f29888"/>
    <path d="M 448.384667 497.05652 
L 449.054797 495.030957 
L 453.001977 496.335606 
L 452.331847 498.36117 
L 448.384667 497.05652 
" clip-path="url(#p8b56a175f9)" style="fill: #f29888"/>
    <path d="M 452.792804 370.105651 
L 455.434587 367.706496 
L 457.138963 369.586126 
L 454.49718 371.982361 
L 452.792804 370.105651 
" clip-path="url(#p8b56a175f9)" style="fill: #f29888"/>
    <path d="M 462.232724 362.441199 
L 463.977773 360.60535 
L 468.426582 364.831597 
L 466.681533 366.670365 
L 462.232724 362.441199 
" clip-path="url(#p8b56a175f9)" style="fill: #f29888"/>
    <path d="M 442.857065 354.732967 
L 449.643581 362.499573 
L 446.711279 365.062173 
L 439.922826 357.295568 
L 442.857065 354.732967 
" clip-path="url(#p8b56a175f9)" style="fill: #f29888"/>
    <path d="M 503.786579 357.529062 
L 505.83183 355.818716 
L 506.771174 356.939489 
L 504.723986 358.649835 
L 503.786579 357.529062 
" clip-path="url(#p8b56a175f9)" style="fill: #f29888"/>
    <path d="M 494.27306 353.828177 
L 495.884471 352.421373 
L 499.438483 356.498768 
L 497.827072 357.905572 
L 494.27306 353.828177 
" clip-path="url(#p8b56a175f9)" style="fill: #f29888"/>
    <path d="M 488.222525 346.513967 
L 489.946269 345.069221 
L 492.956042 348.656277 
L 491.232298 350.101023 
L 488.222525 346.513967 
" clip-path="url(#p8b56a175f9)" style="fill: #f29888"/>
    <path d="M 480.341721 327.020108 
L 480.149979 326.81872 
L 481.412767 325.616224 
L 483.979015 328.313083 
L 480.576073 331.552817 
L 478.201567 329.057347 
L 480.341721 327.020108 
" clip-path="url(#p8b56a175f9)" style="fill: #f29888"/>
    <path d="M 488.232209 191.345307 
L 488.751269 190.096112 
L 483.971268 188.330311 
L 485.218562 185.525461 
L 483.349558 184.903782 
L 484.387678 183.032908 
L 493.672655 186.795086 
L 490.641577 192.655794 
L 488.232209 191.345307 
" clip-path="url(#p8b56a175f9)" style="fill: #f29888"/>
    <path d="M 511.504692 182.618456 
L 511.609278 181.579406 
L 525.530933 187.291261 
L 524.18099 190.927936 
L 510.257398 185.216081 
L 511.504692 182.618456 
" clip-path="url(#p8b56a175f9)" style="fill: #f29888"/>
    <path d="M 528.232757 189.162135 
L 533.843641 175.45018 
L 537.895408 177.215981 
L 531.868114 190.720709 
L 528.232757 189.162135 
" clip-path="url(#p8b56a175f9)" style="fill: #f29888"/>
    <path d="M 519.875503 173.357487 
L 521.330033 169.408514 
L 523.40821 170.552636 
L 521.95368 173.979166 
L 519.875503 173.357487 
" clip-path="url(#p8b56a175f9)" style="fill: #f29888"/>
    <path d="M 537.947702 167.683575 
L 540.647589 161.034824 
L 543.765822 162.386172 
L 540.959412 168.880233 
L 537.947702 167.683575 
" clip-path="url(#p8b56a175f9)" style="fill: #f29888"/>
    <path d="M 544.077646 152.620271 
L 546.777533 145.921903 
L 550.103003 147.322869 
L 547.089356 153.81693 
L 544.077646 152.620271 
" clip-path="url(#p8b56a175f9)" style="fill: #f29888"/>
    <path d="M 519.817399 142.206424 
L 522.414636 135.869972 
L 526.466404 137.688309 
L 523.76458 143.817535 
L 519.817399 142.206424 
" clip-path="url(#p8b56a175f9)" style="fill: #f29888"/>
    <path d="M 527.297287 124.755641 
L 533.686761 127.45542 
L 532.439468 130.210653 
L 526.15458 127.715182 
L 527.297287 124.755641 
" clip-path="url(#p8b56a175f9)" style="fill: #f29888"/>
    <path d="M 464.336079 107.120982 
L 470.25685 107.331127 
L 470.361436 110.964882 
L 464.231492 111.069955 
L 464.336079 107.120982 
" clip-path="url(#p8b56a175f9)" style="fill: #f29888"/>
    <path d="M 479.016956 100.311703 
L 481.323675 95.174828 
L 482.731722 95.805263 
L 483.188804 94.786644 
L 484.866066 95.539663 
L 484.379931 96.622493 
L 485.559437 97.150774 
L 483.279834 102.226357 
L 479.016956 100.311703 
" clip-path="url(#p8b56a175f9)" style="fill: #f29888"/>
    <path d="M 465.374199 89.568045 
L 468.490496 89.775271 
L 468.542789 92.527586 
L 473.06326 92.787348 
L 473.010967 89.670199 
L 476.491381 89.877425 
L 476.127264 96.993165 
L 465.114669 96.785939 
L 465.374199 89.568045 
" clip-path="url(#p8b56a175f9)" style="fill: #f29888"/>
    <path d="M 510.516928 81.853976 
L 513.166458 75.464987 
L 515.920576 76.711263 
L 513.323339 83.047716 
L 510.516928 81.853976 
" clip-path="url(#p8b56a175f9)" style="fill: #f29888"/>
    <path d="M 502.153864 75.829822 
L 505.374748 67.56996 
L 508.959748 69.026381 
L 505.581984 77.388397 
L 502.153864 75.829822 
" clip-path="url(#p8b56a175f9)" style="fill: #f29888"/>
    <path d="M 520.543696 58.040473 
L 523.24552 59.234212 
L 520.595989 65.675737 
L 517.946459 64.531615 
L 520.543696 58.040473 
" clip-path="url(#p8b56a175f9)" style="fill: #f29888"/>
    <path d="M 506.492276 65.182481 
L 510.004627 56.138865 
L 514.325636 55.376776 
L 509.992058 66.539666 
L 506.492276 65.182481 
" clip-path="url(#p8b56a175f9)" style="fill: #f29888"/>
    <path d="M 351.343681 586.009105 
L 352.695561 584.964218 
L 353.780164 586.365184 
L 352.428284 587.410071 
L 351.343681 586.009105 
" clip-path="url(#p8b56a175f9)" style="fill: #f29888"/>
    <path d="M 359.970149 577.959388 
L 361.411122 577.180101 
L 362.58288 579.34868 
L 361.139971 580.127967 
L 359.970149 577.959388 
" clip-path="url(#p8b56a175f9)" style="fill: #f29888"/>
    <path d="M 362.722329 576.062247 
L 364.684299 575.052384 
L 365.933529 577.480725 
L 363.97156 578.490588 
L 362.722329 576.062247 
" clip-path="url(#p8b56a175f9)" style="fill: #f29888"/>
    <path d="M 367.169202 573.228209 
L 368.852273 572.279639 
L 370.395896 575.011522 
L 368.712824 575.963012 
L 367.169202 573.228209 
" clip-path="url(#p8b56a175f9)" style="fill: #f29888"/>
    <path d="M 416.561251 566.649506 
L 418.976429 567.872433 
L 418.224954 569.355122 
L 415.811713 568.132195 
L 416.561251 566.649506 
" clip-path="url(#p8b56a175f9)" style="fill: #f29888"/>
    <path d="M 382.485347 567.285779 
L 385.131003 565.18433 
L 386.432527 566.824627 
L 383.78687 568.926076 
L 382.485347 567.285779 
" clip-path="url(#p8b56a175f9)" style="fill: #f29888"/>
    <path d="M 383.988297 561.886222 
L 385.653937 560.199225 
L 388.096231 562.612973 
L 386.432527 564.29997 
L 383.988297 561.886222 
" clip-path="url(#p8b56a175f9)" style="fill: #f29888"/>
    <path d="M 424.614429 554.469858 
L 427.017986 555.911686 
L 426.198724 557.274709 
L 423.797103 555.832881 
L 424.614429 554.469858 
" clip-path="url(#p8b56a175f9)" style="fill: #f29888"/>
    <path d="M 427.347241 550.313659 
L 429.56293 551.516155 
L 428.610029 553.2732 
L 426.39434 552.070704 
L 427.347241 550.313659 
" clip-path="url(#p8b56a175f9)" style="fill: #f29888"/>
    <path d="M 370.024032 548.988579 
L 372.472136 548.004984 
L 373.126772 549.636526 
L 370.678668 550.617202 
L 370.024032 548.988579 
" clip-path="url(#p8b56a175f9)" style="fill: #f29888"/>
    <path d="M 47.834944 451.927903 
L 49.392124 451.355842 
L 50.327595 453.59155 
L 48.665828 454.006002 
L 47.834944 451.927903 
" clip-path="url(#p8b56a175f9)" style="fill: #f29888"/>
    <path d="M 49.549005 449.382814 
L 52.248891 448.186156 
L 52.872538 449.695113 
L 50.432181 450.836317 
L 49.549005 449.382814 
" clip-path="url(#p8b56a175f9)" style="fill: #f29888"/>
    <path d="M 57.652539 445.200347 
L 59.262012 444.57575 
L 59.885659 446.653849 
L 58.328479 447.07122 
L 57.652539 445.200347 
" clip-path="url(#p8b56a175f9)" style="fill: #f29888"/>
    <path d="M 62.43254 445.147811 
L 63.522953 444.628286 
L 64.301543 446.446623 
L 63.106543 446.863994 
L 62.43254 445.147811 
" clip-path="url(#p8b56a175f9)" style="fill: #f29888"/>
    <path d="M 64.66566 441.849703 
L 67.262897 440.810654 
L 67.886544 442.214538 
L 65.237013 443.303206 
L 64.66566 441.849703 
" clip-path="url(#p8b56a175f9)" style="fill: #f29888"/>
    <path d="M 73.756958 441.14922 
L 75.625961 440.159788 
L 76.146958 441.14922 
L 74.276018 442.083198 
L 73.756958 441.14922 
" clip-path="url(#p8b56a175f9)" style="fill: #f29888"/>
    <path d="M 71.419251 438.992317 
L 74.068781 437.848194 
L 74.692428 439.459305 
L 72.145547 440.498355 
L 71.419251 438.992317 
" clip-path="url(#p8b56a175f9)" style="fill: #f29888"/>
    <path d="M 429.378935 546.965934 
L 431.658538 548.040008 
L 431.019397 549.397194 
L 428.739794 548.32312 
L 429.378935 546.965934 
" clip-path="url(#p8b56a175f9)" style="fill: #f29888"/>
    <path d="M 432.402266 541.490492 
L 435.067291 542.914807 
L 434.048538 544.820705 
L 431.383514 543.396389 
L 432.402266 541.490492 
" clip-path="url(#p8b56a175f9)" style="fill: #f29888"/>
    <path d="M 382.830095 531.742103 
L 383.812049 530.22439 
L 385.983191 531.631194 
L 384.999302 533.148907 
L 382.830095 531.742103 
" clip-path="url(#p8b56a175f9)" style="fill: #f29888"/>
    <path d="M 386.397665 527.282362 
L 388.014885 525.084596 
L 389.169213 525.933932 
L 387.551992 528.131697 
L 386.397665 527.282362 
" clip-path="url(#p8b56a175f9)" style="fill: #f29888"/>
    <path d="M 392.23709 522.495728 
L 393.319757 520.607342 
L 394.601912 521.34285 
L 393.519246 523.231235 
L 392.23709 522.495728 
" clip-path="url(#p8b56a175f9)" style="fill: #f29888"/>
    <path d="M 437.711011 503.264551 
L 439.039649 502.184639 
L 440.428329 503.894985 
L 439.09969 504.974897 
L 437.711011 503.264551 
" clip-path="url(#p8b56a175f9)" style="fill: #f29888"/>
    <path d="M 440.031286 501.335304 
L 441.474196 499.943094 
L 442.965525 501.487075 
L 441.522616 502.879285 
L 440.031286 501.335304 
" clip-path="url(#p8b56a175f9)" style="fill: #f29888"/>
    <path d="M 439.764009 391.041336 
L 441.303758 389.409795 
L 445.231571 393.116517 
L 443.691822 394.748059 
L 439.764009 391.041336 
" clip-path="url(#p8b56a175f9)" style="fill: #f29888"/>
    <path d="M 326.17508 373.482562 
L 328.150607 372.341359 
L 328.98149 373.742325 
L 326.955606 374.886447 
L 326.17508 373.482562 
" clip-path="url(#p8b56a175f9)" style="fill: #f29888"/>
    <path d="M 327.62961 368.757221 
L 329.448257 367.820325 
L 330.590964 370.315795 
L 328.72196 371.1447 
L 327.62961 368.757221 
" clip-path="url(#p8b56a175f9)" style="fill: #f29888"/>
    <path d="M 85.652729 433.668646 
L 87.938143 432.73175 
L 88.509496 433.875872 
L 86.380963 435.017075 
L 85.652729 433.668646 
" clip-path="url(#p8b56a175f9)" style="fill: #f29888"/>
    <path d="M 84.510022 431.304516 
L 86.847729 430.265466 
L 87.523669 431.82404 
L 85.185962 432.652945 
L 84.510022 431.304516 
" clip-path="url(#p8b56a175f9)" style="fill: #f29888"/>
    <path d="M 144.614463 401.32968 
L 146.225874 400.810155 
L 147.36858 404.236685 
L 145.549933 404.654056 
L 144.614463 401.32968 
" clip-path="url(#p8b56a175f9)" style="fill: #f29888"/>
    <path d="M 264.720695 399.458807 
L 265.656165 399.146508 
L 266.227519 400.445321 
L 265.344342 400.810155 
L 264.720695 399.458807 
" clip-path="url(#p8b56a175f9)" style="fill: #f29888"/>
    <path d="M 143.78358 398.913014 
L 146.17358 398.133727 
L 146.588053 399.27493 
L 144.147697 400.054218 
L 143.78358 398.913014 
" clip-path="url(#p8b56a175f9)" style="fill: #f29888"/>
    <path d="M 262.954342 396.703574 
L 263.889812 396.236585 
L 264.251992 397.120945 
L 265.032519 396.861183 
L 265.446992 397.952769 
L 263.732932 398.574447 
L 262.954342 396.703574 
" clip-path="url(#p8b56a175f9)" style="fill: #f29888"/>
    <path d="M 265.551579 395.250072 
L 267.370226 394.730547 
L 268.044229 397.068409 
L 266.277875 397.535397 
L 265.551579 395.250072 
" clip-path="url(#p8b56a175f9)" style="fill: #f29888"/>
    <path d="M 143.888167 395.404762 
L 145.549933 394.937773 
L 145.964407 396.236585 
L 144.30264 396.703574 
L 143.888167 395.404762 
" clip-path="url(#p8b56a175f9)" style="fill: #f29888"/>
    <path d="M 303.007183 390.028555 
L 303.99301 389.50903 
L 304.823894 391.172677 
L 303.89036 391.692202 
L 303.007183 390.028555 
" clip-path="url(#p8b56a175f9)" style="fill: #f29888"/>
    <path d="M 289.343122 386.23719 
L 290.435472 385.665129 
L 291.680829 388.055527 
L 290.538122 388.677206 
L 289.343122 386.23719 
" clip-path="url(#p8b56a175f9)" style="fill: #f29888"/>
    <path d="M 291.214062 384.211627 
L 293.187652 383.43234 
L 294.280002 386.289727 
L 292.252182 387.069014 
L 291.214062 384.211627 
" clip-path="url(#p8b56a175f9)" style="fill: #f29888"/>
    <path d="M 309.708481 384.471389 
L 310.851188 383.951865 
L 311.629778 385.822738 
L 310.487071 386.39188 
L 309.708481 384.471389 
" clip-path="url(#p8b56a175f9)" style="fill: #f29888"/>
    <path d="M 297.603536 380.417344 
L 299.474476 379.638057 
L 300.876713 382.755206 
L 299.11036 383.58703 
L 297.603536 380.417344 
" clip-path="url(#p8b56a175f9)" style="fill: #f29888"/>
    <path d="M 306.849777 378.029864 
L 308.044777 377.198041 
L 309.499307 379.690593 
L 308.201657 380.367727 
L 306.849777 378.029864 
" clip-path="url(#p8b56a175f9)" style="fill: #f29888"/>
    <path d="M 308.877598 376.62598 
L 310.642014 375.58693 
L 312.096544 378.237091 
L 310.382484 379.27614 
L 308.877598 376.62598 
" clip-path="url(#p8b56a175f9)" style="fill: #f29888"/>
    <path d="M 172.82189 375.041137 
L 173.861947 374.366922 
L 175.159597 376.445022 
L 173.966534 377.171773 
L 172.82189 375.041137 
" clip-path="url(#p8b56a175f9)" style="fill: #f29888"/>
    <path d="M 175.004654 373.640171 
L 176.823301 372.653657 
L 178.277831 375.093673 
L 176.459184 376.185259 
L 175.004654 373.640171 
" clip-path="url(#p8b56a175f9)" style="fill: #f29888"/>
    <path d="M 324.980079 369.845888 
L 326.43461 369.119137 
L 327.52696 371.354845 
L 326.020136 372.02906 
L 324.980079 369.845888 
" clip-path="url(#p8b56a175f9)" style="fill: #f29888"/>
    <path d="M 185.984323 365.540836 
L 187.739056 364.685663 
L 189.011528 367.294962 
L 187.258732 368.150135 
L 185.984323 365.540836 
" clip-path="url(#p8b56a175f9)" style="fill: #f29888"/>
    <path d="M 336.356791 365.06801 
L 337.708671 364.288723 
L 338.487261 365.534999 
L 339.265851 365.2227 
L 339.941791 366.574049 
L 337.811321 367.718171 
L 336.356791 365.06801 
" clip-path="url(#p8b56a175f9)" style="fill: #f29888"/>
    <path d="M 356.656299 129.551031 
L 361.077994 128.199683 
L 361.831405 130.660129 
L 357.407774 132.011478 
L 356.656299 129.551031 
" clip-path="url(#p8b56a175f9)" style="fill: #f29888"/>
    <path d="M 364.812127 126.915464 
L 369.233821 125.564115 
L 369.987233 128.024562 
L 365.563602 129.37591 
L 364.812127 126.915464 
" clip-path="url(#p8b56a175f9)" style="fill: #f29888"/>
    <path d="M 373.539308 124.513391 
L 377.962939 123.162042 
L 378.714414 125.622489 
L 374.290783 126.973837 
L 373.539308 124.513391 
" clip-path="url(#p8b56a175f9)" style="fill: #f29888"/>
    <path d="M 382.942429 121.70854 
L 387.364124 120.357192 
L 388.117535 122.817638 
L 383.693904 124.168987 
L 382.942429 121.70854 
" clip-path="url(#p8b56a175f9)" style="fill: #f29888"/>
    <path d="M 391.77226 118.90369 
L 396.195891 117.552341 
L 396.947366 120.012788 
L 392.525672 121.364136 
L 391.77226 118.90369 
" clip-path="url(#p8b56a175f9)" style="fill: #f29888"/>
    <path d="M 403.408502 115.267015 
L 407.832133 113.915667 
L 408.583608 116.376113 
L 404.161914 117.727462 
L 403.408502 115.267015 
" clip-path="url(#p8b56a175f9)" style="fill: #f29888"/>
    <path d="M 413.228033 112.412547 
L 417.651664 111.05828 
L 418.403139 113.518726 
L 413.979508 114.870075 
L 413.228033 112.412547 
" clip-path="url(#p8b56a175f9)" style="fill: #f29888"/>
    <path d="M 422.059801 109.762386 
L 426.481495 108.411038 
L 427.234907 110.871484 
L 422.811276 112.222833 
L 422.059801 109.762386 
" clip-path="url(#p8b56a175f9)" style="fill: #f29888"/>
   </g>
   <g id="LineCollection_1">
    <path d="M 766.184101 763.112536 
L 766.580091 760.902199 
L 769.074678 756.643846 
L 771.360092 751.031226 
L 773.542855 741.884086 
L 774.580976 736.169312 
L 774.373739 732.115267 
L 776.140092 726.193266 
" clip-path="url(#p8b56a175f9)" style="fill: none; stroke: #f29888; stroke-width: 0.2"/>
    <path d="M 687.707484 730.21605 
L 685.099286 716.61708 
L 680.112049 704.040491 
L 675.012477 698.389929 
L 672.320338 708.196691 
L 670.656634 713.914383 
L 668.89028 716.824306 
L 667.918861 719.739968 
" clip-path="url(#p8b56a175f9)" style="fill: none; stroke: #f29888; stroke-width: 0.2"/>
    <path d="M 802.048806 749.236241 
L 799.249885 748.670015 
" clip-path="url(#p8b56a175f9)" style="fill: none; stroke: #f29888; stroke-width: 0.2"/>
    <path d="M 802.806848 746.600062 
L 800.121441 748.538674 
L 799.249885 748.670015 
L 796.964471 749.0115 
" clip-path="url(#p8b56a175f9)" style="fill: none; stroke: #f29888; stroke-width: 0.2"/>
    <path d="M 730.78641 749.938123 
L 727.515013 745.080039 
L 718.580595 733.025894 
L 706.111533 717.335075 
L 695.515349 708.812532 
L 688.345348 701.121812 
L 681.64405 691.960078 
L 677.332753 690.419016 
L 674.423693 685.325921 
L 672.450103 680.130672 
L 671.098222 674.518052 
" clip-path="url(#p8b56a175f9)" style="fill: none; stroke: #f29888; stroke-width: 0.2"/>
    <path d="M 779.176981 668.403419 
L 767.567855 666.605512 
L 745.126255 668.995911 
L 727.98178 673.15211 
L 720.397305 675.644662 
L 700.138469 676.269259 
L 695.255819 677.722761 
L 693.489465 683.023083 
L 690.994878 687.179282 
L 681.64405 691.960078 
L 675.012477 698.389929 
L 664.119964 699.023282 
L 641.860423 700.759896 
L 635.920202 699.739252 
" clip-path="url(#p8b56a175f9)" style="fill: none; stroke: #f29888; stroke-width: 0.2"/>
    <path d="M 793.234112 769.327592 
L 792.385897 762.907332 
L 791.438806 755.645658 
L 793.966319 751.06625 
L 796.964471 749.0115 
L 800.121441 745.223055 
L 802.333256 731.64244 
L 802.490137 720.116576 
L 803.778732 715.839696 
" clip-path="url(#p8b56a175f9)" style="fill: none; stroke: #f29888; stroke-width: 0.2"/>
    <path d="M 671.098222 674.518052 
L 667.255629 663.088504 
L 661.435571 651.343739 
L 656.969331 642.929187 
L 655.826624 638.460689 
L 657.904801 631.289494 
L 661.332921 623.703847 
L 664.241982 616.013127 
L 668.609446 609.259304 
" clip-path="url(#p8b56a175f9)" style="fill: none; stroke: #f29888; stroke-width: 0.2"/>
    <path d="M 631.771677 590.454254 
L 668.609446 609.259304 
L 707.864329 629.296036 
L 724.036536 637.205657 
L 728.161901 637.366184 
L 750.084441 648.894967 
L 770.372328 661.191362 
L 773.118698 664.772582 
L 779.176981 668.403419 
L 794.957956 676.946393 
L 799.647474 682.595124 
" clip-path="url(#p8b56a175f9)" style="fill: none; stroke: #f29888; stroke-width: 0.2"/>
    <path d="M 394.809149 561.988376 
L 384.575144 554.093349 
L 374.705256 546.817081 
L 367.744429 544.844054 
L 356.108187 545.468652 
L 336.782885 546.922154 
L 330.964764 549.414706 
L 322.340233 553.675978 
L 316.626699 559.078453 
L 311.534875 567.70315 
L 305.197694 574.147593 
L 300.499699 577.216704 
" clip-path="url(#p8b56a175f9)" style="fill: none; stroke: #f29888; stroke-width: 0.2"/>
    <path d="M 348.465383 601.265325 
L 347.059499 595.579455 
L 347.994969 592.255079 
L 358.488504 585.501255 
L 366.799275 583.630382 
L 371.993749 583.318083 
L 379.68281 582.696405 
L 382.245185 581.216634 
" clip-path="url(#p8b56a175f9)" style="fill: none; stroke: #f29888; stroke-width: 0.2"/>
    <path d="M 347.994969 592.255079 
L 343.734029 584.564359 
L 336.461378 578.122834 
L 331.9932 575.212911 
L 326.903313 573.552183 
L 325.448783 571.681309 
" clip-path="url(#p8b56a175f9)" style="fill: none; stroke: #f29888; stroke-width: 0.2"/>
    <path d="M 498.375184 186.38939 
L 492.663587 197.316924 
L 484.765352 215.234696 
L 475.648876 233.65448 
L 474.364784 236.911726 
L 471.203941 244.926419 
L 469.32138 249.966978 
L 467.500796 265.044875 
L 465.409061 284.637968 
L 464.235366 293.160511 
L 461.411524 304.540441 
L 459.558015 312.712743 
L 459.052513 315.72482 
L 458.90338 318.512159 
L 459.794304 325.306844 
L 462.573599 329.970893 
L 464.888065 333.858574 
L 475.065902 343.326769 
L 484.004194 351.645005 
L 496.140127 364.609778 
L 506.114602 379.903657 
L 516.797942 398.942201 
L 520.078866 407.333403 
L 521.920755 416.241212 
L 525.391518 440.952551 
" clip-path="url(#p8b56a175f9)" style="fill: none; stroke: #f29888; stroke-width: 0.2"/>
    <path d="M 358.488504 585.501255 
L 370.643805 578.330061 
L 379.16375 573.861563 
L 389.986539 569.369715 
" clip-path="url(#p8b56a175f9)" style="fill: none; stroke: #f29888; stroke-width: 0.2"/>
    <path d="M 365.455448 602.833749 
L 377.76926 589.628268 
L 381.094731 582.979516 
L 382.245185 581.216634 
L 389.986539 569.369715 
L 394.809149 561.988376 
L 403.53633 549.312552 
L 419.121689 535.180308 
L 428.88699 525.204262 
L 440.315995 515.231135 
L 457.97953 498.813565 
L 457.355884 478.654248 
L 466.290301 456.212524 
L 468.992125 449.978225 
L 470.239419 436.677804 
L 467.121185 424.209206 
L 468.161242 412.989804 
L 461.095827 402.39208 
L 460.057707 390.130708 
L 461.095827 379.532984 
L 458.603177 373.923283 
" clip-path="url(#p8b56a175f9)" style="fill: none; stroke: #f29888; stroke-width: 0.2"/>
    <path d="M 274.22317 518.945812 
L 278.330527 520.945909 
L 281.551411 521.258208 
L 286.798178 522.195104 
L 290.175942 521.258208 
L 292.616299 521.258208 
L 295.422709 522.869319 
L 298.382126 523.59607 
L 301.914833 523.336307 
L 305.70707 522.40233 
L 308.989931 522.139649 
" clip-path="url(#p8b56a175f9)" style="fill: none; stroke: #f29888; stroke-width: 0.2"/>
    <path d="M 60.45322 472.518022 
L 60.094833 469.904048 
" clip-path="url(#p8b56a175f9)" style="fill: none; stroke: #f29888; stroke-width: 0.2"/>
    <path d="M 117.472272 414.834409 
L 115.62651 418.211321 
L 114.847919 421.17378 
L 115.88604 425.849504 
L 116.56198 429.745941 
L 116.71886 432.86309 
L 115.576153 440.083903 
L 114.483803 442.474301 
L 110.224799 445.019389 
L 98.379384 452.602118 
L 92.873087 455.199742 
L 87.159553 459.720776 
L 83.626846 461.851412 
L 82.637425 463.684945 
" clip-path="url(#p8b56a175f9)" style="fill: none; stroke: #f29888; stroke-width: 0.2"/>
    <path d="M 220.883363 399.890772 
L 219.056969 405.015972 
L 218.849733 407.301298 
L 219.264098 409.284356 
" clip-path="url(#p8b56a175f9)" style="fill: none; stroke: #f29888; stroke-width: 0.2"/>
    <path d="M 201.52247 416.348533 
L 200.771724 410.109067 
L 201.49802 406.160094 
L 203.707899 403.413617 
" clip-path="url(#p8b56a175f9)" style="fill: none; stroke: #f29888; stroke-width: 0.2"/>
    <path d="M 160.575559 398.031573 
L 172.331882 396.764866 
L 186.98177 393.230346 
L 208.176076 390.632721 
L 223.968672 386.686667 
L 253.371099 379.10102 
L 260.331926 378.893794 
L 268.747284 383.671671 
L 277.579052 386.269296 
" clip-path="url(#p8b56a175f9)" style="fill: none; stroke: #f29888; stroke-width: 0.2"/>
    <path d="M 455.587593 326.75159 
L 441.997129 322.866828 
L 434.724479 325.464452 
L 417.16553 333.464552 
L 408.333762 340.320529 
L 404.491168 345.20348 
L 403.243875 351.542851 
L 400.542051 356.113503 
L 390.048516 361.410905 
L 386.101336 365.257724 
L 378.205038 378.969679 
L 370.723214 387.38715 
L 366.256973 389.777548 
L 353.580675 393.101924 
L 342.982554 398.606553 
L 320.229131 398.711625 
L 309.423773 403.699648 
L 295.916591 412.633725 
L 277.631345 422.090245 
L 263.500517 425.516775 
L 240.956267 429.57082 
L 233.505991 430.918531 
" clip-path="url(#p8b56a175f9)" style="fill: none; stroke: #f29888; stroke-width: 0.2"/>
    <path d="M 457.97953 498.813565 
L 475.171605 499.178368 
" clip-path="url(#p8b56a175f9)" style="fill: none; stroke: #f29888; stroke-width: 0.2"/>
    <path d="M 548.702617 519.664161 
L 551.902282 523.59607 
L 560.524877 532.635219 
L 563.867778 536.190171 
" clip-path="url(#p8b56a175f9)" style="fill: none; stroke: #f29888; stroke-width: 0.2"/>
    <path d="M 308.989931 522.139649 
L 320.314349 519.334798 
L 345.769596 513.202653 
L 350.237773 512.06145 
L 361.457605 511.436852 
L 374.548376 511.436852 
L 402.393623 498.553803 
L 416.003455 490.136332 
L 444.160525 470.082087 
L 453.094943 464.577458 
L 458.913064 457.093965 
L 463.278591 450.132915 
L 464.835771 442.757413 
L 466.290301 438.913512 
L 466.499475 429.144693 
L 467.121185 424.209206 
" clip-path="url(#p8b56a175f9)" style="fill: none; stroke: #f29888; stroke-width: 0.2"/>
    <path d="M 475.065902 343.326769 
L 451.303411 361.603538 
" clip-path="url(#p8b56a175f9)" style="fill: none; stroke: #f29888; stroke-width: 0.2"/>
    <path d="M 438.524463 348.200963 
L 452.757941 333.657185 
L 455.587593 326.75159 
L 458.90338 318.512159 
" clip-path="url(#p8b56a175f9)" style="fill: none; stroke: #f29888; stroke-width: 0.2"/>
    <path d="M 418.87959 315.619748 
L 423.562751 316.203483 
L 425.536341 319.008334 
L 426.576398 321.395814 
L 441.997129 322.866828 
" clip-path="url(#p8b56a175f9)" style="fill: none; stroke: #f29888; stroke-width: 0.2"/>
    <path d="M 353.754986 330.601328 
L 383.087689 314.087441 
L 415.087353 298.192314 
L 449.77722 280.222007 
L 451.814724 278.762667 
L 453.842544 277.312083 
L 461.702043 268.821646 
L 462.881549 267.546183 
L 467.500796 265.044875 
" clip-path="url(#p8b56a175f9)" style="fill: none; stroke: #f29888; stroke-width: 0.2"/>
    <path d="M 462.573599 329.970893 
L 474.992304 320.461836 
L 483.018367 313.71385 
L 491.850135 310.806846 
L 496.004552 301.146018 
L 504.31726 290.653366 
L 510.239967 282.548194 
L 521.045325 270.704194 
L 526.017068 265.926316 
L 528.904824 263.565104 
L 530.310934 261.574565 
" clip-path="url(#p8b56a175f9)" style="fill: none; stroke: #f29888; stroke-width: 0.2"/>
    <path d="M 451.814724 278.762667 
L 455.341621 279.28511 
L 459.420503 280.029374 
L 461.831808 281.14139 
L 465.409061 284.637968 
" clip-path="url(#p8b56a175f9)" style="fill: none; stroke: #f29888; stroke-width: 0.2"/>
    <path d="M 443.196003 218.456918 
L 451.712074 224.092887 
L 465.114669 231.573462 
L 474.364784 236.911726 
L 484.854445 241.858887 
L 495.140743 245.597715 
L 504.179747 246.015087 
L 516.127812 252.246467 
L 519.707002 254.49385 
L 522.071824 255.979457 
L 524.233283 257.336643 
L 528.90095 260.278672 
L 530.310934 261.574565 
" clip-path="url(#p8b56a175f9)" style="fill: none; stroke: #f29888; stroke-width: 0.2"/>
    <path d="M 547.714761 533.364199 
L 559.233037 535.273705 
L 563.867778 536.190171 
L 578.41308 539.062151 
L 582.439669 540.562352 
L 590.411501 548.378575 
L 597.279363 558.561846 
L 607.224786 570.718145 
L 614.722104 580.349787 
L 621.998629 584.564359 
L 627.667617 587.850792 
L 631.771677 590.454254 
" clip-path="url(#p8b56a175f9)" style="fill: none; stroke: #f29888; stroke-width: 0.2"/>
    <path d="M 679.654966 295.63847 
L 679.116538 300.603143 
L 679.422551 304.806041 
L 680.28636 308.130417 
L 684.161879 309.934161 
L 696.865292 314.382228 
L 706.241298 315.275343 
L 710.707539 323.310467 
L 724.102387 324.203583 
L 730.799811 329.11572 
L 734.483893 332.930424 
" clip-path="url(#p8b56a175f9)" style="fill: none; stroke: #f29888; stroke-width: 0.2"/>
    <path d="M 636.591678 47.176614 
L 628.837439 44.740052 
L 626.045677 44.14676 
" clip-path="url(#p8b56a175f9)" style="fill: none; stroke: #f29888; stroke-width: 0.2"/>
    <path d="M 491.850135 310.806846 
L 508.26444 310.080095 
L 521.122797 311.840058 
L 526.758859 315.068117 
L 540.058804 323.170371 
L 548.993222 320.885045 
L 557.92764 321.924095 
L 563.735924 322.451913 
" clip-path="url(#p8b56a175f9)" style="fill: none; stroke: #f29888; stroke-width: 0.2"/>
    <path d="M 574.262274 320.349756 
L 577.045705 317.353443 
L 578.083826 305.302217 
L 585.980123 298.860692 
L 589.878884 297.71657 
" clip-path="url(#p8b56a175f9)" style="fill: none; stroke: #f29888; stroke-width: 0.2"/>
    <path d="M 589.878884 297.71657 
L 638.298664 295.784404 
L 643.553178 294.558559 
L 668.179478 295.188993 
L 679.654966 295.63847 
L 715.539833 292.664336 
L 731.958012 289.506325 
" clip-path="url(#p8b56a175f9)" style="fill: none; stroke: #f29888; stroke-width: 0.2"/>
    <path d="M 746.332876 271.182857 
L 743.334723 271.340466 
L 737.888466 273.865123 
L 735.283482 277.574764 
L 734.336391 281.757232 
L 734.177575 286.730661 
L 733.466772 288.388471 
L 731.958012 289.506325 
" clip-path="url(#p8b56a175f9)" style="fill: none; stroke: #f29888; stroke-width: 0.2"/>
    <path d="M 635.39154 237.772737 
L 639.764814 252.252304 
L 642.635139 257.704397 
L 643.535747 263.740225 
L 643.558988 268.894613 
L 642.300074 274.475127 
L 642.29039 280.665646 
L 643.553178 294.558559 
" clip-path="url(#p8b56a175f9)" style="fill: none; stroke: #f29888; stroke-width: 0.2"/>
    <path d="M 684.161879 309.934161 
L 694.71158 308.752095 
L 712.07685 303.699862 
L 723.916455 300.226634 
L 732.283393 293.598313 
L 744.913208 283.651455 
L 746.332876 271.182857 
L 750.064856 269.65028 
" clip-path="url(#p8b56a175f9)" style="fill: none; stroke: #f29888; stroke-width: 0.2"/>
    <path d="M 635.39154 237.772737 
L 631.820097 238.896428 
L 622.242665 241.914342 
L 609.454032 245.939201 
L 585.406833 251.621869 
L 574.723493 254.146527 
L 530.310934 261.574565 
" clip-path="url(#p8b56a175f9)" style="fill: none; stroke: #f29888; stroke-width: 0.2"/>
    <path d="M 97.711191 418.666635 
L 79.009535 419.18616 
L 69.970531 420.744734 
L 56.048876 423.135133 
L 49.284401 420.836768 
" clip-path="url(#p8b56a175f9)" style="fill: none; stroke: #f29888; stroke-width: 0.2"/>
    <path d="M 449.77722 280.222007 
L 443.399366 290.165946 
L 438.621302 295.153969 
L 434.048538 298.478345 
L 421.997824 312.712743 
L 418.87959 315.619748 
L 408.490642 321.334521 
L 388.334456 333.698046 
L 371.191917 342.424897 
L 359.034679 348.244743 
L 347.191201 354.37397 
L 339.087666 358.112798 
L 322.400274 365.786005 
L 315.813247 368.815594 
L 295.657061 378.167042 
L 277.579052 386.269296 
L 270.618224 391.050092 
L 262.721927 393.647717 
L 251.604745 396.347495 
L 240.17574 397.386545 
L 226.461322 398.113296 
L 220.883363 399.890772 
L 219.293258 400.398622 
L 203.707899 403.413617 
L 194.461658 404.140368 
L 169.837295 405.386644 
L 161.31735 404.659893 
L 156.239084 402.911604 
" clip-path="url(#p8b56a175f9)" style="fill: none; stroke: #f29888; stroke-width: 0.2"/>
    <path d="M 492.663587 197.316924 
L 483.920912 200.381538 
L 481.114501 202.771936 
L 461.998372 210.874189 
L 448.283954 216.276664 
L 443.196003 218.456918 
L 434.617955 222.131535 
L 430.827655 223.757239 
L 413.789703 232.691316 
L 398.099757 240.586343 
L 386.151692 245.883746 
L 373.372744 253.778773 
L 350.723908 266.349524 
L 340.125787 272.064298 
L 336.029473 274.691109 
L 331.191369 279.544873 
L 321.112307 287.232674 
L 313.21601 292.010552 
L 302.098828 299.076674 
L 288.593583 308.115823 
L 274.358168 317.776652 
L 263.864633 324.737701 
L 260.831618 327.755616 
L 256.460281 332.883735 
L 235.484832 347.339953 
L 213.374424 360.946835 
L 191.831496 372.566097 
L 179.641332 380.221793 
L 167.453105 389.007017 
L 163.608574 393.904561 
L 160.575559 398.031573 
L 158.997075 400.095079 
L 156.239084 402.911604 
L 153.293225 405.433343 
L 150.866425 407.132015 
L 138.732428 410.774526 
L 134.607063 412.592863 
L 130.965896 414.171869 
L 127.568764 414.65637 
L 117.472272 414.834409 
L 104.391184 416.597291 
L 100.992115 417.204376 
L 97.711191 418.666635 
L 81.697801 426.062568 
L 79.39302 427.883824 
L 76.966221 429.582495 
L 67.379104 434.681427 
L 57.185772 439.654857 
L 52.332174 441.353528 
L 47.234539 442.690283 
L 46.386144 442.847842 
" clip-path="url(#p8b56a175f9)" style="fill: none; stroke: #f29888; stroke-width: 0.2"/>
    <path d="M 322.175606 176.807366 
L 317.188368 184.285022 
L 315.214778 189.687497 
L 315.007542 194.882746 
L 316.357485 199.246171 
L 315.838425 206.8289 
" clip-path="url(#p8b56a175f9)" style="fill: none; stroke: #f29888; stroke-width: 0.2"/>
    <path d="M 316.423336 139.401573 
L 323.006489 153.382047 
L 327.135728 165.768921 
L 328.410137 169.586554 
L 331.942844 180.181359 
" clip-path="url(#p8b56a175f9)" style="fill: none; stroke: #f29888; stroke-width: 0.2"/>
    <path d="M 304.694129 142.600446 
L 302.712791 140.968904 
L 300.351843 133.301534 
L 292.627919 109.023961 
L 288.891492 95.136203 
" clip-path="url(#p8b56a175f9)" style="fill: none; stroke: #f29888; stroke-width: 0.2"/>
    <path d="M 326.643344 88.477975 
L 324.029115 96.899767 
L 321.534528 100.84874 
L 317.794584 102.614541 
L 315.404584 105.521546 
L 315.197347 114.455622 
L 313.11917 122.35065 
L 311.040993 125.050428 
L 307.71746 129.206627 
L 300.351843 133.301534 
" clip-path="url(#p8b56a175f9)" style="fill: none; stroke: #f29888; stroke-width: 0.2"/>
    <path d="M 352.193932 128.409828 
L 338.748598 86.342992 
" clip-path="url(#p8b56a175f9)" style="fill: none; stroke: #f29888; stroke-width: 0.2"/>
    <path d="M 362.630191 82.131037 
L 374.627785 121.86323 
" clip-path="url(#p8b56a175f9)" style="fill: none; stroke: #f29888; stroke-width: 0.2"/>
    <path d="M 539.131081 212.55243 
L 534.165149 218.643713 
L 527.858956 227.729561 
L 524.333996 233.666155 
L 523.222278 238.301017 
L 522.294555 245.533504 
L 521.924628 250.171286 
L 522.071824 255.979457 
" clip-path="url(#p8b56a175f9)" style="fill: none; stroke: #f29888; stroke-width: 0.2"/>
    <path d="M 436.97503 219.685682 
L 434.48819 210.153275 
L 431.890953 206.102149 
L 428.879243 200.9069 
L 425.865596 198.309275 
L 419.423828 192.492348 
L 412.151177 187.819542 
L 403.73582 182.206922 
L 390.228638 176.495067 
L 378.175986 174.209741 
L 360.928861 171.299818 
L 352.097093 172.44394 
" clip-path="url(#p8b56a175f9)" style="fill: none; stroke: #f29888; stroke-width: 0.2"/>
    <path d="M 352.097093 172.44394 
L 344.098145 170.885366 
L 336.097261 172.131642 
L 328.410137 169.586554 
L 326.020136 173.065619 
L 322.175606 176.807366 
L 321.863782 180.338968 
L 323.630136 186.570348 
L 325.189253 193.011873 
L 324.461019 198.207122 
L 324.253783 203.192226 
L 315.838425 206.8289 
L 315.317428 212.7509 
L 316.669308 216.907099 
L 318.747485 219.192425 
L 325.603726 217.736004 
L 347.630852 204.855873 
L 353.863446 200.699674 
L 357.188917 194.258149 
L 359.786154 189.999796 
L 358.748034 185.221918 
L 355.00809 178.36594 
L 353.760797 174.936492 
L 352.097093 172.44394 
" clip-path="url(#p8b56a175f9)" style="fill: none; stroke: #f29888; stroke-width: 0.2"/>
    <path d="M 461.702043 268.821646 
L 455.043355 259.581107 
L 453.381588 253.76418 
L 447.356231 245.244555 
L 446.00435 240.049306 
L 443.407113 236.205406 
L 438.7317 225.091075 
L 434.617955 222.131535 
L 436.97503 219.685682 
L 450.152957 206.017507 
L 456.075665 200.822258 
L 457.946605 197.708027 
L 455.971078 180.254326 
L 454.03235 167.05314 
L 453.271191 161.866647 
L 453.062018 150.025566 
L 453.062018 141.611014 
L 451.504837 137.974339 
L 451.504837 131.637887 
L 457.218371 120.313412 
L 457.946605 109.718606 
L 460.751079 107.120982 
" clip-path="url(#p8b56a175f9)" style="fill: none; stroke: #f29888; stroke-width: 0.2"/>
    <path d="M 558.103888 134.474843 
L 552.992696 142.705518 
L 554.31165 149.946761 
L 552.95977 157.217191 
L 546.829826 168.853965 
L 539.245352 185.058472 
L 534.569938 196.277875 
L 530.539475 196.633953 
L 525.548365 195.343897 
L 511.700308 190.997984 
L 498.375184 186.38939 
" clip-path="url(#p8b56a175f9)" style="fill: none; stroke: #f29888; stroke-width: 0.2"/>
    <path d="M 508.252819 161.81703 
L 525.331444 168.422001 
" clip-path="url(#p8b56a175f9)" style="fill: none; stroke: #f29888; stroke-width: 0.2"/>
    <path d="M 495.659803 108.521948 
L 487.763505 129.559787 
L 476.127264 157.088769 
L 469.582846 173.500502 
L 476.855497 176.410425 
" clip-path="url(#p8b56a175f9)" style="fill: none; stroke: #f29888; stroke-width: 0.2"/>
    <path d="M 454.03235 167.05314 
L 444.774488 164.443841 
L 440.929958 161.63899 
L 436.151894 156.861112 
L 430.02195 155.40761 
L 423.994655 152.809986 
L 416.410181 149.797909 
L 412.463001 145.848936 
L 409.968414 141.17613 
L 403.73582 131.722529 
L 398.729214 113.944854 
" clip-path="url(#p8b56a175f9)" style="fill: none; stroke: #f29888; stroke-width: 0.2"/>
    <path d="M 593.638196 148.379431 
L 588.972466 146.759564 
L 558.103888 134.474843 
L 525.947344 121.460453 
L 518.581727 118.273255 
L 495.659803 108.521948 
L 486.936495 105.130443 
L 484.248229 104.2957 
L 480.060887 103.463877 
L 474.7657 102.956027 
L 464.71569 102.632053 
L 454.324805 102.442339 
L 437.459228 102.494875 
L 434.606334 102.862629 
L 430.415118 103.98632 
L 422.66989 106.286239 
L 411.519783 110.941533 
L 398.729214 113.944854 
L 374.627785 121.86323 
L 361.232937 125.902682 
L 352.193932 128.409828 
L 343.429952 131.462766 
L 334.208889 134.15087 
L 328.46824 135.826191 
L 316.423336 139.401573 
L 310.115207 141.275365 
L 306.888513 142.124701 
L 304.694129 142.600446 
" clip-path="url(#p8b56a175f9)" style="fill: none; stroke: #f29888; stroke-width: 0.2"/>
    <path d="M 451.504837 137.974339 
L 445.06888 130.660129 
L 439.874406 125.260573 
L 437.588993 120.792075 
L 435.198992 112.689822 
L 432.808992 108.224242 
L 430.415118 103.98632 
" clip-path="url(#p8b56a175f9)" style="fill: none; stroke: #f29888; stroke-width: 0.2"/>
    <path d="M 498.375184 186.38939 
L 508.252819 161.81703 
L 525.947344 121.460453 
L 536.803058 95.720621 
L 553.947534 52.197277 
L 554.750704 48.404254 
" clip-path="url(#p8b56a175f9)" style="fill: none; stroke: #f29888; stroke-width: 0.2"/>
    <path d="M 765.774194 205.848754 
L 737.073077 209.776766 
L 724.315434 212.027067 
L 682.052713 218.98228 
L 674.63674 221.34641 
L 664.129648 229.469094 
L 643.136768 236.348421 
L 635.39154 237.772737 
" clip-path="url(#p8b56a175f9)" style="fill: none; stroke: #f29888; stroke-width: 0.2"/>
    <path d="M 643.136768 236.348421 
L 650.206056 231.424609 
L 654.050586 226.025053 
L 658.726 222.181152 
L 663.817824 218.958931 
L 665.894064 215.11503 
L 671.714122 211.376202 
L 678.777599 210.856677 
L 683.03854 208.88365 
L 683.764837 205.559274 
L 684.181247 200.469098 
L 685.843014 193.402976 
L 688.372463 186.526567 
" clip-path="url(#p8b56a175f9)" style="fill: none; stroke: #f29888; stroke-width: 0.2"/>
    <path d="M 578.403396 172.811694 
L 578.163234 175.931762 
L 578.442132 178.16747 
L 579.001865 179.565518 
L 580.119393 181.661129 
L 584.312546 187.2504 
L 596.473658 201.087858 
L 601.64489 206.119661 
L 603.463537 209.055852 
L 604.581066 212.966882 
L 605.979429 217.581314 
L 607.517241 223.310681 
L 609.053117 227.084533 
L 610.871764 230.297999 
L 614.086837 233.514384 
L 622.242665 241.914342 
" clip-path="url(#p8b56a175f9)" style="fill: none; stroke: #f29888; stroke-width: 0.2"/>
    <path d="M 733.695314 193.157807 
L 736.544333 201.610301 
L 736.753507 205.559274 
L 737.073077 209.776766 
" clip-path="url(#p8b56a175f9)" style="fill: none; stroke: #f29888; stroke-width: 0.2"/>
    <path d="M 588.972466 146.759564 
L 578.403396 172.811694 
L 573.458768 180.382748 
L 568.504456 187.69112 
L 565.727098 191.751003 
L 558.0361 197.302331 
L 548.849899 204.137878 
L 539.131081 212.55243 
" clip-path="url(#p8b56a175f9)" style="fill: none; stroke: #f29888; stroke-width: 0.2"/>
    <path d="M 767.81143 197.574776 
L 733.695314 193.157807 
L 713.608852 190.557263 
L 688.372463 186.526567 
L 686.280728 186.193838 
L 612.558709 156.073069 
L 593.638196 148.379431 
" clip-path="url(#p8b56a175f9)" style="fill: none; stroke: #f29888; stroke-width: 0.2"/>
    <path d="M 612.558709 156.073069 
L 587.446274 175.549415 
" clip-path="url(#p8b56a175f9)" style="fill: none; stroke: #f29888; stroke-width: 0.2"/>
    <path d="M 592.214004 46.167073 
L 591.881526 47.652893 
L 591.081631 50.597841 
L 585.621817 65.100758 
L 558.103888 134.474843 
" clip-path="url(#p8b56a175f9)" style="fill: none; stroke: #f29888; stroke-width: 0.2"/>
    <path d="M 553.947534 52.197277 
L 585.621817 65.100758 
" clip-path="url(#p8b56a175f9)" style="fill: none; stroke: #f29888; stroke-width: 0.2"/>
    <path d="M 454.324805 102.442339 
L 454.836118 81.422012 
L 462.108769 81.319858 
" clip-path="url(#p8b56a175f9)" style="fill: none; stroke: #f29888; stroke-width: 0.2"/>
    <path d="M 398.729214 113.944854 
L 387.321237 77.776321 
" clip-path="url(#p8b56a175f9)" style="fill: none; stroke: #f29888; stroke-width: 0.2"/>
    <path d="M 413.732305 73.118246 
L 422.66989 106.286239 
" clip-path="url(#p8b56a175f9)" style="fill: none; stroke: #f29888; stroke-width: 0.2"/>
    <path d="M 517.905037 54.745483 
L 512.00051 70.033325 
L 495.659803 108.521948 
" clip-path="url(#p8b56a175f9)" style="fill: none; stroke: #f29888; stroke-width: 0.2"/>
    <path d="M 439.520555 68.570018 
L 443.540752 81.109713 
" clip-path="url(#p8b56a175f9)" style="fill: none; stroke: #f29888; stroke-width: 0.2"/>
    <path d="M 462.108769 89.211966 
L 462.108769 81.319858 
L 463.26697 78.593811 
L 465.329653 73.737129 
L 470.942281 63.028223 
" clip-path="url(#p8b56a175f9)" style="fill: none; stroke: #f29888; stroke-width: 0.2"/>
    <path d="M 462.261972 64.559153 
L 463.26697 78.593811 
" clip-path="url(#p8b56a175f9)" style="fill: none; stroke: #f29888; stroke-width: 0.2"/>
   </g>
  </g>
 </g>
 <defs>
  <clipPath id="p8b56a175f9">
   <rect x="7.2" y="7.2" width="837" height="799.105173"/>
  </clipPath>
 </defs>
</svg>
