<?xml version="1.0" encoding="utf-8" standalone="no"?>
<!DOCTYPE svg PUBLIC "-//W3C//DTD SVG 1.1//EN"
  "http://www.w3.org/Graphics/SVG/1.1/DTD/svg11.dtd">
<svg xmlns:xlink="http://www.w3.org/1999/xlink" width="694.949722pt" height="846pt" viewBox="0 0 694.949722 846" xmlns="http://www.w3.org/2000/svg" version="1.1">
 <metadata>
  <rdf:RDF xmlns:dc="http://purl.org/dc/elements/1.1/" xmlns:cc="http://creativecommons.org/ns#" xmlns:rdf="http://www.w3.org/1999/02/22-rdf-syntax-ns#">
   <cc:Work>
    <dc:type rdf:resource="http://purl.org/dc/dcmitype/StillImage"/>
    <dc:date>2025-03-16T14:38:38.790574</dc:date>
    <dc:format>image/svg+xml</dc:format>
    <dc:creator>
     <cc:Agent>
      <dc:title>Matplotlib v3.10.1, https://matplotlib.org/</dc:title>
     </cc:Agent>
    </dc:creator>
   </cc:Work>
  </rdf:RDF>
 </metadata>
 <defs>
  <style type="text/css">*{stroke-linejoin: round; stroke-linecap: butt}</style>
 </defs>
 <g id="figure_1">
  <g id="patch_1">
   <path d="M 0 846 
L 694.949722 846 
L 694.949722 0 
L 0 0 
z
" style="fill: #ffffff"/>
  </g>
  <g id="axes_1">
   <g id="PatchCollection_1">
    <path d="M 552.382039 754.353339 
L 586.502401 801 
L 611.474183 779.8506 
L 613.031594 778.812794 
L 619.97223 776.671636 
L 621.333756 775.892371 
L 624.70734 770.375611 
L 648.317596 746.567971 
L 656.815644 740.468583 
L 642.707047 733.331389 
L 635.345619 741.051211 
L 619.193525 727.363093 
L 607.128425 719.839907 
L 576.384066 686.1021 
L 544.338639 675.075863 
L 521.637679 675.203313 
L 520.858974 677.08593 
L 524.621911 683.899037 
L 537.204535 698.752412 
L 543.821114 710.237468 
L 540.57812 720.225898 
L 541.095645 741.506389 
L 543.172999 745.333528 
L 546.933518 749.550298 
L 552.382039 754.353339 
" clip-path="url(#p2fb11ac3f2)" style="fill: #fbd6c9"/>
    <path d="M 141.138444 63.330936 
L 106.606964 45 
L 103.192267 51.805824 
L 90.285586 67.04519 
L 90.22029 75.085458 
L 84.317122 83.063821 
L 79.323249 88.769935 
L 75.43214 92.079991 
L 68.880856 94.414145 
L 64.987328 100.3788 
L 60.576276 114.387364 
L 52.922229 113.608099 
L 46.566831 122.16909 
L 44.878829 128.395928 
L 38.134078 148.762421 
L 38.134078 155.764882 
L 40.080842 159.399025 
L 48.383004 167.570384 
L 58.760102 173.797222 
L 54.47964 181.706398 
L 40.857129 208.299729 
L 40.080842 215.691823 
L 65.635443 230.352202 
L 105.72427 246.177837 
L 126.870237 255.194007 
L 133.680283 288.724254 
L 138.870041 290.799866 
L 145.35603 293.847739 
L 151.907313 295.599265 
L 183.440052 301.006782 
L 188.400067 301.79333 
L 200.295883 303.70872 
L 199.647768 314.279778 
L 205.355051 317.262106 
L 202.501409 334.518821 
L 212.880926 348.785927 
L 253.874211 347.682575 
L 263.085669 372.589925 
L 251.214037 385.953957 
L 237.463354 402.427766 
L 234.999066 408.916787 
L 230.588013 430.062545 
L 229.744012 436.937556 
L 226.825076 457.111054 
L 226.501018 460.679651 
L 229.874603 470.861077 
L 250.278139 493.459764 
L 251.73398 485.197369 
L 282.73952 441.995496 
L 291.885683 452.828737 
L 293.571266 456.073248 
L 293.312504 462.23454 
L 300.773083 472.936689 
L 307.259072 480.722057 
L 313.875651 487.859251 
L 322.436575 493.823906 
L 328.470334 501.026646 
L 335.084495 514.062949 
L 337.485907 521.655322 
L 340.922368 524.506558 
L 343.778428 530.930033 
L 344.361248 536.443151 
L 356.946291 553.310234 
L 365.637805 566.60872 
L 372.578442 581.462095 
L 379.908431 591.25753 
L 393.463228 579.583119 
L 403.90804 572.056293 
L 405.010803 574.976716 
L 422.328537 568.163609 
L 438.804689 565.312373 
L 438.739394 562.457495 
L 471.430518 558.044087 
L 495.108487 497.782136 
L 521.313622 466.775397 
L 515.151691 462.558626 
L 517.744152 457.435141 
L 522.93391 455.683615 
L 553.745983 473.715954 
L 553.729054 474.961322 
L 564.967081 480.463516 
L 573.87141 436.329438 
L 574.45423 426.595908 
L 576.855642 411.407522 
L 581.31748 367.754112 
L 579.680263 346.196873 
L 583.624576 331.685792 
L 584.011511 316.741382 
L 585.634217 306.734744 
L 585.186824 295.180501 
L 575.651309 278.743106 
L 494.116967 176.433614 
L 483.778563 166.379638 
L 472.661453 160.476887 
L 451.155153 153.904114 
L 373.342637 131.680494 
L 342.2452 118.323745 
L 271.375739 117.376974 
L 236.505692 113.513422 
L 224.542162 108.5538 
L 174.414806 80.139757 
L 141.138444 63.330936 
" clip-path="url(#p2fb11ac3f2)" style="fill: #fbd6c9"/>
   </g>
   <g id="LineCollection_1">
    <path d="M 261.922856 373.898917 
L 265.085637 374.042854 
L 311.184038 369.163344 
" clip-path="url(#p2fb11ac3f2)" style="fill: none; stroke: #e6482f; stroke-width: 0.2"/>
    <path d="M 150.434544 293.51637 
L 153.731584 295.912107 
" clip-path="url(#p2fb11ac3f2)" style="fill: none; stroke: #e6482f; stroke-width: 0.2"/>
    <path d="M 190.326485 302.10351 
L 191.350443 301.272606 
" clip-path="url(#p2fb11ac3f2)" style="fill: none; stroke: #e6482f; stroke-width: 0.2"/>
    <path d="M 284.553275 310.205023 
L 280.843542 309.899143 
L 239.632605 306.498052 
L 235.83823 306.184889 
L 226.861351 305.198063 
L 206.356244 302.94402 
L 198.605463 302.164755 
L 191.350443 301.272606 
L 183.60208 299.644889 
L 150.434544 293.51637 
L 144.340327 291.699298 
L 139.375474 289.077472 
L 136.026073 285.206636 
" clip-path="url(#p2fb11ac3f2)" style="fill: none; stroke: #e6482f; stroke-width: 0.2"/>
    <path d="M 136.026073 285.206636 
L 131.186858 276.447517 
" clip-path="url(#p2fb11ac3f2)" style="fill: none; stroke: #e6482f; stroke-width: 0.2"/>
    <path d="M 122.021775 253.126731 
L 119.487044 234.270376 
L 119.487044 225.782213 
L 122.722783 212.844228 
L 127.714237 208.900564 
" clip-path="url(#p2fb11ac3f2)" style="fill: none; stroke: #e6482f; stroke-width: 0.2"/>
    <path d="M 271.295934 238.705632 
L 271.494238 234.095587 
L 273.131455 196.079105 
" clip-path="url(#p2fb11ac3f2)" style="fill: none; stroke: #e6482f; stroke-width: 0.2"/>
    <path d="M 122.722783 212.844228 
L 118.522126 205.736165 
" clip-path="url(#p2fb11ac3f2)" style="fill: none; stroke: #e6482f; stroke-width: 0.2"/>
    <path d="M 617.996018 777.281289 
L 616.56237 775.40442 
" clip-path="url(#p2fb11ac3f2)" style="fill: none; stroke: #e6482f; stroke-width: 0.2"/>
    <path d="M 569.733474 778.074849 
L 573.72631 774.927393 
L 585.568922 766.56668 
L 591.670394 764.436446 
" clip-path="url(#p2fb11ac3f2)" style="fill: none; stroke: #e6482f; stroke-width: 0.2"/>
    <path d="M 558.720881 763.019302 
L 562.635801 760.842359 
L 568.993618 755.522236 
L 572.625965 751.11247 
L 577.063619 749.52845 
" clip-path="url(#p2fb11ac3f2)" style="fill: none; stroke: #e6482f; stroke-width: 0.2"/>
    <path d="M 545.117345 689.335685 
L 539.175483 681.867122 
L 537.963894 677.016743 
L 537.637494 675.113485 
" clip-path="url(#p2fb11ac3f2)" style="fill: none; stroke: #e6482f; stroke-width: 0.2"/>
    <path d="M 613.374146 723.734423 
L 589.109372 750.009118 
L 584.981265 757.007938 
" clip-path="url(#p2fb11ac3f2)" style="fill: none; stroke: #e6482f; stroke-width: 0.2"/>
    <path d="M 502.15553 440.262178 
L 502.436058 443.098848 
L 508.798711 449.329327 
L 512.813156 456.368203 
L 514.827633 460.799818 
L 515.457789 461.953683 
" clip-path="url(#p2fb11ac3f2)" style="fill: none; stroke: #e6482f; stroke-width: 0.2"/>
    <path d="M 516.167982 463.254101 
L 518.051281 466.702569 
L 518.966955 469.552047 
" clip-path="url(#p2fb11ac3f2)" style="fill: none; stroke: #e6482f; stroke-width: 0.2"/>
    <path d="M 542.986419 675.083455 
L 544.164519 677.603012 
L 545.117345 689.335685 
L 548.495766 699.859405 
L 553.811278 709.691254 
L 562.82685 721.008805 
L 567.35882 728.55748 
L 571.989941 744.324853 
L 576.127722 748.647225 
L 577.063619 749.52845 
L 584.981265 757.007938 
L 591.670394 764.436446 
L 604.311059 777.356224 
L 606.642339 778.066302 
L 610.248084 778.230166 
L 613.389508 777.31981 
L 616.56237 775.40442 
" clip-path="url(#p2fb11ac3f2)" style="fill: none; stroke: #e6482f; stroke-width: 0.2"/>
    <path d="M 507.73706 383.958456 
L 518.590571 385.156485 
L 532.5057 386.693167 
L 540.38949 387.301285 
L 559.593529 391.947744 
L 564.647861 391.947744 
L 567.709479 386.0632 
L 569.82069 373.919046 
" clip-path="url(#p2fb11ac3f2)" style="fill: none; stroke: #e6482f; stroke-width: 0.2"/>
    <path d="M 418.217359 305.128876 
L 423.378097 322.891749 
L 426.02618 329.067607 
L 435.256984 342.48626 
L 455.626664 372.997765 
L 466.332656 391.550828 
L 476.385697 408.967767 
L 481.077277 415.780874 
L 482.92247 418.464604 
L 489.26094 425.743814 
L 502.15553 440.262178 
" clip-path="url(#p2fb11ac3f2)" style="fill: none; stroke: #e6482f; stroke-width: 0.2"/>
    <path d="M 433.64637 540.947594 
L 448.20236 547.618686 
L 459.928891 553.077183 
L 464.376219 556.514689 
L 466.627694 558.63764 
L 466.64604 558.690007 
" clip-path="url(#p2fb11ac3f2)" style="fill: none; stroke: #e6482f; stroke-width: 0.2"/>
    <path d="M 431.656076 513.483963 
L 430.887043 519.78727 
L 432.995836 535.951558 
L 433.64637 540.947594 
L 438.743476 562.635942 
" clip-path="url(#p2fb11ac3f2)" style="fill: none; stroke: #e6482f; stroke-width: 0.2"/>
    <path d="M 403.64569 572.245349 
L 387.673722 532.040667 
L 384.065558 521.367649 
L 357.132503 467.033938 
L 330.158336 406.790194 
L 326.119708 397.704837 
L 320.264906 388.135171 
L 311.184038 369.163344 
L 284.553275 310.205023 
L 274.260819 276.230522 
L 273.102434 269.665032 
L 274.778344 239.244563 
" clip-path="url(#p2fb11ac3f2)" style="fill: none; stroke: #e6482f; stroke-width: 0.2"/>
    <path d="M 387.673722 532.040667 
L 424.974202 515.985622 
L 431.656076 513.483963 
L 446.833579 501.263339 
L 452.504587 494.87992 
L 465.84657 483.773572 
L 502.15553 440.262178 
L 505.872519 437.465563 
L 507.920853 435.215162 
L 510.460111 430.062545 
L 510.885739 423.515262 
L 510.167492 404.295818 
L 508.368246 386.886162 
L 507.73706 383.958456 
L 506.970446 380.3935 
L 495.408361 346.36802 
L 486.540307 325.699289 
L 477.466695 314.123197 
L 468.03275 305.391058 
L 454.942274 293.272394 
L 451.010053 289.630968 
L 444.25321 286.047806 
L 433.307802 280.239732 
" clip-path="url(#p2fb11ac3f2)" style="fill: none; stroke: #e6482f; stroke-width: 0.2"/>
    <path d="M 308.18046 406.083758 
L 313.360544 403.472855 
L 318.414876 402.460539 
L 323.065344 403.268936 
L 330.158336 406.790194 
" clip-path="url(#p2fb11ac3f2)" style="fill: none; stroke: #e6482f; stroke-width: 0.2"/>
    <path d="M 455.626664 372.997765 
L 452.930215 374.549012 
L 432.981326 385.567966 
L 399.879085 406.771987 
" clip-path="url(#p2fb11ac3f2)" style="fill: none; stroke: #e6482f; stroke-width: 0.2"/>
    <path d="M 452.504587 494.87992 
L 406.83665 419.673558 
L 399.879085 406.771987 
L 383.666532 369.931685 
L 366.982403 337.796104 
L 360.665698 318.278063 
L 360.590729 308.577306 
L 361.913561 301.203419 
L 366.266574 293.829532 
L 368.670404 288.647784 
L 367.814312 281.590701 
L 366.629325 271.784342 
L 364.866355 257.222281 
L 364.443145 253.722871 
L 362.027223 249.600777 
L 355.570255 245.882882 
" clip-path="url(#p2fb11ac3f2)" style="fill: none; stroke: #e6482f; stroke-width: 0.2"/>
    <path d="M 248.071507 491.015728 
L 251.597035 485.974578 
" clip-path="url(#p2fb11ac3f2)" style="fill: none; stroke: #e6482f; stroke-width: 0.2"/>
    <path d="M 267.645278 463.027207 
L 286.026045 436.744561 
L 308.18046 406.083758 
L 320.264906 388.135171 
L 328.779882 380.236919 
L 350.049184 359.291439 
L 355.226851 354.193444 
L 360.506087 345.078955 
L 366.982403 337.796104 
L 384.483931 324.923665 
L 401.351854 315.834667 
L 418.217359 305.128876 
L 423.165283 299.779622 
L 426.495338 294.834566 
L 429.699638 288.953663 
L 433.307802 280.239732 
L 440.427396 264.956669 
L 454.2337 249.822904 
L 456.028109 247.856535 
L 471.921441 230.435955 
" clip-path="url(#p2fb11ac3f2)" style="fill: none; stroke: #e6482f; stroke-width: 0.2"/>
    <path d="M 423.165283 299.779622 
L 428.188176 297.744065 
L 435.063517 291.276893 
L 444.25321 286.047806 
" clip-path="url(#p2fb11ac3f2)" style="fill: none; stroke: #e6482f; stroke-width: 0.2"/>
    <path d="M 455.626664 372.997765 
L 458.811618 370.867531 
L 495.408361 346.36802 
" clip-path="url(#p2fb11ac3f2)" style="fill: none; stroke: #e6482f; stroke-width: 0.2"/>
    <path d="M 575.310323 325.265959 
L 583.773494 325.934202 
" clip-path="url(#p2fb11ac3f2)" style="fill: none; stroke: #e6482f; stroke-width: 0.2"/>
    <path d="M 485.265842 313.598831 
L 484.794266 318.969934 
L 486.540307 325.699289 
" clip-path="url(#p2fb11ac3f2)" style="fill: none; stroke: #e6482f; stroke-width: 0.2"/>
    <path d="M 518.281023 289.88951 
L 500.373214 299.892506 
L 491.44712 307.007851 
L 485.265842 313.598831 
L 477.466695 314.123197 
" clip-path="url(#p2fb11ac3f2)" style="fill: none; stroke: #e6482f; stroke-width: 0.2"/>
    <path d="M 429.699638 288.953663 
L 436.882109 286.426514 
L 444.25321 286.047806 
" clip-path="url(#p2fb11ac3f2)" style="fill: none; stroke: #e6482f; stroke-width: 0.2"/>
    <path d="M 386.196116 250.307214 
L 397.257604 257.721156 
L 409.591139 264.188328 
L 433.307802 280.239732 
" clip-path="url(#p2fb11ac3f2)" style="fill: none; stroke: #e6482f; stroke-width: 0.2"/>
    <path d="M 367.814312 281.590701 
L 371.988367 269.242627 
L 374.617103 254.687849 
L 377.260349 248.872492 
" clip-path="url(#p2fb11ac3f2)" style="fill: none; stroke: #e6482f; stroke-width: 0.2"/>
    <path d="M 451.010053 289.630968 
L 443.14561 271.296391 
L 440.427396 264.956669 
L 429.851994 258.056168 
L 416.512429 254.385611 
L 399.622741 252.113361 
L 386.196116 250.307214 
L 377.260349 248.872492 
L 373.823887 248.056813 
L 355.570255 245.882882 
L 343.841305 244.917904 
L 274.778344 239.244563 
" clip-path="url(#p2fb11ac3f2)" style="fill: none; stroke: #e6482f; stroke-width: 0.2"/>
    <path d="M 364.443145 253.722871 
L 367.944902 250.441947 
L 373.823887 248.056813 
" clip-path="url(#p2fb11ac3f2)" style="fill: none; stroke: #e6482f; stroke-width: 0.2"/>
    <path d="M 448.228961 205.382947 
L 432.68387 225.010231 
L 428.988646 229.674897 
L 416.512429 254.385611 
" clip-path="url(#p2fb11ac3f2)" style="fill: none; stroke: #e6482f; stroke-width: 0.2"/>
    <path d="M 75.826329 117.82487 
L 91.16828 127.682209 
L 102.580427 135.019681 
L 110.057935 139.822721 
L 130.183363 148.015929 
L 136.357385 149.738323 
L 147.873522 151.169403 
L 189.106223 163.517477 
L 226.072972 177.59887 
L 241.37381 184.92906 
L 248.183857 188.213625 
L 254.413501 190.176354 
L 273.131455 196.079105 
L 295.060964 197.065931 
L 309.878134 195.463704 
L 338.008268 190.01249 
L 352.919754 188.413904 
L 382.375138 188.552278 
L 407.095412 189.455352 
L 414.722857 190.445819 
L 424.601777 192.962044 
L 434.7975 196.443247 
L 448.228961 205.382947 
L 454.211935 210.331644 
L 471.921441 230.435955 
L 518.281023 289.88951 
L 540.619232 314.640279 
L 542.800575 317.058186 
L 547.429278 320.477484 
L 553.38565 322.392874 
L 571.987523 325.003776 
L 575.310323 325.265959 
" clip-path="url(#p2fb11ac3f2)" style="fill: none; stroke: #e6482f; stroke-width: 0.2"/>
    <path d="M 382.375138 188.552278 
L 381.272375 221.314184 
L 380.488833 244.579252 
L 377.260349 248.872492 
" clip-path="url(#p2fb11ac3f2)" style="fill: none; stroke: #e6482f; stroke-width: 0.2"/>
    <path d="M 448.228961 205.382947 
L 460.364193 190.562345 
L 462.354487 187.576376 
L 470.845279 171.342901 
" clip-path="url(#p2fb11ac3f2)" style="fill: none; stroke: #e6482f; stroke-width: 0.2"/>
    <path d="M 274.778344 239.244563 
L 271.295934 238.705632 
L 247.695352 235.045999 
L 237.078838 233.403717 
L 211.480707 229.434563 
L 169.611982 220.432959 
L 127.714237 208.900564 
L 122.768732 207.542312 
L 118.522126 205.736165 
L 98.164538 197.076855 
L 84.058359 187.285062 
L 59.384034 173.826353 
" clip-path="url(#p2fb11ac3f2)" style="fill: none; stroke: #e6482f; stroke-width: 0.2"/>
    <path d="M 189.106223 163.517477 
L 180.937069 186.10524 
L 171.848947 211.227435 
L 170.922723 215.040008 
L 169.611982 220.432959 
" clip-path="url(#p2fb11ac3f2)" style="fill: none; stroke: #e6482f; stroke-width: 0.2"/>
    <path d="M 60.614522 227.471757 
L 57.829041 225.782213 
L 50.752978 221.132112 
L 47.720379 213.452346 
L 44.399998 209.479551 
L 41.828809 206.402855 
" clip-path="url(#p2fb11ac3f2)" style="fill: none; stroke: #e6482f; stroke-width: 0.2"/>
    <path d="M 60.205437 114.349608 
L 59.850774 116.222642 
L 59.928161 117.759324 
L 60.576276 118.960994 
L 61.778191 119.51085 
L 63.296908 119.419814 
L 66.319834 121.480861 
L 68.94857 125.927041 
L 69.553155 131.789737 
L 68.542288 136.640115 
L 64.298101 141.086296 
L 58.636767 141.694414 
L 43.069911 156.853669 
L 42.666048 160.895651 
L 45.315415 164.551126 
" clip-path="url(#p2fb11ac3f2)" style="fill: none; stroke: #e6482f; stroke-width: 0.2"/>
    <path d="M 59.384034 173.826353 
L 47.066155 166.274283 
" clip-path="url(#p2fb11ac3f2)" style="fill: none; stroke: #e6482f; stroke-width: 0.2"/>
    <path d="M 246.263694 137.037031 
L 254.935863 132.798411 
L 285.462571 130.373222 
L 294.342717 132.230349 
L 305.401787 132.696452 
" clip-path="url(#p2fb11ac3f2)" style="fill: none; stroke: #e6482f; stroke-width: 0.2"/>
    <path d="M 63.296908 119.419814 
L 64.549609 118.636907 
L 68.131171 115.716484 
" clip-path="url(#p2fb11ac3f2)" style="fill: none; stroke: #e6482f; stroke-width: 0.2"/>
    <path d="M 104.118574 49.959605 
L 132.021301 71.553275 
L 147.387435 79.436961 
L 165.78375 86.91645 
L 187.616525 98.033722 
L 213.292044 112.18066 
L 222.590562 118.247275 
L 243.615612 124.106329 
L 246.041207 128.556151 
L 246.263694 137.037031 
L 247.052073 166.958625 
L 246.44507 178.279817 
L 245.030341 181.917601 
L 241.37381 184.92906 
" clip-path="url(#p2fb11ac3f2)" style="fill: none; stroke: #e6482f; stroke-width: 0.2"/>
    <path d="M 84.650538 82.613197 
L 86.394476 81.636382 
L 88.701573 81.359634 
L 91.129586 81.993242 
L 93.410081 83.682864 
L 103.112462 89.946116 
L 104.931054 93.183343 
" clip-path="url(#p2fb11ac3f2)" style="fill: none; stroke: #e6482f; stroke-width: 0.2"/>
    <path d="M 60.785314 113.723502 
L 68.131171 115.716484 
L 73.388642 116.721518 
L 75.826329 117.82487 
" clip-path="url(#p2fb11ac3f2)" style="fill: none; stroke: #e6482f; stroke-width: 0.2"/>
   </g>
  </g>
 </g>
 <defs>
  <clipPath id="p2fb11ac3f2">
   <rect x="7.2" y="7.2" width="680.549722" height="831.6"/>
  </clipPath>
 </defs>
</svg>
