<?xml version="1.0" encoding="utf-8" standalone="no"?>
<!DOCTYPE svg PUBLIC "-//W3C//DTD SVG 1.1//EN"
  "http://www.w3.org/Graphics/SVG/1.1/DTD/svg11.dtd">
<svg xmlns:xlink="http://www.w3.org/1999/xlink" width="851.4pt" height="446.57895pt" viewBox="0 0 851.4 446.57895" xmlns="http://www.w3.org/2000/svg" version="1.1">
 <metadata>
  <rdf:RDF xmlns:dc="http://purl.org/dc/elements/1.1/" xmlns:cc="http://creativecommons.org/ns#" xmlns:rdf="http://www.w3.org/1999/02/22-rdf-syntax-ns#">
   <cc:Work>
    <dc:type rdf:resource="http://purl.org/dc/dcmitype/StillImage"/>
    <dc:date>2025-03-16T14:38:36.930668</dc:date>
    <dc:format>image/svg+xml</dc:format>
    <dc:creator>
     <cc:Agent>
      <dc:title>Matplotlib v3.10.1, https://matplotlib.org/</dc:title>
     </cc:Agent>
    </dc:creator>
   </cc:Work>
  </rdf:RDF>
 </metadata>
 <defs>
  <style type="text/css">*{stroke-linejoin: round; stroke-linecap: butt}</style>
 </defs>
 <g id="figure_1">
  <g id="patch_1">
   <path d="M 0 446.57895 
L 851.4 446.57895 
L 851.4 0 
L 0 0 
z
" style="fill: #ffffff"/>
  </g>
  <g id="axes_1">
   <g id="PatchCollection_1">
    <path d="M 45.245455 140.111439 
L 49.655994 152.285829 
L 88.082623 161.068966 
L 119.18085 175.288393 
L 242.344772 234.657537 
L 248.957442 238.763969 
L 248.73456 241.133874 
L 242.702637 243.611288 
L 222.291728 254.011757 
L 239.549337 274.020388 
L 256.758289 281.200216 
L 278.374641 252.443506 
L 284.580788 253.848154 
L 291.058473 254.310916 
L 296.548889 256.285837 
L 301.083426 258.260757 
L 305.154934 260.913461 
L 323.078048 272.4498 
L 345.22649 286.762714 
L 358.150469 295.155541 
L 378.416977 308.297526 
L 405.131347 325.510885 
L 420.061259 335.105025 
L 432.832988 343.404365 
L 444.369452 350.838946 
L 459.792214 360.802361 
L 486.938221 378.387333 
L 506.804484 391.223146 
L 506.845293 398.281441 
L 693.434656 418.406932 
L 717.022409 374.026147 
L 782.921519 419.734452 
L 806.154545 396.392997 
L 550.001087 227.589893 
L 543.34133 200.513618 
L 567.429781 142.020918 
L 628.618561 133.268164 
L 617.44938 101.741891 
L 570.063548 106.231622 
L 592.700132 36.611589 
L 555.056727 26.844498 
L 545.807151 47.608039 
L 501.037821 52.94383 
L 472.209217 49.994304 
L 470.402622 58.772766 
L 454.653386 58.522688 
L 454.964165 48.189998 
L 356.833586 42.470909 
L 334.528185 40.598825 
L 283.998471 84.558916 
L 275.582346 90.116739 
L 248.425352 96.226138 
L 239.635664 107.208564 
L 53.360219 135.507187 
L 45.245455 140.111439 
" clip-path="url(#pac44271f63)" style="fill: #f29888"/>
   </g>
   <g id="PatchCollection_2">
    <path d="M 758.348065 396.918863 
L 758.759297 398.970911 
L 757.549145 399.213978 
L 757.137913 397.16193 
L 758.348065 396.918863 
" clip-path="url(#pac44271f63)" style="fill: #f29888"/>
    <path d="M 455.02067 173.432669 
L 454.358304 174.486739 
L 455.17292 174.998582 
L 454.515263 176.043303 
L 453.645712 175.496402 
L 453.201518 176.202232 
L 450.644661 174.594249 
L 450.198899 175.302416 
L 447.00165 173.290101 
L 448.068969 171.593305 
L 449.024847 172.193962 
L 450.164368 170.380307 
L 455.02067 173.432669 
" clip-path="url(#pac44271f63)" style="fill: #f29888"/>
    <path d="M 473.428786 169.260796 
L 471.987905 171.177287 
L 470.402622 169.98766 
L 471.843503 168.068832 
L 473.428786 169.260796 
" clip-path="url(#pac44271f63)" style="fill: #f29888"/>
    <path d="M 455.367549 168.071169 
L 454.948469 168.655465 
L 455.300056 168.907881 
L 453.981603 170.744908 
L 452.167161 169.443096 
L 452.988055 168.297876 
L 452.507761 167.95431 
L 453.4244 166.67587 
L 455.367549 168.071169 
" clip-path="url(#pac44271f63)" style="fill: #f29888"/>
    <path d="M 477.500295 168.517571 
L 475.50221 170.088159 
L 474.295198 168.552629 
L 476.294852 166.982042 
L 477.500295 168.517571 
" clip-path="url(#pac44271f63)" style="fill: #f29888"/>
    <path d="M 474.037786 166.213108 
L 475.039182 167.601395 
L 473.722299 168.552629 
L 472.720902 167.164342 
L 474.037786 166.213108 
" clip-path="url(#pac44271f63)" style="fill: #f29888"/>
    <path d="M 468.906806 161.449927 
L 468.057659 162.106676 
L 467.513013 161.403184 
L 467.170843 161.667285 
L 466.144333 160.342102 
L 467.335649 159.418915 
L 468.906806 161.449927 
" clip-path="url(#pac44271f63)" style="fill: #f29888"/>
    <path d="M 470.270777 155.770571 
L 467.583644 157.923117 
L 466.795711 156.9415 
L 469.482844 154.786616 
L 470.270777 155.770571 
" clip-path="url(#pac44271f63)" style="fill: #f29888"/>
    <path d="M 416.391564 271.930945 
L 415.641302 273.162641 
L 413.971261 272.145966 
L 414.719954 270.91427 
L 416.391564 271.930945 
" clip-path="url(#pac44271f63)" style="fill: #f29888"/>
    <path d="M 423.807863 272.234779 
L 423.20985 273.162641 
L 420.938658 271.699564 
L 421.536671 270.771702 
L 423.807863 272.234779 
" clip-path="url(#pac44271f63)" style="fill: #f29888"/>
    <path d="M 426.13713 270.563693 
L 425.457499 271.559333 
L 422.45174 269.502611 
L 423.131371 268.506971 
L 426.13713 270.563693 
" clip-path="url(#pac44271f63)" style="fill: #f29888"/>
    <path d="M 426.760256 266.223542 
L 425.955058 267.380448 
L 424.482785 266.356762 
L 425.287983 265.199856 
L 426.760256 266.223542 
" clip-path="url(#pac44271f63)" style="fill: #f29888"/>
    <path d="M 420.478769 266.585806 
L 418.661187 265.695339 
L 419.18229 264.629583 
L 420.999872 265.52005 
L 420.478769 266.585806 
" clip-path="url(#pac44271f63)" style="fill: #f29888"/>
    <path d="M 422.497258 263.697047 
L 422.013825 264.370155 
L 420.612184 263.367504 
L 421.095617 262.692057 
L 422.497258 263.697047 
" clip-path="url(#pac44271f63)" style="fill: #f29888"/>
    <path d="M 416.077647 260.794264 
L 414.663449 260.0674 
L 415.052707 259.31249 
L 416.465335 260.041691 
L 416.077647 260.794264 
" clip-path="url(#pac44271f63)" style="fill: #f29888"/>
    <path d="M 414.481377 258.821681 
L 413.486259 260.453035 
L 411.458352 259.219002 
L 412.453471 257.585311 
L 414.481377 258.821681 
" clip-path="url(#pac44271f63)" style="fill: #f29888"/>
    <path d="M 425.093355 258.608997 
L 423.658752 257.755925 
L 424.215955 256.816377 
L 425.652128 257.667112 
L 425.093355 258.608997 
" clip-path="url(#pac44271f63)" style="fill: #f29888"/>
    <path d="M 436.714577 255.196709 
L 436.278232 255.855795 
L 435.190508 255.133605 
L 435.626853 254.474519 
L 436.714577 255.196709 
" clip-path="url(#pac44271f63)" style="fill: #f29888"/>
    <path d="M 400.741212 280.213925 
L 400.014494 281.426923 
L 397.777832 280.087717 
L 398.502981 278.874718 
L 400.741212 280.213925 
" clip-path="url(#pac44271f63)" style="fill: #f29888"/>
    <path d="M 402.178954 275.338559 
L 401.430261 276.600639 
L 399.793182 275.626033 
L 400.541875 274.366291 
L 402.178954 275.338559 
" clip-path="url(#pac44271f63)" style="fill: #f29888"/>
    <path d="M 404.260226 274.116212 
L 403.2965 275.572278 
L 401.530715 274.406023 
L 402.153841 273.464138 
L 402.922938 273.971307 
L 403.263539 273.454789 
L 404.260226 274.116212 
" clip-path="url(#pac44271f63)" style="fill: #f29888"/>
    <path d="M 406.361903 271.185384 
L 405.302432 272.865819 
L 403.911778 271.989375 
L 404.971249 270.306602 
L 406.361903 271.185384 
" clip-path="url(#pac44271f63)" style="fill: #f29888"/>
    <path d="M 408.295635 267.151404 
L 407.0588 268.782759 
L 406.241045 268.163405 
L 406.56438 267.7357 
L 405.344811 266.810175 
L 406.256741 265.606526 
L 408.295635 267.151404 
" clip-path="url(#pac44271f63)" style="fill: #f29888"/>
    <path d="M 383.847748 263.493712 
L 378.092072 272.709227 
L 371.480972 268.577086 
L 377.236647 259.363908 
L 383.847748 263.493712 
" clip-path="url(#pac44271f63)" style="fill: #f29888"/>
    <path d="M 410.218379 263.098727 
L 409.588974 264.108391 
L 408.04607 263.145471 
L 408.673905 262.135808 
L 410.218379 263.098727 
" clip-path="url(#pac44271f63)" style="fill: #f29888"/>
    <path d="M 408.424341 243.943169 
L 411.820927 238.289521 
L 410.919984 237.747294 
L 412.277677 235.487237 
L 415.095085 237.181696 
L 407.521828 249.790803 
L 404.961832 248.252936 
L 405.986772 246.546791 
L 402.910382 244.698079 
L 404.705989 241.711158 
L 408.424341 243.943169 
" clip-path="url(#pac44271f63)" style="fill: #f29888"/>
    <path d="M 404.908466 228.587871 
L 402.259003 231.06996 
L 400.954676 229.679336 
L 403.604139 227.194909 
L 404.908466 228.587871 
" clip-path="url(#pac44271f63)" style="fill: #f29888"/>
    <path d="M 419.176012 255.180349 
L 417.370987 254.292219 
L 417.785358 253.450833 
L 419.590383 254.338962 
L 419.176012 255.180349 
" clip-path="url(#pac44271f63)" style="fill: #f29888"/>
    <path d="M 417.73984 253.247498 
L 416.964464 254.591378 
L 415.027593 253.474204 
L 415.8014 252.130324 
L 417.73984 253.247498 
" clip-path="url(#pac44271f63)" style="fill: #f29888"/>
    <path d="M 434.576799 251.108974 
L 436.038085 252.256532 
L 435.719459 252.663202 
L 434.860894 253.757004 
L 433.398039 252.611784 
L 434.576799 251.108974 
" clip-path="url(#pac44271f63)" style="fill: #f29888"/>
    <path d="M 435.989428 249.449574 
L 437.596685 250.669584 
L 436.697311 251.854536 
L 435.088485 250.634526 
L 435.989428 249.449574 
" clip-path="url(#pac44271f63)" style="fill: #f29888"/>
    <path d="M 437.737947 246.595872 
L 442.339976 249.561759 
L 441.563031 250.765408 
L 436.961002 247.797185 
L 437.737947 246.595872 
" clip-path="url(#pac44271f63)" style="fill: #f29888"/>
    <path d="M 432.996225 248.954091 
L 431.385829 247.918718 
L 432.622663 245.995216 
L 434.23306 247.030588 
L 432.996225 248.954091 
" clip-path="url(#pac44271f63)" style="fill: #f29888"/>
    <path d="M 431.213174 214.541396 
L 428.79758 217.687245 
L 426.133991 215.639872 
L 428.548016 212.49636 
L 431.213174 214.541396 
" clip-path="url(#pac44271f63)" style="fill: #f29888"/>
    <path d="M 413.175481 214.162772 
L 408.666057 218.18974 
L 405.972646 215.172435 
L 410.482069 211.145468 
L 413.175481 214.162772 
" clip-path="url(#pac44271f63)" style="fill: #f29888"/>
    <path d="M 416.790239 205.648411 
L 418.87779 208.207627 
L 414.136068 212.078004 
L 412.048517 209.518788 
L 416.790239 205.648411 
" clip-path="url(#pac44271f63)" style="fill: #f29888"/>
    <path d="M 433.989774 209.530474 
L 432.530058 211.645625 
L 423.360531 205.318868 
L 424.821816 203.203717 
L 433.989774 209.530474 
" clip-path="url(#pac44271f63)" style="fill: #f29888"/>
    <path d="M 404.076585 218.351005 
L 405.245927 219.631782 
L 406.592633 221.106545 
L 402.835041 224.537531 
L 401.47264 223.046408 
L 400.318994 221.781991 
L 404.076585 218.351005 
" clip-path="url(#pac44271f63)" style="fill: #f29888"/>
    <path d="M 118.700556 152.285829 
L 118.917159 154.017683 
L 116.663232 154.298145 
L 116.446629 152.566292 
L 118.700556 152.285829 
" clip-path="url(#pac44271f63)" style="fill: #f29888"/>
    <path d="M 84.816312 141.625934 
L 85.353111 145.921678 
L 82.881011 146.230186 
L 82.344213 141.934442 
L 84.816312 141.625934 
" clip-path="url(#pac44271f63)" style="fill: #f29888"/>
    <path d="M 89.876661 140.698072 
L 90.507635 145.746389 
L 87.916247 146.071258 
L 87.285273 141.020603 
L 89.876661 140.698072 
" clip-path="url(#pac44271f63)" style="fill: #f29888"/>
    <path d="M 112.274667 138.804953 
L 112.740834 142.52575 
L 110.466503 142.808549 
L 110.001905 139.087752 
L 112.274667 138.804953 
" clip-path="url(#pac44271f63)" style="fill: #f29888"/>
    <path d="M 117.220436 137.493793 
L 117.466861 139.464039 
L 115.457789 139.714118 
L 115.211364 137.746209 
L 117.220436 137.493793 
" clip-path="url(#pac44271f63)" style="fill: #f29888"/>
    <path d="M 185.488052 136.776277 
L 185.830222 138.769895 
L 182.359865 139.365877 
L 182.016126 137.374596 
L 185.488052 136.776277 
" clip-path="url(#pac44271f63)" style="fill: #f29888"/>
    <path d="M 115.674392 133.237781 
L 115.801529 134.254456 
L 113.243102 134.57465 
L 113.115966 133.557975 
L 115.674392 133.237781 
" clip-path="url(#pac44271f63)" style="fill: #f29888"/>
    <path d="M 169.892636 127.838886 
L 169.61168 126.202858 
L 171.862468 125.817222 
L 171.652143 124.592538 
L 187.278951 121.907114 
L 187.461023 122.965858 
L 190.068107 122.517119 
L 190.341215 124.108741 
L 187.735701 124.55748 
L 187.972709 125.941093 
L 172.344331 128.626517 
L 172.143424 127.450914 
L 169.892636 127.838886 
" clip-path="url(#pac44271f63)" style="fill: #f29888"/>
    <path d="M 289.451216 105.584222 
L 288.821812 108.533748 
L 274.628037 105.149506 
L 275.522701 102.223351 
L 289.451216 105.584222 
" clip-path="url(#pac44271f63)" style="fill: #f29888"/>
    <path d="M 439.001465 195.339093 
L 442.104538 197.295316 
L 437.95612 203.619736 
L 435.345897 201.600409 
L 439.001465 195.339093 
" clip-path="url(#pac44271f63)" style="fill: #f29888"/>
    <path d="M 435.239165 191.800597 
L 428.632773 201.448492 
L 426.140269 199.742348 
L 432.746661 190.094453 
L 435.239165 191.800597 
" clip-path="url(#pac44271f63)" style="fill: #f29888"/>
    <path d="M 444.38044 193.684367 
L 442.104538 197.295316 
L 439.001465 195.339093 
L 438.354795 194.930086 
L 440.630696 191.321474 
L 444.38044 193.684367 
" clip-path="url(#pac44271f63)" style="fill: #f29888"/>
    <path d="M 439.274573 191.099442 
L 438.133483 193.058002 
L 436.198183 191.929142 
L 437.339272 189.970582 
L 439.274573 191.099442 
" clip-path="url(#pac44271f63)" style="fill: #f29888"/>
    <path d="M 261.112323 101.136561 
L 261.595756 103.506465 
L 258.017098 104.280073 
L 257.508551 101.765263 
L 261.112323 101.136561 
" clip-path="url(#pac44271f63)" style="fill: #f29888"/>
    <path d="M 270.106057 99.636089 
L 270.614603 102.104155 
L 266.794228 102.80531 
L 266.40654 100.313872 
L 270.106057 99.636089 
" clip-path="url(#pac44271f63)" style="fill: #f29888"/>
    <path d="M 345.45408 79.660178 
L 347.576162 81.153639 
L 346.044245 83.329557 
L 343.923733 81.838434 
L 345.45408 79.660178 
" clip-path="url(#pac44271f63)" style="fill: #f29888"/>
    <path d="M 345.388158 73.415223 
L 343.904898 75.184471 
L 333.652356 66.590646 
L 335.137185 64.819061 
L 345.388158 73.415223 
" clip-path="url(#pac44271f63)" style="fill: #f29888"/>
    <path d="M 328.221585 72.426594 
L 321.568105 63.407402 
L 323.547355 61.948999 
L 330.197695 70.968192 
L 328.221585 72.426594 
" clip-path="url(#pac44271f63)" style="fill: #f29888"/>
    <path d="M 333.398083 61.93965 
L 331.47063 64.564308 
L 328.235711 62.187392 
L 330.163164 59.562734 
L 333.398083 61.93965 
" clip-path="url(#pac44271f63)" style="fill: #f29888"/>
    <path d="M 329.513355 52.228652 
L 330.982488 54.212921 
L 324.416906 59.074263 
L 322.946203 57.087657 
L 329.513355 52.228652 
" clip-path="url(#pac44271f63)" style="fill: #f29888"/>
   </g>
   <g id="LineCollection_1">
    <path d="M 253.061912 240.43973 
L 248.76725 240.786277 
" clip-path="url(#pac44271f63)" style="fill: none; stroke: #f29888; stroke-width: 0.5"/>
    <path d="M 357.471397 294.714552 
L 357.667037 294.45906 
" clip-path="url(#pac44271f63)" style="fill: none; stroke: #f29888; stroke-width: 0.2"/>
    <path d="M 305.556748 261.013959 
L 305.502544 261.137202 
" clip-path="url(#pac44271f63)" style="fill: none; stroke: #f29888; stroke-width: 0.2"/>
    <path d="M 313.327723 266.173934 
L 313.462758 266.015533 
" clip-path="url(#pac44271f63)" style="fill: none; stroke: #f29888; stroke-width: 0.2"/>
    <path d="M 280.636416 226.341837 
L 275.918237 230.357119 
L 269.853353 237.553308 
L 263.791608 245.518431 
L 241.888022 270.526298 
" clip-path="url(#pac44271f63)" style="fill: none; stroke: #f29888; stroke-width: 0.2"/>
    <path d="M 293.948083 252.864199 
L 288.986619 253.656505 
L 284.285706 253.757004 
L 283.164759 253.527662 
" clip-path="url(#pac44271f63)" style="fill: none; stroke: #f29888; stroke-width: 0.5"/>
    <path d="M 279.667352 252.736088 
L 276.635539 251.840513 
L 263.791608 245.518431 
L 253.061912 240.43973 
" clip-path="url(#pac44271f63)" style="fill: none; stroke: #f29888; stroke-width: 0.5"/>
    <path d="M 342.511105 217.960696 
L 339.849085 221.473483 
L 332.953889 228.72109 
L 304.481581 260.312804 
" clip-path="url(#pac44271f63)" style="fill: none; stroke: #f29888; stroke-width: 0.2"/>
    <path d="M 287.38564 243.975889 
L 292.263916 239.336579 
L 316.061994 214.069285 
" clip-path="url(#pac44271f63)" style="fill: none; stroke: #f29888; stroke-width: 0.2"/>
    <path d="M 240.67787 233.654885 
L 273.47439 196.435232 
" clip-path="url(#pac44271f63)" style="fill: none; stroke: #f29888; stroke-width: 0.2"/>
    <path d="M 301.672021 203.107892 
L 286.553759 218.77871 
L 280.322498 225.018991 
" clip-path="url(#pac44271f63)" style="fill: none; stroke: #f29888; stroke-width: 0.2"/>
    <path d="M 695.146035 415.18694 
L 683.254314 413.823714 
L 662.432173 411.54496 
L 639.305879 408.885245 
L 624.470142 407.062241 
L 613.834621 405.739395 
L 586.217738 402.703393 
L 554.921743 399.265396 
L 534.499846 397.117524 
L 526.512218 396.238743 
L 519.20893 395.123906 
L 516.556328 394.511564 
L 514.274148 393.943628 
L 510.514988 392.113613 
L 505.591193 389.556734 
L 497.758954 384.702403 
L 487.28667 377.711886 
L 459.710596 359.921243 
L 444.449501 350.004572 
L 431.91321 341.852475 
L 418.127528 332.938455 
L 405.363646 324.788695 
L 391.730214 316.073337 
L 377.586665 307.037784 
L 357.667037 294.45906 
L 345.381879 286.512635 
L 323.253842 272.211407 
L 313.462758 266.015533 
L 305.556748 261.013959 
L 304.481581 260.312804 
L 301.271988 258.38361 
" clip-path="url(#pac44271f63)" style="fill: none; stroke: #f29888; stroke-width: 0.5"/>
    <path d="M 301.025952 258.235725 
L 300.538779 257.9429 
L 296.880072 255.425753 
L 293.948083 252.864199 
" clip-path="url(#pac44271f63)" style="fill: none; stroke: #f29888; stroke-width: 0.5"/>
    <path d="M 624.470142 407.062241 
L 624.02959 410.920916 
" clip-path="url(#pac44271f63)" style="fill: none; stroke: #f29888; stroke-width: 0.2"/>
    <path d="M 683.254314 413.823714 
L 691.654744 392.408098 
L 692.50703 389.921335 
" clip-path="url(#pac44271f63)" style="fill: none; stroke: #f29888; stroke-width: 0.2"/>
    <path d="M 671.058623 379.605005 
L 662.432173 411.54496 
" clip-path="url(#pac44271f63)" style="fill: none; stroke: #f29888; stroke-width: 0.2"/>
    <path d="M 654.038022 371.939042 
L 639.305879 408.885245 
" clip-path="url(#pac44271f63)" style="fill: none; stroke: #f29888; stroke-width: 0.2"/>
    <path d="M 650.341645 330.507784 
L 632.743435 366.773866 
L 622.310391 385.165166 
L 614.584883 403.203551 
L 613.834621 405.739395 
" clip-path="url(#pac44271f63)" style="fill: none; stroke: #f29888; stroke-width: 0.2"/>
    <path d="M 630.869348 317.975804 
L 618.074075 342.207727 
L 609.780378 357.960346 
L 590.849589 391.884569 
L 586.217738 402.703393 
" clip-path="url(#pac44271f63)" style="fill: none; stroke: #f29888; stroke-width: 0.2"/>
    <path d="M 514.274148 393.943628 
L 534.820042 358.465177 
L 551.24734 332.541134 
L 561.763572 317.033919 
" clip-path="url(#pac44271f63)" style="fill: none; stroke: #f29888; stroke-width: 0.2"/>
    <path d="M 611.4049 305.369035 
L 594.429817 334.08835 
L 585.399983 348.564867 
L 566.773694 378.429402 
L 562.38199 384.807577 
L 558.297924 391.690583 
L 554.921743 399.265396 
" clip-path="url(#pac44271f63)" style="fill: none; stroke: #f29888; stroke-width: 0.2"/>
    <path d="M 614.584883 403.203551 
L 590.849589 391.884569 
L 566.773694 378.429402 
L 534.820042 358.465177 
L 510.20264 342.890184 
L 482.144703 325.136936 
L 468.410816 316.447286 
L 455.483698 308.255457 
L 441.952289 300.15244 
L 428.435005 291.605359 
L 412.434636 281.034276 
" clip-path="url(#pac44271f63)" style="fill: none; stroke: #f29888; stroke-width: 0.2"/>
    <path d="M 377.271052 307.554441 
L 377.586665 307.037784 
" clip-path="url(#pac44271f63)" style="fill: none; stroke: #f29888; stroke-width: 0.2"/>
    <path d="M 448.33266 345.087137 
L 436.027098 336.051584 
L 423.17218 327.153925 
L 410.224657 318.080978 
L 394.043785 307.874496 
L 382.092949 299.762131 
" clip-path="url(#pac44271f63)" style="fill: none; stroke: #f29888; stroke-width: 0.2"/>
    <path d="M 524.674232 259.102143 
L 521.853684 261.796916 
L 513.908435 274.887483 
L 498.113681 299.663969 
L 482.144703 325.136936 
L 459.710596 359.921243 
" clip-path="url(#pac44271f63)" style="fill: none; stroke: #f29888; stroke-width: 0.2"/>
    <path d="M 444.449501 350.004572 
L 445.63454 348.455019 
L 448.33266 345.087137 
L 468.410816 316.447286 
L 485.051578 291.09819 
L 501.212045 266.714351 
" clip-path="url(#pac44271f63)" style="fill: none; stroke: #f29888; stroke-width: 0.2"/>
    <path d="M 418.127528 332.938455 
L 423.17218 327.153925 
L 441.952289 300.15244 
L 458.884993 275.887798 
L 476.192829 250.699967 
" clip-path="url(#pac44271f63)" style="fill: none; stroke: #f29888; stroke-width: 0.2"/>
    <path d="M 507.141945 232.320353 
L 504.076542 235.344669 
L 487.920783 258.940877 
L 471.524877 283.67062 
L 455.483698 308.255457 
L 436.027098 336.051584 
L 431.91321 341.852475 
" clip-path="url(#pac44271f63)" style="fill: none; stroke: #f29888; stroke-width: 0.2"/>
    <path d="M 482.279687 214.644232 
L 462.884301 241.954225 
L 445.104019 267.625853 
L 428.435005 291.605359 
L 410.224657 318.080978 
L 405.363646 324.788695 
" clip-path="url(#pac44271f63)" style="fill: none; stroke: #f29888; stroke-width: 0.2"/>
    <path d="M 394.043785 307.874496 
L 412.434636 281.034276 
L 427.741248 257.314197 
L 446.226274 231.56778 
L 464.679908 202.750303 
" clip-path="url(#pac44271f63)" style="fill: none; stroke: #f29888; stroke-width: 0.2"/>
    <path d="M 446.946714 192.258685 
L 429.916695 220.667155 
L 413.3293 249.049915 
L 399.841839 273.066817 
L 382.092949 299.762131 
L 377.586665 307.037784 
" clip-path="url(#pac44271f63)" style="fill: none; stroke: #f29888; stroke-width: 0.2"/>
    <path d="M 345.381879 286.512635 
L 384.852283 243.281746 
L 416.94092 212.288351 
L 425.410411 199.031844 
L 435.801077 184.725941 
" clip-path="url(#pac44271f63)" style="fill: none; stroke: #f29888; stroke-width: 0.2"/>
    <path d="M 487.28667 377.711886 
L 489.802718 373.920974 
L 510.20264 342.890184 
L 524.995997 316.928746 
L 541.219248 294.468409 
" clip-path="url(#pac44271f63)" style="fill: none; stroke: #f29888; stroke-width: 0.2"/>
    <path d="M 671.058623 379.605005 
L 658.928855 371.651569 
L 654.038022 371.939042 
L 632.743435 366.773866 
L 609.780378 357.960346 
L 585.399983 348.564867 
L 581.297083 347.686085 
L 551.24734 332.541134 
L 524.995997 316.928746 
L 501.061365 301.59682 
L 498.113681 299.663969 
L 485.051578 291.09819 
L 471.524877 283.67062 
L 458.884993 275.887798 
L 445.104019 267.625853 
L 427.741248 257.314197 
L 413.3293 249.049915 
" clip-path="url(#pac44271f63)" style="fill: none; stroke: #f29888; stroke-width: 0.2"/>
    <path d="M 590.559215 291.941913 
L 611.4049 305.369035 
L 630.869348 317.975804 
L 650.341645 330.507784 
" clip-path="url(#pac44271f63)" style="fill: none; stroke: #f29888; stroke-width: 0.2"/>
    <path d="M 570.17185 321.993423 
L 590.559215 291.941913 
" clip-path="url(#pac44271f63)" style="fill: none; stroke: #f29888; stroke-width: 0.2"/>
    <path d="M 618.074075 342.207727 
L 594.429817 334.08835 
L 570.17185 321.993423 
L 561.763572 317.033919 
L 541.219248 294.468409 
L 527.960947 284.963082 
L 513.908435 274.887483 
L 501.212045 266.714351 
L 487.920783 258.940877 
L 476.192829 250.699967 
L 462.884301 241.954225 
L 446.226274 231.56778 
L 429.916695 220.667155 
L 416.94092 212.288351 
" clip-path="url(#pac44271f63)" style="fill: none; stroke: #f29888; stroke-width: 0.2"/>
    <path d="M 525.286371 211.325431 
L 530.506817 197.680951 
L 535.204591 183.370375 
L 541.660302 163.878261 
" clip-path="url(#pac44271f63)" style="fill: none; stroke: #f29888; stroke-width: 0.2"/>
    <path d="M 541.660302 163.878261 
L 546.601362 152.860777 
L 556.568239 144.241243 
L 566.340488 139.576224 
L 567.363859 130.631821 
L 571.193651 110.59047 
L 581.972005 117.662788 
" clip-path="url(#pac44271f63)" style="fill: none; stroke: #f29888; stroke-width: 0.2"/>
    <path d="M 567.363859 130.631821 
L 620.365672 124.735106 
" clip-path="url(#pac44271f63)" style="fill: none; stroke: #f29888; stroke-width: 0.2"/>
    <path d="M 494.404747 133.144294 
L 540.881787 62.771688 
L 571.087569 31.003917 
" clip-path="url(#pac44271f63)" style="fill: none; stroke: #f29888; stroke-width: 0.2"/>
    <path d="M 627.408564 129.852812 
L 623.183081 130.589752 
L 617.818233 133.333606 
L 566.340488 139.576224 
" clip-path="url(#pac44271f63)" style="fill: none; stroke: #f29888; stroke-width: 0.2"/>
    <path d="M 283.777159 189.596632 
L 301.672021 203.107892 
L 316.061994 214.069285 
L 332.953889 228.72109 
" clip-path="url(#pac44271f63)" style="fill: none; stroke: #f29888; stroke-width: 0.2"/>
    <path d="M 78.983739 158.989243 
L 82.946934 158.893048 
L 88.523677 159.676005 
L 94.654483 162.172117 
L 119.468084 174.400263 
L 210.38955 218.982045 
L 223.420261 224.710483 
L 240.67787 233.654885 
L 251.823507 239.904515 
L 253.061912 240.43973 
" clip-path="url(#pac44271f63)" style="fill: none; stroke: #f29888; stroke-width: 0.2"/>
    <path d="M 223.420261 224.710483 
L 245.350531 199.28426 
L 268.625936 174.556854 
" clip-path="url(#pac44271f63)" style="fill: none; stroke: #f29888; stroke-width: 0.2"/>
    <path d="M 264.705108 158.175533 
L 274.398877 158.280706 
L 276.875685 159.496042 
L 278.903592 161.312033 
L 294.122307 174.115127 
L 312.748596 191.323811 
L 342.511105 217.960696 
L 346.657953 221.307543 
L 359.219358 232.427864 
L 362.695993 235.770037 
" clip-path="url(#pac44271f63)" style="fill: none; stroke: #f29888; stroke-width: 0.2"/>
    <path d="M 268.625936 174.556854 
L 274.062985 182.486919 
L 278.272618 186.025416 
L 283.777159 189.596632 
" clip-path="url(#pac44271f63)" style="fill: none; stroke: #f29888; stroke-width: 0.2"/>
    <path d="M 293.948083 252.864199 
L 290.017837 248.077647 
L 287.38564 243.975889 
L 285.050094 239.280487 
L 282.945278 233.806802 
L 280.636416 226.341837 
L 280.322498 225.018991 
L 273.47439 196.435232 
L 268.625936 174.556854 
L 264.705108 158.175533 
L 253.597141 109.714026 
L 252.033832 102.989948 
L 250.567838 96.632808 
" clip-path="url(#pac44271f63)" style="fill: none; stroke: #f29888; stroke-width: 0.5"/>
    <path d="M 339.150619 155.356889 
L 326.710072 173.958535 
L 312.748596 191.323811 
" clip-path="url(#pac44271f63)" style="fill: none; stroke: #f29888; stroke-width: 0.2"/>
    <path d="M 308.997283 159.411903 
L 297.360365 169.9713 
L 294.122307 174.115127 
" clip-path="url(#pac44271f63)" style="fill: none; stroke: #f29888; stroke-width: 0.2"/>
    <path d="M 112.550914 137.042716 
L 114.046731 145.122361 
L 116.699333 159.451635 
L 119.468084 174.400263 
" clip-path="url(#pac44271f63)" style="fill: none; stroke: #f29888; stroke-width: 0.2"/>
    <path d="M 94.654483 162.172117 
L 93.22302 148.167712 
L 93.816324 144.365113 
L 95.558566 141.789537 
L 99.521773 140.048335 
L 112.550914 137.042716 
" clip-path="url(#pac44271f63)" style="fill: none; stroke: #f29888; stroke-width: 0.2"/>
    <path d="M 419.304718 174.834979 
L 414.732511 182.769718 
L 405.61635 196.164119 
L 362.695993 235.770037 
L 324.876795 269.002454 
L 323.253842 272.211407 
" clip-path="url(#pac44271f63)" style="fill: none; stroke: #f29888; stroke-width: 0.2"/>
    <path d="M 380.49511 148.431813 
L 393.175803 157.425297 
L 407.961313 167.503234 
L 419.304718 174.834979 
L 435.801077 184.725941 
L 446.946714 192.258685 
L 464.679908 202.750303 
L 482.279687 214.644232 
L 504.076542 235.344669 
" clip-path="url(#pac44271f63)" style="fill: none; stroke: #f29888; stroke-width: 0.2"/>
    <path d="M 393.175803 157.425297 
L 375.695313 180.703648 
L 360.190932 202.47919 
L 346.657953 221.307543 
" clip-path="url(#pac44271f63)" style="fill: none; stroke: #f29888; stroke-width: 0.2"/>
    <path d="M 326.710072 173.958535 
L 360.190932 202.47919 
" clip-path="url(#pac44271f63)" style="fill: none; stroke: #f29888; stroke-width: 0.2"/>
    <path d="M 525.286371 211.325431 
L 454.998696 163.116339 
L 446.063037 155.501794 
L 436.742829 150.460489 
" clip-path="url(#pac44271f63)" style="fill: none; stroke: #f29888; stroke-width: 0.2"/>
    <path d="M 375.695313 180.703648 
L 346.387984 160.222906 
L 339.150619 155.356889 
" clip-path="url(#pac44271f63)" style="fill: none; stroke: #f29888; stroke-width: 0.2"/>
    <path d="M 494.404747 133.144294 
L 476.990179 146.389115 
L 454.998696 163.116339 
" clip-path="url(#pac44271f63)" style="fill: none; stroke: #f29888; stroke-width: 0.2"/>
    <path d="M 460.724549 110.749398 
L 454.064791 117.947924 
L 448.979329 127.492983 
L 436.742829 150.460489 
" clip-path="url(#pac44271f63)" style="fill: none; stroke: #f29888; stroke-width: 0.2"/>
    <path d="M 535.204591 183.370375 
L 476.990179 146.389115 
L 448.979329 127.492983 
L 393.701615 90.205552 
L 367.137925 74.714697 
L 363.860627 73.543768 
L 360.559785 73.8663 
" clip-path="url(#pac44271f63)" style="fill: none; stroke: #f29888; stroke-width: 0.2"/>
    <path d="M 436.742829 150.460489 
L 421.320067 143.584494 
L 358.329402 102.517836 
L 351.638253 98.023432 
" clip-path="url(#pac44271f63)" style="fill: none; stroke: #f29888; stroke-width: 0.2"/>
    <path d="M 541.660302 163.878261 
L 494.404747 133.144294 
L 460.724549 110.749398 
L 367.348249 52.448347 
L 363.154313 51.46673 
" clip-path="url(#pac44271f63)" style="fill: none; stroke: #f29888; stroke-width: 0.2"/>
    <path d="M 460.724549 110.749398 
L 461.757337 109.828548 
L 499.568889 52.79354 
" clip-path="url(#pac44271f63)" style="fill: none; stroke: #f29888; stroke-width: 0.2"/>
    <path d="M 357.345271 88.249329 
L 355.483741 87.008284 
L 344.269042 77.615143 
L 348.22754 63.977675 
L 340.902278 60.693931 
" clip-path="url(#pac44271f63)" style="fill: none; stroke: #f29888; stroke-width: 0.2"/>
    <path d="M 349.707661 54.708404 
L 351.44259 42.018445 
" clip-path="url(#pac44271f63)" style="fill: none; stroke: #f29888; stroke-width: 0.2"/>
    <path d="M 252.033832 102.989948 
L 244.845124 107.133775 
L 237.468065 109.94307 
L 227.206105 111.798794 
L 216.368107 113.434822 
L 172.192081 121.021321 
L 164.552901 122.002938 
L 161.875186 122.311447 
L 158.309084 122.879382 
L 154.813614 123.211262 
L 150.657347 124.061997 
L 145.74611 125.382506 
L 142.393472 126.090673 
L 139.32336 126.588493 
L 136.110415 127.154091 
L 130.324917 127.909002 
L 122.842696 128.743377 
L 110.964062 130.526648 
L 103.819302 131.756006 
L 90.788591 134.25913 
L 77.046857 135.993321 
L 64.308089 137.785941 
L 54.356907 139.291087 
L 49.991886 139.12281 
L 47.205833 138.999136 
" clip-path="url(#pac44271f63)" style="fill: none; stroke: #f29888; stroke-width: 0.2"/>
    <path d="M 351.638253 98.023432 
L 343.650625 110.162765 
L 343.035347 110.999477 
L 340.345075 114.486555 
L 338.215145 116.685845 
L 335.738337 117.742252 
L 332.439065 117.81003 
L 328.132118 117.001365 
L 304.45019 110.581121 
L 299.794795 108.409877 
L 284.255883 97.408753 
L 280.683503 94.774746 
L 277.0091 93.496307 
L 273.253079 93.229868 
L 250.567838 96.632808 
" clip-path="url(#pac44271f63)" style="fill: none; stroke: #f29888; stroke-width: 0.2"/>
    <path d="M 250.567838 96.632808 
L 250.352395 95.792619 
" clip-path="url(#pac44271f63)" style="fill: none; stroke: #f29888; stroke-width: 0.5"/>
    <path d="M 344.269042 77.615143 
L 331.723333 68.439359 
L 325.914292 61.114625 
" clip-path="url(#pac44271f63)" style="fill: none; stroke: #f29888; stroke-width: 0.2"/>
    <path d="M 362.239244 59.366411 
L 350.652552 55.037947 
L 349.707661 54.708404 
L 330.696823 48.052104 
L 327.526708 46.690005 
" clip-path="url(#pac44271f63)" style="fill: none; stroke: #f29888; stroke-width: 0.2"/>
    <path d="M 591.195708 36.221246 
L 584.946726 60.457607 
" clip-path="url(#pac44271f63)" style="fill: none; stroke: #f29888; stroke-width: 0.2"/>
    <path d="M 572.485726 106.002124 
L 571.193651 110.59047 
" clip-path="url(#pac44271f63)" style="fill: none; stroke: #f29888; stroke-width: 0.2"/>
    <path d="M 363.946324 42.885442 
L 363.154313 51.46673 
L 362.239244 59.366411 
L 360.559785 73.8663 
L 359.566237 80.742295 
L 358.459678 85.54287 
L 357.345271 88.249329 
L 356.830447 89.497385 
L 354.7272 93.423854 
L 351.638253 98.023432 
" clip-path="url(#pac44271f63)" style="fill: none; stroke: #f29888; stroke-width: 0.2"/>
   </g>
   <g id="LineCollection_2">
    <path d="M 390.287763 142.273334 
L 394.32945 146.061909 
L 444.344339 180.159084 
L 527.975073 235.288577 
L 710.32969 356.226155 
L 714.181456 359.005067 
L 719.401903 363.595296 
L 728.095845 370.457268 
L 735.568649 377.959628 
L 740.844031 383.501091 
L 744.314388 387.500012 
L 747.029773 391.185751 
L 749.071806 394.974326 
L 750.033614 396.923061 
" clip-path="url(#pac44271f63)" style="fill: none; stroke-dasharray: 3.7,1.6; stroke-dashoffset: 0; stroke: #f29888"/>
    <path d="M 786.79369 405.589815 
L 792.34218 408.300949 
" clip-path="url(#pac44271f63)" style="fill: none; stroke-dasharray: 3.7,1.6; stroke-dashoffset: 0; stroke: #f29888"/>
    <path d="M 734.116781 375.068531 
L 742.06203 381.678087 
L 744.41955 384.09941 
L 749.534834 390.942684 
L 752.755626 396.500507 
L 754.082868 399.731665 
" clip-path="url(#pac44271f63)" style="fill: none; stroke-dasharray: 3.7,1.6; stroke-dashoffset: 0; stroke: #f29888"/>
    <path d="M 728.095845 370.457268 
L 734.116781 375.068531 
L 738.431575 377.931582 
L 779.444884 400.819623 
" clip-path="url(#pac44271f63)" style="fill: none; stroke-dasharray: 3.7,1.6; stroke-dashoffset: 0; stroke: #f29888"/>
    <path d="M 688.091781 339.057203 
L 695.076444 344.970278 
" clip-path="url(#pac44271f63)" style="fill: none; stroke-dasharray: 3.7,1.6; stroke-dashoffset: 0; stroke: #f29888"/>
    <path d="M 527.975073 235.288577 
L 534.584604 240.572949 
L 544.246982 247.224575 
L 719.401903 363.595296 
" clip-path="url(#pac44271f63)" style="fill: none; stroke-dasharray: 3.7,1.6; stroke-dashoffset: 0; stroke: #f29888"/>
    <path d="M 544.246982 247.224575 
L 550.404471 252.82213 
L 582.147799 273.873145 
" clip-path="url(#pac44271f63)" style="fill: none; stroke-dasharray: 3.7,1.6; stroke-dashoffset: 0; stroke: #f29888"/>
    <path d="M 624.071467 294.842359 
L 615.521927 287.84483 
L 494.759473 207.518158 
L 464.657934 187.899837 
L 456.69385 183.851835 
" clip-path="url(#pac44271f63)" style="fill: none; stroke-dasharray: 3.7,1.6; stroke-dashoffset: 0; stroke: #f29888"/>
    <path d="M 510.188513 224.701134 
L 513.745198 227.774531 
L 515.008715 229.078679 
L 517.513776 232.088972 
L 519.124172 234.267227 
L 520.850718 237.034453 
L 523.901995 242.529172 
L 528.722197 251.770397 
" clip-path="url(#pac44271f63)" style="fill: none; stroke-dasharray: 3.7,1.6; stroke-dashoffset: 0; stroke: #f29888"/>
    <path d="M 517.176315 229.35213 
L 523.249047 234.80478 
L 527.60622 237.98335 
" clip-path="url(#pac44271f63)" style="fill: none; stroke-dasharray: 3.7,1.6; stroke-dashoffset: 0; stroke: #f29888"/>
    <path d="M 642.214323 308.472815 
L 632.021425 300.185161 
L 624.071467 294.842359 
L 456.69385 183.851835 
L 446.072454 176.868329 
L 401.841493 147.284256 
L 390.978381 141.282368 
" clip-path="url(#pac44271f63)" style="fill: none; stroke-dasharray: 3.7,1.6; stroke-dashoffset: 0; stroke: #f29888"/>
    <path d="M 494.759473 207.518158 
L 504.694959 212.823566 
L 527.1118 227.379547 
" clip-path="url(#pac44271f63)" style="fill: none; stroke-dasharray: 3.7,1.6; stroke-dashoffset: 0; stroke: #f29888"/>
    <path d="M 394.32945 146.061909 
L 401.234063 152.059123 
L 409.044328 158.500401 
L 443.650582 181.297293 
L 478.002563 203.355634 
L 490.085243 211.164165 
L 510.188513 224.701134 
L 517.176315 229.35213 
L 534.584604 240.572949 
" clip-path="url(#pac44271f63)" style="fill: none; stroke-dasharray: 3.7,1.6; stroke-dashoffset: 0; stroke: #f29888"/>
    <path d="M 409.044328 158.500401 
L 416.832618 164.773403 
L 442.912876 182.433164 
L 451.438872 188.7272 
L 458.258728 192.915434 
L 470.656895 199.756371 
L 478.002563 203.355634 
" clip-path="url(#pac44271f63)" style="fill: none; stroke-dasharray: 3.7,1.6; stroke-dashoffset: 0; stroke: #f29888"/>
    <path d="M 401.234063 152.059123 
L 386.326126 141.971837 
L 374.133574 134.254456 
L 371.096423 132.595055 
L 367.012358 130.606112 
L 357.210287 126.532401 
L 350.153424 123.842302 
L 347.028376 122.909766 
L 307.587794 113.722296 
L 291.676891 110.665259 
L 282.913887 108.416889 
L 277.062466 107.575502 
L 271.294234 107.446957 
L 262.705454 108.290681 
L 253.597141 109.714026 
L 120.089641 130.930981 
L 105.489342 133.242455 
L 96.451661 135.610023 
L 91.678547 136.797312 
L 86.456531 138.32583 
L 81.132492 140.34282 
L 49.732957 152.303421 
" clip-path="url(#pac44271f63)" style="fill: none; stroke-dasharray: 3.7,1.6; stroke-dashoffset: 0; stroke: #f29888"/>
    <path d="M 386.326126 141.971837 
L 389.772939 145.124698 
L 394.340437 150.133283 
L 400.045885 156.280077 
L 403.349866 158.97485 
" clip-path="url(#pac44271f63)" style="fill: none; stroke-dasharray: 3.7,1.6; stroke-dashoffset: 0; stroke: #f29888"/>
    <path d="M 51.451785 152.696292 
L 72.617482 144.839562 
L 81.132492 140.34282 
" clip-path="url(#pac44271f63)" style="fill: none; stroke-dasharray: 3.7,1.6; stroke-dashoffset: 0; stroke: #f29888"/>
    <path d="M 394.340437 150.133283 
L 389.562614 145.966084 
L 383.836761 142.471994 
" clip-path="url(#pac44271f63)" style="fill: none; stroke-dasharray: 3.7,1.6; stroke-dashoffset: 0; stroke: #f29888"/>
    <path d="M 401.841493 147.284256 
L 376.913312 130.729983 
" clip-path="url(#pac44271f63)" style="fill: none; stroke-dasharray: 3.7,1.6; stroke-dashoffset: 0; stroke: #f29888"/>
    <path d="M 96.451661 135.610023 
L 116.871987 132.410418 
" clip-path="url(#pac44271f63)" style="fill: none; stroke-dasharray: 3.7,1.6; stroke-dashoffset: 0; stroke: #f29888"/>
    <path d="M 373.092938 129.545031 
L 379.708747 135.074808 
" clip-path="url(#pac44271f63)" style="fill: none; stroke-dasharray: 3.7,1.6; stroke-dashoffset: 0; stroke: #f29888"/>
    <path d="M 357.210287 126.532401 
L 349.883455 124.833268 
L 332.833031 121.107797 
L 288.796699 114.624449 
L 280.207919 114.834795 
L 272.378819 114.456172 
L 264.778878 113.63582 
" clip-path="url(#pac44271f63)" style="fill: none; stroke-dasharray: 3.7,1.6; stroke-dashoffset: 0; stroke: #f29888"/>
    <path d="M 296.838143 73.388594 
L 297.562842 74.191168 
L 306.438856 82.897178 
L 315.878353 91.182495 
L 325.153042 98.425428 
L 331.938367 103.609301 
L 343.035347 110.999477 
L 379.708747 135.074808 
L 390.287763 142.273334 
L 443.548558 178.523055 
L 444.849746 179.397162 
L 620.048616 295.038682 
L 695.076444 344.970278 
L 779.444884 400.819623 
L 786.79369 405.589815 
L 792.934455 409.674785 
" clip-path="url(#pac44271f63)" style="fill: none; stroke-dasharray: 3.7,1.6; stroke-dashoffset: 0; stroke: #f29888"/>
    <path d="M 793.521674 409.084826 
L 792.34218 408.300949 
L 688.091781 339.057203 
L 642.214323 308.472815 
L 445.425785 177.854621 
L 444.476184 177.21657 
L 390.978381 141.282368 
L 373.092938 129.545031 
L 343.650625 110.162765 
L 329.692288 100.596671 
L 321.889871 94.697619 
L 316.364924 90.247621 
L 306.99606 82.291847 
L 298.038427 73.555454 
L 297.457625 72.849654 
" clip-path="url(#pac44271f63)" style="fill: none; stroke-dasharray: 3.7,1.6; stroke-dashoffset: 0; stroke: #f29888"/>
   </g>
  </g>
 </g>
 <defs>
  <clipPath id="pac44271f63">
   <rect x="7.2" y="7.2" width="837" height="432.17895"/>
  </clipPath>
 </defs>
</svg>
