<?xml version="1.0" encoding="utf-8" standalone="no"?>
<!DOCTYPE svg PUBLIC "-//W3C//DTD SVG 1.1//EN"
  "http://www.w3.org/Graphics/SVG/1.1/DTD/svg11.dtd">
<svg xmlns:xlink="http://www.w3.org/1999/xlink" width="750.968029pt" height="846pt" viewBox="0 0 750.968029 846" xmlns="http://www.w3.org/2000/svg" version="1.1">
 <metadata>
  <rdf:RDF xmlns:dc="http://purl.org/dc/elements/1.1/" xmlns:cc="http://creativecommons.org/ns#" xmlns:rdf="http://www.w3.org/1999/02/22-rdf-syntax-ns#">
   <cc:Work>
    <dc:type rdf:resource="http://purl.org/dc/dcmitype/StillImage"/>
    <dc:date>2025-03-16T14:30:03.876012</dc:date>
    <dc:format>image/svg+xml</dc:format>
    <dc:creator>
     <cc:Agent>
      <dc:title>Matplotlib v3.10.1, https://matplotlib.org/</dc:title>
     </cc:Agent>
    </dc:creator>
   </cc:Work>
  </rdf:RDF>
 </metadata>
 <defs>
  <style type="text/css">*{stroke-linejoin: round; stroke-linecap: butt}</style>
 </defs>
 <g id="figure_1">
  <g id="patch_1">
   <path d="M 0 846 
L 750.968029 846 
L 750.968029 0 
L 0 0 
z
" style="fill: #ffffff"/>
  </g>
  <g id="axes_1">
   <g id="PatchCollection_1">
    <path d="M 603.217812 589.239988 
L 604.77936 566.453719 
L 595.269562 535.246126 
L 583.122057 454.384231 
L 586.918951 412.248968 
L 635.50578 419.080552 
L 640.4427 428.953169 
L 698.140158 430.08938 
L 709.907655 406.935513 
L 701.933859 365.93646 
L 710.287664 337.46914 
L 692.446414 239.153526 
L 687.509494 222.072178 
L 631.708886 226.249422 
L 629.812036 208.40901 
L 572.114577 154.887773 
L 541.365804 137.8112 
L 499.992754 136.670216 
L 410.026488 94.157807 
L 313.861928 45 
L 252.128074 168.994923 
L 81.296591 153.818399 
L 40.680365 369.421475 
L 171.419332 374.386428 
L 152.629657 508.330353 
L 149.407566 778.925056 
L 337.144647 801 
L 560.727089 801 
L 567.180851 750.123555 
L 556.170178 739.491873 
L 559.967072 706.083469 
L 551.996469 700.01095 
L 553.893319 684.442958 
L 566.420833 664.702497 
L 603.217812 589.239988 
" clip-path="url(#p889febf709)" style="fill: #f29888"/>
   </g>
   <g id="PatchCollection_2">
    <path d="M 261.047103 531.517637 
L 264.483148 548.355511 
L 259.686735 549.33418 
L 256.25069 532.496306 
L 261.047103 531.517637 
" clip-path="url(#p889febf709)" style="fill: #f29888"/>
    <path d="M 248.535555 529.450498 
L 249.471207 534.257909 
L 230.483544 537.95298 
L 229.547892 533.150343 
L 248.535555 529.450498 
" clip-path="url(#p889febf709)" style="fill: #f29888"/>
    <path d="M 275.481047 494.065661 
L 274.941371 502.673171 
L 270.307819 502.381957 
L 270.847496 493.774448 
L 275.481047 494.065661 
" clip-path="url(#p889febf709)" style="fill: #f29888"/>
    <path d="M 262.599071 480.81783 
L 261.264251 497.760732 
L 255.155371 497.278559 
L 256.486998 480.335657 
L 262.599071 480.81783 
" clip-path="url(#p889febf709)" style="fill: #f29888"/>
    <path d="M 276.499726 481.662827 
L 275.886603 489.683136 
L 271.278598 489.32986 
L 271.888528 481.309552 
L 276.499726 481.662827 
" clip-path="url(#p889febf709)" style="fill: #f29888"/>
    <path d="M 250.898634 480.178115 
L 250.457952 486.207669 
L 233.632188 484.985526 
L 234.069677 478.955973 
L 250.898634 480.178115 
" clip-path="url(#p889febf709)" style="fill: #f29888"/>
    <path d="M 228.126851 478.072784 
L 227.574402 484.589285 
L 212.546494 483.309855 
L 213.102137 476.793354 
L 228.126851 478.072784 
" clip-path="url(#p889febf709)" style="fill: #f29888"/>
    <path d="M 277.575885 465.870458 
L 277.20865 473.131702 
L 272.405851 472.888228 
L 272.776279 465.626984 
L 277.575885 465.870458 
" clip-path="url(#p889febf709)" style="fill: #f29888"/>
    <path d="M 251.288223 465.307127 
L 250.815607 471.74247 
L 235.711059 470.639677 
L 236.180482 464.19956 
L 251.288223 465.307127 
" clip-path="url(#p889febf709)" style="fill: #f29888"/>
    <path d="M 230.473964 464.237752 
L 229.985381 470.300724 
L 215.704718 469.150191 
L 216.1933 463.08722 
L 230.473964 464.237752 
" clip-path="url(#p889febf709)" style="fill: #f29888"/>
    <path d="M 188.48779 504.463418 
L 188.245096 509.390179 
L 184.256601 509.189672 
L 184.499296 504.262911 
L 188.48779 504.463418 
" clip-path="url(#p889febf709)" style="fill: #f29888"/>
    <path d="M 189.171168 495.111166 
L 189.06898 499.698973 
L 184.719637 499.603493 
L 184.821824 495.015686 
L 189.171168 495.111166 
" clip-path="url(#p889febf709)" style="fill: #f29888"/>
    <path d="M 190.308 483.209601 
L 189.758744 489.68791 
L 182.937747 489.110257 
L 183.193215 486.069223 
L 185.508394 486.264957 
L 185.798989 482.827682 
L 190.308 483.209601 
" clip-path="url(#p889febf709)" style="fill: #f29888"/>
    <path d="M 190.480441 473.89554 
L 190.237747 480.230629 
L 186.262025 480.082636 
L 186.501526 473.742773 
L 190.480441 473.89554 
" clip-path="url(#p889febf709)" style="fill: #f29888"/>
    <path d="M 191.885516 457.191339 
L 191.256425 464.953851 
L 187.414825 464.643542 
L 188.043915 456.881029 
L 191.885516 457.191339 
" clip-path="url(#p889febf709)" style="fill: #f29888"/>
    <path d="M 210.755024 447.228015 
L 210.496363 451.505513 
L 208.76876 451.400485 
L 207.995969 464.123177 
L 209.717185 464.228204 
L 209.484071 468.104687 
L 201.820029 467.636836 
L 203.084596 446.764938 
L 210.755024 447.228015 
" clip-path="url(#p889febf709)" style="fill: #f29888"/>
    <path d="M 192.703013 440.415527 
L 192.495445 448.631569 
L 188.564431 448.536089 
L 188.771999 440.320047 
L 192.703013 440.415527 
" clip-path="url(#p889febf709)" style="fill: #f29888"/>
    <path d="M 195.608962 404.405297 
L 195.379041 408.200621 
L 191.304326 407.952374 
L 191.534247 404.161823 
L 195.608962 404.405297 
" clip-path="url(#p889febf709)" style="fill: #f29888"/>
    <path d="M 215.490763 384.941727 
L 215.193782 389.52476 
L 213.6482 389.424506 
L 213.325671 394.446747 
L 214.967054 394.551775 
L 214.794613 397.249081 
L 213.261804 397.153601 
L 212.964823 401.765279 
L 214.852093 401.884629 
L 214.567885 406.305346 
L 205.862811 405.746789 
L 207.232758 384.411814 
L 215.490763 384.941727 
" clip-path="url(#p889febf709)" style="fill: #f29888"/>
    <path d="M 187.443565 382.101201 
L 186.54304 389.352897 
L 178.629917 388.374228 
L 179.533635 381.117758 
L 187.443565 382.101201 
" clip-path="url(#p889febf709)" style="fill: #f29888"/>
    <path d="M 263.64649 472.563596 
L 255.899422 472.028909 
L 256.324137 465.851362 
L 257.454583 465.927746 
L 257.863332 459.955481 
L 256.863813 459.883871 
L 257.285336 453.734968 
L 264.90467 454.260107 
L 263.64649 472.563596 
" clip-path="url(#p889febf709)" style="fill: #f29888"/>
    <path d="M 278.958606 449.57682 
L 278.450863 457.052893 
L 273.363856 456.709165 
L 273.871599 449.233092 
L 278.958606 449.57682 
" clip-path="url(#p889febf709)" style="fill: #f29888"/>
    <path d="M 265.268712 449.591142 
L 257.821819 449.132838 
L 258.192247 443.127155 
L 259.185379 443.189217 
L 259.536648 437.498617 
L 258.476455 437.436555 
L 258.894784 430.671807 
L 266.405545 431.134884 
L 265.268712 449.591142 
" clip-path="url(#p889febf709)" style="fill: #f29888"/>
    <path d="M 279.894258 432.595726 
L 279.354582 441.203236 
L 274.72103 440.916796 
L 275.260706 432.304513 
L 279.894258 432.595726 
" clip-path="url(#p889febf709)" style="fill: #f29888"/>
    <path d="M 281.344039 416.636267 
L 280.91613 424.546774 
L 275.851476 424.274656 
L 276.276192 416.359376 
L 281.344039 416.636267 
" clip-path="url(#p889febf709)" style="fill: #f29888"/>
    <path d="M 266.392772 426.485015 
L 258.585029 426.007616 
L 258.993778 419.328799 
L 260.156158 419.400409 
L 260.48188 414.072633 
L 259.744216 414.024893 
L 260.149771 407.360399 
L 267.532798 407.809154 
L 266.392772 426.485015 
" clip-path="url(#p889febf709)" style="fill: #f29888"/>
    <path d="M 282.231791 404.233433 
L 281.957162 411.466033 
L 276.601913 411.260751 
L 276.876542 404.028151 
L 282.231791 404.233433 
" clip-path="url(#p889febf709)" style="fill: #f29888"/>
    <path d="M 283.039708 390.465237 
L 282.500032 399.077521 
L 277.869674 398.786307 
L 278.40935 390.178797 
L 283.039708 390.465237 
" clip-path="url(#p889febf709)" style="fill: #f29888"/>
    <path d="M 269.531835 389.749138 
L 268.992159 397.616679 
L 262.838572 397.191793 
L 262.915213 396.103323 
L 257.103315 395.702307 
L 257.033061 396.70962 
L 250.687873 396.275187 
L 251.221163 388.488804 
L 269.531835 389.749138 
" clip-path="url(#p889febf709)" style="fill: #f29888"/>
    <path d="M 241.628338 387.815671 
L 241.213202 394.17463 
L 224.428951 393.081385 
L 224.844087 386.717652 
L 241.628338 387.815671 
" clip-path="url(#p889febf709)" style="fill: #f29888"/>
    <path d="M 215.650431 353.695942 
L 215.129914 363.659266 
L 216.82239 363.745198 
L 216.528602 369.321222 
L 208.631446 368.905884 
L 209.448944 353.366537 
L 215.650431 353.695942 
" clip-path="url(#p889febf709)" style="fill: #f29888"/>
    <path d="M 140.21391 356.250028 
L 140.102142 358.293297 
L 150.09733 358.832759 
L 149.787575 364.580646 
L 133.862335 363.716554 
L 134.283858 355.930171 
L 140.21391 356.250028 
" clip-path="url(#p889febf709)" style="fill: #f29888"/>
    <path d="M 186.491946 361.568257 
L 188.139715 361.678059 
L 188.778385 352.04414 
L 195.13954 352.469026 
L 194.082541 368.399841 
L 186.073617 367.869928 
L 186.491946 361.568257 
" clip-path="url(#p889febf709)" style="fill: #f29888"/>
    <path d="M 115.516536 361.577805 
L 115.736877 357.042511 
L 123.857568 357.433979 
L 123.637227 361.974046 
L 115.516536 361.577805 
" clip-path="url(#p889febf709)" style="fill: #f29888"/>
    <path d="M 101.018724 353.428598 
L 100.635522 358.436517 
L 62.027914 355.471868 
L 62.411116 350.459175 
L 101.018724 353.428598 
" clip-path="url(#p889febf709)" style="fill: #f29888"/>
    <path d="M 142.034119 341.173758 
L 141.267715 350.492593 
L 134.609579 349.943584 
L 135.37279 340.629523 
L 142.034119 341.173758 
" clip-path="url(#p889febf709)" style="fill: #f29888"/>
    <path d="M 217.406773 332.685598 
L 216.372128 347.757095 
L 210.090807 347.322661 
L 211.125453 332.251165 
L 217.406773 332.685598 
" clip-path="url(#p889febf709)" style="fill: #f29888"/>
    <path d="M 196.282759 334.662032 
L 195.618542 344.00951 
L 189.053014 343.541659 
L 189.720424 334.19418 
L 196.282759 334.662032 
" clip-path="url(#p889febf709)" style="fill: #f29888"/>
    <path d="M 102.541953 328.198045 
L 102.366318 330.422726 
L 98.087229 330.088546 
L 98.262863 327.859091 
L 102.541953 328.198045 
" clip-path="url(#p889febf709)" style="fill: #f29888"/>
    <path d="M 144.710147 320.912931 
L 144.342912 326.713333 
L 142.449255 326.593983 
L 141.816972 336.590725 
L 135.960367 336.218353 
L 136.959885 320.425984 
L 144.710147 320.912931 
" clip-path="url(#p889febf709)" style="fill: #f29888"/>
    <path d="M 271.237084 367.607358 
L 270.898589 373.804001 
L 252.418669 372.796689 
L 252.753971 366.600045 
L 271.237084 367.607358 
" clip-path="url(#p889febf709)" style="fill: #f29888"/>
    <path d="M 245.418845 365.525897 
L 244.994129 371.69867 
L 226.108654 370.400144 
L 226.533369 364.232145 
L 245.418845 365.525897 
" clip-path="url(#p889febf709)" style="fill: #f29888"/>
    <path d="M 273.574617 338.853598 
L 272.747539 351.084568 
L 267.478511 350.731292 
L 268.302395 338.500322 
L 273.574617 338.853598 
" clip-path="url(#p889febf709)" style="fill: #f29888"/>
    <path d="M 226.613203 317.332437 
L 225.913859 328.704088 
L 220.967359 328.403327 
L 221.666703 317.026901 
L 226.613203 317.332437 
" clip-path="url(#p889febf709)" style="fill: #f29888"/>
    <path d="M 272.23341 313.661236 
L 271.336078 325.963816 
L 266.459832 325.610541 
L 267.35397 313.30796 
L 272.23341 313.661236 
" clip-path="url(#p889febf709)" style="fill: #f29888"/>
    <path d="M 219.514385 297.276892 
L 218.540413 312.21949 
L 212.645488 311.832797 
L 213.616266 296.894972 
L 219.514385 297.276892 
" clip-path="url(#p889febf709)" style="fill: #f29888"/>
    <path d="M 277.253357 292.789338 
L 276.681747 302.194104 
L 269.921424 301.778767 
L 270.493034 292.378775 
L 277.253357 292.789338 
" clip-path="url(#p889febf709)" style="fill: #f29888"/>
    <path d="M 230.017315 276.467056 
L 229.662853 282.358163 
L 220.839625 281.823476 
L 220.258436 291.423976 
L 214.050562 291.046831 
L 214.989407 275.559997 
L 230.017315 276.467056 
" clip-path="url(#p889febf709)" style="fill: #f29888"/>
    <path d="M 278.473217 278.510325 
L 278.150688 285.217785 
L 274.222867 285.026825 
L 274.273961 284.009965 
L 266.15327 283.623271 
L 266.102177 284.664002 
L 262.816219 284.50646 
L 263.138747 277.77513 
L 278.473217 278.510325 
" clip-path="url(#p889febf709)" style="fill: #f29888"/>
    <path d="M 255.736561 277.617588 
L 255.318232 284.224794 
L 251.649072 283.995643 
L 251.696972 283.236578 
L 243.81259 282.735309 
L 243.751916 283.656689 
L 239.951829 283.41799 
L 240.379738 276.648467 
L 255.736561 277.617588 
" clip-path="url(#p889febf709)" style="fill: #f29888"/>
    <path d="M 195.902751 313.551434 
L 194.884072 327.925927 
L 187.287091 327.386466 
L 188.308963 313.011973 
L 195.902751 313.551434 
" clip-path="url(#p889febf709)" style="fill: #f29888"/>
    <path d="M 157.595317 313.508468 
L 156.828913 322.894139 
L 150.298511 322.359451 
L 151.061722 312.973781 
L 157.595317 313.508468 
" clip-path="url(#p889febf709)" style="fill: #f29888"/>
    <path d="M 144.697374 297.243474 
L 144.001223 307.273633 
L 145.802273 307.397757 
L 145.419071 312.945137 
L 137.576202 312.400902 
L 138.655554 296.823362 
L 144.697374 297.243474 
" clip-path="url(#p889febf709)" style="fill: #f29888"/>
    <path d="M 199.064168 299.148297 
L 198.521298 308.257076 
L 192.057956 307.875156 
L 192.597633 298.761603 
L 199.064168 299.148297 
" clip-path="url(#p889febf709)" style="fill: #f29888"/>
    <path d="M 146.325983 283.852423 
L 145.623445 292.980298 
L 139.105817 292.479029 
L 139.808354 283.34638 
L 146.325983 283.852423 
" clip-path="url(#p889febf709)" style="fill: #f29888"/>
    <path d="M 199.664518 289.738756 
L 193.523704 289.371159 
L 194.111281 279.536733 
L 185.562681 279.025916 
L 185.90437 273.320994 
L 200.593783 274.199409 
L 199.664518 289.738756 
" clip-path="url(#p889febf709)" style="fill: #f29888"/>
    <path d="M 110.752057 275.650703 
L 110.451882 281.460652 
L 97.14519 280.773197 
L 97.448558 274.963248 
L 110.752057 275.650703 
" clip-path="url(#p889febf709)" style="fill: #f29888"/>
    <path d="M 178.690591 272.695601 
L 178.189235 278.892244 
L 163.372088 277.684424 
L 163.873444 271.492555 
L 178.690591 272.695601 
" clip-path="url(#p889febf709)" style="fill: #f29888"/>
    <path d="M 156.592605 270.389762 
L 156.180663 276.619823 
L 145.990681 275.941916 
L 145.888494 277.51256 
L 140.169203 277.135415 
L 140.686525 269.33471 
L 156.592605 270.389762 
" clip-path="url(#p889febf709)" style="fill: #f29888"/>
    <path d="M 129.279877 251.183988 
L 128.293132 271.311143 
L 120.166055 270.910128 
L 120.127734 268.05528 
L 117.834909 268.07915 
L 116.573535 265.873565 
L 116.650176 263.004395 
L 117.847682 263.061683 
L 118.230884 255.218012 
L 117.224979 255.165498 
L 117.448513 250.606335 
L 129.279877 251.183988 
" clip-path="url(#p889febf709)" style="fill: #f29888"/>
    <path d="M 280.130566 259.63873 
L 279.622823 265.778085 
L 261.922081 264.312469 
L 262.433017 258.173114 
L 280.130566 259.63873 
" clip-path="url(#p889febf709)" style="fill: #f29888"/>
    <path d="M 257.275756 258.421362 
L 256.857427 264.140605 
L 239.003404 262.837305 
L 239.421732 257.118062 
L 257.275756 258.421362 
" clip-path="url(#p889febf709)" style="fill: #f29888"/>
    <path d="M 232.642249 246.285871 
L 232.377201 250.076422 
L 231.610797 250.023908 
L 231.157341 256.473573 
L 233.207472 256.616792 
L 232.789143 262.57951 
L 225.287963 262.049596 
L 226.424796 245.851438 
L 232.642249 246.285871 
" clip-path="url(#p889febf709)" style="fill: #f29888"/>
    <path d="M 180.581054 251.117152 
L 180.015831 257.92964 
L 164.991117 256.683628 
L 165.55634 249.875914 
L 180.581054 251.117152 
" clip-path="url(#p889febf709)" style="fill: #f29888"/>
    <path d="M 192.313425 259.218619 
L 184.416268 258.631417 
L 184.844177 252.869208 
L 186.935822 253.02675 
L 187.402051 246.787141 
L 186.511106 246.720305 
L 186.795315 242.910658 
L 193.491771 243.411927 
L 192.313425 259.218619 
" clip-path="url(#p889febf709)" style="fill: #f29888"/>
    <path d="M 207.376459 227.113515 
L 207.111411 230.851552 
L 214.644525 231.381465 
L 214.912767 227.571818 
L 219.112023 227.863032 
L 217.952836 244.357178 
L 214.187876 244.089834 
L 214.136782 244.820255 
L 205.09002 244.185314 
L 205.131534 243.579017 
L 201.542208 243.325996 
L 202.704587 226.784109 
L 207.376459 227.113515 
" clip-path="url(#p889febf709)" style="fill: #f29888"/>
    <path d="M 305.220721 392.723336 
L 304.997187 397.726481 
L 296.745569 397.358883 
L 296.96591 392.355738 
L 305.220721 392.723336 
" clip-path="url(#p889febf709)" style="fill: #f29888"/>
    <path d="M 366.609693 377.155344 
L 366.366999 381.63335 
L 361.972948 381.39465 
L 362.215643 376.916645 
L 366.609693 377.155344 
" clip-path="url(#p889febf709)" style="fill: #f29888"/>
    <path d="M 357.35217 375.995264 
L 357.109475 380.473269 
L 352.715425 380.23457 
L 352.958119 375.756564 
L 357.35217 375.995264 
" clip-path="url(#p889febf709)" style="fill: #f29888"/>
    <path d="M 351.201777 375.030917 
L 350.959082 379.508923 
L 346.565032 379.270223 
L 346.807726 374.792218 
L 351.201777 375.030917 
" clip-path="url(#p889febf709)" style="fill: #f29888"/>
    <path d="M 343.646309 374.586936 
L 343.403614 379.064941 
L 339.009564 378.826242 
L 339.252259 374.348236 
L 343.646309 374.586936 
" clip-path="url(#p889febf709)" style="fill: #f29888"/>
    <path d="M 335.80344 373.851741 
L 335.560745 378.329747 
L 331.166695 378.091047 
L 331.40939 373.613041 
L 335.80344 373.851741 
" clip-path="url(#p889febf709)" style="fill: #f29888"/>
    <path d="M 328.225619 373.221574 
L 327.970151 377.374948 
L 323.885856 377.1267 
L 324.141324 372.973326 
L 328.225619 373.221574 
" clip-path="url(#p889febf709)" style="fill: #f29888"/>
    <path d="M 320.28695 372.519797 
L 320.047448 376.778199 
L 315.829032 376.539499 
L 316.071727 372.276323 
L 320.28695 372.519797 
" clip-path="url(#p889febf709)" style="fill: #f29888"/>
    <path d="M 312.753835 372.314515 
L 312.501561 376.401053 
L 308.06919 376.128936 
L 308.318271 372.042398 
L 312.753835 372.314515 
" clip-path="url(#p889febf709)" style="fill: #f29888"/>
    <path d="M 301.474921 371.655704 
L 301.32164 375.89501 
L 293.957774 375.627666 
L 294.107861 371.393135 
L 301.474921 371.655704 
" clip-path="url(#p889febf709)" style="fill: #f29888"/>
    <path d="M 289.752131 370.65794 
L 289.53179 375.011821 
L 280.485028 374.553518 
L 280.705369 370.199636 
L 289.752131 370.65794 
" clip-path="url(#p889febf709)" style="fill: #f29888"/>
    <path d="M 287.11123 343.737392 
L 287.05375 348.306104 
L 282.551126 348.248816 
L 282.608606 343.684879 
L 287.11123 343.737392 
" clip-path="url(#p889febf709)" style="fill: #f29888"/>
    <path d="M 286.293732 337.626681 
L 286.047844 340.715455 
L 280.87781 340.304891 
L 281.123698 337.216118 
L 286.293732 337.626681 
" clip-path="url(#p889febf709)" style="fill: #f29888"/>
    <path d="M 287.414599 329.587277 
L 287.194257 333.578335 
L 283.604931 333.377827 
L 283.822079 329.386769 
L 287.414599 329.587277 
" clip-path="url(#p889febf709)" style="fill: #f29888"/>
    <path d="M 289.633977 317.337211 
L 289.336996 322.626795 
L 284.444782 322.354677 
L 284.738571 317.065093 
L 289.633977 317.337211 
" clip-path="url(#p889febf709)" style="fill: #f29888"/>
    <path d="M 290.576016 301.659417 
L 290.253487 306.724624 
L 285.744476 306.43341 
L 286.070198 301.372978 
L 290.576016 301.659417 
" clip-path="url(#p889febf709)" style="fill: #f29888"/>
    <path d="M 359.846177 232.398325 
L 359.3065 238.084151 
L 354.257813 237.601978 
L 354.797489 231.920926 
L 359.846177 232.398325 
" clip-path="url(#p889febf709)" style="fill: #f29888"/>
    <path d="M 341.228943 228.698481 
L 340.861707 232.121434 
L 342.918225 232.345811 
L 342.423256 236.957489 
L 337.131874 236.389384 
L 337.994079 228.349979 
L 341.228943 228.698481 
" clip-path="url(#p889febf709)" style="fill: #f29888"/>
    <path d="M 329.059084 230.436214 
L 328.656721 233.01417 
L 326.341542 232.656121 
L 325.9775 235.000152 
L 322.314727 234.432046 
L 323.081131 229.505285 
L 329.059084 230.436214 
" clip-path="url(#p889febf709)" style="fill: #f29888"/>
    <path d="M 318.473126 229.428902 
L 317.907903 234.642102 
L 315.145655 234.341341 
L 315.276582 233.143068 
L 312.080038 232.794567 
L 312.514334 228.784413 
L 318.473126 229.428902 
" clip-path="url(#p889febf709)" style="fill: #f29888"/>
    <path d="M 418.437773 237.062517 
L 418.163145 239.301519 
L 419.277625 239.439965 
L 418.773075 243.545599 
L 414.599366 243.034782 
L 415.378543 236.685371 
L 418.437773 237.062517 
" clip-path="url(#p889febf709)" style="fill: #f29888"/>
    <path d="M 411.093067 237.215284 
L 410.451204 243.101618 
L 405.753785 242.590801 
L 406.395648 236.704467 
L 411.093067 237.215284 
" clip-path="url(#p889febf709)" style="fill: #f29888"/>
    <path d="M 394.168309 237.391922 
L 393.564766 241.970181 
L 388.710873 241.330466 
L 389.311223 236.756981 
L 394.168309 237.391922 
" clip-path="url(#p889febf709)" style="fill: #f29888"/>
    <path d="M 385.562229 234.708938 
L 384.783051 240.643011 
L 379.925965 240.00807 
L 380.701949 234.073997 
L 385.562229 234.708938 
" clip-path="url(#p889febf709)" style="fill: #f29888"/>
    <path d="M 398.990268 234.847384 
L 398.562359 237.769068 
L 397.4383 237.601978 
L 397.067871 240.122646 
L 394.286463 239.716857 
L 395.081607 234.274505 
L 398.990268 234.847384 
" clip-path="url(#p889febf709)" style="fill: #f29888"/>
    <path d="M 377.067916 234.632554 
L 376.343026 239.922138 
L 373.002781 239.463835 
L 373.727672 234.174251 
L 377.067916 234.632554 
" clip-path="url(#p889febf709)" style="fill: #f29888"/>
    <path d="M 366.060437 233.863941 
L 366.197751 229.533929 
L 368.420323 229.605539 
L 368.110568 239.210813 
L 362.164549 239.019854 
L 362.33699 233.744591 
L 366.060437 233.863941 
" clip-path="url(#p889febf709)" style="fill: #f29888"/>
    <path d="M 555.234526 212.7247 
L 554.915191 215.445876 
L 551.562173 215.054408 
L 551.028883 219.59925 
L 548.442269 219.298488 
L 549.291701 212.027697 
L 555.234526 212.7247 
" clip-path="url(#p889febf709)" style="fill: #f29888"/>
    <path d="M 504.12495 211.674421 
L 502.748616 219.651764 
L 498.792054 218.969083 
L 499.577619 214.400371 
L 500.564364 214.572235 
L 501.15194 211.163604 
L 504.12495 211.674421 
" clip-path="url(#p889febf709)" style="fill: #f29888"/>
    <path d="M 517.380548 211.965635 
L 516.722718 217.202705 
L 513.181292 216.758724 
L 513.842316 211.521653 
L 517.380548 211.965635 
" clip-path="url(#p889febf709)" style="fill: #f29888"/>
    <path d="M 499.465851 211.507331 
L 498.415239 216.505702 
L 494.758853 215.737089 
L 495.809465 210.738719 
L 499.465851 211.507331 
" clip-path="url(#p889febf709)" style="fill: #f29888"/>
    <path d="M 536.479978 210.705301 
L 535.844501 214.815709 
L 527.433216 213.512409 
L 528.071886 209.402001 
L 536.479978 210.705301 
" clip-path="url(#p889febf709)" style="fill: #f29888"/>
    <path d="M 544.064186 208.136892 
L 542.566504 216.672792 
L 539.050625 216.056947 
L 540.548307 207.521047 
L 544.064186 208.136892 
" clip-path="url(#p889febf709)" style="fill: #f29888"/>
    <path d="M 526.746645 210.714849 
L 526.245289 213.913424 
L 521.749052 213.211647 
L 522.250408 210.013072 
L 526.746645 210.714849 
" clip-path="url(#p889febf709)" style="fill: #f29888"/>
    <path d="M 475.202773 209.330391 
L 474.168128 213.689046 
L 470.655442 212.853598 
L 471.690088 208.494942 
L 475.202773 209.330391 
" clip-path="url(#p889febf709)" style="fill: #f29888"/>
    <path d="M 511.134354 209.83166 
L 510.632998 213.030235 
L 506.136761 212.328458 
L 506.634923 209.129883 
L 511.134354 209.83166 
" clip-path="url(#p889febf709)" style="fill: #f29888"/>
    <path d="M 486.044199 207.817035 
L 485.542843 211.01561 
L 481.046605 210.309059 
L 481.547961 207.115258 
L 486.044199 207.817035 
" clip-path="url(#p889febf709)" style="fill: #f29888"/>
    <path d="M 470.288207 205.811958 
L 469.397262 211.650551 
L 466.529633 211.211344 
L 467.420578 205.37275 
L 470.288207 205.811958 
" clip-path="url(#p889febf709)" style="fill: #f29888"/>
    <path d="M 442.371936 201.949797 
L 441.621499 205.067215 
L 437.888472 204.174478 
L 438.635716 201.052287 
L 442.371936 201.949797 
" clip-path="url(#p889febf709)" style="fill: #f29888"/>
    <path d="M 463.189389 200.804039 
L 462.79022 203.596825 
L 455.081471 202.494033 
L 455.48064 199.701247 
L 463.189389 200.804039 
" clip-path="url(#p889febf709)" style="fill: #f29888"/>
    <path d="M 452.137202 199.190429 
L 451.77316 202.283977 
L 446.127316 201.620392 
L 446.494552 198.52207 
L 452.137202 199.190429 
" clip-path="url(#p889febf709)" style="fill: #f29888"/>
    <path d="M 429.496346 195.103891 
L 428.167913 202.369909 
L 426.287029 202.026181 
L 426.954439 198.388398 
L 423.93353 197.834615 
L 424.597747 194.20638 
L 429.496346 195.103891 
" clip-path="url(#p889febf709)" style="fill: #f29888"/>
    <path d="M 420.784886 195.834312 
L 419.881168 199.8015 
L 414.68878 198.622324 
L 415.592498 194.650362 
L 420.784886 195.834312 
" clip-path="url(#p889febf709)" style="fill: #f29888"/>
    <path d="M 438.108813 196.10643 
L 437.51485 198.970826 
L 430.515025 197.514758 
L 431.112182 194.650362 
L 438.108813 196.10643 
" clip-path="url(#p889febf709)" style="fill: #f29888"/>
    <path d="M 414.452472 191.203539 
L 413.864895 196.426287 
L 405.677144 195.504907 
L 406.041186 192.258591 
L 409.413365 192.635737 
L 409.633706 190.664078 
L 414.452472 191.203539 
" clip-path="url(#p889febf709)" style="fill: #f29888"/>
    <path d="M 403.243811 191.155799 
L 402.637075 195.461941 
L 399.957853 195.084795 
L 400.56459 190.778653 
L 403.243811 191.155799 
" clip-path="url(#p889febf709)" style="fill: #f29888"/>
    <path d="M 402.455054 173.114879 
L 401.053173 177.191869 
L 395.410522 175.253628 
L 395.927845 173.745046 
L 393.18795 172.804569 
L 394.072508 170.231387 
L 402.455054 173.114879 
" clip-path="url(#p889febf709)" style="fill: #f29888"/>
    <path d="M 395.0848 160.654757 
L 392.699368 164.259122 
L 389.132395 161.900769 
L 391.514634 158.296404 
L 395.0848 160.654757 
" clip-path="url(#p889febf709)" style="fill: #f29888"/>
    <path d="M 387.171678 155.513166 
L 384.789438 159.117531 
L 381.219272 156.759179 
L 383.604705 153.154814 
L 387.171678 155.513166 
" clip-path="url(#p889febf709)" style="fill: #f29888"/>
    <path d="M 382.879814 152.348009 
L 380.494382 155.952374 
L 376.924216 153.594021 
L 379.309649 149.989656 
L 382.879814 152.348009 
" clip-path="url(#p889febf709)" style="fill: #f29888"/>
    <path d="M 296.007905 239.860077 
L 288.695132 239.468609 
L 288.905893 235.506195 
L 290.531309 235.592127 
L 291.016698 226.526314 
L 289.803225 226.459478 
L 290.017179 222.454098 
L 296.91801 222.821695 
L 296.007905 239.860077 
" clip-path="url(#p889febf709)" style="fill: #f29888"/>
    <path d="M 349.196352 226.955973 
L 348.445915 232.126208 
L 344.093378 231.491267 
L 344.843816 226.325806 
L 349.196352 226.955973 
" clip-path="url(#p889febf709)" style="fill: #f29888"/>
    <path d="M 300.70213 176.046111 
L 299.255543 193.21339 
L 293.044476 192.688251 
L 294.491063 175.520971 
L 300.70213 176.046111 
" clip-path="url(#p889febf709)" style="fill: #f29888"/>
    <path d="M 323.553747 176.924525 
L 323.215252 183.345546 
L 306.213853 182.448035 
L 306.555542 176.022241 
L 323.553747 176.924525 
" clip-path="url(#p889febf709)" style="fill: #f29888"/>
    <path d="M 357.336203 137.42928 
L 354.95077 141.033645 
L 351.383798 138.675293 
L 353.766037 135.070928 
L 357.336203 137.42928 
" clip-path="url(#p889febf709)" style="fill: #f29888"/>
    <path d="M 352.929379 134.493275 
L 350.543946 138.09764 
L 346.97378 135.739287 
L 349.359213 132.134922 
L 352.929379 134.493275 
" clip-path="url(#p889febf709)" style="fill: #f29888"/>
    <path d="M 345.300465 129.690638 
L 342.915032 133.295002 
L 339.348059 130.93665 
L 341.730299 127.327511 
L 345.300465 129.690638 
" clip-path="url(#p889febf709)" style="fill: #f29888"/>
    <path d="M 337.55659 124.888001 
L 335.17435 128.492365 
L 331.604184 126.129239 
L 333.989617 122.524874 
L 337.55659 124.888001 
" clip-path="url(#p889febf709)" style="fill: #f29888"/>
    <path d="M 329.308165 119.350169 
L 326.922732 122.954533 
L 323.355759 120.596181 
L 325.737999 116.987042 
L 329.308165 119.350169 
" clip-path="url(#p889febf709)" style="fill: #f29888"/>
    <path d="M 321.171508 114.323154 
L 318.786075 117.927519 
L 315.215909 115.564392 
L 317.601342 111.960027 
L 321.171508 114.323154 
" clip-path="url(#p889febf709)" style="fill: #f29888"/>
    <path d="M 367.564505 143.931459 
L 365.179072 147.535824 
L 361.6121 145.172697 
L 363.994339 141.568333 
L 367.564505 143.931459 
" clip-path="url(#p889febf709)" style="fill: #f29888"/>
    <path d="M 312.97737 110.986133 
L 310.591937 114.590497 
L 307.021771 112.232145 
L 309.407204 108.62778 
L 312.97737 110.986133 
" clip-path="url(#p889febf709)" style="fill: #f29888"/>
    <path d="M 307.877589 105.63926 
L 305.492156 109.243625 
L 301.925184 106.880499 
L 304.307423 103.276134 
L 307.877589 105.63926 
" clip-path="url(#p889febf709)" style="fill: #f29888"/>
    <path d="M 299.807992 101.94419 
L 297.425753 105.548555 
L 293.855587 103.190202 
L 296.24102 99.585837 
L 299.807992 101.94419 
" clip-path="url(#p889febf709)" style="fill: #f29888"/>
   </g>
   <g id="LineCollection_1">
    <path d="M 391.562535 792.693252 
L 393.440225 796.603152 
L 394.32711 801 
" clip-path="url(#p889febf709)" style="fill: none; stroke: #f29888; stroke-width: 0.2"/>
    <path d="M 153.657916 774.862388 
L 188.321736 778.92983 
L 221.628383 782.658318 
L 293.411711 790.206002 
L 321.465296 794.273444 
L 338.25274 796.431289 
L 378.670978 796.646118 
L 393.440225 796.603152 
L 429.349452 796.140075 
L 450.198838 795.543326 
L 486.385887 796.140075 
L 518.338553 796.89914 
L 554.69485 797.834843 
" clip-path="url(#p889febf709)" style="fill: none; stroke: #f29888; stroke-width: 0.2"/>
    <path d="M 153.830357 735.954344 
L 192.645533 740.279582 
L 236.883019 745.110863 
L 277.81858 749.77028 
L 320.446617 754.348539 
L 349.940403 756.38226 
L 391.613628 756.305877 
L 430.029636 755.704353 
L 470.029546 755.279468 
L 496.218214 755.026446 
L 519.609507 753.417611 
" clip-path="url(#p889febf709)" style="fill: none; stroke: #f29888; stroke-width: 0.2"/>
    <path d="M 154.759622 694.167582 
L 163.234774 697.810139 
L 196.289146 701.45747 
L 253.070113 707.305611 
L 320.532838 713.325617 
L 329.205978 713.612056 
L 353.944865 714.437957 
L 363.668617 714.762589 
L 392.613147 714.671883 
L 445.961262 713.578638 
L 502.742229 713.067821 
L 536.390564 711.287122 
" clip-path="url(#p889febf709)" style="fill: none; stroke: #f29888; stroke-width: 0.2"/>
    <path d="M 324.170064 669.934793 
L 324.971595 677.716402 
L 326.229775 696.02944 
L 329.205978 713.612056 
" clip-path="url(#p889febf709)" style="fill: none; stroke: #f29888; stroke-width: 0.2"/>
    <path d="M 353.944865 714.437957 
L 352.290709 663.876596 
L 349.250639 658.587012 
L 343.077893 657.995037 
L 337.393729 662.114993 
L 332.102347 668.583753 
L 324.170064 669.934793 
" clip-path="url(#p889febf709)" style="fill: none; stroke: #f29888; stroke-width: 0.2"/>
    <path d="M 393.916034 672.550942 
L 439.264806 671.028038 
L 487.656841 668.144546 
L 526.813706 666.024893 
L 551.942182 665.943735 
" clip-path="url(#p889febf709)" style="fill: none; stroke: #f29888; stroke-width: 0.2"/>
    <path d="M 375.79377 500.205016 
L 379.929159 509.910544 
L 383.32369 531.488993 
L 388.091363 563.98079 
L 389.269709 572.922479 
L 390.974958 599.418141 
L 392.415159 616.75251 
L 392.389613 633.991399 
L 392.689788 639.195052 
L 393.916034 672.550942 
L 393.864941 677.644792 
L 393.184757 706.379457 
L 392.613147 714.671883 
L 392.613147 726.878983 
L 391.613628 756.305877 
L 391.974477 770.623082 
L 391.562535 792.693252 
" clip-path="url(#p889febf709)" style="fill: none; stroke: #f29888; stroke-width: 0.2"/>
    <path d="M 392.389613 633.991399 
L 410.42885 631.80491 
L 433.440134 628.563369 
L 468.653211 626.20979 
L 494.014802 625.00197 
L 522.68151 623.412231 
L 539.270966 622.333308 
L 568.36239 632.936347 
" clip-path="url(#p889febf709)" style="fill: none; stroke: #f29888; stroke-width: 0.2"/>
    <path d="M 389.269709 572.922479 
L 407.628282 575.715265 
L 438.393021 579.806578 
L 464.642363 584.847914 
L 488.65636 589.841511 
L 511.910339 593.359944 
L 534.068998 597.308036 
L 547.193669 601.967453 
L 569.735531 612.002387 
L 588.09091 618.566628 
" clip-path="url(#p889febf709)" style="fill: none; stroke: #f29888; stroke-width: 0.2"/>
    <path d="M 153.657916 774.862388 
L 153.602497 779.418314 
" clip-path="url(#p889febf709)" style="fill: none; stroke: #f29888; stroke-width: 0.2"/>
    <path d="M 149.951042 733.283312 
L 153.913384 732.197211 
" clip-path="url(#p889febf709)" style="fill: none; stroke: #f29888; stroke-width: 0.2"/>
    <path d="M 158.029613 536.157959 
L 152.159699 547.79795 
" clip-path="url(#p889febf709)" style="fill: none; stroke: #f29888; stroke-width: 0.2"/>
    <path d="M 155.513252 653.454969 
L 171.07445 653.684121 
L 224.163903 657.574925 
L 241.443123 659.408139 
L 248.995398 662.496912 
L 309.068709 668.335506 
L 324.170064 669.934793 
" clip-path="url(#p889febf709)" style="fill: none; stroke: #f29888; stroke-width: 0.2"/>
    <path d="M 191.240459 530.200015 
L 180.111632 528.037396 
L 167.983286 527.579093 
L 162.605684 528.490926 
L 159.974363 531.699049 
L 158.029613 536.157959 
L 156.771432 544.397871 
L 155.854941 572.091805 
L 154.938449 614.203198 
L 155.16837 649.449589 
L 155.513252 653.454969 
L 154.759622 694.167582 
L 153.913384 732.197211 
L 153.830357 735.954344 
L 153.657916 774.862388 
" clip-path="url(#p889febf709)" style="fill: none; stroke: #f29888; stroke-width: 0.2"/>
    <path d="M 185.230573 619.120411 
L 211.029652 620.237525 
L 235.385337 620.571705 
L 242.219108 621.010912 
L 258.639316 619.578714 
L 282.79382 618.733717 
L 305.808298 619.249309 
L 333.504228 618.752813 
L 349.119712 618.475922 
L 392.415159 616.75251 
" clip-path="url(#p889febf709)" style="fill: none; stroke: #f29888; stroke-width: 0.2"/>
    <path d="M 191.240459 530.200015 
L 188.38241 573.734058 
L 185.230573 619.120411 
" clip-path="url(#p889febf709)" style="fill: none; stroke: #f29888; stroke-width: 0.2"/>
    <path d="M 322.113546 558.977646 
L 273.679998 567.819081 
L 249.056071 573.294851 
" clip-path="url(#p889febf709)" style="fill: none; stroke: #f29888; stroke-width: 0.2"/>
    <path d="M 191.240459 530.200015 
L 209.816179 528.825105 
L 265.773262 518.737658 
L 304.610791 512.660364 
L 314.813547 510.884439 
L 361.653613 501.947524 
L 375.79377 500.205016 
" clip-path="url(#p889febf709)" style="fill: none; stroke: #f29888; stroke-width: 0.2"/>
    <path d="M 333.504228 618.752813 
L 322.113546 558.977646 
L 315.618271 524.877013 
L 314.813547 510.884439 
L 317.058472 480.774865 
L 323.125838 432.080135 
L 328.283099 382.755238 
" clip-path="url(#p889febf709)" style="fill: none; stroke: #f29888; stroke-width: 0.2"/>
    <path d="M 554.69485 797.834843 
L 558.418917 801 
" clip-path="url(#p889febf709)" style="fill: none; stroke: #f29888; stroke-width: 0.2"/>
    <path d="M 536.390564 711.287122 
L 544.051412 709.377524 
L 548.193188 702.479104 
L 553.393776 688.542849 
" clip-path="url(#p889febf709)" style="fill: none; stroke: #f29888; stroke-width: 0.2"/>
    <path d="M 551.942182 665.943735 
L 554.17114 671.347895 
L 556.095967 680.972095 
" clip-path="url(#p889febf709)" style="fill: none; stroke: #f29888; stroke-width: 0.2"/>
    <path d="M 600.110682 567.828629 
L 604.172407 575.310441 
" clip-path="url(#p889febf709)" style="fill: none; stroke: #f29888; stroke-width: 0.2"/>
    <path d="M 595.781939 604.489328 
L 588.09091 618.566628 
L 588.213896 620.009718 
" clip-path="url(#p889febf709)" style="fill: none; stroke: #f29888; stroke-width: 0.2"/>
    <path d="M 573.896686 649.371166 
L 565.510728 661.355928 
L 556.961376 679.60841 
" clip-path="url(#p889febf709)" style="fill: none; stroke: #f29888; stroke-width: 0.2"/>
    <path d="M 555.859633 702.954157 
L 555.911516 704.044974 
L 559.761368 707.893428 
" clip-path="url(#p889febf709)" style="fill: none; stroke: #f29888; stroke-width: 0.2"/>
    <path d="M 558.562834 741.802173 
L 541.011342 749.259463 
L 519.609507 753.417611 
" clip-path="url(#p889febf709)" style="fill: none; stroke: #f29888; stroke-width: 0.2"/>
    <path d="M 568.36239 632.936347 
L 571.804822 637.767628 
L 574.717158 642.670519 
L 574.720056 647.682617 
" clip-path="url(#p889febf709)" style="fill: none; stroke: #f29888; stroke-width: 0.2"/>
    <path d="M 600.110682 567.828629 
L 604.398442 572.012123 
" clip-path="url(#p889febf709)" style="fill: none; stroke: #f29888; stroke-width: 0.2"/>
    <path d="M 600.110682 567.828629 
L 604.593566 569.164856 
" clip-path="url(#p889febf709)" style="fill: none; stroke: #f29888; stroke-width: 0.2"/>
    <path d="M 453.781778 391.40094 
L 465.871803 394.828667 
L 469.397262 397.898344 
L 469.397262 402.954003 
L 471.393106 405.255068 
L 482.892362 411.236881 
L 494.698179 422.121585 
L 517.386935 438.066722 
L 523.981204 441.441935 
L 525.820574 444.201303 
L 531.188596 461.678892 
L 530.11563 478.54541 
L 534.100932 490.045959 
L 538.239514 498.787141 
L 550.811735 509.366309 
L 566.299486 524.242072 
L 583.776694 547.395938 
L 594.049702 559.813094 
L 600.110682 567.828629 
" clip-path="url(#p889febf709)" style="fill: none; stroke: #f29888; stroke-width: 0.2"/>
    <path d="M 638.630354 425.328926 
L 642.163916 425.038495 
L 654.06234 424.780699 
L 659.724151 423.496495 
L 663.913827 424.952563 
L 667.432899 425.382223 
L 674.96282 425.124427 
L 704.299861 417.969475 
" clip-path="url(#p889febf709)" style="fill: none; stroke: #f29888; stroke-width: 0.2"/>
    <path d="M 567.749267 360.432046 
L 579.334743 360.685068 
L 592.887323 361.329557 
L 604.894321 360.169477 
L 617.156787 362.231842 
L 626.321704 365.459061 
L 639.229227 367.010609 
L 648.397336 366.361346 
L 658.842786 362.231842 
" clip-path="url(#p889febf709)" style="fill: none; stroke: #f29888; stroke-width: 0.2"/>
    <path d="M 217.563248 473.198537 
L 267.535991 476.893608 
L 301.027852 479.58614 
L 317.058472 480.774865 
" clip-path="url(#p889febf709)" style="fill: none; stroke: #f29888; stroke-width: 0.2"/>
    <path d="M 201.32506 373.856515 
L 192.79562 506.501913 
L 191.240459 530.200015 
" clip-path="url(#p889febf709)" style="fill: none; stroke: #f29888; stroke-width: 0.2"/>
    <path d="M 271.409525 427.726253 
L 323.125838 432.080135 
" clip-path="url(#p889febf709)" style="fill: none; stroke: #f29888; stroke-width: 0.2"/>
    <path d="M 294.238789 167.023264 
L 290.908124 176.179783 
L 288.133102 205.792862 
L 287.136777 217.871064 
L 284.942945 244.428788 
L 283.694345 272.103626 
L 283.585771 276.032622 
L 283.34627 284.726064 
L 280.711756 312.544122 
L 279.511056 325.987686 
L 276.272998 362.274808 
L 274.73061 379.017202 
L 273.497977 400.428561 
L 271.409525 427.726253 
L 270.930523 433.99928 
L 267.947933 470.071572 
L 267.535991 476.893608 
L 265.313419 513.495813 
L 265.773262 518.737658 
L 266.421512 525.846133 
L 270.445133 545.96374 
L 272.87208 563.302883 
L 273.679998 567.819081 
L 275.995177 580.785246 
L 279.11508 597.226878 
L 281.474966 611.033266 
L 282.79382 618.733717 
" clip-path="url(#p889febf709)" style="fill: none; stroke: #f29888; stroke-width: 0.2"/>
    <path d="M 45.058449 361.783086 
L 130.081408 368.256621 
L 201.32506 373.856515 
" clip-path="url(#p889febf709)" style="fill: none; stroke: #f29888; stroke-width: 0.2"/>
    <path d="M 42.156043 361.588137 
L 45.058449 361.783086 
" clip-path="url(#p889febf709)" style="fill: none; stroke: #f29888; stroke-width: 0.2"/>
    <path d="M 208.123703 267.74497 
L 201.32506 373.856515 
" clip-path="url(#p889febf709)" style="fill: none; stroke: #f29888; stroke-width: 0.2"/>
    <path d="M 130.081408 368.256621 
L 137.330314 261.949343 
" clip-path="url(#p889febf709)" style="fill: none; stroke: #f29888; stroke-width: 0.2"/>
    <path d="M 137.330314 261.949343 
L 208.123703 267.74497 
L 283.694345 272.103626 
" clip-path="url(#p889febf709)" style="fill: none; stroke: #f29888; stroke-width: 0.2"/>
    <path d="M 42.79255 358.209367 
L 45.058449 361.783086 
" clip-path="url(#p889febf709)" style="fill: none; stroke: #f29888; stroke-width: 0.2"/>
    <path d="M 375.79377 500.205016 
L 390.432089 504.100595 
L 417.23388 514.808661 
L 474.200061 527.397681 
L 506.654083 538.449475 
L 537.584877 549.668359 
L 592.057052 564.061948 
L 600.110682 567.828629 
" clip-path="url(#p889febf709)" style="fill: none; stroke: #f29888; stroke-width: 0.2"/>
    <path d="M 392.970802 387.753609 
L 392.083051 407.9476 
L 388.334057 436.042549 
L 382.432745 463.602811 
L 378.616691 486.451142 
L 377.013629 492.795779 
L 375.79377 500.205016 
" clip-path="url(#p889febf709)" style="fill: none; stroke: #f29888; stroke-width: 0.2"/>
    <path d="M 201.32506 373.856515 
L 274.73061 379.017202 
L 328.283099 382.755238 
L 361.171417 385.538476 
L 392.970802 387.753609 
L 431.022768 390.976054 
L 453.781778 391.40094 
" clip-path="url(#p889febf709)" style="fill: none; stroke: #f29888; stroke-width: 0.2"/>
    <path d="M 279.511056 325.987686 
L 419.408552 336.886712 
" clip-path="url(#p889febf709)" style="fill: none; stroke: #f29888; stroke-width: 0.2"/>
    <path d="M 419.408552 336.886712 
L 445.849495 305.956011 
L 458.488776 294.207214 
" clip-path="url(#p889febf709)" style="fill: none; stroke: #f29888; stroke-width: 0.2"/>
    <path d="M 283.585771 276.032622 
L 334.54526 280.171674 
L 388.653392 283.551661 
L 415.729812 286.99371 
L 416.882612 287.141704 
L 456.499319 294.111734 
L 458.488776 294.207214 
L 499.564845 296.183647 
L 535.177091 297.973895 
L 545.945069 298.250786 
" clip-path="url(#p889febf709)" style="fill: none; stroke: #f29888; stroke-width: 0.2"/>
    <path d="M 415.729812 286.99371 
L 419.028543 262.951881 
L 420.519838 248.73493 
L 422.049453 238.905278 
" clip-path="url(#p889febf709)" style="fill: none; stroke: #f29888; stroke-width: 0.2"/>
    <path d="M 310.572777 236.499185 
L 420.519838 248.73493 
" clip-path="url(#p889febf709)" style="fill: none; stroke: #f29888; stroke-width: 0.2"/>
    <path d="M 287.136777 217.871064 
L 304.604405 219.179138 
L 320.673345 214.97325 
L 333.405234 211.884477 
L 373.702125 215.221498 
" clip-path="url(#p889febf709)" style="fill: none; stroke: #f29888; stroke-width: 0.2"/>
    <path d="M 295.260661 88.610427 
L 303.65598 90.839882 
L 317.703529 99.232562 
L 344.716082 116.991816 
L 358.594383 125.217406 
L 379.833358 137.033039 
L 402.445474 151.765582 
L 405.993286 155.093055 
L 411.192061 172.441746 
L 415.257196 182.056568 
L 425.571719 184.500852 
L 448.164674 187.42731 
L 468.921453 191.012579 
L 486.625389 193.686015 
L 511.840085 196.898913 
L 553.791132 204.036032 
L 566.098305 205.768992 
L 587.733255 232.446065 
L 615.435571 233.51544 
L 619.765755 233.057136 
L 646.928395 230.168871 
" clip-path="url(#p889febf709)" style="fill: none; stroke: #f29888; stroke-width: 0.2"/>
    <path d="M 589.709939 272.25162 
L 585.175381 301.05312 
L 582.205565 339.393059 
L 578.72162 351.652673 
L 572.395592 357.978214 
L 567.749267 360.432046 
L 560.002198 360.947638 
L 545.414973 367.78877 
L 523.342534 372.95423 
L 508.624381 379.666465 
L 502.557015 380.310954 
L 485.261828 379.795362 
L 471.188732 383.924866 
L 453.781778 391.40094 
" clip-path="url(#p889febf709)" style="fill: none; stroke: #f29888; stroke-width: 0.2"/>
    <path d="M 658.775726 376.214868 
L 658.842786 362.231842 
L 658.944973 341.436328 
L 646.928395 230.168871 
" clip-path="url(#p889febf709)" style="fill: none; stroke: #f29888; stroke-width: 0.2"/>
    <path d="M 419.028543 262.951881 
L 585.836405 277.84674 
" clip-path="url(#p889febf709)" style="fill: none; stroke: #f29888; stroke-width: 0.2"/>
    <path d="M 619.765755 233.057136 
L 600.295896 253.403895 
L 589.709939 272.25162 
L 585.836405 277.84674 
L 572.283825 291.872731 
L 560.925077 298.32717 
L 545.945069 298.250786 
" clip-path="url(#p889febf709)" style="fill: none; stroke: #f29888; stroke-width: 0.2"/>
    <path d="M 686.391822 225.390103 
L 646.928395 230.168871 
" clip-path="url(#p889febf709)" style="fill: none; stroke: #f29888; stroke-width: 0.2"/>
    <path d="M 688.406837 225.17691 
L 686.391822 225.390103 
" clip-path="url(#p889febf709)" style="fill: none; stroke: #f29888; stroke-width: 0.2"/>
    <path d="M 487.866501 130.94011 
L 488.222064 135.915925 
L 490.495729 139.701701 
L 495.295335 144.251317 
L 502.869963 146.270716 
L 511.709157 148.543136 
L 515.649752 153.00682 
L 519.286978 157.126776 
L 520.548352 163.695791 
L 517.013313 175.057894 
L 516.508763 185.665707 
L 522.569743 192.735991 
L 536.460818 197.533854 
L 555.40058 200.312318 
L 566.098305 205.768992 
" clip-path="url(#p889febf709)" style="fill: none; stroke: #f29888; stroke-width: 0.2"/>
    <path d="M 642.189306 225.464856 
L 642.527958 226.979843 
L 646.928395 230.168871 
" clip-path="url(#p889febf709)" style="fill: none; stroke: #f29888; stroke-width: 0.2"/>
    <path d="M 292.678799 87.547166 
L 295.260661 88.610427 
" clip-path="url(#p889febf709)" style="fill: none; stroke: #f29888; stroke-width: 0.2"/>
    <path d="M 481.478367 127.921479 
L 477.616947 132.884439 
L 457.412617 137.400637 
L 451.306931 139.730345 
L 448.573423 140.77585 
L 445.970842 141.9598 
L 442.799845 142.561323 
L 438.048139 142.632933 
L 402.445474 151.765582 
" clip-path="url(#p889febf709)" style="fill: none; stroke: #f29888; stroke-width: 0.2"/>
   </g>
  </g>
 </g>
 <defs>
  <clipPath id="p889febf709">
   <rect x="7.2" y="7.2" width="736.568029" height="831.6"/>
  </clipPath>
 </defs>
</svg>
