<?xml version="1.0" encoding="utf-8" standalone="no"?>
<!DOCTYPE svg PUBLIC "-//W3C//DTD SVG 1.1//EN"
  "http://www.w3.org/Graphics/SVG/1.1/DTD/svg11.dtd">
<svg xmlns:xlink="http://www.w3.org/1999/xlink" width="851.4pt" height="542.97914pt" viewBox="0 0 851.4 542.97914" xmlns="http://www.w3.org/2000/svg" version="1.1">
 <metadata>
  <rdf:RDF xmlns:dc="http://purl.org/dc/elements/1.1/" xmlns:cc="http://creativecommons.org/ns#" xmlns:rdf="http://www.w3.org/1999/02/22-rdf-syntax-ns#">
   <cc:Work>
    <dc:type rdf:resource="http://purl.org/dc/dcmitype/StillImage"/>
    <dc:date>2025-03-16T14:29:57.751249</dc:date>
    <dc:format>image/svg+xml</dc:format>
    <dc:creator>
     <cc:Agent>
      <dc:title>Matplotlib v3.10.1, https://matplotlib.org/</dc:title>
     </cc:Agent>
    </dc:creator>
   </cc:Work>
  </rdf:RDF>
 </metadata>
 <defs>
  <style type="text/css">*{stroke-linejoin: round; stroke-linecap: butt}</style>
 </defs>
 <g id="figure_1">
  <g id="patch_1">
   <path d="M 0 542.97914 
L 851.4 542.97914 
L 851.4 0 
L 0 0 
z
" style="fill: #ffffff"/>
  </g>
  <g id="axes_1">
   <g id="PatchCollection_1">
    <path d="M 45.245455 177.253361 
L 49.103708 212.816248 
L 76.836754 210.597593 
L 124.063434 209.329473 
L 135.314705 216.935973 
L 160.513001 240.073059 
L 161.464271 258.455249 
L 227.549422 280.959385 
L 267.644537 295.539436 
L 292.209147 310.277169 
L 301.401303 323.116053 
L 306.154695 356.238197 
L 296.328852 362.896383 
L 298.865077 390.155414 
L 322.63647 401.408593 
L 340.227567 407.431609 
L 360.988576 407.906876 
L 408.215257 404.895368 
L 444.348719 409.967849 
L 488.405486 425.658338 
L 513.603783 436.436249 
L 533.175706 440.082927 
L 529.553792 511.752815 
L 723.058808 468.141474 
L 764.205637 473.473797 
L 776.677014 451.493788 
L 768.436127 437.229101 
L 781.114301 419.47764 
L 791.41578 398.239403 
L 796.170649 393.00924 
L 806.154545 388.254345 
L 747.20096 366.383158 
L 741.812403 361.785945 
L 740.703081 348.314111 
L 748.310282 328.02863 
L 750.369395 309.961804 
L 749.260074 288.090618 
L 755.124265 276.997342 
L 752.589516 260.673904 
L 749.419603 237.536818 
L 747.992699 214.559635 
L 753.698838 184.291317 
L 755.757952 168.287685 
L 763.840787 158.462529 
L 768.753709 148.954959 
L 782.70812 103.604672 
L 772.840917 101.261648 
L 680.798226 82.086605 
L 592.525162 58.478693 
L 567.8025 45.168984 
L 520.417767 31.226325 
L 486.978582 31.701592 
L 385.077551 42.632743 
L 336.899601 49.288709 
L 273.508728 71.946085 
L 228.658744 85.731062 
L 173.508758 108.073075 
L 164.474654 111.084582 
L 166.21914 112.668067 
L 175.40982 117.263059 
L 184.919558 122.175637 
L 190.62422 128.514017 
L 135.314705 143.409432 
L 87.613867 155.610925 
L 60.830614 167.812417 
L 45.245455 177.253361 
" clip-path="url(#pa84b6ce7d6)" style="fill: #f29888"/>
   </g>
   <g id="PatchCollection_2">
    <path d="M 635.364777 349.053663 
L 634.86994 355.438681 
L 623.1711 354.530343 
L 623.665937 348.145325 
L 635.364777 349.053663 
" clip-path="url(#pa84b6ce7d6)" style="fill: #f29888"/>
    <path d="M 653.728411 337.336321 
L 653.387194 342.861861 
L 641.605635 342.133413 
L 641.946852 336.607874 
L 653.728411 337.336321 
" clip-path="url(#pa84b6ce7d6)" style="fill: #f29888"/>
    <path d="M 671.870475 324.517425 
L 676.501266 324.717304 
L 676.186638 331.981789 
L 671.55437 331.77969 
L 671.870475 324.517425 
" clip-path="url(#pa84b6ce7d6)" style="fill: #f29888"/>
    <path d="M 659.78906 326.085364 
L 660.111073 321.585869 
L 660.074145 318.652092 
L 665.375551 318.923039 
L 664.883668 328.530548 
L 659.582262 328.259601 
L 659.78906 326.085364 
" clip-path="url(#pa84b6ce7d6)" style="fill: #f29888"/>
    <path d="M 660.111073 321.585869 
L 659.78906 326.085364 
L 642.264434 324.830569 
L 642.58497 320.331074 
L 660.111073 321.585869 
" clip-path="url(#pa84b6ce7d6)" style="fill: #f29888"/>
    <path d="M 613.157661 317.495016 
L 612.829739 324.512984 
L 601.107265 323.966648 
L 601.435187 316.946459 
L 613.157661 317.495016 
" clip-path="url(#pa84b6ce7d6)" style="fill: #f29888"/>
    <path d="M 660.074145 318.652092 
L 659.681229 321.834607 
L 642.58497 320.331074 
L 631.856602 319.191765 
L 632.168276 315.913752 
L 660.074145 318.652092 
" clip-path="url(#pa84b6ce7d6)" style="fill: #f29888"/>
    <path d="M 664.730047 309.046803 
L 664.46121 312.304828 
L 642.899598 310.523686 
L 643.168435 307.265661 
L 664.730047 309.046803 
" clip-path="url(#pa84b6ce7d6)" style="fill: #f29888"/>
    <path d="M 621.863843 301.55801 
L 621.352757 308.669254 
L 601.97877 307.272323 
L 602.491332 300.163299 
L 621.863843 301.55801 
" clip-path="url(#pa84b6ce7d6)" style="fill: #f29888"/>
    <path d="M 627.052988 294.000369 
L 636.760661 294.646644 
L 635.737013 310.019547 
L 626.030816 309.375493 
L 627.052988 294.000369 
" clip-path="url(#pa84b6ce7d6)" style="fill: #f29888"/>
    <path d="M 609.687891 336.259197 
L 609.624375 339.197415 
L 602.210678 339.039733 
L 602.272718 336.101514 
L 609.687891 336.259197 
" clip-path="url(#pa84b6ce7d6)" style="fill: #f29888"/>
    <path d="M 609.990702 328.570524 
L 609.884349 331.510964 
L 602.439633 331.242238 
L 602.545986 328.299577 
L 609.990702 328.570524 
" clip-path="url(#pa84b6ce7d6)" style="fill: #f29888"/>
    <path d="M 603.563726 288.041758 
L 606.683417 288.17279 
L 606.392423 295.108586 
L 603.272732 294.977554 
L 603.563726 288.041758 
" clip-path="url(#pa84b6ce7d6)" style="fill: #f29888"/>
    <path d="M 602.071829 281.430211 
L 601.501658 284.49724 
L 593.76447 283.055892 
L 594.334641 279.988862 
L 602.071829 281.430211 
" clip-path="url(#pa84b6ce7d6)" style="fill: #f29888"/>
    <path d="M 603.21217 276.386601 
L 602.613934 278.987247 
L 594.966851 277.228313 
L 595.565087 274.627668 
L 603.21217 276.386601 
" clip-path="url(#pa84b6ce7d6)" style="fill: #f29888"/>
    <path d="M 456.013585 247.748406 
L 462.418404 245.525309 
L 463.353425 248.221452 
L 456.948606 250.444549 
L 456.013585 247.748406 
" clip-path="url(#pa84b6ce7d6)" style="fill: #f29888"/>
    <path d="M 474.643101 241.170171 
L 481.046443 238.947074 
L 481.982942 241.640997 
L 475.578122 243.864094 
L 474.643101 241.170171 
" clip-path="url(#pa84b6ce7d6)" style="fill: #f29888"/>
    <path d="M 483.604826 238.129792 
L 490.008168 235.906695 
L 490.943189 238.600618 
L 484.539847 240.823715 
L 483.604826 238.129792 
" clip-path="url(#pa84b6ce7d6)" style="fill: #f29888"/>
    <path d="M 480.185279 225.417498 
L 480.306403 228.23801 
L 473.304825 228.537829 
L 473.185178 225.715095 
L 480.185279 225.417498 
" clip-path="url(#pa84b6ce7d6)" style="fill: #f29888"/>
    <path d="M 489.067239 225.084367 
L 489.188363 227.9071 
L 482.186785 228.204697 
L 482.067138 225.384185 
L 489.067239 225.084367 
" clip-path="url(#pa84b6ce7d6)" style="fill: #f29888"/>
    <path d="M 630.945215 283.799885 
L 630.103253 285.96746 
L 622.392654 282.969278 
L 623.236093 280.801703 
L 630.945215 283.799885 
" clip-path="url(#pa84b6ce7d6)" style="fill: #f29888"/>
    <path d="M 610.422023 239.897609 
L 612.085267 232.371061 
L 628.250937 236.333103 
L 625.636424 244.017334 
L 610.422023 239.897609 
" clip-path="url(#pa84b6ce7d6)" style="fill: #f29888"/>
    <path d="M 629.188912 213.662402 
L 626.88755 222.368235 
L 620.95541 220.800297 
L 623.256773 212.094463 
L 629.188912 213.662402 
" clip-path="url(#pa84b6ce7d6)" style="fill: #f29888"/>
    <path d="M 555.685633 225.770617 
L 559.577861 226.481298 
L 560.722633 220.218427 
L 563.73154 220.769205 
L 561.893995 230.827552 
L 554.992861 229.566094 
L 555.685633 225.770617 
" clip-path="url(#pa84b6ce7d6)" style="fill: #f29888"/>
    <path d="M 493.176604 219.283439 
L 493.297729 222.103951 
L 488.73784 222.297167 
L 488.618193 219.476655 
L 493.176604 219.283439 
" clip-path="url(#pa84b6ce7d6)" style="fill: #f29888"/>
    <path d="M 500.122052 218.865914 
L 500.241699 221.686426 
L 495.68181 221.879643 
L 495.562163 219.05913 
L 500.122052 218.865914 
" clip-path="url(#pa84b6ce7d6)" style="fill: #f29888"/>
    <path d="M 509.460444 218.668256 
L 509.580091 221.488768 
L 502.57999 221.786366 
L 502.458866 218.965853 
L 509.460444 218.668256 
" clip-path="url(#pa84b6ce7d6)" style="fill: #f29888"/>
   </g>
   <g id="LineCollection_1">
    <path d="M 532.856015 446.408918 
L 534.23776 440.149553 
L 535.050179 434.408589 
L 535.338219 423.217595 
L 535.530245 411.08717 
L 535.73852 399.156625 
L 535.872938 388.740716 
L 536.580482 377.063351 
L 537.0443 365.394868 
L 538.016249 362.187923 
L 539.564277 359.833795 
L 540.311703 358.696706 
L 542.0813 354.823499 
L 546.982405 340.905269 
L 549.273428 335.486332 
L 550.396044 333.496427 
L 552.983969 331.342177 
L 564.031396 325.028227 
L 570.678464 321.155019 
L 577.94888 319.766972 
L 584.929778 319.00299 
L 590.334583 317.519445 
L 592.534024 315.367416 
L 592.965345 313.11989 
L 591.836821 308.369436 
L 586.494055 299.981188 
L 585.276903 296.667641 
L 583.991803 291.257587 
L 585.817531 283.8865 
L 586.900265 278.880645 
L 586.291689 275.229525 
L 583.721489 267.99169 
L 580.813028 261.160276 
L 580.33887 257.882263 
L 579.595875 253.620402 
" clip-path="url(#pa84b6ce7d6)" style="fill: none; stroke: #f29888; stroke-width: 0.2"/>
    <path d="M 535.530245 411.08717 
L 487.646244 407.773623 
L 471.954731 405.743743 
L 471.211737 404.051435 
L 471.845424 395.558806 
" clip-path="url(#pa84b6ce7d6)" style="fill: none; stroke: #f29888; stroke-width: 0.2"/>
    <path d="M 535.73852 399.156625 
L 471.845424 395.558806 
L 459.083053 394.839242 
L 456.644318 393.977542 
L 455.018002 392.782711 
L 454.539413 391.10817 
L 455.080041 383.9836 
" clip-path="url(#pa84b6ce7d6)" style="fill: none; stroke: #f29888; stroke-width: 0.2"/>
    <path d="M 376.086284 379.735064 
L 413.580179 380.117055 
L 425.104718 380.7389 
L 437.060578 381.6006 
L 441.364924 382.269084 
L 445.190681 383.512774 
L 455.080041 383.9836 
L 457.242554 384.087981 
L 472.344693 384.954123 
L 511.187205 387.183882 
L 526.810769 387.792402 
L 535.872938 388.740716 
" clip-path="url(#pa84b6ce7d6)" style="fill: none; stroke: #f29888; stroke-width: 0.2"/>
    <path d="M 536.580482 377.063351 
L 472.873504 372.668237 
" clip-path="url(#pa84b6ce7d6)" style="fill: none; stroke: #f29888; stroke-width: 0.2"/>
    <path d="M 458.275065 361.74819 
L 457.242554 384.087981 
" clip-path="url(#pa84b6ce7d6)" style="fill: none; stroke: #f29888; stroke-width: 0.2"/>
    <path d="M 537.0443 365.394868 
L 527.57592 365.801289 
L 473.672629 362.283421 
L 458.275065 361.74819 
L 413.20942 360.186914 
" clip-path="url(#pa84b6ce7d6)" style="fill: none; stroke: #f29888; stroke-width: 0.2"/>
    <path d="M 488.695003 318.72316 
L 479.270938 328.475026 
L 476.818908 335.219827 
L 475.192592 342.968463 
L 473.672629 362.283421 
L 472.873504 372.668237 
L 472.344693 384.954123 
" clip-path="url(#pa84b6ce7d6)" style="fill: none; stroke: #f29888; stroke-width: 0.2"/>
    <path d="M 592.53107 354.132806 
L 546.982405 340.905269 
" clip-path="url(#pa84b6ce7d6)" style="fill: none; stroke: #f29888; stroke-width: 0.2"/>
    <path d="M 390.407023 244.548124 
L 392.012659 249.567303 
L 397.08511 256.061145 
L 401.008358 260.793831 
L 403.308243 265.257792 
L 405.066023 272.968673 
L 406.419071 276.553167 
L 409.392526 282.978161 
L 412.708675 287.171175 
L 420.351326 293.258596 
L 434.351528 302.930511 
L 444.833216 309.422131 
L 464.71829 320.919606 
L 479.270938 328.475026 
L 498.331775 335.395276 
L 510.97893 338.573349 
L 517.4709 339.181869 
L 523.828451 337.693882 
L 535.39435 336.814416 
L 550.396044 333.496427 
" clip-path="url(#pa84b6ce7d6)" style="fill: none; stroke: #f29888; stroke-width: 0.2"/>
    <path d="M 691.984845 475.144792 
L 679.628342 443.580807 
" clip-path="url(#pa84b6ce7d6)" style="fill: none; stroke: #f29888; stroke-width: 0.2"/>
    <path d="M 703.652324 450.962998 
L 680.879468 444.056074 
L 679.628342 443.580807 
L 657.591096 435.192558 
L 637.599669 420.972289 
L 625.543365 414.065365 
L 620.803266 410.769585 
" clip-path="url(#pa84b6ce7d6)" style="fill: none; stroke: #f29888; stroke-width: 0.2"/>
    <path d="M 560.907274 399.647438 
L 618.010021 402.723352 
" clip-path="url(#pa84b6ce7d6)" style="fill: none; stroke: #f29888; stroke-width: 0.2"/>
    <path d="M 620.803266 410.769585 
L 618.432479 407.160662 
L 618.010021 402.723352 
L 617.608242 398.503687 
L 616.16509 394.588283 
L 613.280262 392.836012 
L 563.611892 388.818447 
L 560.211548 385.931308 
L 559.49071 380.572335 
L 555.780169 372.843686 
L 551.14347 366.145524 
L 543.003027 364.599795 
L 539.564277 359.833795 
" clip-path="url(#pa84b6ce7d6)" style="fill: none; stroke: #f29888; stroke-width: 0.2"/>
    <path d="M 603.252052 246.884485 
L 605.76169 249.645034 
L 614.179832 254.744165 
L 637.261407 264.655935 
L 646.477198 268.387006 
L 653.716594 271.509558 
L 660.204132 273.406186 
L 671.705037 276.051249 
L 683.061184 280.723972 
L 704.19886 289.858435 
L 719.507797 296.203478 
L 724.815111 299.421527 
L 728.815169 302.899419 
L 730.858035 304.676119 
L 733.087018 306.614944 
L 744.519976 315.45403 
L 749.363098 318.791135 
" clip-path="url(#pa84b6ce7d6)" style="fill: none; stroke: #f29888; stroke-width: 0.2"/>
    <path d="M 622.627517 311.616357 
L 661.193807 316.240221 
L 677.248692 321.998952 
L 678.644576 324.792814 
L 677.597294 332.907895 
" clip-path="url(#pa84b6ce7d6)" style="fill: none; stroke: #f29888; stroke-width: 0.2"/>
    <path d="M 624.197703 293.291909 
L 622.627517 311.616357 
L 621.366052 317.128571 
L 620.575789 320.579812 
L 620.101632 332.941208 
L 622.794433 339.834807 
L 627.311485 343.956753 
" clip-path="url(#pa84b6ce7d6)" style="fill: none; stroke: #f29888; stroke-width: 0.2"/>
    <path d="M 592.965345 313.11989 
L 621.366052 317.128571 
" clip-path="url(#pa84b6ce7d6)" style="fill: none; stroke: #f29888; stroke-width: 0.2"/>
    <path d="M 579.595875 253.620402 
L 582.674207 248.183698 
" clip-path="url(#pa84b6ce7d6)" style="fill: none; stroke: #f29888; stroke-width: 0.2"/>
    <path d="M 475.192592 342.968463 
L 446.976527 340.003593 
L 428.612893 337.132001 
L 413.12227 337.30745 
" clip-path="url(#pa84b6ce7d6)" style="fill: none; stroke: #f29888; stroke-width: 0.2"/>
    <path d="M 413.580179 380.117055 
L 413.20942 360.186914 
L 414.269997 351.081323 
L 413.12227 337.30745 
L 412.261105 322.769596 
L 409.392526 282.978161 
" clip-path="url(#pa84b6ce7d6)" style="fill: none; stroke: #f29888; stroke-width: 0.2"/>
    <path d="M 453.381346 237.841078 
L 442.382664 238.17643 
L 434.060535 237.125956 
L 429.756189 236.168759 
L 414.549174 231.48271 
" clip-path="url(#pa84b6ce7d6)" style="fill: none; stroke: #f29888; stroke-width: 0.2"/>
    <path d="M 429.756189 236.168759 
L 420.623117 174.221865 
L 401.780895 169.058329 
L 394.415943 164.754271 
L 392.120489 164.754271 
L 380.547205 167.048436 
" clip-path="url(#pa84b6ce7d6)" style="fill: none; stroke: #f29888; stroke-width: 0.2"/>
    <path d="M 108.571822 150.250047 
L 114.713225 183.816049 
L 115.346912 196.810395 
L 113.444374 207.90367 
L 112.48459 209.640385 
" clip-path="url(#pa84b6ce7d6)" style="fill: none; stroke: #f29888; stroke-width: 0.2"/>
    <path d="M 414.549174 231.48271 
L 406.083763 212.094463 
L 396.423358 201.096685 
L 390.111597 189.714696 
L 380.547205 167.048436 
L 372.548566 146.394289 
L 360.365229 114.928919 
" clip-path="url(#pa84b6ce7d6)" style="fill: none; stroke: #f29888; stroke-width: 0.2"/>
    <path d="M 166.521494 110.402271 
L 181.302076 118.642223 
L 194.055584 128.44517 
L 232.206801 162.302424 
L 321.245017 242.380549 
L 329.262859 247.870554 
L 338.460924 249.087594 
L 351.446341 248.276974 
L 379.039059 244.08396 
L 390.407023 244.548124 
L 397.909347 245.774047 
L 405.009893 247.599607 
L 419.484253 256.527529 
L 428.140213 265.04903 
L 435.986707 268.702371 
L 448.565914 268.431424 
L 455.19378 265.04903 
L 459.941264 260.118685 
L 465.744893 254.093448 
L 472.250157 249.369645 
L 473.276759 248.623431 
L 475.618004 246.924461 
L 498.613906 238.40296 
L 514.574255 232.857432 
L 524.17853 231.233972 
L 527.695568 231.504919 
L 533.2407 234.345419 
L 568.27518 245.436474 
L 575.137908 247.173199 
L 578.960711 248.141501 
L 582.674207 248.183698 
L 590.728976 248.276974 
L 599.878296 248.061549 
L 603.252052 246.884485 
L 603.850289 245.707421 
L 612.723386 209.071851 
L 622.472419 168.178862 
L 640.748902 141.93477 
L 667.608966 104.170996 
L 677.954758 89.624258 
L 683.122058 82.570724 
" clip-path="url(#pa84b6ce7d6)" style="fill: none; stroke: #f29888; stroke-width: 0.2"/>
    <path d="M 372.548566 146.394289 
L 386.954978 146.201073 
L 428.943769 151.269112 
L 436.909911 152.745995 
" clip-path="url(#pa84b6ce7d6)" style="fill: none; stroke: #f29888; stroke-width: 0.2"/>
    <path d="M 468.573589 234.209946 
L 470.861658 245.389836 
L 472.250157 249.369645 
" clip-path="url(#pa84b6ce7d6)" style="fill: none; stroke: #f29888; stroke-width: 0.2"/>
    <path d="M 473.276759 248.623431 
L 471.957686 244.958986 
L 469.801081 234.110007 
" clip-path="url(#pa84b6ce7d6)" style="fill: none; stroke: #f29888; stroke-width: 0.2"/>
    <path d="M 459.941264 260.118685 
L 457.379927 256.787371 
L 455.524656 253.089613 
L 453.381346 237.841078 
L 448.497967 201.676334 
L 445.806643 181.621824 
L 442.260062 167.639189 
L 436.909911 152.745995 
" clip-path="url(#pa84b6ce7d6)" style="fill: none; stroke: #f29888; stroke-width: 0.2"/>
    <path d="M 436.909911 152.745995 
L 442.33835 155.564286 
L 476.390542 155.833012 
L 502.117649 156.730246 
" clip-path="url(#pa84b6ce7d6)" style="fill: none; stroke: #f29888; stroke-width: 0.2"/>
    <path d="M 477.588491 135.643029 
L 412.380753 129.300207 
" clip-path="url(#pa84b6ce7d6)" style="fill: none; stroke: #f29888; stroke-width: 0.2"/>
    <path d="M 406.653934 109.370066 
L 421.803341 110.9269 
L 479.169016 114.384804 
L 524.962884 119.26629 
L 540.112291 119.432855 
L 549.670775 118.402369 
L 574.876457 132.687043 
L 605.551938 136.378139 
L 640.748902 141.93477 
" clip-path="url(#pa84b6ce7d6)" style="fill: none; stroke: #f29888; stroke-width: 0.2"/>
    <path d="M 476.390542 155.833012 
L 477.588491 135.643029 
L 479.169016 114.384804 
L 480.501384 81.258218 
L 484.80573 49.222082 
" clip-path="url(#pa84b6ce7d6)" style="fill: none; stroke: #f29888; stroke-width: 0.2"/>
    <path d="M 436.909911 152.745995 
L 416.71021 134.843514 
L 412.380753 129.300207 
L 408.838604 123.541476 
L 398.489857 107.397928 
" clip-path="url(#pa84b6ce7d6)" style="fill: none; stroke: #f29888; stroke-width: 0.2"/>
    <path d="M 408.838604 123.541476 
L 406.653934 109.370066 
" clip-path="url(#pa84b6ce7d6)" style="fill: none; stroke: #f29888; stroke-width: 0.2"/>
    <path d="M 406.653934 109.370066 
L 398.489857 107.397928 
" clip-path="url(#pa84b6ce7d6)" style="fill: none; stroke: #f29888; stroke-width: 0.2"/>
    <path d="M 575.137908 247.173199 
L 579.595875 253.620402 
" clip-path="url(#pa84b6ce7d6)" style="fill: none; stroke: #f29888; stroke-width: 0.2"/>
    <path d="M 714.086743 101.863505 
L 707.392407 158.931134 
L 704.107278 182.294749 
L 703.863553 193.368037 
L 714.086743 226.710048 
L 736.84335 283.906487 
L 736.4785 290.358132 
L 730.858035 304.676119 
" clip-path="url(#pa84b6ce7d6)" style="fill: none; stroke: #f29888; stroke-width: 0.2"/>
    <path d="M 622.472419 168.178862 
L 638.932037 173.475651 
L 643.63373 174.383989 
L 647.246781 174.177448 
L 649.413725 172.298587 
L 654.994308 148.097701 
L 660.342982 142.203496 
L 665.176139 132.458293 
L 674.130478 115.899442 
L 668.979739 110.353914 
L 667.608966 104.170996 
" clip-path="url(#pa84b6ce7d6)" style="fill: none; stroke: #f29888; stroke-width: 0.2"/>
    <path d="M 582.838168 66.604879 
L 574.708065 128.573981 
L 574.876457 132.687043 
L 576.430394 150.378541 
L 581.786454 161.567314 
L 585.994786 167.974541 
" clip-path="url(#pa84b6ce7d6)" style="fill: none; stroke: #f29888; stroke-width: 0.2"/>
    <path d="M 778.260507 118.058922 
L 714.086743 101.863505 
L 677.954758 89.624258 
" clip-path="url(#pa84b6ce7d6)" style="fill: none; stroke: #f29888; stroke-width: 0.2"/>
    <path d="M 258.887756 76.43995 
L 245.363565 81.498073 
L 188.502263 101.999001 
" clip-path="url(#pa84b6ce7d6)" style="fill: none; stroke: #f29888; stroke-width: 0.2"/>
   </g>
  </g>
 </g>
 <defs>
  <clipPath id="pa84b6ce7d6">
   <rect x="7.2" y="7.2" width="837" height="528.57914"/>
  </clipPath>
 </defs>
</svg>
